<?xml version="1.0" encoding="UTF-8" standalone="no"?>
<!DOCTYPE svg PUBLIC "-//W3C//DTD SVG 1.1//EN"
 "http://www.w3.org/Graphics/SVG/1.1/DTD/svg11.dtd">
<!-- Generated by graphviz version 2.43.0 (0)
 -->
<!-- Title: accelerate&#45;private.h Pages: 1 -->
<svg width="652pt" height="84pt"
 viewBox="0.00 0.00 651.50 84.00" xmlns="http://www.w3.org/2000/svg" xmlns:xlink="http://www.w3.org/1999/xlink">
<g id="graph0" class="graph" transform="scale(1 1) rotate(0) translate(4 80)">
<title>accelerate&#45;private.h</title>
<polygon fill="white" stroke="transparent" points="-4,4 -4,-80 647.5,-80 647.5,4 -4,4"/>
<!-- Node1 -->
<g id="node1" class="node">
<title>Node1</title>
<g id="a_node1"><a xlink:title=" ">
<polygon fill="#bfbfbf" stroke="black" points="269.5,-56.5 269.5,-75.5 384.5,-75.5 384.5,-56.5 269.5,-56.5"/>
<text text-anchor="middle" x="327" y="-63.5" font-family="FreeSans" font-size="10.00">accelerate&#45;private.h</text>
</a>
</g>
</g>
<!-- Node2 -->
<g id="node2" class="node">
<title>Node2</title>
<g id="a_node2"><a xlink:href="accelerate_8c.html" target="_top" xlink:title=" ">
<polygon fill="white" stroke="black" points="0,-0.5 0,-19.5 76,-19.5 76,-0.5 0,-0.5"/>
<text text-anchor="middle" x="38" y="-7.5" font-family="FreeSans" font-size="10.00">accelerate.c</text>
</a>
</g>
</g>
<!-- Node1&#45;&gt;Node2 -->
<g id="edge1" class="edge">
<title>Node1&#45;&gt;Node2</title>
<path fill="none" stroke="midnightblue" d="M270.5,-54.58C221.44,-45.52 148.51,-31.99 85,-20 82.14,-19.46 79.19,-18.9 76.22,-18.34"/>
<polygon fill="midnightblue" stroke="midnightblue" points="270.12,-58.07 280.59,-56.45 271.4,-51.19 270.12,-58.07"/>
</g>
<!-- Node3 -->
<g id="node3" class="node">
<title>Node3</title>
<g id="a_node3"><a xlink:href="composite_8c.html" target="_top" xlink:title=" ">
<polygon fill="white" stroke="black" points="94,-0.5 94,-19.5 170,-19.5 170,-0.5 94,-0.5"/>
<text text-anchor="middle" x="132" y="-7.5" font-family="FreeSans" font-size="10.00">composite.c</text>
</a>
</g>
</g>
<!-- Node1&#45;&gt;Node3 -->
<g id="edge2" class="edge">
<title>Node1&#45;&gt;Node3</title>
<path fill="none" stroke="midnightblue" d="M286.19,-53.7C249.39,-43.51 196.07,-28.74 162.75,-19.52"/>
<polygon fill="midnightblue" stroke="midnightblue" points="285.53,-57.15 296.1,-56.44 287.4,-50.4 285.53,-57.15"/>
</g>
<!-- Node4 -->
<g id="node4" class="node">
<title>Node4</title>
<g id="a_node4"><a xlink:href="effect_8c.html" target="_top" xlink:title=" ">
<polygon fill="white" stroke="black" points="188.5,-0.5 188.5,-19.5 241.5,-19.5 241.5,-0.5 188.5,-0.5"/>
<text text-anchor="middle" x="215" y="-7.5" font-family="FreeSans" font-size="10.00">effect.c</text>
</a>
</g>
</g>
<!-- Node1&#45;&gt;Node4 -->
<g id="edge3" class="edge">
<title>Node1&#45;&gt;Node4</title>
<path fill="none" stroke="midnightblue" d="M299.75,-51.86C278.98,-41.85 250.98,-28.35 232.95,-19.65"/>
<polygon fill="midnightblue" stroke="midnightblue" points="298.48,-55.13 309.01,-56.32 301.52,-48.83 298.48,-55.13"/>
</g>
<!-- Node5 -->
<g id="node5" class="node">
<title>Node5</title>
<g id="a_node5"><a xlink:href="enhance_8c.html" target="_top" xlink:title=" ">
<polygon fill="white" stroke="black" points="260,-0.5 260,-19.5 326,-19.5 326,-0.5 260,-0.5"/>
<text text-anchor="middle" x="293" y="-7.5" font-family="FreeSans" font-size="10.00">enhance.c</text>
</a>
</g>
</g>
<!-- Node1&#45;&gt;Node5 -->
<g id="edge4" class="edge">
<title>Node1&#45;&gt;Node5</title>
<path fill="none" stroke="midnightblue" d="M316.02,-47.57C310.17,-38.27 303.23,-27.25 298.51,-19.75"/>
<polygon fill="midnightblue" stroke="midnightblue" points="313.1,-49.49 321.39,-56.08 319.02,-45.76 313.1,-49.49"/>
</g>
<!-- Node6 -->
<g id="node6" class="node">
<title>Node6</title>
<g id="a_node6"><a xlink:href="fx_8c.html" target="_top" xlink:title=" ">
<polygon fill="white" stroke="black" points="344.5,-0.5 344.5,-19.5 379.5,-19.5 379.5,-0.5 344.5,-0.5"/>
<text text-anchor="middle" x="362" y="-7.5" font-family="FreeSans" font-size="10.00">fx.c</text>
</a>
</g>
</g>
<!-- Node1&#45;&gt;Node6 -->
<g id="edge5" class="edge">
<title>Node1&#45;&gt;Node6</title>
<path fill="none" stroke="midnightblue" d="M338.3,-47.57C344.32,-38.27 351.47,-27.25 356.33,-19.75"/>
<polygon fill="midnightblue" stroke="midnightblue" points="335.28,-45.79 332.78,-56.08 341.16,-49.6 335.28,-45.79"/>
</g>
<!-- Node7 -->
<g id="node7" class="node">
<title>Node7</title>
<g id="a_node7"><a xlink:href="resize_8c.html" target="_top" xlink:title=" ">
<polygon fill="white" stroke="black" points="398,-0.5 398,-19.5 452,-19.5 452,-0.5 398,-0.5"/>
<text text-anchor="middle" x="425" y="-7.5" font-family="FreeSans" font-size="10.00">resize.c</text>
</a>
</g>
</g>
<!-- Node1&#45;&gt;Node7 -->
<g id="edge6" class="edge">
<title>Node1&#45;&gt;Node7</title>
<path fill="none" stroke="midnightblue" d="M351.59,-51.45C369.68,-41.48 393.73,-28.23 409.29,-19.65"/>
<polygon fill="midnightblue" stroke="midnightblue" points="349.81,-48.43 342.75,-56.32 353.19,-54.56 349.81,-48.43"/>
</g>
<!-- Node8 -->
<g id="node8" class="node">
<title>Node8</title>
<g id="a_node8"><a xlink:href="statistic_8c.html" target="_top" xlink:title=" ">
<polygon fill="white" stroke="black" points="470,-0.5 470,-19.5 534,-19.5 534,-0.5 470,-0.5"/>
<text text-anchor="middle" x="502" y="-7.5" font-family="FreeSans" font-size="10.00">statistic.c</text>
</a>
</g>
</g>
<!-- Node1&#45;&gt;Node8 -->
<g id="edge7" class="edge">
<title>Node1&#45;&gt;Node8</title>
<path fill="none" stroke="midnightblue" d="M364.47,-53.44C397.47,-43.26 444.76,-28.66 474.4,-19.52"/>
<polygon fill="midnightblue" stroke="midnightblue" points="363.25,-50.15 354.73,-56.44 365.32,-56.84 363.25,-50.15"/>
</g>
<!-- Node9 -->
<g id="node9" class="node">
<title>Node9</title>
<g id="a_node9"><a xlink:href="visual-effects_8c.html" target="_top" xlink:title=" ">
<polygon fill="white" stroke="black" points="552.5,-0.5 552.5,-19.5 643.5,-19.5 643.5,-0.5 552.5,-0.5"/>
<text text-anchor="middle" x="598" y="-7.5" font-family="FreeSans" font-size="10.00">visual&#45;effects.c</text>
</a>
</g>
</g>
<!-- Node1&#45;&gt;Node9 -->
<g id="edge8" class="edge">
<title>Node1&#45;&gt;Node9</title>
<path fill="none" stroke="midnightblue" d="M379.83,-54.47C431.04,-44.27 507.77,-28.98 555.26,-19.52"/>
<polygon fill="midnightblue" stroke="midnightblue" points="379.06,-51.06 369.94,-56.44 380.43,-57.92 379.06,-51.06"/>
</g>
</g>
</svg>
