<?xml version="1.0" encoding="UTF-8" standalone="no"?>
<!DOCTYPE svg PUBLIC "-//W3C//DTD SVG 1.1//EN"
 "http://www.w3.org/Graphics/SVG/1.1/DTD/svg11.dtd">
<!-- Generated by graphviz version 2.43.0 (0)
 -->
<!-- Title: artifact.h Pages: 1 -->
<svg width="2566pt" height="140pt"
 viewBox="0.00 0.00 2566.00 140.00" xmlns="http://www.w3.org/2000/svg" xmlns:xlink="http://www.w3.org/1999/xlink">
<g id="graph0" class="graph" transform="scale(1 1) rotate(0) translate(4 136)">
<title>artifact.h</title>
<polygon fill="white" stroke="transparent" points="-4,4 -4,-136 2562,-136 2562,4 -4,4"/>
<!-- Node1 -->
<g id="node1" class="node">
<title>Node1</title>
<g id="a_node1"><a xlink:title=" ">
<polygon fill="#bfbfbf" stroke="black" points="1298.5,-112.5 1298.5,-131.5 1359.5,-131.5 1359.5,-112.5 1298.5,-112.5"/>
<text text-anchor="middle" x="1329" y="-119.5" font-family="FreeSans" font-size="10.00">artifact.h</text>
</a>
</g>
</g>
<!-- Node2 -->
<g id="node2" class="node">
<title>Node2</title>
<g id="a_node2"><a xlink:href="MagickCore_8h.html" target="_top" xlink:title=" ">
<polygon fill="white" stroke="black" points="89.5,-56.5 89.5,-75.5 172.5,-75.5 172.5,-56.5 89.5,-56.5"/>
<text text-anchor="middle" x="131" y="-63.5" font-family="FreeSans" font-size="10.00">MagickCore.h</text>
</a>
</g>
</g>
<!-- Node1&#45;&gt;Node2 -->
<g id="edge1" class="edge">
<title>Node1&#45;&gt;Node2</title>
<path fill="none" stroke="midnightblue" d="M1288.28,-121.39C1139.72,-122.4 613.03,-122.27 182,-76 178.96,-75.67 175.83,-75.28 172.68,-74.83"/>
<polygon fill="midnightblue" stroke="midnightblue" points="1288.34,-124.89 1298.32,-121.32 1288.29,-117.89 1288.34,-124.89"/>
</g>
<!-- Node6 -->
<g id="node6" class="node">
<title>Node6</title>
<g id="a_node6"><a xlink:href="accelerate_8c.html" target="_top" xlink:title=" ">
<polygon fill="white" stroke="black" points="191,-56.5 191,-75.5 267,-75.5 267,-56.5 191,-56.5"/>
<text text-anchor="middle" x="229" y="-63.5" font-family="FreeSans" font-size="10.00">accelerate.c</text>
</a>
</g>
</g>
<!-- Node1&#45;&gt;Node6 -->
<g id="edge5" class="edge">
<title>Node1&#45;&gt;Node6</title>
<path fill="none" stroke="midnightblue" d="M1287.94,-121.4C1146.69,-122.32 667.91,-121.65 276,-76 273.11,-75.66 270.13,-75.25 267.15,-74.79"/>
<polygon fill="midnightblue" stroke="midnightblue" points="1288.31,-124.9 1298.29,-121.33 1288.26,-117.9 1288.31,-124.9"/>
</g>
<!-- Node7 -->
<g id="node7" class="node">
<title>Node7</title>
<g id="a_node7"><a xlink:href="artifact_8c.html" target="_top" xlink:title=" ">
<polygon fill="white" stroke="black" points="285,-56.5 285,-75.5 345,-75.5 345,-56.5 285,-56.5"/>
<text text-anchor="middle" x="315" y="-63.5" font-family="FreeSans" font-size="10.00">artifact.c</text>
</a>
</g>
</g>
<!-- Node1&#45;&gt;Node7 -->
<g id="edge6" class="edge">
<title>Node1&#45;&gt;Node7</title>
<path fill="none" stroke="midnightblue" d="M1288,-120.06C1127.24,-116.24 539.7,-100.85 355,-76 351.75,-75.56 348.38,-74.99 345.04,-74.35"/>
<polygon fill="midnightblue" stroke="midnightblue" points="1288.32,-123.57 1298.4,-120.31 1288.48,-116.57 1288.32,-123.57"/>
</g>
<!-- Node8 -->
<g id="node8" class="node">
<title>Node8</title>
<g id="a_node8"><a xlink:href="attribute_8c.html" target="_top" xlink:title=" ">
<polygon fill="white" stroke="black" points="363.5,-56.5 363.5,-75.5 430.5,-75.5 430.5,-56.5 363.5,-56.5"/>
<text text-anchor="middle" x="397" y="-63.5" font-family="FreeSans" font-size="10.00">attribute.c</text>
</a>
</g>
</g>
<!-- Node1&#45;&gt;Node8 -->
<g id="edge7" class="edge">
<title>Node1&#45;&gt;Node8</title>
<path fill="none" stroke="midnightblue" d="M1288.11,-121.19C1161.51,-121.29 764.98,-117.97 440,-76 436.97,-75.61 433.84,-75.12 430.72,-74.57"/>
<polygon fill="midnightblue" stroke="midnightblue" points="1288.14,-124.69 1298.14,-121.17 1288.13,-117.69 1288.14,-124.69"/>
</g>
<!-- Node9 -->
<g id="node9" class="node">
<title>Node9</title>
<g id="a_node9"><a xlink:href="compare_8c.html" target="_top" xlink:title=" ">
<polygon fill="white" stroke="black" points="449,-56.5 449,-75.5 517,-75.5 517,-56.5 449,-56.5"/>
<text text-anchor="middle" x="483" y="-63.5" font-family="FreeSans" font-size="10.00">compare.c</text>
</a>
</g>
</g>
<!-- Node1&#45;&gt;Node9 -->
<g id="edge8" class="edge">
<title>Node1&#45;&gt;Node9</title>
<path fill="none" stroke="midnightblue" d="M1288.14,-120.87C1169.71,-120.04 816.25,-114.29 526,-76 523.13,-75.62 520.16,-75.16 517.19,-74.64"/>
<polygon fill="midnightblue" stroke="midnightblue" points="1288.19,-124.37 1298.21,-120.94 1288.23,-117.37 1288.19,-124.37"/>
</g>
<!-- Node10 -->
<g id="node10" class="node">
<title>Node10</title>
<g id="a_node10"><a xlink:href="composite_8c.html" target="_top" xlink:title=" ">
<polygon fill="white" stroke="black" points="535,-56.5 535,-75.5 611,-75.5 611,-56.5 535,-56.5"/>
<text text-anchor="middle" x="573" y="-63.5" font-family="FreeSans" font-size="10.00">composite.c</text>
</a>
</g>
</g>
<!-- Node1&#45;&gt;Node10 -->
<g id="edge9" class="edge">
<title>Node1&#45;&gt;Node10</title>
<path fill="none" stroke="midnightblue" d="M1288.26,-120.21C1179.39,-117.7 872.81,-108.1 620,-76 617.12,-75.63 614.14,-75.2 611.16,-74.72"/>
<polygon fill="midnightblue" stroke="midnightblue" points="1288.39,-123.71 1298.46,-120.43 1288.55,-116.71 1288.39,-123.71"/>
</g>
<!-- Node11 -->
<g id="node11" class="node">
<title>Node11</title>
<g id="a_node11"><a xlink:href="delegate_8c.html" target="_top" xlink:title=" ">
<polygon fill="white" stroke="black" points="629,-56.5 629,-75.5 697,-75.5 697,-56.5 629,-56.5"/>
<text text-anchor="middle" x="663" y="-63.5" font-family="FreeSans" font-size="10.00">delegate.c</text>
</a>
</g>
</g>
<!-- Node1&#45;&gt;Node11 -->
<g id="edge10" class="edge">
<title>Node1&#45;&gt;Node11</title>
<path fill="none" stroke="midnightblue" d="M1288.2,-119.88C1188.52,-116.73 924.83,-106.03 707,-76 703.76,-75.55 700.39,-75.01 697.03,-74.42"/>
<polygon fill="midnightblue" stroke="midnightblue" points="1288.33,-123.38 1298.43,-120.19 1288.55,-116.39 1288.33,-123.38"/>
</g>
<!-- Node12 -->
<g id="node12" class="node">
<title>Node12</title>
<g id="a_node12"><a xlink:href="display_8c.html" target="_top" xlink:title=" ">
<polygon fill="white" stroke="black" points="715.5,-56.5 715.5,-75.5 774.5,-75.5 774.5,-56.5 715.5,-56.5"/>
<text text-anchor="middle" x="745" y="-63.5" font-family="FreeSans" font-size="10.00">display.c</text>
</a>
</g>
</g>
<!-- Node1&#45;&gt;Node12 -->
<g id="edge11" class="edge">
<title>Node1&#45;&gt;Node12</title>
<path fill="none" stroke="midnightblue" d="M1288.23,-119.65C1197.26,-116.19 971.01,-105.14 784,-76 780.98,-75.53 777.84,-74.95 774.72,-74.33"/>
<polygon fill="midnightblue" stroke="midnightblue" points="1288.26,-123.15 1298.39,-120.02 1288.52,-116.15 1288.26,-123.15"/>
</g>
<!-- Node13 -->
<g id="node13" class="node">
<title>Node13</title>
<g id="a_node13"><a xlink:href="distort_8c.html" target="_top" xlink:title=" ">
<polygon fill="white" stroke="black" points="793,-56.5 793,-75.5 849,-75.5 849,-56.5 793,-56.5"/>
<text text-anchor="middle" x="821" y="-63.5" font-family="FreeSans" font-size="10.00">distort.c</text>
</a>
</g>
</g>
<!-- Node1&#45;&gt;Node13 -->
<g id="edge12" class="edge">
<title>Node1&#45;&gt;Node13</title>
<path fill="none" stroke="midnightblue" d="M1288.36,-119.08C1206.47,-114.79 1015.92,-102.61 858,-76 855.13,-75.52 852.16,-74.93 849.2,-74.3"/>
<polygon fill="midnightblue" stroke="midnightblue" points="1288.33,-122.59 1298.5,-119.6 1288.69,-115.59 1288.33,-122.59"/>
</g>
<!-- Node14 -->
<g id="node14" class="node">
<title>Node14</title>
<g id="a_node14"><a xlink:href="draw_8c.html" target="_top" xlink:title=" ">
<polygon fill="white" stroke="black" points="867,-56.5 867,-75.5 915,-75.5 915,-56.5 867,-56.5"/>
<text text-anchor="middle" x="891" y="-63.5" font-family="FreeSans" font-size="10.00">draw.c</text>
</a>
</g>
</g>
<!-- Node1&#45;&gt;Node14 -->
<g id="edge13" class="edge">
<title>Node1&#45;&gt;Node14</title>
<path fill="none" stroke="midnightblue" d="M1288.07,-118.57C1214.62,-113.73 1055.81,-101.14 924,-76 921.08,-75.44 918.05,-74.76 915.05,-74.02"/>
<polygon fill="midnightblue" stroke="midnightblue" points="1288.07,-122.07 1298.27,-119.22 1288.52,-115.09 1288.07,-122.07"/>
</g>
<!-- Node15 -->
<g id="node15" class="node">
<title>Node15</title>
<g id="a_node15"><a xlink:href="enhance_8c.html" target="_top" xlink:title=" ">
<polygon fill="white" stroke="black" points="933,-56.5 933,-75.5 999,-75.5 999,-56.5 933,-56.5"/>
<text text-anchor="middle" x="966" y="-63.5" font-family="FreeSans" font-size="10.00">enhance.c</text>
</a>
</g>
</g>
<!-- Node1&#45;&gt;Node15 -->
<g id="edge14" class="edge">
<title>Node1&#45;&gt;Node15</title>
<path fill="none" stroke="midnightblue" d="M1288.34,-116.25C1227.27,-108.9 1108.31,-93.76 1008,-76 1005.21,-75.51 1002.32,-74.96 999.43,-74.39"/>
<polygon fill="midnightblue" stroke="midnightblue" points="1288,-119.73 1298.35,-117.45 1288.83,-112.78 1288,-119.73"/>
</g>
<!-- Node16 -->
<g id="node16" class="node">
<title>Node16</title>
<g id="a_node16"><a xlink:href="feature_8c.html" target="_top" xlink:title=" ">
<polygon fill="white" stroke="black" points="1017,-56.5 1017,-75.5 1077,-75.5 1077,-56.5 1017,-56.5"/>
<text text-anchor="middle" x="1047" y="-63.5" font-family="FreeSans" font-size="10.00">feature.c</text>
</a>
</g>
</g>
<!-- Node1&#45;&gt;Node16 -->
<g id="edge15" class="edge">
<title>Node1&#45;&gt;Node16</title>
<path fill="none" stroke="midnightblue" d="M1288.16,-114C1239.79,-105.58 1156.83,-90.72 1086,-76 1083.14,-75.41 1080.17,-74.76 1077.21,-74.11"/>
<polygon fill="midnightblue" stroke="midnightblue" points="1287.78,-117.48 1298.23,-115.75 1288.97,-110.59 1287.78,-117.48"/>
</g>
<!-- Node17 -->
<g id="node17" class="node">
<title>Node17</title>
<g id="a_node17"><a xlink:href="fourier_8c.html" target="_top" xlink:title=" ">
<polygon fill="white" stroke="black" points="1095,-56.5 1095,-75.5 1151,-75.5 1151,-56.5 1095,-56.5"/>
<text text-anchor="middle" x="1123" y="-63.5" font-family="FreeSans" font-size="10.00">fourier.c</text>
</a>
</g>
</g>
<!-- Node1&#45;&gt;Node17 -->
<g id="edge16" class="edge">
<title>Node1&#45;&gt;Node17</title>
<path fill="none" stroke="midnightblue" d="M1288.32,-110.34C1247.75,-99.7 1186.51,-83.65 1151.07,-74.36"/>
<polygon fill="midnightblue" stroke="midnightblue" points="1287.6,-113.77 1298.16,-112.92 1289.37,-106.99 1287.6,-113.77"/>
</g>
<!-- Node18 -->
<g id="node18" class="node">
<title>Node18</title>
<g id="a_node18"><a xlink:href="fx_8c.html" target="_top" xlink:title=" ">
<polygon fill="white" stroke="black" points="1169.5,-56.5 1169.5,-75.5 1204.5,-75.5 1204.5,-56.5 1169.5,-56.5"/>
<text text-anchor="middle" x="1187" y="-63.5" font-family="FreeSans" font-size="10.00">fx.c</text>
</a>
</g>
</g>
<!-- Node1&#45;&gt;Node18 -->
<g id="edge17" class="edge">
<title>Node1&#45;&gt;Node18</title>
<path fill="none" stroke="midnightblue" d="M1296.99,-108.83C1268.54,-98.01 1227.98,-82.59 1204.9,-73.81"/>
<polygon fill="midnightblue" stroke="midnightblue" points="1295.91,-112.16 1306.5,-112.44 1298.4,-105.62 1295.91,-112.16"/>
</g>
<!-- Node19 -->
<g id="node19" class="node">
<title>Node19</title>
<g id="a_node19"><a xlink:href="identify_8c.html" target="_top" xlink:title=" ">
<polygon fill="white" stroke="black" points="1223,-56.5 1223,-75.5 1283,-75.5 1283,-56.5 1223,-56.5"/>
<text text-anchor="middle" x="1253" y="-63.5" font-family="FreeSans" font-size="10.00">identify.c</text>
</a>
</g>
</g>
<!-- Node1&#45;&gt;Node19 -->
<g id="edge18" class="edge">
<title>Node1&#45;&gt;Node19</title>
<path fill="none" stroke="midnightblue" d="M1308.42,-106.38C1294.69,-96.62 1277.07,-84.11 1265.43,-75.83"/>
<polygon fill="midnightblue" stroke="midnightblue" points="1306.61,-109.38 1316.79,-112.32 1310.66,-103.68 1306.61,-109.38"/>
</g>
<!-- Node20 -->
<g id="node20" class="node">
<title>Node20</title>
<g id="a_node20"><a xlink:href="image_8c.html" target="_top" xlink:title=" ">
<polygon fill="white" stroke="black" points="1301,-56.5 1301,-75.5 1357,-75.5 1357,-56.5 1301,-56.5"/>
<text text-anchor="middle" x="1329" y="-63.5" font-family="FreeSans" font-size="10.00">image.c</text>
</a>
</g>
</g>
<!-- Node1&#45;&gt;Node20 -->
<g id="edge19" class="edge">
<title>Node1&#45;&gt;Node20</title>
<path fill="none" stroke="midnightblue" d="M1329,-101.8C1329,-92.91 1329,-82.78 1329,-75.75"/>
<polygon fill="midnightblue" stroke="midnightblue" points="1325.5,-102.08 1329,-112.08 1332.5,-102.08 1325.5,-102.08"/>
</g>
<!-- Node21 -->
<g id="node21" class="node">
<title>Node21</title>
<g id="a_node21"><a xlink:href="layer_8c.html" target="_top" xlink:title=" ">
<polygon fill="white" stroke="black" points="1375.5,-56.5 1375.5,-75.5 1424.5,-75.5 1424.5,-56.5 1375.5,-56.5"/>
<text text-anchor="middle" x="1400" y="-63.5" font-family="FreeSans" font-size="10.00">layer.c</text>
</a>
</g>
</g>
<!-- Node1&#45;&gt;Node21 -->
<g id="edge20" class="edge">
<title>Node1&#45;&gt;Node21</title>
<path fill="none" stroke="midnightblue" d="M1348.59,-106.1C1361.37,-96.38 1377.61,-84.03 1388.39,-75.83"/>
<polygon fill="midnightblue" stroke="midnightblue" points="1346.25,-103.48 1340.41,-112.32 1350.49,-109.06 1346.25,-103.48"/>
</g>
<!-- Node22 -->
<g id="node22" class="node">
<title>Node22</title>
<g id="a_node22"><a xlink:href="list_8c.html" target="_top" xlink:title=" ">
<polygon fill="white" stroke="black" points="1443,-56.5 1443,-75.5 1483,-75.5 1483,-56.5 1443,-56.5"/>
<text text-anchor="middle" x="1463" y="-63.5" font-family="FreeSans" font-size="10.00">list.c</text>
</a>
</g>
</g>
<!-- Node1&#45;&gt;Node22 -->
<g id="edge21" class="edge">
<title>Node1&#45;&gt;Node22</title>
<path fill="none" stroke="midnightblue" d="M1359.79,-108.59C1385.27,-98.32 1420.72,-84.04 1442.74,-75.16"/>
<polygon fill="midnightblue" stroke="midnightblue" points="1358.2,-105.46 1350.23,-112.44 1360.82,-111.95 1358.2,-105.46"/>
</g>
<!-- Node23 -->
<g id="node23" class="node">
<title>Node23</title>
<g id="a_node23"><a xlink:href="morphology_8c.html" target="_top" xlink:title=" ">
<polygon fill="white" stroke="black" points="1501,-56.5 1501,-75.5 1583,-75.5 1583,-56.5 1501,-56.5"/>
<text text-anchor="middle" x="1542" y="-63.5" font-family="FreeSans" font-size="10.00">morphology.c</text>
</a>
</g>
</g>
<!-- Node1&#45;&gt;Node23 -->
<g id="edge22" class="edge">
<title>Node1&#45;&gt;Node23</title>
<path fill="none" stroke="midnightblue" d="M1369.27,-110.79C1409.51,-100.59 1470.66,-85.09 1508.38,-75.52"/>
<polygon fill="midnightblue" stroke="midnightblue" points="1368.35,-107.41 1359.52,-113.26 1370.07,-114.2 1368.35,-107.41"/>
</g>
<!-- Node24 -->
<g id="node24" class="node">
<title>Node24</title>
<g id="a_node24"><a xlink:href="opencl_8c.html" target="_top" xlink:title=" ">
<polygon fill="white" stroke="black" points="1601.5,-56.5 1601.5,-75.5 1658.5,-75.5 1658.5,-56.5 1601.5,-56.5"/>
<text text-anchor="middle" x="1630" y="-63.5" font-family="FreeSans" font-size="10.00">opencl.c</text>
</a>
</g>
</g>
<!-- Node1&#45;&gt;Node24 -->
<g id="edge23" class="edge">
<title>Node1&#45;&gt;Node24</title>
<path fill="none" stroke="midnightblue" d="M1370.02,-114.8C1421.89,-106.78 1513.86,-91.92 1592,-76 1595.06,-75.38 1598.24,-74.69 1601.41,-73.98"/>
<polygon fill="midnightblue" stroke="midnightblue" points="1369.24,-111.38 1359.89,-116.36 1370.31,-118.3 1369.24,-111.38"/>
</g>
<!-- Node25 -->
<g id="node25" class="node">
<title>Node25</title>
<g id="a_node25"><a xlink:href="option_8c.html" target="_top" xlink:title=" ">
<polygon fill="white" stroke="black" points="1677,-56.5 1677,-75.5 1733,-75.5 1733,-56.5 1677,-56.5"/>
<text text-anchor="middle" x="1705" y="-63.5" font-family="FreeSans" font-size="10.00">option.c</text>
</a>
</g>
</g>
<!-- Node1&#45;&gt;Node25 -->
<g id="edge24" class="edge">
<title>Node1&#45;&gt;Node25</title>
<path fill="none" stroke="midnightblue" d="M1369.62,-117.02C1433.46,-110.46 1561.04,-96.05 1668,-76 1670.86,-75.46 1673.83,-74.85 1676.79,-74.19"/>
<polygon fill="midnightblue" stroke="midnightblue" points="1369.16,-113.55 1359.56,-118.05 1369.86,-120.52 1369.16,-113.55"/>
</g>
<!-- Node26 -->
<g id="node26" class="node">
<title>Node26</title>
<g id="a_node26"><a xlink:href="paint_8c.html" target="_top" xlink:title=" ">
<polygon fill="white" stroke="black" points="1751,-56.5 1751,-75.5 1801,-75.5 1801,-56.5 1751,-56.5"/>
<text text-anchor="middle" x="1776" y="-63.5" font-family="FreeSans" font-size="10.00">paint.c</text>
</a>
</g>
</g>
<!-- Node1&#45;&gt;Node26 -->
<g id="edge25" class="edge">
<title>Node1&#45;&gt;Node26</title>
<path fill="none" stroke="midnightblue" d="M1369.88,-118.59C1444.37,-113.74 1606.99,-101.08 1742,-76 1744.88,-75.46 1747.88,-74.81 1750.84,-74.11"/>
<polygon fill="midnightblue" stroke="midnightblue" points="1369.3,-115.12 1359.54,-119.25 1369.74,-122.1 1369.3,-115.12"/>
</g>
<!-- Node27 -->
<g id="node27" class="node">
<title>Node27</title>
<g id="a_node27"><a xlink:href="property_8c.html" target="_top" xlink:title=" ">
<polygon fill="white" stroke="black" points="1819.5,-56.5 1819.5,-75.5 1884.5,-75.5 1884.5,-56.5 1819.5,-56.5"/>
<text text-anchor="middle" x="1852" y="-63.5" font-family="FreeSans" font-size="10.00">property.c</text>
</a>
</g>
</g>
<!-- Node1&#45;&gt;Node27 -->
<g id="edge26" class="edge">
<title>Node1&#45;&gt;Node27</title>
<path fill="none" stroke="midnightblue" d="M1369.57,-118.82C1452.61,-114.01 1647.82,-100.87 1810,-76 1812.95,-75.55 1816,-75.02 1819.05,-74.44"/>
<polygon fill="midnightblue" stroke="midnightblue" points="1369.33,-115.33 1359.54,-119.39 1369.72,-122.32 1369.33,-115.33"/>
</g>
<!-- Node28 -->
<g id="node28" class="node">
<title>Node28</title>
<g id="a_node28"><a xlink:href="quantize_8c.html" target="_top" xlink:title=" ">
<polygon fill="white" stroke="black" points="1902.5,-56.5 1902.5,-75.5 1969.5,-75.5 1969.5,-56.5 1902.5,-56.5"/>
<text text-anchor="middle" x="1936" y="-63.5" font-family="FreeSans" font-size="10.00">quantize.c</text>
</a>
</g>
</g>
<!-- Node1&#45;&gt;Node28 -->
<g id="edge27" class="edge">
<title>Node1&#45;&gt;Node28</title>
<path fill="none" stroke="midnightblue" d="M1369.93,-119.59C1463.3,-115.96 1699,-104.53 1894,-76 1896.66,-75.61 1899.4,-75.15 1902.14,-74.66"/>
<polygon fill="midnightblue" stroke="midnightblue" points="1369.64,-116.1 1359.78,-119.97 1369.91,-123.09 1369.64,-116.1"/>
</g>
<!-- Node29 -->
<g id="node29" class="node">
<title>Node29</title>
<g id="a_node29"><a xlink:href="resample_8c.html" target="_top" xlink:title=" ">
<polygon fill="white" stroke="black" points="1987.5,-56.5 1987.5,-75.5 2058.5,-75.5 2058.5,-56.5 1987.5,-56.5"/>
<text text-anchor="middle" x="2023" y="-63.5" font-family="FreeSans" font-size="10.00">resample.c</text>
</a>
</g>
</g>
<!-- Node1&#45;&gt;Node29 -->
<g id="edge28" class="edge">
<title>Node1&#45;&gt;Node29</title>
<path fill="none" stroke="midnightblue" d="M1369.85,-120.05C1472.62,-117.26 1750.05,-107.2 1979,-76 1981.63,-75.64 1984.33,-75.22 1987.05,-74.76"/>
<polygon fill="midnightblue" stroke="midnightblue" points="1369.51,-116.56 1359.61,-120.32 1369.69,-123.56 1369.51,-116.56"/>
</g>
<!-- Node30 -->
<g id="node30" class="node">
<title>Node30</title>
<g id="a_node30"><a xlink:href="resize_8c.html" target="_top" xlink:title=" ">
<polygon fill="white" stroke="black" points="2077,-56.5 2077,-75.5 2131,-75.5 2131,-56.5 2077,-56.5"/>
<text text-anchor="middle" x="2104" y="-63.5" font-family="FreeSans" font-size="10.00">resize.c</text>
</a>
</g>
</g>
<!-- Node1&#45;&gt;Node30 -->
<g id="edge29" class="edge">
<title>Node1&#45;&gt;Node30</title>
<path fill="none" stroke="midnightblue" d="M1370.05,-121.14C1482.44,-120.96 1804.33,-116.63 2068,-76 2070.93,-75.55 2073.97,-74.97 2076.98,-74.32"/>
<polygon fill="midnightblue" stroke="midnightblue" points="1369.84,-117.64 1359.84,-121.15 1369.84,-124.64 1369.84,-117.64"/>
</g>
<!-- Node31 -->
<g id="node31" class="node">
<title>Node31</title>
<g id="a_node31"><a xlink:href="shear_8c.html" target="_top" xlink:title=" ">
<polygon fill="white" stroke="black" points="2149.5,-56.5 2149.5,-75.5 2200.5,-75.5 2200.5,-56.5 2149.5,-56.5"/>
<text text-anchor="middle" x="2175" y="-63.5" font-family="FreeSans" font-size="10.00">shear.c</text>
</a>
</g>
</g>
<!-- Node1&#45;&gt;Node31 -->
<g id="edge30" class="edge">
<title>Node1&#45;&gt;Node31</title>
<path fill="none" stroke="midnightblue" d="M1369.94,-121.55C1489.39,-122.56 1847.47,-121.28 2140,-76 2142.98,-75.54 2146.07,-74.94 2149.12,-74.26"/>
<polygon fill="midnightblue" stroke="midnightblue" points="1369.82,-118.05 1359.79,-121.46 1369.76,-125.05 1369.82,-118.05"/>
</g>
<!-- Node32 -->
<g id="node32" class="node">
<title>Node32</title>
<g id="a_node32"><a xlink:href="threshold_8c.html" target="_top" xlink:title=" ">
<polygon fill="white" stroke="black" points="2218.5,-56.5 2218.5,-75.5 2289.5,-75.5 2289.5,-56.5 2218.5,-56.5"/>
<text text-anchor="middle" x="2254" y="-63.5" font-family="FreeSans" font-size="10.00">threshold.c</text>
</a>
</g>
</g>
<!-- Node1&#45;&gt;Node32 -->
<g id="edge31" class="edge">
<title>Node1&#45;&gt;Node32</title>
<path fill="none" stroke="midnightblue" d="M1369.9,-121.1C1495.74,-120.92 1888.17,-116.9 2210,-76 2212.63,-75.67 2215.34,-75.26 2218.06,-74.81"/>
<polygon fill="midnightblue" stroke="midnightblue" points="1369.58,-117.6 1359.58,-121.1 1369.58,-124.6 1369.58,-117.6"/>
</g>
<!-- Node33 -->
<g id="node33" class="node">
<title>Node33</title>
<g id="a_node33"><a xlink:href="vision_8c.html" target="_top" xlink:title=" ">
<polygon fill="white" stroke="black" points="2308,-56.5 2308,-75.5 2362,-75.5 2362,-56.5 2308,-56.5"/>
<text text-anchor="middle" x="2335" y="-63.5" font-family="FreeSans" font-size="10.00">vision.c</text>
</a>
</g>
</g>
<!-- Node1&#45;&gt;Node33 -->
<g id="edge32" class="edge">
<title>Node1&#45;&gt;Node33</title>
<path fill="none" stroke="midnightblue" d="M1370.38,-120.18C1531.31,-116.8 2115.57,-102.91 2299,-76 2301.93,-75.57 2304.97,-75 2307.99,-74.36"/>
<polygon fill="midnightblue" stroke="midnightblue" points="1369.9,-116.68 1359.97,-120.39 1370.04,-123.68 1369.9,-116.68"/>
</g>
<!-- Node34 -->
<g id="node34" class="node">
<title>Node34</title>
<g id="a_node34"><a xlink:href="visual-effects_8c.html" target="_top" xlink:title=" ">
<polygon fill="white" stroke="black" points="2380.5,-56.5 2380.5,-75.5 2471.5,-75.5 2471.5,-56.5 2380.5,-56.5"/>
<text text-anchor="middle" x="2426" y="-63.5" font-family="FreeSans" font-size="10.00">visual&#45;effects.c</text>
</a>
</g>
</g>
<!-- Node1&#45;&gt;Node34 -->
<g id="edge33" class="edge">
<title>Node1&#45;&gt;Node34</title>
<path fill="none" stroke="midnightblue" d="M1370.06,-120.98C1510.29,-120.54 1983.05,-115.98 2371,-76 2374.08,-75.68 2377.25,-75.3 2380.44,-74.88"/>
<polygon fill="midnightblue" stroke="midnightblue" points="1369.77,-117.48 1359.78,-121.01 1369.79,-124.48 1369.77,-117.48"/>
</g>
<!-- Node35 -->
<g id="node35" class="node">
<title>Node35</title>
<g id="a_node35"><a xlink:href="xwindow_8c.html" target="_top" xlink:title=" ">
<polygon fill="white" stroke="black" points="2490,-56.5 2490,-75.5 2558,-75.5 2558,-56.5 2490,-56.5"/>
<text text-anchor="middle" x="2524" y="-63.5" font-family="FreeSans" font-size="10.00">xwindow.c</text>
</a>
</g>
</g>
<!-- Node1&#45;&gt;Node35 -->
<g id="edge34" class="edge">
<title>Node1&#45;&gt;Node35</title>
<path fill="none" stroke="midnightblue" d="M1369.73,-120.32C1547.83,-117.22 2259.21,-103.35 2481,-76 2483.88,-75.65 2486.85,-75.2 2489.82,-74.69"/>
<polygon fill="midnightblue" stroke="midnightblue" points="1369.66,-116.82 1359.73,-120.5 1369.78,-123.82 1369.66,-116.82"/>
</g>
<!-- Node3 -->
<g id="node3" class="node">
<title>Node3</title>
<g id="a_node3"><a xlink:href="ImageMagick_8h.html" target="_top" xlink:title=" ">
<polygon fill="white" stroke="black" points="0,-0.5 0,-19.5 92,-19.5 92,-0.5 0,-0.5"/>
<text text-anchor="middle" x="46" y="-7.5" font-family="FreeSans" font-size="10.00">ImageMagick.h</text>
</a>
</g>
</g>
<!-- Node2&#45;&gt;Node3 -->
<g id="edge2" class="edge">
<title>Node2&#45;&gt;Node3</title>
<path fill="none" stroke="midnightblue" d="M108.81,-50.9C93.22,-41 72.87,-28.07 59.62,-19.65"/>
<polygon fill="midnightblue" stroke="midnightblue" points="107.03,-53.92 117.34,-56.32 110.78,-48.01 107.03,-53.92"/>
</g>
<!-- Node4 -->
<g id="node4" class="node">
<title>Node4</title>
<g id="a_node4"><a xlink:href="api_8h.html" target="_top" xlink:title=" ">
<polygon fill="white" stroke="black" points="110.5,-0.5 110.5,-19.5 151.5,-19.5 151.5,-0.5 110.5,-0.5"/>
<text text-anchor="middle" x="131" y="-7.5" font-family="FreeSans" font-size="10.00">api.h</text>
</a>
</g>
</g>
<!-- Node2&#45;&gt;Node4 -->
<g id="edge3" class="edge">
<title>Node2&#45;&gt;Node4</title>
<path fill="none" stroke="midnightblue" d="M131,-45.8C131,-36.91 131,-26.78 131,-19.75"/>
<polygon fill="midnightblue" stroke="midnightblue" points="127.5,-46.08 131,-56.08 134.5,-46.08 127.5,-46.08"/>
</g>
<!-- Node5 -->
<g id="node5" class="node">
<title>Node5</title>
<g id="a_node5"><a xlink:href="image-view_8c.html" target="_top" xlink:title=" ">
<polygon fill="white" stroke="black" points="169.5,-0.5 169.5,-19.5 250.5,-19.5 250.5,-0.5 169.5,-0.5"/>
<text text-anchor="middle" x="210" y="-7.5" font-family="FreeSans" font-size="10.00">image&#45;view.c</text>
</a>
</g>
</g>
<!-- Node2&#45;&gt;Node5 -->
<g id="edge4" class="edge">
<title>Node2&#45;&gt;Node5</title>
<path fill="none" stroke="midnightblue" d="M152.03,-50.62C166.47,-40.76 185.14,-27.99 197.34,-19.65"/>
<polygon fill="midnightblue" stroke="midnightblue" points="149.97,-47.79 143.69,-56.32 153.92,-53.57 149.97,-47.79"/>
</g>
</g>
</svg>
