<?xml version="1.0" encoding="UTF-8" standalone="no"?>
<!DOCTYPE svg PUBLIC "-//W3C//DTD SVG 1.1//EN"
 "http://www.w3.org/Graphics/SVG/1.1/DTD/svg11.dtd">
<!-- Generated by graphviz version 2.43.0 (0)
 -->
<!-- Title: attribute.h Pages: 1 -->
<svg width="1855pt" height="140pt"
 viewBox="0.00 0.00 1854.50 140.00" xmlns="http://www.w3.org/2000/svg" xmlns:xlink="http://www.w3.org/1999/xlink">
<g id="graph0" class="graph" transform="scale(1 1) rotate(0) translate(4 136)">
<title>attribute.h</title>
<polygon fill="white" stroke="transparent" points="-4,4 -4,-136 1850.5,-136 1850.5,4 -4,4"/>
<!-- Node1 -->
<g id="node1" class="node">
<title>Node1</title>
<g id="a_node1"><a xlink:title=" ">
<polygon fill="#bfbfbf" stroke="black" points="975,-112.5 975,-131.5 1043,-131.5 1043,-112.5 975,-112.5"/>
<text text-anchor="middle" x="1009" y="-119.5" font-family="FreeSans" font-size="10.00">attribute.h</text>
</a>
</g>
</g>
<!-- Node2 -->
<g id="node2" class="node">
<title>Node2</title>
<g id="a_node2"><a xlink:href="MagickCore_8h.html" target="_top" xlink:title=" ">
<polygon fill="white" stroke="black" points="89.5,-56.5 89.5,-75.5 172.5,-75.5 172.5,-56.5 89.5,-56.5"/>
<text text-anchor="middle" x="131" y="-63.5" font-family="FreeSans" font-size="10.00">MagickCore.h</text>
</a>
</g>
</g>
<!-- Node1&#45;&gt;Node2 -->
<g id="edge1" class="edge">
<title>Node1&#45;&gt;Node2</title>
<path fill="none" stroke="midnightblue" d="M964.34,-120.46C840,-118.54 479.38,-110.2 182,-76 178.96,-75.65 175.83,-75.24 172.69,-74.78"/>
<polygon fill="midnightblue" stroke="midnightblue" points="964.56,-123.96 974.61,-120.61 964.66,-116.96 964.56,-123.96"/>
</g>
<!-- Node6 -->
<g id="node6" class="node">
<title>Node6</title>
<g id="a_node6"><a xlink:href="animate_8c.html" target="_top" xlink:title=" ">
<polygon fill="white" stroke="black" points="190.5,-56.5 190.5,-75.5 255.5,-75.5 255.5,-56.5 190.5,-56.5"/>
<text text-anchor="middle" x="223" y="-63.5" font-family="FreeSans" font-size="10.00">animate.c</text>
</a>
</g>
</g>
<!-- Node1&#45;&gt;Node6 -->
<g id="edge5" class="edge">
<title>Node1&#45;&gt;Node6</title>
<path fill="none" stroke="midnightblue" d="M964.46,-120.64C848.63,-119.2 528.58,-112 265,-76 262.04,-75.6 258.99,-75.1 255.93,-74.55"/>
<polygon fill="midnightblue" stroke="midnightblue" points="964.67,-124.14 974.71,-120.76 964.75,-117.14 964.67,-124.14"/>
</g>
<!-- Node7 -->
<g id="node7" class="node">
<title>Node7</title>
<g id="a_node7"><a xlink:href="annotate_8c.html" target="_top" xlink:title=" ">
<polygon fill="white" stroke="black" points="274,-56.5 274,-75.5 342,-75.5 342,-56.5 274,-56.5"/>
<text text-anchor="middle" x="308" y="-63.5" font-family="FreeSans" font-size="10.00">annotate.c</text>
</a>
</g>
</g>
<!-- Node1&#45;&gt;Node7 -->
<g id="edge6" class="edge">
<title>Node1&#45;&gt;Node7</title>
<path fill="none" stroke="midnightblue" d="M964.98,-120.01C858.99,-117.19 581.42,-107.18 352,-76 348.76,-75.56 345.39,-75.02 342.03,-74.43"/>
<polygon fill="midnightblue" stroke="midnightblue" points="964.9,-123.51 974.99,-120.27 965.08,-116.51 964.9,-123.51"/>
</g>
<!-- Node8 -->
<g id="node8" class="node">
<title>Node8</title>
<g id="a_node8"><a xlink:href="attribute_8c.html" target="_top" xlink:title=" ">
<polygon fill="white" stroke="black" points="360.5,-56.5 360.5,-75.5 427.5,-75.5 427.5,-56.5 360.5,-56.5"/>
<text text-anchor="middle" x="394" y="-63.5" font-family="FreeSans" font-size="10.00">attribute.c</text>
</a>
</g>
</g>
<!-- Node1&#45;&gt;Node8 -->
<g id="edge7" class="edge">
<title>Node1&#45;&gt;Node8</title>
<path fill="none" stroke="midnightblue" d="M964.75,-119.45C868.39,-115.64 632.55,-104.04 437,-76 433.98,-75.57 430.85,-75.05 427.73,-74.48"/>
<polygon fill="midnightblue" stroke="midnightblue" points="964.86,-122.95 974.99,-119.84 965.13,-115.96 964.86,-122.95"/>
</g>
<!-- Node9 -->
<g id="node9" class="node">
<title>Node9</title>
<g id="a_node9"><a xlink:href="colormap_8c.html" target="_top" xlink:title=" ">
<polygon fill="white" stroke="black" points="445.5,-56.5 445.5,-75.5 516.5,-75.5 516.5,-56.5 445.5,-56.5"/>
<text text-anchor="middle" x="481" y="-63.5" font-family="FreeSans" font-size="10.00">colormap.c</text>
</a>
</g>
</g>
<!-- Node1&#45;&gt;Node9 -->
<g id="edge8" class="edge">
<title>Node1&#45;&gt;Node9</title>
<path fill="none" stroke="midnightblue" d="M964.8,-118.43C879.59,-113.14 686.79,-99.5 526,-76 523,-75.56 519.91,-75.06 516.8,-74.51"/>
<polygon fill="midnightblue" stroke="midnightblue" points="964.7,-121.93 974.89,-119.05 965.12,-114.95 964.7,-121.93"/>
</g>
<!-- Node10 -->
<g id="node10" class="node">
<title>Node10</title>
<g id="a_node10"><a xlink:href="colorspace_8c.html" target="_top" xlink:title=" ">
<polygon fill="white" stroke="black" points="534.5,-56.5 534.5,-75.5 611.5,-75.5 611.5,-56.5 534.5,-56.5"/>
<text text-anchor="middle" x="573" y="-63.5" font-family="FreeSans" font-size="10.00">colorspace.c</text>
</a>
</g>
</g>
<!-- Node1&#45;&gt;Node10 -->
<g id="edge9" class="edge">
<title>Node1&#45;&gt;Node10</title>
<path fill="none" stroke="midnightblue" d="M964.81,-116.89C892.66,-109.95 745.13,-94.81 621,-76 617.98,-75.54 614.86,-75.04 611.73,-74.5"/>
<polygon fill="midnightblue" stroke="midnightblue" points="964.61,-120.39 974.9,-117.85 965.28,-113.42 964.61,-120.39"/>
</g>
<!-- Node11 -->
<g id="node11" class="node">
<title>Node11</title>
<g id="a_node11"><a xlink:href="compress_8c.html" target="_top" xlink:title=" ">
<polygon fill="white" stroke="black" points="630,-56.5 630,-75.5 702,-75.5 702,-56.5 630,-56.5"/>
<text text-anchor="middle" x="666" y="-63.5" font-family="FreeSans" font-size="10.00">compress.c</text>
</a>
</g>
</g>
<!-- Node1&#45;&gt;Node11 -->
<g id="edge10" class="edge">
<title>Node1&#45;&gt;Node11</title>
<path fill="none" stroke="midnightblue" d="M964.99,-115.02C906.75,-106.96 800.94,-91.78 711,-76 708.17,-75.5 705.25,-74.97 702.32,-74.42"/>
<polygon fill="midnightblue" stroke="midnightblue" points="964.56,-118.5 974.95,-116.39 965.52,-111.56 964.56,-118.5"/>
</g>
<!-- Node12 -->
<g id="node12" class="node">
<title>Node12</title>
<g id="a_node12"><a xlink:href="constitute_8c.html" target="_top" xlink:title=" ">
<polygon fill="white" stroke="black" points="720,-56.5 720,-75.5 794,-75.5 794,-56.5 720,-56.5"/>
<text text-anchor="middle" x="757" y="-63.5" font-family="FreeSans" font-size="10.00">constitute.c</text>
</a>
</g>
</g>
<!-- Node1&#45;&gt;Node12 -->
<g id="edge11" class="edge">
<title>Node1&#45;&gt;Node12</title>
<path fill="none" stroke="midnightblue" d="M964.87,-111.54C916.41,-101.16 839.48,-84.67 794.04,-74.94"/>
<polygon fill="midnightblue" stroke="midnightblue" points="964.24,-114.99 974.75,-113.66 965.71,-108.14 964.24,-114.99"/>
</g>
<!-- Node13 -->
<g id="node13" class="node">
<title>Node13</title>
<g id="a_node13"><a xlink:href="delegate_8c.html" target="_top" xlink:title=" ">
<polygon fill="white" stroke="black" points="812,-56.5 812,-75.5 880,-75.5 880,-56.5 812,-56.5"/>
<text text-anchor="middle" x="846" y="-63.5" font-family="FreeSans" font-size="10.00">delegate.c</text>
</a>
</g>
</g>
<!-- Node1&#45;&gt;Node13 -->
<g id="edge12" class="edge">
<title>Node1&#45;&gt;Node13</title>
<path fill="none" stroke="midnightblue" d="M973.3,-109.17C942.6,-99 899.08,-84.59 871.71,-75.52"/>
<polygon fill="midnightblue" stroke="midnightblue" points="972.58,-112.62 983.17,-112.44 974.78,-105.98 972.58,-112.62"/>
</g>
<!-- Node14 -->
<g id="node14" class="node">
<title>Node14</title>
<g id="a_node14"><a xlink:href="display_8c.html" target="_top" xlink:title=" ">
<polygon fill="white" stroke="black" points="898.5,-56.5 898.5,-75.5 957.5,-75.5 957.5,-56.5 898.5,-56.5"/>
<text text-anchor="middle" x="928" y="-63.5" font-family="FreeSans" font-size="10.00">display.c</text>
</a>
</g>
</g>
<!-- Node1&#45;&gt;Node14 -->
<g id="edge13" class="edge">
<title>Node1&#45;&gt;Node14</title>
<path fill="none" stroke="midnightblue" d="M987.43,-106.62C972.64,-96.76 953.49,-83.99 940.98,-75.65"/>
<polygon fill="midnightblue" stroke="midnightblue" points="985.72,-109.69 995.99,-112.32 989.61,-103.86 985.72,-109.69"/>
</g>
<!-- Node15 -->
<g id="node15" class="node">
<title>Node15</title>
<g id="a_node15"><a xlink:href="enhance_8c.html" target="_top" xlink:title=" ">
<polygon fill="white" stroke="black" points="976,-56.5 976,-75.5 1042,-75.5 1042,-56.5 976,-56.5"/>
<text text-anchor="middle" x="1009" y="-63.5" font-family="FreeSans" font-size="10.00">enhance.c</text>
</a>
</g>
</g>
<!-- Node1&#45;&gt;Node15 -->
<g id="edge14" class="edge">
<title>Node1&#45;&gt;Node15</title>
<path fill="none" stroke="midnightblue" d="M1009,-101.8C1009,-92.91 1009,-82.78 1009,-75.75"/>
<polygon fill="midnightblue" stroke="midnightblue" points="1005.5,-102.08 1009,-112.08 1012.5,-102.08 1005.5,-102.08"/>
</g>
<!-- Node16 -->
<g id="node16" class="node">
<title>Node16</title>
<g id="a_node16"><a xlink:href="fourier_8c.html" target="_top" xlink:title=" ">
<polygon fill="white" stroke="black" points="1060,-56.5 1060,-75.5 1116,-75.5 1116,-56.5 1060,-56.5"/>
<text text-anchor="middle" x="1088" y="-63.5" font-family="FreeSans" font-size="10.00">fourier.c</text>
</a>
</g>
</g>
<!-- Node1&#45;&gt;Node16 -->
<g id="edge15" class="edge">
<title>Node1&#45;&gt;Node16</title>
<path fill="none" stroke="midnightblue" d="M1030.03,-106.62C1044.47,-96.76 1063.14,-83.99 1075.34,-75.65"/>
<polygon fill="midnightblue" stroke="midnightblue" points="1027.97,-103.79 1021.69,-112.32 1031.92,-109.57 1027.97,-103.79"/>
</g>
<!-- Node17 -->
<g id="node17" class="node">
<title>Node17</title>
<g id="a_node17"><a xlink:href="fx_8c.html" target="_top" xlink:title=" ">
<polygon fill="white" stroke="black" points="1134.5,-56.5 1134.5,-75.5 1169.5,-75.5 1169.5,-56.5 1134.5,-56.5"/>
<text text-anchor="middle" x="1152" y="-63.5" font-family="FreeSans" font-size="10.00">fx.c</text>
</a>
</g>
</g>
<!-- Node1&#45;&gt;Node17 -->
<g id="edge16" class="edge">
<title>Node1&#45;&gt;Node17</title>
<path fill="none" stroke="midnightblue" d="M1041.29,-108.81C1070.12,-97.92 1111.25,-82.39 1134.41,-73.64"/>
<polygon fill="midnightblue" stroke="midnightblue" points="1039.78,-105.64 1031.66,-112.44 1042.25,-112.19 1039.78,-105.64"/>
</g>
<!-- Node18 -->
<g id="node18" class="node">
<title>Node18</title>
<g id="a_node18"><a xlink:href="identify_8c.html" target="_top" xlink:title=" ">
<polygon fill="white" stroke="black" points="1188,-56.5 1188,-75.5 1248,-75.5 1248,-56.5 1188,-56.5"/>
<text text-anchor="middle" x="1218" y="-63.5" font-family="FreeSans" font-size="10.00">identify.c</text>
</a>
</g>
</g>
<!-- Node1&#45;&gt;Node18 -->
<g id="edge17" class="edge">
<title>Node1&#45;&gt;Node18</title>
<path fill="none" stroke="midnightblue" d="M1051.97,-109.9C1092.45,-99.44 1152.06,-84.04 1187.75,-74.82"/>
<polygon fill="midnightblue" stroke="midnightblue" points="1050.92,-106.55 1042.12,-112.44 1052.67,-113.33 1050.92,-106.55"/>
</g>
<!-- Node19 -->
<g id="node19" class="node">
<title>Node19</title>
<g id="a_node19"><a xlink:href="profile_8c.html" target="_top" xlink:title=" ">
<polygon fill="white" stroke="black" points="1266,-56.5 1266,-75.5 1322,-75.5 1322,-56.5 1266,-56.5"/>
<text text-anchor="middle" x="1294" y="-63.5" font-family="FreeSans" font-size="10.00">profile.c</text>
</a>
</g>
</g>
<!-- Node1&#45;&gt;Node19 -->
<g id="edge18" class="edge">
<title>Node1&#45;&gt;Node19</title>
<path fill="none" stroke="midnightblue" d="M1053.31,-113.77C1103.05,-105.47 1186.07,-91.05 1257,-76 1259.85,-75.4 1262.81,-74.73 1265.76,-74.05"/>
<polygon fill="midnightblue" stroke="midnightblue" points="1052.51,-110.36 1043.22,-115.45 1053.66,-117.26 1052.51,-110.36"/>
</g>
<!-- Node20 -->
<g id="node20" class="node">
<title>Node20</title>
<g id="a_node20"><a xlink:href="property_8c.html" target="_top" xlink:title=" ">
<polygon fill="white" stroke="black" points="1340.5,-56.5 1340.5,-75.5 1405.5,-75.5 1405.5,-56.5 1340.5,-56.5"/>
<text text-anchor="middle" x="1373" y="-63.5" font-family="FreeSans" font-size="10.00">property.c</text>
</a>
</g>
</g>
<!-- Node1&#45;&gt;Node20 -->
<g id="edge19" class="edge">
<title>Node1&#45;&gt;Node20</title>
<path fill="none" stroke="midnightblue" d="M1053.7,-115.79C1116.03,-108.29 1232.48,-93.42 1331,-76 1334.08,-75.45 1337.29,-74.85 1340.49,-74.21"/>
<polygon fill="midnightblue" stroke="midnightblue" points="1052.95,-112.35 1043.44,-117.02 1053.78,-119.3 1052.95,-112.35"/>
</g>
<!-- Node21 -->
<g id="node21" class="node">
<title>Node21</title>
<g id="a_node21"><a xlink:href="quantize_8c.html" target="_top" xlink:title=" ">
<polygon fill="white" stroke="black" points="1423.5,-56.5 1423.5,-75.5 1490.5,-75.5 1490.5,-56.5 1423.5,-56.5"/>
<text text-anchor="middle" x="1457" y="-63.5" font-family="FreeSans" font-size="10.00">quantize.c</text>
</a>
</g>
</g>
<!-- Node1&#45;&gt;Node21 -->
<g id="edge20" class="edge">
<title>Node1&#45;&gt;Node21</title>
<path fill="none" stroke="midnightblue" d="M1053.11,-117.58C1127.87,-111.45 1284.12,-97.22 1415,-76 1417.65,-75.57 1420.39,-75.08 1423.13,-74.56"/>
<polygon fill="midnightblue" stroke="midnightblue" points="1052.79,-114.09 1043.11,-118.39 1053.36,-121.07 1052.79,-114.09"/>
</g>
<!-- Node22 -->
<g id="node22" class="node">
<title>Node22</title>
<g id="a_node22"><a xlink:href="quantum_8c.html" target="_top" xlink:title=" ">
<polygon fill="white" stroke="black" points="1509,-56.5 1509,-75.5 1577,-75.5 1577,-56.5 1509,-56.5"/>
<text text-anchor="middle" x="1543" y="-63.5" font-family="FreeSans" font-size="10.00">quantum.c</text>
</a>
</g>
</g>
<!-- Node1&#45;&gt;Node22 -->
<g id="edge21" class="edge">
<title>Node1&#45;&gt;Node22</title>
<path fill="none" stroke="midnightblue" d="M1053.31,-118.65C1139.64,-113.7 1336.25,-100.56 1500,-76 1502.87,-75.57 1505.83,-75.07 1508.8,-74.53"/>
<polygon fill="midnightblue" stroke="midnightblue" points="1052.88,-115.17 1043.09,-119.23 1053.27,-122.16 1052.88,-115.17"/>
</g>
<!-- Node23 -->
<g id="node23" class="node">
<title>Node23</title>
<g id="a_node23"><a xlink:href="shear_8c.html" target="_top" xlink:title=" ">
<polygon fill="white" stroke="black" points="1595.5,-56.5 1595.5,-75.5 1646.5,-75.5 1646.5,-56.5 1595.5,-56.5"/>
<text text-anchor="middle" x="1621" y="-63.5" font-family="FreeSans" font-size="10.00">shear.c</text>
</a>
</g>
</g>
<!-- Node1&#45;&gt;Node23 -->
<g id="edge22" class="edge">
<title>Node1&#45;&gt;Node23</title>
<path fill="none" stroke="midnightblue" d="M1053.1,-120.17C1150.09,-117.77 1389,-108.76 1586,-76 1589.09,-75.49 1592.32,-74.83 1595.5,-74.1"/>
<polygon fill="midnightblue" stroke="midnightblue" points="1052.98,-116.67 1043.07,-120.41 1053.15,-123.67 1052.98,-116.67"/>
</g>
<!-- Node24 -->
<g id="node24" class="node">
<title>Node24</title>
<g id="a_node24"><a xlink:href="transform_8c.html" target="_top" xlink:title=" ">
<polygon fill="white" stroke="black" points="1664.5,-56.5 1664.5,-75.5 1737.5,-75.5 1737.5,-56.5 1664.5,-56.5"/>
<text text-anchor="middle" x="1701" y="-63.5" font-family="FreeSans" font-size="10.00">transform.c</text>
</a>
</g>
</g>
<!-- Node1&#45;&gt;Node24 -->
<g id="edge23" class="edge">
<title>Node1&#45;&gt;Node24</title>
<path fill="none" stroke="midnightblue" d="M1053.41,-119.87C1158.55,-116.76 1430.78,-106.23 1656,-76 1658.68,-75.64 1661.45,-75.22 1664.23,-74.75"/>
<polygon fill="midnightblue" stroke="midnightblue" points="1053.07,-116.38 1043.18,-120.16 1053.27,-123.37 1053.07,-116.38"/>
</g>
<!-- Node25 -->
<g id="node25" class="node">
<title>Node25</title>
<g id="a_node25"><a xlink:href="visual-effects_8c.html" target="_top" xlink:title=" ">
<polygon fill="white" stroke="black" points="1755.5,-56.5 1755.5,-75.5 1846.5,-75.5 1846.5,-56.5 1755.5,-56.5"/>
<text text-anchor="middle" x="1801" y="-63.5" font-family="FreeSans" font-size="10.00">visual&#45;effects.c</text>
</a>
</g>
</g>
<!-- Node1&#45;&gt;Node25 -->
<g id="edge24" class="edge">
<title>Node1&#45;&gt;Node25</title>
<path fill="none" stroke="midnightblue" d="M1053.5,-119.9C1168.53,-116.72 1485.1,-105.73 1747,-76 1749.74,-75.69 1752.55,-75.33 1755.38,-74.95"/>
<polygon fill="midnightblue" stroke="midnightblue" points="1053.22,-116.41 1043.32,-120.18 1053.41,-123.41 1053.22,-116.41"/>
</g>
<!-- Node3 -->
<g id="node3" class="node">
<title>Node3</title>
<g id="a_node3"><a xlink:href="ImageMagick_8h.html" target="_top" xlink:title=" ">
<polygon fill="white" stroke="black" points="0,-0.5 0,-19.5 92,-19.5 92,-0.5 0,-0.5"/>
<text text-anchor="middle" x="46" y="-7.5" font-family="FreeSans" font-size="10.00">ImageMagick.h</text>
</a>
</g>
</g>
<!-- Node2&#45;&gt;Node3 -->
<g id="edge2" class="edge">
<title>Node2&#45;&gt;Node3</title>
<path fill="none" stroke="midnightblue" d="M108.81,-50.9C93.22,-41 72.87,-28.07 59.62,-19.65"/>
<polygon fill="midnightblue" stroke="midnightblue" points="107.03,-53.92 117.34,-56.32 110.78,-48.01 107.03,-53.92"/>
</g>
<!-- Node4 -->
<g id="node4" class="node">
<title>Node4</title>
<g id="a_node4"><a xlink:href="api_8h.html" target="_top" xlink:title=" ">
<polygon fill="white" stroke="black" points="110.5,-0.5 110.5,-19.5 151.5,-19.5 151.5,-0.5 110.5,-0.5"/>
<text text-anchor="middle" x="131" y="-7.5" font-family="FreeSans" font-size="10.00">api.h</text>
</a>
</g>
</g>
<!-- Node2&#45;&gt;Node4 -->
<g id="edge3" class="edge">
<title>Node2&#45;&gt;Node4</title>
<path fill="none" stroke="midnightblue" d="M131,-45.8C131,-36.91 131,-26.78 131,-19.75"/>
<polygon fill="midnightblue" stroke="midnightblue" points="127.5,-46.08 131,-56.08 134.5,-46.08 127.5,-46.08"/>
</g>
<!-- Node5 -->
<g id="node5" class="node">
<title>Node5</title>
<g id="a_node5"><a xlink:href="image-view_8c.html" target="_top" xlink:title=" ">
<polygon fill="white" stroke="black" points="169.5,-0.5 169.5,-19.5 250.5,-19.5 250.5,-0.5 169.5,-0.5"/>
<text text-anchor="middle" x="210" y="-7.5" font-family="FreeSans" font-size="10.00">image&#45;view.c</text>
</a>
</g>
</g>
<!-- Node2&#45;&gt;Node5 -->
<g id="edge4" class="edge">
<title>Node2&#45;&gt;Node5</title>
<path fill="none" stroke="midnightblue" d="M152.03,-50.62C166.47,-40.76 185.14,-27.99 197.34,-19.65"/>
<polygon fill="midnightblue" stroke="midnightblue" points="149.97,-47.79 143.69,-56.32 153.92,-53.57 149.97,-47.79"/>
</g>
</g>
</svg>
