<?xml version="1.0" encoding="UTF-8" standalone="no"?>
<!DOCTYPE svg PUBLIC "-//W3C//DTD SVG 1.1//EN"
 "http://www.w3.org/Graphics/SVG/1.1/DTD/svg11.dtd">
<!-- Generated by graphviz version 2.43.0 (0)
 -->
<!-- Title: attribute.h Pages: 1 -->
<svg width="1797pt" height="308pt"
 viewBox="0.00 0.00 1796.83 308.00" xmlns="http://www.w3.org/2000/svg" xmlns:xlink="http://www.w3.org/1999/xlink">
<g id="graph0" class="graph" transform="scale(1 1) rotate(0) translate(4 304)">
<title>attribute.h</title>
<polygon fill="white" stroke="transparent" points="-4,4 -4,-304 1792.83,-304 1792.83,4 -4,4"/>
<!-- Node1 -->
<g id="node1" class="node">
<title>Node1</title>
<g id="a_node1"><a xlink:title=" ">
<polygon fill="#bfbfbf" stroke="black" points="1223.83,-280.5 1223.83,-299.5 1291.83,-299.5 1291.83,-280.5 1223.83,-280.5"/>
<text text-anchor="middle" x="1257.83" y="-287.5" font-family="FreeSans" font-size="10.00">attribute.h</text>
</a>
</g>
</g>
<!-- Node2 -->
<g id="node2" class="node">
<title>Node2</title>
<g id="a_node2"><a xlink:href="image_8h.html" target="_top" xlink:title=" ">
<polygon fill="white" stroke="black" points="865.33,-224.5 865.33,-243.5 960.33,-243.5 960.33,-224.5 865.33,-224.5"/>
<text text-anchor="middle" x="912.83" y="-231.5" font-family="FreeSans" font-size="10.00">magick/image.h</text>
</a>
</g>
</g>
<!-- Node1&#45;&gt;Node2 -->
<g id="edge1" class="edge">
<title>Node1&#45;&gt;Node2</title>
<path fill="none" stroke="midnightblue" d="M1223.81,-283.67C1164.91,-274.46 1043.33,-255.43 970.86,-244.08"/>
<polygon fill="midnightblue" stroke="midnightblue" points="970.96,-240.56 960.54,-242.47 969.88,-247.47 970.96,-240.56"/>
</g>
<!-- Node7 -->
<g id="node7" class="node">
<title>Node7</title>
<g id="a_node7"><a xlink:href="exception_8h.html" target="_top" xlink:title=" ">
<polygon fill="white" stroke="black" points="1570.33,-56.5 1570.33,-75.5 1683.33,-75.5 1683.33,-56.5 1570.33,-56.5"/>
<text text-anchor="middle" x="1626.83" y="-63.5" font-family="FreeSans" font-size="10.00">magick/exception.h</text>
</a>
</g>
</g>
<!-- Node1&#45;&gt;Node7 -->
<g id="edge41" class="edge">
<title>Node1&#45;&gt;Node7</title>
<path fill="none" stroke="midnightblue" d="M1291.89,-285.34C1377.94,-275.31 1600.34,-244.34 1643.83,-188 1667.18,-157.76 1649.26,-110.18 1636.59,-84.63"/>
<polygon fill="midnightblue" stroke="midnightblue" points="1639.66,-82.95 1631.92,-75.71 1633.45,-86.19 1639.66,-82.95"/>
</g>
<!-- Node3 -->
<g id="node3" class="node">
<title>Node3</title>
<g id="a_node3"><a xlink:href="color_8h.html" target="_top" xlink:title=" ">
<polygon fill="white" stroke="black" points="1116.83,-112.5 1116.83,-131.5 1204.83,-131.5 1204.83,-112.5 1116.83,-112.5"/>
<text text-anchor="middle" x="1160.83" y="-119.5" font-family="FreeSans" font-size="10.00">magick/color.h</text>
</a>
</g>
</g>
<!-- Node2&#45;&gt;Node3 -->
<g id="edge2" class="edge">
<title>Node2&#45;&gt;Node3</title>
<path fill="none" stroke="midnightblue" d="M960.71,-229.68C1001.04,-225.08 1059,-214.12 1102.83,-188 1122.84,-176.07 1139.77,-154.97 1150.08,-140.05"/>
<polygon fill="midnightblue" stroke="midnightblue" points="1153.01,-141.96 1155.61,-131.69 1147.17,-138.1 1153.01,-141.96"/>
</g>
<!-- Node4 -->
<g id="node4" class="node">
<title>Node4</title>
<g id="a_node4"><a xlink:href="pixel_8h.html" target="_top" xlink:title=" ">
<polygon fill="white" stroke="black" points="972.83,-56.5 972.83,-75.5 1060.83,-75.5 1060.83,-56.5 972.83,-56.5"/>
<text text-anchor="middle" x="1016.83" y="-63.5" font-family="FreeSans" font-size="10.00">magick/pixel.h</text>
</a>
</g>
</g>
<!-- Node2&#45;&gt;Node4 -->
<g id="edge25" class="edge">
<title>Node2&#45;&gt;Node4</title>
<path fill="none" stroke="midnightblue" d="M960.58,-227.88C986.24,-222.42 1015.82,-211.17 1031.83,-188 1053.41,-156.78 1037.4,-109.93 1025.87,-84.67"/>
<polygon fill="midnightblue" stroke="midnightblue" points="1028.97,-83.04 1021.47,-75.55 1022.67,-86.08 1028.97,-83.04"/>
</g>
<!-- Node5 -->
<g id="node5" class="node">
<title>Node5</title>
<g id="a_node5"><a xlink:href="colorspace_8h.html" target="_top" xlink:title=" ">
<polygon fill="white" stroke="black" points="1030.33,-0.5 1030.33,-19.5 1147.33,-19.5 1147.33,-0.5 1030.33,-0.5"/>
<text text-anchor="middle" x="1088.83" y="-7.5" font-family="FreeSans" font-size="10.00">magick/colorspace.h</text>
</a>
</g>
</g>
<!-- Node2&#45;&gt;Node5 -->
<g id="edge12" class="edge">
<title>Node2&#45;&gt;Node5</title>
<path fill="none" stroke="midnightblue" d="M960.53,-229.14C990.3,-224.21 1027.16,-213.07 1049.83,-188 1090.41,-143.13 1092.03,-65.82 1090.33,-30.11"/>
<polygon fill="midnightblue" stroke="midnightblue" points="1093.79,-29.46 1089.67,-19.7 1086.81,-29.9 1093.79,-29.46"/>
</g>
<!-- Node9 -->
<g id="node9" class="node">
<title>Node9</title>
<g id="a_node9"><a xlink:href="semaphore_8h.html" target="_top" xlink:title=" ">
<polygon fill="white" stroke="black" points="1451.33,-0.5 1451.33,-19.5 1570.33,-19.5 1570.33,-0.5 1451.33,-0.5"/>
<text text-anchor="middle" x="1510.83" y="-7.5" font-family="FreeSans" font-size="10.00">magick/semaphore.h</text>
</a>
</g>
</g>
<!-- Node2&#45;&gt;Node9 -->
<g id="edge38" class="edge">
<title>Node2&#45;&gt;Node9</title>
<path fill="none" stroke="midnightblue" d="M960.39,-232.72C1092.04,-231.47 1454.04,-224.7 1491.83,-188 1534.85,-146.23 1523.58,-66.12 1515.6,-29.76"/>
<polygon fill="midnightblue" stroke="midnightblue" points="1518.9,-28.53 1513.19,-19.6 1512.09,-30.14 1518.9,-28.53"/>
</g>
<!-- Node10 -->
<g id="node10" class="node">
<title>Node10</title>
<g id="a_node10"><a xlink:href="blob_8h.html" target="_top" xlink:title=" ">
<polygon fill="white" stroke="black" points="51.83,-168.5 51.83,-187.5 137.83,-187.5 137.83,-168.5 51.83,-168.5"/>
<text text-anchor="middle" x="94.83" y="-175.5" font-family="FreeSans" font-size="10.00">magick/blob.h</text>
</a>
</g>
</g>
<!-- Node2&#45;&gt;Node10 -->
<g id="edge9" class="edge">
<title>Node2&#45;&gt;Node10</title>
<path fill="none" stroke="midnightblue" d="M865.25,-232.16C745.01,-229.57 419.83,-219.89 144.16,-188.69"/>
<polygon fill="midnightblue" stroke="midnightblue" points="144.3,-185.19 133.97,-187.53 143.5,-192.14 144.3,-185.19"/>
</g>
<!-- Node11 -->
<g id="node11" class="node">
<title>Node11</title>
<g id="a_node11"><a xlink:href="stream_8h.html" target="_top" xlink:title=" ">
<polygon fill="white" stroke="black" points="18.33,-112.5 18.33,-131.5 117.33,-131.5 117.33,-112.5 18.33,-112.5"/>
<text text-anchor="middle" x="67.83" y="-119.5" font-family="FreeSans" font-size="10.00">magick/stream.h</text>
</a>
</g>
</g>
<!-- Node2&#45;&gt;Node11 -->
<g id="edge39" class="edge">
<title>Node2&#45;&gt;Node11</title>
<path fill="none" stroke="midnightblue" d="M865.05,-232.33C687.06,-229.6 71.32,-218.01 42.83,-188 30.14,-174.64 41.42,-154.16 52.62,-139.76"/>
<polygon fill="midnightblue" stroke="midnightblue" points="55.63,-141.62 59.38,-131.7 50.27,-137.12 55.63,-141.62"/>
</g>
<!-- Node12 -->
<g id="node12" class="node">
<title>Node12</title>
<g id="a_node12"><a xlink:href="cache-view_8h.html" target="_top" xlink:title=" ">
<polygon fill="white" stroke="black" points="608.33,-112.5 608.33,-131.5 727.33,-131.5 727.33,-112.5 608.33,-112.5"/>
<text text-anchor="middle" x="667.83" y="-119.5" font-family="FreeSans" font-size="10.00">magick/cache&#45;view.h</text>
</a>
</g>
</g>
<!-- Node2&#45;&gt;Node12 -->
<g id="edge13" class="edge">
<title>Node2&#45;&gt;Node12</title>
<path fill="none" stroke="midnightblue" d="M865.28,-229.16C807.16,-223.53 713.4,-211.1 687.83,-188 674.85,-176.27 670.19,-156.33 668.58,-141.62"/>
<polygon fill="midnightblue" stroke="midnightblue" points="672.07,-141.34 667.84,-131.62 665.08,-141.85 672.07,-141.34"/>
</g>
<!-- Node13 -->
<g id="node13" class="node">
<title>Node13</title>
<g id="a_node13"><a xlink:href="composite_8h.html" target="_top" xlink:title=" ">
<polygon fill="white" stroke="black" points="265.83,-168.5 265.83,-187.5 381.83,-187.5 381.83,-168.5 265.83,-168.5"/>
<text text-anchor="middle" x="323.83" y="-175.5" font-family="FreeSans" font-size="10.00">magick/composite.h</text>
</a>
</g>
</g>
<!-- Node2&#45;&gt;Node13 -->
<g id="edge15" class="edge">
<title>Node2&#45;&gt;Node13</title>
<path fill="none" stroke="midnightblue" d="M865.25,-229.66C775.07,-223.16 572.81,-207.8 391.88,-188.07"/>
<polygon fill="midnightblue" stroke="midnightblue" points="392.24,-184.59 381.91,-186.97 391.47,-191.54 392.24,-184.59"/>
</g>
<!-- Node14 -->
<g id="node14" class="node">
<title>Node14</title>
<g id="a_node14"><a xlink:href="compress_8h.html" target="_top" xlink:title=" ">
<polygon fill="white" stroke="black" points="399.83,-168.5 399.83,-187.5 511.83,-187.5 511.83,-168.5 399.83,-168.5"/>
<text text-anchor="middle" x="455.83" y="-175.5" font-family="FreeSans" font-size="10.00">magick/compress.h</text>
</a>
</g>
</g>
<!-- Node2&#45;&gt;Node14 -->
<g id="edge16" class="edge">
<title>Node2&#45;&gt;Node14</title>
<path fill="none" stroke="midnightblue" d="M865.12,-227.89C793.14,-220.09 652.25,-204.52 522,-188.12"/>
<polygon fill="midnightblue" stroke="midnightblue" points="522.2,-184.62 511.84,-186.84 521.32,-191.57 522.2,-184.62"/>
</g>
<!-- Node15 -->
<g id="node15" class="node">
<title>Node15</title>
<g id="a_node15"><a xlink:href="effect_8h.html" target="_top" xlink:title=" ">
<polygon fill="white" stroke="black" points="155.83,-168.5 155.83,-187.5 247.83,-187.5 247.83,-168.5 155.83,-168.5"/>
<text text-anchor="middle" x="201.83" y="-175.5" font-family="FreeSans" font-size="10.00">magick/effect.h</text>
</a>
</g>
</g>
<!-- Node2&#45;&gt;Node15 -->
<g id="edge17" class="edge">
<title>Node2&#45;&gt;Node15</title>
<path fill="none" stroke="midnightblue" d="M864.95,-231.25C757.98,-227.02 491.32,-214.63 258.03,-188.03"/>
<polygon fill="midnightblue" stroke="midnightblue" points="258.34,-184.54 248,-186.88 257.53,-191.5 258.34,-184.54"/>
</g>
<!-- Node17 -->
<g id="node17" class="node">
<title>Node17</title>
<g id="a_node17"><a xlink:href="geometry_8h.html" target="_top" xlink:title=" ">
<polygon fill="white" stroke="black" points="40.83,-56.5 40.83,-75.5 150.83,-75.5 150.83,-56.5 40.83,-56.5"/>
<text text-anchor="middle" x="95.83" y="-63.5" font-family="FreeSans" font-size="10.00">magick/geometry.h</text>
</a>
</g>
</g>
<!-- Node2&#45;&gt;Node17 -->
<g id="edge20" class="edge">
<title>Node2&#45;&gt;Node17</title>
<path fill="none" stroke="midnightblue" d="M865.32,-233.43C692.31,-234.61 102.55,-235.12 33.83,-188 4.5,-167.89 -9.66,-142.38 8.83,-112 18.29,-96.46 35.04,-86.05 51.34,-79.19"/>
<polygon fill="midnightblue" stroke="midnightblue" points="52.73,-82.4 60.82,-75.55 50.23,-75.87 52.73,-82.4"/>
</g>
<!-- Node18 -->
<g id="node18" class="node">
<title>Node18</title>
<g id="a_node18"><a xlink:href="layer_8h.html" target="_top" xlink:title=" ">
<polygon fill="white" stroke="black" points="696.33,-168.5 696.33,-187.5 785.33,-187.5 785.33,-168.5 696.33,-168.5"/>
<text text-anchor="middle" x="740.83" y="-175.5" font-family="FreeSans" font-size="10.00">magick/layer.h</text>
</a>
</g>
</g>
<!-- Node2&#45;&gt;Node18 -->
<g id="edge21" class="edge">
<title>Node2&#45;&gt;Node18</title>
<path fill="none" stroke="midnightblue" d="M885.58,-224.44C856.39,-215.28 809.91,-200.69 777.52,-190.52"/>
<polygon fill="midnightblue" stroke="midnightblue" points="778.55,-187.17 767.96,-187.52 776.45,-193.85 778.55,-187.17"/>
</g>
<!-- Node19 -->
<g id="node19" class="node">
<title>Node19</title>
<g id="a_node19"><a xlink:href="locale___8h.html" target="_top" xlink:title=" ">
<polygon fill="white" stroke="black" points="803.33,-168.5 803.33,-187.5 902.33,-187.5 902.33,-168.5 803.33,-168.5"/>
<text text-anchor="middle" x="852.83" y="-175.5" font-family="FreeSans" font-size="10.00">magick/locale_.h</text>
</a>
</g>
</g>
<!-- Node2&#45;&gt;Node19 -->
<g id="edge22" class="edge">
<title>Node2&#45;&gt;Node19</title>
<path fill="none" stroke="midnightblue" d="M903.19,-224.32C894.32,-216.34 880.96,-204.31 870.22,-194.65"/>
<polygon fill="midnightblue" stroke="midnightblue" points="872.42,-191.92 862.65,-187.83 867.74,-197.13 872.42,-191.92"/>
</g>
<!-- Node21 -->
<g id="node21" class="node">
<title>Node21</title>
<g id="a_node21"><a xlink:href="monitor_8h.html" target="_top" xlink:title=" ">
<polygon fill="white" stroke="black" points="920.83,-168.5 920.83,-187.5 1022.83,-187.5 1022.83,-168.5 920.83,-168.5"/>
<text text-anchor="middle" x="971.83" y="-175.5" font-family="FreeSans" font-size="10.00">magick/monitor.h</text>
</a>
</g>
</g>
<!-- Node2&#45;&gt;Node21 -->
<g id="edge24" class="edge">
<title>Node2&#45;&gt;Node21</title>
<path fill="none" stroke="midnightblue" d="M922.31,-224.32C931.03,-216.34 944.17,-204.31 954.73,-194.65"/>
<polygon fill="midnightblue" stroke="midnightblue" points="957.17,-197.17 962.18,-187.83 952.44,-192 957.17,-197.17"/>
</g>
<!-- Node22 -->
<g id="node22" class="node">
<title>Node22</title>
<g id="a_node22"><a xlink:href="profile_8h.html" target="_top" xlink:title=" ">
<polygon fill="white" stroke="black" points="1539.33,-168.5 1539.33,-187.5 1634.33,-187.5 1634.33,-168.5 1539.33,-168.5"/>
<text text-anchor="middle" x="1586.83" y="-175.5" font-family="FreeSans" font-size="10.00">magick/profile.h</text>
</a>
</g>
</g>
<!-- Node2&#45;&gt;Node22 -->
<g id="edge26" class="edge">
<title>Node2&#45;&gt;Node22</title>
<path fill="none" stroke="midnightblue" d="M960.55,-230.64C1063.71,-225.3 1315.13,-210.9 1524.83,-188 1526.14,-187.86 1527.46,-187.71 1528.79,-187.55"/>
<polygon fill="midnightblue" stroke="midnightblue" points="1529.65,-190.97 1539.15,-186.27 1528.79,-184.03 1529.65,-190.97"/>
</g>
<!-- Node25 -->
<g id="node25" class="node">
<title>Node25</title>
<g id="a_node25"><a xlink:href="quantum_8h.html" target="_top" xlink:title=" ">
<polygon fill="white" stroke="black" points="1374.83,-168.5 1374.83,-187.5 1482.83,-187.5 1482.83,-168.5 1374.83,-168.5"/>
<text text-anchor="middle" x="1428.83" y="-175.5" font-family="FreeSans" font-size="10.00">magick/quantum.h</text>
</a>
</g>
</g>
<!-- Node2&#45;&gt;Node25 -->
<g id="edge31" class="edge">
<title>Node2&#45;&gt;Node25</title>
<path fill="none" stroke="midnightblue" d="M960.59,-228.44C1042.07,-221.03 1212.66,-205.45 1356.83,-188 1359.33,-187.7 1361.88,-187.38 1364.46,-187.05"/>
<polygon fill="midnightblue" stroke="midnightblue" points="1365.06,-190.5 1374.51,-185.72 1364.14,-183.56 1365.06,-190.5"/>
</g>
<!-- Node27 -->
<g id="node27" class="node">
<title>Node27</title>
<g id="a_node27"><a xlink:href="resample_8h.html" target="_top" xlink:title=" ">
<polygon fill="white" stroke="black" points="529.83,-168.5 529.83,-187.5 639.83,-187.5 639.83,-168.5 529.83,-168.5"/>
<text text-anchor="middle" x="584.83" y="-175.5" font-family="FreeSans" font-size="10.00">magick/resample.h</text>
</a>
</g>
</g>
<!-- Node2&#45;&gt;Node27 -->
<g id="edge35" class="edge">
<title>Node2&#45;&gt;Node27</title>
<path fill="none" stroke="midnightblue" d="M865.14,-225.15C807.37,-215.64 709.95,-199.6 646.52,-189.16"/>
<polygon fill="midnightblue" stroke="midnightblue" points="647.08,-185.7 636.64,-187.53 645.94,-192.61 647.08,-185.7"/>
</g>
<!-- Node28 -->
<g id="node28" class="node">
<title>Node28</title>
<g id="a_node28"><a xlink:href="resize_8h.html" target="_top" xlink:title=" ">
<polygon fill="white" stroke="black" points="1154.83,-168.5 1154.83,-187.5 1248.83,-187.5 1248.83,-168.5 1154.83,-168.5"/>
<text text-anchor="middle" x="1201.83" y="-175.5" font-family="FreeSans" font-size="10.00">magick/resize.h</text>
</a>
</g>
</g>
<!-- Node2&#45;&gt;Node28 -->
<g id="edge37" class="edge">
<title>Node2&#45;&gt;Node28</title>
<path fill="none" stroke="midnightblue" d="M958.62,-224.44C1009.57,-214.92 1091.87,-199.55 1146.41,-189.36"/>
<polygon fill="midnightblue" stroke="midnightblue" points="1147.07,-192.79 1156.25,-187.52 1145.78,-185.91 1147.07,-192.79"/>
</g>
<!-- Node29 -->
<g id="node29" class="node">
<title>Node29</title>
<g id="a_node29"><a xlink:href="timer_8h.html" target="_top" xlink:title=" ">
<polygon fill="white" stroke="black" points="1266.83,-168.5 1266.83,-187.5 1356.83,-187.5 1356.83,-168.5 1266.83,-168.5"/>
<text text-anchor="middle" x="1311.83" y="-175.5" font-family="FreeSans" font-size="10.00">magick/timer.h</text>
</a>
</g>
</g>
<!-- Node2&#45;&gt;Node29 -->
<g id="edge40" class="edge">
<title>Node2&#45;&gt;Node29</title>
<path fill="none" stroke="midnightblue" d="M960.34,-227.34C1024.98,-219.53 1144.51,-204.65 1256.64,-188.13"/>
<polygon fill="midnightblue" stroke="midnightblue" points="1257.39,-191.56 1266.77,-186.63 1256.36,-184.64 1257.39,-191.56"/>
</g>
<!-- Node3&#45;&gt;Node4 -->
<g id="edge3" class="edge">
<title>Node3&#45;&gt;Node4</title>
<path fill="none" stroke="midnightblue" d="M1138.01,-112.44C1114,-103.44 1076,-89.19 1048.96,-79.05"/>
<polygon fill="midnightblue" stroke="midnightblue" points="1050.13,-75.75 1039.54,-75.52 1047.68,-82.3 1050.13,-75.75"/>
</g>
<!-- Node3&#45;&gt;Node7 -->
<g id="edge6" class="edge">
<title>Node3&#45;&gt;Node7</title>
<path fill="none" stroke="midnightblue" d="M1205.09,-115.87C1287.27,-106.35 1463.81,-85.89 1560.38,-74.7"/>
<polygon fill="midnightblue" stroke="midnightblue" points="1560.8,-78.18 1570.33,-73.55 1559.99,-71.22 1560.8,-78.18"/>
</g>
<!-- Node4&#45;&gt;Node5 -->
<g id="edge4" class="edge">
<title>Node4&#45;&gt;Node5</title>
<path fill="none" stroke="midnightblue" d="M1028.4,-56.32C1039.25,-48.18 1055.71,-35.84 1068.71,-26.09"/>
<polygon fill="midnightblue" stroke="midnightblue" points="1071.15,-28.63 1077.05,-19.83 1066.95,-23.03 1071.15,-28.63"/>
</g>
<!-- Node6 -->
<g id="node6" class="node">
<title>Node6</title>
<g id="a_node6"><a xlink:href="constitute_8h.html" target="_top" xlink:title=" ">
<polygon fill="white" stroke="black" points="899.33,-0.5 899.33,-19.5 1012.33,-19.5 1012.33,-0.5 899.33,-0.5"/>
<text text-anchor="middle" x="955.83" y="-7.5" font-family="FreeSans" font-size="10.00">magick/constitute.h</text>
</a>
</g>
</g>
<!-- Node4&#45;&gt;Node6 -->
<g id="edge5" class="edge">
<title>Node4&#45;&gt;Node6</title>
<path fill="none" stroke="midnightblue" d="M1007.03,-56.32C998.01,-48.34 984.42,-36.31 973.51,-26.65"/>
<polygon fill="midnightblue" stroke="midnightblue" points="975.62,-23.84 965.81,-19.83 970.98,-29.08 975.62,-23.84"/>
</g>
<!-- Node8 -->
<g id="node8" class="node">
<title>Node8</title>
<g id="a_node8"><a xlink:title=" ">
<polygon fill="white" stroke="#bfbfbf" points="1623.83,-0.5 1623.83,-19.5 1679.83,-19.5 1679.83,-0.5 1623.83,-0.5"/>
<text text-anchor="middle" x="1651.83" y="-7.5" font-family="FreeSans" font-size="10.00">stdarg.h</text>
</a>
</g>
</g>
<!-- Node7&#45;&gt;Node8 -->
<g id="edge7" class="edge">
<title>Node7&#45;&gt;Node8</title>
<path fill="none" stroke="midnightblue" d="M1630.96,-56.08C1634.34,-48.77 1639.25,-38.18 1643.45,-29.1"/>
<polygon fill="midnightblue" stroke="midnightblue" points="1646.75,-30.3 1647.78,-19.75 1640.4,-27.36 1646.75,-30.3"/>
</g>
<!-- Node7&#45;&gt;Node9 -->
<g id="edge8" class="edge">
<title>Node7&#45;&gt;Node9</title>
<path fill="none" stroke="midnightblue" d="M1608.45,-56.44C1589.61,-47.68 1560.1,-33.94 1538.45,-23.86"/>
<polygon fill="midnightblue" stroke="midnightblue" points="1539.67,-20.56 1529.13,-19.52 1536.71,-26.91 1539.67,-20.56"/>
</g>
<!-- Node10&#45;&gt;Node2 -->
<g id="edge10" class="edge">
<title>Node10&#45;&gt;Node2</title>
<path fill="none" stroke="midnightblue" d="M138.02,-185.5C144.04,-186.46 150.1,-187.34 155.83,-188 415.84,-218.04 727.94,-228.48 854.95,-231.71"/>
<polygon fill="midnightblue" stroke="midnightblue" points="855.14,-235.21 865.22,-231.96 855.31,-228.21 855.14,-235.21"/>
</g>
<!-- Node10&#45;&gt;Node11 -->
<g id="edge11" class="edge">
<title>Node10&#45;&gt;Node11</title>
<path fill="none" stroke="midnightblue" d="M90.37,-168.08C86.68,-160.69 81.31,-149.95 76.74,-140.81"/>
<polygon fill="midnightblue" stroke="midnightblue" points="79.81,-139.13 72.21,-131.75 73.55,-142.26 79.81,-139.13"/>
</g>
<!-- Node12&#45;&gt;Node4 -->
<g id="edge14" class="edge">
<title>Node12&#45;&gt;Node4</title>
<path fill="none" stroke="midnightblue" d="M723.13,-112.44C788.72,-102.3 897.34,-85.49 962.5,-75.41"/>
<polygon fill="midnightblue" stroke="midnightblue" points="963.23,-78.84 972.58,-73.85 962.16,-71.92 963.23,-78.84"/>
</g>
<!-- Node16 -->
<g id="node16" class="node">
<title>Node16</title>
<g id="a_node16"><a xlink:href="morphology_8h.html" target="_top" xlink:title=" ">
<polygon fill="white" stroke="black" points="137.83,-112.5 137.83,-131.5 259.83,-131.5 259.83,-112.5 137.83,-112.5"/>
<text text-anchor="middle" x="198.83" y="-119.5" font-family="FreeSans" font-size="10.00">magick/morphology.h</text>
</a>
</g>
</g>
<!-- Node15&#45;&gt;Node16 -->
<g id="edge18" class="edge">
<title>Node15&#45;&gt;Node16</title>
<path fill="none" stroke="midnightblue" d="M201.34,-168.08C200.94,-161.01 200.38,-150.86 199.89,-141.99"/>
<polygon fill="midnightblue" stroke="midnightblue" points="203.37,-141.54 199.32,-131.75 196.38,-141.93 203.37,-141.54"/>
</g>
<!-- Node16&#45;&gt;Node17 -->
<g id="edge19" class="edge">
<title>Node16&#45;&gt;Node17</title>
<path fill="none" stroke="midnightblue" d="M182.28,-112.32C165.84,-103.7 140.4,-90.36 121.36,-80.39"/>
<polygon fill="midnightblue" stroke="midnightblue" points="122.82,-77.2 112.34,-75.65 119.57,-83.4 122.82,-77.2"/>
</g>
<!-- Node20 -->
<g id="node20" class="node">
<title>Node20</title>
<g id="a_node20"><a xlink:href="hashmap_8h.html" target="_top" xlink:title=" ">
<polygon fill="white" stroke="black" points="797.83,-112.5 797.83,-131.5 907.83,-131.5 907.83,-112.5 797.83,-112.5"/>
<text text-anchor="middle" x="852.83" y="-119.5" font-family="FreeSans" font-size="10.00">magick/hashmap.h</text>
</a>
</g>
</g>
<!-- Node19&#45;&gt;Node20 -->
<g id="edge23" class="edge">
<title>Node19&#45;&gt;Node20</title>
<path fill="none" stroke="midnightblue" d="M852.83,-168.08C852.83,-161.01 852.83,-150.86 852.83,-141.99"/>
<polygon fill="midnightblue" stroke="midnightblue" points="856.33,-141.75 852.83,-131.75 849.33,-141.75 856.33,-141.75"/>
</g>
<!-- Node23 -->
<g id="node23" class="node">
<title>Node23</title>
<g id="a_node23"><a xlink:href="string___8h.html" target="_top" xlink:title=" ">
<polygon fill="white" stroke="black" points="1690.83,-112.5 1690.83,-131.5 1788.83,-131.5 1788.83,-112.5 1690.83,-112.5"/>
<text text-anchor="middle" x="1739.83" y="-119.5" font-family="FreeSans" font-size="10.00">magick/string_.h</text>
</a>
</g>
</g>
<!-- Node22&#45;&gt;Node23 -->
<g id="edge27" class="edge">
<title>Node22&#45;&gt;Node23</title>
<path fill="none" stroke="midnightblue" d="M1611.07,-168.44C1636.7,-159.4 1677.32,-145.06 1706.07,-134.92"/>
<polygon fill="midnightblue" stroke="midnightblue" points="1707.44,-138.15 1715.7,-131.52 1705.11,-131.54 1707.44,-138.15"/>
</g>
<!-- Node23&#45;&gt;Node7 -->
<g id="edge30" class="edge">
<title>Node23&#45;&gt;Node7</title>
<path fill="none" stroke="midnightblue" d="M1721.93,-112.44C1703.58,-103.68 1674.83,-89.94 1653.74,-79.86"/>
<polygon fill="midnightblue" stroke="midnightblue" points="1655.18,-76.67 1644.65,-75.52 1652.17,-82.99 1655.18,-76.67"/>
</g>
<!-- Node23&#45;&gt;Node8 -->
<g id="edge28" class="edge">
<title>Node23&#45;&gt;Node8</title>
<path fill="none" stroke="midnightblue" d="M1734.04,-112.36C1725.45,-99.68 1708.64,-75.45 1692.83,-56 1684.75,-46.06 1675.12,-35.44 1667.23,-27.01"/>
<polygon fill="midnightblue" stroke="midnightblue" points="1669.72,-24.55 1660.3,-19.7 1664.64,-29.37 1669.72,-24.55"/>
</g>
<!-- Node24 -->
<g id="node24" class="node">
<title>Node24</title>
<g id="a_node24"><a xlink:title=" ">
<polygon fill="white" stroke="#bfbfbf" points="1739.83,-56.5 1739.83,-75.5 1787.83,-75.5 1787.83,-56.5 1739.83,-56.5"/>
<text text-anchor="middle" x="1763.83" y="-63.5" font-family="FreeSans" font-size="10.00">time.h</text>
</a>
</g>
</g>
<!-- Node23&#45;&gt;Node24 -->
<g id="edge29" class="edge">
<title>Node23&#45;&gt;Node24</title>
<path fill="none" stroke="midnightblue" d="M1743.79,-112.08C1747.04,-104.77 1751.75,-94.18 1755.78,-85.1"/>
<polygon fill="midnightblue" stroke="midnightblue" points="1759.08,-86.31 1759.94,-75.75 1752.68,-83.47 1759.08,-86.31"/>
</g>
<!-- Node25&#45;&gt;Node2 -->
<g id="edge33" class="edge">
<title>Node25&#45;&gt;Node2</title>
<path fill="none" stroke="midnightblue" d="M1378.82,-187.51C1377.48,-187.68 1376.15,-187.84 1374.83,-188 1229.92,-205.54 1058.33,-221.19 970.59,-228.55"/>
<polygon fill="midnightblue" stroke="midnightblue" points="970.24,-225.07 960.57,-229.39 970.83,-232.05 970.24,-225.07"/>
</g>
<!-- Node25&#45;&gt;Node9 -->
<g id="edge34" class="edge">
<title>Node25&#45;&gt;Node9</title>
<path fill="none" stroke="midnightblue" d="M1426.58,-168.27C1423.72,-155.48 1419.92,-131.11 1426.83,-112 1439.78,-76.18 1471.58,-44.12 1492.12,-26.15"/>
<polygon fill="midnightblue" stroke="midnightblue" points="1494.54,-28.69 1499.9,-19.55 1490.01,-23.35 1494.54,-28.69"/>
</g>
<!-- Node26 -->
<g id="node26" class="node">
<title>Node26</title>
<g id="a_node26"><a xlink:title=" ">
<polygon fill="white" stroke="#bfbfbf" points="1435.33,-112.5 1435.33,-131.5 1482.33,-131.5 1482.33,-112.5 1435.33,-112.5"/>
<text text-anchor="middle" x="1458.83" y="-119.5" font-family="FreeSans" font-size="10.00">float.h</text>
</a>
</g>
</g>
<!-- Node25&#45;&gt;Node26 -->
<g id="edge32" class="edge">
<title>Node25&#45;&gt;Node26</title>
<path fill="none" stroke="midnightblue" d="M1433.78,-168.08C1437.93,-160.61 1443.98,-149.72 1449.1,-140.52"/>
<polygon fill="midnightblue" stroke="midnightblue" points="1452.17,-142.19 1453.97,-131.75 1446.05,-138.79 1452.17,-142.19"/>
</g>
<!-- Node27&#45;&gt;Node12 -->
<g id="edge36" class="edge">
<title>Node27&#45;&gt;Node12</title>
<path fill="none" stroke="midnightblue" d="M598.17,-168.32C610.99,-159.98 630.62,-147.21 645.77,-137.35"/>
<polygon fill="midnightblue" stroke="midnightblue" points="648.06,-140.04 654.53,-131.65 644.24,-134.17 648.06,-140.04"/>
</g>
</g>
</svg>
