<?xml version="1.0" encoding="UTF-8" standalone="no"?>
<!DOCTYPE svg PUBLIC "-//W3C//DTD SVG 1.1//EN"
 "http://www.w3.org/Graphics/SVG/1.1/DTD/svg11.dtd">
<!-- Generated by graphviz version 2.43.0 (0)
 -->
<!-- Title: blob.c Pages: 1 -->
<svg width="2580pt" height="252pt"
 viewBox="0.00 0.00 2579.50 252.00" xmlns="http://www.w3.org/2000/svg" xmlns:xlink="http://www.w3.org/1999/xlink">
<g id="graph0" class="graph" transform="scale(1 1) rotate(0) translate(4 248)">
<title>blob.c</title>
<polygon fill="white" stroke="transparent" points="-4,4 -4,-248 2575.5,-248 2575.5,4 -4,4"/>
<!-- Node1 -->
<g id="node1" class="node">
<title>Node1</title>
<g id="a_node1"><a xlink:title=" ">
<polygon fill="#bfbfbf" stroke="black" points="1023.5,-224.5 1023.5,-243.5 1069.5,-243.5 1069.5,-224.5 1023.5,-224.5"/>
<text text-anchor="middle" x="1046.5" y="-231.5" font-family="FreeSans" font-size="10.00">blob.c</text>
</a>
</g>
</g>
<!-- Node2 -->
<g id="node2" class="node">
<title>Node2</title>
<g id="a_node2"><a xlink:href="studio_8h.html" target="_top" xlink:title=" ">
<polygon fill="white" stroke="black" points="1660,-112.5 1660,-131.5 1755,-131.5 1755,-112.5 1660,-112.5"/>
<text text-anchor="middle" x="1707.5" y="-119.5" font-family="FreeSans" font-size="10.00">magick/studio.h</text>
</a>
</g>
</g>
<!-- Node1&#45;&gt;Node2 -->
<g id="edge1" class="edge">
<title>Node1&#45;&gt;Node2</title>
<path fill="none" stroke="midnightblue" d="M1068.69,-224.38C1113.22,-207.11 1209.9,-169.76 1217.5,-168 1370.77,-132.53 1557.08,-124.81 1649.59,-123.26"/>
<polygon fill="midnightblue" stroke="midnightblue" points="1649.92,-126.76 1659.86,-123.11 1649.81,-119.76 1649.92,-126.76"/>
</g>
<!-- Node24 -->
<g id="node23" class="node">
<title>Node24</title>
<g id="a_node23"><a xlink:href="blob_8h.html" target="_top" xlink:title=" ">
<polygon fill="white" stroke="black" points="820.5,-112.5 820.5,-131.5 906.5,-131.5 906.5,-112.5 820.5,-112.5"/>
<text text-anchor="middle" x="863.5" y="-119.5" font-family="FreeSans" font-size="10.00">magick/blob.h</text>
</a>
</g>
</g>
<!-- Node1&#45;&gt;Node24 -->
<g id="edge23" class="edge">
<title>Node1&#45;&gt;Node24</title>
<path fill="none" stroke="midnightblue" d="M1040.93,-224.15C1031.79,-210.31 1012.34,-183.52 989.5,-168 966.37,-152.28 937.12,-141.39 912.63,-134.27"/>
<polygon fill="midnightblue" stroke="midnightblue" points="913.38,-130.84 902.81,-131.53 911.5,-137.59 913.38,-130.84"/>
</g>
<!-- Node37 -->
<g id="node25" class="node">
<title>Node37</title>
<g id="a_node25"><a xlink:href="geometry_8h.html" target="_top" xlink:title=" ">
<polygon fill="white" stroke="black" points="870.5,-0.5 870.5,-19.5 980.5,-19.5 980.5,-0.5 870.5,-0.5"/>
<text text-anchor="middle" x="925.5" y="-7.5" font-family="FreeSans" font-size="10.00">magick/geometry.h</text>
</a>
</g>
</g>
<!-- Node1&#45;&gt;Node37 -->
<g id="edge58" class="edge">
<title>Node1&#45;&gt;Node37</title>
<path fill="none" stroke="midnightblue" d="M1043.74,-224.09C1039.22,-210.63 1029.14,-184.91 1013.5,-168 992.64,-145.45 972.57,-156.84 954.5,-132 932.01,-101.1 926.76,-55.12 925.65,-29.66"/>
<polygon fill="midnightblue" stroke="midnightblue" points="929.15,-29.45 925.39,-19.54 922.15,-29.63 929.15,-29.45"/>
</g>
<!-- Node39 -->
<g id="node26" class="node">
<title>Node39</title>
<g id="a_node26"><a xlink:href="locale___8h.html" target="_top" xlink:title=" ">
<polygon fill="white" stroke="red" points="999,-0.5 999,-19.5 1098,-19.5 1098,-0.5 999,-0.5"/>
<text text-anchor="middle" x="1048.5" y="-7.5" font-family="FreeSans" font-size="10.00">magick/locale_.h</text>
</a>
</g>
</g>
<!-- Node1&#45;&gt;Node39 -->
<g id="edge61" class="edge">
<title>Node1&#45;&gt;Node39</title>
<path fill="none" stroke="midnightblue" d="M1053.74,-224.27C1067,-207.62 1094.62,-169.62 1103.5,-132 1112.86,-92.37 1083.18,-49.88 1063.84,-27.31"/>
<polygon fill="midnightblue" stroke="midnightblue" points="1066.3,-24.81 1057.03,-19.68 1061.08,-29.47 1066.3,-24.81"/>
</g>
<!-- Node31 -->
<g id="node27" class="node">
<title>Node31</title>
<g id="a_node27"><a xlink:href="semaphore_8h.html" target="_top" xlink:title=" ">
<polygon fill="white" stroke="black" points="453,-0.5 453,-19.5 572,-19.5 572,-0.5 453,-0.5"/>
<text text-anchor="middle" x="512.5" y="-7.5" font-family="FreeSans" font-size="10.00">magick/semaphore.h</text>
</a>
</g>
</g>
<!-- Node1&#45;&gt;Node31 -->
<g id="edge72" class="edge">
<title>Node1&#45;&gt;Node31</title>
<path fill="none" stroke="midnightblue" d="M1023.22,-232.51C933.84,-230.41 616.12,-220.65 586.5,-188 580.53,-181.42 581.64,-175.44 586.5,-168 608.26,-134.68 646.74,-165.32 668.5,-132 673.36,-124.56 672.75,-119.81 668.5,-112 661.14,-98.46 577.88,-48.88 536.11,-24.59"/>
<polygon fill="midnightblue" stroke="midnightblue" points="537.8,-21.53 527.39,-19.54 534.29,-27.58 537.8,-21.53"/>
</g>
<!-- Node50 -->
<g id="node29" class="node">
<title>Node50</title>
<g id="a_node29"><a xlink:href="blob-private_8h.html" target="_top" xlink:title=" ">
<polygon fill="white" stroke="black" points="595.5,-168.5 595.5,-187.5 719.5,-187.5 719.5,-168.5 595.5,-168.5"/>
<text text-anchor="middle" x="657.5" y="-175.5" font-family="FreeSans" font-size="10.00">magick/blob&#45;private.h</text>
</a>
</g>
</g>
<!-- Node1&#45;&gt;Node50 -->
<g id="edge31" class="edge">
<title>Node1&#45;&gt;Node50</title>
<path fill="none" stroke="midnightblue" d="M1023.33,-229.78C966.48,-221.89 818.2,-201.31 728.84,-188.9"/>
<polygon fill="midnightblue" stroke="midnightblue" points="729.17,-185.42 718.78,-187.51 728.21,-192.35 729.17,-185.42"/>
</g>
<!-- Node51 -->
<g id="node30" class="node">
<title>Node51</title>
<g id="a_node30"><a xlink:href="nt-base-private_8h.html" target="_top" xlink:title=" ">
<polygon fill="white" stroke="red" points="519.5,-112.5 519.5,-131.5 659.5,-131.5 659.5,-112.5 519.5,-112.5"/>
<text text-anchor="middle" x="589.5" y="-119.5" font-family="FreeSans" font-size="10.00">magick/nt&#45;base&#45;private.h</text>
</a>
</g>
</g>
<!-- Node1&#45;&gt;Node51 -->
<g id="edge67" class="edge">
<title>Node1&#45;&gt;Node51</title>
<path fill="none" stroke="midnightblue" d="M1023.49,-232.68C930.44,-231.14 585.55,-223.11 553.5,-188 540.07,-173.29 555.94,-152.68 570.65,-138.64"/>
<polygon fill="midnightblue" stroke="midnightblue" points="573.4,-140.87 578.51,-131.59 568.72,-135.66 573.4,-140.87"/>
</g>
<!-- Node52 -->
<g id="node31" class="node">
<title>Node52</title>
<g id="a_node31"><a xlink:href="delegate_8h.html" target="_top" xlink:title=" ">
<polygon fill="white" stroke="black" points="459,-56.5 459,-75.5 566,-75.5 566,-56.5 459,-56.5"/>
<text text-anchor="middle" x="512.5" y="-63.5" font-family="FreeSans" font-size="10.00">magick/delegate.h</text>
</a>
</g>
</g>
<!-- Node1&#45;&gt;Node52 -->
<g id="edge45" class="edge">
<title>Node1&#45;&gt;Node52</title>
<path fill="none" stroke="midnightblue" d="M1023.48,-232.17C930.34,-228.65 584.49,-213.91 543.5,-188 519.08,-172.56 518.1,-159.87 510.5,-132 508.16,-123.42 510.3,-120.89 510.5,-112 510.69,-103.39 511.09,-93.86 511.48,-85.8"/>
<polygon fill="midnightblue" stroke="midnightblue" points="514.98,-85.79 512,-75.62 507.99,-85.43 514.98,-85.79"/>
</g>
<!-- Node30 -->
<g id="node32" class="node">
<title>Node30</title>
<g id="a_node32"><a xlink:href="exception_8h.html" target="_top" xlink:title=" ">
<polygon fill="white" stroke="black" points="328,-56.5 328,-75.5 441,-75.5 441,-56.5 328,-56.5"/>
<text text-anchor="middle" x="384.5" y="-63.5" font-family="FreeSans" font-size="10.00">magick/exception.h</text>
</a>
</g>
</g>
<!-- Node1&#45;&gt;Node30 -->
<g id="edge46" class="edge">
<title>Node1&#45;&gt;Node30</title>
<path fill="none" stroke="midnightblue" d="M1023.31,-232.97C933.81,-232.58 611.2,-228.31 518.5,-188 472.33,-167.92 471.88,-145.73 434.5,-112 423.64,-102.2 411.43,-91.21 401.8,-82.55"/>
<polygon fill="midnightblue" stroke="midnightblue" points="403.87,-79.7 394.09,-75.62 399.19,-84.91 403.87,-79.7"/>
</g>
<!-- Node55 -->
<g id="node33" class="node">
<title>Node55</title>
<g id="a_node33"><a xlink:href="cache_8h.html" target="_top" xlink:title=" ">
<polygon fill="white" stroke="black" points="887,-168.5 887,-187.5 980,-187.5 980,-168.5 887,-168.5"/>
<text text-anchor="middle" x="933.5" y="-175.5" font-family="FreeSans" font-size="10.00">magick/cache.h</text>
</a>
</g>
</g>
<!-- Node1&#45;&gt;Node55 -->
<g id="edge41" class="edge">
<title>Node1&#45;&gt;Node55</title>
<path fill="none" stroke="midnightblue" d="M1028.59,-224.44C1010.25,-215.68 981.49,-201.94 960.41,-191.86"/>
<polygon fill="midnightblue" stroke="midnightblue" points="961.85,-188.67 951.32,-187.52 958.83,-194.99 961.85,-188.67"/>
</g>
<!-- Node56 -->
<g id="node34" class="node">
<title>Node56</title>
<g id="a_node34"><a xlink:href="client_8h.html" target="_top" xlink:title=" ">
<polygon fill="white" stroke="black" points="1226.5,-168.5 1226.5,-187.5 1318.5,-187.5 1318.5,-168.5 1226.5,-168.5"/>
<text text-anchor="middle" x="1272.5" y="-175.5" font-family="FreeSans" font-size="10.00">magick/client.h</text>
</a>
</g>
</g>
<!-- Node1&#45;&gt;Node56 -->
<g id="edge43" class="edge">
<title>Node1&#45;&gt;Node56</title>
<path fill="none" stroke="midnightblue" d="M1069.83,-227.42C1106.79,-218.59 1179.46,-201.23 1226.99,-189.87"/>
<polygon fill="midnightblue" stroke="midnightblue" points="1227.81,-193.28 1236.73,-187.55 1226.19,-186.47 1227.81,-193.28"/>
</g>
<!-- Node29 -->
<g id="node35" class="node">
<title>Node29</title>
<g id="a_node35"><a xlink:href="constitute_8h.html" target="_top" xlink:title=" ">
<polygon fill="white" stroke="black" points="1337,-168.5 1337,-187.5 1450,-187.5 1450,-168.5 1337,-168.5"/>
<text text-anchor="middle" x="1393.5" y="-175.5" font-family="FreeSans" font-size="10.00">magick/constitute.h</text>
</a>
</g>
</g>
<!-- Node1&#45;&gt;Node29 -->
<g id="edge44" class="edge">
<title>Node1&#45;&gt;Node29</title>
<path fill="none" stroke="midnightblue" d="M1069.54,-229.42C1121.54,-221.32 1249.63,-201.39 1328.28,-189.15"/>
<polygon fill="midnightblue" stroke="midnightblue" points="1329.22,-192.55 1338.56,-187.55 1328.14,-185.63 1329.22,-192.55"/>
</g>
<!-- Node57 -->
<g id="node36" class="node">
<title>Node57</title>
<g id="a_node36"><a xlink:href="exception-private_8h.html" target="_top" xlink:title=" ">
<polygon fill="white" stroke="black" points="89,-168.5 89,-187.5 240,-187.5 240,-168.5 89,-168.5"/>
<text text-anchor="middle" x="164.5" y="-175.5" font-family="FreeSans" font-size="10.00">magick/exception&#45;private.h</text>
</a>
</g>
</g>
<!-- Node1&#45;&gt;Node57 -->
<g id="edge47" class="edge">
<title>Node1&#45;&gt;Node57</title>
<path fill="none" stroke="midnightblue" d="M1023.21,-231.82C929.6,-227.02 571.69,-208.32 277.5,-188 268.63,-187.39 259.38,-186.71 250.15,-186.01"/>
<polygon fill="midnightblue" stroke="midnightblue" points="250.4,-182.52 240.16,-185.25 249.86,-189.5 250.4,-182.52"/>
</g>
<!-- Node58 -->
<g id="node37" class="node">
<title>Node58</title>
<g id="a_node37"><a xlink:href="log_8h.html" target="_top" xlink:title=" ">
<polygon fill="white" stroke="black" points="119.5,-112.5 119.5,-131.5 199.5,-131.5 199.5,-112.5 119.5,-112.5"/>
<text text-anchor="middle" x="159.5" y="-119.5" font-family="FreeSans" font-size="10.00">magick/log.h</text>
</a>
</g>
</g>
<!-- Node1&#45;&gt;Node58 -->
<g id="edge62" class="edge">
<title>Node1&#45;&gt;Node58</title>
<path fill="none" stroke="midnightblue" d="M1023.15,-232.32C917.4,-229.13 482.83,-214.62 349.5,-188 290.75,-176.27 225.26,-151 188.55,-135.65"/>
<polygon fill="midnightblue" stroke="midnightblue" points="189.56,-132.28 178.99,-131.61 186.84,-138.73 189.56,-132.28"/>
</g>
<!-- Node59 -->
<g id="node38" class="node">
<title>Node59</title>
<g id="a_node38"><a xlink:href="magick_8h.html" target="_top" xlink:title=" ">
<polygon fill="white" stroke="black" points="0,-112.5 0,-131.5 101,-131.5 101,-112.5 0,-112.5"/>
<text text-anchor="middle" x="50.5" y="-119.5" font-family="FreeSans" font-size="10.00">magick/magick.h</text>
</a>
</g>
</g>
<!-- Node1&#45;&gt;Node59 -->
<g id="edge63" class="edge">
<title>Node1&#45;&gt;Node59</title>
<path fill="none" stroke="midnightblue" d="M1023.2,-232.6C879.59,-230.08 119.71,-215.44 79.5,-188 64.06,-177.46 56.74,-156.68 53.34,-141.44"/>
<polygon fill="midnightblue" stroke="midnightblue" points="56.77,-140.74 51.49,-131.55 49.88,-142.02 56.77,-140.74"/>
</g>
<!-- Node43 -->
<g id="node39" class="node">
<title>Node43</title>
<g id="a_node39"><a xlink:href="string___8h.html" target="_top" xlink:title=" ">
<polygon fill="white" stroke="black" points="217.5,-112.5 217.5,-131.5 315.5,-131.5 315.5,-112.5 217.5,-112.5"/>
<text text-anchor="middle" x="266.5" y="-119.5" font-family="FreeSans" font-size="10.00">magick/string_.h</text>
</a>
</g>
</g>
<!-- Node1&#45;&gt;Node43 -->
<g id="edge73" class="edge">
<title>Node1&#45;&gt;Node43</title>
<path fill="none" stroke="midnightblue" d="M1023.45,-232.47C923.75,-229.99 529.32,-218.41 409.5,-188 365.05,-176.72 317.29,-152.21 289.75,-136.72"/>
<polygon fill="midnightblue" stroke="midnightblue" points="291.31,-133.58 280.89,-131.65 287.83,-139.65 291.31,-133.58"/>
</g>
<!-- Node60 -->
<g id="node40" class="node">
<title>Node60</title>
<g id="a_node40"><a xlink:href="image-private_8h.html" target="_top" xlink:title=" ">
<polygon fill="white" stroke="black" points="1468.5,-168.5 1468.5,-187.5 1602.5,-187.5 1602.5,-168.5 1468.5,-168.5"/>
<text text-anchor="middle" x="1535.5" y="-175.5" font-family="FreeSans" font-size="10.00">magick/image&#45;private.h</text>
</a>
</g>
</g>
<!-- Node1&#45;&gt;Node60 -->
<g id="edge59" class="edge">
<title>Node1&#45;&gt;Node60</title>
<path fill="none" stroke="midnightblue" d="M1069.8,-230.54C1131.33,-224.02 1303.54,-205.68 1458.21,-188.14"/>
<polygon fill="midnightblue" stroke="midnightblue" points="1458.83,-191.59 1468.37,-186.98 1458.04,-184.64 1458.83,-191.59"/>
</g>
<!-- Node61 -->
<g id="node41" class="node">
<title>Node61</title>
<g id="a_node41"><a xlink:href="list_8h.html" target="_top" xlink:title=" ">
<polygon fill="white" stroke="black" points="1620.5,-168.5 1620.5,-187.5 1700.5,-187.5 1700.5,-168.5 1620.5,-168.5"/>
<text text-anchor="middle" x="1660.5" y="-175.5" font-family="FreeSans" font-size="10.00">magick/list.h</text>
</a>
</g>
</g>
<!-- Node1&#45;&gt;Node61 -->
<g id="edge60" class="edge">
<title>Node1&#45;&gt;Node61</title>
<path fill="none" stroke="midnightblue" d="M1069.73,-232C1145.82,-228.56 1394.54,-215.87 1610.51,-188"/>
<polygon fill="midnightblue" stroke="midnightblue" points="1610.98,-191.47 1620.44,-186.7 1610.07,-184.53 1610.98,-191.47"/>
</g>
<!-- Node62 -->
<g id="node42" class="node">
<title>Node62</title>
<g id="a_node42"><a xlink:href="memory___8h.html" target="_top" xlink:title=" ">
<polygon fill="white" stroke="black" points="1151,-112.5 1151,-131.5 1262,-131.5 1262,-112.5 1151,-112.5"/>
<text text-anchor="middle" x="1206.5" y="-119.5" font-family="FreeSans" font-size="10.00">magick/memory_.h</text>
</a>
</g>
</g>
<!-- Node1&#45;&gt;Node62 -->
<g id="edge64" class="edge">
<title>Node1&#45;&gt;Node62</title>
<path fill="none" stroke="midnightblue" d="M1067.82,-224.4C1086.67,-216.32 1114.53,-203.22 1136.5,-188 1157.24,-173.63 1178.05,-153.38 1191.52,-139.32"/>
<polygon fill="midnightblue" stroke="midnightblue" points="1194.25,-141.53 1198.55,-131.84 1189.15,-136.73 1194.25,-141.53"/>
</g>
<!-- Node63 -->
<g id="node43" class="node">
<title>Node63</title>
<g id="a_node43"><a xlink:href="option_8h.html" target="_top" xlink:title=" ">
<polygon fill="white" stroke="black" points="1719,-168.5 1719,-187.5 1814,-187.5 1814,-168.5 1719,-168.5"/>
<text text-anchor="middle" x="1766.5" y="-175.5" font-family="FreeSans" font-size="10.00">magick/option.h</text>
</a>
</g>
</g>
<!-- Node1&#45;&gt;Node63 -->
<g id="edge68" class="edge">
<title>Node1&#45;&gt;Node63</title>
<path fill="none" stroke="midnightblue" d="M1069.76,-232.17C1154.1,-229 1451.87,-216.46 1708.69,-187.98"/>
<polygon fill="midnightblue" stroke="midnightblue" points="1709.41,-191.42 1718.96,-186.83 1708.63,-184.46 1709.41,-191.42"/>
</g>
<!-- Node64 -->
<g id="node44" class="node">
<title>Node64</title>
<g id="a_node44"><a xlink:href="policy_8h.html" target="_top" xlink:title=" ">
<polygon fill="white" stroke="red" points="333.5,-112.5 333.5,-131.5 425.5,-131.5 425.5,-112.5 333.5,-112.5"/>
<text text-anchor="middle" x="379.5" y="-119.5" font-family="FreeSans" font-size="10.00">magick/policy.h</text>
</a>
</g>
</g>
<!-- Node1&#45;&gt;Node64 -->
<g id="edge69" class="edge">
<title>Node1&#45;&gt;Node64</title>
<path fill="none" stroke="midnightblue" d="M1023.27,-232.28C918.51,-228.92 492.85,-213.75 439.5,-188 417.97,-177.61 400.43,-155.81 390,-140.33"/>
<polygon fill="midnightblue" stroke="midnightblue" points="392.79,-138.2 384.45,-131.67 386.89,-141.97 392.79,-138.2"/>
</g>
<!-- Node65 -->
<g id="node45" class="node">
<title>Node65</title>
<g id="a_node45"><a xlink:href="resource___8h.html" target="_top" xlink:title=" ">
<polygon fill="white" stroke="black" points="1832.5,-168.5 1832.5,-187.5 1944.5,-187.5 1944.5,-168.5 1832.5,-168.5"/>
<text text-anchor="middle" x="1888.5" y="-175.5" font-family="FreeSans" font-size="10.00">magick/resource_.h</text>
</a>
</g>
</g>
<!-- Node1&#45;&gt;Node65 -->
<g id="edge71" class="edge">
<title>Node1&#45;&gt;Node65</title>
<path fill="none" stroke="midnightblue" d="M1069.75,-232.33C1162.94,-229.51 1518.53,-217.38 1821.85,-188.09"/>
<polygon fill="midnightblue" stroke="midnightblue" points="1822.55,-191.53 1832.16,-187.08 1821.87,-184.57 1822.55,-191.53"/>
</g>
<!-- Node66 -->
<g id="node46" class="node">
<title>Node66</title>
<g id="a_node46"><a xlink:href="string-private_8h.html" target="_top" xlink:title=" ">
<polygon fill="white" stroke="red" points="963,-112.5 963,-131.5 1094,-131.5 1094,-112.5 963,-112.5"/>
<text text-anchor="middle" x="1028.5" y="-119.5" font-family="FreeSans" font-size="10.00">magick/string&#45;private.h</text>
</a>
</g>
</g>
<!-- Node1&#45;&gt;Node66 -->
<g id="edge74" class="edge">
<title>Node1&#45;&gt;Node66</title>
<path fill="none" stroke="midnightblue" d="M1051.14,-224.45C1057.33,-211.89 1066.82,-187.79 1060.5,-168 1057.16,-157.54 1050.4,-147.43 1043.95,-139.45"/>
<polygon fill="midnightblue" stroke="midnightblue" points="1046.44,-136.98 1037.25,-131.71 1041.15,-141.56 1046.44,-136.98"/>
</g>
<!-- Node68 -->
<g id="node47" class="node">
<title>Node68</title>
<g id="a_node47"><a xlink:href="timer-private_8h.html" target="_top" xlink:title=" ">
<polygon fill="white" stroke="black" points="1963,-168.5 1963,-187.5 2092,-187.5 2092,-168.5 1963,-168.5"/>
<text text-anchor="middle" x="2027.5" y="-175.5" font-family="FreeSans" font-size="10.00">magick/timer&#45;private.h</text>
</a>
</g>
</g>
<!-- Node1&#45;&gt;Node68 -->
<g id="edge76" class="edge">
<title>Node1&#45;&gt;Node68</title>
<path fill="none" stroke="midnightblue" d="M1069.67,-232.46C1172.07,-229.95 1594.47,-218.24 1952.9,-187.98"/>
<polygon fill="midnightblue" stroke="midnightblue" points="1953.29,-191.46 1962.95,-187.13 1952.69,-184.49 1953.29,-191.46"/>
</g>
<!-- Node69 -->
<g id="node48" class="node">
<title>Node69</title>
<g id="a_node48"><a xlink:href="token_8h.html" target="_top" xlink:title=" ">
<polygon fill="white" stroke="black" points="2110.5,-168.5 2110.5,-187.5 2202.5,-187.5 2202.5,-168.5 2110.5,-168.5"/>
<text text-anchor="middle" x="2156.5" y="-175.5" font-family="FreeSans" font-size="10.00">magick/token.h</text>
</a>
</g>
</g>
<!-- Node1&#45;&gt;Node69 -->
<g id="edge77" class="edge">
<title>Node1&#45;&gt;Node69</title>
<path fill="none" stroke="midnightblue" d="M1069.59,-233.04C1181.77,-233 1681.21,-230.4 2100.15,-188.01"/>
<polygon fill="midnightblue" stroke="midnightblue" points="2100.75,-191.46 2110.34,-186.96 2100.04,-184.5 2100.75,-191.46"/>
</g>
<!-- Node70 -->
<g id="node49" class="node">
<title>Node70</title>
<g id="a_node49"><a xlink:href="utility_8h.html" target="_top" xlink:title=" ">
<polygon fill="white" stroke="black" points="2220.5,-168.5 2220.5,-187.5 2312.5,-187.5 2312.5,-168.5 2220.5,-168.5"/>
<text text-anchor="middle" x="2266.5" y="-175.5" font-family="FreeSans" font-size="10.00">magick/utility.h</text>
</a>
</g>
</g>
<!-- Node1&#45;&gt;Node70 -->
<g id="edge78" class="edge">
<title>Node1&#45;&gt;Node70</title>
<path fill="none" stroke="midnightblue" d="M1069.57,-233.17C1188.57,-233.81 1745.1,-234.15 2210.06,-188.01"/>
<polygon fill="midnightblue" stroke="midnightblue" points="2210.74,-191.46 2220.34,-186.98 2210.04,-184.49 2210.74,-191.46"/>
</g>
<!-- Node71 -->
<g id="node50" class="node">
<title>Node71</title>
<g id="a_node50"><a xlink:href="utility-private_8h.html" target="_top" xlink:title=" ">
<polygon fill="white" stroke="red" points="738,-168.5 738,-187.5 869,-187.5 869,-168.5 738,-168.5"/>
<text text-anchor="middle" x="803.5" y="-175.5" font-family="FreeSans" font-size="10.00">magick/utility&#45;private.h</text>
</a>
</g>
</g>
<!-- Node1&#45;&gt;Node71 -->
<g id="edge79" class="edge">
<title>Node1&#45;&gt;Node71</title>
<path fill="none" stroke="midnightblue" d="M1023.2,-227.82C983.89,-219.09 903.61,-201.25 851.74,-189.72"/>
<polygon fill="midnightblue" stroke="midnightblue" points="852.29,-186.26 841.77,-187.5 850.77,-193.09 852.29,-186.26"/>
</g>
<!-- Node3 -->
<g id="node3" class="node">
<title>Node3</title>
<g id="a_node3"><a xlink:href="magick-config_8h.html" target="_top" xlink:title=" ">
<polygon fill="white" stroke="red" points="1399.5,-0.5 1399.5,-19.5 1533.5,-19.5 1533.5,-0.5 1399.5,-0.5"/>
<text text-anchor="middle" x="1466.5" y="-7.5" font-family="FreeSans" font-size="10.00">magick/magick&#45;config.h</text>
</a>
</g>
</g>
<!-- Node2&#45;&gt;Node3 -->
<g id="edge2" class="edge">
<title>Node2&#45;&gt;Node3</title>
<path fill="none" stroke="midnightblue" d="M1659.72,-115.78C1622.77,-110.15 1571.37,-98.72 1531.5,-76 1510.14,-63.83 1490.95,-42.77 1479.06,-27.93"/>
<polygon fill="midnightblue" stroke="midnightblue" points="1481.52,-25.4 1472.64,-19.63 1475.98,-29.68 1481.52,-25.4"/>
</g>
<!-- Node5 -->
<g id="node4" class="node">
<title>Node5</title>
<g id="a_node4"><a xlink:title=" ">
<polygon fill="white" stroke="#bfbfbf" points="295.5,-0.5 295.5,-19.5 351.5,-19.5 351.5,-0.5 295.5,-0.5"/>
<text text-anchor="middle" x="323.5" y="-7.5" font-family="FreeSans" font-size="10.00">stdarg.h</text>
</a>
</g>
</g>
<!-- Node2&#45;&gt;Node5 -->
<g id="edge3" class="edge">
<title>Node2&#45;&gt;Node5</title>
<path fill="none" stroke="midnightblue" d="M1659.89,-120.03C1493.72,-116.43 940.01,-102.69 764.5,-76 729.54,-70.68 722.23,-62.63 687.5,-56 569.65,-33.51 428.09,-19.75 361.57,-14.05"/>
<polygon fill="midnightblue" stroke="midnightblue" points="361.81,-10.56 351.55,-13.2 361.22,-17.53 361.81,-10.56"/>
</g>
<!-- Node6 -->
<g id="node5" class="node">
<title>Node6</title>
<g id="a_node5"><a xlink:title=" ">
<polygon fill="white" stroke="#bfbfbf" points="1540.5,-56.5 1540.5,-75.5 1590.5,-75.5 1590.5,-56.5 1540.5,-56.5"/>
<text text-anchor="middle" x="1565.5" y="-63.5" font-family="FreeSans" font-size="10.00">stdio.h</text>
</a>
</g>
</g>
<!-- Node2&#45;&gt;Node6 -->
<g id="edge4" class="edge">
<title>Node2&#45;&gt;Node6</title>
<path fill="none" stroke="midnightblue" d="M1685,-112.44C1661.42,-103.48 1624.18,-89.31 1597.54,-79.18"/>
<polygon fill="midnightblue" stroke="midnightblue" points="1598.49,-75.8 1587.9,-75.52 1596,-82.34 1598.49,-75.8"/>
</g>
<!-- Node7 -->
<g id="node6" class="node">
<title>Node7</title>
<g id="a_node6"><a xlink:title=" ">
<polygon fill="white" stroke="#bfbfbf" points="1609,-56.5 1609,-75.5 1662,-75.5 1662,-56.5 1609,-56.5"/>
<text text-anchor="middle" x="1635.5" y="-63.5" font-family="FreeSans" font-size="10.00">ctype.h</text>
</a>
</g>
</g>
<!-- Node2&#45;&gt;Node7 -->
<g id="edge5" class="edge">
<title>Node2&#45;&gt;Node7</title>
<path fill="none" stroke="midnightblue" d="M1695.93,-112.32C1685.08,-104.18 1668.62,-91.84 1655.62,-82.09"/>
<polygon fill="midnightblue" stroke="midnightblue" points="1657.38,-79.03 1647.28,-75.83 1653.18,-84.63 1657.38,-79.03"/>
</g>
<!-- Node8 -->
<g id="node7" class="node">
<title>Node8</title>
<g id="a_node7"><a xlink:title=" ">
<polygon fill="white" stroke="#bfbfbf" points="1680,-56.5 1680,-75.5 1735,-75.5 1735,-56.5 1680,-56.5"/>
<text text-anchor="middle" x="1707.5" y="-63.5" font-family="FreeSans" font-size="10.00">locale.h</text>
</a>
</g>
</g>
<!-- Node2&#45;&gt;Node8 -->
<g id="edge6" class="edge">
<title>Node2&#45;&gt;Node8</title>
<path fill="none" stroke="midnightblue" d="M1707.5,-112.08C1707.5,-105.01 1707.5,-94.86 1707.5,-85.99"/>
<polygon fill="midnightblue" stroke="midnightblue" points="1711,-85.75 1707.5,-75.75 1704,-85.75 1711,-85.75"/>
</g>
<!-- Node9 -->
<g id="node8" class="node">
<title>Node9</title>
<g id="a_node8"><a xlink:title=" ">
<polygon fill="white" stroke="#bfbfbf" points="1203,-56.5 1203,-75.5 1254,-75.5 1254,-56.5 1203,-56.5"/>
<text text-anchor="middle" x="1228.5" y="-63.5" font-family="FreeSans" font-size="10.00">errno.h</text>
</a>
</g>
</g>
<!-- Node2&#45;&gt;Node9 -->
<g id="edge7" class="edge">
<title>Node2&#45;&gt;Node9</title>
<path fill="none" stroke="midnightblue" d="M1659.86,-118.53C1579.97,-113.88 1413.85,-102.01 1263.87,-75.78"/>
<polygon fill="midnightblue" stroke="midnightblue" points="1264.47,-72.34 1254.02,-74.04 1263.25,-79.23 1264.47,-72.34"/>
</g>
<!-- Node10 -->
<g id="node9" class="node">
<title>Node10</title>
<g id="a_node9"><a xlink:title=" ">
<polygon fill="white" stroke="#bfbfbf" points="1753,-56.5 1753,-75.5 1800,-75.5 1800,-56.5 1753,-56.5"/>
<text text-anchor="middle" x="1776.5" y="-63.5" font-family="FreeSans" font-size="10.00">fcntl.h</text>
</a>
</g>
</g>
<!-- Node2&#45;&gt;Node10 -->
<g id="edge8" class="edge">
<title>Node2&#45;&gt;Node10</title>
<path fill="none" stroke="midnightblue" d="M1718.59,-112.32C1728.99,-104.18 1744.76,-91.84 1757.22,-82.09"/>
<polygon fill="midnightblue" stroke="midnightblue" points="1759.49,-84.75 1765.21,-75.83 1755.18,-79.24 1759.49,-84.75"/>
</g>
<!-- Node11 -->
<g id="node10" class="node">
<title>Node11</title>
<g id="a_node10"><a xlink:title=" ">
<polygon fill="white" stroke="#bfbfbf" points="1818,-56.5 1818,-75.5 1869,-75.5 1869,-56.5 1818,-56.5"/>
<text text-anchor="middle" x="1843.5" y="-63.5" font-family="FreeSans" font-size="10.00">math.h</text>
</a>
</g>
</g>
<!-- Node2&#45;&gt;Node11 -->
<g id="edge9" class="edge">
<title>Node2&#45;&gt;Node11</title>
<path fill="none" stroke="midnightblue" d="M1729.05,-112.44C1751.53,-103.52 1786.99,-89.44 1812.48,-79.32"/>
<polygon fill="midnightblue" stroke="midnightblue" points="1814.05,-82.46 1822.05,-75.52 1811.47,-75.95 1814.05,-82.46"/>
</g>
<!-- Node12 -->
<g id="node11" class="node">
<title>Node12</title>
<g id="a_node11"><a xlink:title=" ">
<polygon fill="white" stroke="#bfbfbf" points="630.5,-56.5 630.5,-75.5 678.5,-75.5 678.5,-56.5 630.5,-56.5"/>
<text text-anchor="middle" x="654.5" y="-63.5" font-family="FreeSans" font-size="10.00">time.h</text>
</a>
</g>
</g>
<!-- Node2&#45;&gt;Node12 -->
<g id="edge10" class="edge">
<title>Node2&#45;&gt;Node12</title>
<path fill="none" stroke="midnightblue" d="M1659.93,-120.08C1485.76,-116.52 883.03,-102.55 692.5,-76 691.39,-75.85 690.27,-75.67 689.14,-75.49"/>
<polygon fill="midnightblue" stroke="midnightblue" points="689.39,-71.97 678.9,-73.49 688.05,-78.84 689.39,-71.97"/>
</g>
<!-- Node13 -->
<g id="node12" class="node">
<title>Node13</title>
<g id="a_node12"><a xlink:title=" ">
<polygon fill="white" stroke="#bfbfbf" points="1887,-56.5 1887,-75.5 1940,-75.5 1940,-56.5 1887,-56.5"/>
<text text-anchor="middle" x="1913.5" y="-63.5" font-family="FreeSans" font-size="10.00">limits.h</text>
</a>
</g>
</g>
<!-- Node2&#45;&gt;Node13 -->
<g id="edge11" class="edge">
<title>Node2&#45;&gt;Node13</title>
<path fill="none" stroke="midnightblue" d="M1740.14,-112.44C1777.42,-102.67 1838.27,-86.72 1877.07,-76.55"/>
<polygon fill="midnightblue" stroke="midnightblue" points="1878.12,-79.89 1886.91,-73.97 1876.35,-73.12 1878.12,-79.89"/>
</g>
<!-- Node14 -->
<g id="node13" class="node">
<title>Node14</title>
<g id="a_node13"><a xlink:title=" ">
<polygon fill="white" stroke="#bfbfbf" points="1958,-56.5 1958,-75.5 2013,-75.5 2013,-56.5 1958,-56.5"/>
<text text-anchor="middle" x="1985.5" y="-63.5" font-family="FreeSans" font-size="10.00">signal.h</text>
</a>
</g>
</g>
<!-- Node2&#45;&gt;Node14 -->
<g id="edge12" class="edge">
<title>Node2&#45;&gt;Node14</title>
<path fill="none" stroke="midnightblue" d="M1755.43,-112.98C1802.18,-104.95 1875.52,-91.84 1947.49,-76.35"/>
<polygon fill="midnightblue" stroke="midnightblue" points="1948.6,-79.69 1957.63,-74.15 1947.12,-72.85 1948.6,-79.69"/>
</g>
<!-- Node15 -->
<g id="node14" class="node">
<title>Node15</title>
<g id="a_node14"><a xlink:title=" ">
<polygon fill="white" stroke="#bfbfbf" points="1128.5,-56.5 1128.5,-75.5 1184.5,-75.5 1184.5,-56.5 1128.5,-56.5"/>
<text text-anchor="middle" x="1156.5" y="-63.5" font-family="FreeSans" font-size="10.00">assert.h</text>
</a>
</g>
</g>
<!-- Node2&#45;&gt;Node15 -->
<g id="edge13" class="edge">
<title>Node2&#45;&gt;Node15</title>
<path fill="none" stroke="midnightblue" d="M1659.83,-119.13C1568.86,-115.05 1364.4,-103.42 1194.5,-76 1194.4,-75.98 1194.3,-75.97 1194.2,-75.95"/>
<polygon fill="midnightblue" stroke="midnightblue" points="1195.11,-72.56 1184.63,-74.14 1193.81,-79.44 1195.11,-72.56"/>
</g>
<!-- Node16 -->
<g id="node15" class="node">
<title>Node16</title>
<g id="a_node15"><a xlink:href="method-attribute_8h.html" target="_top" xlink:title=" ">
<polygon fill="white" stroke="black" points="2031.5,-56.5 2031.5,-75.5 2179.5,-75.5 2179.5,-56.5 2031.5,-56.5"/>
<text text-anchor="middle" x="2105.5" y="-63.5" font-family="FreeSans" font-size="10.00">magick/method&#45;attribute.h</text>
</a>
</g>
</g>
<!-- Node2&#45;&gt;Node16 -->
<g id="edge14" class="edge">
<title>Node2&#45;&gt;Node16</title>
<path fill="none" stroke="midnightblue" d="M1755.11,-114.54C1823.97,-105.2 1951.93,-87.84 2032.69,-76.88"/>
<polygon fill="midnightblue" stroke="midnightblue" points="2033.34,-80.32 2042.78,-75.51 2032.4,-73.39 2033.34,-80.32"/>
</g>
<!-- Node17 -->
<g id="node16" class="node">
<title>Node17</title>
<g id="a_node16"><a xlink:title=" ">
<polygon fill="white" stroke="#bfbfbf" points="2197.5,-56.5 2197.5,-75.5 2269.5,-75.5 2269.5,-56.5 2197.5,-56.5"/>
<text text-anchor="middle" x="2233.5" y="-63.5" font-family="FreeSans" font-size="10.00">sys/types.h</text>
</a>
</g>
</g>
<!-- Node2&#45;&gt;Node17 -->
<g id="edge15" class="edge">
<title>Node2&#45;&gt;Node17</title>
<path fill="none" stroke="midnightblue" d="M1755.14,-118.19C1839.97,-112.84 2022.91,-99.66 2186.93,-76.09"/>
<polygon fill="midnightblue" stroke="midnightblue" points="2187.81,-79.5 2197.21,-74.6 2186.81,-72.57 2187.81,-79.5"/>
</g>
<!-- Node18 -->
<g id="node17" class="node">
<title>Node18</title>
<g id="a_node17"><a xlink:title=" ">
<polygon fill="white" stroke="#bfbfbf" points="2287.5,-56.5 2287.5,-75.5 2351.5,-75.5 2351.5,-56.5 2287.5,-56.5"/>
<text text-anchor="middle" x="2319.5" y="-63.5" font-family="FreeSans" font-size="10.00">sys/stat.h</text>
</a>
</g>
</g>
<!-- Node2&#45;&gt;Node18 -->
<g id="edge16" class="edge">
<title>Node2&#45;&gt;Node18</title>
<path fill="none" stroke="midnightblue" d="M1755.12,-119.46C1851.79,-115.85 2078.04,-104.99 2277.28,-75.98"/>
<polygon fill="midnightblue" stroke="midnightblue" points="2277.97,-79.42 2287.35,-74.5 2276.94,-72.49 2277.97,-79.42"/>
</g>
<!-- Node19 -->
<g id="node18" class="node">
<title>Node19</title>
<g id="a_node18"><a xlink:title=" ">
<polygon fill="white" stroke="#bfbfbf" points="2369.5,-56.5 2369.5,-75.5 2423.5,-75.5 2423.5,-56.5 2369.5,-56.5"/>
<text text-anchor="middle" x="2396.5" y="-63.5" font-family="FreeSans" font-size="10.00">dirent.h</text>
</a>
</g>
</g>
<!-- Node2&#45;&gt;Node19 -->
<g id="edge17" class="edge">
<title>Node2&#45;&gt;Node19</title>
<path fill="none" stroke="midnightblue" d="M1755.35,-120.58C1862.19,-119.02 2128.34,-111.72 2359.54,-75.86"/>
<polygon fill="midnightblue" stroke="midnightblue" points="2360.14,-79.31 2369.48,-74.3 2359.06,-72.39 2360.14,-79.31"/>
</g>
<!-- Node20 -->
<g id="node19" class="node">
<title>Node20</title>
<g id="a_node19"><a xlink:title=" ">
<polygon fill="white" stroke="#bfbfbf" points="2441.5,-56.5 2441.5,-75.5 2507.5,-75.5 2507.5,-56.5 2441.5,-56.5"/>
<text text-anchor="middle" x="2474.5" y="-63.5" font-family="FreeSans" font-size="10.00">sys/wait.h</text>
</a>
</g>
</g>
<!-- Node2&#45;&gt;Node20 -->
<g id="edge18" class="edge">
<title>Node2&#45;&gt;Node20</title>
<path fill="none" stroke="midnightblue" d="M1755.25,-120.49C1870.13,-118.75 2171.11,-111.05 2431.1,-75.99"/>
<polygon fill="midnightblue" stroke="midnightblue" points="2431.67,-79.44 2441.11,-74.62 2430.73,-72.51 2431.67,-79.44"/>
</g>
<!-- Node21 -->
<g id="node20" class="node">
<title>Node21</title>
<g id="a_node20"><a xlink:title=" ">
<polygon fill="white" stroke="#bfbfbf" points="2525.5,-56.5 2525.5,-75.5 2571.5,-75.5 2571.5,-56.5 2525.5,-56.5"/>
<text text-anchor="middle" x="2548.5" y="-63.5" font-family="FreeSans" font-size="10.00">pwd.h</text>
</a>
</g>
</g>
<!-- Node2&#45;&gt;Node21 -->
<g id="edge19" class="edge">
<title>Node2&#45;&gt;Node21</title>
<path fill="none" stroke="midnightblue" d="M1755,-119.72C1902.1,-115.55 2349.59,-101.23 2515.19,-75.8"/>
<polygon fill="midnightblue" stroke="midnightblue" points="2515.9,-79.23 2525.21,-74.18 2514.79,-72.32 2515.9,-79.23"/>
</g>
<!-- Node22 -->
<g id="node21" class="node">
<title>Node22</title>
<g id="a_node21"><a xlink:href="magick-type_8h.html" target="_top" xlink:title=" ">
<polygon fill="white" stroke="black" points="1358.5,-56.5 1358.5,-75.5 1484.5,-75.5 1484.5,-56.5 1358.5,-56.5"/>
<text text-anchor="middle" x="1421.5" y="-63.5" font-family="FreeSans" font-size="10.00">magick/magick&#45;type.h</text>
</a>
</g>
</g>
<!-- Node2&#45;&gt;Node22 -->
<g id="edge20" class="edge">
<title>Node2&#45;&gt;Node22</title>
<path fill="none" stroke="midnightblue" d="M1662.18,-112.44C1611.87,-102.94 1530.66,-87.61 1476.69,-77.42"/>
<polygon fill="midnightblue" stroke="midnightblue" points="1477.08,-73.93 1466.61,-75.52 1475.78,-80.81 1477.08,-73.93"/>
</g>
<!-- Node23 -->
<g id="node22" class="node">
<title>Node23</title>
<g id="a_node22"><a xlink:title=" ">
<polygon fill="white" stroke="#bfbfbf" points="1272.5,-56.5 1272.5,-75.5 1340.5,-75.5 1340.5,-56.5 1272.5,-56.5"/>
<text text-anchor="middle" x="1306.5" y="-63.5" font-family="FreeSans" font-size="10.00">sys/time.h</text>
</a>
</g>
</g>
<!-- Node2&#45;&gt;Node23 -->
<g id="edge22" class="edge">
<title>Node2&#45;&gt;Node23</title>
<path fill="none" stroke="midnightblue" d="M1659.84,-116.25C1593.01,-109.33 1467.46,-95.32 1350.89,-76.12"/>
<polygon fill="midnightblue" stroke="midnightblue" points="1351.16,-72.61 1340.72,-74.42 1350.01,-79.52 1351.16,-72.61"/>
</g>
<!-- Node22&#45;&gt;Node3 -->
<g id="edge21" class="edge">
<title>Node22&#45;&gt;Node3</title>
<path fill="none" stroke="midnightblue" d="M1428.93,-56.08C1435.35,-48.38 1444.81,-37.03 1452.62,-27.65"/>
<polygon fill="midnightblue" stroke="midnightblue" points="1455.49,-29.67 1459.21,-19.75 1450.12,-25.19 1455.49,-29.67"/>
</g>
<!-- Node25 -->
<g id="node24" class="node">
<title>Node25</title>
<g id="a_node24"><a xlink:href="image_8h.html" target="_top" xlink:title=" ">
<polygon fill="white" stroke="red" points="773,-56.5 773,-75.5 868,-75.5 868,-56.5 773,-56.5"/>
<text text-anchor="middle" x="820.5" y="-63.5" font-family="FreeSans" font-size="10.00">magick/image.h</text>
</a>
</g>
</g>
<!-- Node24&#45;&gt;Node25 -->
<g id="edge24" class="edge">
<title>Node24&#45;&gt;Node25</title>
<path fill="none" stroke="midnightblue" d="M851.23,-112.08C843.63,-104.53 834.45,-93.49 827.88,-84.23"/>
<polygon fill="midnightblue" stroke="midnightblue" points="830.74,-82.21 822.34,-75.75 824.88,-86.04 830.74,-82.21"/>
</g>
<!-- Node48 -->
<g id="node28" class="node">
<title>Node48</title>
<g id="a_node28"><a xlink:href="stream_8h.html" target="_top" xlink:title=" ">
<polygon fill="white" stroke="black" points="753,-0.5 753,-19.5 852,-19.5 852,-0.5 753,-0.5"/>
<text text-anchor="middle" x="802.5" y="-7.5" font-family="FreeSans" font-size="10.00">magick/stream.h</text>
</a>
</g>
</g>
<!-- Node24&#45;&gt;Node48 -->
<g id="edge30" class="edge">
<title>Node24&#45;&gt;Node48</title>
<path fill="none" stroke="midnightblue" d="M868.93,-112.43C876.41,-99.42 887.85,-74.28 877.5,-56 869.15,-41.26 853.84,-30.82 839.21,-23.73"/>
<polygon fill="midnightblue" stroke="midnightblue" points="840.34,-20.4 829.78,-19.55 837.5,-26.8 840.34,-20.4"/>
</g>
<!-- Node25&#45;&gt;Node24 -->
<g id="edge25" class="edge">
<title>Node25&#45;&gt;Node24</title>
<path fill="none" stroke="midnightblue" d="M832.6,-75.75C840.18,-83.25 849.37,-94.27 855.98,-103.57"/>
<polygon fill="midnightblue" stroke="midnightblue" points="853.15,-105.64 861.57,-112.08 859,-101.8 853.15,-105.64"/>
</g>
<!-- Node25&#45;&gt;Node37 -->
<g id="edge26" class="edge">
<title>Node25&#45;&gt;Node37</title>
<path fill="none" stroke="midnightblue" d="M837.37,-56.32C854.21,-47.66 880.31,-34.24 899.74,-24.25"/>
<polygon fill="midnightblue" stroke="midnightblue" points="901.38,-27.34 908.67,-19.65 898.18,-21.12 901.38,-27.34"/>
</g>
<!-- Node25&#45;&gt;Node39 -->
<g id="edge27" class="edge">
<title>Node25&#45;&gt;Node39</title>
<path fill="none" stroke="midnightblue" d="M856.63,-56.44C896.15,-47.08 959.6,-32.06 1002.61,-21.87"/>
<polygon fill="midnightblue" stroke="midnightblue" points="1003.62,-25.23 1012.54,-19.52 1002,-18.42 1003.62,-25.23"/>
</g>
<!-- Node25&#45;&gt;Node31 -->
<g id="edge28" class="edge">
<title>Node25&#45;&gt;Node31</title>
<path fill="none" stroke="midnightblue" d="M772.71,-56.62C718.44,-47.11 629.85,-31.57 571.36,-21.32"/>
<polygon fill="midnightblue" stroke="midnightblue" points="571.62,-17.81 561.16,-19.53 570.41,-24.71 571.62,-17.81"/>
</g>
<!-- Node25&#45;&gt;Node48 -->
<g id="edge29" class="edge">
<title>Node25&#45;&gt;Node48</title>
<path fill="none" stroke="midnightblue" d="M817.53,-56.08C815.12,-48.85 811.64,-38.41 808.63,-29.4"/>
<polygon fill="midnightblue" stroke="midnightblue" points="811.9,-28.13 805.42,-19.75 805.26,-30.34 811.9,-28.13"/>
</g>
<!-- Node50&#45;&gt;Node25 -->
<g id="edge32" class="edge">
<title>Node50&#45;&gt;Node25</title>
<path fill="none" stroke="midnightblue" d="M683.86,-168.47C705.15,-160.85 735.28,-148.37 758.5,-132 777.92,-118.31 796.19,-97.89 807.79,-83.6"/>
<polygon fill="midnightblue" stroke="midnightblue" points="810.65,-85.62 814.11,-75.61 805.16,-81.28 810.65,-85.62"/>
</g>
<!-- Node50&#45;&gt;Node48 -->
<g id="edge33" class="edge">
<title>Node50&#45;&gt;Node48</title>
<path fill="none" stroke="midnightblue" d="M666.49,-168.24C675.54,-159.32 689.8,-144.99 701.5,-132 730.86,-99.4 736.35,-89.65 764.5,-56 772.47,-46.47 781.44,-35.85 788.66,-27.32"/>
<polygon fill="midnightblue" stroke="midnightblue" points="791.4,-29.5 795.19,-19.61 786.06,-24.97 791.4,-29.5"/>
</g>
<!-- Node50&#45;&gt;Node51 -->
<g id="edge34" class="edge">
<title>Node50&#45;&gt;Node51</title>
<path fill="none" stroke="midnightblue" d="M646.57,-168.32C636.33,-160.18 620.78,-147.84 608.5,-138.09"/>
<polygon fill="midnightblue" stroke="midnightblue" points="610.63,-135.31 600.62,-131.83 606.28,-140.79 610.63,-135.31"/>
</g>
<!-- Node51&#45;&gt;Node52 -->
<g id="edge35" class="edge">
<title>Node51&#45;&gt;Node52</title>
<path fill="none" stroke="midnightblue" d="M577.13,-112.32C565.34,-104.06 547.37,-91.45 533.36,-81.63"/>
<polygon fill="midnightblue" stroke="midnightblue" points="535.04,-78.53 524.84,-75.65 531.02,-84.26 535.04,-78.53"/>
</g>
<!-- Node51&#45;&gt;Node30 -->
<g id="edge38" class="edge">
<title>Node51&#45;&gt;Node30</title>
<path fill="none" stroke="midnightblue" d="M557.02,-112.44C521.78,-103.16 465.4,-88.31 426.74,-78.13"/>
<polygon fill="midnightblue" stroke="midnightblue" points="427.39,-74.68 416.83,-75.52 425.61,-81.45 427.39,-74.68"/>
</g>
<!-- Node52&#45;&gt;Node5 -->
<g id="edge36" class="edge">
<title>Node52&#45;&gt;Node5</title>
<path fill="none" stroke="midnightblue" d="M482.55,-56.44C449.87,-47.11 397.45,-32.13 361.8,-21.94"/>
<polygon fill="midnightblue" stroke="midnightblue" points="362.34,-18.46 351.76,-19.08 360.42,-25.19 362.34,-18.46"/>
</g>
<!-- Node52&#45;&gt;Node31 -->
<g id="edge37" class="edge">
<title>Node52&#45;&gt;Node31</title>
<path fill="none" stroke="midnightblue" d="M512.5,-56.08C512.5,-49.01 512.5,-38.86 512.5,-29.99"/>
<polygon fill="midnightblue" stroke="midnightblue" points="516,-29.75 512.5,-19.75 509,-29.75 516,-29.75"/>
</g>
<!-- Node30&#45;&gt;Node5 -->
<g id="edge39" class="edge">
<title>Node30&#45;&gt;Node5</title>
<path fill="none" stroke="midnightblue" d="M374.7,-56.32C365.68,-48.34 352.09,-36.31 341.18,-26.65"/>
<polygon fill="midnightblue" stroke="midnightblue" points="343.29,-23.84 333.48,-19.83 338.65,-29.08 343.29,-23.84"/>
</g>
<!-- Node30&#45;&gt;Node31 -->
<g id="edge40" class="edge">
<title>Node30&#45;&gt;Node31</title>
<path fill="none" stroke="midnightblue" d="M404.78,-56.44C425.85,-47.56 459.02,-33.56 482.99,-23.45"/>
<polygon fill="midnightblue" stroke="midnightblue" points="484.46,-26.63 492.31,-19.52 481.74,-20.18 484.46,-26.63"/>
</g>
<!-- Node55&#45;&gt;Node24 -->
<g id="edge42" class="edge">
<title>Node55&#45;&gt;Node24</title>
<path fill="none" stroke="midnightblue" d="M922.25,-168.32C911.7,-160.18 895.7,-147.84 883.06,-138.09"/>
<polygon fill="midnightblue" stroke="midnightblue" points="885.01,-135.17 874.95,-131.83 880.73,-140.71 885.01,-135.17"/>
</g>
<!-- Node57&#45;&gt;Node58 -->
<g id="edge48" class="edge">
<title>Node57&#45;&gt;Node58</title>
<path fill="none" stroke="midnightblue" d="M163.67,-168.08C163.02,-161.01 162.08,-150.86 161.26,-141.99"/>
<polygon fill="midnightblue" stroke="midnightblue" points="164.72,-141.39 160.31,-131.75 157.75,-142.03 164.72,-141.39"/>
</g>
<!-- Node57&#45;&gt;Node59 -->
<g id="edge51" class="edge">
<title>Node57&#45;&gt;Node59</title>
<path fill="none" stroke="midnightblue" d="M146.44,-168.44C127.93,-159.68 98.92,-145.94 77.64,-135.86"/>
<polygon fill="midnightblue" stroke="midnightblue" points="79.01,-132.63 68.48,-131.52 76.02,-138.96 79.01,-132.63"/>
</g>
<!-- Node57&#45;&gt;Node43 -->
<g id="edge54" class="edge">
<title>Node57&#45;&gt;Node43</title>
<path fill="none" stroke="midnightblue" d="M180.89,-168.32C197.17,-159.7 222.37,-146.36 241.22,-136.39"/>
<polygon fill="midnightblue" stroke="midnightblue" points="242.95,-139.43 250.15,-131.65 239.68,-133.24 242.95,-139.43"/>
</g>
<!-- Node58&#45;&gt;Node5 -->
<g id="edge49" class="edge">
<title>Node58&#45;&gt;Node5</title>
<path fill="none" stroke="midnightblue" d="M172.37,-112.37C200.51,-93.49 267.76,-48.38 302.27,-25.24"/>
<polygon fill="midnightblue" stroke="midnightblue" points="304.34,-28.07 310.69,-19.59 300.44,-22.26 304.34,-28.07"/>
</g>
<!-- Node58&#45;&gt;Node30 -->
<g id="edge50" class="edge">
<title>Node58&#45;&gt;Node30</title>
<path fill="none" stroke="midnightblue" d="M195.15,-112.44C234.16,-103.08 296.77,-88.06 339.22,-77.87"/>
<polygon fill="midnightblue" stroke="midnightblue" points="340.11,-81.25 349.01,-75.52 338.47,-74.45 340.11,-81.25"/>
</g>
<!-- Node59&#45;&gt;Node5 -->
<g id="edge52" class="edge">
<title>Node59&#45;&gt;Node5</title>
<path fill="none" stroke="midnightblue" d="M71.92,-112.37C120.06,-92.97 236.96,-45.87 292.81,-23.37"/>
<polygon fill="midnightblue" stroke="midnightblue" points="294.21,-26.58 302.18,-19.59 291.59,-20.08 294.21,-26.58"/>
</g>
<!-- Node59&#45;&gt;Node31 -->
<g id="edge53" class="edge">
<title>Node59&#45;&gt;Node31</title>
<path fill="none" stroke="midnightblue" d="M85.17,-112.47C136.22,-99.95 234.65,-75.89 318.5,-56 368.63,-44.11 426.14,-30.81 465.45,-21.78"/>
<polygon fill="midnightblue" stroke="midnightblue" points="466.32,-25.17 475.28,-19.52 464.75,-18.34 466.32,-25.17"/>
</g>
<!-- Node43&#45;&gt;Node5 -->
<g id="edge55" class="edge">
<title>Node43&#45;&gt;Node5</title>
<path fill="none" stroke="midnightblue" d="M270.97,-112.37C280.3,-94.38 301.97,-52.55 314.37,-28.63"/>
<polygon fill="midnightblue" stroke="midnightblue" points="317.55,-30.08 319.05,-19.59 311.34,-26.86 317.55,-30.08"/>
</g>
<!-- Node43&#45;&gt;Node12 -->
<g id="edge56" class="edge">
<title>Node43&#45;&gt;Node12</title>
<path fill="none" stroke="midnightblue" d="M315.54,-113.33C318.57,-112.87 321.58,-112.43 324.5,-112 432.45,-96.27 560.53,-79.28 620.43,-71.44"/>
<polygon fill="midnightblue" stroke="midnightblue" points="621,-74.89 630.46,-70.12 620.09,-67.95 621,-74.89"/>
</g>
<!-- Node43&#45;&gt;Node30 -->
<g id="edge57" class="edge">
<title>Node43&#45;&gt;Node30</title>
<path fill="none" stroke="midnightblue" d="M285.2,-112.44C304.44,-103.64 334.65,-89.81 356.7,-79.72"/>
<polygon fill="midnightblue" stroke="midnightblue" points="358.25,-82.86 365.89,-75.52 355.34,-76.5 358.25,-82.86"/>
</g>
<!-- Node62&#45;&gt;Node9 -->
<g id="edge65" class="edge">
<title>Node62&#45;&gt;Node9</title>
<path fill="none" stroke="midnightblue" d="M1210.13,-112.08C1213.11,-104.77 1217.43,-94.18 1221.12,-85.1"/>
<polygon fill="midnightblue" stroke="midnightblue" points="1224.4,-86.33 1224.93,-75.75 1217.92,-83.69 1224.4,-86.33"/>
</g>
<!-- Node62&#45;&gt;Node15 -->
<g id="edge66" class="edge">
<title>Node62&#45;&gt;Node15</title>
<path fill="none" stroke="midnightblue" d="M1198.24,-112.08C1191.04,-104.3 1180.39,-92.8 1171.65,-83.37"/>
<polygon fill="midnightblue" stroke="midnightblue" points="1173.97,-80.71 1164.6,-75.75 1168.83,-85.47 1173.97,-80.71"/>
</g>
<!-- Node64&#45;&gt;Node30 -->
<g id="edge70" class="edge">
<title>Node64&#45;&gt;Node30</title>
<path fill="none" stroke="midnightblue" d="M380.33,-112.08C380.98,-105.01 381.92,-94.86 382.74,-85.99"/>
<polygon fill="midnightblue" stroke="midnightblue" points="386.25,-86.03 383.69,-75.75 379.28,-85.39 386.25,-86.03"/>
</g>
<!-- Node66&#45;&gt;Node39 -->
<g id="edge75" class="edge">
<title>Node66&#45;&gt;Node39</title>
<path fill="none" stroke="midnightblue" d="M1030.07,-112.37C1033.3,-94.62 1040.74,-53.67 1045.12,-29.6"/>
<polygon fill="midnightblue" stroke="midnightblue" points="1048.59,-30.06 1046.94,-19.59 1041.71,-28.8 1048.59,-30.06"/>
</g>
<!-- Node71&#45;&gt;Node51 -->
<g id="edge81" class="edge">
<title>Node71&#45;&gt;Node51</title>
<path fill="none" stroke="midnightblue" d="M769.59,-168.44C732.65,-159.12 673.45,-144.18 633.08,-134"/>
<polygon fill="midnightblue" stroke="midnightblue" points="633.8,-130.57 623.25,-131.52 632.09,-137.36 633.8,-130.57"/>
</g>
<!-- Node71&#45;&gt;Node62 -->
<g id="edge80" class="edge">
<title>Node71&#45;&gt;Node62</title>
<path fill="none" stroke="midnightblue" d="M867.36,-168.44C941.97,-158.45 1064.82,-141.98 1140.39,-131.86"/>
<polygon fill="midnightblue" stroke="midnightblue" points="1141.28,-135.27 1150.73,-130.47 1140.35,-128.33 1141.28,-135.27"/>
</g>
</g>
</svg>
