<?xml version="1.0" encoding="UTF-8" standalone="no"?>
<!DOCTYPE svg PUBLIC "-//W3C//DTD SVG 1.1//EN"
 "http://www.w3.org/Graphics/SVG/1.1/DTD/svg11.dtd">
<!-- Generated by graphviz version 2.43.0 (0)
 -->
<!-- Title: cache&#45;private.h Pages: 1 -->
<svg width="1500pt" height="84pt"
 viewBox="0.00 0.00 1499.50 84.00" xmlns="http://www.w3.org/2000/svg" xmlns:xlink="http://www.w3.org/1999/xlink">
<g id="graph0" class="graph" transform="scale(1 1) rotate(0) translate(4 80)">
<title>cache&#45;private.h</title>
<polygon fill="white" stroke="transparent" points="-4,4 -4,-80 1495.5,-80 1495.5,4 -4,4"/>
<!-- Node1 -->
<g id="node1" class="node">
<title>Node1</title>
<g id="a_node1"><a xlink:title=" ">
<polygon fill="#bfbfbf" stroke="black" points="746,-56.5 746,-75.5 838,-75.5 838,-56.5 746,-56.5"/>
<text text-anchor="middle" x="792" y="-63.5" font-family="FreeSans" font-size="10.00">cache&#45;private.h</text>
</a>
</g>
</g>
<!-- Node2 -->
<g id="node2" class="node">
<title>Node2</title>
<g id="a_node2"><a xlink:href="accelerate_8c.html" target="_top" xlink:title=" ">
<polygon fill="white" stroke="black" points="0,-0.5 0,-19.5 76,-19.5 76,-0.5 0,-0.5"/>
<text text-anchor="middle" x="38" y="-7.5" font-family="FreeSans" font-size="10.00">accelerate.c</text>
</a>
</g>
</g>
<!-- Node1&#45;&gt;Node2 -->
<g id="edge1" class="edge">
<title>Node1&#45;&gt;Node2</title>
<path fill="none" stroke="midnightblue" d="M735.85,-63.82C615.91,-60.78 325.96,-50.62 85,-20 82.12,-19.63 79.14,-19.2 76.16,-18.72"/>
<polygon fill="midnightblue" stroke="midnightblue" points="735.82,-67.32 745.9,-64.07 735.99,-60.32 735.82,-67.32"/>
</g>
<!-- Node3 -->
<g id="node3" class="node">
<title>Node3</title>
<g id="a_node3"><a xlink:href="annotate_8c.html" target="_top" xlink:title=" ">
<polygon fill="white" stroke="black" points="94,-0.5 94,-19.5 162,-19.5 162,-0.5 94,-0.5"/>
<text text-anchor="middle" x="128" y="-7.5" font-family="FreeSans" font-size="10.00">annotate.c</text>
</a>
</g>
</g>
<!-- Node1&#45;&gt;Node3 -->
<g id="edge2" class="edge">
<title>Node1&#45;&gt;Node3</title>
<path fill="none" stroke="midnightblue" d="M735.67,-63.44C626.33,-59.87 377.89,-49.01 171,-20 168.13,-19.6 165.16,-19.12 162.19,-18.59"/>
<polygon fill="midnightblue" stroke="midnightblue" points="735.71,-66.95 745.81,-63.77 735.93,-59.95 735.71,-66.95"/>
</g>
<!-- Node4 -->
<g id="node4" class="node">
<title>Node4</title>
<g id="a_node4"><a xlink:href="attribute_8c.html" target="_top" xlink:title=" ">
<polygon fill="white" stroke="black" points="180.5,-0.5 180.5,-19.5 247.5,-19.5 247.5,-0.5 180.5,-0.5"/>
<text text-anchor="middle" x="214" y="-7.5" font-family="FreeSans" font-size="10.00">attribute.c</text>
</a>
</g>
</g>
<!-- Node1&#45;&gt;Node4 -->
<g id="edge3" class="edge">
<title>Node1&#45;&gt;Node4</title>
<path fill="none" stroke="midnightblue" d="M735.62,-62.63C637.64,-57.99 429.79,-45.81 256,-20 253.34,-19.61 250.61,-19.14 247.86,-18.64"/>
<polygon fill="midnightblue" stroke="midnightblue" points="735.73,-66.14 745.89,-63.11 736.06,-59.15 735.73,-66.14"/>
</g>
<!-- Node5 -->
<g id="node5" class="node">
<title>Node5</title>
<g id="a_node5"><a xlink:href="cache-view_8c.html" target="_top" xlink:title=" ">
<polygon fill="white" stroke="black" points="265.5,-0.5 265.5,-19.5 344.5,-19.5 344.5,-0.5 265.5,-0.5"/>
<text text-anchor="middle" x="305" y="-7.5" font-family="FreeSans" font-size="10.00">cache&#45;view.c</text>
</a>
</g>
</g>
<!-- Node1&#45;&gt;Node5 -->
<g id="edge4" class="edge">
<title>Node1&#45;&gt;Node5</title>
<path fill="none" stroke="midnightblue" d="M735.65,-60.73C651.92,-54.05 489.84,-39.81 353,-20 350.23,-19.6 347.38,-19.15 344.51,-18.68"/>
<polygon fill="midnightblue" stroke="midnightblue" points="735.46,-64.23 745.71,-61.53 736.01,-57.25 735.46,-64.23"/>
</g>
<!-- Node6 -->
<g id="node6" class="node">
<title>Node6</title>
<g id="a_node6"><a xlink:href="cache_8c.html" target="_top" xlink:title=" ">
<polygon fill="white" stroke="black" points="362.5,-0.5 362.5,-19.5 415.5,-19.5 415.5,-0.5 362.5,-0.5"/>
<text text-anchor="middle" x="389" y="-7.5" font-family="FreeSans" font-size="10.00">cache.c</text>
</a>
</g>
</g>
<!-- Node1&#45;&gt;Node6 -->
<g id="edge5" class="edge">
<title>Node1&#45;&gt;Node6</title>
<path fill="none" stroke="midnightblue" d="M735.53,-60.39C663,-53.95 533.41,-40.67 424,-20 421.29,-19.49 418.47,-18.89 415.67,-18.24"/>
<polygon fill="midnightblue" stroke="midnightblue" points="735.54,-63.91 745.81,-61.29 736.15,-56.93 735.54,-63.91"/>
</g>
<!-- Node7 -->
<g id="node7" class="node">
<title>Node7</title>
<g id="a_node7"><a xlink:href="channel_8c.html" target="_top" xlink:title=" ">
<polygon fill="white" stroke="black" points="433.5,-0.5 433.5,-19.5 496.5,-19.5 496.5,-0.5 433.5,-0.5"/>
<text text-anchor="middle" x="465" y="-7.5" font-family="FreeSans" font-size="10.00">channel.c</text>
</a>
</g>
</g>
<!-- Node1&#45;&gt;Node7 -->
<g id="edge6" class="edge">
<title>Node1&#45;&gt;Node7</title>
<path fill="none" stroke="midnightblue" d="M735.55,-57.27C677.53,-49.06 584.69,-35.19 505,-20 502.34,-19.49 499.59,-18.94 496.84,-18.36"/>
<polygon fill="midnightblue" stroke="midnightblue" points="735.22,-60.76 745.61,-58.68 736.2,-53.82 735.22,-60.76"/>
</g>
<!-- Node8 -->
<g id="node8" class="node">
<title>Node8</title>
<g id="a_node8"><a xlink:href="colorspace_8c.html" target="_top" xlink:title=" ">
<polygon fill="white" stroke="black" points="514.5,-0.5 514.5,-19.5 591.5,-19.5 591.5,-0.5 514.5,-0.5"/>
<text text-anchor="middle" x="553" y="-7.5" font-family="FreeSans" font-size="10.00">colorspace.c</text>
</a>
</g>
</g>
<!-- Node1&#45;&gt;Node8 -->
<g id="edge7" class="edge">
<title>Node1&#45;&gt;Node8</title>
<path fill="none" stroke="midnightblue" d="M744.28,-54.22C699.11,-44.01 632.23,-28.9 590.69,-19.52"/>
<polygon fill="midnightblue" stroke="midnightblue" points="743.6,-57.65 754.13,-56.44 745.15,-50.83 743.6,-57.65"/>
</g>
<!-- Node9 -->
<g id="node9" class="node">
<title>Node9</title>
<g id="a_node9"><a xlink:href="distribute-cache_8c.html" target="_top" xlink:title=" ">
<polygon fill="white" stroke="black" points="610,-0.5 610,-19.5 714,-19.5 714,-0.5 610,-0.5"/>
<text text-anchor="middle" x="662" y="-7.5" font-family="FreeSans" font-size="10.00">distribute&#45;cache.c</text>
</a>
</g>
</g>
<!-- Node1&#45;&gt;Node9 -->
<g id="edge8" class="edge">
<title>Node1&#45;&gt;Node9</title>
<path fill="none" stroke="midnightblue" d="M761.91,-52.5C737.54,-42.38 703.86,-28.39 682.5,-19.52"/>
<polygon fill="midnightblue" stroke="midnightblue" points="760.82,-55.84 771.4,-56.44 763.51,-49.38 760.82,-55.84"/>
</g>
<!-- Node10 -->
<g id="node10" class="node">
<title>Node10</title>
<g id="a_node10"><a xlink:href="draw_8c.html" target="_top" xlink:title=" ">
<polygon fill="white" stroke="black" points="732,-0.5 732,-19.5 780,-19.5 780,-0.5 732,-0.5"/>
<text text-anchor="middle" x="756" y="-7.5" font-family="FreeSans" font-size="10.00">draw.c</text>
</a>
</g>
</g>
<!-- Node1&#45;&gt;Node10 -->
<g id="edge9" class="edge">
<title>Node1&#45;&gt;Node10</title>
<path fill="none" stroke="midnightblue" d="M780.38,-47.57C774.18,-38.27 766.83,-27.25 761.83,-19.75"/>
<polygon fill="midnightblue" stroke="midnightblue" points="777.6,-49.7 786.06,-56.08 783.42,-45.82 777.6,-49.7"/>
</g>
<!-- Node11 -->
<g id="node11" class="node">
<title>Node11</title>
<g id="a_node11"><a xlink:href="feature_8c.html" target="_top" xlink:title=" ">
<polygon fill="white" stroke="black" points="798,-0.5 798,-19.5 858,-19.5 858,-0.5 798,-0.5"/>
<text text-anchor="middle" x="828" y="-7.5" font-family="FreeSans" font-size="10.00">feature.c</text>
</a>
</g>
</g>
<!-- Node1&#45;&gt;Node11 -->
<g id="edge10" class="edge">
<title>Node1&#45;&gt;Node11</title>
<path fill="none" stroke="midnightblue" d="M803.62,-47.57C809.82,-38.27 817.17,-27.25 822.17,-19.75"/>
<polygon fill="midnightblue" stroke="midnightblue" points="800.58,-45.82 797.94,-56.08 806.4,-49.7 800.58,-45.82"/>
</g>
<!-- Node12 -->
<g id="node12" class="node">
<title>Node12</title>
<g id="a_node12"><a xlink:href="image_8c.html" target="_top" xlink:title=" ">
<polygon fill="white" stroke="black" points="876,-0.5 876,-19.5 932,-19.5 932,-0.5 876,-0.5"/>
<text text-anchor="middle" x="904" y="-7.5" font-family="FreeSans" font-size="10.00">image.c</text>
</a>
</g>
</g>
<!-- Node1&#45;&gt;Node12 -->
<g id="edge11" class="edge">
<title>Node1&#45;&gt;Node12</title>
<path fill="none" stroke="midnightblue" d="M819.25,-51.86C840.02,-41.85 868.02,-28.35 886.05,-19.65"/>
<polygon fill="midnightblue" stroke="midnightblue" points="817.48,-48.83 809.99,-56.32 820.52,-55.13 817.48,-48.83"/>
</g>
<!-- Node13 -->
<g id="node13" class="node">
<title>Node13</title>
<g id="a_node13"><a xlink:href="opencl_8c.html" target="_top" xlink:title=" ">
<polygon fill="white" stroke="black" points="950.5,-0.5 950.5,-19.5 1007.5,-19.5 1007.5,-0.5 950.5,-0.5"/>
<text text-anchor="middle" x="979" y="-7.5" font-family="FreeSans" font-size="10.00">opencl.c</text>
</a>
</g>
</g>
<!-- Node1&#45;&gt;Node13 -->
<g id="edge12" class="edge">
<title>Node1&#45;&gt;Node13</title>
<path fill="none" stroke="midnightblue" d="M831.68,-53.54C867.3,-43.26 918.71,-28.41 950.43,-19.25"/>
<polygon fill="midnightblue" stroke="midnightblue" points="830.27,-50.31 821.63,-56.44 832.21,-57.03 830.27,-50.31"/>
</g>
<!-- Node14 -->
<g id="node14" class="node">
<title>Node14</title>
<g id="a_node14"><a xlink:href="property_8c.html" target="_top" xlink:title=" ">
<polygon fill="white" stroke="black" points="1025.5,-0.5 1025.5,-19.5 1090.5,-19.5 1090.5,-0.5 1025.5,-0.5"/>
<text text-anchor="middle" x="1058" y="-7.5" font-family="FreeSans" font-size="10.00">property.c</text>
</a>
</g>
</g>
<!-- Node1&#45;&gt;Node14 -->
<g id="edge13" class="edge">
<title>Node1&#45;&gt;Node14</title>
<path fill="none" stroke="midnightblue" d="M845.99,-54.5C891.61,-45.55 958.64,-32.24 1017,-20 1019.71,-19.43 1022.52,-18.83 1025.34,-18.23"/>
<polygon fill="midnightblue" stroke="midnightblue" points="845.17,-51.09 836.03,-56.45 846.51,-57.96 845.17,-51.09"/>
</g>
<!-- Node15 -->
<g id="node15" class="node">
<title>Node15</title>
<g id="a_node15"><a xlink:href="quantum_8c.html" target="_top" xlink:title=" ">
<polygon fill="white" stroke="black" points="1109,-0.5 1109,-19.5 1177,-19.5 1177,-0.5 1109,-0.5"/>
<text text-anchor="middle" x="1143" y="-7.5" font-family="FreeSans" font-size="10.00">quantum.c</text>
</a>
</g>
</g>
<!-- Node1&#45;&gt;Node15 -->
<g id="edge14" class="edge">
<title>Node1&#45;&gt;Node15</title>
<path fill="none" stroke="midnightblue" d="M848,-57.87C909.85,-49.74 1012.3,-35.57 1100,-20 1102.85,-19.49 1105.81,-18.94 1108.77,-18.36"/>
<polygon fill="midnightblue" stroke="midnightblue" points="847.52,-54.4 838.06,-59.17 848.43,-61.34 847.52,-54.4"/>
</g>
<!-- Node16 -->
<g id="node16" class="node">
<title>Node16</title>
<g id="a_node16"><a xlink:href="resource_8c.html" target="_top" xlink:title=" ">
<polygon fill="white" stroke="black" points="1195.5,-0.5 1195.5,-19.5 1262.5,-19.5 1262.5,-0.5 1195.5,-0.5"/>
<text text-anchor="middle" x="1229" y="-7.5" font-family="FreeSans" font-size="10.00">resource.c</text>
</a>
</g>
</g>
<!-- Node1&#45;&gt;Node16 -->
<g id="edge15" class="edge">
<title>Node1&#45;&gt;Node16</title>
<path fill="none" stroke="midnightblue" d="M848.68,-60.19C925.44,-53.29 1066.56,-39.28 1186,-20 1189.01,-19.51 1192.13,-18.96 1195.25,-18.37"/>
<polygon fill="midnightblue" stroke="midnightblue" points="847.94,-56.74 838.29,-61.11 848.56,-63.71 847.94,-56.74"/>
</g>
<!-- Node17 -->
<g id="node17" class="node">
<title>Node17</title>
<g id="a_node17"><a xlink:href="shear_8c.html" target="_top" xlink:title=" ">
<polygon fill="white" stroke="black" points="1280.5,-0.5 1280.5,-19.5 1331.5,-19.5 1331.5,-0.5 1280.5,-0.5"/>
<text text-anchor="middle" x="1306" y="-7.5" font-family="FreeSans" font-size="10.00">shear.c</text>
</a>
</g>
</g>
<!-- Node1&#45;&gt;Node17 -->
<g id="edge16" class="edge">
<title>Node1&#45;&gt;Node17</title>
<path fill="none" stroke="midnightblue" d="M848.26,-62.74C938.34,-58.45 1120.21,-47.01 1272,-20 1274.77,-19.51 1277.63,-18.9 1280.48,-18.24"/>
<polygon fill="midnightblue" stroke="midnightblue" points="847.83,-59.26 838.01,-63.22 848.16,-66.25 847.83,-59.26"/>
</g>
<!-- Node18 -->
<g id="node18" class="node">
<title>Node18</title>
<g id="a_node18"><a xlink:href="statistic_8c.html" target="_top" xlink:title=" ">
<polygon fill="white" stroke="black" points="1350,-0.5 1350,-19.5 1414,-19.5 1414,-0.5 1350,-0.5"/>
<text text-anchor="middle" x="1382" y="-7.5" font-family="FreeSans" font-size="10.00">statistic.c</text>
</a>
</g>
</g>
<!-- Node1&#45;&gt;Node18 -->
<g id="edge17" class="edge">
<title>Node1&#45;&gt;Node18</title>
<path fill="none" stroke="midnightblue" d="M848.31,-62.88C948.07,-58.57 1162.2,-46.83 1341,-20 1343.88,-19.57 1346.87,-19.05 1349.85,-18.49"/>
<polygon fill="midnightblue" stroke="midnightblue" points="847.99,-59.39 838.15,-63.31 848.29,-66.39 847.99,-59.39"/>
</g>
<!-- Node19 -->
<g id="node19" class="node">
<title>Node19</title>
<g id="a_node19"><a xlink:href="stream_8c.html" target="_top" xlink:title=" ">
<polygon fill="white" stroke="black" points="1432.5,-0.5 1432.5,-19.5 1491.5,-19.5 1491.5,-0.5 1432.5,-0.5"/>
<text text-anchor="middle" x="1462" y="-7.5" font-family="FreeSans" font-size="10.00">stream.c</text>
</a>
</g>
</g>
<!-- Node1&#45;&gt;Node19 -->
<g id="edge18" class="edge">
<title>Node1&#45;&gt;Node19</title>
<path fill="none" stroke="midnightblue" d="M848.46,-63.91C959.22,-61.14 1212.57,-51.59 1423,-20 1426.02,-19.55 1429.16,-18.98 1432.28,-18.36"/>
<polygon fill="midnightblue" stroke="midnightblue" points="848.1,-60.42 838.19,-64.16 848.27,-67.42 848.1,-60.42"/>
</g>
</g>
</svg>
