<?xml version="1.0" encoding="UTF-8" standalone="no"?>
<!DOCTYPE svg PUBLIC "-//W3C//DTD SVG 1.1//EN"
 "http://www.w3.org/Graphics/SVG/1.1/DTD/svg11.dtd">
<!-- Generated by graphviz version 2.43.0 (0)
 -->
<!-- Title: cache&#45;private.h Pages: 1 -->
<svg width="3317pt" height="476pt"
 viewBox="0.00 0.00 3317.00 476.00" xmlns="http://www.w3.org/2000/svg" xmlns:xlink="http://www.w3.org/1999/xlink">
<g id="graph0" class="graph" transform="scale(1 1) rotate(0) translate(4 472)">
<title>cache&#45;private.h</title>
<polygon fill="white" stroke="transparent" points="-4,4 -4,-472 3313,-472 3313,4 -4,4"/>
<!-- Node1 -->
<g id="node1" class="node">
<title>Node1</title>
<g id="a_node1"><a xlink:title=" ">
<polygon fill="#bfbfbf" stroke="black" points="1590.5,-448.5 1590.5,-467.5 1682.5,-467.5 1682.5,-448.5 1590.5,-448.5"/>
<text text-anchor="middle" x="1636.5" y="-455.5" font-family="FreeSans" font-size="10.00">cache&#45;private.h</text>
</a>
</g>
</g>
<!-- Node2 -->
<g id="node2" class="node">
<title>Node2</title>
<g id="a_node2"><a xlink:title=" ">
<polygon fill="white" stroke="#bfbfbf" points="1498.5,-56.5 1498.5,-75.5 1546.5,-75.5 1546.5,-56.5 1498.5,-56.5"/>
<text text-anchor="middle" x="1522.5" y="-63.5" font-family="FreeSans" font-size="10.00">time.h</text>
</a>
</g>
</g>
<!-- Node1&#45;&gt;Node2 -->
<g id="edge1" class="edge">
<title>Node1&#45;&gt;Node2</title>
<path fill="none" stroke="midnightblue" d="M1606.6,-448.45C1565.21,-434.56 1495.5,-402.89 1495.5,-347 1495.5,-347 1495.5,-347 1495.5,-177 1495.5,-143.86 1507.2,-106.68 1515.2,-85.14"/>
<polygon fill="midnightblue" stroke="midnightblue" points="1518.52,-86.25 1518.86,-75.66 1511.99,-83.73 1518.52,-86.25"/>
</g>
<!-- Node3 -->
<g id="node3" class="node">
<title>Node3</title>
<g id="a_node3"><a xlink:href="cache_8h.html" target="_top" xlink:title=" ">
<polygon fill="white" stroke="black" points="1765,-336.5 1765,-355.5 1858,-355.5 1858,-336.5 1765,-336.5"/>
<text text-anchor="middle" x="1811.5" y="-343.5" font-family="FreeSans" font-size="10.00">magick/cache.h</text>
</a>
</g>
</g>
<!-- Node1&#45;&gt;Node3 -->
<g id="edge2" class="edge">
<title>Node1&#45;&gt;Node3</title>
<path fill="none" stroke="midnightblue" d="M1668.81,-448.43C1692.71,-441.13 1725.33,-429.09 1750.5,-412 1770.01,-398.75 1787.9,-378.25 1799.2,-363.82"/>
<polygon fill="midnightblue" stroke="midnightblue" points="1802.07,-365.82 1805.33,-355.74 1796.5,-361.59 1802.07,-365.82"/>
</g>
<!-- Node12 -->
<g id="node11" class="node">
<title>Node12</title>
<g id="a_node11"><a xlink:href="semaphore_8h.html" target="_top" xlink:title=" ">
<polygon fill="white" stroke="black" points="1860,-0.5 1860,-19.5 1979,-19.5 1979,-0.5 1860,-0.5"/>
<text text-anchor="middle" x="1919.5" y="-7.5" font-family="FreeSans" font-size="10.00">magick/semaphore.h</text>
</a>
</g>
</g>
<!-- Node1&#45;&gt;Node12 -->
<g id="edge67" class="edge">
<title>Node1&#45;&gt;Node12</title>
<path fill="none" stroke="midnightblue" d="M1653.46,-448.36C1681.99,-432.49 1736.5,-395.78 1736.5,-347 1736.5,-347 1736.5,-347 1736.5,-233 1736.5,-134.22 1845.7,-55.58 1895.39,-24.91"/>
<polygon fill="midnightblue" stroke="midnightblue" points="1897.46,-27.75 1904.21,-19.58 1893.84,-21.75 1897.46,-27.75"/>
</g>
<!-- Node31 -->
<g id="node24" class="node">
<title>Node31</title>
<g id="a_node24"><a xlink:href="distribute-cache_8h.html" target="_top" xlink:title=" ">
<polygon fill="white" stroke="black" points="1565,-280.5 1565,-299.5 1708,-299.5 1708,-280.5 1565,-280.5"/>
<text text-anchor="middle" x="1636.5" y="-287.5" font-family="FreeSans" font-size="10.00">magick/distribute&#45;cache.h</text>
</a>
</g>
</g>
<!-- Node1&#45;&gt;Node31 -->
<g id="edge34" class="edge">
<title>Node1&#45;&gt;Node31</title>
<path fill="none" stroke="midnightblue" d="M1636.5,-448.08C1636.5,-421.95 1636.5,-345.21 1636.5,-309.58"/>
<polygon fill="midnightblue" stroke="midnightblue" points="1640,-309.57 1636.5,-299.57 1633,-309.57 1640,-309.57"/>
</g>
<!-- Node32 -->
<g id="node25" class="node">
<title>Node32</title>
<g id="a_node25"><a xlink:href="opencl-private_8h.html" target="_top" xlink:title=" ">
<polygon fill="white" stroke="black" points="825,-168.5 825,-187.5 960,-187.5 960,-168.5 825,-168.5"/>
<text text-anchor="middle" x="892.5" y="-175.5" font-family="FreeSans" font-size="10.00">magick/opencl&#45;private.h</text>
</a>
</g>
</g>
<!-- Node1&#45;&gt;Node32 -->
<g id="edge36" class="edge">
<title>Node1&#45;&gt;Node32</title>
<path fill="none" stroke="midnightblue" d="M1590.19,-455.73C1473.28,-451.29 1175.5,-431.65 1175.5,-347 1175.5,-347 1175.5,-347 1175.5,-289 1175.5,-241.31 1034.1,-206.08 951.2,-189.52"/>
<polygon fill="midnightblue" stroke="midnightblue" points="951.64,-186.04 941.15,-187.55 950.29,-192.91 951.64,-186.04"/>
</g>
<!-- Node54 -->
<g id="node46" class="node">
<title>Node54</title>
<g id="a_node46"><a xlink:href="random___8h.html" target="_top" xlink:title=" ">
<polygon fill="white" stroke="black" points="1524,-224.5 1524,-243.5 1631,-243.5 1631,-224.5 1524,-224.5"/>
<text text-anchor="middle" x="1577.5" y="-231.5" font-family="FreeSans" font-size="10.00">magick/random_.h</text>
</a>
</g>
</g>
<!-- Node1&#45;&gt;Node54 -->
<g id="edge60" class="edge">
<title>Node1&#45;&gt;Node54</title>
<path fill="none" stroke="midnightblue" d="M1630.22,-448.38C1614.05,-425.6 1571.21,-361.28 1556.5,-300 1552.57,-283.64 1559.44,-265.46 1566.35,-252.49"/>
<polygon fill="midnightblue" stroke="midnightblue" points="1569.46,-254.11 1571.47,-243.71 1563.41,-250.59 1569.46,-254.11"/>
</g>
<!-- Node55 -->
<g id="node47" class="node">
<title>Node55</title>
<g id="a_node47"><a xlink:href="thread-private_8h.html" target="_top" xlink:title=" ">
<polygon fill="white" stroke="black" points="1876.5,-392.5 1876.5,-411.5 2010.5,-411.5 2010.5,-392.5 1876.5,-392.5"/>
<text text-anchor="middle" x="1943.5" y="-399.5" font-family="FreeSans" font-size="10.00">magick/thread&#45;private.h</text>
</a>
</g>
</g>
<!-- Node1&#45;&gt;Node55 -->
<g id="edge62" class="edge">
<title>Node1&#45;&gt;Node55</title>
<path fill="none" stroke="midnightblue" d="M1682.79,-448.86C1736.87,-439.35 1826.4,-423.6 1885.17,-413.26"/>
<polygon fill="midnightblue" stroke="midnightblue" points="1885.81,-416.7 1895.05,-411.52 1884.6,-409.81 1885.81,-416.7"/>
</g>
<!-- Node4 -->
<g id="node4" class="node">
<title>Node4</title>
<g id="a_node4"><a xlink:href="blob_8h.html" target="_top" xlink:title=" ">
<polygon fill="white" stroke="black" points="2514.5,-280.5 2514.5,-299.5 2600.5,-299.5 2600.5,-280.5 2514.5,-280.5"/>
<text text-anchor="middle" x="2557.5" y="-287.5" font-family="FreeSans" font-size="10.00">magick/blob.h</text>
</a>
</g>
</g>
<!-- Node3&#45;&gt;Node4 -->
<g id="edge3" class="edge">
<title>Node3&#45;&gt;Node4</title>
<path fill="none" stroke="midnightblue" d="M1858.21,-337.16C1861.35,-336.73 1864.47,-336.34 1867.5,-336 2104.01,-309.34 2388.05,-296.98 2504.14,-292.77"/>
<polygon fill="midnightblue" stroke="midnightblue" points="2504.31,-296.26 2514.18,-292.41 2504.06,-289.27 2504.31,-296.26"/>
</g>
<!-- Node5 -->
<g id="node5" class="node">
<title>Node5</title>
<g id="a_node5"><a xlink:href="image_8h.html" target="_top" xlink:title=" ">
<polygon fill="white" stroke="red" points="2510,-224.5 2510,-243.5 2605,-243.5 2605,-224.5 2510,-224.5"/>
<text text-anchor="middle" x="2557.5" y="-231.5" font-family="FreeSans" font-size="10.00">magick/image.h</text>
</a>
</g>
</g>
<!-- Node4&#45;&gt;Node5 -->
<g id="edge4" class="edge">
<title>Node4&#45;&gt;Node5</title>
<path fill="none" stroke="midnightblue" d="M2552.33,-280.08C2550.82,-272.93 2550.39,-262.64 2551.04,-253.69"/>
<polygon fill="midnightblue" stroke="midnightblue" points="2554.52,-254.13 2552.37,-243.75 2547.58,-253.2 2554.52,-254.13"/>
</g>
<!-- Node29 -->
<g id="node23" class="node">
<title>Node29</title>
<g id="a_node23"><a xlink:href="stream_8h.html" target="_top" xlink:title=" ">
<polygon fill="white" stroke="black" points="3210,-168.5 3210,-187.5 3309,-187.5 3309,-168.5 3210,-168.5"/>
<text text-anchor="middle" x="3259.5" y="-175.5" font-family="FreeSans" font-size="10.00">magick/stream.h</text>
</a>
</g>
</g>
<!-- Node4&#45;&gt;Node29 -->
<g id="edge33" class="edge">
<title>Node4&#45;&gt;Node29</title>
<path fill="none" stroke="midnightblue" d="M2600.62,-282.24C2721.1,-263.36 3061.51,-210.02 3199.89,-188.34"/>
<polygon fill="midnightblue" stroke="midnightblue" points="3200.56,-191.78 3209.9,-186.77 3199.48,-184.86 3200.56,-191.78"/>
</g>
<!-- Node5&#45;&gt;Node4 -->
<g id="edge11" class="edge">
<title>Node5&#45;&gt;Node4</title>
<path fill="none" stroke="midnightblue" d="M2562.63,-243.75C2564.16,-250.86 2564.6,-261.14 2563.97,-270.1"/>
<polygon fill="midnightblue" stroke="midnightblue" points="2560.49,-269.71 2562.67,-280.08 2567.43,-270.62 2560.49,-269.71"/>
</g>
<!-- Node6 -->
<g id="node6" class="node">
<title>Node6</title>
<g id="a_node6"><a xlink:href="color_8h.html" target="_top" xlink:title=" ">
<polygon fill="white" stroke="black" points="2477.5,-168.5 2477.5,-187.5 2565.5,-187.5 2565.5,-168.5 2477.5,-168.5"/>
<text text-anchor="middle" x="2521.5" y="-175.5" font-family="FreeSans" font-size="10.00">magick/color.h</text>
</a>
</g>
</g>
<!-- Node5&#45;&gt;Node6 -->
<g id="edge5" class="edge">
<title>Node5&#45;&gt;Node6</title>
<path fill="none" stroke="midnightblue" d="M2551.56,-224.08C2546.52,-216.53 2539.16,-205.49 2532.99,-196.23"/>
<polygon fill="midnightblue" stroke="midnightblue" points="2535.79,-194.13 2527.33,-187.75 2529.97,-198.01 2535.79,-194.13"/>
</g>
<!-- Node7 -->
<g id="node7" class="node">
<title>Node7</title>
<g id="a_node7"><a xlink:href="pixel_8h.html" target="_top" xlink:title=" ">
<polygon fill="white" stroke="red" points="2593.5,-112.5 2593.5,-131.5 2681.5,-131.5 2681.5,-112.5 2593.5,-112.5"/>
<text text-anchor="middle" x="2637.5" y="-119.5" font-family="FreeSans" font-size="10.00">magick/pixel.h</text>
</a>
</g>
</g>
<!-- Node5&#45;&gt;Node7 -->
<g id="edge22" class="edge">
<title>Node5&#45;&gt;Node7</title>
<path fill="none" stroke="midnightblue" d="M2563.78,-224.37C2576.98,-206.22 2607.83,-163.8 2625.14,-139.99"/>
<polygon fill="midnightblue" stroke="midnightblue" points="2628.2,-141.74 2631.25,-131.59 2622.54,-137.62 2628.2,-141.74"/>
</g>
<!-- Node8 -->
<g id="node8" class="node">
<title>Node8</title>
<g id="a_node8"><a xlink:href="colorspace_8h.html" target="_top" xlink:title=" ">
<polygon fill="white" stroke="black" points="2643,-56.5 2643,-75.5 2760,-75.5 2760,-56.5 2643,-56.5"/>
<text text-anchor="middle" x="2701.5" y="-63.5" font-family="FreeSans" font-size="10.00">magick/colorspace.h</text>
</a>
</g>
</g>
<!-- Node5&#45;&gt;Node8 -->
<g id="edge12" class="edge">
<title>Node5&#45;&gt;Node8</title>
<path fill="none" stroke="midnightblue" d="M2605.25,-228.57C2656.41,-222.72 2732.69,-210.44 2750.5,-188 2776.2,-155.62 2740.41,-107.96 2717.7,-83.23"/>
<polygon fill="midnightblue" stroke="midnightblue" points="2720.04,-80.61 2710.61,-75.78 2714.97,-85.43 2720.04,-80.61"/>
</g>
<!-- Node5&#45;&gt;Node12 -->
<g id="edge31" class="edge">
<title>Node5&#45;&gt;Node12</title>
<path fill="none" stroke="midnightblue" d="M2605.14,-229.62C2660.9,-224.55 2748.24,-212.8 2768.5,-188 2805.61,-142.56 2809.87,-98.57 2769.5,-56 2742.79,-27.84 2187.42,-15.59 1989.11,-12.11"/>
<polygon fill="midnightblue" stroke="midnightblue" points="1989.15,-8.61 1979.09,-11.93 1989.03,-15.6 1989.15,-8.61"/>
</g>
<!-- Node13 -->
<g id="node12" class="node">
<title>Node13</title>
<g id="a_node12"><a xlink:href="cache-view_8h.html" target="_top" xlink:title=" ">
<polygon fill="white" stroke="black" points="2622,-168.5 2622,-187.5 2741,-187.5 2741,-168.5 2622,-168.5"/>
<text text-anchor="middle" x="2681.5" y="-175.5" font-family="FreeSans" font-size="10.00">magick/cache&#45;view.h</text>
</a>
</g>
</g>
<!-- Node5&#45;&gt;Node13 -->
<g id="edge13" class="edge">
<title>Node5&#45;&gt;Node13</title>
<path fill="none" stroke="midnightblue" d="M2577.15,-224.44C2597.46,-215.6 2629.4,-201.69 2652.6,-191.59"/>
<polygon fill="midnightblue" stroke="midnightblue" points="2654.17,-194.72 2661.94,-187.52 2651.38,-188.3 2654.17,-194.72"/>
</g>
<!-- Node14 -->
<g id="node13" class="node">
<title>Node14</title>
<g id="a_node13"><a xlink:href="composite_8h.html" target="_top" xlink:title=" ">
<polygon fill="white" stroke="black" points="2835.5,-168.5 2835.5,-187.5 2951.5,-187.5 2951.5,-168.5 2835.5,-168.5"/>
<text text-anchor="middle" x="2893.5" y="-175.5" font-family="FreeSans" font-size="10.00">magick/composite.h</text>
</a>
</g>
</g>
<!-- Node5&#45;&gt;Node14 -->
<g id="edge15" class="edge">
<title>Node5&#45;&gt;Node14</title>
<path fill="none" stroke="midnightblue" d="M2605.28,-225.32C2664.27,-215.84 2764.79,-199.69 2830.16,-189.18"/>
<polygon fill="midnightblue" stroke="midnightblue" points="2831.02,-192.59 2840.34,-187.54 2829.91,-185.68 2831.02,-192.59"/>
</g>
<!-- Node15 -->
<g id="node14" class="node">
<title>Node15</title>
<g id="a_node14"><a xlink:href="compress_8h.html" target="_top" xlink:title=" ">
<polygon fill="white" stroke="black" points="2969.5,-168.5 2969.5,-187.5 3081.5,-187.5 3081.5,-168.5 2969.5,-168.5"/>
<text text-anchor="middle" x="3025.5" y="-175.5" font-family="FreeSans" font-size="10.00">magick/compress.h</text>
</a>
</g>
</g>
<!-- Node5&#45;&gt;Node15 -->
<g id="edge16" class="edge">
<title>Node5&#45;&gt;Node15</title>
<path fill="none" stroke="midnightblue" d="M2605.01,-228.11C2678.58,-220.44 2824.78,-204.84 2959.41,-188.11"/>
<polygon fill="midnightblue" stroke="midnightblue" points="2960,-191.56 2969.49,-186.85 2959.14,-184.62 2960,-191.56"/>
</g>
<!-- Node16 -->
<g id="node15" class="node">
<title>Node16</title>
<g id="a_node15"><a xlink:href="effect_8h.html" target="_top" xlink:title=" ">
<polygon fill="white" stroke="red" points="3099.5,-168.5 3099.5,-187.5 3191.5,-187.5 3191.5,-168.5 3099.5,-168.5"/>
<text text-anchor="middle" x="3145.5" y="-175.5" font-family="FreeSans" font-size="10.00">magick/effect.h</text>
</a>
</g>
</g>
<!-- Node5&#45;&gt;Node16 -->
<g id="edge17" class="edge">
<title>Node5&#45;&gt;Node16</title>
<path fill="none" stroke="midnightblue" d="M2605.05,-230.23C2696.67,-224.63 2904.26,-210.63 3089.14,-188.08"/>
<polygon fill="midnightblue" stroke="midnightblue" points="3089.83,-191.52 3099.32,-186.82 3088.97,-184.57 3089.83,-191.52"/>
</g>
<!-- Node18 -->
<g id="node16" class="node">
<title>Node18</title>
<g id="a_node16"><a xlink:href="geometry_8h.html" target="_top" xlink:title=" ">
<polygon fill="white" stroke="black" points="1878.5,-168.5 1878.5,-187.5 1988.5,-187.5 1988.5,-168.5 1878.5,-168.5"/>
<text text-anchor="middle" x="1933.5" y="-175.5" font-family="FreeSans" font-size="10.00">magick/geometry.h</text>
</a>
</g>
</g>
<!-- Node5&#45;&gt;Node18 -->
<g id="edge18" class="edge">
<title>Node5&#45;&gt;Node18</title>
<path fill="none" stroke="midnightblue" d="M2509.93,-230.09C2415.01,-224.09 2195.16,-209.19 1999,-187.99"/>
<polygon fill="midnightblue" stroke="midnightblue" points="1999.11,-184.48 1988.79,-186.88 1998.35,-191.44 1999.11,-184.48"/>
</g>
<!-- Node19 -->
<g id="node17" class="node">
<title>Node19</title>
<g id="a_node17"><a xlink:href="layer_8h.html" target="_top" xlink:title=" ">
<polygon fill="white" stroke="black" points="2007,-168.5 2007,-187.5 2096,-187.5 2096,-168.5 2007,-168.5"/>
<text text-anchor="middle" x="2051.5" y="-175.5" font-family="FreeSans" font-size="10.00">magick/layer.h</text>
</a>
</g>
</g>
<!-- Node5&#45;&gt;Node19 -->
<g id="edge19" class="edge">
<title>Node5&#45;&gt;Node19</title>
<path fill="none" stroke="midnightblue" d="M2509.88,-229.3C2429.11,-222.79 2259.94,-208.19 2106.35,-188.03"/>
<polygon fill="midnightblue" stroke="midnightblue" points="2106.63,-184.53 2096.25,-186.69 2105.71,-191.47 2106.63,-184.53"/>
</g>
<!-- Node20 -->
<g id="node18" class="node">
<title>Node20</title>
<g id="a_node18"><a xlink:href="locale___8h.html" target="_top" xlink:title=" ">
<polygon fill="white" stroke="red" points="2114,-168.5 2114,-187.5 2213,-187.5 2213,-168.5 2114,-168.5"/>
<text text-anchor="middle" x="2163.5" y="-175.5" font-family="FreeSans" font-size="10.00">magick/locale_.h</text>
</a>
</g>
</g>
<!-- Node5&#45;&gt;Node20 -->
<g id="edge20" class="edge">
<title>Node5&#45;&gt;Node20</title>
<path fill="none" stroke="midnightblue" d="M2509.75,-226.86C2446.7,-218.69 2331.95,-203.61 2223.23,-188.08"/>
<polygon fill="midnightblue" stroke="midnightblue" points="2223.46,-184.58 2213.06,-186.63 2222.47,-191.51 2223.46,-184.58"/>
</g>
<!-- Node22 -->
<g id="node19" class="node">
<title>Node22</title>
<g id="a_node19"><a xlink:href="monitor_8h.html" target="_top" xlink:title=" ">
<polygon fill="white" stroke="black" points="2231.5,-168.5 2231.5,-187.5 2333.5,-187.5 2333.5,-168.5 2231.5,-168.5"/>
<text text-anchor="middle" x="2282.5" y="-175.5" font-family="FreeSans" font-size="10.00">magick/monitor.h</text>
</a>
</g>
</g>
<!-- Node5&#45;&gt;Node22 -->
<g id="edge21" class="edge">
<title>Node5&#45;&gt;Node22</title>
<path fill="none" stroke="midnightblue" d="M2513.93,-224.44C2465.65,-214.96 2387.79,-199.67 2335.89,-189.48"/>
<polygon fill="midnightblue" stroke="midnightblue" points="2336.36,-186.01 2325.87,-187.52 2335.01,-192.88 2336.36,-186.01"/>
</g>
<!-- Node23 -->
<g id="node20" class="node">
<title>Node23</title>
<g id="a_node20"><a xlink:href="profile_8h.html" target="_top" xlink:title=" ">
<polygon fill="white" stroke="black" points="1765,-168.5 1765,-187.5 1860,-187.5 1860,-168.5 1765,-168.5"/>
<text text-anchor="middle" x="1812.5" y="-175.5" font-family="FreeSans" font-size="10.00">magick/profile.h</text>
</a>
</g>
</g>
<!-- Node5&#45;&gt;Node23 -->
<g id="edge23" class="edge">
<title>Node5&#45;&gt;Node23</title>
<path fill="none" stroke="midnightblue" d="M2509.82,-231.38C2399.34,-227.31 2117.07,-215.05 1870.28,-187.97"/>
<polygon fill="midnightblue" stroke="midnightblue" points="1870.37,-184.46 1860.04,-186.84 1869.6,-191.42 1870.37,-184.46"/>
</g>
<!-- Node25 -->
<g id="node22" class="node">
<title>Node25</title>
<g id="a_node22"><a xlink:href="quantum_8h.html" target="_top" xlink:title=" ">
<polygon fill="white" stroke="red" points="2351.5,-168.5 2351.5,-187.5 2459.5,-187.5 2459.5,-168.5 2351.5,-168.5"/>
<text text-anchor="middle" x="2405.5" y="-175.5" font-family="FreeSans" font-size="10.00">magick/quantum.h</text>
</a>
</g>
</g>
<!-- Node5&#45;&gt;Node25 -->
<g id="edge28" class="edge">
<title>Node5&#45;&gt;Node25</title>
<path fill="none" stroke="midnightblue" d="M2528.33,-224.44C2501.12,-215.48 2461.03,-201.31 2434.04,-191.18"/>
<polygon fill="midnightblue" stroke="midnightblue" points="2434.98,-187.8 2424.39,-187.52 2432.5,-194.34 2434.98,-187.8"/>
</g>
<!-- Node5&#45;&gt;Node29 -->
<g id="edge32" class="edge">
<title>Node5&#45;&gt;Node29</title>
<path fill="none" stroke="midnightblue" d="M2605.21,-230.99C2710.5,-226.28 2970.84,-213.04 3199.78,-187.98"/>
<polygon fill="midnightblue" stroke="midnightblue" points="3200.41,-191.43 3209.96,-186.86 3199.64,-184.48 3200.41,-191.43"/>
</g>
<!-- Node6&#45;&gt;Node7 -->
<g id="edge6" class="edge">
<title>Node6&#45;&gt;Node7</title>
<path fill="none" stroke="midnightblue" d="M2539.88,-168.44C2558.72,-159.68 2588.23,-145.94 2609.88,-135.86"/>
<polygon fill="midnightblue" stroke="midnightblue" points="2611.62,-138.91 2619.21,-131.52 2608.66,-132.56 2611.62,-138.91"/>
</g>
<!-- Node10 -->
<g id="node9" class="node">
<title>Node10</title>
<g id="a_node9"><a xlink:href="exception_8h.html" target="_top" xlink:title=" ">
<polygon fill="white" stroke="black" points="1603,-56.5 1603,-75.5 1716,-75.5 1716,-56.5 1603,-56.5"/>
<text text-anchor="middle" x="1659.5" y="-63.5" font-family="FreeSans" font-size="10.00">magick/exception.h</text>
</a>
</g>
</g>
<!-- Node6&#45;&gt;Node10 -->
<g id="edge8" class="edge">
<title>Node6&#45;&gt;Node10</title>
<path fill="none" stroke="midnightblue" d="M2477.28,-169.34C2474.31,-168.87 2471.36,-168.42 2468.5,-168 2193.57,-127.51 1864.5,-89.72 1726.04,-74.3"/>
<polygon fill="midnightblue" stroke="midnightblue" points="1726.34,-70.81 1716.01,-73.19 1725.56,-77.77 1726.34,-70.81"/>
</g>
<!-- Node7&#45;&gt;Node8 -->
<g id="edge7" class="edge">
<title>Node7&#45;&gt;Node8</title>
<path fill="none" stroke="midnightblue" d="M2647.78,-112.32C2657.34,-104.26 2671.78,-92.08 2683.28,-82.37"/>
<polygon fill="midnightblue" stroke="midnightblue" points="2685.64,-84.96 2691.03,-75.83 2681.13,-79.61 2685.64,-84.96"/>
</g>
<!-- Node11 -->
<g id="node10" class="node">
<title>Node11</title>
<g id="a_node10"><a xlink:title=" ">
<polygon fill="white" stroke="#bfbfbf" points="1546.5,-0.5 1546.5,-19.5 1602.5,-19.5 1602.5,-0.5 1546.5,-0.5"/>
<text text-anchor="middle" x="1574.5" y="-7.5" font-family="FreeSans" font-size="10.00">stdarg.h</text>
</a>
</g>
</g>
<!-- Node10&#45;&gt;Node11 -->
<g id="edge9" class="edge">
<title>Node10&#45;&gt;Node11</title>
<path fill="none" stroke="midnightblue" d="M1645.84,-56.32C1632.58,-47.9 1612.23,-34.97 1596.65,-25.07"/>
<polygon fill="midnightblue" stroke="midnightblue" points="1598.44,-22.06 1588.12,-19.65 1594.69,-27.97 1598.44,-22.06"/>
</g>
<!-- Node10&#45;&gt;Node12 -->
<g id="edge10" class="edge">
<title>Node10&#45;&gt;Node12</title>
<path fill="none" stroke="midnightblue" d="M1700.7,-56.44C1746.15,-47 1819.34,-31.8 1868.41,-21.61"/>
<polygon fill="midnightblue" stroke="midnightblue" points="1869.42,-24.98 1878.49,-19.52 1867.99,-18.12 1869.42,-24.98"/>
</g>
<!-- Node13&#45;&gt;Node7 -->
<g id="edge14" class="edge">
<title>Node13&#45;&gt;Node7</title>
<path fill="none" stroke="midnightblue" d="M2674.23,-168.08C2667.96,-160.38 2658.71,-149.03 2651.07,-139.65"/>
<polygon fill="midnightblue" stroke="midnightblue" points="2653.66,-137.29 2644.63,-131.75 2648.23,-141.71 2653.66,-137.29"/>
</g>
<!-- Node24 -->
<g id="node21" class="node">
<title>Node24</title>
<g id="a_node21"><a xlink:href="string___8h.html" target="_top" xlink:title=" ">
<polygon fill="white" stroke="black" points="1528.5,-112.5 1528.5,-131.5 1626.5,-131.5 1626.5,-112.5 1528.5,-112.5"/>
<text text-anchor="middle" x="1577.5" y="-119.5" font-family="FreeSans" font-size="10.00">magick/string_.h</text>
</a>
</g>
</g>
<!-- Node23&#45;&gt;Node24 -->
<g id="edge24" class="edge">
<title>Node23&#45;&gt;Node24</title>
<path fill="none" stroke="midnightblue" d="M1775.26,-168.44C1734.44,-159.06 1668.86,-143.99 1624.52,-133.8"/>
<polygon fill="midnightblue" stroke="midnightblue" points="1625.09,-130.34 1614.56,-131.52 1623.52,-137.17 1625.09,-130.34"/>
</g>
<!-- Node24&#45;&gt;Node2 -->
<g id="edge26" class="edge">
<title>Node24&#45;&gt;Node2</title>
<path fill="none" stroke="midnightblue" d="M1568.42,-112.08C1560.33,-104.14 1548.3,-92.34 1538.59,-82.8"/>
<polygon fill="midnightblue" stroke="midnightblue" points="1541,-80.26 1531.41,-75.75 1536.1,-85.25 1541,-80.26"/>
</g>
<!-- Node24&#45;&gt;Node10 -->
<g id="edge27" class="edge">
<title>Node24&#45;&gt;Node10</title>
<path fill="none" stroke="midnightblue" d="M1590.67,-112.32C1603.35,-103.98 1622.73,-91.21 1637.71,-81.35"/>
<polygon fill="midnightblue" stroke="midnightblue" points="1639.93,-84.08 1646.36,-75.65 1636.08,-78.23 1639.93,-84.08"/>
</g>
<!-- Node24&#45;&gt;Node11 -->
<g id="edge25" class="edge">
<title>Node24&#45;&gt;Node11</title>
<path fill="none" stroke="midnightblue" d="M1577.26,-112.37C1576.78,-94.62 1575.66,-53.67 1575.01,-29.6"/>
<polygon fill="midnightblue" stroke="midnightblue" points="1578.51,-29.49 1574.73,-19.59 1571.51,-29.68 1578.51,-29.49"/>
</g>
<!-- Node25&#45;&gt;Node5 -->
<g id="edge29" class="edge">
<title>Node25&#45;&gt;Node5</title>
<path fill="none" stroke="midnightblue" d="M2434.55,-187.52C2461.72,-196.47 2501.81,-210.63 2528.84,-220.77"/>
<polygon fill="midnightblue" stroke="midnightblue" points="2527.91,-224.16 2538.5,-224.44 2530.4,-217.62 2527.91,-224.16"/>
</g>
<!-- Node25&#45;&gt;Node12 -->
<g id="edge30" class="edge">
<title>Node25&#45;&gt;Node12</title>
<path fill="none" stroke="midnightblue" d="M2380.39,-168.42C2299.66,-140.85 2046.58,-54.41 1953.93,-22.76"/>
<polygon fill="midnightblue" stroke="midnightblue" points="1955.05,-19.44 1944.46,-19.52 1952.79,-26.07 1955.05,-19.44"/>
</g>
<!-- Node31&#45;&gt;Node10 -->
<g id="edge35" class="edge">
<title>Node31&#45;&gt;Node10</title>
<path fill="none" stroke="midnightblue" d="M1637.4,-280.3C1640.79,-247.63 1652.78,-131.87 1657.54,-85.96"/>
<polygon fill="midnightblue" stroke="midnightblue" points="1661.03,-86.19 1658.58,-75.88 1654.07,-85.47 1661.03,-86.19"/>
</g>
<!-- Node33 -->
<g id="node26" class="node">
<title>Node33</title>
<g id="a_node26"><a xlink:href="studio_8h.html" target="_top" xlink:title=" ">
<polygon fill="white" stroke="black" points="845,-112.5 845,-131.5 940,-131.5 940,-112.5 845,-112.5"/>
<text text-anchor="middle" x="892.5" y="-119.5" font-family="FreeSans" font-size="10.00">magick/studio.h</text>
</a>
</g>
</g>
<!-- Node32&#45;&gt;Node33 -->
<g id="edge37" class="edge">
<title>Node32&#45;&gt;Node33</title>
<path fill="none" stroke="midnightblue" d="M892.5,-168.08C892.5,-161.01 892.5,-150.86 892.5,-141.99"/>
<polygon fill="midnightblue" stroke="midnightblue" points="896,-141.75 892.5,-131.75 889,-141.75 896,-141.75"/>
</g>
<!-- Node53 -->
<g id="node45" class="node">
<title>Node53</title>
<g id="a_node45"><a xlink:href="opencl_8h.html" target="_top" xlink:title=" ">
<polygon fill="white" stroke="black" points="730,-112.5 730,-131.5 827,-131.5 827,-112.5 730,-112.5"/>
<text text-anchor="middle" x="778.5" y="-119.5" font-family="FreeSans" font-size="10.00">magick/opencl.h</text>
</a>
</g>
</g>
<!-- Node32&#45;&gt;Node53 -->
<g id="edge59" class="edge">
<title>Node32&#45;&gt;Node53</title>
<path fill="none" stroke="midnightblue" d="M874.44,-168.44C855.93,-159.68 826.92,-145.94 805.64,-135.86"/>
<polygon fill="midnightblue" stroke="midnightblue" points="807.01,-132.63 796.48,-131.52 804.02,-138.96 807.01,-132.63"/>
</g>
<!-- Node33&#45;&gt;Node2 -->
<g id="edge46" class="edge">
<title>Node33&#45;&gt;Node2</title>
<path fill="none" stroke="midnightblue" d="M940.37,-119.9C1041.44,-117.02 1283.85,-107.19 1484.5,-76 1485.78,-75.8 1487.08,-75.58 1488.4,-75.35"/>
<polygon fill="midnightblue" stroke="midnightblue" points="1489.39,-78.71 1498.49,-73.29 1487.99,-71.86 1489.39,-78.71"/>
</g>
<!-- Node33&#45;&gt;Node11 -->
<g id="edge39" class="edge">
<title>Node33&#45;&gt;Node11</title>
<path fill="none" stroke="midnightblue" d="M940.43,-119.59C1057.48,-115.77 1355.27,-103.55 1450.5,-76 1453.14,-75.24 1513.93,-43.12 1549.39,-24.32"/>
<polygon fill="midnightblue" stroke="midnightblue" points="1551.04,-27.41 1558.23,-19.63 1547.76,-21.23 1551.04,-27.41"/>
</g>
<!-- Node34 -->
<g id="node27" class="node">
<title>Node34</title>
<g id="a_node27"><a xlink:href="magick-config_8h.html" target="_top" xlink:title=" ">
<polygon fill="white" stroke="red" points="780.5,-0.5 780.5,-19.5 914.5,-19.5 914.5,-0.5 780.5,-0.5"/>
<text text-anchor="middle" x="847.5" y="-7.5" font-family="FreeSans" font-size="10.00">magick/magick&#45;config.h</text>
</a>
</g>
</g>
<!-- Node33&#45;&gt;Node34 -->
<g id="edge38" class="edge">
<title>Node33&#45;&gt;Node34</title>
<path fill="none" stroke="midnightblue" d="M867,-112.47C850.51,-105.48 830.36,-93.79 820.5,-76 811.75,-60.22 822.08,-41.02 832.39,-27.59"/>
<polygon fill="midnightblue" stroke="midnightblue" points="835.25,-29.62 838.95,-19.7 829.87,-25.15 835.25,-29.62"/>
</g>
<!-- Node36 -->
<g id="node28" class="node">
<title>Node36</title>
<g id="a_node28"><a xlink:title=" ">
<polygon fill="white" stroke="#bfbfbf" points="973.5,-56.5 973.5,-75.5 1023.5,-75.5 1023.5,-56.5 973.5,-56.5"/>
<text text-anchor="middle" x="998.5" y="-63.5" font-family="FreeSans" font-size="10.00">stdio.h</text>
</a>
</g>
</g>
<!-- Node33&#45;&gt;Node36 -->
<g id="edge40" class="edge">
<title>Node33&#45;&gt;Node36</title>
<path fill="none" stroke="midnightblue" d="M909.53,-112.32C926.53,-103.66 952.88,-90.24 972.49,-80.25"/>
<polygon fill="midnightblue" stroke="midnightblue" points="974.19,-83.31 981.51,-75.65 971.01,-77.08 974.19,-83.31"/>
</g>
<!-- Node37 -->
<g id="node29" class="node">
<title>Node37</title>
<g id="a_node29"><a xlink:title=" ">
<polygon fill="white" stroke="#bfbfbf" points="1042,-56.5 1042,-75.5 1095,-75.5 1095,-56.5 1042,-56.5"/>
<text text-anchor="middle" x="1068.5" y="-63.5" font-family="FreeSans" font-size="10.00">ctype.h</text>
</a>
</g>
</g>
<!-- Node33&#45;&gt;Node37 -->
<g id="edge41" class="edge">
<title>Node33&#45;&gt;Node37</title>
<path fill="none" stroke="midnightblue" d="M920.39,-112.44C950.61,-103.17 998.94,-88.34 1032.12,-78.16"/>
<polygon fill="midnightblue" stroke="midnightblue" points="1033.36,-81.44 1041.89,-75.16 1031.31,-74.75 1033.36,-81.44"/>
</g>
<!-- Node38 -->
<g id="node30" class="node">
<title>Node38</title>
<g id="a_node30"><a xlink:title=" ">
<polygon fill="white" stroke="#bfbfbf" points="1113,-56.5 1113,-75.5 1168,-75.5 1168,-56.5 1113,-56.5"/>
<text text-anchor="middle" x="1140.5" y="-63.5" font-family="FreeSans" font-size="10.00">locale.h</text>
</a>
</g>
</g>
<!-- Node33&#45;&gt;Node38 -->
<g id="edge42" class="edge">
<title>Node33&#45;&gt;Node38</title>
<path fill="none" stroke="midnightblue" d="M934.21,-112.47C974.75,-104.1 1038.3,-90.76 1102.72,-76.13"/>
<polygon fill="midnightblue" stroke="midnightblue" points="1103.67,-79.5 1112.64,-73.87 1102.11,-72.68 1103.67,-79.5"/>
</g>
<!-- Node39 -->
<g id="node31" class="node">
<title>Node39</title>
<g id="a_node31"><a xlink:title=" ">
<polygon fill="white" stroke="#bfbfbf" points="1186,-56.5 1186,-75.5 1237,-75.5 1237,-56.5 1186,-56.5"/>
<text text-anchor="middle" x="1211.5" y="-63.5" font-family="FreeSans" font-size="10.00">errno.h</text>
</a>
</g>
</g>
<!-- Node33&#45;&gt;Node39 -->
<g id="edge43" class="edge">
<title>Node33&#45;&gt;Node39</title>
<path fill="none" stroke="midnightblue" d="M940.24,-114.84C994.82,-107.49 1087.05,-94.11 1175.97,-75.93"/>
<polygon fill="midnightblue" stroke="midnightblue" points="1176.87,-79.32 1185.95,-73.87 1175.45,-72.46 1176.87,-79.32"/>
</g>
<!-- Node40 -->
<g id="node32" class="node">
<title>Node40</title>
<g id="a_node32"><a xlink:title=" ">
<polygon fill="white" stroke="#bfbfbf" points="1255,-56.5 1255,-75.5 1302,-75.5 1302,-56.5 1255,-56.5"/>
<text text-anchor="middle" x="1278.5" y="-63.5" font-family="FreeSans" font-size="10.00">fcntl.h</text>
</a>
</g>
</g>
<!-- Node33&#45;&gt;Node40 -->
<g id="edge44" class="edge">
<title>Node33&#45;&gt;Node40</title>
<path fill="none" stroke="midnightblue" d="M940.23,-117.04C1006.46,-111.09 1130.09,-98.29 1244.8,-75.87"/>
<polygon fill="midnightblue" stroke="midnightblue" points="1245.67,-79.27 1254.8,-73.89 1244.31,-72.4 1245.67,-79.27"/>
</g>
<!-- Node41 -->
<g id="node33" class="node">
<title>Node41</title>
<g id="a_node33"><a xlink:title=" ">
<polygon fill="white" stroke="#bfbfbf" points="1320,-56.5 1320,-75.5 1371,-75.5 1371,-56.5 1320,-56.5"/>
<text text-anchor="middle" x="1345.5" y="-63.5" font-family="FreeSans" font-size="10.00">math.h</text>
</a>
</g>
</g>
<!-- Node33&#45;&gt;Node41 -->
<g id="edge45" class="edge">
<title>Node33&#45;&gt;Node41</title>
<path fill="none" stroke="midnightblue" d="M940.15,-118.12C1016.25,-113.03 1170.03,-100.73 1309.93,-75.83"/>
<polygon fill="midnightblue" stroke="midnightblue" points="1310.76,-79.24 1319.98,-74.02 1309.52,-72.35 1310.76,-79.24"/>
</g>
<!-- Node42 -->
<g id="node34" class="node">
<title>Node42</title>
<g id="a_node34"><a xlink:title=" ">
<polygon fill="white" stroke="#bfbfbf" points="1389,-56.5 1389,-75.5 1442,-75.5 1442,-56.5 1389,-56.5"/>
<text text-anchor="middle" x="1415.5" y="-63.5" font-family="FreeSans" font-size="10.00">limits.h</text>
</a>
</g>
</g>
<!-- Node33&#45;&gt;Node42 -->
<g id="edge47" class="edge">
<title>Node33&#45;&gt;Node42</title>
<path fill="none" stroke="midnightblue" d="M940.17,-119.02C1026.01,-114.92 1212.37,-103.62 1378.93,-75.82"/>
<polygon fill="midnightblue" stroke="midnightblue" points="1379.58,-79.26 1388.86,-74.14 1378.42,-72.36 1379.58,-79.26"/>
</g>
<!-- Node43 -->
<g id="node35" class="node">
<title>Node43</title>
<g id="a_node35"><a xlink:title=" ">
<polygon fill="white" stroke="#bfbfbf" points="0,-56.5 0,-75.5 55,-75.5 55,-56.5 0,-56.5"/>
<text text-anchor="middle" x="27.5" y="-63.5" font-family="FreeSans" font-size="10.00">signal.h</text>
</a>
</g>
</g>
<!-- Node33&#45;&gt;Node43 -->
<g id="edge48" class="edge">
<title>Node33&#45;&gt;Node43</title>
<path fill="none" stroke="midnightblue" d="M844.97,-113.09C841.77,-112.69 838.59,-112.32 835.5,-112 497.56,-77.54 405.84,-123.84 65.41,-75.81"/>
<polygon fill="midnightblue" stroke="midnightblue" points="65.66,-72.31 55.27,-74.36 64.67,-79.24 65.66,-72.31"/>
</g>
<!-- Node44 -->
<g id="node36" class="node">
<title>Node44</title>
<g id="a_node36"><a xlink:title=" ">
<polygon fill="white" stroke="#bfbfbf" points="73.5,-56.5 73.5,-75.5 129.5,-75.5 129.5,-56.5 73.5,-56.5"/>
<text text-anchor="middle" x="101.5" y="-63.5" font-family="FreeSans" font-size="10.00">assert.h</text>
</a>
</g>
</g>
<!-- Node33&#45;&gt;Node44 -->
<g id="edge49" class="edge">
<title>Node33&#45;&gt;Node44</title>
<path fill="none" stroke="midnightblue" d="M844.96,-113.11C841.77,-112.7 838.59,-112.32 835.5,-112 530.3,-80.11 447.21,-119.98 139.77,-75.89"/>
<polygon fill="midnightblue" stroke="midnightblue" points="140.07,-72.4 129.68,-74.43 139.07,-79.33 140.07,-72.4"/>
</g>
<!-- Node45 -->
<g id="node37" class="node">
<title>Node45</title>
<g id="a_node37"><a xlink:href="method-attribute_8h.html" target="_top" xlink:title=" ">
<polygon fill="white" stroke="black" points="147.5,-56.5 147.5,-75.5 295.5,-75.5 295.5,-56.5 147.5,-56.5"/>
<text text-anchor="middle" x="221.5" y="-63.5" font-family="FreeSans" font-size="10.00">magick/method&#45;attribute.h</text>
</a>
</g>
</g>
<!-- Node33&#45;&gt;Node45 -->
<g id="edge50" class="edge">
<title>Node33&#45;&gt;Node45</title>
<path fill="none" stroke="midnightblue" d="M844.96,-113.17C841.76,-112.74 838.59,-112.35 835.5,-112 603.77,-85.9 541.87,-96.44 305.97,-76.09"/>
<polygon fill="midnightblue" stroke="midnightblue" points="305.96,-72.58 295.7,-75.2 305.36,-79.55 305.96,-72.58"/>
</g>
<!-- Node46 -->
<g id="node38" class="node">
<title>Node46</title>
<g id="a_node38"><a xlink:title=" ">
<polygon fill="white" stroke="#bfbfbf" points="313.5,-56.5 313.5,-75.5 385.5,-75.5 385.5,-56.5 313.5,-56.5"/>
<text text-anchor="middle" x="349.5" y="-63.5" font-family="FreeSans" font-size="10.00">sys/types.h</text>
</a>
</g>
</g>
<!-- Node33&#45;&gt;Node46 -->
<g id="edge51" class="edge">
<title>Node33&#45;&gt;Node46</title>
<path fill="none" stroke="midnightblue" d="M844.95,-113.22C841.76,-112.78 838.58,-112.37 835.5,-112 643.48,-89.04 590.98,-102.85 395.8,-76.03"/>
<polygon fill="midnightblue" stroke="midnightblue" points="396.17,-72.55 385.79,-74.63 395.21,-79.48 396.17,-72.55"/>
</g>
<!-- Node47 -->
<g id="node39" class="node">
<title>Node47</title>
<g id="a_node39"><a xlink:title=" ">
<polygon fill="white" stroke="#bfbfbf" points="403.5,-56.5 403.5,-75.5 467.5,-75.5 467.5,-56.5 403.5,-56.5"/>
<text text-anchor="middle" x="435.5" y="-63.5" font-family="FreeSans" font-size="10.00">sys/stat.h</text>
</a>
</g>
</g>
<!-- Node33&#45;&gt;Node47 -->
<g id="edge52" class="edge">
<title>Node33&#45;&gt;Node47</title>
<path fill="none" stroke="midnightblue" d="M844.94,-113.28C841.75,-112.83 838.58,-112.4 835.5,-112 679.72,-91.91 636.61,-100.85 477.79,-76.03"/>
<polygon fill="midnightblue" stroke="midnightblue" points="478.09,-72.54 467.66,-74.43 476.99,-79.45 478.09,-72.54"/>
</g>
<!-- Node48 -->
<g id="node40" class="node">
<title>Node48</title>
<g id="a_node40"><a xlink:title=" ">
<polygon fill="white" stroke="#bfbfbf" points="485.5,-56.5 485.5,-75.5 539.5,-75.5 539.5,-56.5 485.5,-56.5"/>
<text text-anchor="middle" x="512.5" y="-63.5" font-family="FreeSans" font-size="10.00">dirent.h</text>
</a>
</g>
</g>
<!-- Node33&#45;&gt;Node48 -->
<g id="edge53" class="edge">
<title>Node33&#45;&gt;Node48</title>
<path fill="none" stroke="midnightblue" d="M844.93,-113.37C841.74,-112.9 838.58,-112.44 835.5,-112 711.45,-94.43 676.62,-99.36 549.66,-76.02"/>
<polygon fill="midnightblue" stroke="midnightblue" points="550.02,-72.52 539.55,-74.13 548.74,-79.4 550.02,-72.52"/>
</g>
<!-- Node49 -->
<g id="node41" class="node">
<title>Node49</title>
<g id="a_node41"><a xlink:title=" ">
<polygon fill="white" stroke="#bfbfbf" points="557.5,-56.5 557.5,-75.5 623.5,-75.5 623.5,-56.5 557.5,-56.5"/>
<text text-anchor="middle" x="590.5" y="-63.5" font-family="FreeSans" font-size="10.00">sys/wait.h</text>
</a>
</g>
</g>
<!-- Node33&#45;&gt;Node49 -->
<g id="edge54" class="edge">
<title>Node33&#45;&gt;Node49</title>
<path fill="none" stroke="midnightblue" d="M844.95,-113.35C794.88,-105.17 713.5,-91.5 634.12,-76.26"/>
<polygon fill="midnightblue" stroke="midnightblue" points="634.43,-72.75 623.95,-74.29 633.1,-79.63 634.43,-72.75"/>
</g>
<!-- Node50 -->
<g id="node42" class="node">
<title>Node50</title>
<g id="a_node42"><a xlink:title=" ">
<polygon fill="white" stroke="#bfbfbf" points="641.5,-56.5 641.5,-75.5 687.5,-75.5 687.5,-56.5 641.5,-56.5"/>
<text text-anchor="middle" x="664.5" y="-63.5" font-family="FreeSans" font-size="10.00">pwd.h</text>
</a>
</g>
</g>
<!-- Node33&#45;&gt;Node50 -->
<g id="edge55" class="edge">
<title>Node33&#45;&gt;Node50</title>
<path fill="none" stroke="midnightblue" d="M852.57,-112.43C814.96,-104.22 756.82,-91.19 697.46,-76.15"/>
<polygon fill="midnightblue" stroke="midnightblue" points="698.09,-72.7 687.54,-73.62 696.36,-79.49 698.09,-72.7"/>
</g>
<!-- Node51 -->
<g id="node43" class="node">
<title>Node51</title>
<g id="a_node43"><a xlink:href="magick-type_8h.html" target="_top" xlink:title=" ">
<polygon fill="white" stroke="black" points="829.5,-56.5 829.5,-75.5 955.5,-75.5 955.5,-56.5 829.5,-56.5"/>
<text text-anchor="middle" x="892.5" y="-63.5" font-family="FreeSans" font-size="10.00">magick/magick&#45;type.h</text>
</a>
</g>
</g>
<!-- Node33&#45;&gt;Node51 -->
<g id="edge56" class="edge">
<title>Node33&#45;&gt;Node51</title>
<path fill="none" stroke="midnightblue" d="M892.5,-112.08C892.5,-105.01 892.5,-94.86 892.5,-85.99"/>
<polygon fill="midnightblue" stroke="midnightblue" points="896,-85.75 892.5,-75.75 889,-85.75 896,-85.75"/>
</g>
<!-- Node52 -->
<g id="node44" class="node">
<title>Node52</title>
<g id="a_node44"><a xlink:title=" ">
<polygon fill="white" stroke="#bfbfbf" points="705.5,-56.5 705.5,-75.5 773.5,-75.5 773.5,-56.5 705.5,-56.5"/>
<text text-anchor="middle" x="739.5" y="-63.5" font-family="FreeSans" font-size="10.00">sys/time.h</text>
</a>
</g>
</g>
<!-- Node33&#45;&gt;Node52 -->
<g id="edge58" class="edge">
<title>Node33&#45;&gt;Node52</title>
<path fill="none" stroke="midnightblue" d="M868.26,-112.44C842.63,-103.4 802.01,-89.06 773.26,-78.92"/>
<polygon fill="midnightblue" stroke="midnightblue" points="774.22,-75.54 763.63,-75.52 771.89,-82.15 774.22,-75.54"/>
</g>
<!-- Node51&#45;&gt;Node34 -->
<g id="edge57" class="edge">
<title>Node51&#45;&gt;Node34</title>
<path fill="none" stroke="midnightblue" d="M885.07,-56.08C878.65,-48.38 869.19,-37.03 861.38,-27.65"/>
<polygon fill="midnightblue" stroke="midnightblue" points="863.88,-25.19 854.79,-19.75 858.51,-29.67 863.88,-25.19"/>
</g>
<!-- Node54&#45;&gt;Node24 -->
<g id="edge61" class="edge">
<title>Node54&#45;&gt;Node24</title>
<path fill="none" stroke="midnightblue" d="M1577.5,-224.37C1577.5,-206.62 1577.5,-165.67 1577.5,-141.6"/>
<polygon fill="midnightblue" stroke="midnightblue" points="1581,-141.59 1577.5,-131.59 1574,-141.59 1581,-141.59"/>
</g>
<!-- Node55&#45;&gt;Node3 -->
<g id="edge63" class="edge">
<title>Node55&#45;&gt;Node3</title>
<path fill="none" stroke="midnightblue" d="M1922.58,-392.44C1900.76,-383.52 1866.35,-369.44 1841.61,-359.32"/>
<polygon fill="midnightblue" stroke="midnightblue" points="1842.9,-356.06 1832.32,-355.52 1840.25,-362.54 1842.9,-356.06"/>
</g>
<!-- Node56 -->
<g id="node48" class="node">
<title>Node56</title>
<g id="a_node48"><a xlink:href="image-private_8h.html" target="_top" xlink:title=" ">
<polygon fill="white" stroke="black" points="1876.5,-336.5 1876.5,-355.5 2010.5,-355.5 2010.5,-336.5 1876.5,-336.5"/>
<text text-anchor="middle" x="1943.5" y="-343.5" font-family="FreeSans" font-size="10.00">magick/image&#45;private.h</text>
</a>
</g>
</g>
<!-- Node55&#45;&gt;Node56 -->
<g id="edge64" class="edge">
<title>Node55&#45;&gt;Node56</title>
<path fill="none" stroke="midnightblue" d="M1943.5,-392.08C1943.5,-385.01 1943.5,-374.86 1943.5,-365.99"/>
<polygon fill="midnightblue" stroke="midnightblue" points="1947,-365.75 1943.5,-355.75 1940,-365.75 1947,-365.75"/>
</g>
<!-- Node57 -->
<g id="node49" class="node">
<title>Node57</title>
<g id="a_node49"><a xlink:href="resource___8h.html" target="_top" xlink:title=" ">
<polygon fill="white" stroke="black" points="2028.5,-336.5 2028.5,-355.5 2140.5,-355.5 2140.5,-336.5 2028.5,-336.5"/>
<text text-anchor="middle" x="2084.5" y="-343.5" font-family="FreeSans" font-size="10.00">magick/resource_.h</text>
</a>
</g>
</g>
<!-- Node55&#45;&gt;Node57 -->
<g id="edge65" class="edge">
<title>Node55&#45;&gt;Node57</title>
<path fill="none" stroke="midnightblue" d="M1965.84,-392.44C1989.25,-383.48 2026.24,-369.31 2052.69,-359.18"/>
<polygon fill="midnightblue" stroke="midnightblue" points="2054.18,-362.36 2062.26,-355.52 2051.67,-355.82 2054.18,-362.36"/>
</g>
<!-- Node58 -->
<g id="node50" class="node">
<title>Node58</title>
<g id="a_node50"><a xlink:href="thread___8h.html" target="_top" xlink:title=" ">
<polygon fill="white" stroke="black" points="2159,-336.5 2159,-355.5 2260,-355.5 2260,-336.5 2159,-336.5"/>
<text text-anchor="middle" x="2209.5" y="-343.5" font-family="FreeSans" font-size="10.00">magick/thread_.h</text>
</a>
</g>
</g>
<!-- Node55&#45;&gt;Node58 -->
<g id="edge66" class="edge">
<title>Node55&#45;&gt;Node58</title>
<path fill="none" stroke="midnightblue" d="M1985.65,-392.44C2032.25,-382.98 2107.34,-367.74 2157.55,-357.55"/>
<polygon fill="midnightblue" stroke="midnightblue" points="2158.44,-360.94 2167.55,-355.52 2157.05,-354.08 2158.44,-360.94"/>
</g>
</g>
</svg>
