<?xml version="1.0" encoding="UTF-8" standalone="no"?>
<!DOCTYPE svg PUBLIC "-//W3C//DTD SVG 1.1//EN"
 "http://www.w3.org/Graphics/SVG/1.1/DTD/svg11.dtd">
<!-- Generated by graphviz version 2.43.0 (0)
 -->
<!-- Title: channel.c Pages: 1 -->
<svg width="2866pt" height="308pt"
 viewBox="0.00 0.00 2865.50 308.00" xmlns="http://www.w3.org/2000/svg" xmlns:xlink="http://www.w3.org/1999/xlink">
<g id="graph0" class="graph" transform="scale(1 1) rotate(0) translate(4 304)">
<title>channel.c</title>
<polygon fill="white" stroke="transparent" points="-4,4 -4,-304 2861.5,-304 2861.5,4 -4,4"/>
<!-- Node1 -->
<g id="node1" class="node">
<title>Node1</title>
<g id="a_node1"><a xlink:title=" ">
<polygon fill="#bfbfbf" stroke="black" points="1842.5,-280.5 1842.5,-299.5 1905.5,-299.5 1905.5,-280.5 1842.5,-280.5"/>
<text text-anchor="middle" x="1874" y="-287.5" font-family="FreeSans" font-size="10.00">channel.c</text>
</a>
</g>
</g>
<!-- Node2 -->
<g id="node2" class="node">
<title>Node2</title>
<g id="a_node2"><a xlink:href="studio_8h.html" target="_top" xlink:title=" ">
<polygon fill="white" stroke="black" points="738.5,-112.5 738.5,-131.5 833.5,-131.5 833.5,-112.5 738.5,-112.5"/>
<text text-anchor="middle" x="786" y="-119.5" font-family="FreeSans" font-size="10.00">magick/studio.h</text>
</a>
</g>
</g>
<!-- Node1&#45;&gt;Node2 -->
<g id="edge1" class="edge">
<title>Node1&#45;&gt;Node2</title>
<path fill="none" stroke="midnightblue" d="M1842.39,-289.05C1657.37,-288.98 720.21,-283.88 642,-188 614.37,-154.13 676.95,-137.24 728.13,-129.31"/>
<polygon fill="midnightblue" stroke="midnightblue" points="728.8,-132.75 738.19,-127.84 727.79,-125.83 728.8,-132.75"/>
</g>
<!-- Node24 -->
<g id="node23" class="node">
<title>Node24</title>
<g id="a_node23"><a xlink:href="cache-private_8h.html" target="_top" xlink:title=" ">
<polygon fill="white" stroke="black" points="924.5,-224.5 924.5,-243.5 1055.5,-243.5 1055.5,-224.5 924.5,-224.5"/>
<text text-anchor="middle" x="990" y="-231.5" font-family="FreeSans" font-size="10.00">magick/cache&#45;private.h</text>
</a>
</g>
</g>
<!-- Node1&#45;&gt;Node24 -->
<g id="edge23" class="edge">
<title>Node1&#45;&gt;Node24</title>
<path fill="none" stroke="midnightblue" d="M1842.28,-287.06C1716.45,-279.38 1250.41,-250.91 1065.91,-239.64"/>
<polygon fill="midnightblue" stroke="midnightblue" points="1065.95,-236.13 1055.75,-239.02 1065.52,-243.12 1065.95,-236.13"/>
</g>
<!-- Node56 -->
<g id="node28" class="node">
<title>Node56</title>
<g id="a_node28"><a xlink:href="thread-private_8h.html" target="_top" xlink:title=" ">
<polygon fill="white" stroke="red" points="1168,-168.5 1168,-187.5 1302,-187.5 1302,-168.5 1168,-168.5"/>
<text text-anchor="middle" x="1235" y="-175.5" font-family="FreeSans" font-size="10.00">magick/thread&#45;private.h</text>
</a>
</g>
</g>
<!-- Node1&#45;&gt;Node56 -->
<g id="edge74" class="edge">
<title>Node1&#45;&gt;Node56</title>
<path fill="none" stroke="midnightblue" d="M1842.4,-288.87C1739.15,-288.08 1412.86,-282.5 1316,-244 1289.18,-233.34 1264.22,-210.59 1249.29,-195.04"/>
<polygon fill="midnightblue" stroke="midnightblue" points="1251.81,-192.61 1242.44,-187.67 1246.69,-197.38 1251.81,-192.61"/>
</g>
<!-- Node58 -->
<g id="node30" class="node">
<title>Node58</title>
<g id="a_node30"><a xlink:href="resource___8h.html" target="_top" xlink:title=" ">
<polygon fill="white" stroke="black" points="1248,-112.5 1248,-131.5 1360,-131.5 1360,-112.5 1248,-112.5"/>
<text text-anchor="middle" x="1304" y="-119.5" font-family="FreeSans" font-size="10.00">magick/resource_.h</text>
</a>
</g>
</g>
<!-- Node1&#45;&gt;Node58 -->
<g id="edge72" class="edge">
<title>Node1&#45;&gt;Node58</title>
<path fill="none" stroke="midnightblue" d="M1842.5,-288.32C1754.69,-286.01 1508.87,-276.73 1436,-244 1383.26,-220.31 1337.48,-167.18 1316.39,-139.89"/>
<polygon fill="midnightblue" stroke="midnightblue" points="1319.02,-137.57 1310.2,-131.7 1313.44,-141.79 1319.02,-137.57"/>
</g>
<!-- Node60 -->
<g id="node32" class="node">
<title>Node60</title>
<g id="a_node32"><a xlink:href="channel_8h.html" target="_top" xlink:title=" ">
<polygon fill="white" stroke="black" points="1930.5,-168.5 1930.5,-187.5 2033.5,-187.5 2033.5,-168.5 1930.5,-168.5"/>
<text text-anchor="middle" x="1982" y="-175.5" font-family="FreeSans" font-size="10.00">magick/channel.h</text>
</a>
</g>
</g>
<!-- Node1&#45;&gt;Node60 -->
<g id="edge35" class="edge">
<title>Node1&#45;&gt;Node60</title>
<path fill="none" stroke="midnightblue" d="M1875.18,-280.43C1877.43,-266.97 1883.47,-240.69 1898,-224 1910.71,-209.4 1929.36,-198.74 1945.85,-191.48"/>
<polygon fill="midnightblue" stroke="midnightblue" points="1947.35,-194.64 1955.26,-187.58 1944.68,-188.17 1947.35,-194.64"/>
</g>
<!-- Node27 -->
<g id="node33" class="node">
<title>Node27</title>
<g id="a_node33"><a xlink:href="image_8h.html" target="_top" xlink:title=" ">
<polygon fill="white" stroke="red" points="2011.5,-112.5 2011.5,-131.5 2106.5,-131.5 2106.5,-112.5 2011.5,-112.5"/>
<text text-anchor="middle" x="2059" y="-119.5" font-family="FreeSans" font-size="10.00">magick/image.h</text>
</a>
</g>
</g>
<!-- Node1&#45;&gt;Node27 -->
<g id="edge65" class="edge">
<title>Node1&#45;&gt;Node27</title>
<path fill="none" stroke="midnightblue" d="M1885.96,-280.3C1910.2,-262.7 1962.9,-224.44 1964,-224 2016.25,-202.89 2178.09,-230.58 2215,-188 2246.64,-151.5 2173.08,-135.07 2116.54,-127.98"/>
<polygon fill="midnightblue" stroke="midnightblue" points="2116.9,-124.5 2106.56,-126.81 2116.08,-131.45 2116.9,-124.5"/>
</g>
<!-- Node43 -->
<g id="node36" class="node">
<title>Node43</title>
<g id="a_node36"><a xlink:href="monitor_8h.html" target="_top" xlink:title=" ">
<polygon fill="white" stroke="black" points="2008,-56.5 2008,-75.5 2110,-75.5 2110,-56.5 2008,-56.5"/>
<text text-anchor="middle" x="2059" y="-63.5" font-family="FreeSans" font-size="10.00">magick/monitor.h</text>
</a>
</g>
</g>
<!-- Node1&#45;&gt;Node43 -->
<g id="edge68" class="edge">
<title>Node1&#45;&gt;Node43</title>
<path fill="none" stroke="midnightblue" d="M1842.49,-286.65C1791.17,-282.09 1693.13,-270.12 1672,-244 1635.1,-198.39 1631.84,-155.69 1671,-112 1718.03,-59.53 1910.4,-83.38 1997.83,-75.87"/>
<polygon fill="midnightblue" stroke="midnightblue" points="1998.38,-79.34 2007.96,-74.8 1997.64,-72.37 1998.38,-79.34"/>
</g>
<!-- Node61 -->
<g id="node37" class="node">
<title>Node61</title>
<g id="a_node37"><a xlink:href="color-private_8h.html" target="_top" xlink:title=" ">
<polygon fill="white" stroke="black" points="1680.5,-224.5 1680.5,-243.5 1807.5,-243.5 1807.5,-224.5 1680.5,-224.5"/>
<text text-anchor="middle" x="1744" y="-231.5" font-family="FreeSans" font-size="10.00">magick/color&#45;private.h</text>
</a>
</g>
</g>
<!-- Node1&#45;&gt;Node61 -->
<g id="edge42" class="edge">
<title>Node1&#45;&gt;Node61</title>
<path fill="none" stroke="midnightblue" d="M1853.4,-280.44C1832.01,-271.56 1798.32,-257.56 1773.98,-247.45"/>
<polygon fill="midnightblue" stroke="midnightblue" points="1775.08,-244.12 1764.5,-243.52 1772.39,-250.58 1775.08,-244.12"/>
</g>
<!-- Node62 -->
<g id="node38" class="node">
<title>Node62</title>
<g id="a_node38"><a xlink:href="colorspace-private_8h.html" target="_top" xlink:title=" ">
<polygon fill="white" stroke="black" points="1718.5,-168.5 1718.5,-187.5 1873.5,-187.5 1873.5,-168.5 1718.5,-168.5"/>
<text text-anchor="middle" x="1796" y="-175.5" font-family="FreeSans" font-size="10.00">magick/colorspace&#45;private.h</text>
</a>
</g>
</g>
<!-- Node1&#45;&gt;Node62 -->
<g id="edge57" class="edge">
<title>Node1&#45;&gt;Node62</title>
<path fill="none" stroke="midnightblue" d="M1867.88,-280.37C1855.01,-262.22 1824.93,-219.8 1808.05,-195.99"/>
<polygon fill="midnightblue" stroke="midnightblue" points="1810.73,-193.72 1802.09,-187.59 1805.02,-197.77 1810.73,-193.72"/>
</g>
<!-- Node63 -->
<g id="node39" class="node">
<title>Node63</title>
<g id="a_node39"><a xlink:href="pixel-accessor_8h.html" target="_top" xlink:title=" ">
<polygon fill="white" stroke="red" points="1490,-112.5 1490,-131.5 1624,-131.5 1624,-112.5 1490,-112.5"/>
<text text-anchor="middle" x="1557" y="-119.5" font-family="FreeSans" font-size="10.00">magick/pixel&#45;accessor.h</text>
</a>
</g>
</g>
<!-- Node1&#45;&gt;Node63 -->
<g id="edge71" class="edge">
<title>Node1&#45;&gt;Node63</title>
<path fill="none" stroke="midnightblue" d="M1842.06,-285.98C1785.64,-280.14 1671.13,-265.93 1638,-244 1599.66,-218.63 1574.92,-168.24 1563.8,-141.18"/>
<polygon fill="midnightblue" stroke="midnightblue" points="1567.01,-139.78 1560.09,-131.76 1560.49,-142.34 1567.01,-139.78"/>
</g>
<!-- Node68 -->
<g id="node40" class="node">
<title>Node68</title>
<g id="a_node40"><a xlink:href="exception-private_8h.html" target="_top" xlink:title=" ">
<polygon fill="white" stroke="red" points="1396.5,-168.5 1396.5,-187.5 1547.5,-187.5 1547.5,-168.5 1396.5,-168.5"/>
<text text-anchor="middle" x="1472" y="-175.5" font-family="FreeSans" font-size="10.00">magick/exception&#45;private.h</text>
</a>
</g>
</g>
<!-- Node1&#45;&gt;Node68 -->
<g id="edge62" class="edge">
<title>Node1&#45;&gt;Node68</title>
<path fill="none" stroke="midnightblue" d="M1842.16,-289.35C1784.23,-288.92 1658.65,-283.09 1562,-244 1533.44,-232.45 1505.46,-209.98 1488.47,-194.73"/>
<polygon fill="midnightblue" stroke="midnightblue" points="1490.78,-192.11 1481.05,-187.91 1486.04,-197.26 1490.78,-192.11"/>
</g>
<!-- Node69 -->
<g id="node41" class="node">
<title>Node69</title>
<g id="a_node41"><a xlink:href="log_8h.html" target="_top" xlink:title=" ">
<polygon fill="white" stroke="red" points="1392,-112.5 1392,-131.5 1472,-131.5 1472,-112.5 1392,-112.5"/>
<text text-anchor="middle" x="1432" y="-119.5" font-family="FreeSans" font-size="10.00">magick/log.h</text>
</a>
</g>
</g>
<!-- Node1&#45;&gt;Node69 -->
<g id="edge67" class="edge">
<title>Node1&#45;&gt;Node69</title>
<path fill="none" stroke="midnightblue" d="M1842.49,-287.9C1742.99,-283.65 1439.09,-264.5 1388,-188 1376.46,-170.73 1394.27,-150.98 1410.56,-137.83"/>
<polygon fill="midnightblue" stroke="midnightblue" points="1412.92,-140.43 1418.78,-131.6 1408.69,-134.85 1412.92,-140.43"/>
</g>
<!-- Node71 -->
<g id="node42" class="node">
<title>Node71</title>
<g id="a_node42"><a xlink:href="composite-private_8h.html" target="_top" xlink:title=" ">
<polygon fill="white" stroke="red" points="2052,-168.5 2052,-187.5 2206,-187.5 2206,-168.5 2052,-168.5"/>
<text text-anchor="middle" x="2129" y="-175.5" font-family="FreeSans" font-size="10.00">magick/composite&#45;private.h</text>
</a>
</g>
</g>
<!-- Node1&#45;&gt;Node71 -->
<g id="edge58" class="edge">
<title>Node1&#45;&gt;Node71</title>
<path fill="none" stroke="midnightblue" d="M1879.72,-280.31C1889.5,-266.18 1910.81,-238.39 1936,-224 1968.08,-205.67 2007.22,-194.8 2041.84,-188.36"/>
<polygon fill="midnightblue" stroke="midnightblue" points="2042.7,-191.76 2051.95,-186.57 2041.49,-184.86 2042.7,-191.76"/>
</g>
<!-- Node75 -->
<g id="node43" class="node">
<title>Node75</title>
<g id="a_node43"><a xlink:href="enhance_8h.html" target="_top" xlink:title=" ">
<polygon fill="white" stroke="black" points="2300,-168.5 2300,-187.5 2406,-187.5 2406,-168.5 2300,-168.5"/>
<text text-anchor="middle" x="2353" y="-175.5" font-family="FreeSans" font-size="10.00">magick/enhance.h</text>
</a>
</g>
</g>
<!-- Node1&#45;&gt;Node75 -->
<g id="edge63" class="edge">
<title>Node1&#45;&gt;Node75</title>
<path fill="none" stroke="midnightblue" d="M1891.23,-280.39C1925.83,-263.14 2000.95,-225.81 2007,-224 2126.76,-188.07 2162.04,-204.32 2286,-188 2287.28,-187.83 2288.57,-187.66 2289.87,-187.49"/>
<polygon fill="midnightblue" stroke="midnightblue" points="2290.52,-190.93 2299.97,-186.15 2289.6,-183.99 2290.52,-190.93"/>
</g>
<!-- Node76 -->
<g id="node44" class="node">
<title>Node76</title>
<g id="a_node44"><a xlink:href="list_8h.html" target="_top" xlink:title=" ">
<polygon fill="white" stroke="black" points="2016,-224.5 2016,-243.5 2096,-243.5 2096,-224.5 2016,-224.5"/>
<text text-anchor="middle" x="2056" y="-231.5" font-family="FreeSans" font-size="10.00">magick/list.h</text>
</a>
</g>
</g>
<!-- Node1&#45;&gt;Node76 -->
<g id="edge66" class="edge">
<title>Node1&#45;&gt;Node76</title>
<path fill="none" stroke="midnightblue" d="M1902.84,-280.44C1933.86,-271.24 1983.33,-256.56 2017.62,-246.39"/>
<polygon fill="midnightblue" stroke="midnightblue" points="2018.71,-249.72 2027.3,-243.52 2016.71,-243.01 2018.71,-249.72"/>
</g>
<!-- Node77 -->
<g id="node45" class="node">
<title>Node77</title>
<g id="a_node45"><a xlink:href="monitor-private_8h.html" target="_top" xlink:title=" ">
<polygon fill="white" stroke="black" points="2114.5,-224.5 2114.5,-243.5 2255.5,-243.5 2255.5,-224.5 2114.5,-224.5"/>
<text text-anchor="middle" x="2185" y="-231.5" font-family="FreeSans" font-size="10.00">magick/monitor&#45;private.h</text>
</a>
</g>
</g>
<!-- Node1&#45;&gt;Node77 -->
<g id="edge69" class="edge">
<title>Node1&#45;&gt;Node77</title>
<path fill="none" stroke="midnightblue" d="M1905.53,-283.53C1957.06,-274.58 2060.11,-256.69 2125.65,-245.31"/>
<polygon fill="midnightblue" stroke="midnightblue" points="2126.58,-248.7 2135.83,-243.54 2125.38,-241.8 2126.58,-248.7"/>
</g>
<!-- Node78 -->
<g id="node46" class="node">
<title>Node78</title>
<g id="a_node46"><a xlink:href="option_8h.html" target="_top" xlink:title=" ">
<polygon fill="white" stroke="black" points="2273.5,-224.5 2273.5,-243.5 2368.5,-243.5 2368.5,-224.5 2273.5,-224.5"/>
<text text-anchor="middle" x="2321" y="-231.5" font-family="FreeSans" font-size="10.00">magick/option.h</text>
</a>
</g>
</g>
<!-- Node1&#45;&gt;Node78 -->
<g id="edge70" class="edge">
<title>Node1&#45;&gt;Node78</title>
<path fill="none" stroke="midnightblue" d="M1905.74,-285.83C1970.84,-279.24 2124.4,-263.13 2263.38,-244.17"/>
<polygon fill="midnightblue" stroke="midnightblue" points="2263.93,-247.63 2273.36,-242.8 2262.98,-240.7 2263.93,-247.63"/>
</g>
<!-- Node79 -->
<g id="node47" class="node">
<title>Node79</title>
<g id="a_node47"><a xlink:href="string-private_8h.html" target="_top" xlink:title=" ">
<polygon fill="white" stroke="red" points="2386.5,-224.5 2386.5,-243.5 2517.5,-243.5 2517.5,-224.5 2386.5,-224.5"/>
<text text-anchor="middle" x="2452" y="-231.5" font-family="FreeSans" font-size="10.00">magick/string&#45;private.h</text>
</a>
</g>
</g>
<!-- Node1&#45;&gt;Node79 -->
<g id="edge73" class="edge">
<title>Node1&#45;&gt;Node79</title>
<path fill="none" stroke="midnightblue" d="M1905.58,-286.53C1983.59,-280.36 2191.85,-263.44 2376.1,-244.17"/>
<polygon fill="midnightblue" stroke="midnightblue" points="2376.67,-247.63 2386.24,-243.11 2375.93,-240.67 2376.67,-247.63"/>
</g>
<!-- Node81 -->
<g id="node48" class="node">
<title>Node81</title>
<g id="a_node48"><a xlink:href="token_8h.html" target="_top" xlink:title=" ">
<polygon fill="white" stroke="black" points="2536,-224.5 2536,-243.5 2628,-243.5 2628,-224.5 2536,-224.5"/>
<text text-anchor="middle" x="2582" y="-231.5" font-family="FreeSans" font-size="10.00">magick/token.h</text>
</a>
</g>
</g>
<!-- Node1&#45;&gt;Node81 -->
<g id="edge75" class="edge">
<title>Node1&#45;&gt;Node81</title>
<path fill="none" stroke="midnightblue" d="M1905.7,-287.87C1999.05,-284.3 2281.25,-271.94 2525.69,-244.05"/>
<polygon fill="midnightblue" stroke="midnightblue" points="2526.3,-247.5 2535.83,-242.88 2525.5,-240.54 2526.3,-247.5"/>
</g>
<!-- Node82 -->
<g id="node49" class="node">
<title>Node82</title>
<g id="a_node49"><a xlink:href="utility_8h.html" target="_top" xlink:title=" ">
<polygon fill="white" stroke="black" points="2646,-224.5 2646,-243.5 2738,-243.5 2738,-224.5 2646,-224.5"/>
<text text-anchor="middle" x="2692" y="-231.5" font-family="FreeSans" font-size="10.00">magick/utility.h</text>
</a>
</g>
</g>
<!-- Node1&#45;&gt;Node82 -->
<g id="edge76" class="edge">
<title>Node1&#45;&gt;Node82</title>
<path fill="none" stroke="midnightblue" d="M1905.72,-288.3C2009.18,-285.78 2346.41,-275.61 2635.57,-244.04"/>
<polygon fill="midnightblue" stroke="midnightblue" points="2636.28,-247.48 2645.83,-242.91 2635.51,-240.53 2636.28,-247.48"/>
</g>
<!-- Node83 -->
<g id="node50" class="node">
<title>Node83</title>
<g id="a_node50"><a xlink:href="version_8h.html" target="_top" xlink:title=" ">
<polygon fill="white" stroke="black" points="2756.5,-224.5 2756.5,-243.5 2857.5,-243.5 2857.5,-224.5 2756.5,-224.5"/>
<text text-anchor="middle" x="2807" y="-231.5" font-family="FreeSans" font-size="10.00">magick/version.h</text>
</a>
</g>
</g>
<!-- Node1&#45;&gt;Node83 -->
<g id="edge77" class="edge">
<title>Node1&#45;&gt;Node83</title>
<path fill="none" stroke="midnightblue" d="M1905.8,-288.48C2018.72,-286.39 2411.16,-277.13 2745.92,-244"/>
<polygon fill="midnightblue" stroke="midnightblue" points="2746.7,-247.44 2756.3,-242.96 2746.01,-240.47 2746.7,-247.44"/>
</g>
<!-- Node3 -->
<g id="node3" class="node">
<title>Node3</title>
<g id="a_node3"><a xlink:href="magick-config_8h.html" target="_top" xlink:title=" ">
<polygon fill="white" stroke="red" points="490,-0.5 490,-19.5 624,-19.5 624,-0.5 490,-0.5"/>
<text text-anchor="middle" x="557" y="-7.5" font-family="FreeSans" font-size="10.00">magick/magick&#45;config.h</text>
</a>
</g>
</g>
<!-- Node2&#45;&gt;Node3 -->
<g id="edge2" class="edge">
<title>Node2&#45;&gt;Node3</title>
<path fill="none" stroke="midnightblue" d="M738.3,-121.05C662.26,-119.99 518.85,-113 487,-76 470.04,-56.3 500.09,-36.35 525.95,-23.85"/>
<polygon fill="midnightblue" stroke="midnightblue" points="527.57,-26.96 535.19,-19.59 524.64,-20.6 527.57,-26.96"/>
</g>
<!-- Node5 -->
<g id="node4" class="node">
<title>Node5</title>
<g id="a_node4"><a xlink:title=" ">
<polygon fill="white" stroke="#bfbfbf" points="1457,-56.5 1457,-75.5 1513,-75.5 1513,-56.5 1457,-56.5"/>
<text text-anchor="middle" x="1485" y="-63.5" font-family="FreeSans" font-size="10.00">stdarg.h</text>
</a>
</g>
</g>
<!-- Node2&#45;&gt;Node5 -->
<g id="edge3" class="edge">
<title>Node2&#45;&gt;Node5</title>
<path fill="none" stroke="midnightblue" d="M833.68,-117.87C973.12,-108.7 1374.41,-82.2 1446.62,-75.5"/>
<polygon fill="midnightblue" stroke="midnightblue" points="1447.26,-78.95 1456.82,-74.38 1446.5,-71.99 1447.26,-78.95"/>
</g>
<!-- Node6 -->
<g id="node5" class="node">
<title>Node6</title>
<g id="a_node5"><a xlink:title=" ">
<polygon fill="white" stroke="#bfbfbf" points="726,-56.5 726,-75.5 776,-75.5 776,-56.5 726,-56.5"/>
<text text-anchor="middle" x="751" y="-63.5" font-family="FreeSans" font-size="10.00">stdio.h</text>
</a>
</g>
</g>
<!-- Node2&#45;&gt;Node6 -->
<g id="edge4" class="edge">
<title>Node2&#45;&gt;Node6</title>
<path fill="none" stroke="midnightblue" d="M780.22,-112.08C775.33,-104.53 768.17,-93.49 762.17,-84.23"/>
<polygon fill="midnightblue" stroke="midnightblue" points="765.05,-82.24 756.67,-75.75 759.17,-86.05 765.05,-82.24"/>
</g>
<!-- Node7 -->
<g id="node6" class="node">
<title>Node7</title>
<g id="a_node6"><a xlink:title=" ">
<polygon fill="white" stroke="#bfbfbf" points="794.5,-56.5 794.5,-75.5 847.5,-75.5 847.5,-56.5 794.5,-56.5"/>
<text text-anchor="middle" x="821" y="-63.5" font-family="FreeSans" font-size="10.00">ctype.h</text>
</a>
</g>
</g>
<!-- Node2&#45;&gt;Node7 -->
<g id="edge5" class="edge">
<title>Node2&#45;&gt;Node7</title>
<path fill="none" stroke="midnightblue" d="M791.78,-112.08C796.67,-104.53 803.83,-93.49 809.83,-84.23"/>
<polygon fill="midnightblue" stroke="midnightblue" points="812.83,-86.05 815.33,-75.75 806.95,-82.24 812.83,-86.05"/>
</g>
<!-- Node8 -->
<g id="node7" class="node">
<title>Node8</title>
<g id="a_node7"><a xlink:title=" ">
<polygon fill="white" stroke="#bfbfbf" points="865.5,-56.5 865.5,-75.5 920.5,-75.5 920.5,-56.5 865.5,-56.5"/>
<text text-anchor="middle" x="893" y="-63.5" font-family="FreeSans" font-size="10.00">locale.h</text>
</a>
</g>
</g>
<!-- Node2&#45;&gt;Node8 -->
<g id="edge6" class="edge">
<title>Node2&#45;&gt;Node8</title>
<path fill="none" stroke="midnightblue" d="M803.19,-112.32C820.35,-103.66 846.95,-90.24 866.75,-80.25"/>
<polygon fill="midnightblue" stroke="midnightblue" points="868.5,-83.28 875.85,-75.65 865.35,-77.04 868.5,-83.28"/>
</g>
<!-- Node9 -->
<g id="node8" class="node">
<title>Node9</title>
<g id="a_node8"><a xlink:title=" ">
<polygon fill="white" stroke="#bfbfbf" points="938.5,-56.5 938.5,-75.5 989.5,-75.5 989.5,-56.5 938.5,-56.5"/>
<text text-anchor="middle" x="964" y="-63.5" font-family="FreeSans" font-size="10.00">errno.h</text>
</a>
</g>
</g>
<!-- Node2&#45;&gt;Node9 -->
<g id="edge7" class="edge">
<title>Node2&#45;&gt;Node9</title>
<path fill="none" stroke="midnightblue" d="M814.2,-112.44C845.12,-103.06 894.78,-88 928.37,-77.81"/>
<polygon fill="midnightblue" stroke="midnightblue" points="929.69,-81.07 938.24,-74.82 927.65,-74.37 929.69,-81.07"/>
</g>
<!-- Node10 -->
<g id="node9" class="node">
<title>Node10</title>
<g id="a_node9"><a xlink:title=" ">
<polygon fill="white" stroke="#bfbfbf" points="1007.5,-56.5 1007.5,-75.5 1054.5,-75.5 1054.5,-56.5 1007.5,-56.5"/>
<text text-anchor="middle" x="1031" y="-63.5" font-family="FreeSans" font-size="10.00">fcntl.h</text>
</a>
</g>
</g>
<!-- Node2&#45;&gt;Node10 -->
<g id="edge8" class="edge">
<title>Node2&#45;&gt;Node10</title>
<path fill="none" stroke="midnightblue" d="M830.02,-112.42C870.91,-104.28 933.72,-91.34 997.43,-76.03"/>
<polygon fill="midnightblue" stroke="midnightblue" points="998.35,-79.41 1007.25,-73.65 996.71,-72.6 998.35,-79.41"/>
</g>
<!-- Node11 -->
<g id="node10" class="node">
<title>Node11</title>
<g id="a_node10"><a xlink:title=" ">
<polygon fill="white" stroke="#bfbfbf" points="1531.5,-56.5 1531.5,-75.5 1582.5,-75.5 1582.5,-56.5 1531.5,-56.5"/>
<text text-anchor="middle" x="1557" y="-63.5" font-family="FreeSans" font-size="10.00">math.h</text>
</a>
</g>
</g>
<!-- Node2&#45;&gt;Node11 -->
<g id="edge9" class="edge">
<title>Node2&#45;&gt;Node11</title>
<path fill="none" stroke="midnightblue" d="M833.62,-117.89C860.7,-116.14 895.25,-113.92 926,-112 1187.5,-95.7 1258.07,-116.69 1520.89,-75.85"/>
<polygon fill="midnightblue" stroke="midnightblue" points="1521.79,-79.25 1531.12,-74.24 1520.7,-72.34 1521.79,-79.25"/>
</g>
<!-- Node12 -->
<g id="node11" class="node">
<title>Node12</title>
<g id="a_node11"><a xlink:title=" ">
<polygon fill="white" stroke="#bfbfbf" points="0,-56.5 0,-75.5 48,-75.5 48,-56.5 0,-56.5"/>
<text text-anchor="middle" x="24" y="-63.5" font-family="FreeSans" font-size="10.00">time.h</text>
</a>
</g>
</g>
<!-- Node2&#45;&gt;Node12 -->
<g id="edge10" class="edge">
<title>Node2&#45;&gt;Node12</title>
<path fill="none" stroke="midnightblue" d="M738.29,-121.41C622.8,-121.7 319.11,-118.16 58.07,-75.82"/>
<polygon fill="midnightblue" stroke="midnightblue" points="58.46,-72.33 48.02,-74.16 57.32,-79.24 58.46,-72.33"/>
</g>
<!-- Node13 -->
<g id="node12" class="node">
<title>Node13</title>
<g id="a_node12"><a xlink:title=" ">
<polygon fill="white" stroke="#bfbfbf" points="1072.5,-56.5 1072.5,-75.5 1125.5,-75.5 1125.5,-56.5 1072.5,-56.5"/>
<text text-anchor="middle" x="1099" y="-63.5" font-family="FreeSans" font-size="10.00">limits.h</text>
</a>
</g>
</g>
<!-- Node2&#45;&gt;Node13 -->
<g id="edge11" class="edge">
<title>Node2&#45;&gt;Node13</title>
<path fill="none" stroke="midnightblue" d="M833.77,-114.48C887.09,-106.93 976.15,-93.5 1062.37,-75.98"/>
<polygon fill="midnightblue" stroke="midnightblue" points="1063.23,-79.37 1072.32,-73.93 1061.82,-72.52 1063.23,-79.37"/>
</g>
<!-- Node14 -->
<g id="node13" class="node">
<title>Node14</title>
<g id="a_node13"><a xlink:title=" ">
<polygon fill="white" stroke="#bfbfbf" points="1143.5,-56.5 1143.5,-75.5 1198.5,-75.5 1198.5,-56.5 1143.5,-56.5"/>
<text text-anchor="middle" x="1171" y="-63.5" font-family="FreeSans" font-size="10.00">signal.h</text>
</a>
</g>
</g>
<!-- Node2&#45;&gt;Node14 -->
<g id="edge12" class="edge">
<title>Node2&#45;&gt;Node14</title>
<path fill="none" stroke="midnightblue" d="M833.54,-116.53C898.88,-110.01 1020.26,-96.59 1133.33,-75.94"/>
<polygon fill="midnightblue" stroke="midnightblue" points="1133.99,-79.37 1143.19,-74.11 1132.72,-72.49 1133.99,-79.37"/>
</g>
<!-- Node15 -->
<g id="node14" class="node">
<title>Node15</title>
<g id="a_node14"><a xlink:title=" ">
<polygon fill="white" stroke="#bfbfbf" points="1217,-56.5 1217,-75.5 1273,-75.5 1273,-56.5 1217,-56.5"/>
<text text-anchor="middle" x="1245" y="-63.5" font-family="FreeSans" font-size="10.00">assert.h</text>
</a>
</g>
</g>
<!-- Node2&#45;&gt;Node15 -->
<g id="edge13" class="edge">
<title>Node2&#45;&gt;Node15</title>
<path fill="none" stroke="midnightblue" d="M833.62,-117.88C911.93,-112.3 1072.6,-99 1207,-76 1207.1,-75.98 1207.2,-75.97 1207.3,-75.95"/>
<polygon fill="midnightblue" stroke="midnightblue" points="1207.72,-79.43 1216.86,-74.08 1206.37,-72.56 1207.72,-79.43"/>
</g>
<!-- Node16 -->
<g id="node15" class="node">
<title>Node16</title>
<g id="a_node15"><a xlink:href="method-attribute_8h.html" target="_top" xlink:title=" ">
<polygon fill="white" stroke="black" points="1291,-56.5 1291,-75.5 1439,-75.5 1439,-56.5 1291,-56.5"/>
<text text-anchor="middle" x="1365" y="-63.5" font-family="FreeSans" font-size="10.00">magick/method&#45;attribute.h</text>
</a>
</g>
</g>
<!-- Node2&#45;&gt;Node16 -->
<g id="edge14" class="edge">
<title>Node2&#45;&gt;Node16</title>
<path fill="none" stroke="midnightblue" d="M833.56,-116.96C920.21,-109.55 1109.85,-93.05 1280.61,-76.12"/>
<polygon fill="midnightblue" stroke="midnightblue" points="1281.19,-79.58 1290.8,-75.11 1280.5,-72.62 1281.19,-79.58"/>
</g>
<!-- Node17 -->
<g id="node16" class="node">
<title>Node17</title>
<g id="a_node16"><a xlink:title=" ">
<polygon fill="white" stroke="#bfbfbf" points="66,-56.5 66,-75.5 138,-75.5 138,-56.5 66,-56.5"/>
<text text-anchor="middle" x="102" y="-63.5" font-family="FreeSans" font-size="10.00">sys/types.h</text>
</a>
</g>
</g>
<!-- Node2&#45;&gt;Node17 -->
<g id="edge15" class="edge">
<title>Node2&#45;&gt;Node17</title>
<path fill="none" stroke="midnightblue" d="M738.49,-119.72C633.68,-116.45 374.62,-105.92 148.35,-76.01"/>
<polygon fill="midnightblue" stroke="midnightblue" points="148.66,-72.52 138.28,-74.67 147.73,-79.46 148.66,-72.52"/>
</g>
<!-- Node18 -->
<g id="node17" class="node">
<title>Node18</title>
<g id="a_node17"><a xlink:title=" ">
<polygon fill="white" stroke="#bfbfbf" points="156,-56.5 156,-75.5 220,-75.5 220,-56.5 156,-56.5"/>
<text text-anchor="middle" x="188" y="-63.5" font-family="FreeSans" font-size="10.00">sys/stat.h</text>
</a>
</g>
</g>
<!-- Node2&#45;&gt;Node18 -->
<g id="edge16" class="edge">
<title>Node2&#45;&gt;Node18</title>
<path fill="none" stroke="midnightblue" d="M738.44,-119.33C643.57,-115.53 424.02,-104.39 230.24,-75.99"/>
<polygon fill="midnightblue" stroke="midnightblue" points="230.56,-72.5 220.15,-74.49 229.53,-79.42 230.56,-72.5"/>
</g>
<!-- Node19 -->
<g id="node18" class="node">
<title>Node19</title>
<g id="a_node18"><a xlink:title=" ">
<polygon fill="white" stroke="#bfbfbf" points="238,-56.5 238,-75.5 292,-75.5 292,-56.5 238,-56.5"/>
<text text-anchor="middle" x="265" y="-63.5" font-family="FreeSans" font-size="10.00">dirent.h</text>
</a>
</g>
</g>
<!-- Node2&#45;&gt;Node19 -->
<g id="edge17" class="edge">
<title>Node2&#45;&gt;Node19</title>
<path fill="none" stroke="midnightblue" d="M738.18,-118.98C652.62,-114.85 467.6,-103.53 302.38,-75.98"/>
<polygon fill="midnightblue" stroke="midnightblue" points="302.48,-72.45 292.03,-74.23 301.31,-79.35 302.48,-72.45"/>
</g>
<!-- Node20 -->
<g id="node19" class="node">
<title>Node20</title>
<g id="a_node19"><a xlink:title=" ">
<polygon fill="white" stroke="#bfbfbf" points="310,-56.5 310,-75.5 376,-75.5 376,-56.5 310,-56.5"/>
<text text-anchor="middle" x="343" y="-63.5" font-family="FreeSans" font-size="10.00">sys/wait.h</text>
</a>
</g>
</g>
<!-- Node2&#45;&gt;Node20 -->
<g id="edge18" class="edge">
<title>Node2&#45;&gt;Node20</title>
<path fill="none" stroke="midnightblue" d="M738.26,-117.19C664.74,-110.98 519.21,-97.35 386.36,-76.08"/>
<polygon fill="midnightblue" stroke="midnightblue" points="386.84,-72.62 376.41,-74.47 385.73,-79.53 386.84,-72.62"/>
</g>
<!-- Node21 -->
<g id="node20" class="node">
<title>Node21</title>
<g id="a_node20"><a xlink:title=" ">
<polygon fill="white" stroke="#bfbfbf" points="394,-56.5 394,-75.5 440,-75.5 440,-56.5 394,-56.5"/>
<text text-anchor="middle" x="417" y="-63.5" font-family="FreeSans" font-size="10.00">pwd.h</text>
</a>
</g>
</g>
<!-- Node2&#45;&gt;Node21 -->
<g id="edge19" class="edge">
<title>Node2&#45;&gt;Node21</title>
<path fill="none" stroke="midnightblue" d="M738.47,-116.13C673.79,-109.14 554.59,-95 454,-76 452.72,-75.76 451.42,-75.5 450.11,-75.23"/>
<polygon fill="midnightblue" stroke="midnightblue" points="450.53,-71.74 440.01,-72.99 449.02,-78.57 450.53,-71.74"/>
</g>
<!-- Node22 -->
<g id="node21" class="node">
<title>Node22</title>
<g id="a_node21"><a xlink:href="magick-type_8h.html" target="_top" xlink:title=" ">
<polygon fill="white" stroke="black" points="582,-56.5 582,-75.5 708,-75.5 708,-56.5 582,-56.5"/>
<text text-anchor="middle" x="645" y="-63.5" font-family="FreeSans" font-size="10.00">magick/magick&#45;type.h</text>
</a>
</g>
</g>
<!-- Node2&#45;&gt;Node22 -->
<g id="edge20" class="edge">
<title>Node2&#45;&gt;Node22</title>
<path fill="none" stroke="midnightblue" d="M763.66,-112.44C740.25,-103.48 703.26,-89.31 676.81,-79.18"/>
<polygon fill="midnightblue" stroke="midnightblue" points="677.83,-75.82 667.24,-75.52 675.32,-82.36 677.83,-75.82"/>
</g>
<!-- Node23 -->
<g id="node22" class="node">
<title>Node23</title>
<g id="a_node22"><a xlink:title=" ">
<polygon fill="white" stroke="#bfbfbf" points="496,-56.5 496,-75.5 564,-75.5 564,-56.5 496,-56.5"/>
<text text-anchor="middle" x="530" y="-63.5" font-family="FreeSans" font-size="10.00">sys/time.h</text>
</a>
</g>
</g>
<!-- Node2&#45;&gt;Node23 -->
<g id="edge22" class="edge">
<title>Node2&#45;&gt;Node23</title>
<path fill="none" stroke="midnightblue" d="M745.44,-112.44C698.71,-102.59 622.21,-86.45 574.05,-76.29"/>
<polygon fill="midnightblue" stroke="midnightblue" points="574.74,-72.86 564.23,-74.22 573.29,-79.71 574.74,-72.86"/>
</g>
<!-- Node22&#45;&gt;Node3 -->
<g id="edge21" class="edge">
<title>Node22&#45;&gt;Node3</title>
<path fill="none" stroke="midnightblue" d="M630.86,-56.32C617.13,-47.9 596.06,-34.97 579.94,-25.07"/>
<polygon fill="midnightblue" stroke="midnightblue" points="581.46,-21.9 571.1,-19.65 577.8,-27.87 581.46,-21.9"/>
</g>
<!-- Node24&#45;&gt;Node12 -->
<g id="edge24" class="edge">
<title>Node24&#45;&gt;Node12</title>
<path fill="none" stroke="midnightblue" d="M924.41,-225.72C854.32,-217.66 740.05,-203.71 642,-188 383.93,-146.65 316.59,-136.03 58.16,-76.14"/>
<polygon fill="midnightblue" stroke="midnightblue" points="58.63,-72.65 48.1,-73.8 57.05,-79.47 58.63,-72.65"/>
</g>
<!-- Node25 -->
<g id="node24" class="node">
<title>Node25</title>
<g id="a_node24"><a xlink:href="cache_8h.html" target="_top" xlink:title=" ">
<polygon fill="white" stroke="red" points="1108.5,-112.5 1108.5,-131.5 1201.5,-131.5 1201.5,-112.5 1108.5,-112.5"/>
<text text-anchor="middle" x="1155" y="-119.5" font-family="FreeSans" font-size="10.00">magick/cache.h</text>
</a>
</g>
</g>
<!-- Node24&#45;&gt;Node25 -->
<g id="edge25" class="edge">
<title>Node24&#45;&gt;Node25</title>
<path fill="none" stroke="midnightblue" d="M1041.33,-224.44C1067.24,-217.99 1097.81,-206.88 1120,-188 1134.31,-175.82 1143.71,-156.27 1149.13,-141.79"/>
<polygon fill="midnightblue" stroke="midnightblue" points="1152.59,-142.5 1152.51,-131.91 1145.96,-140.23 1152.59,-142.5"/>
</g>
<!-- Node52 -->
<g id="node25" class="node">
<title>Node52</title>
<g id="a_node25"><a xlink:href="distribute-cache_8h.html" target="_top" xlink:title=" ">
<polygon fill="white" stroke="red" points="968.5,-168.5 968.5,-187.5 1111.5,-187.5 1111.5,-168.5 968.5,-168.5"/>
<text text-anchor="middle" x="1040" y="-175.5" font-family="FreeSans" font-size="10.00">magick/distribute&#45;cache.h</text>
</a>
</g>
</g>
<!-- Node24&#45;&gt;Node52 -->
<g id="edge26" class="edge">
<title>Node24&#45;&gt;Node52</title>
<path fill="none" stroke="midnightblue" d="M998.26,-224.08C1005.46,-216.3 1016.11,-204.8 1024.85,-195.37"/>
<polygon fill="midnightblue" stroke="midnightblue" points="1027.67,-197.47 1031.9,-187.75 1022.53,-192.71 1027.67,-197.47"/>
</g>
<!-- Node53 -->
<g id="node26" class="node">
<title>Node53</title>
<g id="a_node26"><a xlink:href="opencl-private_8h.html" target="_top" xlink:title=" ">
<polygon fill="white" stroke="red" points="776.5,-168.5 776.5,-187.5 911.5,-187.5 911.5,-168.5 776.5,-168.5"/>
<text text-anchor="middle" x="844" y="-175.5" font-family="FreeSans" font-size="10.00">magick/opencl&#45;private.h</text>
</a>
</g>
</g>
<!-- Node24&#45;&gt;Node53 -->
<g id="edge27" class="edge">
<title>Node24&#45;&gt;Node53</title>
<path fill="none" stroke="midnightblue" d="M966.87,-224.44C942.52,-215.44 903.99,-201.19 876.58,-191.05"/>
<polygon fill="midnightblue" stroke="midnightblue" points="877.62,-187.7 867.03,-187.52 875.19,-194.27 877.62,-187.7"/>
</g>
<!-- Node55 -->
<g id="node27" class="node">
<title>Node55</title>
<g id="a_node27"><a xlink:href="random___8h.html" target="_top" xlink:title=" ">
<polygon fill="white" stroke="red" points="651.5,-168.5 651.5,-187.5 758.5,-187.5 758.5,-168.5 651.5,-168.5"/>
<text text-anchor="middle" x="705" y="-175.5" font-family="FreeSans" font-size="10.00">magick/random_.h</text>
</a>
</g>
</g>
<!-- Node24&#45;&gt;Node55 -->
<g id="edge29" class="edge">
<title>Node24&#45;&gt;Node55</title>
<path fill="none" stroke="midnightblue" d="M944.84,-224.44C894.71,-214.94 813.78,-199.61 759.99,-189.42"/>
<polygon fill="midnightblue" stroke="midnightblue" points="760.42,-185.94 749.95,-187.52 759.12,-192.82 760.42,-185.94"/>
</g>
<!-- Node24&#45;&gt;Node56 -->
<g id="edge30" class="edge">
<title>Node24&#45;&gt;Node56</title>
<path fill="none" stroke="midnightblue" d="M1028.82,-224.44C1071.56,-215.02 1140.33,-199.87 1186.57,-189.68"/>
<polygon fill="midnightblue" stroke="midnightblue" points="1187.35,-193.09 1196.36,-187.52 1185.84,-186.25 1187.35,-193.09"/>
</g>
<!-- Node33 -->
<g id="node31" class="node">
<title>Node33</title>
<g id="a_node31"><a xlink:href="semaphore_8h.html" target="_top" xlink:title=" ">
<polygon fill="white" stroke="black" points="1870.5,-56.5 1870.5,-75.5 1989.5,-75.5 1989.5,-56.5 1870.5,-56.5"/>
<text text-anchor="middle" x="1930" y="-63.5" font-family="FreeSans" font-size="10.00">magick/semaphore.h</text>
</a>
</g>
</g>
<!-- Node24&#45;&gt;Node33 -->
<g id="edge34" class="edge">
<title>Node24&#45;&gt;Node33</title>
<path fill="none" stroke="midnightblue" d="M980.09,-224.14C966.83,-211.2 946.38,-186.64 959,-168 996.57,-112.51 1033.56,-126.45 1099,-112 1172.26,-95.83 1673.64,-76.28 1860.24,-69.47"/>
<polygon fill="midnightblue" stroke="midnightblue" points="1860.61,-72.96 1870.48,-69.1 1860.36,-65.97 1860.61,-72.96"/>
</g>
<!-- Node53&#45;&gt;Node2 -->
<g id="edge28" class="edge">
<title>Node53&#45;&gt;Node2</title>
<path fill="none" stroke="midnightblue" d="M834.68,-168.32C826.11,-160.34 813.19,-148.31 802.81,-138.65"/>
<polygon fill="midnightblue" stroke="midnightblue" points="805.19,-136.09 795.49,-131.83 800.42,-141.21 805.19,-136.09"/>
</g>
<!-- Node56&#45;&gt;Node25 -->
<g id="edge31" class="edge">
<title>Node56&#45;&gt;Node25</title>
<path fill="none" stroke="midnightblue" d="M1222.15,-168.32C1209.78,-159.98 1190.87,-147.21 1176.26,-137.35"/>
<polygon fill="midnightblue" stroke="midnightblue" points="1178.07,-134.35 1167.82,-131.65 1174.15,-140.15 1178.07,-134.35"/>
</g>
<!-- Node57 -->
<g id="node29" class="node">
<title>Node57</title>
<g id="a_node29"><a xlink:href="image-private_8h.html" target="_top" xlink:title=" ">
<polygon fill="white" stroke="black" points="1680,-112.5 1680,-131.5 1814,-131.5 1814,-112.5 1680,-112.5"/>
<text text-anchor="middle" x="1747" y="-119.5" font-family="FreeSans" font-size="10.00">magick/image&#45;private.h</text>
</a>
</g>
</g>
<!-- Node56&#45;&gt;Node57 -->
<g id="edge32" class="edge">
<title>Node56&#45;&gt;Node57</title>
<path fill="none" stroke="midnightblue" d="M1302.2,-169.91C1397.02,-159.91 1569.65,-141.71 1669.68,-131.16"/>
<polygon fill="midnightblue" stroke="midnightblue" points="1670.14,-134.63 1679.72,-130.1 1669.41,-127.66 1670.14,-134.63"/>
</g>
<!-- Node56&#45;&gt;Node58 -->
<g id="edge33" class="edge">
<title>Node56&#45;&gt;Node58</title>
<path fill="none" stroke="midnightblue" d="M1246.09,-168.32C1256.49,-160.18 1272.26,-147.84 1284.72,-138.09"/>
<polygon fill="midnightblue" stroke="midnightblue" points="1286.99,-140.75 1292.71,-131.83 1282.68,-135.24 1286.99,-140.75"/>
</g>
<!-- Node60&#45;&gt;Node27 -->
<g id="edge36" class="edge">
<title>Node60&#45;&gt;Node27</title>
<path fill="none" stroke="midnightblue" d="M1994.37,-168.32C2006.16,-160.06 2024.13,-147.45 2038.14,-137.63"/>
<polygon fill="midnightblue" stroke="midnightblue" points="2040.48,-140.26 2046.66,-131.65 2036.46,-134.53 2040.48,-140.26"/>
</g>
<!-- Node27&#45;&gt;Node33 -->
<g id="edge41" class="edge">
<title>Node27&#45;&gt;Node33</title>
<path fill="none" stroke="midnightblue" d="M2038.56,-112.44C2017.33,-103.56 1983.9,-89.56 1959.75,-79.45"/>
<polygon fill="midnightblue" stroke="midnightblue" points="1960.92,-76.15 1950.34,-75.52 1958.22,-82.61 1960.92,-76.15"/>
</g>
<!-- Node28 -->
<g id="node34" class="node">
<title>Node28</title>
<g id="a_node34"><a xlink:href="color_8h.html" target="_top" xlink:title=" ">
<polygon fill="white" stroke="red" points="2166,-56.5 2166,-75.5 2254,-75.5 2254,-56.5 2166,-56.5"/>
<text text-anchor="middle" x="2210" y="-63.5" font-family="FreeSans" font-size="10.00">magick/color.h</text>
</a>
</g>
</g>
<!-- Node27&#45;&gt;Node28 -->
<g id="edge37" class="edge">
<title>Node27&#45;&gt;Node28</title>
<path fill="none" stroke="midnightblue" d="M2082.93,-112.44C2108.22,-103.4 2148.3,-89.06 2176.68,-78.92"/>
<polygon fill="midnightblue" stroke="midnightblue" points="2177.95,-82.18 2186.19,-75.52 2175.59,-75.59 2177.95,-82.18"/>
</g>
<!-- Node29 -->
<g id="node35" class="node">
<title>Node29</title>
<g id="a_node35"><a xlink:href="pixel_8h.html" target="_top" xlink:title=" ">
<polygon fill="white" stroke="red" points="2094,-0.5 2094,-19.5 2182,-19.5 2182,-0.5 2094,-0.5"/>
<text text-anchor="middle" x="2138" y="-7.5" font-family="FreeSans" font-size="10.00">magick/pixel.h</text>
</a>
</g>
</g>
<!-- Node27&#45;&gt;Node29 -->
<g id="edge40" class="edge">
<title>Node27&#45;&gt;Node29</title>
<path fill="none" stroke="midnightblue" d="M2075.89,-112.35C2089.44,-104.58 2107.95,-91.95 2119,-76 2128.52,-62.26 2133.33,-43.73 2135.72,-29.97"/>
<polygon fill="midnightblue" stroke="midnightblue" points="2139.23,-30.15 2137.21,-19.74 2132.3,-29.13 2139.23,-30.15"/>
</g>
<!-- Node27&#45;&gt;Node43 -->
<g id="edge39" class="edge">
<title>Node27&#45;&gt;Node43</title>
<path fill="none" stroke="midnightblue" d="M2059,-112.08C2059,-105.01 2059,-94.86 2059,-85.99"/>
<polygon fill="midnightblue" stroke="midnightblue" points="2062.5,-85.75 2059,-75.75 2055.5,-85.75 2062.5,-85.75"/>
</g>
<!-- Node28&#45;&gt;Node29 -->
<g id="edge38" class="edge">
<title>Node28&#45;&gt;Node29</title>
<path fill="none" stroke="midnightblue" d="M2198.43,-56.32C2187.58,-48.18 2171.12,-35.84 2158.12,-26.09"/>
<polygon fill="midnightblue" stroke="midnightblue" points="2159.88,-23.03 2149.78,-19.83 2155.68,-28.63 2159.88,-23.03"/>
</g>
<!-- Node61&#45;&gt;Node57 -->
<g id="edge44" class="edge">
<title>Node61&#45;&gt;Node57</title>
<path fill="none" stroke="midnightblue" d="M1733.9,-224.11C1721.34,-211.91 1702.44,-189.1 1710,-168 1713.94,-157 1721.86,-146.77 1729.36,-138.85"/>
<polygon fill="midnightblue" stroke="midnightblue" points="1731.89,-141.27 1736.56,-131.76 1726.98,-136.28 1731.89,-141.27"/>
</g>
<!-- Node61&#45;&gt;Node27 -->
<g id="edge43" class="edge">
<title>Node61&#45;&gt;Node27</title>
<path fill="none" stroke="midnightblue" d="M1775.16,-224.47C1803.67,-216.3 1846.81,-203.02 1883,-188 1900.99,-180.53 1904.02,-175.51 1922,-168 1953.89,-154.68 1991.23,-142.64 2018.86,-134.37"/>
<polygon fill="midnightblue" stroke="midnightblue" points="2019.97,-137.69 2028.57,-131.5 2017.99,-130.98 2019.97,-137.69"/>
</g>
<!-- Node61&#45;&gt;Node28 -->
<g id="edge45" class="edge">
<title>Node61&#45;&gt;Node28</title>
<path fill="none" stroke="midnightblue" d="M1807.74,-229.17C1933.25,-221.31 2201.48,-202.87 2215,-188 2240.48,-159.97 2227.62,-111.46 2217.76,-85.18"/>
<polygon fill="midnightblue" stroke="midnightblue" points="2220.93,-83.68 2213.97,-75.7 2214.43,-86.28 2220.93,-83.68"/>
</g>
<!-- Node61&#45;&gt;Node62 -->
<g id="edge46" class="edge">
<title>Node61&#45;&gt;Node62</title>
<path fill="none" stroke="midnightblue" d="M1752.59,-224.08C1760.16,-216.22 1771.38,-204.57 1780.51,-195.08"/>
<polygon fill="midnightblue" stroke="midnightblue" points="1783.16,-197.38 1787.57,-187.75 1778.12,-192.53 1783.16,-197.38"/>
</g>
<!-- Node61&#45;&gt;Node63 -->
<g id="edge56" class="edge">
<title>Node61&#45;&gt;Node63</title>
<path fill="none" stroke="midnightblue" d="M1729.33,-224.37C1697.1,-205.41 1619.9,-160 1580.7,-136.94"/>
<polygon fill="midnightblue" stroke="midnightblue" points="1582,-133.64 1571.61,-131.59 1578.45,-139.68 1582,-133.64"/>
</g>
<!-- Node61&#45;&gt;Node68 -->
<g id="edge53" class="edge">
<title>Node61&#45;&gt;Node68</title>
<path fill="none" stroke="midnightblue" d="M1700.9,-224.44C1653.15,-214.96 1576.14,-199.67 1524.81,-189.48"/>
<polygon fill="midnightblue" stroke="midnightblue" points="1525.39,-186.03 1514.9,-187.52 1524.02,-192.9 1525.39,-186.03"/>
</g>
<!-- Node62&#45;&gt;Node57 -->
<g id="edge48" class="edge">
<title>Node62&#45;&gt;Node57</title>
<path fill="none" stroke="midnightblue" d="M1787.91,-168.08C1780.84,-160.3 1770.41,-148.8 1761.85,-139.37"/>
<polygon fill="midnightblue" stroke="midnightblue" points="1764.25,-136.8 1754.94,-131.75 1759.07,-141.51 1764.25,-136.8"/>
</g>
<!-- Node62&#45;&gt;Node27 -->
<g id="edge47" class="edge">
<title>Node62&#45;&gt;Node27</title>
<path fill="none" stroke="midnightblue" d="M1837.67,-168.44C1883.75,-158.98 1958,-143.74 2007.63,-133.55"/>
<polygon fill="midnightblue" stroke="midnightblue" points="2008.43,-136.96 2017.52,-131.52 2007.02,-130.1 2008.43,-136.96"/>
</g>
<!-- Node62&#45;&gt;Node29 -->
<g id="edge49" class="edge">
<title>Node62&#45;&gt;Node29</title>
<path fill="none" stroke="midnightblue" d="M1801.35,-168.47C1806.92,-159.49 1815.83,-144.9 1823,-132 1841.44,-98.82 1831.3,-78.34 1862,-56 1896.51,-30.88 2013.84,-19.04 2083.93,-14.08"/>
<polygon fill="midnightblue" stroke="midnightblue" points="2084.17,-17.58 2093.91,-13.4 2083.7,-10.59 2084.17,-17.58"/>
</g>
<!-- Node62&#45;&gt;Node63 -->
<g id="edge50" class="edge">
<title>Node62&#45;&gt;Node63</title>
<path fill="none" stroke="midnightblue" d="M1758.13,-168.44C1716.52,-159.04 1649.63,-143.93 1604.53,-133.74"/>
<polygon fill="midnightblue" stroke="midnightblue" points="1605.22,-130.31 1594.69,-131.52 1603.68,-137.13 1605.22,-130.31"/>
</g>
<!-- Node63&#45;&gt;Node11 -->
<g id="edge51" class="edge">
<title>Node63&#45;&gt;Node11</title>
<path fill="none" stroke="midnightblue" d="M1557,-112.08C1557,-105.01 1557,-94.86 1557,-85.99"/>
<polygon fill="midnightblue" stroke="midnightblue" points="1560.5,-85.75 1557,-75.75 1553.5,-85.75 1560.5,-85.75"/>
</g>
<!-- Node63&#45;&gt;Node29 -->
<g id="edge52" class="edge">
<title>Node63&#45;&gt;Node29</title>
<path fill="none" stroke="midnightblue" d="M1588.5,-112.45C1638.82,-99.03 1740.57,-72.79 1828,-56 1917.17,-38.87 2021.88,-24.95 2083.94,-17.33"/>
<polygon fill="midnightblue" stroke="midnightblue" points="2084.39,-20.8 2093.9,-16.12 2083.55,-13.85 2084.39,-20.8"/>
</g>
<!-- Node68&#45;&gt;Node69 -->
<g id="edge54" class="edge">
<title>Node68&#45;&gt;Node69</title>
<path fill="none" stroke="midnightblue" d="M1465.39,-168.08C1459.74,-160.46 1451.46,-149.26 1444.55,-139.94"/>
<polygon fill="midnightblue" stroke="midnightblue" points="1447.25,-137.7 1438.48,-131.75 1441.62,-141.87 1447.25,-137.7"/>
</g>
<!-- Node69&#45;&gt;Node5 -->
<g id="edge55" class="edge">
<title>Node69&#45;&gt;Node5</title>
<path fill="none" stroke="midnightblue" d="M1440.75,-112.08C1448.47,-104.22 1459.9,-92.57 1469.22,-83.08"/>
<polygon fill="midnightblue" stroke="midnightblue" points="1471.9,-85.34 1476.41,-75.75 1466.91,-80.44 1471.9,-85.34"/>
</g>
<!-- Node71&#45;&gt;Node57 -->
<g id="edge61" class="edge">
<title>Node71&#45;&gt;Node57</title>
<path fill="none" stroke="midnightblue" d="M2068.47,-168.44C2000.3,-158.81 1889.64,-143.16 1817.59,-132.98"/>
<polygon fill="midnightblue" stroke="midnightblue" points="1817.64,-129.45 1807.25,-131.52 1816.66,-136.38 1817.64,-129.45"/>
</g>
<!-- Node71&#45;&gt;Node27 -->
<g id="edge60" class="edge">
<title>Node71&#45;&gt;Node27</title>
<path fill="none" stroke="midnightblue" d="M2117.75,-168.32C2107.2,-160.18 2091.2,-147.84 2078.56,-138.09"/>
<polygon fill="midnightblue" stroke="midnightblue" points="2080.51,-135.17 2070.45,-131.83 2076.23,-140.71 2080.51,-135.17"/>
</g>
<!-- Node71&#45;&gt;Node28 -->
<g id="edge59" class="edge">
<title>Node71&#45;&gt;Node28</title>
<path fill="none" stroke="midnightblue" d="M2135.36,-168.37C2148.78,-150.14 2180.23,-107.43 2197.72,-83.68"/>
<polygon fill="midnightblue" stroke="midnightblue" points="2200.56,-85.72 2203.67,-75.59 2194.93,-81.57 2200.56,-85.72"/>
</g>
<!-- Node75&#45;&gt;Node29 -->
<g id="edge64" class="edge">
<title>Node75&#45;&gt;Node29</title>
<path fill="none" stroke="midnightblue" d="M2348.84,-168.31C2337.89,-146.33 2306.1,-87.98 2263,-56 2241.35,-39.93 2213.41,-29.16 2189.44,-22.19"/>
<polygon fill="midnightblue" stroke="midnightblue" points="2190.35,-18.81 2179.78,-19.52 2188.49,-25.56 2190.35,-18.81"/>
</g>
</g>
</svg>
