<?xml version="1.0" encoding="UTF-8" standalone="no"?>
<!DOCTYPE svg PUBLIC "-//W3C//DTD SVG 1.1//EN"
 "http://www.w3.org/Graphics/SVG/1.1/DTD/svg11.dtd">
<!-- Generated by graphviz version 2.43.0 (0)
 -->
<!-- Title: channel.h Pages: 1 -->
<svg width="1787pt" height="140pt"
 viewBox="0.00 0.00 1786.50 140.00" xmlns="http://www.w3.org/2000/svg" xmlns:xlink="http://www.w3.org/1999/xlink">
<g id="graph0" class="graph" transform="scale(1 1) rotate(0) translate(4 136)">
<title>channel.h</title>
<polygon fill="white" stroke="transparent" points="-4,4 -4,-136 1782.5,-136 1782.5,4 -4,4"/>
<!-- Node1 -->
<g id="node1" class="node">
<title>Node1</title>
<g id="a_node1"><a xlink:title=" ">
<polygon fill="#bfbfbf" stroke="black" points="946,-112.5 946,-131.5 1010,-131.5 1010,-112.5 946,-112.5"/>
<text text-anchor="middle" x="978" y="-119.5" font-family="FreeSans" font-size="10.00">channel.h</text>
</a>
</g>
</g>
<!-- Node2 -->
<g id="node2" class="node">
<title>Node2</title>
<g id="a_node2"><a xlink:href="MagickCore_8h.html" target="_top" xlink:title=" ">
<polygon fill="white" stroke="black" points="89.5,-56.5 89.5,-75.5 172.5,-75.5 172.5,-56.5 89.5,-56.5"/>
<text text-anchor="middle" x="131" y="-63.5" font-family="FreeSans" font-size="10.00">MagickCore.h</text>
</a>
</g>
</g>
<!-- Node1&#45;&gt;Node2 -->
<g id="edge1" class="edge">
<title>Node1&#45;&gt;Node2</title>
<path fill="none" stroke="midnightblue" d="M935.49,-120.36C816.26,-118.2 468.61,-109.27 182,-76 178.96,-75.65 175.83,-75.23 172.69,-74.77"/>
<polygon fill="midnightblue" stroke="midnightblue" points="935.6,-123.87 945.66,-120.54 935.72,-116.87 935.6,-123.87"/>
</g>
<!-- Node6 -->
<g id="node6" class="node">
<title>Node6</title>
<g id="a_node6"><a xlink:href="annotate_8c.html" target="_top" xlink:title=" ">
<polygon fill="white" stroke="black" points="191,-56.5 191,-75.5 259,-75.5 259,-56.5 191,-56.5"/>
<text text-anchor="middle" x="225" y="-63.5" font-family="FreeSans" font-size="10.00">annotate.c</text>
</a>
</g>
</g>
<!-- Node1&#45;&gt;Node6 -->
<g id="edge5" class="edge">
<title>Node1&#45;&gt;Node6</title>
<path fill="none" stroke="midnightblue" d="M935.63,-120.35C825.33,-118.23 520.38,-109.52 269,-76 265.75,-75.57 262.39,-75.03 259.03,-74.45"/>
<polygon fill="midnightblue" stroke="midnightblue" points="935.63,-123.85 945.69,-120.54 935.76,-116.85 935.63,-123.85"/>
</g>
<!-- Node7 -->
<g id="node7" class="node">
<title>Node7</title>
<g id="a_node7"><a xlink:href="attribute_8c.html" target="_top" xlink:title=" ">
<polygon fill="white" stroke="black" points="277.5,-56.5 277.5,-75.5 344.5,-75.5 344.5,-56.5 277.5,-56.5"/>
<text text-anchor="middle" x="311" y="-63.5" font-family="FreeSans" font-size="10.00">attribute.c</text>
</a>
</g>
</g>
<!-- Node1&#45;&gt;Node7 -->
<g id="edge6" class="edge">
<title>Node1&#45;&gt;Node7</title>
<path fill="none" stroke="midnightblue" d="M935.57,-119.9C834.43,-116.87 571.39,-106.45 354,-76 350.98,-75.58 347.85,-75.07 344.73,-74.51"/>
<polygon fill="midnightblue" stroke="midnightblue" points="935.59,-123.41 945.69,-120.2 935.8,-116.41 935.59,-123.41"/>
</g>
<!-- Node8 -->
<g id="node8" class="node">
<title>Node8</title>
<g id="a_node8"><a xlink:href="channel_8c.html" target="_top" xlink:title=" ">
<polygon fill="white" stroke="black" points="362.5,-56.5 362.5,-75.5 425.5,-75.5 425.5,-56.5 362.5,-56.5"/>
<text text-anchor="middle" x="394" y="-63.5" font-family="FreeSans" font-size="10.00">channel.c</text>
</a>
</g>
</g>
<!-- Node1&#45;&gt;Node8 -->
<g id="edge7" class="edge">
<title>Node1&#45;&gt;Node8</title>
<path fill="none" stroke="midnightblue" d="M935.69,-119.42C844.01,-115.56 620.32,-103.89 435,-76 431.97,-75.54 428.84,-75 425.71,-74.4"/>
<polygon fill="midnightblue" stroke="midnightblue" points="935.56,-122.91 945.69,-119.83 935.85,-115.92 935.56,-122.91"/>
</g>
<!-- Node9 -->
<g id="node9" class="node">
<title>Node9</title>
<g id="a_node9"><a xlink:href="compare_8c.html" target="_top" xlink:title=" ">
<polygon fill="white" stroke="black" points="444,-56.5 444,-75.5 512,-75.5 512,-56.5 444,-56.5"/>
<text text-anchor="middle" x="478" y="-63.5" font-family="FreeSans" font-size="10.00">compare.c</text>
</a>
</g>
</g>
<!-- Node1&#45;&gt;Node9 -->
<g id="edge8" class="edge">
<title>Node1&#45;&gt;Node9</title>
<path fill="none" stroke="midnightblue" d="M935.72,-118.37C854.85,-113.01 672.77,-99.29 521,-76 518.14,-75.56 515.17,-75.05 512.21,-74.51"/>
<polygon fill="midnightblue" stroke="midnightblue" points="935.79,-121.88 945.99,-119.04 936.24,-114.9 935.79,-121.88"/>
</g>
<!-- Node10 -->
<g id="node10" class="node">
<title>Node10</title>
<g id="a_node10"><a xlink:href="composite_8c.html" target="_top" xlink:title=" ">
<polygon fill="white" stroke="black" points="530,-56.5 530,-75.5 606,-75.5 606,-56.5 530,-56.5"/>
<text text-anchor="middle" x="568" y="-63.5" font-family="FreeSans" font-size="10.00">composite.c</text>
</a>
</g>
</g>
<!-- Node1&#45;&gt;Node10 -->
<g id="edge9" class="edge">
<title>Node1&#45;&gt;Node10</title>
<path fill="none" stroke="midnightblue" d="M935.56,-116.66C867.67,-109.5 730.52,-94.2 615,-76 612.13,-75.55 609.16,-75.05 606.18,-74.53"/>
<polygon fill="midnightblue" stroke="midnightblue" points="935.54,-120.17 945.85,-117.73 936.27,-113.21 935.54,-120.17"/>
</g>
<!-- Node11 -->
<g id="node11" class="node">
<title>Node11</title>
<g id="a_node11"><a xlink:href="decorate_8c.html" target="_top" xlink:title=" ">
<polygon fill="white" stroke="black" points="624,-56.5 624,-75.5 692,-75.5 692,-56.5 624,-56.5"/>
<text text-anchor="middle" x="658" y="-63.5" font-family="FreeSans" font-size="10.00">decorate.c</text>
</a>
</g>
</g>
<!-- Node1&#45;&gt;Node11 -->
<g id="edge10" class="edge">
<title>Node1&#45;&gt;Node11</title>
<path fill="none" stroke="midnightblue" d="M935.97,-114.78C881.61,-106.59 784.03,-91.42 701,-76 698.15,-75.47 695.2,-74.9 692.24,-74.31"/>
<polygon fill="midnightblue" stroke="midnightblue" points="935.52,-118.25 945.93,-116.27 936.56,-111.33 935.52,-118.25"/>
</g>
<!-- Node12 -->
<g id="node12" class="node">
<title>Node12</title>
<g id="a_node12"><a xlink:href="deprecate_8c.html" target="_top" xlink:title=" ">
<polygon fill="white" stroke="black" points="710,-56.5 710,-75.5 784,-75.5 784,-56.5 710,-56.5"/>
<text text-anchor="middle" x="747" y="-63.5" font-family="FreeSans" font-size="10.00">deprecate.c</text>
</a>
</g>
</g>
<!-- Node1&#45;&gt;Node12 -->
<g id="edge11" class="edge">
<title>Node1&#45;&gt;Node12</title>
<path fill="none" stroke="midnightblue" d="M935.87,-111.15C892.25,-100.96 824.8,-85.19 783.41,-75.51"/>
<polygon fill="midnightblue" stroke="midnightblue" points="935.35,-114.62 945.88,-113.49 936.94,-107.81 935.35,-114.62"/>
</g>
<!-- Node13 -->
<g id="node13" class="node">
<title>Node13</title>
<g id="a_node13"><a xlink:href="display_8c.html" target="_top" xlink:title=" ">
<polygon fill="white" stroke="black" points="802.5,-56.5 802.5,-75.5 861.5,-75.5 861.5,-56.5 802.5,-56.5"/>
<text text-anchor="middle" x="832" y="-63.5" font-family="FreeSans" font-size="10.00">display.c</text>
</a>
</g>
</g>
<!-- Node1&#45;&gt;Node13 -->
<g id="edge12" class="edge">
<title>Node1&#45;&gt;Node13</title>
<path fill="none" stroke="midnightblue" d="M945.3,-108.91C917.85,-98.75 879.33,-84.51 855.03,-75.52"/>
<polygon fill="midnightblue" stroke="midnightblue" points="944.27,-112.26 954.87,-112.44 946.7,-105.69 944.27,-112.26"/>
</g>
<!-- Node14 -->
<g id="node14" class="node">
<title>Node14</title>
<g id="a_node14"><a xlink:href="distort_8c.html" target="_top" xlink:title=" ">
<polygon fill="white" stroke="black" points="880,-56.5 880,-75.5 936,-75.5 936,-56.5 880,-56.5"/>
<text text-anchor="middle" x="908" y="-63.5" font-family="FreeSans" font-size="10.00">distort.c</text>
</a>
</g>
</g>
<!-- Node1&#45;&gt;Node14 -->
<g id="edge13" class="edge">
<title>Node1&#45;&gt;Node14</title>
<path fill="none" stroke="midnightblue" d="M958.69,-106.1C946.09,-96.38 930.07,-84.03 919.45,-75.83"/>
<polygon fill="midnightblue" stroke="midnightblue" points="956.7,-108.99 966.75,-112.32 960.97,-103.44 956.7,-108.99"/>
</g>
<!-- Node15 -->
<g id="node15" class="node">
<title>Node15</title>
<g id="a_node15"><a xlink:href="draw_8c.html" target="_top" xlink:title=" ">
<polygon fill="white" stroke="black" points="954,-56.5 954,-75.5 1002,-75.5 1002,-56.5 954,-56.5"/>
<text text-anchor="middle" x="978" y="-63.5" font-family="FreeSans" font-size="10.00">draw.c</text>
</a>
</g>
</g>
<!-- Node1&#45;&gt;Node15 -->
<g id="edge14" class="edge">
<title>Node1&#45;&gt;Node15</title>
<path fill="none" stroke="midnightblue" d="M978,-101.8C978,-92.91 978,-82.78 978,-75.75"/>
<polygon fill="midnightblue" stroke="midnightblue" points="974.5,-102.08 978,-112.08 981.5,-102.08 974.5,-102.08"/>
</g>
<!-- Node16 -->
<g id="node16" class="node">
<title>Node16</title>
<g id="a_node16"><a xlink:href="enhance_8c.html" target="_top" xlink:title=" ">
<polygon fill="white" stroke="black" points="1020,-56.5 1020,-75.5 1086,-75.5 1086,-56.5 1020,-56.5"/>
<text text-anchor="middle" x="1053" y="-63.5" font-family="FreeSans" font-size="10.00">enhance.c</text>
</a>
</g>
</g>
<!-- Node1&#45;&gt;Node16 -->
<g id="edge15" class="edge">
<title>Node1&#45;&gt;Node16</title>
<path fill="none" stroke="midnightblue" d="M998.31,-106.38C1011.86,-96.62 1029.24,-84.11 1040.73,-75.83"/>
<polygon fill="midnightblue" stroke="midnightblue" points="996.12,-103.64 990.05,-112.32 1000.21,-109.32 996.12,-103.64"/>
</g>
<!-- Node17 -->
<g id="node17" class="node">
<title>Node17</title>
<g id="a_node17"><a xlink:href="feature_8c.html" target="_top" xlink:title=" ">
<polygon fill="white" stroke="black" points="1104,-56.5 1104,-75.5 1164,-75.5 1164,-56.5 1104,-56.5"/>
<text text-anchor="middle" x="1134" y="-63.5" font-family="FreeSans" font-size="10.00">feature.c</text>
</a>
</g>
</g>
<!-- Node1&#45;&gt;Node17 -->
<g id="edge16" class="edge">
<title>Node1&#45;&gt;Node17</title>
<path fill="none" stroke="midnightblue" d="M1012.17,-109.17C1041.54,-99 1083.2,-84.59 1109.4,-75.52"/>
<polygon fill="midnightblue" stroke="midnightblue" points="1011.02,-105.86 1002.72,-112.44 1013.31,-112.48 1011.02,-105.86"/>
</g>
<!-- Node18 -->
<g id="node18" class="node">
<title>Node18</title>
<g id="a_node18"><a xlink:href="fx_8c.html" target="_top" xlink:title=" ">
<polygon fill="white" stroke="black" points="1182.5,-56.5 1182.5,-75.5 1217.5,-75.5 1217.5,-56.5 1182.5,-56.5"/>
<text text-anchor="middle" x="1200" y="-63.5" font-family="FreeSans" font-size="10.00">fx.c</text>
</a>
</g>
</g>
<!-- Node1&#45;&gt;Node18 -->
<g id="edge17" class="edge">
<title>Node1&#45;&gt;Node18</title>
<path fill="none" stroke="midnightblue" d="M1020.19,-112.47C1059.88,-104.17 1120.85,-90.67 1173,-76 1176.04,-75.14 1179.25,-74.15 1182.36,-73.15"/>
<polygon fill="midnightblue" stroke="midnightblue" points="1019.41,-109.06 1010.33,-114.52 1020.83,-115.92 1019.41,-109.06"/>
</g>
<!-- Node19 -->
<g id="node19" class="node">
<title>Node19</title>
<g id="a_node19"><a xlink:href="image_8c.html" target="_top" xlink:title=" ">
<polygon fill="white" stroke="black" points="1236,-56.5 1236,-75.5 1292,-75.5 1292,-56.5 1236,-56.5"/>
<text text-anchor="middle" x="1264" y="-63.5" font-family="FreeSans" font-size="10.00">image.c</text>
</a>
</g>
</g>
<!-- Node1&#45;&gt;Node19 -->
<g id="edge18" class="edge">
<title>Node1&#45;&gt;Node19</title>
<path fill="none" stroke="midnightblue" d="M1020.4,-114.13C1070.08,-105.9 1154.78,-91.3 1227,-76 1229.85,-75.4 1232.81,-74.74 1235.76,-74.05"/>
<polygon fill="midnightblue" stroke="midnightblue" points="1019.65,-110.71 1010.35,-115.79 1020.79,-117.61 1019.65,-110.71"/>
</g>
<!-- Node20 -->
<g id="node20" class="node">
<title>Node20</title>
<g id="a_node20"><a xlink:href="layer_8c.html" target="_top" xlink:title=" ">
<polygon fill="white" stroke="black" points="1310.5,-56.5 1310.5,-75.5 1359.5,-75.5 1359.5,-56.5 1310.5,-56.5"/>
<text text-anchor="middle" x="1335" y="-63.5" font-family="FreeSans" font-size="10.00">layer.c</text>
</a>
</g>
</g>
<!-- Node1&#45;&gt;Node20 -->
<g id="edge19" class="edge">
<title>Node1&#45;&gt;Node20</title>
<path fill="none" stroke="midnightblue" d="M1020.49,-116.73C1082.51,-110.12 1201.31,-96.06 1301,-76 1303.99,-75.4 1307.11,-74.69 1310.2,-73.93"/>
<polygon fill="midnightblue" stroke="midnightblue" points="1019.89,-113.27 1010.31,-117.8 1020.62,-120.24 1019.89,-113.27"/>
</g>
<!-- Node21 -->
<g id="node21" class="node">
<title>Node21</title>
<g id="a_node21"><a xlink:href="morphology_8c.html" target="_top" xlink:title=" ">
<polygon fill="white" stroke="black" points="1378,-56.5 1378,-75.5 1460,-75.5 1460,-56.5 1378,-56.5"/>
<text text-anchor="middle" x="1419" y="-63.5" font-family="FreeSans" font-size="10.00">morphology.c</text>
</a>
</g>
</g>
<!-- Node1&#45;&gt;Node21 -->
<g id="edge20" class="edge">
<title>Node1&#45;&gt;Node21</title>
<path fill="none" stroke="midnightblue" d="M1020.02,-117.05C1091.76,-110.1 1242.39,-94.66 1369,-76 1371.88,-75.58 1374.85,-75.11 1377.83,-74.62"/>
<polygon fill="midnightblue" stroke="midnightblue" points="1019.64,-113.57 1010.02,-118.01 1020.31,-120.54 1019.64,-113.57"/>
</g>
<!-- Node22 -->
<g id="node22" class="node">
<title>Node22</title>
<g id="a_node22"><a xlink:href="paint_8c.html" target="_top" xlink:title=" ">
<polygon fill="white" stroke="black" points="1478,-56.5 1478,-75.5 1528,-75.5 1528,-56.5 1478,-56.5"/>
<text text-anchor="middle" x="1503" y="-63.5" font-family="FreeSans" font-size="10.00">paint.c</text>
</a>
</g>
</g>
<!-- Node1&#45;&gt;Node22 -->
<g id="edge21" class="edge">
<title>Node1&#45;&gt;Node22</title>
<path fill="none" stroke="midnightblue" d="M1020.2,-119.51C1105.55,-115.98 1304.54,-105.09 1469,-76 1471.89,-75.49 1474.89,-74.85 1477.85,-74.16"/>
<polygon fill="midnightblue" stroke="midnightblue" points="1019.98,-116.02 1010.13,-119.92 1020.26,-123.01 1019.98,-116.02"/>
</g>
<!-- Node23 -->
<g id="node23" class="node">
<title>Node23</title>
<g id="a_node23"><a xlink:href="resize_8c.html" target="_top" xlink:title=" ">
<polygon fill="white" stroke="black" points="1546,-56.5 1546,-75.5 1600,-75.5 1600,-56.5 1546,-56.5"/>
<text text-anchor="middle" x="1573" y="-63.5" font-family="FreeSans" font-size="10.00">resize.c</text>
</a>
</g>
</g>
<!-- Node1&#45;&gt;Node23 -->
<g id="edge22" class="edge">
<title>Node1&#45;&gt;Node23</title>
<path fill="none" stroke="midnightblue" d="M1020.25,-119.97C1113.89,-117.17 1345.73,-107.39 1537,-76 1539.92,-75.52 1542.96,-74.92 1545.97,-74.26"/>
<polygon fill="midnightblue" stroke="midnightblue" points="1019.95,-116.48 1010.05,-120.26 1020.15,-123.47 1019.95,-116.48"/>
</g>
<!-- Node24 -->
<g id="node24" class="node">
<title>Node24</title>
<g id="a_node24"><a xlink:href="shear_8c.html" target="_top" xlink:title=" ">
<polygon fill="white" stroke="black" points="1618.5,-56.5 1618.5,-75.5 1669.5,-75.5 1669.5,-56.5 1618.5,-56.5"/>
<text text-anchor="middle" x="1644" y="-63.5" font-family="FreeSans" font-size="10.00">shear.c</text>
</a>
</g>
</g>
<!-- Node1&#45;&gt;Node24 -->
<g id="edge23" class="edge">
<title>Node1&#45;&gt;Node24</title>
<path fill="none" stroke="midnightblue" d="M1020.27,-120.61C1122.22,-119.1 1389.41,-111.76 1609,-76 1612.1,-75.5 1615.32,-74.85 1618.5,-74.12"/>
<polygon fill="midnightblue" stroke="midnightblue" points="1020.03,-117.11 1010.08,-120.75 1020.13,-124.11 1020.03,-117.11"/>
</g>
<!-- Node25 -->
<g id="node25" class="node">
<title>Node25</title>
<g id="a_node25"><a xlink:href="visual-effects_8c.html" target="_top" xlink:title=" ">
<polygon fill="white" stroke="black" points="1687.5,-56.5 1687.5,-75.5 1778.5,-75.5 1778.5,-56.5 1687.5,-56.5"/>
<text text-anchor="middle" x="1733" y="-63.5" font-family="FreeSans" font-size="10.00">visual&#45;effects.c</text>
</a>
</g>
</g>
<!-- Node1&#45;&gt;Node25 -->
<g id="edge24" class="edge">
<title>Node1&#45;&gt;Node25</title>
<path fill="none" stroke="midnightblue" d="M1020.54,-119.77C1130.04,-116.27 1430.44,-104.62 1679,-76 1681.74,-75.68 1684.55,-75.33 1687.38,-74.94"/>
<polygon fill="midnightblue" stroke="midnightblue" points="1020.13,-116.28 1010.24,-120.09 1020.35,-123.27 1020.13,-116.28"/>
</g>
<!-- Node3 -->
<g id="node3" class="node">
<title>Node3</title>
<g id="a_node3"><a xlink:href="ImageMagick_8h.html" target="_top" xlink:title=" ">
<polygon fill="white" stroke="black" points="0,-0.5 0,-19.5 92,-19.5 92,-0.5 0,-0.5"/>
<text text-anchor="middle" x="46" y="-7.5" font-family="FreeSans" font-size="10.00">ImageMagick.h</text>
</a>
</g>
</g>
<!-- Node2&#45;&gt;Node3 -->
<g id="edge2" class="edge">
<title>Node2&#45;&gt;Node3</title>
<path fill="none" stroke="midnightblue" d="M108.81,-50.9C93.22,-41 72.87,-28.07 59.62,-19.65"/>
<polygon fill="midnightblue" stroke="midnightblue" points="107.03,-53.92 117.34,-56.32 110.78,-48.01 107.03,-53.92"/>
</g>
<!-- Node4 -->
<g id="node4" class="node">
<title>Node4</title>
<g id="a_node4"><a xlink:href="api_8h.html" target="_top" xlink:title=" ">
<polygon fill="white" stroke="black" points="110.5,-0.5 110.5,-19.5 151.5,-19.5 151.5,-0.5 110.5,-0.5"/>
<text text-anchor="middle" x="131" y="-7.5" font-family="FreeSans" font-size="10.00">api.h</text>
</a>
</g>
</g>
<!-- Node2&#45;&gt;Node4 -->
<g id="edge3" class="edge">
<title>Node2&#45;&gt;Node4</title>
<path fill="none" stroke="midnightblue" d="M131,-45.8C131,-36.91 131,-26.78 131,-19.75"/>
<polygon fill="midnightblue" stroke="midnightblue" points="127.5,-46.08 131,-56.08 134.5,-46.08 127.5,-46.08"/>
</g>
<!-- Node5 -->
<g id="node5" class="node">
<title>Node5</title>
<g id="a_node5"><a xlink:href="image-view_8c.html" target="_top" xlink:title=" ">
<polygon fill="white" stroke="black" points="169.5,-0.5 169.5,-19.5 250.5,-19.5 250.5,-0.5 169.5,-0.5"/>
<text text-anchor="middle" x="210" y="-7.5" font-family="FreeSans" font-size="10.00">image&#45;view.c</text>
</a>
</g>
</g>
<!-- Node2&#45;&gt;Node5 -->
<g id="edge4" class="edge">
<title>Node2&#45;&gt;Node5</title>
<path fill="none" stroke="midnightblue" d="M152.03,-50.62C166.47,-40.76 185.14,-27.99 197.34,-19.65"/>
<polygon fill="midnightblue" stroke="midnightblue" points="149.97,-47.79 143.69,-56.32 153.92,-53.57 149.97,-47.79"/>
</g>
</g>
</svg>
