<?xml version="1.0" encoding="UTF-8" standalone="no"?>
<!DOCTYPE svg PUBLIC "-//W3C//DTD SVG 1.1//EN"
 "http://www.w3.org/Graphics/SVG/1.1/DTD/svg11.dtd">
<!-- Generated by graphviz version 2.43.0 (0)
 -->
<!-- Title: client.c Pages: 1 -->
<svg width="1747pt" height="252pt"
 viewBox="0.00 0.00 1747.00 252.00" xmlns="http://www.w3.org/2000/svg" xmlns:xlink="http://www.w3.org/1999/xlink">
<g id="graph0" class="graph" transform="scale(1 1) rotate(0) translate(4 248)">
<title>client.c</title>
<polygon fill="white" stroke="transparent" points="-4,4 -4,-248 1743,-248 1743,4 -4,4"/>
<!-- Node1 -->
<g id="node1" class="node">
<title>Node1</title>
<g id="a_node1"><a xlink:title=" ">
<polygon fill="#bfbfbf" stroke="black" points="526.5,-224.5 526.5,-243.5 578.5,-243.5 578.5,-224.5 526.5,-224.5"/>
<text text-anchor="middle" x="552.5" y="-231.5" font-family="FreeSans" font-size="10.00">client.c</text>
</a>
</g>
</g>
<!-- Node2 -->
<g id="node2" class="node">
<title>Node2</title>
<g id="a_node2"><a xlink:href="studio_8h.html" target="_top" xlink:title=" ">
<polygon fill="white" stroke="black" points="878,-168.5 878,-187.5 973,-187.5 973,-168.5 878,-168.5"/>
<text text-anchor="middle" x="925.5" y="-175.5" font-family="FreeSans" font-size="10.00">magick/studio.h</text>
</a>
</g>
</g>
<!-- Node1&#45;&gt;Node2 -->
<g id="edge1" class="edge">
<title>Node1&#45;&gt;Node2</title>
<path fill="none" stroke="midnightblue" d="M578.73,-229.2C638.5,-220.55 785.99,-199.2 868.06,-187.32"/>
<polygon fill="midnightblue" stroke="midnightblue" points="868.58,-190.78 877.98,-185.88 867.58,-183.85 868.58,-190.78"/>
</g>
<!-- Node24 -->
<g id="node24" class="node">
<title>Node24</title>
<g id="a_node24"><a xlink:href="client_8h.html" target="_top" xlink:title=" ">
<polygon fill="white" stroke="black" points="991.5,-168.5 991.5,-187.5 1083.5,-187.5 1083.5,-168.5 991.5,-168.5"/>
<text text-anchor="middle" x="1037.5" y="-175.5" font-family="FreeSans" font-size="10.00">magick/client.h</text>
</a>
</g>
</g>
<!-- Node1&#45;&gt;Node24 -->
<g id="edge24" class="edge">
<title>Node1&#45;&gt;Node24</title>
<path fill="none" stroke="midnightblue" d="M578.74,-230.79C644.62,-225.12 822.49,-209.12 981.36,-188.08"/>
<polygon fill="midnightblue" stroke="midnightblue" points="981.87,-191.55 991.32,-186.76 980.94,-184.61 981.87,-191.55"/>
</g>
<!-- Node25 -->
<g id="node25" class="node">
<title>Node25</title>
<g id="a_node25"><a xlink:href="log_8h.html" target="_top" xlink:title=" ">
<polygon fill="white" stroke="black" points="40.5,-168.5 40.5,-187.5 120.5,-187.5 120.5,-168.5 40.5,-168.5"/>
<text text-anchor="middle" x="80.5" y="-175.5" font-family="FreeSans" font-size="10.00">magick/log.h</text>
</a>
</g>
</g>
<!-- Node1&#45;&gt;Node25 -->
<g id="edge25" class="edge">
<title>Node1&#45;&gt;Node25</title>
<path fill="none" stroke="midnightblue" d="M526.22,-230.38C461.33,-223.84 288.39,-206.05 144.5,-188 140.06,-187.44 135.45,-186.84 130.83,-186.22"/>
<polygon fill="midnightblue" stroke="midnightblue" points="131.14,-182.73 120.76,-184.85 130.2,-189.67 131.14,-182.73"/>
</g>
<!-- Node28 -->
<g id="node28" class="node">
<title>Node28</title>
<g id="a_node28"><a xlink:href="string___8h.html" target="_top" xlink:title=" ">
<polygon fill="white" stroke="black" points="153.5,-168.5 153.5,-187.5 251.5,-187.5 251.5,-168.5 153.5,-168.5"/>
<text text-anchor="middle" x="202.5" y="-175.5" font-family="FreeSans" font-size="10.00">magick/string_.h</text>
</a>
</g>
</g>
<!-- Node1&#45;&gt;Node28 -->
<g id="edge30" class="edge">
<title>Node1&#45;&gt;Node28</title>
<path fill="none" stroke="midnightblue" d="M526.48,-228.99C470.84,-220.4 339.07,-200.07 261.81,-188.15"/>
<polygon fill="midnightblue" stroke="midnightblue" points="262.16,-184.66 251.75,-186.6 261.1,-191.58 262.16,-184.66"/>
</g>
<!-- Node3 -->
<g id="node3" class="node">
<title>Node3</title>
<g id="a_node3"><a xlink:href="magick-config_8h.html" target="_top" xlink:title=" ">
<polygon fill="white" stroke="black" points="1090.5,-56.5 1090.5,-75.5 1224.5,-75.5 1224.5,-56.5 1090.5,-56.5"/>
<text text-anchor="middle" x="1157.5" y="-63.5" font-family="FreeSans" font-size="10.00">magick/magick&#45;config.h</text>
</a>
</g>
</g>
<!-- Node2&#45;&gt;Node3 -->
<g id="edge2" class="edge">
<title>Node2&#45;&gt;Node3</title>
<path fill="none" stroke="midnightblue" d="M973.08,-169.47C976.27,-168.97 979.43,-168.48 982.5,-168 1034.92,-159.86 1183.93,-172.24 1218.5,-132 1234.35,-113.55 1207.75,-93.26 1184.85,-80.34"/>
<polygon fill="midnightblue" stroke="midnightblue" points="1186.5,-77.25 1176.04,-75.61 1183.19,-83.42 1186.5,-77.25"/>
</g>
<!-- Node5 -->
<g id="node5" class="node">
<title>Node5</title>
<g id="a_node5"><a xlink:title=" ">
<polygon fill="white" stroke="#bfbfbf" points="137.5,-56.5 137.5,-75.5 193.5,-75.5 193.5,-56.5 137.5,-56.5"/>
<text text-anchor="middle" x="165.5" y="-63.5" font-family="FreeSans" font-size="10.00">stdarg.h</text>
</a>
</g>
</g>
<!-- Node2&#45;&gt;Node5 -->
<g id="edge4" class="edge">
<title>Node2&#45;&gt;Node5</title>
<path fill="none" stroke="midnightblue" d="M877.95,-176.18C749.75,-173.56 399.23,-163.64 288.5,-132 288.17,-131.91 226.62,-99.34 190.72,-80.35"/>
<polygon fill="midnightblue" stroke="midnightblue" points="192.25,-77.2 181.78,-75.62 188.98,-83.39 192.25,-77.2"/>
</g>
<!-- Node6 -->
<g id="node6" class="node">
<title>Node6</title>
<g id="a_node6"><a xlink:title=" ">
<polygon fill="white" stroke="#bfbfbf" points="1159.5,-112.5 1159.5,-131.5 1209.5,-131.5 1209.5,-112.5 1159.5,-112.5"/>
<text text-anchor="middle" x="1184.5" y="-119.5" font-family="FreeSans" font-size="10.00">stdio.h</text>
</a>
</g>
</g>
<!-- Node2&#45;&gt;Node6 -->
<g id="edge5" class="edge">
<title>Node2&#45;&gt;Node6</title>
<path fill="none" stroke="midnightblue" d="M972.65,-168.44C1016.16,-160.35 1082.78,-147.47 1149.46,-132.14"/>
<polygon fill="midnightblue" stroke="midnightblue" points="1150.34,-135.52 1159.29,-129.86 1148.76,-128.7 1150.34,-135.52"/>
</g>
<!-- Node7 -->
<g id="node7" class="node">
<title>Node7</title>
<g id="a_node7"><a xlink:title=" ">
<polygon fill="white" stroke="#bfbfbf" points="1266,-112.5 1266,-131.5 1319,-131.5 1319,-112.5 1266,-112.5"/>
<text text-anchor="middle" x="1292.5" y="-119.5" font-family="FreeSans" font-size="10.00">ctype.h</text>
</a>
</g>
</g>
<!-- Node2&#45;&gt;Node7 -->
<g id="edge6" class="edge">
<title>Node2&#45;&gt;Node7</title>
<path fill="none" stroke="midnightblue" d="M973.07,-169.4C976.26,-168.92 979.43,-168.45 982.5,-168 1101.86,-150.59 1132.71,-152.95 1251.5,-132 1252.79,-131.77 1254.1,-131.53 1255.43,-131.28"/>
<polygon fill="midnightblue" stroke="midnightblue" points="1256.54,-134.63 1265.66,-129.23 1255.16,-127.77 1256.54,-134.63"/>
</g>
<!-- Node8 -->
<g id="node8" class="node">
<title>Node8</title>
<g id="a_node8"><a xlink:title=" ">
<polygon fill="white" stroke="#bfbfbf" points="1337,-112.5 1337,-131.5 1392,-131.5 1392,-112.5 1337,-112.5"/>
<text text-anchor="middle" x="1364.5" y="-119.5" font-family="FreeSans" font-size="10.00">locale.h</text>
</a>
</g>
</g>
<!-- Node2&#45;&gt;Node8 -->
<g id="edge7" class="edge">
<title>Node2&#45;&gt;Node8</title>
<path fill="none" stroke="midnightblue" d="M973.06,-169.3C976.25,-168.84 979.42,-168.4 982.5,-168 1132.51,-148.37 1174.45,-158.36 1326.5,-132.15"/>
<polygon fill="midnightblue" stroke="midnightblue" points="1327.43,-135.54 1336.68,-130.37 1326.22,-128.64 1327.43,-135.54"/>
</g>
<!-- Node9 -->
<g id="node9" class="node">
<title>Node9</title>
<g id="a_node9"><a xlink:title=" ">
<polygon fill="white" stroke="#bfbfbf" points="1410,-112.5 1410,-131.5 1461,-131.5 1461,-112.5 1410,-112.5"/>
<text text-anchor="middle" x="1435.5" y="-119.5" font-family="FreeSans" font-size="10.00">errno.h</text>
</a>
</g>
</g>
<!-- Node2&#45;&gt;Node9 -->
<g id="edge8" class="edge">
<title>Node2&#45;&gt;Node9</title>
<path fill="none" stroke="midnightblue" d="M973.05,-169.23C976.24,-168.79 979.42,-168.38 982.5,-168 1164.78,-145.81 1215.58,-163.39 1399.96,-131.99"/>
<polygon fill="midnightblue" stroke="midnightblue" points="1400.73,-135.41 1409.99,-130.26 1399.54,-128.52 1400.73,-135.41"/>
</g>
<!-- Node10 -->
<g id="node10" class="node">
<title>Node10</title>
<g id="a_node10"><a xlink:title=" ">
<polygon fill="white" stroke="#bfbfbf" points="1479,-112.5 1479,-131.5 1526,-131.5 1526,-112.5 1479,-112.5"/>
<text text-anchor="middle" x="1502.5" y="-119.5" font-family="FreeSans" font-size="10.00">fcntl.h</text>
</a>
</g>
</g>
<!-- Node2&#45;&gt;Node10 -->
<g id="edge9" class="edge">
<title>Node2&#45;&gt;Node10</title>
<path fill="none" stroke="midnightblue" d="M973.05,-169.19C976.24,-168.76 979.41,-168.36 982.5,-168 1195.27,-143.4 1254.52,-168.84 1468.86,-131.96"/>
<polygon fill="midnightblue" stroke="midnightblue" points="1469.61,-135.39 1478.86,-130.22 1468.4,-128.49 1469.61,-135.39"/>
</g>
<!-- Node11 -->
<g id="node11" class="node">
<title>Node11</title>
<g id="a_node11"><a xlink:title=" ">
<polygon fill="white" stroke="#bfbfbf" points="1544,-112.5 1544,-131.5 1595,-131.5 1595,-112.5 1544,-112.5"/>
<text text-anchor="middle" x="1569.5" y="-119.5" font-family="FreeSans" font-size="10.00">math.h</text>
</a>
</g>
</g>
<!-- Node2&#45;&gt;Node11 -->
<g id="edge10" class="edge">
<title>Node2&#45;&gt;Node11</title>
<path fill="none" stroke="midnightblue" d="M973.04,-169.16C976.24,-168.74 979.41,-168.34 982.5,-168 1223.94,-141.14 1290.61,-170.86 1533.78,-131.98"/>
<polygon fill="midnightblue" stroke="midnightblue" points="1534.68,-135.37 1543.99,-130.32 1533.56,-128.47 1534.68,-135.37"/>
</g>
<!-- Node12 -->
<g id="node12" class="node">
<title>Node12</title>
<g id="a_node12"><a xlink:title=" ">
<polygon fill="white" stroke="#bfbfbf" points="193.5,-112.5 193.5,-131.5 241.5,-131.5 241.5,-112.5 193.5,-112.5"/>
<text text-anchor="middle" x="217.5" y="-119.5" font-family="FreeSans" font-size="10.00">time.h</text>
</a>
</g>
</g>
<!-- Node2&#45;&gt;Node12 -->
<g id="edge11" class="edge">
<title>Node2&#45;&gt;Node12</title>
<path fill="none" stroke="midnightblue" d="M877.68,-176.5C767.4,-174.75 486.92,-166.93 255.5,-132 254.22,-131.81 252.92,-131.59 251.6,-131.36"/>
<polygon fill="midnightblue" stroke="midnightblue" points="252,-127.87 241.51,-129.32 250.61,-134.73 252,-127.87"/>
</g>
<!-- Node13 -->
<g id="node13" class="node">
<title>Node13</title>
<g id="a_node13"><a xlink:title=" ">
<polygon fill="white" stroke="#bfbfbf" points="1613,-112.5 1613,-131.5 1666,-131.5 1666,-112.5 1613,-112.5"/>
<text text-anchor="middle" x="1639.5" y="-119.5" font-family="FreeSans" font-size="10.00">limits.h</text>
</a>
</g>
</g>
<!-- Node2&#45;&gt;Node13 -->
<g id="edge12" class="edge">
<title>Node2&#45;&gt;Node13</title>
<path fill="none" stroke="midnightblue" d="M973.04,-169.13C976.24,-168.72 979.41,-168.33 982.5,-168 1254.46,-138.73 1329.09,-173.8 1602.63,-132"/>
<polygon fill="midnightblue" stroke="midnightblue" points="1603.51,-135.41 1612.86,-130.42 1602.44,-128.49 1603.51,-135.41"/>
</g>
<!-- Node14 -->
<g id="node14" class="node">
<title>Node14</title>
<g id="a_node14"><a xlink:title=" ">
<polygon fill="white" stroke="#bfbfbf" points="1684,-112.5 1684,-131.5 1739,-131.5 1739,-112.5 1684,-112.5"/>
<text text-anchor="middle" x="1711.5" y="-119.5" font-family="FreeSans" font-size="10.00">signal.h</text>
</a>
</g>
</g>
<!-- Node2&#45;&gt;Node14 -->
<g id="edge13" class="edge">
<title>Node2&#45;&gt;Node14</title>
<path fill="none" stroke="midnightblue" d="M973.04,-169.11C976.23,-168.7 979.41,-168.32 982.5,-168 1285.95,-136.25 1368.71,-176.73 1673.68,-132"/>
<polygon fill="midnightblue" stroke="midnightblue" points="1674.32,-135.45 1683.7,-130.51 1673.29,-128.52 1674.32,-135.45"/>
</g>
<!-- Node15 -->
<g id="node15" class="node">
<title>Node15</title>
<g id="a_node15"><a xlink:title=" ">
<polygon fill="white" stroke="#bfbfbf" points="297.5,-112.5 297.5,-131.5 353.5,-131.5 353.5,-112.5 297.5,-112.5"/>
<text text-anchor="middle" x="325.5" y="-119.5" font-family="FreeSans" font-size="10.00">assert.h</text>
</a>
</g>
</g>
<!-- Node2&#45;&gt;Node15 -->
<g id="edge14" class="edge">
<title>Node2&#45;&gt;Node15</title>
<path fill="none" stroke="midnightblue" d="M877.74,-175.74C781.92,-172.66 559.33,-162.72 363.58,-131.92"/>
<polygon fill="midnightblue" stroke="midnightblue" points="364.11,-128.46 353.69,-130.35 363.01,-135.38 364.11,-128.46"/>
</g>
<!-- Node16 -->
<g id="node16" class="node">
<title>Node16</title>
<g id="a_node16"><a xlink:href="method-attribute_8h.html" target="_top" xlink:title=" ">
<polygon fill="white" stroke="black" points="371.5,-112.5 371.5,-131.5 519.5,-131.5 519.5,-112.5 371.5,-112.5"/>
<text text-anchor="middle" x="445.5" y="-119.5" font-family="FreeSans" font-size="10.00">magick/method&#45;attribute.h</text>
</a>
</g>
</g>
<!-- Node2&#45;&gt;Node16 -->
<g id="edge15" class="edge">
<title>Node2&#45;&gt;Node16</title>
<path fill="none" stroke="midnightblue" d="M877.72,-171.62C796.56,-162.49 630.78,-143.84 529.77,-132.48"/>
<polygon fill="midnightblue" stroke="midnightblue" points="529.92,-128.98 519.6,-131.34 529.14,-135.93 529.92,-128.98"/>
</g>
<!-- Node17 -->
<g id="node17" class="node">
<title>Node17</title>
<g id="a_node17"><a xlink:title=" ">
<polygon fill="white" stroke="#bfbfbf" points="537.5,-112.5 537.5,-131.5 609.5,-131.5 609.5,-112.5 537.5,-112.5"/>
<text text-anchor="middle" x="573.5" y="-119.5" font-family="FreeSans" font-size="10.00">sys/types.h</text>
</a>
</g>
</g>
<!-- Node2&#45;&gt;Node17 -->
<g id="edge16" class="edge">
<title>Node2&#45;&gt;Node17</title>
<path fill="none" stroke="midnightblue" d="M877.78,-170.79C819.32,-163 717.01,-148.81 619.81,-132.16"/>
<polygon fill="midnightblue" stroke="midnightblue" points="620.27,-128.68 609.82,-130.43 619.08,-135.58 620.27,-128.68"/>
</g>
<!-- Node18 -->
<g id="node18" class="node">
<title>Node18</title>
<g id="a_node18"><a xlink:title=" ">
<polygon fill="white" stroke="#bfbfbf" points="627.5,-112.5 627.5,-131.5 691.5,-131.5 691.5,-112.5 627.5,-112.5"/>
<text text-anchor="middle" x="659.5" y="-119.5" font-family="FreeSans" font-size="10.00">sys/stat.h</text>
</a>
</g>
</g>
<!-- Node2&#45;&gt;Node18 -->
<g id="edge17" class="edge">
<title>Node2&#45;&gt;Node18</title>
<path fill="none" stroke="midnightblue" d="M881.47,-168.45C838.21,-159.99 770.04,-146.5 701.78,-132.24"/>
<polygon fill="midnightblue" stroke="midnightblue" points="702.22,-128.76 691.72,-130.13 700.79,-135.61 702.22,-128.76"/>
</g>
<!-- Node19 -->
<g id="node19" class="node">
<title>Node19</title>
<g id="a_node19"><a xlink:title=" ">
<polygon fill="white" stroke="#bfbfbf" points="709.5,-112.5 709.5,-131.5 763.5,-131.5 763.5,-112.5 709.5,-112.5"/>
<text text-anchor="middle" x="736.5" y="-119.5" font-family="FreeSans" font-size="10.00">dirent.h</text>
</a>
</g>
</g>
<!-- Node2&#45;&gt;Node19 -->
<g id="edge18" class="edge">
<title>Node2&#45;&gt;Node19</title>
<path fill="none" stroke="midnightblue" d="M895.55,-168.44C862.49,-159 809.23,-143.78 773.56,-133.59"/>
<polygon fill="midnightblue" stroke="midnightblue" points="774.13,-130.11 763.55,-130.73 772.21,-136.84 774.13,-130.11"/>
</g>
<!-- Node20 -->
<g id="node20" class="node">
<title>Node20</title>
<g id="a_node20"><a xlink:title=" ">
<polygon fill="white" stroke="#bfbfbf" points="781.5,-112.5 781.5,-131.5 847.5,-131.5 847.5,-112.5 781.5,-112.5"/>
<text text-anchor="middle" x="814.5" y="-119.5" font-family="FreeSans" font-size="10.00">sys/wait.h</text>
</a>
</g>
</g>
<!-- Node2&#45;&gt;Node20 -->
<g id="edge19" class="edge">
<title>Node2&#45;&gt;Node20</title>
<path fill="none" stroke="midnightblue" d="M907.67,-168.32C889.78,-159.62 862.02,-146.12 841.45,-136.11"/>
<polygon fill="midnightblue" stroke="midnightblue" points="842.81,-132.88 832.29,-131.65 839.75,-139.18 842.81,-132.88"/>
</g>
<!-- Node21 -->
<g id="node21" class="node">
<title>Node21</title>
<g id="a_node21"><a xlink:title=" ">
<polygon fill="white" stroke="#bfbfbf" points="865.5,-112.5 865.5,-131.5 911.5,-131.5 911.5,-112.5 865.5,-112.5"/>
<text text-anchor="middle" x="888.5" y="-119.5" font-family="FreeSans" font-size="10.00">pwd.h</text>
</a>
</g>
</g>
<!-- Node2&#45;&gt;Node21 -->
<g id="edge20" class="edge">
<title>Node2&#45;&gt;Node21</title>
<path fill="none" stroke="midnightblue" d="M919.39,-168.08C914.22,-160.53 906.65,-149.49 900.31,-140.23"/>
<polygon fill="midnightblue" stroke="midnightblue" points="903.04,-138.02 894.5,-131.75 897.26,-141.98 903.04,-138.02"/>
</g>
<!-- Node22 -->
<g id="node22" class="node">
<title>Node22</title>
<g id="a_node22"><a xlink:href="magick-type_8h.html" target="_top" xlink:title=" ">
<polygon fill="white" stroke="black" points="1015.5,-112.5 1015.5,-131.5 1141.5,-131.5 1141.5,-112.5 1015.5,-112.5"/>
<text text-anchor="middle" x="1078.5" y="-119.5" font-family="FreeSans" font-size="10.00">magick/magick&#45;type.h</text>
</a>
</g>
</g>
<!-- Node2&#45;&gt;Node22 -->
<g id="edge21" class="edge">
<title>Node2&#45;&gt;Node22</title>
<path fill="none" stroke="midnightblue" d="M949.74,-168.44C975.37,-159.4 1015.99,-145.06 1044.74,-134.92"/>
<polygon fill="midnightblue" stroke="midnightblue" points="1046.11,-138.15 1054.37,-131.52 1043.78,-131.54 1046.11,-138.15"/>
</g>
<!-- Node23 -->
<g id="node23" class="node">
<title>Node23</title>
<g id="a_node23"><a xlink:title=" ">
<polygon fill="white" stroke="#bfbfbf" points="929.5,-112.5 929.5,-131.5 997.5,-131.5 997.5,-112.5 929.5,-112.5"/>
<text text-anchor="middle" x="963.5" y="-119.5" font-family="FreeSans" font-size="10.00">sys/time.h</text>
</a>
</g>
</g>
<!-- Node2&#45;&gt;Node23 -->
<g id="edge23" class="edge">
<title>Node2&#45;&gt;Node23</title>
<path fill="none" stroke="midnightblue" d="M931.77,-168.08C937.14,-160.46 945.02,-149.26 951.58,-139.94"/>
<polygon fill="midnightblue" stroke="midnightblue" points="954.45,-141.94 957.34,-131.75 948.72,-137.91 954.45,-141.94"/>
</g>
<!-- Node4 -->
<g id="node4" class="node">
<title>Node4</title>
<g id="a_node4"><a xlink:href="magick-baseconfig_8h.html" target="_top" xlink:title=" ">
<polygon fill="white" stroke="black" points="1079,-0.5 1079,-19.5 1236,-19.5 1236,-0.5 1079,-0.5"/>
<text text-anchor="middle" x="1157.5" y="-7.5" font-family="FreeSans" font-size="10.00">magick/magick&#45;baseconfig.h</text>
</a>
</g>
</g>
<!-- Node3&#45;&gt;Node4 -->
<g id="edge3" class="edge">
<title>Node3&#45;&gt;Node4</title>
<path fill="none" stroke="midnightblue" d="M1157.5,-56.08C1157.5,-49.01 1157.5,-38.86 1157.5,-29.99"/>
<polygon fill="midnightblue" stroke="midnightblue" points="1161,-29.75 1157.5,-19.75 1154,-29.75 1161,-29.75"/>
</g>
<!-- Node22&#45;&gt;Node3 -->
<g id="edge22" class="edge">
<title>Node22&#45;&gt;Node3</title>
<path fill="none" stroke="midnightblue" d="M1091.19,-112.32C1103.4,-103.98 1122.08,-91.21 1136.5,-81.35"/>
<polygon fill="midnightblue" stroke="midnightblue" points="1138.56,-84.19 1144.84,-75.65 1134.61,-78.41 1138.56,-84.19"/>
</g>
<!-- Node25&#45;&gt;Node5 -->
<g id="edge26" class="edge">
<title>Node25&#45;&gt;Node5</title>
<path fill="none" stroke="midnightblue" d="M59.81,-168.37C34.7,-156.65 -2.32,-134.56 14.5,-112 17.99,-107.32 83.96,-88.87 127.54,-77.1"/>
<polygon fill="midnightblue" stroke="midnightblue" points="128.53,-80.46 137.28,-74.48 126.71,-73.7 128.53,-80.46"/>
</g>
<!-- Node26 -->
<g id="node26" class="node">
<title>Node26</title>
<g id="a_node26"><a xlink:href="exception_8h.html" target="_top" xlink:title=" ">
<polygon fill="white" stroke="black" points="24,-112.5 24,-131.5 137,-131.5 137,-112.5 24,-112.5"/>
<text text-anchor="middle" x="80.5" y="-119.5" font-family="FreeSans" font-size="10.00">magick/exception.h</text>
</a>
</g>
</g>
<!-- Node25&#45;&gt;Node26 -->
<g id="edge27" class="edge">
<title>Node25&#45;&gt;Node26</title>
<path fill="none" stroke="midnightblue" d="M80.5,-168.08C80.5,-161.01 80.5,-150.86 80.5,-141.99"/>
<polygon fill="midnightblue" stroke="midnightblue" points="84,-141.75 80.5,-131.75 77,-141.75 84,-141.75"/>
</g>
<!-- Node26&#45;&gt;Node5 -->
<g id="edge28" class="edge">
<title>Node26&#45;&gt;Node5</title>
<path fill="none" stroke="midnightblue" d="M94.16,-112.32C107.42,-103.9 127.77,-90.97 143.35,-81.07"/>
<polygon fill="midnightblue" stroke="midnightblue" points="145.31,-83.97 151.88,-75.65 141.56,-78.06 145.31,-83.97"/>
</g>
<!-- Node27 -->
<g id="node27" class="node">
<title>Node27</title>
<g id="a_node27"><a xlink:href="semaphore_8h.html" target="_top" xlink:title=" ">
<polygon fill="white" stroke="black" points="0,-56.5 0,-75.5 119,-75.5 119,-56.5 0,-56.5"/>
<text text-anchor="middle" x="59.5" y="-63.5" font-family="FreeSans" font-size="10.00">magick/semaphore.h</text>
</a>
</g>
</g>
<!-- Node26&#45;&gt;Node27 -->
<g id="edge29" class="edge">
<title>Node26&#45;&gt;Node27</title>
<path fill="none" stroke="midnightblue" d="M77.03,-112.08C74.19,-104.77 70.07,-94.18 66.54,-85.1"/>
<polygon fill="midnightblue" stroke="midnightblue" points="69.79,-83.8 62.9,-75.75 63.27,-86.34 69.79,-83.8"/>
</g>
<!-- Node28&#45;&gt;Node5 -->
<g id="edge31" class="edge">
<title>Node28&#45;&gt;Node5</title>
<path fill="none" stroke="midnightblue" d="M198.8,-168.47C194.98,-159.48 188.95,-144.88 184.5,-132 179.16,-116.55 174.02,-98.7 170.43,-85.62"/>
<polygon fill="midnightblue" stroke="midnightblue" points="173.8,-84.66 167.81,-75.92 167.04,-86.48 173.8,-84.66"/>
</g>
<!-- Node28&#45;&gt;Node12 -->
<g id="edge32" class="edge">
<title>Node28&#45;&gt;Node12</title>
<path fill="none" stroke="midnightblue" d="M204.98,-168.08C206.99,-160.85 209.89,-150.41 212.39,-141.4"/>
<polygon fill="midnightblue" stroke="midnightblue" points="215.76,-142.32 215.07,-131.75 209.02,-140.45 215.76,-142.32"/>
</g>
<!-- Node28&#45;&gt;Node26 -->
<g id="edge33" class="edge">
<title>Node28&#45;&gt;Node26</title>
<path fill="none" stroke="midnightblue" d="M183.17,-168.44C163.18,-159.6 131.76,-145.69 108.94,-135.59"/>
<polygon fill="midnightblue" stroke="midnightblue" points="110.3,-132.36 99.74,-131.52 107.47,-138.76 110.3,-132.36"/>
</g>
</g>
</svg>
