<?xml version="1.0" encoding="UTF-8" standalone="no"?>
<!DOCTYPE svg PUBLIC "-//W3C//DTD SVG 1.1//EN"
 "http://www.w3.org/Graphics/SVG/1.1/DTD/svg11.dtd">
<!-- Generated by graphviz version 2.43.0 (0)
 -->
<!-- Title: coder.c Pages: 1 -->
<svg width="2621pt" height="308pt"
 viewBox="0.00 0.00 2621.23 308.00" xmlns="http://www.w3.org/2000/svg" xmlns:xlink="http://www.w3.org/1999/xlink">
<g id="graph0" class="graph" transform="scale(1 1) rotate(0) translate(4 304)">
<title>coder.c</title>
<polygon fill="white" stroke="transparent" points="-4,4 -4,-304 2617.23,-304 2617.23,4 -4,4"/>
<!-- Node1 -->
<g id="node1" class="node">
<title>Node1</title>
<g id="a_node1"><a xlink:title=" ">
<polygon fill="#bfbfbf" stroke="black" points="989.73,-280.5 989.73,-299.5 1040.73,-299.5 1040.73,-280.5 989.73,-280.5"/>
<text text-anchor="middle" x="1015.23" y="-287.5" font-family="FreeSans" font-size="10.00">coder.c</text>
</a>
</g>
</g>
<!-- Node2 -->
<g id="node2" class="node">
<title>Node2</title>
<g id="a_node2"><a xlink:href="studio_8h.html" target="_top" xlink:title=" ">
<polygon fill="white" stroke="black" points="1413.73,-224.5 1413.73,-243.5 1508.73,-243.5 1508.73,-224.5 1413.73,-224.5"/>
<text text-anchor="middle" x="1461.23" y="-231.5" font-family="FreeSans" font-size="10.00">magick/studio.h</text>
</a>
</g>
</g>
<!-- Node1&#45;&gt;Node2 -->
<g id="edge1" class="edge">
<title>Node1&#45;&gt;Node2</title>
<path fill="none" stroke="midnightblue" d="M1040.81,-285.9C1110.62,-277.45 1305.71,-253.83 1403.63,-241.97"/>
<polygon fill="midnightblue" stroke="midnightblue" points="1404.14,-245.44 1413.65,-240.76 1403.3,-238.49 1404.14,-245.44"/>
</g>
<!-- Node24 -->
<g id="node24" class="node">
<title>Node24</title>
<g id="a_node24"><a xlink:href="blob_8h.html" target="_top" xlink:title=" ">
<polygon fill="white" stroke="black" points="676.23,-224.5 676.23,-243.5 762.23,-243.5 762.23,-224.5 676.23,-224.5"/>
<text text-anchor="middle" x="719.23" y="-231.5" font-family="FreeSans" font-size="10.00">magick/blob.h</text>
</a>
</g>
</g>
<!-- Node1&#45;&gt;Node24 -->
<g id="edge24" class="edge">
<title>Node1&#45;&gt;Node24</title>
<path fill="none" stroke="midnightblue" d="M989.48,-284.3C941.22,-275.5 836.26,-256.35 772.28,-244.68"/>
<polygon fill="midnightblue" stroke="midnightblue" points="772.84,-241.22 762.37,-242.87 771.58,-248.11 772.84,-241.22"/>
</g>
<!-- Node30 -->
<g id="node29" class="node">
<title>Node30</title>
<g id="a_node29"><a xlink:href="exception_8h.html" target="_top" xlink:title=" ">
<polygon fill="white" stroke="black" points="297.73,-56.5 297.73,-75.5 410.73,-75.5 410.73,-56.5 297.73,-56.5"/>
<text text-anchor="middle" x="354.23" y="-63.5" font-family="FreeSans" font-size="10.00">magick/exception.h</text>
</a>
</g>
</g>
<!-- Node1&#45;&gt;Node30 -->
<g id="edge51" class="edge">
<title>Node1&#45;&gt;Node30</title>
<path fill="none" stroke="midnightblue" d="M989.57,-288.62C882.05,-286.82 471.26,-277.75 425.23,-244 411.69,-234.07 375.04,-128.78 360.4,-85.46"/>
<polygon fill="midnightblue" stroke="midnightblue" points="363.68,-84.24 357.18,-75.88 357.04,-86.47 363.68,-84.24"/>
</g>
<!-- Node31 -->
<g id="node30" class="node">
<title>Node31</title>
<g id="a_node30"><a xlink:href="semaphore_8h.html" target="_top" xlink:title=" ">
<polygon fill="white" stroke="black" points="336.73,-0.5 336.73,-19.5 455.73,-19.5 455.73,-0.5 336.73,-0.5"/>
<text text-anchor="middle" x="396.23" y="-7.5" font-family="FreeSans" font-size="10.00">magick/semaphore.h</text>
</a>
</g>
</g>
<!-- Node1&#45;&gt;Node31 -->
<g id="edge69" class="edge">
<title>Node1&#45;&gt;Node31</title>
<path fill="none" stroke="midnightblue" d="M989.36,-286.85C877.28,-277.19 439.23,-235.82 439.23,-179 439.23,-179 439.23,-179 439.23,-121 439.23,-86.31 420.45,-49.42 407.71,-28.4"/>
<polygon fill="midnightblue" stroke="midnightblue" points="410.5,-26.27 402.21,-19.67 404.58,-30 410.5,-26.27"/>
</g>
<!-- Node50 -->
<g id="node34" class="node">
<title>Node50</title>
<g id="a_node34"><a xlink:href="client_8h.html" target="_top" xlink:title=" ">
<polygon fill="white" stroke="black" points="1527.23,-224.5 1527.23,-243.5 1619.23,-243.5 1619.23,-224.5 1527.23,-224.5"/>
<text text-anchor="middle" x="1573.23" y="-231.5" font-family="FreeSans" font-size="10.00">magick/client.h</text>
</a>
</g>
</g>
<!-- Node1&#45;&gt;Node50 -->
<g id="edge41" class="edge">
<title>Node1&#45;&gt;Node50</title>
<path fill="none" stroke="midnightblue" d="M1040.9,-287.34C1113.65,-282.49 1327.63,-267.29 1516.98,-243.93"/>
<polygon fill="midnightblue" stroke="midnightblue" points="1517.63,-247.38 1527.12,-242.67 1516.77,-240.43 1517.63,-247.38"/>
</g>
<!-- Node51 -->
<g id="node35" class="node">
<title>Node51</title>
<g id="a_node35"><a xlink:href="coder_8h.html" target="_top" xlink:title=" ">
<polygon fill="white" stroke="black" points="1637.73,-224.5 1637.73,-243.5 1728.73,-243.5 1728.73,-224.5 1637.73,-224.5"/>
<text text-anchor="middle" x="1683.23" y="-231.5" font-family="FreeSans" font-size="10.00">magick/coder.h</text>
</a>
</g>
</g>
<!-- Node1&#45;&gt;Node51 -->
<g id="edge42" class="edge">
<title>Node1&#45;&gt;Node51</title>
<path fill="none" stroke="midnightblue" d="M1041,-287.93C1124.26,-284.3 1393.67,-271.2 1627.6,-243.96"/>
<polygon fill="midnightblue" stroke="midnightblue" points="1628.13,-247.42 1637.66,-242.78 1627.32,-240.47 1628.13,-247.42"/>
</g>
<!-- Node52 -->
<g id="node36" class="node">
<title>Node52</title>
<g id="a_node36"><a xlink:href="configure_8h.html" target="_top" xlink:title=" ">
<polygon fill="white" stroke="black" points="1785.23,-224.5 1785.23,-243.5 1895.23,-243.5 1895.23,-224.5 1785.23,-224.5"/>
<text text-anchor="middle" x="1840.23" y="-231.5" font-family="FreeSans" font-size="10.00">magick/configure.h</text>
</a>
</g>
</g>
<!-- Node1&#45;&gt;Node52 -->
<g id="edge43" class="edge">
<title>Node1&#45;&gt;Node52</title>
<path fill="none" stroke="midnightblue" d="M1040.73,-288.13C1136.7,-284.73 1485.23,-271.13 1771.23,-244 1772.34,-243.89 1773.46,-243.78 1774.59,-243.67"/>
<polygon fill="midnightblue" stroke="midnightblue" points="1775.34,-247.11 1784.91,-242.56 1774.59,-240.15 1775.34,-247.11"/>
</g>
<!-- Node40 -->
<g id="node37" class="node">
<title>Node40</title>
<g id="a_node37"><a xlink:href="hashmap_8h.html" target="_top" xlink:title=" ">
<polygon fill="white" stroke="black" points="2503.23,-168.5 2503.23,-187.5 2613.23,-187.5 2613.23,-168.5 2503.23,-168.5"/>
<text text-anchor="middle" x="2558.23" y="-175.5" font-family="FreeSans" font-size="10.00">magick/hashmap.h</text>
</a>
</g>
</g>
<!-- Node1&#45;&gt;Node40 -->
<g id="edge63" class="edge">
<title>Node1&#45;&gt;Node40</title>
<path fill="none" stroke="midnightblue" d="M1041.02,-288.8C1153.56,-287.72 1602.05,-281.13 1737.23,-244 1756.01,-238.84 1757.41,-229.04 1776.23,-224 1927.52,-183.43 2319.48,-202.36 2493,-187.97"/>
<polygon fill="midnightblue" stroke="midnightblue" points="2493.46,-191.44 2503.11,-187.07 2492.84,-184.47 2493.46,-191.44"/>
</g>
<!-- Node53 -->
<g id="node38" class="node">
<title>Node53</title>
<g id="a_node38"><a xlink:href="draw_8h.html" target="_top" xlink:title=" ">
<polygon fill="white" stroke="black" points="831.23,-224.5 831.23,-243.5 919.23,-243.5 919.23,-224.5 831.23,-224.5"/>
<text text-anchor="middle" x="875.23" y="-231.5" font-family="FreeSans" font-size="10.00">magick/draw.h</text>
</a>
</g>
</g>
<!-- Node1&#45;&gt;Node53 -->
<g id="edge45" class="edge">
<title>Node1&#45;&gt;Node53</title>
<path fill="none" stroke="midnightblue" d="M993.05,-280.44C969.8,-271.48 933.08,-257.31 906.81,-247.18"/>
<polygon fill="midnightblue" stroke="midnightblue" points="907.9,-243.85 897.31,-243.52 905.38,-250.38 907.9,-243.85"/>
</g>
<!-- Node55 -->
<g id="node40" class="node">
<title>Node55</title>
<g id="a_node40"><a xlink:href="exception-private_8h.html" target="_top" xlink:title=" ">
<polygon fill="white" stroke="black" points="13.73,-168.5 13.73,-187.5 164.73,-187.5 164.73,-168.5 13.73,-168.5"/>
<text text-anchor="middle" x="89.23" y="-175.5" font-family="FreeSans" font-size="10.00">magick/exception&#45;private.h</text>
</a>
</g>
</g>
<!-- Node1&#45;&gt;Node55 -->
<g id="edge52" class="edge">
<title>Node1&#45;&gt;Node55</title>
<path fill="none" stroke="midnightblue" d="M989.35,-288.47C856.81,-285.67 257.18,-271.54 179.23,-244 149.87,-233.63 121.72,-210.46 104.95,-194.78"/>
<polygon fill="midnightblue" stroke="midnightblue" points="107.31,-192.18 97.67,-187.77 102.45,-197.23 107.31,-192.18"/>
</g>
<!-- Node56 -->
<g id="node41" class="node">
<title>Node56</title>
<g id="a_node41"><a xlink:href="log_8h.html" target="_top" xlink:title=" ">
<polygon fill="white" stroke="black" points="49.23,-112.5 49.23,-131.5 129.23,-131.5 129.23,-112.5 49.23,-112.5"/>
<text text-anchor="middle" x="89.23" y="-119.5" font-family="FreeSans" font-size="10.00">magick/log.h</text>
</a>
</g>
</g>
<!-- Node1&#45;&gt;Node56 -->
<g id="edge64" class="edge">
<title>Node1&#45;&gt;Node56</title>
<path fill="none" stroke="midnightblue" d="M989.68,-288.87C863.56,-288.05 306.59,-282.28 138.23,-244 75.29,-229.69 40.01,-241.73 4.23,-188 -11.31,-164.66 21.02,-146.25 50.18,-135.06"/>
<polygon fill="midnightblue" stroke="midnightblue" points="51.66,-138.25 59.87,-131.55 49.28,-131.67 51.66,-138.25"/>
</g>
<!-- Node43 -->
<g id="node43" class="node">
<title>Node43</title>
<g id="a_node43"><a xlink:href="string___8h.html" target="_top" xlink:title=" ">
<polygon fill="white" stroke="black" points="185.23,-112.5 185.23,-131.5 283.23,-131.5 283.23,-112.5 185.23,-112.5"/>
<text text-anchor="middle" x="234.23" y="-119.5" font-family="FreeSans" font-size="10.00">magick/string_.h</text>
</a>
</g>
</g>
<!-- Node1&#45;&gt;Node43 -->
<g id="edge70" class="edge">
<title>Node1&#45;&gt;Node43</title>
<path fill="none" stroke="midnightblue" d="M989.58,-288.88C863.42,-288.12 312.28,-282.58 247.23,-244 215.25,-225.03 203.85,-204.23 212.23,-168 214.46,-158.36 219.05,-148.41 223.47,-140.31"/>
<polygon fill="midnightblue" stroke="midnightblue" points="226.58,-141.92 228.59,-131.52 220.53,-138.4 226.58,-141.92"/>
</g>
<!-- Node58 -->
<g id="node44" class="node">
<title>Node58</title>
<g id="a_node44"><a xlink:href="memory___8h.html" target="_top" xlink:title=" ">
<polygon fill="white" stroke="black" points="959.73,-224.5 959.73,-243.5 1070.73,-243.5 1070.73,-224.5 959.73,-224.5"/>
<text text-anchor="middle" x="1015.23" y="-231.5" font-family="FreeSans" font-size="10.00">magick/memory_.h</text>
</a>
</g>
</g>
<!-- Node1&#45;&gt;Node58 -->
<g id="edge65" class="edge">
<title>Node1&#45;&gt;Node58</title>
<path fill="none" stroke="midnightblue" d="M1015.23,-280.08C1015.23,-273.01 1015.23,-262.86 1015.23,-253.99"/>
<polygon fill="midnightblue" stroke="midnightblue" points="1018.73,-253.75 1015.23,-243.75 1011.73,-253.75 1018.73,-253.75"/>
</g>
<!-- Node59 -->
<g id="node45" class="node">
<title>Node59</title>
<g id="a_node45"><a xlink:href="option_8h.html" target="_top" xlink:title=" ">
<polygon fill="white" stroke="black" points="1913.73,-224.5 1913.73,-243.5 2008.73,-243.5 2008.73,-224.5 1913.73,-224.5"/>
<text text-anchor="middle" x="1961.23" y="-231.5" font-family="FreeSans" font-size="10.00">magick/option.h</text>
</a>
</g>
</g>
<!-- Node1&#45;&gt;Node59 -->
<g id="edge68" class="edge">
<title>Node1&#45;&gt;Node59</title>
<path fill="none" stroke="midnightblue" d="M1040.77,-288.7C1145.92,-287.24 1555.85,-279.54 1903.68,-243.93"/>
<polygon fill="midnightblue" stroke="midnightblue" points="1904.11,-247.4 1913.69,-242.89 1903.39,-240.44 1904.11,-247.4"/>
</g>
<!-- Node60 -->
<g id="node46" class="node">
<title>Node60</title>
<g id="a_node46"><a xlink:href="splay-tree_8h.html" target="_top" xlink:title=" ">
<polygon fill="white" stroke="black" points="221.23,-168.5 221.23,-187.5 335.23,-187.5 335.23,-168.5 221.23,-168.5"/>
<text text-anchor="middle" x="278.23" y="-175.5" font-family="FreeSans" font-size="10.00">magick/splay&#45;tree.h</text>
</a>
</g>
</g>
<!-- Node1&#45;&gt;Node60 -->
<g id="edge71" class="edge">
<title>Node1&#45;&gt;Node60</title>
<path fill="none" stroke="midnightblue" d="M989.63,-288.46C860.1,-285.59 281.95,-271.29 256.23,-244 243.78,-230.79 253.94,-210.28 264.21,-195.84"/>
<polygon fill="midnightblue" stroke="midnightblue" points="267.11,-197.81 270.42,-187.75 261.56,-193.55 267.11,-197.81"/>
</g>
<!-- Node61 -->
<g id="node47" class="node">
<title>Node61</title>
<g id="a_node47"><a xlink:href="token_8h.html" target="_top" xlink:title=" ">
<polygon fill="white" stroke="black" points="2027.23,-224.5 2027.23,-243.5 2119.23,-243.5 2119.23,-224.5 2027.23,-224.5"/>
<text text-anchor="middle" x="2073.23" y="-231.5" font-family="FreeSans" font-size="10.00">magick/token.h</text>
</a>
</g>
</g>
<!-- Node1&#45;&gt;Node61 -->
<g id="edge72" class="edge">
<title>Node1&#45;&gt;Node61</title>
<path fill="none" stroke="midnightblue" d="M1040.89,-288.95C1154.37,-288.52 1622.64,-284.33 2016.89,-244.01"/>
<polygon fill="midnightblue" stroke="midnightblue" points="2017.48,-247.47 2027.07,-242.96 2016.76,-240.5 2017.48,-247.47"/>
</g>
<!-- Node62 -->
<g id="node48" class="node">
<title>Node62</title>
<g id="a_node48"><a xlink:href="utility_8h.html" target="_top" xlink:title=" ">
<polygon fill="white" stroke="black" points="2137.23,-224.5 2137.23,-243.5 2229.23,-243.5 2229.23,-224.5 2137.23,-224.5"/>
<text text-anchor="middle" x="2183.23" y="-231.5" font-family="FreeSans" font-size="10.00">magick/utility.h</text>
</a>
</g>
</g>
<!-- Node1&#45;&gt;Node62 -->
<g id="edge73" class="edge">
<title>Node1&#45;&gt;Node62</title>
<path fill="none" stroke="midnightblue" d="M1040.79,-289.11C1161.52,-289.42 1686.82,-288.07 2127.01,-243.99"/>
<polygon fill="midnightblue" stroke="midnightblue" points="2127.47,-247.46 2137.07,-242.97 2126.77,-240.49 2127.47,-247.46"/>
</g>
<!-- Node63 -->
<g id="node49" class="node">
<title>Node63</title>
<g id="a_node49"><a xlink:href="xml-tree_8h.html" target="_top" xlink:title=" ">
<polygon fill="white" stroke="black" points="265.73,-224.5 265.73,-243.5 372.73,-243.5 372.73,-224.5 265.73,-224.5"/>
<text text-anchor="middle" x="319.23" y="-231.5" font-family="FreeSans" font-size="10.00">magick/xml&#45;tree.h</text>
</a>
</g>
</g>
<!-- Node1&#45;&gt;Node63 -->
<g id="edge74" class="edge">
<title>Node1&#45;&gt;Node63</title>
<path fill="none" stroke="midnightblue" d="M989.46,-287.71C903.75,-283.3 620.49,-267.77 387.23,-244 385.93,-243.87 384.62,-243.73 383.29,-243.59"/>
<polygon fill="midnightblue" stroke="midnightblue" points="383.35,-240.07 373.02,-242.42 382.56,-247.03 383.35,-240.07"/>
</g>
<!-- Node64 -->
<g id="node50" class="node">
<title>Node64</title>
<g id="a_node50"><a xlink:href="xml-tree-private_8h.html" target="_top" xlink:title=" ">
<polygon fill="white" stroke="black" points="2247.73,-224.5 2247.73,-243.5 2392.73,-243.5 2392.73,-224.5 2247.73,-224.5"/>
<text text-anchor="middle" x="2320.23" y="-231.5" font-family="FreeSans" font-size="10.00">magick/xml&#45;tree&#45;private.h</text>
</a>
</g>
</g>
<!-- Node1&#45;&gt;Node64 -->
<g id="edge77" class="edge">
<title>Node1&#45;&gt;Node64</title>
<path fill="none" stroke="midnightblue" d="M1041.09,-288.74C1169.35,-287.33 1750.25,-279.23 2237.33,-244"/>
<polygon fill="midnightblue" stroke="midnightblue" points="2237.66,-247.49 2247.38,-243.27 2237.15,-240.51 2237.66,-247.49"/>
</g>
<!-- Node3 -->
<g id="node3" class="node">
<title>Node3</title>
<g id="a_node3"><a xlink:href="magick-config_8h.html" target="_top" xlink:title=" ">
<polygon fill="white" stroke="black" points="1891.23,-112.5 1891.23,-131.5 2025.23,-131.5 2025.23,-112.5 1891.23,-112.5"/>
<text text-anchor="middle" x="1958.23" y="-119.5" font-family="FreeSans" font-size="10.00">magick/magick&#45;config.h</text>
</a>
</g>
</g>
<!-- Node2&#45;&gt;Node3 -->
<g id="edge2" class="edge">
<title>Node2&#45;&gt;Node3</title>
<path fill="none" stroke="midnightblue" d="M1508.78,-225.27C1511.98,-224.82 1515.15,-224.39 1518.23,-224 1601.5,-213.45 1818.44,-224.08 1894.23,-188 1916.7,-177.3 1935.7,-155.24 1947.02,-139.8"/>
<polygon fill="midnightblue" stroke="midnightblue" points="1949.89,-141.81 1952.77,-131.61 1944.16,-137.79 1949.89,-141.81"/>
</g>
<!-- Node5 -->
<g id="node5" class="node">
<title>Node5</title>
<g id="a_node5"><a xlink:title=" ">
<polygon fill="white" stroke="#bfbfbf" points="201.23,-0.5 201.23,-19.5 257.23,-19.5 257.23,-0.5 201.23,-0.5"/>
<text text-anchor="middle" x="229.23" y="-7.5" font-family="FreeSans" font-size="10.00">stdarg.h</text>
</a>
</g>
</g>
<!-- Node2&#45;&gt;Node5 -->
<g id="edge4" class="edge">
<title>Node2&#45;&gt;Node5</title>
<path fill="none" stroke="midnightblue" d="M1413.72,-233.49C1355.15,-232.34 1253.84,-224.55 1176.23,-188 1130.08,-166.27 1135,-136.44 1090.23,-112 1009.96,-68.18 982.37,-71.44 892.23,-56 644.22,-13.52 578.09,-39.51 327.23,-20 307.58,-18.47 285.74,-16.49 267.67,-14.78"/>
<polygon fill="midnightblue" stroke="midnightblue" points="267.8,-11.28 257.52,-13.81 267.14,-18.25 267.8,-11.28"/>
</g>
<!-- Node6 -->
<g id="node6" class="node">
<title>Node6</title>
<g id="a_node6"><a xlink:title=" ">
<polygon fill="white" stroke="#bfbfbf" points="2085.23,-168.5 2085.23,-187.5 2135.23,-187.5 2135.23,-168.5 2085.23,-168.5"/>
<text text-anchor="middle" x="2110.23" y="-175.5" font-family="FreeSans" font-size="10.00">stdio.h</text>
</a>
</g>
</g>
<!-- Node2&#45;&gt;Node6 -->
<g id="edge5" class="edge">
<title>Node2&#45;&gt;Node6</title>
<path fill="none" stroke="midnightblue" d="M1508.77,-225.16C1511.97,-224.73 1515.14,-224.34 1518.23,-224 1761.97,-196.95 1829.19,-227.17 2075.14,-187.85"/>
<polygon fill="midnightblue" stroke="midnightblue" points="2075.79,-191.29 2085.1,-186.24 2074.67,-184.38 2075.79,-191.29"/>
</g>
<!-- Node7 -->
<g id="node7" class="node">
<title>Node7</title>
<g id="a_node7"><a xlink:title=" ">
<polygon fill="white" stroke="#bfbfbf" points="2153.73,-168.5 2153.73,-187.5 2206.73,-187.5 2206.73,-168.5 2153.73,-168.5"/>
<text text-anchor="middle" x="2180.23" y="-175.5" font-family="FreeSans" font-size="10.00">ctype.h</text>
</a>
</g>
</g>
<!-- Node2&#45;&gt;Node7 -->
<g id="edge6" class="edge">
<title>Node2&#45;&gt;Node7</title>
<path fill="none" stroke="midnightblue" d="M1508.77,-225.13C1511.97,-224.72 1515.14,-224.33 1518.23,-224 1792.07,-194.58 1866.98,-229.15 2143.68,-187.75"/>
<polygon fill="midnightblue" stroke="midnightblue" points="2144.24,-191.21 2153.61,-186.25 2143.19,-184.29 2144.24,-191.21"/>
</g>
<!-- Node8 -->
<g id="node8" class="node">
<title>Node8</title>
<g id="a_node8"><a xlink:title=" ">
<polygon fill="white" stroke="#bfbfbf" points="2224.73,-168.5 2224.73,-187.5 2279.73,-187.5 2279.73,-168.5 2224.73,-168.5"/>
<text text-anchor="middle" x="2252.23" y="-175.5" font-family="FreeSans" font-size="10.00">locale.h</text>
</a>
</g>
</g>
<!-- Node2&#45;&gt;Node8 -->
<g id="edge7" class="edge">
<title>Node2&#45;&gt;Node8</title>
<path fill="none" stroke="midnightblue" d="M1508.77,-225.11C1511.96,-224.7 1515.14,-224.32 1518.23,-224 1823.87,-192.08 1907.22,-232.99 2214.34,-188.01"/>
<polygon fill="midnightblue" stroke="midnightblue" points="2215.05,-191.44 2224.43,-186.51 2214.02,-184.52 2215.05,-191.44"/>
</g>
<!-- Node9 -->
<g id="node9" class="node">
<title>Node9</title>
<g id="a_node9"><a xlink:title=" ">
<polygon fill="white" stroke="#bfbfbf" points="965.73,-168.5 965.73,-187.5 1016.73,-187.5 1016.73,-168.5 965.73,-168.5"/>
<text text-anchor="middle" x="991.23" y="-175.5" font-family="FreeSans" font-size="10.00">errno.h</text>
</a>
</g>
</g>
<!-- Node2&#45;&gt;Node9 -->
<g id="edge8" class="edge">
<title>Node2&#45;&gt;Node9</title>
<path fill="none" stroke="midnightblue" d="M1413.6,-230.4C1335.03,-225.59 1173.27,-213.58 1026.82,-187.83"/>
<polygon fill="midnightblue" stroke="midnightblue" points="1027.21,-184.34 1016.75,-186.03 1025.98,-191.23 1027.21,-184.34"/>
</g>
<!-- Node10 -->
<g id="node10" class="node">
<title>Node10</title>
<g id="a_node10"><a xlink:title=" ">
<polygon fill="white" stroke="#bfbfbf" points="2297.73,-168.5 2297.73,-187.5 2344.73,-187.5 2344.73,-168.5 2297.73,-168.5"/>
<text text-anchor="middle" x="2321.23" y="-175.5" font-family="FreeSans" font-size="10.00">fcntl.h</text>
</a>
</g>
</g>
<!-- Node2&#45;&gt;Node10 -->
<g id="edge9" class="edge">
<title>Node2&#45;&gt;Node10</title>
<path fill="none" stroke="midnightblue" d="M1508.76,-225.09C1511.96,-224.69 1515.14,-224.32 1518.23,-224 1856.17,-189.54 1948.79,-241.75 2287.51,-187.92"/>
<polygon fill="midnightblue" stroke="midnightblue" points="2288.28,-191.34 2297.6,-186.29 2287.17,-184.43 2288.28,-191.34"/>
</g>
<!-- Node11 -->
<g id="node11" class="node">
<title>Node11</title>
<g id="a_node11"><a xlink:title=" ">
<polygon fill="white" stroke="#bfbfbf" points="2362.73,-168.5 2362.73,-187.5 2413.73,-187.5 2413.73,-168.5 2362.73,-168.5"/>
<text text-anchor="middle" x="2388.23" y="-175.5" font-family="FreeSans" font-size="10.00">math.h</text>
</a>
</g>
</g>
<!-- Node2&#45;&gt;Node11 -->
<g id="edge10" class="edge">
<title>Node2&#45;&gt;Node11</title>
<path fill="none" stroke="midnightblue" d="M1508.76,-225.08C1511.96,-224.68 1515.14,-224.31 1518.23,-224 1884.94,-187.27 1984.76,-242.89 2352.25,-187.99"/>
<polygon fill="midnightblue" stroke="midnightblue" points="2353,-191.42 2362.36,-186.46 2351.95,-184.5 2353,-191.42"/>
</g>
<!-- Node12 -->
<g id="node12" class="node">
<title>Node12</title>
<g id="a_node12"><a xlink:title=" ">
<polygon fill="white" stroke="#bfbfbf" points="729.23,-56.5 729.23,-75.5 777.23,-75.5 777.23,-56.5 729.23,-56.5"/>
<text text-anchor="middle" x="753.23" y="-63.5" font-family="FreeSans" font-size="10.00">time.h</text>
</a>
</g>
</g>
<!-- Node2&#45;&gt;Node12 -->
<g id="edge11" class="edge">
<title>Node2&#45;&gt;Node12</title>
<path fill="none" stroke="midnightblue" d="M1413.7,-229.8C1337.07,-224.05 1190.05,-210.45 1143.23,-188 1098.72,-166.66 1106.86,-133.1 1062.23,-112 953.34,-60.52 909.83,-98.22 787.41,-75.92"/>
<polygon fill="midnightblue" stroke="midnightblue" points="787.77,-72.42 777.29,-73.97 786.45,-79.3 787.77,-72.42"/>
</g>
<!-- Node13 -->
<g id="node13" class="node">
<title>Node13</title>
<g id="a_node13"><a xlink:title=" ">
<polygon fill="white" stroke="#bfbfbf" points="2431.73,-168.5 2431.73,-187.5 2484.73,-187.5 2484.73,-168.5 2431.73,-168.5"/>
<text text-anchor="middle" x="2458.23" y="-175.5" font-family="FreeSans" font-size="10.00">limits.h</text>
</a>
</g>
</g>
<!-- Node2&#45;&gt;Node13 -->
<g id="edge12" class="edge">
<title>Node2&#45;&gt;Node13</title>
<path fill="none" stroke="midnightblue" d="M1508.76,-225.07C1511.96,-224.67 1515.14,-224.3 1518.23,-224 1915.51,-184.87 2023.17,-245.43 2421.53,-187.94"/>
<polygon fill="midnightblue" stroke="midnightblue" points="2422.21,-191.38 2431.6,-186.47 2421.2,-184.45 2422.21,-191.38"/>
</g>
<!-- Node14 -->
<g id="node14" class="node">
<title>Node14</title>
<g id="a_node14"><a xlink:title=" ">
<polygon fill="white" stroke="#bfbfbf" points="1185.73,-168.5 1185.73,-187.5 1240.73,-187.5 1240.73,-168.5 1185.73,-168.5"/>
<text text-anchor="middle" x="1213.23" y="-175.5" font-family="FreeSans" font-size="10.00">signal.h</text>
</a>
</g>
</g>
<!-- Node2&#45;&gt;Node14 -->
<g id="edge13" class="edge">
<title>Node2&#45;&gt;Node14</title>
<path fill="none" stroke="midnightblue" d="M1419.52,-224.47C1378.98,-216.1 1315.43,-202.76 1251.01,-188.13"/>
<polygon fill="midnightblue" stroke="midnightblue" points="1251.62,-184.68 1241.09,-185.87 1250.06,-191.5 1251.62,-184.68"/>
</g>
<!-- Node15 -->
<g id="node15" class="node">
<title>Node15</title>
<g id="a_node15"><a xlink:title=" ">
<polygon fill="white" stroke="#bfbfbf" points="1035.23,-168.5 1035.23,-187.5 1091.23,-187.5 1091.23,-168.5 1035.23,-168.5"/>
<text text-anchor="middle" x="1063.23" y="-175.5" font-family="FreeSans" font-size="10.00">assert.h</text>
</a>
</g>
</g>
<!-- Node2&#45;&gt;Node15 -->
<g id="edge14" class="edge">
<title>Node2&#45;&gt;Node15</title>
<path fill="none" stroke="midnightblue" d="M1413.53,-228.28C1345.05,-221.2 1215.01,-206.67 1105.23,-188 1103.99,-187.79 1102.73,-187.57 1101.46,-187.34"/>
<polygon fill="midnightblue" stroke="midnightblue" points="1102.12,-183.9 1091.63,-185.43 1100.78,-190.77 1102.12,-183.9"/>
</g>
<!-- Node16 -->
<g id="node16" class="node">
<title>Node16</title>
<g id="a_node16"><a xlink:href="method-attribute_8h.html" target="_top" xlink:title=" ">
<polygon fill="white" stroke="black" points="1259.23,-168.5 1259.23,-187.5 1407.23,-187.5 1407.23,-168.5 1259.23,-168.5"/>
<text text-anchor="middle" x="1333.23" y="-175.5" font-family="FreeSans" font-size="10.00">magick/method&#45;attribute.h</text>
</a>
</g>
</g>
<!-- Node2&#45;&gt;Node16 -->
<g id="edge15" class="edge">
<title>Node2&#45;&gt;Node16</title>
<path fill="none" stroke="midnightblue" d="M1440.95,-224.44C1419.88,-215.56 1386.71,-201.56 1362.74,-191.45"/>
<polygon fill="midnightblue" stroke="midnightblue" points="1363.99,-188.18 1353.42,-187.52 1361.27,-194.63 1363.99,-188.18"/>
</g>
<!-- Node17 -->
<g id="node17" class="node">
<title>Node17</title>
<g id="a_node17"><a xlink:title=" ">
<polygon fill="white" stroke="#bfbfbf" points="1425.23,-168.5 1425.23,-187.5 1497.23,-187.5 1497.23,-168.5 1425.23,-168.5"/>
<text text-anchor="middle" x="1461.23" y="-175.5" font-family="FreeSans" font-size="10.00">sys/types.h</text>
</a>
</g>
</g>
<!-- Node2&#45;&gt;Node17 -->
<g id="edge16" class="edge">
<title>Node2&#45;&gt;Node17</title>
<path fill="none" stroke="midnightblue" d="M1461.23,-224.08C1461.23,-217.01 1461.23,-206.86 1461.23,-197.99"/>
<polygon fill="midnightblue" stroke="midnightblue" points="1464.73,-197.75 1461.23,-187.75 1457.73,-197.75 1464.73,-197.75"/>
</g>
<!-- Node18 -->
<g id="node18" class="node">
<title>Node18</title>
<g id="a_node18"><a xlink:title=" ">
<polygon fill="white" stroke="#bfbfbf" points="1515.23,-168.5 1515.23,-187.5 1579.23,-187.5 1579.23,-168.5 1515.23,-168.5"/>
<text text-anchor="middle" x="1547.23" y="-175.5" font-family="FreeSans" font-size="10.00">sys/stat.h</text>
</a>
</g>
</g>
<!-- Node2&#45;&gt;Node18 -->
<g id="edge17" class="edge">
<title>Node2&#45;&gt;Node18</title>
<path fill="none" stroke="midnightblue" d="M1475.05,-224.32C1488.46,-215.9 1509.05,-202.97 1524.82,-193.07"/>
<polygon fill="midnightblue" stroke="midnightblue" points="1526.84,-195.94 1533.45,-187.65 1523.12,-190.01 1526.84,-195.94"/>
</g>
<!-- Node19 -->
<g id="node19" class="node">
<title>Node19</title>
<g id="a_node19"><a xlink:title=" ">
<polygon fill="white" stroke="#bfbfbf" points="1597.23,-168.5 1597.23,-187.5 1651.23,-187.5 1651.23,-168.5 1597.23,-168.5"/>
<text text-anchor="middle" x="1624.23" y="-175.5" font-family="FreeSans" font-size="10.00">dirent.h</text>
</a>
</g>
</g>
<!-- Node2&#45;&gt;Node19 -->
<g id="edge18" class="edge">
<title>Node2&#45;&gt;Node19</title>
<path fill="none" stroke="midnightblue" d="M1487.06,-224.44C1514.48,-215.36 1558.01,-200.94 1588.66,-190.78"/>
<polygon fill="midnightblue" stroke="midnightblue" points="1590.13,-193.98 1598.52,-187.52 1587.93,-187.34 1590.13,-193.98"/>
</g>
<!-- Node20 -->
<g id="node20" class="node">
<title>Node20</title>
<g id="a_node20"><a xlink:title=" ">
<polygon fill="white" stroke="#bfbfbf" points="1669.23,-168.5 1669.23,-187.5 1735.23,-187.5 1735.23,-168.5 1669.23,-168.5"/>
<text text-anchor="middle" x="1702.23" y="-175.5" font-family="FreeSans" font-size="10.00">sys/wait.h</text>
</a>
</g>
</g>
<!-- Node2&#45;&gt;Node20 -->
<g id="edge19" class="edge">
<title>Node2&#45;&gt;Node20</title>
<path fill="none" stroke="midnightblue" d="M1499.42,-224.44C1542.85,-214.71 1613.62,-198.86 1659.03,-188.68"/>
<polygon fill="midnightblue" stroke="midnightblue" points="1659.89,-192.07 1668.88,-186.47 1658.35,-185.24 1659.89,-192.07"/>
</g>
<!-- Node21 -->
<g id="node21" class="node">
<title>Node21</title>
<g id="a_node21"><a xlink:title=" ">
<polygon fill="white" stroke="#bfbfbf" points="1753.23,-168.5 1753.23,-187.5 1799.23,-187.5 1799.23,-168.5 1753.23,-168.5"/>
<text text-anchor="middle" x="1776.23" y="-175.5" font-family="FreeSans" font-size="10.00">pwd.h</text>
</a>
</g>
</g>
<!-- Node2&#45;&gt;Node21 -->
<g id="edge20" class="edge">
<title>Node2&#45;&gt;Node21</title>
<path fill="none" stroke="midnightblue" d="M1508.96,-225.45C1579.2,-214.33 1705.5,-194.31 1742.88,-187.78"/>
<polygon fill="midnightblue" stroke="midnightblue" points="1743.71,-191.18 1752.89,-185.9 1742.42,-184.3 1743.71,-191.18"/>
</g>
<!-- Node22 -->
<g id="node22" class="node">
<title>Node22</title>
<g id="a_node22"><a xlink:href="magick-type_8h.html" target="_top" xlink:title=" ">
<polygon fill="white" stroke="black" points="1941.23,-168.5 1941.23,-187.5 2067.23,-187.5 2067.23,-168.5 1941.23,-168.5"/>
<text text-anchor="middle" x="2004.23" y="-175.5" font-family="FreeSans" font-size="10.00">magick/magick&#45;type.h</text>
</a>
</g>
</g>
<!-- Node2&#45;&gt;Node22 -->
<g id="edge21" class="edge">
<title>Node2&#45;&gt;Node22</title>
<path fill="none" stroke="midnightblue" d="M1508.78,-225.24C1511.98,-224.8 1515.15,-224.38 1518.23,-224 1699.35,-201.76 1745.7,-206.59 1927.23,-188 1928.51,-187.87 1929.8,-187.73 1931.1,-187.6"/>
<polygon fill="midnightblue" stroke="midnightblue" points="1931.64,-191.06 1941.21,-186.51 1930.9,-184.1 1931.64,-191.06"/>
</g>
<!-- Node23 -->
<g id="node23" class="node">
<title>Node23</title>
<g id="a_node23"><a xlink:title=" ">
<polygon fill="white" stroke="#bfbfbf" points="1817.23,-168.5 1817.23,-187.5 1885.23,-187.5 1885.23,-168.5 1817.23,-168.5"/>
<text text-anchor="middle" x="1851.23" y="-175.5" font-family="FreeSans" font-size="10.00">sys/time.h</text>
</a>
</g>
</g>
<!-- Node2&#45;&gt;Node23 -->
<g id="edge23" class="edge">
<title>Node2&#45;&gt;Node23</title>
<path fill="none" stroke="midnightblue" d="M1508.8,-225.37C1511.99,-224.89 1515.15,-224.43 1518.23,-224 1643.57,-206.33 1678.36,-209.16 1806.78,-188.12"/>
<polygon fill="midnightblue" stroke="midnightblue" points="1807.72,-191.52 1817.01,-186.43 1806.57,-184.61 1807.72,-191.52"/>
</g>
<!-- Node4 -->
<g id="node4" class="node">
<title>Node4</title>
<g id="a_node4"><a xlink:href="magick-baseconfig_8h.html" target="_top" xlink:title=" ">
<polygon fill="white" stroke="black" points="1879.73,-56.5 1879.73,-75.5 2036.73,-75.5 2036.73,-56.5 1879.73,-56.5"/>
<text text-anchor="middle" x="1958.23" y="-63.5" font-family="FreeSans" font-size="10.00">magick/magick&#45;baseconfig.h</text>
</a>
</g>
</g>
<!-- Node3&#45;&gt;Node4 -->
<g id="edge3" class="edge">
<title>Node3&#45;&gt;Node4</title>
<path fill="none" stroke="midnightblue" d="M1958.23,-112.08C1958.23,-105.01 1958.23,-94.86 1958.23,-85.99"/>
<polygon fill="midnightblue" stroke="midnightblue" points="1961.73,-85.75 1958.23,-75.75 1954.73,-85.75 1961.73,-85.75"/>
</g>
<!-- Node22&#45;&gt;Node3 -->
<g id="edge22" class="edge">
<title>Node22&#45;&gt;Node3</title>
<path fill="none" stroke="midnightblue" d="M1996.63,-168.08C1990,-160.3 1980.21,-148.8 1972.17,-139.37"/>
<polygon fill="midnightblue" stroke="midnightblue" points="1974.83,-137.09 1965.68,-131.75 1969.5,-141.63 1974.83,-137.09"/>
</g>
<!-- Node25 -->
<g id="node25" class="node">
<title>Node25</title>
<g id="a_node25"><a xlink:href="image_8h.html" target="_top" xlink:title=" ">
<polygon fill="white" stroke="red" points="671.73,-168.5 671.73,-187.5 766.73,-187.5 766.73,-168.5 671.73,-168.5"/>
<text text-anchor="middle" x="719.23" y="-175.5" font-family="FreeSans" font-size="10.00">magick/image.h</text>
</a>
</g>
</g>
<!-- Node24&#45;&gt;Node25 -->
<g id="edge25" class="edge">
<title>Node24&#45;&gt;Node25</title>
<path fill="none" stroke="midnightblue" d="M714.06,-224.08C712.55,-216.93 712.12,-206.64 712.77,-197.69"/>
<polygon fill="midnightblue" stroke="midnightblue" points="716.25,-198.13 714.1,-187.75 709.31,-197.2 716.25,-198.13"/>
</g>
<!-- Node48 -->
<g id="node33" class="node">
<title>Node48</title>
<g id="a_node33"><a xlink:href="stream_8h.html" target="_top" xlink:title=" ">
<polygon fill="white" stroke="black" points="467.73,-112.5 467.73,-131.5 566.73,-131.5 566.73,-112.5 467.73,-112.5"/>
<text text-anchor="middle" x="517.23" y="-119.5" font-family="FreeSans" font-size="10.00">magick/stream.h</text>
</a>
</g>
</g>
<!-- Node24&#45;&gt;Node48 -->
<g id="edge40" class="edge">
<title>Node24&#45;&gt;Node48</title>
<path fill="none" stroke="midnightblue" d="M698.82,-224.38C678.95,-215.8 648.05,-201.92 622.23,-188 592.31,-171.87 559.18,-150.79 538.29,-137.08"/>
<polygon fill="midnightblue" stroke="midnightblue" points="540.14,-134.11 529.87,-131.51 536.28,-139.95 540.14,-134.11"/>
</g>
<!-- Node25&#45;&gt;Node24 -->
<g id="edge32" class="edge">
<title>Node25&#45;&gt;Node24</title>
<path fill="none" stroke="midnightblue" d="M724.36,-187.75C725.89,-194.86 726.33,-205.14 725.7,-214.1"/>
<polygon fill="midnightblue" stroke="midnightblue" points="722.22,-213.71 724.4,-224.08 729.16,-214.62 722.22,-213.71"/>
</g>
<!-- Node26 -->
<g id="node26" class="node">
<title>Node26</title>
<g id="a_node26"><a xlink:href="color_8h.html" target="_top" xlink:title=" ">
<polygon fill="white" stroke="black" points="585.23,-112.5 585.23,-131.5 673.23,-131.5 673.23,-112.5 585.23,-112.5"/>
<text text-anchor="middle" x="629.23" y="-119.5" font-family="FreeSans" font-size="10.00">magick/color.h</text>
</a>
</g>
</g>
<!-- Node25&#45;&gt;Node26 -->
<g id="edge26" class="edge">
<title>Node25&#45;&gt;Node26</title>
<path fill="none" stroke="midnightblue" d="M704.77,-168.32C690.73,-159.9 669.18,-146.97 652.69,-137.07"/>
<polygon fill="midnightblue" stroke="midnightblue" points="654.03,-133.8 643.65,-131.65 650.43,-139.8 654.03,-133.8"/>
</g>
<!-- Node27 -->
<g id="node27" class="node">
<title>Node27</title>
<g id="a_node27"><a xlink:href="pixel_8h.html" target="_top" xlink:title=" ">
<polygon fill="white" stroke="red" points="795.23,-56.5 795.23,-75.5 883.23,-75.5 883.23,-56.5 795.23,-56.5"/>
<text text-anchor="middle" x="839.23" y="-63.5" font-family="FreeSans" font-size="10.00">magick/pixel.h</text>
</a>
</g>
</g>
<!-- Node25&#45;&gt;Node27 -->
<g id="edge37" class="edge">
<title>Node25&#45;&gt;Node27</title>
<path fill="none" stroke="midnightblue" d="M722.62,-168.46C728.29,-155.05 740.82,-128.83 758.23,-112 772.31,-98.39 791.31,-87.54 807.37,-79.92"/>
<polygon fill="midnightblue" stroke="midnightblue" points="809.26,-82.9 816.93,-75.59 806.37,-76.53 809.26,-82.9"/>
</g>
<!-- Node28 -->
<g id="node28" class="node">
<title>Node28</title>
<g id="a_node28"><a xlink:href="colorspace_8h.html" target="_top" xlink:title=" ">
<polygon fill="white" stroke="black" points="818.73,-0.5 818.73,-19.5 935.73,-19.5 935.73,-0.5 818.73,-0.5"/>
<text text-anchor="middle" x="877.23" y="-7.5" font-family="FreeSans" font-size="10.00">magick/colorspace.h</text>
</a>
</g>
</g>
<!-- Node25&#45;&gt;Node28 -->
<g id="edge33" class="edge">
<title>Node25&#45;&gt;Node28</title>
<path fill="none" stroke="midnightblue" d="M764.44,-168.41C813.85,-158.57 887.11,-142.46 895.23,-132 918.69,-101.79 900.23,-54.2 887.23,-28.64"/>
<polygon fill="midnightblue" stroke="midnightblue" points="890.25,-26.88 882.45,-19.71 884.08,-30.18 890.25,-26.88"/>
</g>
<!-- Node25&#45;&gt;Node31 -->
<g id="edge38" class="edge">
<title>Node25&#45;&gt;Node31</title>
<path fill="none" stroke="midnightblue" d="M716.45,-168.1C711.65,-154.2 700.56,-127.33 682.23,-112 619.85,-59.85 528.68,-33.86 466.14,-21.45"/>
<polygon fill="midnightblue" stroke="midnightblue" points="466.45,-17.95 455.97,-19.5 465.13,-24.82 466.45,-17.95"/>
</g>
<!-- Node32 -->
<g id="node31" class="node">
<title>Node32</title>
<g id="a_node31"><a xlink:href="cache-view_8h.html" target="_top" xlink:title=" ">
<polygon fill="white" stroke="black" points="767.73,-112.5 767.73,-131.5 886.73,-131.5 886.73,-112.5 767.73,-112.5"/>
<text text-anchor="middle" x="827.23" y="-119.5" font-family="FreeSans" font-size="10.00">magick/cache&#45;view.h</text>
</a>
</g>
</g>
<!-- Node25&#45;&gt;Node32 -->
<g id="edge34" class="edge">
<title>Node25&#45;&gt;Node32</title>
<path fill="none" stroke="midnightblue" d="M736.58,-168.32C753.9,-159.66 780.75,-146.24 800.73,-136.25"/>
<polygon fill="midnightblue" stroke="midnightblue" points="802.54,-139.26 809.92,-131.65 799.41,-133 802.54,-139.26"/>
</g>
<!-- Node37 -->
<g id="node32" class="node">
<title>Node37</title>
<g id="a_node32"><a xlink:href="geometry_8h.html" target="_top" xlink:title=" ">
<polygon fill="white" stroke="black" points="943.23,-112.5 943.23,-131.5 1053.23,-131.5 1053.23,-112.5 943.23,-112.5"/>
<text text-anchor="middle" x="998.23" y="-119.5" font-family="FreeSans" font-size="10.00">magick/geometry.h</text>
</a>
</g>
</g>
<!-- Node25&#45;&gt;Node37 -->
<g id="edge36" class="edge">
<title>Node25&#45;&gt;Node37</title>
<path fill="none" stroke="midnightblue" d="M763.44,-168.44C812.52,-158.94 891.74,-143.61 944.39,-133.42"/>
<polygon fill="midnightblue" stroke="midnightblue" points="945.08,-136.85 954.23,-131.52 943.75,-129.98 945.08,-136.85"/>
</g>
<!-- Node25&#45;&gt;Node48 -->
<g id="edge39" class="edge">
<title>Node25&#45;&gt;Node48</title>
<path fill="none" stroke="midnightblue" d="M687.22,-168.44C652.5,-159.16 596.94,-144.31 558.85,-134.13"/>
<polygon fill="midnightblue" stroke="midnightblue" points="559.65,-130.72 549.09,-131.52 557.84,-137.48 559.65,-130.72"/>
</g>
<!-- Node26&#45;&gt;Node27 -->
<g id="edge27" class="edge">
<title>Node26&#45;&gt;Node27</title>
<path fill="none" stroke="midnightblue" d="M662.51,-112.44C698.68,-103.14 756.61,-88.25 796.21,-78.06"/>
<polygon fill="midnightblue" stroke="midnightblue" points="797.3,-81.4 806.11,-75.52 795.55,-74.62 797.3,-81.4"/>
</g>
<!-- Node26&#45;&gt;Node30 -->
<g id="edge29" class="edge">
<title>Node26&#45;&gt;Node30</title>
<path fill="none" stroke="midnightblue" d="M585.66,-112.44C537.38,-102.96 459.52,-87.67 407.62,-77.48"/>
<polygon fill="midnightblue" stroke="midnightblue" points="408.09,-74.01 397.6,-75.52 406.74,-80.88 408.09,-74.01"/>
</g>
<!-- Node27&#45;&gt;Node28 -->
<g id="edge28" class="edge">
<title>Node27&#45;&gt;Node28</title>
<path fill="none" stroke="midnightblue" d="M845.5,-56.08C850.87,-48.46 858.75,-37.26 865.31,-27.94"/>
<polygon fill="midnightblue" stroke="midnightblue" points="868.18,-29.94 871.07,-19.75 862.45,-25.91 868.18,-29.94"/>
</g>
<!-- Node30&#45;&gt;Node5 -->
<g id="edge30" class="edge">
<title>Node30&#45;&gt;Node5</title>
<path fill="none" stroke="midnightblue" d="M334.42,-56.44C313.94,-47.6 281.75,-33.69 258.37,-23.59"/>
<polygon fill="midnightblue" stroke="midnightblue" points="259.51,-20.27 248.94,-19.52 256.74,-26.7 259.51,-20.27"/>
</g>
<!-- Node30&#45;&gt;Node31 -->
<g id="edge31" class="edge">
<title>Node30&#45;&gt;Node31</title>
<path fill="none" stroke="midnightblue" d="M361.17,-56.08C367.16,-48.38 375.98,-37.03 383.28,-27.65"/>
<polygon fill="midnightblue" stroke="midnightblue" points="386.05,-29.79 389.42,-19.75 380.52,-25.5 386.05,-29.79"/>
</g>
<!-- Node32&#45;&gt;Node27 -->
<g id="edge35" class="edge">
<title>Node32&#45;&gt;Node27</title>
<path fill="none" stroke="midnightblue" d="M829.21,-112.08C830.8,-104.93 833.09,-94.64 835.08,-85.69"/>
<polygon fill="midnightblue" stroke="midnightblue" points="838.53,-86.27 837.29,-75.75 831.7,-84.75 838.53,-86.27"/>
</g>
<!-- Node52&#45;&gt;Node40 -->
<g id="edge44" class="edge">
<title>Node52&#45;&gt;Node40</title>
<path fill="none" stroke="midnightblue" d="M1895.51,-225.05C1898.8,-224.67 1902.06,-224.32 1905.23,-224 2162.89,-198.33 2231.55,-213.87 2492.93,-188.05"/>
<polygon fill="midnightblue" stroke="midnightblue" points="2493.5,-191.51 2503.11,-187.03 2492.81,-184.54 2493.5,-191.51"/>
</g>
<!-- Node53&#45;&gt;Node25 -->
<g id="edge47" class="edge">
<title>Node53&#45;&gt;Node25</title>
<path fill="none" stroke="midnightblue" d="M850.51,-224.44C824.38,-215.4 782.97,-201.06 753.65,-190.92"/>
<polygon fill="midnightblue" stroke="midnightblue" points="754.43,-187.48 743.83,-187.52 752.14,-194.1 754.43,-187.48"/>
</g>
<!-- Node53&#45;&gt;Node26 -->
<g id="edge50" class="edge">
<title>Node53&#45;&gt;Node26</title>
<path fill="none" stroke="midnightblue" d="M831.23,-228.21C776.83,-221.54 688.24,-207.96 662.23,-188 647.2,-176.47 638.47,-156.2 633.8,-141.36"/>
<polygon fill="midnightblue" stroke="midnightblue" points="637.17,-140.39 631.09,-131.71 630.43,-142.28 637.17,-140.39"/>
</g>
<!-- Node53&#45;&gt;Node27 -->
<g id="edge48" class="edge">
<title>Node53&#45;&gt;Node27</title>
<path fill="none" stroke="midnightblue" d="M883.95,-224.25C898.02,-210.56 927.14,-183.96 956.23,-168 1002.94,-142.37 1095.97,-153.23 1062.23,-112 1041.35,-86.48 952.84,-75.11 893.8,-70.28"/>
<polygon fill="midnightblue" stroke="midnightblue" points="893.75,-66.77 883.51,-69.48 893.21,-73.75 893.75,-66.77"/>
</g>
<!-- Node53&#45;&gt;Node37 -->
<g id="edge46" class="edge">
<title>Node53&#45;&gt;Node37</title>
<path fill="none" stroke="midnightblue" d="M880.21,-224.15C888.05,-210.78 904.33,-185.17 923.23,-168 937.24,-155.27 955.4,-144.26 970.34,-136.32"/>
<polygon fill="midnightblue" stroke="midnightblue" points="972.31,-139.24 979.61,-131.56 969.12,-133.01 972.31,-139.24"/>
</g>
<!-- Node54 -->
<g id="node39" class="node">
<title>Node54</title>
<g id="a_node39"><a xlink:href="type_8h.html" target="_top" xlink:title=" ">
<polygon fill="white" stroke="black" points="785.23,-168.5 785.23,-187.5 871.23,-187.5 871.23,-168.5 785.23,-168.5"/>
<text text-anchor="middle" x="828.23" y="-175.5" font-family="FreeSans" font-size="10.00">magick/type.h</text>
</a>
</g>
</g>
<!-- Node53&#45;&gt;Node54 -->
<g id="edge49" class="edge">
<title>Node53&#45;&gt;Node54</title>
<path fill="none" stroke="midnightblue" d="M867.47,-224.08C860.69,-216.3 850.69,-204.8 842.47,-195.37"/>
<polygon fill="midnightblue" stroke="midnightblue" points="845.05,-193 835.85,-187.75 839.77,-197.59 845.05,-193"/>
</g>
<!-- Node55&#45;&gt;Node56 -->
<g id="edge53" class="edge">
<title>Node55&#45;&gt;Node56</title>
<path fill="none" stroke="midnightblue" d="M89.23,-168.08C89.23,-161.01 89.23,-150.86 89.23,-141.99"/>
<polygon fill="midnightblue" stroke="midnightblue" points="92.73,-141.75 89.23,-131.75 85.73,-141.75 92.73,-141.75"/>
</g>
<!-- Node57 -->
<g id="node42" class="node">
<title>Node57</title>
<g id="a_node42"><a xlink:href="magick_8h.html" target="_top" xlink:title=" ">
<polygon fill="white" stroke="black" points="178.73,-56.5 178.73,-75.5 279.73,-75.5 279.73,-56.5 178.73,-56.5"/>
<text text-anchor="middle" x="229.23" y="-63.5" font-family="FreeSans" font-size="10.00">magick/magick.h</text>
</a>
</g>
</g>
<!-- Node55&#45;&gt;Node57 -->
<g id="edge56" class="edge">
<title>Node55&#45;&gt;Node57</title>
<path fill="none" stroke="midnightblue" d="M100.22,-168.37C124.04,-149.65 180.67,-105.15 210.35,-81.83"/>
<polygon fill="midnightblue" stroke="midnightblue" points="212.59,-84.52 218.3,-75.59 208.27,-79.02 212.59,-84.52"/>
</g>
<!-- Node55&#45;&gt;Node43 -->
<g id="edge59" class="edge">
<title>Node55&#45;&gt;Node43</title>
<path fill="none" stroke="midnightblue" d="M112.21,-168.44C136.39,-159.44 174.65,-145.19 201.88,-135.05"/>
<polygon fill="midnightblue" stroke="midnightblue" points="203.21,-138.29 211.36,-131.52 200.77,-131.73 203.21,-138.29"/>
</g>
<!-- Node56&#45;&gt;Node5 -->
<g id="edge54" class="edge">
<title>Node56&#45;&gt;Node5</title>
<path fill="none" stroke="midnightblue" d="M98.49,-112.2C112.2,-99.33 138.91,-74.86 163.23,-56 177.34,-45.06 193.95,-33.74 206.98,-25.19"/>
<polygon fill="midnightblue" stroke="midnightblue" points="209.26,-27.88 215.74,-19.5 205.45,-22.01 209.26,-27.88"/>
</g>
<!-- Node56&#45;&gt;Node30 -->
<g id="edge55" class="edge">
<title>Node56&#45;&gt;Node30</title>
<path fill="none" stroke="midnightblue" d="M129.48,-112.8C175.67,-103.39 251.56,-87.92 302.2,-77.6"/>
<polygon fill="midnightblue" stroke="midnightblue" points="303.19,-80.97 312.29,-75.55 301.79,-74.11 303.19,-80.97"/>
</g>
<!-- Node57&#45;&gt;Node5 -->
<g id="edge57" class="edge">
<title>Node57&#45;&gt;Node5</title>
<path fill="none" stroke="midnightblue" d="M229.23,-56.08C229.23,-49.01 229.23,-38.86 229.23,-29.99"/>
<polygon fill="midnightblue" stroke="midnightblue" points="232.73,-29.75 229.23,-19.75 225.73,-29.75 232.73,-29.75"/>
</g>
<!-- Node57&#45;&gt;Node31 -->
<g id="edge58" class="edge">
<title>Node57&#45;&gt;Node31</title>
<path fill="none" stroke="midnightblue" d="M255.69,-56.44C283.91,-47.32 328.77,-32.81 360.2,-22.65"/>
<polygon fill="midnightblue" stroke="midnightblue" points="361.45,-25.92 369.89,-19.52 359.3,-19.26 361.45,-25.92"/>
</g>
<!-- Node43&#45;&gt;Node5 -->
<g id="edge60" class="edge">
<title>Node43&#45;&gt;Node5</title>
<path fill="none" stroke="midnightblue" d="M212.42,-112.45C197.28,-105.22 178.28,-93.26 169.23,-76 158.49,-55.5 181.19,-36.61 201.67,-24.54"/>
<polygon fill="midnightblue" stroke="midnightblue" points="203.46,-27.55 210.51,-19.65 200.07,-21.43 203.46,-27.55"/>
</g>
<!-- Node43&#45;&gt;Node12 -->
<g id="edge61" class="edge">
<title>Node43&#45;&gt;Node12</title>
<path fill="none" stroke="midnightblue" d="M283.52,-115.87C387.96,-105.01 629.24,-79.9 718.88,-70.57"/>
<polygon fill="midnightblue" stroke="midnightblue" points="719.45,-74.03 729.04,-69.52 718.73,-67.07 719.45,-74.03"/>
</g>
<!-- Node43&#45;&gt;Node30 -->
<g id="edge62" class="edge">
<title>Node43&#45;&gt;Node30</title>
<path fill="none" stroke="midnightblue" d="M253.24,-112.44C272.82,-103.64 303.54,-89.81 325.96,-79.72"/>
<polygon fill="midnightblue" stroke="midnightblue" points="327.62,-82.81 335.3,-75.52 324.75,-76.43 327.62,-82.81"/>
</g>
<!-- Node58&#45;&gt;Node9 -->
<g id="edge66" class="edge">
<title>Node58&#45;&gt;Node9</title>
<path fill="none" stroke="midnightblue" d="M1011.27,-224.08C1008.02,-216.77 1003.31,-206.18 999.28,-197.1"/>
<polygon fill="midnightblue" stroke="midnightblue" points="1002.38,-195.47 995.12,-187.75 995.98,-198.31 1002.38,-195.47"/>
</g>
<!-- Node58&#45;&gt;Node15 -->
<g id="edge67" class="edge">
<title>Node58&#45;&gt;Node15</title>
<path fill="none" stroke="midnightblue" d="M1023.16,-224.08C1030.08,-216.3 1040.3,-204.8 1048.68,-195.37"/>
<polygon fill="midnightblue" stroke="midnightblue" points="1051.42,-197.55 1055.45,-187.75 1046.19,-192.9 1051.42,-197.55"/>
</g>
<!-- Node63&#45;&gt;Node30 -->
<g id="edge75" class="edge">
<title>Node63&#45;&gt;Node30</title>
<path fill="none" stroke="midnightblue" d="M325.61,-224.21C331.57,-215.49 340.13,-201.51 344.23,-188 354.81,-153.16 355.66,-110.25 355.1,-86.02"/>
<polygon fill="midnightblue" stroke="midnightblue" points="358.59,-85.62 354.75,-75.74 351.59,-85.86 358.59,-85.62"/>
</g>
<!-- Node63&#45;&gt;Node60 -->
<g id="edge76" class="edge">
<title>Node63&#45;&gt;Node60</title>
<path fill="none" stroke="midnightblue" d="M312.46,-224.08C306.67,-216.46 298.17,-205.26 291.09,-195.94"/>
<polygon fill="midnightblue" stroke="midnightblue" points="293.71,-193.6 284.87,-187.75 288.13,-197.83 293.71,-193.6"/>
</g>
</g>
</svg>
