<?xml version="1.0" encoding="UTF-8" standalone="no"?>
<!DOCTYPE svg PUBLIC "-//W3C//DTD SVG 1.1//EN"
 "http://www.w3.org/Graphics/SVG/1.1/DTD/svg11.dtd">
<!-- Generated by graphviz version 2.43.0 (0)
 -->
<!-- Title: color.h Pages: 1 -->
<svg width="4157pt" height="308pt"
 viewBox="0.00 0.00 4157.48 308.00" xmlns="http://www.w3.org/2000/svg" xmlns:xlink="http://www.w3.org/1999/xlink">
<g id="graph0" class="graph" transform="scale(1 1) rotate(0) translate(4 304)">
<title>color.h</title>
<polygon fill="white" stroke="transparent" points="-4,4 -4,-304 4153.48,-304 4153.48,4 -4,4"/>
<!-- Node1 -->
<g id="node1" class="node">
<title>Node1</title>
<g id="a_node1"><a xlink:title=" ">
<polygon fill="#bfbfbf" stroke="black" points="2045.98,-280.5 2045.98,-299.5 2094.98,-299.5 2094.98,-280.5 2045.98,-280.5"/>
<text text-anchor="middle" x="2070.48" y="-287.5" font-family="FreeSans" font-size="10.00">color.h</text>
</a>
</g>
</g>
<!-- Node2 -->
<g id="node2" class="node">
<title>Node2</title>
<g id="a_node2"><a xlink:href="MagickCore_8h.html" target="_top" xlink:title=" ">
<polygon fill="white" stroke="black" points="983.98,-56.5 983.98,-75.5 1066.98,-75.5 1066.98,-56.5 983.98,-56.5"/>
<text text-anchor="middle" x="1025.48" y="-63.5" font-family="FreeSans" font-size="10.00">MagickCore.h</text>
</a>
</g>
</g>
<!-- Node1&#45;&gt;Node2 -->
<g id="edge1" class="edge">
<title>Node1&#45;&gt;Node2</title>
<path fill="none" stroke="midnightblue" d="M2035.59,-288.78C1774.27,-287.09 132.26,-275.25 92.48,-244 45.4,-207.01 24.15,-155.32 65.48,-112 81.57,-95.14 801.29,-73.42 983.77,-68.18"/>
<polygon fill="midnightblue" stroke="midnightblue" points="2035.63,-292.28 2045.66,-288.85 2035.68,-285.28 2035.63,-292.28"/>
</g>
<!-- Node6 -->
<g id="node6" class="node">
<title>Node6</title>
<g id="a_node6"><a xlink:href="animate_8c.html" target="_top" xlink:title=" ">
<polygon fill="white" stroke="black" points="1433.98,-112.5 1433.98,-131.5 1498.98,-131.5 1498.98,-112.5 1433.98,-112.5"/>
<text text-anchor="middle" x="1466.48" y="-119.5" font-family="FreeSans" font-size="10.00">animate.c</text>
</a>
</g>
</g>
<!-- Node1&#45;&gt;Node6 -->
<g id="edge5" class="edge">
<title>Node1&#45;&gt;Node6</title>
<path fill="none" stroke="midnightblue" d="M2035.38,-284.85C1956.3,-274.78 1758.97,-245.5 1603.48,-188 1558.05,-171.2 1507.15,-144.97 1482.12,-131.55"/>
<polygon fill="midnightblue" stroke="midnightblue" points="2035.38,-288.38 2045.74,-286.15 2036.25,-281.43 2035.38,-288.38"/>
</g>
<!-- Node7 -->
<g id="node7" class="node">
<title>Node7</title>
<g id="a_node7"><a xlink:href="annotate_8c.html" target="_top" xlink:title=" ">
<polygon fill="white" stroke="black" points="2965.48,-56.5 2965.48,-75.5 3033.48,-75.5 3033.48,-56.5 2965.48,-56.5"/>
<text text-anchor="middle" x="2999.48" y="-63.5" font-family="FreeSans" font-size="10.00">annotate.c</text>
</a>
</g>
</g>
<!-- Node1&#45;&gt;Node7 -->
<g id="edge6" class="edge">
<title>Node1&#45;&gt;Node7</title>
<path fill="none" stroke="midnightblue" d="M2105.32,-289.21C2332.74,-290.44 3601.82,-294.96 3765.48,-244 3809.03,-230.44 3822.94,-223.58 3851.48,-188 3873.42,-160.67 3896.72,-137.31 3872.48,-112 3840.56,-78.66 3088.28,-81.75 3042.48,-76 3039.61,-75.64 3036.64,-75.19 3033.67,-74.68"/>
<polygon fill="midnightblue" stroke="midnightblue" points="2105.3,-285.71 2095.28,-289.16 2105.27,-292.71 2105.3,-285.71"/>
</g>
<!-- Node8 -->
<g id="node8" class="node">
<title>Node8</title>
<g id="a_node8"><a xlink:href="artifact_8c.html" target="_top" xlink:title=" ">
<polygon fill="white" stroke="black" points="3271.48,-112.5 3271.48,-131.5 3331.48,-131.5 3331.48,-112.5 3271.48,-112.5"/>
<text text-anchor="middle" x="3301.48" y="-119.5" font-family="FreeSans" font-size="10.00">artifact.c</text>
</a>
</g>
</g>
<!-- Node1&#45;&gt;Node8 -->
<g id="edge7" class="edge">
<title>Node1&#45;&gt;Node8</title>
<path fill="none" stroke="midnightblue" d="M2105.26,-288.87C2299.39,-287.97 3244.71,-281.7 3368.48,-244 3413.55,-230.27 3435.61,-229.18 3458.48,-188 3462.8,-180.23 3463.83,-175.1 3458.48,-168 3454.58,-162.82 3376.03,-142.05 3331.55,-130.63"/>
<polygon fill="midnightblue" stroke="midnightblue" points="2105.05,-285.37 2095.07,-288.91 2105.08,-292.37 2105.05,-285.37"/>
</g>
<!-- Node9 -->
<g id="node9" class="node">
<title>Node9</title>
<g id="a_node9"><a xlink:href="attribute_8c.html" target="_top" xlink:title=" ">
<polygon fill="white" stroke="black" points="1712.98,-56.5 1712.98,-75.5 1779.98,-75.5 1779.98,-56.5 1712.98,-56.5"/>
<text text-anchor="middle" x="1746.48" y="-63.5" font-family="FreeSans" font-size="10.00">attribute.c</text>
</a>
</g>
</g>
<!-- Node1&#45;&gt;Node9 -->
<g id="edge8" class="edge">
<title>Node1&#45;&gt;Node9</title>
<path fill="none" stroke="midnightblue" d="M2035.83,-289.11C1805.37,-289.73 498.53,-291.12 328.48,-244 279.77,-230.5 254.95,-231.67 229.48,-188 212.26,-158.47 257.02,-115.75 263.48,-112 330.07,-73.38 1571.65,-80.52 1648.48,-76 1669.98,-74.74 1694.05,-72.54 1712.96,-70.63"/>
<polygon fill="midnightblue" stroke="midnightblue" points="2035.99,-292.61 2045.98,-289.08 2035.97,-285.61 2035.99,-292.61"/>
</g>
<!-- Node10 -->
<g id="node10" class="node">
<title>Node10</title>
<g id="a_node10"><a xlink:href="color-private_8h.html" target="_top" xlink:title=" ">
<polygon fill="white" stroke="red" points="1831.48,-168.5 1831.48,-187.5 1919.48,-187.5 1919.48,-168.5 1831.48,-168.5"/>
<text text-anchor="middle" x="1875.48" y="-175.5" font-family="FreeSans" font-size="10.00">color&#45;private.h</text>
</a>
</g>
</g>
<!-- Node1&#45;&gt;Node10 -->
<g id="edge9" class="edge">
<title>Node1&#45;&gt;Node10</title>
<path fill="none" stroke="midnightblue" d="M2046.46,-275.45C2005.78,-252.5 1924.47,-206.63 1890.71,-187.59"/>
<polygon fill="midnightblue" stroke="midnightblue" points="2044.75,-278.5 2055.18,-280.37 2048.19,-272.41 2044.75,-278.5"/>
</g>
<!-- Node14 -->
<g id="node14" class="node">
<title>Node14</title>
<g id="a_node14"><a xlink:href="color_8c.html" target="_top" xlink:title=" ">
<polygon fill="white" stroke="black" points="936.48,-112.5 936.48,-131.5 984.48,-131.5 984.48,-112.5 936.48,-112.5"/>
<text text-anchor="middle" x="960.48" y="-119.5" font-family="FreeSans" font-size="10.00">color.c</text>
</a>
</g>
</g>
<!-- Node1&#45;&gt;Node14 -->
<g id="edge38" class="edge">
<title>Node1&#45;&gt;Node14</title>
<path fill="none" stroke="midnightblue" d="M2035.63,-289.37C1930.76,-289.96 1609.25,-287.77 1347.48,-244 1255.17,-228.57 1233.77,-216.05 1144.48,-188 1085.66,-169.52 1017.48,-144.46 982.97,-131.52"/>
<polygon fill="midnightblue" stroke="midnightblue" points="2035.96,-292.87 2045.94,-289.3 2035.91,-285.87 2035.96,-292.87"/>
</g>
<!-- Node15 -->
<g id="node15" class="node">
<title>Node15</title>
<g id="a_node15"><a xlink:href="colormap_8c.html" target="_top" xlink:title=" ">
<polygon fill="white" stroke="black" points="352.98,-112.5 352.98,-131.5 423.98,-131.5 423.98,-112.5 352.98,-112.5"/>
<text text-anchor="middle" x="388.48" y="-119.5" font-family="FreeSans" font-size="10.00">colormap.c</text>
</a>
</g>
</g>
<!-- Node1&#45;&gt;Node15 -->
<g id="edge43" class="edge">
<title>Node1&#45;&gt;Node15</title>
<path fill="none" stroke="midnightblue" d="M2035.19,-288.32C1871.79,-285.06 1187.78,-270.07 975.48,-244 761.19,-217.69 508.63,-154.53 420.63,-131.55"/>
<polygon fill="midnightblue" stroke="midnightblue" points="2035.55,-291.83 2045.61,-288.53 2035.69,-284.83 2035.55,-291.83"/>
</g>
<!-- Node16 -->
<g id="node16" class="node">
<title>Node16</title>
<g id="a_node16"><a xlink:href="colorspace_8c.html" target="_top" xlink:title=" ">
<polygon fill="white" stroke="black" points="1002.98,-112.5 1002.98,-131.5 1079.98,-131.5 1079.98,-112.5 1002.98,-112.5"/>
<text text-anchor="middle" x="1041.48" y="-119.5" font-family="FreeSans" font-size="10.00">colorspace.c</text>
</a>
</g>
</g>
<!-- Node1&#45;&gt;Node16 -->
<g id="edge44" class="edge">
<title>Node1&#45;&gt;Node16</title>
<path fill="none" stroke="midnightblue" d="M2035.33,-289.39C1915.85,-289.78 1515.45,-283.43 1203.48,-188 1150.16,-171.69 1089.8,-145.25 1060.07,-131.66"/>
<polygon fill="midnightblue" stroke="midnightblue" points="2035.71,-292.89 2045.69,-289.34 2035.67,-285.89 2035.71,-292.89"/>
</g>
<!-- Node17 -->
<g id="node17" class="node">
<title>Node17</title>
<g id="a_node17"><a xlink:href="compare_8c.html" target="_top" xlink:title=" ">
<polygon fill="white" stroke="black" points="2795.48,-56.5 2795.48,-75.5 2863.48,-75.5 2863.48,-56.5 2795.48,-56.5"/>
<text text-anchor="middle" x="2829.48" y="-63.5" font-family="FreeSans" font-size="10.00">compare.c</text>
</a>
</g>
</g>
<!-- Node1&#45;&gt;Node17 -->
<g id="edge45" class="edge">
<title>Node1&#45;&gt;Node17</title>
<path fill="none" stroke="midnightblue" d="M2105.47,-288.76C2324.74,-287.18 3505.52,-277.15 3662.48,-244 3753.2,-224.84 3810.72,-220.46 3838.48,-132 3841.15,-123.52 3844.65,-118.4 3838.48,-112 3801.22,-73.32 2925.79,-82.52 2872.48,-76 2869.61,-75.65 2866.64,-75.2 2863.67,-74.7"/>
<polygon fill="midnightblue" stroke="midnightblue" points="2105.17,-285.27 2095.19,-288.84 2105.22,-292.26 2105.17,-285.27"/>
</g>
<!-- Node18 -->
<g id="node18" class="node">
<title>Node18</title>
<g id="a_node18"><a xlink:href="composite_8c.html" target="_top" xlink:title=" ">
<polygon fill="white" stroke="black" points="3051.48,-56.5 3051.48,-75.5 3127.48,-75.5 3127.48,-56.5 3051.48,-56.5"/>
<text text-anchor="middle" x="3089.48" y="-63.5" font-family="FreeSans" font-size="10.00">composite.c</text>
</a>
</g>
</g>
<!-- Node1&#45;&gt;Node18 -->
<g id="edge59" class="edge">
<title>Node1&#45;&gt;Node18</title>
<path fill="none" stroke="midnightblue" d="M2105.14,-288.73C2342.47,-286.83 3720.94,-274.49 3803.48,-244 3840.53,-230.31 3849.92,-220.42 3872.48,-188 3892.38,-159.42 3915.51,-137.2 3891.48,-112 3862.55,-81.65 3179.14,-80.88 3137.48,-76 3134.28,-75.63 3130.98,-75.16 3127.66,-74.65"/>
<polygon fill="midnightblue" stroke="midnightblue" points="2104.99,-285.23 2095.01,-288.81 2105.04,-292.23 2104.99,-285.23"/>
</g>
<!-- Node21 -->
<g id="node19" class="node">
<title>Node21</title>
<g id="a_node19"><a xlink:href="deprecate_8c.html" target="_top" xlink:title=" ">
<polygon fill="white" stroke="black" points="1826.48,-56.5 1826.48,-75.5 1900.48,-75.5 1900.48,-56.5 1826.48,-56.5"/>
<text text-anchor="middle" x="1863.48" y="-63.5" font-family="FreeSans" font-size="10.00">deprecate.c</text>
</a>
</g>
</g>
<!-- Node1&#45;&gt;Node21 -->
<g id="edge60" class="edge">
<title>Node1&#45;&gt;Node21</title>
<path fill="none" stroke="midnightblue" d="M2035.52,-288.49C1861.14,-285.84 1084.26,-272.62 844.48,-244 720.63,-229.22 691.16,-215.45 569.48,-188 468.54,-165.23 407.25,-213.5 343.48,-132 338.01,-125 337.28,-118.36 343.48,-112 371.52,-83.26 1748.44,-78.9 1788.48,-76 1800.78,-75.11 1814.16,-73.66 1826.17,-72.18"/>
<polygon fill="midnightblue" stroke="midnightblue" points="2035.62,-291.99 2045.67,-288.65 2035.73,-285 2035.62,-291.99"/>
</g>
<!-- Node23 -->
<g id="node20" class="node">
<title>Node23</title>
<g id="a_node20"><a xlink:href="draw_8c.html" target="_top" xlink:title=" ">
<polygon fill="white" stroke="black" points="1932.48,-56.5 1932.48,-75.5 1980.48,-75.5 1980.48,-56.5 1932.48,-56.5"/>
<text text-anchor="middle" x="1956.48" y="-63.5" font-family="FreeSans" font-size="10.00">draw.c</text>
</a>
</g>
</g>
<!-- Node1&#45;&gt;Node23 -->
<g id="edge62" class="edge">
<title>Node1&#45;&gt;Node23</title>
<path fill="none" stroke="midnightblue" d="M2061.32,-271.16C2038.19,-226.12 1978.08,-109.06 1961.05,-75.88"/>
<polygon fill="midnightblue" stroke="midnightblue" points="2058.33,-273 2066.02,-280.3 2064.56,-269.8 2058.33,-273"/>
</g>
<!-- Node24 -->
<g id="node21" class="node">
<title>Node24</title>
<g id="a_node21"><a xlink:href="effect_8c.html" target="_top" xlink:title=" ">
<polygon fill="white" stroke="black" points="470.98,-56.5 470.98,-75.5 523.98,-75.5 523.98,-56.5 470.98,-56.5"/>
<text text-anchor="middle" x="497.48" y="-63.5" font-family="FreeSans" font-size="10.00">effect.c</text>
</a>
</g>
</g>
<!-- Node1&#45;&gt;Node24 -->
<g id="edge98" class="edge">
<title>Node1&#45;&gt;Node24</title>
<path fill="none" stroke="midnightblue" d="M2035.62,-288.72C1772.71,-286.55 110.57,-271.74 67.48,-244 17.59,-211.88 4.75,-153.16 47.48,-112 80.74,-79.97 415.94,-83.62 461.48,-76 464.53,-75.49 467.71,-74.85 470.85,-74.16"/>
<polygon fill="midnightblue" stroke="midnightblue" points="2035.71,-292.22 2045.74,-288.8 2035.77,-285.22 2035.71,-292.22"/>
</g>
<!-- Node25 -->
<g id="node22" class="node">
<title>Node25</title>
<g id="a_node22"><a xlink:href="enhance_8c.html" target="_top" xlink:title=" ">
<polygon fill="white" stroke="black" points="2881.48,-56.5 2881.48,-75.5 2947.48,-75.5 2947.48,-56.5 2881.48,-56.5"/>
<text text-anchor="middle" x="2914.48" y="-63.5" font-family="FreeSans" font-size="10.00">enhance.c</text>
</a>
</g>
</g>
<!-- Node1&#45;&gt;Node25 -->
<g id="edge99" class="edge">
<title>Node1&#45;&gt;Node25</title>
<path fill="none" stroke="midnightblue" d="M2105.35,-288.97C2329.02,-288.65 3558.11,-285.05 3719.48,-244 3772.65,-230.48 3791.99,-228.05 3829.48,-188 3853.69,-162.14 3878.02,-137.54 3853.48,-112 3818.93,-76.03 3005.97,-82.25 2956.48,-76 2953.67,-75.65 2950.77,-75.2 2947.87,-74.69"/>
<polygon fill="midnightblue" stroke="midnightblue" points="2105.18,-285.47 2095.18,-288.98 2105.18,-292.47 2105.18,-285.47"/>
</g>
<!-- Node26 -->
<g id="node23" class="node">
<title>Node26</title>
<g id="a_node23"><a xlink:href="feature_8c.html" target="_top" xlink:title=" ">
<polygon fill="white" stroke="black" points="1395.48,-56.5 1395.48,-75.5 1455.48,-75.5 1455.48,-56.5 1395.48,-56.5"/>
<text text-anchor="middle" x="1425.48" y="-63.5" font-family="FreeSans" font-size="10.00">feature.c</text>
</a>
</g>
</g>
<!-- Node1&#45;&gt;Node26 -->
<g id="edge100" class="edge">
<title>Node1&#45;&gt;Node26</title>
<path fill="none" stroke="midnightblue" d="M2035.65,-288.7C1778.14,-286.4 178.8,-271.05 137.48,-244 91.57,-213.94 97.32,-185.59 85.48,-132 83.57,-123.32 79.29,-118.37 85.48,-112 135.63,-60.44 1308.01,-83.93 1379.48,-76 1384.66,-75.43 1390.12,-74.58 1395.41,-73.62"/>
<polygon fill="midnightblue" stroke="midnightblue" points="2035.88,-292.2 2045.91,-288.79 2035.94,-285.2 2035.88,-292.2"/>
</g>
<!-- Node27 -->
<g id="node24" class="node">
<title>Node27</title>
<g id="a_node24"><a xlink:href="fx_8c.html" target="_top" xlink:title=" ">
<polygon fill="white" stroke="black" points="1516.98,-112.5 1516.98,-131.5 1551.98,-131.5 1551.98,-112.5 1516.98,-112.5"/>
<text text-anchor="middle" x="1534.48" y="-119.5" font-family="FreeSans" font-size="10.00">fx.c</text>
</a>
</g>
</g>
<!-- Node1&#45;&gt;Node27 -->
<g id="edge101" class="edge">
<title>Node1&#45;&gt;Node27</title>
<path fill="none" stroke="midnightblue" d="M2035.93,-282.26C1996.54,-274.3 1930.39,-260.09 1874.48,-244 1801.68,-223.05 1784.87,-213.37 1713.48,-188 1654.14,-166.91 1584,-141.21 1551.99,-129.45"/>
<polygon fill="midnightblue" stroke="midnightblue" points="2035.33,-285.7 2045.82,-284.24 2036.7,-278.84 2035.33,-285.7"/>
</g>
<!-- Node30 -->
<g id="node25" class="node">
<title>Node30</title>
<g id="a_node25"><a xlink:href="image_8c.html" target="_top" xlink:title=" ">
<polygon fill="white" stroke="black" points="1583.48,-56.5 1583.48,-75.5 1639.48,-75.5 1639.48,-56.5 1583.48,-56.5"/>
<text text-anchor="middle" x="1611.48" y="-63.5" font-family="FreeSans" font-size="10.00">image.c</text>
</a>
</g>
</g>
<!-- Node1&#45;&gt;Node30 -->
<g id="edge103" class="edge">
<title>Node1&#45;&gt;Node30</title>
<path fill="none" stroke="midnightblue" d="M2035.7,-289.04C1791.46,-289.17 341.32,-288.13 260.48,-244 234.08,-229.59 231.32,-216.75 222.48,-188 212.29,-154.82 212.74,-132.86 240.48,-112 294.86,-71.12 1396.52,-79.08 1464.48,-76 1505.86,-74.13 1553.74,-71.02 1583.32,-68.99"/>
<polygon fill="midnightblue" stroke="midnightblue" points="2035.79,-292.54 2045.78,-289.03 2035.78,-285.54 2035.79,-292.54"/>
</g>
<!-- Node31 -->
<g id="node26" class="node">
<title>Node31</title>
<g id="a_node26"><a xlink:href="layer_8c.html" target="_top" xlink:title=" ">
<polygon fill="white" stroke="black" points="1182.98,-112.5 1182.98,-131.5 1231.98,-131.5 1231.98,-112.5 1182.98,-112.5"/>
<text text-anchor="middle" x="1207.48" y="-119.5" font-family="FreeSans" font-size="10.00">layer.c</text>
</a>
</g>
</g>
<!-- Node1&#45;&gt;Node31 -->
<g id="edge162" class="edge">
<title>Node1&#45;&gt;Node31</title>
<path fill="none" stroke="midnightblue" d="M2035.69,-287.29C1962.52,-283.27 1787.62,-271.4 1643.48,-244 1484.12,-213.71 1298.16,-153.55 1232.21,-131.42"/>
<polygon fill="midnightblue" stroke="midnightblue" points="2035.55,-290.79 2045.73,-287.83 2035.93,-283.8 2035.55,-290.79"/>
</g>
<!-- Node35 -->
<g id="node27" class="node">
<title>Node35</title>
<g id="a_node27"><a xlink:href="quantize_8c.html" target="_top" xlink:title=" ">
<polygon fill="white" stroke="black" points="1097.98,-112.5 1097.98,-131.5 1164.98,-131.5 1164.98,-112.5 1097.98,-112.5"/>
<text text-anchor="middle" x="1131.48" y="-119.5" font-family="FreeSans" font-size="10.00">quantize.c</text>
</a>
</g>
</g>
<!-- Node1&#45;&gt;Node35 -->
<g id="edge170" class="edge">
<title>Node1&#45;&gt;Node35</title>
<path fill="none" stroke="midnightblue" d="M2035.57,-288.11C1951.79,-285.51 1733,-275.95 1553.48,-244 1460.07,-227.38 1438.7,-214.12 1347.48,-188 1279.53,-168.54 1200.02,-144.21 1159.03,-131.55"/>
<polygon fill="midnightblue" stroke="midnightblue" points="2035.69,-291.61 2045.79,-288.41 2035.9,-284.62 2035.69,-291.61"/>
</g>
<!-- Node40 -->
<g id="node28" class="node">
<title>Node40</title>
<g id="a_node28"><a xlink:href="resize_8c.html" target="_top" xlink:title=" ">
<polygon fill="white" stroke="black" points="1570.48,-112.5 1570.48,-131.5 1624.48,-131.5 1624.48,-112.5 1570.48,-112.5"/>
<text text-anchor="middle" x="1597.48" y="-119.5" font-family="FreeSans" font-size="10.00">resize.c</text>
</a>
</g>
</g>
<!-- Node1&#45;&gt;Node40 -->
<g id="edge171" class="edge">
<title>Node1&#45;&gt;Node40</title>
<path fill="none" stroke="midnightblue" d="M2035.97,-277.66C1980.34,-259.31 1867.47,-221.73 1772.48,-188 1717.36,-168.42 1652.97,-144.14 1619.79,-131.52"/>
<polygon fill="midnightblue" stroke="midnightblue" points="2035.08,-281.05 2045.68,-280.86 2037.27,-274.41 2035.08,-281.05"/>
</g>
<!-- Node42 -->
<g id="node29" class="node">
<title>Node42</title>
<g id="a_node29"><a xlink:href="statistic_8c.html" target="_top" xlink:title=" ">
<polygon fill="white" stroke="black" points="1306.48,-56.5 1306.48,-75.5 1370.48,-75.5 1370.48,-56.5 1306.48,-56.5"/>
<text text-anchor="middle" x="1338.48" y="-63.5" font-family="FreeSans" font-size="10.00">statistic.c</text>
</a>
</g>
</g>
<!-- Node1&#45;&gt;Node42 -->
<g id="edge173" class="edge">
<title>Node1&#45;&gt;Node42</title>
<path fill="none" stroke="midnightblue" d="M2035.58,-288.73C1775.81,-286.62 152.75,-272.36 111.48,-244 89.31,-228.76 96,-213.83 88.48,-188 78.96,-155.29 54.83,-136.52 78.48,-112 79.86,-110.57 1110.23,-74.89 1306.43,-68.11"/>
<polygon fill="midnightblue" stroke="midnightblue" points="2035.89,-292.23 2045.92,-288.81 2035.95,-285.23 2035.89,-292.23"/>
</g>
<!-- Node44 -->
<g id="node30" class="node">
<title>Node44</title>
<g id="a_node30"><a xlink:href="threshold_8c.html" target="_top" xlink:title=" ">
<polygon fill="white" stroke="black" points="1344.98,-112.5 1344.98,-131.5 1415.98,-131.5 1415.98,-112.5 1344.98,-112.5"/>
<text text-anchor="middle" x="1380.48" y="-119.5" font-family="FreeSans" font-size="10.00">threshold.c</text>
</a>
</g>
</g>
<!-- Node1&#45;&gt;Node44 -->
<g id="edge174" class="edge">
<title>Node1&#45;&gt;Node44</title>
<path fill="none" stroke="midnightblue" d="M2035.27,-286.95C1971.01,-282.69 1830.72,-270.92 1715.48,-244 1641.3,-226.67 1625.15,-213.84 1553.48,-188 1499.16,-168.41 1435.7,-144.23 1402.81,-131.6"/>
<polygon fill="midnightblue" stroke="midnightblue" points="2035.44,-290.47 2045.64,-287.62 2035.89,-283.49 2035.44,-290.47"/>
</g>
<!-- Node45 -->
<g id="node31" class="node">
<title>Node45</title>
<g id="a_node31"><a xlink:href="transform_8c.html" target="_top" xlink:title=" ">
<polygon fill="white" stroke="black" points="2250.98,-112.5 2250.98,-131.5 2323.98,-131.5 2323.98,-112.5 2250.98,-112.5"/>
<text text-anchor="middle" x="2287.48" y="-119.5" font-family="FreeSans" font-size="10.00">transform.c</text>
</a>
</g>
</g>
<!-- Node1&#45;&gt;Node45 -->
<g id="edge175" class="edge">
<title>Node1&#45;&gt;Node45</title>
<path fill="none" stroke="midnightblue" d="M2089.8,-274.23C2133.97,-240.44 2241.24,-158.38 2276.24,-131.61"/>
<polygon fill="midnightblue" stroke="midnightblue" points="2087.66,-271.45 2081.85,-280.31 2091.92,-277.01 2087.66,-271.45"/>
</g>
<!-- Node46 -->
<g id="node32" class="node">
<title>Node46</title>
<g id="a_node32"><a xlink:href="vision_8c.html" target="_top" xlink:title=" ">
<polygon fill="white" stroke="black" points="398.48,-56.5 398.48,-75.5 452.48,-75.5 452.48,-56.5 398.48,-56.5"/>
<text text-anchor="middle" x="425.48" y="-63.5" font-family="FreeSans" font-size="10.00">vision.c</text>
</a>
</g>
</g>
<!-- Node1&#45;&gt;Node46 -->
<g id="edge177" class="edge">
<title>Node1&#45;&gt;Node46</title>
<path fill="none" stroke="midnightblue" d="M2035.57,-288.75C1770.47,-286.82 84.3,-273.4 41.48,-244 -7.11,-210.63 -14.51,-152.33 28.48,-112 55.45,-86.7 312.97,-72.32 398.23,-68.23"/>
<polygon fill="midnightblue" stroke="midnightblue" points="2035.74,-292.26 2045.76,-288.83 2035.79,-285.26 2035.74,-292.26"/>
</g>
<!-- Node47 -->
<g id="node33" class="node">
<title>Node47</title>
<g id="a_node33"><a xlink:href="visual-effects_8c.html" target="_top" xlink:title=" ">
<polygon fill="white" stroke="black" points="2341.98,-112.5 2341.98,-131.5 2432.98,-131.5 2432.98,-112.5 2341.98,-112.5"/>
<text text-anchor="middle" x="2387.48" y="-119.5" font-family="FreeSans" font-size="10.00">visual&#45;effects.c</text>
</a>
</g>
</g>
<!-- Node1&#45;&gt;Node47 -->
<g id="edge178" class="edge">
<title>Node1&#45;&gt;Node47</title>
<path fill="none" stroke="midnightblue" d="M2096.32,-275.47C2159.29,-242.5 2319.28,-158.71 2371.05,-131.61"/>
<polygon fill="midnightblue" stroke="midnightblue" points="2094.32,-272.57 2087.08,-280.31 2097.56,-278.77 2094.32,-272.57"/>
</g>
<!-- Node48 -->
<g id="node34" class="node">
<title>Node48</title>
<g id="a_node34"><a xlink:href="widget_8c.html" target="_top" xlink:title=" ">
<polygon fill="white" stroke="black" points="3349.48,-112.5 3349.48,-131.5 3407.48,-131.5 3407.48,-112.5 3349.48,-112.5"/>
<text text-anchor="middle" x="3378.48" y="-119.5" font-family="FreeSans" font-size="10.00">widget.c</text>
</a>
</g>
</g>
<!-- Node1&#45;&gt;Node48 -->
<g id="edge179" class="edge">
<title>Node1&#45;&gt;Node48</title>
<path fill="none" stroke="midnightblue" d="M2105.25,-289.24C2303.45,-290.41 3286.19,-293.66 3410.48,-244 3451.23,-227.72 3496.95,-205.07 3473.48,-168 3465.53,-155.43 3429.19,-140.62 3403.84,-131.53"/>
<polygon fill="midnightblue" stroke="midnightblue" points="2105.14,-285.74 2095.12,-289.18 2105.1,-292.74 2105.14,-285.74"/>
</g>
<!-- Node49 -->
<g id="node35" class="node">
<title>Node49</title>
<g id="a_node35"><a xlink:href="xwindow_8c.html" target="_top" xlink:title=" ">
<polygon fill="white" stroke="black" points="3425.48,-112.5 3425.48,-131.5 3493.48,-131.5 3493.48,-112.5 3425.48,-112.5"/>
<text text-anchor="middle" x="3459.48" y="-119.5" font-family="FreeSans" font-size="10.00">xwindow.c</text>
</a>
</g>
</g>
<!-- Node1&#45;&gt;Node49 -->
<g id="edge180" class="edge">
<title>Node1&#45;&gt;Node49</title>
<path fill="none" stroke="midnightblue" d="M2105.18,-288.67C2312.68,-286.6 3382.64,-274.48 3444.48,-244 3473.38,-229.76 3479.63,-218.32 3490.48,-188 3497.99,-167.05 3480.07,-143.81 3468.45,-131.59"/>
<polygon fill="midnightblue" stroke="midnightblue" points="2105.11,-285.17 2095.15,-288.77 2105.18,-292.17 2105.11,-285.17"/>
</g>
<!-- Node50 -->
<g id="node36" class="node">
<title>Node50</title>
<g id="a_node36"><a xlink:href="colormap-private_8h.html" target="_top" xlink:title=" ">
<polygon fill="white" stroke="black" points="238.48,-168.5 238.48,-187.5 348.48,-187.5 348.48,-168.5 238.48,-168.5"/>
<text text-anchor="middle" x="293.48" y="-175.5" font-family="FreeSans" font-size="10.00">colormap&#45;private.h</text>
</a>
</g>
</g>
<!-- Node1&#45;&gt;Node50 -->
<g id="edge39" class="edge">
<title>Node1&#45;&gt;Node50</title>
<path fill="none" stroke="midnightblue" d="M2035.93,-288.79C1800.79,-287.26 442.63,-277.03 362.48,-244 333.88,-232.21 310.08,-202.68 299.45,-187.83"/>
<polygon fill="midnightblue" stroke="midnightblue" points="2035.95,-292.29 2045.97,-288.85 2035.99,-285.29 2035.95,-292.29"/>
</g>
<!-- Node51 -->
<g id="node37" class="node">
<title>Node51</title>
<g id="a_node37"><a xlink:href="composite-private_8h.html" target="_top" xlink:title=" ">
<polygon fill="white" stroke="red" points="2869.98,-112.5 2869.98,-131.5 2984.98,-131.5 2984.98,-112.5 2869.98,-112.5"/>
<text text-anchor="middle" x="2927.48" y="-119.5" font-family="FreeSans" font-size="10.00">composite&#45;private.h</text>
</a>
</g>
</g>
<!-- Node1&#45;&gt;Node51 -->
<g id="edge46" class="edge">
<title>Node1&#45;&gt;Node51</title>
<path fill="none" stroke="midnightblue" d="M2105.17,-289.24C2308.23,-290.28 3336.88,-290.45 3426.48,-188 3432.34,-181.31 3432.48,-174.56 3426.48,-168 3411.76,-151.89 3113.27,-133.37 2985.12,-126.13"/>
<polygon fill="midnightblue" stroke="midnightblue" points="2105.1,-285.74 2095.08,-289.18 2105.06,-292.74 2105.1,-285.74"/>
</g>
<!-- Node52 -->
<g id="node38" class="node">
<title>Node52</title>
<g id="a_node38"><a xlink:href="display_8c.html" target="_top" xlink:title=" ">
<polygon fill="white" stroke="black" points="2717.98,-56.5 2717.98,-75.5 2776.98,-75.5 2776.98,-56.5 2717.98,-56.5"/>
<text text-anchor="middle" x="2747.48" y="-63.5" font-family="FreeSans" font-size="10.00">display.c</text>
</a>
</g>
</g>
<!-- Node1&#45;&gt;Node52 -->
<g id="edge61" class="edge">
<title>Node1&#45;&gt;Node52</title>
<path fill="none" stroke="midnightblue" d="M2105.24,-288.88C2319.34,-288.01 3454.81,-281.66 3604.48,-244 3710.12,-217.42 3766.26,-225.29 3822.48,-132 3827.07,-124.39 3828.66,-118.39 3822.48,-112 3782.48,-70.58 2843.58,-83.51 2786.48,-76 2783.45,-75.6 2780.31,-75.07 2777.19,-74.47"/>
<polygon fill="midnightblue" stroke="midnightblue" points="2105.18,-285.38 2095.2,-288.92 2105.21,-292.38 2105.18,-285.38"/>
</g>
<!-- Node53 -->
<g id="node39" class="node">
<title>Node53</title>
<g id="a_node39"><a xlink:href="draw_8h.html" target="_top" xlink:title=" ">
<polygon fill="white" stroke="red" points="2637.98,-168.5 2637.98,-187.5 2686.98,-187.5 2686.98,-168.5 2637.98,-168.5"/>
<text text-anchor="middle" x="2662.48" y="-175.5" font-family="FreeSans" font-size="10.00">draw.h</text>
</a>
</g>
</g>
<!-- Node1&#45;&gt;Node53 -->
<g id="edge63" class="edge">
<title>Node1&#45;&gt;Node53</title>
<path fill="none" stroke="midnightblue" d="M2105.28,-283.66C2157.08,-275.61 2257.49,-259.66 2342.48,-244 2452.87,-223.66 2583.93,-195.9 2637.65,-184.37"/>
<polygon fill="midnightblue" stroke="midnightblue" points="2104.64,-280.22 2095.29,-285.21 2105.71,-287.13 2104.64,-280.22"/>
</g>
<!-- Node55 -->
<g id="node40" class="node">
<title>Node55</title>
<g id="a_node40"><a xlink:href="identify_8c.html" target="_top" xlink:title=" ">
<polygon fill="white" stroke="black" points="3117.48,-112.5 3117.48,-131.5 3177.48,-131.5 3177.48,-112.5 3117.48,-112.5"/>
<text text-anchor="middle" x="3147.48" y="-119.5" font-family="FreeSans" font-size="10.00">identify.c</text>
</a>
</g>
</g>
<!-- Node1&#45;&gt;Node55 -->
<g id="edge102" class="edge">
<title>Node1&#45;&gt;Node55</title>
<path fill="none" stroke="midnightblue" d="M2105.26,-288.46C2293.42,-285.44 3185.51,-269.85 3305.48,-244 3369.79,-230.14 3405.81,-242.61 3442.48,-188 3447.44,-180.62 3448.28,-174.74 3442.48,-168 3425.33,-148.03 3249.46,-131.41 3177.71,-125.4"/>
<polygon fill="midnightblue" stroke="midnightblue" points="2105.06,-284.96 2095.11,-288.62 2105.17,-291.96 2105.06,-284.96"/>
</g>
<!-- Node57 -->
<g id="node41" class="node">
<title>Node57</title>
<g id="a_node41"><a xlink:href="montage_8c.html" target="_top" xlink:title=" ">
<polygon fill="white" stroke="black" points="3511.48,-112.5 3511.48,-131.5 3579.48,-131.5 3579.48,-112.5 3511.48,-112.5"/>
<text text-anchor="middle" x="3545.48" y="-119.5" font-family="FreeSans" font-size="10.00">montage.c</text>
</a>
</g>
</g>
<!-- Node1&#45;&gt;Node57 -->
<g id="edge163" class="edge">
<title>Node1&#45;&gt;Node57</title>
<path fill="none" stroke="midnightblue" d="M2105.28,-288.82C2315.76,-287.61 3411.72,-279.6 3472.48,-244 3516.3,-218.33 3536.99,-155.06 3543.3,-131.78"/>
<polygon fill="midnightblue" stroke="midnightblue" points="2105.1,-285.32 2095.12,-288.88 2105.13,-292.32 2105.1,-285.32"/>
</g>
<!-- Node63 -->
<g id="node42" class="node">
<title>Node63</title>
<g id="a_node42"><a xlink:href="opencl_8c.html" target="_top" xlink:title=" ">
<polygon fill="white" stroke="black" points="3597.98,-112.5 3597.98,-131.5 3654.98,-131.5 3654.98,-112.5 3597.98,-112.5"/>
<text text-anchor="middle" x="3626.48" y="-119.5" font-family="FreeSans" font-size="10.00">opencl.c</text>
</a>
</g>
</g>
<!-- Node1&#45;&gt;Node63 -->
<g id="edge164" class="edge">
<title>Node1&#45;&gt;Node63</title>
<path fill="none" stroke="midnightblue" d="M2105.44,-288.6C2318.1,-286.05 3431.22,-271.43 3497.48,-244 3556.5,-219.57 3604.77,-154.96 3620.8,-131.59"/>
<polygon fill="midnightblue" stroke="midnightblue" points="2105.13,-285.1 2095.17,-288.72 2105.22,-292.1 2105.13,-285.1"/>
</g>
<!-- Node66 -->
<g id="node43" class="node">
<title>Node66</title>
<g id="a_node43"><a xlink:href="option_8c.html" target="_top" xlink:title=" ">
<polygon fill="white" stroke="black" points="3673.48,-112.5 3673.48,-131.5 3729.48,-131.5 3729.48,-112.5 3673.48,-112.5"/>
<text text-anchor="middle" x="3701.48" y="-119.5" font-family="FreeSans" font-size="10.00">option.c</text>
</a>
</g>
</g>
<!-- Node1&#45;&gt;Node66 -->
<g id="edge165" class="edge">
<title>Node1&#45;&gt;Node66</title>
<path fill="none" stroke="midnightblue" d="M2105.2,-289.11C2313.06,-289.6 3388.66,-289.89 3527.48,-244 3600.15,-219.98 3669.6,-155.11 3693.09,-131.63"/>
<polygon fill="midnightblue" stroke="midnightblue" points="2105.16,-285.61 2095.15,-289.08 2105.14,-292.61 2105.16,-285.61"/>
</g>
<!-- Node67 -->
<g id="node44" class="node">
<title>Node67</title>
<g id="a_node44"><a xlink:href="paint_8h.html" target="_top" xlink:title=" ">
<polygon fill="white" stroke="red" points="94.48,-112.5 94.48,-131.5 144.48,-131.5 144.48,-112.5 94.48,-112.5"/>
<text text-anchor="middle" x="119.48" y="-119.5" font-family="FreeSans" font-size="10.00">paint.h</text>
</a>
</g>
</g>
<!-- Node1&#45;&gt;Node67 -->
<g id="edge166" class="edge">
<title>Node1&#45;&gt;Node67</title>
<path fill="none" stroke="midnightblue" d="M2035.59,-288.74C1779.38,-286.73 197.61,-273.2 158.48,-244 121.87,-216.67 118.97,-154.42 119.2,-131.6"/>
<polygon fill="midnightblue" stroke="midnightblue" points="2035.78,-292.24 2045.81,-288.82 2035.83,-285.24 2035.78,-292.24"/>
</g>
<!-- Node64 -->
<g id="node45" class="node">
<title>Node64</title>
<g id="a_node45"><a xlink:href="property_8c.html" target="_top" xlink:title=" ">
<polygon fill="white" stroke="black" points="3747.98,-112.5 3747.98,-131.5 3812.98,-131.5 3812.98,-112.5 3747.98,-112.5"/>
<text text-anchor="middle" x="3780.48" y="-119.5" font-family="FreeSans" font-size="10.00">property.c</text>
</a>
</g>
</g>
<!-- Node1&#45;&gt;Node64 -->
<g id="edge169" class="edge">
<title>Node1&#45;&gt;Node64</title>
<path fill="none" stroke="midnightblue" d="M2105.32,-288.94C2316.3,-288.44 3418.91,-283.92 3563.48,-244 3649.97,-220.12 3739.17,-155.17 3769.58,-131.65"/>
<polygon fill="midnightblue" stroke="midnightblue" points="2105.12,-285.44 2095.13,-288.96 2105.14,-292.44 2105.12,-285.44"/>
</g>
<!-- Node88 -->
<g id="node46" class="node">
<title>Node88</title>
<g id="a_node46"><a xlink:href="image_8h.html" target="_top" xlink:title=" ">
<polygon fill="white" stroke="red" points="2706.48,-224.5 2706.48,-243.5 2762.48,-243.5 2762.48,-224.5 2706.48,-224.5"/>
<text text-anchor="middle" x="2734.48" y="-231.5" font-family="FreeSans" font-size="10.00">image.h</text>
</a>
</g>
</g>
<!-- Node1&#45;&gt;Node88 -->
<g id="edge104" class="edge">
<title>Node1&#45;&gt;Node88</title>
<path fill="none" stroke="midnightblue" d="M2105.5,-286.15C2222.7,-276.62 2599.81,-245.95 2706.27,-237.29"/>
<polygon fill="midnightblue" stroke="midnightblue" points="2104.99,-282.68 2095.3,-286.98 2105.55,-289.66 2104.99,-282.68"/>
</g>
<!-- Node82 -->
<g id="node47" class="node">
<title>Node82</title>
<g id="a_node47"><a xlink:href="pixel-private_8h.html" target="_top" xlink:title=" ">
<polygon fill="white" stroke="red" points="890.98,-168.5 890.98,-187.5 977.98,-187.5 977.98,-168.5 890.98,-168.5"/>
<text text-anchor="middle" x="934.48" y="-175.5" font-family="FreeSans" font-size="10.00">pixel&#45;private.h</text>
</a>
</g>
</g>
<!-- Node1&#45;&gt;Node82 -->
<g id="edge167" class="edge">
<title>Node1&#45;&gt;Node82</title>
<path fill="none" stroke="midnightblue" d="M2035.46,-288.84C1863.13,-287.87 1109.6,-281.51 1012.48,-244 981.57,-232.06 954,-202.6 941.53,-187.79"/>
<polygon fill="midnightblue" stroke="midnightblue" points="2035.49,-292.34 2045.51,-288.89 2035.53,-285.34 2035.49,-292.34"/>
</g>
<!-- Node79 -->
<g id="node48" class="node">
<title>Node79</title>
<g id="a_node48"><a xlink:href="profile_8c.html" target="_top" xlink:title=" ">
<polygon fill="white" stroke="black" points="3275.48,-168.5 3275.48,-187.5 3331.48,-187.5 3331.48,-168.5 3275.48,-168.5"/>
<text text-anchor="middle" x="3303.48" y="-175.5" font-family="FreeSans" font-size="10.00">profile.c</text>
</a>
</g>
</g>
<!-- Node1&#45;&gt;Node79 -->
<g id="edge168" class="edge">
<title>Node1&#45;&gt;Node79</title>
<path fill="none" stroke="midnightblue" d="M2105.09,-287.39C2207.2,-282.5 2516.02,-266.78 2771.48,-244 2989.81,-224.53 3045.17,-223.45 3261.48,-188 3265.9,-187.28 3270.55,-186.4 3275.09,-185.48"/>
<polygon fill="midnightblue" stroke="midnightblue" points="2104.86,-283.9 2095.04,-287.87 2105.2,-290.89 2104.86,-283.9"/>
</g>
<!-- Node80 -->
<g id="node49" class="node">
<title>Node80</title>
<g id="a_node49"><a xlink:href="segment_8c.html" target="_top" xlink:title=" ">
<polygon fill="white" stroke="black" points="3349.48,-168.5 3349.48,-187.5 3417.48,-187.5 3417.48,-168.5 3349.48,-168.5"/>
<text text-anchor="middle" x="3383.48" y="-175.5" font-family="FreeSans" font-size="10.00">segment.c</text>
</a>
</g>
</g>
<!-- Node1&#45;&gt;Node80 -->
<g id="edge172" class="edge">
<title>Node1&#45;&gt;Node80</title>
<path fill="none" stroke="midnightblue" d="M2105.37,-287.98C2219.18,-284.46 2589.97,-271.52 2895.48,-244 3094.02,-226.12 3143.88,-220.89 3340.48,-188 3343.34,-187.52 3346.3,-186.99 3349.26,-186.42"/>
<polygon fill="midnightblue" stroke="midnightblue" points="2105.05,-284.49 2095.16,-288.29 2105.27,-291.48 2105.05,-284.49"/>
</g>
<!-- Node72 -->
<g id="node50" class="node">
<title>Node72</title>
<g id="a_node50"><a xlink:href="utility_8c.html" target="_top" xlink:title=" ">
<polygon fill="white" stroke="black" points="4097.48,-224.5 4097.48,-243.5 4149.48,-243.5 4149.48,-224.5 4097.48,-224.5"/>
<text text-anchor="middle" x="4123.48" y="-231.5" font-family="FreeSans" font-size="10.00">utility.c</text>
</a>
</g>
</g>
<!-- Node1&#45;&gt;Node72 -->
<g id="edge176" class="edge">
<title>Node1&#45;&gt;Node72</title>
<path fill="none" stroke="midnightblue" d="M2105.25,-289.17C2338.49,-290.16 3678.53,-293.58 4083.48,-244 4088.01,-243.45 4092.77,-242.61 4097.37,-241.66"/>
<polygon fill="midnightblue" stroke="midnightblue" points="2105.01,-285.67 2094.99,-289.12 2104.98,-292.67 2105.01,-285.67"/>
</g>
<!-- Node3 -->
<g id="node3" class="node">
<title>Node3</title>
<g id="a_node3"><a xlink:href="ImageMagick_8h.html" target="_top" xlink:title=" ">
<polygon fill="white" stroke="black" points="894.48,-0.5 894.48,-19.5 986.48,-19.5 986.48,-0.5 894.48,-0.5"/>
<text text-anchor="middle" x="940.48" y="-7.5" font-family="FreeSans" font-size="10.00">ImageMagick.h</text>
</a>
</g>
</g>
<!-- Node2&#45;&gt;Node3 -->
<g id="edge2" class="edge">
<title>Node2&#45;&gt;Node3</title>
<path fill="none" stroke="midnightblue" d="M1003.29,-50.9C987.7,-41 967.35,-28.07 954.11,-19.65"/>
<polygon fill="midnightblue" stroke="midnightblue" points="1001.51,-53.92 1011.83,-56.32 1005.26,-48.01 1001.51,-53.92"/>
</g>
<!-- Node4 -->
<g id="node4" class="node">
<title>Node4</title>
<g id="a_node4"><a xlink:href="api_8h.html" target="_top" xlink:title=" ">
<polygon fill="white" stroke="black" points="1004.98,-0.5 1004.98,-19.5 1045.98,-19.5 1045.98,-0.5 1004.98,-0.5"/>
<text text-anchor="middle" x="1025.48" y="-7.5" font-family="FreeSans" font-size="10.00">api.h</text>
</a>
</g>
</g>
<!-- Node2&#45;&gt;Node4 -->
<g id="edge3" class="edge">
<title>Node2&#45;&gt;Node4</title>
<path fill="none" stroke="midnightblue" d="M1025.48,-45.8C1025.48,-36.91 1025.48,-26.78 1025.48,-19.75"/>
<polygon fill="midnightblue" stroke="midnightblue" points="1021.98,-46.08 1025.48,-56.08 1028.98,-46.08 1021.98,-46.08"/>
</g>
<!-- Node5 -->
<g id="node5" class="node">
<title>Node5</title>
<g id="a_node5"><a xlink:href="image-view_8c.html" target="_top" xlink:title=" ">
<polygon fill="white" stroke="black" points="1063.98,-0.5 1063.98,-19.5 1144.98,-19.5 1144.98,-0.5 1063.98,-0.5"/>
<text text-anchor="middle" x="1104.48" y="-7.5" font-family="FreeSans" font-size="10.00">image&#45;view.c</text>
</a>
</g>
</g>
<!-- Node2&#45;&gt;Node5 -->
<g id="edge4" class="edge">
<title>Node2&#45;&gt;Node5</title>
<path fill="none" stroke="midnightblue" d="M1046.52,-50.62C1060.95,-40.76 1079.63,-27.99 1091.82,-19.65"/>
<polygon fill="midnightblue" stroke="midnightblue" points="1044.46,-47.79 1038.18,-56.32 1048.41,-53.57 1044.46,-47.79"/>
</g>
<!-- Node10&#45;&gt;Node6 -->
<g id="edge11" class="edge">
<title>Node10&#45;&gt;Node6</title>
<path fill="none" stroke="midnightblue" d="M1821.2,-171.98C1749.21,-164.95 1618.3,-150.9 1507.48,-132 1504.75,-131.53 1501.93,-131.01 1499.1,-130.45"/>
<polygon fill="midnightblue" stroke="midnightblue" points="1821.1,-175.49 1831.39,-172.97 1821.77,-168.52 1821.1,-175.49"/>
</g>
<!-- Node10&#45;&gt;Node7 -->
<g id="edge12" class="edge">
<title>Node10&#45;&gt;Node7</title>
<path fill="none" stroke="midnightblue" d="M1929.78,-169.12C1978.36,-161.51 2051.3,-148.69 2113.48,-132 2139.41,-125.04 2144.13,-117.11 2170.48,-112 2513.78,-45.4 2609.56,-119.96 2956.48,-76 2959.36,-75.64 2962.33,-75.18 2965.3,-74.67"/>
<polygon fill="midnightblue" stroke="midnightblue" points="1929.15,-165.68 1919.8,-170.67 1930.22,-172.6 1929.15,-165.68"/>
</g>
<!-- Node10&#45;&gt;Node9 -->
<g id="edge13" class="edge">
<title>Node10&#45;&gt;Node9</title>
<path fill="none" stroke="midnightblue" d="M1874.31,-158.13C1872.49,-143.88 1867.91,-124.68 1856.48,-112 1836.66,-90 1804.5,-78.53 1780.06,-72.69"/>
<polygon fill="midnightblue" stroke="midnightblue" points="1870.84,-158.65 1875.26,-168.28 1877.81,-158 1870.84,-158.65"/>
</g>
<!-- Node11 -->
<g id="node11" class="node">
<title>Node11</title>
<g id="a_node11"><a xlink:href="accelerate_8c.html" target="_top" xlink:title=" ">
<polygon fill="white" stroke="black" points="1250.48,-112.5 1250.48,-131.5 1326.48,-131.5 1326.48,-112.5 1250.48,-112.5"/>
<text text-anchor="middle" x="1288.48" y="-119.5" font-family="FreeSans" font-size="10.00">accelerate.c</text>
</a>
</g>
</g>
<!-- Node10&#45;&gt;Node11 -->
<g id="edge10" class="edge">
<title>Node10&#45;&gt;Node11</title>
<path fill="none" stroke="midnightblue" d="M1821,-174.37C1723.34,-169.24 1512.19,-156.21 1335.48,-132 1332.6,-131.61 1329.63,-131.15 1326.65,-130.66"/>
<polygon fill="midnightblue" stroke="midnightblue" points="1821.05,-177.88 1831.21,-174.9 1821.41,-170.89 1821.05,-177.88"/>
</g>
<!-- Node12 -->
<g id="node12" class="node">
<title>Node12</title>
<g id="a_node12"><a xlink:href="cache_8c.html" target="_top" xlink:title=" ">
<polygon fill="white" stroke="black" points="1998.98,-56.5 1998.98,-75.5 2051.98,-75.5 2051.98,-56.5 1998.98,-56.5"/>
<text text-anchor="middle" x="2025.48" y="-63.5" font-family="FreeSans" font-size="10.00">cache.c</text>
</a>
</g>
</g>
<!-- Node10&#45;&gt;Node12 -->
<g id="edge14" class="edge">
<title>Node10&#45;&gt;Node12</title>
<path fill="none" stroke="midnightblue" d="M1895.37,-162.42C1927.1,-139.15 1988.19,-94.35 2013.77,-75.59"/>
<polygon fill="midnightblue" stroke="midnightblue" points="1893.25,-159.63 1887.25,-168.37 1897.39,-165.28 1893.25,-159.63"/>
</g>
<!-- Node13 -->
<g id="node13" class="node">
<title>Node13</title>
<g id="a_node13"><a xlink:href="channel_8c.html" target="_top" xlink:title=" ">
<polygon fill="white" stroke="black" points="3145.98,-56.5 3145.98,-75.5 3208.98,-75.5 3208.98,-56.5 3145.98,-56.5"/>
<text text-anchor="middle" x="3177.48" y="-63.5" font-family="FreeSans" font-size="10.00">channel.c</text>
</a>
</g>
</g>
<!-- Node10&#45;&gt;Node13 -->
<g id="edge15" class="edge">
<title>Node10&#45;&gt;Node13</title>
<path fill="none" stroke="midnightblue" d="M1930,-174C1994.64,-169.38 2105.13,-158.15 2196.48,-132 2217.53,-125.98 2220.17,-116.97 2241.48,-112 2435.33,-66.77 2939.07,-101.44 3136.48,-76 3139.52,-75.61 3142.66,-75.1 3145.8,-74.53"/>
<polygon fill="midnightblue" stroke="midnightblue" points="1929.38,-170.53 1919.64,-174.71 1929.86,-177.51 1929.38,-170.53"/>
</g>
<!-- Node10&#45;&gt;Node14 -->
<g id="edge16" class="edge">
<title>Node10&#45;&gt;Node14</title>
<path fill="none" stroke="midnightblue" d="M1821.01,-175.76C1654.53,-171.71 1154.13,-157.7 993.48,-132 990.55,-131.53 987.51,-130.9 984.5,-130.19"/>
<polygon fill="midnightblue" stroke="midnightblue" points="1821.4,-179.27 1831.48,-176.01 1821.57,-172.27 1821.4,-179.27"/>
</g>
<!-- Node10&#45;&gt;Node15 -->
<g id="edge17" class="edge">
<title>Node10&#45;&gt;Node15</title>
<path fill="none" stroke="midnightblue" d="M1821.18,-175.03C1581.56,-166.33 621.98,-131.48 424.23,-124.3"/>
<polygon fill="midnightblue" stroke="midnightblue" points="1821.26,-178.53 1831.39,-175.4 1821.52,-171.54 1821.26,-178.53"/>
</g>
<!-- Node10&#45;&gt;Node16 -->
<g id="edge18" class="edge">
<title>Node10&#45;&gt;Node16</title>
<path fill="none" stroke="midnightblue" d="M1821.03,-176.36C1692.86,-174.31 1362.27,-165.89 1088.48,-132 1085.76,-131.66 1082.96,-131.26 1080.15,-130.82"/>
<polygon fill="midnightblue" stroke="midnightblue" points="1821.31,-179.86 1831.36,-176.52 1821.41,-172.86 1821.31,-179.86"/>
</g>
<!-- Node10&#45;&gt;Node17 -->
<g id="edge19" class="edge">
<title>Node10&#45;&gt;Node17</title>
<path fill="none" stroke="midnightblue" d="M1907.19,-165C1949.29,-149.67 2026.27,-123.73 2094.48,-112 2398,-59.82 2481.08,-115.66 2786.48,-76 2789.36,-75.63 2792.33,-75.17 2795.3,-74.65"/>
<polygon fill="midnightblue" stroke="midnightblue" points="1905.94,-161.73 1897.77,-168.47 1908.36,-168.3 1905.94,-161.73"/>
</g>
<!-- Node10&#45;&gt;Node18 -->
<g id="edge20" class="edge">
<title>Node10&#45;&gt;Node18</title>
<path fill="none" stroke="midnightblue" d="M1930.14,-171.66C1987.29,-165.29 2079.24,-152.8 2156.48,-132 2180.39,-125.56 2184.24,-117.04 2208.48,-112 2571.72,-36.42 2673.97,-119 3042.48,-76 3045.37,-75.66 3048.35,-75.25 3051.34,-74.79"/>
<polygon fill="midnightblue" stroke="midnightblue" points="1929.45,-168.22 1919.89,-172.78 1930.21,-175.17 1929.45,-168.22"/>
</g>
<!-- Node10&#45;&gt;Node21 -->
<g id="edge21" class="edge">
<title>Node10&#45;&gt;Node21</title>
<path fill="none" stroke="midnightblue" d="M1886.4,-159.25C1893.07,-146.16 1899.44,-127.92 1894.48,-112 1890.09,-97.87 1879.54,-84.25 1871.97,-75.77"/>
<polygon fill="midnightblue" stroke="midnightblue" points="1883.26,-157.7 1881.43,-168.14 1889.37,-161.12 1883.26,-157.7"/>
</g>
<!-- Node10&#45;&gt;Node23 -->
<g id="edge22" class="edge">
<title>Node10&#45;&gt;Node23</title>
<path fill="none" stroke="midnightblue" d="M1888.13,-160.44C1894.56,-151.97 1902.49,-141.47 1909.48,-132 1924.22,-112.07 1941.19,-88.43 1950.16,-75.87"/>
<polygon fill="midnightblue" stroke="midnightblue" points="1885.33,-158.34 1882.06,-168.41 1890.9,-162.58 1885.33,-158.34"/>
</g>
<!-- Node10&#45;&gt;Node24 -->
<g id="edge23" class="edge">
<title>Node10&#45;&gt;Node24</title>
<path fill="none" stroke="midnightblue" d="M1822.3,-166.28C1788.04,-158.58 1742.89,-146.94 1704.48,-132 1686.7,-125.08 1684.92,-116.93 1666.48,-112 1609.5,-96.75 692.77,-72.11 524.06,-67.69"/>
<polygon fill="midnightblue" stroke="midnightblue" points="1821.59,-169.71 1832.11,-168.45 1823.1,-162.87 1821.59,-169.71"/>
</g>
<!-- Node10&#45;&gt;Node25 -->
<g id="edge24" class="edge">
<title>Node10&#45;&gt;Node25</title>
<path fill="none" stroke="midnightblue" d="M1924.77,-166.28C1963.46,-157.65 2018.62,-144.88 2066.48,-132 2096.08,-124.04 2102.28,-117.23 2132.48,-112 2456.94,-55.83 2545.98,-118.64 2872.48,-76 2875.29,-75.63 2878.2,-75.18 2881.1,-74.67"/>
<polygon fill="midnightblue" stroke="midnightblue" points="1923.81,-162.91 1914.81,-168.49 1925.33,-169.74 1923.81,-162.91"/>
</g>
<!-- Node10&#45;&gt;Node26 -->
<g id="edge25" class="edge">
<title>Node10&#45;&gt;Node26</title>
<path fill="none" stroke="midnightblue" d="M1847.53,-164.13C1828.52,-155.3 1802.87,-143.18 1780.48,-132 1763.41,-123.47 1760.64,-117.87 1742.48,-112 1640.67,-79.08 1512.73,-70.22 1455.53,-67.86"/>
<polygon fill="midnightblue" stroke="midnightblue" points="1846.26,-167.4 1856.81,-168.43 1849.2,-161.05 1846.26,-167.4"/>
</g>
<!-- Node10&#45;&gt;Node27 -->
<g id="edge26" class="edge">
<title>Node10&#45;&gt;Node27</title>
<path fill="none" stroke="midnightblue" d="M1821.22,-172.21C1758.19,-165.96 1651.34,-153.23 1561.48,-132 1558.41,-131.27 1555.18,-130.35 1552.07,-129.37"/>
<polygon fill="midnightblue" stroke="midnightblue" points="1821.04,-175.71 1831.33,-173.19 1821.72,-168.74 1821.04,-175.71"/>
</g>
<!-- Node10&#45;&gt;Node30 -->
<g id="edge27" class="edge">
<title>Node10&#45;&gt;Node30</title>
<path fill="none" stroke="midnightblue" d="M1857.34,-161.78C1839.01,-147.11 1809.36,-125.25 1780.48,-112 1733.43,-90.41 1674.09,-77.62 1639.7,-71.48"/>
<polygon fill="midnightblue" stroke="midnightblue" points="1855.41,-164.72 1865.37,-168.33 1859.83,-159.3 1855.41,-164.72"/>
</g>
<!-- Node10&#45;&gt;Node31 -->
<g id="edge28" class="edge">
<title>Node10&#45;&gt;Node31</title>
<path fill="none" stroke="midnightblue" d="M1821.15,-176.57C1711.03,-174.95 1453.97,-167.34 1241.48,-132 1238.47,-131.5 1235.34,-130.85 1232.25,-130.13"/>
<polygon fill="midnightblue" stroke="midnightblue" points="1821.29,-180.07 1831.34,-176.71 1821.39,-173.07 1821.29,-180.07"/>
</g>
<!-- Node10&#45;&gt;Node35 -->
<g id="edge29" class="edge">
<title>Node10&#45;&gt;Node35</title>
<path fill="none" stroke="midnightblue" d="M1821.07,-176.23C1702.74,-173.97 1413.33,-165.2 1173.48,-132 1170.83,-131.63 1168.08,-131.19 1165.33,-130.7"/>
<polygon fill="midnightblue" stroke="midnightblue" points="1821.25,-179.74 1831.31,-176.42 1821.38,-172.74 1821.25,-179.74"/>
</g>
<!-- Node10&#45;&gt;Node40 -->
<g id="edge30" class="edge">
<title>Node10&#45;&gt;Node40</title>
<path fill="none" stroke="midnightblue" d="M1821.41,-167.19C1773.32,-158.35 1701.11,-144.82 1638.48,-132 1634.06,-131.09 1629.37,-130.1 1624.81,-129.11"/>
<polygon fill="midnightblue" stroke="midnightblue" points="1820.83,-170.64 1831.29,-169 1822.09,-163.75 1820.83,-170.64"/>
</g>
<!-- Node10&#45;&gt;Node42 -->
<g id="edge31" class="edge">
<title>Node10&#45;&gt;Node42</title>
<path fill="none" stroke="midnightblue" d="M1836.14,-165.49C1809.34,-157.21 1773.27,-145.21 1742.48,-132 1724.95,-124.47 1722.73,-117.61 1704.48,-112 1568.54,-70.16 1527.14,-97.12 1386.48,-76 1381.37,-75.23 1375.97,-74.32 1370.7,-73.37"/>
<polygon fill="midnightblue" stroke="midnightblue" points="1835.34,-168.9 1845.93,-168.47 1837.38,-162.21 1835.34,-168.9"/>
</g>
<!-- Node10&#45;&gt;Node44 -->
<g id="edge32" class="edge">
<title>Node10&#45;&gt;Node44</title>
<path fill="none" stroke="midnightblue" d="M1821.27,-173.39C1736.35,-167.33 1566.94,-153.62 1424.48,-132 1421.86,-131.6 1419.16,-131.15 1416.45,-130.67"/>
<polygon fill="midnightblue" stroke="midnightblue" points="1821.22,-176.9 1831.44,-174.11 1821.72,-169.91 1821.22,-176.9"/>
</g>
<!-- Node10&#45;&gt;Node45 -->
<g id="edge33" class="edge">
<title>Node10&#45;&gt;Node45</title>
<path fill="none" stroke="midnightblue" d="M1929.78,-171.1C2000.52,-163.21 2127.99,-148.32 2236.48,-132 2241.11,-131.3 2245.96,-130.52 2250.75,-129.71"/>
<polygon fill="midnightblue" stroke="midnightblue" points="1929.32,-167.63 1919.76,-172.21 1930.09,-174.59 1929.32,-167.63"/>
</g>
<!-- Node10&#45;&gt;Node46 -->
<g id="edge34" class="edge">
<title>Node10&#45;&gt;Node46</title>
<path fill="none" stroke="midnightblue" d="M1821.3,-167.45C1769.11,-157.86 1694.13,-142.99 1666.48,-132 1650.55,-125.66 1649.93,-116.87 1633.48,-112 1383.63,-38.04 719.58,-111.8 461.48,-76 458.55,-75.59 455.51,-75.04 452.49,-74.41"/>
<polygon fill="midnightblue" stroke="midnightblue" points="1820.95,-170.94 1831.41,-169.29 1822.2,-164.05 1820.95,-170.94"/>
</g>
<!-- Node10&#45;&gt;Node47 -->
<g id="edge35" class="edge">
<title>Node10&#45;&gt;Node47</title>
<path fill="none" stroke="midnightblue" d="M1929.73,-172.79C2015.45,-165.88 2187.4,-150.99 2332.48,-132 2335.55,-131.6 2338.72,-131.16 2341.9,-130.69"/>
<polygon fill="midnightblue" stroke="midnightblue" points="1929.4,-169.31 1919.71,-173.59 1929.96,-176.28 1929.4,-169.31"/>
</g>
<!-- Node10&#45;&gt;Node48 -->
<g id="edge36" class="edge">
<title>Node10&#45;&gt;Node48</title>
<path fill="none" stroke="midnightblue" d="M1929.9,-176.8C2160.72,-175.72 3059.9,-169.15 3340.48,-132 3343.31,-131.63 3346.23,-131.13 3349.14,-130.57"/>
<polygon fill="midnightblue" stroke="midnightblue" points="1929.72,-173.3 1919.73,-176.84 1929.75,-180.3 1929.72,-173.3"/>
</g>
<!-- Node10&#45;&gt;Node49 -->
<g id="edge37" class="edge">
<title>Node10&#45;&gt;Node49</title>
<path fill="none" stroke="midnightblue" d="M1929.95,-176.7C2168.16,-175.21 3119.72,-167.11 3416.48,-132 3419.36,-131.66 3422.33,-131.22 3425.31,-130.72"/>
<polygon fill="midnightblue" stroke="midnightblue" points="1929.78,-173.2 1919.8,-176.77 1929.82,-180.2 1929.78,-173.2"/>
</g>
<!-- Node50&#45;&gt;Node9 -->
<g id="edge40" class="edge">
<title>Node50&#45;&gt;Node9</title>
<path fill="none" stroke="midnightblue" d="M279.75,-160.03C269.72,-145.51 259.88,-124.94 272.48,-112 299.17,-84.61 1610.32,-78.25 1648.48,-76 1669.98,-74.73 1694.05,-72.53 1712.96,-70.63"/>
<polygon fill="midnightblue" stroke="midnightblue" points="277.04,-162.25 285.82,-168.18 282.65,-158.07 277.04,-162.25"/>
</g>
<!-- Node50&#45;&gt;Node15 -->
<g id="edge41" class="edge">
<title>Node50&#45;&gt;Node15</title>
<path fill="none" stroke="midnightblue" d="M317.8,-163.18C335.28,-153.24 358.31,-140.15 373.26,-131.65"/>
<polygon fill="midnightblue" stroke="midnightblue" points="315.71,-160.34 308.75,-168.32 319.17,-166.43 315.71,-160.34"/>
</g>
<!-- Node50&#45;&gt;Node21 -->
<g id="edge42" class="edge">
<title>Node50&#45;&gt;Node21</title>
<path fill="none" stroke="midnightblue" d="M292.78,-157.84C293.37,-142.83 296.93,-122.73 310.48,-112 374.88,-61.02 1706.56,-81.9 1788.48,-76 1800.78,-75.11 1814.16,-73.67 1826.17,-72.19"/>
<polygon fill="midnightblue" stroke="midnightblue" points="289.28,-158.1 292.79,-168.1 296.28,-158.1 289.28,-158.1"/>
</g>
<!-- Node51&#45;&gt;Node7 -->
<g id="edge47" class="edge">
<title>Node51&#45;&gt;Node7</title>
<path fill="none" stroke="midnightblue" d="M2947.35,-106.1C2960.31,-96.38 2976.78,-84.03 2987.71,-75.83"/>
<polygon fill="midnightblue" stroke="midnightblue" points="2944.95,-103.52 2939.05,-112.32 2949.15,-109.12 2944.95,-103.52"/>
</g>
<!-- Node51&#45;&gt;Node9 -->
<g id="edge48" class="edge">
<title>Node51&#45;&gt;Node9</title>
<path fill="none" stroke="midnightblue" d="M2859.68,-116.54C2834.51,-114.98 2805.7,-113.29 2779.48,-112 2352.14,-91.01 2243.91,-110.94 1817.48,-76 1805.22,-75 1791.83,-73.42 1780.01,-71.87"/>
<polygon fill="midnightblue" stroke="midnightblue" points="2859.67,-120.05 2869.87,-117.18 2860.11,-113.06 2859.67,-120.05"/>
</g>
<!-- Node51&#45;&gt;Node12 -->
<g id="edge49" class="edge">
<title>Node51&#45;&gt;Node12</title>
<path fill="none" stroke="midnightblue" d="M2859.44,-112.37C2858.11,-112.24 2856.79,-112.12 2855.48,-112 2539.99,-83.76 2155.33,-70.87 2052.05,-67.76"/>
<polygon fill="midnightblue" stroke="midnightblue" points="2859.45,-115.89 2869.75,-113.42 2860.16,-108.92 2859.45,-115.89"/>
</g>
<!-- Node51&#45;&gt;Node13 -->
<g id="edge50" class="edge">
<title>Node51&#45;&gt;Node13</title>
<path fill="none" stroke="midnightblue" d="M2977.35,-110.32C3019.7,-101.24 3082.09,-87.83 3136.48,-76 3139.48,-75.35 3142.59,-74.67 3145.7,-73.99"/>
<polygon fill="midnightblue" stroke="midnightblue" points="2976.61,-106.9 2967.56,-112.42 2978.07,-113.75 2976.61,-106.9"/>
</g>
<!-- Node51&#45;&gt;Node17 -->
<g id="edge51" class="edge">
<title>Node51&#45;&gt;Node17</title>
<path fill="none" stroke="midnightblue" d="M2902.9,-107.45C2884.81,-97.48 2860.75,-84.23 2845.19,-75.65"/>
<polygon fill="midnightblue" stroke="midnightblue" points="2901.29,-110.56 2911.74,-112.32 2904.67,-104.43 2901.29,-110.56"/>
</g>
<!-- Node51&#45;&gt;Node18 -->
<g id="edge52" class="edge">
<title>Node51&#45;&gt;Node18</title>
<path fill="none" stroke="midnightblue" d="M2962.97,-109.17C2993.47,-99 3036.73,-84.59 3063.94,-75.52"/>
<polygon fill="midnightblue" stroke="midnightblue" points="2961.53,-105.96 2953.15,-112.44 2963.75,-112.6 2961.53,-105.96"/>
</g>
<!-- Node51&#45;&gt;Node21 -->
<g id="edge53" class="edge">
<title>Node51&#45;&gt;Node21</title>
<path fill="none" stroke="midnightblue" d="M2859.81,-115.02C2845.82,-113.91 2831.18,-112.84 2817.48,-112 2420.57,-87.78 2319.36,-113.55 1923.48,-76 1916.04,-75.29 1908.11,-74.29 1900.53,-73.2"/>
<polygon fill="midnightblue" stroke="midnightblue" points="2859.61,-118.51 2869.86,-115.83 2860.17,-111.54 2859.61,-118.51"/>
</g>
<!-- Node51&#45;&gt;Node23 -->
<g id="edge54" class="edge">
<title>Node51&#45;&gt;Node23</title>
<path fill="none" stroke="midnightblue" d="M2859.44,-112.34C2858.11,-112.22 2856.79,-112.11 2855.48,-112 2471.59,-80.08 2370.15,-135.05 1989.48,-76 1986.55,-75.54 1983.5,-74.92 1980.5,-74.22"/>
<polygon fill="midnightblue" stroke="midnightblue" points="2859.47,-115.86 2869.76,-113.36 2860.15,-108.9 2859.47,-115.86"/>
</g>
<!-- Node51&#45;&gt;Node25 -->
<g id="edge55" class="edge">
<title>Node51&#45;&gt;Node25</title>
<path fill="none" stroke="midnightblue" d="M2922.93,-102.1C2920.78,-93.14 2918.3,-82.86 2916.59,-75.75"/>
<polygon fill="midnightblue" stroke="midnightblue" points="2919.59,-103.18 2925.34,-112.08 2926.4,-101.54 2919.59,-103.18"/>
</g>
<!-- Node51&#45;&gt;Node26 -->
<g id="edge56" class="edge">
<title>Node51&#45;&gt;Node26</title>
<path fill="none" stroke="midnightblue" d="M2859.45,-118.98C2621.72,-111.89 1828.8,-87.91 1574.48,-76 1533.32,-74.07 1485.82,-71.07 1455.72,-69.07"/>
<polygon fill="midnightblue" stroke="midnightblue" points="2859.58,-122.49 2869.68,-119.29 2859.79,-115.49 2859.58,-122.49"/>
</g>
<!-- Node51&#45;&gt;Node30 -->
<g id="edge57" class="edge">
<title>Node51&#45;&gt;Node30</title>
<path fill="none" stroke="midnightblue" d="M2859.23,-118.61C2610.11,-109.85 1761.36,-79.89 1703.48,-76 1682.03,-74.56 1657.83,-72.16 1639.63,-70.2"/>
<polygon fill="midnightblue" stroke="midnightblue" points="2859.47,-122.12 2869.59,-118.97 2859.72,-115.12 2859.47,-122.12"/>
</g>
<!-- Node51&#45;&gt;Node42 -->
<g id="edge58" class="edge">
<title>Node51&#45;&gt;Node42</title>
<path fill="none" stroke="midnightblue" d="M2859.53,-119.16C2566.43,-111.21 1423.59,-80 1386.48,-76 1381.34,-75.45 1375.93,-74.65 1370.66,-73.75"/>
<polygon fill="midnightblue" stroke="midnightblue" points="2859.5,-122.66 2869.59,-119.43 2859.69,-115.66 2859.5,-122.66"/>
</g>
<!-- Node53&#45;&gt;Node2 -->
<g id="edge64" class="edge">
<title>Node53&#45;&gt;Node2</title>
<path fill="none" stroke="midnightblue" d="M2629.89,-164.77C2607.57,-156.16 2577.44,-144.06 2551.48,-132 2534.18,-123.96 2531.94,-116.85 2513.48,-112 2382.76,-77.64 1432.59,-80.24 1297.48,-76 1216.02,-73.45 1120.84,-70.25 1067.42,-68.43"/>
<polygon fill="midnightblue" stroke="midnightblue" points="2628.65,-168.04 2639.24,-168.35 2631.15,-161.5 2628.65,-168.04"/>
</g>
<!-- Node53&#45;&gt;Node7 -->
<g id="edge65" class="edge">
<title>Node53&#45;&gt;Node7</title>
<path fill="none" stroke="midnightblue" d="M2697.08,-175.22C2782.89,-170.47 3000.19,-156.13 3021.48,-132 3035.99,-115.56 3018.28,-89.18 3007.17,-75.63"/>
<polygon fill="midnightblue" stroke="midnightblue" points="2696.84,-171.73 2687.05,-175.77 2697.22,-178.72 2696.84,-171.73"/>
</g>
<!-- Node53&#45;&gt;Node8 -->
<g id="edge66" class="edge">
<title>Node53&#45;&gt;Node8</title>
<path fill="none" stroke="midnightblue" d="M2697.3,-174.06C2810.17,-164.52 3164.89,-134.54 3271.13,-125.57"/>
<polygon fill="midnightblue" stroke="midnightblue" points="2696.81,-170.59 2687.14,-174.92 2697.4,-177.56 2696.81,-170.59"/>
</g>
<!-- Node53&#45;&gt;Node9 -->
<g id="edge67" class="edge">
<title>Node53&#45;&gt;Node9</title>
<path fill="none" stroke="midnightblue" d="M2669.66,-158.99C2674.18,-144.36 2677.18,-124.21 2665.48,-112 2632.86,-77.96 1864.47,-79.97 1817.48,-76 1805.23,-74.96 1791.83,-73.38 1780.01,-71.84"/>
<polygon fill="midnightblue" stroke="midnightblue" points="2666.34,-157.89 2666.3,-168.48 2672.94,-160.23 2666.34,-157.89"/>
</g>
<!-- Node53&#45;&gt;Node18 -->
<g id="edge68" class="edge">
<title>Node53&#45;&gt;Node18</title>
<path fill="none" stroke="midnightblue" d="M2697.46,-174.32C2784.9,-167.4 3008.09,-148.35 3037.48,-132 3061.23,-118.79 3078.14,-89.93 3085.45,-75.53"/>
<polygon fill="midnightblue" stroke="midnightblue" points="2696.95,-170.85 2687.25,-175.12 2697.5,-177.83 2696.95,-170.85"/>
</g>
<!-- Node53&#45;&gt;Node21 -->
<g id="edge69" class="edge">
<title>Node53&#45;&gt;Node21</title>
<path fill="none" stroke="midnightblue" d="M2682.54,-162.22C2699.19,-148.24 2717.98,-127.18 2703.48,-112 2673.53,-80.63 1966.66,-80.22 1923.48,-76 1916.04,-75.27 1908.11,-74.26 1900.54,-73.17"/>
<polygon fill="midnightblue" stroke="midnightblue" points="2680.34,-159.5 2674.7,-168.47 2684.7,-164.98 2680.34,-159.5"/>
</g>
<!-- Node53&#45;&gt;Node23 -->
<g id="edge71" class="edge">
<title>Node53&#45;&gt;Node23</title>
<path fill="none" stroke="midnightblue" d="M2696.41,-164.84C2725.86,-152.52 2760.95,-132.42 2741.48,-112 2683.77,-51.45 2072.11,-89.08 1989.48,-76 1986.55,-75.54 1983.51,-74.91 1980.5,-74.2"/>
<polygon fill="midnightblue" stroke="midnightblue" points="2695.11,-161.59 2687.13,-168.55 2697.71,-168.09 2695.11,-161.59"/>
</g>
<!-- Node53&#45;&gt;Node24 -->
<g id="edge72" class="edge">
<title>Node53&#45;&gt;Node24</title>
<path fill="none" stroke="midnightblue" d="M2628.03,-166.56C2568.5,-148.56 2451.83,-113.46 2442.48,-112 2392.85,-104.23 754.4,-72.01 524.24,-67.52"/>
<polygon fill="midnightblue" stroke="midnightblue" points="2627.17,-169.96 2637.75,-169.5 2629.19,-163.26 2627.17,-169.96"/>
</g>
<!-- Node53&#45;&gt;Node26 -->
<g id="edge73" class="edge">
<title>Node53&#45;&gt;Node26</title>
<path fill="none" stroke="midnightblue" d="M2649.68,-160.29C2636.52,-144.58 2614.47,-122.02 2589.48,-112 2484.75,-69.99 1687.2,-81.4 1574.48,-76 1533.33,-74.03 1485.82,-71.03 1455.72,-69.05"/>
<polygon fill="midnightblue" stroke="midnightblue" points="2647.04,-162.6 2656.04,-168.19 2652.49,-158.21 2647.04,-162.6"/>
</g>
<!-- Node53&#45;&gt;Node27 -->
<g id="edge74" class="edge">
<title>Node53&#45;&gt;Node27</title>
<path fill="none" stroke="midnightblue" d="M2627.44,-176.89C2463.73,-176.16 1773.25,-170.82 1561.48,-132 1558.37,-131.43 1555.13,-130.58 1552.02,-129.63"/>
<polygon fill="midnightblue" stroke="midnightblue" points="2627.87,-180.39 2637.88,-176.93 2627.9,-173.39 2627.87,-180.39"/>
</g>
<!-- Node53&#45;&gt;Node30 -->
<g id="edge76" class="edge">
<title>Node53&#45;&gt;Node30</title>
<path fill="none" stroke="midnightblue" d="M2657.96,-158.42C2653.16,-143.1 2643.93,-122.26 2627.48,-112 2583.9,-84.8 1754.74,-79.5 1703.48,-76 1682.03,-74.53 1657.83,-72.14 1639.63,-70.18"/>
<polygon fill="midnightblue" stroke="midnightblue" points="2654.68,-159.67 2660.72,-168.38 2661.42,-157.81 2654.68,-159.67"/>
</g>
<!-- Node53&#45;&gt;Node40 -->
<g id="edge92" class="edge">
<title>Node53&#45;&gt;Node40</title>
<path fill="none" stroke="midnightblue" d="M2627.51,-175.23C2463.28,-166.9 1770.42,-131.77 1624.52,-124.37"/>
<polygon fill="midnightblue" stroke="midnightblue" points="2627.82,-178.75 2637.98,-175.76 2628.17,-171.76 2627.82,-178.75"/>
</g>
<!-- Node53&#45;&gt;Node42 -->
<g id="edge93" class="edge">
<title>Node53&#45;&gt;Node42</title>
<path fill="none" stroke="midnightblue" d="M2639.94,-162.99C2610.33,-144.71 2560.97,-114.73 2551.48,-112 2302.58,-40.34 1643.98,-103.95 1386.48,-76 1381.34,-75.44 1375.93,-74.64 1370.66,-73.74"/>
<polygon fill="midnightblue" stroke="midnightblue" points="2638.44,-166.17 2648.78,-168.46 2642.12,-160.22 2638.44,-166.17"/>
</g>
<!-- Node53&#45;&gt;Node44 -->
<g id="edge94" class="edge">
<title>Node53&#45;&gt;Node44</title>
<path fill="none" stroke="midnightblue" d="M2627.75,-176.51C2452.78,-173.95 1666.86,-160.99 1424.48,-132 1421.85,-131.69 1419.14,-131.3 1416.42,-130.86"/>
<polygon fill="midnightblue" stroke="midnightblue" points="2627.87,-180.02 2637.92,-176.66 2627.98,-173.02 2627.87,-180.02"/>
</g>
<!-- Node53&#45;&gt;Node45 -->
<g id="edge95" class="edge">
<title>Node53&#45;&gt;Node45</title>
<path fill="none" stroke="midnightblue" d="M2627.89,-173C2567.68,-165.87 2439.8,-150.03 2332.48,-132 2329.81,-131.55 2327.06,-131.06 2324.29,-130.55"/>
<polygon fill="midnightblue" stroke="midnightblue" points="2627.64,-176.49 2637.98,-174.18 2628.46,-169.54 2627.64,-176.49"/>
</g>
<!-- Node53&#45;&gt;Node46 -->
<g id="edge96" class="edge">
<title>Node53&#45;&gt;Node46</title>
<path fill="none" stroke="midnightblue" d="M2627.82,-174.3C2499.91,-164.43 2042.36,-129.95 1664.48,-112 1397.33,-99.31 726.42,-112.65 461.48,-76 458.55,-75.59 455.51,-75.04 452.49,-74.41"/>
<polygon fill="midnightblue" stroke="midnightblue" points="2627.57,-177.79 2637.81,-175.07 2628.11,-170.81 2627.57,-177.79"/>
</g>
<!-- Node53&#45;&gt;Node47 -->
<g id="edge97" class="edge">
<title>Node53&#45;&gt;Node47</title>
<path fill="none" stroke="midnightblue" d="M2627.57,-170.14C2577.48,-160.31 2485.27,-142.2 2430.87,-131.52"/>
<polygon fill="midnightblue" stroke="midnightblue" points="2627.11,-173.62 2637.6,-172.11 2628.46,-166.75 2627.11,-173.62"/>
</g>
<!-- Node53&#45;&gt;Node52 -->
<g id="edge70" class="edge">
<title>Node53&#45;&gt;Node52</title>
<path fill="none" stroke="midnightblue" d="M2697.2,-174.84C2778.36,-169.45 2975.1,-154.19 2994.48,-132 3039.52,-80.45 3118.72,-143.03 2786.48,-76 2783.49,-75.4 2780.37,-74.73 2777.26,-74.05"/>
<polygon fill="midnightblue" stroke="midnightblue" points="2696.75,-171.37 2687,-175.51 2697.2,-178.35 2696.75,-171.37"/>
</g>
<!-- Node53&#45;&gt;Node55 -->
<g id="edge75" class="edge">
<title>Node53&#45;&gt;Node55</title>
<path fill="none" stroke="midnightblue" d="M2697.74,-174.61C2772.71,-169.25 2953.39,-154.95 3103.48,-132 3107.96,-131.32 3112.66,-130.48 3117.26,-129.6"/>
<polygon fill="midnightblue" stroke="midnightblue" points="2697.19,-171.14 2687.46,-175.33 2697.68,-178.12 2697.19,-171.14"/>
</g>
<!-- Node53&#45;&gt;Node57 -->
<g id="edge77" class="edge">
<title>Node53&#45;&gt;Node57</title>
<path fill="none" stroke="midnightblue" d="M2697.24,-175.85C2835,-171.17 3342.83,-152.86 3502.48,-132 3505.36,-131.62 3508.33,-131.16 3511.3,-130.65"/>
<polygon fill="midnightblue" stroke="midnightblue" points="2697.12,-172.35 2687.24,-176.19 2697.36,-179.35 2697.12,-172.35"/>
</g>
<!-- Node53&#45;&gt;Node63 -->
<g id="edge78" class="edge">
<title>Node53&#45;&gt;Node63</title>
<path fill="none" stroke="midnightblue" d="M2697.41,-176.16C2844.16,-172.52 3411.44,-157.05 3588.48,-132 3591.57,-131.56 3594.78,-130.99 3597.96,-130.35"/>
<polygon fill="midnightblue" stroke="midnightblue" points="2697.11,-172.67 2687.2,-176.42 2697.28,-179.67 2697.11,-172.67"/>
</g>
<!-- Node53&#45;&gt;Node66 -->
<g id="edge79" class="edge">
<title>Node53&#45;&gt;Node66</title>
<path fill="none" stroke="midnightblue" d="M2697.75,-176.33C2852.45,-173.27 3471.94,-159.48 3664.48,-132 3667.36,-131.59 3670.35,-131.05 3673.31,-130.45"/>
<polygon fill="midnightblue" stroke="midnightblue" points="2697.35,-172.84 2687.43,-176.54 2697.49,-179.84 2697.35,-172.84"/>
</g>
<!-- Node53&#45;&gt;Node67 -->
<g id="edge80" class="edge">
<title>Node53&#45;&gt;Node67</title>
<path fill="none" stroke="midnightblue" d="M2627.69,-176.6C2415.53,-174.08 1274.19,-159.72 343.48,-132 271.32,-129.85 186.12,-126.09 144.67,-124.18"/>
<polygon fill="midnightblue" stroke="midnightblue" points="2627.87,-180.1 2637.91,-176.72 2627.95,-173.1 2627.87,-180.1"/>
</g>
<!-- Node53&#45;&gt;Node64 -->
<g id="edge91" class="edge">
<title>Node53&#45;&gt;Node64</title>
<path fill="none" stroke="midnightblue" d="M2697.7,-176.33C2859.22,-173.13 3530.2,-158.48 3738.48,-132 3741.44,-131.62 3744.5,-131.15 3747.56,-130.61"/>
<polygon fill="midnightblue" stroke="midnightblue" points="2697.31,-172.84 2687.38,-176.53 2697.45,-179.84 2697.31,-172.84"/>
</g>
<!-- Node67&#45;&gt;Node2 -->
<g id="edge81" class="edge">
<title>Node67&#45;&gt;Node2</title>
<path fill="none" stroke="midnightblue" d="M154.6,-112.6C155.91,-112.38 157.21,-112.18 158.48,-112 473.43,-67.83 858.19,-65.9 983.73,-66.59"/>
<polygon fill="midnightblue" stroke="midnightblue" points="153.7,-109.21 144.54,-114.54 155.02,-116.08 153.7,-109.21"/>
</g>
<!-- Node67&#45;&gt;Node9 -->
<g id="edge82" class="edge">
<title>Node67&#45;&gt;Node9</title>
<path fill="none" stroke="midnightblue" d="M154.77,-116.19C167.85,-114.59 182.82,-112.97 196.48,-112 840.41,-66.48 1004.05,-113.54 1648.48,-76 1669.98,-74.75 1694.05,-72.55 1712.96,-70.64"/>
<polygon fill="midnightblue" stroke="midnightblue" points="154.23,-112.73 144.75,-117.46 155.11,-119.67 154.23,-112.73"/>
</g>
<!-- Node67&#45;&gt;Node21 -->
<g id="edge83" class="edge">
<title>Node67&#45;&gt;Node21</title>
<path fill="none" stroke="midnightblue" d="M154.94,-118.56C185.94,-116.51 232.17,-113.66 272.48,-112 945.88,-84.21 1116.24,-124.21 1788.48,-76 1800.78,-75.12 1814.16,-73.67 1826.17,-72.19"/>
<polygon fill="midnightblue" stroke="midnightblue" points="154.39,-115.09 144.65,-119.25 154.86,-122.07 154.39,-115.09"/>
</g>
<!-- Node67&#45;&gt;Node23 -->
<g id="edge85" class="edge">
<title>Node67&#45;&gt;Node23</title>
<path fill="none" stroke="midnightblue" d="M154.88,-119.39C199.03,-117.43 276.82,-114.11 343.48,-112 691.4,-101.01 1563.35,-112.86 1909.48,-76 1916.92,-75.21 1924.94,-73.86 1932.21,-72.45"/>
<polygon fill="midnightblue" stroke="midnightblue" points="154.51,-115.9 144.67,-119.85 154.82,-122.9 154.51,-115.9"/>
</g>
<!-- Node67&#45;&gt;Node24 -->
<g id="edge86" class="edge">
<title>Node67&#45;&gt;Node24</title>
<path fill="none" stroke="midnightblue" d="M154.62,-112.71C155.92,-112.46 157.21,-112.22 158.48,-112 292.09,-88.72 328.1,-100.49 461.48,-76 464.53,-75.44 467.69,-74.78 470.83,-74.06"/>
<polygon fill="midnightblue" stroke="midnightblue" points="153.66,-109.33 144.58,-114.79 155.08,-116.19 153.66,-109.33"/>
</g>
<!-- Node67&#45;&gt;Node26 -->
<g id="edge87" class="edge">
<title>Node67&#45;&gt;Node26</title>
<path fill="none" stroke="midnightblue" d="M154.6,-112.56C155.91,-112.35 157.21,-112.16 158.48,-112 696.94,-42.62 839.94,-136.32 1379.48,-76 1384.66,-75.42 1390.12,-74.57 1395.41,-73.62"/>
<polygon fill="midnightblue" stroke="midnightblue" points="153.71,-109.17 144.53,-114.45 155,-116.05 153.71,-109.17"/>
</g>
<!-- Node67&#45;&gt;Node30 -->
<g id="edge88" class="edge">
<title>Node67&#45;&gt;Node30</title>
<path fill="none" stroke="midnightblue" d="M154.6,-112.56C155.91,-112.35 157.21,-112.16 158.48,-112 446.47,-75.18 1174.44,-88.87 1464.48,-76 1505.87,-74.16 1553.74,-71.05 1583.32,-69.01"/>
<polygon fill="midnightblue" stroke="midnightblue" points="153.71,-109.16 144.53,-114.45 155,-116.04 153.71,-109.16"/>
</g>
<!-- Node67&#45;&gt;Node42 -->
<g id="edge89" class="edge">
<title>Node67&#45;&gt;Node42</title>
<path fill="none" stroke="midnightblue" d="M154.6,-112.57C155.91,-112.36 157.21,-112.17 158.48,-112 187.74,-108.1 1119.93,-74.78 1306.26,-68.15"/>
<polygon fill="midnightblue" stroke="midnightblue" points="153.7,-109.18 144.53,-114.49 155.01,-116.06 153.7,-109.18"/>
</g>
<!-- Node67&#45;&gt;Node46 -->
<g id="edge90" class="edge">
<title>Node67&#45;&gt;Node46</title>
<path fill="none" stroke="midnightblue" d="M154.63,-112.79C155.93,-112.52 157.22,-112.25 158.48,-112 245.84,-94.57 350.17,-78.29 398.48,-71"/>
<polygon fill="midnightblue" stroke="midnightblue" points="153.64,-109.42 144.61,-114.97 155.13,-116.26 153.64,-109.42"/>
</g>
<!-- Node67&#45;&gt;Node52 -->
<g id="edge84" class="edge">
<title>Node67&#45;&gt;Node52</title>
<path fill="none" stroke="midnightblue" d="M154.88,-119.34C199.03,-117.33 276.82,-113.96 343.48,-112 837.93,-97.44 2477.28,-71.27 2717.89,-67.47"/>
<polygon fill="midnightblue" stroke="midnightblue" points="154.5,-115.86 144.67,-119.81 154.82,-122.85 154.5,-115.86"/>
</g>
<!-- Node88&#45;&gt;Node2 -->
<g id="edge105" class="edge">
<title>Node88&#45;&gt;Node2</title>
<path fill="none" stroke="midnightblue" d="M2704.83,-220.37C2633.31,-189.97 2456.16,-114.94 2442.48,-112 2193.62,-58.4 1551.92,-84.21 1297.48,-76 1216.02,-73.37 1120.84,-70.2 1067.42,-68.41"/>
<polygon fill="midnightblue" stroke="midnightblue" points="2703.62,-223.66 2714.2,-224.36 2706.36,-217.22 2703.62,-223.66"/>
</g>
<!-- Node88&#45;&gt;Node6 -->
<g id="edge107" class="edge">
<title>Node88&#45;&gt;Node6</title>
<path fill="none" stroke="midnightblue" d="M2696.24,-232.53C2533.09,-230.34 1894.71,-219.86 1696.48,-188 1619.26,-175.59 1531.06,-146.21 1489.92,-131.58"/>
<polygon fill="midnightblue" stroke="midnightblue" points="2696.24,-236.03 2706.29,-232.66 2696.33,-229.03 2696.24,-236.03"/>
</g>
<!-- Node88&#45;&gt;Node8 -->
<g id="edge108" class="edge">
<title>Node88&#45;&gt;Node8</title>
<path fill="none" stroke="midnightblue" d="M2772.82,-225.5C2810.58,-217.69 2869.67,-204.33 2919.48,-188 2941.45,-180.8 2945.15,-173.92 2967.48,-168 3093.03,-134.72 3129.32,-153.03 3257.48,-132 3261.95,-131.27 3266.65,-130.41 3271.25,-129.51"/>
<polygon fill="midnightblue" stroke="midnightblue" points="2771.86,-222.13 2762.76,-227.56 2773.26,-228.99 2771.86,-222.13"/>
</g>
<!-- Node88&#45;&gt;Node9 -->
<g id="edge109" class="edge">
<title>Node88&#45;&gt;Node9</title>
<path fill="none" stroke="midnightblue" d="M2732.7,-214.41C2728.96,-186.8 2717.56,-135.65 2683.48,-112 2604.37,-57.09 1913.45,-84.06 1817.48,-76 1805.23,-74.97 1791.83,-73.39 1780.01,-71.84"/>
<polygon fill="midnightblue" stroke="midnightblue" points="2729.23,-214.82 2733.86,-224.36 2736.18,-214.02 2729.23,-214.82"/>
</g>
<!-- Node88&#45;&gt;Node10 -->
<g id="edge111" class="edge">
<title>Node88&#45;&gt;Node10</title>
<path fill="none" stroke="midnightblue" d="M2696.12,-230.59C2555.54,-221.75 2069,-191.17 1919.52,-181.77"/>
<polygon fill="midnightblue" stroke="midnightblue" points="2696.19,-234.1 2706.39,-231.23 2696.63,-227.11 2696.19,-234.1"/>
</g>
<!-- Node88&#45;&gt;Node11 -->
<g id="edge106" class="edge">
<title>Node88&#45;&gt;Node11</title>
<path fill="none" stroke="midnightblue" d="M2696.26,-232.32C2524.39,-229.14 1822.01,-214.71 1603.48,-188 1499,-175.23 1377.6,-146.02 1320.84,-131.51"/>
<polygon fill="midnightblue" stroke="midnightblue" points="2696.29,-235.82 2706.35,-232.51 2696.42,-228.82 2696.29,-235.82"/>
</g>
<!-- Node88&#45;&gt;Node13 -->
<g id="edge110" class="edge">
<title>Node88&#45;&gt;Node13</title>
<path fill="none" stroke="midnightblue" d="M2772.59,-223.26C2969.76,-190.75 3030.13,-238.83 3223.48,-188 3243.87,-182.64 3246.06,-173.2 3266.48,-168 3328.2,-152.3 3794.89,-178.42 3838.48,-132 3844.57,-125.52 3844.55,-118.5 3838.48,-112 3795.15,-65.61 3335.05,-65.77 3209.17,-66.69"/>
<polygon fill="midnightblue" stroke="midnightblue" points="2771.76,-219.85 2762.49,-224.98 2772.93,-226.75 2771.76,-219.85"/>
</g>
<!-- Node88&#45;&gt;Node16 -->
<g id="edge113" class="edge">
<title>Node88&#45;&gt;Node16</title>
<path fill="none" stroke="midnightblue" d="M2696.05,-232.84C2498,-231.87 1591.02,-225.41 1312.48,-188 1221.85,-175.83 1117.33,-146.2 1068.83,-131.52"/>
<polygon fill="midnightblue" stroke="midnightblue" points="2696.24,-236.34 2706.26,-232.89 2696.28,-229.34 2696.24,-236.34"/>
</g>
<!-- Node88&#45;&gt;Node18 -->
<g id="edge115" class="edge">
<title>Node88&#45;&gt;Node18</title>
<path fill="none" stroke="midnightblue" d="M2772.58,-223.24C2953.03,-192.79 3007.65,-231.59 3185.48,-188 3207.93,-182.5 3210.97,-173.22 3233.48,-168 3297.36,-153.19 3777.56,-179.76 3822.48,-132 3828.58,-125.53 3828.6,-118.45 3822.48,-112 3770.02,-56.71 3213.16,-85.04 3137.48,-76 3134.29,-75.62 3130.98,-75.15 3127.67,-74.63"/>
<polygon fill="midnightblue" stroke="midnightblue" points="2771.74,-219.83 2762.49,-224.99 2772.94,-226.73 2771.74,-219.83"/>
</g>
<!-- Node88&#45;&gt;Node21 -->
<g id="edge116" class="edge">
<title>Node88&#45;&gt;Node21</title>
<path fill="none" stroke="midnightblue" d="M2745.22,-215.46C2762.74,-185.75 2794.12,-127.26 2779.48,-112 2746.54,-77.64 1970.87,-80.54 1923.48,-76 1916.04,-75.29 1908.11,-74.28 1900.54,-73.19"/>
<polygon fill="midnightblue" stroke="midnightblue" points="2742.04,-213.95 2739.9,-224.33 2748.05,-217.56 2742.04,-213.95"/>
</g>
<!-- Node88&#45;&gt;Node25 -->
<g id="edge119" class="edge">
<title>Node88&#45;&gt;Node25</title>
<path fill="none" stroke="midnightblue" d="M2772.33,-222.13C2813.24,-210.31 2874.04,-192.48 2884.48,-188 2900.95,-180.94 2902.49,-173.67 2919.48,-168 2980.67,-147.6 3164.8,-180.35 3207.48,-132 3213.37,-125.34 3213.31,-118.72 3207.48,-112 3170.58,-69.42 3011.96,-85.91 2956.48,-76 2953.7,-75.5 2950.81,-74.95 2947.91,-74.38"/>
<polygon fill="midnightblue" stroke="midnightblue" points="2771.29,-218.79 2762.65,-224.93 2773.23,-225.52 2771.29,-218.79"/>
</g>
<!-- Node88&#45;&gt;Node27 -->
<g id="edge120" class="edge">
<title>Node88&#45;&gt;Node27</title>
<path fill="none" stroke="midnightblue" d="M2696.21,-232.26C2541.06,-229.12 1958.52,-215.67 1776.48,-188 1773.43,-187.54 1564.44,-132.88 1561.48,-132 1558.45,-131.1 1555.25,-130.09 1552.15,-129.08"/>
<polygon fill="midnightblue" stroke="midnightblue" points="2696.15,-235.76 2706.22,-232.47 2696.3,-228.77 2696.15,-235.76"/>
</g>
<!-- Node88&#45;&gt;Node31 -->
<g id="edge122" class="edge">
<title>Node88&#45;&gt;Node31</title>
<path fill="none" stroke="midnightblue" d="M2696.2,-232.5C2498.6,-229.78 1598.59,-215.97 1477.48,-188 1456.16,-183.07 1453.38,-174.52 1432.48,-168 1350.02,-142.29 1325.74,-151.06 1241.48,-132 1238.51,-131.33 1235.4,-130.57 1232.32,-129.8"/>
<polygon fill="midnightblue" stroke="midnightblue" points="2696.34,-236 2706.39,-232.64 2696.43,-229 2696.34,-236"/>
</g>
<!-- Node88&#45;&gt;Node35 -->
<g id="edge155" class="edge">
<title>Node88&#45;&gt;Node35</title>
<path fill="none" stroke="midnightblue" d="M2696.07,-232.6C2508.35,-230.48 1686.38,-219.55 1432.48,-188 1332.48,-175.57 1216.55,-146.21 1162.37,-131.58"/>
<polygon fill="midnightblue" stroke="midnightblue" points="2696.23,-236.1 2706.27,-232.71 2696.31,-229.1 2696.23,-236.1"/>
</g>
<!-- Node88&#45;&gt;Node40 -->
<g id="edge156" class="edge">
<title>Node88&#45;&gt;Node40</title>
<path fill="none" stroke="midnightblue" d="M2695.97,-232.94C2544.85,-232.41 1992.45,-227.74 1822.48,-188 1800.78,-182.92 1797.59,-175.19 1776.48,-168 1748.43,-158.45 1667.44,-139.2 1624.68,-129.26"/>
<polygon fill="midnightblue" stroke="midnightblue" points="2696.13,-236.44 2706.14,-232.97 2696.16,-229.44 2696.13,-236.44"/>
</g>
<!-- Node88&#45;&gt;Node45 -->
<g id="edge158" class="edge">
<title>Node88&#45;&gt;Node45</title>
<path fill="none" stroke="midnightblue" d="M2696.16,-231.47C2635.83,-228.2 2515.59,-218.15 2418.48,-188 2373.14,-173.92 2324.14,-145.73 2301.02,-131.55"/>
<polygon fill="midnightblue" stroke="midnightblue" points="2696.19,-234.98 2706.36,-231.99 2696.55,-227.99 2696.19,-234.98"/>
</g>
<!-- Node88&#45;&gt;Node47 -->
<g id="edge159" class="edge">
<title>Node88&#45;&gt;Node47</title>
<path fill="none" stroke="midnightblue" d="M2695.86,-230.1C2627.83,-224.47 2489.82,-210.61 2447.48,-188 2422.29,-174.55 2402.03,-146.33 2392.84,-131.9"/>
<polygon fill="midnightblue" stroke="midnightblue" points="2695.91,-233.61 2706.15,-230.93 2696.47,-226.64 2695.91,-233.61"/>
</g>
<!-- Node88&#45;&gt;Node48 -->
<g id="edge160" class="edge">
<title>Node88&#45;&gt;Node48</title>
<path fill="none" stroke="midnightblue" d="M2772.9,-227.59C2817.8,-220.73 2894.03,-207.42 2957.48,-188 2979.58,-181.24 2983.1,-173.74 3005.48,-168 3150.54,-130.82 3192.89,-157.31 3340.48,-132 3343.29,-131.52 3346.2,-130.95 3349.1,-130.34"/>
<polygon fill="midnightblue" stroke="midnightblue" points="2772.11,-224.17 2762.73,-229.11 2773.14,-231.09 2772.11,-224.17"/>
</g>
<!-- Node88&#45;&gt;Node49 -->
<g id="edge161" class="edge">
<title>Node88&#45;&gt;Node49</title>
<path fill="none" stroke="midnightblue" d="M2772.76,-229.12C2824.18,-223.3 2918.03,-210.5 2995.48,-188 3017.68,-181.55 3021.07,-173.62 3043.48,-168 3205.04,-127.52 3251.84,-157.1 3416.48,-132 3419.35,-131.56 3422.31,-131.06 3425.28,-130.51"/>
<polygon fill="midnightblue" stroke="midnightblue" points="2772.32,-225.65 2762.76,-230.23 2773.09,-232.61 2772.32,-225.65"/>
</g>
<!-- Node88&#45;&gt;Node50 -->
<g id="edge112" class="edge">
<title>Node88&#45;&gt;Node50</title>
<path fill="none" stroke="midnightblue" d="M2696.13,-232.15C2415.53,-225.94 680.92,-187.57 348.52,-180.22"/>
<polygon fill="midnightblue" stroke="midnightblue" points="2696.15,-235.65 2706.23,-232.37 2696.31,-228.65 2696.15,-235.65"/>
</g>
<!-- Node88&#45;&gt;Node51 -->
<g id="edge114" class="edge">
<title>Node88&#45;&gt;Node51</title>
<path fill="none" stroke="midnightblue" d="M2751.02,-217.29C2766.68,-203.03 2791.32,-182.13 2815.48,-168 2842.62,-152.13 2876.41,-139.41 2899.74,-131.6"/>
<polygon fill="midnightblue" stroke="midnightblue" points="2748.26,-215.07 2743.31,-224.44 2753.02,-220.21 2748.26,-215.07"/>
</g>
<!-- Node88&#45;&gt;Node52 -->
<g id="edge117" class="edge">
<title>Node88&#45;&gt;Node52</title>
<path fill="none" stroke="midnightblue" d="M2767.7,-220.72C2790.81,-212 2822.24,-199.8 2849.48,-188 2868.46,-179.78 2871.63,-173.77 2891.48,-168 3019.63,-130.74 3276.52,-210.5 3186.48,-112 3156.38,-79.06 2830.55,-83.03 2786.48,-76 2783.47,-75.52 2780.33,-74.94 2777.21,-74.3"/>
<polygon fill="midnightblue" stroke="midnightblue" points="2766.17,-217.56 2758.03,-224.35 2768.62,-224.11 2766.17,-217.56"/>
</g>
<!-- Node88&#45;&gt;Node53 -->
<g id="edge118" class="edge">
<title>Node88&#45;&gt;Node53</title>
<path fill="none" stroke="midnightblue" d="M2714.62,-218.1C2701.66,-208.38 2685.19,-196.03 2674.26,-187.83"/>
<polygon fill="midnightblue" stroke="midnightblue" points="2712.82,-221.12 2722.92,-224.32 2717.02,-215.52 2712.82,-221.12"/>
</g>
<!-- Node88&#45;&gt;Node55 -->
<g id="edge121" class="edge">
<title>Node88&#45;&gt;Node55</title>
<path fill="none" stroke="midnightblue" d="M2759.29,-219.16C2792.68,-200.57 2848.5,-169.66 2853.48,-168 2959.99,-132.53 2992.89,-151.26 3103.48,-132 3107.94,-131.22 3112.63,-130.34 3117.23,-129.43"/>
<polygon fill="midnightblue" stroke="midnightblue" points="2757.16,-216.34 2750.13,-224.26 2760.57,-222.45 2757.16,-216.34"/>
</g>
<!-- Node88&#45;&gt;Node57 -->
<g id="edge123" class="edge">
<title>Node88&#45;&gt;Node57</title>
<path fill="none" stroke="midnightblue" d="M2772.66,-230.27C2830.12,-225.49 2941.85,-213.57 3033.48,-188 3055.75,-181.79 3059.04,-173.49 3081.48,-168 3263.89,-123.35 3316.68,-159.29 3502.48,-132 3505.35,-131.58 3508.32,-131.08 3511.28,-130.55"/>
<polygon fill="midnightblue" stroke="midnightblue" points="2772.27,-226.79 2762.58,-231.08 2772.83,-233.77 2772.27,-226.79"/>
</g>
<!-- Node88&#45;&gt;Node63 -->
<g id="edge124" class="edge">
<title>Node88&#45;&gt;Node63</title>
<path fill="none" stroke="midnightblue" d="M2772.77,-231.15C2835.96,-227.38 2965.63,-216.59 3071.48,-188 3093.8,-181.97 3097.01,-173.4 3119.48,-168 3322.76,-119.18 3381.92,-164.19 3588.48,-132 3591.57,-131.52 3594.77,-130.92 3597.95,-130.26"/>
<polygon fill="midnightblue" stroke="midnightblue" points="2772.27,-227.67 2762.49,-231.74 2772.67,-234.66 2772.27,-227.67"/>
</g>
<!-- Node88&#45;&gt;Node66 -->
<g id="edge125" class="edge">
<title>Node88&#45;&gt;Node66</title>
<path fill="none" stroke="midnightblue" d="M2773.07,-231.86C2841.77,-229.06 2989.39,-219.58 3109.48,-188 3131.84,-182.12 3135,-173.33 3157.48,-168 3377.29,-115.88 3441.28,-166.82 3664.48,-132 3667.36,-131.55 3670.34,-130.99 3673.3,-130.37"/>
<polygon fill="midnightblue" stroke="midnightblue" points="2772.59,-228.37 2762.73,-232.25 2772.86,-235.37 2772.59,-228.37"/>
</g>
<!-- Node88&#45;&gt;Node64 -->
<g id="edge154" class="edge">
<title>Node88&#45;&gt;Node64</title>
<path fill="none" stroke="midnightblue" d="M2772.71,-232.46C2846.38,-230.64 3012.66,-222.66 3147.48,-188 3169.87,-182.25 3172.98,-173.28 3195.48,-168 3430.95,-112.74 3498.94,-165.43 3738.48,-132 3741.44,-131.59 3744.5,-131.08 3747.55,-130.53"/>
<polygon fill="midnightblue" stroke="midnightblue" points="2772.44,-228.97 2762.52,-232.69 2772.6,-235.97 2772.44,-228.97"/>
</g>
<!-- Node88&#45;&gt;Node82 -->
<g id="edge126" class="edge">
<title>Node88&#45;&gt;Node82</title>
<path fill="none" stroke="midnightblue" d="M2696.06,-232.18C2517.96,-228.32 1754.97,-211.2 1129.48,-188 1077.5,-186.07 1017.75,-183.22 978.23,-181.25"/>
<polygon fill="midnightblue" stroke="midnightblue" points="2696.16,-235.68 2706.24,-232.4 2696.31,-228.68 2696.16,-235.68"/>
</g>
<!-- Node88&#45;&gt;Node79 -->
<g id="edge153" class="edge">
<title>Node88&#45;&gt;Node79</title>
<path fill="none" stroke="midnightblue" d="M2772.83,-231.38C2860.03,-227.34 3079.71,-215.13 3261.48,-188 3265.91,-187.34 3270.57,-186.49 3275.11,-185.59"/>
<polygon fill="midnightblue" stroke="midnightblue" points="2772.46,-227.9 2762.62,-231.85 2772.77,-234.89 2772.46,-227.9"/>
</g>
<!-- Node88&#45;&gt;Node80 -->
<g id="edge157" class="edge">
<title>Node88&#45;&gt;Node80</title>
<path fill="none" stroke="midnightblue" d="M2772.82,-231.91C2868.85,-228.81 3127.28,-218.09 3340.48,-188 3343.35,-187.59 3346.32,-187.11 3349.29,-186.58"/>
<polygon fill="midnightblue" stroke="midnightblue" points="2772.6,-228.42 2762.72,-232.23 2772.82,-235.41 2772.6,-228.42"/>
</g>
<!-- Node82&#45;&gt;Node9 -->
<g id="edge128" class="edge">
<title>Node82&#45;&gt;Node9</title>
<path fill="none" stroke="midnightblue" d="M880.86,-175.88C810.67,-173.14 693.39,-163.8 666.48,-132 660.74,-125.21 660.32,-118.4 666.48,-112 704.37,-72.7 1594,-79.5 1648.48,-76 1669.97,-74.62 1694.04,-72.42 1712.96,-70.54"/>
<polygon fill="midnightblue" stroke="midnightblue" points="880.74,-179.37 890.86,-176.23 880.99,-172.38 880.74,-179.37"/>
</g>
<!-- Node82&#45;&gt;Node11 -->
<g id="edge127" class="edge">
<title>Node82&#45;&gt;Node11</title>
<path fill="none" stroke="midnightblue" d="M988.34,-169.73C1049.54,-161.32 1152.37,-146.73 1240.48,-132 1243.66,-131.47 1246.95,-130.9 1250.26,-130.31"/>
<polygon fill="midnightblue" stroke="midnightblue" points="987.58,-166.3 978.15,-171.13 988.53,-173.24 987.58,-166.3"/>
</g>
<!-- Node82&#45;&gt;Node12 -->
<g id="edge129" class="edge">
<title>Node82&#45;&gt;Node12</title>
<path fill="none" stroke="midnightblue" d="M880.76,-171.69C823.82,-164.12 746.45,-147.06 780.48,-112 827.29,-63.78 1922.92,-85.2 1989.48,-76 1992.55,-75.58 1995.73,-75 1998.87,-74.33"/>
<polygon fill="midnightblue" stroke="midnightblue" points="880.41,-175.18 890.77,-172.96 881.29,-168.23 880.41,-175.18"/>
</g>
<!-- Node82&#45;&gt;Node14 -->
<g id="edge130" class="edge">
<title>Node82&#45;&gt;Node14</title>
<path fill="none" stroke="midnightblue" d="M943.16,-158.98C947.57,-149.82 952.74,-139.09 956.27,-131.75"/>
<polygon fill="midnightblue" stroke="midnightblue" points="939.96,-157.55 938.78,-168.08 946.27,-160.59 939.96,-157.55"/>
</g>
<!-- Node82&#45;&gt;Node15 -->
<g id="edge131" class="edge">
<title>Node82&#45;&gt;Node15</title>
<path fill="none" stroke="midnightblue" d="M880.79,-173.68C789.6,-167.69 598.75,-153.65 438.48,-132 433.85,-131.37 428.99,-130.62 424.2,-129.82"/>
<polygon fill="midnightblue" stroke="midnightblue" points="880.68,-177.18 890.88,-174.33 881.13,-170.19 880.68,-177.18"/>
</g>
<!-- Node82&#45;&gt;Node16 -->
<g id="edge132" class="edge">
<title>Node82&#45;&gt;Node16</title>
<path fill="none" stroke="midnightblue" d="M960.79,-163.73C980.6,-153.73 1007.19,-140.31 1024.34,-131.65"/>
<polygon fill="midnightblue" stroke="midnightblue" points="959.03,-160.69 951.68,-168.32 962.18,-166.94 959.03,-160.69"/>
</g>
<!-- Node82&#45;&gt;Node17 -->
<g id="edge133" class="edge">
<title>Node82&#45;&gt;Node17</title>
<path fill="none" stroke="midnightblue" d="M900.44,-164.48C871.31,-152.01 836.96,-131.89 856.48,-112 894.04,-73.73 2733.2,-82.02 2786.48,-76 2789.36,-75.67 2792.34,-75.25 2795.31,-74.76"/>
<polygon fill="midnightblue" stroke="midnightblue" points="899.45,-167.86 910.03,-168.41 902.1,-161.38 899.45,-167.86"/>
</g>
<!-- Node82&#45;&gt;Node18 -->
<g id="edge135" class="edge">
<title>Node82&#45;&gt;Node18</title>
<path fill="none" stroke="midnightblue" d="M925.7,-158.94C919.98,-144.28 915.58,-124.11 927.48,-112 968.68,-70.1 2984.04,-82.05 3042.48,-76 3045.38,-75.7 3048.36,-75.32 3051.35,-74.87"/>
<polygon fill="midnightblue" stroke="midnightblue" points="922.65,-160.71 929.88,-168.45 929.06,-157.89 922.65,-160.71"/>
</g>
<!-- Node82&#45;&gt;Node21 -->
<g id="edge136" class="edge">
<title>Node82&#45;&gt;Node21</title>
<path fill="none" stroke="midnightblue" d="M880.58,-177.52C796.92,-176.67 650.76,-167.54 704.48,-112 746.38,-68.69 1728.4,-80.59 1788.48,-76 1800.78,-75.06 1814.15,-73.6 1826.16,-72.12"/>
<polygon fill="midnightblue" stroke="midnightblue" points="880.68,-181.02 890.7,-177.59 880.72,-174.02 880.68,-181.02"/>
</g>
<!-- Node82&#45;&gt;Node23 -->
<g id="edge138" class="edge">
<title>Node82&#45;&gt;Node23</title>
<path fill="none" stroke="midnightblue" d="M880.58,-175.15C809.62,-170.94 698.7,-157.15 742.48,-112 787.64,-65.43 1845.01,-83.12 1909.48,-76 1916.92,-75.18 1924.93,-73.82 1932.2,-72.41"/>
<polygon fill="midnightblue" stroke="midnightblue" points="880.56,-178.65 890.73,-175.7 880.94,-171.66 880.56,-178.65"/>
</g>
<!-- Node82&#45;&gt;Node24 -->
<g id="edge139" class="edge">
<title>Node82&#45;&gt;Node24</title>
<path fill="none" stroke="midnightblue" d="M880.88,-176.16C787.43,-173.83 599.3,-165.06 543.48,-132 521.12,-118.75 506.8,-89.91 500.76,-75.52"/>
<polygon fill="midnightblue" stroke="midnightblue" points="880.9,-179.66 890.98,-176.4 881.06,-172.66 880.9,-179.66"/>
</g>
<!-- Node82&#45;&gt;Node25 -->
<g id="edge140" class="edge">
<title>Node82&#45;&gt;Node25</title>
<path fill="none" stroke="midnightblue" d="M914.26,-161.7C897.99,-147.62 880.02,-126.73 894.48,-112 932.99,-72.79 2817.89,-82.29 2872.48,-76 2875.3,-75.68 2878.2,-75.25 2881.11,-74.76"/>
<polygon fill="midnightblue" stroke="midnightblue" points="912.48,-164.76 922.44,-168.38 916.91,-159.34 912.48,-164.76"/>
</g>
<!-- Node82&#45;&gt;Node26 -->
<g id="edge141" class="edge">
<title>Node82&#45;&gt;Node26</title>
<path fill="none" stroke="midnightblue" d="M880.64,-173.8C788.66,-167.79 609.3,-153.44 590.48,-132 584.62,-125.32 584.34,-118.43 590.48,-112 620.8,-80.27 1335.92,-81.23 1379.48,-76 1384.66,-75.38 1390.12,-74.51 1395.4,-73.55"/>
<polygon fill="midnightblue" stroke="midnightblue" points="880.67,-177.31 890.87,-174.46 881.12,-170.33 880.67,-177.31"/>
</g>
<!-- Node82&#45;&gt;Node27 -->
<g id="edge142" class="edge">
<title>Node82&#45;&gt;Node27</title>
<path fill="none" stroke="midnightblue" d="M988.18,-177.11C1090.35,-176.38 1319.33,-170.15 1507.48,-132 1510.58,-131.37 1513.82,-130.49 1516.93,-129.53"/>
<polygon fill="midnightblue" stroke="midnightblue" points="988.09,-173.61 978.11,-177.17 988.13,-180.61 988.09,-173.61"/>
</g>
<!-- Node82&#45;&gt;Node30 -->
<g id="edge144" class="edge">
<title>Node82&#45;&gt;Node30</title>
<path fill="none" stroke="midnightblue" d="M880.67,-177.16C801.73,-176.13 660.44,-169 628.48,-132 622.67,-125.27 622.34,-118.42 628.48,-112 660.64,-78.43 1418.06,-78.42 1464.48,-76 1505.85,-73.84 1553.73,-70.81 1583.31,-68.88"/>
<polygon fill="midnightblue" stroke="midnightblue" points="880.87,-180.67 890.9,-177.27 880.94,-173.67 880.87,-180.67"/>
</g>
<!-- Node82&#45;&gt;Node31 -->
<g id="edge145" class="edge">
<title>Node82&#45;&gt;Node31</title>
<path fill="none" stroke="midnightblue" d="M988.27,-168.02C1036.86,-159.64 1110.24,-146.3 1173.48,-132 1176.46,-131.33 1179.57,-130.57 1182.65,-129.8"/>
<polygon fill="midnightblue" stroke="midnightblue" points="987.56,-164.6 978.29,-169.74 988.74,-171.49 987.56,-164.6"/>
</g>
<!-- Node82&#45;&gt;Node35 -->
<g id="edge146" class="edge">
<title>Node82&#45;&gt;Node35</title>
<path fill="none" stroke="midnightblue" d="M975.71,-165.7C1012.89,-155.51 1066.76,-140.74 1100.42,-131.52"/>
<polygon fill="midnightblue" stroke="midnightblue" points="974.42,-162.42 965.7,-168.44 976.27,-169.18 974.42,-162.42"/>
</g>
<!-- Node82&#45;&gt;Node40 -->
<g id="edge147" class="edge">
<title>Node82&#45;&gt;Node40</title>
<path fill="none" stroke="midnightblue" d="M988.08,-176.15C1096.7,-173.78 1350.35,-164.87 1560.48,-132 1563.62,-131.51 1566.88,-130.89 1570.11,-130.2"/>
<polygon fill="midnightblue" stroke="midnightblue" points="987.95,-172.66 978.03,-176.36 988.1,-179.65 987.95,-172.66"/>
</g>
<!-- Node82&#45;&gt;Node42 -->
<g id="edge148" class="edge">
<title>Node82&#45;&gt;Node42</title>
<path fill="none" stroke="midnightblue" d="M880.53,-176.04C764.71,-173.04 506.36,-160.84 552.48,-112 565.65,-98.06 1160.2,-73.96 1306.31,-68.24"/>
<polygon fill="midnightblue" stroke="midnightblue" points="880.53,-179.54 890.62,-176.29 880.7,-172.54 880.53,-179.54"/>
</g>
<!-- Node82&#45;&gt;Node44 -->
<g id="edge149" class="edge">
<title>Node82&#45;&gt;Node44</title>
<path fill="none" stroke="midnightblue" d="M988.7,-172.4C1065.94,-165.51 1212.02,-151.24 1335.48,-132 1338.48,-131.53 1341.57,-131.01 1344.67,-130.45"/>
<polygon fill="midnightblue" stroke="midnightblue" points="987.91,-168.96 978.26,-173.32 988.53,-175.93 987.91,-168.96"/>
</g>
<!-- Node82&#45;&gt;Node45 -->
<g id="edge150" class="edge">
<title>Node82&#45;&gt;Node45</title>
<path fill="none" stroke="midnightblue" d="M988.53,-174.84C1212.27,-165.91 2063.1,-131.96 2250.73,-124.47"/>
<polygon fill="midnightblue" stroke="midnightblue" points="988.2,-171.35 978.35,-175.25 988.48,-178.35 988.2,-171.35"/>
</g>
<!-- Node82&#45;&gt;Node46 -->
<g id="edge151" class="edge">
<title>Node82&#45;&gt;Node46</title>
<path fill="none" stroke="midnightblue" d="M880.78,-174.46C784.02,-169.35 584.44,-156.19 519.48,-132 484.53,-118.98 450.22,-90.03 434.46,-75.57"/>
<polygon fill="midnightblue" stroke="midnightblue" points="880.77,-177.97 890.93,-174.99 881.13,-170.98 880.77,-177.97"/>
</g>
<!-- Node82&#45;&gt;Node47 -->
<g id="edge152" class="edge">
<title>Node82&#45;&gt;Node47</title>
<path fill="none" stroke="midnightblue" d="M988.16,-176.21C1211.04,-172.77 2064.39,-158.14 2332.48,-132 2335.57,-131.7 2338.74,-131.33 2341.93,-130.92"/>
<polygon fill="midnightblue" stroke="midnightblue" points="987.97,-172.71 978.03,-176.36 988.08,-179.71 987.97,-172.71"/>
</g>
<!-- Node82&#45;&gt;Node51 -->
<g id="edge134" class="edge">
<title>Node82&#45;&gt;Node51</title>
<path fill="none" stroke="midnightblue" d="M988.43,-175.54C1270.91,-167.88 2577.74,-132.48 2869.58,-124.57"/>
<polygon fill="midnightblue" stroke="midnightblue" points="988.34,-172.04 978.43,-175.81 988.53,-179.04 988.34,-172.04"/>
</g>
<!-- Node82&#45;&gt;Node52 -->
<g id="edge137" class="edge">
<title>Node82&#45;&gt;Node52</title>
<path fill="none" stroke="midnightblue" d="M881.08,-166.12C839.91,-155.49 793.84,-137.22 818.48,-112 835.83,-94.24 2476.08,-70.77 2717.85,-67.41"/>
<polygon fill="midnightblue" stroke="midnightblue" points="880.3,-169.53 890.84,-168.53 881.97,-162.73 880.3,-169.53"/>
</g>
<!-- Node82&#45;&gt;Node55 -->
<g id="edge143" class="edge">
<title>Node82&#45;&gt;Node55</title>
<path fill="none" stroke="midnightblue" d="M988.04,-176.56C1224.26,-174.45 2196.76,-164.16 2994.48,-132 3037.16,-130.28 3086.46,-127.18 3117.31,-125.1"/>
<polygon fill="midnightblue" stroke="midnightblue" points="987.96,-173.06 977.99,-176.65 988.02,-180.06 987.96,-173.06"/>
</g>
</g>
</svg>
