<?xml version="1.0" encoding="UTF-8" standalone="no"?>
<!DOCTYPE svg PUBLIC "-//W3C//DTD SVG 1.1//EN"
 "http://www.w3.org/Graphics/SVG/1.1/DTD/svg11.dtd">
<!-- Generated by graphviz version 2.43.0 (0)
 -->
<!-- Title: colormap&#45;private.h Pages: 1 -->
<svg width="1903pt" height="308pt"
 viewBox="0.00 0.00 1903.14 308.00" xmlns="http://www.w3.org/2000/svg" xmlns:xlink="http://www.w3.org/1999/xlink">
<g id="graph0" class="graph" transform="scale(1 1) rotate(0) translate(4 304)">
<title>colormap&#45;private.h</title>
<polygon fill="white" stroke="transparent" points="-4,4 -4,-304 1899.14,-304 1899.14,4 -4,4"/>
<!-- Node1 -->
<g id="node1" class="node">
<title>Node1</title>
<g id="a_node1"><a xlink:title=" ">
<polygon fill="#bfbfbf" stroke="black" points="134.13,-280.5 134.13,-299.5 244.13,-299.5 244.13,-280.5 134.13,-280.5"/>
<text text-anchor="middle" x="189.13" y="-287.5" font-family="FreeSans" font-size="10.00">colormap&#45;private.h</text>
</a>
</g>
</g>
<!-- Node2 -->
<g id="node2" class="node">
<title>Node2</title>
<g id="a_node2"><a xlink:href="image_8h.html" target="_top" xlink:title=" ">
<polygon fill="white" stroke="black" points="859.63,-224.5 859.63,-243.5 954.63,-243.5 954.63,-224.5 859.63,-224.5"/>
<text text-anchor="middle" x="907.13" y="-231.5" font-family="FreeSans" font-size="10.00">magick/image.h</text>
</a>
</g>
</g>
<!-- Node1&#45;&gt;Node2 -->
<g id="edge1" class="edge">
<title>Node1&#45;&gt;Node2</title>
<path fill="none" stroke="midnightblue" d="M244.28,-284.85C377.09,-274.86 713.72,-249.55 849.27,-239.35"/>
<polygon fill="midnightblue" stroke="midnightblue" points="849.73,-242.83 859.44,-238.59 849.21,-235.85 849.73,-242.83"/>
</g>
<!-- Node3 -->
<g id="node3" class="node">
<title>Node3</title>
<g id="a_node3"><a xlink:href="color_8h.html" target="_top" xlink:title=" ">
<polygon fill="white" stroke="black" points="263.13,-112.5 263.13,-131.5 351.13,-131.5 351.13,-112.5 263.13,-112.5"/>
<text text-anchor="middle" x="307.13" y="-119.5" font-family="FreeSans" font-size="10.00">magick/color.h</text>
</a>
</g>
</g>
<!-- Node1&#45;&gt;Node3 -->
<g id="edge41" class="edge">
<title>Node1&#45;&gt;Node3</title>
<path fill="none" stroke="midnightblue" d="M187.91,-280.33C185.4,-258.87 181.88,-202.53 208.13,-168 220.24,-152.07 239.28,-141.62 257.45,-134.84"/>
<polygon fill="midnightblue" stroke="midnightblue" points="258.78,-138.08 267.11,-131.53 256.51,-131.46 258.78,-138.08"/>
</g>
<!-- Node30 -->
<g id="node30" class="node">
<title>Node30</title>
<g id="a_node30"><a xlink:href="exception-private_8h.html" target="_top" xlink:title=" ">
<polygon fill="white" stroke="black" points="9.63,-168.5 9.63,-187.5 160.63,-187.5 160.63,-168.5 9.63,-168.5"/>
<text text-anchor="middle" x="85.13" y="-175.5" font-family="FreeSans" font-size="10.00">magick/exception&#45;private.h</text>
</a>
</g>
</g>
<!-- Node1&#45;&gt;Node30 -->
<g id="edge42" class="edge">
<title>Node1&#45;&gt;Node30</title>
<path fill="none" stroke="midnightblue" d="M180.97,-280.37C163.58,-261.97 122.64,-218.67 100.31,-195.05"/>
<polygon fill="midnightblue" stroke="midnightblue" points="102.67,-192.45 93.25,-187.59 97.58,-197.26 102.67,-192.45"/>
</g>
<!-- Node2&#45;&gt;Node3 -->
<g id="edge2" class="edge">
<title>Node2&#45;&gt;Node3</title>
<path fill="none" stroke="midnightblue" d="M859.37,-233.51C743.6,-234.03 451.21,-230.92 365.13,-188 344.06,-177.49 327.16,-155.73 317.16,-140.28"/>
<polygon fill="midnightblue" stroke="midnightblue" points="320.07,-138.32 311.85,-131.64 314.1,-141.99 320.07,-138.32"/>
</g>
<!-- Node4 -->
<g id="node4" class="node">
<title>Node4</title>
<g id="a_node4"><a xlink:href="pixel_8h.html" target="_top" xlink:title=" ">
<polygon fill="white" stroke="black" points="949.13,-56.5 949.13,-75.5 1037.13,-75.5 1037.13,-56.5 949.13,-56.5"/>
<text text-anchor="middle" x="993.13" y="-63.5" font-family="FreeSans" font-size="10.00">magick/pixel.h</text>
</a>
</g>
</g>
<!-- Node2&#45;&gt;Node4 -->
<g id="edge25" class="edge">
<title>Node2&#45;&gt;Node4</title>
<path fill="none" stroke="midnightblue" d="M911.56,-224.38C916.21,-215.34 923.72,-200.68 930.13,-188 947.17,-154.3 950.51,-145.4 968.13,-112 972.98,-102.8 978.59,-92.65 983.27,-84.33"/>
<polygon fill="midnightblue" stroke="midnightblue" points="986.35,-85.99 988.23,-75.57 980.26,-82.55 986.35,-85.99"/>
</g>
<!-- Node5 -->
<g id="node5" class="node">
<title>Node5</title>
<g id="a_node5"><a xlink:href="colorspace_8h.html" target="_top" xlink:title=" ">
<polygon fill="white" stroke="black" points="1478.63,-0.5 1478.63,-19.5 1595.63,-19.5 1595.63,-0.5 1478.63,-0.5"/>
<text text-anchor="middle" x="1537.13" y="-7.5" font-family="FreeSans" font-size="10.00">magick/colorspace.h</text>
</a>
</g>
</g>
<!-- Node2&#45;&gt;Node5 -->
<g id="edge12" class="edge">
<title>Node2&#45;&gt;Node5</title>
<path fill="none" stroke="midnightblue" d="M954.9,-232.13C1142.9,-228.53 1823.39,-213.77 1861.13,-188 1890.5,-167.95 1904.98,-142.15 1886.13,-112 1856.31,-64.32 1698.71,-34.06 1605.8,-20.08"/>
<polygon fill="midnightblue" stroke="midnightblue" points="1606.04,-16.58 1595.64,-18.58 1605.02,-23.51 1606.04,-16.58"/>
</g>
<!-- Node9 -->
<g id="node9" class="node">
<title>Node9</title>
<g id="a_node9"><a xlink:href="semaphore_8h.html" target="_top" xlink:title=" ">
<polygon fill="white" stroke="black" points="276.63,-0.5 276.63,-19.5 395.63,-19.5 395.63,-0.5 276.63,-0.5"/>
<text text-anchor="middle" x="336.13" y="-7.5" font-family="FreeSans" font-size="10.00">magick/semaphore.h</text>
</a>
</g>
</g>
<!-- Node2&#45;&gt;Node9 -->
<g id="edge38" class="edge">
<title>Node2&#45;&gt;Node9</title>
<path fill="none" stroke="midnightblue" d="M859.2,-231.79C739.29,-228.36 433.36,-216.83 398.13,-188 350.79,-149.26 381.81,-112.81 359.13,-56 355.43,-46.73 350.48,-36.81 346.11,-28.66"/>
<polygon fill="midnightblue" stroke="midnightblue" points="349.1,-26.81 341.21,-19.74 342.96,-30.19 349.1,-26.81"/>
</g>
<!-- Node10 -->
<g id="node10" class="node">
<title>Node10</title>
<g id="a_node10"><a xlink:href="blob_8h.html" target="_top" xlink:title=" ">
<polygon fill="white" stroke="black" points="533.13,-168.5 533.13,-187.5 619.13,-187.5 619.13,-168.5 533.13,-168.5"/>
<text text-anchor="middle" x="576.13" y="-175.5" font-family="FreeSans" font-size="10.00">magick/blob.h</text>
</a>
</g>
</g>
<!-- Node2&#45;&gt;Node10 -->
<g id="edge9" class="edge">
<title>Node2&#45;&gt;Node10</title>
<path fill="none" stroke="midnightblue" d="M859.48,-226C798.4,-216.44 693.04,-199.28 629.39,-188.55"/>
<polygon fill="midnightblue" stroke="midnightblue" points="629.6,-185.04 619.16,-186.82 628.43,-191.94 629.6,-185.04"/>
</g>
<!-- Node11 -->
<g id="node11" class="node">
<title>Node11</title>
<g id="a_node11"><a xlink:href="stream_8h.html" target="_top" xlink:title=" ">
<polygon fill="white" stroke="black" points="562.63,-112.5 562.63,-131.5 661.63,-131.5 661.63,-112.5 562.63,-112.5"/>
<text text-anchor="middle" x="612.13" y="-119.5" font-family="FreeSans" font-size="10.00">magick/stream.h</text>
</a>
</g>
</g>
<!-- Node2&#45;&gt;Node11 -->
<g id="edge39" class="edge">
<title>Node2&#45;&gt;Node11</title>
<path fill="none" stroke="midnightblue" d="M859.45,-233.44C808.3,-231.88 726.32,-223.35 666.13,-188 646.83,-176.66 631.35,-155.75 622,-140.7"/>
<polygon fill="midnightblue" stroke="midnightblue" points="624.85,-138.65 616.76,-131.82 618.82,-142.21 624.85,-138.65"/>
</g>
<!-- Node12 -->
<g id="node12" class="node">
<title>Node12</title>
<g id="a_node12"><a xlink:href="cache-view_8h.html" target="_top" xlink:title=" ">
<polygon fill="white" stroke="black" points="977.63,-112.5 977.63,-131.5 1096.63,-131.5 1096.63,-112.5 977.63,-112.5"/>
<text text-anchor="middle" x="1037.13" y="-119.5" font-family="FreeSans" font-size="10.00">magick/cache&#45;view.h</text>
</a>
</g>
</g>
<!-- Node2&#45;&gt;Node12 -->
<g id="edge13" class="edge">
<title>Node2&#45;&gt;Node12</title>
<path fill="none" stroke="midnightblue" d="M918.4,-224.18C929.8,-215.21 947.85,-200.84 963.13,-188 982.83,-171.45 1004.94,-151.9 1019.81,-138.59"/>
<polygon fill="midnightblue" stroke="midnightblue" points="1022.56,-140.83 1027.67,-131.55 1017.89,-135.62 1022.56,-140.83"/>
</g>
<!-- Node13 -->
<g id="node13" class="node">
<title>Node13</title>
<g id="a_node13"><a xlink:href="composite_8h.html" target="_top" xlink:title=" ">
<polygon fill="white" stroke="black" points="675.13,-168.5 675.13,-187.5 791.13,-187.5 791.13,-168.5 675.13,-168.5"/>
<text text-anchor="middle" x="733.13" y="-175.5" font-family="FreeSans" font-size="10.00">magick/composite.h</text>
</a>
</g>
</g>
<!-- Node2&#45;&gt;Node13 -->
<g id="edge15" class="edge">
<title>Node2&#45;&gt;Node13</title>
<path fill="none" stroke="midnightblue" d="M879.56,-224.44C850.03,-215.28 803.01,-200.69 770.25,-190.52"/>
<polygon fill="midnightblue" stroke="midnightblue" points="771.16,-187.14 760.57,-187.52 769.08,-193.82 771.16,-187.14"/>
</g>
<!-- Node14 -->
<g id="node14" class="node">
<title>Node14</title>
<g id="a_node14"><a xlink:href="compress_8h.html" target="_top" xlink:title=" ">
<polygon fill="white" stroke="black" points="809.13,-168.5 809.13,-187.5 921.13,-187.5 921.13,-168.5 809.13,-168.5"/>
<text text-anchor="middle" x="865.13" y="-175.5" font-family="FreeSans" font-size="10.00">magick/compress.h</text>
</a>
</g>
</g>
<!-- Node2&#45;&gt;Node14 -->
<g id="edge16" class="edge">
<title>Node2&#45;&gt;Node14</title>
<path fill="none" stroke="midnightblue" d="M900.19,-224.08C894.2,-216.38 885.38,-205.03 878.08,-195.65"/>
<polygon fill="midnightblue" stroke="midnightblue" points="880.84,-193.5 871.94,-187.75 875.31,-197.79 880.84,-193.5"/>
</g>
<!-- Node15 -->
<g id="node15" class="node">
<title>Node15</title>
<g id="a_node15"><a xlink:href="effect_8h.html" target="_top" xlink:title=" ">
<polygon fill="white" stroke="black" points="1760.13,-168.5 1760.13,-187.5 1852.13,-187.5 1852.13,-168.5 1760.13,-168.5"/>
<text text-anchor="middle" x="1806.13" y="-175.5" font-family="FreeSans" font-size="10.00">magick/effect.h</text>
</a>
</g>
</g>
<!-- Node2&#45;&gt;Node15 -->
<g id="edge17" class="edge">
<title>Node2&#45;&gt;Node15</title>
<path fill="none" stroke="midnightblue" d="M954.66,-231.79C1082.11,-228.25 1442.04,-216.33 1740.13,-188 1743.35,-187.69 1746.66,-187.35 1750,-186.97"/>
<polygon fill="midnightblue" stroke="midnightblue" points="1750.51,-190.43 1760.03,-185.77 1749.68,-183.48 1750.51,-190.43"/>
</g>
<!-- Node17 -->
<g id="node17" class="node">
<title>Node17</title>
<g id="a_node17"><a xlink:href="geometry_8h.html" target="_top" xlink:title=" ">
<polygon fill="white" stroke="black" points="1652.13,-56.5 1652.13,-75.5 1762.13,-75.5 1762.13,-56.5 1652.13,-56.5"/>
<text text-anchor="middle" x="1707.13" y="-63.5" font-family="FreeSans" font-size="10.00">magick/geometry.h</text>
</a>
</g>
</g>
<!-- Node2&#45;&gt;Node17 -->
<g id="edge20" class="edge">
<title>Node2&#45;&gt;Node17</title>
<path fill="none" stroke="midnightblue" d="M954.76,-232.58C1100.01,-230.93 1530.58,-223.08 1582.13,-188 1613.03,-166.97 1592.04,-138.77 1618.13,-112 1632.4,-97.35 1652.45,-86.64 1669.91,-79.35"/>
<polygon fill="midnightblue" stroke="midnightblue" points="1671.27,-82.58 1679.29,-75.65 1668.7,-76.07 1671.27,-82.58"/>
</g>
<!-- Node18 -->
<g id="node18" class="node">
<title>Node18</title>
<g id="a_node18"><a xlink:href="layer_8h.html" target="_top" xlink:title=" ">
<polygon fill="white" stroke="black" points="1015.63,-168.5 1015.63,-187.5 1104.63,-187.5 1104.63,-168.5 1015.63,-168.5"/>
<text text-anchor="middle" x="1060.13" y="-175.5" font-family="FreeSans" font-size="10.00">magick/layer.h</text>
</a>
</g>
</g>
<!-- Node2&#45;&gt;Node18 -->
<g id="edge21" class="edge">
<title>Node2&#45;&gt;Node18</title>
<path fill="none" stroke="midnightblue" d="M931.37,-224.44C957,-215.4 997.61,-201.06 1026.37,-190.92"/>
<polygon fill="midnightblue" stroke="midnightblue" points="1027.73,-194.15 1036,-187.52 1025.4,-187.54 1027.73,-194.15"/>
</g>
<!-- Node19 -->
<g id="node19" class="node">
<title>Node19</title>
<g id="a_node19"><a xlink:href="locale___8h.html" target="_top" xlink:title=" ">
<polygon fill="white" stroke="black" points="1631.63,-168.5 1631.63,-187.5 1730.63,-187.5 1730.63,-168.5 1631.63,-168.5"/>
<text text-anchor="middle" x="1681.13" y="-175.5" font-family="FreeSans" font-size="10.00">magick/locale_.h</text>
</a>
</g>
</g>
<!-- Node2&#45;&gt;Node19 -->
<g id="edge22" class="edge">
<title>Node2&#45;&gt;Node19</title>
<path fill="none" stroke="midnightblue" d="M954.88,-231.15C1069.14,-226.48 1367.26,-212.74 1615.13,-188 1617.2,-187.79 1619.3,-187.57 1621.42,-187.34"/>
<polygon fill="midnightblue" stroke="midnightblue" points="1621.92,-190.8 1631.44,-186.17 1621.1,-183.85 1621.92,-190.8"/>
</g>
<!-- Node21 -->
<g id="node21" class="node">
<title>Node21</title>
<g id="a_node21"><a xlink:href="monitor_8h.html" target="_top" xlink:title=" ">
<polygon fill="white" stroke="black" points="1251.13,-168.5 1251.13,-187.5 1353.13,-187.5 1353.13,-168.5 1251.13,-168.5"/>
<text text-anchor="middle" x="1302.13" y="-175.5" font-family="FreeSans" font-size="10.00">magick/monitor.h</text>
</a>
</g>
</g>
<!-- Node2&#45;&gt;Node21 -->
<g id="edge24" class="edge">
<title>Node2&#45;&gt;Node21</title>
<path fill="none" stroke="midnightblue" d="M954.87,-226.82C1017.91,-218.61 1132.66,-203.49 1240.95,-188.15"/>
<polygon fill="midnightblue" stroke="midnightblue" points="1241.67,-191.58 1251.07,-186.71 1240.68,-184.65 1241.67,-191.58"/>
</g>
<!-- Node22 -->
<g id="node22" class="node">
<title>Node22</title>
<g id="a_node22"><a xlink:href="profile_8h.html" target="_top" xlink:title=" ">
<polygon fill="white" stroke="black" points="217.63,-168.5 217.63,-187.5 312.63,-187.5 312.63,-168.5 217.63,-168.5"/>
<text text-anchor="middle" x="265.13" y="-175.5" font-family="FreeSans" font-size="10.00">magick/profile.h</text>
</a>
</g>
</g>
<!-- Node2&#45;&gt;Node22 -->
<g id="edge26" class="edge">
<title>Node2&#45;&gt;Node22</title>
<path fill="none" stroke="midnightblue" d="M859.29,-230.37C759.94,-224.68 524.12,-209.91 327.13,-188 325.82,-187.85 324.5,-187.7 323.17,-187.55"/>
<polygon fill="midnightblue" stroke="midnightblue" points="323.17,-184.02 312.82,-186.25 322.3,-190.96 323.17,-184.02"/>
</g>
<!-- Node25 -->
<g id="node25" class="node">
<title>Node25</title>
<g id="a_node25"><a xlink:href="quantum_8h.html" target="_top" xlink:title=" ">
<polygon fill="white" stroke="black" points="407.13,-168.5 407.13,-187.5 515.13,-187.5 515.13,-168.5 407.13,-168.5"/>
<text text-anchor="middle" x="461.13" y="-175.5" font-family="FreeSans" font-size="10.00">magick/quantum.h</text>
</a>
</g>
</g>
<!-- Node2&#45;&gt;Node25 -->
<g id="edge31" class="edge">
<title>Node2&#45;&gt;Node25</title>
<path fill="none" stroke="midnightblue" d="M859.63,-228.41C787.58,-220.84 646.63,-204.98 521.6,-188.83"/>
<polygon fill="midnightblue" stroke="midnightblue" points="521.85,-185.34 511.48,-187.52 520.95,-192.28 521.85,-185.34"/>
</g>
<!-- Node27 -->
<g id="node27" class="node">
<title>Node27</title>
<g id="a_node27"><a xlink:href="resample_8h.html" target="_top" xlink:title=" ">
<polygon fill="white" stroke="black" points="1123.13,-168.5 1123.13,-187.5 1233.13,-187.5 1233.13,-168.5 1123.13,-168.5"/>
<text text-anchor="middle" x="1178.13" y="-175.5" font-family="FreeSans" font-size="10.00">magick/resample.h</text>
</a>
</g>
</g>
<!-- Node2&#45;&gt;Node27 -->
<g id="edge35" class="edge">
<title>Node2&#45;&gt;Node27</title>
<path fill="none" stroke="midnightblue" d="M950.07,-224.44C997.64,-214.96 1074.37,-199.67 1125.52,-189.48"/>
<polygon fill="midnightblue" stroke="midnightblue" points="1126.27,-192.9 1135.39,-187.52 1124.9,-186.04 1126.27,-192.9"/>
</g>
<!-- Node28 -->
<g id="node28" class="node">
<title>Node28</title>
<g id="a_node28"><a xlink:href="resize_8h.html" target="_top" xlink:title=" ">
<polygon fill="white" stroke="black" points="1371.13,-168.5 1371.13,-187.5 1465.13,-187.5 1465.13,-168.5 1371.13,-168.5"/>
<text text-anchor="middle" x="1418.13" y="-175.5" font-family="FreeSans" font-size="10.00">magick/resize.h</text>
</a>
</g>
</g>
<!-- Node2&#45;&gt;Node28 -->
<g id="edge37" class="edge">
<title>Node2&#45;&gt;Node28</title>
<path fill="none" stroke="midnightblue" d="M954.73,-229.25C1035.87,-222.65 1206.41,-207.87 1360.95,-188.08"/>
<polygon fill="midnightblue" stroke="midnightblue" points="1361.64,-191.52 1371.11,-186.77 1360.74,-184.58 1361.64,-191.52"/>
</g>
<!-- Node29 -->
<g id="node29" class="node">
<title>Node29</title>
<g id="a_node29"><a xlink:href="timer_8h.html" target="_top" xlink:title=" ">
<polygon fill="white" stroke="black" points="1483.13,-168.5 1483.13,-187.5 1573.13,-187.5 1573.13,-168.5 1483.13,-168.5"/>
<text text-anchor="middle" x="1528.13" y="-175.5" font-family="FreeSans" font-size="10.00">magick/timer.h</text>
</a>
</g>
</g>
<!-- Node2&#45;&gt;Node29 -->
<g id="edge40" class="edge">
<title>Node2&#45;&gt;Node29</title>
<path fill="none" stroke="midnightblue" d="M954.68,-230.61C1050.68,-225.49 1274.67,-212.01 1473.07,-188.03"/>
<polygon fill="midnightblue" stroke="midnightblue" points="1473.59,-191.49 1483.09,-186.8 1472.74,-184.54 1473.59,-191.49"/>
</g>
<!-- Node3&#45;&gt;Node4 -->
<g id="edge3" class="edge">
<title>Node3&#45;&gt;Node4</title>
<path fill="none" stroke="midnightblue" d="M351.54,-116.4C366.35,-114.92 382.95,-113.32 398.13,-112 597.38,-94.61 834.52,-77.86 939.07,-70.67"/>
<polygon fill="midnightblue" stroke="midnightblue" points="939.32,-74.16 949.06,-69.98 938.85,-67.18 939.32,-74.16"/>
</g>
<!-- Node7 -->
<g id="node7" class="node">
<title>Node7</title>
<g id="a_node7"><a xlink:href="exception_8h.html" target="_top" xlink:title=" ">
<polygon fill="white" stroke="black" points="237.63,-56.5 237.63,-75.5 350.63,-75.5 350.63,-56.5 237.63,-56.5"/>
<text text-anchor="middle" x="294.13" y="-63.5" font-family="FreeSans" font-size="10.00">magick/exception.h</text>
</a>
</g>
</g>
<!-- Node3&#45;&gt;Node7 -->
<g id="edge6" class="edge">
<title>Node3&#45;&gt;Node7</title>
<path fill="none" stroke="midnightblue" d="M304.98,-112.08C303.26,-104.93 300.78,-94.64 298.63,-85.69"/>
<polygon fill="midnightblue" stroke="midnightblue" points="301.98,-84.65 296.24,-75.75 295.17,-86.29 301.98,-84.65"/>
</g>
<!-- Node4&#45;&gt;Node5 -->
<g id="edge4" class="edge">
<title>Node4&#45;&gt;Node5</title>
<path fill="none" stroke="midnightblue" d="M1037.19,-60.63C1131.84,-51.23 1355.19,-29.06 1468.55,-17.81"/>
<polygon fill="midnightblue" stroke="midnightblue" points="1468.91,-21.29 1478.51,-16.82 1468.22,-14.32 1468.91,-21.29"/>
</g>
<!-- Node6 -->
<g id="node6" class="node">
<title>Node6</title>
<g id="a_node6"><a xlink:href="constitute_8h.html" target="_top" xlink:title=" ">
<polygon fill="white" stroke="black" points="936.63,-0.5 936.63,-19.5 1049.63,-19.5 1049.63,-0.5 936.63,-0.5"/>
<text text-anchor="middle" x="993.13" y="-7.5" font-family="FreeSans" font-size="10.00">magick/constitute.h</text>
</a>
</g>
</g>
<!-- Node4&#45;&gt;Node6 -->
<g id="edge5" class="edge">
<title>Node4&#45;&gt;Node6</title>
<path fill="none" stroke="midnightblue" d="M993.13,-56.08C993.13,-49.01 993.13,-38.86 993.13,-29.99"/>
<polygon fill="midnightblue" stroke="midnightblue" points="996.63,-29.75 993.13,-19.75 989.63,-29.75 996.63,-29.75"/>
</g>
<!-- Node8 -->
<g id="node8" class="node">
<title>Node8</title>
<g id="a_node8"><a xlink:title=" ">
<polygon fill="white" stroke="#bfbfbf" points="76.13,-0.5 76.13,-19.5 132.13,-19.5 132.13,-0.5 76.13,-0.5"/>
<text text-anchor="middle" x="104.13" y="-7.5" font-family="FreeSans" font-size="10.00">stdarg.h</text>
</a>
</g>
</g>
<!-- Node7&#45;&gt;Node8 -->
<g id="edge7" class="edge">
<title>Node7&#45;&gt;Node8</title>
<path fill="none" stroke="midnightblue" d="M264.02,-56.44C230.93,-47.04 177.71,-31.91 141.86,-21.72"/>
<polygon fill="midnightblue" stroke="midnightblue" points="142.81,-18.36 132.24,-18.99 140.9,-25.09 142.81,-18.36"/>
</g>
<!-- Node7&#45;&gt;Node9 -->
<g id="edge8" class="edge">
<title>Node7&#45;&gt;Node9</title>
<path fill="none" stroke="midnightblue" d="M301.07,-56.08C307.06,-48.38 315.88,-37.03 323.18,-27.65"/>
<polygon fill="midnightblue" stroke="midnightblue" points="325.95,-29.79 329.32,-19.75 320.42,-25.5 325.95,-29.79"/>
</g>
<!-- Node10&#45;&gt;Node2 -->
<g id="edge10" class="edge">
<title>Node10&#45;&gt;Node2</title>
<path fill="none" stroke="midnightblue" d="M619.16,-185.28C678.12,-194.47 783.9,-211.68 849.59,-222.73"/>
<polygon fill="midnightblue" stroke="midnightblue" points="849.33,-226.23 859.77,-224.44 850.49,-219.33 849.33,-226.23"/>
</g>
<!-- Node10&#45;&gt;Node11 -->
<g id="edge11" class="edge">
<title>Node10&#45;&gt;Node11</title>
<path fill="none" stroke="midnightblue" d="M582.07,-168.08C587.11,-160.53 594.47,-149.49 600.64,-140.23"/>
<polygon fill="midnightblue" stroke="midnightblue" points="603.66,-142.01 606.3,-131.75 597.84,-138.13 603.66,-142.01"/>
</g>
<!-- Node12&#45;&gt;Node4 -->
<g id="edge14" class="edge">
<title>Node12&#45;&gt;Node4</title>
<path fill="none" stroke="midnightblue" d="M1029.86,-112.08C1023.58,-104.38 1014.34,-93.03 1006.7,-83.65"/>
<polygon fill="midnightblue" stroke="midnightblue" points="1009.29,-81.29 1000.26,-75.75 1003.86,-85.71 1009.29,-81.29"/>
</g>
<!-- Node16 -->
<g id="node16" class="node">
<title>Node16</title>
<g id="a_node16"><a xlink:href="morphology_8h.html" target="_top" xlink:title=" ">
<polygon fill="white" stroke="black" points="1755.13,-112.5 1755.13,-131.5 1877.13,-131.5 1877.13,-112.5 1755.13,-112.5"/>
<text text-anchor="middle" x="1816.13" y="-119.5" font-family="FreeSans" font-size="10.00">magick/morphology.h</text>
</a>
</g>
</g>
<!-- Node15&#45;&gt;Node16 -->
<g id="edge18" class="edge">
<title>Node15&#45;&gt;Node16</title>
<path fill="none" stroke="midnightblue" d="M1807.78,-168.08C1809.11,-160.93 1811.01,-150.64 1812.67,-141.69"/>
<polygon fill="midnightblue" stroke="midnightblue" points="1816.13,-142.22 1814.51,-131.75 1809.25,-140.95 1816.13,-142.22"/>
</g>
<!-- Node16&#45;&gt;Node17 -->
<g id="edge19" class="edge">
<title>Node16&#45;&gt;Node17</title>
<path fill="none" stroke="midnightblue" d="M1798.62,-112.32C1781.06,-103.62 1753.8,-90.12 1733.6,-80.11"/>
<polygon fill="midnightblue" stroke="midnightblue" points="1735.11,-76.96 1724.6,-75.65 1732.01,-83.23 1735.11,-76.96"/>
</g>
<!-- Node20 -->
<g id="node20" class="node">
<title>Node20</title>
<g id="a_node20"><a xlink:href="hashmap_8h.html" target="_top" xlink:title=" ">
<polygon fill="white" stroke="black" points="1627.13,-112.5 1627.13,-131.5 1737.13,-131.5 1737.13,-112.5 1627.13,-112.5"/>
<text text-anchor="middle" x="1682.13" y="-119.5" font-family="FreeSans" font-size="10.00">magick/hashmap.h</text>
</a>
</g>
</g>
<!-- Node19&#45;&gt;Node20 -->
<g id="edge23" class="edge">
<title>Node19&#45;&gt;Node20</title>
<path fill="none" stroke="midnightblue" d="M1681.29,-168.08C1681.43,-161.01 1681.61,-150.86 1681.78,-141.99"/>
<polygon fill="midnightblue" stroke="midnightblue" points="1685.28,-141.81 1681.97,-131.75 1678.28,-141.68 1685.28,-141.81"/>
</g>
<!-- Node23 -->
<g id="node23" class="node">
<title>Node23</title>
<g id="a_node23"><a xlink:href="string___8h.html" target="_top" xlink:title=" ">
<polygon fill="white" stroke="black" points="146.13,-112.5 146.13,-131.5 244.13,-131.5 244.13,-112.5 146.13,-112.5"/>
<text text-anchor="middle" x="195.13" y="-119.5" font-family="FreeSans" font-size="10.00">magick/string_.h</text>
</a>
</g>
</g>
<!-- Node22&#45;&gt;Node23 -->
<g id="edge27" class="edge">
<title>Node22&#45;&gt;Node23</title>
<path fill="none" stroke="midnightblue" d="M253.88,-168.32C243.33,-160.18 227.33,-147.84 214.69,-138.09"/>
<polygon fill="midnightblue" stroke="midnightblue" points="216.64,-135.17 206.58,-131.83 212.36,-140.71 216.64,-135.17"/>
</g>
<!-- Node23&#45;&gt;Node7 -->
<g id="edge30" class="edge">
<title>Node23&#45;&gt;Node7</title>
<path fill="none" stroke="midnightblue" d="M211.04,-112.32C226.77,-103.74 251.07,-90.49 269.34,-80.52"/>
<polygon fill="midnightblue" stroke="midnightblue" points="271.16,-83.52 278.26,-75.65 267.81,-77.37 271.16,-83.52"/>
</g>
<!-- Node23&#45;&gt;Node8 -->
<g id="edge28" class="edge">
<title>Node23&#45;&gt;Node8</title>
<path fill="none" stroke="midnightblue" d="M187.99,-112.37C172.84,-94.05 137.26,-51.05 117.67,-27.36"/>
<polygon fill="midnightblue" stroke="midnightblue" points="120.31,-25.07 111.24,-19.59 114.91,-29.53 120.31,-25.07"/>
</g>
<!-- Node24 -->
<g id="node24" class="node">
<title>Node24</title>
<g id="a_node24"><a xlink:title=" ">
<polygon fill="white" stroke="#bfbfbf" points="171.13,-56.5 171.13,-75.5 219.13,-75.5 219.13,-56.5 171.13,-56.5"/>
<text text-anchor="middle" x="195.13" y="-63.5" font-family="FreeSans" font-size="10.00">time.h</text>
</a>
</g>
</g>
<!-- Node23&#45;&gt;Node24 -->
<g id="edge29" class="edge">
<title>Node23&#45;&gt;Node24</title>
<path fill="none" stroke="midnightblue" d="M195.13,-112.08C195.13,-105.01 195.13,-94.86 195.13,-85.99"/>
<polygon fill="midnightblue" stroke="midnightblue" points="198.63,-85.75 195.13,-75.75 191.63,-85.75 198.63,-85.75"/>
</g>
<!-- Node25&#45;&gt;Node2 -->
<g id="edge33" class="edge">
<title>Node25&#45;&gt;Node2</title>
<path fill="none" stroke="midnightblue" d="M515.46,-185.62C521.45,-186.45 527.43,-187.26 533.13,-188 645.2,-202.59 776.01,-217.5 849.53,-225.97"/>
<polygon fill="midnightblue" stroke="midnightblue" points="849.18,-229.45 859.52,-227.12 849.98,-222.5 849.18,-229.45"/>
</g>
<!-- Node25&#45;&gt;Node9 -->
<g id="edge34" class="edge">
<title>Node25&#45;&gt;Node9</title>
<path fill="none" stroke="midnightblue" d="M463.77,-168.49C467.26,-155.56 472.03,-130.52 463.13,-112 442.89,-69.89 395.58,-39.95 364.76,-24.09"/>
<polygon fill="midnightblue" stroke="midnightblue" points="366.29,-20.94 355.77,-19.62 363.17,-27.21 366.29,-20.94"/>
</g>
<!-- Node26 -->
<g id="node26" class="node">
<title>Node26</title>
<g id="a_node26"><a xlink:title=" ">
<polygon fill="white" stroke="#bfbfbf" points="407.63,-112.5 407.63,-131.5 454.63,-131.5 454.63,-112.5 407.63,-112.5"/>
<text text-anchor="middle" x="431.13" y="-119.5" font-family="FreeSans" font-size="10.00">float.h</text>
</a>
</g>
</g>
<!-- Node25&#45;&gt;Node26 -->
<g id="edge32" class="edge">
<title>Node25&#45;&gt;Node26</title>
<path fill="none" stroke="midnightblue" d="M456.18,-168.08C452.03,-160.61 445.98,-149.72 440.86,-140.52"/>
<polygon fill="midnightblue" stroke="midnightblue" points="443.91,-138.79 435.99,-131.75 437.79,-142.19 443.91,-138.79"/>
</g>
<!-- Node27&#45;&gt;Node12 -->
<g id="edge36" class="edge">
<title>Node27&#45;&gt;Node12</title>
<path fill="none" stroke="midnightblue" d="M1155.79,-168.44C1132.38,-159.48 1095.39,-145.31 1068.94,-135.18"/>
<polygon fill="midnightblue" stroke="midnightblue" points="1069.96,-131.82 1059.37,-131.52 1067.45,-138.36 1069.96,-131.82"/>
</g>
<!-- Node30&#45;&gt;Node23 -->
<g id="edge49" class="edge">
<title>Node30&#45;&gt;Node23</title>
<path fill="none" stroke="midnightblue" d="M102.8,-168.32C120.52,-159.62 148.03,-146.12 168.42,-136.11"/>
<polygon fill="midnightblue" stroke="midnightblue" points="170.07,-139.2 177.5,-131.65 166.98,-132.92 170.07,-139.2"/>
</g>
<!-- Node31 -->
<g id="node31" class="node">
<title>Node31</title>
<g id="a_node31"><a xlink:href="log_8h.html" target="_top" xlink:title=" ">
<polygon fill="white" stroke="black" points="48.13,-112.5 48.13,-131.5 128.13,-131.5 128.13,-112.5 48.13,-112.5"/>
<text text-anchor="middle" x="88.13" y="-119.5" font-family="FreeSans" font-size="10.00">magick/log.h</text>
</a>
</g>
</g>
<!-- Node30&#45;&gt;Node31 -->
<g id="edge43" class="edge">
<title>Node30&#45;&gt;Node31</title>
<path fill="none" stroke="midnightblue" d="M85.62,-168.08C86.02,-161.01 86.58,-150.86 87.07,-141.99"/>
<polygon fill="midnightblue" stroke="midnightblue" points="90.58,-141.93 87.64,-131.75 83.59,-141.54 90.58,-141.93"/>
</g>
<!-- Node32 -->
<g id="node32" class="node">
<title>Node32</title>
<g id="a_node32"><a xlink:href="magick_8h.html" target="_top" xlink:title=" ">
<polygon fill="white" stroke="black" points="13.63,-56.5 13.63,-75.5 114.63,-75.5 114.63,-56.5 13.63,-56.5"/>
<text text-anchor="middle" x="64.13" y="-63.5" font-family="FreeSans" font-size="10.00">magick/magick.h</text>
</a>
</g>
</g>
<!-- Node30&#45;&gt;Node32 -->
<g id="edge46" class="edge">
<title>Node30&#45;&gt;Node32</title>
<path fill="none" stroke="midnightblue" d="M71.34,-168.19C60.3,-160.24 45.63,-147.45 39.13,-132 32.35,-115.88 41.21,-97.23 50.2,-84.05"/>
<polygon fill="midnightblue" stroke="midnightblue" points="53.1,-86.02 56.26,-75.9 47.48,-81.84 53.1,-86.02"/>
</g>
<!-- Node31&#45;&gt;Node7 -->
<g id="edge45" class="edge">
<title>Node31&#45;&gt;Node7</title>
<path fill="none" stroke="midnightblue" d="M120.77,-112.44C156.18,-103.16 212.84,-88.31 251.68,-78.13"/>
<polygon fill="midnightblue" stroke="midnightblue" points="252.86,-81.44 261.64,-75.52 251.08,-74.67 252.86,-81.44"/>
</g>
<!-- Node31&#45;&gt;Node8 -->
<g id="edge44" class="edge">
<title>Node31&#45;&gt;Node8</title>
<path fill="none" stroke="midnightblue" d="M59.21,-112.46C28.74,-101.88 -12.69,-82.01 4.13,-56 17.76,-34.93 43.86,-23.62 65.98,-17.62"/>
<polygon fill="midnightblue" stroke="midnightblue" points="66.92,-20.99 75.81,-15.21 65.26,-14.19 66.92,-20.99"/>
</g>
<!-- Node32&#45;&gt;Node8 -->
<g id="edge47" class="edge">
<title>Node32&#45;&gt;Node8</title>
<path fill="none" stroke="midnightblue" d="M70.73,-56.08C76.38,-48.46 84.67,-37.26 91.58,-27.94"/>
<polygon fill="midnightblue" stroke="midnightblue" points="94.51,-29.87 97.65,-19.75 88.88,-25.7 94.51,-29.87"/>
</g>
<!-- Node32&#45;&gt;Node9 -->
<g id="edge48" class="edge">
<title>Node32&#45;&gt;Node9</title>
<path fill="none" stroke="midnightblue" d="M107.23,-56.44C154.98,-46.96 231.99,-31.67 283.32,-21.48"/>
<polygon fill="midnightblue" stroke="midnightblue" points="284.11,-24.9 293.23,-19.52 282.74,-18.03 284.11,-24.9"/>
</g>
</g>
</svg>
