<?xml version="1.0" encoding="UTF-8" standalone="no"?>
<!DOCTYPE svg PUBLIC "-//W3C//DTD SVG 1.1//EN"
 "http://www.w3.org/Graphics/SVG/1.1/DTD/svg11.dtd">
<!-- Generated by graphviz version 2.43.0 (0)
 -->
<!-- Title: colormap.c Pages: 1 -->
<svg width="3694pt" height="308pt"
 viewBox="0.00 0.00 3693.59 308.00" xmlns="http://www.w3.org/2000/svg" xmlns:xlink="http://www.w3.org/1999/xlink">
<g id="graph0" class="graph" transform="scale(1 1) rotate(0) translate(4 304)">
<title>colormap.c</title>
<polygon fill="white" stroke="transparent" points="-4,4 -4,-304 3689.59,-304 3689.59,4 -4,4"/>
<!-- Node1 -->
<g id="node1" class="node">
<title>Node1</title>
<g id="a_node1"><a xlink:title=" ">
<polygon fill="#bfbfbf" stroke="black" points="2206.5,-280.5 2206.5,-299.5 2277.5,-299.5 2277.5,-280.5 2206.5,-280.5"/>
<text text-anchor="middle" x="2242" y="-287.5" font-family="FreeSans" font-size="10.00">colormap.c</text>
</a>
</g>
</g>
<!-- Node2 -->
<g id="node2" class="node">
<title>Node2</title>
<g id="a_node2"><a xlink:href="studio_8h.html" target="_top" xlink:title=" ">
<polygon fill="white" stroke="red" points="795.5,-168.5 795.5,-187.5 890.5,-187.5 890.5,-168.5 795.5,-168.5"/>
<text text-anchor="middle" x="843" y="-175.5" font-family="FreeSans" font-size="10.00">magick/studio.h</text>
</a>
</g>
</g>
<!-- Node1&#45;&gt;Node2 -->
<g id="edge1" class="edge">
<title>Node1&#45;&gt;Node2</title>
<path fill="none" stroke="midnightblue" d="M2206.23,-289.36C2071.65,-290.34 1583.03,-290.27 1184,-244 1077.17,-231.61 953.58,-204.91 888.5,-189.87"/>
<polygon fill="midnightblue" stroke="midnightblue" points="889.11,-186.42 878.57,-187.56 887.52,-193.23 889.11,-186.42"/>
</g>
<!-- Node24 -->
<g id="node21" class="node">
<title>Node24</title>
<g id="a_node21"><a xlink:href="attribute_8h.html" target="_top" xlink:title=" ">
<polygon fill="white" stroke="red" points="1492.5,-168.5 1492.5,-187.5 1599.5,-187.5 1599.5,-168.5 1492.5,-168.5"/>
<text text-anchor="middle" x="1546" y="-175.5" font-family="FreeSans" font-size="10.00">magick/attribute.h</text>
</a>
</g>
</g>
<!-- Node1&#45;&gt;Node24 -->
<g id="edge20" class="edge">
<title>Node1&#45;&gt;Node24</title>
<path fill="none" stroke="midnightblue" d="M2206.26,-288.69C2093.75,-287.35 1748.1,-280.31 1643,-244 1612.04,-233.3 1581.53,-210.22 1563.22,-194.64"/>
<polygon fill="midnightblue" stroke="midnightblue" points="1565.1,-191.64 1555.27,-187.69 1560.49,-196.91 1565.1,-191.64"/>
</g>
<!-- Node30 -->
<g id="node22" class="node">
<title>Node30</title>
<g id="a_node22"><a xlink:href="exception_8h.html" target="_top" xlink:title=" ">
<polygon fill="white" stroke="black" points="1605.5,-56.5 1605.5,-75.5 1718.5,-75.5 1718.5,-56.5 1605.5,-56.5"/>
<text text-anchor="middle" x="1662" y="-63.5" font-family="FreeSans" font-size="10.00">magick/exception.h</text>
</a>
</g>
</g>
<!-- Node1&#45;&gt;Node30 -->
<g id="edge47" class="edge">
<title>Node1&#45;&gt;Node30</title>
<path fill="none" stroke="midnightblue" d="M2206.46,-284.42C2173.46,-278.9 2124,-267.28 2087,-244 2048.64,-219.86 2057.44,-192.01 2019,-168 1927.95,-111.13 1804.15,-85.5 1728.82,-74.54"/>
<polygon fill="midnightblue" stroke="midnightblue" points="1728.91,-71.02 1718.52,-73.09 1727.94,-77.95 1728.91,-71.02"/>
</g>
<!-- Node31 -->
<g id="node23" class="node">
<title>Node31</title>
<g id="a_node23"><a xlink:href="semaphore_8h.html" target="_top" xlink:title=" ">
<polygon fill="white" stroke="black" points="3371.5,-0.5 3371.5,-19.5 3490.5,-19.5 3490.5,-0.5 3371.5,-0.5"/>
<text text-anchor="middle" x="3431" y="-7.5" font-family="FreeSans" font-size="10.00">magick/semaphore.h</text>
</a>
</g>
</g>
<!-- Node1&#45;&gt;Node31 -->
<g id="edge67" class="edge">
<title>Node1&#45;&gt;Node31</title>
<path fill="none" stroke="midnightblue" d="M2277.59,-289.28C2458.91,-290.49 3275.35,-293.13 3376,-244 3410.01,-227.4 3431,-216.84 3431,-179 3431,-179 3431,-179 3431,-121 3431,-88.95 3431,-51.64 3431,-29.75"/>
<polygon fill="midnightblue" stroke="midnightblue" points="3434.5,-29.56 3431,-19.56 3427.5,-29.56 3434.5,-29.56"/>
</g>
<!-- Node32 -->
<g id="node24" class="node">
<title>Node32</title>
<g id="a_node24"><a xlink:href="blob_8h.html" target="_top" xlink:title=" ">
<polygon fill="white" stroke="red" points="3296,-112.5 3296,-131.5 3382,-131.5 3382,-112.5 3296,-112.5"/>
<text text-anchor="middle" x="3339" y="-119.5" font-family="FreeSans" font-size="10.00">magick/blob.h</text>
</a>
</g>
</g>
<!-- Node1&#45;&gt;Node32 -->
<g id="edge24" class="edge">
<title>Node1&#45;&gt;Node32</title>
<path fill="none" stroke="midnightblue" d="M2277.67,-288.66C2462.92,-286.74 3308.45,-276.23 3353,-244 3381.39,-223.46 3385.37,-201.15 3374,-168 3370.28,-157.16 3362.77,-146.92 3355.65,-138.96"/>
<polygon fill="midnightblue" stroke="midnightblue" points="3358,-136.35 3348.56,-131.55 3352.95,-141.19 3358,-136.35"/>
</g>
<!-- Node34 -->
<g id="node25" class="node">
<title>Node34</title>
<g id="a_node25"><a xlink:href="cache-view_8h.html" target="_top" xlink:title=" ">
<polygon fill="white" stroke="red" points="1448.5,-224.5 1448.5,-243.5 1567.5,-243.5 1567.5,-224.5 1448.5,-224.5"/>
<text text-anchor="middle" x="1508" y="-231.5" font-family="FreeSans" font-size="10.00">magick/cache&#45;view.h</text>
</a>
</g>
</g>
<!-- Node1&#45;&gt;Node34 -->
<g id="edge25" class="edge">
<title>Node1&#45;&gt;Node34</title>
<path fill="none" stroke="midnightblue" d="M2206.17,-287.23C2106.89,-282.16 1819.82,-266.55 1582,-244 1580.7,-243.88 1579.38,-243.75 1578.05,-243.62"/>
<polygon fill="midnightblue" stroke="midnightblue" points="1578.05,-240.1 1567.74,-242.54 1577.33,-247.06 1578.05,-240.1"/>
</g>
<!-- Node51 -->
<g id="node26" class="node">
<title>Node51</title>
<g id="a_node26"><a xlink:href="cache_8h.html" target="_top" xlink:title=" ">
<polygon fill="white" stroke="black" points="3271.5,-168.5 3271.5,-187.5 3364.5,-187.5 3364.5,-168.5 3271.5,-168.5"/>
<text text-anchor="middle" x="3318" y="-175.5" font-family="FreeSans" font-size="10.00">magick/cache.h</text>
</a>
</g>
</g>
<!-- Node1&#45;&gt;Node51 -->
<g id="edge26" class="edge">
<title>Node1&#45;&gt;Node51</title>
<path fill="none" stroke="midnightblue" d="M2277.66,-288.9C2461.86,-288.23 3298.53,-283.04 3336,-244 3348.24,-231.25 3339.79,-210.94 3330.79,-196.41"/>
<polygon fill="midnightblue" stroke="midnightblue" points="3333.5,-194.18 3325.01,-187.84 3327.7,-198.09 3333.5,-194.18"/>
</g>
<!-- Node26 -->
<g id="node27" class="node">
<title>Node26</title>
<g id="a_node27"><a xlink:href="color_8h.html" target="_top" xlink:title=" ">
<polygon fill="white" stroke="red" points="1618,-168.5 1618,-187.5 1706,-187.5 1706,-168.5 1618,-168.5"/>
<text text-anchor="middle" x="1662" y="-175.5" font-family="FreeSans" font-size="10.00">magick/color.h</text>
</a>
</g>
</g>
<!-- Node1&#45;&gt;Node26 -->
<g id="edge28" class="edge">
<title>Node1&#45;&gt;Node26</title>
<path fill="none" stroke="midnightblue" d="M2206.11,-289.02C2084.08,-288.73 1690.64,-284.62 1653,-244 1641.54,-231.63 1646.34,-211.82 1652.44,-197.32"/>
<polygon fill="midnightblue" stroke="midnightblue" points="1655.79,-198.42 1656.88,-187.88 1649.45,-195.44 1655.79,-198.42"/>
</g>
<!-- Node52 -->
<g id="node28" class="node">
<title>Node52</title>
<g id="a_node28"><a xlink:href="color-private_8h.html" target="_top" xlink:title=" ">
<polygon fill="white" stroke="red" points="1806.5,-224.5 1806.5,-243.5 1933.5,-243.5 1933.5,-224.5 1806.5,-224.5"/>
<text text-anchor="middle" x="1870" y="-231.5" font-family="FreeSans" font-size="10.00">magick/color&#45;private.h</text>
</a>
</g>
</g>
<!-- Node1&#45;&gt;Node52 -->
<g id="edge30" class="edge">
<title>Node1&#45;&gt;Node52</title>
<path fill="none" stroke="midnightblue" d="M2206.33,-283.82C2144.9,-274.9 2018.1,-256.5 1938.95,-245.01"/>
<polygon fill="midnightblue" stroke="midnightblue" points="1938.99,-241.48 1928.59,-243.5 1937.98,-248.41 1938.99,-241.48"/>
</g>
<!-- Node53 -->
<g id="node29" class="node">
<title>Node53</title>
<g id="a_node29"><a xlink:href="image-private_8h.html" target="_top" xlink:title=" ">
<polygon fill="white" stroke="black" points="1876,-168.5 1876,-187.5 2010,-187.5 2010,-168.5 1876,-168.5"/>
<text text-anchor="middle" x="1943" y="-175.5" font-family="FreeSans" font-size="10.00">magick/image&#45;private.h</text>
</a>
</g>
</g>
<!-- Node1&#45;&gt;Node53 -->
<g id="edge51" class="edge">
<title>Node1&#45;&gt;Node53</title>
<path fill="none" stroke="midnightblue" d="M2206.41,-286.79C2161.88,-282.89 2084.14,-272.31 2024,-244 1998.16,-231.84 1973.29,-209.84 1958.08,-194.84"/>
<polygon fill="midnightblue" stroke="midnightblue" points="1960.57,-192.38 1951.05,-187.72 1955.58,-197.29 1960.57,-192.38"/>
</g>
<!-- Node61 -->
<g id="node30" class="node">
<title>Node61</title>
<g id="a_node30"><a xlink:href="exception-private_8h.html" target="_top" xlink:title=" ">
<polygon fill="white" stroke="red" points="1307.5,-168.5 1307.5,-187.5 1458.5,-187.5 1458.5,-168.5 1307.5,-168.5"/>
<text text-anchor="middle" x="1383" y="-175.5" font-family="FreeSans" font-size="10.00">magick/exception&#45;private.h</text>
</a>
</g>
</g>
<!-- Node1&#45;&gt;Node61 -->
<g id="edge48" class="edge">
<title>Node1&#45;&gt;Node61</title>
<path fill="none" stroke="midnightblue" d="M2206.23,-288.71C2034.88,-287.14 1304.87,-278.43 1272,-244 1248.4,-219.28 1292.68,-200.89 1332.12,-190.09"/>
<polygon fill="midnightblue" stroke="midnightblue" points="1333.21,-193.42 1342,-187.51 1331.44,-186.65 1333.21,-193.42"/>
</g>
<!-- Node45 -->
<g id="node31" class="node">
<title>Node45</title>
<g id="a_node31"><a xlink:href="string___8h.html" target="_top" xlink:title=" ">
<polygon fill="white" stroke="black" points="1352,-112.5 1352,-131.5 1450,-131.5 1450,-112.5 1352,-112.5"/>
<text text-anchor="middle" x="1401" y="-119.5" font-family="FreeSans" font-size="10.00">magick/string_.h</text>
</a>
</g>
</g>
<!-- Node1&#45;&gt;Node45 -->
<g id="edge69" class="edge">
<title>Node1&#45;&gt;Node45</title>
<path fill="none" stroke="midnightblue" d="M2206.43,-288.73C2034.38,-287.24 1295.25,-278.81 1262,-244 1238.25,-219.14 1271.76,-190.35 1298,-168 1315.74,-152.88 1339.35,-142.07 1359.49,-134.85"/>
<polygon fill="midnightblue" stroke="midnightblue" points="1360.73,-138.12 1369.06,-131.58 1358.47,-131.5 1360.73,-138.12"/>
</g>
<!-- Node55 -->
<g id="node32" class="node">
<title>Node55</title>
<g id="a_node32"><a xlink:href="pixel-accessor_8h.html" target="_top" xlink:title=" ">
<polygon fill="white" stroke="red" points="1724,-168.5 1724,-187.5 1858,-187.5 1858,-168.5 1724,-168.5"/>
<text text-anchor="middle" x="1791" y="-175.5" font-family="FreeSans" font-size="10.00">magick/pixel&#45;accessor.h</text>
</a>
</g>
</g>
<!-- Node1&#45;&gt;Node55 -->
<g id="edge58" class="edge">
<title>Node1&#45;&gt;Node55</title>
<path fill="none" stroke="midnightblue" d="M2206.21,-285.22C2156.66,-279.41 2064.69,-266.52 1989,-244 1967.24,-237.53 1963.36,-231.7 1942,-224 1905.82,-210.96 1863.83,-198.67 1833.33,-190.24"/>
<polygon fill="midnightblue" stroke="midnightblue" points="1834.02,-186.8 1823.45,-187.53 1832.17,-193.55 1834.02,-186.8"/>
</g>
<!-- Node56 -->
<g id="node33" class="node">
<title>Node56</title>
<g id="a_node33"><a xlink:href="gem_8h.html" target="_top" xlink:title=" ">
<polygon fill="white" stroke="red" points="2174,-112.5 2174,-131.5 2260,-131.5 2260,-112.5 2174,-112.5"/>
<text text-anchor="middle" x="2217" y="-119.5" font-family="FreeSans" font-size="10.00">magick/gem.h</text>
</a>
</g>
</g>
<!-- Node1&#45;&gt;Node56 -->
<g id="edge49" class="edge">
<title>Node1&#45;&gt;Node56</title>
<path fill="none" stroke="midnightblue" d="M2240.66,-280.08C2236.72,-253.95 2225.16,-177.21 2219.8,-141.58"/>
<polygon fill="midnightblue" stroke="midnightblue" points="2223.24,-140.94 2218.29,-131.57 2216.32,-141.98 2223.24,-140.94"/>
</g>
<!-- Node64 -->
<g id="node34" class="node">
<title>Node64</title>
<g id="a_node34"><a xlink:href="colormap_8h.html" target="_top" xlink:title=" ">
<polygon fill="white" stroke="black" points="2104,-224.5 2104,-243.5 2214,-243.5 2214,-224.5 2104,-224.5"/>
<text text-anchor="middle" x="2159" y="-231.5" font-family="FreeSans" font-size="10.00">magick/colormap.h</text>
</a>
</g>
</g>
<!-- Node1&#45;&gt;Node64 -->
<g id="edge41" class="edge">
<title>Node1&#45;&gt;Node64</title>
<path fill="none" stroke="midnightblue" d="M2228.66,-280.32C2215.84,-271.98 2196.22,-259.21 2181.06,-249.35"/>
<polygon fill="midnightblue" stroke="midnightblue" points="2182.59,-246.17 2172.3,-243.65 2178.78,-252.04 2182.59,-246.17"/>
</g>
<!-- Node65 -->
<g id="node35" class="node">
<title>Node65</title>
<g id="a_node35"><a xlink:href="colormap-private_8h.html" target="_top" xlink:title=" ">
<polygon fill="white" stroke="red" points="1281.5,-224.5 1281.5,-243.5 1430.5,-243.5 1430.5,-224.5 1281.5,-224.5"/>
<text text-anchor="middle" x="1356" y="-231.5" font-family="FreeSans" font-size="10.00">magick/colormap&#45;private.h</text>
</a>
</g>
</g>
<!-- Node1&#45;&gt;Node65 -->
<g id="edge42" class="edge">
<title>Node1&#45;&gt;Node65</title>
<path fill="none" stroke="midnightblue" d="M2206.34,-287.66C2094.9,-283.35 1743.08,-268.67 1440.92,-244.12"/>
<polygon fill="midnightblue" stroke="midnightblue" points="1440.89,-240.61 1430.64,-243.28 1440.32,-247.58 1440.89,-240.61"/>
</g>
<!-- Node66 -->
<g id="node36" class="node">
<title>Node66</title>
<g id="a_node36"><a xlink:href="client_8h.html" target="_top" xlink:title=" ">
<polygon fill="white" stroke="black" points="2270,-224.5 2270,-243.5 2362,-243.5 2362,-224.5 2270,-224.5"/>
<text text-anchor="middle" x="2316" y="-231.5" font-family="FreeSans" font-size="10.00">magick/client.h</text>
</a>
</g>
</g>
<!-- Node1&#45;&gt;Node66 -->
<g id="edge45" class="edge">
<title>Node1&#45;&gt;Node66</title>
<path fill="none" stroke="midnightblue" d="M2253.89,-280.32C2265.15,-272.11 2282.29,-259.6 2295.71,-249.81"/>
<polygon fill="midnightblue" stroke="midnightblue" points="2297.88,-252.56 2303.89,-243.83 2293.75,-246.9 2297.88,-252.56"/>
</g>
<!-- Node67 -->
<g id="node37" class="node">
<title>Node67</title>
<g id="a_node37"><a xlink:href="configure_8h.html" target="_top" xlink:title=" ">
<polygon fill="white" stroke="red" points="2380,-224.5 2380,-243.5 2490,-243.5 2490,-224.5 2380,-224.5"/>
<text text-anchor="middle" x="2435" y="-231.5" font-family="FreeSans" font-size="10.00">magick/configure.h</text>
</a>
</g>
</g>
<!-- Node1&#45;&gt;Node67 -->
<g id="edge46" class="edge">
<title>Node1&#45;&gt;Node67</title>
<path fill="none" stroke="midnightblue" d="M2272.58,-280.44C2305.61,-271.2 2358.39,-256.44 2394.77,-246.26"/>
<polygon fill="midnightblue" stroke="midnightblue" points="2395.87,-249.58 2404.56,-243.52 2393.99,-242.84 2395.87,-249.58"/>
</g>
<!-- Node39 -->
<g id="node38" class="node">
<title>Node39</title>
<g id="a_node38"><a xlink:href="geometry_8h.html" target="_top" xlink:title=" ">
<polygon fill="white" stroke="black" points="2508,-224.5 2508,-243.5 2618,-243.5 2618,-224.5 2508,-224.5"/>
<text text-anchor="middle" x="2563" y="-231.5" font-family="FreeSans" font-size="10.00">magick/geometry.h</text>
</a>
</g>
</g>
<!-- Node1&#45;&gt;Node39 -->
<g id="edge50" class="edge">
<title>Node1&#45;&gt;Node39</title>
<path fill="none" stroke="midnightblue" d="M2277.58,-283.01C2331.84,-273.89 2435.97,-256.37 2502.33,-245.21"/>
<polygon fill="midnightblue" stroke="midnightblue" points="2502.96,-248.65 2512.24,-243.54 2501.8,-241.75 2502.96,-248.65"/>
</g>
<!-- Node68 -->
<g id="node39" class="node">
<title>Node68</title>
<g id="a_node39"><a xlink:href="memory___8h.html" target="_top" xlink:title=" ">
<polygon fill="white" stroke="black" points="1122.5,-168.5 1122.5,-187.5 1233.5,-187.5 1233.5,-168.5 1122.5,-168.5"/>
<text text-anchor="middle" x="1178" y="-175.5" font-family="FreeSans" font-size="10.00">magick/memory_.h</text>
</a>
</g>
</g>
<!-- Node1&#45;&gt;Node68 -->
<g id="edge52" class="edge">
<title>Node1&#45;&gt;Node68</title>
<path fill="none" stroke="midnightblue" d="M2206.29,-288.56C2028.24,-286.22 1243.41,-274.2 1202,-244 1187.44,-233.38 1181.7,-212.93 1179.45,-197.79"/>
<polygon fill="midnightblue" stroke="midnightblue" points="1182.89,-197.06 1178.31,-187.5 1175.93,-197.82 1182.89,-197.06"/>
</g>
<!-- Node43 -->
<g id="node40" class="node">
<title>Node43</title>
<g id="a_node40"><a xlink:href="monitor_8h.html" target="_top" xlink:title=" ">
<polygon fill="white" stroke="black" points="2674,-224.5 2674,-243.5 2776,-243.5 2776,-224.5 2674,-224.5"/>
<text text-anchor="middle" x="2725" y="-231.5" font-family="FreeSans" font-size="10.00">magick/monitor.h</text>
</a>
</g>
</g>
<!-- Node1&#45;&gt;Node43 -->
<g id="edge55" class="edge">
<title>Node1&#45;&gt;Node43</title>
<path fill="none" stroke="midnightblue" d="M2277.55,-285.54C2349.72,-278.44 2518.56,-261.4 2660,-244 2661.27,-243.84 2662.56,-243.68 2663.85,-243.52"/>
<polygon fill="midnightblue" stroke="midnightblue" points="2664.45,-246.97 2673.92,-242.22 2663.56,-240.03 2664.45,-246.97"/>
</g>
<!-- Node69 -->
<g id="node41" class="node">
<title>Node69</title>
<g id="a_node41"><a xlink:href="monitor-private_8h.html" target="_top" xlink:title=" ">
<polygon fill="white" stroke="black" points="2794.5,-224.5 2794.5,-243.5 2935.5,-243.5 2935.5,-224.5 2794.5,-224.5"/>
<text text-anchor="middle" x="2865" y="-231.5" font-family="FreeSans" font-size="10.00">magick/monitor&#45;private.h</text>
</a>
</g>
</g>
<!-- Node1&#45;&gt;Node69 -->
<g id="edge56" class="edge">
<title>Node1&#45;&gt;Node69</title>
<path fill="none" stroke="midnightblue" d="M2277.61,-286.41C2362.99,-280.13 2586.3,-263.24 2784.33,-244.04"/>
<polygon fill="midnightblue" stroke="midnightblue" points="2784.73,-247.52 2794.34,-243.06 2784.05,-240.55 2784.73,-247.52"/>
</g>
<!-- Node70 -->
<g id="node42" class="node">
<title>Node70</title>
<g id="a_node42"><a xlink:href="option_8h.html" target="_top" xlink:title=" ">
<polygon fill="white" stroke="black" points="2953.5,-224.5 2953.5,-243.5 3048.5,-243.5 3048.5,-224.5 2953.5,-224.5"/>
<text text-anchor="middle" x="3001" y="-231.5" font-family="FreeSans" font-size="10.00">magick/option.h</text>
</a>
</g>
</g>
<!-- Node1&#45;&gt;Node70 -->
<g id="edge57" class="edge">
<title>Node1&#45;&gt;Node70</title>
<path fill="none" stroke="midnightblue" d="M2277.58,-287.92C2379.64,-284.58 2682.26,-272.88 2943.33,-244.09"/>
<polygon fill="midnightblue" stroke="midnightblue" points="2943.83,-247.55 2953.38,-242.97 2943.06,-240.6 2943.83,-247.55"/>
</g>
<!-- Node71 -->
<g id="node43" class="node">
<title>Node71</title>
<g id="a_node43"><a xlink:href="pixel-private_8h.html" target="_top" xlink:title=" ">
<polygon fill="white" stroke="red" points="1662,-224.5 1662,-243.5 1788,-243.5 1788,-224.5 1662,-224.5"/>
<text text-anchor="middle" x="1725" y="-231.5" font-family="FreeSans" font-size="10.00">magick/pixel&#45;private.h</text>
</a>
</g>
</g>
<!-- Node1&#45;&gt;Node71 -->
<g id="edge59" class="edge">
<title>Node1&#45;&gt;Node71</title>
<path fill="none" stroke="midnightblue" d="M2206.49,-285.7C2132.67,-278.76 1956.96,-261.95 1798.61,-244.16"/>
<polygon fill="midnightblue" stroke="midnightblue" points="1798.54,-240.63 1788.21,-242.99 1797.75,-247.58 1798.54,-240.63"/>
</g>
<!-- Node73 -->
<g id="node44" class="node">
<title>Node73</title>
<g id="a_node44"><a xlink:href="quantize_8h.html" target="_top" xlink:title=" ">
<polygon fill="white" stroke="red" points="3219.5,-224.5 3219.5,-243.5 3326.5,-243.5 3326.5,-224.5 3219.5,-224.5"/>
<text text-anchor="middle" x="3273" y="-231.5" font-family="FreeSans" font-size="10.00">magick/quantize.h</text>
</a>
</g>
</g>
<!-- Node1&#45;&gt;Node73 -->
<g id="edge64" class="edge">
<title>Node1&#45;&gt;Node73</title>
<path fill="none" stroke="midnightblue" d="M2277.69,-288.57C2403.6,-286.79 2839,-278.44 3209.31,-243.96"/>
<polygon fill="midnightblue" stroke="midnightblue" points="3209.8,-247.43 3219.43,-243.01 3209.14,-240.46 3209.8,-247.43"/>
</g>
<!-- Node46 -->
<g id="node45" class="node">
<title>Node46</title>
<g id="a_node45"><a xlink:href="quantum_8h.html" target="_top" xlink:title=" ">
<polygon fill="white" stroke="red" points="3547,-56.5 3547,-75.5 3655,-75.5 3655,-56.5 3547,-56.5"/>
<text text-anchor="middle" x="3601" y="-63.5" font-family="FreeSans" font-size="10.00">magick/quantum.h</text>
</a>
</g>
</g>
<!-- Node1&#45;&gt;Node46 -->
<g id="edge65" class="edge">
<title>Node1&#45;&gt;Node46</title>
<path fill="none" stroke="midnightblue" d="M2277.69,-288.56C2496.23,-285.75 3645.01,-269.79 3670,-244 3715.47,-197.07 3649.24,-116.77 3616.96,-82.86"/>
<polygon fill="midnightblue" stroke="midnightblue" points="3619.41,-80.36 3609.93,-75.64 3614.4,-85.24 3619.41,-80.36"/>
</g>
<!-- Node74 -->
<g id="node46" class="node">
<title>Node74</title>
<g id="a_node46"><a xlink:href="resource___8h.html" target="_top" xlink:title=" ">
<polygon fill="white" stroke="black" points="2834,-168.5 2834,-187.5 2946,-187.5 2946,-168.5 2834,-168.5"/>
<text text-anchor="middle" x="2890" y="-175.5" font-family="FreeSans" font-size="10.00">magick/resource_.h</text>
</a>
</g>
</g>
<!-- Node1&#45;&gt;Node74 -->
<g id="edge68" class="edge">
<title>Node1&#45;&gt;Node74</title>
<path fill="none" stroke="midnightblue" d="M2277.66,-289.15C2346.71,-288.51 2502.78,-282.48 2627,-244 2645.23,-238.35 2647.01,-230.38 2665,-224 2716.83,-205.61 2778.2,-193.97 2823.74,-187.14"/>
<polygon fill="midnightblue" stroke="midnightblue" points="2824.4,-190.58 2833.79,-185.68 2823.39,-183.66 2824.4,-190.58"/>
</g>
<!-- Node75 -->
<g id="node47" class="node">
<title>Node75</title>
<g id="a_node47"><a xlink:href="thread-private_8h.html" target="_top" xlink:title=" ">
<polygon fill="white" stroke="red" points="3067,-224.5 3067,-243.5 3201,-243.5 3201,-224.5 3067,-224.5"/>
<text text-anchor="middle" x="3134" y="-231.5" font-family="FreeSans" font-size="10.00">magick/thread&#45;private.h</text>
</a>
</g>
</g>
<!-- Node1&#45;&gt;Node75 -->
<g id="edge70" class="edge">
<title>Node1&#45;&gt;Node75</title>
<path fill="none" stroke="midnightblue" d="M2277.85,-287.83C2390.73,-283.96 2749.11,-270.4 3056.88,-244.04"/>
<polygon fill="midnightblue" stroke="midnightblue" points="3057.22,-247.53 3066.89,-243.18 3056.62,-240.55 3057.22,-247.53"/>
</g>
<!-- Node77 -->
<g id="node48" class="node">
<title>Node77</title>
<g id="a_node48"><a xlink:href="token_8h.html" target="_top" xlink:title=" ">
<polygon fill="white" stroke="black" points="3459,-224.5 3459,-243.5 3551,-243.5 3551,-224.5 3459,-224.5"/>
<text text-anchor="middle" x="3505" y="-231.5" font-family="FreeSans" font-size="10.00">magick/token.h</text>
</a>
</g>
</g>
<!-- Node1&#45;&gt;Node77 -->
<g id="edge74" class="edge">
<title>Node1&#45;&gt;Node77</title>
<path fill="none" stroke="midnightblue" d="M2277.52,-289.12C2422.71,-289.28 2985.11,-286.96 3445,-244 3446.27,-243.88 3447.55,-243.75 3448.84,-243.62"/>
<polygon fill="midnightblue" stroke="midnightblue" points="3449.35,-247.08 3458.88,-242.45 3448.54,-240.13 3449.35,-247.08"/>
</g>
<!-- Node78 -->
<g id="node49" class="node">
<title>Node78</title>
<g id="a_node49"><a xlink:href="utility_8h.html" target="_top" xlink:title=" ">
<polygon fill="white" stroke="black" points="3569,-224.5 3569,-243.5 3661,-243.5 3661,-224.5 3569,-224.5"/>
<text text-anchor="middle" x="3615" y="-231.5" font-family="FreeSans" font-size="10.00">magick/utility.h</text>
</a>
</g>
</g>
<!-- Node1&#45;&gt;Node78 -->
<g id="edge75" class="edge">
<title>Node1&#45;&gt;Node78</title>
<path fill="none" stroke="midnightblue" d="M2277.73,-288.4C2459.18,-285.26 3280.42,-269.91 3558.77,-243.96"/>
<polygon fill="midnightblue" stroke="midnightblue" points="3559.22,-247.43 3568.84,-242.99 3558.55,-240.46 3559.22,-247.43"/>
</g>
<!-- Node79 -->
<g id="node50" class="node">
<title>Node79</title>
<g id="a_node50"><a xlink:href="xml-tree_8h.html" target="_top" xlink:title=" ">
<polygon fill="white" stroke="red" points="2066.5,-168.5 2066.5,-187.5 2173.5,-187.5 2173.5,-168.5 2066.5,-168.5"/>
<text text-anchor="middle" x="2120" y="-175.5" font-family="FreeSans" font-size="10.00">magick/xml&#45;tree.h</text>
</a>
</g>
</g>
<!-- Node1&#45;&gt;Node79 -->
<g id="edge76" class="edge">
<title>Node1&#45;&gt;Node79</title>
<path fill="none" stroke="midnightblue" d="M2206.2,-289.25C2171.47,-287.33 2120.4,-278.33 2095,-244 2084.16,-229.35 2094.75,-209.42 2105.29,-195.5"/>
<polygon fill="midnightblue" stroke="midnightblue" points="2108.04,-197.68 2111.66,-187.72 2102.62,-193.25 2108.04,-197.68"/>
</g>
<!-- Node3 -->
<g id="node3" class="node">
<title>Node3</title>
<g id="a_node3"><a xlink:href="magick-config_8h.html" target="_top" xlink:title=" ">
<polygon fill="white" stroke="red" points="558,-112.5 558,-131.5 692,-131.5 692,-112.5 558,-112.5"/>
<text text-anchor="middle" x="625" y="-119.5" font-family="FreeSans" font-size="10.00">magick/magick&#45;config.h</text>
</a>
</g>
</g>
<!-- Node2&#45;&gt;Node3 -->
<g id="edge2" class="edge">
<title>Node2&#45;&gt;Node3</title>
<path fill="none" stroke="midnightblue" d="M808.46,-168.44C770.75,-159.1 710.26,-144.12 669.14,-133.93"/>
<polygon fill="midnightblue" stroke="midnightblue" points="669.93,-130.52 659.38,-131.52 668.25,-137.32 669.93,-130.52"/>
</g>
<!-- Node5 -->
<g id="node4" class="node">
<title>Node5</title>
<g id="a_node4"><a xlink:title=" ">
<polygon fill="white" stroke="#bfbfbf" points="1373,-0.5 1373,-19.5 1429,-19.5 1429,-0.5 1373,-0.5"/>
<text text-anchor="middle" x="1401" y="-7.5" font-family="FreeSans" font-size="10.00">stdarg.h</text>
</a>
</g>
</g>
<!-- Node2&#45;&gt;Node5 -->
<g id="edge3" class="edge">
<title>Node2&#45;&gt;Node5</title>
<path fill="none" stroke="midnightblue" d="M804.94,-168.49C766.54,-158.18 715.97,-138.81 739,-112 820.61,-17 1233.72,-10.37 1362.56,-10.65"/>
<polygon fill="midnightblue" stroke="midnightblue" points="1362.73,-14.15 1372.74,-10.69 1362.76,-7.15 1362.73,-14.15"/>
</g>
<!-- Node6 -->
<g id="node5" class="node">
<title>Node6</title>
<g id="a_node5"><a xlink:title=" ">
<polygon fill="white" stroke="#bfbfbf" points="748,-112.5 748,-131.5 798,-131.5 798,-112.5 748,-112.5"/>
<text text-anchor="middle" x="773" y="-119.5" font-family="FreeSans" font-size="10.00">stdio.h</text>
</a>
</g>
</g>
<!-- Node2&#45;&gt;Node6 -->
<g id="edge4" class="edge">
<title>Node2&#45;&gt;Node6</title>
<path fill="none" stroke="midnightblue" d="M831.75,-168.32C821.2,-160.18 805.2,-147.84 792.56,-138.09"/>
<polygon fill="midnightblue" stroke="midnightblue" points="794.51,-135.17 784.45,-131.83 790.23,-140.71 794.51,-135.17"/>
</g>
<!-- Node7 -->
<g id="node6" class="node">
<title>Node7</title>
<g id="a_node6"><a xlink:title=" ">
<polygon fill="white" stroke="#bfbfbf" points="816.5,-112.5 816.5,-131.5 869.5,-131.5 869.5,-112.5 816.5,-112.5"/>
<text text-anchor="middle" x="843" y="-119.5" font-family="FreeSans" font-size="10.00">ctype.h</text>
</a>
</g>
</g>
<!-- Node2&#45;&gt;Node7 -->
<g id="edge5" class="edge">
<title>Node2&#45;&gt;Node7</title>
<path fill="none" stroke="midnightblue" d="M843,-168.08C843,-161.01 843,-150.86 843,-141.99"/>
<polygon fill="midnightblue" stroke="midnightblue" points="846.5,-141.75 843,-131.75 839.5,-141.75 846.5,-141.75"/>
</g>
<!-- Node8 -->
<g id="node7" class="node">
<title>Node8</title>
<g id="a_node7"><a xlink:title=" ">
<polygon fill="white" stroke="#bfbfbf" points="887.5,-112.5 887.5,-131.5 942.5,-131.5 942.5,-112.5 887.5,-112.5"/>
<text text-anchor="middle" x="915" y="-119.5" font-family="FreeSans" font-size="10.00">locale.h</text>
</a>
</g>
</g>
<!-- Node2&#45;&gt;Node8 -->
<g id="edge6" class="edge">
<title>Node2&#45;&gt;Node8</title>
<path fill="none" stroke="midnightblue" d="M854.57,-168.32C865.42,-160.18 881.88,-147.84 894.88,-138.09"/>
<polygon fill="midnightblue" stroke="midnightblue" points="897.32,-140.63 903.22,-131.83 893.12,-135.03 897.32,-140.63"/>
</g>
<!-- Node9 -->
<g id="node8" class="node">
<title>Node9</title>
<g id="a_node8"><a xlink:title=" ">
<polygon fill="white" stroke="#bfbfbf" points="1208.5,-112.5 1208.5,-131.5 1259.5,-131.5 1259.5,-112.5 1208.5,-112.5"/>
<text text-anchor="middle" x="1234" y="-119.5" font-family="FreeSans" font-size="10.00">errno.h</text>
</a>
</g>
</g>
<!-- Node2&#45;&gt;Node9 -->
<g id="edge7" class="edge">
<title>Node2&#45;&gt;Node9</title>
<path fill="none" stroke="midnightblue" d="M890.52,-172.91C957.12,-166.76 1082.13,-153.69 1198.33,-131.89"/>
<polygon fill="midnightblue" stroke="midnightblue" points="1199.3,-135.27 1208.47,-129.96 1197.99,-128.39 1199.3,-135.27"/>
</g>
<!-- Node10 -->
<g id="node9" class="node">
<title>Node10</title>
<g id="a_node9"><a xlink:title=" ">
<polygon fill="white" stroke="#bfbfbf" points="960.5,-112.5 960.5,-131.5 1007.5,-131.5 1007.5,-112.5 960.5,-112.5"/>
<text text-anchor="middle" x="984" y="-119.5" font-family="FreeSans" font-size="10.00">fcntl.h</text>
</a>
</g>
</g>
<!-- Node2&#45;&gt;Node10 -->
<g id="edge8" class="edge">
<title>Node2&#45;&gt;Node10</title>
<path fill="none" stroke="midnightblue" d="M865.34,-168.44C888.75,-159.48 925.74,-145.31 952.19,-135.18"/>
<polygon fill="midnightblue" stroke="midnightblue" points="953.68,-138.36 961.76,-131.52 951.17,-131.82 953.68,-138.36"/>
</g>
<!-- Node11 -->
<g id="node10" class="node">
<title>Node11</title>
<g id="a_node10"><a xlink:title=" ">
<polygon fill="white" stroke="#bfbfbf" points="1486.5,-112.5 1486.5,-131.5 1537.5,-131.5 1537.5,-112.5 1486.5,-112.5"/>
<text text-anchor="middle" x="1512" y="-119.5" font-family="FreeSans" font-size="10.00">math.h</text>
</a>
</g>
</g>
<!-- Node2&#45;&gt;Node11 -->
<g id="edge9" class="edge">
<title>Node2&#45;&gt;Node11</title>
<path fill="none" stroke="midnightblue" d="M890.68,-175.07C994.36,-170.52 1247.96,-157.57 1459,-132 1464.62,-131.32 1470.55,-130.46 1476.32,-129.54"/>
<polygon fill="midnightblue" stroke="midnightblue" points="1477.18,-132.94 1486.46,-127.84 1476.02,-126.04 1477.18,-132.94"/>
</g>
<!-- Node12 -->
<g id="node11" class="node">
<title>Node12</title>
<g id="a_node11"><a xlink:title=" ">
<polygon fill="white" stroke="#bfbfbf" points="1169,-56.5 1169,-75.5 1217,-75.5 1217,-56.5 1169,-56.5"/>
<text text-anchor="middle" x="1193" y="-63.5" font-family="FreeSans" font-size="10.00">time.h</text>
</a>
</g>
</g>
<!-- Node2&#45;&gt;Node12 -->
<g id="edge10" class="edge">
<title>Node2&#45;&gt;Node12</title>
<path fill="none" stroke="midnightblue" d="M886.48,-168.47C921.97,-160.84 973.08,-148.36 1016,-132 1034.2,-125.06 1037.02,-119.49 1055,-112 1089.71,-97.55 1130.82,-84.66 1159.1,-76.42"/>
<polygon fill="midnightblue" stroke="midnightblue" points="1160.25,-79.73 1168.9,-73.6 1158.32,-73 1160.25,-79.73"/>
</g>
<!-- Node13 -->
<g id="node12" class="node">
<title>Node13</title>
<g id="a_node12"><a xlink:title=" ">
<polygon fill="white" stroke="#bfbfbf" points="1064.5,-112.5 1064.5,-131.5 1117.5,-131.5 1117.5,-112.5 1064.5,-112.5"/>
<text text-anchor="middle" x="1091" y="-119.5" font-family="FreeSans" font-size="10.00">limits.h</text>
</a>
</g>
</g>
<!-- Node2&#45;&gt;Node13 -->
<g id="edge11" class="edge">
<title>Node2&#45;&gt;Node13</title>
<path fill="none" stroke="midnightblue" d="M882.3,-168.48C923.95,-159.45 991.61,-144.75 1050,-132 1051.28,-131.72 1052.59,-131.43 1053.9,-131.15"/>
<polygon fill="midnightblue" stroke="midnightblue" points="1055.08,-134.47 1064.1,-128.91 1053.58,-127.64 1055.08,-134.47"/>
</g>
<!-- Node14 -->
<g id="node13" class="node">
<title>Node14</title>
<g id="a_node13"><a xlink:title=" ">
<polygon fill="white" stroke="#bfbfbf" points="1135.5,-112.5 1135.5,-131.5 1190.5,-131.5 1190.5,-112.5 1135.5,-112.5"/>
<text text-anchor="middle" x="1163" y="-119.5" font-family="FreeSans" font-size="10.00">signal.h</text>
</a>
</g>
</g>
<!-- Node2&#45;&gt;Node14 -->
<g id="edge12" class="edge">
<title>Node2&#45;&gt;Node14</title>
<path fill="none" stroke="midnightblue" d="M890.53,-170.64C944.89,-163.1 1036.75,-149.55 1125.24,-132.01"/>
<polygon fill="midnightblue" stroke="midnightblue" points="1126.06,-135.42 1135.17,-130.02 1124.68,-128.56 1126.06,-135.42"/>
</g>
<!-- Node15 -->
<g id="node14" class="node">
<title>Node15</title>
<g id="a_node14"><a xlink:title=" ">
<polygon fill="white" stroke="#bfbfbf" points="1278,-112.5 1278,-131.5 1334,-131.5 1334,-112.5 1278,-112.5"/>
<text text-anchor="middle" x="1306" y="-119.5" font-family="FreeSans" font-size="10.00">assert.h</text>
</a>
</g>
</g>
<!-- Node2&#45;&gt;Node15 -->
<g id="edge13" class="edge">
<title>Node2&#45;&gt;Node15</title>
<path fill="none" stroke="midnightblue" d="M890.76,-173.93C969.69,-168.42 1132.14,-155.18 1268,-132 1268.1,-131.98 1268.2,-131.97 1268.3,-131.95"/>
<polygon fill="midnightblue" stroke="midnightblue" points="1268.71,-135.43 1277.86,-130.09 1267.38,-128.56 1268.71,-135.43"/>
</g>
<!-- Node16 -->
<g id="node15" class="node">
<title>Node16</title>
<g id="a_node15"><a xlink:href="method-attribute_8h.html" target="_top" xlink:title=" ">
<polygon fill="white" stroke="black" points="0,-112.5 0,-131.5 148,-131.5 148,-112.5 0,-112.5"/>
<text text-anchor="middle" x="74" y="-119.5" font-family="FreeSans" font-size="10.00">magick/method&#45;attribute.h</text>
</a>
</g>
</g>
<!-- Node2&#45;&gt;Node16 -->
<g id="edge14" class="edge">
<title>Node2&#45;&gt;Node16</title>
<path fill="none" stroke="midnightblue" d="M795.13,-174.56C684.83,-168.79 404.11,-153.25 158.39,-132.09"/>
<polygon fill="midnightblue" stroke="midnightblue" points="158.46,-128.58 148.2,-131.2 157.86,-135.55 158.46,-128.58"/>
</g>
<!-- Node17 -->
<g id="node16" class="node">
<title>Node17</title>
<g id="a_node16"><a xlink:title=" ">
<polygon fill="white" stroke="#bfbfbf" points="166,-112.5 166,-131.5 238,-131.5 238,-112.5 166,-112.5"/>
<text text-anchor="middle" x="202" y="-119.5" font-family="FreeSans" font-size="10.00">sys/types.h</text>
</a>
</g>
</g>
<!-- Node2&#45;&gt;Node17 -->
<g id="edge15" class="edge">
<title>Node2&#45;&gt;Node17</title>
<path fill="none" stroke="midnightblue" d="M795.28,-175.37C695.49,-171.55 457.37,-160.19 248.22,-132.01"/>
<polygon fill="midnightblue" stroke="midnightblue" points="248.67,-128.54 238.28,-130.65 247.72,-135.47 248.67,-128.54"/>
</g>
<!-- Node18 -->
<g id="node17" class="node">
<title>Node18</title>
<g id="a_node17"><a xlink:title=" ">
<polygon fill="white" stroke="#bfbfbf" points="256,-112.5 256,-131.5 320,-131.5 320,-112.5 256,-112.5"/>
<text text-anchor="middle" x="288" y="-119.5" font-family="FreeSans" font-size="10.00">sys/stat.h</text>
</a>
</g>
</g>
<!-- Node2&#45;&gt;Node18 -->
<g id="edge16" class="edge">
<title>Node2&#45;&gt;Node18</title>
<path fill="none" stroke="midnightblue" d="M795.28,-174.88C705.89,-170.46 507.01,-158.51 330.16,-131.99"/>
<polygon fill="midnightblue" stroke="midnightblue" points="330.57,-128.51 320.16,-130.47 329.52,-135.43 330.57,-128.51"/>
</g>
<!-- Node19 -->
<g id="node18" class="node">
<title>Node19</title>
<g id="a_node18"><a xlink:title=" ">
<polygon fill="white" stroke="#bfbfbf" points="338,-112.5 338,-131.5 392,-131.5 392,-112.5 338,-112.5"/>
<text text-anchor="middle" x="365" y="-119.5" font-family="FreeSans" font-size="10.00">dirent.h</text>
</a>
</g>
</g>
<!-- Node2&#45;&gt;Node19 -->
<g id="edge17" class="edge">
<title>Node2&#45;&gt;Node19</title>
<path fill="none" stroke="midnightblue" d="M795.27,-174.39C715.72,-169.56 550.89,-157.45 402.26,-131.98"/>
<polygon fill="midnightblue" stroke="midnightblue" points="402.49,-128.47 392.04,-130.2 401.29,-135.36 402.49,-128.47"/>
</g>
<!-- Node20 -->
<g id="node19" class="node">
<title>Node20</title>
<g id="a_node19"><a xlink:title=" ">
<polygon fill="white" stroke="#bfbfbf" points="410,-112.5 410,-131.5 476,-131.5 476,-112.5 410,-112.5"/>
<text text-anchor="middle" x="443" y="-119.5" font-family="FreeSans" font-size="10.00">sys/wait.h</text>
</a>
</g>
</g>
<!-- Node2&#45;&gt;Node20 -->
<g id="edge18" class="edge">
<title>Node2&#45;&gt;Node20</title>
<path fill="none" stroke="midnightblue" d="M795.32,-172.33C728.48,-165.48 602.92,-151.57 486.57,-132.15"/>
<polygon fill="midnightblue" stroke="midnightblue" points="486.86,-128.65 476.42,-130.43 485.7,-135.55 486.86,-128.65"/>
</g>
<!-- Node21 -->
<g id="node20" class="node">
<title>Node21</title>
<g id="a_node20"><a xlink:title=" ">
<polygon fill="white" stroke="#bfbfbf" points="494,-112.5 494,-131.5 540,-131.5 540,-112.5 494,-112.5"/>
<text text-anchor="middle" x="517" y="-119.5" font-family="FreeSans" font-size="10.00">pwd.h</text>
</a>
</g>
</g>
<!-- Node2&#45;&gt;Node21 -->
<g id="edge19" class="edge">
<title>Node2&#45;&gt;Node21</title>
<path fill="none" stroke="midnightblue" d="M795.32,-171.52C738.94,-164.64 642.16,-151.57 550.35,-132.08"/>
<polygon fill="midnightblue" stroke="midnightblue" points="550.85,-128.6 540.34,-129.92 549.37,-135.45 550.85,-128.6"/>
</g>
<!-- Node24&#45;&gt;Node30 -->
<g id="edge21" class="edge">
<title>Node24&#45;&gt;Node30</title>
<path fill="none" stroke="midnightblue" d="M1555.1,-168.37C1574.58,-149.89 1620.56,-106.29 1645.4,-82.74"/>
<polygon fill="midnightblue" stroke="midnightblue" points="1648.09,-85.01 1652.94,-75.59 1643.28,-79.93 1648.09,-85.01"/>
</g>
<!-- Node30&#45;&gt;Node5 -->
<g id="edge22" class="edge">
<title>Node30&#45;&gt;Node5</title>
<path fill="none" stroke="midnightblue" d="M1620.64,-56.44C1570.83,-46.14 1487.81,-28.96 1439.37,-18.94"/>
<polygon fill="midnightblue" stroke="midnightblue" points="1439.79,-15.45 1429.29,-16.85 1438.38,-22.31 1439.79,-15.45"/>
</g>
<!-- Node30&#45;&gt;Node31 -->
<g id="edge23" class="edge">
<title>Node30&#45;&gt;Node31</title>
<path fill="none" stroke="midnightblue" d="M1718.85,-63.26C1981,-55.26 3072.57,-21.94 3360.9,-13.14"/>
<polygon fill="midnightblue" stroke="midnightblue" points="3361.33,-16.63 3371.22,-12.82 3361.12,-9.63 3361.33,-16.63"/>
</g>
<!-- Node51&#45;&gt;Node32 -->
<g id="edge27" class="edge">
<title>Node51&#45;&gt;Node32</title>
<path fill="none" stroke="midnightblue" d="M3321.47,-168.08C3324.31,-160.77 3328.43,-150.18 3331.96,-141.1"/>
<polygon fill="midnightblue" stroke="midnightblue" points="3335.23,-142.34 3335.6,-131.75 3328.71,-139.8 3335.23,-142.34"/>
</g>
<!-- Node26&#45;&gt;Node30 -->
<g id="edge29" class="edge">
<title>Node26&#45;&gt;Node30</title>
<path fill="none" stroke="midnightblue" d="M1662,-168.37C1662,-150.62 1662,-109.67 1662,-85.6"/>
<polygon fill="midnightblue" stroke="midnightblue" points="1665.5,-85.59 1662,-75.59 1658.5,-85.59 1665.5,-85.59"/>
</g>
<!-- Node52&#45;&gt;Node26 -->
<g id="edge32" class="edge">
<title>Node52&#45;&gt;Node26</title>
<path fill="none" stroke="midnightblue" d="M1837.04,-224.44C1801.21,-215.14 1743.84,-200.25 1704.61,-190.06"/>
<polygon fill="midnightblue" stroke="midnightblue" points="1705.36,-186.64 1694.8,-187.52 1703.6,-193.42 1705.36,-186.64"/>
</g>
<!-- Node52&#45;&gt;Node53 -->
<g id="edge31" class="edge">
<title>Node52&#45;&gt;Node53</title>
<path fill="none" stroke="midnightblue" d="M1881.73,-224.32C1892.84,-216.11 1909.74,-203.6 1922.98,-193.81"/>
<polygon fill="midnightblue" stroke="midnightblue" points="1925.1,-196.59 1931.06,-187.83 1920.94,-190.97 1925.1,-196.59"/>
</g>
<!-- Node52&#45;&gt;Node61 -->
<g id="edge33" class="edge">
<title>Node52&#45;&gt;Node61</title>
<path fill="none" stroke="midnightblue" d="M1806.31,-225.09C1803.16,-224.72 1800.04,-224.35 1797,-224 1683.48,-210.83 1552.3,-196.77 1468.56,-187.94"/>
<polygon fill="midnightblue" stroke="midnightblue" points="1468.89,-184.45 1458.58,-186.89 1468.16,-191.41 1468.89,-184.45"/>
</g>
<!-- Node52&#45;&gt;Node55 -->
<g id="edge38" class="edge">
<title>Node52&#45;&gt;Node55</title>
<path fill="none" stroke="midnightblue" d="M1857.31,-224.32C1845.1,-215.98 1826.42,-203.21 1812,-193.35"/>
<polygon fill="midnightblue" stroke="midnightblue" points="1813.89,-190.41 1803.66,-187.65 1809.94,-196.19 1813.89,-190.41"/>
</g>
<!-- Node61&#45;&gt;Node45 -->
<g id="edge34" class="edge">
<title>Node61&#45;&gt;Node45</title>
<path fill="none" stroke="midnightblue" d="M1385.97,-168.08C1388.38,-160.85 1391.86,-150.41 1394.87,-141.4"/>
<polygon fill="midnightblue" stroke="midnightblue" points="1398.24,-142.34 1398.08,-131.75 1391.6,-140.13 1398.24,-142.34"/>
</g>
<!-- Node45&#45;&gt;Node5 -->
<g id="edge35" class="edge">
<title>Node45&#45;&gt;Node5</title>
<path fill="none" stroke="midnightblue" d="M1401,-112.37C1401,-94.62 1401,-53.67 1401,-29.6"/>
<polygon fill="midnightblue" stroke="midnightblue" points="1404.5,-29.59 1401,-19.59 1397.5,-29.59 1404.5,-29.59"/>
</g>
<!-- Node45&#45;&gt;Node12 -->
<g id="edge36" class="edge">
<title>Node45&#45;&gt;Node12</title>
<path fill="none" stroke="midnightblue" d="M1368.04,-112.44C1329.45,-102.42 1265.86,-85.92 1226.88,-75.79"/>
<polygon fill="midnightblue" stroke="midnightblue" points="1227.61,-72.37 1217.05,-73.24 1225.85,-79.14 1227.61,-72.37"/>
</g>
<!-- Node45&#45;&gt;Node30 -->
<g id="edge37" class="edge">
<title>Node45&#45;&gt;Node30</title>
<path fill="none" stroke="midnightblue" d="M1442.36,-112.44C1488.08,-102.98 1561.76,-87.74 1611.02,-77.55"/>
<polygon fill="midnightblue" stroke="midnightblue" points="1611.75,-80.97 1620.84,-75.52 1610.34,-74.12 1611.75,-80.97"/>
</g>
<!-- Node55&#45;&gt;Node11 -->
<g id="edge39" class="edge">
<title>Node55&#45;&gt;Node11</title>
<path fill="none" stroke="midnightblue" d="M1746.79,-168.44C1691.59,-157.76 1598.26,-139.7 1547.49,-129.87"/>
<polygon fill="midnightblue" stroke="midnightblue" points="1548.11,-126.42 1537.62,-127.96 1546.78,-133.3 1548.11,-126.42"/>
</g>
<!-- Node55&#45;&gt;Node56 -->
<g id="edge40" class="edge">
<title>Node55&#45;&gt;Node56</title>
<path fill="none" stroke="midnightblue" d="M1858.03,-168.5C1942.57,-157.79 2086.22,-139.58 2163.69,-129.76"/>
<polygon fill="midnightblue" stroke="midnightblue" points="2164.23,-133.22 2173.72,-128.49 2163.35,-126.27 2164.23,-133.22"/>
</g>
<!-- Node65&#45;&gt;Node26 -->
<g id="edge43" class="edge">
<title>Node65&#45;&gt;Node26</title>
<path fill="none" stroke="midnightblue" d="M1404.49,-224.44C1459.81,-214.68 1550.06,-198.75 1607.7,-188.58"/>
<polygon fill="midnightblue" stroke="midnightblue" points="1608.47,-192 1617.71,-186.82 1607.26,-185.11 1608.47,-192"/>
</g>
<!-- Node65&#45;&gt;Node61 -->
<g id="edge44" class="edge">
<title>Node65&#45;&gt;Node61</title>
<path fill="none" stroke="midnightblue" d="M1360.46,-224.08C1364.15,-216.69 1369.52,-205.95 1374.09,-196.81"/>
<polygon fill="midnightblue" stroke="midnightblue" points="1377.28,-198.26 1378.62,-187.75 1371.02,-195.13 1377.28,-198.26"/>
</g>
<!-- Node68&#45;&gt;Node9 -->
<g id="edge53" class="edge">
<title>Node68&#45;&gt;Node9</title>
<path fill="none" stroke="midnightblue" d="M1187,-168.32C1195.19,-160.42 1207.51,-148.55 1217.47,-138.94"/>
<polygon fill="midnightblue" stroke="midnightblue" points="1220.07,-141.29 1224.84,-131.83 1215.21,-136.26 1220.07,-141.29"/>
</g>
<!-- Node68&#45;&gt;Node15 -->
<g id="edge54" class="edge">
<title>Node68&#45;&gt;Node15</title>
<path fill="none" stroke="midnightblue" d="M1198.28,-168.44C1219.35,-159.56 1252.52,-145.56 1276.49,-135.45"/>
<polygon fill="midnightblue" stroke="midnightblue" points="1277.96,-138.63 1285.81,-131.52 1275.24,-132.18 1277.96,-138.63"/>
</g>
<!-- Node71&#45;&gt;Node26 -->
<g id="edge60" class="edge">
<title>Node71&#45;&gt;Node26</title>
<path fill="none" stroke="midnightblue" d="M1714.88,-224.32C1705.47,-216.26 1691.26,-204.08 1679.93,-194.37"/>
<polygon fill="midnightblue" stroke="midnightblue" points="1682.18,-191.68 1672.31,-187.83 1677.62,-197 1682.18,-191.68"/>
</g>
<!-- Node71&#45;&gt;Node53 -->
<g id="edge61" class="edge">
<title>Node71&#45;&gt;Node53</title>
<path fill="none" stroke="midnightblue" d="M1759.54,-224.44C1797.25,-215.1 1857.74,-200.12 1898.86,-189.93"/>
<polygon fill="midnightblue" stroke="midnightblue" points="1899.75,-193.32 1908.62,-187.52 1898.07,-186.52 1899.75,-193.32"/>
</g>
<!-- Node71&#45;&gt;Node55 -->
<g id="edge63" class="edge">
<title>Node71&#45;&gt;Node55</title>
<path fill="none" stroke="midnightblue" d="M1735.6,-224.32C1745.46,-216.26 1760.35,-204.08 1772.22,-194.37"/>
<polygon fill="midnightblue" stroke="midnightblue" points="1774.68,-196.88 1780.2,-187.83 1770.25,-191.46 1774.68,-196.88"/>
</g>
<!-- Node71&#45;&gt;Node68 -->
<g id="edge62" class="edge">
<title>Node71&#45;&gt;Node68</title>
<path fill="none" stroke="midnightblue" d="M1661.99,-226.78C1557.72,-216.49 1350.3,-196.01 1244.07,-185.52"/>
<polygon fill="midnightblue" stroke="midnightblue" points="1244.09,-182.01 1233.8,-184.51 1243.4,-188.97 1244.09,-182.01"/>
</g>
<!-- Node46&#45;&gt;Node31 -->
<g id="edge66" class="edge">
<title>Node46&#45;&gt;Node31</title>
<path fill="none" stroke="midnightblue" d="M3574.06,-56.44C3545.34,-47.32 3499.67,-32.81 3467.68,-22.65"/>
<polygon fill="midnightblue" stroke="midnightblue" points="3468.4,-19.21 3457.81,-19.52 3466.28,-25.88 3468.4,-19.21"/>
</g>
<!-- Node75&#45;&gt;Node51 -->
<g id="edge71" class="edge">
<title>Node75&#45;&gt;Node51</title>
<path fill="none" stroke="midnightblue" d="M3163.16,-224.44C3194.51,-215.24 3244.53,-200.56 3279.2,-190.39"/>
<polygon fill="midnightblue" stroke="midnightblue" points="3280.37,-193.69 3288.98,-187.52 3278.4,-186.97 3280.37,-193.69"/>
</g>
<!-- Node75&#45;&gt;Node53 -->
<g id="edge72" class="edge">
<title>Node75&#45;&gt;Node53</title>
<path fill="none" stroke="midnightblue" d="M3066.89,-224.75C3063.89,-224.48 3060.91,-224.22 3058,-224 2614.14,-189.8 2501.44,-213.52 2057,-188 2045.15,-187.32 2032.63,-186.47 2020.38,-185.56"/>
<polygon fill="midnightblue" stroke="midnightblue" points="2020.42,-182.05 2010.18,-184.78 2019.89,-189.03 2020.42,-182.05"/>
</g>
<!-- Node75&#45;&gt;Node74 -->
<g id="edge73" class="edge">
<title>Node75&#45;&gt;Node74</title>
<path fill="none" stroke="midnightblue" d="M3095.34,-224.44C3052.86,-215.04 2984.57,-199.93 2938.53,-189.74"/>
<polygon fill="midnightblue" stroke="midnightblue" points="2939,-186.26 2928.48,-187.52 2937.49,-193.09 2939,-186.26"/>
</g>
<!-- Node79&#45;&gt;Node30 -->
<g id="edge77" class="edge">
<title>Node79&#45;&gt;Node30</title>
<path fill="none" stroke="midnightblue" d="M2114.04,-168.44C2103.44,-153.99 2079.79,-125.05 2052,-112 1996.27,-85.84 1824.96,-74.19 1728.96,-69.6"/>
<polygon fill="midnightblue" stroke="midnightblue" points="1728.93,-66.1 1718.78,-69.13 1728.6,-73.09 1728.93,-66.1"/>
</g>
</g>
</svg>
