<?xml version="1.0" encoding="UTF-8" standalone="no"?>
<!DOCTYPE svg PUBLIC "-//W3C//DTD SVG 1.1//EN"
 "http://www.w3.org/Graphics/SVG/1.1/DTD/svg11.dtd">
<!-- Generated by graphviz version 2.43.0 (0)
 -->
<!-- Title: colorspace.c Pages: 1 -->
<svg width="3450pt" height="364pt"
 viewBox="0.00 0.00 3450.22 364.00" xmlns="http://www.w3.org/2000/svg" xmlns:xlink="http://www.w3.org/1999/xlink">
<g id="graph0" class="graph" transform="scale(1 1) rotate(0) translate(4 360)">
<title>colorspace.c</title>
<polygon fill="white" stroke="transparent" points="-4,4 -4,-360 3446.22,-360 3446.22,4 -4,4"/>
<!-- Node1 -->
<g id="node1" class="node">
<title>Node1</title>
<g id="a_node1"><a xlink:title=" ">
<polygon fill="#bfbfbf" stroke="black" points="2159.72,-336.5 2159.72,-355.5 2236.72,-355.5 2236.72,-336.5 2159.72,-336.5"/>
<text text-anchor="middle" x="2198.22" y="-343.5" font-family="FreeSans" font-size="10.00">colorspace.c</text>
</a>
</g>
</g>
<!-- Node2 -->
<g id="node2" class="node">
<title>Node2</title>
<g id="a_node2"><a xlink:href="studio_8h.html" target="_top" xlink:title=" ">
<polygon fill="white" stroke="black" points="732.72,-168.5 732.72,-187.5 827.72,-187.5 827.72,-168.5 732.72,-168.5"/>
<text text-anchor="middle" x="780.22" y="-175.5" font-family="FreeSans" font-size="10.00">magick/studio.h</text>
</a>
</g>
</g>
<!-- Node1&#45;&gt;Node2 -->
<g id="edge1" class="edge">
<title>Node1&#45;&gt;Node2</title>
<path fill="none" stroke="midnightblue" d="M2159.43,-344.82C2042.01,-343.86 1680.18,-337.8 1383.22,-300 1171.46,-273.05 922.68,-214.4 823.86,-189.99"/>
<polygon fill="midnightblue" stroke="midnightblue" points="824.48,-186.54 813.94,-187.53 822.8,-193.34 824.48,-186.54"/>
</g>
<!-- Node24 -->
<g id="node23" class="node">
<title>Node24</title>
<g id="a_node23"><a xlink:href="attribute_8h.html" target="_top" xlink:title=" ">
<polygon fill="white" stroke="black" points="1440.72,-224.5 1440.72,-243.5 1547.72,-243.5 1547.72,-224.5 1440.72,-224.5"/>
<text text-anchor="middle" x="1494.22" y="-231.5" font-family="FreeSans" font-size="10.00">magick/attribute.h</text>
</a>
</g>
</g>
<!-- Node1&#45;&gt;Node24 -->
<g id="edge23" class="edge">
<title>Node1&#45;&gt;Node24</title>
<path fill="none" stroke="midnightblue" d="M2159.59,-343.79C2030.15,-339.53 1616.75,-324.14 1562.22,-300 1538.75,-289.61 1518.47,-267.48 1506.3,-251.94"/>
<polygon fill="midnightblue" stroke="midnightblue" points="1508.92,-249.59 1500.12,-243.69 1503.32,-253.79 1508.92,-249.59"/>
</g>
<!-- Node25 -->
<g id="node24" class="node">
<title>Node25</title>
<g id="a_node24"><a xlink:href="image_8h.html" target="_top" xlink:title=" ">
<polygon fill="white" stroke="red" points="1808.72,-168.5 1808.72,-187.5 1903.72,-187.5 1903.72,-168.5 1808.72,-168.5"/>
<text text-anchor="middle" x="1856.22" y="-175.5" font-family="FreeSans" font-size="10.00">magick/image.h</text>
</a>
</g>
</g>
<!-- Node1&#45;&gt;Node25 -->
<g id="edge62" class="edge">
<title>Node1&#45;&gt;Node25</title>
<path fill="none" stroke="midnightblue" d="M2159.62,-341.3C2070.05,-331.77 1852.89,-302.88 1816.22,-244 1805.63,-227.01 1821.46,-207.45 1836.22,-194.26"/>
<polygon fill="midnightblue" stroke="midnightblue" points="1838.7,-196.74 1844.13,-187.64 1834.22,-191.37 1838.7,-196.74"/>
</g>
<!-- Node26 -->
<g id="node25" class="node">
<title>Node26</title>
<g id="a_node25"><a xlink:href="color_8h.html" target="_top" xlink:title=" ">
<polygon fill="white" stroke="red" points="1824.22,-112.5 1824.22,-131.5 1912.22,-131.5 1912.22,-112.5 1824.22,-112.5"/>
<text text-anchor="middle" x="1868.22" y="-119.5" font-family="FreeSans" font-size="10.00">magick/color.h</text>
</a>
</g>
</g>
<!-- Node1&#45;&gt;Node26 -->
<g id="edge44" class="edge">
<title>Node1&#45;&gt;Node26</title>
<path fill="none" stroke="midnightblue" d="M2159.3,-344.67C2034.93,-343.24 1648.32,-335.95 1529.22,-300 1481.19,-285.5 1456.39,-287.39 1431.22,-244 1426.75,-236.31 1425.68,-230.96 1431.22,-224 1443.27,-208.84 1700.63,-156.22 1814.65,-133.54"/>
<polygon fill="midnightblue" stroke="midnightblue" points="1815.45,-136.95 1824.57,-131.57 1814.08,-130.08 1815.45,-136.95"/>
</g>
<!-- Node30 -->
<g id="node26" class="node">
<title>Node30</title>
<g id="a_node26"><a xlink:href="exception_8h.html" target="_top" xlink:title=" ">
<polygon fill="white" stroke="red" points="1811.72,-56.5 1811.72,-75.5 1924.72,-75.5 1924.72,-56.5 1811.72,-56.5"/>
<text text-anchor="middle" x="1868.22" y="-63.5" font-family="FreeSans" font-size="10.00">magick/exception.h</text>
</a>
</g>
</g>
<!-- Node1&#45;&gt;Node30 -->
<g id="edge59" class="edge">
<title>Node1&#45;&gt;Node30</title>
<path fill="none" stroke="midnightblue" d="M2159.62,-345.16C1866.37,-346.09 1.22,-347.6 1.22,-235 1.22,-235 1.22,-235 1.22,-177 1.22,-146.9 -3.65,-130.34 20.22,-112 38.23,-98.15 1471.51,-73.57 1801.14,-68.1"/>
<polygon fill="midnightblue" stroke="midnightblue" points="1801.55,-71.59 1811.49,-67.93 1801.43,-64.6 1801.55,-71.59"/>
</g>
<!-- Node28 -->
<g id="node28" class="node">
<title>Node28</title>
<g id="a_node28"><a xlink:href="colorspace_8h.html" target="_top" xlink:title=" ">
<polygon fill="white" stroke="black" points="2823.72,-112.5 2823.72,-131.5 2940.72,-131.5 2940.72,-112.5 2823.72,-112.5"/>
<text text-anchor="middle" x="2882.22" y="-119.5" font-family="FreeSans" font-size="10.00">magick/colorspace.h</text>
</a>
</g>
</g>
<!-- Node1&#45;&gt;Node28 -->
<g id="edge57" class="edge">
<title>Node1&#45;&gt;Node28</title>
<path fill="none" stroke="midnightblue" d="M2237.13,-345.22C2372.64,-345.58 2818.01,-343.46 2863.22,-300 2906.44,-258.45 2895.06,-178.22 2887.02,-141.8"/>
<polygon fill="midnightblue" stroke="midnightblue" points="2890.31,-140.54 2884.6,-131.62 2883.5,-142.16 2890.31,-140.54"/>
</g>
<!-- Node34 -->
<g id="node29" class="node">
<title>Node34</title>
<g id="a_node29"><a xlink:href="cache-view_8h.html" target="_top" xlink:title=" ">
<polygon fill="white" stroke="red" points="1566.72,-112.5 1566.72,-131.5 1685.72,-131.5 1685.72,-112.5 1566.72,-112.5"/>
<text text-anchor="middle" x="1626.22" y="-119.5" font-family="FreeSans" font-size="10.00">magick/cache&#45;view.h</text>
</a>
</g>
</g>
<!-- Node1&#45;&gt;Node34 -->
<g id="edge43" class="edge">
<title>Node1&#45;&gt;Node34</title>
<path fill="none" stroke="midnightblue" d="M2159.41,-345.18C2053.47,-345.13 1761.52,-341.15 1676.22,-300 1645.35,-285.11 1635.89,-275.84 1623.22,-244 1609.6,-209.8 1616.02,-165.75 1621.43,-141.34"/>
<polygon fill="midnightblue" stroke="midnightblue" points="1624.84,-142.16 1623.78,-131.62 1618.03,-140.52 1624.84,-142.16"/>
</g>
<!-- Node43 -->
<g id="node30" class="node">
<title>Node43</title>
<g id="a_node30"><a xlink:href="monitor_8h.html" target="_top" xlink:title=" ">
<polygon fill="white" stroke="black" points="1704.22,-112.5 1704.22,-131.5 1806.22,-131.5 1806.22,-112.5 1704.22,-112.5"/>
<text text-anchor="middle" x="1755.22" y="-119.5" font-family="FreeSans" font-size="10.00">magick/monitor.h</text>
</a>
</g>
</g>
<!-- Node1&#45;&gt;Node43 -->
<g id="edge69" class="edge">
<title>Node1&#45;&gt;Node43</title>
<path fill="none" stroke="midnightblue" d="M2159.67,-345.03C2041.54,-344.13 1689.19,-333.86 1633.22,-244 1604.34,-197.65 1679.15,-155.71 1724.12,-135.58"/>
<polygon fill="midnightblue" stroke="midnightblue" points="1725.71,-138.71 1733.49,-131.51 1722.92,-132.29 1725.71,-138.71"/>
</g>
<!-- Node46 -->
<g id="node31" class="node">
<title>Node46</title>
<g id="a_node31"><a xlink:href="quantum_8h.html" target="_top" xlink:title=" ">
<polygon fill="white" stroke="red" points="1930.22,-112.5 1930.22,-131.5 2038.22,-131.5 2038.22,-112.5 1930.22,-112.5"/>
<text text-anchor="middle" x="1984.22" y="-119.5" font-family="FreeSans" font-size="10.00">magick/quantum.h</text>
</a>
</g>
</g>
<!-- Node1&#45;&gt;Node46 -->
<g id="edge79" class="edge">
<title>Node1&#45;&gt;Node46</title>
<path fill="none" stroke="midnightblue" d="M2194.74,-336.4C2183.08,-308.47 2142.66,-219.15 2083.22,-168 2065.95,-153.15 2042.98,-142.3 2023.51,-134.98"/>
<polygon fill="midnightblue" stroke="midnightblue" points="2024.58,-131.65 2013.99,-131.57 2022.22,-138.24 2024.58,-131.65"/>
</g>
<!-- Node51 -->
<g id="node32" class="node">
<title>Node51</title>
<g id="a_node32"><a xlink:href="cache_8h.html" target="_top" xlink:title=" ">
<polygon fill="white" stroke="black" points="2150.72,-168.5 2150.72,-187.5 2243.72,-187.5 2243.72,-168.5 2150.72,-168.5"/>
<text text-anchor="middle" x="2197.22" y="-175.5" font-family="FreeSans" font-size="10.00">magick/cache.h</text>
</a>
</g>
</g>
<!-- Node1&#45;&gt;Node51 -->
<g id="edge36" class="edge">
<title>Node1&#45;&gt;Node51</title>
<path fill="none" stroke="midnightblue" d="M2198.16,-336.08C2198,-309.95 2197.54,-233.21 2197.33,-197.58"/>
<polygon fill="midnightblue" stroke="midnightblue" points="2200.83,-197.55 2197.27,-187.57 2193.83,-197.59 2200.83,-197.55"/>
</g>
<!-- Node52 -->
<g id="node33" class="node">
<title>Node52</title>
<g id="a_node33"><a xlink:href="cache-private_8h.html" target="_top" xlink:title=" ">
<polygon fill="white" stroke="red" points="2226.72,-224.5 2226.72,-243.5 2357.72,-243.5 2357.72,-224.5 2226.72,-224.5"/>
<text text-anchor="middle" x="2292.22" y="-231.5" font-family="FreeSans" font-size="10.00">magick/cache&#45;private.h</text>
</a>
</g>
</g>
<!-- Node1&#45;&gt;Node52 -->
<g id="edge38" class="edge">
<title>Node1&#45;&gt;Node52</title>
<path fill="none" stroke="midnightblue" d="M2205.59,-336.37C2221.24,-318.05 2257.99,-275.05 2278.23,-251.36"/>
<polygon fill="midnightblue" stroke="midnightblue" points="2281.04,-253.47 2284.87,-243.59 2275.72,-248.92 2281.04,-253.47"/>
</g>
<!-- Node61 -->
<g id="node35" class="node">
<title>Node61</title>
<g id="a_node35"><a xlink:href="color-private_8h.html" target="_top" xlink:title=" ">
<polygon fill="white" stroke="red" points="1966.72,-280.5 1966.72,-299.5 2093.72,-299.5 2093.72,-280.5 1966.72,-280.5"/>
<text text-anchor="middle" x="2030.22" y="-287.5" font-family="FreeSans" font-size="10.00">magick/color&#45;private.h</text>
</a>
</g>
</g>
<!-- Node1&#45;&gt;Node61 -->
<g id="edge45" class="edge">
<title>Node1&#45;&gt;Node61</title>
<path fill="none" stroke="midnightblue" d="M2171.6,-336.44C2143.21,-327.32 2098.08,-312.81 2066.46,-302.65"/>
<polygon fill="midnightblue" stroke="midnightblue" points="2067.3,-299.24 2056.71,-299.52 2065.16,-305.91 2067.3,-299.24"/>
</g>
<!-- Node58 -->
<g id="node36" class="node">
<title>Node58</title>
<g id="a_node36"><a xlink:href="image-private_8h.html" target="_top" xlink:title=" ">
<polygon fill="white" stroke="black" points="1922.22,-168.5 1922.22,-187.5 2056.22,-187.5 2056.22,-168.5 1922.22,-168.5"/>
<text text-anchor="middle" x="1989.22" y="-175.5" font-family="FreeSans" font-size="10.00">magick/image&#45;private.h</text>
</a>
</g>
</g>
<!-- Node1&#45;&gt;Node58 -->
<g id="edge63" class="edge">
<title>Node1&#45;&gt;Node58</title>
<path fill="none" stroke="midnightblue" d="M2187.27,-336.31C2153.48,-309.47 2050.52,-227.69 2007.95,-193.88"/>
<polygon fill="midnightblue" stroke="midnightblue" points="2010.06,-191.08 2000.05,-187.61 2005.7,-196.57 2010.06,-191.08"/>
</g>
<!-- Node62 -->
<g id="node37" class="node">
<title>Node62</title>
<g id="a_node37"><a xlink:href="colorspace-private_8h.html" target="_top" xlink:title=" ">
<polygon fill="white" stroke="red" points="1824.72,-224.5 1824.72,-243.5 1979.72,-243.5 1979.72,-224.5 1824.72,-224.5"/>
<text text-anchor="middle" x="1902.22" y="-231.5" font-family="FreeSans" font-size="10.00">magick/colorspace&#45;private.h</text>
</a>
</g>
</g>
<!-- Node1&#45;&gt;Node62 -->
<g id="edge58" class="edge">
<title>Node1&#45;&gt;Node62</title>
<path fill="none" stroke="midnightblue" d="M2159.36,-345.43C2109.53,-344.33 2021.95,-336.71 1958.22,-300 1938.52,-288.66 1922.41,-267.75 1912.61,-252.7"/>
<polygon fill="midnightblue" stroke="midnightblue" points="1915.35,-250.48 1907.1,-243.82 1909.4,-254.16 1915.35,-250.48"/>
</g>
<!-- Node68 -->
<g id="node38" class="node">
<title>Node68</title>
<g id="a_node38"><a xlink:href="exception-private_8h.html" target="_top" xlink:title=" ">
<polygon fill="white" stroke="red" points="2434.72,-224.5 2434.72,-243.5 2585.72,-243.5 2585.72,-224.5 2434.72,-224.5"/>
<text text-anchor="middle" x="2510.22" y="-231.5" font-family="FreeSans" font-size="10.00">magick/exception&#45;private.h</text>
</a>
</g>
</g>
<!-- Node1&#45;&gt;Node68 -->
<g id="edge60" class="edge">
<title>Node1&#45;&gt;Node68</title>
<path fill="none" stroke="midnightblue" d="M2236.77,-344.19C2343.44,-341.56 2636.6,-331.5 2665.22,-300 2692.34,-270.13 2644.94,-253.56 2595.61,-244.65"/>
<polygon fill="midnightblue" stroke="midnightblue" points="2596.18,-241.19 2585.74,-242.96 2595.01,-248.09 2596.18,-241.19"/>
</g>
<!-- Node45 -->
<g id="node39" class="node">
<title>Node45</title>
<g id="a_node39"><a xlink:href="string___8h.html" target="_top" xlink:title=" ">
<polygon fill="white" stroke="black" points="2461.22,-168.5 2461.22,-187.5 2559.22,-187.5 2559.22,-168.5 2461.22,-168.5"/>
<text text-anchor="middle" x="2510.22" y="-175.5" font-family="FreeSans" font-size="10.00">magick/string_.h</text>
</a>
</g>
</g>
<!-- Node1&#45;&gt;Node45 -->
<g id="edge81" class="edge">
<title>Node1&#45;&gt;Node45</title>
<path fill="none" stroke="midnightblue" d="M2209.52,-336.36C2226.93,-323.26 2261.61,-298 2293.22,-280 2310.84,-269.96 2427.84,-216.47 2482.35,-191.66"/>
<polygon fill="midnightblue" stroke="midnightblue" points="2483.81,-194.84 2491.46,-187.51 2480.91,-188.47 2483.81,-194.84"/>
</g>
<!-- Node71 -->
<g id="node40" class="node">
<title>Node71</title>
<g id="a_node40"><a xlink:href="enhance_8h.html" target="_top" xlink:title=" ">
<polygon fill="white" stroke="red" points="2302.22,-280.5 2302.22,-299.5 2408.22,-299.5 2408.22,-280.5 2302.22,-280.5"/>
<text text-anchor="middle" x="2355.22" y="-287.5" font-family="FreeSans" font-size="10.00">magick/enhance.h</text>
</a>
</g>
</g>
<!-- Node1&#45;&gt;Node71 -->
<g id="edge61" class="edge">
<title>Node1&#45;&gt;Node71</title>
<path fill="none" stroke="midnightblue" d="M2223.09,-336.44C2249.5,-327.36 2291.43,-312.94 2320.96,-302.78"/>
<polygon fill="midnightblue" stroke="midnightblue" points="2322.14,-306.08 2330.45,-299.52 2319.86,-299.46 2322.14,-306.08"/>
</g>
<!-- Node64 -->
<g id="node41" class="node">
<title>Node64</title>
<g id="a_node41"><a xlink:href="gem_8h.html" target="_top" xlink:title=" ">
<polygon fill="white" stroke="red" points="2426.22,-280.5 2426.22,-299.5 2512.22,-299.5 2512.22,-280.5 2426.22,-280.5"/>
<text text-anchor="middle" x="2469.22" y="-287.5" font-family="FreeSans" font-size="10.00">magick/gem.h</text>
</a>
</g>
</g>
<!-- Node1&#45;&gt;Node64 -->
<g id="edge64" class="edge">
<title>Node1&#45;&gt;Node64</title>
<path fill="none" stroke="midnightblue" d="M2236.76,-337.32C2283.84,-327.94 2363.74,-312.02 2416.49,-301.51"/>
<polygon fill="midnightblue" stroke="midnightblue" points="2417.21,-304.93 2426.34,-299.54 2415.85,-298.07 2417.21,-304.93"/>
</g>
<!-- Node72 -->
<g id="node42" class="node">
<title>Node72</title>
<g id="a_node42"><a xlink:href="gem-private_8h.html" target="_top" xlink:title=" ">
<polygon fill="white" stroke="red" points="2530.72,-280.5 2530.72,-299.5 2655.72,-299.5 2655.72,-280.5 2530.72,-280.5"/>
<text text-anchor="middle" x="2593.22" y="-287.5" font-family="FreeSans" font-size="10.00">magick/gem&#45;private.h</text>
</a>
</g>
</g>
<!-- Node1&#45;&gt;Node72 -->
<g id="edge65" class="edge">
<title>Node1&#45;&gt;Node72</title>
<path fill="none" stroke="midnightblue" d="M2236.81,-339.72C2302.57,-330.73 2437.31,-312.31 2520.98,-300.88"/>
<polygon fill="midnightblue" stroke="midnightblue" points="2521.49,-304.34 2530.92,-299.52 2520.54,-297.4 2521.49,-304.34"/>
</g>
<!-- Node73 -->
<g id="node43" class="node">
<title>Node73</title>
<g id="a_node43"><a xlink:href="memory___8h.html" target="_top" xlink:title=" ">
<polygon fill="white" stroke="black" points="1377.72,-168.5 1377.72,-187.5 1488.72,-187.5 1488.72,-168.5 1377.72,-168.5"/>
<text text-anchor="middle" x="1433.22" y="-175.5" font-family="FreeSans" font-size="10.00">magick/memory_.h</text>
</a>
</g>
</g>
<!-- Node1&#45;&gt;Node73 -->
<g id="edge66" class="edge">
<title>Node1&#45;&gt;Node73</title>
<path fill="none" stroke="midnightblue" d="M2159.46,-344.28C2002.94,-341.2 1424.64,-327.96 1398.22,-300 1375.01,-275.45 1387.25,-255.95 1398.22,-224 1401.93,-213.16 1409.45,-202.92 1416.56,-194.96"/>
<polygon fill="midnightblue" stroke="midnightblue" points="1419.27,-197.19 1423.66,-187.55 1414.21,-192.35 1419.27,-197.19"/>
</g>
<!-- Node74 -->
<g id="node44" class="node">
<title>Node74</title>
<g id="a_node44"><a xlink:href="monitor-private_8h.html" target="_top" xlink:title=" ">
<polygon fill="white" stroke="black" points="2712.72,-280.5 2712.72,-299.5 2853.72,-299.5 2853.72,-280.5 2712.72,-280.5"/>
<text text-anchor="middle" x="2783.22" y="-287.5" font-family="FreeSans" font-size="10.00">magick/monitor&#45;private.h</text>
</a>
</g>
</g>
<!-- Node1&#45;&gt;Node74 -->
<g id="edge70" class="edge">
<title>Node1&#45;&gt;Node74</title>
<path fill="none" stroke="midnightblue" d="M2236.82,-341.73C2320.77,-334.59 2526.25,-316.84 2698.22,-300 2699.5,-299.87 2700.8,-299.75 2702.11,-299.62"/>
<polygon fill="midnightblue" stroke="midnightblue" points="2702.66,-303.08 2712.26,-298.6 2701.96,-296.11 2702.66,-303.08"/>
</g>
<!-- Node75 -->
<g id="node45" class="node">
<title>Node75</title>
<g id="a_node45"><a xlink:href="pixel-private_8h.html" target="_top" xlink:title=" ">
<polygon fill="white" stroke="red" points="1642.22,-224.5 1642.22,-243.5 1768.22,-243.5 1768.22,-224.5 1642.22,-224.5"/>
<text text-anchor="middle" x="1705.22" y="-231.5" font-family="FreeSans" font-size="10.00">magick/pixel&#45;private.h</text>
</a>
</g>
</g>
<!-- Node1&#45;&gt;Node75 -->
<g id="edge71" class="edge">
<title>Node1&#45;&gt;Node75</title>
<path fill="none" stroke="midnightblue" d="M2159.5,-343.69C2069.68,-340.2 1849.67,-328.87 1782.22,-300 1756.7,-289.08 1733.24,-266.74 1719.09,-251.32"/>
<polygon fill="midnightblue" stroke="midnightblue" points="1721.48,-248.74 1712.23,-243.58 1716.24,-253.39 1721.48,-248.74"/>
</g>
<!-- Node77 -->
<g id="node46" class="node">
<title>Node77</title>
<g id="a_node46"><a xlink:href="property_8h.html" target="_top" xlink:title=" ">
<polygon fill="white" stroke="black" points="2910.22,-280.5 2910.22,-299.5 3014.22,-299.5 3014.22,-280.5 2910.22,-280.5"/>
<text text-anchor="middle" x="2962.22" y="-287.5" font-family="FreeSans" font-size="10.00">magick/property.h</text>
</a>
</g>
</g>
<!-- Node1&#45;&gt;Node77 -->
<g id="edge76" class="edge">
<title>Node1&#45;&gt;Node77</title>
<path fill="none" stroke="midnightblue" d="M2236.89,-343.47C2342.64,-339.09 2645.5,-325.14 2896.22,-300 2897.48,-299.87 2898.75,-299.74 2900.04,-299.6"/>
<polygon fill="midnightblue" stroke="midnightblue" points="2900.48,-303.08 2910.02,-298.47 2899.69,-296.12 2900.48,-303.08"/>
</g>
<!-- Node78 -->
<g id="node47" class="node">
<title>Node78</title>
<g id="a_node47"><a xlink:href="quantize_8h.html" target="_top" xlink:title=" ">
<polygon fill="white" stroke="black" points="2949.72,-224.5 2949.72,-243.5 3056.72,-243.5 3056.72,-224.5 2949.72,-224.5"/>
<text text-anchor="middle" x="3003.22" y="-231.5" font-family="FreeSans" font-size="10.00">magick/quantize.h</text>
</a>
</g>
</g>
<!-- Node1&#45;&gt;Node78 -->
<g id="edge77" class="edge">
<title>Node1&#45;&gt;Node78</title>
<path fill="none" stroke="midnightblue" d="M2236.83,-344.35C2396.21,-341.5 2995.86,-328.89 3023.22,-300 3035.59,-286.94 3026.14,-266.4 3016.47,-251.91"/>
<polygon fill="midnightblue" stroke="midnightblue" points="3019.31,-249.85 3010.62,-243.79 3013.63,-253.95 3019.31,-249.85"/>
</g>
<!-- Node59 -->
<g id="node48" class="node">
<title>Node59</title>
<g id="a_node48"><a xlink:href="resource___8h.html" target="_top" xlink:title=" ">
<polygon fill="white" stroke="black" points="3070.22,-280.5 3070.22,-299.5 3182.22,-299.5 3182.22,-280.5 3070.22,-280.5"/>
<text text-anchor="middle" x="3126.22" y="-287.5" font-family="FreeSans" font-size="10.00">magick/resource_.h</text>
</a>
</g>
</g>
<!-- Node1&#45;&gt;Node59 -->
<g id="edge80" class="edge">
<title>Node1&#45;&gt;Node59</title>
<path fill="none" stroke="midnightblue" d="M2236.77,-344.02C2357.74,-340.7 2740.53,-328.53 3056.22,-300 3057.49,-299.89 3058.77,-299.76 3060.06,-299.64"/>
<polygon fill="midnightblue" stroke="midnightblue" points="3060.51,-303.11 3070.09,-298.59 3059.78,-296.15 3060.51,-303.11"/>
</g>
<!-- Node79 -->
<g id="node49" class="node">
<title>Node79</title>
<g id="a_node49"><a xlink:href="string-private_8h.html" target="_top" xlink:title=" ">
<polygon fill="white" stroke="red" points="3200.72,-280.5 3200.72,-299.5 3331.72,-299.5 3331.72,-280.5 3200.72,-280.5"/>
<text text-anchor="middle" x="3266.22" y="-287.5" font-family="FreeSans" font-size="10.00">magick/string&#45;private.h</text>
</a>
</g>
</g>
<!-- Node1&#45;&gt;Node79 -->
<g id="edge82" class="edge">
<title>Node1&#45;&gt;Node79</title>
<path fill="none" stroke="midnightblue" d="M2237.08,-344.27C2369.11,-341.59 2812.69,-330.79 3190.36,-300"/>
<polygon fill="midnightblue" stroke="midnightblue" points="3190.71,-303.49 3200.39,-299.18 3190.14,-296.51 3190.71,-303.49"/>
</g>
<!-- Node81 -->
<g id="node50" class="node">
<title>Node81</title>
<g id="a_node50"><a xlink:href="utility_8h.html" target="_top" xlink:title=" ">
<polygon fill="white" stroke="black" points="3350.22,-280.5 3350.22,-299.5 3442.22,-299.5 3442.22,-280.5 3350.22,-280.5"/>
<text text-anchor="middle" x="3396.22" y="-287.5" font-family="FreeSans" font-size="10.00">magick/utility.h</text>
</a>
</g>
</g>
<!-- Node1&#45;&gt;Node81 -->
<g id="edge83" class="edge">
<title>Node1&#45;&gt;Node81</title>
<path fill="none" stroke="midnightblue" d="M2236.82,-345.2C2380.97,-345.57 2901.53,-343.68 3340.04,-299.98"/>
<polygon fill="midnightblue" stroke="midnightblue" points="3340.46,-303.46 3350.06,-298.98 3339.76,-296.49 3340.46,-303.46"/>
</g>
<!-- Node3 -->
<g id="node3" class="node">
<title>Node3</title>
<g id="a_node3"><a xlink:href="magick-config_8h.html" target="_top" xlink:title=" ">
<polygon fill="white" stroke="red" points="1151.22,-56.5 1151.22,-75.5 1285.22,-75.5 1285.22,-56.5 1151.22,-56.5"/>
<text text-anchor="middle" x="1218.22" y="-63.5" font-family="FreeSans" font-size="10.00">magick/magick&#45;config.h</text>
</a>
</g>
</g>
<!-- Node2&#45;&gt;Node3 -->
<g id="edge2" class="edge">
<title>Node2&#45;&gt;Node3</title>
<path fill="none" stroke="midnightblue" d="M827.89,-175.23C915.6,-171.32 1098.74,-159.99 1155.22,-132 1177.14,-121.13 1195.7,-99.44 1206.87,-84.11"/>
<polygon fill="midnightblue" stroke="midnightblue" points="1210,-85.75 1212.84,-75.54 1204.26,-81.75 1210,-85.75"/>
</g>
<!-- Node5 -->
<g id="node4" class="node">
<title>Node5</title>
<g id="a_node4"><a xlink:title=" ">
<polygon fill="white" stroke="#bfbfbf" points="1840.22,-0.5 1840.22,-19.5 1896.22,-19.5 1896.22,-0.5 1840.22,-0.5"/>
<text text-anchor="middle" x="1868.22" y="-7.5" font-family="FreeSans" font-size="10.00">stdarg.h</text>
</a>
</g>
</g>
<!-- Node2&#45;&gt;Node5 -->
<g id="edge3" class="edge">
<title>Node2&#45;&gt;Node5</title>
<path fill="none" stroke="midnightblue" d="M828.06,-175.6C944.91,-171.78 1242.18,-159.59 1337.22,-132 1355.54,-126.68 1357.24,-118.42 1375.22,-112 1538.73,-53.56 1745.5,-24.98 1829.81,-15.13"/>
<polygon fill="midnightblue" stroke="midnightblue" points="1830.4,-18.58 1839.94,-13.96 1829.61,-11.63 1830.4,-18.58"/>
</g>
<!-- Node6 -->
<g id="node5" class="node">
<title>Node6</title>
<g id="a_node5"><a xlink:title=" ">
<polygon fill="white" stroke="#bfbfbf" points="335.22,-112.5 335.22,-131.5 385.22,-131.5 385.22,-112.5 335.22,-112.5"/>
<text text-anchor="middle" x="360.22" y="-119.5" font-family="FreeSans" font-size="10.00">stdio.h</text>
</a>
</g>
</g>
<!-- Node2&#45;&gt;Node6 -->
<g id="edge4" class="edge">
<title>Node2&#45;&gt;Node6</title>
<path fill="none" stroke="midnightblue" d="M732.65,-173.65C661.31,-168.15 522.31,-155.57 395.28,-131.96"/>
<polygon fill="midnightblue" stroke="midnightblue" points="395.85,-128.5 385.37,-130.09 394.55,-135.38 395.85,-128.5"/>
</g>
<!-- Node7 -->
<g id="node6" class="node">
<title>Node7</title>
<g id="a_node6"><a xlink:title=" ">
<polygon fill="white" stroke="#bfbfbf" points="403.72,-112.5 403.72,-131.5 456.72,-131.5 456.72,-112.5 403.72,-112.5"/>
<text text-anchor="middle" x="430.22" y="-119.5" font-family="FreeSans" font-size="10.00">ctype.h</text>
</a>
</g>
</g>
<!-- Node2&#45;&gt;Node7 -->
<g id="edge5" class="edge">
<title>Node2&#45;&gt;Node7</title>
<path fill="none" stroke="midnightblue" d="M732.71,-171.86C672.8,-165.02 566.48,-151.66 466.83,-132.15"/>
<polygon fill="midnightblue" stroke="midnightblue" points="467.39,-128.7 456.9,-130.18 466.03,-135.56 467.39,-128.7"/>
</g>
<!-- Node8 -->
<g id="node7" class="node">
<title>Node8</title>
<g id="a_node7"><a xlink:title=" ">
<polygon fill="white" stroke="#bfbfbf" points="474.72,-112.5 474.72,-131.5 529.72,-131.5 529.72,-112.5 474.72,-112.5"/>
<text text-anchor="middle" x="502.22" y="-119.5" font-family="FreeSans" font-size="10.00">locale.h</text>
</a>
</g>
</g>
<!-- Node2&#45;&gt;Node8 -->
<g id="edge6" class="edge">
<title>Node2&#45;&gt;Node8</title>
<path fill="none" stroke="midnightblue" d="M732.29,-168.98C685.54,-160.95 612.19,-147.84 540.23,-132.35"/>
<polygon fill="midnightblue" stroke="midnightblue" points="540.6,-128.85 530.08,-130.15 539.11,-135.69 540.6,-128.85"/>
</g>
<!-- Node9 -->
<g id="node8" class="node">
<title>Node9</title>
<g id="a_node8"><a xlink:title=" ">
<polygon fill="white" stroke="#bfbfbf" points="1458.72,-112.5 1458.72,-131.5 1509.72,-131.5 1509.72,-112.5 1458.72,-112.5"/>
<text text-anchor="middle" x="1484.22" y="-119.5" font-family="FreeSans" font-size="10.00">errno.h</text>
</a>
</g>
</g>
<!-- Node2&#45;&gt;Node9 -->
<g id="edge7" class="edge">
<title>Node2&#45;&gt;Node9</title>
<path fill="none" stroke="midnightblue" d="M828.01,-176.8C936.67,-175.7 1210.59,-169.28 1448.12,-131.85"/>
<polygon fill="midnightblue" stroke="midnightblue" points="1449.01,-135.26 1458.33,-130.22 1447.91,-128.34 1449.01,-135.26"/>
</g>
<!-- Node10 -->
<g id="node9" class="node">
<title>Node10</title>
<g id="a_node9"><a xlink:title=" ">
<polygon fill="white" stroke="#bfbfbf" points="547.72,-112.5 547.72,-131.5 594.72,-131.5 594.72,-112.5 547.72,-112.5"/>
<text text-anchor="middle" x="571.22" y="-119.5" font-family="FreeSans" font-size="10.00">fcntl.h</text>
</a>
</g>
</g>
<!-- Node2&#45;&gt;Node10 -->
<g id="edge8" class="edge">
<title>Node2&#45;&gt;Node10</title>
<path fill="none" stroke="midnightblue" d="M745.55,-168.46C711.85,-160.1 658.95,-146.81 604.74,-132.37"/>
<polygon fill="midnightblue" stroke="midnightblue" points="605.53,-128.95 594.96,-129.75 603.72,-135.72 605.53,-128.95"/>
</g>
<!-- Node11 -->
<g id="node10" class="node">
<title>Node11</title>
<g id="a_node10"><a xlink:title=" ">
<polygon fill="white" stroke="#bfbfbf" points="612.72,-112.5 612.72,-131.5 663.72,-131.5 663.72,-112.5 612.72,-112.5"/>
<text text-anchor="middle" x="638.22" y="-119.5" font-family="FreeSans" font-size="10.00">math.h</text>
</a>
</g>
</g>
<!-- Node2&#45;&gt;Node11 -->
<g id="edge9" class="edge">
<title>Node2&#45;&gt;Node11</title>
<path fill="none" stroke="midnightblue" d="M757.72,-168.44C734.14,-159.48 696.89,-145.31 670.25,-135.18"/>
<polygon fill="midnightblue" stroke="midnightblue" points="671.2,-131.8 660.61,-131.52 668.71,-138.34 671.2,-131.8"/>
</g>
<!-- Node12 -->
<g id="node11" class="node">
<title>Node12</title>
<g id="a_node11"><a xlink:title=" ">
<polygon fill="white" stroke="#bfbfbf" points="2396.22,-112.5 2396.22,-131.5 2444.22,-131.5 2444.22,-112.5 2396.22,-112.5"/>
<text text-anchor="middle" x="2420.22" y="-119.5" font-family="FreeSans" font-size="10.00">time.h</text>
</a>
</g>
</g>
<!-- Node2&#45;&gt;Node12 -->
<g id="edge10" class="edge">
<title>Node2&#45;&gt;Node12</title>
<path fill="none" stroke="midnightblue" d="M827.88,-175.45C1003.7,-169.71 1632.63,-149.19 2151.22,-132 2235.58,-129.2 2334.83,-125.87 2385.95,-124.15"/>
<polygon fill="midnightblue" stroke="midnightblue" points="2386.23,-127.65 2396.1,-123.81 2385.99,-120.65 2386.23,-127.65"/>
</g>
<!-- Node13 -->
<g id="node12" class="node">
<title>Node13</title>
<g id="a_node12"><a xlink:title=" ">
<polygon fill="white" stroke="#bfbfbf" points="681.72,-112.5 681.72,-131.5 734.72,-131.5 734.72,-112.5 681.72,-112.5"/>
<text text-anchor="middle" x="708.22" y="-119.5" font-family="FreeSans" font-size="10.00">limits.h</text>
</a>
</g>
</g>
<!-- Node2&#45;&gt;Node13 -->
<g id="edge11" class="edge">
<title>Node2&#45;&gt;Node13</title>
<path fill="none" stroke="midnightblue" d="M768.65,-168.32C757.8,-160.18 741.33,-147.84 728.33,-138.09"/>
<polygon fill="midnightblue" stroke="midnightblue" points="730.09,-135.03 719.99,-131.83 725.89,-140.63 730.09,-135.03"/>
</g>
<!-- Node14 -->
<g id="node13" class="node">
<title>Node14</title>
<g id="a_node13"><a xlink:title=" ">
<polygon fill="white" stroke="#bfbfbf" points="752.72,-112.5 752.72,-131.5 807.72,-131.5 807.72,-112.5 752.72,-112.5"/>
<text text-anchor="middle" x="780.22" y="-119.5" font-family="FreeSans" font-size="10.00">signal.h</text>
</a>
</g>
</g>
<!-- Node2&#45;&gt;Node14 -->
<g id="edge12" class="edge">
<title>Node2&#45;&gt;Node14</title>
<path fill="none" stroke="midnightblue" d="M780.22,-168.08C780.22,-161.01 780.22,-150.86 780.22,-141.99"/>
<polygon fill="midnightblue" stroke="midnightblue" points="783.72,-141.75 780.22,-131.75 776.72,-141.75 783.72,-141.75"/>
</g>
<!-- Node15 -->
<g id="node14" class="node">
<title>Node15</title>
<g id="a_node14"><a xlink:title=" ">
<polygon fill="white" stroke="#bfbfbf" points="1384.22,-112.5 1384.22,-131.5 1440.22,-131.5 1440.22,-112.5 1384.22,-112.5"/>
<text text-anchor="middle" x="1412.22" y="-119.5" font-family="FreeSans" font-size="10.00">assert.h</text>
</a>
</g>
</g>
<!-- Node2&#45;&gt;Node15 -->
<g id="edge13" class="edge">
<title>Node2&#45;&gt;Node15</title>
<path fill="none" stroke="midnightblue" d="M827.87,-175.55C928.51,-172 1169.92,-160.96 1370.22,-132 1371.46,-131.82 1372.72,-131.62 1374,-131.42"/>
<polygon fill="midnightblue" stroke="midnightblue" points="1374.63,-134.86 1383.84,-129.62 1373.38,-127.97 1374.63,-134.86"/>
</g>
<!-- Node16 -->
<g id="node15" class="node">
<title>Node16</title>
<g id="a_node15"><a xlink:href="method-attribute_8h.html" target="_top" xlink:title=" ">
<polygon fill="white" stroke="black" points="826.22,-112.5 826.22,-131.5 974.22,-131.5 974.22,-112.5 826.22,-112.5"/>
<text text-anchor="middle" x="900.22" y="-119.5" font-family="FreeSans" font-size="10.00">magick/method&#45;attribute.h</text>
</a>
</g>
</g>
<!-- Node2&#45;&gt;Node16 -->
<g id="edge14" class="edge">
<title>Node2&#45;&gt;Node16</title>
<path fill="none" stroke="midnightblue" d="M799.23,-168.44C818.8,-159.64 849.52,-145.81 871.94,-135.72"/>
<polygon fill="midnightblue" stroke="midnightblue" points="873.61,-138.81 881.29,-131.52 870.73,-132.43 873.61,-138.81"/>
</g>
<!-- Node17 -->
<g id="node16" class="node">
<title>Node17</title>
<g id="a_node16"><a xlink:title=" ">
<polygon fill="white" stroke="#bfbfbf" points="992.22,-112.5 992.22,-131.5 1064.22,-131.5 1064.22,-112.5 992.22,-112.5"/>
<text text-anchor="middle" x="1028.22" y="-119.5" font-family="FreeSans" font-size="10.00">sys/types.h</text>
</a>
</g>
</g>
<!-- Node2&#45;&gt;Node17 -->
<g id="edge15" class="edge">
<title>Node2&#45;&gt;Node17</title>
<path fill="none" stroke="midnightblue" d="M819.51,-168.44C863.67,-158.83 935.27,-143.24 982.05,-133.05"/>
<polygon fill="midnightblue" stroke="midnightblue" points="982.9,-136.45 991.93,-130.9 981.41,-129.61 982.9,-136.45"/>
</g>
<!-- Node18 -->
<g id="node17" class="node">
<title>Node18</title>
<g id="a_node17"><a xlink:title=" ">
<polygon fill="white" stroke="#bfbfbf" points="1082.22,-112.5 1082.22,-131.5 1146.22,-131.5 1146.22,-112.5 1082.22,-112.5"/>
<text text-anchor="middle" x="1114.22" y="-119.5" font-family="FreeSans" font-size="10.00">sys/stat.h</text>
</a>
</g>
</g>
<!-- Node2&#45;&gt;Node18 -->
<g id="edge16" class="edge">
<title>Node2&#45;&gt;Node18</title>
<path fill="none" stroke="midnightblue" d="M827.82,-170.64C883.88,-162.94 980.02,-149.07 1071.99,-132.13"/>
<polygon fill="midnightblue" stroke="midnightblue" points="1072.83,-135.54 1082.03,-130.27 1071.55,-128.65 1072.83,-135.54"/>
</g>
<!-- Node19 -->
<g id="node18" class="node">
<title>Node19</title>
<g id="a_node18"><a xlink:title=" ">
<polygon fill="white" stroke="#bfbfbf" points="29.22,-112.5 29.22,-131.5 83.22,-131.5 83.22,-112.5 29.22,-112.5"/>
<text text-anchor="middle" x="56.22" y="-119.5" font-family="FreeSans" font-size="10.00">dirent.h</text>
</a>
</g>
</g>
<!-- Node2&#45;&gt;Node19 -->
<g id="edge17" class="edge">
<title>Node2&#45;&gt;Node19</title>
<path fill="none" stroke="midnightblue" d="M732.35,-176.82C621.46,-175.76 338.39,-169.45 93.4,-131.89"/>
<polygon fill="midnightblue" stroke="midnightblue" points="93.65,-128.39 83.24,-130.31 92.58,-135.3 93.65,-128.39"/>
</g>
<!-- Node20 -->
<g id="node19" class="node">
<title>Node20</title>
<g id="a_node19"><a xlink:title=" ">
<polygon fill="white" stroke="#bfbfbf" points="101.22,-112.5 101.22,-131.5 167.22,-131.5 167.22,-112.5 101.22,-112.5"/>
<text text-anchor="middle" x="134.22" y="-119.5" font-family="FreeSans" font-size="10.00">sys/wait.h</text>
</a>
</g>
</g>
<!-- Node2&#45;&gt;Node20 -->
<g id="edge18" class="edge">
<title>Node2&#45;&gt;Node20</title>
<path fill="none" stroke="midnightblue" d="M732.6,-175.66C631.88,-172.36 389.76,-161.91 177.69,-132.02"/>
<polygon fill="midnightblue" stroke="midnightblue" points="178.01,-128.54 167.61,-130.59 177.02,-135.46 178.01,-128.54"/>
</g>
<!-- Node21 -->
<g id="node20" class="node">
<title>Node21</title>
<g id="a_node20"><a xlink:title=" ">
<polygon fill="white" stroke="#bfbfbf" points="185.22,-112.5 185.22,-131.5 231.22,-131.5 231.22,-112.5 185.22,-112.5"/>
<text text-anchor="middle" x="208.22" y="-119.5" font-family="FreeSans" font-size="10.00">pwd.h</text>
</a>
</g>
</g>
<!-- Node2&#45;&gt;Node21 -->
<g id="edge19" class="edge">
<title>Node2&#45;&gt;Node21</title>
<path fill="none" stroke="midnightblue" d="M732.51,-176.08C639.54,-173.62 427.67,-164.79 241.48,-131.9"/>
<polygon fill="midnightblue" stroke="midnightblue" points="241.98,-128.43 231.51,-130.11 240.74,-135.32 241.98,-128.43"/>
</g>
<!-- Node22 -->
<g id="node21" class="node">
<title>Node22</title>
<g id="a_node21"><a xlink:href="magick-type_8h.html" target="_top" xlink:title=" ">
<polygon fill="white" stroke="black" points="1202.22,-112.5 1202.22,-131.5 1328.22,-131.5 1328.22,-112.5 1202.22,-112.5"/>
<text text-anchor="middle" x="1265.22" y="-119.5" font-family="FreeSans" font-size="10.00">magick/magick&#45;type.h</text>
</a>
</g>
</g>
<!-- Node2&#45;&gt;Node22 -->
<g id="edge20" class="edge">
<title>Node2&#45;&gt;Node22</title>
<path fill="none" stroke="midnightblue" d="M827.96,-171.84C904.16,-163.57 1057.93,-146.8 1188.22,-132 1189.49,-131.85 1190.79,-131.71 1192.08,-131.56"/>
<polygon fill="midnightblue" stroke="midnightblue" points="1192.65,-135.02 1202.19,-130.4 1191.85,-128.06 1192.65,-135.02"/>
</g>
<!-- Node23 -->
<g id="node22" class="node">
<title>Node23</title>
<g id="a_node22"><a xlink:title=" ">
<polygon fill="white" stroke="#bfbfbf" points="249.22,-112.5 249.22,-131.5 317.22,-131.5 317.22,-112.5 249.22,-112.5"/>
<text text-anchor="middle" x="283.22" y="-119.5" font-family="FreeSans" font-size="10.00">sys/time.h</text>
</a>
</g>
</g>
<!-- Node2&#45;&gt;Node23 -->
<g id="edge22" class="edge">
<title>Node2&#45;&gt;Node23</title>
<path fill="none" stroke="midnightblue" d="M732.62,-173.97C651.5,-168.45 481.11,-155.24 327.51,-132.05"/>
<polygon fill="midnightblue" stroke="midnightblue" points="327.84,-128.56 317.42,-130.51 326.78,-135.48 327.84,-128.56"/>
</g>
<!-- Node22&#45;&gt;Node3 -->
<g id="edge21" class="edge">
<title>Node22&#45;&gt;Node3</title>
<path fill="none" stroke="midnightblue" d="M1257.45,-112.08C1250.68,-104.3 1240.67,-92.8 1232.46,-83.37"/>
<polygon fill="midnightblue" stroke="midnightblue" points="1235.04,-81 1225.83,-75.75 1229.76,-85.59 1235.04,-81"/>
</g>
<!-- Node24&#45;&gt;Node25 -->
<g id="edge24" class="edge">
<title>Node24&#45;&gt;Node25</title>
<path fill="none" stroke="midnightblue" d="M1548.02,-224.97C1615.09,-214.97 1729.27,-197.94 1798.23,-187.65"/>
<polygon fill="midnightblue" stroke="midnightblue" points="1799.1,-191.06 1808.48,-186.12 1798.07,-184.13 1799.1,-191.06"/>
</g>
<!-- Node24&#45;&gt;Node30 -->
<g id="edge35" class="edge">
<title>Node24&#45;&gt;Node30</title>
<path fill="none" stroke="midnightblue" d="M1495.93,-224.19C1500.88,-201.38 1517.43,-140.24 1557.22,-112 1595.32,-84.95 1721.69,-73.95 1801.14,-69.64"/>
<polygon fill="midnightblue" stroke="midnightblue" points="1801.74,-73.11 1811.54,-69.09 1801.37,-66.12 1801.74,-73.11"/>
</g>
<!-- Node25&#45;&gt;Node26 -->
<g id="edge25" class="edge">
<title>Node25&#45;&gt;Node26</title>
<path fill="none" stroke="midnightblue" d="M1858.2,-168.08C1859.79,-160.93 1862.07,-150.64 1864.06,-141.69"/>
<polygon fill="midnightblue" stroke="midnightblue" points="1867.52,-142.27 1866.27,-131.75 1860.68,-140.75 1867.52,-142.27"/>
</g>
<!-- Node32 -->
<g id="node27" class="node">
<title>Node32</title>
<g id="a_node27"><a xlink:href="blob_8h.html" target="_top" xlink:title=" ">
<polygon fill="white" stroke="red" points="2056.22,-112.5 2056.22,-131.5 2142.22,-131.5 2142.22,-112.5 2056.22,-112.5"/>
<text text-anchor="middle" x="2099.22" y="-119.5" font-family="FreeSans" font-size="10.00">magick/blob.h</text>
</a>
</g>
</g>
<!-- Node25&#45;&gt;Node32 -->
<g id="edge28" class="edge">
<title>Node25&#45;&gt;Node32</title>
<path fill="none" stroke="midnightblue" d="M1889.63,-168.44C1930.04,-159 1998.31,-143.8 2045.97,-133.61"/>
<polygon fill="midnightblue" stroke="midnightblue" points="2046.76,-137.02 2055.81,-131.52 2045.3,-130.18 2046.76,-137.02"/>
</g>
<!-- Node25&#45;&gt;Node28 -->
<g id="edge30" class="edge">
<title>Node25&#45;&gt;Node28</title>
<path fill="none" stroke="midnightblue" d="M1903.75,-169.09C1906.95,-168.69 1910.13,-168.31 1913.22,-168 2249.71,-133.73 2654.63,-125.53 2813.51,-123.59"/>
<polygon fill="midnightblue" stroke="midnightblue" points="2813.66,-127.09 2823.61,-123.47 2813.57,-120.09 2813.66,-127.09"/>
</g>
<!-- Node25&#45;&gt;Node34 -->
<g id="edge31" class="edge">
<title>Node25&#45;&gt;Node34</title>
<path fill="none" stroke="midnightblue" d="M1819.77,-168.44C1779.82,-159.06 1715.63,-143.99 1672.23,-133.8"/>
<polygon fill="midnightblue" stroke="midnightblue" points="1673.02,-130.39 1662.49,-131.52 1671.42,-137.21 1673.02,-130.39"/>
</g>
<!-- Node25&#45;&gt;Node43 -->
<g id="edge32" class="edge">
<title>Node25&#45;&gt;Node43</title>
<path fill="none" stroke="midnightblue" d="M1839.99,-168.32C1823.86,-159.7 1798.92,-146.36 1780.25,-136.39"/>
<polygon fill="midnightblue" stroke="midnightblue" points="1781.87,-133.28 1771.4,-131.65 1778.57,-139.46 1781.87,-133.28"/>
</g>
<!-- Node25&#45;&gt;Node46 -->
<g id="edge33" class="edge">
<title>Node25&#45;&gt;Node46</title>
<path fill="none" stroke="midnightblue" d="M1871.41,-168.44C1890.69,-159.48 1924.05,-145.31 1949.59,-135.18"/>
<polygon fill="midnightblue" stroke="midnightblue" points="1950.91,-138.42 1958.95,-131.52 1948.36,-131.9 1950.91,-138.42"/>
</g>
<!-- Node26&#45;&gt;Node30 -->
<g id="edge26" class="edge">
<title>Node26&#45;&gt;Node30</title>
<path fill="none" stroke="midnightblue" d="M1868.22,-112.08C1868.22,-105.01 1868.22,-94.86 1868.22,-85.99"/>
<polygon fill="midnightblue" stroke="midnightblue" points="1871.72,-85.75 1868.22,-75.75 1864.72,-85.75 1871.72,-85.75"/>
</g>
<!-- Node30&#45;&gt;Node5 -->
<g id="edge27" class="edge">
<title>Node30&#45;&gt;Node5</title>
<path fill="none" stroke="midnightblue" d="M1868.22,-56.08C1868.22,-49.01 1868.22,-38.86 1868.22,-29.99"/>
<polygon fill="midnightblue" stroke="midnightblue" points="1871.72,-29.75 1868.22,-19.75 1864.72,-29.75 1871.72,-29.75"/>
</g>
<!-- Node32&#45;&gt;Node25 -->
<g id="edge29" class="edge">
<title>Node32&#45;&gt;Node25</title>
<path fill="none" stroke="midnightblue" d="M2065.97,-131.52C2025.64,-140.94 1957.38,-156.14 1909.66,-166.35"/>
<polygon fill="midnightblue" stroke="midnightblue" points="1908.86,-162.94 1899.81,-168.44 1910.32,-169.78 1908.86,-162.94"/>
</g>
<!-- Node46&#45;&gt;Node25 -->
<g id="edge34" class="edge">
<title>Node46&#45;&gt;Node25</title>
<path fill="none" stroke="midnightblue" d="M1969.11,-131.52C1949.86,-140.47 1916.52,-154.63 1890.96,-164.77"/>
<polygon fill="midnightblue" stroke="midnightblue" points="1889.62,-161.54 1881.59,-168.44 1892.17,-168.05 1889.62,-161.54"/>
</g>
<!-- Node51&#45;&gt;Node32 -->
<g id="edge37" class="edge">
<title>Node51&#45;&gt;Node32</title>
<path fill="none" stroke="midnightblue" d="M2181.47,-168.32C2165.9,-159.74 2141.84,-146.49 2123.76,-136.52"/>
<polygon fill="midnightblue" stroke="midnightblue" points="2125.37,-133.42 2114.92,-131.65 2121.99,-139.55 2125.37,-133.42"/>
</g>
<!-- Node52&#45;&gt;Node12 -->
<g id="edge39" class="edge">
<title>Node52&#45;&gt;Node12</title>
<path fill="none" stroke="midnightblue" d="M2353.14,-224.49C2375.78,-218.17 2399.51,-207.16 2414.22,-188 2424.23,-174.95 2424.82,-155.79 2423.45,-141.66"/>
<polygon fill="midnightblue" stroke="midnightblue" points="2426.9,-141.04 2422.07,-131.61 2419.96,-141.99 2426.9,-141.04"/>
</g>
<!-- Node52&#45;&gt;Node51 -->
<g id="edge40" class="edge">
<title>Node52&#45;&gt;Node51</title>
<path fill="none" stroke="midnightblue" d="M2276.95,-224.32C2261.99,-215.82 2238.96,-202.73 2221.49,-192.8"/>
<polygon fill="midnightblue" stroke="midnightblue" points="2222.86,-189.55 2212.44,-187.65 2219.41,-195.64 2222.86,-189.55"/>
</g>
<!-- Node53 -->
<g id="node34" class="node">
<title>Node53</title>
<g id="a_node34"><a xlink:href="distribute-cache_8h.html" target="_top" xlink:title=" ">
<polygon fill="white" stroke="black" points="2261.72,-168.5 2261.72,-187.5 2404.72,-187.5 2404.72,-168.5 2261.72,-168.5"/>
<text text-anchor="middle" x="2333.22" y="-175.5" font-family="FreeSans" font-size="10.00">magick/distribute&#45;cache.h</text>
</a>
</g>
</g>
<!-- Node52&#45;&gt;Node53 -->
<g id="edge41" class="edge">
<title>Node52&#45;&gt;Node53</title>
<path fill="none" stroke="midnightblue" d="M2298.99,-224.08C2304.78,-216.46 2313.27,-205.26 2320.35,-195.94"/>
<polygon fill="midnightblue" stroke="midnightblue" points="2323.31,-197.83 2326.57,-187.75 2317.74,-193.6 2323.31,-197.83"/>
</g>
<!-- Node53&#45;&gt;Node30 -->
<g id="edge42" class="edge">
<title>Node53&#45;&gt;Node30</title>
<path fill="none" stroke="midnightblue" d="M2313.13,-168.43C2279.99,-154.62 2211.51,-127.42 2151.22,-112 2078.35,-93.37 1992.86,-81.05 1935.06,-74.08"/>
<polygon fill="midnightblue" stroke="midnightblue" points="1935.3,-70.59 1924.95,-72.89 1934.47,-77.54 1935.3,-70.59"/>
</g>
<!-- Node61&#45;&gt;Node25 -->
<g id="edge46" class="edge">
<title>Node61&#45;&gt;Node25</title>
<path fill="none" stroke="midnightblue" d="M2026.89,-280.07C2021.24,-266.12 2008.5,-239.19 1989.22,-224 1967.49,-206.89 1938.9,-196.11 1913.8,-189.4"/>
<polygon fill="midnightblue" stroke="midnightblue" points="1914.57,-185.99 1904.01,-186.95 1912.86,-192.78 1914.57,-185.99"/>
</g>
<!-- Node61&#45;&gt;Node26 -->
<g id="edge48" class="edge">
<title>Node61&#45;&gt;Node26</title>
<path fill="none" stroke="midnightblue" d="M2037.4,-280.37C2054.29,-259.01 2093.03,-202.88 2065.22,-168 2060.66,-162.29 1978.7,-144.97 1921.94,-133.56"/>
<polygon fill="midnightblue" stroke="midnightblue" points="1922.51,-130.1 1912.02,-131.57 1921.13,-136.97 1922.51,-130.1"/>
</g>
<!-- Node61&#45;&gt;Node58 -->
<g id="edge47" class="edge">
<title>Node61&#45;&gt;Node58</title>
<path fill="none" stroke="midnightblue" d="M2030.51,-280.25C2030.65,-267.43 2029.76,-243.02 2022.22,-224 2018.12,-213.68 2011.09,-203.59 2004.56,-195.58"/>
<polygon fill="midnightblue" stroke="midnightblue" points="2007.02,-193.08 1997.84,-187.8 2001.73,-197.66 2007.02,-193.08"/>
</g>
<!-- Node61&#45;&gt;Node62 -->
<g id="edge49" class="edge">
<title>Node61&#45;&gt;Node62</title>
<path fill="none" stroke="midnightblue" d="M2009.93,-280.44C1988.87,-271.56 1955.7,-257.56 1931.73,-247.45"/>
<polygon fill="midnightblue" stroke="midnightblue" points="1932.98,-244.18 1922.4,-243.52 1930.26,-250.63 1932.98,-244.18"/>
</g>
<!-- Node61&#45;&gt;Node68 -->
<g id="edge52" class="edge">
<title>Node61&#45;&gt;Node68</title>
<path fill="none" stroke="midnightblue" d="M2093.96,-281.83C2178.84,-272.28 2329.3,-255.35 2424.18,-244.68"/>
<polygon fill="midnightblue" stroke="midnightblue" points="2424.78,-248.13 2434.33,-243.54 2424,-241.18 2424.78,-248.13"/>
</g>
<!-- Node62&#45;&gt;Node25 -->
<g id="edge50" class="edge">
<title>Node62&#45;&gt;Node25</title>
<path fill="none" stroke="midnightblue" d="M1894.62,-224.08C1887.99,-216.3 1878.19,-204.8 1870.16,-195.37"/>
<polygon fill="midnightblue" stroke="midnightblue" points="1872.82,-193.09 1863.67,-187.75 1867.49,-197.63 1872.82,-193.09"/>
</g>
<!-- Node62&#45;&gt;Node58 -->
<g id="edge51" class="edge">
<title>Node62&#45;&gt;Node58</title>
<path fill="none" stroke="midnightblue" d="M1916.19,-224.32C1929.77,-215.9 1950.6,-202.97 1966.54,-193.07"/>
<polygon fill="midnightblue" stroke="midnightblue" points="1968.62,-195.9 1975.27,-187.65 1964.93,-189.95 1968.62,-195.9"/>
</g>
<!-- Node68&#45;&gt;Node45 -->
<g id="edge53" class="edge">
<title>Node68&#45;&gt;Node45</title>
<path fill="none" stroke="midnightblue" d="M2510.22,-224.08C2510.22,-217.01 2510.22,-206.86 2510.22,-197.99"/>
<polygon fill="midnightblue" stroke="midnightblue" points="2513.72,-197.75 2510.22,-187.75 2506.72,-197.75 2513.72,-197.75"/>
</g>
<!-- Node45&#45;&gt;Node5 -->
<g id="edge54" class="edge">
<title>Node45&#45;&gt;Node5</title>
<path fill="none" stroke="midnightblue" d="M2508.7,-168.21C2505.74,-153.96 2497.8,-125.98 2479.22,-112 2387.78,-43.23 2026.08,-19 1906.69,-12.78"/>
<polygon fill="midnightblue" stroke="midnightblue" points="1906.72,-9.28 1896.55,-12.27 1906.36,-16.27 1906.72,-9.28"/>
</g>
<!-- Node45&#45;&gt;Node12 -->
<g id="edge55" class="edge">
<title>Node45&#45;&gt;Node12</title>
<path fill="none" stroke="midnightblue" d="M2495.76,-168.32C2481.72,-159.9 2460.17,-146.97 2443.67,-137.07"/>
<polygon fill="midnightblue" stroke="midnightblue" points="2445.02,-133.8 2434.64,-131.65 2441.41,-139.8 2445.02,-133.8"/>
</g>
<!-- Node45&#45;&gt;Node30 -->
<g id="edge56" class="edge">
<title>Node45&#45;&gt;Node30</title>
<path fill="none" stroke="midnightblue" d="M2505.63,-168.35C2497.36,-153.76 2478.45,-124.62 2453.22,-112 2407.82,-89.29 2078.41,-74.66 1934.83,-69.3"/>
<polygon fill="midnightblue" stroke="midnightblue" points="1934.94,-65.8 1924.82,-68.93 1934.68,-72.8 1934.94,-65.8"/>
</g>
<!-- Node73&#45;&gt;Node9 -->
<g id="edge67" class="edge">
<title>Node73&#45;&gt;Node9</title>
<path fill="none" stroke="midnightblue" d="M1441.64,-168.08C1449.06,-160.22 1460.07,-148.57 1469.03,-139.08"/>
<polygon fill="midnightblue" stroke="midnightblue" points="1471.63,-141.42 1475.95,-131.75 1466.54,-136.62 1471.63,-141.42"/>
</g>
<!-- Node73&#45;&gt;Node15 -->
<g id="edge68" class="edge">
<title>Node73&#45;&gt;Node15</title>
<path fill="none" stroke="midnightblue" d="M1429.75,-168.08C1426.9,-160.77 1422.79,-150.18 1419.26,-141.1"/>
<polygon fill="midnightblue" stroke="midnightblue" points="1422.51,-139.8 1415.62,-131.75 1415.98,-142.34 1422.51,-139.8"/>
</g>
<!-- Node75&#45;&gt;Node25 -->
<g id="edge72" class="edge">
<title>Node75&#45;&gt;Node25</title>
<path fill="none" stroke="midnightblue" d="M1729.14,-224.44C1754.43,-215.4 1794.52,-201.06 1822.9,-190.92"/>
<polygon fill="midnightblue" stroke="midnightblue" points="1824.16,-194.18 1832.4,-187.52 1821.81,-187.59 1824.16,-194.18"/>
</g>
<!-- Node75&#45;&gt;Node26 -->
<g id="edge73" class="edge">
<title>Node75&#45;&gt;Node26</title>
<path fill="none" stroke="midnightblue" d="M1717.77,-224.32C1735.92,-211.79 1770.54,-187.97 1800.22,-168 1815.67,-157.6 1833.21,-146 1846.61,-137.18"/>
<polygon fill="midnightblue" stroke="midnightblue" points="1848.71,-139.99 1855.14,-131.57 1844.86,-134.14 1848.71,-139.99"/>
</g>
<!-- Node75&#45;&gt;Node58 -->
<g id="edge74" class="edge">
<title>Node75&#45;&gt;Node58</title>
<path fill="none" stroke="midnightblue" d="M1750.22,-224.44C1800.17,-214.94 1880.82,-199.61 1934.41,-189.42"/>
<polygon fill="midnightblue" stroke="midnightblue" points="1935.26,-192.82 1944.43,-187.52 1933.95,-185.95 1935.26,-192.82"/>
</g>
<!-- Node75&#45;&gt;Node73 -->
<g id="edge75" class="edge">
<title>Node75&#45;&gt;Node73</title>
<path fill="none" stroke="midnightblue" d="M1662.12,-224.44C1614.37,-214.96 1537.35,-199.67 1486.02,-189.48"/>
<polygon fill="midnightblue" stroke="midnightblue" points="1486.6,-186.03 1476.11,-187.52 1485.24,-192.9 1486.6,-186.03"/>
</g>
<!-- Node78&#45;&gt;Node28 -->
<g id="edge78" class="edge">
<title>Node78&#45;&gt;Node28</title>
<path fill="none" stroke="midnightblue" d="M2993.72,-224.37C2973.31,-205.81 2925.02,-161.91 2899.2,-138.44"/>
<polygon fill="midnightblue" stroke="midnightblue" points="2901.42,-135.73 2891.67,-131.59 2896.71,-140.91 2901.42,-135.73"/>
</g>
</g>
</svg>
