<?xml version="1.0" encoding="UTF-8" standalone="no"?>
<!DOCTYPE svg PUBLIC "-//W3C//DTD SVG 1.1//EN"
 "http://www.w3.org/Graphics/SVG/1.1/DTD/svg11.dtd">
<!-- Generated by graphviz version 2.43.0 (0)
 -->
<!-- Title: color&#45;private.h Pages: 1 -->
<svg width="3484pt" height="84pt"
 viewBox="0.00 0.00 3484.00 84.00" xmlns="http://www.w3.org/2000/svg" xmlns:xlink="http://www.w3.org/1999/xlink">
<g id="graph0" class="graph" transform="scale(1 1) rotate(0) translate(4 80)">
<title>color&#45;private.h</title>
<polygon fill="white" stroke="transparent" points="-4,4 -4,-80 3480,-80 3480,4 -4,4"/>
<!-- Node1 -->
<g id="node1" class="node">
<title>Node1</title>
<g id="a_node1"><a xlink:title=" ">
<polygon fill="#bfbfbf" stroke="black" points="1647,-56.5 1647,-75.5 1735,-75.5 1735,-56.5 1647,-56.5"/>
<text text-anchor="middle" x="1691" y="-63.5" font-family="FreeSans" font-size="10.00">color&#45;private.h</text>
</a>
</g>
</g>
<!-- Node2 -->
<g id="node2" class="node">
<title>Node2</title>
<g id="a_node2"><a xlink:href="accelerate_8c.html" target="_top" xlink:title=" ">
<polygon fill="white" stroke="black" points="0,-0.5 0,-19.5 76,-19.5 76,-0.5 0,-0.5"/>
<text text-anchor="middle" x="38" y="-7.5" font-family="FreeSans" font-size="10.00">accelerate.c</text>
</a>
</g>
</g>
<!-- Node1&#45;&gt;Node2 -->
<g id="edge1" class="edge">
<title>Node1&#45;&gt;Node2</title>
<path fill="none" stroke="midnightblue" d="M1636.65,-64.65C1392.52,-62.92 395.6,-53.87 85,-20 82.11,-19.68 79.13,-19.29 76.14,-18.84"/>
<polygon fill="midnightblue" stroke="midnightblue" points="1636.68,-68.15 1646.7,-64.72 1636.73,-61.15 1636.68,-68.15"/>
</g>
<!-- Node3 -->
<g id="node3" class="node">
<title>Node3</title>
<g id="a_node3"><a xlink:href="animate_8c.html" target="_top" xlink:title=" ">
<polygon fill="white" stroke="black" points="94.5,-0.5 94.5,-19.5 159.5,-19.5 159.5,-0.5 94.5,-0.5"/>
<text text-anchor="middle" x="127" y="-7.5" font-family="FreeSans" font-size="10.00">animate.c</text>
</a>
</g>
</g>
<!-- Node1&#45;&gt;Node3 -->
<g id="edge2" class="edge">
<title>Node1&#45;&gt;Node3</title>
<path fill="none" stroke="midnightblue" d="M1636.81,-64.72C1400.87,-63.28 461.86,-55.41 169,-20 166.04,-19.64 162.98,-19.18 159.92,-18.64"/>
<polygon fill="midnightblue" stroke="midnightblue" points="1636.85,-68.22 1646.87,-64.78 1636.89,-61.22 1636.85,-68.22"/>
</g>
<!-- Node4 -->
<g id="node4" class="node">
<title>Node4</title>
<g id="a_node4"><a xlink:href="annotate_8c.html" target="_top" xlink:title=" ">
<polygon fill="white" stroke="black" points="178,-0.5 178,-19.5 246,-19.5 246,-0.5 178,-0.5"/>
<text text-anchor="middle" x="212" y="-7.5" font-family="FreeSans" font-size="10.00">annotate.c</text>
</a>
</g>
</g>
<!-- Node1&#45;&gt;Node4 -->
<g id="edge3" class="edge">
<title>Node1&#45;&gt;Node4</title>
<path fill="none" stroke="midnightblue" d="M1636.93,-64.57C1409.58,-62.58 530.17,-52.85 255,-20 252.12,-19.66 249.15,-19.22 246.18,-18.72"/>
<polygon fill="midnightblue" stroke="midnightblue" points="1636.92,-68.07 1646.95,-64.66 1636.98,-61.07 1636.92,-68.07"/>
</g>
<!-- Node5 -->
<g id="node5" class="node">
<title>Node5</title>
<g id="a_node5"><a xlink:href="attribute_8c.html" target="_top" xlink:title=" ">
<polygon fill="white" stroke="black" points="264.5,-0.5 264.5,-19.5 331.5,-19.5 331.5,-0.5 264.5,-0.5"/>
<text text-anchor="middle" x="298" y="-7.5" font-family="FreeSans" font-size="10.00">attribute.c</text>
</a>
</g>
</g>
<!-- Node1&#45;&gt;Node5 -->
<g id="edge4" class="edge">
<title>Node1&#45;&gt;Node5</title>
<path fill="none" stroke="midnightblue" d="M1636.6,-64.48C1417.26,-62.18 597.39,-51.61 340,-20 337.34,-19.67 334.59,-19.26 331.84,-18.79"/>
<polygon fill="midnightblue" stroke="midnightblue" points="1636.85,-67.98 1646.88,-64.59 1636.92,-60.98 1636.85,-67.98"/>
</g>
<!-- Node6 -->
<g id="node6" class="node">
<title>Node6</title>
<g id="a_node6"><a xlink:href="cache_8c.html" target="_top" xlink:title=" ">
<polygon fill="white" stroke="black" points="349.5,-0.5 349.5,-19.5 402.5,-19.5 402.5,-0.5 349.5,-0.5"/>
<text text-anchor="middle" x="376" y="-7.5" font-family="FreeSans" font-size="10.00">cache.c</text>
</a>
</g>
</g>
<!-- Node1&#45;&gt;Node6 -->
<g id="edge5" class="edge">
<title>Node1&#45;&gt;Node6</title>
<path fill="none" stroke="midnightblue" d="M1636.65,-64.66C1424.65,-63.07 653.12,-54.96 411,-20 408.27,-19.61 405.44,-19.08 402.63,-18.48"/>
<polygon fill="midnightblue" stroke="midnightblue" points="1636.87,-68.16 1646.9,-64.73 1636.92,-61.16 1636.87,-68.16"/>
</g>
<!-- Node7 -->
<g id="node7" class="node">
<title>Node7</title>
<g id="a_node7"><a xlink:href="channel_8c.html" target="_top" xlink:title=" ">
<polygon fill="white" stroke="black" points="420.5,-0.5 420.5,-19.5 483.5,-19.5 483.5,-0.5 420.5,-0.5"/>
<text text-anchor="middle" x="452" y="-7.5" font-family="FreeSans" font-size="10.00">channel.c</text>
</a>
</g>
</g>
<!-- Node1&#45;&gt;Node7 -->
<g id="edge6" class="edge">
<title>Node1&#45;&gt;Node7</title>
<path fill="none" stroke="midnightblue" d="M1636.83,-64.25C1433.9,-61.24 718.89,-48.8 493,-20 489.96,-19.61 486.82,-19.11 483.69,-18.54"/>
<polygon fill="midnightblue" stroke="midnightblue" points="1636.89,-67.75 1646.94,-64.4 1636.99,-60.75 1636.89,-67.75"/>
</g>
<!-- Node8 -->
<g id="node8" class="node">
<title>Node8</title>
<g id="a_node8"><a xlink:href="color_8c.html" target="_top" xlink:title=" ">
<polygon fill="white" stroke="black" points="502,-0.5 502,-19.5 550,-19.5 550,-0.5 502,-0.5"/>
<text text-anchor="middle" x="526" y="-7.5" font-family="FreeSans" font-size="10.00">color.c</text>
</a>
</g>
</g>
<!-- Node1&#45;&gt;Node8 -->
<g id="edge7" class="edge">
<title>Node1&#45;&gt;Node8</title>
<path fill="none" stroke="midnightblue" d="M1636.86,-64.47C1441.11,-62.31 770.62,-52.63 559,-20 556.07,-19.55 553.02,-18.93 550.01,-18.23"/>
<polygon fill="midnightblue" stroke="midnightblue" points="1636.86,-67.97 1646.9,-64.58 1636.94,-60.97 1636.86,-67.97"/>
</g>
<!-- Node9 -->
<g id="node9" class="node">
<title>Node9</title>
<g id="a_node9"><a xlink:href="colormap_8c.html" target="_top" xlink:title=" ">
<polygon fill="white" stroke="black" points="568.5,-0.5 568.5,-19.5 639.5,-19.5 639.5,-0.5 568.5,-0.5"/>
<text text-anchor="middle" x="604" y="-7.5" font-family="FreeSans" font-size="10.00">colormap.c</text>
</a>
</g>
</g>
<!-- Node1&#45;&gt;Node9 -->
<g id="edge8" class="edge">
<title>Node1&#45;&gt;Node9</title>
<path fill="none" stroke="midnightblue" d="M1636.62,-65.68C1481.54,-66.98 1024.09,-66.28 648,-20 645.37,-19.68 642.66,-19.28 639.94,-18.84"/>
<polygon fill="midnightblue" stroke="midnightblue" points="1636.85,-69.18 1646.82,-65.59 1636.79,-62.18 1636.85,-69.18"/>
</g>
<!-- Node10 -->
<g id="node10" class="node">
<title>Node10</title>
<g id="a_node10"><a xlink:href="colorspace_8c.html" target="_top" xlink:title=" ">
<polygon fill="white" stroke="black" points="657.5,-0.5 657.5,-19.5 734.5,-19.5 734.5,-0.5 657.5,-0.5"/>
<text text-anchor="middle" x="696" y="-7.5" font-family="FreeSans" font-size="10.00">colorspace.c</text>
</a>
</g>
</g>
<!-- Node1&#45;&gt;Node10 -->
<g id="edge9" class="edge">
<title>Node1&#45;&gt;Node10</title>
<path fill="none" stroke="midnightblue" d="M1636.51,-65.03C1491.05,-64.55 1081.72,-59.49 744,-20 740.97,-19.65 737.84,-19.21 734.7,-18.73"/>
<polygon fill="midnightblue" stroke="midnightblue" points="1636.92,-68.53 1646.93,-65.06 1636.94,-61.53 1636.92,-68.53"/>
</g>
<!-- Node11 -->
<g id="node11" class="node">
<title>Node11</title>
<g id="a_node11"><a xlink:href="compare_8c.html" target="_top" xlink:title=" ">
<polygon fill="white" stroke="black" points="753,-0.5 753,-19.5 821,-19.5 821,-0.5 753,-0.5"/>
<text text-anchor="middle" x="787" y="-7.5" font-family="FreeSans" font-size="10.00">compare.c</text>
</a>
</g>
</g>
<!-- Node1&#45;&gt;Node11 -->
<g id="edge10" class="edge">
<title>Node1&#45;&gt;Node11</title>
<path fill="none" stroke="midnightblue" d="M1636.7,-65.06C1500.41,-64.58 1133.07,-59.4 830,-20 827.13,-19.63 824.16,-19.17 821.19,-18.65"/>
<polygon fill="midnightblue" stroke="midnightblue" points="1636.87,-68.56 1646.88,-65.09 1636.89,-61.56 1636.87,-68.56"/>
</g>
<!-- Node12 -->
<g id="node12" class="node">
<title>Node12</title>
<g id="a_node12"><a xlink:href="composite_8c.html" target="_top" xlink:title=" ">
<polygon fill="white" stroke="black" points="839,-0.5 839,-19.5 915,-19.5 915,-0.5 839,-0.5"/>
<text text-anchor="middle" x="877" y="-7.5" font-family="FreeSans" font-size="10.00">composite.c</text>
</a>
</g>
</g>
<!-- Node1&#45;&gt;Node12 -->
<g id="edge11" class="edge">
<title>Node1&#45;&gt;Node12</title>
<path fill="none" stroke="midnightblue" d="M1636.57,-64.24C1510.69,-61.97 1189.86,-53.11 924,-20 921.11,-19.64 918.14,-19.21 915.15,-18.74"/>
<polygon fill="midnightblue" stroke="midnightblue" points="1636.66,-67.75 1646.72,-64.42 1636.78,-60.75 1636.66,-67.75"/>
</g>
<!-- Node13 -->
<g id="node13" class="node">
<title>Node13</title>
<g id="a_node13"><a xlink:href="compress_8c.html" target="_top" xlink:title=" ">
<polygon fill="white" stroke="black" points="933,-0.5 933,-19.5 1005,-19.5 1005,-0.5 933,-0.5"/>
<text text-anchor="middle" x="969" y="-7.5" font-family="FreeSans" font-size="10.00">compress.c</text>
</a>
</g>
</g>
<!-- Node1&#45;&gt;Node13 -->
<g id="edge12" class="edge">
<title>Node1&#45;&gt;Node13</title>
<path fill="none" stroke="midnightblue" d="M1636.52,-63.8C1521.21,-60.72 1244.15,-50.53 1014,-20 1011.16,-19.62 1008.22,-19.17 1005.28,-18.68"/>
<polygon fill="midnightblue" stroke="midnightblue" points="1636.76,-67.31 1646.84,-64.07 1636.94,-60.31 1636.76,-67.31"/>
</g>
<!-- Node14 -->
<g id="node14" class="node">
<title>Node14</title>
<g id="a_node14"><a xlink:href="decorate_8c.html" target="_top" xlink:title=" ">
<polygon fill="white" stroke="black" points="1023,-0.5 1023,-19.5 1091,-19.5 1091,-0.5 1023,-0.5"/>
<text text-anchor="middle" x="1057" y="-7.5" font-family="FreeSans" font-size="10.00">decorate.c</text>
</a>
</g>
</g>
<!-- Node1&#45;&gt;Node14 -->
<g id="edge13" class="edge">
<title>Node1&#45;&gt;Node14</title>
<path fill="none" stroke="midnightblue" d="M1636.37,-63.22C1531.79,-59.29 1296.25,-47.89 1100,-20 1097.13,-19.59 1094.17,-19.11 1091.2,-18.58"/>
<polygon fill="midnightblue" stroke="midnightblue" points="1636.55,-66.73 1646.67,-63.6 1636.81,-59.73 1636.55,-66.73"/>
</g>
<!-- Node15 -->
<g id="node15" class="node">
<title>Node15</title>
<g id="a_node15"><a xlink:href="deprecate_8c.html" target="_top" xlink:title=" ">
<polygon fill="white" stroke="black" points="1109,-0.5 1109,-19.5 1183,-19.5 1183,-0.5 1109,-0.5"/>
<text text-anchor="middle" x="1146" y="-7.5" font-family="FreeSans" font-size="10.00">deprecate.c</text>
</a>
</g>
</g>
<!-- Node1&#45;&gt;Node15 -->
<g id="edge14" class="edge">
<title>Node1&#45;&gt;Node15</title>
<path fill="none" stroke="midnightblue" d="M1636.59,-61.94C1544.66,-56.35 1352.86,-42.93 1192,-20 1189.1,-19.59 1186.11,-19.11 1183.1,-18.6"/>
<polygon fill="midnightblue" stroke="midnightblue" points="1636.58,-65.44 1646.77,-62.55 1637,-58.46 1636.58,-65.44"/>
</g>
<!-- Node16 -->
<g id="node16" class="node">
<title>Node16</title>
<g id="a_node16"><a xlink:href="distort_8c.html" target="_top" xlink:title=" ">
<polygon fill="white" stroke="black" points="1201,-0.5 1201,-19.5 1257,-19.5 1257,-0.5 1201,-0.5"/>
<text text-anchor="middle" x="1229" y="-7.5" font-family="FreeSans" font-size="10.00">distort.c</text>
</a>
</g>
</g>
<!-- Node1&#45;&gt;Node16 -->
<g id="edge15" class="edge">
<title>Node1&#45;&gt;Node16</title>
<path fill="none" stroke="midnightblue" d="M1636.52,-61.56C1555.35,-55.92 1398.05,-42.95 1266,-20 1263.13,-19.5 1260.16,-18.91 1257.2,-18.27"/>
<polygon fill="midnightblue" stroke="midnightblue" points="1636.77,-65.09 1646.99,-62.28 1637.25,-58.1 1636.77,-65.09"/>
</g>
<!-- Node17 -->
<g id="node17" class="node">
<title>Node17</title>
<g id="a_node17"><a xlink:href="draw_8c.html" target="_top" xlink:title=" ">
<polygon fill="white" stroke="black" points="1275,-0.5 1275,-19.5 1323,-19.5 1323,-0.5 1275,-0.5"/>
<text text-anchor="middle" x="1299" y="-7.5" font-family="FreeSans" font-size="10.00">draw.c</text>
</a>
</g>
</g>
<!-- Node1&#45;&gt;Node17 -->
<g id="edge16" class="edge">
<title>Node1&#45;&gt;Node17</title>
<path fill="none" stroke="midnightblue" d="M1636.74,-60.61C1566.11,-54.34 1439.03,-41.19 1332,-20 1329.09,-19.42 1326.05,-18.73 1323.06,-17.98"/>
<polygon fill="midnightblue" stroke="midnightblue" points="1636.48,-64.1 1646.74,-61.48 1637.09,-57.13 1636.48,-64.1"/>
</g>
<!-- Node18 -->
<g id="node18" class="node">
<title>Node18</title>
<g id="a_node18"><a xlink:href="effect_8c.html" target="_top" xlink:title=" ">
<polygon fill="white" stroke="black" points="1341.5,-0.5 1341.5,-19.5 1394.5,-19.5 1394.5,-0.5 1341.5,-0.5"/>
<text text-anchor="middle" x="1368" y="-7.5" font-family="FreeSans" font-size="10.00">effect.c</text>
</a>
</g>
</g>
<!-- Node1&#45;&gt;Node18 -->
<g id="edge17" class="edge">
<title>Node1&#45;&gt;Node18</title>
<path fill="none" stroke="midnightblue" d="M1636.5,-57.93C1578.58,-50.08 1484.43,-36.33 1404,-20 1400.97,-19.38 1397.81,-18.68 1394.68,-17.95"/>
<polygon fill="midnightblue" stroke="midnightblue" points="1636.15,-61.42 1646.53,-59.28 1637.09,-54.48 1636.15,-61.42"/>
</g>
<!-- Node19 -->
<g id="node19" class="node">
<title>Node19</title>
<g id="a_node19"><a xlink:href="enhance_8c.html" target="_top" xlink:title=" ">
<polygon fill="white" stroke="black" points="1413,-0.5 1413,-19.5 1479,-19.5 1479,-0.5 1413,-0.5"/>
<text text-anchor="middle" x="1446" y="-7.5" font-family="FreeSans" font-size="10.00">enhance.c</text>
</a>
</g>
</g>
<!-- Node1&#45;&gt;Node19 -->
<g id="edge18" class="edge">
<title>Node1&#45;&gt;Node19</title>
<path fill="none" stroke="midnightblue" d="M1642.25,-54.26C1593.91,-43.6 1521.15,-27.56 1479.14,-18.3"/>
<polygon fill="midnightblue" stroke="midnightblue" points="1641.66,-57.71 1652.18,-56.44 1643.17,-50.87 1641.66,-57.71"/>
</g>
<!-- Node20 -->
<g id="node20" class="node">
<title>Node20</title>
<g id="a_node20"><a xlink:href="feature_8c.html" target="_top" xlink:title=" ">
<polygon fill="white" stroke="black" points="1497,-0.5 1497,-19.5 1557,-19.5 1557,-0.5 1497,-0.5"/>
<text text-anchor="middle" x="1527" y="-7.5" font-family="FreeSans" font-size="10.00">feature.c</text>
</a>
</g>
</g>
<!-- Node1&#45;&gt;Node20 -->
<g id="edge19" class="edge">
<title>Node1&#45;&gt;Node20</title>
<path fill="none" stroke="midnightblue" d="M1655.48,-53.3C1624.58,-43.13 1580.53,-28.62 1552.86,-19.52"/>
<polygon fill="midnightblue" stroke="midnightblue" points="1654.42,-56.64 1665.01,-56.44 1656.61,-49.99 1654.42,-56.64"/>
</g>
<!-- Node21 -->
<g id="node21" class="node">
<title>Node21</title>
<g id="a_node21"><a xlink:href="fx_8c.html" target="_top" xlink:title=" ">
<polygon fill="white" stroke="black" points="1575.5,-0.5 1575.5,-19.5 1610.5,-19.5 1610.5,-0.5 1575.5,-0.5"/>
<text text-anchor="middle" x="1593" y="-7.5" font-family="FreeSans" font-size="10.00">fx.c</text>
</a>
</g>
</g>
<!-- Node1&#45;&gt;Node21 -->
<g id="edge20" class="edge">
<title>Node1&#45;&gt;Node21</title>
<path fill="none" stroke="midnightblue" d="M1666.41,-51.45C1648.32,-41.48 1624.27,-28.23 1608.71,-19.65"/>
<polygon fill="midnightblue" stroke="midnightblue" points="1664.81,-54.56 1675.25,-56.32 1668.19,-48.43 1664.81,-54.56"/>
</g>
<!-- Node22 -->
<g id="node22" class="node">
<title>Node22</title>
<g id="a_node22"><a xlink:href="gem_8c.html" target="_top" xlink:title=" ">
<polygon fill="white" stroke="black" points="1628.5,-0.5 1628.5,-19.5 1675.5,-19.5 1675.5,-0.5 1628.5,-0.5"/>
<text text-anchor="middle" x="1652" y="-7.5" font-family="FreeSans" font-size="10.00">gem.c</text>
</a>
</g>
</g>
<!-- Node1&#45;&gt;Node22 -->
<g id="edge21" class="edge">
<title>Node1&#45;&gt;Node22</title>
<path fill="none" stroke="midnightblue" d="M1678.62,-47.86C1671.86,-38.5 1663.79,-27.33 1658.32,-19.75"/>
<polygon fill="midnightblue" stroke="midnightblue" points="1675.87,-50.03 1684.56,-56.08 1681.54,-45.93 1675.87,-50.03"/>
</g>
<!-- Node23 -->
<g id="node23" class="node">
<title>Node23</title>
<g id="a_node23"><a xlink:href="histogram_8c.html" target="_top" xlink:title=" ">
<polygon fill="white" stroke="black" points="1694,-0.5 1694,-19.5 1768,-19.5 1768,-0.5 1694,-0.5"/>
<text text-anchor="middle" x="1731" y="-7.5" font-family="FreeSans" font-size="10.00">histogram.c</text>
</a>
</g>
</g>
<!-- Node1&#45;&gt;Node23 -->
<g id="edge22" class="edge">
<title>Node1&#45;&gt;Node23</title>
<path fill="none" stroke="midnightblue" d="M1703.7,-47.86C1710.63,-38.5 1718.91,-27.33 1724.52,-19.75"/>
<polygon fill="midnightblue" stroke="midnightblue" points="1700.75,-45.96 1697.61,-56.08 1706.37,-50.13 1700.75,-45.96"/>
</g>
<!-- Node24 -->
<g id="node24" class="node">
<title>Node24</title>
<g id="a_node24"><a xlink:href="image_8c.html" target="_top" xlink:title=" ">
<polygon fill="white" stroke="black" points="1786,-0.5 1786,-19.5 1842,-19.5 1842,-0.5 1786,-0.5"/>
<text text-anchor="middle" x="1814" y="-7.5" font-family="FreeSans" font-size="10.00">image.c</text>
</a>
</g>
</g>
<!-- Node1&#45;&gt;Node24 -->
<g id="edge23" class="edge">
<title>Node1&#45;&gt;Node24</title>
<path fill="none" stroke="midnightblue" d="M1719.77,-52.37C1742.81,-42.26 1774.48,-28.35 1794.6,-19.52"/>
<polygon fill="midnightblue" stroke="midnightblue" points="1718.24,-49.22 1710.49,-56.44 1721.05,-55.63 1718.24,-49.22"/>
</g>
<!-- Node25 -->
<g id="node25" class="node">
<title>Node25</title>
<g id="a_node25"><a xlink:href="layer_8c.html" target="_top" xlink:title=" ">
<polygon fill="white" stroke="black" points="1860.5,-0.5 1860.5,-19.5 1909.5,-19.5 1909.5,-0.5 1860.5,-0.5"/>
<text text-anchor="middle" x="1885" y="-7.5" font-family="FreeSans" font-size="10.00">layer.c</text>
</a>
</g>
</g>
<!-- Node1&#45;&gt;Node25 -->
<g id="edge24" class="edge">
<title>Node1&#45;&gt;Node25</title>
<path fill="none" stroke="midnightblue" d="M1731.68,-53.68C1770.53,-42.86 1827.83,-26.91 1860.25,-17.89"/>
<polygon fill="midnightblue" stroke="midnightblue" points="1730.44,-50.39 1721.74,-56.44 1732.31,-57.13 1730.44,-50.39"/>
</g>
<!-- Node26 -->
<g id="node26" class="node">
<title>Node26</title>
<g id="a_node26"><a xlink:href="morphology_8c.html" target="_top" xlink:title=" ">
<polygon fill="white" stroke="black" points="1928,-0.5 1928,-19.5 2010,-19.5 2010,-0.5 1928,-0.5"/>
<text text-anchor="middle" x="1969" y="-7.5" font-family="FreeSans" font-size="10.00">morphology.c</text>
</a>
</g>
</g>
<!-- Node1&#45;&gt;Node26 -->
<g id="edge25" class="edge">
<title>Node1&#45;&gt;Node26</title>
<path fill="none" stroke="midnightblue" d="M1745.04,-54.5C1798.57,-44.1 1879.37,-28.41 1927.87,-18.99"/>
<polygon fill="midnightblue" stroke="midnightblue" points="1744.2,-51.1 1735.05,-56.44 1745.53,-57.97 1744.2,-51.1"/>
</g>
<!-- Node27 -->
<g id="node27" class="node">
<title>Node27</title>
<g id="a_node27"><a xlink:href="paint_8c.html" target="_top" xlink:title=" ">
<polygon fill="white" stroke="black" points="2028,-0.5 2028,-19.5 2078,-19.5 2078,-0.5 2028,-0.5"/>
<text text-anchor="middle" x="2053" y="-7.5" font-family="FreeSans" font-size="10.00">paint.c</text>
</a>
</g>
</g>
<!-- Node1&#45;&gt;Node27 -->
<g id="edge26" class="edge">
<title>Node1&#45;&gt;Node27</title>
<path fill="none" stroke="midnightblue" d="M1745.12,-59.63C1810.42,-52.68 1923.37,-39.14 2019,-20 2021.87,-19.42 2024.87,-18.75 2027.83,-18.03"/>
<polygon fill="midnightblue" stroke="midnightblue" points="1744.63,-56.16 1735.06,-60.69 1745.37,-63.12 1744.63,-56.16"/>
</g>
<!-- Node28 -->
<g id="node28" class="node">
<title>Node28</title>
<g id="a_node28"><a xlink:href="pixel_8c.html" target="_top" xlink:title=" ">
<polygon fill="white" stroke="black" points="2096,-0.5 2096,-19.5 2144,-19.5 2144,-0.5 2096,-0.5"/>
<text text-anchor="middle" x="2120" y="-7.5" font-family="FreeSans" font-size="10.00">pixel.c</text>
</a>
</g>
</g>
<!-- Node1&#45;&gt;Node28 -->
<g id="edge27" class="edge">
<title>Node1&#45;&gt;Node28</title>
<path fill="none" stroke="midnightblue" d="M1745.66,-61.45C1822.42,-55.86 1966.29,-43.18 2087,-20 2089.92,-19.44 2092.95,-18.76 2095.95,-18.02"/>
<polygon fill="midnightblue" stroke="midnightblue" points="1745.01,-57.99 1735.28,-62.19 1745.51,-64.97 1745.01,-57.99"/>
</g>
<!-- Node29 -->
<g id="node29" class="node">
<title>Node29</title>
<g id="a_node29"><a xlink:href="quantize_8c.html" target="_top" xlink:title=" ">
<polygon fill="white" stroke="black" points="2162.5,-0.5 2162.5,-19.5 2229.5,-19.5 2229.5,-0.5 2162.5,-0.5"/>
<text text-anchor="middle" x="2196" y="-7.5" font-family="FreeSans" font-size="10.00">quantize.c</text>
</a>
</g>
</g>
<!-- Node1&#45;&gt;Node29 -->
<g id="edge28" class="edge">
<title>Node1&#45;&gt;Node29</title>
<path fill="none" stroke="midnightblue" d="M1745.27,-61.64C1831.84,-55.86 2006.41,-42.41 2153,-20 2156.02,-19.54 2159.14,-19 2162.26,-18.42"/>
<polygon fill="midnightblue" stroke="midnightblue" points="1744.9,-58.16 1735.15,-62.31 1745.36,-65.14 1744.9,-58.16"/>
</g>
<!-- Node30 -->
<g id="node30" class="node">
<title>Node30</title>
<g id="a_node30"><a xlink:href="quantum-export_8c.html" target="_top" xlink:title=" ">
<polygon fill="white" stroke="black" points="2248,-0.5 2248,-19.5 2352,-19.5 2352,-0.5 2248,-0.5"/>
<text text-anchor="middle" x="2300" y="-7.5" font-family="FreeSans" font-size="10.00">quantum&#45;export.c</text>
</a>
</g>
</g>
<!-- Node1&#45;&gt;Node30 -->
<g id="edge29" class="edge">
<title>Node1&#45;&gt;Node30</title>
<path fill="none" stroke="midnightblue" d="M1745.15,-61.72C1843.63,-55.49 2058.56,-40.7 2239,-20 2241.87,-19.67 2244.82,-19.31 2247.79,-18.93"/>
<polygon fill="midnightblue" stroke="midnightblue" points="1744.9,-58.23 1735.13,-62.35 1745.33,-65.21 1744.9,-58.23"/>
</g>
<!-- Node31 -->
<g id="node31" class="node">
<title>Node31</title>
<g id="a_node31"><a xlink:href="quantum-import_8c.html" target="_top" xlink:title=" ">
<polygon fill="white" stroke="black" points="2370,-0.5 2370,-19.5 2474,-19.5 2474,-0.5 2370,-0.5"/>
<text text-anchor="middle" x="2422" y="-7.5" font-family="FreeSans" font-size="10.00">quantum&#45;import.c</text>
</a>
</g>
</g>
<!-- Node1&#45;&gt;Node31 -->
<g id="edge30" class="edge">
<title>Node1&#45;&gt;Node31</title>
<path fill="none" stroke="midnightblue" d="M1745.22,-62.82C1859.39,-57.91 2132.81,-44.46 2361,-20 2363.87,-19.69 2366.82,-19.35 2369.79,-18.98"/>
<polygon fill="midnightblue" stroke="midnightblue" points="1744.85,-59.33 1735,-63.26 1745.14,-66.33 1744.85,-59.33"/>
</g>
<!-- Node32 -->
<g id="node32" class="node">
<title>Node32</title>
<g id="a_node32"><a xlink:href="quantum_8c.html" target="_top" xlink:title=" ">
<polygon fill="white" stroke="black" points="2492,-0.5 2492,-19.5 2560,-19.5 2560,-0.5 2492,-0.5"/>
<text text-anchor="middle" x="2526" y="-7.5" font-family="FreeSans" font-size="10.00">quantum.c</text>
</a>
</g>
</g>
<!-- Node1&#45;&gt;Node32 -->
<g id="edge31" class="edge">
<title>Node1&#45;&gt;Node32</title>
<path fill="none" stroke="midnightblue" d="M1745.37,-64.71C1874.11,-63.4 2207.44,-56.46 2483,-20 2485.87,-19.62 2488.84,-19.15 2491.81,-18.64"/>
<polygon fill="midnightblue" stroke="midnightblue" points="1744.97,-61.21 1735,-64.8 1745.04,-68.21 1744.97,-61.21"/>
</g>
<!-- Node33 -->
<g id="node33" class="node">
<title>Node33</title>
<g id="a_node33"><a xlink:href="resample_8c.html" target="_top" xlink:title=" ">
<polygon fill="white" stroke="black" points="2578.5,-0.5 2578.5,-19.5 2649.5,-19.5 2649.5,-0.5 2578.5,-0.5"/>
<text text-anchor="middle" x="2614" y="-7.5" font-family="FreeSans" font-size="10.00">resample.c</text>
</a>
</g>
</g>
<!-- Node1&#45;&gt;Node33 -->
<g id="edge32" class="edge">
<title>Node1&#45;&gt;Node33</title>
<path fill="none" stroke="midnightblue" d="M1745.36,-64.97C1883.49,-64.29 2259.02,-58.73 2569,-20 2572,-19.62 2575.11,-19.16 2578.22,-18.65"/>
<polygon fill="midnightblue" stroke="midnightblue" points="1745.04,-61.47 1735.05,-65.01 1745.07,-68.47 1745.04,-61.47"/>
</g>
<!-- Node34 -->
<g id="node34" class="node">
<title>Node34</title>
<g id="a_node34"><a xlink:href="resize_8c.html" target="_top" xlink:title=" ">
<polygon fill="white" stroke="black" points="2668,-0.5 2668,-19.5 2722,-19.5 2722,-0.5 2668,-0.5"/>
<text text-anchor="middle" x="2695" y="-7.5" font-family="FreeSans" font-size="10.00">resize.c</text>
</a>
</g>
</g>
<!-- Node1&#45;&gt;Node34 -->
<g id="edge33" class="edge">
<title>Node1&#45;&gt;Node34</title>
<path fill="none" stroke="midnightblue" d="M1745.35,-63.89C1922.28,-60.07 2480.6,-46.18 2659,-20 2661.93,-19.57 2664.97,-19 2667.99,-18.36"/>
<polygon fill="midnightblue" stroke="midnightblue" points="1745.16,-60.4 1735.24,-64.11 1745.31,-67.4 1745.16,-60.4"/>
</g>
<!-- Node35 -->
<g id="node35" class="node">
<title>Node35</title>
<g id="a_node35"><a xlink:href="shear_8c.html" target="_top" xlink:title=" ">
<polygon fill="white" stroke="black" points="2740.5,-0.5 2740.5,-19.5 2791.5,-19.5 2791.5,-0.5 2740.5,-0.5"/>
<text text-anchor="middle" x="2766" y="-7.5" font-family="FreeSans" font-size="10.00">shear.c</text>
</a>
</g>
</g>
<!-- Node1&#45;&gt;Node35 -->
<g id="edge34" class="edge">
<title>Node1&#45;&gt;Node35</title>
<path fill="none" stroke="midnightblue" d="M1745.31,-64.14C1930.74,-60.99 2538.01,-48.67 2731,-20 2733.98,-19.56 2737.07,-18.96 2740.13,-18.29"/>
<polygon fill="midnightblue" stroke="midnightblue" points="1745.19,-60.65 1735.25,-64.31 1745.31,-67.64 1745.19,-60.65"/>
</g>
<!-- Node36 -->
<g id="node36" class="node">
<title>Node36</title>
<g id="a_node36"><a xlink:href="statistic_8c.html" target="_top" xlink:title=" ">
<polygon fill="white" stroke="black" points="2810,-0.5 2810,-19.5 2874,-19.5 2874,-0.5 2810,-0.5"/>
<text text-anchor="middle" x="2842" y="-7.5" font-family="FreeSans" font-size="10.00">statistic.c</text>
</a>
</g>
</g>
<!-- Node1&#45;&gt;Node36 -->
<g id="edge35" class="edge">
<title>Node1&#45;&gt;Node36</title>
<path fill="none" stroke="midnightblue" d="M1745.31,-64.06C1938.68,-60.52 2593.22,-46.81 2801,-20 2803.89,-19.63 2806.88,-19.15 2809.86,-18.61"/>
<polygon fill="midnightblue" stroke="midnightblue" points="1745.04,-60.57 1735.11,-64.25 1745.17,-67.56 1745.04,-60.57"/>
</g>
<!-- Node37 -->
<g id="node37" class="node">
<title>Node37</title>
<g id="a_node37"><a xlink:href="stream_8c.html" target="_top" xlink:title=" ">
<polygon fill="white" stroke="black" points="2892.5,-0.5 2892.5,-19.5 2951.5,-19.5 2951.5,-0.5 2892.5,-0.5"/>
<text text-anchor="middle" x="2922" y="-7.5" font-family="FreeSans" font-size="10.00">stream.c</text>
</a>
</g>
</g>
<!-- Node1&#45;&gt;Node37 -->
<g id="edge36" class="edge">
<title>Node1&#45;&gt;Node37</title>
<path fill="none" stroke="midnightblue" d="M1745.25,-64.31C1947.65,-61.54 2658.53,-49.86 2883,-20 2886.03,-19.6 2889.17,-19.07 2892.3,-18.46"/>
<polygon fill="midnightblue" stroke="midnightblue" points="1745.11,-60.82 1735.16,-64.45 1745.21,-67.82 1745.11,-60.82"/>
</g>
<!-- Node38 -->
<g id="node38" class="node">
<title>Node38</title>
<g id="a_node38"><a xlink:href="threshold_8c.html" target="_top" xlink:title=" ">
<polygon fill="white" stroke="black" points="2969.5,-0.5 2969.5,-19.5 3040.5,-19.5 3040.5,-0.5 2969.5,-0.5"/>
<text text-anchor="middle" x="3005" y="-7.5" font-family="FreeSans" font-size="10.00">threshold.c</text>
</a>
</g>
</g>
<!-- Node1&#45;&gt;Node38 -->
<g id="edge37" class="edge">
<title>Node1&#45;&gt;Node38</title>
<path fill="none" stroke="midnightblue" d="M1745.24,-64.28C1955.9,-61.3 2720.11,-48.7 2961,-20 2963.63,-19.69 2966.34,-19.3 2969.06,-18.86"/>
<polygon fill="midnightblue" stroke="midnightblue" points="1744.99,-60.78 1735.04,-64.42 1745.09,-67.78 1744.99,-60.78"/>
</g>
<!-- Node39 -->
<g id="node39" class="node">
<title>Node39</title>
<g id="a_node39"><a xlink:href="transform_8c.html" target="_top" xlink:title=" ">
<polygon fill="white" stroke="black" points="3058.5,-0.5 3058.5,-19.5 3131.5,-19.5 3131.5,-0.5 3058.5,-0.5"/>
<text text-anchor="middle" x="3095" y="-7.5" font-family="FreeSans" font-size="10.00">transform.c</text>
</a>
</g>
</g>
<!-- Node1&#45;&gt;Node39 -->
<g id="edge38" class="edge">
<title>Node1&#45;&gt;Node39</title>
<path fill="none" stroke="midnightblue" d="M1745.35,-64.39C1965.39,-61.75 2790.73,-50.01 3050,-20 3052.69,-19.69 3055.46,-19.3 3058.24,-18.86"/>
<polygon fill="midnightblue" stroke="midnightblue" points="1744.99,-60.9 1735.03,-64.52 1745.07,-67.9 1744.99,-60.9"/>
</g>
<!-- Node40 -->
<g id="node40" class="node">
<title>Node40</title>
<g id="a_node40"><a xlink:href="vision_8c.html" target="_top" xlink:title=" ">
<polygon fill="white" stroke="black" points="3150,-0.5 3150,-19.5 3204,-19.5 3204,-0.5 3150,-0.5"/>
<text text-anchor="middle" x="3177" y="-7.5" font-family="FreeSans" font-size="10.00">vision.c</text>
</a>
</g>
</g>
<!-- Node1&#45;&gt;Node40 -->
<g id="edge39" class="edge">
<title>Node1&#45;&gt;Node40</title>
<path fill="none" stroke="midnightblue" d="M1745.25,-64.87C1974.37,-64.07 2863.68,-58.52 3141,-20 3143.94,-19.59 3146.98,-19.04 3149.99,-18.41"/>
<polygon fill="midnightblue" stroke="midnightblue" points="1745.15,-61.37 1735.16,-64.9 1745.17,-68.37 1745.15,-61.37"/>
</g>
<!-- Node41 -->
<g id="node41" class="node">
<title>Node41</title>
<g id="a_node41"><a xlink:href="visual-effects_8c.html" target="_top" xlink:title=" ">
<polygon fill="white" stroke="black" points="3222.5,-0.5 3222.5,-19.5 3313.5,-19.5 3313.5,-0.5 3222.5,-0.5"/>
<text text-anchor="middle" x="3268" y="-7.5" font-family="FreeSans" font-size="10.00">visual&#45;effects.c</text>
</a>
</g>
</g>
<!-- Node1&#45;&gt;Node41 -->
<g id="edge40" class="edge">
<title>Node1&#45;&gt;Node41</title>
<path fill="none" stroke="midnightblue" d="M1745.15,-64.36C1980.93,-61.44 2919.36,-48.24 3213,-20 3216.08,-19.7 3219.25,-19.34 3222.44,-18.93"/>
<polygon fill="midnightblue" stroke="midnightblue" points="1745.06,-60.86 1735.1,-64.49 1745.14,-67.86 1745.06,-60.86"/>
</g>
<!-- Node42 -->
<g id="node42" class="node">
<title>Node42</title>
<g id="a_node42"><a xlink:href="widget_8c.html" target="_top" xlink:title=" ">
<polygon fill="white" stroke="black" points="3332,-0.5 3332,-19.5 3390,-19.5 3390,-0.5 3332,-0.5"/>
<text text-anchor="middle" x="3361" y="-7.5" font-family="FreeSans" font-size="10.00">widget.c</text>
</a>
</g>
</g>
<!-- Node1&#45;&gt;Node42 -->
<g id="edge41" class="edge">
<title>Node1&#45;&gt;Node42</title>
<path fill="none" stroke="midnightblue" d="M1745.45,-65C1992.29,-64.76 3007.84,-61.22 3323,-20 3325.82,-19.63 3328.74,-19.14 3331.65,-18.58"/>
<polygon fill="midnightblue" stroke="midnightblue" points="1745.29,-61.5 1735.29,-65.01 1745.29,-68.5 1745.29,-61.5"/>
</g>
<!-- Node43 -->
<g id="node43" class="node">
<title>Node43</title>
<g id="a_node43"><a xlink:href="xwindow_8c.html" target="_top" xlink:title=" ">
<polygon fill="white" stroke="black" points="3408,-0.5 3408,-19.5 3476,-19.5 3476,-0.5 3408,-0.5"/>
<text text-anchor="middle" x="3442" y="-7.5" font-family="FreeSans" font-size="10.00">xwindow.c</text>
</a>
</g>
</g>
<!-- Node1&#45;&gt;Node43 -->
<g id="edge42" class="edge">
<title>Node1&#45;&gt;Node43</title>
<path fill="none" stroke="midnightblue" d="M1745.05,-64.89C1998.11,-64.15 3067.36,-58.76 3399,-20 3401.88,-19.66 3404.85,-19.23 3407.82,-18.73"/>
<polygon fill="midnightblue" stroke="midnightblue" points="1744.99,-61.39 1735,-64.91 1745.01,-68.39 1744.99,-61.39"/>
</g>
</g>
</svg>
