<?xml version="1.0" encoding="UTF-8" standalone="no"?>
<!DOCTYPE svg PUBLIC "-//W3C//DTD SVG 1.1//EN"
 "http://www.w3.org/Graphics/SVG/1.1/DTD/svg11.dtd">
<!-- Generated by graphviz version 2.43.0 (0)
 -->
<!-- Title: colorspace&#45;private.h Pages: 1 -->
<svg width="3484pt" height="140pt"
 viewBox="0.00 0.00 3484.00 140.00" xmlns="http://www.w3.org/2000/svg" xmlns:xlink="http://www.w3.org/1999/xlink">
<g id="graph0" class="graph" transform="scale(1 1) rotate(0) translate(4 136)">
<title>colorspace&#45;private.h</title>
<polygon fill="white" stroke="transparent" points="-4,4 -4,-136 3480,-136 3480,4 -4,4"/>
<!-- Node1 -->
<g id="node1" class="node">
<title>Node1</title>
<g id="a_node1"><a xlink:title=" ">
<polygon fill="#bfbfbf" stroke="black" points="1189.5,-112.5 1189.5,-131.5 1305.5,-131.5 1305.5,-112.5 1189.5,-112.5"/>
<text text-anchor="middle" x="1247.5" y="-119.5" font-family="FreeSans" font-size="10.00">colorspace&#45;private.h</text>
</a>
</g>
</g>
<!-- Node2 -->
<g id="node2" class="node">
<title>Node2</title>
<g id="a_node2"><a xlink:href="animate_8c.html" target="_top" xlink:title=" ">
<polygon fill="white" stroke="black" points="0,-0.5 0,-19.5 65,-19.5 65,-0.5 0,-0.5"/>
<text text-anchor="middle" x="32.5" y="-7.5" font-family="FreeSans" font-size="10.00">animate.c</text>
</a>
</g>
</g>
<!-- Node1&#45;&gt;Node2 -->
<g id="edge1" class="edge">
<title>Node1&#45;&gt;Node2</title>
<path fill="none" stroke="midnightblue" d="M1179.2,-121.63C1025.68,-122.19 641.96,-118.76 324.5,-76 227.74,-62.97 115.62,-34.02 62.88,-19.56"/>
<polygon fill="midnightblue" stroke="midnightblue" points="1179.42,-125.13 1189.41,-121.59 1179.39,-118.13 1179.42,-125.13"/>
</g>
<!-- Node3 -->
<g id="node3" class="node">
<title>Node3</title>
<g id="a_node3"><a xlink:href="annotate_8c.html" target="_top" xlink:title=" ">
<polygon fill="white" stroke="black" points="83.5,-0.5 83.5,-19.5 151.5,-19.5 151.5,-0.5 83.5,-0.5"/>
<text text-anchor="middle" x="117.5" y="-7.5" font-family="FreeSans" font-size="10.00">annotate.c</text>
</a>
</g>
</g>
<!-- Node1&#45;&gt;Node3 -->
<g id="edge2" class="edge">
<title>Node1&#45;&gt;Node3</title>
<path fill="none" stroke="midnightblue" d="M1179.41,-120.32C1040.88,-118.24 716.49,-109.85 446.5,-76 337.89,-62.38 211.37,-33.71 151.82,-19.44"/>
<polygon fill="midnightblue" stroke="midnightblue" points="1179.41,-123.82 1189.46,-120.46 1179.51,-116.82 1179.41,-123.82"/>
</g>
<!-- Node4 -->
<g id="node4" class="node">
<title>Node4</title>
<g id="a_node4"><a xlink:href="attribute_8c.html" target="_top" xlink:title=" ">
<polygon fill="white" stroke="black" points="170,-0.5 170,-19.5 237,-19.5 237,-0.5 170,-0.5"/>
<text text-anchor="middle" x="203.5" y="-7.5" font-family="FreeSans" font-size="10.00">attribute.c</text>
</a>
</g>
</g>
<!-- Node1&#45;&gt;Node4 -->
<g id="edge3" class="edge">
<title>Node1&#45;&gt;Node4</title>
<path fill="none" stroke="midnightblue" d="M1179.19,-118.09C1061.83,-112.66 814.46,-99.39 606.5,-76 445.15,-57.85 405.17,-49.47 245.5,-20 242.86,-19.51 240.13,-18.98 237.39,-18.44"/>
<polygon fill="midnightblue" stroke="midnightblue" points="1179.31,-121.6 1189.46,-118.56 1179.63,-114.6 1179.31,-121.6"/>
</g>
<!-- Node5 -->
<g id="node5" class="node">
<title>Node5</title>
<g id="a_node5"><a xlink:href="cache_8c.html" target="_top" xlink:title=" ">
<polygon fill="white" stroke="black" points="255,-0.5 255,-19.5 308,-19.5 308,-0.5 255,-0.5"/>
<text text-anchor="middle" x="281.5" y="-7.5" font-family="FreeSans" font-size="10.00">cache.c</text>
</a>
</g>
</g>
<!-- Node1&#45;&gt;Node5 -->
<g id="edge4" class="edge">
<title>Node1&#45;&gt;Node5</title>
<path fill="none" stroke="midnightblue" d="M1179.15,-116.87C1079.25,-110.43 887.6,-96.58 725.5,-76 672.3,-69.25 659.57,-63.75 606.5,-56 477.98,-37.23 444.1,-44.22 316.5,-20 313.79,-19.49 310.97,-18.88 308.17,-18.23"/>
<polygon fill="midnightblue" stroke="midnightblue" points="1179.2,-120.38 1189.4,-117.52 1179.65,-113.39 1179.2,-120.38"/>
</g>
<!-- Node6 -->
<g id="node6" class="node">
<title>Node6</title>
<g id="a_node6"><a xlink:href="channel_8c.html" target="_top" xlink:title=" ">
<polygon fill="white" stroke="black" points="326,-0.5 326,-19.5 389,-19.5 389,-0.5 326,-0.5"/>
<text text-anchor="middle" x="357.5" y="-7.5" font-family="FreeSans" font-size="10.00">channel.c</text>
</a>
</g>
</g>
<!-- Node1&#45;&gt;Node6 -->
<g id="edge5" class="edge">
<title>Node1&#45;&gt;Node6</title>
<path fill="none" stroke="midnightblue" d="M1179.22,-117.27C1091.66,-111.76 935.39,-99.46 803.5,-76 768.26,-69.73 760.71,-62.42 725.5,-56 581.66,-29.78 542.78,-43.71 398.5,-20 395.48,-19.5 392.35,-18.93 389.22,-18.31"/>
<polygon fill="midnightblue" stroke="midnightblue" points="1179.09,-120.77 1189.29,-117.89 1179.52,-113.78 1179.09,-120.77"/>
</g>
<!-- Node7 -->
<g id="node7" class="node">
<title>Node7</title>
<g id="a_node7"><a xlink:href="color-private_8h.html" target="_top" xlink:title=" ">
<polygon fill="white" stroke="black" points="1439.5,-56.5 1439.5,-75.5 1527.5,-75.5 1527.5,-56.5 1439.5,-56.5"/>
<text text-anchor="middle" x="1483.5" y="-63.5" font-family="FreeSans" font-size="10.00">color&#45;private.h</text>
</a>
</g>
</g>
<!-- Node1&#45;&gt;Node7 -->
<g id="edge6" class="edge">
<title>Node1&#45;&gt;Node7</title>
<path fill="none" stroke="midnightblue" d="M1294.91,-110.15C1339.5,-99.95 1405.35,-84.88 1446.28,-75.52"/>
<polygon fill="midnightblue" stroke="midnightblue" points="1293.86,-106.8 1284.89,-112.44 1295.42,-113.62 1293.86,-106.8"/>
</g>
<!-- Node9 -->
<g id="node9" class="node">
<title>Node9</title>
<g id="a_node9"><a xlink:href="color_8c.html" target="_top" xlink:title=" ">
<polygon fill="white" stroke="black" points="407.5,-0.5 407.5,-19.5 455.5,-19.5 455.5,-0.5 407.5,-0.5"/>
<text text-anchor="middle" x="431.5" y="-7.5" font-family="FreeSans" font-size="10.00">color.c</text>
</a>
</g>
</g>
<!-- Node1&#45;&gt;Node9 -->
<g id="edge49" class="edge">
<title>Node1&#45;&gt;Node9</title>
<path fill="none" stroke="midnightblue" d="M1179.14,-117.5C1101.4,-112.49 971.04,-100.96 861.5,-76 834.91,-69.94 830.12,-61.92 803.5,-56 655.6,-23.09 613.4,-48.02 464.5,-20 461.58,-19.45 458.55,-18.77 455.55,-18.04"/>
<polygon fill="midnightblue" stroke="midnightblue" points="1179.09,-121 1189.29,-118.14 1179.53,-114.02 1179.09,-121"/>
</g>
<!-- Node11 -->
<g id="node11" class="node">
<title>Node11</title>
<g id="a_node11"><a xlink:href="colorspace_8c.html" target="_top" xlink:title=" ">
<polygon fill="white" stroke="black" points="474,-0.5 474,-19.5 551,-19.5 551,-0.5 474,-0.5"/>
<text text-anchor="middle" x="512.5" y="-7.5" font-family="FreeSans" font-size="10.00">colorspace.c</text>
</a>
</g>
</g>
<!-- Node1&#45;&gt;Node11 -->
<g id="edge50" class="edge">
<title>Node1&#45;&gt;Node11</title>
<path fill="none" stroke="midnightblue" d="M1179.18,-117.18C1110.16,-112.09 1000.97,-100.68 909.5,-76 887.19,-69.98 883.85,-61.87 861.5,-56 731.19,-21.77 693.67,-40.43 560.5,-20 557.48,-19.54 554.37,-19.03 551.23,-18.49"/>
<polygon fill="midnightblue" stroke="midnightblue" points="1179.26,-120.69 1189.48,-117.91 1179.76,-113.71 1179.26,-120.69"/>
</g>
<!-- Node12 -->
<g id="node12" class="node">
<title>Node12</title>
<g id="a_node12"><a xlink:href="compare_8c.html" target="_top" xlink:title=" ">
<polygon fill="white" stroke="black" points="569.5,-0.5 569.5,-19.5 637.5,-19.5 637.5,-0.5 569.5,-0.5"/>
<text text-anchor="middle" x="603.5" y="-7.5" font-family="FreeSans" font-size="10.00">compare.c</text>
</a>
</g>
</g>
<!-- Node1&#45;&gt;Node12 -->
<g id="edge51" class="edge">
<title>Node1&#45;&gt;Node12</title>
<path fill="none" stroke="midnightblue" d="M1179.12,-116.1C1118.54,-110.47 1028.21,-98.87 952.5,-76 932.32,-69.91 929.72,-61.94 909.5,-56 796.3,-22.75 762.75,-40.1 646.5,-20 643.64,-19.51 640.69,-18.96 637.73,-18.39"/>
<polygon fill="midnightblue" stroke="midnightblue" points="1179.05,-119.61 1189.33,-117.02 1179.68,-112.64 1179.05,-119.61"/>
</g>
<!-- Node13 -->
<g id="node13" class="node">
<title>Node13</title>
<g id="a_node13"><a xlink:href="composite_8c.html" target="_top" xlink:title=" ">
<polygon fill="white" stroke="black" points="655.5,-0.5 655.5,-19.5 731.5,-19.5 731.5,-0.5 655.5,-0.5"/>
<text text-anchor="middle" x="693.5" y="-7.5" font-family="FreeSans" font-size="10.00">composite.c</text>
</a>
</g>
</g>
<!-- Node1&#45;&gt;Node13 -->
<g id="edge52" class="edge">
<title>Node1&#45;&gt;Node13</title>
<path fill="none" stroke="midnightblue" d="M1179.3,-114.14C1127.43,-107.68 1054.78,-95.94 993.5,-76 974.22,-69.73 971.8,-62.2 952.5,-56 861.51,-26.75 834.55,-36.99 740.5,-20 737.64,-19.48 734.68,-18.94 731.71,-18.39"/>
<polygon fill="midnightblue" stroke="midnightblue" points="1179.04,-117.64 1189.39,-115.36 1179.88,-110.69 1179.04,-117.64"/>
</g>
<!-- Node15 -->
<g id="node15" class="node">
<title>Node15</title>
<g id="a_node15"><a xlink:href="decorate_8c.html" target="_top" xlink:title=" ">
<polygon fill="white" stroke="black" points="749.5,-0.5 749.5,-19.5 817.5,-19.5 817.5,-0.5 749.5,-0.5"/>
<text text-anchor="middle" x="783.5" y="-7.5" font-family="FreeSans" font-size="10.00">decorate.c</text>
</a>
</g>
</g>
<!-- Node1&#45;&gt;Node15 -->
<g id="edge54" class="edge">
<title>Node1&#45;&gt;Node15</title>
<path fill="none" stroke="midnightblue" d="M1179.26,-111.51C1136.35,-104.38 1080.26,-92.9 1032.5,-76 1014.14,-69.5 1011.85,-62.54 993.5,-56 989.34,-54.52 876.27,-30.57 817.81,-18.23"/>
<polygon fill="midnightblue" stroke="midnightblue" points="1178.89,-115 1189.32,-113.14 1180.01,-108.09 1178.89,-115"/>
</g>
<!-- Node16 -->
<g id="node16" class="node">
<title>Node16</title>
<g id="a_node16"><a xlink:href="deprecate_8c.html" target="_top" xlink:title=" ">
<polygon fill="white" stroke="black" points="835.5,-0.5 835.5,-19.5 909.5,-19.5 909.5,-0.5 835.5,-0.5"/>
<text text-anchor="middle" x="872.5" y="-7.5" font-family="FreeSans" font-size="10.00">deprecate.c</text>
</a>
</g>
</g>
<!-- Node1&#45;&gt;Node16 -->
<g id="edge55" class="edge">
<title>Node1&#45;&gt;Node16</title>
<path fill="none" stroke="midnightblue" d="M1192.81,-110.32C1157.56,-102.64 1111.09,-91 1071.5,-76 1053.28,-69.1 1050.63,-63.12 1032.5,-56 991.54,-39.92 942.6,-27.03 909.73,-19.24"/>
<polygon fill="midnightblue" stroke="midnightblue" points="1192.39,-113.81 1202.9,-112.48 1193.85,-106.97 1192.39,-113.81"/>
</g>
<!-- Node17 -->
<g id="node17" class="node">
<title>Node17</title>
<g id="a_node17"><a xlink:href="distort_8c.html" target="_top" xlink:title=" ">
<polygon fill="white" stroke="black" points="927.5,-0.5 927.5,-19.5 983.5,-19.5 983.5,-0.5 927.5,-0.5"/>
<text text-anchor="middle" x="955.5" y="-7.5" font-family="FreeSans" font-size="10.00">distort.c</text>
</a>
</g>
</g>
<!-- Node1&#45;&gt;Node17 -->
<g id="edge56" class="edge">
<title>Node1&#45;&gt;Node17</title>
<path fill="none" stroke="midnightblue" d="M1209.06,-109.44C1182.03,-100.99 1145.17,-88.81 1113.5,-76 1094.33,-68.25 1090.48,-64.19 1071.5,-56 1039.96,-42.4 1002.85,-28.33 979.26,-19.63"/>
<polygon fill="midnightblue" stroke="midnightblue" points="1208.32,-112.88 1218.91,-112.49 1210.39,-106.19 1208.32,-112.88"/>
</g>
<!-- Node18 -->
<g id="node18" class="node">
<title>Node18</title>
<g id="a_node18"><a xlink:href="draw_8c.html" target="_top" xlink:title=" ">
<polygon fill="white" stroke="black" points="1001.5,-0.5 1001.5,-19.5 1049.5,-19.5 1049.5,-0.5 1001.5,-0.5"/>
<text text-anchor="middle" x="1025.5" y="-7.5" font-family="FreeSans" font-size="10.00">draw.c</text>
</a>
</g>
</g>
<!-- Node1&#45;&gt;Node18 -->
<g id="edge57" class="edge">
<title>Node1&#45;&gt;Node18</title>
<path fill="none" stroke="midnightblue" d="M1221.02,-107.88C1175,-85.08 1081.51,-38.75 1042.84,-19.59"/>
<polygon fill="midnightblue" stroke="midnightblue" points="1219.57,-111.06 1230.08,-112.37 1222.67,-104.79 1219.57,-111.06"/>
</g>
<!-- Node20 -->
<g id="node20" class="node">
<title>Node20</title>
<g id="a_node20"><a xlink:href="enhance_8c.html" target="_top" xlink:title=" ">
<polygon fill="white" stroke="black" points="1067.5,-0.5 1067.5,-19.5 1133.5,-19.5 1133.5,-0.5 1067.5,-0.5"/>
<text text-anchor="middle" x="1100.5" y="-7.5" font-family="FreeSans" font-size="10.00">enhance.c</text>
</a>
</g>
</g>
<!-- Node1&#45;&gt;Node20 -->
<g id="edge58" class="edge">
<title>Node1&#45;&gt;Node20</title>
<path fill="none" stroke="midnightblue" d="M1227.61,-106.12C1196.41,-82.77 1136.94,-38.27 1111.98,-19.59"/>
<polygon fill="midnightblue" stroke="midnightblue" points="1225.86,-109.18 1235.97,-112.37 1230.06,-103.57 1225.86,-109.18"/>
</g>
<!-- Node21 -->
<g id="node21" class="node">
<title>Node21</title>
<g id="a_node21"><a xlink:href="feature_8c.html" target="_top" xlink:title=" ">
<polygon fill="white" stroke="black" points="1151.5,-0.5 1151.5,-19.5 1211.5,-19.5 1211.5,-0.5 1151.5,-0.5"/>
<text text-anchor="middle" x="1181.5" y="-7.5" font-family="FreeSans" font-size="10.00">feature.c</text>
</a>
</g>
</g>
<!-- Node1&#45;&gt;Node21 -->
<g id="edge59" class="edge">
<title>Node1&#45;&gt;Node21</title>
<path fill="none" stroke="midnightblue" d="M1237.08,-103.64C1222.75,-79.74 1197.48,-37.63 1186.65,-19.59"/>
<polygon fill="midnightblue" stroke="midnightblue" points="1234.17,-105.59 1242.32,-112.37 1240.18,-101.99 1234.17,-105.59"/>
</g>
<!-- Node22 -->
<g id="node22" class="node">
<title>Node22</title>
<g id="a_node22"><a xlink:href="fx_8c.html" target="_top" xlink:title=" ">
<polygon fill="white" stroke="black" points="1230,-0.5 1230,-19.5 1265,-19.5 1265,-0.5 1230,-0.5"/>
<text text-anchor="middle" x="1247.5" y="-7.5" font-family="FreeSans" font-size="10.00">fx.c</text>
</a>
</g>
</g>
<!-- Node1&#45;&gt;Node22 -->
<g id="edge60" class="edge">
<title>Node1&#45;&gt;Node22</title>
<path fill="none" stroke="midnightblue" d="M1247.5,-102.35C1247.5,-78.25 1247.5,-37.31 1247.5,-19.59"/>
<polygon fill="midnightblue" stroke="midnightblue" points="1244,-102.37 1247.5,-112.37 1251,-102.37 1244,-102.37"/>
</g>
<!-- Node25 -->
<g id="node25" class="node">
<title>Node25</title>
<g id="a_node25"><a xlink:href="image_8c.html" target="_top" xlink:title=" ">
<polygon fill="white" stroke="black" points="2672.5,-0.5 2672.5,-19.5 2728.5,-19.5 2728.5,-0.5 2672.5,-0.5"/>
<text text-anchor="middle" x="2700.5" y="-7.5" font-family="FreeSans" font-size="10.00">image.c</text>
</a>
</g>
</g>
<!-- Node1&#45;&gt;Node25 -->
<g id="edge61" class="edge">
<title>Node1&#45;&gt;Node25</title>
<path fill="none" stroke="midnightblue" d="M1315.6,-115.83C1374.93,-110.05 1462.78,-98.39 1536.5,-76 1556.67,-69.87 1559,-60.89 1579.5,-56 1813.94,-0.05 2424.7,-52.66 2663.5,-20 2666.38,-19.61 2669.37,-19.08 2672.33,-18.48"/>
<polygon fill="midnightblue" stroke="midnightblue" points="1315.22,-112.35 1305.59,-116.77 1315.88,-119.32 1315.22,-112.35"/>
</g>
<!-- Node28 -->
<g id="node28" class="node">
<title>Node28</title>
<g id="a_node28"><a xlink:href="paint_8c.html" target="_top" xlink:title=" ">
<polygon fill="white" stroke="black" points="2746.5,-0.5 2746.5,-19.5 2796.5,-19.5 2796.5,-0.5 2746.5,-0.5"/>
<text text-anchor="middle" x="2771.5" y="-7.5" font-family="FreeSans" font-size="10.00">paint.c</text>
</a>
</g>
</g>
<!-- Node1&#45;&gt;Node28 -->
<g id="edge62" class="edge">
<title>Node1&#45;&gt;Node28</title>
<path fill="none" stroke="midnightblue" d="M1316.11,-117.1C1382.69,-112.02 1486.06,-100.66 1572.5,-76 1593.55,-70 1596.17,-60.89 1617.5,-56 1860.23,-0.4 2491.11,-56.09 2737.5,-20 2740.4,-19.58 2743.41,-18.99 2746.38,-18.33"/>
<polygon fill="midnightblue" stroke="midnightblue" points="1315.47,-113.64 1305.75,-117.86 1315.98,-120.62 1315.47,-113.64"/>
</g>
<!-- Node29 -->
<g id="node29" class="node">
<title>Node29</title>
<g id="a_node29"><a xlink:href="pixel_8c.html" target="_top" xlink:title=" ">
<polygon fill="white" stroke="black" points="2814.5,-0.5 2814.5,-19.5 2862.5,-19.5 2862.5,-0.5 2814.5,-0.5"/>
<text text-anchor="middle" x="2838.5" y="-7.5" font-family="FreeSans" font-size="10.00">pixel.c</text>
</a>
</g>
</g>
<!-- Node1&#45;&gt;Node29 -->
<g id="edge63" class="edge">
<title>Node1&#45;&gt;Node29</title>
<path fill="none" stroke="midnightblue" d="M1315.61,-118.34C1389.23,-114.13 1509.44,-103.36 1609.5,-76 1631,-70.12 1633.75,-60.88 1655.5,-56 1904.98,-0.03 2552.64,-57.9 2805.5,-20 2808.44,-19.56 2811.48,-18.95 2814.49,-18.25"/>
<polygon fill="midnightblue" stroke="midnightblue" points="1315.33,-114.85 1305.54,-118.89 1315.72,-121.84 1315.33,-114.85"/>
</g>
<!-- Node30 -->
<g id="node30" class="node">
<title>Node30</title>
<g id="a_node30"><a xlink:href="quantize_8c.html" target="_top" xlink:title=" ">
<polygon fill="white" stroke="black" points="2881,-0.5 2881,-19.5 2948,-19.5 2948,-0.5 2881,-0.5"/>
<text text-anchor="middle" x="2914.5" y="-7.5" font-family="FreeSans" font-size="10.00">quantize.c</text>
</a>
</g>
</g>
<!-- Node1&#45;&gt;Node30 -->
<g id="edge66" class="edge">
<title>Node1&#45;&gt;Node30</title>
<path fill="none" stroke="midnightblue" d="M1316.1,-119.28C1396.48,-115.89 1533.11,-105.84 1646.5,-76 1668.45,-70.22 1671.33,-60.88 1693.5,-56 1949.29,0.24 2611.43,-50.95 2871.5,-20 2874.53,-19.64 2877.66,-19.17 2880.79,-18.64"/>
<polygon fill="midnightblue" stroke="midnightblue" points="1315.47,-115.8 1305.62,-119.7 1315.75,-122.8 1315.47,-115.8"/>
</g>
<!-- Node33 -->
<g id="node33" class="node">
<title>Node33</title>
<g id="a_node33"><a xlink:href="quantum_8c.html" target="_top" xlink:title=" ">
<polygon fill="white" stroke="black" points="2966.5,-0.5 2966.5,-19.5 3034.5,-19.5 3034.5,-0.5 2966.5,-0.5"/>
<text text-anchor="middle" x="3000.5" y="-7.5" font-family="FreeSans" font-size="10.00">quantum.c</text>
</a>
</g>
</g>
<!-- Node1&#45;&gt;Node33 -->
<g id="edge67" class="edge">
<title>Node1&#45;&gt;Node33</title>
<path fill="none" stroke="midnightblue" d="M1315.74,-120.26C1402.69,-117.89 1556.99,-108.9 1684.5,-76 1706.48,-70.33 1709.33,-60.86 1731.5,-56 1997.74,2.37 2686.83,-52.04 2957.5,-20 2960.38,-19.66 2963.35,-19.22 2966.32,-18.72"/>
<polygon fill="midnightblue" stroke="midnightblue" points="1315.64,-116.76 1305.73,-120.51 1315.82,-123.76 1315.64,-116.76"/>
</g>
<!-- Node36 -->
<g id="node36" class="node">
<title>Node36</title>
<g id="a_node36"><a xlink:href="shear_8c.html" target="_top" xlink:title=" ">
<polygon fill="white" stroke="black" points="3053,-0.5 3053,-19.5 3104,-19.5 3104,-0.5 3053,-0.5"/>
<text text-anchor="middle" x="3078.5" y="-7.5" font-family="FreeSans" font-size="10.00">shear.c</text>
</a>
</g>
</g>
<!-- Node1&#45;&gt;Node36 -->
<g id="edge69" class="edge">
<title>Node1&#45;&gt;Node36</title>
<path fill="none" stroke="midnightblue" d="M1315.65,-121.07C1408.91,-119.7 1580.87,-111.92 1722.5,-76 1744.5,-70.42 1747.32,-60.85 1769.5,-56 2046.19,4.5 2763.05,-59.51 3043.5,-20 3046.48,-19.58 3049.58,-19 3052.64,-18.34"/>
<polygon fill="midnightblue" stroke="midnightblue" points="1315.46,-117.57 1305.5,-121.2 1315.54,-124.57 1315.46,-117.57"/>
</g>
<!-- Node37 -->
<g id="node37" class="node">
<title>Node37</title>
<g id="a_node37"><a xlink:href="statistic_8c.html" target="_top" xlink:title=" ">
<polygon fill="white" stroke="black" points="3122.5,-0.5 3122.5,-19.5 3186.5,-19.5 3186.5,-0.5 3122.5,-0.5"/>
<text text-anchor="middle" x="3154.5" y="-7.5" font-family="FreeSans" font-size="10.00">statistic.c</text>
</a>
</g>
</g>
<!-- Node1&#45;&gt;Node37 -->
<g id="edge70" class="edge">
<title>Node1&#45;&gt;Node37</title>
<path fill="none" stroke="midnightblue" d="M1316.01,-121.77C1415.45,-121.37 1604.89,-114.89 1760.5,-76 1782.52,-70.5 1785.32,-60.84 1807.5,-56 2091.15,5.92 2825.32,-55.28 3113.5,-20 3116.39,-19.65 3119.38,-19.18 3122.37,-18.65"/>
<polygon fill="midnightblue" stroke="midnightblue" points="1315.79,-118.27 1305.79,-121.79 1315.8,-125.27 1315.79,-118.27"/>
</g>
<!-- Node39 -->
<g id="node39" class="node">
<title>Node39</title>
<g id="a_node39"><a xlink:href="threshold_8c.html" target="_top" xlink:title=" ">
<polygon fill="white" stroke="black" points="3205,-0.5 3205,-19.5 3276,-19.5 3276,-0.5 3205,-0.5"/>
<text text-anchor="middle" x="3240.5" y="-7.5" font-family="FreeSans" font-size="10.00">threshold.c</text>
</a>
</g>
</g>
<!-- Node1&#45;&gt;Node39 -->
<g id="edge71" class="edge">
<title>Node1&#45;&gt;Node39</title>
<path fill="none" stroke="midnightblue" d="M1316.14,-118.14C1442.89,-112.4 1708.88,-98.11 1798.5,-76 1820.54,-70.56 1823.32,-60.83 1845.5,-56 2138.73,7.88 2897.27,-53.55 3195.5,-20 3198.51,-19.66 3201.62,-19.23 3204.73,-18.73"/>
<polygon fill="midnightblue" stroke="midnightblue" points="1315.62,-114.66 1305.79,-118.6 1315.94,-121.65 1315.62,-114.66"/>
</g>
<!-- Node40 -->
<g id="node40" class="node">
<title>Node40</title>
<g id="a_node40"><a xlink:href="transform_8c.html" target="_top" xlink:title=" ">
<polygon fill="white" stroke="black" points="3294,-0.5 3294,-19.5 3367,-19.5 3367,-0.5 3294,-0.5"/>
<text text-anchor="middle" x="3330.5" y="-7.5" font-family="FreeSans" font-size="10.00">transform.c</text>
</a>
</g>
</g>
<!-- Node1&#45;&gt;Node40 -->
<g id="edge72" class="edge">
<title>Node1&#45;&gt;Node40</title>
<path fill="none" stroke="midnightblue" d="M1316,-118.56C1449.42,-113.36 1739.52,-99.66 1836.5,-76 1858.55,-70.62 1861.32,-60.82 1883.5,-56 2188.05,10.19 2975.78,-54.69 3285.5,-20 3288.19,-19.7 3290.96,-19.32 3293.74,-18.89"/>
<polygon fill="midnightblue" stroke="midnightblue" points="1315.76,-115.07 1305.9,-118.95 1316.03,-122.07 1315.76,-115.07"/>
</g>
<!-- Node42 -->
<g id="node42" class="node">
<title>Node42</title>
<g id="a_node42"><a xlink:href="visual-effects_8c.html" target="_top" xlink:title=" ">
<polygon fill="white" stroke="black" points="3385,-0.5 3385,-19.5 3476,-19.5 3476,-0.5 3385,-0.5"/>
<text text-anchor="middle" x="3430.5" y="-7.5" font-family="FreeSans" font-size="10.00">visual&#45;effects.c</text>
</a>
</g>
</g>
<!-- Node1&#45;&gt;Node42 -->
<g id="edge73" class="edge">
<title>Node1&#45;&gt;Node42</title>
<path fill="none" stroke="midnightblue" d="M1315.74,-119.21C1455.47,-115.04 1769.7,-102.9 1873.5,-76 1893.9,-70.71 1895.98,-60.81 1916.5,-56 2232.5,17.99 3053.42,-50.75 3376.5,-20 3379.24,-19.74 3382.06,-19.42 3384.89,-19.06"/>
<polygon fill="midnightblue" stroke="midnightblue" points="1315.48,-115.72 1305.59,-119.51 1315.69,-122.71 1315.48,-115.72"/>
</g>
<!-- Node45 -->
<g id="node45" class="node">
<title>Node45</title>
<g id="a_node45"><a xlink:href="constitute_8c.html" target="_top" xlink:title=" ">
<polygon fill="white" stroke="black" points="1925.5,-56.5 1925.5,-75.5 1999.5,-75.5 1999.5,-56.5 1925.5,-56.5"/>
<text text-anchor="middle" x="1962.5" y="-63.5" font-family="FreeSans" font-size="10.00">constitute.c</text>
</a>
</g>
</g>
<!-- Node1&#45;&gt;Node45 -->
<g id="edge53" class="edge">
<title>Node1&#45;&gt;Node45</title>
<path fill="none" stroke="midnightblue" d="M1316.08,-118.77C1436.8,-114.31 1695.01,-102.36 1911.5,-76 1915.96,-75.46 1920.63,-74.78 1925.25,-74.05"/>
<polygon fill="midnightblue" stroke="midnightblue" points="1315.74,-115.28 1305.87,-119.14 1315.99,-122.28 1315.74,-115.28"/>
</g>
<!-- Node46 -->
<g id="node46" class="node">
<title>Node46</title>
<g id="a_node46"><a xlink:href="profile_8c.html" target="_top" xlink:title=" ">
<polygon fill="white" stroke="black" points="2017.5,-56.5 2017.5,-75.5 2073.5,-75.5 2073.5,-56.5 2017.5,-56.5"/>
<text text-anchor="middle" x="2045.5" y="-63.5" font-family="FreeSans" font-size="10.00">profile.c</text>
</a>
</g>
</g>
<!-- Node1&#45;&gt;Node46 -->
<g id="edge64" class="edge">
<title>Node1&#45;&gt;Node46</title>
<path fill="none" stroke="midnightblue" d="M1315.72,-121.06C1449.42,-120.27 1754.97,-114.02 2008.5,-76 2011.38,-75.57 2014.36,-75.02 2017.32,-74.41"/>
<polygon fill="midnightblue" stroke="midnightblue" points="1315.61,-117.56 1305.62,-121.11 1315.64,-124.56 1315.61,-117.56"/>
</g>
<!-- Node47 -->
<g id="node47" class="node">
<title>Node47</title>
<g id="a_node47"><a xlink:href="property_8c.html" target="_top" xlink:title=" ">
<polygon fill="white" stroke="black" points="2092,-56.5 2092,-75.5 2157,-75.5 2157,-56.5 2092,-56.5"/>
<text text-anchor="middle" x="2124.5" y="-63.5" font-family="FreeSans" font-size="10.00">property.c</text>
</a>
</g>
</g>
<!-- Node1&#45;&gt;Node47 -->
<g id="edge65" class="edge">
<title>Node1&#45;&gt;Node47</title>
<path fill="none" stroke="midnightblue" d="M1316.12,-120.94C1459.24,-120.02 1799.79,-113.67 2082.5,-76 2085.46,-75.61 2088.51,-75.12 2091.57,-74.57"/>
<polygon fill="midnightblue" stroke="midnightblue" points="1315.73,-117.44 1305.75,-121 1315.77,-124.44 1315.73,-117.44"/>
</g>
<!-- Node48 -->
<g id="node48" class="node">
<title>Node48</title>
<g id="a_node48"><a xlink:href="segment_8c.html" target="_top" xlink:title=" ">
<polygon fill="white" stroke="black" points="2175.5,-56.5 2175.5,-75.5 2243.5,-75.5 2243.5,-56.5 2175.5,-56.5"/>
<text text-anchor="middle" x="2209.5" y="-63.5" font-family="FreeSans" font-size="10.00">segment.c</text>
</a>
</g>
</g>
<!-- Node1&#45;&gt;Node48 -->
<g id="edge68" class="edge">
<title>Node1&#45;&gt;Node48</title>
<path fill="none" stroke="midnightblue" d="M1315.75,-121.32C1468.71,-121.23 1850.35,-116.57 2166.5,-76 2169.37,-75.63 2172.34,-75.17 2175.31,-74.66"/>
<polygon fill="midnightblue" stroke="midnightblue" points="1315.57,-117.82 1305.57,-121.32 1315.57,-124.82 1315.57,-117.82"/>
</g>
<!-- Node7&#45;&gt;Node2 -->
<g id="edge8" class="edge">
<title>Node7&#45;&gt;Node2</title>
<path fill="none" stroke="midnightblue" d="M1428.99,-64.56C1203.63,-62.56 343.83,-52.89 74.5,-20 71.54,-19.64 68.48,-19.17 65.42,-18.64"/>
<polygon fill="midnightblue" stroke="midnightblue" points="1429.21,-68.07 1439.24,-64.65 1429.27,-61.07 1429.21,-68.07"/>
</g>
<!-- Node7&#45;&gt;Node3 -->
<g id="edge9" class="edge">
<title>Node7&#45;&gt;Node3</title>
<path fill="none" stroke="midnightblue" d="M1429.15,-64.4C1212.77,-61.82 412.21,-50.39 160.5,-20 157.62,-19.65 154.65,-19.21 151.68,-18.71"/>
<polygon fill="midnightblue" stroke="midnightblue" points="1429.26,-67.9 1439.3,-64.52 1429.34,-60.9 1429.26,-67.9"/>
</g>
<!-- Node7&#45;&gt;Node4 -->
<g id="edge10" class="edge">
<title>Node7&#45;&gt;Node4</title>
<path fill="none" stroke="midnightblue" d="M1429.24,-64.29C1221.9,-61.38 479.65,-49.12 245.5,-20 242.84,-19.67 240.09,-19.25 237.34,-18.78"/>
<polygon fill="midnightblue" stroke="midnightblue" points="1429.23,-67.79 1439.28,-64.43 1429.32,-60.79 1429.23,-67.79"/>
</g>
<!-- Node7&#45;&gt;Node5 -->
<g id="edge11" class="edge">
<title>Node7&#45;&gt;Node5</title>
<path fill="none" stroke="midnightblue" d="M1429.06,-64.44C1229.08,-62.14 535.4,-51.99 316.5,-20 313.77,-19.6 310.94,-19.07 308.13,-18.47"/>
<polygon fill="midnightblue" stroke="midnightblue" points="1429.27,-67.94 1439.31,-64.56 1429.35,-60.94 1429.27,-67.94"/>
</g>
<!-- Node7&#45;&gt;Node6 -->
<g id="edge12" class="edge">
<title>Node7&#45;&gt;Node6</title>
<path fill="none" stroke="midnightblue" d="M1429.45,-64.01C1239.23,-60.32 601.25,-46.25 398.5,-20 395.46,-19.61 392.32,-19.1 389.19,-18.53"/>
<polygon fill="midnightblue" stroke="midnightblue" points="1429.42,-67.51 1439.49,-64.2 1429.56,-60.51 1429.42,-67.51"/>
</g>
<!-- Node8 -->
<g id="node8" class="node">
<title>Node8</title>
<g id="a_node8"><a xlink:href="accelerate_8c.html" target="_top" xlink:title=" ">
<polygon fill="white" stroke="black" points="1445.5,-0.5 1445.5,-19.5 1521.5,-19.5 1521.5,-0.5 1445.5,-0.5"/>
<text text-anchor="middle" x="1483.5" y="-7.5" font-family="FreeSans" font-size="10.00">accelerate.c</text>
</a>
</g>
</g>
<!-- Node7&#45;&gt;Node8 -->
<g id="edge7" class="edge">
<title>Node7&#45;&gt;Node8</title>
<path fill="none" stroke="midnightblue" d="M1483.5,-45.8C1483.5,-36.91 1483.5,-26.78 1483.5,-19.75"/>
<polygon fill="midnightblue" stroke="midnightblue" points="1480,-46.08 1483.5,-56.08 1487,-46.08 1480,-46.08"/>
</g>
<!-- Node7&#45;&gt;Node9 -->
<g id="edge13" class="edge">
<title>Node7&#45;&gt;Node9</title>
<path fill="none" stroke="midnightblue" d="M1429.07,-64.19C1245.92,-61.21 652.96,-49.49 464.5,-20 461.57,-19.54 458.52,-18.92 455.52,-18.21"/>
<polygon fill="midnightblue" stroke="midnightblue" points="1429.21,-67.69 1439.26,-64.35 1429.32,-60.69 1429.21,-67.69"/>
</g>
<!-- Node10 -->
<g id="node10" class="node">
<title>Node10</title>
<g id="a_node10"><a xlink:href="colormap_8c.html" target="_top" xlink:title=" ">
<polygon fill="white" stroke="black" points="1540,-0.5 1540,-19.5 1611,-19.5 1611,-0.5 1540,-0.5"/>
<text text-anchor="middle" x="1575.5" y="-7.5" font-family="FreeSans" font-size="10.00">colormap.c</text>
</a>
</g>
</g>
<!-- Node7&#45;&gt;Node10 -->
<g id="edge14" class="edge">
<title>Node7&#45;&gt;Node10</title>
<path fill="none" stroke="midnightblue" d="M1507.05,-51.18C1523.98,-41.24 1546.28,-28.15 1560.76,-19.65"/>
<polygon fill="midnightblue" stroke="midnightblue" points="1505.13,-48.24 1498.28,-56.32 1508.68,-54.28 1505.13,-48.24"/>
</g>
<!-- Node7&#45;&gt;Node11 -->
<g id="edge15" class="edge">
<title>Node7&#45;&gt;Node11</title>
<path fill="none" stroke="midnightblue" d="M1428.87,-64.94C1285.79,-64.2 888.49,-58.56 560.5,-20 557.47,-19.64 554.34,-19.21 551.2,-18.73"/>
<polygon fill="midnightblue" stroke="midnightblue" points="1429.12,-68.44 1439.13,-64.98 1429.15,-61.44 1429.12,-68.44"/>
</g>
<!-- Node7&#45;&gt;Node12 -->
<g id="edge16" class="edge">
<title>Node7&#45;&gt;Node12</title>
<path fill="none" stroke="midnightblue" d="M1428.88,-64.94C1294.95,-64.17 939.77,-58.35 646.5,-20 643.63,-19.62 640.66,-19.16 637.69,-18.65"/>
<polygon fill="midnightblue" stroke="midnightblue" points="1429.25,-68.44 1439.27,-64.99 1429.29,-61.44 1429.25,-68.44"/>
</g>
<!-- Node7&#45;&gt;Node13 -->
<g id="edge17" class="edge">
<title>Node7&#45;&gt;Node13</title>
<path fill="none" stroke="midnightblue" d="M1429.07,-64.1C1305.95,-61.54 996.85,-52.17 740.5,-20 737.61,-19.64 734.64,-19.21 731.65,-18.73"/>
<polygon fill="midnightblue" stroke="midnightblue" points="1429.28,-67.6 1439.35,-64.31 1429.42,-60.61 1429.28,-67.6"/>
</g>
<!-- Node14 -->
<g id="node14" class="node">
<title>Node14</title>
<g id="a_node14"><a xlink:href="compress_8c.html" target="_top" xlink:title=" ">
<polygon fill="white" stroke="black" points="1629.5,-0.5 1629.5,-19.5 1701.5,-19.5 1701.5,-0.5 1629.5,-0.5"/>
<text text-anchor="middle" x="1665.5" y="-7.5" font-family="FreeSans" font-size="10.00">compress.c</text>
</a>
</g>
</g>
<!-- Node7&#45;&gt;Node14 -->
<g id="edge18" class="edge">
<title>Node7&#45;&gt;Node14</title>
<path fill="none" stroke="midnightblue" d="M1522.03,-53.57C1556.36,-43.38 1605.83,-28.7 1636.8,-19.52"/>
<polygon fill="midnightblue" stroke="midnightblue" points="1520.93,-50.24 1512.34,-56.44 1522.92,-56.95 1520.93,-50.24"/>
</g>
<!-- Node7&#45;&gt;Node15 -->
<g id="edge19" class="edge">
<title>Node7&#45;&gt;Node15</title>
<path fill="none" stroke="midnightblue" d="M1429.37,-63.82C1316.68,-60.8 1048.89,-50.74 826.5,-20 823.63,-19.6 820.66,-19.13 817.69,-18.6"/>
<polygon fill="midnightblue" stroke="midnightblue" points="1429.37,-67.32 1439.46,-64.08 1429.55,-60.32 1429.37,-67.32"/>
</g>
<!-- Node7&#45;&gt;Node16 -->
<g id="edge20" class="edge">
<title>Node7&#45;&gt;Node16</title>
<path fill="none" stroke="midnightblue" d="M1429.1,-62.73C1328.11,-58.05 1104.93,-45.58 918.5,-20 915.6,-19.6 912.6,-19.14 909.6,-18.63"/>
<polygon fill="midnightblue" stroke="midnightblue" points="1429.21,-66.24 1439.36,-63.2 1429.53,-59.24 1429.21,-66.24"/>
</g>
<!-- Node7&#45;&gt;Node17 -->
<g id="edge21" class="edge">
<title>Node7&#45;&gt;Node17</title>
<path fill="none" stroke="midnightblue" d="M1429.14,-62.64C1338.23,-58.1 1149.82,-46.2 992.5,-20 989.63,-19.52 986.65,-18.94 983.69,-18.31"/>
<polygon fill="midnightblue" stroke="midnightblue" points="1429.05,-66.14 1439.21,-63.13 1429.39,-59.14 1429.05,-66.14"/>
</g>
<!-- Node7&#45;&gt;Node18 -->
<g id="edge22" class="edge">
<title>Node7&#45;&gt;Node18</title>
<path fill="none" stroke="midnightblue" d="M1428.94,-62.04C1347.66,-56.99 1190.22,-44.77 1058.5,-20 1055.58,-19.45 1052.54,-18.77 1049.55,-18.04"/>
<polygon fill="midnightblue" stroke="midnightblue" points="1429.22,-65.56 1439.42,-62.67 1429.65,-58.57 1429.22,-65.56"/>
</g>
<!-- Node19 -->
<g id="node19" class="node">
<title>Node19</title>
<g id="a_node19"><a xlink:href="effect_8c.html" target="_top" xlink:title=" ">
<polygon fill="white" stroke="black" points="1720,-0.5 1720,-19.5 1773,-19.5 1773,-0.5 1720,-0.5"/>
<text text-anchor="middle" x="1746.5" y="-7.5" font-family="FreeSans" font-size="10.00">effect.c</text>
</a>
</g>
</g>
<!-- Node7&#45;&gt;Node19 -->
<g id="edge23" class="edge">
<title>Node7&#45;&gt;Node19</title>
<path fill="none" stroke="midnightblue" d="M1537.65,-55.04C1583.73,-46.38 1651.64,-33.18 1710.5,-20 1713.52,-19.32 1716.67,-18.59 1719.8,-17.83"/>
<polygon fill="midnightblue" stroke="midnightblue" points="1536.76,-51.65 1527.58,-56.93 1538.05,-58.53 1536.76,-51.65"/>
</g>
<!-- Node7&#45;&gt;Node20 -->
<g id="edge24" class="edge">
<title>Node7&#45;&gt;Node20</title>
<path fill="none" stroke="midnightblue" d="M1429.49,-59.22C1362.09,-51.7 1243.38,-37.44 1142.5,-20 1139.71,-19.52 1136.82,-18.98 1133.92,-18.41"/>
<polygon fill="midnightblue" stroke="midnightblue" points="1429.13,-62.7 1439.46,-60.33 1429.91,-55.75 1429.13,-62.7"/>
</g>
<!-- Node7&#45;&gt;Node21 -->
<g id="edge25" class="edge">
<title>Node7&#45;&gt;Node21</title>
<path fill="none" stroke="midnightblue" d="M1429.23,-56.65C1375.94,-48.22 1292.39,-34.43 1220.5,-20 1217.64,-19.43 1214.67,-18.8 1211.7,-18.15"/>
<polygon fill="midnightblue" stroke="midnightblue" points="1428.73,-60.11 1439.15,-58.21 1429.82,-53.2 1428.73,-60.11"/>
</g>
<!-- Node7&#45;&gt;Node22 -->
<g id="edge26" class="edge">
<title>Node7&#45;&gt;Node22</title>
<path fill="none" stroke="midnightblue" d="M1429.28,-55.02C1386.86,-46.81 1326.54,-34.23 1274.5,-20 1271.45,-19.17 1268.24,-18.19 1265.13,-17.19"/>
<polygon fill="midnightblue" stroke="midnightblue" points="1428.64,-58.46 1439.12,-56.91 1429.96,-51.59 1428.64,-58.46"/>
</g>
<!-- Node23 -->
<g id="node23" class="node">
<title>Node23</title>
<g id="a_node23"><a xlink:href="gem_8c.html" target="_top" xlink:title=" ">
<polygon fill="white" stroke="black" points="1791,-0.5 1791,-19.5 1838,-19.5 1838,-0.5 1791,-0.5"/>
<text text-anchor="middle" x="1814.5" y="-7.5" font-family="FreeSans" font-size="10.00">gem.c</text>
</a>
</g>
</g>
<!-- Node7&#45;&gt;Node23 -->
<g id="edge27" class="edge">
<title>Node7&#45;&gt;Node23</title>
<path fill="none" stroke="midnightblue" d="M1537.63,-56.59C1538.93,-56.39 1540.23,-56.19 1541.5,-56 1648.13,-39.73 1675.96,-42.23 1781.5,-20 1784.52,-19.36 1787.68,-18.61 1790.79,-17.82"/>
<polygon fill="midnightblue" stroke="midnightblue" points="1536.87,-53.17 1527.52,-58.15 1537.93,-60.09 1536.87,-53.17"/>
</g>
<!-- Node24 -->
<g id="node24" class="node">
<title>Node24</title>
<g id="a_node24"><a xlink:href="histogram_8c.html" target="_top" xlink:title=" ">
<polygon fill="white" stroke="black" points="1856.5,-0.5 1856.5,-19.5 1930.5,-19.5 1930.5,-0.5 1856.5,-0.5"/>
<text text-anchor="middle" x="1893.5" y="-7.5" font-family="FreeSans" font-size="10.00">histogram.c</text>
</a>
</g>
</g>
<!-- Node7&#45;&gt;Node24 -->
<g id="edge28" class="edge">
<title>Node7&#45;&gt;Node24</title>
<path fill="none" stroke="midnightblue" d="M1537.71,-56.52C1538.99,-56.35 1540.25,-56.17 1541.5,-56 1676.74,-37.53 1711.61,-40.85 1846.5,-20 1849.7,-19.51 1853.02,-18.95 1856.34,-18.37"/>
<polygon fill="midnightblue" stroke="midnightblue" points="1537.21,-53.06 1527.81,-57.95 1538.21,-59.99 1537.21,-53.06"/>
</g>
<!-- Node7&#45;&gt;Node25 -->
<g id="edge29" class="edge">
<title>Node7&#45;&gt;Node25</title>
<path fill="none" stroke="midnightblue" d="M1537.7,-56.38C1538.97,-56.24 1540.24,-56.12 1541.5,-56 2038.27,-9.66 2169.14,-87.32 2663.5,-20 2666.38,-19.61 2669.37,-19.08 2672.33,-18.49"/>
<polygon fill="midnightblue" stroke="midnightblue" points="1537.28,-52.9 1527.76,-57.56 1538.11,-59.85 1537.28,-52.9"/>
</g>
<!-- Node26 -->
<g id="node26" class="node">
<title>Node26</title>
<g id="a_node26"><a xlink:href="layer_8c.html" target="_top" xlink:title=" ">
<polygon fill="white" stroke="black" points="1949,-0.5 1949,-19.5 1998,-19.5 1998,-0.5 1949,-0.5"/>
<text text-anchor="middle" x="1973.5" y="-7.5" font-family="FreeSans" font-size="10.00">layer.c</text>
</a>
</g>
</g>
<!-- Node7&#45;&gt;Node26 -->
<g id="edge30" class="edge">
<title>Node7&#45;&gt;Node26</title>
<path fill="none" stroke="midnightblue" d="M1537.71,-56.48C1538.98,-56.31 1540.25,-56.15 1541.5,-56 1717.79,-34.37 1764.59,-50.83 1939.5,-20 1942.51,-19.47 1945.64,-18.8 1948.73,-18.07"/>
<polygon fill="midnightblue" stroke="midnightblue" points="1537.23,-53.01 1527.79,-57.83 1538.17,-59.95 1537.23,-53.01"/>
</g>
<!-- Node27 -->
<g id="node27" class="node">
<title>Node27</title>
<g id="a_node27"><a xlink:href="morphology_8c.html" target="_top" xlink:title=" ">
<polygon fill="white" stroke="black" points="2016.5,-0.5 2016.5,-19.5 2098.5,-19.5 2098.5,-0.5 2016.5,-0.5"/>
<text text-anchor="middle" x="2057.5" y="-7.5" font-family="FreeSans" font-size="10.00">morphology.c</text>
</a>
</g>
</g>
<!-- Node7&#45;&gt;Node27 -->
<g id="edge31" class="edge">
<title>Node7&#45;&gt;Node27</title>
<path fill="none" stroke="midnightblue" d="M1537.7,-56.46C1538.98,-56.3 1540.25,-56.15 1541.5,-56 1747.84,-32.06 1801.46,-46.43 2007.5,-20 2010.39,-19.63 2013.36,-19.21 2016.35,-18.75"/>
<polygon fill="midnightblue" stroke="midnightblue" points="1537.24,-52.99 1527.79,-57.77 1538.16,-59.93 1537.24,-52.99"/>
</g>
<!-- Node7&#45;&gt;Node28 -->
<g id="edge32" class="edge">
<title>Node7&#45;&gt;Node28</title>
<path fill="none" stroke="midnightblue" d="M1538.04,-59.29C1551.57,-58.04 1566.05,-56.84 1579.5,-56 2093.42,-23.95 2227.98,-94.36 2737.5,-20 2740.4,-19.58 2743.41,-19 2746.38,-18.33"/>
<polygon fill="midnightblue" stroke="midnightblue" points="1537.53,-55.82 1527.9,-60.25 1538.19,-62.79 1537.53,-55.82"/>
</g>
<!-- Node7&#45;&gt;Node29 -->
<g id="edge33" class="edge">
<title>Node7&#45;&gt;Node29</title>
<path fill="none" stroke="midnightblue" d="M1537.67,-60.91C1562.06,-59.18 1591.21,-57.28 1617.5,-56 1881.31,-43.15 2544.28,-59.02 2805.5,-20 2808.44,-19.56 2811.48,-18.95 2814.49,-18.25"/>
<polygon fill="midnightblue" stroke="midnightblue" points="1537.26,-57.43 1527.53,-61.63 1537.76,-64.41 1537.26,-57.43"/>
</g>
<!-- Node7&#45;&gt;Node30 -->
<g id="edge34" class="edge">
<title>Node7&#45;&gt;Node30</title>
<path fill="none" stroke="midnightblue" d="M1537.82,-61.84C1571.66,-59.95 1616.1,-57.61 1655.5,-56 2195.73,-33.87 2334.58,-83.63 2871.5,-20 2874.53,-19.64 2877.66,-19.17 2880.79,-18.64"/>
<polygon fill="midnightblue" stroke="midnightblue" points="1537.46,-58.36 1527.68,-62.41 1537.86,-65.35 1537.46,-58.36"/>
</g>
<!-- Node31 -->
<g id="node31" class="node">
<title>Node31</title>
<g id="a_node31"><a xlink:href="quantum-export_8c.html" target="_top" xlink:title=" ">
<polygon fill="white" stroke="black" points="2116.5,-0.5 2116.5,-19.5 2220.5,-19.5 2220.5,-0.5 2116.5,-0.5"/>
<text text-anchor="middle" x="2168.5" y="-7.5" font-family="FreeSans" font-size="10.00">quantum&#45;export.c</text>
</a>
</g>
</g>
<!-- Node7&#45;&gt;Node31 -->
<g id="edge35" class="edge">
<title>Node7&#45;&gt;Node31</title>
<path fill="none" stroke="midnightblue" d="M1537.7,-56.43C1538.98,-56.28 1540.25,-56.14 1541.5,-56 1792.08,-28.65 1856.82,-46.42 2107.5,-20 2110.37,-19.7 2113.32,-19.36 2116.29,-18.99"/>
<polygon fill="midnightblue" stroke="midnightblue" points="1537.25,-52.96 1527.78,-57.71 1538.14,-59.9 1537.25,-52.96"/>
</g>
<!-- Node32 -->
<g id="node32" class="node">
<title>Node32</title>
<g id="a_node32"><a xlink:href="quantum-import_8c.html" target="_top" xlink:title=" ">
<polygon fill="white" stroke="black" points="2238.5,-0.5 2238.5,-19.5 2342.5,-19.5 2342.5,-0.5 2238.5,-0.5"/>
<text text-anchor="middle" x="2290.5" y="-7.5" font-family="FreeSans" font-size="10.00">quantum&#45;import.c</text>
</a>
</g>
</g>
<!-- Node7&#45;&gt;Node32 -->
<g id="edge36" class="edge">
<title>Node7&#45;&gt;Node32</title>
<path fill="none" stroke="midnightblue" d="M1537.7,-56.41C1538.98,-56.27 1540.25,-56.13 1541.5,-56 1846.07,-24.48 1924.81,-50.38 2229.5,-20 2232.38,-19.71 2235.32,-19.39 2238.3,-19.03"/>
<polygon fill="midnightblue" stroke="midnightblue" points="1537.26,-52.94 1527.77,-57.66 1538.13,-59.89 1537.26,-52.94"/>
</g>
<!-- Node7&#45;&gt;Node33 -->
<g id="edge37" class="edge">
<title>Node7&#45;&gt;Node33</title>
<path fill="none" stroke="midnightblue" d="M1537.84,-62.46C1580.24,-60.52 1640.61,-57.89 1693.5,-56 2255.15,-35.97 2399.36,-85.83 2957.5,-20 2960.38,-19.66 2963.35,-19.22 2966.32,-18.73"/>
<polygon fill="midnightblue" stroke="midnightblue" points="1537.57,-58.97 1527.74,-62.92 1537.89,-65.96 1537.57,-58.97"/>
</g>
<!-- Node34 -->
<g id="node34" class="node">
<title>Node34</title>
<g id="a_node34"><a xlink:href="resample_8c.html" target="_top" xlink:title=" ">
<polygon fill="white" stroke="black" points="2361,-0.5 2361,-19.5 2432,-19.5 2432,-0.5 2361,-0.5"/>
<text text-anchor="middle" x="2396.5" y="-7.5" font-family="FreeSans" font-size="10.00">resample.c</text>
</a>
</g>
</g>
<!-- Node7&#45;&gt;Node34 -->
<g id="edge38" class="edge">
<title>Node7&#45;&gt;Node34</title>
<path fill="none" stroke="midnightblue" d="M1537.7,-56.4C1538.98,-56.26 1540.25,-56.12 1541.5,-56 1900.08,-20.32 1993.78,-63.46 2351.5,-20 2354.51,-19.63 2357.61,-19.18 2360.72,-18.67"/>
<polygon fill="midnightblue" stroke="midnightblue" points="1537.27,-52.93 1527.77,-57.62 1538.12,-59.87 1537.27,-52.93"/>
</g>
<!-- Node35 -->
<g id="node35" class="node">
<title>Node35</title>
<g id="a_node35"><a xlink:href="resize_8c.html" target="_top" xlink:title=" ">
<polygon fill="white" stroke="black" points="2450.5,-0.5 2450.5,-19.5 2504.5,-19.5 2504.5,-0.5 2450.5,-0.5"/>
<text text-anchor="middle" x="2477.5" y="-7.5" font-family="FreeSans" font-size="10.00">resize.c</text>
</a>
</g>
</g>
<!-- Node7&#45;&gt;Node35 -->
<g id="edge39" class="edge">
<title>Node7&#45;&gt;Node35</title>
<path fill="none" stroke="midnightblue" d="M1537.7,-56.39C1538.98,-56.25 1540.24,-56.12 1541.5,-56 1939.94,-17.25 2045.24,-76.84 2441.5,-20 2444.43,-19.58 2447.48,-19.02 2450.49,-18.38"/>
<polygon fill="midnightblue" stroke="midnightblue" points="1537.27,-52.92 1527.77,-57.6 1538.12,-59.87 1537.27,-52.92"/>
</g>
<!-- Node7&#45;&gt;Node36 -->
<g id="edge40" class="edge">
<title>Node7&#45;&gt;Node36</title>
<path fill="none" stroke="midnightblue" d="M1537.84,-62.89C1588.08,-60.97 1664.83,-58.12 1731.5,-56 2023.02,-46.71 2754.67,-60.57 3043.5,-20 3046.48,-19.58 3049.58,-19 3052.64,-18.34"/>
<polygon fill="midnightblue" stroke="midnightblue" points="1537.71,-59.39 1527.85,-63.27 1537.97,-66.39 1537.71,-59.39"/>
</g>
<!-- Node7&#45;&gt;Node37 -->
<g id="edge41" class="edge">
<title>Node7&#45;&gt;Node37</title>
<path fill="none" stroke="midnightblue" d="M1537.91,-63.21C1595.44,-61.34 1688.86,-58.35 1769.5,-56 2068.15,-47.3 2816.93,-56.19 3113.5,-20 3116.39,-19.65 3119.38,-19.18 3122.37,-18.66"/>
<polygon fill="midnightblue" stroke="midnightblue" points="1537.47,-59.72 1527.59,-63.55 1537.7,-66.72 1537.47,-59.72"/>
</g>
<!-- Node38 -->
<g id="node38" class="node">
<title>Node38</title>
<g id="a_node38"><a xlink:href="stream_8c.html" target="_top" xlink:title=" ">
<polygon fill="white" stroke="black" points="2523,-0.5 2523,-19.5 2582,-19.5 2582,-0.5 2523,-0.5"/>
<text text-anchor="middle" x="2552.5" y="-7.5" font-family="FreeSans" font-size="10.00">stream.c</text>
</a>
</g>
</g>
<!-- Node7&#45;&gt;Node38 -->
<g id="edge42" class="edge">
<title>Node7&#45;&gt;Node38</title>
<path fill="none" stroke="midnightblue" d="M1537.7,-56.39C1538.98,-56.25 1540.24,-56.12 1541.5,-56 1971.83,-14.79 2084.96,-76.86 2513.5,-20 2516.53,-19.6 2519.67,-19.07 2522.8,-18.47"/>
<polygon fill="midnightblue" stroke="midnightblue" points="1537.28,-52.91 1527.77,-57.59 1538.11,-59.86 1537.28,-52.91"/>
</g>
<!-- Node7&#45;&gt;Node39 -->
<g id="edge43" class="edge">
<title>Node7&#45;&gt;Node39</title>
<path fill="none" stroke="midnightblue" d="M1537.83,-63.46C1602.19,-61.64 1712.65,-58.55 1807.5,-56 2115.94,-47.72 2888.87,-54.38 3195.5,-20 3198.51,-19.66 3201.62,-19.23 3204.73,-18.73"/>
<polygon fill="midnightblue" stroke="midnightblue" points="1537.42,-59.97 1527.52,-63.75 1537.62,-66.97 1537.42,-59.97"/>
</g>
<!-- Node7&#45;&gt;Node40 -->
<g id="edge44" class="edge">
<title>Node7&#45;&gt;Node40</title>
<path fill="none" stroke="midnightblue" d="M1537.76,-63.65C1838.17,-56.17 3284.11,-20.16 3285.5,-20 3288.19,-19.7 3290.96,-19.32 3293.74,-18.89"/>
<polygon fill="midnightblue" stroke="midnightblue" points="1537.47,-60.15 1527.56,-63.9 1537.64,-67.15 1537.47,-60.15"/>
</g>
<!-- Node41 -->
<g id="node41" class="node">
<title>Node41</title>
<g id="a_node41"><a xlink:href="vision_8c.html" target="_top" xlink:title=" ">
<polygon fill="white" stroke="black" points="2600.5,-0.5 2600.5,-19.5 2654.5,-19.5 2654.5,-0.5 2600.5,-0.5"/>
<text text-anchor="middle" x="2627.5" y="-7.5" font-family="FreeSans" font-size="10.00">vision.c</text>
</a>
</g>
</g>
<!-- Node7&#45;&gt;Node41 -->
<g id="edge45" class="edge">
<title>Node7&#45;&gt;Node41</title>
<path fill="none" stroke="midnightblue" d="M1537.7,-56.38C1538.97,-56.25 1540.24,-56.12 1541.5,-56 2006.37,-12.12 2129.1,-84.99 2591.5,-20 2594.43,-19.59 2597.48,-19.03 2600.49,-18.4"/>
<polygon fill="midnightblue" stroke="midnightblue" points="1537.28,-52.91 1527.77,-57.57 1538.11,-59.86 1537.28,-52.91"/>
</g>
<!-- Node7&#45;&gt;Node42 -->
<g id="edge46" class="edge">
<title>Node7&#45;&gt;Node42</title>
<path fill="none" stroke="midnightblue" d="M1537.83,-63.76C1845.17,-56.74 3352.99,-22.23 3376.5,-20 3379.24,-19.74 3382.06,-19.42 3384.89,-19.07"/>
<polygon fill="midnightblue" stroke="midnightblue" points="1537.74,-60.26 1527.83,-63.99 1537.9,-67.26 1537.74,-60.26"/>
</g>
<!-- Node43 -->
<g id="node43" class="node">
<title>Node43</title>
<g id="a_node43"><a xlink:href="widget_8c.html" target="_top" xlink:title=" ">
<polygon fill="white" stroke="black" points="1283.5,-0.5 1283.5,-19.5 1341.5,-19.5 1341.5,-0.5 1283.5,-0.5"/>
<text text-anchor="middle" x="1312.5" y="-7.5" font-family="FreeSans" font-size="10.00">widget.c</text>
</a>
</g>
</g>
<!-- Node7&#45;&gt;Node43 -->
<g id="edge47" class="edge">
<title>Node7&#45;&gt;Node43</title>
<path fill="none" stroke="midnightblue" d="M1446.46,-53.3C1414.24,-43.13 1368.31,-28.62 1339.47,-19.52"/>
<polygon fill="midnightblue" stroke="midnightblue" points="1445.81,-56.77 1456.4,-56.44 1447.92,-50.09 1445.81,-56.77"/>
</g>
<!-- Node44 -->
<g id="node44" class="node">
<title>Node44</title>
<g id="a_node44"><a xlink:href="xwindow_8c.html" target="_top" xlink:title=" ">
<polygon fill="white" stroke="black" points="1359.5,-0.5 1359.5,-19.5 1427.5,-19.5 1427.5,-0.5 1359.5,-0.5"/>
<text text-anchor="middle" x="1393.5" y="-7.5" font-family="FreeSans" font-size="10.00">xwindow.c</text>
</a>
</g>
</g>
<!-- Node7&#45;&gt;Node44 -->
<g id="edge48" class="edge">
<title>Node7&#45;&gt;Node44</title>
<path fill="none" stroke="midnightblue" d="M1460.46,-51.18C1443.9,-41.24 1422.08,-28.15 1407.92,-19.65"/>
<polygon fill="midnightblue" stroke="midnightblue" points="1458.66,-54.18 1469.04,-56.32 1462.27,-48.18 1458.66,-54.18"/>
</g>
</g>
</svg>
