<?xml version="1.0" encoding="UTF-8" standalone="no"?>
<!DOCTYPE svg PUBLIC "-//W3C//DTD SVG 1.1//EN"
 "http://www.w3.org/Graphics/SVG/1.1/DTD/svg11.dtd">
<!-- Generated by graphviz version 2.43.0 (0)
 -->
<!-- Title: colormap.h Pages: 1 -->
<svg width="941pt" height="140pt"
 viewBox="0.00 0.00 941.00 140.00" xmlns="http://www.w3.org/2000/svg" xmlns:xlink="http://www.w3.org/1999/xlink">
<g id="graph0" class="graph" transform="scale(1 1) rotate(0) translate(4 136)">
<title>colormap.h</title>
<polygon fill="white" stroke="transparent" points="-4,4 -4,-136 937,-136 937,4 -4,4"/>
<!-- Node1 -->
<g id="node1" class="node">
<title>Node1</title>
<g id="a_node1"><a xlink:title=" ">
<polygon fill="#bfbfbf" stroke="black" points="489.5,-112.5 489.5,-131.5 560.5,-131.5 560.5,-112.5 489.5,-112.5"/>
<text text-anchor="middle" x="525" y="-119.5" font-family="FreeSans" font-size="10.00">colormap.h</text>
</a>
</g>
</g>
<!-- Node2 -->
<g id="node2" class="node">
<title>Node2</title>
<g id="a_node2"><a xlink:href="MagickCore_8h.html" target="_top" xlink:title=" ">
<polygon fill="white" stroke="black" points="89.5,-56.5 89.5,-75.5 172.5,-75.5 172.5,-56.5 89.5,-56.5"/>
<text text-anchor="middle" x="131" y="-63.5" font-family="FreeSans" font-size="10.00">MagickCore.h</text>
</a>
</g>
</g>
<!-- Node1&#45;&gt;Node2 -->
<g id="edge1" class="edge">
<title>Node1&#45;&gt;Node2</title>
<path fill="none" stroke="midnightblue" d="M479.33,-115.66C413.51,-107.82 288.21,-92.33 182,-76 178.98,-75.54 175.86,-75.04 172.72,-74.52"/>
<polygon fill="midnightblue" stroke="midnightblue" points="479.03,-119.15 489.37,-116.85 479.86,-112.2 479.03,-119.15"/>
</g>
<!-- Node6 -->
<g id="node6" class="node">
<title>Node6</title>
<g id="a_node6"><a xlink:href="attribute_8c.html" target="_top" xlink:title=" ">
<polygon fill="white" stroke="black" points="190.5,-56.5 190.5,-75.5 257.5,-75.5 257.5,-56.5 190.5,-56.5"/>
<text text-anchor="middle" x="224" y="-63.5" font-family="FreeSans" font-size="10.00">attribute.c</text>
</a>
</g>
</g>
<!-- Node1&#45;&gt;Node6 -->
<g id="edge5" class="edge">
<title>Node1&#45;&gt;Node6</title>
<path fill="none" stroke="midnightblue" d="M479.3,-113.51C427.66,-104.93 341.15,-90.22 267,-76 264,-75.43 260.89,-74.81 257.78,-74.18"/>
<polygon fill="midnightblue" stroke="midnightblue" points="479.02,-117.01 489.46,-115.19 480.16,-110.1 479.02,-117.01"/>
</g>
<!-- Node7 -->
<g id="node7" class="node">
<title>Node7</title>
<g id="a_node7"><a xlink:href="colormap_8c.html" target="_top" xlink:title=" ">
<polygon fill="white" stroke="black" points="275.5,-56.5 275.5,-75.5 346.5,-75.5 346.5,-56.5 275.5,-56.5"/>
<text text-anchor="middle" x="311" y="-63.5" font-family="FreeSans" font-size="10.00">colormap.c</text>
</a>
</g>
</g>
<!-- Node1&#45;&gt;Node7 -->
<g id="edge6" class="edge">
<title>Node1&#45;&gt;Node7</title>
<path fill="none" stroke="midnightblue" d="M481.24,-109.96C440.83,-99.76 381.63,-84.82 344.75,-75.52"/>
<polygon fill="midnightblue" stroke="midnightblue" points="480.54,-113.39 491.09,-112.44 482.25,-106.6 480.54,-113.39"/>
</g>
<!-- Node8 -->
<g id="node8" class="node">
<title>Node8</title>
<g id="a_node8"><a xlink:href="deprecate_8c.html" target="_top" xlink:title=" ">
<polygon fill="white" stroke="black" points="365,-56.5 365,-75.5 439,-75.5 439,-56.5 365,-56.5"/>
<text text-anchor="middle" x="402" y="-63.5" font-family="FreeSans" font-size="10.00">deprecate.c</text>
</a>
</g>
</g>
<!-- Node1&#45;&gt;Node8 -->
<g id="edge7" class="edge">
<title>Node1&#45;&gt;Node8</title>
<path fill="none" stroke="midnightblue" d="M496.23,-108.37C473.19,-98.26 441.52,-84.35 421.4,-75.52"/>
<polygon fill="midnightblue" stroke="midnightblue" points="494.95,-111.63 505.51,-112.44 497.76,-105.22 494.95,-111.63"/>
</g>
<!-- Node9 -->
<g id="node9" class="node">
<title>Node9</title>
<g id="a_node9"><a xlink:href="image_8c.html" target="_top" xlink:title=" ">
<polygon fill="white" stroke="black" points="457,-56.5 457,-75.5 513,-75.5 513,-56.5 457,-56.5"/>
<text text-anchor="middle" x="485" y="-63.5" font-family="FreeSans" font-size="10.00">image.c</text>
</a>
</g>
</g>
<!-- Node1&#45;&gt;Node9 -->
<g id="edge8" class="edge">
<title>Node1&#45;&gt;Node9</title>
<path fill="none" stroke="midnightblue" d="M512.3,-103.86C505.37,-94.5 497.09,-83.33 491.48,-75.75"/>
<polygon fill="midnightblue" stroke="midnightblue" points="509.63,-106.13 518.39,-112.08 515.25,-101.96 509.63,-106.13"/>
</g>
<!-- Node10 -->
<g id="node10" class="node">
<title>Node10</title>
<g id="a_node10"><a xlink:href="quantize_8c.html" target="_top" xlink:title=" ">
<polygon fill="white" stroke="black" points="531.5,-56.5 531.5,-75.5 598.5,-75.5 598.5,-56.5 531.5,-56.5"/>
<text text-anchor="middle" x="565" y="-63.5" font-family="FreeSans" font-size="10.00">quantize.c</text>
</a>
</g>
</g>
<!-- Node1&#45;&gt;Node10 -->
<g id="edge9" class="edge">
<title>Node1&#45;&gt;Node10</title>
<path fill="none" stroke="midnightblue" d="M537.7,-103.86C544.63,-94.5 552.91,-83.33 558.52,-75.75"/>
<polygon fill="midnightblue" stroke="midnightblue" points="534.75,-101.96 531.61,-112.08 540.37,-106.13 534.75,-101.96"/>
</g>
<!-- Node11 -->
<g id="node11" class="node">
<title>Node11</title>
<g id="a_node11"><a xlink:href="segment_8c.html" target="_top" xlink:title=" ">
<polygon fill="white" stroke="black" points="617,-56.5 617,-75.5 685,-75.5 685,-56.5 617,-56.5"/>
<text text-anchor="middle" x="651" y="-63.5" font-family="FreeSans" font-size="10.00">segment.c</text>
</a>
</g>
</g>
<!-- Node1&#45;&gt;Node11 -->
<g id="edge10" class="edge">
<title>Node1&#45;&gt;Node11</title>
<path fill="none" stroke="midnightblue" d="M554.16,-108.5C577.78,-98.38 610.43,-84.39 631.13,-75.52"/>
<polygon fill="midnightblue" stroke="midnightblue" points="552.78,-105.29 544.97,-112.44 555.54,-111.72 552.78,-105.29"/>
</g>
<!-- Node12 -->
<g id="node12" class="node">
<title>Node12</title>
<g id="a_node12"><a xlink:href="threshold_8c.html" target="_top" xlink:title=" ">
<polygon fill="white" stroke="black" points="703.5,-56.5 703.5,-75.5 774.5,-75.5 774.5,-56.5 703.5,-56.5"/>
<text text-anchor="middle" x="739" y="-63.5" font-family="FreeSans" font-size="10.00">threshold.c</text>
</a>
</g>
</g>
<!-- Node1&#45;&gt;Node12 -->
<g id="edge11" class="edge">
<title>Node1&#45;&gt;Node12</title>
<path fill="none" stroke="midnightblue" d="M568.76,-109.96C609.17,-99.76 668.37,-84.82 705.25,-75.52"/>
<polygon fill="midnightblue" stroke="midnightblue" points="567.75,-106.6 558.91,-112.44 569.46,-113.39 567.75,-106.6"/>
</g>
<!-- Node13 -->
<g id="node13" class="node">
<title>Node13</title>
<g id="a_node13"><a xlink:href="vision_8c.html" target="_top" xlink:title=" ">
<polygon fill="white" stroke="black" points="793,-56.5 793,-75.5 847,-75.5 847,-56.5 793,-56.5"/>
<text text-anchor="middle" x="820" y="-63.5" font-family="FreeSans" font-size="10.00">vision.c</text>
</a>
</g>
</g>
<!-- Node1&#45;&gt;Node13 -->
<g id="edge12" class="edge">
<title>Node1&#45;&gt;Node13</title>
<path fill="none" stroke="midnightblue" d="M570.66,-114.1C622.56,-106.02 709.7,-91.72 784,-76 786.9,-75.39 789.92,-74.7 792.92,-73.99"/>
<polygon fill="midnightblue" stroke="midnightblue" points="570.11,-110.64 560.77,-115.63 571.19,-117.56 570.11,-110.64"/>
</g>
<!-- Node14 -->
<g id="node14" class="node">
<title>Node14</title>
<g id="a_node14"><a xlink:href="xwindow_8c.html" target="_top" xlink:title=" ">
<polygon fill="white" stroke="black" points="865,-56.5 865,-75.5 933,-75.5 933,-56.5 865,-56.5"/>
<text text-anchor="middle" x="899" y="-63.5" font-family="FreeSans" font-size="10.00">xwindow.c</text>
</a>
</g>
</g>
<!-- Node1&#45;&gt;Node14 -->
<g id="edge13" class="edge">
<title>Node1&#45;&gt;Node14</title>
<path fill="none" stroke="midnightblue" d="M571.06,-115.79C635.15,-108.3 754.76,-93.45 856,-76 858.86,-75.51 861.81,-74.96 864.77,-74.39"/>
<polygon fill="midnightblue" stroke="midnightblue" points="570.41,-112.34 560.88,-116.97 571.22,-119.29 570.41,-112.34"/>
</g>
<!-- Node3 -->
<g id="node3" class="node">
<title>Node3</title>
<g id="a_node3"><a xlink:href="ImageMagick_8h.html" target="_top" xlink:title=" ">
<polygon fill="white" stroke="black" points="0,-0.5 0,-19.5 92,-19.5 92,-0.5 0,-0.5"/>
<text text-anchor="middle" x="46" y="-7.5" font-family="FreeSans" font-size="10.00">ImageMagick.h</text>
</a>
</g>
</g>
<!-- Node2&#45;&gt;Node3 -->
<g id="edge2" class="edge">
<title>Node2&#45;&gt;Node3</title>
<path fill="none" stroke="midnightblue" d="M108.81,-50.9C93.22,-41 72.87,-28.07 59.62,-19.65"/>
<polygon fill="midnightblue" stroke="midnightblue" points="107.03,-53.92 117.34,-56.32 110.78,-48.01 107.03,-53.92"/>
</g>
<!-- Node4 -->
<g id="node4" class="node">
<title>Node4</title>
<g id="a_node4"><a xlink:href="api_8h.html" target="_top" xlink:title=" ">
<polygon fill="white" stroke="black" points="110.5,-0.5 110.5,-19.5 151.5,-19.5 151.5,-0.5 110.5,-0.5"/>
<text text-anchor="middle" x="131" y="-7.5" font-family="FreeSans" font-size="10.00">api.h</text>
</a>
</g>
</g>
<!-- Node2&#45;&gt;Node4 -->
<g id="edge3" class="edge">
<title>Node2&#45;&gt;Node4</title>
<path fill="none" stroke="midnightblue" d="M131,-45.8C131,-36.91 131,-26.78 131,-19.75"/>
<polygon fill="midnightblue" stroke="midnightblue" points="127.5,-46.08 131,-56.08 134.5,-46.08 127.5,-46.08"/>
</g>
<!-- Node5 -->
<g id="node5" class="node">
<title>Node5</title>
<g id="a_node5"><a xlink:href="image-view_8c.html" target="_top" xlink:title=" ">
<polygon fill="white" stroke="black" points="169.5,-0.5 169.5,-19.5 250.5,-19.5 250.5,-0.5 169.5,-0.5"/>
<text text-anchor="middle" x="210" y="-7.5" font-family="FreeSans" font-size="10.00">image&#45;view.c</text>
</a>
</g>
</g>
<!-- Node2&#45;&gt;Node5 -->
<g id="edge4" class="edge">
<title>Node2&#45;&gt;Node5</title>
<path fill="none" stroke="midnightblue" d="M152.03,-50.62C166.47,-40.76 185.14,-27.99 197.34,-19.65"/>
<polygon fill="midnightblue" stroke="midnightblue" points="149.97,-47.79 143.69,-56.32 153.92,-53.57 149.97,-47.79"/>
</g>
</g>
</svg>
