<?xml version="1.0" encoding="UTF-8" standalone="no"?>
<!DOCTYPE svg PUBLIC "-//W3C//DTD SVG 1.1//EN"
 "http://www.w3.org/Graphics/SVG/1.1/DTD/svg11.dtd">
<!-- Generated by graphviz version 2.43.0 (0)
 -->
<!-- Title: compare.c Pages: 1 -->
<svg width="3781pt" height="252pt"
 viewBox="0.00 0.00 3780.50 252.00" xmlns="http://www.w3.org/2000/svg" xmlns:xlink="http://www.w3.org/1999/xlink">
<g id="graph0" class="graph" transform="scale(1 1) rotate(0) translate(4 248)">
<title>compare.c</title>
<polygon fill="white" stroke="transparent" points="-4,4 -4,-248 3776.5,-248 3776.5,4 -4,4"/>
<!-- Node1 -->
<g id="node1" class="node">
<title>Node1</title>
<g id="a_node1"><a xlink:title=" ">
<polygon fill="#bfbfbf" stroke="black" points="1994,-224.5 1994,-243.5 2062,-243.5 2062,-224.5 1994,-224.5"/>
<text text-anchor="middle" x="2028" y="-231.5" font-family="FreeSans" font-size="10.00">compare.c</text>
</a>
</g>
</g>
<!-- Node2 -->
<g id="node2" class="node">
<title>Node2</title>
<g id="a_node2"><a xlink:href="studio_8h.html" target="_top" xlink:title=" ">
<polygon fill="white" stroke="red" points="757.5,-56.5 757.5,-75.5 852.5,-75.5 852.5,-56.5 757.5,-56.5"/>
<text text-anchor="middle" x="805" y="-63.5" font-family="FreeSans" font-size="10.00">magick/studio.h</text>
</a>
</g>
</g>
<!-- Node1&#45;&gt;Node2 -->
<g id="edge1" class="edge">
<title>Node1&#45;&gt;Node2</title>
<path fill="none" stroke="midnightblue" d="M1993.67,-233.18C1788.26,-234.12 728.96,-236.56 682,-188 642.94,-147.61 727.16,-101.45 774.97,-79.66"/>
<polygon fill="midnightblue" stroke="midnightblue" points="776.57,-82.77 784.28,-75.51 773.72,-76.38 776.57,-82.77"/>
</g>
<!-- Node24 -->
<g id="node21" class="node">
<title>Node24</title>
<g id="a_node21"><a xlink:href="artifact_8h.html" target="_top" xlink:title=" ">
<polygon fill="white" stroke="black" points="691,-168.5 691,-187.5 791,-187.5 791,-168.5 691,-168.5"/>
<text text-anchor="middle" x="741" y="-175.5" font-family="FreeSans" font-size="10.00">magick/artifact.h</text>
</a>
</g>
</g>
<!-- Node1&#45;&gt;Node24 -->
<g id="edge20" class="edge">
<title>Node1&#45;&gt;Node24</title>
<path fill="none" stroke="midnightblue" d="M1993.72,-233.18C1849.75,-233.65 1279.67,-232.47 801.38,-188.01"/>
<polygon fill="midnightblue" stroke="midnightblue" points="801.45,-184.5 791.16,-187.05 800.79,-191.47 801.45,-184.5"/>
</g>
<!-- Node25 -->
<g id="node22" class="node">
<title>Node25</title>
<g id="a_node22"><a xlink:href="cache-view_8h.html" target="_top" xlink:title=" ">
<polygon fill="white" stroke="red" points="809.5,-168.5 809.5,-187.5 928.5,-187.5 928.5,-168.5 809.5,-168.5"/>
<text text-anchor="middle" x="869" y="-175.5" font-family="FreeSans" font-size="10.00">magick/cache&#45;view.h</text>
</a>
</g>
</g>
<!-- Node1&#45;&gt;Node25 -->
<g id="edge21" class="edge">
<title>Node1&#45;&gt;Node25</title>
<path fill="none" stroke="midnightblue" d="M1993.99,-232.72C1860.67,-231.37 1360.65,-224.11 938.93,-188.09"/>
<polygon fill="midnightblue" stroke="midnightblue" points="938.93,-184.58 928.67,-187.21 938.33,-191.55 938.93,-184.58"/>
</g>
<!-- Node29 -->
<g id="node23" class="node">
<title>Node29</title>
<g id="a_node23"><a xlink:href="channel_8h.html" target="_top" xlink:title=" ">
<polygon fill="white" stroke="red" points="946.5,-168.5 946.5,-187.5 1049.5,-187.5 1049.5,-168.5 946.5,-168.5"/>
<text text-anchor="middle" x="998" y="-175.5" font-family="FreeSans" font-size="10.00">magick/channel.h</text>
</a>
</g>
</g>
<!-- Node1&#45;&gt;Node29 -->
<g id="edge22" class="edge">
<title>Node1&#45;&gt;Node29</title>
<path fill="none" stroke="midnightblue" d="M1993.58,-232.65C1869.25,-231.11 1431.6,-223.41 1059.69,-187.95"/>
<polygon fill="midnightblue" stroke="midnightblue" points="1059.83,-184.45 1049.54,-186.97 1059.16,-191.42 1059.83,-184.45"/>
</g>
<!-- Node52 -->
<g id="node24" class="node">
<title>Node52</title>
<g id="a_node24"><a xlink:href="client_8h.html" target="_top" xlink:title=" ">
<polygon fill="white" stroke="black" points="1068,-168.5 1068,-187.5 1160,-187.5 1160,-168.5 1068,-168.5"/>
<text text-anchor="middle" x="1114" y="-175.5" font-family="FreeSans" font-size="10.00">magick/client.h</text>
</a>
</g>
</g>
<!-- Node1&#45;&gt;Node52 -->
<g id="edge23" class="edge">
<title>Node1&#45;&gt;Node52</title>
<path fill="none" stroke="midnightblue" d="M1993.74,-232.38C1878.09,-230.03 1491.59,-220.11 1174,-188 1172.73,-187.87 1171.45,-187.74 1170.16,-187.59"/>
<polygon fill="midnightblue" stroke="midnightblue" points="1170.48,-184.11 1160.13,-186.38 1169.64,-191.06 1170.48,-184.11"/>
</g>
<!-- Node31 -->
<g id="node25" class="node">
<title>Node31</title>
<g id="a_node25"><a xlink:href="color_8h.html" target="_top" xlink:title=" ">
<polygon fill="white" stroke="red" points="1491,-56.5 1491,-75.5 1579,-75.5 1579,-56.5 1491,-56.5"/>
<text text-anchor="middle" x="1535" y="-63.5" font-family="FreeSans" font-size="10.00">magick/color.h</text>
</a>
</g>
</g>
<!-- Node1&#45;&gt;Node31 -->
<g id="edge24" class="edge">
<title>Node1&#45;&gt;Node31</title>
<path fill="none" stroke="midnightblue" d="M1993.93,-233.38C1863.1,-234.48 1398.01,-235.05 1354,-188 1347.93,-181.51 1349.5,-175.67 1354,-168 1370.8,-139.39 1457.29,-99.6 1504.37,-79.57"/>
<polygon fill="midnightblue" stroke="midnightblue" points="1505.93,-82.72 1513.78,-75.61 1503.21,-76.27 1505.93,-82.72"/>
</g>
<!-- Node53 -->
<g id="node26" class="node">
<title>Node53</title>
<g id="a_node26"><a xlink:href="color-private_8h.html" target="_top" xlink:title=" ">
<polygon fill="white" stroke="red" points="1363.5,-168.5 1363.5,-187.5 1490.5,-187.5 1490.5,-168.5 1363.5,-168.5"/>
<text text-anchor="middle" x="1427" y="-175.5" font-family="FreeSans" font-size="10.00">magick/color&#45;private.h</text>
</a>
</g>
</g>
<!-- Node1&#45;&gt;Node53 -->
<g id="edge25" class="edge">
<title>Node1&#45;&gt;Node53</title>
<path fill="none" stroke="midnightblue" d="M1993.7,-230.4C1910.08,-223.97 1689.07,-206.53 1505,-188 1503.7,-187.87 1502.39,-187.74 1501.08,-187.6"/>
<polygon fill="midnightblue" stroke="midnightblue" points="1501.15,-184.09 1490.83,-186.52 1500.41,-191.05 1501.15,-184.09"/>
</g>
<!-- Node54 -->
<g id="node27" class="node">
<title>Node54</title>
<g id="a_node27"><a xlink:href="image-private_8h.html" target="_top" xlink:title=" ">
<polygon fill="white" stroke="black" points="1651,-56.5 1651,-75.5 1785,-75.5 1785,-56.5 1651,-56.5"/>
<text text-anchor="middle" x="1718" y="-63.5" font-family="FreeSans" font-size="10.00">magick/image&#45;private.h</text>
</a>
</g>
</g>
<!-- Node1&#45;&gt;Node54 -->
<g id="edge51" class="edge">
<title>Node1&#45;&gt;Node54</title>
<path fill="none" stroke="midnightblue" d="M2025.38,-224.1C2021.06,-210.66 2011.37,-184.97 1996,-168 1964.38,-133.08 1949.47,-130.16 1906,-112 1867.08,-95.74 1821.06,-84.6 1784.3,-77.47"/>
<polygon fill="midnightblue" stroke="midnightblue" points="1784.66,-73.98 1774.18,-75.56 1783.36,-80.86 1784.66,-73.98"/>
</g>
<!-- Node55 -->
<g id="node28" class="node">
<title>Node55</title>
<g id="a_node28"><a xlink:href="colorspace-private_8h.html" target="_top" xlink:title=" ">
<polygon fill="white" stroke="red" points="1521.5,-112.5 1521.5,-131.5 1676.5,-131.5 1676.5,-112.5 1521.5,-112.5"/>
<text text-anchor="middle" x="1599" y="-119.5" font-family="FreeSans" font-size="10.00">magick/colorspace&#45;private.h</text>
</a>
</g>
</g>
<!-- Node1&#45;&gt;Node55 -->
<g id="edge37" class="edge">
<title>Node1&#45;&gt;Node55</title>
<path fill="none" stroke="midnightblue" d="M1993.77,-232.46C1887.52,-230.44 1568.66,-221.61 1538,-188 1521.52,-169.93 1548.63,-149.4 1571.79,-136.34"/>
<polygon fill="midnightblue" stroke="midnightblue" points="1573.55,-139.37 1580.7,-131.55 1570.23,-133.2 1573.55,-139.37"/>
</g>
<!-- Node62 -->
<g id="node29" class="node">
<title>Node62</title>
<g id="a_node29"><a xlink:href="exception-private_8h.html" target="_top" xlink:title=" ">
<polygon fill="white" stroke="red" points="1237.5,-112.5 1237.5,-131.5 1388.5,-131.5 1388.5,-112.5 1237.5,-112.5"/>
<text text-anchor="middle" x="1313" y="-119.5" font-family="FreeSans" font-size="10.00">magick/exception&#45;private.h</text>
</a>
</g>
</g>
<!-- Node1&#45;&gt;Node62 -->
<g id="edge49" class="edge">
<title>Node1&#45;&gt;Node62</title>
<path fill="none" stroke="midnightblue" d="M1993.83,-233.33C1859.2,-234.28 1370.33,-234.51 1321,-188 1308.74,-176.44 1307.99,-156.48 1309.54,-141.72"/>
<polygon fill="midnightblue" stroke="midnightblue" points="1313.02,-142.07 1311.02,-131.67 1306.1,-141.05 1313.02,-142.07"/>
</g>
<!-- Node63 -->
<g id="node30" class="node">
<title>Node63</title>
<g id="a_node30"><a xlink:href="log_8h.html" target="_top" xlink:title=" ">
<polygon fill="white" stroke="red" points="1273,-56.5 1273,-75.5 1353,-75.5 1353,-56.5 1273,-56.5"/>
<text text-anchor="middle" x="1313" y="-63.5" font-family="FreeSans" font-size="10.00">magick/log.h</text>
</a>
</g>
</g>
<!-- Node1&#45;&gt;Node63 -->
<g id="edge53" class="edge">
<title>Node1&#45;&gt;Node63</title>
<path fill="none" stroke="midnightblue" d="M1993.58,-233.33C1868.11,-234.15 1435.9,-233.52 1307,-188 1261.06,-171.78 1202.87,-153.74 1228,-112 1237.29,-96.57 1253.83,-86.16 1269.87,-79.27"/>
<polygon fill="midnightblue" stroke="midnightblue" points="1271.17,-82.52 1279.2,-75.61 1268.61,-76.01 1271.17,-82.52"/>
</g>
<!-- Node46 -->
<g id="node31" class="node">
<title>Node46</title>
<g id="a_node31"><a xlink:href="string___8h.html" target="_top" xlink:title=" ">
<polygon fill="white" stroke="red" points="1157,-56.5 1157,-75.5 1255,-75.5 1255,-56.5 1157,-56.5"/>
<text text-anchor="middle" x="1206" y="-63.5" font-family="FreeSans" font-size="10.00">magick/string_.h</text>
</a>
</g>
</g>
<!-- Node1&#45;&gt;Node46 -->
<g id="edge61" class="edge">
<title>Node1&#45;&gt;Node46</title>
<path fill="none" stroke="midnightblue" d="M1993.97,-232.87C1852.61,-232.1 1316.18,-226.61 1252,-188 1216.79,-166.82 1208.41,-114.19 1206.5,-85.82"/>
<polygon fill="midnightblue" stroke="midnightblue" points="1209.98,-85.45 1206.02,-75.63 1202.99,-85.78 1209.98,-85.45"/>
</g>
<!-- Node27 -->
<g id="node32" class="node">
<title>Node27</title>
<g id="a_node32"><a xlink:href="colorspace_8h.html" target="_top" xlink:title=" ">
<polygon fill="white" stroke="black" points="1719.5,-168.5 1719.5,-187.5 1836.5,-187.5 1836.5,-168.5 1719.5,-168.5"/>
<text text-anchor="middle" x="1778" y="-175.5" font-family="FreeSans" font-size="10.00">magick/colorspace.h</text>
</a>
</g>
</g>
<!-- Node1&#45;&gt;Node27 -->
<g id="edge36" class="edge">
<title>Node1&#45;&gt;Node27</title>
<path fill="none" stroke="midnightblue" d="M1993.76,-225.6C1950.73,-216.31 1876.54,-200.29 1827.38,-189.67"/>
<polygon fill="midnightblue" stroke="midnightblue" points="1828.1,-186.24 1817.59,-187.55 1826.62,-193.08 1828.1,-186.24"/>
</g>
<!-- Node65 -->
<g id="node33" class="node">
<title>Node65</title>
<g id="a_node33"><a xlink:href="compare_8h.html" target="_top" xlink:title=" ">
<polygon fill="white" stroke="red" points="1854.5,-168.5 1854.5,-187.5 1961.5,-187.5 1961.5,-168.5 1854.5,-168.5"/>
<text text-anchor="middle" x="1908" y="-175.5" font-family="FreeSans" font-size="10.00">magick/compare.h</text>
</a>
</g>
</g>
<!-- Node1&#45;&gt;Node65 -->
<g id="edge38" class="edge">
<title>Node1&#45;&gt;Node65</title>
<path fill="none" stroke="midnightblue" d="M2008.99,-224.44C1989.41,-215.64 1958.69,-201.81 1936.27,-191.72"/>
<polygon fill="midnightblue" stroke="midnightblue" points="1937.48,-188.43 1926.93,-187.52 1934.61,-194.81 1937.48,-188.43"/>
</g>
<!-- Node66 -->
<g id="node34" class="node">
<title>Node66</title>
<g id="a_node34"><a xlink:href="composite-private_8h.html" target="_top" xlink:title=" ">
<polygon fill="white" stroke="red" points="1547,-168.5 1547,-187.5 1701,-187.5 1701,-168.5 1547,-168.5"/>
<text text-anchor="middle" x="1624" y="-175.5" font-family="FreeSans" font-size="10.00">magick/composite&#45;private.h</text>
</a>
</g>
</g>
<!-- Node1&#45;&gt;Node66 -->
<g id="edge39" class="edge">
<title>Node1&#45;&gt;Node66</title>
<path fill="none" stroke="midnightblue" d="M1993.9,-228.44C1928.85,-219.75 1785.69,-200.61 1697.77,-188.86"/>
<polygon fill="midnightblue" stroke="midnightblue" points="1697.97,-185.36 1687.6,-187.5 1697.05,-192.29 1697.97,-185.36"/>
</g>
<!-- Node67 -->
<g id="node35" class="node">
<title>Node67</title>
<g id="a_node35"><a xlink:href="pixel-private_8h.html" target="_top" xlink:title=" ">
<polygon fill="white" stroke="red" points="1771,-112.5 1771,-131.5 1897,-131.5 1897,-112.5 1771,-112.5"/>
<text text-anchor="middle" x="1834" y="-119.5" font-family="FreeSans" font-size="10.00">magick/pixel&#45;private.h</text>
</a>
</g>
</g>
<!-- Node1&#45;&gt;Node67 -->
<g id="edge58" class="edge">
<title>Node1&#45;&gt;Node67</title>
<path fill="none" stroke="midnightblue" d="M2022.34,-224.09C2013.05,-210.17 1993.26,-183.27 1970,-168 1945.39,-151.84 1914.46,-141.01 1888.32,-134.03"/>
<polygon fill="midnightblue" stroke="midnightblue" points="1889.11,-130.62 1878.55,-131.53 1887.38,-137.4 1889.11,-130.62"/>
</g>
<!-- Node68 -->
<g id="node36" class="node">
<title>Node68</title>
<g id="a_node36"><a xlink:href="memory___8h.html" target="_top" xlink:title=" ">
<polygon fill="white" stroke="black" points="1803.5,-56.5 1803.5,-75.5 1914.5,-75.5 1914.5,-56.5 1803.5,-56.5"/>
<text text-anchor="middle" x="1859" y="-63.5" font-family="FreeSans" font-size="10.00">magick/memory_.h</text>
</a>
</g>
</g>
<!-- Node1&#45;&gt;Node68 -->
<g id="edge54" class="edge">
<title>Node1&#45;&gt;Node68</title>
<path fill="none" stroke="midnightblue" d="M2062.19,-233.19C2268.01,-234.17 3334.73,-236.87 3382,-188 3388.18,-181.61 3388.02,-174.54 3382,-168 3331.9,-113.61 2211.02,-77.28 1924.97,-68.87"/>
<polygon fill="midnightblue" stroke="midnightblue" points="1924.85,-65.36 1914.75,-68.57 1924.65,-72.36 1924.85,-65.36"/>
</g>
<!-- Node28 -->
<g id="node37" class="node">
<title>Node28</title>
<g id="a_node37"><a xlink:href="constitute_8h.html" target="_top" xlink:title=" ">
<polygon fill="white" stroke="black" points="2208.5,-168.5 2208.5,-187.5 2321.5,-187.5 2321.5,-168.5 2208.5,-168.5"/>
<text text-anchor="middle" x="2265" y="-175.5" font-family="FreeSans" font-size="10.00">magick/constitute.h</text>
</a>
</g>
</g>
<!-- Node1&#45;&gt;Node28 -->
<g id="edge48" class="edge">
<title>Node1&#45;&gt;Node28</title>
<path fill="none" stroke="midnightblue" d="M2062.21,-225.21C2103.09,-215.89 2171.71,-200.26 2217.66,-189.79"/>
<polygon fill="midnightblue" stroke="midnightblue" points="2218.7,-193.14 2227.67,-187.5 2217.15,-186.31 2218.7,-193.14"/>
</g>
<!-- Node40 -->
<g id="node38" class="node">
<title>Node40</title>
<g id="a_node38"><a xlink:href="geometry_8h.html" target="_top" xlink:title=" ">
<polygon fill="white" stroke="black" points="2340,-168.5 2340,-187.5 2450,-187.5 2450,-168.5 2340,-168.5"/>
<text text-anchor="middle" x="2395" y="-175.5" font-family="FreeSans" font-size="10.00">magick/geometry.h</text>
</a>
</g>
</g>
<!-- Node1&#45;&gt;Node40 -->
<g id="edge50" class="edge">
<title>Node1&#45;&gt;Node40</title>
<path fill="none" stroke="midnightblue" d="M2062.2,-227.97C2123.08,-219.01 2251.2,-200.16 2329.52,-188.63"/>
<polygon fill="midnightblue" stroke="midnightblue" points="2330.37,-192.05 2339.75,-187.13 2329.35,-185.12 2330.37,-192.05"/>
</g>
<!-- Node71 -->
<g id="node39" class="node">
<title>Node71</title>
<g id="a_node39"><a xlink:href="list_8h.html" target="_top" xlink:title=" ">
<polygon fill="white" stroke="black" points="2468,-168.5 2468,-187.5 2548,-187.5 2548,-168.5 2468,-168.5"/>
<text text-anchor="middle" x="2508" y="-175.5" font-family="FreeSans" font-size="10.00">magick/list.h</text>
</a>
</g>
</g>
<!-- Node1&#45;&gt;Node71 -->
<g id="edge52" class="edge">
<title>Node1&#45;&gt;Node71</title>
<path fill="none" stroke="midnightblue" d="M2062.19,-230.34C2133.69,-224.58 2304.38,-209.8 2457.85,-188.06"/>
<polygon fill="midnightblue" stroke="midnightblue" points="2458.53,-191.5 2467.93,-186.62 2457.54,-184.57 2458.53,-191.5"/>
</g>
<!-- Node44 -->
<g id="node40" class="node">
<title>Node44</title>
<g id="a_node40"><a xlink:href="monitor_8h.html" target="_top" xlink:title=" ">
<polygon fill="white" stroke="black" points="2566,-168.5 2566,-187.5 2668,-187.5 2668,-168.5 2566,-168.5"/>
<text text-anchor="middle" x="2617" y="-175.5" font-family="FreeSans" font-size="10.00">magick/monitor.h</text>
</a>
</g>
</g>
<!-- Node1&#45;&gt;Node44 -->
<g id="edge55" class="edge">
<title>Node1&#45;&gt;Node44</title>
<path fill="none" stroke="midnightblue" d="M2062.11,-230.86C2144.88,-225.5 2363.08,-210.4 2555.93,-188.05"/>
<polygon fill="midnightblue" stroke="midnightblue" points="2556.44,-191.52 2565.97,-186.88 2555.63,-184.57 2556.44,-191.52"/>
</g>
<!-- Node72 -->
<g id="node41" class="node">
<title>Node72</title>
<g id="a_node41"><a xlink:href="monitor-private_8h.html" target="_top" xlink:title=" ">
<polygon fill="white" stroke="black" points="2686.5,-168.5 2686.5,-187.5 2827.5,-187.5 2827.5,-168.5 2686.5,-168.5"/>
<text text-anchor="middle" x="2757" y="-175.5" font-family="FreeSans" font-size="10.00">magick/monitor&#45;private.h</text>
</a>
</g>
</g>
<!-- Node1&#45;&gt;Node72 -->
<g id="edge56" class="edge">
<title>Node1&#45;&gt;Node72</title>
<path fill="none" stroke="midnightblue" d="M2062.17,-231.15C2157.47,-225.87 2434.48,-209.79 2676.31,-188.02"/>
<polygon fill="midnightblue" stroke="midnightblue" points="2676.7,-191.5 2686.35,-187.11 2676.07,-184.53 2676.7,-191.5"/>
</g>
<!-- Node73 -->
<g id="node42" class="node">
<title>Node73</title>
<g id="a_node42"><a xlink:href="option_8h.html" target="_top" xlink:title=" ">
<polygon fill="white" stroke="black" points="2845.5,-168.5 2845.5,-187.5 2940.5,-187.5 2940.5,-168.5 2845.5,-168.5"/>
<text text-anchor="middle" x="2893" y="-175.5" font-family="FreeSans" font-size="10.00">magick/option.h</text>
</a>
</g>
</g>
<!-- Node1&#45;&gt;Node73 -->
<g id="edge57" class="edge">
<title>Node1&#45;&gt;Node73</title>
<path fill="none" stroke="midnightblue" d="M2062.01,-232.37C2172.22,-230.07 2529.56,-220.5 2835,-188.11"/>
<polygon fill="midnightblue" stroke="midnightblue" points="2835.82,-191.54 2845.39,-187 2835.07,-184.58 2835.82,-191.54"/>
</g>
<!-- Node74 -->
<g id="node43" class="node">
<title>Node74</title>
<g id="a_node43"><a xlink:href="property_8h.html" target="_top" xlink:title=" ">
<polygon fill="white" stroke="black" points="2959,-168.5 2959,-187.5 3063,-187.5 3063,-168.5 2959,-168.5"/>
<text text-anchor="middle" x="3011" y="-175.5" font-family="FreeSans" font-size="10.00">magick/property.h</text>
</a>
</g>
</g>
<!-- Node1&#45;&gt;Node74 -->
<g id="edge59" class="edge">
<title>Node1&#45;&gt;Node74</title>
<path fill="none" stroke="midnightblue" d="M2062.41,-232.53C2182.85,-230.64 2596.71,-221.99 2948.67,-188.03"/>
<polygon fill="midnightblue" stroke="midnightblue" points="2949.18,-191.5 2958.8,-187.04 2948.51,-184.53 2949.18,-191.5"/>
</g>
<!-- Node75 -->
<g id="node44" class="node">
<title>Node75</title>
<g id="a_node44"><a xlink:href="resource___8h.html" target="_top" xlink:title=" ">
<polygon fill="white" stroke="black" points="2579,-112.5 2579,-131.5 2691,-131.5 2691,-112.5 2579,-112.5"/>
<text text-anchor="middle" x="2635" y="-119.5" font-family="FreeSans" font-size="10.00">magick/resource_.h</text>
</a>
</g>
</g>
<!-- Node1&#45;&gt;Node75 -->
<g id="edge60" class="edge">
<title>Node1&#45;&gt;Node75</title>
<path fill="none" stroke="midnightblue" d="M2062.03,-232.84C2237.82,-231.85 3036.27,-225.3 3072,-188 3124.36,-133.34 2836.26,-124.33 2701.53,-123.06"/>
<polygon fill="midnightblue" stroke="midnightblue" points="2701.35,-119.56 2691.32,-122.98 2701.29,-126.56 2701.35,-119.56"/>
</g>
<!-- Node76 -->
<g id="node45" class="node">
<title>Node76</title>
<g id="a_node45"><a xlink:href="string-private_8h.html" target="_top" xlink:title=" ">
<polygon fill="white" stroke="red" points="3119.5,-168.5 3119.5,-187.5 3250.5,-187.5 3250.5,-168.5 3119.5,-168.5"/>
<text text-anchor="middle" x="3185" y="-175.5" font-family="FreeSans" font-size="10.00">magick/string&#45;private.h</text>
</a>
</g>
</g>
<!-- Node1&#45;&gt;Node76 -->
<g id="edge62" class="edge">
<title>Node1&#45;&gt;Node76</title>
<path fill="none" stroke="midnightblue" d="M2062,-232.45C2195.29,-230.1 2694.97,-219.59 3105,-188 3106.29,-187.9 3107.6,-187.8 3108.91,-187.69"/>
<polygon fill="midnightblue" stroke="midnightblue" points="3109.46,-191.15 3119.11,-186.78 3108.84,-184.18 3109.46,-191.15"/>
</g>
<!-- Node78 -->
<g id="node46" class="node">
<title>Node78</title>
<g id="a_node46"><a xlink:href="statistic_8h.html" target="_top" xlink:title=" ">
<polygon fill="white" stroke="red" points="3269,-168.5 3269,-187.5 3373,-187.5 3373,-168.5 3269,-168.5"/>
<text text-anchor="middle" x="3321" y="-175.5" font-family="FreeSans" font-size="10.00">magick/statistic.h</text>
</a>
</g>
</g>
<!-- Node1&#45;&gt;Node78 -->
<g id="edge63" class="edge">
<title>Node1&#45;&gt;Node78</title>
<path fill="none" stroke="midnightblue" d="M2062.38,-233.13C2206.8,-233.37 2778.66,-231.44 3258.55,-188.02"/>
<polygon fill="midnightblue" stroke="midnightblue" points="3259.16,-191.48 3268.8,-187.09 3258.53,-184.51 3259.16,-191.48"/>
</g>
<!-- Node79 -->
<g id="node47" class="node">
<title>Node79</title>
<g id="a_node47"><a xlink:href="thread-private_8h.html" target="_top" xlink:title=" ">
<polygon fill="white" stroke="red" points="2056,-168.5 2056,-187.5 2190,-187.5 2190,-168.5 2056,-168.5"/>
<text text-anchor="middle" x="2123" y="-175.5" font-family="FreeSans" font-size="10.00">magick/thread&#45;private.h</text>
</a>
</g>
</g>
<!-- Node1&#45;&gt;Node79 -->
<g id="edge64" class="edge">
<title>Node1&#45;&gt;Node79</title>
<path fill="none" stroke="midnightblue" d="M2043.26,-224.32C2058.22,-215.82 2081.25,-202.73 2098.73,-192.8"/>
<polygon fill="midnightblue" stroke="midnightblue" points="2100.81,-195.64 2107.77,-187.65 2097.35,-189.55 2100.81,-195.64"/>
</g>
<!-- Node81 -->
<g id="node48" class="node">
<title>Node81</title>
<g id="a_node48"><a xlink:href="transform_8h.html" target="_top" xlink:title=" ">
<polygon fill="white" stroke="black" points="3429.5,-168.5 3429.5,-187.5 3542.5,-187.5 3542.5,-168.5 3429.5,-168.5"/>
<text text-anchor="middle" x="3486" y="-175.5" font-family="FreeSans" font-size="10.00">magick/transform.h</text>
</a>
</g>
</g>
<!-- Node1&#45;&gt;Node81 -->
<g id="edge67" class="edge">
<title>Node1&#45;&gt;Node81</title>
<path fill="none" stroke="midnightblue" d="M2062.12,-233.07C2217.85,-233.14 2876.72,-230.75 3415,-188 3416.47,-187.88 3417.96,-187.76 3419.46,-187.62"/>
<polygon fill="midnightblue" stroke="midnightblue" points="3419.85,-191.1 3429.47,-186.65 3419.18,-184.14 3419.85,-191.1"/>
</g>
<!-- Node82 -->
<g id="node49" class="node">
<title>Node82</title>
<g id="a_node49"><a xlink:href="utility_8h.html" target="_top" xlink:title=" ">
<polygon fill="white" stroke="black" points="3561,-168.5 3561,-187.5 3653,-187.5 3653,-168.5 3561,-168.5"/>
<text text-anchor="middle" x="3607" y="-175.5" font-family="FreeSans" font-size="10.00">magick/utility.h</text>
</a>
</g>
</g>
<!-- Node1&#45;&gt;Node82 -->
<g id="edge68" class="edge">
<title>Node1&#45;&gt;Node82</title>
<path fill="none" stroke="midnightblue" d="M2062.27,-232.61C2257.1,-230.28 3227.66,-217.43 3550.56,-187.97"/>
<polygon fill="midnightblue" stroke="midnightblue" points="3551.22,-191.43 3560.84,-187.01 3550.56,-184.46 3551.22,-191.43"/>
</g>
<!-- Node83 -->
<g id="node50" class="node">
<title>Node83</title>
<g id="a_node50"><a xlink:href="version_8h.html" target="_top" xlink:title=" ">
<polygon fill="white" stroke="black" points="3671.5,-168.5 3671.5,-187.5 3772.5,-187.5 3772.5,-168.5 3671.5,-168.5"/>
<text text-anchor="middle" x="3722" y="-175.5" font-family="FreeSans" font-size="10.00">magick/version.h</text>
</a>
</g>
</g>
<!-- Node1&#45;&gt;Node83 -->
<g id="edge69" class="edge">
<title>Node1&#45;&gt;Node83</title>
<path fill="none" stroke="midnightblue" d="M2062.03,-232.63C2264.63,-230.32 3314.53,-217.15 3661.26,-187.91"/>
<polygon fill="midnightblue" stroke="midnightblue" points="3661.65,-191.39 3671.31,-187.04 3661.05,-184.42 3661.65,-191.39"/>
</g>
<!-- Node3 -->
<g id="node3" class="node">
<title>Node3</title>
<g id="a_node3"><a xlink:href="magick-config_8h.html" target="_top" xlink:title=" ">
<polygon fill="white" stroke="red" points="558,-0.5 558,-19.5 692,-19.5 692,-0.5 558,-0.5"/>
<text text-anchor="middle" x="625" y="-7.5" font-family="FreeSans" font-size="10.00">magick/magick&#45;config.h</text>
</a>
</g>
</g>
<!-- Node2&#45;&gt;Node3 -->
<g id="edge2" class="edge">
<title>Node2&#45;&gt;Node3</title>
<path fill="none" stroke="midnightblue" d="M776.48,-56.44C745.93,-47.28 697.29,-32.69 663.4,-22.52"/>
<polygon fill="midnightblue" stroke="midnightblue" points="663.97,-19.04 653.39,-19.52 661.96,-25.74 663.97,-19.04"/>
</g>
<!-- Node5 -->
<g id="node4" class="node">
<title>Node5</title>
<g id="a_node4"><a xlink:title=" ">
<polygon fill="white" stroke="#bfbfbf" points="1267,-0.5 1267,-19.5 1323,-19.5 1323,-0.5 1267,-0.5"/>
<text text-anchor="middle" x="1295" y="-7.5" font-family="FreeSans" font-size="10.00">stdarg.h</text>
</a>
</g>
</g>
<!-- Node2&#45;&gt;Node5 -->
<g id="edge3" class="edge">
<title>Node2&#45;&gt;Node5</title>
<path fill="none" stroke="midnightblue" d="M852.57,-62.47C933.63,-57.67 1103.82,-45.53 1256.76,-19.99"/>
<polygon fill="midnightblue" stroke="midnightblue" points="1257.53,-23.41 1266.8,-18.29 1256.36,-16.51 1257.53,-23.41"/>
</g>
<!-- Node6 -->
<g id="node5" class="node">
<title>Node6</title>
<g id="a_node5"><a xlink:title=" ">
<polygon fill="white" stroke="#bfbfbf" points="710,-0.5 710,-19.5 760,-19.5 760,-0.5 710,-0.5"/>
<text text-anchor="middle" x="735" y="-7.5" font-family="FreeSans" font-size="10.00">stdio.h</text>
</a>
</g>
</g>
<!-- Node2&#45;&gt;Node6 -->
<g id="edge4" class="edge">
<title>Node2&#45;&gt;Node6</title>
<path fill="none" stroke="midnightblue" d="M793.75,-56.32C783.2,-48.18 767.2,-35.84 754.56,-26.09"/>
<polygon fill="midnightblue" stroke="midnightblue" points="756.51,-23.17 746.45,-19.83 752.23,-28.71 756.51,-23.17"/>
</g>
<!-- Node7 -->
<g id="node6" class="node">
<title>Node7</title>
<g id="a_node6"><a xlink:title=" ">
<polygon fill="white" stroke="#bfbfbf" points="778.5,-0.5 778.5,-19.5 831.5,-19.5 831.5,-0.5 778.5,-0.5"/>
<text text-anchor="middle" x="805" y="-7.5" font-family="FreeSans" font-size="10.00">ctype.h</text>
</a>
</g>
</g>
<!-- Node2&#45;&gt;Node7 -->
<g id="edge5" class="edge">
<title>Node2&#45;&gt;Node7</title>
<path fill="none" stroke="midnightblue" d="M805,-56.08C805,-49.01 805,-38.86 805,-29.99"/>
<polygon fill="midnightblue" stroke="midnightblue" points="808.5,-29.75 805,-19.75 801.5,-29.75 808.5,-29.75"/>
</g>
<!-- Node8 -->
<g id="node7" class="node">
<title>Node8</title>
<g id="a_node7"><a xlink:title=" ">
<polygon fill="white" stroke="#bfbfbf" points="849.5,-0.5 849.5,-19.5 904.5,-19.5 904.5,-0.5 849.5,-0.5"/>
<text text-anchor="middle" x="877" y="-7.5" font-family="FreeSans" font-size="10.00">locale.h</text>
</a>
</g>
</g>
<!-- Node2&#45;&gt;Node8 -->
<g id="edge6" class="edge">
<title>Node2&#45;&gt;Node8</title>
<path fill="none" stroke="midnightblue" d="M816.57,-56.32C827.42,-48.18 843.88,-35.84 856.88,-26.09"/>
<polygon fill="midnightblue" stroke="midnightblue" points="859.32,-28.63 865.22,-19.83 855.12,-23.03 859.32,-28.63"/>
</g>
<!-- Node9 -->
<g id="node8" class="node">
<title>Node9</title>
<g id="a_node8"><a xlink:title=" ">
<polygon fill="white" stroke="#bfbfbf" points="1457.5,-0.5 1457.5,-19.5 1508.5,-19.5 1508.5,-0.5 1457.5,-0.5"/>
<text text-anchor="middle" x="1483" y="-7.5" font-family="FreeSans" font-size="10.00">errno.h</text>
</a>
</g>
</g>
<!-- Node2&#45;&gt;Node9 -->
<g id="edge7" class="edge">
<title>Node2&#45;&gt;Node9</title>
<path fill="none" stroke="midnightblue" d="M852.68,-61.2C981.3,-50.96 1333.38,-22.92 1447.08,-13.86"/>
<polygon fill="midnightblue" stroke="midnightblue" points="1447.63,-17.33 1457.32,-13.04 1447.08,-10.35 1447.63,-17.33"/>
</g>
<!-- Node10 -->
<g id="node9" class="node">
<title>Node10</title>
<g id="a_node9"><a xlink:title=" ">
<polygon fill="white" stroke="#bfbfbf" points="922.5,-0.5 922.5,-19.5 969.5,-19.5 969.5,-0.5 922.5,-0.5"/>
<text text-anchor="middle" x="946" y="-7.5" font-family="FreeSans" font-size="10.00">fcntl.h</text>
</a>
</g>
</g>
<!-- Node2&#45;&gt;Node10 -->
<g id="edge8" class="edge">
<title>Node2&#45;&gt;Node10</title>
<path fill="none" stroke="midnightblue" d="M827.34,-56.44C850.75,-47.48 887.74,-33.31 914.19,-23.18"/>
<polygon fill="midnightblue" stroke="midnightblue" points="915.68,-26.36 923.76,-19.52 913.17,-19.82 915.68,-26.36"/>
</g>
<!-- Node11 -->
<g id="node10" class="node">
<title>Node11</title>
<g id="a_node10"><a xlink:title=" ">
<polygon fill="white" stroke="#bfbfbf" points="987.5,-0.5 987.5,-19.5 1038.5,-19.5 1038.5,-0.5 987.5,-0.5"/>
<text text-anchor="middle" x="1013" y="-7.5" font-family="FreeSans" font-size="10.00">math.h</text>
</a>
</g>
</g>
<!-- Node2&#45;&gt;Node11 -->
<g id="edge9" class="edge">
<title>Node2&#45;&gt;Node11</title>
<path fill="none" stroke="midnightblue" d="M837.96,-56.44C876.02,-46.56 938.41,-30.36 977.52,-20.21"/>
<polygon fill="midnightblue" stroke="midnightblue" points="978.61,-23.54 987.41,-17.64 976.85,-16.77 978.61,-23.54"/>
</g>
<!-- Node12 -->
<g id="node11" class="node">
<title>Node12</title>
<g id="a_node11"><a xlink:title=" ">
<polygon fill="white" stroke="#bfbfbf" points="1201,-0.5 1201,-19.5 1249,-19.5 1249,-0.5 1201,-0.5"/>
<text text-anchor="middle" x="1225" y="-7.5" font-family="FreeSans" font-size="10.00">time.h</text>
</a>
</g>
</g>
<!-- Node2&#45;&gt;Node12 -->
<g id="edge10" class="edge">
<title>Node2&#45;&gt;Node12</title>
<path fill="none" stroke="midnightblue" d="M852.57,-61.65C925.76,-56.01 1070.19,-42.91 1191,-20 1191.1,-19.98 1191.2,-19.96 1191.3,-19.94"/>
<polygon fill="midnightblue" stroke="midnightblue" points="1191.94,-23.39 1200.95,-17.82 1190.43,-16.55 1191.94,-23.39"/>
</g>
<!-- Node13 -->
<g id="node12" class="node">
<title>Node13</title>
<g id="a_node12"><a xlink:title=" ">
<polygon fill="white" stroke="#bfbfbf" points="1056.5,-0.5 1056.5,-19.5 1109.5,-19.5 1109.5,-0.5 1056.5,-0.5"/>
<text text-anchor="middle" x="1083" y="-7.5" font-family="FreeSans" font-size="10.00">limits.h</text>
</a>
</g>
</g>
<!-- Node2&#45;&gt;Node13 -->
<g id="edge11" class="edge">
<title>Node2&#45;&gt;Node13</title>
<path fill="none" stroke="midnightblue" d="M852.93,-56.98C899.77,-48.94 973.32,-35.79 1046.46,-20.01"/>
<polygon fill="midnightblue" stroke="midnightblue" points="1047.28,-23.41 1056.31,-17.87 1045.79,-16.57 1047.28,-23.41"/>
</g>
<!-- Node14 -->
<g id="node13" class="node">
<title>Node14</title>
<g id="a_node13"><a xlink:title=" ">
<polygon fill="white" stroke="#bfbfbf" points="1127.5,-0.5 1127.5,-19.5 1182.5,-19.5 1182.5,-0.5 1127.5,-0.5"/>
<text text-anchor="middle" x="1155" y="-7.5" font-family="FreeSans" font-size="10.00">signal.h</text>
</a>
</g>
</g>
<!-- Node2&#45;&gt;Node14 -->
<g id="edge12" class="edge">
<title>Node2&#45;&gt;Node14</title>
<path fill="none" stroke="midnightblue" d="M852.7,-59.59C912.29,-52.5 1017.55,-38.94 1117.24,-19.98"/>
<polygon fill="midnightblue" stroke="midnightblue" points="1118.02,-23.4 1127.18,-18.07 1116.7,-16.52 1118.02,-23.4"/>
</g>
<!-- Node15 -->
<g id="node14" class="node">
<title>Node15</title>
<g id="a_node14"><a xlink:title=" ">
<polygon fill="white" stroke="#bfbfbf" points="1715,-0.5 1715,-19.5 1771,-19.5 1771,-0.5 1715,-0.5"/>
<text text-anchor="middle" x="1743" y="-7.5" font-family="FreeSans" font-size="10.00">assert.h</text>
</a>
</g>
</g>
<!-- Node2&#45;&gt;Node15 -->
<g id="edge13" class="edge">
<title>Node2&#45;&gt;Node15</title>
<path fill="none" stroke="midnightblue" d="M852.81,-62.25C1017.05,-52.79 1556.29,-21.75 1704.83,-13.2"/>
<polygon fill="midnightblue" stroke="midnightblue" points="1705.05,-16.69 1714.83,-12.62 1704.65,-9.7 1705.05,-16.69"/>
</g>
<!-- Node16 -->
<g id="node15" class="node">
<title>Node16</title>
<g id="a_node15"><a xlink:href="method-attribute_8h.html" target="_top" xlink:title=" ">
<polygon fill="white" stroke="black" points="0,-0.5 0,-19.5 148,-19.5 148,-0.5 0,-0.5"/>
<text text-anchor="middle" x="74" y="-7.5" font-family="FreeSans" font-size="10.00">magick/method&#45;attribute.h</text>
</a>
</g>
</g>
<!-- Node2&#45;&gt;Node16 -->
<g id="edge14" class="edge">
<title>Node2&#45;&gt;Node16</title>
<path fill="none" stroke="midnightblue" d="M757.39,-62.33C651.69,-56.25 389.21,-40.42 158.47,-20.1"/>
<polygon fill="midnightblue" stroke="midnightblue" points="158.47,-16.59 148.2,-19.19 157.85,-23.56 158.47,-16.59"/>
</g>
<!-- Node17 -->
<g id="node16" class="node">
<title>Node17</title>
<g id="a_node16"><a xlink:title=" ">
<polygon fill="white" stroke="#bfbfbf" points="166,-0.5 166,-19.5 238,-19.5 238,-0.5 166,-0.5"/>
<text text-anchor="middle" x="202" y="-7.5" font-family="FreeSans" font-size="10.00">sys/types.h</text>
</a>
</g>
</g>
<!-- Node2&#45;&gt;Node17 -->
<g id="edge15" class="edge">
<title>Node2&#45;&gt;Node17</title>
<path fill="none" stroke="midnightblue" d="M757.39,-63.04C662.44,-58.72 442.62,-46.7 248.39,-20.04"/>
<polygon fill="midnightblue" stroke="midnightblue" points="248.67,-16.55 238.29,-18.64 247.71,-23.48 248.67,-16.55"/>
</g>
<!-- Node18 -->
<g id="node17" class="node">
<title>Node18</title>
<g id="a_node17"><a xlink:title=" ">
<polygon fill="white" stroke="#bfbfbf" points="256,-0.5 256,-19.5 320,-19.5 320,-0.5 256,-0.5"/>
<text text-anchor="middle" x="288" y="-7.5" font-family="FreeSans" font-size="10.00">sys/stat.h</text>
</a>
</g>
</g>
<!-- Node2&#45;&gt;Node18 -->
<g id="edge16" class="edge">
<title>Node2&#45;&gt;Node18</title>
<path fill="none" stroke="midnightblue" d="M757.47,-62.43C673.31,-57.46 492.44,-44.9 330.32,-20.03"/>
<polygon fill="midnightblue" stroke="midnightblue" points="330.58,-16.52 320.16,-18.45 329.5,-23.44 330.58,-16.52"/>
</g>
<!-- Node19 -->
<g id="node18" class="node">
<title>Node19</title>
<g id="a_node18"><a xlink:title=" ">
<polygon fill="white" stroke="#bfbfbf" points="338,-0.5 338,-19.5 392,-19.5 392,-0.5 338,-0.5"/>
<text text-anchor="middle" x="365" y="-7.5" font-family="FreeSans" font-size="10.00">dirent.h</text>
</a>
</g>
</g>
<!-- Node2&#45;&gt;Node19 -->
<g id="edge17" class="edge">
<title>Node2&#45;&gt;Node19</title>
<path fill="none" stroke="midnightblue" d="M757.43,-61.78C683.45,-56.31 536.22,-43.63 402.09,-19.97"/>
<polygon fill="midnightblue" stroke="midnightblue" points="402.5,-16.49 392.04,-18.17 401.27,-23.38 402.5,-16.49"/>
</g>
<!-- Node20 -->
<g id="node19" class="node">
<title>Node20</title>
<g id="a_node19"><a xlink:title=" ">
<polygon fill="white" stroke="#bfbfbf" points="410,-0.5 410,-19.5 476,-19.5 476,-0.5 410,-0.5"/>
<text text-anchor="middle" x="443" y="-7.5" font-family="FreeSans" font-size="10.00">sys/wait.h</text>
</a>
</g>
</g>
<!-- Node2&#45;&gt;Node20 -->
<g id="edge18" class="edge">
<title>Node2&#45;&gt;Node20</title>
<path fill="none" stroke="midnightblue" d="M757.39,-59.38C696.69,-51.98 588.3,-37.97 486.28,-20.13"/>
<polygon fill="midnightblue" stroke="midnightblue" points="486.88,-16.68 476.43,-18.39 485.67,-23.57 486.88,-16.68"/>
</g>
<!-- Node21 -->
<g id="node20" class="node">
<title>Node21</title>
<g id="a_node20"><a xlink:title=" ">
<polygon fill="white" stroke="#bfbfbf" points="494,-0.5 494,-19.5 540,-19.5 540,-0.5 494,-0.5"/>
<text text-anchor="middle" x="517" y="-7.5" font-family="FreeSans" font-size="10.00">pwd.h</text>
</a>
</g>
</g>
<!-- Node2&#45;&gt;Node21 -->
<g id="edge19" class="edge">
<title>Node2&#45;&gt;Node21</title>
<path fill="none" stroke="midnightblue" d="M757.06,-58.04C707.53,-50.53 627.81,-37.52 549.98,-20.03"/>
<polygon fill="midnightblue" stroke="midnightblue" points="550.53,-16.57 540,-17.77 548.98,-23.4 550.53,-16.57"/>
</g>
<!-- Node53&#45;&gt;Node31 -->
<g id="edge27" class="edge">
<title>Node53&#45;&gt;Node31</title>
<path fill="none" stroke="midnightblue" d="M1433.17,-168.08C1442.38,-155.07 1460.63,-130.41 1479,-112 1489.98,-100.99 1503.55,-90.03 1514.58,-81.69"/>
<polygon fill="midnightblue" stroke="midnightblue" points="1516.84,-84.37 1522.78,-75.6 1512.67,-78.75 1516.84,-84.37"/>
</g>
<!-- Node53&#45;&gt;Node54 -->
<g id="edge26" class="edge">
<title>Node53&#45;&gt;Node54</title>
<path fill="none" stroke="midnightblue" d="M1436.95,-168.5C1455.68,-152.65 1495.73,-119.54 1512,-112 1552.42,-93.27 1600.96,-82.18 1640.76,-75.7"/>
<polygon fill="midnightblue" stroke="midnightblue" points="1641.35,-79.15 1650.69,-74.15 1640.26,-72.23 1641.35,-79.15"/>
</g>
<!-- Node53&#45;&gt;Node55 -->
<g id="edge28" class="edge">
<title>Node53&#45;&gt;Node55</title>
<path fill="none" stroke="midnightblue" d="M1454.25,-168.44C1483.44,-159.28 1529.92,-144.69 1562.31,-134.52"/>
<polygon fill="midnightblue" stroke="midnightblue" points="1563.38,-137.85 1571.87,-131.52 1561.28,-131.17 1563.38,-137.85"/>
</g>
<!-- Node53&#45;&gt;Node62 -->
<g id="edge30" class="edge">
<title>Node53&#45;&gt;Node62</title>
<path fill="none" stroke="midnightblue" d="M1408.94,-168.44C1390.43,-159.68 1361.42,-145.94 1340.14,-135.86"/>
<polygon fill="midnightblue" stroke="midnightblue" points="1341.51,-132.63 1330.98,-131.52 1338.52,-138.96 1341.51,-132.63"/>
</g>
<!-- Node55&#45;&gt;Node54 -->
<g id="edge29" class="edge">
<title>Node55&#45;&gt;Node54</title>
<path fill="none" stroke="midnightblue" d="M1617.86,-112.44C1637.27,-103.64 1667.73,-89.81 1689.96,-79.72"/>
<polygon fill="midnightblue" stroke="midnightblue" points="1691.57,-82.84 1699.23,-75.52 1688.68,-76.46 1691.57,-82.84"/>
</g>
<!-- Node62&#45;&gt;Node63 -->
<g id="edge31" class="edge">
<title>Node62&#45;&gt;Node63</title>
<path fill="none" stroke="midnightblue" d="M1313,-112.08C1313,-105.01 1313,-94.86 1313,-85.99"/>
<polygon fill="midnightblue" stroke="midnightblue" points="1316.5,-85.75 1313,-75.75 1309.5,-85.75 1316.5,-85.75"/>
</g>
<!-- Node62&#45;&gt;Node46 -->
<g id="edge33" class="edge">
<title>Node62&#45;&gt;Node46</title>
<path fill="none" stroke="midnightblue" d="M1295.81,-112.32C1278.65,-103.66 1252.05,-90.24 1232.25,-80.25"/>
<polygon fill="midnightblue" stroke="midnightblue" points="1233.65,-77.04 1223.15,-75.65 1230.5,-83.28 1233.65,-77.04"/>
</g>
<!-- Node63&#45;&gt;Node5 -->
<g id="edge32" class="edge">
<title>Node63&#45;&gt;Node5</title>
<path fill="none" stroke="midnightblue" d="M1310.03,-56.08C1307.62,-48.85 1304.14,-38.41 1301.13,-29.4"/>
<polygon fill="midnightblue" stroke="midnightblue" points="1304.4,-28.13 1297.92,-19.75 1297.76,-30.34 1304.4,-28.13"/>
</g>
<!-- Node46&#45;&gt;Node5 -->
<g id="edge34" class="edge">
<title>Node46&#45;&gt;Node5</title>
<path fill="none" stroke="midnightblue" d="M1220.3,-56.32C1234.18,-47.9 1255.49,-34.97 1271.8,-25.07"/>
<polygon fill="midnightblue" stroke="midnightblue" points="1274,-27.83 1280.74,-19.65 1270.37,-21.85 1274,-27.83"/>
</g>
<!-- Node46&#45;&gt;Node12 -->
<g id="edge35" class="edge">
<title>Node46&#45;&gt;Node12</title>
<path fill="none" stroke="midnightblue" d="M1209.14,-56.08C1211.68,-48.85 1215.36,-38.41 1218.53,-29.4"/>
<polygon fill="midnightblue" stroke="midnightblue" points="1221.9,-30.35 1221.92,-19.75 1215.3,-28.02 1221.9,-30.35"/>
</g>
<!-- Node66&#45;&gt;Node31 -->
<g id="edge40" class="edge">
<title>Node66&#45;&gt;Node31</title>
<path fill="none" stroke="midnightblue" d="M1642.91,-168.33C1666.33,-156.38 1701.26,-133.85 1685,-112 1663.09,-82.55 1622.56,-71.64 1589.15,-67.92"/>
<polygon fill="midnightblue" stroke="midnightblue" points="1589.32,-64.42 1579.03,-66.98 1588.67,-71.39 1589.32,-64.42"/>
</g>
<!-- Node66&#45;&gt;Node54 -->
<g id="edge41" class="edge">
<title>Node66&#45;&gt;Node54</title>
<path fill="none" stroke="midnightblue" d="M1649.43,-168.43C1666.76,-161.32 1688.85,-149.5 1702,-132 1711.93,-118.79 1715.76,-100.2 1717.21,-86.29"/>
<polygon fill="midnightblue" stroke="midnightblue" points="1720.73,-86.14 1717.95,-75.92 1713.75,-85.64 1720.73,-86.14"/>
</g>
<!-- Node66&#45;&gt;Node67 -->
<g id="edge42" class="edge">
<title>Node66&#45;&gt;Node67</title>
<path fill="none" stroke="midnightblue" d="M1657.28,-168.44C1693.45,-159.14 1751.38,-144.25 1790.98,-134.06"/>
<polygon fill="midnightblue" stroke="midnightblue" points="1792.07,-137.4 1800.88,-131.52 1790.32,-130.62 1792.07,-137.4"/>
</g>
<!-- Node67&#45;&gt;Node31 -->
<g id="edge43" class="edge">
<title>Node67&#45;&gt;Node31</title>
<path fill="none" stroke="midnightblue" d="M1786.62,-112.44C1732.99,-102.76 1645.76,-87 1589.38,-76.82"/>
<polygon fill="midnightblue" stroke="midnightblue" points="1589.69,-73.32 1579.23,-74.99 1588.45,-80.21 1589.69,-73.32"/>
</g>
<!-- Node67&#45;&gt;Node54 -->
<g id="edge44" class="edge">
<title>Node67&#45;&gt;Node54</title>
<path fill="none" stroke="midnightblue" d="M1815.62,-112.44C1796.78,-103.68 1767.27,-89.94 1745.62,-79.86"/>
<polygon fill="midnightblue" stroke="midnightblue" points="1746.84,-76.56 1736.29,-75.52 1743.88,-82.91 1746.84,-76.56"/>
</g>
<!-- Node67&#45;&gt;Node68 -->
<g id="edge45" class="edge">
<title>Node67&#45;&gt;Node68</title>
<path fill="none" stroke="midnightblue" d="M1838.13,-112.08C1841.51,-104.77 1846.42,-94.18 1850.62,-85.1"/>
<polygon fill="midnightblue" stroke="midnightblue" points="1853.92,-86.3 1854.95,-75.75 1847.57,-83.36 1853.92,-86.3"/>
</g>
<!-- Node68&#45;&gt;Node9 -->
<g id="edge46" class="edge">
<title>Node68&#45;&gt;Node9</title>
<path fill="none" stroke="midnightblue" d="M1803.12,-56.97C1724.83,-45.73 1584.73,-25.61 1518.96,-16.16"/>
<polygon fill="midnightblue" stroke="midnightblue" points="1519.09,-12.65 1508.69,-14.69 1518.09,-19.58 1519.09,-12.65"/>
</g>
<!-- Node68&#45;&gt;Node15 -->
<g id="edge47" class="edge">
<title>Node68&#45;&gt;Node15</title>
<path fill="none" stroke="midnightblue" d="M1840.62,-56.44C1821.78,-47.68 1792.27,-33.94 1770.62,-23.86"/>
<polygon fill="midnightblue" stroke="midnightblue" points="1771.84,-20.56 1761.29,-19.52 1768.88,-26.91 1771.84,-20.56"/>
</g>
<!-- Node79&#45;&gt;Node54 -->
<g id="edge65" class="edge">
<title>Node79&#45;&gt;Node54</title>
<path fill="none" stroke="midnightblue" d="M2115.05,-168.06C2101.6,-153.58 2072.8,-125.28 2042,-112 2030.75,-107.15 1887.5,-88.4 1795.28,-76.69"/>
<polygon fill="midnightblue" stroke="midnightblue" points="1795.5,-73.18 1785.14,-75.4 1794.62,-80.13 1795.5,-73.18"/>
</g>
<!-- Node79&#45;&gt;Node75 -->
<g id="edge66" class="edge">
<title>Node79&#45;&gt;Node75</title>
<path fill="none" stroke="midnightblue" d="M2190.13,-168.99C2193.13,-168.66 2196.09,-168.32 2199,-168 2330,-153.48 2483.33,-138.01 2568.8,-129.52"/>
<polygon fill="midnightblue" stroke="midnightblue" points="2569.27,-132.99 2578.88,-128.52 2568.58,-126.02 2569.27,-132.99"/>
</g>
</g>
</svg>
