<?xml version="1.0" encoding="UTF-8" standalone="no"?>
<!DOCTYPE svg PUBLIC "-//W3C//DTD SVG 1.1//EN"
 "http://www.w3.org/Graphics/SVG/1.1/DTD/svg11.dtd">
<!-- Generated by graphviz version 2.43.0 (0)
 -->
<!-- Title: compress.c Pages: 1 -->
<svg width="3258pt" height="364pt"
 viewBox="0.00 0.00 3258.00 364.00" xmlns="http://www.w3.org/2000/svg" xmlns:xlink="http://www.w3.org/1999/xlink">
<g id="graph0" class="graph" transform="scale(1 1) rotate(0) translate(4 360)">
<title>compress.c</title>
<polygon fill="white" stroke="transparent" points="-4,4 -4,-360 3254,-360 3254,4 -4,4"/>
<!-- Node1 -->
<g id="node1" class="node">
<title>Node1</title>
<g id="a_node1"><a xlink:title=" ">
<polygon fill="#bfbfbf" stroke="black" points="2209,-336.5 2209,-355.5 2281,-355.5 2281,-336.5 2209,-336.5"/>
<text text-anchor="middle" x="2245" y="-343.5" font-family="FreeSans" font-size="10.00">compress.c</text>
</a>
</g>
</g>
<!-- Node2 -->
<g id="node2" class="node">
<title>Node2</title>
<g id="a_node2"><a xlink:href="studio_8h.html" target="_top" xlink:title=" ">
<polygon fill="white" stroke="black" points="856.5,-168.5 856.5,-187.5 951.5,-187.5 951.5,-168.5 856.5,-168.5"/>
<text text-anchor="middle" x="904" y="-175.5" font-family="FreeSans" font-size="10.00">magick/studio.h</text>
</a>
</g>
</g>
<!-- Node1&#45;&gt;Node2 -->
<g id="edge1" class="edge">
<title>Node1&#45;&gt;Node2</title>
<path fill="none" stroke="midnightblue" d="M2208.68,-344.62C2100.24,-343.1 1769.48,-335.65 1498,-300 1289.64,-272.64 1044.92,-214.34 947.34,-190.02"/>
<polygon fill="midnightblue" stroke="midnightblue" points="948.09,-186.6 937.54,-187.57 946.39,-193.39 948.09,-186.6"/>
</g>
<!-- Node24 -->
<g id="node23" class="node">
<title>Node24</title>
<g id="a_node23"><a xlink:href="attribute_8h.html" target="_top" xlink:title=" ">
<polygon fill="white" stroke="black" points="2109.5,-224.5 2109.5,-243.5 2216.5,-243.5 2216.5,-224.5 2109.5,-224.5"/>
<text text-anchor="middle" x="2163" y="-231.5" font-family="FreeSans" font-size="10.00">magick/attribute.h</text>
</a>
</g>
</g>
<!-- Node1&#45;&gt;Node24 -->
<g id="edge23" class="edge">
<title>Node1&#45;&gt;Node24</title>
<path fill="none" stroke="midnightblue" d="M2238.57,-336.37C2224.97,-318.14 2193.14,-275.43 2175.43,-251.68"/>
<polygon fill="midnightblue" stroke="midnightblue" points="2178.19,-249.52 2169.4,-243.59 2172.58,-253.7 2178.19,-249.52"/>
</g>
<!-- Node29 -->
<g id="node27" class="node">
<title>Node29</title>
<g id="a_node27"><a xlink:href="constitute_8h.html" target="_top" xlink:title=" ">
<polygon fill="white" stroke="black" points="2532.5,-0.5 2532.5,-19.5 2645.5,-19.5 2645.5,-0.5 2532.5,-0.5"/>
<text text-anchor="middle" x="2589" y="-7.5" font-family="FreeSans" font-size="10.00">magick/constitute.h</text>
</a>
</g>
</g>
<!-- Node1&#45;&gt;Node29 -->
<g id="edge73" class="edge">
<title>Node1&#45;&gt;Node29</title>
<path fill="none" stroke="midnightblue" d="M2281.32,-344.67C2395.41,-342.65 2739,-328.8 2739,-235 2739,-235 2739,-235 2739,-121 2739,-67.71 2676.67,-37.41 2632.37,-22.61"/>
<polygon fill="midnightblue" stroke="midnightblue" points="2633.25,-19.22 2622.66,-19.52 2631.13,-25.89 2633.25,-19.22"/>
</g>
<!-- Node30 -->
<g id="node28" class="node">
<title>Node30</title>
<g id="a_node28"><a xlink:href="exception_8h.html" target="_top" xlink:title=" ">
<polygon fill="white" stroke="black" points="1782.5,-56.5 1782.5,-75.5 1895.5,-75.5 1895.5,-56.5 1782.5,-56.5"/>
<text text-anchor="middle" x="1839" y="-63.5" font-family="FreeSans" font-size="10.00">magick/exception.h</text>
</a>
</g>
</g>
<!-- Node1&#45;&gt;Node30 -->
<g id="edge74" class="edge">
<title>Node1&#45;&gt;Node30</title>
<path fill="none" stroke="midnightblue" d="M2208.82,-343.73C2148.21,-340.79 2022.9,-331.13 1922,-300 1868.44,-283.48 1851.46,-280.59 1809,-244 1780.24,-219.22 1758.79,-204.27 1770,-168 1772.9,-158.61 1807.71,-109.96 1826.74,-83.76"/>
<polygon fill="midnightblue" stroke="midnightblue" points="1829.68,-85.67 1832.74,-75.53 1824.02,-81.55 1829.68,-85.67"/>
</g>
<!-- Node32 -->
<g id="node30" class="node">
<title>Node32</title>
<g id="a_node30"><a xlink:href="blob_8h.html" target="_top" xlink:title=" ">
<polygon fill="white" stroke="black" points="1975,-112.5 1975,-131.5 2061,-131.5 2061,-112.5 1975,-112.5"/>
<text text-anchor="middle" x="2018" y="-119.5" font-family="FreeSans" font-size="10.00">magick/blob.h</text>
</a>
</g>
</g>
<!-- Node1&#45;&gt;Node32 -->
<g id="edge40" class="edge">
<title>Node1&#45;&gt;Node32</title>
<path fill="none" stroke="midnightblue" d="M2208.75,-342.98C2150.8,-337.56 2038.86,-317.59 1990,-244 1968.63,-211.81 1990.9,-165.39 2006.18,-140.44"/>
<polygon fill="midnightblue" stroke="midnightblue" points="2009.32,-142.03 2011.78,-131.72 2003.43,-138.25 2009.32,-142.03"/>
</g>
<!-- Node36 -->
<g id="node32" class="node">
<title>Node36</title>
<g id="a_node32"><a xlink:href="compress_8h.html" target="_top" xlink:title=" ">
<polygon fill="white" stroke="black" points="2079,-112.5 2079,-131.5 2191,-131.5 2191,-112.5 2079,-112.5"/>
<text text-anchor="middle" x="2135" y="-119.5" font-family="FreeSans" font-size="10.00">magick/compress.h</text>
</a>
</g>
</g>
<!-- Node1&#45;&gt;Node36 -->
<g id="edge72" class="edge">
<title>Node1&#45;&gt;Node36</title>
<path fill="none" stroke="midnightblue" d="M2245.46,-336.21C2246.16,-315.43 2245.74,-262.15 2226,-224 2215.46,-203.62 2204.57,-204.85 2189,-188 2174.29,-172.09 2158.59,-152.91 2147.93,-139.53"/>
<polygon fill="midnightblue" stroke="midnightblue" points="2150.66,-137.33 2141.71,-131.66 2145.17,-141.67 2150.66,-137.33"/>
</g>
<!-- Node43 -->
<g id="node33" class="node">
<title>Node43</title>
<g id="a_node33"><a xlink:href="monitor_8h.html" target="_top" xlink:title=" ">
<polygon fill="white" stroke="black" points="2505,-112.5 2505,-131.5 2607,-131.5 2607,-112.5 2505,-112.5"/>
<text text-anchor="middle" x="2556" y="-119.5" font-family="FreeSans" font-size="10.00">magick/monitor.h</text>
</a>
</g>
</g>
<!-- Node1&#45;&gt;Node43 -->
<g id="edge81" class="edge">
<title>Node1&#45;&gt;Node43</title>
<path fill="none" stroke="midnightblue" d="M2281.02,-344.48C2335.91,-342.54 2442.86,-334.25 2526,-300 2604.92,-267.49 2643.04,-263.94 2682,-188 2686.06,-180.09 2687.12,-175.27 2682,-168 2672.61,-154.68 2635.66,-142.44 2604.19,-134.1"/>
<polygon fill="midnightblue" stroke="midnightblue" points="2604.76,-130.64 2594.2,-131.54 2603.01,-137.41 2604.76,-130.64"/>
</g>
<!-- Node51 -->
<g id="node34" class="node">
<title>Node51</title>
<g id="a_node34"><a xlink:href="blob-private_8h.html" target="_top" xlink:title=" ">
<polygon fill="white" stroke="black" points="1818,-224.5 1818,-243.5 1942,-243.5 1942,-224.5 1818,-224.5"/>
<text text-anchor="middle" x="1880" y="-231.5" font-family="FreeSans" font-size="10.00">magick/blob&#45;private.h</text>
</a>
</g>
</g>
<!-- Node1&#45;&gt;Node51 -->
<g id="edge41" class="edge">
<title>Node1&#45;&gt;Node51</title>
<path fill="none" stroke="midnightblue" d="M2208.96,-345.58C2152.44,-345.17 2040.66,-338.93 1956,-300 1931.24,-288.62 1908.28,-266.76 1894.21,-251.55"/>
<polygon fill="midnightblue" stroke="midnightblue" points="1896.64,-249.01 1887.36,-243.9 1891.42,-253.68 1896.64,-249.01"/>
</g>
<!-- Node56 -->
<g id="node36" class="node">
<title>Node56</title>
<g id="a_node36"><a xlink:href="color-private_8h.html" target="_top" xlink:title=" ">
<polygon fill="white" stroke="black" points="2273.5,-280.5 2273.5,-299.5 2400.5,-299.5 2400.5,-280.5 2273.5,-280.5"/>
<text text-anchor="middle" x="2337" y="-287.5" font-family="FreeSans" font-size="10.00">magick/color&#45;private.h</text>
</a>
</g>
</g>
<!-- Node1&#45;&gt;Node56 -->
<g id="edge46" class="edge">
<title>Node1&#45;&gt;Node56</title>
<path fill="none" stroke="midnightblue" d="M2259.78,-336.32C2274.27,-327.82 2296.57,-314.73 2313.49,-304.8"/>
<polygon fill="midnightblue" stroke="midnightblue" points="2315.4,-307.74 2322.26,-299.65 2311.86,-301.7 2315.4,-307.74"/>
</g>
<!-- Node57 -->
<g id="node37" class="node">
<title>Node57</title>
<g id="a_node37"><a xlink:href="image-private_8h.html" target="_top" xlink:title=" ">
<polygon fill="white" stroke="black" points="2387,-168.5 2387,-187.5 2521,-187.5 2521,-168.5 2387,-168.5"/>
<text text-anchor="middle" x="2454" y="-175.5" font-family="FreeSans" font-size="10.00">magick/image&#45;private.h</text>
</a>
</g>
</g>
<!-- Node1&#45;&gt;Node57 -->
<g id="edge76" class="edge">
<title>Node1&#45;&gt;Node57</title>
<path fill="none" stroke="midnightblue" d="M2281.13,-345.11C2345.04,-343.05 2476.35,-328.24 2530,-244 2544.12,-221.83 2514.95,-203.15 2488.76,-191.58"/>
<polygon fill="midnightblue" stroke="midnightblue" points="2489.91,-188.27 2479.34,-187.65 2487.22,-194.73 2489.91,-188.27"/>
</g>
<!-- Node59 -->
<g id="node39" class="node">
<title>Node59</title>
<g id="a_node39"><a xlink:href="pixel-accessor_8h.html" target="_top" xlink:title=" ">
<polygon fill="white" stroke="black" points="2539,-168.5 2539,-187.5 2673,-187.5 2673,-168.5 2539,-168.5"/>
<text text-anchor="middle" x="2606" y="-175.5" font-family="FreeSans" font-size="10.00">magick/pixel&#45;accessor.h</text>
</a>
</g>
</g>
<!-- Node1&#45;&gt;Node59 -->
<g id="edge84" class="edge">
<title>Node1&#45;&gt;Node59</title>
<path fill="none" stroke="midnightblue" d="M2281.37,-344.9C2332.4,-343.39 2426.97,-335.5 2498,-300 2544.43,-276.79 2580,-224.26 2596.27,-196.67"/>
<polygon fill="midnightblue" stroke="midnightblue" points="2599.45,-198.16 2601.37,-187.74 2593.37,-194.68 2599.45,-198.16"/>
</g>
<!-- Node65 -->
<g id="node41" class="node">
<title>Node65</title>
<g id="a_node41"><a xlink:href="exception-private_8h.html" target="_top" xlink:title=" ">
<polygon fill="white" stroke="black" points="1571.5,-168.5 1571.5,-187.5 1722.5,-187.5 1722.5,-168.5 1571.5,-168.5"/>
<text text-anchor="middle" x="1647" y="-175.5" font-family="FreeSans" font-size="10.00">magick/exception&#45;private.h</text>
</a>
</g>
</g>
<!-- Node1&#45;&gt;Node65 -->
<g id="edge75" class="edge">
<title>Node1&#45;&gt;Node65</title>
<path fill="none" stroke="midnightblue" d="M2208.82,-345.57C2106.62,-346.58 1817.95,-345.26 1737,-300 1695.06,-276.55 1666.99,-224.52 1654.47,-196.95"/>
<polygon fill="midnightblue" stroke="midnightblue" points="1657.64,-195.46 1650.43,-187.7 1651.22,-198.26 1657.64,-195.46"/>
</g>
<!-- Node45 -->
<g id="node44" class="node">
<title>Node45</title>
<g id="a_node44"><a xlink:href="string___8h.html" target="_top" xlink:title=" ">
<polygon fill="white" stroke="black" points="1549,-112.5 1549,-131.5 1647,-131.5 1647,-112.5 1549,-112.5"/>
<text text-anchor="middle" x="1598" y="-119.5" font-family="FreeSans" font-size="10.00">magick/string_.h</text>
</a>
</g>
</g>
<!-- Node1&#45;&gt;Node45 -->
<g id="edge86" class="edge">
<title>Node1&#45;&gt;Node45</title>
<path fill="none" stroke="midnightblue" d="M2208.76,-344.64C2103.42,-343.18 1798.89,-335.88 1707,-300 1631.47,-270.51 1598.62,-260.83 1563,-188 1554.7,-171.03 1567.56,-152.05 1579.97,-139"/>
<polygon fill="midnightblue" stroke="midnightblue" points="1582.72,-141.21 1587.44,-131.72 1577.84,-136.19 1582.72,-141.21"/>
</g>
<!-- Node68 -->
<g id="node45" class="node">
<title>Node68</title>
<g id="a_node45"><a xlink:href="cache_8h.html" target="_top" xlink:title=" ">
<polygon fill="white" stroke="black" points="1998.5,-224.5 1998.5,-243.5 2091.5,-243.5 2091.5,-224.5 1998.5,-224.5"/>
<text text-anchor="middle" x="2045" y="-231.5" font-family="FreeSans" font-size="10.00">magick/cache.h</text>
</a>
</g>
</g>
<!-- Node1&#45;&gt;Node68 -->
<g id="edge70" class="edge">
<title>Node1&#45;&gt;Node68</title>
<path fill="none" stroke="midnightblue" d="M2229.31,-336.37C2194.62,-317.29 2111.22,-271.42 2069.56,-248.51"/>
<polygon fill="midnightblue" stroke="midnightblue" points="2071.07,-245.34 2060.62,-243.59 2067.7,-251.48 2071.07,-245.34"/>
</g>
<!-- Node69 -->
<g id="node46" class="node">
<title>Node69</title>
<g id="a_node46"><a xlink:href="list_8h.html" target="_top" xlink:title=" ">
<polygon fill="white" stroke="black" points="2767,-280.5 2767,-299.5 2847,-299.5 2847,-280.5 2767,-280.5"/>
<text text-anchor="middle" x="2807" y="-287.5" font-family="FreeSans" font-size="10.00">magick/list.h</text>
</a>
</g>
</g>
<!-- Node1&#45;&gt;Node69 -->
<g id="edge77" class="edge">
<title>Node1&#45;&gt;Node69</title>
<path fill="none" stroke="midnightblue" d="M2281.13,-342.76C2364.51,-337.37 2576.68,-322.47 2753,-300 2754.27,-299.84 2755.56,-299.67 2756.86,-299.49"/>
<polygon fill="midnightblue" stroke="midnightblue" points="2757.55,-302.93 2766.95,-298.03 2756.55,-296 2757.55,-302.93"/>
</g>
<!-- Node70 -->
<g id="node47" class="node">
<title>Node70</title>
<g id="a_node47"><a xlink:href="memory___8h.html" target="_top" xlink:title=" ">
<polygon fill="white" stroke="black" points="1380.5,-168.5 1380.5,-187.5 1491.5,-187.5 1491.5,-168.5 1380.5,-168.5"/>
<text text-anchor="middle" x="1436" y="-175.5" font-family="FreeSans" font-size="10.00">magick/memory_.h</text>
</a>
</g>
</g>
<!-- Node1&#45;&gt;Node70 -->
<g id="edge78" class="edge">
<title>Node1&#45;&gt;Node70</title>
<path fill="none" stroke="midnightblue" d="M2208.7,-344.47C2071.49,-342.22 1589.26,-332.08 1529,-300 1486.07,-277.15 1456.89,-224.86 1443.81,-197.1"/>
<polygon fill="midnightblue" stroke="midnightblue" points="1446.91,-195.44 1439.6,-187.77 1440.53,-198.32 1446.91,-195.44"/>
</g>
<!-- Node71 -->
<g id="node48" class="node">
<title>Node71</title>
<g id="a_node48"><a xlink:href="monitor-private_8h.html" target="_top" xlink:title=" ">
<polygon fill="white" stroke="black" points="2865.5,-280.5 2865.5,-299.5 3006.5,-299.5 3006.5,-280.5 2865.5,-280.5"/>
<text text-anchor="middle" x="2936" y="-287.5" font-family="FreeSans" font-size="10.00">magick/monitor&#45;private.h</text>
</a>
</g>
</g>
<!-- Node1&#45;&gt;Node71 -->
<g id="edge82" class="edge">
<title>Node1&#45;&gt;Node71</title>
<path fill="none" stroke="midnightblue" d="M2281.2,-342.82C2374.39,-337.11 2630.45,-320.76 2855.34,-300.03"/>
<polygon fill="midnightblue" stroke="midnightblue" points="2855.71,-303.51 2865.34,-299.1 2855.06,-296.54 2855.71,-303.51"/>
</g>
<!-- Node72 -->
<g id="node49" class="node">
<title>Node72</title>
<g id="a_node49"><a xlink:href="option_8h.html" target="_top" xlink:title=" ">
<polygon fill="white" stroke="black" points="3024.5,-280.5 3024.5,-299.5 3119.5,-299.5 3119.5,-280.5 3024.5,-280.5"/>
<text text-anchor="middle" x="3072" y="-287.5" font-family="FreeSans" font-size="10.00">magick/option.h</text>
</a>
</g>
</g>
<!-- Node1&#45;&gt;Node72 -->
<g id="edge83" class="edge">
<title>Node1&#45;&gt;Node72</title>
<path fill="none" stroke="midnightblue" d="M2281.24,-344.19C2390.45,-341.46 2726.1,-331.05 3014.16,-300.1"/>
<polygon fill="midnightblue" stroke="midnightblue" points="3014.82,-303.55 3024.39,-298.99 3014.07,-296.59 3014.82,-303.55"/>
</g>
<!-- Node73 -->
<g id="node50" class="node">
<title>Node73</title>
<g id="a_node50"><a xlink:href="resource___8h.html" target="_top" xlink:title=" ">
<polygon fill="white" stroke="black" points="3138,-280.5 3138,-299.5 3250,-299.5 3250,-280.5 3138,-280.5"/>
<text text-anchor="middle" x="3194" y="-287.5" font-family="FreeSans" font-size="10.00">magick/resource_.h</text>
</a>
</g>
</g>
<!-- Node1&#45;&gt;Node73 -->
<g id="edge85" class="edge">
<title>Node1&#45;&gt;Node73</title>
<path fill="none" stroke="midnightblue" d="M2281.29,-344.28C2400.74,-341.67 2792.69,-331.23 3127.28,-300.08"/>
<polygon fill="midnightblue" stroke="midnightblue" points="3128.04,-303.52 3137.66,-299.1 3127.38,-296.56 3128.04,-303.52"/>
</g>
<!-- Node3 -->
<g id="node3" class="node">
<title>Node3</title>
<g id="a_node3"><a xlink:href="magick-config_8h.html" target="_top" xlink:title=" ">
<polygon fill="white" stroke="red" points="0,-56.5 0,-75.5 134,-75.5 134,-56.5 0,-56.5"/>
<text text-anchor="middle" x="67" y="-63.5" font-family="FreeSans" font-size="10.00">magick/magick&#45;config.h</text>
</a>
</g>
</g>
<!-- Node2&#45;&gt;Node3 -->
<g id="edge2" class="edge">
<title>Node2&#45;&gt;Node3</title>
<path fill="none" stroke="midnightblue" d="M856.3,-176.31C679.34,-173.52 69.24,-161.75 41,-132 28.13,-118.44 40.11,-97.71 51.73,-83.32"/>
<polygon fill="midnightblue" stroke="midnightblue" points="54.44,-85.54 58.33,-75.68 49.14,-80.96 54.44,-85.54"/>
</g>
<!-- Node5 -->
<g id="node4" class="node">
<title>Node5</title>
<g id="a_node4"><a xlink:title=" ">
<polygon fill="white" stroke="#bfbfbf" points="1647,-0.5 1647,-19.5 1703,-19.5 1703,-0.5 1647,-0.5"/>
<text text-anchor="middle" x="1675" y="-7.5" font-family="FreeSans" font-size="10.00">stdarg.h</text>
</a>
</g>
</g>
<!-- Node2&#45;&gt;Node5 -->
<g id="edge3" class="edge">
<title>Node2&#45;&gt;Node5</title>
<path fill="none" stroke="midnightblue" d="M951.73,-176.99C1019.97,-175.6 1148.52,-167.9 1251,-132 1267.19,-126.33 1268.93,-120.18 1284,-112 1334.31,-84.69 1345.41,-73.24 1400,-56 1481.95,-30.11 1582.6,-18.48 1636.52,-13.79"/>
<polygon fill="midnightblue" stroke="midnightblue" points="1636.99,-17.26 1646.67,-12.94 1636.41,-10.29 1636.99,-17.26"/>
</g>
<!-- Node6 -->
<g id="node5" class="node">
<title>Node6</title>
<g id="a_node5"><a xlink:title=" ">
<polygon fill="white" stroke="#bfbfbf" points="194,-112.5 194,-131.5 244,-131.5 244,-112.5 194,-112.5"/>
<text text-anchor="middle" x="219" y="-119.5" font-family="FreeSans" font-size="10.00">stdio.h</text>
</a>
</g>
</g>
<!-- Node2&#45;&gt;Node6 -->
<g id="edge4" class="edge">
<title>Node2&#45;&gt;Node6</title>
<path fill="none" stroke="midnightblue" d="M856.27,-176.79C749.67,-175.66 484.2,-169.16 254.03,-131.85"/>
<polygon fill="midnightblue" stroke="midnightblue" points="254.57,-128.39 244.14,-130.22 253.44,-135.3 254.57,-128.39"/>
</g>
<!-- Node7 -->
<g id="node6" class="node">
<title>Node7</title>
<g id="a_node6"><a xlink:title=" ">
<polygon fill="white" stroke="#bfbfbf" points="262.5,-112.5 262.5,-131.5 315.5,-131.5 315.5,-112.5 262.5,-112.5"/>
<text text-anchor="middle" x="289" y="-119.5" font-family="FreeSans" font-size="10.00">ctype.h</text>
</a>
</g>
</g>
<!-- Node2&#45;&gt;Node7 -->
<g id="edge5" class="edge">
<title>Node2&#45;&gt;Node7</title>
<path fill="none" stroke="midnightblue" d="M856.3,-176.11C758.33,-173.67 527.38,-164.8 325.54,-131.99"/>
<polygon fill="midnightblue" stroke="midnightblue" points="326.09,-128.54 315.65,-130.36 324.95,-135.44 326.09,-128.54"/>
</g>
<!-- Node8 -->
<g id="node7" class="node">
<title>Node8</title>
<g id="a_node7"><a xlink:title=" ">
<polygon fill="white" stroke="#bfbfbf" points="333.5,-112.5 333.5,-131.5 388.5,-131.5 388.5,-112.5 333.5,-112.5"/>
<text text-anchor="middle" x="361" y="-119.5" font-family="FreeSans" font-size="10.00">locale.h</text>
</a>
</g>
</g>
<!-- Node2&#45;&gt;Node8 -->
<g id="edge6" class="edge">
<title>Node2&#45;&gt;Node8</title>
<path fill="none" stroke="midnightblue" d="M856.15,-175.25C767.56,-171.47 571.95,-160.59 398.87,-132.09"/>
<polygon fill="midnightblue" stroke="midnightblue" points="399.26,-128.61 388.82,-130.41 398.1,-135.51 399.26,-128.61"/>
</g>
<!-- Node9 -->
<g id="node8" class="node">
<title>Node9</title>
<g id="a_node8"><a xlink:title=" ">
<polygon fill="white" stroke="#bfbfbf" points="1410.5,-112.5 1410.5,-131.5 1461.5,-131.5 1461.5,-112.5 1410.5,-112.5"/>
<text text-anchor="middle" x="1436" y="-119.5" font-family="FreeSans" font-size="10.00">errno.h</text>
</a>
</g>
</g>
<!-- Node2&#45;&gt;Node9 -->
<g id="edge7" class="edge">
<title>Node2&#45;&gt;Node9</title>
<path fill="none" stroke="midnightblue" d="M951.62,-175.25C1038.81,-171.48 1230.04,-160.65 1400.58,-131.77"/>
<polygon fill="midnightblue" stroke="midnightblue" points="1401.23,-135.21 1410.49,-130.07 1400.04,-128.31 1401.23,-135.21"/>
</g>
<!-- Node10 -->
<g id="node9" class="node">
<title>Node10</title>
<g id="a_node9"><a xlink:title=" ">
<polygon fill="white" stroke="#bfbfbf" points="406.5,-112.5 406.5,-131.5 453.5,-131.5 453.5,-112.5 406.5,-112.5"/>
<text text-anchor="middle" x="430" y="-119.5" font-family="FreeSans" font-size="10.00">fcntl.h</text>
</a>
</g>
</g>
<!-- Node2&#45;&gt;Node10 -->
<g id="edge8" class="edge">
<title>Node2&#45;&gt;Node10</title>
<path fill="none" stroke="midnightblue" d="M856.19,-174.84C776.52,-170.66 611.52,-159.48 463.81,-132.06"/>
<polygon fill="midnightblue" stroke="midnightblue" points="464.13,-128.56 453.66,-130.15 462.83,-135.44 464.13,-128.56"/>
</g>
<!-- Node11 -->
<g id="node10" class="node">
<title>Node11</title>
<g id="a_node10"><a xlink:title=" ">
<polygon fill="white" stroke="#bfbfbf" points="1479.5,-112.5 1479.5,-131.5 1530.5,-131.5 1530.5,-112.5 1479.5,-112.5"/>
<text text-anchor="middle" x="1505" y="-119.5" font-family="FreeSans" font-size="10.00">math.h</text>
</a>
</g>
</g>
<!-- Node2&#45;&gt;Node11 -->
<g id="edge9" class="edge">
<title>Node2&#45;&gt;Node11</title>
<path fill="none" stroke="midnightblue" d="M951.67,-175.98C1047.86,-173.32 1272.07,-164.1 1469.52,-131.76"/>
<polygon fill="midnightblue" stroke="midnightblue" points="1470.2,-135.19 1479.49,-130.1 1469.06,-128.29 1470.2,-135.19"/>
</g>
<!-- Node12 -->
<g id="node11" class="node">
<title>Node12</title>
<g id="a_node11"><a xlink:title=" ">
<polygon fill="white" stroke="#bfbfbf" points="1409,-56.5 1409,-75.5 1457,-75.5 1457,-56.5 1409,-56.5"/>
<text text-anchor="middle" x="1433" y="-63.5" font-family="FreeSans" font-size="10.00">time.h</text>
</a>
</g>
</g>
<!-- Node2&#45;&gt;Node12 -->
<g id="edge10" class="edge">
<title>Node2&#45;&gt;Node12</title>
<path fill="none" stroke="midnightblue" d="M951.74,-176.17C1024.69,-173.83 1167.69,-165.02 1284,-132 1304.28,-126.24 1307.74,-120.56 1327,-112 1352.39,-100.71 1381.46,-88.41 1402.72,-79.53"/>
<polygon fill="midnightblue" stroke="midnightblue" points="1404.31,-82.66 1412.19,-75.59 1401.62,-76.2 1404.31,-82.66"/>
</g>
<!-- Node13 -->
<g id="node12" class="node">
<title>Node13</title>
<g id="a_node12"><a xlink:title=" ">
<polygon fill="white" stroke="#bfbfbf" points="471.5,-112.5 471.5,-131.5 524.5,-131.5 524.5,-112.5 471.5,-112.5"/>
<text text-anchor="middle" x="498" y="-119.5" font-family="FreeSans" font-size="10.00">limits.h</text>
</a>
</g>
</g>
<!-- Node2&#45;&gt;Node13 -->
<g id="edge11" class="edge">
<title>Node2&#45;&gt;Node13</title>
<path fill="none" stroke="midnightblue" d="M856.26,-173.22C787.26,-167.32 655.54,-154.41 534.83,-132.14"/>
<polygon fill="midnightblue" stroke="midnightblue" points="535.15,-128.64 524.67,-130.24 533.86,-135.52 535.15,-128.64"/>
</g>
<!-- Node14 -->
<g id="node13" class="node">
<title>Node14</title>
<g id="a_node13"><a xlink:title=" ">
<polygon fill="white" stroke="#bfbfbf" points="542.5,-112.5 542.5,-131.5 597.5,-131.5 597.5,-112.5 542.5,-112.5"/>
<text text-anchor="middle" x="570" y="-119.5" font-family="FreeSans" font-size="10.00">signal.h</text>
</a>
</g>
</g>
<!-- Node2&#45;&gt;Node14 -->
<g id="edge12" class="edge">
<title>Node2&#45;&gt;Node14</title>
<path fill="none" stroke="midnightblue" d="M856.45,-171.11C799.63,-163.78 701.49,-150.2 607.76,-132"/>
<polygon fill="midnightblue" stroke="midnightblue" points="608.31,-128.54 597.82,-130.05 606.96,-135.41 608.31,-128.54"/>
</g>
<!-- Node15 -->
<g id="node14" class="node">
<title>Node15</title>
<g id="a_node14"><a xlink:title=" ">
<polygon fill="white" stroke="#bfbfbf" points="1336,-112.5 1336,-131.5 1392,-131.5 1392,-112.5 1336,-112.5"/>
<text text-anchor="middle" x="1364" y="-119.5" font-family="FreeSans" font-size="10.00">assert.h</text>
</a>
</g>
</g>
<!-- Node2&#45;&gt;Node15 -->
<g id="edge13" class="edge">
<title>Node2&#45;&gt;Node15</title>
<path fill="none" stroke="midnightblue" d="M951.54,-173.5C1029.33,-167.41 1188.5,-153.43 1322,-132 1323.24,-131.8 1324.5,-131.59 1325.78,-131.37"/>
<polygon fill="midnightblue" stroke="midnightblue" points="1326.44,-134.8 1335.61,-129.5 1325.13,-127.93 1326.44,-134.8"/>
</g>
<!-- Node16 -->
<g id="node15" class="node">
<title>Node16</title>
<g id="a_node15"><a xlink:href="method-attribute_8h.html" target="_top" xlink:title=" ">
<polygon fill="white" stroke="black" points="616,-112.5 616,-131.5 764,-131.5 764,-112.5 616,-112.5"/>
<text text-anchor="middle" x="690" y="-119.5" font-family="FreeSans" font-size="10.00">magick/method&#45;attribute.h</text>
</a>
</g>
</g>
<!-- Node2&#45;&gt;Node16 -->
<g id="edge14" class="edge">
<title>Node2&#45;&gt;Node16</title>
<path fill="none" stroke="midnightblue" d="M870.09,-168.44C833.15,-159.12 773.95,-144.18 733.58,-134"/>
<polygon fill="midnightblue" stroke="midnightblue" points="734.3,-130.57 723.75,-131.52 732.59,-137.36 734.3,-130.57"/>
</g>
<!-- Node17 -->
<g id="node16" class="node">
<title>Node17</title>
<g id="a_node16"><a xlink:title=" ">
<polygon fill="white" stroke="#bfbfbf" points="782,-112.5 782,-131.5 854,-131.5 854,-112.5 782,-112.5"/>
<text text-anchor="middle" x="818" y="-119.5" font-family="FreeSans" font-size="10.00">sys/types.h</text>
</a>
</g>
</g>
<!-- Node2&#45;&gt;Node17 -->
<g id="edge15" class="edge">
<title>Node2&#45;&gt;Node17</title>
<path fill="none" stroke="midnightblue" d="M890.18,-168.32C876.77,-159.9 856.18,-146.97 840.41,-137.07"/>
<polygon fill="midnightblue" stroke="midnightblue" points="842.11,-134.01 831.78,-131.65 838.39,-139.94 842.11,-134.01"/>
</g>
<!-- Node18 -->
<g id="node17" class="node">
<title>Node18</title>
<g id="a_node17"><a xlink:title=" ">
<polygon fill="white" stroke="#bfbfbf" points="872,-112.5 872,-131.5 936,-131.5 936,-112.5 872,-112.5"/>
<text text-anchor="middle" x="904" y="-119.5" font-family="FreeSans" font-size="10.00">sys/stat.h</text>
</a>
</g>
</g>
<!-- Node2&#45;&gt;Node18 -->
<g id="edge16" class="edge">
<title>Node2&#45;&gt;Node18</title>
<path fill="none" stroke="midnightblue" d="M904,-168.08C904,-161.01 904,-150.86 904,-141.99"/>
<polygon fill="midnightblue" stroke="midnightblue" points="907.5,-141.75 904,-131.75 900.5,-141.75 907.5,-141.75"/>
</g>
<!-- Node19 -->
<g id="node18" class="node">
<title>Node19</title>
<g id="a_node18"><a xlink:title=" ">
<polygon fill="white" stroke="#bfbfbf" points="954,-112.5 954,-131.5 1008,-131.5 1008,-112.5 954,-112.5"/>
<text text-anchor="middle" x="981" y="-119.5" font-family="FreeSans" font-size="10.00">dirent.h</text>
</a>
</g>
</g>
<!-- Node2&#45;&gt;Node19 -->
<g id="edge17" class="edge">
<title>Node2&#45;&gt;Node19</title>
<path fill="none" stroke="midnightblue" d="M916.37,-168.32C928.16,-160.06 946.13,-147.45 960.14,-137.63"/>
<polygon fill="midnightblue" stroke="midnightblue" points="962.48,-140.26 968.66,-131.65 958.46,-134.53 962.48,-140.26"/>
</g>
<!-- Node20 -->
<g id="node19" class="node">
<title>Node20</title>
<g id="a_node19"><a xlink:title=" ">
<polygon fill="white" stroke="#bfbfbf" points="1026,-112.5 1026,-131.5 1092,-131.5 1092,-112.5 1026,-112.5"/>
<text text-anchor="middle" x="1059" y="-119.5" font-family="FreeSans" font-size="10.00">sys/wait.h</text>
</a>
</g>
</g>
<!-- Node2&#45;&gt;Node20 -->
<g id="edge18" class="edge">
<title>Node2&#45;&gt;Node20</title>
<path fill="none" stroke="midnightblue" d="M928.56,-168.44C954.52,-159.4 995.67,-145.06 1024.8,-134.92"/>
<polygon fill="midnightblue" stroke="midnightblue" points="1026.26,-138.11 1034.55,-131.52 1023.96,-131.5 1026.26,-138.11"/>
</g>
<!-- Node21 -->
<g id="node20" class="node">
<title>Node21</title>
<g id="a_node20"><a xlink:title=" ">
<polygon fill="white" stroke="#bfbfbf" points="1110,-112.5 1110,-131.5 1156,-131.5 1156,-112.5 1110,-112.5"/>
<text text-anchor="middle" x="1133" y="-119.5" font-family="FreeSans" font-size="10.00">pwd.h</text>
</a>
</g>
</g>
<!-- Node2&#45;&gt;Node21 -->
<g id="edge19" class="edge">
<title>Node2&#45;&gt;Node21</title>
<path fill="none" stroke="midnightblue" d="M944.13,-168.44C981.94,-160.25 1040.37,-147.23 1100,-132.16"/>
<polygon fill="midnightblue" stroke="midnightblue" points="1101.14,-135.48 1109.96,-129.63 1099.41,-128.7 1101.14,-135.48"/>
</g>
<!-- Node22 -->
<g id="node21" class="node">
<title>Node22</title>
<g id="a_node21"><a xlink:href="magick-type_8h.html" target="_top" xlink:title=" ">
<polygon fill="white" stroke="black" points="50,-112.5 50,-131.5 176,-131.5 176,-112.5 50,-112.5"/>
<text text-anchor="middle" x="113" y="-119.5" font-family="FreeSans" font-size="10.00">magick/magick&#45;type.h</text>
</a>
</g>
</g>
<!-- Node2&#45;&gt;Node22 -->
<g id="edge20" class="edge">
<title>Node2&#45;&gt;Node22</title>
<path fill="none" stroke="midnightblue" d="M856.39,-175.04C742.49,-170.13 445.15,-156.02 186.16,-132.05"/>
<polygon fill="midnightblue" stroke="midnightblue" points="186.47,-128.57 176.19,-131.12 185.82,-135.54 186.47,-128.57"/>
</g>
<!-- Node23 -->
<g id="node22" class="node">
<title>Node23</title>
<g id="a_node22"><a xlink:title=" ">
<polygon fill="white" stroke="#bfbfbf" points="1174,-112.5 1174,-131.5 1242,-131.5 1242,-112.5 1174,-112.5"/>
<text text-anchor="middle" x="1208" y="-119.5" font-family="FreeSans" font-size="10.00">sys/time.h</text>
</a>
</g>
</g>
<!-- Node2&#45;&gt;Node23 -->
<g id="edge22" class="edge">
<title>Node2&#45;&gt;Node23</title>
<path fill="none" stroke="midnightblue" d="M951.72,-169.3C1001.97,-161.07 1083.66,-147.36 1163.52,-132.23"/>
<polygon fill="midnightblue" stroke="midnightblue" points="1164.59,-135.59 1173.75,-130.28 1163.28,-128.71 1164.59,-135.59"/>
</g>
<!-- Node22&#45;&gt;Node3 -->
<g id="edge21" class="edge">
<title>Node22&#45;&gt;Node3</title>
<path fill="none" stroke="midnightblue" d="M105.4,-112.08C98.77,-104.3 88.98,-92.8 80.94,-83.37"/>
<polygon fill="midnightblue" stroke="midnightblue" points="83.6,-81.09 74.45,-75.75 78.27,-85.63 83.6,-81.09"/>
</g>
<!-- Node25 -->
<g id="node24" class="node">
<title>Node25</title>
<g id="a_node24"><a xlink:href="image_8h.html" target="_top" xlink:title=" ">
<polygon fill="white" stroke="red" points="2197.5,-168.5 2197.5,-187.5 2292.5,-187.5 2292.5,-168.5 2197.5,-168.5"/>
<text text-anchor="middle" x="2245" y="-175.5" font-family="FreeSans" font-size="10.00">magick/image.h</text>
</a>
</g>
</g>
<!-- Node24&#45;&gt;Node25 -->
<g id="edge24" class="edge">
<title>Node24&#45;&gt;Node25</title>
<path fill="none" stroke="midnightblue" d="M2176.17,-224.32C2188.85,-215.98 2208.23,-203.21 2223.21,-193.35"/>
<polygon fill="midnightblue" stroke="midnightblue" points="2225.43,-196.08 2231.86,-187.65 2221.58,-190.23 2225.43,-196.08"/>
</g>
<!-- Node24&#45;&gt;Node30 -->
<g id="edge39" class="edge">
<title>Node24&#45;&gt;Node30</title>
<path fill="none" stroke="midnightblue" d="M2146.04,-224.31C2092.78,-197.02 1928.68,-112.95 1864.81,-80.22"/>
<polygon fill="midnightblue" stroke="midnightblue" points="1866.29,-77.05 1855.8,-75.61 1863.1,-83.28 1866.29,-77.05"/>
</g>
<!-- Node26 -->
<g id="node25" class="node">
<title>Node26</title>
<g id="a_node25"><a xlink:href="color_8h.html" target="_top" xlink:title=" ">
<polygon fill="white" stroke="black" points="2323,-112.5 2323,-131.5 2411,-131.5 2411,-112.5 2323,-112.5"/>
<text text-anchor="middle" x="2367" y="-119.5" font-family="FreeSans" font-size="10.00">magick/color.h</text>
</a>
</g>
</g>
<!-- Node25&#45;&gt;Node26 -->
<g id="edge25" class="edge">
<title>Node25&#45;&gt;Node26</title>
<path fill="none" stroke="midnightblue" d="M2264.33,-168.44C2284.32,-159.6 2315.74,-145.69 2338.56,-135.59"/>
<polygon fill="midnightblue" stroke="midnightblue" points="2340.03,-138.76 2347.76,-131.52 2337.2,-132.36 2340.03,-138.76"/>
</g>
<!-- Node27 -->
<g id="node26" class="node">
<title>Node27</title>
<g id="a_node26"><a xlink:href="pixel_8h.html" target="_top" xlink:title=" ">
<polygon fill="white" stroke="red" points="2395,-56.5 2395,-75.5 2483,-75.5 2483,-56.5 2395,-56.5"/>
<text text-anchor="middle" x="2439" y="-63.5" font-family="FreeSans" font-size="10.00">magick/pixel.h</text>
</a>
</g>
</g>
<!-- Node25&#45;&gt;Node27 -->
<g id="edge36" class="edge">
<title>Node25&#45;&gt;Node27</title>
<path fill="none" stroke="midnightblue" d="M2252.18,-168.23C2263.84,-154.49 2288.19,-127.84 2314,-112 2338.62,-96.89 2369.07,-85.79 2393.75,-78.4"/>
<polygon fill="midnightblue" stroke="midnightblue" points="2394.96,-81.69 2403.59,-75.55 2393.01,-74.97 2394.96,-81.69"/>
</g>
<!-- Node31 -->
<g id="node29" class="node">
<title>Node31</title>
<g id="a_node29"><a xlink:href="semaphore_8h.html" target="_top" xlink:title=" ">
<polygon fill="white" stroke="black" points="1779.5,-0.5 1779.5,-19.5 1898.5,-19.5 1898.5,-0.5 1779.5,-0.5"/>
<text text-anchor="middle" x="1839" y="-7.5" font-family="FreeSans" font-size="10.00">magick/semaphore.h</text>
</a>
</g>
</g>
<!-- Node25&#45;&gt;Node31 -->
<g id="edge37" class="edge">
<title>Node25&#45;&gt;Node31</title>
<path fill="none" stroke="midnightblue" d="M2244.36,-168.22C2242.91,-154.47 2238.19,-127.81 2223,-112 2179.98,-67.23 2007.39,-35.46 1908.86,-20.56"/>
<polygon fill="midnightblue" stroke="midnightblue" points="1909.1,-17.06 1898.69,-19.04 1908.07,-23.98 1909.1,-17.06"/>
</g>
<!-- Node25&#45;&gt;Node32 -->
<g id="edge31" class="edge">
<title>Node25&#45;&gt;Node32</title>
<path fill="none" stroke="midnightblue" d="M2203.94,-168.44C2162.71,-159.12 2099.76,-144.18 2058.67,-134"/>
<polygon fill="midnightblue" stroke="midnightblue" points="2059.27,-130.54 2048.72,-131.52 2057.58,-137.33 2059.27,-130.54"/>
</g>
<!-- Node33 -->
<g id="node31" class="node">
<title>Node33</title>
<g id="a_node31"><a xlink:href="stream_8h.html" target="_top" xlink:title=" ">
<polygon fill="white" stroke="black" points="1968.5,-56.5 1968.5,-75.5 2067.5,-75.5 2067.5,-56.5 1968.5,-56.5"/>
<text text-anchor="middle" x="2018" y="-63.5" font-family="FreeSans" font-size="10.00">magick/stream.h</text>
</a>
</g>
</g>
<!-- Node25&#45;&gt;Node33 -->
<g id="edge38" class="edge">
<title>Node25&#45;&gt;Node33</title>
<path fill="none" stroke="midnightblue" d="M2241.46,-168.33C2235.25,-154.24 2221.01,-126.5 2200,-112 2164.12,-87.25 2115.98,-76.08 2078.22,-71.06"/>
<polygon fill="midnightblue" stroke="midnightblue" points="2078.21,-67.53 2067.86,-69.8 2077.37,-74.48 2078.21,-67.53"/>
</g>
<!-- Node25&#45;&gt;Node36 -->
<g id="edge34" class="edge">
<title>Node25&#45;&gt;Node36</title>
<path fill="none" stroke="midnightblue" d="M2227.33,-168.32C2209.61,-159.62 2182.1,-146.12 2161.71,-136.11"/>
<polygon fill="midnightblue" stroke="midnightblue" points="2163.15,-132.92 2152.63,-131.65 2160.06,-139.2 2163.15,-132.92"/>
</g>
<!-- Node25&#45;&gt;Node43 -->
<g id="edge35" class="edge">
<title>Node25&#45;&gt;Node43</title>
<path fill="none" stroke="midnightblue" d="M2292.57,-168.74C2347.42,-159.22 2437.63,-143.55 2496.92,-133.26"/>
<polygon fill="midnightblue" stroke="midnightblue" points="2497.64,-136.69 2506.89,-131.53 2496.44,-129.79 2497.64,-136.69"/>
</g>
<!-- Node26&#45;&gt;Node27 -->
<g id="edge26" class="edge">
<title>Node26&#45;&gt;Node27</title>
<path fill="none" stroke="midnightblue" d="M2378.57,-112.32C2389.42,-104.18 2405.88,-91.84 2418.88,-82.09"/>
<polygon fill="midnightblue" stroke="midnightblue" points="2421.32,-84.63 2427.22,-75.83 2417.12,-79.03 2421.32,-84.63"/>
</g>
<!-- Node26&#45;&gt;Node30 -->
<g id="edge28" class="edge">
<title>Node26&#45;&gt;Node30</title>
<path fill="none" stroke="midnightblue" d="M2322.89,-116.49C2230.33,-107.02 2015.36,-85.04 1905.79,-73.83"/>
<polygon fill="midnightblue" stroke="midnightblue" points="1905.83,-70.32 1895.52,-72.78 1905.11,-77.28 1905.83,-70.32"/>
</g>
<!-- Node27&#45;&gt;Node29 -->
<g id="edge27" class="edge">
<title>Node27&#45;&gt;Node29</title>
<path fill="none" stroke="midnightblue" d="M2462.77,-56.44C2487.89,-47.4 2527.71,-33.06 2555.9,-22.92"/>
<polygon fill="midnightblue" stroke="midnightblue" points="2557.12,-26.2 2565.34,-19.52 2554.75,-19.61 2557.12,-26.2"/>
</g>
<!-- Node30&#45;&gt;Node5 -->
<g id="edge29" class="edge">
<title>Node30&#45;&gt;Node5</title>
<path fill="none" stroke="midnightblue" d="M1813.01,-56.44C1785.3,-47.32 1741.25,-32.81 1710.38,-22.65"/>
<polygon fill="midnightblue" stroke="midnightblue" points="1711.46,-19.32 1700.86,-19.52 1709.27,-25.97 1711.46,-19.32"/>
</g>
<!-- Node30&#45;&gt;Node31 -->
<g id="edge30" class="edge">
<title>Node30&#45;&gt;Node31</title>
<path fill="none" stroke="midnightblue" d="M1839,-56.08C1839,-49.01 1839,-38.86 1839,-29.99"/>
<polygon fill="midnightblue" stroke="midnightblue" points="1842.5,-29.75 1839,-19.75 1835.5,-29.75 1842.5,-29.75"/>
</g>
<!-- Node32&#45;&gt;Node25 -->
<g id="edge32" class="edge">
<title>Node32&#45;&gt;Node25</title>
<path fill="none" stroke="midnightblue" d="M2058.88,-131.52C2100.13,-140.84 2163.27,-155.82 2204.42,-166.02"/>
<polygon fill="midnightblue" stroke="midnightblue" points="2203.57,-169.42 2214.12,-168.44 2205.26,-162.63 2203.57,-169.42"/>
</g>
<!-- Node32&#45;&gt;Node33 -->
<g id="edge33" class="edge">
<title>Node32&#45;&gt;Node33</title>
<path fill="none" stroke="midnightblue" d="M2018,-112.08C2018,-105.01 2018,-94.86 2018,-85.99"/>
<polygon fill="midnightblue" stroke="midnightblue" points="2021.5,-85.75 2018,-75.75 2014.5,-85.75 2021.5,-85.75"/>
</g>
<!-- Node51&#45;&gt;Node25 -->
<g id="edge42" class="edge">
<title>Node51&#45;&gt;Node25</title>
<path fill="none" stroke="midnightblue" d="M1937.84,-224.44C2006.09,-214.35 2118.92,-197.65 2187.18,-187.55"/>
<polygon fill="midnightblue" stroke="midnightblue" points="2187.94,-190.98 2197.32,-186.05 2186.92,-184.06 2187.94,-190.98"/>
</g>
<!-- Node51&#45;&gt;Node33 -->
<g id="edge43" class="edge">
<title>Node51&#45;&gt;Node33</title>
<path fill="none" stroke="midnightblue" d="M1891.37,-224.3C1901.85,-215.87 1917.35,-202.29 1928,-188 1950.57,-157.72 1942.83,-141.82 1966,-112 1974.93,-100.51 1987.14,-89.76 1997.49,-81.65"/>
<polygon fill="midnightblue" stroke="midnightblue" points="1999.76,-84.32 2005.63,-75.5 1995.54,-78.74 1999.76,-84.32"/>
</g>
<!-- Node52 -->
<g id="node35" class="node">
<title>Node52</title>
<g id="a_node35"><a xlink:href="nt-base-private_8h.html" target="_top" xlink:title=" ">
<polygon fill="white" stroke="red" points="1779,-168.5 1779,-187.5 1919,-187.5 1919,-168.5 1779,-168.5"/>
<text text-anchor="middle" x="1849" y="-175.5" font-family="FreeSans" font-size="10.00">magick/nt&#45;base&#45;private.h</text>
</a>
</g>
</g>
<!-- Node51&#45;&gt;Node52 -->
<g id="edge44" class="edge">
<title>Node51&#45;&gt;Node52</title>
<path fill="none" stroke="midnightblue" d="M1874.88,-224.08C1870.59,-216.61 1864.34,-205.72 1859.06,-196.52"/>
<polygon fill="midnightblue" stroke="midnightblue" points="1862.04,-194.68 1854.02,-187.75 1855.97,-198.17 1862.04,-194.68"/>
</g>
<!-- Node52&#45;&gt;Node30 -->
<g id="edge45" class="edge">
<title>Node52&#45;&gt;Node30</title>
<path fill="none" stroke="midnightblue" d="M1848.22,-168.37C1846.6,-150.62 1842.88,-109.67 1840.69,-85.6"/>
<polygon fill="midnightblue" stroke="midnightblue" points="1844.17,-85.23 1839.78,-75.59 1837.2,-85.87 1844.17,-85.23"/>
</g>
<!-- Node56&#45;&gt;Node25 -->
<g id="edge47" class="edge">
<title>Node56&#45;&gt;Node25</title>
<path fill="none" stroke="midnightblue" d="M2329.78,-280.37C2314.46,-262.05 2278.5,-219.05 2258.68,-195.36"/>
<polygon fill="midnightblue" stroke="midnightblue" points="2261.29,-193.02 2252.19,-187.59 2255.92,-197.51 2261.29,-193.02"/>
</g>
<!-- Node56&#45;&gt;Node26 -->
<g id="edge49" class="edge">
<title>Node56&#45;&gt;Node26</title>
<path fill="none" stroke="midnightblue" d="M2337.01,-280.11C2337.15,-267.54 2337.86,-243.88 2341,-224 2345.65,-194.57 2355.06,-161.25 2361.19,-141.2"/>
<polygon fill="midnightblue" stroke="midnightblue" points="2364.57,-142.12 2364.21,-131.53 2357.89,-140.03 2364.57,-142.12"/>
</g>
<!-- Node56&#45;&gt;Node57 -->
<g id="edge48" class="edge">
<title>Node56&#45;&gt;Node57</title>
<path fill="none" stroke="midnightblue" d="M2400.95,-281.05C2445.73,-274.01 2499.99,-262.02 2514,-244 2528.67,-225.14 2503.35,-205.2 2481.23,-192.45"/>
<polygon fill="midnightblue" stroke="midnightblue" points="2482.84,-189.34 2472.38,-187.62 2479.48,-195.49 2482.84,-189.34"/>
</g>
<!-- Node58 -->
<g id="node38" class="node">
<title>Node58</title>
<g id="a_node38"><a xlink:href="colorspace-private_8h.html" target="_top" xlink:title=" ">
<polygon fill="white" stroke="black" points="2349.5,-224.5 2349.5,-243.5 2504.5,-243.5 2504.5,-224.5 2349.5,-224.5"/>
<text text-anchor="middle" x="2427" y="-231.5" font-family="FreeSans" font-size="10.00">magick/colorspace&#45;private.h</text>
</a>
</g>
</g>
<!-- Node56&#45;&gt;Node58 -->
<g id="edge50" class="edge">
<title>Node56&#45;&gt;Node58</title>
<path fill="none" stroke="midnightblue" d="M2351.46,-280.32C2365.5,-271.9 2387.05,-258.97 2403.54,-249.07"/>
<polygon fill="midnightblue" stroke="midnightblue" points="2405.8,-251.8 2412.58,-243.65 2402.2,-245.8 2405.8,-251.8"/>
</g>
<!-- Node56&#45;&gt;Node59 -->
<g id="edge69" class="edge">
<title>Node56&#45;&gt;Node59</title>
<path fill="none" stroke="midnightblue" d="M2400.9,-281.91C2439.81,-275.74 2489.63,-264.42 2530,-244 2554.31,-231.7 2577.38,-210.05 2591.59,-195.14"/>
<polygon fill="midnightblue" stroke="midnightblue" points="2594.3,-197.37 2598.52,-187.65 2589.16,-192.61 2594.3,-197.37"/>
</g>
<!-- Node56&#45;&gt;Node65 -->
<g id="edge58" class="edge">
<title>Node56&#45;&gt;Node65</title>
<path fill="none" stroke="midnightblue" d="M2273.46,-289.61C2173.31,-289.23 1973.24,-283.03 1809,-244 1758.98,-232.12 1704.12,-207.44 1672.79,-192.14"/>
<polygon fill="midnightblue" stroke="midnightblue" points="1674,-188.84 1663.49,-187.53 1670.89,-195.11 1674,-188.84"/>
</g>
<!-- Node58&#45;&gt;Node25 -->
<g id="edge51" class="edge">
<title>Node58&#45;&gt;Node25</title>
<path fill="none" stroke="midnightblue" d="M2398.16,-224.44C2367.14,-215.24 2317.67,-200.56 2283.38,-190.39"/>
<polygon fill="midnightblue" stroke="midnightblue" points="2284.29,-187.01 2273.7,-187.52 2282.29,-193.72 2284.29,-187.01"/>
</g>
<!-- Node58&#45;&gt;Node27 -->
<g id="edge53" class="edge">
<title>Node58&#45;&gt;Node27</title>
<path fill="none" stroke="midnightblue" d="M2412.28,-224.34C2394.36,-212.59 2367.67,-190.47 2378,-168 2388.27,-145.66 2406.67,-152.65 2420,-132 2429.07,-117.96 2433.92,-99.46 2436.45,-85.79"/>
<polygon fill="midnightblue" stroke="midnightblue" points="2439.95,-86.07 2438.06,-75.65 2433.04,-84.97 2439.95,-86.07"/>
</g>
<!-- Node58&#45;&gt;Node57 -->
<g id="edge52" class="edge">
<title>Node58&#45;&gt;Node57</title>
<path fill="none" stroke="midnightblue" d="M2431.46,-224.08C2435.15,-216.69 2440.52,-205.95 2445.09,-196.81"/>
<polygon fill="midnightblue" stroke="midnightblue" points="2448.28,-198.26 2449.62,-187.75 2442.02,-195.13 2448.28,-198.26"/>
</g>
<!-- Node58&#45;&gt;Node59 -->
<g id="edge54" class="edge">
<title>Node58&#45;&gt;Node59</title>
<path fill="none" stroke="midnightblue" d="M2455.36,-224.44C2485.74,-215.28 2534.11,-200.69 2567.82,-190.52"/>
<polygon fill="midnightblue" stroke="midnightblue" points="2569.21,-193.76 2577.77,-187.52 2567.18,-187.05 2569.21,-193.76"/>
</g>
<!-- Node59&#45;&gt;Node11 -->
<g id="edge55" class="edge">
<title>Node59&#45;&gt;Node11</title>
<path fill="none" stroke="midnightblue" d="M2538.89,-168.75C2535.89,-168.48 2532.91,-168.23 2530,-168 2094.34,-134.34 1977.5,-194.27 1540.91,-131.76"/>
<polygon fill="midnightblue" stroke="midnightblue" points="1541.27,-128.28 1530.87,-130.31 1540.26,-135.21 1541.27,-128.28"/>
</g>
<!-- Node59&#45;&gt;Node27 -->
<g id="edge57" class="edge">
<title>Node59&#45;&gt;Node27</title>
<path fill="none" stroke="midnightblue" d="M2574.66,-168.45C2551.53,-161.17 2520.02,-149.13 2496,-132 2477.56,-118.84 2461.05,-98.61 2450.6,-84.21"/>
<polygon fill="midnightblue" stroke="midnightblue" points="2453.26,-81.91 2444.65,-75.73 2447.53,-85.92 2453.26,-81.91"/>
</g>
<!-- Node60 -->
<g id="node40" class="node">
<title>Node60</title>
<g id="a_node40"><a xlink:href="gem_8h.html" target="_top" xlink:title=" ">
<polygon fill="white" stroke="red" points="2625,-112.5 2625,-131.5 2711,-131.5 2711,-112.5 2625,-112.5"/>
<text text-anchor="middle" x="2668" y="-119.5" font-family="FreeSans" font-size="10.00">magick/gem.h</text>
</a>
</g>
</g>
<!-- Node59&#45;&gt;Node60 -->
<g id="edge56" class="edge">
<title>Node59&#45;&gt;Node60</title>
<path fill="none" stroke="midnightblue" d="M2615.96,-168.32C2625.13,-160.34 2638.94,-148.31 2650.03,-138.65"/>
<polygon fill="midnightblue" stroke="midnightblue" points="2652.62,-141.04 2657.86,-131.83 2648.02,-135.76 2652.62,-141.04"/>
</g>
<!-- Node66 -->
<g id="node42" class="node">
<title>Node66</title>
<g id="a_node42"><a xlink:href="log_8h.html" target="_top" xlink:title=" ">
<polygon fill="white" stroke="black" points="1703,-112.5 1703,-131.5 1783,-131.5 1783,-112.5 1703,-112.5"/>
<text text-anchor="middle" x="1743" y="-119.5" font-family="FreeSans" font-size="10.00">magick/log.h</text>
</a>
</g>
</g>
<!-- Node65&#45;&gt;Node66 -->
<g id="edge59" class="edge">
<title>Node65&#45;&gt;Node66</title>
<path fill="none" stroke="midnightblue" d="M1662.42,-168.32C1677.54,-159.82 1700.82,-146.73 1718.47,-136.8"/>
<polygon fill="midnightblue" stroke="midnightblue" points="1720.61,-139.61 1727.61,-131.65 1717.18,-133.51 1720.61,-139.61"/>
</g>
<!-- Node67 -->
<g id="node43" class="node">
<title>Node67</title>
<g id="a_node43"><a xlink:href="magick_8h.html" target="_top" xlink:title=" ">
<polygon fill="white" stroke="black" points="1624.5,-56.5 1624.5,-75.5 1725.5,-75.5 1725.5,-56.5 1624.5,-56.5"/>
<text text-anchor="middle" x="1675" y="-63.5" font-family="FreeSans" font-size="10.00">magick/magick.h</text>
</a>
</g>
</g>
<!-- Node65&#45;&gt;Node67 -->
<g id="edge62" class="edge">
<title>Node65&#45;&gt;Node67</title>
<path fill="none" stroke="midnightblue" d="M1649.2,-168.37C1653.72,-150.62 1664.14,-109.67 1670.27,-85.6"/>
<polygon fill="midnightblue" stroke="midnightblue" points="1673.74,-86.15 1672.81,-75.59 1666.95,-84.42 1673.74,-86.15"/>
</g>
<!-- Node65&#45;&gt;Node45 -->
<g id="edge65" class="edge">
<title>Node65&#45;&gt;Node45</title>
<path fill="none" stroke="midnightblue" d="M1638.91,-168.08C1631.84,-160.3 1621.41,-148.8 1612.85,-139.37"/>
<polygon fill="midnightblue" stroke="midnightblue" points="1615.25,-136.8 1605.94,-131.75 1610.07,-141.51 1615.25,-136.8"/>
</g>
<!-- Node66&#45;&gt;Node5 -->
<g id="edge60" class="edge">
<title>Node66&#45;&gt;Node5</title>
<path fill="none" stroke="midnightblue" d="M1743.98,-112.34C1745.04,-99.21 1745.37,-73.91 1735,-56 1727.36,-42.8 1714.15,-32.26 1702.06,-24.71"/>
<polygon fill="midnightblue" stroke="midnightblue" points="1703.56,-21.53 1693.15,-19.52 1700.03,-27.57 1703.56,-21.53"/>
</g>
<!-- Node66&#45;&gt;Node30 -->
<g id="edge61" class="edge">
<title>Node66&#45;&gt;Node30</title>
<path fill="none" stroke="midnightblue" d="M1758.42,-112.32C1773.54,-103.82 1796.82,-90.73 1814.47,-80.8"/>
<polygon fill="midnightblue" stroke="midnightblue" points="1816.61,-83.61 1823.61,-75.65 1813.18,-77.51 1816.61,-83.61"/>
</g>
<!-- Node67&#45;&gt;Node5 -->
<g id="edge63" class="edge">
<title>Node67&#45;&gt;Node5</title>
<path fill="none" stroke="midnightblue" d="M1675,-56.08C1675,-49.01 1675,-38.86 1675,-29.99"/>
<polygon fill="midnightblue" stroke="midnightblue" points="1678.5,-29.75 1675,-19.75 1671.5,-29.75 1678.5,-29.75"/>
</g>
<!-- Node67&#45;&gt;Node31 -->
<g id="edge64" class="edge">
<title>Node67&#45;&gt;Node31</title>
<path fill="none" stroke="midnightblue" d="M1700.99,-56.44C1728.7,-47.32 1772.75,-32.81 1803.62,-22.65"/>
<polygon fill="midnightblue" stroke="midnightblue" points="1804.73,-25.97 1813.14,-19.52 1802.54,-19.32 1804.73,-25.97"/>
</g>
<!-- Node45&#45;&gt;Node5 -->
<g id="edge66" class="edge">
<title>Node45&#45;&gt;Node5</title>
<path fill="none" stroke="midnightblue" d="M1598.65,-112.27C1600,-99.06 1604.06,-73.65 1616,-56 1624.63,-43.25 1638.06,-32.59 1649.93,-24.86"/>
<polygon fill="midnightblue" stroke="midnightblue" points="1651.92,-27.74 1658.6,-19.52 1648.25,-21.78 1651.92,-27.74"/>
</g>
<!-- Node45&#45;&gt;Node12 -->
<g id="edge67" class="edge">
<title>Node45&#45;&gt;Node12</title>
<path fill="none" stroke="midnightblue" d="M1571.86,-112.44C1543.4,-103.13 1497.82,-88.21 1466.7,-78.03"/>
<polygon fill="midnightblue" stroke="midnightblue" points="1467.74,-74.69 1457.14,-74.9 1465.56,-81.34 1467.74,-74.69"/>
</g>
<!-- Node45&#45;&gt;Node30 -->
<g id="edge68" class="edge">
<title>Node45&#45;&gt;Node30</title>
<path fill="none" stroke="midnightblue" d="M1636.19,-112.44C1678.14,-103.04 1745.59,-87.93 1791.07,-77.74"/>
<polygon fill="midnightblue" stroke="midnightblue" points="1792,-81.12 1800.99,-75.52 1790.47,-74.29 1792,-81.12"/>
</g>
<!-- Node68&#45;&gt;Node32 -->
<g id="edge71" class="edge">
<title>Node68&#45;&gt;Node32</title>
<path fill="none" stroke="midnightblue" d="M2044.7,-224.44C2044.09,-211.88 2042.28,-187.77 2037,-168 2034.54,-158.78 2030.57,-148.98 2026.9,-140.88"/>
<polygon fill="midnightblue" stroke="midnightblue" points="2029.99,-139.24 2022.53,-131.71 2023.67,-142.24 2029.99,-139.24"/>
</g>
<!-- Node70&#45;&gt;Node9 -->
<g id="edge79" class="edge">
<title>Node70&#45;&gt;Node9</title>
<path fill="none" stroke="midnightblue" d="M1436,-168.08C1436,-161.01 1436,-150.86 1436,-141.99"/>
<polygon fill="midnightblue" stroke="midnightblue" points="1439.5,-141.75 1436,-131.75 1432.5,-141.75 1439.5,-141.75"/>
</g>
<!-- Node70&#45;&gt;Node15 -->
<g id="edge80" class="edge">
<title>Node70&#45;&gt;Node15</title>
<path fill="none" stroke="midnightblue" d="M1424.43,-168.32C1413.58,-160.18 1397.12,-147.84 1384.12,-138.09"/>
<polygon fill="midnightblue" stroke="midnightblue" points="1385.88,-135.03 1375.78,-131.83 1381.68,-140.63 1385.88,-135.03"/>
</g>
</g>
</svg>
