<?xml version="1.0" encoding="UTF-8" standalone="no"?>
<!DOCTYPE svg PUBLIC "-//W3C//DTD SVG 1.1//EN"
 "http://www.w3.org/Graphics/SVG/1.1/DTD/svg11.dtd">
<!-- Generated by graphviz version 2.43.0 (0)
 -->
<!-- Title: composite&#45;private.h Pages: 1 -->
<svg width="1987pt" height="644pt"
 viewBox="0.00 0.00 1987.12 644.00" xmlns="http://www.w3.org/2000/svg" xmlns:xlink="http://www.w3.org/1999/xlink">
<g id="graph0" class="graph" transform="scale(1 1) rotate(0) translate(4 640)">
<title>composite&#45;private.h</title>
<polygon fill="white" stroke="transparent" points="-4,4 -4,-640 1983.12,-640 1983.12,4 -4,4"/>
<!-- Node1 -->
<g id="node1" class="node">
<title>Node1</title>
<g id="a_node1"><a xlink:title=" ">
<polygon fill="#bfbfbf" stroke="black" points="1688.12,-616.5 1688.12,-635.5 1803.12,-635.5 1803.12,-616.5 1688.12,-616.5"/>
<text text-anchor="middle" x="1745.62" y="-623.5" font-family="FreeSans" font-size="10.00">composite&#45;private.h</text>
</a>
</g>
</g>
<!-- Node2 -->
<g id="node2" class="node">
<title>Node2</title>
<g id="a_node2"><a xlink:href="color_8h.html" target="_top" xlink:title=" ">
<polygon fill="white" stroke="black" points="1762.62,-168.5 1762.62,-187.5 1850.62,-187.5 1850.62,-168.5 1762.62,-168.5"/>
<text text-anchor="middle" x="1806.62" y="-175.5" font-family="FreeSans" font-size="10.00">magick/color.h</text>
</a>
</g>
</g>
<!-- Node1&#45;&gt;Node2 -->
<g id="edge1" class="edge">
<title>Node1&#45;&gt;Node2</title>
<path fill="none" stroke="midnightblue" d="M1762.24,-616.27C1790.2,-600.26 1843.62,-563.34 1843.62,-515 1843.62,-515 1843.62,-515 1843.62,-289 1843.62,-254.89 1827.44,-217.79 1816.48,-196.57"/>
<polygon fill="midnightblue" stroke="midnightblue" points="1819.43,-194.66 1811.61,-187.51 1813.26,-197.98 1819.43,-194.66"/>
</g>
<!-- Node9 -->
<g id="node9" class="node">
<title>Node9</title>
<g id="a_node9"><a xlink:href="image_8h.html" target="_top" xlink:title=" ">
<polygon fill="white" stroke="black" points="1132.12,-224.5 1132.12,-243.5 1227.12,-243.5 1227.12,-224.5 1132.12,-224.5"/>
<text text-anchor="middle" x="1179.62" y="-231.5" font-family="FreeSans" font-size="10.00">magick/image.h</text>
</a>
</g>
</g>
<!-- Node1&#45;&gt;Node9 -->
<g id="edge8" class="edge">
<title>Node1&#45;&gt;Node9</title>
<path fill="none" stroke="midnightblue" d="M1687.87,-625.35C1548.22,-624.65 1203.62,-613 1203.62,-515 1203.62,-515 1203.62,-515 1203.62,-345 1203.62,-312.06 1193.22,-274.82 1186.11,-253.21"/>
<polygon fill="midnightblue" stroke="midnightblue" points="1189.4,-252.03 1182.86,-243.7 1182.78,-254.29 1189.4,-252.03"/>
</g>
<!-- Node30 -->
<g id="node30" class="node">
<title>Node30</title>
<g id="a_node30"><a xlink:href="image-private_8h.html" target="_top" xlink:title=" ">
<polygon fill="white" stroke="black" points="1643.62,-448.5 1643.62,-467.5 1777.62,-467.5 1777.62,-448.5 1643.62,-448.5"/>
<text text-anchor="middle" x="1710.62" y="-455.5" font-family="FreeSans" font-size="10.00">magick/image&#45;private.h</text>
</a>
</g>
</g>
<!-- Node1&#45;&gt;Node30 -->
<g id="edge42" class="edge">
<title>Node1&#45;&gt;Node30</title>
<path fill="none" stroke="midnightblue" d="M1743.74,-616.08C1738.23,-589.95 1722.05,-513.21 1714.54,-477.58"/>
<polygon fill="midnightblue" stroke="midnightblue" points="1717.91,-476.63 1712.43,-467.57 1711.06,-478.08 1717.91,-476.63"/>
</g>
<!-- Node31 -->
<g id="node31" class="node">
<title>Node31</title>
<g id="a_node31"><a xlink:href="pixel-private_8h.html" target="_top" xlink:title=" ">
<polygon fill="white" stroke="black" points="1570.62,-560.5 1570.62,-579.5 1696.62,-579.5 1696.62,-560.5 1570.62,-560.5"/>
<text text-anchor="middle" x="1633.62" y="-567.5" font-family="FreeSans" font-size="10.00">magick/pixel&#45;private.h</text>
</a>
</g>
</g>
<!-- Node1&#45;&gt;Node31 -->
<g id="edge43" class="edge">
<title>Node1&#45;&gt;Node31</title>
<path fill="none" stroke="midnightblue" d="M1727.62,-616.32C1709.58,-607.62 1681.57,-594.12 1660.82,-584.11"/>
<polygon fill="midnightblue" stroke="midnightblue" points="1662.1,-580.84 1651.57,-579.65 1659.06,-587.15 1662.1,-580.84"/>
</g>
<!-- Node3 -->
<g id="node3" class="node">
<title>Node3</title>
<g id="a_node3"><a xlink:href="pixel_8h.html" target="_top" xlink:title=" ">
<polygon fill="white" stroke="black" points="1479.62,-56.5 1479.62,-75.5 1567.62,-75.5 1567.62,-56.5 1479.62,-56.5"/>
<text text-anchor="middle" x="1523.62" y="-63.5" font-family="FreeSans" font-size="10.00">magick/pixel.h</text>
</a>
</g>
</g>
<!-- Node2&#45;&gt;Node3 -->
<g id="edge2" class="edge">
<title>Node2&#45;&gt;Node3</title>
<path fill="none" stroke="midnightblue" d="M1784.41,-168.37C1734.4,-148.93 1612.83,-101.67 1555.08,-79.23"/>
<polygon fill="midnightblue" stroke="midnightblue" points="1556.31,-75.95 1545.72,-75.59 1553.78,-82.48 1556.31,-75.95"/>
</g>
<!-- Node6 -->
<g id="node6" class="node">
<title>Node6</title>
<g id="a_node6"><a xlink:href="exception_8h.html" target="_top" xlink:title=" ">
<polygon fill="white" stroke="black" points="1711.12,-56.5 1711.12,-75.5 1824.12,-75.5 1824.12,-56.5 1711.12,-56.5"/>
<text text-anchor="middle" x="1767.62" y="-63.5" font-family="FreeSans" font-size="10.00">magick/exception.h</text>
</a>
</g>
</g>
<!-- Node2&#45;&gt;Node6 -->
<g id="edge5" class="edge">
<title>Node2&#45;&gt;Node6</title>
<path fill="none" stroke="midnightblue" d="M1803.56,-168.37C1797.24,-150.54 1782.61,-109.3 1774.1,-85.27"/>
<polygon fill="midnightblue" stroke="midnightblue" points="1777.31,-83.85 1770.67,-75.59 1770.71,-86.19 1777.31,-83.85"/>
</g>
<!-- Node4 -->
<g id="node4" class="node">
<title>Node4</title>
<g id="a_node4"><a xlink:href="colorspace_8h.html" target="_top" xlink:title=" ">
<polygon fill="white" stroke="black" points="1301.12,-0.5 1301.12,-19.5 1418.12,-19.5 1418.12,-0.5 1301.12,-0.5"/>
<text text-anchor="middle" x="1359.62" y="-7.5" font-family="FreeSans" font-size="10.00">magick/colorspace.h</text>
</a>
</g>
</g>
<!-- Node3&#45;&gt;Node4 -->
<g id="edge3" class="edge">
<title>Node3&#45;&gt;Node4</title>
<path fill="none" stroke="midnightblue" d="M1497.63,-56.44C1469.92,-47.32 1425.87,-32.81 1395,-22.65"/>
<polygon fill="midnightblue" stroke="midnightblue" points="1396.08,-19.32 1385.48,-19.52 1393.89,-25.97 1396.08,-19.32"/>
</g>
<!-- Node5 -->
<g id="node5" class="node">
<title>Node5</title>
<g id="a_node5"><a xlink:href="constitute_8h.html" target="_top" xlink:title=" ">
<polygon fill="white" stroke="black" points="1467.12,-0.5 1467.12,-19.5 1580.12,-19.5 1580.12,-0.5 1467.12,-0.5"/>
<text text-anchor="middle" x="1523.62" y="-7.5" font-family="FreeSans" font-size="10.00">magick/constitute.h</text>
</a>
</g>
</g>
<!-- Node3&#45;&gt;Node5 -->
<g id="edge4" class="edge">
<title>Node3&#45;&gt;Node5</title>
<path fill="none" stroke="midnightblue" d="M1523.62,-56.08C1523.62,-49.01 1523.62,-38.86 1523.62,-29.99"/>
<polygon fill="midnightblue" stroke="midnightblue" points="1527.12,-29.75 1523.62,-19.75 1520.12,-29.75 1527.12,-29.75"/>
</g>
<!-- Node7 -->
<g id="node7" class="node">
<title>Node7</title>
<g id="a_node7"><a xlink:title=" ">
<polygon fill="white" stroke="#bfbfbf" points="1814.62,-0.5 1814.62,-19.5 1870.62,-19.5 1870.62,-0.5 1814.62,-0.5"/>
<text text-anchor="middle" x="1842.62" y="-7.5" font-family="FreeSans" font-size="10.00">stdarg.h</text>
</a>
</g>
</g>
<!-- Node6&#45;&gt;Node7 -->
<g id="edge6" class="edge">
<title>Node6&#45;&gt;Node7</title>
<path fill="none" stroke="midnightblue" d="M1779.67,-56.32C1791.08,-48.11 1808.45,-35.6 1822.05,-25.81"/>
<polygon fill="midnightblue" stroke="midnightblue" points="1824.28,-28.52 1830.35,-19.83 1820.19,-22.84 1824.28,-28.52"/>
</g>
<!-- Node8 -->
<g id="node8" class="node">
<title>Node8</title>
<g id="a_node8"><a xlink:href="semaphore_8h.html" target="_top" xlink:title=" ">
<polygon fill="white" stroke="black" points="1101.12,-0.5 1101.12,-19.5 1220.12,-19.5 1220.12,-0.5 1101.12,-0.5"/>
<text text-anchor="middle" x="1160.62" y="-7.5" font-family="FreeSans" font-size="10.00">magick/semaphore.h</text>
</a>
</g>
</g>
<!-- Node6&#45;&gt;Node8 -->
<g id="edge7" class="edge">
<title>Node6&#45;&gt;Node8</title>
<path fill="none" stroke="midnightblue" d="M1711.06,-59.97C1599.67,-50.06 1352.19,-28.04 1230.68,-17.23"/>
<polygon fill="midnightblue" stroke="midnightblue" points="1230.65,-13.72 1220.38,-16.32 1230.03,-20.69 1230.65,-13.72"/>
</g>
<!-- Node9&#45;&gt;Node2 -->
<g id="edge9" class="edge">
<title>Node9&#45;&gt;Node2</title>
<path fill="none" stroke="midnightblue" d="M1227.39,-230.71C1324.37,-225.75 1551.48,-212.53 1752.27,-188.06"/>
<polygon fill="midnightblue" stroke="midnightblue" points="1752.92,-191.51 1762.42,-186.81 1752.06,-184.56 1752.92,-191.51"/>
</g>
<!-- Node9&#45;&gt;Node3 -->
<g id="edge26" class="edge">
<title>Node9&#45;&gt;Node3</title>
<path fill="none" stroke="midnightblue" d="M1186.13,-224.46C1205.44,-199.35 1262.64,-126.65 1288.62,-112 1344.7,-80.38 1419,-70.56 1468.91,-67.72"/>
<polygon fill="midnightblue" stroke="midnightblue" points="1469.36,-71.2 1479.18,-67.22 1469.02,-64.21 1469.36,-71.2"/>
</g>
<!-- Node9&#45;&gt;Node4 -->
<g id="edge13" class="edge">
<title>Node9&#45;&gt;Node4</title>
<path fill="none" stroke="midnightblue" d="M1183.25,-224.21C1188.73,-211.34 1199.86,-186.87 1212.62,-168 1251.8,-110.03 1312.38,-52.81 1342.04,-26.3"/>
<polygon fill="midnightblue" stroke="midnightblue" points="1344.37,-28.91 1349.54,-19.66 1339.74,-23.66 1344.37,-28.91"/>
</g>
<!-- Node9&#45;&gt;Node8 -->
<g id="edge39" class="edge">
<title>Node9&#45;&gt;Node8</title>
<path fill="none" stroke="midnightblue" d="M1178.87,-224.3C1176.08,-191.63 1166.17,-75.87 1162.24,-29.96"/>
<polygon fill="midnightblue" stroke="midnightblue" points="1165.72,-29.55 1161.38,-19.88 1158.75,-30.15 1165.72,-29.55"/>
</g>
<!-- Node10 -->
<g id="node10" class="node">
<title>Node10</title>
<g id="a_node10"><a xlink:href="blob_8h.html" target="_top" xlink:title=" ">
<polygon fill="white" stroke="black" points="1468.62,-168.5 1468.62,-187.5 1554.62,-187.5 1554.62,-168.5 1468.62,-168.5"/>
<text text-anchor="middle" x="1511.62" y="-175.5" font-family="FreeSans" font-size="10.00">magick/blob.h</text>
</a>
</g>
</g>
<!-- Node9&#45;&gt;Node10 -->
<g id="edge10" class="edge">
<title>Node9&#45;&gt;Node10</title>
<path fill="none" stroke="midnightblue" d="M1227.14,-224.44C1288.35,-214.12 1394.25,-196.9 1458.2,-186.89"/>
<polygon fill="midnightblue" stroke="midnightblue" points="1459.13,-190.28 1468.47,-185.28 1458.05,-183.37 1459.13,-190.28"/>
</g>
<!-- Node11 -->
<g id="node11" class="node">
<title>Node11</title>
<g id="a_node11"><a xlink:href="stream_8h.html" target="_top" xlink:title=" ">
<polygon fill="white" stroke="black" points="1445.12,-112.5 1445.12,-131.5 1544.12,-131.5 1544.12,-112.5 1445.12,-112.5"/>
<text text-anchor="middle" x="1494.62" y="-119.5" font-family="FreeSans" font-size="10.00">magick/stream.h</text>
</a>
</g>
</g>
<!-- Node9&#45;&gt;Node11 -->
<g id="edge40" class="edge">
<title>Node9&#45;&gt;Node11</title>
<path fill="none" stroke="midnightblue" d="M1227.46,-231.63C1278.06,-228.52 1359.07,-218.65 1421.62,-188 1445.53,-176.28 1467.56,-154.5 1481.03,-139.4"/>
<polygon fill="midnightblue" stroke="midnightblue" points="1483.7,-141.66 1487.59,-131.81 1478.4,-137.09 1483.7,-141.66"/>
</g>
<!-- Node12 -->
<g id="node12" class="node">
<title>Node12</title>
<g id="a_node12"><a xlink:href="cache-view_8h.html" target="_top" xlink:title=" ">
<polygon fill="white" stroke="black" points="1298.12,-112.5 1298.12,-131.5 1417.12,-131.5 1417.12,-112.5 1298.12,-112.5"/>
<text text-anchor="middle" x="1357.62" y="-119.5" font-family="FreeSans" font-size="10.00">magick/cache&#45;view.h</text>
</a>
</g>
</g>
<!-- Node9&#45;&gt;Node12 -->
<g id="edge14" class="edge">
<title>Node9&#45;&gt;Node12</title>
<path fill="none" stroke="midnightblue" d="M1193.59,-224.37C1224.26,-205.41 1297.75,-160 1335.06,-136.94"/>
<polygon fill="midnightblue" stroke="midnightblue" points="1337.05,-139.83 1343.72,-131.59 1333.37,-133.87 1337.05,-139.83"/>
</g>
<!-- Node13 -->
<g id="node13" class="node">
<title>Node13</title>
<g id="a_node13"><a xlink:href="composite_8h.html" target="_top" xlink:title=" ">
<polygon fill="white" stroke="black" points="195.62,-168.5 195.62,-187.5 311.62,-187.5 311.62,-168.5 195.62,-168.5"/>
<text text-anchor="middle" x="253.62" y="-175.5" font-family="FreeSans" font-size="10.00">magick/composite.h</text>
</a>
</g>
</g>
<!-- Node9&#45;&gt;Node13 -->
<g id="edge16" class="edge">
<title>Node9&#45;&gt;Node13</title>
<path fill="none" stroke="midnightblue" d="M1132.03,-231.86C1003.27,-228.5 637.13,-217.01 321.94,-188.04"/>
<polygon fill="midnightblue" stroke="midnightblue" points="321.97,-184.53 311.69,-187.09 321.33,-191.5 321.97,-184.53"/>
</g>
<!-- Node14 -->
<g id="node14" class="node">
<title>Node14</title>
<g id="a_node14"><a xlink:href="compress_8h.html" target="_top" xlink:title=" ">
<polygon fill="white" stroke="black" points="329.62,-168.5 329.62,-187.5 441.62,-187.5 441.62,-168.5 329.62,-168.5"/>
<text text-anchor="middle" x="385.62" y="-175.5" font-family="FreeSans" font-size="10.00">magick/compress.h</text>
</a>
</g>
</g>
<!-- Node9&#45;&gt;Node14 -->
<g id="edge17" class="edge">
<title>Node9&#45;&gt;Node14</title>
<path fill="none" stroke="midnightblue" d="M1131.75,-231.3C1016.55,-226.95 714.55,-213.94 452.06,-188.07"/>
<polygon fill="midnightblue" stroke="midnightblue" points="452.26,-184.57 441.96,-187.07 451.56,-191.54 452.26,-184.57"/>
</g>
<!-- Node15 -->
<g id="node15" class="node">
<title>Node15</title>
<g id="a_node15"><a xlink:href="effect_8h.html" target="_top" xlink:title=" ">
<polygon fill="white" stroke="black" points="39.62,-168.5 39.62,-187.5 131.62,-187.5 131.62,-168.5 39.62,-168.5"/>
<text text-anchor="middle" x="85.62" y="-175.5" font-family="FreeSans" font-size="10.00">magick/effect.h</text>
</a>
</g>
</g>
<!-- Node9&#45;&gt;Node15 -->
<g id="edge18" class="edge">
<title>Node9&#45;&gt;Node15</title>
<path fill="none" stroke="midnightblue" d="M1131.96,-232.4C985.6,-230.22 529.71,-221.07 153.62,-188 149.73,-187.66 145.72,-187.26 141.68,-186.81"/>
<polygon fill="midnightblue" stroke="midnightblue" points="141.98,-183.33 131.65,-185.65 141.18,-190.28 141.98,-183.33"/>
</g>
<!-- Node17 -->
<g id="node17" class="node">
<title>Node17</title>
<g id="a_node17"><a xlink:href="geometry_8h.html" target="_top" xlink:title=" ">
<polygon fill="white" stroke="black" points="23.62,-56.5 23.62,-75.5 133.62,-75.5 133.62,-56.5 23.62,-56.5"/>
<text text-anchor="middle" x="78.62" y="-63.5" font-family="FreeSans" font-size="10.00">magick/geometry.h</text>
</a>
</g>
</g>
<!-- Node9&#45;&gt;Node17 -->
<g id="edge21" class="edge">
<title>Node9&#45;&gt;Node17</title>
<path fill="none" stroke="midnightblue" d="M1131.91,-232.18C939.2,-228.67 226.64,-214 186.62,-188 154.95,-167.42 173.85,-140.1 148.62,-112 136.94,-98.98 120.65,-88.22 106.72,-80.48"/>
<polygon fill="midnightblue" stroke="midnightblue" points="108.02,-77.21 97.55,-75.62 104.74,-83.39 108.02,-77.21"/>
</g>
<!-- Node18 -->
<g id="node18" class="node">
<title>Node18</title>
<g id="a_node18"><a xlink:href="layer_8h.html" target="_top" xlink:title=" ">
<polygon fill="white" stroke="black" points="577.12,-168.5 577.12,-187.5 666.12,-187.5 666.12,-168.5 577.12,-168.5"/>
<text text-anchor="middle" x="621.62" y="-175.5" font-family="FreeSans" font-size="10.00">magick/layer.h</text>
</a>
</g>
</g>
<!-- Node9&#45;&gt;Node18 -->
<g id="edge22" class="edge">
<title>Node9&#45;&gt;Node18</title>
<path fill="none" stroke="midnightblue" d="M1131.89,-229.95C1043.96,-224.08 850.27,-209.91 676.47,-188.01"/>
<polygon fill="midnightblue" stroke="midnightblue" points="676.73,-184.52 666.37,-186.73 675.85,-191.46 676.73,-184.52"/>
</g>
<!-- Node19 -->
<g id="node19" class="node">
<title>Node19</title>
<g id="a_node19"><a xlink:href="locale___8h.html" target="_top" xlink:title=" ">
<polygon fill="white" stroke="black" points="460.12,-168.5 460.12,-187.5 559.12,-187.5 559.12,-168.5 460.12,-168.5"/>
<text text-anchor="middle" x="509.62" y="-175.5" font-family="FreeSans" font-size="10.00">magick/locale_.h</text>
</a>
</g>
</g>
<!-- Node9&#45;&gt;Node19 -->
<g id="edge23" class="edge">
<title>Node9&#45;&gt;Node19</title>
<path fill="none" stroke="midnightblue" d="M1131.88,-230.8C1030.3,-225.84 785.02,-212.36 569.5,-188.13"/>
<polygon fill="midnightblue" stroke="midnightblue" points="569.59,-184.62 559.26,-186.97 568.8,-191.58 569.59,-184.62"/>
</g>
<!-- Node21 -->
<g id="node21" class="node">
<title>Node21</title>
<g id="a_node21"><a xlink:href="monitor_8h.html" target="_top" xlink:title=" ">
<polygon fill="white" stroke="black" points="810.62,-168.5 810.62,-187.5 912.62,-187.5 912.62,-168.5 810.62,-168.5"/>
<text text-anchor="middle" x="861.62" y="-175.5" font-family="FreeSans" font-size="10.00">magick/monitor.h</text>
</a>
</g>
</g>
<!-- Node9&#45;&gt;Node21 -->
<g id="edge25" class="edge">
<title>Node9&#45;&gt;Node21</title>
<path fill="none" stroke="midnightblue" d="M1132.01,-224.92C1075.96,-215.4 982.8,-199.58 921.8,-189.22"/>
<polygon fill="midnightblue" stroke="midnightblue" points="922.36,-185.77 911.92,-187.54 921.19,-192.67 922.36,-185.77"/>
</g>
<!-- Node22 -->
<g id="node22" class="node">
<title>Node22</title>
<g id="a_node22"><a xlink:href="profile_8h.html" target="_top" xlink:title=" ">
<polygon fill="white" stroke="black" points="1649.12,-168.5 1649.12,-187.5 1744.12,-187.5 1744.12,-168.5 1649.12,-168.5"/>
<text text-anchor="middle" x="1696.62" y="-175.5" font-family="FreeSans" font-size="10.00">magick/profile.h</text>
</a>
</g>
</g>
<!-- Node9&#45;&gt;Node22 -->
<g id="edge27" class="edge">
<title>Node9&#45;&gt;Node22</title>
<path fill="none" stroke="midnightblue" d="M1227.33,-228.02C1322.55,-218.07 1535.84,-195.79 1638.81,-185.04"/>
<polygon fill="midnightblue" stroke="midnightblue" points="1639.44,-188.49 1649.02,-183.97 1638.71,-181.53 1639.44,-188.49"/>
</g>
<!-- Node25 -->
<g id="node25" class="node">
<title>Node25</title>
<g id="a_node25"><a xlink:href="quantum_8h.html" target="_top" xlink:title=" ">
<polygon fill="white" stroke="black" points="684.62,-168.5 684.62,-187.5 792.62,-187.5 792.62,-168.5 684.62,-168.5"/>
<text text-anchor="middle" x="738.62" y="-175.5" font-family="FreeSans" font-size="10.00">magick/quantum.h</text>
</a>
</g>
</g>
<!-- Node9&#45;&gt;Node25 -->
<g id="edge32" class="edge">
<title>Node9&#45;&gt;Node25</title>
<path fill="none" stroke="midnightblue" d="M1132.08,-228.33C1060.75,-220.69 922.06,-204.82 798.94,-188.82"/>
<polygon fill="midnightblue" stroke="midnightblue" points="799.34,-185.34 788.97,-187.52 798.43,-192.28 799.34,-185.34"/>
</g>
<!-- Node27 -->
<g id="node27" class="node">
<title>Node27</title>
<g id="a_node27"><a xlink:href="resample_8h.html" target="_top" xlink:title=" ">
<polygon fill="white" stroke="black" points="1302.62,-168.5 1302.62,-187.5 1412.62,-187.5 1412.62,-168.5 1302.62,-168.5"/>
<text text-anchor="middle" x="1357.62" y="-175.5" font-family="FreeSans" font-size="10.00">magick/resample.h</text>
</a>
</g>
</g>
<!-- Node9&#45;&gt;Node27 -->
<g id="edge36" class="edge">
<title>Node9&#45;&gt;Node27</title>
<path fill="none" stroke="midnightblue" d="M1207.82,-224.44C1238.03,-215.28 1286.13,-200.69 1319.65,-190.52"/>
<polygon fill="midnightblue" stroke="midnightblue" points="1320.99,-193.77 1329.55,-187.52 1318.96,-187.07 1320.99,-193.77"/>
</g>
<!-- Node28 -->
<g id="node28" class="node">
<title>Node28</title>
<g id="a_node28"><a xlink:href="resize_8h.html" target="_top" xlink:title=" ">
<polygon fill="white" stroke="black" points="930.62,-168.5 930.62,-187.5 1024.62,-187.5 1024.62,-168.5 930.62,-168.5"/>
<text text-anchor="middle" x="977.62" y="-175.5" font-family="FreeSans" font-size="10.00">magick/resize.h</text>
</a>
</g>
</g>
<!-- Node9&#45;&gt;Node28 -->
<g id="edge38" class="edge">
<title>Node9&#45;&gt;Node28</title>
<path fill="none" stroke="midnightblue" d="M1147.61,-224.44C1112.89,-215.16 1057.33,-200.31 1019.24,-190.13"/>
<polygon fill="midnightblue" stroke="midnightblue" points="1020.04,-186.72 1009.48,-187.52 1018.23,-193.48 1020.04,-186.72"/>
</g>
<!-- Node29 -->
<g id="node29" class="node">
<title>Node29</title>
<g id="a_node29"><a xlink:href="timer_8h.html" target="_top" xlink:title=" ">
<polygon fill="white" stroke="black" points="1042.62,-168.5 1042.62,-187.5 1132.62,-187.5 1132.62,-168.5 1042.62,-168.5"/>
<text text-anchor="middle" x="1087.62" y="-175.5" font-family="FreeSans" font-size="10.00">magick/timer.h</text>
</a>
</g>
</g>
<!-- Node9&#45;&gt;Node29 -->
<g id="edge41" class="edge">
<title>Node9&#45;&gt;Node29</title>
<path fill="none" stroke="midnightblue" d="M1164.84,-224.32C1150.35,-215.82 1128.05,-202.73 1111.13,-192.8"/>
<polygon fill="midnightblue" stroke="midnightblue" points="1112.76,-189.7 1102.36,-187.65 1109.22,-195.74 1112.76,-189.7"/>
</g>
<!-- Node10&#45;&gt;Node9 -->
<g id="edge11" class="edge">
<title>Node10&#45;&gt;Node9</title>
<path fill="none" stroke="midnightblue" d="M1468.45,-186.82C1409.4,-196.81 1303.52,-214.04 1237.62,-224.4"/>
<polygon fill="midnightblue" stroke="midnightblue" points="1236.74,-220.99 1227.4,-226 1237.82,-227.91 1236.74,-220.99"/>
</g>
<!-- Node10&#45;&gt;Node11 -->
<g id="edge12" class="edge">
<title>Node10&#45;&gt;Node11</title>
<path fill="none" stroke="midnightblue" d="M1508.81,-168.08C1506.53,-160.85 1503.25,-150.41 1500.41,-141.4"/>
<polygon fill="midnightblue" stroke="midnightblue" points="1503.72,-140.24 1497.37,-131.75 1497.04,-142.34 1503.72,-140.24"/>
</g>
<!-- Node12&#45;&gt;Node3 -->
<g id="edge15" class="edge">
<title>Node12&#45;&gt;Node3</title>
<path fill="none" stroke="midnightblue" d="M1383.92,-112.44C1411.97,-103.32 1456.56,-88.81 1487.8,-78.65"/>
<polygon fill="midnightblue" stroke="midnightblue" points="1489.01,-81.94 1497.44,-75.52 1486.85,-75.28 1489.01,-81.94"/>
</g>
<!-- Node16 -->
<g id="node16" class="node">
<title>Node16</title>
<g id="a_node16"><a xlink:href="morphology_8h.html" target="_top" xlink:title=" ">
<polygon fill="white" stroke="black" points="17.62,-112.5 17.62,-131.5 139.62,-131.5 139.62,-112.5 17.62,-112.5"/>
<text text-anchor="middle" x="78.62" y="-119.5" font-family="FreeSans" font-size="10.00">magick/morphology.h</text>
</a>
</g>
</g>
<!-- Node15&#45;&gt;Node16 -->
<g id="edge19" class="edge">
<title>Node15&#45;&gt;Node16</title>
<path fill="none" stroke="midnightblue" d="M84.46,-168.08C83.54,-160.93 82.2,-150.64 81.04,-141.69"/>
<polygon fill="midnightblue" stroke="midnightblue" points="84.51,-141.22 79.75,-131.75 77.57,-142.12 84.51,-141.22"/>
</g>
<!-- Node16&#45;&gt;Node17 -->
<g id="edge20" class="edge">
<title>Node16&#45;&gt;Node17</title>
<path fill="none" stroke="midnightblue" d="M78.62,-112.08C78.62,-105.01 78.62,-94.86 78.62,-85.99"/>
<polygon fill="midnightblue" stroke="midnightblue" points="82.12,-85.75 78.62,-75.75 75.12,-85.75 82.12,-85.75"/>
</g>
<!-- Node20 -->
<g id="node20" class="node">
<title>Node20</title>
<g id="a_node20"><a xlink:href="hashmap_8h.html" target="_top" xlink:title=" ">
<polygon fill="white" stroke="black" points="454.62,-112.5 454.62,-131.5 564.62,-131.5 564.62,-112.5 454.62,-112.5"/>
<text text-anchor="middle" x="509.62" y="-119.5" font-family="FreeSans" font-size="10.00">magick/hashmap.h</text>
</a>
</g>
</g>
<!-- Node19&#45;&gt;Node20 -->
<g id="edge24" class="edge">
<title>Node19&#45;&gt;Node20</title>
<path fill="none" stroke="midnightblue" d="M509.62,-168.08C509.62,-161.01 509.62,-150.86 509.62,-141.99"/>
<polygon fill="midnightblue" stroke="midnightblue" points="513.12,-141.75 509.62,-131.75 506.12,-141.75 513.12,-141.75"/>
</g>
<!-- Node23 -->
<g id="node23" class="node">
<title>Node23</title>
<g id="a_node23"><a xlink:href="string___8h.html" target="_top" xlink:title=" ">
<polygon fill="white" stroke="black" points="1817.62,-112.5 1817.62,-131.5 1915.62,-131.5 1915.62,-112.5 1817.62,-112.5"/>
<text text-anchor="middle" x="1866.62" y="-119.5" font-family="FreeSans" font-size="10.00">magick/string_.h</text>
</a>
</g>
</g>
<!-- Node22&#45;&gt;Node23 -->
<g id="edge28" class="edge">
<title>Node22&#45;&gt;Node23</title>
<path fill="none" stroke="midnightblue" d="M1723.56,-168.44C1752.28,-159.32 1797.95,-144.81 1829.94,-134.65"/>
<polygon fill="midnightblue" stroke="midnightblue" points="1831.34,-137.88 1839.81,-131.52 1829.22,-131.21 1831.34,-137.88"/>
</g>
<!-- Node23&#45;&gt;Node6 -->
<g id="edge31" class="edge">
<title>Node23&#45;&gt;Node6</title>
<path fill="none" stroke="midnightblue" d="M1850.71,-112.32C1834.98,-103.74 1810.68,-90.49 1792.41,-80.52"/>
<polygon fill="midnightblue" stroke="midnightblue" points="1793.94,-77.37 1783.49,-75.65 1790.59,-83.52 1793.94,-77.37"/>
</g>
<!-- Node23&#45;&gt;Node7 -->
<g id="edge29" class="edge">
<title>Node23&#45;&gt;Node7</title>
<path fill="none" stroke="midnightblue" d="M1876.68,-112.22C1889.65,-99.78 1909.44,-76.27 1899.62,-56 1893.22,-42.8 1880.87,-32.3 1869.29,-24.78"/>
<polygon fill="midnightblue" stroke="midnightblue" points="1871.07,-21.77 1860.7,-19.61 1867.46,-27.77 1871.07,-21.77"/>
</g>
<!-- Node24 -->
<g id="node24" class="node">
<title>Node24</title>
<g id="a_node24"><a xlink:title=" ">
<polygon fill="white" stroke="#bfbfbf" points="1842.62,-56.5 1842.62,-75.5 1890.62,-75.5 1890.62,-56.5 1842.62,-56.5"/>
<text text-anchor="middle" x="1866.62" y="-63.5" font-family="FreeSans" font-size="10.00">time.h</text>
</a>
</g>
</g>
<!-- Node23&#45;&gt;Node24 -->
<g id="edge30" class="edge">
<title>Node23&#45;&gt;Node24</title>
<path fill="none" stroke="midnightblue" d="M1866.62,-112.08C1866.62,-105.01 1866.62,-94.86 1866.62,-85.99"/>
<polygon fill="midnightblue" stroke="midnightblue" points="1870.12,-85.75 1866.62,-75.75 1863.12,-85.75 1870.12,-85.75"/>
</g>
<!-- Node25&#45;&gt;Node8 -->
<g id="edge35" class="edge">
<title>Node25&#45;&gt;Node8</title>
<path fill="none" stroke="midnightblue" d="M738.57,-168.48C738.97,-154.6 741.86,-127.16 757.62,-112 804.91,-66.51 988.54,-34.67 1090.83,-20.05"/>
<polygon fill="midnightblue" stroke="midnightblue" points="1091.35,-23.51 1100.77,-18.64 1090.37,-16.58 1091.35,-23.51"/>
</g>
<!-- Node25&#45;&gt;Node9 -->
<g id="edge34" class="edge">
<title>Node25&#45;&gt;Node9</title>
<path fill="none" stroke="midnightblue" d="M792.95,-185.62C798.94,-186.44 804.92,-187.25 810.62,-188 920.7,-202.41 1049.08,-217.29 1121.8,-225.81"/>
<polygon fill="midnightblue" stroke="midnightblue" points="1121.77,-229.33 1132.11,-227.02 1122.59,-222.38 1121.77,-229.33"/>
</g>
<!-- Node26 -->
<g id="node26" class="node">
<title>Node26</title>
<g id="a_node26"><a xlink:title=" ">
<polygon fill="white" stroke="#bfbfbf" points="767.12,-112.5 767.12,-131.5 814.12,-131.5 814.12,-112.5 767.12,-112.5"/>
<text text-anchor="middle" x="790.62" y="-119.5" font-family="FreeSans" font-size="10.00">float.h</text>
</a>
</g>
</g>
<!-- Node25&#45;&gt;Node26 -->
<g id="edge33" class="edge">
<title>Node25&#45;&gt;Node26</title>
<path fill="none" stroke="midnightblue" d="M747.21,-168.08C754.78,-160.22 766,-148.57 775.13,-139.08"/>
<polygon fill="midnightblue" stroke="midnightblue" points="777.78,-141.38 782.19,-131.75 772.73,-136.53 777.78,-141.38"/>
</g>
<!-- Node27&#45;&gt;Node12 -->
<g id="edge37" class="edge">
<title>Node27&#45;&gt;Node12</title>
<path fill="none" stroke="midnightblue" d="M1357.62,-168.08C1357.62,-161.01 1357.62,-150.86 1357.62,-141.99"/>
<polygon fill="midnightblue" stroke="midnightblue" points="1361.12,-141.75 1357.62,-131.75 1354.12,-141.75 1361.12,-141.75"/>
</g>
<!-- Node31&#45;&gt;Node2 -->
<g id="edge45" class="edge">
<title>Node31&#45;&gt;Node2</title>
<path fill="none" stroke="midnightblue" d="M1655.41,-560.48C1688.71,-546.34 1752.03,-514.86 1786.62,-468 1804.49,-443.78 1805.62,-433.1 1805.62,-403 1805.62,-403 1805.62,-403 1805.62,-289 1805.62,-256.95 1806.05,-219.64 1806.35,-197.75"/>
<polygon fill="midnightblue" stroke="midnightblue" points="1809.85,-197.61 1806.49,-187.56 1802.85,-197.51 1809.85,-197.61"/>
</g>
<!-- Node31&#45;&gt;Node9 -->
<g id="edge44" class="edge">
<title>Node31&#45;&gt;Node9</title>
<path fill="none" stroke="midnightblue" d="M1570.31,-564.08C1460.8,-553.8 1247.62,-525.28 1247.62,-459 1247.62,-459 1247.62,-459 1247.62,-345 1247.62,-306.55 1217.18,-270.31 1197.04,-250.54"/>
<polygon fill="midnightblue" stroke="midnightblue" points="1199.33,-247.89 1189.65,-243.57 1194.52,-252.98 1199.33,-247.89"/>
</g>
<!-- Node31&#45;&gt;Node30 -->
<g id="edge46" class="edge">
<title>Node31&#45;&gt;Node30</title>
<path fill="none" stroke="midnightblue" d="M1639.66,-560.37C1652.37,-542.22 1682.06,-499.8 1698.73,-475.99"/>
<polygon fill="midnightblue" stroke="midnightblue" points="1701.74,-477.79 1704.61,-467.59 1696,-473.78 1701.74,-477.79"/>
</g>
<!-- Node32 -->
<g id="node32" class="node">
<title>Node32</title>
<g id="a_node32"><a xlink:href="memory___8h.html" target="_top" xlink:title=" ">
<polygon fill="white" stroke="black" points="1324.12,-448.5 1324.12,-467.5 1435.12,-467.5 1435.12,-448.5 1324.12,-448.5"/>
<text text-anchor="middle" x="1379.62" y="-455.5" font-family="FreeSans" font-size="10.00">magick/memory_.h</text>
</a>
</g>
</g>
<!-- Node31&#45;&gt;Node32 -->
<g id="edge47" class="edge">
<title>Node31&#45;&gt;Node32</title>
<path fill="none" stroke="midnightblue" d="M1570.24,-561.39C1533.65,-555.09 1487.69,-543.83 1450.62,-524 1427.71,-511.74 1406.44,-490.4 1393.26,-475.52"/>
<polygon fill="midnightblue" stroke="midnightblue" points="1395.66,-472.94 1386.49,-467.63 1390.35,-477.5 1395.66,-472.94"/>
</g>
<!-- Node35 -->
<g id="node35" class="node">
<title>Node35</title>
<g id="a_node35"><a xlink:href="pixel-accessor_8h.html" target="_top" xlink:title=" ">
<polygon fill="white" stroke="black" points="1491.62,-448.5 1491.62,-467.5 1625.62,-467.5 1625.62,-448.5 1491.62,-448.5"/>
<text text-anchor="middle" x="1558.62" y="-455.5" font-family="FreeSans" font-size="10.00">magick/pixel&#45;accessor.h</text>
</a>
</g>
</g>
<!-- Node31&#45;&gt;Node35 -->
<g id="edge50" class="edge">
<title>Node31&#45;&gt;Node35</title>
<path fill="none" stroke="midnightblue" d="M1632.75,-560.31C1631.1,-547.14 1626.51,-521.79 1614.62,-504 1606.36,-491.64 1593.66,-481.04 1582.44,-473.24"/>
<polygon fill="midnightblue" stroke="midnightblue" points="1584.15,-470.17 1573.87,-467.6 1580.3,-476.02 1584.15,-470.17"/>
</g>
<!-- Node42 -->
<g id="node42" class="node">
<title>Node42</title>
<g id="a_node42"><a xlink:href="quantum-private_8h.html" target="_top" xlink:title=" ">
<polygon fill="white" stroke="black" points="1459.62,-504.5 1459.62,-523.5 1605.62,-523.5 1605.62,-504.5 1459.62,-504.5"/>
<text text-anchor="middle" x="1532.62" y="-511.5" font-family="FreeSans" font-size="10.00">magick/quantum&#45;private.h</text>
</a>
</g>
</g>
<!-- Node31&#45;&gt;Node42 -->
<g id="edge63" class="edge">
<title>Node31&#45;&gt;Node42</title>
<path fill="none" stroke="midnightblue" d="M1617.39,-560.32C1601.27,-551.7 1576.32,-538.36 1557.66,-528.39"/>
<polygon fill="midnightblue" stroke="midnightblue" points="1559.28,-525.28 1548.81,-523.65 1555.97,-531.46 1559.28,-525.28"/>
</g>
<!-- Node33 -->
<g id="node33" class="node">
<title>Node33</title>
<g id="a_node33"><a xlink:title=" ">
<polygon fill="white" stroke="#bfbfbf" points="1299.12,-392.5 1299.12,-411.5 1350.12,-411.5 1350.12,-392.5 1299.12,-392.5"/>
<text text-anchor="middle" x="1324.62" y="-399.5" font-family="FreeSans" font-size="10.00">errno.h</text>
</a>
</g>
</g>
<!-- Node32&#45;&gt;Node33 -->
<g id="edge48" class="edge">
<title>Node32&#45;&gt;Node33</title>
<path fill="none" stroke="midnightblue" d="M1370.54,-448.08C1362.45,-440.14 1350.42,-428.34 1340.71,-418.8"/>
<polygon fill="midnightblue" stroke="midnightblue" points="1343.12,-416.26 1333.53,-411.75 1338.22,-421.25 1343.12,-416.26"/>
</g>
<!-- Node34 -->
<g id="node34" class="node">
<title>Node34</title>
<g id="a_node34"><a xlink:title=" ">
<polygon fill="white" stroke="#bfbfbf" points="1368.62,-392.5 1368.62,-411.5 1424.62,-411.5 1424.62,-392.5 1368.62,-392.5"/>
<text text-anchor="middle" x="1396.62" y="-399.5" font-family="FreeSans" font-size="10.00">assert.h</text>
</a>
</g>
</g>
<!-- Node32&#45;&gt;Node34 -->
<g id="edge49" class="edge">
<title>Node32&#45;&gt;Node34</title>
<path fill="none" stroke="midnightblue" d="M1382.43,-448.08C1384.7,-440.85 1387.99,-430.41 1390.83,-421.4"/>
<polygon fill="midnightblue" stroke="midnightblue" points="1394.2,-422.34 1393.86,-411.75 1387.52,-420.24 1394.2,-422.34"/>
</g>
<!-- Node35&#45;&gt;Node3 -->
<g id="edge62" class="edge">
<title>Node35&#45;&gt;Node3</title>
<path fill="none" stroke="midnightblue" d="M1561.86,-448.3C1568.41,-429.89 1582.62,-385.51 1582.62,-347 1582.62,-347 1582.62,-347 1582.62,-177 1582.62,-140.02 1556.41,-103.47 1538.93,-83.21"/>
<polygon fill="midnightblue" stroke="midnightblue" points="1541.36,-80.67 1532.07,-75.56 1536.14,-85.34 1541.36,-80.67"/>
</g>
<!-- Node36 -->
<g id="node36" class="node">
<title>Node36</title>
<g id="a_node36"><a xlink:title=" ">
<polygon fill="white" stroke="#bfbfbf" points="1611.12,-392.5 1611.12,-411.5 1662.12,-411.5 1662.12,-392.5 1611.12,-392.5"/>
<text text-anchor="middle" x="1636.62" y="-399.5" font-family="FreeSans" font-size="10.00">math.h</text>
</a>
</g>
</g>
<!-- Node35&#45;&gt;Node36 -->
<g id="edge51" class="edge">
<title>Node35&#45;&gt;Node36</title>
<path fill="none" stroke="midnightblue" d="M1571.15,-448.32C1583.21,-439.98 1601.65,-427.21 1615.89,-417.35"/>
<polygon fill="midnightblue" stroke="midnightblue" points="1617.89,-420.22 1624.12,-411.65 1613.9,-414.47 1617.89,-420.22"/>
</g>
<!-- Node37 -->
<g id="node37" class="node">
<title>Node37</title>
<g id="a_node37"><a xlink:href="gem_8h.html" target="_top" xlink:title=" ">
<polygon fill="white" stroke="black" points="1680.62,-392.5 1680.62,-411.5 1766.62,-411.5 1766.62,-392.5 1680.62,-392.5"/>
<text text-anchor="middle" x="1723.62" y="-399.5" font-family="FreeSans" font-size="10.00">magick/gem.h</text>
</a>
</g>
</g>
<!-- Node35&#45;&gt;Node37 -->
<g id="edge52" class="edge">
<title>Node35&#45;&gt;Node37</title>
<path fill="none" stroke="midnightblue" d="M1584.76,-448.44C1612.64,-439.32 1656.97,-424.81 1688.02,-414.65"/>
<polygon fill="midnightblue" stroke="midnightblue" points="1689.18,-417.95 1697.6,-411.52 1687,-411.3 1689.18,-417.95"/>
</g>
<!-- Node38 -->
<g id="node38" class="node">
<title>Node38</title>
<g id="a_node38"><a xlink:href="random___8h.html" target="_top" xlink:title=" ">
<polygon fill="white" stroke="black" points="1872.12,-336.5 1872.12,-355.5 1979.12,-355.5 1979.12,-336.5 1872.12,-336.5"/>
<text text-anchor="middle" x="1925.62" y="-343.5" font-family="FreeSans" font-size="10.00">magick/random_.h</text>
</a>
</g>
</g>
<!-- Node37&#45;&gt;Node38 -->
<g id="edge53" class="edge">
<title>Node37&#45;&gt;Node38</title>
<path fill="none" stroke="midnightblue" d="M1755.63,-392.44C1790.35,-383.16 1845.91,-368.31 1884,-358.13"/>
<polygon fill="midnightblue" stroke="midnightblue" points="1885,-361.48 1893.76,-355.52 1883.2,-354.72 1885,-361.48"/>
</g>
<!-- Node39 -->
<g id="node39" class="node">
<title>Node39</title>
<g id="a_node39"><a xlink:href="visual-effects_8h.html" target="_top" xlink:title=" ">
<polygon fill="white" stroke="black" points="1629.12,-336.5 1629.12,-355.5 1760.12,-355.5 1760.12,-336.5 1629.12,-336.5"/>
<text text-anchor="middle" x="1694.62" y="-343.5" font-family="FreeSans" font-size="10.00">magick/visual&#45;effects.h</text>
</a>
</g>
</g>
<!-- Node37&#45;&gt;Node39 -->
<g id="edge55" class="edge">
<title>Node37&#45;&gt;Node39</title>
<path fill="none" stroke="midnightblue" d="M1718.83,-392.08C1714.86,-384.69 1709.09,-373.95 1704.18,-364.81"/>
<polygon fill="midnightblue" stroke="midnightblue" points="1707.13,-362.91 1699.32,-355.75 1700.97,-366.22 1707.13,-362.91"/>
</g>
<!-- Node38&#45;&gt;Node23 -->
<g id="edge54" class="edge">
<title>Node38&#45;&gt;Node23</title>
<path fill="none" stroke="midnightblue" d="M1923.31,-336.3C1914.61,-303.56 1883.73,-187.38 1871.58,-141.67"/>
<polygon fill="midnightblue" stroke="midnightblue" points="1874.93,-140.65 1868.98,-131.88 1868.17,-142.45 1874.93,-140.65"/>
</g>
<!-- Node40 -->
<g id="node40" class="node">
<title>Node40</title>
<g id="a_node40"><a xlink:href="draw_8h.html" target="_top" xlink:title=" ">
<polygon fill="white" stroke="black" points="1628.62,-280.5 1628.62,-299.5 1716.62,-299.5 1716.62,-280.5 1628.62,-280.5"/>
<text text-anchor="middle" x="1672.62" y="-287.5" font-family="FreeSans" font-size="10.00">magick/draw.h</text>
</a>
</g>
</g>
<!-- Node39&#45;&gt;Node40 -->
<g id="edge56" class="edge">
<title>Node39&#45;&gt;Node40</title>
<path fill="none" stroke="midnightblue" d="M1690.99,-336.08C1688.01,-328.77 1683.69,-318.18 1679.99,-309.1"/>
<polygon fill="midnightblue" stroke="midnightblue" points="1683.2,-307.69 1676.18,-299.75 1676.72,-310.33 1683.2,-307.69"/>
</g>
<!-- Node40&#45;&gt;Node2 -->
<g id="edge61" class="edge">
<title>Node40&#45;&gt;Node2</title>
<path fill="none" stroke="midnightblue" d="M1688.57,-280.34C1703.46,-271.93 1725.96,-258.37 1743.62,-244 1761.99,-229.05 1780.57,-209.17 1792.74,-195.35"/>
<polygon fill="midnightblue" stroke="midnightblue" points="1795.53,-197.48 1799.43,-187.63 1790.24,-192.9 1795.53,-197.48"/>
</g>
<!-- Node40&#45;&gt;Node3 -->
<g id="edge59" class="edge">
<title>Node40&#45;&gt;Node3</title>
<path fill="none" stroke="midnightblue" d="M1664.88,-280.25C1657.54,-271.57 1646.6,-257.62 1639.62,-244 1611.47,-189.1 1634.77,-160.49 1596.62,-112 1585.74,-98.18 1569.36,-87.53 1554.87,-80.07"/>
<polygon fill="midnightblue" stroke="midnightblue" points="1556.22,-76.84 1545.7,-75.63 1553.17,-83.14 1556.22,-76.84"/>
</g>
<!-- Node40&#45;&gt;Node9 -->
<g id="edge58" class="edge">
<title>Node40&#45;&gt;Node9</title>
<path fill="none" stroke="midnightblue" d="M1628.44,-284.16C1539.07,-274.37 1336.91,-252.23 1237.3,-241.32"/>
<polygon fill="midnightblue" stroke="midnightblue" points="1237.44,-237.81 1227.12,-240.2 1236.68,-244.77 1237.44,-237.81"/>
</g>
<!-- Node40&#45;&gt;Node17 -->
<g id="edge57" class="edge">
<title>Node40&#45;&gt;Node17</title>
<path fill="none" stroke="midnightblue" d="M1628.49,-286.18C1600.46,-284.39 1563.41,-282.04 1530.62,-280 1363.96,-269.61 165.66,-286.22 30.62,-188 2.18,-167.32 -8.23,-142.86 8.62,-112 16.44,-97.68 30.98,-87.24 44.8,-80.04"/>
<polygon fill="midnightblue" stroke="midnightblue" points="46.64,-83.03 54.15,-75.56 43.62,-76.72 46.64,-83.03"/>
</g>
<!-- Node41 -->
<g id="node41" class="node">
<title>Node41</title>
<g id="a_node41"><a xlink:href="type_8h.html" target="_top" xlink:title=" ">
<polygon fill="white" stroke="black" points="1648.62,-224.5 1648.62,-243.5 1734.62,-243.5 1734.62,-224.5 1648.62,-224.5"/>
<text text-anchor="middle" x="1691.62" y="-231.5" font-family="FreeSans" font-size="10.00">magick/type.h</text>
</a>
</g>
</g>
<!-- Node40&#45;&gt;Node41 -->
<g id="edge60" class="edge">
<title>Node40&#45;&gt;Node41</title>
<path fill="none" stroke="midnightblue" d="M1675.76,-280.08C1678.3,-272.85 1681.98,-262.41 1685.15,-253.4"/>
<polygon fill="midnightblue" stroke="midnightblue" points="1688.52,-254.35 1688.54,-243.75 1681.92,-252.02 1688.52,-254.35"/>
</g>
<!-- Node42&#45;&gt;Node30 -->
<g id="edge67" class="edge">
<title>Node42&#45;&gt;Node30</title>
<path fill="none" stroke="midnightblue" d="M1560.82,-504.44C1591.03,-495.28 1639.13,-480.69 1672.65,-470.52"/>
<polygon fill="midnightblue" stroke="midnightblue" points="1673.99,-473.77 1682.55,-467.52 1671.96,-467.07 1673.99,-473.77"/>
</g>
<!-- Node42&#45;&gt;Node32 -->
<g id="edge64" class="edge">
<title>Node42&#45;&gt;Node32</title>
<path fill="none" stroke="midnightblue" d="M1508.38,-504.44C1482.75,-495.4 1442.13,-481.06 1413.38,-470.92"/>
<polygon fill="midnightblue" stroke="midnightblue" points="1414.34,-467.54 1403.75,-467.52 1412.01,-474.15 1414.34,-467.54"/>
</g>
<!-- Node42&#45;&gt;Node35 -->
<g id="edge68" class="edge">
<title>Node42&#45;&gt;Node35</title>
<path fill="none" stroke="midnightblue" d="M1536.91,-504.08C1540.47,-496.69 1545.64,-485.95 1550.04,-476.81"/>
<polygon fill="midnightblue" stroke="midnightblue" points="1553.22,-478.28 1554.41,-467.75 1546.91,-475.24 1553.22,-478.28"/>
</g>
<!-- Node43 -->
<g id="node43" class="node">
<title>Node43</title>
<g id="a_node43"><a xlink:href="cache_8h.html" target="_top" xlink:title=" ">
<polygon fill="white" stroke="black" points="1429.12,-280.5 1429.12,-299.5 1522.12,-299.5 1522.12,-280.5 1429.12,-280.5"/>
<text text-anchor="middle" x="1475.62" y="-287.5" font-family="FreeSans" font-size="10.00">magick/cache.h</text>
</a>
</g>
</g>
<!-- Node42&#45;&gt;Node43 -->
<g id="edge65" class="edge">
<title>Node42&#45;&gt;Node43</title>
<path fill="none" stroke="midnightblue" d="M1517.83,-504.4C1505.95,-496.58 1490.06,-483.86 1482.62,-468 1457.84,-415.2 1465.93,-343.5 1471.79,-309.87"/>
<polygon fill="midnightblue" stroke="midnightblue" points="1475.3,-310.13 1473.71,-299.66 1468.43,-308.84 1475.3,-310.13"/>
</g>
<!-- Node43&#45;&gt;Node10 -->
<g id="edge66" class="edge">
<title>Node43&#45;&gt;Node10</title>
<path fill="none" stroke="midnightblue" d="M1478.44,-280.37C1484.28,-262.54 1497.78,-221.3 1505.64,-197.27"/>
<polygon fill="midnightblue" stroke="midnightblue" points="1509.02,-198.18 1508.81,-187.59 1502.37,-196.01 1509.02,-198.18"/>
</g>
</g>
</svg>
