<?xml version="1.0" encoding="UTF-8" standalone="no"?>
<!DOCTYPE svg PUBLIC "-//W3C//DTD SVG 1.1//EN"
 "http://www.w3.org/Graphics/SVG/1.1/DTD/svg11.dtd">
<!-- Generated by graphviz version 2.43.0 (0)
 -->
<!-- Title: compare.h Pages: 1 -->
<svg width="1750pt" height="308pt"
 viewBox="0.00 0.00 1749.50 308.00" xmlns="http://www.w3.org/2000/svg" xmlns:xlink="http://www.w3.org/1999/xlink">
<g id="graph0" class="graph" transform="scale(1 1) rotate(0) translate(4 304)">
<title>compare.h</title>
<polygon fill="white" stroke="transparent" points="-4,4 -4,-304 1745.5,-304 1745.5,4 -4,4"/>
<!-- Node1 -->
<g id="node1" class="node">
<title>Node1</title>
<g id="a_node1"><a xlink:title=" ">
<polygon fill="#bfbfbf" stroke="black" points="649.5,-280.5 649.5,-299.5 717.5,-299.5 717.5,-280.5 649.5,-280.5"/>
<text text-anchor="middle" x="683.5" y="-287.5" font-family="FreeSans" font-size="10.00">compare.h</text>
</a>
</g>
</g>
<!-- Node2 -->
<g id="node2" class="node">
<title>Node2</title>
<g id="a_node2"><a xlink:href="image_8h.html" target="_top" xlink:title=" ">
<polygon fill="white" stroke="black" points="636,-224.5 636,-243.5 731,-243.5 731,-224.5 636,-224.5"/>
<text text-anchor="middle" x="683.5" y="-231.5" font-family="FreeSans" font-size="10.00">magick/image.h</text>
</a>
</g>
</g>
<!-- Node1&#45;&gt;Node2 -->
<g id="edge1" class="edge">
<title>Node1&#45;&gt;Node2</title>
<path fill="none" stroke="midnightblue" d="M683.5,-280.08C683.5,-273.01 683.5,-262.86 683.5,-253.99"/>
<polygon fill="midnightblue" stroke="midnightblue" points="687,-253.75 683.5,-243.75 680,-253.75 687,-253.75"/>
</g>
<!-- Node3 -->
<g id="node3" class="node">
<title>Node3</title>
<g id="a_node3"><a xlink:href="color_8h.html" target="_top" xlink:title=" ">
<polygon fill="white" stroke="black" points="264.5,-112.5 264.5,-131.5 352.5,-131.5 352.5,-112.5 264.5,-112.5"/>
<text text-anchor="middle" x="308.5" y="-119.5" font-family="FreeSans" font-size="10.00">magick/color.h</text>
</a>
</g>
</g>
<!-- Node2&#45;&gt;Node3 -->
<g id="edge2" class="edge">
<title>Node2&#45;&gt;Node3</title>
<path fill="none" stroke="midnightblue" d="M635.82,-231.18C556.08,-227.37 399.83,-216.43 353.5,-188 335.82,-177.15 323.33,-156.46 316.07,-141.33"/>
<polygon fill="midnightblue" stroke="midnightblue" points="319.14,-139.63 311.87,-131.93 312.75,-142.49 319.14,-139.63"/>
</g>
<!-- Node4 -->
<g id="node4" class="node">
<title>Node4</title>
<g id="a_node4"><a xlink:href="pixel_8h.html" target="_top" xlink:title=" ">
<polygon fill="white" stroke="black" points="144.5,-56.5 144.5,-75.5 232.5,-75.5 232.5,-56.5 144.5,-56.5"/>
<text text-anchor="middle" x="188.5" y="-63.5" font-family="FreeSans" font-size="10.00">magick/pixel.h</text>
</a>
</g>
</g>
<!-- Node2&#45;&gt;Node4 -->
<g id="edge25" class="edge">
<title>Node2&#45;&gt;Node4</title>
<path fill="none" stroke="midnightblue" d="M635.91,-230C552.6,-224.24 384,-210.22 329.5,-188 273.71,-165.25 224.27,-111.28 201.61,-83.76"/>
<polygon fill="midnightblue" stroke="midnightblue" points="204.22,-81.42 195.22,-75.83 198.77,-85.82 204.22,-81.42"/>
</g>
<!-- Node5 -->
<g id="node5" class="node">
<title>Node5</title>
<g id="a_node5"><a xlink:href="colorspace_8h.html" target="_top" xlink:title=" ">
<polygon fill="white" stroke="black" points="0,-0.5 0,-19.5 117,-19.5 117,-0.5 0,-0.5"/>
<text text-anchor="middle" x="58.5" y="-7.5" font-family="FreeSans" font-size="10.00">magick/colorspace.h</text>
</a>
</g>
</g>
<!-- Node2&#45;&gt;Node5 -->
<g id="edge12" class="edge">
<title>Node2&#45;&gt;Node5</title>
<path fill="none" stroke="midnightblue" d="M635.69,-232.89C499.59,-232.12 117.3,-226.52 77.5,-188 34.41,-146.3 45.72,-66.15 53.72,-29.78"/>
<polygon fill="midnightblue" stroke="midnightblue" points="57.23,-30.15 56.13,-19.61 50.42,-28.53 57.23,-30.15"/>
</g>
<!-- Node9 -->
<g id="node9" class="node">
<title>Node9</title>
<g id="a_node9"><a xlink:href="semaphore_8h.html" target="_top" xlink:title=" ">
<polygon fill="white" stroke="black" points="437,-0.5 437,-19.5 556,-19.5 556,-0.5 437,-0.5"/>
<text text-anchor="middle" x="496.5" y="-7.5" font-family="FreeSans" font-size="10.00">magick/semaphore.h</text>
</a>
</g>
</g>
<!-- Node2&#45;&gt;Node9 -->
<g id="edge38" class="edge">
<title>Node2&#45;&gt;Node9</title>
<path fill="none" stroke="midnightblue" d="M635.75,-227.33C588.81,-220.68 521.87,-207.96 505.5,-188 467.82,-142.06 481.86,-64.72 491.04,-29.49"/>
<polygon fill="midnightblue" stroke="midnightblue" points="494.48,-30.19 493.78,-19.62 487.73,-28.32 494.48,-30.19"/>
</g>
<!-- Node10 -->
<g id="node10" class="node">
<title>Node10</title>
<g id="a_node10"><a xlink:href="blob_8h.html" target="_top" xlink:title=" ">
<polygon fill="white" stroke="black" points="640.5,-168.5 640.5,-187.5 726.5,-187.5 726.5,-168.5 640.5,-168.5"/>
<text text-anchor="middle" x="683.5" y="-175.5" font-family="FreeSans" font-size="10.00">magick/blob.h</text>
</a>
</g>
</g>
<!-- Node2&#45;&gt;Node10 -->
<g id="edge9" class="edge">
<title>Node2&#45;&gt;Node10</title>
<path fill="none" stroke="midnightblue" d="M678.33,-224.08C676.82,-216.93 676.39,-206.64 677.04,-197.69"/>
<polygon fill="midnightblue" stroke="midnightblue" points="680.52,-198.13 678.37,-187.75 673.58,-197.2 680.52,-198.13"/>
</g>
<!-- Node11 -->
<g id="node11" class="node">
<title>Node11</title>
<g id="a_node11"><a xlink:href="stream_8h.html" target="_top" xlink:title=" ">
<polygon fill="white" stroke="black" points="671,-112.5 671,-131.5 770,-131.5 770,-112.5 671,-112.5"/>
<text text-anchor="middle" x="720.5" y="-119.5" font-family="FreeSans" font-size="10.00">magick/stream.h</text>
</a>
</g>
</g>
<!-- Node2&#45;&gt;Node11 -->
<g id="edge39" class="edge">
<title>Node2&#45;&gt;Node11</title>
<path fill="none" stroke="midnightblue" d="M699.28,-224.47C711.7,-216.77 728.11,-204.18 735.5,-188 742.41,-172.89 736.86,-154.31 730.66,-140.89"/>
<polygon fill="midnightblue" stroke="midnightblue" points="733.66,-139.07 725.97,-131.77 727.43,-142.27 733.66,-139.07"/>
</g>
<!-- Node12 -->
<g id="node12" class="node">
<title>Node12</title>
<g id="a_node12"><a xlink:href="cache-view_8h.html" target="_top" xlink:title=" ">
<polygon fill="white" stroke="black" points="89,-112.5 89,-131.5 208,-131.5 208,-112.5 89,-112.5"/>
<text text-anchor="middle" x="148.5" y="-119.5" font-family="FreeSans" font-size="10.00">magick/cache&#45;view.h</text>
</a>
</g>
</g>
<!-- Node2&#45;&gt;Node12 -->
<g id="edge13" class="edge">
<title>Node2&#45;&gt;Node12</title>
<path fill="none" stroke="midnightblue" d="M635.7,-230.88C538.04,-226.1 318.92,-212.89 248.5,-188 216.67,-176.75 184.83,-153.47 165.89,-138.04"/>
<polygon fill="midnightblue" stroke="midnightblue" points="168.07,-135.3 158.15,-131.58 163.58,-140.67 168.07,-135.3"/>
</g>
<!-- Node13 -->
<g id="node13" class="node">
<title>Node13</title>
<g id="a_node13"><a xlink:href="composite_8h.html" target="_top" xlink:title=" ">
<polygon fill="white" stroke="black" points="782.5,-168.5 782.5,-187.5 898.5,-187.5 898.5,-168.5 782.5,-168.5"/>
<text text-anchor="middle" x="840.5" y="-175.5" font-family="FreeSans" font-size="10.00">magick/composite.h</text>
</a>
</g>
</g>
<!-- Node2&#45;&gt;Node13 -->
<g id="edge15" class="edge">
<title>Node2&#45;&gt;Node13</title>
<path fill="none" stroke="midnightblue" d="M708.38,-224.44C734.79,-215.36 776.72,-200.94 806.24,-190.78"/>
<polygon fill="midnightblue" stroke="midnightblue" points="807.42,-194.08 815.74,-187.52 805.14,-187.46 807.42,-194.08"/>
</g>
<!-- Node14 -->
<g id="node14" class="node">
<title>Node14</title>
<g id="a_node14"><a xlink:href="compress_8h.html" target="_top" xlink:title=" ">
<polygon fill="white" stroke="black" points="916.5,-168.5 916.5,-187.5 1028.5,-187.5 1028.5,-168.5 916.5,-168.5"/>
<text text-anchor="middle" x="972.5" y="-175.5" font-family="FreeSans" font-size="10.00">magick/compress.h</text>
</a>
</g>
</g>
<!-- Node2&#45;&gt;Node14 -->
<g id="edge16" class="edge">
<title>Node2&#45;&gt;Node14</title>
<path fill="none" stroke="midnightblue" d="M729.29,-224.44C780.24,-214.92 862.53,-199.55 917.07,-189.36"/>
<polygon fill="midnightblue" stroke="midnightblue" points="917.73,-192.79 926.92,-187.52 916.45,-185.91 917.73,-192.79"/>
</g>
<!-- Node15 -->
<g id="node15" class="node">
<title>Node15</title>
<g id="a_node15"><a xlink:href="effect_8h.html" target="_top" xlink:title=" ">
<polygon fill="white" stroke="black" points="1084.5,-168.5 1084.5,-187.5 1176.5,-187.5 1176.5,-168.5 1084.5,-168.5"/>
<text text-anchor="middle" x="1130.5" y="-175.5" font-family="FreeSans" font-size="10.00">magick/effect.h</text>
</a>
</g>
</g>
<!-- Node2&#45;&gt;Node15 -->
<g id="edge17" class="edge">
<title>Node2&#45;&gt;Node15</title>
<path fill="none" stroke="midnightblue" d="M731.23,-227.97C804.35,-220.13 948.47,-204.24 1070.5,-188 1071.76,-187.83 1073.04,-187.66 1074.33,-187.48"/>
<polygon fill="midnightblue" stroke="midnightblue" points="1074.92,-190.94 1084.33,-186.08 1073.95,-184 1074.92,-190.94"/>
</g>
<!-- Node17 -->
<g id="node17" class="node">
<title>Node17</title>
<g id="a_node17"><a xlink:href="geometry_8h.html" target="_top" xlink:title=" ">
<polygon fill="white" stroke="black" points="1045.5,-56.5 1045.5,-75.5 1155.5,-75.5 1155.5,-56.5 1045.5,-56.5"/>
<text text-anchor="middle" x="1100.5" y="-63.5" font-family="FreeSans" font-size="10.00">magick/geometry.h</text>
</a>
</g>
</g>
<!-- Node2&#45;&gt;Node17 -->
<g id="edge20" class="edge">
<title>Node2&#45;&gt;Node17</title>
<path fill="none" stroke="midnightblue" d="M731.04,-232.39C815.94,-230.43 989.24,-222.22 1037.5,-188 1068.31,-166.16 1057.88,-145.4 1075.5,-112 1080.35,-102.8 1085.97,-92.65 1090.64,-84.33"/>
<polygon fill="midnightblue" stroke="midnightblue" points="1093.72,-85.99 1095.6,-75.57 1087.63,-82.55 1093.72,-85.99"/>
</g>
<!-- Node18 -->
<g id="node18" class="node">
<title>Node18</title>
<g id="a_node18"><a xlink:href="layer_8h.html" target="_top" xlink:title=" ">
<polygon fill="white" stroke="black" points="1195,-168.5 1195,-187.5 1284,-187.5 1284,-168.5 1195,-168.5"/>
<text text-anchor="middle" x="1239.5" y="-175.5" font-family="FreeSans" font-size="10.00">magick/layer.h</text>
</a>
</g>
</g>
<!-- Node2&#45;&gt;Node18 -->
<g id="edge21" class="edge">
<title>Node2&#45;&gt;Node18</title>
<path fill="none" stroke="midnightblue" d="M731.04,-229.94C818.62,-224.05 1011.54,-209.85 1184.69,-188.01"/>
<polygon fill="midnightblue" stroke="midnightblue" points="1185.27,-191.46 1194.75,-186.73 1184.39,-184.52 1185.27,-191.46"/>
</g>
<!-- Node19 -->
<g id="node19" class="node">
<title>Node19</title>
<g id="a_node19"><a xlink:href="locale___8h.html" target="_top" xlink:title=" ">
<polygon fill="white" stroke="black" points="1302,-168.5 1302,-187.5 1401,-187.5 1401,-168.5 1302,-168.5"/>
<text text-anchor="middle" x="1351.5" y="-175.5" font-family="FreeSans" font-size="10.00">magick/locale_.h</text>
</a>
</g>
</g>
<!-- Node2&#45;&gt;Node19 -->
<g id="edge22" class="edge">
<title>Node2&#45;&gt;Node19</title>
<path fill="none" stroke="midnightblue" d="M731.08,-230.79C832.33,-225.82 1076.81,-212.3 1291.65,-188.13"/>
<polygon fill="midnightblue" stroke="midnightblue" points="1292.32,-191.58 1301.86,-186.97 1291.53,-184.62 1292.32,-191.58"/>
</g>
<!-- Node21 -->
<g id="node21" class="node">
<title>Node21</title>
<g id="a_node21"><a xlink:href="monitor_8h.html" target="_top" xlink:title=" ">
<polygon fill="white" stroke="black" points="1419.5,-168.5 1419.5,-187.5 1521.5,-187.5 1521.5,-168.5 1419.5,-168.5"/>
<text text-anchor="middle" x="1470.5" y="-175.5" font-family="FreeSans" font-size="10.00">magick/monitor.h</text>
</a>
</g>
</g>
<!-- Node2&#45;&gt;Node21 -->
<g id="edge24" class="edge">
<title>Node2&#45;&gt;Node21</title>
<path fill="none" stroke="midnightblue" d="M731.25,-231.48C846.18,-227.52 1147.44,-215.31 1409.39,-188.02"/>
<polygon fill="midnightblue" stroke="midnightblue" points="1409.9,-191.49 1419.48,-186.96 1409.16,-184.53 1409.9,-191.49"/>
</g>
<!-- Node22 -->
<g id="node22" class="node">
<title>Node22</title>
<g id="a_node22"><a xlink:href="profile_8h.html" target="_top" xlink:title=" ">
<polygon fill="white" stroke="black" points="363,-168.5 363,-187.5 458,-187.5 458,-168.5 363,-168.5"/>
<text text-anchor="middle" x="410.5" y="-175.5" font-family="FreeSans" font-size="10.00">magick/profile.h</text>
</a>
</g>
</g>
<!-- Node2&#45;&gt;Node22 -->
<g id="edge26" class="edge">
<title>Node2&#45;&gt;Node22</title>
<path fill="none" stroke="midnightblue" d="M640.24,-224.44C592.32,-214.96 515.02,-199.67 463.5,-189.48"/>
<polygon fill="midnightblue" stroke="midnightblue" points="464.04,-186.02 453.56,-187.52 462.69,-192.89 464.04,-186.02"/>
</g>
<!-- Node25 -->
<g id="node25" class="node">
<title>Node25</title>
<g id="a_node25"><a xlink:href="quantum_8h.html" target="_top" xlink:title=" ">
<polygon fill="white" stroke="black" points="514.5,-168.5 514.5,-187.5 622.5,-187.5 622.5,-168.5 514.5,-168.5"/>
<text text-anchor="middle" x="568.5" y="-175.5" font-family="FreeSans" font-size="10.00">magick/quantum.h</text>
</a>
</g>
</g>
<!-- Node2&#45;&gt;Node25 -->
<g id="edge31" class="edge">
<title>Node2&#45;&gt;Node25</title>
<path fill="none" stroke="midnightblue" d="M660.19,-224.44C639.78,-215.75 610.61,-202.18 590.58,-192.13"/>
<polygon fill="midnightblue" stroke="midnightblue" points="592.05,-188.95 581.56,-187.52 588.87,-195.19 592.05,-188.95"/>
</g>
<!-- Node27 -->
<g id="node27" class="node">
<title>Node27</title>
<g id="a_node27"><a xlink:href="resample_8h.html" target="_top" xlink:title=" ">
<polygon fill="white" stroke="black" points="86.5,-168.5 86.5,-187.5 196.5,-187.5 196.5,-168.5 86.5,-168.5"/>
<text text-anchor="middle" x="141.5" y="-175.5" font-family="FreeSans" font-size="10.00">magick/resample.h</text>
</a>
</g>
</g>
<!-- Node2&#45;&gt;Node27 -->
<g id="edge35" class="edge">
<title>Node2&#45;&gt;Node27</title>
<path fill="none" stroke="midnightblue" d="M635.78,-229.01C550.38,-221.76 365.83,-205.51 210.5,-188 209.39,-187.87 208.27,-187.75 207.14,-187.62"/>
<polygon fill="midnightblue" stroke="midnightblue" points="207.18,-184.1 196.84,-186.39 206.36,-191.05 207.18,-184.1"/>
</g>
<!-- Node28 -->
<g id="node28" class="node">
<title>Node28</title>
<g id="a_node28"><a xlink:href="resize_8h.html" target="_top" xlink:title=" ">
<polygon fill="white" stroke="black" points="1539.5,-168.5 1539.5,-187.5 1633.5,-187.5 1633.5,-168.5 1539.5,-168.5"/>
<text text-anchor="middle" x="1586.5" y="-175.5" font-family="FreeSans" font-size="10.00">magick/resize.h</text>
</a>
</g>
</g>
<!-- Node2&#45;&gt;Node28 -->
<g id="edge37" class="edge">
<title>Node2&#45;&gt;Node28</title>
<path fill="none" stroke="midnightblue" d="M731.4,-232.24C859.29,-229.82 1219.55,-220.52 1529.42,-187.99"/>
<polygon fill="midnightblue" stroke="midnightblue" points="1529.92,-191.46 1539.49,-186.93 1529.18,-184.5 1529.92,-191.46"/>
</g>
<!-- Node29 -->
<g id="node29" class="node">
<title>Node29</title>
<g id="a_node29"><a xlink:href="timer_8h.html" target="_top" xlink:title=" ">
<polygon fill="white" stroke="black" points="1651.5,-168.5 1651.5,-187.5 1741.5,-187.5 1741.5,-168.5 1651.5,-168.5"/>
<text text-anchor="middle" x="1696.5" y="-175.5" font-family="FreeSans" font-size="10.00">magick/timer.h</text>
</a>
</g>
</g>
<!-- Node2&#45;&gt;Node29 -->
<g id="edge40" class="edge">
<title>Node2&#45;&gt;Node29</title>
<path fill="none" stroke="midnightblue" d="M731.05,-232.76C869.79,-231.62 1286.21,-225.2 1641.51,-187.97"/>
<polygon fill="midnightblue" stroke="midnightblue" points="1641.9,-191.45 1651.47,-186.91 1641.16,-184.49 1641.9,-191.45"/>
</g>
<!-- Node3&#45;&gt;Node4 -->
<g id="edge3" class="edge">
<title>Node3&#45;&gt;Node4</title>
<path fill="none" stroke="midnightblue" d="M289.49,-112.44C269.91,-103.64 239.19,-89.81 216.77,-79.72"/>
<polygon fill="midnightblue" stroke="midnightblue" points="217.98,-76.43 207.43,-75.52 215.11,-82.81 217.98,-76.43"/>
</g>
<!-- Node7 -->
<g id="node7" class="node">
<title>Node7</title>
<g id="a_node7"><a xlink:href="exception_8h.html" target="_top" xlink:title=" ">
<polygon fill="white" stroke="black" points="251,-56.5 251,-75.5 364,-75.5 364,-56.5 251,-56.5"/>
<text text-anchor="middle" x="307.5" y="-63.5" font-family="FreeSans" font-size="10.00">magick/exception.h</text>
</a>
</g>
</g>
<!-- Node3&#45;&gt;Node7 -->
<g id="edge6" class="edge">
<title>Node3&#45;&gt;Node7</title>
<path fill="none" stroke="midnightblue" d="M308.33,-112.08C308.2,-105.01 308.02,-94.86 307.85,-85.99"/>
<polygon fill="midnightblue" stroke="midnightblue" points="311.35,-85.68 307.66,-75.75 304.35,-85.81 311.35,-85.68"/>
</g>
<!-- Node4&#45;&gt;Node5 -->
<g id="edge4" class="edge">
<title>Node4&#45;&gt;Node5</title>
<path fill="none" stroke="midnightblue" d="M167.9,-56.44C146.51,-47.56 112.82,-33.56 88.48,-23.45"/>
<polygon fill="midnightblue" stroke="midnightblue" points="89.58,-20.12 79,-19.52 86.89,-26.58 89.58,-20.12"/>
</g>
<!-- Node6 -->
<g id="node6" class="node">
<title>Node6</title>
<g id="a_node6"><a xlink:href="constitute_8h.html" target="_top" xlink:title=" ">
<polygon fill="white" stroke="black" points="135,-0.5 135,-19.5 248,-19.5 248,-0.5 135,-0.5"/>
<text text-anchor="middle" x="191.5" y="-7.5" font-family="FreeSans" font-size="10.00">magick/constitute.h</text>
</a>
</g>
</g>
<!-- Node4&#45;&gt;Node6 -->
<g id="edge5" class="edge">
<title>Node4&#45;&gt;Node6</title>
<path fill="none" stroke="midnightblue" d="M189,-56.08C189.39,-49.01 189.95,-38.86 190.45,-29.99"/>
<polygon fill="midnightblue" stroke="midnightblue" points="193.95,-29.93 191.01,-19.75 186.96,-29.54 193.95,-29.93"/>
</g>
<!-- Node8 -->
<g id="node8" class="node">
<title>Node8</title>
<g id="a_node8"><a xlink:title=" ">
<polygon fill="white" stroke="#bfbfbf" points="320.5,-0.5 320.5,-19.5 376.5,-19.5 376.5,-0.5 320.5,-0.5"/>
<text text-anchor="middle" x="348.5" y="-7.5" font-family="FreeSans" font-size="10.00">stdarg.h</text>
</a>
</g>
</g>
<!-- Node7&#45;&gt;Node8 -->
<g id="edge7" class="edge">
<title>Node7&#45;&gt;Node8</title>
<path fill="none" stroke="midnightblue" d="M314.27,-56.08C320.06,-48.46 328.56,-37.26 335.64,-27.94"/>
<polygon fill="midnightblue" stroke="midnightblue" points="338.6,-29.83 341.86,-19.75 333.02,-25.6 338.6,-29.83"/>
</g>
<!-- Node7&#45;&gt;Node9 -->
<g id="edge8" class="edge">
<title>Node7&#45;&gt;Node9</title>
<path fill="none" stroke="midnightblue" d="M337.45,-56.44C369.66,-47.24 421.03,-32.56 456.64,-22.39"/>
<polygon fill="midnightblue" stroke="midnightblue" points="458.04,-25.63 466.69,-19.52 456.12,-18.9 458.04,-25.63"/>
</g>
<!-- Node10&#45;&gt;Node2 -->
<g id="edge10" class="edge">
<title>Node10&#45;&gt;Node2</title>
<path fill="none" stroke="midnightblue" d="M688.63,-187.75C690.16,-194.86 690.6,-205.14 689.97,-214.1"/>
<polygon fill="midnightblue" stroke="midnightblue" points="686.49,-213.71 688.67,-224.08 693.43,-214.62 686.49,-213.71"/>
</g>
<!-- Node10&#45;&gt;Node11 -->
<g id="edge11" class="edge">
<title>Node10&#45;&gt;Node11</title>
<path fill="none" stroke="midnightblue" d="M689.61,-168.08C694.78,-160.53 702.35,-149.49 708.69,-140.23"/>
<polygon fill="midnightblue" stroke="midnightblue" points="711.74,-141.98 714.5,-131.75 705.96,-138.02 711.74,-141.98"/>
</g>
<!-- Node12&#45;&gt;Node4 -->
<g id="edge14" class="edge">
<title>Node12&#45;&gt;Node4</title>
<path fill="none" stroke="midnightblue" d="M155.11,-112.08C160.76,-104.46 169.04,-93.26 175.95,-83.94"/>
<polygon fill="midnightblue" stroke="midnightblue" points="178.88,-85.87 182.02,-75.75 173.25,-81.7 178.88,-85.87"/>
</g>
<!-- Node16 -->
<g id="node16" class="node">
<title>Node16</title>
<g id="a_node16"><a xlink:href="morphology_8h.html" target="_top" xlink:title=" ">
<polygon fill="white" stroke="black" points="1084.5,-112.5 1084.5,-131.5 1206.5,-131.5 1206.5,-112.5 1084.5,-112.5"/>
<text text-anchor="middle" x="1145.5" y="-119.5" font-family="FreeSans" font-size="10.00">magick/morphology.h</text>
</a>
</g>
</g>
<!-- Node15&#45;&gt;Node16 -->
<g id="edge18" class="edge">
<title>Node15&#45;&gt;Node16</title>
<path fill="none" stroke="midnightblue" d="M1132.98,-168.08C1134.99,-160.85 1137.89,-150.41 1140.39,-141.4"/>
<polygon fill="midnightblue" stroke="midnightblue" points="1143.76,-142.32 1143.07,-131.75 1137.02,-140.45 1143.76,-142.32"/>
</g>
<!-- Node16&#45;&gt;Node17 -->
<g id="edge19" class="edge">
<title>Node16&#45;&gt;Node17</title>
<path fill="none" stroke="midnightblue" d="M1138.07,-112.08C1131.65,-104.38 1122.19,-93.03 1114.38,-83.65"/>
<polygon fill="midnightblue" stroke="midnightblue" points="1116.88,-81.19 1107.79,-75.75 1111.51,-85.67 1116.88,-81.19"/>
</g>
<!-- Node20 -->
<g id="node20" class="node">
<title>Node20</title>
<g id="a_node20"><a xlink:href="hashmap_8h.html" target="_top" xlink:title=" ">
<polygon fill="white" stroke="black" points="1296.5,-112.5 1296.5,-131.5 1406.5,-131.5 1406.5,-112.5 1296.5,-112.5"/>
<text text-anchor="middle" x="1351.5" y="-119.5" font-family="FreeSans" font-size="10.00">magick/hashmap.h</text>
</a>
</g>
</g>
<!-- Node19&#45;&gt;Node20 -->
<g id="edge23" class="edge">
<title>Node19&#45;&gt;Node20</title>
<path fill="none" stroke="midnightblue" d="M1351.5,-168.08C1351.5,-161.01 1351.5,-150.86 1351.5,-141.99"/>
<polygon fill="midnightblue" stroke="midnightblue" points="1355,-141.75 1351.5,-131.75 1348,-141.75 1355,-141.75"/>
</g>
<!-- Node23 -->
<g id="node23" class="node">
<title>Node23</title>
<g id="a_node23"><a xlink:href="string___8h.html" target="_top" xlink:title=" ">
<polygon fill="white" stroke="black" points="370.5,-112.5 370.5,-131.5 468.5,-131.5 468.5,-112.5 370.5,-112.5"/>
<text text-anchor="middle" x="419.5" y="-119.5" font-family="FreeSans" font-size="10.00">magick/string_.h</text>
</a>
</g>
</g>
<!-- Node22&#45;&gt;Node23 -->
<g id="edge27" class="edge">
<title>Node22&#45;&gt;Node23</title>
<path fill="none" stroke="midnightblue" d="M411.99,-168.08C413.18,-160.93 414.89,-150.64 416.38,-141.69"/>
<polygon fill="midnightblue" stroke="midnightblue" points="419.85,-142.19 418.04,-131.75 412.95,-141.04 419.85,-142.19"/>
</g>
<!-- Node23&#45;&gt;Node7 -->
<g id="edge30" class="edge">
<title>Node23&#45;&gt;Node7</title>
<path fill="none" stroke="midnightblue" d="M401.51,-112.32C383.46,-103.62 355.45,-90.12 334.7,-80.11"/>
<polygon fill="midnightblue" stroke="midnightblue" points="335.98,-76.84 325.45,-75.65 332.94,-83.15 335.98,-76.84"/>
</g>
<!-- Node23&#45;&gt;Node8 -->
<g id="edge28" class="edge">
<title>Node23&#45;&gt;Node8</title>
<path fill="none" stroke="midnightblue" d="M413.93,-112.37C402.26,-94.3 375.08,-52.18 359.67,-28.31"/>
<polygon fill="midnightblue" stroke="midnightblue" points="362.41,-26.1 354.05,-19.59 356.53,-29.89 362.41,-26.1"/>
</g>
<!-- Node24 -->
<g id="node24" class="node">
<title>Node24</title>
<g id="a_node24"><a xlink:title=" ">
<polygon fill="white" stroke="#bfbfbf" points="420.5,-56.5 420.5,-75.5 468.5,-75.5 468.5,-56.5 420.5,-56.5"/>
<text text-anchor="middle" x="444.5" y="-63.5" font-family="FreeSans" font-size="10.00">time.h</text>
</a>
</g>
</g>
<!-- Node23&#45;&gt;Node24 -->
<g id="edge29" class="edge">
<title>Node23&#45;&gt;Node24</title>
<path fill="none" stroke="midnightblue" d="M423.63,-112.08C427.01,-104.77 431.92,-94.18 436.12,-85.1"/>
<polygon fill="midnightblue" stroke="midnightblue" points="439.42,-86.3 440.45,-75.75 433.07,-83.36 439.42,-86.3"/>
</g>
<!-- Node25&#45;&gt;Node2 -->
<g id="edge33" class="edge">
<title>Node25&#45;&gt;Node2</title>
<path fill="none" stroke="midnightblue" d="M592.04,-187.65C612.34,-196.31 641.19,-209.73 661.14,-219.73"/>
<polygon fill="midnightblue" stroke="midnightblue" points="659.64,-222.89 670.14,-224.32 662.82,-216.66 659.64,-222.89"/>
</g>
<!-- Node25&#45;&gt;Node9 -->
<g id="edge34" class="edge">
<title>Node25&#45;&gt;Node9</title>
<path fill="none" stroke="midnightblue" d="M564.63,-168.08C553.25,-141.83 519.72,-64.55 504.36,-29.12"/>
<polygon fill="midnightblue" stroke="midnightblue" points="507.41,-27.35 500.22,-19.57 500.98,-30.14 507.41,-27.35"/>
</g>
<!-- Node26 -->
<g id="node26" class="node">
<title>Node26</title>
<g id="a_node26"><a xlink:title=" ">
<polygon fill="white" stroke="#bfbfbf" points="563,-112.5 563,-131.5 610,-131.5 610,-112.5 563,-112.5"/>
<text text-anchor="middle" x="586.5" y="-119.5" font-family="FreeSans" font-size="10.00">float.h</text>
</a>
</g>
</g>
<!-- Node25&#45;&gt;Node26 -->
<g id="edge32" class="edge">
<title>Node25&#45;&gt;Node26</title>
<path fill="none" stroke="midnightblue" d="M571.47,-168.08C573.88,-160.85 577.36,-150.41 580.37,-141.4"/>
<polygon fill="midnightblue" stroke="midnightblue" points="583.74,-142.34 583.58,-131.75 577.1,-140.13 583.74,-142.34"/>
</g>
<!-- Node27&#45;&gt;Node12 -->
<g id="edge36" class="edge">
<title>Node27&#45;&gt;Node12</title>
<path fill="none" stroke="midnightblue" d="M142.66,-168.08C143.58,-160.93 144.92,-150.64 146.08,-141.69"/>
<polygon fill="midnightblue" stroke="midnightblue" points="149.55,-142.12 147.37,-131.75 142.61,-141.22 149.55,-142.12"/>
</g>
</g>
</svg>
