<?xml version="1.0" encoding="UTF-8" standalone="no"?>
<!DOCTYPE svg PUBLIC "-//W3C//DTD SVG 1.1//EN"
 "http://www.w3.org/Graphics/SVG/1.1/DTD/svg11.dtd">
<!-- Generated by graphviz version 2.43.0 (0)
 -->
<!-- Title: configure.c Pages: 1 -->
<svg width="2942pt" height="308pt"
 viewBox="0.00 0.00 2941.50 308.00" xmlns="http://www.w3.org/2000/svg" xmlns:xlink="http://www.w3.org/1999/xlink">
<g id="graph0" class="graph" transform="scale(1 1) rotate(0) translate(4 304)">
<title>configure.c</title>
<polygon fill="white" stroke="transparent" points="-4,4 -4,-304 2937.5,-304 2937.5,4 -4,4"/>
<!-- Node1 -->
<g id="node1" class="node">
<title>Node1</title>
<g id="a_node1"><a xlink:title=" ">
<polygon fill="#bfbfbf" stroke="black" points="2085,-280.5 2085,-299.5 2155,-299.5 2155,-280.5 2085,-280.5"/>
<text text-anchor="middle" x="2120" y="-287.5" font-family="FreeSans" font-size="10.00">configure.c</text>
</a>
</g>
</g>
<!-- Node2 -->
<g id="node2" class="node">
<title>Node2</title>
<g id="a_node2"><a xlink:href="studio_8h.html" target="_top" xlink:title=" ">
<polygon fill="white" stroke="black" points="884.5,-224.5 884.5,-243.5 979.5,-243.5 979.5,-224.5 884.5,-224.5"/>
<text text-anchor="middle" x="932" y="-231.5" font-family="FreeSans" font-size="10.00">magick/studio.h</text>
</a>
</g>
</g>
<!-- Node1&#45;&gt;Node2 -->
<g id="edge1" class="edge">
<title>Node1&#45;&gt;Node2</title>
<path fill="none" stroke="midnightblue" d="M2084.77,-287.4C1917.09,-279.78 1199.4,-247.15 989.73,-237.62"/>
<polygon fill="midnightblue" stroke="midnightblue" points="989.7,-234.12 979.55,-237.16 989.38,-241.11 989.7,-234.12"/>
</g>
<!-- Node24 -->
<g id="node24" class="node">
<title>Node24</title>
<g id="a_node24"><a xlink:href="blob_8h.html" target="_top" xlink:title=" ">
<polygon fill="white" stroke="black" points="1608,-224.5 1608,-243.5 1694,-243.5 1694,-224.5 1608,-224.5"/>
<text text-anchor="middle" x="1651" y="-231.5" font-family="FreeSans" font-size="10.00">magick/blob.h</text>
</a>
</g>
</g>
<!-- Node1&#45;&gt;Node24 -->
<g id="edge24" class="edge">
<title>Node1&#45;&gt;Node24</title>
<path fill="none" stroke="midnightblue" d="M2084.77,-285.01C2015.98,-277.22 1858.99,-259.37 1727,-244 1719.57,-243.13 1711.73,-242.21 1704.02,-241.3"/>
<polygon fill="midnightblue" stroke="midnightblue" points="1704.34,-237.82 1694,-240.12 1703.52,-244.77 1704.34,-237.82"/>
</g>
<!-- Node30 -->
<g id="node27" class="node">
<title>Node30</title>
<g id="a_node27"><a xlink:href="exception_8h.html" target="_top" xlink:title=" ">
<polygon fill="white" stroke="black" points="2109.5,-56.5 2109.5,-75.5 2222.5,-75.5 2222.5,-56.5 2109.5,-56.5"/>
<text text-anchor="middle" x="2166" y="-63.5" font-family="FreeSans" font-size="10.00">magick/exception.h</text>
</a>
</g>
</g>
<!-- Node1&#45;&gt;Node30 -->
<g id="edge41" class="edge">
<title>Node1&#45;&gt;Node30</title>
<path fill="none" stroke="midnightblue" d="M2090.12,-280.39C2072.46,-273.59 2051.55,-262.15 2041,-244 2036.53,-236.31 2038.84,-232.62 2041,-224 2047.87,-196.61 2053.86,-190.44 2071,-168 2085.12,-149.51 2092.87,-148.76 2109,-132 2124.37,-116.03 2140.97,-96.86 2152.27,-83.49"/>
<polygon fill="midnightblue" stroke="midnightblue" points="2155.11,-85.55 2158.86,-75.64 2149.75,-81.05 2155.11,-85.55"/>
</g>
<!-- Node31 -->
<g id="node28" class="node">
<title>Node31</title>
<g id="a_node28"><a xlink:href="semaphore_8h.html" target="_top" xlink:title=" ">
<polygon fill="white" stroke="black" points="1951.5,-0.5 1951.5,-19.5 2070.5,-19.5 2070.5,-0.5 1951.5,-0.5"/>
<text text-anchor="middle" x="2011" y="-7.5" font-family="FreeSans" font-size="10.00">magick/semaphore.h</text>
</a>
</g>
</g>
<!-- Node1&#45;&gt;Node31 -->
<g id="edge66" class="edge">
<title>Node1&#45;&gt;Node31</title>
<path fill="none" stroke="midnightblue" d="M2084.97,-289.08C1809.33,-289.48 0,-287.95 0,-179 0,-179 0,-179 0,-121 0,-63.06 57.21,-71.61 113,-56 202.52,-30.95 1608.41,-15.1 1940.9,-11.69"/>
<polygon fill="midnightblue" stroke="midnightblue" points="1941.39,-15.19 1951.35,-11.59 1941.32,-8.19 1941.39,-15.19"/>
</g>
<!-- Node50 -->
<g id="node34" class="node">
<title>Node50</title>
<g id="a_node34"><a xlink:href="client_8h.html" target="_top" xlink:title=" ">
<polygon fill="white" stroke="black" points="1736,-224.5 1736,-243.5 1828,-243.5 1828,-224.5 1736,-224.5"/>
<text text-anchor="middle" x="1782" y="-231.5" font-family="FreeSans" font-size="10.00">magick/client.h</text>
</a>
</g>
</g>
<!-- Node1&#45;&gt;Node50 -->
<g id="edge38" class="edge">
<title>Node1&#45;&gt;Node50</title>
<path fill="none" stroke="midnightblue" d="M2084.78,-283.37C2026.2,-274.01 1908.26,-255.17 1838.12,-243.97"/>
<polygon fill="midnightblue" stroke="midnightblue" points="1838.55,-240.49 1828.13,-242.37 1837.45,-247.4 1838.55,-240.49"/>
</g>
<!-- Node51 -->
<g id="node35" class="node">
<title>Node51</title>
<g id="a_node35"><a xlink:href="configure_8h.html" target="_top" xlink:title=" ">
<polygon fill="white" stroke="black" points="1884,-224.5 1884,-243.5 1994,-243.5 1994,-224.5 1884,-224.5"/>
<text text-anchor="middle" x="1939" y="-231.5" font-family="FreeSans" font-size="10.00">magick/configure.h</text>
</a>
</g>
</g>
<!-- Node1&#45;&gt;Node51 -->
<g id="edge39" class="edge">
<title>Node1&#45;&gt;Node51</title>
<path fill="none" stroke="midnightblue" d="M2091.32,-280.44C2060.47,-271.24 2011.27,-256.56 1977.17,-246.39"/>
<polygon fill="midnightblue" stroke="midnightblue" points="1978.13,-243.02 1967.55,-243.52 1976.13,-249.73 1978.13,-243.02"/>
</g>
<!-- Node40 -->
<g id="node36" class="node">
<title>Node40</title>
<g id="a_node36"><a xlink:href="hashmap_8h.html" target="_top" xlink:title=" ">
<polygon fill="white" stroke="black" points="1824,-168.5 1824,-187.5 1934,-187.5 1934,-168.5 1824,-168.5"/>
<text text-anchor="middle" x="1879" y="-175.5" font-family="FreeSans" font-size="10.00">magick/hashmap.h</text>
</a>
</g>
</g>
<!-- Node1&#45;&gt;Node40 -->
<g id="edge53" class="edge">
<title>Node1&#45;&gt;Node40</title>
<path fill="none" stroke="midnightblue" d="M2084.79,-287.86C2023.52,-285.06 1901.3,-275.57 1875,-244 1864.39,-231.26 1867.25,-211.79 1871.62,-197.48"/>
<polygon fill="midnightblue" stroke="midnightblue" points="1875.03,-198.33 1875.07,-187.74 1868.43,-196 1875.03,-198.33"/>
</g>
<!-- Node52 -->
<g id="node37" class="node">
<title>Node52</title>
<g id="a_node37"><a xlink:href="exception-private_8h.html" target="_top" xlink:title=" ">
<polygon fill="white" stroke="black" points="2460.5,-168.5 2460.5,-187.5 2611.5,-187.5 2611.5,-168.5 2460.5,-168.5"/>
<text text-anchor="middle" x="2536" y="-175.5" font-family="FreeSans" font-size="10.00">magick/exception&#45;private.h</text>
</a>
</g>
</g>
<!-- Node1&#45;&gt;Node52 -->
<g id="edge42" class="edge">
<title>Node1&#45;&gt;Node52</title>
<path fill="none" stroke="midnightblue" d="M2155.36,-285.1C2202.45,-279.28 2287.94,-266.53 2358,-244 2378.07,-237.55 2381.42,-231.79 2401,-224 2433.1,-211.23 2470.41,-198.99 2497.66,-190.5"/>
<polygon fill="midnightblue" stroke="midnightblue" points="2498.69,-193.85 2507.22,-187.55 2496.63,-187.16 2498.69,-193.85"/>
</g>
<!-- Node53 -->
<g id="node38" class="node">
<title>Node53</title>
<g id="a_node38"><a xlink:href="log_8h.html" target="_top" xlink:title=" ">
<polygon fill="white" stroke="black" points="2496,-112.5 2496,-131.5 2576,-131.5 2576,-112.5 2496,-112.5"/>
<text text-anchor="middle" x="2536" y="-119.5" font-family="FreeSans" font-size="10.00">magick/log.h</text>
</a>
</g>
</g>
<!-- Node1&#45;&gt;Node53 -->
<g id="edge54" class="edge">
<title>Node1&#45;&gt;Node53</title>
<path fill="none" stroke="midnightblue" d="M2155.2,-289.17C2280.7,-289.43 2700.97,-287.04 2741,-244 2793.19,-187.89 2662.23,-149.58 2586.05,-132.72"/>
<polygon fill="midnightblue" stroke="midnightblue" points="2586.66,-129.27 2576.14,-130.58 2585.18,-136.12 2586.66,-129.27"/>
</g>
<!-- Node43 -->
<g id="node40" class="node">
<title>Node43</title>
<g id="a_node40"><a xlink:href="string___8h.html" target="_top" xlink:title=" ">
<polygon fill="white" stroke="black" points="2342,-112.5 2342,-131.5 2440,-131.5 2440,-112.5 2342,-112.5"/>
<text text-anchor="middle" x="2391" y="-119.5" font-family="FreeSans" font-size="10.00">magick/string_.h</text>
</a>
</g>
</g>
<!-- Node1&#45;&gt;Node43 -->
<g id="edge67" class="edge">
<title>Node1&#45;&gt;Node43</title>
<path fill="none" stroke="midnightblue" d="M2155.07,-286.48C2197.3,-282.31 2269.49,-271.49 2325,-244 2342.24,-235.46 2382.92,-205.45 2391,-188 2397.67,-173.6 2397.01,-155.41 2395.06,-141.93"/>
<polygon fill="midnightblue" stroke="midnightblue" points="2398.47,-141.13 2393.26,-131.91 2391.59,-142.37 2398.47,-141.13"/>
</g>
<!-- Node55 -->
<g id="node41" class="node">
<title>Node55</title>
<g id="a_node41"><a xlink:href="memory___8h.html" target="_top" xlink:title=" ">
<polygon fill="white" stroke="black" points="1463.5,-224.5 1463.5,-243.5 1574.5,-243.5 1574.5,-224.5 1463.5,-224.5"/>
<text text-anchor="middle" x="1519" y="-231.5" font-family="FreeSans" font-size="10.00">magick/memory_.h</text>
</a>
</g>
</g>
<!-- Node1&#45;&gt;Node55 -->
<g id="edge55" class="edge">
<title>Node1&#45;&gt;Node55</title>
<path fill="none" stroke="midnightblue" d="M2084.91,-286.28C2000.92,-279.72 1781.72,-262.17 1599,-244 1594.5,-243.55 1589.85,-243.07 1585.18,-242.58"/>
<polygon fill="midnightblue" stroke="midnightblue" points="1585.25,-239.07 1574.93,-241.48 1584.5,-246.03 1585.25,-239.07"/>
</g>
<!-- Node56 -->
<g id="node42" class="node">
<title>Node56</title>
<g id="a_node42"><a xlink:href="nt-base-private_8h.html" target="_top" xlink:title=" ">
<polygon fill="white" stroke="black" points="2050,-224.5 2050,-243.5 2190,-243.5 2190,-224.5 2050,-224.5"/>
<text text-anchor="middle" x="2120" y="-231.5" font-family="FreeSans" font-size="10.00">magick/nt&#45;base&#45;private.h</text>
</a>
</g>
</g>
<!-- Node1&#45;&gt;Node56 -->
<g id="edge58" class="edge">
<title>Node1&#45;&gt;Node56</title>
<path fill="none" stroke="midnightblue" d="M2120,-280.08C2120,-273.01 2120,-262.86 2120,-253.99"/>
<polygon fill="midnightblue" stroke="midnightblue" points="2123.5,-253.75 2120,-243.75 2116.5,-253.75 2123.5,-253.75"/>
</g>
<!-- Node60 -->
<g id="node46" class="node">
<title>Node60</title>
<g id="a_node46"><a xlink:href="token_8h.html" target="_top" xlink:title=" ">
<polygon fill="white" stroke="black" points="2410,-224.5 2410,-243.5 2502,-243.5 2502,-224.5 2410,-224.5"/>
<text text-anchor="middle" x="2456" y="-231.5" font-family="FreeSans" font-size="10.00">magick/token.h</text>
</a>
</g>
</g>
<!-- Node1&#45;&gt;Node60 -->
<g id="edge68" class="edge">
<title>Node1&#45;&gt;Node60</title>
<path fill="none" stroke="midnightblue" d="M2155.01,-283.37C2213.16,-274.03 2330.16,-255.22 2399.93,-244.01"/>
<polygon fill="midnightblue" stroke="midnightblue" points="2400.55,-247.46 2409.87,-242.41 2399.44,-240.55 2400.55,-247.46"/>
</g>
<!-- Node61 -->
<g id="node47" class="node">
<title>Node61</title>
<g id="a_node47"><a xlink:href="utility_8h.html" target="_top" xlink:title=" ">
<polygon fill="white" stroke="black" points="2520,-224.5 2520,-243.5 2612,-243.5 2612,-224.5 2520,-224.5"/>
<text text-anchor="middle" x="2566" y="-231.5" font-family="FreeSans" font-size="10.00">magick/utility.h</text>
</a>
</g>
</g>
<!-- Node1&#45;&gt;Node61 -->
<g id="edge69" class="edge">
<title>Node1&#45;&gt;Node61</title>
<path fill="none" stroke="midnightblue" d="M2155.12,-285.52C2222,-278.78 2372.46,-263.03 2509.55,-244.15"/>
<polygon fill="midnightblue" stroke="midnightblue" points="2510.39,-247.56 2519.81,-242.72 2509.42,-240.63 2510.39,-247.56"/>
</g>
<!-- Node62 -->
<g id="node48" class="node">
<title>Node62</title>
<g id="a_node48"><a xlink:href="version_8h.html" target="_top" xlink:title=" ">
<polygon fill="white" stroke="black" points="2630.5,-224.5 2630.5,-243.5 2731.5,-243.5 2731.5,-224.5 2630.5,-224.5"/>
<text text-anchor="middle" x="2681" y="-231.5" font-family="FreeSans" font-size="10.00">magick/version.h</text>
</a>
</g>
</g>
<!-- Node1&#45;&gt;Node62 -->
<g id="edge70" class="edge">
<title>Node1&#45;&gt;Node62</title>
<path fill="none" stroke="midnightblue" d="M2155.3,-286.55C2235.78,-280.82 2439.19,-265.45 2620.32,-244.01"/>
<polygon fill="midnightblue" stroke="midnightblue" points="2620.77,-247.48 2630.29,-242.82 2619.95,-240.53 2620.77,-247.48"/>
</g>
<!-- Node63 -->
<g id="node49" class="node">
<title>Node63</title>
<g id="a_node49"><a xlink:href="xml-tree_8h.html" target="_top" xlink:title=" ">
<polygon fill="white" stroke="black" points="2208.5,-224.5 2208.5,-243.5 2315.5,-243.5 2315.5,-224.5 2208.5,-224.5"/>
<text text-anchor="middle" x="2262" y="-231.5" font-family="FreeSans" font-size="10.00">magick/xml&#45;tree.h</text>
</a>
</g>
</g>
<!-- Node1&#45;&gt;Node63 -->
<g id="edge71" class="edge">
<title>Node1&#45;&gt;Node63</title>
<path fill="none" stroke="midnightblue" d="M2142.5,-280.44C2166.08,-271.48 2203.32,-257.31 2229.96,-247.18"/>
<polygon fill="midnightblue" stroke="midnightblue" points="2231.5,-250.34 2239.6,-243.52 2229.01,-243.8 2231.5,-250.34"/>
</g>
<!-- Node64 -->
<g id="node50" class="node">
<title>Node64</title>
<g id="a_node50"><a xlink:href="xml-tree-private_8h.html" target="_top" xlink:title=" ">
<polygon fill="white" stroke="black" points="2788.5,-224.5 2788.5,-243.5 2933.5,-243.5 2933.5,-224.5 2788.5,-224.5"/>
<text text-anchor="middle" x="2861" y="-231.5" font-family="FreeSans" font-size="10.00">magick/xml&#45;tree&#45;private.h</text>
</a>
</g>
</g>
<!-- Node1&#45;&gt;Node64 -->
<g id="edge74" class="edge">
<title>Node1&#45;&gt;Node64</title>
<path fill="none" stroke="midnightblue" d="M2155.13,-287.01C2253.13,-281.36 2537.86,-264.33 2774,-244 2775.32,-243.89 2776.65,-243.77 2777.99,-243.65"/>
<polygon fill="midnightblue" stroke="midnightblue" points="2778.75,-247.1 2788.39,-242.7 2778.11,-240.13 2778.75,-247.1"/>
</g>
<!-- Node3 -->
<g id="node3" class="node">
<title>Node3</title>
<g id="a_node3"><a xlink:href="magick-config_8h.html" target="_top" xlink:title=" ">
<polygon fill="white" stroke="black" points="134,-112.5 134,-131.5 268,-131.5 268,-112.5 134,-112.5"/>
<text text-anchor="middle" x="201" y="-119.5" font-family="FreeSans" font-size="10.00">magick/magick&#45;config.h</text>
</a>
</g>
</g>
<!-- Node2&#45;&gt;Node3 -->
<g id="edge2" class="edge">
<title>Node2&#45;&gt;Node3</title>
<path fill="none" stroke="midnightblue" d="M884.25,-232.34C705.64,-229.66 85.68,-218.19 57,-188 30.28,-159.87 77.04,-142.98 124.25,-133.5"/>
<polygon fill="midnightblue" stroke="midnightblue" points="125.13,-136.9 134.3,-131.59 123.82,-130.02 125.13,-136.9"/>
</g>
<!-- Node5 -->
<g id="node5" class="node">
<title>Node5</title>
<g id="a_node5"><a xlink:title=" ">
<polygon fill="white" stroke="#bfbfbf" points="2180,-0.5 2180,-19.5 2236,-19.5 2236,-0.5 2180,-0.5"/>
<text text-anchor="middle" x="2208" y="-7.5" font-family="FreeSans" font-size="10.00">stdarg.h</text>
</a>
</g>
</g>
<!-- Node2&#45;&gt;Node5 -->
<g id="edge4" class="edge">
<title>Node2&#45;&gt;Node5</title>
<path fill="none" stroke="midnightblue" d="M979.51,-231.67C1088.08,-228.16 1346.98,-216.81 1373,-188 1410.65,-146.31 1235.37,-154.59 1272,-112 1380.45,14.1 1476.78,-75.05 1642,-56 1744.83,-44.15 2059.84,-21.46 2169.71,-13.69"/>
<polygon fill="midnightblue" stroke="midnightblue" points="2170.26,-17.16 2179.99,-12.96 2169.77,-10.18 2170.26,-17.16"/>
</g>
<!-- Node6 -->
<g id="node6" class="node">
<title>Node6</title>
<g id="a_node6"><a xlink:title=" ">
<polygon fill="white" stroke="#bfbfbf" points="854,-168.5 854,-187.5 904,-187.5 904,-168.5 854,-168.5"/>
<text text-anchor="middle" x="879" y="-175.5" font-family="FreeSans" font-size="10.00">stdio.h</text>
</a>
</g>
</g>
<!-- Node2&#45;&gt;Node6 -->
<g id="edge5" class="edge">
<title>Node2&#45;&gt;Node6</title>
<path fill="none" stroke="midnightblue" d="M923.25,-224.08C915.53,-216.22 904.1,-204.57 894.78,-195.08"/>
<polygon fill="midnightblue" stroke="midnightblue" points="897.09,-192.44 887.59,-187.75 892.1,-197.34 897.09,-192.44"/>
</g>
<!-- Node7 -->
<g id="node7" class="node">
<title>Node7</title>
<g id="a_node7"><a xlink:title=" ">
<polygon fill="white" stroke="#bfbfbf" points="960.5,-168.5 960.5,-187.5 1013.5,-187.5 1013.5,-168.5 960.5,-168.5"/>
<text text-anchor="middle" x="987" y="-175.5" font-family="FreeSans" font-size="10.00">ctype.h</text>
</a>
</g>
</g>
<!-- Node2&#45;&gt;Node7 -->
<g id="edge6" class="edge">
<title>Node2&#45;&gt;Node7</title>
<path fill="none" stroke="midnightblue" d="M941.08,-224.08C949.17,-216.14 961.2,-204.34 970.91,-194.8"/>
<polygon fill="midnightblue" stroke="midnightblue" points="973.4,-197.25 978.09,-187.75 968.5,-192.26 973.4,-197.25"/>
</g>
<!-- Node8 -->
<g id="node8" class="node">
<title>Node8</title>
<g id="a_node8"><a xlink:title=" ">
<polygon fill="white" stroke="#bfbfbf" points="1031.5,-168.5 1031.5,-187.5 1086.5,-187.5 1086.5,-168.5 1031.5,-168.5"/>
<text text-anchor="middle" x="1059" y="-175.5" font-family="FreeSans" font-size="10.00">locale.h</text>
</a>
</g>
</g>
<!-- Node2&#45;&gt;Node8 -->
<g id="edge7" class="edge">
<title>Node2&#45;&gt;Node8</title>
<path fill="none" stroke="midnightblue" d="M952.12,-224.44C973.02,-215.56 1005.93,-201.56 1029.72,-191.45"/>
<polygon fill="midnightblue" stroke="midnightblue" points="1031.14,-194.65 1038.97,-187.52 1028.4,-188.21 1031.14,-194.65"/>
</g>
<!-- Node9 -->
<g id="node9" class="node">
<title>Node9</title>
<g id="a_node9"><a xlink:title=" ">
<polygon fill="white" stroke="#bfbfbf" points="1421.5,-168.5 1421.5,-187.5 1472.5,-187.5 1472.5,-168.5 1421.5,-168.5"/>
<text text-anchor="middle" x="1447" y="-175.5" font-family="FreeSans" font-size="10.00">errno.h</text>
</a>
</g>
</g>
<!-- Node2&#45;&gt;Node9 -->
<g id="edge8" class="edge">
<title>Node2&#45;&gt;Node9</title>
<path fill="none" stroke="midnightblue" d="M979.78,-230.48C1065.7,-225.51 1251.78,-212.71 1407,-188 1408.45,-187.77 1409.93,-187.52 1411.41,-187.25"/>
<polygon fill="midnightblue" stroke="midnightblue" points="1412.14,-190.67 1421.27,-185.29 1410.78,-183.81 1412.14,-190.67"/>
</g>
<!-- Node10 -->
<g id="node10" class="node">
<title>Node10</title>
<g id="a_node10"><a xlink:title=" ">
<polygon fill="white" stroke="#bfbfbf" points="1104.5,-168.5 1104.5,-187.5 1151.5,-187.5 1151.5,-168.5 1104.5,-168.5"/>
<text text-anchor="middle" x="1128" y="-175.5" font-family="FreeSans" font-size="10.00">fcntl.h</text>
</a>
</g>
</g>
<!-- Node2&#45;&gt;Node10 -->
<g id="edge9" class="edge">
<title>Node2&#45;&gt;Node10</title>
<path fill="none" stroke="midnightblue" d="M963.06,-224.44C998.97,-214.55 1057.86,-198.32 1094.7,-188.17"/>
<polygon fill="midnightblue" stroke="midnightblue" points="1095.76,-191.51 1104.47,-185.48 1093.9,-184.76 1095.76,-191.51"/>
</g>
<!-- Node11 -->
<g id="node11" class="node">
<title>Node11</title>
<g id="a_node11"><a xlink:title=" ">
<polygon fill="white" stroke="#bfbfbf" points="1169.5,-168.5 1169.5,-187.5 1220.5,-187.5 1220.5,-168.5 1169.5,-168.5"/>
<text text-anchor="middle" x="1195" y="-175.5" font-family="FreeSans" font-size="10.00">math.h</text>
</a>
</g>
</g>
<!-- Node2&#45;&gt;Node11 -->
<g id="edge10" class="edge">
<title>Node2&#45;&gt;Node11</title>
<path fill="none" stroke="midnightblue" d="M979.33,-224.47C1023.39,-216.35 1091.12,-203.4 1159.36,-188.04"/>
<polygon fill="midnightblue" stroke="midnightblue" points="1160.45,-191.38 1169.43,-185.75 1158.9,-184.55 1160.45,-191.38"/>
</g>
<!-- Node12 -->
<g id="node12" class="node">
<title>Node12</title>
<g id="a_node12"><a xlink:title=" ">
<polygon fill="white" stroke="#bfbfbf" points="1651,-56.5 1651,-75.5 1699,-75.5 1699,-56.5 1651,-56.5"/>
<text text-anchor="middle" x="1675" y="-63.5" font-family="FreeSans" font-size="10.00">time.h</text>
</a>
</g>
</g>
<!-- Node2&#45;&gt;Node12 -->
<g id="edge11" class="edge">
<title>Node2&#45;&gt;Node12</title>
<path fill="none" stroke="midnightblue" d="M931.83,-224.35C932.06,-210.28 934.7,-182.58 951,-168 1054.64,-75.33 1511.17,-67.3 1640.65,-66.91"/>
<polygon fill="midnightblue" stroke="midnightblue" points="1640.79,-70.41 1650.78,-66.9 1640.78,-63.41 1640.79,-70.41"/>
</g>
<!-- Node13 -->
<g id="node13" class="node">
<title>Node13</title>
<g id="a_node13"><a xlink:title=" ">
<polygon fill="white" stroke="#bfbfbf" points="1238.5,-168.5 1238.5,-187.5 1291.5,-187.5 1291.5,-168.5 1238.5,-168.5"/>
<text text-anchor="middle" x="1265" y="-175.5" font-family="FreeSans" font-size="10.00">limits.h</text>
</a>
</g>
</g>
<!-- Node2&#45;&gt;Node13 -->
<g id="edge12" class="edge">
<title>Node2&#45;&gt;Node13</title>
<path fill="none" stroke="midnightblue" d="M979.56,-227.2C1036.41,-219.96 1134.56,-206.48 1228.38,-187.95"/>
<polygon fill="midnightblue" stroke="midnightblue" points="1229.21,-191.36 1238.33,-185.97 1227.84,-184.49 1229.21,-191.36"/>
</g>
<!-- Node14 -->
<g id="node14" class="node">
<title>Node14</title>
<g id="a_node14"><a xlink:title=" ">
<polygon fill="white" stroke="#bfbfbf" points="1309.5,-168.5 1309.5,-187.5 1364.5,-187.5 1364.5,-168.5 1309.5,-168.5"/>
<text text-anchor="middle" x="1337" y="-175.5" font-family="FreeSans" font-size="10.00">signal.h</text>
</a>
</g>
</g>
<!-- Node2&#45;&gt;Node14 -->
<g id="edge13" class="edge">
<title>Node2&#45;&gt;Node14</title>
<path fill="none" stroke="midnightblue" d="M979.61,-228.97C1048.09,-222.78 1178.48,-209.54 1299.05,-187.97"/>
<polygon fill="midnightblue" stroke="midnightblue" points="1299.98,-191.36 1309.19,-186.13 1298.73,-184.47 1299.98,-191.36"/>
</g>
<!-- Node15 -->
<g id="node15" class="node">
<title>Node15</title>
<g id="a_node15"><a xlink:title=" ">
<polygon fill="white" stroke="#bfbfbf" points="1491,-168.5 1491,-187.5 1547,-187.5 1547,-168.5 1491,-168.5"/>
<text text-anchor="middle" x="1519" y="-175.5" font-family="FreeSans" font-size="10.00">assert.h</text>
</a>
</g>
</g>
<!-- Node2&#45;&gt;Node15 -->
<g id="edge14" class="edge">
<title>Node2&#45;&gt;Node15</title>
<path fill="none" stroke="midnightblue" d="M979.65,-231.51C1075.26,-227.99 1297.05,-217.15 1481,-188 1481.1,-187.98 1481.2,-187.97 1481.3,-187.95"/>
<polygon fill="midnightblue" stroke="midnightblue" points="1481.69,-191.44 1490.87,-186.16 1480.4,-184.56 1481.69,-191.44"/>
</g>
<!-- Node16 -->
<g id="node16" class="node">
<title>Node16</title>
<g id="a_node16"><a xlink:href="method-attribute_8h.html" target="_top" xlink:title=" ">
<polygon fill="white" stroke="black" points="66,-168.5 66,-187.5 214,-187.5 214,-168.5 66,-168.5"/>
<text text-anchor="middle" x="140" y="-175.5" font-family="FreeSans" font-size="10.00">magick/method&#45;attribute.h</text>
</a>
</g>
</g>
<!-- Node2&#45;&gt;Node16 -->
<g id="edge15" class="edge">
<title>Node2&#45;&gt;Node16</title>
<path fill="none" stroke="midnightblue" d="M884.23,-230.71C771.4,-225.13 479.37,-209.76 224.39,-188.08"/>
<polygon fill="midnightblue" stroke="midnightblue" points="224.46,-184.58 214.2,-187.21 223.86,-191.55 224.46,-184.58"/>
</g>
<!-- Node17 -->
<g id="node17" class="node">
<title>Node17</title>
<g id="a_node17"><a xlink:title=" ">
<polygon fill="white" stroke="#bfbfbf" points="376,-168.5 376,-187.5 448,-187.5 448,-168.5 376,-168.5"/>
<text text-anchor="middle" x="412" y="-175.5" font-family="FreeSans" font-size="10.00">sys/types.h</text>
</a>
</g>
</g>
<!-- Node2&#45;&gt;Node17 -->
<g id="edge16" class="edge">
<title>Node2&#45;&gt;Node17</title>
<path fill="none" stroke="midnightblue" d="M884.27,-230.11C800.21,-224.67 620.09,-211.41 458.42,-188.07"/>
<polygon fill="midnightblue" stroke="midnightblue" points="458.69,-184.57 448.29,-186.59 457.68,-191.5 458.69,-184.57"/>
</g>
<!-- Node18 -->
<g id="node18" class="node">
<title>Node18</title>
<g id="a_node18"><a xlink:title=" ">
<polygon fill="white" stroke="#bfbfbf" points="466,-168.5 466,-187.5 530,-187.5 530,-168.5 466,-168.5"/>
<text text-anchor="middle" x="498" y="-175.5" font-family="FreeSans" font-size="10.00">sys/stat.h</text>
</a>
</g>
</g>
<!-- Node2&#45;&gt;Node18 -->
<g id="edge17" class="edge">
<title>Node2&#45;&gt;Node18</title>
<path fill="none" stroke="midnightblue" d="M884.29,-229.12C812,-222.89 670.23,-209.33 540.3,-188.06"/>
<polygon fill="midnightblue" stroke="midnightblue" points="540.61,-184.57 530.17,-186.39 539.46,-191.47 540.61,-184.57"/>
</g>
<!-- Node19 -->
<g id="node19" class="node">
<title>Node19</title>
<g id="a_node19"><a xlink:title=" ">
<polygon fill="white" stroke="#bfbfbf" points="548,-168.5 548,-187.5 602,-187.5 602,-168.5 548,-168.5"/>
<text text-anchor="middle" x="575" y="-175.5" font-family="FreeSans" font-size="10.00">dirent.h</text>
</a>
</g>
</g>
<!-- Node2&#45;&gt;Node19 -->
<g id="edge18" class="edge">
<title>Node2&#45;&gt;Node19</title>
<path fill="none" stroke="midnightblue" d="M884.42,-227.92C823.49,-221.07 714.47,-207.63 611.96,-188.01"/>
<polygon fill="midnightblue" stroke="midnightblue" points="612.54,-184.56 602.06,-186.09 611.21,-191.43 612.54,-184.56"/>
</g>
<!-- Node20 -->
<g id="node20" class="node">
<title>Node20</title>
<g id="a_node20"><a xlink:title=" ">
<polygon fill="white" stroke="#bfbfbf" points="620,-168.5 620,-187.5 686,-187.5 686,-168.5 620,-168.5"/>
<text text-anchor="middle" x="653" y="-175.5" font-family="FreeSans" font-size="10.00">sys/wait.h</text>
</a>
</g>
</g>
<!-- Node2&#45;&gt;Node20 -->
<g id="edge19" class="edge">
<title>Node2&#45;&gt;Node20</title>
<path fill="none" stroke="midnightblue" d="M885.17,-224.44C839.47,-216.02 767.7,-202.59 696.5,-188.27"/>
<polygon fill="midnightblue" stroke="midnightblue" points="696.95,-184.79 686.46,-186.24 695.57,-191.65 696.95,-184.79"/>
</g>
<!-- Node21 -->
<g id="node21" class="node">
<title>Node21</title>
<g id="a_node21"><a xlink:title=" ">
<polygon fill="white" stroke="#bfbfbf" points="704,-168.5 704,-187.5 750,-187.5 750,-168.5 704,-168.5"/>
<text text-anchor="middle" x="727" y="-175.5" font-family="FreeSans" font-size="10.00">pwd.h</text>
</a>
</g>
</g>
<!-- Node2&#45;&gt;Node21 -->
<g id="edge20" class="edge">
<title>Node2&#45;&gt;Node21</title>
<path fill="none" stroke="midnightblue" d="M898.46,-224.48C865.55,-216.08 813.68,-202.72 759.78,-188.17"/>
<polygon fill="midnightblue" stroke="midnightblue" points="760.62,-184.78 750.06,-185.54 758.8,-191.53 760.62,-184.78"/>
</g>
<!-- Node22 -->
<g id="node22" class="node">
<title>Node22</title>
<g id="a_node22"><a xlink:href="magick-type_8h.html" target="_top" xlink:title=" ">
<polygon fill="white" stroke="black" points="232,-168.5 232,-187.5 358,-187.5 358,-168.5 232,-168.5"/>
<text text-anchor="middle" x="295" y="-175.5" font-family="FreeSans" font-size="10.00">magick/magick&#45;type.h</text>
</a>
</g>
</g>
<!-- Node2&#45;&gt;Node22 -->
<g id="edge21" class="edge">
<title>Node2&#45;&gt;Node22</title>
<path fill="none" stroke="midnightblue" d="M884.31,-229.93C788.58,-223.6 565.93,-208.1 368.19,-188.08"/>
<polygon fill="midnightblue" stroke="midnightblue" points="368.5,-184.59 358.2,-187.06 367.79,-191.56 368.5,-184.59"/>
</g>
<!-- Node23 -->
<g id="node23" class="node">
<title>Node23</title>
<g id="a_node23"><a xlink:title=" ">
<polygon fill="white" stroke="#bfbfbf" points="768,-168.5 768,-187.5 836,-187.5 836,-168.5 768,-168.5"/>
<text text-anchor="middle" x="802" y="-175.5" font-family="FreeSans" font-size="10.00">sys/time.h</text>
</a>
</g>
</g>
<!-- Node2&#45;&gt;Node23 -->
<g id="edge23" class="edge">
<title>Node2&#45;&gt;Node23</title>
<path fill="none" stroke="midnightblue" d="M911.4,-224.44C890.01,-215.56 856.32,-201.56 831.98,-191.45"/>
<polygon fill="midnightblue" stroke="midnightblue" points="833.08,-188.12 822.5,-187.52 830.39,-194.58 833.08,-188.12"/>
</g>
<!-- Node4 -->
<g id="node4" class="node">
<title>Node4</title>
<g id="a_node4"><a xlink:href="magick-baseconfig_8h.html" target="_top" xlink:title=" ">
<polygon fill="white" stroke="black" points="122.5,-56.5 122.5,-75.5 279.5,-75.5 279.5,-56.5 122.5,-56.5"/>
<text text-anchor="middle" x="201" y="-63.5" font-family="FreeSans" font-size="10.00">magick/magick&#45;baseconfig.h</text>
</a>
</g>
</g>
<!-- Node3&#45;&gt;Node4 -->
<g id="edge3" class="edge">
<title>Node3&#45;&gt;Node4</title>
<path fill="none" stroke="midnightblue" d="M201,-112.08C201,-105.01 201,-94.86 201,-85.99"/>
<polygon fill="midnightblue" stroke="midnightblue" points="204.5,-85.75 201,-75.75 197.5,-85.75 204.5,-85.75"/>
</g>
<!-- Node22&#45;&gt;Node3 -->
<g id="edge22" class="edge">
<title>Node22&#45;&gt;Node3</title>
<path fill="none" stroke="midnightblue" d="M279.9,-168.32C265.1,-159.82 242.31,-146.73 225.02,-136.8"/>
<polygon fill="midnightblue" stroke="midnightblue" points="226.48,-133.6 216.07,-131.65 222.99,-139.67 226.48,-133.6"/>
</g>
<!-- Node25 -->
<g id="node25" class="node">
<title>Node25</title>
<g id="a_node25"><a xlink:href="image_8h.html" target="_top" xlink:title=" ">
<polygon fill="white" stroke="red" points="1603.5,-168.5 1603.5,-187.5 1698.5,-187.5 1698.5,-168.5 1603.5,-168.5"/>
<text text-anchor="middle" x="1651" y="-175.5" font-family="FreeSans" font-size="10.00">magick/image.h</text>
</a>
</g>
</g>
<!-- Node24&#45;&gt;Node25 -->
<g id="edge25" class="edge">
<title>Node24&#45;&gt;Node25</title>
<path fill="none" stroke="midnightblue" d="M1645.83,-224.08C1644.32,-216.93 1643.89,-206.64 1644.54,-197.69"/>
<polygon fill="midnightblue" stroke="midnightblue" points="1648.02,-198.13 1645.87,-187.75 1641.08,-197.2 1648.02,-198.13"/>
</g>
<!-- Node48 -->
<g id="node33" class="node">
<title>Node48</title>
<g id="a_node33"><a xlink:href="stream_8h.html" target="_top" xlink:title=" ">
<polygon fill="white" stroke="black" points="1281.5,-112.5 1281.5,-131.5 1380.5,-131.5 1380.5,-112.5 1281.5,-112.5"/>
<text text-anchor="middle" x="1331" y="-119.5" font-family="FreeSans" font-size="10.00">magick/stream.h</text>
</a>
</g>
</g>
<!-- Node24&#45;&gt;Node48 -->
<g id="edge37" class="edge">
<title>Node24&#45;&gt;Node48</title>
<path fill="none" stroke="midnightblue" d="M1641.26,-224.31C1624.88,-210.21 1590.25,-182.43 1556,-168 1526.8,-155.7 1446.99,-141.31 1390.76,-132.17"/>
<polygon fill="midnightblue" stroke="midnightblue" points="1390.98,-128.66 1380.55,-130.53 1389.86,-135.58 1390.98,-128.66"/>
</g>
<!-- Node25&#45;&gt;Node24 -->
<g id="edge30" class="edge">
<title>Node25&#45;&gt;Node24</title>
<path fill="none" stroke="midnightblue" d="M1656.13,-187.75C1657.66,-194.86 1658.1,-205.14 1657.47,-214.1"/>
<polygon fill="midnightblue" stroke="midnightblue" points="1653.99,-213.71 1656.17,-224.08 1660.93,-214.62 1653.99,-213.71"/>
</g>
<!-- Node26 -->
<g id="node26" class="node">
<title>Node26</title>
<g id="a_node26"><a xlink:href="color_8h.html" target="_top" xlink:title=" ">
<polygon fill="white" stroke="red" points="2012,-112.5 2012,-131.5 2100,-131.5 2100,-112.5 2012,-112.5"/>
<text text-anchor="middle" x="2056" y="-119.5" font-family="FreeSans" font-size="10.00">magick/color.h</text>
</a>
</g>
</g>
<!-- Node25&#45;&gt;Node26 -->
<g id="edge26" class="edge">
<title>Node25&#45;&gt;Node26</title>
<path fill="none" stroke="midnightblue" d="M1698.65,-170.65C1774.39,-160.55 1921.83,-140.89 2001.6,-130.25"/>
<polygon fill="midnightblue" stroke="midnightblue" points="2002.48,-133.67 2011.93,-128.88 2001.55,-126.73 2002.48,-133.67"/>
</g>
<!-- Node25&#45;&gt;Node31 -->
<g id="edge35" class="edge">
<title>Node25&#45;&gt;Node31</title>
<path fill="none" stroke="midnightblue" d="M1603.33,-168.95C1539.5,-157.95 1433.57,-138.81 1428,-132 1422.37,-125.12 1422.57,-119.04 1428,-112 1489.66,-32.13 1800.03,-15.36 1941.06,-11.89"/>
<polygon fill="midnightblue" stroke="midnightblue" points="1941.41,-15.38 1951.33,-11.65 1941.25,-8.38 1941.41,-15.38"/>
</g>
<!-- Node28 -->
<g id="node29" class="node">
<title>Node28</title>
<g id="a_node29"><a xlink:href="colorspace_8h.html" target="_top" xlink:title=" ">
<polygon fill="white" stroke="black" points="1567.5,-112.5 1567.5,-131.5 1684.5,-131.5 1684.5,-112.5 1567.5,-112.5"/>
<text text-anchor="middle" x="1626" y="-119.5" font-family="FreeSans" font-size="10.00">magick/colorspace.h</text>
</a>
</g>
</g>
<!-- Node25&#45;&gt;Node28 -->
<g id="edge31" class="edge">
<title>Node25&#45;&gt;Node28</title>
<path fill="none" stroke="midnightblue" d="M1646.87,-168.08C1643.49,-160.77 1638.58,-150.18 1634.38,-141.1"/>
<polygon fill="midnightblue" stroke="midnightblue" points="1637.43,-139.36 1630.05,-131.75 1631.08,-142.3 1637.43,-139.36"/>
</g>
<!-- Node32 -->
<g id="node30" class="node">
<title>Node32</title>
<g id="a_node30"><a xlink:href="cache-view_8h.html" target="_top" xlink:title=" ">
<polygon fill="white" stroke="red" points="1702.5,-112.5 1702.5,-131.5 1821.5,-131.5 1821.5,-112.5 1702.5,-112.5"/>
<text text-anchor="middle" x="1762" y="-119.5" font-family="FreeSans" font-size="10.00">magick/cache&#45;view.h</text>
</a>
</g>
</g>
<!-- Node25&#45;&gt;Node32 -->
<g id="edge32" class="edge">
<title>Node25&#45;&gt;Node32</title>
<path fill="none" stroke="midnightblue" d="M1668.83,-168.32C1686.72,-159.62 1714.48,-146.12 1735.05,-136.11"/>
<polygon fill="midnightblue" stroke="midnightblue" points="1736.75,-139.18 1744.21,-131.65 1733.69,-132.88 1736.75,-139.18"/>
</g>
<!-- Node33 -->
<g id="node31" class="node">
<title>Node33</title>
<g id="a_node31"><a xlink:href="composite_8h.html" target="_top" xlink:title=" ">
<polygon fill="white" stroke="black" points="1840,-112.5 1840,-131.5 1956,-131.5 1956,-112.5 1840,-112.5"/>
<text text-anchor="middle" x="1898" y="-119.5" font-family="FreeSans" font-size="10.00">magick/composite.h</text>
</a>
</g>
</g>
<!-- Node25&#45;&gt;Node33 -->
<g id="edge33" class="edge">
<title>Node25&#45;&gt;Node33</title>
<path fill="none" stroke="midnightblue" d="M1690.14,-168.44C1733.23,-159.02 1802.56,-143.87 1849.17,-133.68"/>
<polygon fill="midnightblue" stroke="midnightblue" points="1850.02,-137.07 1859.05,-131.52 1848.53,-130.23 1850.02,-137.07"/>
</g>
<!-- Node34 -->
<g id="node32" class="node">
<title>Node34</title>
<g id="a_node32"><a xlink:href="compress_8h.html" target="_top" xlink:title=" ">
<polygon fill="white" stroke="black" points="1437,-112.5 1437,-131.5 1549,-131.5 1549,-112.5 1437,-112.5"/>
<text text-anchor="middle" x="1493" y="-119.5" font-family="FreeSans" font-size="10.00">magick/compress.h</text>
</a>
</g>
</g>
<!-- Node25&#45;&gt;Node34 -->
<g id="edge34" class="edge">
<title>Node25&#45;&gt;Node34</title>
<path fill="none" stroke="midnightblue" d="M1625.96,-168.44C1599.38,-159.36 1557.19,-144.94 1527.48,-134.78"/>
<polygon fill="midnightblue" stroke="midnightblue" points="1528.51,-131.44 1517.92,-131.52 1526.25,-138.06 1528.51,-131.44"/>
</g>
<!-- Node25&#45;&gt;Node48 -->
<g id="edge36" class="edge">
<title>Node25&#45;&gt;Node48</title>
<path fill="none" stroke="midnightblue" d="M1603.44,-168.97C1546.79,-159.41 1452.11,-143.44 1390.62,-133.06"/>
<polygon fill="midnightblue" stroke="midnightblue" points="1391.11,-129.59 1380.67,-131.38 1389.95,-136.5 1391.11,-129.59"/>
</g>
<!-- Node26&#45;&gt;Node30 -->
<g id="edge27" class="edge">
<title>Node26&#45;&gt;Node30</title>
<path fill="none" stroke="midnightblue" d="M2073.67,-112.32C2091.39,-103.62 2118.9,-90.12 2139.29,-80.11"/>
<polygon fill="midnightblue" stroke="midnightblue" points="2140.94,-83.2 2148.37,-75.65 2137.85,-76.92 2140.94,-83.2"/>
</g>
<!-- Node30&#45;&gt;Node5 -->
<g id="edge28" class="edge">
<title>Node30&#45;&gt;Node5</title>
<path fill="none" stroke="midnightblue" d="M2172.94,-56.08C2178.93,-48.38 2187.75,-37.03 2195.05,-27.65"/>
<polygon fill="midnightblue" stroke="midnightblue" points="2197.82,-29.79 2201.19,-19.75 2192.29,-25.5 2197.82,-29.79"/>
</g>
<!-- Node30&#45;&gt;Node31 -->
<g id="edge29" class="edge">
<title>Node30&#45;&gt;Node31</title>
<path fill="none" stroke="midnightblue" d="M2141.44,-56.44C2115.48,-47.4 2074.33,-33.06 2045.2,-22.92"/>
<polygon fill="midnightblue" stroke="midnightblue" points="2046.04,-19.5 2035.45,-19.52 2043.74,-26.11 2046.04,-19.5"/>
</g>
<!-- Node51&#45;&gt;Node40 -->
<g id="edge40" class="edge">
<title>Node51&#45;&gt;Node40</title>
<path fill="none" stroke="midnightblue" d="M1929.36,-224.32C1920.49,-216.34 1907.13,-204.31 1896.39,-194.65"/>
<polygon fill="midnightblue" stroke="midnightblue" points="1898.59,-191.92 1888.82,-187.83 1893.91,-197.13 1898.59,-191.92"/>
</g>
<!-- Node52&#45;&gt;Node53 -->
<g id="edge43" class="edge">
<title>Node52&#45;&gt;Node53</title>
<path fill="none" stroke="midnightblue" d="M2536,-168.08C2536,-161.01 2536,-150.86 2536,-141.99"/>
<polygon fill="midnightblue" stroke="midnightblue" points="2539.5,-141.75 2536,-131.75 2532.5,-141.75 2539.5,-141.75"/>
</g>
<!-- Node54 -->
<g id="node39" class="node">
<title>Node54</title>
<g id="a_node39"><a xlink:href="magick_8h.html" target="_top" xlink:title=" ">
<polygon fill="white" stroke="black" points="2279.5,-56.5 2279.5,-75.5 2380.5,-75.5 2380.5,-56.5 2279.5,-56.5"/>
<text text-anchor="middle" x="2330" y="-63.5" font-family="FreeSans" font-size="10.00">magick/magick.h</text>
</a>
</g>
</g>
<!-- Node52&#45;&gt;Node54 -->
<g id="edge46" class="edge">
<title>Node52&#45;&gt;Node54</title>
<path fill="none" stroke="midnightblue" d="M2526.44,-168.43C2511.05,-154.96 2479.42,-128.68 2449,-112 2423.58,-98.06 2392.95,-86.59 2369.13,-78.71"/>
<polygon fill="midnightblue" stroke="midnightblue" points="2369.96,-75.3 2359.37,-75.56 2367.81,-81.97 2369.96,-75.3"/>
</g>
<!-- Node52&#45;&gt;Node43 -->
<g id="edge49" class="edge">
<title>Node52&#45;&gt;Node43</title>
<path fill="none" stroke="midnightblue" d="M2513.02,-168.44C2488.84,-159.44 2450.58,-145.19 2423.35,-135.05"/>
<polygon fill="midnightblue" stroke="midnightblue" points="2424.46,-131.73 2413.87,-131.52 2422.02,-138.29 2424.46,-131.73"/>
</g>
<!-- Node53&#45;&gt;Node5 -->
<g id="edge44" class="edge">
<title>Node53&#45;&gt;Node5</title>
<path fill="none" stroke="midnightblue" d="M2519.31,-112.4C2492.59,-98.9 2438.29,-72.57 2390,-56 2341.32,-39.29 2283.33,-26.05 2246.12,-18.38"/>
<polygon fill="midnightblue" stroke="midnightblue" points="2246.69,-14.92 2236.19,-16.36 2245.3,-21.78 2246.69,-14.92"/>
</g>
<!-- Node53&#45;&gt;Node30 -->
<g id="edge45" class="edge">
<title>Node53&#45;&gt;Node30</title>
<path fill="none" stroke="midnightblue" d="M2495.7,-115.12C2432.42,-105.88 2309.11,-87.89 2232.53,-76.71"/>
<polygon fill="midnightblue" stroke="midnightblue" points="2232.91,-73.23 2222.51,-75.25 2231.9,-80.16 2232.91,-73.23"/>
</g>
<!-- Node54&#45;&gt;Node5 -->
<g id="edge47" class="edge">
<title>Node54&#45;&gt;Node5</title>
<path fill="none" stroke="midnightblue" d="M2310.67,-56.44C2290.68,-47.6 2259.26,-33.69 2236.44,-23.59"/>
<polygon fill="midnightblue" stroke="midnightblue" points="2237.8,-20.36 2227.24,-19.52 2234.97,-26.76 2237.8,-20.36"/>
</g>
<!-- Node54&#45;&gt;Node31 -->
<g id="edge48" class="edge">
<title>Node54&#45;&gt;Node31</title>
<path fill="none" stroke="midnightblue" d="M2279.45,-56.44C2222.99,-46.89 2131.63,-31.42 2071.43,-21.23"/>
<polygon fill="midnightblue" stroke="midnightblue" points="2071.75,-17.73 2061.31,-19.52 2070.59,-24.64 2071.75,-17.73"/>
</g>
<!-- Node43&#45;&gt;Node5 -->
<g id="edge50" class="edge">
<title>Node43&#45;&gt;Node5</title>
<path fill="none" stroke="midnightblue" d="M2356.53,-112.48C2331.46,-105.26 2297.43,-93.31 2271,-76 2250.97,-62.88 2232.46,-42.35 2220.76,-27.88"/>
<polygon fill="midnightblue" stroke="midnightblue" points="2223.33,-25.48 2214.41,-19.77 2217.82,-29.8 2223.33,-25.48"/>
</g>
<!-- Node43&#45;&gt;Node12 -->
<g id="edge51" class="edge">
<title>Node43&#45;&gt;Node12</title>
<path fill="none" stroke="midnightblue" d="M2341.79,-117.29C2205.45,-107.01 1825.27,-78.33 1709.13,-69.57"/>
<polygon fill="midnightblue" stroke="midnightblue" points="1709.28,-66.08 1699.04,-68.81 1708.75,-73.06 1709.28,-66.08"/>
</g>
<!-- Node43&#45;&gt;Node30 -->
<g id="edge52" class="edge">
<title>Node43&#45;&gt;Node30</title>
<path fill="none" stroke="midnightblue" d="M2355.35,-112.44C2316.34,-103.08 2253.73,-88.06 2211.28,-77.87"/>
<polygon fill="midnightblue" stroke="midnightblue" points="2212.03,-74.45 2201.49,-75.52 2210.39,-81.25 2212.03,-74.45"/>
</g>
<!-- Node55&#45;&gt;Node9 -->
<g id="edge56" class="edge">
<title>Node55&#45;&gt;Node9</title>
<path fill="none" stroke="midnightblue" d="M1507.43,-224.32C1496.58,-216.18 1480.12,-203.84 1467.12,-194.09"/>
<polygon fill="midnightblue" stroke="midnightblue" points="1468.88,-191.03 1458.78,-187.83 1464.68,-196.63 1468.88,-191.03"/>
</g>
<!-- Node55&#45;&gt;Node15 -->
<g id="edge57" class="edge">
<title>Node55&#45;&gt;Node15</title>
<path fill="none" stroke="midnightblue" d="M1519,-224.08C1519,-217.01 1519,-206.86 1519,-197.99"/>
<polygon fill="midnightblue" stroke="midnightblue" points="1522.5,-197.75 1519,-187.75 1515.5,-197.75 1522.5,-197.75"/>
</g>
<!-- Node56&#45;&gt;Node30 -->
<g id="edge64" class="edge">
<title>Node56&#45;&gt;Node30</title>
<path fill="none" stroke="midnightblue" d="M2107.58,-224.3C2091.56,-211.94 2067.08,-188.54 2079,-168 2095.19,-140.11 2121.16,-156.61 2142,-132 2153.29,-118.67 2159.49,-99.55 2162.75,-85.5"/>
<polygon fill="midnightblue" stroke="midnightblue" points="2166.21,-86.02 2164.77,-75.52 2159.35,-84.63 2166.21,-86.02"/>
</g>
<!-- Node57 -->
<g id="node43" class="node">
<title>Node57</title>
<g id="a_node43"><a xlink:href="delegate_8h.html" target="_top" xlink:title=" ">
<polygon fill="white" stroke="black" points="1957.5,-56.5 1957.5,-75.5 2064.5,-75.5 2064.5,-56.5 1957.5,-56.5"/>
<text text-anchor="middle" x="2011" y="-63.5" font-family="FreeSans" font-size="10.00">magick/delegate.h</text>
</a>
</g>
</g>
<!-- Node56&#45;&gt;Node57 -->
<g id="edge59" class="edge">
<title>Node56&#45;&gt;Node57</title>
<path fill="none" stroke="midnightblue" d="M2102.76,-224.42C2075.56,-209.78 2023.66,-177.14 2003,-132 1996.28,-117.32 1999.48,-98.92 2003.66,-85.45"/>
<polygon fill="midnightblue" stroke="midnightblue" points="2007.01,-86.46 2007.05,-75.86 2000.41,-84.12 2007.01,-86.46"/>
</g>
<!-- Node58 -->
<g id="node44" class="node">
<title>Node58</title>
<g id="a_node44"><a xlink:href="delegate-private_8h.html" target="_top" xlink:title=" ">
<polygon fill="white" stroke="black" points="2088,-168.5 2088,-187.5 2234,-187.5 2234,-168.5 2088,-168.5"/>
<text text-anchor="middle" x="2161" y="-175.5" font-family="FreeSans" font-size="10.00">magick/delegate&#45;private.h</text>
</a>
</g>
</g>
<!-- Node56&#45;&gt;Node58 -->
<g id="edge62" class="edge">
<title>Node56&#45;&gt;Node58</title>
<path fill="none" stroke="midnightblue" d="M2126.77,-224.08C2132.56,-216.46 2141.06,-205.26 2148.14,-195.94"/>
<polygon fill="midnightblue" stroke="midnightblue" points="2151.1,-197.83 2154.36,-187.75 2145.52,-193.6 2151.1,-197.83"/>
</g>
<!-- Node59 -->
<g id="node45" class="node">
<title>Node59</title>
<g id="a_node45"><a xlink:href="splay-tree_8h.html" target="_top" xlink:title=" ">
<polygon fill="white" stroke="black" points="2252,-168.5 2252,-187.5 2366,-187.5 2366,-168.5 2252,-168.5"/>
<text text-anchor="middle" x="2309" y="-175.5" font-family="FreeSans" font-size="10.00">magick/splay&#45;tree.h</text>
</a>
</g>
</g>
<!-- Node56&#45;&gt;Node59 -->
<g id="edge65" class="edge">
<title>Node56&#45;&gt;Node59</title>
<path fill="none" stroke="midnightblue" d="M2149.95,-224.44C2182.16,-215.24 2233.53,-200.56 2269.14,-190.39"/>
<polygon fill="midnightblue" stroke="midnightblue" points="2270.54,-193.63 2279.19,-187.52 2268.62,-186.9 2270.54,-193.63"/>
</g>
<!-- Node57&#45;&gt;Node5 -->
<g id="edge60" class="edge">
<title>Node57&#45;&gt;Node5</title>
<path fill="none" stroke="midnightblue" d="M2042.22,-56.44C2076.83,-46.96 2132.67,-31.65 2169.84,-21.46"/>
<polygon fill="midnightblue" stroke="midnightblue" points="2171.08,-24.75 2179.8,-18.73 2169.23,-18 2171.08,-24.75"/>
</g>
<!-- Node57&#45;&gt;Node31 -->
<g id="edge61" class="edge">
<title>Node57&#45;&gt;Node31</title>
<path fill="none" stroke="midnightblue" d="M2011,-56.08C2011,-49.01 2011,-38.86 2011,-29.99"/>
<polygon fill="midnightblue" stroke="midnightblue" points="2014.5,-29.75 2011,-19.75 2007.5,-29.75 2014.5,-29.75"/>
</g>
<!-- Node58&#45;&gt;Node43 -->
<g id="edge63" class="edge">
<title>Node58&#45;&gt;Node43</title>
<path fill="none" stroke="midnightblue" d="M2197.44,-168.44C2237.4,-159.06 2301.59,-143.99 2344.98,-133.8"/>
<polygon fill="midnightblue" stroke="midnightblue" points="2345.79,-137.21 2354.73,-131.52 2344.19,-130.39 2345.79,-137.21"/>
</g>
<!-- Node63&#45;&gt;Node30 -->
<g id="edge72" class="edge">
<title>Node63&#45;&gt;Node30</title>
<path fill="none" stroke="midnightblue" d="M2309.97,-224.42C2348.58,-215.16 2393.58,-197.62 2375,-168 2355.24,-136.51 2255.39,-97.94 2201.17,-78.86"/>
<polygon fill="midnightblue" stroke="midnightblue" points="2202.2,-75.51 2191.6,-75.53 2199.89,-82.12 2202.2,-75.51"/>
</g>
<!-- Node63&#45;&gt;Node59 -->
<g id="edge73" class="edge">
<title>Node63&#45;&gt;Node59</title>
<path fill="none" stroke="midnightblue" d="M2269.76,-224.08C2276.54,-216.3 2286.54,-204.8 2294.76,-195.37"/>
<polygon fill="midnightblue" stroke="midnightblue" points="2297.46,-197.59 2301.38,-187.75 2292.18,-193 2297.46,-197.59"/>
</g>
</g>
</svg>
