<?xml version="1.0" encoding="UTF-8" standalone="no"?>
<!DOCTYPE svg PUBLIC "-//W3C//DTD SVG 1.1//EN"
 "http://www.w3.org/Graphics/SVG/1.1/DTD/svg11.dtd">
<!-- Generated by graphviz version 2.43.0 (0)
 -->
<!-- Title: configure.h Pages: 1 -->
<svg width="1557pt" height="140pt"
 viewBox="0.00 0.00 1556.50 140.00" xmlns="http://www.w3.org/2000/svg" xmlns:xlink="http://www.w3.org/1999/xlink">
<g id="graph0" class="graph" transform="scale(1 1) rotate(0) translate(4 136)">
<title>configure.h</title>
<polygon fill="white" stroke="transparent" points="-4,4 -4,-136 1552.5,-136 1552.5,4 -4,4"/>
<!-- Node1 -->
<g id="node1" class="node">
<title>Node1</title>
<g id="a_node1"><a xlink:title=" ">
<polygon fill="#bfbfbf" stroke="black" points="790.5,-112.5 790.5,-131.5 861.5,-131.5 861.5,-112.5 790.5,-112.5"/>
<text text-anchor="middle" x="826" y="-119.5" font-family="FreeSans" font-size="10.00">configure.h</text>
</a>
</g>
</g>
<!-- Node2 -->
<g id="node2" class="node">
<title>Node2</title>
<g id="a_node2"><a xlink:href="MagickCore_8h.html" target="_top" xlink:title=" ">
<polygon fill="white" stroke="black" points="89.5,-56.5 89.5,-75.5 172.5,-75.5 172.5,-56.5 89.5,-56.5"/>
<text text-anchor="middle" x="131" y="-63.5" font-family="FreeSans" font-size="10.00">MagickCore.h</text>
</a>
</g>
</g>
<!-- Node1&#45;&gt;Node2 -->
<g id="edge1" class="edge">
<title>Node1&#45;&gt;Node2</title>
<path fill="none" stroke="midnightblue" d="M780.26,-119.45C674.58,-115.52 405.39,-103.44 182,-76 178.97,-75.63 175.84,-75.19 172.7,-74.73"/>
<polygon fill="midnightblue" stroke="midnightblue" points="780.15,-122.95 790.27,-119.82 780.4,-115.96 780.15,-122.95"/>
</g>
<!-- Node6 -->
<g id="node6" class="node">
<title>Node6</title>
<g id="a_node6"><a xlink:href="coder_8c.html" target="_top" xlink:title=" ">
<polygon fill="white" stroke="black" points="190.5,-56.5 190.5,-75.5 241.5,-75.5 241.5,-56.5 190.5,-56.5"/>
<text text-anchor="middle" x="216" y="-63.5" font-family="FreeSans" font-size="10.00">coder.c</text>
</a>
</g>
</g>
<!-- Node1&#45;&gt;Node6 -->
<g id="edge5" class="edge">
<title>Node1&#45;&gt;Node6</title>
<path fill="none" stroke="midnightblue" d="M780.28,-120.11C682.51,-117.62 446.13,-108.47 251,-76 247.91,-75.49 244.68,-74.83 241.5,-74.1"/>
<polygon fill="midnightblue" stroke="midnightblue" points="780.33,-123.61 790.41,-120.36 780.5,-116.62 780.33,-123.61"/>
</g>
<!-- Node7 -->
<g id="node7" class="node">
<title>Node7</title>
<g id="a_node7"><a xlink:href="color_8c.html" target="_top" xlink:title=" ">
<polygon fill="white" stroke="black" points="260,-56.5 260,-75.5 308,-75.5 308,-56.5 260,-56.5"/>
<text text-anchor="middle" x="284" y="-63.5" font-family="FreeSans" font-size="10.00">color.c</text>
</a>
</g>
</g>
<!-- Node1&#45;&gt;Node7 -->
<g id="edge6" class="edge">
<title>Node1&#45;&gt;Node7</title>
<path fill="none" stroke="midnightblue" d="M780.24,-119.56C690.81,-116.17 486.82,-105.6 318,-76 314.75,-75.43 311.36,-74.7 308.03,-73.9"/>
<polygon fill="midnightblue" stroke="midnightblue" points="780.19,-123.06 790.32,-119.93 780.45,-116.06 780.19,-123.06"/>
</g>
<!-- Node8 -->
<g id="node8" class="node">
<title>Node8</title>
<g id="a_node8"><a xlink:href="colormap_8c.html" target="_top" xlink:title=" ">
<polygon fill="white" stroke="black" points="326.5,-56.5 326.5,-75.5 397.5,-75.5 397.5,-56.5 326.5,-56.5"/>
<text text-anchor="middle" x="362" y="-63.5" font-family="FreeSans" font-size="10.00">colormap.c</text>
</a>
</g>
</g>
<!-- Node1&#45;&gt;Node8 -->
<g id="edge7" class="edge">
<title>Node1&#45;&gt;Node8</title>
<path fill="none" stroke="midnightblue" d="M779.92,-117.42C702.57,-111.11 541.85,-96.68 407,-76 404.01,-75.54 400.91,-75.02 397.81,-74.47"/>
<polygon fill="midnightblue" stroke="midnightblue" points="780.02,-120.94 790.27,-118.26 780.58,-113.96 780.02,-120.94"/>
</g>
<!-- Node9 -->
<g id="node9" class="node">
<title>Node9</title>
<g id="a_node9"><a xlink:href="configure_8c.html" target="_top" xlink:title=" ">
<polygon fill="white" stroke="black" points="416,-56.5 416,-75.5 486,-75.5 486,-56.5 416,-56.5"/>
<text text-anchor="middle" x="451" y="-63.5" font-family="FreeSans" font-size="10.00">configure.c</text>
</a>
</g>
</g>
<!-- Node1&#45;&gt;Node9 -->
<g id="edge8" class="edge">
<title>Node1&#45;&gt;Node9</title>
<path fill="none" stroke="midnightblue" d="M779.95,-115.72C715.88,-108.16 596.28,-93.22 495,-76 492.08,-75.5 489.06,-74.96 486.02,-74.38"/>
<polygon fill="midnightblue" stroke="midnightblue" points="779.78,-119.23 790.12,-116.92 780.6,-112.28 779.78,-119.23"/>
</g>
<!-- Node10 -->
<g id="node10" class="node">
<title>Node10</title>
<g id="a_node10"><a xlink:href="delegate_8c.html" target="_top" xlink:title=" ">
<polygon fill="white" stroke="black" points="504,-56.5 504,-75.5 572,-75.5 572,-56.5 504,-56.5"/>
<text text-anchor="middle" x="538" y="-63.5" font-family="FreeSans" font-size="10.00">delegate.c</text>
</a>
</g>
</g>
<!-- Node1&#45;&gt;Node10 -->
<g id="edge9" class="edge">
<title>Node1&#45;&gt;Node10</title>
<path fill="none" stroke="midnightblue" d="M780.22,-112.94C730.96,-104.18 650.33,-89.62 581,-76 578.16,-75.44 575.21,-74.85 572.25,-74.25"/>
<polygon fill="midnightblue" stroke="midnightblue" points="779.78,-116.42 790.24,-114.72 781.01,-109.52 779.78,-116.42"/>
</g>
<!-- Node11 -->
<g id="node11" class="node">
<title>Node11</title>
<g id="a_node11"><a xlink:href="identify_8c.html" target="_top" xlink:title=" ">
<polygon fill="white" stroke="black" points="590,-56.5 590,-75.5 650,-75.5 650,-56.5 590,-56.5"/>
<text text-anchor="middle" x="620" y="-63.5" font-family="FreeSans" font-size="10.00">identify.c</text>
</a>
</g>
</g>
<!-- Node1&#45;&gt;Node11 -->
<g id="edge10" class="edge">
<title>Node1&#45;&gt;Node11</title>
<path fill="none" stroke="midnightblue" d="M783.68,-109.91C743.9,-99.48 685.37,-84.14 650.14,-74.9"/>
<polygon fill="midnightblue" stroke="midnightblue" points="782.8,-113.29 793.36,-112.44 784.57,-106.52 782.8,-113.29"/>
</g>
<!-- Node12 -->
<g id="node12" class="node">
<title>Node12</title>
<g id="a_node12"><a xlink:href="locale_8c.html" target="_top" xlink:title=" ">
<polygon fill="white" stroke="black" points="668,-56.5 668,-75.5 722,-75.5 722,-56.5 668,-56.5"/>
<text text-anchor="middle" x="695" y="-63.5" font-family="FreeSans" font-size="10.00">locale.c</text>
</a>
</g>
</g>
<!-- Node1&#45;&gt;Node12 -->
<g id="edge11" class="edge">
<title>Node1&#45;&gt;Node12</title>
<path fill="none" stroke="midnightblue" d="M795.68,-108.5C771.12,-98.38 737.18,-84.39 715.66,-75.52"/>
<polygon fill="midnightblue" stroke="midnightblue" points="794.66,-111.87 805.24,-112.44 797.33,-105.4 794.66,-111.87"/>
</g>
<!-- Node13 -->
<g id="node13" class="node">
<title>Node13</title>
<g id="a_node13"><a xlink:href="log_8c.html" target="_top" xlink:title=" ">
<polygon fill="white" stroke="black" points="740,-56.5 740,-75.5 780,-75.5 780,-56.5 740,-56.5"/>
<text text-anchor="middle" x="760" y="-63.5" font-family="FreeSans" font-size="10.00">log.c</text>
</a>
</g>
</g>
<!-- Node1&#45;&gt;Node13 -->
<g id="edge12" class="edge">
<title>Node1&#45;&gt;Node13</title>
<path fill="none" stroke="midnightblue" d="M807.45,-105.82C795.62,-96.15 780.71,-83.95 770.8,-75.83"/>
<polygon fill="midnightblue" stroke="midnightblue" points="805.44,-108.7 815.4,-112.32 809.87,-103.28 805.44,-108.7"/>
</g>
<!-- Node14 -->
<g id="node14" class="node">
<title>Node14</title>
<g id="a_node14"><a xlink:href="magic_8c.html" target="_top" xlink:title=" ">
<polygon fill="white" stroke="black" points="798.5,-56.5 798.5,-75.5 853.5,-75.5 853.5,-56.5 798.5,-56.5"/>
<text text-anchor="middle" x="826" y="-63.5" font-family="FreeSans" font-size="10.00">magic.c</text>
</a>
</g>
</g>
<!-- Node1&#45;&gt;Node14 -->
<g id="edge13" class="edge">
<title>Node1&#45;&gt;Node14</title>
<path fill="none" stroke="midnightblue" d="M826,-101.8C826,-92.91 826,-82.78 826,-75.75"/>
<polygon fill="midnightblue" stroke="midnightblue" points="822.5,-102.08 826,-112.08 829.5,-102.08 822.5,-102.08"/>
</g>
<!-- Node15 -->
<g id="node15" class="node">
<title>Node15</title>
<g id="a_node15"><a xlink:href="magick_8c.html" target="_top" xlink:title=" ">
<polygon fill="white" stroke="black" points="871.5,-56.5 871.5,-75.5 932.5,-75.5 932.5,-56.5 871.5,-56.5"/>
<text text-anchor="middle" x="902" y="-63.5" font-family="FreeSans" font-size="10.00">magick.c</text>
</a>
</g>
</g>
<!-- Node1&#45;&gt;Node15 -->
<g id="edge14" class="edge">
<title>Node1&#45;&gt;Node15</title>
<path fill="none" stroke="midnightblue" d="M846.58,-106.38C860.31,-96.62 877.93,-84.11 889.57,-75.83"/>
<polygon fill="midnightblue" stroke="midnightblue" points="844.34,-103.68 838.21,-112.32 848.39,-109.38 844.34,-103.68"/>
</g>
<!-- Node16 -->
<g id="node16" class="node">
<title>Node16</title>
<g id="a_node16"><a xlink:href="mime_8c.html" target="_top" xlink:title=" ">
<polygon fill="white" stroke="black" points="950.5,-56.5 950.5,-75.5 1003.5,-75.5 1003.5,-56.5 950.5,-56.5"/>
<text text-anchor="middle" x="977" y="-63.5" font-family="FreeSans" font-size="10.00">mime.c</text>
</a>
</g>
</g>
<!-- Node1&#45;&gt;Node16 -->
<g id="edge15" class="edge">
<title>Node1&#45;&gt;Node16</title>
<path fill="none" stroke="midnightblue" d="M859.45,-109.04C887.86,-98.88 927.94,-84.55 953.19,-75.52"/>
<polygon fill="midnightblue" stroke="midnightblue" points="858.16,-105.78 849.93,-112.44 860.52,-112.37 858.16,-105.78"/>
</g>
<!-- Node17 -->
<g id="node17" class="node">
<title>Node17</title>
<g id="a_node17"><a xlink:href="module_8c.html" target="_top" xlink:title=" ">
<polygon fill="white" stroke="black" points="1022,-56.5 1022,-75.5 1084,-75.5 1084,-56.5 1022,-56.5"/>
<text text-anchor="middle" x="1053" y="-63.5" font-family="FreeSans" font-size="10.00">module.c</text>
</a>
</g>
</g>
<!-- Node1&#45;&gt;Node17 -->
<g id="edge16" class="edge">
<title>Node1&#45;&gt;Node17</title>
<path fill="none" stroke="midnightblue" d="M871.72,-110.12C916.35,-99.51 983.04,-83.64 1021.87,-74.41"/>
<polygon fill="midnightblue" stroke="midnightblue" points="870.64,-106.78 861.72,-112.5 872.26,-113.59 870.64,-106.78"/>
</g>
<!-- Node18 -->
<g id="node18" class="node">
<title>Node18</title>
<g id="a_node18"><a xlink:href="policy_8c.html" target="_top" xlink:title=" ">
<polygon fill="white" stroke="black" points="1102.5,-56.5 1102.5,-75.5 1155.5,-75.5 1155.5,-56.5 1102.5,-56.5"/>
<text text-anchor="middle" x="1129" y="-63.5" font-family="FreeSans" font-size="10.00">policy.c</text>
</a>
</g>
</g>
<!-- Node1&#45;&gt;Node18 -->
<g id="edge17" class="edge">
<title>Node1&#45;&gt;Node18</title>
<path fill="none" stroke="midnightblue" d="M871.73,-114.4C925.07,-106.45 1015.78,-92.13 1093,-76 1096.03,-75.37 1099.18,-74.66 1102.32,-73.92"/>
<polygon fill="midnightblue" stroke="midnightblue" points="870.96,-110.98 861.58,-115.91 871.99,-117.9 870.96,-110.98"/>
</g>
<!-- Node19 -->
<g id="node19" class="node">
<title>Node19</title>
<g id="a_node19"><a xlink:href="profile_8c.html" target="_top" xlink:title=" ">
<polygon fill="white" stroke="black" points="1174,-56.5 1174,-75.5 1230,-75.5 1230,-56.5 1174,-56.5"/>
<text text-anchor="middle" x="1202" y="-63.5" font-family="FreeSans" font-size="10.00">profile.c</text>
</a>
</g>
</g>
<!-- Node1&#45;&gt;Node19 -->
<g id="edge18" class="edge">
<title>Node1&#45;&gt;Node19</title>
<path fill="none" stroke="midnightblue" d="M871.81,-116.49C937.18,-109.69 1060.87,-95.52 1165,-76 1167.86,-75.46 1170.83,-74.85 1173.79,-74.19"/>
<polygon fill="midnightblue" stroke="midnightblue" points="871.42,-113.01 861.83,-117.51 872.13,-119.97 871.42,-113.01"/>
</g>
<!-- Node20 -->
<g id="node20" class="node">
<title>Node20</title>
<g id="a_node20"><a xlink:href="resource_8c.html" target="_top" xlink:title=" ">
<polygon fill="white" stroke="black" points="1248.5,-56.5 1248.5,-75.5 1315.5,-75.5 1315.5,-56.5 1248.5,-56.5"/>
<text text-anchor="middle" x="1282" y="-63.5" font-family="FreeSans" font-size="10.00">resource.c</text>
</a>
</g>
</g>
<!-- Node1&#45;&gt;Node20 -->
<g id="edge19" class="edge">
<title>Node1&#45;&gt;Node20</title>
<path fill="none" stroke="midnightblue" d="M871.74,-117.49C948.11,-111.29 1106.33,-97.06 1239,-76 1242.01,-75.52 1245.13,-74.97 1248.26,-74.39"/>
<polygon fill="midnightblue" stroke="midnightblue" points="871.2,-114.02 861.51,-118.31 871.76,-121 871.2,-114.02"/>
</g>
<!-- Node21 -->
<g id="node21" class="node">
<title>Node21</title>
<g id="a_node21"><a xlink:href="threshold_8c.html" target="_top" xlink:title=" ">
<polygon fill="white" stroke="black" points="1333.5,-56.5 1333.5,-75.5 1404.5,-75.5 1404.5,-56.5 1333.5,-56.5"/>
<text text-anchor="middle" x="1369" y="-63.5" font-family="FreeSans" font-size="10.00">threshold.c</text>
</a>
</g>
</g>
<!-- Node1&#45;&gt;Node21 -->
<g id="edge20" class="edge">
<title>Node1&#45;&gt;Node21</title>
<path fill="none" stroke="midnightblue" d="M871.74,-118.59C959.82,-113.57 1158.98,-100.39 1325,-76 1327.62,-75.61 1330.33,-75.17 1333.04,-74.7"/>
<polygon fill="midnightblue" stroke="midnightblue" points="871.34,-115.11 861.55,-119.16 871.73,-122.1 871.34,-115.11"/>
</g>
<!-- Node22 -->
<g id="node22" class="node">
<title>Node22</title>
<g id="a_node22"><a xlink:href="type_8c.html" target="_top" xlink:title=" ">
<polygon fill="white" stroke="black" points="1422.5,-56.5 1422.5,-75.5 1469.5,-75.5 1469.5,-56.5 1422.5,-56.5"/>
<text text-anchor="middle" x="1446" y="-63.5" font-family="FreeSans" font-size="10.00">type.c</text>
</a>
</g>
</g>
<!-- Node1&#45;&gt;Node22 -->
<g id="edge21" class="edge">
<title>Node1&#45;&gt;Node22</title>
<path fill="none" stroke="midnightblue" d="M871.78,-120.57C971.23,-118.95 1214.15,-111.39 1414,-76 1416.73,-75.52 1419.56,-74.9 1422.36,-74.21"/>
<polygon fill="midnightblue" stroke="midnightblue" points="871.71,-117.07 861.77,-120.72 871.82,-124.07 871.71,-117.07"/>
</g>
<!-- Node23 -->
<g id="node23" class="node">
<title>Node23</title>
<g id="a_node23"><a xlink:href="version_8c.html" target="_top" xlink:title=" ">
<polygon fill="white" stroke="black" points="1487.5,-56.5 1487.5,-75.5 1548.5,-75.5 1548.5,-56.5 1487.5,-56.5"/>
<text text-anchor="middle" x="1518" y="-63.5" font-family="FreeSans" font-size="10.00">version.c</text>
</a>
</g>
</g>
<!-- Node1&#45;&gt;Node23 -->
<g id="edge22" class="edge">
<title>Node1&#45;&gt;Node23</title>
<path fill="none" stroke="midnightblue" d="M871.71,-120.33C978.56,-118.22 1252.75,-109.69 1479,-76 1481.75,-75.59 1484.59,-75.09 1487.43,-74.54"/>
<polygon fill="midnightblue" stroke="midnightblue" points="871.54,-116.83 861.6,-120.52 871.67,-123.83 871.54,-116.83"/>
</g>
<!-- Node3 -->
<g id="node3" class="node">
<title>Node3</title>
<g id="a_node3"><a xlink:href="ImageMagick_8h.html" target="_top" xlink:title=" ">
<polygon fill="white" stroke="black" points="0,-0.5 0,-19.5 92,-19.5 92,-0.5 0,-0.5"/>
<text text-anchor="middle" x="46" y="-7.5" font-family="FreeSans" font-size="10.00">ImageMagick.h</text>
</a>
</g>
</g>
<!-- Node2&#45;&gt;Node3 -->
<g id="edge2" class="edge">
<title>Node2&#45;&gt;Node3</title>
<path fill="none" stroke="midnightblue" d="M108.81,-50.9C93.22,-41 72.87,-28.07 59.62,-19.65"/>
<polygon fill="midnightblue" stroke="midnightblue" points="107.03,-53.92 117.34,-56.32 110.78,-48.01 107.03,-53.92"/>
</g>
<!-- Node4 -->
<g id="node4" class="node">
<title>Node4</title>
<g id="a_node4"><a xlink:href="api_8h.html" target="_top" xlink:title=" ">
<polygon fill="white" stroke="black" points="110.5,-0.5 110.5,-19.5 151.5,-19.5 151.5,-0.5 110.5,-0.5"/>
<text text-anchor="middle" x="131" y="-7.5" font-family="FreeSans" font-size="10.00">api.h</text>
</a>
</g>
</g>
<!-- Node2&#45;&gt;Node4 -->
<g id="edge3" class="edge">
<title>Node2&#45;&gt;Node4</title>
<path fill="none" stroke="midnightblue" d="M131,-45.8C131,-36.91 131,-26.78 131,-19.75"/>
<polygon fill="midnightblue" stroke="midnightblue" points="127.5,-46.08 131,-56.08 134.5,-46.08 127.5,-46.08"/>
</g>
<!-- Node5 -->
<g id="node5" class="node">
<title>Node5</title>
<g id="a_node5"><a xlink:href="image-view_8c.html" target="_top" xlink:title=" ">
<polygon fill="white" stroke="black" points="169.5,-0.5 169.5,-19.5 250.5,-19.5 250.5,-0.5 169.5,-0.5"/>
<text text-anchor="middle" x="210" y="-7.5" font-family="FreeSans" font-size="10.00">image&#45;view.c</text>
</a>
</g>
</g>
<!-- Node2&#45;&gt;Node5 -->
<g id="edge4" class="edge">
<title>Node2&#45;&gt;Node5</title>
<path fill="none" stroke="midnightblue" d="M152.03,-50.62C166.47,-40.76 185.14,-27.99 197.34,-19.65"/>
<polygon fill="midnightblue" stroke="midnightblue" points="149.97,-47.79 143.69,-56.32 153.92,-53.57 149.97,-47.79"/>
</g>
</g>
</svg>
