<?xml version="1.0" encoding="UTF-8" standalone="no"?>
<!DOCTYPE svg PUBLIC "-//W3C//DTD SVG 1.1//EN"
 "http://www.w3.org/Graphics/SVG/1.1/DTD/svg11.dtd">
<!-- Generated by graphviz version 2.43.0 (0)
 -->
<!-- Title: constitute.h Pages: 1 -->
<svg width="4238pt" height="420pt"
 viewBox="0.00 0.00 4238.00 420.00" xmlns="http://www.w3.org/2000/svg" xmlns:xlink="http://www.w3.org/1999/xlink">
<g id="graph0" class="graph" transform="scale(1 1) rotate(0) translate(4 416)">
<title>constitute.h</title>
<polygon fill="white" stroke="transparent" points="-4,4 -4,-416 4234,-416 4234,4 -4,4"/>
<!-- Node1 -->
<g id="node1" class="node">
<title>Node1</title>
<g id="a_node1"><a xlink:title=" ">
<polygon fill="#bfbfbf" stroke="black" points="2670,-392.5 2670,-411.5 2744,-411.5 2744,-392.5 2670,-392.5"/>
<text text-anchor="middle" x="2707" y="-399.5" font-family="FreeSans" font-size="10.00">constitute.h</text>
</a>
</g>
</g>
<!-- Node2 -->
<g id="node2" class="node">
<title>Node2</title>
<g id="a_node2"><a xlink:href="MagickCore_8h.html" target="_top" xlink:title=" ">
<polygon fill="white" stroke="black" points="1598.5,-56.5 1598.5,-75.5 1681.5,-75.5 1681.5,-56.5 1598.5,-56.5"/>
<text text-anchor="middle" x="1640" y="-63.5" font-family="FreeSans" font-size="10.00">MagickCore.h</text>
</a>
</g>
</g>
<!-- Node1&#45;&gt;Node2 -->
<g id="edge1" class="edge">
<title>Node1&#45;&gt;Node2</title>
<path fill="none" stroke="midnightblue" d="M2659.74,-400.69C2321.42,-398.42 277.34,-383.57 150,-356 78.99,-340.62 0,-363.66 0,-291 0,-291 0,-291 0,-177 0,-130.49 38.31,-127.93 82,-112 155.21,-85.31 1358.36,-70.22 1598.49,-67.46"/>
<polygon fill="midnightblue" stroke="midnightblue" points="2659.91,-404.19 2669.93,-400.76 2659.95,-397.19 2659.91,-404.19"/>
</g>
<!-- Node6 -->
<g id="node6" class="node">
<title>Node6</title>
<g id="a_node6"><a xlink:href="animate_8c.html" target="_top" xlink:title=" ">
<polygon fill="white" stroke="black" points="3605.5,-112.5 3605.5,-131.5 3670.5,-131.5 3670.5,-112.5 3605.5,-112.5"/>
<text text-anchor="middle" x="3638" y="-119.5" font-family="FreeSans" font-size="10.00">animate.c</text>
</a>
</g>
</g>
<!-- Node1&#45;&gt;Node6 -->
<g id="edge5" class="edge">
<title>Node1&#45;&gt;Node6</title>
<path fill="none" stroke="midnightblue" d="M2754.33,-400.38C2932.73,-397.85 3564.44,-386.84 3763,-356 3871.78,-339.11 4002,-401.08 4002,-291 4002,-291 4002,-291 4002,-233 4002,-164.09 3759.97,-134.42 3670.62,-125.82"/>
<polygon fill="midnightblue" stroke="midnightblue" points="2754.16,-396.89 2744.21,-400.53 2754.26,-403.89 2754.16,-396.89"/>
</g>
<!-- Node7 -->
<g id="node7" class="node">
<title>Node7</title>
<g id="a_node7"><a xlink:href="annotate_8c.html" target="_top" xlink:title=" ">
<polygon fill="white" stroke="black" points="1129,-112.5 1129,-131.5 1197,-131.5 1197,-112.5 1129,-112.5"/>
<text text-anchor="middle" x="1163" y="-119.5" font-family="FreeSans" font-size="10.00">annotate.c</text>
</a>
</g>
</g>
<!-- Node1&#45;&gt;Node7 -->
<g id="edge6" class="edge">
<title>Node1&#45;&gt;Node7</title>
<path fill="none" stroke="midnightblue" d="M2659.6,-401.15C2358.76,-401.97 724.92,-404.16 632,-356 600.12,-339.47 584,-326.91 584,-291 584,-291 584,-291 584,-233 584,-194.87 606.05,-185.36 640,-168 650.93,-162.41 1014.07,-134.34 1128.69,-125.6"/>
<polygon fill="midnightblue" stroke="midnightblue" points="2659.74,-404.65 2669.73,-401.12 2659.72,-397.65 2659.74,-404.65"/>
</g>
<!-- Node8 -->
<g id="node8" class="node">
<title>Node8</title>
<g id="a_node8"><a xlink:href="artifact_8c.html" target="_top" xlink:title=" ">
<polygon fill="white" stroke="black" points="3772,-112.5 3772,-131.5 3832,-131.5 3832,-112.5 3772,-112.5"/>
<text text-anchor="middle" x="3802" y="-119.5" font-family="FreeSans" font-size="10.00">artifact.c</text>
</a>
</g>
</g>
<!-- Node1&#45;&gt;Node8 -->
<g id="edge7" class="edge">
<title>Node1&#45;&gt;Node8</title>
<path fill="none" stroke="midnightblue" d="M2754.32,-400.26C2960.88,-396.88 3778.2,-381.96 3890,-356 3949.69,-342.14 3982.61,-351.38 4016,-300 4051.74,-245 4007.58,-199.41 3950,-168 3911.92,-147.23 3862.99,-134.76 3832.05,-128.38"/>
<polygon fill="midnightblue" stroke="midnightblue" points="2754.05,-396.76 2744.11,-400.42 2754.16,-403.76 2754.05,-396.76"/>
</g>
<!-- Node9 -->
<g id="node9" class="node">
<title>Node9</title>
<g id="a_node9"><a xlink:href="attribute_8c.html" target="_top" xlink:title=" ">
<polygon fill="white" stroke="black" points="3416.5,-56.5 3416.5,-75.5 3483.5,-75.5 3483.5,-56.5 3416.5,-56.5"/>
<text text-anchor="middle" x="3450" y="-63.5" font-family="FreeSans" font-size="10.00">attribute.c</text>
</a>
</g>
</g>
<!-- Node1&#45;&gt;Node9 -->
<g id="edge8" class="edge">
<title>Node1&#45;&gt;Node9</title>
<path fill="none" stroke="midnightblue" d="M2754.22,-400.85C3000.5,-399.91 4128.81,-393.54 4192,-356 4220.77,-338.91 4230,-324.46 4230,-291 4230,-291 4230,-291 4230,-177 4230,-100.42 3632.81,-73.64 3483.52,-68.14"/>
<polygon fill="midnightblue" stroke="midnightblue" points="2754.15,-397.35 2744.16,-400.89 2754.17,-404.35 2754.15,-397.35"/>
</g>
<!-- Node10 -->
<g id="node10" class="node">
<title>Node10</title>
<g id="a_node10"><a xlink:href="blob_8c.html" target="_top" xlink:title=" ">
<polygon fill="white" stroke="black" points="142,-112.5 142,-131.5 188,-131.5 188,-112.5 142,-112.5"/>
<text text-anchor="middle" x="165" y="-119.5" font-family="FreeSans" font-size="10.00">blob.c</text>
</a>
</g>
</g>
<!-- Node1&#45;&gt;Node10 -->
<g id="edge9" class="edge">
<title>Node1&#45;&gt;Node10</title>
<path fill="none" stroke="midnightblue" d="M2659.62,-400.88C2320.58,-399.97 275.38,-392.91 224,-356 149.1,-302.2 159.55,-167.64 163.81,-131.86"/>
<polygon fill="midnightblue" stroke="midnightblue" points="2659.82,-404.38 2669.83,-400.91 2659.84,-397.38 2659.82,-404.38"/>
</g>
<!-- Node11 -->
<g id="node11" class="node">
<title>Node11</title>
<g id="a_node11"><a xlink:href="compare_8c.html" target="_top" xlink:title=" ">
<polygon fill="white" stroke="black" points="3210,-112.5 3210,-131.5 3278,-131.5 3278,-112.5 3210,-112.5"/>
<text text-anchor="middle" x="3244" y="-119.5" font-family="FreeSans" font-size="10.00">compare.c</text>
</a>
</g>
</g>
<!-- Node1&#45;&gt;Node11 -->
<g id="edge10" class="edge">
<title>Node1&#45;&gt;Node11</title>
<path fill="none" stroke="midnightblue" d="M2754.28,-399.52C2926.18,-393.52 3508,-367.56 3508,-291 3508,-291 3508,-291 3508,-233 3508,-207.68 3340.36,-152.86 3272.25,-131.64"/>
<polygon fill="midnightblue" stroke="midnightblue" points="2753.9,-396.03 2744.03,-399.87 2754.14,-403.03 2753.9,-396.03"/>
</g>
<!-- Node12 -->
<g id="node12" class="node">
<title>Node12</title>
<g id="a_node12"><a xlink:href="composite_8c.html" target="_top" xlink:title=" ">
<polygon fill="white" stroke="black" points="3116,-112.5 3116,-131.5 3192,-131.5 3192,-112.5 3116,-112.5"/>
<text text-anchor="middle" x="3154" y="-119.5" font-family="FreeSans" font-size="10.00">composite.c</text>
</a>
</g>
</g>
<!-- Node1&#45;&gt;Node12 -->
<g id="edge11" class="edge">
<title>Node1&#45;&gt;Node12</title>
<path fill="none" stroke="midnightblue" d="M2754.22,-400.17C2924.09,-396.94 3495.48,-384.02 3522,-356 3632.32,-239.42 3306.74,-155.99 3192.24,-130.87"/>
<polygon fill="midnightblue" stroke="midnightblue" points="2754.02,-396.67 2744.09,-400.36 2754.15,-403.67 2754.02,-396.67"/>
</g>
<!-- Node13 -->
<g id="node13" class="node">
<title>Node13</title>
<g id="a_node13"><a xlink:href="compress_8c.html" target="_top" xlink:title=" ">
<polygon fill="white" stroke="black" points="840,-168.5 840,-187.5 912,-187.5 912,-168.5 840,-168.5"/>
<text text-anchor="middle" x="876" y="-175.5" font-family="FreeSans" font-size="10.00">compress.c</text>
</a>
</g>
</g>
<!-- Node1&#45;&gt;Node13 -->
<g id="edge12" class="edge">
<title>Node1&#45;&gt;Node13</title>
<path fill="none" stroke="midnightblue" d="M2659.65,-400.15C2460.96,-396.43 1693.71,-380.76 1453,-356 1305.89,-340.87 1265.81,-345.22 1125,-300 1030.73,-269.73 926.94,-209.82 890,-187.58"/>
<polygon fill="midnightblue" stroke="midnightblue" points="2659.7,-403.65 2669.76,-400.33 2659.83,-396.65 2659.7,-403.65"/>
</g>
<!-- Node14 -->
<g id="node14" class="node">
<title>Node14</title>
<g id="a_node14"><a xlink:href="constitute_8c.html" target="_top" xlink:title=" ">
<polygon fill="white" stroke="black" points="370,-112.5 370,-131.5 444,-131.5 444,-112.5 370,-112.5"/>
<text text-anchor="middle" x="407" y="-119.5" font-family="FreeSans" font-size="10.00">constitute.c</text>
</a>
</g>
</g>
<!-- Node1&#45;&gt;Node14 -->
<g id="edge13" class="edge">
<title>Node1&#45;&gt;Node14</title>
<path fill="none" stroke="midnightblue" d="M2659.64,-400.81C2358.64,-399.53 718.07,-390.98 498,-356 399.83,-340.4 284,-390.4 284,-291 284,-291 284,-291 284,-233 284,-180.14 347.89,-146.34 383.58,-131.58"/>
<polygon fill="midnightblue" stroke="midnightblue" points="2659.76,-404.32 2669.77,-400.86 2659.79,-397.32 2659.76,-404.32"/>
</g>
<!-- Node15 -->
<g id="node15" class="node">
<title>Node15</title>
<g id="a_node15"><a xlink:href="delegate_8c.html" target="_top" xlink:title=" ">
<polygon fill="white" stroke="black" points="206,-112.5 206,-131.5 274,-131.5 274,-112.5 206,-112.5"/>
<text text-anchor="middle" x="240" y="-119.5" font-family="FreeSans" font-size="10.00">delegate.c</text>
</a>
</g>
</g>
<!-- Node1&#45;&gt;Node15 -->
<g id="edge14" class="edge">
<title>Node1&#45;&gt;Node15</title>
<path fill="none" stroke="midnightblue" d="M2659.66,-400.68C2324.13,-398.34 317,-383.23 261,-356 227.48,-339.7 208,-328.28 208,-291 208,-291 208,-291 208,-233 208,-193.82 226.95,-149.8 235.68,-131.59"/>
<polygon fill="midnightblue" stroke="midnightblue" points="2659.97,-404.18 2669.99,-400.75 2660.02,-397.18 2659.97,-404.18"/>
</g>
<!-- Node16 -->
<g id="node16" class="node">
<title>Node16</title>
<g id="a_node16"><a xlink:href="deprecate_8c.html" target="_top" xlink:title=" ">
<polygon fill="white" stroke="black" points="1718,-56.5 1718,-75.5 1792,-75.5 1792,-56.5 1718,-56.5"/>
<text text-anchor="middle" x="1755" y="-63.5" font-family="FreeSans" font-size="10.00">deprecate.c</text>
</a>
</g>
</g>
<!-- Node1&#45;&gt;Node16 -->
<g id="edge15" class="edge">
<title>Node1&#45;&gt;Node16</title>
<path fill="none" stroke="midnightblue" d="M2659.57,-400.86C2316.88,-399.75 231.78,-391.57 178,-356 110.24,-311.19 121.12,-267.82 106,-188 101.78,-165.71 113.98,-112.02 114,-112 146.75,-82.93 1646.35,-79.51 1690,-76 1699.08,-75.27 1708.84,-74.12 1717.96,-72.88"/>
<polygon fill="midnightblue" stroke="midnightblue" points="2659.64,-404.36 2669.65,-400.89 2659.66,-397.36 2659.64,-404.36"/>
</g>
<!-- Node17 -->
<g id="node17" class="node">
<title>Node17</title>
<g id="a_node17"><a xlink:href="deprecate_8h.html" target="_top" xlink:title=" ">
<polygon fill="white" stroke="black" points="3374,-112.5 3374,-131.5 3448,-131.5 3448,-112.5 3374,-112.5"/>
<text text-anchor="middle" x="3411" y="-119.5" font-family="FreeSans" font-size="10.00">deprecate.h</text>
</a>
</g>
</g>
<!-- Node1&#45;&gt;Node17 -->
<g id="edge16" class="edge">
<title>Node1&#45;&gt;Node17</title>
<path fill="none" stroke="midnightblue" d="M2754.1,-401.49C2969.45,-403.13 3850,-402.98 3850,-291 3850,-291 3850,-291 3850,-233 3850,-150.4 3553.89,-129.28 3448.05,-124.37"/>
<polygon fill="midnightblue" stroke="midnightblue" points="2754.08,-397.99 2744.06,-401.41 2754.03,-404.99 2754.08,-397.99"/>
</g>
<!-- Node18 -->
<g id="node18" class="node">
<title>Node18</title>
<g id="a_node18"><a xlink:href="feature_8c.html" target="_top" xlink:title=" ">
<polygon fill="white" stroke="black" points="2565,-56.5 2565,-75.5 2625,-75.5 2625,-56.5 2565,-56.5"/>
<text text-anchor="middle" x="2595" y="-63.5" font-family="FreeSans" font-size="10.00">feature.c</text>
</a>
</g>
</g>
<!-- Node1&#45;&gt;Node18 -->
<g id="edge28" class="edge">
<title>Node1&#45;&gt;Node18</title>
<path fill="none" stroke="midnightblue" d="M2754.34,-400.99C2952.13,-400.71 3712.99,-396.91 3949,-356 4043.18,-339.68 4154,-386.58 4154,-291 4154,-291 4154,-291 4154,-233 4154,-161.73 3926.73,-126.73 3857,-112 3590.97,-55.81 2903.67,-110.74 2634,-76 2631.11,-75.63 2628.11,-75.13 2625.13,-74.57"/>
<polygon fill="midnightblue" stroke="midnightblue" points="2754.27,-397.49 2744.27,-401.01 2754.28,-404.49 2754.27,-397.49"/>
</g>
<!-- Node19 -->
<g id="node19" class="node">
<title>Node19</title>
<g id="a_node19"><a xlink:href="image_8c.html" target="_top" xlink:title=" ">
<polygon fill="white" stroke="black" points="1853,-56.5 1853,-75.5 1909,-75.5 1909,-56.5 1853,-56.5"/>
<text text-anchor="middle" x="1881" y="-63.5" font-family="FreeSans" font-size="10.00">image.c</text>
</a>
</g>
</g>
<!-- Node1&#45;&gt;Node19 -->
<g id="edge31" class="edge">
<title>Node1&#45;&gt;Node19</title>
<path fill="none" stroke="midnightblue" d="M2659.75,-400.81C2319.46,-399.38 254.53,-389.32 200,-356 175.91,-341.28 179.8,-326.48 170,-300 140.46,-220.13 73.44,-172.86 133,-112 165.41,-78.88 1754.76,-79.09 1801,-76 1818.29,-74.84 1837.6,-72.7 1852.92,-70.79"/>
<polygon fill="midnightblue" stroke="midnightblue" points="2659.98,-404.31 2670,-400.85 2660.01,-397.31 2659.98,-404.31"/>
</g>
<!-- Node22 -->
<g id="node22" class="node">
<title>Node22</title>
<g id="a_node22"><a xlink:href="statistic_8c.html" target="_top" xlink:title=" ">
<polygon fill="white" stroke="black" points="2643,-56.5 2643,-75.5 2707,-75.5 2707,-56.5 2643,-56.5"/>
<text text-anchor="middle" x="2675" y="-63.5" font-family="FreeSans" font-size="10.00">statistic.c</text>
</a>
</g>
</g>
<!-- Node1&#45;&gt;Node22 -->
<g id="edge193" class="edge">
<title>Node1&#45;&gt;Node22</title>
<path fill="none" stroke="midnightblue" d="M2754.34,-401.02C2998.82,-400.93 4109.37,-398.21 4168,-356 4192.99,-338.01 4192,-321.8 4192,-291 4192,-291 4192,-291 4192,-177 4192,-167.38 4231.54,-152.53 3873,-112 3637.62,-85.39 2873.67,-70.52 2707.22,-67.56"/>
<polygon fill="midnightblue" stroke="midnightblue" points="2754.02,-397.52 2744.02,-401.02 2754.02,-404.52 2754.02,-397.52"/>
</g>
<!-- Node23 -->
<g id="node23" class="node">
<title>Node23</title>
<g id="a_node23"><a xlink:href="display_8c.html" target="_top" xlink:title=" ">
<polygon fill="white" stroke="black" points="2143.5,-112.5 2143.5,-131.5 2202.5,-131.5 2202.5,-112.5 2143.5,-112.5"/>
<text text-anchor="middle" x="2173" y="-119.5" font-family="FreeSans" font-size="10.00">display.c</text>
</a>
</g>
</g>
<!-- Node1&#45;&gt;Node23 -->
<g id="edge25" class="edge">
<title>Node1&#45;&gt;Node23</title>
<path fill="none" stroke="midnightblue" d="M2659.72,-400.8C2366.79,-399.25 812,-386.52 812,-291 812,-291 812,-291 812,-233 812,-202.9 807.22,-186.45 831,-168 857.83,-147.18 1948.68,-126.96 2143.41,-123.51"/>
<polygon fill="midnightblue" stroke="midnightblue" points="2659.98,-404.3 2670,-400.85 2660.01,-397.3 2659.98,-404.3"/>
</g>
<!-- Node24 -->
<g id="node24" class="node">
<title>Node24</title>
<g id="a_node24"><a xlink:href="draw_8c.html" target="_top" xlink:title=" ">
<polygon fill="white" stroke="black" points="1545,-112.5 1545,-131.5 1593,-131.5 1593,-112.5 1545,-112.5"/>
<text text-anchor="middle" x="1569" y="-119.5" font-family="FreeSans" font-size="10.00">draw.c</text>
</a>
</g>
</g>
<!-- Node1&#45;&gt;Node24 -->
<g id="edge26" class="edge">
<title>Node1&#45;&gt;Node24</title>
<path fill="none" stroke="midnightblue" d="M2659.49,-400.63C2398.12,-398.49 1141.01,-386.66 971,-356 895.62,-342.41 857.83,-358.18 808,-300 769.83,-255.43 766.16,-205.85 811,-168 825.37,-155.87 1416.69,-129.6 1544.72,-124.04"/>
<polygon fill="midnightblue" stroke="midnightblue" points="2659.75,-404.13 2669.78,-400.72 2659.81,-397.13 2659.75,-404.13"/>
</g>
<!-- Node25 -->
<g id="node25" class="node">
<title>Node25</title>
<g id="a_node25"><a xlink:href="effect_8c.html" target="_top" xlink:title=" ">
<polygon fill="white" stroke="black" points="2382.5,-112.5 2382.5,-131.5 2435.5,-131.5 2435.5,-112.5 2382.5,-112.5"/>
<text text-anchor="middle" x="2409" y="-119.5" font-family="FreeSans" font-size="10.00">effect.c</text>
</a>
</g>
</g>
<!-- Node1&#45;&gt;Node25 -->
<g id="edge27" class="edge">
<title>Node1&#45;&gt;Node25</title>
<path fill="none" stroke="midnightblue" d="M2754.05,-395.62C2801.21,-389.14 2869.04,-376.5 2885,-356 2905.75,-329.35 2902.86,-308.67 2885,-280 2855.15,-232.09 2822.03,-248.14 2771,-224 2716.7,-198.31 2705.26,-186.13 2648,-168 2572.93,-144.23 2480.39,-131.21 2435.68,-125.89"/>
<polygon fill="midnightblue" stroke="midnightblue" points="2753.49,-392.16 2744.04,-396.94 2754.41,-399.1 2753.49,-392.16"/>
</g>
<!-- Node26 -->
<g id="node26" class="node">
<title>Node26</title>
<g id="a_node26"><a xlink:href="geometry_8c.html" target="_top" xlink:title=" ">
<polygon fill="white" stroke="black" points="959.5,-112.5 959.5,-131.5 1030.5,-131.5 1030.5,-112.5 959.5,-112.5"/>
<text text-anchor="middle" x="995" y="-119.5" font-family="FreeSans" font-size="10.00">geometry.c</text>
</a>
</g>
</g>
<!-- Node1&#45;&gt;Node26 -->
<g id="edge29" class="edge">
<title>Node1&#45;&gt;Node26</title>
<path fill="none" stroke="midnightblue" d="M2659.33,-401.12C2355,-401.77 693.43,-403.13 598,-356 564.83,-339.62 546,-328 546,-291 546,-291 546,-291 546,-233 546,-194.87 568.3,-185.84 602,-168 633.26,-151.45 868.69,-132.4 959.46,-125.59"/>
<polygon fill="midnightblue" stroke="midnightblue" points="2659.59,-404.62 2669.58,-401.1 2659.57,-397.62 2659.59,-404.62"/>
</g>
<!-- Node27 -->
<g id="node27" class="node">
<title>Node27</title>
<g id="a_node27"><a xlink:href="identify_8c.html" target="_top" xlink:title=" ">
<polygon fill="white" stroke="black" points="3296,-112.5 3296,-131.5 3356,-131.5 3356,-112.5 3296,-112.5"/>
<text text-anchor="middle" x="3326" y="-119.5" font-family="FreeSans" font-size="10.00">identify.c</text>
</a>
</g>
</g>
<!-- Node1&#45;&gt;Node27 -->
<g id="edge30" class="edge">
<title>Node1&#45;&gt;Node27</title>
<path fill="none" stroke="midnightblue" d="M2754.18,-400.05C2926.59,-396.39 3514.02,-382.04 3544,-356 3569.76,-333.62 3567.48,-311.77 3555,-280 3521.26,-194.08 3409.86,-148.85 3355.86,-131.51"/>
<polygon fill="midnightblue" stroke="midnightblue" points="2754.07,-396.56 2744.14,-400.26 2754.21,-403.55 2754.07,-396.56"/>
</g>
<!-- Node28 -->
<g id="node28" class="node">
<title>Node28</title>
<g id="a_node28"><a xlink:href="magick_8c.html" target="_top" xlink:title=" ">
<polygon fill="white" stroke="black" points="500.5,-112.5 500.5,-131.5 561.5,-131.5 561.5,-112.5 500.5,-112.5"/>
<text text-anchor="middle" x="531" y="-119.5" font-family="FreeSans" font-size="10.00">magick.c</text>
</a>
</g>
</g>
<!-- Node1&#45;&gt;Node28 -->
<g id="edge32" class="edge">
<title>Node1&#45;&gt;Node28</title>
<path fill="none" stroke="midnightblue" d="M2659.41,-401.22C2350.03,-402.49 634,-407.2 537,-356 449.34,-309.73 361.24,-249.96 417,-168 435.55,-140.73 473.43,-129.99 500.43,-125.75"/>
<polygon fill="midnightblue" stroke="midnightblue" points="2659.83,-404.72 2669.82,-401.17 2659.8,-397.72 2659.83,-404.72"/>
</g>
<!-- Node29 -->
<g id="node29" class="node">
<title>Node29</title>
<g id="a_node29"><a xlink:href="montage_8c.html" target="_top" xlink:title=" ">
<polygon fill="white" stroke="black" points="2804,-112.5 2804,-131.5 2872,-131.5 2872,-112.5 2804,-112.5"/>
<text text-anchor="middle" x="2838" y="-119.5" font-family="FreeSans" font-size="10.00">montage.c</text>
</a>
</g>
</g>
<!-- Node1&#45;&gt;Node29 -->
<g id="edge33" class="edge">
<title>Node1&#45;&gt;Node29</title>
<path fill="none" stroke="midnightblue" d="M2729.54,-386.76C2754.71,-369.53 2794.46,-338.05 2814,-300 2844.04,-241.52 2840.78,-158.51 2838.78,-131.71"/>
<polygon fill="midnightblue" stroke="midnightblue" points="2727.38,-383.99 2720.99,-392.45 2731.26,-389.82 2727.38,-383.99"/>
</g>
<!-- Node30 -->
<g id="node30" class="node">
<title>Node30</title>
<g id="a_node30"><a xlink:href="opencl_8c.html" target="_top" xlink:title=" ">
<polygon fill="white" stroke="black" points="2966.5,-112.5 2966.5,-131.5 3023.5,-131.5 3023.5,-112.5 2966.5,-112.5"/>
<text text-anchor="middle" x="2995" y="-119.5" font-family="FreeSans" font-size="10.00">opencl.c</text>
</a>
</g>
</g>
<!-- Node1&#45;&gt;Node30 -->
<g id="edge34" class="edge">
<title>Node1&#45;&gt;Node30</title>
<path fill="none" stroke="midnightblue" d="M2754.25,-398.63C2848.41,-393.41 3052.2,-379.51 3073,-356 3134.9,-286.03 3033.81,-165.26 3003.3,-131.81"/>
<polygon fill="midnightblue" stroke="midnightblue" points="2753.94,-395.14 2744.14,-399.18 2754.32,-402.13 2753.94,-395.14"/>
</g>
<!-- Node31 -->
<g id="node31" class="node">
<title>Node31</title>
<g id="a_node31"><a xlink:href="option_8c.html" target="_top" xlink:title=" ">
<polygon fill="white" stroke="black" points="3042,-112.5 3042,-131.5 3098,-131.5 3098,-112.5 3042,-112.5"/>
<text text-anchor="middle" x="3070" y="-119.5" font-family="FreeSans" font-size="10.00">option.c</text>
</a>
</g>
</g>
<!-- Node1&#45;&gt;Node31 -->
<g id="edge35" class="edge">
<title>Node1&#45;&gt;Node31</title>
<path fill="none" stroke="midnightblue" d="M2754.44,-398.55C2852.25,-393.06 3069.28,-378.47 3094,-356 3160.2,-295.83 3094.89,-167 3075.22,-131.96"/>
<polygon fill="midnightblue" stroke="midnightblue" points="2754.03,-395.06 2744.24,-399.11 2754.42,-402.05 2754.03,-395.06"/>
</g>
<!-- Node32 -->
<g id="node32" class="node">
<title>Node32</title>
<g id="a_node32"><a xlink:href="pixel_8c.html" target="_top" xlink:title=" ">
<polygon fill="white" stroke="black" points="1215,-112.5 1215,-131.5 1263,-131.5 1263,-112.5 1215,-112.5"/>
<text text-anchor="middle" x="1239" y="-119.5" font-family="FreeSans" font-size="10.00">pixel.c</text>
</a>
</g>
</g>
<!-- Node1&#45;&gt;Node32 -->
<g id="edge36" class="edge">
<title>Node1&#45;&gt;Node32</title>
<path fill="none" stroke="midnightblue" d="M2659.28,-400.57C2386.8,-397.99 1033.36,-383.9 850,-356 745.83,-340.15 622,-396.37 622,-291 622,-291 622,-291 622,-233 622,-153.35 711.43,-186.05 789,-168 970.18,-125.84 1022.86,-164.61 1206,-132 1208.92,-131.48 1211.96,-130.82 1214.96,-130.09"/>
<polygon fill="midnightblue" stroke="midnightblue" points="2659.59,-404.07 2669.62,-400.66 2659.65,-397.07 2659.59,-404.07"/>
</g>
<!-- Node33 -->
<g id="node33" class="node">
<title>Node33</title>
<g id="a_node33"><a xlink:href="pixel_8h.html" target="_top" xlink:title=" ">
<polygon fill="white" stroke="red" points="1462.5,-336.5 1462.5,-355.5 1511.5,-355.5 1511.5,-336.5 1462.5,-336.5"/>
<text text-anchor="middle" x="1487" y="-343.5" font-family="FreeSans" font-size="10.00">pixel.h</text>
</a>
</g>
</g>
<!-- Node1&#45;&gt;Node33 -->
<g id="edge37" class="edge">
<title>Node1&#45;&gt;Node33</title>
<path fill="none" stroke="midnightblue" d="M2659.78,-398.91C2456.92,-389.93 1662.78,-354.78 1511.85,-348.1"/>
<polygon fill="midnightblue" stroke="midnightblue" points="2659.68,-402.41 2669.82,-399.35 2659.99,-395.42 2659.68,-402.41"/>
</g>
<!-- Node49 -->
<g id="node39" class="node">
<title>Node49</title>
<g id="a_node39"><a xlink:href="property_8c.html" target="_top" xlink:title=" ">
<polygon fill="white" stroke="black" points="2720.5,-112.5 2720.5,-131.5 2785.5,-131.5 2785.5,-112.5 2720.5,-112.5"/>
<text text-anchor="middle" x="2753" y="-119.5" font-family="FreeSans" font-size="10.00">property.c</text>
</a>
</g>
</g>
<!-- Node1&#45;&gt;Node49 -->
<g id="edge189" class="edge">
<title>Node1&#45;&gt;Node49</title>
<path fill="none" stroke="midnightblue" d="M2754.41,-397.83C2811.34,-392.94 2901.84,-381.32 2923,-356 2960.63,-310.97 2954.63,-275.23 2926,-224 2896.48,-171.17 2827.17,-143.5 2785.79,-131.19"/>
<polygon fill="midnightblue" stroke="midnightblue" points="2753.87,-394.37 2744.19,-398.67 2754.44,-401.34 2753.87,-394.37"/>
</g>
<!-- Node51 -->
<g id="node40" class="node">
<title>Node51</title>
<g id="a_node40"><a xlink:href="quantum_8c.html" target="_top" xlink:title=" ">
<polygon fill="white" stroke="black" points="618,-112.5 618,-131.5 686,-131.5 686,-112.5 618,-112.5"/>
<text text-anchor="middle" x="652" y="-119.5" font-family="FreeSans" font-size="10.00">quantum.c</text>
</a>
</g>
</g>
<!-- Node1&#45;&gt;Node51 -->
<g id="edge192" class="edge">
<title>Node1&#45;&gt;Node51</title>
<path fill="none" stroke="midnightblue" d="M2659.65,-400.75C2348.32,-398.98 606.03,-387.72 562,-356 513.19,-320.83 516.56,-282.15 532,-224 539.36,-196.29 543.26,-187.79 564,-168 581.87,-150.94 607.48,-138.83 626.47,-131.51"/>
<polygon fill="midnightblue" stroke="midnightblue" points="2659.68,-404.25 2669.69,-400.8 2659.71,-397.25 2659.68,-404.25"/>
</g>
<!-- Node82 -->
<g id="node41" class="node">
<title>Node82</title>
<g id="a_node41"><a xlink:href="threshold_8c.html" target="_top" xlink:title=" ">
<polygon fill="white" stroke="black" points="2293.5,-112.5 2293.5,-131.5 2364.5,-131.5 2364.5,-112.5 2293.5,-112.5"/>
<text text-anchor="middle" x="2329" y="-119.5" font-family="FreeSans" font-size="10.00">threshold.c</text>
</a>
</g>
</g>
<!-- Node1&#45;&gt;Node82 -->
<g id="edge195" class="edge">
<title>Node1&#45;&gt;Node82</title>
<path fill="none" stroke="midnightblue" d="M2754,-396.25C2805.79,-390.02 2884.49,-377.31 2905,-356 2946.2,-313.2 2963.63,-269.97 2926,-224 2847.09,-127.6 2495.87,-152.58 2373,-132 2370.23,-131.54 2367.37,-131.03 2364.5,-130.49"/>
<polygon fill="midnightblue" stroke="midnightblue" points="2753.55,-392.77 2744.02,-397.4 2754.36,-399.73 2753.55,-392.77"/>
</g>
<!-- Node83 -->
<g id="node43" class="node">
<title>Node83</title>
<g id="a_node43"><a xlink:href="vision_8c.html" target="_top" xlink:title=" ">
<polygon fill="white" stroke="black" points="2221,-112.5 2221,-131.5 2275,-131.5 2275,-112.5 2221,-112.5"/>
<text text-anchor="middle" x="2248" y="-119.5" font-family="FreeSans" font-size="10.00">vision.c</text>
</a>
</g>
</g>
<!-- Node1&#45;&gt;Node83 -->
<g id="edge196" class="edge">
<title>Node1&#45;&gt;Node83</title>
<path fill="none" stroke="midnightblue" d="M2734.65,-387.77C2774.78,-366.69 2841.54,-323.4 2814,-280 2798.34,-255.32 2604.08,-176.11 2576,-168 2450.38,-131.71 2412.56,-155.9 2284,-132 2281.09,-131.46 2278.06,-130.82 2275.05,-130.14"/>
<polygon fill="midnightblue" stroke="midnightblue" points="2732.89,-384.74 2725.57,-392.4 2736.07,-390.97 2732.89,-384.74"/>
</g>
<!-- Node62 -->
<g id="node48" class="node">
<title>Node62</title>
<g id="a_node48"><a xlink:href="stream_8c.html" target="_top" xlink:title=" ">
<polygon fill="white" stroke="black" points="292.5,-112.5 292.5,-131.5 351.5,-131.5 351.5,-112.5 292.5,-112.5"/>
<text text-anchor="middle" x="322" y="-119.5" font-family="FreeSans" font-size="10.00">stream.c</text>
</a>
</g>
</g>
<!-- Node1&#45;&gt;Node62 -->
<g id="edge194" class="edge">
<title>Node1&#45;&gt;Node62</title>
<path fill="none" stroke="midnightblue" d="M2659.28,-400.68C2325.38,-398.38 350.75,-383.6 296,-356 263.45,-339.59 246,-327.45 246,-291 246,-291 246,-291 246,-233 246,-188.2 289.2,-148.43 310.46,-131.57"/>
<polygon fill="midnightblue" stroke="midnightblue" points="2659.55,-404.18 2669.57,-400.75 2659.59,-397.18 2659.55,-404.18"/>
</g>
<!-- Node60 -->
<g id="node49" class="node">
<title>Node60</title>
<g id="a_node49"><a xlink:href="quantum-export_8c.html" target="_top" xlink:title=" ">
<polygon fill="white" stroke="black" points="2579,-280.5 2579,-299.5 2683,-299.5 2683,-280.5 2579,-280.5"/>
<text text-anchor="middle" x="2631" y="-287.5" font-family="FreeSans" font-size="10.00">quantum&#45;export.c</text>
</a>
</g>
</g>
<!-- Node1&#45;&gt;Node60 -->
<g id="edge190" class="edge">
<title>Node1&#45;&gt;Node60</title>
<path fill="none" stroke="midnightblue" d="M2695.22,-383.96C2678.75,-360.12 2649.45,-317.71 2636.94,-299.59"/>
<polygon fill="midnightblue" stroke="midnightblue" points="2692.47,-386.13 2701.04,-392.37 2698.23,-382.15 2692.47,-386.13"/>
</g>
<!-- Node61 -->
<g id="node50" class="node">
<title>Node61</title>
<g id="a_node50"><a xlink:href="quantum-import_8c.html" target="_top" xlink:title=" ">
<polygon fill="white" stroke="black" points="2701,-280.5 2701,-299.5 2805,-299.5 2805,-280.5 2701,-280.5"/>
<text text-anchor="middle" x="2753" y="-287.5" font-family="FreeSans" font-size="10.00">quantum&#45;import.c</text>
</a>
</g>
</g>
<!-- Node1&#45;&gt;Node61 -->
<g id="edge191" class="edge">
<title>Node1&#45;&gt;Node61</title>
<path fill="none" stroke="midnightblue" d="M2714.53,-383C2724.56,-359 2741.93,-317.47 2749.41,-299.59"/>
<polygon fill="midnightblue" stroke="midnightblue" points="2711.24,-381.79 2710.61,-392.37 2717.7,-384.49 2711.24,-381.79"/>
</g>
<!-- Node3 -->
<g id="node3" class="node">
<title>Node3</title>
<g id="a_node3"><a xlink:href="ImageMagick_8h.html" target="_top" xlink:title=" ">
<polygon fill="white" stroke="black" points="1509,-0.5 1509,-19.5 1601,-19.5 1601,-0.5 1509,-0.5"/>
<text text-anchor="middle" x="1555" y="-7.5" font-family="FreeSans" font-size="10.00">ImageMagick.h</text>
</a>
</g>
</g>
<!-- Node2&#45;&gt;Node3 -->
<g id="edge2" class="edge">
<title>Node2&#45;&gt;Node3</title>
<path fill="none" stroke="midnightblue" d="M1617.81,-50.9C1602.22,-41 1581.87,-28.07 1568.62,-19.65"/>
<polygon fill="midnightblue" stroke="midnightblue" points="1616.03,-53.92 1626.34,-56.32 1619.78,-48.01 1616.03,-53.92"/>
</g>
<!-- Node4 -->
<g id="node4" class="node">
<title>Node4</title>
<g id="a_node4"><a xlink:href="api_8h.html" target="_top" xlink:title=" ">
<polygon fill="white" stroke="black" points="1619.5,-0.5 1619.5,-19.5 1660.5,-19.5 1660.5,-0.5 1619.5,-0.5"/>
<text text-anchor="middle" x="1640" y="-7.5" font-family="FreeSans" font-size="10.00">api.h</text>
</a>
</g>
</g>
<!-- Node2&#45;&gt;Node4 -->
<g id="edge3" class="edge">
<title>Node2&#45;&gt;Node4</title>
<path fill="none" stroke="midnightblue" d="M1640,-45.8C1640,-36.91 1640,-26.78 1640,-19.75"/>
<polygon fill="midnightblue" stroke="midnightblue" points="1636.5,-46.08 1640,-56.08 1643.5,-46.08 1636.5,-46.08"/>
</g>
<!-- Node5 -->
<g id="node5" class="node">
<title>Node5</title>
<g id="a_node5"><a xlink:href="image-view_8c.html" target="_top" xlink:title=" ">
<polygon fill="white" stroke="black" points="1678.5,-0.5 1678.5,-19.5 1759.5,-19.5 1759.5,-0.5 1678.5,-0.5"/>
<text text-anchor="middle" x="1719" y="-7.5" font-family="FreeSans" font-size="10.00">image&#45;view.c</text>
</a>
</g>
</g>
<!-- Node2&#45;&gt;Node5 -->
<g id="edge4" class="edge">
<title>Node2&#45;&gt;Node5</title>
<path fill="none" stroke="midnightblue" d="M1661.03,-50.62C1675.47,-40.76 1694.14,-27.99 1706.34,-19.65"/>
<polygon fill="midnightblue" stroke="midnightblue" points="1658.97,-47.79 1652.69,-56.32 1662.92,-53.57 1658.97,-47.79"/>
</g>
<!-- Node17&#45;&gt;Node2 -->
<g id="edge17" class="edge">
<title>Node17&#45;&gt;Node2</title>
<path fill="none" stroke="midnightblue" d="M3363.92,-112.11C2631.35,-33.92 2439.75,-131.44 1709,-76 1700.09,-75.32 1690.56,-74.29 1681.52,-73.15"/>
<polygon fill="midnightblue" stroke="midnightblue" points="3363.61,-115.59 3373.93,-113.18 3364.36,-108.63 3363.61,-115.59"/>
</g>
<!-- Node17&#45;&gt;Node9 -->
<g id="edge18" class="edge">
<title>Node17&#45;&gt;Node9</title>
<path fill="none" stroke="midnightblue" d="M3423.38,-103.86C3430.14,-94.5 3438.21,-83.33 3443.68,-75.75"/>
<polygon fill="midnightblue" stroke="midnightblue" points="3420.46,-101.93 3417.44,-112.08 3426.13,-106.03 3420.46,-101.93"/>
</g>
<!-- Node17&#45;&gt;Node16 -->
<g id="edge19" class="edge">
<title>Node17&#45;&gt;Node16</title>
<path fill="none" stroke="midnightblue" d="M3363.49,-112.05C2690.99,-39.63 2515.42,-117.83 1844,-76 1826.95,-74.94 1808.12,-73.13 1792.19,-71.41"/>
<polygon fill="midnightblue" stroke="midnightblue" points="3363.61,-115.59 3373.93,-113.19 3364.36,-108.63 3363.61,-115.59"/>
</g>
<!-- Node17&#45;&gt;Node18 -->
<g id="edge20" class="edge">
<title>Node17&#45;&gt;Node18</title>
<path fill="none" stroke="midnightblue" d="M3363.79,-112.05C3040.32,-73.65 2952.89,-120.29 2634,-76 2631.11,-75.6 2628.12,-75.09 2625.14,-74.51"/>
<polygon fill="midnightblue" stroke="midnightblue" points="3363.57,-115.55 3373.92,-113.27 3364.41,-108.6 3363.57,-115.55"/>
</g>
<!-- Node17&#45;&gt;Node19 -->
<g id="edge21" class="edge">
<title>Node17&#45;&gt;Node19</title>
<path fill="none" stroke="midnightblue" d="M3363.64,-112.47C3236.23,-105.21 2103.22,-73.24 1909.2,-67.79"/>
<polygon fill="midnightblue" stroke="midnightblue" points="3363.7,-115.98 3373.92,-113.21 3364.2,-109 3363.7,-115.98"/>
</g>
<!-- Node20 -->
<g id="node20" class="node">
<title>Node20</title>
<g id="a_node20"><a xlink:href="mime_8c.html" target="_top" xlink:title=" ">
<polygon fill="white" stroke="black" points="3345.5,-56.5 3345.5,-75.5 3398.5,-75.5 3398.5,-56.5 3345.5,-56.5"/>
<text text-anchor="middle" x="3372" y="-63.5" font-family="FreeSans" font-size="10.00">mime.c</text>
</a>
</g>
</g>
<!-- Node17&#45;&gt;Node20 -->
<g id="edge22" class="edge">
<title>Node17&#45;&gt;Node20</title>
<path fill="none" stroke="midnightblue" d="M3398.62,-103.86C3391.86,-94.5 3383.79,-83.33 3378.32,-75.75"/>
<polygon fill="midnightblue" stroke="midnightblue" points="3395.87,-106.03 3404.56,-112.08 3401.54,-101.93 3395.87,-106.03"/>
</g>
<!-- Node21 -->
<g id="node21" class="node">
<title>Node21</title>
<g id="a_node21"><a xlink:href="module_8c.html" target="_top" xlink:title=" ">
<polygon fill="white" stroke="black" points="2216,-56.5 2216,-75.5 2278,-75.5 2278,-56.5 2216,-56.5"/>
<text text-anchor="middle" x="2247" y="-63.5" font-family="FreeSans" font-size="10.00">module.c</text>
</a>
</g>
</g>
<!-- Node17&#45;&gt;Node21 -->
<g id="edge23" class="edge">
<title>Node17&#45;&gt;Node21</title>
<path fill="none" stroke="midnightblue" d="M3363.97,-112.18C3215.6,-97.81 2443.83,-73.16 2278.28,-67.97"/>
<polygon fill="midnightblue" stroke="midnightblue" points="3363.61,-115.66 3373.92,-113.24 3364.35,-108.7 3363.61,-115.66"/>
</g>
<!-- Node17&#45;&gt;Node22 -->
<g id="edge24" class="edge">
<title>Node17&#45;&gt;Node22</title>
<path fill="none" stroke="midnightblue" d="M3363.95,-112.03C3105.15,-79.02 2804.52,-69.86 2707.13,-67.63"/>
<polygon fill="midnightblue" stroke="midnightblue" points="3363.54,-115.51 3373.91,-113.32 3364.44,-108.57 3363.54,-115.51"/>
</g>
<!-- Node33&#45;&gt;Node2 -->
<g id="edge38" class="edge">
<title>Node33&#45;&gt;Node2</title>
<path fill="none" stroke="midnightblue" d="M1452.07,-344.45C1305.29,-341.97 737.98,-330.58 562,-300 343.59,-262.05 -54.45,-271.03 100,-112 126.86,-84.34 1355.16,-70 1598.4,-67.42"/>
<polygon fill="midnightblue" stroke="midnightblue" points="1452.23,-347.96 1462.28,-344.62 1452.34,-340.96 1452.23,-347.96"/>
</g>
<!-- Node33&#45;&gt;Node9 -->
<g id="edge39" class="edge">
<title>Node33&#45;&gt;Node9</title>
<path fill="none" stroke="midnightblue" d="M1521.78,-345.35C1679.83,-346.67 2331.08,-348.98 2528,-300 2548.06,-295.01 2549.9,-284.86 2570,-280 2830.62,-217.01 3518.08,-317.25 3776,-244 3823.89,-230.4 3841.42,-226.48 3873,-188 3895.09,-161.08 3915.34,-137.84 3892,-112 3864.73,-81.81 3582.14,-70.82 3483.64,-67.88"/>
<polygon fill="midnightblue" stroke="midnightblue" points="1521.71,-341.85 1511.68,-345.26 1521.65,-348.85 1521.71,-341.85"/>
</g>
<!-- Node33&#45;&gt;Node14 -->
<g id="edge138" class="edge">
<title>Node33&#45;&gt;Node14</title>
<path fill="none" stroke="midnightblue" d="M1451.92,-344.41C1325.43,-342.02 893.12,-331.69 759,-300 736.91,-294.78 733.39,-287.6 712,-280 582.59,-234.02 505.75,-292.81 417,-188 403.42,-171.97 404.2,-145.4 405.71,-131.73"/>
<polygon fill="midnightblue" stroke="midnightblue" points="1452.13,-347.91 1462.19,-344.6 1452.25,-340.91 1452.13,-347.91"/>
</g>
<!-- Node33&#45;&gt;Node16 -->
<g id="edge139" class="edge">
<title>Node33&#45;&gt;Node16</title>
<path fill="none" stroke="midnightblue" d="M1452.26,-345.06C1372.23,-344.5 1169.14,-338.98 1005,-300 938.59,-284.23 916.79,-284.71 862,-244 807.48,-203.49 737.94,-160.97 785,-112 819.87,-75.72 1639.88,-80.46 1690,-76 1699.08,-75.19 1708.83,-74.01 1717.95,-72.77"/>
<polygon fill="midnightblue" stroke="midnightblue" points="1452.27,-348.56 1462.28,-345.11 1452.3,-341.56 1452.27,-348.56"/>
</g>
<!-- Node33&#45;&gt;Node17 -->
<g id="edge140" class="edge">
<title>Node33&#45;&gt;Node17</title>
<path fill="none" stroke="midnightblue" d="M1521.98,-345.13C1676.77,-345.47 2300.93,-344 2491,-300 2512.72,-294.97 2515.29,-285.05 2537,-280 2703.2,-241.35 3150.12,-317.73 3304,-244 3356.6,-218.8 3394.36,-154.67 3406.67,-131.51"/>
<polygon fill="midnightblue" stroke="midnightblue" points="1521.66,-341.63 1511.65,-345.11 1521.64,-348.63 1521.66,-341.63"/>
</g>
<!-- Node33&#45;&gt;Node23 -->
<g id="edge141" class="edge">
<title>Node33&#45;&gt;Node23</title>
<path fill="none" stroke="midnightblue" d="M1521.65,-343.59C1611.07,-339.6 1847.66,-326.76 1921,-300 2029.49,-260.42 2134.3,-161.62 2164.41,-131.71"/>
<polygon fill="midnightblue" stroke="midnightblue" points="1521.34,-340.1 1511.5,-344.03 1521.64,-347.09 1521.34,-340.1"/>
</g>
<!-- Node33&#45;&gt;Node32 -->
<g id="edge171" class="edge">
<title>Node33&#45;&gt;Node32</title>
<path fill="none" stroke="midnightblue" d="M1464.05,-330.75C1451.03,-322.33 1434.66,-311.15 1421,-300 1348.63,-240.89 1271.31,-158.29 1246.87,-131.65"/>
<polygon fill="midnightblue" stroke="midnightblue" points="1462.54,-333.94 1472.85,-336.36 1466.3,-328.03 1462.54,-333.94"/>
</g>
<!-- Node34 -->
<g id="node34" class="node">
<title>Node34</title>
<g id="a_node34"><a xlink:href="cache-view_8h.html" target="_top" xlink:title=" ">
<polygon fill="white" stroke="red" points="1832,-280.5 1832,-299.5 1912,-299.5 1912,-280.5 1832,-280.5"/>
<text text-anchor="middle" x="1872" y="-287.5" font-family="FreeSans" font-size="10.00">cache&#45;view.h</text>
</a>
</g>
</g>
<!-- Node33&#45;&gt;Node34 -->
<g id="edge40" class="edge">
<title>Node33&#45;&gt;Node34</title>
<path fill="none" stroke="midnightblue" d="M1521.93,-340.1C1593.39,-330.08 1755.92,-307.28 1831.7,-296.65"/>
<polygon fill="midnightblue" stroke="midnightblue" points="1521.09,-336.68 1511.67,-341.54 1522.06,-343.62 1521.09,-336.68"/>
</g>
<!-- Node41 -->
<g id="node35" class="node">
<title>Node41</title>
<g id="a_node35"><a xlink:href="distort_8c.html" target="_top" xlink:title=" ">
<polygon fill="white" stroke="black" points="1281,-112.5 1281,-131.5 1337,-131.5 1337,-112.5 1281,-112.5"/>
<text text-anchor="middle" x="1309" y="-119.5" font-family="FreeSans" font-size="10.00">distort.c</text>
</a>
</g>
</g>
<!-- Node33&#45;&gt;Node41 -->
<g id="edge142" class="edge">
<title>Node33&#45;&gt;Node41</title>
<path fill="none" stroke="midnightblue" d="M1470.94,-329.19C1443.65,-301.86 1387.26,-243.38 1347,-188 1333.16,-168.97 1320,-144.57 1313.4,-131.75"/>
<polygon fill="midnightblue" stroke="midnightblue" points="1468.57,-331.77 1478.13,-336.34 1473.51,-326.8 1468.57,-331.77"/>
</g>
<!-- Node45 -->
<g id="node36" class="node">
<title>Node45</title>
<g id="a_node36"><a xlink:href="image_8h.html" target="_top" xlink:title=" ">
<polygon fill="white" stroke="red" points="2861,-224.5 2861,-243.5 2917,-243.5 2917,-224.5 2861,-224.5"/>
<text text-anchor="middle" x="2889" y="-231.5" font-family="FreeSans" font-size="10.00">image.h</text>
</a>
</g>
</g>
<!-- Node33&#45;&gt;Node45 -->
<g id="edge157" class="edge">
<title>Node33&#45;&gt;Node45</title>
<path fill="none" stroke="midnightblue" d="M1521.72,-345.14C1672.69,-345.48 2272.52,-343.99 2455,-300 2475.88,-294.97 2478.3,-285.75 2499,-280 2567.47,-261 2783.11,-243.1 2860.77,-237.11"/>
<polygon fill="midnightblue" stroke="midnightblue" points="1521.65,-341.64 1511.64,-345.11 1521.63,-348.64 1521.65,-341.64"/>
</g>
<!-- Node105 -->
<g id="node37" class="node">
<title>Node105</title>
<g id="a_node37"><a xlink:href="colorspace-private_8h.html" target="_top" xlink:title=" ">
<polygon fill="white" stroke="red" points="1386,-168.5 1386,-187.5 1502,-187.5 1502,-168.5 1386,-168.5"/>
<text text-anchor="middle" x="1444" y="-175.5" font-family="FreeSans" font-size="10.00">colorspace&#45;private.h</text>
</a>
</g>
</g>
<!-- Node33&#45;&gt;Node105 -->
<g id="edge137" class="edge">
<title>Node33&#45;&gt;Node105</title>
<path fill="none" stroke="midnightblue" d="M1482.06,-325.93C1472.73,-289.92 1452.87,-213.23 1446.22,-187.57"/>
<polygon fill="midnightblue" stroke="midnightblue" points="1478.79,-327.27 1484.69,-336.08 1485.57,-325.52 1478.79,-327.27"/>
</g>
<!-- Node56 -->
<g id="node38" class="node">
<title>Node56</title>
<g id="a_node38"><a xlink:href="cache_8c.html" target="_top" xlink:title=" ">
<polygon fill="white" stroke="black" points="794.5,-112.5 794.5,-131.5 847.5,-131.5 847.5,-112.5 794.5,-112.5"/>
<text text-anchor="middle" x="821" y="-119.5" font-family="FreeSans" font-size="10.00">cache.c</text>
</a>
</g>
</g>
<!-- Node33&#45;&gt;Node56 -->
<g id="edge112" class="edge">
<title>Node33&#45;&gt;Node56</title>
<path fill="none" stroke="midnightblue" d="M1452.38,-343.46C1387.36,-339.97 1242.89,-329.33 1125,-300 989.31,-266.24 918.89,-296.75 831,-188 817.79,-171.66 818.41,-145.23 819.79,-131.66"/>
<polygon fill="midnightblue" stroke="midnightblue" points="1452.32,-346.96 1462.48,-343.98 1452.68,-339.97 1452.32,-346.96"/>
</g>
<!-- Node33&#45;&gt;Node51 -->
<g id="edge187" class="edge">
<title>Node33&#45;&gt;Node51</title>
<path fill="none" stroke="midnightblue" d="M1452.04,-345.58C1361.58,-346.36 1112.91,-343.99 912,-300 801.71,-275.85 756.44,-274.6 684,-188 669.31,-170.44 659.33,-145 654.79,-131.75"/>
<polygon fill="midnightblue" stroke="midnightblue" points="1452.31,-349.07 1462.27,-345.47 1452.23,-342.07 1452.31,-349.07"/>
</g>
<!-- Node107 -->
<g id="node42" class="node">
<title>Node107</title>
<g id="a_node42"><a xlink:href="draw_8h.html" target="_top" xlink:title=" ">
<polygon fill="white" stroke="red" points="2518.5,-168.5 2518.5,-187.5 2567.5,-187.5 2567.5,-168.5 2518.5,-168.5"/>
<text text-anchor="middle" x="2543" y="-175.5" font-family="FreeSans" font-size="10.00">draw.h</text>
</a>
</g>
</g>
<!-- Node33&#45;&gt;Node107 -->
<g id="edge143" class="edge">
<title>Node33&#45;&gt;Node107</title>
<path fill="none" stroke="midnightblue" d="M1521.79,-345.48C1621.09,-346.23 1914.08,-344.24 2152,-300 2296.61,-273.11 2463,-210.59 2521.4,-187.65"/>
<polygon fill="midnightblue" stroke="midnightblue" points="1521.74,-341.98 1511.71,-345.38 1521.68,-348.98 1521.74,-341.98"/>
</g>
<!-- Node124 -->
<g id="node44" class="node">
<title>Node124</title>
<g id="a_node44"><a xlink:href="color_8h.html" target="_top" xlink:title=" ">
<polygon fill="white" stroke="red" points="2397.5,-280.5 2397.5,-299.5 2446.5,-299.5 2446.5,-280.5 2397.5,-280.5"/>
<text text-anchor="middle" x="2422" y="-287.5" font-family="FreeSans" font-size="10.00">color.h</text>
</a>
</g>
</g>
<!-- Node33&#45;&gt;Node124 -->
<g id="edge113" class="edge">
<title>Node33&#45;&gt;Node124</title>
<path fill="none" stroke="midnightblue" d="M1521.82,-345.45C1641.99,-346.55 2050.2,-346.39 2383,-300 2387.68,-299.35 2392.63,-298.41 2397.37,-297.38"/>
<polygon fill="midnightblue" stroke="midnightblue" points="1521.77,-341.95 1511.74,-345.35 1521.7,-348.95 1521.77,-341.95"/>
</g>
<!-- Node125 -->
<g id="node45" class="node">
<title>Node125</title>
<g id="a_node45"><a xlink:href="enhance_8h.html" target="_top" xlink:title=" ">
<polygon fill="white" stroke="red" points="1900.5,-168.5 1900.5,-187.5 1967.5,-187.5 1967.5,-168.5 1900.5,-168.5"/>
<text text-anchor="middle" x="1934" y="-175.5" font-family="FreeSans" font-size="10.00">enhance.h</text>
</a>
</g>
</g>
<!-- Node33&#45;&gt;Node125 -->
<g id="edge144" class="edge">
<title>Node33&#45;&gt;Node125</title>
<path fill="none" stroke="midnightblue" d="M1519.61,-332.89C1605.64,-300.94 1837.21,-214.94 1911.05,-187.52"/>
<polygon fill="midnightblue" stroke="midnightblue" points="1518.25,-329.66 1510.09,-336.42 1520.68,-336.22 1518.25,-329.66"/>
</g>
<!-- Node116 -->
<g id="node46" class="node">
<title>Node116</title>
<g id="a_node46"><a xlink:href="pixel-accessor_8h.html" target="_top" xlink:title=" ">
<polygon fill="white" stroke="red" points="1044.5,-224.5 1044.5,-243.5 1139.5,-243.5 1139.5,-224.5 1044.5,-224.5"/>
<text text-anchor="middle" x="1092" y="-231.5" font-family="FreeSans" font-size="10.00">pixel&#45;accessor.h</text>
</a>
</g>
</g>
<!-- Node33&#45;&gt;Node116 -->
<g id="edge158" class="edge">
<title>Node33&#45;&gt;Node116</title>
<path fill="none" stroke="midnightblue" d="M1452.21,-343.21C1377.77,-338.9 1205.64,-326.34 1154,-300 1127.88,-286.68 1106.69,-257.87 1097.27,-243.5"/>
<polygon fill="midnightblue" stroke="midnightblue" points="1452.28,-346.71 1462.46,-343.78 1452.67,-339.73 1452.28,-346.71"/>
</g>
<!-- Node126 -->
<g id="node47" class="node">
<title>Node126</title>
<g id="a_node47"><a xlink:href="policy_8h.html" target="_top" xlink:title=" ">
<polygon fill="white" stroke="red" points="426.5,-168.5 426.5,-187.5 479.5,-187.5 479.5,-168.5 426.5,-168.5"/>
<text text-anchor="middle" x="453" y="-175.5" font-family="FreeSans" font-size="10.00">policy.h</text>
</a>
</g>
</g>
<!-- Node33&#45;&gt;Node126 -->
<g id="edge172" class="edge">
<title>Node33&#45;&gt;Node126</title>
<path fill="none" stroke="midnightblue" d="M1452.3,-345.47C1354.44,-346.19 1068.27,-344.07 836,-300 763.64,-286.27 549.9,-212.81 477.38,-187.54"/>
<polygon fill="midnightblue" stroke="midnightblue" points="1452.53,-348.97 1462.5,-345.38 1452.47,-341.97 1452.53,-348.97"/>
</g>
<!-- Node33&#45;&gt;Node62 -->
<g id="edge188" class="edge">
<title>Node33&#45;&gt;Node62</title>
<path fill="none" stroke="midnightblue" d="M1452.28,-345.01C1293.15,-344.57 633.68,-337.05 454,-244 397.13,-214.55 346.31,-154.15 328.63,-131.67"/>
<polygon fill="midnightblue" stroke="midnightblue" points="1452.43,-348.51 1462.44,-345.03 1452.45,-341.51 1452.43,-348.51"/>
</g>
<!-- Node33&#45;&gt;Node60 -->
<g id="edge185" class="edge">
<title>Node33&#45;&gt;Node60</title>
<path fill="none" stroke="midnightblue" d="M1521.86,-344.73C1656.56,-343.45 2155.81,-336.36 2565,-300 2569.49,-299.6 2574.15,-299.11 2578.81,-298.58"/>
<polygon fill="midnightblue" stroke="midnightblue" points="1521.7,-341.23 1511.73,-344.82 1521.76,-348.23 1521.7,-341.23"/>
</g>
<!-- Node33&#45;&gt;Node61 -->
<g id="edge186" class="edge">
<title>Node33&#45;&gt;Node61</title>
<path fill="none" stroke="midnightblue" d="M1521.68,-345.09C1665.66,-345.16 2230.34,-342.55 2692,-300 2694.88,-299.73 2697.83,-299.43 2700.8,-299.08"/>
<polygon fill="midnightblue" stroke="midnightblue" points="1521.67,-341.59 1511.67,-345.08 1521.67,-348.59 1521.67,-341.59"/>
</g>
<!-- Node34&#45;&gt;Node2 -->
<g id="edge41" class="edge">
<title>Node34&#45;&gt;Node2</title>
<path fill="none" stroke="midnightblue" d="M1837.04,-276.73C1784.38,-256.13 1686.46,-209.12 1645,-132 1635.25,-113.86 1636.83,-88.66 1638.57,-75.61"/>
<polygon fill="midnightblue" stroke="midnightblue" points="1836.04,-280.09 1846.63,-280.38 1838.53,-273.55 1836.04,-280.09"/>
</g>
<!-- Node34&#45;&gt;Node7 -->
<g id="edge42" class="edge">
<title>Node34&#45;&gt;Node7</title>
<path fill="none" stroke="midnightblue" d="M1821.77,-287.7C1742.57,-284.75 1584.28,-275.12 1454,-244 1385.6,-227.66 1370.94,-215.01 1306,-188 1260.43,-169.04 1207.81,-144.4 1180.89,-131.59"/>
<polygon fill="midnightblue" stroke="midnightblue" points="1821.83,-291.21 1831.95,-288.06 1822.08,-284.21 1821.83,-291.21"/>
</g>
<!-- Node34&#45;&gt;Node9 -->
<g id="edge43" class="edge">
<title>Node34&#45;&gt;Node9</title>
<path fill="none" stroke="midnightblue" d="M1885.24,-272.15C1896.96,-258.02 1915.1,-237.97 1934,-224 1962.77,-202.74 1974.6,-205.14 2006,-188 2064.07,-156.3 2070.45,-130.41 2134,-112 2269.91,-72.62 3266.47,-92.56 3407,-76 3410.03,-75.64 3413.16,-75.18 3416.29,-74.65"/>
<polygon fill="midnightblue" stroke="midnightblue" points="1882.4,-270.1 1878.82,-280.07 1887.84,-274.5 1882.4,-270.1"/>
</g>
<!-- Node34&#45;&gt;Node11 -->
<g id="edge44" class="edge">
<title>Node34&#45;&gt;Node11</title>
<path fill="none" stroke="midnightblue" d="M1922.37,-288.04C2123.93,-284.03 2866.44,-267.77 2969,-244 3074.69,-219.5 3190.18,-154.93 3229.77,-131.58"/>
<polygon fill="midnightblue" stroke="midnightblue" points="1922,-284.54 1912.08,-288.24 1922.14,-291.54 1922,-284.54"/>
</g>
<!-- Node34&#45;&gt;Node12 -->
<g id="edge45" class="edge">
<title>Node34&#45;&gt;Node12</title>
<path fill="none" stroke="midnightblue" d="M1922.05,-288.06C2118.14,-284.23 2828.21,-268.75 2926,-244 3016.36,-221.13 3110.4,-155.54 3142.49,-131.75"/>
<polygon fill="midnightblue" stroke="midnightblue" points="1921.95,-284.56 1912.02,-288.26 1922.09,-291.56 1921.95,-284.56"/>
</g>
<!-- Node34&#45;&gt;Node16 -->
<g id="edge46" class="edge">
<title>Node34&#45;&gt;Node16</title>
<path fill="none" stroke="midnightblue" d="M1844.88,-275.49C1831.5,-267.75 1815.92,-256.98 1805,-244 1761,-191.72 1755.62,-103.16 1755.04,-75.51"/>
<polygon fill="midnightblue" stroke="midnightblue" points="1843.27,-278.6 1853.72,-280.36 1846.65,-272.47 1843.27,-278.6"/>
</g>
<!-- Node34&#45;&gt;Node17 -->
<g id="edge47" class="edge">
<title>Node34&#45;&gt;Node17</title>
<path fill="none" stroke="midnightblue" d="M1922.32,-287.78C2128.84,-282.66 2905.59,-262.34 3014,-244 3161.77,-219 3331.5,-154.74 3389.95,-131.53"/>
<polygon fill="midnightblue" stroke="midnightblue" points="1921.98,-284.28 1912.07,-288.03 1922.15,-291.28 1921.98,-284.28"/>
</g>
<!-- Node34&#45;&gt;Node18 -->
<g id="edge51" class="edge">
<title>Node34&#45;&gt;Node18</title>
<path fill="none" stroke="midnightblue" d="M1863.41,-270.79C1858.36,-257.69 1853.73,-239.64 1858,-224 1875.64,-159.33 1896.75,-136.85 1959,-112 2015.67,-89.38 2446.56,-72.34 2564.97,-68.05"/>
<polygon fill="midnightblue" stroke="midnightblue" points="1860.24,-272.27 1867.39,-280.1 1866.68,-269.52 1860.24,-272.27"/>
</g>
<!-- Node34&#45;&gt;Node19 -->
<g id="edge52" class="edge">
<title>Node34&#45;&gt;Node19</title>
<path fill="none" stroke="midnightblue" d="M1848.95,-274.3C1838.57,-266.52 1827.07,-256.07 1820,-244 1789.9,-192.62 1766.41,-163.09 1797,-112 1808.98,-91.99 1833.25,-80.37 1852.63,-73.97"/>
<polygon fill="midnightblue" stroke="midnightblue" points="1847.11,-277.28 1857.29,-280.19 1851.14,-271.57 1847.11,-277.28"/>
</g>
<!-- Node34&#45;&gt;Node22 -->
<g id="edge109" class="edge">
<title>Node34&#45;&gt;Node22</title>
<path fill="none" stroke="midnightblue" d="M1874.9,-270.18C1877.97,-255.96 1884.08,-236.77 1896,-224 1922.6,-195.49 1941.5,-206.16 1976,-188 2033.53,-157.71 2039.02,-131.64 2101,-112 2327.34,-40.28 2398.95,-109.55 2634,-76 2636.89,-75.59 2639.87,-75.09 2642.85,-74.53"/>
<polygon fill="midnightblue" stroke="midnightblue" points="1871.4,-269.84 1873.04,-280.31 1878.29,-271.1 1871.4,-269.84"/>
</g>
<!-- Node34&#45;&gt;Node24 -->
<g id="edge49" class="edge">
<title>Node34&#45;&gt;Node24</title>
<path fill="none" stroke="midnightblue" d="M1821.49,-284.87C1759.68,-278.94 1659.56,-266.19 1630,-244 1591.24,-214.91 1575.36,-154.29 1570.64,-131.72"/>
<polygon fill="midnightblue" stroke="midnightblue" points="1821.54,-288.39 1831.82,-285.84 1822.19,-281.42 1821.54,-288.39"/>
</g>
<!-- Node34&#45;&gt;Node25 -->
<g id="edge50" class="edge">
<title>Node34&#45;&gt;Node25</title>
<path fill="none" stroke="midnightblue" d="M1914.09,-277.82C1946.87,-268.99 1993.46,-256.17 2034,-244 2166.36,-204.28 2323.32,-151.91 2383.65,-131.58"/>
<polygon fill="midnightblue" stroke="midnightblue" points="1913.14,-274.45 1904.39,-280.42 1914.95,-281.21 1913.14,-274.45"/>
</g>
<!-- Node34&#45;&gt;Node41 -->
<g id="edge48" class="edge">
<title>Node34&#45;&gt;Node41</title>
<path fill="none" stroke="midnightblue" d="M1821.73,-288.34C1728.4,-285.13 1524.43,-268.6 1377,-188 1350.35,-173.43 1326.53,-145.72 1315.49,-131.65"/>
<polygon fill="midnightblue" stroke="midnightblue" points="1821.65,-291.84 1831.75,-288.65 1821.87,-284.85 1821.65,-291.84"/>
</g>
<!-- Node34&#45;&gt;Node45 -->
<g id="edge53" class="edge">
<title>Node34&#45;&gt;Node45</title>
<path fill="none" stroke="midnightblue" d="M1922.24,-286.33C2103.55,-276.71 2720.83,-243.93 2860.67,-236.5"/>
<polygon fill="midnightblue" stroke="midnightblue" points="1921.98,-282.84 1912.18,-286.87 1922.35,-289.83 1921.98,-282.84"/>
</g>
<!-- Node34&#45;&gt;Node82 -->
<g id="edge110" class="edge">
<title>Node34&#45;&gt;Node82</title>
<path fill="none" stroke="midnightblue" d="M1905.07,-276.99C1992.81,-245.12 2229.97,-158.97 2305.53,-131.52"/>
<polygon fill="midnightblue" stroke="midnightblue" points="1903.81,-273.72 1895.61,-280.42 1906.2,-280.3 1903.81,-273.72"/>
</g>
<!-- Node34&#45;&gt;Node83 -->
<g id="edge111" class="edge">
<title>Node34&#45;&gt;Node83</title>
<path fill="none" stroke="midnightblue" d="M1891.16,-274.28C1910.64,-259.88 1942.12,-238.11 1972,-224 2020.05,-201.31 2035.97,-205.91 2086,-188 2137.79,-169.46 2197.57,-144.54 2227.98,-131.6"/>
<polygon fill="midnightblue" stroke="midnightblue" points="1889,-271.53 1883.11,-280.33 1893.2,-277.13 1889,-271.53"/>
</g>
<!-- Node45&#45;&gt;Node2 -->
<g id="edge54" class="edge">
<title>Node45&#45;&gt;Node2</title>
<path fill="none" stroke="midnightblue" d="M2894.48,-214.41C2901.12,-187.58 2908.3,-138.36 2881,-112 2834.13,-66.76 1773.93,-81.22 1709,-76 1700.09,-75.28 1690.56,-74.23 1681.53,-73.09"/>
<polygon fill="midnightblue" stroke="midnightblue" points="2891.01,-213.84 2891.77,-224.4 2897.77,-215.67 2891.01,-213.84"/>
</g>
<!-- Node45&#45;&gt;Node6 -->
<g id="edge55" class="edge">
<title>Node45&#45;&gt;Node6</title>
<path fill="none" stroke="midnightblue" d="M2927.44,-233.51C3052.12,-234.68 3443.89,-234.49 3560,-188 3590.76,-175.68 3618.41,-146.4 3630.93,-131.71"/>
<polygon fill="midnightblue" stroke="midnightblue" points="2927.27,-230.01 2917.24,-233.4 2927.2,-237.01 2927.27,-230.01"/>
</g>
<!-- Node45&#45;&gt;Node8 -->
<g id="edge56" class="edge">
<title>Node45&#45;&gt;Node8</title>
<path fill="none" stroke="midnightblue" d="M2927.27,-233.68C3033.57,-234.9 3341.02,-233.86 3591,-188 3661.88,-175 3742.45,-146.04 3780.25,-131.57"/>
<polygon fill="midnightblue" stroke="midnightblue" points="2927.09,-230.18 2917.05,-233.55 2927,-237.18 2927.09,-230.18"/>
</g>
<!-- Node45&#45;&gt;Node9 -->
<g id="edge57" class="edge">
<title>Node45&#45;&gt;Node9</title>
<path fill="none" stroke="midnightblue" d="M2927.32,-232.29C3043.62,-229.26 3388.77,-213.43 3457,-132 3470.41,-115.99 3460.93,-89.42 3454.53,-75.73"/>
<polygon fill="midnightblue" stroke="midnightblue" points="2927.02,-228.8 2917.11,-232.54 2927.19,-235.8 2927.02,-228.8"/>
</g>
<!-- Node45&#45;&gt;Node12 -->
<g id="edge76" class="edge">
<title>Node45&#45;&gt;Node12</title>
<path fill="none" stroke="midnightblue" d="M2920.91,-220.87C2944.06,-211.98 2976.08,-199.51 3004,-188 3051.23,-168.53 3106.2,-144.31 3134.68,-131.64"/>
<polygon fill="midnightblue" stroke="midnightblue" points="2919.66,-217.6 2911.57,-224.44 2922.16,-224.14 2919.66,-217.6"/>
</g>
<!-- Node45&#45;&gt;Node16 -->
<g id="edge77" class="edge">
<title>Node45&#45;&gt;Node16</title>
<path fill="none" stroke="midnightblue" d="M2900.71,-215.8C2916.9,-189.7 2941.22,-140.16 2914,-112 2872.66,-69.24 1903.34,-79.99 1844,-76 1826.96,-74.85 1808.13,-73.03 1792.19,-71.32"/>
<polygon fill="midnightblue" stroke="midnightblue" points="2897.72,-213.97 2895.22,-224.27 2903.59,-217.78 2897.72,-213.97"/>
</g>
<!-- Node45&#45;&gt;Node23 -->
<g id="edge78" class="edge">
<title>Node45&#45;&gt;Node23</title>
<path fill="none" stroke="midnightblue" d="M2850.44,-229.32C2781.66,-222.55 2633.35,-207.06 2509,-188 2376.23,-167.65 2343.47,-159.55 2212,-132 2209.01,-131.37 2205.89,-130.7 2202.78,-130"/>
<polygon fill="midnightblue" stroke="midnightblue" points="2850.49,-232.84 2860.78,-230.33 2851.17,-225.87 2850.49,-232.84"/>
</g>
<!-- Node45&#45;&gt;Node27 -->
<g id="edge104" class="edge">
<title>Node45&#45;&gt;Node27</title>
<path fill="none" stroke="midnightblue" d="M2926.8,-223.49C3012.17,-202 3218.48,-150.06 3295.94,-130.57"/>
<polygon fill="midnightblue" stroke="midnightblue" points="2925.84,-220.12 2917,-225.95 2927.55,-226.9 2925.84,-220.12"/>
</g>
<!-- Node45&#45;&gt;Node29 -->
<g id="edge105" class="edge">
<title>Node45&#45;&gt;Node29</title>
<path fill="none" stroke="midnightblue" d="M2880.65,-215C2869.53,-191 2850.27,-149.47 2841.98,-131.59"/>
<polygon fill="midnightblue" stroke="midnightblue" points="2877.62,-216.77 2885,-224.37 2883.97,-213.82 2877.62,-216.77"/>
</g>
<!-- Node45&#45;&gt;Node30 -->
<g id="edge106" class="edge">
<title>Node45&#45;&gt;Node30</title>
<path fill="none" stroke="midnightblue" d="M2912.77,-219C2925.3,-210.91 2940.43,-199.99 2952,-188 2969.1,-170.28 2983.62,-144.9 2990.58,-131.71"/>
<polygon fill="midnightblue" stroke="midnightblue" points="2910.82,-216.09 2904.19,-224.36 2914.53,-222.03 2910.82,-216.09"/>
</g>
<!-- Node45&#45;&gt;Node31 -->
<g id="edge107" class="edge">
<title>Node45&#45;&gt;Node31</title>
<path fill="none" stroke="midnightblue" d="M2916.21,-219.8C2933.36,-211.22 2955.8,-199.54 2975,-188 3006,-169.37 3040.66,-144.59 3058.3,-131.67"/>
<polygon fill="midnightblue" stroke="midnightblue" points="2914.2,-216.88 2906.79,-224.46 2917.31,-223.16 2914.2,-216.88"/>
</g>
<!-- Node45&#45;&gt;Node41 -->
<g id="edge79" class="edge">
<title>Node45&#45;&gt;Node41</title>
<path fill="none" stroke="midnightblue" d="M2850.69,-232.19C2717.8,-229.16 2264.32,-217.23 1891,-188 1677.38,-171.27 1421.05,-138.03 1337.1,-126.81"/>
<polygon fill="midnightblue" stroke="midnightblue" points="2850.7,-235.69 2860.78,-232.41 2850.86,-228.69 2850.7,-235.69"/>
</g>
<!-- Node45&#45;&gt;Node105 -->
<g id="edge58" class="edge">
<title>Node45&#45;&gt;Node105</title>
<path fill="none" stroke="midnightblue" d="M2850.63,-232.03C2694.18,-228.02 2089.2,-211.74 1592,-188 1562.43,-186.59 1529.56,-184.63 1502.32,-182.9"/>
<polygon fill="midnightblue" stroke="midnightblue" points="2850.61,-235.53 2860.69,-232.29 2850.79,-228.54 2850.61,-235.53"/>
</g>
<!-- Node45&#45;&gt;Node49 -->
<g id="edge108" class="edge">
<title>Node45&#45;&gt;Node49</title>
<path fill="none" stroke="midnightblue" d="M2870.23,-217.82C2841.26,-194.39 2786.62,-150.19 2763.62,-131.59"/>
<polygon fill="midnightblue" stroke="midnightblue" points="2868.35,-220.8 2878.33,-224.37 2872.75,-215.36 2868.35,-220.8"/>
</g>
<!-- Node45&#45;&gt;Node107 -->
<g id="edge80" class="edge">
<title>Node45&#45;&gt;Node107</title>
<path fill="none" stroke="midnightblue" d="M2851.05,-227.08C2779.63,-215.93 2627.06,-192.12 2567.52,-182.83"/>
<polygon fill="midnightblue" stroke="midnightblue" points="2850.56,-230.54 2860.98,-228.63 2851.64,-223.63 2850.56,-230.54"/>
</g>
<!-- Node105&#45;&gt;Node6 -->
<g id="edge59" class="edge">
<title>Node105&#45;&gt;Node6</title>
<path fill="none" stroke="midnightblue" d="M1512.39,-175.58C1842.1,-168.73 3259.64,-139.11 3457,-132 3508.88,-130.13 3569.07,-126.93 3605.31,-124.89"/>
<polygon fill="midnightblue" stroke="midnightblue" points="1511.97,-172.09 1502.04,-175.8 1512.11,-179.09 1511.97,-172.09"/>
</g>
<!-- Node105&#45;&gt;Node7 -->
<g id="edge60" class="edge">
<title>Node105&#45;&gt;Node7</title>
<path fill="none" stroke="midnightblue" d="M1387.49,-166.64C1339.23,-157.71 1267.99,-144.35 1206,-132 1203.16,-131.43 1200.21,-130.84 1197.26,-130.23"/>
<polygon fill="midnightblue" stroke="midnightblue" points="1386.96,-170.1 1397.43,-168.47 1388.23,-163.21 1386.96,-170.1"/>
</g>
<!-- Node105&#45;&gt;Node9 -->
<g id="edge61" class="edge">
<title>Node105&#45;&gt;Node9</title>
<path fill="none" stroke="midnightblue" d="M1463.55,-162.26C1488.06,-143.92 1527.89,-114.66 1536,-112 1733.56,-47.15 3200.39,-99.4 3407,-76 3410.03,-75.66 3413.17,-75.2 3416.3,-74.68"/>
<polygon fill="midnightblue" stroke="midnightblue" points="1461.19,-159.65 1455.29,-168.45 1465.39,-165.25 1461.19,-159.65"/>
</g>
<!-- Node105&#45;&gt;Node11 -->
<g id="edge63" class="edge">
<title>Node105&#45;&gt;Node11</title>
<path fill="none" stroke="midnightblue" d="M1512.56,-175.59C1826.58,-169.09 3115.87,-141.92 3201,-132 3203.88,-131.66 3206.85,-131.23 3209.82,-130.73"/>
<polygon fill="midnightblue" stroke="midnightblue" points="1512.17,-172.1 1502.24,-175.8 1512.31,-179.1 1512.17,-172.1"/>
</g>
<!-- Node105&#45;&gt;Node12 -->
<g id="edge64" class="edge">
<title>Node105&#45;&gt;Node12</title>
<path fill="none" stroke="midnightblue" d="M1512.82,-175.45C1816.67,-168.57 3026.7,-140.72 3107,-132 3109.89,-131.69 3112.87,-131.29 3115.86,-130.84"/>
<polygon fill="midnightblue" stroke="midnightblue" points="1512.31,-171.96 1502.39,-175.69 1512.47,-178.96 1512.31,-171.96"/>
</g>
<!-- Node105&#45;&gt;Node14 -->
<g id="edge65" class="edge">
<title>Node105&#45;&gt;Node14</title>
<path fill="none" stroke="midnightblue" d="M1375.49,-175.17C1218.73,-170.66 821.94,-157.52 491,-132 475.65,-130.82 458.76,-129.09 444.17,-127.46"/>
<polygon fill="midnightblue" stroke="midnightblue" points="1375.82,-178.68 1385.91,-175.46 1376.01,-171.68 1375.82,-178.68"/>
</g>
<!-- Node105&#45;&gt;Node16 -->
<g id="edge66" class="edge">
<title>Node105&#45;&gt;Node16</title>
<path fill="none" stroke="midnightblue" d="M1418.97,-163.27C1397.93,-150 1373.55,-129.41 1389,-112 1433.72,-61.62 1623.19,-84.62 1690,-76 1699.04,-74.83 1708.78,-73.52 1717.89,-72.26"/>
<polygon fill="midnightblue" stroke="midnightblue" points="1417.29,-166.34 1427.67,-168.48 1420.89,-160.34 1417.29,-166.34"/>
</g>
<!-- Node105&#45;&gt;Node18 -->
<g id="edge69" class="edge">
<title>Node105&#45;&gt;Node18</title>
<path fill="none" stroke="midnightblue" d="M1444.59,-157.79C1446.17,-142.74 1451,-122.62 1465,-112 1476.28,-103.44 2386.29,-73.72 2564.81,-67.97"/>
<polygon fill="midnightblue" stroke="midnightblue" points="1441.07,-157.86 1443.91,-168.07 1448.06,-158.32 1441.07,-157.86"/>
</g>
<!-- Node105&#45;&gt;Node19 -->
<g id="edge70" class="edge">
<title>Node105&#45;&gt;Node19</title>
<path fill="none" stroke="midnightblue" d="M1431.78,-159.73C1423.19,-145.29 1415.16,-125.03 1427,-112 1455.07,-81.1 1759.48,-80.33 1801,-76 1818.24,-74.2 1837.55,-72.03 1852.87,-70.28"/>
<polygon fill="midnightblue" stroke="midnightblue" points="1428.92,-161.75 1437.3,-168.24 1434.79,-157.94 1428.92,-161.75"/>
</g>
<!-- Node105&#45;&gt;Node22 -->
<g id="edge74" class="edge">
<title>Node105&#45;&gt;Node22</title>
<path fill="none" stroke="midnightblue" d="M1454.16,-159.46C1464.3,-143.84 1481.46,-121.95 1503,-112 1617.14,-59.27 2509.23,-91.54 2634,-76 2636.89,-75.64 2639.88,-75.17 2642.87,-74.64"/>
<polygon fill="midnightblue" stroke="midnightblue" points="1451.03,-157.87 1448.77,-168.22 1456.99,-161.54 1451.03,-157.87"/>
</g>
<!-- Node105&#45;&gt;Node24 -->
<g id="edge68" class="edge">
<title>Node105&#45;&gt;Node24</title>
<path fill="none" stroke="midnightblue" d="M1473.24,-164.37C1496.65,-154.26 1528.84,-140.35 1549.29,-131.52"/>
<polygon fill="midnightblue" stroke="midnightblue" points="1471.6,-161.26 1463.81,-168.44 1474.37,-167.69 1471.6,-161.26"/>
</g>
<!-- Node105&#45;&gt;Node32 -->
<g id="edge71" class="edge">
<title>Node105&#45;&gt;Node32</title>
<path fill="none" stroke="midnightblue" d="M1401.16,-165.92C1366.35,-156.89 1315.97,-143.75 1272,-132 1269.13,-131.23 1266.12,-130.42 1263.14,-129.62"/>
<polygon fill="midnightblue" stroke="midnightblue" points="1400.44,-169.35 1411,-168.47 1402.2,-162.58 1400.44,-169.35"/>
</g>
<!-- Node105&#45;&gt;Node41 -->
<g id="edge67" class="edge">
<title>Node105&#45;&gt;Node41</title>
<path fill="none" stroke="midnightblue" d="M1413.09,-164.64C1387.76,-154.5 1352.57,-140.43 1330.29,-131.52"/>
<polygon fill="midnightblue" stroke="midnightblue" points="1412.02,-167.98 1422.61,-168.44 1414.62,-161.48 1412.02,-167.98"/>
</g>
<!-- Node105&#45;&gt;Node56 -->
<g id="edge62" class="edge">
<title>Node105&#45;&gt;Node56</title>
<path fill="none" stroke="midnightblue" d="M1375.63,-171.07C1239.19,-159.25 938.43,-133.18 847.53,-125.3"/>
<polygon fill="midnightblue" stroke="midnightblue" points="1375.68,-174.59 1385.95,-171.97 1376.29,-167.62 1375.68,-174.59"/>
</g>
<!-- Node105&#45;&gt;Node49 -->
<g id="edge72" class="edge">
<title>Node105&#45;&gt;Node49</title>
<path fill="none" stroke="midnightblue" d="M1512.7,-174.17C1752.78,-164.26 2549.1,-131.41 2720.37,-124.35"/>
<polygon fill="midnightblue" stroke="midnightblue" points="1512.21,-170.68 1502.36,-174.59 1512.5,-177.68 1512.21,-170.68"/>
</g>
<!-- Node105&#45;&gt;Node51 -->
<g id="edge73" class="edge">
<title>Node105&#45;&gt;Node51</title>
<path fill="none" stroke="midnightblue" d="M1375.38,-172.32C1212.41,-161.21 806.72,-133.55 686.25,-125.34"/>
<polygon fill="midnightblue" stroke="midnightblue" points="1375.55,-175.84 1385.76,-173.03 1376.02,-168.86 1375.55,-175.84"/>
</g>
<!-- Node105&#45;&gt;Node82 -->
<g id="edge75" class="edge">
<title>Node105&#45;&gt;Node82</title>
<path fill="none" stroke="midnightblue" d="M1512.45,-176.66C1656.04,-175.22 1998.99,-167.95 2284,-132 2287,-131.62 2290.11,-131.16 2293.21,-130.64"/>
<polygon fill="midnightblue" stroke="midnightblue" points="1512.02,-173.16 1502.05,-176.76 1512.08,-180.16 1512.02,-173.16"/>
</g>
<!-- Node107&#45;&gt;Node2 -->
<g id="edge81" class="edge">
<title>Node107&#45;&gt;Node2</title>
<path fill="none" stroke="midnightblue" d="M2522.26,-162.54C2495.84,-144.25 2452.57,-114.79 2444,-112 2288.51,-61.34 1871.88,-90.59 1709,-76 1700.1,-75.2 1690.57,-74.11 1681.54,-72.97"/>
<polygon fill="midnightblue" stroke="midnightblue" points="2520.6,-165.65 2530.81,-168.48 2524.59,-159.9 2520.6,-165.65"/>
</g>
<!-- Node107&#45;&gt;Node7 -->
<g id="edge82" class="edge">
<title>Node107&#45;&gt;Node7</title>
<path fill="none" stroke="midnightblue" d="M2508.15,-176.64C2324.64,-174.63 1468.95,-163.7 1206,-132 1203.12,-131.65 1200.15,-131.21 1197.18,-130.71"/>
<polygon fill="midnightblue" stroke="midnightblue" points="2508.27,-180.14 2518.3,-176.75 2508.34,-173.14 2508.27,-180.14"/>
</g>
<!-- Node107&#45;&gt;Node8 -->
<g id="edge83" class="edge">
<title>Node107&#45;&gt;Node8</title>
<path fill="none" stroke="midnightblue" d="M2577.86,-176.04C2716.85,-172.15 3244.94,-156.47 3679,-132 3710.64,-130.22 3746.81,-127.49 3771.69,-125.5"/>
<polygon fill="midnightblue" stroke="midnightblue" points="2577.7,-172.55 2567.8,-176.33 2577.89,-179.54 2577.7,-172.55"/>
</g>
<!-- Node107&#45;&gt;Node9 -->
<g id="edge84" class="edge">
<title>Node107&#45;&gt;Node9</title>
<path fill="none" stroke="midnightblue" d="M2569.32,-163.78C2601.73,-148.24 2658.89,-123.13 2711,-112 3013.91,-47.3 3099.83,-115.85 3407,-76 3410.03,-75.61 3413.16,-75.12 3416.28,-74.57"/>
<polygon fill="midnightblue" stroke="midnightblue" points="2567.55,-160.75 2560.09,-168.28 2570.62,-167.05 2567.55,-160.75"/>
</g>
<!-- Node107&#45;&gt;Node12 -->
<g id="edge85" class="edge">
<title>Node107&#45;&gt;Node12</title>
<path fill="none" stroke="midnightblue" d="M2577.58,-175.56C2666.01,-171.6 2907.53,-158.97 3107,-132 3109.88,-131.61 3112.85,-131.16 3115.84,-130.67"/>
<polygon fill="midnightblue" stroke="midnightblue" points="2577.4,-172.07 2567.56,-176 2577.71,-179.06 2577.4,-172.07"/>
</g>
<!-- Node107&#45;&gt;Node16 -->
<g id="edge86" class="edge">
<title>Node107&#45;&gt;Node16</title>
<path fill="none" stroke="midnightblue" d="M2531.65,-160C2520.17,-144.41 2500.89,-122.25 2478,-112 2349.21,-54.32 1984.68,-87.1 1844,-76 1826.97,-74.66 1808.14,-72.81 1792.21,-71.13"/>
<polygon fill="midnightblue" stroke="midnightblue" points="2528.86,-162.11 2537.47,-168.27 2534.58,-158.08 2528.86,-162.11"/>
</g>
<!-- Node107&#45;&gt;Node17 -->
<g id="edge87" class="edge">
<title>Node107&#45;&gt;Node17</title>
<path fill="none" stroke="midnightblue" d="M2577.84,-176.82C2691.52,-175.84 3061.7,-169.79 3365,-132 3367.91,-131.64 3370.91,-131.2 3373.91,-130.71"/>
<polygon fill="midnightblue" stroke="midnightblue" points="2577.63,-173.32 2567.66,-176.89 2577.68,-180.32 2577.63,-173.32"/>
</g>
<!-- Node107&#45;&gt;Node18 -->
<g id="edge91" class="edge">
<title>Node107&#45;&gt;Node18</title>
<path fill="none" stroke="midnightblue" d="M2565.84,-162.24C2575.73,-154.52 2586.33,-144.14 2592,-132 2600.61,-113.58 2598.59,-88.93 2596.64,-75.91"/>
<polygon fill="midnightblue" stroke="midnightblue" points="2563.51,-159.61 2557.47,-168.32 2567.62,-165.27 2563.51,-159.61"/>
</g>
<!-- Node107&#45;&gt;Node19 -->
<g id="edge94" class="edge">
<title>Node107&#45;&gt;Node19</title>
<path fill="none" stroke="midnightblue" d="M2553.2,-159.1C2559.97,-144.56 2565.69,-124.5 2554,-112 2531.63,-88.08 2034.25,-71.6 1909.29,-67.82"/>
<polygon fill="midnightblue" stroke="midnightblue" points="2550.02,-157.63 2548.53,-168.12 2556.24,-160.84 2550.02,-157.63"/>
</g>
<!-- Node107&#45;&gt;Node22 -->
<g id="edge101" class="edge">
<title>Node107&#45;&gt;Node22</title>
<path fill="none" stroke="midnightblue" d="M2565.98,-162.78C2579.01,-154.37 2595.38,-143.2 2609,-132 2631.36,-113.62 2654.91,-88.95 2666.92,-75.92"/>
<polygon fill="midnightblue" stroke="midnightblue" points="2563.73,-160.07 2557.17,-168.38 2567.49,-165.97 2563.73,-160.07"/>
</g>
<!-- Node107&#45;&gt;Node23 -->
<g id="edge88" class="edge">
<title>Node107&#45;&gt;Node23</title>
<path fill="none" stroke="midnightblue" d="M2508.43,-168.82C2506.94,-168.53 2505.45,-168.26 2504,-168 2375.23,-145.27 2340.77,-154.73 2212,-132 2208.99,-131.47 2205.86,-130.85 2202.75,-130.2"/>
<polygon fill="midnightblue" stroke="midnightblue" points="2507.82,-172.27 2518.32,-170.9 2509.25,-165.42 2507.82,-172.27"/>
</g>
<!-- Node107&#45;&gt;Node24 -->
<g id="edge89" class="edge">
<title>Node107&#45;&gt;Node24</title>
<path fill="none" stroke="midnightblue" d="M2508.06,-175.06C2352.42,-166.43 1724.18,-131.6 1593.06,-124.33"/>
<polygon fill="midnightblue" stroke="midnightblue" points="2508.26,-178.58 2518.44,-175.64 2508.65,-171.59 2508.26,-178.58"/>
</g>
<!-- Node107&#45;&gt;Node25 -->
<g id="edge90" class="edge">
<title>Node107&#45;&gt;Node25</title>
<path fill="none" stroke="midnightblue" d="M2512.32,-164.64C2487.18,-154.5 2452.25,-140.43 2430.13,-131.52"/>
<polygon fill="midnightblue" stroke="midnightblue" points="2511.18,-167.95 2521.77,-168.44 2513.8,-161.46 2511.18,-167.95"/>
</g>
<!-- Node107&#45;&gt;Node26 -->
<g id="edge92" class="edge">
<title>Node107&#45;&gt;Node26</title>
<path fill="none" stroke="midnightblue" d="M2507.99,-176.41C2348.32,-173.62 1673.17,-160.65 1120,-132 1089.8,-130.44 1055.54,-127.92 1030.54,-125.94"/>
<polygon fill="midnightblue" stroke="midnightblue" points="2508.11,-179.92 2518.17,-176.59 2508.23,-172.92 2508.11,-179.92"/>
</g>
<!-- Node107&#45;&gt;Node27 -->
<g id="edge93" class="edge">
<title>Node107&#45;&gt;Node27</title>
<path fill="none" stroke="midnightblue" d="M2577.73,-176.95C2684.29,-176.34 3015.84,-171.21 3287,-132 3289.89,-131.58 3292.88,-131.06 3295.86,-130.48"/>
<polygon fill="midnightblue" stroke="midnightblue" points="2577.54,-173.45 2567.56,-176.99 2577.57,-180.45 2577.54,-173.45"/>
</g>
<!-- Node107&#45;&gt;Node28 -->
<g id="edge95" class="edge">
<title>Node107&#45;&gt;Node28</title>
<path fill="none" stroke="midnightblue" d="M2508.18,-176.38C2263.42,-172.02 805.33,-145.58 609,-132 593.36,-130.92 576.03,-128.99 561.69,-127.2"/>
<polygon fill="midnightblue" stroke="midnightblue" points="2508.22,-179.88 2518.29,-176.56 2508.35,-172.88 2508.22,-179.88"/>
</g>
<!-- Node107&#45;&gt;Node29 -->
<g id="edge96" class="edge">
<title>Node107&#45;&gt;Node29</title>
<path fill="none" stroke="midnightblue" d="M2577.58,-171.08C2626.03,-162.71 2716.84,-146.81 2794,-132 2797.22,-131.38 2800.56,-130.73 2803.91,-130.06"/>
<polygon fill="midnightblue" stroke="midnightblue" points="2576.88,-167.64 2567.62,-172.79 2578.07,-174.54 2576.88,-167.64"/>
</g>
<!-- Node107&#45;&gt;Node30 -->
<g id="edge97" class="edge">
<title>Node107&#45;&gt;Node30</title>
<path fill="none" stroke="midnightblue" d="M2577.68,-172.86C2663.94,-162.55 2886.9,-135.91 2966.35,-126.42"/>
<polygon fill="midnightblue" stroke="midnightblue" points="2577.14,-169.4 2567.62,-174.06 2577.97,-176.35 2577.14,-169.4"/>
</g>
<!-- Node107&#45;&gt;Node31 -->
<g id="edge98" class="edge">
<title>Node107&#45;&gt;Node31</title>
<path fill="none" stroke="midnightblue" d="M2577.63,-175.49C2657.93,-171.63 2862.91,-159.66 3032,-132 3035.21,-131.47 3038.55,-130.83 3041.87,-130.13"/>
<polygon fill="midnightblue" stroke="midnightblue" points="2577.4,-172 2567.58,-175.96 2577.73,-178.99 2577.4,-172"/>
</g>
<!-- Node107&#45;&gt;Node32 -->
<g id="edge99" class="edge">
<title>Node107&#45;&gt;Node32</title>
<path fill="none" stroke="midnightblue" d="M2508.47,-176.25C2317.73,-172.07 1397.13,-151.02 1272,-132 1269.06,-131.55 1266.02,-130.94 1263.01,-130.24"/>
<polygon fill="midnightblue" stroke="midnightblue" points="2508.42,-179.75 2518.49,-176.47 2508.57,-172.76 2508.42,-179.75"/>
</g>
<!-- Node107&#45;&gt;Node49 -->
<g id="edge100" class="edge">
<title>Node107&#45;&gt;Node49</title>
<path fill="none" stroke="midnightblue" d="M2577.24,-168.2C2616.83,-158.02 2681.53,-141.38 2720.41,-131.38"/>
<polygon fill="midnightblue" stroke="midnightblue" points="2576.31,-164.82 2567.5,-170.7 2578.06,-171.6 2576.31,-164.82"/>
</g>
<!-- Node107&#45;&gt;Node82 -->
<g id="edge102" class="edge">
<title>Node107&#45;&gt;Node82</title>
<path fill="none" stroke="midnightblue" d="M2508.59,-168.32C2468.46,-158.19 2402.56,-141.56 2362.73,-131.51"/>
<polygon fill="midnightblue" stroke="midnightblue" points="2507.9,-171.75 2518.45,-170.81 2509.61,-164.97 2507.9,-171.75"/>
</g>
<!-- Node107&#45;&gt;Node83 -->
<g id="edge103" class="edge">
<title>Node107&#45;&gt;Node83</title>
<path fill="none" stroke="midnightblue" d="M2508.42,-168.9C2506.93,-168.59 2505.45,-168.29 2504,-168 2406.79,-148.85 2381.03,-152.03 2284,-132 2281.1,-131.4 2278.08,-130.73 2275.07,-130.02"/>
<polygon fill="midnightblue" stroke="midnightblue" points="2507.78,-172.34 2518.29,-171.05 2509.27,-165.5 2507.78,-172.34"/>
</g>
<!-- Node124&#45;&gt;Node2 -->
<g id="edge114" class="edge">
<title>Node124&#45;&gt;Node2</title>
<path fill="none" stroke="midnightblue" d="M2386.95,-285.82C2324.22,-279.82 2188.78,-265.48 2076,-244 2026.02,-234.48 1901.23,-206.91 1854,-188 1772.77,-155.48 1684.41,-97.45 1652.42,-75.62"/>
<polygon fill="midnightblue" stroke="midnightblue" points="2386.8,-289.32 2397.09,-286.78 2387.46,-282.35 2386.8,-289.32"/>
</g>
<!-- Node124&#45;&gt;Node6 -->
<g id="edge115" class="edge">
<title>Node124&#45;&gt;Node6</title>
<path fill="none" stroke="midnightblue" d="M2456.87,-285.99C2479.66,-284.09 2510.08,-281.68 2537,-280 2877.6,-258.68 2964.17,-275.23 3304,-244 3349.57,-239.81 3681.92,-222.49 3712,-188 3731.67,-165.45 3689.87,-143.35 3661.44,-131.63"/>
<polygon fill="midnightblue" stroke="midnightblue" points="2456.33,-282.52 2446.66,-286.85 2456.92,-289.49 2456.33,-282.52"/>
</g>
<!-- Node124&#45;&gt;Node7 -->
<g id="edge116" class="edge">
<title>Node124&#45;&gt;Node7</title>
<path fill="none" stroke="midnightblue" d="M2387.06,-288.27C2254.14,-284.94 1767.85,-267.67 1377,-188 1340.29,-180.52 1237.3,-147.37 1188.83,-131.51"/>
<polygon fill="midnightblue" stroke="midnightblue" points="2387.34,-291.78 2397.42,-288.52 2387.51,-284.78 2387.34,-291.78"/>
</g>
<!-- Node124&#45;&gt;Node8 -->
<g id="edge117" class="edge">
<title>Node124&#45;&gt;Node8</title>
<path fill="none" stroke="midnightblue" d="M2456.87,-285.92C2479.66,-284 2510.08,-281.59 2537,-280 2937.51,-256.34 3040.46,-290.17 3439,-244 3569.4,-228.9 3611.32,-246.17 3729,-188 3757.29,-174.01 3783.01,-146.04 3794.96,-131.78"/>
<polygon fill="midnightblue" stroke="midnightblue" points="2456.32,-282.46 2446.66,-286.8 2456.92,-289.43 2456.32,-282.46"/>
</g>
<!-- Node124&#45;&gt;Node9 -->
<g id="edge118" class="edge">
<title>Node124&#45;&gt;Node9</title>
<path fill="none" stroke="midnightblue" d="M2456.86,-285.84C2479.65,-283.88 2510.07,-281.46 2537,-280 2800.29,-265.71 3465.84,-302.27 3723,-244 3783.16,-230.37 3806.94,-232.17 3850,-188 3874.63,-162.73 3896.6,-138.24 3873,-112 3847.07,-83.17 3579.04,-71.36 3483.55,-68.04"/>
<polygon fill="midnightblue" stroke="midnightblue" points="2456.31,-282.37 2446.65,-286.73 2456.92,-289.34 2456.31,-282.37"/>
</g>
<!-- Node124&#45;&gt;Node11 -->
<g id="edge119" class="edge">
<title>Node124&#45;&gt;Node11</title>
<path fill="none" stroke="midnightblue" d="M2456.69,-284.44C2469.91,-282.84 2485.14,-281.15 2499,-280 2662.64,-266.46 3082.66,-300.04 3237,-244 3275.77,-229.92 3292.63,-224.93 3311,-188 3323.34,-163.19 3289.3,-142.52 3265.34,-131.53"/>
<polygon fill="midnightblue" stroke="midnightblue" points="2456.07,-280.99 2446.58,-285.7 2456.93,-287.94 2456.07,-280.99"/>
</g>
<!-- Node124&#45;&gt;Node12 -->
<g id="edge120" class="edge">
<title>Node124&#45;&gt;Node12</title>
<path fill="none" stroke="midnightblue" d="M2456.71,-284.63C2469.93,-283.04 2485.15,-281.32 2499,-280 2676.04,-263.09 3179.97,-324.48 3294,-188 3299.7,-181.18 3299.24,-175.18 3294,-168 3287.55,-159.15 3226.91,-141.96 3187.58,-131.58"/>
<polygon fill="midnightblue" stroke="midnightblue" points="2456.1,-281.18 2446.59,-285.86 2456.94,-288.12 2456.1,-281.18"/>
</g>
<!-- Node124&#45;&gt;Node16 -->
<g id="edge121" class="edge">
<title>Node124&#45;&gt;Node16</title>
<path fill="none" stroke="midnightblue" d="M2387.34,-282.47C2269.85,-260.33 1893.84,-189.4 1891,-188 1832.59,-159.24 1780.12,-98.42 1761.85,-75.75"/>
<polygon fill="midnightblue" stroke="midnightblue" points="2386.78,-285.93 2397.25,-284.34 2388.07,-279.05 2386.78,-285.93"/>
</g>
<!-- Node124&#45;&gt;Node18 -->
<g id="edge126" class="edge">
<title>Node124&#45;&gt;Node18</title>
<path fill="none" stroke="midnightblue" d="M2456.86,-285.88C2479.65,-283.94 2510.07,-281.53 2537,-280 2986.78,-254.42 3104.5,-310.99 3550,-244 3687.04,-223.39 3775.95,-254.36 3841,-132 3845.17,-124.15 3847.19,-118.38 3841,-112 3794.28,-63.86 2700.53,-84.58 2634,-76 2631.11,-75.63 2628.11,-75.13 2625.13,-74.57"/>
<polygon fill="midnightblue" stroke="midnightblue" points="2456.32,-282.42 2446.66,-286.77 2456.92,-289.39 2456.32,-282.42"/>
</g>
<!-- Node124&#45;&gt;Node19 -->
<g id="edge128" class="edge">
<title>Node124&#45;&gt;Node19</title>
<path fill="none" stroke="midnightblue" d="M2432.19,-271.07C2450.84,-235.66 2484.91,-156.31 2444,-112 2425.65,-92.12 2020.32,-73.06 1909.04,-68.19"/>
<polygon fill="midnightblue" stroke="midnightblue" points="2428.93,-269.75 2427.21,-280.2 2435.08,-273.1 2428.93,-269.75"/>
</g>
<!-- Node124&#45;&gt;Node22 -->
<g id="edge134" class="edge">
<title>Node124&#45;&gt;Node22</title>
<path fill="none" stroke="midnightblue" d="M2456.86,-285.85C2479.65,-283.9 2510.07,-281.49 2537,-280 2784.97,-266.31 3409.49,-287.51 3654,-244 3755.45,-225.95 3829.23,-231.23 3857,-132 3859.4,-123.44 3863.16,-118.4 3857,-112 3836.48,-90.69 2894.66,-71.27 2707.24,-67.62"/>
<polygon fill="midnightblue" stroke="midnightblue" points="2456.31,-282.39 2446.65,-286.74 2456.92,-289.36 2456.31,-282.39"/>
</g>
<!-- Node124&#45;&gt;Node23 -->
<g id="edge122" class="edge">
<title>Node124&#45;&gt;Node23</title>
<path fill="none" stroke="midnightblue" d="M2400.43,-274.76C2387.05,-265.92 2369.51,-254.32 2354,-244 2290.74,-201.92 2215.24,-151.33 2185.71,-131.53"/>
<polygon fill="midnightblue" stroke="midnightblue" points="2398.68,-277.8 2408.95,-280.39 2402.54,-271.96 2398.68,-277.8"/>
</g>
<!-- Node124&#45;&gt;Node24 -->
<g id="edge123" class="edge">
<title>Node124&#45;&gt;Node24</title>
<path fill="none" stroke="midnightblue" d="M2386.97,-286.78C2285.71,-279.73 1984.49,-254.27 1744,-188 1686.2,-172.07 1620.55,-145.22 1588.58,-131.55"/>
<polygon fill="midnightblue" stroke="midnightblue" points="2387.02,-290.29 2397.23,-287.48 2387.49,-283.31 2387.02,-290.29"/>
</g>
<!-- Node124&#45;&gt;Node25 -->
<g id="edge125" class="edge">
<title>Node124&#45;&gt;Node25</title>
<path fill="none" stroke="midnightblue" d="M2420.51,-269.93C2417.69,-233.92 2411.68,-157.23 2409.67,-131.57"/>
<polygon fill="midnightblue" stroke="midnightblue" points="2417.03,-270.38 2421.3,-280.08 2424.01,-269.83 2417.03,-270.38"/>
</g>
<!-- Node124&#45;&gt;Node27 -->
<g id="edge127" class="edge">
<title>Node124&#45;&gt;Node27</title>
<path fill="none" stroke="midnightblue" d="M2456.69,-284.42C2469.91,-282.82 2485.13,-281.13 2499,-280 2584.92,-272.99 3195.63,-279.91 3274,-244 3305.15,-229.72 3314.32,-219.84 3327,-188 3334.52,-169.13 3330.97,-144.66 3328.2,-131.79"/>
<polygon fill="midnightblue" stroke="midnightblue" points="2456.07,-280.97 2446.58,-285.68 2456.93,-287.92 2456.07,-280.97"/>
</g>
<!-- Node124&#45;&gt;Node29 -->
<g id="edge130" class="edge">
<title>Node124&#45;&gt;Node29</title>
<path fill="none" stroke="midnightblue" d="M2455.24,-276.98C2479.61,-268.08 2513.46,-255.55 2543,-244 2646.89,-203.39 2770,-151.74 2817.71,-131.6"/>
<polygon fill="midnightblue" stroke="midnightblue" points="2453.94,-273.73 2445.74,-280.44 2456.33,-280.3 2453.94,-273.73"/>
</g>
<!-- Node124&#45;&gt;Node30 -->
<g id="edge131" class="edge">
<title>Node124&#45;&gt;Node30</title>
<path fill="none" stroke="midnightblue" d="M2456.71,-284.7C2469.94,-283.13 2485.16,-281.39 2499,-280 2593.75,-270.47 2841.02,-286.96 2926,-244 2955.51,-229.08 2958.89,-216.88 2975,-188 2985.35,-169.44 2991.03,-144.84 2993.5,-131.88"/>
<polygon fill="midnightblue" stroke="midnightblue" points="2456.11,-281.25 2446.6,-285.92 2456.95,-288.2 2456.11,-281.25"/>
</g>
<!-- Node124&#45;&gt;Node31 -->
<g id="edge132" class="edge">
<title>Node124&#45;&gt;Node31</title>
<path fill="none" stroke="midnightblue" d="M2456.71,-284.66C2469.94,-283.08 2485.15,-281.36 2499,-280 2599.94,-270.11 2862.35,-287.45 2954,-244 3008.43,-218.19 3050.68,-155.01 3064.86,-131.77"/>
<polygon fill="midnightblue" stroke="midnightblue" points="2456.1,-281.21 2446.6,-285.89 2456.94,-288.16 2456.1,-281.21"/>
</g>
<!-- Node124&#45;&gt;Node45 -->
<g id="edge129" class="edge">
<title>Node124&#45;&gt;Node45</title>
<path fill="none" stroke="midnightblue" d="M2456.56,-280.79C2458.06,-280.51 2459.54,-280.24 2461,-280 2610.59,-254.97 2792.07,-241.34 2860.8,-236.77"/>
<polygon fill="midnightblue" stroke="midnightblue" points="2455.75,-277.38 2446.67,-282.83 2457.17,-284.24 2455.75,-277.38"/>
</g>
<!-- Node124&#45;&gt;Node49 -->
<g id="edge133" class="edge">
<title>Node124&#45;&gt;Node49</title>
<path fill="none" stroke="midnightblue" d="M2448.57,-275.67C2514.04,-242.84 2681.68,-158.77 2735.84,-131.61"/>
<polygon fill="midnightblue" stroke="midnightblue" points="2446.7,-272.7 2439.33,-280.31 2449.84,-278.95 2446.7,-272.7"/>
</g>
<!-- Node124&#45;&gt;Node82 -->
<g id="edge135" class="edge">
<title>Node124&#45;&gt;Node82</title>
<path fill="none" stroke="midnightblue" d="M2412.09,-271.31C2392.26,-235.92 2348.36,-157.56 2333.8,-131.57"/>
<polygon fill="midnightblue" stroke="midnightblue" points="2409.06,-273.06 2417,-280.08 2415.17,-269.64 2409.06,-273.06"/>
</g>
<!-- Node124&#45;&gt;Node107 -->
<g id="edge124" class="edge">
<title>Node124&#45;&gt;Node107</title>
<path fill="none" stroke="midnightblue" d="M2439.04,-273.51C2464.89,-250.01 2513.18,-206.11 2533.55,-187.59"/>
<polygon fill="midnightblue" stroke="midnightblue" points="2436.54,-271.05 2431.49,-280.37 2441.25,-276.23 2436.54,-271.05"/>
</g>
<!-- Node124&#45;&gt;Node83 -->
<g id="edge136" class="edge">
<title>Node124&#45;&gt;Node83</title>
<path fill="none" stroke="midnightblue" d="M2405.32,-273.09C2369.19,-238.62 2284.7,-158.01 2256.98,-131.57"/>
<polygon fill="midnightblue" stroke="midnightblue" points="2402.99,-275.7 2412.65,-280.08 2407.83,-270.64 2402.99,-275.7"/>
</g>
<!-- Node125&#45;&gt;Node2 -->
<g id="edge145" class="edge">
<title>Node125&#45;&gt;Node2</title>
<path fill="none" stroke="midnightblue" d="M1901.19,-164.73C1841.11,-142.25 1714.81,-94.99 1662.96,-75.59"/>
<polygon fill="midnightblue" stroke="midnightblue" points="1900.34,-168.14 1910.93,-168.37 1902.79,-161.59 1900.34,-168.14"/>
</g>
<!-- Node125&#45;&gt;Node9 -->
<g id="edge146" class="edge">
<title>Node125&#45;&gt;Node9</title>
<path fill="none" stroke="midnightblue" d="M1959.6,-163.82C1991.67,-148.08 2048.77,-122.55 2101,-112 2385.58,-54.5 3118.65,-109.87 3407,-76 3410.03,-75.64 3413.16,-75.18 3416.29,-74.65"/>
<polygon fill="midnightblue" stroke="midnightblue" points="1957.87,-160.77 1950.49,-168.37 1961,-167.04 1957.87,-160.77"/>
</g>
<!-- Node125&#45;&gt;Node16 -->
<g id="edge147" class="edge">
<title>Node125&#45;&gt;Node16</title>
<path fill="none" stroke="midnightblue" d="M1919.45,-160.81C1905.93,-146.5 1884.67,-125.83 1863,-112 1837.66,-95.83 1805.52,-83.31 1782.92,-75.63"/>
<polygon fill="midnightblue" stroke="midnightblue" points="1917.1,-163.43 1926.46,-168.39 1922.24,-158.67 1917.1,-163.43"/>
</g>
<!-- Node125&#45;&gt;Node18 -->
<g id="edge151" class="edge">
<title>Node125&#45;&gt;Node18</title>
<path fill="none" stroke="midnightblue" d="M1943.03,-159.27C1951.93,-143.84 1967.09,-122.38 1987,-112 2038.57,-85.13 2449.61,-71.23 2564.98,-67.84"/>
<polygon fill="midnightblue" stroke="midnightblue" points="1939.79,-157.9 1938.09,-168.36 1945.94,-161.24 1939.79,-157.9"/>
</g>
<!-- Node125&#45;&gt;Node19 -->
<g id="edge152" class="edge">
<title>Node125&#45;&gt;Node19</title>
<path fill="none" stroke="midnightblue" d="M1925.48,-159.32C1913.94,-135.37 1893.79,-93.55 1885.14,-75.59"/>
<polygon fill="midnightblue" stroke="midnightblue" points="1922.35,-160.88 1929.84,-168.37 1928.65,-157.84 1922.35,-160.88"/>
</g>
<!-- Node125&#45;&gt;Node22 -->
<g id="edge154" class="edge">
<title>Node125&#45;&gt;Node22</title>
<path fill="none" stroke="midnightblue" d="M1952.49,-161.9C1974.26,-144.48 2009.4,-117.51 2025,-112 2152.82,-66.83 2499.71,-94.59 2634,-76 2636.89,-75.6 2639.87,-75.11 2642.86,-74.56"/>
<polygon fill="midnightblue" stroke="midnightblue" points="1950.2,-159.26 1944.61,-168.26 1954.59,-164.71 1950.2,-159.26"/>
</g>
<!-- Node125&#45;&gt;Node23 -->
<g id="edge148" class="edge">
<title>Node125&#45;&gt;Node23</title>
<path fill="none" stroke="midnightblue" d="M1977.54,-167.16C2025.55,-156.31 2101.53,-139.15 2143.2,-129.73"/>
<polygon fill="midnightblue" stroke="midnightblue" points="1976.72,-163.76 1967.74,-169.38 1978.26,-170.59 1976.72,-163.76"/>
</g>
<!-- Node125&#45;&gt;Node24 -->
<g id="edge149" class="edge">
<title>Node125&#45;&gt;Node24</title>
<path fill="none" stroke="midnightblue" d="M1890.39,-170.55C1812.94,-159.09 1653.83,-135.55 1593.2,-126.58"/>
<polygon fill="midnightblue" stroke="midnightblue" points="1889.91,-174.02 1900.32,-172.02 1890.94,-167.09 1889.91,-174.02"/>
</g>
<!-- Node125&#45;&gt;Node25 -->
<g id="edge150" class="edge">
<title>Node125&#45;&gt;Node25</title>
<path fill="none" stroke="midnightblue" d="M1977.64,-174.6C2056.87,-169.78 2229.46,-157.17 2373,-132 2376.05,-131.47 2379.22,-130.82 2382.35,-130.11"/>
<polygon fill="midnightblue" stroke="midnightblue" points="1977.32,-171.11 1967.54,-175.2 1977.73,-178.1 1977.32,-171.11"/>
</g>
<!-- Node125&#45;&gt;Node29 -->
<g id="edge153" class="edge">
<title>Node125&#45;&gt;Node29</title>
<path fill="none" stroke="midnightblue" d="M1977.87,-177.01C2104.79,-176.56 2483.14,-171.7 2794,-132 2797.25,-131.59 2800.62,-131.06 2803.97,-130.48"/>
<polygon fill="midnightblue" stroke="midnightblue" points="1977.76,-173.51 1967.77,-177.04 1977.78,-180.51 1977.76,-173.51"/>
</g>
<!-- Node125&#45;&gt;Node82 -->
<g id="edge155" class="edge">
<title>Node125&#45;&gt;Node82</title>
<path fill="none" stroke="midnightblue" d="M1978.01,-172.34C2044.49,-165.07 2174.39,-149.98 2284,-132 2286.99,-131.51 2290.08,-130.97 2293.18,-130.4"/>
<polygon fill="midnightblue" stroke="midnightblue" points="1977.46,-168.87 1967.9,-173.43 1978.22,-175.83 1977.46,-168.87"/>
</g>
<!-- Node125&#45;&gt;Node83 -->
<g id="edge156" class="edge">
<title>Node125&#45;&gt;Node83</title>
<path fill="none" stroke="midnightblue" d="M1977.55,-168.78C1979.05,-168.51 1980.54,-168.25 1982,-168 2083.53,-150.5 2109.97,-152.19 2211,-132 2214.24,-131.35 2217.63,-130.61 2220.98,-129.85"/>
<polygon fill="midnightblue" stroke="midnightblue" points="1976.77,-165.36 1967.55,-170.58 1978.01,-172.25 1976.77,-165.36"/>
</g>
<!-- Node116&#45;&gt;Node2 -->
<g id="edge159" class="edge">
<title>Node116&#45;&gt;Node2</title>
<path fill="none" stroke="midnightblue" d="M1057.06,-220.8C1002.84,-200.11 908.72,-156.06 950,-112 994.37,-64.64 1456.14,-65.18 1598.47,-66.49"/>
<polygon fill="midnightblue" stroke="midnightblue" points="1056.09,-224.17 1066.68,-224.39 1058.54,-217.61 1056.09,-224.17"/>
</g>
<!-- Node116&#45;&gt;Node7 -->
<g id="edge160" class="edge">
<title>Node116&#45;&gt;Node7</title>
<path fill="none" stroke="midnightblue" d="M1103,-215.96C1118.39,-192.12 1145.76,-149.71 1157.45,-131.59"/>
<polygon fill="midnightblue" stroke="midnightblue" points="1100.05,-214.07 1097.57,-224.37 1105.93,-217.86 1100.05,-214.07"/>
</g>
<!-- Node116&#45;&gt;Node13 -->
<g id="edge163" class="edge">
<title>Node116&#45;&gt;Node13</title>
<path fill="none" stroke="midnightblue" d="M1047.84,-221.96C1007.04,-211.76 947.29,-196.82 910.07,-187.52"/>
<polygon fill="midnightblue" stroke="midnightblue" points="1047.22,-225.41 1057.77,-224.44 1048.92,-218.62 1047.22,-225.41"/>
</g>
<!-- Node116&#45;&gt;Node16 -->
<g id="edge164" class="edge">
<title>Node116&#45;&gt;Node16</title>
<path fill="none" stroke="midnightblue" d="M1083.26,-215.15C1071.62,-188.52 1055.51,-138.68 1083,-112 1131.48,-64.94 1622.76,-82.64 1690,-76 1699.07,-75.1 1708.82,-73.89 1717.94,-72.64"/>
<polygon fill="midnightblue" stroke="midnightblue" points="1080.17,-216.81 1087.54,-224.41 1086.52,-213.87 1080.17,-216.81"/>
</g>
<!-- Node116&#45;&gt;Node19 -->
<g id="edge169" class="edge">
<title>Node116&#45;&gt;Node19</title>
<path fill="none" stroke="midnightblue" d="M1090.08,-214.05C1088.5,-186.77 1090.23,-136.98 1120,-112 1178.05,-63.3 1725.48,-82.24 1801,-76 1818.27,-74.57 1837.58,-72.42 1852.9,-70.57"/>
<polygon fill="midnightblue" stroke="midnightblue" points="1086.61,-214.53 1090.89,-224.22 1093.59,-213.98 1086.61,-214.53"/>
</g>
<!-- Node116&#45;&gt;Node24 -->
<g id="edge166" class="edge">
<title>Node116&#45;&gt;Node24</title>
<path fill="none" stroke="midnightblue" d="M1149.96,-231.87C1249.8,-229.1 1449.41,-219.65 1511,-188 1536.29,-175.01 1555.72,-146.04 1564.25,-131.57"/>
<polygon fill="midnightblue" stroke="midnightblue" points="1149.65,-228.38 1139.75,-232.14 1149.84,-235.38 1149.65,-228.38"/>
</g>
<!-- Node116&#45;&gt;Node25 -->
<g id="edge167" class="edge">
<title>Node116&#45;&gt;Node25</title>
<path fill="none" stroke="midnightblue" d="M1149.73,-232.65C1297.97,-231.24 1704.03,-224.09 2040,-188 2189.22,-171.97 2226.09,-162.67 2373,-132 2376.03,-131.37 2379.18,-130.66 2382.32,-129.92"/>
<polygon fill="midnightblue" stroke="midnightblue" points="1149.47,-229.15 1139.5,-232.74 1149.53,-236.15 1149.47,-229.15"/>
</g>
<!-- Node116&#45;&gt;Node26 -->
<g id="edge168" class="edge">
<title>Node116&#45;&gt;Node26</title>
<path fill="none" stroke="midnightblue" d="M1072.53,-218.12C1062.28,-209.82 1049.84,-198.97 1040,-188 1023.5,-169.61 1007.95,-144.95 1000.18,-131.92"/>
<polygon fill="midnightblue" stroke="midnightblue" points="1070.5,-220.98 1080.51,-224.44 1074.84,-215.49 1070.5,-220.98"/>
</g>
<!-- Node116&#45;&gt;Node41 -->
<g id="edge165" class="edge">
<title>Node116&#45;&gt;Node41</title>
<path fill="none" stroke="midnightblue" d="M1118.17,-219.73C1163.25,-196.88 1254.33,-150.71 1292.05,-131.59"/>
<polygon fill="midnightblue" stroke="midnightblue" points="1116.36,-216.73 1109.03,-224.37 1119.53,-222.97 1116.36,-216.73"/>
</g>
<!-- Node116&#45;&gt;Node105 -->
<g id="edge162" class="edge">
<title>Node116&#45;&gt;Node105</title>
<path fill="none" stroke="midnightblue" d="M1150.08,-224.09C1216.19,-213.95 1323.39,-197.5 1388.43,-187.52"/>
<polygon fill="midnightblue" stroke="midnightblue" points="1149.19,-220.69 1139.84,-225.66 1150.25,-227.6 1149.19,-220.69"/>
</g>
<!-- Node116&#45;&gt;Node56 -->
<g id="edge161" class="edge">
<title>Node116&#45;&gt;Node56</title>
<path fill="none" stroke="midnightblue" d="M1055.5,-221.22C1029.7,-212.64 994.43,-200.39 964,-188 944.48,-180.05 940.17,-176.77 921,-168 892.95,-155.17 860.36,-140.56 840.2,-131.56"/>
<polygon fill="midnightblue" stroke="midnightblue" points="1054.65,-224.63 1065.24,-224.44 1056.84,-217.98 1054.65,-224.63"/>
</g>
<!-- Node116&#45;&gt;Node83 -->
<g id="edge170" class="edge">
<title>Node116&#45;&gt;Node83</title>
<path fill="none" stroke="midnightblue" d="M1149.93,-233.7C1291.67,-234.63 1666.95,-232.31 1976,-188 2067.07,-174.94 2172.36,-145.6 2220.91,-131.24"/>
<polygon fill="midnightblue" stroke="midnightblue" points="1149.75,-230.2 1139.73,-233.63 1149.7,-237.2 1149.75,-230.2"/>
</g>
<!-- Node126&#45;&gt;Node2 -->
<g id="edge173" class="edge">
<title>Node126&#45;&gt;Node2</title>
<path fill="none" stroke="midnightblue" d="M458.2,-158.82C463.66,-143.43 473.88,-122.27 491,-112 539.36,-82.98 1397.82,-70.13 1598.35,-67.51"/>
<polygon fill="midnightblue" stroke="midnightblue" points="454.87,-157.76 455.16,-168.35 461.54,-159.89 454.87,-157.76"/>
</g>
<!-- Node126&#45;&gt;Node7 -->
<g id="edge174" class="edge">
<title>Node126&#45;&gt;Node7</title>
<path fill="none" stroke="midnightblue" d="M489.98,-174.15C513,-172.37 543.22,-170.05 570,-168 782.59,-151.76 1038.06,-132.44 1128.91,-125.57"/>
<polygon fill="midnightblue" stroke="midnightblue" points="489.65,-170.66 479.95,-174.92 490.19,-177.64 489.65,-170.66"/>
</g>
<!-- Node126&#45;&gt;Node10 -->
<g id="edge175" class="edge">
<title>Node126&#45;&gt;Node10</title>
<path fill="none" stroke="midnightblue" d="M416.3,-171.73C366.38,-164.3 274.43,-149.65 197,-132 194.07,-131.33 191.02,-130.57 188,-129.77"/>
<polygon fill="midnightblue" stroke="midnightblue" points="415.89,-175.21 426.29,-173.21 416.91,-168.28 415.89,-175.21"/>
</g>
<!-- Node126&#45;&gt;Node14 -->
<g id="edge177" class="edge">
<title>Node126&#45;&gt;Node14</title>
<path fill="none" stroke="midnightblue" d="M438.89,-160.43C430.82,-150.97 421.04,-139.48 414.45,-131.75"/>
<polygon fill="midnightblue" stroke="midnightblue" points="436.25,-162.74 445.4,-168.08 441.58,-158.2 436.25,-162.74"/>
</g>
<!-- Node126&#45;&gt;Node15 -->
<g id="edge178" class="edge">
<title>Node126&#45;&gt;Node15</title>
<path fill="none" stroke="midnightblue" d="M416.55,-167.76C376.43,-157.59 312.48,-141.38 273.55,-131.51"/>
<polygon fill="midnightblue" stroke="midnightblue" points="415.9,-171.21 426.45,-170.27 417.62,-164.42 415.9,-171.21"/>
</g>
<!-- Node126&#45;&gt;Node21 -->
<g id="edge180" class="edge">
<title>Node126&#45;&gt;Node21</title>
<path fill="none" stroke="midnightblue" d="M487.06,-164.99C510.61,-156.42 542.53,-144.28 570,-132 587.78,-124.05 590.13,-116.83 609,-112 609,-112 1989.29,-74.08 2215.74,-67.86"/>
<polygon fill="midnightblue" stroke="midnightblue" points="485.73,-161.75 477.51,-168.44 488.1,-168.33 485.73,-161.75"/>
</g>
<!-- Node126&#45;&gt;Node28 -->
<g id="edge179" class="edge">
<title>Node126&#45;&gt;Node28</title>
<path fill="none" stroke="midnightblue" d="M473.77,-162.62C488.02,-152.76 506.46,-139.99 518.5,-131.65"/>
<polygon fill="midnightblue" stroke="midnightblue" points="471.76,-159.75 465.53,-168.32 475.75,-165.51 471.76,-159.75"/>
</g>
<!-- Node126&#45;&gt;Node30 -->
<g id="edge181" class="edge">
<title>Node126&#45;&gt;Node30</title>
<path fill="none" stroke="midnightblue" d="M489.71,-176.05C557.25,-174.32 705.78,-170.59 831,-168 1742.06,-149.15 1970.81,-175.88 2881,-132 2910.15,-130.59 2943.41,-127.84 2966.45,-125.74"/>
<polygon fill="midnightblue" stroke="midnightblue" points="489.49,-172.55 479.58,-176.31 489.67,-179.55 489.49,-172.55"/>
</g>
<!-- Node126&#45;&gt;Node31 -->
<g id="edge182" class="edge">
<title>Node126&#45;&gt;Node31</title>
<path fill="none" stroke="midnightblue" d="M489.71,-176.04C557.25,-174.28 705.78,-170.51 831,-168 1075.54,-163.09 2789.3,-162.36 3032,-132 3035.23,-131.6 3038.58,-131.03 3041.9,-130.37"/>
<polygon fill="midnightblue" stroke="midnightblue" points="489.48,-172.54 479.58,-176.3 489.67,-179.54 489.48,-172.54"/>
</g>
<!-- Node126&#45;&gt;Node56 -->
<g id="edge176" class="edge">
<title>Node126&#45;&gt;Node56</title>
<path fill="none" stroke="midnightblue" d="M490.03,-171.57C564.25,-160.67 729.65,-136.4 794.34,-126.91"/>
<polygon fill="midnightblue" stroke="midnightblue" points="489.15,-168.16 479.76,-173.07 490.16,-175.08 489.15,-168.16"/>
</g>
<!-- Node126&#45;&gt;Node49 -->
<g id="edge183" class="edge">
<title>Node126&#45;&gt;Node49</title>
<path fill="none" stroke="midnightblue" d="M489.71,-176.11C557.25,-174.47 705.79,-170.89 831,-168 1547.88,-151.47 1727.17,-150.44 2444,-132 2544.6,-129.41 2663.59,-125.79 2720.08,-124.03"/>
<polygon fill="midnightblue" stroke="midnightblue" points="489.49,-172.61 479.58,-176.35 489.66,-179.61 489.49,-172.61"/>
</g>
<!-- Node126&#45;&gt;Node62 -->
<g id="edge184" class="edge">
<title>Node126&#45;&gt;Node62</title>
<path fill="none" stroke="midnightblue" d="M422.68,-164.5C398.12,-154.38 364.18,-140.39 342.66,-131.52"/>
<polygon fill="midnightblue" stroke="midnightblue" points="421.66,-167.87 432.24,-168.44 424.33,-161.4 421.66,-167.87"/>
</g>
</g>
</svg>
