<?xml version="1.0" encoding="UTF-8" standalone="no"?>
<!DOCTYPE svg PUBLIC "-//W3C//DTD SVG 1.1//EN"
 "http://www.w3.org/Graphics/SVG/1.1/DTD/svg11.dtd">
<!-- Generated by graphviz version 2.43.0 (0)
 -->
<!-- Title: constitute.c Pages: 1 -->
<svg width="3914pt" height="252pt"
 viewBox="0.00 0.00 3913.50 252.00" xmlns="http://www.w3.org/2000/svg" xmlns:xlink="http://www.w3.org/1999/xlink">
<g id="graph0" class="graph" transform="scale(1 1) rotate(0) translate(4 248)">
<title>constitute.c</title>
<polygon fill="white" stroke="transparent" points="-4,4 -4,-248 3909.5,-248 3909.5,4 -4,4"/>
<!-- Node1 -->
<g id="node1" class="node">
<title>Node1</title>
<g id="a_node1"><a xlink:title=" ">
<polygon fill="#bfbfbf" stroke="black" points="1956.5,-224.5 1956.5,-243.5 2030.5,-243.5 2030.5,-224.5 1956.5,-224.5"/>
<text text-anchor="middle" x="1993.5" y="-231.5" font-family="FreeSans" font-size="10.00">constitute.c</text>
</a>
</g>
</g>
<!-- Node2 -->
<g id="node2" class="node">
<title>Node2</title>
<g id="a_node2"><a xlink:href="studio_8h.html" target="_top" xlink:title=" ">
<polygon fill="white" stroke="red" points="410,-168.5 410,-187.5 505,-187.5 505,-168.5 410,-168.5"/>
<text text-anchor="middle" x="457.5" y="-175.5" font-family="FreeSans" font-size="10.00">magick/studio.h</text>
</a>
</g>
</g>
<!-- Node1&#45;&gt;Node2 -->
<g id="edge1" class="edge">
<title>Node1&#45;&gt;Node2</title>
<path fill="none" stroke="midnightblue" d="M1956.33,-232.62C1791.95,-230.78 1113.96,-221.43 558.5,-188 544.5,-187.16 529.43,-185.97 515.32,-184.73"/>
<polygon fill="midnightblue" stroke="midnightblue" points="515.51,-181.23 505.24,-183.82 514.89,-188.2 515.51,-181.23"/>
</g>
<!-- Node24 -->
<g id="node15" class="node">
<title>Node24</title>
<g id="a_node15"><a xlink:href="attribute_8h.html" target="_top" xlink:title=" ">
<polygon fill="white" stroke="red" points="1559,-112.5 1559,-131.5 1666,-131.5 1666,-112.5 1559,-112.5"/>
<text text-anchor="middle" x="1612.5" y="-119.5" font-family="FreeSans" font-size="10.00">magick/attribute.h</text>
</a>
</g>
</g>
<!-- Node1&#45;&gt;Node24 -->
<g id="edge14" class="edge">
<title>Node1&#45;&gt;Node24</title>
<path fill="none" stroke="midnightblue" d="M1956.44,-233.06C1875.32,-232.45 1685.36,-226.8 1636.5,-188 1622.54,-176.91 1616.7,-156.87 1614.26,-141.97"/>
<polygon fill="midnightblue" stroke="midnightblue" points="1617.7,-141.28 1612.97,-131.8 1610.75,-142.16 1617.7,-141.28"/>
</g>
<!-- Node30 -->
<g id="node16" class="node">
<title>Node30</title>
<g id="a_node16"><a xlink:href="exception_8h.html" target="_top" xlink:title=" ">
<polygon fill="white" stroke="black" points="1474,-56.5 1474,-75.5 1587,-75.5 1587,-56.5 1474,-56.5"/>
<text text-anchor="middle" x="1530.5" y="-63.5" font-family="FreeSans" font-size="10.00">magick/exception.h</text>
</a>
</g>
</g>
<!-- Node1&#45;&gt;Node30 -->
<g id="edge22" class="edge">
<title>Node1&#45;&gt;Node30</title>
<path fill="none" stroke="midnightblue" d="M1956.37,-231.24C1873.89,-226.9 1677.93,-214.1 1617.5,-188 1581.87,-172.61 1571.98,-164.32 1550.5,-132 1541.21,-118.02 1536.07,-99.52 1533.33,-85.83"/>
<polygon fill="midnightblue" stroke="midnightblue" points="1536.73,-84.92 1531.57,-75.67 1529.83,-86.12 1536.73,-84.92"/>
</g>
<!-- Node31 -->
<g id="node17" class="node">
<title>Node31</title>
<g id="a_node17"><a xlink:href="semaphore_8h.html" target="_top" xlink:title=" ">
<polygon fill="white" stroke="black" points="1471,-0.5 1471,-19.5 1590,-19.5 1590,-0.5 1471,-0.5"/>
<text text-anchor="middle" x="1530.5" y="-7.5" font-family="FreeSans" font-size="10.00">magick/semaphore.h</text>
</a>
</g>
</g>
<!-- Node1&#45;&gt;Node31 -->
<g id="edge65" class="edge">
<title>Node1&#45;&gt;Node31</title>
<path fill="none" stroke="midnightblue" d="M2030.88,-232.1C2176.71,-228.43 2700.52,-213.5 2724.5,-188 2740.29,-171.21 2730.71,-132.92 2708.5,-112 2627.63,-35.81 1840.91,-16.25 1600.16,-12.03"/>
<polygon fill="midnightblue" stroke="midnightblue" points="1600.18,-8.53 1590.12,-11.86 1600.06,-15.53 1600.18,-8.53"/>
</g>
<!-- Node32 -->
<g id="node18" class="node">
<title>Node32</title>
<g id="a_node18"><a xlink:href="blob_8h.html" target="_top" xlink:title=" ">
<polygon fill="white" stroke="red" points="1136.5,-112.5 1136.5,-131.5 1222.5,-131.5 1222.5,-112.5 1136.5,-112.5"/>
<text text-anchor="middle" x="1179.5" y="-119.5" font-family="FreeSans" font-size="10.00">magick/blob.h</text>
</a>
</g>
</g>
<!-- Node1&#45;&gt;Node32 -->
<g id="edge18" class="edge">
<title>Node1&#45;&gt;Node32</title>
<path fill="none" stroke="midnightblue" d="M1956.4,-232.49C1794.01,-230.08 1152.6,-218.64 1123.5,-188 1107.27,-170.91 1132.49,-150.12 1154.12,-136.73"/>
<polygon fill="midnightblue" stroke="midnightblue" points="1155.91,-139.74 1162.74,-131.64 1152.35,-133.71 1155.91,-139.74"/>
</g>
<!-- Node33 -->
<g id="node19" class="node">
<title>Node33</title>
<g id="a_node19"><a xlink:href="stream_8h.html" target="_top" xlink:title=" ">
<polygon fill="white" stroke="black" points="1205,-56.5 1205,-75.5 1304,-75.5 1304,-56.5 1205,-56.5"/>
<text text-anchor="middle" x="1254.5" y="-63.5" font-family="FreeSans" font-size="10.00">magick/stream.h</text>
</a>
</g>
</g>
<!-- Node1&#45;&gt;Node33 -->
<g id="edge67" class="edge">
<title>Node1&#45;&gt;Node33</title>
<path fill="none" stroke="midnightblue" d="M1956.37,-232.72C1820.6,-231.42 1356.23,-224.33 1301.5,-188 1267.34,-165.32 1258,-113.77 1255.45,-85.83"/>
<polygon fill="midnightblue" stroke="midnightblue" points="1258.93,-85.49 1254.73,-75.77 1251.95,-85.99 1258.93,-85.49"/>
</g>
<!-- Node51 -->
<g id="node20" class="node">
<title>Node51</title>
<g id="a_node20"><a xlink:href="blob-private_8h.html" target="_top" xlink:title=" ">
<polygon fill="white" stroke="red" points="1282.5,-112.5 1282.5,-131.5 1406.5,-131.5 1406.5,-112.5 1282.5,-112.5"/>
<text text-anchor="middle" x="1344.5" y="-119.5" font-family="FreeSans" font-size="10.00">magick/blob&#45;private.h</text>
</a>
</g>
</g>
<!-- Node1&#45;&gt;Node51 -->
<g id="edge20" class="edge">
<title>Node1&#45;&gt;Node51</title>
<path fill="none" stroke="midnightblue" d="M1956.27,-233.44C1820.24,-234.65 1355.75,-235.26 1311.5,-188 1298.22,-173.81 1312.74,-153.26 1326.5,-139.08"/>
<polygon fill="midnightblue" stroke="midnightblue" points="1329.12,-141.41 1333.88,-131.94 1324.26,-136.38 1329.12,-141.41"/>
</g>
<!-- Node56 -->
<g id="node21" class="node">
<title>Node56</title>
<g id="a_node21"><a xlink:href="exception-private_8h.html" target="_top" xlink:title=" ">
<polygon fill="white" stroke="red" points="849,-168.5 849,-187.5 1000,-187.5 1000,-168.5 849,-168.5"/>
<text text-anchor="middle" x="924.5" y="-175.5" font-family="FreeSans" font-size="10.00">magick/exception&#45;private.h</text>
</a>
</g>
</g>
<!-- Node1&#45;&gt;Node56 -->
<g id="edge23" class="edge">
<title>Node1&#45;&gt;Node56</title>
<path fill="none" stroke="midnightblue" d="M1956.11,-232.01C1826.01,-228.39 1381.04,-214.73 1014.5,-188 1013.18,-187.9 1011.85,-187.8 1010.51,-187.7"/>
<polygon fill="midnightblue" stroke="midnightblue" points="1010.35,-184.18 1000.1,-186.86 1009.78,-191.15 1010.35,-184.18"/>
</g>
<!-- Node58 -->
<g id="node22" class="node">
<title>Node58</title>
<g id="a_node22"><a xlink:href="magick_8h.html" target="_top" xlink:title=" ">
<polygon fill="white" stroke="black" points="952,-56.5 952,-75.5 1053,-75.5 1053,-56.5 952,-56.5"/>
<text text-anchor="middle" x="1002.5" y="-63.5" font-family="FreeSans" font-size="10.00">magick/magick.h</text>
</a>
</g>
</g>
<!-- Node1&#45;&gt;Node58 -->
<g id="edge47" class="edge">
<title>Node1&#45;&gt;Node58</title>
<path fill="none" stroke="midnightblue" d="M1956.34,-232.91C1797.06,-232.31 1176.6,-227.42 1099.5,-188 1055.5,-165.5 1024.73,-113.06 1010.84,-85.18"/>
<polygon fill="midnightblue" stroke="midnightblue" points="1013.83,-83.32 1006.35,-75.81 1007.51,-86.34 1013.83,-83.32"/>
</g>
<!-- Node45 -->
<g id="node23" class="node">
<title>Node45</title>
<g id="a_node23"><a xlink:href="string___8h.html" target="_top" xlink:title=" ">
<polygon fill="white" stroke="black" points="864.5,-112.5 864.5,-131.5 962.5,-131.5 962.5,-112.5 864.5,-112.5"/>
<text text-anchor="middle" x="913.5" y="-119.5" font-family="FreeSans" font-size="10.00">magick/string_.h</text>
</a>
</g>
</g>
<!-- Node1&#45;&gt;Node45 -->
<g id="edge68" class="edge">
<title>Node1&#45;&gt;Node45</title>
<path fill="none" stroke="midnightblue" d="M1956.21,-232.98C1762.56,-232.7 879.09,-229.16 839.5,-188 820.73,-168.49 853.49,-148.25 881.21,-135.64"/>
<polygon fill="midnightblue" stroke="midnightblue" points="882.94,-138.71 890.71,-131.52 880.15,-132.29 882.94,-138.71"/>
</g>
<!-- Node59 -->
<g id="node24" class="node">
<title>Node59</title>
<g id="a_node24"><a xlink:href="cache_8h.html" target="_top" xlink:title=" ">
<polygon fill="white" stroke="black" points="1133,-168.5 1133,-187.5 1226,-187.5 1226,-168.5 1133,-168.5"/>
<text text-anchor="middle" x="1179.5" y="-175.5" font-family="FreeSans" font-size="10.00">magick/cache.h</text>
</a>
</g>
</g>
<!-- Node1&#45;&gt;Node59 -->
<g id="edge31" class="edge">
<title>Node1&#45;&gt;Node59</title>
<path fill="none" stroke="midnightblue" d="M1956.19,-231.92C1846.3,-228.48 1514.39,-216.33 1240.5,-188 1239.04,-187.85 1237.55,-187.69 1236.06,-187.52"/>
<polygon fill="midnightblue" stroke="midnightblue" points="1236.43,-184.04 1226.07,-186.3 1235.58,-190.99 1236.43,-184.04"/>
</g>
<!-- Node60 -->
<g id="node25" class="node">
<title>Node60</title>
<g id="a_node25"><a xlink:href="client_8h.html" target="_top" xlink:title=" ">
<polygon fill="white" stroke="black" points="1320.5,-168.5 1320.5,-187.5 1412.5,-187.5 1412.5,-168.5 1320.5,-168.5"/>
<text text-anchor="middle" x="1366.5" y="-175.5" font-family="FreeSans" font-size="10.00">magick/client.h</text>
</a>
</g>
</g>
<!-- Node1&#45;&gt;Node60 -->
<g id="edge33" class="edge">
<title>Node1&#45;&gt;Node60</title>
<path fill="none" stroke="midnightblue" d="M1956.32,-231.11C1866.6,-226.33 1630.94,-212.45 1422.81,-187.93"/>
<polygon fill="midnightblue" stroke="midnightblue" points="1422.95,-184.42 1412.6,-186.71 1422.12,-191.37 1422.95,-184.42"/>
</g>
<!-- Node61 -->
<g id="node26" class="node">
<title>Node61</title>
<g id="a_node26"><a xlink:href="coder_8h.html" target="_top" xlink:title=" ">
<polygon fill="white" stroke="black" points="1431,-168.5 1431,-187.5 1522,-187.5 1522,-168.5 1431,-168.5"/>
<text text-anchor="middle" x="1476.5" y="-175.5" font-family="FreeSans" font-size="10.00">magick/coder.h</text>
</a>
</g>
</g>
<!-- Node1&#45;&gt;Node61 -->
<g id="edge34" class="edge">
<title>Node1&#45;&gt;Node61</title>
<path fill="none" stroke="midnightblue" d="M1956.41,-229.99C1878.49,-223.53 1692.16,-207.33 1536.5,-188 1535.03,-187.82 1533.54,-187.63 1532.04,-187.43"/>
<polygon fill="midnightblue" stroke="midnightblue" points="1532.38,-183.95 1522,-186.07 1531.44,-190.88 1532.38,-183.95"/>
</g>
<!-- Node62 -->
<g id="node27" class="node">
<title>Node62</title>
<g id="a_node27"><a xlink:href="colorspace-private_8h.html" target="_top" xlink:title=" ">
<polygon fill="white" stroke="red" points="1655,-168.5 1655,-187.5 1810,-187.5 1810,-168.5 1655,-168.5"/>
<text text-anchor="middle" x="1732.5" y="-175.5" font-family="FreeSans" font-size="10.00">magick/colorspace&#45;private.h</text>
</a>
</g>
</g>
<!-- Node1&#45;&gt;Node62 -->
<g id="edge35" class="edge">
<title>Node1&#45;&gt;Node62</title>
<path fill="none" stroke="midnightblue" d="M1956.38,-225.32C1911.13,-215.96 1834.41,-200.08 1783.6,-189.57"/>
<polygon fill="midnightblue" stroke="midnightblue" points="1784.3,-186.14 1773.8,-187.54 1782.88,-193 1784.3,-186.14"/>
</g>
<!-- Node63 -->
<g id="node28" class="node">
<title>Node63</title>
<g id="a_node28"><a xlink:href="image-private_8h.html" target="_top" xlink:title=" ">
<polygon fill="white" stroke="black" points="1684.5,-112.5 1684.5,-131.5 1818.5,-131.5 1818.5,-112.5 1684.5,-112.5"/>
<text text-anchor="middle" x="1751.5" y="-119.5" font-family="FreeSans" font-size="10.00">magick/image&#45;private.h</text>
</a>
</g>
</g>
<!-- Node1&#45;&gt;Node63 -->
<g id="edge45" class="edge">
<title>Node1&#45;&gt;Node63</title>
<path fill="none" stroke="midnightblue" d="M1956.4,-230.91C1871.09,-225.74 1666.75,-211.04 1646.5,-188 1624.94,-163.46 1666.25,-145.1 1703.22,-134.26"/>
<polygon fill="midnightblue" stroke="midnightblue" points="1704.29,-137.6 1712.98,-131.54 1702.41,-130.86 1704.29,-137.6"/>
</g>
<!-- Node27 -->
<g id="node29" class="node">
<title>Node27</title>
<g id="a_node29"><a xlink:href="pixel_8h.html" target="_top" xlink:title=" ">
<polygon fill="white" stroke="red" points="2061.5,-112.5 2061.5,-131.5 2149.5,-131.5 2149.5,-112.5 2061.5,-112.5"/>
<text text-anchor="middle" x="2105.5" y="-119.5" font-family="FreeSans" font-size="10.00">magick/pixel.h</text>
</a>
</g>
</g>
<!-- Node1&#45;&gt;Node27 -->
<g id="edge54" class="edge">
<title>Node1&#45;&gt;Node27</title>
<path fill="none" stroke="midnightblue" d="M2030.69,-232.73C2099.56,-231.36 2242.72,-224.12 2273.5,-188 2308.33,-147.13 2220.87,-131.84 2159.49,-126.21"/>
<polygon fill="midnightblue" stroke="midnightblue" points="2159.77,-122.72 2149.51,-125.35 2159.17,-129.69 2159.77,-122.72"/>
</g>
<!-- Node29 -->
<g id="node30" class="node">
<title>Node29</title>
<g id="a_node30"><a xlink:href="constitute_8h.html" target="_top" xlink:title=" ">
<polygon fill="white" stroke="black" points="2334,-56.5 2334,-75.5 2447,-75.5 2447,-56.5 2334,-56.5"/>
<text text-anchor="middle" x="2390.5" y="-63.5" font-family="FreeSans" font-size="10.00">magick/constitute.h</text>
</a>
</g>
</g>
<!-- Node1&#45;&gt;Node29 -->
<g id="edge39" class="edge">
<title>Node1&#45;&gt;Node29</title>
<path fill="none" stroke="midnightblue" d="M2030.83,-232.04C2174.02,-228.17 2681.25,-212.77 2704.5,-188 2780.5,-107.04 2570.56,-79.6 2457.38,-70.83"/>
<polygon fill="midnightblue" stroke="midnightblue" points="2457.31,-67.32 2447.08,-70.07 2456.79,-74.3 2457.31,-67.32"/>
</g>
<!-- Node53 -->
<g id="node31" class="node">
<title>Node53</title>
<g id="a_node31"><a xlink:href="delegate_8h.html" target="_top" xlink:title=" ">
<polygon fill="white" stroke="black" points="1071,-56.5 1071,-75.5 1178,-75.5 1178,-56.5 1071,-56.5"/>
<text text-anchor="middle" x="1124.5" y="-63.5" font-family="FreeSans" font-size="10.00">magick/delegate.h</text>
</a>
</g>
</g>
<!-- Node1&#45;&gt;Node53 -->
<g id="edge40" class="edge">
<title>Node1&#45;&gt;Node53</title>
<path fill="none" stroke="midnightblue" d="M1956.29,-232.51C1792.67,-230.17 1143.92,-218.97 1114.5,-188 1088.22,-160.34 1104.1,-111.32 1115.66,-84.96"/>
<polygon fill="midnightblue" stroke="midnightblue" points="1118.89,-86.31 1119.92,-75.76 1112.54,-83.36 1118.89,-86.31"/>
</g>
<!-- Node39 -->
<g id="node32" class="node">
<title>Node39</title>
<g id="a_node32"><a xlink:href="geometry_8h.html" target="_top" xlink:title=" ">
<polygon fill="white" stroke="black" points="1938.5,-168.5 1938.5,-187.5 2048.5,-187.5 2048.5,-168.5 1938.5,-168.5"/>
<text text-anchor="middle" x="1993.5" y="-175.5" font-family="FreeSans" font-size="10.00">magick/geometry.h</text>
</a>
</g>
</g>
<!-- Node1&#45;&gt;Node39 -->
<g id="edge43" class="edge">
<title>Node1&#45;&gt;Node39</title>
<path fill="none" stroke="midnightblue" d="M1993.5,-224.08C1993.5,-217.01 1993.5,-206.86 1993.5,-197.99"/>
<polygon fill="midnightblue" stroke="midnightblue" points="1997,-197.75 1993.5,-187.75 1990,-197.75 1997,-197.75"/>
</g>
<!-- Node70 -->
<g id="node33" class="node">
<title>Node70</title>
<g id="a_node33"><a xlink:href="identify_8h.html" target="_top" xlink:title=" ">
<polygon fill="white" stroke="black" points="2066.5,-168.5 2066.5,-187.5 2166.5,-187.5 2166.5,-168.5 2066.5,-168.5"/>
<text text-anchor="middle" x="2116.5" y="-175.5" font-family="FreeSans" font-size="10.00">magick/identify.h</text>
</a>
</g>
</g>
<!-- Node1&#45;&gt;Node70 -->
<g id="edge44" class="edge">
<title>Node1&#45;&gt;Node70</title>
<path fill="none" stroke="midnightblue" d="M2012.99,-224.44C2033.14,-215.6 2064.82,-201.69 2087.83,-191.59"/>
<polygon fill="midnightblue" stroke="midnightblue" points="2089.35,-194.74 2097.1,-187.52 2086.54,-188.33 2089.35,-194.74"/>
</g>
<!-- Node71 -->
<g id="node34" class="node">
<title>Node71</title>
<g id="a_node34"><a xlink:href="list_8h.html" target="_top" xlink:title=" ">
<polygon fill="white" stroke="black" points="2184.5,-168.5 2184.5,-187.5 2264.5,-187.5 2264.5,-168.5 2184.5,-168.5"/>
<text text-anchor="middle" x="2224.5" y="-175.5" font-family="FreeSans" font-size="10.00">magick/list.h</text>
</a>
</g>
</g>
<!-- Node1&#45;&gt;Node71 -->
<g id="edge46" class="edge">
<title>Node1&#45;&gt;Node71</title>
<path fill="none" stroke="midnightblue" d="M2030.1,-224.44C2070.23,-215.06 2134.7,-199.99 2178.28,-189.8"/>
<polygon fill="midnightblue" stroke="midnightblue" points="2179.13,-193.2 2188.07,-187.52 2177.53,-186.38 2179.13,-193.2"/>
</g>
<!-- Node72 -->
<g id="node35" class="node">
<title>Node72</title>
<g id="a_node35"><a xlink:href="memory___8h.html" target="_top" xlink:title=" ">
<polygon fill="white" stroke="black" points="568,-168.5 568,-187.5 679,-187.5 679,-168.5 568,-168.5"/>
<text text-anchor="middle" x="623.5" y="-175.5" font-family="FreeSans" font-size="10.00">magick/memory_.h</text>
</a>
</g>
</g>
<!-- Node1&#45;&gt;Node72 -->
<g id="edge48" class="edge">
<title>Node1&#45;&gt;Node72</title>
<path fill="none" stroke="midnightblue" d="M1956.27,-233.15C1801.86,-233.47 1196.45,-231.75 689.39,-188.08"/>
<polygon fill="midnightblue" stroke="midnightblue" points="689.57,-184.58 679.31,-187.2 688.97,-191.55 689.57,-184.58"/>
</g>
<!-- Node43 -->
<g id="node36" class="node">
<title>Node43</title>
<g id="a_node36"><a xlink:href="monitor_8h.html" target="_top" xlink:title=" ">
<polygon fill="white" stroke="black" points="2320.5,-168.5 2320.5,-187.5 2422.5,-187.5 2422.5,-168.5 2320.5,-168.5"/>
<text text-anchor="middle" x="2371.5" y="-175.5" font-family="FreeSans" font-size="10.00">magick/monitor.h</text>
</a>
</g>
</g>
<!-- Node1&#45;&gt;Node43 -->
<g id="edge51" class="edge">
<title>Node1&#45;&gt;Node43</title>
<path fill="none" stroke="midnightblue" d="M2030.78,-227.67C2095.93,-218.37 2231.09,-199.06 2310.19,-187.76"/>
<polygon fill="midnightblue" stroke="midnightblue" points="2311.09,-191.17 2320.5,-186.29 2310.1,-184.24 2311.09,-191.17"/>
</g>
<!-- Node73 -->
<g id="node37" class="node">
<title>Node73</title>
<g id="a_node37"><a xlink:href="monitor-private_8h.html" target="_top" xlink:title=" ">
<polygon fill="white" stroke="black" points="2441,-168.5 2441,-187.5 2582,-187.5 2582,-168.5 2441,-168.5"/>
<text text-anchor="middle" x="2511.5" y="-175.5" font-family="FreeSans" font-size="10.00">magick/monitor&#45;private.h</text>
</a>
</g>
</g>
<!-- Node1&#45;&gt;Node73 -->
<g id="edge52" class="edge">
<title>Node1&#45;&gt;Node73</title>
<path fill="none" stroke="midnightblue" d="M2030.72,-229.3C2104.66,-221.92 2275.55,-204.73 2430.64,-188.08"/>
<polygon fill="midnightblue" stroke="midnightblue" points="2431.27,-191.54 2440.83,-186.99 2430.52,-184.58 2431.27,-191.54"/>
</g>
<!-- Node74 -->
<g id="node38" class="node">
<title>Node74</title>
<g id="a_node38"><a xlink:href="option_8h.html" target="_top" xlink:title=" ">
<polygon fill="white" stroke="black" points="2600,-168.5 2600,-187.5 2695,-187.5 2695,-168.5 2600,-168.5"/>
<text text-anchor="middle" x="2647.5" y="-175.5" font-family="FreeSans" font-size="10.00">magick/option.h</text>
</a>
</g>
</g>
<!-- Node1&#45;&gt;Node74 -->
<g id="edge53" class="edge">
<title>Node1&#45;&gt;Node74</title>
<path fill="none" stroke="midnightblue" d="M2030.69,-231.29C2123.4,-226.8 2372.36,-213.32 2589.87,-188.1"/>
<polygon fill="midnightblue" stroke="midnightblue" points="2590.35,-191.57 2599.88,-186.93 2589.54,-184.62 2590.35,-191.57"/>
</g>
<!-- Node75 -->
<g id="node39" class="node">
<title>Node75</title>
<g id="a_node39"><a xlink:href="policy_8h.html" target="_top" xlink:title=" ">
<polygon fill="white" stroke="black" points="1828.5,-168.5 1828.5,-187.5 1920.5,-187.5 1920.5,-168.5 1828.5,-168.5"/>
<text text-anchor="middle" x="1874.5" y="-175.5" font-family="FreeSans" font-size="10.00">magick/policy.h</text>
</a>
</g>
</g>
<!-- Node1&#45;&gt;Node75 -->
<g id="edge55" class="edge">
<title>Node1&#45;&gt;Node75</title>
<path fill="none" stroke="midnightblue" d="M1974.64,-224.44C1955.23,-215.64 1924.77,-201.81 1902.54,-191.72"/>
<polygon fill="midnightblue" stroke="midnightblue" points="1903.82,-188.46 1893.27,-187.52 1900.93,-194.84 1903.82,-188.46"/>
</g>
<!-- Node44 -->
<g id="node40" class="node">
<title>Node44</title>
<g id="a_node40"><a xlink:href="profile_8h.html" target="_top" xlink:title=" ">
<polygon fill="white" stroke="black" points="697,-168.5 697,-187.5 792,-187.5 792,-168.5 697,-168.5"/>
<text text-anchor="middle" x="744.5" y="-175.5" font-family="FreeSans" font-size="10.00">magick/profile.h</text>
</a>
</g>
</g>
<!-- Node1&#45;&gt;Node44 -->
<g id="edge58" class="edge">
<title>Node1&#45;&gt;Node44</title>
<path fill="none" stroke="midnightblue" d="M1956.49,-233.03C1810.2,-232.83 1258.32,-229.24 806.5,-188 805.19,-187.88 803.87,-187.75 802.53,-187.62"/>
<polygon fill="midnightblue" stroke="midnightblue" points="802.5,-184.09 792.17,-186.44 801.71,-191.05 802.5,-184.09"/>
</g>
<!-- Node76 -->
<g id="node41" class="node">
<title>Node76</title>
<g id="a_node41"><a xlink:href="property_8h.html" target="_top" xlink:title=" ">
<polygon fill="white" stroke="black" points="2789.5,-168.5 2789.5,-187.5 2893.5,-187.5 2893.5,-168.5 2789.5,-168.5"/>
<text text-anchor="middle" x="2841.5" y="-175.5" font-family="FreeSans" font-size="10.00">magick/property.h</text>
</a>
</g>
</g>
<!-- Node1&#45;&gt;Node76 -->
<g id="edge60" class="edge">
<title>Node1&#45;&gt;Node76</title>
<path fill="none" stroke="midnightblue" d="M2030.62,-231.89C2143.03,-228.32 2489.56,-215.68 2775.5,-188 2776.76,-187.88 2778.04,-187.75 2779.32,-187.62"/>
<polygon fill="midnightblue" stroke="midnightblue" points="2779.76,-191.09 2789.31,-186.5 2778.98,-184.13 2779.76,-191.09"/>
</g>
<!-- Node46 -->
<g id="node42" class="node">
<title>Node46</title>
<g id="a_node42"><a xlink:href="quantum_8h.html" target="_top" xlink:title=" ">
<polygon fill="white" stroke="red" points="2828.5,-56.5 2828.5,-75.5 2936.5,-75.5 2936.5,-56.5 2828.5,-56.5"/>
<text text-anchor="middle" x="2882.5" y="-63.5" font-family="FreeSans" font-size="10.00">magick/quantum.h</text>
</a>
</g>
</g>
<!-- Node1&#45;&gt;Node46 -->
<g id="edge61" class="edge">
<title>Node1&#45;&gt;Node46</title>
<path fill="none" stroke="midnightblue" d="M2030.57,-232.58C2197.42,-230.49 2871.97,-220.08 2902.5,-188 2929.18,-159.96 2907.89,-110.74 2893.3,-84.55"/>
<polygon fill="midnightblue" stroke="midnightblue" points="2896.21,-82.6 2888.15,-75.73 2890.17,-86.13 2896.21,-82.6"/>
</g>
<!-- Node49 -->
<g id="node43" class="node">
<title>Node49</title>
<g id="a_node43"><a xlink:href="resize_8h.html" target="_top" xlink:title=" ">
<polygon fill="white" stroke="black" points="2949.5,-168.5 2949.5,-187.5 3043.5,-187.5 3043.5,-168.5 2949.5,-168.5"/>
<text text-anchor="middle" x="2996.5" y="-175.5" font-family="FreeSans" font-size="10.00">magick/resize.h</text>
</a>
</g>
</g>
<!-- Node1&#45;&gt;Node49 -->
<g id="edge63" class="edge">
<title>Node1&#45;&gt;Node49</title>
<path fill="none" stroke="midnightblue" d="M2030.84,-232.54C2157.86,-230.69 2584.74,-222.17 2935.5,-188 2936.76,-187.88 2938.03,-187.75 2939.31,-187.61"/>
<polygon fill="midnightblue" stroke="midnightblue" points="2939.75,-191.08 2949.27,-186.44 2938.93,-184.13 2939.75,-191.08"/>
</g>
<!-- Node77 -->
<g id="node44" class="node">
<title>Node77</title>
<g id="a_node44"><a xlink:href="resource___8h.html" target="_top" xlink:title=" ">
<polygon fill="white" stroke="black" points="3061.5,-168.5 3061.5,-187.5 3173.5,-187.5 3173.5,-168.5 3061.5,-168.5"/>
<text text-anchor="middle" x="3117.5" y="-175.5" font-family="FreeSans" font-size="10.00">magick/resource_.h</text>
</a>
</g>
</g>
<!-- Node1&#45;&gt;Node77 -->
<g id="edge64" class="edge">
<title>Node1&#45;&gt;Node77</title>
<path fill="none" stroke="midnightblue" d="M2030.63,-232.7C2165.93,-231.33 2645.37,-224.15 3051,-188.05"/>
<polygon fill="midnightblue" stroke="midnightblue" points="3051.52,-191.51 3061.17,-187.13 3050.89,-184.54 3051.52,-191.51"/>
</g>
<!-- Node78 -->
<g id="node45" class="node">
<title>Node78</title>
<g id="a_node45"><a xlink:href="statistic_8h.html" target="_top" xlink:title=" ">
<polygon fill="white" stroke="red" points="3191.5,-168.5 3191.5,-187.5 3295.5,-187.5 3295.5,-168.5 3191.5,-168.5"/>
<text text-anchor="middle" x="3243.5" y="-175.5" font-family="FreeSans" font-size="10.00">magick/statistic.h</text>
</a>
</g>
</g>
<!-- Node1&#45;&gt;Node78 -->
<g id="edge66" class="edge">
<title>Node1&#45;&gt;Node78</title>
<path fill="none" stroke="midnightblue" d="M2030.58,-233.06C2176.05,-233 2721.89,-229.87 3181.15,-188.02"/>
<polygon fill="midnightblue" stroke="midnightblue" points="3181.66,-191.48 3191.3,-187.08 3181.02,-184.51 3181.66,-191.48"/>
</g>
<!-- Node79 -->
<g id="node46" class="node">
<title>Node79</title>
<g id="a_node46"><a xlink:href="string-private_8h.html" target="_top" xlink:title=" ">
<polygon fill="white" stroke="red" points="3314,-168.5 3314,-187.5 3445,-187.5 3445,-168.5 3314,-168.5"/>
<text text-anchor="middle" x="3379.5" y="-175.5" font-family="FreeSans" font-size="10.00">magick/string&#45;private.h</text>
</a>
</g>
</g>
<!-- Node1&#45;&gt;Node79 -->
<g id="edge69" class="edge">
<title>Node1&#45;&gt;Node79</title>
<path fill="none" stroke="midnightblue" d="M2030.58,-232.88C2185.07,-232.15 2792.9,-226.85 3303.53,-188"/>
<polygon fill="midnightblue" stroke="midnightblue" points="3303.98,-191.47 3313.68,-187.22 3303.44,-184.49 3303.98,-191.47"/>
</g>
<!-- Node50 -->
<g id="node47" class="node">
<title>Node50</title>
<g id="a_node47"><a xlink:href="timer_8h.html" target="_top" xlink:title=" ">
<polygon fill="white" stroke="black" points="3463.5,-168.5 3463.5,-187.5 3553.5,-187.5 3553.5,-168.5 3463.5,-168.5"/>
<text text-anchor="middle" x="3508.5" y="-175.5" font-family="FreeSans" font-size="10.00">magick/timer.h</text>
</a>
</g>
</g>
<!-- Node1&#45;&gt;Node50 -->
<g id="edge70" class="edge">
<title>Node1&#45;&gt;Node50</title>
<path fill="none" stroke="midnightblue" d="M2030.79,-232.53C2227.33,-229.96 3145.18,-216.65 3453.22,-187.95"/>
<polygon fill="midnightblue" stroke="midnightblue" points="3453.86,-191.41 3463.48,-186.97 3453.19,-184.44 3453.86,-191.41"/>
</g>
<!-- Node81 -->
<g id="node48" class="node">
<title>Node81</title>
<g id="a_node48"><a xlink:href="token_8h.html" target="_top" xlink:title=" ">
<polygon fill="white" stroke="black" points="3571.5,-168.5 3571.5,-187.5 3663.5,-187.5 3663.5,-168.5 3571.5,-168.5"/>
<text text-anchor="middle" x="3617.5" y="-175.5" font-family="FreeSans" font-size="10.00">magick/token.h</text>
</a>
</g>
</g>
<!-- Node1&#45;&gt;Node81 -->
<g id="edge71" class="edge">
<title>Node1&#45;&gt;Node81</title>
<path fill="none" stroke="midnightblue" d="M2030.79,-232.61C2236.05,-230.34 3230.7,-218.04 3561.29,-187.95"/>
<polygon fill="midnightblue" stroke="midnightblue" points="3561.71,-191.43 3571.34,-187.01 3561.06,-184.46 3561.71,-191.43"/>
</g>
<!-- Node82 -->
<g id="node49" class="node">
<title>Node82</title>
<g id="a_node49"><a xlink:href="transform_8h.html" target="_top" xlink:title=" ">
<polygon fill="white" stroke="black" points="3682,-168.5 3682,-187.5 3795,-187.5 3795,-168.5 3682,-168.5"/>
<text text-anchor="middle" x="3738.5" y="-175.5" font-family="FreeSans" font-size="10.00">magick/transform.h</text>
</a>
</g>
</g>
<!-- Node1&#45;&gt;Node82 -->
<g id="edge72" class="edge">
<title>Node1&#45;&gt;Node82</title>
<path fill="none" stroke="midnightblue" d="M2030.54,-232.56C2243.73,-229.92 3317.01,-215.51 3671.63,-187.95"/>
<polygon fill="midnightblue" stroke="midnightblue" points="3671.97,-191.43 3681.66,-187.15 3671.41,-184.46 3671.97,-191.43"/>
</g>
<!-- Node83 -->
<g id="node50" class="node">
<title>Node83</title>
<g id="a_node50"><a xlink:href="utility_8h.html" target="_top" xlink:title=" ">
<polygon fill="white" stroke="black" points="3813.5,-168.5 3813.5,-187.5 3905.5,-187.5 3905.5,-168.5 3813.5,-168.5"/>
<text text-anchor="middle" x="3859.5" y="-175.5" font-family="FreeSans" font-size="10.00">magick/utility.h</text>
</a>
</g>
</g>
<!-- Node1&#45;&gt;Node83 -->
<g id="edge73" class="edge">
<title>Node1&#45;&gt;Node83</title>
<path fill="none" stroke="midnightblue" d="M2030.86,-232.77C2254.75,-231.3 3421.67,-222.12 3803.38,-187.94"/>
<polygon fill="midnightblue" stroke="midnightblue" points="3803.71,-191.42 3813.35,-187.02 3803.07,-184.45 3803.71,-191.42"/>
</g>
<!-- Node3 -->
<g id="node3" class="node">
<title>Node3</title>
<g id="a_node3"><a xlink:href="magick-config_8h.html" target="_top" xlink:title=" ">
<polygon fill="white" stroke="red" points="390.5,-112.5 390.5,-131.5 524.5,-131.5 524.5,-112.5 390.5,-112.5"/>
<text text-anchor="middle" x="457.5" y="-119.5" font-family="FreeSans" font-size="10.00">magick/magick&#45;config.h</text>
</a>
</g>
</g>
<!-- Node2&#45;&gt;Node3 -->
<g id="edge2" class="edge">
<title>Node2&#45;&gt;Node3</title>
<path fill="none" stroke="midnightblue" d="M457.5,-168.08C457.5,-161.01 457.5,-150.86 457.5,-141.99"/>
<polygon fill="midnightblue" stroke="midnightblue" points="461,-141.75 457.5,-131.75 454,-141.75 461,-141.75"/>
</g>
<!-- Node5 -->
<g id="node4" class="node">
<title>Node5</title>
<g id="a_node4"><a xlink:title=" ">
<polygon fill="white" stroke="#bfbfbf" points="974.5,-0.5 974.5,-19.5 1030.5,-19.5 1030.5,-0.5 974.5,-0.5"/>
<text text-anchor="middle" x="1002.5" y="-7.5" font-family="FreeSans" font-size="10.00">stdarg.h</text>
</a>
</g>
</g>
<!-- Node2&#45;&gt;Node5 -->
<g id="edge3" class="edge">
<title>Node2&#45;&gt;Node5</title>
<path fill="none" stroke="midnightblue" d="M409.77,-177.65C330.87,-177.18 186.67,-168.83 236.5,-112 285.13,-56.54 815.75,-21.82 964.14,-13.14"/>
<polygon fill="midnightblue" stroke="midnightblue" points="964.37,-16.64 974.15,-12.56 963.97,-9.65 964.37,-16.64"/>
</g>
<!-- Node6 -->
<g id="node5" class="node">
<title>Node6</title>
<g id="a_node5"><a xlink:title=" ">
<polygon fill="white" stroke="#bfbfbf" points="580.5,-112.5 580.5,-131.5 630.5,-131.5 630.5,-112.5 580.5,-112.5"/>
<text text-anchor="middle" x="605.5" y="-119.5" font-family="FreeSans" font-size="10.00">stdio.h</text>
</a>
</g>
</g>
<!-- Node2&#45;&gt;Node6 -->
<g id="edge4" class="edge">
<title>Node2&#45;&gt;Node6</title>
<path fill="none" stroke="midnightblue" d="M480.95,-168.44C505.63,-159.44 544.69,-145.19 572.48,-135.05"/>
<polygon fill="midnightblue" stroke="midnightblue" points="573.96,-138.23 582.16,-131.52 571.56,-131.66 573.96,-138.23"/>
</g>
<!-- Node7 -->
<g id="node6" class="node">
<title>Node7</title>
<g id="a_node6"><a xlink:title=" ">
<polygon fill="white" stroke="#bfbfbf" points="649,-112.5 649,-131.5 702,-131.5 702,-112.5 649,-112.5"/>
<text text-anchor="middle" x="675.5" y="-119.5" font-family="FreeSans" font-size="10.00">ctype.h</text>
</a>
</g>
</g>
<!-- Node2&#45;&gt;Node7 -->
<g id="edge5" class="edge">
<title>Node2&#45;&gt;Node7</title>
<path fill="none" stroke="midnightblue" d="M492.06,-168.48C526.67,-159.95 581.73,-146.35 638.84,-132.16"/>
<polygon fill="midnightblue" stroke="midnightblue" points="639.91,-135.5 648.77,-129.69 638.22,-128.71 639.91,-135.5"/>
</g>
<!-- Node8 -->
<g id="node7" class="node">
<title>Node8</title>
<g id="a_node7"><a xlink:title=" ">
<polygon fill="white" stroke="#bfbfbf" points="0,-112.5 0,-131.5 55,-131.5 55,-112.5 0,-112.5"/>
<text text-anchor="middle" x="27.5" y="-119.5" font-family="FreeSans" font-size="10.00">locale.h</text>
</a>
</g>
</g>
<!-- Node2&#45;&gt;Node8 -->
<g id="edge6" class="edge">
<title>Node2&#45;&gt;Node8</title>
<path fill="none" stroke="midnightblue" d="M409.9,-173.59C337.42,-167.96 194.94,-155.15 65.42,-132.16"/>
<polygon fill="midnightblue" stroke="midnightblue" points="65.79,-128.67 55.33,-130.34 64.55,-135.56 65.79,-128.67"/>
</g>
<!-- Node9 -->
<g id="node8" class="node">
<title>Node9</title>
<g id="a_node8"><a xlink:title=" ">
<polygon fill="white" stroke="#bfbfbf" points="795,-112.5 795,-131.5 846,-131.5 846,-112.5 795,-112.5"/>
<text text-anchor="middle" x="820.5" y="-119.5" font-family="FreeSans" font-size="10.00">errno.h</text>
</a>
</g>
</g>
<!-- Node2&#45;&gt;Node9 -->
<g id="edge7" class="edge">
<title>Node2&#45;&gt;Node9</title>
<path fill="none" stroke="midnightblue" d="M505.04,-172.22C567.16,-165.59 679.46,-152.29 785.09,-131.86"/>
<polygon fill="midnightblue" stroke="midnightblue" points="785.82,-135.29 794.96,-129.93 784.48,-128.42 785.82,-135.29"/>
</g>
<!-- Node10 -->
<g id="node9" class="node">
<title>Node10</title>
<g id="a_node9"><a xlink:title=" ">
<polygon fill="white" stroke="#bfbfbf" points="73,-112.5 73,-131.5 120,-131.5 120,-112.5 73,-112.5"/>
<text text-anchor="middle" x="96.5" y="-119.5" font-family="FreeSans" font-size="10.00">fcntl.h</text>
</a>
</g>
</g>
<!-- Node2&#45;&gt;Node10 -->
<g id="edge8" class="edge">
<title>Node2&#45;&gt;Node10</title>
<path fill="none" stroke="midnightblue" d="M409.75,-172.56C347.43,-166.31 234.87,-153.44 130.27,-132.14"/>
<polygon fill="midnightblue" stroke="midnightblue" points="130.68,-128.65 120.18,-130.05 129.26,-135.5 130.68,-128.65"/>
</g>
<!-- Node11 -->
<g id="node10" class="node">
<title>Node11</title>
<g id="a_node10"><a xlink:title=" ">
<polygon fill="white" stroke="#bfbfbf" points="138,-112.5 138,-131.5 189,-131.5 189,-112.5 138,-112.5"/>
<text text-anchor="middle" x="163.5" y="-119.5" font-family="FreeSans" font-size="10.00">math.h</text>
</a>
</g>
</g>
<!-- Node2&#45;&gt;Node11 -->
<g id="edge9" class="edge">
<title>Node2&#45;&gt;Node11</title>
<path fill="none" stroke="midnightblue" d="M409.63,-169.19C358.47,-160.69 275.07,-146.38 203.5,-132 202.06,-131.71 200.59,-131.41 199.11,-131.1"/>
<polygon fill="midnightblue" stroke="midnightblue" points="199.8,-127.67 189.28,-128.98 198.32,-134.51 199.8,-127.67"/>
</g>
<!-- Node12 -->
<g id="node11" class="node">
<title>Node12</title>
<g id="a_node11"><a xlink:title=" ">
<polygon fill="white" stroke="#bfbfbf" points="688.5,-56.5 688.5,-75.5 736.5,-75.5 736.5,-56.5 688.5,-56.5"/>
<text text-anchor="middle" x="712.5" y="-63.5" font-family="FreeSans" font-size="10.00">time.h</text>
</a>
</g>
</g>
<!-- Node2&#45;&gt;Node12 -->
<g id="edge10" class="edge">
<title>Node2&#45;&gt;Node12</title>
<path fill="none" stroke="midnightblue" d="M471.56,-168.49C497.36,-152.96 551.47,-120.79 571.5,-112 607.07,-96.39 649.8,-83.52 678.83,-75.6"/>
<polygon fill="midnightblue" stroke="midnightblue" points="679.74,-78.98 688.49,-73.01 677.93,-72.22 679.74,-78.98"/>
</g>
<!-- Node13 -->
<g id="node12" class="node">
<title>Node13</title>
<g id="a_node12"><a xlink:title=" ">
<polygon fill="white" stroke="#bfbfbf" points="246,-112.5 246,-131.5 299,-131.5 299,-112.5 246,-112.5"/>
<text text-anchor="middle" x="272.5" y="-119.5" font-family="FreeSans" font-size="10.00">limits.h</text>
</a>
</g>
</g>
<!-- Node2&#45;&gt;Node13 -->
<g id="edge11" class="edge">
<title>Node2&#45;&gt;Node13</title>
<path fill="none" stroke="midnightblue" d="M428.19,-168.44C395.92,-159.02 343.99,-143.87 309.08,-133.68"/>
<polygon fill="midnightblue" stroke="midnightblue" points="309.85,-130.26 299.27,-130.82 307.89,-136.98 309.85,-130.26"/>
</g>
<!-- Node14 -->
<g id="node13" class="node">
<title>Node14</title>
<g id="a_node13"><a xlink:title=" ">
<polygon fill="white" stroke="#bfbfbf" points="317,-112.5 317,-131.5 372,-131.5 372,-112.5 317,-112.5"/>
<text text-anchor="middle" x="344.5" y="-119.5" font-family="FreeSans" font-size="10.00">signal.h</text>
</a>
</g>
</g>
<!-- Node2&#45;&gt;Node14 -->
<g id="edge12" class="edge">
<title>Node2&#45;&gt;Node14</title>
<path fill="none" stroke="midnightblue" d="M439.59,-168.44C421.25,-159.68 392.49,-145.94 371.41,-135.86"/>
<polygon fill="midnightblue" stroke="midnightblue" points="372.85,-132.67 362.32,-131.52 369.83,-138.99 372.85,-132.67"/>
</g>
<!-- Node15 -->
<g id="node14" class="node">
<title>Node15</title>
<g id="a_node14"><a xlink:title=" ">
<polygon fill="white" stroke="#bfbfbf" points="720.5,-112.5 720.5,-131.5 776.5,-131.5 776.5,-112.5 720.5,-112.5"/>
<text text-anchor="middle" x="748.5" y="-119.5" font-family="FreeSans" font-size="10.00">assert.h</text>
</a>
</g>
</g>
<!-- Node2&#45;&gt;Node15 -->
<g id="edge13" class="edge">
<title>Node2&#45;&gt;Node15</title>
<path fill="none" stroke="midnightblue" d="M505.22,-169.34C556.19,-160.96 639.29,-146.75 710.5,-132 710.6,-131.98 710.7,-131.96 710.8,-131.94"/>
<polygon fill="midnightblue" stroke="midnightblue" points="711.29,-135.41 720.32,-129.86 709.8,-128.57 711.29,-135.41"/>
</g>
<!-- Node24&#45;&gt;Node30 -->
<g id="edge15" class="edge">
<title>Node24&#45;&gt;Node30</title>
<path fill="none" stroke="midnightblue" d="M1599.33,-112.32C1586.65,-103.98 1567.27,-91.21 1552.29,-81.35"/>
<polygon fill="midnightblue" stroke="midnightblue" points="1553.92,-78.23 1543.64,-75.65 1550.07,-84.08 1553.92,-78.23"/>
</g>
<!-- Node30&#45;&gt;Node5 -->
<g id="edge16" class="edge">
<title>Node30&#45;&gt;Node5</title>
<path fill="none" stroke="midnightblue" d="M1473.99,-59.22C1365.89,-48.17 1132.41,-24.29 1040.64,-14.9"/>
<polygon fill="midnightblue" stroke="midnightblue" points="1040.98,-11.42 1030.68,-13.88 1040.27,-18.38 1040.98,-11.42"/>
</g>
<!-- Node30&#45;&gt;Node31 -->
<g id="edge17" class="edge">
<title>Node30&#45;&gt;Node31</title>
<path fill="none" stroke="midnightblue" d="M1530.5,-56.08C1530.5,-49.01 1530.5,-38.86 1530.5,-29.99"/>
<polygon fill="midnightblue" stroke="midnightblue" points="1534,-29.75 1530.5,-19.75 1527,-29.75 1534,-29.75"/>
</g>
<!-- Node32&#45;&gt;Node33 -->
<g id="edge19" class="edge">
<title>Node32&#45;&gt;Node33</title>
<path fill="none" stroke="midnightblue" d="M1191.55,-112.32C1202.96,-104.11 1220.33,-91.6 1233.93,-81.81"/>
<polygon fill="midnightblue" stroke="midnightblue" points="1236.16,-84.52 1242.23,-75.83 1232.07,-78.84 1236.16,-84.52"/>
</g>
<!-- Node51&#45;&gt;Node33 -->
<g id="edge21" class="edge">
<title>Node51&#45;&gt;Node33</title>
<path fill="none" stroke="midnightblue" d="M1330.04,-112.32C1316,-103.9 1294.45,-90.97 1277.96,-81.07"/>
<polygon fill="midnightblue" stroke="midnightblue" points="1279.3,-77.8 1268.92,-75.65 1275.7,-83.8 1279.3,-77.8"/>
</g>
<!-- Node56&#45;&gt;Node58 -->
<g id="edge24" class="edge">
<title>Node56&#45;&gt;Node58</title>
<path fill="none" stroke="midnightblue" d="M935.68,-168.3C945.98,-159.87 961.17,-146.28 971.5,-132 982.02,-117.45 990.49,-98.77 995.9,-85.17"/>
<polygon fill="midnightblue" stroke="midnightblue" points="999.29,-86.12 999.57,-75.53 992.74,-83.64 999.29,-86.12"/>
</g>
<!-- Node56&#45;&gt;Node45 -->
<g id="edge27" class="edge">
<title>Node56&#45;&gt;Node45</title>
<path fill="none" stroke="midnightblue" d="M922.68,-168.08C921.23,-160.93 919.13,-150.64 917.31,-141.69"/>
<polygon fill="midnightblue" stroke="midnightblue" points="920.71,-140.85 915.28,-131.75 913.85,-142.25 920.71,-140.85"/>
</g>
<!-- Node58&#45;&gt;Node5 -->
<g id="edge25" class="edge">
<title>Node58&#45;&gt;Node5</title>
<path fill="none" stroke="midnightblue" d="M1002.5,-56.08C1002.5,-49.01 1002.5,-38.86 1002.5,-29.99"/>
<polygon fill="midnightblue" stroke="midnightblue" points="1006,-29.75 1002.5,-19.75 999,-29.75 1006,-29.75"/>
</g>
<!-- Node58&#45;&gt;Node31 -->
<g id="edge26" class="edge">
<title>Node58&#45;&gt;Node31</title>
<path fill="none" stroke="midnightblue" d="M1053,-57.11C1055.88,-56.72 1058.72,-56.34 1061.5,-56 1202.92,-38.44 1369.07,-23.94 1460.79,-16.47"/>
<polygon fill="midnightblue" stroke="midnightblue" points="1461.1,-19.95 1470.79,-15.66 1460.54,-12.98 1461.1,-19.95"/>
</g>
<!-- Node45&#45;&gt;Node5 -->
<g id="edge28" class="edge">
<title>Node45&#45;&gt;Node5</title>
<path fill="none" stroke="midnightblue" d="M915.85,-112.25C919.73,-99.02 928.47,-73.58 942.5,-56 952.34,-43.67 966.3,-32.94 978.28,-25.05"/>
<polygon fill="midnightblue" stroke="midnightblue" points="980.35,-27.88 986.95,-19.59 976.62,-21.95 980.35,-27.88"/>
</g>
<!-- Node45&#45;&gt;Node12 -->
<g id="edge29" class="edge">
<title>Node45&#45;&gt;Node12</title>
<path fill="none" stroke="midnightblue" d="M881.65,-112.44C844.82,-102.55 784.43,-86.32 746.65,-76.17"/>
<polygon fill="midnightblue" stroke="midnightblue" points="747.2,-72.7 736.63,-73.48 745.38,-79.46 747.2,-72.7"/>
</g>
<!-- Node45&#45;&gt;Node30 -->
<g id="edge30" class="edge">
<title>Node45&#45;&gt;Node30</title>
<path fill="none" stroke="midnightblue" d="M962.69,-116.69C1072.65,-107.07 1338.51,-83.8 1463.48,-72.87"/>
<polygon fill="midnightblue" stroke="midnightblue" points="1464.02,-76.33 1473.68,-71.97 1463.41,-69.36 1464.02,-76.33"/>
</g>
<!-- Node59&#45;&gt;Node32 -->
<g id="edge32" class="edge">
<title>Node59&#45;&gt;Node32</title>
<path fill="none" stroke="midnightblue" d="M1179.5,-168.08C1179.5,-161.01 1179.5,-150.86 1179.5,-141.99"/>
<polygon fill="midnightblue" stroke="midnightblue" points="1183,-141.75 1179.5,-131.75 1176,-141.75 1183,-141.75"/>
</g>
<!-- Node62&#45;&gt;Node63 -->
<g id="edge36" class="edge">
<title>Node62&#45;&gt;Node63</title>
<path fill="none" stroke="midnightblue" d="M1735.64,-168.08C1738.18,-160.85 1741.86,-150.41 1745.03,-141.4"/>
<polygon fill="midnightblue" stroke="midnightblue" points="1748.4,-142.35 1748.42,-131.75 1741.8,-140.02 1748.4,-142.35"/>
</g>
<!-- Node62&#45;&gt;Node27 -->
<g id="edge37" class="edge">
<title>Node62&#45;&gt;Node27</title>
<path fill="none" stroke="midnightblue" d="M1791.6,-168.44C1862.92,-158.12 1981.85,-140.9 2051.03,-130.89"/>
<polygon fill="midnightblue" stroke="midnightblue" points="2051.88,-134.3 2061.27,-129.4 2050.88,-127.37 2051.88,-134.3"/>
</g>
<!-- Node27&#45;&gt;Node29 -->
<g id="edge38" class="edge">
<title>Node27&#45;&gt;Node29</title>
<path fill="none" stroke="midnightblue" d="M2149.72,-112.62C2199.66,-103.16 2281,-87.75 2335.12,-77.49"/>
<polygon fill="midnightblue" stroke="midnightblue" points="2336.06,-80.88 2345.24,-75.58 2334.76,-74 2336.06,-80.88"/>
</g>
<!-- Node53&#45;&gt;Node5 -->
<g id="edge41" class="edge">
<title>Node53&#45;&gt;Node5</title>
<path fill="none" stroke="midnightblue" d="M1105.17,-56.44C1085.18,-47.6 1053.76,-33.69 1030.94,-23.59"/>
<polygon fill="midnightblue" stroke="midnightblue" points="1032.3,-20.36 1021.74,-19.52 1029.47,-26.76 1032.3,-20.36"/>
</g>
<!-- Node53&#45;&gt;Node31 -->
<g id="edge42" class="edge">
<title>Node53&#45;&gt;Node31</title>
<path fill="none" stroke="midnightblue" d="M1178.41,-57.83C1251.12,-48.16 1380.7,-30.92 1460.76,-20.28"/>
<polygon fill="midnightblue" stroke="midnightblue" points="1461.3,-23.74 1470.75,-18.95 1460.37,-16.8 1461.3,-23.74"/>
</g>
<!-- Node72&#45;&gt;Node9 -->
<g id="edge49" class="edge">
<title>Node72&#45;&gt;Node9</title>
<path fill="none" stroke="midnightblue" d="M654.72,-168.44C690.12,-158.74 747.74,-142.95 784.87,-132.77"/>
<polygon fill="midnightblue" stroke="midnightblue" points="786.05,-136.07 794.77,-130.05 784.2,-129.32 786.05,-136.07"/>
</g>
<!-- Node72&#45;&gt;Node15 -->
<g id="edge50" class="edge">
<title>Node72&#45;&gt;Node15</title>
<path fill="none" stroke="midnightblue" d="M643.31,-168.44C663.79,-159.6 695.98,-145.69 719.36,-135.59"/>
<polygon fill="midnightblue" stroke="midnightblue" points="720.99,-138.7 728.79,-131.52 718.22,-132.27 720.99,-138.7"/>
</g>
<!-- Node75&#45;&gt;Node30 -->
<g id="edge57" class="edge">
<title>Node75&#45;&gt;Node30</title>
<path fill="none" stroke="midnightblue" d="M1870.84,-168.1C1864.41,-153.69 1849.61,-125.48 1827.5,-112 1789.97,-89.12 1673.09,-76.86 1597.63,-71.15"/>
<polygon fill="midnightblue" stroke="midnightblue" points="1597.5,-67.63 1587.27,-70.39 1596.99,-74.62 1597.5,-67.63"/>
</g>
<!-- Node75&#45;&gt;Node27 -->
<g id="edge56" class="edge">
<title>Node75&#45;&gt;Node27</title>
<path fill="none" stroke="midnightblue" d="M1911.1,-168.44C1951.23,-159.06 2015.7,-143.99 2059.28,-133.8"/>
<polygon fill="midnightblue" stroke="midnightblue" points="2060.13,-137.2 2069.07,-131.52 2058.53,-130.38 2060.13,-137.2"/>
</g>
<!-- Node44&#45;&gt;Node45 -->
<g id="edge59" class="edge">
<title>Node44&#45;&gt;Node45</title>
<path fill="none" stroke="midnightblue" d="M771.28,-168.44C799.83,-159.32 845.23,-144.81 877.04,-134.65"/>
<polygon fill="midnightblue" stroke="midnightblue" points="878.39,-137.89 886.85,-131.52 876.26,-131.23 878.39,-137.89"/>
</g>
<!-- Node46&#45;&gt;Node31 -->
<g id="edge62" class="edge">
<title>Node46&#45;&gt;Node31</title>
<path fill="none" stroke="midnightblue" d="M2828.38,-59.94C2811.46,-58.5 2792.71,-57.03 2775.5,-56 2328.19,-29.12 1789.43,-16.27 1600.24,-12.35"/>
<polygon fill="midnightblue" stroke="midnightblue" points="1600.23,-8.85 1590.16,-12.14 1600.08,-15.85 1600.23,-8.85"/>
</g>
</g>
</svg>
