<?xml version="1.0" encoding="UTF-8" standalone="no"?>
<!DOCTYPE svg PUBLIC "-//W3C//DTD SVG 1.1//EN"
 "http://www.w3.org/Graphics/SVG/1.1/DTD/svg11.dtd">
<!-- Generated by graphviz version 2.43.0 (0)
 -->
<!-- Title: decorate.h Pages: 1 -->
<svg width="974pt" height="140pt"
 viewBox="0.00 0.00 973.50 140.00" xmlns="http://www.w3.org/2000/svg" xmlns:xlink="http://www.w3.org/1999/xlink">
<g id="graph0" class="graph" transform="scale(1 1) rotate(0) translate(4 136)">
<title>decorate.h</title>
<polygon fill="white" stroke="transparent" points="-4,4 -4,-136 969.5,-136 969.5,4 -4,4"/>
<!-- Node1 -->
<g id="node1" class="node">
<title>Node1</title>
<g id="a_node1"><a xlink:title=" ">
<polygon fill="#bfbfbf" stroke="black" points="475,-112.5 475,-131.5 543,-131.5 543,-112.5 475,-112.5"/>
<text text-anchor="middle" x="509" y="-119.5" font-family="FreeSans" font-size="10.00">decorate.h</text>
</a>
</g>
</g>
<!-- Node2 -->
<g id="node2" class="node">
<title>Node2</title>
<g id="a_node2"><a xlink:href="MagickCore_8h.html" target="_top" xlink:title=" ">
<polygon fill="white" stroke="black" points="89.5,-56.5 89.5,-75.5 172.5,-75.5 172.5,-56.5 89.5,-56.5"/>
<text text-anchor="middle" x="131" y="-63.5" font-family="FreeSans" font-size="10.00">MagickCore.h</text>
</a>
</g>
</g>
<!-- Node1&#45;&gt;Node2 -->
<g id="edge1" class="edge">
<title>Node1&#45;&gt;Node2</title>
<path fill="none" stroke="midnightblue" d="M464.58,-115.43C401.61,-107.41 282.82,-91.83 182,-76 178.98,-75.53 175.86,-75.02 172.73,-74.5"/>
<polygon fill="midnightblue" stroke="midnightblue" points="464.21,-118.91 474.57,-116.7 465.09,-111.97 464.21,-118.91"/>
</g>
<!-- Node6 -->
<g id="node6" class="node">
<title>Node6</title>
<g id="a_node6"><a xlink:href="decorate_8c.html" target="_top" xlink:title=" ">
<polygon fill="white" stroke="black" points="191,-56.5 191,-75.5 259,-75.5 259,-56.5 191,-56.5"/>
<text text-anchor="middle" x="225" y="-63.5" font-family="FreeSans" font-size="10.00">decorate.c</text>
</a>
</g>
</g>
<!-- Node1&#45;&gt;Node6 -->
<g id="edge5" class="edge">
<title>Node1&#45;&gt;Node6</title>
<path fill="none" stroke="midnightblue" d="M464.7,-112.92C416.5,-104.07 337.21,-89.37 269,-76 265.79,-75.37 262.44,-74.7 259.1,-74.03"/>
<polygon fill="midnightblue" stroke="midnightblue" points="464.32,-116.41 474.79,-114.77 465.58,-109.52 464.32,-116.41"/>
</g>
<!-- Node7 -->
<g id="node7" class="node">
<title>Node7</title>
<g id="a_node7"><a xlink:href="display_8c.html" target="_top" xlink:title=" ">
<polygon fill="white" stroke="black" points="277.5,-56.5 277.5,-75.5 336.5,-75.5 336.5,-56.5 277.5,-56.5"/>
<text text-anchor="middle" x="307" y="-63.5" font-family="FreeSans" font-size="10.00">display.c</text>
</a>
</g>
</g>
<!-- Node1&#45;&gt;Node7 -->
<g id="edge6" class="edge">
<title>Node1&#45;&gt;Node7</title>
<path fill="none" stroke="midnightblue" d="M467,-109.77C428.01,-99.35 370.96,-84.1 336.56,-74.9"/>
<polygon fill="midnightblue" stroke="midnightblue" points="466.43,-113.24 476.99,-112.44 468.24,-106.48 466.43,-113.24"/>
</g>
<!-- Node8 -->
<g id="node8" class="node">
<title>Node8</title>
<g id="a_node8"><a xlink:href="effect_8c.html" target="_top" xlink:title=" ">
<polygon fill="white" stroke="black" points="354.5,-56.5 354.5,-75.5 407.5,-75.5 407.5,-56.5 354.5,-56.5"/>
<text text-anchor="middle" x="381" y="-63.5" font-family="FreeSans" font-size="10.00">effect.c</text>
</a>
</g>
</g>
<!-- Node1&#45;&gt;Node8 -->
<g id="edge7" class="edge">
<title>Node1&#45;&gt;Node8</title>
<path fill="none" stroke="midnightblue" d="M479.38,-108.5C455.38,-98.38 422.22,-84.39 401.19,-75.52"/>
<polygon fill="midnightblue" stroke="midnightblue" points="478.14,-111.78 488.72,-112.44 480.86,-105.33 478.14,-111.78"/>
</g>
<!-- Node9 -->
<g id="node9" class="node">
<title>Node9</title>
<g id="a_node9"><a xlink:href="fx_8c.html" target="_top" xlink:title=" ">
<polygon fill="white" stroke="black" points="425.5,-56.5 425.5,-75.5 460.5,-75.5 460.5,-56.5 425.5,-56.5"/>
<text text-anchor="middle" x="443" y="-63.5" font-family="FreeSans" font-size="10.00">fx.c</text>
</a>
</g>
</g>
<!-- Node1&#45;&gt;Node9 -->
<g id="edge8" class="edge">
<title>Node1&#45;&gt;Node9</title>
<path fill="none" stroke="midnightblue" d="M490.45,-105.82C478.62,-96.15 463.71,-83.95 453.8,-75.83"/>
<polygon fill="midnightblue" stroke="midnightblue" points="488.44,-108.7 498.4,-112.32 492.87,-103.28 488.44,-108.7"/>
</g>
<!-- Node10 -->
<g id="node10" class="node">
<title>Node10</title>
<g id="a_node10"><a xlink:href="identify_8c.html" target="_top" xlink:title=" ">
<polygon fill="white" stroke="black" points="479,-56.5 479,-75.5 539,-75.5 539,-56.5 479,-56.5"/>
<text text-anchor="middle" x="509" y="-63.5" font-family="FreeSans" font-size="10.00">identify.c</text>
</a>
</g>
</g>
<!-- Node1&#45;&gt;Node10 -->
<g id="edge9" class="edge">
<title>Node1&#45;&gt;Node10</title>
<path fill="none" stroke="midnightblue" d="M509,-101.8C509,-92.91 509,-82.78 509,-75.75"/>
<polygon fill="midnightblue" stroke="midnightblue" points="505.5,-102.08 509,-112.08 512.5,-102.08 505.5,-102.08"/>
</g>
<!-- Node11 -->
<g id="node11" class="node">
<title>Node11</title>
<g id="a_node11"><a xlink:href="montage_8c.html" target="_top" xlink:title=" ">
<polygon fill="white" stroke="black" points="557,-56.5 557,-75.5 625,-75.5 625,-56.5 557,-56.5"/>
<text text-anchor="middle" x="591" y="-63.5" font-family="FreeSans" font-size="10.00">montage.c</text>
</a>
</g>
</g>
<!-- Node1&#45;&gt;Node11 -->
<g id="edge10" class="edge">
<title>Node1&#45;&gt;Node11</title>
<path fill="none" stroke="midnightblue" d="M530.83,-106.62C545.81,-96.76 565.2,-83.99 577.86,-75.65"/>
<polygon fill="midnightblue" stroke="midnightblue" points="528.6,-103.9 522.17,-112.32 532.45,-109.75 528.6,-103.9"/>
</g>
<!-- Node12 -->
<g id="node12" class="node">
<title>Node12</title>
<g id="a_node12"><a xlink:href="shear_8c.html" target="_top" xlink:title=" ">
<polygon fill="white" stroke="black" points="643.5,-56.5 643.5,-75.5 694.5,-75.5 694.5,-56.5 643.5,-56.5"/>
<text text-anchor="middle" x="669" y="-63.5" font-family="FreeSans" font-size="10.00">shear.c</text>
</a>
</g>
</g>
<!-- Node1&#45;&gt;Node12 -->
<g id="edge11" class="edge">
<title>Node1&#45;&gt;Node12</title>
<path fill="none" stroke="midnightblue" d="M544.05,-109.17C574.17,-99 616.9,-84.59 643.77,-75.52"/>
<polygon fill="midnightblue" stroke="midnightblue" points="542.71,-105.93 534.35,-112.44 544.95,-112.56 542.71,-105.93"/>
</g>
<!-- Node13 -->
<g id="node13" class="node">
<title>Node13</title>
<g id="a_node13"><a xlink:href="threshold_8c.html" target="_top" xlink:title=" ">
<polygon fill="white" stroke="black" points="712.5,-56.5 712.5,-75.5 783.5,-75.5 783.5,-56.5 712.5,-56.5"/>
<text text-anchor="middle" x="748" y="-63.5" font-family="FreeSans" font-size="10.00">threshold.c</text>
</a>
</g>
</g>
<!-- Node1&#45;&gt;Node13 -->
<g id="edge12" class="edge">
<title>Node1&#45;&gt;Node13</title>
<path fill="none" stroke="midnightblue" d="M553.19,-111.02C599.03,-100.66 669.82,-84.66 712.26,-75.08"/>
<polygon fill="midnightblue" stroke="midnightblue" points="552.23,-107.65 543.24,-113.26 553.77,-114.47 552.23,-107.65"/>
</g>
<!-- Node14 -->
<g id="node14" class="node">
<title>Node14</title>
<g id="a_node14"><a xlink:href="vision_8c.html" target="_top" xlink:title=" ">
<polygon fill="white" stroke="black" points="802,-56.5 802,-75.5 856,-75.5 856,-56.5 802,-56.5"/>
<text text-anchor="middle" x="829" y="-63.5" font-family="FreeSans" font-size="10.00">vision.c</text>
</a>
</g>
</g>
<!-- Node1&#45;&gt;Node14 -->
<g id="edge13" class="edge">
<title>Node1&#45;&gt;Node14</title>
<path fill="none" stroke="midnightblue" d="M553.22,-115.22C609.26,-107.61 708.73,-93.18 793,-76 795.9,-75.41 798.93,-74.74 801.93,-74.04"/>
<polygon fill="midnightblue" stroke="midnightblue" points="552.72,-111.76 543.27,-116.56 553.65,-118.69 552.72,-111.76"/>
</g>
<!-- Node15 -->
<g id="node15" class="node">
<title>Node15</title>
<g id="a_node15"><a xlink:href="visual-effects_8c.html" target="_top" xlink:title=" ">
<polygon fill="white" stroke="black" points="874.5,-56.5 874.5,-75.5 965.5,-75.5 965.5,-56.5 874.5,-56.5"/>
<text text-anchor="middle" x="920" y="-63.5" font-family="FreeSans" font-size="10.00">visual&#45;effects.c</text>
</a>
</g>
</g>
<!-- Node1&#45;&gt;Node15 -->
<g id="edge14" class="edge">
<title>Node1&#45;&gt;Node15</title>
<path fill="none" stroke="midnightblue" d="M553.69,-115.88C621.21,-108.03 753.22,-92.2 865,-76 868.06,-75.56 871.22,-75.08 874.4,-74.59"/>
<polygon fill="midnightblue" stroke="midnightblue" points="552.95,-112.44 543.42,-117.07 553.76,-119.4 552.95,-112.44"/>
</g>
<!-- Node3 -->
<g id="node3" class="node">
<title>Node3</title>
<g id="a_node3"><a xlink:href="ImageMagick_8h.html" target="_top" xlink:title=" ">
<polygon fill="white" stroke="black" points="0,-0.5 0,-19.5 92,-19.5 92,-0.5 0,-0.5"/>
<text text-anchor="middle" x="46" y="-7.5" font-family="FreeSans" font-size="10.00">ImageMagick.h</text>
</a>
</g>
</g>
<!-- Node2&#45;&gt;Node3 -->
<g id="edge2" class="edge">
<title>Node2&#45;&gt;Node3</title>
<path fill="none" stroke="midnightblue" d="M108.81,-50.9C93.22,-41 72.87,-28.07 59.62,-19.65"/>
<polygon fill="midnightblue" stroke="midnightblue" points="107.03,-53.92 117.34,-56.32 110.78,-48.01 107.03,-53.92"/>
</g>
<!-- Node4 -->
<g id="node4" class="node">
<title>Node4</title>
<g id="a_node4"><a xlink:href="api_8h.html" target="_top" xlink:title=" ">
<polygon fill="white" stroke="black" points="110.5,-0.5 110.5,-19.5 151.5,-19.5 151.5,-0.5 110.5,-0.5"/>
<text text-anchor="middle" x="131" y="-7.5" font-family="FreeSans" font-size="10.00">api.h</text>
</a>
</g>
</g>
<!-- Node2&#45;&gt;Node4 -->
<g id="edge3" class="edge">
<title>Node2&#45;&gt;Node4</title>
<path fill="none" stroke="midnightblue" d="M131,-45.8C131,-36.91 131,-26.78 131,-19.75"/>
<polygon fill="midnightblue" stroke="midnightblue" points="127.5,-46.08 131,-56.08 134.5,-46.08 127.5,-46.08"/>
</g>
<!-- Node5 -->
<g id="node5" class="node">
<title>Node5</title>
<g id="a_node5"><a xlink:href="image-view_8c.html" target="_top" xlink:title=" ">
<polygon fill="white" stroke="black" points="169.5,-0.5 169.5,-19.5 250.5,-19.5 250.5,-0.5 169.5,-0.5"/>
<text text-anchor="middle" x="210" y="-7.5" font-family="FreeSans" font-size="10.00">image&#45;view.c</text>
</a>
</g>
</g>
<!-- Node2&#45;&gt;Node5 -->
<g id="edge4" class="edge">
<title>Node2&#45;&gt;Node5</title>
<path fill="none" stroke="midnightblue" d="M152.03,-50.62C166.47,-40.76 185.14,-27.99 197.34,-19.65"/>
<polygon fill="midnightblue" stroke="midnightblue" points="149.97,-47.79 143.69,-56.32 153.92,-53.57 149.97,-47.79"/>
</g>
</g>
</svg>
