<?xml version="1.0" encoding="UTF-8" standalone="no"?>
<!DOCTYPE svg PUBLIC "-//W3C//DTD SVG 1.1//EN"
 "http://www.w3.org/Graphics/SVG/1.1/DTD/svg11.dtd">
<!-- Generated by graphviz version 2.43.0 (0)
 -->
<!-- Title: delegate.c Pages: 1 -->
<svg width="2729pt" height="252pt"
 viewBox="0.00 0.00 2729.21 252.00" xmlns="http://www.w3.org/2000/svg" xmlns:xlink="http://www.w3.org/1999/xlink">
<g id="graph0" class="graph" transform="scale(1 1) rotate(0) translate(4 248)">
<title>delegate.c</title>
<polygon fill="white" stroke="transparent" points="-4,4 -4,-248 2725.21,-248 2725.21,4 -4,4"/>
<!-- Node1 -->
<g id="node1" class="node">
<title>Node1</title>
<g id="a_node1"><a xlink:title=" ">
<polygon fill="#bfbfbf" stroke="black" points="1010.71,-224.5 1010.71,-243.5 1078.71,-243.5 1078.71,-224.5 1010.71,-224.5"/>
<text text-anchor="middle" x="1044.71" y="-231.5" font-family="FreeSans" font-size="10.00">delegate.c</text>
</a>
</g>
</g>
<!-- Node2 -->
<g id="node2" class="node">
<title>Node2</title>
<g id="a_node2"><a xlink:href="studio_8h.html" target="_top" xlink:title=" ">
<polygon fill="white" stroke="black" points="1177.21,-112.5 1177.21,-131.5 1272.21,-131.5 1272.21,-112.5 1177.21,-112.5"/>
<text text-anchor="middle" x="1224.71" y="-119.5" font-family="FreeSans" font-size="10.00">magick/studio.h</text>
</a>
</g>
</g>
<!-- Node1&#45;&gt;Node2 -->
<g id="edge1" class="edge">
<title>Node1&#45;&gt;Node2</title>
<path fill="none" stroke="midnightblue" d="M1010.41,-227.03C967.35,-218.09 902.15,-198.9 928.71,-168 958.82,-132.96 1089.85,-124.89 1167.11,-123.22"/>
<polygon fill="midnightblue" stroke="midnightblue" points="1167.25,-126.72 1177.18,-123.04 1167.12,-119.72 1167.25,-126.72"/>
</g>
<!-- Node24 -->
<g id="node23" class="node">
<title>Node24</title>
<g id="a_node23"><a xlink:href="artifact_8h.html" target="_top" xlink:title=" ">
<polygon fill="white" stroke="black" points="937.71,-168.5 937.71,-187.5 1037.71,-187.5 1037.71,-168.5 937.71,-168.5"/>
<text text-anchor="middle" x="987.71" y="-175.5" font-family="FreeSans" font-size="10.00">magick/artifact.h</text>
</a>
</g>
</g>
<!-- Node1&#45;&gt;Node24 -->
<g id="edge23" class="edge">
<title>Node1&#45;&gt;Node24</title>
<path fill="none" stroke="midnightblue" d="M1035.55,-224.32C1027.21,-216.42 1014.68,-204.55 1004.53,-194.94"/>
<polygon fill="midnightblue" stroke="midnightblue" points="1006.7,-192.17 997.03,-187.83 1001.88,-197.25 1006.7,-192.17"/>
</g>
<!-- Node25 -->
<g id="node24" class="node">
<title>Node25</title>
<g id="a_node24"><a xlink:href="attribute_8h.html" target="_top" xlink:title=" ">
<polygon fill="white" stroke="black" points="179.21,-168.5 179.21,-187.5 286.21,-187.5 286.21,-168.5 179.21,-168.5"/>
<text text-anchor="middle" x="232.71" y="-175.5" font-family="FreeSans" font-size="10.00">magick/attribute.h</text>
</a>
</g>
</g>
<!-- Node1&#45;&gt;Node25 -->
<g id="edge24" class="edge">
<title>Node1&#45;&gt;Node25</title>
<path fill="none" stroke="midnightblue" d="M1010.55,-231.44C906.39,-226.55 583.58,-210.53 316.71,-188 310.13,-187.44 303.27,-186.81 296.42,-186.13"/>
<polygon fill="midnightblue" stroke="midnightblue" points="296.75,-182.65 286.45,-185.12 296.04,-189.61 296.75,-182.65"/>
</g>
<!-- Node33 -->
<g id="node26" class="node">
<title>Node33</title>
<g id="a_node26"><a xlink:href="blob_8h.html" target="_top" xlink:title=" ">
<polygon fill="white" stroke="red" points="31.71,-56.5 31.71,-75.5 117.71,-75.5 117.71,-56.5 31.71,-56.5"/>
<text text-anchor="middle" x="74.71" y="-63.5" font-family="FreeSans" font-size="10.00">magick/blob.h</text>
</a>
</g>
</g>
<!-- Node1&#45;&gt;Node33 -->
<g id="edge32" class="edge">
<title>Node1&#45;&gt;Node33</title>
<path fill="none" stroke="midnightblue" d="M1010.25,-232.78C867.72,-231.62 323.85,-224.82 156.71,-188 91.66,-173.67 54.98,-187.2 17.71,-132 4.83,-112.93 27.82,-93.39 48.34,-80.78"/>
<polygon fill="midnightblue" stroke="midnightblue" points="50.26,-83.71 57.16,-75.66 46.75,-77.65 50.26,-83.71"/>
</g>
<!-- Node32 -->
<g id="node27" class="node">
<title>Node32</title>
<g id="a_node27"><a xlink:href="semaphore_8h.html" target="_top" xlink:title=" ">
<polygon fill="white" stroke="black" points="142.21,-0.5 142.21,-19.5 261.21,-19.5 261.21,-0.5 142.21,-0.5"/>
<text text-anchor="middle" x="201.71" y="-7.5" font-family="FreeSans" font-size="10.00">magick/semaphore.h</text>
</a>
</g>
</g>
<!-- Node1&#45;&gt;Node32 -->
<g id="edge60" class="edge">
<title>Node1&#45;&gt;Node32</title>
<path fill="none" stroke="midnightblue" d="M1010.62,-233.14C846.27,-233.62 139.99,-232.99 53.71,-188 0.27,-160.14 -19.15,-99.36 22.71,-56 37.99,-40.17 88.37,-28.38 131.8,-20.84"/>
<polygon fill="midnightblue" stroke="midnightblue" points="132.53,-24.27 141.81,-19.16 131.36,-17.37 132.53,-24.27"/>
</g>
<!-- Node31 -->
<g id="node28" class="node">
<title>Node31</title>
<g id="a_node28"><a xlink:href="exception_8h.html" target="_top" xlink:title=" ">
<polygon fill="white" stroke="black" points="328.21,-56.5 328.21,-75.5 441.21,-75.5 441.21,-56.5 328.21,-56.5"/>
<text text-anchor="middle" x="384.71" y="-63.5" font-family="FreeSans" font-size="10.00">magick/exception.h</text>
</a>
</g>
</g>
<!-- Node1&#45;&gt;Node31 -->
<g id="edge40" class="edge">
<title>Node1&#45;&gt;Node31</title>
<path fill="none" stroke="midnightblue" d="M1010.38,-233.17C901.55,-233.26 565.58,-230.06 466.71,-188 432.23,-173.34 423.74,-163.66 403.71,-132 394.77,-117.87 389.9,-99.39 387.33,-85.74"/>
<polygon fill="midnightblue" stroke="midnightblue" points="390.75,-84.93 385.68,-75.62 383.84,-86.05 390.75,-84.93"/>
</g>
<!-- Node52 -->
<g id="node29" class="node">
<title>Node52</title>
<g id="a_node29"><a xlink:href="client_8h.html" target="_top" xlink:title=" ">
<polygon fill="white" stroke="black" points="1055.71,-168.5 1055.71,-187.5 1147.71,-187.5 1147.71,-168.5 1055.71,-168.5"/>
<text text-anchor="middle" x="1101.71" y="-175.5" font-family="FreeSans" font-size="10.00">magick/client.h</text>
</a>
</g>
</g>
<!-- Node1&#45;&gt;Node52 -->
<g id="edge33" class="edge">
<title>Node1&#45;&gt;Node52</title>
<path fill="none" stroke="midnightblue" d="M1053.87,-224.32C1062.21,-216.42 1074.74,-204.55 1084.88,-194.94"/>
<polygon fill="midnightblue" stroke="midnightblue" points="1087.53,-197.25 1092.38,-187.83 1082.72,-192.17 1087.53,-197.25"/>
</g>
<!-- Node53 -->
<g id="node30" class="node">
<title>Node53</title>
<g id="a_node30"><a xlink:href="configure_8h.html" target="_top" xlink:title=" ">
<polygon fill="white" stroke="black" points="1203.71,-168.5 1203.71,-187.5 1313.71,-187.5 1313.71,-168.5 1203.71,-168.5"/>
<text text-anchor="middle" x="1258.71" y="-175.5" font-family="FreeSans" font-size="10.00">magick/configure.h</text>
</a>
</g>
</g>
<!-- Node1&#45;&gt;Node53 -->
<g id="edge34" class="edge">
<title>Node1&#45;&gt;Node53</title>
<path fill="none" stroke="midnightblue" d="M1078.62,-224.44C1115.56,-215.12 1174.76,-200.18 1215.13,-190"/>
<polygon fill="midnightblue" stroke="midnightblue" points="1216.12,-193.36 1224.96,-187.52 1214.4,-186.57 1216.12,-193.36"/>
</g>
<!-- Node43 -->
<g id="node31" class="node">
<title>Node43</title>
<g id="a_node31"><a xlink:href="hashmap_8h.html" target="_top" xlink:title=" ">
<polygon fill="white" stroke="black" points="1290.71,-112.5 1290.71,-131.5 1400.71,-131.5 1400.71,-112.5 1290.71,-112.5"/>
<text text-anchor="middle" x="1345.71" y="-119.5" font-family="FreeSans" font-size="10.00">magick/hashmap.h</text>
</a>
</g>
</g>
<!-- Node1&#45;&gt;Node43 -->
<g id="edge46" class="edge">
<title>Node1&#45;&gt;Node43</title>
<path fill="none" stroke="midnightblue" d="M1068.17,-224.38C1091.04,-215.78 1126.66,-201.9 1156.71,-188 1174.03,-179.99 1177.03,-175.2 1194.71,-168 1229.19,-153.95 1269.69,-142.12 1300.06,-134.12"/>
<polygon fill="midnightblue" stroke="midnightblue" points="1301.15,-137.45 1309.95,-131.55 1299.39,-130.67 1301.15,-137.45"/>
</g>
<!-- Node30 -->
<g id="node32" class="node">
<title>Node30</title>
<g id="a_node32"><a xlink:href="constitute_8h.html" target="_top" xlink:title=" ">
<polygon fill="white" stroke="black" points="1332.21,-168.5 1332.21,-187.5 1445.21,-187.5 1445.21,-168.5 1332.21,-168.5"/>
<text text-anchor="middle" x="1388.71" y="-175.5" font-family="FreeSans" font-size="10.00">magick/constitute.h</text>
</a>
</g>
</g>
<!-- Node1&#45;&gt;Node30 -->
<g id="edge36" class="edge">
<title>Node1&#45;&gt;Node30</title>
<path fill="none" stroke="midnightblue" d="M1078.95,-227.62C1136.08,-218.66 1251.74,-200.5 1324.43,-189.09"/>
<polygon fill="midnightblue" stroke="midnightblue" points="1325.05,-192.54 1334.39,-187.53 1323.97,-185.62 1325.05,-192.54"/>
</g>
<!-- Node54 -->
<g id="node33" class="node">
<title>Node54</title>
<g id="a_node33"><a xlink:href="delegate_8h.html" target="_top" xlink:title=" ">
<polygon fill="white" stroke="black" points="196.21,-56.5 196.21,-75.5 303.21,-75.5 303.21,-56.5 196.21,-56.5"/>
<text text-anchor="middle" x="249.71" y="-63.5" font-family="FreeSans" font-size="10.00">magick/delegate.h</text>
</a>
</g>
</g>
<!-- Node1&#45;&gt;Node54 -->
<g id="edge37" class="edge">
<title>Node1&#45;&gt;Node54</title>
<path fill="none" stroke="midnightblue" d="M1010.62,-232.54C852.76,-230.27 199.17,-219.02 169.71,-188 137.39,-153.98 194.51,-105.37 227.99,-81.44"/>
<polygon fill="midnightblue" stroke="midnightblue" points="230.11,-84.23 236.31,-75.65 226.11,-78.49 230.11,-84.23"/>
</g>
<!-- Node55 -->
<g id="node34" class="node">
<title>Node55</title>
<g id="a_node34"><a xlink:href="exception-private_8h.html" target="_top" xlink:title=" ">
<polygon fill="white" stroke="red" points="504.21,-168.5 504.21,-187.5 655.21,-187.5 655.21,-168.5 504.21,-168.5"/>
<text text-anchor="middle" x="579.71" y="-175.5" font-family="FreeSans" font-size="10.00">magick/exception&#45;private.h</text>
</a>
</g>
</g>
<!-- Node1&#45;&gt;Node55 -->
<g id="edge41" class="edge">
<title>Node1&#45;&gt;Node55</title>
<path fill="none" stroke="midnightblue" d="M1010.52,-229.03C937.95,-220.6 766.74,-200.72 663.33,-188.71"/>
<polygon fill="midnightblue" stroke="midnightblue" points="663.57,-185.22 653.23,-187.54 662.76,-192.17 663.57,-185.22"/>
</g>
<!-- Node46 -->
<g id="node35" class="node">
<title>Node46</title>
<g id="a_node35"><a xlink:href="string___8h.html" target="_top" xlink:title=" ">
<polygon fill="white" stroke="black" points="648.71,-112.5 648.71,-131.5 746.71,-131.5 746.71,-112.5 648.71,-112.5"/>
<text text-anchor="middle" x="697.71" y="-119.5" font-family="FreeSans" font-size="10.00">magick/string_.h</text>
</a>
</g>
</g>
<!-- Node1&#45;&gt;Node46 -->
<g id="edge62" class="edge">
<title>Node1&#45;&gt;Node46</title>
<path fill="none" stroke="midnightblue" d="M1010.45,-233.71C932.26,-234.53 744.2,-231.8 702.71,-188 691.29,-175.95 691.31,-156.38 693.42,-141.86"/>
<polygon fill="midnightblue" stroke="midnightblue" points="696.87,-142.42 695.27,-131.95 689.99,-141.13 696.87,-142.42"/>
</g>
<!-- Node58 -->
<g id="node36" class="node">
<title>Node58</title>
<g id="a_node36"><a xlink:href="image-private_8h.html" target="_top" xlink:title=" ">
<polygon fill="white" stroke="black" points="1463.71,-168.5 1463.71,-187.5 1597.71,-187.5 1597.71,-168.5 1463.71,-168.5"/>
<text text-anchor="middle" x="1530.71" y="-175.5" font-family="FreeSans" font-size="10.00">magick/image&#45;private.h</text>
</a>
</g>
</g>
<!-- Node1&#45;&gt;Node58 -->
<g id="edge47" class="edge">
<title>Node1&#45;&gt;Node58</title>
<path fill="none" stroke="midnightblue" d="M1078.74,-229.36C1147.43,-222 1307.84,-204.71 1453.55,-188.12"/>
<polygon fill="midnightblue" stroke="midnightblue" points="1454.04,-191.59 1463.57,-186.98 1453.24,-184.64 1454.04,-191.59"/>
</g>
<!-- Node59 -->
<g id="node37" class="node">
<title>Node59</title>
<g id="a_node37"><a xlink:href="list_8h.html" target="_top" xlink:title=" ">
<polygon fill="white" stroke="black" points="1615.71,-168.5 1615.71,-187.5 1695.71,-187.5 1695.71,-168.5 1615.71,-168.5"/>
<text text-anchor="middle" x="1655.71" y="-175.5" font-family="FreeSans" font-size="10.00">magick/list.h</text>
</a>
</g>
</g>
<!-- Node1&#45;&gt;Node59 -->
<g id="edge48" class="edge">
<title>Node1&#45;&gt;Node59</title>
<path fill="none" stroke="midnightblue" d="M1078.73,-231.48C1165.06,-227.38 1399.79,-214.62 1605.56,-188.02"/>
<polygon fill="midnightblue" stroke="midnightblue" points="1606.19,-191.47 1615.65,-186.7 1605.28,-184.53 1606.19,-191.47"/>
</g>
<!-- Node60 -->
<g id="node38" class="node">
<title>Node60</title>
<g id="a_node38"><a xlink:href="memory___8h.html" target="_top" xlink:title=" ">
<polygon fill="white" stroke="black" points="765.21,-112.5 765.21,-131.5 876.21,-131.5 876.21,-112.5 765.21,-112.5"/>
<text text-anchor="middle" x="820.71" y="-119.5" font-family="FreeSans" font-size="10.00">magick/memory_.h</text>
</a>
</g>
</g>
<!-- Node1&#45;&gt;Node60 -->
<g id="edge49" class="edge">
<title>Node1&#45;&gt;Node60</title>
<path fill="none" stroke="midnightblue" d="M1014.33,-224.43C988.27,-216.54 950.07,-203.71 918.71,-188 889.71,-173.48 858.97,-151.95 839.81,-137.7"/>
<polygon fill="midnightblue" stroke="midnightblue" points="841.72,-134.77 831.63,-131.54 837.51,-140.35 841.72,-134.77"/>
</g>
<!-- Node61 -->
<g id="node39" class="node">
<title>Node61</title>
<g id="a_node39"><a xlink:href="nt-base-private_8h.html" target="_top" xlink:title=" ">
<polygon fill="white" stroke="red" points="216.71,-112.5 216.71,-131.5 356.71,-131.5 356.71,-112.5 216.71,-112.5"/>
<text text-anchor="middle" x="286.71" y="-119.5" font-family="FreeSans" font-size="10.00">magick/nt&#45;base&#45;private.h</text>
</a>
</g>
</g>
<!-- Node1&#45;&gt;Node61 -->
<g id="edge52" class="edge">
<title>Node1&#45;&gt;Node61</title>
<path fill="none" stroke="midnightblue" d="M1010.41,-233.33C890.31,-234.08 489.54,-233.08 370.71,-188 343.11,-177.53 317.18,-154.73 301.62,-139.12"/>
<polygon fill="midnightblue" stroke="midnightblue" points="303.94,-136.49 294.48,-131.72 298.9,-141.35 303.94,-136.49"/>
</g>
<!-- Node64 -->
<g id="node40" class="node">
<title>Node64</title>
<g id="a_node40"><a xlink:href="option_8h.html" target="_top" xlink:title=" ">
<polygon fill="white" stroke="black" points="1714.21,-168.5 1714.21,-187.5 1809.21,-187.5 1809.21,-168.5 1714.21,-168.5"/>
<text text-anchor="middle" x="1761.71" y="-175.5" font-family="FreeSans" font-size="10.00">magick/option.h</text>
</a>
</g>
</g>
<!-- Node1&#45;&gt;Node64 -->
<g id="edge55" class="edge">
<title>Node1&#45;&gt;Node64</title>
<path fill="none" stroke="midnightblue" d="M1078.81,-231.74C1175.2,-227.96 1458.02,-215.29 1703.96,-187.97"/>
<polygon fill="midnightblue" stroke="midnightblue" points="1704.62,-191.42 1714.16,-186.83 1703.84,-184.47 1704.62,-191.42"/>
</g>
<!-- Node65 -->
<g id="node41" class="node">
<title>Node65</title>
<g id="a_node41"><a xlink:href="policy_8h.html" target="_top" xlink:title=" ">
<polygon fill="white" stroke="red" points="412.71,-112.5 412.71,-131.5 504.71,-131.5 504.71,-112.5 412.71,-112.5"/>
<text text-anchor="middle" x="458.71" y="-119.5" font-family="FreeSans" font-size="10.00">magick/policy.h</text>
</a>
</g>
</g>
<!-- Node1&#45;&gt;Node65 -->
<g id="edge56" class="edge">
<title>Node1&#45;&gt;Node65</title>
<path fill="none" stroke="midnightblue" d="M1010.35,-232.29C895.25,-229.65 528.13,-218.85 485.71,-188 471.06,-177.35 464.32,-157.24 461.25,-142.2"/>
<polygon fill="midnightblue" stroke="midnightblue" points="464.63,-141.21 459.54,-131.92 457.73,-142.36 464.63,-141.21"/>
</g>
<!-- Node66 -->
<g id="node42" class="node">
<title>Node66</title>
<g id="a_node42"><a xlink:href="property_8h.html" target="_top" xlink:title=" ">
<polygon fill="white" stroke="black" points="1827.71,-168.5 1827.71,-187.5 1931.71,-187.5 1931.71,-168.5 1827.71,-168.5"/>
<text text-anchor="middle" x="1879.71" y="-175.5" font-family="FreeSans" font-size="10.00">magick/property.h</text>
</a>
</g>
</g>
<!-- Node1&#45;&gt;Node66 -->
<g id="edge58" class="edge">
<title>Node1&#45;&gt;Node66</title>
<path fill="none" stroke="midnightblue" d="M1078.74,-232.1C1185.81,-229.02 1525.42,-217.55 1817.15,-188.07"/>
<polygon fill="midnightblue" stroke="midnightblue" points="1817.91,-191.51 1827.5,-187.01 1817.2,-184.55 1817.91,-191.51"/>
</g>
<!-- Node67 -->
<g id="node43" class="node">
<title>Node67</title>
<g id="a_node43"><a xlink:href="resource___8h.html" target="_top" xlink:title=" ">
<polygon fill="white" stroke="black" points="1949.71,-168.5 1949.71,-187.5 2061.71,-187.5 2061.71,-168.5 1949.71,-168.5"/>
<text text-anchor="middle" x="2005.71" y="-175.5" font-family="FreeSans" font-size="10.00">magick/resource_.h</text>
</a>
</g>
</g>
<!-- Node1&#45;&gt;Node67 -->
<g id="edge59" class="edge">
<title>Node1&#45;&gt;Node67</title>
<path fill="none" stroke="midnightblue" d="M1078.96,-232.36C1197,-229.92 1597.83,-219.74 1939.29,-188.05"/>
<polygon fill="midnightblue" stroke="midnightblue" points="1939.74,-191.52 1949.37,-187.11 1939.09,-184.55 1939.74,-191.52"/>
</g>
<!-- Node68 -->
<g id="node44" class="node">
<title>Node68</title>
<g id="a_node44"><a xlink:href="signature_8h.html" target="_top" xlink:title=" ">
<polygon fill="white" stroke="black" points="2079.71,-168.5 2079.71,-187.5 2189.71,-187.5 2189.71,-168.5 2079.71,-168.5"/>
<text text-anchor="middle" x="2134.71" y="-175.5" font-family="FreeSans" font-size="10.00">magick/signature.h</text>
</a>
</g>
</g>
<!-- Node1&#45;&gt;Node68 -->
<g id="edge61" class="edge">
<title>Node1&#45;&gt;Node68</title>
<path fill="none" stroke="midnightblue" d="M1078.89,-232.69C1207.43,-231.27 1674.25,-223.87 2069.39,-188.03"/>
<polygon fill="midnightblue" stroke="midnightblue" points="2069.95,-191.49 2079.59,-187.09 2069.31,-184.52 2069.95,-191.49"/>
</g>
<!-- Node69 -->
<g id="node45" class="node">
<title>Node69</title>
<g id="a_node45"><a xlink:href="token_8h.html" target="_top" xlink:title=" ">
<polygon fill="white" stroke="black" points="2207.71,-168.5 2207.71,-187.5 2299.71,-187.5 2299.71,-168.5 2207.71,-168.5"/>
<text text-anchor="middle" x="2253.71" y="-175.5" font-family="FreeSans" font-size="10.00">magick/token.h</text>
</a>
</g>
</g>
<!-- Node1&#45;&gt;Node69 -->
<g id="edge63" class="edge">
<title>Node1&#45;&gt;Node69</title>
<path fill="none" stroke="midnightblue" d="M1078.8,-233.2C1217.08,-233.7 1749.7,-232.51 2197.32,-188"/>
<polygon fill="midnightblue" stroke="midnightblue" points="2197.95,-191.46 2207.55,-186.98 2197.25,-184.49 2197.95,-191.46"/>
</g>
<!-- Node70 -->
<g id="node46" class="node">
<title>Node70</title>
<g id="a_node46"><a xlink:href="token-private_8h.html" target="_top" xlink:title=" ">
<polygon fill="white" stroke="black" points="2317.71,-168.5 2317.71,-187.5 2447.71,-187.5 2447.71,-168.5 2317.71,-168.5"/>
<text text-anchor="middle" x="2382.71" y="-175.5" font-family="FreeSans" font-size="10.00">magick/token&#45;private.h</text>
</a>
</g>
</g>
<!-- Node1&#45;&gt;Node70 -->
<g id="edge64" class="edge">
<title>Node1&#45;&gt;Node70</title>
<path fill="none" stroke="midnightblue" d="M1078.96,-232.85C1225.39,-232 1813.51,-226.3 2307.19,-188.05"/>
<polygon fill="midnightblue" stroke="midnightblue" points="2307.67,-191.52 2317.37,-187.25 2307.13,-184.54 2307.67,-191.52"/>
</g>
<!-- Node71 -->
<g id="node47" class="node">
<title>Node71</title>
<g id="a_node47"><a xlink:href="utility_8h.html" target="_top" xlink:title=" ">
<polygon fill="white" stroke="black" points="2465.71,-168.5 2465.71,-187.5 2557.71,-187.5 2557.71,-168.5 2465.71,-168.5"/>
<text text-anchor="middle" x="2511.71" y="-175.5" font-family="FreeSans" font-size="10.00">magick/utility.h</text>
</a>
</g>
</g>
<!-- Node1&#45;&gt;Node71 -->
<g id="edge65" class="edge">
<title>Node1&#45;&gt;Node71</title>
<path fill="none" stroke="midnightblue" d="M1078.88,-232.52C1264.69,-229.8 2155.82,-215.56 2455.15,-187.99"/>
<polygon fill="midnightblue" stroke="midnightblue" points="2455.93,-191.43 2465.55,-187 2455.27,-184.46 2455.93,-191.43"/>
</g>
<!-- Node72 -->
<g id="node48" class="node">
<title>Node72</title>
<g id="a_node48"><a xlink:href="utility-private_8h.html" target="_top" xlink:title=" ">
<polygon fill="white" stroke="red" points="712.21,-168.5 712.21,-187.5 843.21,-187.5 843.21,-168.5 712.21,-168.5"/>
<text text-anchor="middle" x="777.71" y="-175.5" font-family="FreeSans" font-size="10.00">magick/utility&#45;private.h</text>
</a>
</g>
</g>
<!-- Node1&#45;&gt;Node72 -->
<g id="edge66" class="edge">
<title>Node1&#45;&gt;Node72</title>
<path fill="none" stroke="midnightblue" d="M1010.62,-226.11C964.92,-216.86 883.37,-200.37 829.91,-189.56"/>
<polygon fill="midnightblue" stroke="midnightblue" points="830.44,-186.09 819.94,-187.54 829.05,-192.95 830.44,-186.09"/>
</g>
<!-- Node74 -->
<g id="node49" class="node">
<title>Node74</title>
<g id="a_node49"><a xlink:href="xml-tree_8h.html" target="_top" xlink:title=" ">
<polygon fill="white" stroke="red" points="523.21,-112.5 523.21,-131.5 630.21,-131.5 630.21,-112.5 523.21,-112.5"/>
<text text-anchor="middle" x="576.71" y="-119.5" font-family="FreeSans" font-size="10.00">magick/xml&#45;tree.h</text>
</a>
</g>
</g>
<!-- Node1&#45;&gt;Node74 -->
<g id="edge69" class="edge">
<title>Node1&#45;&gt;Node74</title>
<path fill="none" stroke="midnightblue" d="M1010.39,-232.83C895.52,-231.9 529.69,-225.96 494.71,-188 475.38,-167.03 510.6,-147.33 540.74,-135.23"/>
<polygon fill="midnightblue" stroke="midnightblue" points="542.18,-138.43 550.26,-131.58 539.67,-131.89 542.18,-138.43"/>
</g>
<!-- Node75 -->
<g id="node50" class="node">
<title>Node75</title>
<g id="a_node50"><a xlink:href="xml-tree-private_8h.html" target="_top" xlink:title=" ">
<polygon fill="white" stroke="black" points="2576.21,-168.5 2576.21,-187.5 2721.21,-187.5 2721.21,-168.5 2576.21,-168.5"/>
<text text-anchor="middle" x="2648.71" y="-175.5" font-family="FreeSans" font-size="10.00">magick/xml&#45;tree&#45;private.h</text>
</a>
</g>
</g>
<!-- Node1&#45;&gt;Node75 -->
<g id="edge71" class="edge">
<title>Node1&#45;&gt;Node75</title>
<path fill="none" stroke="midnightblue" d="M1078.77,-233C1242.34,-232.78 1963.54,-229.42 2565.67,-188.01"/>
<polygon fill="midnightblue" stroke="midnightblue" points="2566.12,-191.48 2575.86,-187.3 2565.64,-184.5 2566.12,-191.48"/>
</g>
<!-- Node3 -->
<g id="node3" class="node">
<title>Node3</title>
<g id="a_node3"><a xlink:href="magick-config_8h.html" target="_top" xlink:title=" ">
<polygon fill="white" stroke="red" points="1430.71,-0.5 1430.71,-19.5 1564.71,-19.5 1564.71,-0.5 1430.71,-0.5"/>
<text text-anchor="middle" x="1497.71" y="-7.5" font-family="FreeSans" font-size="10.00">magick/magick&#45;config.h</text>
</a>
</g>
</g>
<!-- Node2&#45;&gt;Node3 -->
<g id="edge2" class="edge">
<title>Node2&#45;&gt;Node3</title>
<path fill="none" stroke="midnightblue" d="M1272.29,-113.45C1275.48,-112.96 1278.64,-112.47 1281.71,-112 1335.67,-103.74 1489.05,-117.33 1524.71,-76 1536.85,-61.92 1525.03,-41.62 1513.43,-27.46"/>
<polygon fill="midnightblue" stroke="midnightblue" points="1516.04,-25.14 1506.81,-19.93 1510.78,-29.76 1516.04,-25.14"/>
</g>
<!-- Node5 -->
<g id="node4" class="node">
<title>Node5</title>
<g id="a_node4"><a xlink:title=" ">
<polygon fill="white" stroke="#bfbfbf" points="398.71,-0.5 398.71,-19.5 454.71,-19.5 454.71,-0.5 398.71,-0.5"/>
<text text-anchor="middle" x="426.71" y="-7.5" font-family="FreeSans" font-size="10.00">stdarg.h</text>
</a>
</g>
</g>
<!-- Node2&#45;&gt;Node5 -->
<g id="edge3" class="edge">
<title>Node2&#45;&gt;Node5</title>
<path fill="none" stroke="midnightblue" d="M1270.52,-112.43C1313.97,-102.41 1369,-83.61 1342.71,-56 1312.01,-23.75 635.51,-13.5 465.3,-11.43"/>
<polygon fill="midnightblue" stroke="midnightblue" points="465.1,-7.93 455.06,-11.31 465.02,-14.93 465.1,-7.93"/>
</g>
<!-- Node6 -->
<g id="node5" class="node">
<title>Node6</title>
<g id="a_node5"><a xlink:title=" ">
<polygon fill="white" stroke="#bfbfbf" points="1571.71,-56.5 1571.71,-75.5 1621.71,-75.5 1621.71,-56.5 1571.71,-56.5"/>
<text text-anchor="middle" x="1596.71" y="-63.5" font-family="FreeSans" font-size="10.00">stdio.h</text>
</a>
</g>
</g>
<!-- Node2&#45;&gt;Node6 -->
<g id="edge4" class="edge">
<title>Node2&#45;&gt;Node6</title>
<path fill="none" stroke="midnightblue" d="M1272.28,-113.39C1275.47,-112.91 1278.63,-112.44 1281.71,-112 1404.15,-94.35 1435.96,-97.93 1557.71,-76 1558.98,-75.77 1560.27,-75.53 1561.57,-75.27"/>
<polygon fill="midnightblue" stroke="midnightblue" points="1562.54,-78.65 1571.61,-73.17 1561.1,-71.8 1562.54,-78.65"/>
</g>
<!-- Node7 -->
<g id="node6" class="node">
<title>Node7</title>
<g id="a_node6"><a xlink:title=" ">
<polygon fill="white" stroke="#bfbfbf" points="1640.21,-56.5 1640.21,-75.5 1693.21,-75.5 1693.21,-56.5 1640.21,-56.5"/>
<text text-anchor="middle" x="1666.71" y="-63.5" font-family="FreeSans" font-size="10.00">ctype.h</text>
</a>
</g>
</g>
<!-- Node2&#45;&gt;Node7 -->
<g id="edge5" class="edge">
<title>Node2&#45;&gt;Node7</title>
<path fill="none" stroke="midnightblue" d="M1272.27,-113.29C1275.46,-112.84 1278.63,-112.4 1281.71,-112 1433.16,-92.25 1475.4,-102.53 1630.19,-75.84"/>
<polygon fill="midnightblue" stroke="midnightblue" points="1630.81,-79.28 1640.06,-74.11 1629.61,-72.38 1630.81,-79.28"/>
</g>
<!-- Node8 -->
<g id="node7" class="node">
<title>Node8</title>
<g id="a_node7"><a xlink:title=" ">
<polygon fill="white" stroke="#bfbfbf" points="1711.21,-56.5 1711.21,-75.5 1766.21,-75.5 1766.21,-56.5 1711.21,-56.5"/>
<text text-anchor="middle" x="1738.71" y="-63.5" font-family="FreeSans" font-size="10.00">locale.h</text>
</a>
</g>
</g>
<!-- Node2&#45;&gt;Node8 -->
<g id="edge6" class="edge">
<title>Node2&#45;&gt;Node8</title>
<path fill="none" stroke="midnightblue" d="M1272.26,-113.23C1275.45,-112.79 1278.62,-112.37 1281.71,-112 1464.85,-89.74 1515.69,-106.27 1700.82,-76.09"/>
<polygon fill="midnightblue" stroke="midnightblue" points="1701.6,-79.51 1710.89,-74.42 1700.45,-72.6 1701.6,-79.51"/>
</g>
<!-- Node9 -->
<g id="node8" class="node">
<title>Node9</title>
<g id="a_node8"><a xlink:title=" ">
<polygon fill="white" stroke="#bfbfbf" points="638.21,-56.5 638.21,-75.5 689.21,-75.5 689.21,-56.5 638.21,-56.5"/>
<text text-anchor="middle" x="663.71" y="-63.5" font-family="FreeSans" font-size="10.00">errno.h</text>
</a>
</g>
</g>
<!-- Node2&#45;&gt;Node9 -->
<g id="edge7" class="edge">
<title>Node2&#45;&gt;Node9</title>
<path fill="none" stroke="midnightblue" d="M1176.86,-119.57C1085.72,-116.27 880.89,-106.08 699.22,-75.78"/>
<polygon fill="midnightblue" stroke="midnightblue" points="699.66,-72.3 689.22,-74.08 698.49,-79.2 699.66,-72.3"/>
</g>
<!-- Node10 -->
<g id="node9" class="node">
<title>Node10</title>
<g id="a_node9"><a xlink:title=" ">
<polygon fill="white" stroke="#bfbfbf" points="1784.21,-56.5 1784.21,-75.5 1831.21,-75.5 1831.21,-56.5 1784.21,-56.5"/>
<text text-anchor="middle" x="1807.71" y="-63.5" font-family="FreeSans" font-size="10.00">fcntl.h</text>
</a>
</g>
</g>
<!-- Node2&#45;&gt;Node10 -->
<g id="edge8" class="edge">
<title>Node2&#45;&gt;Node10</title>
<path fill="none" stroke="midnightblue" d="M1272.25,-113.19C1275.45,-112.76 1278.62,-112.36 1281.71,-112 1497.09,-87.19 1557.07,-113.18 1773.95,-75.98"/>
<polygon fill="midnightblue" stroke="midnightblue" points="1774.81,-79.39 1784.06,-74.22 1773.61,-72.49 1774.81,-79.39"/>
</g>
<!-- Node11 -->
<g id="node10" class="node">
<title>Node11</title>
<g id="a_node10"><a xlink:title=" ">
<polygon fill="white" stroke="#bfbfbf" points="1849.21,-56.5 1849.21,-75.5 1900.21,-75.5 1900.21,-56.5 1849.21,-56.5"/>
<text text-anchor="middle" x="1874.71" y="-63.5" font-family="FreeSans" font-size="10.00">math.h</text>
</a>
</g>
</g>
<!-- Node2&#45;&gt;Node11 -->
<g id="edge9" class="edge">
<title>Node2&#45;&gt;Node11</title>
<path fill="none" stroke="midnightblue" d="M1272.25,-113.16C1275.45,-112.73 1278.62,-112.34 1281.71,-112 1525.89,-84.92 1593.22,-115.22 1839.25,-75.93"/>
<polygon fill="midnightblue" stroke="midnightblue" points="1839.89,-79.37 1849.2,-74.32 1838.77,-72.46 1839.89,-79.37"/>
</g>
<!-- Node12 -->
<g id="node11" class="node">
<title>Node12</title>
<g id="a_node11"><a xlink:title=" ">
<polygon fill="white" stroke="#bfbfbf" points="497.71,-56.5 497.71,-75.5 545.71,-75.5 545.71,-56.5 497.71,-56.5"/>
<text text-anchor="middle" x="521.71" y="-63.5" font-family="FreeSans" font-size="10.00">time.h</text>
</a>
</g>
</g>
<!-- Node2&#45;&gt;Node12 -->
<g id="edge10" class="edge">
<title>Node2&#45;&gt;Node12</title>
<path fill="none" stroke="midnightblue" d="M1176.81,-121.04C1067.9,-120.44 793.42,-114.98 555.94,-75.85"/>
<polygon fill="midnightblue" stroke="midnightblue" points="556.18,-72.34 545.73,-74.15 555.02,-79.25 556.18,-72.34"/>
</g>
<!-- Node13 -->
<g id="node12" class="node">
<title>Node13</title>
<g id="a_node12"><a xlink:title=" ">
<polygon fill="white" stroke="#bfbfbf" points="1918.21,-56.5 1918.21,-75.5 1971.21,-75.5 1971.21,-56.5 1918.21,-56.5"/>
<text text-anchor="middle" x="1944.71" y="-63.5" font-family="FreeSans" font-size="10.00">limits.h</text>
</a>
</g>
</g>
<!-- Node2&#45;&gt;Node13 -->
<g id="edge11" class="edge">
<title>Node2&#45;&gt;Node13</title>
<path fill="none" stroke="midnightblue" d="M1272.25,-113.13C1275.44,-112.71 1278.62,-112.33 1281.71,-112 1556.42,-82.51 1631.71,-118.16 1908.15,-75.95"/>
<polygon fill="midnightblue" stroke="midnightblue" points="1908.72,-79.41 1918.07,-74.42 1907.65,-72.49 1908.72,-79.41"/>
</g>
<!-- Node14 -->
<g id="node13" class="node">
<title>Node14</title>
<g id="a_node13"><a xlink:title=" ">
<polygon fill="white" stroke="#bfbfbf" points="1989.21,-56.5 1989.21,-75.5 2044.21,-75.5 2044.21,-56.5 1989.21,-56.5"/>
<text text-anchor="middle" x="2016.71" y="-63.5" font-family="FreeSans" font-size="10.00">signal.h</text>
</a>
</g>
</g>
<!-- Node2&#45;&gt;Node14 -->
<g id="edge12" class="edge">
<title>Node2&#45;&gt;Node14</title>
<path fill="none" stroke="midnightblue" d="M1272.24,-113.11C1275.44,-112.7 1278.62,-112.32 1281.71,-112 1587.78,-80.04 1671.25,-121.04 1978.81,-76.01"/>
<polygon fill="midnightblue" stroke="midnightblue" points="1979.53,-79.44 1988.91,-74.52 1978.5,-72.52 1979.53,-79.44"/>
</g>
<!-- Node15 -->
<g id="node14" class="node">
<title>Node15</title>
<g id="a_node14"><a xlink:title=" ">
<polygon fill="white" stroke="#bfbfbf" points="563.71,-56.5 563.71,-75.5 619.71,-75.5 619.71,-56.5 563.71,-56.5"/>
<text text-anchor="middle" x="591.71" y="-63.5" font-family="FreeSans" font-size="10.00">assert.h</text>
</a>
</g>
</g>
<!-- Node2&#45;&gt;Node15 -->
<g id="edge13" class="edge">
<title>Node2&#45;&gt;Node15</title>
<path fill="none" stroke="midnightblue" d="M1176.89,-120.03C1076.92,-117.44 838.48,-108.29 629.81,-75.92"/>
<polygon fill="midnightblue" stroke="midnightblue" points="630.32,-72.45 619.89,-74.36 629.23,-79.37 630.32,-72.45"/>
</g>
<!-- Node16 -->
<g id="node15" class="node">
<title>Node16</title>
<g id="a_node15"><a xlink:href="method-attribute_8h.html" target="_top" xlink:title=" ">
<polygon fill="white" stroke="black" points="707.71,-56.5 707.71,-75.5 855.71,-75.5 855.71,-56.5 707.71,-56.5"/>
<text text-anchor="middle" x="781.71" y="-63.5" font-family="FreeSans" font-size="10.00">magick/method&#45;attribute.h</text>
</a>
</g>
</g>
<!-- Node2&#45;&gt;Node16 -->
<g id="edge14" class="edge">
<title>Node2&#45;&gt;Node16</title>
<path fill="none" stroke="midnightblue" d="M1176.88,-115.17C1101.29,-105.96 953.41,-87.93 861.54,-76.73"/>
<polygon fill="midnightblue" stroke="midnightblue" points="861.8,-73.24 851.45,-75.5 860.95,-80.19 861.8,-73.24"/>
</g>
<!-- Node17 -->
<g id="node16" class="node">
<title>Node17</title>
<g id="a_node16"><a xlink:title=" ">
<polygon fill="white" stroke="#bfbfbf" points="873.71,-56.5 873.71,-75.5 945.71,-75.5 945.71,-56.5 873.71,-56.5"/>
<text text-anchor="middle" x="909.71" y="-63.5" font-family="FreeSans" font-size="10.00">sys/types.h</text>
</a>
</g>
</g>
<!-- Node2&#45;&gt;Node17 -->
<g id="edge15" class="edge">
<title>Node2&#45;&gt;Node17</title>
<path fill="none" stroke="midnightblue" d="M1176.83,-113.5C1124.85,-105.25 1039.14,-91.33 955.91,-76.18"/>
<polygon fill="midnightblue" stroke="midnightblue" points="956.5,-72.73 946.04,-74.37 955.24,-79.61 956.5,-72.73"/>
</g>
<!-- Node18 -->
<g id="node17" class="node">
<title>Node18</title>
<g id="a_node17"><a xlink:title=" ">
<polygon fill="white" stroke="#bfbfbf" points="963.71,-56.5 963.71,-75.5 1027.71,-75.5 1027.71,-56.5 963.71,-56.5"/>
<text text-anchor="middle" x="995.71" y="-63.5" font-family="FreeSans" font-size="10.00">sys/stat.h</text>
</a>
</g>
</g>
<!-- Node2&#45;&gt;Node18 -->
<g id="edge16" class="edge">
<title>Node2&#45;&gt;Node18</title>
<path fill="none" stroke="midnightblue" d="M1188.42,-112.44C1147.44,-102.78 1080.85,-87.08 1037.67,-76.89"/>
<polygon fill="midnightblue" stroke="midnightblue" points="1038.3,-73.45 1027.76,-74.56 1036.69,-80.26 1038.3,-73.45"/>
</g>
<!-- Node19 -->
<g id="node18" class="node">
<title>Node19</title>
<g id="a_node18"><a xlink:title=" ">
<polygon fill="white" stroke="#bfbfbf" points="1045.71,-56.5 1045.71,-75.5 1099.71,-75.5 1099.71,-56.5 1045.71,-56.5"/>
<text text-anchor="middle" x="1072.71" y="-63.5" font-family="FreeSans" font-size="10.00">dirent.h</text>
</a>
</g>
</g>
<!-- Node2&#45;&gt;Node19 -->
<g id="edge17" class="edge">
<title>Node2&#45;&gt;Node19</title>
<path fill="none" stroke="midnightblue" d="M1200.62,-112.44C1175.16,-103.4 1134.81,-89.06 1106.25,-78.92"/>
<polygon fill="midnightblue" stroke="midnightblue" points="1107.27,-75.57 1096.68,-75.52 1104.93,-82.16 1107.27,-75.57"/>
</g>
<!-- Node20 -->
<g id="node19" class="node">
<title>Node20</title>
<g id="a_node19"><a xlink:title=" ">
<polygon fill="white" stroke="#bfbfbf" points="1117.71,-56.5 1117.71,-75.5 1183.71,-75.5 1183.71,-56.5 1117.71,-56.5"/>
<text text-anchor="middle" x="1150.71" y="-63.5" font-family="FreeSans" font-size="10.00">sys/wait.h</text>
</a>
</g>
</g>
<!-- Node2&#45;&gt;Node20 -->
<g id="edge18" class="edge">
<title>Node2&#45;&gt;Node20</title>
<path fill="none" stroke="midnightblue" d="M1212.82,-112.32C1201.56,-104.11 1184.42,-91.6 1171,-81.81"/>
<polygon fill="midnightblue" stroke="midnightblue" points="1172.95,-78.9 1162.81,-75.83 1168.83,-84.56 1172.95,-78.9"/>
</g>
<!-- Node21 -->
<g id="node20" class="node">
<title>Node21</title>
<g id="a_node20"><a xlink:title=" ">
<polygon fill="white" stroke="#bfbfbf" points="1201.71,-56.5 1201.71,-75.5 1247.71,-75.5 1247.71,-56.5 1201.71,-56.5"/>
<text text-anchor="middle" x="1224.71" y="-63.5" font-family="FreeSans" font-size="10.00">pwd.h</text>
</a>
</g>
</g>
<!-- Node2&#45;&gt;Node21 -->
<g id="edge19" class="edge">
<title>Node2&#45;&gt;Node21</title>
<path fill="none" stroke="midnightblue" d="M1224.71,-112.08C1224.71,-105.01 1224.71,-94.86 1224.71,-85.99"/>
<polygon fill="midnightblue" stroke="midnightblue" points="1228.21,-85.75 1224.71,-75.75 1221.21,-85.75 1228.21,-85.75"/>
</g>
<!-- Node22 -->
<g id="node21" class="node">
<title>Node22</title>
<g id="a_node21"><a xlink:href="magick-type_8h.html" target="_top" xlink:title=" ">
<polygon fill="white" stroke="black" points="1389.71,-56.5 1389.71,-75.5 1515.71,-75.5 1515.71,-56.5 1389.71,-56.5"/>
<text text-anchor="middle" x="1452.71" y="-63.5" font-family="FreeSans" font-size="10.00">magick/magick&#45;type.h</text>
</a>
</g>
</g>
<!-- Node2&#45;&gt;Node22 -->
<g id="edge20" class="edge">
<title>Node2&#45;&gt;Node22</title>
<path fill="none" stroke="midnightblue" d="M1260.83,-112.44C1300.36,-103.08 1363.8,-88.06 1406.82,-77.87"/>
<polygon fill="midnightblue" stroke="midnightblue" points="1407.83,-81.23 1416.75,-75.52 1406.21,-74.42 1407.83,-81.23"/>
</g>
<!-- Node23 -->
<g id="node22" class="node">
<title>Node23</title>
<g id="a_node22"><a xlink:title=" ">
<polygon fill="white" stroke="#bfbfbf" points="1265.71,-56.5 1265.71,-75.5 1333.71,-75.5 1333.71,-56.5 1265.71,-56.5"/>
<text text-anchor="middle" x="1299.71" y="-63.5" font-family="FreeSans" font-size="10.00">sys/time.h</text>
</a>
</g>
</g>
<!-- Node2&#45;&gt;Node23 -->
<g id="edge22" class="edge">
<title>Node2&#45;&gt;Node23</title>
<path fill="none" stroke="midnightblue" d="M1236.76,-112.32C1248.17,-104.11 1265.54,-91.6 1279.14,-81.81"/>
<polygon fill="midnightblue" stroke="midnightblue" points="1281.37,-84.52 1287.44,-75.83 1277.28,-78.84 1281.37,-84.52"/>
</g>
<!-- Node22&#45;&gt;Node3 -->
<g id="edge21" class="edge">
<title>Node22&#45;&gt;Node3</title>
<path fill="none" stroke="midnightblue" d="M1460.14,-56.08C1466.56,-48.38 1476.01,-37.03 1483.83,-27.65"/>
<polygon fill="midnightblue" stroke="midnightblue" points="1486.7,-29.67 1490.42,-19.75 1481.32,-25.19 1486.7,-29.67"/>
</g>
<!-- Node26 -->
<g id="node25" class="node">
<title>Node26</title>
<g id="a_node25"><a xlink:href="image_8h.html" target="_top" xlink:title=" ">
<polygon fill="white" stroke="red" points="27.21,-112.5 27.21,-131.5 122.21,-131.5 122.21,-112.5 27.21,-112.5"/>
<text text-anchor="middle" x="74.71" y="-119.5" font-family="FreeSans" font-size="10.00">magick/image.h</text>
</a>
</g>
</g>
<!-- Node25&#45;&gt;Node26 -->
<g id="edge25" class="edge">
<title>Node25&#45;&gt;Node26</title>
<path fill="none" stroke="midnightblue" d="M207.67,-168.44C181.09,-159.36 138.9,-144.94 109.18,-134.78"/>
<polygon fill="midnightblue" stroke="midnightblue" points="110.22,-131.44 99.63,-131.52 107.96,-138.06 110.22,-131.44"/>
</g>
<!-- Node25&#45;&gt;Node31 -->
<g id="edge29" class="edge">
<title>Node25&#45;&gt;Node31</title>
<path fill="none" stroke="midnightblue" d="M224.26,-168.2C212.53,-154.9 194.2,-129.37 207.71,-112 221.46,-94.31 273.96,-82.44 318.24,-75.35"/>
<polygon fill="midnightblue" stroke="midnightblue" points="318.78,-78.81 328.13,-73.83 317.71,-71.89 318.78,-78.81"/>
</g>
<!-- Node26&#45;&gt;Node33 -->
<g id="edge26" class="edge">
<title>Node26&#45;&gt;Node33</title>
<path fill="none" stroke="midnightblue" d="M69.54,-112.08C68.03,-104.93 67.6,-94.64 68.25,-85.69"/>
<polygon fill="midnightblue" stroke="midnightblue" points="71.72,-86.13 69.58,-75.75 64.78,-85.2 71.72,-86.13"/>
</g>
<!-- Node26&#45;&gt;Node32 -->
<g id="edge28" class="edge">
<title>Node26&#45;&gt;Node32</title>
<path fill="none" stroke="midnightblue" d="M84.68,-112.38C95.15,-103.32 112.09,-88.66 126.71,-76 146.27,-59.06 168.69,-39.62 183.89,-26.45"/>
<polygon fill="midnightblue" stroke="midnightblue" points="186.26,-29.03 191.52,-19.83 181.67,-23.74 186.26,-29.03"/>
</g>
<!-- Node33&#45;&gt;Node26 -->
<g id="edge27" class="edge">
<title>Node33&#45;&gt;Node26</title>
<path fill="none" stroke="midnightblue" d="M79.84,-75.75C81.36,-82.86 81.81,-93.14 81.18,-102.1"/>
<polygon fill="midnightblue" stroke="midnightblue" points="77.7,-101.71 79.87,-112.08 84.64,-102.62 77.7,-101.71"/>
</g>
<!-- Node31&#45;&gt;Node5 -->
<g id="edge30" class="edge">
<title>Node31&#45;&gt;Node5</title>
<path fill="none" stroke="midnightblue" d="M391.64,-56.08C397.64,-48.38 406.46,-37.03 413.76,-27.65"/>
<polygon fill="midnightblue" stroke="midnightblue" points="416.52,-29.79 419.9,-19.75 411,-25.5 416.52,-29.79"/>
</g>
<!-- Node31&#45;&gt;Node32 -->
<g id="edge31" class="edge">
<title>Node31&#45;&gt;Node32</title>
<path fill="none" stroke="midnightblue" d="M355.71,-56.44C324.52,-47.24 274.78,-32.56 240.3,-22.39"/>
<polygon fill="midnightblue" stroke="midnightblue" points="241.15,-18.99 230.57,-19.52 239.17,-25.7 241.15,-18.99"/>
</g>
<!-- Node53&#45;&gt;Node43 -->
<g id="edge35" class="edge">
<title>Node53&#45;&gt;Node43</title>
<path fill="none" stroke="midnightblue" d="M1272.69,-168.32C1286.26,-159.9 1307.09,-146.97 1323.03,-137.07"/>
<polygon fill="midnightblue" stroke="midnightblue" points="1325.11,-139.9 1331.76,-131.65 1321.42,-133.95 1325.11,-139.9"/>
</g>
<!-- Node54&#45;&gt;Node5 -->
<g id="edge38" class="edge">
<title>Node54&#45;&gt;Node5</title>
<path fill="none" stroke="midnightblue" d="M277.75,-56.44C307.79,-47.28 355.62,-32.69 388.95,-22.52"/>
<polygon fill="midnightblue" stroke="midnightblue" points="390.25,-25.78 398.79,-19.52 388.21,-19.09 390.25,-25.78"/>
</g>
<!-- Node54&#45;&gt;Node32 -->
<g id="edge39" class="edge">
<title>Node54&#45;&gt;Node32</title>
<path fill="none" stroke="midnightblue" d="M241.78,-56.08C234.86,-48.3 224.64,-36.8 216.26,-27.37"/>
<polygon fill="midnightblue" stroke="midnightblue" points="218.75,-24.9 209.49,-19.75 213.51,-29.55 218.75,-24.9"/>
</g>
<!-- Node55&#45;&gt;Node46 -->
<g id="edge42" class="edge">
<title>Node55&#45;&gt;Node46</title>
<path fill="none" stroke="midnightblue" d="M598.41,-168.44C617.65,-159.64 647.86,-145.81 669.91,-135.72"/>
<polygon fill="midnightblue" stroke="midnightblue" points="671.46,-138.86 679.1,-131.52 668.55,-132.5 671.46,-138.86"/>
</g>
<!-- Node46&#45;&gt;Node5 -->
<g id="edge43" class="edge">
<title>Node46&#45;&gt;Node5</title>
<path fill="none" stroke="midnightblue" d="M650.96,-112.44C593.76,-101.74 502.75,-83.87 488.71,-76 467.75,-64.26 449.57,-43.12 438.41,-28.14"/>
<polygon fill="midnightblue" stroke="midnightblue" points="441.07,-25.84 432.4,-19.74 435.37,-29.91 441.07,-25.84"/>
</g>
<!-- Node46&#45;&gt;Node12 -->
<g id="edge44" class="edge">
<title>Node46&#45;&gt;Node12</title>
<path fill="none" stroke="midnightblue" d="M669.82,-112.44C638.81,-102.93 588.73,-87.56 555.52,-77.37"/>
<polygon fill="midnightblue" stroke="midnightblue" points="556.38,-73.98 545.79,-74.39 554.32,-80.67 556.38,-73.98"/>
</g>
<!-- Node46&#45;&gt;Node31 -->
<g id="edge45" class="edge">
<title>Node46&#45;&gt;Node31</title>
<path fill="none" stroke="midnightblue" d="M648.46,-112.5C593.12,-102.96 503.33,-87.46 444.14,-77.25"/>
<polygon fill="midnightblue" stroke="midnightblue" points="444.64,-73.79 434.19,-75.54 443.45,-80.69 444.64,-73.79"/>
</g>
<!-- Node60&#45;&gt;Node9 -->
<g id="edge50" class="edge">
<title>Node60&#45;&gt;Node9</title>
<path fill="none" stroke="midnightblue" d="M795.83,-112.44C769.42,-103.36 727.49,-88.94 697.97,-78.78"/>
<polygon fill="midnightblue" stroke="midnightblue" points="699.06,-75.46 688.47,-75.52 696.79,-82.08 699.06,-75.46"/>
</g>
<!-- Node60&#45;&gt;Node15 -->
<g id="edge51" class="edge">
<title>Node60&#45;&gt;Node15</title>
<path fill="none" stroke="midnightblue" d="M783.88,-112.46C747.25,-103.95 689.19,-90.41 629.89,-76.27"/>
<polygon fill="midnightblue" stroke="midnightblue" points="630.52,-72.82 619.98,-73.9 628.9,-79.63 630.52,-72.82"/>
</g>
<!-- Node61&#45;&gt;Node31 -->
<g id="edge54" class="edge">
<title>Node61&#45;&gt;Node31</title>
<path fill="none" stroke="midnightblue" d="M302.45,-112.32C318.03,-103.74 342.08,-90.49 360.17,-80.52"/>
<polygon fill="midnightblue" stroke="midnightblue" points="361.93,-83.55 369,-75.65 358.55,-77.42 361.93,-83.55"/>
</g>
<!-- Node61&#45;&gt;Node54 -->
<g id="edge53" class="edge">
<title>Node61&#45;&gt;Node54</title>
<path fill="none" stroke="midnightblue" d="M280.6,-112.08C275.43,-104.53 267.86,-93.49 261.51,-84.23"/>
<polygon fill="midnightblue" stroke="midnightblue" points="264.24,-82.02 255.7,-75.75 258.47,-85.98 264.24,-82.02"/>
</g>
<!-- Node65&#45;&gt;Node31 -->
<g id="edge57" class="edge">
<title>Node65&#45;&gt;Node31</title>
<path fill="none" stroke="midnightblue" d="M446.82,-112.32C435.56,-104.11 418.42,-91.6 405,-81.81"/>
<polygon fill="midnightblue" stroke="midnightblue" points="406.95,-78.9 396.81,-75.83 402.83,-84.56 406.95,-78.9"/>
</g>
<!-- Node72&#45;&gt;Node60 -->
<g id="edge67" class="edge">
<title>Node72&#45;&gt;Node60</title>
<path fill="none" stroke="midnightblue" d="M784.81,-168.08C790.94,-160.38 799.98,-149.03 807.45,-139.65"/>
<polygon fill="midnightblue" stroke="midnightblue" points="810.25,-141.75 813.74,-131.75 804.77,-137.39 810.25,-141.75"/>
</g>
<!-- Node72&#45;&gt;Node61 -->
<g id="edge68" class="edge">
<title>Node72&#45;&gt;Node61</title>
<path fill="none" stroke="midnightblue" d="M712,-169.77C622.66,-159.95 462.99,-142.39 366.76,-131.8"/>
<polygon fill="midnightblue" stroke="midnightblue" points="367.11,-128.32 356.78,-130.71 366.34,-135.28 367.11,-128.32"/>
</g>
<!-- Node74&#45;&gt;Node31 -->
<g id="edge70" class="edge">
<title>Node74&#45;&gt;Node31</title>
<path fill="none" stroke="midnightblue" d="M546.28,-112.44C513.42,-103.2 460.92,-88.44 424.73,-78.26"/>
<polygon fill="midnightblue" stroke="midnightblue" points="425.56,-74.85 414.99,-75.52 423.67,-81.59 425.56,-74.85"/>
</g>
</g>
</svg>
