<?xml version="1.0" encoding="UTF-8" standalone="no"?>
<!DOCTYPE svg PUBLIC "-//W3C//DTD SVG 1.1//EN"
 "http://www.w3.org/Graphics/SVG/1.1/DTD/svg11.dtd">
<!-- Generated by graphviz version 2.43.0 (0)
 -->
<!-- Title: deprecate.h Pages: 1 -->
<svg width="2354pt" height="364pt"
 viewBox="0.00 0.00 2353.50 364.00" xmlns="http://www.w3.org/2000/svg" xmlns:xlink="http://www.w3.org/1999/xlink">
<g id="graph0" class="graph" transform="scale(1 1) rotate(0) translate(4 360)">
<title>deprecate.h</title>
<polygon fill="white" stroke="transparent" points="-4,4 -4,-360 2349.5,-360 2349.5,4 -4,4"/>
<!-- Node1 -->
<g id="node1" class="node">
<title>Node1</title>
<g id="a_node1"><a xlink:title=" ">
<polygon fill="#bfbfbf" stroke="black" points="1825,-336.5 1825,-355.5 1899,-355.5 1899,-336.5 1825,-336.5"/>
<text text-anchor="middle" x="1862" y="-343.5" font-family="FreeSans" font-size="10.00">deprecate.h</text>
</a>
</g>
</g>
<!-- Node2 -->
<g id="node2" class="node">
<title>Node2</title>
<g id="a_node2"><a xlink:title=" ">
<polygon fill="white" stroke="#bfbfbf" points="10,-0.5 10,-19.5 66,-19.5 66,-0.5 10,-0.5"/>
<text text-anchor="middle" x="38" y="-7.5" font-family="FreeSans" font-size="10.00">stdarg.h</text>
</a>
</g>
</g>
<!-- Node1&#45;&gt;Node2 -->
<g id="edge1" class="edge">
<title>Node1&#45;&gt;Node2</title>
<path fill="none" stroke="midnightblue" d="M1824.81,-344.81C1562.38,-343.24 0,-329.92 0,-235 0,-235 0,-235 0,-121 0,-86.81 16.6,-49.76 27.86,-28.57"/>
<polygon fill="midnightblue" stroke="midnightblue" points="30.95,-30.22 32.72,-19.77 24.82,-26.83 30.95,-30.22"/>
</g>
<!-- Node3 -->
<g id="node3" class="node">
<title>Node3</title>
<g id="a_node3"><a xlink:href="blob_8h.html" target="_top" xlink:title=" ">
<polygon fill="white" stroke="black" points="856,-280.5 856,-299.5 942,-299.5 942,-280.5 856,-280.5"/>
<text text-anchor="middle" x="899" y="-287.5" font-family="FreeSans" font-size="10.00">magick/blob.h</text>
</a>
</g>
</g>
<!-- Node1&#45;&gt;Node3 -->
<g id="edge2" class="edge">
<title>Node1&#45;&gt;Node3</title>
<path fill="none" stroke="midnightblue" d="M1824.84,-342.92C1676.56,-334.6 1126.8,-303.77 952.43,-294"/>
<polygon fill="midnightblue" stroke="midnightblue" points="952.4,-290.49 942.22,-293.42 952.01,-297.48 952.4,-290.49"/>
</g>
<!-- Node6 -->
<g id="node6" class="node">
<title>Node6</title>
<g id="a_node6"><a xlink:href="pixel_8h.html" target="_top" xlink:title=" ">
<polygon fill="white" stroke="black" points="1761,-56.5 1761,-75.5 1849,-75.5 1849,-56.5 1761,-56.5"/>
<text text-anchor="middle" x="1805" y="-63.5" font-family="FreeSans" font-size="10.00">magick/pixel.h</text>
</a>
</g>
</g>
<!-- Node1&#45;&gt;Node6 -->
<g id="edge52" class="edge">
<title>Node1&#45;&gt;Node6</title>
<path fill="none" stroke="midnightblue" d="M1867.28,-336.23C1877.73,-318.04 1900,-274.6 1900,-235 1900,-235 1900,-235 1900,-177 1900,-133.74 1857.39,-99.09 1829.25,-80.91"/>
<polygon fill="midnightblue" stroke="midnightblue" points="1831.03,-77.9 1820.69,-75.6 1827.34,-83.85 1831.03,-77.9"/>
</g>
<!-- Node8 -->
<g id="node8" class="node">
<title>Node8</title>
<g id="a_node8"><a xlink:href="constitute_8h.html" target="_top" xlink:title=" ">
<polygon fill="white" stroke="black" points="1953.5,-0.5 1953.5,-19.5 2066.5,-19.5 2066.5,-0.5 1953.5,-0.5"/>
<text text-anchor="middle" x="2010" y="-7.5" font-family="FreeSans" font-size="10.00">magick/constitute.h</text>
</a>
</g>
</g>
<!-- Node1&#45;&gt;Node8 -->
<g id="edge49" class="edge">
<title>Node1&#45;&gt;Node8</title>
<path fill="none" stroke="midnightblue" d="M1899.05,-341.48C1957.37,-333.69 2064,-309.27 2064,-235 2064,-235 2064,-235 2064,-121 2064,-84.86 2040.23,-48.25 2024.23,-27.71"/>
<polygon fill="midnightblue" stroke="midnightblue" points="2026.75,-25.26 2017.74,-19.69 2021.31,-29.67 2026.75,-25.26"/>
</g>
<!-- Node10 -->
<g id="node10" class="node">
<title>Node10</title>
<g id="a_node10"><a xlink:href="semaphore_8h.html" target="_top" xlink:title=" ">
<polygon fill="white" stroke="black" points="284.5,-0.5 284.5,-19.5 403.5,-19.5 403.5,-0.5 284.5,-0.5"/>
<text text-anchor="middle" x="344" y="-7.5" font-family="FreeSans" font-size="10.00">magick/semaphore.h</text>
</a>
</g>
</g>
<!-- Node1&#45;&gt;Node10 -->
<g id="edge57" class="edge">
<title>Node1&#45;&gt;Node10</title>
<path fill="none" stroke="midnightblue" d="M1824.96,-344.79C1579.42,-343.04 192.74,-326.98 76,-188 5.84,-104.48 199.4,-45.25 294.6,-21.95"/>
<polygon fill="midnightblue" stroke="midnightblue" points="295.69,-25.29 304.6,-19.55 294.06,-18.49 295.69,-25.29"/>
</g>
<!-- Node11 -->
<g id="node11" class="node">
<title>Node11</title>
<g id="a_node11"><a xlink:href="cache-view_8h.html" target="_top" xlink:title=" ">
<polygon fill="white" stroke="black" points="1638.5,-112.5 1638.5,-131.5 1757.5,-131.5 1757.5,-112.5 1638.5,-112.5"/>
<text text-anchor="middle" x="1698" y="-119.5" font-family="FreeSans" font-size="10.00">magick/cache&#45;view.h</text>
</a>
</g>
</g>
<!-- Node1&#45;&gt;Node11 -->
<g id="edge42" class="edge">
<title>Node1&#45;&gt;Node11</title>
<path fill="none" stroke="midnightblue" d="M1858.76,-336.41C1848.18,-309.25 1812.48,-223.71 1762,-168 1750.77,-155.61 1735.54,-144.73 1722.75,-136.77"/>
<polygon fill="midnightblue" stroke="midnightblue" points="1724.35,-133.64 1713.97,-131.51 1720.75,-139.65 1724.35,-133.64"/>
</g>
<!-- Node24 -->
<g id="node24" class="node">
<title>Node24</title>
<g id="a_node24"><a xlink:href="quantum_8h.html" target="_top" xlink:title=" ">
<polygon fill="white" stroke="black" points="203,-168.5 203,-187.5 311,-187.5 311,-168.5 203,-168.5"/>
<text text-anchor="middle" x="257" y="-175.5" font-family="FreeSans" font-size="10.00">magick/quantum.h</text>
</a>
</g>
</g>
<!-- Node1&#45;&gt;Node24 -->
<g id="edge55" class="edge">
<title>Node1&#45;&gt;Node24</title>
<path fill="none" stroke="midnightblue" d="M1824.96,-345.46C1692.04,-346.68 1226.86,-347.07 847,-300 639.25,-274.26 395.6,-214.77 299.26,-190.07"/>
<polygon fill="midnightblue" stroke="midnightblue" points="299.88,-186.61 289.32,-187.51 298.13,-193.39 299.88,-186.61"/>
</g>
<!-- Node30 -->
<g id="node30" class="node">
<title>Node30</title>
<g id="a_node30"><a xlink:href="draw_8h.html" target="_top" xlink:title=" ">
<polygon fill="white" stroke="black" points="1583,-280.5 1583,-299.5 1671,-299.5 1671,-280.5 1583,-280.5"/>
<text text-anchor="middle" x="1627" y="-287.5" font-family="FreeSans" font-size="10.00">magick/draw.h</text>
</a>
</g>
</g>
<!-- Node1&#45;&gt;Node30 -->
<g id="edge43" class="edge">
<title>Node1&#45;&gt;Node30</title>
<path fill="none" stroke="midnightblue" d="M1824.76,-336.44C1783.94,-327.06 1718.36,-311.99 1674.02,-301.8"/>
<polygon fill="midnightblue" stroke="midnightblue" points="1674.59,-298.34 1664.06,-299.52 1673.02,-305.17 1674.59,-298.34"/>
</g>
<!-- Node32 -->
<g id="node32" class="node">
<title>Node32</title>
<g id="a_node32"><a xlink:href="magick-config_8h.html" target="_top" xlink:title=" ">
<polygon fill="white" stroke="black" points="2092,-280.5 2092,-299.5 2226,-299.5 2226,-280.5 2092,-280.5"/>
<text text-anchor="middle" x="2159" y="-287.5" font-family="FreeSans" font-size="10.00">magick/magick&#45;config.h</text>
</a>
</g>
</g>
<!-- Node1&#45;&gt;Node32 -->
<g id="edge50" class="edge">
<title>Node1&#45;&gt;Node32</title>
<path fill="none" stroke="midnightblue" d="M1899.01,-338.27C1950.02,-329 2042.39,-312.2 2102.18,-301.33"/>
<polygon fill="midnightblue" stroke="midnightblue" points="2103,-304.74 2112.21,-299.51 2101.75,-297.85 2103,-304.74"/>
</g>
<!-- Node34 -->
<g id="node34" class="node">
<title>Node34</title>
<g id="a_node34"><a xlink:href="quantize_8h.html" target="_top" xlink:title=" ">
<polygon fill="white" stroke="black" points="1928.5,-224.5 1928.5,-243.5 2035.5,-243.5 2035.5,-224.5 1928.5,-224.5"/>
<text text-anchor="middle" x="1982" y="-231.5" font-family="FreeSans" font-size="10.00">magick/quantize.h</text>
</a>
</g>
</g>
<!-- Node1&#45;&gt;Node34 -->
<g id="edge53" class="edge">
<title>Node1&#45;&gt;Node34</title>
<path fill="none" stroke="midnightblue" d="M1872.49,-336.18C1883.09,-327.22 1899.87,-312.85 1914,-300 1932.18,-283.46 1952.48,-263.91 1966.13,-250.6"/>
<polygon fill="midnightblue" stroke="midnightblue" points="1968.63,-253.05 1973.33,-243.55 1963.73,-248.05 1968.63,-253.05"/>
</g>
<!-- Node35 -->
<g id="node35" class="node">
<title>Node35</title>
<g id="a_node35"><a xlink:href="registry_8h.html" target="_top" xlink:title=" ">
<polygon fill="white" stroke="black" points="2244.5,-280.5 2244.5,-299.5 2345.5,-299.5 2345.5,-280.5 2244.5,-280.5"/>
<text text-anchor="middle" x="2295" y="-287.5" font-family="FreeSans" font-size="10.00">magick/registry.h</text>
</a>
</g>
</g>
<!-- Node1&#45;&gt;Node35 -->
<g id="edge56" class="edge">
<title>Node1&#45;&gt;Node35</title>
<path fill="none" stroke="midnightblue" d="M1899.1,-340.88C1964.51,-333.55 2104.83,-317.46 2234.19,-300.07"/>
<polygon fill="midnightblue" stroke="midnightblue" points="2234.83,-303.52 2244.28,-298.71 2233.9,-296.58 2234.83,-303.52"/>
</g>
<!-- Node4 -->
<g id="node4" class="node">
<title>Node4</title>
<g id="a_node4"><a xlink:href="image_8h.html" target="_top" xlink:title=" ">
<polygon fill="white" stroke="black" points="851.5,-224.5 851.5,-243.5 946.5,-243.5 946.5,-224.5 851.5,-224.5"/>
<text text-anchor="middle" x="899" y="-231.5" font-family="FreeSans" font-size="10.00">magick/image.h</text>
</a>
</g>
</g>
<!-- Node3&#45;&gt;Node4 -->
<g id="edge3" class="edge">
<title>Node3&#45;&gt;Node4</title>
<path fill="none" stroke="midnightblue" d="M893.83,-280.08C892.32,-272.93 891.89,-262.64 892.54,-253.69"/>
<polygon fill="midnightblue" stroke="midnightblue" points="896.02,-254.13 893.87,-243.75 889.08,-253.2 896.02,-254.13"/>
</g>
<!-- Node28 -->
<g id="node28" class="node">
<title>Node28</title>
<g id="a_node28"><a xlink:href="stream_8h.html" target="_top" xlink:title=" ">
<polygon fill="white" stroke="black" points="85.5,-168.5 85.5,-187.5 184.5,-187.5 184.5,-168.5 85.5,-168.5"/>
<text text-anchor="middle" x="135" y="-175.5" font-family="FreeSans" font-size="10.00">magick/stream.h</text>
</a>
</g>
</g>
<!-- Node3&#45;&gt;Node28 -->
<g id="edge41" class="edge">
<title>Node3&#45;&gt;Node28</title>
<path fill="none" stroke="midnightblue" d="M855.66,-282.93C746.66,-267.64 452.05,-226.11 194.49,-188.06"/>
<polygon fill="midnightblue" stroke="midnightblue" points="194.97,-184.6 184.57,-186.59 193.95,-191.52 194.97,-184.6"/>
</g>
<!-- Node4&#45;&gt;Node3 -->
<g id="edge11" class="edge">
<title>Node4&#45;&gt;Node3</title>
<path fill="none" stroke="midnightblue" d="M904.13,-243.75C905.66,-250.86 906.1,-261.14 905.47,-270.1"/>
<polygon fill="midnightblue" stroke="midnightblue" points="901.99,-269.71 904.17,-280.08 908.93,-270.62 901.99,-269.71"/>
</g>
<!-- Node5 -->
<g id="node5" class="node">
<title>Node5</title>
<g id="a_node5"><a xlink:href="color_8h.html" target="_top" xlink:title=" ">
<polygon fill="white" stroke="black" points="1363,-112.5 1363,-131.5 1451,-131.5 1451,-112.5 1363,-112.5"/>
<text text-anchor="middle" x="1407" y="-119.5" font-family="FreeSans" font-size="10.00">magick/color.h</text>
</a>
</g>
</g>
<!-- Node4&#45;&gt;Node5 -->
<g id="edge4" class="edge">
<title>Node4&#45;&gt;Node5</title>
<path fill="none" stroke="midnightblue" d="M851.34,-226.28C802.25,-217.49 736.73,-199.39 766,-168 770.99,-162.65 1198.83,-135.81 1352.67,-126.33"/>
<polygon fill="midnightblue" stroke="midnightblue" points="1353.07,-129.81 1362.83,-125.7 1352.64,-122.82 1353.07,-129.81"/>
</g>
<!-- Node4&#45;&gt;Node6 -->
<g id="edge25" class="edge">
<title>Node4&#45;&gt;Node6</title>
<path fill="none" stroke="midnightblue" d="M946.61,-232.34C1109.95,-229.78 1641.32,-219.15 1711,-188 1755.99,-167.89 1785.09,-113.52 1797.74,-85.01"/>
<polygon fill="midnightblue" stroke="midnightblue" points="1800.97,-86.36 1801.65,-75.78 1794.52,-83.62 1800.97,-86.36"/>
</g>
<!-- Node7 -->
<g id="node7" class="node">
<title>Node7</title>
<g id="a_node7"><a xlink:href="colorspace_8h.html" target="_top" xlink:title=" ">
<polygon fill="white" stroke="black" points="1746.5,-0.5 1746.5,-19.5 1863.5,-19.5 1863.5,-0.5 1746.5,-0.5"/>
<text text-anchor="middle" x="1805" y="-7.5" font-family="FreeSans" font-size="10.00">magick/colorspace.h</text>
</a>
</g>
</g>
<!-- Node4&#45;&gt;Node7 -->
<g id="edge12" class="edge">
<title>Node4&#45;&gt;Node7</title>
<path fill="none" stroke="midnightblue" d="M946.86,-231.97C1068.36,-228.95 1386.26,-218.3 1487,-188 1503.03,-183.18 1710.56,-64.98 1781.45,-24.47"/>
<polygon fill="midnightblue" stroke="midnightblue" points="1783.2,-27.5 1790.14,-19.5 1779.72,-21.43 1783.2,-27.5"/>
</g>
<!-- Node4&#45;&gt;Node10 -->
<g id="edge38" class="edge">
<title>Node4&#45;&gt;Node10</title>
<path fill="none" stroke="midnightblue" d="M851.48,-228.43C820.67,-223.21 781.49,-212.01 755,-188 707.78,-145.21 749.82,-94.46 699,-56 655.47,-23.06 504.43,-14.14 413.99,-11.78"/>
<polygon fill="midnightblue" stroke="midnightblue" points="413.89,-8.28 403.81,-11.54 413.72,-15.28 413.89,-8.28"/>
</g>
<!-- Node4&#45;&gt;Node11 -->
<g id="edge13" class="edge">
<title>Node4&#45;&gt;Node11</title>
<path fill="none" stroke="midnightblue" d="M946.66,-231.98C1113.68,-228.18 1663.93,-213.74 1691,-188 1703.19,-176.41 1703.61,-156.45 1701.81,-141.7"/>
<polygon fill="midnightblue" stroke="midnightblue" points="1705.23,-140.96 1700.15,-131.66 1698.32,-142.1 1705.23,-140.96"/>
</g>
<!-- Node12 -->
<g id="node12" class="node">
<title>Node12</title>
<g id="a_node12"><a xlink:href="composite_8h.html" target="_top" xlink:title=" ">
<polygon fill="white" stroke="black" points="775,-168.5 775,-187.5 891,-187.5 891,-168.5 775,-168.5"/>
<text text-anchor="middle" x="833" y="-175.5" font-family="FreeSans" font-size="10.00">magick/composite.h</text>
</a>
</g>
</g>
<!-- Node4&#45;&gt;Node12 -->
<g id="edge15" class="edge">
<title>Node4&#45;&gt;Node12</title>
<path fill="none" stroke="midnightblue" d="M888.4,-224.32C878.54,-216.26 863.65,-204.08 851.78,-194.37"/>
<polygon fill="midnightblue" stroke="midnightblue" points="853.75,-191.46 843.8,-187.83 849.32,-196.88 853.75,-191.46"/>
</g>
<!-- Node13 -->
<g id="node13" class="node">
<title>Node13</title>
<g id="a_node13"><a xlink:href="compress_8h.html" target="_top" xlink:title=" ">
<polygon fill="white" stroke="black" points="909,-168.5 909,-187.5 1021,-187.5 1021,-168.5 909,-168.5"/>
<text text-anchor="middle" x="965" y="-175.5" font-family="FreeSans" font-size="10.00">magick/compress.h</text>
</a>
</g>
</g>
<!-- Node4&#45;&gt;Node13 -->
<g id="edge16" class="edge">
<title>Node4&#45;&gt;Node13</title>
<path fill="none" stroke="midnightblue" d="M909.6,-224.32C919.46,-216.26 934.35,-204.08 946.22,-194.37"/>
<polygon fill="midnightblue" stroke="midnightblue" points="948.68,-196.88 954.2,-187.83 944.25,-191.46 948.68,-196.88"/>
</g>
<!-- Node14 -->
<g id="node14" class="node">
<title>Node14</title>
<g id="a_node14"><a xlink:href="effect_8h.html" target="_top" xlink:title=" ">
<polygon fill="white" stroke="black" points="589,-168.5 589,-187.5 681,-187.5 681,-168.5 589,-168.5"/>
<text text-anchor="middle" x="635" y="-175.5" font-family="FreeSans" font-size="10.00">magick/effect.h</text>
</a>
</g>
</g>
<!-- Node4&#45;&gt;Node14 -->
<g id="edge17" class="edge">
<title>Node4&#45;&gt;Node14</title>
<path fill="none" stroke="midnightblue" d="M857.17,-224.44C810.92,-214.98 736.39,-199.74 686.56,-189.55"/>
<polygon fill="midnightblue" stroke="midnightblue" points="687.13,-186.09 676.64,-187.52 685.73,-192.95 687.13,-186.09"/>
</g>
<!-- Node16 -->
<g id="node16" class="node">
<title>Node16</title>
<g id="a_node16"><a xlink:href="geometry_8h.html" target="_top" xlink:title=" ">
<polygon fill="white" stroke="black" points="580,-56.5 580,-75.5 690,-75.5 690,-56.5 580,-56.5"/>
<text text-anchor="middle" x="635" y="-63.5" font-family="FreeSans" font-size="10.00">magick/geometry.h</text>
</a>
</g>
</g>
<!-- Node4&#45;&gt;Node16 -->
<g id="edge20" class="edge">
<title>Node4&#45;&gt;Node16</title>
<path fill="none" stroke="midnightblue" d="M851.45,-232.53C772.54,-230.76 619.31,-222.8 580,-188 554.22,-165.18 548.5,-142.22 565,-112 572.82,-97.68 587.36,-87.24 601.18,-80.04"/>
<polygon fill="midnightblue" stroke="midnightblue" points="603.02,-83.03 610.53,-75.56 600,-76.72 603.02,-83.03"/>
</g>
<!-- Node17 -->
<g id="node17" class="node">
<title>Node17</title>
<g id="a_node17"><a xlink:href="layer_8h.html" target="_top" xlink:title=" ">
<polygon fill="white" stroke="black" points="1039.5,-168.5 1039.5,-187.5 1128.5,-187.5 1128.5,-168.5 1039.5,-168.5"/>
<text text-anchor="middle" x="1084" y="-175.5" font-family="FreeSans" font-size="10.00">magick/layer.h</text>
</a>
</g>
</g>
<!-- Node4&#45;&gt;Node17 -->
<g id="edge21" class="edge">
<title>Node4&#45;&gt;Node17</title>
<path fill="none" stroke="midnightblue" d="M928.31,-224.44C959.84,-215.24 1010.13,-200.56 1044.99,-190.39"/>
<polygon fill="midnightblue" stroke="midnightblue" points="1046.2,-193.68 1054.82,-187.52 1044.24,-186.96 1046.2,-193.68"/>
</g>
<!-- Node18 -->
<g id="node18" class="node">
<title>Node18</title>
<g id="a_node18"><a xlink:href="locale___8h.html" target="_top" xlink:title=" ">
<polygon fill="white" stroke="black" points="1146.5,-168.5 1146.5,-187.5 1245.5,-187.5 1245.5,-168.5 1146.5,-168.5"/>
<text text-anchor="middle" x="1196" y="-175.5" font-family="FreeSans" font-size="10.00">magick/locale_.h</text>
</a>
</g>
</g>
<!-- Node4&#45;&gt;Node18 -->
<g id="edge22" class="edge">
<title>Node4&#45;&gt;Node18</title>
<path fill="none" stroke="midnightblue" d="M946.06,-224.44C998.41,-214.92 1082.99,-199.55 1139.04,-189.36"/>
<polygon fill="midnightblue" stroke="midnightblue" points="1139.95,-192.75 1149.16,-187.52 1138.69,-185.86 1139.95,-192.75"/>
</g>
<!-- Node20 -->
<g id="node20" class="node">
<title>Node20</title>
<g id="a_node20"><a xlink:href="monitor_8h.html" target="_top" xlink:title=" ">
<polygon fill="white" stroke="black" points="1264,-168.5 1264,-187.5 1366,-187.5 1366,-168.5 1264,-168.5"/>
<text text-anchor="middle" x="1315" y="-175.5" font-family="FreeSans" font-size="10.00">magick/monitor.h</text>
</a>
</g>
</g>
<!-- Node4&#45;&gt;Node20 -->
<g id="edge24" class="edge">
<title>Node4&#45;&gt;Node20</title>
<path fill="none" stroke="midnightblue" d="M946.7,-227.27C1012.96,-219.23 1136.86,-203.96 1253.57,-188.03"/>
<polygon fill="midnightblue" stroke="midnightblue" points="1254.32,-191.46 1263.76,-186.64 1253.37,-184.53 1254.32,-191.46"/>
</g>
<!-- Node21 -->
<g id="node21" class="node">
<title>Node21</title>
<g id="a_node21"><a xlink:href="profile_8h.html" target="_top" xlink:title=" ">
<polygon fill="white" stroke="black" points="329.5,-168.5 329.5,-187.5 424.5,-187.5 424.5,-168.5 329.5,-168.5"/>
<text text-anchor="middle" x="377" y="-175.5" font-family="FreeSans" font-size="10.00">magick/profile.h</text>
</a>
</g>
</g>
<!-- Node4&#45;&gt;Node21 -->
<g id="edge26" class="edge">
<title>Node4&#45;&gt;Node21</title>
<path fill="none" stroke="midnightblue" d="M851.37,-229.34C768.78,-222.79 593.45,-207.97 434.52,-187.99"/>
<polygon fill="midnightblue" stroke="midnightblue" points="434.92,-184.51 424.56,-186.73 434.04,-191.46 434.92,-184.51"/>
</g>
<!-- Node4&#45;&gt;Node24 -->
<g id="edge31" class="edge">
<title>Node4&#45;&gt;Node24</title>
<path fill="none" stroke="midnightblue" d="M851.32,-230.61C752.55,-225.14 518.86,-210.52 316.87,-188.62"/>
<polygon fill="midnightblue" stroke="midnightblue" points="316.99,-185.12 306.67,-187.51 316.23,-192.07 316.99,-185.12"/>
</g>
<!-- Node26 -->
<g id="node26" class="node">
<title>Node26</title>
<g id="a_node26"><a xlink:href="resample_8h.html" target="_top" xlink:title=" ">
<polygon fill="white" stroke="black" points="1572,-168.5 1572,-187.5 1682,-187.5 1682,-168.5 1572,-168.5"/>
<text text-anchor="middle" x="1627" y="-175.5" font-family="FreeSans" font-size="10.00">magick/resample.h</text>
</a>
</g>
</g>
<!-- Node4&#45;&gt;Node26 -->
<g id="edge35" class="edge">
<title>Node4&#45;&gt;Node26</title>
<path fill="none" stroke="midnightblue" d="M946.64,-230.75C1055.24,-225.41 1329.48,-210.68 1558,-188 1559.11,-187.89 1560.23,-187.78 1561.36,-187.66"/>
<polygon fill="midnightblue" stroke="midnightblue" points="1562.12,-191.1 1571.67,-186.52 1561.35,-184.14 1562.12,-191.1"/>
</g>
<!-- Node27 -->
<g id="node27" class="node">
<title>Node27</title>
<g id="a_node27"><a xlink:href="resize_8h.html" target="_top" xlink:title=" ">
<polygon fill="white" stroke="black" points="1384,-168.5 1384,-187.5 1478,-187.5 1478,-168.5 1384,-168.5"/>
<text text-anchor="middle" x="1431" y="-175.5" font-family="FreeSans" font-size="10.00">magick/resize.h</text>
</a>
</g>
</g>
<!-- Node4&#45;&gt;Node27 -->
<g id="edge37" class="edge">
<title>Node4&#45;&gt;Node27</title>
<path fill="none" stroke="midnightblue" d="M946.74,-229.52C1030.86,-223.17 1211.17,-208.54 1373.79,-188.08"/>
<polygon fill="midnightblue" stroke="midnightblue" points="1374.5,-191.52 1383.98,-186.78 1373.62,-184.57 1374.5,-191.52"/>
</g>
<!-- Node4&#45;&gt;Node28 -->
<g id="edge39" class="edge">
<title>Node4&#45;&gt;Node28</title>
<path fill="none" stroke="midnightblue" d="M851.43,-231.4C739.09,-227.32 448.41,-214.96 194.68,-187.97"/>
<polygon fill="midnightblue" stroke="midnightblue" points="194.85,-184.47 184.53,-186.88 194.1,-191.43 194.85,-184.47"/>
</g>
<!-- Node29 -->
<g id="node29" class="node">
<title>Node29</title>
<g id="a_node29"><a xlink:href="timer_8h.html" target="_top" xlink:title=" ">
<polygon fill="white" stroke="black" points="443,-168.5 443,-187.5 533,-187.5 533,-168.5 443,-168.5"/>
<text text-anchor="middle" x="488" y="-175.5" font-family="FreeSans" font-size="10.00">magick/timer.h</text>
</a>
</g>
</g>
<!-- Node4&#45;&gt;Node29 -->
<g id="edge40" class="edge">
<title>Node4&#45;&gt;Node29</title>
<path fill="none" stroke="midnightblue" d="M851.41,-227.29C783.72,-219.08 655.75,-203.24 547,-188 545.73,-187.82 544.45,-187.64 543.15,-187.46"/>
<polygon fill="midnightblue" stroke="midnightblue" points="543.48,-183.97 533.08,-185.99 542.47,-190.89 543.48,-183.97"/>
</g>
<!-- Node5&#45;&gt;Node6 -->
<g id="edge5" class="edge">
<title>Node5&#45;&gt;Node6</title>
<path fill="none" stroke="midnightblue" d="M1451.11,-115.01C1524.43,-105.07 1671.14,-85.16 1750.7,-74.37"/>
<polygon fill="midnightblue" stroke="midnightblue" points="1751.55,-77.78 1760.99,-72.97 1750.61,-70.85 1751.55,-77.78"/>
</g>
<!-- Node9 -->
<g id="node9" class="node">
<title>Node9</title>
<g id="a_node9"><a xlink:href="exception_8h.html" target="_top" xlink:title=" ">
<polygon fill="white" stroke="black" points="362.5,-56.5 362.5,-75.5 475.5,-75.5 475.5,-56.5 362.5,-56.5"/>
<text text-anchor="middle" x="419" y="-63.5" font-family="FreeSans" font-size="10.00">magick/exception.h</text>
</a>
</g>
</g>
<!-- Node5&#45;&gt;Node9 -->
<g id="edge8" class="edge">
<title>Node5&#45;&gt;Node9</title>
<path fill="none" stroke="midnightblue" d="M1362.94,-118.2C1333.75,-116.37 1294.59,-113.96 1260,-112 953.85,-94.63 877.16,-93.06 571,-76 543.16,-74.45 512.45,-72.65 485.96,-71.07"/>
<polygon fill="midnightblue" stroke="midnightblue" points="485.85,-67.55 475.66,-70.45 485.43,-74.54 485.85,-67.55"/>
</g>
<!-- Node6&#45;&gt;Node7 -->
<g id="edge6" class="edge">
<title>Node6&#45;&gt;Node7</title>
<path fill="none" stroke="midnightblue" d="M1805,-56.08C1805,-49.01 1805,-38.86 1805,-29.99"/>
<polygon fill="midnightblue" stroke="midnightblue" points="1808.5,-29.75 1805,-19.75 1801.5,-29.75 1808.5,-29.75"/>
</g>
<!-- Node6&#45;&gt;Node8 -->
<g id="edge7" class="edge">
<title>Node6&#45;&gt;Node8</title>
<path fill="none" stroke="midnightblue" d="M1837.48,-56.44C1872.72,-47.16 1929.1,-32.31 1967.76,-22.13"/>
<polygon fill="midnightblue" stroke="midnightblue" points="1968.89,-25.45 1977.67,-19.52 1967.11,-18.68 1968.89,-25.45"/>
</g>
<!-- Node9&#45;&gt;Node2 -->
<g id="edge9" class="edge">
<title>Node9&#45;&gt;Node2</title>
<path fill="none" stroke="midnightblue" d="M362.37,-56.97C283.86,-45.85 144.01,-26.03 76.53,-16.46"/>
<polygon fill="midnightblue" stroke="midnightblue" points="76.73,-12.95 66.34,-15.02 75.75,-19.89 76.73,-12.95"/>
</g>
<!-- Node9&#45;&gt;Node10 -->
<g id="edge10" class="edge">
<title>Node9&#45;&gt;Node10</title>
<path fill="none" stroke="midnightblue" d="M406.95,-56.32C395.54,-48.11 378.17,-35.6 364.57,-25.81"/>
<polygon fill="midnightblue" stroke="midnightblue" points="366.43,-22.84 356.27,-19.83 362.34,-28.52 366.43,-22.84"/>
</g>
<!-- Node11&#45;&gt;Node6 -->
<g id="edge14" class="edge">
<title>Node11&#45;&gt;Node6</title>
<path fill="none" stroke="midnightblue" d="M1715.19,-112.32C1732.35,-103.66 1758.95,-90.24 1778.75,-80.25"/>
<polygon fill="midnightblue" stroke="midnightblue" points="1780.5,-83.28 1787.85,-75.65 1777.35,-77.04 1780.5,-83.28"/>
</g>
<!-- Node15 -->
<g id="node15" class="node">
<title>Node15</title>
<g id="a_node15"><a xlink:href="morphology_8h.html" target="_top" xlink:title=" ">
<polygon fill="white" stroke="black" points="574,-112.5 574,-131.5 696,-131.5 696,-112.5 574,-112.5"/>
<text text-anchor="middle" x="635" y="-119.5" font-family="FreeSans" font-size="10.00">magick/morphology.h</text>
</a>
</g>
</g>
<!-- Node14&#45;&gt;Node15 -->
<g id="edge18" class="edge">
<title>Node14&#45;&gt;Node15</title>
<path fill="none" stroke="midnightblue" d="M635,-168.08C635,-161.01 635,-150.86 635,-141.99"/>
<polygon fill="midnightblue" stroke="midnightblue" points="638.5,-141.75 635,-131.75 631.5,-141.75 638.5,-141.75"/>
</g>
<!-- Node15&#45;&gt;Node16 -->
<g id="edge19" class="edge">
<title>Node15&#45;&gt;Node16</title>
<path fill="none" stroke="midnightblue" d="M635,-112.08C635,-105.01 635,-94.86 635,-85.99"/>
<polygon fill="midnightblue" stroke="midnightblue" points="638.5,-85.75 635,-75.75 631.5,-85.75 638.5,-85.75"/>
</g>
<!-- Node19 -->
<g id="node19" class="node">
<title>Node19</title>
<g id="a_node19"><a xlink:href="hashmap_8h.html" target="_top" xlink:title=" ">
<polygon fill="white" stroke="black" points="1141,-112.5 1141,-131.5 1251,-131.5 1251,-112.5 1141,-112.5"/>
<text text-anchor="middle" x="1196" y="-119.5" font-family="FreeSans" font-size="10.00">magick/hashmap.h</text>
</a>
</g>
</g>
<!-- Node18&#45;&gt;Node19 -->
<g id="edge23" class="edge">
<title>Node18&#45;&gt;Node19</title>
<path fill="none" stroke="midnightblue" d="M1196,-168.08C1196,-161.01 1196,-150.86 1196,-141.99"/>
<polygon fill="midnightblue" stroke="midnightblue" points="1199.5,-141.75 1196,-131.75 1192.5,-141.75 1199.5,-141.75"/>
</g>
<!-- Node22 -->
<g id="node22" class="node">
<title>Node22</title>
<g id="a_node22"><a xlink:href="string___8h.html" target="_top" xlink:title=" ">
<polygon fill="white" stroke="black" points="317,-112.5 317,-131.5 415,-131.5 415,-112.5 317,-112.5"/>
<text text-anchor="middle" x="366" y="-119.5" font-family="FreeSans" font-size="10.00">magick/string_.h</text>
</a>
</g>
</g>
<!-- Node21&#45;&gt;Node22 -->
<g id="edge27" class="edge">
<title>Node21&#45;&gt;Node22</title>
<path fill="none" stroke="midnightblue" d="M375.18,-168.08C373.73,-160.93 371.63,-150.64 369.81,-141.69"/>
<polygon fill="midnightblue" stroke="midnightblue" points="373.21,-140.85 367.78,-131.75 366.35,-142.25 373.21,-140.85"/>
</g>
<!-- Node22&#45;&gt;Node2 -->
<g id="edge28" class="edge">
<title>Node22&#45;&gt;Node2</title>
<path fill="none" stroke="midnightblue" d="M340.54,-112.46C282.41,-92.97 139.86,-45.16 73.3,-22.84"/>
<polygon fill="midnightblue" stroke="midnightblue" points="74.27,-19.47 63.67,-19.61 72.04,-26.11 74.27,-19.47"/>
</g>
<!-- Node22&#45;&gt;Node9 -->
<g id="edge30" class="edge">
<title>Node22&#45;&gt;Node9</title>
<path fill="none" stroke="midnightblue" d="M374.75,-112.08C382.47,-104.22 393.9,-92.57 403.22,-83.08"/>
<polygon fill="midnightblue" stroke="midnightblue" points="405.9,-85.34 410.41,-75.75 400.91,-80.44 405.9,-85.34"/>
</g>
<!-- Node23 -->
<g id="node23" class="node">
<title>Node23</title>
<g id="a_node23"><a xlink:title=" ">
<polygon fill="white" stroke="#bfbfbf" points="296,-56.5 296,-75.5 344,-75.5 344,-56.5 296,-56.5"/>
<text text-anchor="middle" x="320" y="-63.5" font-family="FreeSans" font-size="10.00">time.h</text>
</a>
</g>
</g>
<!-- Node22&#45;&gt;Node23 -->
<g id="edge29" class="edge">
<title>Node22&#45;&gt;Node23</title>
<path fill="none" stroke="midnightblue" d="M358.4,-112.08C351.77,-104.3 341.98,-92.8 333.94,-83.37"/>
<polygon fill="midnightblue" stroke="midnightblue" points="336.6,-81.09 327.45,-75.75 331.27,-85.63 336.6,-81.09"/>
</g>
<!-- Node24&#45;&gt;Node4 -->
<g id="edge33" class="edge">
<title>Node24&#45;&gt;Node4</title>
<path fill="none" stroke="midnightblue" d="M311.3,-185.84C317.3,-186.63 323.29,-187.37 329,-188 516,-208.6 738,-223.08 841.15,-229.41"/>
<polygon fill="midnightblue" stroke="midnightblue" points="841.15,-232.92 851.35,-230.04 841.58,-225.93 841.15,-232.92"/>
</g>
<!-- Node24&#45;&gt;Node10 -->
<g id="edge34" class="edge">
<title>Node24&#45;&gt;Node10</title>
<path fill="none" stroke="midnightblue" d="M257.26,-168.34C258.28,-147.37 263.19,-92.92 287,-56 295.09,-43.46 307.88,-32.9 319.3,-25.16"/>
<polygon fill="midnightblue" stroke="midnightblue" points="321.5,-27.91 328.05,-19.58 317.73,-22.01 321.5,-27.91"/>
</g>
<!-- Node25 -->
<g id="node25" class="node">
<title>Node25</title>
<g id="a_node25"><a xlink:title=" ">
<polygon fill="white" stroke="#bfbfbf" points="192.5,-112.5 192.5,-131.5 239.5,-131.5 239.5,-112.5 192.5,-112.5"/>
<text text-anchor="middle" x="216" y="-119.5" font-family="FreeSans" font-size="10.00">float.h</text>
</a>
</g>
</g>
<!-- Node24&#45;&gt;Node25 -->
<g id="edge32" class="edge">
<title>Node24&#45;&gt;Node25</title>
<path fill="none" stroke="midnightblue" d="M250.23,-168.08C244.44,-160.46 235.94,-149.26 228.86,-139.94"/>
<polygon fill="midnightblue" stroke="midnightblue" points="231.48,-137.6 222.64,-131.75 225.9,-141.83 231.48,-137.6"/>
</g>
<!-- Node26&#45;&gt;Node11 -->
<g id="edge36" class="edge">
<title>Node26&#45;&gt;Node11</title>
<path fill="none" stroke="midnightblue" d="M1638.41,-168.32C1649.11,-160.18 1665.34,-147.84 1678.16,-138.09"/>
<polygon fill="midnightblue" stroke="midnightblue" points="1680.54,-140.67 1686.39,-131.83 1676.31,-135.1 1680.54,-140.67"/>
</g>
<!-- Node30&#45;&gt;Node4 -->
<g id="edge45" class="edge">
<title>Node30&#45;&gt;Node4</title>
<path fill="none" stroke="midnightblue" d="M1582.83,-285.72C1457.2,-276.41 1097.89,-249.75 956.84,-239.29"/>
<polygon fill="midnightblue" stroke="midnightblue" points="956.9,-235.78 946.66,-238.54 956.38,-242.77 956.9,-235.78"/>
</g>
<!-- Node30&#45;&gt;Node5 -->
<g id="edge48" class="edge">
<title>Node30&#45;&gt;Node5</title>
<path fill="none" stroke="midnightblue" d="M1618.34,-280.41C1597.13,-259.61 1540.36,-205.5 1487,-168 1470.05,-156.09 1449.68,-144.67 1433.74,-136.31"/>
<polygon fill="midnightblue" stroke="midnightblue" points="1434.95,-133 1424.46,-131.53 1431.74,-139.22 1434.95,-133"/>
</g>
<!-- Node30&#45;&gt;Node6 -->
<g id="edge46" class="edge">
<title>Node30&#45;&gt;Node6</title>
<path fill="none" stroke="midnightblue" d="M1671.07,-285.06C1700.68,-280.12 1738.46,-269 1762,-244 1803.86,-199.54 1807.04,-121.45 1806.07,-85.75"/>
<polygon fill="midnightblue" stroke="midnightblue" points="1809.57,-85.6 1805.65,-75.75 1802.57,-85.89 1809.57,-85.6"/>
</g>
<!-- Node30&#45;&gt;Node16 -->
<g id="edge44" class="edge">
<title>Node30&#45;&gt;Node16</title>
<path fill="none" stroke="midnightblue" d="M1637.93,-280.46C1663.11,-259.79 1720.82,-205.92 1691,-168 1629.57,-89.89 921.16,-71.7 700.32,-67.91"/>
<polygon fill="midnightblue" stroke="midnightblue" points="700.24,-64.41 690.18,-67.74 700.12,-71.41 700.24,-64.41"/>
</g>
<!-- Node31 -->
<g id="node31" class="node">
<title>Node31</title>
<g id="a_node31"><a xlink:href="type_8h.html" target="_top" xlink:title=" ">
<polygon fill="white" stroke="black" points="1392,-224.5 1392,-243.5 1478,-243.5 1478,-224.5 1392,-224.5"/>
<text text-anchor="middle" x="1435" y="-231.5" font-family="FreeSans" font-size="10.00">magick/type.h</text>
</a>
</g>
</g>
<!-- Node30&#45;&gt;Node31 -->
<g id="edge47" class="edge">
<title>Node30&#45;&gt;Node31</title>
<path fill="none" stroke="midnightblue" d="M1596.58,-280.44C1563.72,-271.2 1511.22,-256.44 1475.03,-246.26"/>
<polygon fill="midnightblue" stroke="midnightblue" points="1475.85,-242.85 1465.28,-243.52 1473.96,-249.59 1475.85,-242.85"/>
</g>
<!-- Node33 -->
<g id="node33" class="node">
<title>Node33</title>
<g id="a_node33"><a xlink:href="magick-baseconfig_8h.html" target="_top" xlink:title=" ">
<polygon fill="white" stroke="black" points="2092.5,-224.5 2092.5,-243.5 2249.5,-243.5 2249.5,-224.5 2092.5,-224.5"/>
<text text-anchor="middle" x="2171" y="-231.5" font-family="FreeSans" font-size="10.00">magick/magick&#45;baseconfig.h</text>
</a>
</g>
</g>
<!-- Node32&#45;&gt;Node33 -->
<g id="edge51" class="edge">
<title>Node32&#45;&gt;Node33</title>
<path fill="none" stroke="midnightblue" d="M2160.98,-280.08C2162.57,-272.93 2164.86,-262.64 2166.85,-253.69"/>
<polygon fill="midnightblue" stroke="midnightblue" points="2170.3,-254.27 2169.06,-243.75 2163.47,-252.75 2170.3,-254.27"/>
</g>
<!-- Node34&#45;&gt;Node7 -->
<g id="edge54" class="edge">
<title>Node34&#45;&gt;Node7</title>
<path fill="none" stroke="midnightblue" d="M1978.12,-224.3C1968.74,-203.7 1943.41,-150.79 1914,-112 1892.74,-83.95 1883.88,-79.85 1858,-56 1846.91,-45.77 1834.01,-34.81 1823.72,-26.26"/>
<polygon fill="midnightblue" stroke="midnightblue" points="1825.72,-23.38 1815.78,-19.72 1821.27,-28.78 1825.72,-23.38"/>
</g>
</g>
</svg>
