<?xml version="1.0" encoding="UTF-8" standalone="no"?>
<!DOCTYPE svg PUBLIC "-//W3C//DTD SVG 1.1//EN"
 "http://www.w3.org/Graphics/SVG/1.1/DTD/svg11.dtd">
<!-- Generated by graphviz version 2.43.0 (0)
 -->
<!-- Title: distribute&#45;cache&#45;private.h Pages: 1 -->
<svg width="184pt" height="84pt"
 viewBox="0.00 0.00 183.50 84.00" xmlns="http://www.w3.org/2000/svg" xmlns:xlink="http://www.w3.org/1999/xlink">
<g id="graph0" class="graph" transform="scale(1 1) rotate(0) translate(4 80)">
<title>distribute&#45;cache&#45;private.h</title>
<polygon fill="white" stroke="transparent" points="-4,4 -4,-80 179.5,-80 179.5,4 -4,4"/>
<!-- Node1 -->
<g id="node1" class="node">
<title>Node1</title>
<g id="a_node1"><a xlink:title=" ">
<polygon fill="#bfbfbf" stroke="black" points="3,-56.5 3,-75.5 146,-75.5 146,-56.5 3,-56.5"/>
<text text-anchor="middle" x="74.5" y="-63.5" font-family="FreeSans" font-size="10.00">distribute&#45;cache&#45;private.h</text>
</a>
</g>
</g>
<!-- Node2 -->
<g id="node2" class="node">
<title>Node2</title>
<g id="a_node2"><a xlink:href="cache_8c.html" target="_top" xlink:title=" ">
<polygon fill="white" stroke="black" points="0,-0.5 0,-19.5 53,-19.5 53,-0.5 0,-0.5"/>
<text text-anchor="middle" x="26.5" y="-7.5" font-family="FreeSans" font-size="10.00">cache.c</text>
</a>
</g>
</g>
<!-- Node1&#45;&gt;Node2 -->
<g id="edge1" class="edge">
<title>Node1&#45;&gt;Node2</title>
<path fill="none" stroke="midnightblue" d="M59.77,-48.43C51.36,-38.97 41.15,-27.48 34.28,-19.75"/>
<polygon fill="midnightblue" stroke="midnightblue" points="57.31,-50.93 66.57,-56.08 62.55,-46.28 57.31,-50.93"/>
</g>
<!-- Node3 -->
<g id="node3" class="node">
<title>Node3</title>
<g id="a_node3"><a xlink:href="distribute-cache_8c.html" target="_top" xlink:title=" ">
<polygon fill="white" stroke="black" points="71.5,-0.5 71.5,-19.5 175.5,-19.5 175.5,-0.5 71.5,-0.5"/>
<text text-anchor="middle" x="123.5" y="-7.5" font-family="FreeSans" font-size="10.00">distribute&#45;cache.c</text>
</a>
</g>
</g>
<!-- Node1&#45;&gt;Node3 -->
<g id="edge2" class="edge">
<title>Node1&#45;&gt;Node3</title>
<path fill="none" stroke="midnightblue" d="M89.53,-48.43C98.12,-38.97 108.54,-27.48 115.56,-19.75"/>
<polygon fill="midnightblue" stroke="midnightblue" points="86.72,-46.33 82.59,-56.08 91.9,-51.03 86.72,-46.33"/>
</g>
</g>
</svg>
