<?xml version="1.0" encoding="UTF-8" standalone="no"?>
<!DOCTYPE svg PUBLIC "-//W3C//DTD SVG 1.1//EN"
 "http://www.w3.org/Graphics/SVG/1.1/DTD/svg11.dtd">
<!-- Generated by graphviz version 2.43.0 (0)
 -->
<!-- Title: distort.c Pages: 1 -->
<svg width="3981pt" height="420pt"
 viewBox="0.00 0.00 3980.50 420.00" xmlns="http://www.w3.org/2000/svg" xmlns:xlink="http://www.w3.org/1999/xlink">
<g id="graph0" class="graph" transform="scale(1 1) rotate(0) translate(4 416)">
<title>distort.c</title>
<polygon fill="white" stroke="transparent" points="-4,4 -4,-416 3976.5,-416 3976.5,4 -4,4"/>
<!-- Node1 -->
<g id="node1" class="node">
<title>Node1</title>
<g id="a_node1"><a xlink:title=" ">
<polygon fill="#bfbfbf" stroke="black" points="2171,-392.5 2171,-411.5 2227,-411.5 2227,-392.5 2171,-392.5"/>
<text text-anchor="middle" x="2199" y="-399.5" font-family="FreeSans" font-size="10.00">distort.c</text>
</a>
</g>
</g>
<!-- Node2 -->
<g id="node2" class="node">
<title>Node2</title>
<g id="a_node2"><a xlink:href="studio_8h.html" target="_top" xlink:title=" ">
<polygon fill="white" stroke="red" points="616.5,-224.5 616.5,-243.5 711.5,-243.5 711.5,-224.5 616.5,-224.5"/>
<text text-anchor="middle" x="664" y="-231.5" font-family="FreeSans" font-size="10.00">magick/studio.h</text>
</a>
</g>
</g>
<!-- Node1&#45;&gt;Node2 -->
<g id="edge1" class="edge">
<title>Node1&#45;&gt;Node2</title>
<path fill="none" stroke="midnightblue" d="M2170.54,-400.5C2025.71,-397.82 1369.59,-384.33 1168,-356 990.28,-331.02 783.59,-271.53 700.92,-246.45"/>
<polygon fill="midnightblue" stroke="midnightblue" points="701.82,-243.07 691.23,-243.5 699.78,-249.77 701.82,-243.07"/>
</g>
<!-- Node24 -->
<g id="node18" class="node">
<title>Node24</title>
<g id="a_node18"><a xlink:href="artifact_8h.html" target="_top" xlink:title=" ">
<polygon fill="white" stroke="black" points="2246,-336.5 2246,-355.5 2346,-355.5 2346,-336.5 2246,-336.5"/>
<text text-anchor="middle" x="2296" y="-343.5" font-family="FreeSans" font-size="10.00">magick/artifact.h</text>
</a>
</g>
</g>
<!-- Node1&#45;&gt;Node24 -->
<g id="edge17" class="edge">
<title>Node1&#45;&gt;Node24</title>
<path fill="none" stroke="midnightblue" d="M2214.58,-392.32C2230,-383.74 2253.81,-370.49 2271.71,-360.52"/>
<polygon fill="midnightblue" stroke="midnightblue" points="2273.42,-363.58 2280.45,-355.65 2270.01,-357.46 2273.42,-363.58"/>
</g>
<!-- Node25 -->
<g id="node19" class="node">
<title>Node25</title>
<g id="a_node19"><a xlink:href="cache_8h.html" target="_top" xlink:title=" ">
<polygon fill="white" stroke="red" points="2385.5,-224.5 2385.5,-243.5 2478.5,-243.5 2478.5,-224.5 2385.5,-224.5"/>
<text text-anchor="middle" x="2432" y="-231.5" font-family="FreeSans" font-size="10.00">magick/cache.h</text>
</a>
</g>
</g>
<!-- Node1&#45;&gt;Node25 -->
<g id="edge18" class="edge">
<title>Node1&#45;&gt;Node25</title>
<path fill="none" stroke="midnightblue" d="M2227.29,-398.86C2260.76,-395.07 2316.75,-384.63 2355,-356 2391.09,-328.99 2414.65,-279.66 2425.35,-253.09"/>
<polygon fill="midnightblue" stroke="midnightblue" points="2428.7,-254.12 2429.04,-243.53 2422.17,-251.6 2428.7,-254.12"/>
</g>
<!-- Node34 -->
<g id="node20" class="node">
<title>Node34</title>
<g id="a_node20"><a xlink:href="cache-view_8h.html" target="_top" xlink:title=" ">
<polygon fill="white" stroke="black" points="2019.5,-112.5 2019.5,-131.5 2138.5,-131.5 2138.5,-112.5 2019.5,-112.5"/>
<text text-anchor="middle" x="2079" y="-119.5" font-family="FreeSans" font-size="10.00">magick/cache&#45;view.h</text>
</a>
</g>
</g>
<!-- Node1&#45;&gt;Node34 -->
<g id="edge19" class="edge">
<title>Node1&#45;&gt;Node34</title>
<path fill="none" stroke="midnightblue" d="M2199.88,-392.41C2201.72,-372.47 2205.21,-321.6 2198,-280 2189,-228.07 2192.82,-208.42 2159,-168 2147.06,-153.73 2129.37,-143.12 2113.66,-135.79"/>
<polygon fill="midnightblue" stroke="midnightblue" points="2114.76,-132.45 2104.2,-131.65 2111.96,-138.87 2114.76,-132.45"/>
</g>
<!-- Node29 -->
<g id="node21" class="node">
<title>Node29</title>
<g id="a_node21"><a xlink:href="pixel_8h.html" target="_top" xlink:title=" ">
<polygon fill="white" stroke="red" points="1837,-56.5 1837,-75.5 1925,-75.5 1925,-56.5 1837,-56.5"/>
<text text-anchor="middle" x="1881" y="-63.5" font-family="FreeSans" font-size="10.00">magick/pixel.h</text>
</a>
</g>
</g>
<!-- Node1&#45;&gt;Node29 -->
<g id="edge68" class="edge">
<title>Node1&#45;&gt;Node29</title>
<path fill="none" stroke="midnightblue" d="M2170.76,-400.83C2066.14,-399.89 1701.04,-393.91 1592,-356 1543.33,-339.08 1496,-342.53 1496,-291 1496,-291 1496,-291 1496,-177 1496,-109.05 1720.51,-80.73 1826.64,-71.14"/>
<polygon fill="midnightblue" stroke="midnightblue" points="1827.18,-74.61 1836.84,-70.25 1826.57,-67.64 1827.18,-74.61"/>
</g>
<!-- Node30 -->
<g id="node22" class="node">
<title>Node30</title>
<g id="a_node22"><a xlink:href="colorspace_8h.html" target="_top" xlink:title=" ">
<polygon fill="white" stroke="black" points="1915.5,-0.5 1915.5,-19.5 2032.5,-19.5 2032.5,-0.5 1915.5,-0.5"/>
<text text-anchor="middle" x="1974" y="-7.5" font-family="FreeSans" font-size="10.00">magick/colorspace.h</text>
</a>
</g>
</g>
<!-- Node1&#45;&gt;Node30 -->
<g id="edge47" class="edge">
<title>Node1&#45;&gt;Node30</title>
<path fill="none" stroke="midnightblue" d="M2203.71,-392.26C2220.71,-360.54 2278,-252.39 2278,-235 2278,-235 2278,-235 2278,-121 2278,-70.81 2129.61,-37.06 2040.18,-21.27"/>
<polygon fill="midnightblue" stroke="midnightblue" points="2040.56,-17.79 2030.11,-19.53 2039.37,-24.68 2040.56,-17.79"/>
</g>
<!-- Node52 -->
<g id="node23" class="node">
<title>Node52</title>
<g id="a_node23"><a xlink:href="channel_8h.html" target="_top" xlink:title=" ">
<polygon fill="white" stroke="black" points="2070.5,-280.5 2070.5,-299.5 2173.5,-299.5 2173.5,-280.5 2070.5,-280.5"/>
<text text-anchor="middle" x="2122" y="-287.5" font-family="FreeSans" font-size="10.00">magick/channel.h</text>
</a>
</g>
</g>
<!-- Node1&#45;&gt;Node52 -->
<g id="edge22" class="edge">
<title>Node1&#45;&gt;Node52</title>
<path fill="none" stroke="midnightblue" d="M2175.04,-392.39C2158.9,-385.25 2138.66,-373.43 2128,-356 2119.59,-342.25 2118.67,-323.73 2119.52,-309.97"/>
<polygon fill="midnightblue" stroke="midnightblue" points="2123.03,-310.04 2120.52,-299.74 2116.06,-309.36 2123.03,-310.04"/>
</g>
<!-- Node27 -->
<g id="node24" class="node">
<title>Node27</title>
<g id="a_node24"><a xlink:href="image_8h.html" target="_top" xlink:title=" ">
<polygon fill="white" stroke="red" points="1926.5,-224.5 1926.5,-243.5 2021.5,-243.5 2021.5,-224.5 1926.5,-224.5"/>
<text text-anchor="middle" x="1974" y="-231.5" font-family="FreeSans" font-size="10.00">magick/image.h</text>
</a>
</g>
</g>
<!-- Node1&#45;&gt;Node27 -->
<g id="edge62" class="edge">
<title>Node1&#45;&gt;Node27</title>
<path fill="none" stroke="midnightblue" d="M2181.12,-392.49C2164.09,-384.09 2138.01,-370.44 2117,-356 2067.9,-322.26 2015.85,-274.85 1990.21,-250.61"/>
<polygon fill="midnightblue" stroke="midnightblue" points="1992.51,-247.97 1982.85,-243.6 1987.68,-253.03 1992.51,-247.97"/>
</g>
<!-- Node48 -->
<g id="node25" class="node">
<title>Node48</title>
<g id="a_node25"><a xlink:href="resample_8h.html" target="_top" xlink:title=" ">
<polygon fill="white" stroke="black" points="2040,-168.5 2040,-187.5 2150,-187.5 2150,-168.5 2040,-168.5"/>
<text text-anchor="middle" x="2095" y="-175.5" font-family="FreeSans" font-size="10.00">magick/resample.h</text>
</a>
</g>
</g>
<!-- Node1&#45;&gt;Node48 -->
<g id="edge71" class="edge">
<title>Node1&#45;&gt;Node48</title>
<path fill="none" stroke="midnightblue" d="M2189.98,-392.34C2181.93,-383.93 2170.7,-370.36 2166,-356 2155.26,-323.19 2194.02,-312.36 2182,-280 2168.56,-243.8 2135.68,-211.88 2114.41,-194.04"/>
<polygon fill="midnightblue" stroke="midnightblue" points="2116.59,-191.31 2106.63,-187.71 2112.17,-196.74 2116.59,-191.31"/>
</g>
<!-- Node33 -->
<g id="node26" class="node">
<title>Node33</title>
<g id="a_node26"><a xlink:href="semaphore_8h.html" target="_top" xlink:title=" ">
<polygon fill="white" stroke="black" points="1348.5,-112.5 1348.5,-131.5 1467.5,-131.5 1467.5,-112.5 1348.5,-112.5"/>
<text text-anchor="middle" x="1408" y="-119.5" font-family="FreeSans" font-size="10.00">magick/semaphore.h</text>
</a>
</g>
</g>
<!-- Node1&#45;&gt;Node33 -->
<g id="edge78" class="edge">
<title>Node1&#45;&gt;Node33</title>
<path fill="none" stroke="midnightblue" d="M2170.8,-400.59C2050.99,-398.65 1583.88,-389.09 1441,-356 1378.12,-341.44 1342.78,-353.73 1307,-300 1278.5,-257.21 1328.66,-296.84 1389,-188 1397.02,-173.54 1401.96,-155.35 1404.79,-141.9"/>
<polygon fill="midnightblue" stroke="midnightblue" points="1408.26,-142.37 1406.68,-131.89 1401.38,-141.06 1408.26,-142.37"/>
</g>
<!-- Node53 -->
<g id="node27" class="node">
<title>Node53</title>
<g id="a_node27"><a xlink:href="color-private_8h.html" target="_top" xlink:title=" ">
<polygon fill="white" stroke="red" points="1700.5,-336.5 1700.5,-355.5 1827.5,-355.5 1827.5,-336.5 1700.5,-336.5"/>
<text text-anchor="middle" x="1764" y="-343.5" font-family="FreeSans" font-size="10.00">magick/color&#45;private.h</text>
</a>
</g>
</g>
<!-- Node1&#45;&gt;Node53 -->
<g id="edge30" class="edge">
<title>Node1&#45;&gt;Node53</title>
<path fill="none" stroke="midnightblue" d="M2170.79,-397.5C2104.24,-389.24 1935.68,-368.31 1837.69,-356.15"/>
<polygon fill="midnightblue" stroke="midnightblue" points="1837.92,-352.65 1827.56,-354.89 1837.05,-359.6 1837.92,-352.65"/>
</g>
<!-- Node55 -->
<g id="node28" class="node">
<title>Node55</title>
<g id="a_node28"><a xlink:href="colorspace-private_8h.html" target="_top" xlink:title=" ">
<polygon fill="white" stroke="red" points="1782.5,-280.5 1782.5,-299.5 1937.5,-299.5 1937.5,-280.5 1782.5,-280.5"/>
<text text-anchor="middle" x="1860" y="-287.5" font-family="FreeSans" font-size="10.00">magick/colorspace&#45;private.h</text>
</a>
</g>
</g>
<!-- Node1&#45;&gt;Node55 -->
<g id="edge48" class="edge">
<title>Node1&#45;&gt;Node55</title>
<path fill="none" stroke="midnightblue" d="M2170.92,-401.03C2100.32,-400.52 1918,-395.34 1875,-356 1862.34,-344.41 1859.31,-324.45 1859,-309.7"/>
<polygon fill="midnightblue" stroke="midnightblue" points="1862.5,-309.72 1859.19,-299.66 1855.5,-309.59 1862.5,-309.72"/>
</g>
<!-- Node56 -->
<g id="node29" class="node">
<title>Node56</title>
<g id="a_node29"><a xlink:href="pixel-accessor_8h.html" target="_top" xlink:title=" ">
<polygon fill="white" stroke="black" points="1596,-224.5 1596,-243.5 1730,-243.5 1730,-224.5 1596,-224.5"/>
<text text-anchor="middle" x="1663" y="-231.5" font-family="FreeSans" font-size="10.00">magick/pixel&#45;accessor.h</text>
</a>
</g>
</g>
<!-- Node1&#45;&gt;Node56 -->
<g id="edge69" class="edge">
<title>Node1&#45;&gt;Node56</title>
<path fill="none" stroke="midnightblue" d="M2170.93,-400.5C2075.62,-398.5 1765.22,-389.5 1672,-356 1630.81,-341.2 1611.32,-338.76 1591,-300 1579.33,-277.75 1605.72,-259.36 1629.77,-247.88"/>
<polygon fill="midnightblue" stroke="midnightblue" points="1631.43,-250.97 1639.13,-243.69 1628.57,-244.58 1631.43,-250.97"/>
</g>
<!-- Node57 -->
<g id="node30" class="node">
<title>Node57</title>
<g id="a_node30"><a xlink:href="gem_8h.html" target="_top" xlink:title=" ">
<polygon fill="white" stroke="red" points="1578,-168.5 1578,-187.5 1664,-187.5 1664,-168.5 1578,-168.5"/>
<text text-anchor="middle" x="1621" y="-175.5" font-family="FreeSans" font-size="10.00">magick/gem.h</text>
</a>
</g>
</g>
<!-- Node1&#45;&gt;Node57 -->
<g id="edge60" class="edge">
<title>Node1&#45;&gt;Node57</title>
<path fill="none" stroke="midnightblue" d="M2171,-400.32C2061.55,-397.44 1666.37,-385.13 1619,-356 1567.58,-324.38 1566.79,-280.88 1587,-224 1590.8,-213.32 1598.11,-203.09 1604.99,-195.1"/>
<polygon fill="midnightblue" stroke="midnightblue" points="1607.65,-197.38 1611.83,-187.65 1602.49,-192.65 1607.65,-197.38"/>
</g>
<!-- Node62 -->
<g id="node31" class="node">
<title>Node62</title>
<g id="a_node31"><a xlink:href="exception-private_8h.html" target="_top" xlink:title=" ">
<polygon fill="white" stroke="red" points="1316.5,-280.5 1316.5,-299.5 1467.5,-299.5 1467.5,-280.5 1316.5,-280.5"/>
<text text-anchor="middle" x="1392" y="-287.5" font-family="FreeSans" font-size="10.00">magick/exception&#45;private.h</text>
</a>
</g>
</g>
<!-- Node1&#45;&gt;Node62 -->
<g id="edge59" class="edge">
<title>Node1&#45;&gt;Node62</title>
<path fill="none" stroke="midnightblue" d="M2170.92,-401.3C2054.81,-402.25 1612.18,-402.65 1482,-356 1452.69,-345.5 1424.53,-322.36 1407.74,-306.72"/>
<polygon fill="midnightblue" stroke="midnightblue" points="1410.1,-304.13 1400.46,-299.73 1405.25,-309.18 1410.1,-304.13"/>
</g>
<!-- Node45 -->
<g id="node32" class="node">
<title>Node45</title>
<g id="a_node32"><a xlink:href="string___8h.html" target="_top" xlink:title=" ">
<polygon fill="white" stroke="black" points="1124,-224.5 1124,-243.5 1222,-243.5 1222,-224.5 1124,-224.5"/>
<text text-anchor="middle" x="1173" y="-231.5" font-family="FreeSans" font-size="10.00">magick/string_.h</text>
</a>
</g>
</g>
<!-- Node1&#45;&gt;Node45 -->
<g id="edge80" class="edge">
<title>Node1&#45;&gt;Node45</title>
<path fill="none" stroke="midnightblue" d="M2170.98,-400.47C2016.71,-397.49 1276.41,-381.83 1236,-356 1199.69,-332.79 1183.17,-281.46 1176.65,-253.7"/>
<polygon fill="midnightblue" stroke="midnightblue" points="1180.03,-252.74 1174.5,-243.7 1173.18,-254.21 1180.03,-252.74"/>
</g>
<!-- Node32 -->
<g id="node33" class="node">
<title>Node32</title>
<g id="a_node33"><a xlink:href="exception_8h.html" target="_top" xlink:title=" ">
<polygon fill="white" stroke="black" points="1198.5,-168.5 1198.5,-187.5 1311.5,-187.5 1311.5,-168.5 1198.5,-168.5"/>
<text text-anchor="middle" x="1255" y="-175.5" font-family="FreeSans" font-size="10.00">magick/exception.h</text>
</a>
</g>
</g>
<!-- Node1&#45;&gt;Node32 -->
<g id="edge58" class="edge">
<title>Node1&#45;&gt;Node32</title>
<path fill="none" stroke="midnightblue" d="M2170.93,-400.65C2019.68,-398.65 1307.44,-387.55 1274,-356 1230.2,-314.68 1242.06,-233.72 1250.24,-197.4"/>
<polygon fill="midnightblue" stroke="midnightblue" points="1253.64,-198.2 1252.59,-187.66 1246.84,-196.56 1253.64,-198.2"/>
</g>
<!-- Node65 -->
<g id="node34" class="node">
<title>Node65</title>
<g id="a_node34"><a xlink:href="composite-private_8h.html" target="_top" xlink:title=" ">
<polygon fill="white" stroke="red" points="1884,-336.5 1884,-355.5 2038,-355.5 2038,-336.5 1884,-336.5"/>
<text text-anchor="middle" x="1961" y="-343.5" font-family="FreeSans" font-size="10.00">magick/composite&#45;private.h</text>
</a>
</g>
</g>
<!-- Node1&#45;&gt;Node65 -->
<g id="edge49" class="edge">
<title>Node1&#45;&gt;Node65</title>
<path fill="none" stroke="midnightblue" d="M2170.76,-394.59C2130.76,-385.52 2057.06,-368.8 2008.54,-357.79"/>
<polygon fill="midnightblue" stroke="midnightblue" points="2009.12,-354.33 1998.59,-355.53 2007.57,-361.15 2009.12,-354.33"/>
</g>
<!-- Node66 -->
<g id="node35" class="node">
<title>Node66</title>
<g id="a_node35"><a xlink:href="pixel-private_8h.html" target="_top" xlink:title=" ">
<polygon fill="white" stroke="red" points="1600,-280.5 1600,-299.5 1726,-299.5 1726,-280.5 1600,-280.5"/>
<text text-anchor="middle" x="1663" y="-287.5" font-family="FreeSans" font-size="10.00">magick/pixel&#45;private.h</text>
</a>
</g>
</g>
<!-- Node1&#45;&gt;Node66 -->
<g id="edge70" class="edge">
<title>Node1&#45;&gt;Node66</title>
<path fill="none" stroke="midnightblue" d="M2170.98,-400.18C2070.21,-397 1730.05,-384.25 1691,-356 1676.24,-345.33 1669.19,-325.22 1665.86,-310.19"/>
<polygon fill="midnightblue" stroke="midnightblue" points="1669.23,-309.12 1663.98,-299.92 1662.34,-310.38 1669.23,-309.12"/>
</g>
<!-- Node67 -->
<g id="node36" class="node">
<title>Node67</title>
<g id="a_node36"><a xlink:href="memory___8h.html" target="_top" xlink:title=" ">
<polygon fill="white" stroke="black" points="993.5,-224.5 993.5,-243.5 1104.5,-243.5 1104.5,-224.5 993.5,-224.5"/>
<text text-anchor="middle" x="1049" y="-231.5" font-family="FreeSans" font-size="10.00">magick/memory_.h</text>
</a>
</g>
</g>
<!-- Node1&#45;&gt;Node67 -->
<g id="edge65" class="edge">
<title>Node1&#45;&gt;Node67</title>
<path fill="none" stroke="midnightblue" d="M2170.94,-400.7C2019.54,-398.97 1303.46,-389.07 1211,-356 1148.69,-333.71 1090.31,-278.64 1063.85,-251.15"/>
<polygon fill="midnightblue" stroke="midnightblue" points="1066.11,-248.44 1056.7,-243.57 1061.02,-253.25 1066.11,-248.44"/>
</g>
<!-- Node69 -->
<g id="node37" class="node">
<title>Node69</title>
<g id="a_node37"><a xlink:href="distort_8h.html" target="_top" xlink:title=" ">
<polygon fill="white" stroke="black" points="2644,-336.5 2644,-355.5 2740,-355.5 2740,-336.5 2644,-336.5"/>
<text text-anchor="middle" x="2692" y="-343.5" font-family="FreeSans" font-size="10.00">magick/distort.h</text>
</a>
</g>
</g>
<!-- Node1&#45;&gt;Node69 -->
<g id="edge57" class="edge">
<title>Node1&#45;&gt;Node69</title>
<path fill="none" stroke="midnightblue" d="M2227.03,-398.47C2295.79,-392.17 2478.26,-374.93 2630,-356 2631.27,-355.84 2632.56,-355.68 2633.86,-355.51"/>
<polygon fill="midnightblue" stroke="midnightblue" points="2634.51,-358.96 2643.96,-354.17 2633.59,-352.02 2634.51,-358.96"/>
</g>
<!-- Node42 -->
<g id="node38" class="node">
<title>Node42</title>
<g id="a_node38"><a xlink:href="hashmap_8h.html" target="_top" xlink:title=" ">
<polygon fill="white" stroke="black" points="2758,-336.5 2758,-355.5 2868,-355.5 2868,-336.5 2758,-336.5"/>
<text text-anchor="middle" x="2813" y="-343.5" font-family="FreeSans" font-size="10.00">magick/hashmap.h</text>
</a>
</g>
</g>
<!-- Node1&#45;&gt;Node42 -->
<g id="edge61" class="edge">
<title>Node1&#45;&gt;Node42</title>
<path fill="none" stroke="midnightblue" d="M2227.1,-399.28C2306.88,-394.27 2541.78,-378.68 2747.77,-356.08"/>
<polygon fill="midnightblue" stroke="midnightblue" points="2748.31,-359.54 2757.87,-354.96 2747.54,-352.58 2748.31,-359.54"/>
</g>
<!-- Node70 -->
<g id="node39" class="node">
<title>Node70</title>
<g id="a_node39"><a xlink:href="list_8h.html" target="_top" xlink:title=" ">
<polygon fill="white" stroke="black" points="2886,-336.5 2886,-355.5 2966,-355.5 2966,-336.5 2886,-336.5"/>
<text text-anchor="middle" x="2926" y="-343.5" font-family="FreeSans" font-size="10.00">magick/list.h</text>
</a>
</g>
</g>
<!-- Node1&#45;&gt;Node70 -->
<g id="edge63" class="edge">
<title>Node1&#45;&gt;Node70</title>
<path fill="none" stroke="midnightblue" d="M2227.2,-400.29C2319.08,-397.75 2618.17,-387.52 2875.65,-356.02"/>
<polygon fill="midnightblue" stroke="midnightblue" points="2876.45,-359.45 2885.95,-354.75 2875.59,-352.5 2876.45,-359.45"/>
</g>
<!-- Node71 -->
<g id="node40" class="node">
<title>Node71</title>
<g id="a_node40"><a xlink:href="matrix_8h.html" target="_top" xlink:title=" ">
<polygon fill="white" stroke="black" points="2984.5,-336.5 2984.5,-355.5 3081.5,-355.5 3081.5,-336.5 2984.5,-336.5"/>
<text text-anchor="middle" x="3033" y="-343.5" font-family="FreeSans" font-size="10.00">magick/matrix.h</text>
</a>
</g>
</g>
<!-- Node1&#45;&gt;Node71 -->
<g id="edge64" class="edge">
<title>Node1&#45;&gt;Node71</title>
<path fill="none" stroke="midnightblue" d="M2227.27,-400.34C2327.56,-397.8 2675.86,-387.21 2974.17,-355.97"/>
<polygon fill="midnightblue" stroke="midnightblue" points="2974.73,-359.43 2984.31,-354.9 2974,-352.47 2974.73,-359.43"/>
</g>
<!-- Node72 -->
<g id="node41" class="node">
<title>Node72</title>
<g id="a_node41"><a xlink:href="monitor-private_8h.html" target="_top" xlink:title=" ">
<polygon fill="white" stroke="black" points="3099.5,-336.5 3099.5,-355.5 3240.5,-355.5 3240.5,-336.5 3099.5,-336.5"/>
<text text-anchor="middle" x="3170" y="-343.5" font-family="FreeSans" font-size="10.00">magick/monitor&#45;private.h</text>
</a>
</g>
</g>
<!-- Node1&#45;&gt;Node72 -->
<g id="edge66" class="edge">
<title>Node1&#45;&gt;Node72</title>
<path fill="none" stroke="midnightblue" d="M2227.16,-400.23C2336.48,-397.09 2743.35,-384.14 3089.17,-356.1"/>
<polygon fill="midnightblue" stroke="midnightblue" points="3089.7,-359.57 3099.39,-355.27 3089.13,-352.59 3089.7,-359.57"/>
</g>
<!-- Node73 -->
<g id="node42" class="node">
<title>Node73</title>
<g id="a_node42"><a xlink:href="option_8h.html" target="_top" xlink:title=" ">
<polygon fill="white" stroke="black" points="3258.5,-336.5 3258.5,-355.5 3353.5,-355.5 3353.5,-336.5 3258.5,-336.5"/>
<text text-anchor="middle" x="3306" y="-343.5" font-family="FreeSans" font-size="10.00">magick/option.h</text>
</a>
</g>
</g>
<!-- Node1&#45;&gt;Node73 -->
<g id="edge67" class="edge">
<title>Node1&#45;&gt;Node73</title>
<path fill="none" stroke="midnightblue" d="M2227.1,-401C2348.16,-400.73 2837.29,-397.11 3248.39,-356.05"/>
<polygon fill="midnightblue" stroke="midnightblue" points="3248.79,-359.52 3258.39,-355.04 3248.09,-352.56 3248.79,-359.52"/>
</g>
<!-- Node74 -->
<g id="node43" class="node">
<title>Node74</title>
<g id="a_node43"><a xlink:href="resample-private_8h.html" target="_top" xlink:title=" ">
<polygon fill="white" stroke="red" points="2439.5,-336.5 2439.5,-355.5 2588.5,-355.5 2588.5,-336.5 2439.5,-336.5"/>
<text text-anchor="middle" x="2514" y="-343.5" font-family="FreeSans" font-size="10.00">magick/resample&#45;private.h</text>
</a>
</g>
</g>
<!-- Node1&#45;&gt;Node74 -->
<g id="edge72" class="edge">
<title>Node1&#45;&gt;Node74</title>
<path fill="none" stroke="midnightblue" d="M2227.23,-396.16C2278.08,-387.44 2386.07,-368.93 2454.06,-357.28"/>
<polygon fill="midnightblue" stroke="midnightblue" points="2454.94,-360.68 2464.2,-355.54 2453.75,-353.78 2454.94,-360.68"/>
</g>
<!-- Node76 -->
<g id="node44" class="node">
<title>Node76</title>
<g id="a_node44"><a xlink:href="thread-private_8h.html" target="_top" xlink:title=" ">
<polygon fill="white" stroke="red" points="2442,-280.5 2442,-299.5 2576,-299.5 2576,-280.5 2442,-280.5"/>
<text text-anchor="middle" x="2509" y="-287.5" font-family="FreeSans" font-size="10.00">magick/thread&#45;private.h</text>
</a>
</g>
</g>
<!-- Node1&#45;&gt;Node76 -->
<g id="edge82" class="edge">
<title>Node1&#45;&gt;Node76</title>
<path fill="none" stroke="midnightblue" d="M2227.22,-396.64C2264.77,-390.3 2332.83,-376.98 2388,-356 2407.31,-348.66 2455.9,-321.48 2485.3,-304.68"/>
<polygon fill="midnightblue" stroke="midnightblue" points="2487.17,-307.64 2494.11,-299.63 2483.69,-301.57 2487.17,-307.64"/>
</g>
<!-- Node77 -->
<g id="node45" class="node">
<title>Node77</title>
<g id="a_node45"><a xlink:href="resource___8h.html" target="_top" xlink:title=" ">
<polygon fill="white" stroke="black" points="2506,-224.5 2506,-243.5 2618,-243.5 2618,-224.5 2506,-224.5"/>
<text text-anchor="middle" x="2562" y="-231.5" font-family="FreeSans" font-size="10.00">magick/resource_.h</text>
</a>
</g>
</g>
<!-- Node1&#45;&gt;Node77 -->
<g id="edge77" class="edge">
<title>Node1&#45;&gt;Node77</title>
<path fill="none" stroke="midnightblue" d="M2227.2,-399.95C2314.08,-396.42 2573.3,-383.65 2598,-356 2624.78,-326.03 2594.72,-276.91 2575.51,-251.45"/>
<polygon fill="midnightblue" stroke="midnightblue" points="2578.21,-249.21 2569.28,-243.5 2572.7,-253.53 2578.21,-249.21"/>
</g>
<!-- Node79 -->
<g id="node46" class="node">
<title>Node79</title>
<g id="a_node46"><a xlink:href="registry_8h.html" target="_top" xlink:title=" ">
<polygon fill="white" stroke="black" points="3371.5,-336.5 3371.5,-355.5 3472.5,-355.5 3472.5,-336.5 3371.5,-336.5"/>
<text text-anchor="middle" x="3422" y="-343.5" font-family="FreeSans" font-size="10.00">magick/registry.h</text>
</a>
</g>
</g>
<!-- Node1&#45;&gt;Node79 -->
<g id="edge76" class="edge">
<title>Node1&#45;&gt;Node79</title>
<path fill="none" stroke="midnightblue" d="M2227,-401.08C2355.65,-401.21 2902.93,-399.1 3361.07,-356.08"/>
<polygon fill="midnightblue" stroke="midnightblue" points="3361.57,-359.55 3371.2,-355.12 3360.91,-352.58 3361.57,-359.55"/>
</g>
<!-- Node80 -->
<g id="node47" class="node">
<title>Node80</title>
<g id="a_node47"><a xlink:href="shear_8h.html" target="_top" xlink:title=" ">
<polygon fill="white" stroke="black" points="3490.5,-336.5 3490.5,-355.5 3581.5,-355.5 3581.5,-336.5 3490.5,-336.5"/>
<text text-anchor="middle" x="3536" y="-343.5" font-family="FreeSans" font-size="10.00">magick/shear.h</text>
</a>
</g>
</g>
<!-- Node1&#45;&gt;Node80 -->
<g id="edge79" class="edge">
<title>Node1&#45;&gt;Node80</title>
<path fill="none" stroke="midnightblue" d="M2227.05,-400.51C2388.87,-397.63 3205.31,-382.07 3480.06,-356.04"/>
<polygon fill="midnightblue" stroke="midnightblue" points="3480.78,-359.49 3490.39,-355.03 3480.1,-352.52 3480.78,-359.49"/>
</g>
<!-- Node81 -->
<g id="node48" class="node">
<title>Node81</title>
<g id="a_node48"><a xlink:href="string-private_8h.html" target="_top" xlink:title=" ">
<polygon fill="white" stroke="red" points="3599.5,-336.5 3599.5,-355.5 3730.5,-355.5 3730.5,-336.5 3599.5,-336.5"/>
<text text-anchor="middle" x="3665" y="-343.5" font-family="FreeSans" font-size="10.00">magick/string&#45;private.h</text>
</a>
</g>
</g>
<!-- Node1&#45;&gt;Node81 -->
<g id="edge81" class="edge">
<title>Node1&#45;&gt;Node81</title>
<path fill="none" stroke="midnightblue" d="M2227.47,-401.02C2371.64,-400.91 3035.57,-398.08 3589.08,-356.08"/>
<polygon fill="midnightblue" stroke="midnightblue" points="3589.56,-359.55 3599.26,-355.3 3589.02,-352.57 3589.56,-359.55"/>
</g>
<!-- Node82 -->
<g id="node49" class="node">
<title>Node82</title>
<g id="a_node49"><a xlink:href="token_8h.html" target="_top" xlink:title=" ">
<polygon fill="white" stroke="black" points="3749,-336.5 3749,-355.5 3841,-355.5 3841,-336.5 3749,-336.5"/>
<text text-anchor="middle" x="3795" y="-343.5" font-family="FreeSans" font-size="10.00">magick/token.h</text>
</a>
</g>
</g>
<!-- Node1&#45;&gt;Node82 -->
<g id="edge83" class="edge">
<title>Node1&#45;&gt;Node82</title>
<path fill="none" stroke="midnightblue" d="M2227.15,-400.69C2408.01,-398.62 3409.12,-386.02 3738.82,-355.95"/>
<polygon fill="midnightblue" stroke="midnightblue" points="3739.21,-359.43 3748.84,-355.01 3738.56,-352.46 3739.21,-359.43"/>
</g>
<!-- Node83 -->
<g id="node50" class="node">
<title>Node83</title>
<g id="a_node50"><a xlink:href="transform_8h.html" target="_top" xlink:title=" ">
<polygon fill="white" stroke="black" points="3859.5,-336.5 3859.5,-355.5 3972.5,-355.5 3972.5,-336.5 3859.5,-336.5"/>
<text text-anchor="middle" x="3916" y="-343.5" font-family="FreeSans" font-size="10.00">magick/transform.h</text>
</a>
</g>
</g>
<!-- Node1&#45;&gt;Node83 -->
<g id="edge84" class="edge">
<title>Node1&#45;&gt;Node83</title>
<path fill="none" stroke="midnightblue" d="M2227.29,-400.65C2416,-398.24 3495.5,-383.5 3849.16,-355.95"/>
<polygon fill="midnightblue" stroke="midnightblue" points="3849.47,-359.43 3859.16,-355.15 3848.91,-352.46 3849.47,-359.43"/>
</g>
<!-- Node3 -->
<g id="node3" class="node">
<title>Node3</title>
<g id="a_node3"><a xlink:href="magick-config_8h.html" target="_top" xlink:title=" ">
<polygon fill="white" stroke="red" points="172,-168.5 172,-187.5 306,-187.5 306,-168.5 172,-168.5"/>
<text text-anchor="middle" x="239" y="-175.5" font-family="FreeSans" font-size="10.00">magick/magick&#45;config.h</text>
</a>
</g>
</g>
<!-- Node2&#45;&gt;Node3 -->
<g id="edge2" class="edge">
<title>Node2&#45;&gt;Node3</title>
<path fill="none" stroke="midnightblue" d="M616.48,-226.96C543.66,-217.71 403.72,-199.93 316.2,-188.81"/>
<polygon fill="midnightblue" stroke="midnightblue" points="316.42,-185.31 306.06,-187.52 315.54,-192.25 316.42,-185.31"/>
</g>
<!-- Node5 -->
<g id="node4" class="node">
<title>Node5</title>
<g id="a_node4"><a xlink:title=" ">
<polygon fill="white" stroke="#bfbfbf" points="1142,-112.5 1142,-131.5 1198,-131.5 1198,-112.5 1142,-112.5"/>
<text text-anchor="middle" x="1170" y="-119.5" font-family="FreeSans" font-size="10.00">stdarg.h</text>
</a>
</g>
</g>
<!-- Node2&#45;&gt;Node5 -->
<g id="edge3" class="edge">
<title>Node2&#45;&gt;Node5</title>
<path fill="none" stroke="midnightblue" d="M711.79,-228.25C760.83,-222.4 838.81,-210.37 903,-188 921.02,-181.72 923,-174.35 941,-168 1005.87,-145.11 1085.41,-132.79 1131.64,-127.09"/>
<polygon fill="midnightblue" stroke="midnightblue" points="1132.3,-130.53 1141.81,-125.87 1131.47,-123.58 1132.3,-130.53"/>
</g>
<!-- Node6 -->
<g id="node5" class="node">
<title>Node6</title>
<g id="a_node5"><a xlink:title=" ">
<polygon fill="white" stroke="#bfbfbf" points="324,-168.5 324,-187.5 374,-187.5 374,-168.5 324,-168.5"/>
<text text-anchor="middle" x="349" y="-175.5" font-family="FreeSans" font-size="10.00">stdio.h</text>
</a>
</g>
</g>
<!-- Node2&#45;&gt;Node6 -->
<g id="edge4" class="edge">
<title>Node2&#45;&gt;Node6</title>
<path fill="none" stroke="midnightblue" d="M616,-226.8C561.93,-219.49 471.24,-206.23 384.23,-188.09"/>
<polygon fill="midnightblue" stroke="midnightblue" points="384.69,-184.61 374.18,-185.97 383.25,-191.46 384.69,-184.61"/>
</g>
<!-- Node7 -->
<g id="node6" class="node">
<title>Node7</title>
<g id="a_node6"><a xlink:title=" ">
<polygon fill="white" stroke="#bfbfbf" points="392.5,-168.5 392.5,-187.5 445.5,-187.5 445.5,-168.5 392.5,-168.5"/>
<text text-anchor="middle" x="419" y="-175.5" font-family="FreeSans" font-size="10.00">ctype.h</text>
</a>
</g>
</g>
<!-- Node2&#45;&gt;Node7 -->
<g id="edge5" class="edge">
<title>Node2&#45;&gt;Node7</title>
<path fill="none" stroke="midnightblue" d="M621.65,-224.45C581.32,-216.19 518.65,-203.06 455.81,-188.36"/>
<polygon fill="midnightblue" stroke="midnightblue" points="456.26,-184.87 445.73,-185.99 454.66,-191.69 456.26,-184.87"/>
</g>
<!-- Node8 -->
<g id="node7" class="node">
<title>Node8</title>
<g id="a_node7"><a xlink:title=" ">
<polygon fill="white" stroke="#bfbfbf" points="463.5,-168.5 463.5,-187.5 518.5,-187.5 518.5,-168.5 463.5,-168.5"/>
<text text-anchor="middle" x="491" y="-175.5" font-family="FreeSans" font-size="10.00">locale.h</text>
</a>
</g>
</g>
<!-- Node2&#45;&gt;Node8 -->
<g id="edge6" class="edge">
<title>Node2&#45;&gt;Node8</title>
<path fill="none" stroke="midnightblue" d="M636.59,-224.44C607.23,-215.28 560.48,-200.69 527.9,-190.52"/>
<polygon fill="midnightblue" stroke="midnightblue" points="528.87,-187.16 518.28,-187.52 526.79,-193.84 528.87,-187.16"/>
</g>
<!-- Node9 -->
<g id="node8" class="node">
<title>Node9</title>
<g id="a_node8"><a xlink:title=" ">
<polygon fill="white" stroke="#bfbfbf" points="950.5,-168.5 950.5,-187.5 1001.5,-187.5 1001.5,-168.5 950.5,-168.5"/>
<text text-anchor="middle" x="976" y="-175.5" font-family="FreeSans" font-size="10.00">errno.h</text>
</a>
</g>
</g>
<!-- Node2&#45;&gt;Node9 -->
<g id="edge7" class="edge">
<title>Node2&#45;&gt;Node9</title>
<path fill="none" stroke="midnightblue" d="M711.81,-225.94C766.25,-217.7 857.78,-203.26 936,-188 937.44,-187.72 938.91,-187.42 940.39,-187.12"/>
<polygon fill="midnightblue" stroke="midnightblue" points="941.17,-190.53 950.23,-185.03 939.72,-183.69 941.17,-190.53"/>
</g>
<!-- Node10 -->
<g id="node9" class="node">
<title>Node10</title>
<g id="a_node9"><a xlink:title=" ">
<polygon fill="white" stroke="#bfbfbf" points="536.5,-168.5 536.5,-187.5 583.5,-187.5 583.5,-168.5 536.5,-168.5"/>
<text text-anchor="middle" x="560" y="-175.5" font-family="FreeSans" font-size="10.00">fcntl.h</text>
</a>
</g>
</g>
<!-- Node2&#45;&gt;Node10 -->
<g id="edge8" class="edge">
<title>Node2&#45;&gt;Node10</title>
<path fill="none" stroke="midnightblue" d="M647.29,-224.32C630.69,-215.7 605,-202.36 585.78,-192.39"/>
<polygon fill="midnightblue" stroke="midnightblue" points="587.16,-189.16 576.67,-187.65 583.93,-195.37 587.16,-189.16"/>
</g>
<!-- Node11 -->
<g id="node10" class="node">
<title>Node11</title>
<g id="a_node10"><a xlink:title=" ">
<polygon fill="white" stroke="#bfbfbf" points="1329.5,-168.5 1329.5,-187.5 1380.5,-187.5 1380.5,-168.5 1329.5,-168.5"/>
<text text-anchor="middle" x="1355" y="-175.5" font-family="FreeSans" font-size="10.00">math.h</text>
</a>
</g>
</g>
<!-- Node2&#45;&gt;Node11 -->
<g id="edge9" class="edge">
<title>Node2&#45;&gt;Node11</title>
<path fill="none" stroke="midnightblue" d="M711.67,-232.71C818.78,-231.42 1086.6,-224.64 1319.49,-187.74"/>
<polygon fill="midnightblue" stroke="midnightblue" points="1320.18,-191.17 1329.5,-186.13 1319.07,-184.26 1320.18,-191.17"/>
</g>
<!-- Node12 -->
<g id="node11" class="node">
<title>Node12</title>
<g id="a_node11"><a xlink:title=" ">
<polygon fill="white" stroke="#bfbfbf" points="1094,-168.5 1094,-187.5 1142,-187.5 1142,-168.5 1094,-168.5"/>
<text text-anchor="middle" x="1118" y="-175.5" font-family="FreeSans" font-size="10.00">time.h</text>
</a>
</g>
</g>
<!-- Node2&#45;&gt;Node12 -->
<g id="edge10" class="edge">
<title>Node2&#45;&gt;Node12</title>
<path fill="none" stroke="midnightblue" d="M711.71,-230.39C788.31,-225.66 943.51,-213.84 1083.87,-187.93"/>
<polygon fill="midnightblue" stroke="midnightblue" points="1084.77,-191.32 1093.95,-186.04 1083.48,-184.44 1084.77,-191.32"/>
</g>
<!-- Node13 -->
<g id="node12" class="node">
<title>Node13</title>
<g id="a_node12"><a xlink:title=" ">
<polygon fill="white" stroke="#bfbfbf" points="601.5,-168.5 601.5,-187.5 654.5,-187.5 654.5,-168.5 601.5,-168.5"/>
<text text-anchor="middle" x="628" y="-175.5" font-family="FreeSans" font-size="10.00">limits.h</text>
</a>
</g>
</g>
<!-- Node2&#45;&gt;Node13 -->
<g id="edge11" class="edge">
<title>Node2&#45;&gt;Node13</title>
<path fill="none" stroke="midnightblue" d="M658.06,-224.08C653.02,-216.53 645.66,-205.49 639.49,-196.23"/>
<polygon fill="midnightblue" stroke="midnightblue" points="642.29,-194.13 633.83,-187.75 636.47,-198.01 642.29,-194.13"/>
</g>
<!-- Node14 -->
<g id="node13" class="node">
<title>Node14</title>
<g id="a_node13"><a xlink:title=" ">
<polygon fill="white" stroke="#bfbfbf" points="672.5,-168.5 672.5,-187.5 727.5,-187.5 727.5,-168.5 672.5,-168.5"/>
<text text-anchor="middle" x="700" y="-175.5" font-family="FreeSans" font-size="10.00">signal.h</text>
</a>
</g>
</g>
<!-- Node2&#45;&gt;Node14 -->
<g id="edge12" class="edge">
<title>Node2&#45;&gt;Node14</title>
<path fill="none" stroke="midnightblue" d="M669.94,-224.08C674.98,-216.53 682.34,-205.49 688.51,-196.23"/>
<polygon fill="midnightblue" stroke="midnightblue" points="691.53,-198.01 694.17,-187.75 685.71,-194.13 691.53,-198.01"/>
</g>
<!-- Node15 -->
<g id="node14" class="node">
<title>Node15</title>
<g id="a_node14"><a xlink:title=" ">
<polygon fill="white" stroke="#bfbfbf" points="1020,-168.5 1020,-187.5 1076,-187.5 1076,-168.5 1020,-168.5"/>
<text text-anchor="middle" x="1048" y="-175.5" font-family="FreeSans" font-size="10.00">assert.h</text>
</a>
</g>
</g>
<!-- Node2&#45;&gt;Node15 -->
<g id="edge13" class="edge">
<title>Node2&#45;&gt;Node15</title>
<path fill="none" stroke="midnightblue" d="M711.53,-228.39C778.44,-221.54 904.09,-207.38 1010,-188 1010.1,-187.98 1010.2,-187.96 1010.3,-187.94"/>
<polygon fill="midnightblue" stroke="midnightblue" points="1010.74,-191.43 1019.85,-186.01 1009.35,-184.57 1010.74,-191.43"/>
</g>
<!-- Node16 -->
<g id="node15" class="node">
<title>Node16</title>
<g id="a_node15"><a xlink:href="method-attribute_8h.html" target="_top" xlink:title=" ">
<polygon fill="white" stroke="black" points="746,-168.5 746,-187.5 894,-187.5 894,-168.5 746,-168.5"/>
<text text-anchor="middle" x="820" y="-175.5" font-family="FreeSans" font-size="10.00">magick/method&#45;attribute.h</text>
</a>
</g>
</g>
<!-- Node2&#45;&gt;Node16 -->
<g id="edge14" class="edge">
<title>Node2&#45;&gt;Node16</title>
<path fill="none" stroke="midnightblue" d="M688.72,-224.44C714.85,-215.4 756.26,-201.06 785.58,-190.92"/>
<polygon fill="midnightblue" stroke="midnightblue" points="787.09,-194.1 795.4,-187.52 784.8,-187.48 787.09,-194.1"/>
</g>
<!-- Node17 -->
<g id="node16" class="node">
<title>Node17</title>
<g id="a_node16"><a xlink:title=" ">
<polygon fill="white" stroke="#bfbfbf" points="0,-168.5 0,-187.5 72,-187.5 72,-168.5 0,-168.5"/>
<text text-anchor="middle" x="36" y="-175.5" font-family="FreeSans" font-size="10.00">sys/types.h</text>
</a>
</g>
</g>
<!-- Node2&#45;&gt;Node17 -->
<g id="edge15" class="edge">
<title>Node2&#45;&gt;Node17</title>
<path fill="none" stroke="midnightblue" d="M616.18,-231.26C517.95,-227.26 286.23,-215.67 82.28,-188.02"/>
<polygon fill="midnightblue" stroke="midnightblue" points="82.67,-184.54 72.29,-186.65 81.72,-191.47 82.67,-184.54"/>
</g>
<!-- Node18 -->
<g id="node17" class="node">
<title>Node18</title>
<g id="a_node17"><a xlink:title=" ">
<polygon fill="white" stroke="#bfbfbf" points="90,-168.5 90,-187.5 154,-187.5 154,-168.5 90,-168.5"/>
<text text-anchor="middle" x="122" y="-175.5" font-family="FreeSans" font-size="10.00">sys/stat.h</text>
</a>
</g>
</g>
<!-- Node2&#45;&gt;Node18 -->
<g id="edge16" class="edge">
<title>Node2&#45;&gt;Node18</title>
<path fill="none" stroke="midnightblue" d="M616.44,-230.74C528.85,-226.13 336.03,-213.97 164.14,-187.99"/>
<polygon fill="midnightblue" stroke="midnightblue" points="164.57,-184.52 154.16,-186.46 163.51,-191.43 164.57,-184.52"/>
</g>
<!-- Node34&#45;&gt;Node29 -->
<g id="edge20" class="edge">
<title>Node34&#45;&gt;Node29</title>
<path fill="none" stroke="midnightblue" d="M2047.63,-112.44C2013.74,-103.2 1959.6,-88.44 1922.28,-78.26"/>
<polygon fill="midnightblue" stroke="midnightblue" points="1922.8,-74.77 1912.23,-75.52 1920.95,-81.52 1922.8,-74.77"/>
</g>
<!-- Node29&#45;&gt;Node30 -->
<g id="edge21" class="edge">
<title>Node29&#45;&gt;Node30</title>
<path fill="none" stroke="midnightblue" d="M1895.94,-56.32C1910.59,-47.82 1933.13,-34.73 1950.24,-24.8"/>
<polygon fill="midnightblue" stroke="midnightblue" points="1952.2,-27.7 1959.1,-19.65 1948.69,-21.65 1952.2,-27.7"/>
</g>
<!-- Node52&#45;&gt;Node27 -->
<g id="edge23" class="edge">
<title>Node52&#45;&gt;Node27</title>
<path fill="none" stroke="midnightblue" d="M2098.55,-280.44C2073.87,-271.44 2034.81,-257.19 2007.02,-247.05"/>
<polygon fill="midnightblue" stroke="midnightblue" points="2007.94,-243.66 1997.34,-243.52 2005.54,-250.23 2007.94,-243.66"/>
</g>
<!-- Node27&#45;&gt;Node34 -->
<g id="edge25" class="edge">
<title>Node27&#45;&gt;Node34</title>
<path fill="none" stroke="midnightblue" d="M1981.12,-224.35C1991.67,-211.66 2012.22,-187.42 2031,-168 2040.83,-157.84 2052.37,-146.99 2061.67,-138.49"/>
<polygon fill="midnightblue" stroke="midnightblue" points="2064.11,-141 2069.17,-131.7 2059.41,-135.81 2064.11,-141"/>
</g>
<!-- Node27&#45;&gt;Node29 -->
<g id="edge26" class="edge">
<title>Node27&#45;&gt;Node29</title>
<path fill="none" stroke="midnightblue" d="M1969,-224.08C1954.23,-197.72 1910.62,-119.88 1890.89,-84.66"/>
<polygon fill="midnightblue" stroke="midnightblue" points="1893.74,-82.58 1885.8,-75.57 1887.63,-86 1893.74,-82.58"/>
</g>
<!-- Node27&#45;&gt;Node30 -->
<g id="edge24" class="edge">
<title>Node27&#45;&gt;Node30</title>
<path fill="none" stroke="midnightblue" d="M1974,-224.3C1974,-191.63 1974,-75.87 1974,-29.96"/>
<polygon fill="midnightblue" stroke="midnightblue" points="1977.5,-29.88 1974,-19.88 1970.5,-29.88 1977.5,-29.88"/>
</g>
<!-- Node27&#45;&gt;Node48 -->
<g id="edge27" class="edge">
<title>Node27&#45;&gt;Node48</title>
<path fill="none" stroke="midnightblue" d="M1993.17,-224.44C2012.91,-215.64 2043.89,-201.81 2066.49,-191.72"/>
<polygon fill="midnightblue" stroke="midnightblue" points="2068.21,-194.79 2075.92,-187.52 2065.36,-188.4 2068.21,-194.79"/>
</g>
<!-- Node27&#45;&gt;Node33 -->
<g id="edge29" class="edge">
<title>Node27&#45;&gt;Node33</title>
<path fill="none" stroke="midnightblue" d="M1937.04,-224.46C1880.37,-211.5 1768.54,-186.42 1673,-168 1604.77,-154.85 1526.26,-141.77 1472.51,-133.13"/>
<polygon fill="midnightblue" stroke="midnightblue" points="1472.86,-129.64 1462.43,-131.52 1471.75,-136.56 1472.86,-129.64"/>
</g>
<!-- Node48&#45;&gt;Node34 -->
<g id="edge28" class="edge">
<title>Node48&#45;&gt;Node34</title>
<path fill="none" stroke="midnightblue" d="M2092.36,-168.08C2090.21,-160.85 2087.12,-150.41 2084.45,-141.4"/>
<polygon fill="midnightblue" stroke="midnightblue" points="2087.79,-140.34 2081.59,-131.75 2081.08,-142.33 2087.79,-140.34"/>
</g>
<!-- Node53&#45;&gt;Node27 -->
<g id="edge31" class="edge">
<title>Node53&#45;&gt;Node27</title>
<path fill="none" stroke="midnightblue" d="M1827.67,-343.11C1865.86,-338.88 1913.23,-327.78 1946,-300 1959.89,-288.22 1967.08,-268.29 1970.68,-253.6"/>
<polygon fill="midnightblue" stroke="midnightblue" points="1974.15,-254.11 1972.77,-243.61 1967.29,-252.67 1974.15,-254.11"/>
</g>
<!-- Node53&#45;&gt;Node55 -->
<g id="edge32" class="edge">
<title>Node53&#45;&gt;Node55</title>
<path fill="none" stroke="midnightblue" d="M1779.42,-336.32C1794.54,-327.82 1817.82,-314.73 1835.47,-304.8"/>
<polygon fill="midnightblue" stroke="midnightblue" points="1837.61,-307.61 1844.61,-299.65 1834.18,-301.51 1837.61,-307.61"/>
</g>
<!-- Node53&#45;&gt;Node56 -->
<g id="edge46" class="edge">
<title>Node53&#45;&gt;Node56</title>
<path fill="none" stroke="midnightblue" d="M1761.83,-336.1C1758.19,-322.66 1749.76,-296.97 1735,-280 1723.33,-266.59 1706.68,-255.83 1692.33,-248.2"/>
<polygon fill="midnightblue" stroke="midnightblue" points="1693.81,-245.02 1683.31,-243.64 1690.66,-251.27 1693.81,-245.02"/>
</g>
<!-- Node53&#45;&gt;Node62 -->
<g id="edge39" class="edge">
<title>Node53&#45;&gt;Node62</title>
<path fill="none" stroke="midnightblue" d="M1705.06,-336.44C1638.66,-326.81 1530.9,-311.16 1460.74,-300.98"/>
<polygon fill="midnightblue" stroke="midnightblue" points="1461.07,-297.49 1450.67,-299.52 1460.06,-304.42 1461.07,-297.49"/>
</g>
<!-- Node55&#45;&gt;Node29 -->
<g id="edge34" class="edge">
<title>Node55&#45;&gt;Node29</title>
<path fill="none" stroke="midnightblue" d="M1860.82,-280.3C1863.91,-247.63 1874.86,-131.87 1879.21,-85.96"/>
<polygon fill="midnightblue" stroke="midnightblue" points="1882.7,-86.17 1880.16,-75.88 1875.73,-85.51 1882.7,-86.17"/>
</g>
<!-- Node55&#45;&gt;Node27 -->
<g id="edge33" class="edge">
<title>Node55&#45;&gt;Node27</title>
<path fill="none" stroke="midnightblue" d="M1878.06,-280.44C1896.57,-271.68 1925.58,-257.94 1946.86,-247.86"/>
<polygon fill="midnightblue" stroke="midnightblue" points="1948.48,-250.96 1956.02,-243.52 1945.49,-244.63 1948.48,-250.96"/>
</g>
<!-- Node55&#45;&gt;Node56 -->
<g id="edge35" class="edge">
<title>Node55&#45;&gt;Node56</title>
<path fill="none" stroke="midnightblue" d="M1828.78,-280.44C1795.07,-271.2 1741.2,-256.44 1704.07,-246.26"/>
<polygon fill="midnightblue" stroke="midnightblue" points="1704.64,-242.78 1694.07,-243.52 1702.79,-249.54 1704.64,-242.78"/>
</g>
<!-- Node56&#45;&gt;Node11 -->
<g id="edge36" class="edge">
<title>Node56&#45;&gt;Node11</title>
<path fill="none" stroke="midnightblue" d="M1614.2,-224.44C1552.05,-213.55 1446.12,-194.98 1390.89,-185.29"/>
<polygon fill="midnightblue" stroke="midnightblue" points="1391.32,-181.81 1380.87,-183.54 1390.11,-188.71 1391.32,-181.81"/>
</g>
<!-- Node56&#45;&gt;Node29 -->
<g id="edge38" class="edge">
<title>Node56&#45;&gt;Node29</title>
<path fill="none" stroke="midnightblue" d="M1674.41,-224.31C1709.73,-197.42 1817.5,-115.35 1861.74,-81.67"/>
<polygon fill="midnightblue" stroke="midnightblue" points="1863.86,-84.45 1869.7,-75.61 1859.62,-78.88 1863.86,-84.45"/>
</g>
<!-- Node56&#45;&gt;Node57 -->
<g id="edge37" class="edge">
<title>Node56&#45;&gt;Node57</title>
<path fill="none" stroke="midnightblue" d="M1656.06,-224.08C1650.07,-216.38 1641.25,-205.03 1633.95,-195.65"/>
<polygon fill="midnightblue" stroke="midnightblue" points="1636.71,-193.5 1627.81,-187.75 1631.18,-197.79 1636.71,-193.5"/>
</g>
<!-- Node62&#45;&gt;Node45 -->
<g id="edge40" class="edge">
<title>Node62&#45;&gt;Node45</title>
<path fill="none" stroke="midnightblue" d="M1357.3,-280.44C1319.42,-271.1 1258.65,-256.12 1217.34,-245.93"/>
<polygon fill="midnightblue" stroke="midnightblue" points="1218.09,-242.51 1207.54,-243.52 1216.41,-249.31 1218.09,-242.51"/>
</g>
<!-- Node45&#45;&gt;Node5 -->
<g id="edge41" class="edge">
<title>Node45&#45;&gt;Node5</title>
<path fill="none" stroke="midnightblue" d="M1172.76,-224.37C1172.28,-206.62 1171.16,-165.67 1170.51,-141.6"/>
<polygon fill="midnightblue" stroke="midnightblue" points="1174.01,-141.49 1170.23,-131.59 1167.01,-141.68 1174.01,-141.49"/>
</g>
<!-- Node45&#45;&gt;Node12 -->
<g id="edge42" class="edge">
<title>Node45&#45;&gt;Node12</title>
<path fill="none" stroke="midnightblue" d="M1163.92,-224.08C1155.83,-216.14 1143.8,-204.34 1134.09,-194.8"/>
<polygon fill="midnightblue" stroke="midnightblue" points="1136.5,-192.26 1126.91,-187.75 1131.6,-197.25 1136.5,-192.26"/>
</g>
<!-- Node45&#45;&gt;Node32 -->
<g id="edge43" class="edge">
<title>Node45&#45;&gt;Node32</title>
<path fill="none" stroke="midnightblue" d="M1186.17,-224.32C1198.85,-215.98 1218.23,-203.21 1233.21,-193.35"/>
<polygon fill="midnightblue" stroke="midnightblue" points="1235.43,-196.08 1241.86,-187.65 1231.58,-190.23 1235.43,-196.08"/>
</g>
<!-- Node32&#45;&gt;Node5 -->
<g id="edge44" class="edge">
<title>Node32&#45;&gt;Node5</title>
<path fill="none" stroke="midnightblue" d="M1241.34,-168.32C1228.08,-159.9 1207.73,-146.97 1192.15,-137.07"/>
<polygon fill="midnightblue" stroke="midnightblue" points="1193.94,-134.06 1183.62,-131.65 1190.19,-139.97 1193.94,-134.06"/>
</g>
<!-- Node32&#45;&gt;Node33 -->
<g id="edge45" class="edge">
<title>Node32&#45;&gt;Node33</title>
<path fill="none" stroke="midnightblue" d="M1279.24,-168.44C1304.87,-159.4 1345.49,-145.06 1374.24,-134.92"/>
<polygon fill="midnightblue" stroke="midnightblue" points="1375.61,-138.15 1383.87,-131.52 1373.28,-131.54 1375.61,-138.15"/>
</g>
<!-- Node65&#45;&gt;Node27 -->
<g id="edge50" class="edge">
<title>Node65&#45;&gt;Node27</title>
<path fill="none" stroke="midnightblue" d="M1965.88,-336.37C1970.56,-327.55 1977.31,-313.3 1980,-300 1983.1,-284.71 1981.13,-267.07 1978.64,-254.02"/>
<polygon fill="midnightblue" stroke="midnightblue" points="1981.99,-252.95 1976.45,-243.92 1975.15,-254.43 1981.99,-252.95"/>
</g>
<!-- Node65&#45;&gt;Node66 -->
<g id="edge51" class="edge">
<title>Node65&#45;&gt;Node66</title>
<path fill="none" stroke="midnightblue" d="M1913.78,-336.44C1861.25,-326.92 1776.39,-311.55 1720.15,-301.36"/>
<polygon fill="midnightblue" stroke="midnightblue" points="1720.46,-297.86 1710,-299.52 1719.21,-304.74 1720.46,-297.86"/>
</g>
<!-- Node66&#45;&gt;Node27 -->
<g id="edge52" class="edge">
<title>Node66&#45;&gt;Node27</title>
<path fill="none" stroke="midnightblue" d="M1712.28,-280.44C1767.7,-270.82 1857.6,-255.21 1916.27,-245.02"/>
<polygon fill="midnightblue" stroke="midnightblue" points="1917.23,-248.41 1926.48,-243.25 1916.03,-241.51 1917.23,-248.41"/>
</g>
<!-- Node66&#45;&gt;Node56 -->
<g id="edge56" class="edge">
<title>Node66&#45;&gt;Node56</title>
<path fill="none" stroke="midnightblue" d="M1663,-280.08C1663,-273.01 1663,-262.86 1663,-253.99"/>
<polygon fill="midnightblue" stroke="midnightblue" points="1666.5,-253.75 1663,-243.75 1659.5,-253.75 1666.5,-253.75"/>
</g>
<!-- Node66&#45;&gt;Node67 -->
<g id="edge53" class="edge">
<title>Node66&#45;&gt;Node67</title>
<path fill="none" stroke="midnightblue" d="M1599.61,-284.9C1497.44,-278.05 1290.08,-263.11 1115,-244 1114.9,-243.99 1114.79,-243.98 1114.69,-243.97"/>
<polygon fill="midnightblue" stroke="midnightblue" points="1115.12,-240.49 1104.79,-242.82 1114.32,-247.45 1115.12,-240.49"/>
</g>
<!-- Node67&#45;&gt;Node9 -->
<g id="edge54" class="edge">
<title>Node67&#45;&gt;Node9</title>
<path fill="none" stroke="midnightblue" d="M1037.27,-224.32C1026.16,-216.11 1009.26,-203.6 996.02,-193.81"/>
<polygon fill="midnightblue" stroke="midnightblue" points="998.06,-190.97 987.94,-187.83 993.9,-196.59 998.06,-190.97"/>
</g>
<!-- Node67&#45;&gt;Node15 -->
<g id="edge55" class="edge">
<title>Node67&#45;&gt;Node15</title>
<path fill="none" stroke="midnightblue" d="M1048.83,-224.08C1048.7,-217.01 1048.52,-206.86 1048.35,-197.99"/>
<polygon fill="midnightblue" stroke="midnightblue" points="1051.85,-197.68 1048.16,-187.75 1044.85,-197.81 1051.85,-197.68"/>
</g>
<!-- Node74&#45;&gt;Node76 -->
<g id="edge73" class="edge">
<title>Node74&#45;&gt;Node76</title>
<path fill="none" stroke="midnightblue" d="M2513.17,-336.08C2512.52,-329.01 2511.58,-318.86 2510.76,-309.99"/>
<polygon fill="midnightblue" stroke="midnightblue" points="2514.22,-309.39 2509.81,-299.75 2507.25,-310.03 2514.22,-309.39"/>
</g>
<!-- Node76&#45;&gt;Node25 -->
<g id="edge74" class="edge">
<title>Node76&#45;&gt;Node25</title>
<path fill="none" stroke="midnightblue" d="M2496.63,-280.32C2484.84,-272.06 2466.87,-259.45 2452.86,-249.63"/>
<polygon fill="midnightblue" stroke="midnightblue" points="2454.54,-246.53 2444.34,-243.65 2450.52,-252.26 2454.54,-246.53"/>
</g>
<!-- Node76&#45;&gt;Node77 -->
<g id="edge75" class="edge">
<title>Node76&#45;&gt;Node77</title>
<path fill="none" stroke="midnightblue" d="M2517.75,-280.08C2525.47,-272.22 2536.9,-260.57 2546.22,-251.08"/>
<polygon fill="midnightblue" stroke="midnightblue" points="2548.9,-253.34 2553.41,-243.75 2543.91,-248.44 2548.9,-253.34"/>
</g>
</g>
</svg>
