<?xml version="1.0" encoding="UTF-8" standalone="no"?>
<!DOCTYPE svg PUBLIC "-//W3C//DTD SVG 1.1//EN"
 "http://www.w3.org/Graphics/SVG/1.1/DTD/svg11.dtd">
<!-- Generated by graphviz version 2.43.0 (0)
 -->
<!-- Title: distribute&#45;cache.h Pages: 1 -->
<svg width="202pt" height="140pt"
 viewBox="0.00 0.00 201.50 140.00" xmlns="http://www.w3.org/2000/svg" xmlns:xlink="http://www.w3.org/1999/xlink">
<g id="graph0" class="graph" transform="scale(1 1) rotate(0) translate(4 136)">
<title>distribute&#45;cache.h</title>
<polygon fill="white" stroke="transparent" points="-4,4 -4,-136 197.5,-136 197.5,4 -4,4"/>
<!-- Node1 -->
<g id="node1" class="node">
<title>Node1</title>
<g id="a_node1"><a xlink:title=" ">
<polygon fill="#bfbfbf" stroke="black" points="29,-112.5 29,-131.5 133,-131.5 133,-112.5 29,-112.5"/>
<text text-anchor="middle" x="81" y="-119.5" font-family="FreeSans" font-size="10.00">distribute&#45;cache.h</text>
</a>
</g>
</g>
<!-- Node2 -->
<g id="node2" class="node">
<title>Node2</title>
<g id="a_node2"><a xlink:href="exception_8h.html" target="_top" xlink:title=" ">
<polygon fill="white" stroke="black" points="24.5,-56.5 24.5,-75.5 137.5,-75.5 137.5,-56.5 24.5,-56.5"/>
<text text-anchor="middle" x="81" y="-63.5" font-family="FreeSans" font-size="10.00">magick/exception.h</text>
</a>
</g>
</g>
<!-- Node1&#45;&gt;Node2 -->
<g id="edge1" class="edge">
<title>Node1&#45;&gt;Node2</title>
<path fill="none" stroke="midnightblue" d="M81,-112.08C81,-105.01 81,-94.86 81,-85.99"/>
<polygon fill="midnightblue" stroke="midnightblue" points="84.5,-85.75 81,-75.75 77.5,-85.75 84.5,-85.75"/>
</g>
<!-- Node3 -->
<g id="node3" class="node">
<title>Node3</title>
<g id="a_node3"><a xlink:title=" ">
<polygon fill="white" stroke="#bfbfbf" points="0,-0.5 0,-19.5 56,-19.5 56,-0.5 0,-0.5"/>
<text text-anchor="middle" x="28" y="-7.5" font-family="FreeSans" font-size="10.00">stdarg.h</text>
</a>
</g>
</g>
<!-- Node2&#45;&gt;Node3 -->
<g id="edge2" class="edge">
<title>Node2&#45;&gt;Node3</title>
<path fill="none" stroke="midnightblue" d="M72.25,-56.08C64.53,-48.22 53.1,-36.57 43.78,-27.08"/>
<polygon fill="midnightblue" stroke="midnightblue" points="46.09,-24.44 36.59,-19.75 41.1,-29.34 46.09,-24.44"/>
</g>
<!-- Node4 -->
<g id="node4" class="node">
<title>Node4</title>
<g id="a_node4"><a xlink:href="semaphore_8h.html" target="_top" xlink:title=" ">
<polygon fill="white" stroke="black" points="74.5,-0.5 74.5,-19.5 193.5,-19.5 193.5,-0.5 74.5,-0.5"/>
<text text-anchor="middle" x="134" y="-7.5" font-family="FreeSans" font-size="10.00">magick/semaphore.h</text>
</a>
</g>
</g>
<!-- Node2&#45;&gt;Node4 -->
<g id="edge3" class="edge">
<title>Node2&#45;&gt;Node4</title>
<path fill="none" stroke="midnightblue" d="M89.75,-56.08C97.47,-48.22 108.9,-36.57 118.22,-27.08"/>
<polygon fill="midnightblue" stroke="midnightblue" points="120.9,-29.34 125.41,-19.75 115.91,-24.44 120.9,-29.34"/>
</g>
</g>
</svg>
