<?xml version="1.0" encoding="UTF-8" standalone="no"?>
<!DOCTYPE svg PUBLIC "-//W3C//DTD SVG 1.1//EN"
 "http://www.w3.org/Graphics/SVG/1.1/DTD/svg11.dtd">
<!-- Generated by graphviz version 2.43.0 (0)
 -->
<!-- Title: distribute&#45;cache.h Pages: 1 -->
<svg width="1769pt" height="140pt"
 viewBox="0.00 0.00 1768.50 140.00" xmlns="http://www.w3.org/2000/svg" xmlns:xlink="http://www.w3.org/1999/xlink">
<g id="graph0" class="graph" transform="scale(1 1) rotate(0) translate(4 136)">
<title>distribute&#45;cache.h</title>
<polygon fill="white" stroke="transparent" points="-4,4 -4,-136 1764.5,-136 1764.5,4 -4,4"/>
<!-- Node1 -->
<g id="node1" class="node">
<title>Node1</title>
<g id="a_node1"><a xlink:title=" ">
<polygon fill="#bfbfbf" stroke="black" points="269,-112.5 269,-131.5 373,-131.5 373,-112.5 269,-112.5"/>
<text text-anchor="middle" x="321" y="-119.5" font-family="FreeSans" font-size="10.00">distribute&#45;cache.h</text>
</a>
</g>
</g>
<!-- Node2 -->
<g id="node2" class="node">
<title>Node2</title>
<g id="a_node2"><a xlink:href="MagickCore_8h.html" target="_top" xlink:title=" ">
<polygon fill="white" stroke="black" points="129.5,-56.5 129.5,-75.5 212.5,-75.5 212.5,-56.5 129.5,-56.5"/>
<text text-anchor="middle" x="171" y="-63.5" font-family="FreeSans" font-size="10.00">MagickCore.h</text>
</a>
</g>
</g>
<!-- Node1&#45;&gt;Node2 -->
<g id="edge1" class="edge">
<title>Node1&#45;&gt;Node2</title>
<path fill="none" stroke="midnightblue" d="M287.78,-109.04C259.55,-98.88 219.74,-84.55 194.66,-75.52"/>
<polygon fill="midnightblue" stroke="midnightblue" points="286.64,-112.35 297.23,-112.44 289.01,-105.76 286.64,-112.35"/>
</g>
<!-- Node6 -->
<g id="node6" class="node">
<title>Node6</title>
<g id="a_node6"><a xlink:href="cache-private_8h.html" target="_top" xlink:title=" ">
<polygon fill="white" stroke="black" points="979,-56.5 979,-75.5 1071,-75.5 1071,-56.5 979,-56.5"/>
<text text-anchor="middle" x="1025" y="-63.5" font-family="FreeSans" font-size="10.00">cache&#45;private.h</text>
</a>
</g>
</g>
<!-- Node1&#45;&gt;Node6 -->
<g id="edge5" class="edge">
<title>Node1&#45;&gt;Node6</title>
<path fill="none" stroke="midnightblue" d="M383.12,-116.23C522.23,-105.56 856.13,-79.95 978.79,-70.54"/>
<polygon fill="midnightblue" stroke="midnightblue" points="382.76,-112.75 373.05,-117.01 383.29,-119.73 382.76,-112.75"/>
</g>
<!-- Node14 -->
<g id="node14" class="node">
<title>Node14</title>
<g id="a_node14"><a xlink:href="distribute-cache_8c.html" target="_top" xlink:title=" ">
<polygon fill="white" stroke="black" points="269,-0.5 269,-19.5 373,-19.5 373,-0.5 269,-0.5"/>
<text text-anchor="middle" x="321" y="-7.5" font-family="FreeSans" font-size="10.00">distribute&#45;cache.c</text>
</a>
</g>
</g>
<!-- Node1&#45;&gt;Node14 -->
<g id="edge24" class="edge">
<title>Node1&#45;&gt;Node14</title>
<path fill="none" stroke="midnightblue" d="M321,-102.35C321,-78.25 321,-37.31 321,-19.59"/>
<polygon fill="midnightblue" stroke="midnightblue" points="317.5,-102.37 321,-112.37 324.5,-102.37 317.5,-102.37"/>
</g>
<!-- Node3 -->
<g id="node3" class="node">
<title>Node3</title>
<g id="a_node3"><a xlink:href="ImageMagick_8h.html" target="_top" xlink:title=" ">
<polygon fill="white" stroke="black" points="0,-0.5 0,-19.5 92,-19.5 92,-0.5 0,-0.5"/>
<text text-anchor="middle" x="46" y="-7.5" font-family="FreeSans" font-size="10.00">ImageMagick.h</text>
</a>
</g>
</g>
<!-- Node2&#45;&gt;Node3 -->
<g id="edge2" class="edge">
<title>Node2&#45;&gt;Node3</title>
<path fill="none" stroke="midnightblue" d="M141.76,-52.37C118.35,-42.26 86.16,-28.35 65.71,-19.52"/>
<polygon fill="midnightblue" stroke="midnightblue" points="140.63,-55.69 151.19,-56.44 143.4,-49.26 140.63,-55.69"/>
</g>
<!-- Node4 -->
<g id="node4" class="node">
<title>Node4</title>
<g id="a_node4"><a xlink:href="api_8h.html" target="_top" xlink:title=" ">
<polygon fill="white" stroke="black" points="110.5,-0.5 110.5,-19.5 151.5,-19.5 151.5,-0.5 110.5,-0.5"/>
<text text-anchor="middle" x="131" y="-7.5" font-family="FreeSans" font-size="10.00">api.h</text>
</a>
</g>
</g>
<!-- Node2&#45;&gt;Node4 -->
<g id="edge3" class="edge">
<title>Node2&#45;&gt;Node4</title>
<path fill="none" stroke="midnightblue" d="M158.3,-47.86C151.37,-38.5 143.09,-27.33 137.48,-19.75"/>
<polygon fill="midnightblue" stroke="midnightblue" points="155.63,-50.13 164.39,-56.08 161.25,-45.96 155.63,-50.13"/>
</g>
<!-- Node5 -->
<g id="node5" class="node">
<title>Node5</title>
<g id="a_node5"><a xlink:href="image-view_8c.html" target="_top" xlink:title=" ">
<polygon fill="white" stroke="black" points="169.5,-0.5 169.5,-19.5 250.5,-19.5 250.5,-0.5 169.5,-0.5"/>
<text text-anchor="middle" x="210" y="-7.5" font-family="FreeSans" font-size="10.00">image&#45;view.c</text>
</a>
</g>
</g>
<!-- Node2&#45;&gt;Node5 -->
<g id="edge4" class="edge">
<title>Node2&#45;&gt;Node5</title>
<path fill="none" stroke="midnightblue" d="M183.38,-47.86C190.14,-38.5 198.21,-27.33 203.68,-19.75"/>
<polygon fill="midnightblue" stroke="midnightblue" points="180.46,-45.93 177.44,-56.08 186.13,-50.03 180.46,-45.93"/>
</g>
<!-- Node7 -->
<g id="node7" class="node">
<title>Node7</title>
<g id="a_node7"><a xlink:href="accelerate_8c.html" target="_top" xlink:title=" ">
<polygon fill="white" stroke="black" points="391,-0.5 391,-19.5 467,-19.5 467,-0.5 391,-0.5"/>
<text text-anchor="middle" x="429" y="-7.5" font-family="FreeSans" font-size="10.00">accelerate.c</text>
</a>
</g>
</g>
<!-- Node6&#45;&gt;Node7 -->
<g id="edge6" class="edge">
<title>Node6&#45;&gt;Node7</title>
<path fill="none" stroke="midnightblue" d="M968.76,-62.39C869.11,-57.32 655.14,-44.42 476,-20 473.12,-19.61 470.15,-19.15 467.16,-18.66"/>
<polygon fill="midnightblue" stroke="midnightblue" points="968.74,-65.89 978.91,-62.9 969.1,-58.9 968.74,-65.89"/>
</g>
<!-- Node8 -->
<g id="node8" class="node">
<title>Node8</title>
<g id="a_node8"><a xlink:href="annotate_8c.html" target="_top" xlink:title=" ">
<polygon fill="white" stroke="black" points="485,-0.5 485,-19.5 553,-19.5 553,-0.5 485,-0.5"/>
<text text-anchor="middle" x="519" y="-7.5" font-family="FreeSans" font-size="10.00">annotate.c</text>
</a>
</g>
</g>
<!-- Node6&#45;&gt;Node8 -->
<g id="edge7" class="edge">
<title>Node6&#45;&gt;Node8</title>
<path fill="none" stroke="midnightblue" d="M968.69,-61.42C881.45,-55.45 708.5,-41.9 563,-20 559.76,-19.51 556.4,-18.94 553.05,-18.33"/>
<polygon fill="midnightblue" stroke="midnightblue" points="968.69,-64.93 978.9,-62.11 969.16,-57.95 968.69,-64.93"/>
</g>
<!-- Node9 -->
<g id="node9" class="node">
<title>Node9</title>
<g id="a_node9"><a xlink:href="attribute_8c.html" target="_top" xlink:title=" ">
<polygon fill="white" stroke="black" points="571.5,-0.5 571.5,-19.5 638.5,-19.5 638.5,-0.5 571.5,-0.5"/>
<text text-anchor="middle" x="605" y="-7.5" font-family="FreeSans" font-size="10.00">attribute.c</text>
</a>
</g>
</g>
<!-- Node6&#45;&gt;Node9 -->
<g id="edge8" class="edge">
<title>Node6&#45;&gt;Node9</title>
<path fill="none" stroke="midnightblue" d="M968.96,-59.86C895.13,-52.73 761.38,-38.6 648,-20 644.99,-19.51 641.87,-18.95 638.75,-18.35"/>
<polygon fill="midnightblue" stroke="midnightblue" points="968.68,-63.35 978.97,-60.82 969.35,-56.38 968.68,-63.35"/>
</g>
<!-- Node10 -->
<g id="node10" class="node">
<title>Node10</title>
<g id="a_node10"><a xlink:href="cache-view_8c.html" target="_top" xlink:title=" ">
<polygon fill="white" stroke="black" points="656.5,-0.5 656.5,-19.5 735.5,-19.5 735.5,-0.5 656.5,-0.5"/>
<text text-anchor="middle" x="696" y="-7.5" font-family="FreeSans" font-size="10.00">cache&#45;view.c</text>
</a>
</g>
</g>
<!-- Node6&#45;&gt;Node10 -->
<g id="edge9" class="edge">
<title>Node6&#45;&gt;Node10</title>
<path fill="none" stroke="midnightblue" d="M968.7,-56.33C912.11,-47.53 822.42,-33.33 745,-20 741.93,-19.47 738.76,-18.91 735.57,-18.35"/>
<polygon fill="midnightblue" stroke="midnightblue" points="968.45,-59.83 978.87,-57.91 969.53,-52.92 968.45,-59.83"/>
</g>
<!-- Node11 -->
<g id="node11" class="node">
<title>Node11</title>
<g id="a_node11"><a xlink:href="cache_8c.html" target="_top" xlink:title=" ">
<polygon fill="white" stroke="black" points="753.5,-0.5 753.5,-19.5 806.5,-19.5 806.5,-0.5 753.5,-0.5"/>
<text text-anchor="middle" x="780" y="-7.5" font-family="FreeSans" font-size="10.00">cache.c</text>
</a>
</g>
</g>
<!-- Node6&#45;&gt;Node11 -->
<g id="edge10" class="edge">
<title>Node6&#45;&gt;Node11</title>
<path fill="none" stroke="midnightblue" d="M973.47,-54.4C931.1,-45.56 869.55,-32.45 816,-20 812.99,-19.3 809.84,-18.55 806.71,-17.78"/>
<polygon fill="midnightblue" stroke="midnightblue" points="972.77,-57.83 983.27,-56.44 974.2,-50.97 972.77,-57.83"/>
</g>
<!-- Node12 -->
<g id="node12" class="node">
<title>Node12</title>
<g id="a_node12"><a xlink:href="channel_8c.html" target="_top" xlink:title=" ">
<polygon fill="white" stroke="black" points="824.5,-0.5 824.5,-19.5 887.5,-19.5 887.5,-0.5 824.5,-0.5"/>
<text text-anchor="middle" x="856" y="-7.5" font-family="FreeSans" font-size="10.00">channel.c</text>
</a>
</g>
</g>
<!-- Node6&#45;&gt;Node12 -->
<g id="edge11" class="edge">
<title>Node6&#45;&gt;Node12</title>
<path fill="none" stroke="midnightblue" d="M988.4,-53.3C956.55,-43.13 911.16,-28.62 882.65,-19.52"/>
<polygon fill="midnightblue" stroke="midnightblue" points="987.63,-56.73 998.22,-56.44 989.76,-50.07 987.63,-56.73"/>
</g>
<!-- Node13 -->
<g id="node13" class="node">
<title>Node13</title>
<g id="a_node13"><a xlink:href="colorspace_8c.html" target="_top" xlink:title=" ">
<polygon fill="white" stroke="black" points="905.5,-0.5 905.5,-19.5 982.5,-19.5 982.5,-0.5 905.5,-0.5"/>
<text text-anchor="middle" x="944" y="-7.5" font-family="FreeSans" font-size="10.00">colorspace.c</text>
</a>
</g>
</g>
<!-- Node6&#45;&gt;Node13 -->
<g id="edge12" class="edge">
<title>Node6&#45;&gt;Node13</title>
<path fill="none" stroke="midnightblue" d="M1003.43,-50.62C988.64,-40.76 969.49,-27.99 956.98,-19.65"/>
<polygon fill="midnightblue" stroke="midnightblue" points="1001.72,-53.69 1011.99,-56.32 1005.61,-47.86 1001.72,-53.69"/>
</g>
<!-- Node6&#45;&gt;Node14 -->
<g id="edge13" class="edge">
<title>Node6&#45;&gt;Node14</title>
<path fill="none" stroke="midnightblue" d="M968.85,-62.52C856.95,-57.26 598.31,-43.49 382,-20 379.13,-19.69 376.18,-19.34 373.21,-18.97"/>
<polygon fill="midnightblue" stroke="midnightblue" points="968.74,-66.02 978.89,-62.99 969.06,-59.03 968.74,-66.02"/>
</g>
<!-- Node15 -->
<g id="node15" class="node">
<title>Node15</title>
<g id="a_node15"><a xlink:href="draw_8c.html" target="_top" xlink:title=" ">
<polygon fill="white" stroke="black" points="1001,-0.5 1001,-19.5 1049,-19.5 1049,-0.5 1001,-0.5"/>
<text text-anchor="middle" x="1025" y="-7.5" font-family="FreeSans" font-size="10.00">draw.c</text>
</a>
</g>
</g>
<!-- Node6&#45;&gt;Node15 -->
<g id="edge14" class="edge">
<title>Node6&#45;&gt;Node15</title>
<path fill="none" stroke="midnightblue" d="M1025,-45.8C1025,-36.91 1025,-26.78 1025,-19.75"/>
<polygon fill="midnightblue" stroke="midnightblue" points="1021.5,-46.08 1025,-56.08 1028.5,-46.08 1021.5,-46.08"/>
</g>
<!-- Node16 -->
<g id="node16" class="node">
<title>Node16</title>
<g id="a_node16"><a xlink:href="feature_8c.html" target="_top" xlink:title=" ">
<polygon fill="white" stroke="black" points="1067,-0.5 1067,-19.5 1127,-19.5 1127,-0.5 1067,-0.5"/>
<text text-anchor="middle" x="1097" y="-7.5" font-family="FreeSans" font-size="10.00">feature.c</text>
</a>
</g>
</g>
<!-- Node6&#45;&gt;Node16 -->
<g id="edge15" class="edge">
<title>Node6&#45;&gt;Node16</title>
<path fill="none" stroke="midnightblue" d="M1044.87,-50.1C1057.82,-40.38 1074.3,-28.03 1085.22,-19.83"/>
<polygon fill="midnightblue" stroke="midnightblue" points="1042.47,-47.52 1036.57,-56.32 1046.67,-53.12 1042.47,-47.52"/>
</g>
<!-- Node17 -->
<g id="node17" class="node">
<title>Node17</title>
<g id="a_node17"><a xlink:href="image_8c.html" target="_top" xlink:title=" ">
<polygon fill="white" stroke="black" points="1145,-0.5 1145,-19.5 1201,-19.5 1201,-0.5 1145,-0.5"/>
<text text-anchor="middle" x="1173" y="-7.5" font-family="FreeSans" font-size="10.00">image.c</text>
</a>
</g>
</g>
<!-- Node6&#45;&gt;Node17 -->
<g id="edge16" class="edge">
<title>Node6&#45;&gt;Node17</title>
<path fill="none" stroke="midnightblue" d="M1058.15,-52.91C1085.97,-42.75 1125.02,-28.51 1149.66,-19.52"/>
<polygon fill="midnightblue" stroke="midnightblue" points="1056.65,-49.73 1048.45,-56.44 1059.04,-56.3 1056.65,-49.73"/>
</g>
<!-- Node18 -->
<g id="node18" class="node">
<title>Node18</title>
<g id="a_node18"><a xlink:href="opencl_8c.html" target="_top" xlink:title=" ">
<polygon fill="white" stroke="black" points="1219.5,-0.5 1219.5,-19.5 1276.5,-19.5 1276.5,-0.5 1219.5,-0.5"/>
<text text-anchor="middle" x="1248" y="-7.5" font-family="FreeSans" font-size="10.00">opencl.c</text>
</a>
</g>
</g>
<!-- Node6&#45;&gt;Node18 -->
<g id="edge17" class="edge">
<title>Node6&#45;&gt;Node18</title>
<path fill="none" stroke="midnightblue" d="M1070.32,-54.03C1114.86,-43.24 1181.47,-27.11 1219.21,-17.97"/>
<polygon fill="midnightblue" stroke="midnightblue" points="1069.23,-50.69 1060.34,-56.44 1070.88,-57.49 1069.23,-50.69"/>
</g>
<!-- Node19 -->
<g id="node19" class="node">
<title>Node19</title>
<g id="a_node19"><a xlink:href="property_8c.html" target="_top" xlink:title=" ">
<polygon fill="white" stroke="black" points="1294.5,-0.5 1294.5,-19.5 1359.5,-19.5 1359.5,-0.5 1294.5,-0.5"/>
<text text-anchor="middle" x="1327" y="-7.5" font-family="FreeSans" font-size="10.00">property.c</text>
</a>
</g>
</g>
<!-- Node6&#45;&gt;Node19 -->
<g id="edge18" class="edge">
<title>Node6&#45;&gt;Node19</title>
<path fill="none" stroke="midnightblue" d="M1081.52,-56.01C1134.48,-47.42 1215.78,-33.75 1286,-20 1288.72,-19.47 1291.53,-18.9 1294.35,-18.31"/>
<polygon fill="midnightblue" stroke="midnightblue" points="1080.63,-52.61 1071.32,-57.66 1081.75,-59.52 1080.63,-52.61"/>
</g>
<!-- Node20 -->
<g id="node20" class="node">
<title>Node20</title>
<g id="a_node20"><a xlink:href="quantum_8c.html" target="_top" xlink:title=" ">
<polygon fill="white" stroke="black" points="1378,-0.5 1378,-19.5 1446,-19.5 1446,-0.5 1378,-0.5"/>
<text text-anchor="middle" x="1412" y="-7.5" font-family="FreeSans" font-size="10.00">quantum.c</text>
</a>
</g>
</g>
<!-- Node6&#45;&gt;Node20 -->
<g id="edge19" class="edge">
<title>Node6&#45;&gt;Node20</title>
<path fill="none" stroke="midnightblue" d="M1081.18,-58.98C1149.45,-51.36 1268.04,-37.14 1369,-20 1371.86,-19.51 1374.81,-18.98 1377.78,-18.41"/>
<polygon fill="midnightblue" stroke="midnightblue" points="1080.62,-55.52 1071.07,-60.1 1081.4,-62.48 1080.62,-55.52"/>
</g>
<!-- Node21 -->
<g id="node21" class="node">
<title>Node21</title>
<g id="a_node21"><a xlink:href="resource_8c.html" target="_top" xlink:title=" ">
<polygon fill="white" stroke="black" points="1464.5,-0.5 1464.5,-19.5 1531.5,-19.5 1531.5,-0.5 1464.5,-0.5"/>
<text text-anchor="middle" x="1498" y="-7.5" font-family="FreeSans" font-size="10.00">resource.c</text>
</a>
</g>
</g>
<!-- Node6&#45;&gt;Node21 -->
<g id="edge20" class="edge">
<title>Node6&#45;&gt;Node21</title>
<path fill="none" stroke="midnightblue" d="M1081.16,-60.96C1163.49,-54.63 1321.66,-40.88 1455,-20 1458.01,-19.53 1461.14,-18.98 1464.26,-18.4"/>
<polygon fill="midnightblue" stroke="midnightblue" points="1080.72,-57.48 1071.02,-61.73 1081.26,-64.46 1080.72,-57.48"/>
</g>
<!-- Node22 -->
<g id="node22" class="node">
<title>Node22</title>
<g id="a_node22"><a xlink:href="shear_8c.html" target="_top" xlink:title=" ">
<polygon fill="white" stroke="black" points="1549.5,-0.5 1549.5,-19.5 1600.5,-19.5 1600.5,-0.5 1549.5,-0.5"/>
<text text-anchor="middle" x="1575" y="-7.5" font-family="FreeSans" font-size="10.00">shear.c</text>
</a>
</g>
</g>
<!-- Node6&#45;&gt;Node22 -->
<g id="edge21" class="edge">
<title>Node6&#45;&gt;Node22</title>
<path fill="none" stroke="midnightblue" d="M1081.24,-63.26C1176.51,-59.6 1375.4,-48.92 1541,-20 1543.77,-19.52 1546.64,-18.92 1549.48,-18.26"/>
<polygon fill="midnightblue" stroke="midnightblue" points="1081.11,-59.76 1071.25,-63.63 1081.37,-66.75 1081.11,-59.76"/>
</g>
<!-- Node23 -->
<g id="node23" class="node">
<title>Node23</title>
<g id="a_node23"><a xlink:href="statistic_8c.html" target="_top" xlink:title=" ">
<polygon fill="white" stroke="black" points="1619,-0.5 1619,-19.5 1683,-19.5 1683,-0.5 1619,-0.5"/>
<text text-anchor="middle" x="1651" y="-7.5" font-family="FreeSans" font-size="10.00">statistic.c</text>
</a>
</g>
</g>
<!-- Node6&#45;&gt;Node23 -->
<g id="edge22" class="edge">
<title>Node6&#45;&gt;Node23</title>
<path fill="none" stroke="midnightblue" d="M1081.14,-63.28C1185.7,-59.51 1417.14,-48.44 1610,-20 1612.88,-19.57 1615.87,-19.06 1618.85,-18.5"/>
<polygon fill="midnightblue" stroke="midnightblue" points="1081,-59.79 1071.13,-63.64 1081.25,-66.78 1081,-59.79"/>
</g>
<!-- Node24 -->
<g id="node24" class="node">
<title>Node24</title>
<g id="a_node24"><a xlink:href="stream_8c.html" target="_top" xlink:title=" ">
<polygon fill="white" stroke="black" points="1701.5,-0.5 1701.5,-19.5 1760.5,-19.5 1760.5,-0.5 1701.5,-0.5"/>
<text text-anchor="middle" x="1731" y="-7.5" font-family="FreeSans" font-size="10.00">stream.c</text>
</a>
</g>
</g>
<!-- Node6&#45;&gt;Node24 -->
<g id="edge23" class="edge">
<title>Node6&#45;&gt;Node24</title>
<path fill="none" stroke="midnightblue" d="M1081.37,-64.22C1196.65,-61.97 1467.44,-53.27 1692,-20 1695.02,-19.55 1698.16,-18.99 1701.28,-18.37"/>
<polygon fill="midnightblue" stroke="midnightblue" points="1081.3,-60.72 1071.36,-64.41 1081.43,-67.72 1081.3,-60.72"/>
</g>
</g>
</svg>
