<?xml version="1.0" encoding="UTF-8" standalone="no"?>
<!DOCTYPE svg PUBLIC "-//W3C//DTD SVG 1.1//EN"
 "http://www.w3.org/Graphics/SVG/1.1/DTD/svg11.dtd">
<!-- Generated by graphviz version 2.43.0 (0)
 -->
<!-- Title: draw&#45;private.h Pages: 1 -->
<svg width="388pt" height="84pt"
 viewBox="0.00 0.00 388.00 84.00" xmlns="http://www.w3.org/2000/svg" xmlns:xlink="http://www.w3.org/1999/xlink">
<g id="graph0" class="graph" transform="scale(1 1) rotate(0) translate(4 80)">
<title>draw&#45;private.h</title>
<polygon fill="white" stroke="transparent" points="-4,4 -4,-80 384,-80 384,4 -4,4"/>
<!-- Node1 -->
<g id="node1" class="node">
<title>Node1</title>
<g id="a_node1"><a xlink:title=" ">
<polygon fill="#bfbfbf" stroke="black" points="165,-56.5 165,-75.5 253,-75.5 253,-56.5 165,-56.5"/>
<text text-anchor="middle" x="209" y="-63.5" font-family="FreeSans" font-size="10.00">draw&#45;private.h</text>
</a>
</g>
</g>
<!-- Node2 -->
<g id="node2" class="node">
<title>Node2</title>
<g id="a_node2"><a xlink:href="annotate_8c.html" target="_top" xlink:title=" ">
<polygon fill="white" stroke="black" points="0,-0.5 0,-19.5 68,-19.5 68,-0.5 0,-0.5"/>
<text text-anchor="middle" x="34" y="-7.5" font-family="FreeSans" font-size="10.00">annotate.c</text>
</a>
</g>
</g>
<!-- Node1&#45;&gt;Node2 -->
<g id="edge1" class="edge">
<title>Node1&#45;&gt;Node2</title>
<path fill="none" stroke="midnightblue" d="M171.53,-53.44C138.53,-43.26 91.24,-28.66 61.6,-19.52"/>
<polygon fill="midnightblue" stroke="midnightblue" points="170.68,-56.84 181.27,-56.44 172.75,-50.15 170.68,-56.84"/>
</g>
<!-- Node3 -->
<g id="node3" class="node">
<title>Node3</title>
<g id="a_node3"><a xlink:href="attribute_8c.html" target="_top" xlink:title=" ">
<polygon fill="white" stroke="black" points="86.5,-0.5 86.5,-19.5 153.5,-19.5 153.5,-0.5 86.5,-0.5"/>
<text text-anchor="middle" x="120" y="-7.5" font-family="FreeSans" font-size="10.00">attribute.c</text>
</a>
</g>
</g>
<!-- Node1&#45;&gt;Node3 -->
<g id="edge2" class="edge">
<title>Node1&#45;&gt;Node3</title>
<path fill="none" stroke="midnightblue" d="M185.76,-50.9C169.44,-41 148.13,-28.07 134.26,-19.65"/>
<polygon fill="midnightblue" stroke="midnightblue" points="184.34,-54.13 194.7,-56.32 187.97,-48.14 184.34,-54.13"/>
</g>
<!-- Node4 -->
<g id="node4" class="node">
<title>Node4</title>
<g id="a_node4"><a xlink:href="deprecate_8c.html" target="_top" xlink:title=" ">
<polygon fill="white" stroke="black" points="172,-0.5 172,-19.5 246,-19.5 246,-0.5 172,-0.5"/>
<text text-anchor="middle" x="209" y="-7.5" font-family="FreeSans" font-size="10.00">deprecate.c</text>
</a>
</g>
</g>
<!-- Node1&#45;&gt;Node4 -->
<g id="edge3" class="edge">
<title>Node1&#45;&gt;Node4</title>
<path fill="none" stroke="midnightblue" d="M209,-45.8C209,-36.91 209,-26.78 209,-19.75"/>
<polygon fill="midnightblue" stroke="midnightblue" points="205.5,-46.08 209,-56.08 212.5,-46.08 205.5,-46.08"/>
</g>
<!-- Node5 -->
<g id="node5" class="node">
<title>Node5</title>
<g id="a_node5"><a xlink:href="draw_8c.html" target="_top" xlink:title=" ">
<polygon fill="white" stroke="black" points="264,-0.5 264,-19.5 312,-19.5 312,-0.5 264,-0.5"/>
<text text-anchor="middle" x="288" y="-7.5" font-family="FreeSans" font-size="10.00">draw.c</text>
</a>
</g>
</g>
<!-- Node1&#45;&gt;Node5 -->
<g id="edge4" class="edge">
<title>Node1&#45;&gt;Node5</title>
<path fill="none" stroke="midnightblue" d="M230.03,-50.62C244.47,-40.76 263.14,-27.99 275.34,-19.65"/>
<polygon fill="midnightblue" stroke="midnightblue" points="227.97,-47.79 221.69,-56.32 231.92,-53.57 227.97,-47.79"/>
</g>
<!-- Node6 -->
<g id="node6" class="node">
<title>Node6</title>
<g id="a_node6"><a xlink:href="paint_8c.html" target="_top" xlink:title=" ">
<polygon fill="white" stroke="black" points="330,-0.5 330,-19.5 380,-19.5 380,-0.5 330,-0.5"/>
<text text-anchor="middle" x="355" y="-7.5" font-family="FreeSans" font-size="10.00">paint.c</text>
</a>
</g>
</g>
<!-- Node1&#45;&gt;Node6 -->
<g id="edge5" class="edge">
<title>Node1&#45;&gt;Node6</title>
<path fill="none" stroke="midnightblue" d="M241.7,-52.91C269.15,-42.75 307.67,-28.51 331.97,-19.52"/>
<polygon fill="midnightblue" stroke="midnightblue" points="240.3,-49.69 232.13,-56.44 242.73,-56.26 240.3,-49.69"/>
</g>
</g>
</svg>
