<?xml version="1.0" encoding="UTF-8" standalone="no"?>
<!DOCTYPE svg PUBLIC "-//W3C//DTD SVG 1.1//EN"
 "http://www.w3.org/Graphics/SVG/1.1/DTD/svg11.dtd">
<!-- Generated by graphviz version 2.43.0 (0)
 -->
<!-- Title: exception.c Pages: 1 -->
<svg width="2232pt" height="252pt"
 viewBox="0.00 0.00 2232.00 252.00" xmlns="http://www.w3.org/2000/svg" xmlns:xlink="http://www.w3.org/1999/xlink">
<g id="graph0" class="graph" transform="scale(1 1) rotate(0) translate(4 248)">
<title>exception.c</title>
<polygon fill="white" stroke="transparent" points="-4,4 -4,-248 2228,-248 2228,4 -4,4"/>
<!-- Node1 -->
<g id="node1" class="node">
<title>Node1</title>
<g id="a_node1"><a xlink:title=" ">
<polygon fill="#bfbfbf" stroke="black" points="1412.5,-224.5 1412.5,-243.5 1485.5,-243.5 1485.5,-224.5 1412.5,-224.5"/>
<text text-anchor="middle" x="1449" y="-231.5" font-family="FreeSans" font-size="10.00">exception.c</text>
</a>
</g>
</g>
<!-- Node2 -->
<g id="node2" class="node">
<title>Node2</title>
<g id="a_node2"><a xlink:href="studio_8h.html" target="_top" xlink:title=" ">
<polygon fill="white" stroke="black" points="1050.5,-168.5 1050.5,-187.5 1145.5,-187.5 1145.5,-168.5 1050.5,-168.5"/>
<text text-anchor="middle" x="1098" y="-175.5" font-family="FreeSans" font-size="10.00">magick/studio.h</text>
</a>
</g>
</g>
<!-- Node1&#45;&gt;Node2 -->
<g id="edge1" class="edge">
<title>Node1&#45;&gt;Node2</title>
<path fill="none" stroke="midnightblue" d="M1412.43,-227.37C1351.39,-217.98 1228.28,-199.04 1155.53,-187.85"/>
<polygon fill="midnightblue" stroke="midnightblue" points="1156.02,-184.39 1145.61,-186.32 1154.96,-191.3 1156.02,-184.39"/>
</g>
<!-- Node24 -->
<g id="node24" class="node">
<title>Node24</title>
<g id="a_node24"><a xlink:href="client_8h.html" target="_top" xlink:title=" ">
<polygon fill="white" stroke="black" points="1866,-168.5 1866,-187.5 1958,-187.5 1958,-168.5 1866,-168.5"/>
<text text-anchor="middle" x="1912" y="-175.5" font-family="FreeSans" font-size="10.00">magick/client.h</text>
</a>
</g>
</g>
<!-- Node1&#45;&gt;Node24 -->
<g id="edge24" class="edge">
<title>Node1&#45;&gt;Node24</title>
<path fill="none" stroke="midnightblue" d="M1485.73,-229.37C1556.64,-222.25 1717.28,-205.62 1852,-188 1853.26,-187.83 1854.54,-187.67 1855.83,-187.49"/>
<polygon fill="midnightblue" stroke="midnightblue" points="1856.41,-190.94 1865.84,-186.1 1855.45,-184.01 1856.41,-190.94"/>
</g>
<!-- Node25 -->
<g id="node25" class="node">
<title>Node25</title>
<g id="a_node25"><a xlink:href="exception_8h.html" target="_top" xlink:title=" ">
<polygon fill="white" stroke="black" points="98.5,-56.5 98.5,-75.5 211.5,-75.5 211.5,-56.5 98.5,-56.5"/>
<text text-anchor="middle" x="155" y="-63.5" font-family="FreeSans" font-size="10.00">magick/exception.h</text>
</a>
</g>
</g>
<!-- Node1&#45;&gt;Node25 -->
<g id="edge25" class="edge">
<title>Node1&#45;&gt;Node25</title>
<path fill="none" stroke="midnightblue" d="M1412.41,-232.64C1208.75,-230.5 222.15,-218.58 166,-188 132.66,-169.84 116.57,-148.5 127,-112 129.9,-101.84 135.83,-91.75 141.49,-83.7"/>
<polygon fill="midnightblue" stroke="midnightblue" points="144.38,-85.69 147.59,-75.59 138.78,-81.48 144.38,-85.69"/>
</g>
<!-- Node26 -->
<g id="node26" class="node">
<title>Node26</title>
<g id="a_node26"><a xlink:href="semaphore_8h.html" target="_top" xlink:title=" ">
<polygon fill="white" stroke="black" points="501.5,-0.5 501.5,-19.5 620.5,-19.5 620.5,-0.5 501.5,-0.5"/>
<text text-anchor="middle" x="561" y="-7.5" font-family="FreeSans" font-size="10.00">magick/semaphore.h</text>
</a>
</g>
</g>
<!-- Node1&#45;&gt;Node26 -->
<g id="edge47" class="edge">
<title>Node1&#45;&gt;Node26</title>
<path fill="none" stroke="midnightblue" d="M1485.69,-233.43C1590.31,-233.34 1877.72,-223.21 1800,-112 1758.52,-52.65 1718.02,-70.11 1647,-56 1451.45,-17.15 838.81,-11.77 630.86,-11.08"/>
<polygon fill="midnightblue" stroke="midnightblue" points="630.69,-7.58 620.68,-11.05 630.67,-14.58 630.69,-7.58"/>
</g>
<!-- Node27 -->
<g id="node27" class="node">
<title>Node27</title>
<g id="a_node27"><a xlink:href="exception-private_8h.html" target="_top" xlink:title=" ">
<polygon fill="white" stroke="black" points="186.5,-168.5 186.5,-187.5 337.5,-187.5 337.5,-168.5 186.5,-168.5"/>
<text text-anchor="middle" x="262" y="-175.5" font-family="FreeSans" font-size="10.00">magick/exception&#45;private.h</text>
</a>
</g>
</g>
<!-- Node1&#45;&gt;Node27 -->
<g id="edge28" class="edge">
<title>Node1&#45;&gt;Node27</title>
<path fill="none" stroke="midnightblue" d="M1412.29,-232.38C1274.12,-229.87 772.03,-219.06 347.55,-188.07"/>
<polygon fill="midnightblue" stroke="midnightblue" points="347.76,-184.57 337.53,-187.33 347.25,-191.55 347.76,-184.57"/>
</g>
<!-- Node28 -->
<g id="node28" class="node">
<title>Node28</title>
<g id="a_node28"><a xlink:href="log_8h.html" target="_top" xlink:title=" ">
<polygon fill="white" stroke="black" points="0,-112.5 0,-131.5 80,-131.5 80,-112.5 0,-112.5"/>
<text text-anchor="middle" x="40" y="-119.5" font-family="FreeSans" font-size="10.00">magick/log.h</text>
</a>
</g>
</g>
<!-- Node1&#45;&gt;Node28 -->
<g id="edge42" class="edge">
<title>Node1&#45;&gt;Node28</title>
<path fill="none" stroke="midnightblue" d="M1412.48,-232.63C1202.36,-230.4 154.84,-217.79 94,-188 73.68,-178.05 58.25,-156.5 49.18,-140.94"/>
<polygon fill="midnightblue" stroke="midnightblue" points="52.03,-138.85 44.16,-131.75 45.89,-142.21 52.03,-138.85"/>
</g>
<!-- Node29 -->
<g id="node29" class="node">
<title>Node29</title>
<g id="a_node29"><a xlink:href="magick_8h.html" target="_top" xlink:title=" ">
<polygon fill="white" stroke="black" points="510.5,-56.5 510.5,-75.5 611.5,-75.5 611.5,-56.5 510.5,-56.5"/>
<text text-anchor="middle" x="561" y="-63.5" font-family="FreeSans" font-size="10.00">magick/magick.h</text>
</a>
</g>
</g>
<!-- Node1&#45;&gt;Node29 -->
<g id="edge43" class="edge">
<title>Node1&#45;&gt;Node29</title>
<path fill="none" stroke="midnightblue" d="M1485.86,-231.64C1589.31,-226.67 1869.16,-204.52 1780,-112 1739.48,-69.95 863.65,-66.96 622.17,-66.93"/>
<polygon fill="midnightblue" stroke="midnightblue" points="621.83,-63.43 611.83,-66.93 621.83,-70.43 621.83,-63.43"/>
</g>
<!-- Node30 -->
<g id="node30" class="node">
<title>Node30</title>
<g id="a_node30"><a xlink:href="string___8h.html" target="_top" xlink:title=" ">
<polygon fill="white" stroke="black" points="136,-112.5 136,-131.5 234,-131.5 234,-112.5 136,-112.5"/>
<text text-anchor="middle" x="185" y="-119.5" font-family="FreeSans" font-size="10.00">magick/string_.h</text>
</a>
</g>
</g>
<!-- Node1&#45;&gt;Node30 -->
<g id="edge48" class="edge">
<title>Node1&#45;&gt;Node30</title>
<path fill="none" stroke="midnightblue" d="M1412.35,-233.12C1208.4,-233.61 221.02,-233.61 177,-188 165.18,-175.76 169.92,-155.61 175.89,-140.99"/>
<polygon fill="midnightblue" stroke="midnightblue" points="179.25,-142.06 180.24,-131.51 172.89,-139.14 179.25,-142.06"/>
</g>
<!-- Node31 -->
<g id="node31" class="node">
<title>Node31</title>
<g id="a_node31"><a xlink:href="hashmap_8h.html" target="_top" xlink:title=" ">
<polygon fill="white" stroke="black" points="1970,-112.5 1970,-131.5 2080,-131.5 2080,-112.5 1970,-112.5"/>
<text text-anchor="middle" x="2025" y="-119.5" font-family="FreeSans" font-size="10.00">magick/hashmap.h</text>
</a>
</g>
</g>
<!-- Node1&#45;&gt;Node31 -->
<g id="edge39" class="edge">
<title>Node1&#45;&gt;Node31</title>
<path fill="none" stroke="midnightblue" d="M1485.7,-233.28C1589.38,-233.52 1882.46,-230.36 1967,-188 1988.05,-177.45 2004.95,-155.69 2014.96,-140.26"/>
<polygon fill="midnightblue" stroke="midnightblue" points="2018.01,-141.98 2020.28,-131.63 2012.05,-138.31 2018.01,-141.98"/>
</g>
<!-- Node32 -->
<g id="node32" class="node">
<title>Node32</title>
<g id="a_node32"><a xlink:href="locale___8h.html" target="_top" xlink:title=" ">
<polygon fill="white" stroke="black" points="2014.5,-168.5 2014.5,-187.5 2113.5,-187.5 2113.5,-168.5 2014.5,-168.5"/>
<text text-anchor="middle" x="2064" y="-175.5" font-family="FreeSans" font-size="10.00">magick/locale_.h</text>
</a>
</g>
</g>
<!-- Node1&#45;&gt;Node32 -->
<g id="edge40" class="edge">
<title>Node1&#45;&gt;Node32</title>
<path fill="none" stroke="midnightblue" d="M1485.83,-230.74C1574.5,-225.12 1806.83,-209.45 2000,-188 2001.46,-187.84 2002.95,-187.67 2004.44,-187.49"/>
<polygon fill="midnightblue" stroke="midnightblue" points="2004.92,-190.96 2014.42,-186.26 2004.07,-184.01 2004.92,-190.96"/>
</g>
<!-- Node33 -->
<g id="node33" class="node">
<title>Node33</title>
<g id="a_node33"><a xlink:href="memory___8h.html" target="_top" xlink:title=" ">
<polygon fill="white" stroke="black" points="355.5,-168.5 355.5,-187.5 466.5,-187.5 466.5,-168.5 355.5,-168.5"/>
<text text-anchor="middle" x="411" y="-175.5" font-family="FreeSans" font-size="10.00">magick/memory_.h</text>
</a>
</g>
</g>
<!-- Node1&#45;&gt;Node33 -->
<g id="edge44" class="edge">
<title>Node1&#45;&gt;Node33</title>
<path fill="none" stroke="midnightblue" d="M1412.36,-231.09C1259.93,-223.16 674.76,-192.72 476.85,-182.43"/>
<polygon fill="midnightblue" stroke="midnightblue" points="476.78,-178.92 466.61,-181.89 476.41,-185.91 476.78,-178.92"/>
</g>
<!-- Node34 -->
<g id="node34" class="node">
<title>Node34</title>
<g id="a_node34"><a xlink:href="utility_8h.html" target="_top" xlink:title=" ">
<polygon fill="white" stroke="black" points="2132,-168.5 2132,-187.5 2224,-187.5 2224,-168.5 2132,-168.5"/>
<text text-anchor="middle" x="2178" y="-175.5" font-family="FreeSans" font-size="10.00">magick/utility.h</text>
</a>
</g>
</g>
<!-- Node1&#45;&gt;Node34 -->
<g id="edge49" class="edge">
<title>Node1&#45;&gt;Node34</title>
<path fill="none" stroke="midnightblue" d="M1485.64,-231.78C1585.84,-228.2 1872.96,-216.18 2121.88,-188.02"/>
<polygon fill="midnightblue" stroke="midnightblue" points="2122.29,-191.5 2131.83,-186.88 2121.5,-184.54 2122.29,-191.5"/>
</g>
<!-- Node3 -->
<g id="node3" class="node">
<title>Node3</title>
<g id="a_node3"><a xlink:href="magick-config_8h.html" target="_top" xlink:title=" ">
<polygon fill="white" stroke="black" points="1504,-56.5 1504,-75.5 1638,-75.5 1638,-56.5 1504,-56.5"/>
<text text-anchor="middle" x="1571" y="-63.5" font-family="FreeSans" font-size="10.00">magick/magick&#45;config.h</text>
</a>
</g>
</g>
<!-- Node2&#45;&gt;Node3 -->
<g id="edge2" class="edge">
<title>Node2&#45;&gt;Node3</title>
<path fill="none" stroke="midnightblue" d="M1145.61,-177.52C1293.36,-178.65 1736.82,-178.13 1780,-132 1822.75,-86.34 1724.11,-72.52 1648.23,-68.48"/>
<polygon fill="midnightblue" stroke="midnightblue" points="1648.32,-64.98 1638.17,-67.99 1647.99,-71.97 1648.32,-64.98"/>
</g>
<!-- Node5 -->
<g id="node5" class="node">
<title>Node5</title>
<g id="a_node5"><a xlink:title=" ">
<polygon fill="white" stroke="#bfbfbf" points="212,-0.5 212,-19.5 268,-19.5 268,-0.5 212,-0.5"/>
<text text-anchor="middle" x="240" y="-7.5" font-family="FreeSans" font-size="10.00">stdarg.h</text>
</a>
</g>
</g>
<!-- Node2&#45;&gt;Node5 -->
<g id="edge4" class="edge">
<title>Node2&#45;&gt;Node5</title>
<path fill="none" stroke="midnightblue" d="M1050.1,-176.68C926.91,-175.34 601.7,-168.35 501,-132 446.13,-112.2 446.5,-81.42 394,-56 356.34,-37.76 309.84,-25.43 277.85,-18.36"/>
<polygon fill="midnightblue" stroke="midnightblue" points="278.51,-14.92 268,-16.24 277.04,-21.76 278.51,-14.92"/>
</g>
<!-- Node6 -->
<g id="node6" class="node">
<title>Node6</title>
<g id="a_node6"><a xlink:title=" ">
<polygon fill="white" stroke="#bfbfbf" points="1443,-112.5 1443,-131.5 1493,-131.5 1493,-112.5 1443,-112.5"/>
<text text-anchor="middle" x="1468" y="-119.5" font-family="FreeSans" font-size="10.00">stdio.h</text>
</a>
</g>
</g>
<!-- Node2&#45;&gt;Node6 -->
<g id="edge5" class="edge">
<title>Node2&#45;&gt;Node6</title>
<path fill="none" stroke="midnightblue" d="M1145.61,-172.53C1209.02,-166.15 1324.83,-153.05 1432.75,-132.03"/>
<polygon fill="midnightblue" stroke="midnightblue" points="1433.7,-135.41 1442.83,-130.04 1432.34,-128.54 1433.7,-135.41"/>
</g>
<!-- Node7 -->
<g id="node7" class="node">
<title>Node7</title>
<g id="a_node7"><a xlink:title=" ">
<polygon fill="white" stroke="#bfbfbf" points="1511.5,-112.5 1511.5,-131.5 1564.5,-131.5 1564.5,-112.5 1511.5,-112.5"/>
<text text-anchor="middle" x="1538" y="-119.5" font-family="FreeSans" font-size="10.00">ctype.h</text>
</a>
</g>
</g>
<!-- Node2&#45;&gt;Node7 -->
<g id="edge6" class="edge">
<title>Node2&#45;&gt;Node7</title>
<path fill="none" stroke="midnightblue" d="M1145.57,-173.78C1219.55,-168.31 1366.78,-155.63 1501.28,-131.89"/>
<polygon fill="midnightblue" stroke="midnightblue" points="1502.12,-135.29 1511.35,-130.09 1500.89,-128.4 1502.12,-135.29"/>
</g>
<!-- Node8 -->
<g id="node8" class="node">
<title>Node8</title>
<g id="a_node8"><a xlink:title=" ">
<polygon fill="white" stroke="#bfbfbf" points="1582.5,-112.5 1582.5,-131.5 1637.5,-131.5 1637.5,-112.5 1582.5,-112.5"/>
<text text-anchor="middle" x="1610" y="-119.5" font-family="FreeSans" font-size="10.00">locale.h</text>
</a>
</g>
</g>
<!-- Node2&#45;&gt;Node8 -->
<g id="edge7" class="edge">
<title>Node2&#45;&gt;Node8</title>
<path fill="none" stroke="midnightblue" d="M1145.83,-174.75C1230.05,-170.3 1410.4,-158.55 1572.08,-131.91"/>
<polygon fill="midnightblue" stroke="midnightblue" points="1572.92,-135.32 1582.21,-130.22 1571.77,-128.41 1572.92,-135.32"/>
</g>
<!-- Node9 -->
<g id="node9" class="node">
<title>Node9</title>
<g id="a_node9"><a xlink:title=" ">
<polygon fill="white" stroke="#bfbfbf" points="290.5,-112.5 290.5,-131.5 341.5,-131.5 341.5,-112.5 290.5,-112.5"/>
<text text-anchor="middle" x="316" y="-119.5" font-family="FreeSans" font-size="10.00">errno.h</text>
</a>
</g>
</g>
<!-- Node2&#45;&gt;Node9 -->
<g id="edge8" class="edge">
<title>Node2&#45;&gt;Node9</title>
<path fill="none" stroke="midnightblue" d="M1050.47,-177.28C933.17,-177.3 620.58,-173.26 351.82,-131.8"/>
<polygon fill="midnightblue" stroke="midnightblue" points="352.3,-128.33 341.88,-130.24 351.22,-135.25 352.3,-128.33"/>
</g>
<!-- Node10 -->
<g id="node10" class="node">
<title>Node10</title>
<g id="a_node10"><a xlink:title=" ">
<polygon fill="white" stroke="#bfbfbf" points="1655.5,-112.5 1655.5,-131.5 1702.5,-131.5 1702.5,-112.5 1655.5,-112.5"/>
<text text-anchor="middle" x="1679" y="-119.5" font-family="FreeSans" font-size="10.00">fcntl.h</text>
</a>
</g>
</g>
<!-- Node2&#45;&gt;Node10 -->
<g id="edge9" class="edge">
<title>Node2&#45;&gt;Node10</title>
<path fill="none" stroke="midnightblue" d="M1145.65,-176.03C1239.61,-173.5 1455.36,-164.52 1645.44,-131.75"/>
<polygon fill="midnightblue" stroke="midnightblue" points="1646.08,-135.19 1655.33,-130.02 1644.87,-128.29 1646.08,-135.19"/>
</g>
<!-- Node11 -->
<g id="node11" class="node">
<title>Node11</title>
<g id="a_node11"><a xlink:title=" ">
<polygon fill="white" stroke="#bfbfbf" points="1720.5,-112.5 1720.5,-131.5 1771.5,-131.5 1771.5,-112.5 1720.5,-112.5"/>
<text text-anchor="middle" x="1746" y="-119.5" font-family="FreeSans" font-size="10.00">math.h</text>
</a>
</g>
</g>
<!-- Node2&#45;&gt;Node11 -->
<g id="edge10" class="edge">
<title>Node2&#45;&gt;Node11</title>
<path fill="none" stroke="midnightblue" d="M1145.64,-176.39C1247.62,-174.46 1494.61,-166.47 1710.56,-131.74"/>
<polygon fill="midnightblue" stroke="midnightblue" points="1711.19,-135.18 1720.5,-130.12 1710.06,-128.27 1711.19,-135.18"/>
</g>
<!-- Node12 -->
<g id="node12" class="node">
<title>Node12</title>
<g id="a_node12"><a xlink:title=" ">
<polygon fill="white" stroke="#bfbfbf" points="337,-56.5 337,-75.5 385,-75.5 385,-56.5 337,-56.5"/>
<text text-anchor="middle" x="361" y="-63.5" font-family="FreeSans" font-size="10.00">time.h</text>
</a>
</g>
</g>
<!-- Node2&#45;&gt;Node12 -->
<g id="edge11" class="edge">
<title>Node2&#45;&gt;Node12</title>
<path fill="none" stroke="midnightblue" d="M1050.4,-176.49C922.97,-174.66 576.39,-166.55 468,-132 450.12,-126.3 407.69,-98.73 381.96,-81.37"/>
<polygon fill="midnightblue" stroke="midnightblue" points="383.86,-78.43 373.62,-75.71 379.93,-84.23 383.86,-78.43"/>
</g>
<!-- Node13 -->
<g id="node13" class="node">
<title>Node13</title>
<g id="a_node13"><a xlink:title=" ">
<polygon fill="white" stroke="#bfbfbf" points="510.5,-112.5 510.5,-131.5 563.5,-131.5 563.5,-112.5 510.5,-112.5"/>
<text text-anchor="middle" x="537" y="-119.5" font-family="FreeSans" font-size="10.00">limits.h</text>
</a>
</g>
</g>
<!-- Node2&#45;&gt;Node13 -->
<g id="edge12" class="edge">
<title>Node2&#45;&gt;Node13</title>
<path fill="none" stroke="midnightblue" d="M1050.16,-175.57C959.02,-172.27 754.19,-162.08 573.6,-132.02"/>
<polygon fill="midnightblue" stroke="midnightblue" points="574.1,-128.56 563.65,-130.34 572.93,-135.46 574.1,-128.56"/>
</g>
<!-- Node14 -->
<g id="node14" class="node">
<title>Node14</title>
<g id="a_node14"><a xlink:title=" ">
<polygon fill="white" stroke="#bfbfbf" points="581.5,-112.5 581.5,-131.5 636.5,-131.5 636.5,-112.5 581.5,-112.5"/>
<text text-anchor="middle" x="609" y="-119.5" font-family="FreeSans" font-size="10.00">signal.h</text>
</a>
</g>
</g>
<!-- Node2&#45;&gt;Node14 -->
<g id="edge13" class="edge">
<title>Node2&#45;&gt;Node14</title>
<path fill="none" stroke="midnightblue" d="M1050.2,-174.44C969.19,-169.62 799.63,-157.46 646.83,-131.9"/>
<polygon fill="midnightblue" stroke="midnightblue" points="647.24,-128.42 636.79,-130.2 646.07,-135.32 647.24,-128.42"/>
</g>
<!-- Node15 -->
<g id="node15" class="node">
<title>Node15</title>
<g id="a_node15"><a xlink:title=" ">
<polygon fill="white" stroke="#bfbfbf" points="360,-112.5 360,-131.5 416,-131.5 416,-112.5 360,-112.5"/>
<text text-anchor="middle" x="388" y="-119.5" font-family="FreeSans" font-size="10.00">assert.h</text>
</a>
</g>
</g>
<!-- Node2&#45;&gt;Node15 -->
<g id="edge14" class="edge">
<title>Node2&#45;&gt;Node15</title>
<path fill="none" stroke="midnightblue" d="M1050.38,-176.14C940.52,-173.65 661.09,-164.37 430,-132 428.75,-131.83 427.49,-131.63 426.21,-131.43"/>
<polygon fill="midnightblue" stroke="midnightblue" points="426.83,-127.99 416.37,-129.66 425.59,-134.87 426.83,-127.99"/>
</g>
<!-- Node16 -->
<g id="node16" class="node">
<title>Node16</title>
<g id="a_node16"><a xlink:href="method-attribute_8h.html" target="_top" xlink:title=" ">
<polygon fill="white" stroke="black" points="655,-112.5 655,-131.5 803,-131.5 803,-112.5 655,-112.5"/>
<text text-anchor="middle" x="729" y="-119.5" font-family="FreeSans" font-size="10.00">magick/method&#45;attribute.h</text>
</a>
</g>
</g>
<!-- Node2&#45;&gt;Node16 -->
<g id="edge15" class="edge">
<title>Node2&#45;&gt;Node16</title>
<path fill="none" stroke="midnightblue" d="M1050.14,-170C985.7,-160.57 870.66,-143.73 797.19,-132.98"/>
<polygon fill="midnightblue" stroke="midnightblue" points="797.51,-129.49 787.11,-131.5 796.49,-136.41 797.51,-129.49"/>
</g>
<!-- Node17 -->
<g id="node17" class="node">
<title>Node17</title>
<g id="a_node17"><a xlink:title=" ">
<polygon fill="white" stroke="#bfbfbf" points="821,-112.5 821,-131.5 893,-131.5 893,-112.5 821,-112.5"/>
<text text-anchor="middle" x="857" y="-119.5" font-family="FreeSans" font-size="10.00">sys/types.h</text>
</a>
</g>
</g>
<!-- Node2&#45;&gt;Node17 -->
<g id="edge16" class="edge">
<title>Node2&#45;&gt;Node17</title>
<path fill="none" stroke="midnightblue" d="M1059.81,-168.44C1017.24,-158.9 948.42,-143.48 902.94,-133.29"/>
<polygon fill="midnightblue" stroke="midnightblue" points="903.56,-129.85 893.04,-131.08 902.03,-136.68 903.56,-129.85"/>
</g>
<!-- Node18 -->
<g id="node18" class="node">
<title>Node18</title>
<g id="a_node18"><a xlink:title=" ">
<polygon fill="white" stroke="#bfbfbf" points="911,-112.5 911,-131.5 975,-131.5 975,-112.5 911,-112.5"/>
<text text-anchor="middle" x="943" y="-119.5" font-family="FreeSans" font-size="10.00">sys/stat.h</text>
</a>
</g>
</g>
<!-- Node2&#45;&gt;Node18 -->
<g id="edge17" class="edge">
<title>Node2&#45;&gt;Node18</title>
<path fill="none" stroke="midnightblue" d="M1073.44,-168.44C1047.48,-159.4 1006.33,-145.06 977.2,-134.92"/>
<polygon fill="midnightblue" stroke="midnightblue" points="978.04,-131.5 967.45,-131.52 975.74,-138.11 978.04,-131.5"/>
</g>
<!-- Node19 -->
<g id="node19" class="node">
<title>Node19</title>
<g id="a_node19"><a xlink:title=" ">
<polygon fill="white" stroke="#bfbfbf" points="993,-112.5 993,-131.5 1047,-131.5 1047,-112.5 993,-112.5"/>
<text text-anchor="middle" x="1020" y="-119.5" font-family="FreeSans" font-size="10.00">dirent.h</text>
</a>
</g>
</g>
<!-- Node2&#45;&gt;Node19 -->
<g id="edge18" class="edge">
<title>Node2&#45;&gt;Node19</title>
<path fill="none" stroke="midnightblue" d="M1085.47,-168.32C1073.41,-159.98 1054.97,-147.21 1040.73,-137.35"/>
<polygon fill="midnightblue" stroke="midnightblue" points="1042.72,-134.47 1032.5,-131.65 1038.73,-140.22 1042.72,-134.47"/>
</g>
<!-- Node20 -->
<g id="node20" class="node">
<title>Node20</title>
<g id="a_node20"><a xlink:title=" ">
<polygon fill="white" stroke="#bfbfbf" points="1065,-112.5 1065,-131.5 1131,-131.5 1131,-112.5 1065,-112.5"/>
<text text-anchor="middle" x="1098" y="-119.5" font-family="FreeSans" font-size="10.00">sys/wait.h</text>
</a>
</g>
</g>
<!-- Node2&#45;&gt;Node20 -->
<g id="edge19" class="edge">
<title>Node2&#45;&gt;Node20</title>
<path fill="none" stroke="midnightblue" d="M1098,-168.08C1098,-161.01 1098,-150.86 1098,-141.99"/>
<polygon fill="midnightblue" stroke="midnightblue" points="1101.5,-141.75 1098,-131.75 1094.5,-141.75 1101.5,-141.75"/>
</g>
<!-- Node21 -->
<g id="node21" class="node">
<title>Node21</title>
<g id="a_node21"><a xlink:title=" ">
<polygon fill="white" stroke="#bfbfbf" points="1149,-112.5 1149,-131.5 1195,-131.5 1195,-112.5 1149,-112.5"/>
<text text-anchor="middle" x="1172" y="-119.5" font-family="FreeSans" font-size="10.00">pwd.h</text>
</a>
</g>
</g>
<!-- Node2&#45;&gt;Node21 -->
<g id="edge20" class="edge">
<title>Node2&#45;&gt;Node21</title>
<path fill="none" stroke="midnightblue" d="M1109.89,-168.32C1121.15,-160.11 1138.29,-147.6 1151.71,-137.81"/>
<polygon fill="midnightblue" stroke="midnightblue" points="1153.88,-140.56 1159.89,-131.83 1149.75,-134.9 1153.88,-140.56"/>
</g>
<!-- Node22 -->
<g id="node22" class="node">
<title>Node22</title>
<g id="a_node22"><a xlink:href="magick-type_8h.html" target="_top" xlink:title=" ">
<polygon fill="white" stroke="black" points="1299,-112.5 1299,-131.5 1425,-131.5 1425,-112.5 1299,-112.5"/>
<text text-anchor="middle" x="1362" y="-119.5" font-family="FreeSans" font-size="10.00">magick/magick&#45;type.h</text>
</a>
</g>
</g>
<!-- Node2&#45;&gt;Node22 -->
<g id="edge21" class="edge">
<title>Node2&#45;&gt;Node22</title>
<path fill="none" stroke="midnightblue" d="M1139.83,-168.44C1186.08,-158.98 1260.61,-143.74 1310.44,-133.55"/>
<polygon fill="midnightblue" stroke="midnightblue" points="1311.27,-136.95 1320.36,-131.52 1309.87,-130.09 1311.27,-136.95"/>
</g>
<!-- Node23 -->
<g id="node23" class="node">
<title>Node23</title>
<g id="a_node23"><a xlink:title=" ">
<polygon fill="white" stroke="#bfbfbf" points="1213,-112.5 1213,-131.5 1281,-131.5 1281,-112.5 1213,-112.5"/>
<text text-anchor="middle" x="1247" y="-119.5" font-family="FreeSans" font-size="10.00">sys/time.h</text>
</a>
</g>
</g>
<!-- Node2&#45;&gt;Node23 -->
<g id="edge23" class="edge">
<title>Node2&#45;&gt;Node23</title>
<path fill="none" stroke="midnightblue" d="M1121.61,-168.44C1146.46,-159.44 1185.77,-145.19 1213.75,-135.05"/>
<polygon fill="midnightblue" stroke="midnightblue" points="1215.29,-138.21 1223.5,-131.52 1212.91,-131.63 1215.29,-138.21"/>
</g>
<!-- Node4 -->
<g id="node4" class="node">
<title>Node4</title>
<g id="a_node4"><a xlink:href="magick-baseconfig_8h.html" target="_top" xlink:title=" ">
<polygon fill="white" stroke="black" points="1492.5,-0.5 1492.5,-19.5 1649.5,-19.5 1649.5,-0.5 1492.5,-0.5"/>
<text text-anchor="middle" x="1571" y="-7.5" font-family="FreeSans" font-size="10.00">magick/magick&#45;baseconfig.h</text>
</a>
</g>
</g>
<!-- Node3&#45;&gt;Node4 -->
<g id="edge3" class="edge">
<title>Node3&#45;&gt;Node4</title>
<path fill="none" stroke="midnightblue" d="M1571,-56.08C1571,-49.01 1571,-38.86 1571,-29.99"/>
<polygon fill="midnightblue" stroke="midnightblue" points="1574.5,-29.75 1571,-19.75 1567.5,-29.75 1574.5,-29.75"/>
</g>
<!-- Node22&#45;&gt;Node3 -->
<g id="edge22" class="edge">
<title>Node22&#45;&gt;Node3</title>
<path fill="none" stroke="midnightblue" d="M1395.12,-112.44C1431.12,-103.14 1488.77,-88.25 1528.19,-78.06"/>
<polygon fill="midnightblue" stroke="midnightblue" points="1529.23,-81.41 1538.04,-75.52 1527.48,-74.63 1529.23,-81.41"/>
</g>
<!-- Node25&#45;&gt;Node5 -->
<g id="edge26" class="edge">
<title>Node25&#45;&gt;Node5</title>
<path fill="none" stroke="midnightblue" d="M168.66,-56.32C181.92,-47.9 202.27,-34.97 217.85,-25.07"/>
<polygon fill="midnightblue" stroke="midnightblue" points="219.81,-27.97 226.38,-19.65 216.06,-22.06 219.81,-27.97"/>
</g>
<!-- Node25&#45;&gt;Node26 -->
<g id="edge27" class="edge">
<title>Node25&#45;&gt;Node26</title>
<path fill="none" stroke="midnightblue" d="M211.88,-57.43C284.98,-47.71 411.86,-30.84 490.86,-20.33"/>
<polygon fill="midnightblue" stroke="midnightblue" points="491.75,-23.74 501.2,-18.95 490.83,-16.8 491.75,-23.74"/>
</g>
<!-- Node27&#45;&gt;Node28 -->
<g id="edge29" class="edge">
<title>Node27&#45;&gt;Node28</title>
<path fill="none" stroke="midnightblue" d="M226.82,-168.44C188.42,-159.1 126.82,-144.12 84.94,-133.93"/>
<polygon fill="midnightblue" stroke="midnightblue" points="85.56,-130.48 75.01,-131.52 83.9,-137.28 85.56,-130.48"/>
</g>
<!-- Node27&#45;&gt;Node29 -->
<g id="edge32" class="edge">
<title>Node27&#45;&gt;Node29</title>
<path fill="none" stroke="midnightblue" d="M261.81,-168.32C262,-154.22 264.6,-126.47 281,-112 312.67,-84.06 427.65,-73.36 500.05,-69.34"/>
<polygon fill="midnightblue" stroke="midnightblue" points="500.6,-72.81 510.41,-68.79 500.23,-65.82 500.6,-72.81"/>
</g>
<!-- Node27&#45;&gt;Node30 -->
<g id="edge35" class="edge">
<title>Node27&#45;&gt;Node30</title>
<path fill="none" stroke="midnightblue" d="M249.63,-168.32C237.84,-160.06 219.87,-147.45 205.86,-137.63"/>
<polygon fill="midnightblue" stroke="midnightblue" points="207.54,-134.53 197.34,-131.65 203.52,-140.26 207.54,-134.53"/>
</g>
<!-- Node28&#45;&gt;Node5 -->
<g id="edge30" class="edge">
<title>Node28&#45;&gt;Node5</title>
<path fill="none" stroke="midnightblue" d="M44.15,-112.44C51.33,-98.52 67.41,-71 89,-56 122.95,-32.41 169.45,-20.99 201.84,-15.59"/>
<polygon fill="midnightblue" stroke="midnightblue" points="202.48,-19.03 211.83,-14.04 201.41,-12.12 202.48,-19.03"/>
</g>
<!-- Node28&#45;&gt;Node25 -->
<g id="edge31" class="edge">
<title>Node28&#45;&gt;Node25</title>
<path fill="none" stroke="midnightblue" d="M58.22,-112.44C76.9,-103.68 106.16,-89.94 127.62,-79.86"/>
<polygon fill="midnightblue" stroke="midnightblue" points="129.3,-82.93 136.86,-75.52 126.32,-76.6 129.3,-82.93"/>
</g>
<!-- Node29&#45;&gt;Node5 -->
<g id="edge33" class="edge">
<title>Node29&#45;&gt;Node5</title>
<path fill="none" stroke="midnightblue" d="M510.49,-56.5C446.17,-45.68 336.43,-27.22 278.47,-17.47"/>
<polygon fill="midnightblue" stroke="midnightblue" points="278.72,-13.96 268.28,-15.76 277.56,-20.87 278.72,-13.96"/>
</g>
<!-- Node29&#45;&gt;Node26 -->
<g id="edge34" class="edge">
<title>Node29&#45;&gt;Node26</title>
<path fill="none" stroke="midnightblue" d="M561,-56.08C561,-49.01 561,-38.86 561,-29.99"/>
<polygon fill="midnightblue" stroke="midnightblue" points="564.5,-29.75 561,-19.75 557.5,-29.75 564.5,-29.75"/>
</g>
<!-- Node30&#45;&gt;Node5 -->
<g id="edge36" class="edge">
<title>Node30&#45;&gt;Node5</title>
<path fill="none" stroke="midnightblue" d="M193.29,-112.36C201.14,-103.76 212.78,-89.87 220,-76 227.66,-61.27 232.94,-43.11 236.14,-29.73"/>
<polygon fill="midnightblue" stroke="midnightblue" points="239.6,-30.32 238.35,-19.8 232.77,-28.8 239.6,-30.32"/>
</g>
<!-- Node30&#45;&gt;Node12 -->
<g id="edge37" class="edge">
<title>Node30&#45;&gt;Node12</title>
<path fill="none" stroke="midnightblue" d="M212.89,-112.44C243.9,-102.93 293.98,-87.56 327.19,-77.37"/>
<polygon fill="midnightblue" stroke="midnightblue" points="328.39,-80.67 336.92,-74.39 326.33,-73.98 328.39,-80.67"/>
</g>
<!-- Node30&#45;&gt;Node25 -->
<g id="edge38" class="edge">
<title>Node30&#45;&gt;Node25</title>
<path fill="none" stroke="midnightblue" d="M180.05,-112.08C175.9,-104.61 169.85,-93.72 164.73,-84.52"/>
<polygon fill="midnightblue" stroke="midnightblue" points="167.78,-82.79 159.86,-75.75 161.66,-86.19 167.78,-82.79"/>
</g>
<!-- Node32&#45;&gt;Node31 -->
<g id="edge41" class="edge">
<title>Node32&#45;&gt;Node31</title>
<path fill="none" stroke="midnightblue" d="M2057.56,-168.08C2052.05,-160.46 2043.97,-149.26 2037.24,-139.94"/>
<polygon fill="midnightblue" stroke="midnightblue" points="2040.01,-137.81 2031.32,-131.75 2034.34,-141.91 2040.01,-137.81"/>
</g>
<!-- Node33&#45;&gt;Node9 -->
<g id="edge45" class="edge">
<title>Node33&#45;&gt;Node9</title>
<path fill="none" stroke="midnightblue" d="M395.74,-168.32C380.78,-159.82 357.75,-146.73 340.27,-136.8"/>
<polygon fill="midnightblue" stroke="midnightblue" points="341.65,-133.55 331.23,-131.65 338.19,-139.64 341.65,-133.55"/>
</g>
<!-- Node33&#45;&gt;Node15 -->
<g id="edge46" class="edge">
<title>Node33&#45;&gt;Node15</title>
<path fill="none" stroke="midnightblue" d="M407.2,-168.08C404.09,-160.77 399.58,-150.18 395.71,-141.1"/>
<polygon fill="midnightblue" stroke="midnightblue" points="398.87,-139.58 391.73,-131.75 392.43,-142.32 398.87,-139.58"/>
</g>
</g>
</svg>
