<?xml version="1.0" encoding="UTF-8" standalone="no"?>
<!DOCTYPE svg PUBLIC "-//W3C//DTD SVG 1.1//EN"
 "http://www.w3.org/Graphics/SVG/1.1/DTD/svg11.dtd">
<!-- Generated by graphviz version 2.43.0 (0)
 -->
<!-- Title: exception&#45;private.h Pages: 1 -->
<svg width="358pt" height="196pt"
 viewBox="0.00 0.00 358.36 196.00" xmlns="http://www.w3.org/2000/svg" xmlns:xlink="http://www.w3.org/1999/xlink">
<g id="graph0" class="graph" transform="scale(1 1) rotate(0) translate(4 192)">
<title>exception&#45;private.h</title>
<polygon fill="white" stroke="transparent" points="-4,4 -4,-192 354.36,-192 354.36,4 -4,4"/>
<!-- Node1 -->
<g id="node1" class="node">
<title>Node1</title>
<g id="a_node1"><a xlink:title=" ">
<polygon fill="#bfbfbf" stroke="black" points="109.86,-168.5 109.86,-187.5 221.86,-187.5 221.86,-168.5 109.86,-168.5"/>
<text text-anchor="middle" x="165.86" y="-175.5" font-family="FreeSans" font-size="10.00">exception&#45;private.h</text>
</a>
</g>
</g>
<!-- Node2 -->
<g id="node2" class="node">
<title>Node2</title>
<g id="a_node2"><a xlink:href="log_8h.html" target="_top" xlink:title=" ">
<polygon fill="white" stroke="black" points="18.86,-112.5 18.86,-131.5 98.86,-131.5 98.86,-112.5 18.86,-112.5"/>
<text text-anchor="middle" x="58.86" y="-119.5" font-family="FreeSans" font-size="10.00">magick/log.h</text>
</a>
</g>
</g>
<!-- Node1&#45;&gt;Node2 -->
<g id="edge1" class="edge">
<title>Node1&#45;&gt;Node2</title>
<path fill="none" stroke="midnightblue" d="M148.67,-168.32C131.51,-159.66 104.91,-146.24 85.11,-136.25"/>
<polygon fill="midnightblue" stroke="midnightblue" points="86.51,-133.04 76.01,-131.65 83.36,-139.28 86.51,-133.04"/>
</g>
<!-- Node6 -->
<g id="node6" class="node">
<title>Node6</title>
<g id="a_node6"><a xlink:href="magick_8h.html" target="_top" xlink:title=" ">
<polygon fill="white" stroke="black" points="249.36,-56.5 249.36,-75.5 350.36,-75.5 350.36,-56.5 249.36,-56.5"/>
<text text-anchor="middle" x="299.86" y="-63.5" font-family="FreeSans" font-size="10.00">magick/magick.h</text>
</a>
</g>
</g>
<!-- Node1&#45;&gt;Node6 -->
<g id="edge6" class="edge">
<title>Node1&#45;&gt;Node6</title>
<path fill="none" stroke="midnightblue" d="M177.54,-168.2C189.35,-159.24 208.05,-144.88 223.86,-132 244.3,-115.34 267.24,-95.57 282.51,-82.25"/>
<polygon fill="midnightblue" stroke="midnightblue" points="284.93,-84.78 290.15,-75.57 280.32,-79.52 284.93,-84.78"/>
</g>
<!-- Node7 -->
<g id="node7" class="node">
<title>Node7</title>
<g id="a_node7"><a xlink:href="string___8h.html" target="_top" xlink:title=" ">
<polygon fill="white" stroke="black" points="116.86,-112.5 116.86,-131.5 214.86,-131.5 214.86,-112.5 116.86,-112.5"/>
<text text-anchor="middle" x="165.86" y="-119.5" font-family="FreeSans" font-size="10.00">magick/string_.h</text>
</a>
</g>
</g>
<!-- Node1&#45;&gt;Node7 -->
<g id="edge9" class="edge">
<title>Node1&#45;&gt;Node7</title>
<path fill="none" stroke="midnightblue" d="M165.86,-168.08C165.86,-161.01 165.86,-150.86 165.86,-141.99"/>
<polygon fill="midnightblue" stroke="midnightblue" points="169.36,-141.75 165.86,-131.75 162.36,-141.75 169.36,-141.75"/>
</g>
<!-- Node3 -->
<g id="node3" class="node">
<title>Node3</title>
<g id="a_node3"><a xlink:title=" ">
<polygon fill="white" stroke="#bfbfbf" points="83.86,-0.5 83.86,-19.5 139.86,-19.5 139.86,-0.5 83.86,-0.5"/>
<text text-anchor="middle" x="111.86" y="-7.5" font-family="FreeSans" font-size="10.00">stdarg.h</text>
</a>
</g>
</g>
<!-- Node2&#45;&gt;Node3 -->
<g id="edge2" class="edge">
<title>Node2&#45;&gt;Node3</title>
<path fill="none" stroke="midnightblue" d="M42.23,-112.47C21.19,-100.51 -10.66,-77.77 3.86,-56 19.34,-32.78 49.3,-21.52 73.75,-16.08"/>
<polygon fill="midnightblue" stroke="midnightblue" points="74.7,-19.46 83.83,-14.08 73.34,-12.59 74.7,-19.46"/>
</g>
<!-- Node4 -->
<g id="node4" class="node">
<title>Node4</title>
<g id="a_node4"><a xlink:href="exception_8h.html" target="_top" xlink:title=" ">
<polygon fill="white" stroke="black" points="13.36,-56.5 13.36,-75.5 126.36,-75.5 126.36,-56.5 13.36,-56.5"/>
<text text-anchor="middle" x="69.86" y="-63.5" font-family="FreeSans" font-size="10.00">magick/exception.h</text>
</a>
</g>
</g>
<!-- Node2&#45;&gt;Node4 -->
<g id="edge3" class="edge">
<title>Node2&#45;&gt;Node4</title>
<path fill="none" stroke="midnightblue" d="M60.67,-112.08C62.13,-104.93 64.23,-94.64 66.05,-85.69"/>
<polygon fill="midnightblue" stroke="midnightblue" points="69.51,-86.25 68.08,-75.75 62.65,-84.85 69.51,-86.25"/>
</g>
<!-- Node4&#45;&gt;Node3 -->
<g id="edge4" class="edge">
<title>Node4&#45;&gt;Node3</title>
<path fill="none" stroke="midnightblue" d="M76.79,-56.08C82.79,-48.38 91.61,-37.03 98.91,-27.65"/>
<polygon fill="midnightblue" stroke="midnightblue" points="101.68,-29.79 105.05,-19.75 96.15,-25.5 101.68,-29.79"/>
</g>
<!-- Node5 -->
<g id="node5" class="node">
<title>Node5</title>
<g id="a_node5"><a xlink:href="semaphore_8h.html" target="_top" xlink:title=" ">
<polygon fill="white" stroke="black" points="199.36,-0.5 199.36,-19.5 318.36,-19.5 318.36,-0.5 199.36,-0.5"/>
<text text-anchor="middle" x="258.86" y="-7.5" font-family="FreeSans" font-size="10.00">magick/semaphore.h</text>
</a>
</g>
</g>
<!-- Node4&#45;&gt;Node5 -->
<g id="edge5" class="edge">
<title>Node4&#45;&gt;Node5</title>
<path fill="none" stroke="midnightblue" d="M99.81,-56.44C132.02,-47.24 183.39,-32.56 219,-22.39"/>
<polygon fill="midnightblue" stroke="midnightblue" points="220.4,-25.63 229.05,-19.52 218.47,-18.9 220.4,-25.63"/>
</g>
<!-- Node6&#45;&gt;Node3 -->
<g id="edge7" class="edge">
<title>Node6&#45;&gt;Node3</title>
<path fill="none" stroke="midnightblue" d="M270.07,-56.44C237.56,-47.11 185.42,-32.13 149.95,-21.94"/>
<polygon fill="midnightblue" stroke="midnightblue" points="150.55,-18.47 139.97,-19.08 148.62,-25.2 150.55,-18.47"/>
</g>
<!-- Node6&#45;&gt;Node5 -->
<g id="edge8" class="edge">
<title>Node6&#45;&gt;Node5</title>
<path fill="none" stroke="midnightblue" d="M293.09,-56.08C287.3,-48.46 278.8,-37.26 271.72,-27.94"/>
<polygon fill="midnightblue" stroke="midnightblue" points="274.34,-25.6 265.5,-19.75 268.76,-29.83 274.34,-25.6"/>
</g>
<!-- Node7&#45;&gt;Node3 -->
<g id="edge10" class="edge">
<title>Node7&#45;&gt;Node3</title>
<path fill="none" stroke="midnightblue" d="M161.72,-112.13C155.85,-99.58 144.71,-75.95 134.86,-56 130.38,-46.94 125.28,-36.92 121.02,-28.65"/>
<polygon fill="midnightblue" stroke="midnightblue" points="124.04,-26.87 116.34,-19.59 117.82,-30.08 124.04,-26.87"/>
</g>
<!-- Node7&#45;&gt;Node4 -->
<g id="edge12" class="edge">
<title>Node7&#45;&gt;Node4</title>
<path fill="none" stroke="midnightblue" d="M150.43,-112.32C135.32,-103.82 112.04,-90.73 94.39,-80.8"/>
<polygon fill="midnightblue" stroke="midnightblue" points="95.68,-77.51 85.24,-75.65 92.24,-83.61 95.68,-77.51"/>
</g>
<!-- Node8 -->
<g id="node8" class="node">
<title>Node8</title>
<g id="a_node8"><a xlink:title=" ">
<polygon fill="white" stroke="#bfbfbf" points="182.86,-56.5 182.86,-75.5 230.86,-75.5 230.86,-56.5 182.86,-56.5"/>
<text text-anchor="middle" x="206.86" y="-63.5" font-family="FreeSans" font-size="10.00">time.h</text>
</a>
</g>
</g>
<!-- Node7&#45;&gt;Node8 -->
<g id="edge11" class="edge">
<title>Node7&#45;&gt;Node8</title>
<path fill="none" stroke="midnightblue" d="M172.63,-112.08C178.42,-104.46 186.92,-93.26 194,-83.94"/>
<polygon fill="midnightblue" stroke="midnightblue" points="196.95,-85.83 200.21,-75.75 191.38,-81.6 196.95,-85.83"/>
</g>
</g>
</svg>
