<?xml version="1.0" encoding="UTF-8" standalone="no"?>
<!DOCTYPE svg PUBLIC "-//W3C//DTD SVG 1.1//EN"
 "http://www.w3.org/Graphics/SVG/1.1/DTD/svg11.dtd">
<!-- Generated by graphviz version 2.43.0 (0)
 -->
<!-- Title: fourier.c Pages: 1 -->
<svg width="2851pt" height="308pt"
 viewBox="0.00 0.00 2851.49 308.00" xmlns="http://www.w3.org/2000/svg" xmlns:xlink="http://www.w3.org/1999/xlink">
<g id="graph0" class="graph" transform="scale(1 1) rotate(0) translate(4 304)">
<title>fourier.c</title>
<polygon fill="white" stroke="transparent" points="-4,4 -4,-304 2847.49,-304 2847.49,4 -4,4"/>
<!-- Node1 -->
<g id="node1" class="node">
<title>Node1</title>
<g id="a_node1"><a xlink:title=" ">
<polygon fill="#bfbfbf" stroke="black" points="1901.5,-280.5 1901.5,-299.5 1957.5,-299.5 1957.5,-280.5 1901.5,-280.5"/>
<text text-anchor="middle" x="1929.5" y="-287.5" font-family="FreeSans" font-size="10.00">fourier.c</text>
</a>
</g>
</g>
<!-- Node2 -->
<g id="node2" class="node">
<title>Node2</title>
<g id="a_node2"><a xlink:href="studio_8h.html" target="_top" xlink:title=" ">
<polygon fill="white" stroke="black" points="661,-112.5 661,-131.5 756,-131.5 756,-112.5 661,-112.5"/>
<text text-anchor="middle" x="708.5" y="-119.5" font-family="FreeSans" font-size="10.00">magick/studio.h</text>
</a>
</g>
</g>
<!-- Node1&#45;&gt;Node2 -->
<g id="edge1" class="edge">
<title>Node1&#45;&gt;Node2</title>
<path fill="none" stroke="midnightblue" d="M1901.42,-289.07C1721,-289.4 731.05,-289.16 687.5,-244 660.6,-216.1 682.49,-166.82 697.44,-140.58"/>
<polygon fill="midnightblue" stroke="midnightblue" points="700.6,-142.13 702.72,-131.75 694.59,-138.54 700.6,-142.13"/>
</g>
<!-- Node24 -->
<g id="node23" class="node">
<title>Node24</title>
<g id="a_node23"><a xlink:href="artifact_8h.html" target="_top" xlink:title=" ">
<polygon fill="white" stroke="black" points="696.5,-224.5 696.5,-243.5 796.5,-243.5 796.5,-224.5 696.5,-224.5"/>
<text text-anchor="middle" x="746.5" y="-231.5" font-family="FreeSans" font-size="10.00">magick/artifact.h</text>
</a>
</g>
</g>
<!-- Node1&#45;&gt;Node24 -->
<g id="edge23" class="edge">
<title>Node1&#45;&gt;Node24</title>
<path fill="none" stroke="midnightblue" d="M1901.33,-288.9C1774.49,-288.22 1243.77,-283.08 810.5,-244 809.38,-243.9 808.25,-243.79 807.12,-243.68"/>
<polygon fill="midnightblue" stroke="midnightblue" points="807.07,-240.16 796.75,-242.55 806.31,-247.11 807.07,-240.16"/>
</g>
<!-- Node25 -->
<g id="node24" class="node">
<title>Node25</title>
<g id="a_node24"><a xlink:href="attribute_8h.html" target="_top" xlink:title=" ">
<polygon fill="white" stroke="black" points="1544,-224.5 1544,-243.5 1651,-243.5 1651,-224.5 1544,-224.5"/>
<text text-anchor="middle" x="1597.5" y="-231.5" font-family="FreeSans" font-size="10.00">magick/attribute.h</text>
</a>
</g>
</g>
<!-- Node1&#45;&gt;Node25 -->
<g id="edge24" class="edge">
<title>Node1&#45;&gt;Node25</title>
<path fill="none" stroke="midnightblue" d="M1901.48,-284.44C1848.4,-275.81 1732.04,-256.88 1659.67,-245.11"/>
<polygon fill="midnightblue" stroke="midnightblue" points="1660.2,-241.65 1649.76,-243.5 1659.07,-248.56 1660.2,-241.65"/>
</g>
<!-- Node26 -->
<g id="node25" class="node">
<title>Node26</title>
<g id="a_node25"><a xlink:href="image_8h.html" target="_top" xlink:title=" ">
<polygon fill="white" stroke="red" points="1397,-168.5 1397,-187.5 1492,-187.5 1492,-168.5 1397,-168.5"/>
<text text-anchor="middle" x="1444.5" y="-175.5" font-family="FreeSans" font-size="10.00">magick/image.h</text>
</a>
</g>
</g>
<!-- Node1&#45;&gt;Node26 -->
<g id="edge44" class="edge">
<title>Node1&#45;&gt;Node26</title>
<path fill="none" stroke="midnightblue" d="M1901.25,-287.64C1822.47,-283.56 1601.76,-270.05 1534.5,-244 1505.46,-232.76 1477.23,-209.81 1460.35,-194.42"/>
<polygon fill="midnightblue" stroke="midnightblue" points="1462.71,-191.84 1453.02,-187.55 1457.93,-196.94 1462.71,-191.84"/>
</g>
<!-- Node33 -->
<g id="node28" class="node">
<title>Node33</title>
<g id="a_node28"><a xlink:href="blob_8h.html" target="_top" xlink:title=" ">
<polygon fill="white" stroke="black" points="1566.5,-56.5 1566.5,-75.5 1652.5,-75.5 1652.5,-56.5 1566.5,-56.5"/>
<text text-anchor="middle" x="1609.5" y="-63.5" font-family="FreeSans" font-size="10.00">magick/blob.h</text>
</a>
</g>
</g>
<!-- Node1&#45;&gt;Node33 -->
<g id="edge41" class="edge">
<title>Node1&#45;&gt;Node33</title>
<path fill="none" stroke="midnightblue" d="M1901.45,-287.32C1734.41,-277.06 875.67,-220.22 803.5,-132 797.87,-125.12 797.37,-118.43 803.5,-112 832.4,-81.69 1514.86,-80.51 1556.5,-76 1556.6,-75.99 1556.7,-75.98 1556.8,-75.97"/>
<polygon fill="midnightblue" stroke="midnightblue" points="1556.98,-79.47 1566.46,-74.75 1556.1,-72.53 1556.98,-79.47"/>
</g>
<!-- Node44 -->
<g id="node36" class="node">
<title>Node44</title>
<g id="a_node36"><a xlink:href="monitor_8h.html" target="_top" xlink:title=" ">
<polygon fill="white" stroke="black" points="812.5,-112.5 812.5,-131.5 914.5,-131.5 914.5,-112.5 812.5,-112.5"/>
<text text-anchor="middle" x="863.5" y="-119.5" font-family="FreeSans" font-size="10.00">magick/monitor.h</text>
</a>
</g>
</g>
<!-- Node1&#45;&gt;Node44 -->
<g id="edge54" class="edge">
<title>Node1&#45;&gt;Node44</title>
<path fill="none" stroke="midnightblue" d="M1901.28,-286.91C1832.07,-281.59 1648.47,-266.38 1496.5,-244 1276.89,-211.66 1017.5,-156.77 911.87,-133.71"/>
<polygon fill="midnightblue" stroke="midnightblue" points="912.36,-130.23 901.84,-131.51 910.86,-137.07 912.36,-130.23"/>
</g>
<!-- Node52 -->
<g id="node37" class="node">
<title>Node52</title>
<g id="a_node37"><a xlink:href="cache_8h.html" target="_top" xlink:title=" ">
<polygon fill="white" stroke="black" points="2227,-112.5 2227,-131.5 2320,-131.5 2320,-112.5 2227,-112.5"/>
<text text-anchor="middle" x="2273.5" y="-119.5" font-family="FreeSans" font-size="10.00">magick/cache.h</text>
</a>
</g>
</g>
<!-- Node1&#45;&gt;Node52 -->
<g id="edge42" class="edge">
<title>Node1&#45;&gt;Node52</title>
<path fill="none" stroke="midnightblue" d="M1901.27,-288.88C1837.43,-287.66 1690.9,-278.97 1736.5,-224 1744.22,-214.7 2080.3,-156.14 2216.78,-132.69"/>
<polygon fill="midnightblue" stroke="midnightblue" points="2217.38,-136.14 2226.64,-131 2216.2,-129.24 2217.38,-136.14"/>
</g>
<!-- Node53 -->
<g id="node38" class="node">
<title>Node53</title>
<g id="a_node38"><a xlink:href="image-private_8h.html" target="_top" xlink:title=" ">
<polygon fill="white" stroke="black" points="2338.5,-112.5 2338.5,-131.5 2472.5,-131.5 2472.5,-112.5 2338.5,-112.5"/>
<text text-anchor="middle" x="2405.5" y="-119.5" font-family="FreeSans" font-size="10.00">magick/image&#45;private.h</text>
</a>
</g>
</g>
<!-- Node1&#45;&gt;Node53 -->
<g id="edge45" class="edge">
<title>Node1&#45;&gt;Node53</title>
<path fill="none" stroke="midnightblue" d="M1957.63,-288.28C2086.68,-284.87 2616.72,-269.33 2640.5,-244 2696.37,-184.48 2561.12,-149.25 2473.38,-133.3"/>
<polygon fill="midnightblue" stroke="midnightblue" points="2473.92,-129.84 2463.46,-131.54 2472.7,-136.73 2473.92,-129.84"/>
</g>
<!-- Node54 -->
<g id="node39" class="node">
<title>Node54</title>
<g id="a_node39"><a xlink:href="list_8h.html" target="_top" xlink:title=" ">
<polygon fill="white" stroke="black" points="1745.5,-224.5 1745.5,-243.5 1825.5,-243.5 1825.5,-224.5 1745.5,-224.5"/>
<text text-anchor="middle" x="1785.5" y="-231.5" font-family="FreeSans" font-size="10.00">magick/list.h</text>
</a>
</g>
</g>
<!-- Node1&#45;&gt;Node54 -->
<g id="edge46" class="edge">
<title>Node1&#45;&gt;Node54</title>
<path fill="none" stroke="midnightblue" d="M1906.68,-280.44C1882.67,-271.44 1844.67,-257.19 1817.63,-247.05"/>
<polygon fill="midnightblue" stroke="midnightblue" points="1818.8,-243.75 1808.21,-243.52 1816.34,-250.3 1818.8,-243.75"/>
</g>
<!-- Node55 -->
<g id="node40" class="node">
<title>Node55</title>
<g id="a_node40"><a xlink:href="fourier_8h.html" target="_top" xlink:title=" ">
<polygon fill="white" stroke="black" points="1843.5,-224.5 1843.5,-243.5 1939.5,-243.5 1939.5,-224.5 1843.5,-224.5"/>
<text text-anchor="middle" x="1891.5" y="-231.5" font-family="FreeSans" font-size="10.00">magick/fourier.h</text>
</a>
</g>
</g>
<!-- Node1&#45;&gt;Node55 -->
<g id="edge47" class="edge">
<title>Node1&#45;&gt;Node55</title>
<path fill="none" stroke="midnightblue" d="M1923.23,-280.08C1917.86,-272.46 1909.98,-261.26 1903.42,-251.94"/>
<polygon fill="midnightblue" stroke="midnightblue" points="1906.28,-249.91 1897.66,-243.75 1900.55,-253.94 1906.28,-249.91"/>
</g>
<!-- Node56 -->
<g id="node41" class="node">
<title>Node56</title>
<g id="a_node41"><a xlink:href="log_8h.html" target="_top" xlink:title=" ">
<polygon fill="white" stroke="black" points="2490.5,-112.5 2490.5,-131.5 2570.5,-131.5 2570.5,-112.5 2490.5,-112.5"/>
<text text-anchor="middle" x="2530.5" y="-119.5" font-family="FreeSans" font-size="10.00">magick/log.h</text>
</a>
</g>
</g>
<!-- Node1&#45;&gt;Node56 -->
<g id="edge48" class="edge">
<title>Node1&#45;&gt;Node56</title>
<path fill="none" stroke="midnightblue" d="M1957.79,-288.67C2106.98,-286.77 2796.81,-276.27 2827.5,-244 2903.55,-164.04 2683.83,-135.37 2580.73,-126.49"/>
<polygon fill="midnightblue" stroke="midnightblue" points="2580.79,-122.99 2570.53,-125.65 2580.21,-129.96 2580.79,-122.99"/>
</g>
<!-- Node57 -->
<g id="node42" class="node">
<title>Node57</title>
<g id="a_node42"><a xlink:href="memory___8h.html" target="_top" xlink:title=" ">
<polygon fill="white" stroke="black" points="2098,-112.5 2098,-131.5 2209,-131.5 2209,-112.5 2098,-112.5"/>
<text text-anchor="middle" x="2153.5" y="-119.5" font-family="FreeSans" font-size="10.00">magick/memory_.h</text>
</a>
</g>
</g>
<!-- Node1&#45;&gt;Node57 -->
<g id="edge51" class="edge">
<title>Node1&#45;&gt;Node57</title>
<path fill="none" stroke="midnightblue" d="M1936.18,-280.4C1946.56,-267.35 1967.53,-242.16 1988.5,-224 2032.18,-186.18 2091.66,-153.58 2125.98,-136.27"/>
<polygon fill="midnightblue" stroke="midnightblue" points="2127.98,-139.18 2135.37,-131.59 2124.86,-132.92 2127.98,-139.18"/>
</g>
<!-- Node58 -->
<g id="node43" class="node">
<title>Node58</title>
<g id="a_node43"><a xlink:href="monitor-private_8h.html" target="_top" xlink:title=" ">
<polygon fill="white" stroke="black" points="2034,-224.5 2034,-243.5 2175,-243.5 2175,-224.5 2034,-224.5"/>
<text text-anchor="middle" x="2104.5" y="-231.5" font-family="FreeSans" font-size="10.00">magick/monitor&#45;private.h</text>
</a>
</g>
</g>
<!-- Node1&#45;&gt;Node58 -->
<g id="edge55" class="edge">
<title>Node1&#45;&gt;Node58</title>
<path fill="none" stroke="midnightblue" d="M1957.23,-280.44C1986.93,-271.28 2034.22,-256.69 2067.17,-246.52"/>
<polygon fill="midnightblue" stroke="midnightblue" points="2068.38,-249.81 2076.9,-243.52 2066.31,-243.12 2068.38,-249.81"/>
</g>
<!-- Node59 -->
<g id="node44" class="node">
<title>Node59</title>
<g id="a_node44"><a xlink:href="pixel-accessor_8h.html" target="_top" xlink:title=" ">
<polygon fill="white" stroke="red" points="1945.5,-112.5 1945.5,-131.5 2079.5,-131.5 2079.5,-112.5 1945.5,-112.5"/>
<text text-anchor="middle" x="2012.5" y="-119.5" font-family="FreeSans" font-size="10.00">magick/pixel&#45;accessor.h</text>
</a>
</g>
</g>
<!-- Node1&#45;&gt;Node59 -->
<g id="edge56" class="edge">
<title>Node1&#45;&gt;Node59</title>
<path fill="none" stroke="midnightblue" d="M1901.33,-287.69C1846.42,-284.48 1728.24,-274.15 1703.5,-244 1697.86,-237.13 1700.89,-232.5 1703.5,-224 1712.33,-195.25 1716.17,-184.22 1741.5,-168 1757.68,-157.64 1860.9,-142.49 1935.15,-132.68"/>
<polygon fill="midnightblue" stroke="midnightblue" points="1935.96,-136.11 1945.43,-131.34 1935.05,-129.17 1935.96,-136.11"/>
</g>
<!-- Node65 -->
<g id="node45" class="node">
<title>Node65</title>
<g id="a_node45"><a xlink:href="pixel-private_8h.html" target="_top" xlink:title=" ">
<polygon fill="white" stroke="black" points="2193.5,-224.5 2193.5,-243.5 2319.5,-243.5 2319.5,-224.5 2193.5,-224.5"/>
<text text-anchor="middle" x="2256.5" y="-231.5" font-family="FreeSans" font-size="10.00">magick/pixel&#45;private.h</text>
</a>
</g>
</g>
<!-- Node1&#45;&gt;Node65 -->
<g id="edge58" class="edge">
<title>Node1&#45;&gt;Node65</title>
<path fill="none" stroke="midnightblue" d="M1957.66,-284.35C2010.08,-275.69 2123.73,-256.93 2194.79,-245.19"/>
<polygon fill="midnightblue" stroke="midnightblue" points="2195.65,-248.6 2204.95,-243.51 2194.51,-241.69 2195.65,-248.6"/>
</g>
<!-- Node66 -->
<g id="node46" class="node">
<title>Node66</title>
<g id="a_node46"><a xlink:href="quantum-private_8h.html" target="_top" xlink:title=" ">
<polygon fill="white" stroke="black" points="2080.5,-168.5 2080.5,-187.5 2226.5,-187.5 2226.5,-168.5 2080.5,-168.5"/>
<text text-anchor="middle" x="2153.5" y="-175.5" font-family="FreeSans" font-size="10.00">magick/quantum&#45;private.h</text>
</a>
</g>
</g>
<!-- Node1&#45;&gt;Node66 -->
<g id="edge70" class="edge">
<title>Node1&#45;&gt;Node66</title>
<path fill="none" stroke="midnightblue" d="M1940.03,-280.4C1956.96,-266.91 1991.68,-240.58 2024.5,-224 2052.53,-209.84 2086.08,-198.28 2111.94,-190.43"/>
<polygon fill="midnightblue" stroke="midnightblue" points="2113.21,-193.71 2121.8,-187.5 2111.22,-187 2113.21,-193.71"/>
</g>
<!-- Node67 -->
<g id="node47" class="node">
<title>Node67</title>
<g id="a_node47"><a xlink:href="property_8h.html" target="_top" xlink:title=" ">
<polygon fill="white" stroke="black" points="2527.5,-224.5 2527.5,-243.5 2631.5,-243.5 2631.5,-224.5 2527.5,-224.5"/>
<text text-anchor="middle" x="2579.5" y="-231.5" font-family="FreeSans" font-size="10.00">magick/property.h</text>
</a>
</g>
</g>
<!-- Node1&#45;&gt;Node67 -->
<g id="edge69" class="edge">
<title>Node1&#45;&gt;Node67</title>
<path fill="none" stroke="midnightblue" d="M1957.51,-287.43C2041.76,-282.57 2300.14,-266.75 2513.5,-244 2514.76,-243.87 2516.04,-243.73 2517.32,-243.58"/>
<polygon fill="midnightblue" stroke="midnightblue" points="2517.77,-247.05 2527.3,-242.41 2516.95,-240.1 2517.77,-247.05"/>
</g>
<!-- Node68 -->
<g id="node48" class="node">
<title>Node68</title>
<g id="a_node48"><a xlink:href="resource___8h.html" target="_top" xlink:title=" ">
<polygon fill="white" stroke="black" points="2437.5,-168.5 2437.5,-187.5 2549.5,-187.5 2549.5,-168.5 2437.5,-168.5"/>
<text text-anchor="middle" x="2493.5" y="-175.5" font-family="FreeSans" font-size="10.00">magick/resource_.h</text>
</a>
</g>
</g>
<!-- Node1&#45;&gt;Node68 -->
<g id="edge71" class="edge">
<title>Node1&#45;&gt;Node68</title>
<path fill="none" stroke="midnightblue" d="M1957.51,-288.65C2064.2,-287.07 2441.16,-279.02 2480.5,-244 2493.24,-232.66 2495.59,-212.66 2495.3,-197.83"/>
<polygon fill="midnightblue" stroke="midnightblue" points="2498.79,-197.5 2494.7,-187.73 2491.8,-197.92 2498.79,-197.5"/>
</g>
<!-- Node69 -->
<g id="node49" class="node">
<title>Node69</title>
<g id="a_node49"><a xlink:href="string-private_8h.html" target="_top" xlink:title=" ">
<polygon fill="white" stroke="red" points="2688,-224.5 2688,-243.5 2819,-243.5 2819,-224.5 2688,-224.5"/>
<text text-anchor="middle" x="2753.5" y="-231.5" font-family="FreeSans" font-size="10.00">magick/string&#45;private.h</text>
</a>
</g>
</g>
<!-- Node1&#45;&gt;Node69 -->
<g id="edge72" class="edge">
<title>Node1&#45;&gt;Node69</title>
<path fill="none" stroke="midnightblue" d="M1957.58,-287.83C2056.03,-283.59 2394.71,-268.1 2673.5,-244 2674.79,-243.89 2676.1,-243.77 2677.41,-243.65"/>
<polygon fill="midnightblue" stroke="midnightblue" points="2677.98,-247.12 2687.61,-242.69 2677.32,-240.15 2677.98,-247.12"/>
</g>
<!-- Node71 -->
<g id="node50" class="node">
<title>Node71</title>
<g id="a_node50"><a xlink:href="thread-private_8h.html" target="_top" xlink:title=" ">
<polygon fill="white" stroke="red" points="2337.5,-224.5 2337.5,-243.5 2471.5,-243.5 2471.5,-224.5 2337.5,-224.5"/>
<text text-anchor="middle" x="2404.5" y="-231.5" font-family="FreeSans" font-size="10.00">magick/thread&#45;private.h</text>
</a>
</g>
</g>
<!-- Node1&#45;&gt;Node71 -->
<g id="edge73" class="edge">
<title>Node1&#45;&gt;Node71</title>
<path fill="none" stroke="midnightblue" d="M1957.56,-285.89C2021.26,-278.82 2181.88,-260.92 2327.36,-244.13"/>
<polygon fill="midnightblue" stroke="midnightblue" points="2327.83,-247.6 2337.37,-242.97 2327.03,-240.64 2327.83,-247.6"/>
</g>
<!-- Node3 -->
<g id="node3" class="node">
<title>Node3</title>
<g id="a_node3"><a xlink:href="magick-config_8h.html" target="_top" xlink:title=" ">
<polygon fill="white" stroke="red" points="878.5,-0.5 878.5,-19.5 1012.5,-19.5 1012.5,-0.5 878.5,-0.5"/>
<text text-anchor="middle" x="945.5" y="-7.5" font-family="FreeSans" font-size="10.00">magick/magick&#45;config.h</text>
</a>
</g>
</g>
<!-- Node2&#45;&gt;Node3 -->
<g id="edge2" class="edge">
<title>Node2&#45;&gt;Node3</title>
<path fill="none" stroke="midnightblue" d="M756.22,-114C761.04,-113.31 765.87,-112.64 770.5,-112 832.43,-103.51 1008.22,-122.95 1049.5,-76 1070.99,-51.56 1029.75,-33.13 993.02,-22.25"/>
<polygon fill="midnightblue" stroke="midnightblue" points="993.9,-18.87 983.33,-19.52 992,-25.6 993.9,-18.87"/>
</g>
<!-- Node5 -->
<g id="node4" class="node">
<title>Node5</title>
<g id="a_node4"><a xlink:title=" ">
<polygon fill="white" stroke="#bfbfbf" points="1889.5,-0.5 1889.5,-19.5 1945.5,-19.5 1945.5,-0.5 1889.5,-0.5"/>
<text text-anchor="middle" x="1917.5" y="-7.5" font-family="FreeSans" font-size="10.00">stdarg.h</text>
</a>
</g>
</g>
<!-- Node2&#45;&gt;Node5 -->
<g id="edge3" class="edge">
<title>Node2&#45;&gt;Node5</title>
<path fill="none" stroke="midnightblue" d="M756.18,-113.7C761.01,-113.07 765.85,-112.49 770.5,-112 1007.49,-86.86 1076.19,-140.9 1305.5,-76 1323.86,-70.8 1325.17,-61.3 1343.5,-56 1394.71,-41.2 1759.11,-19.82 1879.21,-13.1"/>
<polygon fill="midnightblue" stroke="midnightblue" points="1879.62,-16.58 1889.41,-12.53 1879.23,-9.6 1879.62,-16.58"/>
</g>
<!-- Node6 -->
<g id="node5" class="node">
<title>Node6</title>
<g id="a_node5"><a xlink:title=" ">
<polygon fill="white" stroke="#bfbfbf" points="1246.5,-56.5 1246.5,-75.5 1296.5,-75.5 1296.5,-56.5 1246.5,-56.5"/>
<text text-anchor="middle" x="1271.5" y="-63.5" font-family="FreeSans" font-size="10.00">stdio.h</text>
</a>
</g>
</g>
<!-- Node2&#45;&gt;Node6 -->
<g id="edge4" class="edge">
<title>Node2&#45;&gt;Node6</title>
<path fill="none" stroke="midnightblue" d="M756.19,-113.75C761.02,-113.11 765.85,-112.52 770.5,-112 974.17,-89.39 1030.5,-110.11 1236.44,-75.87"/>
<polygon fill="midnightblue" stroke="midnightblue" points="1237.08,-79.31 1246.36,-74.2 1235.92,-72.41 1237.08,-79.31"/>
</g>
<!-- Node7 -->
<g id="node6" class="node">
<title>Node7</title>
<g id="a_node6"><a xlink:title=" ">
<polygon fill="white" stroke="#bfbfbf" points="0,-56.5 0,-75.5 53,-75.5 53,-56.5 0,-56.5"/>
<text text-anchor="middle" x="26.5" y="-63.5" font-family="FreeSans" font-size="10.00">ctype.h</text>
</a>
</g>
</g>
<!-- Node2&#45;&gt;Node7 -->
<g id="edge5" class="edge">
<title>Node2&#45;&gt;Node7</title>
<path fill="none" stroke="midnightblue" d="M660.67,-120.65C554.56,-119.22 291.38,-112.17 63.3,-76.02"/>
<polygon fill="midnightblue" stroke="midnightblue" points="63.58,-72.52 53.15,-74.39 62.46,-79.43 63.58,-72.52"/>
</g>
<!-- Node8 -->
<g id="node7" class="node">
<title>Node8</title>
<g id="a_node7"><a xlink:title=" ">
<polygon fill="white" stroke="#bfbfbf" points="71,-56.5 71,-75.5 126,-75.5 126,-56.5 71,-56.5"/>
<text text-anchor="middle" x="98.5" y="-63.5" font-family="FreeSans" font-size="10.00">locale.h</text>
</a>
</g>
</g>
<!-- Node2&#45;&gt;Node8 -->
<g id="edge6" class="edge">
<title>Node2&#45;&gt;Node8</title>
<path fill="none" stroke="midnightblue" d="M660.93,-119.95C563.84,-117.23 335.85,-107.88 136.39,-76.07"/>
<polygon fill="midnightblue" stroke="midnightblue" points="136.74,-72.58 126.31,-74.44 135.63,-79.49 136.74,-72.58"/>
</g>
<!-- Node9 -->
<g id="node8" class="node">
<title>Node9</title>
<g id="a_node8"><a xlink:title=" ">
<polygon fill="white" stroke="#bfbfbf" points="1497,-56.5 1497,-75.5 1548,-75.5 1548,-56.5 1497,-56.5"/>
<text text-anchor="middle" x="1522.5" y="-63.5" font-family="FreeSans" font-size="10.00">errno.h</text>
</a>
</g>
</g>
<!-- Node2&#45;&gt;Node9 -->
<g id="edge7" class="edge">
<title>Node2&#45;&gt;Node9</title>
<path fill="none" stroke="midnightblue" d="M756.17,-113.62C761,-113.01 765.85,-112.45 770.5,-112 1084.81,-81.37 1170.31,-123.1 1486.72,-75.77"/>
<polygon fill="midnightblue" stroke="midnightblue" points="1487.26,-79.23 1496.63,-74.27 1486.22,-72.31 1487.26,-79.23"/>
</g>
<!-- Node10 -->
<g id="node9" class="node">
<title>Node10</title>
<g id="a_node9"><a xlink:title=" ">
<polygon fill="white" stroke="#bfbfbf" points="144,-56.5 144,-75.5 191,-75.5 191,-56.5 144,-56.5"/>
<text text-anchor="middle" x="167.5" y="-63.5" font-family="FreeSans" font-size="10.00">fcntl.h</text>
</a>
</g>
</g>
<!-- Node2&#45;&gt;Node10 -->
<g id="edge8" class="edge">
<title>Node2&#45;&gt;Node10</title>
<path fill="none" stroke="midnightblue" d="M660.85,-119.6C572.12,-116.39 375.52,-106.4 201.05,-75.76"/>
<polygon fill="midnightblue" stroke="midnightblue" points="201.64,-72.31 191.18,-74 200.41,-79.2 201.64,-72.31"/>
</g>
<!-- Node11 -->
<g id="node10" class="node">
<title>Node11</title>
<g id="a_node10"><a xlink:title=" ">
<polygon fill="white" stroke="#bfbfbf" points="1353,-56.5 1353,-75.5 1404,-75.5 1404,-56.5 1353,-56.5"/>
<text text-anchor="middle" x="1378.5" y="-63.5" font-family="FreeSans" font-size="10.00">math.h</text>
</a>
</g>
</g>
<!-- Node2&#45;&gt;Node11 -->
<g id="edge9" class="edge">
<title>Node2&#45;&gt;Node11</title>
<path fill="none" stroke="midnightblue" d="M756.18,-113.68C761.01,-113.06 765.85,-112.48 770.5,-112 1022.09,-85.81 1088.11,-111.87 1338.5,-76 1339.95,-75.79 1341.43,-75.56 1342.92,-75.31"/>
<polygon fill="midnightblue" stroke="midnightblue" points="1343.63,-78.73 1352.79,-73.41 1342.31,-71.86 1343.63,-78.73"/>
</g>
<!-- Node12 -->
<g id="node11" class="node">
<title>Node12</title>
<g id="a_node11"><a xlink:title=" ">
<polygon fill="white" stroke="#bfbfbf" points="209.5,-56.5 209.5,-75.5 257.5,-75.5 257.5,-56.5 209.5,-56.5"/>
<text text-anchor="middle" x="233.5" y="-63.5" font-family="FreeSans" font-size="10.00">time.h</text>
</a>
</g>
</g>
<!-- Node2&#45;&gt;Node12 -->
<g id="edge10" class="edge">
<title>Node2&#45;&gt;Node12</title>
<path fill="none" stroke="midnightblue" d="M660.71,-118.72C581.07,-114.36 416.12,-102.93 267.74,-75.94"/>
<polygon fill="midnightblue" stroke="midnightblue" points="268.01,-72.43 257.54,-74.05 266.74,-79.31 268.01,-72.43"/>
</g>
<!-- Node13 -->
<g id="node12" class="node">
<title>Node13</title>
<g id="a_node12"><a xlink:title=" ">
<polygon fill="white" stroke="#bfbfbf" points="276,-56.5 276,-75.5 329,-75.5 329,-56.5 276,-56.5"/>
<text text-anchor="middle" x="302.5" y="-63.5" font-family="FreeSans" font-size="10.00">limits.h</text>
</a>
</g>
</g>
<!-- Node2&#45;&gt;Node13 -->
<g id="edge11" class="edge">
<title>Node2&#45;&gt;Node13</title>
<path fill="none" stroke="midnightblue" d="M660.76,-117.22C591.76,-111.32 460.04,-98.41 339.33,-76.14"/>
<polygon fill="midnightblue" stroke="midnightblue" points="339.65,-72.64 329.17,-74.24 338.36,-79.52 339.65,-72.64"/>
</g>
<!-- Node14 -->
<g id="node13" class="node">
<title>Node14</title>
<g id="a_node13"><a xlink:title=" ">
<polygon fill="white" stroke="#bfbfbf" points="347,-56.5 347,-75.5 402,-75.5 402,-56.5 347,-56.5"/>
<text text-anchor="middle" x="374.5" y="-63.5" font-family="FreeSans" font-size="10.00">signal.h</text>
</a>
</g>
</g>
<!-- Node2&#45;&gt;Node14 -->
<g id="edge12" class="edge">
<title>Node2&#45;&gt;Node14</title>
<path fill="none" stroke="midnightblue" d="M660.95,-115.11C604.13,-107.78 505.99,-94.2 412.26,-76"/>
<polygon fill="midnightblue" stroke="midnightblue" points="412.81,-72.54 402.32,-74.05 411.46,-79.41 412.81,-72.54"/>
</g>
<!-- Node15 -->
<g id="node14" class="node">
<title>Node15</title>
<g id="a_node14"><a xlink:title=" ">
<polygon fill="white" stroke="#bfbfbf" points="1422.5,-56.5 1422.5,-75.5 1478.5,-75.5 1478.5,-56.5 1422.5,-56.5"/>
<text text-anchor="middle" x="1450.5" y="-63.5" font-family="FreeSans" font-size="10.00">assert.h</text>
</a>
</g>
</g>
<!-- Node2&#45;&gt;Node15 -->
<g id="edge13" class="edge">
<title>Node2&#45;&gt;Node15</title>
<path fill="none" stroke="midnightblue" d="M756.18,-113.65C761.01,-113.03 765.85,-112.47 770.5,-112 1054.85,-83.45 1129.69,-117.09 1412.5,-76 1412.6,-75.99 1412.7,-75.97 1412.8,-75.96"/>
<polygon fill="midnightblue" stroke="midnightblue" points="1413.16,-79.45 1422.38,-74.24 1411.92,-72.56 1413.16,-79.45"/>
</g>
<!-- Node16 -->
<g id="node15" class="node">
<title>Node16</title>
<g id="a_node15"><a xlink:href="method-attribute_8h.html" target="_top" xlink:title=" ">
<polygon fill="white" stroke="black" points="420.5,-56.5 420.5,-75.5 568.5,-75.5 568.5,-56.5 420.5,-56.5"/>
<text text-anchor="middle" x="494.5" y="-63.5" font-family="FreeSans" font-size="10.00">magick/method&#45;attribute.h</text>
</a>
</g>
</g>
<!-- Node2&#45;&gt;Node16 -->
<g id="edge14" class="edge">
<title>Node2&#45;&gt;Node16</title>
<path fill="none" stroke="midnightblue" d="M674.59,-112.44C637.65,-103.12 578.45,-88.18 538.08,-78"/>
<polygon fill="midnightblue" stroke="midnightblue" points="538.8,-74.57 528.25,-75.52 537.09,-81.36 538.8,-74.57"/>
</g>
<!-- Node17 -->
<g id="node16" class="node">
<title>Node17</title>
<g id="a_node16"><a xlink:title=" ">
<polygon fill="white" stroke="#bfbfbf" points="586.5,-56.5 586.5,-75.5 658.5,-75.5 658.5,-56.5 586.5,-56.5"/>
<text text-anchor="middle" x="622.5" y="-63.5" font-family="FreeSans" font-size="10.00">sys/types.h</text>
</a>
</g>
</g>
<!-- Node2&#45;&gt;Node17 -->
<g id="edge15" class="edge">
<title>Node2&#45;&gt;Node17</title>
<path fill="none" stroke="midnightblue" d="M694.68,-112.32C681.27,-103.9 660.68,-90.97 644.91,-81.07"/>
<polygon fill="midnightblue" stroke="midnightblue" points="646.61,-78.01 636.28,-75.65 642.89,-83.94 646.61,-78.01"/>
</g>
<!-- Node18 -->
<g id="node17" class="node">
<title>Node18</title>
<g id="a_node17"><a xlink:title=" ">
<polygon fill="white" stroke="#bfbfbf" points="676.5,-56.5 676.5,-75.5 740.5,-75.5 740.5,-56.5 676.5,-56.5"/>
<text text-anchor="middle" x="708.5" y="-63.5" font-family="FreeSans" font-size="10.00">sys/stat.h</text>
</a>
</g>
</g>
<!-- Node2&#45;&gt;Node18 -->
<g id="edge16" class="edge">
<title>Node2&#45;&gt;Node18</title>
<path fill="none" stroke="midnightblue" d="M708.5,-112.08C708.5,-105.01 708.5,-94.86 708.5,-85.99"/>
<polygon fill="midnightblue" stroke="midnightblue" points="712,-85.75 708.5,-75.75 705,-85.75 712,-85.75"/>
</g>
<!-- Node19 -->
<g id="node18" class="node">
<title>Node19</title>
<g id="a_node18"><a xlink:title=" ">
<polygon fill="white" stroke="#bfbfbf" points="902.5,-56.5 902.5,-75.5 956.5,-75.5 956.5,-56.5 902.5,-56.5"/>
<text text-anchor="middle" x="929.5" y="-63.5" font-family="FreeSans" font-size="10.00">dirent.h</text>
</a>
</g>
</g>
<!-- Node2&#45;&gt;Node19 -->
<g id="edge17" class="edge">
<title>Node2&#45;&gt;Node19</title>
<path fill="none" stroke="midnightblue" d="M743.98,-112.44C779.2,-103.93 834.99,-90.4 892.4,-76.26"/>
<polygon fill="midnightblue" stroke="midnightblue" points="893.51,-79.59 902.38,-73.8 891.83,-72.8 893.51,-79.59"/>
</g>
<!-- Node20 -->
<g id="node19" class="node">
<title>Node20</title>
<g id="a_node19"><a xlink:title=" ">
<polygon fill="white" stroke="#bfbfbf" points="974.5,-56.5 974.5,-75.5 1040.5,-75.5 1040.5,-56.5 974.5,-56.5"/>
<text text-anchor="middle" x="1007.5" y="-63.5" font-family="FreeSans" font-size="10.00">sys/wait.h</text>
</a>
</g>
</g>
<!-- Node2&#45;&gt;Node20 -->
<g id="edge18" class="edge">
<title>Node2&#45;&gt;Node20</title>
<path fill="none" stroke="midnightblue" d="M756.44,-113.16C806.01,-104.93 885.91,-91.32 964.04,-76.23"/>
<polygon fill="midnightblue" stroke="midnightblue" points="964.9,-79.63 974.05,-74.29 963.57,-72.76 964.9,-79.63"/>
</g>
<!-- Node21 -->
<g id="node20" class="node">
<title>Node21</title>
<g id="a_node20"><a xlink:title=" ">
<polygon fill="white" stroke="#bfbfbf" points="1096.5,-56.5 1096.5,-75.5 1142.5,-75.5 1142.5,-56.5 1096.5,-56.5"/>
<text text-anchor="middle" x="1119.5" y="-63.5" font-family="FreeSans" font-size="10.00">pwd.h</text>
</a>
</g>
</g>
<!-- Node2&#45;&gt;Node21 -->
<g id="edge19" class="edge">
<title>Node2&#45;&gt;Node21</title>
<path fill="none" stroke="midnightblue" d="M756.21,-113.93C761.03,-113.26 765.86,-112.6 770.5,-112 908.92,-93.97 945.09,-100.54 1082.5,-76 1083.74,-75.78 1085.01,-75.54 1086.29,-75.29"/>
<polygon fill="midnightblue" stroke="midnightblue" points="1087.08,-78.7 1096.1,-73.15 1085.59,-71.86 1087.08,-78.7"/>
</g>
<!-- Node22 -->
<g id="node21" class="node">
<title>Node22</title>
<g id="a_node21"><a xlink:href="magick-type_8h.html" target="_top" xlink:title=" ">
<polygon fill="white" stroke="black" points="758.5,-56.5 758.5,-75.5 884.5,-75.5 884.5,-56.5 758.5,-56.5"/>
<text text-anchor="middle" x="821.5" y="-63.5" font-family="FreeSans" font-size="10.00">magick/magick&#45;type.h</text>
</a>
</g>
</g>
<!-- Node2&#45;&gt;Node22 -->
<g id="edge20" class="edge">
<title>Node2&#45;&gt;Node22</title>
<path fill="none" stroke="midnightblue" d="M726.41,-112.44C744.75,-103.68 773.51,-89.94 794.59,-79.86"/>
<polygon fill="midnightblue" stroke="midnightblue" points="796.17,-82.99 803.68,-75.52 793.15,-76.67 796.17,-82.99"/>
</g>
<!-- Node23 -->
<g id="node22" class="node">
<title>Node23</title>
<g id="a_node22"><a xlink:title=" ">
<polygon fill="white" stroke="#bfbfbf" points="1160.5,-56.5 1160.5,-75.5 1228.5,-75.5 1228.5,-56.5 1160.5,-56.5"/>
<text text-anchor="middle" x="1194.5" y="-63.5" font-family="FreeSans" font-size="10.00">sys/time.h</text>
</a>
</g>
</g>
<!-- Node2&#45;&gt;Node23 -->
<g id="edge22" class="edge">
<title>Node2&#45;&gt;Node23</title>
<path fill="none" stroke="midnightblue" d="M756.2,-113.83C761.02,-113.18 765.86,-112.56 770.5,-112 936.17,-92.16 981.61,-101.1 1150.33,-76.02"/>
<polygon fill="midnightblue" stroke="midnightblue" points="1150.93,-79.47 1160.3,-74.52 1149.89,-72.55 1150.93,-79.47"/>
</g>
<!-- Node22&#45;&gt;Node3 -->
<g id="edge21" class="edge">
<title>Node22&#45;&gt;Node3</title>
<path fill="none" stroke="midnightblue" d="M841.15,-56.44C861.46,-47.6 893.4,-33.69 916.6,-23.59"/>
<polygon fill="midnightblue" stroke="midnightblue" points="918.17,-26.72 925.94,-19.52 915.38,-20.3 918.17,-26.72"/>
</g>
<!-- Node25&#45;&gt;Node26 -->
<g id="edge25" class="edge">
<title>Node25&#45;&gt;Node26</title>
<path fill="none" stroke="midnightblue" d="M1573.26,-224.44C1547.63,-215.4 1507.01,-201.06 1478.26,-190.92"/>
<polygon fill="midnightblue" stroke="midnightblue" points="1479.22,-187.54 1468.63,-187.52 1476.89,-194.15 1479.22,-187.54"/>
</g>
<!-- Node31 -->
<g id="node27" class="node">
<title>Node31</title>
<g id="a_node27"><a xlink:href="exception_8h.html" target="_top" xlink:title=" ">
<polygon fill="white" stroke="red" points="1861,-56.5 1861,-75.5 1974,-75.5 1974,-56.5 1861,-56.5"/>
<text text-anchor="middle" x="1917.5" y="-63.5" font-family="FreeSans" font-size="10.00">magick/exception.h</text>
</a>
</g>
</g>
<!-- Node25&#45;&gt;Node31 -->
<g id="edge40" class="edge">
<title>Node25&#45;&gt;Node31</title>
<path fill="none" stroke="midnightblue" d="M1609.97,-224.41C1630.85,-210.45 1674.62,-182.87 1715.5,-168 1793.4,-139.66 1837.3,-187.91 1898.5,-132 1911.36,-120.25 1915.7,-100.31 1917.07,-85.61"/>
<polygon fill="midnightblue" stroke="midnightblue" points="1920.57,-85.79 1917.64,-75.61 1913.58,-85.4 1920.57,-85.79"/>
</g>
<!-- Node27 -->
<g id="node26" class="node">
<title>Node27</title>
<g id="a_node26"><a xlink:href="color_8h.html" target="_top" xlink:title=" ">
<polygon fill="white" stroke="red" points="1801.5,-112.5 1801.5,-131.5 1889.5,-131.5 1889.5,-112.5 1801.5,-112.5"/>
<text text-anchor="middle" x="1845.5" y="-119.5" font-family="FreeSans" font-size="10.00">magick/color.h</text>
</a>
</g>
</g>
<!-- Node26&#45;&gt;Node27 -->
<g id="edge26" class="edge">
<title>Node26&#45;&gt;Node27</title>
<path fill="none" stroke="midnightblue" d="M1492.27,-171.09C1558.58,-162.81 1682.27,-147.07 1787.5,-132 1788.78,-131.82 1790.07,-131.63 1791.37,-131.44"/>
<polygon fill="midnightblue" stroke="midnightblue" points="1792.12,-134.87 1801.5,-129.94 1791.09,-127.94 1792.12,-134.87"/>
</g>
<!-- Node26&#45;&gt;Node33 -->
<g id="edge29" class="edge">
<title>Node26&#45;&gt;Node33</title>
<path fill="none" stroke="midnightblue" d="M1396.7,-176.05C1281.88,-173.19 998.54,-162.89 970.5,-132 964.52,-125.42 964.41,-118.48 970.5,-112 1014.48,-65.19 1483.69,-83.39 1547.5,-76 1550.32,-75.67 1553.23,-75.3 1556.17,-74.89"/>
<polygon fill="midnightblue" stroke="midnightblue" points="1556.85,-78.32 1566.23,-73.39 1555.82,-71.4 1556.85,-78.32"/>
</g>
<!-- Node34 -->
<g id="node29" class="node">
<title>Node34</title>
<g id="a_node29"><a xlink:href="stream_8h.html" target="_top" xlink:title=" ">
<polygon fill="white" stroke="black" points="1642,-0.5 1642,-19.5 1741,-19.5 1741,-0.5 1642,-0.5"/>
<text text-anchor="middle" x="1691.5" y="-7.5" font-family="FreeSans" font-size="10.00">magick/stream.h</text>
</a>
</g>
</g>
<!-- Node26&#45;&gt;Node34 -->
<g id="edge39" class="edge">
<title>Node26&#45;&gt;Node34</title>
<path fill="none" stroke="midnightblue" d="M1492.32,-173.46C1575.02,-166.86 1737.6,-151.53 1754.5,-132 1783.01,-99.05 1738.01,-50.97 1710.43,-26.52"/>
<polygon fill="midnightblue" stroke="midnightblue" points="1712.39,-23.6 1702.53,-19.74 1707.83,-28.91 1712.39,-23.6"/>
</g>
<!-- Node29 -->
<g id="node30" class="node">
<title>Node29</title>
<g id="a_node30"><a xlink:href="colorspace_8h.html" target="_top" xlink:title=" ">
<polygon fill="white" stroke="black" points="1227,-112.5 1227,-131.5 1344,-131.5 1344,-112.5 1227,-112.5"/>
<text text-anchor="middle" x="1285.5" y="-119.5" font-family="FreeSans" font-size="10.00">magick/colorspace.h</text>
</a>
</g>
</g>
<!-- Node26&#45;&gt;Node29 -->
<g id="edge32" class="edge">
<title>Node26&#45;&gt;Node29</title>
<path fill="none" stroke="midnightblue" d="M1419.31,-168.44C1392.56,-159.36 1350.1,-144.94 1320.19,-134.78"/>
<polygon fill="midnightblue" stroke="midnightblue" points="1321.17,-131.42 1310.58,-131.52 1318.92,-138.05 1321.17,-131.42"/>
</g>
<!-- Node35 -->
<g id="node31" class="node">
<title>Node35</title>
<g id="a_node31"><a xlink:href="cache-view_8h.html" target="_top" xlink:title=" ">
<polygon fill="white" stroke="red" points="1362,-112.5 1362,-131.5 1481,-131.5 1481,-112.5 1362,-112.5"/>
<text text-anchor="middle" x="1421.5" y="-119.5" font-family="FreeSans" font-size="10.00">magick/cache&#45;view.h</text>
</a>
</g>
</g>
<!-- Node26&#45;&gt;Node35 -->
<g id="edge33" class="edge">
<title>Node26&#45;&gt;Node35</title>
<path fill="none" stroke="midnightblue" d="M1440.7,-168.08C1437.59,-160.77 1433.08,-150.18 1429.21,-141.1"/>
<polygon fill="midnightblue" stroke="midnightblue" points="1432.37,-139.58 1425.23,-131.75 1425.93,-142.32 1432.37,-139.58"/>
</g>
<!-- Node36 -->
<g id="node32" class="node">
<title>Node36</title>
<g id="a_node32"><a xlink:href="composite_8h.html" target="_top" xlink:title=" ">
<polygon fill="white" stroke="black" points="1499.5,-112.5 1499.5,-131.5 1615.5,-131.5 1615.5,-112.5 1499.5,-112.5"/>
<text text-anchor="middle" x="1557.5" y="-119.5" font-family="FreeSans" font-size="10.00">magick/composite.h</text>
</a>
</g>
</g>
<!-- Node26&#45;&gt;Node36 -->
<g id="edge34" class="edge">
<title>Node26&#45;&gt;Node36</title>
<path fill="none" stroke="midnightblue" d="M1462.41,-168.44C1480.75,-159.68 1509.51,-145.94 1530.59,-135.86"/>
<polygon fill="midnightblue" stroke="midnightblue" points="1532.17,-138.99 1539.68,-131.52 1529.15,-132.67 1532.17,-138.99"/>
</g>
<!-- Node37 -->
<g id="node33" class="node">
<title>Node37</title>
<g id="a_node33"><a xlink:href="compress_8h.html" target="_top" xlink:title=" ">
<polygon fill="white" stroke="black" points="1633.5,-112.5 1633.5,-131.5 1745.5,-131.5 1745.5,-112.5 1633.5,-112.5"/>
<text text-anchor="middle" x="1689.5" y="-119.5" font-family="FreeSans" font-size="10.00">magick/compress.h</text>
</a>
</g>
</g>
<!-- Node26&#45;&gt;Node37 -->
<g id="edge35" class="edge">
<title>Node26&#45;&gt;Node37</title>
<path fill="none" stroke="midnightblue" d="M1483.32,-168.44C1526.06,-159.02 1594.83,-143.87 1641.07,-133.68"/>
<polygon fill="midnightblue" stroke="midnightblue" points="1641.85,-137.09 1650.86,-131.52 1640.34,-130.25 1641.85,-137.09"/>
</g>
<!-- Node38 -->
<g id="node34" class="node">
<title>Node38</title>
<g id="a_node34"><a xlink:href="effect_8h.html" target="_top" xlink:title=" ">
<polygon fill="white" stroke="red" points="988.5,-112.5 988.5,-131.5 1080.5,-131.5 1080.5,-112.5 988.5,-112.5"/>
<text text-anchor="middle" x="1034.5" y="-119.5" font-family="FreeSans" font-size="10.00">magick/effect.h</text>
</a>
</g>
</g>
<!-- Node26&#45;&gt;Node38 -->
<g id="edge36" class="edge">
<title>Node26&#45;&gt;Node38</title>
<path fill="none" stroke="midnightblue" d="M1396.77,-171.5C1330.47,-163.75 1206.52,-148.81 1090.79,-132.14"/>
<polygon fill="midnightblue" stroke="midnightblue" points="1091.09,-128.65 1080.69,-130.68 1090.09,-135.58 1091.09,-128.65"/>
</g>
<!-- Node40 -->
<g id="node35" class="node">
<title>Node40</title>
<g id="a_node35"><a xlink:href="geometry_8h.html" target="_top" xlink:title=" ">
<polygon fill="white" stroke="black" points="1098.5,-112.5 1098.5,-131.5 1208.5,-131.5 1208.5,-112.5 1098.5,-112.5"/>
<text text-anchor="middle" x="1153.5" y="-119.5" font-family="FreeSans" font-size="10.00">magick/geometry.h</text>
</a>
</g>
</g>
<!-- Node26&#45;&gt;Node40 -->
<g id="edge37" class="edge">
<title>Node26&#45;&gt;Node40</title>
<path fill="none" stroke="midnightblue" d="M1398.39,-168.44C1347.09,-158.92 1264.23,-143.55 1209.31,-133.36"/>
<polygon fill="midnightblue" stroke="midnightblue" points="1209.86,-129.9 1199.39,-131.52 1208.59,-136.78 1209.86,-129.9"/>
</g>
<!-- Node26&#45;&gt;Node44 -->
<g id="edge38" class="edge">
<title>Node26&#45;&gt;Node44</title>
<path fill="none" stroke="midnightblue" d="M1396.76,-173.65C1305.6,-167.07 1100.51,-151.4 928.5,-132 927.23,-131.86 925.94,-131.71 924.64,-131.56"/>
<polygon fill="midnightblue" stroke="midnightblue" points="924.92,-128.06 914.56,-130.32 924.06,-135.01 924.92,-128.06"/>
</g>
<!-- Node27&#45;&gt;Node31 -->
<g id="edge27" class="edge">
<title>Node27&#45;&gt;Node31</title>
<path fill="none" stroke="midnightblue" d="M1857.07,-112.32C1867.92,-104.18 1884.38,-91.84 1897.38,-82.09"/>
<polygon fill="midnightblue" stroke="midnightblue" points="1899.82,-84.63 1905.72,-75.83 1895.62,-79.03 1899.82,-84.63"/>
</g>
<!-- Node31&#45;&gt;Node5 -->
<g id="edge28" class="edge">
<title>Node31&#45;&gt;Node5</title>
<path fill="none" stroke="midnightblue" d="M1917.5,-56.08C1917.5,-49.01 1917.5,-38.86 1917.5,-29.99"/>
<polygon fill="midnightblue" stroke="midnightblue" points="1921,-29.75 1917.5,-19.75 1914,-29.75 1921,-29.75"/>
</g>
<!-- Node33&#45;&gt;Node26 -->
<g id="edge30" class="edge">
<title>Node33&#45;&gt;Node26</title>
<path fill="none" stroke="midnightblue" d="M1569.44,-75.52C1568.11,-75.69 1566.8,-75.85 1565.5,-76 1501.69,-83.39 1032.48,-65.19 988.5,-112 982.41,-118.48 982.52,-125.42 988.5,-132 1015.03,-161.22 1269.99,-172.02 1386.75,-175.52"/>
<polygon fill="midnightblue" stroke="midnightblue" points="1386.84,-179.02 1396.94,-175.82 1387.05,-172.03 1386.84,-179.02"/>
</g>
<!-- Node33&#45;&gt;Node34 -->
<g id="edge31" class="edge">
<title>Node33&#45;&gt;Node34</title>
<path fill="none" stroke="midnightblue" d="M1622.67,-56.32C1635.35,-47.98 1654.73,-35.21 1669.71,-25.35"/>
<polygon fill="midnightblue" stroke="midnightblue" points="1671.93,-28.08 1678.36,-19.65 1668.08,-22.23 1671.93,-28.08"/>
</g>
<!-- Node52&#45;&gt;Node33 -->
<g id="edge43" class="edge">
<title>Node52&#45;&gt;Node33</title>
<path fill="none" stroke="midnightblue" d="M2226.79,-113.19C2223.65,-112.76 2220.53,-112.36 2217.5,-112 2013.26,-88.07 1768.85,-74.55 1662.87,-69.41"/>
<polygon fill="midnightblue" stroke="midnightblue" points="1662.9,-65.91 1652.75,-68.93 1662.57,-72.9 1662.9,-65.91"/>
</g>
<!-- Node56&#45;&gt;Node5 -->
<g id="edge49" class="edge">
<title>Node56&#45;&gt;Node5</title>
<path fill="none" stroke="midnightblue" d="M2490.39,-113.62C2487.38,-113.07 2484.39,-112.52 2481.5,-112 2283.58,-76.1 2046.45,-33.9 1955.53,-17.75"/>
<polygon fill="midnightblue" stroke="midnightblue" points="1956.13,-14.3 1945.68,-16 1954.91,-21.19 1956.13,-14.3"/>
</g>
<!-- Node56&#45;&gt;Node31 -->
<g id="edge50" class="edge">
<title>Node56&#45;&gt;Node31</title>
<path fill="none" stroke="midnightblue" d="M2490.44,-113.3C2487.42,-112.82 2484.42,-112.38 2481.5,-112 2302.66,-88.5 2090.18,-75.56 1984.35,-70.12"/>
<polygon fill="midnightblue" stroke="midnightblue" points="1984.3,-66.61 1974.14,-69.6 1983.95,-73.61 1984.3,-66.61"/>
</g>
<!-- Node57&#45;&gt;Node9 -->
<g id="edge52" class="edge">
<title>Node57&#45;&gt;Node9</title>
<path fill="none" stroke="midnightblue" d="M2097.86,-113.04C2094.7,-112.66 2091.56,-112.32 2088.5,-112 1856.53,-88.11 1792.83,-112.89 1558.58,-75.86"/>
<polygon fill="midnightblue" stroke="midnightblue" points="1558.81,-72.35 1548.38,-74.22 1557.7,-79.26 1558.81,-72.35"/>
</g>
<!-- Node57&#45;&gt;Node15 -->
<g id="edge53" class="edge">
<title>Node57&#45;&gt;Node15</title>
<path fill="none" stroke="midnightblue" d="M2097.86,-113.01C2094.7,-112.64 2091.56,-112.3 2088.5,-112 1825.46,-85.95 1753.86,-115.05 1488.6,-75.89"/>
<polygon fill="midnightblue" stroke="midnightblue" points="1489.09,-72.42 1478.68,-74.4 1488.05,-79.34 1489.09,-72.42"/>
</g>
<!-- Node59&#45;&gt;Node11 -->
<g id="edge57" class="edge">
<title>Node59&#45;&gt;Node11</title>
<path fill="none" stroke="midnightblue" d="M1945.29,-115.64C1929.92,-114.43 1913.64,-113.16 1898.5,-112 1686.24,-95.74 1628.53,-110.59 1414.01,-75.76"/>
<polygon fill="midnightblue" stroke="midnightblue" points="1414.44,-72.28 1404,-74.12 1413.3,-79.19 1414.44,-72.28"/>
</g>
<!-- Node65&#45;&gt;Node26 -->
<g id="edge59" class="edge">
<title>Node65&#45;&gt;Node26</title>
<path fill="none" stroke="midnightblue" d="M2193.22,-224.96C2189.93,-224.61 2186.68,-224.29 2183.5,-224 1930.15,-200.69 1626.79,-186.52 1502.21,-181.3"/>
<polygon fill="midnightblue" stroke="midnightblue" points="1502.27,-177.8 1492.13,-180.88 1501.97,-184.79 1502.27,-177.8"/>
</g>
<!-- Node65&#45;&gt;Node27 -->
<g id="edge60" class="edge">
<title>Node65&#45;&gt;Node27</title>
<path fill="none" stroke="midnightblue" d="M2208.77,-224.46C2165.37,-216.33 2099.71,-203.12 2043.5,-188 1984.65,-172.17 1917.52,-149.03 1878.49,-135.05"/>
<polygon fill="midnightblue" stroke="midnightblue" points="1879.31,-131.63 1868.72,-131.54 1876.94,-138.22 1879.31,-131.63"/>
</g>
<!-- Node65&#45;&gt;Node53 -->
<g id="edge61" class="edge">
<title>Node65&#45;&gt;Node53</title>
<path fill="none" stroke="midnightblue" d="M2268.19,-224.37C2293.65,-205.57 2354.34,-160.77 2385.81,-137.53"/>
<polygon fill="midnightblue" stroke="midnightblue" points="2387.9,-140.35 2393.86,-131.59 2383.74,-134.72 2387.9,-140.35"/>
</g>
<!-- Node65&#45;&gt;Node57 -->
<g id="edge62" class="edge">
<title>Node65&#45;&gt;Node57</title>
<path fill="none" stroke="midnightblue" d="M2255.75,-224.46C2254.17,-211.04 2249.4,-184.82 2235.5,-168 2223.39,-153.35 2205.22,-142.69 2189.05,-135.43"/>
<polygon fill="midnightblue" stroke="midnightblue" points="2190.4,-132.21 2179.83,-131.55 2187.69,-138.66 2190.4,-132.21"/>
</g>
<!-- Node65&#45;&gt;Node59 -->
<g id="edge63" class="edge">
<title>Node65&#45;&gt;Node59</title>
<path fill="none" stroke="midnightblue" d="M2207.56,-224.46C2160.82,-215.71 2094.23,-201.51 2071.5,-188 2051.32,-176.01 2034.06,-154.92 2023.52,-140.01"/>
<polygon fill="midnightblue" stroke="midnightblue" points="2026.37,-137.98 2017.86,-131.67 2020.58,-141.91 2026.37,-137.98"/>
</g>
<!-- Node65&#45;&gt;Node66 -->
<g id="edge64" class="edge">
<title>Node65&#45;&gt;Node66</title>
<path fill="none" stroke="midnightblue" d="M2239.95,-224.32C2223.51,-215.7 2198.07,-202.36 2179.03,-192.39"/>
<polygon fill="midnightblue" stroke="midnightblue" points="2180.49,-189.2 2170.01,-187.65 2177.24,-195.4 2180.49,-189.2"/>
</g>
<!-- Node66&#45;&gt;Node52 -->
<g id="edge66" class="edge">
<title>Node66&#45;&gt;Node52</title>
<path fill="none" stroke="midnightblue" d="M2172.51,-168.44C2192.09,-159.64 2222.81,-145.81 2245.23,-135.72"/>
<polygon fill="midnightblue" stroke="midnightblue" points="2246.89,-138.81 2254.57,-131.52 2244.02,-132.43 2246.89,-138.81"/>
</g>
<!-- Node66&#45;&gt;Node53 -->
<g id="edge67" class="edge">
<title>Node66&#45;&gt;Node53</title>
<path fill="none" stroke="midnightblue" d="M2193.43,-168.44C2237.39,-159.02 2308.13,-143.87 2355.68,-133.68"/>
<polygon fill="midnightblue" stroke="midnightblue" points="2356.71,-137.03 2365.76,-131.52 2355.25,-130.19 2356.71,-137.03"/>
</g>
<!-- Node66&#45;&gt;Node57 -->
<g id="edge65" class="edge">
<title>Node66&#45;&gt;Node57</title>
<path fill="none" stroke="midnightblue" d="M2153.5,-168.08C2153.5,-161.01 2153.5,-150.86 2153.5,-141.99"/>
<polygon fill="midnightblue" stroke="midnightblue" points="2157,-141.75 2153.5,-131.75 2150,-141.75 2157,-141.75"/>
</g>
<!-- Node66&#45;&gt;Node59 -->
<g id="edge68" class="edge">
<title>Node66&#45;&gt;Node59</title>
<path fill="none" stroke="midnightblue" d="M2131.16,-168.44C2107.75,-159.48 2070.76,-145.31 2044.31,-135.18"/>
<polygon fill="midnightblue" stroke="midnightblue" points="2045.33,-131.82 2034.74,-131.52 2042.82,-138.36 2045.33,-131.82"/>
</g>
<!-- Node71&#45;&gt;Node52 -->
<g id="edge74" class="edge">
<title>Node71&#45;&gt;Node52</title>
<path fill="none" stroke="midnightblue" d="M2394.22,-224.37C2372.03,-205.73 2319.39,-161.53 2291.52,-138.13"/>
<polygon fill="midnightblue" stroke="midnightblue" points="2293.64,-135.34 2283.73,-131.59 2289.14,-140.7 2293.64,-135.34"/>
</g>
<!-- Node71&#45;&gt;Node53 -->
<g id="edge75" class="edge">
<title>Node71&#45;&gt;Node53</title>
<path fill="none" stroke="midnightblue" d="M2404.58,-224.37C2404.74,-206.62 2405.11,-165.67 2405.33,-141.6"/>
<polygon fill="midnightblue" stroke="midnightblue" points="2408.83,-141.62 2405.42,-131.59 2401.83,-141.56 2408.83,-141.62"/>
</g>
<!-- Node71&#45;&gt;Node68 -->
<g id="edge76" class="edge">
<title>Node71&#45;&gt;Node68</title>
<path fill="none" stroke="midnightblue" d="M2418.8,-224.32C2432.68,-215.9 2453.99,-202.97 2470.3,-193.07"/>
<polygon fill="midnightblue" stroke="midnightblue" points="2472.5,-195.83 2479.24,-187.65 2468.87,-189.85 2472.5,-195.83"/>
</g>
</g>
</svg>
