<?xml version="1.0" encoding="UTF-8" standalone="no"?>
<!DOCTYPE svg PUBLIC "-//W3C//DTD SVG 1.1//EN"
 "http://www.w3.org/Graphics/SVG/1.1/DTD/svg11.dtd">
<!-- Generated by graphviz version 2.43.0 (0)
 -->
<!-- Title: fx&#45;private.h Pages: 1 -->
<svg width="205pt" height="84pt"
 viewBox="0.00 0.00 204.50 84.00" xmlns="http://www.w3.org/2000/svg" xmlns:xlink="http://www.w3.org/1999/xlink">
<g id="graph0" class="graph" transform="scale(1 1) rotate(0) translate(4 80)">
<title>fx&#45;private.h</title>
<polygon fill="white" stroke="transparent" points="-4,4 -4,-80 200.5,-80 200.5,4 -4,4"/>
<!-- Node1 -->
<g id="node1" class="node">
<title>Node1</title>
<g id="a_node1"><a xlink:title=" ">
<polygon fill="#bfbfbf" stroke="black" points="59,-56.5 59,-75.5 133,-75.5 133,-56.5 59,-56.5"/>
<text text-anchor="middle" x="96" y="-63.5" font-family="FreeSans" font-size="10.00">fx&#45;private.h</text>
</a>
</g>
</g>
<!-- Node2 -->
<g id="node2" class="node">
<title>Node2</title>
<g id="a_node2"><a xlink:href="artifact_8c.html" target="_top" xlink:title=" ">
<polygon fill="white" stroke="black" points="0,-0.5 0,-19.5 60,-19.5 60,-0.5 0,-0.5"/>
<text text-anchor="middle" x="30" y="-7.5" font-family="FreeSans" font-size="10.00">artifact.c</text>
</a>
</g>
</g>
<!-- Node1&#45;&gt;Node2 -->
<g id="edge1" class="edge">
<title>Node1&#45;&gt;Node2</title>
<path fill="none" stroke="midnightblue" d="M77.45,-49.82C65.62,-40.15 50.71,-27.95 40.8,-19.83"/>
<polygon fill="midnightblue" stroke="midnightblue" points="75.44,-52.7 85.4,-56.32 79.87,-47.28 75.44,-52.7"/>
</g>
<!-- Node3 -->
<g id="node3" class="node">
<title>Node3</title>
<g id="a_node3"><a xlink:href="fx_8c.html" target="_top" xlink:title=" ">
<polygon fill="white" stroke="black" points="78.5,-0.5 78.5,-19.5 113.5,-19.5 113.5,-0.5 78.5,-0.5"/>
<text text-anchor="middle" x="96" y="-7.5" font-family="FreeSans" font-size="10.00">fx.c</text>
</a>
</g>
</g>
<!-- Node1&#45;&gt;Node3 -->
<g id="edge2" class="edge">
<title>Node1&#45;&gt;Node3</title>
<path fill="none" stroke="midnightblue" d="M96,-45.8C96,-36.91 96,-26.78 96,-19.75"/>
<polygon fill="midnightblue" stroke="midnightblue" points="92.5,-46.08 96,-56.08 99.5,-46.08 92.5,-46.08"/>
</g>
<!-- Node4 -->
<g id="node4" class="node">
<title>Node4</title>
<g id="a_node4"><a xlink:href="property_8c.html" target="_top" xlink:title=" ">
<polygon fill="white" stroke="black" points="131.5,-0.5 131.5,-19.5 196.5,-19.5 196.5,-0.5 131.5,-0.5"/>
<text text-anchor="middle" x="164" y="-7.5" font-family="FreeSans" font-size="10.00">property.c</text>
</a>
</g>
</g>
<!-- Node1&#45;&gt;Node4 -->
<g id="edge3" class="edge">
<title>Node1&#45;&gt;Node4</title>
<path fill="none" stroke="midnightblue" d="M114.76,-50.1C127,-40.38 142.56,-28.03 152.88,-19.83"/>
<polygon fill="midnightblue" stroke="midnightblue" points="112.58,-47.36 106.93,-56.32 116.93,-52.85 112.58,-47.36"/>
</g>
</g>
</svg>
