<?xml version="1.0" encoding="UTF-8" standalone="no"?>
<!DOCTYPE svg PUBLIC "-//W3C//DTD SVG 1.1//EN"
 "http://www.w3.org/Graphics/SVG/1.1/DTD/svg11.dtd">
<!-- Generated by graphviz version 2.43.0 (0)
 -->
<!-- Title: gem.h Pages: 1 -->
<svg width="1787pt" height="420pt"
 viewBox="0.00 0.00 1786.87 420.00" xmlns="http://www.w3.org/2000/svg" xmlns:xlink="http://www.w3.org/1999/xlink">
<g id="graph0" class="graph" transform="scale(1 1) rotate(0) translate(4 416)">
<title>gem.h</title>
<polygon fill="white" stroke="transparent" points="-4,4 -4,-416 1782.87,-416 1782.87,4 -4,4"/>
<!-- Node1 -->
<g id="node1" class="node">
<title>Node1</title>
<g id="a_node1"><a xlink:title=" ">
<polygon fill="#bfbfbf" stroke="black" points="440.46,-392.5 440.46,-411.5 487.46,-411.5 487.46,-392.5 440.46,-392.5"/>
<text text-anchor="middle" x="463.96" y="-399.5" font-family="FreeSans" font-size="10.00">gem.h</text>
</a>
</g>
</g>
<!-- Node2 -->
<g id="node2" class="node">
<title>Node2</title>
<g id="a_node2"><a xlink:href="random___8h.html" target="_top" xlink:title=" ">
<polygon fill="white" stroke="black" points="352.46,-280.5 352.46,-299.5 459.46,-299.5 459.46,-280.5 352.46,-280.5"/>
<text text-anchor="middle" x="405.96" y="-287.5" font-family="FreeSans" font-size="10.00">magick/random_.h</text>
</a>
</g>
</g>
<!-- Node1&#45;&gt;Node2 -->
<g id="edge1" class="edge">
<title>Node1&#45;&gt;Node2</title>
<path fill="none" stroke="midnightblue" d="M459.41,-392.37C449.93,-374.38 427.87,-332.55 415.26,-308.63"/>
<polygon fill="midnightblue" stroke="midnightblue" points="418.25,-306.8 410.49,-299.59 412.06,-310.07 418.25,-306.8"/>
</g>
<!-- Node8 -->
<g id="node8" class="node">
<title>Node8</title>
<g id="a_node8"><a xlink:href="visual-effects_8h.html" target="_top" xlink:title=" ">
<polygon fill="white" stroke="black" points="450.46,-336.5 450.46,-355.5 581.46,-355.5 581.46,-336.5 450.46,-336.5"/>
<text text-anchor="middle" x="515.96" y="-343.5" font-family="FreeSans" font-size="10.00">magick/visual&#45;effects.h</text>
</a>
</g>
</g>
<!-- Node1&#45;&gt;Node8 -->
<g id="edge8" class="edge">
<title>Node1&#45;&gt;Node8</title>
<path fill="none" stroke="midnightblue" d="M472.55,-392.08C480.12,-384.22 491.34,-372.57 500.48,-363.08"/>
<polygon fill="midnightblue" stroke="midnightblue" points="503.12,-365.38 507.54,-355.75 498.08,-360.53 503.12,-365.38"/>
</g>
<!-- Node3 -->
<g id="node3" class="node">
<title>Node3</title>
<g id="a_node3"><a xlink:href="string___8h.html" target="_top" xlink:title=" ">
<polygon fill="white" stroke="black" points="11.96,-112.5 11.96,-131.5 109.96,-131.5 109.96,-112.5 11.96,-112.5"/>
<text text-anchor="middle" x="60.96" y="-119.5" font-family="FreeSans" font-size="10.00">magick/string_.h</text>
</a>
</g>
</g>
<!-- Node2&#45;&gt;Node3 -->
<g id="edge2" class="edge">
<title>Node2&#45;&gt;Node3</title>
<path fill="none" stroke="midnightblue" d="M352.45,-284.39C251.85,-274.41 41.27,-246.78 3.96,-188 -8.37,-168.57 14.52,-149.1 34.86,-136.61"/>
<polygon fill="midnightblue" stroke="midnightblue" points="36.7,-139.58 43.6,-131.54 33.19,-133.53 36.7,-139.58"/>
</g>
<!-- Node4 -->
<g id="node4" class="node">
<title>Node4</title>
<g id="a_node4"><a xlink:title=" ">
<polygon fill="white" stroke="#bfbfbf" points="71.96,-0.5 71.96,-19.5 127.96,-19.5 127.96,-0.5 71.96,-0.5"/>
<text text-anchor="middle" x="99.96" y="-7.5" font-family="FreeSans" font-size="10.00">stdarg.h</text>
</a>
</g>
</g>
<!-- Node3&#45;&gt;Node4 -->
<g id="edge3" class="edge">
<title>Node3&#45;&gt;Node4</title>
<path fill="none" stroke="midnightblue" d="M54.72,-112.23C46.41,-99.4 33.77,-74.97 42.96,-56 49.36,-42.8 61.72,-32.3 73.29,-24.78"/>
<polygon fill="midnightblue" stroke="midnightblue" points="75.12,-27.77 81.88,-19.61 71.51,-21.77 75.12,-27.77"/>
</g>
<!-- Node5 -->
<g id="node5" class="node">
<title>Node5</title>
<g id="a_node5"><a xlink:title=" ">
<polygon fill="white" stroke="#bfbfbf" points="51.96,-56.5 51.96,-75.5 99.96,-75.5 99.96,-56.5 51.96,-56.5"/>
<text text-anchor="middle" x="75.96" y="-63.5" font-family="FreeSans" font-size="10.00">time.h</text>
</a>
</g>
</g>
<!-- Node3&#45;&gt;Node5 -->
<g id="edge4" class="edge">
<title>Node3&#45;&gt;Node5</title>
<path fill="none" stroke="midnightblue" d="M63.44,-112.08C65.45,-104.85 68.35,-94.41 70.85,-85.4"/>
<polygon fill="midnightblue" stroke="midnightblue" points="74.23,-86.32 73.53,-75.75 67.48,-84.45 74.23,-86.32"/>
</g>
<!-- Node6 -->
<g id="node6" class="node">
<title>Node6</title>
<g id="a_node6"><a xlink:href="exception_8h.html" target="_top" xlink:title=" ">
<polygon fill="white" stroke="black" points="118.46,-56.5 118.46,-75.5 231.46,-75.5 231.46,-56.5 118.46,-56.5"/>
<text text-anchor="middle" x="174.96" y="-63.5" font-family="FreeSans" font-size="10.00">magick/exception.h</text>
</a>
</g>
</g>
<!-- Node3&#45;&gt;Node6 -->
<g id="edge5" class="edge">
<title>Node3&#45;&gt;Node6</title>
<path fill="none" stroke="midnightblue" d="M79.03,-112.44C97.54,-103.68 126.54,-89.94 147.82,-79.86"/>
<polygon fill="midnightblue" stroke="midnightblue" points="149.45,-82.96 156.98,-75.52 146.45,-76.63 149.45,-82.96"/>
</g>
<!-- Node6&#45;&gt;Node4 -->
<g id="edge6" class="edge">
<title>Node6&#45;&gt;Node4</title>
<path fill="none" stroke="midnightblue" d="M162.91,-56.32C151.5,-48.11 134.13,-35.6 120.53,-25.81"/>
<polygon fill="midnightblue" stroke="midnightblue" points="122.39,-22.84 112.23,-19.83 118.3,-28.52 122.39,-22.84"/>
</g>
<!-- Node7 -->
<g id="node7" class="node">
<title>Node7</title>
<g id="a_node7"><a xlink:href="semaphore_8h.html" target="_top" xlink:title=" ">
<polygon fill="white" stroke="black" points="279.46,-0.5 279.46,-19.5 398.46,-19.5 398.46,-0.5 279.46,-0.5"/>
<text text-anchor="middle" x="338.96" y="-7.5" font-family="FreeSans" font-size="10.00">magick/semaphore.h</text>
</a>
</g>
</g>
<!-- Node6&#45;&gt;Node7 -->
<g id="edge7" class="edge">
<title>Node6&#45;&gt;Node7</title>
<path fill="none" stroke="midnightblue" d="M200.95,-56.44C228.66,-47.32 272.72,-32.81 303.58,-22.65"/>
<polygon fill="midnightblue" stroke="midnightblue" points="304.7,-25.97 313.1,-19.52 302.51,-19.32 304.7,-25.97"/>
</g>
<!-- Node9 -->
<g id="node9" class="node">
<title>Node9</title>
<g id="a_node9"><a xlink:href="draw_8h.html" target="_top" xlink:title=" ">
<polygon fill="white" stroke="black" points="843.96,-280.5 843.96,-299.5 931.96,-299.5 931.96,-280.5 843.96,-280.5"/>
<text text-anchor="middle" x="887.96" y="-287.5" font-family="FreeSans" font-size="10.00">magick/draw.h</text>
</a>
</g>
</g>
<!-- Node8&#45;&gt;Node9 -->
<g id="edge9" class="edge">
<title>Node8&#45;&gt;Node9</title>
<path fill="none" stroke="midnightblue" d="M574.91,-336.44C646.04,-326.12 764.64,-308.9 833.64,-298.89"/>
<polygon fill="midnightblue" stroke="midnightblue" points="834.46,-302.3 843.86,-297.4 833.46,-295.38 834.46,-302.3"/>
</g>
<!-- Node10 -->
<g id="node10" class="node">
<title>Node10</title>
<g id="a_node10"><a xlink:href="geometry_8h.html" target="_top" xlink:title=" ">
<polygon fill="white" stroke="black" points="1180.96,-56.5 1180.96,-75.5 1290.96,-75.5 1290.96,-56.5 1180.96,-56.5"/>
<text text-anchor="middle" x="1235.96" y="-63.5" font-family="FreeSans" font-size="10.00">magick/geometry.h</text>
</a>
</g>
</g>
<!-- Node9&#45;&gt;Node10 -->
<g id="edge10" class="edge">
<title>Node9&#45;&gt;Node10</title>
<path fill="none" stroke="midnightblue" d="M932.16,-289.25C1036.56,-289.1 1306.27,-284.47 1526.96,-244 1611.88,-228.43 1661.46,-257.29 1712.96,-188 1763.93,-119.43 1444.14,-84.15 1301.78,-71.99"/>
<polygon fill="midnightblue" stroke="midnightblue" points="1301.69,-68.47 1291.43,-71.13 1301.11,-75.45 1301.69,-68.47"/>
</g>
<!-- Node11 -->
<g id="node11" class="node">
<title>Node11</title>
<g id="a_node11"><a xlink:href="image_8h.html" target="_top" xlink:title=" ">
<polygon fill="white" stroke="black" points="895.46,-224.5 895.46,-243.5 990.46,-243.5 990.46,-224.5 895.46,-224.5"/>
<text text-anchor="middle" x="942.96" y="-231.5" font-family="FreeSans" font-size="10.00">magick/image.h</text>
</a>
</g>
</g>
<!-- Node9&#45;&gt;Node11 -->
<g id="edge11" class="edge">
<title>Node9&#45;&gt;Node11</title>
<path fill="none" stroke="midnightblue" d="M897.05,-280.08C905.14,-272.14 917.16,-260.34 926.87,-250.8"/>
<polygon fill="midnightblue" stroke="midnightblue" points="929.37,-253.25 934.05,-243.75 924.46,-248.26 929.37,-253.25"/>
</g>
<!-- Node12 -->
<g id="node12" class="node">
<title>Node12</title>
<g id="a_node12"><a xlink:href="color_8h.html" target="_top" xlink:title=" ">
<polygon fill="white" stroke="black" points="130.96,-112.5 130.96,-131.5 218.96,-131.5 218.96,-112.5 130.96,-112.5"/>
<text text-anchor="middle" x="174.96" y="-119.5" font-family="FreeSans" font-size="10.00">magick/color.h</text>
</a>
</g>
</g>
<!-- Node9&#45;&gt;Node12 -->
<g id="edge48" class="edge">
<title>Node9&#45;&gt;Node12</title>
<path fill="none" stroke="midnightblue" d="M843.52,-289.77C701.98,-291.18 265.85,-287.27 176.96,-188 165.92,-175.67 166.87,-156.14 169.7,-141.7"/>
<polygon fill="midnightblue" stroke="midnightblue" points="173.13,-142.4 172.06,-131.86 166.33,-140.77 173.13,-142.4"/>
</g>
<!-- Node13 -->
<g id="node13" class="node">
<title>Node13</title>
<g id="a_node13"><a xlink:href="pixel_8h.html" target="_top" xlink:title=" ">
<polygon fill="white" stroke="black" points="1000.96,-56.5 1000.96,-75.5 1088.96,-75.5 1088.96,-56.5 1000.96,-56.5"/>
<text text-anchor="middle" x="1044.96" y="-63.5" font-family="FreeSans" font-size="10.00">magick/pixel.h</text>
</a>
</g>
</g>
<!-- Node9&#45;&gt;Node13 -->
<g id="edge46" class="edge">
<title>Node9&#45;&gt;Node13</title>
<path fill="none" stroke="midnightblue" d="M932.22,-286.73C1091.95,-278.07 1631.93,-244.8 1681.96,-188 1736.54,-126.04 1967.06,-202.94 1424.96,-112 1309.51,-92.63 1172.96,-78.61 1099.05,-71.74"/>
<polygon fill="midnightblue" stroke="midnightblue" points="1099.32,-68.26 1089.05,-70.82 1098.68,-75.23 1099.32,-68.26"/>
</g>
<!-- Node33 -->
<g id="node33" class="node">
<title>Node33</title>
<g id="a_node33"><a xlink:href="type_8h.html" target="_top" xlink:title=" ">
<polygon fill="white" stroke="black" points="790.96,-224.5 790.96,-243.5 876.96,-243.5 876.96,-224.5 790.96,-224.5"/>
<text text-anchor="middle" x="833.96" y="-231.5" font-family="FreeSans" font-size="10.00">magick/type.h</text>
</a>
</g>
</g>
<!-- Node9&#45;&gt;Node33 -->
<g id="edge47" class="edge">
<title>Node9&#45;&gt;Node33</title>
<path fill="none" stroke="midnightblue" d="M879.05,-280.08C871.18,-272.22 859.53,-260.57 850.05,-251.08"/>
<polygon fill="midnightblue" stroke="midnightblue" points="852.26,-248.35 842.72,-243.75 847.31,-253.3 852.26,-248.35"/>
</g>
<!-- Node11&#45;&gt;Node7 -->
<g id="edge43" class="edge">
<title>Node11&#45;&gt;Node7</title>
<path fill="none" stroke="midnightblue" d="M895.4,-225.36C892.21,-224.88 889.04,-224.43 885.96,-224 753.39,-205.56 711.76,-236.38 586.96,-188 536.02,-168.25 405.78,-65.1 357.42,-26.03"/>
<polygon fill="midnightblue" stroke="midnightblue" points="359.6,-23.29 349.62,-19.71 355.19,-28.73 359.6,-23.29"/>
</g>
<!-- Node11&#45;&gt;Node10 -->
<g id="edge28" class="edge">
<title>Node11&#45;&gt;Node10</title>
<path fill="none" stroke="midnightblue" d="M990.7,-232.23C1031.2,-229.24 1088.8,-219.21 1127.96,-188 1157.5,-164.46 1140.74,-140.1 1165.96,-112 1177.65,-98.98 1193.94,-88.22 1207.86,-80.48"/>
<polygon fill="midnightblue" stroke="midnightblue" points="1209.84,-83.39 1217.04,-75.62 1206.56,-77.21 1209.84,-83.39"/>
</g>
<!-- Node11&#45;&gt;Node12 -->
<g id="edge12" class="edge">
<title>Node11&#45;&gt;Node12</title>
<path fill="none" stroke="midnightblue" d="M895.43,-225.11C892.23,-224.7 889.05,-224.32 885.96,-224 809.39,-215.99 254.35,-235.76 193.96,-188 180.3,-177.19 176.09,-157.11 174.96,-142.11"/>
<polygon fill="midnightblue" stroke="midnightblue" points="178.45,-141.75 174.6,-131.88 171.46,-142 178.45,-141.75"/>
</g>
<!-- Node11&#45;&gt;Node13 -->
<g id="edge33" class="edge">
<title>Node11&#45;&gt;Node13</title>
<path fill="none" stroke="midnightblue" d="M943.38,-224.19C944.78,-202.9 950.87,-147.79 976.96,-112 986.86,-98.43 1002.18,-87.78 1015.78,-80.25"/>
<polygon fill="midnightblue" stroke="midnightblue" points="1017.58,-83.26 1024.83,-75.54 1014.35,-77.05 1017.58,-83.26"/>
</g>
<!-- Node14 -->
<g id="node14" class="node">
<title>Node14</title>
<g id="a_node14"><a xlink:href="colorspace_8h.html" target="_top" xlink:title=" ">
<polygon fill="white" stroke="black" points="1387.46,-0.5 1387.46,-19.5 1504.46,-19.5 1504.46,-0.5 1387.46,-0.5"/>
<text text-anchor="middle" x="1445.96" y="-7.5" font-family="FreeSans" font-size="10.00">magick/colorspace.h</text>
</a>
</g>
</g>
<!-- Node11&#45;&gt;Node14 -->
<g id="edge20" class="edge">
<title>Node11&#45;&gt;Node14</title>
<path fill="none" stroke="midnightblue" d="M990.54,-231.88C1150.2,-227.88 1658.22,-213.23 1681.96,-188 1751.69,-113.9 1571.05,-48.21 1486.66,-22.5"/>
<polygon fill="midnightblue" stroke="midnightblue" points="1487.45,-19.09 1476.86,-19.57 1485.44,-25.79 1487.45,-19.09"/>
</g>
<!-- Node16 -->
<g id="node16" class="node">
<title>Node16</title>
<g id="a_node16"><a xlink:href="blob_8h.html" target="_top" xlink:title=" ">
<polygon fill="white" stroke="black" points="1322.96,-168.5 1322.96,-187.5 1408.96,-187.5 1408.96,-168.5 1322.96,-168.5"/>
<text text-anchor="middle" x="1365.96" y="-175.5" font-family="FreeSans" font-size="10.00">magick/blob.h</text>
</a>
</g>
</g>
<!-- Node11&#45;&gt;Node16 -->
<g id="edge17" class="edge">
<title>Node11&#45;&gt;Node16</title>
<path fill="none" stroke="midnightblue" d="M990.55,-226.98C1059.1,-218.84 1189.18,-203.55 1299.96,-188 1304.09,-187.42 1308.39,-186.79 1312.72,-186.14"/>
<polygon fill="midnightblue" stroke="midnightblue" points="1313.48,-189.57 1322.85,-184.62 1312.44,-182.65 1313.48,-189.57"/>
</g>
<!-- Node17 -->
<g id="node17" class="node">
<title>Node17</title>
<g id="a_node17"><a xlink:href="stream_8h.html" target="_top" xlink:title=" ">
<polygon fill="white" stroke="black" points="1316.46,-112.5 1316.46,-131.5 1415.46,-131.5 1415.46,-112.5 1316.46,-112.5"/>
<text text-anchor="middle" x="1365.96" y="-119.5" font-family="FreeSans" font-size="10.00">magick/stream.h</text>
</a>
</g>
</g>
<!-- Node11&#45;&gt;Node17 -->
<g id="edge44" class="edge">
<title>Node11&#45;&gt;Node17</title>
<path fill="none" stroke="midnightblue" d="M990.57,-233.73C1056.9,-233.18 1179.8,-226.4 1275.96,-188 1304.58,-176.58 1332.55,-154.08 1349.52,-138.79"/>
<polygon fill="midnightblue" stroke="midnightblue" points="1351.96,-141.3 1356.92,-131.94 1347.21,-136.16 1351.96,-141.3"/>
</g>
<!-- Node18 -->
<g id="node18" class="node">
<title>Node18</title>
<g id="a_node18"><a xlink:href="cache-view_8h.html" target="_top" xlink:title=" ">
<polygon fill="white" stroke="black" points="985.46,-112.5 985.46,-131.5 1104.46,-131.5 1104.46,-112.5 985.46,-112.5"/>
<text text-anchor="middle" x="1044.96" y="-119.5" font-family="FreeSans" font-size="10.00">magick/cache&#45;view.h</text>
</a>
</g>
</g>
<!-- Node11&#45;&gt;Node18 -->
<g id="edge21" class="edge">
<title>Node11&#45;&gt;Node18</title>
<path fill="none" stroke="midnightblue" d="M950.17,-224.43C960.82,-211.84 981.5,-187.72 999.96,-168 1009.22,-158.12 1019.92,-147.39 1028.56,-138.89"/>
<polygon fill="midnightblue" stroke="midnightblue" points="1031.12,-141.29 1035.82,-131.8 1026.23,-136.28 1031.12,-141.29"/>
</g>
<!-- Node19 -->
<g id="node19" class="node">
<title>Node19</title>
<g id="a_node19"><a xlink:href="composite_8h.html" target="_top" xlink:title=" ">
<polygon fill="white" stroke="black" points="1426.96,-168.5 1426.96,-187.5 1542.96,-187.5 1542.96,-168.5 1426.96,-168.5"/>
<text text-anchor="middle" x="1484.96" y="-175.5" font-family="FreeSans" font-size="10.00">magick/composite.h</text>
</a>
</g>
</g>
<!-- Node11&#45;&gt;Node19 -->
<g id="edge23" class="edge">
<title>Node11&#45;&gt;Node19</title>
<path fill="none" stroke="midnightblue" d="M990.56,-229.11C1074.42,-222.12 1254.23,-206.53 1416.7,-188.11"/>
<polygon fill="midnightblue" stroke="midnightblue" points="1417.34,-191.55 1426.88,-186.94 1416.54,-184.6 1417.34,-191.55"/>
</g>
<!-- Node20 -->
<g id="node20" class="node">
<title>Node20</title>
<g id="a_node20"><a xlink:href="compress_8h.html" target="_top" xlink:title=" ">
<polygon fill="white" stroke="black" points="1560.96,-168.5 1560.96,-187.5 1672.96,-187.5 1672.96,-168.5 1560.96,-168.5"/>
<text text-anchor="middle" x="1616.96" y="-175.5" font-family="FreeSans" font-size="10.00">magick/compress.h</text>
</a>
</g>
</g>
<!-- Node11&#45;&gt;Node20 -->
<g id="edge24" class="edge">
<title>Node11&#45;&gt;Node20</title>
<path fill="none" stroke="midnightblue" d="M990.82,-230.51C1092.09,-225 1335.71,-210.57 1550.42,-188.1"/>
<polygon fill="midnightblue" stroke="midnightblue" points="1551.04,-191.56 1560.62,-187.03 1550.31,-184.59 1551.04,-191.56"/>
</g>
<!-- Node21 -->
<g id="node21" class="node">
<title>Node21</title>
<g id="a_node21"><a xlink:href="effect_8h.html" target="_top" xlink:title=" ">
<polygon fill="white" stroke="black" points="1174.96,-168.5 1174.96,-187.5 1266.96,-187.5 1266.96,-168.5 1174.96,-168.5"/>
<text text-anchor="middle" x="1220.96" y="-175.5" font-family="FreeSans" font-size="10.00">magick/effect.h</text>
</a>
</g>
</g>
<!-- Node11&#45;&gt;Node21 -->
<g id="edge25" class="edge">
<title>Node11&#45;&gt;Node21</title>
<path fill="none" stroke="midnightblue" d="M987.01,-224.44C1035.82,-214.96 1114.53,-199.67 1166.99,-189.48"/>
<polygon fill="midnightblue" stroke="midnightblue" points="1167.97,-192.86 1177.12,-187.52 1166.64,-185.99 1167.97,-192.86"/>
</g>
<!-- Node23 -->
<g id="node23" class="node">
<title>Node23</title>
<g id="a_node23"><a xlink:href="layer_8h.html" target="_top" xlink:title=" ">
<polygon fill="white" stroke="black" points="203.46,-168.5 203.46,-187.5 292.46,-187.5 292.46,-168.5 203.46,-168.5"/>
<text text-anchor="middle" x="247.96" y="-175.5" font-family="FreeSans" font-size="10.00">magick/layer.h</text>
</a>
</g>
</g>
<!-- Node11&#45;&gt;Node23 -->
<g id="edge29" class="edge">
<title>Node11&#45;&gt;Node23</title>
<path fill="none" stroke="midnightblue" d="M895.42,-225.15C892.23,-224.73 889.05,-224.34 885.96,-224 630.74,-196.05 562.08,-216.87 302.8,-187.96"/>
<polygon fill="midnightblue" stroke="midnightblue" points="303.03,-184.47 292.7,-186.82 302.25,-191.42 303.03,-184.47"/>
</g>
<!-- Node24 -->
<g id="node24" class="node">
<title>Node24</title>
<g id="a_node24"><a xlink:href="locale___8h.html" target="_top" xlink:title=" ">
<polygon fill="white" stroke="black" points="595.46,-168.5 595.46,-187.5 694.46,-187.5 694.46,-168.5 595.46,-168.5"/>
<text text-anchor="middle" x="644.96" y="-175.5" font-family="FreeSans" font-size="10.00">magick/locale_.h</text>
</a>
</g>
</g>
<!-- Node11&#45;&gt;Node24 -->
<g id="edge30" class="edge">
<title>Node11&#45;&gt;Node24</title>
<path fill="none" stroke="midnightblue" d="M895.75,-224.44C843.21,-214.92 758.35,-199.55 702.12,-189.36"/>
<polygon fill="midnightblue" stroke="midnightblue" points="702.43,-185.86 691.96,-187.52 701.18,-192.74 702.43,-185.86"/>
</g>
<!-- Node26 -->
<g id="node26" class="node">
<title>Node26</title>
<g id="a_node26"><a xlink:href="monitor_8h.html" target="_top" xlink:title=" ">
<polygon fill="white" stroke="black" points="436.96,-168.5 436.96,-187.5 538.96,-187.5 538.96,-168.5 436.96,-168.5"/>
<text text-anchor="middle" x="487.96" y="-175.5" font-family="FreeSans" font-size="10.00">magick/monitor.h</text>
</a>
</g>
</g>
<!-- Node11&#45;&gt;Node26 -->
<g id="edge32" class="edge">
<title>Node11&#45;&gt;Node26</title>
<path fill="none" stroke="midnightblue" d="M895.4,-225.31C892.21,-224.85 889.04,-224.41 885.96,-224 738.4,-204.39 700.71,-206.21 552.96,-188 551.69,-187.84 550.41,-187.68 549.11,-187.52"/>
<polygon fill="midnightblue" stroke="midnightblue" points="549.41,-184.03 539.04,-186.22 548.51,-190.97 549.41,-184.03"/>
</g>
<!-- Node27 -->
<g id="node27" class="node">
<title>Node27</title>
<g id="a_node27"><a xlink:href="profile_8h.html" target="_top" xlink:title=" ">
<polygon fill="white" stroke="black" points="13.46,-168.5 13.46,-187.5 108.46,-187.5 108.46,-168.5 13.46,-168.5"/>
<text text-anchor="middle" x="60.96" y="-175.5" font-family="FreeSans" font-size="10.00">magick/profile.h</text>
</a>
</g>
</g>
<!-- Node11&#45;&gt;Node27 -->
<g id="edge34" class="edge">
<title>Node11&#45;&gt;Node27</title>
<path fill="none" stroke="midnightblue" d="M895.43,-225.1C892.23,-224.69 889.05,-224.32 885.96,-224 565.06,-190.79 482.8,-210.46 160.96,-188 147.32,-187.05 132.63,-185.83 118.84,-184.61"/>
<polygon fill="midnightblue" stroke="midnightblue" points="118.77,-181.09 108.49,-183.67 118.14,-188.06 118.77,-181.09"/>
</g>
<!-- Node28 -->
<g id="node28" class="node">
<title>Node28</title>
<g id="a_node28"><a xlink:href="quantum_8h.html" target="_top" xlink:title=" ">
<polygon fill="white" stroke="black" points="310.96,-168.5 310.96,-187.5 418.96,-187.5 418.96,-168.5 310.96,-168.5"/>
<text text-anchor="middle" x="364.96" y="-175.5" font-family="FreeSans" font-size="10.00">magick/quantum.h</text>
</a>
</g>
</g>
<!-- Node11&#45;&gt;Node28 -->
<g id="edge36" class="edge">
<title>Node11&#45;&gt;Node28</title>
<path fill="none" stroke="midnightblue" d="M895.19,-226.45C889.03,-225.54 882.83,-224.69 876.96,-224 677.56,-200.46 623.69,-210.11 424.83,-188.62"/>
<polygon fill="midnightblue" stroke="midnightblue" points="424.96,-185.11 414.64,-187.51 424.2,-192.07 424.96,-185.11"/>
</g>
<!-- Node30 -->
<g id="node30" class="node">
<title>Node30</title>
<g id="a_node30"><a xlink:href="resample_8h.html" target="_top" xlink:title=" ">
<polygon fill="white" stroke="black" points="1008.96,-168.5 1008.96,-187.5 1118.96,-187.5 1118.96,-168.5 1008.96,-168.5"/>
<text text-anchor="middle" x="1063.96" y="-175.5" font-family="FreeSans" font-size="10.00">magick/resample.h</text>
</a>
</g>
</g>
<!-- Node11&#45;&gt;Node30 -->
<g id="edge40" class="edge">
<title>Node11&#45;&gt;Node30</title>
<path fill="none" stroke="midnightblue" d="M962.14,-224.44C981.87,-215.64 1012.85,-201.81 1035.46,-191.72"/>
<polygon fill="midnightblue" stroke="midnightblue" points="1037.18,-194.79 1044.88,-187.52 1034.32,-188.4 1037.18,-194.79"/>
</g>
<!-- Node31 -->
<g id="node31" class="node">
<title>Node31</title>
<g id="a_node31"><a xlink:href="resize_8h.html" target="_top" xlink:title=" ">
<polygon fill="white" stroke="black" points="712.96,-168.5 712.96,-187.5 806.96,-187.5 806.96,-168.5 712.96,-168.5"/>
<text text-anchor="middle" x="759.96" y="-175.5" font-family="FreeSans" font-size="10.00">magick/resize.h</text>
</a>
</g>
</g>
<!-- Node11&#45;&gt;Node31 -->
<g id="edge42" class="edge">
<title>Node11&#45;&gt;Node31</title>
<path fill="none" stroke="midnightblue" d="M913.97,-224.44C882.78,-215.24 833.03,-200.56 798.56,-190.39"/>
<polygon fill="midnightblue" stroke="midnightblue" points="799.41,-186.99 788.83,-187.52 797.43,-193.7 799.41,-186.99"/>
</g>
<!-- Node32 -->
<g id="node32" class="node">
<title>Node32</title>
<g id="a_node32"><a xlink:href="timer_8h.html" target="_top" xlink:title=" ">
<polygon fill="white" stroke="black" points="824.96,-168.5 824.96,-187.5 914.96,-187.5 914.96,-168.5 824.96,-168.5"/>
<text text-anchor="middle" x="869.96" y="-175.5" font-family="FreeSans" font-size="10.00">magick/timer.h</text>
</a>
</g>
</g>
<!-- Node11&#45;&gt;Node32 -->
<g id="edge45" class="edge">
<title>Node11&#45;&gt;Node32</title>
<path fill="none" stroke="midnightblue" d="M931.24,-224.32C920.13,-216.11 903.22,-203.6 889.98,-193.81"/>
<polygon fill="midnightblue" stroke="midnightblue" points="892.03,-190.97 881.91,-187.83 887.86,-196.59 892.03,-190.97"/>
</g>
<!-- Node12&#45;&gt;Node6 -->
<g id="edge16" class="edge">
<title>Node12&#45;&gt;Node6</title>
<path fill="none" stroke="midnightblue" d="M174.96,-112.08C174.96,-105.01 174.96,-94.86 174.96,-85.99"/>
<polygon fill="midnightblue" stroke="midnightblue" points="178.46,-85.75 174.96,-75.75 171.46,-85.75 178.46,-85.75"/>
</g>
<!-- Node12&#45;&gt;Node13 -->
<g id="edge13" class="edge">
<title>Node12&#45;&gt;Node13</title>
<path fill="none" stroke="midnightblue" d="M219,-118.27C364.77,-109.22 831.32,-80.26 990.87,-70.36"/>
<polygon fill="midnightblue" stroke="midnightblue" points="991.16,-73.85 1000.93,-69.73 990.73,-66.86 991.16,-73.85"/>
</g>
<!-- Node13&#45;&gt;Node14 -->
<g id="edge14" class="edge">
<title>Node13&#45;&gt;Node14</title>
<path fill="none" stroke="midnightblue" d="M1089.03,-59.07C1158.65,-49.69 1294.67,-31.37 1377.22,-20.26"/>
<polygon fill="midnightblue" stroke="midnightblue" points="1377.82,-23.71 1387.26,-18.91 1376.88,-16.77 1377.82,-23.71"/>
</g>
<!-- Node15 -->
<g id="node15" class="node">
<title>Node15</title>
<g id="a_node15"><a xlink:href="constitute_8h.html" target="_top" xlink:title=" ">
<polygon fill="white" stroke="black" points="988.46,-0.5 988.46,-19.5 1101.46,-19.5 1101.46,-0.5 988.46,-0.5"/>
<text text-anchor="middle" x="1044.96" y="-7.5" font-family="FreeSans" font-size="10.00">magick/constitute.h</text>
</a>
</g>
</g>
<!-- Node13&#45;&gt;Node15 -->
<g id="edge15" class="edge">
<title>Node13&#45;&gt;Node15</title>
<path fill="none" stroke="midnightblue" d="M1044.96,-56.08C1044.96,-49.01 1044.96,-38.86 1044.96,-29.99"/>
<polygon fill="midnightblue" stroke="midnightblue" points="1048.46,-29.75 1044.96,-19.75 1041.46,-29.75 1048.46,-29.75"/>
</g>
<!-- Node16&#45;&gt;Node11 -->
<g id="edge18" class="edge">
<title>Node16&#45;&gt;Node11</title>
<path fill="none" stroke="midnightblue" d="M1322.79,-187.31C1321.16,-187.55 1319.55,-187.78 1317.96,-188 1206.1,-203.7 1074.56,-219.14 1000.67,-227.21"/>
<polygon fill="midnightblue" stroke="midnightblue" points="1000.2,-223.74 990.63,-228.3 1000.95,-230.7 1000.2,-223.74"/>
</g>
<!-- Node16&#45;&gt;Node17 -->
<g id="edge19" class="edge">
<title>Node16&#45;&gt;Node17</title>
<path fill="none" stroke="midnightblue" d="M1365.96,-168.08C1365.96,-161.01 1365.96,-150.86 1365.96,-141.99"/>
<polygon fill="midnightblue" stroke="midnightblue" points="1369.46,-141.75 1365.96,-131.75 1362.46,-141.75 1369.46,-141.75"/>
</g>
<!-- Node18&#45;&gt;Node13 -->
<g id="edge22" class="edge">
<title>Node18&#45;&gt;Node13</title>
<path fill="none" stroke="midnightblue" d="M1044.96,-112.08C1044.96,-105.01 1044.96,-94.86 1044.96,-85.99"/>
<polygon fill="midnightblue" stroke="midnightblue" points="1048.46,-85.75 1044.96,-75.75 1041.46,-85.75 1048.46,-85.75"/>
</g>
<!-- Node22 -->
<g id="node22" class="node">
<title>Node22</title>
<g id="a_node22"><a xlink:href="morphology_8h.html" target="_top" xlink:title=" ">
<polygon fill="white" stroke="black" points="1174.96,-112.5 1174.96,-131.5 1296.96,-131.5 1296.96,-112.5 1174.96,-112.5"/>
<text text-anchor="middle" x="1235.96" y="-119.5" font-family="FreeSans" font-size="10.00">magick/morphology.h</text>
</a>
</g>
</g>
<!-- Node21&#45;&gt;Node22 -->
<g id="edge26" class="edge">
<title>Node21&#45;&gt;Node22</title>
<path fill="none" stroke="midnightblue" d="M1223.44,-168.08C1225.45,-160.85 1228.35,-150.41 1230.85,-141.4"/>
<polygon fill="midnightblue" stroke="midnightblue" points="1234.23,-142.32 1233.53,-131.75 1227.48,-140.45 1234.23,-142.32"/>
</g>
<!-- Node22&#45;&gt;Node10 -->
<g id="edge27" class="edge">
<title>Node22&#45;&gt;Node10</title>
<path fill="none" stroke="midnightblue" d="M1235.96,-112.08C1235.96,-105.01 1235.96,-94.86 1235.96,-85.99"/>
<polygon fill="midnightblue" stroke="midnightblue" points="1239.46,-85.75 1235.96,-75.75 1232.46,-85.75 1239.46,-85.75"/>
</g>
<!-- Node25 -->
<g id="node25" class="node">
<title>Node25</title>
<g id="a_node25"><a xlink:href="hashmap_8h.html" target="_top" xlink:title=" ">
<polygon fill="white" stroke="black" points="594.96,-112.5 594.96,-131.5 704.96,-131.5 704.96,-112.5 594.96,-112.5"/>
<text text-anchor="middle" x="649.96" y="-119.5" font-family="FreeSans" font-size="10.00">magick/hashmap.h</text>
</a>
</g>
</g>
<!-- Node24&#45;&gt;Node25 -->
<g id="edge31" class="edge">
<title>Node24&#45;&gt;Node25</title>
<path fill="none" stroke="midnightblue" d="M645.79,-168.08C646.45,-161.01 647.38,-150.86 648.21,-141.99"/>
<polygon fill="midnightblue" stroke="midnightblue" points="651.72,-142.03 649.15,-131.75 644.75,-141.39 651.72,-142.03"/>
</g>
<!-- Node27&#45;&gt;Node3 -->
<g id="edge35" class="edge">
<title>Node27&#45;&gt;Node3</title>
<path fill="none" stroke="midnightblue" d="M60.96,-168.08C60.96,-161.01 60.96,-150.86 60.96,-141.99"/>
<polygon fill="midnightblue" stroke="midnightblue" points="64.46,-141.75 60.96,-131.75 57.46,-141.75 64.46,-141.75"/>
</g>
<!-- Node28&#45;&gt;Node7 -->
<g id="edge39" class="edge">
<title>Node28&#45;&gt;Node7</title>
<path fill="none" stroke="midnightblue" d="M363.57,-168.08C359.47,-141.95 347.45,-65.21 341.87,-29.58"/>
<polygon fill="midnightblue" stroke="midnightblue" points="345.31,-28.91 340.31,-19.57 338.4,-29.99 345.31,-28.91"/>
</g>
<!-- Node28&#45;&gt;Node11 -->
<g id="edge38" class="edge">
<title>Node28&#45;&gt;Node11</title>
<path fill="none" stroke="midnightblue" d="M419.27,-185.83C425.26,-186.62 431.25,-187.37 436.96,-188 636.54,-210.08 690.41,-200.4 888.72,-223.29"/>
<polygon fill="midnightblue" stroke="midnightblue" points="888.55,-226.8 898.89,-224.48 889.36,-219.84 888.55,-226.8"/>
</g>
<!-- Node29 -->
<g id="node29" class="node">
<title>Node29</title>
<g id="a_node29"><a xlink:title=" ">
<polygon fill="white" stroke="#bfbfbf" points="367.46,-112.5 367.46,-131.5 414.46,-131.5 414.46,-112.5 367.46,-112.5"/>
<text text-anchor="middle" x="390.96" y="-119.5" font-family="FreeSans" font-size="10.00">float.h</text>
</a>
</g>
</g>
<!-- Node28&#45;&gt;Node29 -->
<g id="edge37" class="edge">
<title>Node28&#45;&gt;Node29</title>
<path fill="none" stroke="midnightblue" d="M369.26,-168.08C372.82,-160.69 377.99,-149.95 382.39,-140.81"/>
<polygon fill="midnightblue" stroke="midnightblue" points="385.57,-142.28 386.75,-131.75 379.26,-139.24 385.57,-142.28"/>
</g>
<!-- Node30&#45;&gt;Node18 -->
<g id="edge41" class="edge">
<title>Node30&#45;&gt;Node18</title>
<path fill="none" stroke="midnightblue" d="M1060.83,-168.08C1058.28,-160.85 1054.61,-150.41 1051.44,-141.4"/>
<polygon fill="midnightblue" stroke="midnightblue" points="1054.66,-140.02 1048.04,-131.75 1048.06,-142.35 1054.66,-140.02"/>
</g>
</g>
</svg>
