<?xml version="1.0" encoding="UTF-8" standalone="no"?>
<!DOCTYPE svg PUBLIC "-//W3C//DTD SVG 1.1//EN"
 "http://www.w3.org/Graphics/SVG/1.1/DTD/svg11.dtd">
<!-- Generated by graphviz version 2.43.0 (0)
 -->
<!-- Title: gem.c Pages: 1 -->
<svg width="3034pt" height="588pt"
 viewBox="0.00 0.00 3033.50 588.00" xmlns="http://www.w3.org/2000/svg" xmlns:xlink="http://www.w3.org/1999/xlink">
<g id="graph0" class="graph" transform="scale(1 1) rotate(0) translate(4 584)">
<title>gem.c</title>
<polygon fill="white" stroke="transparent" points="-4,4 -4,-584 3029.5,-584 3029.5,4 -4,4"/>
<!-- Node1 -->
<g id="node1" class="node">
<title>Node1</title>
<g id="a_node1"><a xlink:title=" ">
<polygon fill="#bfbfbf" stroke="black" points="2137,-560.5 2137,-579.5 2184,-579.5 2184,-560.5 2137,-560.5"/>
<text text-anchor="middle" x="2160.5" y="-567.5" font-family="FreeSans" font-size="10.00">gem.c</text>
</a>
</g>
</g>
<!-- Node2 -->
<g id="node2" class="node">
<title>Node2</title>
<g id="a_node2"><a xlink:href="studio_8h.html" target="_top" xlink:title=" ">
<polygon fill="white" stroke="black" points="842,-392.5 842,-411.5 937,-411.5 937,-392.5 842,-392.5"/>
<text text-anchor="middle" x="889.5" y="-399.5" font-family="FreeSans" font-size="10.00">magick/studio.h</text>
</a>
</g>
</g>
<!-- Node1&#45;&gt;Node2 -->
<g id="edge1" class="edge">
<title>Node1&#45;&gt;Node2</title>
<path fill="none" stroke="midnightblue" d="M2136.78,-568.78C2046.79,-567.66 1718.12,-561.13 1450.5,-524 1253.83,-496.71 1023.41,-438.59 930.95,-414.17"/>
<polygon fill="midnightblue" stroke="midnightblue" points="931.71,-410.75 921.15,-411.57 929.91,-417.51 931.71,-410.75"/>
</g>
<!-- Node24 -->
<g id="node23" class="node">
<title>Node24</title>
<g id="a_node23"><a xlink:href="color-private_8h.html" target="_top" xlink:title=" ">
<polygon fill="white" stroke="black" points="2097,-504.5 2097,-523.5 2224,-523.5 2224,-504.5 2097,-504.5"/>
<text text-anchor="middle" x="2160.5" y="-511.5" font-family="FreeSans" font-size="10.00">magick/color&#45;private.h</text>
</a>
</g>
</g>
<!-- Node1&#45;&gt;Node24 -->
<g id="edge23" class="edge">
<title>Node1&#45;&gt;Node24</title>
<path fill="none" stroke="midnightblue" d="M2160.5,-560.08C2160.5,-553.01 2160.5,-542.86 2160.5,-533.99"/>
<polygon fill="midnightblue" stroke="midnightblue" points="2164,-533.75 2160.5,-523.75 2157,-533.75 2164,-533.75"/>
</g>
<!-- Node25 -->
<g id="node24" class="node">
<title>Node25</title>
<g id="a_node24"><a xlink:href="image_8h.html" target="_top" xlink:title=" ">
<polygon fill="white" stroke="red" points="2359,-168.5 2359,-187.5 2454,-187.5 2454,-168.5 2359,-168.5"/>
<text text-anchor="middle" x="2406.5" y="-175.5" font-family="FreeSans" font-size="10.00">magick/image.h</text>
</a>
</g>
</g>
<!-- Node1&#45;&gt;Node25 -->
<g id="edge68" class="edge">
<title>Node1&#45;&gt;Node25</title>
<path fill="none" stroke="midnightblue" d="M2184.28,-565.63C2255.71,-554.83 2463.5,-518.32 2463.5,-459 2463.5,-459 2463.5,-459 2463.5,-289 2463.5,-252.3 2438.18,-215.66 2421.29,-195.3"/>
<polygon fill="midnightblue" stroke="midnightblue" points="2423.85,-192.9 2414.67,-187.62 2418.55,-197.48 2423.85,-192.9"/>
</g>
<!-- Node46 -->
<g id="node34" class="node">
<title>Node46</title>
<g id="a_node34"><a xlink:href="quantum_8h.html" target="_top" xlink:title=" ">
<polygon fill="white" stroke="red" points="2805.5,-112.5 2805.5,-131.5 2913.5,-131.5 2913.5,-112.5 2805.5,-112.5"/>
<text text-anchor="middle" x="2859.5" y="-119.5" font-family="FreeSans" font-size="10.00">magick/quantum.h</text>
</a>
</g>
</g>
<!-- Node1&#45;&gt;Node46 -->
<g id="edge80" class="edge">
<title>Node1&#45;&gt;Node46</title>
<path fill="none" stroke="midnightblue" d="M2184.33,-568.23C2230.13,-566.01 2332.85,-557.39 2411.5,-524 2456.92,-504.72 2501.5,-508.34 2501.5,-459 2501.5,-459 2501.5,-459 2501.5,-233 2501.5,-202.2 2501.47,-187.26 2525.5,-168 2535.92,-159.65 2701.4,-140.32 2795.44,-129.92"/>
<polygon fill="midnightblue" stroke="midnightblue" points="2795.87,-133.39 2805.42,-128.82 2795.1,-126.43 2795.87,-133.39"/>
</g>
<!-- Node49 -->
<g id="node35" class="node">
<title>Node49</title>
<g id="a_node35"><a xlink:href="resize_8h.html" target="_top" xlink:title=" ">
<polygon fill="white" stroke="black" points="2931.5,-112.5 2931.5,-131.5 3025.5,-131.5 3025.5,-112.5 2931.5,-112.5"/>
<text text-anchor="middle" x="2978.5" y="-119.5" font-family="FreeSans" font-size="10.00">magick/resize.h</text>
</a>
</g>
</g>
<!-- Node1&#45;&gt;Node49 -->
<g id="edge82" class="edge">
<title>Node1&#45;&gt;Node49</title>
<path fill="none" stroke="midnightblue" d="M2184.06,-569.28C2235.37,-569.09 2360.19,-564.14 2454.5,-524 2498.26,-505.38 2539.5,-506.56 2539.5,-459 2539.5,-459 2539.5,-459 2539.5,-233 2539.5,-213.32 2808.54,-157.04 2925.39,-133.52"/>
<polygon fill="midnightblue" stroke="midnightblue" points="2926.09,-136.95 2935.21,-131.55 2924.71,-130.09 2926.09,-136.95"/>
</g>
<!-- Node51 -->
<g id="node36" class="node">
<title>Node51</title>
<g id="a_node36"><a xlink:href="image-private_8h.html" target="_top" xlink:title=" ">
<polygon fill="white" stroke="black" points="2225.5,-392.5 2225.5,-411.5 2359.5,-411.5 2359.5,-392.5 2225.5,-392.5"/>
<text text-anchor="middle" x="2292.5" y="-399.5" font-family="FreeSans" font-size="10.00">magick/image&#45;private.h</text>
</a>
</g>
</g>
<!-- Node1&#45;&gt;Node51 -->
<g id="edge69" class="edge">
<title>Node1&#45;&gt;Node51</title>
<path fill="none" stroke="midnightblue" d="M2184.18,-561.27C2219.27,-548.35 2283.69,-518.68 2309.5,-468 2317.17,-452.94 2310.72,-434.12 2303.67,-420.61"/>
<polygon fill="midnightblue" stroke="midnightblue" points="2306.64,-418.76 2298.62,-411.84 2300.58,-422.25 2306.64,-418.76"/>
</g>
<!-- Node54 -->
<g id="node39" class="node">
<title>Node54</title>
<g id="a_node39"><a xlink:href="gem_8h.html" target="_top" xlink:title=" ">
<polygon fill="white" stroke="black" points="1952.5,-336.5 1952.5,-355.5 2038.5,-355.5 2038.5,-336.5 1952.5,-336.5"/>
<text text-anchor="middle" x="1995.5" y="-343.5" font-family="FreeSans" font-size="10.00">magick/gem.h</text>
</a>
</g>
</g>
<!-- Node1&#45;&gt;Node54 -->
<g id="edge64" class="edge">
<title>Node1&#45;&gt;Node54</title>
<path fill="none" stroke="midnightblue" d="M2140.49,-560.35C2124.56,-552.66 2102.5,-540.14 2087.5,-524 2042.18,-475.24 2013.05,-399.93 2001.35,-365.42"/>
<polygon fill="midnightblue" stroke="midnightblue" points="2004.61,-364.14 1998.16,-355.73 1997.96,-366.32 2004.61,-364.14"/>
</g>
<!-- Node55 -->
<g id="node40" class="node">
<title>Node55</title>
<g id="a_node40"><a xlink:href="random___8h.html" target="_top" xlink:title=" ">
<polygon fill="white" stroke="red" points="1948,-280.5 1948,-299.5 2055,-299.5 2055,-280.5 1948,-280.5"/>
<text text-anchor="middle" x="2001.5" y="-287.5" font-family="FreeSans" font-size="10.00">magick/random_.h</text>
</a>
</g>
</g>
<!-- Node1&#45;&gt;Node55 -->
<g id="edge81" class="edge">
<title>Node1&#45;&gt;Node55</title>
<path fill="none" stroke="midnightblue" d="M2184.16,-564.54C2210.43,-558.69 2253.14,-546.43 2283.5,-524 2339.63,-482.54 2410.79,-447.5 2368.5,-392 2331.88,-343.95 2160.37,-313.01 2065.32,-299.26"/>
<polygon fill="midnightblue" stroke="midnightblue" points="2065.64,-295.77 2055.25,-297.82 2064.65,-302.7 2065.64,-295.77"/>
</g>
<!-- Node57 -->
<g id="node42" class="node">
<title>Node57</title>
<g id="a_node42"><a xlink:href="draw_8h.html" target="_top" xlink:title=" ">
<polygon fill="white" stroke="black" points="1748.5,-224.5 1748.5,-243.5 1836.5,-243.5 1836.5,-224.5 1748.5,-224.5"/>
<text text-anchor="middle" x="1792.5" y="-231.5" font-family="FreeSans" font-size="10.00">magick/draw.h</text>
</a>
</g>
</g>
<!-- Node1&#45;&gt;Node57 -->
<g id="edge63" class="edge">
<title>Node1&#45;&gt;Node57</title>
<path fill="none" stroke="midnightblue" d="M2136.83,-568.95C2043.87,-568.47 1704.17,-563.97 1605.5,-524 1569.21,-509.3 1560.51,-499.68 1537.5,-468 1516.84,-439.55 1503.65,-425.11 1515.5,-392 1526.36,-361.68 1535.81,-355.43 1561.5,-336 1620.65,-291.25 1702.7,-261.49 1751.42,-246.48"/>
<polygon fill="midnightblue" stroke="midnightblue" points="1752.73,-249.75 1761.29,-243.51 1750.71,-243.04 1752.73,-249.75"/>
</g>
<!-- Node60 -->
<g id="node45" class="node">
<title>Node60</title>
<g id="a_node45"><a xlink:href="log_8h.html" target="_top" xlink:title=" ">
<polygon fill="white" stroke="red" points="1524.5,-392.5 1524.5,-411.5 1604.5,-411.5 1604.5,-392.5 1524.5,-392.5"/>
<text text-anchor="middle" x="1564.5" y="-399.5" font-family="FreeSans" font-size="10.00">magick/log.h</text>
</a>
</g>
</g>
<!-- Node1&#45;&gt;Node60 -->
<g id="edge70" class="edge">
<title>Node1&#45;&gt;Node60</title>
<path fill="none" stroke="midnightblue" d="M2136.76,-568.98C2033.42,-568.33 1624.54,-559.93 1546.5,-468 1535.06,-454.53 1543.37,-434.35 1552.11,-420.05"/>
<polygon fill="midnightblue" stroke="midnightblue" points="1555.09,-421.9 1557.72,-411.63 1549.26,-418.02 1555.09,-421.9"/>
</g>
<!-- Node62 -->
<g id="node46" class="node">
<title>Node62</title>
<g id="a_node46"><a xlink:href="gem-private_8h.html" target="_top" xlink:title=" ">
<polygon fill="white" stroke="black" points="1870,-448.5 1870,-467.5 1995,-467.5 1995,-448.5 1870,-448.5"/>
<text text-anchor="middle" x="1932.5" y="-455.5" font-family="FreeSans" font-size="10.00">magick/gem&#45;private.h</text>
</a>
</g>
</g>
<!-- Node1&#45;&gt;Node62 -->
<g id="edge65" class="edge">
<title>Node1&#45;&gt;Node62</title>
<path fill="none" stroke="midnightblue" d="M2136.84,-565.07C2106.08,-559.28 2051.38,-546.63 2009.5,-524 1985.6,-511.09 1962.37,-489.93 1947.79,-475.28"/>
<polygon fill="midnightblue" stroke="midnightblue" points="1950.1,-472.64 1940.63,-467.9 1945.08,-477.51 1950.1,-472.64"/>
</g>
<!-- Node63 -->
<g id="node47" class="node">
<title>Node63</title>
<g id="a_node47"><a xlink:href="memory___8h.html" target="_top" xlink:title=" ">
<polygon fill="white" stroke="black" points="1357,-392.5 1357,-411.5 1468,-411.5 1468,-392.5 1357,-392.5"/>
<text text-anchor="middle" x="1412.5" y="-399.5" font-family="FreeSans" font-size="10.00">magick/memory_.h</text>
</a>
</g>
</g>
<!-- Node1&#45;&gt;Node63 -->
<g id="edge71" class="edge">
<title>Node1&#45;&gt;Node63</title>
<path fill="none" stroke="midnightblue" d="M2136.81,-568.81C2022.58,-567.7 1531.89,-560.8 1475.5,-524 1439.41,-500.45 1422.8,-449.26 1416.21,-421.61"/>
<polygon fill="midnightblue" stroke="midnightblue" points="1419.59,-420.68 1414.03,-411.66 1412.75,-422.17 1419.59,-420.68"/>
</g>
<!-- Node64 -->
<g id="node48" class="node">
<title>Node64</title>
<g id="a_node48"><a xlink:href="pixel-private_8h.html" target="_top" xlink:title=" ">
<polygon fill="white" stroke="red" points="1725.5,-448.5 1725.5,-467.5 1851.5,-467.5 1851.5,-448.5 1725.5,-448.5"/>
<text text-anchor="middle" x="1788.5" y="-455.5" font-family="FreeSans" font-size="10.00">magick/pixel&#45;private.h</text>
</a>
</g>
</g>
<!-- Node1&#45;&gt;Node64 -->
<g id="edge74" class="edge">
<title>Node1&#45;&gt;Node64</title>
<path fill="none" stroke="midnightblue" d="M2136.79,-563.94C2101.56,-556.26 2033.44,-540.77 1976.5,-524 1921.24,-507.73 1858.17,-485.06 1820.93,-471.24"/>
<polygon fill="midnightblue" stroke="midnightblue" points="1821.73,-467.81 1811.14,-467.59 1819.29,-474.37 1821.73,-467.81"/>
</g>
<!-- Node67 -->
<g id="node49" class="node">
<title>Node67</title>
<g id="a_node49"><a xlink:href="transform_8h.html" target="_top" xlink:title=" ">
<polygon fill="white" stroke="black" points="2568,-504.5 2568,-523.5 2681,-523.5 2681,-504.5 2568,-504.5"/>
<text text-anchor="middle" x="2624.5" y="-511.5" font-family="FreeSans" font-size="10.00">magick/transform.h</text>
</a>
</g>
</g>
<!-- Node1&#45;&gt;Node67 -->
<g id="edge83" class="edge">
<title>Node1&#45;&gt;Node67</title>
<path fill="none" stroke="midnightblue" d="M2184.44,-566.36C2245.8,-559.57 2413.73,-540.86 2553.5,-524 2554.96,-523.82 2556.45,-523.64 2557.94,-523.46"/>
<polygon fill="midnightblue" stroke="midnightblue" points="2558.43,-526.93 2567.93,-522.23 2557.57,-519.98 2558.43,-526.93"/>
</g>
<!-- Node68 -->
<g id="node50" class="node">
<title>Node68</title>
<g id="a_node50"><a xlink:href="signature-private_8h.html" target="_top" xlink:title=" ">
<polygon fill="white" stroke="red" points="2699,-504.5 2699,-523.5 2848,-523.5 2848,-504.5 2699,-504.5"/>
<text text-anchor="middle" x="2773.5" y="-511.5" font-family="FreeSans" font-size="10.00">magick/signature&#45;private.h</text>
</a>
</g>
</g>
<!-- Node1&#45;&gt;Node68 -->
<g id="edge84" class="edge">
<title>Node1&#45;&gt;Node68</title>
<path fill="none" stroke="midnightblue" d="M2184.24,-567.17C2257.51,-561.47 2486.75,-543.35 2688.65,-524.06"/>
<polygon fill="midnightblue" stroke="midnightblue" points="2689.23,-527.52 2698.85,-523.08 2688.57,-520.55 2689.23,-527.52"/>
</g>
<!-- Node3 -->
<g id="node3" class="node">
<title>Node3</title>
<g id="a_node3"><a xlink:href="magick-config_8h.html" target="_top" xlink:title=" ">
<polygon fill="white" stroke="red" points="777.5,-280.5 777.5,-299.5 911.5,-299.5 911.5,-280.5 777.5,-280.5"/>
<text text-anchor="middle" x="844.5" y="-287.5" font-family="FreeSans" font-size="10.00">magick/magick&#45;config.h</text>
</a>
</g>
</g>
<!-- Node2&#45;&gt;Node3 -->
<g id="edge2" class="edge">
<title>Node2&#45;&gt;Node3</title>
<path fill="none" stroke="midnightblue" d="M864,-392.47C847.51,-385.48 827.36,-373.79 817.5,-356 808.75,-340.22 819.08,-321.02 829.39,-307.59"/>
<polygon fill="midnightblue" stroke="midnightblue" points="832.25,-309.62 835.95,-299.7 826.87,-305.15 832.25,-309.62"/>
</g>
<!-- Node5 -->
<g id="node4" class="node">
<title>Node5</title>
<g id="a_node4"><a xlink:title=" ">
<polygon fill="white" stroke="#bfbfbf" points="1458.5,-336.5 1458.5,-355.5 1514.5,-355.5 1514.5,-336.5 1458.5,-336.5"/>
<text text-anchor="middle" x="1486.5" y="-343.5" font-family="FreeSans" font-size="10.00">stdarg.h</text>
</a>
</g>
</g>
<!-- Node2&#45;&gt;Node5 -->
<g id="edge3" class="edge">
<title>Node2&#45;&gt;Node5</title>
<path fill="none" stroke="midnightblue" d="M937,-399.72C1032.27,-396.6 1253.5,-386.62 1448.18,-355.96"/>
<polygon fill="midnightblue" stroke="midnightblue" points="1448.99,-359.38 1458.31,-354.34 1447.89,-352.46 1448.99,-359.38"/>
</g>
<!-- Node6 -->
<g id="node5" class="node">
<title>Node6</title>
<g id="a_node5"><a xlink:title=" ">
<polygon fill="white" stroke="#bfbfbf" points="970.5,-336.5 970.5,-355.5 1020.5,-355.5 1020.5,-336.5 970.5,-336.5"/>
<text text-anchor="middle" x="995.5" y="-343.5" font-family="FreeSans" font-size="10.00">stdio.h</text>
</a>
</g>
</g>
<!-- Node2&#45;&gt;Node6 -->
<g id="edge4" class="edge">
<title>Node2&#45;&gt;Node6</title>
<path fill="none" stroke="midnightblue" d="M906.53,-392.32C923.53,-383.66 949.88,-370.24 969.49,-360.25"/>
<polygon fill="midnightblue" stroke="midnightblue" points="971.19,-363.31 978.51,-355.65 968.01,-357.08 971.19,-363.31"/>
</g>
<!-- Node7 -->
<g id="node6" class="node">
<title>Node7</title>
<g id="a_node6"><a xlink:title=" ">
<polygon fill="white" stroke="#bfbfbf" points="1039,-336.5 1039,-355.5 1092,-355.5 1092,-336.5 1039,-336.5"/>
<text text-anchor="middle" x="1065.5" y="-343.5" font-family="FreeSans" font-size="10.00">ctype.h</text>
</a>
</g>
</g>
<!-- Node2&#45;&gt;Node7 -->
<g id="edge5" class="edge">
<title>Node2&#45;&gt;Node7</title>
<path fill="none" stroke="midnightblue" d="M917.39,-392.44C947.61,-383.17 995.94,-368.34 1029.12,-358.16"/>
<polygon fill="midnightblue" stroke="midnightblue" points="1030.36,-361.44 1038.89,-355.16 1028.31,-354.75 1030.36,-361.44"/>
</g>
<!-- Node8 -->
<g id="node7" class="node">
<title>Node8</title>
<g id="a_node7"><a xlink:title=" ">
<polygon fill="white" stroke="#bfbfbf" points="1110,-336.5 1110,-355.5 1165,-355.5 1165,-336.5 1110,-336.5"/>
<text text-anchor="middle" x="1137.5" y="-343.5" font-family="FreeSans" font-size="10.00">locale.h</text>
</a>
</g>
</g>
<!-- Node2&#45;&gt;Node8 -->
<g id="edge6" class="edge">
<title>Node2&#45;&gt;Node8</title>
<path fill="none" stroke="midnightblue" d="M931.21,-392.47C971.75,-384.1 1035.3,-370.76 1099.72,-356.13"/>
<polygon fill="midnightblue" stroke="midnightblue" points="1100.67,-359.5 1109.64,-353.87 1099.11,-352.68 1100.67,-359.5"/>
</g>
<!-- Node9 -->
<g id="node8" class="node">
<title>Node9</title>
<g id="a_node8"><a xlink:title=" ">
<polygon fill="white" stroke="#bfbfbf" points="1315,-336.5 1315,-355.5 1366,-355.5 1366,-336.5 1315,-336.5"/>
<text text-anchor="middle" x="1340.5" y="-343.5" font-family="FreeSans" font-size="10.00">errno.h</text>
</a>
</g>
</g>
<!-- Node2&#45;&gt;Node9 -->
<g id="edge7" class="edge">
<title>Node2&#45;&gt;Node9</title>
<path fill="none" stroke="midnightblue" d="M937.23,-398.08C1013.09,-392.95 1165.89,-380.62 1304.99,-355.82"/>
<polygon fill="midnightblue" stroke="midnightblue" points="1305.76,-359.24 1314.98,-354.01 1304.52,-352.35 1305.76,-359.24"/>
</g>
<!-- Node10 -->
<g id="node9" class="node">
<title>Node10</title>
<g id="a_node9"><a xlink:title=" ">
<polygon fill="white" stroke="#bfbfbf" points="1183,-336.5 1183,-355.5 1230,-355.5 1230,-336.5 1183,-336.5"/>
<text text-anchor="middle" x="1206.5" y="-343.5" font-family="FreeSans" font-size="10.00">fcntl.h</text>
</a>
</g>
</g>
<!-- Node2&#45;&gt;Node10 -->
<g id="edge8" class="edge">
<title>Node2&#45;&gt;Node10</title>
<path fill="none" stroke="midnightblue" d="M937.03,-395.08C991.62,-387.93 1084.04,-374.73 1172.82,-355.94"/>
<polygon fill="midnightblue" stroke="midnightblue" points="1173.74,-359.32 1182.78,-353.8 1172.27,-352.47 1173.74,-359.32"/>
</g>
<!-- Node11 -->
<g id="node10" class="node">
<title>Node11</title>
<g id="a_node10"><a xlink:title=" ">
<polygon fill="white" stroke="#bfbfbf" points="1571,-336.5 1571,-355.5 1622,-355.5 1622,-336.5 1571,-336.5"/>
<text text-anchor="middle" x="1596.5" y="-343.5" font-family="FreeSans" font-size="10.00">math.h</text>
</a>
</g>
</g>
<!-- Node2&#45;&gt;Node11 -->
<g id="edge9" class="edge">
<title>Node2&#45;&gt;Node11</title>
<path fill="none" stroke="midnightblue" d="M937.29,-398.46C1043.07,-392.64 1304.94,-377.22 1523.5,-356 1535.69,-354.82 1548.99,-353.26 1560.86,-351.77"/>
<polygon fill="midnightblue" stroke="midnightblue" points="1561.38,-355.23 1570.86,-350.49 1560.5,-348.29 1561.38,-355.23"/>
</g>
<!-- Node12 -->
<g id="node11" class="node">
<title>Node12</title>
<g id="a_node11"><a xlink:title=" ">
<polygon fill="white" stroke="#bfbfbf" points="1248.5,-336.5 1248.5,-355.5 1296.5,-355.5 1296.5,-336.5 1248.5,-336.5"/>
<text text-anchor="middle" x="1272.5" y="-343.5" font-family="FreeSans" font-size="10.00">time.h</text>
</a>
</g>
</g>
<!-- Node2&#45;&gt;Node12 -->
<g id="edge10" class="edge">
<title>Node2&#45;&gt;Node12</title>
<path fill="none" stroke="midnightblue" d="M937.23,-396.84C1004.74,-390.5 1131.79,-376.91 1238.5,-356 1238.6,-355.98 1238.7,-355.96 1238.8,-355.94"/>
<polygon fill="midnightblue" stroke="midnightblue" points="1239.45,-359.38 1248.44,-353.78 1237.92,-352.55 1239.45,-359.38"/>
</g>
<!-- Node13 -->
<g id="node12" class="node">
<title>Node13</title>
<g id="a_node12"><a xlink:title=" ">
<polygon fill="white" stroke="#bfbfbf" points="0,-336.5 0,-355.5 53,-355.5 53,-336.5 0,-336.5"/>
<text text-anchor="middle" x="26.5" y="-343.5" font-family="FreeSans" font-size="10.00">limits.h</text>
</a>
</g>
</g>
<!-- Node2&#45;&gt;Node13 -->
<g id="edge11" class="edge">
<title>Node2&#45;&gt;Node13</title>
<path fill="none" stroke="midnightblue" d="M841.55,-401.68C715.31,-402.79 363.33,-401.34 63.34,-355.99"/>
<polygon fill="midnightblue" stroke="midnightblue" points="63.55,-352.48 53.14,-354.43 62.5,-359.4 63.55,-352.48"/>
</g>
<!-- Node14 -->
<g id="node13" class="node">
<title>Node14</title>
<g id="a_node13"><a xlink:title=" ">
<polygon fill="white" stroke="#bfbfbf" points="71,-336.5 71,-355.5 126,-355.5 126,-336.5 71,-336.5"/>
<text text-anchor="middle" x="98.5" y="-343.5" font-family="FreeSans" font-size="10.00">signal.h</text>
</a>
</g>
</g>
<!-- Node2&#45;&gt;Node14 -->
<g id="edge12" class="edge">
<title>Node2&#45;&gt;Node14</title>
<path fill="none" stroke="midnightblue" d="M841.99,-401.1C724.02,-400.74 408.21,-395.91 136.33,-355.82"/>
<polygon fill="midnightblue" stroke="midnightblue" points="136.68,-352.34 126.27,-354.32 135.65,-359.26 136.68,-352.34"/>
</g>
<!-- Node15 -->
<g id="node14" class="node">
<title>Node15</title>
<g id="a_node14"><a xlink:title=" ">
<polygon fill="white" stroke="#bfbfbf" points="1384.5,-336.5 1384.5,-355.5 1440.5,-355.5 1440.5,-336.5 1384.5,-336.5"/>
<text text-anchor="middle" x="1412.5" y="-343.5" font-family="FreeSans" font-size="10.00">assert.h</text>
</a>
</g>
</g>
<!-- Node2&#45;&gt;Node15 -->
<g id="edge13" class="edge">
<title>Node2&#45;&gt;Node15</title>
<path fill="none" stroke="midnightblue" d="M937.28,-398.79C1024.59,-394.26 1215.53,-382.07 1374.5,-356 1374.6,-355.98 1374.7,-355.97 1374.8,-355.95"/>
<polygon fill="midnightblue" stroke="midnightblue" points="1375.2,-359.44 1384.37,-354.13 1373.89,-352.56 1375.2,-359.44"/>
</g>
<!-- Node16 -->
<g id="node15" class="node">
<title>Node16</title>
<g id="a_node15"><a xlink:href="method-attribute_8h.html" target="_top" xlink:title=" ">
<polygon fill="white" stroke="black" points="144.5,-336.5 144.5,-355.5 292.5,-355.5 292.5,-336.5 144.5,-336.5"/>
<text text-anchor="middle" x="218.5" y="-343.5" font-family="FreeSans" font-size="10.00">magick/method&#45;attribute.h</text>
</a>
</g>
</g>
<!-- Node2&#45;&gt;Node16 -->
<g id="edge14" class="edge">
<title>Node2&#45;&gt;Node16</title>
<path fill="none" stroke="midnightblue" d="M841.82,-397.86C743.28,-391.27 509.77,-375.08 302.84,-356.1"/>
<polygon fill="midnightblue" stroke="midnightblue" points="302.98,-352.6 292.7,-355.16 302.34,-359.57 302.98,-352.6"/>
</g>
<!-- Node17 -->
<g id="node16" class="node">
<title>Node17</title>
<g id="a_node16"><a xlink:title=" ">
<polygon fill="white" stroke="#bfbfbf" points="310.5,-336.5 310.5,-355.5 382.5,-355.5 382.5,-336.5 310.5,-336.5"/>
<text text-anchor="middle" x="346.5" y="-343.5" font-family="FreeSans" font-size="10.00">sys/types.h</text>
</a>
</g>
</g>
<!-- Node2&#45;&gt;Node17 -->
<g id="edge15" class="edge">
<title>Node2&#45;&gt;Node17</title>
<path fill="none" stroke="midnightblue" d="M841.92,-398.41C754.77,-393.28 563.49,-380.32 392.71,-356.03"/>
<polygon fill="midnightblue" stroke="midnightblue" points="393.19,-352.57 382.79,-354.61 392.19,-359.49 393.19,-352.57"/>
</g>
<!-- Node18 -->
<g id="node17" class="node">
<title>Node18</title>
<g id="a_node17"><a xlink:title=" ">
<polygon fill="white" stroke="#bfbfbf" points="400.5,-336.5 400.5,-355.5 464.5,-355.5 464.5,-336.5 400.5,-336.5"/>
<text text-anchor="middle" x="432.5" y="-343.5" font-family="FreeSans" font-size="10.00">sys/stat.h</text>
</a>
</g>
</g>
<!-- Node2&#45;&gt;Node18 -->
<g id="edge16" class="edge">
<title>Node2&#45;&gt;Node18</title>
<path fill="none" stroke="midnightblue" d="M841.86,-397.54C766.14,-391.66 613.5,-378.31 474.64,-356.03"/>
<polygon fill="midnightblue" stroke="midnightblue" points="475.1,-352.55 464.67,-354.41 473.98,-359.46 475.1,-352.55"/>
</g>
<!-- Node19 -->
<g id="node18" class="node">
<title>Node19</title>
<g id="a_node18"><a xlink:title=" ">
<polygon fill="white" stroke="#bfbfbf" points="482.5,-336.5 482.5,-355.5 536.5,-355.5 536.5,-336.5 482.5,-336.5"/>
<text text-anchor="middle" x="509.5" y="-343.5" font-family="FreeSans" font-size="10.00">dirent.h</text>
</a>
</g>
</g>
<!-- Node2&#45;&gt;Node19 -->
<g id="edge17" class="edge">
<title>Node2&#45;&gt;Node19</title>
<path fill="none" stroke="midnightblue" d="M841.93,-396.52C777.25,-390.05 657.8,-376.74 546.6,-356.01"/>
<polygon fill="midnightblue" stroke="midnightblue" points="547.03,-352.53 536.55,-354.12 545.73,-359.41 547.03,-352.53"/>
</g>
<!-- Node20 -->
<g id="node19" class="node">
<title>Node20</title>
<g id="a_node19"><a xlink:title=" ">
<polygon fill="white" stroke="#bfbfbf" points="554.5,-336.5 554.5,-355.5 620.5,-355.5 620.5,-336.5 554.5,-336.5"/>
<text text-anchor="middle" x="587.5" y="-343.5" font-family="FreeSans" font-size="10.00">sys/wait.h</text>
</a>
</g>
</g>
<!-- Node2&#45;&gt;Node20 -->
<g id="edge18" class="edge">
<title>Node2&#45;&gt;Node20</title>
<path fill="none" stroke="midnightblue" d="M841.95,-393.35C791.88,-385.17 710.5,-371.5 631.12,-356.26"/>
<polygon fill="midnightblue" stroke="midnightblue" points="631.43,-352.75 620.95,-354.29 630.1,-359.63 631.43,-352.75"/>
</g>
<!-- Node21 -->
<g id="node20" class="node">
<title>Node21</title>
<g id="a_node20"><a xlink:title=" ">
<polygon fill="white" stroke="#bfbfbf" points="638.5,-336.5 638.5,-355.5 684.5,-355.5 684.5,-336.5 638.5,-336.5"/>
<text text-anchor="middle" x="661.5" y="-343.5" font-family="FreeSans" font-size="10.00">pwd.h</text>
</a>
</g>
</g>
<!-- Node2&#45;&gt;Node21 -->
<g id="edge19" class="edge">
<title>Node2&#45;&gt;Node21</title>
<path fill="none" stroke="midnightblue" d="M849.57,-392.43C811.96,-384.22 753.82,-371.19 694.46,-356.15"/>
<polygon fill="midnightblue" stroke="midnightblue" points="695.09,-352.7 684.54,-353.62 693.36,-359.49 695.09,-352.7"/>
</g>
<!-- Node22 -->
<g id="node21" class="node">
<title>Node22</title>
<g id="a_node21"><a xlink:href="magick-type_8h.html" target="_top" xlink:title=" ">
<polygon fill="white" stroke="black" points="826.5,-336.5 826.5,-355.5 952.5,-355.5 952.5,-336.5 826.5,-336.5"/>
<text text-anchor="middle" x="889.5" y="-343.5" font-family="FreeSans" font-size="10.00">magick/magick&#45;type.h</text>
</a>
</g>
</g>
<!-- Node2&#45;&gt;Node22 -->
<g id="edge20" class="edge">
<title>Node2&#45;&gt;Node22</title>
<path fill="none" stroke="midnightblue" d="M889.5,-392.08C889.5,-385.01 889.5,-374.86 889.5,-365.99"/>
<polygon fill="midnightblue" stroke="midnightblue" points="893,-365.75 889.5,-355.75 886,-365.75 893,-365.75"/>
</g>
<!-- Node23 -->
<g id="node22" class="node">
<title>Node23</title>
<g id="a_node22"><a xlink:title=" ">
<polygon fill="white" stroke="#bfbfbf" points="702.5,-336.5 702.5,-355.5 770.5,-355.5 770.5,-336.5 702.5,-336.5"/>
<text text-anchor="middle" x="736.5" y="-343.5" font-family="FreeSans" font-size="10.00">sys/time.h</text>
</a>
</g>
</g>
<!-- Node2&#45;&gt;Node23 -->
<g id="edge22" class="edge">
<title>Node2&#45;&gt;Node23</title>
<path fill="none" stroke="midnightblue" d="M865.26,-392.44C839.63,-383.4 799.01,-369.06 770.26,-358.92"/>
<polygon fill="midnightblue" stroke="midnightblue" points="771.22,-355.54 760.63,-355.52 768.89,-362.15 771.22,-355.54"/>
</g>
<!-- Node22&#45;&gt;Node3 -->
<g id="edge21" class="edge">
<title>Node22&#45;&gt;Node3</title>
<path fill="none" stroke="midnightblue" d="M882.07,-336.08C875.65,-328.38 866.19,-317.03 858.38,-307.65"/>
<polygon fill="midnightblue" stroke="midnightblue" points="860.88,-305.19 851.79,-299.75 855.51,-309.67 860.88,-305.19"/>
</g>
<!-- Node24&#45;&gt;Node25 -->
<g id="edge24" class="edge">
<title>Node24&#45;&gt;Node25</title>
<path fill="none" stroke="midnightblue" d="M2224.03,-508.84C2291.19,-500.59 2387.5,-476.02 2387.5,-403 2387.5,-403 2387.5,-403 2387.5,-289 2387.5,-256.49 2395.66,-219.35 2401.28,-197.61"/>
<polygon fill="midnightblue" stroke="midnightblue" points="2404.72,-198.32 2403.94,-187.75 2397.96,-196.5 2404.72,-198.32"/>
</g>
<!-- Node26 -->
<g id="node25" class="node">
<title>Node26</title>
<g id="a_node25"><a xlink:href="color_8h.html" target="_top" xlink:title=" ">
<polygon fill="white" stroke="red" points="1803.5,-112.5 1803.5,-131.5 1891.5,-131.5 1891.5,-112.5 1803.5,-112.5"/>
<text text-anchor="middle" x="1847.5" y="-119.5" font-family="FreeSans" font-size="10.00">magick/color.h</text>
</a>
</g>
</g>
<!-- Node24&#45;&gt;Node26 -->
<g id="edge42" class="edge">
<title>Node24&#45;&gt;Node26</title>
<path fill="none" stroke="midnightblue" d="M2150.06,-504.4C2140.54,-496.03 2126.75,-482.49 2118.5,-468 2075.41,-392.35 2113.62,-351.18 2063.5,-280 2013.79,-209.4 1922.08,-158.42 1875.8,-135.89"/>
<polygon fill="midnightblue" stroke="midnightblue" points="1877.17,-132.67 1866.64,-131.52 1874.15,-138.98 1877.17,-132.67"/>
</g>
<!-- Node24&#45;&gt;Node51 -->
<g id="edge41" class="edge">
<title>Node24&#45;&gt;Node51</title>
<path fill="none" stroke="midnightblue" d="M2224.23,-506.76C2249.35,-500.83 2275.9,-489.51 2291.5,-468 2301.12,-454.74 2300.15,-435.61 2297.51,-421.54"/>
<polygon fill="midnightblue" stroke="midnightblue" points="2300.86,-420.5 2295.2,-411.54 2294.04,-422.08 2300.86,-420.5"/>
</g>
<!-- Node52 -->
<g id="node37" class="node">
<title>Node52</title>
<g id="a_node37"><a xlink:href="colorspace-private_8h.html" target="_top" xlink:title=" ">
<polygon fill="white" stroke="black" points="2128,-448.5 2128,-467.5 2283,-467.5 2283,-448.5 2128,-448.5"/>
<text text-anchor="middle" x="2205.5" y="-455.5" font-family="FreeSans" font-size="10.00">magick/colorspace&#45;private.h</text>
</a>
</g>
</g>
<!-- Node24&#45;&gt;Node52 -->
<g id="edge43" class="edge">
<title>Node24&#45;&gt;Node52</title>
<path fill="none" stroke="midnightblue" d="M2167.93,-504.08C2174.35,-496.38 2183.81,-485.03 2191.62,-475.65"/>
<polygon fill="midnightblue" stroke="midnightblue" points="2194.49,-477.67 2198.21,-467.75 2189.12,-473.19 2194.49,-477.67"/>
</g>
<!-- Node53 -->
<g id="node38" class="node">
<title>Node53</title>
<g id="a_node38"><a xlink:href="pixel-accessor_8h.html" target="_top" xlink:title=" ">
<polygon fill="white" stroke="black" points="1861.5,-392.5 1861.5,-411.5 1995.5,-411.5 1995.5,-392.5 1861.5,-392.5"/>
<text text-anchor="middle" x="1928.5" y="-399.5" font-family="FreeSans" font-size="10.00">magick/pixel&#45;accessor.h</text>
</a>
</g>
</g>
<!-- Node24&#45;&gt;Node53 -->
<g id="edge62" class="edge">
<title>Node24&#45;&gt;Node53</title>
<path fill="none" stroke="midnightblue" d="M2142.3,-504.37C2101.72,-485.13 2003.68,-438.65 1955.77,-415.93"/>
<polygon fill="midnightblue" stroke="midnightblue" points="1957.16,-412.71 1946.62,-411.59 1954.16,-419.04 1957.16,-412.71"/>
</g>
<!-- Node59 -->
<g id="node44" class="node">
<title>Node59</title>
<g id="a_node44"><a xlink:href="exception-private_8h.html" target="_top" xlink:title=" ">
<polygon fill="white" stroke="red" points="1556,-448.5 1556,-467.5 1707,-467.5 1707,-448.5 1556,-448.5"/>
<text text-anchor="middle" x="1631.5" y="-455.5" font-family="FreeSans" font-size="10.00">magick/exception&#45;private.h</text>
</a>
</g>
</g>
<!-- Node24&#45;&gt;Node59 -->
<g id="edge59" class="edge">
<title>Node24&#45;&gt;Node59</title>
<path fill="none" stroke="midnightblue" d="M2096.89,-506.64C2012.7,-498.21 1859.34,-482.78 1717.25,-468.07"/>
<polygon fill="midnightblue" stroke="midnightblue" points="1717.35,-464.57 1707.04,-467.02 1716.63,-471.53 1717.35,-464.57"/>
</g>
<!-- Node25&#45;&gt;Node26 -->
<g id="edge25" class="edge">
<title>Node25&#45;&gt;Node26</title>
<path fill="none" stroke="midnightblue" d="M2358.84,-172.4C2255.38,-162.4 2010.76,-138.77 1901.66,-128.23"/>
<polygon fill="midnightblue" stroke="midnightblue" points="1901.83,-124.73 1891.54,-127.25 1901.15,-131.7 1901.83,-124.73"/>
</g>
<!-- Node27 -->
<g id="node26" class="node">
<title>Node27</title>
<g id="a_node26"><a xlink:href="pixel_8h.html" target="_top" xlink:title=" ">
<polygon fill="white" stroke="red" points="1913.5,-56.5 1913.5,-75.5 2001.5,-75.5 2001.5,-56.5 1913.5,-56.5"/>
<text text-anchor="middle" x="1957.5" y="-63.5" font-family="FreeSans" font-size="10.00">magick/pixel.h</text>
</a>
</g>
</g>
<!-- Node25&#45;&gt;Node27 -->
<g id="edge37" class="edge">
<title>Node25&#45;&gt;Node27</title>
<path fill="none" stroke="midnightblue" d="M2379.07,-168.35C2353.27,-159.95 2313.76,-146.39 2280.5,-132 2262.62,-124.26 2260.02,-118.04 2241.5,-112 2164.05,-86.72 2069.93,-75.38 2011.87,-70.49"/>
<polygon fill="midnightblue" stroke="midnightblue" points="2012.06,-66.99 2001.81,-69.67 2011.5,-73.97 2012.06,-66.99"/>
</g>
<!-- Node28 -->
<g id="node27" class="node">
<title>Node28</title>
<g id="a_node27"><a xlink:href="colorspace_8h.html" target="_top" xlink:title=" ">
<polygon fill="white" stroke="black" points="2309,-0.5 2309,-19.5 2426,-19.5 2426,-0.5 2309,-0.5"/>
<text text-anchor="middle" x="2367.5" y="-7.5" font-family="FreeSans" font-size="10.00">magick/colorspace.h</text>
</a>
</g>
</g>
<!-- Node25&#45;&gt;Node28 -->
<g id="edge30" class="edge">
<title>Node25&#45;&gt;Node28</title>
<path fill="none" stroke="midnightblue" d="M2454.26,-171.72C2549.31,-161.09 2753.51,-137.67 2758.5,-132 2764.37,-125.33 2763.94,-119.03 2758.5,-112 2719.38,-61.49 2537.81,-31.71 2436.43,-18.74"/>
<polygon fill="midnightblue" stroke="midnightblue" points="2436.63,-15.24 2426.28,-17.47 2435.76,-22.19 2436.63,-15.24"/>
</g>
<!-- Node32 -->
<g id="node28" class="node">
<title>Node32</title>
<g id="a_node28"><a xlink:href="blob_8h.html" target="_top" xlink:title=" ">
<polygon fill="white" stroke="red" points="2399.5,-112.5 2399.5,-131.5 2485.5,-131.5 2485.5,-112.5 2399.5,-112.5"/>
<text text-anchor="middle" x="2442.5" y="-119.5" font-family="FreeSans" font-size="10.00">magick/blob.h</text>
</a>
</g>
</g>
<!-- Node25&#45;&gt;Node32 -->
<g id="edge28" class="edge">
<title>Node25&#45;&gt;Node32</title>
<path fill="none" stroke="midnightblue" d="M2407.28,-168.08C2410.79,-160.38 2417.98,-149.03 2425.11,-139.65"/>
<polygon fill="midnightblue" stroke="midnightblue" points="2427.94,-141.72 2431.53,-131.75 2422.51,-137.3 2427.94,-141.72"/>
</g>
<!-- Node34 -->
<g id="node29" class="node">
<title>Node34</title>
<g id="a_node29"><a xlink:href="cache-view_8h.html" target="_top" xlink:title=" ">
<polygon fill="white" stroke="black" points="2114,-112.5 2114,-131.5 2233,-131.5 2233,-112.5 2114,-112.5"/>
<text text-anchor="middle" x="2173.5" y="-119.5" font-family="FreeSans" font-size="10.00">magick/cache&#45;view.h</text>
</a>
</g>
</g>
<!-- Node25&#45;&gt;Node34 -->
<g id="edge31" class="edge">
<title>Node25&#45;&gt;Node34</title>
<path fill="none" stroke="midnightblue" d="M2369.58,-168.44C2329.1,-159.06 2264.08,-143.99 2220.12,-133.8"/>
<polygon fill="midnightblue" stroke="midnightblue" points="2220.78,-130.36 2210.25,-131.52 2219.2,-137.18 2220.78,-130.36"/>
</g>
<!-- Node35 -->
<g id="node30" class="node">
<title>Node35</title>
<g id="a_node30"><a xlink:href="composite_8h.html" target="_top" xlink:title=" ">
<polygon fill="white" stroke="black" points="2503.5,-112.5 2503.5,-131.5 2619.5,-131.5 2619.5,-112.5 2503.5,-112.5"/>
<text text-anchor="middle" x="2561.5" y="-119.5" font-family="FreeSans" font-size="10.00">magick/composite.h</text>
</a>
</g>
</g>
<!-- Node25&#45;&gt;Node35 -->
<g id="edge33" class="edge">
<title>Node25&#45;&gt;Node35</title>
<path fill="none" stroke="midnightblue" d="M2431.06,-168.44C2457.02,-159.4 2498.17,-145.06 2527.3,-134.92"/>
<polygon fill="midnightblue" stroke="midnightblue" points="2528.76,-138.11 2537.05,-131.52 2526.46,-131.5 2528.76,-138.11"/>
</g>
<!-- Node36 -->
<g id="node31" class="node">
<title>Node36</title>
<g id="a_node31"><a xlink:href="compress_8h.html" target="_top" xlink:title=" ">
<polygon fill="white" stroke="black" points="2637.5,-112.5 2637.5,-131.5 2749.5,-131.5 2749.5,-112.5 2637.5,-112.5"/>
<text text-anchor="middle" x="2693.5" y="-119.5" font-family="FreeSans" font-size="10.00">magick/compress.h</text>
</a>
</g>
</g>
<!-- Node25&#45;&gt;Node36 -->
<g id="edge34" class="edge">
<title>Node25&#45;&gt;Node36</title>
<path fill="none" stroke="midnightblue" d="M2451.98,-168.44C2502.46,-158.94 2583.96,-143.61 2638.12,-133.42"/>
<polygon fill="midnightblue" stroke="midnightblue" points="2639.06,-136.81 2648.24,-131.52 2637.76,-129.93 2639.06,-136.81"/>
</g>
<!-- Node37 -->
<g id="node32" class="node">
<title>Node37</title>
<g id="a_node32"><a xlink:href="effect_8h.html" target="_top" xlink:title=" ">
<polygon fill="white" stroke="red" points="2289.5,-112.5 2289.5,-131.5 2381.5,-131.5 2381.5,-112.5 2289.5,-112.5"/>
<text text-anchor="middle" x="2335.5" y="-119.5" font-family="FreeSans" font-size="10.00">magick/effect.h</text>
</a>
</g>
</g>
<!-- Node25&#45;&gt;Node37 -->
<g id="edge35" class="edge">
<title>Node25&#45;&gt;Node37</title>
<path fill="none" stroke="midnightblue" d="M2395.09,-168.32C2384.39,-160.18 2368.16,-147.84 2355.34,-138.09"/>
<polygon fill="midnightblue" stroke="midnightblue" points="2357.19,-135.1 2347.11,-131.83 2352.96,-140.67 2357.19,-135.1"/>
</g>
<!-- Node39 -->
<g id="node33" class="node">
<title>Node39</title>
<g id="a_node33"><a xlink:href="geometry_8h.html" target="_top" xlink:title=" ">
<polygon fill="white" stroke="black" points="1985.5,-112.5 1985.5,-131.5 2095.5,-131.5 2095.5,-112.5 1985.5,-112.5"/>
<text text-anchor="middle" x="2040.5" y="-119.5" font-family="FreeSans" font-size="10.00">magick/geometry.h</text>
</a>
</g>
</g>
<!-- Node25&#45;&gt;Node39 -->
<g id="edge36" class="edge">
<title>Node25&#45;&gt;Node39</title>
<path fill="none" stroke="midnightblue" d="M2358.65,-169.94C2293.88,-160.38 2178.07,-143.3 2105.48,-132.59"/>
<polygon fill="midnightblue" stroke="midnightblue" points="2105.93,-129.12 2095.53,-131.12 2104.91,-136.04 2105.93,-129.12"/>
</g>
<!-- Node25&#45;&gt;Node46 -->
<g id="edge38" class="edge">
<title>Node25&#45;&gt;Node46</title>
<path fill="none" stroke="midnightblue" d="M2454.07,-171C2525.5,-162.6 2664.3,-146.73 2782.5,-132 2786.62,-131.49 2790.88,-130.95 2795.19,-130.39"/>
<polygon fill="midnightblue" stroke="midnightblue" points="2795.81,-133.84 2805.28,-129.1 2794.92,-126.9 2795.81,-133.84"/>
</g>
<!-- Node25&#45;&gt;Node49 -->
<g id="edge40" class="edge">
<title>Node25&#45;&gt;Node49</title>
<path fill="none" stroke="midnightblue" d="M2454.07,-173.3C2560.33,-164.95 2815.33,-144.52 2921.39,-132.03"/>
<polygon fill="midnightblue" stroke="midnightblue" points="2921.97,-135.49 2931.48,-130.81 2921.13,-128.54 2921.97,-135.49"/>
</g>
<!-- Node26&#45;&gt;Node27 -->
<g id="edge26" class="edge">
<title>Node26&#45;&gt;Node27</title>
<path fill="none" stroke="midnightblue" d="M1865.17,-112.32C1882.89,-103.62 1910.4,-90.12 1930.79,-80.11"/>
<polygon fill="midnightblue" stroke="midnightblue" points="1932.44,-83.2 1939.87,-75.65 1929.35,-76.92 1932.44,-83.2"/>
</g>
<!-- Node27&#45;&gt;Node28 -->
<g id="edge27" class="edge">
<title>Node27&#45;&gt;Node28</title>
<path fill="none" stroke="midnightblue" d="M2001.77,-59.17C2073.2,-49.76 2214.41,-31.16 2298.94,-20.03"/>
<polygon fill="midnightblue" stroke="midnightblue" points="2299.5,-23.49 2308.96,-18.71 2298.58,-16.55 2299.5,-23.49"/>
</g>
<!-- Node32&#45;&gt;Node25 -->
<g id="edge29" class="edge">
<title>Node32&#45;&gt;Node25</title>
<path fill="none" stroke="midnightblue" d="M2441.8,-131.75C2438.34,-139.4 2431.18,-150.74 2424.04,-160.14"/>
<polygon fill="midnightblue" stroke="midnightblue" points="2421.19,-158.11 2417.61,-168.08 2426.63,-162.52 2421.19,-158.11"/>
</g>
<!-- Node34&#45;&gt;Node27 -->
<g id="edge32" class="edge">
<title>Node34&#45;&gt;Node27</title>
<path fill="none" stroke="midnightblue" d="M2139.27,-112.44C2101.99,-103.12 2042.23,-88.18 2001.49,-78"/>
<polygon fill="midnightblue" stroke="midnightblue" points="2002.12,-74.55 1991.57,-75.52 2000.42,-81.34 2002.12,-74.55"/>
</g>
<!-- Node46&#45;&gt;Node25 -->
<g id="edge39" class="edge">
<title>Node46&#45;&gt;Node25</title>
<path fill="none" stroke="midnightblue" d="M2805.16,-131.42C2803.59,-131.61 2802.04,-131.81 2800.5,-132 2681.31,-146.85 2541.17,-162.87 2464.18,-171.21"/>
<polygon fill="midnightblue" stroke="midnightblue" points="2463.77,-167.73 2454.2,-172.28 2464.52,-174.69 2463.77,-167.73"/>
</g>
<!-- Node52&#45;&gt;Node25 -->
<g id="edge44" class="edge">
<title>Node52&#45;&gt;Node25</title>
<path fill="none" stroke="midnightblue" d="M2204.45,-448.46C2202.29,-429.98 2197.5,-384.91 2197.5,-347 2197.5,-347 2197.5,-347 2197.5,-289 2197.5,-220.35 2286.9,-194.44 2348.76,-184.74"/>
<polygon fill="midnightblue" stroke="midnightblue" points="2349.43,-188.18 2358.81,-183.26 2348.41,-181.25 2349.43,-188.18"/>
</g>
<!-- Node52&#45;&gt;Node27 -->
<g id="edge46" class="edge">
<title>Node52&#45;&gt;Node27</title>
<path fill="none" stroke="midnightblue" d="M2200.73,-448.26C2186.31,-422.03 2141.42,-341.97 2097.5,-280 2048.37,-210.68 2016.1,-207.17 1976.5,-132 1968.79,-117.37 1963.82,-99.2 1960.9,-85.79"/>
<polygon fill="midnightblue" stroke="midnightblue" points="1964.31,-84.96 1958.92,-75.83 1957.44,-86.33 1964.31,-84.96"/>
</g>
<!-- Node52&#45;&gt;Node51 -->
<g id="edge45" class="edge">
<title>Node52&#45;&gt;Node51</title>
<path fill="none" stroke="midnightblue" d="M2219.48,-448.32C2233.05,-439.9 2253.88,-426.97 2269.82,-417.07"/>
<polygon fill="midnightblue" stroke="midnightblue" points="2271.91,-419.9 2278.56,-411.65 2268.21,-413.95 2271.91,-419.9"/>
</g>
<!-- Node52&#45;&gt;Node53 -->
<g id="edge47" class="edge">
<title>Node52&#45;&gt;Node53</title>
<path fill="none" stroke="midnightblue" d="M2161.61,-448.44C2112.98,-438.96 2034.55,-423.67 1982.28,-413.48"/>
<polygon fill="midnightblue" stroke="midnightblue" points="1982.67,-409.99 1972.19,-411.52 1981.33,-416.87 1982.67,-409.99"/>
</g>
<!-- Node53&#45;&gt;Node11 -->
<g id="edge48" class="edge">
<title>Node53&#45;&gt;Node11</title>
<path fill="none" stroke="midnightblue" d="M1875.89,-392.44C1807.76,-381.36 1690.81,-362.34 1632.19,-352.81"/>
<polygon fill="midnightblue" stroke="midnightblue" points="1632.72,-349.35 1622.29,-351.19 1631.6,-356.25 1632.72,-349.35"/>
</g>
<!-- Node53&#45;&gt;Node27 -->
<g id="edge58" class="edge">
<title>Node53&#45;&gt;Node27</title>
<path fill="none" stroke="midnightblue" d="M1927.32,-392.46C1924.88,-373.99 1919.5,-328.94 1919.5,-291 1919.5,-291 1919.5,-291 1919.5,-177 1919.5,-142.81 1936.1,-105.76 1947.36,-84.57"/>
<polygon fill="midnightblue" stroke="midnightblue" points="1950.45,-86.22 1952.22,-75.77 1944.32,-82.83 1950.45,-86.22"/>
</g>
<!-- Node53&#45;&gt;Node54 -->
<g id="edge49" class="edge">
<title>Node53&#45;&gt;Node54</title>
<path fill="none" stroke="midnightblue" d="M1939.26,-392.32C1949.27,-384.26 1964.39,-372.08 1976.43,-362.37"/>
<polygon fill="midnightblue" stroke="midnightblue" points="1978.95,-364.83 1984.54,-355.83 1974.56,-359.38 1978.95,-364.83"/>
</g>
<!-- Node54&#45;&gt;Node55 -->
<g id="edge50" class="edge">
<title>Node54&#45;&gt;Node55</title>
<path fill="none" stroke="midnightblue" d="M1996.49,-336.08C1997.29,-328.93 1998.43,-318.64 1999.42,-309.69"/>
<polygon fill="midnightblue" stroke="midnightblue" points="2002.9,-310.08 2000.53,-299.75 1995.94,-309.3 2002.9,-310.08"/>
</g>
<!-- Node56 -->
<g id="node41" class="node">
<title>Node56</title>
<g id="a_node41"><a xlink:href="visual-effects_8h.html" target="_top" xlink:title=" ">
<polygon fill="white" stroke="black" points="1722,-280.5 1722,-299.5 1853,-299.5 1853,-280.5 1722,-280.5"/>
<text text-anchor="middle" x="1787.5" y="-287.5" font-family="FreeSans" font-size="10.00">magick/visual&#45;effects.h</text>
</a>
</g>
</g>
<!-- Node54&#45;&gt;Node56 -->
<g id="edge51" class="edge">
<title>Node54&#45;&gt;Node56</title>
<path fill="none" stroke="midnightblue" d="M1962.54,-336.44C1926.71,-327.14 1869.34,-312.25 1830.11,-302.06"/>
<polygon fill="midnightblue" stroke="midnightblue" points="1830.86,-298.64 1820.3,-299.52 1829.1,-305.42 1830.86,-298.64"/>
</g>
<!-- Node56&#45;&gt;Node57 -->
<g id="edge52" class="edge">
<title>Node56&#45;&gt;Node57</title>
<path fill="none" stroke="midnightblue" d="M1788.33,-280.08C1788.98,-273.01 1789.92,-262.86 1790.74,-253.99"/>
<polygon fill="midnightblue" stroke="midnightblue" points="1794.25,-254.03 1791.69,-243.75 1787.28,-253.39 1794.25,-254.03"/>
</g>
<!-- Node57&#45;&gt;Node25 -->
<g id="edge54" class="edge">
<title>Node57&#45;&gt;Node25</title>
<path fill="none" stroke="midnightblue" d="M1836.66,-229.12C1945.53,-219.54 2226.82,-194.8 2348.73,-184.08"/>
<polygon fill="midnightblue" stroke="midnightblue" points="2349.32,-187.54 2358.98,-183.18 2348.71,-180.57 2349.32,-187.54"/>
</g>
<!-- Node57&#45;&gt;Node26 -->
<g id="edge57" class="edge">
<title>Node57&#45;&gt;Node26</title>
<path fill="none" stroke="midnightblue" d="M1796.82,-224.37C1805.81,-206.38 1826.72,-164.55 1838.69,-140.63"/>
<polygon fill="midnightblue" stroke="midnightblue" points="1841.86,-142.1 1843.2,-131.59 1835.6,-138.97 1841.86,-142.1"/>
</g>
<!-- Node57&#45;&gt;Node27 -->
<g id="edge55" class="edge">
<title>Node57&#45;&gt;Node27</title>
<path fill="none" stroke="midnightblue" d="M1789.47,-224.25C1782.57,-202.6 1768.26,-145.89 1794.5,-112 1807.94,-94.65 1861.28,-82.22 1903.33,-74.87"/>
<polygon fill="midnightblue" stroke="midnightblue" points="1903.92,-78.32 1913.2,-73.21 1902.76,-71.42 1903.92,-78.32"/>
</g>
<!-- Node57&#45;&gt;Node39 -->
<g id="edge53" class="edge">
<title>Node57&#45;&gt;Node39</title>
<path fill="none" stroke="midnightblue" d="M1811.96,-224.37C1855.51,-205.05 1961.01,-158.26 2011.98,-135.65"/>
<polygon fill="midnightblue" stroke="midnightblue" points="2013.41,-138.85 2021.13,-131.59 2010.57,-132.45 2013.41,-138.85"/>
</g>
<!-- Node58 -->
<g id="node43" class="node">
<title>Node58</title>
<g id="a_node43"><a xlink:href="type_8h.html" target="_top" xlink:title=" ">
<polygon fill="white" stroke="black" points="1678.5,-168.5 1678.5,-187.5 1764.5,-187.5 1764.5,-168.5 1678.5,-168.5"/>
<text text-anchor="middle" x="1721.5" y="-175.5" font-family="FreeSans" font-size="10.00">magick/type.h</text>
</a>
</g>
</g>
<!-- Node57&#45;&gt;Node58 -->
<g id="edge56" class="edge">
<title>Node57&#45;&gt;Node58</title>
<path fill="none" stroke="midnightblue" d="M1781.09,-224.32C1770.39,-216.18 1754.16,-203.84 1741.34,-194.09"/>
<polygon fill="midnightblue" stroke="midnightblue" points="1743.19,-191.1 1733.11,-187.83 1738.96,-196.67 1743.19,-191.1"/>
</g>
<!-- Node59&#45;&gt;Node60 -->
<g id="edge60" class="edge">
<title>Node59&#45;&gt;Node60</title>
<path fill="none" stroke="midnightblue" d="M1620.74,-448.32C1610.73,-440.26 1595.61,-428.08 1583.57,-418.37"/>
<polygon fill="midnightblue" stroke="midnightblue" points="1585.44,-415.38 1575.46,-411.83 1581.05,-420.83 1585.44,-415.38"/>
</g>
<!-- Node60&#45;&gt;Node5 -->
<g id="edge61" class="edge">
<title>Node60&#45;&gt;Node5</title>
<path fill="none" stroke="midnightblue" d="M1551.97,-392.32C1539.91,-383.98 1521.47,-371.21 1507.23,-361.35"/>
<polygon fill="midnightblue" stroke="midnightblue" points="1509.22,-358.47 1499,-355.65 1505.23,-364.22 1509.22,-358.47"/>
</g>
<!-- Node62&#45;&gt;Node53 -->
<g id="edge66" class="edge">
<title>Node62&#45;&gt;Node53</title>
<path fill="none" stroke="midnightblue" d="M1931.84,-448.08C1931.32,-441.01 1930.56,-430.86 1929.91,-421.99"/>
<polygon fill="midnightblue" stroke="midnightblue" points="1933.38,-421.47 1929.15,-411.75 1926.4,-421.98 1933.38,-421.47"/>
</g>
<!-- Node62&#45;&gt;Node56 -->
<g id="edge67" class="edge">
<title>Node62&#45;&gt;Node56</title>
<path fill="none" stroke="midnightblue" d="M1909.91,-448.42C1892.52,-440.91 1868.79,-428.61 1852.5,-412 1822.7,-381.61 1802.85,-334.77 1793.57,-309.2"/>
<polygon fill="midnightblue" stroke="midnightblue" points="1796.84,-307.94 1790.24,-299.65 1790.23,-310.25 1796.84,-307.94"/>
</g>
<!-- Node63&#45;&gt;Node9 -->
<g id="edge72" class="edge">
<title>Node63&#45;&gt;Node9</title>
<path fill="none" stroke="midnightblue" d="M1400.93,-392.32C1390.08,-384.18 1373.62,-371.84 1360.62,-362.09"/>
<polygon fill="midnightblue" stroke="midnightblue" points="1362.38,-359.03 1352.28,-355.83 1358.18,-364.63 1362.38,-359.03"/>
</g>
<!-- Node63&#45;&gt;Node15 -->
<g id="edge73" class="edge">
<title>Node63&#45;&gt;Node15</title>
<path fill="none" stroke="midnightblue" d="M1412.5,-392.08C1412.5,-385.01 1412.5,-374.86 1412.5,-365.99"/>
<polygon fill="midnightblue" stroke="midnightblue" points="1416,-365.75 1412.5,-355.75 1409,-365.75 1416,-365.75"/>
</g>
<!-- Node64&#45;&gt;Node25 -->
<g id="edge75" class="edge">
<title>Node64&#45;&gt;Node25</title>
<path fill="none" stroke="midnightblue" d="M1793.09,-448.26C1808.91,-419.11 1864.23,-324.54 1938.5,-280 2070.25,-200.99 2255.7,-183.42 2348.64,-179.76"/>
<polygon fill="midnightblue" stroke="midnightblue" points="2348.82,-183.25 2358.69,-179.4 2348.57,-176.26 2348.82,-183.25"/>
</g>
<!-- Node64&#45;&gt;Node26 -->
<g id="edge76" class="edge">
<title>Node64&#45;&gt;Node26</title>
<path fill="none" stroke="midnightblue" d="M1759.91,-448.49C1719.49,-434.48 1650.5,-402.46 1650.5,-347 1650.5,-347 1650.5,-347 1650.5,-233 1650.5,-202.9 1647.83,-188.89 1669.5,-168 1702.26,-136.42 1753.83,-126.07 1793.04,-123.09"/>
<polygon fill="midnightblue" stroke="midnightblue" points="1793.48,-126.57 1803.24,-122.46 1793.04,-119.58 1793.48,-126.57"/>
</g>
<!-- Node64&#45;&gt;Node51 -->
<g id="edge77" class="edge">
<title>Node64&#45;&gt;Node51</title>
<path fill="none" stroke="midnightblue" d="M1851.71,-449.02C1854.68,-448.67 1857.62,-448.33 1860.5,-448 1984.63,-433.78 2129.04,-419.12 2215.49,-410.54"/>
<polygon fill="midnightblue" stroke="midnightblue" points="2215.87,-414.02 2225.48,-409.55 2215.18,-407.05 2215.87,-414.02"/>
</g>
<!-- Node64&#45;&gt;Node53 -->
<g id="edge79" class="edge">
<title>Node64&#45;&gt;Node53</title>
<path fill="none" stroke="midnightblue" d="M1810.68,-448.44C1833.93,-439.48 1870.65,-425.31 1896.92,-415.18"/>
<polygon fill="midnightblue" stroke="midnightblue" points="1898.35,-418.38 1906.42,-411.52 1895.83,-411.85 1898.35,-418.38"/>
</g>
<!-- Node64&#45;&gt;Node63 -->
<g id="edge78" class="edge">
<title>Node64&#45;&gt;Node63</title>
<path fill="none" stroke="midnightblue" d="M1728.92,-448.44C1660.63,-438.64 1549.04,-422.61 1478.26,-412.44"/>
<polygon fill="midnightblue" stroke="midnightblue" points="1478.52,-408.95 1468.12,-410.99 1477.52,-415.87 1478.52,-408.95"/>
</g>
</g>
</svg>
