<?xml version="1.0" encoding="UTF-8" standalone="no"?>
<!DOCTYPE svg PUBLIC "-//W3C//DTD SVG 1.1//EN"
 "http://www.w3.org/Graphics/SVG/1.1/DTD/svg11.dtd">
<!-- Generated by graphviz version 2.43.0 (0)
 -->
<!-- Title: hashmap.c Pages: 1 -->
<svg width="1996pt" height="252pt"
 viewBox="0.00 0.00 1996.37 252.00" xmlns="http://www.w3.org/2000/svg" xmlns:xlink="http://www.w3.org/1999/xlink">
<g id="graph0" class="graph" transform="scale(1 1) rotate(0) translate(4 248)">
<title>hashmap.c</title>
<polygon fill="white" stroke="transparent" points="-4,4 -4,-248 1992.37,-248 1992.37,4 -4,4"/>
<!-- Node1 -->
<g id="node1" class="node">
<title>Node1</title>
<g id="a_node1"><a xlink:title=" ">
<polygon fill="#bfbfbf" stroke="black" points="336.37,-224.5 336.37,-243.5 406.37,-243.5 406.37,-224.5 336.37,-224.5"/>
<text text-anchor="middle" x="371.37" y="-231.5" font-family="FreeSans" font-size="10.00">hashmap.c</text>
</a>
</g>
</g>
<!-- Node2 -->
<g id="node2" class="node">
<title>Node2</title>
<g id="a_node2"><a xlink:href="studio_8h.html" target="_top" xlink:title=" ">
<polygon fill="white" stroke="black" points="925.87,-168.5 925.87,-187.5 1020.87,-187.5 1020.87,-168.5 925.87,-168.5"/>
<text text-anchor="middle" x="973.37" y="-175.5" font-family="FreeSans" font-size="10.00">magick/studio.h</text>
</a>
</g>
</g>
<!-- Node1&#45;&gt;Node2 -->
<g id="edge1" class="edge">
<title>Node1&#45;&gt;Node2</title>
<path fill="none" stroke="midnightblue" d="M406.78,-229.82C506.8,-220.85 792.16,-195.26 915.46,-184.19"/>
<polygon fill="midnightblue" stroke="midnightblue" points="915.82,-187.68 925.46,-183.3 915.19,-180.7 915.82,-187.68"/>
</g>
<!-- Node24 -->
<g id="node24" class="node">
<title>Node24</title>
<g id="a_node24"><a xlink:href="exception_8h.html" target="_top" xlink:title=" ">
<polygon fill="white" stroke="black" points="138.87,-56.5 138.87,-75.5 251.87,-75.5 251.87,-56.5 138.87,-56.5"/>
<text text-anchor="middle" x="195.37" y="-63.5" font-family="FreeSans" font-size="10.00">magick/exception.h</text>
</a>
</g>
</g>
<!-- Node1&#45;&gt;Node24 -->
<g id="edge24" class="edge">
<title>Node1&#45;&gt;Node24</title>
<path fill="none" stroke="midnightblue" d="M336.28,-233.01C266.23,-232.21 112.98,-226.04 80.37,-188 45.23,-147 122.16,-101.58 166.64,-79.9"/>
<polygon fill="midnightblue" stroke="midnightblue" points="168.33,-82.97 175.85,-75.52 165.32,-76.65 168.33,-82.97"/>
</g>
<!-- Node25 -->
<g id="node25" class="node">
<title>Node25</title>
<g id="a_node25"><a xlink:href="semaphore_8h.html" target="_top" xlink:title=" ">
<polygon fill="white" stroke="black" points="10.87,-0.5 10.87,-19.5 129.87,-19.5 129.87,-0.5 10.87,-0.5"/>
<text text-anchor="middle" x="70.37" y="-7.5" font-family="FreeSans" font-size="10.00">magick/semaphore.h</text>
</a>
</g>
</g>
<!-- Node1&#45;&gt;Node25 -->
<g id="edge44" class="edge">
<title>Node1&#45;&gt;Node25</title>
<path fill="none" stroke="midnightblue" d="M336.23,-231.73C265.86,-228.58 110.78,-218.29 68.37,-188 16.22,-150.76 -18.29,-113.32 10.37,-56 17.1,-42.54 29.98,-32.07 42.08,-24.62"/>
<polygon fill="midnightblue" stroke="midnightblue" points="44.1,-27.5 51.07,-19.52 40.65,-21.41 44.1,-27.5"/>
</g>
<!-- Node26 -->
<g id="node26" class="node">
<title>Node26</title>
<g id="a_node26"><a xlink:href="exception-private_8h.html" target="_top" xlink:title=" ">
<polygon fill="white" stroke="black" points="89.87,-168.5 89.87,-187.5 240.87,-187.5 240.87,-168.5 89.87,-168.5"/>
<text text-anchor="middle" x="165.37" y="-175.5" font-family="FreeSans" font-size="10.00">magick/exception&#45;private.h</text>
</a>
</g>
</g>
<!-- Node1&#45;&gt;Node26 -->
<g id="edge27" class="edge">
<title>Node1&#45;&gt;Node26</title>
<path fill="none" stroke="midnightblue" d="M338.73,-224.44C303.32,-215.16 246.66,-200.31 207.82,-190.13"/>
<polygon fill="midnightblue" stroke="midnightblue" points="208.42,-186.67 197.86,-187.52 206.64,-193.44 208.42,-186.67"/>
</g>
<!-- Node29 -->
<g id="node29" class="node">
<title>Node29</title>
<g id="a_node29"><a xlink:href="string___8h.html" target="_top" xlink:title=" ">
<polygon fill="white" stroke="black" points="224.37,-112.5 224.37,-131.5 322.37,-131.5 322.37,-112.5 224.37,-112.5"/>
<text text-anchor="middle" x="273.37" y="-119.5" font-family="FreeSans" font-size="10.00">magick/string_.h</text>
</a>
</g>
</g>
<!-- Node1&#45;&gt;Node29 -->
<g id="edge47" class="edge">
<title>Node1&#45;&gt;Node29</title>
<path fill="none" stroke="midnightblue" d="M342.23,-224.45C323.77,-217.55 300.91,-205.97 287.37,-188 277.39,-174.75 274.2,-155.88 273.33,-141.89"/>
<polygon fill="midnightblue" stroke="midnightblue" points="276.81,-141.41 273.04,-131.51 269.82,-141.6 276.81,-141.41"/>
</g>
<!-- Node30 -->
<g id="node30" class="node">
<title>Node30</title>
<g id="a_node30"><a xlink:href="hashmap_8h.html" target="_top" xlink:title=" ">
<polygon fill="white" stroke="black" points="1878.37,-112.5 1878.37,-131.5 1988.37,-131.5 1988.37,-112.5 1878.37,-112.5"/>
<text text-anchor="middle" x="1933.37" y="-119.5" font-family="FreeSans" font-size="10.00">magick/hashmap.h</text>
</a>
</g>
</g>
<!-- Node1&#45;&gt;Node30 -->
<g id="edge38" class="edge">
<title>Node1&#45;&gt;Node30</title>
<path fill="none" stroke="midnightblue" d="M406.53,-233.18C547.83,-233.57 1087.92,-231.93 1529.37,-188 1656.56,-175.34 1804.53,-148.37 1881.24,-133.46"/>
<polygon fill="midnightblue" stroke="midnightblue" points="1881.99,-136.88 1891.13,-131.52 1880.64,-130.01 1881.99,-136.88"/>
</g>
<!-- Node31 -->
<g id="node31" class="node">
<title>Node31</title>
<g id="a_node31"><a xlink:href="locale___8h.html" target="_top" xlink:title=" ">
<polygon fill="white" stroke="black" points="1421.87,-168.5 1421.87,-187.5 1520.87,-187.5 1520.87,-168.5 1421.87,-168.5"/>
<text text-anchor="middle" x="1471.37" y="-175.5" font-family="FreeSans" font-size="10.00">magick/locale_.h</text>
</a>
</g>
</g>
<!-- Node1&#45;&gt;Node31 -->
<g id="edge39" class="edge">
<title>Node1&#45;&gt;Node31</title>
<path fill="none" stroke="midnightblue" d="M406.42,-231.28C564.36,-223.53 1211.06,-191.78 1411.71,-181.93"/>
<polygon fill="midnightblue" stroke="midnightblue" points="1411.95,-185.42 1421.77,-181.44 1411.61,-178.43 1411.95,-185.42"/>
</g>
<!-- Node32 -->
<g id="node32" class="node">
<title>Node32</title>
<g id="a_node32"><a xlink:href="memory___8h.html" target="_top" xlink:title=" ">
<polygon fill="white" stroke="black" points="463.87,-168.5 463.87,-187.5 574.87,-187.5 574.87,-168.5 463.87,-168.5"/>
<text text-anchor="middle" x="519.37" y="-175.5" font-family="FreeSans" font-size="10.00">magick/memory_.h</text>
</a>
</g>
</g>
<!-- Node1&#45;&gt;Node32 -->
<g id="edge41" class="edge">
<title>Node1&#45;&gt;Node32</title>
<path fill="none" stroke="midnightblue" d="M394.82,-224.44C419.5,-215.44 458.56,-201.19 486.35,-191.05"/>
<polygon fill="midnightblue" stroke="midnightblue" points="487.83,-194.23 496.03,-187.52 485.44,-187.66 487.83,-194.23"/>
</g>
<!-- Node33 -->
<g id="node33" class="node">
<title>Node33</title>
<g id="a_node33"><a xlink:href="signature-private_8h.html" target="_top" xlink:title=" ">
<polygon fill="white" stroke="black" points="296.87,-168.5 296.87,-187.5 445.87,-187.5 445.87,-168.5 296.87,-168.5"/>
<text text-anchor="middle" x="371.37" y="-175.5" font-family="FreeSans" font-size="10.00">magick/signature&#45;private.h</text>
</a>
</g>
</g>
<!-- Node1&#45;&gt;Node33 -->
<g id="edge45" class="edge">
<title>Node1&#45;&gt;Node33</title>
<path fill="none" stroke="midnightblue" d="M371.37,-224.08C371.37,-217.01 371.37,-206.86 371.37,-197.99"/>
<polygon fill="midnightblue" stroke="midnightblue" points="374.87,-197.75 371.37,-187.75 367.87,-197.75 374.87,-197.75"/>
</g>
<!-- Node3 -->
<g id="node3" class="node">
<title>Node3</title>
<g id="a_node3"><a xlink:href="magick-config_8h.html" target="_top" xlink:title=" ">
<polygon fill="white" stroke="black" points="1380.37,-56.5 1380.37,-75.5 1514.37,-75.5 1514.37,-56.5 1380.37,-56.5"/>
<text text-anchor="middle" x="1447.37" y="-63.5" font-family="FreeSans" font-size="10.00">magick/magick&#45;config.h</text>
</a>
</g>
</g>
<!-- Node2&#45;&gt;Node3 -->
<g id="edge2" class="edge">
<title>Node2&#45;&gt;Node3</title>
<path fill="none" stroke="midnightblue" d="M994.48,-168.46C1015.82,-159.7 1049.65,-145.5 1078.37,-132 1096,-123.71 1098.79,-117.84 1117.37,-112 1201.32,-85.6 1302.08,-74.69 1370,-70.17"/>
<polygon fill="midnightblue" stroke="midnightblue" points="1370.43,-73.65 1380.19,-69.53 1369.99,-66.67 1370.43,-73.65"/>
</g>
<!-- Node5 -->
<g id="node5" class="node">
<title>Node5</title>
<g id="a_node5"><a xlink:title=" ">
<polygon fill="white" stroke="#bfbfbf" points="252.37,-0.5 252.37,-19.5 308.37,-19.5 308.37,-0.5 252.37,-0.5"/>
<text text-anchor="middle" x="280.37" y="-7.5" font-family="FreeSans" font-size="10.00">stdarg.h</text>
</a>
</g>
</g>
<!-- Node2&#45;&gt;Node5 -->
<g id="edge4" class="edge">
<title>Node2&#45;&gt;Node5</title>
<path fill="none" stroke="midnightblue" d="M966.01,-168.37C953.55,-154.34 926.86,-126.67 898.37,-112 795.63,-59.1 437.37,-24.41 318.8,-14.17"/>
<polygon fill="midnightblue" stroke="midnightblue" points="319,-10.67 308.73,-13.3 318.4,-17.64 319,-10.67"/>
</g>
<!-- Node6 -->
<g id="node6" class="node">
<title>Node6</title>
<g id="a_node6"><a xlink:title=" ">
<polygon fill="white" stroke="#bfbfbf" points="948.37,-112.5 948.37,-131.5 998.37,-131.5 998.37,-112.5 948.37,-112.5"/>
<text text-anchor="middle" x="973.37" y="-119.5" font-family="FreeSans" font-size="10.00">stdio.h</text>
</a>
</g>
</g>
<!-- Node2&#45;&gt;Node6 -->
<g id="edge5" class="edge">
<title>Node2&#45;&gt;Node6</title>
<path fill="none" stroke="midnightblue" d="M973.37,-168.08C973.37,-161.01 973.37,-150.86 973.37,-141.99"/>
<polygon fill="midnightblue" stroke="midnightblue" points="976.87,-141.75 973.37,-131.75 969.87,-141.75 976.87,-141.75"/>
</g>
<!-- Node7 -->
<g id="node7" class="node">
<title>Node7</title>
<g id="a_node7"><a xlink:title=" ">
<polygon fill="white" stroke="#bfbfbf" points="1016.87,-112.5 1016.87,-131.5 1069.87,-131.5 1069.87,-112.5 1016.87,-112.5"/>
<text text-anchor="middle" x="1043.37" y="-119.5" font-family="FreeSans" font-size="10.00">ctype.h</text>
</a>
</g>
</g>
<!-- Node2&#45;&gt;Node7 -->
<g id="edge6" class="edge">
<title>Node2&#45;&gt;Node7</title>
<path fill="none" stroke="midnightblue" d="M984.62,-168.32C995.17,-160.18 1011.17,-147.84 1023.81,-138.09"/>
<polygon fill="midnightblue" stroke="midnightblue" points="1026.14,-140.71 1031.92,-131.83 1021.86,-135.17 1026.14,-140.71"/>
</g>
<!-- Node8 -->
<g id="node8" class="node">
<title>Node8</title>
<g id="a_node8"><a xlink:title=" ">
<polygon fill="white" stroke="#bfbfbf" points="1126.87,-112.5 1126.87,-131.5 1181.87,-131.5 1181.87,-112.5 1126.87,-112.5"/>
<text text-anchor="middle" x="1154.37" y="-119.5" font-family="FreeSans" font-size="10.00">locale.h</text>
</a>
</g>
</g>
<!-- Node2&#45;&gt;Node8 -->
<g id="edge7" class="edge">
<title>Node2&#45;&gt;Node8</title>
<path fill="none" stroke="midnightblue" d="M1002.05,-168.44C1033.17,-159.16 1082.97,-144.3 1117.1,-134.12"/>
<polygon fill="midnightblue" stroke="midnightblue" points="1118.13,-137.46 1126.72,-131.25 1116.13,-130.76 1118.13,-137.46"/>
</g>
<!-- Node9 -->
<g id="node9" class="node">
<title>Node9</title>
<g id="a_node9"><a xlink:title=" ">
<polygon fill="white" stroke="#bfbfbf" points="414.87,-112.5 414.87,-131.5 465.87,-131.5 465.87,-112.5 414.87,-112.5"/>
<text text-anchor="middle" x="440.37" y="-119.5" font-family="FreeSans" font-size="10.00">errno.h</text>
</a>
</g>
</g>
<!-- Node2&#45;&gt;Node9 -->
<g id="edge8" class="edge">
<title>Node2&#45;&gt;Node9</title>
<path fill="none" stroke="midnightblue" d="M925.66,-175.25C838.28,-171.5 646.67,-160.7 475.81,-131.77"/>
<polygon fill="midnightblue" stroke="midnightblue" points="476.33,-128.31 465.88,-130.07 475.14,-135.21 476.33,-128.31"/>
</g>
<!-- Node10 -->
<g id="node10" class="node">
<title>Node10</title>
<g id="a_node10"><a xlink:title=" ">
<polygon fill="white" stroke="#bfbfbf" points="1199.87,-112.5 1199.87,-131.5 1246.87,-131.5 1246.87,-112.5 1199.87,-112.5"/>
<text text-anchor="middle" x="1223.37" y="-119.5" font-family="FreeSans" font-size="10.00">fcntl.h</text>
</a>
</g>
</g>
<!-- Node2&#45;&gt;Node10 -->
<g id="edge9" class="edge">
<title>Node2&#45;&gt;Node10</title>
<path fill="none" stroke="midnightblue" d="M1018.44,-168.5C1060.3,-160.41 1124.6,-147.51 1189.61,-132.06"/>
<polygon fill="midnightblue" stroke="midnightblue" points="1190.71,-135.4 1199.62,-129.67 1189.08,-128.59 1190.71,-135.4"/>
</g>
<!-- Node11 -->
<g id="node11" class="node">
<title>Node11</title>
<g id="a_node11"><a xlink:title=" ">
<polygon fill="white" stroke="#bfbfbf" points="1264.87,-112.5 1264.87,-131.5 1315.87,-131.5 1315.87,-112.5 1264.87,-112.5"/>
<text text-anchor="middle" x="1290.37" y="-119.5" font-family="FreeSans" font-size="10.00">math.h</text>
</a>
</g>
</g>
<!-- Node2&#45;&gt;Node11 -->
<g id="edge10" class="edge">
<title>Node2&#45;&gt;Node11</title>
<path fill="none" stroke="midnightblue" d="M1021.02,-170.78C1075.26,-163.4 1166.67,-150.01 1254.91,-131.92"/>
<polygon fill="midnightblue" stroke="midnightblue" points="1255.74,-135.32 1264.82,-129.86 1254.32,-128.47 1255.74,-135.32"/>
</g>
<!-- Node12 -->
<g id="node12" class="node">
<title>Node12</title>
<g id="a_node12"><a xlink:title=" ">
<polygon fill="white" stroke="#bfbfbf" points="609.37,-56.5 609.37,-75.5 657.37,-75.5 657.37,-56.5 609.37,-56.5"/>
<text text-anchor="middle" x="633.37" y="-63.5" font-family="FreeSans" font-size="10.00">time.h</text>
</a>
</g>
</g>
<!-- Node2&#45;&gt;Node12 -->
<g id="edge11" class="edge">
<title>Node2&#45;&gt;Node12</title>
<path fill="none" stroke="midnightblue" d="M961.84,-168.37C942.53,-154.33 901.93,-126.67 863.37,-112 796.69,-86.64 713.45,-74.91 667.62,-70.03"/>
<polygon fill="midnightblue" stroke="midnightblue" points="667.92,-66.55 657.62,-69.02 667.21,-73.51 667.92,-66.55"/>
</g>
<!-- Node13 -->
<g id="node13" class="node">
<title>Node13</title>
<g id="a_node13"><a xlink:title=" ">
<polygon fill="white" stroke="#bfbfbf" points="1333.87,-112.5 1333.87,-131.5 1386.87,-131.5 1386.87,-112.5 1333.87,-112.5"/>
<text text-anchor="middle" x="1360.37" y="-119.5" font-family="FreeSans" font-size="10.00">limits.h</text>
</a>
</g>
</g>
<!-- Node2&#45;&gt;Node13 -->
<g id="edge12" class="edge">
<title>Node2&#45;&gt;Node13</title>
<path fill="none" stroke="midnightblue" d="M1021.05,-172.68C1086.91,-166.32 1209.56,-153.06 1323.75,-131.9"/>
<polygon fill="midnightblue" stroke="midnightblue" points="1324.53,-135.32 1333.71,-130.04 1323.24,-128.44 1324.53,-135.32"/>
</g>
<!-- Node14 -->
<g id="node14" class="node">
<title>Node14</title>
<g id="a_node14"><a xlink:title=" ">
<polygon fill="white" stroke="#bfbfbf" points="1404.87,-112.5 1404.87,-131.5 1459.87,-131.5 1459.87,-112.5 1404.87,-112.5"/>
<text text-anchor="middle" x="1432.37" y="-119.5" font-family="FreeSans" font-size="10.00">signal.h</text>
</a>
</g>
</g>
<!-- Node2&#45;&gt;Node14 -->
<g id="edge13" class="edge">
<title>Node2&#45;&gt;Node14</title>
<path fill="none" stroke="midnightblue" d="M1021.12,-173.98C1097.79,-168.67 1253.22,-156.06 1394.43,-131.94"/>
<polygon fill="midnightblue" stroke="midnightblue" points="1395.32,-135.33 1404.57,-130.18 1394.12,-128.44 1395.32,-135.33"/>
</g>
<!-- Node15 -->
<g id="node15" class="node">
<title>Node15</title>
<g id="a_node15"><a xlink:title=" ">
<polygon fill="white" stroke="#bfbfbf" points="340.37,-112.5 340.37,-131.5 396.37,-131.5 396.37,-112.5 340.37,-112.5"/>
<text text-anchor="middle" x="368.37" y="-119.5" font-family="FreeSans" font-size="10.00">assert.h</text>
</a>
</g>
</g>
<!-- Node2&#45;&gt;Node15 -->
<g id="edge14" class="edge">
<title>Node2&#45;&gt;Node15</title>
<path fill="none" stroke="midnightblue" d="M925.57,-175.78C829.1,-172.78 604.2,-162.96 406.54,-131.94"/>
<polygon fill="midnightblue" stroke="midnightblue" points="406.98,-128.46 396.56,-130.35 405.88,-135.38 406.98,-128.46"/>
</g>
<!-- Node16 -->
<g id="node16" class="node">
<title>Node16</title>
<g id="a_node16"><a xlink:href="method-attribute_8h.html" target="_top" xlink:title=" ">
<polygon fill="white" stroke="black" points="1478.37,-112.5 1478.37,-131.5 1626.37,-131.5 1626.37,-112.5 1478.37,-112.5"/>
<text text-anchor="middle" x="1552.37" y="-119.5" font-family="FreeSans" font-size="10.00">magick/method&#45;attribute.h</text>
</a>
</g>
</g>
<!-- Node2&#45;&gt;Node16 -->
<g id="edge15" class="edge">
<title>Node2&#45;&gt;Node16</title>
<path fill="none" stroke="midnightblue" d="M1021.18,-172.91C1107.85,-165.44 1296.97,-148.89 1468.22,-132"/>
<polygon fill="midnightblue" stroke="midnightblue" points="1468.57,-135.48 1478.17,-131.02 1467.88,-128.52 1468.57,-135.48"/>
</g>
<!-- Node17 -->
<g id="node17" class="node">
<title>Node17</title>
<g id="a_node17"><a xlink:title=" ">
<polygon fill="white" stroke="#bfbfbf" points="1644.37,-112.5 1644.37,-131.5 1716.37,-131.5 1716.37,-112.5 1644.37,-112.5"/>
<text text-anchor="middle" x="1680.37" y="-119.5" font-family="FreeSans" font-size="10.00">sys/types.h</text>
</a>
</g>
</g>
<!-- Node2&#45;&gt;Node17 -->
<g id="edge16" class="edge">
<title>Node2&#45;&gt;Node17</title>
<path fill="none" stroke="midnightblue" d="M1020.94,-175.88C1128.48,-172.89 1398.64,-162.83 1633.97,-132.02"/>
<polygon fill="midnightblue" stroke="midnightblue" points="1634.64,-135.46 1644.09,-130.68 1633.72,-128.52 1634.64,-135.46"/>
</g>
<!-- Node18 -->
<g id="node18" class="node">
<title>Node18</title>
<g id="a_node18"><a xlink:title=" ">
<polygon fill="white" stroke="#bfbfbf" points="484.37,-112.5 484.37,-131.5 548.37,-131.5 548.37,-112.5 484.37,-112.5"/>
<text text-anchor="middle" x="516.37" y="-119.5" font-family="FreeSans" font-size="10.00">sys/stat.h</text>
</a>
</g>
</g>
<!-- Node2&#45;&gt;Node18 -->
<g id="edge17" class="edge">
<title>Node2&#45;&gt;Node18</title>
<path fill="none" stroke="midnightblue" d="M925.73,-173.54C850.01,-167.66 697.37,-154.31 558.51,-132.03"/>
<polygon fill="midnightblue" stroke="midnightblue" points="558.97,-128.55 548.54,-130.41 557.85,-135.46 558.97,-128.55"/>
</g>
<!-- Node19 -->
<g id="node19" class="node">
<title>Node19</title>
<g id="a_node19"><a xlink:title=" ">
<polygon fill="white" stroke="#bfbfbf" points="566.37,-112.5 566.37,-131.5 620.37,-131.5 620.37,-112.5 566.37,-112.5"/>
<text text-anchor="middle" x="593.37" y="-119.5" font-family="FreeSans" font-size="10.00">dirent.h</text>
</a>
</g>
</g>
<!-- Node2&#45;&gt;Node19 -->
<g id="edge18" class="edge">
<title>Node2&#45;&gt;Node19</title>
<path fill="none" stroke="midnightblue" d="M925.8,-172.52C861.12,-166.05 741.67,-152.74 630.47,-132.01"/>
<polygon fill="midnightblue" stroke="midnightblue" points="630.9,-128.53 620.42,-130.12 629.6,-135.41 630.9,-128.53"/>
</g>
<!-- Node20 -->
<g id="node20" class="node">
<title>Node20</title>
<g id="a_node20"><a xlink:title=" ">
<polygon fill="white" stroke="#bfbfbf" points="638.37,-112.5 638.37,-131.5 704.37,-131.5 704.37,-112.5 638.37,-112.5"/>
<text text-anchor="middle" x="671.37" y="-119.5" font-family="FreeSans" font-size="10.00">sys/wait.h</text>
</a>
</g>
</g>
<!-- Node2&#45;&gt;Node20 -->
<g id="edge19" class="edge">
<title>Node2&#45;&gt;Node20</title>
<path fill="none" stroke="midnightblue" d="M925.82,-169.35C875.75,-161.17 794.37,-147.5 714.99,-132.26"/>
<polygon fill="midnightblue" stroke="midnightblue" points="715.3,-128.75 704.82,-130.29 713.97,-135.63 715.3,-128.75"/>
</g>
<!-- Node21 -->
<g id="node21" class="node">
<title>Node21</title>
<g id="a_node21"><a xlink:title=" ">
<polygon fill="white" stroke="#bfbfbf" points="722.37,-112.5 722.37,-131.5 768.37,-131.5 768.37,-112.5 722.37,-112.5"/>
<text text-anchor="middle" x="745.37" y="-119.5" font-family="FreeSans" font-size="10.00">pwd.h</text>
</a>
</g>
</g>
<!-- Node2&#45;&gt;Node21 -->
<g id="edge20" class="edge">
<title>Node2&#45;&gt;Node21</title>
<path fill="none" stroke="midnightblue" d="M933.44,-168.43C895.83,-160.22 837.69,-147.19 778.33,-132.15"/>
<polygon fill="midnightblue" stroke="midnightblue" points="778.96,-128.7 768.41,-129.62 777.23,-135.49 778.96,-128.7"/>
</g>
<!-- Node22 -->
<g id="node22" class="node">
<title>Node22</title>
<g id="a_node22"><a xlink:href="magick-type_8h.html" target="_top" xlink:title=" ">
<polygon fill="white" stroke="black" points="1734.37,-112.5 1734.37,-131.5 1860.37,-131.5 1860.37,-112.5 1734.37,-112.5"/>
<text text-anchor="middle" x="1797.37" y="-119.5" font-family="FreeSans" font-size="10.00">magick/magick&#45;type.h</text>
</a>
</g>
</g>
<!-- Node2&#45;&gt;Node22 -->
<g id="edge21" class="edge">
<title>Node2&#45;&gt;Node22</title>
<path fill="none" stroke="midnightblue" d="M1020.96,-175.22C1138.46,-170.6 1451.91,-156.87 1724.11,-132.06"/>
<polygon fill="midnightblue" stroke="midnightblue" points="1724.54,-135.53 1734.18,-131.13 1723.9,-128.56 1724.54,-135.53"/>
</g>
<!-- Node23 -->
<g id="node23" class="node">
<title>Node23</title>
<g id="a_node23"><a xlink:title=" ">
<polygon fill="white" stroke="#bfbfbf" points="786.37,-112.5 786.37,-131.5 854.37,-131.5 854.37,-112.5 786.37,-112.5"/>
<text text-anchor="middle" x="820.37" y="-119.5" font-family="FreeSans" font-size="10.00">sys/time.h</text>
</a>
</g>
</g>
<!-- Node2&#45;&gt;Node23 -->
<g id="edge23" class="edge">
<title>Node2&#45;&gt;Node23</title>
<path fill="none" stroke="midnightblue" d="M949.13,-168.44C923.5,-159.4 882.89,-145.06 854.13,-134.92"/>
<polygon fill="midnightblue" stroke="midnightblue" points="855.1,-131.54 844.5,-131.52 852.77,-138.15 855.1,-131.54"/>
</g>
<!-- Node4 -->
<g id="node4" class="node">
<title>Node4</title>
<g id="a_node4"><a xlink:href="magick-baseconfig_8h.html" target="_top" xlink:title=" ">
<polygon fill="white" stroke="black" points="1368.87,-0.5 1368.87,-19.5 1525.87,-19.5 1525.87,-0.5 1368.87,-0.5"/>
<text text-anchor="middle" x="1447.37" y="-7.5" font-family="FreeSans" font-size="10.00">magick/magick&#45;baseconfig.h</text>
</a>
</g>
</g>
<!-- Node3&#45;&gt;Node4 -->
<g id="edge3" class="edge">
<title>Node3&#45;&gt;Node4</title>
<path fill="none" stroke="midnightblue" d="M1447.37,-56.08C1447.37,-49.01 1447.37,-38.86 1447.37,-29.99"/>
<polygon fill="midnightblue" stroke="midnightblue" points="1450.87,-29.75 1447.37,-19.75 1443.87,-29.75 1450.87,-29.75"/>
</g>
<!-- Node22&#45;&gt;Node3 -->
<g id="edge22" class="edge">
<title>Node22&#45;&gt;Node3</title>
<path fill="none" stroke="midnightblue" d="M1741.91,-112.44C1679.7,-102.85 1578.89,-87.29 1512.86,-77.1"/>
<polygon fill="midnightblue" stroke="midnightblue" points="1512.99,-73.58 1502.57,-75.52 1511.92,-80.5 1512.99,-73.58"/>
</g>
<!-- Node24&#45;&gt;Node5 -->
<g id="edge25" class="edge">
<title>Node24&#45;&gt;Node5</title>
<path fill="none" stroke="midnightblue" d="M209.03,-56.32C222.29,-47.9 242.64,-34.97 258.22,-25.07"/>
<polygon fill="midnightblue" stroke="midnightblue" points="260.18,-27.97 266.75,-19.65 256.43,-22.06 260.18,-27.97"/>
</g>
<!-- Node24&#45;&gt;Node25 -->
<g id="edge26" class="edge">
<title>Node24&#45;&gt;Node25</title>
<path fill="none" stroke="midnightblue" d="M175.56,-56.44C155.08,-47.6 122.89,-33.69 99.51,-23.59"/>
<polygon fill="midnightblue" stroke="midnightblue" points="100.65,-20.27 90.08,-19.52 97.88,-26.7 100.65,-20.27"/>
</g>
<!-- Node27 -->
<g id="node27" class="node">
<title>Node27</title>
<g id="a_node27"><a xlink:href="log_8h.html" target="_top" xlink:title=" ">
<polygon fill="white" stroke="black" points="126.37,-112.5 126.37,-131.5 206.37,-131.5 206.37,-112.5 126.37,-112.5"/>
<text text-anchor="middle" x="166.37" y="-119.5" font-family="FreeSans" font-size="10.00">magick/log.h</text>
</a>
</g>
</g>
<!-- Node26&#45;&gt;Node27 -->
<g id="edge28" class="edge">
<title>Node26&#45;&gt;Node27</title>
<path fill="none" stroke="midnightblue" d="M165.54,-168.08C165.67,-161.01 165.85,-150.86 166.02,-141.99"/>
<polygon fill="midnightblue" stroke="midnightblue" points="169.52,-141.81 166.21,-131.75 162.52,-141.68 169.52,-141.81"/>
</g>
<!-- Node28 -->
<g id="node28" class="node">
<title>Node28</title>
<g id="a_node28"><a xlink:href="magick_8h.html" target="_top" xlink:title=" ">
<polygon fill="white" stroke="black" points="19.87,-56.5 19.87,-75.5 120.87,-75.5 120.87,-56.5 19.87,-56.5"/>
<text text-anchor="middle" x="70.37" y="-63.5" font-family="FreeSans" font-size="10.00">magick/magick.h</text>
</a>
</g>
</g>
<!-- Node26&#45;&gt;Node28 -->
<g id="edge31" class="edge">
<title>Node26&#45;&gt;Node28</title>
<path fill="none" stroke="midnightblue" d="M154.9,-168.22C144.79,-159.51 129.3,-145.55 117.37,-132 103.91,-116.71 90.49,-97.68 81.46,-84.17"/>
<polygon fill="midnightblue" stroke="midnightblue" points="84.38,-82.24 75.96,-75.81 78.53,-86.09 84.38,-82.24"/>
</g>
<!-- Node26&#45;&gt;Node29 -->
<g id="edge34" class="edge">
<title>Node26&#45;&gt;Node29</title>
<path fill="none" stroke="midnightblue" d="M182.72,-168.32C200.04,-159.66 226.89,-146.24 246.87,-136.25"/>
<polygon fill="midnightblue" stroke="midnightblue" points="248.68,-139.26 256.06,-131.65 245.55,-133 248.68,-139.26"/>
</g>
<!-- Node27&#45;&gt;Node5 -->
<g id="edge29" class="edge">
<title>Node27&#45;&gt;Node5</title>
<path fill="none" stroke="midnightblue" d="M199.74,-112.44C219.9,-105.66 244.66,-94.23 260.37,-76 271.56,-63.02 276.49,-43.85 278.66,-29.69"/>
<polygon fill="midnightblue" stroke="midnightblue" points="282.16,-29.98 279.88,-19.63 275.21,-29.14 282.16,-29.98"/>
</g>
<!-- Node27&#45;&gt;Node24 -->
<g id="edge30" class="edge">
<title>Node27&#45;&gt;Node24</title>
<path fill="none" stroke="midnightblue" d="M171.16,-112.08C175.13,-104.69 180.9,-93.95 185.81,-84.81"/>
<polygon fill="midnightblue" stroke="midnightblue" points="189.02,-86.22 190.67,-75.75 182.86,-82.91 189.02,-86.22"/>
</g>
<!-- Node28&#45;&gt;Node5 -->
<g id="edge32" class="edge">
<title>Node28&#45;&gt;Node5</title>
<path fill="none" stroke="midnightblue" d="M103.65,-56.44C141.41,-46.73 202.9,-30.92 242.48,-20.74"/>
<polygon fill="midnightblue" stroke="midnightblue" points="243.48,-24.1 252.29,-18.22 241.73,-17.32 243.48,-24.1"/>
</g>
<!-- Node28&#45;&gt;Node25 -->
<g id="edge33" class="edge">
<title>Node28&#45;&gt;Node25</title>
<path fill="none" stroke="midnightblue" d="M70.37,-56.08C70.37,-49.01 70.37,-38.86 70.37,-29.99"/>
<polygon fill="midnightblue" stroke="midnightblue" points="73.87,-29.75 70.37,-19.75 66.87,-29.75 73.87,-29.75"/>
</g>
<!-- Node29&#45;&gt;Node5 -->
<g id="edge35" class="edge">
<title>Node29&#45;&gt;Node5</title>
<path fill="none" stroke="midnightblue" d="M278.75,-112.44C283.93,-103.68 291.38,-89.47 294.37,-76 297.88,-60.17 293.33,-42.15 288.5,-29.1"/>
<polygon fill="midnightblue" stroke="midnightblue" points="291.74,-27.77 284.72,-19.84 285.26,-30.42 291.74,-27.77"/>
</g>
<!-- Node29&#45;&gt;Node12 -->
<g id="edge36" class="edge">
<title>Node29&#45;&gt;Node12</title>
<path fill="none" stroke="midnightblue" d="M322.42,-113.37C325.45,-112.9 328.45,-112.44 331.37,-112 428.36,-97.25 542.95,-80.31 599.01,-72.05"/>
<polygon fill="midnightblue" stroke="midnightblue" points="599.71,-75.49 609.09,-70.57 598.69,-68.56 599.71,-75.49"/>
</g>
<!-- Node29&#45;&gt;Node24 -->
<g id="edge37" class="edge">
<title>Node29&#45;&gt;Node24</title>
<path fill="none" stroke="midnightblue" d="M260.84,-112.32C248.78,-103.98 230.34,-91.21 216.1,-81.35"/>
<polygon fill="midnightblue" stroke="midnightblue" points="218.09,-78.47 207.87,-75.65 214.1,-84.22 218.09,-78.47"/>
</g>
<!-- Node31&#45;&gt;Node30 -->
<g id="edge40" class="edge">
<title>Node31&#45;&gt;Node30</title>
<path fill="none" stroke="midnightblue" d="M1521.06,-171.82C1594.52,-164.06 1736.71,-148.69 1867.99,-132.15"/>
<polygon fill="midnightblue" stroke="midnightblue" points="1868.74,-135.58 1878.23,-130.85 1867.87,-128.63 1868.74,-135.58"/>
</g>
<!-- Node32&#45;&gt;Node9 -->
<g id="edge42" class="edge">
<title>Node32&#45;&gt;Node9</title>
<path fill="none" stroke="midnightblue" d="M506.68,-168.32C494.47,-159.98 475.79,-147.21 461.37,-137.35"/>
<polygon fill="midnightblue" stroke="midnightblue" points="463.26,-134.41 453.03,-131.65 459.31,-140.19 463.26,-134.41"/>
</g>
<!-- Node32&#45;&gt;Node15 -->
<g id="edge43" class="edge">
<title>Node32&#45;&gt;Node15</title>
<path fill="none" stroke="midnightblue" d="M495.44,-168.44C470.15,-159.4 430.07,-145.06 401.69,-134.92"/>
<polygon fill="midnightblue" stroke="midnightblue" points="402.78,-131.59 392.19,-131.52 400.42,-138.18 402.78,-131.59"/>
</g>
<!-- Node33&#45;&gt;Node29 -->
<g id="edge46" class="edge">
<title>Node33&#45;&gt;Node29</title>
<path fill="none" stroke="midnightblue" d="M355.63,-168.32C340.05,-159.74 315.99,-146.49 297.91,-136.52"/>
<polygon fill="midnightblue" stroke="midnightblue" points="299.52,-133.42 289.08,-131.65 296.15,-139.55 299.52,-133.42"/>
</g>
</g>
</svg>
