<?xml version="1.0" encoding="UTF-8" standalone="no"?>
<!DOCTYPE svg PUBLIC "-//W3C//DTD SVG 1.1//EN"
 "http://www.w3.org/Graphics/SVG/1.1/DTD/svg11.dtd">
<!-- Generated by graphviz version 2.43.0 (0)
 -->
<!-- Title: histogram.c Pages: 1 -->
<svg width="3355pt" height="364pt"
 viewBox="0.00 0.00 3354.50 364.00" xmlns="http://www.w3.org/2000/svg" xmlns:xlink="http://www.w3.org/1999/xlink">
<g id="graph0" class="graph" transform="scale(1 1) rotate(0) translate(4 360)">
<title>histogram.c</title>
<polygon fill="white" stroke="transparent" points="-4,4 -4,-360 3350.5,-360 3350.5,4 -4,4"/>
<!-- Node1 -->
<g id="node1" class="node">
<title>Node1</title>
<g id="a_node1"><a xlink:title=" ">
<polygon fill="#bfbfbf" stroke="black" points="2226.5,-336.5 2226.5,-355.5 2300.5,-355.5 2300.5,-336.5 2226.5,-336.5"/>
<text text-anchor="middle" x="2263.5" y="-343.5" font-family="FreeSans" font-size="10.00">histogram.c</text>
</a>
</g>
</g>
<!-- Node2 -->
<g id="node2" class="node">
<title>Node2</title>
<g id="a_node2"><a xlink:href="studio_8h.html" target="_top" xlink:title=" ">
<polygon fill="white" stroke="black" points="842,-168.5 842,-187.5 937,-187.5 937,-168.5 842,-168.5"/>
<text text-anchor="middle" x="889.5" y="-175.5" font-family="FreeSans" font-size="10.00">magick/studio.h</text>
</a>
</g>
</g>
<!-- Node1&#45;&gt;Node2 -->
<g id="edge1" class="edge">
<title>Node1&#45;&gt;Node2</title>
<path fill="none" stroke="midnightblue" d="M2226.3,-344.12C2078.91,-340.49 1535.68,-325.63 1365.5,-300 1198.06,-274.78 1003.97,-215.88 925.32,-190.72"/>
<polygon fill="midnightblue" stroke="midnightblue" points="926.03,-187.28 915.44,-187.55 923.89,-193.94 926.03,-187.28"/>
</g>
<!-- Node24 -->
<g id="node23" class="node">
<title>Node24</title>
<g id="a_node23"><a xlink:href="cache-view_8h.html" target="_top" xlink:title=" ">
<polygon fill="white" stroke="black" points="1614,-112.5 1614,-131.5 1733,-131.5 1733,-112.5 1614,-112.5"/>
<text text-anchor="middle" x="1673.5" y="-119.5" font-family="FreeSans" font-size="10.00">magick/cache&#45;view.h</text>
</a>
</g>
</g>
<!-- Node1&#45;&gt;Node24 -->
<g id="edge23" class="edge">
<title>Node1&#45;&gt;Node24</title>
<path fill="none" stroke="midnightblue" d="M2226.5,-342.47C2155.88,-337.29 1997.21,-323.87 1865.5,-300 1764.95,-281.77 1733.56,-290.38 1642.5,-244 1602.38,-223.56 1551.19,-205.91 1575.5,-168 1585.77,-151.98 1603.35,-141.58 1620.8,-134.87"/>
<polygon fill="midnightblue" stroke="midnightblue" points="1622.14,-138.11 1630.43,-131.51 1619.84,-131.5 1622.14,-138.11"/>
</g>
<!-- Node28 -->
<g id="node26" class="node">
<title>Node28</title>
<g id="a_node26"><a xlink:href="color-private_8h.html" target="_top" xlink:title=" ">
<polygon fill="white" stroke="black" points="1950,-280.5 1950,-299.5 2077,-299.5 2077,-280.5 1950,-280.5"/>
<text text-anchor="middle" x="2013.5" y="-287.5" font-family="FreeSans" font-size="10.00">magick/color&#45;private.h</text>
</a>
</g>
</g>
<!-- Node1&#45;&gt;Node28 -->
<g id="edge26" class="edge">
<title>Node1&#45;&gt;Node28</title>
<path fill="none" stroke="midnightblue" d="M2226.34,-336.97C2182.91,-327.59 2110.88,-312.03 2062.8,-301.65"/>
<polygon fill="midnightblue" stroke="midnightblue" points="2063.44,-298.21 2052.93,-299.52 2061.96,-305.05 2063.44,-298.21"/>
</g>
<!-- Node29 -->
<g id="node27" class="node">
<title>Node29</title>
<g id="a_node27"><a xlink:href="image_8h.html" target="_top" xlink:title=" ">
<polygon fill="white" stroke="red" points="2005,-168.5 2005,-187.5 2100,-187.5 2100,-168.5 2005,-168.5"/>
<text text-anchor="middle" x="2052.5" y="-175.5" font-family="FreeSans" font-size="10.00">magick/image.h</text>
</a>
</g>
</g>
<!-- Node1&#45;&gt;Node29 -->
<g id="edge66" class="edge">
<title>Node1&#45;&gt;Node29</title>
<path fill="none" stroke="midnightblue" d="M2238.87,-336.39C2218.62,-328.65 2189.75,-316.04 2167.5,-300 2124.79,-269.21 2084.78,-221.18 2065.15,-195.88"/>
<polygon fill="midnightblue" stroke="midnightblue" points="2067.72,-193.49 2058.87,-187.67 2062.16,-197.74 2067.72,-193.49"/>
</g>
<!-- Node31 -->
<g id="node29" class="node">
<title>Node31</title>
<g id="a_node29"><a xlink:href="exception_8h.html" target="_top" xlink:title=" ">
<polygon fill="white" stroke="black" points="2152,-56.5 2152,-75.5 2265,-75.5 2265,-56.5 2152,-56.5"/>
<text text-anchor="middle" x="2208.5" y="-63.5" font-family="FreeSans" font-size="10.00">magick/exception.h</text>
</a>
</g>
</g>
<!-- Node1&#45;&gt;Node31 -->
<g id="edge62" class="edge">
<title>Node1&#45;&gt;Node31</title>
<path fill="none" stroke="midnightblue" d="M2269.12,-336.34C2288.83,-305.88 2353.86,-204.65 2358.5,-188 2360.89,-179.44 2361.21,-176.46 2358.5,-168 2349.17,-138.87 2342.48,-130.98 2318.5,-112 2299.07,-96.62 2273.66,-85.77 2252.15,-78.58"/>
<polygon fill="midnightblue" stroke="midnightblue" points="2253.18,-75.23 2242.58,-75.53 2251.05,-81.9 2253.18,-75.23"/>
</g>
<!-- Node32 -->
<g id="node30" class="node">
<title>Node32</title>
<g id="a_node30"><a xlink:href="semaphore_8h.html" target="_top" xlink:title=" ">
<polygon fill="white" stroke="black" points="2313,-0.5 2313,-19.5 2432,-19.5 2432,-0.5 2313,-0.5"/>
<text text-anchor="middle" x="2372.5" y="-7.5" font-family="FreeSans" font-size="10.00">magick/semaphore.h</text>
</a>
</g>
</g>
<!-- Node1&#45;&gt;Node32 -->
<g id="edge82" class="edge">
<title>Node1&#45;&gt;Node32</title>
<path fill="none" stroke="midnightblue" d="M2272.42,-336.35C2281.38,-327.52 2295.4,-313.25 2306.5,-300 2343.75,-255.54 2352.59,-242.1 2373.5,-188 2395.38,-131.39 2428.59,-113.27 2408.5,-56 2404.71,-45.21 2397.13,-35.08 2389.9,-27.18"/>
<polygon fill="midnightblue" stroke="midnightblue" points="2392.17,-24.49 2382.66,-19.81 2387.17,-29.4 2392.17,-24.49"/>
</g>
<!-- Node59 -->
<g id="node35" class="node">
<title>Node59</title>
<g id="a_node35"><a xlink:href="exception-private_8h.html" target="_top" xlink:title=" ">
<polygon fill="white" stroke="black" points="2199,-168.5 2199,-187.5 2350,-187.5 2350,-168.5 2199,-168.5"/>
<text text-anchor="middle" x="2274.5" y="-175.5" font-family="FreeSans" font-size="10.00">magick/exception&#45;private.h</text>
</a>
</g>
</g>
<!-- Node1&#45;&gt;Node59 -->
<g id="edge63" class="edge">
<title>Node1&#45;&gt;Node59</title>
<path fill="none" stroke="midnightblue" d="M2264.09,-336.08C2265.82,-309.95 2270.91,-233.21 2273.27,-197.58"/>
<polygon fill="midnightblue" stroke="midnightblue" points="2276.76,-197.78 2273.93,-187.57 2269.78,-197.31 2276.76,-197.78"/>
</g>
<!-- Node45 -->
<g id="node38" class="node">
<title>Node45</title>
<g id="a_node38"><a xlink:href="string___8h.html" target="_top" xlink:title=" ">
<polygon fill="white" stroke="black" points="2113.5,-112.5 2113.5,-131.5 2211.5,-131.5 2211.5,-112.5 2113.5,-112.5"/>
<text text-anchor="middle" x="2162.5" y="-119.5" font-family="FreeSans" font-size="10.00">magick/string_.h</text>
</a>
</g>
</g>
<!-- Node1&#45;&gt;Node45 -->
<g id="edge85" class="edge">
<title>Node1&#45;&gt;Node45</title>
<path fill="none" stroke="midnightblue" d="M2259.18,-336.21C2247.56,-312.48 2214.77,-245.03 2189.5,-188 2182.55,-172.31 2175.1,-154.27 2169.79,-141.18"/>
<polygon fill="midnightblue" stroke="midnightblue" points="2173.02,-139.85 2166.04,-131.89 2166.53,-142.47 2173.02,-139.85"/>
</g>
<!-- Node62 -->
<g id="node39" class="node">
<title>Node62</title>
<g id="a_node39"><a xlink:href="enhance_8h.html" target="_top" xlink:title=" ">
<polygon fill="white" stroke="black" points="1463.5,-224.5 1463.5,-243.5 1569.5,-243.5 1569.5,-224.5 1463.5,-224.5"/>
<text text-anchor="middle" x="1516.5" y="-231.5" font-family="FreeSans" font-size="10.00">magick/enhance.h</text>
</a>
</g>
</g>
<!-- Node1&#45;&gt;Node62 -->
<g id="edge60" class="edge">
<title>Node1&#45;&gt;Node62</title>
<path fill="none" stroke="midnightblue" d="M2226.44,-344.04C2093.07,-340.37 1642.36,-326.15 1583.5,-300 1560.23,-289.66 1540.28,-267.52 1528.34,-251.96"/>
<polygon fill="midnightblue" stroke="midnightblue" points="1531.02,-249.69 1522.28,-243.7 1525.38,-253.83 1531.02,-249.69"/>
</g>
<!-- Node42 -->
<g id="node40" class="node">
<title>Node42</title>
<g id="a_node40"><a xlink:href="hashmap_8h.html" target="_top" xlink:title=" ">
<polygon fill="white" stroke="black" points="2348.5,-280.5 2348.5,-299.5 2458.5,-299.5 2458.5,-280.5 2348.5,-280.5"/>
<text text-anchor="middle" x="2403.5" y="-287.5" font-family="FreeSans" font-size="10.00">magick/hashmap.h</text>
</a>
</g>
</g>
<!-- Node1&#45;&gt;Node42 -->
<g id="edge64" class="edge">
<title>Node1&#45;&gt;Node42</title>
<path fill="none" stroke="midnightblue" d="M2285.68,-336.44C2308.93,-327.48 2345.65,-313.31 2371.92,-303.18"/>
<polygon fill="midnightblue" stroke="midnightblue" points="2373.35,-306.38 2381.42,-299.52 2370.83,-299.85 2373.35,-306.38"/>
</g>
<!-- Node63 -->
<g id="node41" class="node">
<title>Node63</title>
<g id="a_node41"><a xlink:href="histogram_8h.html" target="_top" xlink:title=" ">
<polygon fill="white" stroke="black" points="2476.5,-280.5 2476.5,-299.5 2590.5,-299.5 2590.5,-280.5 2476.5,-280.5"/>
<text text-anchor="middle" x="2533.5" y="-287.5" font-family="FreeSans" font-size="10.00">magick/histogram.h</text>
</a>
</g>
</g>
<!-- Node1&#45;&gt;Node63 -->
<g id="edge65" class="edge">
<title>Node1&#45;&gt;Node63</title>
<path fill="none" stroke="midnightblue" d="M2300.76,-337.55C2347.51,-328.2 2427.97,-312.11 2480.96,-301.51"/>
<polygon fill="midnightblue" stroke="midnightblue" points="2481.72,-304.92 2490.84,-299.53 2480.35,-298.06 2481.72,-304.92"/>
</g>
<!-- Node64 -->
<g id="node42" class="node">
<title>Node64</title>
<g id="a_node42"><a xlink:href="list_8h.html" target="_top" xlink:title=" ">
<polygon fill="white" stroke="black" points="2608.5,-280.5 2608.5,-299.5 2688.5,-299.5 2688.5,-280.5 2608.5,-280.5"/>
<text text-anchor="middle" x="2648.5" y="-287.5" font-family="FreeSans" font-size="10.00">magick/list.h</text>
</a>
</g>
</g>
<!-- Node1&#45;&gt;Node64 -->
<g id="edge67" class="edge">
<title>Node1&#45;&gt;Node64</title>
<path fill="none" stroke="midnightblue" d="M2300.88,-340.6C2361.24,-333.35 2484.17,-318.06 2598.45,-300.1"/>
<polygon fill="midnightblue" stroke="midnightblue" points="2599.09,-303.55 2608.42,-298.53 2597.99,-296.63 2599.09,-303.55"/>
</g>
<!-- Node65 -->
<g id="node43" class="node">
<title>Node65</title>
<g id="a_node43"><a xlink:href="memory___8h.html" target="_top" xlink:title=" ">
<polygon fill="white" stroke="black" points="1317,-168.5 1317,-187.5 1428,-187.5 1428,-168.5 1317,-168.5"/>
<text text-anchor="middle" x="1372.5" y="-175.5" font-family="FreeSans" font-size="10.00">magick/memory_.h</text>
</a>
</g>
</g>
<!-- Node1&#45;&gt;Node65 -->
<g id="edge68" class="edge">
<title>Node1&#45;&gt;Node65</title>
<path fill="none" stroke="midnightblue" d="M2226.2,-344.26C2091.29,-341.36 1629.02,-329.47 1484.5,-300 1412.32,-285.28 1370.89,-304.25 1328.5,-244 1316.55,-227.01 1334.43,-207.21 1350.85,-193.97"/>
<polygon fill="midnightblue" stroke="midnightblue" points="1353.28,-196.52 1359.14,-187.69 1349.06,-190.94 1353.28,-196.52"/>
</g>
<!-- Node66 -->
<g id="node44" class="node">
<title>Node66</title>
<g id="a_node44"><a xlink:href="monitor-private_8h.html" target="_top" xlink:title=" ">
<polygon fill="white" stroke="black" points="2707,-280.5 2707,-299.5 2848,-299.5 2848,-280.5 2707,-280.5"/>
<text text-anchor="middle" x="2777.5" y="-287.5" font-family="FreeSans" font-size="10.00">magick/monitor&#45;private.h</text>
</a>
</g>
</g>
<!-- Node1&#45;&gt;Node66 -->
<g id="edge71" class="edge">
<title>Node1&#45;&gt;Node66</title>
<path fill="none" stroke="midnightblue" d="M2300.67,-341.26C2374.09,-333.84 2543.17,-316.63 2696.74,-300.07"/>
<polygon fill="midnightblue" stroke="midnightblue" points="2697.27,-303.54 2706.83,-298.98 2696.52,-296.58 2697.27,-303.54"/>
</g>
<!-- Node67 -->
<g id="node45" class="node">
<title>Node67</title>
<g id="a_node45"><a xlink:href="pixel-private_8h.html" target="_top" xlink:title=" ">
<polygon fill="white" stroke="red" points="1663.5,-224.5 1663.5,-243.5 1789.5,-243.5 1789.5,-224.5 1663.5,-224.5"/>
<text text-anchor="middle" x="1726.5" y="-231.5" font-family="FreeSans" font-size="10.00">magick/pixel&#45;private.h</text>
</a>
</g>
</g>
<!-- Node1&#45;&gt;Node67 -->
<g id="edge72" class="edge">
<title>Node1&#45;&gt;Node67</title>
<path fill="none" stroke="midnightblue" d="M2226.35,-341.73C2165.92,-335.99 2042.79,-322.52 1940.5,-300 1875.51,-285.7 1801.64,-261.42 1759.89,-246.92"/>
<polygon fill="midnightblue" stroke="midnightblue" points="1760.84,-243.55 1750.25,-243.55 1758.53,-250.16 1760.84,-243.55"/>
</g>
<!-- Node70 -->
<g id="node46" class="node">
<title>Node70</title>
<g id="a_node46"><a xlink:href="prepress_8h.html" target="_top" xlink:title=" ">
<polygon fill="white" stroke="black" points="2866,-280.5 2866,-299.5 2973,-299.5 2973,-280.5 2866,-280.5"/>
<text text-anchor="middle" x="2919.5" y="-287.5" font-family="FreeSans" font-size="10.00">magick/prepress.h</text>
</a>
</g>
</g>
<!-- Node1&#45;&gt;Node70 -->
<g id="edge78" class="edge">
<title>Node1&#45;&gt;Node70</title>
<path fill="none" stroke="midnightblue" d="M2300.77,-343.07C2393.03,-338.09 2639.67,-323.63 2855.51,-300.16"/>
<polygon fill="midnightblue" stroke="midnightblue" points="2856.2,-303.6 2865.76,-299.03 2855.44,-296.64 2856.2,-303.6"/>
</g>
<!-- Node71 -->
<g id="node47" class="node">
<title>Node71</title>
<g id="a_node47"><a xlink:href="quantize_8h.html" target="_top" xlink:title=" ">
<polygon fill="white" stroke="black" points="1338,-224.5 1338,-243.5 1445,-243.5 1445,-224.5 1338,-224.5"/>
<text text-anchor="middle" x="1391.5" y="-231.5" font-family="FreeSans" font-size="10.00">magick/quantize.h</text>
</a>
</g>
</g>
<!-- Node1&#45;&gt;Node71 -->
<g id="edge79" class="edge">
<title>Node1&#45;&gt;Node71</title>
<path fill="none" stroke="midnightblue" d="M2226.28,-344.24C2098.89,-341.4 1681.06,-329.96 1550.5,-300 1501.19,-288.69 1447.41,-263.82 1416.74,-248.34"/>
<polygon fill="midnightblue" stroke="midnightblue" points="1418.12,-245.11 1407.63,-243.67 1414.93,-251.34 1418.12,-245.11"/>
</g>
<!-- Node72 -->
<g id="node48" class="node">
<title>Node72</title>
<g id="a_node48"><a xlink:href="registry_8h.html" target="_top" xlink:title=" ">
<polygon fill="white" stroke="black" points="2991,-280.5 2991,-299.5 3092,-299.5 3092,-280.5 2991,-280.5"/>
<text text-anchor="middle" x="3041.5" y="-287.5" font-family="FreeSans" font-size="10.00">magick/registry.h</text>
</a>
</g>
</g>
<!-- Node1&#45;&gt;Node72 -->
<g id="edge81" class="edge">
<title>Node1&#45;&gt;Node72</title>
<path fill="none" stroke="midnightblue" d="M2300.64,-343.84C2405.73,-340.31 2714.32,-328.25 2980.44,-300.14"/>
<polygon fill="midnightblue" stroke="midnightblue" points="2981.12,-303.58 2990.69,-299.04 2980.37,-296.62 2981.12,-303.58"/>
</g>
<!-- Node73 -->
<g id="node49" class="node">
<title>Node73</title>
<g id="a_node49"><a xlink:href="splay-tree_8h.html" target="_top" xlink:title=" ">
<polygon fill="white" stroke="black" points="3110.5,-280.5 3110.5,-299.5 3224.5,-299.5 3224.5,-280.5 3110.5,-280.5"/>
<text text-anchor="middle" x="3167.5" y="-287.5" font-family="FreeSans" font-size="10.00">magick/splay&#45;tree.h</text>
</a>
</g>
</g>
<!-- Node1&#45;&gt;Node73 -->
<g id="edge83" class="edge">
<title>Node1&#45;&gt;Node73</title>
<path fill="none" stroke="midnightblue" d="M2300.75,-344.09C2417.2,-341 2784.9,-329.53 3100.05,-300.06"/>
<polygon fill="midnightblue" stroke="midnightblue" points="3100.67,-303.52 3110.3,-299.09 3100.01,-296.55 3100.67,-303.52"/>
</g>
<!-- Node74 -->
<g id="node50" class="node">
<title>Node74</title>
<g id="a_node50"><a xlink:href="statistic_8h.html" target="_top" xlink:title=" ">
<polygon fill="white" stroke="red" points="3242.5,-280.5 3242.5,-299.5 3346.5,-299.5 3346.5,-280.5 3242.5,-280.5"/>
<text text-anchor="middle" x="3294.5" y="-287.5" font-family="FreeSans" font-size="10.00">magick/statistic.h</text>
</a>
</g>
</g>
<!-- Node1&#45;&gt;Node74 -->
<g id="edge84" class="edge">
<title>Node1&#45;&gt;Node74</title>
<path fill="none" stroke="midnightblue" d="M2300.6,-344.62C2428.51,-343.01 2863.1,-335.2 3232.22,-300.02"/>
<polygon fill="midnightblue" stroke="midnightblue" points="3232.68,-303.49 3242.3,-299.05 3232.01,-296.53 3232.68,-303.49"/>
</g>
<!-- Node3 -->
<g id="node3" class="node">
<title>Node3</title>
<g id="a_node3"><a xlink:href="magick-config_8h.html" target="_top" xlink:title=" ">
<polygon fill="white" stroke="red" points="777.5,-56.5 777.5,-75.5 911.5,-75.5 911.5,-56.5 777.5,-56.5"/>
<text text-anchor="middle" x="844.5" y="-63.5" font-family="FreeSans" font-size="10.00">magick/magick&#45;config.h</text>
</a>
</g>
</g>
<!-- Node2&#45;&gt;Node3 -->
<g id="edge2" class="edge">
<title>Node2&#45;&gt;Node3</title>
<path fill="none" stroke="midnightblue" d="M864,-168.47C847.51,-161.48 827.36,-149.79 817.5,-132 808.75,-116.22 819.08,-97.02 829.39,-83.59"/>
<polygon fill="midnightblue" stroke="midnightblue" points="832.25,-85.62 835.95,-75.7 826.87,-81.15 832.25,-85.62"/>
</g>
<!-- Node5 -->
<g id="node4" class="node">
<title>Node5</title>
<g id="a_node4"><a xlink:title=" ">
<polygon fill="white" stroke="#bfbfbf" points="2095.5,-0.5 2095.5,-19.5 2151.5,-19.5 2151.5,-0.5 2095.5,-0.5"/>
<text text-anchor="middle" x="2123.5" y="-7.5" font-family="FreeSans" font-size="10.00">stdarg.h</text>
</a>
</g>
</g>
<!-- Node2&#45;&gt;Node5 -->
<g id="edge3" class="edge">
<title>Node2&#45;&gt;Node5</title>
<path fill="none" stroke="midnightblue" d="M937.15,-176.85C1005.64,-175.32 1135.05,-167.43 1238.5,-132 1255.09,-126.32 1255.9,-117.63 1272.5,-112 1465.45,-46.54 1525.16,-79.95 1727.5,-56 1858.54,-40.49 2014.11,-23.12 2084.94,-15.26"/>
<polygon fill="midnightblue" stroke="midnightblue" points="2085.61,-18.71 2095.16,-14.13 2084.83,-11.75 2085.61,-18.71"/>
</g>
<!-- Node6 -->
<g id="node5" class="node">
<title>Node6</title>
<g id="a_node5"><a xlink:title=" ">
<polygon fill="white" stroke="#bfbfbf" points="970.5,-112.5 970.5,-131.5 1020.5,-131.5 1020.5,-112.5 970.5,-112.5"/>
<text text-anchor="middle" x="995.5" y="-119.5" font-family="FreeSans" font-size="10.00">stdio.h</text>
</a>
</g>
</g>
<!-- Node2&#45;&gt;Node6 -->
<g id="edge4" class="edge">
<title>Node2&#45;&gt;Node6</title>
<path fill="none" stroke="midnightblue" d="M906.53,-168.32C923.53,-159.66 949.88,-146.24 969.49,-136.25"/>
<polygon fill="midnightblue" stroke="midnightblue" points="971.19,-139.31 978.51,-131.65 968.01,-133.08 971.19,-139.31"/>
</g>
<!-- Node7 -->
<g id="node6" class="node">
<title>Node7</title>
<g id="a_node6"><a xlink:title=" ">
<polygon fill="white" stroke="#bfbfbf" points="1039,-112.5 1039,-131.5 1092,-131.5 1092,-112.5 1039,-112.5"/>
<text text-anchor="middle" x="1065.5" y="-119.5" font-family="FreeSans" font-size="10.00">ctype.h</text>
</a>
</g>
</g>
<!-- Node2&#45;&gt;Node7 -->
<g id="edge5" class="edge">
<title>Node2&#45;&gt;Node7</title>
<path fill="none" stroke="midnightblue" d="M917.39,-168.44C947.61,-159.17 995.94,-144.34 1029.12,-134.16"/>
<polygon fill="midnightblue" stroke="midnightblue" points="1030.36,-137.44 1038.89,-131.16 1028.31,-130.75 1030.36,-137.44"/>
</g>
<!-- Node8 -->
<g id="node7" class="node">
<title>Node8</title>
<g id="a_node7"><a xlink:title=" ">
<polygon fill="white" stroke="#bfbfbf" points="1110,-112.5 1110,-131.5 1165,-131.5 1165,-112.5 1110,-112.5"/>
<text text-anchor="middle" x="1137.5" y="-119.5" font-family="FreeSans" font-size="10.00">locale.h</text>
</a>
</g>
</g>
<!-- Node2&#45;&gt;Node8 -->
<g id="edge6" class="edge">
<title>Node2&#45;&gt;Node8</title>
<path fill="none" stroke="midnightblue" d="M931.21,-168.47C971.75,-160.1 1035.3,-146.76 1099.72,-132.13"/>
<polygon fill="midnightblue" stroke="midnightblue" points="1100.67,-135.5 1109.64,-129.87 1099.11,-128.68 1100.67,-135.5"/>
</g>
<!-- Node9 -->
<g id="node8" class="node">
<title>Node9</title>
<g id="a_node8"><a xlink:title=" ">
<polygon fill="white" stroke="#bfbfbf" points="1325,-112.5 1325,-131.5 1376,-131.5 1376,-112.5 1325,-112.5"/>
<text text-anchor="middle" x="1350.5" y="-119.5" font-family="FreeSans" font-size="10.00">errno.h</text>
</a>
</g>
</g>
<!-- Node2&#45;&gt;Node9 -->
<g id="edge7" class="edge">
<title>Node2&#45;&gt;Node9</title>
<path fill="none" stroke="midnightblue" d="M937.09,-173.7C1015.36,-167.88 1175.97,-154.25 1310.5,-132 1311.95,-131.76 1313.42,-131.5 1314.91,-131.23"/>
<polygon fill="midnightblue" stroke="midnightblue" points="1315.65,-134.65 1324.76,-129.25 1314.27,-127.79 1315.65,-134.65"/>
</g>
<!-- Node10 -->
<g id="node9" class="node">
<title>Node10</title>
<g id="a_node9"><a xlink:title=" ">
<polygon fill="white" stroke="#bfbfbf" points="1183,-112.5 1183,-131.5 1230,-131.5 1230,-112.5 1183,-112.5"/>
<text text-anchor="middle" x="1206.5" y="-119.5" font-family="FreeSans" font-size="10.00">fcntl.h</text>
</a>
</g>
</g>
<!-- Node2&#45;&gt;Node10 -->
<g id="edge8" class="edge">
<title>Node2&#45;&gt;Node10</title>
<path fill="none" stroke="midnightblue" d="M937.03,-171.08C991.62,-163.93 1084.04,-150.73 1172.82,-131.94"/>
<polygon fill="midnightblue" stroke="midnightblue" points="1173.74,-135.32 1182.78,-129.8 1172.27,-128.47 1173.74,-135.32"/>
</g>
<!-- Node11 -->
<g id="node10" class="node">
<title>Node11</title>
<g id="a_node10"><a xlink:title=" ">
<polygon fill="white" stroke="#bfbfbf" points="1545,-112.5 1545,-131.5 1596,-131.5 1596,-112.5 1545,-112.5"/>
<text text-anchor="middle" x="1570.5" y="-119.5" font-family="FreeSans" font-size="10.00">math.h</text>
</a>
</g>
</g>
<!-- Node2&#45;&gt;Node11 -->
<g id="edge9" class="edge">
<title>Node2&#45;&gt;Node11</title>
<path fill="none" stroke="midnightblue" d="M937.17,-173.27C1035.06,-165.61 1265.81,-147.5 1459.5,-132 1484.67,-129.99 1513.06,-127.68 1534.82,-125.91"/>
<polygon fill="midnightblue" stroke="midnightblue" points="1535.25,-129.39 1544.93,-125.09 1534.68,-122.41 1535.25,-129.39"/>
</g>
<!-- Node12 -->
<g id="node11" class="node">
<title>Node12</title>
<g id="a_node11"><a xlink:title=" ">
<polygon fill="white" stroke="#bfbfbf" points="2009.5,-56.5 2009.5,-75.5 2057.5,-75.5 2057.5,-56.5 2009.5,-56.5"/>
<text text-anchor="middle" x="2033.5" y="-63.5" font-family="FreeSans" font-size="10.00">time.h</text>
</a>
</g>
</g>
<!-- Node2&#45;&gt;Node12 -->
<g id="edge10" class="edge">
<title>Node2&#45;&gt;Node12</title>
<path fill="none" stroke="midnightblue" d="M937.01,-176.24C1010.35,-174 1154.94,-165.31 1272.5,-132 1292.78,-126.25 1295.07,-117.19 1315.5,-112 1348.97,-103.49 1860.83,-76.08 1999.23,-68.79"/>
<polygon fill="midnightblue" stroke="midnightblue" points="1999.47,-72.29 2009.27,-68.27 1999.1,-65.3 1999.47,-72.29"/>
</g>
<!-- Node13 -->
<g id="node12" class="node">
<title>Node13</title>
<g id="a_node12"><a xlink:title=" ">
<polygon fill="white" stroke="#bfbfbf" points="0,-112.5 0,-131.5 53,-131.5 53,-112.5 0,-112.5"/>
<text text-anchor="middle" x="26.5" y="-119.5" font-family="FreeSans" font-size="10.00">limits.h</text>
</a>
</g>
</g>
<!-- Node2&#45;&gt;Node13 -->
<g id="edge11" class="edge">
<title>Node2&#45;&gt;Node13</title>
<path fill="none" stroke="midnightblue" d="M841.55,-177.68C715.31,-178.79 363.33,-177.34 63.34,-131.99"/>
<polygon fill="midnightblue" stroke="midnightblue" points="63.55,-128.48 53.14,-130.43 62.5,-135.4 63.55,-128.48"/>
</g>
<!-- Node14 -->
<g id="node13" class="node">
<title>Node14</title>
<g id="a_node13"><a xlink:title=" ">
<polygon fill="white" stroke="#bfbfbf" points="71,-112.5 71,-131.5 126,-131.5 126,-112.5 71,-112.5"/>
<text text-anchor="middle" x="98.5" y="-119.5" font-family="FreeSans" font-size="10.00">signal.h</text>
</a>
</g>
</g>
<!-- Node2&#45;&gt;Node14 -->
<g id="edge12" class="edge">
<title>Node2&#45;&gt;Node14</title>
<path fill="none" stroke="midnightblue" d="M841.99,-177.1C724.02,-176.74 408.21,-171.91 136.33,-131.82"/>
<polygon fill="midnightblue" stroke="midnightblue" points="136.68,-128.34 126.27,-130.32 135.65,-135.26 136.68,-128.34"/>
</g>
<!-- Node15 -->
<g id="node14" class="node">
<title>Node15</title>
<g id="a_node14"><a xlink:title=" ">
<polygon fill="white" stroke="#bfbfbf" points="1394.5,-112.5 1394.5,-131.5 1450.5,-131.5 1450.5,-112.5 1394.5,-112.5"/>
<text text-anchor="middle" x="1422.5" y="-119.5" font-family="FreeSans" font-size="10.00">assert.h</text>
</a>
</g>
</g>
<!-- Node2&#45;&gt;Node15 -->
<g id="edge13" class="edge">
<title>Node2&#45;&gt;Node15</title>
<path fill="none" stroke="midnightblue" d="M937.22,-174.92C1025.84,-170.55 1221.62,-158.55 1384.5,-132 1384.6,-131.98 1384.7,-131.97 1384.8,-131.95"/>
<polygon fill="midnightblue" stroke="midnightblue" points="1385.2,-135.44 1394.37,-130.13 1383.89,-128.56 1385.2,-135.44"/>
</g>
<!-- Node16 -->
<g id="node15" class="node">
<title>Node16</title>
<g id="a_node15"><a xlink:href="method-attribute_8h.html" target="_top" xlink:title=" ">
<polygon fill="white" stroke="black" points="144.5,-112.5 144.5,-131.5 292.5,-131.5 292.5,-112.5 144.5,-112.5"/>
<text text-anchor="middle" x="218.5" y="-119.5" font-family="FreeSans" font-size="10.00">magick/method&#45;attribute.h</text>
</a>
</g>
</g>
<!-- Node2&#45;&gt;Node16 -->
<g id="edge14" class="edge">
<title>Node2&#45;&gt;Node16</title>
<path fill="none" stroke="midnightblue" d="M841.82,-173.86C743.28,-167.27 509.77,-151.08 302.84,-132.1"/>
<polygon fill="midnightblue" stroke="midnightblue" points="302.98,-128.6 292.7,-131.16 302.34,-135.57 302.98,-128.6"/>
</g>
<!-- Node17 -->
<g id="node16" class="node">
<title>Node17</title>
<g id="a_node16"><a xlink:title=" ">
<polygon fill="white" stroke="#bfbfbf" points="310.5,-112.5 310.5,-131.5 382.5,-131.5 382.5,-112.5 310.5,-112.5"/>
<text text-anchor="middle" x="346.5" y="-119.5" font-family="FreeSans" font-size="10.00">sys/types.h</text>
</a>
</g>
</g>
<!-- Node2&#45;&gt;Node17 -->
<g id="edge15" class="edge">
<title>Node2&#45;&gt;Node17</title>
<path fill="none" stroke="midnightblue" d="M841.92,-174.41C754.77,-169.28 563.49,-156.32 392.71,-132.03"/>
<polygon fill="midnightblue" stroke="midnightblue" points="393.19,-128.57 382.79,-130.61 392.19,-135.49 393.19,-128.57"/>
</g>
<!-- Node18 -->
<g id="node17" class="node">
<title>Node18</title>
<g id="a_node17"><a xlink:title=" ">
<polygon fill="white" stroke="#bfbfbf" points="400.5,-112.5 400.5,-131.5 464.5,-131.5 464.5,-112.5 400.5,-112.5"/>
<text text-anchor="middle" x="432.5" y="-119.5" font-family="FreeSans" font-size="10.00">sys/stat.h</text>
</a>
</g>
</g>
<!-- Node2&#45;&gt;Node18 -->
<g id="edge16" class="edge">
<title>Node2&#45;&gt;Node18</title>
<path fill="none" stroke="midnightblue" d="M841.86,-173.54C766.14,-167.66 613.5,-154.31 474.64,-132.03"/>
<polygon fill="midnightblue" stroke="midnightblue" points="475.1,-128.55 464.67,-130.41 473.98,-135.46 475.1,-128.55"/>
</g>
<!-- Node19 -->
<g id="node18" class="node">
<title>Node19</title>
<g id="a_node18"><a xlink:title=" ">
<polygon fill="white" stroke="#bfbfbf" points="482.5,-112.5 482.5,-131.5 536.5,-131.5 536.5,-112.5 482.5,-112.5"/>
<text text-anchor="middle" x="509.5" y="-119.5" font-family="FreeSans" font-size="10.00">dirent.h</text>
</a>
</g>
</g>
<!-- Node2&#45;&gt;Node19 -->
<g id="edge17" class="edge">
<title>Node2&#45;&gt;Node19</title>
<path fill="none" stroke="midnightblue" d="M841.93,-172.52C777.25,-166.05 657.8,-152.74 546.6,-132.01"/>
<polygon fill="midnightblue" stroke="midnightblue" points="547.03,-128.53 536.55,-130.12 545.73,-135.41 547.03,-128.53"/>
</g>
<!-- Node20 -->
<g id="node19" class="node">
<title>Node20</title>
<g id="a_node19"><a xlink:title=" ">
<polygon fill="white" stroke="#bfbfbf" points="554.5,-112.5 554.5,-131.5 620.5,-131.5 620.5,-112.5 554.5,-112.5"/>
<text text-anchor="middle" x="587.5" y="-119.5" font-family="FreeSans" font-size="10.00">sys/wait.h</text>
</a>
</g>
</g>
<!-- Node2&#45;&gt;Node20 -->
<g id="edge18" class="edge">
<title>Node2&#45;&gt;Node20</title>
<path fill="none" stroke="midnightblue" d="M841.95,-169.35C791.88,-161.17 710.5,-147.5 631.12,-132.26"/>
<polygon fill="midnightblue" stroke="midnightblue" points="631.43,-128.75 620.95,-130.29 630.1,-135.63 631.43,-128.75"/>
</g>
<!-- Node21 -->
<g id="node20" class="node">
<title>Node21</title>
<g id="a_node20"><a xlink:title=" ">
<polygon fill="white" stroke="#bfbfbf" points="638.5,-112.5 638.5,-131.5 684.5,-131.5 684.5,-112.5 638.5,-112.5"/>
<text text-anchor="middle" x="661.5" y="-119.5" font-family="FreeSans" font-size="10.00">pwd.h</text>
</a>
</g>
</g>
<!-- Node2&#45;&gt;Node21 -->
<g id="edge19" class="edge">
<title>Node2&#45;&gt;Node21</title>
<path fill="none" stroke="midnightblue" d="M849.57,-168.43C811.96,-160.22 753.82,-147.19 694.46,-132.15"/>
<polygon fill="midnightblue" stroke="midnightblue" points="695.09,-128.7 684.54,-129.62 693.36,-135.49 695.09,-128.7"/>
</g>
<!-- Node22 -->
<g id="node21" class="node">
<title>Node22</title>
<g id="a_node21"><a xlink:href="magick-type_8h.html" target="_top" xlink:title=" ">
<polygon fill="white" stroke="black" points="826.5,-112.5 826.5,-131.5 952.5,-131.5 952.5,-112.5 826.5,-112.5"/>
<text text-anchor="middle" x="889.5" y="-119.5" font-family="FreeSans" font-size="10.00">magick/magick&#45;type.h</text>
</a>
</g>
</g>
<!-- Node2&#45;&gt;Node22 -->
<g id="edge20" class="edge">
<title>Node2&#45;&gt;Node22</title>
<path fill="none" stroke="midnightblue" d="M889.5,-168.08C889.5,-161.01 889.5,-150.86 889.5,-141.99"/>
<polygon fill="midnightblue" stroke="midnightblue" points="893,-141.75 889.5,-131.75 886,-141.75 893,-141.75"/>
</g>
<!-- Node23 -->
<g id="node22" class="node">
<title>Node23</title>
<g id="a_node22"><a xlink:title=" ">
<polygon fill="white" stroke="#bfbfbf" points="702.5,-112.5 702.5,-131.5 770.5,-131.5 770.5,-112.5 702.5,-112.5"/>
<text text-anchor="middle" x="736.5" y="-119.5" font-family="FreeSans" font-size="10.00">sys/time.h</text>
</a>
</g>
</g>
<!-- Node2&#45;&gt;Node23 -->
<g id="edge22" class="edge">
<title>Node2&#45;&gt;Node23</title>
<path fill="none" stroke="midnightblue" d="M865.26,-168.44C839.63,-159.4 799.01,-145.06 770.26,-134.92"/>
<polygon fill="midnightblue" stroke="midnightblue" points="771.22,-131.54 760.63,-131.52 768.89,-138.15 771.22,-131.54"/>
</g>
<!-- Node22&#45;&gt;Node3 -->
<g id="edge21" class="edge">
<title>Node22&#45;&gt;Node3</title>
<path fill="none" stroke="midnightblue" d="M882.07,-112.08C875.65,-104.38 866.19,-93.03 858.38,-83.65"/>
<polygon fill="midnightblue" stroke="midnightblue" points="860.88,-81.19 851.79,-75.75 855.51,-85.67 860.88,-81.19"/>
</g>
<!-- Node25 -->
<g id="node24" class="node">
<title>Node25</title>
<g id="a_node24"><a xlink:href="pixel_8h.html" target="_top" xlink:title=" ">
<polygon fill="white" stroke="red" points="1736.5,-56.5 1736.5,-75.5 1824.5,-75.5 1824.5,-56.5 1736.5,-56.5"/>
<text text-anchor="middle" x="1780.5" y="-63.5" font-family="FreeSans" font-size="10.00">magick/pixel.h</text>
</a>
</g>
</g>
<!-- Node24&#45;&gt;Node25 -->
<g id="edge24" class="edge">
<title>Node24&#45;&gt;Node25</title>
<path fill="none" stroke="midnightblue" d="M1690.69,-112.32C1707.85,-103.66 1734.45,-90.24 1754.25,-80.25"/>
<polygon fill="midnightblue" stroke="midnightblue" points="1756,-83.28 1763.35,-75.65 1752.85,-77.04 1756,-83.28"/>
</g>
<!-- Node26 -->
<g id="node25" class="node">
<title>Node26</title>
<g id="a_node25"><a xlink:href="colorspace_8h.html" target="_top" xlink:title=" ">
<polygon fill="white" stroke="black" points="1722,-0.5 1722,-19.5 1839,-19.5 1839,-0.5 1722,-0.5"/>
<text text-anchor="middle" x="1780.5" y="-7.5" font-family="FreeSans" font-size="10.00">magick/colorspace.h</text>
</a>
</g>
</g>
<!-- Node25&#45;&gt;Node26 -->
<g id="edge25" class="edge">
<title>Node25&#45;&gt;Node26</title>
<path fill="none" stroke="midnightblue" d="M1780.5,-56.08C1780.5,-49.01 1780.5,-38.86 1780.5,-29.99"/>
<polygon fill="midnightblue" stroke="midnightblue" points="1784,-29.75 1780.5,-19.75 1777,-29.75 1784,-29.75"/>
</g>
<!-- Node28&#45;&gt;Node29 -->
<g id="edge27" class="edge">
<title>Node28&#45;&gt;Node29</title>
<path fill="none" stroke="midnightblue" d="M2021.01,-280.36C2028.04,-271.76 2038.24,-257.87 2043.5,-244 2049.13,-229.17 2051.3,-211.25 2052.1,-197.98"/>
<polygon fill="midnightblue" stroke="midnightblue" points="2055.61,-197.85 2052.52,-187.72 2048.62,-197.57 2055.61,-197.85"/>
</g>
<!-- Node30 -->
<g id="node28" class="node">
<title>Node30</title>
<g id="a_node28"><a xlink:href="color_8h.html" target="_top" xlink:title=" ">
<polygon fill="white" stroke="black" points="1827.5,-112.5 1827.5,-131.5 1915.5,-131.5 1915.5,-112.5 1827.5,-112.5"/>
<text text-anchor="middle" x="1871.5" y="-119.5" font-family="FreeSans" font-size="10.00">magick/color.h</text>
</a>
</g>
</g>
<!-- Node28&#45;&gt;Node30 -->
<g id="edge40" class="edge">
<title>Node28&#45;&gt;Node30</title>
<path fill="none" stroke="midnightblue" d="M2014.93,-280.09C2016.59,-267.09 2018.1,-242.44 2009.5,-224 1988.88,-179.8 1937.89,-150.73 1904.01,-135.58"/>
<polygon fill="midnightblue" stroke="midnightblue" points="1905.09,-132.24 1894.52,-131.5 1902.32,-138.67 1905.09,-132.24"/>
</g>
<!-- Node51 -->
<g id="node32" class="node">
<title>Node51</title>
<g id="a_node32"><a xlink:href="image-private_8h.html" target="_top" xlink:title=" ">
<polygon fill="white" stroke="black" points="1774.5,-168.5 1774.5,-187.5 1908.5,-187.5 1908.5,-168.5 1774.5,-168.5"/>
<text text-anchor="middle" x="1841.5" y="-175.5" font-family="FreeSans" font-size="10.00">magick/image&#45;private.h</text>
</a>
</g>
</g>
<!-- Node28&#45;&gt;Node51 -->
<g id="edge39" class="edge">
<title>Node28&#45;&gt;Node51</title>
<path fill="none" stroke="midnightblue" d="M1949.55,-281.05C1904.77,-274.01 1850.51,-262.02 1836.5,-244 1826.31,-230.9 1829.44,-211.48 1833.96,-197.28"/>
<polygon fill="midnightblue" stroke="midnightblue" points="1837.35,-198.23 1837.5,-187.63 1830.77,-195.82 1837.35,-198.23"/>
</g>
<!-- Node52 -->
<g id="node33" class="node">
<title>Node52</title>
<g id="a_node33"><a xlink:href="colorspace-private_8h.html" target="_top" xlink:title=" ">
<polygon fill="white" stroke="black" points="1846,-224.5 1846,-243.5 2001,-243.5 2001,-224.5 1846,-224.5"/>
<text text-anchor="middle" x="1923.5" y="-231.5" font-family="FreeSans" font-size="10.00">magick/colorspace&#45;private.h</text>
</a>
</g>
</g>
<!-- Node28&#45;&gt;Node52 -->
<g id="edge41" class="edge">
<title>Node28&#45;&gt;Node52</title>
<path fill="none" stroke="midnightblue" d="M1999.04,-280.32C1985,-271.9 1963.45,-258.97 1946.96,-249.07"/>
<polygon fill="midnightblue" stroke="midnightblue" points="1948.3,-245.8 1937.92,-243.65 1944.7,-251.8 1948.3,-245.8"/>
</g>
<!-- Node53 -->
<g id="node34" class="node">
<title>Node53</title>
<g id="a_node34"><a xlink:href="pixel-accessor_8h.html" target="_top" xlink:title=" ">
<polygon fill="white" stroke="red" points="1584.5,-168.5 1584.5,-187.5 1718.5,-187.5 1718.5,-168.5 1584.5,-168.5"/>
<text text-anchor="middle" x="1651.5" y="-175.5" font-family="FreeSans" font-size="10.00">magick/pixel&#45;accessor.h</text>
</a>
</g>
</g>
<!-- Node28&#45;&gt;Node53 -->
<g id="edge59" class="edge">
<title>Node28&#45;&gt;Node53</title>
<path fill="none" stroke="midnightblue" d="M1949.73,-285.41C1851.95,-279.26 1674.17,-265.28 1654.5,-244 1643.26,-231.84 1643.91,-212.28 1646.52,-197.8"/>
<polygon fill="midnightblue" stroke="midnightblue" points="1649.96,-198.43 1648.73,-187.91 1643.13,-196.9 1649.96,-198.43"/>
</g>
<!-- Node28&#45;&gt;Node59 -->
<g id="edge48" class="edge">
<title>Node28&#45;&gt;Node59</title>
<path fill="none" stroke="midnightblue" d="M2033.98,-280.37C2079.91,-261.01 2191.3,-214.06 2244.82,-191.51"/>
<polygon fill="midnightblue" stroke="midnightblue" points="2246.26,-194.7 2254.11,-187.59 2243.54,-188.25 2246.26,-194.7"/>
</g>
<!-- Node29&#45;&gt;Node24 -->
<g id="edge36" class="edge">
<title>Node29&#45;&gt;Node24</title>
<path fill="none" stroke="midnightblue" d="M2004.88,-170.22C1938.86,-160.81 1819.07,-143.74 1743.04,-132.91"/>
<polygon fill="midnightblue" stroke="midnightblue" points="1743.47,-129.43 1733.07,-131.49 1742.48,-136.36 1743.47,-129.43"/>
</g>
<!-- Node29&#45;&gt;Node25 -->
<g id="edge37" class="edge">
<title>Node29&#45;&gt;Node25</title>
<path fill="none" stroke="midnightblue" d="M2036.2,-168.29C2006.95,-152.74 1946.55,-120.97 1924.5,-112 1891.19,-98.45 1852.18,-86.49 1823.18,-78.31"/>
<polygon fill="midnightblue" stroke="midnightblue" points="1823.93,-74.89 1813.36,-75.58 1822.05,-81.63 1823.93,-74.89"/>
</g>
<!-- Node29&#45;&gt;Node26 -->
<g id="edge35" class="edge">
<title>Node29&#45;&gt;Node26</title>
<path fill="none" stroke="midnightblue" d="M2041,-168.42C2023.67,-155.62 1989.67,-131 1959.5,-112 1906.23,-78.46 1841.37,-43.19 1806.2,-24.49"/>
<polygon fill="midnightblue" stroke="midnightblue" points="1807.57,-21.26 1797.1,-19.67 1804.3,-27.45 1807.57,-21.26"/>
</g>
<!-- Node29&#45;&gt;Node30 -->
<g id="edge28" class="edge">
<title>Node29&#45;&gt;Node30</title>
<path fill="none" stroke="midnightblue" d="M2023.82,-168.44C1992.97,-159.24 1943.77,-144.56 1909.67,-134.39"/>
<polygon fill="midnightblue" stroke="midnightblue" points="1910.63,-131.02 1900.05,-131.52 1908.63,-137.73 1910.63,-131.02"/>
</g>
<!-- Node29&#45;&gt;Node32 -->
<g id="edge38" class="edge">
<title>Node29&#45;&gt;Node32</title>
<path fill="none" stroke="midnightblue" d="M2100.07,-175.74C2154.83,-172.77 2246.48,-163.11 2318.5,-132 2356.36,-115.65 2374.13,-112.93 2392.5,-76 2400.12,-60.69 2392.71,-41.89 2384.84,-28.46"/>
<polygon fill="midnightblue" stroke="midnightblue" points="2387.6,-26.27 2379.24,-19.75 2381.71,-30.06 2387.6,-26.27"/>
</g>
<!-- Node33 -->
<g id="node31" class="node">
<title>Node33</title>
<g id="a_node31"><a xlink:href="blob_8h.html" target="_top" xlink:title=" ">
<polygon fill="white" stroke="red" points="2009.5,-112.5 2009.5,-131.5 2095.5,-131.5 2095.5,-112.5 2009.5,-112.5"/>
<text text-anchor="middle" x="2052.5" y="-119.5" font-family="FreeSans" font-size="10.00">magick/blob.h</text>
</a>
</g>
</g>
<!-- Node29&#45;&gt;Node33 -->
<g id="edge33" class="edge">
<title>Node29&#45;&gt;Node33</title>
<path fill="none" stroke="midnightblue" d="M2047.33,-168.08C2045.82,-160.93 2045.39,-150.64 2046.04,-141.69"/>
<polygon fill="midnightblue" stroke="midnightblue" points="2049.52,-142.13 2047.37,-131.75 2042.58,-141.2 2049.52,-142.13"/>
</g>
<!-- Node30&#45;&gt;Node25 -->
<g id="edge29" class="edge">
<title>Node30&#45;&gt;Node25</title>
<path fill="none" stroke="midnightblue" d="M1856.88,-112.32C1842.55,-103.82 1820.49,-90.73 1803.75,-80.8"/>
<polygon fill="midnightblue" stroke="midnightblue" points="1805.47,-77.75 1795.08,-75.65 1801.9,-83.77 1805.47,-77.75"/>
</g>
<!-- Node30&#45;&gt;Node31 -->
<g id="edge30" class="edge">
<title>Node30&#45;&gt;Node31</title>
<path fill="none" stroke="midnightblue" d="M1915.56,-113.94C1974.19,-104.55 2078.24,-87.87 2145.25,-77.13"/>
<polygon fill="midnightblue" stroke="midnightblue" points="2145.95,-80.57 2155.27,-75.53 2144.84,-73.66 2145.95,-80.57"/>
</g>
<!-- Node31&#45;&gt;Node5 -->
<g id="edge31" class="edge">
<title>Node31&#45;&gt;Node5</title>
<path fill="none" stroke="midnightblue" d="M2194.84,-56.32C2181.58,-47.9 2161.23,-34.97 2145.65,-25.07"/>
<polygon fill="midnightblue" stroke="midnightblue" points="2147.44,-22.06 2137.12,-19.65 2143.69,-27.97 2147.44,-22.06"/>
</g>
<!-- Node31&#45;&gt;Node32 -->
<g id="edge32" class="edge">
<title>Node31&#45;&gt;Node32</title>
<path fill="none" stroke="midnightblue" d="M2234.49,-56.44C2262.2,-47.32 2306.25,-32.81 2337.12,-22.65"/>
<polygon fill="midnightblue" stroke="midnightblue" points="2338.23,-25.97 2346.64,-19.52 2336.04,-19.32 2338.23,-25.97"/>
</g>
<!-- Node33&#45;&gt;Node29 -->
<g id="edge34" class="edge">
<title>Node33&#45;&gt;Node29</title>
<path fill="none" stroke="midnightblue" d="M2057.63,-131.75C2059.16,-138.86 2059.6,-149.14 2058.97,-158.1"/>
<polygon fill="midnightblue" stroke="midnightblue" points="2055.49,-157.71 2057.67,-168.08 2062.43,-158.62 2055.49,-157.71"/>
</g>
<!-- Node52&#45;&gt;Node25 -->
<g id="edge44" class="edge">
<title>Node52&#45;&gt;Node25</title>
<path fill="none" stroke="midnightblue" d="M1925.37,-224.39C1927.76,-210.87 1930.24,-184.51 1917.5,-168 1888.9,-130.93 1854.45,-161.99 1818.5,-132 1803.64,-119.6 1793.26,-99.8 1787.14,-85.31"/>
<polygon fill="midnightblue" stroke="midnightblue" points="1790.35,-83.91 1783.44,-75.88 1783.84,-86.46 1790.35,-83.91"/>
</g>
<!-- Node52&#45;&gt;Node29 -->
<g id="edge42" class="edge">
<title>Node52&#45;&gt;Node29</title>
<path fill="none" stroke="midnightblue" d="M1943.94,-224.44C1965.17,-215.56 1998.6,-201.56 2022.75,-191.45"/>
<polygon fill="midnightblue" stroke="midnightblue" points="2024.28,-194.61 2032.16,-187.52 2021.58,-188.15 2024.28,-194.61"/>
</g>
<!-- Node52&#45;&gt;Node51 -->
<g id="edge43" class="edge">
<title>Node52&#45;&gt;Node51</title>
<path fill="none" stroke="midnightblue" d="M1910.33,-224.32C1897.65,-215.98 1878.27,-203.21 1863.29,-193.35"/>
<polygon fill="midnightblue" stroke="midnightblue" points="1864.92,-190.23 1854.64,-187.65 1861.07,-196.08 1864.92,-190.23"/>
</g>
<!-- Node52&#45;&gt;Node53 -->
<g id="edge45" class="edge">
<title>Node52&#45;&gt;Node53</title>
<path fill="none" stroke="midnightblue" d="M1880.4,-224.44C1832.65,-214.96 1755.64,-199.67 1704.31,-189.48"/>
<polygon fill="midnightblue" stroke="midnightblue" points="1704.89,-186.03 1694.4,-187.52 1703.52,-192.9 1704.89,-186.03"/>
</g>
<!-- Node53&#45;&gt;Node11 -->
<g id="edge46" class="edge">
<title>Node53&#45;&gt;Node11</title>
<path fill="none" stroke="midnightblue" d="M1638.49,-168.32C1625.97,-159.98 1606.82,-147.21 1592.03,-137.35"/>
<polygon fill="midnightblue" stroke="midnightblue" points="1593.74,-134.29 1583.48,-131.65 1589.86,-140.11 1593.74,-134.29"/>
</g>
<!-- Node53&#45;&gt;Node25 -->
<g id="edge47" class="edge">
<title>Node53&#45;&gt;Node25</title>
<path fill="none" stroke="midnightblue" d="M1677.91,-168.36C1697.24,-161.03 1723.17,-148.97 1741.5,-132 1755.8,-118.76 1766.6,-99.09 1773.17,-84.86"/>
<polygon fill="midnightblue" stroke="midnightblue" points="1776.41,-86.19 1777.2,-75.63 1769.99,-83.4 1776.41,-86.19"/>
</g>
<!-- Node60 -->
<g id="node36" class="node">
<title>Node60</title>
<g id="a_node36"><a xlink:href="log_8h.html" target="_top" xlink:title=" ">
<polygon fill="white" stroke="black" points="2229.5,-112.5 2229.5,-131.5 2309.5,-131.5 2309.5,-112.5 2229.5,-112.5"/>
<text text-anchor="middle" x="2269.5" y="-119.5" font-family="FreeSans" font-size="10.00">magick/log.h</text>
</a>
</g>
</g>
<!-- Node59&#45;&gt;Node60 -->
<g id="edge49" class="edge">
<title>Node59&#45;&gt;Node60</title>
<path fill="none" stroke="midnightblue" d="M2273.67,-168.08C2273.02,-161.01 2272.08,-150.86 2271.26,-141.99"/>
<polygon fill="midnightblue" stroke="midnightblue" points="2274.72,-141.39 2270.31,-131.75 2267.75,-142.03 2274.72,-141.39"/>
</g>
<!-- Node61 -->
<g id="node37" class="node">
<title>Node61</title>
<g id="a_node37"><a xlink:href="magick_8h.html" target="_top" xlink:title=" ">
<polygon fill="white" stroke="black" points="2283,-56.5 2283,-75.5 2384,-75.5 2384,-56.5 2283,-56.5"/>
<text text-anchor="middle" x="2333.5" y="-63.5" font-family="FreeSans" font-size="10.00">magick/magick.h</text>
</a>
</g>
</g>
<!-- Node59&#45;&gt;Node61 -->
<g id="edge52" class="edge">
<title>Node59&#45;&gt;Node61</title>
<path fill="none" stroke="midnightblue" d="M2286.04,-168.29C2296.14,-160.05 2310.43,-146.76 2318.5,-132 2326.4,-117.55 2330.15,-99.1 2331.93,-85.55"/>
<polygon fill="midnightblue" stroke="midnightblue" points="2335.42,-85.83 2333,-75.52 2328.46,-85.09 2335.42,-85.83"/>
</g>
<!-- Node59&#45;&gt;Node45 -->
<g id="edge55" class="edge">
<title>Node59&#45;&gt;Node45</title>
<path fill="none" stroke="midnightblue" d="M2256.51,-168.32C2238.46,-159.62 2210.45,-146.12 2189.7,-136.11"/>
<polygon fill="midnightblue" stroke="midnightblue" points="2190.98,-132.84 2180.45,-131.65 2187.94,-139.15 2190.98,-132.84"/>
</g>
<!-- Node60&#45;&gt;Node5 -->
<g id="edge50" class="edge">
<title>Node60&#45;&gt;Node5</title>
<path fill="none" stroke="midnightblue" d="M2234.74,-112.5C2201.75,-103.78 2155.36,-89.6 2142.5,-76 2130.77,-63.6 2126.24,-44.35 2124.51,-30.02"/>
<polygon fill="midnightblue" stroke="midnightblue" points="2127.97,-29.47 2123.64,-19.8 2121,-30.06 2127.97,-29.47"/>
</g>
<!-- Node60&#45;&gt;Node31 -->
<g id="edge51" class="edge">
<title>Node60&#45;&gt;Node31</title>
<path fill="none" stroke="midnightblue" d="M2259.7,-112.32C2250.68,-104.34 2237.09,-92.31 2226.18,-82.65"/>
<polygon fill="midnightblue" stroke="midnightblue" points="2228.29,-79.84 2218.48,-75.83 2223.65,-85.08 2228.29,-79.84"/>
</g>
<!-- Node61&#45;&gt;Node5 -->
<g id="edge53" class="edge">
<title>Node61&#45;&gt;Node5</title>
<path fill="none" stroke="midnightblue" d="M2300.22,-56.44C2262.46,-46.73 2200.97,-30.92 2161.39,-20.74"/>
<polygon fill="midnightblue" stroke="midnightblue" points="2162.14,-17.32 2151.58,-18.22 2160.39,-24.1 2162.14,-17.32"/>
</g>
<!-- Node61&#45;&gt;Node32 -->
<g id="edge54" class="edge">
<title>Node61&#45;&gt;Node32</title>
<path fill="none" stroke="midnightblue" d="M2339.94,-56.08C2345.45,-48.46 2353.53,-37.26 2360.26,-27.94"/>
<polygon fill="midnightblue" stroke="midnightblue" points="2363.16,-29.91 2366.18,-19.75 2357.49,-25.81 2363.16,-29.91"/>
</g>
<!-- Node45&#45;&gt;Node5 -->
<g id="edge56" class="edge">
<title>Node45&#45;&gt;Node5</title>
<path fill="none" stroke="midnightblue" d="M2146.17,-112.39C2133.54,-104.72 2117,-92.21 2109.5,-76 2102.55,-60.97 2107.78,-42.38 2113.73,-28.93"/>
<polygon fill="midnightblue" stroke="midnightblue" points="2116.95,-30.32 2118.22,-19.8 2110.67,-27.22 2116.95,-30.32"/>
</g>
<!-- Node45&#45;&gt;Node12 -->
<g id="edge57" class="edge">
<title>Node45&#45;&gt;Node12</title>
<path fill="none" stroke="midnightblue" d="M2142.06,-112.44C2120.83,-103.56 2087.4,-89.56 2063.25,-79.45"/>
<polygon fill="midnightblue" stroke="midnightblue" points="2064.42,-76.15 2053.84,-75.52 2061.72,-82.61 2064.42,-76.15"/>
</g>
<!-- Node45&#45;&gt;Node31 -->
<g id="edge58" class="edge">
<title>Node45&#45;&gt;Node31</title>
<path fill="none" stroke="midnightblue" d="M2170.1,-112.08C2176.73,-104.3 2186.52,-92.8 2194.56,-83.37"/>
<polygon fill="midnightblue" stroke="midnightblue" points="2197.23,-85.63 2201.05,-75.75 2191.9,-81.09 2197.23,-85.63"/>
</g>
<!-- Node62&#45;&gt;Node25 -->
<g id="edge61" class="edge">
<title>Node62&#45;&gt;Node25</title>
<path fill="none" stroke="midnightblue" d="M1514.84,-224.22C1511.19,-202.03 1505.08,-143.22 1535.5,-112 1561.3,-85.52 1661.93,-74.34 1725.92,-69.83"/>
<polygon fill="midnightblue" stroke="midnightblue" points="1726.5,-73.3 1736.25,-69.14 1726.04,-66.32 1726.5,-73.3"/>
</g>
<!-- Node65&#45;&gt;Node9 -->
<g id="edge69" class="edge">
<title>Node65&#45;&gt;Node9</title>
<path fill="none" stroke="midnightblue" d="M1368.87,-168.08C1365.89,-160.77 1361.57,-150.18 1357.88,-141.1"/>
<polygon fill="midnightblue" stroke="midnightblue" points="1361.08,-139.69 1354.07,-131.75 1354.6,-142.33 1361.08,-139.69"/>
</g>
<!-- Node65&#45;&gt;Node15 -->
<g id="edge70" class="edge">
<title>Node65&#45;&gt;Node15</title>
<path fill="none" stroke="midnightblue" d="M1380.76,-168.08C1387.96,-160.3 1398.61,-148.8 1407.35,-139.37"/>
<polygon fill="midnightblue" stroke="midnightblue" points="1410.17,-141.47 1414.4,-131.75 1405.03,-136.71 1410.17,-141.47"/>
</g>
<!-- Node67&#45;&gt;Node29 -->
<g id="edge73" class="edge">
<title>Node67&#45;&gt;Node29</title>
<path fill="none" stroke="midnightblue" d="M1778.16,-224.44C1837.17,-214.67 1933.48,-198.71 1994.88,-188.54"/>
<polygon fill="midnightblue" stroke="midnightblue" points="1995.5,-191.99 2004.8,-186.9 1994.36,-185.08 1995.5,-191.99"/>
</g>
<!-- Node67&#45;&gt;Node30 -->
<g id="edge74" class="edge">
<title>Node67&#45;&gt;Node30</title>
<path fill="none" stroke="midnightblue" d="M1729.68,-224.24C1735.08,-210.52 1747.23,-183.89 1765.5,-168 1783.13,-152.66 1806.76,-141.95 1827.23,-134.84"/>
<polygon fill="midnightblue" stroke="midnightblue" points="1828.58,-138.08 1836.98,-131.63 1826.39,-131.43 1828.58,-138.08"/>
</g>
<!-- Node67&#45;&gt;Node51 -->
<g id="edge75" class="edge">
<title>Node67&#45;&gt;Node51</title>
<path fill="none" stroke="midnightblue" d="M1744.72,-224.44C1763.4,-215.68 1792.66,-201.94 1814.12,-191.86"/>
<polygon fill="midnightblue" stroke="midnightblue" points="1815.8,-194.93 1823.36,-187.52 1812.82,-188.6 1815.8,-194.93"/>
</g>
<!-- Node67&#45;&gt;Node53 -->
<g id="edge77" class="edge">
<title>Node67&#45;&gt;Node53</title>
<path fill="none" stroke="midnightblue" d="M1714.45,-224.32C1703.04,-216.11 1685.67,-203.6 1672.07,-193.81"/>
<polygon fill="midnightblue" stroke="midnightblue" points="1673.93,-190.84 1663.77,-187.83 1669.84,-196.52 1673.93,-190.84"/>
</g>
<!-- Node67&#45;&gt;Node65 -->
<g id="edge76" class="edge">
<title>Node67&#45;&gt;Node65</title>
<path fill="none" stroke="midnightblue" d="M1670.41,-224.44C1607.27,-214.81 1504.8,-199.18 1438.03,-189"/>
<polygon fill="midnightblue" stroke="midnightblue" points="1438.45,-185.52 1428.04,-187.47 1437.4,-192.44 1438.45,-185.52"/>
</g>
<!-- Node71&#45;&gt;Node26 -->
<g id="edge80" class="edge">
<title>Node71&#45;&gt;Node26</title>
<path fill="none" stroke="midnightblue" d="M1400.26,-224.27C1426.72,-197.95 1504.86,-120.64 1518.5,-112 1588.92,-67.4 1682.14,-37.32 1736.3,-22.26"/>
<polygon fill="midnightblue" stroke="midnightblue" points="1737.55,-25.55 1746.27,-19.54 1735.7,-18.8 1737.55,-25.55"/>
</g>
</g>
</svg>
