<?xml version="1.0" encoding="UTF-8" standalone="no"?>
<!DOCTYPE svg PUBLIC "-//W3C//DTD SVG 1.1//EN"
 "http://www.w3.org/Graphics/SVG/1.1/DTD/svg11.dtd">
<!-- Generated by graphviz version 2.43.0 (0)
 -->
<!-- Title: list.h Pages: 1 -->
<svg width="3985pt" height="140pt"
 viewBox="0.00 0.00 3985.00 140.00" xmlns="http://www.w3.org/2000/svg" xmlns:xlink="http://www.w3.org/1999/xlink">
<g id="graph0" class="graph" transform="scale(1 1) rotate(0) translate(4 136)">
<title>list.h</title>
<polygon fill="white" stroke="transparent" points="-4,4 -4,-136 3981,-136 3981,4 -4,4"/>
<!-- Node1 -->
<g id="node1" class="node">
<title>Node1</title>
<g id="a_node1"><a xlink:title=" ">
<polygon fill="#bfbfbf" stroke="black" points="1953.5,-112.5 1953.5,-131.5 1994.5,-131.5 1994.5,-112.5 1953.5,-112.5"/>
<text text-anchor="middle" x="1974" y="-119.5" font-family="FreeSans" font-size="10.00">list.h</text>
</a>
</g>
</g>
<!-- Node2 -->
<g id="node2" class="node">
<title>Node2</title>
<g id="a_node2"><a xlink:href="MagickCore_8h.html" target="_top" xlink:title=" ">
<polygon fill="white" stroke="red" points="4.5,-56.5 4.5,-75.5 87.5,-75.5 87.5,-56.5 4.5,-56.5"/>
<text text-anchor="middle" x="46" y="-63.5" font-family="FreeSans" font-size="10.00">MagickCore.h</text>
</a>
</g>
</g>
<!-- Node1&#45;&gt;Node2 -->
<g id="edge1" class="edge">
<title>Node1&#45;&gt;Node2</title>
<path fill="none" stroke="midnightblue" d="M1943.36,-120.9C1731.07,-120.1 476.59,-113.83 97,-76 93.96,-75.7 90.82,-75.32 87.68,-74.88"/>
<polygon fill="midnightblue" stroke="midnightblue" points="1943.46,-124.4 1953.47,-120.94 1943.49,-117.4 1943.46,-124.4"/>
</g>
<!-- Node6 -->
<g id="node4" class="node">
<title>Node6</title>
<g id="a_node4"><a xlink:href="accelerate_8c.html" target="_top" xlink:title=" ">
<polygon fill="white" stroke="black" points="106,-56.5 106,-75.5 182,-75.5 182,-56.5 106,-56.5"/>
<text text-anchor="middle" x="144" y="-63.5" font-family="FreeSans" font-size="10.00">accelerate.c</text>
</a>
</g>
</g>
<!-- Node1&#45;&gt;Node6 -->
<g id="edge3" class="edge">
<title>Node1&#45;&gt;Node6</title>
<path fill="none" stroke="midnightblue" d="M1943.31,-120.9C1737.15,-120.11 551.23,-113.97 192,-76 188.8,-75.66 185.49,-75.22 182.17,-74.73"/>
<polygon fill="midnightblue" stroke="midnightblue" points="1943.41,-124.4 1953.43,-120.94 1943.44,-117.4 1943.41,-124.4"/>
</g>
<!-- Node7 -->
<g id="node5" class="node">
<title>Node7</title>
<g id="a_node5"><a xlink:href="animate_8c.html" target="_top" xlink:title=" ">
<polygon fill="white" stroke="black" points="200.5,-56.5 200.5,-75.5 265.5,-75.5 265.5,-56.5 200.5,-56.5"/>
<text text-anchor="middle" x="233" y="-63.5" font-family="FreeSans" font-size="10.00">animate.c</text>
</a>
</g>
</g>
<!-- Node1&#45;&gt;Node7 -->
<g id="edge4" class="edge">
<title>Node1&#45;&gt;Node7</title>
<path fill="none" stroke="midnightblue" d="M1943.18,-120.96C1742.22,-120.59 616.1,-116.71 275,-76 272.04,-75.65 268.98,-75.18 265.92,-74.65"/>
<polygon fill="midnightblue" stroke="midnightblue" points="1943.31,-124.46 1953.32,-120.98 1943.32,-117.46 1943.31,-124.46"/>
</g>
<!-- Node8 -->
<g id="node6" class="node">
<title>Node8</title>
<g id="a_node6"><a xlink:href="artifact_8c.html" target="_top" xlink:title=" ">
<polygon fill="white" stroke="black" points="284,-56.5 284,-75.5 344,-75.5 344,-56.5 284,-56.5"/>
<text text-anchor="middle" x="314" y="-63.5" font-family="FreeSans" font-size="10.00">artifact.c</text>
</a>
</g>
</g>
<!-- Node1&#45;&gt;Node8 -->
<g id="edge5" class="edge">
<title>Node1&#45;&gt;Node8</title>
<path fill="none" stroke="midnightblue" d="M1943.09,-120.96C1747.37,-120.57 678.18,-116.58 354,-76 350.75,-75.59 347.38,-75.04 344.03,-74.41"/>
<polygon fill="midnightblue" stroke="midnightblue" points="1943.24,-124.46 1953.24,-120.98 1943.25,-117.46 1943.24,-124.46"/>
</g>
<!-- Node9 -->
<g id="node7" class="node">
<title>Node9</title>
<g id="a_node7"><a xlink:href="attribute_8c.html" target="_top" xlink:title=" ">
<polygon fill="white" stroke="black" points="362.5,-56.5 362.5,-75.5 429.5,-75.5 429.5,-56.5 362.5,-56.5"/>
<text text-anchor="middle" x="396" y="-63.5" font-family="FreeSans" font-size="10.00">attribute.c</text>
</a>
</g>
</g>
<!-- Node1&#45;&gt;Node9 -->
<g id="edge6" class="edge">
<title>Node1&#45;&gt;Node9</title>
<path fill="none" stroke="midnightblue" d="M1943.25,-120.84C1754.03,-119.75 745.63,-112.29 439,-76 435.97,-75.64 432.84,-75.18 429.71,-74.64"/>
<polygon fill="midnightblue" stroke="midnightblue" points="1943.31,-124.34 1953.33,-120.9 1943.35,-117.34 1943.31,-124.34"/>
</g>
<!-- Node10 -->
<g id="node8" class="node">
<title>Node10</title>
<g id="a_node8"><a xlink:href="blob_8c.html" target="_top" xlink:title=" ">
<polygon fill="white" stroke="black" points="448,-56.5 448,-75.5 494,-75.5 494,-56.5 448,-56.5"/>
<text text-anchor="middle" x="471" y="-63.5" font-family="FreeSans" font-size="10.00">blob.c</text>
</a>
</g>
</g>
<!-- Node1&#45;&gt;Node10 -->
<g id="edge7" class="edge">
<title>Node1&#45;&gt;Node10</title>
<path fill="none" stroke="midnightblue" d="M1943.37,-121.04C1759.09,-121.16 795.84,-119.64 504,-76 500.83,-75.53 497.53,-74.85 494.29,-74.08"/>
<polygon fill="midnightblue" stroke="midnightblue" points="1943.45,-124.54 1953.45,-121.04 1943.45,-117.54 1943.45,-124.54"/>
</g>
<!-- Node11 -->
<g id="node9" class="node">
<title>Node11</title>
<g id="a_node9"><a xlink:href="cache_8c.html" target="_top" xlink:title=" ">
<polygon fill="white" stroke="black" points="512.5,-56.5 512.5,-75.5 565.5,-75.5 565.5,-56.5 512.5,-56.5"/>
<text text-anchor="middle" x="539" y="-63.5" font-family="FreeSans" font-size="10.00">cache.c</text>
</a>
</g>
</g>
<!-- Node1&#45;&gt;Node11 -->
<g id="edge8" class="edge">
<title>Node1&#45;&gt;Node11</title>
<path fill="none" stroke="midnightblue" d="M1943.47,-120.9C1764.75,-120.19 852.43,-114.69 575,-76 571.94,-75.57 568.76,-74.99 565.61,-74.32"/>
<polygon fill="midnightblue" stroke="midnightblue" points="1943.48,-124.4 1953.5,-120.94 1943.51,-117.4 1943.48,-124.4"/>
</g>
<!-- Node12 -->
<g id="node10" class="node">
<title>Node12</title>
<g id="a_node10"><a xlink:href="channel_8c.html" target="_top" xlink:title=" ">
<polygon fill="white" stroke="black" points="583.5,-56.5 583.5,-75.5 646.5,-75.5 646.5,-56.5 583.5,-56.5"/>
<text text-anchor="middle" x="615" y="-63.5" font-family="FreeSans" font-size="10.00">channel.c</text>
</a>
</g>
</g>
<!-- Node1&#45;&gt;Node12 -->
<g id="edge9" class="edge">
<title>Node1&#45;&gt;Node12</title>
<path fill="none" stroke="midnightblue" d="M1943.11,-120.71C1769.79,-118.96 916.76,-108.79 656,-76 652.96,-75.62 649.82,-75.12 646.69,-74.55"/>
<polygon fill="midnightblue" stroke="midnightblue" points="1943.27,-124.21 1953.31,-120.81 1943.34,-117.21 1943.27,-124.21"/>
</g>
<!-- Node13 -->
<g id="node11" class="node">
<title>Node13</title>
<g id="a_node11"><a xlink:href="cipher_8c.html" target="_top" xlink:title=" ">
<polygon fill="white" stroke="black" points="665,-56.5 665,-75.5 719,-75.5 719,-56.5 665,-56.5"/>
<text text-anchor="middle" x="692" y="-63.5" font-family="FreeSans" font-size="10.00">cipher.c</text>
</a>
</g>
</g>
<!-- Node1&#45;&gt;Node13 -->
<g id="edge10" class="edge">
<title>Node1&#45;&gt;Node13</title>
<path fill="none" stroke="midnightblue" d="M1942.94,-120.76C1774.89,-119.31 973.11,-110.68 728,-76 725.07,-75.58 722.02,-75.03 719.01,-74.39"/>
<polygon fill="midnightblue" stroke="midnightblue" points="1943.05,-124.26 1953.08,-120.84 1943.11,-117.26 1943.05,-124.26"/>
</g>
<!-- Node14 -->
<g id="node12" class="node">
<title>Node14</title>
<g id="a_node12"><a xlink:href="compare_8c.html" target="_top" xlink:title=" ">
<polygon fill="white" stroke="black" points="737,-56.5 737,-75.5 805,-75.5 805,-56.5 737,-56.5"/>
<text text-anchor="middle" x="771" y="-63.5" font-family="FreeSans" font-size="10.00">compare.c</text>
</a>
</g>
</g>
<!-- Node1&#45;&gt;Node14 -->
<g id="edge11" class="edge">
<title>Node1&#45;&gt;Node14</title>
<path fill="none" stroke="midnightblue" d="M1943.1,-120.5C1782.49,-117.81 1041.8,-104.06 814,-76 811.12,-75.65 808.15,-75.2 805.18,-74.69"/>
<polygon fill="midnightblue" stroke="midnightblue" points="1943.18,-124 1953.24,-120.67 1943.29,-117.01 1943.18,-124"/>
</g>
<!-- Node15 -->
<g id="node13" class="node">
<title>Node15</title>
<g id="a_node13"><a xlink:href="composite_8c.html" target="_top" xlink:title=" ">
<polygon fill="white" stroke="black" points="823,-56.5 823,-75.5 899,-75.5 899,-56.5 823,-56.5"/>
<text text-anchor="middle" x="861" y="-63.5" font-family="FreeSans" font-size="10.00">composite.c</text>
</a>
</g>
</g>
<!-- Node1&#45;&gt;Node15 -->
<g id="edge12" class="edge">
<title>Node1&#45;&gt;Node15</title>
<path fill="none" stroke="midnightblue" d="M1943,-121.35C1814.98,-122.46 1315.18,-123.32 908,-76 905.11,-75.66 902.13,-75.25 899.15,-74.79"/>
<polygon fill="midnightblue" stroke="midnightblue" points="1943.26,-124.85 1953.23,-121.26 1943.2,-117.85 1943.26,-124.85"/>
</g>
<!-- Node16 -->
<g id="node14" class="node">
<title>Node16</title>
<g id="a_node14"><a xlink:href="compress_8c.html" target="_top" xlink:title=" ">
<polygon fill="white" stroke="black" points="917,-56.5 917,-75.5 989,-75.5 989,-56.5 917,-56.5"/>
<text text-anchor="middle" x="953" y="-63.5" font-family="FreeSans" font-size="10.00">compress.c</text>
</a>
</g>
</g>
<!-- Node1&#45;&gt;Node16 -->
<g id="edge13" class="edge">
<title>Node1&#45;&gt;Node16</title>
<path fill="none" stroke="midnightblue" d="M1943.28,-121.27C1822.42,-121.98 1368.18,-121.29 998,-76 995.15,-75.65 992.22,-75.22 989.27,-74.74"/>
<polygon fill="midnightblue" stroke="midnightblue" points="1943.32,-124.77 1953.3,-121.2 1943.28,-117.77 1943.32,-124.77"/>
</g>
<!-- Node17 -->
<g id="node15" class="node">
<title>Node17</title>
<g id="a_node15"><a xlink:href="constitute_8c.html" target="_top" xlink:title=" ">
<polygon fill="white" stroke="black" points="1007,-56.5 1007,-75.5 1081,-75.5 1081,-56.5 1007,-56.5"/>
<text text-anchor="middle" x="1044" y="-63.5" font-family="FreeSans" font-size="10.00">constitute.c</text>
</a>
</g>
</g>
<!-- Node1&#45;&gt;Node17 -->
<g id="edge14" class="edge">
<title>Node1&#45;&gt;Node17</title>
<path fill="none" stroke="midnightblue" d="M1943.28,-121.02C1829.64,-120.74 1422.46,-116.78 1090,-76 1087.09,-75.64 1084.09,-75.21 1081.08,-74.73"/>
<polygon fill="midnightblue" stroke="midnightblue" points="1943.34,-124.52 1953.35,-121.03 1943.35,-117.52 1943.34,-124.52"/>
</g>
<!-- Node18 -->
<g id="node16" class="node">
<title>Node18</title>
<g id="a_node16"><a xlink:href="delegate_8c.html" target="_top" xlink:title=" ">
<polygon fill="white" stroke="black" points="1099,-56.5 1099,-75.5 1167,-75.5 1167,-56.5 1099,-56.5"/>
<text text-anchor="middle" x="1133" y="-63.5" font-family="FreeSans" font-size="10.00">delegate.c</text>
</a>
</g>
</g>
<!-- Node1&#45;&gt;Node18 -->
<g id="edge15" class="edge">
<title>Node1&#45;&gt;Node18</title>
<path fill="none" stroke="midnightblue" d="M1943.16,-120.92C1836.42,-120.29 1472.92,-115.22 1176,-76 1173.13,-75.62 1170.16,-75.16 1167.19,-74.64"/>
<polygon fill="midnightblue" stroke="midnightblue" points="1943.22,-124.42 1953.24,-120.97 1943.26,-117.42 1943.22,-124.42"/>
</g>
<!-- Node19 -->
<g id="node17" class="node">
<title>Node19</title>
<g id="a_node17"><a xlink:href="deprecate_8c.html" target="_top" xlink:title=" ">
<polygon fill="white" stroke="black" points="1185,-56.5 1185,-75.5 1259,-75.5 1259,-56.5 1185,-56.5"/>
<text text-anchor="middle" x="1222" y="-63.5" font-family="FreeSans" font-size="10.00">deprecate.c</text>
</a>
</g>
</g>
<!-- Node1&#45;&gt;Node19 -->
<g id="edge16" class="edge">
<title>Node1&#45;&gt;Node19</title>
<path fill="none" stroke="midnightblue" d="M1943.3,-120.41C1844.87,-118.24 1528.46,-108.99 1269,-76 1265.79,-75.59 1262.46,-75.1 1259.13,-74.56"/>
<polygon fill="midnightblue" stroke="midnightblue" points="1943.36,-123.92 1953.44,-120.63 1943.51,-116.92 1943.36,-123.92"/>
</g>
<!-- Node20 -->
<g id="node18" class="node">
<title>Node20</title>
<g id="a_node18"><a xlink:href="display_8c.html" target="_top" xlink:title=" ">
<polygon fill="white" stroke="black" points="1277.5,-56.5 1277.5,-75.5 1336.5,-75.5 1336.5,-56.5 1277.5,-56.5"/>
<text text-anchor="middle" x="1307" y="-63.5" font-family="FreeSans" font-size="10.00">display.c</text>
</a>
</g>
</g>
<!-- Node1&#45;&gt;Node20 -->
<g id="edge17" class="edge">
<title>Node1&#45;&gt;Node20</title>
<path fill="none" stroke="midnightblue" d="M1943.03,-120.48C1851.34,-118.58 1573.48,-110.19 1346,-76 1342.98,-75.55 1339.84,-74.98 1336.72,-74.36"/>
<polygon fill="midnightblue" stroke="midnightblue" points="1943.2,-123.98 1953.27,-120.68 1943.34,-116.99 1943.2,-123.98"/>
</g>
<!-- Node21 -->
<g id="node19" class="node">
<title>Node21</title>
<g id="a_node19"><a xlink:href="distort_8c.html" target="_top" xlink:title=" ">
<polygon fill="white" stroke="black" points="1355,-56.5 1355,-75.5 1411,-75.5 1411,-56.5 1355,-56.5"/>
<text text-anchor="middle" x="1383" y="-63.5" font-family="FreeSans" font-size="10.00">distort.c</text>
</a>
</g>
</g>
<!-- Node1&#45;&gt;Node21 -->
<g id="edge18" class="edge">
<title>Node1&#45;&gt;Node21</title>
<path fill="none" stroke="midnightblue" d="M1943.35,-120.2C1859.22,-117.65 1617.82,-107.89 1420,-76 1417.13,-75.54 1414.15,-74.97 1411.19,-74.34"/>
<polygon fill="midnightblue" stroke="midnightblue" points="1943.39,-123.71 1953.49,-120.5 1943.59,-116.71 1943.39,-123.71"/>
</g>
<!-- Node22 -->
<g id="node20" class="node">
<title>Node22</title>
<g id="a_node20"><a xlink:href="distribute-cache_8c.html" target="_top" xlink:title=" ">
<polygon fill="white" stroke="black" points="1429,-56.5 1429,-75.5 1533,-75.5 1533,-56.5 1429,-56.5"/>
<text text-anchor="middle" x="1481" y="-63.5" font-family="FreeSans" font-size="10.00">distribute&#45;cache.c</text>
</a>
</g>
</g>
<!-- Node1&#45;&gt;Node22 -->
<g id="edge19" class="edge">
<title>Node1&#45;&gt;Node22</title>
<path fill="none" stroke="midnightblue" d="M1943.25,-118.25C1872.39,-111.82 1692.15,-94.89 1542,-76 1539.13,-75.64 1536.19,-75.25 1533.22,-74.85"/>
<polygon fill="midnightblue" stroke="midnightblue" points="1943.01,-121.74 1953.28,-119.16 1943.64,-114.77 1943.01,-121.74"/>
</g>
<!-- Node23 -->
<g id="node21" class="node">
<title>Node23</title>
<g id="a_node21"><a xlink:href="draw_8c.html" target="_top" xlink:title=" ">
<polygon fill="white" stroke="black" points="1551,-56.5 1551,-75.5 1599,-75.5 1599,-56.5 1551,-56.5"/>
<text text-anchor="middle" x="1575" y="-63.5" font-family="FreeSans" font-size="10.00">draw.c</text>
</a>
</g>
</g>
<!-- Node1&#45;&gt;Node23 -->
<g id="edge20" class="edge">
<title>Node1&#45;&gt;Node23</title>
<path fill="none" stroke="midnightblue" d="M1943.19,-118.63C1880.07,-113.45 1731.67,-99.68 1609,-76 1605.76,-75.37 1602.38,-74.61 1599.05,-73.8"/>
<polygon fill="midnightblue" stroke="midnightblue" points="1943.02,-122.12 1953.27,-119.44 1943.58,-115.15 1943.02,-122.12"/>
</g>
<!-- Node24 -->
<g id="node22" class="node">
<title>Node24</title>
<g id="a_node22"><a xlink:href="effect_8c.html" target="_top" xlink:title=" ">
<polygon fill="white" stroke="black" points="1617.5,-56.5 1617.5,-75.5 1670.5,-75.5 1670.5,-56.5 1617.5,-56.5"/>
<text text-anchor="middle" x="1644" y="-63.5" font-family="FreeSans" font-size="10.00">effect.c</text>
</a>
</g>
</g>
<!-- Node1&#45;&gt;Node24 -->
<g id="edge21" class="edge">
<title>Node1&#45;&gt;Node24</title>
<path fill="none" stroke="midnightblue" d="M1942.97,-117.22C1889.17,-110.44 1775.19,-95.14 1680,-76 1676.97,-75.39 1673.81,-74.69 1670.67,-73.96"/>
<polygon fill="midnightblue" stroke="midnightblue" points="1942.85,-120.73 1953.21,-118.49 1943.72,-113.78 1942.85,-120.73"/>
</g>
<!-- Node25 -->
<g id="node23" class="node">
<title>Node25</title>
<g id="a_node23"><a xlink:href="feature_8c.html" target="_top" xlink:title=" ">
<polygon fill="white" stroke="black" points="1689,-56.5 1689,-75.5 1749,-75.5 1749,-56.5 1689,-56.5"/>
<text text-anchor="middle" x="1719" y="-63.5" font-family="FreeSans" font-size="10.00">feature.c</text>
</a>
</g>
</g>
<!-- Node1&#45;&gt;Node25 -->
<g id="edge22" class="edge">
<title>Node1&#45;&gt;Node25</title>
<path fill="none" stroke="midnightblue" d="M1943.58,-114.88C1901.72,-106.4 1824.05,-90.5 1758,-76 1755.15,-75.37 1752.18,-74.71 1749.22,-74.04"/>
<polygon fill="midnightblue" stroke="midnightblue" points="1942.92,-118.31 1953.42,-116.86 1944.31,-111.45 1942.92,-118.31"/>
</g>
<!-- Node26 -->
<g id="node24" class="node">
<title>Node26</title>
<g id="a_node24"><a xlink:href="fourier_8c.html" target="_top" xlink:title=" ">
<polygon fill="white" stroke="black" points="1767,-56.5 1767,-75.5 1823,-75.5 1823,-56.5 1767,-56.5"/>
<text text-anchor="middle" x="1795" y="-63.5" font-family="FreeSans" font-size="10.00">fourier.c</text>
</a>
</g>
</g>
<!-- Node1&#45;&gt;Node26 -->
<g id="edge23" class="edge">
<title>Node1&#45;&gt;Node26</title>
<path fill="none" stroke="midnightblue" d="M1943.71,-111.86C1910.02,-101.7 1856.04,-85.41 1823.21,-75.51"/>
<polygon fill="midnightblue" stroke="midnightblue" points="1942.88,-115.27 1953.47,-114.81 1944.9,-108.57 1942.88,-115.27"/>
</g>
<!-- Node27 -->
<g id="node25" class="node">
<title>Node27</title>
<g id="a_node25"><a xlink:href="fx_8c.html" target="_top" xlink:title=" ">
<polygon fill="white" stroke="black" points="1841.5,-56.5 1841.5,-75.5 1876.5,-75.5 1876.5,-56.5 1841.5,-56.5"/>
<text text-anchor="middle" x="1859" y="-63.5" font-family="FreeSans" font-size="10.00">fx.c</text>
</a>
</g>
</g>
<!-- Node1&#45;&gt;Node27 -->
<g id="edge24" class="edge">
<title>Node1&#45;&gt;Node27</title>
<path fill="none" stroke="midnightblue" d="M1946.46,-108.07C1924.84,-97.91 1895.36,-84.08 1876.76,-75.34"/>
<polygon fill="midnightblue" stroke="midnightblue" points="1945.24,-111.36 1955.78,-112.44 1948.21,-105.02 1945.24,-111.36"/>
</g>
<!-- Node28 -->
<g id="node26" class="node">
<title>Node28</title>
<g id="a_node26"><a xlink:href="histogram_8c.html" target="_top" xlink:title=" ">
<polygon fill="white" stroke="black" points="1895,-56.5 1895,-75.5 1969,-75.5 1969,-56.5 1895,-56.5"/>
<text text-anchor="middle" x="1932" y="-63.5" font-family="FreeSans" font-size="10.00">histogram.c</text>
</a>
</g>
</g>
<!-- Node1&#45;&gt;Node28 -->
<g id="edge25" class="edge">
<title>Node1&#45;&gt;Node28</title>
<path fill="none" stroke="midnightblue" d="M1960.89,-104.14C1953.57,-94.74 1944.76,-83.4 1938.81,-75.75"/>
<polygon fill="midnightblue" stroke="midnightblue" points="1958.16,-106.34 1967.06,-112.08 1963.69,-102.04 1958.16,-106.34"/>
</g>
<!-- Node29 -->
<g id="node27" class="node">
<title>Node29</title>
<g id="a_node27"><a xlink:href="identify_8c.html" target="_top" xlink:title=" ">
<polygon fill="white" stroke="black" points="1987,-56.5 1987,-75.5 2047,-75.5 2047,-56.5 1987,-56.5"/>
<text text-anchor="middle" x="2017" y="-63.5" font-family="FreeSans" font-size="10.00">identify.c</text>
</a>
</g>
</g>
<!-- Node1&#45;&gt;Node29 -->
<g id="edge26" class="edge">
<title>Node1&#45;&gt;Node29</title>
<path fill="none" stroke="midnightblue" d="M1987.42,-104.14C1994.91,-94.74 2003.94,-83.4 2010.03,-75.75"/>
<polygon fill="midnightblue" stroke="midnightblue" points="1984.59,-102.08 1981.1,-112.08 1990.07,-106.44 1984.59,-102.08"/>
</g>
<!-- Node30 -->
<g id="node28" class="node">
<title>Node30</title>
<g id="a_node28"><a xlink:href="image_8c.html" target="_top" xlink:title=" ">
<polygon fill="white" stroke="black" points="2065,-56.5 2065,-75.5 2121,-75.5 2121,-56.5 2065,-56.5"/>
<text text-anchor="middle" x="2093" y="-63.5" font-family="FreeSans" font-size="10.00">image.c</text>
</a>
</g>
</g>
<!-- Node1&#45;&gt;Node30 -->
<g id="edge27" class="edge">
<title>Node1&#45;&gt;Node30</title>
<path fill="none" stroke="midnightblue" d="M2002.14,-108.23C2024.4,-98.13 2054.86,-84.31 2074.23,-75.52"/>
<polygon fill="midnightblue" stroke="midnightblue" points="2000.52,-105.12 1992.86,-112.44 2003.41,-111.5 2000.52,-105.12"/>
</g>
<!-- Node31 -->
<g id="node29" class="node">
<title>Node31</title>
<g id="a_node29"><a xlink:href="layer_8c.html" target="_top" xlink:title=" ">
<polygon fill="white" stroke="black" points="2139.5,-56.5 2139.5,-75.5 2188.5,-75.5 2188.5,-56.5 2139.5,-56.5"/>
<text text-anchor="middle" x="2164" y="-63.5" font-family="FreeSans" font-size="10.00">layer.c</text>
</a>
</g>
</g>
<!-- Node1&#45;&gt;Node31 -->
<g id="edge28" class="edge">
<title>Node1&#45;&gt;Node31</title>
<path fill="none" stroke="midnightblue" d="M2004.56,-112.32C2042.06,-101.66 2104.92,-83.79 2139.45,-73.98"/>
<polygon fill="midnightblue" stroke="midnightblue" points="2003.36,-109.02 1994.7,-115.12 2005.27,-115.75 2003.36,-109.02"/>
</g>
<!-- Node32 -->
<g id="node30" class="node">
<title>Node32</title>
<g id="a_node30"><a xlink:href="list_8c.html" target="_top" xlink:title=" ">
<polygon fill="white" stroke="black" points="2207,-56.5 2207,-75.5 2247,-75.5 2247,-56.5 2207,-56.5"/>
<text text-anchor="middle" x="2227" y="-63.5" font-family="FreeSans" font-size="10.00">list.c</text>
</a>
</g>
</g>
<!-- Node1&#45;&gt;Node32 -->
<g id="edge29" class="edge">
<title>Node1&#45;&gt;Node32</title>
<path fill="none" stroke="midnightblue" d="M2004.44,-115.91C2047.74,-108.43 2129.47,-93.47 2198,-76 2200.86,-75.27 2203.86,-74.43 2206.79,-73.56"/>
<polygon fill="midnightblue" stroke="midnightblue" points="2003.81,-112.46 1994.54,-117.6 2004.99,-119.36 2003.81,-112.46"/>
</g>
<!-- Node33 -->
<g id="node31" class="node">
<title>Node33</title>
<g id="a_node31"><a xlink:href="montage_8c.html" target="_top" xlink:title=" ">
<polygon fill="white" stroke="black" points="2265,-56.5 2265,-75.5 2333,-75.5 2333,-56.5 2265,-56.5"/>
<text text-anchor="middle" x="2299" y="-63.5" font-family="FreeSans" font-size="10.00">montage.c</text>
</a>
</g>
</g>
<!-- Node1&#45;&gt;Node33 -->
<g id="edge30" class="edge">
<title>Node1&#45;&gt;Node33</title>
<path fill="none" stroke="midnightblue" d="M2004.78,-116.58C2056.71,-109.02 2164.96,-92.78 2256,-76 2258.85,-75.47 2261.8,-74.91 2264.76,-74.32"/>
<polygon fill="midnightblue" stroke="midnightblue" points="2003.97,-113.16 1994.58,-118.06 2004.98,-120.09 2003.97,-113.16"/>
</g>
<!-- Node34 -->
<g id="node32" class="node">
<title>Node34</title>
<g id="a_node32"><a xlink:href="morphology_8c.html" target="_top" xlink:title=" ">
<polygon fill="white" stroke="black" points="2351,-56.5 2351,-75.5 2433,-75.5 2433,-56.5 2351,-56.5"/>
<text text-anchor="middle" x="2392" y="-63.5" font-family="FreeSans" font-size="10.00">morphology.c</text>
</a>
</g>
</g>
<!-- Node1&#45;&gt;Node34 -->
<g id="edge31" class="edge">
<title>Node1&#45;&gt;Node34</title>
<path fill="none" stroke="midnightblue" d="M2004.92,-117.81C2068.3,-111.16 2217.46,-94.81 2342,-76 2344.88,-75.57 2347.84,-75.09 2350.83,-74.6"/>
<polygon fill="midnightblue" stroke="midnightblue" points="2004.39,-114.35 1994.81,-118.87 2005.12,-121.31 2004.39,-114.35"/>
</g>
<!-- Node35 -->
<g id="node33" class="node">
<title>Node35</title>
<g id="a_node33"><a xlink:href="pixel_8c.html" target="_top" xlink:title=" ">
<polygon fill="white" stroke="black" points="2451,-56.5 2451,-75.5 2499,-75.5 2499,-56.5 2451,-56.5"/>
<text text-anchor="middle" x="2475" y="-63.5" font-family="FreeSans" font-size="10.00">pixel.c</text>
</a>
</g>
</g>
<!-- Node1&#45;&gt;Node35 -->
<g id="edge32" class="edge">
<title>Node1&#45;&gt;Node35</title>
<path fill="none" stroke="midnightblue" d="M2004.9,-119.85C2080.2,-116.65 2279,-105.84 2442,-76 2444.92,-75.47 2447.96,-74.8 2450.96,-74.07"/>
<polygon fill="midnightblue" stroke="midnightblue" points="2004.55,-116.36 1994.7,-120.27 2004.84,-123.35 2004.55,-116.36"/>
</g>
<!-- Node36 -->
<g id="node34" class="node">
<title>Node36</title>
<g id="a_node34"><a xlink:href="prepress_8c.html" target="_top" xlink:title=" ">
<polygon fill="white" stroke="black" points="2517.5,-56.5 2517.5,-75.5 2584.5,-75.5 2584.5,-56.5 2517.5,-56.5"/>
<text text-anchor="middle" x="2551" y="-63.5" font-family="FreeSans" font-size="10.00">prepress.c</text>
</a>
</g>
</g>
<!-- Node1&#45;&gt;Node36 -->
<g id="edge33" class="edge">
<title>Node1&#45;&gt;Node36</title>
<path fill="none" stroke="midnightblue" d="M2004.88,-119.72C2087.07,-116.03 2317.92,-103.79 2508,-76 2511.02,-75.56 2514.14,-75.04 2517.27,-74.47"/>
<polygon fill="midnightblue" stroke="midnightblue" points="2004.56,-116.23 1994.72,-120.17 2004.87,-123.22 2004.56,-116.23"/>
</g>
<!-- Node37 -->
<g id="node35" class="node">
<title>Node37</title>
<g id="a_node35"><a xlink:href="property_8c.html" target="_top" xlink:title=" ">
<polygon fill="white" stroke="black" points="2602.5,-56.5 2602.5,-75.5 2667.5,-75.5 2667.5,-56.5 2602.5,-56.5"/>
<text text-anchor="middle" x="2635" y="-63.5" font-family="FreeSans" font-size="10.00">property.c</text>
</a>
</g>
</g>
<!-- Node1&#45;&gt;Node37 -->
<g id="edge34" class="edge">
<title>Node1&#45;&gt;Node37</title>
<path fill="none" stroke="midnightblue" d="M2004.87,-120.33C2095.66,-118.01 2369.5,-108.62 2594,-76 2596.74,-75.6 2599.57,-75.12 2602.4,-74.6"/>
<polygon fill="midnightblue" stroke="midnightblue" points="2004.63,-116.83 1994.72,-120.57 2004.8,-123.83 2004.63,-116.83"/>
</g>
<!-- Node38 -->
<g id="node36" class="node">
<title>Node38</title>
<g id="a_node36"><a xlink:href="quantize_8c.html" target="_top" xlink:title=" ">
<polygon fill="white" stroke="black" points="2685.5,-56.5 2685.5,-75.5 2752.5,-75.5 2752.5,-56.5 2685.5,-56.5"/>
<text text-anchor="middle" x="2719" y="-63.5" font-family="FreeSans" font-size="10.00">quantize.c</text>
</a>
</g>
</g>
<!-- Node1&#45;&gt;Node38 -->
<g id="edge35" class="edge">
<title>Node1&#45;&gt;Node38</title>
<path fill="none" stroke="midnightblue" d="M2004.64,-120.65C2102.89,-119.17 2418.65,-111.75 2677,-76 2679.66,-75.63 2682.4,-75.19 2685.15,-74.7"/>
<polygon fill="midnightblue" stroke="midnightblue" points="2004.48,-117.15 1994.53,-120.79 2004.58,-124.15 2004.48,-117.15"/>
</g>
<!-- Node39 -->
<g id="node37" class="node">
<title>Node39</title>
<g id="a_node37"><a xlink:href="quantum-export_8c.html" target="_top" xlink:title=" ">
<polygon fill="white" stroke="black" points="2771,-56.5 2771,-75.5 2875,-75.5 2875,-56.5 2771,-56.5"/>
<text text-anchor="middle" x="2823" y="-63.5" font-family="FreeSans" font-size="10.00">quantum&#45;export.c</text>
</a>
</g>
</g>
<!-- Node1&#45;&gt;Node39 -->
<g id="edge36" class="edge">
<title>Node1&#45;&gt;Node39</title>
<path fill="none" stroke="midnightblue" d="M2005.05,-120.23C2111.06,-117.37 2468.4,-105.98 2762,-76 2764.88,-75.71 2767.82,-75.37 2770.8,-75.02"/>
<polygon fill="midnightblue" stroke="midnightblue" points="2004.66,-116.73 1994.75,-120.5 2004.84,-123.73 2004.66,-116.73"/>
</g>
<!-- Node40 -->
<g id="node38" class="node">
<title>Node40</title>
<g id="a_node38"><a xlink:href="quantum-import_8c.html" target="_top" xlink:title=" ">
<polygon fill="white" stroke="black" points="2893,-56.5 2893,-75.5 2997,-75.5 2997,-56.5 2893,-56.5"/>
<text text-anchor="middle" x="2945" y="-63.5" font-family="FreeSans" font-size="10.00">quantum&#45;import.c</text>
</a>
</g>
</g>
<!-- Node1&#45;&gt;Node40 -->
<g id="edge37" class="edge">
<title>Node1&#45;&gt;Node40</title>
<path fill="none" stroke="midnightblue" d="M2004.79,-120.56C2120.48,-118.68 2540.11,-109.79 2884,-76 2886.88,-75.72 2889.82,-75.39 2892.8,-75.04"/>
<polygon fill="midnightblue" stroke="midnightblue" points="2004.5,-117.06 1994.56,-120.72 2004.61,-124.06 2004.5,-117.06"/>
</g>
<!-- Node41 -->
<g id="node39" class="node">
<title>Node41</title>
<g id="a_node39"><a xlink:href="quantum_8c.html" target="_top" xlink:title=" ">
<polygon fill="white" stroke="black" points="3015,-56.5 3015,-75.5 3083,-75.5 3083,-56.5 3015,-56.5"/>
<text text-anchor="middle" x="3049" y="-63.5" font-family="FreeSans" font-size="10.00">quantum.c</text>
</a>
</g>
</g>
<!-- Node1&#45;&gt;Node41 -->
<g id="edge38" class="edge">
<title>Node1&#45;&gt;Node41</title>
<path fill="none" stroke="midnightblue" d="M2005.21,-120.32C2155.45,-116.97 2805.06,-101.24 3006,-76 3008.88,-75.64 3011.85,-75.19 3014.82,-74.68"/>
<polygon fill="midnightblue" stroke="midnightblue" points="2004.81,-116.83 1994.89,-120.55 2004.96,-123.83 2004.81,-116.83"/>
</g>
<!-- Node42 -->
<g id="node40" class="node">
<title>Node42</title>
<g id="a_node40"><a xlink:href="registry_8c.html" target="_top" xlink:title=" ">
<polygon fill="white" stroke="black" points="3101.5,-56.5 3101.5,-75.5 3162.5,-75.5 3162.5,-56.5 3101.5,-56.5"/>
<text text-anchor="middle" x="3132" y="-63.5" font-family="FreeSans" font-size="10.00">registry.c</text>
</a>
</g>
</g>
<!-- Node1&#45;&gt;Node42 -->
<g id="edge39" class="edge">
<title>Node1&#45;&gt;Node42</title>
<path fill="none" stroke="midnightblue" d="M2005.27,-120.51C2163.11,-117.9 2873.35,-104.76 3092,-76 3094.96,-75.61 3098.03,-75.11 3101.09,-74.54"/>
<polygon fill="midnightblue" stroke="midnightblue" points="2004.81,-117.01 1994.87,-120.68 2004.93,-124.01 2004.81,-117.01"/>
</g>
<!-- Node43 -->
<g id="node41" class="node">
<title>Node43</title>
<g id="a_node41"><a xlink:href="resize_8c.html" target="_top" xlink:title=" ">
<polygon fill="white" stroke="black" points="3181,-56.5 3181,-75.5 3235,-75.5 3235,-56.5 3181,-56.5"/>
<text text-anchor="middle" x="3208" y="-63.5" font-family="FreeSans" font-size="10.00">resize.c</text>
</a>
</g>
</g>
<!-- Node1&#45;&gt;Node43 -->
<g id="edge40" class="edge">
<title>Node1&#45;&gt;Node43</title>
<path fill="none" stroke="midnightblue" d="M2004.88,-120.71C2168.63,-119.02 2936.83,-109.44 3172,-76 3174.93,-75.58 3177.98,-75.02 3180.99,-74.39"/>
<polygon fill="midnightblue" stroke="midnightblue" points="2004.53,-117.21 1994.56,-120.81 2004.6,-124.21 2004.53,-117.21"/>
</g>
<!-- Node44 -->
<g id="node42" class="node">
<title>Node44</title>
<g id="a_node42"><a xlink:href="shear_8c.html" target="_top" xlink:title=" ">
<polygon fill="white" stroke="black" points="3253.5,-56.5 3253.5,-75.5 3304.5,-75.5 3304.5,-56.5 3253.5,-56.5"/>
<text text-anchor="middle" x="3279" y="-63.5" font-family="FreeSans" font-size="10.00">shear.c</text>
</a>
</g>
</g>
<!-- Node1&#45;&gt;Node44 -->
<g id="edge41" class="edge">
<title>Node1&#45;&gt;Node44</title>
<path fill="none" stroke="midnightblue" d="M2005.12,-120.81C2175.22,-119.63 2994.01,-112.14 3244,-76 3246.98,-75.57 3250.07,-74.98 3253.13,-74.32"/>
<polygon fill="midnightblue" stroke="midnightblue" points="2004.84,-117.31 1994.87,-120.88 2004.89,-124.31 2004.84,-117.31"/>
</g>
<!-- Node45 -->
<g id="node43" class="node">
<title>Node45</title>
<g id="a_node43"><a xlink:href="statistic_8c.html" target="_top" xlink:title=" ">
<polygon fill="white" stroke="black" points="3323,-56.5 3323,-75.5 3387,-75.5 3387,-56.5 3323,-56.5"/>
<text text-anchor="middle" x="3355" y="-63.5" font-family="FreeSans" font-size="10.00">statistic.c</text>
</a>
</g>
</g>
<!-- Node1&#45;&gt;Node45 -->
<g id="edge42" class="edge">
<title>Node1&#45;&gt;Node45</title>
<path fill="none" stroke="midnightblue" d="M2004.59,-120.73C2178.9,-119.09 3048.47,-109.32 3314,-76 3316.89,-75.64 3319.88,-75.17 3322.87,-74.63"/>
<polygon fill="midnightblue" stroke="midnightblue" points="2004.53,-117.23 1994.56,-120.82 2004.59,-124.23 2004.53,-117.23"/>
</g>
<!-- Node46 -->
<g id="node44" class="node">
<title>Node46</title>
<g id="a_node44"><a xlink:href="string_8c.html" target="_top" xlink:title=" ">
<polygon fill="white" stroke="black" points="3405.5,-56.5 3405.5,-75.5 3458.5,-75.5 3458.5,-56.5 3405.5,-56.5"/>
<text text-anchor="middle" x="3432" y="-63.5" font-family="FreeSans" font-size="10.00">string.c</text>
</a>
</g>
</g>
<!-- Node1&#45;&gt;Node46 -->
<g id="edge43" class="edge">
<title>Node1&#45;&gt;Node46</title>
<path fill="none" stroke="midnightblue" d="M2005.03,-120.92C2186.69,-120.3 3114,-115.25 3396,-76 3399.06,-75.57 3402.24,-74.99 3405.39,-74.33"/>
<polygon fill="midnightblue" stroke="midnightblue" points="2004.83,-117.42 1994.84,-120.95 2004.85,-124.42 2004.83,-117.42"/>
</g>
<!-- Node47 -->
<g id="node45" class="node">
<title>Node47</title>
<g id="a_node45"><a xlink:href="threshold_8c.html" target="_top" xlink:title=" ">
<polygon fill="white" stroke="black" points="3476.5,-56.5 3476.5,-75.5 3547.5,-75.5 3547.5,-56.5 3476.5,-56.5"/>
<text text-anchor="middle" x="3512" y="-63.5" font-family="FreeSans" font-size="10.00">threshold.c</text>
</a>
</g>
</g>
<!-- Node1&#45;&gt;Node47 -->
<g id="edge44" class="edge">
<title>Node1&#45;&gt;Node47</title>
<path fill="none" stroke="midnightblue" d="M2004.79,-120.79C2191.14,-119.43 3169.95,-110.71 3468,-76 3470.63,-75.69 3473.34,-75.31 3476.06,-74.87"/>
<polygon fill="midnightblue" stroke="midnightblue" points="2004.59,-117.29 1994.61,-120.87 2004.64,-124.29 2004.59,-117.29"/>
</g>
<!-- Node48 -->
<g id="node46" class="node">
<title>Node48</title>
<g id="a_node46"><a xlink:href="transform_8c.html" target="_top" xlink:title=" ">
<polygon fill="white" stroke="black" points="3565.5,-56.5 3565.5,-75.5 3638.5,-75.5 3638.5,-56.5 3565.5,-56.5"/>
<text text-anchor="middle" x="3602" y="-63.5" font-family="FreeSans" font-size="10.00">transform.c</text>
</a>
</g>
</g>
<!-- Node1&#45;&gt;Node48 -->
<g id="edge45" class="edge">
<title>Node1&#45;&gt;Node48</title>
<path fill="none" stroke="midnightblue" d="M2004.78,-120.84C2197.51,-119.7 3240.11,-111.93 3557,-76 3559.69,-75.69 3562.46,-75.31 3565.24,-74.88"/>
<polygon fill="midnightblue" stroke="midnightblue" points="2004.51,-117.34 1994.53,-120.89 2004.55,-124.34 2004.51,-117.34"/>
</g>
<!-- Node49 -->
<g id="node47" class="node">
<title>Node49</title>
<g id="a_node47"><a xlink:href="utility_8c.html" target="_top" xlink:title=" ">
<polygon fill="white" stroke="black" points="3657,-56.5 3657,-75.5 3709,-75.5 3709,-56.5 3657,-56.5"/>
<text text-anchor="middle" x="3683" y="-63.5" font-family="FreeSans" font-size="10.00">utility.c</text>
</a>
</g>
</g>
<!-- Node1&#45;&gt;Node49 -->
<g id="edge46" class="edge">
<title>Node1&#45;&gt;Node49</title>
<path fill="none" stroke="midnightblue" d="M2004.71,-121.12C2203.7,-121.73 3312.99,-122.97 3648,-76 3650.86,-75.6 3653.82,-75.05 3656.75,-74.42"/>
<polygon fill="midnightblue" stroke="midnightblue" points="2004.67,-117.62 1994.66,-121.08 2004.64,-124.62 2004.67,-117.62"/>
</g>
<!-- Node50 -->
<g id="node48" class="node">
<title>Node50</title>
<g id="a_node48"><a xlink:href="vision_8c.html" target="_top" xlink:title=" ">
<polygon fill="white" stroke="black" points="3727,-56.5 3727,-75.5 3781,-75.5 3781,-56.5 3727,-56.5"/>
<text text-anchor="middle" x="3754" y="-63.5" font-family="FreeSans" font-size="10.00">vision.c</text>
</a>
</g>
</g>
<!-- Node1&#45;&gt;Node50 -->
<g id="edge47" class="edge">
<title>Node1&#45;&gt;Node50</title>
<path fill="none" stroke="midnightblue" d="M2004.7,-121.13C2208.46,-121.83 3368.07,-123.67 3718,-76 3720.94,-75.6 3723.98,-75.05 3727,-74.43"/>
<polygon fill="midnightblue" stroke="midnightblue" points="2004.71,-117.63 1994.69,-121.09 2004.68,-124.63 2004.71,-117.63"/>
</g>
<!-- Node51 -->
<g id="node49" class="node">
<title>Node51</title>
<g id="a_node49"><a xlink:href="visual-effects_8c.html" target="_top" xlink:title=" ">
<polygon fill="white" stroke="black" points="3799.5,-56.5 3799.5,-75.5 3890.5,-75.5 3890.5,-56.5 3799.5,-56.5"/>
<text text-anchor="middle" x="3845" y="-63.5" font-family="FreeSans" font-size="10.00">visual&#45;effects.c</text>
</a>
</g>
</g>
<!-- Node1&#45;&gt;Node51 -->
<g id="edge48" class="edge">
<title>Node1&#45;&gt;Node51</title>
<path fill="none" stroke="midnightblue" d="M2004.93,-120.82C2214.02,-119.48 3423.3,-110.38 3790,-76 3793.08,-75.71 3796.25,-75.35 3799.44,-74.95"/>
<polygon fill="midnightblue" stroke="midnightblue" points="2004.66,-117.32 1994.68,-120.88 2004.7,-124.32 2004.66,-117.32"/>
</g>
<!-- Node52 -->
<g id="node50" class="node">
<title>Node52</title>
<g id="a_node50"><a xlink:href="xwindow_8c.html" target="_top" xlink:title=" ">
<polygon fill="white" stroke="black" points="3909,-56.5 3909,-75.5 3977,-75.5 3977,-56.5 3909,-56.5"/>
<text text-anchor="middle" x="3943" y="-63.5" font-family="FreeSans" font-size="10.00">xwindow.c</text>
</a>
</g>
</g>
<!-- Node1&#45;&gt;Node52 -->
<g id="edge49" class="edge">
<title>Node1&#45;&gt;Node52</title>
<path fill="none" stroke="midnightblue" d="M2004.79,-121.05C2220.75,-121.31 3510.76,-120.9 3900,-76 3902.88,-75.67 3905.85,-75.24 3908.82,-74.74"/>
<polygon fill="midnightblue" stroke="midnightblue" points="2004.79,-117.55 1994.79,-121.04 2004.78,-124.55 2004.79,-117.55"/>
</g>
<!-- Node3 -->
<g id="node3" class="node">
<title>Node3</title>
<g id="a_node3"><a xlink:href="ImageMagick_8h.html" target="_top" xlink:title=" ">
<polygon fill="white" stroke="black" points="0,-0.5 0,-19.5 92,-19.5 92,-0.5 0,-0.5"/>
<text text-anchor="middle" x="46" y="-7.5" font-family="FreeSans" font-size="10.00">ImageMagick.h</text>
</a>
</g>
</g>
<!-- Node2&#45;&gt;Node3 -->
<g id="edge2" class="edge">
<title>Node2&#45;&gt;Node3</title>
<path fill="none" stroke="midnightblue" d="M46,-45.8C46,-36.91 46,-26.78 46,-19.75"/>
<polygon fill="midnightblue" stroke="midnightblue" points="42.5,-46.08 46,-56.08 49.5,-46.08 42.5,-46.08"/>
</g>
</g>
</svg>
