<?xml version="1.0" encoding="UTF-8" standalone="no"?>
<!DOCTYPE svg PUBLIC "-//W3C//DTD SVG 1.1//EN"
 "http://www.w3.org/Graphics/SVG/1.1/DTD/svg11.dtd">
<!-- Generated by graphviz version 2.43.0 (0)
 -->
<!-- Title: list.c Pages: 1 -->
<svg width="2731pt" height="308pt"
 viewBox="0.00 0.00 2731.00 308.00" xmlns="http://www.w3.org/2000/svg" xmlns:xlink="http://www.w3.org/1999/xlink">
<g id="graph0" class="graph" transform="scale(1 1) rotate(0) translate(4 304)">
<title>list.c</title>
<polygon fill="white" stroke="transparent" points="-4,4 -4,-304 2727,-304 2727,4 -4,4"/>
<!-- Node1 -->
<g id="node1" class="node">
<title>Node1</title>
<g id="a_node1"><a xlink:title=" ">
<polygon fill="#bfbfbf" stroke="black" points="1118.5,-280.5 1118.5,-299.5 1158.5,-299.5 1158.5,-280.5 1118.5,-280.5"/>
<text text-anchor="middle" x="1138.5" y="-287.5" font-family="FreeSans" font-size="10.00">list.c</text>
</a>
</g>
</g>
<!-- Node2 -->
<g id="node2" class="node">
<title>Node2</title>
<g id="a_node2"><a xlink:href="studio_8h.html" target="_top" xlink:title=" ">
<polygon fill="white" stroke="black" points="1819,-224.5 1819,-243.5 1914,-243.5 1914,-224.5 1819,-224.5"/>
<text text-anchor="middle" x="1866.5" y="-231.5" font-family="FreeSans" font-size="10.00">magick/studio.h</text>
</a>
</g>
</g>
<!-- Node1&#45;&gt;Node2 -->
<g id="edge1" class="edge">
<title>Node1&#45;&gt;Node2</title>
<path fill="none" stroke="midnightblue" d="M1158.73,-287.5C1253.74,-280.45 1657.38,-250.51 1808.8,-239.28"/>
<polygon fill="midnightblue" stroke="midnightblue" points="1809.12,-242.77 1818.84,-238.54 1808.6,-235.78 1809.12,-242.77"/>
</g>
<!-- Node24 -->
<g id="node24" class="node">
<title>Node24</title>
<g id="a_node24"><a xlink:href="artifact_8h.html" target="_top" xlink:title=" ">
<polygon fill="white" stroke="black" points="1932.5,-224.5 1932.5,-243.5 2032.5,-243.5 2032.5,-224.5 1932.5,-224.5"/>
<text text-anchor="middle" x="1982.5" y="-231.5" font-family="FreeSans" font-size="10.00">magick/artifact.h</text>
</a>
</g>
</g>
<!-- Node1&#45;&gt;Node24 -->
<g id="edge24" class="edge">
<title>Node1&#45;&gt;Node24</title>
<path fill="none" stroke="midnightblue" d="M1158.57,-288.54C1247.16,-286.39 1612.1,-276 1922.25,-244.03"/>
<polygon fill="midnightblue" stroke="midnightblue" points="1922.75,-247.5 1932.33,-242.98 1922.02,-240.54 1922.75,-247.5"/>
</g>
<!-- Node25 -->
<g id="node25" class="node">
<title>Node25</title>
<g id="a_node25"><a xlink:href="blob_8h.html" target="_top" xlink:title=" ">
<polygon fill="white" stroke="black" points="968.5,-224.5 968.5,-243.5 1054.5,-243.5 1054.5,-224.5 968.5,-224.5"/>
<text text-anchor="middle" x="1011.5" y="-231.5" font-family="FreeSans" font-size="10.00">magick/blob.h</text>
</a>
</g>
</g>
<!-- Node1&#45;&gt;Node25 -->
<g id="edge25" class="edge">
<title>Node1&#45;&gt;Node25</title>
<path fill="none" stroke="midnightblue" d="M1118.38,-280.44C1097.48,-271.56 1064.57,-257.56 1040.78,-247.45"/>
<polygon fill="midnightblue" stroke="midnightblue" points="1042.1,-244.21 1031.53,-243.52 1039.36,-250.65 1042.1,-244.21"/>
</g>
<!-- Node31 -->
<g id="node28" class="node">
<title>Node31</title>
<g id="a_node28"><a xlink:href="exception_8h.html" target="_top" xlink:title=" ">
<polygon fill="white" stroke="black" points="196,-56.5 196,-75.5 309,-75.5 309,-56.5 196,-56.5"/>
<text text-anchor="middle" x="252.5" y="-63.5" font-family="FreeSans" font-size="10.00">magick/exception.h</text>
</a>
</g>
</g>
<!-- Node1&#45;&gt;Node31 -->
<g id="edge49" class="edge">
<title>Node1&#45;&gt;Node31</title>
<path fill="none" stroke="midnightblue" d="M1118.43,-288.29C1053.64,-285.72 844.42,-275.38 674.5,-244 490.01,-209.93 397.37,-267.4 267.5,-132 255.86,-119.86 252.6,-100.59 251.96,-86.17"/>
<polygon fill="midnightblue" stroke="midnightblue" points="255.45,-85.86 251.89,-75.88 248.45,-85.9 255.45,-85.86"/>
</g>
<!-- Node51 -->
<g id="node40" class="node">
<title>Node51</title>
<g id="a_node40"><a xlink:href="blob-private_8h.html" target="_top" xlink:title=" ">
<polygon fill="white" stroke="black" points="683.5,-224.5 683.5,-243.5 807.5,-243.5 807.5,-224.5 683.5,-224.5"/>
<text text-anchor="middle" x="745.5" y="-231.5" font-family="FreeSans" font-size="10.00">magick/blob&#45;private.h</text>
</a>
</g>
</g>
<!-- Node1&#45;&gt;Node51 -->
<g id="edge44" class="edge">
<title>Node1&#45;&gt;Node51</title>
<path fill="none" stroke="midnightblue" d="M1118.47,-286.25C1063.74,-278.73 909.64,-257.55 817.54,-244.9"/>
<polygon fill="midnightblue" stroke="midnightblue" points="817.83,-241.41 807.45,-243.51 816.88,-248.34 817.83,-241.41"/>
</g>
<!-- Node56 -->
<g id="node42" class="node">
<title>Node56</title>
<g id="a_node42"><a xlink:href="exception-private_8h.html" target="_top" xlink:title=" ">
<polygon fill="white" stroke="black" points="0,-168.5 0,-187.5 151,-187.5 151,-168.5 0,-168.5"/>
<text text-anchor="middle" x="75.5" y="-175.5" font-family="FreeSans" font-size="10.00">magick/exception&#45;private.h</text>
</a>
</g>
</g>
<!-- Node1&#45;&gt;Node56 -->
<g id="edge50" class="edge">
<title>Node1&#45;&gt;Node56</title>
<path fill="none" stroke="midnightblue" d="M1118.24,-288.62C988.67,-286.14 278.7,-271.36 186.5,-244 151.09,-233.49 115.11,-209.44 94.07,-193.72"/>
<polygon fill="midnightblue" stroke="midnightblue" points="96.08,-190.85 86.01,-187.56 91.83,-196.41 96.08,-190.85"/>
</g>
<!-- Node44 -->
<g id="node45" class="node">
<title>Node44</title>
<g id="a_node45"><a xlink:href="string___8h.html" target="_top" xlink:title=" ">
<polygon fill="white" stroke="black" points="122.5,-112.5 122.5,-131.5 220.5,-131.5 220.5,-112.5 122.5,-112.5"/>
<text text-anchor="middle" x="171.5" y="-119.5" font-family="FreeSans" font-size="10.00">magick/string_.h</text>
</a>
</g>
</g>
<!-- Node1&#45;&gt;Node44 -->
<g id="edge66" class="edge">
<title>Node1&#45;&gt;Node44</title>
<path fill="none" stroke="midnightblue" d="M1118.18,-289.18C991.33,-290.18 311.22,-293.2 234.5,-244 198.23,-220.74 181.69,-169.43 175.16,-141.68"/>
<polygon fill="midnightblue" stroke="midnightblue" points="178.54,-140.73 173,-131.69 171.69,-142.21 178.54,-140.73"/>
</g>
<!-- Node59 -->
<g id="node46" class="node">
<title>Node59</title>
<g id="a_node46"><a xlink:href="image-private_8h.html" target="_top" xlink:title=" ">
<polygon fill="white" stroke="black" points="2050.5,-224.5 2050.5,-243.5 2184.5,-243.5 2184.5,-224.5 2050.5,-224.5"/>
<text text-anchor="middle" x="2117.5" y="-231.5" font-family="FreeSans" font-size="10.00">magick/image&#45;private.h</text>
</a>
</g>
</g>
<!-- Node1&#45;&gt;Node59 -->
<g id="edge61" class="edge">
<title>Node1&#45;&gt;Node59</title>
<path fill="none" stroke="midnightblue" d="M1158.55,-288.51C1254.94,-286.03 1680.4,-273.9 2040.3,-244.04"/>
<polygon fill="midnightblue" stroke="midnightblue" points="2040.71,-247.52 2050.39,-243.2 2040.13,-240.54 2040.71,-247.52"/>
</g>
<!-- Node60 -->
<g id="node47" class="node">
<title>Node60</title>
<g id="a_node47"><a xlink:href="list_8h.html" target="_top" xlink:title=" ">
<polygon fill="white" stroke="black" points="2202.5,-224.5 2202.5,-243.5 2282.5,-243.5 2282.5,-224.5 2202.5,-224.5"/>
<text text-anchor="middle" x="2242.5" y="-231.5" font-family="FreeSans" font-size="10.00">magick/list.h</text>
</a>
</g>
</g>
<!-- Node1&#45;&gt;Node60 -->
<g id="edge62" class="edge">
<title>Node1&#45;&gt;Node60</title>
<path fill="none" stroke="midnightblue" d="M1158.7,-289.18C1264.96,-289.92 1770.16,-290.76 2192.5,-243.94"/>
<polygon fill="midnightblue" stroke="midnightblue" points="2192.91,-247.41 2202.46,-242.82 2192.13,-240.46 2192.91,-247.41"/>
</g>
<!-- Node61 -->
<g id="node48" class="node">
<title>Node61</title>
<g id="a_node48"><a xlink:href="memory___8h.html" target="_top" xlink:title=" ">
<polygon fill="white" stroke="black" points="1222,-224.5 1222,-243.5 1333,-243.5 1333,-224.5 1222,-224.5"/>
<text text-anchor="middle" x="1277.5" y="-231.5" font-family="FreeSans" font-size="10.00">magick/memory_.h</text>
</a>
</g>
</g>
<!-- Node1&#45;&gt;Node61 -->
<g id="edge63" class="edge">
<title>Node1&#45;&gt;Node61</title>
<path fill="none" stroke="midnightblue" d="M1158.71,-281.15C1181.55,-272.28 1219,-257.73 1245.75,-247.33"/>
<polygon fill="midnightblue" stroke="midnightblue" points="1247.37,-250.46 1255.43,-243.58 1244.84,-243.93 1247.37,-250.46"/>
</g>
<!-- Node62 -->
<g id="node49" class="node">
<title>Node62</title>
<g id="a_node49"><a xlink:href="string-private_8h.html" target="_top" xlink:title=" ">
<polygon fill="white" stroke="black" points="1073,-224.5 1073,-243.5 1204,-243.5 1204,-224.5 1073,-224.5"/>
<text text-anchor="middle" x="1138.5" y="-231.5" font-family="FreeSans" font-size="10.00">magick/string&#45;private.h</text>
</a>
</g>
</g>
<!-- Node1&#45;&gt;Node62 -->
<g id="edge67" class="edge">
<title>Node1&#45;&gt;Node62</title>
<path fill="none" stroke="midnightblue" d="M1138.5,-280.08C1138.5,-273.01 1138.5,-262.86 1138.5,-253.99"/>
<polygon fill="midnightblue" stroke="midnightblue" points="1142,-253.75 1138.5,-243.75 1135,-253.75 1142,-253.75"/>
</g>
<!-- Node3 -->
<g id="node3" class="node">
<title>Node3</title>
<g id="a_node3"><a xlink:href="magick-config_8h.html" target="_top" xlink:title=" ">
<polygon fill="white" stroke="black" points="2096.5,-112.5 2096.5,-131.5 2230.5,-131.5 2230.5,-112.5 2096.5,-112.5"/>
<text text-anchor="middle" x="2163.5" y="-119.5" font-family="FreeSans" font-size="10.00">magick/magick&#45;config.h</text>
</a>
</g>
</g>
<!-- Node2&#45;&gt;Node3 -->
<g id="edge2" class="edge">
<title>Node2&#45;&gt;Node3</title>
<path fill="none" stroke="midnightblue" d="M1914.07,-225.38C1917.26,-224.91 1920.43,-224.44 1923.5,-224 1985.6,-215.11 2162.06,-235.1 2203.5,-188 2217.06,-172.58 2199.54,-152.01 2183.6,-138.17"/>
<polygon fill="midnightblue" stroke="midnightblue" points="2185.54,-135.24 2175.59,-131.61 2181.11,-140.66 2185.54,-135.24"/>
</g>
<!-- Node5 -->
<g id="node5" class="node">
<title>Node5</title>
<g id="a_node5"><a xlink:title=" ">
<polygon fill="white" stroke="#bfbfbf" points="128.5,-0.5 128.5,-19.5 184.5,-19.5 184.5,-0.5 128.5,-0.5"/>
<text text-anchor="middle" x="156.5" y="-7.5" font-family="FreeSans" font-size="10.00">stdarg.h</text>
</a>
</g>
</g>
<!-- Node2&#45;&gt;Node5 -->
<g id="edge4" class="edge">
<title>Node2&#45;&gt;Node5</title>
<path fill="none" stroke="midnightblue" d="M1818.66,-232.18C1701.36,-229.67 1406.87,-220.2 1377.5,-188 1246.71,-44.62 1940.77,-253.08 1807.5,-112 1686.2,16.41 414.43,-44.34 194.89,-19.73"/>
<polygon fill="midnightblue" stroke="midnightblue" points="195.04,-16.22 184.68,-18.41 194.15,-23.17 195.04,-16.22"/>
</g>
<!-- Node6 -->
<g id="node6" class="node">
<title>Node6</title>
<g id="a_node6"><a xlink:title=" ">
<polygon fill="white" stroke="#bfbfbf" points="2250.5,-168.5 2250.5,-187.5 2300.5,-187.5 2300.5,-168.5 2250.5,-168.5"/>
<text text-anchor="middle" x="2275.5" y="-175.5" font-family="FreeSans" font-size="10.00">stdio.h</text>
</a>
</g>
</g>
<!-- Node2&#45;&gt;Node6 -->
<g id="edge5" class="edge">
<title>Node2&#45;&gt;Node6</title>
<path fill="none" stroke="midnightblue" d="M1914.06,-225.34C1917.25,-224.87 1920.42,-224.42 1923.5,-224 2062.24,-205.08 2098.51,-211.78 2236.5,-188 2237.77,-187.78 2239.06,-187.55 2240.37,-187.3"/>
<polygon fill="midnightblue" stroke="midnightblue" points="2241.32,-190.68 2250.41,-185.23 2239.91,-183.82 2241.32,-190.68"/>
</g>
<!-- Node7 -->
<g id="node7" class="node">
<title>Node7</title>
<g id="a_node7"><a xlink:title=" ">
<polygon fill="white" stroke="#bfbfbf" points="2319,-168.5 2319,-187.5 2372,-187.5 2372,-168.5 2319,-168.5"/>
<text text-anchor="middle" x="2345.5" y="-175.5" font-family="FreeSans" font-size="10.00">ctype.h</text>
</a>
</g>
</g>
<!-- Node2&#45;&gt;Node7 -->
<g id="edge6" class="edge">
<title>Node2&#45;&gt;Node7</title>
<path fill="none" stroke="midnightblue" d="M1914.05,-225.26C1917.25,-224.81 1920.42,-224.39 1923.5,-224 2091.2,-202.96 2137.89,-216.44 2308.77,-187.85"/>
<polygon fill="midnightblue" stroke="midnightblue" points="2309.59,-191.26 2318.86,-186.14 2308.41,-184.36 2309.59,-191.26"/>
</g>
<!-- Node8 -->
<g id="node8" class="node">
<title>Node8</title>
<g id="a_node8"><a xlink:title=" ">
<polygon fill="white" stroke="#bfbfbf" points="2390,-168.5 2390,-187.5 2445,-187.5 2445,-168.5 2390,-168.5"/>
<text text-anchor="middle" x="2417.5" y="-175.5" font-family="FreeSans" font-size="10.00">locale.h</text>
</a>
</g>
</g>
<!-- Node2&#45;&gt;Node8 -->
<g id="edge7" class="edge">
<title>Node2&#45;&gt;Node8</title>
<path fill="none" stroke="midnightblue" d="M1914.05,-225.21C1917.24,-224.77 1920.42,-224.36 1923.5,-224 2123.01,-200.44 2178.21,-220.22 2379.67,-188.06"/>
<polygon fill="midnightblue" stroke="midnightblue" points="2380.38,-191.49 2389.69,-186.44 2379.26,-184.58 2380.38,-191.49"/>
</g>
<!-- Node9 -->
<g id="node9" class="node">
<title>Node9</title>
<g id="a_node9"><a xlink:title=" ">
<polygon fill="white" stroke="#bfbfbf" points="1205,-168.5 1205,-187.5 1256,-187.5 1256,-168.5 1205,-168.5"/>
<text text-anchor="middle" x="1230.5" y="-175.5" font-family="FreeSans" font-size="10.00">errno.h</text>
</a>
</g>
</g>
<!-- Node2&#45;&gt;Node9 -->
<g id="edge8" class="edge">
<title>Node2&#45;&gt;Node9</title>
<path fill="none" stroke="midnightblue" d="M1818.63,-232.28C1718,-230.16 1477.09,-221.84 1266.03,-187.76"/>
<polygon fill="midnightblue" stroke="midnightblue" points="1266.44,-184.28 1256,-186.11 1265.31,-191.18 1266.44,-184.28"/>
</g>
<!-- Node10 -->
<g id="node10" class="node">
<title>Node10</title>
<g id="a_node10"><a xlink:title=" ">
<polygon fill="white" stroke="#bfbfbf" points="2463,-168.5 2463,-187.5 2510,-187.5 2510,-168.5 2463,-168.5"/>
<text text-anchor="middle" x="2486.5" y="-175.5" font-family="FreeSans" font-size="10.00">fcntl.h</text>
</a>
</g>
</g>
<!-- Node2&#45;&gt;Node10 -->
<g id="edge9" class="edge">
<title>Node2&#45;&gt;Node10</title>
<path fill="none" stroke="midnightblue" d="M1914.04,-225.17C1917.24,-224.74 1920.41,-224.35 1923.5,-224 2155.23,-197.9 2219.59,-227.38 2452.71,-187.98"/>
<polygon fill="midnightblue" stroke="midnightblue" points="2453.59,-191.38 2462.86,-186.24 2452.41,-184.48 2453.59,-191.38"/>
</g>
<!-- Node11 -->
<g id="node11" class="node">
<title>Node11</title>
<g id="a_node11"><a xlink:title=" ">
<polygon fill="white" stroke="#bfbfbf" points="2528,-168.5 2528,-187.5 2579,-187.5 2579,-168.5 2528,-168.5"/>
<text text-anchor="middle" x="2553.5" y="-175.5" font-family="FreeSans" font-size="10.00">math.h</text>
</a>
</g>
</g>
<!-- Node2&#45;&gt;Node11 -->
<g id="edge10" class="edge">
<title>Node2&#45;&gt;Node11</title>
<path fill="none" stroke="midnightblue" d="M1914.04,-225.14C1917.24,-224.72 1920.41,-224.34 1923.5,-224 2183.96,-195.64 2255.69,-229.29 2517.79,-187.96"/>
<polygon fill="midnightblue" stroke="midnightblue" points="2518.67,-191.37 2528,-186.33 2517.57,-184.45 2518.67,-191.37"/>
</g>
<!-- Node12 -->
<g id="node12" class="node">
<title>Node12</title>
<g id="a_node12"><a xlink:title=" ">
<polygon fill="white" stroke="#bfbfbf" points="1988.5,-56.5 1988.5,-75.5 2036.5,-75.5 2036.5,-56.5 1988.5,-56.5"/>
<text text-anchor="middle" x="2012.5" y="-63.5" font-family="FreeSans" font-size="10.00">time.h</text>
</a>
</g>
</g>
<!-- Node2&#45;&gt;Node12 -->
<g id="edge11" class="edge">
<title>Node2&#45;&gt;Node12</title>
<path fill="none" stroke="midnightblue" d="M1914.15,-225.55C1954.74,-218.12 2008.5,-205.31 2021.5,-188 2044.18,-157.8 2030.68,-110.55 2020.55,-84.94"/>
<polygon fill="midnightblue" stroke="midnightblue" points="2023.76,-83.56 2016.66,-75.7 2017.31,-86.27 2023.76,-83.56"/>
</g>
<!-- Node13 -->
<g id="node13" class="node">
<title>Node13</title>
<g id="a_node13"><a xlink:title=" ">
<polygon fill="white" stroke="#bfbfbf" points="2597,-168.5 2597,-187.5 2650,-187.5 2650,-168.5 2597,-168.5"/>
<text text-anchor="middle" x="2623.5" y="-175.5" font-family="FreeSans" font-size="10.00">limits.h</text>
</a>
</g>
</g>
<!-- Node2&#45;&gt;Node13 -->
<g id="edge12" class="edge">
<title>Node2&#45;&gt;Node13</title>
<path fill="none" stroke="midnightblue" d="M1914.04,-225.12C1917.24,-224.71 1920.41,-224.33 1923.5,-224 2214.54,-193.23 2294.18,-232.18 2586.81,-187.97"/>
<polygon fill="midnightblue" stroke="midnightblue" points="2587.5,-191.4 2596.86,-186.43 2586.45,-184.48 2587.5,-191.4"/>
</g>
<!-- Node14 -->
<g id="node14" class="node">
<title>Node14</title>
<g id="a_node14"><a xlink:title=" ">
<polygon fill="white" stroke="#bfbfbf" points="2668,-168.5 2668,-187.5 2723,-187.5 2723,-168.5 2668,-168.5"/>
<text text-anchor="middle" x="2695.5" y="-175.5" font-family="FreeSans" font-size="10.00">signal.h</text>
</a>
</g>
</g>
<!-- Node2&#45;&gt;Node14 -->
<g id="edge13" class="edge">
<title>Node2&#45;&gt;Node14</title>
<path fill="none" stroke="midnightblue" d="M1914.04,-225.1C1917.23,-224.69 1920.41,-224.32 1923.5,-224 2245.93,-190.76 2333.73,-235.02 2657.56,-188.01"/>
<polygon fill="midnightblue" stroke="midnightblue" points="2658.32,-191.44 2667.7,-186.52 2657.3,-184.51 2658.32,-191.44"/>
</g>
<!-- Node15 -->
<g id="node15" class="node">
<title>Node15</title>
<g id="a_node15"><a xlink:title=" ">
<polygon fill="white" stroke="#bfbfbf" points="1274.5,-168.5 1274.5,-187.5 1330.5,-187.5 1330.5,-168.5 1274.5,-168.5"/>
<text text-anchor="middle" x="1302.5" y="-175.5" font-family="FreeSans" font-size="10.00">assert.h</text>
</a>
</g>
</g>
<!-- Node2&#45;&gt;Node15 -->
<g id="edge14" class="edge">
<title>Node2&#45;&gt;Node15</title>
<path fill="none" stroke="midnightblue" d="M1818.76,-230.89C1726.65,-226.36 1518.12,-213.98 1344.5,-188 1343.26,-187.81 1341.99,-187.61 1340.72,-187.4"/>
<polygon fill="midnightblue" stroke="midnightblue" points="1341.35,-183.96 1330.88,-185.58 1340.08,-190.84 1341.35,-183.96"/>
</g>
<!-- Node16 -->
<g id="node16" class="node">
<title>Node16</title>
<g id="a_node16"><a xlink:href="method-attribute_8h.html" target="_top" xlink:title=" ">
<polygon fill="white" stroke="black" points="1386.5,-168.5 1386.5,-187.5 1534.5,-187.5 1534.5,-168.5 1386.5,-168.5"/>
<text text-anchor="middle" x="1460.5" y="-175.5" font-family="FreeSans" font-size="10.00">magick/method&#45;attribute.h</text>
</a>
</g>
</g>
<!-- Node2&#45;&gt;Node16 -->
<g id="edge15" class="edge">
<title>Node2&#45;&gt;Node16</title>
<path fill="none" stroke="midnightblue" d="M1818.73,-226.65C1748.61,-217.32 1617.18,-199.84 1534.5,-188.84"/>
<polygon fill="midnightblue" stroke="midnightblue" points="1534.79,-185.35 1524.41,-187.5 1533.86,-192.29 1534.79,-185.35"/>
</g>
<!-- Node17 -->
<g id="node17" class="node">
<title>Node17</title>
<g id="a_node17"><a xlink:title=" ">
<polygon fill="white" stroke="#bfbfbf" points="1552.5,-168.5 1552.5,-187.5 1624.5,-187.5 1624.5,-168.5 1552.5,-168.5"/>
<text text-anchor="middle" x="1588.5" y="-175.5" font-family="FreeSans" font-size="10.00">sys/types.h</text>
</a>
</g>
</g>
<!-- Node2&#45;&gt;Node17 -->
<g id="edge16" class="edge">
<title>Node2&#45;&gt;Node17</title>
<path fill="none" stroke="midnightblue" d="M1821.82,-224.46C1777.01,-215.88 1705.75,-202.17 1634.85,-188.26"/>
<polygon fill="midnightblue" stroke="midnightblue" points="1635.33,-184.78 1624.85,-186.29 1633.98,-191.65 1635.33,-184.78"/>
</g>
<!-- Node18 -->
<g id="node18" class="node">
<title>Node18</title>
<g id="a_node18"><a xlink:title=" ">
<polygon fill="white" stroke="#bfbfbf" points="1642.5,-168.5 1642.5,-187.5 1706.5,-187.5 1706.5,-168.5 1642.5,-168.5"/>
<text text-anchor="middle" x="1674.5" y="-175.5" font-family="FreeSans" font-size="10.00">sys/stat.h</text>
</a>
</g>
</g>
<!-- Node2&#45;&gt;Node18 -->
<g id="edge17" class="edge">
<title>Node2&#45;&gt;Node18</title>
<path fill="none" stroke="midnightblue" d="M1836.08,-224.44C1803.22,-215.2 1750.72,-200.44 1714.53,-190.26"/>
<polygon fill="midnightblue" stroke="midnightblue" points="1715.35,-186.85 1704.78,-187.52 1713.46,-193.59 1715.35,-186.85"/>
</g>
<!-- Node19 -->
<g id="node19" class="node">
<title>Node19</title>
<g id="a_node19"><a xlink:title=" ">
<polygon fill="white" stroke="#bfbfbf" points="1724.5,-168.5 1724.5,-187.5 1778.5,-187.5 1778.5,-168.5 1724.5,-168.5"/>
<text text-anchor="middle" x="1751.5" y="-175.5" font-family="FreeSans" font-size="10.00">dirent.h</text>
</a>
</g>
</g>
<!-- Node2&#45;&gt;Node19 -->
<g id="edge18" class="edge">
<title>Node2&#45;&gt;Node19</title>
<path fill="none" stroke="midnightblue" d="M1848.28,-224.44C1829.6,-215.68 1800.34,-201.94 1778.88,-191.86"/>
<polygon fill="midnightblue" stroke="midnightblue" points="1780.18,-188.6 1769.64,-187.52 1777.2,-194.93 1780.18,-188.6"/>
</g>
<!-- Node20 -->
<g id="node20" class="node">
<title>Node20</title>
<g id="a_node20"><a xlink:title=" ">
<polygon fill="white" stroke="#bfbfbf" points="1796.5,-168.5 1796.5,-187.5 1862.5,-187.5 1862.5,-168.5 1796.5,-168.5"/>
<text text-anchor="middle" x="1829.5" y="-175.5" font-family="FreeSans" font-size="10.00">sys/wait.h</text>
</a>
</g>
</g>
<!-- Node2&#45;&gt;Node20 -->
<g id="edge19" class="edge">
<title>Node2&#45;&gt;Node20</title>
<path fill="none" stroke="midnightblue" d="M1860.39,-224.08C1855.22,-216.53 1847.65,-205.49 1841.31,-196.23"/>
<polygon fill="midnightblue" stroke="midnightblue" points="1844.04,-194.02 1835.5,-187.75 1838.26,-197.98 1844.04,-194.02"/>
</g>
<!-- Node21 -->
<g id="node21" class="node">
<title>Node21</title>
<g id="a_node21"><a xlink:title=" ">
<polygon fill="white" stroke="#bfbfbf" points="1880.5,-168.5 1880.5,-187.5 1926.5,-187.5 1926.5,-168.5 1880.5,-168.5"/>
<text text-anchor="middle" x="1903.5" y="-175.5" font-family="FreeSans" font-size="10.00">pwd.h</text>
</a>
</g>
</g>
<!-- Node2&#45;&gt;Node21 -->
<g id="edge20" class="edge">
<title>Node2&#45;&gt;Node21</title>
<path fill="none" stroke="midnightblue" d="M1872.61,-224.08C1877.78,-216.53 1885.35,-205.49 1891.69,-196.23"/>
<polygon fill="midnightblue" stroke="midnightblue" points="1894.74,-197.98 1897.5,-187.75 1888.96,-194.02 1894.74,-197.98"/>
</g>
<!-- Node22 -->
<g id="node22" class="node">
<title>Node22</title>
<g id="a_node22"><a xlink:href="magick-type_8h.html" target="_top" xlink:title=" ">
<polygon fill="white" stroke="black" points="2068.5,-168.5 2068.5,-187.5 2194.5,-187.5 2194.5,-168.5 2068.5,-168.5"/>
<text text-anchor="middle" x="2131.5" y="-175.5" font-family="FreeSans" font-size="10.00">magick/magick&#45;type.h</text>
</a>
</g>
</g>
<!-- Node2&#45;&gt;Node22 -->
<g id="edge21" class="edge">
<title>Node2&#45;&gt;Node22</title>
<path fill="none" stroke="midnightblue" d="M1908.49,-224.44C1954.91,-214.98 2029.73,-199.74 2079.74,-189.55"/>
<polygon fill="midnightblue" stroke="midnightblue" points="2080.61,-192.94 2089.71,-187.52 2079.21,-186.08 2080.61,-192.94"/>
</g>
<!-- Node23 -->
<g id="node23" class="node">
<title>Node23</title>
<g id="a_node23"><a xlink:title=" ">
<polygon fill="white" stroke="#bfbfbf" points="1944.5,-168.5 1944.5,-187.5 2012.5,-187.5 2012.5,-168.5 1944.5,-168.5"/>
<text text-anchor="middle" x="1978.5" y="-175.5" font-family="FreeSans" font-size="10.00">sys/time.h</text>
</a>
</g>
</g>
<!-- Node2&#45;&gt;Node23 -->
<g id="edge23" class="edge">
<title>Node2&#45;&gt;Node23</title>
<path fill="none" stroke="midnightblue" d="M1884.49,-224.32C1902.54,-215.62 1930.55,-202.12 1951.3,-192.11"/>
<polygon fill="midnightblue" stroke="midnightblue" points="1953.06,-195.15 1960.55,-187.65 1950.02,-188.84 1953.06,-195.15"/>
</g>
<!-- Node4 -->
<g id="node4" class="node">
<title>Node4</title>
<g id="a_node4"><a xlink:href="magick-baseconfig_8h.html" target="_top" xlink:title=" ">
<polygon fill="white" stroke="black" points="2085,-56.5 2085,-75.5 2242,-75.5 2242,-56.5 2085,-56.5"/>
<text text-anchor="middle" x="2163.5" y="-63.5" font-family="FreeSans" font-size="10.00">magick/magick&#45;baseconfig.h</text>
</a>
</g>
</g>
<!-- Node3&#45;&gt;Node4 -->
<g id="edge3" class="edge">
<title>Node3&#45;&gt;Node4</title>
<path fill="none" stroke="midnightblue" d="M2163.5,-112.08C2163.5,-105.01 2163.5,-94.86 2163.5,-85.99"/>
<polygon fill="midnightblue" stroke="midnightblue" points="2167,-85.75 2163.5,-75.75 2160,-85.75 2167,-85.75"/>
</g>
<!-- Node22&#45;&gt;Node3 -->
<g id="edge22" class="edge">
<title>Node22&#45;&gt;Node3</title>
<path fill="none" stroke="midnightblue" d="M2136.78,-168.08C2141.21,-160.61 2147.66,-149.72 2153.12,-140.52"/>
<polygon fill="midnightblue" stroke="midnightblue" points="2156.23,-142.14 2158.31,-131.75 2150.21,-138.57 2156.23,-142.14"/>
</g>
<!-- Node26 -->
<g id="node26" class="node">
<title>Node26</title>
<g id="a_node26"><a xlink:href="image_8h.html" target="_top" xlink:title=" ">
<polygon fill="white" stroke="red" points="964,-168.5 964,-187.5 1059,-187.5 1059,-168.5 964,-168.5"/>
<text text-anchor="middle" x="1011.5" y="-175.5" font-family="FreeSans" font-size="10.00">magick/image.h</text>
</a>
</g>
</g>
<!-- Node25&#45;&gt;Node26 -->
<g id="edge26" class="edge">
<title>Node25&#45;&gt;Node26</title>
<path fill="none" stroke="midnightblue" d="M1006.33,-224.08C1004.82,-216.93 1004.39,-206.64 1005.04,-197.69"/>
<polygon fill="midnightblue" stroke="midnightblue" points="1008.52,-198.13 1006.37,-187.75 1001.58,-197.2 1008.52,-198.13"/>
</g>
<!-- Node49 -->
<g id="node39" class="node">
<title>Node49</title>
<g id="a_node39"><a xlink:href="stream_8h.html" target="_top" xlink:title=" ">
<polygon fill="white" stroke="black" points="435,-112.5 435,-131.5 534,-131.5 534,-112.5 435,-112.5"/>
<text text-anchor="middle" x="484.5" y="-119.5" font-family="FreeSans" font-size="10.00">magick/stream.h</text>
</a>
</g>
</g>
<!-- Node25&#45;&gt;Node49 -->
<g id="edge43" class="edge">
<title>Node25&#45;&gt;Node49</title>
<path fill="none" stroke="midnightblue" d="M970.59,-224.46C875.45,-204.6 639.54,-155.36 535.35,-133.61"/>
<polygon fill="midnightblue" stroke="midnightblue" points="535.89,-130.15 525.39,-131.53 534.46,-137 535.89,-130.15"/>
</g>
<!-- Node26&#45;&gt;Node25 -->
<g id="edge31" class="edge">
<title>Node26&#45;&gt;Node25</title>
<path fill="none" stroke="midnightblue" d="M1016.63,-187.75C1018.16,-194.86 1018.6,-205.14 1017.97,-214.1"/>
<polygon fill="midnightblue" stroke="midnightblue" points="1014.49,-213.71 1016.67,-224.08 1021.43,-214.62 1014.49,-213.71"/>
</g>
<!-- Node27 -->
<g id="node27" class="node">
<title>Node27</title>
<g id="a_node27"><a xlink:href="color_8h.html" target="_top" xlink:title=" ">
<polygon fill="white" stroke="red" points="907.5,-112.5 907.5,-131.5 995.5,-131.5 995.5,-112.5 907.5,-112.5"/>
<text text-anchor="middle" x="951.5" y="-119.5" font-family="FreeSans" font-size="10.00">magick/color.h</text>
</a>
</g>
</g>
<!-- Node26&#45;&gt;Node27 -->
<g id="edge27" class="edge">
<title>Node26&#45;&gt;Node27</title>
<path fill="none" stroke="midnightblue" d="M1001.86,-168.32C992.99,-160.34 979.63,-148.31 968.89,-138.65"/>
<polygon fill="midnightblue" stroke="midnightblue" points="971.09,-135.92 961.32,-131.83 966.41,-141.13 971.09,-135.92"/>
</g>
<!-- Node32 -->
<g id="node29" class="node">
<title>Node32</title>
<g id="a_node29"><a xlink:href="semaphore_8h.html" target="_top" xlink:title=" ">
<polygon fill="white" stroke="black" points="203,-0.5 203,-19.5 322,-19.5 322,-0.5 203,-0.5"/>
<text text-anchor="middle" x="262.5" y="-7.5" font-family="FreeSans" font-size="10.00">magick/semaphore.h</text>
</a>
</g>
</g>
<!-- Node26&#45;&gt;Node32 -->
<g id="edge41" class="edge">
<title>Node26&#45;&gt;Node32</title>
<path fill="none" stroke="midnightblue" d="M1059.23,-170.79C1067.96,-169.77 1076.99,-168.79 1085.5,-168 1148.25,-162.19 1608.38,-177.95 1651.5,-132 1657.58,-125.52 1657.55,-118.51 1651.5,-112 1560.97,-14.65 600.9,-10.02 332.09,-10.65"/>
<polygon fill="midnightblue" stroke="midnightblue" points="332.06,-7.15 322.07,-10.68 332.08,-14.15 332.06,-7.15"/>
</g>
<!-- Node29 -->
<g id="node30" class="node">
<title>Node29</title>
<g id="a_node30"><a xlink:href="colorspace_8h.html" target="_top" xlink:title=" ">
<polygon fill="white" stroke="black" points="1014,-112.5 1014,-131.5 1131,-131.5 1131,-112.5 1014,-112.5"/>
<text text-anchor="middle" x="1072.5" y="-119.5" font-family="FreeSans" font-size="10.00">magick/colorspace.h</text>
</a>
</g>
</g>
<!-- Node26&#45;&gt;Node29 -->
<g id="edge32" class="edge">
<title>Node26&#45;&gt;Node29</title>
<path fill="none" stroke="midnightblue" d="M1021.3,-168.32C1030.32,-160.34 1043.91,-148.31 1054.82,-138.65"/>
<polygon fill="midnightblue" stroke="midnightblue" points="1057.35,-141.08 1062.52,-131.83 1052.71,-135.84 1057.35,-141.08"/>
</g>
<!-- Node33 -->
<g id="node31" class="node">
<title>Node33</title>
<g id="a_node31"><a xlink:href="cache-view_8h.html" target="_top" xlink:title=" ">
<polygon fill="white" stroke="red" points="1149,-112.5 1149,-131.5 1268,-131.5 1268,-112.5 1149,-112.5"/>
<text text-anchor="middle" x="1208.5" y="-119.5" font-family="FreeSans" font-size="10.00">magick/cache&#45;view.h</text>
</a>
</g>
</g>
<!-- Node26&#45;&gt;Node33 -->
<g id="edge33" class="edge">
<title>Node26&#45;&gt;Node33</title>
<path fill="none" stroke="midnightblue" d="M1042.72,-168.44C1076.43,-159.2 1130.3,-144.44 1167.43,-134.26"/>
<polygon fill="midnightblue" stroke="midnightblue" points="1168.71,-137.54 1177.43,-131.52 1166.86,-130.78 1168.71,-137.54"/>
</g>
<!-- Node34 -->
<g id="node32" class="node">
<title>Node34</title>
<g id="a_node32"><a xlink:href="composite_8h.html" target="_top" xlink:title=" ">
<polygon fill="white" stroke="black" points="1286.5,-112.5 1286.5,-131.5 1402.5,-131.5 1402.5,-112.5 1286.5,-112.5"/>
<text text-anchor="middle" x="1344.5" y="-119.5" font-family="FreeSans" font-size="10.00">magick/composite.h</text>
</a>
</g>
</g>
<!-- Node26&#45;&gt;Node34 -->
<g id="edge34" class="edge">
<title>Node26&#45;&gt;Node34</title>
<path fill="none" stroke="midnightblue" d="M1059.21,-169.26C1117.76,-159.77 1217.21,-143.64 1281.87,-133.16"/>
<polygon fill="midnightblue" stroke="midnightblue" points="1282.62,-136.58 1291.93,-131.52 1281.5,-129.67 1282.62,-136.58"/>
</g>
<!-- Node35 -->
<g id="node33" class="node">
<title>Node35</title>
<g id="a_node33"><a xlink:href="compress_8h.html" target="_top" xlink:title=" ">
<polygon fill="white" stroke="black" points="1420.5,-112.5 1420.5,-131.5 1532.5,-131.5 1532.5,-112.5 1420.5,-112.5"/>
<text text-anchor="middle" x="1476.5" y="-119.5" font-family="FreeSans" font-size="10.00">magick/compress.h</text>
</a>
</g>
</g>
<!-- Node26&#45;&gt;Node35 -->
<g id="edge35" class="edge">
<title>Node26&#45;&gt;Node35</title>
<path fill="none" stroke="midnightblue" d="M1059.26,-171.11C1067.99,-170.06 1077.02,-168.98 1085.5,-168 1227.05,-151.58 1265.15,-150.06 1410.31,-132.12"/>
<polygon fill="midnightblue" stroke="midnightblue" points="1411,-135.56 1420.49,-130.85 1410.14,-128.61 1411,-135.56"/>
</g>
<!-- Node36 -->
<g id="node34" class="node">
<title>Node36</title>
<g id="a_node34"><a xlink:href="effect_8h.html" target="_top" xlink:title=" ">
<polygon fill="white" stroke="red" points="1550.5,-112.5 1550.5,-131.5 1642.5,-131.5 1642.5,-112.5 1550.5,-112.5"/>
<text text-anchor="middle" x="1596.5" y="-119.5" font-family="FreeSans" font-size="10.00">magick/effect.h</text>
</a>
</g>
</g>
<!-- Node26&#45;&gt;Node36 -->
<g id="edge36" class="edge">
<title>Node26&#45;&gt;Node36</title>
<path fill="none" stroke="midnightblue" d="M1059.24,-170.89C1067.97,-169.86 1077,-168.85 1085.5,-168 1284.52,-148.05 1337.97,-156.16 1540.27,-132.05"/>
<polygon fill="midnightblue" stroke="midnightblue" points="1540.82,-135.51 1550.33,-130.84 1539.98,-128.56 1540.82,-135.51"/>
</g>
<!-- Node38 -->
<g id="node35" class="node">
<title>Node38</title>
<g id="a_node35"><a xlink:href="geometry_8h.html" target="_top" xlink:title=" ">
<polygon fill="white" stroke="black" points="552.5,-112.5 552.5,-131.5 662.5,-131.5 662.5,-112.5 552.5,-112.5"/>
<text text-anchor="middle" x="607.5" y="-119.5" font-family="FreeSans" font-size="10.00">magick/geometry.h</text>
</a>
</g>
</g>
<!-- Node26&#45;&gt;Node38 -->
<g id="edge37" class="edge">
<title>Node26&#45;&gt;Node38</title>
<path fill="none" stroke="midnightblue" d="M963.9,-170.82C900.06,-162.51 782.9,-147.16 672.62,-132.14"/>
<polygon fill="midnightblue" stroke="midnightblue" points="673.04,-128.67 662.65,-130.79 672.09,-135.6 673.04,-128.67"/>
</g>
<!-- Node39 -->
<g id="node36" class="node">
<title>Node39</title>
<g id="a_node36"><a xlink:href="layer_8h.html" target="_top" xlink:title=" ">
<polygon fill="white" stroke="black" points="681,-112.5 681,-131.5 770,-131.5 770,-112.5 681,-112.5"/>
<text text-anchor="middle" x="725.5" y="-119.5" font-family="FreeSans" font-size="10.00">magick/layer.h</text>
</a>
</g>
</g>
<!-- Node26&#45;&gt;Node39 -->
<g id="edge38" class="edge">
<title>Node26&#45;&gt;Node39</title>
<path fill="none" stroke="midnightblue" d="M966.18,-168.44C915.72,-158.92 834.18,-143.52 780.21,-133.33"/>
<polygon fill="midnightblue" stroke="midnightblue" points="780.61,-129.84 770.13,-131.43 779.31,-136.72 780.61,-129.84"/>
</g>
<!-- Node40 -->
<g id="node37" class="node">
<title>Node40</title>
<g id="a_node37"><a xlink:href="locale___8h.html" target="_top" xlink:title=" ">
<polygon fill="white" stroke="red" points="1699,-112.5 1699,-131.5 1798,-131.5 1798,-112.5 1699,-112.5"/>
<text text-anchor="middle" x="1748.5" y="-119.5" font-family="FreeSans" font-size="10.00">magick/locale_.h</text>
</a>
</g>
</g>
<!-- Node26&#45;&gt;Node40 -->
<g id="edge39" class="edge">
<title>Node26&#45;&gt;Node40</title>
<path fill="none" stroke="midnightblue" d="M1059.22,-170.76C1067.95,-169.74 1076.99,-168.77 1085.5,-168 1351.11,-143.89 1419.13,-158.59 1684.5,-132 1685.97,-131.85 1687.45,-131.7 1688.94,-131.53"/>
<polygon fill="midnightblue" stroke="midnightblue" points="1689.41,-135 1698.93,-130.37 1688.59,-128.05 1689.41,-135"/>
</g>
<!-- Node42 -->
<g id="node38" class="node">
<title>Node42</title>
<g id="a_node38"><a xlink:href="monitor_8h.html" target="_top" xlink:title=" ">
<polygon fill="white" stroke="black" points="787.5,-112.5 787.5,-131.5 889.5,-131.5 889.5,-112.5 787.5,-112.5"/>
<text text-anchor="middle" x="838.5" y="-119.5" font-family="FreeSans" font-size="10.00">magick/monitor.h</text>
</a>
</g>
</g>
<!-- Node26&#45;&gt;Node42 -->
<g id="edge40" class="edge">
<title>Node26&#45;&gt;Node42</title>
<path fill="none" stroke="midnightblue" d="M984.09,-168.44C954.73,-159.28 907.98,-144.69 875.4,-134.52"/>
<polygon fill="midnightblue" stroke="midnightblue" points="876.37,-131.16 865.78,-131.52 874.29,-137.84 876.37,-131.16"/>
</g>
<!-- Node26&#45;&gt;Node49 -->
<g id="edge42" class="edge">
<title>Node26&#45;&gt;Node49</title>
<path fill="none" stroke="midnightblue" d="M963.91,-173.3C880.94,-166.66 704.24,-151.68 544.08,-132"/>
<polygon fill="midnightblue" stroke="midnightblue" points="544.4,-128.52 534.05,-130.76 543.54,-135.46 544.4,-128.52"/>
</g>
<!-- Node27&#45;&gt;Node31 -->
<g id="edge28" class="edge">
<title>Node27&#45;&gt;Node31</title>
<path fill="none" stroke="midnightblue" d="M907.3,-113.16C904.33,-112.74 901.37,-112.34 898.5,-112 688.01,-86.86 437.13,-74.34 319.55,-69.49"/>
<polygon fill="midnightblue" stroke="midnightblue" points="319.41,-65.98 309.28,-69.07 319.13,-72.97 319.41,-65.98"/>
</g>
<!-- Node31&#45;&gt;Node5 -->
<g id="edge29" class="edge">
<title>Node31&#45;&gt;Node5</title>
<path fill="none" stroke="midnightblue" d="M237.08,-56.32C221.96,-47.82 198.68,-34.73 181.03,-24.8"/>
<polygon fill="midnightblue" stroke="midnightblue" points="182.32,-21.51 171.89,-19.65 178.89,-27.61 182.32,-21.51"/>
</g>
<!-- Node31&#45;&gt;Node32 -->
<g id="edge30" class="edge">
<title>Node31&#45;&gt;Node32</title>
<path fill="none" stroke="midnightblue" d="M254.15,-56.08C255.48,-48.93 257.38,-38.64 259.04,-29.69"/>
<polygon fill="midnightblue" stroke="midnightblue" points="262.5,-30.22 260.88,-19.75 255.62,-28.95 262.5,-30.22"/>
</g>
<!-- Node51&#45;&gt;Node26 -->
<g id="edge45" class="edge">
<title>Node51&#45;&gt;Node26</title>
<path fill="none" stroke="midnightblue" d="M787.65,-224.44C834.25,-214.98 909.34,-199.74 959.55,-189.55"/>
<polygon fill="midnightblue" stroke="midnightblue" points="960.44,-192.94 969.55,-187.52 959.05,-186.08 960.44,-192.94"/>
</g>
<!-- Node51&#45;&gt;Node49 -->
<g id="edge46" class="edge">
<title>Node51&#45;&gt;Node49</title>
<path fill="none" stroke="midnightblue" d="M725.02,-224.37C679.09,-205.01 567.7,-158.06 514.18,-135.51"/>
<polygon fill="midnightblue" stroke="midnightblue" points="515.46,-132.25 504.89,-131.59 512.74,-138.7 515.46,-132.25"/>
</g>
<!-- Node52 -->
<g id="node41" class="node">
<title>Node52</title>
<g id="a_node41"><a xlink:href="nt-base-private_8h.html" target="_top" xlink:title=" ">
<polygon fill="white" stroke="red" points="276.5,-112.5 276.5,-131.5 416.5,-131.5 416.5,-112.5 276.5,-112.5"/>
<text text-anchor="middle" x="346.5" y="-119.5" font-family="FreeSans" font-size="10.00">magick/nt&#45;base&#45;private.h</text>
</a>
</g>
</g>
<!-- Node51&#45;&gt;Node52 -->
<g id="edge47" class="edge">
<title>Node51&#45;&gt;Node52</title>
<path fill="none" stroke="midnightblue" d="M714.52,-224.46C643.15,-204.78 467.12,-156.25 387.17,-134.21"/>
<polygon fill="midnightblue" stroke="midnightblue" points="388.03,-130.82 377.46,-131.53 386.17,-137.57 388.03,-130.82"/>
</g>
<!-- Node52&#45;&gt;Node31 -->
<g id="edge48" class="edge">
<title>Node52&#45;&gt;Node31</title>
<path fill="none" stroke="midnightblue" d="M331.4,-112.32C316.6,-103.82 293.81,-90.73 276.52,-80.8"/>
<polygon fill="midnightblue" stroke="midnightblue" points="277.98,-77.6 267.57,-75.65 274.49,-83.67 277.98,-77.6"/>
</g>
<!-- Node57 -->
<g id="node43" class="node">
<title>Node57</title>
<g id="a_node43"><a xlink:href="log_8h.html" target="_top" xlink:title=" ">
<polygon fill="white" stroke="black" points="24.5,-112.5 24.5,-131.5 104.5,-131.5 104.5,-112.5 24.5,-112.5"/>
<text text-anchor="middle" x="64.5" y="-119.5" font-family="FreeSans" font-size="10.00">magick/log.h</text>
</a>
</g>
</g>
<!-- Node56&#45;&gt;Node57 -->
<g id="edge51" class="edge">
<title>Node56&#45;&gt;Node57</title>
<path fill="none" stroke="midnightblue" d="M73.68,-168.08C72.23,-160.93 70.13,-150.64 68.31,-141.69"/>
<polygon fill="midnightblue" stroke="midnightblue" points="71.71,-140.85 66.28,-131.75 64.85,-142.25 71.71,-140.85"/>
</g>
<!-- Node58 -->
<g id="node44" class="node">
<title>Node58</title>
<g id="a_node44"><a xlink:href="magick_8h.html" target="_top" xlink:title=" ">
<polygon fill="white" stroke="black" points="0,-56.5 0,-75.5 101,-75.5 101,-56.5 0,-56.5"/>
<text text-anchor="middle" x="50.5" y="-63.5" font-family="FreeSans" font-size="10.00">magick/magick.h</text>
</a>
</g>
</g>
<!-- Node56&#45;&gt;Node58 -->
<g id="edge54" class="edge">
<title>Node56&#45;&gt;Node58</title>
<path fill="none" stroke="midnightblue" d="M56.2,-168.48C42.07,-161.08 23.94,-148.89 15.5,-132 7.05,-115.1 19.94,-96.11 32.39,-83.04"/>
<polygon fill="midnightblue" stroke="midnightblue" points="35.17,-85.23 39.89,-75.74 30.28,-80.21 35.17,-85.23"/>
</g>
<!-- Node56&#45;&gt;Node44 -->
<g id="edge57" class="edge">
<title>Node56&#45;&gt;Node44</title>
<path fill="none" stroke="midnightblue" d="M90.92,-168.32C106.04,-159.82 129.32,-146.73 146.97,-136.8"/>
<polygon fill="midnightblue" stroke="midnightblue" points="149.11,-139.61 156.11,-131.65 145.68,-133.51 149.11,-139.61"/>
</g>
<!-- Node57&#45;&gt;Node5 -->
<g id="edge52" class="edge">
<title>Node57&#45;&gt;Node5</title>
<path fill="none" stroke="midnightblue" d="M73.9,-112.44C83.32,-103.67 98.03,-89.46 109.5,-76 122.58,-60.65 135.91,-41.86 145.01,-28.44"/>
<polygon fill="midnightblue" stroke="midnightblue" points="148.18,-30 150.83,-19.74 142.36,-26.11 148.18,-30"/>
</g>
<!-- Node57&#45;&gt;Node31 -->
<g id="edge53" class="edge">
<title>Node57&#45;&gt;Node31</title>
<path fill="none" stroke="midnightblue" d="M94.29,-112.44C126.33,-103.24 177.43,-88.56 212.85,-78.39"/>
<polygon fill="midnightblue" stroke="midnightblue" points="214.21,-81.64 222.85,-75.52 212.27,-74.91 214.21,-81.64"/>
</g>
<!-- Node58&#45;&gt;Node5 -->
<g id="edge55" class="edge">
<title>Node58&#45;&gt;Node5</title>
<path fill="none" stroke="midnightblue" d="M67.53,-56.32C84.53,-47.66 110.88,-34.24 130.49,-24.25"/>
<polygon fill="midnightblue" stroke="midnightblue" points="132.19,-27.31 139.51,-19.65 129.01,-21.08 132.19,-27.31"/>
</g>
<!-- Node58&#45;&gt;Node32 -->
<g id="edge56" class="edge">
<title>Node58&#45;&gt;Node32</title>
<path fill="none" stroke="midnightblue" d="M84.09,-56.44C120.69,-47.12 179.34,-32.18 219.33,-22"/>
<polygon fill="midnightblue" stroke="midnightblue" points="220.24,-25.38 229.07,-19.52 218.51,-18.59 220.24,-25.38"/>
</g>
<!-- Node44&#45;&gt;Node5 -->
<g id="edge58" class="edge">
<title>Node44&#45;&gt;Node5</title>
<path fill="none" stroke="midnightblue" d="M170.32,-112.37C167.9,-94.62 162.32,-53.67 159.04,-29.6"/>
<polygon fill="midnightblue" stroke="midnightblue" points="162.49,-29.03 157.67,-19.59 155.55,-29.97 162.49,-29.03"/>
</g>
<!-- Node44&#45;&gt;Node12 -->
<g id="edge59" class="edge">
<title>Node44&#45;&gt;Node12</title>
<path fill="none" stroke="midnightblue" d="M220.78,-115.73C235.77,-114.31 252.29,-112.91 267.5,-112 956.02,-70.9 1799.57,-67.31 1978.26,-67.02"/>
<polygon fill="midnightblue" stroke="midnightblue" points="1978.38,-70.52 1988.37,-67.01 1978.37,-63.52 1978.38,-70.52"/>
</g>
<!-- Node44&#45;&gt;Node31 -->
<g id="edge60" class="edge">
<title>Node44&#45;&gt;Node31</title>
<path fill="none" stroke="midnightblue" d="M184.51,-112.32C197.03,-103.98 216.18,-91.21 230.97,-81.35"/>
<polygon fill="midnightblue" stroke="midnightblue" points="233.14,-84.11 239.52,-75.65 229.26,-78.29 233.14,-84.11"/>
</g>
<!-- Node61&#45;&gt;Node9 -->
<g id="edge64" class="edge">
<title>Node61&#45;&gt;Node9</title>
<path fill="none" stroke="midnightblue" d="M1269.74,-224.08C1262.96,-216.3 1252.96,-204.8 1244.74,-195.37"/>
<polygon fill="midnightblue" stroke="midnightblue" points="1247.32,-193 1238.12,-187.75 1242.04,-197.59 1247.32,-193"/>
</g>
<!-- Node61&#45;&gt;Node15 -->
<g id="edge65" class="edge">
<title>Node61&#45;&gt;Node15</title>
<path fill="none" stroke="midnightblue" d="M1281.63,-224.08C1285.01,-216.77 1289.92,-206.18 1294.12,-197.1"/>
<polygon fill="midnightblue" stroke="midnightblue" points="1297.42,-198.3 1298.45,-187.75 1291.07,-195.36 1297.42,-198.3"/>
</g>
<!-- Node62&#45;&gt;Node40 -->
<g id="edge69" class="edge">
<title>Node62&#45;&gt;Node40</title>
<path fill="none" stroke="midnightblue" d="M1143.08,-224.34C1151.34,-209.74 1170.24,-180.58 1195.5,-168 1293.03,-119.41 1576.16,-143.59 1684.5,-132 1685.96,-131.84 1687.45,-131.68 1688.94,-131.51"/>
<polygon fill="midnightblue" stroke="midnightblue" points="1689.42,-134.98 1698.93,-130.3 1688.58,-128.03 1689.42,-134.98"/>
</g>
<!-- Node63 -->
<g id="node50" class="node">
<title>Node63</title>
<g id="a_node50"><a xlink:title=" ">
<polygon fill="white" stroke="#bfbfbf" points="1095,-168.5 1095,-187.5 1148,-187.5 1148,-168.5 1095,-168.5"/>
<text text-anchor="middle" x="1121.5" y="-175.5" font-family="FreeSans" font-size="10.00">string.h</text>
</a>
</g>
</g>
<!-- Node62&#45;&gt;Node63 -->
<g id="edge68" class="edge">
<title>Node62&#45;&gt;Node63</title>
<path fill="none" stroke="midnightblue" d="M1135.69,-224.08C1133.42,-216.85 1130.13,-206.41 1127.29,-197.4"/>
<polygon fill="midnightblue" stroke="midnightblue" points="1130.6,-196.24 1124.25,-187.75 1123.92,-198.34 1130.6,-196.24"/>
</g>
</g>
</svg>
