<?xml version="1.0" encoding="UTF-8" standalone="no"?>
<!DOCTYPE svg PUBLIC "-//W3C//DTD SVG 1.1//EN"
 "http://www.w3.org/Graphics/SVG/1.1/DTD/svg11.dtd">
<!-- Generated by graphviz version 2.43.0 (0)
 -->
<!-- Title: log.c Pages: 1 -->
<svg width="2365pt" height="364pt"
 viewBox="0.00 0.00 2365.38 364.00" xmlns="http://www.w3.org/2000/svg" xmlns:xlink="http://www.w3.org/1999/xlink">
<g id="graph0" class="graph" transform="scale(1 1) rotate(0) translate(4 360)">
<title>log.c</title>
<polygon fill="white" stroke="transparent" points="-4,4 -4,-360 2361.38,-360 2361.38,4 -4,4"/>
<!-- Node1 -->
<g id="node1" class="node">
<title>Node1</title>
<g id="a_node1"><a xlink:title=" ">
<polygon fill="#bfbfbf" stroke="black" points="896.88,-336.5 896.88,-355.5 936.88,-355.5 936.88,-336.5 896.88,-336.5"/>
<text text-anchor="middle" x="916.88" y="-343.5" font-family="FreeSans" font-size="10.00">log.c</text>
</a>
</g>
</g>
<!-- Node2 -->
<g id="node2" class="node">
<title>Node2</title>
<g id="a_node2"><a xlink:href="studio_8h.html" target="_top" xlink:title=" ">
<polygon fill="white" stroke="black" points="1372.38,-224.5 1372.38,-243.5 1467.38,-243.5 1467.38,-224.5 1372.38,-224.5"/>
<text text-anchor="middle" x="1419.88" y="-231.5" font-family="FreeSans" font-size="10.00">magick/studio.h</text>
</a>
</g>
</g>
<!-- Node1&#45;&gt;Node2 -->
<g id="edge1" class="edge">
<title>Node1&#45;&gt;Node2</title>
<path fill="none" stroke="midnightblue" d="M909.95,-336.23C899.98,-322.51 884.31,-295.88 898.88,-280 929.69,-246.41 1232.74,-237.83 1361.97,-235.69"/>
<polygon fill="midnightblue" stroke="midnightblue" points="1362.14,-239.19 1372.08,-235.53 1362.03,-232.19 1362.14,-239.19"/>
</g>
<!-- Node24 -->
<g id="node23" class="node">
<title>Node24</title>
<g id="a_node23"><a xlink:href="blob_8h.html" target="_top" xlink:title=" ">
<polygon fill="white" stroke="black" points="649.88,-280.5 649.88,-299.5 735.88,-299.5 735.88,-280.5 649.88,-280.5"/>
<text text-anchor="middle" x="692.88" y="-287.5" font-family="FreeSans" font-size="10.00">magick/blob.h</text>
</a>
</g>
</g>
<!-- Node1&#45;&gt;Node24 -->
<g id="edge23" class="edge">
<title>Node1&#45;&gt;Node24</title>
<path fill="none" stroke="midnightblue" d="M896.6,-340.11C861.01,-331.53 786.48,-313.57 738.12,-301.91"/>
<polygon fill="midnightblue" stroke="midnightblue" points="738.76,-298.46 728.22,-299.52 737.12,-305.26 738.76,-298.46"/>
</g>
<!-- Node31 -->
<g id="node25" class="node">
<title>Node31</title>
<g id="a_node25"><a xlink:href="semaphore_8h.html" target="_top" xlink:title=" ">
<polygon fill="white" stroke="black" points="522.38,-0.5 522.38,-19.5 641.38,-19.5 641.38,-0.5 522.38,-0.5"/>
<text text-anchor="middle" x="581.88" y="-7.5" font-family="FreeSans" font-size="10.00">magick/semaphore.h</text>
</a>
</g>
</g>
<!-- Node1&#45;&gt;Node31 -->
<g id="edge60" class="edge">
<title>Node1&#45;&gt;Node31</title>
<path fill="none" stroke="midnightblue" d="M903.67,-336.39C891.44,-328.02 873.19,-314.48 859.88,-300 839.69,-278.04 836.95,-270.3 822.88,-244 805.59,-211.68 812.33,-197.72 790.88,-168 746.63,-106.71 724.71,-99.49 662.88,-56 645.72,-43.93 625.02,-32.48 608.85,-24.15"/>
<polygon fill="midnightblue" stroke="midnightblue" points="610.41,-21.02 599.9,-19.63 607.25,-27.26 610.41,-21.02"/>
</g>
<!-- Node49 -->
<g id="node27" class="node">
<title>Node49</title>
<g id="a_node27"><a xlink:href="timer_8h.html" target="_top" xlink:title=" ">
<polygon fill="white" stroke="black" points="691.88,-168.5 691.88,-187.5 781.88,-187.5 781.88,-168.5 691.88,-168.5"/>
<text text-anchor="middle" x="736.88" y="-175.5" font-family="FreeSans" font-size="10.00">magick/timer.h</text>
</a>
</g>
</g>
<!-- Node1&#45;&gt;Node49 -->
<g id="edge61" class="edge">
<title>Node1&#45;&gt;Node49</title>
<path fill="none" stroke="midnightblue" d="M896.72,-342.85C869.3,-338.92 820.19,-328.2 789.88,-300 759.76,-271.98 745.83,-223.82 740.18,-197.5"/>
<polygon fill="midnightblue" stroke="midnightblue" points="743.62,-196.82 738.25,-187.68 736.75,-198.17 743.62,-196.82"/>
</g>
<!-- Node50 -->
<g id="node28" class="node">
<title>Node50</title>
<g id="a_node28"><a xlink:href="client_8h.html" target="_top" xlink:title=" ">
<polygon fill="white" stroke="black" points="907.88,-280.5 907.88,-299.5 999.88,-299.5 999.88,-280.5 907.88,-280.5"/>
<text text-anchor="middle" x="953.88" y="-287.5" font-family="FreeSans" font-size="10.00">magick/client.h</text>
</a>
</g>
</g>
<!-- Node1&#45;&gt;Node50 -->
<g id="edge30" class="edge">
<title>Node1&#45;&gt;Node50</title>
<path fill="none" stroke="midnightblue" d="M922.99,-336.08C928.16,-328.53 935.72,-317.49 942.07,-308.23"/>
<polygon fill="midnightblue" stroke="midnightblue" points="945.12,-309.98 947.88,-299.75 939.34,-306.02 945.12,-309.98"/>
</g>
<!-- Node51 -->
<g id="node29" class="node">
<title>Node51</title>
<g id="a_node29"><a xlink:href="configure_8h.html" target="_top" xlink:title=" ">
<polygon fill="white" stroke="black" points="1055.88,-280.5 1055.88,-299.5 1165.88,-299.5 1165.88,-280.5 1055.88,-280.5"/>
<text text-anchor="middle" x="1110.88" y="-287.5" font-family="FreeSans" font-size="10.00">magick/configure.h</text>
</a>
</g>
</g>
<!-- Node1&#45;&gt;Node51 -->
<g id="edge31" class="edge">
<title>Node1&#45;&gt;Node51</title>
<path fill="none" stroke="midnightblue" d="M936.91,-339.42C968.3,-330.69 1029.71,-313.59 1070.52,-302.23"/>
<polygon fill="midnightblue" stroke="midnightblue" points="1071.47,-305.6 1080.17,-299.55 1069.6,-298.86 1071.47,-305.6"/>
</g>
<!-- Node40 -->
<g id="node30" class="node">
<title>Node40</title>
<g id="a_node30"><a xlink:href="hashmap_8h.html" target="_top" xlink:title=" ">
<polygon fill="white" stroke="black" points="1485.88,-224.5 1485.88,-243.5 1595.88,-243.5 1595.88,-224.5 1485.88,-224.5"/>
<text text-anchor="middle" x="1540.88" y="-231.5" font-family="FreeSans" font-size="10.00">magick/hashmap.h</text>
</a>
</g>
</g>
<!-- Node1&#45;&gt;Node40 -->
<g id="edge47" class="edge">
<title>Node1&#45;&gt;Node40</title>
<path fill="none" stroke="midnightblue" d="M934.94,-336.36C953.54,-327.41 983.35,-312.96 1008.88,-300 1025.9,-291.36 1028.56,-285.35 1046.88,-280 1227.41,-227.29 1283.79,-263.83 1475.46,-243.95"/>
<polygon fill="midnightblue" stroke="midnightblue" points="1476.02,-247.41 1485.59,-242.86 1475.27,-240.45 1476.02,-247.41"/>
</g>
<!-- Node30 -->
<g id="node31" class="node">
<title>Node30</title>
<g id="a_node31"><a xlink:href="exception_8h.html" target="_top" xlink:title=" ">
<polygon fill="white" stroke="black" points="230.38,-56.5 230.38,-75.5 343.38,-75.5 343.38,-56.5 230.38,-56.5"/>
<text text-anchor="middle" x="286.88" y="-63.5" font-family="FreeSans" font-size="10.00">magick/exception.h</text>
</a>
</g>
</g>
<!-- Node1&#45;&gt;Node30 -->
<g id="edge33" class="edge">
<title>Node1&#45;&gt;Node30</title>
<path fill="none" stroke="midnightblue" d="M896.66,-344.39C813.78,-341.69 499.94,-329.69 405.88,-300 334.43,-277.45 297.61,-260.8 279.88,-188 271.24,-152.53 277.53,-109.55 282.48,-85.54"/>
<polygon fill="midnightblue" stroke="midnightblue" points="285.92,-86.19 284.66,-75.67 279.08,-84.67 285.92,-86.19"/>
</g>
<!-- Node52 -->
<g id="node32" class="node">
<title>Node52</title>
<g id="a_node32"><a xlink:href="exception-private_8h.html" target="_top" xlink:title=" ">
<polygon fill="white" stroke="black" points="12.38,-168.5 12.38,-187.5 163.38,-187.5 163.38,-168.5 12.38,-168.5"/>
<text text-anchor="middle" x="87.88" y="-175.5" font-family="FreeSans" font-size="10.00">magick/exception&#45;private.h</text>
</a>
</g>
</g>
<!-- Node1&#45;&gt;Node52 -->
<g id="edge36" class="edge">
<title>Node1&#45;&gt;Node52</title>
<path fill="none" stroke="midnightblue" d="M896.85,-344.78C785.23,-343.43 242.74,-335.1 177.88,-300 135.62,-277.13 107.69,-224.85 95.27,-197.09"/>
<polygon fill="midnightblue" stroke="midnightblue" points="98.43,-195.58 91.27,-187.77 91.99,-198.34 98.43,-195.58"/>
</g>
<!-- Node53 -->
<g id="node33" class="node">
<title>Node53</title>
<g id="a_node33"><a xlink:href="log_8h.html" target="_top" xlink:title=" ">
<polygon fill="white" stroke="black" points="1.88,-112.5 1.88,-131.5 81.88,-131.5 81.88,-112.5 1.88,-112.5"/>
<text text-anchor="middle" x="41.88" y="-119.5" font-family="FreeSans" font-size="10.00">magick/log.h</text>
</a>
</g>
</g>
<!-- Node1&#45;&gt;Node53 -->
<g id="edge48" class="edge">
<title>Node1&#45;&gt;Node53</title>
<path fill="none" stroke="midnightblue" d="M896.58,-344.52C782.2,-341.73 220.77,-326.77 148.88,-300 72.24,-271.46 39.05,-261.35 2.88,-188 -5.78,-170.44 8.8,-151.33 22.53,-138.41"/>
<polygon fill="midnightblue" stroke="midnightblue" points="25.12,-140.8 30.34,-131.57 20.51,-135.53 25.12,-140.8"/>
</g>
<!-- Node43 -->
<g id="node35" class="node">
<title>Node43</title>
<g id="a_node35"><a xlink:href="string___8h.html" target="_top" xlink:title=" ">
<polygon fill="white" stroke="black" points="310.88,-112.5 310.88,-131.5 408.88,-131.5 408.88,-112.5 310.88,-112.5"/>
<text text-anchor="middle" x="359.88" y="-119.5" font-family="FreeSans" font-size="10.00">magick/string_.h</text>
</a>
</g>
</g>
<!-- Node1&#45;&gt;Node43 -->
<g id="edge62" class="edge">
<title>Node1&#45;&gt;Node43</title>
<path fill="none" stroke="midnightblue" d="M896.83,-344.12C821.3,-340.64 554.22,-326.66 473.88,-300 381.93,-269.49 334.64,-272.28 286.88,-188 274.27,-165.75 301.82,-147.16 326.61,-135.64"/>
<polygon fill="midnightblue" stroke="midnightblue" points="328.13,-138.8 335.88,-131.58 325.32,-132.39 328.13,-138.8"/>
</g>
<!-- Node55 -->
<g id="node36" class="node">
<title>Node55</title>
<g id="a_node36"><a xlink:href="memory___8h.html" target="_top" xlink:title=" ">
<polygon fill="white" stroke="black" points="832.38,-224.5 832.38,-243.5 943.38,-243.5 943.38,-224.5 832.38,-224.5"/>
<text text-anchor="middle" x="887.88" y="-231.5" font-family="FreeSans" font-size="10.00">magick/memory_.h</text>
</a>
</g>
</g>
<!-- Node1&#45;&gt;Node55 -->
<g id="edge49" class="edge">
<title>Node1&#45;&gt;Node55</title>
<path fill="none" stroke="midnightblue" d="M901.14,-336.24C888.99,-328.48 873.07,-315.93 865.88,-300 858.78,-284.27 866.76,-265.53 875.02,-252.23"/>
<polygon fill="midnightblue" stroke="midnightblue" points="878.15,-253.85 880.88,-243.62 872.36,-249.92 878.15,-253.85"/>
</g>
<!-- Node56 -->
<g id="node37" class="node">
<title>Node56</title>
<g id="a_node37"><a xlink:href="nt-base-private_8h.html" target="_top" xlink:title=" ">
<polygon fill="white" stroke="red" points="401.88,-224.5 401.88,-243.5 541.88,-243.5 541.88,-224.5 401.88,-224.5"/>
<text text-anchor="middle" x="471.88" y="-231.5" font-family="FreeSans" font-size="10.00">magick/nt&#45;base&#45;private.h</text>
</a>
</g>
</g>
<!-- Node1&#45;&gt;Node56 -->
<g id="edge52" class="edge">
<title>Node1&#45;&gt;Node56</title>
<path fill="none" stroke="midnightblue" d="M896.66,-344.17C816.31,-340.71 522.38,-326.31 490.88,-300 477.5,-288.83 473.25,-268.8 472.03,-253.92"/>
<polygon fill="midnightblue" stroke="midnightblue" points="475.52,-253.62 471.6,-243.78 468.53,-253.92 475.52,-253.62"/>
</g>
<!-- Node60 -->
<g id="node40" class="node">
<title>Node60</title>
<g id="a_node40"><a xlink:href="option_8h.html" target="_top" xlink:title=" ">
<polygon fill="white" stroke="black" points="1184.38,-280.5 1184.38,-299.5 1279.38,-299.5 1279.38,-280.5 1184.38,-280.5"/>
<text text-anchor="middle" x="1231.88" y="-287.5" font-family="FreeSans" font-size="10.00">magick/option.h</text>
</a>
</g>
</g>
<!-- Node1&#45;&gt;Node60 -->
<g id="edge59" class="edge">
<title>Node1&#45;&gt;Node60</title>
<path fill="none" stroke="midnightblue" d="M937.06,-341.54C984.11,-333.47 1102.48,-313.18 1174.1,-300.9"/>
<polygon fill="midnightblue" stroke="midnightblue" points="1175.05,-304.29 1184.32,-299.15 1173.87,-297.39 1175.05,-304.29"/>
</g>
<!-- Node61 -->
<g id="node41" class="node">
<title>Node61</title>
<g id="a_node41"><a xlink:href="string-private_8h.html" target="_top" xlink:title=" ">
<polygon fill="white" stroke="red" points="1297.38,-280.5 1297.38,-299.5 1428.38,-299.5 1428.38,-280.5 1297.38,-280.5"/>
<text text-anchor="middle" x="1362.88" y="-287.5" font-family="FreeSans" font-size="10.00">magick/string&#45;private.h</text>
</a>
</g>
</g>
<!-- Node1&#45;&gt;Node61 -->
<g id="edge63" class="edge">
<title>Node1&#45;&gt;Node61</title>
<path fill="none" stroke="midnightblue" d="M936.91,-342.57C997.6,-335.23 1181.75,-312.93 1286.99,-300.19"/>
<polygon fill="midnightblue" stroke="midnightblue" points="1287.72,-303.63 1297.23,-298.95 1286.88,-296.68 1287.72,-303.63"/>
</g>
<!-- Node63 -->
<g id="node42" class="node">
<title>Node63</title>
<g id="a_node42"><a xlink:href="token_8h.html" target="_top" xlink:title=" ">
<polygon fill="white" stroke="black" points="1446.88,-280.5 1446.88,-299.5 1538.88,-299.5 1538.88,-280.5 1446.88,-280.5"/>
<text text-anchor="middle" x="1492.88" y="-287.5" font-family="FreeSans" font-size="10.00">magick/token.h</text>
</a>
</g>
</g>
<!-- Node1&#45;&gt;Node63 -->
<g id="edge64" class="edge">
<title>Node1&#45;&gt;Node63</title>
<path fill="none" stroke="midnightblue" d="M937.25,-343.77C1005.91,-339.53 1235.28,-324.44 1436.6,-299.93"/>
<polygon fill="midnightblue" stroke="midnightblue" points="1437.27,-303.38 1446.77,-298.68 1436.42,-296.43 1437.27,-303.38"/>
</g>
<!-- Node64 -->
<g id="node43" class="node">
<title>Node64</title>
<g id="a_node43"><a xlink:href="thread___8h.html" target="_top" xlink:title=" ">
<polygon fill="white" stroke="black" points="1614.38,-224.5 1614.38,-243.5 1715.38,-243.5 1715.38,-224.5 1614.38,-224.5"/>
<text text-anchor="middle" x="1664.88" y="-231.5" font-family="FreeSans" font-size="10.00">magick/thread_.h</text>
</a>
</g>
</g>
<!-- Node1&#45;&gt;Node64 -->
<g id="edge65" class="edge">
<title>Node1&#45;&gt;Node64</title>
<path fill="none" stroke="midnightblue" d="M937.19,-344.73C1031.76,-343.29 1429.45,-335.23 1547.88,-300 1552.87,-298.52 1608.26,-267.22 1641.01,-248.61"/>
<polygon fill="midnightblue" stroke="midnightblue" points="1643.01,-251.49 1649.97,-243.51 1639.55,-245.41 1643.01,-251.49"/>
</g>
<!-- Node65 -->
<g id="node44" class="node">
<title>Node65</title>
<g id="a_node44"><a xlink:href="thread-private_8h.html" target="_top" xlink:title=" ">
<polygon fill="white" stroke="red" points="1594.88,-280.5 1594.88,-299.5 1728.88,-299.5 1728.88,-280.5 1594.88,-280.5"/>
<text text-anchor="middle" x="1661.88" y="-287.5" font-family="FreeSans" font-size="10.00">magick/thread&#45;private.h</text>
</a>
</g>
</g>
<!-- Node1&#45;&gt;Node65 -->
<g id="edge66" class="edge">
<title>Node1&#45;&gt;Node65</title>
<path fill="none" stroke="midnightblue" d="M937,-343.95C1017.89,-339.68 1327.12,-322.69 1580.88,-300 1582.15,-299.89 1583.43,-299.77 1584.71,-299.65"/>
<polygon fill="midnightblue" stroke="midnightblue" points="1585.1,-303.13 1594.72,-298.69 1584.43,-296.16 1585.1,-303.13"/>
</g>
<!-- Node69 -->
<g id="node45" class="node">
<title>Node69</title>
<g id="a_node45"><a xlink:href="timer-private_8h.html" target="_top" xlink:title=" ">
<polygon fill="white" stroke="black" points="1747.38,-280.5 1747.38,-299.5 1876.38,-299.5 1876.38,-280.5 1747.38,-280.5"/>
<text text-anchor="middle" x="1811.88" y="-287.5" font-family="FreeSans" font-size="10.00">magick/timer&#45;private.h</text>
</a>
</g>
</g>
<!-- Node1&#45;&gt;Node69 -->
<g id="edge68" class="edge">
<title>Node1&#45;&gt;Node69</title>
<path fill="none" stroke="midnightblue" d="M936.92,-344.39C1027.86,-341.53 1411.03,-328.37 1737.21,-299.99"/>
<polygon fill="midnightblue" stroke="midnightblue" points="1737.67,-303.47 1747.33,-299.11 1737.06,-296.49 1737.67,-303.47"/>
</g>
<!-- Node70 -->
<g id="node46" class="node">
<title>Node70</title>
<g id="a_node46"><a xlink:href="utility_8h.html" target="_top" xlink:title=" ">
<polygon fill="white" stroke="black" points="1894.88,-280.5 1894.88,-299.5 1986.88,-299.5 1986.88,-280.5 1894.88,-280.5"/>
<text text-anchor="middle" x="1940.88" y="-287.5" font-family="FreeSans" font-size="10.00">magick/utility.h</text>
</a>
</g>
</g>
<!-- Node1&#45;&gt;Node70 -->
<g id="edge69" class="edge">
<title>Node1&#45;&gt;Node70</title>
<path fill="none" stroke="midnightblue" d="M937.06,-344.93C1038,-344.39 1498.12,-339.84 1884.74,-299.99"/>
<polygon fill="midnightblue" stroke="midnightblue" points="1885.13,-303.47 1894.72,-298.95 1884.41,-296.51 1885.13,-303.47"/>
</g>
<!-- Node71 -->
<g id="node47" class="node">
<title>Node71</title>
<g id="a_node47"><a xlink:href="utility-private_8h.html" target="_top" xlink:title=" ">
<polygon fill="white" stroke="red" points="500.38,-280.5 500.38,-299.5 631.38,-299.5 631.38,-280.5 500.38,-280.5"/>
<text text-anchor="middle" x="565.88" y="-287.5" font-family="FreeSans" font-size="10.00">magick/utility&#45;private.h</text>
</a>
</g>
</g>
<!-- Node1&#45;&gt;Node71 -->
<g id="edge70" class="edge">
<title>Node1&#45;&gt;Node71</title>
<path fill="none" stroke="midnightblue" d="M896.75,-341.9C846.25,-334.13 712.44,-313.55 631.3,-301.06"/>
<polygon fill="midnightblue" stroke="midnightblue" points="631.6,-297.57 621.19,-299.51 630.54,-304.49 631.6,-297.57"/>
</g>
<!-- Node73 -->
<g id="node48" class="node">
<title>Node73</title>
<g id="a_node48"><a xlink:href="version_8h.html" target="_top" xlink:title=" ">
<polygon fill="white" stroke="black" points="2005.38,-280.5 2005.38,-299.5 2106.38,-299.5 2106.38,-280.5 2005.38,-280.5"/>
<text text-anchor="middle" x="2055.88" y="-287.5" font-family="FreeSans" font-size="10.00">magick/version.h</text>
</a>
</g>
</g>
<!-- Node1&#45;&gt;Node73 -->
<g id="edge73" class="edge">
<title>Node1&#45;&gt;Node73</title>
<path fill="none" stroke="midnightblue" d="M937.15,-344.96C1044.92,-344.6 1561.71,-340.78 1994.97,-299.97"/>
<polygon fill="midnightblue" stroke="midnightblue" points="1995.56,-303.42 2005.19,-298.99 1994.9,-296.46 1995.56,-303.42"/>
</g>
<!-- Node74 -->
<g id="node49" class="node">
<title>Node74</title>
<g id="a_node49"><a xlink:href="xml-tree_8h.html" target="_top" xlink:title=" ">
<polygon fill="white" stroke="red" points="138.38,-112.5 138.38,-131.5 245.38,-131.5 245.38,-112.5 138.38,-112.5"/>
<text text-anchor="middle" x="191.88" y="-119.5" font-family="FreeSans" font-size="10.00">magick/xml&#45;tree.h</text>
</a>
</g>
</g>
<!-- Node1&#45;&gt;Node74 -->
<g id="edge74" class="edge">
<title>Node1&#45;&gt;Node74</title>
<path fill="none" stroke="midnightblue" d="M896.83,-345.19C787.58,-346.05 266.96,-347.59 215.88,-300 171.86,-258.99 180.78,-178.48 187.67,-141.9"/>
<polygon fill="midnightblue" stroke="midnightblue" points="191.19,-142.17 189.77,-131.67 184.34,-140.76 191.19,-142.17"/>
</g>
<!-- Node75 -->
<g id="node50" class="node">
<title>Node75</title>
<g id="a_node50"><a xlink:href="xml-tree-private_8h.html" target="_top" xlink:title=" ">
<polygon fill="white" stroke="black" points="2124.38,-280.5 2124.38,-299.5 2269.38,-299.5 2269.38,-280.5 2124.38,-280.5"/>
<text text-anchor="middle" x="2196.88" y="-287.5" font-family="FreeSans" font-size="10.00">magick/xml&#45;tree&#45;private.h</text>
</a>
</g>
</g>
<!-- Node1&#45;&gt;Node75 -->
<g id="edge76" class="edge">
<title>Node1&#45;&gt;Node75</title>
<path fill="none" stroke="midnightblue" d="M937.06,-344.79C1051.47,-343.52 1630.33,-335.54 2113.72,-300.11"/>
<polygon fill="midnightblue" stroke="midnightblue" points="2114.33,-303.57 2124.04,-299.35 2113.81,-296.59 2114.33,-303.57"/>
</g>
<!-- Node3 -->
<g id="node3" class="node">
<title>Node3</title>
<g id="a_node3"><a xlink:href="magick-config_8h.html" target="_top" xlink:title=" ">
<polygon fill="white" stroke="red" points="1763.88,-112.5 1763.88,-131.5 1897.88,-131.5 1897.88,-112.5 1763.88,-112.5"/>
<text text-anchor="middle" x="1830.88" y="-119.5" font-family="FreeSans" font-size="10.00">magick/magick&#45;config.h</text>
</a>
</g>
</g>
<!-- Node2&#45;&gt;Node3 -->
<g id="edge2" class="edge">
<title>Node2&#45;&gt;Node3</title>
<path fill="none" stroke="midnightblue" d="M1467.45,-225.37C1470.64,-224.89 1473.8,-224.43 1476.88,-224 1605.48,-205.87 1650.4,-245.46 1766.88,-188 1788.99,-177.09 1807.88,-155.41 1819.28,-140.09"/>
<polygon fill="midnightblue" stroke="midnightblue" points="1822.43,-141.71 1825.38,-131.53 1816.73,-137.65 1822.43,-141.71"/>
</g>
<!-- Node5 -->
<g id="node4" class="node">
<title>Node5</title>
<g id="a_node4"><a xlink:title=" ">
<polygon fill="white" stroke="#bfbfbf" points="300.88,-0.5 300.88,-19.5 356.88,-19.5 356.88,-0.5 300.88,-0.5"/>
<text text-anchor="middle" x="328.88" y="-7.5" font-family="FreeSans" font-size="10.00">stdarg.h</text>
</a>
</g>
</g>
<!-- Node2&#45;&gt;Node5 -->
<g id="edge3" class="edge">
<title>Node2&#45;&gt;Node5</title>
<path fill="none" stroke="midnightblue" d="M1372.26,-232.39C1300.62,-230.34 1161.49,-221.87 1048.88,-188 1029.84,-182.27 1027.45,-175.07 1008.88,-168 919.81,-134.08 895.37,-130.5 801.88,-112 677.5,-87.39 641.13,-109.61 518.88,-76 497.38,-70.09 493.77,-63.78 472.88,-56 437.42,-42.79 396.12,-30.16 366.87,-21.66"/>
<polygon fill="midnightblue" stroke="midnightblue" points="367.63,-18.24 357.05,-18.83 365.69,-24.97 367.63,-18.24"/>
</g>
<!-- Node6 -->
<g id="node5" class="node">
<title>Node6</title>
<g id="a_node5"><a xlink:title=" ">
<polygon fill="white" stroke="#bfbfbf" points="1957.88,-168.5 1957.88,-187.5 2007.88,-187.5 2007.88,-168.5 1957.88,-168.5"/>
<text text-anchor="middle" x="1982.88" y="-175.5" font-family="FreeSans" font-size="10.00">stdio.h</text>
</a>
</g>
</g>
<!-- Node2&#45;&gt;Node6 -->
<g id="edge4" class="edge">
<title>Node2&#45;&gt;Node6</title>
<path fill="none" stroke="midnightblue" d="M1467.42,-225.2C1470.62,-224.77 1473.79,-224.36 1476.88,-224 1682.58,-199.96 1739.66,-222.34 1947.72,-187.89"/>
<polygon fill="midnightblue" stroke="midnightblue" points="1948.46,-191.31 1957.74,-186.2 1947.3,-184.41 1948.46,-191.31"/>
</g>
<!-- Node7 -->
<g id="node6" class="node">
<title>Node7</title>
<g id="a_node6"><a xlink:title=" ">
<polygon fill="white" stroke="#bfbfbf" points="2026.38,-168.5 2026.38,-187.5 2079.38,-187.5 2079.38,-168.5 2026.38,-168.5"/>
<text text-anchor="middle" x="2052.88" y="-175.5" font-family="FreeSans" font-size="10.00">ctype.h</text>
</a>
</g>
</g>
<!-- Node2&#45;&gt;Node7 -->
<g id="edge5" class="edge">
<title>Node2&#45;&gt;Node7</title>
<path fill="none" stroke="midnightblue" d="M1467.42,-225.17C1470.62,-224.74 1473.79,-224.35 1476.88,-224 1712.65,-197.58 1777.49,-224.56 2016.22,-187.79"/>
<polygon fill="midnightblue" stroke="midnightblue" points="2016.91,-191.22 2026.25,-186.22 2015.83,-184.3 2016.91,-191.22"/>
</g>
<!-- Node8 -->
<g id="node7" class="node">
<title>Node8</title>
<g id="a_node7"><a xlink:title=" ">
<polygon fill="white" stroke="#bfbfbf" points="2097.38,-168.5 2097.38,-187.5 2152.38,-187.5 2152.38,-168.5 2097.38,-168.5"/>
<text text-anchor="middle" x="2124.88" y="-175.5" font-family="FreeSans" font-size="10.00">locale.h</text>
</a>
</g>
</g>
<!-- Node2&#45;&gt;Node8 -->
<g id="edge6" class="edge">
<title>Node2&#45;&gt;Node8</title>
<path fill="none" stroke="midnightblue" d="M1467.42,-225.14C1470.61,-224.72 1473.79,-224.33 1476.88,-224 1744.46,-195.07 1817.76,-228.39 2087,-188.03"/>
<polygon fill="midnightblue" stroke="midnightblue" points="2087.71,-191.46 2097.07,-186.49 2086.66,-184.54 2087.71,-191.46"/>
</g>
<!-- Node9 -->
<g id="node8" class="node">
<title>Node9</title>
<g id="a_node8"><a xlink:title=" ">
<polygon fill="white" stroke="#bfbfbf" points="838.38,-168.5 838.38,-187.5 889.38,-187.5 889.38,-168.5 838.38,-168.5"/>
<text text-anchor="middle" x="863.88" y="-175.5" font-family="FreeSans" font-size="10.00">errno.h</text>
</a>
</g>
</g>
<!-- Node2&#45;&gt;Node9 -->
<g id="edge7" class="edge">
<title>Node2&#45;&gt;Node9</title>
<path fill="none" stroke="midnightblue" d="M1372.13,-231.52C1281.68,-228.14 1079.1,-217.84 899.29,-187.76"/>
<polygon fill="midnightblue" stroke="midnightblue" points="899.83,-184.3 889.39,-186.08 898.66,-191.2 899.83,-184.3"/>
</g>
<!-- Node10 -->
<g id="node9" class="node">
<title>Node10</title>
<g id="a_node9"><a xlink:title=" ">
<polygon fill="white" stroke="#bfbfbf" points="2170.38,-168.5 2170.38,-187.5 2217.38,-187.5 2217.38,-168.5 2170.38,-168.5"/>
<text text-anchor="middle" x="2193.88" y="-175.5" font-family="FreeSans" font-size="10.00">fcntl.h</text>
</a>
</g>
</g>
<!-- Node2&#45;&gt;Node10 -->
<g id="edge8" class="edge">
<title>Node2&#45;&gt;Node10</title>
<path fill="none" stroke="midnightblue" d="M1467.42,-225.12C1470.61,-224.7 1473.79,-224.32 1476.88,-224 1776.82,-192.52 1859.31,-236.61 2160.36,-187.9"/>
<polygon fill="midnightblue" stroke="midnightblue" points="2160.94,-191.35 2170.24,-186.28 2159.81,-184.44 2160.94,-191.35"/>
</g>
<!-- Node11 -->
<g id="node10" class="node">
<title>Node11</title>
<g id="a_node10"><a xlink:title=" ">
<polygon fill="white" stroke="#bfbfbf" points="2235.38,-168.5 2235.38,-187.5 2286.38,-187.5 2286.38,-168.5 2235.38,-168.5"/>
<text text-anchor="middle" x="2260.88" y="-175.5" font-family="FreeSans" font-size="10.00">math.h</text>
</a>
</g>
</g>
<!-- Node2&#45;&gt;Node11 -->
<g id="edge9" class="edge">
<title>Node2&#45;&gt;Node11</title>
<path fill="none" stroke="midnightblue" d="M1467.41,-225.1C1470.61,-224.69 1473.79,-224.32 1476.88,-224 1805.45,-190.28 1895.24,-237.98 2224.69,-188.03"/>
<polygon fill="midnightblue" stroke="midnightblue" points="2225.66,-191.43 2235.01,-186.45 2224.59,-184.51 2225.66,-191.43"/>
</g>
<!-- Node12 -->
<g id="node11" class="node">
<title>Node12</title>
<g id="a_node11"><a xlink:title=" ">
<polygon fill="white" stroke="#bfbfbf" points="415.88,-56.5 415.88,-75.5 463.88,-75.5 463.88,-56.5 415.88,-56.5"/>
<text text-anchor="middle" x="439.88" y="-63.5" font-family="FreeSans" font-size="10.00">time.h</text>
</a>
</g>
</g>
<!-- Node2&#45;&gt;Node12 -->
<g id="edge10" class="edge">
<title>Node2&#45;&gt;Node12</title>
<path fill="none" stroke="midnightblue" d="M1372.28,-232.65C1295.76,-230.99 1141.26,-223.12 1015.88,-188 995.58,-182.31 992.94,-174.45 972.88,-168 763.17,-100.59 702.19,-117.59 485.88,-76 482.14,-75.28 478.24,-74.53 474.35,-73.77"/>
<polygon fill="midnightblue" stroke="midnightblue" points="474.71,-70.27 464.22,-71.79 473.37,-77.14 474.71,-70.27"/>
</g>
<!-- Node13 -->
<g id="node12" class="node">
<title>Node13</title>
<g id="a_node12"><a xlink:title=" ">
<polygon fill="white" stroke="#bfbfbf" points="2304.38,-168.5 2304.38,-187.5 2357.38,-187.5 2357.38,-168.5 2304.38,-168.5"/>
<text text-anchor="middle" x="2330.88" y="-175.5" font-family="FreeSans" font-size="10.00">limits.h</text>
</a>
</g>
</g>
<!-- Node2&#45;&gt;Node13 -->
<g id="edge11" class="edge">
<title>Node2&#45;&gt;Node13</title>
<path fill="none" stroke="midnightblue" d="M1467.41,-225.08C1470.61,-224.68 1473.79,-224.31 1476.88,-224 1836.13,-187.86 1933.74,-240.69 2294.32,-187.93"/>
<polygon fill="midnightblue" stroke="midnightblue" points="2294.86,-191.38 2304.24,-186.46 2293.84,-184.46 2294.86,-191.38"/>
</g>
<!-- Node14 -->
<g id="node13" class="node">
<title>Node14</title>
<g id="a_node13"><a xlink:title=" ">
<polygon fill="white" stroke="#bfbfbf" points="1058.38,-168.5 1058.38,-187.5 1113.38,-187.5 1113.38,-168.5 1058.38,-168.5"/>
<text text-anchor="middle" x="1085.88" y="-175.5" font-family="FreeSans" font-size="10.00">signal.h</text>
</a>
</g>
</g>
<!-- Node2&#45;&gt;Node14 -->
<g id="edge12" class="edge">
<title>Node2&#45;&gt;Node14</title>
<path fill="none" stroke="midnightblue" d="M1372.33,-227.11C1315.51,-219.78 1217.37,-206.2 1123.63,-188"/>
<polygon fill="midnightblue" stroke="midnightblue" points="1124.19,-184.54 1113.7,-186.05 1122.84,-191.41 1124.19,-184.54"/>
</g>
<!-- Node15 -->
<g id="node14" class="node">
<title>Node15</title>
<g id="a_node14"><a xlink:title=" ">
<polygon fill="white" stroke="#bfbfbf" points="907.88,-168.5 907.88,-187.5 963.88,-187.5 963.88,-168.5 907.88,-168.5"/>
<text text-anchor="middle" x="935.88" y="-175.5" font-family="FreeSans" font-size="10.00">assert.h</text>
</a>
</g>
</g>
<!-- Node2&#45;&gt;Node15 -->
<g id="edge13" class="edge">
<title>Node2&#45;&gt;Node15</title>
<path fill="none" stroke="midnightblue" d="M1372.24,-229.87C1290.98,-224.15 1120.55,-210.48 977.88,-188 976.64,-187.8 975.37,-187.59 974.1,-187.38"/>
<polygon fill="midnightblue" stroke="midnightblue" points="974.74,-183.93 964.27,-185.52 973.45,-190.81 974.74,-183.93"/>
</g>
<!-- Node16 -->
<g id="node15" class="node">
<title>Node16</title>
<g id="a_node15"><a xlink:href="method-attribute_8h.html" target="_top" xlink:title=" ">
<polygon fill="white" stroke="black" points="1131.88,-168.5 1131.88,-187.5 1279.88,-187.5 1279.88,-168.5 1131.88,-168.5"/>
<text text-anchor="middle" x="1205.88" y="-175.5" font-family="FreeSans" font-size="10.00">magick/method&#45;attribute.h</text>
</a>
</g>
</g>
<!-- Node2&#45;&gt;Node16 -->
<g id="edge14" class="edge">
<title>Node2&#45;&gt;Node16</title>
<path fill="none" stroke="midnightblue" d="M1385.97,-224.44C1349.03,-215.12 1289.82,-200.18 1249.46,-190"/>
<polygon fill="midnightblue" stroke="midnightblue" points="1250.18,-186.57 1239.63,-187.52 1248.47,-193.36 1250.18,-186.57"/>
</g>
<!-- Node17 -->
<g id="node16" class="node">
<title>Node17</title>
<g id="a_node16"><a xlink:title=" ">
<polygon fill="white" stroke="#bfbfbf" points="1297.88,-168.5 1297.88,-187.5 1369.88,-187.5 1369.88,-168.5 1297.88,-168.5"/>
<text text-anchor="middle" x="1333.88" y="-175.5" font-family="FreeSans" font-size="10.00">sys/types.h</text>
</a>
</g>
</g>
<!-- Node2&#45;&gt;Node17 -->
<g id="edge15" class="edge">
<title>Node2&#45;&gt;Node17</title>
<path fill="none" stroke="midnightblue" d="M1406.06,-224.32C1392.65,-215.9 1372.05,-202.97 1356.29,-193.07"/>
<polygon fill="midnightblue" stroke="midnightblue" points="1357.99,-190.01 1347.66,-187.65 1354.27,-195.94 1357.99,-190.01"/>
</g>
<!-- Node18 -->
<g id="node17" class="node">
<title>Node18</title>
<g id="a_node17"><a xlink:title=" ">
<polygon fill="white" stroke="#bfbfbf" points="1387.88,-168.5 1387.88,-187.5 1451.88,-187.5 1451.88,-168.5 1387.88,-168.5"/>
<text text-anchor="middle" x="1419.88" y="-175.5" font-family="FreeSans" font-size="10.00">sys/stat.h</text>
</a>
</g>
</g>
<!-- Node2&#45;&gt;Node18 -->
<g id="edge16" class="edge">
<title>Node2&#45;&gt;Node18</title>
<path fill="none" stroke="midnightblue" d="M1419.88,-224.08C1419.88,-217.01 1419.88,-206.86 1419.88,-197.99"/>
<polygon fill="midnightblue" stroke="midnightblue" points="1423.38,-197.75 1419.88,-187.75 1416.38,-197.75 1423.38,-197.75"/>
</g>
<!-- Node19 -->
<g id="node18" class="node">
<title>Node19</title>
<g id="a_node18"><a xlink:title=" ">
<polygon fill="white" stroke="#bfbfbf" points="1469.88,-168.5 1469.88,-187.5 1523.88,-187.5 1523.88,-168.5 1469.88,-168.5"/>
<text text-anchor="middle" x="1496.88" y="-175.5" font-family="FreeSans" font-size="10.00">dirent.h</text>
</a>
</g>
</g>
<!-- Node2&#45;&gt;Node19 -->
<g id="edge17" class="edge">
<title>Node2&#45;&gt;Node19</title>
<path fill="none" stroke="midnightblue" d="M1432.25,-224.32C1444.04,-216.06 1462.01,-203.45 1476.01,-193.63"/>
<polygon fill="midnightblue" stroke="midnightblue" points="1478.36,-196.26 1484.54,-187.65 1474.34,-190.53 1478.36,-196.26"/>
</g>
<!-- Node20 -->
<g id="node19" class="node">
<title>Node20</title>
<g id="a_node19"><a xlink:title=" ">
<polygon fill="white" stroke="#bfbfbf" points="1541.88,-168.5 1541.88,-187.5 1607.88,-187.5 1607.88,-168.5 1541.88,-168.5"/>
<text text-anchor="middle" x="1574.88" y="-175.5" font-family="FreeSans" font-size="10.00">sys/wait.h</text>
</a>
</g>
</g>
<!-- Node2&#45;&gt;Node20 -->
<g id="edge18" class="edge">
<title>Node2&#45;&gt;Node20</title>
<path fill="none" stroke="midnightblue" d="M1444.44,-224.44C1470.4,-215.4 1511.55,-201.06 1540.68,-190.92"/>
<polygon fill="midnightblue" stroke="midnightblue" points="1542.14,-194.11 1550.43,-187.52 1539.84,-187.5 1542.14,-194.11"/>
</g>
<!-- Node21 -->
<g id="node20" class="node">
<title>Node21</title>
<g id="a_node20"><a xlink:title=" ">
<polygon fill="white" stroke="#bfbfbf" points="1625.88,-168.5 1625.88,-187.5 1671.88,-187.5 1671.88,-168.5 1625.88,-168.5"/>
<text text-anchor="middle" x="1648.88" y="-175.5" font-family="FreeSans" font-size="10.00">pwd.h</text>
</a>
</g>
</g>
<!-- Node2&#45;&gt;Node21 -->
<g id="edge19" class="edge">
<title>Node2&#45;&gt;Node21</title>
<path fill="none" stroke="midnightblue" d="M1460.01,-224.44C1497.82,-216.25 1556.25,-203.23 1615.88,-188.16"/>
<polygon fill="midnightblue" stroke="midnightblue" points="1617.01,-191.48 1625.84,-185.63 1615.29,-184.7 1617.01,-191.48"/>
</g>
<!-- Node22 -->
<g id="node21" class="node">
<title>Node22</title>
<g id="a_node21"><a xlink:href="magick-type_8h.html" target="_top" xlink:title=" ">
<polygon fill="white" stroke="black" points="1813.88,-168.5 1813.88,-187.5 1939.88,-187.5 1939.88,-168.5 1813.88,-168.5"/>
<text text-anchor="middle" x="1876.88" y="-175.5" font-family="FreeSans" font-size="10.00">magick/magick&#45;type.h</text>
</a>
</g>
</g>
<!-- Node2&#45;&gt;Node22 -->
<g id="edge20" class="edge">
<title>Node2&#45;&gt;Node22</title>
<path fill="none" stroke="midnightblue" d="M1467.44,-225.32C1470.63,-224.86 1473.8,-224.41 1476.88,-224 1620.03,-204.73 1656.37,-204.38 1799.88,-188 1801.16,-187.85 1802.45,-187.71 1803.75,-187.56"/>
<polygon fill="midnightblue" stroke="midnightblue" points="1804.31,-191.02 1813.85,-186.39 1803.51,-184.06 1804.31,-191.02"/>
</g>
<!-- Node23 -->
<g id="node22" class="node">
<title>Node23</title>
<g id="a_node22"><a xlink:title=" ">
<polygon fill="white" stroke="#bfbfbf" points="1689.88,-168.5 1689.88,-187.5 1757.88,-187.5 1757.88,-168.5 1689.88,-168.5"/>
<text text-anchor="middle" x="1723.88" y="-175.5" font-family="FreeSans" font-size="10.00">sys/time.h</text>
</a>
</g>
</g>
<!-- Node2&#45;&gt;Node23 -->
<g id="edge22" class="edge">
<title>Node2&#45;&gt;Node23</title>
<path fill="none" stroke="midnightblue" d="M1467.6,-225.3C1517.85,-217.07 1599.53,-203.36 1679.4,-188.23"/>
<polygon fill="midnightblue" stroke="midnightblue" points="1680.46,-191.59 1689.63,-186.28 1679.15,-184.71 1680.46,-191.59"/>
</g>
<!-- Node22&#45;&gt;Node3 -->
<g id="edge21" class="edge">
<title>Node22&#45;&gt;Node3</title>
<path fill="none" stroke="midnightblue" d="M1869.28,-168.08C1862.65,-160.3 1852.86,-148.8 1844.82,-139.37"/>
<polygon fill="midnightblue" stroke="midnightblue" points="1847.48,-137.09 1838.33,-131.75 1842.15,-141.63 1847.48,-137.09"/>
</g>
<!-- Node25 -->
<g id="node24" class="node">
<title>Node25</title>
<g id="a_node24"><a xlink:href="image_8h.html" target="_top" xlink:title=" ">
<polygon fill="white" stroke="red" points="642.38,-224.5 642.38,-243.5 737.38,-243.5 737.38,-224.5 642.38,-224.5"/>
<text text-anchor="middle" x="689.88" y="-231.5" font-family="FreeSans" font-size="10.00">magick/image.h</text>
</a>
</g>
</g>
<!-- Node24&#45;&gt;Node25 -->
<g id="edge24" class="edge">
<title>Node24&#45;&gt;Node25</title>
<path fill="none" stroke="midnightblue" d="M687.22,-280.08C685.33,-273.01 684.33,-262.86 684.45,-253.99"/>
<polygon fill="midnightblue" stroke="midnightblue" points="687.96,-253.99 685.23,-243.75 680.98,-253.46 687.96,-253.99"/>
</g>
<!-- Node48 -->
<g id="node26" class="node">
<title>Node48</title>
<g id="a_node26"><a xlink:href="stream_8h.html" target="_top" xlink:title=" ">
<polygon fill="white" stroke="black" points="536.38,-168.5 536.38,-187.5 635.38,-187.5 635.38,-168.5 536.38,-168.5"/>
<text text-anchor="middle" x="585.88" y="-175.5" font-family="FreeSans" font-size="10.00">magick/stream.h</text>
</a>
</g>
</g>
<!-- Node24&#45;&gt;Node48 -->
<g id="edge29" class="edge">
<title>Node24&#45;&gt;Node48</title>
<path fill="none" stroke="midnightblue" d="M679.08,-280.4C666.28,-272.03 647.12,-258.49 632.88,-244 618.44,-229.31 605,-209.9 596.22,-196.13"/>
<polygon fill="midnightblue" stroke="midnightblue" points="599.19,-194.27 590.94,-187.62 593.24,-197.96 599.19,-194.27"/>
</g>
<!-- Node25&#45;&gt;Node24 -->
<g id="edge25" class="edge">
<title>Node25&#45;&gt;Node24</title>
<path fill="none" stroke="midnightblue" d="M695.5,-243.75C697.42,-250.86 698.43,-261.14 698.3,-270.1"/>
<polygon fill="midnightblue" stroke="midnightblue" points="694.81,-269.85 697.55,-280.08 701.79,-270.37 694.81,-269.85"/>
</g>
<!-- Node25&#45;&gt;Node31 -->
<g id="edge26" class="edge">
<title>Node25&#45;&gt;Node31</title>
<path fill="none" stroke="midnightblue" d="M688.43,-224.35C683.02,-192.84 663.38,-84.59 643.88,-56 634.95,-42.91 620.91,-32.27 608.45,-24.62"/>
<polygon fill="midnightblue" stroke="midnightblue" points="610.16,-21.56 599.75,-19.59 606.65,-27.62 610.16,-21.56"/>
</g>
<!-- Node25&#45;&gt;Node48 -->
<g id="edge27" class="edge">
<title>Node25&#45;&gt;Node48</title>
<path fill="none" stroke="midnightblue" d="M673.17,-224.32C656.57,-215.7 630.88,-202.36 611.66,-192.39"/>
<polygon fill="midnightblue" stroke="midnightblue" points="613.03,-189.16 602.55,-187.65 609.81,-195.37 613.03,-189.16"/>
</g>
<!-- Node25&#45;&gt;Node49 -->
<g id="edge28" class="edge">
<title>Node25&#45;&gt;Node49</title>
<path fill="none" stroke="midnightblue" d="M697.64,-224.08C704.41,-216.3 714.42,-204.8 722.63,-195.37"/>
<polygon fill="midnightblue" stroke="midnightblue" points="725.34,-197.59 729.26,-187.75 720.06,-193 725.34,-197.59"/>
</g>
<!-- Node51&#45;&gt;Node40 -->
<g id="edge32" class="edge">
<title>Node51&#45;&gt;Node40</title>
<path fill="none" stroke="midnightblue" d="M1166.03,-281.17C1169.02,-280.77 1171.99,-280.38 1174.88,-280 1305.22,-263.04 1340.55,-261.32 1475.27,-244.05"/>
<polygon fill="midnightblue" stroke="midnightblue" points="1476.1,-247.48 1485.57,-242.73 1475.2,-240.53 1476.1,-247.48"/>
</g>
<!-- Node30&#45;&gt;Node5 -->
<g id="edge34" class="edge">
<title>Node30&#45;&gt;Node5</title>
<path fill="none" stroke="midnightblue" d="M293.81,-56.08C299.81,-48.38 308.63,-37.03 315.93,-27.65"/>
<polygon fill="midnightblue" stroke="midnightblue" points="318.7,-29.79 322.07,-19.75 313.17,-25.5 318.7,-29.79"/>
</g>
<!-- Node30&#45;&gt;Node31 -->
<g id="edge35" class="edge">
<title>Node30&#45;&gt;Node31</title>
<path fill="none" stroke="midnightblue" d="M333.62,-56.44C385.62,-46.92 469.63,-31.55 525.3,-21.36"/>
<polygon fill="midnightblue" stroke="midnightblue" points="526.15,-24.76 535.35,-19.52 524.89,-17.87 526.15,-24.76"/>
</g>
<!-- Node52&#45;&gt;Node53 -->
<g id="edge37" class="edge">
<title>Node52&#45;&gt;Node53</title>
<path fill="none" stroke="midnightblue" d="M80.28,-168.08C73.65,-160.3 63.86,-148.8 55.82,-139.37"/>
<polygon fill="midnightblue" stroke="midnightblue" points="58.48,-137.09 49.33,-131.75 53.15,-141.63 58.48,-137.09"/>
</g>
<!-- Node54 -->
<g id="node34" class="node">
<title>Node54</title>
<g id="a_node34"><a xlink:href="magick_8h.html" target="_top" xlink:title=" ">
<polygon fill="white" stroke="black" points="111.38,-56.5 111.38,-75.5 212.38,-75.5 212.38,-56.5 111.38,-56.5"/>
<text text-anchor="middle" x="161.88" y="-63.5" font-family="FreeSans" font-size="10.00">magick/magick.h</text>
</a>
</g>
</g>
<!-- Node52&#45;&gt;Node54 -->
<g id="edge40" class="edge">
<title>Node52&#45;&gt;Node54</title>
<path fill="none" stroke="midnightblue" d="M93,-168.46C100.58,-155.92 115.36,-131.85 128.88,-112 135.28,-102.59 142.76,-92.34 148.98,-84"/>
<polygon fill="midnightblue" stroke="midnightblue" points="151.91,-85.93 155.12,-75.83 146.31,-81.72 151.91,-85.93"/>
</g>
<!-- Node52&#45;&gt;Node43 -->
<g id="edge43" class="edge">
<title>Node52&#45;&gt;Node43</title>
<path fill="none" stroke="midnightblue" d="M130.98,-168.44C178.73,-158.96 255.74,-143.67 307.07,-133.48"/>
<polygon fill="midnightblue" stroke="midnightblue" points="307.85,-136.9 316.98,-131.52 306.49,-130.03 307.85,-136.9"/>
</g>
<!-- Node53&#45;&gt;Node5 -->
<g id="edge38" class="edge">
<title>Node53&#45;&gt;Node5</title>
<path fill="none" stroke="midnightblue" d="M47.29,-112.21C56.58,-97.95 76.96,-69.96 101.88,-56 162,-22.33 243.47,-13.57 290.68,-11.47"/>
<polygon fill="midnightblue" stroke="midnightblue" points="290.92,-14.96 300.78,-11.09 290.66,-7.96 290.92,-14.96"/>
</g>
<!-- Node53&#45;&gt;Node30 -->
<g id="edge39" class="edge">
<title>Node53&#45;&gt;Node30</title>
<path fill="none" stroke="midnightblue" d="M80.7,-112.44C123.44,-103.02 192.21,-87.87 238.44,-77.68"/>
<polygon fill="midnightblue" stroke="midnightblue" points="239.23,-81.09 248.24,-75.52 237.72,-74.25 239.23,-81.09"/>
</g>
<!-- Node54&#45;&gt;Node5 -->
<g id="edge41" class="edge">
<title>Node54&#45;&gt;Node5</title>
<path fill="none" stroke="midnightblue" d="M188.34,-56.44C216.56,-47.32 261.42,-32.81 292.85,-22.65"/>
<polygon fill="midnightblue" stroke="midnightblue" points="294.1,-25.92 302.54,-19.52 291.95,-19.26 294.1,-25.92"/>
</g>
<!-- Node54&#45;&gt;Node31 -->
<g id="edge42" class="edge">
<title>Node54&#45;&gt;Node31</title>
<path fill="none" stroke="midnightblue" d="M212.4,-57.2C215.26,-56.79 218.11,-56.38 220.88,-56 322.01,-41.99 439.36,-27.73 512.12,-19.12"/>
<polygon fill="midnightblue" stroke="midnightblue" points="512.57,-22.59 522.09,-17.95 511.75,-15.64 512.57,-22.59"/>
</g>
<!-- Node43&#45;&gt;Node5 -->
<g id="edge44" class="edge">
<title>Node43&#45;&gt;Node5</title>
<path fill="none" stroke="midnightblue" d="M359.77,-112.39C359.4,-99.75 357.88,-75.57 351.88,-56 348.95,-46.46 344.09,-36.51 339.58,-28.4"/>
<polygon fill="midnightblue" stroke="midnightblue" points="342.49,-26.44 334.42,-19.58 336.45,-29.98 342.49,-26.44"/>
</g>
<!-- Node43&#45;&gt;Node12 -->
<g id="edge45" class="edge">
<title>Node43&#45;&gt;Node12</title>
<path fill="none" stroke="midnightblue" d="M372.73,-112.32C385.09,-103.98 404.01,-91.21 418.62,-81.35"/>
<polygon fill="midnightblue" stroke="midnightblue" points="420.73,-84.15 427.06,-75.65 416.81,-78.35 420.73,-84.15"/>
</g>
<!-- Node43&#45;&gt;Node30 -->
<g id="edge46" class="edge">
<title>Node43&#45;&gt;Node30</title>
<path fill="none" stroke="midnightblue" d="M348.15,-112.32C337.04,-104.11 320.14,-91.6 306.89,-81.81"/>
<polygon fill="midnightblue" stroke="midnightblue" points="308.94,-78.97 298.82,-75.83 304.78,-84.59 308.94,-78.97"/>
</g>
<!-- Node55&#45;&gt;Node9 -->
<g id="edge50" class="edge">
<title>Node55&#45;&gt;Node9</title>
<path fill="none" stroke="midnightblue" d="M883.92,-224.08C880.66,-216.77 875.96,-206.18 871.92,-197.1"/>
<polygon fill="midnightblue" stroke="midnightblue" points="875.03,-195.47 867.77,-187.75 868.63,-198.31 875.03,-195.47"/>
</g>
<!-- Node55&#45;&gt;Node15 -->
<g id="edge51" class="edge">
<title>Node55&#45;&gt;Node15</title>
<path fill="none" stroke="midnightblue" d="M895.8,-224.08C902.72,-216.3 912.94,-204.8 921.33,-195.37"/>
<polygon fill="midnightblue" stroke="midnightblue" points="924.07,-197.55 928.1,-187.75 918.84,-192.9 924.07,-197.55"/>
</g>
<!-- Node56&#45;&gt;Node30 -->
<g id="edge58" class="edge">
<title>Node56&#45;&gt;Node30</title>
<path fill="none" stroke="midnightblue" d="M470.7,-224.39C467.18,-202.06 454.59,-141.97 417.88,-112 397.58,-95.43 370.82,-84.81 346.78,-78.08"/>
<polygon fill="midnightblue" stroke="midnightblue" points="347.58,-74.67 337.02,-75.51 345.8,-81.44 347.58,-74.67"/>
</g>
<!-- Node57 -->
<g id="node38" class="node">
<title>Node57</title>
<g id="a_node38"><a xlink:href="delegate_8h.html" target="_top" xlink:title=" ">
<polygon fill="white" stroke="black" points="528.38,-56.5 528.38,-75.5 635.38,-75.5 635.38,-56.5 528.38,-56.5"/>
<text text-anchor="middle" x="581.88" y="-63.5" font-family="FreeSans" font-size="10.00">magick/delegate.h</text>
</a>
</g>
</g>
<!-- Node56&#45;&gt;Node57 -->
<g id="edge53" class="edge">
<title>Node56&#45;&gt;Node57</title>
<path fill="none" stroke="midnightblue" d="M477.79,-224.08C495.33,-197.61 547.28,-119.21 570.47,-84.21"/>
<polygon fill="midnightblue" stroke="midnightblue" points="573.59,-85.84 576.2,-75.57 567.76,-81.97 573.59,-85.84"/>
</g>
<!-- Node58 -->
<g id="node39" class="node">
<title>Node58</title>
<g id="a_node39"><a xlink:href="delegate-private_8h.html" target="_top" xlink:title=" ">
<polygon fill="white" stroke="black" points="295.88,-168.5 295.88,-187.5 441.88,-187.5 441.88,-168.5 295.88,-168.5"/>
<text text-anchor="middle" x="368.88" y="-175.5" font-family="FreeSans" font-size="10.00">magick/delegate&#45;private.h</text>
</a>
</g>
</g>
<!-- Node56&#45;&gt;Node58 -->
<g id="edge56" class="edge">
<title>Node56&#45;&gt;Node58</title>
<path fill="none" stroke="midnightblue" d="M455.33,-224.32C438.89,-215.7 413.44,-202.36 394.41,-192.39"/>
<polygon fill="midnightblue" stroke="midnightblue" points="395.87,-189.2 385.39,-187.65 392.62,-195.4 395.87,-189.2"/>
</g>
<!-- Node57&#45;&gt;Node5 -->
<g id="edge54" class="edge">
<title>Node57&#45;&gt;Node5</title>
<path fill="none" stroke="midnightblue" d="M541.79,-56.44C493.76,-46.19 413.9,-29.15 366.83,-19.1"/>
<polygon fill="midnightblue" stroke="midnightblue" points="367.54,-15.67 357.03,-17.01 366.08,-22.52 367.54,-15.67"/>
</g>
<!-- Node57&#45;&gt;Node31 -->
<g id="edge55" class="edge">
<title>Node57&#45;&gt;Node31</title>
<path fill="none" stroke="midnightblue" d="M581.88,-56.08C581.88,-49.01 581.88,-38.86 581.88,-29.99"/>
<polygon fill="midnightblue" stroke="midnightblue" points="585.38,-29.75 581.88,-19.75 578.38,-29.75 585.38,-29.75"/>
</g>
<!-- Node58&#45;&gt;Node43 -->
<g id="edge57" class="edge">
<title>Node58&#45;&gt;Node43</title>
<path fill="none" stroke="midnightblue" d="M367.39,-168.08C366.2,-160.93 364.48,-150.64 362.99,-141.69"/>
<polygon fill="midnightblue" stroke="midnightblue" points="366.43,-141.04 361.34,-131.75 359.53,-142.19 366.43,-141.04"/>
</g>
<!-- Node65&#45;&gt;Node64 -->
<g id="edge67" class="edge">
<title>Node65&#45;&gt;Node64</title>
<path fill="none" stroke="midnightblue" d="M1662.37,-280.08C1662.77,-273.01 1663.33,-262.86 1663.82,-253.99"/>
<polygon fill="midnightblue" stroke="midnightblue" points="1667.33,-253.93 1664.39,-243.75 1660.34,-253.54 1667.33,-253.93"/>
</g>
<!-- Node71&#45;&gt;Node55 -->
<g id="edge71" class="edge">
<title>Node71&#45;&gt;Node55</title>
<path fill="none" stroke="midnightblue" d="M616.9,-280.44C673.9,-270.89 766.12,-255.42 826.88,-245.23"/>
<polygon fill="midnightblue" stroke="midnightblue" points="827.81,-248.62 837.1,-243.52 826.65,-241.72 827.81,-248.62"/>
</g>
<!-- Node71&#45;&gt;Node56 -->
<g id="edge72" class="edge">
<title>Node71&#45;&gt;Node56</title>
<path fill="none" stroke="midnightblue" d="M550.78,-280.32C535.97,-271.82 513.18,-258.73 495.9,-248.8"/>
<polygon fill="midnightblue" stroke="midnightblue" points="497.36,-245.6 486.94,-243.65 493.87,-251.67 497.36,-245.6"/>
</g>
<!-- Node74&#45;&gt;Node30 -->
<g id="edge75" class="edge">
<title>Node74&#45;&gt;Node30</title>
<path fill="none" stroke="midnightblue" d="M207.14,-112.32C222.1,-103.82 245.13,-90.73 262.6,-80.8"/>
<polygon fill="midnightblue" stroke="midnightblue" points="264.69,-83.64 271.65,-75.65 261.23,-77.55 264.69,-83.64"/>
</g>
</g>
</svg>
