<?xml version="1.0" encoding="UTF-8" standalone="no"?>
<!DOCTYPE svg PUBLIC "-//W3C//DTD SVG 1.1//EN"
 "http://www.w3.org/Graphics/SVG/1.1/DTD/svg11.dtd">
<!-- Generated by graphviz version 2.43.0 (0)
 -->
<!-- Title: log.h Pages: 1 -->
<svg width="202pt" height="140pt"
 viewBox="0.00 0.00 201.50 140.00" xmlns="http://www.w3.org/2000/svg" xmlns:xlink="http://www.w3.org/1999/xlink">
<g id="graph0" class="graph" transform="scale(1 1) rotate(0) translate(4 136)">
<title>log.h</title>
<polygon fill="white" stroke="transparent" points="-4,4 -4,-136 197.5,-136 197.5,4 -4,4"/>
<!-- Node1 -->
<g id="node1" class="node">
<title>Node1</title>
<g id="a_node1"><a xlink:title=" ">
<polygon fill="#bfbfbf" stroke="black" points="49.5,-112.5 49.5,-131.5 90.5,-131.5 90.5,-112.5 49.5,-112.5"/>
<text text-anchor="middle" x="70" y="-119.5" font-family="FreeSans" font-size="10.00">log.h</text>
</a>
</g>
</g>
<!-- Node2 -->
<g id="node2" class="node">
<title>Node2</title>
<g id="a_node2"><a xlink:title=" ">
<polygon fill="white" stroke="#bfbfbf" points="0,-0.5 0,-19.5 56,-19.5 56,-0.5 0,-0.5"/>
<text text-anchor="middle" x="28" y="-7.5" font-family="FreeSans" font-size="10.00">stdarg.h</text>
</a>
</g>
</g>
<!-- Node1&#45;&gt;Node2 -->
<g id="edge1" class="edge">
<title>Node1&#45;&gt;Node2</title>
<path fill="none" stroke="midnightblue" d="M65.2,-112.22C60.43,-103.28 53.12,-88.94 48,-76 41.89,-60.56 36.46,-42.47 32.8,-29.3"/>
<polygon fill="midnightblue" stroke="midnightblue" points="36.16,-28.3 30.17,-19.56 29.4,-30.13 36.16,-28.3"/>
</g>
<!-- Node3 -->
<g id="node3" class="node">
<title>Node3</title>
<g id="a_node3"><a xlink:href="exception_8h.html" target="_top" xlink:title=" ">
<polygon fill="white" stroke="black" points="56.5,-56.5 56.5,-75.5 169.5,-75.5 169.5,-56.5 56.5,-56.5"/>
<text text-anchor="middle" x="113" y="-63.5" font-family="FreeSans" font-size="10.00">magick/exception.h</text>
</a>
</g>
</g>
<!-- Node1&#45;&gt;Node3 -->
<g id="edge2" class="edge">
<title>Node1&#45;&gt;Node3</title>
<path fill="none" stroke="midnightblue" d="M77.1,-112.08C83.24,-104.38 92.27,-93.03 99.74,-83.65"/>
<polygon fill="midnightblue" stroke="midnightblue" points="102.54,-85.75 106.03,-75.75 97.06,-81.39 102.54,-85.75"/>
</g>
<!-- Node3&#45;&gt;Node2 -->
<g id="edge3" class="edge">
<title>Node3&#45;&gt;Node2</title>
<path fill="none" stroke="midnightblue" d="M99.34,-56.32C86.08,-47.9 65.73,-34.97 50.15,-25.07"/>
<polygon fill="midnightblue" stroke="midnightblue" points="51.94,-22.06 41.62,-19.65 48.19,-27.97 51.94,-22.06"/>
</g>
<!-- Node4 -->
<g id="node4" class="node">
<title>Node4</title>
<g id="a_node4"><a xlink:href="semaphore_8h.html" target="_top" xlink:title=" ">
<polygon fill="white" stroke="black" points="74.5,-0.5 74.5,-19.5 193.5,-19.5 193.5,-0.5 74.5,-0.5"/>
<text text-anchor="middle" x="134" y="-7.5" font-family="FreeSans" font-size="10.00">magick/semaphore.h</text>
</a>
</g>
</g>
<!-- Node3&#45;&gt;Node4 -->
<g id="edge4" class="edge">
<title>Node3&#45;&gt;Node4</title>
<path fill="none" stroke="midnightblue" d="M116.47,-56.08C119.31,-48.77 123.43,-38.18 126.96,-29.1"/>
<polygon fill="midnightblue" stroke="midnightblue" points="130.23,-30.34 130.6,-19.75 123.71,-27.8 130.23,-30.34"/>
</g>
</g>
</svg>
