<?xml version="1.0" encoding="UTF-8" standalone="no"?>
<!DOCTYPE svg PUBLIC "-//W3C//DTD SVG 1.1//EN"
 "http://www.w3.org/Graphics/SVG/1.1/DTD/svg11.dtd">
<!-- Generated by graphviz version 2.43.0 (0)
 -->
<!-- Title: magick&#45;config.h Pages: 1 -->
<svg width="3469pt" height="252pt"
 viewBox="0.00 0.00 3468.50 252.00" xmlns="http://www.w3.org/2000/svg" xmlns:xlink="http://www.w3.org/1999/xlink">
<g id="graph0" class="graph" transform="scale(1 1) rotate(0) translate(4 248)">
<title>magick&#45;config.h</title>
<polygon fill="white" stroke="transparent" points="-4,4 -4,-248 3464.5,-248 3464.5,4 -4,4"/>
<!-- Node1 -->
<g id="node1" class="node">
<title>Node1</title>
<g id="a_node1"><a xlink:title=" ">
<polygon fill="#bfbfbf" stroke="black" points="825,-224.5 825,-243.5 920,-243.5 920,-224.5 825,-224.5"/>
<text text-anchor="middle" x="872.5" y="-231.5" font-family="FreeSans" font-size="10.00">magick&#45;config.h</text>
</a>
</g>
</g>
<!-- Node2 -->
<g id="node2" class="node">
<title>Node2</title>
<g id="a_node2"><a xlink:href="MagickCore_8h.html" target="_top" xlink:title=" ">
<polygon fill="white" stroke="black" points="21,-56.5 21,-75.5 104,-75.5 104,-56.5 21,-56.5"/>
<text text-anchor="middle" x="62.5" y="-63.5" font-family="FreeSans" font-size="10.00">MagickCore.h</text>
</a>
</g>
</g>
<!-- Node1&#45;&gt;Node2 -->
<g id="edge1" class="edge">
<title>Node1&#45;&gt;Node2</title>
<path fill="none" stroke="midnightblue" d="M814.82,-227.63C702.49,-216.34 447.11,-186.57 238.5,-132 180.04,-116.71 113.89,-89.45 81.89,-75.59"/>
<polygon fill="midnightblue" stroke="midnightblue" points="814.62,-231.13 824.92,-228.64 815.32,-224.16 814.62,-231.13"/>
</g>
<!-- Node6 -->
<g id="node6" class="node">
<title>Node6</title>
<g id="a_node6"><a xlink:href="deprecate_8h.html" target="_top" xlink:title=" ">
<polygon fill="white" stroke="black" points="353.5,-112.5 353.5,-131.5 427.5,-131.5 427.5,-112.5 353.5,-112.5"/>
<text text-anchor="middle" x="390.5" y="-119.5" font-family="FreeSans" font-size="10.00">deprecate.h</text>
</a>
</g>
</g>
<!-- Node1&#45;&gt;Node6 -->
<g id="edge5" class="edge">
<title>Node1&#45;&gt;Node6</title>
<path fill="none" stroke="midnightblue" d="M872.37,-214.05C871.17,-199.15 866.92,-179.11 853.5,-168 820.92,-141.02 531.59,-128.06 427.55,-124.24"/>
<polygon fill="midnightblue" stroke="midnightblue" points="868.88,-214.36 872.79,-224.21 875.87,-214.07 868.88,-214.36"/>
</g>
<!-- Node14 -->
<g id="node14" class="node">
<title>Node14</title>
<g id="a_node14"><a xlink:href="magick-type_8h.html" target="_top" xlink:title=" ">
<polygon fill="white" stroke="black" points="757,-168.5 757,-187.5 844,-187.5 844,-168.5 757,-168.5"/>
<text text-anchor="middle" x="800.5" y="-175.5" font-family="FreeSans" font-size="10.00">magick&#45;type.h</text>
</a>
</g>
</g>
<!-- Node1&#45;&gt;Node14 -->
<g id="edge14" class="edge">
<title>Node1&#45;&gt;Node14</title>
<path fill="none" stroke="midnightblue" d="M852.63,-218.1C839.68,-208.38 823.2,-196.03 812.28,-187.83"/>
<polygon fill="midnightblue" stroke="midnightblue" points="850.83,-221.12 860.93,-224.32 855.03,-215.52 850.83,-221.12"/>
</g>
<!-- Node15 -->
<g id="node15" class="node">
<title>Node15</title>
<g id="a_node15"><a xlink:href="studio_8h.html" target="_top" xlink:title=" ">
<polygon fill="white" stroke="red" points="1694.5,-112.5 1694.5,-131.5 1750.5,-131.5 1750.5,-112.5 1694.5,-112.5"/>
<text text-anchor="middle" x="1722.5" y="-119.5" font-family="FreeSans" font-size="10.00">studio.h</text>
</a>
</g>
</g>
<!-- Node1&#45;&gt;Node15 -->
<g id="edge79" class="edge">
<title>Node1&#45;&gt;Node15</title>
<path fill="none" stroke="midnightblue" d="M930.05,-225.55C1096.24,-204.05 1572.79,-142.37 1694.12,-126.67"/>
<polygon fill="midnightblue" stroke="midnightblue" points="929.49,-222.1 920.02,-226.85 930.39,-229.04 929.49,-222.1"/>
</g>
<!-- Node104 -->
<g id="node50" class="node">
<title>Node104</title>
<g id="a_node50"><a xlink:href="memory-private_8h.html" target="_top" xlink:title=" ">
<polygon fill="white" stroke="black" points="2578,-112.5 2578,-131.5 2683,-131.5 2683,-112.5 2578,-112.5"/>
<text text-anchor="middle" x="2630.5" y="-119.5" font-family="FreeSans" font-size="10.00">memory&#45;private.h</text>
</a>
</g>
</g>
<!-- Node1&#45;&gt;Node104 -->
<g id="edge59" class="edge">
<title>Node1&#45;&gt;Node104</title>
<path fill="none" stroke="midnightblue" d="M930.76,-229.35C1199.97,-212.51 2321.24,-142.35 2577.97,-126.29"/>
<polygon fill="midnightblue" stroke="midnightblue" points="930.2,-225.88 920.43,-230 930.63,-232.87 930.2,-225.88"/>
</g>
<!-- Node3 -->
<g id="node3" class="node">
<title>Node3</title>
<g id="a_node3"><a xlink:href="ImageMagick_8h.html" target="_top" xlink:title=" ">
<polygon fill="white" stroke="black" points="59.5,-0.5 59.5,-19.5 151.5,-19.5 151.5,-0.5 59.5,-0.5"/>
<text text-anchor="middle" x="105.5" y="-7.5" font-family="FreeSans" font-size="10.00">ImageMagick.h</text>
</a>
</g>
</g>
<!-- Node2&#45;&gt;Node3 -->
<g id="edge2" class="edge">
<title>Node2&#45;&gt;Node3</title>
<path fill="none" stroke="midnightblue" d="M75.92,-48.14C83.41,-38.74 92.44,-27.4 98.53,-19.75"/>
<polygon fill="midnightblue" stroke="midnightblue" points="73.09,-46.08 69.6,-56.08 78.57,-50.44 73.09,-46.08"/>
</g>
<!-- Node4 -->
<g id="node4" class="node">
<title>Node4</title>
<g id="a_node4"><a xlink:href="api_8h.html" target="_top" xlink:title=" ">
<polygon fill="white" stroke="black" points="0,-0.5 0,-19.5 41,-19.5 41,-0.5 0,-0.5"/>
<text text-anchor="middle" x="20.5" y="-7.5" font-family="FreeSans" font-size="10.00">api.h</text>
</a>
</g>
</g>
<!-- Node2&#45;&gt;Node4 -->
<g id="edge3" class="edge">
<title>Node2&#45;&gt;Node4</title>
<path fill="none" stroke="midnightblue" d="M49.39,-48.14C42.07,-38.74 33.26,-27.4 27.31,-19.75"/>
<polygon fill="midnightblue" stroke="midnightblue" points="46.66,-50.34 55.56,-56.08 52.19,-46.04 46.66,-50.34"/>
</g>
<!-- Node5 -->
<g id="node5" class="node">
<title>Node5</title>
<g id="a_node5"><a xlink:href="image-view_8c.html" target="_top" xlink:title=" ">
<polygon fill="white" stroke="black" points="643,-0.5 643,-19.5 724,-19.5 724,-0.5 643,-0.5"/>
<text text-anchor="middle" x="683.5" y="-7.5" font-family="FreeSans" font-size="10.00">image&#45;view.c</text>
</a>
</g>
</g>
<!-- Node2&#45;&gt;Node5 -->
<g id="edge4" class="edge">
<title>Node2&#45;&gt;Node5</title>
<path fill="none" stroke="midnightblue" d="M114.19,-55.89C318.13,-30.02 550.6,-17.22 642.86,-12.81"/>
<polygon fill="midnightblue" stroke="midnightblue" points="113.67,-52.43 104.19,-57.18 114.56,-59.37 113.67,-52.43"/>
</g>
<!-- Node6&#45;&gt;Node2 -->
<g id="edge6" class="edge">
<title>Node6&#45;&gt;Node2</title>
<path fill="none" stroke="midnightblue" d="M342.93,-113.56C287.54,-104.84 193.32,-89.81 112.5,-76 109.8,-75.54 107.03,-75.06 104.23,-74.57"/>
<polygon fill="midnightblue" stroke="midnightblue" points="342.72,-117.07 353.14,-115.17 343.81,-110.16 342.72,-117.07"/>
</g>
<!-- Node7 -->
<g id="node7" class="node">
<title>Node7</title>
<g id="a_node7"><a xlink:href="attribute_8c.html" target="_top" xlink:title=" ">
<polygon fill="white" stroke="black" points="122,-56.5 122,-75.5 189,-75.5 189,-56.5 122,-56.5"/>
<text text-anchor="middle" x="155.5" y="-63.5" font-family="FreeSans" font-size="10.00">attribute.c</text>
</a>
</g>
</g>
<!-- Node6&#45;&gt;Node7 -->
<g id="edge7" class="edge">
<title>Node6&#45;&gt;Node7</title>
<path fill="none" stroke="midnightblue" d="M343.31,-110.16C297.64,-99.66 229.56,-84.02 189.14,-74.73"/>
<polygon fill="midnightblue" stroke="midnightblue" points="342.73,-113.62 353.26,-112.44 344.3,-106.79 342.73,-113.62"/>
</g>
<!-- Node8 -->
<g id="node8" class="node">
<title>Node8</title>
<g id="a_node8"><a xlink:href="deprecate_8c.html" target="_top" xlink:title=" ">
<polygon fill="white" stroke="black" points="440.5,-56.5 440.5,-75.5 514.5,-75.5 514.5,-56.5 440.5,-56.5"/>
<text text-anchor="middle" x="477.5" y="-63.5" font-family="FreeSans" font-size="10.00">deprecate.c</text>
</a>
</g>
</g>
<!-- Node6&#45;&gt;Node8 -->
<g id="edge8" class="edge">
<title>Node6&#45;&gt;Node8</title>
<path fill="none" stroke="midnightblue" d="M413.22,-106.9C429.17,-97 450,-84.07 463.56,-75.65"/>
<polygon fill="midnightblue" stroke="midnightblue" points="411.13,-104.08 404.48,-112.32 414.82,-110.02 411.13,-104.08"/>
</g>
<!-- Node9 -->
<g id="node9" class="node">
<title>Node9</title>
<g id="a_node9"><a xlink:href="feature_8c.html" target="_top" xlink:title=" ">
<polygon fill="white" stroke="black" points="532.5,-56.5 532.5,-75.5 592.5,-75.5 592.5,-56.5 532.5,-56.5"/>
<text text-anchor="middle" x="562.5" y="-63.5" font-family="FreeSans" font-size="10.00">feature.c</text>
</a>
</g>
</g>
<!-- Node6&#45;&gt;Node9 -->
<g id="edge9" class="edge">
<title>Node6&#45;&gt;Node9</title>
<path fill="none" stroke="midnightblue" d="M427.33,-109.44C459.76,-99.26 506.24,-84.66 535.37,-75.52"/>
<polygon fill="midnightblue" stroke="midnightblue" points="426.25,-106.11 417.75,-112.44 428.34,-112.79 426.25,-106.11"/>
</g>
<!-- Node10 -->
<g id="node10" class="node">
<title>Node10</title>
<g id="a_node10"><a xlink:href="image_8c.html" target="_top" xlink:title=" ">
<polygon fill="white" stroke="black" points="1802.5,-56.5 1802.5,-75.5 1858.5,-75.5 1858.5,-56.5 1802.5,-56.5"/>
<text text-anchor="middle" x="1830.5" y="-63.5" font-family="FreeSans" font-size="10.00">image.c</text>
</a>
</g>
</g>
<!-- Node6&#45;&gt;Node10 -->
<g id="edge10" class="edge">
<title>Node6&#45;&gt;Node10</title>
<path fill="none" stroke="midnightblue" d="M437.85,-120.79C651,-119.67 1522.94,-112.84 1793.5,-76 1796.38,-75.61 1799.37,-75.08 1802.33,-74.49"/>
<polygon fill="midnightblue" stroke="midnightblue" points="437.6,-117.3 427.62,-120.85 437.64,-124.3 437.6,-117.3"/>
</g>
<!-- Node11 -->
<g id="node11" class="node">
<title>Node11</title>
<g id="a_node11"><a xlink:href="mime_8c.html" target="_top" xlink:title=" ">
<polygon fill="white" stroke="black" points="207,-56.5 207,-75.5 260,-75.5 260,-56.5 207,-56.5"/>
<text text-anchor="middle" x="233.5" y="-63.5" font-family="FreeSans" font-size="10.00">mime.c</text>
</a>
</g>
</g>
<!-- Node6&#45;&gt;Node11 -->
<g id="edge11" class="edge">
<title>Node6&#45;&gt;Node11</title>
<path fill="none" stroke="midnightblue" d="M356.11,-109.17C326.55,-99 284.63,-84.59 258.26,-75.52"/>
<polygon fill="midnightblue" stroke="midnightblue" points="355.03,-112.5 365.62,-112.44 357.3,-105.88 355.03,-112.5"/>
</g>
<!-- Node12 -->
<g id="node12" class="node">
<title>Node12</title>
<g id="a_node12"><a xlink:href="module_8c.html" target="_top" xlink:title=" ">
<polygon fill="white" stroke="black" points="278.5,-56.5 278.5,-75.5 340.5,-75.5 340.5,-56.5 278.5,-56.5"/>
<text text-anchor="middle" x="309.5" y="-63.5" font-family="FreeSans" font-size="10.00">module.c</text>
</a>
</g>
</g>
<!-- Node6&#45;&gt;Node12 -->
<g id="edge12" class="edge">
<title>Node6&#45;&gt;Node12</title>
<path fill="none" stroke="midnightblue" d="M368.93,-106.62C354.14,-96.76 334.99,-83.99 322.48,-75.65"/>
<polygon fill="midnightblue" stroke="midnightblue" points="367.22,-109.69 377.49,-112.32 371.11,-103.86 367.22,-109.69"/>
</g>
<!-- Node13 -->
<g id="node13" class="node">
<title>Node13</title>
<g id="a_node13"><a xlink:href="statistic_8c.html" target="_top" xlink:title=" ">
<polygon fill="white" stroke="black" points="358.5,-56.5 358.5,-75.5 422.5,-75.5 422.5,-56.5 358.5,-56.5"/>
<text text-anchor="middle" x="390.5" y="-63.5" font-family="FreeSans" font-size="10.00">statistic.c</text>
</a>
</g>
</g>
<!-- Node6&#45;&gt;Node13 -->
<g id="edge13" class="edge">
<title>Node6&#45;&gt;Node13</title>
<path fill="none" stroke="midnightblue" d="M390.5,-101.8C390.5,-92.91 390.5,-82.78 390.5,-75.75"/>
<polygon fill="midnightblue" stroke="midnightblue" points="387,-102.08 390.5,-112.08 394,-102.08 387,-102.08"/>
</g>
<!-- Node14&#45;&gt;Node2 -->
<g id="edge15" class="edge">
<title>Node14&#45;&gt;Node2</title>
<path fill="none" stroke="midnightblue" d="M746.88,-173.94C661.36,-168.57 488.96,-155.68 344.5,-132 252.28,-116.89 145.2,-89.42 93.54,-75.53"/>
<polygon fill="midnightblue" stroke="midnightblue" points="746.68,-177.44 756.88,-174.56 747.11,-170.45 746.68,-177.44"/>
</g>
<!-- Node14&#45;&gt;Node15 -->
<g id="edge16" class="edge">
<title>Node14&#45;&gt;Node15</title>
<path fill="none" stroke="midnightblue" d="M854.17,-173.86C1027.01,-163.73 1565.41,-132.2 1694.48,-124.64"/>
<polygon fill="midnightblue" stroke="midnightblue" points="853.82,-170.37 844.04,-174.45 854.23,-177.36 853.82,-170.37"/>
</g>
<!-- Node15&#45;&gt;Node5 -->
<g id="edge41" class="edge">
<title>Node15&#45;&gt;Node5</title>
<path fill="none" stroke="midnightblue" d="M1684.06,-119.84C1576.01,-116.25 1271.23,-103.87 1175.5,-76 1157.18,-70.67 1155.78,-61.49 1137.5,-56 1060.6,-32.91 820.73,-18.17 724.28,-13.03"/>
<polygon fill="midnightblue" stroke="midnightblue" points="1684.08,-123.34 1694.19,-120.16 1684.31,-116.34 1684.08,-123.34"/>
</g>
<!-- Node15&#45;&gt;Node7 -->
<g id="edge21" class="edge">
<title>Node15&#45;&gt;Node7</title>
<path fill="none" stroke="midnightblue" d="M1684.32,-120.79C1478.47,-119.51 499.01,-111.6 198.5,-76 195.47,-75.64 192.34,-75.17 189.21,-74.64"/>
<polygon fill="midnightblue" stroke="midnightblue" points="1684.33,-124.29 1694.35,-120.85 1684.37,-117.29 1684.33,-124.29"/>
</g>
<!-- Node15&#45;&gt;Node8 -->
<g id="edge36" class="edge">
<title>Node15&#45;&gt;Node8</title>
<path fill="none" stroke="midnightblue" d="M1684.03,-120.36C1505.45,-117.28 756.19,-102.96 523.5,-76 520.59,-75.66 517.59,-75.24 514.58,-74.77"/>
<polygon fill="midnightblue" stroke="midnightblue" points="1684.19,-123.87 1694.25,-120.54 1684.31,-116.87 1684.19,-123.87"/>
</g>
<!-- Node15&#45;&gt;Node9 -->
<g id="edge39" class="edge">
<title>Node15&#45;&gt;Node9</title>
<path fill="none" stroke="midnightblue" d="M1684.08,-120.39C1512.87,-117.53 818.41,-104.39 602.5,-76 599.25,-75.57 595.88,-75.01 592.54,-74.37"/>
<polygon fill="midnightblue" stroke="midnightblue" points="1684.08,-123.89 1694.14,-120.56 1684.19,-116.89 1684.08,-123.89"/>
</g>
<!-- Node15&#45;&gt;Node10 -->
<g id="edge42" class="edge">
<title>Node15&#45;&gt;Node10</title>
<path fill="none" stroke="midnightblue" d="M1749.05,-107.73C1769.05,-97.73 1795.89,-84.31 1813.19,-75.65"/>
<polygon fill="midnightblue" stroke="midnightblue" points="1747.23,-104.72 1739.85,-112.32 1750.36,-110.98 1747.23,-104.72"/>
</g>
<!-- Node15&#45;&gt;Node11 -->
<g id="edge44" class="edge">
<title>Node15&#45;&gt;Node11</title>
<path fill="none" stroke="midnightblue" d="M1684.18,-120.92C1483.74,-120.35 554.38,-115.56 269.5,-76 266.44,-75.57 263.26,-74.99 260.11,-74.33"/>
<polygon fill="midnightblue" stroke="midnightblue" points="1684.22,-124.42 1694.23,-120.95 1684.24,-117.42 1684.22,-124.42"/>
</g>
<!-- Node15&#45;&gt;Node12 -->
<g id="edge45" class="edge">
<title>Node15&#45;&gt;Node12</title>
<path fill="none" stroke="midnightblue" d="M1684.18,-120.72C1490.51,-119.16 618.11,-110.31 349.5,-76 346.68,-75.64 343.76,-75.17 340.84,-74.64"/>
<polygon fill="midnightblue" stroke="midnightblue" points="1684.4,-124.22 1694.43,-120.8 1684.46,-117.22 1684.4,-124.22"/>
</g>
<!-- Node15&#45;&gt;Node13 -->
<g id="edge54" class="edge">
<title>Node15&#45;&gt;Node13</title>
<path fill="none" stroke="midnightblue" d="M1684.1,-120.6C1497.38,-118.51 683.05,-107.73 431.5,-76 428.61,-75.64 425.62,-75.16 422.63,-74.63"/>
<polygon fill="midnightblue" stroke="midnightblue" points="1684.22,-124.1 1694.26,-120.71 1684.3,-117.1 1684.22,-124.1"/>
</g>
<!-- Node16 -->
<g id="node16" class="node">
<title>Node16</title>
<g id="a_node16"><a xlink:href="accelerate_8c.html" target="_top" xlink:title=" ">
<polygon fill="white" stroke="black" points="1184.5,-56.5 1184.5,-75.5 1260.5,-75.5 1260.5,-56.5 1184.5,-56.5"/>
<text text-anchor="middle" x="1222.5" y="-63.5" font-family="FreeSans" font-size="10.00">accelerate.c</text>
</a>
</g>
</g>
<!-- Node15&#45;&gt;Node16 -->
<g id="edge17" class="edge">
<title>Node15&#45;&gt;Node16</title>
<path fill="none" stroke="midnightblue" d="M1684.05,-118.29C1605.89,-112.55 1422.97,-97.84 1270.5,-76 1267.31,-75.54 1264.01,-75.02 1260.7,-74.47"/>
<polygon fill="midnightblue" stroke="midnightblue" points="1684.14,-121.81 1694.36,-119.05 1684.64,-114.83 1684.14,-121.81"/>
</g>
<!-- Node17 -->
<g id="node17" class="node">
<title>Node17</title>
<g id="a_node17"><a xlink:href="animate_8c.html" target="_top" xlink:title=" ">
<polygon fill="white" stroke="black" points="1279,-56.5 1279,-75.5 1344,-75.5 1344,-56.5 1279,-56.5"/>
<text text-anchor="middle" x="1311.5" y="-63.5" font-family="FreeSans" font-size="10.00">animate.c</text>
</a>
</g>
</g>
<!-- Node15&#45;&gt;Node17 -->
<g id="edge18" class="edge">
<title>Node15&#45;&gt;Node17</title>
<path fill="none" stroke="midnightblue" d="M1684,-117.45C1616.71,-111 1473.42,-96.12 1353.5,-76 1350.41,-75.48 1347.21,-74.89 1344,-74.27"/>
<polygon fill="midnightblue" stroke="midnightblue" points="1683.85,-120.96 1694.14,-118.42 1684.51,-113.99 1683.85,-120.96"/>
</g>
<!-- Node18 -->
<g id="node18" class="node">
<title>Node18</title>
<g id="a_node18"><a xlink:href="annotate_8c.html" target="_top" xlink:title=" ">
<polygon fill="white" stroke="black" points="1362.5,-56.5 1362.5,-75.5 1430.5,-75.5 1430.5,-56.5 1362.5,-56.5"/>
<text text-anchor="middle" x="1396.5" y="-63.5" font-family="FreeSans" font-size="10.00">annotate.c</text>
</a>
</g>
</g>
<!-- Node15&#45;&gt;Node18 -->
<g id="edge19" class="edge">
<title>Node15&#45;&gt;Node18</title>
<path fill="none" stroke="midnightblue" d="M1684.4,-115.54C1629.96,-107.61 1526.83,-92.07 1439.5,-76 1436.65,-75.48 1433.7,-74.91 1430.74,-74.32"/>
<polygon fill="midnightblue" stroke="midnightblue" points="1683.91,-119.01 1694.31,-116.98 1684.91,-112.08 1683.91,-119.01"/>
</g>
<!-- Node19 -->
<g id="node19" class="node">
<title>Node19</title>
<g id="a_node19"><a xlink:href="artifact_8c.html" target="_top" xlink:title=" ">
<polygon fill="white" stroke="black" points="1448.5,-56.5 1448.5,-75.5 1508.5,-75.5 1508.5,-56.5 1448.5,-56.5"/>
<text text-anchor="middle" x="1478.5" y="-63.5" font-family="FreeSans" font-size="10.00">artifact.c</text>
</a>
</g>
</g>
<!-- Node15&#45;&gt;Node19 -->
<g id="edge20" class="edge">
<title>Node15&#45;&gt;Node19</title>
<path fill="none" stroke="midnightblue" d="M1684.41,-112.77C1643.23,-103.84 1575.67,-89.1 1517.5,-76 1514.65,-75.36 1511.69,-74.69 1508.73,-74.01"/>
<polygon fill="midnightblue" stroke="midnightblue" points="1683.78,-116.21 1694.29,-114.91 1685.26,-109.37 1683.78,-116.21"/>
</g>
<!-- Node20 -->
<g id="node20" class="node">
<title>Node20</title>
<g id="a_node20"><a xlink:href="blob_8c.html" target="_top" xlink:title=" ">
<polygon fill="white" stroke="black" points="1526.5,-56.5 1526.5,-75.5 1572.5,-75.5 1572.5,-56.5 1526.5,-56.5"/>
<text text-anchor="middle" x="1549.5" y="-63.5" font-family="FreeSans" font-size="10.00">blob.c</text>
</a>
</g>
</g>
<!-- Node15&#45;&gt;Node20 -->
<g id="edge22" class="edge">
<title>Node15&#45;&gt;Node20</title>
<path fill="none" stroke="midnightblue" d="M1685.45,-109.43C1651.24,-98.76 1601.5,-83.23 1572.63,-74.22"/>
<polygon fill="midnightblue" stroke="midnightblue" points="1684.5,-112.8 1695.09,-112.44 1686.58,-106.12 1684.5,-112.8"/>
</g>
<!-- Node21 -->
<g id="node21" class="node">
<title>Node21</title>
<g id="a_node21"><a xlink:href="cache-view_8c.html" target="_top" xlink:title=" ">
<polygon fill="white" stroke="black" points="3244,-56.5 3244,-75.5 3323,-75.5 3323,-56.5 3244,-56.5"/>
<text text-anchor="middle" x="3283.5" y="-63.5" font-family="FreeSans" font-size="10.00">cache&#45;view.c</text>
</a>
</g>
</g>
<!-- Node15&#45;&gt;Node21 -->
<g id="edge23" class="edge">
<title>Node15&#45;&gt;Node21</title>
<path fill="none" stroke="midnightblue" d="M1761,-120.65C1966.53,-118.64 2936.25,-107.64 3234.5,-76 3237.6,-75.67 3240.79,-75.26 3243.99,-74.79"/>
<polygon fill="midnightblue" stroke="midnightblue" points="1760.68,-117.15 1750.71,-120.75 1760.74,-124.15 1760.68,-117.15"/>
</g>
<!-- Node22 -->
<g id="node22" class="node">
<title>Node22</title>
<g id="a_node22"><a xlink:href="cache_8c.html" target="_top" xlink:title=" ">
<polygon fill="white" stroke="black" points="3341,-56.5 3341,-75.5 3394,-75.5 3394,-56.5 3341,-56.5"/>
<text text-anchor="middle" x="3367.5" y="-63.5" font-family="FreeSans" font-size="10.00">cache.c</text>
</a>
</g>
</g>
<!-- Node15&#45;&gt;Node22 -->
<g id="edge24" class="edge">
<title>Node15&#45;&gt;Node22</title>
<path fill="none" stroke="midnightblue" d="M1760.74,-120.44C1989.53,-117.05 3172.54,-98.51 3332.5,-76 3335.23,-75.62 3338.06,-75.1 3340.87,-74.5"/>
<polygon fill="midnightblue" stroke="midnightblue" points="1760.53,-116.95 1750.58,-120.59 1760.63,-123.95 1760.53,-116.95"/>
</g>
<!-- Node23 -->
<g id="node23" class="node">
<title>Node23</title>
<g id="a_node23"><a xlink:href="channel_8c.html" target="_top" xlink:title=" ">
<polygon fill="white" stroke="black" points="887,-56.5 887,-75.5 950,-75.5 950,-56.5 887,-56.5"/>
<text text-anchor="middle" x="918.5" y="-63.5" font-family="FreeSans" font-size="10.00">channel.c</text>
</a>
</g>
</g>
<!-- Node15&#45;&gt;Node23 -->
<g id="edge25" class="edge">
<title>Node15&#45;&gt;Node23</title>
<path fill="none" stroke="midnightblue" d="M1684.15,-120.86C1572.06,-120.01 1235.5,-114.19 959.5,-76 956.47,-75.58 953.33,-75.06 950.2,-74.47"/>
<polygon fill="midnightblue" stroke="midnightblue" points="1684.26,-124.36 1694.28,-120.93 1684.31,-117.36 1684.26,-124.36"/>
</g>
<!-- Node24 -->
<g id="node24" class="node">
<title>Node24</title>
<g id="a_node24"><a xlink:href="cipher_8c.html" target="_top" xlink:title=" ">
<polygon fill="white" stroke="black" points="1660.5,-56.5 1660.5,-75.5 1714.5,-75.5 1714.5,-56.5 1660.5,-56.5"/>
<text text-anchor="middle" x="1687.5" y="-63.5" font-family="FreeSans" font-size="10.00">cipher.c</text>
</a>
</g>
</g>
<!-- Node15&#45;&gt;Node24 -->
<g id="edge26" class="edge">
<title>Node15&#45;&gt;Node24</title>
<path fill="none" stroke="midnightblue" d="M1711.2,-103.57C1705.18,-94.27 1698.03,-83.25 1693.17,-75.75"/>
<polygon fill="midnightblue" stroke="midnightblue" points="1708.34,-105.6 1716.72,-112.08 1714.22,-101.79 1708.34,-105.6"/>
</g>
<!-- Node25 -->
<g id="node25" class="node">
<title>Node25</title>
<g id="a_node25"><a xlink:href="client_8c.html" target="_top" xlink:title=" ">
<polygon fill="white" stroke="black" points="1732.5,-56.5 1732.5,-75.5 1784.5,-75.5 1784.5,-56.5 1732.5,-56.5"/>
<text text-anchor="middle" x="1758.5" y="-63.5" font-family="FreeSans" font-size="10.00">client.c</text>
</a>
</g>
</g>
<!-- Node15&#45;&gt;Node25 -->
<g id="edge27" class="edge">
<title>Node15&#45;&gt;Node25</title>
<path fill="none" stroke="midnightblue" d="M1734.12,-103.57C1740.32,-94.27 1747.67,-83.25 1752.67,-75.75"/>
<polygon fill="midnightblue" stroke="midnightblue" points="1731.08,-101.82 1728.44,-112.08 1736.9,-105.7 1731.08,-101.82"/>
</g>
<!-- Node26 -->
<g id="node26" class="node">
<title>Node26</title>
<g id="a_node26"><a xlink:href="coder_8c.html" target="_top" xlink:title=" ">
<polygon fill="white" stroke="black" points="1591,-56.5 1591,-75.5 1642,-75.5 1642,-56.5 1591,-56.5"/>
<text text-anchor="middle" x="1616.5" y="-63.5" font-family="FreeSans" font-size="10.00">coder.c</text>
</a>
</g>
</g>
<!-- Node15&#45;&gt;Node26 -->
<g id="edge28" class="edge">
<title>Node15&#45;&gt;Node26</title>
<path fill="none" stroke="midnightblue" d="M1696.44,-107.73C1676.82,-97.73 1650.47,-84.31 1633.49,-75.65"/>
<polygon fill="midnightblue" stroke="midnightblue" points="1694.97,-110.9 1705.47,-112.32 1698.15,-104.67 1694.97,-110.9"/>
</g>
<!-- Node27 -->
<g id="node27" class="node">
<title>Node27</title>
<g id="a_node27"><a xlink:href="color_8c.html" target="_top" xlink:title=" ">
<polygon fill="white" stroke="black" points="1876.5,-56.5 1876.5,-75.5 1924.5,-75.5 1924.5,-56.5 1876.5,-56.5"/>
<text text-anchor="middle" x="1900.5" y="-63.5" font-family="FreeSans" font-size="10.00">color.c</text>
</a>
</g>
</g>
<!-- Node15&#45;&gt;Node27 -->
<g id="edge29" class="edge">
<title>Node15&#45;&gt;Node27</title>
<path fill="none" stroke="midnightblue" d="M1760.59,-109.44C1795.68,-98.8 1846.67,-83.33 1876.42,-74.3"/>
<polygon fill="midnightblue" stroke="midnightblue" points="1759.26,-106.19 1750.7,-112.44 1761.29,-112.89 1759.26,-106.19"/>
</g>
<!-- Node28 -->
<g id="node28" class="node">
<title>Node28</title>
<g id="a_node28"><a xlink:href="colormap_8c.html" target="_top" xlink:title=" ">
<polygon fill="white" stroke="black" points="1943,-56.5 1943,-75.5 2014,-75.5 2014,-56.5 1943,-56.5"/>
<text text-anchor="middle" x="1978.5" y="-63.5" font-family="FreeSans" font-size="10.00">colormap.c</text>
</a>
</g>
</g>
<!-- Node15&#45;&gt;Node28 -->
<g id="edge30" class="edge">
<title>Node15&#45;&gt;Node28</title>
<path fill="none" stroke="midnightblue" d="M1760.8,-112.92C1809.97,-102.55 1894.65,-84.69 1942.62,-74.57"/>
<polygon fill="midnightblue" stroke="midnightblue" points="1759.94,-109.53 1750.87,-115.01 1761.38,-116.38 1759.94,-109.53"/>
</g>
<!-- Node29 -->
<g id="node29" class="node">
<title>Node29</title>
<g id="a_node29"><a xlink:href="colorspace_8c.html" target="_top" xlink:title=" ">
<polygon fill="white" stroke="black" points="611,-56.5 611,-75.5 688,-75.5 688,-56.5 611,-56.5"/>
<text text-anchor="middle" x="649.5" y="-63.5" font-family="FreeSans" font-size="10.00">colorspace.c</text>
</a>
</g>
</g>
<!-- Node15&#45;&gt;Node29 -->
<g id="edge31" class="edge">
<title>Node15&#45;&gt;Node29</title>
<path fill="none" stroke="midnightblue" d="M1683.98,-121.27C1548.34,-121.79 1080.41,-120.08 697.5,-76 694.47,-75.65 691.34,-75.22 688.2,-74.74"/>
<polygon fill="midnightblue" stroke="midnightblue" points="1684.27,-124.77 1694.26,-121.22 1684.24,-117.77 1684.27,-124.77"/>
</g>
<!-- Node30 -->
<g id="node30" class="node">
<title>Node30</title>
<g id="a_node30"><a xlink:href="compare_8c.html" target="_top" xlink:title=" ">
<polygon fill="white" stroke="black" points="706.5,-56.5 706.5,-75.5 774.5,-75.5 774.5,-56.5 706.5,-56.5"/>
<text text-anchor="middle" x="740.5" y="-63.5" font-family="FreeSans" font-size="10.00">compare.c</text>
</a>
</g>
</g>
<!-- Node15&#45;&gt;Node30 -->
<g id="edge32" class="edge">
<title>Node15&#45;&gt;Node30</title>
<path fill="none" stroke="midnightblue" d="M1684.23,-121.33C1556.17,-121.98 1131.1,-120.42 783.5,-76 780.63,-75.63 777.66,-75.18 774.68,-74.66"/>
<polygon fill="midnightblue" stroke="midnightblue" points="1684.34,-124.83 1694.32,-121.27 1684.3,-117.83 1684.34,-124.83"/>
</g>
<!-- Node31 -->
<g id="node31" class="node">
<title>Node31</title>
<g id="a_node31"><a xlink:href="composite_8c.html" target="_top" xlink:title=" ">
<polygon fill="white" stroke="black" points="792.5,-56.5 792.5,-75.5 868.5,-75.5 868.5,-56.5 792.5,-56.5"/>
<text text-anchor="middle" x="830.5" y="-63.5" font-family="FreeSans" font-size="10.00">composite.c</text>
</a>
</g>
</g>
<!-- Node15&#45;&gt;Node31 -->
<g id="edge33" class="edge">
<title>Node15&#45;&gt;Node31</title>
<path fill="none" stroke="midnightblue" d="M1684.22,-120.76C1564.69,-119.61 1187.87,-113.09 878.5,-76 875.3,-75.62 871.99,-75.15 868.68,-74.63"/>
<polygon fill="midnightblue" stroke="midnightblue" points="1684.3,-124.26 1694.33,-120.85 1684.37,-117.26 1684.3,-124.26"/>
</g>
<!-- Node32 -->
<g id="node32" class="node">
<title>Node32</title>
<g id="a_node32"><a xlink:href="compress_8c.html" target="_top" xlink:title=" ">
<polygon fill="white" stroke="black" points="968.5,-56.5 968.5,-75.5 1040.5,-75.5 1040.5,-56.5 968.5,-56.5"/>
<text text-anchor="middle" x="1004.5" y="-63.5" font-family="FreeSans" font-size="10.00">compress.c</text>
</a>
</g>
</g>
<!-- Node15&#45;&gt;Node32 -->
<g id="edge34" class="edge">
<title>Node15&#45;&gt;Node32</title>
<path fill="none" stroke="midnightblue" d="M1684.27,-120.19C1581.3,-117.64 1289.7,-107.91 1049.5,-76 1046.66,-75.62 1043.72,-75.17 1040.78,-74.68"/>
<polygon fill="midnightblue" stroke="midnightblue" points="1684.4,-123.7 1694.48,-120.44 1684.57,-116.7 1684.4,-123.7"/>
</g>
<!-- Node33 -->
<g id="node33" class="node">
<title>Node33</title>
<g id="a_node33"><a xlink:href="configure_8c.html" target="_top" xlink:title=" ">
<polygon fill="white" stroke="black" points="1058.5,-56.5 1058.5,-75.5 1128.5,-75.5 1128.5,-56.5 1058.5,-56.5"/>
<text text-anchor="middle" x="1093.5" y="-63.5" font-family="FreeSans" font-size="10.00">configure.c</text>
</a>
</g>
</g>
<!-- Node15&#45;&gt;Node33 -->
<g id="edge35" class="edge">
<title>Node15&#45;&gt;Node33</title>
<path fill="none" stroke="midnightblue" d="M1684.26,-119.41C1591.21,-115.25 1345.74,-102.48 1142.5,-76 1138.04,-75.42 1133.37,-74.7 1128.76,-73.93"/>
<polygon fill="midnightblue" stroke="midnightblue" points="1684.18,-122.91 1694.33,-119.86 1684.49,-115.92 1684.18,-122.91"/>
</g>
<!-- Node40 -->
<g id="node34" class="node">
<title>Node40</title>
<g id="a_node34"><a xlink:href="draw_8c.html" target="_top" xlink:title=" ">
<polygon fill="white" stroke="black" points="3412.5,-56.5 3412.5,-75.5 3460.5,-75.5 3460.5,-56.5 3412.5,-56.5"/>
<text text-anchor="middle" x="3436.5" y="-63.5" font-family="FreeSans" font-size="10.00">draw.c</text>
</a>
</g>
</g>
<!-- Node15&#45;&gt;Node40 -->
<g id="edge37" class="edge">
<title>Node15&#45;&gt;Node40</title>
<path fill="none" stroke="midnightblue" d="M1760.95,-120.52C1996.16,-117.53 3236.3,-100.67 3403.5,-76 3406.44,-75.57 3409.49,-74.96 3412.49,-74.26"/>
<polygon fill="midnightblue" stroke="midnightblue" points="1760.78,-117.02 1750.82,-120.65 1760.87,-124.02 1760.78,-117.02"/>
</g>
<!-- Node41 -->
<g id="node35" class="node">
<title>Node41</title>
<g id="a_node35"><a xlink:href="effect_8c.html" target="_top" xlink:title=" ">
<polygon fill="white" stroke="black" points="2032,-56.5 2032,-75.5 2085,-75.5 2085,-56.5 2032,-56.5"/>
<text text-anchor="middle" x="2058.5" y="-63.5" font-family="FreeSans" font-size="10.00">effect.c</text>
</a>
</g>
</g>
<!-- Node15&#45;&gt;Node41 -->
<g id="edge38" class="edge">
<title>Node15&#45;&gt;Node41</title>
<path fill="none" stroke="midnightblue" d="M1760.97,-116.54C1818.42,-109.59 1929.9,-94.98 2023.5,-76 2026.21,-75.45 2029.01,-74.83 2031.81,-74.17"/>
<polygon fill="midnightblue" stroke="midnightblue" points="1760.4,-113.08 1750.89,-117.75 1761.23,-120.03 1760.4,-113.08"/>
</g>
<!-- Node45 -->
<g id="node36" class="node">
<title>Node45</title>
<g id="a_node36"><a xlink:href="fx_8c.html" target="_top" xlink:title=" ">
<polygon fill="white" stroke="black" points="2103,-56.5 2103,-75.5 2138,-75.5 2138,-56.5 2103,-56.5"/>
<text text-anchor="middle" x="2120.5" y="-63.5" font-family="FreeSans" font-size="10.00">fx.c</text>
</a>
</g>
</g>
<!-- Node15&#45;&gt;Node45 -->
<g id="edge40" class="edge">
<title>Node15&#45;&gt;Node45</title>
<path fill="none" stroke="midnightblue" d="M1761.1,-119.04C1829.19,-114.99 1974.76,-103.63 2094.5,-76 2097.2,-75.38 2100.01,-74.57 2102.74,-73.71"/>
<polygon fill="midnightblue" stroke="midnightblue" points="1760.64,-115.56 1750.85,-119.63 1761.04,-122.55 1760.64,-115.56"/>
</g>
<!-- Node58 -->
<g id="node37" class="node">
<title>Node58</title>
<g id="a_node37"><a xlink:href="memory_8c.html" target="_top" xlink:title=" ">
<polygon fill="white" stroke="black" points="2156,-56.5 2156,-75.5 2221,-75.5 2221,-56.5 2156,-56.5"/>
<text text-anchor="middle" x="2188.5" y="-63.5" font-family="FreeSans" font-size="10.00">memory.c</text>
</a>
</g>
</g>
<!-- Node15&#45;&gt;Node58 -->
<g id="edge43" class="edge">
<title>Node15&#45;&gt;Node58</title>
<path fill="none" stroke="midnightblue" d="M1761.08,-118.35C1835.94,-112.9 2005.97,-98.95 2147.5,-76 2150.23,-75.56 2153.06,-75.05 2155.89,-74.5"/>
<polygon fill="midnightblue" stroke="midnightblue" points="1760.46,-114.89 1750.74,-119.1 1760.97,-121.87 1760.46,-114.89"/>
</g>
<!-- Node61 -->
<g id="node38" class="node">
<title>Node61</title>
<g id="a_node38"><a xlink:href="morphology_8c.html" target="_top" xlink:title=" ">
<polygon fill="white" stroke="black" points="2239.5,-56.5 2239.5,-75.5 2321.5,-75.5 2321.5,-56.5 2239.5,-56.5"/>
<text text-anchor="middle" x="2280.5" y="-63.5" font-family="FreeSans" font-size="10.00">morphology.c</text>
</a>
</g>
</g>
<!-- Node15&#45;&gt;Node61 -->
<g id="edge46" class="edge">
<title>Node15&#45;&gt;Node61</title>
<path fill="none" stroke="midnightblue" d="M1760.88,-118.78C1845.79,-113.61 2055.88,-99.4 2230.5,-76 2233.38,-75.61 2236.36,-75.18 2239.35,-74.71"/>
<polygon fill="midnightblue" stroke="midnightblue" points="1760.46,-115.3 1750.68,-119.39 1760.88,-122.29 1760.46,-115.3"/>
</g>
<!-- Node66 -->
<g id="node39" class="node">
<title>Node66</title>
<g id="a_node39"><a xlink:href="opencl_8c.html" target="_top" xlink:title=" ">
<polygon fill="white" stroke="black" points="2340,-56.5 2340,-75.5 2397,-75.5 2397,-56.5 2340,-56.5"/>
<text text-anchor="middle" x="2368.5" y="-63.5" font-family="FreeSans" font-size="10.00">opencl.c</text>
</a>
</g>
</g>
<!-- Node15&#45;&gt;Node66 -->
<g id="edge47" class="edge">
<title>Node15&#45;&gt;Node66</title>
<path fill="none" stroke="midnightblue" d="M1760.67,-120.27C1856.86,-117.99 2116.75,-109.01 2330.5,-76 2333.58,-75.52 2336.78,-74.93 2339.96,-74.27"/>
<polygon fill="midnightblue" stroke="midnightblue" points="1760.47,-116.78 1750.56,-120.5 1760.63,-123.78 1760.47,-116.78"/>
</g>
<!-- Node76 -->
<g id="node40" class="node">
<title>Node76</title>
<g id="a_node40"><a xlink:href="pixel_8c.html" target="_top" xlink:title=" ">
<polygon fill="white" stroke="black" points="2415.5,-56.5 2415.5,-75.5 2463.5,-75.5 2463.5,-56.5 2415.5,-56.5"/>
<text text-anchor="middle" x="2439.5" y="-63.5" font-family="FreeSans" font-size="10.00">pixel.c</text>
</a>
</g>
</g>
<!-- Node15&#45;&gt;Node76 -->
<g id="edge48" class="edge">
<title>Node15&#45;&gt;Node76</title>
<path fill="none" stroke="midnightblue" d="M1760.81,-121.16C1865.19,-121.02 2163.1,-116.77 2406.5,-76 2409.43,-75.51 2412.47,-74.87 2415.47,-74.15"/>
<polygon fill="midnightblue" stroke="midnightblue" points="1760.75,-117.66 1750.75,-121.16 1760.75,-124.66 1760.75,-117.66"/>
</g>
<!-- Node83 -->
<g id="node41" class="node">
<title>Node83</title>
<g id="a_node41"><a xlink:href="random_8c.html" target="_top" xlink:title=" ">
<polygon fill="white" stroke="black" points="2481.5,-56.5 2481.5,-75.5 2543.5,-75.5 2543.5,-56.5 2481.5,-56.5"/>
<text text-anchor="middle" x="2512.5" y="-63.5" font-family="FreeSans" font-size="10.00">random.c</text>
</a>
</g>
</g>
<!-- Node15&#45;&gt;Node83 -->
<g id="edge49" class="edge">
<title>Node15&#45;&gt;Node83</title>
<path fill="none" stroke="midnightblue" d="M1760.59,-120.88C1871.18,-120.06 2201.62,-114.34 2472.5,-76 2475.32,-75.6 2478.23,-75.11 2481.15,-74.56"/>
<polygon fill="midnightblue" stroke="midnightblue" points="1760.56,-117.38 1750.59,-120.94 1760.61,-124.38 1760.56,-117.38"/>
</g>
<!-- Node84 -->
<g id="node42" class="node">
<title>Node84</title>
<g id="a_node42"><a xlink:href="registry_8c.html" target="_top" xlink:title=" ">
<polygon fill="white" stroke="black" points="2562,-56.5 2562,-75.5 2623,-75.5 2623,-56.5 2562,-56.5"/>
<text text-anchor="middle" x="2592.5" y="-63.5" font-family="FreeSans" font-size="10.00">registry.c</text>
</a>
</g>
</g>
<!-- Node15&#45;&gt;Node84 -->
<g id="edge50" class="edge">
<title>Node15&#45;&gt;Node84</title>
<path fill="none" stroke="midnightblue" d="M1760.61,-121.19C1878.78,-121.3 2249.32,-118.03 2552.5,-76 2555.46,-75.59 2558.53,-75.07 2561.58,-74.49"/>
<polygon fill="midnightblue" stroke="midnightblue" points="1760.61,-117.69 1750.61,-121.17 1760.6,-124.69 1760.61,-117.69"/>
</g>
<!-- Node86 -->
<g id="node43" class="node">
<title>Node86</title>
<g id="a_node43"><a xlink:href="resize_8c.html" target="_top" xlink:title=" ">
<polygon fill="white" stroke="black" points="2641.5,-56.5 2641.5,-75.5 2695.5,-75.5 2695.5,-56.5 2641.5,-56.5"/>
<text text-anchor="middle" x="2668.5" y="-63.5" font-family="FreeSans" font-size="10.00">resize.c</text>
</a>
</g>
</g>
<!-- Node15&#45;&gt;Node86 -->
<g id="edge51" class="edge">
<title>Node15&#45;&gt;Node86</title>
<path fill="none" stroke="midnightblue" d="M1760.77,-120.11C1910.96,-116.44 2460.22,-101.54 2632.5,-76 2635.43,-75.57 2638.47,-75 2641.49,-74.36"/>
<polygon fill="midnightblue" stroke="midnightblue" points="1760.57,-116.61 1750.66,-120.35 1760.74,-123.61 1760.57,-116.61"/>
</g>
<!-- Node87 -->
<g id="node44" class="node">
<title>Node87</title>
<g id="a_node44"><a xlink:href="segment_8c.html" target="_top" xlink:title=" ">
<polygon fill="white" stroke="black" points="2713.5,-56.5 2713.5,-75.5 2781.5,-75.5 2781.5,-56.5 2713.5,-56.5"/>
<text text-anchor="middle" x="2747.5" y="-63.5" font-family="FreeSans" font-size="10.00">segment.c</text>
</a>
</g>
</g>
<!-- Node15&#45;&gt;Node87 -->
<g id="edge52" class="edge">
<title>Node15&#45;&gt;Node87</title>
<path fill="none" stroke="midnightblue" d="M1760.77,-121.45C1892.53,-122.52 2339.36,-122.27 2704.5,-76 2707.38,-75.64 2710.34,-75.18 2713.32,-74.67"/>
<polygon fill="midnightblue" stroke="midnightblue" points="1760.8,-117.95 1750.76,-121.36 1760.73,-124.95 1760.8,-117.95"/>
</g>
<!-- Node88 -->
<g id="node45" class="node">
<title>Node88</title>
<g id="a_node45"><a xlink:href="semaphore_8c.html" target="_top" xlink:title=" ">
<polygon fill="white" stroke="black" points="2799.5,-56.5 2799.5,-75.5 2879.5,-75.5 2879.5,-56.5 2799.5,-56.5"/>
<text text-anchor="middle" x="2839.5" y="-63.5" font-family="FreeSans" font-size="10.00">semaphore.c</text>
</a>
</g>
</g>
<!-- Node15&#45;&gt;Node88 -->
<g id="edge53" class="edge">
<title>Node15&#45;&gt;Node88</title>
<path fill="none" stroke="midnightblue" d="M1760.79,-121.31C1899.66,-122.04 2389.68,-121.03 2790.5,-76 2793.42,-75.67 2796.43,-75.27 2799.46,-74.83"/>
<polygon fill="midnightblue" stroke="midnightblue" points="1760.68,-117.81 1750.66,-121.25 1760.64,-124.81 1760.68,-117.81"/>
</g>
<!-- Node71 -->
<g id="node46" class="node">
<title>Node71</title>
<g id="a_node46"><a xlink:href="stream_8c.html" target="_top" xlink:title=" ">
<polygon fill="white" stroke="black" points="2898,-56.5 2898,-75.5 2957,-75.5 2957,-56.5 2898,-56.5"/>
<text text-anchor="middle" x="2927.5" y="-63.5" font-family="FreeSans" font-size="10.00">stream.c</text>
</a>
</g>
</g>
<!-- Node15&#45;&gt;Node71 -->
<g id="edge55" class="edge">
<title>Node15&#45;&gt;Node71</title>
<path fill="none" stroke="midnightblue" d="M1760.79,-120.49C1936.08,-118.01 2663.06,-106.09 2888.5,-76 2891.53,-75.6 2894.67,-75.06 2897.8,-74.46"/>
<polygon fill="midnightblue" stroke="midnightblue" points="1760.7,-116.99 1750.75,-120.63 1760.8,-123.99 1760.7,-116.99"/>
</g>
<!-- Node72 -->
<g id="node47" class="node">
<title>Node72</title>
<g id="a_node47"><a xlink:href="vision_8c.html" target="_top" xlink:title=" ">
<polygon fill="white" stroke="black" points="2975.5,-56.5 2975.5,-75.5 3029.5,-75.5 3029.5,-56.5 2975.5,-56.5"/>
<text text-anchor="middle" x="3002.5" y="-63.5" font-family="FreeSans" font-size="10.00">vision.c</text>
</a>
</g>
</g>
<!-- Node15&#45;&gt;Node72 -->
<g id="edge56" class="edge">
<title>Node15&#45;&gt;Node72</title>
<path fill="none" stroke="midnightblue" d="M1760.68,-120.69C1942.87,-119.06 2725.1,-110.16 2966.5,-76 2969.43,-75.58 2972.48,-75.03 2975.49,-74.39"/>
<polygon fill="midnightblue" stroke="midnightblue" points="1760.48,-117.19 1750.51,-120.78 1760.54,-124.19 1760.48,-117.19"/>
</g>
<!-- Node73 -->
<g id="node48" class="node">
<title>Node73</title>
<g id="a_node48"><a xlink:href="visual-effects_8c.html" target="_top" xlink:title=" ">
<polygon fill="white" stroke="black" points="3048,-56.5 3048,-75.5 3139,-75.5 3139,-56.5 3048,-56.5"/>
<text text-anchor="middle" x="3093.5" y="-63.5" font-family="FreeSans" font-size="10.00">visual&#45;effects.c</text>
</a>
</g>
</g>
<!-- Node15&#45;&gt;Node73 -->
<g id="edge57" class="edge">
<title>Node15&#45;&gt;Node73</title>
<path fill="none" stroke="midnightblue" d="M1760.99,-120.35C1950,-117.06 2781.02,-101.36 3038.5,-76 3041.58,-75.7 3044.75,-75.33 3047.94,-74.92"/>
<polygon fill="midnightblue" stroke="midnightblue" points="1760.66,-116.86 1750.72,-120.53 1760.78,-123.85 1760.66,-116.86"/>
</g>
<!-- Node103 -->
<g id="node49" class="node">
<title>Node103</title>
<g id="a_node49"><a xlink:href="xwindow_8c.html" target="_top" xlink:title=" ">
<polygon fill="white" stroke="black" points="3157.5,-56.5 3157.5,-75.5 3225.5,-75.5 3225.5,-56.5 3157.5,-56.5"/>
<text text-anchor="middle" x="3191.5" y="-63.5" font-family="FreeSans" font-size="10.00">xwindow.c</text>
</a>
</g>
</g>
<!-- Node15&#45;&gt;Node103 -->
<g id="edge58" class="edge">
<title>Node15&#45;&gt;Node103</title>
<path fill="none" stroke="midnightblue" d="M1760.7,-120.7C1958.56,-119 2868.51,-109.46 3148.5,-76 3151.38,-75.66 3154.35,-75.22 3157.32,-74.72"/>
<polygon fill="midnightblue" stroke="midnightblue" points="1760.48,-117.2 1750.51,-120.78 1760.54,-124.2 1760.48,-117.2"/>
</g>
<!-- Node104&#45;&gt;Node10 -->
<g id="edge65" class="edge">
<title>Node104&#45;&gt;Node10</title>
<path fill="none" stroke="midnightblue" d="M2567.66,-121.1C2436.69,-120.47 2125.28,-114.63 1867.5,-76 1864.62,-75.57 1861.64,-75.02 1858.68,-74.41"/>
<polygon fill="midnightblue" stroke="midnightblue" points="2567.88,-124.6 2577.9,-121.14 2567.91,-117.6 2567.88,-124.6"/>
</g>
<!-- Node104&#45;&gt;Node21 -->
<g id="edge60" class="edge">
<title>Node104&#45;&gt;Node21</title>
<path fill="none" stroke="midnightblue" d="M2693.47,-118.54C2803.55,-113.73 3037.99,-101.29 3234.5,-76 3237.59,-75.6 3240.78,-75.14 3243.98,-74.64"/>
<polygon fill="midnightblue" stroke="midnightblue" points="2693.05,-115.05 2683.21,-118.98 2693.35,-122.04 2693.05,-115.05"/>
</g>
<!-- Node104&#45;&gt;Node22 -->
<g id="edge61" class="edge">
<title>Node104&#45;&gt;Node22</title>
<path fill="none" stroke="midnightblue" d="M2693.29,-120.91C2816.6,-119.87 3098.76,-113.21 3332.5,-76 3335.23,-75.57 3338.05,-75.02 3340.86,-74.4"/>
<polygon fill="midnightblue" stroke="midnightblue" points="2693.24,-117.41 2683.27,-120.99 2693.3,-124.41 2693.24,-117.41"/>
</g>
<!-- Node104&#45;&gt;Node40 -->
<g id="edge62" class="edge">
<title>Node104&#45;&gt;Node40</title>
<path fill="none" stroke="midnightblue" d="M2693.76,-121.75C2826.33,-122.35 3142.58,-118.7 3403.5,-76 3406.43,-75.52 3409.47,-74.88 3412.48,-74.17"/>
<polygon fill="midnightblue" stroke="midnightblue" points="2693.42,-118.25 2683.4,-121.69 2693.38,-125.25 2693.42,-118.25"/>
</g>
<!-- Node104&#45;&gt;Node41 -->
<g id="edge63" class="edge">
<title>Node104&#45;&gt;Node41</title>
<path fill="none" stroke="midnightblue" d="M2567.36,-118.99C2466.72,-115.06 2264,-104.11 2094.5,-76 2091.45,-75.49 2088.28,-74.86 2085.14,-74.17"/>
<polygon fill="midnightblue" stroke="midnightblue" points="2567.53,-122.5 2577.66,-119.39 2567.8,-115.51 2567.53,-122.5"/>
</g>
<!-- Node104&#45;&gt;Node45 -->
<g id="edge64" class="edge">
<title>Node104&#45;&gt;Node45</title>
<path fill="none" stroke="midnightblue" d="M2567.67,-119.72C2474.85,-116.8 2296.05,-107.25 2147.5,-76 2144.41,-75.35 2141.17,-74.46 2138.06,-73.5"/>
<polygon fill="midnightblue" stroke="midnightblue" points="2567.64,-123.22 2577.74,-120.02 2567.85,-116.22 2567.64,-123.22"/>
</g>
<!-- Node104&#45;&gt;Node58 -->
<g id="edge66" class="edge">
<title>Node104&#45;&gt;Node58</title>
<path fill="none" stroke="midnightblue" d="M2567.59,-115.86C2488.57,-108.97 2348.99,-95.31 2230.5,-76 2227.56,-75.52 2224.51,-74.97 2221.46,-74.38"/>
<polygon fill="midnightblue" stroke="midnightblue" points="2567.59,-119.38 2577.86,-116.75 2568.2,-112.4 2567.59,-119.38"/>
</g>
<!-- Node104&#45;&gt;Node61 -->
<g id="edge67" class="edge">
<title>Node104&#45;&gt;Node61</title>
<path fill="none" stroke="midnightblue" d="M2567.61,-112.01C2507.06,-103.24 2412.92,-89.31 2331.5,-76 2328.31,-75.48 2325,-74.92 2321.68,-74.36"/>
<polygon fill="midnightblue" stroke="midnightblue" points="2567.38,-115.51 2577.78,-113.48 2568.38,-108.58 2567.38,-115.51"/>
</g>
<!-- Node104&#45;&gt;Node66 -->
<g id="edge68" class="edge">
<title>Node104&#45;&gt;Node66</title>
<path fill="none" stroke="midnightblue" d="M2575.85,-110.56C2530.42,-101.76 2464.14,-88.61 2406.5,-76 2403.45,-75.33 2400.27,-74.62 2397.11,-73.89"/>
<polygon fill="midnightblue" stroke="midnightblue" points="2575.3,-114.02 2585.78,-112.48 2576.63,-107.15 2575.3,-114.02"/>
</g>
<!-- Node104&#45;&gt;Node76 -->
<g id="edge69" class="edge">
<title>Node104&#45;&gt;Node76</title>
<path fill="none" stroke="midnightblue" d="M2590.42,-109.67C2552.05,-98.82 2495.44,-82.82 2463.58,-73.81"/>
<polygon fill="midnightblue" stroke="midnightblue" points="2589.66,-113.09 2600.24,-112.44 2591.56,-106.35 2589.66,-113.09"/>
</g>
<!-- Node104&#45;&gt;Node83 -->
<g id="edge70" class="edge">
<title>Node104&#45;&gt;Node83</title>
<path fill="none" stroke="midnightblue" d="M2602.6,-108.23C2580.53,-98.13 2550.32,-84.31 2531.11,-75.52"/>
<polygon fill="midnightblue" stroke="midnightblue" points="2601.25,-111.46 2611.8,-112.44 2604.17,-105.1 2601.25,-111.46"/>
</g>
<!-- Node104&#45;&gt;Node84 -->
<g id="edge71" class="edge">
<title>Node104&#45;&gt;Node84</title>
<path fill="none" stroke="midnightblue" d="M2618.44,-103.86C2611.86,-94.5 2603.99,-83.33 2598.66,-75.75"/>
<polygon fill="midnightblue" stroke="midnightblue" points="2615.61,-105.92 2624.23,-112.08 2621.33,-101.89 2615.61,-105.92"/>
</g>
<!-- Node104&#45;&gt;Node86 -->
<g id="edge72" class="edge">
<title>Node104&#45;&gt;Node86</title>
<path fill="none" stroke="midnightblue" d="M2642.56,-103.86C2649.14,-94.5 2657.01,-83.33 2662.34,-75.75"/>
<polygon fill="midnightblue" stroke="midnightblue" points="2639.67,-101.89 2636.77,-112.08 2645.39,-105.92 2639.67,-101.89"/>
</g>
<!-- Node104&#45;&gt;Node87 -->
<g id="edge73" class="edge">
<title>Node104&#45;&gt;Node87</title>
<path fill="none" stroke="midnightblue" d="M2658.16,-108.23C2680.05,-98.13 2710,-84.31 2729.05,-75.52"/>
<polygon fill="midnightblue" stroke="midnightblue" points="2656.65,-105.08 2649.04,-112.44 2659.59,-111.43 2656.65,-105.08"/>
</g>
<!-- Node104&#45;&gt;Node88 -->
<g id="edge74" class="edge">
<title>Node104&#45;&gt;Node88</title>
<path fill="none" stroke="midnightblue" d="M2673.48,-109.89C2712.95,-99.7 2770.6,-84.8 2806.54,-75.52"/>
<polygon fill="midnightblue" stroke="midnightblue" points="2672.42,-106.55 2663.62,-112.44 2674.17,-113.33 2672.42,-106.55"/>
</g>
<!-- Node104&#45;&gt;Node71 -->
<g id="edge75" class="edge">
<title>Node104&#45;&gt;Node71</title>
<path fill="none" stroke="midnightblue" d="M2693.17,-111.04C2745.53,-102.49 2822.07,-89.45 2888.5,-76 2891.5,-75.39 2894.62,-74.73 2897.73,-74.05"/>
<polygon fill="midnightblue" stroke="midnightblue" points="2692.34,-107.63 2683.03,-112.69 2693.47,-114.54 2692.34,-107.63"/>
</g>
<!-- Node104&#45;&gt;Node72 -->
<g id="edge76" class="edge">
<title>Node104&#45;&gt;Node72</title>
<path fill="none" stroke="midnightblue" d="M2693.26,-114.72C2761.01,-107.44 2871.93,-94.1 2966.5,-76 2969.41,-75.44 2972.44,-74.8 2975.45,-74.11"/>
<polygon fill="midnightblue" stroke="midnightblue" points="2692.75,-111.25 2683.17,-115.79 2693.49,-118.21 2692.75,-111.25"/>
</g>
<!-- Node104&#45;&gt;Node73 -->
<g id="edge77" class="edge">
<title>Node104&#45;&gt;Node73</title>
<path fill="none" stroke="midnightblue" d="M2693.52,-115.08C2773.79,-107.31 2916.7,-92.67 3038.5,-76 3041.57,-75.58 3044.73,-75.12 3047.91,-74.65"/>
<polygon fill="midnightblue" stroke="midnightblue" points="2692.72,-111.64 2683.1,-116.09 2693.39,-118.61 2692.72,-111.64"/>
</g>
<!-- Node104&#45;&gt;Node103 -->
<g id="edge78" class="edge">
<title>Node104&#45;&gt;Node103</title>
<path fill="none" stroke="midnightblue" d="M2693.32,-117.97C2791.06,-112.72 2985.27,-100.08 3148.5,-76 3151.37,-75.58 3154.33,-75.08 3157.3,-74.54"/>
<polygon fill="midnightblue" stroke="midnightblue" points="2693.12,-114.48 2683.32,-118.5 2693.49,-121.47 2693.12,-114.48"/>
</g>
</g>
</svg>
