<?xml version="1.0" encoding="UTF-8" standalone="no"?>
<!DOCTYPE svg PUBLIC "-//W3C//DTD SVG 1.1//EN"
 "http://www.w3.org/Graphics/SVG/1.1/DTD/svg11.dtd">
<!-- Generated by graphviz version 2.43.0 (0)
 -->
<!-- Title: magick&#45;baseconfig.h Pages: 1 -->
<svg width="3382pt" height="308pt"
 viewBox="0.00 0.00 3381.50 308.00" xmlns="http://www.w3.org/2000/svg" xmlns:xlink="http://www.w3.org/1999/xlink">
<g id="graph0" class="graph" transform="scale(1 1) rotate(0) translate(4 304)">
<title>magick&#45;baseconfig.h</title>
<polygon fill="white" stroke="transparent" points="-4,4 -4,-304 3377.5,-304 3377.5,4 -4,4"/>
<!-- Node1 -->
<g id="node1" class="node">
<title>Node1</title>
<g id="a_node1"><a xlink:title=" ">
<polygon fill="#bfbfbf" stroke="black" points="781.5,-280.5 781.5,-299.5 899.5,-299.5 899.5,-280.5 781.5,-280.5"/>
<text text-anchor="middle" x="840.5" y="-287.5" font-family="FreeSans" font-size="10.00">magick&#45;baseconfig.h</text>
</a>
</g>
</g>
<!-- Node2 -->
<g id="node2" class="node">
<title>Node2</title>
<g id="a_node2"><a xlink:href="magick-config_8h.html" target="_top" xlink:title=" ">
<polygon fill="white" stroke="black" points="793,-224.5 793,-243.5 888,-243.5 888,-224.5 793,-224.5"/>
<text text-anchor="middle" x="840.5" y="-231.5" font-family="FreeSans" font-size="10.00">magick&#45;config.h</text>
</a>
</g>
</g>
<!-- Node1&#45;&gt;Node2 -->
<g id="edge1" class="edge">
<title>Node1&#45;&gt;Node2</title>
<path fill="none" stroke="midnightblue" d="M840.5,-269.8C840.5,-260.91 840.5,-250.78 840.5,-243.75"/>
<polygon fill="midnightblue" stroke="midnightblue" points="837,-270.08 840.5,-280.08 844,-270.08 837,-270.08"/>
</g>
<!-- Node3 -->
<g id="node3" class="node">
<title>Node3</title>
<g id="a_node3"><a xlink:href="MagickCore_8h.html" target="_top" xlink:title=" ">
<polygon fill="white" stroke="black" points="21,-56.5 21,-75.5 104,-75.5 104,-56.5 21,-56.5"/>
<text text-anchor="middle" x="62.5" y="-63.5" font-family="FreeSans" font-size="10.00">MagickCore.h</text>
</a>
</g>
</g>
<!-- Node2&#45;&gt;Node3 -->
<g id="edge2" class="edge">
<title>Node2&#45;&gt;Node3</title>
<path fill="none" stroke="midnightblue" d="M782.76,-225.87C677.52,-212.24 447.89,-179.56 258.5,-132 194.35,-115.89 120.86,-89.24 84.81,-75.61"/>
<polygon fill="midnightblue" stroke="midnightblue" points="782.49,-229.37 792.85,-227.17 783.38,-222.42 782.49,-229.37"/>
</g>
<!-- Node7 -->
<g id="node7" class="node">
<title>Node7</title>
<g id="a_node7"><a xlink:href="deprecate_8h.html" target="_top" xlink:title=" ">
<polygon fill="white" stroke="black" points="371.5,-112.5 371.5,-131.5 445.5,-131.5 445.5,-112.5 371.5,-112.5"/>
<text text-anchor="middle" x="408.5" y="-119.5" font-family="FreeSans" font-size="10.00">deprecate.h</text>
</a>
</g>
</g>
<!-- Node2&#45;&gt;Node7 -->
<g id="edge6" class="edge">
<title>Node2&#45;&gt;Node7</title>
<path fill="none" stroke="midnightblue" d="M840.33,-214.09C839.12,-199.21 834.86,-179.19 821.5,-168 792.96,-144.08 541.74,-129.47 445.65,-124.71"/>
<polygon fill="midnightblue" stroke="midnightblue" points="836.84,-214.39 840.77,-224.23 843.84,-214.09 836.84,-214.39"/>
</g>
<!-- Node15 -->
<g id="node15" class="node">
<title>Node15</title>
<g id="a_node15"><a xlink:href="magick-type_8h.html" target="_top" xlink:title=" ">
<polygon fill="white" stroke="black" points="725,-168.5 725,-187.5 812,-187.5 812,-168.5 725,-168.5"/>
<text text-anchor="middle" x="768.5" y="-175.5" font-family="FreeSans" font-size="10.00">magick&#45;type.h</text>
</a>
</g>
</g>
<!-- Node2&#45;&gt;Node15 -->
<g id="edge15" class="edge">
<title>Node2&#45;&gt;Node15</title>
<path fill="none" stroke="midnightblue" d="M820.63,-218.1C807.68,-208.38 791.2,-196.03 780.28,-187.83"/>
<polygon fill="midnightblue" stroke="midnightblue" points="818.83,-221.12 828.93,-224.32 823.03,-215.52 818.83,-221.12"/>
</g>
<!-- Node16 -->
<g id="node16" class="node">
<title>Node16</title>
<g id="a_node16"><a xlink:href="studio_8h.html" target="_top" xlink:title=" ">
<polygon fill="white" stroke="red" points="1606.5,-112.5 1606.5,-131.5 1662.5,-131.5 1662.5,-112.5 1606.5,-112.5"/>
<text text-anchor="middle" x="1634.5" y="-119.5" font-family="FreeSans" font-size="10.00">studio.h</text>
</a>
</g>
</g>
<!-- Node2&#45;&gt;Node16 -->
<g id="edge79" class="edge">
<title>Node2&#45;&gt;Node16</title>
<path fill="none" stroke="midnightblue" d="M898.07,-225.02C1055.91,-203.16 1491.38,-142.83 1606.36,-126.9"/>
<polygon fill="midnightblue" stroke="midnightblue" points="897.51,-221.57 888.08,-226.41 898.47,-228.5 897.51,-221.57"/>
</g>
<!-- Node105 -->
<g id="node50" class="node">
<title>Node105</title>
<g id="a_node50"><a xlink:href="memory-private_8h.html" target="_top" xlink:title=" ">
<polygon fill="white" stroke="black" points="2499,-112.5 2499,-131.5 2604,-131.5 2604,-112.5 2499,-112.5"/>
<text text-anchor="middle" x="2551.5" y="-119.5" font-family="FreeSans" font-size="10.00">memory&#45;private.h</text>
</a>
</g>
</g>
<!-- Node2&#45;&gt;Node105 -->
<g id="edge59" class="edge">
<title>Node2&#45;&gt;Node105</title>
<path fill="none" stroke="midnightblue" d="M898.15,-229.29C1161.28,-212.38 2246.25,-142.62 2498.8,-126.39"/>
<polygon fill="midnightblue" stroke="midnightblue" points="897.8,-225.81 888.05,-229.94 898.25,-232.79 897.8,-225.81"/>
</g>
<!-- Node4 -->
<g id="node4" class="node">
<title>Node4</title>
<g id="a_node4"><a xlink:href="ImageMagick_8h.html" target="_top" xlink:title=" ">
<polygon fill="white" stroke="black" points="59.5,-0.5 59.5,-19.5 151.5,-19.5 151.5,-0.5 59.5,-0.5"/>
<text text-anchor="middle" x="105.5" y="-7.5" font-family="FreeSans" font-size="10.00">ImageMagick.h</text>
</a>
</g>
</g>
<!-- Node3&#45;&gt;Node4 -->
<g id="edge3" class="edge">
<title>Node3&#45;&gt;Node4</title>
<path fill="none" stroke="midnightblue" d="M75.92,-48.14C83.41,-38.74 92.44,-27.4 98.53,-19.75"/>
<polygon fill="midnightblue" stroke="midnightblue" points="73.09,-46.08 69.6,-56.08 78.57,-50.44 73.09,-46.08"/>
</g>
<!-- Node5 -->
<g id="node5" class="node">
<title>Node5</title>
<g id="a_node5"><a xlink:href="api_8h.html" target="_top" xlink:title=" ">
<polygon fill="white" stroke="black" points="0,-0.5 0,-19.5 41,-19.5 41,-0.5 0,-0.5"/>
<text text-anchor="middle" x="20.5" y="-7.5" font-family="FreeSans" font-size="10.00">api.h</text>
</a>
</g>
</g>
<!-- Node3&#45;&gt;Node5 -->
<g id="edge4" class="edge">
<title>Node3&#45;&gt;Node5</title>
<path fill="none" stroke="midnightblue" d="M49.39,-48.14C42.07,-38.74 33.26,-27.4 27.31,-19.75"/>
<polygon fill="midnightblue" stroke="midnightblue" points="46.66,-50.34 55.56,-56.08 52.19,-46.04 46.66,-50.34"/>
</g>
<!-- Node6 -->
<g id="node6" class="node">
<title>Node6</title>
<g id="a_node6"><a xlink:href="image-view_8c.html" target="_top" xlink:title=" ">
<polygon fill="white" stroke="black" points="508,-0.5 508,-19.5 589,-19.5 589,-0.5 508,-0.5"/>
<text text-anchor="middle" x="548.5" y="-7.5" font-family="FreeSans" font-size="10.00">image&#45;view.c</text>
</a>
</g>
</g>
<!-- Node3&#45;&gt;Node6 -->
<g id="edge5" class="edge">
<title>Node3&#45;&gt;Node6</title>
<path fill="none" stroke="midnightblue" d="M114.15,-56.01C265.44,-35.14 432.48,-20.42 507.9,-14.22"/>
<polygon fill="midnightblue" stroke="midnightblue" points="113.63,-52.54 104.21,-57.39 114.6,-59.48 113.63,-52.54"/>
</g>
<!-- Node7&#45;&gt;Node3 -->
<g id="edge7" class="edge">
<title>Node7&#45;&gt;Node3</title>
<path fill="none" stroke="midnightblue" d="M361.18,-114.13C302.87,-105.58 200.79,-90.36 113.5,-76 110.48,-75.5 107.37,-74.98 104.24,-74.45"/>
<polygon fill="midnightblue" stroke="midnightblue" points="360.8,-117.61 371.2,-115.59 361.81,-110.68 360.8,-117.61"/>
</g>
<!-- Node8 -->
<g id="node8" class="node">
<title>Node8</title>
<g id="a_node8"><a xlink:href="attribute_8c.html" target="_top" xlink:title=" ">
<polygon fill="white" stroke="black" points="375,-56.5 375,-75.5 442,-75.5 442,-56.5 375,-56.5"/>
<text text-anchor="middle" x="408.5" y="-63.5" font-family="FreeSans" font-size="10.00">attribute.c</text>
</a>
</g>
</g>
<!-- Node7&#45;&gt;Node8 -->
<g id="edge8" class="edge">
<title>Node7&#45;&gt;Node8</title>
<path fill="none" stroke="midnightblue" d="M408.5,-101.8C408.5,-92.91 408.5,-82.78 408.5,-75.75"/>
<polygon fill="midnightblue" stroke="midnightblue" points="405,-102.08 408.5,-112.08 412,-102.08 405,-102.08"/>
</g>
<!-- Node9 -->
<g id="node9" class="node">
<title>Node9</title>
<g id="a_node9"><a xlink:href="deprecate_8c.html" target="_top" xlink:title=" ">
<polygon fill="white" stroke="black" points="204.5,-56.5 204.5,-75.5 278.5,-75.5 278.5,-56.5 204.5,-56.5"/>
<text text-anchor="middle" x="241.5" y="-63.5" font-family="FreeSans" font-size="10.00">deprecate.c</text>
</a>
</g>
</g>
<!-- Node7&#45;&gt;Node9 -->
<g id="edge9" class="edge">
<title>Node7&#45;&gt;Node9</title>
<path fill="none" stroke="midnightblue" d="M372.33,-109.3C340.86,-99.13 296.01,-84.62 267.84,-75.52"/>
<polygon fill="midnightblue" stroke="midnightblue" points="371.45,-112.7 382.04,-112.44 373.6,-106.04 371.45,-112.7"/>
</g>
<!-- Node10 -->
<g id="node10" class="node">
<title>Node10</title>
<g id="a_node10"><a xlink:href="feature_8c.html" target="_top" xlink:title=" ">
<polygon fill="white" stroke="black" points="296.5,-56.5 296.5,-75.5 356.5,-75.5 356.5,-56.5 296.5,-56.5"/>
<text text-anchor="middle" x="326.5" y="-63.5" font-family="FreeSans" font-size="10.00">feature.c</text>
</a>
</g>
</g>
<!-- Node7&#45;&gt;Node10 -->
<g id="edge10" class="edge">
<title>Node7&#45;&gt;Node10</title>
<path fill="none" stroke="midnightblue" d="M386.67,-106.62C371.69,-96.76 352.3,-83.99 339.64,-75.65"/>
<polygon fill="midnightblue" stroke="midnightblue" points="385.05,-109.75 395.33,-112.32 388.9,-103.9 385.05,-109.75"/>
</g>
<!-- Node11 -->
<g id="node11" class="node">
<title>Node11</title>
<g id="a_node11"><a xlink:href="image_8c.html" target="_top" xlink:title=" ">
<polygon fill="white" stroke="black" points="1688.5,-56.5 1688.5,-75.5 1744.5,-75.5 1744.5,-56.5 1688.5,-56.5"/>
<text text-anchor="middle" x="1716.5" y="-63.5" font-family="FreeSans" font-size="10.00">image.c</text>
</a>
</g>
</g>
<!-- Node7&#45;&gt;Node11 -->
<g id="edge11" class="edge">
<title>Node7&#45;&gt;Node11</title>
<path fill="none" stroke="midnightblue" d="M455.88,-120.61C656.43,-118.76 1436.28,-109.53 1679.5,-76 1682.38,-75.6 1685.37,-75.08 1688.33,-74.48"/>
<polygon fill="midnightblue" stroke="midnightblue" points="455.64,-117.11 445.68,-120.7 455.71,-124.11 455.64,-117.11"/>
</g>
<!-- Node12 -->
<g id="node12" class="node">
<title>Node12</title>
<g id="a_node12"><a xlink:href="mime_8c.html" target="_top" xlink:title=" ">
<polygon fill="white" stroke="black" points="460,-56.5 460,-75.5 513,-75.5 513,-56.5 460,-56.5"/>
<text text-anchor="middle" x="486.5" y="-63.5" font-family="FreeSans" font-size="10.00">mime.c</text>
</a>
</g>
</g>
<!-- Node7&#45;&gt;Node12 -->
<g id="edge12" class="edge">
<title>Node7&#45;&gt;Node12</title>
<path fill="none" stroke="midnightblue" d="M429.27,-106.62C443.52,-96.76 461.96,-83.99 474,-75.65"/>
<polygon fill="midnightblue" stroke="midnightblue" points="427.26,-103.75 421.03,-112.32 431.25,-109.51 427.26,-103.75"/>
</g>
<!-- Node13 -->
<g id="node13" class="node">
<title>Node13</title>
<g id="a_node13"><a xlink:href="module_8c.html" target="_top" xlink:title=" ">
<polygon fill="white" stroke="black" points="531.5,-56.5 531.5,-75.5 593.5,-75.5 593.5,-56.5 531.5,-56.5"/>
<text text-anchor="middle" x="562.5" y="-63.5" font-family="FreeSans" font-size="10.00">module.c</text>
</a>
</g>
</g>
<!-- Node7&#45;&gt;Node13 -->
<g id="edge13" class="edge">
<title>Node7&#45;&gt;Node13</title>
<path fill="none" stroke="midnightblue" d="M442.61,-109.04C471.59,-98.88 512.46,-84.55 538.21,-75.52"/>
<polygon fill="midnightblue" stroke="midnightblue" points="441.18,-105.83 432.9,-112.44 443.5,-112.44 441.18,-105.83"/>
</g>
<!-- Node14 -->
<g id="node14" class="node">
<title>Node14</title>
<g id="a_node14"><a xlink:href="statistic_8c.html" target="_top" xlink:title=" ">
<polygon fill="white" stroke="black" points="122.5,-56.5 122.5,-75.5 186.5,-75.5 186.5,-56.5 122.5,-56.5"/>
<text text-anchor="middle" x="154.5" y="-63.5" font-family="FreeSans" font-size="10.00">statistic.c</text>
</a>
</g>
</g>
<!-- Node7&#45;&gt;Node14 -->
<g id="edge14" class="edge">
<title>Node7&#45;&gt;Node14</title>
<path fill="none" stroke="midnightblue" d="M361.22,-111.12C318.04,-102.08 252.45,-88.27 195.5,-76 192.65,-75.39 189.69,-74.74 186.72,-74.1"/>
<polygon fill="midnightblue" stroke="midnightblue" points="360.65,-114.58 371.16,-113.2 362.09,-107.73 360.65,-114.58"/>
</g>
<!-- Node15&#45;&gt;Node3 -->
<g id="edge16" class="edge">
<title>Node15&#45;&gt;Node3</title>
<path fill="none" stroke="midnightblue" d="M714.67,-172.81C636.7,-166.34 487.93,-152.48 362.5,-132 265.2,-116.11 151.86,-89.24 96.47,-75.56"/>
<polygon fill="midnightblue" stroke="midnightblue" points="714.49,-176.31 724.74,-173.64 715.06,-169.33 714.49,-176.31"/>
</g>
<!-- Node15&#45;&gt;Node16 -->
<g id="edge17" class="edge">
<title>Node15&#45;&gt;Node16</title>
<path fill="none" stroke="midnightblue" d="M822.43,-173.64C987.62,-163.34 1482.86,-132.46 1606.36,-124.75"/>
<polygon fill="midnightblue" stroke="midnightblue" points="821.8,-170.17 812.04,-174.29 822.24,-177.16 821.8,-170.17"/>
</g>
<!-- Node16&#45;&gt;Node6 -->
<g id="edge41" class="edge">
<title>Node16&#45;&gt;Node6</title>
<path fill="none" stroke="midnightblue" d="M1595.81,-120.74C1464.69,-119.54 1038,-112.83 906.5,-76 888.12,-70.85 886.66,-61.86 868.5,-56 771.46,-24.69 650.91,-15.16 589.15,-12.26"/>
<polygon fill="midnightblue" stroke="midnightblue" points="1596.12,-124.25 1606.15,-120.83 1596.18,-117.25 1596.12,-124.25"/>
</g>
<!-- Node16&#45;&gt;Node8 -->
<g id="edge22" class="edge">
<title>Node16&#45;&gt;Node8</title>
<path fill="none" stroke="midnightblue" d="M1596.25,-120.41C1419.49,-117.56 680.78,-104.15 451.5,-76 448.47,-75.63 445.34,-75.15 442.21,-74.62"/>
<polygon fill="midnightblue" stroke="midnightblue" points="1596.31,-123.91 1606.36,-120.57 1596.42,-116.91 1596.31,-123.91"/>
</g>
<!-- Node16&#45;&gt;Node9 -->
<g id="edge36" class="edge">
<title>Node16&#45;&gt;Node9</title>
<path fill="none" stroke="midnightblue" d="M1596.31,-120.55C1405.16,-118.17 551.18,-106 287.5,-76 284.59,-75.67 281.59,-75.25 278.58,-74.78"/>
<polygon fill="midnightblue" stroke="midnightblue" points="1596.39,-124.05 1606.43,-120.67 1596.47,-117.05 1596.39,-124.05"/>
</g>
<!-- Node16&#45;&gt;Node10 -->
<g id="edge39" class="edge">
<title>Node16&#45;&gt;Node10</title>
<path fill="none" stroke="midnightblue" d="M1596.48,-120.6C1412.5,-118.54 613.35,-107.87 366.5,-76 363.25,-75.58 359.88,-75.02 356.53,-74.39"/>
<polygon fill="midnightblue" stroke="midnightblue" points="1596.46,-124.1 1606.49,-120.71 1596.53,-117.1 1596.46,-124.1"/>
</g>
<!-- Node16&#45;&gt;Node11 -->
<g id="edge42" class="edge">
<title>Node16&#45;&gt;Node11</title>
<path fill="none" stroke="midnightblue" d="M1656.33,-106.62C1671.31,-96.76 1690.7,-83.99 1703.36,-75.65"/>
<polygon fill="midnightblue" stroke="midnightblue" points="1654.1,-103.9 1647.67,-112.32 1657.95,-109.75 1654.1,-103.9"/>
</g>
<!-- Node16&#45;&gt;Node12 -->
<g id="edge44" class="edge">
<title>Node16&#45;&gt;Node12</title>
<path fill="none" stroke="midnightblue" d="M1596.08,-120.5C1425.59,-118.12 736.41,-106.74 522.5,-76 519.44,-75.56 516.26,-74.97 513.12,-74.3"/>
<polygon fill="midnightblue" stroke="midnightblue" points="1596.28,-124 1606.33,-120.64 1596.37,-117 1596.28,-124"/>
</g>
<!-- Node16&#45;&gt;Node13 -->
<g id="edge45" class="edge">
<title>Node16&#45;&gt;Node13</title>
<path fill="none" stroke="midnightblue" d="M1596.02,-120.21C1433.3,-116.73 801.02,-101.79 603.5,-76 600.32,-75.58 597.02,-75.05 593.74,-74.44"/>
<polygon fill="midnightblue" stroke="midnightblue" points="1595.98,-123.71 1606.05,-120.42 1596.12,-116.71 1595.98,-123.71"/>
</g>
<!-- Node16&#45;&gt;Node14 -->
<g id="edge54" class="edge">
<title>Node16&#45;&gt;Node14</title>
<path fill="none" stroke="midnightblue" d="M1595.95,-120.76C1396.25,-119.36 477.88,-111.1 195.5,-76 192.61,-75.64 189.62,-75.17 186.63,-74.64"/>
<polygon fill="midnightblue" stroke="midnightblue" points="1596.21,-124.26 1606.23,-120.83 1596.26,-117.26 1596.21,-124.26"/>
</g>
<!-- Node17 -->
<g id="node17" class="node">
<title>Node17</title>
<g id="a_node17"><a xlink:href="accelerate_8c.html" target="_top" xlink:title=" ">
<polygon fill="white" stroke="black" points="915.5,-56.5 915.5,-75.5 991.5,-75.5 991.5,-56.5 915.5,-56.5"/>
<text text-anchor="middle" x="953.5" y="-63.5" font-family="FreeSans" font-size="10.00">accelerate.c</text>
</a>
</g>
</g>
<!-- Node16&#45;&gt;Node17 -->
<g id="edge18" class="edge">
<title>Node16&#45;&gt;Node17</title>
<path fill="none" stroke="midnightblue" d="M1596.2,-119.8C1497.38,-116.39 1225.8,-104.9 1001.5,-76 998.3,-75.59 995,-75.1 991.69,-74.57"/>
<polygon fill="midnightblue" stroke="midnightblue" points="1596.2,-123.31 1606.31,-120.15 1596.43,-116.31 1596.2,-123.31"/>
</g>
<!-- Node18 -->
<g id="node18" class="node">
<title>Node18</title>
<g id="a_node18"><a xlink:href="animate_8c.html" target="_top" xlink:title=" ">
<polygon fill="white" stroke="black" points="1010,-56.5 1010,-75.5 1075,-75.5 1075,-56.5 1010,-56.5"/>
<text text-anchor="middle" x="1042.5" y="-63.5" font-family="FreeSans" font-size="10.00">animate.c</text>
</a>
</g>
</g>
<!-- Node16&#45;&gt;Node18 -->
<g id="edge19" class="edge">
<title>Node16&#45;&gt;Node18</title>
<path fill="none" stroke="midnightblue" d="M1596.05,-119.57C1506.14,-115.85 1275.31,-104.13 1084.5,-76 1081.55,-75.56 1078.49,-75.05 1075.44,-74.48"/>
<polygon fill="midnightblue" stroke="midnightblue" points="1596.17,-123.08 1606.31,-119.98 1596.46,-116.08 1596.17,-123.08"/>
</g>
<!-- Node19 -->
<g id="node19" class="node">
<title>Node19</title>
<g id="a_node19"><a xlink:href="annotate_8c.html" target="_top" xlink:title=" ">
<polygon fill="white" stroke="black" points="1093.5,-56.5 1093.5,-75.5 1161.5,-75.5 1161.5,-56.5 1093.5,-56.5"/>
<text text-anchor="middle" x="1127.5" y="-63.5" font-family="FreeSans" font-size="10.00">annotate.c</text>
</a>
</g>
</g>
<!-- Node16&#45;&gt;Node19 -->
<g id="edge20" class="edge">
<title>Node16&#45;&gt;Node19</title>
<path fill="none" stroke="midnightblue" d="M1596.35,-118.72C1516.82,-113.66 1327.66,-99.99 1170.5,-76 1167.63,-75.56 1164.67,-75.06 1161.71,-74.51"/>
<polygon fill="midnightblue" stroke="midnightblue" points="1596.19,-122.22 1606.39,-119.35 1596.62,-115.23 1596.19,-122.22"/>
</g>
<!-- Node20 -->
<g id="node20" class="node">
<title>Node20</title>
<g id="a_node20"><a xlink:href="artifact_8c.html" target="_top" xlink:title=" ">
<polygon fill="white" stroke="black" points="1179.5,-56.5 1179.5,-75.5 1239.5,-75.5 1239.5,-56.5 1179.5,-56.5"/>
<text text-anchor="middle" x="1209.5" y="-63.5" font-family="FreeSans" font-size="10.00">artifact.c</text>
</a>
</g>
</g>
<!-- Node16&#45;&gt;Node20 -->
<g id="edge21" class="edge">
<title>Node16&#45;&gt;Node20</title>
<path fill="none" stroke="midnightblue" d="M1596.2,-117.95C1526.63,-112.1 1374.97,-97.89 1248.5,-76 1245.62,-75.5 1242.64,-74.93 1239.67,-74.31"/>
<polygon fill="midnightblue" stroke="midnightblue" points="1596,-121.45 1606.26,-118.79 1596.58,-114.47 1596,-121.45"/>
</g>
<!-- Node21 -->
<g id="node21" class="node">
<title>Node21</title>
<g id="a_node21"><a xlink:href="blob_8c.html" target="_top" xlink:title=" ">
<polygon fill="white" stroke="black" points="1257.5,-56.5 1257.5,-75.5 1303.5,-75.5 1303.5,-56.5 1257.5,-56.5"/>
<text text-anchor="middle" x="1280.5" y="-63.5" font-family="FreeSans" font-size="10.00">blob.c</text>
</a>
</g>
</g>
<!-- Node16&#45;&gt;Node21 -->
<g id="edge23" class="edge">
<title>Node16&#45;&gt;Node21</title>
<path fill="none" stroke="midnightblue" d="M1596.03,-117.33C1535.34,-111.15 1413.87,-97.24 1312.5,-76 1309.68,-75.41 1306.73,-74.7 1303.83,-73.95"/>
<polygon fill="midnightblue" stroke="midnightblue" points="1595.98,-120.84 1606.28,-118.35 1596.68,-113.87 1595.98,-120.84"/>
</g>
<!-- Node22 -->
<g id="node22" class="node">
<title>Node22</title>
<g id="a_node22"><a xlink:href="cache-view_8c.html" target="_top" xlink:title=" ">
<polygon fill="white" stroke="black" points="1945,-56.5 1945,-75.5 2024,-75.5 2024,-56.5 1945,-56.5"/>
<text text-anchor="middle" x="1984.5" y="-63.5" font-family="FreeSans" font-size="10.00">cache&#45;view.c</text>
</a>
</g>
</g>
<!-- Node16&#45;&gt;Node22 -->
<g id="edge24" class="edge">
<title>Node16&#45;&gt;Node22</title>
<path fill="none" stroke="midnightblue" d="M1672.81,-115.69C1730.06,-107.66 1841.29,-91.69 1935.5,-76 1938.57,-75.49 1941.75,-74.94 1944.94,-74.38"/>
<polygon fill="midnightblue" stroke="midnightblue" points="1672.19,-112.24 1662.77,-117.09 1673.16,-119.17 1672.19,-112.24"/>
</g>
<!-- Node23 -->
<g id="node23" class="node">
<title>Node23</title>
<g id="a_node23"><a xlink:href="cache_8c.html" target="_top" xlink:title=" ">
<polygon fill="white" stroke="black" points="2042,-56.5 2042,-75.5 2095,-75.5 2095,-56.5 2042,-56.5"/>
<text text-anchor="middle" x="2068.5" y="-63.5" font-family="FreeSans" font-size="10.00">cache.c</text>
</a>
</g>
</g>
<!-- Node16&#45;&gt;Node23 -->
<g id="edge25" class="edge">
<title>Node16&#45;&gt;Node23</title>
<path fill="none" stroke="midnightblue" d="M1673.07,-118.45C1744.59,-113.31 1902.43,-100.12 2033.5,-76 2036.21,-75.5 2039.03,-74.91 2041.83,-74.27"/>
<polygon fill="midnightblue" stroke="midnightblue" points="1672.48,-114.98 1662.76,-119.17 1672.98,-121.96 1672.48,-114.98"/>
</g>
<!-- Node24 -->
<g id="node24" class="node">
<title>Node24</title>
<g id="a_node24"><a xlink:href="channel_8c.html" target="_top" xlink:title=" ">
<polygon fill="white" stroke="black" points="612,-56.5 612,-75.5 675,-75.5 675,-56.5 612,-56.5"/>
<text text-anchor="middle" x="643.5" y="-63.5" font-family="FreeSans" font-size="10.00">channel.c</text>
</a>
</g>
</g>
<!-- Node16&#45;&gt;Node24 -->
<g id="edge26" class="edge">
<title>Node16&#45;&gt;Node24</title>
<path fill="none" stroke="midnightblue" d="M1596.21,-121.5C1467.12,-122.67 1036.35,-122.61 684.5,-76 681.47,-75.6 678.32,-75.09 675.19,-74.51"/>
<polygon fill="midnightblue" stroke="midnightblue" points="1596.4,-124.99 1606.37,-121.39 1596.33,-117.99 1596.4,-124.99"/>
</g>
<!-- Node25 -->
<g id="node25" class="node">
<title>Node25</title>
<g id="a_node25"><a xlink:href="cipher_8c.html" target="_top" xlink:title=" ">
<polygon fill="white" stroke="black" points="1321.5,-56.5 1321.5,-75.5 1375.5,-75.5 1375.5,-56.5 1321.5,-56.5"/>
<text text-anchor="middle" x="1348.5" y="-63.5" font-family="FreeSans" font-size="10.00">cipher.c</text>
</a>
</g>
</g>
<!-- Node16&#45;&gt;Node25 -->
<g id="edge27" class="edge">
<title>Node16&#45;&gt;Node25</title>
<path fill="none" stroke="midnightblue" d="M1596.38,-114.95C1547.22,-106.97 1459.17,-92.04 1384.5,-76 1381.6,-75.38 1378.58,-74.69 1375.58,-73.98"/>
<polygon fill="midnightblue" stroke="midnightblue" points="1595.83,-118.41 1606.26,-116.55 1596.95,-111.5 1595.83,-118.41"/>
</g>
<!-- Node26 -->
<g id="node26" class="node">
<title>Node26</title>
<g id="a_node26"><a xlink:href="client_8c.html" target="_top" xlink:title=" ">
<polygon fill="white" stroke="black" points="1459.5,-56.5 1459.5,-75.5 1511.5,-75.5 1511.5,-56.5 1459.5,-56.5"/>
<text text-anchor="middle" x="1485.5" y="-63.5" font-family="FreeSans" font-size="10.00">client.c</text>
</a>
</g>
</g>
<!-- Node16&#45;&gt;Node26 -->
<g id="edge28" class="edge">
<title>Node16&#45;&gt;Node26</title>
<path fill="none" stroke="midnightblue" d="M1601.13,-108.91C1573.12,-98.75 1533.8,-84.51 1509,-75.52"/>
<polygon fill="midnightblue" stroke="midnightblue" points="1600.3,-112.33 1610.89,-112.44 1602.68,-105.75 1600.3,-112.33"/>
</g>
<!-- Node27 -->
<g id="node27" class="node">
<title>Node27</title>
<g id="a_node27"><a xlink:href="coder_8c.html" target="_top" xlink:title=" ">
<polygon fill="white" stroke="black" points="1530,-56.5 1530,-75.5 1581,-75.5 1581,-56.5 1530,-56.5"/>
<text text-anchor="middle" x="1555.5" y="-63.5" font-family="FreeSans" font-size="10.00">coder.c</text>
</a>
</g>
</g>
<!-- Node16&#45;&gt;Node27 -->
<g id="edge29" class="edge">
<title>Node16&#45;&gt;Node27</title>
<path fill="none" stroke="midnightblue" d="M1613.47,-106.62C1599.03,-96.76 1580.36,-83.99 1568.16,-75.65"/>
<polygon fill="midnightblue" stroke="midnightblue" points="1611.58,-109.57 1621.81,-112.32 1615.53,-103.79 1611.58,-109.57"/>
</g>
<!-- Node28 -->
<g id="node28" class="node">
<title>Node28</title>
<g id="a_node28"><a xlink:href="color_8c.html" target="_top" xlink:title=" ">
<polygon fill="white" stroke="black" points="1393.5,-56.5 1393.5,-75.5 1441.5,-75.5 1441.5,-56.5 1393.5,-56.5"/>
<text text-anchor="middle" x="1417.5" y="-63.5" font-family="FreeSans" font-size="10.00">color.c</text>
</a>
</g>
</g>
<!-- Node16&#45;&gt;Node28 -->
<g id="edge30" class="edge">
<title>Node16&#45;&gt;Node28</title>
<path fill="none" stroke="midnightblue" d="M1596.46,-112.01C1559.2,-103.12 1500.85,-89.02 1450.5,-76 1447.63,-75.26 1444.61,-74.46 1441.63,-73.66"/>
<polygon fill="midnightblue" stroke="midnightblue" points="1595.85,-115.46 1606.39,-114.37 1597.47,-108.65 1595.85,-115.46"/>
</g>
<!-- Node29 -->
<g id="node29" class="node">
<title>Node29</title>
<g id="a_node29"><a xlink:href="colormap_8c.html" target="_top" xlink:title=" ">
<polygon fill="white" stroke="black" points="1599,-56.5 1599,-75.5 1670,-75.5 1670,-56.5 1599,-56.5"/>
<text text-anchor="middle" x="1634.5" y="-63.5" font-family="FreeSans" font-size="10.00">colormap.c</text>
</a>
</g>
</g>
<!-- Node16&#45;&gt;Node29 -->
<g id="edge31" class="edge">
<title>Node16&#45;&gt;Node29</title>
<path fill="none" stroke="midnightblue" d="M1634.5,-101.8C1634.5,-92.91 1634.5,-82.78 1634.5,-75.75"/>
<polygon fill="midnightblue" stroke="midnightblue" points="1631,-102.08 1634.5,-112.08 1638,-102.08 1631,-102.08"/>
</g>
<!-- Node30 -->
<g id="node30" class="node">
<title>Node30</title>
<g id="a_node30"><a xlink:href="colorspace_8c.html" target="_top" xlink:title=" ">
<polygon fill="white" stroke="black" points="1763,-56.5 1763,-75.5 1840,-75.5 1840,-56.5 1763,-56.5"/>
<text text-anchor="middle" x="1801.5" y="-63.5" font-family="FreeSans" font-size="10.00">colorspace.c</text>
</a>
</g>
</g>
<!-- Node16&#45;&gt;Node30 -->
<g id="edge32" class="edge">
<title>Node16&#45;&gt;Node30</title>
<path fill="none" stroke="midnightblue" d="M1670.67,-109.3C1702.14,-99.13 1746.99,-84.62 1775.16,-75.52"/>
<polygon fill="midnightblue" stroke="midnightblue" points="1669.4,-106.04 1660.96,-112.44 1671.55,-112.7 1669.4,-106.04"/>
</g>
<!-- Node31 -->
<g id="node31" class="node">
<title>Node31</title>
<g id="a_node31"><a xlink:href="compare_8c.html" target="_top" xlink:title=" ">
<polygon fill="white" stroke="black" points="1858.5,-56.5 1858.5,-75.5 1926.5,-75.5 1926.5,-56.5 1858.5,-56.5"/>
<text text-anchor="middle" x="1892.5" y="-63.5" font-family="FreeSans" font-size="10.00">compare.c</text>
</a>
</g>
</g>
<!-- Node16&#45;&gt;Node31 -->
<g id="edge33" class="edge">
<title>Node16&#45;&gt;Node31</title>
<path fill="none" stroke="midnightblue" d="M1672.4,-113.07C1722.53,-102.58 1810.13,-84.24 1858.32,-74.15"/>
<polygon fill="midnightblue" stroke="midnightblue" points="1671.67,-109.64 1662.6,-115.12 1673.11,-116.5 1671.67,-109.64"/>
</g>
<!-- Node32 -->
<g id="node32" class="node">
<title>Node32</title>
<g id="a_node32"><a xlink:href="composite_8c.html" target="_top" xlink:title=" ">
<polygon fill="white" stroke="black" points="693.5,-56.5 693.5,-75.5 769.5,-75.5 769.5,-56.5 693.5,-56.5"/>
<text text-anchor="middle" x="731.5" y="-63.5" font-family="FreeSans" font-size="10.00">composite.c</text>
</a>
</g>
</g>
<!-- Node16&#45;&gt;Node32 -->
<g id="edge34" class="edge">
<title>Node16&#45;&gt;Node32</title>
<path fill="none" stroke="midnightblue" d="M1596.09,-120.85C1475.3,-119.97 1092.55,-114.14 778.5,-76 775.61,-75.65 772.64,-75.23 769.65,-74.76"/>
<polygon fill="midnightblue" stroke="midnightblue" points="1596.28,-124.35 1606.3,-120.91 1596.32,-117.35 1596.28,-124.35"/>
</g>
<!-- Node33 -->
<g id="node33" class="node">
<title>Node33</title>
<g id="a_node33"><a xlink:href="compress_8c.html" target="_top" xlink:title=" ">
<polygon fill="white" stroke="black" points="787.5,-56.5 787.5,-75.5 859.5,-75.5 859.5,-56.5 787.5,-56.5"/>
<text text-anchor="middle" x="823.5" y="-63.5" font-family="FreeSans" font-size="10.00">compress.c</text>
</a>
</g>
</g>
<!-- Node16&#45;&gt;Node33 -->
<g id="edge35" class="edge">
<title>Node16&#45;&gt;Node33</title>
<path fill="none" stroke="midnightblue" d="M1596.31,-120.35C1484.69,-118.1 1149.45,-108.88 873.5,-76 869.03,-75.47 864.36,-74.79 859.74,-74.05"/>
<polygon fill="midnightblue" stroke="midnightblue" points="1596.34,-123.85 1606.41,-120.54 1596.48,-116.85 1596.34,-123.85"/>
</g>
<!-- Node41 -->
<g id="node34" class="node">
<title>Node41</title>
<g id="a_node34"><a xlink:href="draw_8c.html" target="_top" xlink:title=" ">
<polygon fill="white" stroke="black" points="2113.5,-56.5 2113.5,-75.5 2161.5,-75.5 2161.5,-56.5 2113.5,-56.5"/>
<text text-anchor="middle" x="2137.5" y="-63.5" font-family="FreeSans" font-size="10.00">draw.c</text>
</a>
</g>
</g>
<!-- Node16&#45;&gt;Node41 -->
<g id="edge37" class="edge">
<title>Node16&#45;&gt;Node41</title>
<path fill="none" stroke="midnightblue" d="M1672.69,-119.55C1753.13,-116.03 1945.73,-105.03 2104.5,-76 2107.42,-75.47 2110.46,-74.8 2113.46,-74.07"/>
<polygon fill="midnightblue" stroke="midnightblue" points="1672.38,-116.06 1662.54,-119.99 1672.68,-123.06 1672.38,-116.06"/>
</g>
<!-- Node42 -->
<g id="node35" class="node">
<title>Node42</title>
<g id="a_node35"><a xlink:href="effect_8c.html" target="_top" xlink:title=" ">
<polygon fill="white" stroke="black" points="2180,-56.5 2180,-75.5 2233,-75.5 2233,-56.5 2180,-56.5"/>
<text text-anchor="middle" x="2206.5" y="-63.5" font-family="FreeSans" font-size="10.00">effect.c</text>
</a>
</g>
</g>
<!-- Node16&#45;&gt;Node42 -->
<g id="edge38" class="edge">
<title>Node16&#45;&gt;Node42</title>
<path fill="none" stroke="midnightblue" d="M1672.67,-119.91C1760.87,-116.92 1985.48,-106.69 2170.5,-76 2173.55,-75.49 2176.72,-74.86 2179.86,-74.17"/>
<polygon fill="midnightblue" stroke="midnightblue" points="1672.48,-116.41 1662.6,-120.24 1672.71,-123.41 1672.48,-116.41"/>
</g>
<!-- Node46 -->
<g id="node36" class="node">
<title>Node46</title>
<g id="a_node36"><a xlink:href="fx_8c.html" target="_top" xlink:title=" ">
<polygon fill="white" stroke="black" points="2251,-56.5 2251,-75.5 2286,-75.5 2286,-56.5 2251,-56.5"/>
<text text-anchor="middle" x="2268.5" y="-63.5" font-family="FreeSans" font-size="10.00">fx.c</text>
</a>
</g>
</g>
<!-- Node16&#45;&gt;Node46 -->
<g id="edge40" class="edge">
<title>Node16&#45;&gt;Node46</title>
<path fill="none" stroke="midnightblue" d="M1672.91,-121.58C1769.64,-122.32 2030.68,-119.72 2242.5,-76 2245.21,-75.44 2248.03,-74.67 2250.77,-73.82"/>
<polygon fill="midnightblue" stroke="midnightblue" points="1672.77,-118.08 1662.73,-121.49 1672.7,-125.08 1672.77,-118.08"/>
</g>
<!-- Node59 -->
<g id="node37" class="node">
<title>Node59</title>
<g id="a_node37"><a xlink:href="memory_8c.html" target="_top" xlink:title=" ">
<polygon fill="white" stroke="black" points="2304,-56.5 2304,-75.5 2369,-75.5 2369,-56.5 2304,-56.5"/>
<text text-anchor="middle" x="2336.5" y="-63.5" font-family="FreeSans" font-size="10.00">memory.c</text>
</a>
</g>
</g>
<!-- Node16&#45;&gt;Node59 -->
<g id="edge43" class="edge">
<title>Node16&#45;&gt;Node59</title>
<path fill="none" stroke="midnightblue" d="M1672.79,-120.37C1774.63,-118.28 2060.43,-109.61 2295.5,-76 2298.24,-75.61 2301.07,-75.13 2303.91,-74.61"/>
<polygon fill="midnightblue" stroke="midnightblue" points="1672.61,-116.88 1662.68,-120.57 1672.75,-123.87 1672.61,-116.88"/>
</g>
<!-- Node62 -->
<g id="node38" class="node">
<title>Node62</title>
<g id="a_node38"><a xlink:href="morphology_8c.html" target="_top" xlink:title=" ">
<polygon fill="white" stroke="black" points="2387.5,-56.5 2387.5,-75.5 2469.5,-75.5 2469.5,-56.5 2387.5,-56.5"/>
<text text-anchor="middle" x="2428.5" y="-63.5" font-family="FreeSans" font-size="10.00">morphology.c</text>
</a>
</g>
</g>
<!-- Node16&#45;&gt;Node62 -->
<g id="edge46" class="edge">
<title>Node16&#45;&gt;Node62</title>
<path fill="none" stroke="midnightblue" d="M1672.93,-120.27C1783.13,-117.83 2109.61,-108.22 2378.5,-76 2381.39,-75.65 2384.37,-75.25 2387.36,-74.8"/>
<polygon fill="midnightblue" stroke="midnightblue" points="1672.57,-116.78 1662.65,-120.49 1672.72,-123.78 1672.57,-116.78"/>
</g>
<!-- Node67 -->
<g id="node39" class="node">
<title>Node67</title>
<g id="a_node39"><a xlink:href="opencl_8c.html" target="_top" xlink:title=" ">
<polygon fill="white" stroke="black" points="2488,-56.5 2488,-75.5 2545,-75.5 2545,-56.5 2488,-56.5"/>
<text text-anchor="middle" x="2516.5" y="-63.5" font-family="FreeSans" font-size="10.00">opencl.c</text>
</a>
</g>
</g>
<!-- Node16&#45;&gt;Node67 -->
<g id="edge47" class="edge">
<title>Node16&#45;&gt;Node67</title>
<path fill="none" stroke="midnightblue" d="M1672.86,-121.39C1792.64,-122.1 2170.1,-120.38 2478.5,-76 2481.59,-75.56 2484.79,-74.98 2487.97,-74.34"/>
<polygon fill="midnightblue" stroke="midnightblue" points="1672.75,-117.89 1662.73,-121.32 1672.7,-124.89 1672.75,-117.89"/>
</g>
<!-- Node77 -->
<g id="node40" class="node">
<title>Node77</title>
<g id="a_node40"><a xlink:href="pixel_8c.html" target="_top" xlink:title=" ">
<polygon fill="white" stroke="black" points="2563.5,-56.5 2563.5,-75.5 2611.5,-75.5 2611.5,-56.5 2563.5,-56.5"/>
<text text-anchor="middle" x="2587.5" y="-63.5" font-family="FreeSans" font-size="10.00">pixel.c</text>
</a>
</g>
</g>
<!-- Node16&#45;&gt;Node77 -->
<g id="edge48" class="edge">
<title>Node16&#45;&gt;Node77</title>
<path fill="none" stroke="midnightblue" d="M1672.71,-120.24C1823.88,-117.05 2380.41,-103.66 2554.5,-76 2557.43,-75.53 2560.48,-74.91 2563.48,-74.2"/>
<polygon fill="midnightblue" stroke="midnightblue" points="1672.46,-116.74 1662.53,-120.45 1672.6,-123.74 1672.46,-116.74"/>
</g>
<!-- Node84 -->
<g id="node41" class="node">
<title>Node84</title>
<g id="a_node41"><a xlink:href="random_8c.html" target="_top" xlink:title=" ">
<polygon fill="white" stroke="black" points="2629.5,-56.5 2629.5,-75.5 2691.5,-75.5 2691.5,-56.5 2629.5,-56.5"/>
<text text-anchor="middle" x="2660.5" y="-63.5" font-family="FreeSans" font-size="10.00">random.c</text>
</a>
</g>
</g>
<!-- Node16&#45;&gt;Node84 -->
<g id="edge49" class="edge">
<title>Node16&#45;&gt;Node84</title>
<path fill="none" stroke="midnightblue" d="M1672.81,-120.15C1830.8,-116.52 2432.27,-101.27 2620.5,-76 2623.32,-75.62 2626.24,-75.14 2629.15,-74.6"/>
<polygon fill="midnightblue" stroke="midnightblue" points="1672.55,-116.66 1662.63,-120.38 1672.71,-123.66 1672.55,-116.66"/>
</g>
<!-- Node85 -->
<g id="node42" class="node">
<title>Node85</title>
<g id="a_node42"><a xlink:href="registry_8c.html" target="_top" xlink:title=" ">
<polygon fill="white" stroke="black" points="2710,-56.5 2710,-75.5 2771,-75.5 2771,-56.5 2710,-56.5"/>
<text text-anchor="middle" x="2740.5" y="-63.5" font-family="FreeSans" font-size="10.00">registry.c</text>
</a>
</g>
</g>
<!-- Node16&#45;&gt;Node85 -->
<g id="edge50" class="edge">
<title>Node16&#45;&gt;Node85</title>
<path fill="none" stroke="midnightblue" d="M1673.19,-120.3C1839.67,-117.12 2495.89,-103.12 2700.5,-76 2703.46,-75.61 2706.53,-75.1 2709.59,-74.53"/>
<polygon fill="midnightblue" stroke="midnightblue" points="1672.87,-116.8 1662.94,-120.49 1673,-123.8 1672.87,-116.8"/>
</g>
<!-- Node87 -->
<g id="node43" class="node">
<title>Node87</title>
<g id="a_node43"><a xlink:href="resize_8c.html" target="_top" xlink:title=" ">
<polygon fill="white" stroke="black" points="2789.5,-56.5 2789.5,-75.5 2843.5,-75.5 2843.5,-56.5 2789.5,-56.5"/>
<text text-anchor="middle" x="2816.5" y="-63.5" font-family="FreeSans" font-size="10.00">resize.c</text>
</a>
</g>
</g>
<!-- Node16&#45;&gt;Node87 -->
<g id="edge51" class="edge">
<title>Node16&#45;&gt;Node87</title>
<path fill="none" stroke="midnightblue" d="M1672.69,-120.56C1845.97,-118.38 2559.44,-107.63 2780.5,-76 2783.43,-75.58 2786.48,-75.02 2789.49,-74.39"/>
<polygon fill="midnightblue" stroke="midnightblue" points="1672.48,-117.06 1662.52,-120.68 1672.57,-124.06 1672.48,-117.06"/>
</g>
<!-- Node88 -->
<g id="node44" class="node">
<title>Node88</title>
<g id="a_node44"><a xlink:href="segment_8c.html" target="_top" xlink:title=" ">
<polygon fill="white" stroke="black" points="2861.5,-56.5 2861.5,-75.5 2929.5,-75.5 2929.5,-56.5 2861.5,-56.5"/>
<text text-anchor="middle" x="2895.5" y="-63.5" font-family="FreeSans" font-size="10.00">segment.c</text>
</a>
</g>
</g>
<!-- Node16&#45;&gt;Node88 -->
<g id="edge52" class="edge">
<title>Node16&#45;&gt;Node88</title>
<path fill="none" stroke="midnightblue" d="M1672.73,-120.46C1852.62,-117.79 2615.93,-104.92 2852.5,-76 2855.38,-75.65 2858.35,-75.2 2861.32,-74.7"/>
<polygon fill="midnightblue" stroke="midnightblue" points="1672.63,-116.96 1662.68,-120.61 1672.73,-123.96 1672.63,-116.96"/>
</g>
<!-- Node89 -->
<g id="node45" class="node">
<title>Node89</title>
<g id="a_node45"><a xlink:href="semaphore_8c.html" target="_top" xlink:title=" ">
<polygon fill="white" stroke="black" points="2947.5,-56.5 2947.5,-75.5 3027.5,-75.5 3027.5,-56.5 2947.5,-56.5"/>
<text text-anchor="middle" x="2987.5" y="-63.5" font-family="FreeSans" font-size="10.00">semaphore.c</text>
</a>
</g>
</g>
<!-- Node16&#45;&gt;Node89 -->
<g id="edge53" class="edge">
<title>Node16&#45;&gt;Node89</title>
<path fill="none" stroke="midnightblue" d="M1672.96,-120.44C1860.88,-117.57 2683.76,-103.64 2938.5,-76 2941.42,-75.68 2944.43,-75.29 2947.46,-74.85"/>
<polygon fill="midnightblue" stroke="midnightblue" points="1672.69,-116.94 1662.74,-120.59 1672.79,-123.94 1672.69,-116.94"/>
</g>
<!-- Node72 -->
<g id="node46" class="node">
<title>Node72</title>
<g id="a_node46"><a xlink:href="stream_8c.html" target="_top" xlink:title=" ">
<polygon fill="white" stroke="black" points="3046,-56.5 3046,-75.5 3105,-75.5 3105,-56.5 3046,-56.5"/>
<text text-anchor="middle" x="3075.5" y="-63.5" font-family="FreeSans" font-size="10.00">stream.c</text>
</a>
</g>
</g>
<!-- Node16&#45;&gt;Node72 -->
<g id="edge55" class="edge">
<title>Node16&#45;&gt;Node72</title>
<path fill="none" stroke="midnightblue" d="M1672.7,-120.78C1868.59,-119.5 2761.88,-111.75 3036.5,-76 3039.53,-75.61 3042.67,-75.08 3045.8,-74.48"/>
<polygon fill="midnightblue" stroke="midnightblue" points="1672.58,-117.28 1662.6,-120.84 1672.63,-124.28 1672.58,-117.28"/>
</g>
<!-- Node73 -->
<g id="node47" class="node">
<title>Node73</title>
<g id="a_node47"><a xlink:href="vision_8c.html" target="_top" xlink:title=" ">
<polygon fill="white" stroke="black" points="3123.5,-56.5 3123.5,-75.5 3177.5,-75.5 3177.5,-56.5 3123.5,-56.5"/>
<text text-anchor="middle" x="3150.5" y="-63.5" font-family="FreeSans" font-size="10.00">vision.c</text>
</a>
</g>
</g>
<!-- Node16&#45;&gt;Node73 -->
<g id="edge56" class="edge">
<title>Node16&#45;&gt;Node73</title>
<path fill="none" stroke="midnightblue" d="M1672.88,-120.95C1875.65,-120.5 2824.01,-116.25 3114.5,-76 3117.44,-75.59 3120.48,-75.04 3123.5,-74.41"/>
<polygon fill="midnightblue" stroke="midnightblue" points="1672.71,-117.45 1662.72,-120.97 1672.72,-124.45 1672.71,-117.45"/>
</g>
<!-- Node74 -->
<g id="node48" class="node">
<title>Node74</title>
<g id="a_node48"><a xlink:href="visual-effects_8c.html" target="_top" xlink:title=" ">
<polygon fill="white" stroke="black" points="3196,-56.5 3196,-75.5 3287,-75.5 3287,-56.5 3196,-56.5"/>
<text text-anchor="middle" x="3241.5" y="-63.5" font-family="FreeSans" font-size="10.00">visual&#45;effects.c</text>
</a>
</g>
</g>
<!-- Node16&#45;&gt;Node74 -->
<g id="edge57" class="edge">
<title>Node16&#45;&gt;Node74</title>
<path fill="none" stroke="midnightblue" d="M1672.68,-120.58C1880.72,-118.21 2879.41,-105.45 3186.5,-76 3189.58,-75.7 3192.75,-75.34 3195.94,-74.93"/>
<polygon fill="midnightblue" stroke="midnightblue" points="1672.52,-117.09 1662.56,-120.7 1672.6,-124.08 1672.52,-117.09"/>
</g>
<!-- Node104 -->
<g id="node49" class="node">
<title>Node104</title>
<g id="a_node49"><a xlink:href="xwindow_8c.html" target="_top" xlink:title=" ">
<polygon fill="white" stroke="black" points="3305.5,-56.5 3305.5,-75.5 3373.5,-75.5 3373.5,-56.5 3305.5,-56.5"/>
<text text-anchor="middle" x="3339.5" y="-63.5" font-family="FreeSans" font-size="10.00">xwindow.c</text>
</a>
</g>
</g>
<!-- Node16&#45;&gt;Node104 -->
<g id="edge58" class="edge">
<title>Node16&#45;&gt;Node104</title>
<path fill="none" stroke="midnightblue" d="M1672.96,-120.9C1890.36,-120.16 2967.18,-114.61 3296.5,-76 3299.38,-75.66 3302.35,-75.23 3305.32,-74.73"/>
<polygon fill="midnightblue" stroke="midnightblue" points="1672.68,-117.4 1662.69,-120.93 1672.71,-124.4 1672.68,-117.4"/>
</g>
<!-- Node105&#45;&gt;Node11 -->
<g id="edge65" class="edge">
<title>Node105&#45;&gt;Node11</title>
<path fill="none" stroke="midnightblue" d="M2488.81,-121.2C2353.8,-120.81 2025.83,-115.48 1754.5,-76 1751.28,-75.53 1747.93,-74.92 1744.62,-74.24"/>
<polygon fill="midnightblue" stroke="midnightblue" points="2488.95,-124.7 2498.96,-121.22 2488.97,-117.7 2488.95,-124.7"/>
</g>
<!-- Node105&#45;&gt;Node22 -->
<g id="edge60" class="edge">
<title>Node105&#45;&gt;Node22</title>
<path fill="none" stroke="midnightblue" d="M2488.75,-117.48C2391.1,-111.56 2197.01,-98.07 2033.5,-76 2030.41,-75.58 2027.23,-75.11 2024.03,-74.59"/>
<polygon fill="midnightblue" stroke="midnightblue" points="2488.55,-120.97 2498.74,-118.08 2488.97,-113.99 2488.55,-120.97"/>
</g>
<!-- Node105&#45;&gt;Node23 -->
<g id="edge61" class="edge">
<title>Node105&#45;&gt;Node23</title>
<path fill="none" stroke="midnightblue" d="M2488.65,-117.55C2401.78,-112.12 2240.36,-99.69 2104.5,-76 2101.45,-75.47 2098.28,-74.82 2095.14,-74.12"/>
<polygon fill="midnightblue" stroke="midnightblue" points="2488.67,-121.06 2498.86,-118.17 2489.1,-114.07 2488.67,-121.06"/>
</g>
<!-- Node105&#45;&gt;Node41 -->
<g id="edge62" class="edge">
<title>Node105&#45;&gt;Node41</title>
<path fill="none" stroke="midnightblue" d="M2488.59,-116.28C2412.88,-109.98 2282.13,-97.08 2171.5,-76 2168.26,-75.38 2164.88,-74.63 2161.55,-73.81"/>
<polygon fill="midnightblue" stroke="midnightblue" points="2488.64,-119.8 2498.9,-117.13 2489.22,-112.82 2488.64,-119.8"/>
</g>
<!-- Node105&#45;&gt;Node42 -->
<g id="edge63" class="edge">
<title>Node105&#45;&gt;Node42</title>
<path fill="none" stroke="midnightblue" d="M2488.62,-113.72C2425.96,-106.03 2327.14,-92.7 2242.5,-76 2239.47,-75.4 2236.3,-74.71 2233.17,-73.98"/>
<polygon fill="midnightblue" stroke="midnightblue" points="2488.39,-117.22 2498.74,-114.95 2489.24,-110.27 2488.39,-117.22"/>
</g>
<!-- Node105&#45;&gt;Node46 -->
<g id="edge64" class="edge">
<title>Node105&#45;&gt;Node46</title>
<path fill="none" stroke="midnightblue" d="M2488.45,-112.57C2436.3,-104.97 2360.5,-92.45 2295.5,-76 2292.43,-75.22 2289.21,-74.27 2286.11,-73.28"/>
<polygon fill="midnightblue" stroke="midnightblue" points="2488.16,-116.06 2498.56,-114.03 2489.16,-109.14 2488.16,-116.06"/>
</g>
<!-- Node105&#45;&gt;Node59 -->
<g id="edge66" class="edge">
<title>Node105&#45;&gt;Node59</title>
<path fill="none" stroke="midnightblue" d="M2507.68,-109.99C2466.55,-99.66 2405.98,-84.45 2369,-75.16"/>
<polygon fill="midnightblue" stroke="midnightblue" points="2506.88,-113.4 2517.43,-112.44 2508.59,-106.61 2506.88,-113.4"/>
</g>
<!-- Node105&#45;&gt;Node62 -->
<g id="edge67" class="edge">
<title>Node105&#45;&gt;Node62</title>
<path fill="none" stroke="midnightblue" d="M2522.73,-108.37C2499.69,-98.26 2468.02,-84.35 2447.9,-75.52"/>
<polygon fill="midnightblue" stroke="midnightblue" points="2521.45,-111.63 2532.01,-112.44 2524.26,-105.22 2521.45,-111.63"/>
</g>
<!-- Node105&#45;&gt;Node67 -->
<g id="edge68" class="edge">
<title>Node105&#45;&gt;Node67</title>
<path fill="none" stroke="midnightblue" d="M2540.2,-103.57C2534.18,-94.27 2527.03,-83.25 2522.17,-75.75"/>
<polygon fill="midnightblue" stroke="midnightblue" points="2537.34,-105.6 2545.72,-112.08 2543.22,-101.79 2537.34,-105.6"/>
</g>
<!-- Node105&#45;&gt;Node77 -->
<g id="edge69" class="edge">
<title>Node105&#45;&gt;Node77</title>
<path fill="none" stroke="midnightblue" d="M2563.12,-103.57C2569.32,-94.27 2576.67,-83.25 2581.67,-75.75"/>
<polygon fill="midnightblue" stroke="midnightblue" points="2560.08,-101.82 2557.44,-112.08 2565.9,-105.7 2560.08,-101.82"/>
</g>
<!-- Node105&#45;&gt;Node84 -->
<g id="edge70" class="edge">
<title>Node105&#45;&gt;Node84</title>
<path fill="none" stroke="midnightblue" d="M2578.02,-107.86C2598.23,-97.85 2625.49,-84.35 2643.03,-75.65"/>
<polygon fill="midnightblue" stroke="midnightblue" points="2576.42,-104.75 2569.01,-112.32 2579.53,-111.02 2576.42,-104.75"/>
</g>
<!-- Node105&#45;&gt;Node85 -->
<g id="edge71" class="edge">
<title>Node105&#45;&gt;Node85</title>
<path fill="none" stroke="midnightblue" d="M2591.51,-109.57C2627.17,-99.38 2678.54,-84.7 2710.69,-75.52"/>
<polygon fill="midnightblue" stroke="midnightblue" points="2590.1,-106.33 2581.45,-112.44 2592.02,-113.06 2590.1,-106.33"/>
</g>
<!-- Node105&#45;&gt;Node87 -->
<g id="edge72" class="edge">
<title>Node105&#45;&gt;Node87</title>
<path fill="none" stroke="midnightblue" d="M2608.45,-110.64C2654.88,-102 2722.11,-89.03 2780.5,-76 2783.39,-75.35 2786.41,-74.65 2789.41,-73.93"/>
<polygon fill="midnightblue" stroke="midnightblue" points="2607.77,-107.21 2598.57,-112.47 2609.04,-114.09 2607.77,-107.21"/>
</g>
<!-- Node105&#45;&gt;Node88 -->
<g id="edge73" class="edge">
<title>Node105&#45;&gt;Node88</title>
<path fill="none" stroke="midnightblue" d="M2614.36,-112.68C2675.37,-104.35 2770.52,-90.69 2852.5,-76 2855.35,-75.49 2858.31,-74.93 2861.27,-74.35"/>
<polygon fill="midnightblue" stroke="midnightblue" points="2613.56,-109.26 2604.12,-114.07 2614.5,-116.2 2613.56,-109.26"/>
</g>
<!-- Node105&#45;&gt;Node89 -->
<g id="edge74" class="edge">
<title>Node105&#45;&gt;Node89</title>
<path fill="none" stroke="midnightblue" d="M2614.2,-114.99C2690.88,-107.35 2824.55,-93.07 2938.5,-76 2941.41,-75.56 2944.41,-75.09 2947.42,-74.58"/>
<polygon fill="midnightblue" stroke="midnightblue" points="2613.83,-111.51 2604.23,-115.98 2614.52,-118.48 2613.83,-111.51"/>
</g>
<!-- Node105&#45;&gt;Node72 -->
<g id="edge75" class="edge">
<title>Node105&#45;&gt;Node72</title>
<path fill="none" stroke="midnightblue" d="M2614.25,-117.88C2707.01,-112.65 2886.02,-100.23 3036.5,-76 3039.52,-75.51 3042.65,-74.93 3045.77,-74.29"/>
<polygon fill="midnightblue" stroke="midnightblue" points="2613.97,-114.39 2604.18,-118.43 2614.36,-121.38 2613.97,-114.39"/>
</g>
<!-- Node105&#45;&gt;Node73 -->
<g id="edge76" class="edge">
<title>Node105&#45;&gt;Node73</title>
<path fill="none" stroke="midnightblue" d="M2614.3,-119.36C2718.74,-115.88 2934.46,-105.49 3114.5,-76 3117.42,-75.52 3120.46,-74.92 3123.47,-74.27"/>
<polygon fill="midnightblue" stroke="midnightblue" points="2614.12,-115.87 2604.24,-119.69 2614.35,-122.86 2614.12,-115.87"/>
</g>
<!-- Node105&#45;&gt;Node74 -->
<g id="edge77" class="edge">
<title>Node105&#45;&gt;Node74</title>
<path fill="none" stroke="midnightblue" d="M2614.65,-118.44C2729,-113.38 2977.86,-100.41 3186.5,-76 3189.58,-75.64 3192.74,-75.23 3195.93,-74.79"/>
<polygon fill="midnightblue" stroke="midnightblue" points="2614.18,-114.96 2604.34,-118.89 2614.48,-121.95 2614.18,-114.96"/>
</g>
<!-- Node105&#45;&gt;Node104 -->
<g id="edge78" class="edge">
<title>Node105&#45;&gt;Node104</title>
<path fill="none" stroke="midnightblue" d="M2614.2,-120.3C2742.73,-118.18 3045.17,-109.71 3296.5,-76 3299.37,-75.61 3302.34,-75.15 3305.31,-74.63"/>
<polygon fill="midnightblue" stroke="midnightblue" points="2614.09,-116.8 2604.14,-120.46 2614.2,-123.8 2614.09,-116.8"/>
</g>
</g>
</svg>
