<?xml version="1.0" encoding="UTF-8" standalone="no"?>
<!DOCTYPE svg PUBLIC "-//W3C//DTD SVG 1.1//EN"
 "http://www.w3.org/Graphics/SVG/1.1/DTD/svg11.dtd">
<!-- Generated by graphviz version 2.43.0 (0)
 -->
<!-- Title: matrix.c Pages: 1 -->
<svg width="2604pt" height="476pt"
 viewBox="0.00 0.00 2604.00 476.00" xmlns="http://www.w3.org/2000/svg" xmlns:xlink="http://www.w3.org/1999/xlink">
<g id="graph0" class="graph" transform="scale(1 1) rotate(0) translate(4 472)">
<title>matrix.c</title>
<polygon fill="white" stroke="transparent" points="-4,4 -4,-472 2600,-472 2600,4 -4,4"/>
<!-- Node1 -->
<g id="node1" class="node">
<title>Node1</title>
<g id="a_node1"><a xlink:title=" ">
<polygon fill="#bfbfbf" stroke="black" points="2033.5,-448.5 2033.5,-467.5 2090.5,-467.5 2090.5,-448.5 2033.5,-448.5"/>
<text text-anchor="middle" x="2062" y="-455.5" font-family="FreeSans" font-size="10.00">matrix.c</text>
</a>
</g>
</g>
<!-- Node2 -->
<g id="node2" class="node">
<title>Node2</title>
<g id="a_node2"><a xlink:href="studio_8h.html" target="_top" xlink:title=" ">
<polygon fill="white" stroke="black" points="794.5,-280.5 794.5,-299.5 889.5,-299.5 889.5,-280.5 794.5,-280.5"/>
<text text-anchor="middle" x="842" y="-287.5" font-family="FreeSans" font-size="10.00">magick/studio.h</text>
</a>
</g>
</g>
<!-- Node1&#45;&gt;Node2 -->
<g id="edge1" class="edge">
<title>Node1&#45;&gt;Node2</title>
<path fill="none" stroke="midnightblue" d="M2033.31,-456.51C1941.34,-454.62 1645.78,-446.12 1404,-412 1207.06,-384.21 976.18,-326.36 883.54,-302.1"/>
<polygon fill="midnightblue" stroke="midnightblue" points="884.27,-298.67 873.71,-299.51 882.49,-305.44 884.27,-298.67"/>
</g>
<!-- Node24 -->
<g id="node24" class="node">
<title>Node24</title>
<g id="a_node24"><a xlink:href="blob_8h.html" target="_top" xlink:title=" ">
<polygon fill="white" stroke="black" points="2120,-224.5 2120,-243.5 2206,-243.5 2206,-224.5 2120,-224.5"/>
<text text-anchor="middle" x="2163" y="-231.5" font-family="FreeSans" font-size="10.00">magick/blob.h</text>
</a>
</g>
</g>
<!-- Node1&#45;&gt;Node24 -->
<g id="edge24" class="edge">
<title>Node1&#45;&gt;Node24</title>
<path fill="none" stroke="midnightblue" d="M2063.4,-448.31C2068.01,-421.54 2084.47,-338.63 2120,-280 2126.62,-269.08 2136.3,-258.64 2144.79,-250.58"/>
<polygon fill="midnightblue" stroke="midnightblue" points="2147.39,-252.95 2152.44,-243.64 2142.69,-247.77 2147.39,-252.95"/>
</g>
<!-- Node30 -->
<g id="node27" class="node">
<title>Node30</title>
<g id="a_node27"><a xlink:href="exception_8h.html" target="_top" xlink:title=" ">
<polygon fill="white" stroke="black" points="1601.5,-56.5 1601.5,-75.5 1714.5,-75.5 1714.5,-56.5 1601.5,-56.5"/>
<text text-anchor="middle" x="1658" y="-63.5" font-family="FreeSans" font-size="10.00">magick/exception.h</text>
</a>
</g>
</g>
<!-- Node1&#45;&gt;Node30 -->
<g id="edge43" class="edge">
<title>Node1&#45;&gt;Node30</title>
<path fill="none" stroke="midnightblue" d="M2033.3,-456.55C1930.38,-454.18 1586,-439.34 1586,-347 1586,-347 1586,-347 1586,-177 1586,-146.9 1588.62,-137.25 1605,-112 1612.8,-99.98 1624.77,-89.42 1635.36,-81.57"/>
<polygon fill="midnightblue" stroke="midnightblue" points="1637.64,-84.24 1643.81,-75.63 1633.62,-78.51 1637.64,-84.24"/>
</g>
<!-- Node31 -->
<g id="node28" class="node">
<title>Node31</title>
<g id="a_node28"><a xlink:href="semaphore_8h.html" target="_top" xlink:title=" ">
<polygon fill="white" stroke="black" points="1903.5,-0.5 1903.5,-19.5 2022.5,-19.5 2022.5,-0.5 1903.5,-0.5"/>
<text text-anchor="middle" x="1963" y="-7.5" font-family="FreeSans" font-size="10.00">magick/semaphore.h</text>
</a>
</g>
</g>
<!-- Node1&#45;&gt;Node31 -->
<g id="edge74" class="edge">
<title>Node1&#45;&gt;Node31</title>
<path fill="none" stroke="midnightblue" d="M2090.54,-455.18C2161.1,-450.36 2341.99,-435.97 2397,-412 2438.68,-393.83 2476,-392.47 2476,-347 2476,-347 2476,-347 2476,-121 2476,-31.41 2173.13,-14.56 2032.82,-11.55"/>
<polygon fill="midnightblue" stroke="midnightblue" points="2032.67,-8.05 2022.6,-11.35 2032.53,-15.05 2032.67,-8.05"/>
</g>
<!-- Node50 -->
<g id="node34" class="node">
<title>Node50</title>
<g id="a_node34"><a xlink:href="blob-private_8h.html" target="_top" xlink:title=" ">
<polygon fill="white" stroke="black" points="2270,-224.5 2270,-243.5 2394,-243.5 2394,-224.5 2270,-224.5"/>
<text text-anchor="middle" x="2332" y="-231.5" font-family="FreeSans" font-size="10.00">magick/blob&#45;private.h</text>
</a>
</g>
</g>
<!-- Node1&#45;&gt;Node50 -->
<g id="edge38" class="edge">
<title>Node1&#45;&gt;Node50</title>
<path fill="none" stroke="midnightblue" d="M2090.6,-455.2C2156.92,-450.64 2319.16,-437.18 2367,-412 2403.22,-392.94 2433.25,-374.37 2419,-336 2405.56,-299.8 2372.68,-267.88 2351.41,-250.04"/>
<polygon fill="midnightblue" stroke="midnightblue" points="2353.59,-247.31 2343.63,-243.71 2349.17,-252.74 2353.59,-247.31"/>
</g>
<!-- Node55 -->
<g id="node36" class="node">
<title>Node55</title>
<g id="a_node36"><a xlink:href="exception-private_8h.html" target="_top" xlink:title=" ">
<polygon fill="white" stroke="black" points="1405.5,-168.5 1405.5,-187.5 1556.5,-187.5 1556.5,-168.5 1405.5,-168.5"/>
<text text-anchor="middle" x="1481" y="-175.5" font-family="FreeSans" font-size="10.00">magick/exception&#45;private.h</text>
</a>
</g>
</g>
<!-- Node1&#45;&gt;Node55 -->
<g id="edge44" class="edge">
<title>Node1&#45;&gt;Node55</title>
<path fill="none" stroke="midnightblue" d="M2033.25,-457.1C1937.93,-457.01 1633.34,-453.44 1546,-412 1483.24,-382.23 1463.15,-364.35 1437,-300 1433.65,-291.76 1432,-287.35 1437,-280 1461.45,-244.03 1503.55,-279.97 1528,-244 1540.04,-226.28 1520.64,-206.39 1503.24,-193.33"/>
<polygon fill="midnightblue" stroke="midnightblue" points="1505.19,-190.42 1495,-187.51 1501.15,-196.14 1505.19,-190.42"/>
</g>
<!-- Node58 -->
<g id="node40" class="node">
<title>Node58</title>
<g id="a_node40"><a xlink:href="image-private_8h.html" target="_top" xlink:title=" ">
<polygon fill="white" stroke="black" points="1929,-280.5 1929,-299.5 2063,-299.5 2063,-280.5 1929,-280.5"/>
<text text-anchor="middle" x="1996" y="-287.5" font-family="FreeSans" font-size="10.00">magick/image&#45;private.h</text>
</a>
</g>
</g>
<!-- Node1&#45;&gt;Node58 -->
<g id="edge55" class="edge">
<title>Node1&#45;&gt;Node58</title>
<path fill="none" stroke="midnightblue" d="M2058.45,-448.08C2048.02,-421.83 2017.29,-344.55 2003.2,-309.12"/>
<polygon fill="midnightblue" stroke="midnightblue" points="2006.35,-307.57 1999.41,-299.57 1999.85,-310.15 2006.35,-307.57"/>
</g>
<!-- Node59 -->
<g id="node41" class="node">
<title>Node59</title>
<g id="a_node41"><a xlink:href="matrix_8h.html" target="_top" xlink:title=" ">
<polygon fill="white" stroke="black" points="2090.5,-392.5 2090.5,-411.5 2187.5,-411.5 2187.5,-392.5 2090.5,-392.5"/>
<text text-anchor="middle" x="2139" y="-399.5" font-family="FreeSans" font-size="10.00">magick/matrix.h</text>
</a>
</g>
</g>
<!-- Node1&#45;&gt;Node59 -->
<g id="edge56" class="edge">
<title>Node1&#45;&gt;Node59</title>
<path fill="none" stroke="midnightblue" d="M2074.37,-448.32C2086.16,-440.06 2104.13,-427.45 2118.14,-417.63"/>
<polygon fill="midnightblue" stroke="midnightblue" points="2120.48,-420.26 2126.66,-411.65 2116.46,-414.53 2120.48,-420.26"/>
</g>
<!-- Node60 -->
<g id="node42" class="node">
<title>Node60</title>
<g id="a_node42"><a xlink:href="memory___8h.html" target="_top" xlink:title=" ">
<polygon fill="white" stroke="black" points="1446.5,-280.5 1446.5,-299.5 1557.5,-299.5 1557.5,-280.5 1446.5,-280.5"/>
<text text-anchor="middle" x="1502" y="-287.5" font-family="FreeSans" font-size="10.00">magick/memory_.h</text>
</a>
</g>
</g>
<!-- Node1&#45;&gt;Node60 -->
<g id="edge57" class="edge">
<title>Node1&#45;&gt;Node60</title>
<path fill="none" stroke="midnightblue" d="M2033.39,-455.9C1934.48,-451.87 1610.95,-436.91 1572,-412 1534.8,-388.21 1515.12,-337.12 1506.85,-309.55"/>
<polygon fill="midnightblue" stroke="midnightblue" points="1510.13,-308.31 1504.06,-299.63 1503.39,-310.2 1510.13,-308.31"/>
</g>
<!-- Node61 -->
<g id="node43" class="node">
<title>Node61</title>
<g id="a_node43"><a xlink:href="pixel-private_8h.html" target="_top" xlink:title=" ">
<polygon fill="white" stroke="black" points="1721,-392.5 1721,-411.5 1847,-411.5 1847,-392.5 1721,-392.5"/>
<text text-anchor="middle" x="1784" y="-399.5" font-family="FreeSans" font-size="10.00">magick/pixel&#45;private.h</text>
</a>
</g>
</g>
<!-- Node1&#45;&gt;Node61 -->
<g id="edge60" class="edge">
<title>Node1&#45;&gt;Node61</title>
<path fill="none" stroke="midnightblue" d="M2033.3,-451.42C1987.36,-442.5 1896.57,-424.87 1838.16,-413.52"/>
<polygon fill="midnightblue" stroke="midnightblue" points="1838.49,-410.02 1828,-411.55 1837.15,-416.89 1838.49,-410.02"/>
</g>
<!-- Node70 -->
<g id="node47" class="node">
<title>Node70</title>
<g id="a_node47"><a xlink:href="resource___8h.html" target="_top" xlink:title=" ">
<polygon fill="white" stroke="black" points="2298,-336.5 2298,-355.5 2410,-355.5 2410,-336.5 2298,-336.5"/>
<text text-anchor="middle" x="2354" y="-343.5" font-family="FreeSans" font-size="10.00">magick/resource_.h</text>
</a>
</g>
</g>
<!-- Node1&#45;&gt;Node70 -->
<g id="edge73" class="edge">
<title>Node1&#45;&gt;Node70</title>
<path fill="none" stroke="midnightblue" d="M2090.79,-456.82C2156.51,-455.77 2314.51,-449.32 2349,-412 2360.26,-399.81 2360.26,-380.26 2358.21,-365.78"/>
<polygon fill="midnightblue" stroke="midnightblue" points="2361.64,-365.1 2356.39,-355.9 2354.76,-366.37 2361.64,-365.1"/>
</g>
<!-- Node71 -->
<g id="node48" class="node">
<title>Node71</title>
<g id="a_node48"><a xlink:href="thread-private_8h.html" target="_top" xlink:title=" ">
<polygon fill="white" stroke="black" points="2206,-392.5 2206,-411.5 2340,-411.5 2340,-392.5 2206,-392.5"/>
<text text-anchor="middle" x="2273" y="-399.5" font-family="FreeSans" font-size="10.00">magick/thread&#45;private.h</text>
</a>
</g>
</g>
<!-- Node1&#45;&gt;Node71 -->
<g id="edge75" class="edge">
<title>Node1&#45;&gt;Node71</title>
<path fill="none" stroke="midnightblue" d="M2090.9,-449.6C2126.76,-440.43 2188.26,-424.69 2229.76,-414.07"/>
<polygon fill="midnightblue" stroke="midnightblue" points="2230.77,-417.42 2239.59,-411.55 2229.03,-410.64 2230.77,-417.42"/>
</g>
<!-- Node73 -->
<g id="node50" class="node">
<title>Node73</title>
<g id="a_node50"><a xlink:href="utility_8h.html" target="_top" xlink:title=" ">
<polygon fill="white" stroke="black" points="2504,-392.5 2504,-411.5 2596,-411.5 2596,-392.5 2504,-392.5"/>
<text text-anchor="middle" x="2550" y="-399.5" font-family="FreeSans" font-size="10.00">magick/utility.h</text>
</a>
</g>
</g>
<!-- Node1&#45;&gt;Node73 -->
<g id="edge80" class="edge">
<title>Node1&#45;&gt;Node73</title>
<path fill="none" stroke="midnightblue" d="M2090.6,-454.43C2159.47,-448.16 2339.92,-431.14 2490,-412 2491.26,-411.84 2492.54,-411.67 2493.83,-411.5"/>
<polygon fill="midnightblue" stroke="midnightblue" points="2494.41,-414.96 2503.84,-410.13 2493.46,-408.02 2494.41,-414.96"/>
</g>
<!-- Node3 -->
<g id="node3" class="node">
<title>Node3</title>
<g id="a_node3"><a xlink:href="magick-config_8h.html" target="_top" xlink:title=" ">
<polygon fill="white" stroke="black" points="895,-168.5 895,-187.5 1029,-187.5 1029,-168.5 895,-168.5"/>
<text text-anchor="middle" x="962" y="-175.5" font-family="FreeSans" font-size="10.00">magick/magick&#45;config.h</text>
</a>
</g>
</g>
<!-- Node2&#45;&gt;Node3 -->
<g id="edge2" class="edge">
<title>Node2&#45;&gt;Node3</title>
<path fill="none" stroke="midnightblue" d="M842.29,-280.33C843.18,-266.74 846.77,-240.29 861,-224 874.77,-208.24 895.12,-197.74 913.96,-190.89"/>
<polygon fill="midnightblue" stroke="midnightblue" points="915.27,-194.14 923.62,-187.62 913.03,-187.5 915.27,-194.14"/>
</g>
<!-- Node5 -->
<g id="node5" class="node">
<title>Node5</title>
<g id="a_node5"><a xlink:title=" ">
<polygon fill="white" stroke="#bfbfbf" points="1426,-0.5 1426,-19.5 1482,-19.5 1482,-0.5 1426,-0.5"/>
<text text-anchor="middle" x="1454" y="-7.5" font-family="FreeSans" font-size="10.00">stdarg.h</text>
</a>
</g>
</g>
<!-- Node2&#45;&gt;Node5 -->
<g id="edge4" class="edge">
<title>Node2&#45;&gt;Node5</title>
<path fill="none" stroke="midnightblue" d="M889.86,-286.52C989.61,-280.94 1212.73,-266.11 1239,-244 1262.03,-224.62 1258,-209.1 1258,-179 1258,-179 1258,-179 1258,-121 1258,-88.6 1265.91,-76.5 1291,-56 1326.69,-26.83 1379.91,-16.52 1415.74,-12.9"/>
<polygon fill="midnightblue" stroke="midnightblue" points="1416.15,-16.38 1425.8,-12.01 1415.53,-9.4 1416.15,-16.38"/>
</g>
<!-- Node6 -->
<g id="node6" class="node">
<title>Node6</title>
<g id="a_node6"><a xlink:title=" ">
<polygon fill="white" stroke="#bfbfbf" points="0,-224.5 0,-243.5 50,-243.5 50,-224.5 0,-224.5"/>
<text text-anchor="middle" x="25" y="-231.5" font-family="FreeSans" font-size="10.00">stdio.h</text>
</a>
</g>
</g>
<!-- Node2&#45;&gt;Node6 -->
<g id="edge5" class="edge">
<title>Node2&#45;&gt;Node6</title>
<path fill="none" stroke="midnightblue" d="M794.42,-289.58C673.19,-290.36 342.85,-288.05 60.17,-243.85"/>
<polygon fill="midnightblue" stroke="midnightblue" points="60.55,-240.36 50.13,-242.26 59.46,-247.28 60.55,-240.36"/>
</g>
<!-- Node7 -->
<g id="node7" class="node">
<title>Node7</title>
<g id="a_node7"><a xlink:title=" ">
<polygon fill="white" stroke="#bfbfbf" points="68.5,-224.5 68.5,-243.5 121.5,-243.5 121.5,-224.5 68.5,-224.5"/>
<text text-anchor="middle" x="95" y="-231.5" font-family="FreeSans" font-size="10.00">ctype.h</text>
</a>
</g>
</g>
<!-- Node2&#45;&gt;Node7 -->
<g id="edge6" class="edge">
<title>Node2&#45;&gt;Node7</title>
<path fill="none" stroke="midnightblue" d="M794.16,-289.08C680.56,-288.6 385.62,-283.45 131.79,-244"/>
<polygon fill="midnightblue" stroke="midnightblue" points="132.07,-240.5 121.64,-242.4 130.98,-247.42 132.07,-240.5"/>
</g>
<!-- Node8 -->
<g id="node8" class="node">
<title>Node8</title>
<g id="a_node8"><a xlink:title=" ">
<polygon fill="white" stroke="#bfbfbf" points="139.5,-224.5 139.5,-243.5 194.5,-243.5 194.5,-224.5 139.5,-224.5"/>
<text text-anchor="middle" x="167" y="-231.5" font-family="FreeSans" font-size="10.00">locale.h</text>
</a>
</g>
</g>
<!-- Node2&#45;&gt;Node8 -->
<g id="edge7" class="edge">
<title>Node2&#45;&gt;Node8</title>
<path fill="none" stroke="midnightblue" d="M794.38,-288.48C689.35,-286.73 429.87,-279.06 204.82,-244.04"/>
<polygon fill="midnightblue" stroke="midnightblue" points="205.23,-240.56 194.81,-242.46 204.14,-247.48 205.23,-240.56"/>
</g>
<!-- Node9 -->
<g id="node9" class="node">
<title>Node9</title>
<g id="a_node9"><a xlink:title=" ">
<polygon fill="white" stroke="#bfbfbf" points="1324.5,-224.5 1324.5,-243.5 1375.5,-243.5 1375.5,-224.5 1324.5,-224.5"/>
<text text-anchor="middle" x="1350" y="-231.5" font-family="FreeSans" font-size="10.00">errno.h</text>
</a>
</g>
</g>
<!-- Node2&#45;&gt;Node9 -->
<g id="edge8" class="edge">
<title>Node2&#45;&gt;Node9</title>
<path fill="none" stroke="midnightblue" d="M889.75,-286.39C974.69,-281.31 1157.46,-268.4 1310,-244 1311.45,-243.77 1312.93,-243.52 1314.41,-243.25"/>
<polygon fill="midnightblue" stroke="midnightblue" points="1315.14,-246.67 1324.27,-241.29 1313.78,-239.8 1315.14,-246.67"/>
</g>
<!-- Node10 -->
<g id="node10" class="node">
<title>Node10</title>
<g id="a_node10"><a xlink:title=" ">
<polygon fill="white" stroke="#bfbfbf" points="212.5,-224.5 212.5,-243.5 259.5,-243.5 259.5,-224.5 212.5,-224.5"/>
<text text-anchor="middle" x="236" y="-231.5" font-family="FreeSans" font-size="10.00">fcntl.h</text>
</a>
</g>
</g>
<!-- Node2&#45;&gt;Node10 -->
<g id="edge9" class="edge">
<title>Node2&#45;&gt;Node10</title>
<path fill="none" stroke="midnightblue" d="M794.35,-288.41C697.12,-286.53 468.88,-278.65 269.71,-243.99"/>
<polygon fill="midnightblue" stroke="midnightblue" points="270.1,-240.5 259.65,-242.21 268.88,-247.4 270.1,-240.5"/>
</g>
<!-- Node11 -->
<g id="node11" class="node">
<title>Node11</title>
<g id="a_node11"><a xlink:title=" ">
<polygon fill="white" stroke="#bfbfbf" points="1468.5,-224.5 1468.5,-243.5 1519.5,-243.5 1519.5,-224.5 1468.5,-224.5"/>
<text text-anchor="middle" x="1494" y="-231.5" font-family="FreeSans" font-size="10.00">math.h</text>
</a>
</g>
</g>
<!-- Node2&#45;&gt;Node11 -->
<g id="edge10" class="edge">
<title>Node2&#45;&gt;Node11</title>
<path fill="none" stroke="midnightblue" d="M889.56,-288.42C991.95,-286.55 1240.92,-278.68 1458.49,-243.75"/>
<polygon fill="midnightblue" stroke="midnightblue" points="1459.19,-247.18 1468.5,-242.12 1458.07,-240.27 1459.19,-247.18"/>
</g>
<!-- Node12 -->
<g id="node12" class="node">
<title>Node12</title>
<g id="a_node12"><a xlink:title=" ">
<polygon fill="white" stroke="#bfbfbf" points="1300,-56.5 1300,-75.5 1348,-75.5 1348,-56.5 1300,-56.5"/>
<text text-anchor="middle" x="1324" y="-63.5" font-family="FreeSans" font-size="10.00">time.h</text>
</a>
</g>
</g>
<!-- Node2&#45;&gt;Node12 -->
<g id="edge11" class="edge">
<title>Node2&#45;&gt;Node12</title>
<path fill="none" stroke="midnightblue" d="M889.79,-286.97C995.7,-282.05 1243.09,-268.08 1272,-244 1284.45,-233.63 1309.71,-129.03 1319.75,-85.68"/>
<polygon fill="midnightblue" stroke="midnightblue" points="1323.18,-86.38 1322.01,-75.85 1316.36,-84.81 1323.18,-86.38"/>
</g>
<!-- Node13 -->
<g id="node13" class="node">
<title>Node13</title>
<g id="a_node13"><a xlink:title=" ">
<polygon fill="white" stroke="#bfbfbf" points="277.5,-224.5 277.5,-243.5 330.5,-243.5 330.5,-224.5 277.5,-224.5"/>
<text text-anchor="middle" x="304" y="-231.5" font-family="FreeSans" font-size="10.00">limits.h</text>
</a>
</g>
</g>
<!-- Node2&#45;&gt;Node13 -->
<g id="edge12" class="edge">
<title>Node2&#45;&gt;Node13</title>
<path fill="none" stroke="midnightblue" d="M794.16,-287.31C706.08,-283.63 512.25,-272.94 340.63,-244.03"/>
<polygon fill="midnightblue" stroke="midnightblue" points="341.1,-240.57 330.66,-242.33 339.92,-247.47 341.1,-240.57"/>
</g>
<!-- Node14 -->
<g id="node14" class="node">
<title>Node14</title>
<g id="a_node14"><a xlink:title=" ">
<polygon fill="white" stroke="#bfbfbf" points="348.5,-224.5 348.5,-243.5 403.5,-243.5 403.5,-224.5 348.5,-224.5"/>
<text text-anchor="middle" x="376" y="-231.5" font-family="FreeSans" font-size="10.00">signal.h</text>
</a>
</g>
</g>
<!-- Node2&#45;&gt;Node14 -->
<g id="edge13" class="edge">
<title>Node2&#45;&gt;Node14</title>
<path fill="none" stroke="midnightblue" d="M794.42,-286.1C716.75,-280.91 557.78,-268.39 413.7,-243.89"/>
<polygon fill="midnightblue" stroke="midnightblue" points="414.25,-240.43 403.8,-242.18 413.06,-247.33 414.25,-240.43"/>
</g>
<!-- Node15 -->
<g id="node15" class="node">
<title>Node15</title>
<g id="a_node15"><a xlink:title=" ">
<polygon fill="white" stroke="#bfbfbf" points="1394,-224.5 1394,-243.5 1450,-243.5 1450,-224.5 1394,-224.5"/>
<text text-anchor="middle" x="1422" y="-231.5" font-family="FreeSans" font-size="10.00">assert.h</text>
</a>
</g>
</g>
<!-- Node2&#45;&gt;Node15 -->
<g id="edge14" class="edge">
<title>Node2&#45;&gt;Node15</title>
<path fill="none" stroke="midnightblue" d="M889.77,-287.44C984.55,-283.8 1202.86,-272.8 1384,-244 1384.1,-243.98 1384.2,-243.97 1384.3,-243.95"/>
<polygon fill="midnightblue" stroke="midnightblue" points="1384.69,-247.44 1393.87,-242.16 1383.4,-240.56 1384.69,-247.44"/>
</g>
<!-- Node16 -->
<g id="node16" class="node">
<title>Node16</title>
<g id="a_node16"><a xlink:href="method-attribute_8h.html" target="_top" xlink:title=" ">
<polygon fill="white" stroke="black" points="422,-224.5 422,-243.5 570,-243.5 570,-224.5 422,-224.5"/>
<text text-anchor="middle" x="496" y="-231.5" font-family="FreeSans" font-size="10.00">magick/method&#45;attribute.h</text>
</a>
</g>
</g>
<!-- Node2&#45;&gt;Node16 -->
<g id="edge15" class="edge">
<title>Node2&#45;&gt;Node16</title>
<path fill="none" stroke="midnightblue" d="M794.25,-281.55C733.6,-272.08 628.66,-255.7 560.81,-245.11"/>
<polygon fill="midnightblue" stroke="midnightblue" points="561.08,-241.62 550.66,-243.53 560,-248.53 561.08,-241.62"/>
</g>
<!-- Node17 -->
<g id="node17" class="node">
<title>Node17</title>
<g id="a_node17"><a xlink:title=" ">
<polygon fill="white" stroke="#bfbfbf" points="588,-224.5 588,-243.5 660,-243.5 660,-224.5 588,-224.5"/>
<text text-anchor="middle" x="624" y="-231.5" font-family="FreeSans" font-size="10.00">sys/types.h</text>
</a>
</g>
</g>
<!-- Node2&#45;&gt;Node17 -->
<g id="edge16" class="edge">
<title>Node2&#45;&gt;Node17</title>
<path fill="none" stroke="midnightblue" d="M807.46,-280.44C769.75,-271.1 709.26,-256.12 668.14,-245.93"/>
<polygon fill="midnightblue" stroke="midnightblue" points="668.93,-242.52 658.38,-243.52 667.25,-249.32 668.93,-242.52"/>
</g>
<!-- Node18 -->
<g id="node18" class="node">
<title>Node18</title>
<g id="a_node18"><a xlink:title=" ">
<polygon fill="white" stroke="#bfbfbf" points="678,-224.5 678,-243.5 742,-243.5 742,-224.5 678,-224.5"/>
<text text-anchor="middle" x="710" y="-231.5" font-family="FreeSans" font-size="10.00">sys/stat.h</text>
</a>
</g>
</g>
<!-- Node2&#45;&gt;Node18 -->
<g id="edge17" class="edge">
<title>Node2&#45;&gt;Node18</title>
<path fill="none" stroke="midnightblue" d="M821.08,-280.44C799.26,-271.52 764.85,-257.44 740.11,-247.32"/>
<polygon fill="midnightblue" stroke="midnightblue" points="741.4,-244.06 730.82,-243.52 738.75,-250.54 741.4,-244.06"/>
</g>
<!-- Node19 -->
<g id="node19" class="node">
<title>Node19</title>
<g id="a_node19"><a xlink:title=" ">
<polygon fill="white" stroke="#bfbfbf" points="760,-224.5 760,-243.5 814,-243.5 814,-224.5 760,-224.5"/>
<text text-anchor="middle" x="787" y="-231.5" font-family="FreeSans" font-size="10.00">dirent.h</text>
</a>
</g>
</g>
<!-- Node2&#45;&gt;Node19 -->
<g id="edge18" class="edge">
<title>Node2&#45;&gt;Node19</title>
<path fill="none" stroke="midnightblue" d="M832.92,-280.08C824.83,-272.14 812.8,-260.34 803.09,-250.8"/>
<polygon fill="midnightblue" stroke="midnightblue" points="805.5,-248.26 795.91,-243.75 800.6,-253.25 805.5,-248.26"/>
</g>
<!-- Node20 -->
<g id="node20" class="node">
<title>Node20</title>
<g id="a_node20"><a xlink:title=" ">
<polygon fill="white" stroke="#bfbfbf" points="870,-224.5 870,-243.5 936,-243.5 936,-224.5 870,-224.5"/>
<text text-anchor="middle" x="903" y="-231.5" font-family="FreeSans" font-size="10.00">sys/wait.h</text>
</a>
</g>
</g>
<!-- Node2&#45;&gt;Node20 -->
<g id="edge19" class="edge">
<title>Node2&#45;&gt;Node20</title>
<path fill="none" stroke="midnightblue" d="M851.8,-280.32C860.82,-272.34 874.41,-260.31 885.32,-250.65"/>
<polygon fill="midnightblue" stroke="midnightblue" points="887.85,-253.08 893.02,-243.83 883.21,-247.84 887.85,-253.08"/>
</g>
<!-- Node21 -->
<g id="node21" class="node">
<title>Node21</title>
<g id="a_node21"><a xlink:title=" ">
<polygon fill="white" stroke="#bfbfbf" points="954,-224.5 954,-243.5 1000,-243.5 1000,-224.5 954,-224.5"/>
<text text-anchor="middle" x="977" y="-231.5" font-family="FreeSans" font-size="10.00">pwd.h</text>
</a>
</g>
</g>
<!-- Node2&#45;&gt;Node21 -->
<g id="edge20" class="edge">
<title>Node2&#45;&gt;Node21</title>
<path fill="none" stroke="midnightblue" d="M863.39,-280.44C885.71,-271.52 920.9,-257.44 946.21,-247.32"/>
<polygon fill="midnightblue" stroke="midnightblue" points="947.72,-250.48 955.71,-243.52 945.12,-243.98 947.72,-250.48"/>
</g>
<!-- Node22 -->
<g id="node22" class="node">
<title>Node22</title>
<g id="a_node22"><a xlink:href="magick-type_8h.html" target="_top" xlink:title=" ">
<polygon fill="white" stroke="black" points="1018,-224.5 1018,-243.5 1144,-243.5 1144,-224.5 1018,-224.5"/>
<text text-anchor="middle" x="1081" y="-231.5" font-family="FreeSans" font-size="10.00">magick/magick&#45;type.h</text>
</a>
</g>
</g>
<!-- Node2&#45;&gt;Node22 -->
<g id="edge21" class="edge">
<title>Node2&#45;&gt;Node22</title>
<path fill="none" stroke="midnightblue" d="M879.87,-280.44C921.48,-271.04 988.37,-255.93 1033.47,-245.74"/>
<polygon fill="midnightblue" stroke="midnightblue" points="1034.32,-249.13 1043.31,-243.52 1032.78,-242.31 1034.32,-249.13"/>
</g>
<!-- Node23 -->
<g id="node23" class="node">
<title>Node23</title>
<g id="a_node23"><a xlink:title=" ">
<polygon fill="white" stroke="#bfbfbf" points="1162,-224.5 1162,-243.5 1230,-243.5 1230,-224.5 1162,-224.5"/>
<text text-anchor="middle" x="1196" y="-231.5" font-family="FreeSans" font-size="10.00">sys/time.h</text>
</a>
</g>
</g>
<!-- Node2&#45;&gt;Node23 -->
<g id="edge23" class="edge">
<title>Node2&#45;&gt;Node23</title>
<path fill="none" stroke="midnightblue" d="M889.57,-283.06C948.74,-275.46 1053.06,-261.38 1151.91,-244.1"/>
<polygon fill="midnightblue" stroke="midnightblue" points="1152.53,-247.55 1161.77,-242.37 1151.31,-240.65 1152.53,-247.55"/>
</g>
<!-- Node4 -->
<g id="node4" class="node">
<title>Node4</title>
<g id="a_node4"><a xlink:href="magick-baseconfig_8h.html" target="_top" xlink:title=" ">
<polygon fill="white" stroke="black" points="883.5,-112.5 883.5,-131.5 1040.5,-131.5 1040.5,-112.5 883.5,-112.5"/>
<text text-anchor="middle" x="962" y="-119.5" font-family="FreeSans" font-size="10.00">magick/magick&#45;baseconfig.h</text>
</a>
</g>
</g>
<!-- Node3&#45;&gt;Node4 -->
<g id="edge3" class="edge">
<title>Node3&#45;&gt;Node4</title>
<path fill="none" stroke="midnightblue" d="M962,-168.08C962,-161.01 962,-150.86 962,-141.99"/>
<polygon fill="midnightblue" stroke="midnightblue" points="965.5,-141.75 962,-131.75 958.5,-141.75 965.5,-141.75"/>
</g>
<!-- Node22&#45;&gt;Node3 -->
<g id="edge22" class="edge">
<title>Node22&#45;&gt;Node3</title>
<path fill="none" stroke="midnightblue" d="M1062.14,-224.44C1042.73,-215.64 1012.27,-201.81 990.04,-191.72"/>
<polygon fill="midnightblue" stroke="midnightblue" points="991.32,-188.46 980.77,-187.52 988.43,-194.84 991.32,-188.46"/>
</g>
<!-- Node25 -->
<g id="node25" class="node">
<title>Node25</title>
<g id="a_node25"><a xlink:href="image_8h.html" target="_top" xlink:title=" ">
<polygon fill="white" stroke="red" points="2115.5,-168.5 2115.5,-187.5 2210.5,-187.5 2210.5,-168.5 2115.5,-168.5"/>
<text text-anchor="middle" x="2163" y="-175.5" font-family="FreeSans" font-size="10.00">magick/image.h</text>
</a>
</g>
</g>
<!-- Node24&#45;&gt;Node25 -->
<g id="edge25" class="edge">
<title>Node24&#45;&gt;Node25</title>
<path fill="none" stroke="midnightblue" d="M2157.83,-224.08C2156.32,-216.93 2155.89,-206.64 2156.54,-197.69"/>
<polygon fill="midnightblue" stroke="midnightblue" points="2160.02,-198.13 2157.87,-187.75 2153.08,-197.2 2160.02,-198.13"/>
</g>
<!-- Node48 -->
<g id="node33" class="node">
<title>Node48</title>
<g id="a_node33"><a xlink:href="stream_8h.html" target="_top" xlink:title=" ">
<polygon fill="white" stroke="black" points="2296.5,-112.5 2296.5,-131.5 2395.5,-131.5 2395.5,-112.5 2296.5,-112.5"/>
<text text-anchor="middle" x="2346" y="-119.5" font-family="FreeSans" font-size="10.00">magick/stream.h</text>
</a>
</g>
</g>
<!-- Node24&#45;&gt;Node48 -->
<g id="edge37" class="edge">
<title>Node24&#45;&gt;Node48</title>
<path fill="none" stroke="midnightblue" d="M2177.36,-224.37C2208.9,-205.41 2284.44,-160 2322.8,-136.94"/>
<polygon fill="midnightblue" stroke="midnightblue" points="2324.94,-139.74 2331.71,-131.59 2321.33,-133.74 2324.94,-139.74"/>
</g>
<!-- Node25&#45;&gt;Node24 -->
<g id="edge30" class="edge">
<title>Node25&#45;&gt;Node24</title>
<path fill="none" stroke="midnightblue" d="M2168.13,-187.75C2169.66,-194.86 2170.1,-205.14 2169.47,-214.1"/>
<polygon fill="midnightblue" stroke="midnightblue" points="2165.99,-213.71 2168.17,-224.08 2172.93,-214.62 2165.99,-213.71"/>
</g>
<!-- Node26 -->
<g id="node26" class="node">
<title>Node26</title>
<g id="a_node26"><a xlink:href="color_8h.html" target="_top" xlink:title=" ">
<polygon fill="white" stroke="red" points="1614,-112.5 1614,-131.5 1702,-131.5 1702,-112.5 1614,-112.5"/>
<text text-anchor="middle" x="1658" y="-119.5" font-family="FreeSans" font-size="10.00">magick/color.h</text>
</a>
</g>
</g>
<!-- Node25&#45;&gt;Node26 -->
<g id="edge26" class="edge">
<title>Node25&#45;&gt;Node26</title>
<path fill="none" stroke="midnightblue" d="M2115.48,-173.29C2034.9,-166.78 1866.09,-152.16 1712.28,-131.94"/>
<polygon fill="midnightblue" stroke="midnightblue" points="1712.54,-128.45 1702.17,-130.6 1711.62,-135.39 1712.54,-128.45"/>
</g>
<!-- Node25&#45;&gt;Node31 -->
<g id="edge35" class="edge">
<title>Node25&#45;&gt;Node31</title>
<path fill="none" stroke="midnightblue" d="M2192.66,-168.43C2224.19,-157.76 2267.21,-137.75 2249,-112 2200.33,-43.2 2100.75,-20.95 2032.92,-13.93"/>
<polygon fill="midnightblue" stroke="midnightblue" points="2033.02,-10.43 2022.74,-12.97 2032.36,-17.4 2033.02,-10.43"/>
</g>
<!-- Node28 -->
<g id="node29" class="node">
<title>Node28</title>
<g id="a_node29"><a xlink:href="colorspace_8h.html" target="_top" xlink:title=" ">
<polygon fill="white" stroke="black" points="2122.5,-112.5 2122.5,-131.5 2239.5,-131.5 2239.5,-112.5 2122.5,-112.5"/>
<text text-anchor="middle" x="2181" y="-119.5" font-family="FreeSans" font-size="10.00">magick/colorspace.h</text>
</a>
</g>
</g>
<!-- Node25&#45;&gt;Node28 -->
<g id="edge31" class="edge">
<title>Node25&#45;&gt;Node28</title>
<path fill="none" stroke="midnightblue" d="M2165.97,-168.08C2168.38,-160.85 2171.86,-150.41 2174.87,-141.4"/>
<polygon fill="midnightblue" stroke="midnightblue" points="2178.24,-142.34 2178.08,-131.75 2171.6,-140.13 2178.24,-142.34"/>
</g>
<!-- Node32 -->
<g id="node30" class="node">
<title>Node32</title>
<g id="a_node30"><a xlink:href="cache-view_8h.html" target="_top" xlink:title=" ">
<polygon fill="white" stroke="red" points="1720.5,-112.5 1720.5,-131.5 1839.5,-131.5 1839.5,-112.5 1720.5,-112.5"/>
<text text-anchor="middle" x="1780" y="-119.5" font-family="FreeSans" font-size="10.00">magick/cache&#45;view.h</text>
</a>
</g>
</g>
<!-- Node25&#45;&gt;Node32 -->
<g id="edge32" class="edge">
<title>Node25&#45;&gt;Node32</title>
<path fill="none" stroke="midnightblue" d="M2115.27,-170.27C2048.48,-160.85 1926.72,-143.69 1849.77,-132.84"/>
<polygon fill="midnightblue" stroke="midnightblue" points="1850.07,-129.34 1839.68,-131.41 1849.09,-136.28 1850.07,-129.34"/>
</g>
<!-- Node33 -->
<g id="node31" class="node">
<title>Node33</title>
<g id="a_node31"><a xlink:href="composite_8h.html" target="_top" xlink:title=" ">
<polygon fill="white" stroke="black" points="1858,-112.5 1858,-131.5 1974,-131.5 1974,-112.5 1858,-112.5"/>
<text text-anchor="middle" x="1916" y="-119.5" font-family="FreeSans" font-size="10.00">magick/composite.h</text>
</a>
</g>
</g>
<!-- Node25&#45;&gt;Node33 -->
<g id="edge33" class="edge">
<title>Node25&#45;&gt;Node33</title>
<path fill="none" stroke="midnightblue" d="M2123.86,-168.44C2080.77,-159.02 2011.44,-143.87 1964.83,-133.68"/>
<polygon fill="midnightblue" stroke="midnightblue" points="1965.47,-130.23 1954.95,-131.52 1963.98,-137.07 1965.47,-130.23"/>
</g>
<!-- Node34 -->
<g id="node32" class="node">
<title>Node34</title>
<g id="a_node32"><a xlink:href="compress_8h.html" target="_top" xlink:title=" ">
<polygon fill="white" stroke="black" points="1992,-112.5 1992,-131.5 2104,-131.5 2104,-112.5 1992,-112.5"/>
<text text-anchor="middle" x="2048" y="-119.5" font-family="FreeSans" font-size="10.00">magick/compress.h</text>
</a>
</g>
</g>
<!-- Node25&#45;&gt;Node34 -->
<g id="edge34" class="edge">
<title>Node25&#45;&gt;Node34</title>
<path fill="none" stroke="midnightblue" d="M2144.78,-168.44C2126.1,-159.68 2096.84,-145.94 2075.38,-135.86"/>
<polygon fill="midnightblue" stroke="midnightblue" points="2076.68,-132.6 2066.14,-131.52 2073.7,-138.93 2076.68,-132.6"/>
</g>
<!-- Node25&#45;&gt;Node48 -->
<g id="edge36" class="edge">
<title>Node25&#45;&gt;Node48</title>
<path fill="none" stroke="midnightblue" d="M2192,-168.44C2223.18,-159.24 2272.93,-144.56 2307.41,-134.39"/>
<polygon fill="midnightblue" stroke="midnightblue" points="2308.54,-137.7 2317.14,-131.52 2306.56,-130.99 2308.54,-137.7"/>
</g>
<!-- Node26&#45;&gt;Node30 -->
<g id="edge27" class="edge">
<title>Node26&#45;&gt;Node30</title>
<path fill="none" stroke="midnightblue" d="M1658,-112.08C1658,-105.01 1658,-94.86 1658,-85.99"/>
<polygon fill="midnightblue" stroke="midnightblue" points="1661.5,-85.75 1658,-75.75 1654.5,-85.75 1661.5,-85.75"/>
</g>
<!-- Node30&#45;&gt;Node5 -->
<g id="edge28" class="edge">
<title>Node30&#45;&gt;Node5</title>
<path fill="none" stroke="midnightblue" d="M1625.68,-56.44C1589.37,-46.83 1530.51,-31.25 1492.03,-21.07"/>
<polygon fill="midnightblue" stroke="midnightblue" points="1492.79,-17.65 1482.23,-18.47 1491,-24.42 1492.79,-17.65"/>
</g>
<!-- Node30&#45;&gt;Node31 -->
<g id="edge29" class="edge">
<title>Node30&#45;&gt;Node31</title>
<path fill="none" stroke="midnightblue" d="M1706.33,-56.44C1760.2,-46.9 1847.31,-31.48 1904.86,-21.29"/>
<polygon fill="midnightblue" stroke="midnightblue" points="1905.66,-24.71 1914.9,-19.52 1904.44,-17.81 1905.66,-24.71"/>
</g>
<!-- Node50&#45;&gt;Node25 -->
<g id="edge39" class="edge">
<title>Node50&#45;&gt;Node25</title>
<path fill="none" stroke="midnightblue" d="M2305.22,-224.44C2276.67,-215.32 2231.27,-200.81 2199.46,-190.65"/>
<polygon fill="midnightblue" stroke="midnightblue" points="2200.24,-187.23 2189.65,-187.52 2198.11,-193.89 2200.24,-187.23"/>
</g>
<!-- Node50&#45;&gt;Node48 -->
<g id="edge40" class="edge">
<title>Node50&#45;&gt;Node48</title>
<path fill="none" stroke="midnightblue" d="M2322.21,-224.34C2309.56,-212.05 2290.15,-188.72 2299,-168 2304.15,-155.95 2314.28,-145.58 2323.83,-137.84"/>
<polygon fill="midnightblue" stroke="midnightblue" points="2326.04,-140.55 2331.92,-131.74 2321.83,-134.96 2326.04,-140.55"/>
</g>
<!-- Node51 -->
<g id="node35" class="node">
<title>Node51</title>
<g id="a_node35"><a xlink:href="nt-base-private_8h.html" target="_top" xlink:title=" ">
<polygon fill="white" stroke="red" points="2308,-168.5 2308,-187.5 2448,-187.5 2448,-168.5 2308,-168.5"/>
<text text-anchor="middle" x="2378" y="-175.5" font-family="FreeSans" font-size="10.00">magick/nt&#45;base&#45;private.h</text>
</a>
</g>
</g>
<!-- Node50&#45;&gt;Node51 -->
<g id="edge41" class="edge">
<title>Node50&#45;&gt;Node51</title>
<path fill="none" stroke="midnightblue" d="M2339.6,-224.08C2346.23,-216.3 2356.02,-204.8 2364.06,-195.37"/>
<polygon fill="midnightblue" stroke="midnightblue" points="2366.73,-197.63 2370.55,-187.75 2361.4,-193.09 2366.73,-197.63"/>
</g>
<!-- Node51&#45;&gt;Node30 -->
<g id="edge42" class="edge">
<title>Node51&#45;&gt;Node30</title>
<path fill="none" stroke="midnightblue" d="M2386.86,-168.35C2399.72,-154.79 2420.41,-128.37 2405,-112 2381.85,-87.41 1903.35,-73.08 1724.59,-68.56"/>
<polygon fill="midnightblue" stroke="midnightblue" points="1724.61,-65.06 1714.52,-68.31 1724.43,-72.06 1724.61,-65.06"/>
</g>
<!-- Node56 -->
<g id="node37" class="node">
<title>Node56</title>
<g id="a_node37"><a xlink:href="log_8h.html" target="_top" xlink:title=" ">
<polygon fill="white" stroke="black" points="1440,-112.5 1440,-131.5 1520,-131.5 1520,-112.5 1440,-112.5"/>
<text text-anchor="middle" x="1480" y="-119.5" font-family="FreeSans" font-size="10.00">magick/log.h</text>
</a>
</g>
</g>
<!-- Node55&#45;&gt;Node56 -->
<g id="edge45" class="edge">
<title>Node55&#45;&gt;Node56</title>
<path fill="none" stroke="midnightblue" d="M1480.83,-168.08C1480.7,-161.01 1480.52,-150.86 1480.35,-141.99"/>
<polygon fill="midnightblue" stroke="midnightblue" points="1483.85,-141.68 1480.16,-131.75 1476.85,-141.81 1483.85,-141.68"/>
</g>
<!-- Node57 -->
<g id="node38" class="node">
<title>Node57</title>
<g id="a_node38"><a xlink:href="magick_8h.html" target="_top" xlink:title=" ">
<polygon fill="white" stroke="black" points="1482.5,-56.5 1482.5,-75.5 1583.5,-75.5 1583.5,-56.5 1482.5,-56.5"/>
<text text-anchor="middle" x="1533" y="-63.5" font-family="FreeSans" font-size="10.00">magick/magick.h</text>
</a>
</g>
</g>
<!-- Node55&#45;&gt;Node57 -->
<g id="edge48" class="edge">
<title>Node55&#45;&gt;Node57</title>
<path fill="none" stroke="midnightblue" d="M1495.12,-168.22C1506.48,-160.29 1521.71,-147.51 1529,-132 1535.77,-117.61 1536.31,-99.42 1535.42,-85.94"/>
<polygon fill="midnightblue" stroke="midnightblue" points="1538.89,-85.53 1534.44,-75.92 1531.93,-86.21 1538.89,-85.53"/>
</g>
<!-- Node43 -->
<g id="node39" class="node">
<title>Node43</title>
<g id="a_node39"><a xlink:href="string___8h.html" target="_top" xlink:title=" ">
<polygon fill="white" stroke="black" points="1324,-112.5 1324,-131.5 1422,-131.5 1422,-112.5 1324,-112.5"/>
<text text-anchor="middle" x="1373" y="-119.5" font-family="FreeSans" font-size="10.00">magick/string_.h</text>
</a>
</g>
</g>
<!-- Node55&#45;&gt;Node43 -->
<g id="edge51" class="edge">
<title>Node55&#45;&gt;Node43</title>
<path fill="none" stroke="midnightblue" d="M1463.65,-168.32C1446.33,-159.66 1419.48,-146.24 1399.5,-136.25"/>
<polygon fill="midnightblue" stroke="midnightblue" points="1400.82,-133 1390.31,-131.65 1397.69,-139.26 1400.82,-133"/>
</g>
<!-- Node56&#45;&gt;Node5 -->
<g id="edge46" class="edge">
<title>Node56&#45;&gt;Node5</title>
<path fill="none" stroke="midnightblue" d="M1477.96,-112.37C1473.76,-94.62 1464.08,-53.67 1458.4,-29.6"/>
<polygon fill="midnightblue" stroke="midnightblue" points="1461.74,-28.52 1456.03,-19.59 1454.92,-30.13 1461.74,-28.52"/>
</g>
<!-- Node56&#45;&gt;Node30 -->
<g id="edge47" class="edge">
<title>Node56&#45;&gt;Node30</title>
<path fill="none" stroke="midnightblue" d="M1508.2,-112.44C1538.41,-103.28 1586.51,-88.69 1620.03,-78.52"/>
<polygon fill="midnightblue" stroke="midnightblue" points="1621.37,-81.77 1629.93,-75.52 1619.34,-75.07 1621.37,-81.77"/>
</g>
<!-- Node57&#45;&gt;Node5 -->
<g id="edge49" class="edge">
<title>Node57&#45;&gt;Node5</title>
<path fill="none" stroke="midnightblue" d="M1520.31,-56.32C1508.1,-47.98 1489.42,-35.21 1475,-25.35"/>
<polygon fill="midnightblue" stroke="midnightblue" points="1476.89,-22.41 1466.66,-19.65 1472.94,-28.19 1476.89,-22.41"/>
</g>
<!-- Node57&#45;&gt;Node31 -->
<g id="edge50" class="edge">
<title>Node57&#45;&gt;Node31</title>
<path fill="none" stroke="midnightblue" d="M1583.52,-57.19C1586.38,-56.78 1589.23,-56.38 1592,-56 1696.83,-41.65 1818.66,-27.32 1893.28,-18.81"/>
<polygon fill="midnightblue" stroke="midnightblue" points="1893.95,-22.26 1903.49,-17.65 1893.16,-15.3 1893.95,-22.26"/>
</g>
<!-- Node43&#45;&gt;Node5 -->
<g id="edge52" class="edge">
<title>Node43&#45;&gt;Node5</title>
<path fill="none" stroke="midnightblue" d="M1379.36,-112.37C1392.78,-94.14 1424.23,-51.43 1441.72,-27.68"/>
<polygon fill="midnightblue" stroke="midnightblue" points="1444.56,-29.72 1447.67,-19.59 1438.93,-25.57 1444.56,-29.72"/>
</g>
<!-- Node43&#45;&gt;Node12 -->
<g id="edge53" class="edge">
<title>Node43&#45;&gt;Node12</title>
<path fill="none" stroke="midnightblue" d="M1364.91,-112.08C1357.84,-104.3 1347.41,-92.8 1338.85,-83.37"/>
<polygon fill="midnightblue" stroke="midnightblue" points="1341.25,-80.8 1331.94,-75.75 1336.07,-85.51 1341.25,-80.8"/>
</g>
<!-- Node43&#45;&gt;Node30 -->
<g id="edge54" class="edge">
<title>Node43&#45;&gt;Node30</title>
<path fill="none" stroke="midnightblue" d="M1418.16,-112.44C1468.29,-102.94 1549.22,-87.61 1603.01,-77.42"/>
<polygon fill="midnightblue" stroke="midnightblue" points="1603.88,-80.82 1613.05,-75.52 1602.58,-73.94 1603.88,-80.82"/>
</g>
<!-- Node60&#45;&gt;Node9 -->
<g id="edge58" class="edge">
<title>Node60&#45;&gt;Node9</title>
<path fill="none" stroke="midnightblue" d="M1477.92,-280.44C1452.46,-271.4 1412.11,-257.06 1383.54,-246.92"/>
<polygon fill="midnightblue" stroke="midnightblue" points="1384.57,-243.57 1373.97,-243.52 1382.22,-250.16 1384.57,-243.57"/>
</g>
<!-- Node60&#45;&gt;Node15 -->
<g id="edge59" class="edge">
<title>Node60&#45;&gt;Node15</title>
<path fill="none" stroke="midnightblue" d="M1489.15,-280.32C1476.78,-271.98 1457.87,-259.21 1443.26,-249.35"/>
<polygon fill="midnightblue" stroke="midnightblue" points="1445.07,-246.35 1434.82,-243.65 1441.15,-252.15 1445.07,-246.35"/>
</g>
<!-- Node61&#45;&gt;Node25 -->
<g id="edge61" class="edge">
<title>Node61&#45;&gt;Node25</title>
<path fill="none" stroke="midnightblue" d="M1784.34,-392.38C1785.3,-378.85 1788.99,-352.48 1803,-336 1881.76,-243.32 2025.54,-203.57 2105.49,-187.99"/>
<polygon fill="midnightblue" stroke="midnightblue" points="2106.22,-191.41 2115.39,-186.12 2104.92,-184.54 2106.22,-191.41"/>
</g>
<!-- Node61&#45;&gt;Node26 -->
<g id="edge62" class="edge">
<title>Node61&#45;&gt;Node26</title>
<path fill="none" stroke="midnightblue" d="M1783.11,-392.49C1780.8,-372.29 1773.57,-320.2 1757,-280 1734.27,-224.86 1692.66,-167.39 1671.35,-139.78"/>
<polygon fill="midnightblue" stroke="midnightblue" points="1673.88,-137.33 1664.96,-131.6 1668.36,-141.64 1673.88,-137.33"/>
</g>
<!-- Node61&#45;&gt;Node58 -->
<g id="edge63" class="edge">
<title>Node61&#45;&gt;Node58</title>
<path fill="none" stroke="midnightblue" d="M1847.02,-399.14C1885.52,-394.96 1933.61,-383.9 1967,-356 1981.05,-344.26 1988.56,-324.32 1992.38,-309.62"/>
<polygon fill="midnightblue" stroke="midnightblue" points="1995.85,-310.14 1994.64,-299.62 1989.02,-308.6 1995.85,-310.14"/>
</g>
<!-- Node61&#45;&gt;Node60 -->
<g id="edge64" class="edge">
<title>Node61&#45;&gt;Node60</title>
<path fill="none" stroke="midnightblue" d="M1761.87,-392.37C1712.04,-372.93 1590.89,-325.67 1533.35,-303.23"/>
<polygon fill="midnightblue" stroke="midnightblue" points="1534.61,-299.96 1524.03,-299.59 1532.07,-306.49 1534.61,-299.96"/>
</g>
<!-- Node62 -->
<g id="node44" class="node">
<title>Node62</title>
<g id="a_node44"><a xlink:href="pixel-accessor_8h.html" target="_top" xlink:title=" ">
<polygon fill="white" stroke="red" points="1614,-280.5 1614,-299.5 1748,-299.5 1748,-280.5 1614,-280.5"/>
<text text-anchor="middle" x="1681" y="-287.5" font-family="FreeSans" font-size="10.00">magick/pixel&#45;accessor.h</text>
</a>
</g>
</g>
<!-- Node61&#45;&gt;Node62 -->
<g id="edge65" class="edge">
<title>Node61&#45;&gt;Node62</title>
<path fill="none" stroke="midnightblue" d="M1772.69,-392.27C1761.77,-383.6 1745.01,-369.66 1732,-356 1717.53,-340.81 1702.95,-321.77 1693.1,-308.22"/>
<polygon fill="midnightblue" stroke="midnightblue" points="1695.77,-305.94 1687.11,-299.84 1690.08,-310.01 1695.77,-305.94"/>
</g>
<!-- Node68 -->
<g id="node45" class="node">
<title>Node68</title>
<g id="a_node45"><a xlink:href="quantum-private_8h.html" target="_top" xlink:title=" ">
<polygon fill="white" stroke="black" points="1812,-336.5 1812,-355.5 1958,-355.5 1958,-336.5 1812,-336.5"/>
<text text-anchor="middle" x="1885" y="-343.5" font-family="FreeSans" font-size="10.00">magick/quantum&#45;private.h</text>
</a>
</g>
</g>
<!-- Node61&#45;&gt;Node68 -->
<g id="edge67" class="edge">
<title>Node61&#45;&gt;Node68</title>
<path fill="none" stroke="midnightblue" d="M1800.23,-392.32C1816.35,-383.7 1841.3,-370.36 1859.96,-360.39"/>
<polygon fill="midnightblue" stroke="midnightblue" points="1861.64,-363.46 1868.81,-355.65 1858.34,-357.28 1861.64,-363.46"/>
</g>
<!-- Node62&#45;&gt;Node11 -->
<g id="edge66" class="edge">
<title>Node62&#45;&gt;Node11</title>
<path fill="none" stroke="midnightblue" d="M1651.37,-280.44C1618.28,-270.89 1564.75,-255.43 1529.47,-245.24"/>
<polygon fill="midnightblue" stroke="midnightblue" points="1530.16,-241.8 1519.59,-242.39 1528.22,-248.53 1530.16,-241.8"/>
</g>
<!-- Node68&#45;&gt;Node58 -->
<g id="edge71" class="edge">
<title>Node68&#45;&gt;Node58</title>
<path fill="none" stroke="midnightblue" d="M1902.83,-336.32C1920.72,-327.62 1948.48,-314.12 1969.05,-304.11"/>
<polygon fill="midnightblue" stroke="midnightblue" points="1970.75,-307.18 1978.21,-299.65 1967.69,-300.88 1970.75,-307.18"/>
</g>
<!-- Node68&#45;&gt;Node60 -->
<g id="edge68" class="edge">
<title>Node68&#45;&gt;Node60</title>
<path fill="none" stroke="midnightblue" d="M1824.31,-336.44C1754.45,-326.59 1640.1,-310.47 1568.05,-300.31"/>
<polygon fill="midnightblue" stroke="midnightblue" points="1568.13,-296.79 1557.74,-298.86 1567.15,-303.72 1568.13,-296.79"/>
</g>
<!-- Node68&#45;&gt;Node62 -->
<g id="edge72" class="edge">
<title>Node68&#45;&gt;Node62</title>
<path fill="none" stroke="midnightblue" d="M1852.68,-336.44C1817.61,-327.16 1761.5,-312.31 1723.04,-302.13"/>
<polygon fill="midnightblue" stroke="midnightblue" points="1723.74,-298.69 1713.17,-299.52 1721.94,-305.46 1723.74,-298.69"/>
</g>
<!-- Node69 -->
<g id="node46" class="node">
<title>Node69</title>
<g id="a_node46"><a xlink:href="cache_8h.html" target="_top" xlink:title=" ">
<polygon fill="white" stroke="black" points="2128.5,-280.5 2128.5,-299.5 2221.5,-299.5 2221.5,-280.5 2128.5,-280.5"/>
<text text-anchor="middle" x="2175" y="-287.5" font-family="FreeSans" font-size="10.00">magick/cache.h</text>
</a>
</g>
</g>
<!-- Node68&#45;&gt;Node69 -->
<g id="edge69" class="edge">
<title>Node68&#45;&gt;Node69</title>
<path fill="none" stroke="midnightblue" d="M1930.95,-336.44C1982.07,-326.92 2064.65,-311.55 2119.38,-301.36"/>
<polygon fill="midnightblue" stroke="midnightblue" points="2120.07,-304.79 2129.26,-299.52 2118.79,-297.91 2120.07,-304.79"/>
</g>
<!-- Node69&#45;&gt;Node24 -->
<g id="edge70" class="edge">
<title>Node69&#45;&gt;Node24</title>
<path fill="none" stroke="midnightblue" d="M2173.02,-280.08C2171.43,-272.93 2169.14,-262.64 2167.15,-253.69"/>
<polygon fill="midnightblue" stroke="midnightblue" points="2170.53,-252.75 2164.94,-243.75 2163.7,-254.27 2170.53,-252.75"/>
</g>
<!-- Node71&#45;&gt;Node58 -->
<g id="edge77" class="edge">
<title>Node71&#45;&gt;Node58</title>
<path fill="none" stroke="midnightblue" d="M2251.26,-392.37C2202.42,-372.97 2083.81,-325.87 2027.14,-303.37"/>
<polygon fill="midnightblue" stroke="midnightblue" points="2028.22,-300.03 2017.63,-299.59 2025.64,-306.54 2028.22,-300.03"/>
</g>
<!-- Node71&#45;&gt;Node69 -->
<g id="edge76" class="edge">
<title>Node71&#45;&gt;Node69</title>
<path fill="none" stroke="midnightblue" d="M2225.67,-392.42C2204.9,-386.05 2182.45,-375.02 2170,-356 2161.01,-342.26 2163.81,-323.23 2167.93,-309.31"/>
<polygon fill="midnightblue" stroke="midnightblue" points="2171.25,-310.43 2171.16,-299.83 2164.62,-308.17 2171.25,-310.43"/>
</g>
<!-- Node71&#45;&gt;Node70 -->
<g id="edge78" class="edge">
<title>Node71&#45;&gt;Node70</title>
<path fill="none" stroke="midnightblue" d="M2286.01,-392.32C2298.53,-383.98 2317.68,-371.21 2332.47,-361.35"/>
<polygon fill="midnightblue" stroke="midnightblue" points="2334.64,-364.11 2341.02,-355.65 2330.76,-358.29 2334.64,-364.11"/>
</g>
<!-- Node72 -->
<g id="node49" class="node">
<title>Node72</title>
<g id="a_node49"><a xlink:href="thread___8h.html" target="_top" xlink:title=" ">
<polygon fill="white" stroke="black" points="2178.5,-336.5 2178.5,-355.5 2279.5,-355.5 2279.5,-336.5 2178.5,-336.5"/>
<text text-anchor="middle" x="2229" y="-343.5" font-family="FreeSans" font-size="10.00">magick/thread_.h</text>
</a>
</g>
</g>
<!-- Node71&#45;&gt;Node72 -->
<g id="edge79" class="edge">
<title>Node71&#45;&gt;Node72</title>
<path fill="none" stroke="midnightblue" d="M2265.73,-392.08C2259.46,-384.38 2250.21,-373.03 2242.57,-363.65"/>
<polygon fill="midnightblue" stroke="midnightblue" points="2245.16,-361.29 2236.13,-355.75 2239.73,-365.71 2245.16,-361.29"/>
</g>
</g>
</svg>
