<?xml version="1.0" encoding="UTF-8" standalone="no"?>
<!DOCTYPE svg PUBLIC "-//W3C//DTD SVG 1.1//EN"
 "http://www.w3.org/Graphics/SVG/1.1/DTD/svg11.dtd">
<!-- Generated by graphviz version 2.43.0 (0)
 -->
<!-- Title: memory&#45;private.h Pages: 1 -->
<svg width="1512pt" height="84pt"
 viewBox="0.00 0.00 1511.50 84.00" xmlns="http://www.w3.org/2000/svg" xmlns:xlink="http://www.w3.org/1999/xlink">
<g id="graph0" class="graph" transform="scale(1 1) rotate(0) translate(4 80)">
<title>memory&#45;private.h</title>
<polygon fill="white" stroke="transparent" points="-4,4 -4,-80 1507.5,-80 1507.5,4 -4,4"/>
<!-- Node1 -->
<g id="node1" class="node">
<title>Node1</title>
<g id="a_node1"><a xlink:title=" ">
<polygon fill="#bfbfbf" stroke="black" points="665,-56.5 665,-75.5 770,-75.5 770,-56.5 665,-56.5"/>
<text text-anchor="middle" x="717.5" y="-63.5" font-family="FreeSans" font-size="10.00">memory&#45;private.h</text>
</a>
</g>
</g>
<!-- Node2 -->
<g id="node2" class="node">
<title>Node2</title>
<g id="a_node2"><a xlink:href="cache-view_8c.html" target="_top" xlink:title=" ">
<polygon fill="white" stroke="black" points="0,-0.5 0,-19.5 79,-19.5 79,-0.5 0,-0.5"/>
<text text-anchor="middle" x="39.5" y="-7.5" font-family="FreeSans" font-size="10.00">cache&#45;view.c</text>
</a>
</g>
</g>
<!-- Node1&#45;&gt;Node2 -->
<g id="edge1" class="edge">
<title>Node1&#45;&gt;Node2</title>
<path fill="none" stroke="midnightblue" d="M654.35,-62.87C540.62,-58.51 293.94,-46.64 87.5,-20 84.81,-19.65 82.04,-19.25 79.26,-18.82"/>
<polygon fill="midnightblue" stroke="midnightblue" points="654.49,-66.38 664.61,-63.26 654.75,-59.39 654.49,-66.38"/>
</g>
<!-- Node3 -->
<g id="node3" class="node">
<title>Node3</title>
<g id="a_node3"><a xlink:href="cache_8c.html" target="_top" xlink:title=" ">
<polygon fill="white" stroke="black" points="97,-0.5 97,-19.5 150,-19.5 150,-0.5 97,-0.5"/>
<text text-anchor="middle" x="123.5" y="-7.5" font-family="FreeSans" font-size="10.00">cache.c</text>
</a>
</g>
</g>
<!-- Node1&#45;&gt;Node3 -->
<g id="edge2" class="edge">
<title>Node1&#45;&gt;Node3</title>
<path fill="none" stroke="midnightblue" d="M654.54,-63.29C550.76,-59.73 337.52,-49.23 159.5,-20 156.45,-19.5 153.28,-18.87 150.13,-18.18"/>
<polygon fill="midnightblue" stroke="midnightblue" points="654.73,-66.8 664.84,-63.64 654.96,-59.81 654.73,-66.8"/>
</g>
<!-- Node4 -->
<g id="node4" class="node">
<title>Node4</title>
<g id="a_node4"><a xlink:href="draw_8c.html" target="_top" xlink:title=" ">
<polygon fill="white" stroke="black" points="168.5,-0.5 168.5,-19.5 216.5,-19.5 216.5,-0.5 168.5,-0.5"/>
<text text-anchor="middle" x="192.5" y="-7.5" font-family="FreeSans" font-size="10.00">draw.c</text>
</a>
</g>
</g>
<!-- Node1&#45;&gt;Node4 -->
<g id="edge3" class="edge">
<title>Node1&#45;&gt;Node4</title>
<path fill="none" stroke="midnightblue" d="M654.47,-62.76C560.41,-58.63 378.04,-47.56 225.5,-20 222.58,-19.47 219.54,-18.81 216.54,-18.08"/>
<polygon fill="midnightblue" stroke="midnightblue" points="654.53,-66.27 664.67,-63.2 654.83,-59.28 654.53,-66.27"/>
</g>
<!-- Node5 -->
<g id="node5" class="node">
<title>Node5</title>
<g id="a_node5"><a xlink:href="effect_8c.html" target="_top" xlink:title=" ">
<polygon fill="white" stroke="black" points="235,-0.5 235,-19.5 288,-19.5 288,-0.5 235,-0.5"/>
<text text-anchor="middle" x="261.5" y="-7.5" font-family="FreeSans" font-size="10.00">effect.c</text>
</a>
</g>
</g>
<!-- Node1&#45;&gt;Node5 -->
<g id="edge4" class="edge">
<title>Node1&#45;&gt;Node5</title>
<path fill="none" stroke="midnightblue" d="M654.75,-61.15C572.12,-55.43 422.57,-42.82 296.5,-20 293.78,-19.51 290.97,-18.92 288.16,-18.28"/>
<polygon fill="midnightblue" stroke="midnightblue" points="654.76,-64.66 664.97,-61.85 655.23,-57.67 654.76,-64.66"/>
</g>
<!-- Node6 -->
<g id="node6" class="node">
<title>Node6</title>
<g id="a_node6"><a xlink:href="fx_8c.html" target="_top" xlink:title=" ">
<polygon fill="white" stroke="black" points="306,-0.5 306,-19.5 341,-19.5 341,-0.5 306,-0.5"/>
<text text-anchor="middle" x="323.5" y="-7.5" font-family="FreeSans" font-size="10.00">fx.c</text>
</a>
</g>
</g>
<!-- Node1&#45;&gt;Node6 -->
<g id="edge5" class="edge">
<title>Node1&#45;&gt;Node6</title>
<path fill="none" stroke="midnightblue" d="M654.94,-61.15C581.37,-55.74 455.91,-43.78 350.5,-20 347.42,-19.3 344.19,-18.39 341.08,-17.42"/>
<polygon fill="midnightblue" stroke="midnightblue" points="654.75,-64.64 664.97,-61.87 655.25,-57.66 654.75,-64.64"/>
</g>
<!-- Node7 -->
<g id="node7" class="node">
<title>Node7</title>
<g id="a_node7"><a xlink:href="image_8c.html" target="_top" xlink:title=" ">
<polygon fill="white" stroke="black" points="359.5,-0.5 359.5,-19.5 415.5,-19.5 415.5,-0.5 359.5,-0.5"/>
<text text-anchor="middle" x="387.5" y="-7.5" font-family="FreeSans" font-size="10.00">image.c</text>
</a>
</g>
</g>
<!-- Node1&#45;&gt;Node7 -->
<g id="edge6" class="edge">
<title>Node1&#45;&gt;Node7</title>
<path fill="none" stroke="midnightblue" d="M654.87,-56.97C595.36,-48.97 503.48,-35.64 424.5,-20 421.65,-19.43 418.68,-18.8 415.73,-18.13"/>
<polygon fill="midnightblue" stroke="midnightblue" points="654.49,-60.45 664.86,-58.31 655.41,-53.52 654.49,-60.45"/>
</g>
<!-- Node8 -->
<g id="node8" class="node">
<title>Node8</title>
<g id="a_node8"><a xlink:href="memory_8c.html" target="_top" xlink:title=" ">
<polygon fill="white" stroke="black" points="434,-0.5 434,-19.5 499,-19.5 499,-0.5 434,-0.5"/>
<text text-anchor="middle" x="466.5" y="-7.5" font-family="FreeSans" font-size="10.00">memory.c</text>
</a>
</g>
</g>
<!-- Node1&#45;&gt;Node8 -->
<g id="edge7" class="edge">
<title>Node1&#45;&gt;Node8</title>
<path fill="none" stroke="midnightblue" d="M667.78,-54.3C617.81,-43.55 542.2,-27.29 499.29,-18.05"/>
<polygon fill="midnightblue" stroke="midnightblue" points="667.22,-57.76 677.73,-56.44 668.69,-50.92 667.22,-57.76"/>
</g>
<!-- Node9 -->
<g id="node9" class="node">
<title>Node9</title>
<g id="a_node9"><a xlink:href="morphology_8c.html" target="_top" xlink:title=" ">
<polygon fill="white" stroke="black" points="517.5,-0.5 517.5,-19.5 599.5,-19.5 599.5,-0.5 517.5,-0.5"/>
<text text-anchor="middle" x="558.5" y="-7.5" font-family="FreeSans" font-size="10.00">morphology.c</text>
</a>
</g>
</g>
<!-- Node1&#45;&gt;Node9 -->
<g id="edge8" class="edge">
<title>Node1&#45;&gt;Node9</title>
<path fill="none" stroke="midnightblue" d="M682.67,-53.17C652.73,-43 610.28,-28.59 583.58,-19.52"/>
<polygon fill="midnightblue" stroke="midnightblue" points="681.71,-56.54 692.31,-56.44 683.96,-49.91 681.71,-56.54"/>
</g>
<!-- Node10 -->
<g id="node10" class="node">
<title>Node10</title>
<g id="a_node10"><a xlink:href="opencl_8c.html" target="_top" xlink:title=" ">
<polygon fill="white" stroke="black" points="618,-0.5 618,-19.5 675,-19.5 675,-0.5 618,-0.5"/>
<text text-anchor="middle" x="646.5" y="-7.5" font-family="FreeSans" font-size="10.00">opencl.c</text>
</a>
</g>
</g>
<!-- Node1&#45;&gt;Node10 -->
<g id="edge9" class="edge">
<title>Node1&#45;&gt;Node10</title>
<path fill="none" stroke="midnightblue" d="M697.91,-50.1C685.13,-40.38 668.89,-28.03 658.11,-19.83"/>
<polygon fill="midnightblue" stroke="midnightblue" points="696.01,-53.06 706.09,-56.32 700.25,-47.48 696.01,-53.06"/>
</g>
<!-- Node11 -->
<g id="node11" class="node">
<title>Node11</title>
<g id="a_node11"><a xlink:href="pixel_8c.html" target="_top" xlink:title=" ">
<polygon fill="white" stroke="black" points="693.5,-0.5 693.5,-19.5 741.5,-19.5 741.5,-0.5 693.5,-0.5"/>
<text text-anchor="middle" x="717.5" y="-7.5" font-family="FreeSans" font-size="10.00">pixel.c</text>
</a>
</g>
</g>
<!-- Node1&#45;&gt;Node11 -->
<g id="edge10" class="edge">
<title>Node1&#45;&gt;Node11</title>
<path fill="none" stroke="midnightblue" d="M717.5,-45.8C717.5,-36.91 717.5,-26.78 717.5,-19.75"/>
<polygon fill="midnightblue" stroke="midnightblue" points="714,-46.08 717.5,-56.08 721,-46.08 714,-46.08"/>
</g>
<!-- Node12 -->
<g id="node12" class="node">
<title>Node12</title>
<g id="a_node12"><a xlink:href="random_8c.html" target="_top" xlink:title=" ">
<polygon fill="white" stroke="black" points="759.5,-0.5 759.5,-19.5 821.5,-19.5 821.5,-0.5 759.5,-0.5"/>
<text text-anchor="middle" x="790.5" y="-7.5" font-family="FreeSans" font-size="10.00">random.c</text>
</a>
</g>
</g>
<!-- Node1&#45;&gt;Node12 -->
<g id="edge11" class="edge">
<title>Node1&#45;&gt;Node12</title>
<path fill="none" stroke="midnightblue" d="M737.64,-50.1C750.78,-40.38 767.48,-28.03 778.56,-19.83"/>
<polygon fill="midnightblue" stroke="midnightblue" points="735.19,-47.56 729.23,-56.32 739.35,-53.19 735.19,-47.56"/>
</g>
<!-- Node13 -->
<g id="node13" class="node">
<title>Node13</title>
<g id="a_node13"><a xlink:href="registry_8c.html" target="_top" xlink:title=" ">
<polygon fill="white" stroke="black" points="840,-0.5 840,-19.5 901,-19.5 901,-0.5 840,-0.5"/>
<text text-anchor="middle" x="870.5" y="-7.5" font-family="FreeSans" font-size="10.00">registry.c</text>
</a>
</g>
</g>
<!-- Node1&#45;&gt;Node13 -->
<g id="edge12" class="edge">
<title>Node1&#45;&gt;Node13</title>
<path fill="none" stroke="midnightblue" d="M751.39,-53.04C780.18,-42.88 820.79,-28.55 846.37,-19.52"/>
<polygon fill="midnightblue" stroke="midnightblue" points="750.01,-49.81 741.74,-56.44 752.34,-56.42 750.01,-49.81"/>
</g>
<!-- Node14 -->
<g id="node14" class="node">
<title>Node14</title>
<g id="a_node14"><a xlink:href="resize_8c.html" target="_top" xlink:title=" ">
<polygon fill="white" stroke="black" points="919.5,-0.5 919.5,-19.5 973.5,-19.5 973.5,-0.5 919.5,-0.5"/>
<text text-anchor="middle" x="946.5" y="-7.5" font-family="FreeSans" font-size="10.00">resize.c</text>
</a>
</g>
</g>
<!-- Node1&#45;&gt;Node14 -->
<g id="edge13" class="edge">
<title>Node1&#45;&gt;Node14</title>
<path fill="none" stroke="midnightblue" d="M764.69,-54.22C803.8,-45.23 860.81,-32 910.5,-20 913.38,-19.3 916.39,-18.57 919.38,-17.83"/>
<polygon fill="midnightblue" stroke="midnightblue" points="763.86,-50.82 754.9,-56.46 765.43,-57.64 763.86,-50.82"/>
</g>
<!-- Node15 -->
<g id="node15" class="node">
<title>Node15</title>
<g id="a_node15"><a xlink:href="segment_8c.html" target="_top" xlink:title=" ">
<polygon fill="white" stroke="black" points="991.5,-0.5 991.5,-19.5 1059.5,-19.5 1059.5,-0.5 991.5,-0.5"/>
<text text-anchor="middle" x="1025.5" y="-7.5" font-family="FreeSans" font-size="10.00">segment.c</text>
</a>
</g>
</g>
<!-- Node1&#45;&gt;Node15 -->
<g id="edge14" class="edge">
<title>Node1&#45;&gt;Node15</title>
<path fill="none" stroke="midnightblue" d="M780.47,-55C834.24,-46.3 913.58,-33.06 982.5,-20 985.35,-19.46 988.3,-18.88 991.26,-18.29"/>
<polygon fill="midnightblue" stroke="midnightblue" points="779.71,-51.58 770.4,-56.63 780.83,-58.49 779.71,-51.58"/>
</g>
<!-- Node16 -->
<g id="node16" class="node">
<title>Node16</title>
<g id="a_node16"><a xlink:href="semaphore_8c.html" target="_top" xlink:title=" ">
<polygon fill="white" stroke="black" points="1077.5,-0.5 1077.5,-19.5 1157.5,-19.5 1157.5,-0.5 1077.5,-0.5"/>
<text text-anchor="middle" x="1117.5" y="-7.5" font-family="FreeSans" font-size="10.00">semaphore.c</text>
</a>
</g>
</g>
<!-- Node1&#45;&gt;Node16 -->
<g id="edge15" class="edge">
<title>Node1&#45;&gt;Node16</title>
<path fill="none" stroke="midnightblue" d="M780.28,-57.99C850.62,-49.89 967.97,-35.66 1068.5,-20 1071.41,-19.55 1074.4,-19.06 1077.42,-18.54"/>
<polygon fill="midnightblue" stroke="midnightblue" points="779.79,-54.52 770.25,-59.14 780.59,-61.48 779.79,-54.52"/>
</g>
<!-- Node17 -->
<g id="node17" class="node">
<title>Node17</title>
<g id="a_node17"><a xlink:href="stream_8c.html" target="_top" xlink:title=" ">
<polygon fill="white" stroke="black" points="1176,-0.5 1176,-19.5 1235,-19.5 1235,-0.5 1176,-0.5"/>
<text text-anchor="middle" x="1205.5" y="-7.5" font-family="FreeSans" font-size="10.00">stream.c</text>
</a>
</g>
</g>
<!-- Node1&#45;&gt;Node17 -->
<g id="edge16" class="edge">
<title>Node1&#45;&gt;Node17</title>
<path fill="none" stroke="midnightblue" d="M780.31,-61.23C867.43,-55.43 1029.69,-42.55 1166.5,-20 1169.52,-19.5 1172.65,-18.91 1175.77,-18.27"/>
<polygon fill="midnightblue" stroke="midnightblue" points="780.07,-57.74 770.32,-61.89 780.53,-64.72 780.07,-57.74"/>
</g>
<!-- Node18 -->
<g id="node18" class="node">
<title>Node18</title>
<g id="a_node18"><a xlink:href="vision_8c.html" target="_top" xlink:title=" ">
<polygon fill="white" stroke="black" points="1253.5,-0.5 1253.5,-19.5 1307.5,-19.5 1307.5,-0.5 1253.5,-0.5"/>
<text text-anchor="middle" x="1280.5" y="-7.5" font-family="FreeSans" font-size="10.00">vision.c</text>
</a>
</g>
</g>
<!-- Node1&#45;&gt;Node18 -->
<g id="edge17" class="edge">
<title>Node1&#45;&gt;Node18</title>
<path fill="none" stroke="midnightblue" d="M780.36,-62.88C879.57,-58.81 1078.28,-47.69 1244.5,-20 1247.42,-19.51 1250.46,-18.91 1253.47,-18.25"/>
<polygon fill="midnightblue" stroke="midnightblue" points="780.06,-59.39 770.21,-63.29 780.34,-66.38 780.06,-59.39"/>
</g>
<!-- Node19 -->
<g id="node19" class="node">
<title>Node19</title>
<g id="a_node19"><a xlink:href="visual-effects_8c.html" target="_top" xlink:title=" ">
<polygon fill="white" stroke="black" points="1326,-0.5 1326,-19.5 1417,-19.5 1417,-0.5 1326,-0.5"/>
<text text-anchor="middle" x="1371.5" y="-7.5" font-family="FreeSans" font-size="10.00">visual&#45;effects.c</text>
</a>
</g>
</g>
<!-- Node1&#45;&gt;Node19 -->
<g id="edge18" class="edge">
<title>Node1&#45;&gt;Node19</title>
<path fill="none" stroke="midnightblue" d="M780.32,-62.09C889.59,-56.62 1121.63,-43.22 1316.5,-20 1319.57,-19.63 1322.74,-19.22 1325.92,-18.77"/>
<polygon fill="midnightblue" stroke="midnightblue" points="779.94,-58.6 770.13,-62.59 780.29,-65.59 779.94,-58.6"/>
</g>
<!-- Node20 -->
<g id="node20" class="node">
<title>Node20</title>
<g id="a_node20"><a xlink:href="xwindow_8c.html" target="_top" xlink:title=" ">
<polygon fill="white" stroke="black" points="1435.5,-0.5 1435.5,-19.5 1503.5,-19.5 1503.5,-0.5 1435.5,-0.5"/>
<text text-anchor="middle" x="1469.5" y="-7.5" font-family="FreeSans" font-size="10.00">xwindow.c</text>
</a>
</g>
</g>
<!-- Node1&#45;&gt;Node20 -->
<g id="edge19" class="edge">
<title>Node1&#45;&gt;Node20</title>
<path fill="none" stroke="midnightblue" d="M780.31,-64.02C904.36,-61.43 1189.34,-52.18 1426.5,-20 1429.37,-19.61 1432.34,-19.14 1435.31,-18.62"/>
<polygon fill="midnightblue" stroke="midnightblue" points="780.16,-60.52 770.23,-64.23 780.3,-67.52 780.16,-60.52"/>
</g>
</g>
</svg>
