<?xml version="1.0" encoding="UTF-8" standalone="no"?>
<!DOCTYPE svg PUBLIC "-//W3C//DTD SVG 1.1//EN"
 "http://www.w3.org/Graphics/SVG/1.1/DTD/svg11.dtd">
<!-- Generated by graphviz version 2.43.0 (0)
 -->
<!-- Title: memory.c Pages: 1 -->
<svg width="2947pt" height="308pt"
 viewBox="0.00 0.00 2947.12 308.00" xmlns="http://www.w3.org/2000/svg" xmlns:xlink="http://www.w3.org/1999/xlink">
<g id="graph0" class="graph" transform="scale(1 1) rotate(0) translate(4 304)">
<title>memory.c</title>
<polygon fill="white" stroke="transparent" points="-4,4 -4,-304 2943.12,-304 2943.12,4 -4,4"/>
<!-- Node1 -->
<g id="node1" class="node">
<title>Node1</title>
<g id="a_node1"><a xlink:title=" ">
<polygon fill="#bfbfbf" stroke="black" points="1150.12,-280.5 1150.12,-299.5 1215.12,-299.5 1215.12,-280.5 1150.12,-280.5"/>
<text text-anchor="middle" x="1182.62" y="-287.5" font-family="FreeSans" font-size="10.00">memory.c</text>
</a>
</g>
</g>
<!-- Node2 -->
<g id="node2" class="node">
<title>Node2</title>
<g id="a_node2"><a xlink:href="studio_8h.html" target="_top" xlink:title=" ">
<polygon fill="white" stroke="black" points="2039.12,-168.5 2039.12,-187.5 2134.12,-187.5 2134.12,-168.5 2039.12,-168.5"/>
<text text-anchor="middle" x="2086.62" y="-175.5" font-family="FreeSans" font-size="10.00">magick/studio.h</text>
</a>
</g>
</g>
<!-- Node1&#45;&gt;Node2 -->
<g id="edge1" class="edge">
<title>Node1&#45;&gt;Node2</title>
<path fill="none" stroke="midnightblue" d="M1215.12,-283.87C1258.05,-276.74 1335.79,-262.58 1400.62,-244 1425.22,-236.95 1429.6,-229.41 1454.62,-224 1563.2,-200.53 1893.89,-186.08 2028.59,-181.03"/>
<polygon fill="midnightblue" stroke="midnightblue" points="2028.85,-184.52 2038.71,-180.65 2028.59,-177.53 2028.85,-184.52"/>
</g>
<!-- Node24 -->
<g id="node24" class="node">
<title>Node24</title>
<g id="a_node24"><a xlink:href="blob_8h.html" target="_top" xlink:title=" ">
<polygon fill="white" stroke="black" points="344.62,-224.5 344.62,-243.5 430.62,-243.5 430.62,-224.5 344.62,-224.5"/>
<text text-anchor="middle" x="387.62" y="-231.5" font-family="FreeSans" font-size="10.00">magick/blob.h</text>
</a>
</g>
</g>
<!-- Node1&#45;&gt;Node24 -->
<g id="edge24" class="edge">
<title>Node1&#45;&gt;Node24</title>
<path fill="none" stroke="midnightblue" d="M1149.84,-287.49C1048.45,-282.71 730.94,-266.83 468.62,-244 459.71,-243.22 450.26,-242.28 441.08,-241.31"/>
<polygon fill="midnightblue" stroke="midnightblue" points="441.2,-237.8 430.88,-240.19 440.44,-244.76 441.2,-237.8"/>
</g>
<!-- Node30 -->
<g id="node29" class="node">
<title>Node30</title>
<g id="a_node29"><a xlink:href="exception_8h.html" target="_top" xlink:title=" ">
<polygon fill="white" stroke="black" points="976.12,-56.5 976.12,-75.5 1089.12,-75.5 1089.12,-56.5 976.12,-56.5"/>
<text text-anchor="middle" x="1032.62" y="-63.5" font-family="FreeSans" font-size="10.00">magick/exception.h</text>
</a>
</g>
</g>
<!-- Node1&#45;&gt;Node30 -->
<g id="edge48" class="edge">
<title>Node1&#45;&gt;Node30</title>
<path fill="none" stroke="midnightblue" d="M1149.92,-285.96C1121.85,-281.54 1082.56,-270.67 1060.62,-244 1022.62,-197.81 1025.9,-121.16 1029.89,-85.86"/>
<polygon fill="midnightblue" stroke="midnightblue" points="1033.41,-85.94 1031.22,-75.58 1026.47,-85.05 1033.41,-85.94"/>
</g>
<!-- Node31 -->
<g id="node30" class="node">
<title>Node31</title>
<g id="a_node30"><a xlink:href="semaphore_8h.html" target="_top" xlink:title=" ">
<polygon fill="white" stroke="black" points="641.12,-0.5 641.12,-19.5 760.12,-19.5 760.12,-0.5 641.12,-0.5"/>
<text text-anchor="middle" x="700.62" y="-7.5" font-family="FreeSans" font-size="10.00">magick/semaphore.h</text>
</a>
</g>
</g>
<!-- Node1&#45;&gt;Node31 -->
<g id="edge70" class="edge">
<title>Node1&#45;&gt;Node31</title>
<path fill="none" stroke="midnightblue" d="M1149.8,-288.46C1014.03,-286.06 495.92,-275.01 335.62,-244 184.38,-214.75 97.23,-257.29 7.62,-132 -66.51,-28.36 440.6,-13.28 630.69,-11.25"/>
<polygon fill="midnightblue" stroke="midnightblue" points="630.89,-14.75 640.85,-11.15 630.82,-7.75 630.89,-14.75"/>
</g>
<!-- Node50 -->
<g id="node36" class="node">
<title>Node50</title>
<g id="a_node36"><a xlink:href="blob-private_8h.html" target="_top" xlink:title=" ">
<polygon fill="white" stroke="black" points="477.62,-224.5 477.62,-243.5 601.62,-243.5 601.62,-224.5 477.62,-224.5"/>
<text text-anchor="middle" x="539.62" y="-231.5" font-family="FreeSans" font-size="10.00">magick/blob&#45;private.h</text>
</a>
</g>
</g>
<!-- Node1&#45;&gt;Node50 -->
<g id="edge43" class="edge">
<title>Node1&#45;&gt;Node50</title>
<path fill="none" stroke="midnightblue" d="M1149.85,-286.25C1050.48,-277.9 750.87,-252.74 611.88,-241.07"/>
<polygon fill="midnightblue" stroke="midnightblue" points="612.01,-237.57 601.76,-240.22 611.43,-244.54 612.01,-237.57"/>
</g>
<!-- Node55 -->
<g id="node38" class="node">
<title>Node55</title>
<g id="a_node38"><a xlink:href="exception-private_8h.html" target="_top" xlink:title=" ">
<polygon fill="white" stroke="black" points="1180.12,-168.5 1180.12,-187.5 1331.12,-187.5 1331.12,-168.5 1180.12,-168.5"/>
<text text-anchor="middle" x="1255.62" y="-175.5" font-family="FreeSans" font-size="10.00">magick/exception&#45;private.h</text>
</a>
</g>
</g>
<!-- Node1&#45;&gt;Node55 -->
<g id="edge49" class="edge">
<title>Node1&#45;&gt;Node55</title>
<path fill="none" stroke="midnightblue" d="M1188.35,-280.37C1200.39,-262.22 1228.54,-219.8 1244.34,-195.99"/>
<polygon fill="midnightblue" stroke="midnightblue" points="1247.3,-197.86 1249.92,-187.59 1241.47,-193.99 1247.3,-197.86"/>
</g>
<!-- Node43 -->
<g id="node41" class="node">
<title>Node43</title>
<g id="a_node41"><a xlink:href="string___8h.html" target="_top" xlink:title=" ">
<polygon fill="white" stroke="black" points="1234.62,-112.5 1234.62,-131.5 1332.62,-131.5 1332.62,-112.5 1234.62,-112.5"/>
<text text-anchor="middle" x="1283.62" y="-119.5" font-family="FreeSans" font-size="10.00">magick/string_.h</text>
</a>
</g>
</g>
<!-- Node1&#45;&gt;Node43 -->
<g id="edge71" class="edge">
<title>Node1&#45;&gt;Node43</title>
<path fill="none" stroke="midnightblue" d="M1210.88,-280.41C1248.37,-267.31 1313.02,-238.4 1340.62,-188 1351.5,-168.14 1329.75,-149.11 1310.06,-136.83"/>
<polygon fill="midnightblue" stroke="midnightblue" points="1311.67,-133.72 1301.28,-131.68 1308.13,-139.76 1311.67,-133.72"/>
</g>
<!-- Node58 -->
<g id="node42" class="node">
<title>Node58</title>
<g id="a_node42"><a xlink:href="image-private_8h.html" target="_top" xlink:title=" ">
<polygon fill="white" stroke="black" points="1625.62,-224.5 1625.62,-243.5 1759.62,-243.5 1759.62,-224.5 1625.62,-224.5"/>
<text text-anchor="middle" x="1692.62" y="-231.5" font-family="FreeSans" font-size="10.00">magick/image&#45;private.h</text>
</a>
</g>
</g>
<!-- Node1&#45;&gt;Node58 -->
<g id="edge60" class="edge">
<title>Node1&#45;&gt;Node58</title>
<path fill="none" stroke="midnightblue" d="M1215.3,-285.78C1286.09,-278.75 1459.15,-261.4 1615.23,-244.14"/>
<polygon fill="midnightblue" stroke="midnightblue" points="1615.93,-247.58 1625.49,-243 1615.16,-240.63 1615.93,-247.58"/>
</g>
<!-- Node59 -->
<g id="node43" class="node">
<title>Node59</title>
<g id="a_node43"><a xlink:href="memory___8h.html" target="_top" xlink:title=" ">
<polygon fill="white" stroke="black" points="1388.12,-168.5 1388.12,-187.5 1499.12,-187.5 1499.12,-168.5 1388.12,-168.5"/>
<text text-anchor="middle" x="1443.62" y="-175.5" font-family="FreeSans" font-size="10.00">magick/memory_.h</text>
</a>
</g>
</g>
<!-- Node1&#45;&gt;Node59 -->
<g id="edge61" class="edge">
<title>Node1&#45;&gt;Node59</title>
<path fill="none" stroke="midnightblue" d="M1215.15,-286.44C1254.66,-282.22 1322.36,-271.33 1373.62,-244 1396.37,-231.87 1417.31,-210.49 1430.24,-195.58"/>
<polygon fill="midnightblue" stroke="midnightblue" points="1433.14,-197.58 1436.88,-187.67 1427.77,-193.08 1433.14,-197.58"/>
</g>
<!-- Node60 -->
<g id="node44" class="node">
<title>Node60</title>
<g id="a_node44"><a xlink:href="memory-private_8h.html" target="_top" xlink:title=" ">
<polygon fill="white" stroke="black" points="1463.62,-224.5 1463.62,-243.5 1607.62,-243.5 1607.62,-224.5 1463.62,-224.5"/>
<text text-anchor="middle" x="1535.62" y="-231.5" font-family="FreeSans" font-size="10.00">magick/memory&#45;private.h</text>
</a>
</g>
</g>
<!-- Node1&#45;&gt;Node60 -->
<g id="edge64" class="edge">
<title>Node1&#45;&gt;Node60</title>
<path fill="none" stroke="midnightblue" d="M1215.19,-284.02C1272.94,-275.18 1394.27,-256.62 1469.95,-245.05"/>
<polygon fill="midnightblue" stroke="midnightblue" points="1470.5,-248.5 1479.85,-243.53 1469.44,-241.58 1470.5,-248.5"/>
</g>
<!-- Node61 -->
<g id="node45" class="node">
<title>Node61</title>
<g id="a_node45"><a xlink:href="policy_8h.html" target="_top" xlink:title=" ">
<polygon fill="white" stroke="black" points="874.62,-112.5 874.62,-131.5 966.62,-131.5 966.62,-112.5 874.62,-112.5"/>
<text text-anchor="middle" x="920.62" y="-119.5" font-family="FreeSans" font-size="10.00">magick/policy.h</text>
</a>
</g>
</g>
<!-- Node1&#45;&gt;Node61 -->
<g id="edge66" class="edge">
<title>Node1&#45;&gt;Node61</title>
<path fill="none" stroke="midnightblue" d="M1150.04,-283.98C1074.38,-271.58 890.53,-236.9 855.62,-188 841.29,-167.93 867.93,-148.41 891.31,-136.09"/>
<polygon fill="midnightblue" stroke="midnightblue" points="892.96,-139.18 900.34,-131.58 889.83,-132.91 892.96,-139.18"/>
</g>
<!-- Node62 -->
<g id="node46" class="node">
<title>Node62</title>
<g id="a_node46"><a xlink:href="resource___8h.html" target="_top" xlink:title=" ">
<polygon fill="white" stroke="black" points="1777.62,-224.5 1777.62,-243.5 1889.62,-243.5 1889.62,-224.5 1777.62,-224.5"/>
<text text-anchor="middle" x="1833.62" y="-231.5" font-family="FreeSans" font-size="10.00">magick/resource_.h</text>
</a>
</g>
</g>
<!-- Node1&#45;&gt;Node62 -->
<g id="edge69" class="edge">
<title>Node1&#45;&gt;Node62</title>
<path fill="none" stroke="midnightblue" d="M1215.4,-287.19C1303.12,-282.18 1550.71,-267.07 1767.31,-244.08"/>
<polygon fill="midnightblue" stroke="midnightblue" points="1767.7,-247.56 1777.27,-243.02 1766.96,-240.6 1767.7,-247.56"/>
</g>
<!-- Node63 -->
<g id="node47" class="node">
<title>Node63</title>
<g id="a_node47"><a xlink:href="string-private_8h.html" target="_top" xlink:title=" ">
<polygon fill="white" stroke="black" points="677.12,-224.5 677.12,-243.5 808.12,-243.5 808.12,-224.5 677.12,-224.5"/>
<text text-anchor="middle" x="742.62" y="-231.5" font-family="FreeSans" font-size="10.00">magick/string&#45;private.h</text>
</a>
</g>
</g>
<!-- Node1&#45;&gt;Node63 -->
<g id="edge72" class="edge">
<title>Node1&#45;&gt;Node63</title>
<path fill="none" stroke="midnightblue" d="M1149.91,-284.99C1080.27,-276.44 915.82,-256.26 818.52,-244.31"/>
<polygon fill="midnightblue" stroke="midnightblue" points="818.8,-240.82 808.44,-243.08 817.94,-247.77 818.8,-240.82"/>
</g>
<!-- Node65 -->
<g id="node49" class="node">
<title>Node65</title>
<g id="a_node49"><a xlink:href="utility-private_8h.html" target="_top" xlink:title=" ">
<polygon fill="white" stroke="black" points="1070.12,-224.5 1070.12,-243.5 1201.12,-243.5 1201.12,-224.5 1070.12,-224.5"/>
<text text-anchor="middle" x="1135.62" y="-231.5" font-family="FreeSans" font-size="10.00">magick/utility&#45;private.h</text>
</a>
</g>
</g>
<!-- Node1&#45;&gt;Node65 -->
<g id="edge75" class="edge">
<title>Node1&#45;&gt;Node65</title>
<path fill="none" stroke="midnightblue" d="M1174.86,-280.08C1168.08,-272.3 1158.07,-260.8 1149.86,-251.37"/>
<polygon fill="midnightblue" stroke="midnightblue" points="1152.44,-249 1143.23,-243.75 1147.16,-253.59 1152.44,-249"/>
</g>
<!-- Node3 -->
<g id="node3" class="node">
<title>Node3</title>
<g id="a_node3"><a xlink:href="magick-config_8h.html" target="_top" xlink:title=" ">
<polygon fill="white" stroke="black" points="2793.62,-56.5 2793.62,-75.5 2927.62,-75.5 2927.62,-56.5 2793.62,-56.5"/>
<text text-anchor="middle" x="2860.62" y="-63.5" font-family="FreeSans" font-size="10.00">magick/magick&#45;config.h</text>
</a>
</g>
</g>
<!-- Node2&#45;&gt;Node3 -->
<g id="edge2" class="edge">
<title>Node2&#45;&gt;Node3</title>
<path fill="none" stroke="midnightblue" d="M2134.27,-177.29C2291.41,-177.83 2786.43,-175.99 2841.62,-132 2855.24,-121.14 2859.46,-101.06 2860.6,-86.09"/>
<polygon fill="midnightblue" stroke="midnightblue" points="2864.1,-85.99 2860.97,-75.86 2857.11,-85.73 2864.1,-85.99"/>
</g>
<!-- Node5 -->
<g id="node5" class="node">
<title>Node5</title>
<g id="a_node5"><a xlink:title=" ">
<polygon fill="white" stroke="#bfbfbf" points="1212.62,-0.5 1212.62,-19.5 1268.62,-19.5 1268.62,-0.5 1212.62,-0.5"/>
<text text-anchor="middle" x="1240.62" y="-7.5" font-family="FreeSans" font-size="10.00">stdarg.h</text>
</a>
</g>
</g>
<!-- Node2&#45;&gt;Node5 -->
<g id="edge4" class="edge">
<title>Node2&#45;&gt;Node5</title>
<path fill="none" stroke="midnightblue" d="M2038.86,-176.69C1920.76,-175.36 1617.85,-168.4 1524.62,-132 1473.6,-112.08 1476.92,-79.84 1427.62,-56 1379.39,-32.68 1318.18,-20.92 1279.19,-15.38"/>
<polygon fill="midnightblue" stroke="midnightblue" points="1279.19,-11.85 1268.81,-13.98 1278.25,-18.79 1279.19,-11.85"/>
</g>
<!-- Node6 -->
<g id="node6" class="node">
<title>Node6</title>
<g id="a_node6"><a xlink:title=" ">
<polygon fill="white" stroke="#bfbfbf" points="2566.62,-112.5 2566.62,-131.5 2616.62,-131.5 2616.62,-112.5 2566.62,-112.5"/>
<text text-anchor="middle" x="2591.62" y="-119.5" font-family="FreeSans" font-size="10.00">stdio.h</text>
</a>
</g>
</g>
<!-- Node2&#45;&gt;Node6 -->
<g id="edge5" class="edge">
<title>Node2&#45;&gt;Node6</title>
<path fill="none" stroke="midnightblue" d="M2134.18,-174.46C2218.78,-169.49 2400.8,-156.74 2552.62,-132 2553.89,-131.79 2555.18,-131.57 2556.49,-131.33"/>
<polygon fill="midnightblue" stroke="midnightblue" points="2557.43,-134.71 2566.54,-129.29 2556.04,-127.85 2557.43,-134.71"/>
</g>
<!-- Node7 -->
<g id="node7" class="node">
<title>Node7</title>
<g id="a_node7"><a xlink:title=" ">
<polygon fill="white" stroke="#bfbfbf" points="2779.12,-112.5 2779.12,-131.5 2832.12,-131.5 2832.12,-112.5 2779.12,-112.5"/>
<text text-anchor="middle" x="2805.62" y="-119.5" font-family="FreeSans" font-size="10.00">ctype.h</text>
</a>
</g>
</g>
<!-- Node2&#45;&gt;Node7 -->
<g id="edge6" class="edge">
<title>Node2&#45;&gt;Node7</title>
<path fill="none" stroke="midnightblue" d="M2134.14,-176.79C2244.22,-175.67 2525.23,-169.24 2768.88,-131.8"/>
<polygon fill="midnightblue" stroke="midnightblue" points="2769.65,-135.22 2778.99,-130.22 2768.57,-128.3 2769.65,-135.22"/>
</g>
<!-- Node8 -->
<g id="node8" class="node">
<title>Node8</title>
<g id="a_node8"><a xlink:title=" ">
<polygon fill="white" stroke="#bfbfbf" points="1533.12,-112.5 1533.12,-131.5 1588.12,-131.5 1588.12,-112.5 1533.12,-112.5"/>
<text text-anchor="middle" x="1560.62" y="-119.5" font-family="FreeSans" font-size="10.00">locale.h</text>
</a>
</g>
</g>
<!-- Node2&#45;&gt;Node8 -->
<g id="edge7" class="edge">
<title>Node2&#45;&gt;Node8</title>
<path fill="none" stroke="midnightblue" d="M2039.12,-174.95C1953.1,-170.73 1765.74,-159.24 1598.38,-131.88"/>
<polygon fill="midnightblue" stroke="midnightblue" points="1598.85,-128.41 1588.41,-130.22 1597.7,-135.31 1598.85,-128.41"/>
</g>
<!-- Node9 -->
<g id="node9" class="node">
<title>Node9</title>
<g id="a_node9"><a xlink:title=" ">
<polygon fill="white" stroke="#bfbfbf" points="1351.12,-112.5 1351.12,-131.5 1402.12,-131.5 1402.12,-112.5 1351.12,-112.5"/>
<text text-anchor="middle" x="1376.62" y="-119.5" font-family="FreeSans" font-size="10.00">errno.h</text>
</a>
</g>
</g>
<!-- Node2&#45;&gt;Node9 -->
<g id="edge8" class="edge">
<title>Node2&#45;&gt;Node9</title>
<path fill="none" stroke="midnightblue" d="M2038.81,-176.84C1929.41,-175.83 1652.42,-169.58 1412.46,-131.81"/>
<polygon fill="midnightblue" stroke="midnightblue" points="1412.93,-128.34 1402.5,-130.22 1411.82,-135.26 1412.93,-128.34"/>
</g>
<!-- Node10 -->
<g id="node10" class="node">
<title>Node10</title>
<g id="a_node10"><a xlink:title=" ">
<polygon fill="white" stroke="#bfbfbf" points="1606.12,-112.5 1606.12,-131.5 1653.12,-131.5 1653.12,-112.5 1606.12,-112.5"/>
<text text-anchor="middle" x="1629.62" y="-119.5" font-family="FreeSans" font-size="10.00">fcntl.h</text>
</a>
</g>
</g>
<!-- Node2&#45;&gt;Node10 -->
<g id="edge9" class="edge">
<title>Node2&#45;&gt;Node10</title>
<path fill="none" stroke="midnightblue" d="M2038.88,-174.44C1961.85,-169.76 1805.31,-158 1663.49,-131.86"/>
<polygon fill="midnightblue" stroke="midnightblue" points="1663.78,-128.35 1653.31,-129.95 1662.49,-135.23 1663.78,-128.35"/>
</g>
<!-- Node11 -->
<g id="node11" class="node">
<title>Node11</title>
<g id="a_node11"><a xlink:title=" ">
<polygon fill="white" stroke="#bfbfbf" points="1671.12,-112.5 1671.12,-131.5 1722.12,-131.5 1722.12,-112.5 1671.12,-112.5"/>
<text text-anchor="middle" x="1696.62" y="-119.5" font-family="FreeSans" font-size="10.00">math.h</text>
</a>
</g>
</g>
<!-- Node2&#45;&gt;Node11 -->
<g id="edge10" class="edge">
<title>Node2&#45;&gt;Node11</title>
<path fill="none" stroke="midnightblue" d="M2038.95,-172.88C1972.46,-166.7 1848,-153.62 1732.25,-131.88"/>
<polygon fill="midnightblue" stroke="midnightblue" points="1732.63,-128.39 1722.15,-129.96 1731.32,-135.27 1732.63,-128.39"/>
</g>
<!-- Node12 -->
<g id="node12" class="node">
<title>Node12</title>
<g id="a_node12"><a xlink:title=" ">
<polygon fill="white" stroke="#bfbfbf" points="1370.62,-56.5 1370.62,-75.5 1418.62,-75.5 1418.62,-56.5 1370.62,-56.5"/>
<text text-anchor="middle" x="1394.62" y="-63.5" font-family="FreeSans" font-size="10.00">time.h</text>
</a>
</g>
</g>
<!-- Node2&#45;&gt;Node12 -->
<g id="edge11" class="edge">
<title>Node2&#45;&gt;Node12</title>
<path fill="none" stroke="midnightblue" d="M2134.13,-177C2257.38,-176.22 2574.13,-168.73 2519.62,-112 2480.9,-71.71 1613.55,-67.49 1428.96,-67.05"/>
<polygon fill="midnightblue" stroke="midnightblue" points="1428.76,-63.55 1418.76,-67.03 1428.75,-70.55 1428.76,-63.55"/>
</g>
<!-- Node13 -->
<g id="node13" class="node">
<title>Node13</title>
<g id="a_node13"><a xlink:title=" ">
<polygon fill="white" stroke="#bfbfbf" points="1740.12,-112.5 1740.12,-131.5 1793.12,-131.5 1793.12,-112.5 1740.12,-112.5"/>
<text text-anchor="middle" x="1766.62" y="-119.5" font-family="FreeSans" font-size="10.00">limits.h</text>
</a>
</g>
</g>
<!-- Node2&#45;&gt;Node13 -->
<g id="edge12" class="edge">
<title>Node2&#45;&gt;Node13</title>
<path fill="none" stroke="midnightblue" d="M2038.9,-170.74C1984.33,-163.3 1892.13,-149.84 1803.27,-131.97"/>
<polygon fill="midnightblue" stroke="midnightblue" points="1803.79,-128.51 1793.29,-129.95 1802.4,-135.37 1803.79,-128.51"/>
</g>
<!-- Node14 -->
<g id="node14" class="node">
<title>Node14</title>
<g id="a_node14"><a xlink:title=" ">
<polygon fill="white" stroke="#bfbfbf" points="1811.12,-112.5 1811.12,-131.5 1866.12,-131.5 1866.12,-112.5 1811.12,-112.5"/>
<text text-anchor="middle" x="1838.62" y="-119.5" font-family="FreeSans" font-size="10.00">signal.h</text>
</a>
</g>
</g>
<!-- Node2&#45;&gt;Node14 -->
<g id="edge13" class="edge">
<title>Node2&#45;&gt;Node14</title>
<path fill="none" stroke="midnightblue" d="M2044.9,-168.47C2004.37,-160.1 1940.81,-146.76 1876.4,-132.13"/>
<polygon fill="midnightblue" stroke="midnightblue" points="1877.01,-128.68 1866.48,-129.87 1875.45,-135.5 1877.01,-128.68"/>
</g>
<!-- Node15 -->
<g id="node15" class="node">
<title>Node15</title>
<g id="a_node15"><a xlink:title=" ">
<polygon fill="white" stroke="#bfbfbf" points="1420.62,-112.5 1420.62,-131.5 1476.62,-131.5 1476.62,-112.5 1420.62,-112.5"/>
<text text-anchor="middle" x="1448.62" y="-119.5" font-family="FreeSans" font-size="10.00">assert.h</text>
</a>
</g>
</g>
<!-- Node2&#45;&gt;Node15 -->
<g id="edge14" class="edge">
<title>Node2&#45;&gt;Node15</title>
<path fill="none" stroke="midnightblue" d="M2038.87,-175.59C1937.44,-172.13 1693.2,-161.22 1490.62,-132 1489.37,-131.82 1488.11,-131.63 1486.83,-131.42"/>
<polygon fill="midnightblue" stroke="midnightblue" points="1487.46,-127.97 1476.99,-129.63 1486.2,-134.86 1487.46,-127.97"/>
</g>
<!-- Node16 -->
<g id="node16" class="node">
<title>Node16</title>
<g id="a_node16"><a xlink:href="method-attribute_8h.html" target="_top" xlink:title=" ">
<polygon fill="white" stroke="black" points="1884.62,-112.5 1884.62,-131.5 2032.62,-131.5 2032.62,-112.5 1884.62,-112.5"/>
<text text-anchor="middle" x="1958.62" y="-119.5" font-family="FreeSans" font-size="10.00">magick/method&#45;attribute.h</text>
</a>
</g>
</g>
<!-- Node2&#45;&gt;Node16 -->
<g id="edge15" class="edge">
<title>Node2&#45;&gt;Node16</title>
<path fill="none" stroke="midnightblue" d="M2066.34,-168.44C2045.27,-159.56 2012.1,-145.56 1988.13,-135.45"/>
<polygon fill="midnightblue" stroke="midnightblue" points="1989.38,-132.18 1978.81,-131.52 1986.66,-138.63 1989.38,-132.18"/>
</g>
<!-- Node17 -->
<g id="node17" class="node">
<title>Node17</title>
<g id="a_node17"><a xlink:title=" ">
<polygon fill="white" stroke="#bfbfbf" points="2050.62,-112.5 2050.62,-131.5 2122.62,-131.5 2122.62,-112.5 2050.62,-112.5"/>
<text text-anchor="middle" x="2086.62" y="-119.5" font-family="FreeSans" font-size="10.00">sys/types.h</text>
</a>
</g>
</g>
<!-- Node2&#45;&gt;Node17 -->
<g id="edge16" class="edge">
<title>Node2&#45;&gt;Node17</title>
<path fill="none" stroke="midnightblue" d="M2086.62,-168.08C2086.62,-161.01 2086.62,-150.86 2086.62,-141.99"/>
<polygon fill="midnightblue" stroke="midnightblue" points="2090.12,-141.75 2086.62,-131.75 2083.12,-141.75 2090.12,-141.75"/>
</g>
<!-- Node18 -->
<g id="node18" class="node">
<title>Node18</title>
<g id="a_node18"><a xlink:title=" ">
<polygon fill="white" stroke="#bfbfbf" points="2140.62,-112.5 2140.62,-131.5 2204.62,-131.5 2204.62,-112.5 2140.62,-112.5"/>
<text text-anchor="middle" x="2172.62" y="-119.5" font-family="FreeSans" font-size="10.00">sys/stat.h</text>
</a>
</g>
</g>
<!-- Node2&#45;&gt;Node18 -->
<g id="edge17" class="edge">
<title>Node2&#45;&gt;Node18</title>
<path fill="none" stroke="midnightblue" d="M2100.44,-168.32C2113.85,-159.9 2134.44,-146.97 2150.2,-137.07"/>
<polygon fill="midnightblue" stroke="midnightblue" points="2152.23,-139.94 2158.83,-131.65 2148.5,-134.01 2152.23,-139.94"/>
</g>
<!-- Node19 -->
<g id="node19" class="node">
<title>Node19</title>
<g id="a_node19"><a xlink:title=" ">
<polygon fill="white" stroke="#bfbfbf" points="2222.62,-112.5 2222.62,-131.5 2276.62,-131.5 2276.62,-112.5 2222.62,-112.5"/>
<text text-anchor="middle" x="2249.62" y="-119.5" font-family="FreeSans" font-size="10.00">dirent.h</text>
</a>
</g>
</g>
<!-- Node2&#45;&gt;Node19 -->
<g id="edge18" class="edge">
<title>Node2&#45;&gt;Node19</title>
<path fill="none" stroke="midnightblue" d="M2112.45,-168.44C2139.87,-159.36 2183.4,-144.94 2214.05,-134.78"/>
<polygon fill="midnightblue" stroke="midnightblue" points="2215.52,-137.98 2223.91,-131.52 2213.32,-131.34 2215.52,-137.98"/>
</g>
<!-- Node20 -->
<g id="node20" class="node">
<title>Node20</title>
<g id="a_node20"><a xlink:title=" ">
<polygon fill="white" stroke="#bfbfbf" points="2294.62,-112.5 2294.62,-131.5 2360.62,-131.5 2360.62,-112.5 2294.62,-112.5"/>
<text text-anchor="middle" x="2327.62" y="-119.5" font-family="FreeSans" font-size="10.00">sys/wait.h</text>
</a>
</g>
</g>
<!-- Node2&#45;&gt;Node20 -->
<g id="edge19" class="edge">
<title>Node2&#45;&gt;Node20</title>
<path fill="none" stroke="midnightblue" d="M2124.81,-168.44C2168.24,-158.71 2239.01,-142.86 2284.42,-132.68"/>
<polygon fill="midnightblue" stroke="midnightblue" points="2285.27,-136.07 2294.27,-130.47 2283.74,-129.24 2285.27,-136.07"/>
</g>
<!-- Node21 -->
<g id="node21" class="node">
<title>Node21</title>
<g id="a_node21"><a xlink:title=" ">
<polygon fill="white" stroke="#bfbfbf" points="2378.62,-112.5 2378.62,-131.5 2424.62,-131.5 2424.62,-112.5 2378.62,-112.5"/>
<text text-anchor="middle" x="2401.62" y="-119.5" font-family="FreeSans" font-size="10.00">pwd.h</text>
</a>
</g>
</g>
<!-- Node2&#45;&gt;Node21 -->
<g id="edge20" class="edge">
<title>Node2&#45;&gt;Node21</title>
<path fill="none" stroke="midnightblue" d="M2134.25,-171.15C2188.71,-164.08 2280.67,-150.98 2368.43,-132.06"/>
<polygon fill="midnightblue" stroke="midnightblue" points="2369.26,-135.46 2378.28,-129.9 2367.76,-128.62 2369.26,-135.46"/>
</g>
<!-- Node22 -->
<g id="node22" class="node">
<title>Node22</title>
<g id="a_node22"><a xlink:href="magick-type_8h.html" target="_top" xlink:title=" ">
<polygon fill="white" stroke="black" points="2634.62,-112.5 2634.62,-131.5 2760.62,-131.5 2760.62,-112.5 2634.62,-112.5"/>
<text text-anchor="middle" x="2697.62" y="-119.5" font-family="FreeSans" font-size="10.00">magick/magick&#45;type.h</text>
</a>
</g>
</g>
<!-- Node2&#45;&gt;Node22 -->
<g id="edge21" class="edge">
<title>Node2&#45;&gt;Node22</title>
<path fill="none" stroke="midnightblue" d="M2134.27,-173.68C2226.66,-167.11 2436.87,-151.44 2624.38,-132.09"/>
<polygon fill="midnightblue" stroke="midnightblue" points="2624.83,-135.56 2634.42,-131.05 2624.11,-128.6 2624.83,-135.56"/>
</g>
<!-- Node23 -->
<g id="node23" class="node">
<title>Node23</title>
<g id="a_node23"><a xlink:title=" ">
<polygon fill="white" stroke="#bfbfbf" points="2442.62,-112.5 2442.62,-131.5 2510.62,-131.5 2510.62,-112.5 2442.62,-112.5"/>
<text text-anchor="middle" x="2476.62" y="-119.5" font-family="FreeSans" font-size="10.00">sys/time.h</text>
</a>
</g>
</g>
<!-- Node2&#45;&gt;Node23 -->
<g id="edge23" class="edge">
<title>Node2&#45;&gt;Node23</title>
<path fill="none" stroke="midnightblue" d="M2134.22,-172.01C2199.28,-164.92 2319.83,-150.87 2432.24,-132.12"/>
<polygon fill="midnightblue" stroke="midnightblue" points="2433.12,-135.52 2442.4,-130.41 2431.95,-128.62 2433.12,-135.52"/>
</g>
<!-- Node4 -->
<g id="node4" class="node">
<title>Node4</title>
<g id="a_node4"><a xlink:href="magick-baseconfig_8h.html" target="_top" xlink:title=" ">
<polygon fill="white" stroke="black" points="2782.12,-0.5 2782.12,-19.5 2939.12,-19.5 2939.12,-0.5 2782.12,-0.5"/>
<text text-anchor="middle" x="2860.62" y="-7.5" font-family="FreeSans" font-size="10.00">magick/magick&#45;baseconfig.h</text>
</a>
</g>
</g>
<!-- Node3&#45;&gt;Node4 -->
<g id="edge3" class="edge">
<title>Node3&#45;&gt;Node4</title>
<path fill="none" stroke="midnightblue" d="M2860.62,-56.08C2860.62,-49.01 2860.62,-38.86 2860.62,-29.99"/>
<polygon fill="midnightblue" stroke="midnightblue" points="2864.12,-29.75 2860.62,-19.75 2857.12,-29.75 2864.12,-29.75"/>
</g>
<!-- Node22&#45;&gt;Node3 -->
<g id="edge22" class="edge">
<title>Node22&#45;&gt;Node3</title>
<path fill="none" stroke="midnightblue" d="M2723.45,-112.44C2750.87,-103.36 2794.4,-88.94 2825.05,-78.78"/>
<polygon fill="midnightblue" stroke="midnightblue" points="2826.52,-81.98 2834.91,-75.52 2824.32,-75.34 2826.52,-81.98"/>
</g>
<!-- Node25 -->
<g id="node25" class="node">
<title>Node25</title>
<g id="a_node25"><a xlink:href="image_8h.html" target="_top" xlink:title=" ">
<polygon fill="white" stroke="red" points="340.12,-168.5 340.12,-187.5 435.12,-187.5 435.12,-168.5 340.12,-168.5"/>
<text text-anchor="middle" x="387.62" y="-175.5" font-family="FreeSans" font-size="10.00">magick/image.h</text>
</a>
</g>
</g>
<!-- Node24&#45;&gt;Node25 -->
<g id="edge25" class="edge">
<title>Node24&#45;&gt;Node25</title>
<path fill="none" stroke="midnightblue" d="M382.45,-224.08C380.94,-216.93 380.51,-206.64 381.16,-197.69"/>
<polygon fill="midnightblue" stroke="midnightblue" points="384.63,-198.13 382.49,-187.75 377.69,-197.2 384.63,-198.13"/>
</g>
<!-- Node48 -->
<g id="node35" class="node">
<title>Node48</title>
<g id="a_node35"><a xlink:href="stream_8h.html" target="_top" xlink:title=" ">
<polygon fill="white" stroke="black" points="17.12,-112.5 17.12,-131.5 116.12,-131.5 116.12,-112.5 17.12,-112.5"/>
<text text-anchor="middle" x="66.62" y="-119.5" font-family="FreeSans" font-size="10.00">magick/stream.h</text>
</a>
</g>
</g>
<!-- Node24&#45;&gt;Node48 -->
<g id="edge42" class="edge">
<title>Node24&#45;&gt;Node48</title>
<path fill="none" stroke="midnightblue" d="M361.9,-224.45C334.91,-215.46 291.24,-200.85 253.62,-188 200.25,-169.77 138.48,-148.2 101,-135.07"/>
<polygon fill="midnightblue" stroke="midnightblue" points="101.69,-131.61 91.09,-131.6 99.37,-138.21 101.69,-131.61"/>
</g>
<!-- Node25&#45;&gt;Node24 -->
<g id="edge32" class="edge">
<title>Node25&#45;&gt;Node24</title>
<path fill="none" stroke="midnightblue" d="M392.75,-187.75C394.28,-194.86 394.72,-205.14 394.09,-214.1"/>
<polygon fill="midnightblue" stroke="midnightblue" points="390.61,-213.71 392.78,-224.08 397.55,-214.62 390.61,-213.71"/>
</g>
<!-- Node26 -->
<g id="node26" class="node">
<title>Node26</title>
<g id="a_node26"><a xlink:href="color_8h.html" target="_top" xlink:title=" ">
<polygon fill="white" stroke="black" points="650.62,-112.5 650.62,-131.5 738.62,-131.5 738.62,-112.5 650.62,-112.5"/>
<text text-anchor="middle" x="694.62" y="-119.5" font-family="FreeSans" font-size="10.00">magick/color.h</text>
</a>
</g>
</g>
<!-- Node25&#45;&gt;Node26 -->
<g id="edge26" class="edge">
<title>Node25&#45;&gt;Node26</title>
<path fill="none" stroke="midnightblue" d="M435.25,-168.62C490.7,-158.87 582.08,-142.79 640.26,-132.56"/>
<polygon fill="midnightblue" stroke="midnightblue" points="641.12,-135.96 650.36,-130.78 639.91,-129.07 641.12,-135.96"/>
</g>
<!-- Node27 -->
<g id="node27" class="node">
<title>Node27</title>
<g id="a_node27"><a xlink:href="pixel_8h.html" target="_top" xlink:title=" ">
<polygon fill="white" stroke="red" points="314.62,-56.5 314.62,-75.5 402.62,-75.5 402.62,-56.5 314.62,-56.5"/>
<text text-anchor="middle" x="358.62" y="-63.5" font-family="FreeSans" font-size="10.00">magick/pixel.h</text>
</a>
</g>
</g>
<!-- Node25&#45;&gt;Node27 -->
<g id="edge39" class="edge">
<title>Node25&#45;&gt;Node27</title>
<path fill="none" stroke="midnightblue" d="M385.34,-168.37C380.64,-150.54 369.77,-109.3 363.44,-85.27"/>
<polygon fill="midnightblue" stroke="midnightblue" points="366.82,-84.37 360.88,-75.59 360.05,-86.15 366.82,-84.37"/>
</g>
<!-- Node28 -->
<g id="node28" class="node">
<title>Node28</title>
<g id="a_node28"><a xlink:href="colorspace_8h.html" target="_top" xlink:title=" ">
<polygon fill="white" stroke="black" points="174.12,-0.5 174.12,-19.5 291.12,-19.5 291.12,-0.5 174.12,-0.5"/>
<text text-anchor="middle" x="232.62" y="-7.5" font-family="FreeSans" font-size="10.00">magick/colorspace.h</text>
</a>
</g>
</g>
<!-- Node25&#45;&gt;Node28 -->
<g id="edge33" class="edge">
<title>Node25&#45;&gt;Node28</title>
<path fill="none" stroke="midnightblue" d="M339.99,-170.44C278.88,-161.54 179.41,-145.24 168.62,-132 147.27,-105.82 153.05,-85.98 168.62,-56 175.77,-42.23 189.29,-31.78 202.07,-24.44"/>
<polygon fill="midnightblue" stroke="midnightblue" points="203.93,-27.41 211.14,-19.64 200.66,-21.23 203.93,-27.41"/>
</g>
<!-- Node25&#45;&gt;Node31 -->
<g id="edge40" class="edge">
<title>Node25&#45;&gt;Node31</title>
<path fill="none" stroke="midnightblue" d="M339.8,-172.09C290.5,-165.93 218.52,-153.47 201.62,-132 196.12,-125.01 197.06,-119.63 201.62,-112 245.14,-39.13 504.19,-18.75 630.9,-13.12"/>
<polygon fill="midnightblue" stroke="midnightblue" points="631.06,-16.61 640.9,-12.69 630.76,-9.62 631.06,-16.61"/>
</g>
<!-- Node32 -->
<g id="node31" class="node">
<title>Node32</title>
<g id="a_node31"><a xlink:href="cache-view_8h.html" target="_top" xlink:title=" ">
<polygon fill="white" stroke="black" points="211.12,-112.5 211.12,-131.5 330.12,-131.5 330.12,-112.5 211.12,-112.5"/>
<text text-anchor="middle" x="270.62" y="-119.5" font-family="FreeSans" font-size="10.00">magick/cache&#45;view.h</text>
</a>
</g>
</g>
<!-- Node25&#45;&gt;Node32 -->
<g id="edge34" class="edge">
<title>Node25&#45;&gt;Node32</title>
<path fill="none" stroke="midnightblue" d="M369.08,-168.44C350,-159.64 320.04,-145.81 298.18,-135.72"/>
<polygon fill="midnightblue" stroke="midnightblue" points="299.62,-132.53 289.07,-131.52 296.68,-138.88 299.62,-132.53"/>
</g>
<!-- Node33 -->
<g id="node32" class="node">
<title>Node33</title>
<g id="a_node32"><a xlink:href="composite_8h.html" target="_top" xlink:title=" ">
<polygon fill="white" stroke="black" points="386.62,-112.5 386.62,-131.5 502.62,-131.5 502.62,-112.5 386.62,-112.5"/>
<text text-anchor="middle" x="444.62" y="-119.5" font-family="FreeSans" font-size="10.00">magick/composite.h</text>
</a>
</g>
</g>
<!-- Node25&#45;&gt;Node33 -->
<g id="edge36" class="edge">
<title>Node25&#45;&gt;Node33</title>
<path fill="none" stroke="midnightblue" d="M396.78,-168.32C405.12,-160.42 417.65,-148.55 427.79,-138.94"/>
<polygon fill="midnightblue" stroke="midnightblue" points="430.44,-141.25 435.29,-131.83 425.63,-136.17 430.44,-141.25"/>
</g>
<!-- Node34 -->
<g id="node33" class="node">
<title>Node34</title>
<g id="a_node33"><a xlink:href="compress_8h.html" target="_top" xlink:title=" ">
<polygon fill="white" stroke="black" points="520.62,-112.5 520.62,-131.5 632.62,-131.5 632.62,-112.5 520.62,-112.5"/>
<text text-anchor="middle" x="576.62" y="-119.5" font-family="FreeSans" font-size="10.00">magick/compress.h</text>
</a>
</g>
</g>
<!-- Node25&#45;&gt;Node34 -->
<g id="edge37" class="edge">
<title>Node25&#45;&gt;Node34</title>
<path fill="none" stroke="midnightblue" d="M417.57,-168.44C449.78,-159.24 501.15,-144.56 536.76,-134.39"/>
<polygon fill="midnightblue" stroke="midnightblue" points="538.16,-137.63 546.81,-131.52 536.23,-130.9 538.16,-137.63"/>
</g>
<!-- Node39 -->
<g id="node34" class="node">
<title>Node39</title>
<g id="a_node34"><a xlink:href="locale___8h.html" target="_top" xlink:title=" ">
<polygon fill="white" stroke="red" points="757.12,-112.5 757.12,-131.5 856.12,-131.5 856.12,-112.5 757.12,-112.5"/>
<text text-anchor="middle" x="806.62" y="-119.5" font-family="FreeSans" font-size="10.00">magick/locale_.h</text>
</a>
</g>
</g>
<!-- Node25&#45;&gt;Node39 -->
<g id="edge38" class="edge">
<title>Node25&#45;&gt;Node39</title>
<path fill="none" stroke="midnightblue" d="M435.13,-171.47C502.18,-163.59 628.63,-148.38 747.09,-132.04"/>
<polygon fill="midnightblue" stroke="midnightblue" points="747.63,-135.5 757.06,-130.66 746.67,-128.56 747.63,-135.5"/>
</g>
<!-- Node25&#45;&gt;Node48 -->
<g id="edge41" class="edge">
<title>Node25&#45;&gt;Node48</title>
<path fill="none" stroke="midnightblue" d="M339.91,-168.97C283,-159.4 187.83,-143.39 126.15,-133.02"/>
<polygon fill="midnightblue" stroke="midnightblue" points="126.62,-129.54 116.17,-131.34 125.46,-136.45 126.62,-129.54"/>
</g>
<!-- Node26&#45;&gt;Node27 -->
<g id="edge27" class="edge">
<title>Node26&#45;&gt;Node27</title>
<path fill="none" stroke="midnightblue" d="M650.38,-113.45C647.41,-112.96 644.47,-112.47 641.62,-112 562.13,-98.93 469.98,-84.39 412.98,-75.47"/>
<polygon fill="midnightblue" stroke="midnightblue" points="413.18,-71.96 402.76,-73.87 412.1,-78.87 413.18,-71.96"/>
</g>
<!-- Node26&#45;&gt;Node30 -->
<g id="edge29" class="edge">
<title>Node26&#45;&gt;Node30</title>
<path fill="none" stroke="midnightblue" d="M738.86,-113.45C741.82,-112.95 744.76,-112.47 747.62,-112 822.93,-99.66 909.54,-86.07 967.33,-77.09"/>
<polygon fill="midnightblue" stroke="midnightblue" points="968.07,-80.51 977.42,-75.52 967,-73.6 968.07,-80.51"/>
</g>
<!-- Node27&#45;&gt;Node28 -->
<g id="edge28" class="edge">
<title>Node27&#45;&gt;Node28</title>
<path fill="none" stroke="midnightblue" d="M338.65,-56.44C318.01,-47.6 285.56,-33.69 261.99,-23.59"/>
<polygon fill="midnightblue" stroke="midnightblue" points="263.06,-20.24 252.49,-19.52 260.3,-26.67 263.06,-20.24"/>
</g>
<!-- Node30&#45;&gt;Node5 -->
<g id="edge30" class="edge">
<title>Node30&#45;&gt;Node5</title>
<path fill="none" stroke="midnightblue" d="M1065.58,-56.44C1102.88,-46.76 1163.54,-31.01 1202.76,-20.83"/>
<polygon fill="midnightblue" stroke="midnightblue" points="1203.68,-24.2 1212.48,-18.3 1201.92,-17.43 1203.68,-24.2"/>
</g>
<!-- Node30&#45;&gt;Node31 -->
<g id="edge31" class="edge">
<title>Node30&#45;&gt;Node31</title>
<path fill="none" stroke="midnightblue" d="M980.01,-56.44C921.12,-46.87 825.77,-31.36 763.12,-21.17"/>
<polygon fill="midnightblue" stroke="midnightblue" points="763.41,-17.67 752.98,-19.52 762.29,-24.58 763.41,-17.67"/>
</g>
<!-- Node32&#45;&gt;Node27 -->
<g id="edge35" class="edge">
<title>Node32&#45;&gt;Node27</title>
<path fill="none" stroke="midnightblue" d="M284.76,-112.32C298.48,-103.9 319.55,-90.97 335.68,-81.07"/>
<polygon fill="midnightblue" stroke="midnightblue" points="337.82,-83.87 344.51,-75.65 334.16,-77.9 337.82,-83.87"/>
</g>
<!-- Node50&#45;&gt;Node25 -->
<g id="edge44" class="edge">
<title>Node50&#45;&gt;Node25</title>
<path fill="none" stroke="midnightblue" d="M515.53,-224.44C490.07,-215.4 449.72,-201.06 421.16,-190.92"/>
<polygon fill="midnightblue" stroke="midnightblue" points="422.18,-187.57 411.59,-187.52 419.84,-194.16 422.18,-187.57"/>
</g>
<!-- Node50&#45;&gt;Node48 -->
<g id="edge45" class="edge">
<title>Node50&#45;&gt;Node48</title>
<path fill="none" stroke="midnightblue" d="M498.3,-224.48C456.08,-215.68 388.66,-201.39 330.62,-188 252.57,-169.99 162,-147.3 109.8,-134.04"/>
<polygon fill="midnightblue" stroke="midnightblue" points="110.44,-130.6 99.88,-131.52 108.71,-137.38 110.44,-130.6"/>
</g>
<!-- Node51 -->
<g id="node37" class="node">
<title>Node51</title>
<g id="a_node37"><a xlink:href="nt-base-private_8h.html" target="_top" xlink:title=" ">
<polygon fill="white" stroke="red" points="864.62,-168.5 864.62,-187.5 1004.62,-187.5 1004.62,-168.5 864.62,-168.5"/>
<text text-anchor="middle" x="934.62" y="-175.5" font-family="FreeSans" font-size="10.00">magick/nt&#45;base&#45;private.h</text>
</a>
</g>
</g>
<!-- Node50&#45;&gt;Node51 -->
<g id="edge46" class="edge">
<title>Node50&#45;&gt;Node51</title>
<path fill="none" stroke="midnightblue" d="M601.77,-224.5C672.32,-214.86 787.27,-199.14 861.92,-188.94"/>
<polygon fill="midnightblue" stroke="midnightblue" points="862.74,-192.36 872.18,-187.54 861.79,-185.42 862.74,-192.36"/>
</g>
<!-- Node51&#45;&gt;Node30 -->
<g id="edge47" class="edge">
<title>Node51&#45;&gt;Node30</title>
<path fill="none" stroke="midnightblue" d="M942.53,-168.42C950.82,-159.39 964.21,-144.77 975.62,-132 990.22,-115.66 1006.71,-96.81 1018.18,-83.64"/>
<polygon fill="midnightblue" stroke="midnightblue" points="1021.01,-85.72 1024.93,-75.88 1015.72,-81.13 1021.01,-85.72"/>
</g>
<!-- Node56 -->
<g id="node39" class="node">
<title>Node56</title>
<g id="a_node39"><a xlink:href="log_8h.html" target="_top" xlink:title=" ">
<polygon fill="white" stroke="black" points="1098.62,-112.5 1098.62,-131.5 1178.62,-131.5 1178.62,-112.5 1098.62,-112.5"/>
<text text-anchor="middle" x="1138.62" y="-119.5" font-family="FreeSans" font-size="10.00">magick/log.h</text>
</a>
</g>
</g>
<!-- Node55&#45;&gt;Node56 -->
<g id="edge50" class="edge">
<title>Node55&#45;&gt;Node56</title>
<path fill="none" stroke="midnightblue" d="M1237.08,-168.44C1218,-159.64 1188.04,-145.81 1166.18,-135.72"/>
<polygon fill="midnightblue" stroke="midnightblue" points="1167.62,-132.53 1157.07,-131.52 1164.68,-138.88 1167.62,-132.53"/>
</g>
<!-- Node57 -->
<g id="node40" class="node">
<title>Node57</title>
<g id="a_node40"><a xlink:href="magick_8h.html" target="_top" xlink:title=" ">
<polygon fill="white" stroke="black" points="1111.12,-56.5 1111.12,-75.5 1212.12,-75.5 1212.12,-56.5 1111.12,-56.5"/>
<text text-anchor="middle" x="1161.62" y="-63.5" font-family="FreeSans" font-size="10.00">magick/magick.h</text>
</a>
</g>
</g>
<!-- Node55&#45;&gt;Node57 -->
<g id="edge53" class="edge">
<title>Node55&#45;&gt;Node57</title>
<path fill="none" stroke="midnightblue" d="M1248.24,-168.37C1232.59,-150.05 1195.84,-107.05 1175.6,-83.36"/>
<polygon fill="midnightblue" stroke="midnightblue" points="1178.12,-80.92 1168.96,-75.59 1172.8,-85.47 1178.12,-80.92"/>
</g>
<!-- Node55&#45;&gt;Node43 -->
<g id="edge56" class="edge">
<title>Node55&#45;&gt;Node43</title>
<path fill="none" stroke="midnightblue" d="M1260.24,-168.08C1264.07,-160.69 1269.64,-149.95 1274.38,-140.81"/>
<polygon fill="midnightblue" stroke="midnightblue" points="1277.58,-142.24 1279.08,-131.75 1271.37,-139.02 1277.58,-142.24"/>
</g>
<!-- Node56&#45;&gt;Node5 -->
<g id="edge51" class="edge">
<title>Node56&#45;&gt;Node5</title>
<path fill="none" stroke="midnightblue" d="M1166.21,-112.35C1184.4,-105.3 1207.41,-93.6 1221.62,-76 1232.34,-62.72 1237.01,-43.59 1239.05,-29.53"/>
<polygon fill="midnightblue" stroke="midnightblue" points="1242.53,-29.87 1240.18,-19.54 1235.58,-29.08 1242.53,-29.87"/>
</g>
<!-- Node56&#45;&gt;Node30 -->
<g id="edge52" class="edge">
<title>Node56&#45;&gt;Node30</title>
<path fill="none" stroke="midnightblue" d="M1121.59,-112.32C1104.59,-103.66 1078.24,-90.24 1058.63,-80.25"/>
<polygon fill="midnightblue" stroke="midnightblue" points="1060.11,-77.08 1049.61,-75.65 1056.93,-83.31 1060.11,-77.08"/>
</g>
<!-- Node57&#45;&gt;Node5 -->
<g id="edge54" class="edge">
<title>Node57&#45;&gt;Node5</title>
<path fill="none" stroke="midnightblue" d="M1174.31,-56.32C1186.52,-47.98 1205.2,-35.21 1219.62,-25.35"/>
<polygon fill="midnightblue" stroke="midnightblue" points="1221.68,-28.19 1227.96,-19.65 1217.73,-22.41 1221.68,-28.19"/>
</g>
<!-- Node57&#45;&gt;Node31 -->
<g id="edge55" class="edge">
<title>Node57&#45;&gt;Node31</title>
<path fill="none" stroke="midnightblue" d="M1111.09,-57.65C1106.87,-57.08 1102.67,-56.52 1098.62,-56 983.92,-41.33 850.31,-26.73 770.74,-18.3"/>
<polygon fill="midnightblue" stroke="midnightblue" points="770.67,-14.77 760.36,-17.2 769.93,-21.73 770.67,-14.77"/>
</g>
<!-- Node43&#45;&gt;Node5 -->
<g id="edge57" class="edge">
<title>Node43&#45;&gt;Node5</title>
<path fill="none" stroke="midnightblue" d="M1280.24,-112.37C1273.24,-94.46 1257.01,-52.92 1247.63,-28.95"/>
<polygon fill="midnightblue" stroke="midnightblue" points="1250.88,-27.63 1243.98,-19.59 1244.36,-30.18 1250.88,-27.63"/>
</g>
<!-- Node43&#45;&gt;Node12 -->
<g id="edge58" class="edge">
<title>Node43&#45;&gt;Node12</title>
<path fill="none" stroke="midnightblue" d="M1301.45,-112.32C1319.33,-103.62 1347.09,-90.12 1367.66,-80.11"/>
<polygon fill="midnightblue" stroke="midnightblue" points="1369.37,-83.18 1376.83,-75.65 1366.3,-76.88 1369.37,-83.18"/>
</g>
<!-- Node43&#45;&gt;Node30 -->
<g id="edge59" class="edge">
<title>Node43&#45;&gt;Node30</title>
<path fill="none" stroke="midnightblue" d="M1243.85,-112.44C1200.06,-103.02 1129.6,-87.87 1082.24,-77.68"/>
<polygon fill="midnightblue" stroke="midnightblue" points="1082.72,-74.2 1072.2,-75.52 1081.24,-81.04 1082.72,-74.2"/>
</g>
<!-- Node59&#45;&gt;Node9 -->
<g id="edge62" class="edge">
<title>Node59&#45;&gt;Node9</title>
<path fill="none" stroke="midnightblue" d="M1432.85,-168.32C1422.85,-160.26 1407.73,-148.08 1395.69,-138.37"/>
<polygon fill="midnightblue" stroke="midnightblue" points="1397.56,-135.38 1387.58,-131.83 1393.17,-140.83 1397.56,-135.38"/>
</g>
<!-- Node59&#45;&gt;Node15 -->
<g id="edge63" class="edge">
<title>Node59&#45;&gt;Node15</title>
<path fill="none" stroke="midnightblue" d="M1444.44,-168.08C1445.1,-161.01 1446.04,-150.86 1446.86,-141.99"/>
<polygon fill="midnightblue" stroke="midnightblue" points="1450.37,-142.03 1447.81,-131.75 1443.4,-141.39 1450.37,-142.03"/>
</g>
<!-- Node60&#45;&gt;Node3 -->
<g id="edge65" class="edge">
<title>Node60&#45;&gt;Node3</title>
<path fill="none" stroke="midnightblue" d="M1608.03,-224.8C1610.93,-224.52 1613.8,-224.25 1616.62,-224 1850.45,-203.03 1909.48,-205.13 2143.62,-188 2303.23,-176.32 2752.94,-249.48 2861.62,-132 2872.86,-119.85 2870.89,-100.3 2867.16,-85.8"/>
<polygon fill="midnightblue" stroke="midnightblue" points="2870.41,-84.46 2864.16,-75.92 2863.72,-86.5 2870.41,-84.46"/>
</g>
<!-- Node61&#45;&gt;Node27 -->
<g id="edge67" class="edge">
<title>Node61&#45;&gt;Node27</title>
<path fill="none" stroke="midnightblue" d="M874.51,-113.33C871.17,-112.85 867.84,-112.4 864.62,-112 700.55,-91.55 505.42,-76.92 412.71,-70.55"/>
<polygon fill="midnightblue" stroke="midnightblue" points="412.94,-67.06 402.72,-69.87 412.46,-74.04 412.94,-67.06"/>
</g>
<!-- Node61&#45;&gt;Node30 -->
<g id="edge68" class="edge">
<title>Node61&#45;&gt;Node30</title>
<path fill="none" stroke="midnightblue" d="M938.61,-112.32C956.66,-103.62 984.66,-90.12 1005.42,-80.11"/>
<polygon fill="midnightblue" stroke="midnightblue" points="1007.18,-83.15 1014.67,-75.65 1004.14,-76.84 1007.18,-83.15"/>
</g>
<!-- Node63&#45;&gt;Node39 -->
<g id="edge74" class="edge">
<title>Node63&#45;&gt;Node39</title>
<path fill="none" stroke="midnightblue" d="M750.26,-224.49C757.84,-215.76 769.47,-201.58 777.62,-188 786.65,-172.95 794.58,-154.59 799.86,-141.23"/>
<polygon fill="midnightblue" stroke="midnightblue" points="803.19,-142.33 803.49,-131.74 796.65,-139.83 803.19,-142.33"/>
</g>
<!-- Node64 -->
<g id="node48" class="node">
<title>Node64</title>
<g id="a_node48"><a xlink:title=" ">
<polygon fill="white" stroke="#bfbfbf" points="716.12,-168.5 716.12,-187.5 769.12,-187.5 769.12,-168.5 716.12,-168.5"/>
<text text-anchor="middle" x="742.62" y="-175.5" font-family="FreeSans" font-size="10.00">string.h</text>
</a>
</g>
</g>
<!-- Node63&#45;&gt;Node64 -->
<g id="edge73" class="edge">
<title>Node63&#45;&gt;Node64</title>
<path fill="none" stroke="midnightblue" d="M742.62,-224.08C742.62,-217.01 742.62,-206.86 742.62,-197.99"/>
<polygon fill="midnightblue" stroke="midnightblue" points="746.12,-197.75 742.62,-187.75 739.12,-197.75 746.12,-197.75"/>
</g>
<!-- Node65&#45;&gt;Node51 -->
<g id="edge79" class="edge">
<title>Node65&#45;&gt;Node51</title>
<path fill="none" stroke="midnightblue" d="M1103.77,-224.44C1069.22,-215.16 1013.94,-200.31 976.04,-190.13"/>
<polygon fill="midnightblue" stroke="midnightblue" points="976.88,-186.73 966.32,-187.52 975.07,-193.49 976.88,-186.73"/>
</g>
<!-- Node65&#45;&gt;Node59 -->
<g id="edge76" class="edge">
<title>Node65&#45;&gt;Node59</title>
<path fill="none" stroke="midnightblue" d="M1184.42,-224.44C1238.83,-214.9 1326.79,-199.48 1384.91,-189.29"/>
<polygon fill="midnightblue" stroke="midnightblue" points="1385.8,-192.69 1395.04,-187.52 1384.59,-185.8 1385.8,-192.69"/>
</g>
<!-- Node66 -->
<g id="node50" class="node">
<title>Node66</title>
<g id="a_node50"><a xlink:href="nt-base_8h.html" target="_top" xlink:title=" ">
<polygon fill="white" stroke="red" points="1061.12,-168.5 1061.12,-187.5 1162.12,-187.5 1162.12,-168.5 1061.12,-168.5"/>
<text text-anchor="middle" x="1111.62" y="-175.5" font-family="FreeSans" font-size="10.00">magick/nt&#45;base.h</text>
</a>
</g>
</g>
<!-- Node65&#45;&gt;Node66 -->
<g id="edge77" class="edge">
<title>Node65&#45;&gt;Node66</title>
<path fill="none" stroke="midnightblue" d="M1131.65,-224.08C1128.4,-216.77 1123.7,-206.18 1119.66,-197.1"/>
<polygon fill="midnightblue" stroke="midnightblue" points="1122.77,-195.47 1115.51,-187.75 1116.37,-198.31 1122.77,-195.47"/>
</g>
<!-- Node66&#45;&gt;Node30 -->
<g id="edge78" class="edge">
<title>Node66&#45;&gt;Node30</title>
<path fill="none" stroke="midnightblue" d="M1105.42,-168.37C1092.38,-150.22 1061.92,-107.8 1044.82,-83.99"/>
<polygon fill="midnightblue" stroke="midnightblue" points="1047.46,-81.67 1038.79,-75.59 1041.78,-85.76 1047.46,-81.67"/>
</g>
</g>
</svg>
