<?xml version="1.0" encoding="UTF-8" standalone="no"?>
<!DOCTYPE svg PUBLIC "-//W3C//DTD SVG 1.1//EN"
 "http://www.w3.org/Graphics/SVG/1.1/DTD/svg11.dtd">
<!-- Generated by graphviz version 2.43.0 (0)
 -->
<!-- Title: method&#45;attribute.h Pages: 1 -->
<svg width="3788pt" height="140pt"
 viewBox="0.00 0.00 3787.50 140.00" xmlns="http://www.w3.org/2000/svg" xmlns:xlink="http://www.w3.org/1999/xlink">
<g id="graph0" class="graph" transform="scale(1 1) rotate(0) translate(4 136)">
<title>method&#45;attribute.h</title>
<polygon fill="white" stroke="transparent" points="-4,4 -4,-136 3783.5,-136 3783.5,4 -4,4"/>
<!-- Node1 -->
<g id="node1" class="node">
<title>Node1</title>
<g id="a_node1"><a xlink:title=" ">
<polygon fill="#bfbfbf" stroke="black" points="990.5,-112.5 990.5,-131.5 1099.5,-131.5 1099.5,-112.5 990.5,-112.5"/>
<text text-anchor="middle" x="1045" y="-119.5" font-family="FreeSans" font-size="10.00">method&#45;attribute.h</text>
</a>
</g>
</g>
<!-- Node2 -->
<g id="node2" class="node">
<title>Node2</title>
<g id="a_node2"><a xlink:href="MagickCore_8h.html" target="_top" xlink:title=" ">
<polygon fill="white" stroke="black" points="129.5,-56.5 129.5,-75.5 212.5,-75.5 212.5,-56.5 129.5,-56.5"/>
<text text-anchor="middle" x="171" y="-63.5" font-family="FreeSans" font-size="10.00">MagickCore.h</text>
</a>
</g>
</g>
<!-- Node1&#45;&gt;Node2 -->
<g id="edge1" class="edge">
<title>Node1&#45;&gt;Node2</title>
<path fill="none" stroke="midnightblue" d="M980.26,-117C810.11,-106.49 353.71,-78.29 212.93,-69.59"/>
<polygon fill="midnightblue" stroke="midnightblue" points="980.13,-120.5 990.33,-117.62 980.56,-113.51 980.13,-120.5"/>
</g>
<!-- Node6 -->
<g id="node6" class="node">
<title>Node6</title>
<g id="a_node6"><a xlink:href="studio_8h.html" target="_top" xlink:title=" ">
<polygon fill="white" stroke="red" points="1973,-56.5 1973,-75.5 2029,-75.5 2029,-56.5 1973,-56.5"/>
<text text-anchor="middle" x="2001" y="-63.5" font-family="FreeSans" font-size="10.00">studio.h</text>
</a>
</g>
</g>
<!-- Node1&#45;&gt;Node6 -->
<g id="edge5" class="edge">
<title>Node1&#45;&gt;Node6</title>
<path fill="none" stroke="midnightblue" d="M1109.89,-117.33C1298.73,-106.67 1842.84,-75.93 1972.85,-68.59"/>
<polygon fill="midnightblue" stroke="midnightblue" points="1109.62,-113.84 1099.83,-117.9 1110.01,-120.83 1109.62,-113.84"/>
</g>
<!-- Node3 -->
<g id="node3" class="node">
<title>Node3</title>
<g id="a_node3"><a xlink:href="ImageMagick_8h.html" target="_top" xlink:title=" ">
<polygon fill="white" stroke="black" points="0,-0.5 0,-19.5 92,-19.5 92,-0.5 0,-0.5"/>
<text text-anchor="middle" x="46" y="-7.5" font-family="FreeSans" font-size="10.00">ImageMagick.h</text>
</a>
</g>
</g>
<!-- Node2&#45;&gt;Node3 -->
<g id="edge2" class="edge">
<title>Node2&#45;&gt;Node3</title>
<path fill="none" stroke="midnightblue" d="M141.76,-52.37C118.35,-42.26 86.16,-28.35 65.71,-19.52"/>
<polygon fill="midnightblue" stroke="midnightblue" points="140.63,-55.69 151.19,-56.44 143.4,-49.26 140.63,-55.69"/>
</g>
<!-- Node4 -->
<g id="node4" class="node">
<title>Node4</title>
<g id="a_node4"><a xlink:href="api_8h.html" target="_top" xlink:title=" ">
<polygon fill="white" stroke="black" points="110.5,-0.5 110.5,-19.5 151.5,-19.5 151.5,-0.5 110.5,-0.5"/>
<text text-anchor="middle" x="131" y="-7.5" font-family="FreeSans" font-size="10.00">api.h</text>
</a>
</g>
</g>
<!-- Node2&#45;&gt;Node4 -->
<g id="edge3" class="edge">
<title>Node2&#45;&gt;Node4</title>
<path fill="none" stroke="midnightblue" d="M158.3,-47.86C151.37,-38.5 143.09,-27.33 137.48,-19.75"/>
<polygon fill="midnightblue" stroke="midnightblue" points="155.63,-50.13 164.39,-56.08 161.25,-45.96 155.63,-50.13"/>
</g>
<!-- Node5 -->
<g id="node5" class="node">
<title>Node5</title>
<g id="a_node5"><a xlink:href="image-view_8c.html" target="_top" xlink:title=" ">
<polygon fill="white" stroke="black" points="169.5,-0.5 169.5,-19.5 250.5,-19.5 250.5,-0.5 169.5,-0.5"/>
<text text-anchor="middle" x="210" y="-7.5" font-family="FreeSans" font-size="10.00">image&#45;view.c</text>
</a>
</g>
</g>
<!-- Node2&#45;&gt;Node5 -->
<g id="edge4" class="edge">
<title>Node2&#45;&gt;Node5</title>
<path fill="none" stroke="midnightblue" d="M183.38,-47.86C190.14,-38.5 198.21,-27.33 203.68,-19.75"/>
<polygon fill="midnightblue" stroke="midnightblue" points="180.46,-45.93 177.44,-56.08 186.13,-50.03 180.46,-45.93"/>
</g>
<!-- Node6&#45;&gt;Node5 -->
<g id="edge44" class="edge">
<title>Node6&#45;&gt;Node5</title>
<path fill="none" stroke="midnightblue" d="M1962.51,-64.8C1739.04,-63.54 606.44,-55.45 260,-20 256.93,-19.69 253.76,-19.29 250.59,-18.84"/>
<polygon fill="midnightblue" stroke="midnightblue" points="1962.73,-68.3 1972.75,-64.86 1962.77,-61.3 1962.73,-68.3"/>
</g>
<!-- Node7 -->
<g id="node7" class="node">
<title>Node7</title>
<g id="a_node7"><a xlink:href="accelerate_8c.html" target="_top" xlink:title=" ">
<polygon fill="white" stroke="black" points="269,-0.5 269,-19.5 345,-19.5 345,-0.5 269,-0.5"/>
<text text-anchor="middle" x="307" y="-7.5" font-family="FreeSans" font-size="10.00">accelerate.c</text>
</a>
</g>
</g>
<!-- Node6&#45;&gt;Node7 -->
<g id="edge6" class="edge">
<title>Node6&#45;&gt;Node7</title>
<path fill="none" stroke="midnightblue" d="M1962.55,-64.8C1746.37,-63.52 680.49,-55.48 354,-20 351.11,-19.69 348.13,-19.29 345.14,-18.84"/>
<polygon fill="midnightblue" stroke="midnightblue" points="1962.74,-68.3 1972.76,-64.85 1962.78,-61.3 1962.74,-68.3"/>
</g>
<!-- Node8 -->
<g id="node8" class="node">
<title>Node8</title>
<g id="a_node8"><a xlink:href="animate_8c.html" target="_top" xlink:title=" ">
<polygon fill="white" stroke="black" points="363.5,-0.5 363.5,-19.5 428.5,-19.5 428.5,-0.5 363.5,-0.5"/>
<text text-anchor="middle" x="396" y="-7.5" font-family="FreeSans" font-size="10.00">animate.c</text>
</a>
</g>
</g>
<!-- Node6&#45;&gt;Node8 -->
<g id="edge7" class="edge">
<title>Node6&#45;&gt;Node8</title>
<path fill="none" stroke="midnightblue" d="M1962.52,-64.84C1752.86,-63.85 746.46,-57.17 438,-20 435.04,-19.64 431.98,-19.18 428.92,-18.65"/>
<polygon fill="midnightblue" stroke="midnightblue" points="1962.71,-68.34 1972.72,-64.89 1962.74,-61.34 1962.71,-68.34"/>
</g>
<!-- Node9 -->
<g id="node9" class="node">
<title>Node9</title>
<g id="a_node9"><a xlink:href="annotate_8c.html" target="_top" xlink:title=" ">
<polygon fill="white" stroke="black" points="447,-0.5 447,-19.5 515,-19.5 515,-0.5 447,-0.5"/>
<text text-anchor="middle" x="481" y="-7.5" font-family="FreeSans" font-size="10.00">annotate.c</text>
</a>
</g>
</g>
<!-- Node6&#45;&gt;Node9 -->
<g id="edge8" class="edge">
<title>Node6&#45;&gt;Node9</title>
<path fill="none" stroke="midnightblue" d="M1962.73,-64.75C1760.49,-63.26 814.62,-54.57 524,-20 521.12,-19.66 518.15,-19.22 515.18,-18.72"/>
<polygon fill="midnightblue" stroke="midnightblue" points="1962.84,-68.25 1972.86,-64.82 1962.89,-61.25 1962.84,-68.25"/>
</g>
<!-- Node10 -->
<g id="node10" class="node">
<title>Node10</title>
<g id="a_node10"><a xlink:href="artifact_8c.html" target="_top" xlink:title=" ">
<polygon fill="white" stroke="black" points="533,-0.5 533,-19.5 593,-19.5 593,-0.5 533,-0.5"/>
<text text-anchor="middle" x="563" y="-7.5" font-family="FreeSans" font-size="10.00">artifact.c</text>
</a>
</g>
</g>
<!-- Node6&#45;&gt;Node10 -->
<g id="edge9" class="edge">
<title>Node6&#45;&gt;Node10</title>
<path fill="none" stroke="midnightblue" d="M1962.88,-64.78C1767.41,-63.48 876.04,-55.68 602,-20 599.11,-19.62 596.11,-19.13 593.13,-18.56"/>
<polygon fill="midnightblue" stroke="midnightblue" points="1962.93,-68.28 1972.96,-64.84 1962.98,-61.28 1962.93,-68.28"/>
</g>
<!-- Node11 -->
<g id="node11" class="node">
<title>Node11</title>
<g id="a_node11"><a xlink:href="attribute_8c.html" target="_top" xlink:title=" ">
<polygon fill="white" stroke="black" points="611.5,-0.5 611.5,-19.5 678.5,-19.5 678.5,-0.5 611.5,-0.5"/>
<text text-anchor="middle" x="645" y="-7.5" font-family="FreeSans" font-size="10.00">attribute.c</text>
</a>
</g>
</g>
<!-- Node6&#45;&gt;Node11 -->
<g id="edge10" class="edge">
<title>Node6&#45;&gt;Node11</title>
<path fill="none" stroke="midnightblue" d="M1962.57,-64.58C1773.87,-62.36 944.28,-50.98 688,-20 684.97,-19.63 681.84,-19.16 678.71,-18.63"/>
<polygon fill="midnightblue" stroke="midnightblue" points="1962.78,-68.08 1972.82,-64.69 1962.87,-61.08 1962.78,-68.08"/>
</g>
<!-- Node12 -->
<g id="node12" class="node">
<title>Node12</title>
<g id="a_node12"><a xlink:href="blob_8c.html" target="_top" xlink:title=" ">
<polygon fill="white" stroke="black" points="697,-0.5 697,-19.5 743,-19.5 743,-0.5 697,-0.5"/>
<text text-anchor="middle" x="720" y="-7.5" font-family="FreeSans" font-size="10.00">blob.c</text>
</a>
</g>
</g>
<!-- Node6&#45;&gt;Node12 -->
<g id="edge11" class="edge">
<title>Node6&#45;&gt;Node12</title>
<path fill="none" stroke="midnightblue" d="M1962.65,-64.85C1779.62,-63.93 993.85,-57.81 752,-20 749.15,-19.55 746.19,-18.94 743.28,-18.24"/>
<polygon fill="midnightblue" stroke="midnightblue" points="1962.84,-68.35 1972.86,-64.9 1962.88,-61.35 1962.84,-68.35"/>
</g>
<!-- Node13 -->
<g id="node13" class="node">
<title>Node13</title>
<g id="a_node13"><a xlink:href="cache-view_8c.html" target="_top" xlink:title=" ">
<polygon fill="white" stroke="black" points="761.5,-0.5 761.5,-19.5 840.5,-19.5 840.5,-0.5 761.5,-0.5"/>
<text text-anchor="middle" x="801" y="-7.5" font-family="FreeSans" font-size="10.00">cache&#45;view.c</text>
</a>
</g>
</g>
<!-- Node6&#45;&gt;Node13 -->
<g id="edge12" class="edge">
<title>Node6&#45;&gt;Node13</title>
<path fill="none" stroke="midnightblue" d="M1962.65,-64.26C1788.63,-60.77 1072.06,-45.13 849,-20 846.3,-19.7 843.53,-19.33 840.74,-18.92"/>
<polygon fill="midnightblue" stroke="midnightblue" points="1962.79,-67.76 1972.86,-64.46 1962.93,-60.76 1962.79,-67.76"/>
</g>
<!-- Node14 -->
<g id="node14" class="node">
<title>Node14</title>
<g id="a_node14"><a xlink:href="cache_8c.html" target="_top" xlink:title=" ">
<polygon fill="white" stroke="black" points="858.5,-0.5 858.5,-19.5 911.5,-19.5 911.5,-0.5 858.5,-0.5"/>
<text text-anchor="middle" x="885" y="-7.5" font-family="FreeSans" font-size="10.00">cache.c</text>
</a>
</g>
</g>
<!-- Node6&#45;&gt;Node14 -->
<g id="edge13" class="edge">
<title>Node6&#45;&gt;Node14</title>
<path fill="none" stroke="midnightblue" d="M1962.55,-64.48C1794.96,-62.06 1127.39,-50.63 920,-20 917.27,-19.6 914.44,-19.07 911.64,-18.46"/>
<polygon fill="midnightblue" stroke="midnightblue" points="1962.59,-67.98 1972.64,-64.63 1962.69,-60.98 1962.59,-67.98"/>
</g>
<!-- Node15 -->
<g id="node15" class="node">
<title>Node15</title>
<g id="a_node15"><a xlink:href="channel_8c.html" target="_top" xlink:title=" ">
<polygon fill="white" stroke="black" points="929.5,-0.5 929.5,-19.5 992.5,-19.5 992.5,-0.5 929.5,-0.5"/>
<text text-anchor="middle" x="961" y="-7.5" font-family="FreeSans" font-size="10.00">channel.c</text>
</a>
</g>
</g>
<!-- Node6&#45;&gt;Node15 -->
<g id="edge14" class="edge">
<title>Node6&#45;&gt;Node15</title>
<path fill="none" stroke="midnightblue" d="M1962.72,-64.15C1803.47,-60.49 1192.99,-45.08 1002,-20 998.97,-19.6 995.82,-19.09 992.69,-18.52"/>
<polygon fill="midnightblue" stroke="midnightblue" points="1962.89,-67.66 1972.97,-64.39 1963.05,-60.66 1962.89,-67.66"/>
</g>
<!-- Node16 -->
<g id="node16" class="node">
<title>Node16</title>
<g id="a_node16"><a xlink:href="cipher_8c.html" target="_top" xlink:title=" ">
<polygon fill="white" stroke="black" points="1011,-0.5 1011,-19.5 1065,-19.5 1065,-0.5 1011,-0.5"/>
<text text-anchor="middle" x="1038" y="-7.5" font-family="FreeSans" font-size="10.00">cipher.c</text>
</a>
</g>
</g>
<!-- Node6&#45;&gt;Node16 -->
<g id="edge15" class="edge">
<title>Node6&#45;&gt;Node16</title>
<path fill="none" stroke="midnightblue" d="M1962.52,-64.14C1810.26,-60.58 1249.7,-45.97 1074,-20 1071.07,-19.57 1068.03,-19 1065.01,-18.36"/>
<polygon fill="midnightblue" stroke="midnightblue" points="1962.69,-67.65 1972.76,-64.38 1962.85,-60.65 1962.69,-67.65"/>
</g>
<!-- Node17 -->
<g id="node17" class="node">
<title>Node17</title>
<g id="a_node17"><a xlink:href="client_8c.html" target="_top" xlink:title=" ">
<polygon fill="white" stroke="black" points="1083,-0.5 1083,-19.5 1135,-19.5 1135,-0.5 1083,-0.5"/>
<text text-anchor="middle" x="1109" y="-7.5" font-family="FreeSans" font-size="10.00">client.c</text>
</a>
</g>
</g>
<!-- Node6&#45;&gt;Node17 -->
<g id="edge16" class="edge">
<title>Node6&#45;&gt;Node17</title>
<path fill="none" stroke="midnightblue" d="M1962.61,-64C1817.88,-60.08 1305.27,-44.72 1144,-20 1141.15,-19.56 1138.19,-18.99 1135.26,-18.35"/>
<polygon fill="midnightblue" stroke="midnightblue" points="1962.69,-67.5 1972.78,-64.27 1962.87,-60.51 1962.69,-67.5"/>
</g>
<!-- Node18 -->
<g id="node18" class="node">
<title>Node18</title>
<g id="a_node18"><a xlink:href="coder_8c.html" target="_top" xlink:title=" ">
<polygon fill="white" stroke="black" points="1153.5,-0.5 1153.5,-19.5 1204.5,-19.5 1204.5,-0.5 1153.5,-0.5"/>
<text text-anchor="middle" x="1179" y="-7.5" font-family="FreeSans" font-size="10.00">coder.c</text>
</a>
</g>
</g>
<!-- Node6&#45;&gt;Node18 -->
<g id="edge17" class="edge">
<title>Node6&#45;&gt;Node18</title>
<path fill="none" stroke="midnightblue" d="M1962.91,-65.43C1848.67,-66.18 1499.21,-64.39 1214,-20 1211.02,-19.54 1207.93,-18.93 1204.88,-18.25"/>
<polygon fill="midnightblue" stroke="midnightblue" points="1962.94,-68.93 1972.91,-65.36 1962.88,-61.94 1962.94,-68.93"/>
</g>
<!-- Node19 -->
<g id="node19" class="node">
<title>Node19</title>
<g id="a_node19"><a xlink:href="color_8c.html" target="_top" xlink:title=" ">
<polygon fill="white" stroke="black" points="1223,-0.5 1223,-19.5 1271,-19.5 1271,-0.5 1223,-0.5"/>
<text text-anchor="middle" x="1247" y="-7.5" font-family="FreeSans" font-size="10.00">color.c</text>
</a>
</g>
</g>
<!-- Node6&#45;&gt;Node19 -->
<g id="edge18" class="edge">
<title>Node6&#45;&gt;Node19</title>
<path fill="none" stroke="midnightblue" d="M1962.85,-65.34C1854.9,-65.73 1538.34,-62.83 1280,-20 1277.07,-19.51 1274.03,-18.88 1271.02,-18.16"/>
<polygon fill="midnightblue" stroke="midnightblue" points="1962.95,-68.84 1972.93,-65.29 1962.91,-61.84 1962.95,-68.84"/>
</g>
<!-- Node20 -->
<g id="node20" class="node">
<title>Node20</title>
<g id="a_node20"><a xlink:href="colormap_8c.html" target="_top" xlink:title=" ">
<polygon fill="white" stroke="black" points="1289.5,-0.5 1289.5,-19.5 1360.5,-19.5 1360.5,-0.5 1289.5,-0.5"/>
<text text-anchor="middle" x="1325" y="-7.5" font-family="FreeSans" font-size="10.00">colormap.c</text>
</a>
</g>
</g>
<!-- Node6&#45;&gt;Node20 -->
<g id="edge19" class="edge">
<title>Node6&#45;&gt;Node20</title>
<path fill="none" stroke="midnightblue" d="M1962.74,-64.02C1864,-61.1 1592.7,-50.71 1369,-20 1366.37,-19.64 1363.67,-19.22 1360.95,-18.75"/>
<polygon fill="midnightblue" stroke="midnightblue" points="1962.74,-67.52 1972.83,-64.31 1962.94,-60.52 1962.74,-67.52"/>
</g>
<!-- Node21 -->
<g id="node21" class="node">
<title>Node21</title>
<g id="a_node21"><a xlink:href="colorspace_8c.html" target="_top" xlink:title=" ">
<polygon fill="white" stroke="black" points="1378.5,-0.5 1378.5,-19.5 1455.5,-19.5 1455.5,-0.5 1378.5,-0.5"/>
<text text-anchor="middle" x="1417" y="-7.5" font-family="FreeSans" font-size="10.00">colorspace.c</text>
</a>
</g>
</g>
<!-- Node6&#45;&gt;Node21 -->
<g id="edge20" class="edge">
<title>Node6&#45;&gt;Node21</title>
<path fill="none" stroke="midnightblue" d="M1962.95,-63.14C1874.99,-58.54 1650.85,-45.16 1465,-20 1461.98,-19.59 1458.85,-19.12 1455.72,-18.61"/>
<polygon fill="midnightblue" stroke="midnightblue" points="1962.82,-66.63 1972.99,-63.65 1963.18,-59.64 1962.82,-66.63"/>
</g>
<!-- Node22 -->
<g id="node22" class="node">
<title>Node22</title>
<g id="a_node22"><a xlink:href="compare_8c.html" target="_top" xlink:title=" ">
<polygon fill="white" stroke="black" points="1474,-0.5 1474,-19.5 1542,-19.5 1542,-0.5 1474,-0.5"/>
<text text-anchor="middle" x="1508" y="-7.5" font-family="FreeSans" font-size="10.00">compare.c</text>
</a>
</g>
</g>
<!-- Node6&#45;&gt;Node22 -->
<g id="edge21" class="edge">
<title>Node6&#45;&gt;Node22</title>
<path fill="none" stroke="midnightblue" d="M1962.68,-62.55C1884.79,-57.27 1702.56,-43.37 1551,-20 1548.14,-19.56 1545.17,-19.05 1542.21,-18.5"/>
<polygon fill="midnightblue" stroke="midnightblue" points="1962.75,-66.07 1972.96,-63.24 1963.21,-59.08 1962.75,-66.07"/>
</g>
<!-- Node23 -->
<g id="node23" class="node">
<title>Node23</title>
<g id="a_node23"><a xlink:href="composite_8c.html" target="_top" xlink:title=" ">
<polygon fill="white" stroke="black" points="1560,-0.5 1560,-19.5 1636,-19.5 1636,-0.5 1560,-0.5"/>
<text text-anchor="middle" x="1598" y="-7.5" font-family="FreeSans" font-size="10.00">composite.c</text>
</a>
</g>
</g>
<!-- Node6&#45;&gt;Node23 -->
<g id="edge22" class="edge">
<title>Node6&#45;&gt;Node23</title>
<path fill="none" stroke="midnightblue" d="M1962.52,-60.95C1897.1,-53.87 1760.11,-38.28 1645,-20 1642.13,-19.54 1639.16,-19.04 1636.18,-18.52"/>
<polygon fill="midnightblue" stroke="midnightblue" points="1962.45,-64.46 1972.76,-62.05 1963.19,-57.5 1962.45,-64.46"/>
</g>
<!-- Node24 -->
<g id="node24" class="node">
<title>Node24</title>
<g id="a_node24"><a xlink:href="compress_8c.html" target="_top" xlink:title=" ">
<polygon fill="white" stroke="black" points="1654,-0.5 1654,-19.5 1726,-19.5 1726,-0.5 1654,-0.5"/>
<text text-anchor="middle" x="1690" y="-7.5" font-family="FreeSans" font-size="10.00">compress.c</text>
</a>
</g>
</g>
<!-- Node6&#45;&gt;Node24 -->
<g id="edge23" class="edge">
<title>Node6&#45;&gt;Node24</title>
<path fill="none" stroke="midnightblue" d="M1962.95,-58.93C1911.26,-50.6 1816.01,-34.95 1735,-20 1732.18,-19.48 1729.26,-18.93 1726.33,-18.36"/>
<polygon fill="midnightblue" stroke="midnightblue" points="1962.57,-62.41 1973,-60.54 1963.68,-55.5 1962.57,-62.41"/>
</g>
<!-- Node25 -->
<g id="node25" class="node">
<title>Node25</title>
<g id="a_node25"><a xlink:href="configure_8c.html" target="_top" xlink:title=" ">
<polygon fill="white" stroke="black" points="1744,-0.5 1744,-19.5 1814,-19.5 1814,-0.5 1744,-0.5"/>
<text text-anchor="middle" x="1779" y="-7.5" font-family="FreeSans" font-size="10.00">configure.c</text>
</a>
</g>
</g>
<!-- Node6&#45;&gt;Node25 -->
<g id="edge24" class="edge">
<title>Node6&#45;&gt;Node25</title>
<path fill="none" stroke="midnightblue" d="M1963.1,-55.78C1921.36,-45.63 1854.81,-29.44 1814.2,-19.56"/>
<polygon fill="midnightblue" stroke="midnightblue" points="1962.34,-59.2 1972.88,-58.16 1963.99,-52.4 1962.34,-59.2"/>
</g>
<!-- Node26 -->
<g id="node26" class="node">
<title>Node26</title>
<g id="a_node26"><a xlink:href="constitute_8c.html" target="_top" xlink:title=" ">
<polygon fill="white" stroke="black" points="1832,-0.5 1832,-19.5 1906,-19.5 1906,-0.5 1832,-0.5"/>
<text text-anchor="middle" x="1869" y="-7.5" font-family="FreeSans" font-size="10.00">constitute.c</text>
</a>
</g>
</g>
<!-- Node6&#45;&gt;Node26 -->
<g id="edge25" class="edge">
<title>Node6&#45;&gt;Node26</title>
<path fill="none" stroke="midnightblue" d="M1970.78,-52.64C1946.01,-42.5 1911.6,-28.43 1889.82,-19.52"/>
<polygon fill="midnightblue" stroke="midnightblue" points="1969.5,-55.9 1980.08,-56.44 1972.15,-49.42 1969.5,-55.9"/>
</g>
<!-- Node27 -->
<g id="node27" class="node">
<title>Node27</title>
<g id="a_node27"><a xlink:href="decorate_8c.html" target="_top" xlink:title=" ">
<polygon fill="white" stroke="black" points="1924,-0.5 1924,-19.5 1992,-19.5 1992,-0.5 1924,-0.5"/>
<text text-anchor="middle" x="1958" y="-7.5" font-family="FreeSans" font-size="10.00">decorate.c</text>
</a>
</g>
</g>
<!-- Node6&#45;&gt;Node27 -->
<g id="edge26" class="edge">
<title>Node6&#45;&gt;Node27</title>
<path fill="none" stroke="midnightblue" d="M1987.58,-48.14C1980.09,-38.74 1971.06,-27.4 1964.97,-19.75"/>
<polygon fill="midnightblue" stroke="midnightblue" points="1984.93,-50.44 1993.9,-56.08 1990.41,-46.08 1984.93,-50.44"/>
</g>
<!-- Node28 -->
<g id="node28" class="node">
<title>Node28</title>
<g id="a_node28"><a xlink:href="delegate_8c.html" target="_top" xlink:title=" ">
<polygon fill="white" stroke="black" points="2010,-0.5 2010,-19.5 2078,-19.5 2078,-0.5 2010,-0.5"/>
<text text-anchor="middle" x="2044" y="-7.5" font-family="FreeSans" font-size="10.00">delegate.c</text>
</a>
</g>
</g>
<!-- Node6&#45;&gt;Node28 -->
<g id="edge27" class="edge">
<title>Node6&#45;&gt;Node28</title>
<path fill="none" stroke="midnightblue" d="M2014.42,-48.14C2021.91,-38.74 2030.94,-27.4 2037.03,-19.75"/>
<polygon fill="midnightblue" stroke="midnightblue" points="2011.59,-46.08 2008.1,-56.08 2017.07,-50.44 2011.59,-46.08"/>
</g>
<!-- Node29 -->
<g id="node29" class="node">
<title>Node29</title>
<g id="a_node29"><a xlink:href="deprecate_8c.html" target="_top" xlink:title=" ">
<polygon fill="white" stroke="black" points="2096,-0.5 2096,-19.5 2170,-19.5 2170,-0.5 2096,-0.5"/>
<text text-anchor="middle" x="2133" y="-7.5" font-family="FreeSans" font-size="10.00">deprecate.c</text>
</a>
</g>
</g>
<!-- Node6&#45;&gt;Node29 -->
<g id="edge28" class="edge">
<title>Node6&#45;&gt;Node29</title>
<path fill="none" stroke="midnightblue" d="M2031.22,-52.64C2055.99,-42.5 2090.4,-28.43 2112.18,-19.52"/>
<polygon fill="midnightblue" stroke="midnightblue" points="2029.85,-49.42 2021.92,-56.44 2032.5,-55.9 2029.85,-49.42"/>
</g>
<!-- Node30 -->
<g id="node30" class="node">
<title>Node30</title>
<g id="a_node30"><a xlink:href="display_8c.html" target="_top" xlink:title=" ">
<polygon fill="white" stroke="black" points="2188.5,-0.5 2188.5,-19.5 2247.5,-19.5 2247.5,-0.5 2188.5,-0.5"/>
<text text-anchor="middle" x="2218" y="-7.5" font-family="FreeSans" font-size="10.00">display.c</text>
</a>
</g>
</g>
<!-- Node6&#45;&gt;Node30 -->
<g id="edge29" class="edge">
<title>Node6&#45;&gt;Node30</title>
<path fill="none" stroke="midnightblue" d="M2039.34,-55.46C2081.85,-44.88 2149.52,-28.04 2188.23,-18.41"/>
<polygon fill="midnightblue" stroke="midnightblue" points="2038.23,-52.13 2029.37,-57.94 2039.92,-58.92 2038.23,-52.13"/>
</g>
<!-- Node31 -->
<g id="node31" class="node">
<title>Node31</title>
<g id="a_node31"><a xlink:href="distort_8c.html" target="_top" xlink:title=" ">
<polygon fill="white" stroke="black" points="2266,-0.5 2266,-19.5 2322,-19.5 2322,-0.5 2266,-0.5"/>
<text text-anchor="middle" x="2294" y="-7.5" font-family="FreeSans" font-size="10.00">distort.c</text>
</a>
</g>
</g>
<!-- Node6&#45;&gt;Node31 -->
<g id="edge30" class="edge">
<title>Node6&#45;&gt;Node31</title>
<path fill="none" stroke="midnightblue" d="M2039.22,-59.07C2089.38,-51.11 2180.1,-36.09 2257,-20 2259.85,-19.4 2262.81,-18.75 2265.76,-18.07"/>
<polygon fill="midnightblue" stroke="midnightblue" points="2038.48,-55.65 2029.15,-60.66 2039.57,-62.56 2038.48,-55.65"/>
</g>
<!-- Node32 -->
<g id="node32" class="node">
<title>Node32</title>
<g id="a_node32"><a xlink:href="distribute-cache_8c.html" target="_top" xlink:title=" ">
<polygon fill="white" stroke="black" points="2340,-0.5 2340,-19.5 2444,-19.5 2444,-0.5 2340,-0.5"/>
<text text-anchor="middle" x="2392" y="-7.5" font-family="FreeSans" font-size="10.00">distribute&#45;cache.c</text>
</a>
</g>
</g>
<!-- Node6&#45;&gt;Node32 -->
<g id="edge31" class="edge">
<title>Node6&#45;&gt;Node32</title>
<path fill="none" stroke="midnightblue" d="M2039.29,-59.92C2100.82,-51.72 2225.47,-34.98 2331,-20 2333.86,-19.59 2336.8,-19.17 2339.76,-18.75"/>
<polygon fill="midnightblue" stroke="midnightblue" points="2038.72,-56.46 2029.27,-61.25 2039.64,-63.4 2038.72,-56.46"/>
</g>
<!-- Node33 -->
<g id="node33" class="node">
<title>Node33</title>
<g id="a_node33"><a xlink:href="draw_8c.html" target="_top" xlink:title=" ">
<polygon fill="white" stroke="black" points="2462,-0.5 2462,-19.5 2510,-19.5 2510,-0.5 2462,-0.5"/>
<text text-anchor="middle" x="2486" y="-7.5" font-family="FreeSans" font-size="10.00">draw.c</text>
</a>
</g>
</g>
<!-- Node6&#45;&gt;Node33 -->
<g id="edge32" class="edge">
<title>Node6&#45;&gt;Node33</title>
<path fill="none" stroke="midnightblue" d="M2039.34,-63.35C2117.64,-59.49 2301.35,-48.02 2453,-20 2455.92,-19.46 2458.96,-18.79 2461.96,-18.06"/>
<polygon fill="midnightblue" stroke="midnightblue" points="2038.82,-59.87 2029,-63.84 2039.16,-66.86 2038.82,-59.87"/>
</g>
<!-- Node34 -->
<g id="node34" class="node">
<title>Node34</title>
<g id="a_node34"><a xlink:href="effect_8c.html" target="_top" xlink:title=" ">
<polygon fill="white" stroke="black" points="2528.5,-0.5 2528.5,-19.5 2581.5,-19.5 2581.5,-0.5 2528.5,-0.5"/>
<text text-anchor="middle" x="2555" y="-7.5" font-family="FreeSans" font-size="10.00">effect.c</text>
</a>
</g>
</g>
<!-- Node6&#45;&gt;Node34 -->
<g id="edge33" class="edge">
<title>Node6&#45;&gt;Node34</title>
<path fill="none" stroke="midnightblue" d="M2039.38,-63.74C2125.64,-60.47 2341.23,-49.75 2519,-20 2522.05,-19.49 2525.22,-18.85 2528.36,-18.16"/>
<polygon fill="midnightblue" stroke="midnightblue" points="2039.14,-60.25 2029.27,-64.12 2039.39,-67.25 2039.14,-60.25"/>
</g>
<!-- Node35 -->
<g id="node35" class="node">
<title>Node35</title>
<g id="a_node35"><a xlink:href="enhance_8c.html" target="_top" xlink:title=" ">
<polygon fill="white" stroke="black" points="2600,-0.5 2600,-19.5 2666,-19.5 2666,-0.5 2600,-0.5"/>
<text text-anchor="middle" x="2633" y="-7.5" font-family="FreeSans" font-size="10.00">enhance.c</text>
</a>
</g>
</g>
<!-- Node6&#45;&gt;Node35 -->
<g id="edge34" class="edge">
<title>Node6&#45;&gt;Node35</title>
<path fill="none" stroke="midnightblue" d="M2039.28,-63.87C2133.54,-60.7 2384.19,-49.91 2591,-20 2593.8,-19.59 2596.7,-19.11 2599.6,-18.58"/>
<polygon fill="midnightblue" stroke="midnightblue" points="2038.97,-60.38 2029.09,-64.2 2039.2,-67.37 2038.97,-60.38"/>
</g>
<!-- Node36 -->
<g id="node36" class="node">
<title>Node36</title>
<g id="a_node36"><a xlink:href="exception_8c.html" target="_top" xlink:title=" ">
<polygon fill="white" stroke="black" points="2684.5,-0.5 2684.5,-19.5 2757.5,-19.5 2757.5,-0.5 2684.5,-0.5"/>
<text text-anchor="middle" x="2721" y="-7.5" font-family="FreeSans" font-size="10.00">exception.c</text>
</a>
</g>
</g>
<!-- Node6&#45;&gt;Node36 -->
<g id="edge35" class="edge">
<title>Node6&#45;&gt;Node36</title>
<path fill="none" stroke="midnightblue" d="M2039.28,-64.14C2142.38,-61.46 2434.37,-51.44 2675,-20 2678.07,-19.6 2681.24,-19.12 2684.41,-18.59"/>
<polygon fill="midnightblue" stroke="midnightblue" points="2038.96,-60.65 2029.05,-64.4 2039.14,-67.64 2038.96,-60.65"/>
</g>
<!-- Node37 -->
<g id="node37" class="node">
<title>Node37</title>
<g id="a_node37"><a xlink:href="feature_8c.html" target="_top" xlink:title=" ">
<polygon fill="white" stroke="black" points="2776,-0.5 2776,-19.5 2836,-19.5 2836,-0.5 2776,-0.5"/>
<text text-anchor="middle" x="2806" y="-7.5" font-family="FreeSans" font-size="10.00">feature.c</text>
</a>
</g>
</g>
<!-- Node6&#45;&gt;Node37 -->
<g id="edge36" class="edge">
<title>Node6&#45;&gt;Node37</title>
<path fill="none" stroke="midnightblue" d="M2039.52,-65.02C2152.11,-64.58 2490.12,-59.79 2767,-20 2769.89,-19.58 2772.88,-19.06 2775.86,-18.48"/>
<polygon fill="midnightblue" stroke="midnightblue" points="2039.33,-61.52 2029.34,-65.05 2039.35,-68.52 2039.33,-61.52"/>
</g>
<!-- Node38 -->
<g id="node38" class="node">
<title>Node38</title>
<g id="a_node38"><a xlink:href="fourier_8c.html" target="_top" xlink:title=" ">
<polygon fill="white" stroke="black" points="2854,-0.5 2854,-19.5 2910,-19.5 2910,-0.5 2854,-0.5"/>
<text text-anchor="middle" x="2882" y="-7.5" font-family="FreeSans" font-size="10.00">fourier.c</text>
</a>
</g>
</g>
<!-- Node6&#45;&gt;Node38 -->
<g id="edge37" class="edge">
<title>Node6&#45;&gt;Node38</title>
<path fill="none" stroke="midnightblue" d="M2039.37,-65.47C2159.18,-66.41 2536.73,-65.31 2845,-20 2847.88,-19.58 2850.86,-19.03 2853.82,-18.42"/>
<polygon fill="midnightblue" stroke="midnightblue" points="2039.27,-61.97 2029.24,-65.38 2039.21,-68.97 2039.27,-61.97"/>
</g>
<!-- Node39 -->
<g id="node39" class="node">
<title>Node39</title>
<g id="a_node39"><a xlink:href="fx_8c.html" target="_top" xlink:title=" ">
<polygon fill="white" stroke="black" points="2928.5,-0.5 2928.5,-19.5 2963.5,-19.5 2963.5,-0.5 2928.5,-0.5"/>
<text text-anchor="middle" x="2946" y="-7.5" font-family="FreeSans" font-size="10.00">fx.c</text>
</a>
</g>
</g>
<!-- Node6&#45;&gt;Node39 -->
<g id="edge38" class="edge">
<title>Node6&#45;&gt;Node39</title>
<path fill="none" stroke="midnightblue" d="M2039.17,-64.51C2190.2,-62.37 2746.12,-52.42 2919,-20 2922.11,-19.42 2925.35,-18.56 2928.46,-17.61"/>
<polygon fill="midnightblue" stroke="midnightblue" points="2038.96,-61.02 2029.01,-64.65 2039.06,-68.02 2038.96,-61.02"/>
</g>
<!-- Node40 -->
<g id="node40" class="node">
<title>Node40</title>
<g id="a_node40"><a xlink:href="gem_8c.html" target="_top" xlink:title=" ">
<polygon fill="white" stroke="black" points="2981.5,-0.5 2981.5,-19.5 3028.5,-19.5 3028.5,-0.5 2981.5,-0.5"/>
<text text-anchor="middle" x="3005" y="-7.5" font-family="FreeSans" font-size="10.00">gem.c</text>
</a>
</g>
</g>
<!-- Node6&#45;&gt;Node40 -->
<g id="edge39" class="edge">
<title>Node6&#45;&gt;Node40</title>
<path fill="none" stroke="midnightblue" d="M2039.32,-64.39C2196.02,-61.72 2788.38,-49.83 2973,-20 2975.73,-19.56 2978.57,-18.97 2981.37,-18.29"/>
<polygon fill="midnightblue" stroke="midnightblue" points="2039.16,-60.89 2029.22,-64.56 2039.28,-67.89 2039.16,-60.89"/>
</g>
<!-- Node41 -->
<g id="node41" class="node">
<title>Node41</title>
<g id="a_node41"><a xlink:href="geometry_8c.html" target="_top" xlink:title=" ">
<polygon fill="white" stroke="black" points="3046.5,-0.5 3046.5,-19.5 3117.5,-19.5 3117.5,-0.5 3046.5,-0.5"/>
<text text-anchor="middle" x="3082" y="-7.5" font-family="FreeSans" font-size="10.00">geometry.c</text>
</a>
</g>
</g>
<!-- Node6&#45;&gt;Node41 -->
<g id="edge40" class="edge">
<title>Node6&#45;&gt;Node41</title>
<path fill="none" stroke="midnightblue" d="M2039.54,-65.52C2176.25,-66.9 2650.55,-67.73 3038,-20 3040.63,-19.68 3043.34,-19.28 3046.06,-18.83"/>
<polygon fill="midnightblue" stroke="midnightblue" points="2039.22,-62.02 2029.18,-65.41 2039.14,-69.02 2039.22,-62.02"/>
</g>
<!-- Node42 -->
<g id="node42" class="node">
<title>Node42</title>
<g id="a_node42"><a xlink:href="hashmap_8c.html" target="_top" xlink:title=" ">
<polygon fill="white" stroke="black" points="3136,-0.5 3136,-19.5 3206,-19.5 3206,-0.5 3136,-0.5"/>
<text text-anchor="middle" x="3171" y="-7.5" font-family="FreeSans" font-size="10.00">hashmap.c</text>
</a>
</g>
</g>
<!-- Node6&#45;&gt;Node42 -->
<g id="edge41" class="edge">
<title>Node6&#45;&gt;Node42</title>
<path fill="none" stroke="midnightblue" d="M2039.05,-64.31C2210.16,-61.07 2909.42,-46.42 3127,-20 3129.79,-19.66 3132.66,-19.24 3135.54,-18.77"/>
<polygon fill="midnightblue" stroke="midnightblue" points="2038.94,-60.81 2029.01,-64.5 2039.07,-67.81 2038.94,-60.81"/>
</g>
<!-- Node43 -->
<g id="node43" class="node">
<title>Node43</title>
<g id="a_node43"><a xlink:href="histogram_8c.html" target="_top" xlink:title=" ">
<polygon fill="white" stroke="black" points="3224,-0.5 3224,-19.5 3298,-19.5 3298,-0.5 3224,-0.5"/>
<text text-anchor="middle" x="3261" y="-7.5" font-family="FreeSans" font-size="10.00">histogram.c</text>
</a>
</g>
</g>
<!-- Node6&#45;&gt;Node43 -->
<g id="edge42" class="edge">
<title>Node6&#45;&gt;Node43</title>
<path fill="none" stroke="midnightblue" d="M2039.1,-64.39C2218.36,-61.4 2979.02,-47.29 3215,-20 3217.91,-19.66 3220.91,-19.24 3223.92,-18.77"/>
<polygon fill="midnightblue" stroke="midnightblue" points="2039.02,-60.89 2029.08,-64.56 2039.14,-67.89 2039.02,-60.89"/>
</g>
<!-- Node44 -->
<g id="node44" class="node">
<title>Node44</title>
<g id="a_node44"><a xlink:href="identify_8c.html" target="_top" xlink:title=" ">
<polygon fill="white" stroke="black" points="3316,-0.5 3316,-19.5 3376,-19.5 3376,-0.5 3316,-0.5"/>
<text text-anchor="middle" x="3346" y="-7.5" font-family="FreeSans" font-size="10.00">identify.c</text>
</a>
</g>
</g>
<!-- Node6&#45;&gt;Node44 -->
<g id="edge43" class="edge">
<title>Node6&#45;&gt;Node44</title>
<path fill="none" stroke="midnightblue" d="M2039.24,-64.67C2226.99,-62.93 3052.42,-53.44 3307,-20 3309.89,-19.62 3312.89,-19.12 3315.87,-18.56"/>
<polygon fill="midnightblue" stroke="midnightblue" points="2039,-61.18 2029.04,-64.77 2039.07,-68.18 2039,-61.18"/>
</g>
<!-- Node45 -->
<g id="node45" class="node">
<title>Node45</title>
<g id="a_node45"><a xlink:href="image_8c.html" target="_top" xlink:title=" ">
<polygon fill="white" stroke="black" points="3394,-0.5 3394,-19.5 3450,-19.5 3450,-0.5 3394,-0.5"/>
<text text-anchor="middle" x="3422" y="-7.5" font-family="FreeSans" font-size="10.00">image.c</text>
</a>
</g>
</g>
<!-- Node6&#45;&gt;Node45 -->
<g id="edge45" class="edge">
<title>Node6&#45;&gt;Node45</title>
<path fill="none" stroke="midnightblue" d="M2039.03,-64.82C2233.09,-63.76 3114.27,-56.93 3385,-20 3387.88,-19.61 3390.87,-19.08 3393.83,-18.49"/>
<polygon fill="midnightblue" stroke="midnightblue" points="2039.01,-61.32 2029.03,-64.88 2039.04,-68.32 2039.01,-61.32"/>
</g>
<!-- Node46 -->
<g id="node46" class="node">
<title>Node46</title>
<g id="a_node46"><a xlink:href="layer_8c.html" target="_top" xlink:title=" ">
<polygon fill="white" stroke="black" points="3468.5,-0.5 3468.5,-19.5 3517.5,-19.5 3517.5,-0.5 3468.5,-0.5"/>
<text text-anchor="middle" x="3493" y="-7.5" font-family="FreeSans" font-size="10.00">layer.c</text>
</a>
</g>
</g>
<!-- Node6&#45;&gt;Node46 -->
<g id="edge46" class="edge">
<title>Node6&#45;&gt;Node46</title>
<path fill="none" stroke="midnightblue" d="M2039.14,-65C2239.64,-64.81 3173.27,-61.67 3459,-20 3462.02,-19.56 3465.16,-18.95 3468.25,-18.25"/>
<polygon fill="midnightblue" stroke="midnightblue" points="2039.09,-61.5 2029.09,-65.01 2039.09,-68.5 2039.09,-61.5"/>
</g>
<!-- Node47 -->
<g id="node47" class="node">
<title>Node47</title>
<g id="a_node47"><a xlink:href="list_8c.html" target="_top" xlink:title=" ">
<polygon fill="white" stroke="black" points="3536,-0.5 3536,-19.5 3576,-19.5 3576,-0.5 3536,-0.5"/>
<text text-anchor="middle" x="3556" y="-7.5" font-family="FreeSans" font-size="10.00">list.c</text>
</a>
</g>
</g>
<!-- Node6&#45;&gt;Node47 -->
<g id="edge47" class="edge">
<title>Node6&#45;&gt;Node47</title>
<path fill="none" stroke="midnightblue" d="M2039.3,-65.28C2245.79,-66.55 3228.11,-69.83 3527,-20 3529.91,-19.51 3532.94,-18.81 3535.89,-18.01"/>
<polygon fill="midnightblue" stroke="midnightblue" points="2039.26,-61.77 2029.24,-65.21 2039.22,-68.77 2039.26,-61.77"/>
</g>
<!-- Node48 -->
<g id="node48" class="node">
<title>Node48</title>
<g id="a_node48"><a xlink:href="locale_8c.html" target="_top" xlink:title=" ">
<polygon fill="white" stroke="black" points="3594,-0.5 3594,-19.5 3648,-19.5 3648,-0.5 3594,-0.5"/>
<text text-anchor="middle" x="3621" y="-7.5" font-family="FreeSans" font-size="10.00">locale.c</text>
</a>
</g>
</g>
<!-- Node6&#45;&gt;Node48 -->
<g id="edge48" class="edge">
<title>Node6&#45;&gt;Node48</title>
<path fill="none" stroke="midnightblue" d="M2039.34,-65.04C2250.42,-65.07 3272.74,-62.95 3585,-20 3587.94,-19.6 3590.98,-19.05 3594,-18.42"/>
<polygon fill="midnightblue" stroke="midnightblue" points="2039.07,-61.54 2029.07,-65.03 2039.07,-68.54 2039.07,-61.54"/>
</g>
<!-- Node49 -->
<g id="node49" class="node">
<title>Node49</title>
<g id="a_node49"><a xlink:href="log_8c.html" target="_top" xlink:title=" ">
<polygon fill="white" stroke="black" points="3666,-0.5 3666,-19.5 3706,-19.5 3706,-0.5 3666,-0.5"/>
<text text-anchor="middle" x="3686" y="-7.5" font-family="FreeSans" font-size="10.00">log.c</text>
</a>
</g>
</g>
<!-- Node6&#45;&gt;Node49 -->
<g id="edge49" class="edge">
<title>Node6&#45;&gt;Node49</title>
<path fill="none" stroke="midnightblue" d="M2039.26,-64.59C2271.97,-61.99 3492.82,-47.18 3657,-20 3659.91,-19.52 3662.94,-18.82 3665.89,-18.01"/>
<polygon fill="midnightblue" stroke="midnightblue" points="2039.2,-61.09 2029.24,-64.7 2039.27,-68.09 2039.2,-61.09"/>
</g>
<!-- Node50 -->
<g id="node50" class="node">
<title>Node50</title>
<g id="a_node50"><a xlink:href="magic_8c.html" target="_top" xlink:title=" ">
<polygon fill="white" stroke="black" points="3724.5,-0.5 3724.5,-19.5 3779.5,-19.5 3779.5,-0.5 3724.5,-0.5"/>
<text text-anchor="middle" x="3752" y="-7.5" font-family="FreeSans" font-size="10.00">magic.c</text>
</a>
</g>
</g>
<!-- Node6&#45;&gt;Node50 -->
<g id="edge50" class="edge">
<title>Node6&#45;&gt;Node50</title>
<path fill="none" stroke="midnightblue" d="M2039.28,-65.1C2260.33,-65.51 3375.34,-65.25 3715,-20 3718.01,-19.6 3721.14,-19.05 3724.24,-18.42"/>
<polygon fill="midnightblue" stroke="midnightblue" points="2039.16,-61.6 2029.15,-65.08 2039.14,-68.6 2039.16,-61.6"/>
</g>
</g>
</svg>
