<?xml version="1.0" encoding="UTF-8" standalone="no"?>
<!DOCTYPE svg PUBLIC "-//W3C//DTD SVG 1.1//EN"
 "http://www.w3.org/Graphics/SVG/1.1/DTD/svg11.dtd">
<!-- Generated by graphviz version 2.43.0 (0)
 -->
<!-- Title: mime.c Pages: 1 -->
<svg width="3491pt" height="364pt"
 viewBox="0.00 0.00 3491.00 364.00" xmlns="http://www.w3.org/2000/svg" xmlns:xlink="http://www.w3.org/1999/xlink">
<g id="graph0" class="graph" transform="scale(1 1) rotate(0) translate(4 360)">
<title>mime.c</title>
<polygon fill="white" stroke="transparent" points="-4,4 -4,-360 3487,-360 3487,4 -4,4"/>
<!-- Node1 -->
<g id="node1" class="node">
<title>Node1</title>
<g id="a_node1"><a xlink:title=" ">
<polygon fill="#bfbfbf" stroke="black" points="2323,-336.5 2323,-355.5 2376,-355.5 2376,-336.5 2323,-336.5"/>
<text text-anchor="middle" x="2349.5" y="-343.5" font-family="FreeSans" font-size="10.00">mime.c</text>
</a>
</g>
</g>
<!-- Node2 -->
<g id="node2" class="node">
<title>Node2</title>
<g id="a_node2"><a xlink:href="studio_8h.html" target="_top" xlink:title=" ">
<polygon fill="white" stroke="black" points="821,-280.5 821,-299.5 916,-299.5 916,-280.5 821,-280.5"/>
<text text-anchor="middle" x="868.5" y="-287.5" font-family="FreeSans" font-size="10.00">magick/studio.h</text>
</a>
</g>
</g>
<!-- Node1&#45;&gt;Node2 -->
<g id="edge1" class="edge">
<title>Node1&#45;&gt;Node2</title>
<path fill="none" stroke="midnightblue" d="M2322.85,-344.03C2148.94,-337.69 1175.1,-302.18 926.35,-293.11"/>
<polygon fill="midnightblue" stroke="midnightblue" points="926.21,-289.6 916.09,-292.74 925.95,-296.6 926.21,-289.6"/>
</g>
<!-- Node24 -->
<g id="node23" class="node">
<title>Node24</title>
<g id="a_node23"><a xlink:href="blob_8h.html" target="_top" xlink:title=" ">
<polygon fill="white" stroke="black" points="1779.5,-224.5 1779.5,-243.5 1865.5,-243.5 1865.5,-224.5 1779.5,-224.5"/>
<text text-anchor="middle" x="1822.5" y="-231.5" font-family="FreeSans" font-size="10.00">magick/blob.h</text>
</a>
</g>
</g>
<!-- Node1&#45;&gt;Node24 -->
<g id="edge23" class="edge">
<title>Node1&#45;&gt;Node24</title>
<path fill="none" stroke="midnightblue" d="M2322.91,-344.61C2260.53,-343.11 2100.41,-335.77 1972.5,-300 1951.81,-294.21 1948.17,-288.64 1928.5,-280 1903.06,-268.82 1874,-256.52 1852.75,-247.6"/>
<polygon fill="midnightblue" stroke="midnightblue" points="1853.86,-244.27 1843.28,-243.64 1851.16,-250.73 1853.86,-244.27"/>
</g>
<!-- Node31 -->
<g id="node29" class="node">
<title>Node31</title>
<g id="a_node29"><a xlink:href="semaphore_8h.html" target="_top" xlink:title=" ">
<polygon fill="white" stroke="black" points="2060,-56.5 2060,-75.5 2179,-75.5 2179,-56.5 2060,-56.5"/>
<text text-anchor="middle" x="2119.5" y="-63.5" font-family="FreeSans" font-size="10.00">magick/semaphore.h</text>
</a>
</g>
</g>
<!-- Node1&#45;&gt;Node31 -->
<g id="edge73" class="edge">
<title>Node1&#45;&gt;Node31</title>
<path fill="none" stroke="midnightblue" d="M2322.92,-343.11C2273.52,-338.51 2175.19,-323.74 2205.5,-280 2231.46,-242.55 2262.13,-266.94 2301.5,-244 2340.41,-221.33 2393.65,-205.35 2368.5,-168 2328.71,-108.93 2247.83,-84.39 2189.01,-74.21"/>
<polygon fill="midnightblue" stroke="midnightblue" points="2189.47,-70.74 2179.04,-72.58 2188.34,-77.65 2189.47,-70.74"/>
</g>
<!-- Node50 -->
<g id="node31" class="node">
<title>Node50</title>
<g id="a_node31"><a xlink:href="client_8h.html" target="_top" xlink:title=" ">
<polygon fill="white" stroke="black" points="1794.5,-280.5 1794.5,-299.5 1886.5,-299.5 1886.5,-280.5 1794.5,-280.5"/>
<text text-anchor="middle" x="1840.5" y="-287.5" font-family="FreeSans" font-size="10.00">magick/client.h</text>
</a>
</g>
</g>
<!-- Node1&#45;&gt;Node50 -->
<g id="edge36" class="edge">
<title>Node1&#45;&gt;Node50</title>
<path fill="none" stroke="midnightblue" d="M2322.88,-342.79C2253.32,-336.92 2060.44,-320 1900.5,-300 1899.24,-299.84 1897.96,-299.68 1896.67,-299.51"/>
<polygon fill="midnightblue" stroke="midnightblue" points="1897.04,-296.03 1886.66,-298.16 1896.1,-302.97 1897.04,-296.03"/>
</g>
<!-- Node51 -->
<g id="node32" class="node">
<title>Node51</title>
<g id="a_node32"><a xlink:href="configure_8h.html" target="_top" xlink:title=" ">
<polygon fill="white" stroke="black" points="1617.5,-280.5 1617.5,-299.5 1727.5,-299.5 1727.5,-280.5 1617.5,-280.5"/>
<text text-anchor="middle" x="1672.5" y="-287.5" font-family="FreeSans" font-size="10.00">magick/configure.h</text>
</a>
</g>
</g>
<!-- Node1&#45;&gt;Node51 -->
<g id="edge37" class="edge">
<title>Node1&#45;&gt;Node51</title>
<path fill="none" stroke="midnightblue" d="M2322.96,-342.88C2225.08,-335.08 1882.5,-307.75 1737.8,-296.21"/>
<polygon fill="midnightblue" stroke="midnightblue" points="1737.97,-292.71 1727.73,-295.41 1737.42,-299.69 1737.97,-292.71"/>
</g>
<!-- Node40 -->
<g id="node33" class="node">
<title>Node40</title>
<g id="a_node33"><a xlink:href="hashmap_8h.html" target="_top" xlink:title=" ">
<polygon fill="white" stroke="black" points="1537.5,-224.5 1537.5,-243.5 1647.5,-243.5 1647.5,-224.5 1537.5,-224.5"/>
<text text-anchor="middle" x="1592.5" y="-231.5" font-family="FreeSans" font-size="10.00">magick/hashmap.h</text>
</a>
</g>
</g>
<!-- Node1&#45;&gt;Node40 -->
<g id="edge64" class="edge">
<title>Node1&#45;&gt;Node40</title>
<path fill="none" stroke="midnightblue" d="M2322.72,-343.66C2242.03,-339.4 2002.23,-324.9 1928.5,-300 1912.25,-294.51 1911.63,-285.82 1895.5,-280 1884.41,-276 1743.36,-255.96 1657.67,-244.01"/>
<polygon fill="midnightblue" stroke="midnightblue" points="1657.89,-240.51 1647.51,-242.6 1656.93,-247.44 1657.89,-240.51"/>
</g>
<!-- Node52 -->
<g id="node34" class="node">
<title>Node52</title>
<g id="a_node34"><a xlink:href="deprecate_8h.html" target="_top" xlink:title=" ">
<polygon fill="white" stroke="black" points="1981,-280.5 1981,-299.5 2094,-299.5 2094,-280.5 1981,-280.5"/>
<text text-anchor="middle" x="2037.5" y="-287.5" font-family="FreeSans" font-size="10.00">magick/deprecate.h</text>
</a>
</g>
</g>
<!-- Node1&#45;&gt;Node52 -->
<g id="edge39" class="edge">
<title>Node1&#45;&gt;Node52</title>
<path fill="none" stroke="midnightblue" d="M2322.9,-340.4C2273.14,-331.78 2164.88,-313.05 2096.93,-301.29"/>
<polygon fill="midnightblue" stroke="midnightblue" points="2097.24,-297.79 2086.79,-299.53 2096.05,-304.69 2097.24,-297.79"/>
</g>
<!-- Node30 -->
<g id="node38" class="node">
<title>Node30</title>
<g id="a_node38"><a xlink:href="exception_8h.html" target="_top" xlink:title=" ">
<polygon fill="white" stroke="black" points="2454,-168.5 2454,-187.5 2567,-187.5 2567,-168.5 2454,-168.5"/>
<text text-anchor="middle" x="2510.5" y="-175.5" font-family="FreeSans" font-size="10.00">magick/exception.h</text>
</a>
</g>
</g>
<!-- Node1&#45;&gt;Node30 -->
<g id="edge53" class="edge">
<title>Node1&#45;&gt;Node30</title>
<path fill="none" stroke="midnightblue" d="M2349.86,-336.4C2350.86,-322.9 2354.59,-296.57 2368.5,-280 2391.76,-252.3 2411.78,-264.63 2441.5,-244 2462.07,-229.72 2482.56,-209.46 2495.8,-195.36"/>
<polygon fill="midnightblue" stroke="midnightblue" points="2498.5,-197.6 2502.7,-187.87 2493.35,-192.85 2498.5,-197.6"/>
</g>
<!-- Node57 -->
<g id="node39" class="node">
<title>Node57</title>
<g id="a_node39"><a xlink:href="exception-private_8h.html" target="_top" xlink:title=" ">
<polygon fill="white" stroke="red" points="3169,-280.5 3169,-299.5 3320,-299.5 3320,-280.5 3169,-280.5"/>
<text text-anchor="middle" x="3244.5" y="-287.5" font-family="FreeSans" font-size="10.00">magick/exception&#45;private.h</text>
</a>
</g>
</g>
<!-- Node1&#45;&gt;Node57 -->
<g id="edge56" class="edge">
<title>Node1&#45;&gt;Node57</title>
<path fill="none" stroke="midnightblue" d="M2376.1,-344.01C2476.76,-340.14 2844.05,-325.13 3158.74,-300.02"/>
<polygon fill="midnightblue" stroke="midnightblue" points="3159.29,-303.48 3168.97,-299.19 3158.73,-296.51 3159.29,-303.48"/>
</g>
<!-- Node43 -->
<g id="node41" class="node">
<title>Node43</title>
<g id="a_node41"><a xlink:href="string___8h.html" target="_top" xlink:title=" ">
<polygon fill="white" stroke="black" points="2542.5,-224.5 2542.5,-243.5 2640.5,-243.5 2640.5,-224.5 2542.5,-224.5"/>
<text text-anchor="middle" x="2591.5" y="-231.5" font-family="FreeSans" font-size="10.00">magick/string_.h</text>
</a>
</g>
</g>
<!-- Node1&#45;&gt;Node43 -->
<g id="edge74" class="edge">
<title>Node1&#45;&gt;Node43</title>
<path fill="none" stroke="midnightblue" d="M2376.21,-344.29C2467.04,-341.61 2759.84,-330.64 2787.5,-300 2793.46,-293.4 2793.04,-286.95 2787.5,-280 2778.85,-269.14 2705.25,-254.4 2650.77,-244.79"/>
<polygon fill="midnightblue" stroke="midnightblue" points="2651.29,-241.33 2640.84,-243.06 2650.09,-248.23 2651.29,-241.33"/>
</g>
<!-- Node60 -->
<g id="node42" class="node">
<title>Node60</title>
<g id="a_node42"><a xlink:href="memory___8h.html" target="_top" xlink:title=" ">
<polygon fill="white" stroke="black" points="1438,-280.5 1438,-299.5 1549,-299.5 1549,-280.5 1438,-280.5"/>
<text text-anchor="middle" x="1493.5" y="-287.5" font-family="FreeSans" font-size="10.00">magick/memory_.h</text>
</a>
</g>
</g>
<!-- Node1&#45;&gt;Node60 -->
<g id="edge65" class="edge">
<title>Node1&#45;&gt;Node60</title>
<path fill="none" stroke="midnightblue" d="M2322.91,-343.55C2226.71,-338.28 1887.82,-319.41 1608.5,-300 1592.6,-298.9 1575.48,-297.61 1559.42,-296.36"/>
<polygon fill="midnightblue" stroke="midnightblue" points="1559.3,-292.84 1549.05,-295.54 1558.75,-299.82 1559.3,-292.84"/>
</g>
<!-- Node61 -->
<g id="node43" class="node">
<title>Node61</title>
<g id="a_node43"><a xlink:href="mime_8h.html" target="_top" xlink:title=" ">
<polygon fill="white" stroke="black" points="2536,-280.5 2536,-299.5 2629,-299.5 2629,-280.5 2536,-280.5"/>
<text text-anchor="middle" x="2582.5" y="-287.5" font-family="FreeSans" font-size="10.00">magick/mime.h</text>
</a>
</g>
</g>
<!-- Node1&#45;&gt;Node61 -->
<g id="edge68" class="edge">
<title>Node1&#45;&gt;Node61</title>
<path fill="none" stroke="midnightblue" d="M2376.23,-338.81C2415.18,-329.78 2488.09,-312.88 2535.96,-301.79"/>
<polygon fill="midnightblue" stroke="midnightblue" points="2536.83,-305.18 2545.78,-299.51 2535.25,-298.36 2536.83,-305.18"/>
</g>
<!-- Node62 -->
<g id="node44" class="node">
<title>Node62</title>
<g id="a_node44"><a xlink:href="mime-private_8h.html" target="_top" xlink:title=" ">
<polygon fill="white" stroke="black" points="2647,-280.5 2647,-299.5 2778,-299.5 2778,-280.5 2647,-280.5"/>
<text text-anchor="middle" x="2712.5" y="-287.5" font-family="FreeSans" font-size="10.00">magick/mime&#45;private.h</text>
</a>
</g>
</g>
<!-- Node1&#45;&gt;Node62 -->
<g id="edge69" class="edge">
<title>Node1&#45;&gt;Node62</title>
<path fill="none" stroke="midnightblue" d="M2376.19,-341.03C2432.33,-332.68 2564.07,-313.08 2645.01,-301.04"/>
<polygon fill="midnightblue" stroke="midnightblue" points="2645.73,-304.47 2655.1,-299.54 2644.7,-297.55 2645.73,-304.47"/>
</g>
<!-- Node63 -->
<g id="node45" class="node">
<title>Node63</title>
<g id="a_node45"><a xlink:href="nt-base-private_8h.html" target="_top" xlink:title=" ">
<polygon fill="white" stroke="red" points="2377.5,-280.5 2377.5,-299.5 2517.5,-299.5 2517.5,-280.5 2377.5,-280.5"/>
<text text-anchor="middle" x="2447.5" y="-287.5" font-family="FreeSans" font-size="10.00">magick/nt&#45;base&#45;private.h</text>
</a>
</g>
</g>
<!-- Node1&#45;&gt;Node63 -->
<g id="edge70" class="edge">
<title>Node1&#45;&gt;Node63</title>
<path fill="none" stroke="midnightblue" d="M2365.25,-336.32C2380.82,-327.74 2404.88,-314.49 2422.96,-304.52"/>
<polygon fill="midnightblue" stroke="midnightblue" points="2424.72,-307.55 2431.79,-299.65 2421.35,-301.42 2424.72,-307.55"/>
</g>
<!-- Node67 -->
<g id="node46" class="node">
<title>Node67</title>
<g id="a_node46"><a xlink:href="option_8h.html" target="_top" xlink:title=" ">
<polygon fill="white" stroke="black" points="2835,-280.5 2835,-299.5 2930,-299.5 2930,-280.5 2835,-280.5"/>
<text text-anchor="middle" x="2882.5" y="-287.5" font-family="FreeSans" font-size="10.00">magick/option.h</text>
</a>
</g>
</g>
<!-- Node1&#45;&gt;Node67 -->
<g id="edge72" class="edge">
<title>Node1&#45;&gt;Node67</title>
<path fill="none" stroke="midnightblue" d="M2376.11,-342.92C2447.92,-337.2 2651.68,-320.31 2820.5,-300 2821.81,-299.84 2823.13,-299.68 2824.46,-299.51"/>
<polygon fill="midnightblue" stroke="midnightblue" points="2825.34,-302.93 2834.8,-298.16 2824.43,-295.99 2825.34,-302.93"/>
</g>
<!-- Node68 -->
<g id="node47" class="node">
<title>Node68</title>
<g id="a_node47"><a xlink:href="token_8h.html" target="_top" xlink:title=" ">
<polygon fill="white" stroke="black" points="2948.5,-280.5 2948.5,-299.5 3040.5,-299.5 3040.5,-280.5 2948.5,-280.5"/>
<text text-anchor="middle" x="2994.5" y="-287.5" font-family="FreeSans" font-size="10.00">magick/token.h</text>
</a>
</g>
</g>
<!-- Node1&#45;&gt;Node68 -->
<g id="edge75" class="edge">
<title>Node1&#45;&gt;Node68</title>
<path fill="none" stroke="midnightblue" d="M2376.04,-343.79C2458.09,-339.88 2715.07,-326.36 2938.39,-300.03"/>
<polygon fill="midnightblue" stroke="midnightblue" points="2938.81,-303.51 2948.33,-298.85 2937.98,-296.56 2938.81,-303.51"/>
</g>
<!-- Node69 -->
<g id="node48" class="node">
<title>Node69</title>
<g id="a_node48"><a xlink:href="utility_8h.html" target="_top" xlink:title=" ">
<polygon fill="white" stroke="black" points="3058.5,-280.5 3058.5,-299.5 3150.5,-299.5 3150.5,-280.5 3058.5,-280.5"/>
<text text-anchor="middle" x="3104.5" y="-287.5" font-family="FreeSans" font-size="10.00">magick/utility.h</text>
</a>
</g>
</g>
<!-- Node1&#45;&gt;Node69 -->
<g id="edge76" class="edge">
<title>Node1&#45;&gt;Node69</title>
<path fill="none" stroke="midnightblue" d="M2376.29,-344.22C2468.3,-341.36 2780.09,-330.01 3048.02,-300.06"/>
<polygon fill="midnightblue" stroke="midnightblue" points="3048.79,-303.49 3058.33,-298.89 3048,-296.54 3048.79,-303.49"/>
</g>
<!-- Node70 -->
<g id="node49" class="node">
<title>Node70</title>
<g id="a_node49"><a xlink:href="xml-tree_8h.html" target="_top" xlink:title=" ">
<polygon fill="white" stroke="red" points="2214,-280.5 2214,-299.5 2321,-299.5 2321,-280.5 2214,-280.5"/>
<text text-anchor="middle" x="2267.5" y="-287.5" font-family="FreeSans" font-size="10.00">magick/xml&#45;tree.h</text>
</a>
</g>
</g>
<!-- Node1&#45;&gt;Node70 -->
<g id="edge77" class="edge">
<title>Node1&#45;&gt;Node70</title>
<path fill="none" stroke="midnightblue" d="M2336.33,-336.32C2323.65,-327.98 2304.27,-315.21 2289.29,-305.35"/>
<polygon fill="midnightblue" stroke="midnightblue" points="2290.92,-302.23 2280.64,-299.65 2287.07,-308.08 2290.92,-302.23"/>
</g>
<!-- Node71 -->
<g id="node50" class="node">
<title>Node71</title>
<g id="a_node50"><a xlink:href="xml-tree-private_8h.html" target="_top" xlink:title=" ">
<polygon fill="white" stroke="black" points="3338,-280.5 3338,-299.5 3483,-299.5 3483,-280.5 3338,-280.5"/>
<text text-anchor="middle" x="3410.5" y="-287.5" font-family="FreeSans" font-size="10.00">magick/xml&#45;tree&#45;private.h</text>
</a>
</g>
</g>
<!-- Node1&#45;&gt;Node71 -->
<g id="edge79" class="edge">
<title>Node1&#45;&gt;Node71</title>
<path fill="none" stroke="midnightblue" d="M2376.04,-344.41C2489.32,-341.77 2943.62,-329.84 3327.47,-300.11"/>
<polygon fill="midnightblue" stroke="midnightblue" points="3327.97,-303.59 3337.66,-299.32 3327.42,-296.61 3327.97,-303.59"/>
</g>
<!-- Node3 -->
<g id="node3" class="node">
<title>Node3</title>
<g id="a_node3"><a xlink:href="magick-config_8h.html" target="_top" xlink:title=" ">
<polygon fill="white" stroke="red" points="1082.5,-168.5 1082.5,-187.5 1216.5,-187.5 1216.5,-168.5 1082.5,-168.5"/>
<text text-anchor="middle" x="1149.5" y="-175.5" font-family="FreeSans" font-size="10.00">magick/magick&#45;config.h</text>
</a>
</g>
</g>
<!-- Node2&#45;&gt;Node3 -->
<g id="edge2" class="edge">
<title>Node2&#45;&gt;Node3</title>
<path fill="none" stroke="midnightblue" d="M916.14,-286.75C982.89,-282.63 1099.54,-271.61 1130.5,-244 1143.51,-232.4 1147.82,-212.44 1149.15,-197.7"/>
<polygon fill="midnightblue" stroke="midnightblue" points="1152.65,-197.83 1149.68,-187.66 1145.66,-197.46 1152.65,-197.83"/>
</g>
<!-- Node5 -->
<g id="node4" class="node">
<title>Node5</title>
<g id="a_node4"><a xlink:title=" ">
<polygon fill="white" stroke="#bfbfbf" points="2426.5,-112.5 2426.5,-131.5 2482.5,-131.5 2482.5,-112.5 2426.5,-112.5"/>
<text text-anchor="middle" x="2454.5" y="-119.5" font-family="FreeSans" font-size="10.00">stdarg.h</text>
</a>
</g>
</g>
<!-- Node2&#45;&gt;Node5 -->
<g id="edge3" class="edge">
<title>Node2&#45;&gt;Node5</title>
<path fill="none" stroke="midnightblue" d="M916.28,-286.68C1014.48,-281.49 1235.79,-267.52 1307.5,-244 1324.16,-238.54 1324.73,-229.12 1341.5,-224 1468.2,-185.35 1804.6,-200.25 1936.5,-188 2116.7,-171.26 2330.92,-141.09 2416.47,-128.62"/>
<polygon fill="midnightblue" stroke="midnightblue" points="2417.11,-132.07 2426.49,-127.16 2416.09,-125.14 2417.11,-132.07"/>
</g>
<!-- Node6 -->
<g id="node5" class="node">
<title>Node6</title>
<g id="a_node5"><a xlink:title=" ">
<polygon fill="white" stroke="#bfbfbf" points="1177.5,-224.5 1177.5,-243.5 1227.5,-243.5 1227.5,-224.5 1177.5,-224.5"/>
<text text-anchor="middle" x="1202.5" y="-231.5" font-family="FreeSans" font-size="10.00">stdio.h</text>
</a>
</g>
</g>
<!-- Node2&#45;&gt;Node6 -->
<g id="edge4" class="edge">
<title>Node2&#45;&gt;Node6</title>
<path fill="none" stroke="midnightblue" d="M916.21,-282.85C974.69,-275.05 1076.74,-260.6 1163.5,-244 1164.77,-243.76 1166.06,-243.5 1167.35,-243.24"/>
<polygon fill="midnightblue" stroke="midnightblue" points="1168.34,-246.61 1177.38,-241.09 1166.87,-239.76 1168.34,-246.61"/>
</g>
<!-- Node7 -->
<g id="node6" class="node">
<title>Node7</title>
<g id="a_node6"><a xlink:title=" ">
<polygon fill="white" stroke="#bfbfbf" points="1246,-224.5 1246,-243.5 1299,-243.5 1299,-224.5 1246,-224.5"/>
<text text-anchor="middle" x="1272.5" y="-231.5" font-family="FreeSans" font-size="10.00">ctype.h</text>
</a>
</g>
</g>
<!-- Node2&#45;&gt;Node7 -->
<g id="edge5" class="edge">
<title>Node2&#45;&gt;Node7</title>
<path fill="none" stroke="midnightblue" d="M916.13,-285.07C984.63,-279 1115.04,-265.89 1235.69,-243.93"/>
<polygon fill="midnightblue" stroke="midnightblue" points="1236.65,-247.31 1245.84,-242.05 1235.37,-240.43 1236.65,-247.31"/>
</g>
<!-- Node8 -->
<g id="node7" class="node">
<title>Node8</title>
<g id="a_node7"><a xlink:title=" ">
<polygon fill="white" stroke="#bfbfbf" points="0,-224.5 0,-243.5 55,-243.5 55,-224.5 0,-224.5"/>
<text text-anchor="middle" x="27.5" y="-231.5" font-family="FreeSans" font-size="10.00">locale.h</text>
</a>
</g>
</g>
<!-- Node2&#45;&gt;Node8 -->
<g id="edge6" class="edge">
<title>Node2&#45;&gt;Node8</title>
<path fill="none" stroke="midnightblue" d="M821,-289.47C697.52,-290.01 356.37,-287.27 65.2,-243.99"/>
<polygon fill="midnightblue" stroke="midnightblue" points="65.71,-240.53 55.3,-242.5 64.67,-247.45 65.71,-240.53"/>
</g>
<!-- Node9 -->
<g id="node8" class="node">
<title>Node9</title>
<g id="a_node8"><a xlink:title=" ">
<polygon fill="white" stroke="#bfbfbf" points="1468,-224.5 1468,-243.5 1519,-243.5 1519,-224.5 1468,-224.5"/>
<text text-anchor="middle" x="1493.5" y="-231.5" font-family="FreeSans" font-size="10.00">errno.h</text>
</a>
</g>
</g>
<!-- Node2&#45;&gt;Node9 -->
<g id="edge7" class="edge">
<title>Node2&#45;&gt;Node9</title>
<path fill="none" stroke="midnightblue" d="M916.25,-288.19C1015.46,-285.91 1251.08,-277.31 1457.86,-243.78"/>
<polygon fill="midnightblue" stroke="midnightblue" points="1458.7,-247.19 1468,-242.11 1457.56,-240.28 1458.7,-247.19"/>
</g>
<!-- Node10 -->
<g id="node9" class="node">
<title>Node10</title>
<g id="a_node9"><a xlink:title=" ">
<polygon fill="white" stroke="#bfbfbf" points="73,-224.5 73,-243.5 120,-243.5 120,-224.5 73,-224.5"/>
<text text-anchor="middle" x="96.5" y="-231.5" font-family="FreeSans" font-size="10.00">fcntl.h</text>
</a>
</g>
</g>
<!-- Node2&#45;&gt;Node10 -->
<g id="edge8" class="edge">
<title>Node2&#45;&gt;Node10</title>
<path fill="none" stroke="midnightblue" d="M820.92,-289.6C704.31,-290.34 395.06,-287.78 130.33,-243.97"/>
<polygon fill="midnightblue" stroke="midnightblue" points="130.58,-240.46 120.14,-242.26 129.42,-247.36 130.58,-240.46"/>
</g>
<!-- Node11 -->
<g id="node10" class="node">
<title>Node11</title>
<g id="a_node10"><a xlink:title=" ">
<polygon fill="white" stroke="#bfbfbf" points="138,-224.5 138,-243.5 189,-243.5 189,-224.5 138,-224.5"/>
<text text-anchor="middle" x="163.5" y="-231.5" font-family="FreeSans" font-size="10.00">math.h</text>
</a>
</g>
</g>
<!-- Node2&#45;&gt;Node11 -->
<g id="edge9" class="edge">
<title>Node2&#45;&gt;Node11</title>
<path fill="none" stroke="midnightblue" d="M820.96,-288.93C712.22,-288.1 437.01,-282.22 199.23,-243.98"/>
<polygon fill="midnightblue" stroke="midnightblue" points="199.44,-240.47 189.01,-242.31 198.31,-247.38 199.44,-240.47"/>
</g>
<!-- Node12 -->
<g id="node11" class="node">
<title>Node12</title>
<g id="a_node11"><a xlink:title=" ">
<polygon fill="white" stroke="#bfbfbf" points="2311.5,-168.5 2311.5,-187.5 2359.5,-187.5 2359.5,-168.5 2311.5,-168.5"/>
<text text-anchor="middle" x="2335.5" y="-175.5" font-family="FreeSans" font-size="10.00">time.h</text>
</a>
</g>
</g>
<!-- Node2&#45;&gt;Node12 -->
<g id="edge10" class="edge">
<title>Node2&#45;&gt;Node12</title>
<path fill="none" stroke="midnightblue" d="M916.11,-289.76C1002.47,-289.97 1190.05,-285.12 1341.5,-244 1361.84,-238.48 1364.03,-229.04 1384.5,-224 1429.85,-212.84 2136.53,-186.3 2301.33,-180.25"/>
<polygon fill="midnightblue" stroke="midnightblue" points="2301.52,-183.74 2311.39,-179.88 2301.27,-176.75 2301.52,-183.74"/>
</g>
<!-- Node13 -->
<g id="node12" class="node">
<title>Node13</title>
<g id="a_node12"><a xlink:title=" ">
<polygon fill="white" stroke="#bfbfbf" points="207,-224.5 207,-243.5 260,-243.5 260,-224.5 207,-224.5"/>
<text text-anchor="middle" x="233.5" y="-231.5" font-family="FreeSans" font-size="10.00">limits.h</text>
</a>
</g>
</g>
<!-- Node2&#45;&gt;Node13 -->
<g id="edge11" class="edge">
<title>Node2&#45;&gt;Node13</title>
<path fill="none" stroke="midnightblue" d="M820.71,-288.28C720.24,-286.14 479.73,-277.8 270.11,-244"/>
<polygon fill="midnightblue" stroke="midnightblue" points="270.58,-240.53 260.15,-242.37 269.45,-247.44 270.58,-240.53"/>
</g>
<!-- Node14 -->
<g id="node13" class="node">
<title>Node14</title>
<g id="a_node13"><a xlink:title=" ">
<polygon fill="white" stroke="#bfbfbf" points="278,-224.5 278,-243.5 333,-243.5 333,-224.5 278,-224.5"/>
<text text-anchor="middle" x="305.5" y="-231.5" font-family="FreeSans" font-size="10.00">signal.h</text>
</a>
</g>
</g>
<!-- Node2&#45;&gt;Node14 -->
<g id="edge12" class="edge">
<title>Node2&#45;&gt;Node14</title>
<path fill="none" stroke="midnightblue" d="M820.69,-287.36C729.61,-283.71 524.87,-272.96 343.29,-243.87"/>
<polygon fill="midnightblue" stroke="midnightblue" points="343.72,-240.39 333.29,-242.24 342.6,-247.3 343.72,-240.39"/>
</g>
<!-- Node15 -->
<g id="node14" class="node">
<title>Node15</title>
<g id="a_node14"><a xlink:title=" ">
<polygon fill="white" stroke="#bfbfbf" points="1393.5,-224.5 1393.5,-243.5 1449.5,-243.5 1449.5,-224.5 1393.5,-224.5"/>
<text text-anchor="middle" x="1421.5" y="-231.5" font-family="FreeSans" font-size="10.00">assert.h</text>
</a>
</g>
</g>
<!-- Node2&#45;&gt;Node15 -->
<g id="edge13" class="edge">
<title>Node2&#45;&gt;Node15</title>
<path fill="none" stroke="midnightblue" d="M916.29,-286.76C1006.99,-282.08 1210.19,-269.5 1379.5,-244 1380.74,-243.81 1382.01,-243.61 1383.28,-243.4"/>
<polygon fill="midnightblue" stroke="midnightblue" points="1383.92,-246.84 1393.12,-241.58 1382.65,-239.95 1383.92,-246.84"/>
</g>
<!-- Node16 -->
<g id="node15" class="node">
<title>Node16</title>
<g id="a_node15"><a xlink:href="method-attribute_8h.html" target="_top" xlink:title=" ">
<polygon fill="white" stroke="black" points="351.5,-224.5 351.5,-243.5 499.5,-243.5 499.5,-224.5 351.5,-224.5"/>
<text text-anchor="middle" x="425.5" y="-231.5" font-family="FreeSans" font-size="10.00">magick/method&#45;attribute.h</text>
</a>
</g>
</g>
<!-- Node2&#45;&gt;Node16 -->
<g id="edge14" class="edge">
<title>Node2&#45;&gt;Node16</title>
<path fill="none" stroke="midnightblue" d="M820.67,-283.17C745.09,-273.96 597.2,-255.93 505.33,-244.73"/>
<polygon fill="midnightblue" stroke="midnightblue" points="505.59,-241.24 495.24,-243.5 504.75,-248.19 505.59,-241.24"/>
</g>
<!-- Node17 -->
<g id="node16" class="node">
<title>Node17</title>
<g id="a_node16"><a xlink:title=" ">
<polygon fill="white" stroke="#bfbfbf" points="517.5,-224.5 517.5,-243.5 589.5,-243.5 589.5,-224.5 517.5,-224.5"/>
<text text-anchor="middle" x="553.5" y="-231.5" font-family="FreeSans" font-size="10.00">sys/types.h</text>
</a>
</g>
</g>
<!-- Node2&#45;&gt;Node17 -->
<g id="edge15" class="edge">
<title>Node2&#45;&gt;Node17</title>
<path fill="none" stroke="midnightblue" d="M820.62,-281.5C768.64,-273.25 682.93,-259.33 599.7,-244.18"/>
<polygon fill="midnightblue" stroke="midnightblue" points="600.3,-240.73 589.83,-242.37 599.04,-247.61 600.3,-240.73"/>
</g>
<!-- Node18 -->
<g id="node17" class="node">
<title>Node18</title>
<g id="a_node17"><a xlink:title=" ">
<polygon fill="white" stroke="#bfbfbf" points="607.5,-224.5 607.5,-243.5 671.5,-243.5 671.5,-224.5 607.5,-224.5"/>
<text text-anchor="middle" x="639.5" y="-231.5" font-family="FreeSans" font-size="10.00">sys/stat.h</text>
</a>
</g>
</g>
<!-- Node2&#45;&gt;Node18 -->
<g id="edge16" class="edge">
<title>Node2&#45;&gt;Node18</title>
<path fill="none" stroke="midnightblue" d="M832.21,-280.44C791.23,-270.78 724.64,-255.08 681.46,-244.89"/>
<polygon fill="midnightblue" stroke="midnightblue" points="682.09,-241.45 671.55,-242.56 680.48,-248.26 682.09,-241.45"/>
</g>
<!-- Node19 -->
<g id="node18" class="node">
<title>Node19</title>
<g id="a_node18"><a xlink:title=" ">
<polygon fill="white" stroke="#bfbfbf" points="689.5,-224.5 689.5,-243.5 743.5,-243.5 743.5,-224.5 689.5,-224.5"/>
<text text-anchor="middle" x="716.5" y="-231.5" font-family="FreeSans" font-size="10.00">dirent.h</text>
</a>
</g>
</g>
<!-- Node2&#45;&gt;Node19 -->
<g id="edge17" class="edge">
<title>Node2&#45;&gt;Node19</title>
<path fill="none" stroke="midnightblue" d="M844.42,-280.44C818.96,-271.4 778.61,-257.06 750.04,-246.92"/>
<polygon fill="midnightblue" stroke="midnightblue" points="751.07,-243.57 740.47,-243.52 748.72,-250.16 751.07,-243.57"/>
</g>
<!-- Node20 -->
<g id="node19" class="node">
<title>Node20</title>
<g id="a_node19"><a xlink:title=" ">
<polygon fill="white" stroke="#bfbfbf" points="761.5,-224.5 761.5,-243.5 827.5,-243.5 827.5,-224.5 761.5,-224.5"/>
<text text-anchor="middle" x="794.5" y="-231.5" font-family="FreeSans" font-size="10.00">sys/wait.h</text>
</a>
</g>
</g>
<!-- Node2&#45;&gt;Node20 -->
<g id="edge18" class="edge">
<title>Node2&#45;&gt;Node20</title>
<path fill="none" stroke="midnightblue" d="M856.61,-280.32C845.35,-272.11 828.21,-259.6 814.79,-249.81"/>
<polygon fill="midnightblue" stroke="midnightblue" points="816.75,-246.9 806.61,-243.83 812.62,-252.56 816.75,-246.9"/>
</g>
<!-- Node21 -->
<g id="node20" class="node">
<title>Node21</title>
<g id="a_node20"><a xlink:title=" ">
<polygon fill="white" stroke="#bfbfbf" points="845.5,-224.5 845.5,-243.5 891.5,-243.5 891.5,-224.5 845.5,-224.5"/>
<text text-anchor="middle" x="868.5" y="-231.5" font-family="FreeSans" font-size="10.00">pwd.h</text>
</a>
</g>
</g>
<!-- Node2&#45;&gt;Node21 -->
<g id="edge19" class="edge">
<title>Node2&#45;&gt;Node21</title>
<path fill="none" stroke="midnightblue" d="M868.5,-280.08C868.5,-273.01 868.5,-262.86 868.5,-253.99"/>
<polygon fill="midnightblue" stroke="midnightblue" points="872,-253.75 868.5,-243.75 865,-253.75 872,-253.75"/>
</g>
<!-- Node22 -->
<g id="node21" class="node">
<title>Node22</title>
<g id="a_node21"><a xlink:href="magick-type_8h.html" target="_top" xlink:title=" ">
<polygon fill="white" stroke="black" points="909.5,-224.5 909.5,-243.5 1035.5,-243.5 1035.5,-224.5 909.5,-224.5"/>
<text text-anchor="middle" x="972.5" y="-231.5" font-family="FreeSans" font-size="10.00">magick/magick&#45;type.h</text>
</a>
</g>
</g>
<!-- Node2&#45;&gt;Node22 -->
<g id="edge20" class="edge">
<title>Node2&#45;&gt;Node22</title>
<path fill="none" stroke="midnightblue" d="M885.21,-280.32C901.81,-271.7 927.5,-258.36 946.72,-248.39"/>
<polygon fill="midnightblue" stroke="midnightblue" points="948.57,-251.37 955.83,-243.65 945.34,-245.16 948.57,-251.37"/>
</g>
<!-- Node23 -->
<g id="node22" class="node">
<title>Node23</title>
<g id="a_node22"><a xlink:title=" ">
<polygon fill="white" stroke="#bfbfbf" points="1053.5,-224.5 1053.5,-243.5 1121.5,-243.5 1121.5,-224.5 1053.5,-224.5"/>
<text text-anchor="middle" x="1087.5" y="-231.5" font-family="FreeSans" font-size="10.00">sys/time.h</text>
</a>
</g>
</g>
<!-- Node2&#45;&gt;Node23 -->
<g id="edge22" class="edge">
<title>Node2&#45;&gt;Node23</title>
<path fill="none" stroke="midnightblue" d="M903.2,-280.44C941.2,-271.07 1002.21,-256.03 1043.53,-245.84"/>
<polygon fill="midnightblue" stroke="midnightblue" points="1044.45,-249.22 1053.32,-243.43 1042.77,-242.42 1044.45,-249.22"/>
</g>
<!-- Node22&#45;&gt;Node3 -->
<g id="edge21" class="edge">
<title>Node22&#45;&gt;Node3</title>
<path fill="none" stroke="midnightblue" d="M1000.55,-224.44C1030.58,-215.28 1078.41,-200.69 1111.74,-190.52"/>
<polygon fill="midnightblue" stroke="midnightblue" points="1113.04,-193.78 1121.59,-187.52 1111,-187.09 1113.04,-193.78"/>
</g>
<!-- Node25 -->
<g id="node24" class="node">
<title>Node25</title>
<g id="a_node24"><a xlink:href="image_8h.html" target="_top" xlink:title=" ">
<polygon fill="white" stroke="red" points="1832,-168.5 1832,-187.5 1927,-187.5 1927,-168.5 1832,-168.5"/>
<text text-anchor="middle" x="1879.5" y="-175.5" font-family="FreeSans" font-size="10.00">magick/image.h</text>
</a>
</g>
</g>
<!-- Node24&#45;&gt;Node25 -->
<g id="edge24" class="edge">
<title>Node24&#45;&gt;Node25</title>
<path fill="none" stroke="midnightblue" d="M1826.75,-224.08C1833.59,-215.98 1846.05,-203.87 1857.28,-194.23"/>
<polygon fill="midnightblue" stroke="midnightblue" points="1859.65,-196.82 1865.13,-187.75 1855.19,-191.42 1859.65,-196.82"/>
</g>
<!-- Node48 -->
<g id="node30" class="node">
<title>Node48</title>
<g id="a_node30"><a xlink:href="stream_8h.html" target="_top" xlink:title=" ">
<polygon fill="white" stroke="black" points="1752,-112.5 1752,-131.5 1851,-131.5 1851,-112.5 1752,-112.5"/>
<text text-anchor="middle" x="1801.5" y="-119.5" font-family="FreeSans" font-size="10.00">magick/stream.h</text>
</a>
</g>
</g>
<!-- Node24&#45;&gt;Node48 -->
<g id="edge35" class="edge">
<title>Node24&#45;&gt;Node48</title>
<path fill="none" stroke="midnightblue" d="M1820.85,-224.37C1817.46,-206.62 1809.65,-165.67 1805.05,-141.6"/>
<polygon fill="midnightblue" stroke="midnightblue" points="1808.45,-140.76 1803.14,-131.59 1801.58,-142.07 1808.45,-140.76"/>
</g>
<!-- Node25&#45;&gt;Node24 -->
<g id="edge25" class="edge">
<title>Node25&#45;&gt;Node24</title>
<path fill="none" stroke="midnightblue" d="M1875.32,-187.83C1868.49,-195.95 1855.94,-208.15 1844.66,-217.82"/>
<polygon fill="midnightblue" stroke="midnightblue" points="1842.26,-215.26 1836.77,-224.32 1846.72,-220.66 1842.26,-215.26"/>
</g>
<!-- Node32 -->
<g id="node25" class="node">
<title>Node32</title>
<g id="a_node25"><a xlink:href="cache-view_8h.html" target="_top" xlink:title=" ">
<polygon fill="white" stroke="black" points="1615,-112.5 1615,-131.5 1734,-131.5 1734,-112.5 1615,-112.5"/>
<text text-anchor="middle" x="1674.5" y="-119.5" font-family="FreeSans" font-size="10.00">magick/cache&#45;view.h</text>
</a>
</g>
</g>
<!-- Node25&#45;&gt;Node32 -->
<g id="edge26" class="edge">
<title>Node25&#45;&gt;Node32</title>
<path fill="none" stroke="midnightblue" d="M1847.02,-168.44C1811.78,-159.16 1755.4,-144.31 1716.74,-134.13"/>
<polygon fill="midnightblue" stroke="midnightblue" points="1717.39,-130.68 1706.83,-131.52 1715.61,-137.45 1717.39,-130.68"/>
</g>
<!-- Node27 -->
<g id="node26" class="node">
<title>Node27</title>
<g id="a_node26"><a xlink:href="pixel_8h.html" target="_top" xlink:title=" ">
<polygon fill="white" stroke="red" points="1835.5,-56.5 1835.5,-75.5 1923.5,-75.5 1923.5,-56.5 1835.5,-56.5"/>
<text text-anchor="middle" x="1879.5" y="-63.5" font-family="FreeSans" font-size="10.00">magick/pixel.h</text>
</a>
</g>
</g>
<!-- Node25&#45;&gt;Node27 -->
<g id="edge29" class="edge">
<title>Node25&#45;&gt;Node27</title>
<path fill="none" stroke="midnightblue" d="M1879.5,-168.37C1879.5,-150.62 1879.5,-109.67 1879.5,-85.6"/>
<polygon fill="midnightblue" stroke="midnightblue" points="1883,-85.59 1879.5,-75.59 1876,-85.59 1883,-85.59"/>
</g>
<!-- Node44 -->
<g id="node28" class="node">
<title>Node44</title>
<g id="a_node28"><a xlink:href="quantum_8h.html" target="_top" xlink:title=" ">
<polygon fill="white" stroke="red" points="1945.5,-112.5 1945.5,-131.5 2053.5,-131.5 2053.5,-112.5 1945.5,-112.5"/>
<text text-anchor="middle" x="1999.5" y="-119.5" font-family="FreeSans" font-size="10.00">magick/quantum.h</text>
</a>
</g>
</g>
<!-- Node25&#45;&gt;Node44 -->
<g id="edge30" class="edge">
<title>Node25&#45;&gt;Node44</title>
<path fill="none" stroke="midnightblue" d="M1893.67,-168.32C1911.43,-159.47 1941.95,-145.63 1965.75,-135.57"/>
<polygon fill="midnightblue" stroke="midnightblue" points="1967.27,-138.73 1975.16,-131.65 1964.58,-132.27 1967.27,-138.73"/>
</g>
<!-- Node25&#45;&gt;Node31 -->
<g id="edge33" class="edge">
<title>Node25&#45;&gt;Node31</title>
<path fill="none" stroke="midnightblue" d="M1884.6,-168.33C1893.36,-154.24 1912.64,-126.5 1936.5,-112 1970.75,-91.19 2014.12,-79.99 2050.04,-73.97"/>
<polygon fill="midnightblue" stroke="midnightblue" points="2050.62,-77.42 2059.96,-72.41 2049.53,-70.51 2050.62,-77.42"/>
</g>
<!-- Node25&#45;&gt;Node48 -->
<g id="edge34" class="edge">
<title>Node25&#45;&gt;Node48</title>
<path fill="none" stroke="midnightblue" d="M1866.97,-168.32C1854.91,-159.98 1836.47,-147.21 1822.23,-137.35"/>
<polygon fill="midnightblue" stroke="midnightblue" points="1824.22,-134.47 1814,-131.65 1820.23,-140.22 1824.22,-134.47"/>
</g>
<!-- Node32&#45;&gt;Node27 -->
<g id="edge27" class="edge">
<title>Node32&#45;&gt;Node27</title>
<path fill="none" stroke="midnightblue" d="M1706.98,-112.44C1742.22,-103.16 1798.6,-88.31 1837.26,-78.13"/>
<polygon fill="midnightblue" stroke="midnightblue" points="1838.39,-81.45 1847.17,-75.52 1836.61,-74.68 1838.39,-81.45"/>
</g>
<!-- Node29 -->
<g id="node27" class="node">
<title>Node29</title>
<g id="a_node27"><a xlink:href="constitute_8h.html" target="_top" xlink:title=" ">
<polygon fill="white" stroke="black" points="2025,-0.5 2025,-19.5 2138,-19.5 2138,-0.5 2025,-0.5"/>
<text text-anchor="middle" x="2081.5" y="-7.5" font-family="FreeSans" font-size="10.00">magick/constitute.h</text>
</a>
</g>
</g>
<!-- Node27&#45;&gt;Node29 -->
<g id="edge28" class="edge">
<title>Node27&#45;&gt;Node29</title>
<path fill="none" stroke="midnightblue" d="M1911.51,-56.44C1946.23,-47.16 2001.79,-32.31 2039.88,-22.13"/>
<polygon fill="midnightblue" stroke="midnightblue" points="2040.89,-25.48 2049.64,-19.52 2039.08,-18.72 2040.89,-25.48"/>
</g>
<!-- Node44&#45;&gt;Node25 -->
<g id="edge31" class="edge">
<title>Node44&#45;&gt;Node25</title>
<path fill="none" stroke="midnightblue" d="M1985.65,-131.52C1967.89,-140.39 1937.04,-154.38 1913.07,-164.5"/>
<polygon fill="midnightblue" stroke="midnightblue" points="1911.49,-161.37 1903.6,-168.44 1914.18,-167.83 1911.49,-161.37"/>
</g>
<!-- Node44&#45;&gt;Node31 -->
<g id="edge32" class="edge">
<title>Node44&#45;&gt;Node31</title>
<path fill="none" stroke="midnightblue" d="M2018.51,-112.44C2038.09,-103.64 2068.81,-89.81 2091.23,-79.72"/>
<polygon fill="midnightblue" stroke="midnightblue" points="2092.89,-82.81 2100.57,-75.52 2090.02,-76.43 2092.89,-82.81"/>
</g>
<!-- Node51&#45;&gt;Node40 -->
<g id="edge38" class="edge">
<title>Node51&#45;&gt;Node40</title>
<path fill="none" stroke="midnightblue" d="M1659.65,-280.32C1647.28,-271.98 1628.37,-259.21 1613.76,-249.35"/>
<polygon fill="midnightblue" stroke="midnightblue" points="1615.57,-246.35 1605.32,-243.65 1611.65,-252.15 1615.57,-246.35"/>
</g>
<!-- Node52&#45;&gt;Node3 -->
<g id="edge47" class="edge">
<title>Node52&#45;&gt;Node3</title>
<path fill="none" stroke="midnightblue" d="M1980.71,-283.54C1898.6,-275.29 1750.93,-259 1699.5,-244 1679.27,-238.1 1676.86,-229.46 1656.5,-224 1577.61,-202.85 1348.28,-188.78 1226.92,-182.59"/>
<polygon fill="midnightblue" stroke="midnightblue" points="1226.75,-179.08 1216.59,-182.07 1226.4,-186.07 1226.75,-179.08"/>
</g>
<!-- Node52&#45;&gt;Node5 -->
<g id="edge40" class="edge">
<title>Node52&#45;&gt;Node5</title>
<path fill="none" stroke="midnightblue" d="M2094.08,-284.68C2168.19,-278.3 2293.52,-264.81 2334.5,-244 2383.34,-219.19 2424.31,-166.97 2443.24,-139.97"/>
<polygon fill="midnightblue" stroke="midnightblue" points="2446.24,-141.78 2449,-131.55 2440.46,-137.83 2446.24,-141.78"/>
</g>
<!-- Node52&#45;&gt;Node24 -->
<g id="edge41" class="edge">
<title>Node52&#45;&gt;Node24</title>
<path fill="none" stroke="midnightblue" d="M2003.43,-280.44C1966.32,-271.12 1906.84,-256.18 1866.29,-246"/>
<polygon fill="midnightblue" stroke="midnightblue" points="1866.96,-242.56 1856.41,-243.52 1865.25,-249.35 1866.96,-242.56"/>
</g>
<!-- Node52&#45;&gt;Node32 -->
<g id="edge42" class="edge">
<title>Node52&#45;&gt;Node32</title>
<path fill="none" stroke="midnightblue" d="M1980.78,-284.23C1913.24,-277.73 1805.21,-264.5 1770.5,-244 1728.33,-219.09 1697.46,-168.12 1683.24,-140.97"/>
<polygon fill="midnightblue" stroke="midnightblue" points="1686.25,-139.17 1678.61,-131.83 1680.01,-142.33 1686.25,-139.17"/>
</g>
<!-- Node52&#45;&gt;Node27 -->
<g id="edge48" class="edge">
<title>Node52&#45;&gt;Node27</title>
<path fill="none" stroke="midnightblue" d="M1980.99,-284.15C1906.93,-277.17 1781.51,-263.01 1739.5,-244 1669.09,-212.14 1639.1,-202.07 1606.5,-132 1602.75,-123.94 1600.75,-118.78 1606.5,-112 1633.98,-79.62 1753.72,-70.5 1825.17,-67.96"/>
<polygon fill="midnightblue" stroke="midnightblue" points="1825.47,-71.45 1835.35,-67.63 1825.24,-64.46 1825.47,-71.45"/>
</g>
<!-- Node52&#45;&gt;Node29 -->
<g id="edge46" class="edge">
<title>Node52&#45;&gt;Node29</title>
<path fill="none" stroke="midnightblue" d="M2094.24,-283.21C2167.79,-275.13 2288.27,-259.68 2301.5,-244 2314.76,-228.29 2283.78,-134.38 2188.5,-56 2169.96,-40.75 2145.5,-29.95 2124.65,-22.76"/>
<polygon fill="midnightblue" stroke="midnightblue" points="2125.65,-19.4 2115.05,-19.61 2123.47,-26.05 2125.65,-19.4"/>
</g>
<!-- Node52&#45;&gt;Node44 -->
<g id="edge50" class="edge">
<title>Node52&#45;&gt;Node44</title>
<path fill="none" stroke="midnightblue" d="M2034.54,-280.45C2031.5,-271.45 2026.76,-256.85 2023.5,-244 2014.39,-208.15 2006.65,-165.59 2002.58,-141.7"/>
<polygon fill="midnightblue" stroke="midnightblue" points="2005.98,-140.86 2000.88,-131.58 1999.08,-142.02 2005.98,-140.86"/>
</g>
<!-- Node52&#45;&gt;Node31 -->
<g id="edge52" class="edge">
<title>Node52&#45;&gt;Node31</title>
<path fill="none" stroke="midnightblue" d="M2040,-280.1C2043.59,-267.51 2050.54,-243.83 2057.5,-224 2075.38,-173.02 2099.66,-114.04 2111.85,-85.03"/>
<polygon fill="midnightblue" stroke="midnightblue" points="2115.1,-86.34 2115.76,-75.76 2108.65,-83.61 2115.1,-86.34"/>
</g>
<!-- Node53 -->
<g id="node35" class="node">
<title>Node53</title>
<g id="a_node35"><a xlink:href="draw_8h.html" target="_top" xlink:title=" ">
<polygon fill="white" stroke="red" points="1883.5,-224.5 1883.5,-243.5 1971.5,-243.5 1971.5,-224.5 1883.5,-224.5"/>
<text text-anchor="middle" x="1927.5" y="-231.5" font-family="FreeSans" font-size="10.00">magick/draw.h</text>
</a>
</g>
</g>
<!-- Node52&#45;&gt;Node53 -->
<g id="edge43" class="edge">
<title>Node52&#45;&gt;Node53</title>
<path fill="none" stroke="midnightblue" d="M2019.83,-280.32C2002.11,-271.62 1974.6,-258.12 1954.21,-248.11"/>
<polygon fill="midnightblue" stroke="midnightblue" points="1955.65,-244.92 1945.13,-243.65 1952.56,-251.2 1955.65,-244.92"/>
</g>
<!-- Node55 -->
<g id="node36" class="node">
<title>Node55</title>
<g id="a_node36"><a xlink:href="quantize_8h.html" target="_top" xlink:title=" ">
<polygon fill="white" stroke="red" points="2066,-224.5 2066,-243.5 2173,-243.5 2173,-224.5 2066,-224.5"/>
<text text-anchor="middle" x="2119.5" y="-231.5" font-family="FreeSans" font-size="10.00">magick/quantize.h</text>
</a>
</g>
</g>
<!-- Node52&#45;&gt;Node55 -->
<g id="edge49" class="edge">
<title>Node52&#45;&gt;Node55</title>
<path fill="none" stroke="midnightblue" d="M2050.67,-280.32C2063.35,-271.98 2082.73,-259.21 2097.71,-249.35"/>
<polygon fill="midnightblue" stroke="midnightblue" points="2099.93,-252.08 2106.36,-243.65 2096.08,-246.23 2099.93,-252.08"/>
</g>
<!-- Node56 -->
<g id="node37" class="node">
<title>Node56</title>
<g id="a_node37"><a xlink:href="registry_8h.html" target="_top" xlink:title=" ">
<polygon fill="white" stroke="black" points="2191,-224.5 2191,-243.5 2292,-243.5 2292,-224.5 2191,-224.5"/>
<text text-anchor="middle" x="2241.5" y="-231.5" font-family="FreeSans" font-size="10.00">magick/registry.h</text>
</a>
</g>
</g>
<!-- Node52&#45;&gt;Node56 -->
<g id="edge51" class="edge">
<title>Node52&#45;&gt;Node56</title>
<path fill="none" stroke="midnightblue" d="M2069.82,-280.44C2104.89,-271.16 2161,-256.31 2199.46,-246.13"/>
<polygon fill="midnightblue" stroke="midnightblue" points="2200.56,-249.46 2209.33,-243.52 2198.76,-242.69 2200.56,-249.46"/>
</g>
<!-- Node53&#45;&gt;Node25 -->
<g id="edge44" class="edge">
<title>Node53&#45;&gt;Node25</title>
<path fill="none" stroke="midnightblue" d="M1919.57,-224.08C1912.65,-216.3 1902.43,-204.8 1894.05,-195.37"/>
<polygon fill="midnightblue" stroke="midnightblue" points="1896.54,-192.9 1887.28,-187.75 1891.31,-197.55 1896.54,-192.9"/>
</g>
<!-- Node53&#45;&gt;Node27 -->
<g id="edge45" class="edge">
<title>Node53&#45;&gt;Node27</title>
<path fill="none" stroke="midnightblue" d="M1940.17,-224.49C1972.45,-202.66 2055.75,-145.48 2062.5,-132 2066.48,-124.05 2067.98,-119 2062.5,-112 2046.72,-91.87 1981.93,-79.54 1933.9,-72.99"/>
<polygon fill="midnightblue" stroke="midnightblue" points="1934.3,-69.52 1923.93,-71.68 1933.39,-76.46 1934.3,-69.52"/>
</g>
<!-- Node30&#45;&gt;Node5 -->
<g id="edge54" class="edge">
<title>Node30&#45;&gt;Node5</title>
<path fill="none" stroke="midnightblue" d="M2501.5,-168.32C2493.31,-160.42 2480.99,-148.55 2471.03,-138.94"/>
<polygon fill="midnightblue" stroke="midnightblue" points="2473.29,-136.26 2463.66,-131.83 2468.43,-141.29 2473.29,-136.26"/>
</g>
<!-- Node30&#45;&gt;Node31 -->
<g id="edge55" class="edge">
<title>Node30&#45;&gt;Node31</title>
<path fill="none" stroke="midnightblue" d="M2510.76,-168.25C2510.65,-154.05 2508.18,-126.14 2491.5,-112 2447.28,-74.5 2284.28,-67.4 2189.35,-66.55"/>
<polygon fill="midnightblue" stroke="midnightblue" points="2189.28,-63.05 2179.26,-66.48 2189.23,-70.05 2189.28,-63.05"/>
</g>
<!-- Node58 -->
<g id="node40" class="node">
<title>Node58</title>
<g id="a_node40"><a xlink:href="log_8h.html" target="_top" xlink:title=" ">
<polygon fill="white" stroke="black" points="2658.5,-224.5 2658.5,-243.5 2738.5,-243.5 2738.5,-224.5 2658.5,-224.5"/>
<text text-anchor="middle" x="2698.5" y="-231.5" font-family="FreeSans" font-size="10.00">magick/log.h</text>
</a>
</g>
</g>
<!-- Node57&#45;&gt;Node58 -->
<g id="edge57" class="edge">
<title>Node57&#45;&gt;Node58</title>
<path fill="none" stroke="midnightblue" d="M3168.96,-280.97C3165.76,-280.64 3162.6,-280.32 3159.5,-280 3010.13,-264.8 2833.42,-247.84 2748.7,-239.76"/>
<polygon fill="midnightblue" stroke="midnightblue" points="2748.88,-236.27 2738.59,-238.8 2748.22,-243.23 2748.88,-236.27"/>
</g>
<!-- Node57&#45;&gt;Node43 -->
<g id="edge60" class="edge">
<title>Node57&#45;&gt;Node43</title>
<path fill="none" stroke="midnightblue" d="M3168.97,-280.86C3165.77,-280.56 3162.6,-280.27 3159.5,-280 2936.46,-260.33 2877.03,-269.17 2650.71,-244.04"/>
<polygon fill="midnightblue" stroke="midnightblue" points="2650.84,-240.53 2640.51,-242.9 2650.06,-247.49 2650.84,-240.53"/>
</g>
<!-- Node58&#45;&gt;Node5 -->
<g id="edge58" class="edge">
<title>Node58&#45;&gt;Node5</title>
<path fill="none" stroke="midnightblue" d="M2687.01,-224.37C2668.55,-210.82 2630.77,-184.43 2595.5,-168 2561.85,-152.32 2521.28,-140.01 2492.31,-132.26"/>
<polygon fill="midnightblue" stroke="midnightblue" points="2493.14,-128.86 2482.58,-129.71 2491.36,-135.63 2493.14,-128.86"/>
</g>
<!-- Node58&#45;&gt;Node30 -->
<g id="edge59" class="edge">
<title>Node58&#45;&gt;Node30</title>
<path fill="none" stroke="midnightblue" d="M2668.71,-224.44C2636.67,-215.24 2585.57,-200.56 2550.15,-190.39"/>
<polygon fill="midnightblue" stroke="midnightblue" points="2550.73,-186.91 2540.15,-187.52 2548.79,-193.64 2550.73,-186.91"/>
</g>
<!-- Node43&#45;&gt;Node5 -->
<g id="edge61" class="edge">
<title>Node43&#45;&gt;Node5</title>
<path fill="none" stroke="midnightblue" d="M2591.95,-224.26C2592.17,-210.57 2590.59,-183.99 2576.5,-168 2555.2,-143.81 2519.71,-132.61 2492.49,-127.43"/>
<polygon fill="midnightblue" stroke="midnightblue" points="2492.95,-123.96 2482.51,-125.72 2491.78,-130.86 2492.95,-123.96"/>
</g>
<!-- Node43&#45;&gt;Node12 -->
<g id="edge62" class="edge">
<title>Node43&#45;&gt;Node12</title>
<path fill="none" stroke="midnightblue" d="M2550.94,-224.44C2500.87,-213.88 2416.6,-196.11 2369.67,-186.21"/>
<polygon fill="midnightblue" stroke="midnightblue" points="2370.2,-182.74 2359.7,-184.1 2368.76,-189.59 2370.2,-182.74"/>
</g>
<!-- Node43&#45;&gt;Node30 -->
<g id="edge63" class="edge">
<title>Node43&#45;&gt;Node30</title>
<path fill="none" stroke="midnightblue" d="M2578.49,-224.32C2565.97,-215.98 2546.82,-203.21 2532.03,-193.35"/>
<polygon fill="midnightblue" stroke="midnightblue" points="2533.74,-190.29 2523.48,-187.65 2529.86,-196.11 2533.74,-190.29"/>
</g>
<!-- Node60&#45;&gt;Node9 -->
<g id="edge66" class="edge">
<title>Node60&#45;&gt;Node9</title>
<path fill="none" stroke="midnightblue" d="M1493.5,-280.08C1493.5,-273.01 1493.5,-262.86 1493.5,-253.99"/>
<polygon fill="midnightblue" stroke="midnightblue" points="1497,-253.75 1493.5,-243.75 1490,-253.75 1497,-253.75"/>
</g>
<!-- Node60&#45;&gt;Node15 -->
<g id="edge67" class="edge">
<title>Node60&#45;&gt;Node15</title>
<path fill="none" stroke="midnightblue" d="M1481.93,-280.32C1471.08,-272.18 1454.62,-259.84 1441.62,-250.09"/>
<polygon fill="midnightblue" stroke="midnightblue" points="1443.38,-247.03 1433.28,-243.83 1439.18,-252.63 1443.38,-247.03"/>
</g>
<!-- Node63&#45;&gt;Node30 -->
<g id="edge71" class="edge">
<title>Node63&#45;&gt;Node30</title>
<path fill="none" stroke="midnightblue" d="M2456.62,-280.45C2465.28,-271.91 2478.19,-258.06 2486.5,-244 2495.11,-229.44 2501.5,-211.26 2505.52,-197.83"/>
<polygon fill="midnightblue" stroke="midnightblue" points="2508.98,-198.43 2508.32,-187.86 2502.25,-196.53 2508.98,-198.43"/>
</g>
<!-- Node70&#45;&gt;Node30 -->
<g id="edge78" class="edge">
<title>Node70&#45;&gt;Node30</title>
<path fill="none" stroke="midnightblue" d="M2304.08,-280.43C2333.59,-272.82 2375.78,-260.37 2410.5,-244 2440.38,-229.91 2471.86,-208.13 2491.34,-193.72"/>
<polygon fill="midnightblue" stroke="midnightblue" points="2493.5,-196.48 2499.4,-187.68 2489.3,-190.88 2493.5,-196.48"/>
</g>
</g>
</svg>
