<?xml version="1.0" encoding="UTF-8" standalone="no"?>
<!DOCTYPE svg PUBLIC "-//W3C//DTD SVG 1.1//EN"
 "http://www.w3.org/Graphics/SVG/1.1/DTD/svg11.dtd">
<!-- Generated by graphviz version 2.43.0 (0)
 -->
<!-- Title: mime&#45;private.h Pages: 1 -->
<svg width="211pt" height="84pt"
 viewBox="0.00 0.00 210.50 84.00" xmlns="http://www.w3.org/2000/svg" xmlns:xlink="http://www.w3.org/1999/xlink">
<g id="graph0" class="graph" transform="scale(1 1) rotate(0) translate(4 80)">
<title>mime&#45;private.h</title>
<polygon fill="white" stroke="transparent" points="-4,4 -4,-80 206.5,-80 206.5,4 -4,4"/>
<!-- Node1 -->
<g id="node1" class="node">
<title>Node1</title>
<g id="a_node1"><a xlink:title=" ">
<polygon fill="#bfbfbf" stroke="black" points="53.5,-56.5 53.5,-75.5 145.5,-75.5 145.5,-56.5 53.5,-56.5"/>
<text text-anchor="middle" x="99.5" y="-63.5" font-family="FreeSans" font-size="10.00">mime&#45;private.h</text>
</a>
</g>
</g>
<!-- Node2 -->
<g id="node2" class="node">
<title>Node2</title>
<g id="a_node2"><a xlink:href="mime_8c.html" target="_top" xlink:title=" ">
<polygon fill="white" stroke="black" points="0,-0.5 0,-19.5 53,-19.5 53,-0.5 0,-0.5"/>
<text text-anchor="middle" x="26.5" y="-7.5" font-family="FreeSans" font-size="10.00">mime.c</text>
</a>
</g>
</g>
<!-- Node1&#45;&gt;Node2 -->
<g id="edge1" class="edge">
<title>Node1&#45;&gt;Node2</title>
<path fill="none" stroke="midnightblue" d="M79.36,-50.1C66.22,-40.38 49.52,-28.03 38.44,-19.83"/>
<polygon fill="midnightblue" stroke="midnightblue" points="77.65,-53.19 87.77,-56.32 81.81,-47.56 77.65,-53.19"/>
</g>
<!-- Node3 -->
<g id="node3" class="node">
<title>Node3</title>
<g id="a_node3"><a xlink:href="opencl_8c.html" target="_top" xlink:title=" ">
<polygon fill="white" stroke="black" points="71,-0.5 71,-19.5 128,-19.5 128,-0.5 71,-0.5"/>
<text text-anchor="middle" x="99.5" y="-7.5" font-family="FreeSans" font-size="10.00">opencl.c</text>
</a>
</g>
</g>
<!-- Node1&#45;&gt;Node3 -->
<g id="edge2" class="edge">
<title>Node1&#45;&gt;Node3</title>
<path fill="none" stroke="midnightblue" d="M99.5,-45.8C99.5,-36.91 99.5,-26.78 99.5,-19.75"/>
<polygon fill="midnightblue" stroke="midnightblue" points="96,-46.08 99.5,-56.08 103,-46.08 96,-46.08"/>
</g>
<!-- Node4 -->
<g id="node4" class="node">
<title>Node4</title>
<g id="a_node4"><a xlink:href="option_8c.html" target="_top" xlink:title=" ">
<polygon fill="white" stroke="black" points="146.5,-0.5 146.5,-19.5 202.5,-19.5 202.5,-0.5 146.5,-0.5"/>
<text text-anchor="middle" x="174.5" y="-7.5" font-family="FreeSans" font-size="10.00">option.c</text>
</a>
</g>
</g>
<!-- Node1&#45;&gt;Node4 -->
<g id="edge3" class="edge">
<title>Node1&#45;&gt;Node4</title>
<path fill="none" stroke="midnightblue" d="M119.81,-50.38C133.36,-40.62 150.74,-28.11 162.23,-19.83"/>
<polygon fill="midnightblue" stroke="midnightblue" points="117.62,-47.64 111.55,-56.32 121.71,-53.32 117.62,-47.64"/>
</g>
</g>
</svg>
