<?xml version="1.0" encoding="UTF-8" standalone="no"?>
<!DOCTYPE svg PUBLIC "-//W3C//DTD SVG 1.1//EN"
 "http://www.w3.org/Graphics/SVG/1.1/DTD/svg11.dtd">
<!-- Generated by graphviz version 2.43.0 (0)
 -->
<!-- Title: module.c Pages: 1 -->
<svg width="2684pt" height="364pt"
 viewBox="0.00 0.00 2684.26 364.00" xmlns="http://www.w3.org/2000/svg" xmlns:xlink="http://www.w3.org/1999/xlink">
<g id="graph0" class="graph" transform="scale(1 1) rotate(0) translate(4 360)">
<title>module.c</title>
<polygon fill="white" stroke="transparent" points="-4,4 -4,-360 2680.26,-360 2680.26,4 -4,4"/>
<!-- Node1 -->
<g id="node1" class="node">
<title>Node1</title>
<g id="a_node1"><a xlink:title=" ">
<polygon fill="#bfbfbf" stroke="black" points="950.76,-336.5 950.76,-355.5 1012.76,-355.5 1012.76,-336.5 950.76,-336.5"/>
<text text-anchor="middle" x="981.76" y="-343.5" font-family="FreeSans" font-size="10.00">module.c</text>
</a>
</g>
</g>
<!-- Node2 -->
<g id="node2" class="node">
<title>Node2</title>
<g id="a_node2"><a xlink:href="studio_8h.html" target="_top" xlink:title=" ">
<polygon fill="white" stroke="black" points="1768.26,-224.5 1768.26,-243.5 1863.26,-243.5 1863.26,-224.5 1768.26,-224.5"/>
<text text-anchor="middle" x="1815.76" y="-231.5" font-family="FreeSans" font-size="10.00">magick/studio.h</text>
</a>
</g>
</g>
<!-- Node1&#45;&gt;Node2 -->
<g id="edge1" class="edge">
<title>Node1&#45;&gt;Node2</title>
<path fill="none" stroke="midnightblue" d="M1001.91,-336.38C1021.9,-327.67 1053.29,-313.61 1079.76,-300 1095.7,-291.81 1097.6,-285.15 1114.76,-280 1234.53,-244.05 1612.27,-236.82 1757.8,-235.37"/>
<polygon fill="midnightblue" stroke="midnightblue" points="1757.91,-238.86 1767.88,-235.27 1757.84,-231.87 1757.91,-238.86"/>
</g>
<!-- Node24 -->
<g id="node23" class="node">
<title>Node24</title>
<g id="a_node23"><a xlink:href="blob_8h.html" target="_top" xlink:title=" ">
<polygon fill="white" stroke="black" points="986.76,-224.5 986.76,-243.5 1072.76,-243.5 1072.76,-224.5 986.76,-224.5"/>
<text text-anchor="middle" x="1029.76" y="-231.5" font-family="FreeSans" font-size="10.00">magick/blob.h</text>
</a>
</g>
</g>
<!-- Node1&#45;&gt;Node24 -->
<g id="edge23" class="edge">
<title>Node1&#45;&gt;Node24</title>
<path fill="none" stroke="midnightblue" d="M984.51,-336.44C988.63,-323.86 996.9,-299.75 1005.76,-280 1009.89,-270.81 1015.08,-260.9 1019.59,-252.73"/>
<polygon fill="midnightblue" stroke="midnightblue" points="1022.77,-254.22 1024.62,-243.79 1016.66,-250.79 1022.77,-254.22"/>
</g>
<!-- Node31 -->
<g id="node28" class="node">
<title>Node31</title>
<g id="a_node28"><a xlink:href="semaphore_8h.html" target="_top" xlink:title=" ">
<polygon fill="white" stroke="black" points="609.26,-112.5 609.26,-131.5 728.26,-131.5 728.26,-112.5 609.26,-112.5"/>
<text text-anchor="middle" x="668.76" y="-119.5" font-family="FreeSans" font-size="10.00">magick/semaphore.h</text>
</a>
</g>
</g>
<!-- Node1&#45;&gt;Node31 -->
<g id="edge77" class="edge">
<title>Node1&#45;&gt;Node31</title>
<path fill="none" stroke="midnightblue" d="M950.64,-345.03C881.35,-344.39 717.66,-338.72 681.76,-300 641.31,-256.37 654.49,-177.85 663.41,-141.9"/>
<polygon fill="midnightblue" stroke="midnightblue" points="666.9,-142.39 666.08,-131.82 660.13,-140.59 666.9,-142.39"/>
</g>
<!-- Node50 -->
<g id="node30" class="node">
<title>Node50</title>
<g id="a_node30"><a xlink:href="coder_8h.html" target="_top" xlink:title=" ">
<polygon fill="white" stroke="black" points="1124.26,-280.5 1124.26,-299.5 1215.26,-299.5 1215.26,-280.5 1124.26,-280.5"/>
<text text-anchor="middle" x="1169.76" y="-287.5" font-family="FreeSans" font-size="10.00">magick/coder.h</text>
</a>
</g>
</g>
<!-- Node1&#45;&gt;Node50 -->
<g id="edge33" class="edge">
<title>Node1&#45;&gt;Node50</title>
<path fill="none" stroke="midnightblue" d="M1011.55,-336.44C1043.59,-327.24 1094.7,-312.56 1130.12,-302.39"/>
<polygon fill="midnightblue" stroke="midnightblue" points="1131.47,-305.64 1140.11,-299.52 1129.54,-298.91 1131.47,-305.64"/>
</g>
<!-- Node51 -->
<g id="node31" class="node">
<title>Node51</title>
<g id="a_node31"><a xlink:href="client_8h.html" target="_top" xlink:title=" ">
<polygon fill="white" stroke="black" points="1233.76,-280.5 1233.76,-299.5 1325.76,-299.5 1325.76,-280.5 1233.76,-280.5"/>
<text text-anchor="middle" x="1279.76" y="-287.5" font-family="FreeSans" font-size="10.00">magick/client.h</text>
</a>
</g>
</g>
<!-- Node1&#45;&gt;Node51 -->
<g id="edge34" class="edge">
<title>Node1&#45;&gt;Node51</title>
<path fill="none" stroke="midnightblue" d="M1012.81,-339.37C1062.66,-330.34 1161.26,-312.47 1223.67,-301.16"/>
<polygon fill="midnightblue" stroke="midnightblue" points="1224.53,-304.57 1233.74,-299.34 1223.28,-297.68 1224.53,-304.57"/>
</g>
<!-- Node52 -->
<g id="node32" class="node">
<title>Node52</title>
<g id="a_node32"><a xlink:href="configure_8h.html" target="_top" xlink:title=" ">
<polygon fill="white" stroke="black" points="1381.76,-280.5 1381.76,-299.5 1491.76,-299.5 1491.76,-280.5 1381.76,-280.5"/>
<text text-anchor="middle" x="1436.76" y="-287.5" font-family="FreeSans" font-size="10.00">magick/configure.h</text>
</a>
</g>
</g>
<!-- Node1&#45;&gt;Node52 -->
<g id="edge35" class="edge">
<title>Node1&#45;&gt;Node52</title>
<path fill="none" stroke="midnightblue" d="M1012.8,-341.53C1078.38,-334.16 1235.85,-316.29 1367.76,-300 1368.87,-299.86 1369.99,-299.72 1371.12,-299.58"/>
<polygon fill="midnightblue" stroke="midnightblue" points="1371.93,-303.01 1381.41,-298.29 1371.05,-296.06 1371.93,-303.01"/>
</g>
<!-- Node40 -->
<g id="node33" class="node">
<title>Node40</title>
<g id="a_node33"><a xlink:href="hashmap_8h.html" target="_top" xlink:title=" ">
<polygon fill="white" stroke="black" points="1881.76,-224.5 1881.76,-243.5 1991.76,-243.5 1991.76,-224.5 1881.76,-224.5"/>
<text text-anchor="middle" x="1936.76" y="-231.5" font-family="FreeSans" font-size="10.00">magick/hashmap.h</text>
</a>
</g>
</g>
<!-- Node1&#45;&gt;Node40 -->
<g id="edge63" class="edge">
<title>Node1&#45;&gt;Node40</title>
<path fill="none" stroke="midnightblue" d="M1012.77,-344.73C1075.19,-343.39 1219.87,-336.25 1334.76,-300 1352.96,-294.26 1354.41,-285.24 1372.76,-280 1583.86,-219.72 1649.3,-266.12 1871.61,-244.03"/>
<polygon fill="midnightblue" stroke="midnightblue" points="1872.05,-247.5 1881.63,-242.99 1871.33,-240.54 1872.05,-247.5"/>
</g>
<!-- Node53 -->
<g id="node34" class="node">
<title>Node53</title>
<g id="a_node34"><a xlink:href="deprecate_8h.html" target="_top" xlink:title=" ">
<polygon fill="white" stroke="red" points="840.26,-280.5 840.26,-299.5 953.26,-299.5 953.26,-280.5 840.26,-280.5"/>
<text text-anchor="middle" x="896.76" y="-287.5" font-family="FreeSans" font-size="10.00">magick/deprecate.h</text>
</a>
</g>
</g>
<!-- Node1&#45;&gt;Node53 -->
<g id="edge37" class="edge">
<title>Node1&#45;&gt;Node53</title>
<path fill="none" stroke="midnightblue" d="M968.11,-336.32C954.85,-327.9 934.49,-314.97 918.92,-305.07"/>
<polygon fill="midnightblue" stroke="midnightblue" points="920.7,-302.06 910.39,-299.65 916.95,-307.97 920.7,-302.06"/>
</g>
<!-- Node30 -->
<g id="node36" class="node">
<title>Node30</title>
<g id="a_node36"><a xlink:href="exception_8h.html" target="_top" xlink:title=" ">
<polygon fill="white" stroke="black" points="375.26,-168.5 375.26,-187.5 488.26,-187.5 488.26,-168.5 375.26,-168.5"/>
<text text-anchor="middle" x="431.76" y="-175.5" font-family="FreeSans" font-size="10.00">magick/exception.h</text>
</a>
</g>
</g>
<!-- Node1&#45;&gt;Node30 -->
<g id="edge48" class="edge">
<title>Node1&#45;&gt;Node30</title>
<path fill="none" stroke="midnightblue" d="M950.67,-345.34C855.89,-345.86 562.61,-343.57 324.76,-300 240.26,-284.52 190.96,-312.99 139.76,-244 134.47,-236.86 133.98,-230.75 139.76,-224 154.25,-207.11 283.33,-192.43 364.95,-184.74"/>
<polygon fill="midnightblue" stroke="midnightblue" points="365.52,-188.2 375.15,-183.79 364.87,-181.23 365.52,-188.2"/>
</g>
<!-- Node58 -->
<g id="node37" class="node">
<title>Node58</title>
<g id="a_node37"><a xlink:href="exception-private_8h.html" target="_top" xlink:title=" ">
<polygon fill="white" stroke="black" points="445.26,-280.5 445.26,-299.5 596.26,-299.5 596.26,-280.5 445.26,-280.5"/>
<text text-anchor="middle" x="520.76" y="-287.5" font-family="FreeSans" font-size="10.00">magick/exception&#45;private.h</text>
</a>
</g>
</g>
<!-- Node1&#45;&gt;Node58 -->
<g id="edge51" class="edge">
<title>Node1&#45;&gt;Node58</title>
<path fill="none" stroke="midnightblue" d="M950.44,-341.33C880.03,-333.08 707.33,-312.85 603.58,-300.7"/>
<polygon fill="midnightblue" stroke="midnightblue" points="603.79,-297.2 593.45,-299.51 602.97,-304.15 603.79,-297.2"/>
</g>
<!-- Node59 -->
<g id="node38" class="node">
<title>Node59</title>
<g id="a_node38"><a xlink:href="log_8h.html" target="_top" xlink:title=" ">
<polygon fill="white" stroke="black" points="12.76,-224.5 12.76,-243.5 92.76,-243.5 92.76,-224.5 12.76,-224.5"/>
<text text-anchor="middle" x="52.76" y="-231.5" font-family="FreeSans" font-size="10.00">magick/log.h</text>
</a>
</g>
</g>
<!-- Node1&#45;&gt;Node59 -->
<g id="edge62" class="edge">
<title>Node1&#45;&gt;Node59</title>
<path fill="none" stroke="midnightblue" d="M950.73,-344.87C803.96,-344.07 183.43,-338.41 106.76,-300 86.53,-289.86 71.08,-268.35 61.99,-252.85"/>
<polygon fill="midnightblue" stroke="midnightblue" points="64.84,-250.77 56.95,-243.71 58.71,-254.15 64.84,-250.77"/>
</g>
<!-- Node60 -->
<g id="node39" class="node">
<title>Node60</title>
<g id="a_node39"><a xlink:href="magick_8h.html" target="_top" xlink:title=" ">
<polygon fill="white" stroke="black" points="533.26,-224.5 533.26,-243.5 634.26,-243.5 634.26,-224.5 533.26,-224.5"/>
<text text-anchor="middle" x="583.76" y="-231.5" font-family="FreeSans" font-size="10.00">magick/magick.h</text>
</a>
</g>
</g>
<!-- Node1&#45;&gt;Node60 -->
<g id="edge65" class="edge">
<title>Node1&#45;&gt;Node60</title>
<path fill="none" stroke="midnightblue" d="M950.61,-343.33C878.37,-339.05 701.56,-326.15 648.76,-300 626.29,-288.87 606.91,-266.91 595.3,-251.61"/>
<polygon fill="midnightblue" stroke="midnightblue" points="598.11,-249.53 589.39,-243.5 592.45,-253.65 598.11,-249.53"/>
</g>
<!-- Node43 -->
<g id="node40" class="node">
<title>Node43</title>
<g id="a_node40"><a xlink:href="string___8h.html" target="_top" xlink:title=" ">
<polygon fill="white" stroke="black" points="416.76,-224.5 416.76,-243.5 514.76,-243.5 514.76,-224.5 416.76,-224.5"/>
<text text-anchor="middle" x="465.76" y="-231.5" font-family="FreeSans" font-size="10.00">magick/string_.h</text>
</a>
</g>
</g>
<!-- Node1&#45;&gt;Node43 -->
<g id="edge80" class="edge">
<title>Node1&#45;&gt;Node43</title>
<path fill="none" stroke="midnightblue" d="M950.43,-344.83C839.57,-343.91 470.76,-338 435.76,-300 422.81,-285.94 436.25,-265.31 449.05,-251.08"/>
<polygon fill="midnightblue" stroke="midnightblue" points="451.89,-253.17 456.3,-243.54 446.85,-248.32 451.89,-253.17"/>
</g>
<!-- Node61 -->
<g id="node41" class="node">
<title>Node61</title>
<g id="a_node41"><a xlink:href="magic_8h.html" target="_top" xlink:title=" ">
<polygon fill="white" stroke="black" points="1510.26,-280.5 1510.26,-299.5 1605.26,-299.5 1605.26,-280.5 1510.26,-280.5"/>
<text text-anchor="middle" x="1557.76" y="-287.5" font-family="FreeSans" font-size="10.00">magick/magic.h</text>
</a>
</g>
</g>
<!-- Node1&#45;&gt;Node61 -->
<g id="edge64" class="edge">
<title>Node1&#45;&gt;Node61</title>
<path fill="none" stroke="midnightblue" d="M1012.85,-343.07C1092.16,-337.98 1308.7,-323.06 1500.24,-299.97"/>
<polygon fill="midnightblue" stroke="midnightblue" points="1500.71,-303.44 1510.21,-298.76 1499.86,-296.5 1500.71,-303.44"/>
</g>
<!-- Node62 -->
<g id="node42" class="node">
<title>Node62</title>
<g id="a_node42"><a xlink:href="memory___8h.html" target="_top" xlink:title=" ">
<polygon fill="white" stroke="black" points="1248.26,-224.5 1248.26,-243.5 1359.26,-243.5 1359.26,-224.5 1248.26,-224.5"/>
<text text-anchor="middle" x="1303.76" y="-231.5" font-family="FreeSans" font-size="10.00">magick/memory_.h</text>
</a>
</g>
</g>
<!-- Node1&#45;&gt;Node62 -->
<g id="edge66" class="edge">
<title>Node1&#45;&gt;Node62</title>
<path fill="none" stroke="midnightblue" d="M993.94,-336.25C1016.31,-320.32 1063.36,-287.52 1081.76,-280 1109.86,-268.51 1184.81,-254.51 1239.88,-245.21"/>
<polygon fill="midnightblue" stroke="midnightblue" points="1240.64,-248.63 1249.92,-243.53 1239.48,-241.73 1240.64,-248.63"/>
</g>
<!-- Node63 -->
<g id="node43" class="node">
<title>Node63</title>
<g id="a_node43"><a xlink:href="module_8h.html" target="_top" xlink:title=" ">
<polygon fill="white" stroke="red" points="1129.26,-224.5 1129.26,-243.5 1230.26,-243.5 1230.26,-224.5 1129.26,-224.5"/>
<text text-anchor="middle" x="1179.76" y="-231.5" font-family="FreeSans" font-size="10.00">magick/module.h</text>
</a>
</g>
</g>
<!-- Node1&#45;&gt;Node63 -->
<g id="edge69" class="edge">
<title>Node1&#45;&gt;Node63</title>
<path fill="none" stroke="midnightblue" d="M987.96,-336.11C998.09,-322.21 1019.52,-295.35 1043.76,-280 1069.01,-264.02 1100.52,-253.13 1126.85,-246.07"/>
<polygon fill="midnightblue" stroke="midnightblue" points="1127.84,-249.42 1136.66,-243.55 1126.1,-242.64 1127.84,-249.42"/>
</g>
<!-- Node65 -->
<g id="node44" class="node">
<title>Node65</title>
<g id="a_node44"><a xlink:href="nt-base-private_8h.html" target="_top" xlink:title=" ">
<polygon fill="white" stroke="red" points="148.76,-224.5 148.76,-243.5 288.76,-243.5 288.76,-224.5 148.76,-224.5"/>
<text text-anchor="middle" x="218.76" y="-231.5" font-family="FreeSans" font-size="10.00">magick/nt&#45;base&#45;private.h</text>
</a>
</g>
</g>
<!-- Node1&#45;&gt;Node65 -->
<g id="edge71" class="edge">
<title>Node1&#45;&gt;Node65</title>
<path fill="none" stroke="midnightblue" d="M950.62,-343.79C844.84,-339.49 499.96,-323.94 391.76,-300 338.16,-288.14 278.92,-263.09 245.53,-247.79"/>
<polygon fill="midnightblue" stroke="midnightblue" points="246.97,-244.6 236.43,-243.56 244.03,-250.95 246.97,-244.6"/>
</g>
<!-- Node68 -->
<g id="node45" class="node">
<title>Node68</title>
<g id="a_node45"><a xlink:href="splay-tree_8h.html" target="_top" xlink:title=" ">
<polygon fill="white" stroke="black" points="141.76,-168.5 141.76,-187.5 255.76,-187.5 255.76,-168.5 141.76,-168.5"/>
<text text-anchor="middle" x="198.76" y="-175.5" font-family="FreeSans" font-size="10.00">magick/splay&#45;tree.h</text>
</a>
</g>
</g>
<!-- Node1&#45;&gt;Node68 -->
<g id="edge78" class="edge">
<title>Node1&#45;&gt;Node68</title>
<path fill="none" stroke="midnightblue" d="M950.41,-344.52C800.66,-342.09 162.11,-330.01 78.76,-300 39.62,-285.91 22.41,-281.19 3.76,-244 -0.22,-236.05 -1.77,-230.96 3.76,-224 19.65,-204.03 81.5,-192.16 131.34,-185.67"/>
<polygon fill="midnightblue" stroke="midnightblue" points="131.96,-189.12 141.45,-184.41 131.09,-182.18 131.96,-189.12"/>
</g>
<!-- Node69 -->
<g id="node46" class="node">
<title>Node69</title>
<g id="a_node46"><a xlink:href="policy_8h.html" target="_top" xlink:title=" ">
<polygon fill="white" stroke="black" points="306.76,-224.5 306.76,-243.5 398.76,-243.5 398.76,-224.5 306.76,-224.5"/>
<text text-anchor="middle" x="352.76" y="-231.5" font-family="FreeSans" font-size="10.00">magick/policy.h</text>
</a>
</g>
</g>
<!-- Node1&#45;&gt;Node69 -->
<g id="edge74" class="edge">
<title>Node1&#45;&gt;Node69</title>
<path fill="none" stroke="midnightblue" d="M950.62,-345.03C848.12,-344.72 522.34,-340.5 426.76,-300 401.79,-289.42 379.35,-266.99 365.9,-251.47"/>
<polygon fill="midnightblue" stroke="midnightblue" points="368.48,-249.1 359.39,-243.67 363.11,-253.59 368.48,-249.1"/>
</g>
<!-- Node70 -->
<g id="node47" class="node">
<title>Node70</title>
<g id="a_node47"><a xlink:href="static_8h.html" target="_top" xlink:title=" ">
<polygon fill="white" stroke="black" points="1623.76,-280.5 1623.76,-299.5 1715.76,-299.5 1715.76,-280.5 1623.76,-280.5"/>
<text text-anchor="middle" x="1669.76" y="-287.5" font-family="FreeSans" font-size="10.00">magick/static.h</text>
</a>
</g>
</g>
<!-- Node1&#45;&gt;Node70 -->
<g id="edge79" class="edge">
<title>Node1&#45;&gt;Node70</title>
<path fill="none" stroke="midnightblue" d="M1012.81,-343.8C1103.6,-340.07 1376.54,-327.34 1613.41,-300.05"/>
<polygon fill="midnightblue" stroke="midnightblue" points="1614.06,-303.5 1623.59,-298.87 1613.25,-296.55 1614.06,-303.5"/>
</g>
<!-- Node71 -->
<g id="node48" class="node">
<title>Node71</title>
<g id="a_node48"><a xlink:href="token_8h.html" target="_top" xlink:title=" ">
<polygon fill="white" stroke="black" points="1733.76,-280.5 1733.76,-299.5 1825.76,-299.5 1825.76,-280.5 1733.76,-280.5"/>
<text text-anchor="middle" x="1779.76" y="-287.5" font-family="FreeSans" font-size="10.00">magick/token.h</text>
</a>
</g>
</g>
<!-- Node1&#45;&gt;Node71 -->
<g id="edge81" class="edge">
<title>Node1&#45;&gt;Node71</title>
<path fill="none" stroke="midnightblue" d="M1013,-344.25C1114.18,-341.56 1442.12,-330.98 1723.6,-300.01"/>
<polygon fill="midnightblue" stroke="midnightblue" points="1724.04,-303.49 1733.6,-298.9 1723.27,-296.53 1724.04,-303.49"/>
</g>
<!-- Node72 -->
<g id="node49" class="node">
<title>Node72</title>
<g id="a_node49"><a xlink:href="utility_8h.html" target="_top" xlink:title=" ">
<polygon fill="white" stroke="black" points="1843.76,-280.5 1843.76,-299.5 1935.76,-299.5 1935.76,-280.5 1843.76,-280.5"/>
<text text-anchor="middle" x="1889.76" y="-287.5" font-family="FreeSans" font-size="10.00">magick/utility.h</text>
</a>
</g>
</g>
<!-- Node1&#45;&gt;Node72 -->
<g id="edge82" class="edge">
<title>Node1&#45;&gt;Node72</title>
<path fill="none" stroke="midnightblue" d="M1012.85,-344.59C1123.24,-342.87 1506.84,-334.68 1833.47,-300.02"/>
<polygon fill="midnightblue" stroke="midnightblue" points="1834.03,-303.48 1843.6,-298.93 1833.28,-296.52 1834.03,-303.48"/>
</g>
<!-- Node73 -->
<g id="node50" class="node">
<title>Node73</title>
<g id="a_node50"><a xlink:href="utility-private_8h.html" target="_top" xlink:title=" ">
<polygon fill="white" stroke="red" points="691.26,-280.5 691.26,-299.5 822.26,-299.5 822.26,-280.5 691.26,-280.5"/>
<text text-anchor="middle" x="756.76" y="-287.5" font-family="FreeSans" font-size="10.00">magick/utility&#45;private.h</text>
</a>
</g>
</g>
<!-- Node1&#45;&gt;Node73 -->
<g id="edge83" class="edge">
<title>Node1&#45;&gt;Node73</title>
<path fill="none" stroke="midnightblue" d="M950.48,-337.49C911.94,-328.24 846.18,-312.46 802.11,-301.88"/>
<polygon fill="midnightblue" stroke="midnightblue" points="802.77,-298.44 792.23,-299.51 801.14,-305.25 802.77,-298.44"/>
</g>
<!-- Node3 -->
<g id="node3" class="node">
<title>Node3</title>
<g id="a_node3"><a xlink:href="magick-config_8h.html" target="_top" xlink:title=" ">
<polygon fill="white" stroke="red" points="2037.76,-112.5 2037.76,-131.5 2171.76,-131.5 2171.76,-112.5 2037.76,-112.5"/>
<text text-anchor="middle" x="2104.76" y="-119.5" font-family="FreeSans" font-size="10.00">magick/magick&#45;config.h</text>
</a>
</g>
</g>
<!-- Node2&#45;&gt;Node3 -->
<g id="edge2" class="edge">
<title>Node2&#45;&gt;Node3</title>
<path fill="none" stroke="midnightblue" d="M1863.27,-225.41C1940.19,-213.07 2083.68,-189.85 2085.76,-188 2098.8,-176.43 2103.11,-156.47 2104.43,-141.71"/>
<polygon fill="midnightblue" stroke="midnightblue" points="2107.92,-141.83 2104.95,-131.67 2100.93,-141.47 2107.92,-141.83"/>
</g>
<!-- Node5 -->
<g id="node4" class="node">
<title>Node5</title>
<g id="a_node4"><a xlink:title=" ">
<polygon fill="white" stroke="#bfbfbf" points="507.76,-112.5 507.76,-131.5 563.76,-131.5 563.76,-112.5 507.76,-112.5"/>
<text text-anchor="middle" x="535.76" y="-119.5" font-family="FreeSans" font-size="10.00">stdarg.h</text>
</a>
</g>
</g>
<!-- Node2&#45;&gt;Node5 -->
<g id="edge3" class="edge">
<title>Node2&#45;&gt;Node5</title>
<path fill="none" stroke="midnightblue" d="M1768.23,-230.53C1668.76,-224.99 1441.77,-210.27 1367.76,-188 1349.49,-182.5 1348.17,-173.03 1329.76,-168 1173.09,-125.17 761.46,-147.32 599.76,-132 591.42,-131.21 582.51,-130.12 574.06,-128.96"/>
<polygon fill="midnightblue" stroke="midnightblue" points="574.45,-125.48 564.05,-127.54 573.46,-132.41 574.45,-125.48"/>
</g>
<!-- Node6 -->
<g id="node5" class="node">
<title>Node6</title>
<g id="a_node5"><a xlink:title=" ">
<polygon fill="white" stroke="#bfbfbf" points="2276.76,-168.5 2276.76,-187.5 2326.76,-187.5 2326.76,-168.5 2276.76,-168.5"/>
<text text-anchor="middle" x="2301.76" y="-175.5" font-family="FreeSans" font-size="10.00">stdio.h</text>
</a>
</g>
</g>
<!-- Node2&#45;&gt;Node6 -->
<g id="edge4" class="edge">
<title>Node2&#45;&gt;Node6</title>
<path fill="none" stroke="midnightblue" d="M1863.32,-225.25C1866.51,-224.81 1869.68,-224.38 1872.76,-224 2044.45,-202.65 2092.4,-218.07 2266.6,-187.92"/>
<polygon fill="midnightblue" stroke="midnightblue" points="2267.37,-191.34 2276.62,-186.16 2266.16,-184.44 2267.37,-191.34"/>
</g>
<!-- Node7 -->
<g id="node6" class="node">
<title>Node7</title>
<g id="a_node6"><a xlink:title=" ">
<polygon fill="white" stroke="#bfbfbf" points="2345.26,-168.5 2345.26,-187.5 2398.26,-187.5 2398.26,-168.5 2345.26,-168.5"/>
<text text-anchor="middle" x="2371.76" y="-175.5" font-family="FreeSans" font-size="10.00">ctype.h</text>
</a>
</g>
</g>
<!-- Node2&#45;&gt;Node7 -->
<g id="edge5" class="edge">
<title>Node2&#45;&gt;Node7</title>
<path fill="none" stroke="midnightblue" d="M1863.31,-225.2C1866.51,-224.77 1869.68,-224.36 1872.76,-224 2074.55,-200.26 2130.31,-220.49 2335.26,-187.78"/>
<polygon fill="midnightblue" stroke="midnightblue" points="2335.82,-191.24 2345.13,-186.19 2334.7,-184.33 2335.82,-191.24"/>
</g>
<!-- Node8 -->
<g id="node7" class="node">
<title>Node8</title>
<g id="a_node7"><a xlink:title=" ">
<polygon fill="white" stroke="#bfbfbf" points="2416.26,-168.5 2416.26,-187.5 2471.26,-187.5 2471.26,-168.5 2416.26,-168.5"/>
<text text-anchor="middle" x="2443.76" y="-175.5" font-family="FreeSans" font-size="10.00">locale.h</text>
</a>
</g>
</g>
<!-- Node2&#45;&gt;Node8 -->
<g id="edge6" class="edge">
<title>Node2&#45;&gt;Node8</title>
<path fill="none" stroke="midnightblue" d="M1863.31,-225.17C1866.5,-224.74 1869.68,-224.35 1872.76,-224 2106.35,-197.75 2170.6,-224.3 2406.06,-188.02"/>
<polygon fill="midnightblue" stroke="midnightblue" points="2406.62,-191.47 2415.96,-186.47 2405.53,-184.56 2406.62,-191.47"/>
</g>
<!-- Node9 -->
<g id="node8" class="node">
<title>Node9</title>
<g id="a_node8"><a xlink:title=" ">
<polygon fill="white" stroke="#bfbfbf" points="1195.26,-168.5 1195.26,-187.5 1246.26,-187.5 1246.26,-168.5 1195.26,-168.5"/>
<text text-anchor="middle" x="1220.76" y="-175.5" font-family="FreeSans" font-size="10.00">errno.h</text>
</a>
</g>
</g>
<!-- Node2&#45;&gt;Node9 -->
<g id="edge7" class="edge">
<title>Node2&#45;&gt;Node9</title>
<path fill="none" stroke="midnightblue" d="M1768.23,-231.93C1672.9,-229.18 1451.56,-219.82 1256.42,-187.79"/>
<polygon fill="midnightblue" stroke="midnightblue" points="1256.71,-184.29 1246.27,-186.1 1255.56,-191.19 1256.71,-184.29"/>
</g>
<!-- Node10 -->
<g id="node9" class="node">
<title>Node10</title>
<g id="a_node9"><a xlink:title=" ">
<polygon fill="white" stroke="#bfbfbf" points="2489.26,-168.5 2489.26,-187.5 2536.26,-187.5 2536.26,-168.5 2489.26,-168.5"/>
<text text-anchor="middle" x="2512.76" y="-175.5" font-family="FreeSans" font-size="10.00">fcntl.h</text>
</a>
</g>
</g>
<!-- Node2&#45;&gt;Node10 -->
<g id="edge8" class="edge">
<title>Node2&#45;&gt;Node10</title>
<path fill="none" stroke="midnightblue" d="M1863.3,-225.14C1866.5,-224.72 1869.68,-224.33 1872.76,-224 2138.6,-195.21 2212.03,-231.99 2479.13,-187.93"/>
<polygon fill="midnightblue" stroke="midnightblue" points="2479.84,-191.36 2489.13,-186.26 2478.69,-184.46 2479.84,-191.36"/>
</g>
<!-- Node11 -->
<g id="node10" class="node">
<title>Node11</title>
<g id="a_node10"><a xlink:title=" ">
<polygon fill="white" stroke="#bfbfbf" points="2554.26,-168.5 2554.26,-187.5 2605.26,-187.5 2605.26,-168.5 2554.26,-168.5"/>
<text text-anchor="middle" x="2579.76" y="-175.5" font-family="FreeSans" font-size="10.00">math.h</text>
</a>
</g>
</g>
<!-- Node2&#45;&gt;Node11 -->
<g id="edge9" class="edge">
<title>Node2&#45;&gt;Node11</title>
<path fill="none" stroke="midnightblue" d="M1863.3,-225.12C1866.5,-224.7 1869.67,-224.33 1872.76,-224 2167.31,-192.95 2248.06,-233.64 2543.73,-188.02"/>
<polygon fill="midnightblue" stroke="midnightblue" points="2544.55,-191.44 2553.89,-186.43 2543.47,-184.52 2544.55,-191.44"/>
</g>
<!-- Node12 -->
<g id="node11" class="node">
<title>Node12</title>
<g id="a_node11"><a xlink:title=" ">
<polygon fill="white" stroke="#bfbfbf" points="1128.76,-168.5 1128.76,-187.5 1176.76,-187.5 1176.76,-168.5 1128.76,-168.5"/>
<text text-anchor="middle" x="1152.76" y="-175.5" font-family="FreeSans" font-size="10.00">time.h</text>
</a>
</g>
</g>
<!-- Node2&#45;&gt;Node12 -->
<g id="edge10" class="edge">
<title>Node2&#45;&gt;Node12</title>
<path fill="none" stroke="midnightblue" d="M1767.97,-232.75C1663.79,-231.53 1408.5,-224.85 1186.66,-187.81"/>
<polygon fill="midnightblue" stroke="midnightblue" points="1187.24,-184.36 1176.79,-186.14 1186.07,-191.26 1187.24,-184.36"/>
</g>
<!-- Node13 -->
<g id="node12" class="node">
<title>Node13</title>
<g id="a_node12"><a xlink:title=" ">
<polygon fill="white" stroke="#bfbfbf" points="2623.26,-168.5 2623.26,-187.5 2676.26,-187.5 2676.26,-168.5 2623.26,-168.5"/>
<text text-anchor="middle" x="2649.76" y="-175.5" font-family="FreeSans" font-size="10.00">limits.h</text>
</a>
</g>
</g>
<!-- Node2&#45;&gt;Node13 -->
<g id="edge11" class="edge">
<title>Node2&#45;&gt;Node13</title>
<path fill="none" stroke="midnightblue" d="M1863.3,-225.1C1866.5,-224.69 1869.67,-224.32 1872.76,-224 2197.83,-190.55 2286.5,-236.41 2612.9,-187.98"/>
<polygon fill="midnightblue" stroke="midnightblue" points="2613.76,-191.39 2623.12,-186.44 2612.72,-184.47 2613.76,-191.39"/>
</g>
<!-- Node14 -->
<g id="node13" class="node">
<title>Node14</title>
<g id="a_node13"><a xlink:title=" ">
<polygon fill="white" stroke="#bfbfbf" points="1377.26,-168.5 1377.26,-187.5 1432.26,-187.5 1432.26,-168.5 1377.26,-168.5"/>
<text text-anchor="middle" x="1404.76" y="-175.5" font-family="FreeSans" font-size="10.00">signal.h</text>
</a>
</g>
</g>
<!-- Node2&#45;&gt;Node14 -->
<g id="edge12" class="edge">
<title>Node2&#45;&gt;Node14</title>
<path fill="none" stroke="midnightblue" d="M1768.26,-229.11C1698.85,-223.02 1565.51,-209.82 1442.53,-187.94"/>
<polygon fill="midnightblue" stroke="midnightblue" points="1443.03,-184.47 1432.57,-186.14 1441.79,-191.36 1443.03,-184.47"/>
</g>
<!-- Node15 -->
<g id="node14" class="node">
<title>Node15</title>
<g id="a_node14"><a xlink:title=" ">
<polygon fill="white" stroke="#bfbfbf" points="1264.76,-168.5 1264.76,-187.5 1320.76,-187.5 1320.76,-168.5 1264.76,-168.5"/>
<text text-anchor="middle" x="1292.76" y="-175.5" font-family="FreeSans" font-size="10.00">assert.h</text>
</a>
</g>
</g>
<!-- Node2&#45;&gt;Node15 -->
<g id="edge13" class="edge">
<title>Node2&#45;&gt;Node15</title>
<path fill="none" stroke="midnightblue" d="M1768.09,-230.41C1681.43,-225.28 1492.48,-212.19 1334.76,-188 1333.52,-187.81 1332.26,-187.6 1330.98,-187.39"/>
<polygon fill="midnightblue" stroke="midnightblue" points="1331.62,-183.95 1321.15,-185.56 1330.34,-190.83 1331.62,-183.95"/>
</g>
<!-- Node16 -->
<g id="node15" class="node">
<title>Node16</title>
<g id="a_node15"><a xlink:href="method-attribute_8h.html" target="_top" xlink:title=" ">
<polygon fill="white" stroke="black" points="1450.76,-168.5 1450.76,-187.5 1598.76,-187.5 1598.76,-168.5 1450.76,-168.5"/>
<text text-anchor="middle" x="1524.76" y="-175.5" font-family="FreeSans" font-size="10.00">magick/method&#45;attribute.h</text>
</a>
</g>
</g>
<!-- Node2&#45;&gt;Node16 -->
<g id="edge14" class="edge">
<title>Node2&#45;&gt;Node16</title>
<path fill="none" stroke="midnightblue" d="M1769.65,-224.44C1718.36,-214.92 1635.49,-199.55 1580.57,-189.36"/>
<polygon fill="midnightblue" stroke="midnightblue" points="1581.13,-185.9 1570.66,-187.52 1579.85,-192.78 1581.13,-185.9"/>
</g>
<!-- Node17 -->
<g id="node16" class="node">
<title>Node17</title>
<g id="a_node16"><a xlink:title=" ">
<polygon fill="white" stroke="#bfbfbf" points="1616.76,-168.5 1616.76,-187.5 1688.76,-187.5 1688.76,-168.5 1616.76,-168.5"/>
<text text-anchor="middle" x="1652.76" y="-175.5" font-family="FreeSans" font-size="10.00">sys/types.h</text>
</a>
</g>
</g>
<!-- Node2&#45;&gt;Node17 -->
<g id="edge15" class="edge">
<title>Node2&#45;&gt;Node17</title>
<path fill="none" stroke="midnightblue" d="M1789.93,-224.44C1762.51,-215.36 1718.99,-200.94 1688.33,-190.78"/>
<polygon fill="midnightblue" stroke="midnightblue" points="1689.06,-187.34 1678.47,-187.52 1686.86,-193.98 1689.06,-187.34"/>
</g>
<!-- Node18 -->
<g id="node17" class="node">
<title>Node18</title>
<g id="a_node17"><a xlink:title=" ">
<polygon fill="white" stroke="#bfbfbf" points="1706.76,-168.5 1706.76,-187.5 1770.76,-187.5 1770.76,-168.5 1706.76,-168.5"/>
<text text-anchor="middle" x="1738.76" y="-175.5" font-family="FreeSans" font-size="10.00">sys/stat.h</text>
</a>
</g>
</g>
<!-- Node2&#45;&gt;Node18 -->
<g id="edge16" class="edge">
<title>Node2&#45;&gt;Node18</title>
<path fill="none" stroke="midnightblue" d="M1803.39,-224.32C1791.6,-216.06 1773.63,-203.45 1759.63,-193.63"/>
<polygon fill="midnightblue" stroke="midnightblue" points="1761.3,-190.53 1751.1,-187.65 1757.28,-196.26 1761.3,-190.53"/>
</g>
<!-- Node19 -->
<g id="node18" class="node">
<title>Node19</title>
<g id="a_node18"><a xlink:title=" ">
<polygon fill="white" stroke="#bfbfbf" points="1788.76,-168.5 1788.76,-187.5 1842.76,-187.5 1842.76,-168.5 1788.76,-168.5"/>
<text text-anchor="middle" x="1815.76" y="-175.5" font-family="FreeSans" font-size="10.00">dirent.h</text>
</a>
</g>
</g>
<!-- Node2&#45;&gt;Node19 -->
<g id="edge17" class="edge">
<title>Node2&#45;&gt;Node19</title>
<path fill="none" stroke="midnightblue" d="M1815.76,-224.08C1815.76,-217.01 1815.76,-206.86 1815.76,-197.99"/>
<polygon fill="midnightblue" stroke="midnightblue" points="1819.26,-197.75 1815.76,-187.75 1812.26,-197.75 1819.26,-197.75"/>
</g>
<!-- Node20 -->
<g id="node19" class="node">
<title>Node20</title>
<g id="a_node19"><a xlink:title=" ">
<polygon fill="white" stroke="#bfbfbf" points="1860.76,-168.5 1860.76,-187.5 1926.76,-187.5 1926.76,-168.5 1860.76,-168.5"/>
<text text-anchor="middle" x="1893.76" y="-175.5" font-family="FreeSans" font-size="10.00">sys/wait.h</text>
</a>
</g>
</g>
<!-- Node2&#45;&gt;Node20 -->
<g id="edge18" class="edge">
<title>Node2&#45;&gt;Node20</title>
<path fill="none" stroke="midnightblue" d="M1828.29,-224.32C1840.35,-215.98 1858.79,-203.21 1873.03,-193.35"/>
<polygon fill="midnightblue" stroke="midnightblue" points="1875.03,-196.22 1881.26,-187.65 1871.05,-190.47 1875.03,-196.22"/>
</g>
<!-- Node21 -->
<g id="node20" class="node">
<title>Node21</title>
<g id="a_node20"><a xlink:title=" ">
<polygon fill="white" stroke="#bfbfbf" points="1944.76,-168.5 1944.76,-187.5 1990.76,-187.5 1990.76,-168.5 1944.76,-168.5"/>
<text text-anchor="middle" x="1967.76" y="-175.5" font-family="FreeSans" font-size="10.00">pwd.h</text>
</a>
</g>
</g>
<!-- Node2&#45;&gt;Node21 -->
<g id="edge19" class="edge">
<title>Node2&#45;&gt;Node21</title>
<path fill="none" stroke="midnightblue" d="M1839.85,-224.44C1865.46,-215.35 1906.13,-200.9 1934.72,-190.74"/>
<polygon fill="midnightblue" stroke="midnightblue" points="1936.04,-193.98 1944.29,-187.34 1933.7,-187.39 1936.04,-193.98"/>
</g>
<!-- Node22 -->
<g id="node21" class="node">
<title>Node22</title>
<g id="a_node21"><a xlink:href="magick-type_8h.html" target="_top" xlink:title=" ">
<polygon fill="white" stroke="black" points="2132.76,-168.5 2132.76,-187.5 2258.76,-187.5 2258.76,-168.5 2132.76,-168.5"/>
<text text-anchor="middle" x="2195.76" y="-175.5" font-family="FreeSans" font-size="10.00">magick/magick&#45;type.h</text>
</a>
</g>
</g>
<!-- Node2&#45;&gt;Node22 -->
<g id="edge20" class="edge">
<title>Node2&#45;&gt;Node22</title>
<path fill="none" stroke="midnightblue" d="M1863.34,-225.42C1866.53,-224.93 1869.69,-224.46 1872.76,-224 1958.35,-211.28 2056.86,-197.71 2122.36,-188.84"/>
<polygon fill="midnightblue" stroke="midnightblue" points="2123.14,-192.27 2132.58,-187.46 2122.21,-185.33 2123.14,-192.27"/>
</g>
<!-- Node23 -->
<g id="node22" class="node">
<title>Node23</title>
<g id="a_node22"><a xlink:title=" ">
<polygon fill="white" stroke="#bfbfbf" points="2008.76,-168.5 2008.76,-187.5 2076.76,-187.5 2076.76,-168.5 2008.76,-168.5"/>
<text text-anchor="middle" x="2042.76" y="-175.5" font-family="FreeSans" font-size="10.00">sys/time.h</text>
</a>
</g>
</g>
<!-- Node2&#45;&gt;Node23 -->
<g id="edge22" class="edge">
<title>Node2&#45;&gt;Node23</title>
<path fill="none" stroke="midnightblue" d="M1851.73,-224.44C1891.55,-214.97 1955.74,-199.7 1998.58,-189.51"/>
<polygon fill="midnightblue" stroke="midnightblue" points="1999.53,-192.88 2008.45,-187.16 1997.91,-186.07 1999.53,-192.88"/>
</g>
<!-- Node22&#45;&gt;Node3 -->
<g id="edge21" class="edge">
<title>Node22&#45;&gt;Node3</title>
<path fill="none" stroke="midnightblue" d="M2181.14,-168.32C2166.81,-159.82 2144.75,-146.73 2128.01,-136.8"/>
<polygon fill="midnightblue" stroke="midnightblue" points="2129.73,-133.75 2119.35,-131.65 2126.16,-139.77 2129.73,-133.75"/>
</g>
<!-- Node25 -->
<g id="node24" class="node">
<title>Node25</title>
<g id="a_node24"><a xlink:href="image_8h.html" target="_top" xlink:title=" ">
<polygon fill="white" stroke="red" points="939.26,-168.5 939.26,-187.5 1034.26,-187.5 1034.26,-168.5 939.26,-168.5"/>
<text text-anchor="middle" x="986.76" y="-175.5" font-family="FreeSans" font-size="10.00">magick/image.h</text>
</a>
</g>
</g>
<!-- Node24&#45;&gt;Node25 -->
<g id="edge24" class="edge">
<title>Node24&#45;&gt;Node25</title>
<path fill="none" stroke="midnightblue" d="M1017.5,-224.08C1009.89,-216.53 1000.71,-205.49 994.14,-196.23"/>
<polygon fill="midnightblue" stroke="midnightblue" points="997,-194.21 988.6,-187.75 991.14,-198.04 997,-194.21"/>
</g>
<!-- Node48 -->
<g id="node29" class="node">
<title>Node48</title>
<g id="a_node29"><a xlink:href="stream_8h.html" target="_top" xlink:title=" ">
<polygon fill="white" stroke="black" points="1057.26,-112.5 1057.26,-131.5 1156.26,-131.5 1156.26,-112.5 1057.26,-112.5"/>
<text text-anchor="middle" x="1106.76" y="-119.5" font-family="FreeSans" font-size="10.00">magick/stream.h</text>
</a>
</g>
</g>
<!-- Node24&#45;&gt;Node48 -->
<g id="edge32" class="edge">
<title>Node24&#45;&gt;Node48</title>
<path fill="none" stroke="midnightblue" d="M1035.8,-224.37C1048.51,-206.22 1078.2,-163.8 1094.87,-139.99"/>
<polygon fill="midnightblue" stroke="midnightblue" points="1097.88,-141.79 1100.75,-131.59 1092.15,-137.78 1097.88,-141.79"/>
</g>
<!-- Node25&#45;&gt;Node24 -->
<g id="edge25" class="edge">
<title>Node25&#45;&gt;Node24</title>
<path fill="none" stroke="midnightblue" d="M998.86,-187.75C1006.44,-195.25 1015.63,-206.27 1022.24,-215.57"/>
<polygon fill="midnightblue" stroke="midnightblue" points="1019.42,-217.64 1027.83,-224.08 1025.27,-213.8 1019.42,-217.64"/>
</g>
<!-- Node32 -->
<g id="node25" class="node">
<title>Node32</title>
<g id="a_node25"><a xlink:href="cache-view_8h.html" target="_top" xlink:title=" ">
<polygon fill="white" stroke="black" points="881.26,-112.5 881.26,-131.5 1000.26,-131.5 1000.26,-112.5 881.26,-112.5"/>
<text text-anchor="middle" x="940.76" y="-119.5" font-family="FreeSans" font-size="10.00">magick/cache&#45;view.h</text>
</a>
</g>
</g>
<!-- Node25&#45;&gt;Node32 -->
<g id="edge26" class="edge">
<title>Node25&#45;&gt;Node32</title>
<path fill="none" stroke="midnightblue" d="M979.17,-168.08C972.54,-160.3 962.74,-148.8 954.7,-139.37"/>
<polygon fill="midnightblue" stroke="midnightblue" points="957.37,-137.09 948.22,-131.75 952.04,-141.63 957.37,-137.09"/>
</g>
<!-- Node27 -->
<g id="node26" class="node">
<title>Node27</title>
<g id="a_node26"><a xlink:href="pixel_8h.html" target="_top" xlink:title=" ">
<polygon fill="white" stroke="red" points="806.76,-56.5 806.76,-75.5 894.76,-75.5 894.76,-56.5 806.76,-56.5"/>
<text text-anchor="middle" x="850.76" y="-63.5" font-family="FreeSans" font-size="10.00">magick/pixel.h</text>
</a>
</g>
</g>
<!-- Node25&#45;&gt;Node27 -->
<g id="edge29" class="edge">
<title>Node25&#45;&gt;Node27</title>
<path fill="none" stroke="midnightblue" d="M994.49,-168.18C1005.2,-154.86 1021.83,-129.3 1008.76,-112 996.09,-95.21 945.57,-82.83 905.02,-75.35"/>
<polygon fill="midnightblue" stroke="midnightblue" points="905.41,-71.87 894.96,-73.56 904.18,-78.76 905.41,-71.87"/>
</g>
<!-- Node25&#45;&gt;Node31 -->
<g id="edge30" class="edge">
<title>Node25&#45;&gt;Node31</title>
<path fill="none" stroke="midnightblue" d="M939.16,-168.92C883.11,-159.4 789.94,-143.58 728.94,-133.22"/>
<polygon fill="midnightblue" stroke="midnightblue" points="729.51,-129.77 719.06,-131.54 728.34,-136.67 729.51,-129.77"/>
</g>
<!-- Node25&#45;&gt;Node48 -->
<g id="edge31" class="edge">
<title>Node25&#45;&gt;Node48</title>
<path fill="none" stroke="midnightblue" d="M1005.78,-168.44C1025.35,-159.64 1056.07,-145.81 1078.49,-135.72"/>
<polygon fill="midnightblue" stroke="midnightblue" points="1080.15,-138.81 1087.84,-131.52 1077.28,-132.43 1080.15,-138.81"/>
</g>
<!-- Node32&#45;&gt;Node27 -->
<g id="edge27" class="edge">
<title>Node32&#45;&gt;Node27</title>
<path fill="none" stroke="midnightblue" d="M926.3,-112.32C912.26,-103.9 890.71,-90.97 874.22,-81.07"/>
<polygon fill="midnightblue" stroke="midnightblue" points="875.56,-77.8 865.19,-75.65 871.96,-83.8 875.56,-77.8"/>
</g>
<!-- Node29 -->
<g id="node27" class="node">
<title>Node29</title>
<g id="a_node27"><a xlink:href="constitute_8h.html" target="_top" xlink:title=" ">
<polygon fill="white" stroke="black" points="756.26,-0.5 756.26,-19.5 869.26,-19.5 869.26,-0.5 756.26,-0.5"/>
<text text-anchor="middle" x="812.76" y="-7.5" font-family="FreeSans" font-size="10.00">magick/constitute.h</text>
</a>
</g>
</g>
<!-- Node27&#45;&gt;Node29 -->
<g id="edge28" class="edge">
<title>Node27&#45;&gt;Node29</title>
<path fill="none" stroke="midnightblue" d="M844.49,-56.08C839.12,-48.46 831.25,-37.26 824.68,-27.94"/>
<polygon fill="midnightblue" stroke="midnightblue" points="827.54,-25.91 818.92,-19.75 821.81,-29.94 827.54,-25.91"/>
</g>
<!-- Node52&#45;&gt;Node40 -->
<g id="edge36" class="edge">
<title>Node52&#45;&gt;Node40</title>
<path fill="none" stroke="midnightblue" d="M1492.06,-281.19C1495.34,-280.77 1498.59,-280.37 1501.76,-280 1663.08,-261.01 1706.57,-263.43 1871.61,-244.09"/>
<polygon fill="midnightblue" stroke="midnightblue" points="1872.1,-247.56 1881.62,-242.91 1871.28,-240.6 1872.1,-247.56"/>
</g>
<!-- Node53&#45;&gt;Node3 -->
<g id="edge45" class="edge">
<title>Node53&#45;&gt;Node3</title>
<path fill="none" stroke="midnightblue" d="M953.58,-287.46C993.27,-283.67 1045.44,-272.94 1081.76,-244 1111.3,-220.46 1088.1,-188.58 1119.76,-168 1157.6,-143.41 1801.51,-128.79 2027.29,-124.41"/>
<polygon fill="midnightblue" stroke="midnightblue" points="2027.47,-127.91 2037.4,-124.21 2027.34,-120.91 2027.47,-127.91"/>
</g>
<!-- Node53&#45;&gt;Node5 -->
<g id="edge38" class="edge">
<title>Node53&#45;&gt;Node5</title>
<path fill="none" stroke="midnightblue" d="M854.95,-280.47C822.04,-273 775.43,-260.72 736.76,-244 666.41,-213.59 590.87,-162.5 555.79,-137.57"/>
<polygon fill="midnightblue" stroke="midnightblue" points="557.56,-134.53 547.39,-131.55 553.48,-140.22 557.56,-134.53"/>
</g>
<!-- Node53&#45;&gt;Node24 -->
<g id="edge39" class="edge">
<title>Node53&#45;&gt;Node24</title>
<path fill="none" stroke="midnightblue" d="M917.84,-280.44C939.82,-271.52 974.5,-257.44 999.43,-247.32"/>
<polygon fill="midnightblue" stroke="midnightblue" points="1000.84,-250.52 1008.79,-243.52 998.21,-244.04 1000.84,-250.52"/>
</g>
<!-- Node53&#45;&gt;Node32 -->
<g id="edge40" class="edge">
<title>Node53&#45;&gt;Node32</title>
<path fill="none" stroke="midnightblue" d="M889.45,-280.3C879.98,-267.95 865.41,-244.56 871.76,-224 882.19,-190.24 908.21,-157.7 925.15,-139.06"/>
<polygon fill="midnightblue" stroke="midnightblue" points="927.72,-141.43 931.99,-131.73 922.61,-136.65 927.72,-141.43"/>
</g>
<!-- Node53&#45;&gt;Node27 -->
<g id="edge46" class="edge">
<title>Node53&#45;&gt;Node27</title>
<path fill="none" stroke="midnightblue" d="M889.11,-280.42C881.97,-271.85 871.7,-257.99 866.76,-244 847.39,-189.08 847.89,-118.93 849.48,-85.86"/>
<polygon fill="midnightblue" stroke="midnightblue" points="852.98,-85.98 850.06,-75.79 846,-85.58 852.98,-85.98"/>
</g>
<!-- Node53&#45;&gt;Node29 -->
<g id="edge44" class="edge">
<title>Node53&#45;&gt;Node29</title>
<path fill="none" stroke="midnightblue" d="M874.47,-280.5C839.77,-265.63 776.76,-231.43 776.76,-179 776.76,-179 776.76,-179 776.76,-121 776.76,-86.98 792.51,-49.85 803.17,-28.6"/>
<polygon fill="midnightblue" stroke="midnightblue" points="806.38,-30.01 807.91,-19.53 800.18,-26.77 806.38,-30.01"/>
</g>
<!-- Node53&#45;&gt;Node31 -->
<g id="edge47" class="edge">
<title>Node53&#45;&gt;Node31</title>
<path fill="none" stroke="midnightblue" d="M850.24,-280.45C822.93,-273.78 788.78,-262.46 762.76,-244 723.33,-216.02 692.5,-166.77 677.94,-140.56"/>
<polygon fill="midnightblue" stroke="midnightblue" points="681.01,-138.87 673.17,-131.74 674.85,-142.2 681.01,-138.87"/>
</g>
<!-- Node54 -->
<g id="node35" class="node">
<title>Node54</title>
<g id="a_node35"><a xlink:href="draw_8h.html" target="_top" xlink:title=" ">
<polygon fill="white" stroke="red" points="880.76,-224.5 880.76,-243.5 968.76,-243.5 968.76,-224.5 880.76,-224.5"/>
<text text-anchor="middle" x="924.76" y="-231.5" font-family="FreeSans" font-size="10.00">magick/draw.h</text>
</a>
</g>
</g>
<!-- Node53&#45;&gt;Node54 -->
<g id="edge41" class="edge">
<title>Node53&#45;&gt;Node54</title>
<path fill="none" stroke="midnightblue" d="M901.39,-280.08C905.22,-272.69 910.79,-261.95 915.53,-252.81"/>
<polygon fill="midnightblue" stroke="midnightblue" points="918.73,-254.24 920.23,-243.75 912.51,-251.02 918.73,-254.24"/>
</g>
<!-- Node54&#45;&gt;Node25 -->
<g id="edge42" class="edge">
<title>Node54&#45;&gt;Node25</title>
<path fill="none" stroke="midnightblue" d="M934.72,-224.32C943.89,-216.34 957.7,-204.31 968.79,-194.65"/>
<polygon fill="midnightblue" stroke="midnightblue" points="971.38,-197.04 976.62,-187.83 966.78,-191.76 971.38,-197.04"/>
</g>
<!-- Node54&#45;&gt;Node27 -->
<g id="edge43" class="edge">
<title>Node54&#45;&gt;Node27</title>
<path fill="none" stroke="midnightblue" d="M919.56,-224.33C909.41,-207.16 886.65,-167.42 871.76,-132 865.3,-116.63 859.6,-98.53 855.78,-85.34"/>
<polygon fill="midnightblue" stroke="midnightblue" points="859.11,-84.26 853.03,-75.58 852.37,-86.16 859.11,-84.26"/>
</g>
<!-- Node30&#45;&gt;Node5 -->
<g id="edge49" class="edge">
<title>Node30&#45;&gt;Node5</title>
<path fill="none" stroke="midnightblue" d="M448.47,-168.32C465.07,-159.7 490.76,-146.36 509.98,-136.39"/>
<polygon fill="midnightblue" stroke="midnightblue" points="511.83,-139.37 519.09,-131.65 508.61,-133.16 511.83,-139.37"/>
</g>
<!-- Node30&#45;&gt;Node31 -->
<g id="edge50" class="edge">
<title>Node30&#45;&gt;Node31</title>
<path fill="none" stroke="midnightblue" d="M469.32,-168.44C510.57,-159.04 576.91,-143.93 621.63,-133.74"/>
<polygon fill="midnightblue" stroke="midnightblue" points="622.41,-137.15 631.39,-131.52 620.86,-130.33 622.41,-137.15"/>
</g>
<!-- Node58&#45;&gt;Node59 -->
<g id="edge52" class="edge">
<title>Node58&#45;&gt;Node59</title>
<path fill="none" stroke="midnightblue" d="M446.87,-280.47C350.9,-269.4 185.92,-250.36 103.18,-240.82"/>
<polygon fill="midnightblue" stroke="midnightblue" points="103.36,-237.31 93.02,-239.65 102.56,-244.27 103.36,-237.31"/>
</g>
<!-- Node58&#45;&gt;Node60 -->
<g id="edge55" class="edge">
<title>Node58&#45;&gt;Node60</title>
<path fill="none" stroke="midnightblue" d="M530.88,-280.32C540.29,-272.26 554.51,-260.08 565.83,-250.37"/>
<polygon fill="midnightblue" stroke="midnightblue" points="568.14,-253 573.46,-243.83 563.59,-247.68 568.14,-253"/>
</g>
<!-- Node58&#45;&gt;Node43 -->
<g id="edge58" class="edge">
<title>Node58&#45;&gt;Node43</title>
<path fill="none" stroke="midnightblue" d="M511.68,-280.08C503.59,-272.14 491.57,-260.34 481.85,-250.8"/>
<polygon fill="midnightblue" stroke="midnightblue" points="484.26,-248.26 474.68,-243.75 479.36,-253.25 484.26,-248.26"/>
</g>
<!-- Node59&#45;&gt;Node5 -->
<g id="edge53" class="edge">
<title>Node59&#45;&gt;Node5</title>
<path fill="none" stroke="midnightblue" d="M60.13,-224.43C73.13,-209.96 101.73,-181 132.76,-168 198.2,-140.58 410.41,-128.44 497.71,-124.52"/>
<polygon fill="midnightblue" stroke="midnightblue" points="497.89,-128.02 507.72,-124.08 497.58,-121.02 497.89,-128.02"/>
</g>
<!-- Node59&#45;&gt;Node30 -->
<g id="edge54" class="edge">
<title>Node59&#45;&gt;Node30</title>
<path fill="none" stroke="midnightblue" d="M92.85,-226.19C97.54,-225.43 102.25,-224.69 106.76,-224 195.89,-210.4 299.05,-196.42 364.81,-187.72"/>
<polygon fill="midnightblue" stroke="midnightblue" points="365.58,-191.15 375.04,-186.37 364.67,-184.21 365.58,-191.15"/>
</g>
<!-- Node60&#45;&gt;Node5 -->
<g id="edge56" class="edge">
<title>Node60&#45;&gt;Node5</title>
<path fill="none" stroke="midnightblue" d="M580,-224.37C572.18,-206.46 554.06,-164.92 543.59,-140.95"/>
<polygon fill="midnightblue" stroke="midnightblue" points="546.72,-139.36 539.51,-131.59 540.3,-142.16 546.72,-139.36"/>
</g>
<!-- Node60&#45;&gt;Node31 -->
<g id="edge57" class="edge">
<title>Node60&#45;&gt;Node31</title>
<path fill="none" stroke="midnightblue" d="M590.43,-224.37C604.52,-206.14 637.52,-163.43 655.88,-139.68"/>
<polygon fill="midnightblue" stroke="midnightblue" points="658.78,-141.64 662.12,-131.59 653.24,-137.36 658.78,-141.64"/>
</g>
<!-- Node43&#45;&gt;Node5 -->
<g id="edge59" class="edge">
<title>Node43&#45;&gt;Node5</title>
<path fill="none" stroke="midnightblue" d="M471.87,-224.48C478.24,-215.51 488.45,-200.92 496.76,-188 506.98,-172.13 517.99,-153.63 525.7,-140.44"/>
<polygon fill="midnightblue" stroke="midnightblue" points="528.89,-141.92 530.88,-131.52 522.83,-138.41 528.89,-141.92"/>
</g>
<!-- Node43&#45;&gt;Node12 -->
<g id="edge60" class="edge">
<title>Node43&#45;&gt;Node12</title>
<path fill="none" stroke="midnightblue" d="M514.77,-225.1C517.81,-224.7 520.83,-224.33 523.76,-224 753.55,-198.25 812.2,-205.43 1042.76,-188 1068.21,-186.08 1096.96,-183.72 1118.68,-181.9"/>
<polygon fill="midnightblue" stroke="midnightblue" points="1119.06,-185.38 1128.74,-181.05 1118.48,-178.4 1119.06,-185.38"/>
</g>
<!-- Node43&#45;&gt;Node30 -->
<g id="edge61" class="edge">
<title>Node43&#45;&gt;Node30</title>
<path fill="none" stroke="midnightblue" d="M460.15,-224.08C455.4,-216.53 448.44,-205.49 442.61,-196.23"/>
<polygon fill="midnightblue" stroke="midnightblue" points="445.56,-194.35 437.27,-187.75 439.64,-198.08 445.56,-194.35"/>
</g>
<!-- Node62&#45;&gt;Node9 -->
<g id="edge67" class="edge">
<title>Node62&#45;&gt;Node9</title>
<path fill="none" stroke="midnightblue" d="M1290.43,-224.32C1277.6,-215.98 1257.98,-203.21 1242.82,-193.35"/>
<polygon fill="midnightblue" stroke="midnightblue" points="1244.36,-190.17 1234.07,-187.65 1240.54,-196.04 1244.36,-190.17"/>
</g>
<!-- Node62&#45;&gt;Node15 -->
<g id="edge68" class="edge">
<title>Node62&#45;&gt;Node15</title>
<path fill="none" stroke="midnightblue" d="M1301.95,-224.08C1300.49,-216.93 1298.39,-206.64 1296.57,-197.69"/>
<polygon fill="midnightblue" stroke="midnightblue" points="1299.97,-196.85 1294.55,-187.75 1293.11,-198.25 1299.97,-196.85"/>
</g>
<!-- Node63&#45;&gt;Node12 -->
<g id="edge70" class="edge">
<title>Node63&#45;&gt;Node12</title>
<path fill="none" stroke="midnightblue" d="M1175.3,-224.08C1171.61,-216.69 1166.24,-205.95 1161.67,-196.81"/>
<polygon fill="midnightblue" stroke="midnightblue" points="1164.74,-195.13 1157.14,-187.75 1158.48,-198.26 1164.74,-195.13"/>
</g>
<!-- Node65&#45;&gt;Node30 -->
<g id="edge72" class="edge">
<title>Node65&#45;&gt;Node30</title>
<path fill="none" stroke="midnightblue" d="M252.51,-224.44C289.28,-215.12 348.21,-200.18 388.38,-190"/>
<polygon fill="midnightblue" stroke="midnightblue" points="389.34,-193.37 398.17,-187.52 387.62,-186.58 389.34,-193.37"/>
</g>
<!-- Node65&#45;&gt;Node68 -->
<g id="edge73" class="edge">
<title>Node65&#45;&gt;Node68</title>
<path fill="none" stroke="midnightblue" d="M215.46,-224.08C212.78,-216.85 208.91,-206.41 205.58,-197.4"/>
<polygon fill="midnightblue" stroke="midnightblue" points="208.76,-195.91 202,-187.75 202.2,-198.34 208.76,-195.91"/>
</g>
<!-- Node69&#45;&gt;Node27 -->
<g id="edge75" class="edge">
<title>Node69&#45;&gt;Node27</title>
<path fill="none" stroke="midnightblue" d="M352.09,-224.36C351.51,-210.8 352.37,-184.4 365.76,-168 406.33,-118.32 436.83,-128.66 498.76,-112 601.75,-84.29 726.42,-73.48 796.35,-69.38"/>
<polygon fill="midnightblue" stroke="midnightblue" points="796.88,-72.86 806.67,-68.8 796.49,-65.87 796.88,-72.86"/>
</g>
<!-- Node69&#45;&gt;Node30 -->
<g id="edge76" class="edge">
<title>Node69&#45;&gt;Node30</title>
<path fill="none" stroke="midnightblue" d="M365.46,-224.32C377.66,-215.98 396.34,-203.21 410.77,-193.35"/>
<polygon fill="midnightblue" stroke="midnightblue" points="412.82,-196.19 419.1,-187.65 408.87,-190.41 412.82,-196.19"/>
</g>
<!-- Node73&#45;&gt;Node62 -->
<g id="edge84" class="edge">
<title>Node73&#45;&gt;Node62</title>
<path fill="none" stroke="midnightblue" d="M822.52,-280.89C825.3,-280.58 828.06,-280.28 830.76,-280 1008.54,-261.35 1056.17,-264.37 1237.95,-244.04"/>
<polygon fill="midnightblue" stroke="midnightblue" points="1238.57,-247.49 1248.12,-242.89 1237.79,-240.53 1238.57,-247.49"/>
</g>
<!-- Node73&#45;&gt;Node65 -->
<g id="edge85" class="edge">
<title>Node73&#45;&gt;Node65</title>
<path fill="none" stroke="midnightblue" d="M690.98,-282.88C603.83,-274.69 445.04,-259.53 299.01,-244.12"/>
<polygon fill="midnightblue" stroke="midnightblue" points="299.28,-240.63 288.97,-243.06 298.54,-247.59 299.28,-240.63"/>
</g>
</g>
</svg>
