<?xml version="1.0" encoding="UTF-8" standalone="no"?>
<!DOCTYPE svg PUBLIC "-//W3C//DTD SVG 1.1//EN"
 "http://www.w3.org/Graphics/SVG/1.1/DTD/svg11.dtd">
<!-- Generated by graphviz version 2.43.0 (0)
 -->
<!-- Title: monitor.h Pages: 1 -->
<svg width="3278pt" height="196pt"
 viewBox="0.00 0.00 3278.00 196.00" xmlns="http://www.w3.org/2000/svg" xmlns:xlink="http://www.w3.org/1999/xlink">
<g id="graph0" class="graph" transform="scale(1 1) rotate(0) translate(4 192)">
<title>monitor.h</title>
<polygon fill="white" stroke="transparent" points="-4,4 -4,-192 3274,-192 3274,4 -4,4"/>
<!-- Node1 -->
<g id="node1" class="node">
<title>Node1</title>
<g id="a_node1"><a xlink:title=" ">
<polygon fill="#bfbfbf" stroke="black" points="1525.5,-168.5 1525.5,-187.5 1588.5,-187.5 1588.5,-168.5 1525.5,-168.5"/>
<text text-anchor="middle" x="1557" y="-175.5" font-family="FreeSans" font-size="10.00">monitor.h</text>
</a>
</g>
</g>
<!-- Node2 -->
<g id="node2" class="node">
<title>Node2</title>
<g id="a_node2"><a xlink:href="MagickCore_8h.html" target="_top" xlink:title=" ">
<polygon fill="white" stroke="red" points="4.5,-56.5 4.5,-75.5 87.5,-75.5 87.5,-56.5 4.5,-56.5"/>
<text text-anchor="middle" x="46" y="-63.5" font-family="FreeSans" font-size="10.00">MagickCore.h</text>
</a>
</g>
</g>
<!-- Node1&#45;&gt;Node2 -->
<g id="edge1" class="edge">
<title>Node1&#45;&gt;Node2</title>
<path fill="none" stroke="midnightblue" d="M1515.41,-177.03C1321.79,-176.97 507.52,-174.16 257,-132 185.56,-119.98 104.6,-90.28 67.11,-75.56"/>
<polygon fill="midnightblue" stroke="midnightblue" points="1515.46,-180.53 1525.46,-177.04 1515.46,-173.53 1515.46,-180.53"/>
</g>
<!-- Node6 -->
<g id="node4" class="node">
<title>Node6</title>
<g id="a_node4"><a xlink:href="animate_8c.html" target="_top" xlink:title=" ">
<polygon fill="white" stroke="black" points="105.5,-56.5 105.5,-75.5 170.5,-75.5 170.5,-56.5 105.5,-56.5"/>
<text text-anchor="middle" x="138" y="-63.5" font-family="FreeSans" font-size="10.00">animate.c</text>
</a>
</g>
</g>
<!-- Node1&#45;&gt;Node6 -->
<g id="edge3" class="edge">
<title>Node1&#45;&gt;Node6</title>
<path fill="none" stroke="midnightblue" d="M1515.09,-176.99C1328.59,-176.7 572.99,-172.99 340,-132 271.42,-119.94 194,-90.26 158.18,-75.55"/>
<polygon fill="midnightblue" stroke="midnightblue" points="1515.3,-180.49 1525.3,-177 1515.31,-173.49 1515.3,-180.49"/>
</g>
<!-- Node7 -->
<g id="node5" class="node">
<title>Node7</title>
<g id="a_node5"><a xlink:href="artifact_8c.html" target="_top" xlink:title=" ">
<polygon fill="white" stroke="black" points="189,-56.5 189,-75.5 249,-75.5 249,-56.5 189,-56.5"/>
<text text-anchor="middle" x="219" y="-63.5" font-family="FreeSans" font-size="10.00">artifact.c</text>
</a>
</g>
</g>
<!-- Node1&#45;&gt;Node7 -->
<g id="edge4" class="edge">
<title>Node1&#45;&gt;Node7</title>
<path fill="none" stroke="midnightblue" d="M1515.41,-176.83C1337.52,-175.89 639.9,-169.81 424,-132 354.49,-119.83 275.88,-90.2 239.49,-75.52"/>
<polygon fill="midnightblue" stroke="midnightblue" points="1515.4,-180.33 1525.41,-176.88 1515.43,-173.33 1515.4,-180.33"/>
</g>
<!-- Node8 -->
<g id="node6" class="node">
<title>Node8</title>
<g id="a_node6"><a xlink:href="attribute_8c.html" target="_top" xlink:title=" ">
<polygon fill="white" stroke="black" points="267.5,-56.5 267.5,-75.5 334.5,-75.5 334.5,-56.5 267.5,-56.5"/>
<text text-anchor="middle" x="301" y="-63.5" font-family="FreeSans" font-size="10.00">attribute.c</text>
</a>
</g>
</g>
<!-- Node1&#45;&gt;Node8 -->
<g id="edge5" class="edge">
<title>Node1&#45;&gt;Node8</title>
<path fill="none" stroke="midnightblue" d="M1515.27,-176.65C1345.63,-175.02 707.45,-166.66 509,-132 438.75,-119.73 359.18,-90.29 322.1,-75.61"/>
<polygon fill="midnightblue" stroke="midnightblue" points="1515.26,-180.15 1525.3,-176.75 1515.33,-173.15 1515.26,-180.15"/>
</g>
<!-- Node9 -->
<g id="node7" class="node">
<title>Node9</title>
<g id="a_node7"><a xlink:href="channel_8c.html" target="_top" xlink:title=" ">
<polygon fill="white" stroke="black" points="352.5,-56.5 352.5,-75.5 415.5,-75.5 415.5,-56.5 352.5,-56.5"/>
<text text-anchor="middle" x="384" y="-63.5" font-family="FreeSans" font-size="10.00">channel.c</text>
</a>
</g>
</g>
<!-- Node1&#45;&gt;Node9 -->
<g id="edge6" class="edge">
<title>Node1&#45;&gt;Node9</title>
<path fill="none" stroke="midnightblue" d="M1514.84,-176.44C1353.56,-174.07 775.73,-163.54 595,-132 523.82,-119.58 443.07,-90.21 405.43,-75.58"/>
<polygon fill="midnightblue" stroke="midnightblue" points="1515.24,-179.95 1525.29,-176.59 1515.34,-172.95 1515.24,-179.95"/>
</g>
<!-- Node10 -->
<g id="node8" class="node">
<title>Node10</title>
<g id="a_node8"><a xlink:href="cipher_8c.html" target="_top" xlink:title=" ">
<polygon fill="white" stroke="black" points="434,-56.5 434,-75.5 488,-75.5 488,-56.5 434,-56.5"/>
<text text-anchor="middle" x="461" y="-63.5" font-family="FreeSans" font-size="10.00">cipher.c</text>
</a>
</g>
</g>
<!-- Node1&#45;&gt;Node10 -->
<g id="edge7" class="edge">
<title>Node1&#45;&gt;Node10</title>
<path fill="none" stroke="midnightblue" d="M1514.91,-176.11C1363.7,-172.69 848.41,-159.28 686,-132 610.42,-119.3 524.15,-90.06 483.91,-75.53"/>
<polygon fill="midnightblue" stroke="midnightblue" points="1515.08,-179.61 1525.15,-176.33 1515.23,-172.61 1515.08,-179.61"/>
</g>
<!-- Node11 -->
<g id="node9" class="node">
<title>Node11</title>
<g id="a_node9"><a xlink:href="color_8c.html" target="_top" xlink:title=" ">
<polygon fill="white" stroke="black" points="1794,-112.5 1794,-131.5 1842,-131.5 1842,-112.5 1794,-112.5"/>
<text text-anchor="middle" x="1818" y="-119.5" font-family="FreeSans" font-size="10.00">color.c</text>
</a>
</g>
</g>
<!-- Node1&#45;&gt;Node11 -->
<g id="edge8" class="edge">
<title>Node1&#45;&gt;Node11</title>
<path fill="none" stroke="midnightblue" d="M1598.78,-169C1643.65,-160.31 1717.01,-145.81 1780,-132 1784.5,-131.01 1789.3,-129.91 1793.9,-128.83"/>
<polygon fill="midnightblue" stroke="midnightblue" points="1597.98,-165.59 1588.83,-170.92 1599.31,-172.46 1597.98,-165.59"/>
</g>
<!-- Node12 -->
<g id="node10" class="node">
<title>Node12</title>
<g id="a_node10"><a xlink:href="colormap_8c.html" target="_top" xlink:title=" ">
<polygon fill="white" stroke="black" points="1860.5,-112.5 1860.5,-131.5 1931.5,-131.5 1931.5,-112.5 1860.5,-112.5"/>
<text text-anchor="middle" x="1896" y="-119.5" font-family="FreeSans" font-size="10.00">colormap.c</text>
</a>
</g>
</g>
<!-- Node1&#45;&gt;Node12 -->
<g id="edge9" class="edge">
<title>Node1&#45;&gt;Node12</title>
<path fill="none" stroke="midnightblue" d="M1598.93,-171.2C1656.05,-163.15 1761.48,-147.79 1851,-132 1853.98,-131.47 1857.07,-130.91 1860.17,-130.32"/>
<polygon fill="midnightblue" stroke="midnightblue" points="1598.25,-167.76 1588.84,-172.61 1599.23,-174.69 1598.25,-167.76"/>
</g>
<!-- Node13 -->
<g id="node11" class="node">
<title>Node13</title>
<g id="a_node11"><a xlink:href="colorspace_8c.html" target="_top" xlink:title=" ">
<polygon fill="white" stroke="black" points="506.5,-56.5 506.5,-75.5 583.5,-75.5 583.5,-56.5 506.5,-56.5"/>
<text text-anchor="middle" x="545" y="-63.5" font-family="FreeSans" font-size="10.00">colorspace.c</text>
</a>
</g>
</g>
<!-- Node1&#45;&gt;Node13 -->
<g id="edge10" class="edge">
<title>Node1&#45;&gt;Node13</title>
<path fill="none" stroke="midnightblue" d="M1514.89,-175.83C1373.44,-171.69 916.11,-156.7 771,-132 695.33,-119.12 608.92,-90.1 568.35,-75.6"/>
<polygon fill="midnightblue" stroke="midnightblue" points="1515.19,-179.34 1525.29,-176.13 1515.4,-172.34 1515.19,-179.34"/>
</g>
<!-- Node14 -->
<g id="node12" class="node">
<title>Node14</title>
<g id="a_node12"><a xlink:href="compare_8c.html" target="_top" xlink:title=" ">
<polygon fill="white" stroke="black" points="1950,-112.5 1950,-131.5 2018,-131.5 2018,-112.5 1950,-112.5"/>
<text text-anchor="middle" x="1984" y="-119.5" font-family="FreeSans" font-size="10.00">compare.c</text>
</a>
</g>
</g>
<!-- Node1&#45;&gt;Node14 -->
<g id="edge11" class="edge">
<title>Node1&#45;&gt;Node14</title>
<path fill="none" stroke="midnightblue" d="M1599.03,-173.32C1669.85,-166.84 1817.33,-152.15 1941,-132 1943.86,-131.53 1946.82,-131.01 1949.78,-130.45"/>
<polygon fill="midnightblue" stroke="midnightblue" points="1598.39,-169.86 1588.74,-174.25 1599.02,-176.83 1598.39,-169.86"/>
</g>
<!-- Node15 -->
<g id="node13" class="node">
<title>Node15</title>
<g id="a_node13"><a xlink:href="composite_8c.html" target="_top" xlink:title=" ">
<polygon fill="white" stroke="black" points="602,-56.5 602,-75.5 678,-75.5 678,-56.5 602,-56.5"/>
<text text-anchor="middle" x="640" y="-63.5" font-family="FreeSans" font-size="10.00">composite.c</text>
</a>
</g>
</g>
<!-- Node1&#45;&gt;Node15 -->
<g id="edge12" class="edge">
<title>Node1&#45;&gt;Node15</title>
<path fill="none" stroke="midnightblue" d="M1515.03,-177.74C1405.05,-178.95 1099.73,-177.58 851,-132 780.12,-119.01 699.55,-90.04 661.75,-75.57"/>
<polygon fill="midnightblue" stroke="midnightblue" points="1515.41,-181.24 1525.36,-177.61 1515.32,-174.24 1515.41,-181.24"/>
</g>
<!-- Node16 -->
<g id="node14" class="node">
<title>Node16</title>
<g id="a_node14"><a xlink:href="compress_8c.html" target="_top" xlink:title=" ">
<polygon fill="white" stroke="black" points="2036,-112.5 2036,-131.5 2108,-131.5 2108,-112.5 2036,-112.5"/>
<text text-anchor="middle" x="2072" y="-119.5" font-family="FreeSans" font-size="10.00">compress.c</text>
</a>
</g>
</g>
<!-- Node1&#45;&gt;Node16 -->
<g id="edge13" class="edge">
<title>Node1&#45;&gt;Node16</title>
<path fill="none" stroke="midnightblue" d="M1598.98,-174.42C1681.36,-169.05 1869.88,-155.17 2027,-132 2029.84,-131.58 2032.77,-131.1 2035.71,-130.59"/>
<polygon fill="midnightblue" stroke="midnightblue" points="1598.52,-170.94 1588.77,-175.08 1598.97,-177.93 1598.52,-170.94"/>
</g>
<!-- Node17 -->
<g id="node15" class="node">
<title>Node17</title>
<g id="a_node15"><a xlink:href="constitute_8c.html" target="_top" xlink:title=" ">
<polygon fill="white" stroke="black" points="2126,-112.5 2126,-131.5 2200,-131.5 2200,-112.5 2126,-112.5"/>
<text text-anchor="middle" x="2163" y="-119.5" font-family="FreeSans" font-size="10.00">constitute.c</text>
</a>
</g>
</g>
<!-- Node1&#45;&gt;Node17 -->
<g id="edge14" class="edge">
<title>Node1&#45;&gt;Node17</title>
<path fill="none" stroke="midnightblue" d="M1598.88,-175.25C1692.24,-171.01 1924.41,-158.49 2117,-132 2119.9,-131.6 2122.9,-131.14 2125.9,-130.63"/>
<polygon fill="midnightblue" stroke="midnightblue" points="1598.55,-171.77 1588.71,-175.71 1598.86,-178.76 1598.55,-171.77"/>
</g>
<!-- Node18 -->
<g id="node16" class="node">
<title>Node18</title>
<g id="a_node16"><a xlink:href="decorate_8c.html" target="_top" xlink:title=" ">
<polygon fill="white" stroke="black" points="696,-56.5 696,-75.5 764,-75.5 764,-56.5 696,-56.5"/>
<text text-anchor="middle" x="730" y="-63.5" font-family="FreeSans" font-size="10.00">decorate.c</text>
</a>
</g>
</g>
<!-- Node1&#45;&gt;Node18 -->
<g id="edge15" class="edge">
<title>Node1&#45;&gt;Node18</title>
<path fill="none" stroke="midnightblue" d="M1515.28,-177.59C1413.49,-178.25 1144.76,-175.37 926,-132 859.89,-118.89 785.17,-89.98 750.15,-75.55"/>
<polygon fill="midnightblue" stroke="midnightblue" points="1515.48,-181.09 1525.45,-177.5 1515.42,-174.09 1515.48,-181.09"/>
</g>
<!-- Node19 -->
<g id="node17" class="node">
<title>Node19</title>
<g id="a_node17"><a xlink:href="deprecate_8c.html" target="_top" xlink:title=" ">
<polygon fill="white" stroke="black" points="782,-56.5 782,-75.5 856,-75.5 856,-56.5 782,-56.5"/>
<text text-anchor="middle" x="819" y="-63.5" font-family="FreeSans" font-size="10.00">deprecate.c</text>
</a>
</g>
</g>
<!-- Node1&#45;&gt;Node19 -->
<g id="edge16" class="edge">
<title>Node1&#45;&gt;Node19</title>
<path fill="none" stroke="midnightblue" d="M1515.09,-177.6C1420.67,-178.1 1184.59,-174.55 993,-132 933.82,-118.85 867.72,-89.96 836.78,-75.54"/>
<polygon fill="midnightblue" stroke="midnightblue" points="1515.39,-181.1 1525.37,-177.53 1515.34,-174.1 1515.39,-181.1"/>
</g>
<!-- Node20 -->
<g id="node18" class="node">
<title>Node20</title>
<g id="a_node18"><a xlink:href="display_8c.html" target="_top" xlink:title=" ">
<polygon fill="white" stroke="black" points="874.5,-56.5 874.5,-75.5 933.5,-75.5 933.5,-56.5 874.5,-56.5"/>
<text text-anchor="middle" x="904" y="-63.5" font-family="FreeSans" font-size="10.00">display.c</text>
</a>
</g>
</g>
<!-- Node1&#45;&gt;Node20 -->
<g id="edge17" class="edge">
<title>Node1&#45;&gt;Node20</title>
<path fill="none" stroke="midnightblue" d="M1515.24,-177.85C1427.66,-178.65 1219.02,-175.35 1051,-132 1000.2,-118.89 944.74,-89.98 918.85,-75.55"/>
<polygon fill="midnightblue" stroke="midnightblue" points="1515.34,-181.35 1525.3,-177.74 1515.26,-174.35 1515.34,-181.35"/>
</g>
<!-- Node21 -->
<g id="node19" class="node">
<title>Node21</title>
<g id="a_node19"><a xlink:href="draw_8c.html" target="_top" xlink:title=" ">
<polygon fill="white" stroke="black" points="2218,-112.5 2218,-131.5 2266,-131.5 2266,-112.5 2218,-112.5"/>
<text text-anchor="middle" x="2242" y="-119.5" font-family="FreeSans" font-size="10.00">draw.c</text>
</a>
</g>
</g>
<!-- Node1&#45;&gt;Node21 -->
<g id="edge18" class="edge">
<title>Node1&#45;&gt;Node21</title>
<path fill="none" stroke="midnightblue" d="M1598.9,-176.96C1702.93,-176.25 1981.05,-170.56 2209,-132 2211.93,-131.5 2214.97,-130.86 2217.97,-130.14"/>
<polygon fill="midnightblue" stroke="midnightblue" points="1598.79,-173.46 1588.81,-177.02 1598.83,-180.46 1598.79,-173.46"/>
</g>
<!-- Node22 -->
<g id="node20" class="node">
<title>Node22</title>
<g id="a_node20"><a xlink:href="effect_8c.html" target="_top" xlink:title=" ">
<polygon fill="white" stroke="black" points="2284.5,-112.5 2284.5,-131.5 2337.5,-131.5 2337.5,-112.5 2284.5,-112.5"/>
<text text-anchor="middle" x="2311" y="-119.5" font-family="FreeSans" font-size="10.00">effect.c</text>
</a>
</g>
</g>
<!-- Node1&#45;&gt;Node22 -->
<g id="edge19" class="edge">
<title>Node1&#45;&gt;Node22</title>
<path fill="none" stroke="midnightblue" d="M1598.82,-177.03C1709.73,-176.55 2020.32,-171.48 2275,-132 2278.06,-131.53 2281.23,-130.91 2284.37,-130.23"/>
<polygon fill="midnightblue" stroke="midnightblue" points="1598.7,-173.53 1588.72,-177.07 1598.73,-180.53 1598.7,-173.53"/>
</g>
<!-- Node23 -->
<g id="node21" class="node">
<title>Node23</title>
<g id="a_node21"><a xlink:href="enhance_8c.html" target="_top" xlink:title=" ">
<polygon fill="white" stroke="black" points="952,-56.5 952,-75.5 1018,-75.5 1018,-56.5 952,-56.5"/>
<text text-anchor="middle" x="985" y="-63.5" font-family="FreeSans" font-size="10.00">enhance.c</text>
</a>
</g>
</g>
<!-- Node1&#45;&gt;Node23 -->
<g id="edge20" class="edge">
<title>Node1&#45;&gt;Node23</title>
<path fill="none" stroke="midnightblue" d="M1515.08,-175.18C1416.85,-170.55 1174.28,-156.9 1097,-132 1056.77,-119.04 1015.23,-90.06 995.99,-75.58"/>
<polygon fill="midnightblue" stroke="midnightblue" points="1515.07,-178.68 1525.23,-175.65 1515.4,-171.69 1515.07,-178.68"/>
</g>
<!-- Node24 -->
<g id="node22" class="node">
<title>Node24</title>
<g id="a_node22"><a xlink:href="feature_8c.html" target="_top" xlink:title=" ">
<polygon fill="white" stroke="black" points="2356,-112.5 2356,-131.5 2416,-131.5 2416,-112.5 2356,-112.5"/>
<text text-anchor="middle" x="2386" y="-119.5" font-family="FreeSans" font-size="10.00">feature.c</text>
</a>
</g>
</g>
<!-- Node1&#45;&gt;Node24 -->
<g id="edge21" class="edge">
<title>Node1&#45;&gt;Node24</title>
<path fill="none" stroke="midnightblue" d="M1598.87,-177.11C1717.08,-176.89 2063.18,-172.53 2347,-132 2349.89,-131.59 2352.88,-131.07 2355.86,-130.49"/>
<polygon fill="midnightblue" stroke="midnightblue" points="1598.8,-173.61 1588.8,-177.12 1598.8,-180.61 1598.8,-173.61"/>
</g>
<!-- Node25 -->
<g id="node23" class="node">
<title>Node25</title>
<g id="a_node23"><a xlink:href="fourier_8c.html" target="_top" xlink:title=" ">
<polygon fill="white" stroke="black" points="1036,-56.5 1036,-75.5 1092,-75.5 1092,-56.5 1036,-56.5"/>
<text text-anchor="middle" x="1064" y="-63.5" font-family="FreeSans" font-size="10.00">fourier.c</text>
</a>
</g>
</g>
<!-- Node1&#45;&gt;Node25 -->
<g id="edge22" class="edge">
<title>Node1&#45;&gt;Node25</title>
<path fill="none" stroke="midnightblue" d="M1515.22,-176.28C1420.78,-174.06 1193.85,-165.33 1126,-132 1099.68,-119.08 1078.58,-90.08 1069.23,-75.59"/>
<polygon fill="midnightblue" stroke="midnightblue" points="1515.19,-179.78 1525.26,-176.5 1515.34,-172.78 1515.19,-179.78"/>
</g>
<!-- Node26 -->
<g id="node24" class="node">
<title>Node26</title>
<g id="a_node24"><a xlink:href="fx_8c.html" target="_top" xlink:title=" ">
<polygon fill="white" stroke="black" points="1110.5,-56.5 1110.5,-75.5 1145.5,-75.5 1145.5,-56.5 1110.5,-56.5"/>
<text text-anchor="middle" x="1128" y="-63.5" font-family="FreeSans" font-size="10.00">fx.c</text>
</a>
</g>
</g>
<!-- Node1&#45;&gt;Node26 -->
<g id="edge23" class="edge">
<title>Node1&#45;&gt;Node26</title>
<path fill="none" stroke="midnightblue" d="M1515.2,-175.25C1415.17,-170.67 1168.28,-156.94 1141,-132 1125.2,-117.56 1125.5,-89.79 1126.84,-75.68"/>
<polygon fill="midnightblue" stroke="midnightblue" points="1515.1,-178.75 1525.25,-175.7 1515.42,-171.75 1515.1,-178.75"/>
</g>
<!-- Node27 -->
<g id="node25" class="node">
<title>Node27</title>
<g id="a_node25"><a xlink:href="identify_8c.html" target="_top" xlink:title=" ">
<polygon fill="white" stroke="black" points="1164,-56.5 1164,-75.5 1224,-75.5 1224,-56.5 1164,-56.5"/>
<text text-anchor="middle" x="1194" y="-63.5" font-family="FreeSans" font-size="10.00">identify.c</text>
</a>
</g>
</g>
<!-- Node1&#45;&gt;Node27 -->
<g id="edge24" class="edge">
<title>Node1&#45;&gt;Node27</title>
<path fill="none" stroke="midnightblue" d="M1515.54,-170.78C1472.15,-163.68 1402.34,-150.6 1344,-132 1293.97,-116.05 1237.92,-89.21 1210.67,-75.55"/>
<polygon fill="midnightblue" stroke="midnightblue" points="1515.02,-174.24 1525.45,-172.37 1516.13,-167.33 1515.02,-174.24"/>
</g>
<!-- Node28 -->
<g id="node26" class="node">
<title>Node28</title>
<g id="a_node26"><a xlink:href="image_8c.html" target="_top" xlink:title=" ">
<polygon fill="white" stroke="black" points="2434,-112.5 2434,-131.5 2490,-131.5 2490,-112.5 2434,-112.5"/>
<text text-anchor="middle" x="2462" y="-119.5" font-family="FreeSans" font-size="10.00">image.c</text>
</a>
</g>
</g>
<!-- Node1&#45;&gt;Node28 -->
<g id="edge25" class="edge">
<title>Node1&#45;&gt;Node28</title>
<path fill="none" stroke="midnightblue" d="M1599.09,-177.59C1725.11,-178.77 2110.18,-178.04 2425,-132 2427.88,-131.58 2430.86,-131.04 2433.82,-130.43"/>
<polygon fill="midnightblue" stroke="midnightblue" points="1598.77,-174.09 1588.74,-177.48 1598.7,-181.09 1598.77,-174.09"/>
</g>
<!-- Node29 -->
<g id="node27" class="node">
<title>Node29</title>
<g id="a_node27"><a xlink:href="image_8h.html" target="_top" xlink:title=" ">
<polygon fill="white" stroke="red" points="1150,-112.5 1150,-131.5 1206,-131.5 1206,-112.5 1150,-112.5"/>
<text text-anchor="middle" x="1178" y="-119.5" font-family="FreeSans" font-size="10.00">image.h</text>
</a>
</g>
</g>
<!-- Node1&#45;&gt;Node29 -->
<g id="edge26" class="edge">
<title>Node1&#45;&gt;Node29</title>
<path fill="none" stroke="midnightblue" d="M1515.2,-172.49C1451.35,-165.35 1325.77,-150.37 1220,-132 1215.59,-131.23 1210.94,-130.33 1206.41,-129.4"/>
<polygon fill="midnightblue" stroke="midnightblue" points="1514.95,-175.98 1525.28,-173.6 1515.73,-169.02 1514.95,-175.98"/>
</g>
<!-- Node65 -->
<g id="node28" class="node">
<title>Node65</title>
<g id="a_node28"><a xlink:href="layer_8c.html" target="_top" xlink:title=" ">
<polygon fill="white" stroke="black" points="1242.5,-56.5 1242.5,-75.5 1291.5,-75.5 1291.5,-56.5 1242.5,-56.5"/>
<text text-anchor="middle" x="1267" y="-63.5" font-family="FreeSans" font-size="10.00">layer.c</text>
</a>
</g>
</g>
<!-- Node1&#45;&gt;Node65 -->
<g id="edge56" class="edge">
<title>Node1&#45;&gt;Node65</title>
<path fill="none" stroke="midnightblue" d="M1515.16,-168.58C1480.65,-160.98 1430.75,-148.46 1389,-132 1347.92,-115.8 1302.87,-89.31 1280.77,-75.69"/>
<polygon fill="midnightblue" stroke="midnightblue" points="1514.84,-172.09 1525.35,-170.78 1516.32,-165.25 1514.84,-172.09"/>
</g>
<!-- Node116 -->
<g id="node29" class="node">
<title>Node116</title>
<g id="a_node29"><a xlink:href="monitor_8c.html" target="_top" xlink:title=" ">
<polygon fill="white" stroke="black" points="1310,-56.5 1310,-75.5 1372,-75.5 1372,-56.5 1310,-56.5"/>
<text text-anchor="middle" x="1341" y="-63.5" font-family="FreeSans" font-size="10.00">monitor.c</text>
</a>
</g>
</g>
<!-- Node1&#45;&gt;Node116 -->
<g id="edge57" class="edge">
<title>Node1&#45;&gt;Node116</title>
<path fill="none" stroke="midnightblue" d="M1515.63,-167.5C1487.82,-160.13 1450.92,-148.38 1421,-132 1392.12,-116.19 1363.43,-89.53 1349.57,-75.78"/>
<polygon fill="midnightblue" stroke="midnightblue" points="1514.88,-170.92 1525.43,-170.02 1516.62,-164.14 1514.88,-170.92"/>
</g>
<!-- Node105 -->
<g id="node30" class="node">
<title>Node105</title>
<g id="a_node30"><a xlink:href="montage_8c.html" target="_top" xlink:title=" ">
<polygon fill="white" stroke="black" points="1390,-56.5 1390,-75.5 1458,-75.5 1458,-56.5 1390,-56.5"/>
<text text-anchor="middle" x="1424" y="-63.5" font-family="FreeSans" font-size="10.00">montage.c</text>
</a>
</g>
</g>
<!-- Node1&#45;&gt;Node105 -->
<g id="edge58" class="edge">
<title>Node1&#45;&gt;Node105</title>
<path fill="none" stroke="midnightblue" d="M1515.12,-172.83C1487.52,-167.78 1452.92,-156.63 1433,-132 1419.82,-115.7 1420.94,-89.25 1422.61,-75.67"/>
<polygon fill="midnightblue" stroke="midnightblue" points="1514.87,-176.34 1525.3,-174.48 1515.99,-169.43 1514.87,-176.34"/>
</g>
<!-- Node60 -->
<g id="node31" class="node">
<title>Node60</title>
<g id="a_node31"><a xlink:href="opencl_8c.html" target="_top" xlink:title=" ">
<polygon fill="white" stroke="black" points="1476.5,-56.5 1476.5,-75.5 1533.5,-75.5 1533.5,-56.5 1476.5,-56.5"/>
<text text-anchor="middle" x="1505" y="-63.5" font-family="FreeSans" font-size="10.00">opencl.c</text>
</a>
</g>
</g>
<!-- Node1&#45;&gt;Node60 -->
<g id="edge59" class="edge">
<title>Node1&#45;&gt;Node60</title>
<path fill="none" stroke="midnightblue" d="M1515.25,-172.73C1488.92,-167.64 1456.81,-156.47 1440,-132 1424.28,-109.11 1459.96,-87.31 1484.43,-75.69"/>
<polygon fill="midnightblue" stroke="midnightblue" points="1514.94,-176.23 1525.38,-174.46 1516.11,-169.33 1514.94,-176.23"/>
</g>
<!-- Node66 -->
<g id="node32" class="node">
<title>Node66</title>
<g id="a_node32"><a xlink:href="option_8c.html" target="_top" xlink:title=" ">
<polygon fill="white" stroke="black" points="1552,-56.5 1552,-75.5 1608,-75.5 1608,-56.5 1552,-56.5"/>
<text text-anchor="middle" x="1580" y="-63.5" font-family="FreeSans" font-size="10.00">option.c</text>
</a>
</g>
</g>
<!-- Node1&#45;&gt;Node66 -->
<g id="edge60" class="edge">
<title>Node1&#45;&gt;Node66</title>
<path fill="none" stroke="midnightblue" d="M1515.32,-168.89C1476.41,-159.35 1427.23,-141.03 1448,-112 1454.23,-103.29 1514.95,-85.11 1551.83,-74.72"/>
<polygon fill="midnightblue" stroke="midnightblue" points="1514.91,-172.39 1525.45,-171.24 1516.49,-165.57 1514.91,-172.39"/>
</g>
<!-- Node34 -->
<g id="node33" class="node">
<title>Node34</title>
<g id="a_node33"><a xlink:href="profile_8c.html" target="_top" xlink:title=" ">
<polygon fill="white" stroke="black" points="1626,-56.5 1626,-75.5 1682,-75.5 1682,-56.5 1626,-56.5"/>
<text text-anchor="middle" x="1654" y="-63.5" font-family="FreeSans" font-size="10.00">profile.c</text>
</a>
</g>
</g>
<!-- Node1&#45;&gt;Node34 -->
<g id="edge64" class="edge">
<title>Node1&#45;&gt;Node34</title>
<path fill="none" stroke="midnightblue" d="M1525.19,-164.22C1499.57,-152.04 1470.23,-132.55 1486,-112 1488.17,-109.17 1578.71,-85.99 1625.95,-74.05"/>
<polygon fill="midnightblue" stroke="midnightblue" points="1523.81,-167.44 1534.36,-168.37 1526.69,-161.06 1523.81,-167.44"/>
</g>
<!-- Node35 -->
<g id="node34" class="node">
<title>Node35</title>
<g id="a_node34"><a xlink:href="property_8c.html" target="_top" xlink:title=" ">
<polygon fill="white" stroke="black" points="1700.5,-56.5 1700.5,-75.5 1765.5,-75.5 1765.5,-56.5 1700.5,-56.5"/>
<text text-anchor="middle" x="1733" y="-63.5" font-family="FreeSans" font-size="10.00">property.c</text>
</a>
</g>
</g>
<!-- Node1&#45;&gt;Node35 -->
<g id="edge65" class="edge">
<title>Node1&#45;&gt;Node35</title>
<path fill="none" stroke="midnightblue" d="M1539.51,-161.37C1526.1,-147.49 1511.79,-127.12 1524,-112 1524.17,-111.78 1641.65,-86.58 1700.38,-73.99"/>
<polygon fill="midnightblue" stroke="midnightblue" points="1537.08,-163.89 1546.69,-168.34 1541.95,-158.86 1537.08,-163.89"/>
</g>
<!-- Node36 -->
<g id="node35" class="node">
<title>Node36</title>
<g id="a_node35"><a xlink:href="quantize_8c.html" target="_top" xlink:title=" ">
<polygon fill="white" stroke="black" points="1783.5,-56.5 1783.5,-75.5 1850.5,-75.5 1850.5,-56.5 1783.5,-56.5"/>
<text text-anchor="middle" x="1817" y="-63.5" font-family="FreeSans" font-size="10.00">quantize.c</text>
</a>
</g>
</g>
<!-- Node1&#45;&gt;Node36 -->
<g id="edge66" class="edge">
<title>Node1&#45;&gt;Node36</title>
<path fill="none" stroke="midnightblue" d="M1552.83,-158.25C1550.8,-143.79 1550.81,-124.25 1562,-112 1594.37,-76.55 1727.85,-85.03 1775,-76 1777.64,-75.49 1780.36,-74.95 1783.1,-74.4"/>
<polygon fill="midnightblue" stroke="midnightblue" points="1549.39,-158.91 1554.63,-168.12 1556.28,-157.65 1549.39,-158.91"/>
</g>
<!-- Node74 -->
<g id="node36" class="node">
<title>Node74</title>
<g id="a_node36"><a xlink:href="resize_8c.html" target="_top" xlink:title=" ">
<polygon fill="white" stroke="black" points="1869,-56.5 1869,-75.5 1923,-75.5 1923,-56.5 1869,-56.5"/>
<text text-anchor="middle" x="1896" y="-63.5" font-family="FreeSans" font-size="10.00">resize.c</text>
</a>
</g>
</g>
<!-- Node1&#45;&gt;Node74 -->
<g id="edge70" class="edge">
<title>Node1&#45;&gt;Node74</title>
<path fill="none" stroke="midnightblue" d="M1564.03,-158.7C1570.84,-143.58 1582.7,-122.9 1600,-112 1698.72,-49.84 1745.47,-98.18 1860,-76 1862.91,-75.44 1865.94,-74.79 1868.94,-74.1"/>
<polygon fill="midnightblue" stroke="midnightblue" points="1560.73,-157.51 1560.11,-168.09 1567.19,-160.2 1560.73,-157.51"/>
</g>
<!-- Node77 -->
<g id="node37" class="node">
<title>Node77</title>
<g id="a_node37"><a xlink:href="segment_8c.html" target="_top" xlink:title=" ">
<polygon fill="white" stroke="black" points="1941,-56.5 1941,-75.5 2009,-75.5 2009,-56.5 1941,-56.5"/>
<text text-anchor="middle" x="1975" y="-63.5" font-family="FreeSans" font-size="10.00">segment.c</text>
</a>
</g>
</g>
<!-- Node1&#45;&gt;Node77 -->
<g id="edge71" class="edge">
<title>Node1&#45;&gt;Node77</title>
<path fill="none" stroke="midnightblue" d="M1571.39,-161.19C1586.39,-145.82 1611.4,-123.22 1638,-112 1759.3,-60.85 1802.13,-97.5 1932,-76 1934.86,-75.53 1937.82,-75 1940.78,-74.43"/>
<polygon fill="midnightblue" stroke="midnightblue" points="1568.83,-158.8 1564.5,-168.47 1573.92,-163.61 1568.83,-158.8"/>
</g>
<!-- Node38 -->
<g id="node38" class="node">
<title>Node38</title>
<g id="a_node38"><a xlink:href="shear_8c.html" target="_top" xlink:title=" ">
<polygon fill="white" stroke="black" points="2027.5,-56.5 2027.5,-75.5 2078.5,-75.5 2078.5,-56.5 2027.5,-56.5"/>
<text text-anchor="middle" x="2053" y="-63.5" font-family="FreeSans" font-size="10.00">shear.c</text>
</a>
</g>
</g>
<!-- Node1&#45;&gt;Node38 -->
<g id="edge72" class="edge">
<title>Node1&#45;&gt;Node38</title>
<path fill="none" stroke="midnightblue" d="M1581.8,-163.13C1615.18,-144.51 1670.99,-113.56 1676,-112 1821.9,-66.48 1867.58,-103.1 2018,-76 2021.09,-75.44 2024.3,-74.76 2027.48,-74.02"/>
<polygon fill="midnightblue" stroke="midnightblue" points="1579.66,-160.31 1572.64,-168.25 1583.08,-166.43 1579.66,-160.31"/>
</g>
<!-- Node39 -->
<g id="node39" class="node">
<title>Node39</title>
<g id="a_node39"><a xlink:href="transform_8c.html" target="_top" xlink:title=" ">
<polygon fill="white" stroke="black" points="2096.5,-56.5 2096.5,-75.5 2169.5,-75.5 2169.5,-56.5 2096.5,-56.5"/>
<text text-anchor="middle" x="2133" y="-63.5" font-family="FreeSans" font-size="10.00">transform.c</text>
</a>
</g>
</g>
<!-- Node1&#45;&gt;Node39 -->
<g id="edge75" class="edge">
<title>Node1&#45;&gt;Node39</title>
<path fill="none" stroke="midnightblue" d="M1590.24,-164.95C1613.59,-156.28 1645.46,-144.03 1673,-132 1691.58,-123.88 1694.49,-117.5 1714,-112 1874.72,-66.67 1922.8,-100.41 2088,-76 2090.68,-75.6 2093.44,-75.15 2096.22,-74.67"/>
<polygon fill="midnightblue" stroke="midnightblue" points="1588.96,-161.69 1580.79,-168.44 1591.38,-168.26 1588.96,-161.69"/>
</g>
<!-- Node40 -->
<g id="node40" class="node">
<title>Node40</title>
<g id="a_node40"><a xlink:href="visual-effects_8c.html" target="_top" xlink:title=" ">
<polygon fill="white" stroke="black" points="2187.5,-56.5 2187.5,-75.5 2278.5,-75.5 2278.5,-56.5 2187.5,-56.5"/>
<text text-anchor="middle" x="2233" y="-63.5" font-family="FreeSans" font-size="10.00">visual&#45;effects.c</text>
</a>
</g>
</g>
<!-- Node1&#45;&gt;Node40 -->
<g id="edge77" class="edge">
<title>Node1&#45;&gt;Node40</title>
<path fill="none" stroke="midnightblue" d="M1598.55,-166.27C1629.17,-157.96 1671.63,-145.61 1708,-132 1728.12,-124.47 1731.22,-117.43 1752,-112 1936.27,-63.89 1990.03,-99.67 2179,-76 2181.73,-75.66 2184.54,-75.28 2187.37,-74.87"/>
<polygon fill="midnightblue" stroke="midnightblue" points="1597.4,-162.95 1588.65,-168.93 1599.21,-169.71 1597.4,-162.95"/>
</g>
<!-- Node79 -->
<g id="node41" class="node">
<title>Node79</title>
<g id="a_node41"><a xlink:href="xwindow_8c.html" target="_top" xlink:title=" ">
<polygon fill="white" stroke="black" points="2297,-56.5 2297,-75.5 2365,-75.5 2365,-56.5 2297,-56.5"/>
<text text-anchor="middle" x="2331" y="-63.5" font-family="FreeSans" font-size="10.00">xwindow.c</text>
</a>
</g>
</g>
<!-- Node1&#45;&gt;Node79 -->
<g id="edge78" class="edge">
<title>Node1&#45;&gt;Node79</title>
<path fill="none" stroke="midnightblue" d="M1599,-169.61C1637.41,-162.22 1695.46,-149.45 1744,-132 1763.08,-125.14 1765.42,-117.26 1785,-112 2001.44,-53.81 2066.03,-107.03 2288,-76 2290.87,-75.6 2293.84,-75.12 2296.81,-74.59"/>
<polygon fill="midnightblue" stroke="midnightblue" points="1597.89,-166.26 1588.71,-171.55 1599.19,-173.14 1597.89,-166.26"/>
</g>
<!-- Node64 -->
<g id="node42" class="node">
<title>Node64</title>
<g id="a_node42"><a xlink:href="paint_8c.html" target="_top" xlink:title=" ">
<polygon fill="white" stroke="black" points="2508,-112.5 2508,-131.5 2558,-131.5 2558,-112.5 2508,-112.5"/>
<text text-anchor="middle" x="2533" y="-119.5" font-family="FreeSans" font-size="10.00">paint.c</text>
</a>
</g>
</g>
<!-- Node1&#45;&gt;Node64 -->
<g id="edge61" class="edge">
<title>Node1&#45;&gt;Node64</title>
<path fill="none" stroke="midnightblue" d="M1598.78,-176.18C1757.31,-172.87 2321.65,-159.39 2499,-132 2501.9,-131.55 2504.9,-130.96 2507.87,-130.28"/>
<polygon fill="midnightblue" stroke="midnightblue" points="1598.43,-172.68 1588.5,-176.39 1598.57,-179.68 1598.43,-172.68"/>
</g>
<!-- Node48 -->
<g id="node43" class="node">
<title>Node48</title>
<g id="a_node43"><a xlink:href="pixel_8c.html" target="_top" xlink:title=" ">
<polygon fill="white" stroke="black" points="2576,-112.5 2576,-131.5 2624,-131.5 2624,-112.5 2576,-112.5"/>
<text text-anchor="middle" x="2600" y="-119.5" font-family="FreeSans" font-size="10.00">pixel.c</text>
</a>
</g>
</g>
<!-- Node1&#45;&gt;Node48 -->
<g id="edge62" class="edge">
<title>Node1&#45;&gt;Node48</title>
<path fill="none" stroke="midnightblue" d="M1599.05,-176.37C1765.17,-173.68 2375.9,-161.94 2567,-132 2569.93,-131.54 2572.98,-130.92 2575.98,-130.21"/>
<polygon fill="midnightblue" stroke="midnightblue" points="1598.71,-172.87 1588.76,-176.53 1598.82,-179.87 1598.71,-172.87"/>
</g>
<!-- Node121 -->
<g id="node44" class="node">
<title>Node121</title>
<g id="a_node44"><a xlink:href="policy_8c.html" target="_top" xlink:title=" ">
<polygon fill="white" stroke="black" points="2642.5,-112.5 2642.5,-131.5 2695.5,-131.5 2695.5,-112.5 2642.5,-112.5"/>
<text text-anchor="middle" x="2669" y="-119.5" font-family="FreeSans" font-size="10.00">policy.c</text>
</a>
</g>
</g>
<!-- Node1&#45;&gt;Node121 -->
<g id="edge63" class="edge">
<title>Node1&#45;&gt;Node121</title>
<path fill="none" stroke="midnightblue" d="M1598.93,-176.38C1771.58,-173.68 2427.96,-161.6 2633,-132 2636.06,-131.56 2639.24,-130.97 2642.38,-130.29"/>
<polygon fill="midnightblue" stroke="midnightblue" points="1598.68,-172.89 1588.74,-176.54 1598.79,-179.89 1598.68,-172.89"/>
</g>
<!-- Node49 -->
<g id="node45" class="node">
<title>Node49</title>
<g id="a_node45"><a xlink:href="quantum-export_8c.html" target="_top" xlink:title=" ">
<polygon fill="white" stroke="black" points="2714,-112.5 2714,-131.5 2818,-131.5 2818,-112.5 2714,-112.5"/>
<text text-anchor="middle" x="2766" y="-119.5" font-family="FreeSans" font-size="10.00">quantum&#45;export.c</text>
</a>
</g>
</g>
<!-- Node1&#45;&gt;Node49 -->
<g id="edge67" class="edge">
<title>Node1&#45;&gt;Node49</title>
<path fill="none" stroke="midnightblue" d="M1598.72,-176.98C1748.63,-176.56 2273.96,-172.13 2705,-132 2707.88,-131.73 2710.83,-131.42 2713.8,-131.08"/>
<polygon fill="midnightblue" stroke="midnightblue" points="1598.57,-173.48 1588.58,-177 1598.59,-180.48 1598.57,-173.48"/>
</g>
<!-- Node50 -->
<g id="node46" class="node">
<title>Node50</title>
<g id="a_node46"><a xlink:href="quantum-import_8c.html" target="_top" xlink:title=" ">
<polygon fill="white" stroke="black" points="2836,-112.5 2836,-131.5 2940,-131.5 2940,-112.5 2836,-112.5"/>
<text text-anchor="middle" x="2888" y="-119.5" font-family="FreeSans" font-size="10.00">quantum&#45;import.c</text>
</a>
</g>
</g>
<!-- Node1&#45;&gt;Node50 -->
<g id="edge68" class="edge">
<title>Node1&#45;&gt;Node50</title>
<path fill="none" stroke="midnightblue" d="M1598.83,-177.2C1758.66,-177.62 2345.9,-175.88 2827,-132 2829.88,-131.74 2832.83,-131.43 2835.8,-131.09"/>
<polygon fill="midnightblue" stroke="midnightblue" points="1598.51,-173.7 1588.5,-177.17 1598.49,-180.7 1598.51,-173.7"/>
</g>
<!-- Node37 -->
<g id="node47" class="node">
<title>Node37</title>
<g id="a_node47"><a xlink:href="quantum_8c.html" target="_top" xlink:title=" ">
<polygon fill="white" stroke="black" points="2958,-112.5 2958,-131.5 3026,-131.5 3026,-112.5 2958,-112.5"/>
<text text-anchor="middle" x="2992" y="-119.5" font-family="FreeSans" font-size="10.00">quantum.c</text>
</a>
</g>
</g>
<!-- Node1&#45;&gt;Node37 -->
<g id="edge69" class="edge">
<title>Node1&#45;&gt;Node37</title>
<path fill="none" stroke="midnightblue" d="M1598.81,-176.63C1800.89,-174.69 2677.77,-164.52 2949,-132 2951.88,-131.65 2954.85,-131.21 2957.82,-130.71"/>
<polygon fill="midnightblue" stroke="midnightblue" points="1598.58,-173.13 1588.62,-176.73 1598.65,-180.13 1598.58,-173.13"/>
</g>
<!-- Node51 -->
<g id="node48" class="node">
<title>Node51</title>
<g id="a_node48"><a xlink:href="statistic_8c.html" target="_top" xlink:title=" ">
<polygon fill="white" stroke="black" points="3044,-112.5 3044,-131.5 3108,-131.5 3108,-112.5 3044,-112.5"/>
<text text-anchor="middle" x="3076" y="-119.5" font-family="FreeSans" font-size="10.00">statistic.c</text>
</a>
</g>
</g>
<!-- Node1&#45;&gt;Node51 -->
<g id="edge73" class="edge">
<title>Node1&#45;&gt;Node51</title>
<path fill="none" stroke="midnightblue" d="M1599.01,-176.77C1808.98,-175.49 2746.08,-167.79 3035,-132 3037.89,-131.64 3040.88,-131.18 3043.87,-130.64"/>
<polygon fill="midnightblue" stroke="midnightblue" points="1598.7,-173.28 1588.72,-176.84 1598.74,-180.28 1598.7,-173.28"/>
</g>
<!-- Node75 -->
<g id="node49" class="node">
<title>Node75</title>
<g id="a_node49"><a xlink:href="threshold_8c.html" target="_top" xlink:title=" ">
<polygon fill="white" stroke="black" points="3126.5,-112.5 3126.5,-131.5 3197.5,-131.5 3197.5,-112.5 3126.5,-112.5"/>
<text text-anchor="middle" x="3162" y="-119.5" font-family="FreeSans" font-size="10.00">threshold.c</text>
</a>
</g>
</g>
<!-- Node1&#45;&gt;Node75 -->
<g id="edge74" class="edge">
<title>Node1&#45;&gt;Node75</title>
<path fill="none" stroke="midnightblue" d="M1598.86,-176.75C1815.45,-175.3 2810.56,-166.81 3117,-132 3120.01,-131.66 3123.11,-131.22 3126.22,-130.72"/>
<polygon fill="midnightblue" stroke="midnightblue" points="1598.54,-173.25 1588.57,-176.82 1598.59,-180.25 1598.54,-173.25"/>
</g>
<!-- Node76 -->
<g id="node50" class="node">
<title>Node76</title>
<g id="a_node50"><a xlink:href="vision_8c.html" target="_top" xlink:title=" ">
<polygon fill="white" stroke="black" points="3216,-112.5 3216,-131.5 3270,-131.5 3270,-112.5 3216,-112.5"/>
<text text-anchor="middle" x="3243" y="-119.5" font-family="FreeSans" font-size="10.00">vision.c</text>
</a>
</g>
</g>
<!-- Node1&#45;&gt;Node76 -->
<g id="edge76" class="edge">
<title>Node1&#45;&gt;Node76</title>
<path fill="none" stroke="midnightblue" d="M1598.81,-177.09C1822.78,-177.4 2882.63,-176.43 3207,-132 3209.94,-131.6 3212.98,-131.05 3216,-130.42"/>
<polygon fill="midnightblue" stroke="midnightblue" points="1598.78,-173.59 1588.78,-177.08 1598.77,-180.59 1598.78,-173.59"/>
</g>
<!-- Node3 -->
<g id="node3" class="node">
<title>Node3</title>
<g id="a_node3"><a xlink:href="ImageMagick_8h.html" target="_top" xlink:title=" ">
<polygon fill="white" stroke="black" points="0,-0.5 0,-19.5 92,-19.5 92,-0.5 0,-0.5"/>
<text text-anchor="middle" x="46" y="-7.5" font-family="FreeSans" font-size="10.00">ImageMagick.h</text>
</a>
</g>
</g>
<!-- Node2&#45;&gt;Node3 -->
<g id="edge2" class="edge">
<title>Node2&#45;&gt;Node3</title>
<path fill="none" stroke="midnightblue" d="M46,-45.8C46,-36.91 46,-26.78 46,-19.75"/>
<polygon fill="midnightblue" stroke="midnightblue" points="42.5,-46.08 46,-56.08 49.5,-46.08 42.5,-46.08"/>
</g>
<!-- Node29&#45;&gt;Node2 -->
<g id="edge27" class="edge">
<title>Node29&#45;&gt;Node2</title>
<path fill="none" stroke="midnightblue" d="M1139.68,-121.29C999.65,-121.96 502.61,-120.84 96,-76 93.28,-75.7 90.49,-75.34 87.68,-74.94"/>
<polygon fill="midnightblue" stroke="midnightblue" points="1139.91,-124.79 1149.89,-121.24 1139.87,-117.79 1139.91,-124.79"/>
</g>
<!-- Node29&#45;&gt;Node6 -->
<g id="edge28" class="edge">
<title>Node29&#45;&gt;Node6</title>
<path fill="none" stroke="midnightblue" d="M1139.76,-120.13C980.69,-116.36 370.86,-100.58 180,-76 177.04,-75.62 173.98,-75.14 170.93,-74.6"/>
<polygon fill="midnightblue" stroke="midnightblue" points="1139.92,-123.63 1150,-120.37 1140.08,-116.63 1139.92,-123.63"/>
</g>
<!-- Node29&#45;&gt;Node7 -->
<g id="edge29" class="edge">
<title>Node29&#45;&gt;Node7</title>
<path fill="none" stroke="midnightblue" d="M1139.66,-121.56C1013.1,-122.87 597.37,-123.08 258,-76 255.11,-75.6 252.12,-75.09 249.13,-74.51"/>
<polygon fill="midnightblue" stroke="midnightblue" points="1140.02,-125.05 1149.98,-121.44 1139.94,-118.05 1140.02,-125.05"/>
</g>
<!-- Node29&#45;&gt;Node8 -->
<g id="edge30" class="edge">
<title>Node29&#45;&gt;Node8</title>
<path fill="none" stroke="midnightblue" d="M1139.68,-121.07C1020.85,-120.84 648.22,-116.67 343,-76 340.34,-75.65 337.6,-75.21 334.85,-74.73"/>
<polygon fill="midnightblue" stroke="midnightblue" points="1139.73,-124.57 1149.74,-121.08 1139.74,-117.57 1139.73,-124.57"/>
</g>
<!-- Node29&#45;&gt;Node9 -->
<g id="edge31" class="edge">
<title>Node29&#45;&gt;Node9</title>
<path fill="none" stroke="midnightblue" d="M1139.77,-120.82C1028.76,-119.85 697.07,-113.75 425,-76 421.97,-75.58 418.83,-75.05 415.7,-74.47"/>
<polygon fill="midnightblue" stroke="midnightblue" points="1139.78,-124.32 1149.81,-120.9 1139.84,-117.32 1139.78,-124.32"/>
</g>
<!-- Node29&#45;&gt;Node10 -->
<g id="edge32" class="edge">
<title>Node29&#45;&gt;Node10</title>
<path fill="none" stroke="midnightblue" d="M1139.9,-120.86C1036.09,-119.98 739.75,-114.05 497,-76 494.07,-75.54 491.03,-74.96 488.02,-74.31"/>
<polygon fill="midnightblue" stroke="midnightblue" points="1139.88,-124.36 1149.91,-120.94 1139.94,-117.36 1139.88,-124.36"/>
</g>
<!-- Node29&#45;&gt;Node13 -->
<g id="edge33" class="edge">
<title>Node29&#45;&gt;Node13</title>
<path fill="none" stroke="midnightblue" d="M1139.76,-119.5C1046.15,-115.51 798.18,-103.05 593,-76 589.97,-75.6 586.85,-75.14 583.71,-74.63"/>
<polygon fill="midnightblue" stroke="midnightblue" points="1139.74,-123 1149.88,-119.92 1140.03,-116.01 1139.74,-123"/>
</g>
<!-- Node29&#45;&gt;Node15 -->
<g id="edge34" class="edge">
<title>Node29&#45;&gt;Node15</title>
<path fill="none" stroke="midnightblue" d="M1139.74,-118.77C1056.9,-113.67 854.88,-99.71 687,-76 684.12,-75.59 681.15,-75.13 678.17,-74.63"/>
<polygon fill="midnightblue" stroke="midnightblue" points="1139.74,-122.28 1149.93,-119.39 1140.16,-115.29 1139.74,-122.28"/>
</g>
<!-- Node29&#45;&gt;Node18 -->
<g id="edge35" class="edge">
<title>Node29&#45;&gt;Node18</title>
<path fill="none" stroke="midnightblue" d="M1139.49,-117.96C1067.31,-111.98 906.89,-97.4 773,-76 770.14,-75.54 767.18,-75.02 764.21,-74.47"/>
<polygon fill="midnightblue" stroke="midnightblue" points="1139.64,-121.48 1149.89,-118.81 1140.21,-114.5 1139.64,-121.48"/>
</g>
<!-- Node29&#45;&gt;Node19 -->
<g id="edge36" class="edge">
<title>Node29&#45;&gt;Node19</title>
<path fill="none" stroke="midnightblue" d="M1139.88,-116.15C1080.84,-108.5 963.8,-92.76 865,-76 862.11,-75.51 859.13,-74.98 856.13,-74.43"/>
<polygon fill="midnightblue" stroke="midnightblue" points="1139.5,-119.63 1149.87,-117.44 1140.4,-112.69 1139.5,-119.63"/>
</g>
<!-- Node29&#45;&gt;Node20 -->
<g id="edge37" class="edge">
<title>Node29&#45;&gt;Node20</title>
<path fill="none" stroke="midnightblue" d="M1139.76,-114.13C1093.18,-105.67 1012.15,-90.59 943,-76 940.01,-75.37 936.89,-74.69 933.78,-73.99"/>
<polygon fill="midnightblue" stroke="midnightblue" points="1139.25,-117.6 1149.72,-115.94 1140.5,-110.71 1139.25,-117.6"/>
</g>
<!-- Node29&#45;&gt;Node23 -->
<g id="edge38" class="edge">
<title>Node29&#45;&gt;Node23</title>
<path fill="none" stroke="midnightblue" d="M1140.18,-110.42C1103.78,-100.23 1049.43,-85.03 1015.65,-75.58"/>
<polygon fill="midnightblue" stroke="midnightblue" points="1139.36,-113.82 1149.94,-113.15 1141.25,-107.08 1139.36,-113.82"/>
</g>
<!-- Node29&#45;&gt;Node25 -->
<g id="edge39" class="edge">
<title>Node29&#45;&gt;Node25</title>
<path fill="none" stroke="midnightblue" d="M1150.76,-108.1C1129.46,-98.01 1100.46,-84.27 1081.98,-75.52"/>
<polygon fill="midnightblue" stroke="midnightblue" points="1149.4,-111.33 1159.94,-112.44 1152.4,-105 1149.4,-111.33"/>
</g>
<!-- Node29&#45;&gt;Node26 -->
<g id="edge40" class="edge">
<title>Node29&#45;&gt;Node26</title>
<path fill="none" stroke="midnightblue" d="M1162.92,-104.72C1154.11,-95.2 1143.33,-83.56 1136.1,-75.75"/>
<polygon fill="midnightblue" stroke="midnightblue" points="1160.38,-107.12 1169.74,-112.08 1165.52,-102.37 1160.38,-107.12"/>
</g>
<!-- Node29&#45;&gt;Node27 -->
<g id="edge41" class="edge">
<title>Node29&#45;&gt;Node27</title>
<path fill="none" stroke="midnightblue" d="M1183.51,-102.4C1186.19,-93.36 1189.28,-82.94 1191.41,-75.75"/>
<polygon fill="midnightblue" stroke="midnightblue" points="1180.13,-101.5 1180.64,-112.08 1186.84,-103.49 1180.13,-101.5"/>
</g>
<!-- Node29&#45;&gt;Node65 -->
<g id="edge42" class="edge">
<title>Node29&#45;&gt;Node65</title>
<path fill="none" stroke="midnightblue" d="M1201.24,-106.9C1217.56,-97 1238.87,-84.07 1252.74,-75.65"/>
<polygon fill="midnightblue" stroke="midnightblue" points="1199.03,-104.14 1192.3,-112.32 1202.66,-110.13 1199.03,-104.14"/>
</g>
<!-- Node29&#45;&gt;Node116 -->
<g id="edge43" class="edge">
<title>Node29&#45;&gt;Node116</title>
<path fill="none" stroke="midnightblue" d="M1213.7,-109.17C1244.4,-99 1287.92,-84.59 1315.29,-75.52"/>
<polygon fill="midnightblue" stroke="midnightblue" points="1212.22,-105.98 1203.83,-112.44 1214.42,-112.62 1212.22,-105.98"/>
</g>
<!-- Node29&#45;&gt;Node105 -->
<g id="edge44" class="edge">
<title>Node29&#45;&gt;Node105</title>
<path fill="none" stroke="midnightblue" d="M1216.12,-112.63C1263.66,-102.2 1344.21,-84.51 1389.83,-74.5"/>
<polygon fill="midnightblue" stroke="midnightblue" points="1215.24,-109.24 1206.22,-114.81 1216.74,-116.08 1215.24,-109.24"/>
</g>
<!-- Node29&#45;&gt;Node60 -->
<g id="edge45" class="edge">
<title>Node29&#45;&gt;Node60</title>
<path fill="none" stroke="midnightblue" d="M1216.1,-116.03C1271.53,-108.59 1377.59,-93.52 1467,-76 1470.06,-75.4 1473.25,-74.73 1476.42,-74.02"/>
<polygon fill="midnightblue" stroke="midnightblue" points="1215.47,-112.59 1206.03,-117.38 1216.4,-119.52 1215.47,-112.59"/>
</g>
<!-- Node29&#45;&gt;Node66 -->
<g id="edge46" class="edge">
<title>Node29&#45;&gt;Node66</title>
<path fill="none" stroke="midnightblue" d="M1216.02,-117.68C1282.47,-111.58 1423.91,-97.22 1542,-76 1545.2,-75.42 1548.54,-74.75 1551.85,-74.03"/>
<polygon fill="midnightblue" stroke="midnightblue" points="1215.66,-114.2 1206.01,-118.59 1216.29,-121.17 1215.66,-114.2"/>
</g>
<!-- Node29&#45;&gt;Node34 -->
<g id="edge47" class="edge">
<title>Node29&#45;&gt;Node34</title>
<path fill="none" stroke="midnightblue" d="M1216.29,-118.84C1292.85,-114.13 1470.07,-101.28 1617,-76 1619.87,-75.51 1622.84,-74.92 1625.8,-74.28"/>
<polygon fill="midnightblue" stroke="midnightblue" points="1215.94,-115.35 1206.17,-119.45 1216.36,-122.34 1215.94,-115.35"/>
</g>
<!-- Node29&#45;&gt;Node35 -->
<g id="edge48" class="edge">
<title>Node29&#45;&gt;Node35</title>
<path fill="none" stroke="midnightblue" d="M1216.25,-119.26C1301.74,-115.03 1514.68,-102.52 1691,-76 1693.95,-75.56 1697,-75.03 1700.06,-74.46"/>
<polygon fill="midnightblue" stroke="midnightblue" points="1216.05,-115.77 1206.23,-119.75 1216.39,-122.76 1216.05,-115.77"/>
</g>
<!-- Node29&#45;&gt;Node36 -->
<g id="edge49" class="edge">
<title>Node29&#45;&gt;Node36</title>
<path fill="none" stroke="midnightblue" d="M1216.4,-119.91C1311.51,-116.83 1565.49,-106.2 1775,-76 1777.66,-75.62 1780.4,-75.16 1783.15,-74.67"/>
<polygon fill="midnightblue" stroke="midnightblue" points="1216.01,-116.42 1206.12,-120.24 1216.23,-123.42 1216.01,-116.42"/>
</g>
<!-- Node29&#45;&gt;Node74 -->
<g id="edge50" class="edge">
<title>Node29&#45;&gt;Node74</title>
<path fill="none" stroke="midnightblue" d="M1216.15,-120.87C1320.12,-120 1616.89,-114.09 1860,-76 1862.93,-75.54 1865.97,-74.96 1868.98,-74.31"/>
<polygon fill="midnightblue" stroke="midnightblue" points="1216.11,-117.37 1206.13,-120.94 1216.16,-124.37 1216.11,-117.37"/>
</g>
<!-- Node29&#45;&gt;Node77 -->
<g id="edge51" class="edge">
<title>Node29&#45;&gt;Node77</title>
<path fill="none" stroke="midnightblue" d="M1216.27,-120.69C1327.37,-119.38 1659.39,-112.46 1932,-76 1934.87,-75.62 1937.84,-75.15 1940.81,-74.63"/>
<polygon fill="midnightblue" stroke="midnightblue" points="1216.18,-117.2 1206.21,-120.8 1216.25,-124.2 1216.18,-117.2"/>
</g>
<!-- Node29&#45;&gt;Node38 -->
<g id="edge52" class="edge">
<title>Node29&#45;&gt;Node38</title>
<path fill="none" stroke="midnightblue" d="M1216.1,-119.96C1358.61,-115.93 1860.1,-100.28 2018,-76 2020.98,-75.54 2024.07,-74.94 2027.12,-74.26"/>
<polygon fill="midnightblue" stroke="midnightblue" points="1215.99,-116.46 1206.09,-120.24 1216.18,-123.46 1215.99,-116.46"/>
</g>
<!-- Node29&#45;&gt;Node39 -->
<g id="edge53" class="edge">
<title>Node29&#45;&gt;Node39</title>
<path fill="none" stroke="midnightblue" d="M1216.3,-121.13C1341.83,-121.12 1752.05,-117.67 2088,-76 2090.69,-75.67 2093.46,-75.26 2096.24,-74.81"/>
<polygon fill="midnightblue" stroke="midnightblue" points="1216.06,-117.63 1206.06,-121.12 1216.05,-124.63 1216.06,-117.63"/>
</g>
<!-- Node29&#45;&gt;Node40 -->
<g id="edge54" class="edge">
<title>Node29&#45;&gt;Node40</title>
<path fill="none" stroke="midnightblue" d="M1216.49,-120.93C1350.01,-120.34 1805.48,-115.38 2179,-76 2181.74,-75.71 2184.55,-75.37 2187.39,-75"/>
<polygon fill="midnightblue" stroke="midnightblue" points="1216.34,-117.43 1206.36,-120.97 1216.37,-124.43 1216.34,-117.43"/>
</g>
<!-- Node29&#45;&gt;Node79 -->
<g id="edge55" class="edge">
<title>Node29&#45;&gt;Node79</title>
<path fill="none" stroke="midnightblue" d="M1216.32,-120.3C1386.39,-117.06 2073.92,-102.56 2288,-76 2290.88,-75.64 2293.85,-75.19 2296.82,-74.69"/>
<polygon fill="midnightblue" stroke="midnightblue" points="1216.04,-116.8 1206.1,-120.49 1216.17,-123.8 1216.04,-116.8"/>
</g>
</g>
</svg>
