<?xml version="1.0" encoding="UTF-8" standalone="no"?>
<!DOCTYPE svg PUBLIC "-//W3C//DTD SVG 1.1//EN"
 "http://www.w3.org/Graphics/SVG/1.1/DTD/svg11.dtd">
<!-- Generated by graphviz version 2.43.0 (0)
 -->
<!-- Title: morphology.c Pages: 1 -->
<svg width="3281pt" height="308pt"
 viewBox="0.00 0.00 3281.08 308.00" xmlns="http://www.w3.org/2000/svg" xmlns:xlink="http://www.w3.org/1999/xlink">
<g id="graph0" class="graph" transform="scale(1 1) rotate(0) translate(4 304)">
<title>morphology.c</title>
<polygon fill="white" stroke="transparent" points="-4,4 -4,-304 3277.08,-304 3277.08,4 -4,4"/>
<!-- Node1 -->
<g id="node1" class="node">
<title>Node1</title>
<g id="a_node1"><a xlink:title=" ">
<polygon fill="#bfbfbf" stroke="black" points="1244.08,-280.5 1244.08,-299.5 1326.08,-299.5 1326.08,-280.5 1244.08,-280.5"/>
<text text-anchor="middle" x="1285.08" y="-287.5" font-family="FreeSans" font-size="10.00">morphology.c</text>
</a>
</g>
</g>
<!-- Node2 -->
<g id="node2" class="node">
<title>Node2</title>
<g id="a_node2"><a xlink:href="studio_8h.html" target="_top" xlink:title=" ">
<polygon fill="white" stroke="red" points="931.58,-168.5 931.58,-187.5 1026.58,-187.5 1026.58,-168.5 931.58,-168.5"/>
<text text-anchor="middle" x="979.08" y="-175.5" font-family="FreeSans" font-size="10.00">magick/studio.h</text>
</a>
</g>
</g>
<!-- Node1&#45;&gt;Node2 -->
<g id="edge1" class="edge">
<title>Node1&#45;&gt;Node2</title>
<path fill="none" stroke="midnightblue" d="M1244.03,-287.86C1140.02,-284.55 872.48,-273.25 846.08,-244 819.31,-214.35 874.08,-196.74 921.25,-187.48"/>
<polygon fill="midnightblue" stroke="midnightblue" points="921.97,-190.91 931.16,-185.63 920.69,-184.03 921.97,-190.91"/>
</g>
<!-- Node24 -->
<g id="node19" class="node">
<title>Node24</title>
<g id="a_node19"><a xlink:href="artifact_8h.html" target="_top" xlink:title=" ">
<polygon fill="white" stroke="black" points="1235.08,-224.5 1235.08,-243.5 1335.08,-243.5 1335.08,-224.5 1235.08,-224.5"/>
<text text-anchor="middle" x="1285.08" y="-231.5" font-family="FreeSans" font-size="10.00">magick/artifact.h</text>
</a>
</g>
</g>
<!-- Node1&#45;&gt;Node24 -->
<g id="edge18" class="edge">
<title>Node1&#45;&gt;Node24</title>
<path fill="none" stroke="midnightblue" d="M1285.08,-280.08C1285.08,-273.01 1285.08,-262.86 1285.08,-253.99"/>
<polygon fill="midnightblue" stroke="midnightblue" points="1288.58,-253.75 1285.08,-243.75 1281.58,-253.75 1288.58,-253.75"/>
</g>
<!-- Node25 -->
<g id="node20" class="node">
<title>Node25</title>
<g id="a_node20"><a xlink:href="cache-view_8h.html" target="_top" xlink:title=" ">
<polygon fill="white" stroke="red" points="302.58,-112.5 302.58,-131.5 421.58,-131.5 421.58,-112.5 302.58,-112.5"/>
<text text-anchor="middle" x="362.08" y="-119.5" font-family="FreeSans" font-size="10.00">magick/cache&#45;view.h</text>
</a>
</g>
</g>
<!-- Node1&#45;&gt;Node25 -->
<g id="edge19" class="edge">
<title>Node1&#45;&gt;Node25</title>
<path fill="none" stroke="midnightblue" d="M1244.04,-288.21C1087.59,-285.01 533.71,-271.81 460.08,-244 422.48,-229.8 413.35,-220.03 389.08,-188 378.48,-174.01 371.28,-155.26 366.99,-141.5"/>
<polygon fill="midnightblue" stroke="midnightblue" points="370.31,-140.35 364.17,-131.71 363.58,-142.29 370.31,-140.35"/>
</g>
<!-- Node29 -->
<g id="node21" class="node">
<title>Node29</title>
<g id="a_node21"><a xlink:href="color-private_8h.html" target="_top" xlink:title=" ">
<polygon fill="white" stroke="red" points="641.58,-224.5 641.58,-243.5 768.58,-243.5 768.58,-224.5 641.58,-224.5"/>
<text text-anchor="middle" x="705.08" y="-231.5" font-family="FreeSans" font-size="10.00">magick/color&#45;private.h</text>
</a>
</g>
</g>
<!-- Node1&#45;&gt;Node29 -->
<g id="edge20" class="edge">
<title>Node1&#45;&gt;Node29</title>
<path fill="none" stroke="midnightblue" d="M1244.05,-285.68C1158.35,-278.66 954.12,-261.53 783.08,-244 781.78,-243.87 780.47,-243.73 779.15,-243.59"/>
<polygon fill="midnightblue" stroke="midnightblue" points="779.23,-240.08 768.91,-242.5 778.49,-247.04 779.23,-240.08"/>
</g>
<!-- Node30 -->
<g id="node22" class="node">
<title>Node30</title>
<g id="a_node22"><a xlink:href="image_8h.html" target="_top" xlink:title=" ">
<polygon fill="white" stroke="red" points="562.58,-168.5 562.58,-187.5 657.58,-187.5 657.58,-168.5 562.58,-168.5"/>
<text text-anchor="middle" x="610.08" y="-175.5" font-family="FreeSans" font-size="10.00">magick/image.h</text>
</a>
</g>
</g>
<!-- Node1&#45;&gt;Node30 -->
<g id="edge42" class="edge">
<title>Node1&#45;&gt;Node30</title>
<path fill="none" stroke="midnightblue" d="M1243.92,-288.78C1108.16,-287.68 680.46,-281.29 632.08,-244 618.09,-233.22 612.93,-213.13 611.06,-198.13"/>
<polygon fill="midnightblue" stroke="midnightblue" points="614.52,-197.55 610.18,-187.89 607.54,-198.15 614.52,-197.55"/>
</g>
<!-- Node33 -->
<g id="node23" class="node">
<title>Node33</title>
<g id="a_node23"><a xlink:href="semaphore_8h.html" target="_top" xlink:title=" ">
<polygon fill="white" stroke="black" points="174.58,-0.5 174.58,-19.5 293.58,-19.5 293.58,-0.5 174.58,-0.5"/>
<text text-anchor="middle" x="234.08" y="-7.5" font-family="FreeSans" font-size="10.00">magick/semaphore.h</text>
</a>
</g>
</g>
<!-- Node1&#45;&gt;Node33 -->
<g id="edge64" class="edge">
<title>Node1&#45;&gt;Node33</title>
<path fill="none" stroke="midnightblue" d="M1243.84,-288.47C1081.93,-286.16 494.84,-275.66 418.08,-244 349.12,-215.56 338.04,-191.52 293.08,-132 286.37,-123.12 256.98,-60.47 242.38,-28.98"/>
<polygon fill="midnightblue" stroke="midnightblue" points="245.42,-27.22 238.05,-19.62 239.07,-30.16 245.42,-27.22"/>
</g>
<!-- Node52 -->
<g id="node24" class="node">
<title>Node52</title>
<g id="a_node24"><a xlink:href="image-private_8h.html" target="_top" xlink:title=" ">
<polygon fill="white" stroke="black" points="1045.08,-168.5 1045.08,-187.5 1179.08,-187.5 1179.08,-168.5 1045.08,-168.5"/>
<text text-anchor="middle" x="1112.08" y="-175.5" font-family="FreeSans" font-size="10.00">magick/image&#45;private.h</text>
</a>
</g>
</g>
<!-- Node1&#45;&gt;Node52 -->
<g id="edge43" class="edge">
<title>Node1&#45;&gt;Node52</title>
<path fill="none" stroke="midnightblue" d="M1244.03,-287.78C1141.38,-284.3 879.92,-272.68 854.08,-244 848.13,-237.4 848.36,-230.8 854.08,-224 860.16,-216.76 967.37,-199.92 1041.65,-189.01"/>
<polygon fill="midnightblue" stroke="midnightblue" points="1042.51,-192.43 1051.9,-187.52 1041.5,-185.5 1042.51,-192.43"/>
</g>
<!-- Node60 -->
<g id="node25" class="node">
<title>Node60</title>
<g id="a_node25"><a xlink:href="exception-private_8h.html" target="_top" xlink:title=" ">
<polygon fill="white" stroke="red" points="58.58,-168.5 58.58,-187.5 209.58,-187.5 209.58,-168.5 58.58,-168.5"/>
<text text-anchor="middle" x="134.08" y="-175.5" font-family="FreeSans" font-size="10.00">magick/exception&#45;private.h</text>
</a>
</g>
</g>
<!-- Node1&#45;&gt;Node60 -->
<g id="edge39" class="edge">
<title>Node1&#45;&gt;Node60</title>
<path fill="none" stroke="midnightblue" d="M1244.06,-288.65C1060.79,-286.91 321.62,-277.84 224.08,-244 194.66,-233.79 166.53,-210.58 149.77,-194.84"/>
<polygon fill="midnightblue" stroke="midnightblue" points="152.13,-192.25 142.51,-187.81 147.26,-197.28 152.13,-192.25"/>
</g>
<!-- Node62 -->
<g id="node26" class="node">
<title>Node62</title>
<g id="a_node26"><a xlink:href="magick_8h.html" target="_top" xlink:title=" ">
<polygon fill="white" stroke="black" points="144.58,-56.5 144.58,-75.5 245.58,-75.5 245.58,-56.5 144.58,-56.5"/>
<text text-anchor="middle" x="195.08" y="-63.5" font-family="FreeSans" font-size="10.00">magick/magick.h</text>
</a>
</g>
</g>
<!-- Node1&#45;&gt;Node62 -->
<g id="edge45" class="edge">
<title>Node1&#45;&gt;Node62</title>
<path fill="none" stroke="midnightblue" d="M1243.95,-288.45C1057.92,-285.79 302.47,-273.23 262.08,-244 235.38,-224.68 209.38,-126.95 199.38,-85.56"/>
<polygon fill="midnightblue" stroke="midnightblue" points="202.76,-84.63 197.05,-75.7 195.94,-86.24 202.76,-84.63"/>
</g>
<!-- Node46 -->
<g id="node27" class="node">
<title>Node46</title>
<g id="a_node27"><a xlink:href="string___8h.html" target="_top" xlink:title=" ">
<polygon fill="white" stroke="black" points="21.08,-112.5 21.08,-131.5 119.08,-131.5 119.08,-112.5 21.08,-112.5"/>
<text text-anchor="middle" x="70.08" y="-119.5" font-family="FreeSans" font-size="10.00">magick/string_.h</text>
</a>
</g>
</g>
<!-- Node1&#45;&gt;Node46 -->
<g id="edge67" class="edge">
<title>Node1&#45;&gt;Node46</title>
<path fill="none" stroke="midnightblue" d="M1243.79,-289.26C1069.2,-290.07 390.92,-290.11 183.08,-244 120.06,-230.02 84.85,-241.73 49.08,-188 39.36,-173.4 47.87,-153.98 56.8,-140.18"/>
<polygon fill="midnightblue" stroke="midnightblue" points="59.92,-141.84 62.83,-131.65 54.2,-137.8 59.92,-141.84"/>
</g>
<!-- Node32 -->
<g id="node28" class="node">
<title>Node32</title>
<g id="a_node28"><a xlink:href="exception_8h.html" target="_top" xlink:title=" ">
<polygon fill="white" stroke="black" points="13.58,-56.5 13.58,-75.5 126.58,-75.5 126.58,-56.5 13.58,-56.5"/>
<text text-anchor="middle" x="70.08" y="-63.5" font-family="FreeSans" font-size="10.00">magick/exception.h</text>
</a>
</g>
</g>
<!-- Node1&#45;&gt;Node32 -->
<g id="edge38" class="edge">
<title>Node1&#45;&gt;Node32</title>
<path fill="none" stroke="midnightblue" d="M1244.06,-288.43C1039.55,-285.45 137.76,-270.84 85.08,-244 32.13,-217.03 26.14,-189.73 12.08,-132 9.97,-123.36 8.17,-119.98 12.08,-112 18.6,-98.68 31.17,-88.18 42.95,-80.68"/>
<polygon fill="midnightblue" stroke="midnightblue" points="44.85,-83.62 51.69,-75.53 41.3,-77.59 44.85,-83.62"/>
</g>
<!-- Node63 -->
<g id="node29" class="node">
<title>Node63</title>
<g id="a_node29"><a xlink:href="channel_8h.html" target="_top" xlink:title=" ">
<polygon fill="white" stroke="black" points="481.58,-224.5 481.58,-243.5 584.58,-243.5 584.58,-224.5 481.58,-224.5"/>
<text text-anchor="middle" x="533.08" y="-231.5" font-family="FreeSans" font-size="10.00">magick/channel.h</text>
</a>
</g>
</g>
<!-- Node1&#45;&gt;Node63 -->
<g id="edge35" class="edge">
<title>Node1&#45;&gt;Node63</title>
<path fill="none" stroke="midnightblue" d="M1244.01,-287.31C1137.4,-282.71 843.11,-268.61 599.08,-244 597.78,-243.87 596.47,-243.73 595.16,-243.59"/>
<polygon fill="midnightblue" stroke="midnightblue" points="595.25,-240.08 584.92,-242.42 594.45,-247.03 595.25,-240.08"/>
</g>
<!-- Node64 -->
<g id="node30" class="node">
<title>Node64</title>
<g id="a_node30"><a xlink:href="enhance_8h.html" target="_top" xlink:title=" ">
<polygon fill="white" stroke="red" points="1353.08,-224.5 1353.08,-243.5 1459.08,-243.5 1459.08,-224.5 1353.08,-224.5"/>
<text text-anchor="middle" x="1406.08" y="-231.5" font-family="FreeSans" font-size="10.00">magick/enhance.h</text>
</a>
</g>
</g>
<!-- Node1&#45;&gt;Node64 -->
<g id="edge37" class="edge">
<title>Node1&#45;&gt;Node64</title>
<path fill="none" stroke="midnightblue" d="M1304.25,-280.44C1323.99,-271.64 1354.96,-257.81 1377.57,-247.72"/>
<polygon fill="midnightblue" stroke="midnightblue" points="1379.29,-250.79 1386.99,-243.52 1376.44,-244.4 1379.29,-250.79"/>
</g>
<!-- Node55 -->
<g id="node31" class="node">
<title>Node55</title>
<g id="a_node31"><a xlink:href="gem_8h.html" target="_top" xlink:title=" ">
<polygon fill="white" stroke="red" points="1477.08,-224.5 1477.08,-243.5 1563.08,-243.5 1563.08,-224.5 1477.08,-224.5"/>
<text text-anchor="middle" x="1520.08" y="-231.5" font-family="FreeSans" font-size="10.00">magick/gem.h</text>
</a>
</g>
</g>
<!-- Node1&#45;&gt;Node55 -->
<g id="edge40" class="edge">
<title>Node1&#45;&gt;Node55</title>
<path fill="none" stroke="midnightblue" d="M1322.31,-280.44C1363.14,-271.06 1428.72,-255.99 1473.06,-245.8"/>
<polygon fill="midnightblue" stroke="midnightblue" points="1474.05,-249.17 1483.02,-243.52 1472.49,-242.34 1474.05,-249.17"/>
</g>
<!-- Node43 -->
<g id="node32" class="node">
<title>Node43</title>
<g id="a_node32"><a xlink:href="hashmap_8h.html" target="_top" xlink:title=" ">
<polygon fill="white" stroke="black" points="1581.08,-224.5 1581.08,-243.5 1691.08,-243.5 1691.08,-224.5 1581.08,-224.5"/>
<text text-anchor="middle" x="1636.08" y="-231.5" font-family="FreeSans" font-size="10.00">magick/hashmap.h</text>
</a>
</g>
</g>
<!-- Node1&#45;&gt;Node43 -->
<g id="edge41" class="edge">
<title>Node1&#45;&gt;Node43</title>
<path fill="none" stroke="midnightblue" d="M1326.37,-282.65C1386.57,-273.39 1499.01,-256.09 1570.57,-245.08"/>
<polygon fill="midnightblue" stroke="midnightblue" points="1571.47,-248.48 1580.82,-243.5 1570.41,-241.56 1571.47,-248.48"/>
</g>
<!-- Node65 -->
<g id="node33" class="node">
<title>Node65</title>
<g id="a_node33"><a xlink:href="list_8h.html" target="_top" xlink:title=" ">
<polygon fill="white" stroke="black" points="1709.08,-224.5 1709.08,-243.5 1789.08,-243.5 1789.08,-224.5 1709.08,-224.5"/>
<text text-anchor="middle" x="1749.08" y="-231.5" font-family="FreeSans" font-size="10.00">magick/list.h</text>
</a>
</g>
</g>
<!-- Node1&#45;&gt;Node65 -->
<g id="edge44" class="edge">
<title>Node1&#45;&gt;Node65</title>
<path fill="none" stroke="midnightblue" d="M1326.14,-285.56C1399.04,-279.23 1556.06,-264.61 1698.76,-244.1"/>
<polygon fill="midnightblue" stroke="midnightblue" points="1699.61,-247.51 1709.01,-242.61 1698.61,-240.58 1699.61,-247.51"/>
</g>
<!-- Node66 -->
<g id="node34" class="node">
<title>Node66</title>
<g id="a_node34"><a xlink:href="memory___8h.html" target="_top" xlink:title=" ">
<polygon fill="white" stroke="black" points="1197.58,-168.5 1197.58,-187.5 1308.58,-187.5 1308.58,-168.5 1197.58,-168.5"/>
<text text-anchor="middle" x="1253.08" y="-175.5" font-family="FreeSans" font-size="10.00">magick/memory_.h</text>
</a>
</g>
</g>
<!-- Node1&#45;&gt;Node66 -->
<g id="edge46" class="edge">
<title>Node1&#45;&gt;Node66</title>
<path fill="none" stroke="midnightblue" d="M1244,-287.72C1180.24,-284.77 1062.1,-275.14 1036.08,-244 1030.38,-237.18 1030.47,-230.89 1036.08,-224 1045.72,-212.15 1126.91,-197.69 1187.17,-188.41"/>
<polygon fill="midnightblue" stroke="midnightblue" points="1188.04,-191.82 1197.4,-186.85 1186.98,-184.9 1188.04,-191.82"/>
</g>
<!-- Node67 -->
<g id="node35" class="node">
<title>Node67</title>
<g id="a_node35"><a xlink:href="memory-private_8h.html" target="_top" xlink:title=" ">
<polygon fill="white" stroke="black" points="398.08,-168.5 398.08,-187.5 542.08,-187.5 542.08,-168.5 398.08,-168.5"/>
<text text-anchor="middle" x="470.08" y="-175.5" font-family="FreeSans" font-size="10.00">magick/memory&#45;private.h</text>
</a>
</g>
</g>
<!-- Node1&#45;&gt;Node67 -->
<g id="edge49" class="edge">
<title>Node1&#45;&gt;Node67</title>
<path fill="none" stroke="midnightblue" d="M1243.81,-288.25C1082.12,-285.1 499.27,-271.87 472.08,-244 460.39,-232.02 461.57,-212.13 464.63,-197.49"/>
<polygon fill="midnightblue" stroke="midnightblue" points="468.08,-198.1 467.15,-187.55 461.3,-196.38 468.08,-198.1"/>
</g>
<!-- Node68 -->
<g id="node36" class="node">
<title>Node68</title>
<g id="a_node36"><a xlink:href="monitor-private_8h.html" target="_top" xlink:title=" ">
<polygon fill="white" stroke="black" points="1807.58,-224.5 1807.58,-243.5 1948.58,-243.5 1948.58,-224.5 1807.58,-224.5"/>
<text text-anchor="middle" x="1878.08" y="-231.5" font-family="FreeSans" font-size="10.00">magick/monitor&#45;private.h</text>
</a>
</g>
</g>
<!-- Node1&#45;&gt;Node68 -->
<g id="edge51" class="edge">
<title>Node1&#45;&gt;Node68</title>
<path fill="none" stroke="midnightblue" d="M1326.34,-285.73C1411.94,-278.86 1615.3,-262.16 1797.39,-244.05"/>
<polygon fill="midnightblue" stroke="midnightblue" points="1797.81,-247.52 1807.42,-243.04 1797.12,-240.56 1797.81,-247.52"/>
</g>
<!-- Node39 -->
<g id="node37" class="node">
<title>Node39</title>
<g id="a_node37"><a xlink:href="morphology_8h.html" target="_top" xlink:title=" ">
<polygon fill="white" stroke="red" points="1970.08,-168.5 1970.08,-187.5 2092.08,-187.5 2092.08,-168.5 1970.08,-168.5"/>
<text text-anchor="middle" x="2031.08" y="-175.5" font-family="FreeSans" font-size="10.00">magick/morphology.h</text>
</a>
</g>
</g>
<!-- Node1&#45;&gt;Node39 -->
<g id="edge52" class="edge">
<title>Node1&#45;&gt;Node39</title>
<path fill="none" stroke="midnightblue" d="M1326.32,-287.78C1463.49,-283.5 1898.97,-268.14 1957.08,-244 1982.13,-233.59 2004.54,-211.13 2017.97,-195.54"/>
<polygon fill="midnightblue" stroke="midnightblue" points="2020.78,-197.64 2024.47,-187.71 2015.39,-193.17 2020.78,-197.64"/>
</g>
<!-- Node69 -->
<g id="node38" class="node">
<title>Node69</title>
<g id="a_node38"><a xlink:href="morphology-private_8h.html" target="_top" xlink:title=" ">
<polygon fill="white" stroke="black" points="2005.58,-224.5 2005.58,-243.5 2166.58,-243.5 2166.58,-224.5 2005.58,-224.5"/>
<text text-anchor="middle" x="2086.08" y="-231.5" font-family="FreeSans" font-size="10.00">magick/morphology&#45;private.h</text>
</a>
</g>
</g>
<!-- Node1&#45;&gt;Node69 -->
<g id="edge53" class="edge">
<title>Node1&#45;&gt;Node69</title>
<path fill="none" stroke="midnightblue" d="M1326.09,-286.83C1434.67,-280.98 1738.56,-264 1991.08,-244 1992.55,-243.88 1994.03,-243.76 1995.53,-243.64"/>
<polygon fill="midnightblue" stroke="midnightblue" points="1995.83,-247.13 2005.5,-242.81 1995.24,-240.15 1995.83,-247.13"/>
</g>
<!-- Node70 -->
<g id="node39" class="node">
<title>Node70</title>
<g id="a_node39"><a xlink:href="option_8h.html" target="_top" xlink:title=" ">
<polygon fill="white" stroke="black" points="2184.58,-224.5 2184.58,-243.5 2279.58,-243.5 2279.58,-224.5 2184.58,-224.5"/>
<text text-anchor="middle" x="2232.08" y="-231.5" font-family="FreeSans" font-size="10.00">magick/option.h</text>
</a>
</g>
</g>
<!-- Node1&#45;&gt;Node70 -->
<g id="edge55" class="edge">
<title>Node1&#45;&gt;Node70</title>
<path fill="none" stroke="midnightblue" d="M1326.5,-288.51C1452.42,-286.68 1841.82,-278.51 2174.16,-244.09"/>
<polygon fill="midnightblue" stroke="midnightblue" points="2174.88,-247.53 2184.47,-243.01 2174.16,-240.57 2174.88,-247.53"/>
</g>
<!-- Node71 -->
<g id="node40" class="node">
<title>Node71</title>
<g id="a_node40"><a xlink:href="pixel-private_8h.html" target="_top" xlink:title=" ">
<polygon fill="white" stroke="red" points="863.08,-224.5 863.08,-243.5 989.08,-243.5 989.08,-224.5 863.08,-224.5"/>
<text text-anchor="middle" x="926.08" y="-231.5" font-family="FreeSans" font-size="10.00">magick/pixel&#45;private.h</text>
</a>
</g>
</g>
<!-- Node1&#45;&gt;Node71 -->
<g id="edge56" class="edge">
<title>Node1&#45;&gt;Node71</title>
<path fill="none" stroke="midnightblue" d="M1243.9,-282.81C1182.51,-273.57 1066.35,-256.1 992.75,-245.03"/>
<polygon fill="midnightblue" stroke="midnightblue" points="993.07,-241.54 982.66,-243.51 992.03,-248.46 993.07,-241.54"/>
</g>
<!-- Node74 -->
<g id="node41" class="node">
<title>Node74</title>
<g id="a_node41"><a xlink:href="prepress_8h.html" target="_top" xlink:title=" ">
<polygon fill="white" stroke="black" points="2297.58,-224.5 2297.58,-243.5 2404.58,-243.5 2404.58,-224.5 2297.58,-224.5"/>
<text text-anchor="middle" x="2351.08" y="-231.5" font-family="FreeSans" font-size="10.00">magick/prepress.h</text>
</a>
</g>
</g>
<!-- Node1&#45;&gt;Node74 -->
<g id="edge60" class="edge">
<title>Node1&#45;&gt;Node74</title>
<path fill="none" stroke="midnightblue" d="M1326.3,-288.62C1462.2,-287.05 1908.55,-279.44 2287.29,-244.08"/>
<polygon fill="midnightblue" stroke="midnightblue" points="2287.72,-247.55 2297.35,-243.13 2287.06,-240.59 2287.72,-247.55"/>
</g>
<!-- Node75 -->
<g id="node42" class="node">
<title>Node75</title>
<g id="a_node42"><a xlink:href="quantize_8h.html" target="_top" xlink:title=" ">
<polygon fill="white" stroke="red" points="2422.58,-224.5 2422.58,-243.5 2529.58,-243.5 2529.58,-224.5 2422.58,-224.5"/>
<text text-anchor="middle" x="2476.08" y="-231.5" font-family="FreeSans" font-size="10.00">magick/quantize.h</text>
</a>
</g>
</g>
<!-- Node1&#45;&gt;Node75 -->
<g id="edge61" class="edge">
<title>Node1&#45;&gt;Node75</title>
<path fill="none" stroke="midnightblue" d="M1326.19,-288.91C1472.57,-288.25 1982.16,-283.18 2412.21,-244.08"/>
<polygon fill="midnightblue" stroke="midnightblue" points="2412.71,-247.55 2422.35,-243.15 2412.07,-240.58 2412.71,-247.55"/>
</g>
<!-- Node76 -->
<g id="node43" class="node">
<title>Node76</title>
<g id="a_node43"><a xlink:href="registry_8h.html" target="_top" xlink:title=" ">
<polygon fill="white" stroke="black" points="2547.58,-224.5 2547.58,-243.5 2648.58,-243.5 2648.58,-224.5 2547.58,-224.5"/>
<text text-anchor="middle" x="2598.08" y="-231.5" font-family="FreeSans" font-size="10.00">magick/registry.h</text>
</a>
</g>
</g>
<!-- Node1&#45;&gt;Node76 -->
<g id="edge62" class="edge">
<title>Node1&#45;&gt;Node76</title>
<path fill="none" stroke="midnightblue" d="M1326.32,-289.25C1482.95,-289.82 2055.89,-288.62 2537,-244.09"/>
<polygon fill="midnightblue" stroke="midnightblue" points="2537.64,-247.54 2547.27,-243.13 2536.99,-240.57 2537.64,-247.54"/>
</g>
<!-- Node77 -->
<g id="node44" class="node">
<title>Node77</title>
<g id="a_node44"><a xlink:href="resource___8h.html" target="_top" xlink:title=" ">
<polygon fill="white" stroke="black" points="1327.08,-168.5 1327.08,-187.5 1439.08,-187.5 1439.08,-168.5 1327.08,-168.5"/>
<text text-anchor="middle" x="1383.08" y="-175.5" font-family="FreeSans" font-size="10.00">magick/resource_.h</text>
</a>
</g>
</g>
<!-- Node1&#45;&gt;Node77 -->
<g id="edge63" class="edge">
<title>Node1&#45;&gt;Node77</title>
<path fill="none" stroke="midnightblue" d="M1267.05,-280.4C1244.26,-268.37 1209.84,-245.54 1226.08,-224 1237.55,-208.77 1280.3,-197.13 1318.29,-189.5"/>
<polygon fill="midnightblue" stroke="midnightblue" points="1319.19,-192.89 1328.34,-187.55 1317.86,-186.02 1319.19,-192.89"/>
</g>
<!-- Node78 -->
<g id="node45" class="node">
<title>Node78</title>
<g id="a_node45"><a xlink:href="splay-tree_8h.html" target="_top" xlink:title=" ">
<polygon fill="white" stroke="black" points="2667.08,-224.5 2667.08,-243.5 2781.08,-243.5 2781.08,-224.5 2667.08,-224.5"/>
<text text-anchor="middle" x="2724.08" y="-231.5" font-family="FreeSans" font-size="10.00">magick/splay&#45;tree.h</text>
</a>
</g>
</g>
<!-- Node1&#45;&gt;Node78 -->
<g id="edge65" class="edge">
<title>Node1&#45;&gt;Node78</title>
<path fill="none" stroke="midnightblue" d="M1326.16,-289.19C1491.63,-289.64 2125.34,-288.27 2656.71,-244.02"/>
<polygon fill="midnightblue" stroke="midnightblue" points="2657.21,-247.49 2666.88,-243.17 2656.62,-240.51 2657.21,-247.49"/>
</g>
<!-- Node79 -->
<g id="node46" class="node">
<title>Node79</title>
<g id="a_node46"><a xlink:href="statistic_8h.html" target="_top" xlink:title=" ">
<polygon fill="white" stroke="red" points="2799.08,-224.5 2799.08,-243.5 2903.08,-243.5 2903.08,-224.5 2799.08,-224.5"/>
<text text-anchor="middle" x="2851.08" y="-231.5" font-family="FreeSans" font-size="10.00">magick/statistic.h</text>
</a>
</g>
</g>
<!-- Node1&#45;&gt;Node79 -->
<g id="edge66" class="edge">
<title>Node1&#45;&gt;Node79</title>
<path fill="none" stroke="midnightblue" d="M1326.22,-288.42C1534.37,-285.39 2473.57,-270.5 2788.83,-243.98"/>
<polygon fill="midnightblue" stroke="midnightblue" points="2789.22,-247.46 2798.88,-243.11 2788.62,-240.48 2789.22,-247.46"/>
</g>
<!-- Node80 -->
<g id="node47" class="node">
<title>Node80</title>
<g id="a_node47"><a xlink:href="string-private_8h.html" target="_top" xlink:title=" ">
<polygon fill="white" stroke="red" points="2921.58,-224.5 2921.58,-243.5 3052.58,-243.5 3052.58,-224.5 2921.58,-224.5"/>
<text text-anchor="middle" x="2987.08" y="-231.5" font-family="FreeSans" font-size="10.00">magick/string&#45;private.h</text>
</a>
</g>
</g>
<!-- Node1&#45;&gt;Node80 -->
<g id="edge68" class="edge">
<title>Node1&#45;&gt;Node80</title>
<path fill="none" stroke="midnightblue" d="M1326.32,-289.25C1510.18,-290.08 2273.62,-290.42 2910.95,-244"/>
<polygon fill="midnightblue" stroke="midnightblue" points="2911.54,-247.47 2921.26,-243.24 2911.03,-240.49 2911.54,-247.47"/>
</g>
<!-- Node82 -->
<g id="node48" class="node">
<title>Node82</title>
<g id="a_node48"><a xlink:href="thread-private_8h.html" target="_top" xlink:title=" ">
<polygon fill="white" stroke="red" points="1045.08,-224.5 1045.08,-243.5 1179.08,-243.5 1179.08,-224.5 1045.08,-224.5"/>
<text text-anchor="middle" x="1112.08" y="-231.5" font-family="FreeSans" font-size="10.00">magick/thread&#45;private.h</text>
</a>
</g>
</g>
<!-- Node1&#45;&gt;Node82 -->
<g id="edge69" class="edge">
<title>Node1&#45;&gt;Node82</title>
<path fill="none" stroke="midnightblue" d="M1257.67,-280.44C1228.31,-271.28 1181.56,-256.69 1148.98,-246.52"/>
<polygon fill="midnightblue" stroke="midnightblue" points="1149.95,-243.16 1139.36,-243.52 1147.86,-249.84 1149.95,-243.16"/>
</g>
<!-- Node84 -->
<g id="node49" class="node">
<title>Node84</title>
<g id="a_node49"><a xlink:href="token_8h.html" target="_top" xlink:title=" ">
<polygon fill="white" stroke="black" points="3071.08,-224.5 3071.08,-243.5 3163.08,-243.5 3163.08,-224.5 3071.08,-224.5"/>
<text text-anchor="middle" x="3117.08" y="-231.5" font-family="FreeSans" font-size="10.00">magick/token.h</text>
</a>
</g>
</g>
<!-- Node1&#45;&gt;Node84 -->
<g id="edge72" class="edge">
<title>Node1&#45;&gt;Node84</title>
<path fill="none" stroke="midnightblue" d="M1326.16,-288.72C1556.34,-287.07 2688.41,-277.37 3060.93,-243.94"/>
<polygon fill="midnightblue" stroke="midnightblue" points="3061.29,-247.42 3070.92,-243.02 3060.64,-240.45 3061.29,-247.42"/>
</g>
<!-- Node85 -->
<g id="node50" class="node">
<title>Node85</title>
<g id="a_node50"><a xlink:href="utility_8h.html" target="_top" xlink:title=" ">
<polygon fill="white" stroke="black" points="3181.08,-224.5 3181.08,-243.5 3273.08,-243.5 3273.08,-224.5 3181.08,-224.5"/>
<text text-anchor="middle" x="3227.08" y="-231.5" font-family="FreeSans" font-size="10.00">magick/utility.h</text>
</a>
</g>
</g>
<!-- Node1&#45;&gt;Node85 -->
<g id="edge73" class="edge">
<title>Node1&#45;&gt;Node85</title>
<path fill="none" stroke="midnightblue" d="M1326.32,-288.79C1565.31,-287.48 2775.11,-279.22 3170.87,-243.95"/>
<polygon fill="midnightblue" stroke="midnightblue" points="3171.28,-247.42 3180.92,-243.03 3170.65,-240.45 3171.28,-247.42"/>
</g>
<!-- Node3 -->
<g id="node3" class="node">
<title>Node3</title>
<g id="a_node3"><a xlink:href="magick-config_8h.html" target="_top" xlink:title=" ">
<polygon fill="white" stroke="red" points="440.08,-112.5 440.08,-131.5 574.08,-131.5 574.08,-112.5 440.08,-112.5"/>
<text text-anchor="middle" x="507.08" y="-119.5" font-family="FreeSans" font-size="10.00">magick/magick&#45;config.h</text>
</a>
</g>
</g>
<!-- Node2&#45;&gt;Node3 -->
<g id="edge2" class="edge">
<title>Node2&#45;&gt;Node3</title>
<path fill="none" stroke="midnightblue" d="M931.22,-171.53C849.62,-162.19 682.86,-143.11 584.5,-131.86"/>
<polygon fill="midnightblue" stroke="midnightblue" points="584.65,-128.35 574.32,-130.69 583.85,-135.31 584.65,-128.35"/>
</g>
<!-- Node5 -->
<g id="node4" class="node">
<title>Node5</title>
<g id="a_node4"><a xlink:title=" ">
<polygon fill="white" stroke="#bfbfbf" points="91.08,-0.5 91.08,-19.5 147.08,-19.5 147.08,-0.5 91.08,-0.5"/>
<text text-anchor="middle" x="119.08" y="-7.5" font-family="FreeSans" font-size="10.00">stdarg.h</text>
</a>
</g>
</g>
<!-- Node2&#45;&gt;Node5 -->
<g id="edge3" class="edge">
<title>Node2&#45;&gt;Node5</title>
<path fill="none" stroke="midnightblue" d="M931.57,-173.49C868.55,-168.11 754.17,-155.85 659.08,-132 564.02,-108.15 547.31,-79.14 452.08,-56 327.16,-25.65 292.01,-40.35 165.08,-20 162.55,-19.59 159.94,-19.15 157.32,-18.69"/>
<polygon fill="midnightblue" stroke="midnightblue" points="157.71,-15.2 147.24,-16.83 156.44,-22.09 157.71,-15.2"/>
</g>
<!-- Node6 -->
<g id="node5" class="node">
<title>Node6</title>
<g id="a_node5"><a xlink:title=" ">
<polygon fill="white" stroke="#bfbfbf" points="1261.08,-112.5 1261.08,-131.5 1311.08,-131.5 1311.08,-112.5 1261.08,-112.5"/>
<text text-anchor="middle" x="1286.08" y="-119.5" font-family="FreeSans" font-size="10.00">stdio.h</text>
</a>
</g>
</g>
<!-- Node2&#45;&gt;Node6 -->
<g id="edge4" class="edge">
<title>Node2&#45;&gt;Node6</title>
<path fill="none" stroke="midnightblue" d="M1026.59,-169.42C1092.68,-158.85 1208.29,-140.21 1250.91,-131.98"/>
<polygon fill="midnightblue" stroke="midnightblue" points="1251.79,-135.37 1260.89,-129.95 1250.39,-128.51 1251.79,-135.37"/>
</g>
<!-- Node7 -->
<g id="node6" class="node">
<title>Node7</title>
<g id="a_node6"><a xlink:title=" ">
<polygon fill="white" stroke="#bfbfbf" points="1329.58,-112.5 1329.58,-131.5 1382.58,-131.5 1382.58,-112.5 1329.58,-112.5"/>
<text text-anchor="middle" x="1356.08" y="-119.5" font-family="FreeSans" font-size="10.00">ctype.h</text>
</a>
</g>
</g>
<!-- Node2&#45;&gt;Node7 -->
<g id="edge5" class="edge">
<title>Node2&#45;&gt;Node7</title>
<path fill="none" stroke="midnightblue" d="M1026.65,-169.38C1029.84,-168.9 1033,-168.44 1036.08,-168 1158.84,-150.53 1193.29,-155.21 1319.38,-131.92"/>
<polygon fill="midnightblue" stroke="midnightblue" points="1320.23,-135.32 1329.42,-130.04 1318.95,-128.44 1320.23,-135.32"/>
</g>
<!-- Node8 -->
<g id="node7" class="node">
<title>Node8</title>
<g id="a_node7"><a xlink:title=" ">
<polygon fill="white" stroke="#bfbfbf" points="1400.58,-112.5 1400.58,-131.5 1455.58,-131.5 1455.58,-112.5 1400.58,-112.5"/>
<text text-anchor="middle" x="1428.08" y="-119.5" font-family="FreeSans" font-size="10.00">locale.h</text>
</a>
</g>
</g>
<!-- Node2&#45;&gt;Node8 -->
<g id="edge6" class="edge">
<title>Node2&#45;&gt;Node8</title>
<path fill="none" stroke="midnightblue" d="M1026.63,-169.29C1029.83,-168.83 1033,-168.4 1036.08,-168 1190.12,-148.04 1233.02,-158.36 1390.25,-131.91"/>
<polygon fill="midnightblue" stroke="midnightblue" points="1391.01,-135.33 1400.28,-130.2 1389.84,-128.43 1391.01,-135.33"/>
</g>
<!-- Node9 -->
<g id="node8" class="node">
<title>Node9</title>
<g id="a_node8"><a xlink:title=" ">
<polygon fill="white" stroke="#bfbfbf" points="1682.58,-112.5 1682.58,-131.5 1733.58,-131.5 1733.58,-112.5 1682.58,-112.5"/>
<text text-anchor="middle" x="1708.08" y="-119.5" font-family="FreeSans" font-size="10.00">errno.h</text>
</a>
</g>
</g>
<!-- Node2&#45;&gt;Node9 -->
<g id="edge7" class="edge">
<title>Node2&#45;&gt;Node9</title>
<path fill="none" stroke="midnightblue" d="M1026.62,-169.13C1029.81,-168.71 1032.99,-168.33 1036.08,-168 1314.73,-138.2 1391.09,-174.64 1672.12,-131.81"/>
<polygon fill="midnightblue" stroke="midnightblue" points="1672.85,-135.24 1682.2,-130.25 1671.78,-128.32 1672.85,-135.24"/>
</g>
<!-- Node10 -->
<g id="node9" class="node">
<title>Node10</title>
<g id="a_node9"><a xlink:title=" ">
<polygon fill="white" stroke="#bfbfbf" points="1473.58,-112.5 1473.58,-131.5 1520.58,-131.5 1520.58,-112.5 1473.58,-112.5"/>
<text text-anchor="middle" x="1497.08" y="-119.5" font-family="FreeSans" font-size="10.00">fcntl.h</text>
</a>
</g>
</g>
<!-- Node2&#45;&gt;Node10 -->
<g id="edge8" class="edge">
<title>Node2&#45;&gt;Node10</title>
<path fill="none" stroke="midnightblue" d="M1026.63,-169.23C1029.82,-168.79 1032.99,-168.37 1036.08,-168 1222.35,-145.49 1274.33,-164.58 1463.41,-131.77"/>
<polygon fill="midnightblue" stroke="midnightblue" points="1464.16,-135.19 1473.4,-130.01 1462.95,-128.3 1464.16,-135.19"/>
</g>
<!-- Node11 -->
<g id="node10" class="node">
<title>Node11</title>
<g id="a_node10"><a xlink:title=" ">
<polygon fill="white" stroke="#bfbfbf" points="1538.58,-112.5 1538.58,-131.5 1589.58,-131.5 1589.58,-112.5 1538.58,-112.5"/>
<text text-anchor="middle" x="1564.08" y="-119.5" font-family="FreeSans" font-size="10.00">math.h</text>
</a>
</g>
</g>
<!-- Node2&#45;&gt;Node11 -->
<g id="edge9" class="edge">
<title>Node2&#45;&gt;Node11</title>
<path fill="none" stroke="midnightblue" d="M1026.62,-169.19C1029.82,-168.76 1032.99,-168.36 1036.08,-168 1251.02,-143.23 1310.48,-166.76 1528.41,-131.77"/>
<polygon fill="midnightblue" stroke="midnightblue" points="1529.27,-135.18 1538.58,-130.12 1528.14,-128.27 1529.27,-135.18"/>
</g>
<!-- Node12 -->
<g id="node11" class="node">
<title>Node12</title>
<g id="a_node11"><a xlink:title=" ">
<polygon fill="white" stroke="#bfbfbf" points="395.08,-56.5 395.08,-75.5 443.08,-75.5 443.08,-56.5 395.08,-56.5"/>
<text text-anchor="middle" x="419.08" y="-63.5" font-family="FreeSans" font-size="10.00">time.h</text>
</a>
</g>
</g>
<!-- Node2&#45;&gt;Node12 -->
<g id="edge10" class="edge">
<title>Node2&#45;&gt;Node12</title>
<path fill="none" stroke="midnightblue" d="M980.88,-168.34C983.25,-154.27 985.48,-126.56 970.08,-112 932.54,-76.51 568.4,-68.89 453.58,-67.36"/>
<polygon fill="midnightblue" stroke="midnightblue" points="453.31,-63.86 443.26,-67.23 453.22,-70.86 453.31,-63.86"/>
</g>
<!-- Node13 -->
<g id="node12" class="node">
<title>Node13</title>
<g id="a_node12"><a xlink:title=" ">
<polygon fill="white" stroke="#bfbfbf" points="668.58,-112.5 668.58,-131.5 721.58,-131.5 721.58,-112.5 668.58,-112.5"/>
<text text-anchor="middle" x="695.08" y="-119.5" font-family="FreeSans" font-size="10.00">limits.h</text>
</a>
</g>
</g>
<!-- Node2&#45;&gt;Node13 -->
<g id="edge11" class="edge">
<title>Node2&#45;&gt;Node13</title>
<path fill="none" stroke="midnightblue" d="M931.14,-169.4C883.01,-161.54 806.53,-148.39 731.83,-132.27"/>
<polygon fill="midnightblue" stroke="midnightblue" points="732.3,-128.79 721.78,-130.08 730.81,-135.63 732.3,-128.79"/>
</g>
<!-- Node14 -->
<g id="node13" class="node">
<title>Node14</title>
<g id="a_node13"><a xlink:title=" ">
<polygon fill="white" stroke="#bfbfbf" points="739.58,-112.5 739.58,-131.5 794.58,-131.5 794.58,-112.5 739.58,-112.5"/>
<text text-anchor="middle" x="767.08" y="-119.5" font-family="FreeSans" font-size="10.00">signal.h</text>
</a>
</g>
</g>
<!-- Node2&#45;&gt;Node14 -->
<g id="edge12" class="edge">
<title>Node2&#45;&gt;Node14</title>
<path fill="none" stroke="midnightblue" d="M945.49,-168.44C907.14,-158.68 844.58,-142.74 804.65,-132.57"/>
<polygon fill="midnightblue" stroke="midnightblue" points="805.32,-129.13 794.77,-130.05 803.6,-135.91 805.32,-129.13"/>
</g>
<!-- Node15 -->
<g id="node14" class="node">
<title>Node15</title>
<g id="a_node14"><a xlink:title=" ">
<polygon fill="white" stroke="#bfbfbf" points="1608.08,-112.5 1608.08,-131.5 1664.08,-131.5 1664.08,-112.5 1608.08,-112.5"/>
<text text-anchor="middle" x="1636.08" y="-119.5" font-family="FreeSans" font-size="10.00">assert.h</text>
</a>
</g>
</g>
<!-- Node2&#45;&gt;Node15 -->
<g id="edge13" class="edge">
<title>Node2&#45;&gt;Node15</title>
<path fill="none" stroke="midnightblue" d="M1026.62,-169.16C1029.82,-168.73 1032.99,-168.34 1036.08,-168 1284.85,-140.45 1350.53,-168.97 1598.08,-132 1598.18,-131.98 1598.28,-131.97 1598.38,-131.95"/>
<polygon fill="midnightblue" stroke="midnightblue" points="1598.74,-135.45 1607.96,-130.22 1597.49,-128.56 1598.74,-135.45"/>
</g>
<!-- Node16 -->
<g id="node15" class="node">
<title>Node16</title>
<g id="a_node15"><a xlink:href="method-attribute_8h.html" target="_top" xlink:title=" ">
<polygon fill="white" stroke="black" points="813.08,-112.5 813.08,-131.5 961.08,-131.5 961.08,-112.5 813.08,-112.5"/>
<text text-anchor="middle" x="887.08" y="-119.5" font-family="FreeSans" font-size="10.00">magick/method&#45;attribute.h</text>
</a>
</g>
</g>
<!-- Node2&#45;&gt;Node16 -->
<g id="edge14" class="edge">
<title>Node2&#45;&gt;Node16</title>
<path fill="none" stroke="midnightblue" d="M964.3,-168.32C949.81,-159.82 927.5,-146.73 910.58,-136.8"/>
<polygon fill="midnightblue" stroke="midnightblue" points="912.22,-133.7 901.82,-131.65 908.67,-139.74 912.22,-133.7"/>
</g>
<!-- Node17 -->
<g id="node16" class="node">
<title>Node17</title>
<g id="a_node16"><a xlink:title=" ">
<polygon fill="white" stroke="#bfbfbf" points="1017.08,-112.5 1017.08,-131.5 1089.08,-131.5 1089.08,-112.5 1017.08,-112.5"/>
<text text-anchor="middle" x="1053.08" y="-119.5" font-family="FreeSans" font-size="10.00">sys/types.h</text>
</a>
</g>
</g>
<!-- Node2&#45;&gt;Node17 -->
<g id="edge15" class="edge">
<title>Node2&#45;&gt;Node17</title>
<path fill="none" stroke="midnightblue" d="M990.97,-168.32C1002.23,-160.11 1019.36,-147.6 1032.79,-137.81"/>
<polygon fill="midnightblue" stroke="midnightblue" points="1034.96,-140.56 1040.97,-131.83 1030.83,-134.9 1034.96,-140.56"/>
</g>
<!-- Node18 -->
<g id="node17" class="node">
<title>Node18</title>
<g id="a_node17"><a xlink:title=" ">
<polygon fill="white" stroke="#bfbfbf" points="1107.08,-112.5 1107.08,-131.5 1171.08,-131.5 1171.08,-112.5 1107.08,-112.5"/>
<text text-anchor="middle" x="1139.08" y="-119.5" font-family="FreeSans" font-size="10.00">sys/stat.h</text>
</a>
</g>
</g>
<!-- Node2&#45;&gt;Node18 -->
<g id="edge16" class="edge">
<title>Node2&#45;&gt;Node18</title>
<path fill="none" stroke="midnightblue" d="M1004.43,-168.44C1031.35,-159.36 1074.07,-144.94 1104.16,-134.78"/>
<polygon fill="midnightblue" stroke="midnightblue" points="1105.49,-138.03 1113.84,-131.52 1103.25,-131.4 1105.49,-138.03"/>
</g>
<!-- Node19 -->
<g id="node18" class="node">
<title>Node19</title>
<g id="a_node18"><a xlink:title=" ">
<polygon fill="white" stroke="#bfbfbf" points="1189.08,-112.5 1189.08,-131.5 1243.08,-131.5 1243.08,-112.5 1189.08,-112.5"/>
<text text-anchor="middle" x="1216.08" y="-119.5" font-family="FreeSans" font-size="10.00">dirent.h</text>
</a>
</g>
</g>
<!-- Node2&#45;&gt;Node19 -->
<g id="edge17" class="edge">
<title>Node2&#45;&gt;Node19</title>
<path fill="none" stroke="midnightblue" d="M1018.43,-168.49C1056.94,-160.1 1117.51,-146.72 1179.08,-132.19"/>
<polygon fill="midnightblue" stroke="midnightblue" points="1180.04,-135.56 1188.97,-129.85 1178.43,-128.75 1180.04,-135.56"/>
</g>
<!-- Node29&#45;&gt;Node30 -->
<g id="edge21" class="edge">
<title>Node29&#45;&gt;Node30</title>
<path fill="none" stroke="midnightblue" d="M689.81,-224.32C674.86,-215.82 651.82,-202.73 634.35,-192.8"/>
<polygon fill="midnightblue" stroke="midnightblue" points="635.73,-189.55 625.3,-187.65 632.27,-195.64 635.73,-189.55"/>
</g>
<!-- Node29&#45;&gt;Node52 -->
<g id="edge24" class="edge">
<title>Node29&#45;&gt;Node52</title>
<path fill="none" stroke="midnightblue" d="M768.67,-224.56C841.53,-214.9 960.75,-199.08 1037.81,-188.85"/>
<polygon fill="midnightblue" stroke="midnightblue" points="1038.47,-192.3 1047.92,-187.51 1037.55,-185.36 1038.47,-192.3"/>
</g>
<!-- Node29&#45;&gt;Node60 -->
<g id="edge25" class="edge">
<title>Node29&#45;&gt;Node60</title>
<path fill="none" stroke="midnightblue" d="M641.51,-226.99C538.66,-217.26 335.63,-198.06 220,-187.13"/>
<polygon fill="midnightblue" stroke="midnightblue" points="220.06,-183.62 209.77,-186.16 219.4,-190.58 220.06,-183.62"/>
</g>
<!-- Node30&#45;&gt;Node25 -->
<g id="edge22" class="edge">
<title>Node30&#45;&gt;Node25</title>
<path fill="none" stroke="midnightblue" d="M570.78,-168.44C527.52,-159.02 457.9,-143.87 411.1,-133.68"/>
<polygon fill="midnightblue" stroke="midnightblue" points="411.71,-130.22 401.19,-131.52 410.22,-137.06 411.71,-130.22"/>
</g>
<!-- Node30&#45;&gt;Node33 -->
<g id="edge23" class="edge">
<title>Node30&#45;&gt;Node33</title>
<path fill="none" stroke="midnightblue" d="M608.62,-168.26C605.92,-154.57 598.89,-127.98 583.08,-112 508.87,-37.03 382.67,-16.91 304.08,-11.97"/>
<polygon fill="midnightblue" stroke="midnightblue" points="303.98,-8.45 293.8,-11.39 303.58,-15.44 303.98,-8.45"/>
</g>
<!-- Node60&#45;&gt;Node62 -->
<g id="edge26" class="edge">
<title>Node60&#45;&gt;Node62</title>
<path fill="none" stroke="midnightblue" d="M138.86,-168.37C148.84,-150.38 172.04,-108.55 185.3,-84.63"/>
<polygon fill="midnightblue" stroke="midnightblue" points="188.52,-86.03 190.31,-75.59 182.4,-82.64 188.52,-86.03"/>
</g>
<!-- Node60&#45;&gt;Node46 -->
<g id="edge29" class="edge">
<title>Node60&#45;&gt;Node46</title>
<path fill="none" stroke="midnightblue" d="M123.79,-168.32C114.24,-160.26 99.8,-148.08 88.29,-138.37"/>
<polygon fill="midnightblue" stroke="midnightblue" points="90.45,-135.61 80.55,-131.83 85.93,-140.96 90.45,-135.61"/>
</g>
<!-- Node62&#45;&gt;Node5 -->
<g id="edge27" class="edge">
<title>Node62&#45;&gt;Node5</title>
<path fill="none" stroke="midnightblue" d="M182.87,-56.32C171.3,-48.11 153.7,-35.6 139.92,-25.81"/>
<polygon fill="midnightblue" stroke="midnightblue" points="141.69,-22.77 131.51,-19.83 137.63,-28.48 141.69,-22.77"/>
</g>
<!-- Node62&#45;&gt;Node33 -->
<g id="edge28" class="edge">
<title>Node62&#45;&gt;Node33</title>
<path fill="none" stroke="midnightblue" d="M201.52,-56.08C207.03,-48.46 215.11,-37.26 221.84,-27.94"/>
<polygon fill="midnightblue" stroke="midnightblue" points="224.74,-29.91 227.76,-19.75 219.06,-25.81 224.74,-29.91"/>
</g>
<!-- Node46&#45;&gt;Node5 -->
<g id="edge30" class="edge">
<title>Node46&#45;&gt;Node5</title>
<path fill="none" stroke="midnightblue" d="M49.25,-112.38C24.46,-100.83 -11.7,-79.11 4.08,-56 21.15,-30.99 54.39,-19.88 80.76,-14.94"/>
<polygon fill="midnightblue" stroke="midnightblue" points="81.55,-18.36 90.85,-13.29 80.41,-11.45 81.55,-18.36"/>
</g>
<!-- Node46&#45;&gt;Node12 -->
<g id="edge31" class="edge">
<title>Node46&#45;&gt;Node12</title>
<path fill="none" stroke="midnightblue" d="M119.34,-113.38C191.1,-102.27 322.57,-81.93 384.76,-72.31"/>
<polygon fill="midnightblue" stroke="midnightblue" points="385.48,-75.74 394.83,-70.75 384.41,-68.82 385.48,-75.74"/>
</g>
<!-- Node46&#45;&gt;Node32 -->
<g id="edge32" class="edge">
<title>Node46&#45;&gt;Node32</title>
<path fill="none" stroke="midnightblue" d="M70.08,-112.08C70.08,-105.01 70.08,-94.86 70.08,-85.99"/>
<polygon fill="midnightblue" stroke="midnightblue" points="73.58,-85.75 70.08,-75.75 66.58,-85.75 73.58,-85.75"/>
</g>
<!-- Node32&#45;&gt;Node5 -->
<g id="edge33" class="edge">
<title>Node32&#45;&gt;Node5</title>
<path fill="none" stroke="midnightblue" d="M78.17,-56.08C85.23,-48.3 95.67,-36.8 104.23,-27.37"/>
<polygon fill="midnightblue" stroke="midnightblue" points="107.01,-29.51 111.14,-19.75 101.82,-24.8 107.01,-29.51"/>
</g>
<!-- Node32&#45;&gt;Node33 -->
<g id="edge34" class="edge">
<title>Node32&#45;&gt;Node33</title>
<path fill="none" stroke="midnightblue" d="M96.06,-56.44C123.77,-47.32 167.83,-32.81 198.69,-22.65"/>
<polygon fill="midnightblue" stroke="midnightblue" points="199.81,-25.97 208.21,-19.52 197.62,-19.32 199.81,-25.97"/>
</g>
<!-- Node63&#45;&gt;Node30 -->
<g id="edge36" class="edge">
<title>Node63&#45;&gt;Node30</title>
<path fill="none" stroke="midnightblue" d="M545.45,-224.32C557.24,-216.06 575.21,-203.45 589.21,-193.63"/>
<polygon fill="midnightblue" stroke="midnightblue" points="591.56,-196.26 597.74,-187.65 587.54,-190.53 591.56,-196.26"/>
</g>
<!-- Node66&#45;&gt;Node9 -->
<g id="edge47" class="edge">
<title>Node66&#45;&gt;Node9</title>
<path fill="none" stroke="midnightblue" d="M1308.73,-169.16C1311.89,-168.76 1315.02,-168.37 1318.08,-168 1472.31,-149.51 1515.2,-159.4 1672.53,-131.82"/>
<polygon fill="midnightblue" stroke="midnightblue" points="1673.33,-135.23 1682.56,-130.03 1672.1,-128.34 1673.33,-135.23"/>
</g>
<!-- Node66&#45;&gt;Node15 -->
<g id="edge48" class="edge">
<title>Node66&#45;&gt;Node15</title>
<path fill="none" stroke="midnightblue" d="M1308.74,-169.26C1311.9,-168.83 1315.03,-168.41 1318.08,-168 1442.44,-151.4 1474.64,-154.49 1598.08,-132 1598.18,-131.98 1598.28,-131.96 1598.38,-131.95"/>
<polygon fill="midnightblue" stroke="midnightblue" points="1598.82,-135.43 1607.92,-130.01 1597.43,-128.57 1598.82,-135.43"/>
</g>
<!-- Node67&#45;&gt;Node3 -->
<g id="edge50" class="edge">
<title>Node67&#45;&gt;Node3</title>
<path fill="none" stroke="midnightblue" d="M476.19,-168.08C481.36,-160.53 488.92,-149.49 495.27,-140.23"/>
<polygon fill="midnightblue" stroke="midnightblue" points="498.32,-141.98 501.08,-131.75 492.54,-138.02 498.32,-141.98"/>
</g>
<!-- Node69&#45;&gt;Node39 -->
<g id="edge54" class="edge">
<title>Node69&#45;&gt;Node39</title>
<path fill="none" stroke="midnightblue" d="M2077,-224.08C2068.91,-216.14 2056.88,-204.34 2047.17,-194.8"/>
<polygon fill="midnightblue" stroke="midnightblue" points="2049.58,-192.26 2039.99,-187.75 2044.67,-197.25 2049.58,-192.26"/>
</g>
<!-- Node71&#45;&gt;Node30 -->
<g id="edge57" class="edge">
<title>Node71&#45;&gt;Node30</title>
<path fill="none" stroke="midnightblue" d="M876.01,-224.44C819.33,-214.76 727.17,-199.01 667.59,-188.83"/>
<polygon fill="midnightblue" stroke="midnightblue" points="668.04,-185.35 657.59,-187.12 666.86,-192.25 668.04,-185.35"/>
</g>
<!-- Node71&#45;&gt;Node52 -->
<g id="edge58" class="edge">
<title>Node71&#45;&gt;Node52</title>
<path fill="none" stroke="midnightblue" d="M955.55,-224.44C987.25,-215.24 1037.81,-200.56 1072.85,-190.39"/>
<polygon fill="midnightblue" stroke="midnightblue" points="1074.12,-193.67 1082.74,-187.52 1072.16,-186.94 1074.12,-193.67"/>
</g>
<!-- Node71&#45;&gt;Node66 -->
<g id="edge59" class="edge">
<title>Node71&#45;&gt;Node66</title>
<path fill="none" stroke="midnightblue" d="M977.89,-224.44C1035.89,-214.87 1129.81,-199.36 1191.51,-189.17"/>
<polygon fill="midnightblue" stroke="midnightblue" points="1192.21,-192.6 1201.51,-187.52 1191.07,-185.69 1192.21,-192.6"/>
</g>
<!-- Node82&#45;&gt;Node52 -->
<g id="edge70" class="edge">
<title>Node82&#45;&gt;Node52</title>
<path fill="none" stroke="midnightblue" d="M1112.08,-224.08C1112.08,-217.01 1112.08,-206.86 1112.08,-197.99"/>
<polygon fill="midnightblue" stroke="midnightblue" points="1115.58,-197.75 1112.08,-187.75 1108.58,-197.75 1115.58,-197.75"/>
</g>
<!-- Node82&#45;&gt;Node77 -->
<g id="edge71" class="edge">
<title>Node82&#45;&gt;Node77</title>
<path fill="none" stroke="midnightblue" d="M1155.02,-224.44C1202.59,-214.96 1279.32,-199.67 1330.47,-189.48"/>
<polygon fill="midnightblue" stroke="midnightblue" points="1331.21,-192.9 1340.34,-187.52 1329.85,-186.04 1331.21,-192.9"/>
</g>
</g>
</svg>
