<?xml version="1.0" encoding="UTF-8" standalone="no"?>
<!DOCTYPE svg PUBLIC "-//W3C//DTD SVG 1.1//EN"
 "http://www.w3.org/Graphics/SVG/1.1/DTD/svg11.dtd">
<!-- Generated by graphviz version 2.43.0 (0)
 -->
<!-- Title: morphology&#45;private.h Pages: 1 -->
<svg width="312pt" height="84pt"
 viewBox="0.00 0.00 311.50 84.00" xmlns="http://www.w3.org/2000/svg" xmlns:xlink="http://www.w3.org/1999/xlink">
<g id="graph0" class="graph" transform="scale(1 1) rotate(0) translate(4 80)">
<title>morphology&#45;private.h</title>
<polygon fill="white" stroke="transparent" points="-4,4 -4,-80 307.5,-80 307.5,4 -4,4"/>
<!-- Node1 -->
<g id="node1" class="node">
<title>Node1</title>
<g id="a_node1"><a xlink:title=" ">
<polygon fill="#bfbfbf" stroke="black" points="84.5,-56.5 84.5,-75.5 206.5,-75.5 206.5,-56.5 84.5,-56.5"/>
<text text-anchor="middle" x="145.5" y="-63.5" font-family="FreeSans" font-size="10.00">morphology&#45;private.h</text>
</a>
</g>
</g>
<!-- Node2 -->
<g id="node2" class="node">
<title>Node2</title>
<g id="a_node2"><a xlink:href="effect_8c.html" target="_top" xlink:title=" ">
<polygon fill="white" stroke="black" points="0,-0.5 0,-19.5 53,-19.5 53,-0.5 0,-0.5"/>
<text text-anchor="middle" x="26.5" y="-7.5" font-family="FreeSans" font-size="10.00">effect.c</text>
</a>
</g>
</g>
<!-- Node1&#45;&gt;Node2 -->
<g id="edge1" class="edge">
<title>Node1&#45;&gt;Node2</title>
<path fill="none" stroke="midnightblue" d="M117.36,-52.23C95.1,-42.13 64.64,-28.31 45.27,-19.52"/>
<polygon fill="midnightblue" stroke="midnightblue" points="116.09,-55.5 126.64,-56.44 118.98,-49.12 116.09,-55.5"/>
</g>
<!-- Node3 -->
<g id="node3" class="node">
<title>Node3</title>
<g id="a_node3"><a xlink:href="feature_8c.html" target="_top" xlink:title=" ">
<polygon fill="white" stroke="black" points="71.5,-0.5 71.5,-19.5 131.5,-19.5 131.5,-0.5 71.5,-0.5"/>
<text text-anchor="middle" x="101.5" y="-7.5" font-family="FreeSans" font-size="10.00">feature.c</text>
</a>
</g>
</g>
<!-- Node1&#45;&gt;Node3 -->
<g id="edge2" class="edge">
<title>Node1&#45;&gt;Node3</title>
<path fill="none" stroke="midnightblue" d="M131.77,-48.14C124.1,-38.74 114.87,-27.4 108.63,-19.75"/>
<polygon fill="midnightblue" stroke="midnightblue" points="129.2,-50.54 138.23,-56.08 134.63,-46.12 129.2,-50.54"/>
</g>
<!-- Node4 -->
<g id="node4" class="node">
<title>Node4</title>
<g id="a_node4"><a xlink:href="morphology_8c.html" target="_top" xlink:title=" ">
<polygon fill="white" stroke="black" points="149.5,-0.5 149.5,-19.5 231.5,-19.5 231.5,-0.5 149.5,-0.5"/>
<text text-anchor="middle" x="190.5" y="-7.5" font-family="FreeSans" font-size="10.00">morphology.c</text>
</a>
</g>
</g>
<!-- Node1&#45;&gt;Node4 -->
<g id="edge3" class="edge">
<title>Node1&#45;&gt;Node4</title>
<path fill="none" stroke="midnightblue" d="M159.55,-48.14C167.39,-38.74 176.83,-27.4 183.21,-19.75"/>
<polygon fill="midnightblue" stroke="midnightblue" points="156.64,-46.16 152.93,-56.08 162.02,-50.64 156.64,-46.16"/>
</g>
<!-- Node5 -->
<g id="node5" class="node">
<title>Node5</title>
<g id="a_node5"><a xlink:href="vision_8c.html" target="_top" xlink:title=" ">
<polygon fill="white" stroke="black" points="249.5,-0.5 249.5,-19.5 303.5,-19.5 303.5,-0.5 249.5,-0.5"/>
<text text-anchor="middle" x="276.5" y="-7.5" font-family="FreeSans" font-size="10.00">vision.c</text>
</a>
</g>
</g>
<!-- Node1&#45;&gt;Node5 -->
<g id="edge4" class="edge">
<title>Node1&#45;&gt;Node5</title>
<path fill="none" stroke="midnightblue" d="M175.82,-52.5C200.38,-42.38 234.32,-28.39 255.84,-19.52"/>
<polygon fill="midnightblue" stroke="midnightblue" points="174.17,-49.4 166.26,-56.44 176.84,-55.87 174.17,-49.4"/>
</g>
</g>
</svg>
