<?xml version="1.0" encoding="UTF-8" standalone="no"?>
<!DOCTYPE svg PUBLIC "-//W3C//DTD SVG 1.1//EN"
 "http://www.w3.org/Graphics/SVG/1.1/DTD/svg11.dtd">
<!-- Generated by graphviz version 2.43.0 (0)
 -->
<!-- Title: nt&#45;base.h Pages: 1 -->
<svg width="1078pt" height="140pt"
 viewBox="0.00 0.00 1078.00 140.00" xmlns="http://www.w3.org/2000/svg" xmlns:xlink="http://www.w3.org/1999/xlink">
<g id="graph0" class="graph" transform="scale(1 1) rotate(0) translate(4 136)">
<title>nt&#45;base.h</title>
<polygon fill="white" stroke="transparent" points="-4,4 -4,-136 1074,-136 1074,4 -4,4"/>
<!-- Node1 -->
<g id="node1" class="node">
<title>Node1</title>
<g id="a_node1"><a xlink:title=" ">
<polygon fill="#bfbfbf" stroke="black" points="70.5,-112.5 70.5,-131.5 132.5,-131.5 132.5,-112.5 70.5,-112.5"/>
<text text-anchor="middle" x="101.5" y="-119.5" font-family="FreeSans" font-size="10.00">nt&#45;base.h</text>
</a>
</g>
</g>
<!-- Node2 -->
<g id="node2" class="node">
<title>Node2</title>
<g id="a_node2"><a xlink:href="opencl_8c.html" target="_top" xlink:title=" ">
<polygon fill="white" stroke="black" points="0,-0.5 0,-19.5 57,-19.5 57,-0.5 0,-0.5"/>
<text text-anchor="middle" x="28.5" y="-7.5" font-family="FreeSans" font-size="10.00">opencl.c</text>
</a>
</g>
</g>
<!-- Node1&#45;&gt;Node2 -->
<g id="edge1" class="edge">
<title>Node1&#45;&gt;Node2</title>
<path fill="none" stroke="midnightblue" d="M90.19,-103.96C74.37,-80.12 46.22,-37.71 34.2,-19.59"/>
<polygon fill="midnightblue" stroke="midnightblue" points="87.33,-105.97 95.77,-112.37 93.16,-102.1 87.33,-105.97"/>
</g>
<!-- Node3 -->
<g id="node3" class="node">
<title>Node3</title>
<g id="a_node3"><a xlink:href="string_8c.html" target="_top" xlink:title=" ">
<polygon fill="white" stroke="black" points="75,-0.5 75,-19.5 128,-19.5 128,-0.5 75,-0.5"/>
<text text-anchor="middle" x="101.5" y="-7.5" font-family="FreeSans" font-size="10.00">string.c</text>
</a>
</g>
</g>
<!-- Node1&#45;&gt;Node3 -->
<g id="edge2" class="edge">
<title>Node1&#45;&gt;Node3</title>
<path fill="none" stroke="midnightblue" d="M101.5,-102.35C101.5,-78.25 101.5,-37.31 101.5,-19.59"/>
<polygon fill="midnightblue" stroke="midnightblue" points="98,-102.37 101.5,-112.37 105,-102.37 98,-102.37"/>
</g>
<!-- Node4 -->
<g id="node4" class="node">
<title>Node4</title>
<g id="a_node4"><a xlink:href="utility-private_8h.html" target="_top" xlink:title=" ">
<polygon fill="white" stroke="black" points="470.5,-56.5 470.5,-75.5 562.5,-75.5 562.5,-56.5 470.5,-56.5"/>
<text text-anchor="middle" x="516.5" y="-63.5" font-family="FreeSans" font-size="10.00">utility&#45;private.h</text>
</a>
</g>
</g>
<!-- Node1&#45;&gt;Node4 -->
<g id="edge3" class="edge">
<title>Node1&#45;&gt;Node4</title>
<path fill="none" stroke="midnightblue" d="M142.62,-115.65C220.47,-105.52 388.91,-83.6 470.44,-72.99"/>
<polygon fill="midnightblue" stroke="midnightblue" points="142.16,-112.18 132.69,-116.94 143.06,-119.12 142.16,-112.18"/>
</g>
<!-- Node4&#45;&gt;Node2 -->
<g id="edge11" class="edge">
<title>Node4&#45;&gt;Node2</title>
<path fill="none" stroke="midnightblue" d="M460.42,-61.92C374.8,-56.65 206.56,-44.07 65.5,-20 62.76,-19.53 59.93,-18.98 57.1,-18.37"/>
<polygon fill="midnightblue" stroke="midnightblue" points="460.25,-65.42 470.44,-62.53 460.67,-58.43 460.25,-65.42"/>
</g>
<!-- Node4&#45;&gt;Node3 -->
<g id="edge15" class="edge">
<title>Node4&#45;&gt;Node3</title>
<path fill="none" stroke="midnightblue" d="M460.35,-60.57C386.07,-54.21 251.25,-40.88 137.5,-20 134.46,-19.44 131.29,-18.78 128.15,-18.06"/>
<polygon fill="midnightblue" stroke="midnightblue" points="460.16,-64.07 470.42,-61.43 460.75,-57.1 460.16,-64.07"/>
</g>
<!-- Node5 -->
<g id="node5" class="node">
<title>Node5</title>
<g id="a_node5"><a xlink:href="blob_8c.html" target="_top" xlink:title=" ">
<polygon fill="white" stroke="black" points="646.5,-0.5 646.5,-19.5 692.5,-19.5 692.5,-0.5 646.5,-0.5"/>
<text text-anchor="middle" x="669.5" y="-7.5" font-family="FreeSans" font-size="10.00">blob.c</text>
</a>
</g>
</g>
<!-- Node4&#45;&gt;Node5 -->
<g id="edge4" class="edge">
<title>Node4&#45;&gt;Node5</title>
<path fill="none" stroke="midnightblue" d="M550.51,-53C579.67,-42.71 620.89,-28.16 646.37,-19.16"/>
<polygon fill="midnightblue" stroke="midnightblue" points="549.01,-49.81 540.74,-56.44 551.34,-56.42 549.01,-49.81"/>
</g>
<!-- Node6 -->
<g id="node6" class="node">
<title>Node6</title>
<g id="a_node6"><a xlink:href="cache_8c.html" target="_top" xlink:title=" ">
<polygon fill="white" stroke="black" points="711,-0.5 711,-19.5 764,-19.5 764,-0.5 711,-0.5"/>
<text text-anchor="middle" x="737.5" y="-7.5" font-family="FreeSans" font-size="10.00">cache.c</text>
</a>
</g>
</g>
<!-- Node4&#45;&gt;Node6 -->
<g id="edge5" class="edge">
<title>Node4&#45;&gt;Node6</title>
<path fill="none" stroke="midnightblue" d="M562.08,-54C599.53,-44.94 653.98,-31.72 701.5,-20 704.5,-19.26 707.64,-18.48 710.77,-17.7"/>
<polygon fill="midnightblue" stroke="midnightblue" points="560.88,-50.69 551.98,-56.44 562.52,-57.49 560.88,-50.69"/>
</g>
<!-- Node7 -->
<g id="node7" class="node">
<title>Node7</title>
<g id="a_node7"><a xlink:href="delegate_8c.html" target="_top" xlink:title=" ">
<polygon fill="white" stroke="black" points="782.5,-0.5 782.5,-19.5 850.5,-19.5 850.5,-0.5 782.5,-0.5"/>
<text text-anchor="middle" x="816.5" y="-7.5" font-family="FreeSans" font-size="10.00">delegate.c</text>
</a>
</g>
</g>
<!-- Node4&#45;&gt;Node7 -->
<g id="edge6" class="edge">
<title>Node4&#45;&gt;Node7</title>
<path fill="none" stroke="midnightblue" d="M572.59,-55.73C624.72,-46.98 704.48,-33.26 773.5,-20 776.35,-19.45 779.29,-18.87 782.25,-18.27"/>
<polygon fill="midnightblue" stroke="midnightblue" points="571.83,-52.31 562.54,-57.41 572.99,-59.21 571.83,-52.31"/>
</g>
<!-- Node8 -->
<g id="node8" class="node">
<title>Node8</title>
<g id="a_node8"><a xlink:href="display_8c.html" target="_top" xlink:title=" ">
<polygon fill="white" stroke="black" points="869,-0.5 869,-19.5 928,-19.5 928,-0.5 869,-0.5"/>
<text text-anchor="middle" x="898.5" y="-7.5" font-family="FreeSans" font-size="10.00">display.c</text>
</a>
</g>
</g>
<!-- Node4&#45;&gt;Node8 -->
<g id="edge7" class="edge">
<title>Node4&#45;&gt;Node8</title>
<path fill="none" stroke="midnightblue" d="M572.86,-59.29C641.04,-52 759.15,-38.12 859.5,-20 862.51,-19.46 865.64,-18.83 868.75,-18.18"/>
<polygon fill="midnightblue" stroke="midnightblue" points="572.34,-55.83 562.77,-60.36 573.08,-62.79 572.34,-55.83"/>
</g>
<!-- Node9 -->
<g id="node9" class="node">
<title>Node9</title>
<g id="a_node9"><a xlink:href="log_8c.html" target="_top" xlink:title=" ">
<polygon fill="white" stroke="black" points="946.5,-0.5 946.5,-19.5 986.5,-19.5 986.5,-0.5 946.5,-0.5"/>
<text text-anchor="middle" x="966.5" y="-7.5" font-family="FreeSans" font-size="10.00">log.c</text>
</a>
</g>
</g>
<!-- Node4&#45;&gt;Node9 -->
<g id="edge8" class="edge">
<title>Node4&#45;&gt;Node9</title>
<path fill="none" stroke="midnightblue" d="M572.76,-62.47C654,-58.02 808.58,-46.63 937.5,-20 940.39,-19.4 943.4,-18.64 946.35,-17.8"/>
<polygon fill="midnightblue" stroke="midnightblue" points="572.54,-58.97 562.74,-63 572.91,-65.96 572.54,-58.97"/>
</g>
<!-- Node10 -->
<g id="node10" class="node">
<title>Node10</title>
<g id="a_node10"><a xlink:href="memory_8c.html" target="_top" xlink:title=" ">
<polygon fill="white" stroke="black" points="1005,-0.5 1005,-19.5 1070,-19.5 1070,-0.5 1005,-0.5"/>
<text text-anchor="middle" x="1037.5" y="-7.5" font-family="FreeSans" font-size="10.00">memory.c</text>
</a>
</g>
</g>
<!-- Node4&#45;&gt;Node10 -->
<g id="edge9" class="edge">
<title>Node4&#45;&gt;Node10</title>
<path fill="none" stroke="midnightblue" d="M572.86,-61.86C662.67,-56.36 843.62,-43.32 995.5,-20 998.45,-19.55 1001.5,-19.02 1004.55,-18.44"/>
<polygon fill="midnightblue" stroke="midnightblue" points="572.4,-58.38 562.63,-62.47 572.82,-65.37 572.4,-58.38"/>
</g>
<!-- Node11 -->
<g id="node11" class="node">
<title>Node11</title>
<g id="a_node11"><a xlink:href="module_8c.html" target="_top" xlink:title=" ">
<polygon fill="white" stroke="black" points="146.5,-0.5 146.5,-19.5 208.5,-19.5 208.5,-0.5 146.5,-0.5"/>
<text text-anchor="middle" x="177.5" y="-7.5" font-family="FreeSans" font-size="10.00">module.c</text>
</a>
</g>
</g>
<!-- Node4&#45;&gt;Node11 -->
<g id="edge10" class="edge">
<title>Node4&#45;&gt;Node11</title>
<path fill="none" stroke="midnightblue" d="M460.42,-57.79C400.19,-49.75 301.76,-35.8 217.5,-20 214.7,-19.48 211.8,-18.89 208.9,-18.29"/>
<polygon fill="midnightblue" stroke="midnightblue" points="460.11,-61.28 470.48,-59.12 461.03,-54.34 460.11,-61.28"/>
</g>
<!-- Node12 -->
<g id="node12" class="node">
<title>Node12</title>
<g id="a_node12"><a xlink:href="random_8c.html" target="_top" xlink:title=" ">
<polygon fill="white" stroke="black" points="226.5,-0.5 226.5,-19.5 288.5,-19.5 288.5,-0.5 226.5,-0.5"/>
<text text-anchor="middle" x="257.5" y="-7.5" font-family="FreeSans" font-size="10.00">random.c</text>
</a>
</g>
</g>
<!-- Node4&#45;&gt;Node12 -->
<g id="edge12" class="edge">
<title>Node4&#45;&gt;Node12</title>
<path fill="none" stroke="midnightblue" d="M464.34,-54.42C420.15,-45.42 355.13,-32.06 298.5,-20 295.36,-19.33 292.09,-18.63 288.83,-17.92"/>
<polygon fill="midnightblue" stroke="midnightblue" points="463.77,-57.88 474.27,-56.45 465.17,-51.02 463.77,-57.88"/>
</g>
<!-- Node13 -->
<g id="node13" class="node">
<title>Node13</title>
<g id="a_node13"><a xlink:href="resource_8c.html" target="_top" xlink:title=" ">
<polygon fill="white" stroke="black" points="307,-0.5 307,-19.5 374,-19.5 374,-0.5 307,-0.5"/>
<text text-anchor="middle" x="340.5" y="-7.5" font-family="FreeSans" font-size="10.00">resource.c</text>
</a>
</g>
</g>
<!-- Node4&#45;&gt;Node13 -->
<g id="edge13" class="edge">
<title>Node4&#45;&gt;Node13</title>
<path fill="none" stroke="midnightblue" d="M478.81,-53.44C445.63,-43.26 398.07,-28.66 368.26,-19.52"/>
<polygon fill="midnightblue" stroke="midnightblue" points="478.03,-56.86 488.61,-56.44 480.08,-50.16 478.03,-56.86"/>
</g>
<!-- Node14 -->
<g id="node14" class="node">
<title>Node14</title>
<g id="a_node14"><a xlink:href="semaphore_8c.html" target="_top" xlink:title=" ">
<polygon fill="white" stroke="black" points="392.5,-0.5 392.5,-19.5 472.5,-19.5 472.5,-0.5 392.5,-0.5"/>
<text text-anchor="middle" x="432.5" y="-7.5" font-family="FreeSans" font-size="10.00">semaphore.c</text>
</a>
</g>
</g>
<!-- Node4&#45;&gt;Node14 -->
<g id="edge14" class="edge">
<title>Node4&#45;&gt;Node14</title>
<path fill="none" stroke="midnightblue" d="M494.57,-50.9C479.16,-41 459.05,-28.07 445.96,-19.65"/>
<polygon fill="midnightblue" stroke="midnightblue" points="492.7,-53.86 503,-56.32 496.48,-47.97 492.7,-53.86"/>
</g>
<!-- Node15 -->
<g id="node15" class="node">
<title>Node15</title>
<g id="a_node15"><a xlink:href="utility_8c.html" target="_top" xlink:title=" ">
<polygon fill="white" stroke="black" points="490.5,-0.5 490.5,-19.5 542.5,-19.5 542.5,-0.5 490.5,-0.5"/>
<text text-anchor="middle" x="516.5" y="-7.5" font-family="FreeSans" font-size="10.00">utility.c</text>
</a>
</g>
</g>
<!-- Node4&#45;&gt;Node15 -->
<g id="edge16" class="edge">
<title>Node4&#45;&gt;Node15</title>
<path fill="none" stroke="midnightblue" d="M516.5,-45.8C516.5,-36.91 516.5,-26.78 516.5,-19.75"/>
<polygon fill="midnightblue" stroke="midnightblue" points="513,-46.08 516.5,-56.08 520,-46.08 513,-46.08"/>
</g>
<!-- Node16 -->
<g id="node16" class="node">
<title>Node16</title>
<g id="a_node16"><a xlink:href="xml-tree_8c.html" target="_top" xlink:title=" ">
<polygon fill="white" stroke="black" points="561,-0.5 561,-19.5 628,-19.5 628,-0.5 561,-0.5"/>
<text text-anchor="middle" x="594.5" y="-7.5" font-family="FreeSans" font-size="10.00">xml&#45;tree.c</text>
</a>
</g>
</g>
<!-- Node4&#45;&gt;Node16 -->
<g id="edge17" class="edge">
<title>Node4&#45;&gt;Node16</title>
<path fill="none" stroke="midnightblue" d="M537.27,-50.62C551.52,-40.76 569.96,-27.99 582,-19.65"/>
<polygon fill="midnightblue" stroke="midnightblue" points="535.26,-47.75 529.03,-56.32 539.25,-53.51 535.26,-47.75"/>
</g>
</g>
</svg>
