<?xml version="1.0" encoding="UTF-8" standalone="no"?>
<!DOCTYPE svg PUBLIC "-//W3C//DTD SVG 1.1//EN"
 "http://www.w3.org/Graphics/SVG/1.1/DTD/svg11.dtd">
<!-- Generated by graphviz version 2.43.0 (0)
 -->
<!-- Title: nt&#45;base&#45;private.h Pages: 1 -->
<svg width="2758pt" height="140pt"
 viewBox="0.00 0.00 2757.50 140.00" xmlns="http://www.w3.org/2000/svg" xmlns:xlink="http://www.w3.org/1999/xlink">
<g id="graph0" class="graph" transform="scale(1 1) rotate(0) translate(4 136)">
<title>nt&#45;base&#45;private.h</title>
<polygon fill="white" stroke="transparent" points="-4,4 -4,-136 2753.5,-136 2753.5,4 -4,4"/>
<!-- Node1 -->
<g id="node1" class="node">
<title>Node1</title>
<g id="a_node1"><a xlink:title=" ">
<polygon fill="#bfbfbf" stroke="black" points="1165.5,-112.5 1165.5,-131.5 1266.5,-131.5 1266.5,-112.5 1165.5,-112.5"/>
<text text-anchor="middle" x="1216" y="-119.5" font-family="FreeSans" font-size="10.00">nt&#45;base&#45;private.h</text>
</a>
</g>
</g>
<!-- Node2 -->
<g id="node2" class="node">
<title>Node2</title>
<g id="a_node2"><a xlink:href="blob-private_8h.html" target="_top" xlink:title=" ">
<polygon fill="white" stroke="black" points="1476.5,-56.5 1476.5,-75.5 1561.5,-75.5 1561.5,-56.5 1476.5,-56.5"/>
<text text-anchor="middle" x="1519" y="-63.5" font-family="FreeSans" font-size="10.00">blob&#45;private.h</text>
</a>
</g>
</g>
<!-- Node1&#45;&gt;Node2 -->
<g id="edge1" class="edge">
<title>Node1&#45;&gt;Node2</title>
<path fill="none" stroke="midnightblue" d="M1273.93,-110.68C1332.98,-100.15 1423.19,-84.08 1476.11,-74.64"/>
<polygon fill="midnightblue" stroke="midnightblue" points="1273.24,-107.24 1264.01,-112.44 1274.47,-114.13 1273.24,-107.24"/>
</g>
<!-- Node4 -->
<g id="node4" class="node">
<title>Node4</title>
<g id="a_node4"><a xlink:href="blob_8c.html" target="_top" xlink:title=" ">
<polygon fill="white" stroke="black" points="867,-0.5 867,-19.5 913,-19.5 913,-0.5 867,-0.5"/>
<text text-anchor="middle" x="890" y="-7.5" font-family="FreeSans" font-size="10.00">blob.c</text>
</a>
</g>
</g>
<!-- Node1&#45;&gt;Node4 -->
<g id="edge23" class="edge">
<title>Node1&#45;&gt;Node4</title>
<path fill="none" stroke="midnightblue" d="M1155.12,-113.33C1111.71,-106.62 1052.52,-94.93 1003,-76 963.68,-60.97 921.84,-33.47 901.91,-19.55"/>
<polygon fill="midnightblue" stroke="midnightblue" points="1154.83,-116.82 1165.24,-114.85 1155.87,-109.9 1154.83,-116.82"/>
</g>
<!-- Node5 -->
<g id="node5" class="node">
<title>Node5</title>
<g id="a_node5"><a xlink:href="cache_8c.html" target="_top" xlink:title=" ">
<polygon fill="white" stroke="black" points="1260.5,-0.5 1260.5,-19.5 1313.5,-19.5 1313.5,-0.5 1260.5,-0.5"/>
<text text-anchor="middle" x="1287" y="-7.5" font-family="FreeSans" font-size="10.00">cache.c</text>
</a>
</g>
</g>
<!-- Node1&#45;&gt;Node5 -->
<g id="edge24" class="edge">
<title>Node1&#45;&gt;Node5</title>
<path fill="none" stroke="midnightblue" d="M1227,-103.96C1242.39,-80.12 1269.76,-37.71 1281.45,-19.59"/>
<polygon fill="midnightblue" stroke="midnightblue" points="1224.05,-102.07 1221.57,-112.37 1229.93,-105.86 1224.05,-102.07"/>
</g>
<!-- Node12 -->
<g id="node12" class="node">
<title>Node12</title>
<g id="a_node12"><a xlink:href="magick_8c.html" target="_top" xlink:title=" ">
<polygon fill="white" stroke="black" points="409.5,-0.5 409.5,-19.5 470.5,-19.5 470.5,-0.5 409.5,-0.5"/>
<text text-anchor="middle" x="440" y="-7.5" font-family="FreeSans" font-size="10.00">magick.c</text>
</a>
</g>
</g>
<!-- Node1&#45;&gt;Node12 -->
<g id="edge31" class="edge">
<title>Node1&#45;&gt;Node12</title>
<path fill="none" stroke="midnightblue" d="M1155.27,-118.62C1059.31,-114.2 866.97,-102.61 706,-76 618.53,-61.54 517.33,-33.65 468.83,-19.57"/>
<polygon fill="midnightblue" stroke="midnightblue" points="1155.22,-122.12 1165.37,-119.08 1155.54,-115.13 1155.22,-122.12"/>
</g>
<!-- Node19 -->
<g id="node19" class="node">
<title>Node19</title>
<g id="a_node19"><a xlink:href="shear_8c.html" target="_top" xlink:title=" ">
<polygon fill="white" stroke="black" points="2698.5,-0.5 2698.5,-19.5 2749.5,-19.5 2749.5,-0.5 2698.5,-0.5"/>
<text text-anchor="middle" x="2724" y="-7.5" font-family="FreeSans" font-size="10.00">shear.c</text>
</a>
</g>
</g>
<!-- Node1&#45;&gt;Node19 -->
<g id="edge37" class="edge">
<title>Node1&#45;&gt;Node19</title>
<path fill="none" stroke="midnightblue" d="M1276.82,-119.86C1348.66,-117.03 1471.04,-107.5 1571,-76 1589.2,-70.26 1590.55,-60.89 1609,-56 1841.13,5.48 2451.3,-54.1 2689,-20 2691.98,-19.57 2695.07,-18.99 2698.13,-18.32"/>
<polygon fill="midnightblue" stroke="midnightblue" points="1276.46,-116.37 1266.59,-120.23 1276.71,-123.37 1276.46,-116.37"/>
</g>
<!-- Node22 -->
<g id="node22" class="node">
<title>Node22</title>
<g id="a_node22"><a xlink:href="string_8c.html" target="_top" xlink:title=" ">
<polygon fill="white" stroke="black" points="1331.5,-0.5 1331.5,-19.5 1384.5,-19.5 1384.5,-0.5 1331.5,-0.5"/>
<text text-anchor="middle" x="1358" y="-7.5" font-family="FreeSans" font-size="10.00">string.c</text>
</a>
</g>
</g>
<!-- Node1&#45;&gt;Node22 -->
<g id="edge38" class="edge">
<title>Node1&#45;&gt;Node22</title>
<path fill="none" stroke="midnightblue" d="M1235.21,-106.12C1265.35,-82.77 1322.8,-38.27 1346.91,-19.59"/>
<polygon fill="midnightblue" stroke="midnightblue" points="1232.9,-103.48 1227.14,-112.37 1237.19,-109.01 1232.9,-103.48"/>
</g>
<!-- Node24 -->
<g id="node24" class="node">
<title>Node24</title>
<g id="a_node24"><a xlink:href="configure_8c.html" target="_top" xlink:title=" ">
<polygon fill="white" stroke="black" points="1618,-56.5 1618,-75.5 1688,-75.5 1688,-56.5 1618,-56.5"/>
<text text-anchor="middle" x="1653" y="-63.5" font-family="FreeSans" font-size="10.00">configure.c</text>
</a>
</g>
</g>
<!-- Node1&#45;&gt;Node24 -->
<g id="edge25" class="edge">
<title>Node1&#45;&gt;Node24</title>
<path fill="none" stroke="midnightblue" d="M1277.08,-115.18C1353.66,-107.59 1488.86,-93.23 1604,-76 1608.53,-75.32 1613.29,-74.54 1617.98,-73.72"/>
<polygon fill="midnightblue" stroke="midnightblue" points="1276.28,-111.74 1266.68,-116.2 1276.97,-118.71 1276.28,-111.74"/>
</g>
<!-- Node25 -->
<g id="node25" class="node">
<title>Node25</title>
<g id="a_node25"><a xlink:href="delegate_8c.html" target="_top" xlink:title=" ">
<polygon fill="white" stroke="black" points="489,-0.5 489,-19.5 557,-19.5 557,-0.5 489,-0.5"/>
<text text-anchor="middle" x="523" y="-7.5" font-family="FreeSans" font-size="10.00">delegate.c</text>
</a>
</g>
</g>
<!-- Node1&#45;&gt;Node25 -->
<g id="edge26" class="edge">
<title>Node1&#45;&gt;Node25</title>
<path fill="none" stroke="midnightblue" d="M1155.19,-116.66C1074.36,-110.38 927.28,-97.12 803,-76 711.74,-60.49 605.72,-33.33 554.25,-19.55"/>
<polygon fill="midnightblue" stroke="midnightblue" points="1154.95,-120.15 1165.19,-117.43 1155.48,-113.17 1154.95,-120.15"/>
</g>
<!-- Node26 -->
<g id="node26" class="node">
<title>Node26</title>
<g id="a_node26"><a xlink:href="display_8c.html" target="_top" xlink:title=" ">
<polygon fill="white" stroke="black" points="332.5,-0.5 332.5,-19.5 391.5,-19.5 391.5,-0.5 332.5,-0.5"/>
<text text-anchor="middle" x="362" y="-7.5" font-family="FreeSans" font-size="10.00">display.c</text>
</a>
</g>
</g>
<!-- Node1&#45;&gt;Node26 -->
<g id="edge27" class="edge">
<title>Node1&#45;&gt;Node26</title>
<path fill="none" stroke="midnightblue" d="M1155.25,-120.23C1045.18,-118.02 805.77,-109.41 607,-76 525.63,-62.32 432.03,-33.81 387.76,-19.53"/>
<polygon fill="midnightblue" stroke="midnightblue" points="1155.43,-123.74 1165.49,-120.43 1155.56,-116.74 1155.43,-123.74"/>
</g>
<!-- Node27 -->
<g id="node27" class="node">
<title>Node27</title>
<g id="a_node27"><a xlink:href="distribute-cache_8c.html" target="_top" xlink:title=" ">
<polygon fill="white" stroke="black" points="1706,-56.5 1706,-75.5 1810,-75.5 1810,-56.5 1706,-56.5"/>
<text text-anchor="middle" x="1758" y="-63.5" font-family="FreeSans" font-size="10.00">distribute&#45;cache.c</text>
</a>
</g>
</g>
<!-- Node1&#45;&gt;Node27 -->
<g id="edge28" class="edge">
<title>Node1&#45;&gt;Node27</title>
<path fill="none" stroke="midnightblue" d="M1276.82,-116.35C1368.19,-109.14 1546.26,-94.16 1697,-76 1699.87,-75.65 1702.81,-75.28 1705.78,-74.89"/>
<polygon fill="midnightblue" stroke="midnightblue" points="1276.34,-112.88 1266.65,-117.15 1276.89,-119.86 1276.34,-112.88"/>
</g>
<!-- Node28 -->
<g id="node28" class="node">
<title>Node28</title>
<g id="a_node28"><a xlink:href="locale_8c.html" target="_top" xlink:title=" ">
<polygon fill="white" stroke="black" points="1828,-56.5 1828,-75.5 1882,-75.5 1882,-56.5 1828,-56.5"/>
<text text-anchor="middle" x="1855" y="-63.5" font-family="FreeSans" font-size="10.00">locale.c</text>
</a>
</g>
</g>
<!-- Node1&#45;&gt;Node28 -->
<g id="edge29" class="edge">
<title>Node1&#45;&gt;Node28</title>
<path fill="none" stroke="midnightblue" d="M1276.94,-119.88C1386.22,-117.11 1622.46,-107.66 1819,-76 1821.93,-75.53 1824.96,-74.94 1827.98,-74.28"/>
<polygon fill="midnightblue" stroke="midnightblue" points="1276.68,-116.38 1266.77,-120.13 1276.85,-123.38 1276.68,-116.38"/>
</g>
<!-- Node29 -->
<g id="node29" class="node">
<title>Node29</title>
<g id="a_node29"><a xlink:href="log_8c.html" target="_top" xlink:title=" ">
<polygon fill="white" stroke="black" points="649,-0.5 649,-19.5 689,-19.5 689,-0.5 649,-0.5"/>
<text text-anchor="middle" x="669" y="-7.5" font-family="FreeSans" font-size="10.00">log.c</text>
</a>
</g>
</g>
<!-- Node1&#45;&gt;Node29 -->
<g id="edge30" class="edge">
<title>Node1&#45;&gt;Node29</title>
<path fill="none" stroke="midnightblue" d="M1155.27,-115.67C1088.32,-109.12 977.67,-96.32 884,-76 811.02,-60.17 726.92,-31.65 689.17,-18.29"/>
<polygon fill="midnightblue" stroke="midnightblue" points="1154.94,-119.15 1165.23,-116.63 1155.61,-112.19 1154.94,-119.15"/>
</g>
<!-- Node30 -->
<g id="node30" class="node">
<title>Node30</title>
<g id="a_node30"><a xlink:href="mime_8c.html" target="_top" xlink:title=" ">
<polygon fill="white" stroke="black" points="1900.5,-56.5 1900.5,-75.5 1953.5,-75.5 1953.5,-56.5 1900.5,-56.5"/>
<text text-anchor="middle" x="1927" y="-63.5" font-family="FreeSans" font-size="10.00">mime.c</text>
</a>
</g>
</g>
<!-- Node1&#45;&gt;Node30 -->
<g id="edge32" class="edge">
<title>Node1&#45;&gt;Node30</title>
<path fill="none" stroke="midnightblue" d="M1277.07,-120.57C1395.98,-118.92 1666.59,-111.24 1891,-76 1894.05,-75.52 1897.23,-74.9 1900.37,-74.22"/>
<polygon fill="midnightblue" stroke="midnightblue" points="1276.68,-117.07 1266.72,-120.7 1276.77,-124.07 1276.68,-117.07"/>
</g>
<!-- Node31 -->
<g id="node31" class="node">
<title>Node31</title>
<g id="a_node31"><a xlink:href="module_8c.html" target="_top" xlink:title=" ">
<polygon fill="white" stroke="black" points="707,-0.5 707,-19.5 769,-19.5 769,-0.5 707,-0.5"/>
<text text-anchor="middle" x="738" y="-7.5" font-family="FreeSans" font-size="10.00">module.c</text>
</a>
</g>
</g>
<!-- Node1&#45;&gt;Node31 -->
<g id="edge33" class="edge">
<title>Node1&#45;&gt;Node31</title>
<path fill="none" stroke="midnightblue" d="M1154.83,-112.43C1102.08,-104.55 1024.07,-91.72 957,-76 919.93,-67.31 815.28,-35.09 765.27,-19.53"/>
<polygon fill="midnightblue" stroke="midnightblue" points="1154.62,-115.94 1165.03,-113.94 1155.65,-109.01 1154.62,-115.94"/>
</g>
<!-- Node32 -->
<g id="node32" class="node">
<title>Node32</title>
<g id="a_node32"><a xlink:href="opencl_8c.html" target="_top" xlink:title=" ">
<polygon fill="white" stroke="black" points="1029.5,-0.5 1029.5,-19.5 1086.5,-19.5 1086.5,-0.5 1029.5,-0.5"/>
<text text-anchor="middle" x="1058" y="-7.5" font-family="FreeSans" font-size="10.00">opencl.c</text>
</a>
</g>
</g>
<!-- Node1&#45;&gt;Node32 -->
<g id="edge34" class="edge">
<title>Node1&#45;&gt;Node32</title>
<path fill="none" stroke="midnightblue" d="M1195.05,-106.42C1161.64,-83.15 1097.28,-38.35 1070.34,-19.59"/>
<polygon fill="midnightblue" stroke="midnightblue" points="1193.4,-109.53 1203.6,-112.37 1197.39,-103.78 1193.4,-109.53"/>
</g>
<!-- Node33 -->
<g id="node33" class="node">
<title>Node33</title>
<g id="a_node33"><a xlink:href="resize_8c.html" target="_top" xlink:title=" ">
<polygon fill="white" stroke="black" points="1972,-56.5 1972,-75.5 2026,-75.5 2026,-56.5 1972,-56.5"/>
<text text-anchor="middle" x="1999" y="-63.5" font-family="FreeSans" font-size="10.00">resize.c</text>
</a>
</g>
</g>
<!-- Node1&#45;&gt;Node33 -->
<g id="edge35" class="edge">
<title>Node1&#45;&gt;Node33</title>
<path fill="none" stroke="midnightblue" d="M1276.98,-121.13C1404.91,-120.56 1710.39,-114.84 1963,-76 1965.93,-75.55 1968.97,-74.97 1971.98,-74.32"/>
<polygon fill="midnightblue" stroke="midnightblue" points="1276.6,-117.63 1266.62,-121.16 1276.63,-124.63 1276.6,-117.63"/>
</g>
<!-- Node34 -->
<g id="node34" class="node">
<title>Node34</title>
<g id="a_node34"><a xlink:href="resource_8c.html" target="_top" xlink:title=" ">
<polygon fill="white" stroke="black" points="1104.5,-0.5 1104.5,-19.5 1171.5,-19.5 1171.5,-0.5 1104.5,-0.5"/>
<text text-anchor="middle" x="1138" y="-7.5" font-family="FreeSans" font-size="10.00">resource.c</text>
</a>
</g>
</g>
<!-- Node1&#45;&gt;Node34 -->
<g id="edge36" class="edge">
<title>Node1&#45;&gt;Node34</title>
<path fill="none" stroke="midnightblue" d="M1203.92,-103.96C1187.01,-80.12 1156.94,-37.71 1144.09,-19.59"/>
<polygon fill="midnightblue" stroke="midnightblue" points="1201.24,-106.24 1209.88,-112.37 1206.95,-102.19 1201.24,-106.24"/>
</g>
<!-- Node35 -->
<g id="node35" class="node">
<title>Node35</title>
<g id="a_node35"><a xlink:href="timer_8c.html" target="_top" xlink:title=" ">
<polygon fill="white" stroke="black" points="2044,-56.5 2044,-75.5 2094,-75.5 2094,-56.5 2044,-56.5"/>
<text text-anchor="middle" x="2069" y="-63.5" font-family="FreeSans" font-size="10.00">timer.c</text>
</a>
</g>
</g>
<!-- Node1&#45;&gt;Node35 -->
<g id="edge39" class="edge">
<title>Node1&#45;&gt;Node35</title>
<path fill="none" stroke="midnightblue" d="M1276.89,-119.26C1440.82,-114.34 1888.94,-99.1 2035,-76 2037.89,-75.54 2040.9,-74.94 2043.87,-74.26"/>
<polygon fill="midnightblue" stroke="midnightblue" points="1276.4,-115.78 1266.51,-119.57 1276.61,-122.77 1276.4,-115.78"/>
</g>
<!-- Node36 -->
<g id="node36" class="node">
<title>Node36</title>
<g id="a_node36"><a xlink:href="type_8c.html" target="_top" xlink:title=" ">
<polygon fill="white" stroke="black" points="2112.5,-56.5 2112.5,-75.5 2159.5,-75.5 2159.5,-56.5 2112.5,-56.5"/>
<text text-anchor="middle" x="2136" y="-63.5" font-family="FreeSans" font-size="10.00">type.c</text>
</a>
</g>
</g>
<!-- Node1&#45;&gt;Node36 -->
<g id="edge40" class="edge">
<title>Node1&#45;&gt;Node36</title>
<path fill="none" stroke="midnightblue" d="M1276.84,-119.62C1450.01,-115.43 1943.34,-101.51 2103,-76 2106.05,-75.51 2109.22,-74.85 2112.34,-74.11"/>
<polygon fill="midnightblue" stroke="midnightblue" points="1276.55,-116.13 1266.64,-119.87 1276.72,-123.13 1276.55,-116.13"/>
</g>
<!-- Node37 -->
<g id="node37" class="node">
<title>Node37</title>
<g id="a_node37"><a xlink:href="utility-private_8h.html" target="_top" xlink:title=" ">
<polygon fill="white" stroke="black" points="1012,-56.5 1012,-75.5 1104,-75.5 1104,-56.5 1012,-56.5"/>
<text text-anchor="middle" x="1058" y="-63.5" font-family="FreeSans" font-size="10.00">utility&#45;private.h</text>
</a>
</g>
</g>
<!-- Node1&#45;&gt;Node37 -->
<g id="edge41" class="edge">
<title>Node1&#45;&gt;Node37</title>
<path fill="none" stroke="midnightblue" d="M1181.39,-109.17C1151.64,-99 1109.45,-84.59 1082.92,-75.52"/>
<polygon fill="midnightblue" stroke="midnightblue" points="1180.37,-112.52 1190.96,-112.44 1182.63,-105.9 1180.37,-112.52"/>
</g>
<!-- Node40 -->
<g id="node40" class="node">
<title>Node40</title>
<g id="a_node40"><a xlink:href="utility_8c.html" target="_top" xlink:title=" ">
<polygon fill="white" stroke="black" points="1190,-0.5 1190,-19.5 1242,-19.5 1242,-0.5 1190,-0.5"/>
<text text-anchor="middle" x="1216" y="-7.5" font-family="FreeSans" font-size="10.00">utility.c</text>
</a>
</g>
</g>
<!-- Node1&#45;&gt;Node40 -->
<g id="edge56" class="edge">
<title>Node1&#45;&gt;Node40</title>
<path fill="none" stroke="midnightblue" d="M1216,-102.35C1216,-78.25 1216,-37.31 1216,-19.59"/>
<polygon fill="midnightblue" stroke="midnightblue" points="1212.5,-102.37 1216,-112.37 1219.5,-102.37 1212.5,-102.37"/>
</g>
<!-- Node41 -->
<g id="node41" class="node">
<title>Node41</title>
<g id="a_node41"><a xlink:href="xwindow-private_8h.html" target="_top" xlink:title=" ">
<polygon fill="white" stroke="black" points="267.5,-56.5 267.5,-75.5 374.5,-75.5 374.5,-56.5 267.5,-56.5"/>
<text text-anchor="middle" x="321" y="-63.5" font-family="FreeSans" font-size="10.00">xwindow&#45;private.h</text>
</a>
</g>
</g>
<!-- Node1&#45;&gt;Node41 -->
<g id="edge57" class="edge">
<title>Node1&#45;&gt;Node41</title>
<path fill="none" stroke="midnightblue" d="M1155.07,-117.91C1023.66,-111.15 703.8,-94.2 436,-76 415.92,-74.64 393.88,-72.95 374.52,-71.42"/>
<polygon fill="midnightblue" stroke="midnightblue" points="1155.16,-121.42 1165.33,-118.44 1155.52,-114.43 1155.16,-121.42"/>
</g>
<!-- Node45 -->
<g id="node45" class="node">
<title>Node45</title>
<g id="a_node45"><a xlink:href="xwindow_8c.html" target="_top" xlink:title=" ">
<polygon fill="white" stroke="black" points="0,-0.5 0,-19.5 68,-19.5 68,-0.5 0,-0.5"/>
<text text-anchor="middle" x="34" y="-7.5" font-family="FreeSans" font-size="10.00">xwindow.c</text>
</a>
</g>
</g>
<!-- Node1&#45;&gt;Node45 -->
<g id="edge65" class="edge">
<title>Node1&#45;&gt;Node45</title>
<path fill="none" stroke="midnightblue" d="M1155.02,-120.01C972.37,-116.75 431.71,-104.87 258,-76 182.7,-63.49 96.84,-34.16 56.8,-19.56"/>
<polygon fill="midnightblue" stroke="midnightblue" points="1155.18,-123.51 1165.24,-120.19 1155.31,-116.52 1155.18,-123.51"/>
</g>
<!-- Node3 -->
<g id="node3" class="node">
<title>Node3</title>
<g id="a_node3"><a xlink:href="attribute_8c.html" target="_top" xlink:title=" ">
<polygon fill="white" stroke="black" points="1730.5,-0.5 1730.5,-19.5 1797.5,-19.5 1797.5,-0.5 1730.5,-0.5"/>
<text text-anchor="middle" x="1764" y="-7.5" font-family="FreeSans" font-size="10.00">attribute.c</text>
</a>
</g>
</g>
<!-- Node2&#45;&gt;Node3 -->
<g id="edge2" class="edge">
<title>Node2&#45;&gt;Node3</title>
<path fill="none" stroke="midnightblue" d="M1567.72,-54.26C1615.92,-43.64 1688.4,-27.66 1730.48,-18.39"/>
<polygon fill="midnightblue" stroke="midnightblue" points="1566.83,-50.87 1557.82,-56.44 1568.34,-57.71 1566.83,-50.87"/>
</g>
<!-- Node2&#45;&gt;Node4 -->
<g id="edge3" class="edge">
<title>Node2&#45;&gt;Node4</title>
<path fill="none" stroke="midnightblue" d="M1465.99,-64.53C1361.24,-62.83 1120.66,-55.06 922,-20 919.16,-19.5 916.21,-18.85 913.29,-18.13"/>
<polygon fill="midnightblue" stroke="midnightblue" points="1466.24,-68.03 1476.29,-64.68 1466.35,-61.03 1466.24,-68.03"/>
</g>
<!-- Node2&#45;&gt;Node5 -->
<g id="edge4" class="edge">
<title>Node2&#45;&gt;Node5</title>
<path fill="none" stroke="midnightblue" d="M1470.05,-54.21C1430.14,-45.31 1372.34,-32.22 1322,-20 1319.32,-19.35 1316.52,-18.66 1313.73,-17.95"/>
<polygon fill="midnightblue" stroke="midnightblue" points="1469.53,-57.68 1480.05,-56.43 1471.05,-50.84 1469.53,-57.68"/>
</g>
<!-- Node6 -->
<g id="node6" class="node">
<title>Node6</title>
<g id="a_node6"><a xlink:href="compress_8c.html" target="_top" xlink:title=" ">
<polygon fill="white" stroke="black" points="1816,-0.5 1816,-19.5 1888,-19.5 1888,-0.5 1816,-0.5"/>
<text text-anchor="middle" x="1852" y="-7.5" font-family="FreeSans" font-size="10.00">compress.c</text>
</a>
</g>
</g>
<!-- Node2&#45;&gt;Node6 -->
<g id="edge5" class="edge">
<title>Node2&#45;&gt;Node6</title>
<path fill="none" stroke="midnightblue" d="M1571.58,-56.69C1573.07,-56.46 1574.55,-56.23 1576,-56 1678.65,-39.9 1704.7,-38.19 1807,-20 1809.82,-19.5 1812.74,-18.96 1815.68,-18.4"/>
<polygon fill="midnightblue" stroke="midnightblue" points="1570.97,-53.25 1561.64,-58.26 1572.06,-60.16 1570.97,-53.25"/>
</g>
<!-- Node7 -->
<g id="node7" class="node">
<title>Node7</title>
<g id="a_node7"><a xlink:href="constitute_8c.html" target="_top" xlink:title=" ">
<polygon fill="white" stroke="black" points="1906,-0.5 1906,-19.5 1980,-19.5 1980,-0.5 1906,-0.5"/>
<text text-anchor="middle" x="1943" y="-7.5" font-family="FreeSans" font-size="10.00">constitute.c</text>
</a>
</g>
</g>
<!-- Node2&#45;&gt;Node7 -->
<g id="edge6" class="edge">
<title>Node2&#45;&gt;Node7</title>
<path fill="none" stroke="midnightblue" d="M1571.57,-56.61C1573.06,-56.4 1574.54,-56.2 1576,-56 1718.27,-36.8 1755.1,-41.8 1897,-20 1899.9,-19.56 1902.89,-19.06 1905.89,-18.53"/>
<polygon fill="midnightblue" stroke="midnightblue" points="1571,-53.16 1561.61,-58.06 1572.01,-60.08 1571,-53.16"/>
</g>
<!-- Node8 -->
<g id="node8" class="node">
<title>Node8</title>
<g id="a_node8"><a xlink:href="deprecate_8c.html" target="_top" xlink:title=" ">
<polygon fill="white" stroke="black" points="1998,-0.5 1998,-19.5 2072,-19.5 2072,-0.5 1998,-0.5"/>
<text text-anchor="middle" x="2035" y="-7.5" font-family="FreeSans" font-size="10.00">deprecate.c</text>
</a>
</g>
</g>
<!-- Node2&#45;&gt;Node8 -->
<g id="edge7" class="edge">
<title>Node2&#45;&gt;Node8</title>
<path fill="none" stroke="midnightblue" d="M1571.57,-56.56C1573.06,-56.37 1574.54,-56.18 1576,-56 1758.89,-33.62 1806.55,-45.73 1989,-20 1991.9,-19.59 1994.9,-19.12 1997.9,-18.61"/>
<polygon fill="midnightblue" stroke="midnightblue" points="1571.02,-53.1 1561.6,-57.94 1571.98,-60.04 1571.02,-53.1"/>
</g>
<!-- Node9 -->
<g id="node9" class="node">
<title>Node9</title>
<g id="a_node9"><a xlink:href="feature_8c.html" target="_top" xlink:title=" ">
<polygon fill="white" stroke="black" points="2090,-0.5 2090,-19.5 2150,-19.5 2150,-0.5 2090,-0.5"/>
<text text-anchor="middle" x="2120" y="-7.5" font-family="FreeSans" font-size="10.00">feature.c</text>
</a>
</g>
</g>
<!-- Node2&#45;&gt;Node9 -->
<g id="edge8" class="edge">
<title>Node2&#45;&gt;Node9</title>
<path fill="none" stroke="midnightblue" d="M1571.56,-56.53C1573.06,-56.34 1574.54,-56.17 1576,-56 1799.56,-30.43 1858.48,-53.4 2081,-20 2083.89,-19.57 2086.88,-19.03 2089.86,-18.44"/>
<polygon fill="midnightblue" stroke="midnightblue" points="1571.03,-53.07 1561.59,-57.87 1571.96,-60.01 1571.03,-53.07"/>
</g>
<!-- Node10 -->
<g id="node10" class="node">
<title>Node10</title>
<g id="a_node10"><a xlink:href="image_8c.html" target="_top" xlink:title=" ">
<polygon fill="white" stroke="black" points="575,-0.5 575,-19.5 631,-19.5 631,-0.5 575,-0.5"/>
<text text-anchor="middle" x="603" y="-7.5" font-family="FreeSans" font-size="10.00">image.c</text>
</a>
</g>
</g>
<!-- Node2&#45;&gt;Node10 -->
<g id="edge9" class="edge">
<title>Node2&#45;&gt;Node10</title>
<path fill="none" stroke="midnightblue" d="M1466.16,-63.6C1301.79,-59.02 800.9,-43.48 640,-20 637.12,-19.58 634.14,-19.04 631.17,-18.43"/>
<polygon fill="midnightblue" stroke="midnightblue" points="1466.4,-67.1 1476.49,-63.88 1466.6,-60.11 1466.4,-67.1"/>
</g>
<!-- Node11 -->
<g id="node11" class="node">
<title>Node11</title>
<g id="a_node11"><a xlink:href="list_8c.html" target="_top" xlink:title=" ">
<polygon fill="white" stroke="black" points="2168,-0.5 2168,-19.5 2208,-19.5 2208,-0.5 2168,-0.5"/>
<text text-anchor="middle" x="2188" y="-7.5" font-family="FreeSans" font-size="10.00">list.c</text>
</a>
</g>
</g>
<!-- Node2&#45;&gt;Node11 -->
<g id="edge10" class="edge">
<title>Node2&#45;&gt;Node11</title>
<path fill="none" stroke="midnightblue" d="M1571.56,-56.51C1573.05,-56.33 1574.54,-56.16 1576,-56 1834.06,-27.72 1903.65,-66.81 2159,-20 2161.9,-19.47 2164.92,-18.74 2167.87,-17.92"/>
<polygon fill="midnightblue" stroke="midnightblue" points="1571.04,-53.05 1561.58,-57.82 1571.95,-59.99 1571.04,-53.05"/>
</g>
<!-- Node2&#45;&gt;Node12 -->
<g id="edge11" class="edge">
<title>Node2&#45;&gt;Node12</title>
<path fill="none" stroke="midnightblue" d="M1466.07,-63.95C1282.46,-60.13 673.67,-45.77 480,-20 477.04,-19.61 473.97,-19.1 470.91,-18.53"/>
<polygon fill="midnightblue" stroke="midnightblue" points="1466.2,-67.46 1476.27,-64.16 1466.35,-60.46 1466.2,-67.46"/>
</g>
<!-- Node13 -->
<g id="node13" class="node">
<title>Node13</title>
<g id="a_node13"><a xlink:href="matrix_8c.html" target="_top" xlink:title=" ">
<polygon fill="white" stroke="black" points="2226.5,-0.5 2226.5,-19.5 2283.5,-19.5 2283.5,-0.5 2226.5,-0.5"/>
<text text-anchor="middle" x="2255" y="-7.5" font-family="FreeSans" font-size="10.00">matrix.c</text>
</a>
</g>
</g>
<!-- Node2&#45;&gt;Node13 -->
<g id="edge12" class="edge">
<title>Node2&#45;&gt;Node13</title>
<path fill="none" stroke="midnightblue" d="M1571.56,-56.5C1573.05,-56.32 1574.54,-56.16 1576,-56 1859.73,-25.71 1934.63,-61.04 2217,-20 2220.09,-19.55 2223.29,-18.97 2226.47,-18.33"/>
<polygon fill="midnightblue" stroke="midnightblue" points="1571.05,-53.04 1561.58,-57.8 1571.95,-59.98 1571.05,-53.04"/>
</g>
<!-- Node14 -->
<g id="node14" class="node">
<title>Node14</title>
<g id="a_node14"><a xlink:href="memory_8c.html" target="_top" xlink:title=" ">
<polygon fill="white" stroke="black" points="1402.5,-0.5 1402.5,-19.5 1467.5,-19.5 1467.5,-0.5 1402.5,-0.5"/>
<text text-anchor="middle" x="1435" y="-7.5" font-family="FreeSans" font-size="10.00">memory.c</text>
</a>
</g>
</g>
<!-- Node2&#45;&gt;Node14 -->
<g id="edge13" class="edge">
<title>Node2&#45;&gt;Node14</title>
<path fill="none" stroke="midnightblue" d="M1497.07,-50.9C1481.66,-41 1461.55,-28.07 1448.46,-19.65"/>
<polygon fill="midnightblue" stroke="midnightblue" points="1495.2,-53.86 1505.5,-56.32 1498.98,-47.97 1495.2,-53.86"/>
</g>
<!-- Node15 -->
<g id="node15" class="node">
<title>Node15</title>
<g id="a_node15"><a xlink:href="pixel_8c.html" target="_top" xlink:title=" ">
<polygon fill="white" stroke="black" points="2302,-0.5 2302,-19.5 2350,-19.5 2350,-0.5 2302,-0.5"/>
<text text-anchor="middle" x="2326" y="-7.5" font-family="FreeSans" font-size="10.00">pixel.c</text>
</a>
</g>
</g>
<!-- Node2&#45;&gt;Node15 -->
<g id="edge14" class="edge">
<title>Node2&#45;&gt;Node15</title>
<path fill="none" stroke="midnightblue" d="M1571.56,-56.49C1573.05,-56.32 1574.54,-56.15 1576,-56 1893.36,-23.07 1977.92,-70.27 2293,-20 2295.93,-19.53 2298.98,-18.9 2301.98,-18.2"/>
<polygon fill="midnightblue" stroke="midnightblue" points="1571.05,-53.03 1561.58,-57.77 1571.94,-59.97 1571.05,-53.03"/>
</g>
<!-- Node16 -->
<g id="node16" class="node">
<title>Node16</title>
<g id="a_node16"><a xlink:href="quantum-export_8c.html" target="_top" xlink:title=" ">
<polygon fill="white" stroke="black" points="2368,-0.5 2368,-19.5 2472,-19.5 2472,-0.5 2368,-0.5"/>
<text text-anchor="middle" x="2420" y="-7.5" font-family="FreeSans" font-size="10.00">quantum&#45;export.c</text>
</a>
</g>
</g>
<!-- Node2&#45;&gt;Node16 -->
<g id="edge15" class="edge">
<title>Node2&#45;&gt;Node16</title>
<path fill="none" stroke="midnightblue" d="M1571.56,-56.48C1573.05,-56.31 1574.54,-56.15 1576,-56 1922.58,-20.78 2012.24,-53.47 2359,-20 2361.88,-19.72 2364.83,-19.4 2367.8,-19.05"/>
<polygon fill="midnightblue" stroke="midnightblue" points="1571.05,-53.02 1561.57,-57.75 1571.94,-59.96 1571.05,-53.02"/>
</g>
<!-- Node17 -->
<g id="node17" class="node">
<title>Node17</title>
<g id="a_node17"><a xlink:href="quantum-import_8c.html" target="_top" xlink:title=" ">
<polygon fill="white" stroke="black" points="2490,-0.5 2490,-19.5 2594,-19.5 2594,-0.5 2490,-0.5"/>
<text text-anchor="middle" x="2542" y="-7.5" font-family="FreeSans" font-size="10.00">quantum&#45;import.c</text>
</a>
</g>
</g>
<!-- Node2&#45;&gt;Node17 -->
<g id="edge16" class="edge">
<title>Node2&#45;&gt;Node17</title>
<path fill="none" stroke="midnightblue" d="M1571.56,-56.47C1573.05,-56.3 1574.54,-56.14 1576,-56 1976.6,-16.54 2080.2,-57.43 2481,-20 2483.88,-19.73 2486.83,-19.42 2489.8,-19.08"/>
<polygon fill="midnightblue" stroke="midnightblue" points="1571.06,-53 1561.57,-57.72 1571.93,-59.95 1571.06,-53"/>
</g>
<!-- Node18 -->
<g id="node18" class="node">
<title>Node18</title>
<g id="a_node18"><a xlink:href="quantum_8c.html" target="_top" xlink:title=" ">
<polygon fill="white" stroke="black" points="2612,-0.5 2612,-19.5 2680,-19.5 2680,-0.5 2612,-0.5"/>
<text text-anchor="middle" x="2646" y="-7.5" font-family="FreeSans" font-size="10.00">quantum.c</text>
</a>
</g>
</g>
<!-- Node2&#45;&gt;Node18 -->
<g id="edge17" class="edge">
<title>Node2&#45;&gt;Node18</title>
<path fill="none" stroke="midnightblue" d="M1571.55,-56.46C1573.05,-56.3 1574.54,-56.14 1576,-56 2030.63,-12.3 2149.6,-74.98 2603,-20 2605.88,-19.65 2608.85,-19.21 2611.82,-18.7"/>
<polygon fill="midnightblue" stroke="midnightblue" points="1571.06,-52.99 1561.57,-57.7 1571.92,-59.94 1571.06,-52.99"/>
</g>
<!-- Node2&#45;&gt;Node19 -->
<g id="edge18" class="edge">
<title>Node2&#45;&gt;Node19</title>
<path fill="none" stroke="midnightblue" d="M1571.55,-56.46C1573.05,-56.29 1574.54,-56.14 1576,-56 2068.72,-9.31 2199.06,-90.05 2689,-20 2691.98,-19.57 2695.07,-18.99 2698.13,-18.33"/>
<polygon fill="midnightblue" stroke="midnightblue" points="1571.06,-52.99 1561.57,-57.69 1571.92,-59.94 1571.06,-52.99"/>
</g>
<!-- Node20 -->
<g id="node20" class="node">
<title>Node20</title>
<g id="a_node20"><a xlink:href="statistic_8c.html" target="_top" xlink:title=" ">
<polygon fill="white" stroke="black" points="1571,-0.5 1571,-19.5 1635,-19.5 1635,-0.5 1571,-0.5"/>
<text text-anchor="middle" x="1603" y="-7.5" font-family="FreeSans" font-size="10.00">statistic.c</text>
</a>
</g>
</g>
<!-- Node2&#45;&gt;Node20 -->
<g id="edge19" class="edge">
<title>Node2&#45;&gt;Node20</title>
<path fill="none" stroke="midnightblue" d="M1540.93,-50.9C1556.34,-41 1576.45,-28.07 1589.54,-19.65"/>
<polygon fill="midnightblue" stroke="midnightblue" points="1539.02,-47.97 1532.5,-56.32 1542.8,-53.86 1539.02,-47.97"/>
</g>
<!-- Node21 -->
<g id="node21" class="node">
<title>Node21</title>
<g id="a_node21"><a xlink:href="stream_8c.html" target="_top" xlink:title=" ">
<polygon fill="white" stroke="black" points="1653.5,-0.5 1653.5,-19.5 1712.5,-19.5 1712.5,-0.5 1653.5,-0.5"/>
<text text-anchor="middle" x="1683" y="-7.5" font-family="FreeSans" font-size="10.00">stream.c</text>
</a>
</g>
</g>
<!-- Node2&#45;&gt;Node21 -->
<g id="edge20" class="edge">
<title>Node2&#45;&gt;Node21</title>
<path fill="none" stroke="midnightblue" d="M1554.52,-53.3C1585.42,-43.13 1629.47,-28.62 1657.14,-19.52"/>
<polygon fill="midnightblue" stroke="midnightblue" points="1553.39,-49.99 1544.99,-56.44 1555.58,-56.64 1553.39,-49.99"/>
</g>
<!-- Node2&#45;&gt;Node22 -->
<g id="edge21" class="edge">
<title>Node2&#45;&gt;Node22</title>
<path fill="none" stroke="midnightblue" d="M1483.74,-53.17C1453.42,-43 1410.43,-28.59 1383.39,-19.52"/>
<polygon fill="midnightblue" stroke="midnightblue" points="1482.9,-56.58 1493.49,-56.44 1485.12,-49.95 1482.9,-56.58"/>
</g>
<!-- Node23 -->
<g id="node23" class="node">
<title>Node23</title>
<g id="a_node23"><a xlink:href="xml-tree_8c.html" target="_top" xlink:title=" ">
<polygon fill="white" stroke="black" points="1485.5,-0.5 1485.5,-19.5 1552.5,-19.5 1552.5,-0.5 1485.5,-0.5"/>
<text text-anchor="middle" x="1519" y="-7.5" font-family="FreeSans" font-size="10.00">xml&#45;tree.c</text>
</a>
</g>
</g>
<!-- Node2&#45;&gt;Node23 -->
<g id="edge22" class="edge">
<title>Node2&#45;&gt;Node23</title>
<path fill="none" stroke="midnightblue" d="M1519,-45.8C1519,-36.91 1519,-26.78 1519,-19.75"/>
<polygon fill="midnightblue" stroke="midnightblue" points="1515.5,-46.08 1519,-56.08 1522.5,-46.08 1515.5,-46.08"/>
</g>
<!-- Node37&#45;&gt;Node4 -->
<g id="edge42" class="edge">
<title>Node37&#45;&gt;Node4</title>
<path fill="none" stroke="midnightblue" d="M1021.68,-53.32C988.78,-42.75 941.3,-27.49 913.25,-18.47"/>
<polygon fill="midnightblue" stroke="midnightblue" points="1020.79,-56.72 1031.38,-56.44 1022.93,-50.05 1020.79,-56.72"/>
</g>
<!-- Node37&#45;&gt;Node5 -->
<g id="edge43" class="edge">
<title>Node37&#45;&gt;Node5</title>
<path fill="none" stroke="midnightblue" d="M1105.19,-54.22C1144.3,-45.23 1201.31,-32 1251,-20 1254.01,-19.27 1257.15,-18.5 1260.28,-17.73"/>
<polygon fill="midnightblue" stroke="midnightblue" points="1104.36,-50.82 1095.4,-56.46 1105.93,-57.64 1104.36,-50.82"/>
</g>
<!-- Node37&#45;&gt;Node14 -->
<g id="edge47" class="edge">
<title>Node37&#45;&gt;Node14</title>
<path fill="none" stroke="midnightblue" d="M1114.53,-58.76C1181.29,-51.08 1295.59,-36.95 1393,-20 1396.09,-19.46 1399.29,-18.86 1402.49,-18.23"/>
<polygon fill="midnightblue" stroke="midnightblue" points="1113.77,-55.33 1104.23,-59.94 1114.57,-62.28 1113.77,-55.33"/>
</g>
<!-- Node37&#45;&gt;Node22 -->
<g id="edge53" class="edge">
<title>Node37&#45;&gt;Node22</title>
<path fill="none" stroke="midnightblue" d="M1114.45,-56.65C1168.07,-48.42 1250.83,-34.94 1322,-20 1325.03,-19.36 1328.18,-18.65 1331.32,-17.91"/>
<polygon fill="midnightblue" stroke="midnightblue" points="1113.82,-53.21 1104.46,-58.18 1114.87,-60.13 1113.82,-53.21"/>
</g>
<!-- Node37&#45;&gt;Node23 -->
<g id="edge55" class="edge">
<title>Node37&#45;&gt;Node23</title>
<path fill="none" stroke="midnightblue" d="M1114.52,-60.81C1195.24,-54.4 1348.06,-40.68 1477,-20 1479.65,-19.57 1482.39,-19.09 1485.13,-18.57"/>
<polygon fill="midnightblue" stroke="midnightblue" points="1113.78,-57.36 1104.09,-61.63 1114.33,-64.33 1113.78,-57.36"/>
</g>
<!-- Node37&#45;&gt;Node25 -->
<g id="edge44" class="edge">
<title>Node37&#45;&gt;Node25</title>
<path fill="none" stroke="midnightblue" d="M1001.49,-61.95C909.73,-56.53 722.82,-43.5 566,-20 563.13,-19.57 560.17,-19.07 557.2,-18.53"/>
<polygon fill="midnightblue" stroke="midnightblue" points="1001.48,-65.46 1011.66,-62.55 1001.88,-58.47 1001.48,-65.46"/>
</g>
<!-- Node37&#45;&gt;Node26 -->
<g id="edge45" class="edge">
<title>Node37&#45;&gt;Node26</title>
<path fill="none" stroke="midnightblue" d="M1001.6,-64.26C887.42,-62.07 620.94,-53.49 400,-20 397.32,-19.59 394.55,-19.09 391.78,-18.54"/>
<polygon fill="midnightblue" stroke="midnightblue" points="1001.78,-67.76 1011.85,-64.44 1001.91,-60.76 1001.78,-67.76"/>
</g>
<!-- Node37&#45;&gt;Node29 -->
<g id="edge46" class="edge">
<title>Node37&#45;&gt;Node29</title>
<path fill="none" stroke="midnightblue" d="M1001.71,-61.06C930.41,-55.36 804.07,-42.9 698,-20 695.11,-19.38 692.1,-18.6 689.16,-17.76"/>
<polygon fill="midnightblue" stroke="midnightblue" points="1001.57,-64.56 1011.82,-61.85 1002.12,-57.58 1001.57,-64.56"/>
</g>
<!-- Node37&#45;&gt;Node31 -->
<g id="edge48" class="edge">
<title>Node37&#45;&gt;Node31</title>
<path fill="none" stroke="midnightblue" d="M1001.58,-56.98C944.9,-48.68 855.14,-34.86 778,-20 775.2,-19.46 772.31,-18.87 769.4,-18.26"/>
<polygon fill="midnightblue" stroke="midnightblue" points="1001.37,-60.49 1011.77,-58.47 1002.38,-53.56 1001.37,-60.49"/>
</g>
<!-- Node37&#45;&gt;Node32 -->
<g id="edge49" class="edge">
<title>Node37&#45;&gt;Node32</title>
<path fill="none" stroke="midnightblue" d="M1058,-45.8C1058,-36.91 1058,-26.78 1058,-19.75"/>
<polygon fill="midnightblue" stroke="midnightblue" points="1054.5,-46.08 1058,-56.08 1061.5,-46.08 1054.5,-46.08"/>
</g>
<!-- Node37&#45;&gt;Node34 -->
<g id="edge51" class="edge">
<title>Node37&#45;&gt;Node34</title>
<path fill="none" stroke="midnightblue" d="M1079.3,-50.62C1093.92,-40.76 1112.83,-27.99 1125.18,-19.65"/>
<polygon fill="midnightblue" stroke="midnightblue" points="1077.18,-47.83 1070.85,-56.32 1081.1,-53.63 1077.18,-47.83"/>
</g>
<!-- Node38 -->
<g id="node38" class="node">
<title>Node38</title>
<g id="a_node38"><a xlink:href="random_8c.html" target="_top" xlink:title=" ">
<polygon fill="white" stroke="black" points="787,-0.5 787,-19.5 849,-19.5 849,-0.5 787,-0.5"/>
<text text-anchor="middle" x="818" y="-7.5" font-family="FreeSans" font-size="10.00">random.c</text>
</a>
</g>
</g>
<!-- Node37&#45;&gt;Node38 -->
<g id="edge50" class="edge">
<title>Node37&#45;&gt;Node38</title>
<path fill="none" stroke="midnightblue" d="M1010.16,-54.24C962.37,-43.48 890.29,-27.27 849.35,-18.05"/>
<polygon fill="midnightblue" stroke="midnightblue" points="1009.45,-57.66 1019.97,-56.44 1010.98,-50.83 1009.45,-57.66"/>
</g>
<!-- Node39 -->
<g id="node39" class="node">
<title>Node39</title>
<g id="a_node39"><a xlink:href="semaphore_8c.html" target="_top" xlink:title=" ">
<polygon fill="white" stroke="black" points="931,-0.5 931,-19.5 1011,-19.5 1011,-0.5 931,-0.5"/>
<text text-anchor="middle" x="971" y="-7.5" font-family="FreeSans" font-size="10.00">semaphore.c</text>
</a>
</g>
</g>
<!-- Node37&#45;&gt;Node39 -->
<g id="edge52" class="edge">
<title>Node37&#45;&gt;Node39</title>
<path fill="none" stroke="midnightblue" d="M1035.28,-50.9C1019.33,-41 998.5,-28.07 984.94,-19.65"/>
<polygon fill="midnightblue" stroke="midnightblue" points="1033.68,-54.02 1044.02,-56.32 1037.37,-48.08 1033.68,-54.02"/>
</g>
<!-- Node37&#45;&gt;Node40 -->
<g id="edge54" class="edge">
<title>Node37&#45;&gt;Node40</title>
<path fill="none" stroke="midnightblue" d="M1092.61,-53.17C1122.36,-43 1164.55,-28.59 1191.08,-19.52"/>
<polygon fill="midnightblue" stroke="midnightblue" points="1091.37,-49.9 1083.04,-56.44 1093.63,-56.52 1091.37,-49.9"/>
</g>
<!-- Node41&#45;&gt;Node10 -->
<g id="edge61" class="edge">
<title>Node41&#45;&gt;Node10</title>
<path fill="none" stroke="midnightblue" d="M382.26,-54.75C431.93,-46.19 503.68,-33.29 566,-20 568.84,-19.39 571.8,-18.73 574.76,-18.05"/>
<polygon fill="midnightblue" stroke="midnightblue" points="381.58,-51.31 372.32,-56.45 382.76,-58.21 381.58,-51.31"/>
</g>
<!-- Node41&#45;&gt;Node12 -->
<g id="edge62" class="edge">
<title>Node41&#45;&gt;Node12</title>
<path fill="none" stroke="midnightblue" d="M349.14,-52.23C371.4,-42.13 401.86,-28.31 421.23,-19.52"/>
<polygon fill="midnightblue" stroke="midnightblue" points="347.52,-49.12 339.86,-56.44 350.41,-55.5 347.52,-49.12"/>
</g>
<!-- Node41&#45;&gt;Node26 -->
<g id="edge60" class="edge">
<title>Node41&#45;&gt;Node26</title>
<path fill="none" stroke="midnightblue" d="M334.02,-47.86C341.12,-38.5 349.6,-27.33 355.36,-19.75"/>
<polygon fill="midnightblue" stroke="midnightblue" points="331.03,-46 327.77,-56.08 336.61,-50.24 331.03,-46"/>
</g>
<!-- Node42 -->
<g id="node42" class="node">
<title>Node42</title>
<g id="a_node42"><a xlink:href="animate_8c.html" target="_top" xlink:title=" ">
<polygon fill="white" stroke="black" points="162.5,-0.5 162.5,-19.5 227.5,-19.5 227.5,-0.5 162.5,-0.5"/>
<text text-anchor="middle" x="195" y="-7.5" font-family="FreeSans" font-size="10.00">animate.c</text>
</a>
</g>
</g>
<!-- Node41&#45;&gt;Node42 -->
<g id="edge58" class="edge">
<title>Node41&#45;&gt;Node42</title>
<path fill="none" stroke="midnightblue" d="M291.84,-52.5C268.22,-42.38 235.57,-28.39 214.87,-19.52"/>
<polygon fill="midnightblue" stroke="midnightblue" points="290.46,-55.72 301.03,-56.44 293.22,-49.29 290.46,-55.72"/>
</g>
<!-- Node43 -->
<g id="node43" class="node">
<title>Node43</title>
<g id="a_node43"><a xlink:href="annotate_8c.html" target="_top" xlink:title=" ">
<polygon fill="white" stroke="black" points="246,-0.5 246,-19.5 314,-19.5 314,-0.5 246,-0.5"/>
<text text-anchor="middle" x="280" y="-7.5" font-family="FreeSans" font-size="10.00">annotate.c</text>
</a>
</g>
</g>
<!-- Node41&#45;&gt;Node43 -->
<g id="edge59" class="edge">
<title>Node41&#45;&gt;Node43</title>
<path fill="none" stroke="midnightblue" d="M307.98,-47.86C300.88,-38.5 292.4,-27.33 286.64,-19.75"/>
<polygon fill="midnightblue" stroke="midnightblue" points="305.39,-50.24 314.23,-56.08 310.97,-46 305.39,-50.24"/>
</g>
<!-- Node44 -->
<g id="node44" class="node">
<title>Node44</title>
<g id="a_node44"><a xlink:href="widget_8c.html" target="_top" xlink:title=" ">
<polygon fill="white" stroke="black" points="86,-0.5 86,-19.5 144,-19.5 144,-0.5 86,-0.5"/>
<text text-anchor="middle" x="115" y="-7.5" font-family="FreeSans" font-size="10.00">widget.c</text>
</a>
</g>
</g>
<!-- Node41&#45;&gt;Node44 -->
<g id="edge63" class="edge">
<title>Node41&#45;&gt;Node44</title>
<path fill="none" stroke="midnightblue" d="M278.59,-53.88C238.44,-43.36 179.25,-27.84 144.16,-18.64"/>
<polygon fill="midnightblue" stroke="midnightblue" points="277.8,-57.29 288.36,-56.44 279.57,-50.52 277.8,-57.29"/>
</g>
<!-- Node41&#45;&gt;Node45 -->
<g id="edge64" class="edge">
<title>Node41&#45;&gt;Node45</title>
<path fill="none" stroke="midnightblue" d="M262.9,-54.69C213.42,-45.81 140.46,-32.49 77,-20 74.16,-19.44 71.21,-18.85 68.25,-18.25"/>
<polygon fill="midnightblue" stroke="midnightblue" points="262.33,-58.14 272.79,-56.46 263.56,-51.25 262.33,-58.14"/>
</g>
</g>
</svg>
