<?xml version="1.0" encoding="UTF-8" standalone="no"?>
<!DOCTYPE svg PUBLIC "-//W3C//DTD SVG 1.1//EN"
 "http://www.w3.org/Graphics/SVG/1.1/DTD/svg11.dtd">
<!-- Generated by graphviz version 2.43.0 (0)
 -->
<!-- Title: opencl&#45;private.h Pages: 1 -->
<svg width="1567pt" height="252pt"
 viewBox="0.00 0.00 1566.55 252.00" xmlns="http://www.w3.org/2000/svg" xmlns:xlink="http://www.w3.org/1999/xlink">
<g id="graph0" class="graph" transform="scale(1 1) rotate(0) translate(4 248)">
<title>opencl&#45;private.h</title>
<polygon fill="white" stroke="transparent" points="-4,4 -4,-248 1562.55,-248 1562.55,4 -4,4"/>
<!-- Node1 -->
<g id="node1" class="node">
<title>Node1</title>
<g id="a_node1"><a xlink:title=" ">
<polygon fill="#bfbfbf" stroke="black" points="641.55,-224.5 641.55,-243.5 737.55,-243.5 737.55,-224.5 641.55,-224.5"/>
<text text-anchor="middle" x="689.55" y="-231.5" font-family="FreeSans" font-size="10.00">opencl&#45;private.h</text>
</a>
</g>
</g>
<!-- Node2 -->
<g id="node2" class="node">
<title>Node2</title>
<g id="a_node2"><a xlink:href="studio_8h.html" target="_top" xlink:title=" ">
<polygon fill="white" stroke="black" points="585.05,-168.5 585.05,-187.5 680.05,-187.5 680.05,-168.5 585.05,-168.5"/>
<text text-anchor="middle" x="632.55" y="-175.5" font-family="FreeSans" font-size="10.00">magick/studio.h</text>
</a>
</g>
</g>
<!-- Node1&#45;&gt;Node2 -->
<g id="edge1" class="edge">
<title>Node1&#45;&gt;Node2</title>
<path fill="none" stroke="midnightblue" d="M680.4,-224.32C672.05,-216.42 659.52,-204.55 649.38,-194.94"/>
<polygon fill="midnightblue" stroke="midnightblue" points="651.54,-192.17 641.88,-187.83 646.73,-197.25 651.54,-192.17"/>
</g>
<!-- Node24 -->
<g id="node24" class="node">
<title>Node24</title>
<g id="a_node24"><a xlink:href="opencl_8h.html" target="_top" xlink:title=" ">
<polygon fill="white" stroke="black" points="698.05,-168.5 698.05,-187.5 795.05,-187.5 795.05,-168.5 698.05,-168.5"/>
<text text-anchor="middle" x="746.55" y="-175.5" font-family="FreeSans" font-size="10.00">magick/opencl.h</text>
</a>
</g>
</g>
<!-- Node1&#45;&gt;Node24 -->
<g id="edge24" class="edge">
<title>Node1&#45;&gt;Node24</title>
<path fill="none" stroke="midnightblue" d="M698.71,-224.32C707.05,-216.42 719.59,-204.55 729.73,-194.94"/>
<polygon fill="midnightblue" stroke="midnightblue" points="732.38,-197.25 737.23,-187.83 727.56,-192.17 732.38,-197.25"/>
</g>
<!-- Node3 -->
<g id="node3" class="node">
<title>Node3</title>
<g id="a_node3"><a xlink:href="magick-config_8h.html" target="_top" xlink:title=" ">
<polygon fill="white" stroke="black" points="630.55,-56.5 630.55,-75.5 764.55,-75.5 764.55,-56.5 630.55,-56.5"/>
<text text-anchor="middle" x="697.55" y="-63.5" font-family="FreeSans" font-size="10.00">magick/magick&#45;config.h</text>
</a>
</g>
</g>
<!-- Node2&#45;&gt;Node3 -->
<g id="edge2" class="edge">
<title>Node2&#45;&gt;Node3</title>
<path fill="none" stroke="midnightblue" d="M584.8,-177.23C444.99,-177.41 43.84,-174.2 4.55,-132 -1.5,-125.49 -1.53,-118.49 4.55,-112 45.91,-67.87 448.17,-65.27 620.18,-66.21"/>
<polygon fill="midnightblue" stroke="midnightblue" points="620.4,-69.71 630.43,-66.27 620.45,-62.71 620.4,-69.71"/>
</g>
<!-- Node5 -->
<g id="node5" class="node">
<title>Node5</title>
<g id="a_node5"><a xlink:title=" ">
<polygon fill="white" stroke="#bfbfbf" points="13.55,-112.5 13.55,-131.5 69.55,-131.5 69.55,-112.5 13.55,-112.5"/>
<text text-anchor="middle" x="41.55" y="-119.5" font-family="FreeSans" font-size="10.00">stdarg.h</text>
</a>
</g>
</g>
<!-- Node2&#45;&gt;Node5 -->
<g id="edge4" class="edge">
<title>Node2&#45;&gt;Node5</title>
<path fill="none" stroke="midnightblue" d="M584.82,-175.65C490.17,-172.44 271.95,-162.3 79.74,-131.94"/>
<polygon fill="midnightblue" stroke="midnightblue" points="80.17,-128.47 69.74,-130.34 79.06,-135.38 80.17,-128.47"/>
</g>
<!-- Node6 -->
<g id="node6" class="node">
<title>Node6</title>
<g id="a_node6"><a xlink:title=" ">
<polygon fill="white" stroke="#bfbfbf" points="87.55,-112.5 87.55,-131.5 137.55,-131.5 137.55,-112.5 87.55,-112.5"/>
<text text-anchor="middle" x="112.55" y="-119.5" font-family="FreeSans" font-size="10.00">stdio.h</text>
</a>
</g>
</g>
<!-- Node2&#45;&gt;Node6 -->
<g id="edge5" class="edge">
<title>Node2&#45;&gt;Node6</title>
<path fill="none" stroke="midnightblue" d="M584.95,-175.22C499.22,-171.45 313.16,-160.66 147.57,-131.9"/>
<polygon fill="midnightblue" stroke="midnightblue" points="148.16,-128.45 137.7,-130.16 146.94,-135.34 148.16,-128.45"/>
</g>
<!-- Node7 -->
<g id="node7" class="node">
<title>Node7</title>
<g id="a_node7"><a xlink:title=" ">
<polygon fill="white" stroke="#bfbfbf" points="156.05,-112.5 156.05,-131.5 209.05,-131.5 209.05,-112.5 156.05,-112.5"/>
<text text-anchor="middle" x="182.55" y="-119.5" font-family="FreeSans" font-size="10.00">ctype.h</text>
</a>
</g>
</g>
<!-- Node2&#45;&gt;Node7 -->
<g id="edge6" class="edge">
<title>Node2&#45;&gt;Node7</title>
<path fill="none" stroke="midnightblue" d="M584.93,-174.07C509.26,-168.93 356.82,-156.58 219.11,-132.06"/>
<polygon fill="midnightblue" stroke="midnightblue" points="219.68,-128.61 209.22,-130.28 218.44,-135.5 219.68,-128.61"/>
</g>
<!-- Node8 -->
<g id="node8" class="node">
<title>Node8</title>
<g id="a_node8"><a xlink:title=" ">
<polygon fill="white" stroke="#bfbfbf" points="227.05,-112.5 227.05,-131.5 282.05,-131.5 282.05,-112.5 227.05,-112.5"/>
<text text-anchor="middle" x="254.55" y="-119.5" font-family="FreeSans" font-size="10.00">locale.h</text>
</a>
</g>
</g>
<!-- Node2&#45;&gt;Node8 -->
<g id="edge7" class="edge">
<title>Node2&#45;&gt;Node8</title>
<path fill="none" stroke="midnightblue" d="M584.98,-172.47C520.61,-165.97 402.04,-152.64 292.3,-132.17"/>
<polygon fill="midnightblue" stroke="midnightblue" points="292.87,-128.71 282.39,-130.29 291.57,-135.59 292.87,-128.71"/>
</g>
<!-- Node9 -->
<g id="node9" class="node">
<title>Node9</title>
<g id="a_node9"><a xlink:title=" ">
<polygon fill="white" stroke="#bfbfbf" points="300.05,-112.5 300.05,-131.5 351.05,-131.5 351.05,-112.5 300.05,-112.5"/>
<text text-anchor="middle" x="325.55" y="-119.5" font-family="FreeSans" font-size="10.00">errno.h</text>
</a>
</g>
</g>
<!-- Node2&#45;&gt;Node9 -->
<g id="edge8" class="edge">
<title>Node2&#45;&gt;Node9</title>
<path fill="none" stroke="midnightblue" d="M584.95,-170.56C532.35,-163.13 444.97,-149.87 361.06,-132.17"/>
<polygon fill="midnightblue" stroke="midnightblue" points="361.62,-128.71 351.11,-130.04 360.16,-135.55 361.62,-128.71"/>
</g>
<!-- Node10 -->
<g id="node10" class="node">
<title>Node10</title>
<g id="a_node10"><a xlink:title=" ">
<polygon fill="white" stroke="#bfbfbf" points="369.05,-112.5 369.05,-131.5 416.05,-131.5 416.05,-112.5 369.05,-112.5"/>
<text text-anchor="middle" x="392.55" y="-119.5" font-family="FreeSans" font-size="10.00">fcntl.h</text>
</a>
</g>
</g>
<!-- Node2&#45;&gt;Node10 -->
<g id="edge9" class="edge">
<title>Node2&#45;&gt;Node10</title>
<path fill="none" stroke="midnightblue" d="M589.35,-168.46C549.3,-160.36 487.84,-147.47 426.17,-132.3"/>
<polygon fill="midnightblue" stroke="midnightblue" points="426.82,-128.86 416.28,-129.85 425.14,-135.65 426.82,-128.86"/>
</g>
<!-- Node11 -->
<g id="node11" class="node">
<title>Node11</title>
<g id="a_node11"><a xlink:title=" ">
<polygon fill="white" stroke="#bfbfbf" points="434.05,-112.5 434.05,-131.5 485.05,-131.5 485.05,-112.5 434.05,-112.5"/>
<text text-anchor="middle" x="459.55" y="-119.5" font-family="FreeSans" font-size="10.00">math.h</text>
</a>
</g>
</g>
<!-- Node2&#45;&gt;Node11 -->
<g id="edge10" class="edge">
<title>Node2&#45;&gt;Node11</title>
<path fill="none" stroke="midnightblue" d="M605.14,-168.44C575.27,-159.12 527.38,-144.17 494.75,-133.99"/>
<polygon fill="midnightblue" stroke="midnightblue" points="495.73,-130.63 485.15,-130.99 493.65,-137.31 495.73,-130.63"/>
</g>
<!-- Node12 -->
<g id="node12" class="node">
<title>Node12</title>
<g id="a_node12"><a xlink:title=" ">
<polygon fill="white" stroke="#bfbfbf" points="503.55,-112.5 503.55,-131.5 551.55,-131.5 551.55,-112.5 503.55,-112.5"/>
<text text-anchor="middle" x="527.55" y="-119.5" font-family="FreeSans" font-size="10.00">time.h</text>
</a>
</g>
</g>
<!-- Node2&#45;&gt;Node12 -->
<g id="edge11" class="edge">
<title>Node2&#45;&gt;Node12</title>
<path fill="none" stroke="midnightblue" d="M615.68,-168.32C598.84,-159.66 572.75,-146.24 553.32,-136.25"/>
<polygon fill="midnightblue" stroke="midnightblue" points="554.88,-133.12 544.38,-131.65 551.67,-139.34 554.88,-133.12"/>
</g>
<!-- Node13 -->
<g id="node13" class="node">
<title>Node13</title>
<g id="a_node13"><a xlink:title=" ">
<polygon fill="white" stroke="#bfbfbf" points="570.05,-112.5 570.05,-131.5 623.05,-131.5 623.05,-112.5 570.05,-112.5"/>
<text text-anchor="middle" x="596.55" y="-119.5" font-family="FreeSans" font-size="10.00">limits.h</text>
</a>
</g>
</g>
<!-- Node2&#45;&gt;Node13 -->
<g id="edge12" class="edge">
<title>Node2&#45;&gt;Node13</title>
<path fill="none" stroke="midnightblue" d="M626.61,-168.08C621.58,-160.53 614.22,-149.49 608.04,-140.23"/>
<polygon fill="midnightblue" stroke="midnightblue" points="610.85,-138.13 602.39,-131.75 605.02,-142.01 610.85,-138.13"/>
</g>
<!-- Node14 -->
<g id="node14" class="node">
<title>Node14</title>
<g id="a_node14"><a xlink:title=" ">
<polygon fill="white" stroke="#bfbfbf" points="641.05,-112.5 641.05,-131.5 696.05,-131.5 696.05,-112.5 641.05,-112.5"/>
<text text-anchor="middle" x="668.55" y="-119.5" font-family="FreeSans" font-size="10.00">signal.h</text>
</a>
</g>
</g>
<!-- Node2&#45;&gt;Node14 -->
<g id="edge13" class="edge">
<title>Node2&#45;&gt;Node14</title>
<path fill="none" stroke="midnightblue" d="M638.5,-168.08C643.53,-160.53 650.89,-149.49 657.07,-140.23"/>
<polygon fill="midnightblue" stroke="midnightblue" points="660.08,-142.01 662.72,-131.75 654.26,-138.13 660.08,-142.01"/>
</g>
<!-- Node15 -->
<g id="node15" class="node">
<title>Node15</title>
<g id="a_node15"><a xlink:title=" ">
<polygon fill="white" stroke="#bfbfbf" points="714.55,-112.5 714.55,-131.5 770.55,-131.5 770.55,-112.5 714.55,-112.5"/>
<text text-anchor="middle" x="742.55" y="-119.5" font-family="FreeSans" font-size="10.00">assert.h</text>
</a>
</g>
</g>
<!-- Node2&#45;&gt;Node15 -->
<g id="edge14" class="edge">
<title>Node2&#45;&gt;Node15</title>
<path fill="none" stroke="midnightblue" d="M650.23,-168.32C667.95,-159.62 695.46,-146.12 715.84,-136.11"/>
<polygon fill="midnightblue" stroke="midnightblue" points="717.49,-139.2 724.92,-131.65 714.4,-132.92 717.49,-139.2"/>
</g>
<!-- Node16 -->
<g id="node16" class="node">
<title>Node16</title>
<g id="a_node16"><a xlink:href="method-attribute_8h.html" target="_top" xlink:title=" ">
<polygon fill="white" stroke="black" points="788.55,-112.5 788.55,-131.5 936.55,-131.5 936.55,-112.5 788.55,-112.5"/>
<text text-anchor="middle" x="862.55" y="-119.5" font-family="FreeSans" font-size="10.00">magick/method&#45;attribute.h</text>
</a>
</g>
</g>
<!-- Node2&#45;&gt;Node16 -->
<g id="edge15" class="edge">
<title>Node2&#45;&gt;Node16</title>
<path fill="none" stroke="midnightblue" d="M669,-168.44C708.95,-159.06 773.14,-143.99 816.54,-133.8"/>
<polygon fill="midnightblue" stroke="midnightblue" points="817.34,-137.21 826.28,-131.52 815.74,-130.39 817.34,-137.21"/>
</g>
<!-- Node17 -->
<g id="node17" class="node">
<title>Node17</title>
<g id="a_node17"><a xlink:title=" ">
<polygon fill="white" stroke="#bfbfbf" points="954.55,-112.5 954.55,-131.5 1026.55,-131.5 1026.55,-112.5 954.55,-112.5"/>
<text text-anchor="middle" x="990.55" y="-119.5" font-family="FreeSans" font-size="10.00">sys/types.h</text>
</a>
</g>
</g>
<!-- Node2&#45;&gt;Node17 -->
<g id="edge16" class="edge">
<title>Node2&#45;&gt;Node17</title>
<path fill="none" stroke="midnightblue" d="M680.13,-169.43C683.32,-168.94 686.48,-168.46 689.55,-168 799.97,-151.52 830.57,-151.28 944.1,-132.17"/>
<polygon fill="midnightblue" stroke="midnightblue" points="944.96,-135.57 954.24,-130.45 943.79,-128.67 944.96,-135.57"/>
</g>
<!-- Node18 -->
<g id="node18" class="node">
<title>Node18</title>
<g id="a_node18"><a xlink:title=" ">
<polygon fill="white" stroke="#bfbfbf" points="1044.55,-112.5 1044.55,-131.5 1108.55,-131.5 1108.55,-112.5 1044.55,-112.5"/>
<text text-anchor="middle" x="1076.55" y="-119.5" font-family="FreeSans" font-size="10.00">sys/stat.h</text>
</a>
</g>
</g>
<!-- Node2&#45;&gt;Node18 -->
<g id="edge17" class="edge">
<title>Node2&#45;&gt;Node18</title>
<path fill="none" stroke="midnightblue" d="M680.11,-169.3C683.3,-168.84 686.47,-168.4 689.55,-168 839.56,-148.37 881.14,-156.25 1034.15,-132.06"/>
<polygon fill="midnightblue" stroke="midnightblue" points="1035.07,-135.46 1044.39,-130.42 1033.96,-128.54 1035.07,-135.46"/>
</g>
<!-- Node19 -->
<g id="node19" class="node">
<title>Node19</title>
<g id="a_node19"><a xlink:title=" ">
<polygon fill="white" stroke="#bfbfbf" points="1126.55,-112.5 1126.55,-131.5 1180.55,-131.5 1180.55,-112.5 1126.55,-112.5"/>
<text text-anchor="middle" x="1153.55" y="-119.5" font-family="FreeSans" font-size="10.00">dirent.h</text>
</a>
</g>
</g>
<!-- Node2&#45;&gt;Node19 -->
<g id="edge18" class="edge">
<title>Node2&#45;&gt;Node19</title>
<path fill="none" stroke="midnightblue" d="M680.1,-169.23C683.3,-168.79 686.47,-168.37 689.55,-168 875.83,-145.49 927.48,-162.64 1116.54,-131.9"/>
<polygon fill="midnightblue" stroke="midnightblue" points="1117.23,-135.33 1126.52,-130.25 1116.09,-128.43 1117.23,-135.33"/>
</g>
<!-- Node20 -->
<g id="node20" class="node">
<title>Node20</title>
<g id="a_node20"><a xlink:title=" ">
<polygon fill="white" stroke="#bfbfbf" points="1198.55,-112.5 1198.55,-131.5 1264.55,-131.5 1264.55,-112.5 1198.55,-112.5"/>
<text text-anchor="middle" x="1231.55" y="-119.5" font-family="FreeSans" font-size="10.00">sys/wait.h</text>
</a>
</g>
</g>
<!-- Node2&#45;&gt;Node20 -->
<g id="edge19" class="edge">
<title>Node2&#45;&gt;Node20</title>
<path fill="none" stroke="midnightblue" d="M680.1,-169.18C683.29,-168.75 686.47,-168.35 689.55,-168 907.66,-142.98 967.25,-162.82 1188.2,-132"/>
<polygon fill="midnightblue" stroke="midnightblue" points="1188.75,-135.46 1198.16,-130.59 1187.77,-128.53 1188.75,-135.46"/>
</g>
<!-- Node21 -->
<g id="node21" class="node">
<title>Node21</title>
<g id="a_node21"><a xlink:title=" ">
<polygon fill="white" stroke="#bfbfbf" points="1282.55,-112.5 1282.55,-131.5 1328.55,-131.5 1328.55,-112.5 1282.55,-112.5"/>
<text text-anchor="middle" x="1305.55" y="-119.5" font-family="FreeSans" font-size="10.00">pwd.h</text>
</a>
</g>
</g>
<!-- Node2&#45;&gt;Node21 -->
<g id="edge20" class="edge">
<title>Node2&#45;&gt;Node21</title>
<path fill="none" stroke="midnightblue" d="M680.09,-169.15C683.29,-168.73 686.47,-168.34 689.55,-168 944.77,-140.05 1015.38,-174.55 1272.26,-131.85"/>
<polygon fill="midnightblue" stroke="midnightblue" points="1272.99,-135.28 1282.27,-130.17 1271.82,-128.38 1272.99,-135.28"/>
</g>
<!-- Node22 -->
<g id="node22" class="node">
<title>Node22</title>
<g id="a_node22"><a xlink:href="magick-type_8h.html" target="_top" xlink:title=" ">
<polygon fill="white" stroke="black" points="1346.55,-112.5 1346.55,-131.5 1472.55,-131.5 1472.55,-112.5 1346.55,-112.5"/>
<text text-anchor="middle" x="1409.55" y="-119.5" font-family="FreeSans" font-size="10.00">magick/magick&#45;type.h</text>
</a>
</g>
</g>
<!-- Node2&#45;&gt;Node22 -->
<g id="edge21" class="edge">
<title>Node2&#45;&gt;Node22</title>
<path fill="none" stroke="midnightblue" d="M680.09,-169.13C683.29,-168.71 686.47,-168.33 689.55,-168 973.02,-137.83 1048.51,-157.43 1336.05,-132.07"/>
<polygon fill="midnightblue" stroke="midnightblue" points="1336.71,-135.52 1346.36,-131.15 1336.09,-128.55 1336.71,-135.52"/>
</g>
<!-- Node23 -->
<g id="node23" class="node">
<title>Node23</title>
<g id="a_node23"><a xlink:title=" ">
<polygon fill="white" stroke="#bfbfbf" points="1490.55,-112.5 1490.55,-131.5 1558.55,-131.5 1558.55,-112.5 1490.55,-112.5"/>
<text text-anchor="middle" x="1524.55" y="-119.5" font-family="FreeSans" font-size="10.00">sys/time.h</text>
</a>
</g>
</g>
<!-- Node2&#45;&gt;Node23 -->
<g id="edge23" class="edge">
<title>Node2&#45;&gt;Node23</title>
<path fill="none" stroke="midnightblue" d="M680.09,-169.09C683.29,-168.68 686.46,-168.31 689.55,-168 1036.78,-132.81 1130.2,-175.41 1480.2,-131.95"/>
<polygon fill="midnightblue" stroke="midnightblue" points="1480.88,-135.39 1490.37,-130.67 1480.01,-128.45 1480.88,-135.39"/>
</g>
<!-- Node4 -->
<g id="node4" class="node">
<title>Node4</title>
<g id="a_node4"><a xlink:href="magick-baseconfig_8h.html" target="_top" xlink:title=" ">
<polygon fill="white" stroke="black" points="619.05,-0.5 619.05,-19.5 776.05,-19.5 776.05,-0.5 619.05,-0.5"/>
<text text-anchor="middle" x="697.55" y="-7.5" font-family="FreeSans" font-size="10.00">magick/magick&#45;baseconfig.h</text>
</a>
</g>
</g>
<!-- Node3&#45;&gt;Node4 -->
<g id="edge3" class="edge">
<title>Node3&#45;&gt;Node4</title>
<path fill="none" stroke="midnightblue" d="M697.55,-56.08C697.55,-49.01 697.55,-38.86 697.55,-29.99"/>
<polygon fill="midnightblue" stroke="midnightblue" points="701.05,-29.75 697.55,-19.75 694.05,-29.75 701.05,-29.75"/>
</g>
<!-- Node22&#45;&gt;Node3 -->
<g id="edge22" class="edge">
<title>Node22&#45;&gt;Node3</title>
<path fill="none" stroke="midnightblue" d="M1346.36,-112.9C1343.38,-112.58 1340.44,-112.28 1337.55,-112 1135.04,-92.24 895.66,-77.77 775.15,-71.1"/>
<polygon fill="midnightblue" stroke="midnightblue" points="775.1,-67.59 764.92,-70.53 774.71,-74.58 775.1,-67.59"/>
</g>
</g>
</svg>
