<?xml version="1.0" encoding="UTF-8" standalone="no"?>
<!DOCTYPE svg PUBLIC "-//W3C//DTD SVG 1.1//EN"
 "http://www.w3.org/Graphics/SVG/1.1/DTD/svg11.dtd">
<!-- Generated by graphviz version 2.43.0 (0)
 -->
<!-- Title: opencl.h Pages: 1 -->
<svg width="1500pt" height="196pt"
 viewBox="0.00 0.00 1499.50 196.00" xmlns="http://www.w3.org/2000/svg" xmlns:xlink="http://www.w3.org/1999/xlink">
<g id="graph0" class="graph" transform="scale(1 1) rotate(0) translate(4 192)">
<title>opencl.h</title>
<polygon fill="white" stroke="transparent" points="-4,4 -4,-192 1495.5,-192 1495.5,4 -4,4"/>
<!-- Node1 -->
<g id="node1" class="node">
<title>Node1</title>
<g id="a_node1"><a xlink:title=" ">
<polygon fill="#bfbfbf" stroke="black" points="628,-168.5 628,-187.5 686,-187.5 686,-168.5 628,-168.5"/>
<text text-anchor="middle" x="657" y="-175.5" font-family="FreeSans" font-size="10.00">opencl.h</text>
</a>
</g>
</g>
<!-- Node2 -->
<g id="node2" class="node">
<title>Node2</title>
<g id="a_node2"><a xlink:href="MagickCore_8h.html" target="_top" xlink:title=" ">
<polygon fill="white" stroke="black" points="445.5,-112.5 445.5,-131.5 528.5,-131.5 528.5,-112.5 445.5,-112.5"/>
<text text-anchor="middle" x="487" y="-119.5" font-family="FreeSans" font-size="10.00">MagickCore.h</text>
</a>
</g>
</g>
<!-- Node1&#45;&gt;Node2 -->
<g id="edge1" class="edge">
<title>Node1&#45;&gt;Node2</title>
<path fill="none" stroke="midnightblue" d="M620.18,-165.3C588.15,-155.13 542.48,-140.62 513.81,-131.52"/>
<polygon fill="midnightblue" stroke="midnightblue" points="619.47,-168.75 630.06,-168.44 621.59,-162.08 619.47,-168.75"/>
</g>
<!-- Node6 -->
<g id="node6" class="node">
<title>Node6</title>
<g id="a_node6"><a xlink:href="accelerate_8c.html" target="_top" xlink:title=" ">
<polygon fill="white" stroke="black" points="0,-0.5 0,-19.5 76,-19.5 76,-0.5 0,-0.5"/>
<text text-anchor="middle" x="38" y="-7.5" font-family="FreeSans" font-size="10.00">accelerate.c</text>
</a>
</g>
</g>
<!-- Node1&#45;&gt;Node6 -->
<g id="edge5" class="edge">
<title>Node1&#45;&gt;Node6</title>
<path fill="none" stroke="midnightblue" d="M650.71,-158.65C640.13,-130.96 615.93,-79.24 576,-56 481.44,-0.97 193.46,-34.31 85,-20 82.12,-19.62 79.14,-19.18 76.16,-18.69"/>
<polygon fill="midnightblue" stroke="midnightblue" points="647.5,-160.09 654.2,-168.29 654.08,-157.7 647.5,-160.09"/>
</g>
<!-- Node7 -->
<g id="node7" class="node">
<title>Node7</title>
<g id="a_node7"><a xlink:href="enhance_8c.html" target="_top" xlink:title=" ">
<polygon fill="white" stroke="black" points="624,-56.5 624,-75.5 690,-75.5 690,-56.5 624,-56.5"/>
<text text-anchor="middle" x="657" y="-63.5" font-family="FreeSans" font-size="10.00">enhance.c</text>
</a>
</g>
</g>
<!-- Node1&#45;&gt;Node7 -->
<g id="edge6" class="edge">
<title>Node1&#45;&gt;Node7</title>
<path fill="none" stroke="midnightblue" d="M657,-158.35C657,-134.25 657,-93.31 657,-75.59"/>
<polygon fill="midnightblue" stroke="midnightblue" points="653.5,-158.37 657,-168.37 660.5,-158.37 653.5,-158.37"/>
</g>
<!-- Node8 -->
<g id="node8" class="node">
<title>Node8</title>
<g id="a_node8"><a xlink:href="opencl-private_8h.html" target="_top" xlink:title=" ">
<polygon fill="white" stroke="black" points="845,-112.5 845,-131.5 941,-131.5 941,-112.5 845,-112.5"/>
<text text-anchor="middle" x="893" y="-119.5" font-family="FreeSans" font-size="10.00">opencl&#45;private.h</text>
</a>
</g>
</g>
<!-- Node1&#45;&gt;Node8 -->
<g id="edge7" class="edge">
<title>Node1&#45;&gt;Node8</title>
<path fill="none" stroke="midnightblue" d="M696.26,-168.02C740.63,-157.86 812.33,-141.46 855.82,-131.51"/>
<polygon fill="midnightblue" stroke="midnightblue" points="695.38,-164.63 686.41,-170.27 696.94,-171.45 695.38,-164.63"/>
</g>
<!-- Node20 -->
<g id="node20" class="node">
<title>Node20</title>
<g id="a_node20"><a xlink:href="opencl_8c.html" target="_top" xlink:title=" ">
<polygon fill="white" stroke="black" points="1434.5,-0.5 1434.5,-19.5 1491.5,-19.5 1491.5,-0.5 1434.5,-0.5"/>
<text text-anchor="middle" x="1463" y="-7.5" font-family="FreeSans" font-size="10.00">opencl.c</text>
</a>
</g>
</g>
<!-- Node1&#45;&gt;Node20 -->
<g id="edge35" class="edge">
<title>Node1&#45;&gt;Node20</title>
<path fill="none" stroke="midnightblue" d="M696.18,-172.94C794.18,-162.27 1057.38,-130.45 1271,-76 1334.09,-59.92 1406.26,-33.14 1441.44,-19.52"/>
<polygon fill="midnightblue" stroke="midnightblue" points="695.71,-169.47 686.14,-174.02 696.46,-176.43 695.71,-169.47"/>
</g>
<!-- Node3 -->
<g id="node3" class="node">
<title>Node3</title>
<g id="a_node3"><a xlink:href="ImageMagick_8h.html" target="_top" xlink:title=" ">
<polygon fill="white" stroke="black" points="317,-56.5 317,-75.5 409,-75.5 409,-56.5 317,-56.5"/>
<text text-anchor="middle" x="363" y="-63.5" font-family="FreeSans" font-size="10.00">ImageMagick.h</text>
</a>
</g>
</g>
<!-- Node2&#45;&gt;Node3 -->
<g id="edge2" class="edge">
<title>Node2&#45;&gt;Node3</title>
<path fill="none" stroke="midnightblue" d="M457.99,-108.37C434.77,-98.26 402.84,-84.35 382.56,-75.52"/>
<polygon fill="midnightblue" stroke="midnightblue" points="456.79,-111.66 467.35,-112.44 459.58,-105.24 456.79,-111.66"/>
</g>
<!-- Node4 -->
<g id="node4" class="node">
<title>Node4</title>
<g id="a_node4"><a xlink:href="api_8h.html" target="_top" xlink:title=" ">
<polygon fill="white" stroke="black" points="427.5,-56.5 427.5,-75.5 468.5,-75.5 468.5,-56.5 427.5,-56.5"/>
<text text-anchor="middle" x="448" y="-63.5" font-family="FreeSans" font-size="10.00">api.h</text>
</a>
</g>
</g>
<!-- Node2&#45;&gt;Node4 -->
<g id="edge3" class="edge">
<title>Node2&#45;&gt;Node4</title>
<path fill="none" stroke="midnightblue" d="M474.62,-103.86C467.86,-94.5 459.79,-83.33 454.32,-75.75"/>
<polygon fill="midnightblue" stroke="midnightblue" points="471.87,-106.03 480.56,-112.08 477.54,-101.93 471.87,-106.03"/>
</g>
<!-- Node5 -->
<g id="node5" class="node">
<title>Node5</title>
<g id="a_node5"><a xlink:href="image-view_8c.html" target="_top" xlink:title=" ">
<polygon fill="white" stroke="black" points="486.5,-56.5 486.5,-75.5 567.5,-75.5 567.5,-56.5 486.5,-56.5"/>
<text text-anchor="middle" x="527" y="-63.5" font-family="FreeSans" font-size="10.00">image&#45;view.c</text>
</a>
</g>
</g>
<!-- Node2&#45;&gt;Node5 -->
<g id="edge4" class="edge">
<title>Node2&#45;&gt;Node5</title>
<path fill="none" stroke="midnightblue" d="M499.7,-103.86C506.63,-94.5 514.91,-83.33 520.52,-75.75"/>
<polygon fill="midnightblue" stroke="midnightblue" points="496.75,-101.96 493.61,-112.08 502.37,-106.13 496.75,-101.96"/>
</g>
<!-- Node8&#45;&gt;Node6 -->
<g id="edge8" class="edge">
<title>Node8&#45;&gt;Node6</title>
<path fill="none" stroke="midnightblue" d="M845.61,-110.01C814.25,-102.09 772.51,-90.29 737,-76 719.3,-68.87 717.39,-61.12 699,-56 435.66,17.31 356.26,-53.78 85,-20 82.11,-19.64 79.14,-19.21 76.15,-18.74"/>
<polygon fill="midnightblue" stroke="midnightblue" points="844.86,-113.43 855.41,-112.44 846.54,-106.63 844.86,-113.43"/>
</g>
<!-- Node8&#45;&gt;Node7 -->
<g id="edge29" class="edge">
<title>Node8&#45;&gt;Node7</title>
<path fill="none" stroke="midnightblue" d="M845.84,-110.21C799.69,-99.65 730.6,-83.84 690.03,-74.56"/>
<polygon fill="midnightblue" stroke="midnightblue" points="845.08,-113.62 855.61,-112.44 846.64,-106.8 845.08,-113.62"/>
</g>
<!-- Node9 -->
<g id="node9" class="node">
<title>Node9</title>
<g id="a_node9"><a xlink:href="cache-private_8h.html" target="_top" xlink:title=" ">
<polygon fill="white" stroke="black" points="746,-56.5 746,-75.5 838,-75.5 838,-56.5 746,-56.5"/>
<text text-anchor="middle" x="792" y="-63.5" font-family="FreeSans" font-size="10.00">cache&#45;private.h</text>
</a>
</g>
</g>
<!-- Node8&#45;&gt;Node9 -->
<g id="edge9" class="edge">
<title>Node8&#45;&gt;Node9</title>
<path fill="none" stroke="midnightblue" d="M867.92,-107.59C849.24,-97.61 824.3,-84.27 808.19,-75.65"/>
<polygon fill="midnightblue" stroke="midnightblue" points="866.3,-110.7 876.77,-112.32 869.6,-104.52 866.3,-110.7"/>
</g>
<!-- Node8&#45;&gt;Node20 -->
<g id="edge32" class="edge">
<title>Node8&#45;&gt;Node20</title>
<path fill="none" stroke="midnightblue" d="M884.19,-102.62C878.66,-88.09 874.52,-68.27 886,-56 927.08,-12.09 1366.57,-29.14 1426,-20 1428.74,-19.58 1431.58,-19.05 1434.41,-18.47"/>
<polygon fill="midnightblue" stroke="midnightblue" points="881.1,-104.28 888.26,-112.09 887.53,-101.52 881.1,-104.28"/>
</g>
<!-- Node27 -->
<g id="node27" class="node">
<title>Node27</title>
<g id="a_node27"><a xlink:href="effect_8c.html" target="_top" xlink:title=" ">
<polygon fill="white" stroke="black" points="894.5,-56.5 894.5,-75.5 947.5,-75.5 947.5,-56.5 894.5,-56.5"/>
<text text-anchor="middle" x="921" y="-63.5" font-family="FreeSans" font-size="10.00">effect.c</text>
</a>
</g>
</g>
<!-- Node8&#45;&gt;Node27 -->
<g id="edge28" class="edge">
<title>Node8&#45;&gt;Node27</title>
<path fill="none" stroke="midnightblue" d="M902.34,-102.98C907.09,-93.82 912.66,-83.09 916.46,-75.75"/>
<polygon fill="midnightblue" stroke="midnightblue" points="899.12,-101.59 897.62,-112.08 905.33,-104.82 899.12,-101.59"/>
</g>
<!-- Node28 -->
<g id="node28" class="node">
<title>Node28</title>
<g id="a_node28"><a xlink:href="fx_8c.html" target="_top" xlink:title=" ">
<polygon fill="white" stroke="black" points="965.5,-56.5 965.5,-75.5 1000.5,-75.5 1000.5,-56.5 965.5,-56.5"/>
<text text-anchor="middle" x="983" y="-63.5" font-family="FreeSans" font-size="10.00">fx.c</text>
</a>
</g>
</g>
<!-- Node8&#45;&gt;Node28 -->
<g id="edge30" class="edge">
<title>Node8&#45;&gt;Node28</title>
<path fill="none" stroke="midnightblue" d="M916.04,-107.18C932.6,-97.24 954.42,-84.15 968.58,-75.65"/>
<polygon fill="midnightblue" stroke="midnightblue" points="914.23,-104.18 907.46,-112.32 917.84,-110.18 914.23,-104.18"/>
</g>
<!-- Node29 -->
<g id="node29" class="node">
<title>Node29</title>
<g id="a_node29"><a xlink:href="magick_8c.html" target="_top" xlink:title=" ">
<polygon fill="white" stroke="black" points="1018.5,-56.5 1018.5,-75.5 1079.5,-75.5 1079.5,-56.5 1018.5,-56.5"/>
<text text-anchor="middle" x="1049" y="-63.5" font-family="FreeSans" font-size="10.00">magick.c</text>
</a>
</g>
</g>
<!-- Node8&#45;&gt;Node29 -->
<g id="edge31" class="edge">
<title>Node8&#45;&gt;Node29</title>
<path fill="none" stroke="midnightblue" d="M927.17,-109.17C956.54,-99 998.2,-84.59 1024.4,-75.52"/>
<polygon fill="midnightblue" stroke="midnightblue" points="926.02,-105.86 917.72,-112.44 928.31,-112.48 926.02,-105.86"/>
</g>
<!-- Node30 -->
<g id="node30" class="node">
<title>Node30</title>
<g id="a_node30"><a xlink:href="vision_8c.html" target="_top" xlink:title=" ">
<polygon fill="white" stroke="black" points="1098,-56.5 1098,-75.5 1152,-75.5 1152,-56.5 1098,-56.5"/>
<text text-anchor="middle" x="1125" y="-63.5" font-family="FreeSans" font-size="10.00">vision.c</text>
</a>
</g>
</g>
<!-- Node8&#45;&gt;Node30 -->
<g id="edge33" class="edge">
<title>Node8&#45;&gt;Node30</title>
<path fill="none" stroke="midnightblue" d="M941.3,-110.18C981.01,-101.22 1038.72,-88.06 1089,-76 1091.88,-75.31 1094.89,-74.58 1097.89,-73.84"/>
<polygon fill="midnightblue" stroke="midnightblue" points="940.35,-106.81 931.36,-112.42 941.88,-113.64 940.35,-106.81"/>
</g>
<!-- Node31 -->
<g id="node31" class="node">
<title>Node31</title>
<g id="a_node31"><a xlink:href="visual-effects_8c.html" target="_top" xlink:title=" ">
<polygon fill="white" stroke="black" points="1170.5,-56.5 1170.5,-75.5 1261.5,-75.5 1261.5,-56.5 1170.5,-56.5"/>
<text text-anchor="middle" x="1216" y="-63.5" font-family="FreeSans" font-size="10.00">visual&#45;effects.c</text>
</a>
</g>
</g>
<!-- Node8&#45;&gt;Node31 -->
<g id="edge34" class="edge">
<title>Node8&#45;&gt;Node31</title>
<path fill="none" stroke="midnightblue" d="M951.16,-111.28C1014,-100.77 1112.85,-84.25 1170.34,-74.63"/>
<polygon fill="midnightblue" stroke="midnightblue" points="950.29,-107.87 941.01,-112.97 951.45,-114.78 950.29,-107.87"/>
</g>
<!-- Node9&#45;&gt;Node6 -->
<g id="edge10" class="edge">
<title>Node9&#45;&gt;Node6</title>
<path fill="none" stroke="midnightblue" d="M735.84,-56.41C734.55,-56.27 733.27,-56.13 732,-56 445.5,-26.61 370.85,-55.16 85,-20 82.11,-19.64 79.14,-19.22 76.15,-18.75"/>
<polygon fill="midnightblue" stroke="midnightblue" points="735.52,-59.9 745.87,-57.64 736.37,-52.95 735.52,-59.9"/>
</g>
<!-- Node10 -->
<g id="node10" class="node">
<title>Node10</title>
<g id="a_node10"><a xlink:href="annotate_8c.html" target="_top" xlink:title=" ">
<polygon fill="white" stroke="black" points="94,-0.5 94,-19.5 162,-19.5 162,-0.5 94,-0.5"/>
<text text-anchor="middle" x="128" y="-7.5" font-family="FreeSans" font-size="10.00">annotate.c</text>
</a>
</g>
</g>
<!-- Node9&#45;&gt;Node10 -->
<g id="edge11" class="edge">
<title>Node9&#45;&gt;Node10</title>
<path fill="none" stroke="midnightblue" d="M735.84,-56.43C734.55,-56.28 733.27,-56.14 732,-56 483.57,-29.44 418.57,-53.68 171,-20 168.13,-19.61 165.16,-19.14 162.19,-18.61"/>
<polygon fill="midnightblue" stroke="midnightblue" points="735.51,-59.91 745.86,-57.68 736.37,-52.97 735.51,-59.91"/>
</g>
<!-- Node11 -->
<g id="node11" class="node">
<title>Node11</title>
<g id="a_node11"><a xlink:href="attribute_8c.html" target="_top" xlink:title=" ">
<polygon fill="white" stroke="black" points="180.5,-0.5 180.5,-19.5 247.5,-19.5 247.5,-0.5 180.5,-0.5"/>
<text text-anchor="middle" x="214" y="-7.5" font-family="FreeSans" font-size="10.00">attribute.c</text>
</a>
</g>
</g>
<!-- Node9&#45;&gt;Node11 -->
<g id="edge12" class="edge">
<title>Node9&#45;&gt;Node11</title>
<path fill="none" stroke="midnightblue" d="M735.84,-56.45C734.55,-56.29 733.27,-56.14 732,-56 521.17,-32.25 465.99,-50.3 256,-20 253.34,-19.62 250.6,-19.16 247.85,-18.67"/>
<polygon fill="midnightblue" stroke="midnightblue" points="735.49,-59.93 745.86,-57.73 736.38,-52.99 735.49,-59.93"/>
</g>
<!-- Node12 -->
<g id="node12" class="node">
<title>Node12</title>
<g id="a_node12"><a xlink:href="cache-view_8c.html" target="_top" xlink:title=" ">
<polygon fill="white" stroke="black" points="265.5,-0.5 265.5,-19.5 344.5,-19.5 344.5,-0.5 265.5,-0.5"/>
<text text-anchor="middle" x="305" y="-7.5" font-family="FreeSans" font-size="10.00">cache&#45;view.c</text>
</a>
</g>
</g>
<!-- Node9&#45;&gt;Node12 -->
<g id="edge13" class="edge">
<title>Node9&#45;&gt;Node12</title>
<path fill="none" stroke="midnightblue" d="M735.83,-56.48C734.54,-56.31 733.26,-56.15 732,-56 564.05,-35.44 520.55,-43.62 353,-20 350.23,-19.61 347.38,-19.17 344.51,-18.7"/>
<polygon fill="midnightblue" stroke="midnightblue" points="735.47,-59.96 745.85,-57.82 736.4,-53.02 735.47,-59.96"/>
</g>
<!-- Node13 -->
<g id="node13" class="node">
<title>Node13</title>
<g id="a_node13"><a xlink:href="cache_8c.html" target="_top" xlink:title=" ">
<polygon fill="white" stroke="black" points="362.5,-0.5 362.5,-19.5 415.5,-19.5 415.5,-0.5 362.5,-0.5"/>
<text text-anchor="middle" x="389" y="-7.5" font-family="FreeSans" font-size="10.00">cache.c</text>
</a>
</g>
</g>
<!-- Node9&#45;&gt;Node13 -->
<g id="edge14" class="edge">
<title>Node9&#45;&gt;Node13</title>
<path fill="none" stroke="midnightblue" d="M735.83,-56.52C734.54,-56.34 733.26,-56.17 732,-56 595.39,-37.78 559.49,-45.22 424,-20 421.29,-19.49 418.47,-18.9 415.67,-18.25"/>
<polygon fill="midnightblue" stroke="midnightblue" points="735.44,-60 745.83,-57.92 736.42,-53.07 735.44,-60"/>
</g>
<!-- Node14 -->
<g id="node14" class="node">
<title>Node14</title>
<g id="a_node14"><a xlink:href="channel_8c.html" target="_top" xlink:title=" ">
<polygon fill="white" stroke="black" points="433.5,-0.5 433.5,-19.5 496.5,-19.5 496.5,-0.5 433.5,-0.5"/>
<text text-anchor="middle" x="465" y="-7.5" font-family="FreeSans" font-size="10.00">channel.c</text>
</a>
</g>
</g>
<!-- Node9&#45;&gt;Node14 -->
<g id="edge15" class="edge">
<title>Node9&#45;&gt;Node14</title>
<path fill="none" stroke="midnightblue" d="M735.7,-56.38C658.6,-44.54 527.17,-24.23 505,-20 502.34,-19.49 499.59,-18.94 496.84,-18.36"/>
<polygon fill="midnightblue" stroke="midnightblue" points="735.32,-59.86 745.74,-57.92 736.38,-52.94 735.32,-59.86"/>
</g>
<!-- Node15 -->
<g id="node15" class="node">
<title>Node15</title>
<g id="a_node15"><a xlink:href="colorspace_8c.html" target="_top" xlink:title=" ">
<polygon fill="white" stroke="black" points="514.5,-0.5 514.5,-19.5 591.5,-19.5 591.5,-0.5 514.5,-0.5"/>
<text text-anchor="middle" x="553" y="-7.5" font-family="FreeSans" font-size="10.00">colorspace.c</text>
</a>
</g>
</g>
<!-- Node9&#45;&gt;Node15 -->
<g id="edge16" class="edge">
<title>Node9&#45;&gt;Node15</title>
<path fill="none" stroke="midnightblue" d="M744.28,-54.22C699.11,-44.01 632.23,-28.9 590.69,-19.52"/>
<polygon fill="midnightblue" stroke="midnightblue" points="743.6,-57.65 754.13,-56.44 745.15,-50.83 743.6,-57.65"/>
</g>
<!-- Node16 -->
<g id="node16" class="node">
<title>Node16</title>
<g id="a_node16"><a xlink:href="distribute-cache_8c.html" target="_top" xlink:title=" ">
<polygon fill="white" stroke="black" points="610,-0.5 610,-19.5 714,-19.5 714,-0.5 610,-0.5"/>
<text text-anchor="middle" x="662" y="-7.5" font-family="FreeSans" font-size="10.00">distribute&#45;cache.c</text>
</a>
</g>
</g>
<!-- Node9&#45;&gt;Node16 -->
<g id="edge17" class="edge">
<title>Node9&#45;&gt;Node16</title>
<path fill="none" stroke="midnightblue" d="M761.91,-52.5C737.54,-42.38 703.86,-28.39 682.5,-19.52"/>
<polygon fill="midnightblue" stroke="midnightblue" points="760.82,-55.84 771.4,-56.44 763.51,-49.38 760.82,-55.84"/>
</g>
<!-- Node17 -->
<g id="node17" class="node">
<title>Node17</title>
<g id="a_node17"><a xlink:href="draw_8c.html" target="_top" xlink:title=" ">
<polygon fill="white" stroke="black" points="732,-0.5 732,-19.5 780,-19.5 780,-0.5 732,-0.5"/>
<text text-anchor="middle" x="756" y="-7.5" font-family="FreeSans" font-size="10.00">draw.c</text>
</a>
</g>
</g>
<!-- Node9&#45;&gt;Node17 -->
<g id="edge18" class="edge">
<title>Node9&#45;&gt;Node17</title>
<path fill="none" stroke="midnightblue" d="M780.38,-47.57C774.18,-38.27 766.83,-27.25 761.83,-19.75"/>
<polygon fill="midnightblue" stroke="midnightblue" points="777.6,-49.7 786.06,-56.08 783.42,-45.82 777.6,-49.7"/>
</g>
<!-- Node18 -->
<g id="node18" class="node">
<title>Node18</title>
<g id="a_node18"><a xlink:href="feature_8c.html" target="_top" xlink:title=" ">
<polygon fill="white" stroke="black" points="798,-0.5 798,-19.5 858,-19.5 858,-0.5 798,-0.5"/>
<text text-anchor="middle" x="828" y="-7.5" font-family="FreeSans" font-size="10.00">feature.c</text>
</a>
</g>
</g>
<!-- Node9&#45;&gt;Node18 -->
<g id="edge19" class="edge">
<title>Node9&#45;&gt;Node18</title>
<path fill="none" stroke="midnightblue" d="M803.62,-47.57C809.82,-38.27 817.17,-27.25 822.17,-19.75"/>
<polygon fill="midnightblue" stroke="midnightblue" points="800.58,-45.82 797.94,-56.08 806.4,-49.7 800.58,-45.82"/>
</g>
<!-- Node19 -->
<g id="node19" class="node">
<title>Node19</title>
<g id="a_node19"><a xlink:href="image_8c.html" target="_top" xlink:title=" ">
<polygon fill="white" stroke="black" points="876,-0.5 876,-19.5 932,-19.5 932,-0.5 876,-0.5"/>
<text text-anchor="middle" x="904" y="-7.5" font-family="FreeSans" font-size="10.00">image.c</text>
</a>
</g>
</g>
<!-- Node9&#45;&gt;Node19 -->
<g id="edge20" class="edge">
<title>Node9&#45;&gt;Node19</title>
<path fill="none" stroke="midnightblue" d="M819.25,-51.86C840.02,-41.85 868.02,-28.35 886.05,-19.65"/>
<polygon fill="midnightblue" stroke="midnightblue" points="817.48,-48.83 809.99,-56.32 820.52,-55.13 817.48,-48.83"/>
</g>
<!-- Node9&#45;&gt;Node20 -->
<g id="edge21" class="edge">
<title>Node9&#45;&gt;Node20</title>
<path fill="none" stroke="midnightblue" d="M848.16,-56.42C849.45,-56.28 850.73,-56.13 852,-56 1106.18,-29.02 1173.28,-58.36 1426,-20 1428.75,-19.58 1431.59,-19.06 1434.42,-18.48"/>
<polygon fill="midnightblue" stroke="midnightblue" points="847.63,-52.96 838.14,-57.67 848.49,-59.91 847.63,-52.96"/>
</g>
<!-- Node21 -->
<g id="node21" class="node">
<title>Node21</title>
<g id="a_node21"><a xlink:href="property_8c.html" target="_top" xlink:title=" ">
<polygon fill="white" stroke="black" points="950.5,-0.5 950.5,-19.5 1015.5,-19.5 1015.5,-0.5 950.5,-0.5"/>
<text text-anchor="middle" x="983" y="-7.5" font-family="FreeSans" font-size="10.00">property.c</text>
</a>
</g>
</g>
<!-- Node9&#45;&gt;Node21 -->
<g id="edge22" class="edge">
<title>Node9&#45;&gt;Node21</title>
<path fill="none" stroke="midnightblue" d="M831.97,-53.7C868.02,-43.51 920.24,-28.74 952.88,-19.52"/>
<polygon fill="midnightblue" stroke="midnightblue" points="830.94,-50.35 822.26,-56.44 832.84,-57.09 830.94,-50.35"/>
</g>
<!-- Node22 -->
<g id="node22" class="node">
<title>Node22</title>
<g id="a_node22"><a xlink:href="quantum_8c.html" target="_top" xlink:title=" ">
<polygon fill="white" stroke="black" points="1034,-0.5 1034,-19.5 1102,-19.5 1102,-0.5 1034,-0.5"/>
<text text-anchor="middle" x="1068" y="-7.5" font-family="FreeSans" font-size="10.00">quantum.c</text>
</a>
</g>
</g>
<!-- Node9&#45;&gt;Node22 -->
<g id="edge23" class="edge">
<title>Node9&#45;&gt;Node22</title>
<path fill="none" stroke="midnightblue" d="M847.17,-54.6C894.41,-45.63 964.23,-32.23 1025,-20 1027.84,-19.43 1030.79,-18.83 1033.74,-18.22"/>
<polygon fill="midnightblue" stroke="midnightblue" points="846.32,-51.19 837.14,-56.5 847.62,-58.07 846.32,-51.19"/>
</g>
<!-- Node23 -->
<g id="node23" class="node">
<title>Node23</title>
<g id="a_node23"><a xlink:href="resource_8c.html" target="_top" xlink:title=" ">
<polygon fill="white" stroke="black" points="1120.5,-0.5 1120.5,-19.5 1187.5,-19.5 1187.5,-0.5 1120.5,-0.5"/>
<text text-anchor="middle" x="1154" y="-7.5" font-family="FreeSans" font-size="10.00">resource.c</text>
</a>
</g>
</g>
<!-- Node9&#45;&gt;Node23 -->
<g id="edge24" class="edge">
<title>Node9&#45;&gt;Node23</title>
<path fill="none" stroke="midnightblue" d="M848.18,-56.55C849.46,-56.37 850.74,-56.18 852,-56 967.02,-39.38 996.5,-39.92 1111,-20 1114.01,-19.48 1117.12,-18.9 1120.24,-18.29"/>
<polygon fill="midnightblue" stroke="midnightblue" points="847.57,-53.11 838.18,-58.02 848.58,-60.03 847.57,-53.11"/>
</g>
<!-- Node24 -->
<g id="node24" class="node">
<title>Node24</title>
<g id="a_node24"><a xlink:href="shear_8c.html" target="_top" xlink:title=" ">
<polygon fill="white" stroke="black" points="1205.5,-0.5 1205.5,-19.5 1256.5,-19.5 1256.5,-0.5 1205.5,-0.5"/>
<text text-anchor="middle" x="1231" y="-7.5" font-family="FreeSans" font-size="10.00">shear.c</text>
</a>
</g>
</g>
<!-- Node9&#45;&gt;Node24 -->
<g id="edge25" class="edge">
<title>Node9&#45;&gt;Node24</title>
<path fill="none" stroke="midnightblue" d="M848.17,-56.5C849.46,-56.33 850.74,-56.16 852,-56 1004.94,-36.56 1045.36,-47.81 1197,-20 1199.76,-19.49 1202.63,-18.88 1205.48,-18.21"/>
<polygon fill="midnightblue" stroke="midnightblue" points="847.59,-53.04 838.16,-57.86 848.54,-59.98 847.59,-53.04"/>
</g>
<!-- Node25 -->
<g id="node25" class="node">
<title>Node25</title>
<g id="a_node25"><a xlink:href="statistic_8c.html" target="_top" xlink:title=" ">
<polygon fill="white" stroke="black" points="1275,-0.5 1275,-19.5 1339,-19.5 1339,-0.5 1275,-0.5"/>
<text text-anchor="middle" x="1307" y="-7.5" font-family="FreeSans" font-size="10.00">statistic.c</text>
</a>
</g>
</g>
<!-- Node9&#45;&gt;Node25 -->
<g id="edge26" class="edge">
<title>Node9&#45;&gt;Node25</title>
<path fill="none" stroke="midnightblue" d="M848.17,-56.47C849.46,-56.31 850.73,-56.15 852,-56 1035.41,-34.29 1083.42,-47.86 1266,-20 1268.88,-19.56 1271.86,-19.04 1274.84,-18.47"/>
<polygon fill="midnightblue" stroke="midnightblue" points="847.61,-53.01 838.15,-57.78 848.52,-59.95 847.61,-53.01"/>
</g>
<!-- Node26 -->
<g id="node26" class="node">
<title>Node26</title>
<g id="a_node26"><a xlink:href="stream_8c.html" target="_top" xlink:title=" ">
<polygon fill="white" stroke="black" points="1357.5,-0.5 1357.5,-19.5 1416.5,-19.5 1416.5,-0.5 1357.5,-0.5"/>
<text text-anchor="middle" x="1387" y="-7.5" font-family="FreeSans" font-size="10.00">stream.c</text>
</a>
</g>
</g>
<!-- Node9&#45;&gt;Node26 -->
<g id="edge27" class="edge">
<title>Node9&#45;&gt;Node26</title>
<path fill="none" stroke="midnightblue" d="M848.16,-56.44C849.45,-56.29 850.73,-56.14 852,-56 1071.67,-31.59 1129.45,-52.95 1348,-20 1351.02,-19.54 1354.16,-18.98 1357.28,-18.36"/>
<polygon fill="midnightblue" stroke="midnightblue" points="847.62,-52.98 838.14,-57.72 848.5,-59.93 847.62,-52.98"/>
</g>
</g>
</svg>
