<?xml version="1.0" encoding="UTF-8" standalone="no"?>
<!DOCTYPE svg PUBLIC "-//W3C//DTD SVG 1.1//EN"
 "http://www.w3.org/Graphics/SVG/1.1/DTD/svg11.dtd">
<!-- Generated by graphviz version 2.43.0 (0)
 -->
<!-- Title: opencl&#45;private.h Pages: 1 -->
<svg width="1500pt" height="140pt"
 viewBox="0.00 0.00 1499.50 140.00" xmlns="http://www.w3.org/2000/svg" xmlns:xlink="http://www.w3.org/1999/xlink">
<g id="graph0" class="graph" transform="scale(1 1) rotate(0) translate(4 136)">
<title>opencl&#45;private.h</title>
<polygon fill="white" stroke="transparent" points="-4,4 -4,-136 1495.5,-136 1495.5,4 -4,4"/>
<!-- Node1 -->
<g id="node1" class="node">
<title>Node1</title>
<g id="a_node1"><a xlink:title=" ">
<polygon fill="#bfbfbf" stroke="black" points="951,-112.5 951,-131.5 1047,-131.5 1047,-112.5 951,-112.5"/>
<text text-anchor="middle" x="999" y="-119.5" font-family="FreeSans" font-size="10.00">opencl&#45;private.h</text>
</a>
</g>
</g>
<!-- Node2 -->
<g id="node2" class="node">
<title>Node2</title>
<g id="a_node2"><a xlink:href="accelerate_8c.html" target="_top" xlink:title=" ">
<polygon fill="white" stroke="black" points="0,-0.5 0,-19.5 76,-19.5 76,-0.5 0,-0.5"/>
<text text-anchor="middle" x="38" y="-7.5" font-family="FreeSans" font-size="10.00">accelerate.c</text>
</a>
</g>
</g>
<!-- Node1&#45;&gt;Node2 -->
<g id="edge1" class="edge">
<title>Node1&#45;&gt;Node2</title>
<path fill="none" stroke="midnightblue" d="M940.74,-116.17C795.68,-103.81 406.81,-68.52 85,-20 82.12,-19.57 79.16,-19.08 76.18,-18.57"/>
<polygon fill="midnightblue" stroke="midnightblue" points="940.5,-119.67 950.76,-117.03 941.09,-112.69 940.5,-119.67"/>
</g>
<!-- Node3 -->
<g id="node3" class="node">
<title>Node3</title>
<g id="a_node3"><a xlink:href="cache-private_8h.html" target="_top" xlink:title=" ">
<polygon fill="white" stroke="black" points="746,-56.5 746,-75.5 838,-75.5 838,-56.5 746,-56.5"/>
<text text-anchor="middle" x="792" y="-63.5" font-family="FreeSans" font-size="10.00">cache&#45;private.h</text>
</a>
</g>
</g>
<!-- Node1&#45;&gt;Node3 -->
<g id="edge2" class="edge">
<title>Node1&#45;&gt;Node3</title>
<path fill="none" stroke="midnightblue" d="M956.18,-109.83C917.09,-99.63 860.17,-84.78 824.65,-75.52"/>
<polygon fill="midnightblue" stroke="midnightblue" points="955.64,-113.31 966.2,-112.44 957.41,-106.53 955.64,-113.31"/>
</g>
<!-- Node14 -->
<g id="node14" class="node">
<title>Node14</title>
<g id="a_node14"><a xlink:href="opencl_8c.html" target="_top" xlink:title=" ">
<polygon fill="white" stroke="black" points="1434.5,-0.5 1434.5,-19.5 1491.5,-19.5 1491.5,-0.5 1434.5,-0.5"/>
<text text-anchor="middle" x="1463" y="-7.5" font-family="FreeSans" font-size="10.00">opencl.c</text>
</a>
</g>
</g>
<!-- Node1&#45;&gt;Node14 -->
<g id="edge25" class="edge">
<title>Node1&#45;&gt;Node14</title>
<path fill="none" stroke="midnightblue" d="M946.54,-109.97C906.72,-99.32 862.5,-81.12 886,-56 927.08,-12.09 1366.57,-29.14 1426,-20 1428.74,-19.58 1431.58,-19.05 1434.41,-18.47"/>
<polygon fill="midnightblue" stroke="midnightblue" points="945.71,-113.36 956.26,-112.44 947.44,-106.58 945.71,-113.36"/>
</g>
<!-- Node21 -->
<g id="node21" class="node">
<title>Node21</title>
<g id="a_node21"><a xlink:href="effect_8c.html" target="_top" xlink:title=" ">
<polygon fill="white" stroke="black" points="894.5,-56.5 894.5,-75.5 947.5,-75.5 947.5,-56.5 894.5,-56.5"/>
<text text-anchor="middle" x="921" y="-63.5" font-family="FreeSans" font-size="10.00">effect.c</text>
</a>
</g>
</g>
<!-- Node1&#45;&gt;Node21 -->
<g id="edge21" class="edge">
<title>Node1&#45;&gt;Node21</title>
<path fill="none" stroke="midnightblue" d="M978.23,-106.62C963.98,-96.76 945.54,-83.99 933.5,-75.65"/>
<polygon fill="midnightblue" stroke="midnightblue" points="976.25,-109.51 986.47,-112.32 980.24,-103.75 976.25,-109.51"/>
</g>
<!-- Node22 -->
<g id="node22" class="node">
<title>Node22</title>
<g id="a_node22"><a xlink:href="enhance_8c.html" target="_top" xlink:title=" ">
<polygon fill="white" stroke="black" points="966,-56.5 966,-75.5 1032,-75.5 1032,-56.5 966,-56.5"/>
<text text-anchor="middle" x="999" y="-63.5" font-family="FreeSans" font-size="10.00">enhance.c</text>
</a>
</g>
</g>
<!-- Node1&#45;&gt;Node22 -->
<g id="edge22" class="edge">
<title>Node1&#45;&gt;Node22</title>
<path fill="none" stroke="midnightblue" d="M999,-101.8C999,-92.91 999,-82.78 999,-75.75"/>
<polygon fill="midnightblue" stroke="midnightblue" points="995.5,-102.08 999,-112.08 1002.5,-102.08 995.5,-102.08"/>
</g>
<!-- Node23 -->
<g id="node23" class="node">
<title>Node23</title>
<g id="a_node23"><a xlink:href="fx_8c.html" target="_top" xlink:title=" ">
<polygon fill="white" stroke="black" points="1050.5,-56.5 1050.5,-75.5 1085.5,-75.5 1085.5,-56.5 1050.5,-56.5"/>
<text text-anchor="middle" x="1068" y="-63.5" font-family="FreeSans" font-size="10.00">fx.c</text>
</a>
</g>
</g>
<!-- Node1&#45;&gt;Node23 -->
<g id="edge23" class="edge">
<title>Node1&#45;&gt;Node23</title>
<path fill="none" stroke="midnightblue" d="M1018.04,-106.1C1030.46,-96.38 1046.24,-84.03 1056.71,-75.83"/>
<polygon fill="midnightblue" stroke="midnightblue" points="1015.8,-103.4 1010.09,-112.32 1020.12,-108.92 1015.8,-103.4"/>
</g>
<!-- Node24 -->
<g id="node24" class="node">
<title>Node24</title>
<g id="a_node24"><a xlink:href="magick_8c.html" target="_top" xlink:title=" ">
<polygon fill="white" stroke="black" points="1103.5,-56.5 1103.5,-75.5 1164.5,-75.5 1164.5,-56.5 1103.5,-56.5"/>
<text text-anchor="middle" x="1134" y="-63.5" font-family="FreeSans" font-size="10.00">magick.c</text>
</a>
</g>
</g>
<!-- Node1&#45;&gt;Node24 -->
<g id="edge24" class="edge">
<title>Node1&#45;&gt;Node24</title>
<path fill="none" stroke="midnightblue" d="M1029.91,-108.64C1055.24,-98.5 1090.43,-84.43 1112.71,-75.52"/>
<polygon fill="midnightblue" stroke="midnightblue" points="1028.38,-105.48 1020.39,-112.44 1030.98,-111.98 1028.38,-105.48"/>
</g>
<!-- Node25 -->
<g id="node25" class="node">
<title>Node25</title>
<g id="a_node25"><a xlink:href="vision_8c.html" target="_top" xlink:title=" ">
<polygon fill="white" stroke="black" points="1183,-56.5 1183,-75.5 1237,-75.5 1237,-56.5 1183,-56.5"/>
<text text-anchor="middle" x="1210" y="-63.5" font-family="FreeSans" font-size="10.00">vision.c</text>
</a>
</g>
</g>
<!-- Node1&#45;&gt;Node25 -->
<g id="edge26" class="edge">
<title>Node1&#45;&gt;Node25</title>
<path fill="none" stroke="midnightblue" d="M1042.14,-109.96C1084.29,-99.17 1147.13,-83.09 1182.76,-73.97"/>
<polygon fill="midnightblue" stroke="midnightblue" points="1041.25,-106.57 1032.43,-112.44 1042.99,-113.35 1041.25,-106.57"/>
</g>
<!-- Node26 -->
<g id="node26" class="node">
<title>Node26</title>
<g id="a_node26"><a xlink:href="visual-effects_8c.html" target="_top" xlink:title=" ">
<polygon fill="white" stroke="black" points="1255.5,-56.5 1255.5,-75.5 1346.5,-75.5 1346.5,-56.5 1255.5,-56.5"/>
<text text-anchor="middle" x="1301" y="-63.5" font-family="FreeSans" font-size="10.00">visual&#45;effects.c</text>
</a>
</g>
</g>
<!-- Node1&#45;&gt;Node26 -->
<g id="edge27" class="edge">
<title>Node1&#45;&gt;Node26</title>
<path fill="none" stroke="midnightblue" d="M1056.93,-110.64C1114.71,-100.31 1202.31,-84.65 1255.35,-75.16"/>
<polygon fill="midnightblue" stroke="midnightblue" points="1056.08,-107.24 1046.85,-112.44 1057.31,-114.13 1056.08,-107.24"/>
</g>
<!-- Node3&#45;&gt;Node2 -->
<g id="edge3" class="edge">
<title>Node3&#45;&gt;Node2</title>
<path fill="none" stroke="midnightblue" d="M735.85,-63.82C615.91,-60.78 325.96,-50.62 85,-20 82.12,-19.63 79.14,-19.2 76.16,-18.72"/>
<polygon fill="midnightblue" stroke="midnightblue" points="735.82,-67.32 745.9,-64.07 735.99,-60.32 735.82,-67.32"/>
</g>
<!-- Node4 -->
<g id="node4" class="node">
<title>Node4</title>
<g id="a_node4"><a xlink:href="annotate_8c.html" target="_top" xlink:title=" ">
<polygon fill="white" stroke="black" points="94,-0.5 94,-19.5 162,-19.5 162,-0.5 94,-0.5"/>
<text text-anchor="middle" x="128" y="-7.5" font-family="FreeSans" font-size="10.00">annotate.c</text>
</a>
</g>
</g>
<!-- Node3&#45;&gt;Node4 -->
<g id="edge4" class="edge">
<title>Node3&#45;&gt;Node4</title>
<path fill="none" stroke="midnightblue" d="M735.67,-63.44C626.33,-59.87 377.89,-49.01 171,-20 168.13,-19.6 165.16,-19.12 162.19,-18.59"/>
<polygon fill="midnightblue" stroke="midnightblue" points="735.71,-66.95 745.81,-63.77 735.93,-59.95 735.71,-66.95"/>
</g>
<!-- Node5 -->
<g id="node5" class="node">
<title>Node5</title>
<g id="a_node5"><a xlink:href="attribute_8c.html" target="_top" xlink:title=" ">
<polygon fill="white" stroke="black" points="180.5,-0.5 180.5,-19.5 247.5,-19.5 247.5,-0.5 180.5,-0.5"/>
<text text-anchor="middle" x="214" y="-7.5" font-family="FreeSans" font-size="10.00">attribute.c</text>
</a>
</g>
</g>
<!-- Node3&#45;&gt;Node5 -->
<g id="edge5" class="edge">
<title>Node3&#45;&gt;Node5</title>
<path fill="none" stroke="midnightblue" d="M735.62,-62.63C637.64,-57.99 429.79,-45.81 256,-20 253.34,-19.61 250.61,-19.14 247.86,-18.64"/>
<polygon fill="midnightblue" stroke="midnightblue" points="735.73,-66.14 745.89,-63.11 736.06,-59.15 735.73,-66.14"/>
</g>
<!-- Node6 -->
<g id="node6" class="node">
<title>Node6</title>
<g id="a_node6"><a xlink:href="cache-view_8c.html" target="_top" xlink:title=" ">
<polygon fill="white" stroke="black" points="265.5,-0.5 265.5,-19.5 344.5,-19.5 344.5,-0.5 265.5,-0.5"/>
<text text-anchor="middle" x="305" y="-7.5" font-family="FreeSans" font-size="10.00">cache&#45;view.c</text>
</a>
</g>
</g>
<!-- Node3&#45;&gt;Node6 -->
<g id="edge6" class="edge">
<title>Node3&#45;&gt;Node6</title>
<path fill="none" stroke="midnightblue" d="M735.65,-60.73C651.92,-54.05 489.84,-39.81 353,-20 350.23,-19.6 347.38,-19.15 344.51,-18.68"/>
<polygon fill="midnightblue" stroke="midnightblue" points="735.46,-64.23 745.71,-61.53 736.01,-57.25 735.46,-64.23"/>
</g>
<!-- Node7 -->
<g id="node7" class="node">
<title>Node7</title>
<g id="a_node7"><a xlink:href="cache_8c.html" target="_top" xlink:title=" ">
<polygon fill="white" stroke="black" points="362.5,-0.5 362.5,-19.5 415.5,-19.5 415.5,-0.5 362.5,-0.5"/>
<text text-anchor="middle" x="389" y="-7.5" font-family="FreeSans" font-size="10.00">cache.c</text>
</a>
</g>
</g>
<!-- Node3&#45;&gt;Node7 -->
<g id="edge7" class="edge">
<title>Node3&#45;&gt;Node7</title>
<path fill="none" stroke="midnightblue" d="M735.53,-60.39C663,-53.95 533.41,-40.67 424,-20 421.29,-19.49 418.47,-18.89 415.67,-18.24"/>
<polygon fill="midnightblue" stroke="midnightblue" points="735.54,-63.91 745.81,-61.29 736.15,-56.93 735.54,-63.91"/>
</g>
<!-- Node8 -->
<g id="node8" class="node">
<title>Node8</title>
<g id="a_node8"><a xlink:href="channel_8c.html" target="_top" xlink:title=" ">
<polygon fill="white" stroke="black" points="433.5,-0.5 433.5,-19.5 496.5,-19.5 496.5,-0.5 433.5,-0.5"/>
<text text-anchor="middle" x="465" y="-7.5" font-family="FreeSans" font-size="10.00">channel.c</text>
</a>
</g>
</g>
<!-- Node3&#45;&gt;Node8 -->
<g id="edge8" class="edge">
<title>Node3&#45;&gt;Node8</title>
<path fill="none" stroke="midnightblue" d="M735.55,-57.27C677.53,-49.06 584.69,-35.19 505,-20 502.34,-19.49 499.59,-18.94 496.84,-18.36"/>
<polygon fill="midnightblue" stroke="midnightblue" points="735.22,-60.76 745.61,-58.68 736.2,-53.82 735.22,-60.76"/>
</g>
<!-- Node9 -->
<g id="node9" class="node">
<title>Node9</title>
<g id="a_node9"><a xlink:href="colorspace_8c.html" target="_top" xlink:title=" ">
<polygon fill="white" stroke="black" points="514.5,-0.5 514.5,-19.5 591.5,-19.5 591.5,-0.5 514.5,-0.5"/>
<text text-anchor="middle" x="553" y="-7.5" font-family="FreeSans" font-size="10.00">colorspace.c</text>
</a>
</g>
</g>
<!-- Node3&#45;&gt;Node9 -->
<g id="edge9" class="edge">
<title>Node3&#45;&gt;Node9</title>
<path fill="none" stroke="midnightblue" d="M744.28,-54.22C699.11,-44.01 632.23,-28.9 590.69,-19.52"/>
<polygon fill="midnightblue" stroke="midnightblue" points="743.6,-57.65 754.13,-56.44 745.15,-50.83 743.6,-57.65"/>
</g>
<!-- Node10 -->
<g id="node10" class="node">
<title>Node10</title>
<g id="a_node10"><a xlink:href="distribute-cache_8c.html" target="_top" xlink:title=" ">
<polygon fill="white" stroke="black" points="610,-0.5 610,-19.5 714,-19.5 714,-0.5 610,-0.5"/>
<text text-anchor="middle" x="662" y="-7.5" font-family="FreeSans" font-size="10.00">distribute&#45;cache.c</text>
</a>
</g>
</g>
<!-- Node3&#45;&gt;Node10 -->
<g id="edge10" class="edge">
<title>Node3&#45;&gt;Node10</title>
<path fill="none" stroke="midnightblue" d="M761.91,-52.5C737.54,-42.38 703.86,-28.39 682.5,-19.52"/>
<polygon fill="midnightblue" stroke="midnightblue" points="760.82,-55.84 771.4,-56.44 763.51,-49.38 760.82,-55.84"/>
</g>
<!-- Node11 -->
<g id="node11" class="node">
<title>Node11</title>
<g id="a_node11"><a xlink:href="draw_8c.html" target="_top" xlink:title=" ">
<polygon fill="white" stroke="black" points="732,-0.5 732,-19.5 780,-19.5 780,-0.5 732,-0.5"/>
<text text-anchor="middle" x="756" y="-7.5" font-family="FreeSans" font-size="10.00">draw.c</text>
</a>
</g>
</g>
<!-- Node3&#45;&gt;Node11 -->
<g id="edge11" class="edge">
<title>Node3&#45;&gt;Node11</title>
<path fill="none" stroke="midnightblue" d="M780.38,-47.57C774.18,-38.27 766.83,-27.25 761.83,-19.75"/>
<polygon fill="midnightblue" stroke="midnightblue" points="777.6,-49.7 786.06,-56.08 783.42,-45.82 777.6,-49.7"/>
</g>
<!-- Node12 -->
<g id="node12" class="node">
<title>Node12</title>
<g id="a_node12"><a xlink:href="feature_8c.html" target="_top" xlink:title=" ">
<polygon fill="white" stroke="black" points="798,-0.5 798,-19.5 858,-19.5 858,-0.5 798,-0.5"/>
<text text-anchor="middle" x="828" y="-7.5" font-family="FreeSans" font-size="10.00">feature.c</text>
</a>
</g>
</g>
<!-- Node3&#45;&gt;Node12 -->
<g id="edge12" class="edge">
<title>Node3&#45;&gt;Node12</title>
<path fill="none" stroke="midnightblue" d="M803.62,-47.57C809.82,-38.27 817.17,-27.25 822.17,-19.75"/>
<polygon fill="midnightblue" stroke="midnightblue" points="800.58,-45.82 797.94,-56.08 806.4,-49.7 800.58,-45.82"/>
</g>
<!-- Node13 -->
<g id="node13" class="node">
<title>Node13</title>
<g id="a_node13"><a xlink:href="image_8c.html" target="_top" xlink:title=" ">
<polygon fill="white" stroke="black" points="876,-0.5 876,-19.5 932,-19.5 932,-0.5 876,-0.5"/>
<text text-anchor="middle" x="904" y="-7.5" font-family="FreeSans" font-size="10.00">image.c</text>
</a>
</g>
</g>
<!-- Node3&#45;&gt;Node13 -->
<g id="edge13" class="edge">
<title>Node3&#45;&gt;Node13</title>
<path fill="none" stroke="midnightblue" d="M819.25,-51.86C840.02,-41.85 868.02,-28.35 886.05,-19.65"/>
<polygon fill="midnightblue" stroke="midnightblue" points="817.48,-48.83 809.99,-56.32 820.52,-55.13 817.48,-48.83"/>
</g>
<!-- Node3&#45;&gt;Node14 -->
<g id="edge14" class="edge">
<title>Node3&#45;&gt;Node14</title>
<path fill="none" stroke="midnightblue" d="M848.16,-56.42C849.45,-56.28 850.73,-56.13 852,-56 1106.18,-29.02 1173.28,-58.36 1426,-20 1428.75,-19.58 1431.59,-19.06 1434.42,-18.48"/>
<polygon fill="midnightblue" stroke="midnightblue" points="847.63,-52.96 838.14,-57.67 848.49,-59.91 847.63,-52.96"/>
</g>
<!-- Node15 -->
<g id="node15" class="node">
<title>Node15</title>
<g id="a_node15"><a xlink:href="property_8c.html" target="_top" xlink:title=" ">
<polygon fill="white" stroke="black" points="950.5,-0.5 950.5,-19.5 1015.5,-19.5 1015.5,-0.5 950.5,-0.5"/>
<text text-anchor="middle" x="983" y="-7.5" font-family="FreeSans" font-size="10.00">property.c</text>
</a>
</g>
</g>
<!-- Node3&#45;&gt;Node15 -->
<g id="edge15" class="edge">
<title>Node3&#45;&gt;Node15</title>
<path fill="none" stroke="midnightblue" d="M831.97,-53.7C868.02,-43.51 920.24,-28.74 952.88,-19.52"/>
<polygon fill="midnightblue" stroke="midnightblue" points="830.94,-50.35 822.26,-56.44 832.84,-57.09 830.94,-50.35"/>
</g>
<!-- Node16 -->
<g id="node16" class="node">
<title>Node16</title>
<g id="a_node16"><a xlink:href="quantum_8c.html" target="_top" xlink:title=" ">
<polygon fill="white" stroke="black" points="1034,-0.5 1034,-19.5 1102,-19.5 1102,-0.5 1034,-0.5"/>
<text text-anchor="middle" x="1068" y="-7.5" font-family="FreeSans" font-size="10.00">quantum.c</text>
</a>
</g>
</g>
<!-- Node3&#45;&gt;Node16 -->
<g id="edge16" class="edge">
<title>Node3&#45;&gt;Node16</title>
<path fill="none" stroke="midnightblue" d="M847.17,-54.6C894.41,-45.63 964.23,-32.23 1025,-20 1027.84,-19.43 1030.79,-18.83 1033.74,-18.22"/>
<polygon fill="midnightblue" stroke="midnightblue" points="846.32,-51.19 837.14,-56.5 847.62,-58.07 846.32,-51.19"/>
</g>
<!-- Node17 -->
<g id="node17" class="node">
<title>Node17</title>
<g id="a_node17"><a xlink:href="resource_8c.html" target="_top" xlink:title=" ">
<polygon fill="white" stroke="black" points="1120.5,-0.5 1120.5,-19.5 1187.5,-19.5 1187.5,-0.5 1120.5,-0.5"/>
<text text-anchor="middle" x="1154" y="-7.5" font-family="FreeSans" font-size="10.00">resource.c</text>
</a>
</g>
</g>
<!-- Node3&#45;&gt;Node17 -->
<g id="edge17" class="edge">
<title>Node3&#45;&gt;Node17</title>
<path fill="none" stroke="midnightblue" d="M848.18,-56.55C849.46,-56.37 850.74,-56.18 852,-56 967.02,-39.38 996.5,-39.92 1111,-20 1114.01,-19.48 1117.12,-18.9 1120.24,-18.29"/>
<polygon fill="midnightblue" stroke="midnightblue" points="847.57,-53.11 838.18,-58.02 848.58,-60.03 847.57,-53.11"/>
</g>
<!-- Node18 -->
<g id="node18" class="node">
<title>Node18</title>
<g id="a_node18"><a xlink:href="shear_8c.html" target="_top" xlink:title=" ">
<polygon fill="white" stroke="black" points="1205.5,-0.5 1205.5,-19.5 1256.5,-19.5 1256.5,-0.5 1205.5,-0.5"/>
<text text-anchor="middle" x="1231" y="-7.5" font-family="FreeSans" font-size="10.00">shear.c</text>
</a>
</g>
</g>
<!-- Node3&#45;&gt;Node18 -->
<g id="edge18" class="edge">
<title>Node3&#45;&gt;Node18</title>
<path fill="none" stroke="midnightblue" d="M848.17,-56.5C849.46,-56.33 850.74,-56.16 852,-56 1004.94,-36.56 1045.36,-47.81 1197,-20 1199.76,-19.49 1202.63,-18.88 1205.48,-18.21"/>
<polygon fill="midnightblue" stroke="midnightblue" points="847.59,-53.04 838.16,-57.86 848.54,-59.98 847.59,-53.04"/>
</g>
<!-- Node19 -->
<g id="node19" class="node">
<title>Node19</title>
<g id="a_node19"><a xlink:href="statistic_8c.html" target="_top" xlink:title=" ">
<polygon fill="white" stroke="black" points="1275,-0.5 1275,-19.5 1339,-19.5 1339,-0.5 1275,-0.5"/>
<text text-anchor="middle" x="1307" y="-7.5" font-family="FreeSans" font-size="10.00">statistic.c</text>
</a>
</g>
</g>
<!-- Node3&#45;&gt;Node19 -->
<g id="edge19" class="edge">
<title>Node3&#45;&gt;Node19</title>
<path fill="none" stroke="midnightblue" d="M848.17,-56.47C849.46,-56.31 850.73,-56.15 852,-56 1035.41,-34.29 1083.42,-47.86 1266,-20 1268.88,-19.56 1271.86,-19.04 1274.84,-18.47"/>
<polygon fill="midnightblue" stroke="midnightblue" points="847.61,-53.01 838.15,-57.78 848.52,-59.95 847.61,-53.01"/>
</g>
<!-- Node20 -->
<g id="node20" class="node">
<title>Node20</title>
<g id="a_node20"><a xlink:href="stream_8c.html" target="_top" xlink:title=" ">
<polygon fill="white" stroke="black" points="1357.5,-0.5 1357.5,-19.5 1416.5,-19.5 1416.5,-0.5 1357.5,-0.5"/>
<text text-anchor="middle" x="1387" y="-7.5" font-family="FreeSans" font-size="10.00">stream.c</text>
</a>
</g>
</g>
<!-- Node3&#45;&gt;Node20 -->
<g id="edge20" class="edge">
<title>Node3&#45;&gt;Node20</title>
<path fill="none" stroke="midnightblue" d="M848.16,-56.44C849.45,-56.29 850.73,-56.14 852,-56 1071.67,-31.59 1129.45,-52.95 1348,-20 1351.02,-19.54 1354.16,-18.98 1357.28,-18.36"/>
<polygon fill="midnightblue" stroke="midnightblue" points="847.62,-52.98 838.14,-57.72 848.5,-59.93 847.62,-52.98"/>
</g>
</g>
</svg>
