<?xml version="1.0" encoding="UTF-8" standalone="no"?>
<!DOCTYPE svg PUBLIC "-//W3C//DTD SVG 1.1//EN"
 "http://www.w3.org/Graphics/SVG/1.1/DTD/svg11.dtd">
<!-- Generated by graphviz version 2.43.0 (0)
 -->
<!-- Title: option.c Pages: 1 -->
<svg width="3458pt" height="420pt"
 viewBox="0.00 0.00 3458.00 420.00" xmlns="http://www.w3.org/2000/svg" xmlns:xlink="http://www.w3.org/1999/xlink">
<g id="graph0" class="graph" transform="scale(1 1) rotate(0) translate(4 416)">
<title>option.c</title>
<polygon fill="white" stroke="transparent" points="-4,4 -4,-416 3454,-416 3454,4 -4,4"/>
<!-- Node1 -->
<g id="node1" class="node">
<title>Node1</title>
<g id="a_node1"><a xlink:title=" ">
<polygon fill="#bfbfbf" stroke="black" points="1104,-392.5 1104,-411.5 1160,-411.5 1160,-392.5 1104,-392.5"/>
<text text-anchor="middle" x="1132" y="-399.5" font-family="FreeSans" font-size="10.00">option.c</text>
</a>
</g>
</g>
<!-- Node2 -->
<g id="node2" class="node">
<title>Node2</title>
<g id="a_node2"><a xlink:href="studio_8h.html" target="_top" xlink:title=" ">
<polygon fill="white" stroke="red" points="1084.5,-336.5 1084.5,-355.5 1179.5,-355.5 1179.5,-336.5 1084.5,-336.5"/>
<text text-anchor="middle" x="1132" y="-343.5" font-family="FreeSans" font-size="10.00">magick/studio.h</text>
</a>
</g>
</g>
<!-- Node1&#45;&gt;Node2 -->
<g id="edge1" class="edge">
<title>Node1&#45;&gt;Node2</title>
<path fill="none" stroke="midnightblue" d="M1132,-392.08C1132,-385.01 1132,-374.86 1132,-365.99"/>
<polygon fill="midnightblue" stroke="midnightblue" points="1135.5,-365.75 1132,-355.75 1128.5,-365.75 1135.5,-365.75"/>
</g>
<!-- Node24 -->
<g id="node15" class="node">
<title>Node24</title>
<g id="a_node15"><a xlink:href="artifact_8h.html" target="_top" xlink:title=" ">
<polygon fill="white" stroke="black" points="1327,-336.5 1327,-355.5 1427,-355.5 1427,-336.5 1327,-336.5"/>
<text text-anchor="middle" x="1377" y="-343.5" font-family="FreeSans" font-size="10.00">magick/artifact.h</text>
</a>
</g>
</g>
<!-- Node1&#45;&gt;Node24 -->
<g id="edge14" class="edge">
<title>Node1&#45;&gt;Node24</title>
<path fill="none" stroke="midnightblue" d="M1160.1,-394.81C1201.14,-385.76 1278.05,-368.81 1328.38,-357.72"/>
<polygon fill="midnightblue" stroke="midnightblue" points="1329.37,-361.08 1338.39,-355.51 1327.87,-354.25 1329.37,-361.08"/>
</g>
<!-- Node25 -->
<g id="node16" class="node">
<title>Node25</title>
<g id="a_node16"><a xlink:href="cache_8h.html" target="_top" xlink:title=" ">
<polygon fill="white" stroke="red" points="1445.5,-336.5 1445.5,-355.5 1538.5,-355.5 1538.5,-336.5 1445.5,-336.5"/>
<text text-anchor="middle" x="1492" y="-343.5" font-family="FreeSans" font-size="10.00">magick/cache.h</text>
</a>
</g>
</g>
<!-- Node1&#45;&gt;Node25 -->
<g id="edge15" class="edge">
<title>Node1&#45;&gt;Node25</title>
<path fill="none" stroke="midnightblue" d="M1160.1,-396.96C1212.13,-389.45 1327.25,-372.72 1435.17,-356.11"/>
<polygon fill="midnightblue" stroke="midnightblue" points="1435.91,-359.54 1445.26,-354.56 1434.84,-352.62 1435.91,-359.54"/>
</g>
<!-- Node28 -->
<g id="node17" class="node">
<title>Node28</title>
<g id="a_node17"><a xlink:href="color_8h.html" target="_top" xlink:title=" ">
<polygon fill="white" stroke="red" points="306,-112.5 306,-131.5 394,-131.5 394,-112.5 306,-112.5"/>
<text text-anchor="middle" x="350" y="-119.5" font-family="FreeSans" font-size="10.00">magick/color.h</text>
</a>
</g>
</g>
<!-- Node1&#45;&gt;Node28 -->
<g id="edge16" class="edge">
<title>Node1&#45;&gt;Node28</title>
<path fill="none" stroke="midnightblue" d="M1103.97,-400.76C949.71,-399.28 209.83,-390.42 177,-356 104.89,-280.41 263.09,-174.41 325.82,-136.85"/>
<polygon fill="midnightblue" stroke="midnightblue" points="327.85,-139.72 334.68,-131.62 324.29,-133.69 327.85,-139.72"/>
</g>
<!-- Node32 -->
<g id="node18" class="node">
<title>Node32</title>
<g id="a_node18"><a xlink:href="exception_8h.html" target="_top" xlink:title=" ">
<polygon fill="white" stroke="red" points="98.5,-56.5 98.5,-75.5 211.5,-75.5 211.5,-56.5 98.5,-56.5"/>
<text text-anchor="middle" x="155" y="-63.5" font-family="FreeSans" font-size="10.00">magick/exception.h</text>
</a>
</g>
</g>
<!-- Node1&#45;&gt;Node32 -->
<g id="edge38" class="edge">
<title>Node1&#45;&gt;Node32</title>
<path fill="none" stroke="midnightblue" d="M1103.68,-401.23C952.49,-402.27 244.31,-404.5 161,-356 131.48,-338.82 120,-325.16 120,-291 120,-291 120,-291 120,-177 120,-143.07 135.31,-105.91 145.68,-84.63"/>
<polygon fill="midnightblue" stroke="midnightblue" points="148.88,-86.05 150.28,-75.54 142.64,-82.88 148.88,-86.05"/>
</g>
<!-- Node52 -->
<g id="node19" class="node">
<title>Node52</title>
<g id="a_node19"><a xlink:href="compare_8h.html" target="_top" xlink:title=" ">
<polygon fill="white" stroke="black" points="768.5,-224.5 768.5,-243.5 875.5,-243.5 875.5,-224.5 768.5,-224.5"/>
<text text-anchor="middle" x="822" y="-231.5" font-family="FreeSans" font-size="10.00">magick/compare.h</text>
</a>
</g>
</g>
<!-- Node1&#45;&gt;Node52 -->
<g id="edge19" class="edge">
<title>Node1&#45;&gt;Node52</title>
<path fill="none" stroke="midnightblue" d="M1103.96,-398.76C1047.82,-393.81 924.05,-380.38 890,-356 871.51,-342.76 843.32,-283.27 829.79,-252.92"/>
<polygon fill="midnightblue" stroke="midnightblue" points="832.88,-251.27 825.65,-243.53 826.48,-254.09 832.88,-251.27"/>
</g>
<!-- Node27 -->
<g id="node20" class="node">
<title>Node27</title>
<g id="a_node20"><a xlink:href="image_8h.html" target="_top" xlink:title=" ">
<polygon fill="white" stroke="red" points="639.5,-168.5 639.5,-187.5 734.5,-187.5 734.5,-168.5 639.5,-168.5"/>
<text text-anchor="middle" x="687" y="-175.5" font-family="FreeSans" font-size="10.00">magick/image.h</text>
</a>
</g>
</g>
<!-- Node1&#45;&gt;Node27 -->
<g id="edge49" class="edge">
<title>Node1&#45;&gt;Node27</title>
<path fill="none" stroke="midnightblue" d="M1103.82,-398.66C1044.61,-393.36 909.46,-379.03 870,-356 832.35,-334.03 844.1,-304.43 808,-280 763.65,-249.98 726.67,-285.65 693,-244 682.66,-231.2 682.12,-212.01 683.59,-197.8"/>
<polygon fill="midnightblue" stroke="midnightblue" points="687.08,-198.08 685.05,-187.68 680.15,-197.08 687.08,-198.08"/>
</g>
<!-- Node37 -->
<g id="node21" class="node">
<title>Node37</title>
<g id="a_node21"><a xlink:href="effect_8h.html" target="_top" xlink:title=" ">
<polygon fill="white" stroke="black" points="969,-112.5 969,-131.5 1061,-131.5 1061,-112.5 969,-112.5"/>
<text text-anchor="middle" x="1015" y="-119.5" font-family="FreeSans" font-size="10.00">magick/effect.h</text>
</a>
</g>
</g>
<!-- Node1&#45;&gt;Node37 -->
<g id="edge37" class="edge">
<title>Node1&#45;&gt;Node37</title>
<path fill="none" stroke="midnightblue" d="M1103.78,-393.02C1084.07,-386.14 1058.43,-374.35 1042,-356 1021.45,-333.06 1018,-321.8 1018,-291 1018,-291 1018,-291 1018,-233 1018,-200.94 1016.71,-163.63 1015.82,-141.74"/>
<polygon fill="midnightblue" stroke="midnightblue" points="1019.31,-141.4 1015.39,-131.56 1012.32,-141.69 1019.31,-141.4"/>
</g>
<!-- Node38 -->
<g id="node22" class="node">
<title>Node38</title>
<g id="a_node22"><a xlink:href="morphology_8h.html" target="_top" xlink:title=" ">
<polygon fill="white" stroke="black" points="954,-56.5 954,-75.5 1076,-75.5 1076,-56.5 954,-56.5"/>
<text text-anchor="middle" x="1015" y="-63.5" font-family="FreeSans" font-size="10.00">magick/morphology.h</text>
</a>
</g>
</g>
<!-- Node1&#45;&gt;Node38 -->
<g id="edge58" class="edge">
<title>Node1&#45;&gt;Node38</title>
<path fill="none" stroke="midnightblue" d="M1114.29,-392.5C1100.82,-384.97 1083.25,-372.59 1075,-356 1026.7,-258.88 1117.45,-209.54 1070,-112 1063.7,-99.04 1051.7,-88.54 1040.51,-80.96"/>
<polygon fill="midnightblue" stroke="midnightblue" points="1042.17,-77.86 1031.84,-75.5 1038.44,-83.79 1042.17,-77.86"/>
</g>
<!-- Node39 -->
<g id="node23" class="node">
<title>Node39</title>
<g id="a_node23"><a xlink:href="geometry_8h.html" target="_top" xlink:title=" ">
<polygon fill="white" stroke="black" points="499,-0.5 499,-19.5 609,-19.5 609,-0.5 499,-0.5"/>
<text text-anchor="middle" x="554" y="-7.5" font-family="FreeSans" font-size="10.00">magick/geometry.h</text>
</a>
</g>
</g>
<!-- Node1&#45;&gt;Node39 -->
<g id="edge48" class="edge">
<title>Node1&#45;&gt;Node39</title>
<path fill="none" stroke="midnightblue" d="M1103.91,-400.5C984.05,-398.18 518.93,-387.21 462,-356 347.21,-293.07 223.28,-220.18 297,-112 339.71,-49.33 427.77,-25.55 488.83,-16.52"/>
<polygon fill="midnightblue" stroke="midnightblue" points="489.33,-19.98 498.76,-15.15 488.37,-13.05 489.33,-19.98"/>
</g>
<!-- Node40 -->
<g id="node24" class="node">
<title>Node40</title>
<g id="a_node24"><a xlink:href="layer_8h.html" target="_top" xlink:title=" ">
<polygon fill="white" stroke="black" points="450.5,-112.5 450.5,-131.5 539.5,-131.5 539.5,-112.5 450.5,-112.5"/>
<text text-anchor="middle" x="495" y="-119.5" font-family="FreeSans" font-size="10.00">magick/layer.h</text>
</a>
</g>
</g>
<!-- Node1&#45;&gt;Node40 -->
<g id="edge51" class="edge">
<title>Node1&#45;&gt;Node40</title>
<path fill="none" stroke="midnightblue" d="M1103.89,-400.16C989.15,-396.57 559.77,-381.54 505,-356 468.54,-339 442,-331.23 442,-291 442,-291 442,-291 442,-233 442,-196.99 465.33,-160.34 481.04,-139.75"/>
<polygon fill="midnightblue" stroke="midnightblue" points="483.93,-141.73 487.41,-131.72 478.45,-137.38 483.93,-141.73"/>
</g>
<!-- Node43 -->
<g id="node25" class="node">
<title>Node43</title>
<g id="a_node25"><a xlink:href="monitor_8h.html" target="_top" xlink:title=" ">
<polygon fill="white" stroke="black" points="557,-112.5 557,-131.5 659,-131.5 659,-112.5 557,-112.5"/>
<text text-anchor="middle" x="608" y="-119.5" font-family="FreeSans" font-size="10.00">magick/monitor.h</text>
</a>
</g>
</g>
<!-- Node1&#45;&gt;Node43 -->
<g id="edge56" class="edge">
<title>Node1&#45;&gt;Node43</title>
<path fill="none" stroke="midnightblue" d="M1103.78,-400.24C1007.22,-397.41 690.68,-385.99 594,-356 538.3,-338.72 480,-349.32 480,-291 480,-291 480,-291 480,-233 480,-183.64 535.42,-151.61 573.33,-135.48"/>
<polygon fill="midnightblue" stroke="midnightblue" points="575.07,-138.55 583.02,-131.53 572.43,-132.06 575.07,-138.55"/>
</g>
<!-- Node46 -->
<g id="node26" class="node">
<title>Node46</title>
<g id="a_node26"><a xlink:href="quantum_8h.html" target="_top" xlink:title=" ">
<polygon fill="white" stroke="red" points="715,-112.5 715,-131.5 823,-131.5 823,-112.5 715,-112.5"/>
<text text-anchor="middle" x="769" y="-119.5" font-family="FreeSans" font-size="10.00">magick/quantum.h</text>
</a>
</g>
</g>
<!-- Node1&#45;&gt;Node46 -->
<g id="edge65" class="edge">
<title>Node1&#45;&gt;Node46</title>
<path fill="none" stroke="midnightblue" d="M1103.58,-400.1C1042.47,-396.51 904,-378.68 904,-291 904,-291 904,-291 904,-233 904,-182.31 846.09,-150.83 806.12,-135.14"/>
<polygon fill="midnightblue" stroke="midnightblue" points="807.24,-131.82 796.65,-131.58 804.78,-138.38 807.24,-131.82"/>
</g>
<!-- Node48 -->
<g id="node27" class="node">
<title>Node48</title>
<g id="a_node27"><a xlink:href="resample_8h.html" target="_top" xlink:title=" ">
<polygon fill="white" stroke="red" points="841,-112.5 841,-131.5 951,-131.5 951,-112.5 841,-112.5"/>
<text text-anchor="middle" x="896" y="-119.5" font-family="FreeSans" font-size="10.00">magick/resample.h</text>
</a>
</g>
</g>
<!-- Node1&#45;&gt;Node48 -->
<g id="edge66" class="edge">
<title>Node1&#45;&gt;Node48</title>
<path fill="none" stroke="midnightblue" d="M1103.96,-397.78C1051.11,-389.99 942,-364.94 942,-291 942,-291 942,-291 942,-233 942,-197.82 921.72,-160.86 908.09,-140"/>
<polygon fill="midnightblue" stroke="midnightblue" points="910.91,-137.92 902.4,-131.61 905.12,-141.85 910.91,-137.92"/>
</g>
<!-- Node31 -->
<g id="node28" class="node">
<title>Node31</title>
<g id="a_node28"><a xlink:href="constitute_8h.html" target="_top" xlink:title=" ">
<polygon fill="white" stroke="black" points="1556.5,-336.5 1556.5,-355.5 1669.5,-355.5 1669.5,-336.5 1556.5,-336.5"/>
<text text-anchor="middle" x="1613" y="-343.5" font-family="FreeSans" font-size="10.00">magick/constitute.h</text>
</a>
</g>
</g>
<!-- Node1&#45;&gt;Node31 -->
<g id="edge31" class="edge">
<title>Node1&#45;&gt;Node31</title>
<path fill="none" stroke="midnightblue" d="M1160.28,-398.23C1226.1,-391.74 1394.9,-374.71 1546.34,-356.18"/>
<polygon fill="midnightblue" stroke="midnightblue" points="1546.79,-359.65 1556.29,-354.95 1545.94,-352.7 1546.79,-359.65"/>
</g>
<!-- Node53 -->
<g id="node29" class="node">
<title>Node53</title>
<g id="a_node29"><a xlink:href="distort_8h.html" target="_top" xlink:title=" ">
<polygon fill="white" stroke="black" points="1688,-336.5 1688,-355.5 1784,-355.5 1784,-336.5 1688,-336.5"/>
<text text-anchor="middle" x="1736" y="-343.5" font-family="FreeSans" font-size="10.00">magick/distort.h</text>
</a>
</g>
</g>
<!-- Node1&#45;&gt;Node53 -->
<g id="edge32" class="edge">
<title>Node1&#45;&gt;Node53</title>
<path fill="none" stroke="midnightblue" d="M1160.26,-399.42C1239.93,-394.81 1473.35,-380.22 1677.81,-356.06"/>
<polygon fill="midnightblue" stroke="midnightblue" points="1678.32,-359.52 1687.83,-354.86 1677.49,-352.57 1678.32,-359.52"/>
</g>
<!-- Node54 -->
<g id="node30" class="node">
<title>Node54</title>
<g id="a_node30"><a xlink:href="draw_8h.html" target="_top" xlink:title=" ">
<polygon fill="white" stroke="red" points="537,-224.5 537,-243.5 625,-243.5 625,-224.5 537,-224.5"/>
<text text-anchor="middle" x="581" y="-231.5" font-family="FreeSans" font-size="10.00">magick/draw.h</text>
</a>
</g>
</g>
<!-- Node1&#45;&gt;Node54 -->
<g id="edge33" class="edge">
<title>Node1&#45;&gt;Node54</title>
<path fill="none" stroke="midnightblue" d="M1103.87,-401.5C1014.76,-402.61 740.29,-402.1 667,-356 633.58,-334.98 644.44,-311.78 621,-280 613.55,-269.91 604.3,-259.39 596.57,-251.06"/>
<polygon fill="midnightblue" stroke="midnightblue" points="598.89,-248.42 589.47,-243.56 593.8,-253.23 598.89,-248.42"/>
</g>
<!-- Node56 -->
<g id="node31" class="node">
<title>Node56</title>
<g id="a_node31"><a xlink:href="exception-private_8h.html" target="_top" xlink:title=" ">
<polygon fill="white" stroke="red" points="186.5,-336.5 186.5,-355.5 337.5,-355.5 337.5,-336.5 186.5,-336.5"/>
<text text-anchor="middle" x="262" y="-343.5" font-family="FreeSans" font-size="10.00">magick/exception&#45;private.h</text>
</a>
</g>
</g>
<!-- Node1&#45;&gt;Node56 -->
<g id="edge39" class="edge">
<title>Node1&#45;&gt;Node56</title>
<path fill="none" stroke="midnightblue" d="M1103.99,-399.81C1002.67,-395.42 645.77,-379.15 352,-356 350.68,-355.9 349.35,-355.79 348.01,-355.68"/>
<polygon fill="midnightblue" stroke="midnightblue" points="347.86,-352.15 337.6,-354.79 347.27,-359.13 347.86,-352.15"/>
</g>
<!-- Node45 -->
<g id="node32" class="node">
<title>Node45</title>
<g id="a_node32"><a xlink:href="string___8h.html" target="_top" xlink:title=" ">
<polygon fill="white" stroke="black" points="213,-280.5 213,-299.5 311,-299.5 311,-280.5 213,-280.5"/>
<text text-anchor="middle" x="262" y="-287.5" font-family="FreeSans" font-size="10.00">magick/string_.h</text>
</a>
</g>
</g>
<!-- Node1&#45;&gt;Node45 -->
<g id="edge71" class="edge">
<title>Node1&#45;&gt;Node45</title>
<path fill="none" stroke="midnightblue" d="M1103.93,-400.82C985.74,-399.83 528.4,-393.59 390,-356 379.23,-353.07 320.84,-322.41 286.76,-304.26"/>
<polygon fill="midnightblue" stroke="midnightblue" points="288.33,-301.13 277.86,-299.51 285.03,-307.31 288.33,-301.13"/>
</g>
<!-- Node59 -->
<g id="node33" class="node">
<title>Node59</title>
<g id="a_node33"><a xlink:href="fourier_8h.html" target="_top" xlink:title=" ">
<polygon fill="white" stroke="black" points="1802,-336.5 1802,-355.5 1898,-355.5 1898,-336.5 1802,-336.5"/>
<text text-anchor="middle" x="1850" y="-343.5" font-family="FreeSans" font-size="10.00">magick/fourier.h</text>
</a>
</g>
</g>
<!-- Node1&#45;&gt;Node59 -->
<g id="edge44" class="edge">
<title>Node1&#45;&gt;Node59</title>
<path fill="none" stroke="midnightblue" d="M1160.11,-399.98C1250.33,-396.51 1540.89,-383.89 1791.8,-356.04"/>
<polygon fill="midnightblue" stroke="midnightblue" points="1792.29,-359.5 1801.84,-354.91 1791.51,-352.55 1792.29,-359.5"/>
</g>
<!-- Node60 -->
<g id="node34" class="node">
<title>Node60</title>
<g id="a_node34"><a xlink:href="gem_8h.html" target="_top" xlink:title=" ">
<polygon fill="white" stroke="red" points="676,-336.5 676,-355.5 762,-355.5 762,-336.5 676,-336.5"/>
<text text-anchor="middle" x="719" y="-343.5" font-family="FreeSans" font-size="10.00">magick/gem.h</text>
</a>
</g>
</g>
<!-- Node1&#45;&gt;Node60 -->
<g id="edge45" class="edge">
<title>Node1&#45;&gt;Node60</title>
<path fill="none" stroke="midnightblue" d="M1103.81,-397.74C1043.56,-390.7 897.81,-373.31 776,-356 774.74,-355.82 773.47,-355.64 772.19,-355.45"/>
<polygon fill="midnightblue" stroke="midnightblue" points="772.65,-351.98 762.24,-353.97 771.61,-358.91 772.65,-351.98"/>
</g>
<!-- Node62 -->
<g id="node35" class="node">
<title>Node62</title>
<g id="a_node35"><a xlink:href="visual-effects_8h.html" target="_top" xlink:title=" ">
<polygon fill="white" stroke="black" points="668.5,-280.5 668.5,-299.5 799.5,-299.5 799.5,-280.5 668.5,-280.5"/>
<text text-anchor="middle" x="734" y="-287.5" font-family="FreeSans" font-size="10.00">magick/visual&#45;effects.h</text>
</a>
</g>
</g>
<!-- Node1&#45;&gt;Node62 -->
<g id="edge75" class="edge">
<title>Node1&#45;&gt;Node62</title>
<path fill="none" stroke="midnightblue" d="M1103.92,-398.96C1036.27,-393.74 866,-378.69 814,-356 788.26,-344.77 764.01,-322.88 749.1,-307.62"/>
<polygon fill="midnightblue" stroke="midnightblue" points="751.25,-304.79 741.83,-299.94 746.16,-309.6 751.25,-304.79"/>
</g>
<!-- Node63 -->
<g id="node36" class="node">
<title>Node63</title>
<g id="a_node36"><a xlink:href="image-private_8h.html" target="_top" xlink:title=" ">
<polygon fill="white" stroke="black" points="1916,-336.5 1916,-355.5 2050,-355.5 2050,-336.5 1916,-336.5"/>
<text text-anchor="middle" x="1983" y="-343.5" font-family="FreeSans" font-size="10.00">magick/image&#45;private.h</text>
</a>
</g>
</g>
<!-- Node1&#45;&gt;Node63 -->
<g id="edge50" class="edge">
<title>Node1&#45;&gt;Node63</title>
<path fill="none" stroke="midnightblue" d="M1160.2,-399.97C1260.24,-396.2 1607.74,-382.01 1905.75,-356.06"/>
<polygon fill="midnightblue" stroke="midnightblue" points="1906.23,-359.53 1915.89,-355.17 1905.62,-352.56 1906.23,-359.53"/>
</g>
<!-- Node64 -->
<g id="node37" class="node">
<title>Node64</title>
<g id="a_node37"><a xlink:href="mime-private_8h.html" target="_top" xlink:title=" ">
<polygon fill="white" stroke="black" points="2068.5,-336.5 2068.5,-355.5 2199.5,-355.5 2199.5,-336.5 2068.5,-336.5"/>
<text text-anchor="middle" x="2134" y="-343.5" font-family="FreeSans" font-size="10.00">magick/mime&#45;private.h</text>
</a>
</g>
</g>
<!-- Node1&#45;&gt;Node64 -->
<g id="edge52" class="edge">
<title>Node1&#45;&gt;Node64</title>
<path fill="none" stroke="midnightblue" d="M1160.11,-400.36C1272.03,-397.67 1696.98,-386.02 2058.05,-356.01"/>
<polygon fill="midnightblue" stroke="midnightblue" points="2058.5,-359.49 2068.18,-355.17 2057.92,-352.51 2058.5,-359.49"/>
</g>
<!-- Node65 -->
<g id="node38" class="node">
<title>Node65</title>
<g id="a_node38"><a xlink:href="memory___8h.html" target="_top" xlink:title=" ">
<polygon fill="white" stroke="black" points="1197.5,-336.5 1197.5,-355.5 1308.5,-355.5 1308.5,-336.5 1197.5,-336.5"/>
<text text-anchor="middle" x="1253" y="-343.5" font-family="FreeSans" font-size="10.00">magick/memory_.h</text>
</a>
</g>
</g>
<!-- Node1&#45;&gt;Node65 -->
<g id="edge53" class="edge">
<title>Node1&#45;&gt;Node65</title>
<path fill="none" stroke="midnightblue" d="M1151.17,-392.44C1170.91,-383.64 1201.89,-369.81 1224.49,-359.72"/>
<polygon fill="midnightblue" stroke="midnightblue" points="1226.21,-362.79 1233.92,-355.52 1223.36,-356.4 1226.21,-362.79"/>
</g>
<!-- Node66 -->
<g id="node39" class="node">
<title>Node66</title>
<g id="a_node39"><a xlink:href="montage_8h.html" target="_top" xlink:title=" ">
<polygon fill="white" stroke="black" points="2218,-336.5 2218,-355.5 2326,-355.5 2326,-336.5 2218,-336.5"/>
<text text-anchor="middle" x="2272" y="-343.5" font-family="FreeSans" font-size="10.00">magick/montage.h</text>
</a>
</g>
</g>
<!-- Node1&#45;&gt;Node66 -->
<g id="edge57" class="edge">
<title>Node1&#45;&gt;Node66</title>
<path fill="none" stroke="midnightblue" d="M1160.36,-400.86C1283.66,-400.02 1785.5,-394.36 2207.78,-356.01"/>
<polygon fill="midnightblue" stroke="midnightblue" points="2208.11,-359.5 2217.74,-355.1 2207.47,-352.53 2208.11,-359.5"/>
</g>
<!-- Node67 -->
<g id="node40" class="node">
<title>Node67</title>
<g id="a_node40"><a xlink:href="option_8h.html" target="_top" xlink:title=" ">
<polygon fill="white" stroke="black" points="2344.5,-336.5 2344.5,-355.5 2439.5,-355.5 2439.5,-336.5 2344.5,-336.5"/>
<text text-anchor="middle" x="2392" y="-343.5" font-family="FreeSans" font-size="10.00">magick/option.h</text>
</a>
</g>
</g>
<!-- Node1&#45;&gt;Node67 -->
<g id="edge59" class="edge">
<title>Node1&#45;&gt;Node67</title>
<path fill="none" stroke="midnightblue" d="M1160.06,-401.18C1291.42,-401.79 1858.85,-401.54 2334.31,-355.92"/>
<polygon fill="midnightblue" stroke="midnightblue" points="2334.85,-359.39 2344.47,-354.94 2334.18,-352.42 2334.85,-359.39"/>
</g>
<!-- Node68 -->
<g id="node41" class="node">
<title>Node68</title>
<g id="a_node41"><a xlink:href="option-private_8h.html" target="_top" xlink:title=" ">
<polygon fill="white" stroke="black" points="2458,-336.5 2458,-355.5 2592,-355.5 2592,-336.5 2458,-336.5"/>
<text text-anchor="middle" x="2525" y="-343.5" font-family="FreeSans" font-size="10.00">magick/option&#45;private.h</text>
</a>
</g>
</g>
<!-- Node1&#45;&gt;Node68 -->
<g id="edge60" class="edge">
<title>Node1&#45;&gt;Node68</title>
<path fill="none" stroke="midnightblue" d="M1160.31,-400.91C1299.47,-400.29 1924.87,-395.37 2447.88,-356.01"/>
<polygon fill="midnightblue" stroke="midnightblue" points="2448.19,-359.5 2457.89,-355.26 2447.66,-352.52 2448.19,-359.5"/>
</g>
<!-- Node69 -->
<g id="node42" class="node">
<title>Node69</title>
<g id="a_node42"><a xlink:href="policy_8h.html" target="_top" xlink:title=" ">
<polygon fill="white" stroke="red" points="0,-168.5 0,-187.5 92,-187.5 92,-168.5 0,-168.5"/>
<text text-anchor="middle" x="46" y="-175.5" font-family="FreeSans" font-size="10.00">magick/policy.h</text>
</a>
</g>
</g>
<!-- Node1&#45;&gt;Node69 -->
<g id="edge61" class="edge">
<title>Node1&#45;&gt;Node69</title>
<path fill="none" stroke="midnightblue" d="M1103.93,-400.66C943.37,-398.59 147.02,-386.79 106,-356 55.42,-318.04 47.08,-235.28 45.98,-197.94"/>
<polygon fill="midnightblue" stroke="midnightblue" points="49.47,-197.48 45.83,-187.53 42.47,-197.58 49.47,-197.48"/>
</g>
<!-- Node70 -->
<g id="node43" class="node">
<title>Node70</title>
<g id="a_node43"><a xlink:href="property_8h.html" target="_top" xlink:title=" ">
<polygon fill="white" stroke="black" points="2610,-336.5 2610,-355.5 2714,-355.5 2714,-336.5 2610,-336.5"/>
<text text-anchor="middle" x="2662" y="-343.5" font-family="FreeSans" font-size="10.00">magick/property.h</text>
</a>
</g>
</g>
<!-- Node1&#45;&gt;Node70 -->
<g id="edge63" class="edge">
<title>Node1&#45;&gt;Node70</title>
<path fill="none" stroke="midnightblue" d="M1160.25,-400.58C1336.29,-397.91 2285.32,-382.53 2599.79,-355.98"/>
<polygon fill="midnightblue" stroke="midnightblue" points="2600.14,-359.46 2609.8,-355.11 2599.54,-352.48 2600.14,-359.46"/>
</g>
<!-- Node71 -->
<g id="node44" class="node">
<title>Node71</title>
<g id="a_node44"><a xlink:href="quantize_8h.html" target="_top" xlink:title=" ">
<polygon fill="white" stroke="red" points="2732.5,-336.5 2732.5,-355.5 2839.5,-355.5 2839.5,-336.5 2732.5,-336.5"/>
<text text-anchor="middle" x="2786" y="-343.5" font-family="FreeSans" font-size="10.00">magick/quantize.h</text>
</a>
</g>
</g>
<!-- Node1&#45;&gt;Node71 -->
<g id="edge64" class="edge">
<title>Node1&#45;&gt;Node71</title>
<path fill="none" stroke="midnightblue" d="M1160.15,-400.64C1344.41,-398.23 2381.02,-383.67 2722.29,-355.92"/>
<polygon fill="midnightblue" stroke="midnightblue" points="2722.76,-359.39 2732.43,-355.07 2722.17,-352.42 2722.76,-359.39"/>
</g>
<!-- Node72 -->
<g id="node45" class="node">
<title>Node72</title>
<g id="a_node45"><a xlink:href="resource___8h.html" target="_top" xlink:title=" ">
<polygon fill="white" stroke="black" points="2858,-336.5 2858,-355.5 2970,-355.5 2970,-336.5 2858,-336.5"/>
<text text-anchor="middle" x="2914" y="-343.5" font-family="FreeSans" font-size="10.00">magick/resource_.h</text>
</a>
</g>
</g>
<!-- Node1&#45;&gt;Node72 -->
<g id="edge67" class="edge">
<title>Node1&#45;&gt;Node72</title>
<path fill="none" stroke="midnightblue" d="M1160.16,-400.69C1352.86,-398.52 2480.09,-384.8 2847.55,-356"/>
<polygon fill="midnightblue" stroke="midnightblue" points="2847.98,-359.48 2857.67,-355.19 2847.42,-352.5 2847.98,-359.48"/>
</g>
<!-- Node73 -->
<g id="node46" class="node">
<title>Node73</title>
<g id="a_node46"><a xlink:href="splay-tree_8h.html" target="_top" xlink:title=" ">
<polygon fill="white" stroke="black" points="2988,-336.5 2988,-355.5 3102,-355.5 3102,-336.5 2988,-336.5"/>
<text text-anchor="middle" x="3045" y="-343.5" font-family="FreeSans" font-size="10.00">magick/splay&#45;tree.h</text>
</a>
</g>
</g>
<!-- Node1&#45;&gt;Node73 -->
<g id="edge68" class="edge">
<title>Node1&#45;&gt;Node73</title>
<path fill="none" stroke="midnightblue" d="M1160.31,-400.74C1361.86,-398.85 2582.6,-386.28 2977.77,-355.98"/>
<polygon fill="midnightblue" stroke="midnightblue" points="2978.11,-359.47 2987.8,-355.2 2977.56,-352.49 2978.11,-359.47"/>
</g>
<!-- Node74 -->
<g id="node47" class="node">
<title>Node74</title>
<g id="a_node47"><a xlink:href="statistic_8h.html" target="_top" xlink:title=" ">
<polygon fill="white" stroke="black" points="508,-280.5 508,-299.5 612,-299.5 612,-280.5 508,-280.5"/>
<text text-anchor="middle" x="560" y="-287.5" font-family="FreeSans" font-size="10.00">magick/statistic.h</text>
</a>
</g>
</g>
<!-- Node1&#45;&gt;Node74 -->
<g id="edge69" class="edge">
<title>Node1&#45;&gt;Node74</title>
<path fill="none" stroke="midnightblue" d="M1103.84,-400.97C1010.46,-400.49 712.05,-395.8 626,-356 603.06,-345.39 583.41,-323.31 571.66,-307.84"/>
<polygon fill="midnightblue" stroke="midnightblue" points="574.4,-305.66 565.69,-299.64 568.74,-309.78 574.4,-305.66"/>
</g>
<!-- Node75 -->
<g id="node48" class="node">
<title>Node75</title>
<g id="a_node48"><a xlink:href="threshold_8h.html" target="_top" xlink:title=" ">
<polygon fill="white" stroke="black" points="3120,-336.5 3120,-355.5 3230,-355.5 3230,-336.5 3120,-336.5"/>
<text text-anchor="middle" x="3175" y="-343.5" font-family="FreeSans" font-size="10.00">magick/threshold.h</text>
</a>
</g>
</g>
<!-- Node1&#45;&gt;Node75 -->
<g id="edge72" class="edge">
<title>Node1&#45;&gt;Node75</title>
<path fill="none" stroke="midnightblue" d="M1160.28,-400.81C1369.96,-399.35 2686.21,-389 3109.75,-355.98"/>
<polygon fill="midnightblue" stroke="midnightblue" points="3110.2,-359.45 3119.89,-355.17 3109.64,-352.47 3110.2,-359.45"/>
</g>
<!-- Node76 -->
<g id="node49" class="node">
<title>Node76</title>
<g id="a_node49"><a xlink:href="token_8h.html" target="_top" xlink:title=" ">
<polygon fill="white" stroke="black" points="3248,-336.5 3248,-355.5 3340,-355.5 3340,-336.5 3248,-336.5"/>
<text text-anchor="middle" x="3294" y="-343.5" font-family="FreeSans" font-size="10.00">magick/token.h</text>
</a>
</g>
</g>
<!-- Node1&#45;&gt;Node76 -->
<g id="edge73" class="edge">
<title>Node1&#45;&gt;Node76</title>
<path fill="none" stroke="midnightblue" d="M1160,-400.95C1376.51,-400.44 2787.04,-395.68 3237.7,-355.95"/>
<polygon fill="midnightblue" stroke="midnightblue" points="3238.2,-359.42 3247.85,-355.04 3237.57,-352.45 3238.2,-359.42"/>
</g>
<!-- Node77 -->
<g id="node50" class="node">
<title>Node77</title>
<g id="a_node50"><a xlink:href="utility_8h.html" target="_top" xlink:title=" ">
<polygon fill="white" stroke="black" points="3358,-336.5 3358,-355.5 3450,-355.5 3450,-336.5 3358,-336.5"/>
<text text-anchor="middle" x="3404" y="-343.5" font-family="FreeSans" font-size="10.00">magick/utility.h</text>
</a>
</g>
</g>
<!-- Node1&#45;&gt;Node77 -->
<g id="edge74" class="edge">
<title>Node1&#45;&gt;Node77</title>
<path fill="none" stroke="midnightblue" d="M1160.02,-400.98C1383.04,-400.73 2873.86,-397.57 3347.86,-355.94"/>
<polygon fill="midnightblue" stroke="midnightblue" points="3348.2,-359.42 3357.85,-355.04 3347.57,-352.45 3348.2,-359.42"/>
</g>
<!-- Node3 -->
<g id="node3" class="node">
<title>Node3</title>
<g id="a_node3"><a xlink:href="magick-config_8h.html" target="_top" xlink:title=" ">
<polygon fill="white" stroke="red" points="1267,-280.5 1267,-299.5 1401,-299.5 1401,-280.5 1267,-280.5"/>
<text text-anchor="middle" x="1334" y="-287.5" font-family="FreeSans" font-size="10.00">magick/magick&#45;config.h</text>
</a>
</g>
</g>
<!-- Node2&#45;&gt;Node3 -->
<g id="edge2" class="edge">
<title>Node2&#45;&gt;Node3</title>
<path fill="none" stroke="midnightblue" d="M1164.01,-336.44C1198.73,-327.16 1254.29,-312.31 1292.38,-302.13"/>
<polygon fill="midnightblue" stroke="midnightblue" points="1293.39,-305.48 1302.14,-299.52 1291.58,-298.72 1293.39,-305.48"/>
</g>
<!-- Node5 -->
<g id="node4" class="node">
<title>Node5</title>
<g id="a_node4"><a xlink:title=" ">
<polygon fill="white" stroke="#bfbfbf" points="212,-0.5 212,-19.5 268,-19.5 268,-0.5 212,-0.5"/>
<text text-anchor="middle" x="240" y="-7.5" font-family="FreeSans" font-size="10.00">stdarg.h</text>
</a>
</g>
</g>
<!-- Node2&#45;&gt;Node5 -->
<g id="edge3" class="edge">
<title>Node2&#45;&gt;Node5</title>
<path fill="none" stroke="midnightblue" d="M1127.44,-336.3C1123,-327.42 1116.44,-313.13 1113,-300 1085.33,-194.41 1164.55,-130.74 1085,-56 1070.09,-41.99 440.77,-18.27 278.07,-12.36"/>
<polygon fill="midnightblue" stroke="midnightblue" points="278.16,-8.86 268.04,-12 277.91,-15.86 278.16,-8.86"/>
</g>
<!-- Node6 -->
<g id="node5" class="node">
<title>Node6</title>
<g id="a_node5"><a xlink:title=" ">
<polygon fill="white" stroke="#bfbfbf" points="1419,-280.5 1419,-299.5 1469,-299.5 1469,-280.5 1419,-280.5"/>
<text text-anchor="middle" x="1444" y="-287.5" font-family="FreeSans" font-size="10.00">stdio.h</text>
</a>
</g>
</g>
<!-- Node2&#45;&gt;Node6 -->
<g id="edge4" class="edge">
<title>Node2&#45;&gt;Node6</title>
<path fill="none" stroke="midnightblue" d="M1179.57,-337.42C1248.11,-326.49 1369.98,-306.99 1408.87,-299.89"/>
<polygon fill="midnightblue" stroke="midnightblue" points="1409.67,-303.3 1418.82,-297.96 1408.33,-296.43 1409.67,-303.3"/>
</g>
<!-- Node7 -->
<g id="node6" class="node">
<title>Node7</title>
<g id="a_node6"><a xlink:title=" ">
<polygon fill="white" stroke="#bfbfbf" points="1487.5,-280.5 1487.5,-299.5 1540.5,-299.5 1540.5,-280.5 1487.5,-280.5"/>
<text text-anchor="middle" x="1514" y="-287.5" font-family="FreeSans" font-size="10.00">ctype.h</text>
</a>
</g>
</g>
<!-- Node2&#45;&gt;Node7 -->
<g id="edge5" class="edge">
<title>Node2&#45;&gt;Node7</title>
<path fill="none" stroke="midnightblue" d="M1179.57,-337.37C1182.76,-336.9 1185.92,-336.43 1189,-336 1313.91,-318.36 1348.99,-323.46 1477.13,-299.94"/>
<polygon fill="midnightblue" stroke="midnightblue" points="1478.15,-303.31 1487.34,-298.05 1476.87,-296.43 1478.15,-303.31"/>
</g>
<!-- Node8 -->
<g id="node7" class="node">
<title>Node8</title>
<g id="a_node7"><a xlink:title=" ">
<polygon fill="white" stroke="#bfbfbf" points="1558.5,-280.5 1558.5,-299.5 1613.5,-299.5 1613.5,-280.5 1558.5,-280.5"/>
<text text-anchor="middle" x="1586" y="-287.5" font-family="FreeSans" font-size="10.00">locale.h</text>
</a>
</g>
</g>
<!-- Node2&#45;&gt;Node8 -->
<g id="edge6" class="edge">
<title>Node2&#45;&gt;Node8</title>
<path fill="none" stroke="midnightblue" d="M1179.56,-337.28C1182.75,-336.83 1185.92,-336.4 1189,-336 1345.64,-315.84 1389.36,-327.14 1548.06,-300.13"/>
<polygon fill="midnightblue" stroke="midnightblue" points="1548.92,-303.53 1558.18,-298.38 1547.73,-296.63 1548.92,-303.53"/>
</g>
<!-- Node9 -->
<g id="node8" class="node">
<title>Node9</title>
<g id="a_node8"><a xlink:title=" ">
<polygon fill="white" stroke="#bfbfbf" points="1840.5,-280.5 1840.5,-299.5 1891.5,-299.5 1891.5,-280.5 1840.5,-280.5"/>
<text text-anchor="middle" x="1866" y="-287.5" font-family="FreeSans" font-size="10.00">errno.h</text>
</a>
</g>
</g>
<!-- Node2&#45;&gt;Node9 -->
<g id="edge7" class="edge">
<title>Node2&#45;&gt;Node9</title>
<path fill="none" stroke="midnightblue" d="M1179.54,-337.13C1182.74,-336.71 1185.91,-336.33 1189,-336 1469.84,-306.03 1546.8,-342.91 1829.96,-299.82"/>
<polygon fill="midnightblue" stroke="midnightblue" points="1830.77,-303.24 1840.12,-298.26 1829.71,-296.32 1830.77,-303.24"/>
</g>
<!-- Node10 -->
<g id="node9" class="node">
<title>Node10</title>
<g id="a_node9"><a xlink:title=" ">
<polygon fill="white" stroke="#bfbfbf" points="1631.5,-280.5 1631.5,-299.5 1678.5,-299.5 1678.5,-280.5 1631.5,-280.5"/>
<text text-anchor="middle" x="1655" y="-287.5" font-family="FreeSans" font-size="10.00">fcntl.h</text>
</a>
</g>
</g>
<!-- Node2&#45;&gt;Node10 -->
<g id="edge8" class="edge">
<title>Node2&#45;&gt;Node10</title>
<path fill="none" stroke="midnightblue" d="M1179.55,-337.22C1182.74,-336.78 1185.92,-336.37 1189,-336 1377.88,-313.29 1430.73,-333.64 1621.29,-300"/>
<polygon fill="midnightblue" stroke="midnightblue" points="1622.13,-303.4 1631.35,-298.2 1620.89,-296.51 1622.13,-303.4"/>
</g>
<!-- Node11 -->
<g id="node10" class="node">
<title>Node11</title>
<g id="a_node10"><a xlink:title=" ">
<polygon fill="white" stroke="#bfbfbf" points="1696.5,-280.5 1696.5,-299.5 1747.5,-299.5 1747.5,-280.5 1696.5,-280.5"/>
<text text-anchor="middle" x="1722" y="-287.5" font-family="FreeSans" font-size="10.00">math.h</text>
</a>
</g>
</g>
<!-- Node2&#45;&gt;Node11 -->
<g id="edge9" class="edge">
<title>Node2&#45;&gt;Node11</title>
<path fill="none" stroke="midnightblue" d="M1179.54,-337.18C1182.74,-336.75 1185.91,-336.35 1189,-336 1406.67,-311.01 1466.92,-335.86 1686.59,-299.94"/>
<polygon fill="midnightblue" stroke="midnightblue" points="1687.2,-303.39 1696.49,-298.3 1686.05,-296.48 1687.2,-303.39"/>
</g>
<!-- Node12 -->
<g id="node11" class="node">
<title>Node12</title>
<g id="a_node11"><a xlink:title=" ">
<polygon fill="white" stroke="#bfbfbf" points="702,-224.5 702,-243.5 750,-243.5 750,-224.5 702,-224.5"/>
<text text-anchor="middle" x="726" y="-231.5" font-family="FreeSans" font-size="10.00">time.h</text>
</a>
</g>
</g>
<!-- Node2&#45;&gt;Node12 -->
<g id="edge10" class="edge">
<title>Node2&#45;&gt;Node12</title>
<path fill="none" stroke="midnightblue" d="M1100.06,-336.37C1037.16,-319.38 892.53,-280.28 760.07,-244.29"/>
<polygon fill="midnightblue" stroke="midnightblue" points="760.72,-240.84 750.15,-241.59 758.88,-247.59 760.72,-240.84"/>
</g>
<!-- Node13 -->
<g id="node12" class="node">
<title>Node13</title>
<g id="a_node12"><a xlink:title=" ">
<polygon fill="white" stroke="#bfbfbf" points="1122.5,-280.5 1122.5,-299.5 1175.5,-299.5 1175.5,-280.5 1122.5,-280.5"/>
<text text-anchor="middle" x="1149" y="-287.5" font-family="FreeSans" font-size="10.00">limits.h</text>
</a>
</g>
</g>
<!-- Node2&#45;&gt;Node13 -->
<g id="edge11" class="edge">
<title>Node2&#45;&gt;Node13</title>
<path fill="none" stroke="midnightblue" d="M1134.81,-336.08C1137.08,-328.85 1140.37,-318.41 1143.21,-309.4"/>
<polygon fill="midnightblue" stroke="midnightblue" points="1146.58,-310.34 1146.25,-299.75 1139.9,-308.24 1146.58,-310.34"/>
</g>
<!-- Node14 -->
<g id="node13" class="node">
<title>Node14</title>
<g id="a_node13"><a xlink:title=" ">
<polygon fill="white" stroke="#bfbfbf" points="1193.5,-280.5 1193.5,-299.5 1248.5,-299.5 1248.5,-280.5 1193.5,-280.5"/>
<text text-anchor="middle" x="1221" y="-287.5" font-family="FreeSans" font-size="10.00">signal.h</text>
</a>
</g>
</g>
<!-- Node2&#45;&gt;Node14 -->
<g id="edge12" class="edge">
<title>Node2&#45;&gt;Node14</title>
<path fill="none" stroke="midnightblue" d="M1146.3,-336.32C1160.18,-327.9 1181.49,-314.97 1197.8,-305.07"/>
<polygon fill="midnightblue" stroke="midnightblue" points="1200,-307.83 1206.74,-299.65 1196.37,-301.85 1200,-307.83"/>
</g>
<!-- Node15 -->
<g id="node14" class="node">
<title>Node15</title>
<g id="a_node14"><a xlink:title=" ">
<polygon fill="white" stroke="#bfbfbf" points="1766,-280.5 1766,-299.5 1822,-299.5 1822,-280.5 1766,-280.5"/>
<text text-anchor="middle" x="1794" y="-287.5" font-family="FreeSans" font-size="10.00">assert.h</text>
</a>
</g>
</g>
<!-- Node2&#45;&gt;Node15 -->
<g id="edge13" class="edge">
<title>Node2&#45;&gt;Node15</title>
<path fill="none" stroke="midnightblue" d="M1179.54,-337.15C1182.74,-336.73 1185.91,-336.34 1189,-336 1437.11,-308.61 1505.14,-337.26 1755.68,-299.93"/>
<polygon fill="midnightblue" stroke="midnightblue" points="1756.45,-303.35 1765.82,-298.39 1755.41,-296.43 1756.45,-303.35"/>
</g>
<!-- Node28&#45;&gt;Node32 -->
<g id="edge17" class="edge">
<title>Node28&#45;&gt;Node32</title>
<path fill="none" stroke="midnightblue" d="M319.1,-112.44C285.73,-103.2 232.41,-88.44 195.65,-78.26"/>
<polygon fill="midnightblue" stroke="midnightblue" points="196.33,-74.81 185.75,-75.52 194.46,-81.56 196.33,-74.81"/>
</g>
<!-- Node32&#45;&gt;Node5 -->
<g id="edge18" class="edge">
<title>Node32&#45;&gt;Node5</title>
<path fill="none" stroke="midnightblue" d="M168.66,-56.32C181.92,-47.9 202.27,-34.97 217.85,-25.07"/>
<polygon fill="midnightblue" stroke="midnightblue" points="219.81,-27.97 226.38,-19.65 216.06,-22.06 219.81,-27.97"/>
</g>
<!-- Node52&#45;&gt;Node27 -->
<g id="edge20" class="edge">
<title>Node52&#45;&gt;Node27</title>
<path fill="none" stroke="midnightblue" d="M800.61,-224.44C778.29,-215.52 743.1,-201.44 717.79,-191.32"/>
<polygon fill="midnightblue" stroke="midnightblue" points="718.88,-187.98 708.29,-187.52 716.28,-194.48 718.88,-187.98"/>
</g>
<!-- Node27&#45;&gt;Node28 -->
<g id="edge21" class="edge">
<title>Node27&#45;&gt;Node28</title>
<path fill="none" stroke="midnightblue" d="M639.43,-169.38C577.43,-159.44 469.26,-142.11 404.17,-131.68"/>
<polygon fill="midnightblue" stroke="midnightblue" points="404.54,-128.19 394.11,-130.07 403.43,-135.11 404.54,-128.19"/>
</g>
<!-- Node27&#45;&gt;Node37 -->
<g id="edge22" class="edge">
<title>Node27&#45;&gt;Node37</title>
<path fill="none" stroke="midnightblue" d="M734.69,-169.15C794.11,-159.37 895.47,-142.68 958.66,-132.28"/>
<polygon fill="midnightblue" stroke="midnightblue" points="959.54,-135.68 968.84,-130.6 958.4,-128.77 959.54,-135.68"/>
</g>
<!-- Node27&#45;&gt;Node39 -->
<g id="edge25" class="edge">
<title>Node27&#45;&gt;Node39</title>
<path fill="none" stroke="midnightblue" d="M686.03,-168.38C684.23,-155.3 679.46,-130.07 668,-112 644.19,-74.44 602.46,-42.65 576.64,-25.25"/>
<polygon fill="midnightblue" stroke="midnightblue" points="578.5,-22.28 568.22,-19.71 574.65,-28.13 578.5,-22.28"/>
</g>
<!-- Node27&#45;&gt;Node40 -->
<g id="edge26" class="edge">
<title>Node27&#45;&gt;Node40</title>
<path fill="none" stroke="midnightblue" d="M656.58,-168.44C623.72,-159.2 571.22,-144.44 535.03,-134.26"/>
<polygon fill="midnightblue" stroke="midnightblue" points="535.85,-130.85 525.28,-131.52 533.96,-137.59 535.85,-130.85"/>
</g>
<!-- Node27&#45;&gt;Node43 -->
<g id="edge27" class="edge">
<title>Node27&#45;&gt;Node43</title>
<path fill="none" stroke="midnightblue" d="M674.31,-168.32C662.1,-159.98 643.42,-147.21 629,-137.35"/>
<polygon fill="midnightblue" stroke="midnightblue" points="630.89,-134.41 620.66,-131.65 626.94,-140.19 630.89,-134.41"/>
</g>
<!-- Node27&#45;&gt;Node46 -->
<g id="edge28" class="edge">
<title>Node27&#45;&gt;Node46</title>
<path fill="none" stroke="midnightblue" d="M695.06,-168.32C706.13,-159.82 725.73,-146.73 742.07,-136.8"/>
<polygon fill="midnightblue" stroke="midnightblue" points="743.93,-139.77 750.75,-131.65 740.36,-133.74 743.93,-139.77"/>
</g>
<!-- Node27&#45;&gt;Node48 -->
<g id="edge30" class="edge">
<title>Node27&#45;&gt;Node48</title>
<path fill="none" stroke="midnightblue" d="M720.12,-168.44C756.12,-159.14 813.77,-144.25 853.19,-134.06"/>
<polygon fill="midnightblue" stroke="midnightblue" points="854.23,-137.41 863.04,-131.52 852.48,-130.63 854.23,-137.41"/>
</g>
<!-- Node37&#45;&gt;Node38 -->
<g id="edge23" class="edge">
<title>Node37&#45;&gt;Node38</title>
<path fill="none" stroke="midnightblue" d="M1015,-112.08C1015,-105.01 1015,-94.86 1015,-85.99"/>
<polygon fill="midnightblue" stroke="midnightblue" points="1018.5,-85.75 1015,-75.75 1011.5,-85.75 1018.5,-85.75"/>
</g>
<!-- Node38&#45;&gt;Node39 -->
<g id="edge24" class="edge">
<title>Node38&#45;&gt;Node39</title>
<path fill="none" stroke="midnightblue" d="M953.78,-57.83C866.88,-47.65 708.42,-29.09 619.32,-18.65"/>
<polygon fill="midnightblue" stroke="midnightblue" points="619.68,-15.17 609.34,-17.48 618.86,-22.12 619.68,-15.17"/>
</g>
<!-- Node46&#45;&gt;Node27 -->
<g id="edge29" class="edge">
<title>Node46&#45;&gt;Node27</title>
<path fill="none" stroke="midnightblue" d="M760.73,-131.83C749.63,-140.34 730.16,-153.34 713.91,-163.21"/>
<polygon fill="midnightblue" stroke="midnightblue" points="712.11,-160.21 705.29,-168.32 715.68,-166.23 712.11,-160.21"/>
</g>
<!-- Node54&#45;&gt;Node28 -->
<g id="edge36" class="edge">
<title>Node54&#45;&gt;Node28</title>
<path fill="none" stroke="midnightblue" d="M562.87,-224.37C522.48,-205.13 424.86,-158.65 377.16,-135.93"/>
<polygon fill="midnightblue" stroke="midnightblue" points="378.58,-132.73 368.04,-131.59 375.57,-139.05 378.58,-132.73"/>
</g>
<!-- Node54&#45;&gt;Node27 -->
<g id="edge35" class="edge">
<title>Node54&#45;&gt;Node27</title>
<path fill="none" stroke="midnightblue" d="M598.03,-224.32C615.03,-215.66 641.38,-202.24 660.99,-192.25"/>
<polygon fill="midnightblue" stroke="midnightblue" points="662.69,-195.31 670.01,-187.65 659.51,-189.08 662.69,-195.31"/>
</g>
<!-- Node54&#45;&gt;Node39 -->
<g id="edge34" class="edge">
<title>Node54&#45;&gt;Node39</title>
<path fill="none" stroke="midnightblue" d="M567.38,-224.2C533.56,-202.21 448,-145.67 441,-132 417.24,-85.57 483.94,-44.17 524.79,-23.99"/>
<polygon fill="midnightblue" stroke="midnightblue" points="526.55,-27.03 534.06,-19.56 523.53,-20.72 526.55,-27.03"/>
</g>
<!-- Node56&#45;&gt;Node45 -->
<g id="edge40" class="edge">
<title>Node56&#45;&gt;Node45</title>
<path fill="none" stroke="midnightblue" d="M262,-336.08C262,-329.01 262,-318.86 262,-309.99"/>
<polygon fill="midnightblue" stroke="midnightblue" points="265.5,-309.75 262,-299.75 258.5,-309.75 265.5,-309.75"/>
</g>
<!-- Node45&#45;&gt;Node5 -->
<g id="edge41" class="edge">
<title>Node45&#45;&gt;Node5</title>
<path fill="none" stroke="midnightblue" d="M259.03,-280.28C253.03,-261.82 240,-217.37 240,-179 240,-179 240,-179 240,-121 240,-88.95 240,-51.64 240,-29.75"/>
<polygon fill="midnightblue" stroke="midnightblue" points="243.5,-29.56 240,-19.56 236.5,-29.56 243.5,-29.56"/>
</g>
<!-- Node45&#45;&gt;Node12 -->
<g id="edge42" class="edge">
<title>Node45&#45;&gt;Node12</title>
<path fill="none" stroke="midnightblue" d="M311.22,-283.27C405.75,-272.27 610.54,-248.44 691.78,-238.98"/>
<polygon fill="midnightblue" stroke="midnightblue" points="692.43,-242.43 701.96,-237.8 691.62,-235.48 692.43,-242.43"/>
</g>
<!-- Node45&#45;&gt;Node32 -->
<g id="edge43" class="edge">
<title>Node45&#45;&gt;Node32</title>
<path fill="none" stroke="midnightblue" d="M253.71,-280.27C245.81,-271.6 233.97,-257.65 226,-244 194.22,-189.53 170.43,-118.13 160.33,-85.15"/>
<polygon fill="midnightblue" stroke="midnightblue" points="163.66,-84.09 157.44,-75.52 156.96,-86.1 163.66,-84.09"/>
</g>
<!-- Node60&#45;&gt;Node62 -->
<g id="edge46" class="edge">
<title>Node60&#45;&gt;Node62</title>
<path fill="none" stroke="midnightblue" d="M721.48,-336.08C723.49,-328.85 726.39,-318.41 728.89,-309.4"/>
<polygon fill="midnightblue" stroke="midnightblue" points="732.26,-310.32 731.57,-299.75 725.52,-308.45 732.26,-310.32"/>
</g>
<!-- Node62&#45;&gt;Node54 -->
<g id="edge47" class="edge">
<title>Node62&#45;&gt;Node54</title>
<path fill="none" stroke="midnightblue" d="M709.76,-280.44C684.13,-271.4 643.51,-257.06 614.76,-246.92"/>
<polygon fill="midnightblue" stroke="midnightblue" points="615.72,-243.54 605.13,-243.52 613.39,-250.15 615.72,-243.54"/>
</g>
<!-- Node65&#45;&gt;Node9 -->
<g id="edge54" class="edge">
<title>Node65&#45;&gt;Node9</title>
<path fill="none" stroke="midnightblue" d="M1308.64,-337.04C1311.8,-336.67 1314.94,-336.32 1318,-336 1542.11,-312.65 1603.66,-335.93 1830.62,-299.73"/>
<polygon fill="midnightblue" stroke="midnightblue" points="1831.19,-303.18 1840.5,-298.13 1830.07,-296.27 1831.19,-303.18"/>
</g>
<!-- Node65&#45;&gt;Node15 -->
<g id="edge55" class="edge">
<title>Node65&#45;&gt;Node15</title>
<path fill="none" stroke="midnightblue" d="M1308.64,-337.09C1311.81,-336.7 1314.94,-336.34 1318,-336 1509.36,-314.92 1562,-330.69 1755.87,-299.94"/>
<polygon fill="midnightblue" stroke="midnightblue" points="1756.49,-303.38 1765.81,-298.34 1755.38,-296.47 1756.49,-303.38"/>
</g>
<!-- Node69&#45;&gt;Node32 -->
<g id="edge62" class="edge">
<title>Node69&#45;&gt;Node32</title>
<path fill="none" stroke="midnightblue" d="M53.55,-168.38C64.72,-155.73 86.43,-131.52 106,-112 116.12,-101.91 127.91,-91.06 137.38,-82.54"/>
<polygon fill="midnightblue" stroke="midnightblue" points="139.88,-85 145.02,-75.73 135.22,-79.78 139.88,-85"/>
</g>
<!-- Node74&#45;&gt;Node54 -->
<g id="edge70" class="edge">
<title>Node74&#45;&gt;Node54</title>
<path fill="none" stroke="midnightblue" d="M563.47,-280.08C566.31,-272.77 570.43,-262.18 573.96,-253.1"/>
<polygon fill="midnightblue" stroke="midnightblue" points="577.23,-254.34 577.6,-243.75 570.71,-251.8 577.23,-254.34"/>
</g>
</g>
</svg>
