<?xml version="1.0" encoding="UTF-8" standalone="no"?>
<!DOCTYPE svg PUBLIC "-//W3C//DTD SVG 1.1//EN"
 "http://www.w3.org/Graphics/SVG/1.1/DTD/svg11.dtd">
<!-- Generated by graphviz version 2.43.0 (0)
 -->
<!-- Title: paint.h Pages: 1 -->
<svg width="1750pt" height="364pt"
 viewBox="0.00 0.00 1749.90 364.00" xmlns="http://www.w3.org/2000/svg" xmlns:xlink="http://www.w3.org/1999/xlink">
<g id="graph0" class="graph" transform="scale(1 1) rotate(0) translate(4 360)">
<title>paint.h</title>
<polygon fill="white" stroke="transparent" points="-4,4 -4,-360 1745.9,-360 1745.9,4 -4,4"/>
<!-- Node1 -->
<g id="node1" class="node">
<title>Node1</title>
<g id="a_node1"><a xlink:title=" ">
<polygon fill="#bfbfbf" stroke="black" points="69.4,-336.5 69.4,-355.5 119.4,-355.5 119.4,-336.5 69.4,-336.5"/>
<text text-anchor="middle" x="94.4" y="-343.5" font-family="FreeSans" font-size="10.00">paint.h</text>
</a>
</g>
</g>
<!-- Node2 -->
<g id="node2" class="node">
<title>Node2</title>
<g id="a_node2"><a xlink:href="color_8h.html" target="_top" xlink:title=" ">
<polygon fill="white" stroke="black" points="14.4,-168.5 14.4,-187.5 102.4,-187.5 102.4,-168.5 14.4,-168.5"/>
<text text-anchor="middle" x="58.4" y="-175.5" font-family="FreeSans" font-size="10.00">magick/color.h</text>
</a>
</g>
</g>
<!-- Node1&#45;&gt;Node2 -->
<g id="edge1" class="edge">
<title>Node1&#45;&gt;Node2</title>
<path fill="none" stroke="midnightblue" d="M92.47,-336.08C86.8,-309.95 70.16,-233.21 62.43,-197.58"/>
<polygon fill="midnightblue" stroke="midnightblue" points="65.8,-196.6 60.26,-187.57 58.96,-198.08 65.8,-196.6"/>
</g>
<!-- Node9 -->
<g id="node9" class="node">
<title>Node9</title>
<g id="a_node9"><a xlink:href="draw_8h.html" target="_top" xlink:title=" ">
<polygon fill="white" stroke="black" points="104.4,-280.5 104.4,-299.5 192.4,-299.5 192.4,-280.5 104.4,-280.5"/>
<text text-anchor="middle" x="148.4" y="-287.5" font-family="FreeSans" font-size="10.00">magick/draw.h</text>
</a>
</g>
</g>
<!-- Node1&#45;&gt;Node9 -->
<g id="edge8" class="edge">
<title>Node1&#45;&gt;Node9</title>
<path fill="none" stroke="midnightblue" d="M103.32,-336.08C111.18,-328.22 122.83,-316.57 132.32,-307.08"/>
<polygon fill="midnightblue" stroke="midnightblue" points="135.06,-309.3 139.65,-299.75 130.11,-304.35 135.06,-309.3"/>
</g>
<!-- Node3 -->
<g id="node3" class="node">
<title>Node3</title>
<g id="a_node3"><a xlink:href="pixel_8h.html" target="_top" xlink:title=" ">
<polygon fill="white" stroke="black" points="86.4,-56.5 86.4,-75.5 174.4,-75.5 174.4,-56.5 86.4,-56.5"/>
<text text-anchor="middle" x="130.4" y="-63.5" font-family="FreeSans" font-size="10.00">magick/pixel.h</text>
</a>
</g>
</g>
<!-- Node2&#45;&gt;Node3 -->
<g id="edge2" class="edge">
<title>Node2&#45;&gt;Node3</title>
<path fill="none" stroke="midnightblue" d="M64.05,-168.37C75.94,-150.22 103.7,-107.8 119.28,-83.99"/>
<polygon fill="midnightblue" stroke="midnightblue" points="122.23,-85.88 124.78,-75.59 116.37,-82.04 122.23,-85.88"/>
</g>
<!-- Node6 -->
<g id="node6" class="node">
<title>Node6</title>
<g id="a_node6"><a xlink:href="exception_8h.html" target="_top" xlink:title=" ">
<polygon fill="white" stroke="black" points="466.9,-56.5 466.9,-75.5 579.9,-75.5 579.9,-56.5 466.9,-56.5"/>
<text text-anchor="middle" x="523.4" y="-63.5" font-family="FreeSans" font-size="10.00">magick/exception.h</text>
</a>
</g>
</g>
<!-- Node2&#45;&gt;Node6 -->
<g id="edge5" class="edge">
<title>Node2&#45;&gt;Node6</title>
<path fill="none" stroke="midnightblue" d="M102.64,-172.47C209.33,-161.52 472.38,-134.34 476.4,-132 494.8,-121.32 507.98,-100.24 515.61,-84.98"/>
<polygon fill="midnightblue" stroke="midnightblue" points="518.96,-86.08 520.01,-75.54 512.61,-83.13 518.96,-86.08"/>
</g>
<!-- Node4 -->
<g id="node4" class="node">
<title>Node4</title>
<g id="a_node4"><a xlink:href="colorspace_8h.html" target="_top" xlink:title=" ">
<polygon fill="white" stroke="black" points="240.9,-0.5 240.9,-19.5 357.9,-19.5 357.9,-0.5 240.9,-0.5"/>
<text text-anchor="middle" x="299.4" y="-7.5" font-family="FreeSans" font-size="10.00">magick/colorspace.h</text>
</a>
</g>
</g>
<!-- Node3&#45;&gt;Node4 -->
<g id="edge3" class="edge">
<title>Node3&#45;&gt;Node4</title>
<path fill="none" stroke="midnightblue" d="M157.18,-56.44C185.74,-47.32 231.14,-32.81 262.94,-22.65"/>
<polygon fill="midnightblue" stroke="midnightblue" points="264.29,-25.89 272.75,-19.52 262.16,-19.23 264.29,-25.89"/>
</g>
<!-- Node5 -->
<g id="node5" class="node">
<title>Node5</title>
<g id="a_node5"><a xlink:href="constitute_8h.html" target="_top" xlink:title=" ">
<polygon fill="white" stroke="black" points="73.9,-0.5 73.9,-19.5 186.9,-19.5 186.9,-0.5 73.9,-0.5"/>
<text text-anchor="middle" x="130.4" y="-7.5" font-family="FreeSans" font-size="10.00">magick/constitute.h</text>
</a>
</g>
</g>
<!-- Node3&#45;&gt;Node5 -->
<g id="edge4" class="edge">
<title>Node3&#45;&gt;Node5</title>
<path fill="none" stroke="midnightblue" d="M130.4,-56.08C130.4,-49.01 130.4,-38.86 130.4,-29.99"/>
<polygon fill="midnightblue" stroke="midnightblue" points="133.9,-29.75 130.4,-19.75 126.9,-29.75 133.9,-29.75"/>
</g>
<!-- Node7 -->
<g id="node7" class="node">
<title>Node7</title>
<g id="a_node7"><a xlink:title=" ">
<polygon fill="white" stroke="#bfbfbf" points="453.4,-0.5 453.4,-19.5 509.4,-19.5 509.4,-0.5 453.4,-0.5"/>
<text text-anchor="middle" x="481.4" y="-7.5" font-family="FreeSans" font-size="10.00">stdarg.h</text>
</a>
</g>
</g>
<!-- Node6&#45;&gt;Node7 -->
<g id="edge6" class="edge">
<title>Node6&#45;&gt;Node7</title>
<path fill="none" stroke="midnightblue" d="M516.47,-56.08C510.47,-48.38 501.65,-37.03 494.36,-27.65"/>
<polygon fill="midnightblue" stroke="midnightblue" points="497.11,-25.5 488.21,-19.75 491.59,-29.79 497.11,-25.5"/>
</g>
<!-- Node8 -->
<g id="node8" class="node">
<title>Node8</title>
<g id="a_node8"><a xlink:href="semaphore_8h.html" target="_top" xlink:title=" ">
<polygon fill="white" stroke="black" points="1622.9,-0.5 1622.9,-19.5 1741.9,-19.5 1741.9,-0.5 1622.9,-0.5"/>
<text text-anchor="middle" x="1682.4" y="-7.5" font-family="FreeSans" font-size="10.00">magick/semaphore.h</text>
</a>
</g>
</g>
<!-- Node6&#45;&gt;Node8 -->
<g id="edge7" class="edge">
<title>Node6&#45;&gt;Node8</title>
<path fill="none" stroke="midnightblue" d="M580.09,-62.36C772.7,-53.38 1401.72,-24.08 1612.7,-14.25"/>
<polygon fill="midnightblue" stroke="midnightblue" points="1612.9,-17.74 1622.73,-13.78 1612.57,-10.75 1612.9,-17.74"/>
</g>
<!-- Node9&#45;&gt;Node2 -->
<g id="edge46" class="edge">
<title>Node9&#45;&gt;Node2</title>
<path fill="none" stroke="midnightblue" d="M141.34,-280.37C126.36,-262.05 91.17,-219.05 71.79,-195.36"/>
<polygon fill="midnightblue" stroke="midnightblue" points="74.47,-193.11 65.43,-187.59 69.06,-197.55 74.47,-193.11"/>
</g>
<!-- Node9&#45;&gt;Node3 -->
<g id="edge44" class="edge">
<title>Node9&#45;&gt;Node3</title>
<path fill="none" stroke="midnightblue" d="M124.73,-280.43C91.04,-266.78 30.57,-236.58 5.4,-188 -19.77,-139.4 53.32,-98.98 98.18,-79.51"/>
<polygon fill="midnightblue" stroke="midnightblue" points="99.69,-82.67 107.55,-75.56 96.97,-76.22 99.69,-82.67"/>
</g>
<!-- Node10 -->
<g id="node10" class="node">
<title>Node10</title>
<g id="a_node10"><a xlink:href="geometry_8h.html" target="_top" xlink:title=" ">
<polygon fill="white" stroke="black" points="1512.4,-56.5 1512.4,-75.5 1622.4,-75.5 1622.4,-56.5 1512.4,-56.5"/>
<text text-anchor="middle" x="1567.4" y="-63.5" font-family="FreeSans" font-size="10.00">magick/geometry.h</text>
</a>
</g>
</g>
<!-- Node9&#45;&gt;Node10 -->
<g id="edge9" class="edge">
<title>Node9&#45;&gt;Node10</title>
<path fill="none" stroke="midnightblue" d="M192.68,-287.83C441.74,-281.04 1658.96,-245.01 1712.4,-188 1754.29,-143.32 1657.86,-99.43 1602.66,-78.95"/>
<polygon fill="midnightblue" stroke="midnightblue" points="1603.79,-75.64 1593.2,-75.53 1601.41,-82.22 1603.79,-75.64"/>
</g>
<!-- Node11 -->
<g id="node11" class="node">
<title>Node11</title>
<g id="a_node11"><a xlink:href="image_8h.html" target="_top" xlink:title=" ">
<polygon fill="white" stroke="black" points="694.9,-224.5 694.9,-243.5 789.9,-243.5 789.9,-224.5 694.9,-224.5"/>
<text text-anchor="middle" x="742.4" y="-231.5" font-family="FreeSans" font-size="10.00">magick/image.h</text>
</a>
</g>
</g>
<!-- Node9&#45;&gt;Node11 -->
<g id="edge10" class="edge">
<title>Node9&#45;&gt;Node11</title>
<path fill="none" stroke="midnightblue" d="M192.56,-284.99C298.37,-275.37 566.36,-251 684.71,-240.25"/>
<polygon fill="midnightblue" stroke="midnightblue" points="685.02,-243.73 694.67,-239.34 684.39,-236.76 685.02,-243.73"/>
</g>
<!-- Node31 -->
<g id="node31" class="node">
<title>Node31</title>
<g id="a_node31"><a xlink:href="type_8h.html" target="_top" xlink:title=" ">
<polygon fill="white" stroke="black" points="124.4,-224.5 124.4,-243.5 210.4,-243.5 210.4,-224.5 124.4,-224.5"/>
<text text-anchor="middle" x="167.4" y="-231.5" font-family="FreeSans" font-size="10.00">magick/type.h</text>
</a>
</g>
</g>
<!-- Node9&#45;&gt;Node31 -->
<g id="edge45" class="edge">
<title>Node9&#45;&gt;Node31</title>
<path fill="none" stroke="midnightblue" d="M151.54,-280.08C154.09,-272.85 157.76,-262.41 160.93,-253.4"/>
<polygon fill="midnightblue" stroke="midnightblue" points="164.31,-254.35 164.32,-243.75 157.7,-252.02 164.31,-254.35"/>
</g>
<!-- Node11&#45;&gt;Node2 -->
<g id="edge11" class="edge">
<title>Node11&#45;&gt;Node2</title>
<path fill="none" stroke="midnightblue" d="M694.77,-230.91C589.97,-226.03 331.59,-212.39 116.4,-188 115.15,-187.86 113.88,-187.71 112.61,-187.55"/>
<polygon fill="midnightblue" stroke="midnightblue" points="113.06,-184.08 102.69,-186.25 112.15,-191.02 113.06,-184.08"/>
</g>
<!-- Node11&#45;&gt;Node3 -->
<g id="edge28" class="edge">
<title>Node11&#45;&gt;Node3</title>
<path fill="none" stroke="midnightblue" d="M694.75,-232.72C560.98,-231.46 189.14,-224.68 149.4,-188 121.24,-162 123.32,-112.63 127.01,-85.68"/>
<polygon fill="midnightblue" stroke="midnightblue" points="130.49,-86.07 128.61,-75.64 123.58,-84.97 130.49,-86.07"/>
</g>
<!-- Node11&#45;&gt;Node4 -->
<g id="edge15" class="edge">
<title>Node11&#45;&gt;Node4</title>
<path fill="none" stroke="midnightblue" d="M694.63,-233.79C602.35,-234.32 404.19,-230.34 353.4,-188 305.53,-148.09 299.2,-67.02 298.95,-30.09"/>
<polygon fill="midnightblue" stroke="midnightblue" points="302.45,-29.79 299.03,-19.76 295.45,-29.73 302.45,-29.79"/>
</g>
<!-- Node11&#45;&gt;Node8 -->
<g id="edge41" class="edge">
<title>Node11&#45;&gt;Node8</title>
<path fill="none" stroke="midnightblue" d="M790.04,-232.6C980.71,-230.75 1680.24,-221.69 1712.4,-188 1754.5,-143.9 1714.75,-63.85 1693.65,-28.54"/>
<polygon fill="midnightblue" stroke="midnightblue" points="1696.51,-26.51 1688.28,-19.83 1690.55,-30.18 1696.51,-26.51"/>
</g>
<!-- Node11&#45;&gt;Node10 -->
<g id="edge23" class="edge">
<title>Node11&#45;&gt;Node10</title>
<path fill="none" stroke="midnightblue" d="M789.98,-231.98C958.75,-228.15 1520.16,-213.55 1548.4,-188 1576.83,-162.29 1574.64,-112.8 1570.86,-85.76"/>
<polygon fill="midnightblue" stroke="midnightblue" points="1574.28,-84.99 1569.23,-75.68 1567.37,-86.11 1574.28,-84.99"/>
</g>
<!-- Node12 -->
<g id="node12" class="node">
<title>Node12</title>
<g id="a_node12"><a xlink:href="blob_8h.html" target="_top" xlink:title=" ">
<polygon fill="white" stroke="black" points="476.4,-168.5 476.4,-187.5 562.4,-187.5 562.4,-168.5 476.4,-168.5"/>
<text text-anchor="middle" x="519.4" y="-175.5" font-family="FreeSans" font-size="10.00">magick/blob.h</text>
</a>
</g>
</g>
<!-- Node11&#45;&gt;Node12 -->
<g id="edge12" class="edge">
<title>Node11&#45;&gt;Node12</title>
<path fill="none" stroke="midnightblue" d="M701.98,-224.44C661.44,-215.12 599.59,-200.18 559.26,-190"/>
<polygon fill="midnightblue" stroke="midnightblue" points="560.05,-186.59 549.49,-187.52 558.32,-193.37 560.05,-186.59"/>
</g>
<!-- Node13 -->
<g id="node13" class="node">
<title>Node13</title>
<g id="a_node13"><a xlink:href="stream_8h.html" target="_top" xlink:title=" ">
<polygon fill="white" stroke="black" points="531.9,-112.5 531.9,-131.5 630.9,-131.5 630.9,-112.5 531.9,-112.5"/>
<text text-anchor="middle" x="581.4" y="-119.5" font-family="FreeSans" font-size="10.00">magick/stream.h</text>
</a>
</g>
</g>
<!-- Node11&#45;&gt;Node13 -->
<g id="edge42" class="edge">
<title>Node11&#45;&gt;Node13</title>
<path fill="none" stroke="midnightblue" d="M694.71,-226.71C666.89,-220.84 632.78,-209.57 609.4,-188 596.16,-175.78 588.9,-156.24 585.12,-141.77"/>
<polygon fill="midnightblue" stroke="midnightblue" points="588.5,-140.86 582.86,-131.89 581.68,-142.42 588.5,-140.86"/>
</g>
<!-- Node14 -->
<g id="node14" class="node">
<title>Node14</title>
<g id="a_node14"><a xlink:href="cache-view_8h.html" target="_top" xlink:title=" ">
<polygon fill="white" stroke="black" points="158.9,-112.5 158.9,-131.5 277.9,-131.5 277.9,-112.5 158.9,-112.5"/>
<text text-anchor="middle" x="218.4" y="-119.5" font-family="FreeSans" font-size="10.00">magick/cache&#45;view.h</text>
</a>
</g>
</g>
<!-- Node11&#45;&gt;Node14 -->
<g id="edge16" class="edge">
<title>Node11&#45;&gt;Node14</title>
<path fill="none" stroke="midnightblue" d="M694.59,-230.66C599.18,-225.53 388.47,-211.83 320.4,-188 288.09,-176.69 255.57,-153.42 236.21,-138.02"/>
<polygon fill="midnightblue" stroke="midnightblue" points="238.25,-135.16 228.28,-131.56 233.83,-140.59 238.25,-135.16"/>
</g>
<!-- Node15 -->
<g id="node15" class="node">
<title>Node15</title>
<g id="a_node15"><a xlink:href="composite_8h.html" target="_top" xlink:title=" ">
<polygon fill="white" stroke="black" points="618.4,-168.5 618.4,-187.5 734.4,-187.5 734.4,-168.5 618.4,-168.5"/>
<text text-anchor="middle" x="676.4" y="-175.5" font-family="FreeSans" font-size="10.00">magick/composite.h</text>
</a>
</g>
</g>
<!-- Node11&#45;&gt;Node15 -->
<g id="edge18" class="edge">
<title>Node11&#45;&gt;Node15</title>
<path fill="none" stroke="midnightblue" d="M731.8,-224.32C721.95,-216.26 707.05,-204.08 695.19,-194.37"/>
<polygon fill="midnightblue" stroke="midnightblue" points="697.16,-191.46 687.2,-187.83 692.72,-196.88 697.16,-191.46"/>
</g>
<!-- Node16 -->
<g id="node16" class="node">
<title>Node16</title>
<g id="a_node16"><a xlink:href="compress_8h.html" target="_top" xlink:title=" ">
<polygon fill="white" stroke="black" points="752.4,-168.5 752.4,-187.5 864.4,-187.5 864.4,-168.5 752.4,-168.5"/>
<text text-anchor="middle" x="808.4" y="-175.5" font-family="FreeSans" font-size="10.00">magick/compress.h</text>
</a>
</g>
</g>
<!-- Node11&#45;&gt;Node16 -->
<g id="edge19" class="edge">
<title>Node11&#45;&gt;Node16</title>
<path fill="none" stroke="midnightblue" d="M753.01,-224.32C762.86,-216.26 777.75,-204.08 789.62,-194.37"/>
<polygon fill="midnightblue" stroke="midnightblue" points="792.08,-196.88 797.61,-187.83 787.65,-191.46 792.08,-196.88"/>
</g>
<!-- Node17 -->
<g id="node17" class="node">
<title>Node17</title>
<g id="a_node17"><a xlink:href="effect_8h.html" target="_top" xlink:title=" ">
<polygon fill="white" stroke="black" points="1447.4,-168.5 1447.4,-187.5 1539.4,-187.5 1539.4,-168.5 1447.4,-168.5"/>
<text text-anchor="middle" x="1493.4" y="-175.5" font-family="FreeSans" font-size="10.00">magick/effect.h</text>
</a>
</g>
</g>
<!-- Node11&#45;&gt;Node17 -->
<g id="edge20" class="edge">
<title>Node11&#45;&gt;Node17</title>
<path fill="none" stroke="midnightblue" d="M790.22,-231.52C901.77,-227.71 1188,-215.95 1437.27,-188.02"/>
<polygon fill="midnightblue" stroke="midnightblue" points="1437.69,-191.49 1447.24,-186.89 1436.91,-184.54 1437.69,-191.49"/>
</g>
<!-- Node19 -->
<g id="node19" class="node">
<title>Node19</title>
<g id="a_node19"><a xlink:href="layer_8h.html" target="_top" xlink:title=" ">
<polygon fill="white" stroke="black" points="882.9,-168.5 882.9,-187.5 971.9,-187.5 971.9,-168.5 882.9,-168.5"/>
<text text-anchor="middle" x="927.4" y="-175.5" font-family="FreeSans" font-size="10.00">magick/layer.h</text>
</a>
</g>
</g>
<!-- Node11&#45;&gt;Node19 -->
<g id="edge24" class="edge">
<title>Node11&#45;&gt;Node19</title>
<path fill="none" stroke="midnightblue" d="M771.72,-224.44C803.25,-215.24 853.53,-200.56 888.39,-190.39"/>
<polygon fill="midnightblue" stroke="midnightblue" points="889.61,-193.68 898.23,-187.52 887.65,-186.96 889.61,-193.68"/>
</g>
<!-- Node20 -->
<g id="node20" class="node">
<title>Node20</title>
<g id="a_node20"><a xlink:href="locale___8h.html" target="_top" xlink:title=" ">
<polygon fill="white" stroke="black" points="989.9,-168.5 989.9,-187.5 1088.9,-187.5 1088.9,-168.5 989.9,-168.5"/>
<text text-anchor="middle" x="1039.4" y="-175.5" font-family="FreeSans" font-size="10.00">magick/locale_.h</text>
</a>
</g>
</g>
<!-- Node11&#45;&gt;Node20 -->
<g id="edge25" class="edge">
<title>Node11&#45;&gt;Node20</title>
<path fill="none" stroke="midnightblue" d="M789.46,-224.44C841.82,-214.92 926.39,-199.55 982.44,-189.36"/>
<polygon fill="midnightblue" stroke="midnightblue" points="983.35,-192.75 992.56,-187.52 982.1,-185.86 983.35,-192.75"/>
</g>
<!-- Node22 -->
<g id="node22" class="node">
<title>Node22</title>
<g id="a_node22"><a xlink:href="monitor_8h.html" target="_top" xlink:title=" ">
<polygon fill="white" stroke="black" points="1107.4,-168.5 1107.4,-187.5 1209.4,-187.5 1209.4,-168.5 1107.4,-168.5"/>
<text text-anchor="middle" x="1158.4" y="-175.5" font-family="FreeSans" font-size="10.00">magick/monitor.h</text>
</a>
</g>
</g>
<!-- Node11&#45;&gt;Node22 -->
<g id="edge27" class="edge">
<title>Node11&#45;&gt;Node22</title>
<path fill="none" stroke="midnightblue" d="M789.96,-227.34C856.33,-219.37 980.79,-204.14 1097.2,-188.14"/>
<polygon fill="midnightblue" stroke="midnightblue" points="1097.92,-191.57 1107.35,-186.74 1096.97,-184.64 1097.92,-191.57"/>
</g>
<!-- Node23 -->
<g id="node23" class="node">
<title>Node23</title>
<g id="a_node23"><a xlink:href="profile_8h.html" target="_top" xlink:title=" ">
<polygon fill="white" stroke="black" points="362.9,-168.5 362.9,-187.5 457.9,-187.5 457.9,-168.5 362.9,-168.5"/>
<text text-anchor="middle" x="410.4" y="-175.5" font-family="FreeSans" font-size="10.00">magick/profile.h</text>
</a>
</g>
</g>
<!-- Node11&#45;&gt;Node23 -->
<g id="edge29" class="edge">
<title>Node11&#45;&gt;Node23</title>
<path fill="none" stroke="midnightblue" d="M694.84,-225.26C635.01,-215.53 532.37,-198.84 468.12,-188.39"/>
<polygon fill="midnightblue" stroke="midnightblue" points="468.58,-184.92 458.15,-186.77 467.46,-191.83 468.58,-184.92"/>
</g>
<!-- Node26 -->
<g id="node26" class="node">
<title>Node26</title>
<g id="a_node26"><a xlink:href="quantum_8h.html" target="_top" xlink:title=" ">
<polygon fill="white" stroke="black" points="1595.4,-168.5 1595.4,-187.5 1703.4,-187.5 1703.4,-168.5 1595.4,-168.5"/>
<text text-anchor="middle" x="1649.4" y="-175.5" font-family="FreeSans" font-size="10.00">magick/quantum.h</text>
</a>
</g>
</g>
<!-- Node11&#45;&gt;Node26 -->
<g id="edge34" class="edge">
<title>Node11&#45;&gt;Node26</title>
<path fill="none" stroke="midnightblue" d="M790.13,-231.62C917.51,-227.81 1275.38,-215.58 1572.4,-188 1576.54,-187.62 1580.81,-187.17 1585.12,-186.68"/>
<polygon fill="midnightblue" stroke="midnightblue" points="1585.71,-190.14 1595.23,-185.5 1584.89,-183.19 1585.71,-190.14"/>
</g>
<!-- Node28 -->
<g id="node28" class="node">
<title>Node28</title>
<g id="a_node28"><a xlink:href="resample_8h.html" target="_top" xlink:title=" ">
<polygon fill="white" stroke="black" points="158.4,-168.5 158.4,-187.5 268.4,-187.5 268.4,-168.5 158.4,-168.5"/>
<text text-anchor="middle" x="213.4" y="-175.5" font-family="FreeSans" font-size="10.00">magick/resample.h</text>
</a>
</g>
</g>
<!-- Node11&#45;&gt;Node28 -->
<g id="edge38" class="edge">
<title>Node11&#45;&gt;Node28</title>
<path fill="none" stroke="midnightblue" d="M694.67,-228.84C611.06,-221.44 432.69,-205.15 282.4,-188 281.29,-187.87 280.17,-187.74 279.05,-187.61"/>
<polygon fill="midnightblue" stroke="midnightblue" points="279.09,-184.09 268.75,-186.38 278.26,-191.04 279.09,-184.09"/>
</g>
<!-- Node29 -->
<g id="node29" class="node">
<title>Node29</title>
<g id="a_node29"><a xlink:href="resize_8h.html" target="_top" xlink:title=" ">
<polygon fill="white" stroke="black" points="1227.4,-168.5 1227.4,-187.5 1321.4,-187.5 1321.4,-168.5 1227.4,-168.5"/>
<text text-anchor="middle" x="1274.4" y="-175.5" font-family="FreeSans" font-size="10.00">magick/resize.h</text>
</a>
</g>
</g>
<!-- Node11&#45;&gt;Node29 -->
<g id="edge40" class="edge">
<title>Node11&#45;&gt;Node29</title>
<path fill="none" stroke="midnightblue" d="M790.15,-229.52C874.26,-223.17 1054.57,-208.54 1217.19,-188.08"/>
<polygon fill="midnightblue" stroke="midnightblue" points="1217.9,-191.52 1227.38,-186.78 1217.02,-184.57 1217.9,-191.52"/>
</g>
<!-- Node30 -->
<g id="node30" class="node">
<title>Node30</title>
<g id="a_node30"><a xlink:href="timer_8h.html" target="_top" xlink:title=" ">
<polygon fill="white" stroke="black" points="1339.4,-168.5 1339.4,-187.5 1429.4,-187.5 1429.4,-168.5 1339.4,-168.5"/>
<text text-anchor="middle" x="1384.4" y="-175.5" font-family="FreeSans" font-size="10.00">magick/timer.h</text>
</a>
</g>
</g>
<!-- Node11&#45;&gt;Node30 -->
<g id="edge43" class="edge">
<title>Node11&#45;&gt;Node30</title>
<path fill="none" stroke="midnightblue" d="M790.18,-230.78C888.91,-225.89 1122.74,-212.7 1329.24,-188.03"/>
<polygon fill="midnightblue" stroke="midnightblue" points="1329.86,-191.49 1339.37,-186.81 1329.02,-184.54 1329.86,-191.49"/>
</g>
<!-- Node12&#45;&gt;Node11 -->
<g id="edge13" class="edge">
<title>Node12&#45;&gt;Node11</title>
<path fill="none" stroke="midnightblue" d="M559.65,-187.52C600.13,-196.82 661.98,-211.76 702.38,-221.96"/>
<polygon fill="midnightblue" stroke="midnightblue" points="701.6,-225.37 712.16,-224.44 703.33,-218.59 701.6,-225.37"/>
</g>
<!-- Node12&#45;&gt;Node13 -->
<g id="edge14" class="edge">
<title>Node12&#45;&gt;Node13</title>
<path fill="none" stroke="midnightblue" d="M529.36,-168.32C538.53,-160.34 552.34,-148.31 563.43,-138.65"/>
<polygon fill="midnightblue" stroke="midnightblue" points="566.02,-141.04 571.26,-131.83 561.42,-135.76 566.02,-141.04"/>
</g>
<!-- Node14&#45;&gt;Node3 -->
<g id="edge17" class="edge">
<title>Node14&#45;&gt;Node3</title>
<path fill="none" stroke="midnightblue" d="M204.26,-112.32C190.54,-103.9 169.47,-90.97 153.34,-81.07"/>
<polygon fill="midnightblue" stroke="midnightblue" points="154.86,-77.9 144.51,-75.65 151.2,-83.87 154.86,-77.9"/>
</g>
<!-- Node18 -->
<g id="node18" class="node">
<title>Node18</title>
<g id="a_node18"><a xlink:href="morphology_8h.html" target="_top" xlink:title=" ">
<polygon fill="white" stroke="black" points="1417.4,-112.5 1417.4,-131.5 1539.4,-131.5 1539.4,-112.5 1417.4,-112.5"/>
<text text-anchor="middle" x="1478.4" y="-119.5" font-family="FreeSans" font-size="10.00">magick/morphology.h</text>
</a>
</g>
</g>
<!-- Node17&#45;&gt;Node18 -->
<g id="edge21" class="edge">
<title>Node17&#45;&gt;Node18</title>
<path fill="none" stroke="midnightblue" d="M1490.93,-168.08C1488.92,-160.85 1486.02,-150.41 1483.51,-141.4"/>
<polygon fill="midnightblue" stroke="midnightblue" points="1486.88,-140.45 1480.83,-131.75 1480.14,-142.32 1486.88,-140.45"/>
</g>
<!-- Node18&#45;&gt;Node10 -->
<g id="edge22" class="edge">
<title>Node18&#45;&gt;Node10</title>
<path fill="none" stroke="midnightblue" d="M1492.7,-112.32C1506.59,-103.9 1527.9,-90.97 1544.21,-81.07"/>
<polygon fill="midnightblue" stroke="midnightblue" points="1546.41,-83.83 1553.14,-75.65 1542.77,-77.85 1546.41,-83.83"/>
</g>
<!-- Node21 -->
<g id="node21" class="node">
<title>Node21</title>
<g id="a_node21"><a xlink:href="hashmap_8h.html" target="_top" xlink:title=" ">
<polygon fill="white" stroke="black" points="984.4,-112.5 984.4,-131.5 1094.4,-131.5 1094.4,-112.5 984.4,-112.5"/>
<text text-anchor="middle" x="1039.4" y="-119.5" font-family="FreeSans" font-size="10.00">magick/hashmap.h</text>
</a>
</g>
</g>
<!-- Node20&#45;&gt;Node21 -->
<g id="edge26" class="edge">
<title>Node20&#45;&gt;Node21</title>
<path fill="none" stroke="midnightblue" d="M1039.4,-168.08C1039.4,-161.01 1039.4,-150.86 1039.4,-141.99"/>
<polygon fill="midnightblue" stroke="midnightblue" points="1042.9,-141.75 1039.4,-131.75 1035.9,-141.75 1042.9,-141.75"/>
</g>
<!-- Node24 -->
<g id="node24" class="node">
<title>Node24</title>
<g id="a_node24"><a xlink:href="string___8h.html" target="_top" xlink:title=" ">
<polygon fill="white" stroke="black" points="369.4,-112.5 369.4,-131.5 467.4,-131.5 467.4,-112.5 369.4,-112.5"/>
<text text-anchor="middle" x="418.4" y="-119.5" font-family="FreeSans" font-size="10.00">magick/string_.h</text>
</a>
</g>
</g>
<!-- Node23&#45;&gt;Node24 -->
<g id="edge30" class="edge">
<title>Node23&#45;&gt;Node24</title>
<path fill="none" stroke="midnightblue" d="M411.72,-168.08C412.78,-160.93 414.31,-150.64 415.63,-141.69"/>
<polygon fill="midnightblue" stroke="midnightblue" points="419.1,-142.16 417.11,-131.75 412.18,-141.13 419.1,-142.16"/>
</g>
<!-- Node24&#45;&gt;Node6 -->
<g id="edge33" class="edge">
<title>Node24&#45;&gt;Node6</title>
<path fill="none" stroke="midnightblue" d="M435.27,-112.32C452.11,-103.66 478.21,-90.24 497.64,-80.25"/>
<polygon fill="midnightblue" stroke="midnightblue" points="499.28,-83.34 506.58,-75.65 496.08,-77.12 499.28,-83.34"/>
</g>
<!-- Node24&#45;&gt;Node7 -->
<g id="edge31" class="edge">
<title>Node24&#45;&gt;Node7</title>
<path fill="none" stroke="midnightblue" d="M409.62,-112.16C397.89,-99.24 379.84,-74.71 391.4,-56 402.82,-37.52 424.38,-26.38 443.53,-19.8"/>
<polygon fill="midnightblue" stroke="midnightblue" points="444.76,-23.09 453.26,-16.77 442.67,-16.41 444.76,-23.09"/>
</g>
<!-- Node25 -->
<g id="node25" class="node">
<title>Node25</title>
<g id="a_node25"><a xlink:title=" ">
<polygon fill="white" stroke="#bfbfbf" points="400.4,-56.5 400.4,-75.5 448.4,-75.5 448.4,-56.5 400.4,-56.5"/>
<text text-anchor="middle" x="424.4" y="-63.5" font-family="FreeSans" font-size="10.00">time.h</text>
</a>
</g>
</g>
<!-- Node24&#45;&gt;Node25 -->
<g id="edge32" class="edge">
<title>Node24&#45;&gt;Node25</title>
<path fill="none" stroke="midnightblue" d="M419.39,-112.08C420.19,-104.93 421.33,-94.64 422.33,-85.69"/>
<polygon fill="midnightblue" stroke="midnightblue" points="425.81,-86.08 423.43,-75.75 418.85,-85.3 425.81,-86.08"/>
</g>
<!-- Node26&#45;&gt;Node8 -->
<g id="edge37" class="edge">
<title>Node26&#45;&gt;Node8</title>
<path fill="none" stroke="midnightblue" d="M1652.46,-168.48C1655.59,-159.5 1660.4,-144.91 1663.4,-132 1671.73,-96.23 1677.47,-53.64 1680.32,-29.72"/>
<polygon fill="midnightblue" stroke="midnightblue" points="1683.82,-29.93 1681.49,-19.59 1676.87,-29.12 1683.82,-29.93"/>
</g>
<!-- Node26&#45;&gt;Node11 -->
<g id="edge36" class="edge">
<title>Node26&#45;&gt;Node11</title>
<path fill="none" stroke="midnightblue" d="M1595.44,-187.51C1593.75,-187.68 1592.06,-187.85 1590.4,-188 1294.55,-215.47 938.33,-227.72 800.58,-231.57"/>
<polygon fill="midnightblue" stroke="midnightblue" points="800.17,-228.08 790.27,-231.86 800.36,-235.08 800.17,-228.08"/>
</g>
<!-- Node27 -->
<g id="node27" class="node">
<title>Node27</title>
<g id="a_node27"><a xlink:title=" ">
<polygon fill="white" stroke="#bfbfbf" points="1606.9,-112.5 1606.9,-131.5 1653.9,-131.5 1653.9,-112.5 1606.9,-112.5"/>
<text text-anchor="middle" x="1630.4" y="-119.5" font-family="FreeSans" font-size="10.00">float.h</text>
</a>
</g>
</g>
<!-- Node26&#45;&gt;Node27 -->
<g id="edge35" class="edge">
<title>Node26&#45;&gt;Node27</title>
<path fill="none" stroke="midnightblue" d="M1646.27,-168.08C1643.72,-160.85 1640.05,-150.41 1636.88,-141.4"/>
<polygon fill="midnightblue" stroke="midnightblue" points="1640.1,-140.02 1633.48,-131.75 1633.5,-142.35 1640.1,-140.02"/>
</g>
<!-- Node28&#45;&gt;Node14 -->
<g id="edge39" class="edge">
<title>Node28&#45;&gt;Node14</title>
<path fill="none" stroke="midnightblue" d="M214.23,-168.08C214.88,-161.01 215.82,-150.86 216.65,-141.99"/>
<polygon fill="midnightblue" stroke="midnightblue" points="220.16,-142.03 217.59,-131.75 213.19,-141.39 220.16,-142.03"/>
</g>
</g>
</svg>
