<?xml version="1.0" encoding="UTF-8" standalone="no"?>
<!DOCTYPE svg PUBLIC "-//W3C//DTD SVG 1.1//EN"
 "http://www.w3.org/Graphics/SVG/1.1/DTD/svg11.dtd">
<!-- Generated by graphviz version 2.43.0 (0)
 -->
<!-- Title: pixel&#45;private.h Pages: 1 -->
<svg width="1950pt" height="588pt"
 viewBox="0.00 0.00 1949.50 588.00" xmlns="http://www.w3.org/2000/svg" xmlns:xlink="http://www.w3.org/1999/xlink">
<g id="graph0" class="graph" transform="scale(1 1) rotate(0) translate(4 584)">
<title>pixel&#45;private.h</title>
<polygon fill="white" stroke="transparent" points="-4,4 -4,-584 1945.5,-584 1945.5,4 -4,4"/>
<!-- Node1 -->
<g id="node1" class="node">
<title>Node1</title>
<g id="a_node1"><a xlink:title=" ">
<polygon fill="#bfbfbf" stroke="black" points="1436,-560.5 1436,-579.5 1523,-579.5 1523,-560.5 1436,-560.5"/>
<text text-anchor="middle" x="1479.5" y="-567.5" font-family="FreeSans" font-size="10.00">pixel&#45;private.h</text>
</a>
</g>
</g>
<!-- Node2 -->
<g id="node2" class="node">
<title>Node2</title>
<g id="a_node2"><a xlink:href="image_8h.html" target="_top" xlink:title=" ">
<polygon fill="white" stroke="black" points="1121,-224.5 1121,-243.5 1216,-243.5 1216,-224.5 1121,-224.5"/>
<text text-anchor="middle" x="1168.5" y="-231.5" font-family="FreeSans" font-size="10.00">magick/image.h</text>
</a>
</g>
</g>
<!-- Node1&#45;&gt;Node2 -->
<g id="edge1" class="edge">
<title>Node1&#45;&gt;Node2</title>
<path fill="none" stroke="midnightblue" d="M1523.03,-565.84C1623.98,-557.32 1865.5,-529.55 1865.5,-459 1865.5,-459 1865.5,-459 1865.5,-345 1865.5,-280.47 1393.29,-247.64 1226.22,-238.05"/>
<polygon fill="midnightblue" stroke="midnightblue" points="1226.32,-234.55 1216.13,-237.48 1225.92,-241.54 1226.32,-234.55"/>
</g>
<!-- Node3 -->
<g id="node3" class="node">
<title>Node3</title>
<g id="a_node3"><a xlink:href="color_8h.html" target="_top" xlink:title=" ">
<polygon fill="white" stroke="black" points="1787.5,-168.5 1787.5,-187.5 1875.5,-187.5 1875.5,-168.5 1787.5,-168.5"/>
<text text-anchor="middle" x="1831.5" y="-175.5" font-family="FreeSans" font-size="10.00">magick/color.h</text>
</a>
</g>
</g>
<!-- Node1&#45;&gt;Node3 -->
<g id="edge41" class="edge">
<title>Node1&#45;&gt;Node3</title>
<path fill="none" stroke="midnightblue" d="M1523.07,-565.97C1601.94,-560.03 1765.07,-545.54 1817.5,-524 1861.82,-505.79 1903.5,-506.91 1903.5,-459 1903.5,-459 1903.5,-459 1903.5,-289 1903.5,-249.94 1871.32,-213.94 1849.99,-194.37"/>
<polygon fill="midnightblue" stroke="midnightblue" points="1852.25,-191.7 1842.44,-187.7 1847.62,-196.94 1852.25,-191.7"/>
</g>
<!-- Node30 -->
<g id="node30" class="node">
<title>Node30</title>
<g id="a_node30"><a xlink:href="image-private_8h.html" target="_top" xlink:title=" ">
<polygon fill="white" stroke="black" points="1280.5,-448.5 1280.5,-467.5 1414.5,-467.5 1414.5,-448.5 1280.5,-448.5"/>
<text text-anchor="middle" x="1347.5" y="-455.5" font-family="FreeSans" font-size="10.00">magick/image&#45;private.h</text>
</a>
</g>
</g>
<!-- Node1&#45;&gt;Node30 -->
<g id="edge42" class="edge">
<title>Node1&#45;&gt;Node30</title>
<path fill="none" stroke="midnightblue" d="M1474.31,-560.07C1466.15,-546.6 1449.18,-520.86 1429.5,-504 1414.04,-490.75 1394.05,-479.68 1377.68,-471.84"/>
<polygon fill="midnightblue" stroke="midnightblue" points="1379.07,-468.63 1368.52,-467.6 1376.13,-474.98 1379.07,-468.63"/>
</g>
<!-- Node31 -->
<g id="node31" class="node">
<title>Node31</title>
<g id="a_node31"><a xlink:href="memory___8h.html" target="_top" xlink:title=" ">
<polygon fill="white" stroke="black" points="1113,-448.5 1113,-467.5 1224,-467.5 1224,-448.5 1113,-448.5"/>
<text text-anchor="middle" x="1168.5" y="-455.5" font-family="FreeSans" font-size="10.00">magick/memory_.h</text>
</a>
</g>
</g>
<!-- Node1&#45;&gt;Node31 -->
<g id="edge43" class="edge">
<title>Node1&#45;&gt;Node31</title>
<path fill="none" stroke="midnightblue" d="M1435.82,-564.76C1391.51,-559.34 1321.65,-547.66 1265.5,-524 1235.5,-511.36 1204.98,-489 1186.38,-474.09"/>
<polygon fill="midnightblue" stroke="midnightblue" points="1188.45,-471.26 1178.5,-467.64 1184.02,-476.68 1188.45,-471.26"/>
</g>
<!-- Node34 -->
<g id="node34" class="node">
<title>Node34</title>
<g id="a_node34"><a xlink:href="pixel-accessor_8h.html" target="_top" xlink:title=" ">
<polygon fill="white" stroke="black" points="1432.5,-448.5 1432.5,-467.5 1566.5,-467.5 1566.5,-448.5 1432.5,-448.5"/>
<text text-anchor="middle" x="1499.5" y="-455.5" font-family="FreeSans" font-size="10.00">magick/pixel&#45;accessor.h</text>
</a>
</g>
</g>
<!-- Node1&#45;&gt;Node34 -->
<g id="edge46" class="edge">
<title>Node1&#45;&gt;Node34</title>
<path fill="none" stroke="midnightblue" d="M1481.07,-560.37C1484.3,-542.62 1491.74,-501.67 1496.12,-477.6"/>
<polygon fill="midnightblue" stroke="midnightblue" points="1499.59,-478.06 1497.94,-467.59 1492.71,-476.8 1499.59,-478.06"/>
</g>
<!-- Node41 -->
<g id="node41" class="node">
<title>Node41</title>
<g id="a_node41"><a xlink:href="quantum-private_8h.html" target="_top" xlink:title=" ">
<polygon fill="white" stroke="black" points="1274.5,-504.5 1274.5,-523.5 1420.5,-523.5 1420.5,-504.5 1274.5,-504.5"/>
<text text-anchor="middle" x="1347.5" y="-511.5" font-family="FreeSans" font-size="10.00">magick/quantum&#45;private.h</text>
</a>
</g>
</g>
<!-- Node1&#45;&gt;Node41 -->
<g id="edge59" class="edge">
<title>Node1&#45;&gt;Node41</title>
<path fill="none" stroke="midnightblue" d="M1458.58,-560.44C1436.76,-551.52 1402.35,-537.44 1377.61,-527.32"/>
<polygon fill="midnightblue" stroke="midnightblue" points="1378.9,-524.06 1368.32,-523.52 1376.25,-530.54 1378.9,-524.06"/>
</g>
<!-- Node2&#45;&gt;Node3 -->
<g id="edge2" class="edge">
<title>Node2&#45;&gt;Node3</title>
<path fill="none" stroke="midnightblue" d="M1216.11,-231.02C1317.41,-226.48 1561.98,-213.77 1777.08,-188.06"/>
<polygon fill="midnightblue" stroke="midnightblue" points="1777.79,-191.5 1787.3,-186.83 1776.95,-184.55 1777.79,-191.5"/>
</g>
<!-- Node4 -->
<g id="node4" class="node">
<title>Node4</title>
<g id="a_node4"><a xlink:href="pixel_8h.html" target="_top" xlink:title=" ">
<polygon fill="white" stroke="black" points="1724.5,-56.5 1724.5,-75.5 1812.5,-75.5 1812.5,-56.5 1724.5,-56.5"/>
<text text-anchor="middle" x="1768.5" y="-63.5" font-family="FreeSans" font-size="10.00">magick/pixel.h</text>
</a>
</g>
</g>
<!-- Node2&#45;&gt;Node4 -->
<g id="edge25" class="edge">
<title>Node2&#45;&gt;Node4</title>
<path fill="none" stroke="midnightblue" d="M1197.72,-224.5C1225.7,-216.1 1268.95,-202.45 1305.5,-188 1325.1,-180.25 1328.6,-174.94 1348.5,-168 1476.67,-123.28 1633.57,-91.31 1714.49,-76.41"/>
<polygon fill="midnightblue" stroke="midnightblue" points="1715.24,-79.83 1724.45,-74.59 1713.98,-72.95 1715.24,-79.83"/>
</g>
<!-- Node5 -->
<g id="node5" class="node">
<title>Node5</title>
<g id="a_node5"><a xlink:href="colorspace_8h.html" target="_top" xlink:title=" ">
<polygon fill="white" stroke="black" points="1373,-0.5 1373,-19.5 1490,-19.5 1490,-0.5 1373,-0.5"/>
<text text-anchor="middle" x="1431.5" y="-7.5" font-family="FreeSans" font-size="10.00">magick/colorspace.h</text>
</a>
</g>
</g>
<!-- Node2&#45;&gt;Node5 -->
<g id="edge12" class="edge">
<title>Node2&#45;&gt;Node5</title>
<path fill="none" stroke="midnightblue" d="M1197.14,-224.35C1219.05,-216.88 1249.34,-204.66 1272.5,-188 1338.09,-140.81 1396.28,-62.4 1420.08,-28.02"/>
<polygon fill="midnightblue" stroke="midnightblue" points="1423.11,-29.79 1425.86,-19.56 1417.33,-25.85 1423.11,-29.79"/>
</g>
<!-- Node9 -->
<g id="node9" class="node">
<title>Node9</title>
<g id="a_node9"><a xlink:href="semaphore_8h.html" target="_top" xlink:title=" ">
<polygon fill="white" stroke="black" points="1068,-0.5 1068,-19.5 1187,-19.5 1187,-0.5 1068,-0.5"/>
<text text-anchor="middle" x="1127.5" y="-7.5" font-family="FreeSans" font-size="10.00">magick/semaphore.h</text>
</a>
</g>
</g>
<!-- Node2&#45;&gt;Node9 -->
<g id="edge38" class="edge">
<title>Node2&#45;&gt;Node9</title>
<path fill="none" stroke="midnightblue" d="M1163.17,-224.4C1157.99,-215.6 1150.36,-201.37 1146.5,-188 1130.4,-132.2 1127.7,-62.94 1127.4,-30.06"/>
<polygon fill="midnightblue" stroke="midnightblue" points="1130.9,-29.67 1127.38,-19.68 1123.9,-29.68 1130.9,-29.67"/>
</g>
<!-- Node10 -->
<g id="node10" class="node">
<title>Node10</title>
<g id="a_node10"><a xlink:href="blob_8h.html" target="_top" xlink:title=" ">
<polygon fill="white" stroke="black" points="149.5,-168.5 149.5,-187.5 235.5,-187.5 235.5,-168.5 149.5,-168.5"/>
<text text-anchor="middle" x="192.5" y="-175.5" font-family="FreeSans" font-size="10.00">magick/blob.h</text>
</a>
</g>
</g>
<!-- Node2&#45;&gt;Node10 -->
<g id="edge9" class="edge">
<title>Node2&#45;&gt;Node10</title>
<path fill="none" stroke="midnightblue" d="M1120.75,-226.25C1114.58,-225.38 1108.38,-224.59 1102.5,-224 724.29,-186.37 623.82,-225.27 245.78,-188.48"/>
<polygon fill="midnightblue" stroke="midnightblue" points="245.95,-184.98 235.66,-187.48 245.27,-191.94 245.95,-184.98"/>
</g>
<!-- Node11 -->
<g id="node11" class="node">
<title>Node11</title>
<g id="a_node11"><a xlink:href="stream_8h.html" target="_top" xlink:title=" ">
<polygon fill="white" stroke="black" points="143,-112.5 143,-131.5 242,-131.5 242,-112.5 143,-112.5"/>
<text text-anchor="middle" x="192.5" y="-119.5" font-family="FreeSans" font-size="10.00">magick/stream.h</text>
</a>
</g>
</g>
<!-- Node2&#45;&gt;Node11 -->
<g id="edge39" class="edge">
<title>Node2&#45;&gt;Node11</title>
<path fill="none" stroke="midnightblue" d="M1120.97,-225.08C1117.77,-224.68 1114.59,-224.31 1111.5,-224 928.03,-205.59 456.68,-248.53 282.5,-188 266.91,-182.58 231.9,-155.32 210.43,-137.87"/>
<polygon fill="midnightblue" stroke="midnightblue" points="212.63,-135.14 202.67,-131.51 208.19,-140.56 212.63,-135.14"/>
</g>
<!-- Node12 -->
<g id="node12" class="node">
<title>Node12</title>
<g id="a_node12"><a xlink:href="cache-view_8h.html" target="_top" xlink:title=" ">
<polygon fill="white" stroke="black" points="1646,-112.5 1646,-131.5 1765,-131.5 1765,-112.5 1646,-112.5"/>
<text text-anchor="middle" x="1705.5" y="-119.5" font-family="FreeSans" font-size="10.00">magick/cache&#45;view.h</text>
</a>
</g>
</g>
<!-- Node2&#45;&gt;Node12 -->
<g id="edge13" class="edge">
<title>Node2&#45;&gt;Node12</title>
<path fill="none" stroke="midnightblue" d="M1216.22,-231.2C1315.46,-226.95 1540.77,-214.63 1612.5,-188 1628.23,-182.16 1664.22,-155.3 1686.53,-137.99"/>
<polygon fill="midnightblue" stroke="midnightblue" points="1688.89,-140.59 1694.61,-131.67 1684.58,-135.07 1688.89,-140.59"/>
</g>
<!-- Node13 -->
<g id="node13" class="node">
<title>Node13</title>
<g id="a_node13"><a xlink:href="composite_8h.html" target="_top" xlink:title=" ">
<polygon fill="white" stroke="black" points="1357.5,-168.5 1357.5,-187.5 1473.5,-187.5 1473.5,-168.5 1357.5,-168.5"/>
<text text-anchor="middle" x="1415.5" y="-175.5" font-family="FreeSans" font-size="10.00">magick/composite.h</text>
</a>
</g>
</g>
<!-- Node2&#45;&gt;Node13 -->
<g id="edge15" class="edge">
<title>Node2&#45;&gt;Node13</title>
<path fill="none" stroke="midnightblue" d="M1207.64,-224.44C1250.73,-215.02 1320.06,-199.87 1366.67,-189.68"/>
<polygon fill="midnightblue" stroke="midnightblue" points="1367.52,-193.07 1376.55,-187.52 1366.03,-186.23 1367.52,-193.07"/>
</g>
<!-- Node14 -->
<g id="node14" class="node">
<title>Node14</title>
<g id="a_node14"><a xlink:href="compress_8h.html" target="_top" xlink:title=" ">
<polygon fill="white" stroke="black" points="1491.5,-168.5 1491.5,-187.5 1603.5,-187.5 1603.5,-168.5 1491.5,-168.5"/>
<text text-anchor="middle" x="1547.5" y="-175.5" font-family="FreeSans" font-size="10.00">magick/compress.h</text>
</a>
</g>
</g>
<!-- Node2&#45;&gt;Node14 -->
<g id="edge16" class="edge">
<title>Node2&#45;&gt;Node14</title>
<path fill="none" stroke="midnightblue" d="M1216.12,-226.22C1283.19,-216.66 1405.74,-199.2 1481.54,-188.4"/>
<polygon fill="midnightblue" stroke="midnightblue" points="1482.06,-191.86 1491.46,-186.98 1481.07,-184.93 1482.06,-191.86"/>
</g>
<!-- Node15 -->
<g id="node15" class="node">
<title>Node15</title>
<g id="a_node15"><a xlink:href="effect_8h.html" target="_top" xlink:title=" ">
<polygon fill="white" stroke="black" points="291.5,-168.5 291.5,-187.5 383.5,-187.5 383.5,-168.5 291.5,-168.5"/>
<text text-anchor="middle" x="337.5" y="-175.5" font-family="FreeSans" font-size="10.00">magick/effect.h</text>
</a>
</g>
</g>
<!-- Node2&#45;&gt;Node15 -->
<g id="edge17" class="edge">
<title>Node2&#45;&gt;Node15</title>
<path fill="none" stroke="midnightblue" d="M1120.96,-225.11C1117.77,-224.7 1114.59,-224.32 1111.5,-224 795.46,-191.18 713.66,-219.6 397.5,-188 396.23,-187.87 394.95,-187.74 393.66,-187.6"/>
<polygon fill="midnightblue" stroke="midnightblue" points="393.98,-184.11 383.63,-186.39 393.14,-191.06 393.98,-184.11"/>
</g>
<!-- Node17 -->
<g id="node17" class="node">
<title>Node17</title>
<g id="a_node17"><a xlink:href="geometry_8h.html" target="_top" xlink:title=" ">
<polygon fill="white" stroke="black" points="267.5,-56.5 267.5,-75.5 377.5,-75.5 377.5,-56.5 267.5,-56.5"/>
<text text-anchor="middle" x="322.5" y="-63.5" font-family="FreeSans" font-size="10.00">magick/geometry.h</text>
</a>
</g>
</g>
<!-- Node2&#45;&gt;Node17 -->
<g id="edge20" class="edge">
<title>Node2&#45;&gt;Node17</title>
<path fill="none" stroke="midnightblue" d="M1120.96,-225.12C1117.77,-224.7 1114.59,-224.32 1111.5,-224 1036.14,-216.08 493.88,-229.52 430.5,-188 398.91,-167.3 417.73,-140.1 392.5,-112 380.82,-98.98 364.53,-88.22 350.6,-80.48"/>
<polygon fill="midnightblue" stroke="midnightblue" points="351.9,-77.21 341.43,-75.62 348.63,-83.39 351.9,-77.21"/>
</g>
<!-- Node18 -->
<g id="node18" class="node">
<title>Node18</title>
<g id="a_node18"><a xlink:href="layer_8h.html" target="_top" xlink:title=" ">
<polygon fill="white" stroke="black" points="553,-168.5 553,-187.5 642,-187.5 642,-168.5 553,-168.5"/>
<text text-anchor="middle" x="597.5" y="-175.5" font-family="FreeSans" font-size="10.00">magick/layer.h</text>
</a>
</g>
</g>
<!-- Node2&#45;&gt;Node18 -->
<g id="edge21" class="edge">
<title>Node2&#45;&gt;Node18</title>
<path fill="none" stroke="midnightblue" d="M1120.95,-225.21C1117.76,-224.77 1114.58,-224.36 1111.5,-224 910.69,-200.34 856.2,-212.81 652.41,-188.14"/>
<polygon fill="midnightblue" stroke="midnightblue" points="652.63,-184.64 642.28,-186.9 651.78,-191.59 652.63,-184.64"/>
</g>
<!-- Node19 -->
<g id="node19" class="node">
<title>Node19</title>
<g id="a_node19"><a xlink:href="locale___8h.html" target="_top" xlink:title=" ">
<polygon fill="white" stroke="black" points="1000,-168.5 1000,-187.5 1099,-187.5 1099,-168.5 1000,-168.5"/>
<text text-anchor="middle" x="1049.5" y="-175.5" font-family="FreeSans" font-size="10.00">magick/locale_.h</text>
</a>
</g>
</g>
<!-- Node2&#45;&gt;Node19 -->
<g id="edge22" class="edge">
<title>Node2&#45;&gt;Node19</title>
<path fill="none" stroke="midnightblue" d="M1149.64,-224.44C1130.23,-215.64 1099.77,-201.81 1077.54,-191.72"/>
<polygon fill="midnightblue" stroke="midnightblue" points="1078.82,-188.46 1068.27,-187.52 1075.93,-194.84 1078.82,-188.46"/>
</g>
<!-- Node21 -->
<g id="node21" class="node">
<title>Node21</title>
<g id="a_node21"><a xlink:href="monitor_8h.html" target="_top" xlink:title=" ">
<polygon fill="white" stroke="black" points="659.5,-168.5 659.5,-187.5 761.5,-187.5 761.5,-168.5 659.5,-168.5"/>
<text text-anchor="middle" x="710.5" y="-175.5" font-family="FreeSans" font-size="10.00">magick/monitor.h</text>
</a>
</g>
</g>
<!-- Node2&#45;&gt;Node21 -->
<g id="edge24" class="edge">
<title>Node2&#45;&gt;Node21</title>
<path fill="none" stroke="midnightblue" d="M1120.94,-225.3C1117.75,-224.84 1114.58,-224.41 1111.5,-224 963.65,-204.54 923.39,-207.18 771.7,-188.1"/>
<polygon fill="midnightblue" stroke="midnightblue" points="771.9,-184.6 761.54,-186.81 771.02,-191.54 771.9,-184.6"/>
</g>
<!-- Node22 -->
<g id="node22" class="node">
<title>Node22</title>
<g id="a_node22"><a xlink:href="profile_8h.html" target="_top" xlink:title=" ">
<polygon fill="white" stroke="black" points="440,-168.5 440,-187.5 535,-187.5 535,-168.5 440,-168.5"/>
<text text-anchor="middle" x="487.5" y="-175.5" font-family="FreeSans" font-size="10.00">magick/profile.h</text>
</a>
</g>
</g>
<!-- Node2&#45;&gt;Node22 -->
<g id="edge26" class="edge">
<title>Node2&#45;&gt;Node22</title>
<path fill="none" stroke="midnightblue" d="M1120.96,-225.15C1117.76,-224.73 1114.59,-224.34 1111.5,-224 863.39,-196.61 796.64,-215.59 545.29,-188.1"/>
<polygon fill="midnightblue" stroke="midnightblue" points="545.44,-184.59 535.12,-186.97 544.67,-191.55 545.44,-184.59"/>
</g>
<!-- Node25 -->
<g id="node25" class="node">
<title>Node25</title>
<g id="a_node25"><a xlink:href="quantum_8h.html" target="_top" xlink:title=" ">
<polygon fill="white" stroke="black" points="1155.5,-168.5 1155.5,-187.5 1263.5,-187.5 1263.5,-168.5 1155.5,-168.5"/>
<text text-anchor="middle" x="1209.5" y="-175.5" font-family="FreeSans" font-size="10.00">magick/quantum.h</text>
</a>
</g>
</g>
<!-- Node2&#45;&gt;Node25 -->
<g id="edge31" class="edge">
<title>Node2&#45;&gt;Node25</title>
<path fill="none" stroke="midnightblue" d="M1170.1,-224.08C1174.37,-216.3 1182.74,-204.8 1190.81,-195.37"/>
<polygon fill="midnightblue" stroke="midnightblue" points="1193.6,-197.51 1197.72,-187.75 1188.41,-192.8 1193.6,-197.51"/>
</g>
<!-- Node27 -->
<g id="node27" class="node">
<title>Node27</title>
<g id="a_node27"><a xlink:href="resample_8h.html" target="_top" xlink:title=" ">
<polygon fill="white" stroke="black" points="1659.5,-168.5 1659.5,-187.5 1769.5,-187.5 1769.5,-168.5 1659.5,-168.5"/>
<text text-anchor="middle" x="1714.5" y="-175.5" font-family="FreeSans" font-size="10.00">magick/resample.h</text>
</a>
</g>
</g>
<!-- Node2&#45;&gt;Node27 -->
<g id="edge35" class="edge">
<title>Node2&#45;&gt;Node27</title>
<path fill="none" stroke="midnightblue" d="M1216.29,-229.06C1302.26,-221.84 1488.65,-205.62 1645.5,-188 1646.61,-187.88 1647.73,-187.75 1648.86,-187.62"/>
<polygon fill="midnightblue" stroke="midnightblue" points="1649.64,-191.05 1659.16,-186.39 1648.82,-184.1 1649.64,-191.05"/>
</g>
<!-- Node28 -->
<g id="node28" class="node">
<title>Node28</title>
<g id="a_node28"><a xlink:href="resize_8h.html" target="_top" xlink:title=" ">
<polygon fill="white" stroke="black" points="779.5,-168.5 779.5,-187.5 873.5,-187.5 873.5,-168.5 779.5,-168.5"/>
<text text-anchor="middle" x="826.5" y="-175.5" font-family="FreeSans" font-size="10.00">magick/resize.h</text>
</a>
</g>
</g>
<!-- Node2&#45;&gt;Node28 -->
<g id="edge37" class="edge">
<title>Node2&#45;&gt;Node28</title>
<path fill="none" stroke="midnightblue" d="M1120.91,-225.48C1117.73,-224.98 1114.57,-224.48 1111.5,-224 1012.91,-208.47 985.92,-204.42 883.69,-188.18"/>
<polygon fill="midnightblue" stroke="midnightblue" points="883.98,-184.69 873.55,-186.57 882.88,-191.6 883.98,-184.69"/>
</g>
<!-- Node29 -->
<g id="node29" class="node">
<title>Node29</title>
<g id="a_node29"><a xlink:href="timer_8h.html" target="_top" xlink:title=" ">
<polygon fill="white" stroke="black" points="891.5,-168.5 891.5,-187.5 981.5,-187.5 981.5,-168.5 891.5,-168.5"/>
<text text-anchor="middle" x="936.5" y="-175.5" font-family="FreeSans" font-size="10.00">magick/timer.h</text>
</a>
</g>
</g>
<!-- Node2&#45;&gt;Node29 -->
<g id="edge40" class="edge">
<title>Node2&#45;&gt;Node29</title>
<path fill="none" stroke="midnightblue" d="M1131.74,-224.44C1091.44,-215.06 1026.69,-199.99 982.92,-189.8"/>
<polygon fill="midnightblue" stroke="midnightblue" points="983.62,-186.37 973.09,-187.52 982.04,-193.19 983.62,-186.37"/>
</g>
<!-- Node3&#45;&gt;Node4 -->
<g id="edge3" class="edge">
<title>Node3&#45;&gt;Node4</title>
<path fill="none" stroke="midnightblue" d="M1829.32,-168.14C1825.91,-155.2 1818.52,-130.64 1807.5,-112 1801.27,-101.45 1792.45,-91.03 1784.77,-82.87"/>
<polygon fill="midnightblue" stroke="midnightblue" points="1787.11,-80.26 1777.62,-75.55 1782.1,-85.15 1787.11,-80.26"/>
</g>
<!-- Node7 -->
<g id="node7" class="node">
<title>Node7</title>
<g id="a_node7"><a xlink:href="exception_8h.html" target="_top" xlink:title=" ">
<polygon fill="white" stroke="black" points="976,-56.5 976,-75.5 1089,-75.5 1089,-56.5 976,-56.5"/>
<text text-anchor="middle" x="1032.5" y="-63.5" font-family="FreeSans" font-size="10.00">magick/exception.h</text>
</a>
</g>
</g>
<!-- Node3&#45;&gt;Node7 -->
<g id="edge6" class="edge">
<title>Node3&#45;&gt;Node7</title>
<path fill="none" stroke="midnightblue" d="M1826.93,-168.31C1818.7,-153.65 1799.84,-124.42 1774.5,-112 1714.81,-82.74 1270.55,-71.43 1099.43,-68.13"/>
<polygon fill="midnightblue" stroke="midnightblue" points="1099.35,-64.63 1089.29,-67.94 1099.22,-71.63 1099.35,-64.63"/>
</g>
<!-- Node4&#45;&gt;Node5 -->
<g id="edge4" class="edge">
<title>Node4&#45;&gt;Node5</title>
<path fill="none" stroke="midnightblue" d="M1724.44,-57.94C1665.81,-48.55 1561.76,-31.87 1494.75,-21.13"/>
<polygon fill="midnightblue" stroke="midnightblue" points="1495.16,-17.66 1484.73,-19.53 1494.05,-24.57 1495.16,-17.66"/>
</g>
<!-- Node6 -->
<g id="node6" class="node">
<title>Node6</title>
<g id="a_node6"><a xlink:href="constitute_8h.html" target="_top" xlink:title=" ">
<polygon fill="white" stroke="black" points="1712,-0.5 1712,-19.5 1825,-19.5 1825,-0.5 1712,-0.5"/>
<text text-anchor="middle" x="1768.5" y="-7.5" font-family="FreeSans" font-size="10.00">magick/constitute.h</text>
</a>
</g>
</g>
<!-- Node4&#45;&gt;Node6 -->
<g id="edge5" class="edge">
<title>Node4&#45;&gt;Node6</title>
<path fill="none" stroke="midnightblue" d="M1768.5,-56.08C1768.5,-49.01 1768.5,-38.86 1768.5,-29.99"/>
<polygon fill="midnightblue" stroke="midnightblue" points="1772,-29.75 1768.5,-19.75 1765,-29.75 1772,-29.75"/>
</g>
<!-- Node8 -->
<g id="node8" class="node">
<title>Node8</title>
<g id="a_node8"><a xlink:title=" ">
<polygon fill="white" stroke="#bfbfbf" points="823.5,-0.5 823.5,-19.5 879.5,-19.5 879.5,-0.5 823.5,-0.5"/>
<text text-anchor="middle" x="851.5" y="-7.5" font-family="FreeSans" font-size="10.00">stdarg.h</text>
</a>
</g>
</g>
<!-- Node7&#45;&gt;Node8 -->
<g id="edge7" class="edge">
<title>Node7&#45;&gt;Node8</title>
<path fill="none" stroke="midnightblue" d="M1003.82,-56.44C972.88,-47.21 923.48,-32.48 889.37,-22.3"/>
<polygon fill="midnightblue" stroke="midnightblue" points="890.33,-18.93 879.75,-19.43 888.33,-25.64 890.33,-18.93"/>
</g>
<!-- Node7&#45;&gt;Node9 -->
<g id="edge8" class="edge">
<title>Node7&#45;&gt;Node9</title>
<path fill="none" stroke="midnightblue" d="M1047.76,-56.32C1062.72,-47.82 1085.75,-34.73 1103.23,-24.8"/>
<polygon fill="midnightblue" stroke="midnightblue" points="1105.31,-27.64 1112.27,-19.65 1101.85,-21.55 1105.31,-27.64"/>
</g>
<!-- Node10&#45;&gt;Node2 -->
<g id="edge10" class="edge">
<title>Node10&#45;&gt;Node2</title>
<path fill="none" stroke="midnightblue" d="M235.56,-185.07C243.25,-186.2 251.12,-187.27 258.5,-188 636.71,-225.63 737.18,-186.73 1114.92,-223.49"/>
<polygon fill="midnightblue" stroke="midnightblue" points="1114.74,-226.99 1125.04,-224.48 1115.43,-220.02 1114.74,-226.99"/>
</g>
<!-- Node10&#45;&gt;Node11 -->
<g id="edge11" class="edge">
<title>Node10&#45;&gt;Node11</title>
<path fill="none" stroke="midnightblue" d="M192.5,-168.08C192.5,-161.01 192.5,-150.86 192.5,-141.99"/>
<polygon fill="midnightblue" stroke="midnightblue" points="196,-141.75 192.5,-131.75 189,-141.75 196,-141.75"/>
</g>
<!-- Node12&#45;&gt;Node4 -->
<g id="edge14" class="edge">
<title>Node12&#45;&gt;Node4</title>
<path fill="none" stroke="midnightblue" d="M1715.62,-112.32C1725.03,-104.26 1739.24,-92.08 1750.57,-82.37"/>
<polygon fill="midnightblue" stroke="midnightblue" points="1752.88,-85 1758.19,-75.83 1748.32,-79.68 1752.88,-85"/>
</g>
<!-- Node16 -->
<g id="node16" class="node">
<title>Node16</title>
<g id="a_node16"><a xlink:href="morphology_8h.html" target="_top" xlink:title=" ">
<polygon fill="white" stroke="black" points="261.5,-112.5 261.5,-131.5 383.5,-131.5 383.5,-112.5 261.5,-112.5"/>
<text text-anchor="middle" x="322.5" y="-119.5" font-family="FreeSans" font-size="10.00">magick/morphology.h</text>
</a>
</g>
</g>
<!-- Node15&#45;&gt;Node16 -->
<g id="edge18" class="edge">
<title>Node15&#45;&gt;Node16</title>
<path fill="none" stroke="midnightblue" d="M335.02,-168.08C333.01,-160.85 330.11,-150.41 327.61,-141.4"/>
<polygon fill="midnightblue" stroke="midnightblue" points="330.98,-140.45 324.93,-131.75 324.24,-142.32 330.98,-140.45"/>
</g>
<!-- Node16&#45;&gt;Node17 -->
<g id="edge19" class="edge">
<title>Node16&#45;&gt;Node17</title>
<path fill="none" stroke="midnightblue" d="M322.5,-112.08C322.5,-105.01 322.5,-94.86 322.5,-85.99"/>
<polygon fill="midnightblue" stroke="midnightblue" points="326,-85.75 322.5,-75.75 319,-85.75 326,-85.75"/>
</g>
<!-- Node20 -->
<g id="node20" class="node">
<title>Node20</title>
<g id="a_node20"><a xlink:href="hashmap_8h.html" target="_top" xlink:title=" ">
<polygon fill="white" stroke="black" points="989.5,-112.5 989.5,-131.5 1099.5,-131.5 1099.5,-112.5 989.5,-112.5"/>
<text text-anchor="middle" x="1044.5" y="-119.5" font-family="FreeSans" font-size="10.00">magick/hashmap.h</text>
</a>
</g>
</g>
<!-- Node19&#45;&gt;Node20 -->
<g id="edge23" class="edge">
<title>Node19&#45;&gt;Node20</title>
<path fill="none" stroke="midnightblue" d="M1048.67,-168.08C1048.02,-161.01 1047.08,-150.86 1046.26,-141.99"/>
<polygon fill="midnightblue" stroke="midnightblue" points="1049.72,-141.39 1045.31,-131.75 1042.75,-142.03 1049.72,-141.39"/>
</g>
<!-- Node23 -->
<g id="node23" class="node">
<title>Node23</title>
<g id="a_node23"><a xlink:href="string___8h.html" target="_top" xlink:title=" ">
<polygon fill="white" stroke="black" points="631.5,-112.5 631.5,-131.5 729.5,-131.5 729.5,-112.5 631.5,-112.5"/>
<text text-anchor="middle" x="680.5" y="-119.5" font-family="FreeSans" font-size="10.00">magick/string_.h</text>
</a>
</g>
</g>
<!-- Node22&#45;&gt;Node23 -->
<g id="edge27" class="edge">
<title>Node22&#45;&gt;Node23</title>
<path fill="none" stroke="midnightblue" d="M518.08,-168.44C551.11,-159.2 603.89,-144.44 640.27,-134.26"/>
<polygon fill="midnightblue" stroke="midnightblue" points="641.37,-137.58 650.06,-131.52 639.49,-130.84 641.37,-137.58"/>
</g>
<!-- Node23&#45;&gt;Node7 -->
<g id="edge30" class="edge">
<title>Node23&#45;&gt;Node7</title>
<path fill="none" stroke="midnightblue" d="M729.81,-113.43C791.63,-103.95 897.82,-87.66 966.57,-77.11"/>
<polygon fill="midnightblue" stroke="midnightblue" points="967.49,-80.51 976.85,-75.54 966.43,-73.59 967.49,-80.51"/>
</g>
<!-- Node23&#45;&gt;Node8 -->
<g id="edge28" class="edge">
<title>Node23&#45;&gt;Node8</title>
<path fill="none" stroke="midnightblue" d="M680.54,-112.1C681.1,-98.2 684.23,-71.32 699.5,-56 729.61,-25.79 778.96,-15.67 813.23,-12.38"/>
<polygon fill="midnightblue" stroke="midnightblue" points="813.66,-15.86 823.34,-11.56 813.09,-8.88 813.66,-15.86"/>
</g>
<!-- Node24 -->
<g id="node24" class="node">
<title>Node24</title>
<g id="a_node24"><a xlink:title=" ">
<polygon fill="white" stroke="#bfbfbf" points="708.5,-56.5 708.5,-75.5 756.5,-75.5 756.5,-56.5 708.5,-56.5"/>
<text text-anchor="middle" x="732.5" y="-63.5" font-family="FreeSans" font-size="10.00">time.h</text>
</a>
</g>
</g>
<!-- Node23&#45;&gt;Node24 -->
<g id="edge29" class="edge">
<title>Node23&#45;&gt;Node24</title>
<path fill="none" stroke="midnightblue" d="M689.09,-112.08C696.66,-104.22 707.88,-92.57 717.01,-83.08"/>
<polygon fill="midnightblue" stroke="midnightblue" points="719.66,-85.38 724.07,-75.75 714.62,-80.53 719.66,-85.38"/>
</g>
<!-- Node25&#45;&gt;Node2 -->
<g id="edge33" class="edge">
<title>Node25&#45;&gt;Node2</title>
<path fill="none" stroke="midnightblue" d="M1207.99,-187.75C1203.78,-195.48 1195.44,-206.97 1187.36,-216.43"/>
<polygon fill="midnightblue" stroke="midnightblue" points="1184.55,-214.32 1180.44,-224.08 1189.74,-219.02 1184.55,-214.32"/>
</g>
<!-- Node25&#45;&gt;Node9 -->
<g id="edge34" class="edge">
<title>Node25&#45;&gt;Node9</title>
<path fill="none" stroke="midnightblue" d="M1204.79,-168.43C1199.87,-159.42 1191.98,-144.8 1185.5,-132 1167.08,-95.61 1146.73,-52.39 1135.7,-28.71"/>
<polygon fill="midnightblue" stroke="midnightblue" points="1138.84,-27.17 1131.45,-19.57 1132.49,-30.11 1138.84,-27.17"/>
</g>
<!-- Node26 -->
<g id="node26" class="node">
<title>Node26</title>
<g id="a_node26"><a xlink:title=" ">
<polygon fill="white" stroke="#bfbfbf" points="1194,-112.5 1194,-131.5 1241,-131.5 1241,-112.5 1194,-112.5"/>
<text text-anchor="middle" x="1217.5" y="-119.5" font-family="FreeSans" font-size="10.00">float.h</text>
</a>
</g>
</g>
<!-- Node25&#45;&gt;Node26 -->
<g id="edge32" class="edge">
<title>Node25&#45;&gt;Node26</title>
<path fill="none" stroke="midnightblue" d="M1210.82,-168.08C1211.88,-160.93 1213.41,-150.64 1214.73,-141.69"/>
<polygon fill="midnightblue" stroke="midnightblue" points="1218.2,-142.16 1216.2,-131.75 1211.28,-141.13 1218.2,-142.16"/>
</g>
<!-- Node27&#45;&gt;Node12 -->
<g id="edge36" class="edge">
<title>Node27&#45;&gt;Node12</title>
<path fill="none" stroke="midnightblue" d="M1713.01,-168.08C1711.82,-160.93 1710.11,-150.64 1708.62,-141.69"/>
<polygon fill="midnightblue" stroke="midnightblue" points="1712.05,-141.04 1706.96,-131.75 1705.15,-142.19 1712.05,-141.04"/>
</g>
<!-- Node32 -->
<g id="node32" class="node">
<title>Node32</title>
<g id="a_node32"><a xlink:title=" ">
<polygon fill="white" stroke="#bfbfbf" points="1158,-392.5 1158,-411.5 1209,-411.5 1209,-392.5 1158,-392.5"/>
<text text-anchor="middle" x="1183.5" y="-399.5" font-family="FreeSans" font-size="10.00">errno.h</text>
</a>
</g>
</g>
<!-- Node31&#45;&gt;Node32 -->
<g id="edge44" class="edge">
<title>Node31&#45;&gt;Node32</title>
<path fill="none" stroke="midnightblue" d="M1170.98,-448.08C1172.99,-440.85 1175.89,-430.41 1178.39,-421.4"/>
<polygon fill="midnightblue" stroke="midnightblue" points="1181.76,-422.32 1181.07,-411.75 1175.02,-420.45 1181.76,-422.32"/>
</g>
<!-- Node33 -->
<g id="node33" class="node">
<title>Node33</title>
<g id="a_node33"><a xlink:title=" ">
<polygon fill="white" stroke="#bfbfbf" points="1083.5,-392.5 1083.5,-411.5 1139.5,-411.5 1139.5,-392.5 1083.5,-392.5"/>
<text text-anchor="middle" x="1111.5" y="-399.5" font-family="FreeSans" font-size="10.00">assert.h</text>
</a>
</g>
</g>
<!-- Node31&#45;&gt;Node33 -->
<g id="edge45" class="edge">
<title>Node31&#45;&gt;Node33</title>
<path fill="none" stroke="midnightblue" d="M1159.34,-448.32C1151,-440.42 1138.47,-428.55 1128.32,-418.94"/>
<polygon fill="midnightblue" stroke="midnightblue" points="1130.49,-416.17 1120.82,-411.83 1125.68,-421.25 1130.49,-416.17"/>
</g>
<!-- Node34&#45;&gt;Node4 -->
<g id="edge58" class="edge">
<title>Node34&#45;&gt;Node4</title>
<path fill="none" stroke="midnightblue" d="M1553.26,-448.49C1671.05,-428.32 1941.5,-373.07 1941.5,-291 1941.5,-291 1941.5,-291 1941.5,-177 1941.5,-119.77 1873.26,-91.04 1822.5,-77.58"/>
<polygon fill="midnightblue" stroke="midnightblue" points="1823.15,-74.14 1812.6,-75.09 1821.45,-80.93 1823.15,-74.14"/>
</g>
<!-- Node35 -->
<g id="node35" class="node">
<title>Node35</title>
<g id="a_node35"><a xlink:title=" ">
<polygon fill="white" stroke="#bfbfbf" points="1378,-392.5 1378,-411.5 1429,-411.5 1429,-392.5 1378,-392.5"/>
<text text-anchor="middle" x="1403.5" y="-399.5" font-family="FreeSans" font-size="10.00">math.h</text>
</a>
</g>
</g>
<!-- Node34&#45;&gt;Node35 -->
<g id="edge47" class="edge">
<title>Node34&#45;&gt;Node35</title>
<path fill="none" stroke="midnightblue" d="M1484.08,-448.32C1468.96,-439.82 1445.68,-426.73 1428.03,-416.8"/>
<polygon fill="midnightblue" stroke="midnightblue" points="1429.32,-413.51 1418.89,-411.65 1425.89,-419.61 1429.32,-413.51"/>
</g>
<!-- Node36 -->
<g id="node36" class="node">
<title>Node36</title>
<g id="a_node36"><a xlink:href="gem_8h.html" target="_top" xlink:title=" ">
<polygon fill="white" stroke="black" points="1447.5,-392.5 1447.5,-411.5 1533.5,-411.5 1533.5,-392.5 1447.5,-392.5"/>
<text text-anchor="middle" x="1490.5" y="-399.5" font-family="FreeSans" font-size="10.00">magick/gem.h</text>
</a>
</g>
</g>
<!-- Node34&#45;&gt;Node36 -->
<g id="edge48" class="edge">
<title>Node34&#45;&gt;Node36</title>
<path fill="none" stroke="midnightblue" d="M1498.01,-448.08C1496.82,-440.93 1495.11,-430.64 1493.62,-421.69"/>
<polygon fill="midnightblue" stroke="midnightblue" points="1497.05,-421.04 1491.96,-411.75 1490.15,-422.19 1497.05,-421.04"/>
</g>
<!-- Node37 -->
<g id="node37" class="node">
<title>Node37</title>
<g id="a_node37"><a xlink:href="random___8h.html" target="_top" xlink:title=" ">
<polygon fill="white" stroke="black" points="1288,-336.5 1288,-355.5 1395,-355.5 1395,-336.5 1288,-336.5"/>
<text text-anchor="middle" x="1341.5" y="-343.5" font-family="FreeSans" font-size="10.00">magick/random_.h</text>
</a>
</g>
</g>
<!-- Node36&#45;&gt;Node37 -->
<g id="edge49" class="edge">
<title>Node36&#45;&gt;Node37</title>
<path fill="none" stroke="midnightblue" d="M1466.89,-392.44C1442.04,-383.44 1402.73,-369.19 1374.75,-359.05"/>
<polygon fill="midnightblue" stroke="midnightblue" points="1375.59,-355.63 1365,-355.52 1373.21,-362.21 1375.59,-355.63"/>
</g>
<!-- Node38 -->
<g id="node38" class="node">
<title>Node38</title>
<g id="a_node38"><a xlink:href="visual-effects_8h.html" target="_top" xlink:title=" ">
<polygon fill="white" stroke="black" points="1416,-336.5 1416,-355.5 1547,-355.5 1547,-336.5 1416,-336.5"/>
<text text-anchor="middle" x="1481.5" y="-343.5" font-family="FreeSans" font-size="10.00">magick/visual&#45;effects.h</text>
</a>
</g>
</g>
<!-- Node36&#45;&gt;Node38 -->
<g id="edge51" class="edge">
<title>Node36&#45;&gt;Node38</title>
<path fill="none" stroke="midnightblue" d="M1489.01,-392.08C1487.82,-384.93 1486.11,-374.64 1484.62,-365.69"/>
<polygon fill="midnightblue" stroke="midnightblue" points="1488.05,-365.04 1482.96,-355.75 1481.15,-366.19 1488.05,-365.04"/>
</g>
<!-- Node37&#45;&gt;Node23 -->
<g id="edge50" class="edge">
<title>Node37&#45;&gt;Node23</title>
<path fill="none" stroke="midnightblue" d="M1287.65,-338.44C1055.33,-310.1 150.17,-199.02 140.5,-188 134.64,-181.32 134.48,-174.54 140.5,-168 156.6,-150.5 484.25,-132.57 621.17,-125.81"/>
<polygon fill="midnightblue" stroke="midnightblue" points="621.66,-129.29 631.48,-125.3 621.32,-122.29 621.66,-129.29"/>
</g>
<!-- Node39 -->
<g id="node39" class="node">
<title>Node39</title>
<g id="a_node39"><a xlink:href="draw_8h.html" target="_top" xlink:title=" ">
<polygon fill="white" stroke="black" points="1280.5,-280.5 1280.5,-299.5 1368.5,-299.5 1368.5,-280.5 1280.5,-280.5"/>
<text text-anchor="middle" x="1324.5" y="-287.5" font-family="FreeSans" font-size="10.00">magick/draw.h</text>
</a>
</g>
</g>
<!-- Node38&#45;&gt;Node39 -->
<g id="edge52" class="edge">
<title>Node38&#45;&gt;Node39</title>
<path fill="none" stroke="midnightblue" d="M1456.62,-336.44C1430.21,-327.36 1388.28,-312.94 1358.76,-302.78"/>
<polygon fill="midnightblue" stroke="midnightblue" points="1359.86,-299.46 1349.26,-299.52 1357.58,-306.08 1359.86,-299.46"/>
</g>
<!-- Node39&#45;&gt;Node2 -->
<g id="edge54" class="edge">
<title>Node39&#45;&gt;Node2</title>
<path fill="none" stroke="midnightblue" d="M1299.78,-280.44C1273.65,-271.4 1232.24,-257.06 1202.92,-246.92"/>
<polygon fill="midnightblue" stroke="midnightblue" points="1203.7,-243.48 1193.1,-243.52 1201.41,-250.1 1203.7,-243.48"/>
</g>
<!-- Node39&#45;&gt;Node3 -->
<g id="edge57" class="edge">
<title>Node39&#45;&gt;Node3</title>
<path fill="none" stroke="midnightblue" d="M1363.86,-280.46C1455.3,-260.62 1681.89,-211.46 1782.28,-189.68"/>
<polygon fill="midnightblue" stroke="midnightblue" points="1783.13,-193.08 1792.16,-187.53 1781.65,-186.23 1783.13,-193.08"/>
</g>
<!-- Node39&#45;&gt;Node4 -->
<g id="edge55" class="edge">
<title>Node39&#45;&gt;Node4</title>
<path fill="none" stroke="midnightblue" d="M1368.84,-288.04C1489.47,-284.41 1818.94,-267.27 1884.5,-188 1918.97,-146.32 1842.24,-101.38 1797.61,-79.88"/>
<polygon fill="midnightblue" stroke="midnightblue" points="1798.9,-76.62 1788.36,-75.54 1795.93,-82.96 1798.9,-76.62"/>
</g>
<!-- Node39&#45;&gt;Node17 -->
<g id="edge53" class="edge">
<title>Node39&#45;&gt;Node17</title>
<path fill="none" stroke="midnightblue" d="M1280.3,-288.45C1075.37,-285.5 224.15,-268.43 140.5,-188 116.05,-164.49 112.47,-138.62 133.5,-112 148.87,-92.54 208.94,-80.59 257.28,-73.94"/>
<polygon fill="midnightblue" stroke="midnightblue" points="257.95,-77.38 267.4,-72.6 257.03,-70.44 257.95,-77.38"/>
</g>
<!-- Node40 -->
<g id="node40" class="node">
<title>Node40</title>
<g id="a_node40"><a xlink:href="type_8h.html" target="_top" xlink:title=" ">
<polygon fill="white" stroke="black" points="1016.5,-224.5 1016.5,-243.5 1102.5,-243.5 1102.5,-224.5 1016.5,-224.5"/>
<text text-anchor="middle" x="1059.5" y="-231.5" font-family="FreeSans" font-size="10.00">magick/type.h</text>
</a>
</g>
</g>
<!-- Node39&#45;&gt;Node40 -->
<g id="edge56" class="edge">
<title>Node39&#45;&gt;Node40</title>
<path fill="none" stroke="midnightblue" d="M1282.51,-280.44C1236.09,-270.98 1161.27,-255.74 1111.26,-245.55"/>
<polygon fill="midnightblue" stroke="midnightblue" points="1111.79,-242.08 1101.29,-243.52 1110.39,-248.94 1111.79,-242.08"/>
</g>
<!-- Node41&#45;&gt;Node30 -->
<g id="edge63" class="edge">
<title>Node41&#45;&gt;Node30</title>
<path fill="none" stroke="midnightblue" d="M1347.5,-504.08C1347.5,-497.01 1347.5,-486.86 1347.5,-477.99"/>
<polygon fill="midnightblue" stroke="midnightblue" points="1351,-477.75 1347.5,-467.75 1344,-477.75 1351,-477.75"/>
</g>
<!-- Node41&#45;&gt;Node31 -->
<g id="edge60" class="edge">
<title>Node41&#45;&gt;Node31</title>
<path fill="none" stroke="midnightblue" d="M1319.14,-504.44C1288.76,-495.28 1240.39,-480.69 1206.68,-470.52"/>
<polygon fill="midnightblue" stroke="midnightblue" points="1207.32,-467.05 1196.73,-467.52 1205.29,-473.76 1207.32,-467.05"/>
</g>
<!-- Node41&#45;&gt;Node34 -->
<g id="edge64" class="edge">
<title>Node41&#45;&gt;Node34</title>
<path fill="none" stroke="midnightblue" d="M1371.58,-504.44C1397.04,-495.4 1437.39,-481.06 1465.96,-470.92"/>
<polygon fill="midnightblue" stroke="midnightblue" points="1467.28,-474.16 1475.53,-467.52 1464.93,-467.57 1467.28,-474.16"/>
</g>
<!-- Node42 -->
<g id="node42" class="node">
<title>Node42</title>
<g id="a_node42"><a xlink:href="cache_8h.html" target="_top" xlink:title=" ">
<polygon fill="white" stroke="black" points="0,-280.5 0,-299.5 93,-299.5 93,-280.5 0,-280.5"/>
<text text-anchor="middle" x="46.5" y="-287.5" font-family="FreeSans" font-size="10.00">magick/cache.h</text>
</a>
</g>
</g>
<!-- Node41&#45;&gt;Node42 -->
<g id="edge61" class="edge">
<title>Node41&#45;&gt;Node42</title>
<path fill="none" stroke="midnightblue" d="M1328.2,-504.45C1311.86,-496.58 1288.47,-483.75 1271.5,-468 1241.32,-439.98 1254.16,-412.6 1218.5,-392 1121.18,-335.77 324.65,-301.56 103.35,-293.08"/>
<polygon fill="midnightblue" stroke="midnightblue" points="103.37,-289.58 93.25,-292.7 103.11,-296.57 103.37,-289.58"/>
</g>
<!-- Node42&#45;&gt;Node10 -->
<g id="edge62" class="edge">
<title>Node42&#45;&gt;Node10</title>
<path fill="none" stroke="midnightblue" d="M57.96,-280.37C82.8,-261.65 141.86,-217.15 172.81,-193.83"/>
<polygon fill="midnightblue" stroke="midnightblue" points="175.22,-196.4 181.1,-187.59 171,-190.81 175.22,-196.4"/>
</g>
</g>
</svg>
