<?xml version="1.0" encoding="UTF-8" standalone="no"?>
<!DOCTYPE svg PUBLIC "-//W3C//DTD SVG 1.1//EN"
 "http://www.w3.org/Graphics/SVG/1.1/DTD/svg11.dtd">
<!-- Generated by graphviz version 2.43.0 (0)
 -->
<!-- Title: pixel.c Pages: 1 -->
<svg width="3024pt" height="308pt"
 viewBox="0.00 0.00 3024.17 308.00" xmlns="http://www.w3.org/2000/svg" xmlns:xlink="http://www.w3.org/1999/xlink">
<g id="graph0" class="graph" transform="scale(1 1) rotate(0) translate(4 304)">
<title>pixel.c</title>
<polygon fill="white" stroke="transparent" points="-4,4 -4,-304 3020.17,-304 3020.17,4 -4,4"/>
<!-- Node1 -->
<g id="node1" class="node">
<title>Node1</title>
<g id="a_node1"><a xlink:title=" ">
<polygon fill="#bfbfbf" stroke="black" points="1890.17,-280.5 1890.17,-299.5 1938.17,-299.5 1938.17,-280.5 1890.17,-280.5"/>
<text text-anchor="middle" x="1914.17" y="-287.5" font-family="FreeSans" font-size="10.00">pixel.c</text>
</a>
</g>
</g>
<!-- Node2 -->
<g id="node2" class="node">
<title>Node2</title>
<g id="a_node2"><a xlink:href="studio_8h.html" target="_top" xlink:title=" ">
<polygon fill="white" stroke="black" points="760.67,-168.5 760.67,-187.5 855.67,-187.5 855.67,-168.5 760.67,-168.5"/>
<text text-anchor="middle" x="808.17" y="-175.5" font-family="FreeSans" font-size="10.00">magick/studio.h</text>
</a>
</g>
</g>
<!-- Node1&#45;&gt;Node2 -->
<g id="edge1" class="edge">
<title>Node1&#45;&gt;Node2</title>
<path fill="none" stroke="midnightblue" d="M1889.88,-288.9C1777.81,-288.24 1310.22,-283.13 1170.17,-244 1151.79,-238.86 1150.34,-229.84 1132.17,-224 1041.98,-194.99 931.75,-184.68 865.89,-181.02"/>
<polygon fill="midnightblue" stroke="midnightblue" points="865.88,-177.51 855.71,-180.48 865.52,-184.5 865.88,-177.51"/>
</g>
<!-- Node24 -->
<g id="node23" class="node">
<title>Node24</title>
<g id="a_node23"><a xlink:href="property_8h.html" target="_top" xlink:title=" ">
<polygon fill="white" stroke="black" points="1019.17,-224.5 1019.17,-243.5 1123.17,-243.5 1123.17,-224.5 1019.17,-224.5"/>
<text text-anchor="middle" x="1071.17" y="-231.5" font-family="FreeSans" font-size="10.00">magick/property.h</text>
</a>
</g>
</g>
<!-- Node1&#45;&gt;Node24 -->
<g id="edge23" class="edge">
<title>Node1&#45;&gt;Node24</title>
<path fill="none" stroke="midnightblue" d="M1889.95,-288.28C1794.22,-285.3 1433.05,-272.7 1137.17,-244 1135.91,-243.88 1134.63,-243.75 1133.34,-243.62"/>
<polygon fill="midnightblue" stroke="midnightblue" points="1133.69,-240.13 1123.36,-242.5 1132.91,-247.09 1133.69,-240.13"/>
</g>
<!-- Node25 -->
<g id="node24" class="node">
<title>Node25</title>
<g id="a_node24"><a xlink:href="blob_8h.html" target="_top" xlink:title=" ">
<polygon fill="white" stroke="red" points="1206.17,-168.5 1206.17,-187.5 1292.17,-187.5 1292.17,-168.5 1206.17,-168.5"/>
<text text-anchor="middle" x="1249.17" y="-175.5" font-family="FreeSans" font-size="10.00">magick/blob.h</text>
</a>
</g>
</g>
<!-- Node1&#45;&gt;Node25 -->
<g id="edge24" class="edge">
<title>Node1&#45;&gt;Node25</title>
<path fill="none" stroke="midnightblue" d="M1890.02,-289.13C1792.76,-289.37 1429.9,-287.28 1325.17,-244 1299.72,-233.48 1276.63,-211.04 1262.74,-195.49"/>
<polygon fill="midnightblue" stroke="midnightblue" points="1265.2,-192.98 1256.02,-187.68 1259.89,-197.55 1265.2,-192.98"/>
</g>
<!-- Node49 -->
<g id="node25" class="node">
<title>Node49</title>
<g id="a_node25"><a xlink:href="stream_8h.html" target="_top" xlink:title=" ">
<polygon fill="white" stroke="black" points="1556.67,-112.5 1556.67,-131.5 1655.67,-131.5 1655.67,-112.5 1556.67,-112.5"/>
<text text-anchor="middle" x="1606.17" y="-119.5" font-family="FreeSans" font-size="10.00">magick/stream.h</text>
</a>
</g>
</g>
<!-- Node1&#45;&gt;Node49 -->
<g id="edge73" class="edge">
<title>Node1&#45;&gt;Node49</title>
<path fill="none" stroke="midnightblue" d="M1890.13,-288.9C1801.11,-288.22 1490.71,-283.03 1401.17,-244 1367.13,-229.16 1354.24,-221.93 1339.17,-188 1335.56,-179.88 1333.43,-174.79 1339.17,-168 1340.85,-166.01 1468.26,-145.19 1546.44,-132.58"/>
<polygon fill="midnightblue" stroke="midnightblue" points="1547.35,-135.98 1556.66,-130.94 1546.23,-129.07 1547.35,-135.98"/>
</g>
<!-- Node51 -->
<g id="node26" class="node">
<title>Node51</title>
<g id="a_node26"><a xlink:href="blob-private_8h.html" target="_top" xlink:title=" ">
<polygon fill="white" stroke="red" points="1348.17,-168.5 1348.17,-187.5 1472.17,-187.5 1472.17,-168.5 1348.17,-168.5"/>
<text text-anchor="middle" x="1410.17" y="-175.5" font-family="FreeSans" font-size="10.00">magick/blob&#45;private.h</text>
</a>
</g>
</g>
<!-- Node1&#45;&gt;Node51 -->
<g id="edge26" class="edge">
<title>Node1&#45;&gt;Node51</title>
<path fill="none" stroke="midnightblue" d="M1889.98,-288.61C1794.71,-286.85 1448.85,-278.13 1415.17,-244 1403.38,-232.06 1403.57,-212.16 1405.81,-197.51"/>
<polygon fill="midnightblue" stroke="midnightblue" points="1409.28,-198.05 1407.77,-187.56 1402.41,-196.7 1409.28,-198.05"/>
</g>
<!-- Node56 -->
<g id="node27" class="node">
<title>Node56</title>
<g id="a_node27"><a xlink:href="color-private_8h.html" target="_top" xlink:title=" ">
<polygon fill="white" stroke="red" points="1682.67,-224.5 1682.67,-243.5 1809.67,-243.5 1809.67,-224.5 1682.67,-224.5"/>
<text text-anchor="middle" x="1746.17" y="-231.5" font-family="FreeSans" font-size="10.00">magick/color&#45;private.h</text>
</a>
</g>
</g>
<!-- Node1&#45;&gt;Node56 -->
<g id="edge28" class="edge">
<title>Node1&#45;&gt;Node56</title>
<path fill="none" stroke="midnightblue" d="M1890.1,-281.26C1861.89,-272.2 1814.89,-257.09 1782.3,-246.61"/>
<polygon fill="midnightblue" stroke="midnightblue" points="1783.28,-243.25 1772.69,-243.52 1781.14,-249.92 1783.28,-243.25"/>
</g>
<!-- Node58 -->
<g id="node28" class="node">
<title>Node58</title>
<g id="a_node28"><a xlink:href="colorspace-private_8h.html" target="_top" xlink:title=" ">
<polygon fill="white" stroke="red" points="1904.67,-168.5 1904.67,-187.5 2059.67,-187.5 2059.67,-168.5 1904.67,-168.5"/>
<text text-anchor="middle" x="1982.17" y="-175.5" font-family="FreeSans" font-size="10.00">magick/colorspace&#45;private.h</text>
</a>
</g>
</g>
<!-- Node1&#45;&gt;Node58 -->
<g id="edge49" class="edge">
<title>Node1&#45;&gt;Node58</title>
<path fill="none" stroke="midnightblue" d="M1916.09,-280.48C1919.27,-267.55 1926.47,-242.5 1938.17,-224 1945.14,-212.97 1955.19,-202.44 1963.92,-194.34"/>
<polygon fill="midnightblue" stroke="midnightblue" points="1966.3,-196.9 1971.44,-187.64 1961.65,-191.68 1966.3,-196.9"/>
</g>
<!-- Node28 -->
<g id="node29" class="node">
<title>Node28</title>
<g id="a_node29"><a xlink:href="pixel_8h.html" target="_top" xlink:title=" ">
<polygon fill="white" stroke="red" points="2042.17,-112.5 2042.17,-131.5 2130.17,-131.5 2130.17,-112.5 2042.17,-112.5"/>
<text text-anchor="middle" x="2086.17" y="-119.5" font-family="FreeSans" font-size="10.00">magick/pixel.h</text>
</a>
</g>
</g>
<!-- Node1&#45;&gt;Node28 -->
<g id="edge64" class="edge">
<title>Node1&#45;&gt;Node28</title>
<path fill="none" stroke="midnightblue" d="M1919.75,-280.18C1928.91,-266.37 1948.4,-239.63 1971.17,-224 2009.43,-197.74 2037.97,-222.35 2069.17,-188 2080.55,-175.46 2084.49,-156.24 2085.77,-141.95"/>
<polygon fill="midnightblue" stroke="midnightblue" points="2089.27,-141.93 2086.31,-131.76 2082.28,-141.56 2089.27,-141.93"/>
</g>
<!-- Node30 -->
<g id="node30" class="node">
<title>Node30</title>
<g id="a_node30"><a xlink:href="constitute_8h.html" target="_top" xlink:title=" ">
<polygon fill="white" stroke="black" points="2104.67,-56.5 2104.67,-75.5 2217.67,-75.5 2217.67,-56.5 2104.67,-56.5"/>
<text text-anchor="middle" x="2161.17" y="-63.5" font-family="FreeSans" font-size="10.00">magick/constitute.h</text>
</a>
</g>
</g>
<!-- Node1&#45;&gt;Node30 -->
<g id="edge50" class="edge">
<title>Node1&#45;&gt;Node30</title>
<path fill="none" stroke="midnightblue" d="M1938.28,-289.27C2007.2,-289.51 2202.95,-286.39 2247.17,-244 2290,-202.94 2299.92,-161.48 2267.17,-112 2256.51,-95.89 2238.8,-85.53 2220.88,-78.88"/>
<polygon fill="midnightblue" stroke="midnightblue" points="2221.54,-75.41 2210.94,-75.55 2219.31,-82.05 2221.54,-75.41"/>
</g>
<!-- Node65 -->
<g id="node31" class="node">
<title>Node65</title>
<g id="a_node31"><a xlink:href="exception-private_8h.html" target="_top" xlink:title=" ">
<polygon fill="white" stroke="red" points="1658.67,-168.5 1658.67,-187.5 1809.67,-187.5 1809.67,-168.5 1658.67,-168.5"/>
<text text-anchor="middle" x="1734.17" y="-175.5" font-family="FreeSans" font-size="10.00">magick/exception&#45;private.h</text>
</a>
</g>
</g>
<!-- Node1&#45;&gt;Node65 -->
<g id="edge46" class="edge">
<title>Node1&#45;&gt;Node65</title>
<path fill="none" stroke="midnightblue" d="M1889.88,-288.22C1834.47,-285.87 1701.44,-276.87 1674.17,-244 1658.82,-225.51 1684.64,-205.35 1707.04,-192.46"/>
<polygon fill="midnightblue" stroke="midnightblue" points="1708.89,-195.43 1715.99,-187.57 1705.54,-189.29 1708.89,-195.43"/>
</g>
<!-- Node67 -->
<g id="node32" class="node">
<title>Node67</title>
<g id="a_node32"><a xlink:href="magick_8h.html" target="_top" xlink:title=" ">
<polygon fill="white" stroke="black" points="1882.67,-56.5 1882.67,-75.5 1983.67,-75.5 1983.67,-56.5 1882.67,-56.5"/>
<text text-anchor="middle" x="1933.17" y="-63.5" font-family="FreeSans" font-size="10.00">magick/magick.h</text>
</a>
</g>
</g>
<!-- Node1&#45;&gt;Node67 -->
<g id="edge56" class="edge">
<title>Node1&#45;&gt;Node67</title>
<path fill="none" stroke="midnightblue" d="M1911,-280.46C1904.06,-260.65 1888.71,-210.03 1896.17,-168 1901.53,-137.76 1915.27,-104.7 1924.41,-84.91"/>
<polygon fill="midnightblue" stroke="midnightblue" points="1927.7,-86.16 1928.82,-75.63 1921.37,-83.16 1927.7,-86.16"/>
</g>
<!-- Node32 -->
<g id="node33" class="node">
<title>Node32</title>
<g id="a_node33"><a xlink:href="semaphore_8h.html" target="_top" xlink:title=" ">
<polygon fill="white" stroke="black" points="2379.67,-0.5 2379.67,-19.5 2498.67,-19.5 2498.67,-0.5 2379.67,-0.5"/>
<text text-anchor="middle" x="2439.17" y="-7.5" font-family="FreeSans" font-size="10.00">magick/semaphore.h</text>
</a>
</g>
</g>
<!-- Node1&#45;&gt;Node32 -->
<g id="edge70" class="edge">
<title>Node1&#45;&gt;Node32</title>
<path fill="none" stroke="midnightblue" d="M1938.22,-288.64C2048.74,-286.8 2504.67,-277.22 2558.17,-244 2586.59,-226.34 2596.17,-212.46 2596.17,-179 2596.17,-179 2596.17,-179 2596.17,-121 2596.17,-66.74 2532.49,-36.98 2486.24,-22.52"/>
<polygon fill="midnightblue" stroke="midnightblue" points="2486.96,-19.08 2476.37,-19.58 2484.96,-25.79 2486.96,-19.08"/>
</g>
<!-- Node44 -->
<g id="node34" class="node">
<title>Node44</title>
<g id="a_node34"><a xlink:href="string___8h.html" target="_top" xlink:title=" ">
<polygon fill="white" stroke="black" points="1674.17,-112.5 1674.17,-131.5 1772.17,-131.5 1772.17,-112.5 1674.17,-112.5"/>
<text text-anchor="middle" x="1723.17" y="-119.5" font-family="FreeSans" font-size="10.00">magick/string_.h</text>
</a>
</g>
</g>
<!-- Node1&#45;&gt;Node44 -->
<g id="edge74" class="edge">
<title>Node1&#45;&gt;Node44</title>
<path fill="none" stroke="midnightblue" d="M1889.96,-287.85C1833.97,-284.69 1697.81,-274.05 1665.17,-244 1639.83,-220.68 1633.38,-198.06 1650.17,-168 1658.32,-153.39 1673.39,-142.94 1687.72,-135.8"/>
<polygon fill="midnightblue" stroke="midnightblue" points="1689.31,-138.92 1696.96,-131.59 1686.41,-132.56 1689.31,-138.92"/>
</g>
<!-- Node31 -->
<g id="node35" class="node">
<title>Node31</title>
<g id="a_node35"><a xlink:href="exception_8h.html" target="_top" xlink:title=" ">
<polygon fill="white" stroke="black" points="1751.67,-56.5 1751.67,-75.5 1864.67,-75.5 1864.67,-56.5 1751.67,-56.5"/>
<text text-anchor="middle" x="1808.17" y="-63.5" font-family="FreeSans" font-size="10.00">magick/exception.h</text>
</a>
</g>
</g>
<!-- Node1&#45;&gt;Node31 -->
<g id="edge45" class="edge">
<title>Node1&#45;&gt;Node31</title>
<path fill="none" stroke="midnightblue" d="M1909.92,-280.39C1905.47,-271.34 1898.28,-256.69 1892.17,-244 1864.32,-186.18 1831.89,-117.45 1816.76,-85.29"/>
<polygon fill="midnightblue" stroke="midnightblue" points="1819.75,-83.42 1812.33,-75.86 1813.41,-86.4 1819.75,-83.42"/>
</g>
<!-- Node63 -->
<g id="node36" class="node">
<title>Node63</title>
<g id="a_node36"><a xlink:href="draw_8h.html" target="_top" xlink:title=" ">
<polygon fill="white" stroke="red" points="2116.17,-168.5 2116.17,-187.5 2204.17,-187.5 2204.17,-168.5 2116.17,-168.5"/>
<text text-anchor="middle" x="2160.17" y="-175.5" font-family="FreeSans" font-size="10.00">magick/draw.h</text>
</a>
</g>
</g>
<!-- Node1&#45;&gt;Node63 -->
<g id="edge42" class="edge">
<title>Node1&#45;&gt;Node63</title>
<path fill="none" stroke="midnightblue" d="M1938.21,-286.94C1974,-283.03 2042.5,-272.23 2093.17,-244 2115.18,-231.74 2135.17,-210.39 2147.47,-195.52"/>
<polygon fill="midnightblue" stroke="midnightblue" points="2150.27,-197.63 2153.79,-187.63 2144.81,-193.25 2150.27,-197.63"/>
</g>
<!-- Node38 -->
<g id="node37" class="node">
<title>Node38</title>
<g id="a_node37"><a xlink:href="geometry_8h.html" target="_top" xlink:title=" ">
<polygon fill="white" stroke="black" points="2148.17,-112.5 2148.17,-131.5 2258.17,-131.5 2258.17,-112.5 2148.17,-112.5"/>
<text text-anchor="middle" x="2203.17" y="-119.5" font-family="FreeSans" font-size="10.00">magick/geometry.h</text>
</a>
</g>
</g>
<!-- Node1&#45;&gt;Node38 -->
<g id="edge54" class="edge">
<title>Node1&#45;&gt;Node38</title>
<path fill="none" stroke="midnightblue" d="M1938.3,-289.42C2005.33,-290.01 2191.34,-287.61 2229.17,-244 2254.76,-214.49 2230.9,-165.88 2214.91,-140.18"/>
<polygon fill="midnightblue" stroke="midnightblue" points="2217.67,-138.01 2209.29,-131.53 2211.81,-141.82 2217.67,-138.01"/>
</g>
<!-- Node68 -->
<g id="node38" class="node">
<title>Node68</title>
<g id="a_node38"><a xlink:href="cache_8h.html" target="_top" xlink:title=" ">
<polygon fill="white" stroke="black" points="1179.67,-224.5 1179.67,-243.5 1272.67,-243.5 1272.67,-224.5 1179.67,-224.5"/>
<text text-anchor="middle" x="1226.17" y="-231.5" font-family="FreeSans" font-size="10.00">magick/cache.h</text>
</a>
</g>
</g>
<!-- Node1&#45;&gt;Node68 -->
<g id="edge47" class="edge">
<title>Node1&#45;&gt;Node68</title>
<path fill="none" stroke="midnightblue" d="M1889.9,-287.91C1806.11,-284.02 1521.23,-269.63 1287.17,-244 1285.7,-243.84 1284.22,-243.67 1282.73,-243.49"/>
<polygon fill="midnightblue" stroke="midnightblue" points="1283.11,-240.01 1272.75,-242.24 1282.23,-246.96 1283.11,-240.01"/>
</g>
<!-- Node53 -->
<g id="node39" class="node">
<title>Node53</title>
<g id="a_node39"><a xlink:href="delegate_8h.html" target="_top" xlink:title=" ">
<polygon fill="white" stroke="black" points="2385.67,-56.5 2385.67,-75.5 2492.67,-75.5 2492.67,-56.5 2385.67,-56.5"/>
<text text-anchor="middle" x="2439.17" y="-63.5" font-family="FreeSans" font-size="10.00">magick/delegate.h</text>
</a>
</g>
</g>
<!-- Node1&#45;&gt;Node53 -->
<g id="edge51" class="edge">
<title>Node1&#45;&gt;Node53</title>
<path fill="none" stroke="midnightblue" d="M1938.34,-289.15C2048.28,-289.61 2497.57,-288.7 2539.17,-244 2586.98,-192.62 2500.17,-114.26 2459.04,-81.84"/>
<polygon fill="midnightblue" stroke="midnightblue" points="2461.07,-78.99 2451.02,-75.65 2456.79,-84.53 2461.07,-78.99"/>
</g>
<!-- Node69 -->
<g id="node40" class="node">
<title>Node69</title>
<g id="a_node40"><a xlink:href="list_8h.html" target="_top" xlink:title=" ">
<polygon fill="white" stroke="black" points="2140.17,-224.5 2140.17,-243.5 2220.17,-243.5 2220.17,-224.5 2140.17,-224.5"/>
<text text-anchor="middle" x="2180.17" y="-231.5" font-family="FreeSans" font-size="10.00">magick/list.h</text>
</a>
</g>
</g>
<!-- Node1&#45;&gt;Node69 -->
<g id="edge55" class="edge">
<title>Node1&#45;&gt;Node69</title>
<path fill="none" stroke="midnightblue" d="M1938.24,-284.11C1981.43,-275.34 2072.9,-256.78 2130.17,-245.15"/>
<polygon fill="midnightblue" stroke="midnightblue" points="2131,-248.55 2140.1,-243.13 2129.6,-241.69 2131,-248.55"/>
</g>
<!-- Node70 -->
<g id="node41" class="node">
<title>Node70</title>
<g id="a_node41"><a xlink:href="memory___8h.html" target="_top" xlink:title=" ">
<polygon fill="white" stroke="black" points="1490.67,-168.5 1490.67,-187.5 1601.67,-187.5 1601.67,-168.5 1490.67,-168.5"/>
<text text-anchor="middle" x="1546.17" y="-175.5" font-family="FreeSans" font-size="10.00">magick/memory_.h</text>
</a>
</g>
</g>
<!-- Node1&#45;&gt;Node70 -->
<g id="edge57" class="edge">
<title>Node1&#45;&gt;Node70</title>
<path fill="none" stroke="midnightblue" d="M1889.71,-287.68C1825.17,-283.85 1651.84,-271.23 1602.17,-244 1582.24,-233.08 1566.17,-212.08 1556.44,-196.91"/>
<polygon fill="midnightblue" stroke="midnightblue" points="1559.18,-194.66 1550.99,-187.93 1553.19,-198.3 1559.18,-194.66"/>
</g>
<!-- Node71 -->
<g id="node42" class="node">
<title>Node71</title>
<g id="a_node42"><a xlink:href="memory-private_8h.html" target="_top" xlink:title=" ">
<polygon fill="white" stroke="black" points="164.17,-168.5 164.17,-187.5 308.17,-187.5 308.17,-168.5 164.17,-168.5"/>
<text text-anchor="middle" x="236.17" y="-175.5" font-family="FreeSans" font-size="10.00">magick/memory&#45;private.h</text>
</a>
</g>
</g>
<!-- Node1&#45;&gt;Node71 -->
<g id="edge60" class="edge">
<title>Node1&#45;&gt;Node71</title>
<path fill="none" stroke="midnightblue" d="M1890.05,-288.1C1785.31,-284.14 1359.41,-267.35 1010.17,-244 757.98,-227.14 460.16,-200.12 318.72,-186.86"/>
<polygon fill="midnightblue" stroke="midnightblue" points="318.68,-183.34 308.4,-185.89 318.03,-190.31 318.68,-183.34"/>
</g>
<!-- Node42 -->
<g id="node43" class="node">
<title>Node42</title>
<g id="a_node43"><a xlink:href="monitor_8h.html" target="_top" xlink:title=" ">
<polygon fill="white" stroke="black" points="2314.17,-224.5 2314.17,-243.5 2416.17,-243.5 2416.17,-224.5 2314.17,-224.5"/>
<text text-anchor="middle" x="2365.17" y="-231.5" font-family="FreeSans" font-size="10.00">magick/monitor.h</text>
</a>
</g>
</g>
<!-- Node1&#45;&gt;Node42 -->
<g id="edge62" class="edge">
<title>Node1&#45;&gt;Node42</title>
<path fill="none" stroke="midnightblue" d="M1938.58,-286.34C1999.59,-279.65 2163.64,-261.41 2300.17,-244 2301.44,-243.84 2302.72,-243.67 2304.02,-243.5"/>
<polygon fill="midnightblue" stroke="midnightblue" points="2304.63,-246.95 2314.09,-242.18 2303.72,-240.01 2304.63,-246.95"/>
</g>
<!-- Node72 -->
<g id="node44" class="node">
<title>Node72</title>
<g id="a_node44"><a xlink:href="option_8h.html" target="_top" xlink:title=" ">
<polygon fill="white" stroke="black" points="2434.67,-224.5 2434.67,-243.5 2529.67,-243.5 2529.67,-224.5 2434.67,-224.5"/>
<text text-anchor="middle" x="2482.17" y="-231.5" font-family="FreeSans" font-size="10.00">magick/option.h</text>
</a>
</g>
</g>
<!-- Node1&#45;&gt;Node72 -->
<g id="edge63" class="edge">
<title>Node1&#45;&gt;Node72</title>
<path fill="none" stroke="midnightblue" d="M1938.17,-287.48C2010.13,-282.78 2230.51,-267.5 2424.52,-243.99"/>
<polygon fill="midnightblue" stroke="midnightblue" points="2425.11,-247.45 2434.62,-242.76 2424.27,-240.5 2425.11,-247.45"/>
</g>
<!-- Node73 -->
<g id="node45" class="node">
<title>Node73</title>
<g id="a_node45"><a xlink:href="pixel-private_8h.html" target="_top" xlink:title=" ">
<polygon fill="white" stroke="red" points="1424.17,-224.5 1424.17,-243.5 1550.17,-243.5 1550.17,-224.5 1424.17,-224.5"/>
<text text-anchor="middle" x="1487.17" y="-231.5" font-family="FreeSans" font-size="10.00">magick/pixel&#45;private.h</text>
</a>
</g>
</g>
<!-- Node1&#45;&gt;Node73 -->
<g id="edge65" class="edge">
<title>Node1&#45;&gt;Node73</title>
<path fill="none" stroke="midnightblue" d="M1889.99,-285.94C1827.45,-278.03 1658.44,-256.66 1560.35,-244.26"/>
<polygon fill="midnightblue" stroke="midnightblue" points="1560.57,-240.76 1550.21,-242.97 1559.69,-247.7 1560.57,-240.76"/>
</g>
<!-- Node45 -->
<g id="node46" class="node">
<title>Node45</title>
<g id="a_node46"><a xlink:href="quantum_8h.html" target="_top" xlink:title=" ">
<polygon fill="white" stroke="red" points="2667.17,-56.5 2667.17,-75.5 2775.17,-75.5 2775.17,-56.5 2667.17,-56.5"/>
<text text-anchor="middle" x="2721.17" y="-63.5" font-family="FreeSans" font-size="10.00">magick/quantum.h</text>
</a>
</g>
</g>
<!-- Node1&#45;&gt;Node45 -->
<g id="edge67" class="edge">
<title>Node1&#45;&gt;Node45</title>
<path fill="none" stroke="midnightblue" d="M1938.56,-288.61C2072.81,-286.37 2716.69,-274.06 2745.17,-244 2786.88,-199.96 2750.84,-119.88 2731.51,-84.55"/>
<polygon fill="midnightblue" stroke="midnightblue" points="2734.55,-82.82 2726.58,-75.84 2728.46,-86.27 2734.55,-82.82"/>
</g>
<!-- Node75 -->
<g id="node47" class="node">
<title>Node75</title>
<g id="a_node47"><a xlink:href="resource___8h.html" target="_top" xlink:title=" ">
<polygon fill="white" stroke="black" points="2624.17,-224.5 2624.17,-243.5 2736.17,-243.5 2736.17,-224.5 2624.17,-224.5"/>
<text text-anchor="middle" x="2680.17" y="-231.5" font-family="FreeSans" font-size="10.00">magick/resource_.h</text>
</a>
</g>
</g>
<!-- Node1&#45;&gt;Node75 -->
<g id="edge69" class="edge">
<title>Node1&#45;&gt;Node75</title>
<path fill="none" stroke="midnightblue" d="M1938.25,-288C2027.45,-284.16 2347.42,-269.36 2610.17,-244 2611.44,-243.88 2612.72,-243.75 2614.01,-243.62"/>
<polygon fill="midnightblue" stroke="midnightblue" points="2614.47,-247.09 2624.04,-242.53 2613.72,-240.13 2614.47,-247.09"/>
</g>
<!-- Node76 -->
<g id="node48" class="node">
<title>Node76</title>
<g id="a_node48"><a xlink:href="statistic_8h.html" target="_top" xlink:title=" ">
<polygon fill="white" stroke="black" points="1980.17,-224.5 1980.17,-243.5 2084.17,-243.5 2084.17,-224.5 1980.17,-224.5"/>
<text text-anchor="middle" x="2032.17" y="-231.5" font-family="FreeSans" font-size="10.00">magick/statistic.h</text>
</a>
</g>
</g>
<!-- Node1&#45;&gt;Node76 -->
<g id="edge71" class="edge">
<title>Node1&#45;&gt;Node76</title>
<path fill="none" stroke="midnightblue" d="M1932.87,-280.44C1952.11,-271.64 1982.32,-257.81 2004.37,-247.72"/>
<polygon fill="midnightblue" stroke="midnightblue" points="2005.92,-250.86 2013.56,-243.52 2003.01,-244.5 2005.92,-250.86"/>
</g>
<!-- Node77 -->
<g id="node49" class="node">
<title>Node77</title>
<g id="a_node49"><a xlink:href="transform_8h.html" target="_top" xlink:title=" ">
<polygon fill="white" stroke="black" points="2792.67,-224.5 2792.67,-243.5 2905.67,-243.5 2905.67,-224.5 2792.67,-224.5"/>
<text text-anchor="middle" x="2849.17" y="-231.5" font-family="FreeSans" font-size="10.00">magick/transform.h</text>
</a>
</g>
</g>
<!-- Node1&#45;&gt;Node77 -->
<g id="edge75" class="edge">
<title>Node1&#45;&gt;Node77</title>
<path fill="none" stroke="midnightblue" d="M1938.26,-288.4C2040.21,-285.72 2446.04,-273.66 2778.17,-244 2779.64,-243.87 2781.12,-243.73 2782.62,-243.59"/>
<polygon fill="midnightblue" stroke="midnightblue" points="2783.04,-247.06 2792.63,-242.55 2782.32,-240.1 2783.04,-247.06"/>
</g>
<!-- Node78 -->
<g id="node50" class="node">
<title>Node78</title>
<g id="a_node50"><a xlink:href="utility_8h.html" target="_top" xlink:title=" ">
<polygon fill="white" stroke="black" points="2924.17,-224.5 2924.17,-243.5 3016.17,-243.5 3016.17,-224.5 2924.17,-224.5"/>
<text text-anchor="middle" x="2970.17" y="-231.5" font-family="FreeSans" font-size="10.00">magick/utility.h</text>
</a>
</g>
</g>
<!-- Node1&#45;&gt;Node78 -->
<g id="edge76" class="edge">
<title>Node1&#45;&gt;Node78</title>
<path fill="none" stroke="midnightblue" d="M1938.26,-288.96C2048.8,-288.55 2518.59,-284.44 2913.81,-244.01"/>
<polygon fill="midnightblue" stroke="midnightblue" points="2914.42,-247.47 2924.01,-242.96 2913.7,-240.5 2914.42,-247.47"/>
</g>
<!-- Node3 -->
<g id="node3" class="node">
<title>Node3</title>
<g id="a_node3"><a xlink:href="magick-config_8h.html" target="_top" xlink:title=" ">
<polygon fill="white" stroke="red" points="163.17,-56.5 163.17,-75.5 297.17,-75.5 297.17,-56.5 163.17,-56.5"/>
<text text-anchor="middle" x="230.17" y="-63.5" font-family="FreeSans" font-size="10.00">magick/magick&#45;config.h</text>
</a>
</g>
</g>
<!-- Node2&#45;&gt;Node3 -->
<g id="edge2" class="edge">
<title>Node2&#45;&gt;Node3</title>
<path fill="none" stroke="midnightblue" d="M760.57,-176.93C687.14,-175.61 542.56,-168.12 426.17,-132 407.94,-126.34 405.88,-119.1 388.17,-112 352.33,-97.65 310.22,-85.89 278.49,-78"/>
<polygon fill="midnightblue" stroke="midnightblue" points="279.12,-74.55 268.57,-75.57 277.46,-81.35 279.12,-74.55"/>
</g>
<!-- Node5 -->
<g id="node4" class="node">
<title>Node5</title>
<g id="a_node4"><a xlink:title=" ">
<polygon fill="white" stroke="#bfbfbf" points="1780.17,-0.5 1780.17,-19.5 1836.17,-19.5 1836.17,-0.5 1780.17,-0.5"/>
<text text-anchor="middle" x="1808.17" y="-7.5" font-family="FreeSans" font-size="10.00">stdarg.h</text>
</a>
</g>
</g>
<!-- Node2&#45;&gt;Node5 -->
<g id="edge3" class="edge">
<title>Node2&#45;&gt;Node5</title>
<path fill="none" stroke="midnightblue" d="M855.7,-175.64C966.72,-172.01 1240.23,-160.39 1327.17,-132 1343.47,-126.68 1344.8,-119.62 1360.17,-112 1420.95,-81.87 1436.62,-73.49 1502.17,-56 1596.43,-30.84 1711.03,-18.73 1769.61,-13.81"/>
<polygon fill="midnightblue" stroke="midnightblue" points="1770.2,-17.28 1779.88,-12.98 1769.63,-10.3 1770.2,-17.28"/>
</g>
<!-- Node6 -->
<g id="node5" class="node">
<title>Node6</title>
<g id="a_node5"><a xlink:title=" ">
<polygon fill="white" stroke="#bfbfbf" points="435.17,-112.5 435.17,-131.5 485.17,-131.5 485.17,-112.5 435.17,-112.5"/>
<text text-anchor="middle" x="460.17" y="-119.5" font-family="FreeSans" font-size="10.00">stdio.h</text>
</a>
</g>
</g>
<!-- Node2&#45;&gt;Node6 -->
<g id="edge4" class="edge">
<title>Node2&#45;&gt;Node6</title>
<path fill="none" stroke="midnightblue" d="M760.53,-171.92C700.74,-165.16 594.9,-151.92 495.27,-132.02"/>
<polygon fill="midnightblue" stroke="midnightblue" points="495.84,-128.57 485.34,-130.01 494.45,-135.43 495.84,-128.57"/>
</g>
<!-- Node7 -->
<g id="node6" class="node">
<title>Node7</title>
<g id="a_node6"><a xlink:title=" ">
<polygon fill="white" stroke="#bfbfbf" points="503.67,-112.5 503.67,-131.5 556.67,-131.5 556.67,-112.5 503.67,-112.5"/>
<text text-anchor="middle" x="530.17" y="-119.5" font-family="FreeSans" font-size="10.00">ctype.h</text>
</a>
</g>
</g>
<!-- Node2&#45;&gt;Node7 -->
<g id="edge5" class="edge">
<title>Node2&#45;&gt;Node7</title>
<path fill="none" stroke="midnightblue" d="M760.48,-169.16C713.45,-161.21 639.33,-148.09 566.65,-132.22"/>
<polygon fill="midnightblue" stroke="midnightblue" points="567.39,-128.8 556.88,-130.07 565.89,-135.64 567.39,-128.8"/>
</g>
<!-- Node8 -->
<g id="node7" class="node">
<title>Node8</title>
<g id="a_node7"><a xlink:title=" ">
<polygon fill="white" stroke="#bfbfbf" points="574.67,-112.5 574.67,-131.5 629.67,-131.5 629.67,-112.5 574.67,-112.5"/>
<text text-anchor="middle" x="602.17" y="-119.5" font-family="FreeSans" font-size="10.00">locale.h</text>
</a>
</g>
</g>
<!-- Node2&#45;&gt;Node8 -->
<g id="edge6" class="edge">
<title>Node2&#45;&gt;Node8</title>
<path fill="none" stroke="midnightblue" d="M775.53,-168.44C738.56,-158.75 678.42,-142.99 639.58,-132.81"/>
<polygon fill="midnightblue" stroke="midnightblue" points="640.27,-129.37 629.71,-130.22 638.5,-136.14 640.27,-129.37"/>
</g>
<!-- Node9 -->
<g id="node8" class="node">
<title>Node9</title>
<g id="a_node8"><a xlink:title=" ">
<polygon fill="white" stroke="#bfbfbf" points="1412.67,-112.5 1412.67,-131.5 1463.67,-131.5 1463.67,-112.5 1412.67,-112.5"/>
<text text-anchor="middle" x="1438.17" y="-119.5" font-family="FreeSans" font-size="10.00">errno.h</text>
</a>
</g>
</g>
<!-- Node2&#45;&gt;Node9 -->
<g id="edge7" class="edge">
<title>Node2&#45;&gt;Node9</title>
<path fill="none" stroke="midnightblue" d="M855.85,-175.71C956.53,-172.47 1198.03,-161.99 1398.17,-132 1399.62,-131.78 1401.1,-131.54 1402.59,-131.28"/>
<polygon fill="midnightblue" stroke="midnightblue" points="1403.3,-134.71 1412.45,-129.36 1401.97,-127.84 1403.3,-134.71"/>
</g>
<!-- Node10 -->
<g id="node9" class="node">
<title>Node10</title>
<g id="a_node9"><a xlink:title=" ">
<polygon fill="white" stroke="#bfbfbf" points="647.67,-112.5 647.67,-131.5 694.67,-131.5 694.67,-112.5 647.67,-112.5"/>
<text text-anchor="middle" x="671.17" y="-119.5" font-family="FreeSans" font-size="10.00">fcntl.h</text>
</a>
</g>
</g>
<!-- Node2&#45;&gt;Node10 -->
<g id="edge8" class="edge">
<title>Node2&#45;&gt;Node10</title>
<path fill="none" stroke="midnightblue" d="M786.46,-168.44C763.81,-159.52 728.1,-145.44 702.42,-135.32"/>
<polygon fill="midnightblue" stroke="midnightblue" points="703.36,-131.93 692.77,-131.52 700.79,-138.44 703.36,-131.93"/>
</g>
<!-- Node11 -->
<g id="node10" class="node">
<title>Node11</title>
<g id="a_node10"><a xlink:title=" ">
<polygon fill="white" stroke="#bfbfbf" points="712.67,-112.5 712.67,-131.5 763.67,-131.5 763.67,-112.5 712.67,-112.5"/>
<text text-anchor="middle" x="738.17" y="-119.5" font-family="FreeSans" font-size="10.00">math.h</text>
</a>
</g>
</g>
<!-- Node2&#45;&gt;Node11 -->
<g id="edge9" class="edge">
<title>Node2&#45;&gt;Node11</title>
<path fill="none" stroke="midnightblue" d="M796.92,-168.32C786.37,-160.18 770.37,-147.84 757.73,-138.09"/>
<polygon fill="midnightblue" stroke="midnightblue" points="759.67,-135.17 749.62,-131.83 755.4,-140.71 759.67,-135.17"/>
</g>
<!-- Node12 -->
<g id="node11" class="node">
<title>Node12</title>
<g id="a_node11"><a xlink:title=" ">
<polygon fill="white" stroke="#bfbfbf" points="1511.17,-56.5 1511.17,-75.5 1559.17,-75.5 1559.17,-56.5 1511.17,-56.5"/>
<text text-anchor="middle" x="1535.17" y="-63.5" font-family="FreeSans" font-size="10.00">time.h</text>
</a>
</g>
</g>
<!-- Node2&#45;&gt;Node12 -->
<g id="edge10" class="edge">
<title>Node2&#45;&gt;Node12</title>
<path fill="none" stroke="midnightblue" d="M855.92,-175.22C971.8,-170.55 1265.36,-156.61 1360.17,-132 1380.96,-126.6 1384.21,-119.94 1404.17,-112 1436.66,-99.07 1474.51,-86.31 1501.14,-77.7"/>
<polygon fill="midnightblue" stroke="midnightblue" points="1502.32,-81 1510.77,-74.61 1500.18,-74.33 1502.32,-81"/>
</g>
<!-- Node13 -->
<g id="node12" class="node">
<title>Node13</title>
<g id="a_node12"><a xlink:title=" ">
<polygon fill="white" stroke="#bfbfbf" points="781.67,-112.5 781.67,-131.5 834.67,-131.5 834.67,-112.5 781.67,-112.5"/>
<text text-anchor="middle" x="808.17" y="-119.5" font-family="FreeSans" font-size="10.00">limits.h</text>
</a>
</g>
</g>
<!-- Node2&#45;&gt;Node13 -->
<g id="edge11" class="edge">
<title>Node2&#45;&gt;Node13</title>
<path fill="none" stroke="midnightblue" d="M808.17,-168.08C808.17,-161.01 808.17,-150.86 808.17,-141.99"/>
<polygon fill="midnightblue" stroke="midnightblue" points="811.67,-141.75 808.17,-131.75 804.67,-141.75 811.67,-141.75"/>
</g>
<!-- Node14 -->
<g id="node13" class="node">
<title>Node14</title>
<g id="a_node13"><a xlink:title=" ">
<polygon fill="white" stroke="#bfbfbf" points="852.67,-112.5 852.67,-131.5 907.67,-131.5 907.67,-112.5 852.67,-112.5"/>
<text text-anchor="middle" x="880.17" y="-119.5" font-family="FreeSans" font-size="10.00">signal.h</text>
</a>
</g>
</g>
<!-- Node2&#45;&gt;Node14 -->
<g id="edge12" class="edge">
<title>Node2&#45;&gt;Node14</title>
<path fill="none" stroke="midnightblue" d="M819.74,-168.32C830.59,-160.18 847.05,-147.84 860.05,-138.09"/>
<polygon fill="midnightblue" stroke="midnightblue" points="862.49,-140.63 868.39,-131.83 858.29,-135.03 862.49,-140.63"/>
</g>
<!-- Node15 -->
<g id="node14" class="node">
<title>Node15</title>
<g id="a_node14"><a xlink:title=" ">
<polygon fill="white" stroke="#bfbfbf" points="1482.17,-112.5 1482.17,-131.5 1538.17,-131.5 1538.17,-112.5 1482.17,-112.5"/>
<text text-anchor="middle" x="1510.17" y="-119.5" font-family="FreeSans" font-size="10.00">assert.h</text>
</a>
</g>
</g>
<!-- Node2&#45;&gt;Node15 -->
<g id="edge13" class="edge">
<title>Node2&#45;&gt;Node15</title>
<path fill="none" stroke="midnightblue" d="M856.05,-176.56C964.28,-174.97 1236.03,-167.59 1471.85,-131.94"/>
<polygon fill="midnightblue" stroke="midnightblue" points="1472.63,-135.36 1481.99,-130.38 1471.57,-128.44 1472.63,-135.36"/>
</g>
<!-- Node16 -->
<g id="node15" class="node">
<title>Node16</title>
<g id="a_node15"><a xlink:href="method-attribute_8h.html" target="_top" xlink:title=" ">
<polygon fill="white" stroke="black" points="926.17,-112.5 926.17,-131.5 1074.17,-131.5 1074.17,-112.5 926.17,-112.5"/>
<text text-anchor="middle" x="1000.17" y="-119.5" font-family="FreeSans" font-size="10.00">magick/method&#45;attribute.h</text>
</a>
</g>
</g>
<!-- Node2&#45;&gt;Node16 -->
<g id="edge14" class="edge">
<title>Node2&#45;&gt;Node16</title>
<path fill="none" stroke="midnightblue" d="M838.59,-168.44C871.45,-159.2 923.95,-144.44 960.14,-134.26"/>
<polygon fill="midnightblue" stroke="midnightblue" points="961.21,-137.59 969.89,-131.52 959.31,-130.85 961.21,-137.59"/>
</g>
<!-- Node17 -->
<g id="node16" class="node">
<title>Node17</title>
<g id="a_node16"><a xlink:title=" ">
<polygon fill="white" stroke="#bfbfbf" points="1092.17,-112.5 1092.17,-131.5 1164.17,-131.5 1164.17,-112.5 1092.17,-112.5"/>
<text text-anchor="middle" x="1128.17" y="-119.5" font-family="FreeSans" font-size="10.00">sys/types.h</text>
</a>
</g>
</g>
<!-- Node2&#45;&gt;Node17 -->
<g id="edge15" class="edge">
<title>Node2&#45;&gt;Node17</title>
<path fill="none" stroke="midnightblue" d="M855.95,-169.7C908.78,-161.52 996.66,-147.56 1081.75,-132.21"/>
<polygon fill="midnightblue" stroke="midnightblue" points="1082.62,-135.61 1091.84,-130.38 1081.38,-128.72 1082.62,-135.61"/>
</g>
<!-- Node18 -->
<g id="node17" class="node">
<title>Node18</title>
<g id="a_node17"><a xlink:title=" ">
<polygon fill="white" stroke="#bfbfbf" points="1182.17,-112.5 1182.17,-131.5 1246.17,-131.5 1246.17,-112.5 1182.17,-112.5"/>
<text text-anchor="middle" x="1214.17" y="-119.5" font-family="FreeSans" font-size="10.00">sys/stat.h</text>
</a>
</g>
</g>
<!-- Node2&#45;&gt;Node18 -->
<g id="edge16" class="edge">
<title>Node2&#45;&gt;Node18</title>
<path fill="none" stroke="midnightblue" d="M855.91,-172.55C923.92,-165.9 1052.75,-152.13 1171.96,-132.07"/>
<polygon fill="midnightblue" stroke="midnightblue" points="1172.72,-135.49 1181.99,-130.36 1171.55,-128.59 1172.72,-135.49"/>
</g>
<!-- Node19 -->
<g id="node18" class="node">
<title>Node19</title>
<g id="a_node18"><a xlink:title=" ">
<polygon fill="white" stroke="#bfbfbf" points="1264.17,-112.5 1264.17,-131.5 1318.17,-131.5 1318.17,-112.5 1264.17,-112.5"/>
<text text-anchor="middle" x="1291.17" y="-119.5" font-family="FreeSans" font-size="10.00">dirent.h</text>
</a>
</g>
</g>
<!-- Node2&#45;&gt;Node19 -->
<g id="edge17" class="edge">
<title>Node2&#45;&gt;Node19</title>
<path fill="none" stroke="midnightblue" d="M855.78,-174.47C936.06,-169.72 1103.51,-157.69 1254.23,-131.92"/>
<polygon fill="midnightblue" stroke="midnightblue" points="1254.88,-135.36 1264.13,-130.2 1253.68,-128.47 1254.88,-135.36"/>
</g>
<!-- Node20 -->
<g id="node19" class="node">
<title>Node20</title>
<g id="a_node19"><a xlink:title=" ">
<polygon fill="white" stroke="#bfbfbf" points="19.17,-112.5 19.17,-131.5 85.17,-131.5 85.17,-112.5 19.17,-112.5"/>
<text text-anchor="middle" x="52.17" y="-119.5" font-family="FreeSans" font-size="10.00">sys/wait.h</text>
</a>
</g>
</g>
<!-- Node2&#45;&gt;Node20 -->
<g id="edge18" class="edge">
<title>Node2&#45;&gt;Node20</title>
<path fill="none" stroke="midnightblue" d="M760.3,-176.43C646.58,-174.54 351.25,-166.57 95.78,-132.02"/>
<polygon fill="midnightblue" stroke="midnightblue" points="95.94,-128.51 85.56,-130.62 94.99,-135.45 95.94,-128.51"/>
</g>
<!-- Node21 -->
<g id="node20" class="node">
<title>Node21</title>
<g id="a_node20"><a xlink:title=" ">
<polygon fill="white" stroke="#bfbfbf" points="103.17,-112.5 103.17,-131.5 149.17,-131.5 149.17,-112.5 103.17,-112.5"/>
<text text-anchor="middle" x="126.17" y="-119.5" font-family="FreeSans" font-size="10.00">pwd.h</text>
</a>
</g>
</g>
<!-- Node2&#45;&gt;Node21 -->
<g id="edge19" class="edge">
<title>Node2&#45;&gt;Node21</title>
<path fill="none" stroke="midnightblue" d="M760.46,-177.03C653.95,-176.38 388.73,-170.8 159.32,-131.85"/>
<polygon fill="midnightblue" stroke="midnightblue" points="159.91,-128.4 149.46,-130.15 158.72,-135.29 159.91,-128.4"/>
</g>
<!-- Node22 -->
<g id="node21" class="node">
<title>Node22</title>
<g id="a_node21"><a xlink:href="magick-type_8h.html" target="_top" xlink:title=" ">
<polygon fill="white" stroke="black" points="167.17,-112.5 167.17,-131.5 293.17,-131.5 293.17,-112.5 167.17,-112.5"/>
<text text-anchor="middle" x="230.17" y="-119.5" font-family="FreeSans" font-size="10.00">magick/magick&#45;type.h</text>
</a>
</g>
</g>
<!-- Node2&#45;&gt;Node22 -->
<g id="edge20" class="edge">
<title>Node2&#45;&gt;Node22</title>
<path fill="none" stroke="midnightblue" d="M760.32,-173.32C672.17,-166.41 477.9,-150.6 303.5,-132.11"/>
<polygon fill="midnightblue" stroke="midnightblue" points="303.68,-128.61 293.37,-131.03 302.94,-135.57 303.68,-128.61"/>
</g>
<!-- Node23 -->
<g id="node22" class="node">
<title>Node23</title>
<g id="a_node22"><a xlink:title=" ">
<polygon fill="white" stroke="#bfbfbf" points="311.17,-112.5 311.17,-131.5 379.17,-131.5 379.17,-112.5 311.17,-112.5"/>
<text text-anchor="middle" x="345.17" y="-119.5" font-family="FreeSans" font-size="10.00">sys/time.h</text>
</a>
</g>
</g>
<!-- Node2&#45;&gt;Node23 -->
<g id="edge22" class="edge">
<title>Node2&#45;&gt;Node23</title>
<path fill="none" stroke="midnightblue" d="M760.4,-173.03C683.04,-166.33 525.62,-151.57 393.17,-132 391.89,-131.81 390.6,-131.61 389.3,-131.41"/>
<polygon fill="midnightblue" stroke="midnightblue" points="389.64,-127.92 379.2,-129.72 388.49,-134.82 389.64,-127.92"/>
</g>
<!-- Node22&#45;&gt;Node3 -->
<g id="edge21" class="edge">
<title>Node22&#45;&gt;Node3</title>
<path fill="none" stroke="midnightblue" d="M230.17,-112.08C230.17,-105.01 230.17,-94.86 230.17,-85.99"/>
<polygon fill="midnightblue" stroke="midnightblue" points="233.67,-85.75 230.17,-75.75 226.67,-85.75 233.67,-85.75"/>
</g>
<!-- Node25&#45;&gt;Node49 -->
<g id="edge25" class="edge">
<title>Node25&#45;&gt;Node49</title>
<path fill="none" stroke="midnightblue" d="M1292.42,-170.13C1297.06,-169.41 1301.71,-168.68 1306.17,-168 1410.08,-152.04 1438.44,-148.38 1546.58,-132.08"/>
<polygon fill="midnightblue" stroke="midnightblue" points="1547.23,-135.53 1556.59,-130.57 1546.18,-128.6 1547.23,-135.53"/>
</g>
<!-- Node51&#45;&gt;Node49 -->
<g id="edge27" class="edge">
<title>Node51&#45;&gt;Node49</title>
<path fill="none" stroke="midnightblue" d="M1441.22,-168.44C1474.77,-159.2 1528.36,-144.44 1565.31,-134.26"/>
<polygon fill="midnightblue" stroke="midnightblue" points="1566.55,-137.55 1575.26,-131.52 1564.69,-130.8 1566.55,-137.55"/>
</g>
<!-- Node56&#45;&gt;Node58 -->
<g id="edge29" class="edge">
<title>Node56&#45;&gt;Node58</title>
<path fill="none" stroke="midnightblue" d="M1783.56,-224.44C1824.56,-215.06 1890.42,-199.99 1934.95,-189.8"/>
<polygon fill="midnightblue" stroke="midnightblue" points="1935.98,-193.16 1944.95,-187.52 1934.42,-186.34 1935.98,-193.16"/>
</g>
<!-- Node56&#45;&gt;Node65 -->
<g id="edge32" class="edge">
<title>Node56&#45;&gt;Node65</title>
<path fill="none" stroke="midnightblue" d="M1744.19,-224.08C1742.6,-216.93 1740.31,-206.64 1738.32,-197.69"/>
<polygon fill="midnightblue" stroke="midnightblue" points="1741.7,-196.75 1736.11,-187.75 1734.87,-198.27 1741.7,-196.75"/>
</g>
<!-- Node58&#45;&gt;Node28 -->
<g id="edge30" class="edge">
<title>Node58&#45;&gt;Node28</title>
<path fill="none" stroke="midnightblue" d="M1998.88,-168.32C2015.48,-159.7 2041.17,-146.36 2060.39,-136.39"/>
<polygon fill="midnightblue" stroke="midnightblue" points="2062.24,-139.37 2069.5,-131.65 2059.01,-133.16 2062.24,-139.37"/>
</g>
<!-- Node28&#45;&gt;Node30 -->
<g id="edge31" class="edge">
<title>Node28&#45;&gt;Node30</title>
<path fill="none" stroke="midnightblue" d="M2098.22,-112.32C2109.63,-104.11 2127,-91.6 2140.6,-81.81"/>
<polygon fill="midnightblue" stroke="midnightblue" points="2142.83,-84.52 2148.9,-75.83 2138.74,-78.84 2142.83,-84.52"/>
</g>
<!-- Node65&#45;&gt;Node67 -->
<g id="edge33" class="edge">
<title>Node65&#45;&gt;Node67</title>
<path fill="none" stroke="midnightblue" d="M1749.78,-168.37C1784.29,-149.29 1867.28,-103.42 1908.74,-80.51"/>
<polygon fill="midnightblue" stroke="midnightblue" points="1910.57,-83.49 1917.62,-75.59 1907.18,-77.37 1910.57,-83.49"/>
</g>
<!-- Node65&#45;&gt;Node44 -->
<g id="edge36" class="edge">
<title>Node65&#45;&gt;Node44</title>
<path fill="none" stroke="midnightblue" d="M1732.35,-168.08C1730.89,-160.93 1728.8,-150.64 1726.98,-141.69"/>
<polygon fill="midnightblue" stroke="midnightblue" points="1730.38,-140.85 1724.95,-131.75 1723.52,-142.25 1730.38,-140.85"/>
</g>
<!-- Node67&#45;&gt;Node5 -->
<g id="edge34" class="edge">
<title>Node67&#45;&gt;Node5</title>
<path fill="none" stroke="midnightblue" d="M1913.36,-56.44C1892.88,-47.6 1860.68,-33.69 1837.3,-23.59"/>
<polygon fill="midnightblue" stroke="midnightblue" points="1838.45,-20.27 1827.88,-19.52 1835.67,-26.7 1838.45,-20.27"/>
</g>
<!-- Node67&#45;&gt;Node32 -->
<g id="edge35" class="edge">
<title>Node67&#45;&gt;Node32</title>
<path fill="none" stroke="midnightblue" d="M1984,-59.58C2075.07,-49.86 2266.16,-29.46 2369.41,-18.44"/>
<polygon fill="midnightblue" stroke="midnightblue" points="2369.86,-21.92 2379.43,-17.38 2369.11,-14.96 2369.86,-21.92"/>
</g>
<!-- Node44&#45;&gt;Node5 -->
<g id="edge37" class="edge">
<title>Node44&#45;&gt;Node5</title>
<path fill="none" stroke="midnightblue" d="M1724.03,-112.19C1725.72,-98.88 1730.48,-73.34 1743.17,-56 1752.82,-42.81 1767.56,-32.15 1780.56,-24.53"/>
<polygon fill="midnightblue" stroke="midnightblue" points="1782.57,-27.42 1789.63,-19.52 1779.18,-21.29 1782.57,-27.42"/>
</g>
<!-- Node44&#45;&gt;Node12 -->
<g id="edge38" class="edge">
<title>Node44&#45;&gt;Node12</title>
<path fill="none" stroke="midnightblue" d="M1693.38,-112.44C1659.64,-102.75 1604.77,-86.99 1569.33,-76.81"/>
<polygon fill="midnightblue" stroke="midnightblue" points="1570.01,-73.37 1559.44,-73.97 1568.08,-80.1 1570.01,-73.37"/>
</g>
<!-- Node44&#45;&gt;Node31 -->
<g id="edge39" class="edge">
<title>Node44&#45;&gt;Node31</title>
<path fill="none" stroke="midnightblue" d="M1736.82,-112.32C1750.08,-103.9 1770.44,-90.97 1786.01,-81.07"/>
<polygon fill="midnightblue" stroke="midnightblue" points="1787.98,-83.97 1794.54,-75.65 1784.23,-78.06 1787.98,-83.97"/>
</g>
<!-- Node31&#45;&gt;Node5 -->
<g id="edge40" class="edge">
<title>Node31&#45;&gt;Node5</title>
<path fill="none" stroke="midnightblue" d="M1808.17,-56.08C1808.17,-49.01 1808.17,-38.86 1808.17,-29.99"/>
<polygon fill="midnightblue" stroke="midnightblue" points="1811.67,-29.75 1808.17,-19.75 1804.67,-29.75 1811.67,-29.75"/>
</g>
<!-- Node31&#45;&gt;Node32 -->
<g id="edge41" class="edge">
<title>Node31&#45;&gt;Node32</title>
<path fill="none" stroke="midnightblue" d="M1864.67,-57.08C1867.88,-56.7 1871.06,-56.34 1874.17,-56 2052.11,-36.8 2262.4,-22.17 2369.26,-15.3"/>
<polygon fill="midnightblue" stroke="midnightblue" points="2369.52,-18.79 2379.27,-14.66 2369.07,-11.81 2369.52,-18.79"/>
</g>
<!-- Node63&#45;&gt;Node28 -->
<g id="edge44" class="edge">
<title>Node63&#45;&gt;Node28</title>
<path fill="none" stroke="midnightblue" d="M2148.28,-168.32C2137.02,-160.11 2119.88,-147.6 2106.46,-137.81"/>
<polygon fill="midnightblue" stroke="midnightblue" points="2108.41,-134.9 2098.27,-131.83 2104.29,-140.56 2108.41,-134.9"/>
</g>
<!-- Node63&#45;&gt;Node38 -->
<g id="edge43" class="edge">
<title>Node63&#45;&gt;Node38</title>
<path fill="none" stroke="midnightblue" d="M2167.27,-168.08C2173.4,-160.38 2182.44,-149.03 2189.91,-139.65"/>
<polygon fill="midnightblue" stroke="midnightblue" points="2192.71,-141.75 2196.2,-131.75 2187.23,-137.39 2192.71,-141.75"/>
</g>
<!-- Node68&#45;&gt;Node25 -->
<g id="edge48" class="edge">
<title>Node68&#45;&gt;Node25</title>
<path fill="none" stroke="midnightblue" d="M1229.97,-224.08C1233.08,-216.77 1237.59,-206.18 1241.46,-197.1"/>
<polygon fill="midnightblue" stroke="midnightblue" points="1244.74,-198.32 1245.44,-187.75 1238.3,-195.58 1244.74,-198.32"/>
</g>
<!-- Node53&#45;&gt;Node5 -->
<g id="edge52" class="edge">
<title>Node53&#45;&gt;Node5</title>
<path fill="none" stroke="midnightblue" d="M2385.64,-60.42C2261.09,-49.76 1954.25,-23.5 1846.4,-14.27"/>
<polygon fill="midnightblue" stroke="midnightblue" points="1846.57,-10.77 1836.3,-13.41 1845.97,-17.75 1846.57,-10.77"/>
</g>
<!-- Node53&#45;&gt;Node32 -->
<g id="edge53" class="edge">
<title>Node53&#45;&gt;Node32</title>
<path fill="none" stroke="midnightblue" d="M2439.17,-56.08C2439.17,-49.01 2439.17,-38.86 2439.17,-29.99"/>
<polygon fill="midnightblue" stroke="midnightblue" points="2442.67,-29.75 2439.17,-19.75 2435.67,-29.75 2442.67,-29.75"/>
</g>
<!-- Node70&#45;&gt;Node9 -->
<g id="edge58" class="edge">
<title>Node70&#45;&gt;Node9</title>
<path fill="none" stroke="midnightblue" d="M1528.82,-168.32C1511.5,-159.66 1484.65,-146.24 1464.67,-136.25"/>
<polygon fill="midnightblue" stroke="midnightblue" points="1465.99,-133 1455.48,-131.65 1462.86,-139.26 1465.99,-133"/>
</g>
<!-- Node70&#45;&gt;Node15 -->
<g id="edge59" class="edge">
<title>Node70&#45;&gt;Node15</title>
<path fill="none" stroke="midnightblue" d="M1540.22,-168.08C1535.19,-160.53 1527.83,-149.49 1521.65,-140.23"/>
<polygon fill="midnightblue" stroke="midnightblue" points="1524.46,-138.13 1516,-131.75 1518.64,-142.01 1524.46,-138.13"/>
</g>
<!-- Node71&#45;&gt;Node3 -->
<g id="edge61" class="edge">
<title>Node71&#45;&gt;Node3</title>
<path fill="none" stroke="midnightblue" d="M164.13,-172.39C105.51,-166.96 29.45,-155.51 10.17,-132 -31.84,-80.8 73.54,-68.69 152.57,-66.49"/>
<polygon fill="midnightblue" stroke="midnightblue" points="153.12,-69.98 163.04,-66.25 152.96,-62.98 153.12,-69.98"/>
</g>
<!-- Node73&#45;&gt;Node70 -->
<g id="edge66" class="edge">
<title>Node73&#45;&gt;Node70</title>
<path fill="none" stroke="midnightblue" d="M1496.65,-224.32C1505.37,-216.34 1518.51,-204.31 1529.07,-194.65"/>
<polygon fill="midnightblue" stroke="midnightblue" points="1531.5,-197.17 1536.52,-187.83 1526.78,-192 1531.5,-197.17"/>
</g>
<!-- Node45&#45;&gt;Node32 -->
<g id="edge68" class="edge">
<title>Node45&#45;&gt;Node32</title>
<path fill="none" stroke="midnightblue" d="M2676.48,-56.44C2626.88,-46.94 2546.8,-31.61 2493.58,-21.42"/>
<polygon fill="midnightblue" stroke="midnightblue" points="2494.12,-17.96 2483.64,-19.52 2492.81,-24.83 2494.12,-17.96"/>
</g>
<!-- Node76&#45;&gt;Node63 -->
<g id="edge72" class="edge">
<title>Node76&#45;&gt;Node63</title>
<path fill="none" stroke="midnightblue" d="M2052.45,-224.44C2073.51,-215.56 2106.68,-201.56 2130.65,-191.45"/>
<polygon fill="midnightblue" stroke="midnightblue" points="2132.13,-194.63 2139.98,-187.52 2129.41,-188.18 2132.13,-194.63"/>
</g>
</g>
</svg>
