<?xml version="1.0" encoding="UTF-8" standalone="no"?>
<!DOCTYPE svg PUBLIC "-//W3C//DTD SVG 1.1//EN"
 "http://www.w3.org/Graphics/SVG/1.1/DTD/svg11.dtd">
<!-- Generated by graphviz version 2.43.0 (0)
 -->
<!-- Title: pixel&#45;accessor.h Pages: 1 -->
<svg width="1875pt" height="476pt"
 viewBox="0.00 0.00 1874.57 476.00" xmlns="http://www.w3.org/2000/svg" xmlns:xlink="http://www.w3.org/1999/xlink">
<g id="graph0" class="graph" transform="scale(1 1) rotate(0) translate(4 472)">
<title>pixel&#45;accessor.h</title>
<polygon fill="white" stroke="transparent" points="-4,4 -4,-472 1870.57,-472 1870.57,4 -4,4"/>
<!-- Node1 -->
<g id="node1" class="node">
<title>Node1</title>
<g id="a_node1"><a xlink:title=" ">
<polygon fill="#bfbfbf" stroke="black" points="1487.07,-448.5 1487.07,-467.5 1582.07,-467.5 1582.07,-448.5 1487.07,-448.5"/>
<text text-anchor="middle" x="1534.57" y="-455.5" font-family="FreeSans" font-size="10.00">pixel&#45;accessor.h</text>
</a>
</g>
</g>
<!-- Node2 -->
<g id="node2" class="node">
<title>Node2</title>
<g id="a_node2"><a xlink:title=" ">
<polygon fill="white" stroke="#bfbfbf" points="1422.07,-392.5 1422.07,-411.5 1473.07,-411.5 1473.07,-392.5 1422.07,-392.5"/>
<text text-anchor="middle" x="1447.57" y="-399.5" font-family="FreeSans" font-size="10.00">math.h</text>
</a>
</g>
</g>
<!-- Node1&#45;&gt;Node2 -->
<g id="edge1" class="edge">
<title>Node1&#45;&gt;Node2</title>
<path fill="none" stroke="midnightblue" d="M1520.59,-448.32C1507.02,-439.9 1486.19,-426.97 1470.24,-417.07"/>
<polygon fill="midnightblue" stroke="midnightblue" points="1471.85,-413.95 1461.51,-411.65 1468.16,-419.9 1471.85,-413.95"/>
</g>
<!-- Node3 -->
<g id="node3" class="node">
<title>Node3</title>
<g id="a_node3"><a xlink:href="gem_8h.html" target="_top" xlink:title=" ">
<polygon fill="white" stroke="black" points="1491.57,-392.5 1491.57,-411.5 1577.57,-411.5 1577.57,-392.5 1491.57,-392.5"/>
<text text-anchor="middle" x="1534.57" y="-399.5" font-family="FreeSans" font-size="10.00">magick/gem.h</text>
</a>
</g>
</g>
<!-- Node1&#45;&gt;Node3 -->
<g id="edge2" class="edge">
<title>Node1&#45;&gt;Node3</title>
<path fill="none" stroke="midnightblue" d="M1534.57,-448.08C1534.57,-441.01 1534.57,-430.86 1534.57,-421.99"/>
<polygon fill="midnightblue" stroke="midnightblue" points="1538.07,-421.75 1534.57,-411.75 1531.07,-421.75 1538.07,-421.75"/>
</g>
<!-- Node15 -->
<g id="node15" class="node">
<title>Node15</title>
<g id="a_node15"><a xlink:href="pixel_8h.html" target="_top" xlink:title=" ">
<polygon fill="white" stroke="black" points="1572.57,-56.5 1572.57,-75.5 1660.57,-75.5 1660.57,-56.5 1572.57,-56.5"/>
<text text-anchor="middle" x="1616.57" y="-63.5" font-family="FreeSans" font-size="10.00">magick/pixel.h</text>
</a>
</g>
</g>
<!-- Node1&#45;&gt;Node15 -->
<g id="edge51" class="edge">
<title>Node1&#45;&gt;Node15</title>
<path fill="none" stroke="midnightblue" d="M1582.14,-451.32C1673.94,-439.04 1866.57,-406.2 1866.57,-347 1866.57,-347 1866.57,-347 1866.57,-177 1866.57,-92.08 1744.24,-72.14 1670.72,-67.83"/>
<polygon fill="midnightblue" stroke="midnightblue" points="1670.85,-64.33 1660.69,-67.32 1670.5,-71.32 1670.85,-64.33"/>
</g>
<!-- Node4 -->
<g id="node4" class="node">
<title>Node4</title>
<g id="a_node4"><a xlink:href="random___8h.html" target="_top" xlink:title=" ">
<polygon fill="white" stroke="black" points="649.07,-280.5 649.07,-299.5 756.07,-299.5 756.07,-280.5 649.07,-280.5"/>
<text text-anchor="middle" x="702.57" y="-287.5" font-family="FreeSans" font-size="10.00">magick/random_.h</text>
</a>
</g>
</g>
<!-- Node3&#45;&gt;Node4 -->
<g id="edge3" class="edge">
<title>Node3&#45;&gt;Node4</title>
<path fill="none" stroke="midnightblue" d="M1491.46,-393.39C1488.45,-392.91 1485.47,-392.44 1482.57,-392 1217.1,-351.86 899.28,-313.8 766.13,-298.3"/>
<polygon fill="midnightblue" stroke="midnightblue" points="766.45,-294.81 756.11,-297.14 765.64,-301.77 766.45,-294.81"/>
</g>
<!-- Node10 -->
<g id="node10" class="node">
<title>Node10</title>
<g id="a_node10"><a xlink:href="visual-effects_8h.html" target="_top" xlink:title=" ">
<polygon fill="white" stroke="black" points="1469.07,-336.5 1469.07,-355.5 1600.07,-355.5 1600.07,-336.5 1469.07,-336.5"/>
<text text-anchor="middle" x="1534.57" y="-343.5" font-family="FreeSans" font-size="10.00">magick/visual&#45;effects.h</text>
</a>
</g>
</g>
<!-- Node3&#45;&gt;Node10 -->
<g id="edge10" class="edge">
<title>Node3&#45;&gt;Node10</title>
<path fill="none" stroke="midnightblue" d="M1534.57,-392.08C1534.57,-385.01 1534.57,-374.86 1534.57,-365.99"/>
<polygon fill="midnightblue" stroke="midnightblue" points="1538.07,-365.75 1534.57,-355.75 1531.07,-365.75 1538.07,-365.75"/>
</g>
<!-- Node5 -->
<g id="node5" class="node">
<title>Node5</title>
<g id="a_node5"><a xlink:href="string___8h.html" target="_top" xlink:title=" ">
<polygon fill="white" stroke="black" points="66.57,-112.5 66.57,-131.5 164.57,-131.5 164.57,-112.5 66.57,-112.5"/>
<text text-anchor="middle" x="115.57" y="-119.5" font-family="FreeSans" font-size="10.00">magick/string_.h</text>
</a>
</g>
</g>
<!-- Node4&#45;&gt;Node5 -->
<g id="edge4" class="edge">
<title>Node4&#45;&gt;Node5</title>
<path fill="none" stroke="midnightblue" d="M648.83,-287.3C524.84,-282.98 221.89,-270.02 123.57,-244 67.06,-229.05 35.89,-237.35 4.57,-188 -12.49,-161.11 23.89,-144.01 59.47,-134.14"/>
<polygon fill="midnightblue" stroke="midnightblue" points="60.65,-137.45 69.44,-131.54 58.88,-130.67 60.65,-137.45"/>
</g>
<!-- Node6 -->
<g id="node6" class="node">
<title>Node6</title>
<g id="a_node6"><a xlink:title=" ">
<polygon fill="white" stroke="#bfbfbf" points="312.57,-0.5 312.57,-19.5 368.57,-19.5 368.57,-0.5 312.57,-0.5"/>
<text text-anchor="middle" x="340.57" y="-7.5" font-family="FreeSans" font-size="10.00">stdarg.h</text>
</a>
</g>
</g>
<!-- Node5&#45;&gt;Node6 -->
<g id="edge5" class="edge">
<title>Node5&#45;&gt;Node6</title>
<path fill="none" stroke="midnightblue" d="M115.47,-112.42C115.79,-98.47 118.58,-70.92 134.57,-56 158.53,-33.64 249.76,-20.54 302.43,-14.69"/>
<polygon fill="midnightblue" stroke="midnightblue" points="302.85,-18.17 312.41,-13.62 302.1,-11.21 302.85,-18.17"/>
</g>
<!-- Node7 -->
<g id="node7" class="node">
<title>Node7</title>
<g id="a_node7"><a xlink:title=" ">
<polygon fill="white" stroke="#bfbfbf" points="143.57,-56.5 143.57,-75.5 191.57,-75.5 191.57,-56.5 143.57,-56.5"/>
<text text-anchor="middle" x="167.57" y="-63.5" font-family="FreeSans" font-size="10.00">time.h</text>
</a>
</g>
</g>
<!-- Node5&#45;&gt;Node7 -->
<g id="edge6" class="edge">
<title>Node5&#45;&gt;Node7</title>
<path fill="none" stroke="midnightblue" d="M124.15,-112.08C131.73,-104.22 142.95,-92.57 152.08,-83.08"/>
<polygon fill="midnightblue" stroke="midnightblue" points="154.73,-85.38 159.14,-75.75 149.68,-80.53 154.73,-85.38"/>
</g>
<!-- Node8 -->
<g id="node8" class="node">
<title>Node8</title>
<g id="a_node8"><a xlink:href="exception_8h.html" target="_top" xlink:title=" ">
<polygon fill="white" stroke="black" points="327.07,-56.5 327.07,-75.5 440.07,-75.5 440.07,-56.5 327.07,-56.5"/>
<text text-anchor="middle" x="383.57" y="-63.5" font-family="FreeSans" font-size="10.00">magick/exception.h</text>
</a>
</g>
</g>
<!-- Node5&#45;&gt;Node8 -->
<g id="edge7" class="edge">
<title>Node5&#45;&gt;Node8</title>
<path fill="none" stroke="midnightblue" d="M158.03,-112.44C204.98,-102.98 280.64,-87.74 331.22,-77.55"/>
<polygon fill="midnightblue" stroke="midnightblue" points="332.19,-80.92 341.3,-75.52 330.81,-74.06 332.19,-80.92"/>
</g>
<!-- Node8&#45;&gt;Node6 -->
<g id="edge8" class="edge">
<title>Node8&#45;&gt;Node6</title>
<path fill="none" stroke="midnightblue" d="M376.47,-56.08C370.33,-48.38 361.3,-37.03 353.83,-27.65"/>
<polygon fill="midnightblue" stroke="midnightblue" points="356.5,-25.39 347.54,-19.75 351.03,-29.75 356.5,-25.39"/>
</g>
<!-- Node9 -->
<g id="node9" class="node">
<title>Node9</title>
<g id="a_node9"><a xlink:href="semaphore_8h.html" target="_top" xlink:title=" ">
<polygon fill="white" stroke="black" points="452.07,-0.5 452.07,-19.5 571.07,-19.5 571.07,-0.5 452.07,-0.5"/>
<text text-anchor="middle" x="511.57" y="-7.5" font-family="FreeSans" font-size="10.00">magick/semaphore.h</text>
</a>
</g>
</g>
<!-- Node8&#45;&gt;Node9 -->
<g id="edge9" class="edge">
<title>Node8&#45;&gt;Node9</title>
<path fill="none" stroke="midnightblue" d="M403.85,-56.44C424.91,-47.56 458.08,-33.56 482.05,-23.45"/>
<polygon fill="midnightblue" stroke="midnightblue" points="483.53,-26.63 491.38,-19.52 480.81,-20.18 483.53,-26.63"/>
</g>
<!-- Node11 -->
<g id="node11" class="node">
<title>Node11</title>
<g id="a_node11"><a xlink:href="draw_8h.html" target="_top" xlink:title=" ">
<polygon fill="white" stroke="black" points="1490.57,-280.5 1490.57,-299.5 1578.57,-299.5 1578.57,-280.5 1490.57,-280.5"/>
<text text-anchor="middle" x="1534.57" y="-287.5" font-family="FreeSans" font-size="10.00">magick/draw.h</text>
</a>
</g>
</g>
<!-- Node10&#45;&gt;Node11 -->
<g id="edge11" class="edge">
<title>Node10&#45;&gt;Node11</title>
<path fill="none" stroke="midnightblue" d="M1534.57,-336.08C1534.57,-329.01 1534.57,-318.86 1534.57,-309.99"/>
<polygon fill="midnightblue" stroke="midnightblue" points="1538.07,-309.75 1534.57,-299.75 1531.07,-309.75 1538.07,-309.75"/>
</g>
<!-- Node12 -->
<g id="node12" class="node">
<title>Node12</title>
<g id="a_node12"><a xlink:href="geometry_8h.html" target="_top" xlink:title=" ">
<polygon fill="white" stroke="black" points="874.57,-56.5 874.57,-75.5 984.57,-75.5 984.57,-56.5 874.57,-56.5"/>
<text text-anchor="middle" x="929.57" y="-63.5" font-family="FreeSans" font-size="10.00">magick/geometry.h</text>
</a>
</g>
</g>
<!-- Node11&#45;&gt;Node12 -->
<g id="edge12" class="edge">
<title>Node11&#45;&gt;Node12</title>
<path fill="none" stroke="midnightblue" d="M1490.22,-289.24C1264.39,-290.01 249.39,-287.88 156.57,-188 57.89,-81.83 660.95,-68.58 864.32,-67.12"/>
<polygon fill="midnightblue" stroke="midnightblue" points="864.58,-70.62 874.56,-67.05 864.54,-63.62 864.58,-70.62"/>
</g>
<!-- Node13 -->
<g id="node13" class="node">
<title>Node13</title>
<g id="a_node13"><a xlink:href="image_8h.html" target="_top" xlink:title=" ">
<polygon fill="white" stroke="black" points="1053.07,-224.5 1053.07,-243.5 1148.07,-243.5 1148.07,-224.5 1053.07,-224.5"/>
<text text-anchor="middle" x="1100.57" y="-231.5" font-family="FreeSans" font-size="10.00">magick/image.h</text>
</a>
</g>
</g>
<!-- Node11&#45;&gt;Node13 -->
<g id="edge13" class="edge">
<title>Node11&#45;&gt;Node13</title>
<path fill="none" stroke="midnightblue" d="M1490.57,-283.53C1411.69,-273.71 1246.29,-253.13 1158.37,-242.19"/>
<polygon fill="midnightblue" stroke="midnightblue" points="1158.66,-238.7 1148.3,-240.94 1157.8,-245.65 1158.66,-238.7"/>
</g>
<!-- Node14 -->
<g id="node14" class="node">
<title>Node14</title>
<g id="a_node14"><a xlink:href="color_8h.html" target="_top" xlink:title=" ">
<polygon fill="white" stroke="black" points="1404.57,-112.5 1404.57,-131.5 1492.57,-131.5 1492.57,-112.5 1404.57,-112.5"/>
<text text-anchor="middle" x="1448.57" y="-119.5" font-family="FreeSans" font-size="10.00">magick/color.h</text>
</a>
</g>
</g>
<!-- Node11&#45;&gt;Node14 -->
<g id="edge50" class="edge">
<title>Node11&#45;&gt;Node14</title>
<path fill="none" stroke="midnightblue" d="M1535.45,-280.27C1537.12,-259.16 1538.77,-204.4 1515.57,-168 1506.75,-154.18 1492,-143.59 1478.58,-136.17"/>
<polygon fill="midnightblue" stroke="midnightblue" points="1480.08,-133 1469.59,-131.53 1476.88,-139.23 1480.08,-133"/>
</g>
<!-- Node11&#45;&gt;Node15 -->
<g id="edge48" class="edge">
<title>Node11&#45;&gt;Node15</title>
<path fill="none" stroke="midnightblue" d="M1578.58,-280.89C1626.68,-269.42 1701.44,-243.35 1735.57,-188 1744.49,-173.53 1745.75,-133.32 1729.57,-112 1715.4,-93.33 1692.27,-82.39 1670.62,-75.99"/>
<polygon fill="midnightblue" stroke="midnightblue" points="1671.38,-72.57 1660.81,-73.35 1669.56,-79.33 1671.38,-72.57"/>
</g>
<!-- Node35 -->
<g id="node35" class="node">
<title>Node35</title>
<g id="a_node35"><a xlink:href="type_8h.html" target="_top" xlink:title=" ">
<polygon fill="white" stroke="black" points="1752.57,-224.5 1752.57,-243.5 1838.57,-243.5 1838.57,-224.5 1752.57,-224.5"/>
<text text-anchor="middle" x="1795.57" y="-231.5" font-family="FreeSans" font-size="10.00">magick/type.h</text>
</a>
</g>
</g>
<!-- Node11&#45;&gt;Node35 -->
<g id="edge49" class="edge">
<title>Node11&#45;&gt;Node35</title>
<path fill="none" stroke="midnightblue" d="M1575.92,-280.44C1621.65,-270.98 1695.33,-255.74 1744.59,-245.55"/>
<polygon fill="midnightblue" stroke="midnightblue" points="1745.32,-248.97 1754.4,-243.52 1743.9,-242.12 1745.32,-248.97"/>
</g>
<!-- Node13&#45;&gt;Node9 -->
<g id="edge45" class="edge">
<title>Node13&#45;&gt;Node9</title>
<path fill="none" stroke="midnightblue" d="M1052.95,-232.27C926.44,-229.89 589.02,-220.53 551.57,-188 505.42,-147.92 506.25,-66.94 509.35,-30.06"/>
<polygon fill="midnightblue" stroke="midnightblue" points="512.87,-30.05 510.38,-19.75 505.9,-29.35 512.87,-30.05"/>
</g>
<!-- Node13&#45;&gt;Node12 -->
<g id="edge30" class="edge">
<title>Node13&#45;&gt;Node12</title>
<path fill="none" stroke="midnightblue" d="M1084.39,-224.44C1070.56,-216.48 1050.84,-203.53 1037.57,-188 1013.03,-159.29 1024.8,-140.1 999.57,-112 987.88,-98.98 971.6,-88.22 957.67,-80.48"/>
<polygon fill="midnightblue" stroke="midnightblue" points="958.97,-77.21 948.5,-75.62 955.69,-83.39 958.97,-77.21"/>
</g>
<!-- Node13&#45;&gt;Node14 -->
<g id="edge14" class="edge">
<title>Node13&#45;&gt;Node14</title>
<path fill="none" stroke="midnightblue" d="M1148.39,-228.87C1197.41,-223.51 1275.21,-211.87 1338.57,-188 1372.35,-175.27 1407.64,-152.46 1428.86,-137.52"/>
<polygon fill="midnightblue" stroke="midnightblue" points="1430.96,-140.33 1437.05,-131.66 1426.88,-134.64 1430.96,-140.33"/>
</g>
<!-- Node13&#45;&gt;Node15 -->
<g id="edge35" class="edge">
<title>Node13&#45;&gt;Node15</title>
<path fill="none" stroke="midnightblue" d="M1148.32,-232.26C1243.49,-230.07 1453.04,-221.48 1515.57,-188 1560.04,-164.19 1592.84,-111.92 1607.71,-84.53"/>
<polygon fill="midnightblue" stroke="midnightblue" points="1610.82,-86.14 1612.37,-75.66 1604.62,-82.89 1610.82,-86.14"/>
</g>
<!-- Node16 -->
<g id="node16" class="node">
<title>Node16</title>
<g id="a_node16"><a xlink:href="colorspace_8h.html" target="_top" xlink:title=" ">
<polygon fill="white" stroke="black" points="1368.07,-0.5 1368.07,-19.5 1485.07,-19.5 1485.07,-0.5 1368.07,-0.5"/>
<text text-anchor="middle" x="1426.57" y="-7.5" font-family="FreeSans" font-size="10.00">magick/colorspace.h</text>
</a>
</g>
</g>
<!-- Node13&#45;&gt;Node16 -->
<g id="edge22" class="edge">
<title>Node13&#45;&gt;Node16</title>
<path fill="none" stroke="midnightblue" d="M1148.4,-232.32C1192.63,-229.55 1258.45,-219.8 1305.57,-188 1365.95,-147.26 1404.72,-65.38 1419.64,-29.06"/>
<polygon fill="midnightblue" stroke="midnightblue" points="1422.91,-30.31 1423.36,-19.72 1416.41,-27.72 1422.91,-30.31"/>
</g>
<!-- Node18 -->
<g id="node18" class="node">
<title>Node18</title>
<g id="a_node18"><a xlink:href="blob_8h.html" target="_top" xlink:title=" ">
<polygon fill="white" stroke="black" points="1210.57,-168.5 1210.57,-187.5 1296.57,-187.5 1296.57,-168.5 1210.57,-168.5"/>
<text text-anchor="middle" x="1253.57" y="-175.5" font-family="FreeSans" font-size="10.00">magick/blob.h</text>
</a>
</g>
</g>
<!-- Node13&#45;&gt;Node18 -->
<g id="edge19" class="edge">
<title>Node13&#45;&gt;Node18</title>
<path fill="none" stroke="midnightblue" d="M1119.72,-224.44C1143.47,-215.36 1184.13,-200.94 1214.49,-190.78"/>
<polygon fill="midnightblue" stroke="midnightblue" points="1215.97,-193.98 1224.36,-187.52 1213.76,-187.34 1215.97,-193.98"/>
</g>
<!-- Node19 -->
<g id="node19" class="node">
<title>Node19</title>
<g id="a_node19"><a xlink:href="stream_8h.html" target="_top" xlink:title=" ">
<polygon fill="white" stroke="black" points="1174.07,-112.5 1174.07,-131.5 1273.07,-131.5 1273.07,-112.5 1174.07,-112.5"/>
<text text-anchor="middle" x="1223.57" y="-119.5" font-family="FreeSans" font-size="10.00">magick/stream.h</text>
</a>
</g>
</g>
<!-- Node13&#45;&gt;Node19 -->
<g id="edge46" class="edge">
<title>Node13&#45;&gt;Node19</title>
<path fill="none" stroke="midnightblue" d="M1114.19,-224.44C1127.38,-215.9 1147.64,-202.05 1163.57,-188 1180.76,-172.83 1198.31,-153.25 1209.95,-139.56"/>
<polygon fill="midnightblue" stroke="midnightblue" points="1212.94,-141.43 1216.68,-131.52 1207.58,-136.94 1212.94,-141.43"/>
</g>
<!-- Node20 -->
<g id="node20" class="node">
<title>Node20</title>
<g id="a_node20"><a xlink:href="cache-view_8h.html" target="_top" xlink:title=" ">
<polygon fill="white" stroke="black" points="1601.07,-112.5 1601.07,-131.5 1720.07,-131.5 1720.07,-112.5 1601.07,-112.5"/>
<text text-anchor="middle" x="1660.57" y="-119.5" font-family="FreeSans" font-size="10.00">magick/cache&#45;view.h</text>
</a>
</g>
</g>
<!-- Node13&#45;&gt;Node20 -->
<g id="edge23" class="edge">
<title>Node13&#45;&gt;Node20</title>
<path fill="none" stroke="midnightblue" d="M1148.13,-233.18C1286.39,-233.19 1680.91,-229.57 1719.57,-188 1735.9,-170.44 1709.87,-149.92 1687.39,-136.7"/>
<polygon fill="midnightblue" stroke="midnightblue" points="1688.85,-133.51 1678.41,-131.68 1685.43,-139.62 1688.85,-133.51"/>
</g>
<!-- Node21 -->
<g id="node21" class="node">
<title>Node21</title>
<g id="a_node21"><a xlink:href="composite_8h.html" target="_top" xlink:title=" ">
<polygon fill="white" stroke="black" points="1390.57,-168.5 1390.57,-187.5 1506.57,-187.5 1506.57,-168.5 1390.57,-168.5"/>
<text text-anchor="middle" x="1448.57" y="-175.5" font-family="FreeSans" font-size="10.00">magick/composite.h</text>
</a>
</g>
</g>
<!-- Node13&#45;&gt;Node21 -->
<g id="edge25" class="edge">
<title>Node13&#45;&gt;Node21</title>
<path fill="none" stroke="midnightblue" d="M1148.23,-225.6C1209.22,-216.14 1315.16,-199.7 1383.54,-189.09"/>
<polygon fill="midnightblue" stroke="midnightblue" points="1384.41,-192.5 1393.76,-187.51 1383.34,-185.58 1384.41,-192.5"/>
</g>
<!-- Node22 -->
<g id="node22" class="node">
<title>Node22</title>
<g id="a_node22"><a xlink:href="compress_8h.html" target="_top" xlink:title=" ">
<polygon fill="white" stroke="black" points="165.57,-168.5 165.57,-187.5 277.57,-187.5 277.57,-168.5 165.57,-168.5"/>
<text text-anchor="middle" x="221.57" y="-175.5" font-family="FreeSans" font-size="10.00">magick/compress.h</text>
</a>
</g>
</g>
<!-- Node13&#45;&gt;Node22 -->
<g id="edge26" class="edge">
<title>Node13&#45;&gt;Node22</title>
<path fill="none" stroke="midnightblue" d="M1052.75,-231.73C928.43,-228.14 584.61,-216.33 287.99,-188.06"/>
<polygon fill="midnightblue" stroke="midnightblue" points="288.19,-184.56 277.9,-187.09 287.52,-191.53 288.19,-184.56"/>
</g>
<!-- Node23 -->
<g id="node23" class="node">
<title>Node23</title>
<g id="a_node23"><a xlink:href="effect_8h.html" target="_top" xlink:title=" ">
<polygon fill="white" stroke="black" points="898.57,-168.5 898.57,-187.5 990.57,-187.5 990.57,-168.5 898.57,-168.5"/>
<text text-anchor="middle" x="944.57" y="-175.5" font-family="FreeSans" font-size="10.00">magick/effect.h</text>
</a>
</g>
</g>
<!-- Node13&#45;&gt;Node23 -->
<g id="edge27" class="edge">
<title>Node13&#45;&gt;Node23</title>
<path fill="none" stroke="midnightblue" d="M1075.85,-224.44C1049.72,-215.4 1008.31,-201.06 978.99,-190.92"/>
<polygon fill="midnightblue" stroke="midnightblue" points="979.77,-187.48 969.17,-187.52 977.48,-194.1 979.77,-187.48"/>
</g>
<!-- Node25 -->
<g id="node25" class="node">
<title>Node25</title>
<g id="a_node25"><a xlink:href="layer_8h.html" target="_top" xlink:title=" ">
<polygon fill="white" stroke="black" points="296.07,-168.5 296.07,-187.5 385.07,-187.5 385.07,-168.5 296.07,-168.5"/>
<text text-anchor="middle" x="340.57" y="-175.5" font-family="FreeSans" font-size="10.00">magick/layer.h</text>
</a>
</g>
</g>
<!-- Node13&#45;&gt;Node25 -->
<g id="edge31" class="edge">
<title>Node13&#45;&gt;Node25</title>
<path fill="none" stroke="midnightblue" d="M1052.83,-231.69C940.11,-228.21 648.47,-217.06 395.46,-188.11"/>
<polygon fill="midnightblue" stroke="midnightblue" points="395.68,-184.61 385.34,-186.94 394.87,-191.57 395.68,-184.61"/>
</g>
<!-- Node26 -->
<g id="node26" class="node">
<title>Node26</title>
<g id="a_node26"><a xlink:href="locale___8h.html" target="_top" xlink:title=" ">
<polygon fill="white" stroke="black" points="561.07,-168.5 561.07,-187.5 660.07,-187.5 660.07,-168.5 561.07,-168.5"/>
<text text-anchor="middle" x="610.57" y="-175.5" font-family="FreeSans" font-size="10.00">magick/locale_.h</text>
</a>
</g>
</g>
<!-- Node13&#45;&gt;Node26 -->
<g id="edge32" class="edge">
<title>Node13&#45;&gt;Node26</title>
<path fill="none" stroke="midnightblue" d="M1052.97,-228.77C975.22,-221.71 815.91,-206.55 670.14,-188.02"/>
<polygon fill="midnightblue" stroke="midnightblue" points="670.48,-184.53 660.12,-186.73 669.59,-191.47 670.48,-184.53"/>
</g>
<!-- Node28 -->
<g id="node28" class="node">
<title>Node28</title>
<g id="a_node28"><a xlink:href="monitor_8h.html" target="_top" xlink:title=" ">
<polygon fill="white" stroke="black" points="402.57,-168.5 402.57,-187.5 504.57,-187.5 504.57,-168.5 402.57,-168.5"/>
<text text-anchor="middle" x="453.57" y="-175.5" font-family="FreeSans" font-size="10.00">magick/monitor.h</text>
</a>
</g>
</g>
<!-- Node13&#45;&gt;Node28 -->
<g id="edge34" class="edge">
<title>Node13&#45;&gt;Node28</title>
<path fill="none" stroke="midnightblue" d="M1052.95,-230.3C953.5,-224.43 716.56,-209.34 518.57,-188 517.29,-187.86 516.01,-187.72 514.71,-187.57"/>
<polygon fill="midnightblue" stroke="midnightblue" points="514.97,-184.08 504.63,-186.37 514.14,-191.03 514.97,-184.08"/>
</g>
<!-- Node29 -->
<g id="node29" class="node">
<title>Node29</title>
<g id="a_node29"><a xlink:href="profile_8h.html" target="_top" xlink:title=" ">
<polygon fill="white" stroke="black" points="14.07,-168.5 14.07,-187.5 109.07,-187.5 109.07,-168.5 14.07,-168.5"/>
<text text-anchor="middle" x="61.57" y="-175.5" font-family="FreeSans" font-size="10.00">magick/profile.h</text>
</a>
</g>
</g>
<!-- Node13&#45;&gt;Node29 -->
<g id="edge36" class="edge">
<title>Node13&#45;&gt;Node29</title>
<path fill="none" stroke="midnightblue" d="M1052.88,-231.52C914.32,-227.04 499.85,-212.43 156.57,-188 144.56,-187.15 131.72,-186.05 119.48,-184.92"/>
<polygon fill="midnightblue" stroke="midnightblue" points="119.66,-181.42 109.37,-183.97 119,-188.39 119.66,-181.42"/>
</g>
<!-- Node30 -->
<g id="node30" class="node">
<title>Node30</title>
<g id="a_node30"><a xlink:href="quantum_8h.html" target="_top" xlink:title=" ">
<polygon fill="white" stroke="black" points="1046.57,-168.5 1046.57,-187.5 1154.57,-187.5 1154.57,-168.5 1046.57,-168.5"/>
<text text-anchor="middle" x="1100.57" y="-175.5" font-family="FreeSans" font-size="10.00">magick/quantum.h</text>
</a>
</g>
</g>
<!-- Node13&#45;&gt;Node30 -->
<g id="edge38" class="edge">
<title>Node13&#45;&gt;Node30</title>
<path fill="none" stroke="midnightblue" d="M1095.4,-224.08C1093.89,-216.93 1093.46,-206.64 1094.11,-197.69"/>
<polygon fill="midnightblue" stroke="midnightblue" points="1097.58,-198.13 1095.44,-187.75 1090.64,-197.2 1097.58,-198.13"/>
</g>
<!-- Node32 -->
<g id="node32" class="node">
<title>Node32</title>
<g id="a_node32"><a xlink:href="resample_8h.html" target="_top" xlink:title=" ">
<polygon fill="white" stroke="black" points="1600.57,-168.5 1600.57,-187.5 1710.57,-187.5 1710.57,-168.5 1600.57,-168.5"/>
<text text-anchor="middle" x="1655.57" y="-175.5" font-family="FreeSans" font-size="10.00">magick/resample.h</text>
</a>
</g>
</g>
<!-- Node13&#45;&gt;Node32 -->
<g id="edge42" class="edge">
<title>Node13&#45;&gt;Node32</title>
<path fill="none" stroke="midnightblue" d="M1148.23,-229.18C1235.35,-222.07 1426.14,-205.88 1586.57,-188 1587.68,-187.88 1588.8,-187.75 1589.93,-187.62"/>
<polygon fill="midnightblue" stroke="midnightblue" points="1590.71,-191.05 1600.23,-186.4 1589.89,-184.1 1590.71,-191.05"/>
</g>
<!-- Node33 -->
<g id="node33" class="node">
<title>Node33</title>
<g id="a_node33"><a xlink:href="resize_8h.html" target="_top" xlink:title=" ">
<polygon fill="white" stroke="black" points="678.57,-168.5 678.57,-187.5 772.57,-187.5 772.57,-168.5 678.57,-168.5"/>
<text text-anchor="middle" x="725.57" y="-175.5" font-family="FreeSans" font-size="10.00">magick/resize.h</text>
</a>
</g>
</g>
<!-- Node13&#45;&gt;Node33 -->
<g id="edge44" class="edge">
<title>Node13&#45;&gt;Node33</title>
<path fill="none" stroke="midnightblue" d="M1052.97,-226.58C992.6,-218.36 885.01,-203.51 782.8,-188.16"/>
<polygon fill="midnightblue" stroke="midnightblue" points="783.02,-184.66 772.61,-186.63 781.98,-191.58 783.02,-184.66"/>
</g>
<!-- Node34 -->
<g id="node34" class="node">
<title>Node34</title>
<g id="a_node34"><a xlink:href="timer_8h.html" target="_top" xlink:title=" ">
<polygon fill="white" stroke="black" points="790.57,-168.5 790.57,-187.5 880.57,-187.5 880.57,-168.5 790.57,-168.5"/>
<text text-anchor="middle" x="835.57" y="-175.5" font-family="FreeSans" font-size="10.00">magick/timer.h</text>
</a>
</g>
</g>
<!-- Node13&#45;&gt;Node34 -->
<g id="edge47" class="edge">
<title>Node13&#45;&gt;Node34</title>
<path fill="none" stroke="midnightblue" d="M1058.58,-224.44C1012.16,-214.98 937.34,-199.74 887.33,-189.55"/>
<polygon fill="midnightblue" stroke="midnightblue" points="887.86,-186.08 877.36,-187.52 886.46,-192.94 887.86,-186.08"/>
</g>
<!-- Node14&#45;&gt;Node8 -->
<g id="edge18" class="edge">
<title>Node14&#45;&gt;Node8</title>
<path fill="none" stroke="midnightblue" d="M1404.53,-118.56C1371.08,-116.72 1323.93,-114.16 1282.57,-112 971.48,-95.78 599.77,-77.54 450.47,-70.25"/>
<polygon fill="midnightblue" stroke="midnightblue" points="450.27,-66.74 440.11,-69.75 449.93,-73.73 450.27,-66.74"/>
</g>
<!-- Node14&#45;&gt;Node15 -->
<g id="edge15" class="edge">
<title>Node14&#45;&gt;Node15</title>
<path fill="none" stroke="midnightblue" d="M1475.19,-112.44C1503.57,-103.32 1548.7,-88.81 1580.32,-78.65"/>
<polygon fill="midnightblue" stroke="midnightblue" points="1581.62,-81.91 1590.07,-75.52 1579.48,-75.24 1581.62,-81.91"/>
</g>
<!-- Node15&#45;&gt;Node16 -->
<g id="edge16" class="edge">
<title>Node15&#45;&gt;Node16</title>
<path fill="none" stroke="midnightblue" d="M1586.46,-56.44C1553.94,-47.2 1501.99,-32.44 1466.18,-22.26"/>
<polygon fill="midnightblue" stroke="midnightblue" points="1467.11,-18.88 1456.53,-19.52 1465.2,-25.62 1467.11,-18.88"/>
</g>
<!-- Node17 -->
<g id="node17" class="node">
<title>Node17</title>
<g id="a_node17"><a xlink:href="constitute_8h.html" target="_top" xlink:title=" ">
<polygon fill="white" stroke="black" points="1560.07,-0.5 1560.07,-19.5 1673.07,-19.5 1673.07,-0.5 1560.07,-0.5"/>
<text text-anchor="middle" x="1616.57" y="-7.5" font-family="FreeSans" font-size="10.00">magick/constitute.h</text>
</a>
</g>
</g>
<!-- Node15&#45;&gt;Node17 -->
<g id="edge17" class="edge">
<title>Node15&#45;&gt;Node17</title>
<path fill="none" stroke="midnightblue" d="M1616.57,-56.08C1616.57,-49.01 1616.57,-38.86 1616.57,-29.99"/>
<polygon fill="midnightblue" stroke="midnightblue" points="1620.07,-29.75 1616.57,-19.75 1613.07,-29.75 1620.07,-29.75"/>
</g>
<!-- Node18&#45;&gt;Node13 -->
<g id="edge20" class="edge">
<title>Node18&#45;&gt;Node13</title>
<path fill="none" stroke="midnightblue" d="M1234.52,-187.52C1210.82,-196.59 1170.17,-211 1139.78,-221.17"/>
<polygon fill="midnightblue" stroke="midnightblue" points="1138.29,-217.98 1129.9,-224.44 1140.49,-224.62 1138.29,-217.98"/>
</g>
<!-- Node18&#45;&gt;Node19 -->
<g id="edge21" class="edge">
<title>Node18&#45;&gt;Node19</title>
<path fill="none" stroke="midnightblue" d="M1248.61,-168.08C1244.46,-160.61 1238.41,-149.72 1233.3,-140.52"/>
<polygon fill="midnightblue" stroke="midnightblue" points="1236.35,-138.79 1228.43,-131.75 1230.23,-142.19 1236.35,-138.79"/>
</g>
<!-- Node20&#45;&gt;Node15 -->
<g id="edge24" class="edge">
<title>Node20&#45;&gt;Node15</title>
<path fill="none" stroke="midnightblue" d="M1653.3,-112.08C1647.02,-104.38 1637.78,-93.03 1630.14,-83.65"/>
<polygon fill="midnightblue" stroke="midnightblue" points="1632.73,-81.29 1623.7,-75.75 1627.3,-85.71 1632.73,-81.29"/>
</g>
<!-- Node24 -->
<g id="node24" class="node">
<title>Node24</title>
<g id="a_node24"><a xlink:href="morphology_8h.html" target="_top" xlink:title=" ">
<polygon fill="white" stroke="black" points="868.57,-112.5 868.57,-131.5 990.57,-131.5 990.57,-112.5 868.57,-112.5"/>
<text text-anchor="middle" x="929.57" y="-119.5" font-family="FreeSans" font-size="10.00">magick/morphology.h</text>
</a>
</g>
</g>
<!-- Node23&#45;&gt;Node24 -->
<g id="edge28" class="edge">
<title>Node23&#45;&gt;Node24</title>
<path fill="none" stroke="midnightblue" d="M942.09,-168.08C940.08,-160.85 937.18,-150.41 934.68,-141.4"/>
<polygon fill="midnightblue" stroke="midnightblue" points="938.05,-140.45 932,-131.75 931.3,-142.32 938.05,-140.45"/>
</g>
<!-- Node24&#45;&gt;Node12 -->
<g id="edge29" class="edge">
<title>Node24&#45;&gt;Node12</title>
<path fill="none" stroke="midnightblue" d="M929.57,-112.08C929.57,-105.01 929.57,-94.86 929.57,-85.99"/>
<polygon fill="midnightblue" stroke="midnightblue" points="933.07,-85.75 929.57,-75.75 926.07,-85.75 933.07,-85.75"/>
</g>
<!-- Node27 -->
<g id="node27" class="node">
<title>Node27</title>
<g id="a_node27"><a xlink:href="hashmap_8h.html" target="_top" xlink:title=" ">
<polygon fill="white" stroke="black" points="577.57,-112.5 577.57,-131.5 687.57,-131.5 687.57,-112.5 577.57,-112.5"/>
<text text-anchor="middle" x="632.57" y="-119.5" font-family="FreeSans" font-size="10.00">magick/hashmap.h</text>
</a>
</g>
</g>
<!-- Node26&#45;&gt;Node27 -->
<g id="edge33" class="edge">
<title>Node26&#45;&gt;Node27</title>
<path fill="none" stroke="midnightblue" d="M614.2,-168.08C617.18,-160.77 621.49,-150.18 625.19,-141.1"/>
<polygon fill="midnightblue" stroke="midnightblue" points="628.47,-142.33 629,-131.75 621.99,-139.69 628.47,-142.33"/>
</g>
<!-- Node29&#45;&gt;Node5 -->
<g id="edge37" class="edge">
<title>Node29&#45;&gt;Node5</title>
<path fill="none" stroke="midnightblue" d="M70.48,-168.08C78.35,-160.22 90,-148.57 99.49,-139.08"/>
<polygon fill="midnightblue" stroke="midnightblue" points="102.22,-141.3 106.82,-131.75 97.27,-136.35 102.22,-141.3"/>
</g>
<!-- Node30&#45;&gt;Node9 -->
<g id="edge41" class="edge">
<title>Node30&#45;&gt;Node9</title>
<path fill="none" stroke="midnightblue" d="M1103.87,-168.24C1108.26,-154.99 1114.31,-129.53 1103.57,-112 1074.9,-65.23 1046.26,-71.27 993.57,-56 918.15,-34.15 696.02,-20.22 581.55,-14.29"/>
<polygon fill="midnightblue" stroke="midnightblue" points="581.65,-10.79 571.48,-13.78 581.29,-17.78 581.65,-10.79"/>
</g>
<!-- Node30&#45;&gt;Node13 -->
<g id="edge40" class="edge">
<title>Node30&#45;&gt;Node13</title>
<path fill="none" stroke="midnightblue" d="M1105.7,-187.75C1107.22,-194.86 1107.67,-205.14 1107.04,-214.1"/>
<polygon fill="midnightblue" stroke="midnightblue" points="1103.56,-213.71 1105.73,-224.08 1110.5,-214.62 1103.56,-213.71"/>
</g>
<!-- Node31 -->
<g id="node31" class="node">
<title>Node31</title>
<g id="a_node31"><a xlink:title=" ">
<polygon fill="white" stroke="#bfbfbf" points="1047.07,-112.5 1047.07,-131.5 1094.07,-131.5 1094.07,-112.5 1047.07,-112.5"/>
<text text-anchor="middle" x="1070.57" y="-119.5" font-family="FreeSans" font-size="10.00">float.h</text>
</a>
</g>
</g>
<!-- Node30&#45;&gt;Node31 -->
<g id="edge39" class="edge">
<title>Node30&#45;&gt;Node31</title>
<path fill="none" stroke="midnightblue" d="M1095.61,-168.08C1091.46,-160.61 1085.41,-149.72 1080.3,-140.52"/>
<polygon fill="midnightblue" stroke="midnightblue" points="1083.35,-138.79 1075.43,-131.75 1077.23,-142.19 1083.35,-138.79"/>
</g>
<!-- Node32&#45;&gt;Node20 -->
<g id="edge43" class="edge">
<title>Node32&#45;&gt;Node20</title>
<path fill="none" stroke="midnightblue" d="M1656.39,-168.08C1657.05,-161.01 1657.99,-150.86 1658.81,-141.99"/>
<polygon fill="midnightblue" stroke="midnightblue" points="1662.32,-142.03 1659.76,-131.75 1655.35,-141.39 1662.32,-142.03"/>
</g>
</g>
</svg>
