<?xml version="1.0" encoding="UTF-8" standalone="no"?>
<!DOCTYPE svg PUBLIC "-//W3C//DTD SVG 1.1//EN"
 "http://www.w3.org/Graphics/SVG/1.1/DTD/svg11.dtd">
<!-- Generated by graphviz version 2.43.0 (0)
 -->
<!-- Title: policy.h Pages: 1 -->
<svg width="476pt" height="140pt"
 viewBox="0.00 0.00 476.00 140.00" xmlns="http://www.w3.org/2000/svg" xmlns:xlink="http://www.w3.org/1999/xlink">
<g id="graph0" class="graph" transform="scale(1 1) rotate(0) translate(4 136)">
<title>policy.h</title>
<polygon fill="white" stroke="transparent" points="-4,4 -4,-136 472,-136 472,4 -4,4"/>
<!-- Node1 -->
<g id="node1" class="node">
<title>Node1</title>
<g id="a_node1"><a xlink:title=" ">
<polygon fill="#bfbfbf" stroke="black" points="220,-112.5 220,-131.5 273,-131.5 273,-112.5 220,-112.5"/>
<text text-anchor="middle" x="246.5" y="-119.5" font-family="FreeSans" font-size="10.00">policy.h</text>
</a>
</g>
</g>
<!-- Node2 -->
<g id="node2" class="node">
<title>Node2</title>
<g id="a_node2"><a xlink:href="pixel_8h.html" target="_top" xlink:title=" ">
<polygon fill="white" stroke="black" points="143.5,-56.5 143.5,-75.5 231.5,-75.5 231.5,-56.5 143.5,-56.5"/>
<text text-anchor="middle" x="187.5" y="-63.5" font-family="FreeSans" font-size="10.00">magick/pixel.h</text>
</a>
</g>
</g>
<!-- Node1&#45;&gt;Node2 -->
<g id="edge1" class="edge">
<title>Node1&#45;&gt;Node2</title>
<path fill="none" stroke="midnightblue" d="M237.02,-112.32C228.3,-104.34 215.16,-92.31 204.6,-82.65"/>
<polygon fill="midnightblue" stroke="midnightblue" points="206.89,-80 197.15,-75.83 202.17,-85.17 206.89,-80"/>
</g>
<!-- Node5 -->
<g id="node5" class="node">
<title>Node5</title>
<g id="a_node5"><a xlink:href="exception_8h.html" target="_top" xlink:title=" ">
<polygon fill="white" stroke="black" points="250,-56.5 250,-75.5 363,-75.5 363,-56.5 250,-56.5"/>
<text text-anchor="middle" x="306.5" y="-63.5" font-family="FreeSans" font-size="10.00">magick/exception.h</text>
</a>
</g>
</g>
<!-- Node1&#45;&gt;Node5 -->
<g id="edge4" class="edge">
<title>Node1&#45;&gt;Node5</title>
<path fill="none" stroke="midnightblue" d="M256.14,-112.32C265.01,-104.34 278.37,-92.31 289.11,-82.65"/>
<polygon fill="midnightblue" stroke="midnightblue" points="291.59,-85.13 296.68,-75.83 286.91,-79.92 291.59,-85.13"/>
</g>
<!-- Node3 -->
<g id="node3" class="node">
<title>Node3</title>
<g id="a_node3"><a xlink:href="colorspace_8h.html" target="_top" xlink:title=" ">
<polygon fill="white" stroke="black" points="0,-0.5 0,-19.5 117,-19.5 117,-0.5 0,-0.5"/>
<text text-anchor="middle" x="58.5" y="-7.5" font-family="FreeSans" font-size="10.00">magick/colorspace.h</text>
</a>
</g>
</g>
<!-- Node2&#45;&gt;Node3 -->
<g id="edge2" class="edge">
<title>Node2&#45;&gt;Node3</title>
<path fill="none" stroke="midnightblue" d="M167.06,-56.44C145.83,-47.56 112.4,-33.56 88.25,-23.45"/>
<polygon fill="midnightblue" stroke="midnightblue" points="89.42,-20.15 78.84,-19.52 86.72,-26.61 89.42,-20.15"/>
</g>
<!-- Node4 -->
<g id="node4" class="node">
<title>Node4</title>
<g id="a_node4"><a xlink:href="constitute_8h.html" target="_top" xlink:title=" ">
<polygon fill="white" stroke="black" points="135,-0.5 135,-19.5 248,-19.5 248,-0.5 135,-0.5"/>
<text text-anchor="middle" x="191.5" y="-7.5" font-family="FreeSans" font-size="10.00">magick/constitute.h</text>
</a>
</g>
</g>
<!-- Node2&#45;&gt;Node4 -->
<g id="edge3" class="edge">
<title>Node2&#45;&gt;Node4</title>
<path fill="none" stroke="midnightblue" d="M188.16,-56.08C188.68,-49.01 189.44,-38.86 190.09,-29.99"/>
<polygon fill="midnightblue" stroke="midnightblue" points="193.6,-29.98 190.85,-19.75 186.62,-29.47 193.6,-29.98"/>
</g>
<!-- Node6 -->
<g id="node6" class="node">
<title>Node6</title>
<g id="a_node6"><a xlink:title=" ">
<polygon fill="white" stroke="#bfbfbf" points="274.5,-0.5 274.5,-19.5 330.5,-19.5 330.5,-0.5 274.5,-0.5"/>
<text text-anchor="middle" x="302.5" y="-7.5" font-family="FreeSans" font-size="10.00">stdarg.h</text>
</a>
</g>
</g>
<!-- Node5&#45;&gt;Node6 -->
<g id="edge5" class="edge">
<title>Node5&#45;&gt;Node6</title>
<path fill="none" stroke="midnightblue" d="M305.84,-56.08C305.32,-49.01 304.56,-38.86 303.91,-29.99"/>
<polygon fill="midnightblue" stroke="midnightblue" points="307.38,-29.47 303.15,-19.75 300.4,-29.98 307.38,-29.47"/>
</g>
<!-- Node7 -->
<g id="node7" class="node">
<title>Node7</title>
<g id="a_node7"><a xlink:href="semaphore_8h.html" target="_top" xlink:title=" ">
<polygon fill="white" stroke="black" points="349,-0.5 349,-19.5 468,-19.5 468,-0.5 349,-0.5"/>
<text text-anchor="middle" x="408.5" y="-7.5" font-family="FreeSans" font-size="10.00">magick/semaphore.h</text>
</a>
</g>
</g>
<!-- Node5&#45;&gt;Node7 -->
<g id="edge6" class="edge">
<title>Node5&#45;&gt;Node7</title>
<path fill="none" stroke="midnightblue" d="M322.89,-56.32C339.17,-47.7 364.37,-34.36 383.22,-24.39"/>
<polygon fill="midnightblue" stroke="midnightblue" points="384.95,-27.43 392.15,-19.65 381.68,-21.24 384.95,-27.43"/>
</g>
</g>
</svg>
