<?xml version="1.0" encoding="UTF-8" standalone="no"?>
<!DOCTYPE svg PUBLIC "-//W3C//DTD SVG 1.1//EN"
 "http://www.w3.org/Graphics/SVG/1.1/DTD/svg11.dtd">
<!-- Generated by graphviz version 2.43.0 (0)
 -->
<!-- Title: policy.h Pages: 1 -->
<svg width="1554pt" height="140pt"
 viewBox="0.00 0.00 1554.00 140.00" xmlns="http://www.w3.org/2000/svg" xmlns:xlink="http://www.w3.org/1999/xlink">
<g id="graph0" class="graph" transform="scale(1 1) rotate(0) translate(4 136)">
<title>policy.h</title>
<polygon fill="white" stroke="transparent" points="-4,4 -4,-136 1550,-136 1550,4 -4,4"/>
<!-- Node1 -->
<g id="node1" class="node">
<title>Node1</title>
<g id="a_node1"><a xlink:title=" ">
<polygon fill="#bfbfbf" stroke="black" points="839.5,-112.5 839.5,-131.5 892.5,-131.5 892.5,-112.5 839.5,-112.5"/>
<text text-anchor="middle" x="866" y="-119.5" font-family="FreeSans" font-size="10.00">policy.h</text>
</a>
</g>
</g>
<!-- Node2 -->
<g id="node2" class="node">
<title>Node2</title>
<g id="a_node2"><a xlink:href="MagickCore_8h.html" target="_top" xlink:title=" ">
<polygon fill="white" stroke="black" points="89.5,-56.5 89.5,-75.5 172.5,-75.5 172.5,-56.5 89.5,-56.5"/>
<text text-anchor="middle" x="131" y="-63.5" font-family="FreeSans" font-size="10.00">MagickCore.h</text>
</a>
</g>
</g>
<!-- Node1&#45;&gt;Node2 -->
<g id="edge1" class="edge">
<title>Node1&#45;&gt;Node2</title>
<path fill="none" stroke="midnightblue" d="M829.35,-119.99C726.78,-116.88 428.19,-105.73 182,-76 178.97,-75.63 175.84,-75.21 172.69,-74.74"/>
<polygon fill="midnightblue" stroke="midnightblue" points="829.4,-123.5 839.5,-120.3 829.6,-116.5 829.4,-123.5"/>
</g>
<!-- Node6 -->
<g id="node6" class="node">
<title>Node6</title>
<g id="a_node6"><a xlink:href="annotate_8c.html" target="_top" xlink:title=" ">
<polygon fill="white" stroke="black" points="191,-56.5 191,-75.5 259,-75.5 259,-56.5 191,-56.5"/>
<text text-anchor="middle" x="225" y="-63.5" font-family="FreeSans" font-size="10.00">annotate.c</text>
</a>
</g>
</g>
<!-- Node1&#45;&gt;Node6 -->
<g id="edge5" class="edge">
<title>Node1&#45;&gt;Node6</title>
<path fill="none" stroke="midnightblue" d="M829.22,-119.91C735.3,-116.77 479.17,-105.91 268,-76 265.13,-75.59 262.17,-75.11 259.2,-74.58"/>
<polygon fill="midnightblue" stroke="midnightblue" points="829.23,-123.41 839.34,-120.24 829.46,-116.42 829.23,-123.41"/>
</g>
<!-- Node7 -->
<g id="node7" class="node">
<title>Node7</title>
<g id="a_node7"><a xlink:href="blob_8c.html" target="_top" xlink:title=" ">
<polygon fill="white" stroke="black" points="277,-56.5 277,-75.5 323,-75.5 323,-56.5 277,-56.5"/>
<text text-anchor="middle" x="300" y="-63.5" font-family="FreeSans" font-size="10.00">blob.c</text>
</a>
</g>
</g>
<!-- Node1&#45;&gt;Node7 -->
<g id="edge6" class="edge">
<title>Node1&#45;&gt;Node7</title>
<path fill="none" stroke="midnightblue" d="M829.3,-120.2C742.41,-117.8 517.56,-108.68 333,-76 329.84,-75.44 326.55,-74.72 323.32,-73.92"/>
<polygon fill="midnightblue" stroke="midnightblue" points="829.35,-123.7 839.44,-120.46 829.53,-116.7 829.35,-123.7"/>
</g>
<!-- Node8 -->
<g id="node8" class="node">
<title>Node8</title>
<g id="a_node8"><a xlink:href="cache_8c.html" target="_top" xlink:title=" ">
<polygon fill="white" stroke="black" points="341.5,-56.5 341.5,-75.5 394.5,-75.5 394.5,-56.5 341.5,-56.5"/>
<text text-anchor="middle" x="368" y="-63.5" font-family="FreeSans" font-size="10.00">cache.c</text>
</a>
</g>
</g>
<!-- Node1&#45;&gt;Node8 -->
<g id="edge7" class="edge">
<title>Node1&#45;&gt;Node8</title>
<path fill="none" stroke="midnightblue" d="M828.89,-119.25C750.13,-115.13 560.62,-103.05 404,-76 400.95,-75.47 397.78,-74.83 394.64,-74.13"/>
<polygon fill="midnightblue" stroke="midnightblue" points="829.09,-122.77 839.25,-119.78 829.45,-115.77 829.09,-122.77"/>
</g>
<!-- Node9 -->
<g id="node9" class="node">
<title>Node9</title>
<g id="a_node9"><a xlink:href="constitute_8c.html" target="_top" xlink:title=" ">
<polygon fill="white" stroke="black" points="413,-56.5 413,-75.5 487,-75.5 487,-56.5 413,-56.5"/>
<text text-anchor="middle" x="450" y="-63.5" font-family="FreeSans" font-size="10.00">constitute.c</text>
</a>
</g>
</g>
<!-- Node1&#45;&gt;Node9 -->
<g id="edge8" class="edge">
<title>Node1&#45;&gt;Node9</title>
<path fill="none" stroke="midnightblue" d="M829.45,-117.44C762.91,-110.76 617.64,-95.27 496,-76 493.11,-75.54 490.12,-75.03 487.12,-74.5"/>
<polygon fill="midnightblue" stroke="midnightblue" points="829.14,-120.93 839.44,-118.43 829.83,-113.96 829.14,-120.93"/>
</g>
<!-- Node10 -->
<g id="node10" class="node">
<title>Node10</title>
<g id="a_node10"><a xlink:href="delegate_8c.html" target="_top" xlink:title=" ">
<polygon fill="white" stroke="black" points="505,-56.5 505,-75.5 573,-75.5 573,-56.5 505,-56.5"/>
<text text-anchor="middle" x="539" y="-63.5" font-family="FreeSans" font-size="10.00">delegate.c</text>
</a>
</g>
</g>
<!-- Node1&#45;&gt;Node10 -->
<g id="edge9" class="edge">
<title>Node1&#45;&gt;Node10</title>
<path fill="none" stroke="midnightblue" d="M829.14,-115.75C774.88,-107.89 670.38,-92.24 582,-76 579.15,-75.48 576.2,-74.91 573.24,-74.32"/>
<polygon fill="midnightblue" stroke="midnightblue" points="828.9,-119.25 839.3,-117.22 829.9,-112.32 828.9,-119.25"/>
</g>
<!-- Node11 -->
<g id="node11" class="node">
<title>Node11</title>
<g id="a_node11"><a xlink:href="distribute-cache_8c.html" target="_top" xlink:title=" ">
<polygon fill="white" stroke="black" points="591,-56.5 591,-75.5 695,-75.5 695,-56.5 591,-56.5"/>
<text text-anchor="middle" x="643" y="-63.5" font-family="FreeSans" font-size="10.00">distribute&#45;cache.c</text>
</a>
</g>
</g>
<!-- Node1&#45;&gt;Node11 -->
<g id="edge10" class="edge">
<title>Node1&#45;&gt;Node11</title>
<path fill="none" stroke="midnightblue" d="M829.33,-112.12C787.54,-102 719.72,-85.58 678.45,-75.58"/>
<polygon fill="midnightblue" stroke="midnightblue" points="828.56,-115.53 839.1,-114.49 830.21,-108.73 828.56,-115.53"/>
</g>
<!-- Node12 -->
<g id="node12" class="node">
<title>Node12</title>
<g id="a_node12"><a xlink:href="magick_8c.html" target="_top" xlink:title=" ">
<polygon fill="white" stroke="black" points="713.5,-56.5 713.5,-75.5 774.5,-75.5 774.5,-56.5 713.5,-56.5"/>
<text text-anchor="middle" x="744" y="-63.5" font-family="FreeSans" font-size="10.00">magick.c</text>
</a>
</g>
</g>
<!-- Node1&#45;&gt;Node12 -->
<g id="edge11" class="edge">
<title>Node1&#45;&gt;Node12</title>
<path fill="none" stroke="midnightblue" d="M837.46,-108.37C814.61,-98.26 783.19,-84.35 763.24,-75.52"/>
<polygon fill="midnightblue" stroke="midnightblue" points="836.11,-111.6 846.67,-112.44 838.94,-105.2 836.11,-111.6"/>
</g>
<!-- Node13 -->
<g id="node13" class="node">
<title>Node13</title>
<g id="a_node13"><a xlink:href="memory_8c.html" target="_top" xlink:title=" ">
<polygon fill="white" stroke="black" points="792.5,-56.5 792.5,-75.5 857.5,-75.5 857.5,-56.5 792.5,-56.5"/>
<text text-anchor="middle" x="825" y="-63.5" font-family="FreeSans" font-size="10.00">memory.c</text>
</a>
</g>
</g>
<!-- Node1&#45;&gt;Node13 -->
<g id="edge12" class="edge">
<title>Node1&#45;&gt;Node13</title>
<path fill="none" stroke="midnightblue" d="M852.98,-103.86C845.88,-94.5 837.4,-83.33 831.64,-75.75"/>
<polygon fill="midnightblue" stroke="midnightblue" points="850.39,-106.24 859.23,-112.08 855.97,-102 850.39,-106.24"/>
</g>
<!-- Node14 -->
<g id="node14" class="node">
<title>Node14</title>
<g id="a_node14"><a xlink:href="module_8c.html" target="_top" xlink:title=" ">
<polygon fill="white" stroke="black" points="876,-56.5 876,-75.5 938,-75.5 938,-56.5 876,-56.5"/>
<text text-anchor="middle" x="907" y="-63.5" font-family="FreeSans" font-size="10.00">module.c</text>
</a>
</g>
</g>
<!-- Node1&#45;&gt;Node14 -->
<g id="edge13" class="edge">
<title>Node1&#45;&gt;Node14</title>
<path fill="none" stroke="midnightblue" d="M879.02,-103.86C886.12,-94.5 894.6,-83.33 900.36,-75.75"/>
<polygon fill="midnightblue" stroke="midnightblue" points="876.03,-102 872.77,-112.08 881.61,-106.24 876.03,-102"/>
</g>
<!-- Node15 -->
<g id="node15" class="node">
<title>Node15</title>
<g id="a_node15"><a xlink:href="opencl_8c.html" target="_top" xlink:title=" ">
<polygon fill="white" stroke="black" points="956.5,-56.5 956.5,-75.5 1013.5,-75.5 1013.5,-56.5 956.5,-56.5"/>
<text text-anchor="middle" x="985" y="-63.5" font-family="FreeSans" font-size="10.00">opencl.c</text>
</a>
</g>
</g>
<!-- Node1&#45;&gt;Node15 -->
<g id="edge14" class="edge">
<title>Node1&#45;&gt;Node15</title>
<path fill="none" stroke="midnightblue" d="M894.14,-108.23C916.4,-98.13 946.86,-84.31 966.23,-75.52"/>
<polygon fill="midnightblue" stroke="midnightblue" points="892.52,-105.12 884.86,-112.44 895.41,-111.5 892.52,-105.12"/>
</g>
<!-- Node16 -->
<g id="node16" class="node">
<title>Node16</title>
<g id="a_node16"><a xlink:href="option_8c.html" target="_top" xlink:title=" ">
<polygon fill="white" stroke="black" points="1032,-56.5 1032,-75.5 1088,-75.5 1088,-56.5 1032,-56.5"/>
<text text-anchor="middle" x="1060" y="-63.5" font-family="FreeSans" font-size="10.00">option.c</text>
</a>
</g>
</g>
<!-- Node1&#45;&gt;Node16 -->
<g id="edge15" class="edge">
<title>Node1&#45;&gt;Node16</title>
<path fill="none" stroke="midnightblue" d="M902.59,-110.82C940.14,-100.36 997.74,-84.33 1031.87,-74.83"/>
<polygon fill="midnightblue" stroke="midnightblue" points="901.26,-107.55 892.57,-113.6 903.14,-114.29 901.26,-107.55"/>
</g>
<!-- Node17 -->
<g id="node17" class="node">
<title>Node17</title>
<g id="a_node17"><a xlink:href="policy_8c.html" target="_top" xlink:title=" ">
<polygon fill="white" stroke="black" points="1106.5,-56.5 1106.5,-75.5 1159.5,-75.5 1159.5,-56.5 1106.5,-56.5"/>
<text text-anchor="middle" x="1133" y="-63.5" font-family="FreeSans" font-size="10.00">policy.c</text>
</a>
</g>
</g>
<!-- Node1&#45;&gt;Node17 -->
<g id="edge16" class="edge">
<title>Node1&#45;&gt;Node17</title>
<path fill="none" stroke="midnightblue" d="M902.8,-114.45C948.48,-106.17 1028.73,-91.17 1097,-76 1100.02,-75.33 1103.17,-74.59 1106.3,-73.84"/>
<polygon fill="midnightblue" stroke="midnightblue" points="901.99,-111.04 892.77,-116.26 903.23,-117.93 901.99,-111.04"/>
</g>
<!-- Node18 -->
<g id="node18" class="node">
<title>Node18</title>
<g id="a_node18"><a xlink:href="property_8c.html" target="_top" xlink:title=" ">
<polygon fill="white" stroke="black" points="1177.5,-56.5 1177.5,-75.5 1242.5,-75.5 1242.5,-56.5 1177.5,-56.5"/>
<text text-anchor="middle" x="1210" y="-63.5" font-family="FreeSans" font-size="10.00">property.c</text>
</a>
</g>
</g>
<!-- Node1&#45;&gt;Node18 -->
<g id="edge17" class="edge">
<title>Node1&#45;&gt;Node18</title>
<path fill="none" stroke="midnightblue" d="M902.86,-116.36C960.03,-108.97 1073.47,-93.56 1169,-76 1171.72,-75.5 1174.54,-74.95 1177.37,-74.37"/>
<polygon fill="midnightblue" stroke="midnightblue" points="902.33,-112.9 892.85,-117.64 903.22,-119.84 902.33,-112.9"/>
</g>
<!-- Node19 -->
<g id="node19" class="node">
<title>Node19</title>
<g id="a_node19"><a xlink:href="resource_8c.html" target="_top" xlink:title=" ">
<polygon fill="white" stroke="black" points="1260.5,-56.5 1260.5,-75.5 1327.5,-75.5 1327.5,-56.5 1260.5,-56.5"/>
<text text-anchor="middle" x="1294" y="-63.5" font-family="FreeSans" font-size="10.00">resource.c</text>
</a>
</g>
</g>
<!-- Node1&#45;&gt;Node19 -->
<g id="edge18" class="edge">
<title>Node1&#45;&gt;Node19</title>
<path fill="none" stroke="midnightblue" d="M903.14,-117.85C972.14,-111.75 1124.68,-97.01 1252,-76 1254.65,-75.56 1257.38,-75.07 1260.13,-74.55"/>
<polygon fill="midnightblue" stroke="midnightblue" points="902.45,-114.4 892.8,-118.76 903.06,-121.37 902.45,-114.4"/>
</g>
<!-- Node20 -->
<g id="node20" class="node">
<title>Node20</title>
<g id="a_node20"><a xlink:href="static_8c.html" target="_top" xlink:title=" ">
<polygon fill="white" stroke="black" points="1346,-56.5 1346,-75.5 1398,-75.5 1398,-56.5 1346,-56.5"/>
<text text-anchor="middle" x="1372" y="-63.5" font-family="FreeSans" font-size="10.00">static.c</text>
</a>
</g>
</g>
<!-- Node1&#45;&gt;Node20 -->
<g id="edge19" class="edge">
<title>Node1&#45;&gt;Node20</title>
<path fill="none" stroke="midnightblue" d="M902.78,-119.45C982.45,-115.65 1176.71,-104.09 1337,-76 1339.84,-75.5 1342.79,-74.89 1345.72,-74.23"/>
<polygon fill="midnightblue" stroke="midnightblue" points="902.58,-115.95 892.75,-119.91 902.9,-122.94 902.58,-115.95"/>
</g>
<!-- Node21 -->
<g id="node21" class="node">
<title>Node21</title>
<g id="a_node21"><a xlink:href="stream_8c.html" target="_top" xlink:title=" ">
<polygon fill="white" stroke="black" points="1416.5,-56.5 1416.5,-75.5 1475.5,-75.5 1475.5,-56.5 1416.5,-56.5"/>
<text text-anchor="middle" x="1446" y="-63.5" font-family="FreeSans" font-size="10.00">stream.c</text>
</a>
</g>
</g>
<!-- Node1&#45;&gt;Node21 -->
<g id="edge20" class="edge">
<title>Node1&#45;&gt;Node21</title>
<path fill="none" stroke="midnightblue" d="M902.86,-119.76C990.65,-116.42 1218.83,-105.38 1407,-76 1410.02,-75.53 1413.16,-74.95 1416.28,-74.32"/>
<polygon fill="midnightblue" stroke="midnightblue" points="902.48,-116.27 892.62,-120.14 902.74,-123.27 902.48,-116.27"/>
</g>
<!-- Node22 -->
<g id="node22" class="node">
<title>Node22</title>
<g id="a_node22"><a xlink:href="utility_8c.html" target="_top" xlink:title=" ">
<polygon fill="white" stroke="black" points="1494,-56.5 1494,-75.5 1546,-75.5 1546,-56.5 1494,-56.5"/>
<text text-anchor="middle" x="1520" y="-63.5" font-family="FreeSans" font-size="10.00">utility.c</text>
</a>
</g>
</g>
<!-- Node1&#45;&gt;Node22 -->
<g id="edge21" class="edge">
<title>Node1&#45;&gt;Node22</title>
<path fill="none" stroke="midnightblue" d="M902.85,-120.62C999.17,-119.12 1266.18,-111.79 1485,-76 1487.85,-75.53 1490.8,-74.95 1493.73,-74.29"/>
<polygon fill="midnightblue" stroke="midnightblue" points="902.69,-117.12 892.75,-120.76 902.79,-124.12 902.69,-117.12"/>
</g>
<!-- Node3 -->
<g id="node3" class="node">
<title>Node3</title>
<g id="a_node3"><a xlink:href="ImageMagick_8h.html" target="_top" xlink:title=" ">
<polygon fill="white" stroke="black" points="0,-0.5 0,-19.5 92,-19.5 92,-0.5 0,-0.5"/>
<text text-anchor="middle" x="46" y="-7.5" font-family="FreeSans" font-size="10.00">ImageMagick.h</text>
</a>
</g>
</g>
<!-- Node2&#45;&gt;Node3 -->
<g id="edge2" class="edge">
<title>Node2&#45;&gt;Node3</title>
<path fill="none" stroke="midnightblue" d="M108.81,-50.9C93.22,-41 72.87,-28.07 59.62,-19.65"/>
<polygon fill="midnightblue" stroke="midnightblue" points="107.03,-53.92 117.34,-56.32 110.78,-48.01 107.03,-53.92"/>
</g>
<!-- Node4 -->
<g id="node4" class="node">
<title>Node4</title>
<g id="a_node4"><a xlink:href="api_8h.html" target="_top" xlink:title=" ">
<polygon fill="white" stroke="black" points="110.5,-0.5 110.5,-19.5 151.5,-19.5 151.5,-0.5 110.5,-0.5"/>
<text text-anchor="middle" x="131" y="-7.5" font-family="FreeSans" font-size="10.00">api.h</text>
</a>
</g>
</g>
<!-- Node2&#45;&gt;Node4 -->
<g id="edge3" class="edge">
<title>Node2&#45;&gt;Node4</title>
<path fill="none" stroke="midnightblue" d="M131,-45.8C131,-36.91 131,-26.78 131,-19.75"/>
<polygon fill="midnightblue" stroke="midnightblue" points="127.5,-46.08 131,-56.08 134.5,-46.08 127.5,-46.08"/>
</g>
<!-- Node5 -->
<g id="node5" class="node">
<title>Node5</title>
<g id="a_node5"><a xlink:href="image-view_8c.html" target="_top" xlink:title=" ">
<polygon fill="white" stroke="black" points="169.5,-0.5 169.5,-19.5 250.5,-19.5 250.5,-0.5 169.5,-0.5"/>
<text text-anchor="middle" x="210" y="-7.5" font-family="FreeSans" font-size="10.00">image&#45;view.c</text>
</a>
</g>
</g>
<!-- Node2&#45;&gt;Node5 -->
<g id="edge4" class="edge">
<title>Node2&#45;&gt;Node5</title>
<path fill="none" stroke="midnightblue" d="M152.03,-50.62C166.47,-40.76 185.14,-27.99 197.34,-19.65"/>
<polygon fill="midnightblue" stroke="midnightblue" points="149.97,-47.79 143.69,-56.32 153.92,-53.57 149.97,-47.79"/>
</g>
</g>
</svg>
