<?xml version="1.0" encoding="UTF-8" standalone="no"?>
<!DOCTYPE svg PUBLIC "-//W3C//DTD SVG 1.1//EN"
 "http://www.w3.org/Graphics/SVG/1.1/DTD/svg11.dtd">
<!-- Generated by graphviz version 2.43.0 (0)
 -->
<!-- Title: policy.c Pages: 1 -->
<svg width="3259pt" height="252pt"
 viewBox="0.00 0.00 3258.62 252.00" xmlns="http://www.w3.org/2000/svg" xmlns:xlink="http://www.w3.org/1999/xlink">
<g id="graph0" class="graph" transform="scale(1 1) rotate(0) translate(4 248)">
<title>policy.c</title>
<polygon fill="white" stroke="transparent" points="-4,4 -4,-248 3254.62,-248 3254.62,4 -4,4"/>
<!-- Node1 -->
<g id="node1" class="node">
<title>Node1</title>
<g id="a_node1"><a xlink:title=" ">
<polygon fill="#bfbfbf" stroke="black" points="2001.62,-224.5 2001.62,-243.5 2054.62,-243.5 2054.62,-224.5 2001.62,-224.5"/>
<text text-anchor="middle" x="2028.12" y="-231.5" font-family="FreeSans" font-size="10.00">policy.c</text>
</a>
</g>
</g>
<!-- Node2 -->
<g id="node2" class="node">
<title>Node2</title>
<g id="a_node2"><a xlink:href="studio_8h.html" target="_top" xlink:title=" ">
<polygon fill="white" stroke="black" points="846.62,-168.5 846.62,-187.5 941.62,-187.5 941.62,-168.5 846.62,-168.5"/>
<text text-anchor="middle" x="894.12" y="-175.5" font-family="FreeSans" font-size="10.00">magick/studio.h</text>
</a>
</g>
</g>
<!-- Node1&#45;&gt;Node2 -->
<g id="edge1" class="edge">
<title>Node1&#45;&gt;Node2</title>
<path fill="none" stroke="midnightblue" d="M2001.48,-231.73C1856.15,-224.81 1157.95,-191.56 951.64,-181.74"/>
<polygon fill="midnightblue" stroke="midnightblue" points="951.77,-178.24 941.62,-181.26 951.44,-185.23 951.77,-178.24"/>
</g>
<!-- Node24 -->
<g id="node24" class="node">
<title>Node24</title>
<g id="a_node24"><a xlink:href="client_8h.html" target="_top" xlink:title=" ">
<polygon fill="white" stroke="black" points="736.12,-168.5 736.12,-187.5 828.12,-187.5 828.12,-168.5 736.12,-168.5"/>
<text text-anchor="middle" x="782.12" y="-175.5" font-family="FreeSans" font-size="10.00">magick/client.h</text>
</a>
</g>
</g>
<!-- Node1&#45;&gt;Node24 -->
<g id="edge24" class="edge">
<title>Node1&#45;&gt;Node24</title>
<path fill="none" stroke="midnightblue" d="M2001.2,-233.22C1872.77,-234.01 1309.44,-234.57 838.34,-187.98"/>
<polygon fill="midnightblue" stroke="midnightblue" points="838.57,-184.49 828.27,-186.98 837.88,-191.46 838.57,-184.49"/>
</g>
<!-- Node25 -->
<g id="node25" class="node">
<title>Node25</title>
<g id="a_node25"><a xlink:href="configure_8h.html" target="_top" xlink:title=" ">
<polygon fill="white" stroke="black" points="1603.12,-168.5 1603.12,-187.5 1713.12,-187.5 1713.12,-168.5 1603.12,-168.5"/>
<text text-anchor="middle" x="1658.12" y="-175.5" font-family="FreeSans" font-size="10.00">magick/configure.h</text>
</a>
</g>
</g>
<!-- Node1&#45;&gt;Node25 -->
<g id="edge25" class="edge">
<title>Node1&#45;&gt;Node25</title>
<path fill="none" stroke="midnightblue" d="M2001.51,-229.12C1943.77,-220.69 1805.56,-200.52 1723.16,-188.49"/>
<polygon fill="midnightblue" stroke="midnightblue" points="1723.55,-185.01 1713.15,-187.03 1722.54,-191.94 1723.55,-185.01"/>
</g>
<!-- Node27 -->
<g id="node27" class="node">
<title>Node27</title>
<g id="a_node27"><a xlink:href="exception_8h.html" target="_top" xlink:title=" ">
<polygon fill="white" stroke="black" points="1899.62,-56.5 1899.62,-75.5 2012.62,-75.5 2012.62,-56.5 1899.62,-56.5"/>
<text text-anchor="middle" x="1956.12" y="-63.5" font-family="FreeSans" font-size="10.00">magick/exception.h</text>
</a>
</g>
</g>
<!-- Node1&#45;&gt;Node27 -->
<g id="edge27" class="edge">
<title>Node1&#45;&gt;Node27</title>
<path fill="none" stroke="midnightblue" d="M2009.42,-224.47C1995.41,-217 1977.17,-204.72 1968.12,-188 1951.99,-158.24 1966.83,-145.65 1963.12,-112 1962.15,-103.25 1960.7,-93.59 1959.37,-85.48"/>
<polygon fill="midnightblue" stroke="midnightblue" points="1962.81,-84.87 1957.68,-75.6 1955.91,-86.04 1962.81,-84.87"/>
</g>
<!-- Node28 -->
<g id="node28" class="node">
<title>Node28</title>
<g id="a_node28"><a xlink:href="semaphore_8h.html" target="_top" xlink:title=" ">
<polygon fill="white" stroke="black" points="1628.62,-0.5 1628.62,-19.5 1747.62,-19.5 1747.62,-0.5 1628.62,-0.5"/>
<text text-anchor="middle" x="1688.12" y="-7.5" font-family="FreeSans" font-size="10.00">magick/semaphore.h</text>
</a>
</g>
</g>
<!-- Node1&#45;&gt;Node28 -->
<g id="edge56" class="edge">
<title>Node1&#45;&gt;Node28</title>
<path fill="none" stroke="midnightblue" d="M2001.49,-232.69C1770.7,-229.92 115.6,-207.43 46.12,-132 0.48,-82.46 -87.54,-107.48 241.12,-56 511.29,-13.68 1367.69,-10.79 1618.48,-10.88"/>
<polygon fill="midnightblue" stroke="midnightblue" points="1618.55,-14.38 1628.55,-10.88 1618.55,-7.38 1618.55,-14.38"/>
</g>
<!-- Node29 -->
<g id="node29" class="node">
<title>Node29</title>
<g id="a_node29"><a xlink:href="exception-private_8h.html" target="_top" xlink:title=" ">
<polygon fill="white" stroke="black" points="1731.62,-168.5 1731.62,-187.5 1882.62,-187.5 1882.62,-168.5 1731.62,-168.5"/>
<text text-anchor="middle" x="1807.12" y="-175.5" font-family="FreeSans" font-size="10.00">magick/exception&#45;private.h</text>
</a>
</g>
</g>
<!-- Node1&#45;&gt;Node29 -->
<g id="edge30" class="edge">
<title>Node1&#45;&gt;Node29</title>
<path fill="none" stroke="midnightblue" d="M2001.46,-226.49C1964.42,-217.44 1896.9,-200.94 1852.02,-189.97"/>
<polygon fill="midnightblue" stroke="midnightblue" points="1852.79,-186.56 1842.24,-187.58 1851.13,-193.36 1852.79,-186.56"/>
</g>
<!-- Node32 -->
<g id="node32" class="node">
<title>Node32</title>
<g id="a_node32"><a xlink:href="string___8h.html" target="_top" xlink:title=" ">
<polygon fill="white" stroke="black" points="1758.12,-112.5 1758.12,-131.5 1856.12,-131.5 1856.12,-112.5 1758.12,-112.5"/>
<text text-anchor="middle" x="1807.12" y="-119.5" font-family="FreeSans" font-size="10.00">magick/string_.h</text>
</a>
</g>
</g>
<!-- Node1&#45;&gt;Node32 -->
<g id="edge57" class="edge">
<title>Node1&#45;&gt;Node32</title>
<path fill="none" stroke="midnightblue" d="M2010.24,-224.47C1991.48,-215.5 1961.15,-200.91 1935.12,-188 1899.47,-170.33 1858.52,-149.43 1832.73,-136.19"/>
<polygon fill="midnightblue" stroke="midnightblue" points="1834.13,-132.97 1823.63,-131.52 1830.93,-139.2 1834.13,-132.97"/>
</g>
<!-- Node33 -->
<g id="node33" class="node">
<title>Node33</title>
<g id="a_node33"><a xlink:href="locale___8h.html" target="_top" xlink:title=" ">
<polygon fill="white" stroke="black" points="1485.62,-168.5 1485.62,-187.5 1584.62,-187.5 1584.62,-168.5 1485.62,-168.5"/>
<text text-anchor="middle" x="1535.12" y="-175.5" font-family="FreeSans" font-size="10.00">magick/locale_.h</text>
</a>
</g>
</g>
<!-- Node1&#45;&gt;Node33 -->
<g id="edge41" class="edge">
<title>Node1&#45;&gt;Node33</title>
<path fill="none" stroke="midnightblue" d="M2001.15,-230.66C1934.28,-224.76 1755.32,-208.37 1594.73,-188.02"/>
<polygon fill="midnightblue" stroke="midnightblue" points="1595.03,-184.53 1584.67,-186.74 1594.14,-191.47 1595.03,-184.53"/>
</g>
<!-- Node34 -->
<g id="node34" class="node">
<title>Node34</title>
<g id="a_node34"><a xlink:href="memory___8h.html" target="_top" xlink:title=" ">
<polygon fill="white" stroke="black" points="1356.62,-168.5 1356.62,-187.5 1467.62,-187.5 1467.62,-168.5 1356.62,-168.5"/>
<text text-anchor="middle" x="1412.12" y="-175.5" font-family="FreeSans" font-size="10.00">magick/memory_.h</text>
</a>
</g>
</g>
<!-- Node1&#45;&gt;Node34 -->
<g id="edge43" class="edge">
<title>Node1&#45;&gt;Node34</title>
<path fill="none" stroke="midnightblue" d="M2001.35,-231.37C1922.71,-226.48 1685.33,-210.87 1478.1,-188.17"/>
<polygon fill="midnightblue" stroke="midnightblue" points="1478.26,-184.66 1467.94,-187.05 1477.49,-191.62 1478.26,-184.66"/>
</g>
<!-- Node35 -->
<g id="node35" class="node">
<title>Node35</title>
<g id="a_node35"><a xlink:href="monitor_8h.html" target="_top" xlink:title=" ">
<polygon fill="white" stroke="black" points="1977.12,-168.5 1977.12,-187.5 2079.12,-187.5 2079.12,-168.5 1977.12,-168.5"/>
<text text-anchor="middle" x="2028.12" y="-175.5" font-family="FreeSans" font-size="10.00">magick/monitor.h</text>
</a>
</g>
</g>
<!-- Node1&#45;&gt;Node35 -->
<g id="edge46" class="edge">
<title>Node1&#45;&gt;Node35</title>
<path fill="none" stroke="midnightblue" d="M2028.12,-224.08C2028.12,-217.01 2028.12,-206.86 2028.12,-197.99"/>
<polygon fill="midnightblue" stroke="midnightblue" points="2031.62,-197.75 2028.12,-187.75 2024.62,-197.75 2031.62,-197.75"/>
</g>
<!-- Node36 -->
<g id="node36" class="node">
<title>Node36</title>
<g id="a_node36"><a xlink:href="monitor-private_8h.html" target="_top" xlink:title=" ">
<polygon fill="white" stroke="black" points="2097.62,-168.5 2097.62,-187.5 2238.62,-187.5 2238.62,-168.5 2097.62,-168.5"/>
<text text-anchor="middle" x="2168.12" y="-175.5" font-family="FreeSans" font-size="10.00">magick/monitor&#45;private.h</text>
</a>
</g>
</g>
<!-- Node1&#45;&gt;Node36 -->
<g id="edge47" class="edge">
<title>Node1&#45;&gt;Node36</title>
<path fill="none" stroke="midnightblue" d="M2050.3,-224.44C2073.54,-215.48 2110.26,-201.31 2136.53,-191.18"/>
<polygon fill="midnightblue" stroke="midnightblue" points="2137.96,-194.38 2146.04,-187.52 2135.45,-187.85 2137.96,-194.38"/>
</g>
<!-- Node37 -->
<g id="node37" class="node">
<title>Node37</title>
<g id="a_node37"><a xlink:href="option_8h.html" target="_top" xlink:title=" ">
<polygon fill="white" stroke="black" points="2256.62,-168.5 2256.62,-187.5 2351.62,-187.5 2351.62,-168.5 2256.62,-168.5"/>
<text text-anchor="middle" x="2304.12" y="-175.5" font-family="FreeSans" font-size="10.00">magick/option.h</text>
</a>
</g>
</g>
<!-- Node1&#45;&gt;Node37 -->
<g id="edge48" class="edge">
<title>Node1&#45;&gt;Node37</title>
<path fill="none" stroke="midnightblue" d="M2054.83,-227.77C2099.85,-218.97 2191.64,-201.01 2250.4,-189.51"/>
<polygon fill="midnightblue" stroke="midnightblue" points="2251.11,-192.94 2260.25,-187.58 2249.76,-186.07 2251.11,-192.94"/>
</g>
<!-- Node38 -->
<g id="node38" class="node">
<title>Node38</title>
<g id="a_node38"><a xlink:href="policy_8h.html" target="_top" xlink:title=" ">
<polygon fill="white" stroke="black" points="2370.12,-168.5 2370.12,-187.5 2462.12,-187.5 2462.12,-168.5 2370.12,-168.5"/>
<text text-anchor="middle" x="2416.12" y="-175.5" font-family="FreeSans" font-size="10.00">magick/policy.h</text>
</a>
</g>
</g>
<!-- Node1&#45;&gt;Node38 -->
<g id="edge49" class="edge">
<title>Node1&#45;&gt;Node38</title>
<path fill="none" stroke="midnightblue" d="M2054.91,-229.64C2109.98,-222.67 2240.08,-205.93 2359.84,-188.16"/>
<polygon fill="midnightblue" stroke="midnightblue" points="2360.54,-191.59 2369.92,-186.66 2359.51,-184.67 2360.54,-191.59"/>
</g>
<!-- Node42 -->
<g id="node42" class="node">
<title>Node42</title>
<g id="a_node42"><a xlink:href="policy-private_8h.html" target="_top" xlink:title=" ">
<polygon fill="white" stroke="black" points="2480.12,-168.5 2480.12,-187.5 2612.12,-187.5 2612.12,-168.5 2480.12,-168.5"/>
<text text-anchor="middle" x="2546.12" y="-175.5" font-family="FreeSans" font-size="10.00">magick/policy&#45;private.h</text>
</a>
</g>
</g>
<!-- Node1&#45;&gt;Node42 -->
<g id="edge54" class="edge">
<title>Node1&#45;&gt;Node42</title>
<path fill="none" stroke="midnightblue" d="M2054.85,-230.46C2122.41,-223.99 2305.68,-206.22 2469.6,-188.15"/>
<polygon fill="midnightblue" stroke="midnightblue" points="2470.31,-191.59 2479.87,-187.02 2469.55,-184.64 2470.31,-191.59"/>
</g>
<!-- Node43 -->
<g id="node43" class="node">
<title>Node43</title>
<g id="a_node43"><a xlink:href="resource___8h.html" target="_top" xlink:title=" ">
<polygon fill="white" stroke="black" points="2630.12,-168.5 2630.12,-187.5 2742.12,-187.5 2742.12,-168.5 2630.12,-168.5"/>
<text text-anchor="middle" x="2686.12" y="-175.5" font-family="FreeSans" font-size="10.00">magick/resource_.h</text>
</a>
</g>
</g>
<!-- Node1&#45;&gt;Node43 -->
<g id="edge55" class="edge">
<title>Node1&#45;&gt;Node43</title>
<path fill="none" stroke="midnightblue" d="M2054.77,-231.57C2137.16,-227.01 2395.25,-211.81 2619.78,-188.08"/>
<polygon fill="midnightblue" stroke="midnightblue" points="2620.2,-191.56 2629.77,-187.02 2619.46,-184.6 2620.2,-191.56"/>
</g>
<!-- Node44 -->
<g id="node44" class="node">
<title>Node44</title>
<g id="a_node44"><a xlink:href="token_8h.html" target="_top" xlink:title=" ">
<polygon fill="white" stroke="black" points="2760.12,-168.5 2760.12,-187.5 2852.12,-187.5 2852.12,-168.5 2760.12,-168.5"/>
<text text-anchor="middle" x="2806.12" y="-175.5" font-family="FreeSans" font-size="10.00">magick/token.h</text>
</a>
</g>
</g>
<!-- Node1&#45;&gt;Node44 -->
<g id="edge58" class="edge">
<title>Node1&#45;&gt;Node44</title>
<path fill="none" stroke="midnightblue" d="M2054.79,-232.3C2148.6,-229.65 2472.2,-218.79 2749.68,-188.05"/>
<polygon fill="midnightblue" stroke="midnightblue" points="2750.4,-191.49 2759.95,-186.9 2749.62,-184.53 2750.4,-191.49"/>
</g>
<!-- Node45 -->
<g id="node45" class="node">
<title>Node45</title>
<g id="a_node45"><a xlink:href="utility_8h.html" target="_top" xlink:title=" ">
<polygon fill="white" stroke="black" points="2870.12,-168.5 2870.12,-187.5 2962.12,-187.5 2962.12,-168.5 2870.12,-168.5"/>
<text text-anchor="middle" x="2916.12" y="-175.5" font-family="FreeSans" font-size="10.00">magick/utility.h</text>
</a>
</g>
</g>
<!-- Node1&#45;&gt;Node45 -->
<g id="edge59" class="edge">
<title>Node1&#45;&gt;Node45</title>
<path fill="none" stroke="midnightblue" d="M2054.81,-232.61C2157.53,-230.88 2537.17,-222.47 2859.94,-188.01"/>
<polygon fill="midnightblue" stroke="midnightblue" points="2860.38,-191.48 2869.95,-186.93 2859.63,-184.52 2860.38,-191.48"/>
</g>
<!-- Node46 -->
<g id="node46" class="node">
<title>Node46</title>
<g id="a_node46"><a xlink:href="xml-tree_8h.html" target="_top" xlink:title=" ">
<polygon fill="white" stroke="black" points="2980.62,-168.5 2980.62,-187.5 3087.62,-187.5 3087.62,-168.5 2980.62,-168.5"/>
<text text-anchor="middle" x="3034.12" y="-175.5" font-family="FreeSans" font-size="10.00">magick/xml&#45;tree.h</text>
</a>
</g>
</g>
<!-- Node1&#45;&gt;Node46 -->
<g id="edge60" class="edge">
<title>Node1&#45;&gt;Node46</title>
<path fill="none" stroke="midnightblue" d="M2054.81,-232.65C2165.74,-230.98 2601.33,-222.55 2970.46,-187.96"/>
<polygon fill="midnightblue" stroke="midnightblue" points="2970.91,-191.43 2980.54,-187 2970.25,-184.46 2970.91,-191.43"/>
</g>
<!-- Node48 -->
<g id="node48" class="node">
<title>Node48</title>
<g id="a_node48"><a xlink:href="xml-tree-private_8h.html" target="_top" xlink:title=" ">
<polygon fill="white" stroke="black" points="3105.62,-168.5 3105.62,-187.5 3250.62,-187.5 3250.62,-168.5 3105.62,-168.5"/>
<text text-anchor="middle" x="3178.12" y="-175.5" font-family="FreeSans" font-size="10.00">magick/xml&#45;tree&#45;private.h</text>
</a>
</g>
</g>
<!-- Node1&#45;&gt;Node48 -->
<g id="edge63" class="edge">
<title>Node1&#45;&gt;Node48</title>
<path fill="none" stroke="midnightblue" d="M2055.01,-232.55C2175.1,-230.38 2674.56,-219.88 3095.05,-188.11"/>
<polygon fill="midnightblue" stroke="midnightblue" points="3095.57,-191.58 3105.28,-187.33 3095.04,-184.6 3095.57,-191.58"/>
</g>
<!-- Node3 -->
<g id="node3" class="node">
<title>Node3</title>
<g id="a_node3"><a xlink:href="magick-config_8h.html" target="_top" xlink:title=" ">
<polygon fill="white" stroke="black" points="250.12,-56.5 250.12,-75.5 384.12,-75.5 384.12,-56.5 250.12,-56.5"/>
<text text-anchor="middle" x="317.12" y="-63.5" font-family="FreeSans" font-size="10.00">magick/magick&#45;config.h</text>
</a>
</g>
</g>
<!-- Node2&#45;&gt;Node3 -->
<g id="edge2" class="edge">
<title>Node2&#45;&gt;Node3</title>
<path fill="none" stroke="midnightblue" d="M846.55,-169.34C843.36,-168.88 840.19,-168.42 837.12,-168 701.02,-149.28 661.33,-172.68 530.12,-132 511.89,-126.35 509.92,-118.87 492.12,-112 452.96,-96.9 406.93,-85.29 371.91,-77.65"/>
<polygon fill="midnightblue" stroke="midnightblue" points="372.39,-74.17 361.88,-75.5 370.92,-81.02 372.39,-74.17"/>
</g>
<!-- Node5 -->
<g id="node5" class="node">
<title>Node5</title>
<g id="a_node5"><a xlink:title=" ">
<polygon fill="white" stroke="#bfbfbf" points="1805.12,-0.5 1805.12,-19.5 1861.12,-19.5 1861.12,-0.5 1805.12,-0.5"/>
<text text-anchor="middle" x="1833.12" y="-7.5" font-family="FreeSans" font-size="10.00">stdarg.h</text>
</a>
</g>
</g>
<!-- Node2&#45;&gt;Node5 -->
<g id="edge4" class="edge">
<title>Node2&#45;&gt;Node5</title>
<path fill="none" stroke="midnightblue" d="M941.64,-175.13C1044.71,-170.63 1285.77,-157.65 1363.12,-132 1379.39,-126.6 1380.26,-118.53 1396.12,-112 1494.19,-71.59 1524.75,-79.82 1628.12,-56 1686.22,-42.61 1753.8,-27.95 1795,-19.12"/>
<polygon fill="midnightblue" stroke="midnightblue" points="1795.84,-22.52 1804.89,-17 1794.38,-15.67 1795.84,-22.52"/>
</g>
<!-- Node6 -->
<g id="node6" class="node">
<title>Node6</title>
<g id="a_node6"><a xlink:title=" ">
<polygon fill="white" stroke="#bfbfbf" points="625.12,-112.5 625.12,-131.5 675.12,-131.5 675.12,-112.5 625.12,-112.5"/>
<text text-anchor="middle" x="650.12" y="-119.5" font-family="FreeSans" font-size="10.00">stdio.h</text>
</a>
</g>
</g>
<!-- Node2&#45;&gt;Node6 -->
<g id="edge5" class="edge">
<title>Node2&#45;&gt;Node6</title>
<path fill="none" stroke="midnightblue" d="M851.35,-168.46C810.89,-160.24 748.26,-147.16 685.07,-132.14"/>
<polygon fill="midnightblue" stroke="midnightblue" points="685.87,-128.74 675.33,-129.82 684.24,-135.55 685.87,-128.74"/>
</g>
<!-- Node7 -->
<g id="node7" class="node">
<title>Node7</title>
<g id="a_node7"><a xlink:title=" ">
<polygon fill="white" stroke="#bfbfbf" points="693.62,-112.5 693.62,-131.5 746.62,-131.5 746.62,-112.5 693.62,-112.5"/>
<text text-anchor="middle" x="720.12" y="-119.5" font-family="FreeSans" font-size="10.00">ctype.h</text>
</a>
</g>
</g>
<!-- Node2&#45;&gt;Node7 -->
<g id="edge6" class="edge">
<title>Node2&#45;&gt;Node7</title>
<path fill="none" stroke="midnightblue" d="M866.54,-168.44C836.76,-159.2 789.17,-144.43 756.37,-134.25"/>
<polygon fill="midnightblue" stroke="midnightblue" points="757.29,-130.87 746.7,-131.25 755.21,-137.56 757.29,-130.87"/>
</g>
<!-- Node8 -->
<g id="node8" class="node">
<title>Node8</title>
<g id="a_node8"><a xlink:title=" ">
<polygon fill="white" stroke="#bfbfbf" points="764.62,-112.5 764.62,-131.5 819.62,-131.5 819.62,-112.5 764.62,-112.5"/>
<text text-anchor="middle" x="792.12" y="-119.5" font-family="FreeSans" font-size="10.00">locale.h</text>
</a>
</g>
</g>
<!-- Node2&#45;&gt;Node8 -->
<g id="edge7" class="edge">
<title>Node2&#45;&gt;Node8</title>
<path fill="none" stroke="midnightblue" d="M877.73,-168.32C861.44,-159.7 836.25,-146.36 817.4,-136.39"/>
<polygon fill="midnightblue" stroke="midnightblue" points="818.94,-133.24 808.46,-131.65 815.66,-139.43 818.94,-133.24"/>
</g>
<!-- Node9 -->
<g id="node9" class="node">
<title>Node9</title>
<g id="a_node9"><a xlink:title=" ">
<polygon fill="white" stroke="#bfbfbf" points="1522.62,-112.5 1522.62,-131.5 1573.62,-131.5 1573.62,-112.5 1522.62,-112.5"/>
<text text-anchor="middle" x="1548.12" y="-119.5" font-family="FreeSans" font-size="10.00">errno.h</text>
</a>
</g>
</g>
<!-- Node2&#45;&gt;Node9 -->
<g id="edge8" class="edge">
<title>Node2&#45;&gt;Node9</title>
<path fill="none" stroke="midnightblue" d="M941.83,-176.43C1044.55,-174.59 1294.33,-166.77 1512.57,-131.75"/>
<polygon fill="midnightblue" stroke="midnightblue" points="1513.3,-135.18 1522.61,-130.12 1512.18,-128.27 1513.3,-135.18"/>
</g>
<!-- Node10 -->
<g id="node10" class="node">
<title>Node10</title>
<g id="a_node10"><a xlink:title=" ">
<polygon fill="white" stroke="#bfbfbf" points="837.62,-112.5 837.62,-131.5 884.62,-131.5 884.62,-112.5 837.62,-112.5"/>
<text text-anchor="middle" x="861.12" y="-119.5" font-family="FreeSans" font-size="10.00">fcntl.h</text>
</a>
</g>
</g>
<!-- Node2&#45;&gt;Node10 -->
<g id="edge9" class="edge">
<title>Node2&#45;&gt;Node10</title>
<path fill="none" stroke="midnightblue" d="M888.67,-168.08C884.1,-160.61 877.45,-149.72 871.82,-140.52"/>
<polygon fill="midnightblue" stroke="midnightblue" points="874.66,-138.46 866.46,-131.75 868.69,-142.11 874.66,-138.46"/>
</g>
<!-- Node11 -->
<g id="node11" class="node">
<title>Node11</title>
<g id="a_node11"><a xlink:title=" ">
<polygon fill="white" stroke="#bfbfbf" points="902.62,-112.5 902.62,-131.5 953.62,-131.5 953.62,-112.5 902.62,-112.5"/>
<text text-anchor="middle" x="928.12" y="-119.5" font-family="FreeSans" font-size="10.00">math.h</text>
</a>
</g>
</g>
<!-- Node2&#45;&gt;Node11 -->
<g id="edge10" class="edge">
<title>Node2&#45;&gt;Node11</title>
<path fill="none" stroke="midnightblue" d="M899.73,-168.08C904.48,-160.53 911.43,-149.49 917.27,-140.23"/>
<polygon fill="midnightblue" stroke="midnightblue" points="920.24,-142.08 922.61,-131.75 914.32,-138.35 920.24,-142.08"/>
</g>
<!-- Node12 -->
<g id="node12" class="node">
<title>Node12</title>
<g id="a_node12"><a xlink:title=" ">
<polygon fill="white" stroke="#bfbfbf" points="1757.12,-56.5 1757.12,-75.5 1805.12,-75.5 1805.12,-56.5 1757.12,-56.5"/>
<text text-anchor="middle" x="1781.12" y="-63.5" font-family="FreeSans" font-size="10.00">time.h</text>
</a>
</g>
</g>
<!-- Node2&#45;&gt;Node12 -->
<g id="edge11" class="edge">
<title>Node2&#45;&gt;Node12</title>
<path fill="none" stroke="midnightblue" d="M941.91,-174.82C1050.15,-169.54 1311.18,-154.81 1396.12,-132 1416.47,-126.53 1418.83,-117.74 1439.12,-112 1569.04,-75.25 1610.43,-100.99 1747.06,-75.9"/>
<polygon fill="midnightblue" stroke="midnightblue" points="1747.89,-79.31 1757.06,-74.01 1746.59,-72.43 1747.89,-79.31"/>
</g>
<!-- Node13 -->
<g id="node13" class="node">
<title>Node13</title>
<g id="a_node13"><a xlink:title=" ">
<polygon fill="white" stroke="#bfbfbf" points="971.62,-112.5 971.62,-131.5 1024.62,-131.5 1024.62,-112.5 971.62,-112.5"/>
<text text-anchor="middle" x="998.12" y="-119.5" font-family="FreeSans" font-size="10.00">limits.h</text>
</a>
</g>
</g>
<!-- Node2&#45;&gt;Node13 -->
<g id="edge12" class="edge">
<title>Node2&#45;&gt;Node13</title>
<path fill="none" stroke="midnightblue" d="M910.82,-168.32C927.43,-159.7 953.12,-146.36 972.34,-136.39"/>
<polygon fill="midnightblue" stroke="midnightblue" points="974.19,-139.37 981.45,-131.65 970.96,-133.16 974.19,-139.37"/>
</g>
<!-- Node14 -->
<g id="node14" class="node">
<title>Node14</title>
<g id="a_node14"><a xlink:title=" ">
<polygon fill="white" stroke="#bfbfbf" points="1042.62,-112.5 1042.62,-131.5 1097.62,-131.5 1097.62,-112.5 1042.62,-112.5"/>
<text text-anchor="middle" x="1070.12" y="-119.5" font-family="FreeSans" font-size="10.00">signal.h</text>
</a>
</g>
</g>
<!-- Node2&#45;&gt;Node14 -->
<g id="edge13" class="edge">
<title>Node2&#45;&gt;Node14</title>
<path fill="none" stroke="midnightblue" d="M922,-168.44C951.87,-159.28 999.43,-144.69 1032.57,-134.52"/>
<polygon fill="midnightblue" stroke="midnightblue" points="1033.82,-137.8 1042.36,-131.52 1031.77,-131.1 1033.82,-137.8"/>
</g>
<!-- Node15 -->
<g id="node15" class="node">
<title>Node15</title>
<g id="a_node15"><a xlink:title=" ">
<polygon fill="white" stroke="#bfbfbf" points="1448.12,-112.5 1448.12,-131.5 1504.12,-131.5 1504.12,-112.5 1448.12,-112.5"/>
<text text-anchor="middle" x="1476.12" y="-119.5" font-family="FreeSans" font-size="10.00">assert.h</text>
</a>
</g>
</g>
<!-- Node2&#45;&gt;Node15 -->
<g id="edge14" class="edge">
<title>Node2&#45;&gt;Node15</title>
<path fill="none" stroke="midnightblue" d="M941.66,-175.08C1036,-170.83 1253.35,-158.79 1434.12,-132 1435.36,-131.82 1436.62,-131.62 1437.9,-131.4"/>
<polygon fill="midnightblue" stroke="midnightblue" points="1438.54,-134.85 1447.74,-129.6 1437.27,-127.96 1438.54,-134.85"/>
</g>
<!-- Node16 -->
<g id="node16" class="node">
<title>Node16</title>
<g id="a_node16"><a xlink:href="method-attribute_8h.html" target="_top" xlink:title=" ">
<polygon fill="white" stroke="black" points="1116.12,-112.5 1116.12,-131.5 1264.12,-131.5 1264.12,-112.5 1116.12,-112.5"/>
<text text-anchor="middle" x="1190.12" y="-119.5" font-family="FreeSans" font-size="10.00">magick/method&#45;attribute.h</text>
</a>
</g>
</g>
<!-- Node2&#45;&gt;Node16 -->
<g id="edge15" class="edge">
<title>Node2&#45;&gt;Node16</title>
<path fill="none" stroke="midnightblue" d="M941.02,-168.44C993.19,-158.92 1077.49,-143.55 1133.35,-133.36"/>
<polygon fill="midnightblue" stroke="midnightblue" points="1134.22,-136.75 1143.43,-131.52 1132.97,-129.87 1134.22,-136.75"/>
</g>
<!-- Node17 -->
<g id="node17" class="node">
<title>Node17</title>
<g id="a_node17"><a xlink:title=" ">
<polygon fill="white" stroke="#bfbfbf" points="1282.12,-112.5 1282.12,-131.5 1354.12,-131.5 1354.12,-112.5 1282.12,-112.5"/>
<text text-anchor="middle" x="1318.12" y="-119.5" font-family="FreeSans" font-size="10.00">sys/types.h</text>
</a>
</g>
</g>
<!-- Node2&#45;&gt;Node17 -->
<g id="edge16" class="edge">
<title>Node2&#45;&gt;Node17</title>
<path fill="none" stroke="midnightblue" d="M941.85,-172.56C1011.97,-165.76 1147.14,-151.64 1271.71,-132.12"/>
<polygon fill="midnightblue" stroke="midnightblue" points="1272.48,-135.54 1281.81,-130.52 1271.39,-128.62 1272.48,-135.54"/>
</g>
<!-- Node18 -->
<g id="node18" class="node">
<title>Node18</title>
<g id="a_node18"><a xlink:title=" ">
<polygon fill="white" stroke="#bfbfbf" points="199.12,-112.5 199.12,-131.5 263.12,-131.5 263.12,-112.5 199.12,-112.5"/>
<text text-anchor="middle" x="231.12" y="-119.5" font-family="FreeSans" font-size="10.00">sys/stat.h</text>
</a>
</g>
</g>
<!-- Node2&#45;&gt;Node18 -->
<g id="edge17" class="edge">
<title>Node2&#45;&gt;Node18</title>
<path fill="none" stroke="midnightblue" d="M846.57,-169.15C843.38,-168.73 840.2,-168.34 837.12,-168 590.32,-140.71 523.04,-166.38 273.37,-131.95"/>
<polygon fill="midnightblue" stroke="midnightblue" points="273.65,-128.46 263.26,-130.54 272.68,-135.39 273.65,-128.46"/>
</g>
<!-- Node19 -->
<g id="node19" class="node">
<title>Node19</title>
<g id="a_node19"><a xlink:title=" ">
<polygon fill="white" stroke="#bfbfbf" points="281.12,-112.5 281.12,-131.5 335.12,-131.5 335.12,-112.5 281.12,-112.5"/>
<text text-anchor="middle" x="308.12" y="-119.5" font-family="FreeSans" font-size="10.00">dirent.h</text>
</a>
</g>
</g>
<!-- Node2&#45;&gt;Node19 -->
<g id="edge18" class="edge">
<title>Node2&#45;&gt;Node19</title>
<path fill="none" stroke="midnightblue" d="M846.57,-169.19C843.37,-168.76 840.2,-168.36 837.12,-168 622.17,-143.23 562.83,-166.06 345.28,-131.9"/>
<polygon fill="midnightblue" stroke="midnightblue" points="345.56,-128.4 335.14,-130.29 344.46,-135.32 345.56,-128.4"/>
</g>
<!-- Node20 -->
<g id="node20" class="node">
<title>Node20</title>
<g id="a_node20"><a xlink:title=" ">
<polygon fill="white" stroke="#bfbfbf" points="353.12,-112.5 353.12,-131.5 419.12,-131.5 419.12,-112.5 353.12,-112.5"/>
<text text-anchor="middle" x="386.12" y="-119.5" font-family="FreeSans" font-size="10.00">sys/wait.h</text>
</a>
</g>
</g>
<!-- Node2&#45;&gt;Node20 -->
<g id="edge19" class="edge">
<title>Node2&#45;&gt;Node20</title>
<path fill="none" stroke="midnightblue" d="M846.56,-169.24C843.37,-168.8 840.2,-168.38 837.12,-168 659.27,-146.16 610.32,-158.7 429.63,-132.06"/>
<polygon fill="midnightblue" stroke="midnightblue" points="429.93,-128.56 419.52,-130.55 428.89,-135.49 429.93,-128.56"/>
</g>
<!-- Node21 -->
<g id="node21" class="node">
<title>Node21</title>
<g id="a_node21"><a xlink:title=" ">
<polygon fill="white" stroke="#bfbfbf" points="437.12,-112.5 437.12,-131.5 483.12,-131.5 483.12,-112.5 437.12,-112.5"/>
<text text-anchor="middle" x="460.12" y="-119.5" font-family="FreeSans" font-size="10.00">pwd.h</text>
</a>
</g>
</g>
<!-- Node2&#45;&gt;Node21 -->
<g id="edge20" class="edge">
<title>Node2&#45;&gt;Node21</title>
<path fill="none" stroke="midnightblue" d="M846.56,-169.3C843.36,-168.85 840.19,-168.41 837.12,-168 686.46,-148.14 646.83,-158.02 497.12,-132 495.87,-131.78 494.6,-131.55 493.33,-131.3"/>
<polygon fill="midnightblue" stroke="midnightblue" points="494.02,-127.87 483.5,-129.19 492.54,-134.71 494.02,-127.87"/>
</g>
<!-- Node22 -->
<g id="node22" class="node">
<title>Node22</title>
<g id="a_node22"><a xlink:href="magick-type_8h.html" target="_top" xlink:title=" ">
<polygon fill="white" stroke="black" points="55.12,-112.5 55.12,-131.5 181.12,-131.5 181.12,-112.5 55.12,-112.5"/>
<text text-anchor="middle" x="118.12" y="-119.5" font-family="FreeSans" font-size="10.00">magick/magick&#45;type.h</text>
</a>
</g>
</g>
<!-- Node2&#45;&gt;Node22 -->
<g id="edge21" class="edge">
<title>Node2&#45;&gt;Node22</title>
<path fill="none" stroke="midnightblue" d="M846.58,-169.13C843.38,-168.71 840.2,-168.33 837.12,-168 554.09,-137.86 478.71,-157.41 191.61,-132.07"/>
<polygon fill="midnightblue" stroke="midnightblue" points="191.58,-128.55 181.3,-131.15 190.95,-135.52 191.58,-128.55"/>
</g>
<!-- Node23 -->
<g id="node23" class="node">
<title>Node23</title>
<g id="a_node23"><a xlink:title=" ">
<polygon fill="white" stroke="#bfbfbf" points="539.12,-112.5 539.12,-131.5 607.12,-131.5 607.12,-112.5 539.12,-112.5"/>
<text text-anchor="middle" x="573.12" y="-119.5" font-family="FreeSans" font-size="10.00">sys/time.h</text>
</a>
</g>
</g>
<!-- Node2&#45;&gt;Node23 -->
<g id="edge23" class="edge">
<title>Node2&#45;&gt;Node23</title>
<path fill="none" stroke="midnightblue" d="M846.36,-169.39C779.07,-158.66 660.47,-139.66 617.24,-132.09"/>
<polygon fill="midnightblue" stroke="midnightblue" points="617.82,-128.64 607.35,-130.31 616.58,-135.53 617.82,-128.64"/>
</g>
<!-- Node4 -->
<g id="node4" class="node">
<title>Node4</title>
<g id="a_node4"><a xlink:href="magick-baseconfig_8h.html" target="_top" xlink:title=" ">
<polygon fill="white" stroke="black" points="238.62,-0.5 238.62,-19.5 395.62,-19.5 395.62,-0.5 238.62,-0.5"/>
<text text-anchor="middle" x="317.12" y="-7.5" font-family="FreeSans" font-size="10.00">magick/magick&#45;baseconfig.h</text>
</a>
</g>
</g>
<!-- Node3&#45;&gt;Node4 -->
<g id="edge3" class="edge">
<title>Node3&#45;&gt;Node4</title>
<path fill="none" stroke="midnightblue" d="M317.12,-56.08C317.12,-49.01 317.12,-38.86 317.12,-29.99"/>
<polygon fill="midnightblue" stroke="midnightblue" points="320.62,-29.75 317.12,-19.75 313.62,-29.75 320.62,-29.75"/>
</g>
<!-- Node22&#45;&gt;Node3 -->
<g id="edge22" class="edge">
<title>Node22&#45;&gt;Node3</title>
<path fill="none" stroke="midnightblue" d="M149.65,-112.44C183.71,-103.2 238.12,-88.44 275.63,-78.26"/>
<polygon fill="midnightblue" stroke="midnightblue" points="277,-81.51 285.73,-75.52 275.16,-74.76 277,-81.51"/>
</g>
<!-- Node26 -->
<g id="node26" class="node">
<title>Node26</title>
<g id="a_node26"><a xlink:href="hashmap_8h.html" target="_top" xlink:title=" ">
<polygon fill="white" stroke="black" points="1592.12,-112.5 1592.12,-131.5 1702.12,-131.5 1702.12,-112.5 1592.12,-112.5"/>
<text text-anchor="middle" x="1647.12" y="-119.5" font-family="FreeSans" font-size="10.00">magick/hashmap.h</text>
</a>
</g>
</g>
<!-- Node25&#45;&gt;Node26 -->
<g id="edge26" class="edge">
<title>Node25&#45;&gt;Node26</title>
<path fill="none" stroke="midnightblue" d="M1656.3,-168.08C1654.84,-160.93 1652.74,-150.64 1650.92,-141.69"/>
<polygon fill="midnightblue" stroke="midnightblue" points="1654.32,-140.85 1648.9,-131.75 1647.46,-142.25 1654.32,-140.85"/>
</g>
<!-- Node27&#45;&gt;Node5 -->
<g id="edge28" class="edge">
<title>Node27&#45;&gt;Node5</title>
<path fill="none" stroke="midnightblue" d="M1936.63,-56.44C1916.47,-47.6 1884.79,-33.69 1861.78,-23.59"/>
<polygon fill="midnightblue" stroke="midnightblue" points="1863.08,-20.33 1852.51,-19.52 1860.26,-26.74 1863.08,-20.33"/>
</g>
<!-- Node27&#45;&gt;Node28 -->
<g id="edge29" class="edge">
<title>Node27&#45;&gt;Node28</title>
<path fill="none" stroke="midnightblue" d="M1913.65,-56.44C1866.7,-46.98 1791.04,-31.74 1740.46,-21.55"/>
<polygon fill="midnightblue" stroke="midnightblue" points="1740.88,-18.06 1730.38,-19.52 1739.49,-24.92 1740.88,-18.06"/>
</g>
<!-- Node30 -->
<g id="node30" class="node">
<title>Node30</title>
<g id="a_node30"><a xlink:href="log_8h.html" target="_top" xlink:title=" ">
<polygon fill="white" stroke="black" points="1874.12,-112.5 1874.12,-131.5 1954.12,-131.5 1954.12,-112.5 1874.12,-112.5"/>
<text text-anchor="middle" x="1914.12" y="-119.5" font-family="FreeSans" font-size="10.00">magick/log.h</text>
</a>
</g>
</g>
<!-- Node29&#45;&gt;Node30 -->
<g id="edge31" class="edge">
<title>Node29&#45;&gt;Node30</title>
<path fill="none" stroke="midnightblue" d="M1824.31,-168.32C1841.47,-159.66 1868.06,-146.24 1887.86,-136.25"/>
<polygon fill="midnightblue" stroke="midnightblue" points="1889.62,-139.28 1896.97,-131.65 1886.46,-133.04 1889.62,-139.28"/>
</g>
<!-- Node31 -->
<g id="node31" class="node">
<title>Node31</title>
<g id="a_node31"><a xlink:href="magick_8h.html" target="_top" xlink:title=" ">
<polygon fill="white" stroke="black" points="1637.62,-56.5 1637.62,-75.5 1738.62,-75.5 1738.62,-56.5 1637.62,-56.5"/>
<text text-anchor="middle" x="1688.12" y="-63.5" font-family="FreeSans" font-size="10.00">magick/magick.h</text>
</a>
</g>
</g>
<!-- Node29&#45;&gt;Node31 -->
<g id="edge34" class="edge">
<title>Node29&#45;&gt;Node31</title>
<path fill="none" stroke="midnightblue" d="M1794.67,-168.22C1782.61,-159.52 1764.01,-145.56 1749.12,-132 1732.06,-116.47 1714.18,-96.99 1702.22,-83.42"/>
<polygon fill="midnightblue" stroke="midnightblue" points="1704.81,-81.07 1695.61,-75.83 1699.54,-85.66 1704.81,-81.07"/>
</g>
<!-- Node29&#45;&gt;Node32 -->
<g id="edge37" class="edge">
<title>Node29&#45;&gt;Node32</title>
<path fill="none" stroke="midnightblue" d="M1807.12,-168.08C1807.12,-161.01 1807.12,-150.86 1807.12,-141.99"/>
<polygon fill="midnightblue" stroke="midnightblue" points="1810.62,-141.75 1807.12,-131.75 1803.62,-141.75 1810.62,-141.75"/>
</g>
<!-- Node30&#45;&gt;Node5 -->
<g id="edge32" class="edge">
<title>Node30&#45;&gt;Node5</title>
<path fill="none" stroke="midnightblue" d="M1907.76,-112.37C1894.33,-94.14 1862.88,-51.43 1845.39,-27.68"/>
<polygon fill="midnightblue" stroke="midnightblue" points="1848.19,-25.57 1839.44,-19.59 1842.55,-29.72 1848.19,-25.57"/>
</g>
<!-- Node30&#45;&gt;Node27 -->
<g id="edge33" class="edge">
<title>Node30&#45;&gt;Node27</title>
<path fill="none" stroke="midnightblue" d="M1921.05,-112.08C1927.04,-104.38 1935.87,-93.03 1943.16,-83.65"/>
<polygon fill="midnightblue" stroke="midnightblue" points="1945.93,-85.79 1949.31,-75.75 1940.41,-81.5 1945.93,-85.79"/>
</g>
<!-- Node31&#45;&gt;Node5 -->
<g id="edge35" class="edge">
<title>Node31&#45;&gt;Node5</title>
<path fill="none" stroke="midnightblue" d="M1711.09,-56.44C1735.27,-47.44 1773.53,-33.19 1800.76,-23.05"/>
<polygon fill="midnightblue" stroke="midnightblue" points="1802.1,-26.29 1810.25,-19.52 1799.65,-19.73 1802.1,-26.29"/>
</g>
<!-- Node31&#45;&gt;Node28 -->
<g id="edge36" class="edge">
<title>Node31&#45;&gt;Node28</title>
<path fill="none" stroke="midnightblue" d="M1688.12,-56.08C1688.12,-49.01 1688.12,-38.86 1688.12,-29.99"/>
<polygon fill="midnightblue" stroke="midnightblue" points="1691.62,-29.75 1688.12,-19.75 1684.62,-29.75 1691.62,-29.75"/>
</g>
<!-- Node32&#45;&gt;Node5 -->
<g id="edge38" class="edge">
<title>Node32&#45;&gt;Node5</title>
<path fill="none" stroke="midnightblue" d="M1809.16,-112.37C1813.35,-94.62 1823.03,-53.67 1828.72,-29.6"/>
<polygon fill="midnightblue" stroke="midnightblue" points="1832.19,-30.13 1831.08,-19.59 1825.38,-28.52 1832.19,-30.13"/>
</g>
<!-- Node32&#45;&gt;Node12 -->
<g id="edge39" class="edge">
<title>Node32&#45;&gt;Node12</title>
<path fill="none" stroke="midnightblue" d="M1802.82,-112.08C1799.26,-104.69 1794.09,-93.95 1789.69,-84.81"/>
<polygon fill="midnightblue" stroke="midnightblue" points="1792.82,-83.24 1785.33,-75.75 1786.51,-86.28 1792.82,-83.24"/>
</g>
<!-- Node32&#45;&gt;Node27 -->
<g id="edge40" class="edge">
<title>Node32&#45;&gt;Node27</title>
<path fill="none" stroke="midnightblue" d="M1830.72,-112.44C1855.57,-103.44 1894.89,-89.19 1922.87,-79.05"/>
<polygon fill="midnightblue" stroke="midnightblue" points="1924.41,-82.21 1932.62,-75.52 1922.02,-75.63 1924.41,-82.21"/>
</g>
<!-- Node33&#45;&gt;Node26 -->
<g id="edge42" class="edge">
<title>Node33&#45;&gt;Node26</title>
<path fill="none" stroke="midnightblue" d="M1553.11,-168.32C1571.15,-159.62 1599.16,-146.12 1619.92,-136.11"/>
<polygon fill="midnightblue" stroke="midnightblue" points="1621.68,-139.15 1629.16,-131.65 1618.64,-132.84 1621.68,-139.15"/>
</g>
<!-- Node34&#45;&gt;Node9 -->
<g id="edge44" class="edge">
<title>Node34&#45;&gt;Node9</title>
<path fill="none" stroke="midnightblue" d="M1433.66,-168.44C1456.15,-159.52 1491.6,-145.44 1517.09,-135.32"/>
<polygon fill="midnightblue" stroke="midnightblue" points="1518.66,-138.46 1526.67,-131.52 1516.08,-131.95 1518.66,-138.46"/>
</g>
<!-- Node34&#45;&gt;Node15 -->
<g id="edge45" class="edge">
<title>Node34&#45;&gt;Node15</title>
<path fill="none" stroke="midnightblue" d="M1422.4,-168.32C1431.95,-160.26 1446.39,-148.08 1457.9,-138.37"/>
<polygon fill="midnightblue" stroke="midnightblue" points="1460.26,-140.96 1465.65,-131.83 1455.75,-135.61 1460.26,-140.96"/>
</g>
<!-- Node38&#45;&gt;Node27 -->
<g id="edge53" class="edge">
<title>Node38&#45;&gt;Node27</title>
<path fill="none" stroke="midnightblue" d="M2380.4,-168.46C2297.69,-148.68 2093.1,-99.76 2001.61,-77.88"/>
<polygon fill="midnightblue" stroke="midnightblue" points="2002.34,-74.46 1991.8,-75.53 2000.72,-81.26 2002.34,-74.46"/>
</g>
<!-- Node39 -->
<g id="node39" class="node">
<title>Node39</title>
<g id="a_node39"><a xlink:href="pixel_8h.html" target="_top" xlink:title=" ">
<polygon fill="white" stroke="black" points="2372.12,-112.5 2372.12,-131.5 2460.12,-131.5 2460.12,-112.5 2372.12,-112.5"/>
<text text-anchor="middle" x="2416.12" y="-119.5" font-family="FreeSans" font-size="10.00">magick/pixel.h</text>
</a>
</g>
</g>
<!-- Node38&#45;&gt;Node39 -->
<g id="edge50" class="edge">
<title>Node38&#45;&gt;Node39</title>
<path fill="none" stroke="midnightblue" d="M2416.12,-168.08C2416.12,-161.01 2416.12,-150.86 2416.12,-141.99"/>
<polygon fill="midnightblue" stroke="midnightblue" points="2419.62,-141.75 2416.12,-131.75 2412.62,-141.75 2419.62,-141.75"/>
</g>
<!-- Node40 -->
<g id="node40" class="node">
<title>Node40</title>
<g id="a_node40"><a xlink:href="colorspace_8h.html" target="_top" xlink:title=" ">
<polygon fill="white" stroke="black" points="2290.62,-56.5 2290.62,-75.5 2407.62,-75.5 2407.62,-56.5 2290.62,-56.5"/>
<text text-anchor="middle" x="2349.12" y="-63.5" font-family="FreeSans" font-size="10.00">magick/colorspace.h</text>
</a>
</g>
</g>
<!-- Node39&#45;&gt;Node40 -->
<g id="edge51" class="edge">
<title>Node39&#45;&gt;Node40</title>
<path fill="none" stroke="midnightblue" d="M2405.35,-112.32C2395.35,-104.26 2380.23,-92.08 2368.18,-82.37"/>
<polygon fill="midnightblue" stroke="midnightblue" points="2370.06,-79.38 2360.08,-75.83 2365.67,-84.83 2370.06,-79.38"/>
</g>
<!-- Node41 -->
<g id="node41" class="node">
<title>Node41</title>
<g id="a_node41"><a xlink:href="constitute_8h.html" target="_top" xlink:title=" ">
<polygon fill="white" stroke="black" points="2425.62,-56.5 2425.62,-75.5 2538.62,-75.5 2538.62,-56.5 2425.62,-56.5"/>
<text text-anchor="middle" x="2482.12" y="-63.5" font-family="FreeSans" font-size="10.00">magick/constitute.h</text>
</a>
</g>
</g>
<!-- Node39&#45;&gt;Node41 -->
<g id="edge52" class="edge">
<title>Node39&#45;&gt;Node41</title>
<path fill="none" stroke="midnightblue" d="M2426.72,-112.32C2436.57,-104.26 2451.47,-92.08 2463.33,-82.37"/>
<polygon fill="midnightblue" stroke="midnightblue" points="2465.79,-84.88 2471.32,-75.83 2461.36,-79.46 2465.79,-84.88"/>
</g>
<!-- Node46&#45;&gt;Node27 -->
<g id="edge61" class="edge">
<title>Node46&#45;&gt;Node27</title>
<path fill="none" stroke="midnightblue" d="M2980.54,-169.04C2977.35,-168.66 2974.19,-168.31 2971.12,-168 2701.79,-140.84 2632.21,-161.38 2363.12,-132 2235.98,-118.12 2087.99,-91.94 2010.23,-77.4"/>
<polygon fill="midnightblue" stroke="midnightblue" points="2010.66,-73.92 2000.19,-75.51 2009.37,-80.8 2010.66,-73.92"/>
</g>
<!-- Node47 -->
<g id="node47" class="node">
<title>Node47</title>
<g id="a_node47"><a xlink:href="splay-tree_8h.html" target="_top" xlink:title=" ">
<polygon fill="white" stroke="black" points="2977.12,-112.5 2977.12,-131.5 3091.12,-131.5 3091.12,-112.5 2977.12,-112.5"/>
<text text-anchor="middle" x="3034.12" y="-119.5" font-family="FreeSans" font-size="10.00">magick/splay&#45;tree.h</text>
</a>
</g>
</g>
<!-- Node46&#45;&gt;Node47 -->
<g id="edge62" class="edge">
<title>Node46&#45;&gt;Node47</title>
<path fill="none" stroke="midnightblue" d="M3034.12,-168.08C3034.12,-161.01 3034.12,-150.86 3034.12,-141.99"/>
<polygon fill="midnightblue" stroke="midnightblue" points="3037.62,-141.75 3034.12,-131.75 3030.62,-141.75 3037.62,-141.75"/>
</g>
</g>
</svg>
