<?xml version="1.0" encoding="UTF-8" standalone="no"?>
<!DOCTYPE svg PUBLIC "-//W3C//DTD SVG 1.1//EN"
 "http://www.w3.org/Graphics/SVG/1.1/DTD/svg11.dtd">
<!-- Generated by graphviz version 2.43.0 (0)
 -->
<!-- Title: prepress.c Pages: 1 -->
<svg width="3382pt" height="252pt"
 viewBox="0.00 0.00 3381.50 252.00" xmlns="http://www.w3.org/2000/svg" xmlns:xlink="http://www.w3.org/1999/xlink">
<g id="graph0" class="graph" transform="scale(1 1) rotate(0) translate(4 248)">
<title>prepress.c</title>
<polygon fill="white" stroke="transparent" points="-4,4 -4,-248 3377.5,-248 3377.5,4 -4,4"/>
<!-- Node1 -->
<g id="node1" class="node">
<title>Node1</title>
<g id="a_node1"><a xlink:title=" ">
<polygon fill="#bfbfbf" stroke="black" points="2498,-224.5 2498,-243.5 2565,-243.5 2565,-224.5 2498,-224.5"/>
<text text-anchor="middle" x="2531.5" y="-231.5" font-family="FreeSans" font-size="10.00">prepress.c</text>
</a>
</g>
</g>
<!-- Node2 -->
<g id="node2" class="node">
<title>Node2</title>
<g id="a_node2"><a xlink:href="studio_8h.html" target="_top" xlink:title=" ">
<polygon fill="white" stroke="black" points="896,-168.5 896,-187.5 991,-187.5 991,-168.5 896,-168.5"/>
<text text-anchor="middle" x="943.5" y="-175.5" font-family="FreeSans" font-size="10.00">magick/studio.h</text>
</a>
</g>
</g>
<!-- Node1&#45;&gt;Node2 -->
<g id="edge1" class="edge">
<title>Node1&#45;&gt;Node2</title>
<path fill="none" stroke="midnightblue" d="M2497.97,-231.86C2297.6,-225.05 1258.67,-189.72 1001.25,-180.96"/>
<polygon fill="midnightblue" stroke="midnightblue" points="1001.12,-177.46 991,-180.62 1000.88,-184.45 1001.12,-177.46"/>
</g>
<!-- Node24 -->
<g id="node23" class="node">
<title>Node24</title>
<g id="a_node23"><a xlink:href="cache-view_8h.html" target="_top" xlink:title=" ">
<polygon fill="white" stroke="black" points="2966,-112.5 2966,-131.5 3085,-131.5 3085,-112.5 2966,-112.5"/>
<text text-anchor="middle" x="3025.5" y="-119.5" font-family="FreeSans" font-size="10.00">magick/cache&#45;view.h</text>
</a>
</g>
</g>
<!-- Node1&#45;&gt;Node24 -->
<g id="edge23" class="edge">
<title>Node1&#45;&gt;Node24</title>
<path fill="none" stroke="midnightblue" d="M2559.25,-224.42C2603.14,-211.07 2691.41,-185.07 2767.5,-168 2831.34,-153.67 2904.94,-141.24 2957.14,-133.09"/>
<polygon fill="midnightblue" stroke="midnightblue" points="2957.94,-136.51 2967.29,-131.52 2956.87,-129.59 2957.94,-136.51"/>
</g>
<!-- Node28 -->
<g id="node26" class="node">
<title>Node28</title>
<g id="a_node26"><a xlink:href="exception_8h.html" target="_top" xlink:title=" ">
<polygon fill="white" stroke="black" points="1627,-56.5 1627,-75.5 1740,-75.5 1740,-56.5 1627,-56.5"/>
<text text-anchor="middle" x="1683.5" y="-63.5" font-family="FreeSans" font-size="10.00">magick/exception.h</text>
</a>
</g>
</g>
<!-- Node1&#45;&gt;Node28 -->
<g id="edge26" class="edge">
<title>Node1&#45;&gt;Node28</title>
<path fill="none" stroke="midnightblue" d="M2497.67,-232.8C2381.01,-231.77 1996.3,-225.54 1879.5,-188 1841.99,-175.94 1746.11,-110.76 1703.93,-81.38"/>
<polygon fill="midnightblue" stroke="midnightblue" points="1705.76,-78.39 1695.56,-75.52 1701.75,-84.12 1705.76,-78.39"/>
</g>
<!-- Node29 -->
<g id="node27" class="node">
<title>Node29</title>
<g id="a_node27"><a xlink:href="semaphore_8h.html" target="_top" xlink:title=" ">
<polygon fill="white" stroke="black" points="1788,-0.5 1788,-19.5 1907,-19.5 1907,-0.5 1788,-0.5"/>
<text text-anchor="middle" x="1847.5" y="-7.5" font-family="FreeSans" font-size="10.00">magick/semaphore.h</text>
</a>
</g>
</g>
<!-- Node1&#45;&gt;Node29 -->
<g id="edge69" class="edge">
<title>Node1&#45;&gt;Node29</title>
<path fill="none" stroke="midnightblue" d="M2497.75,-233.37C2374.1,-233.95 1948.7,-228.77 1865.5,-132 1843.47,-106.38 1874.51,-89.05 1867.5,-56 1865.5,-46.59 1861.4,-36.76 1857.43,-28.7"/>
<polygon fill="midnightblue" stroke="midnightblue" points="1860.39,-26.81 1852.63,-19.59 1854.19,-30.07 1860.39,-26.81"/>
</g>
<!-- Node30 -->
<g id="node28" class="node">
<title>Node30</title>
<g id="a_node28"><a xlink:href="exception-private_8h.html" target="_top" xlink:title=" ">
<polygon fill="white" stroke="black" points="1524,-168.5 1524,-187.5 1675,-187.5 1675,-168.5 1524,-168.5"/>
<text text-anchor="middle" x="1599.5" y="-175.5" font-family="FreeSans" font-size="10.00">magick/exception&#45;private.h</text>
</a>
</g>
</g>
<!-- Node1&#45;&gt;Node30 -->
<g id="edge29" class="edge">
<title>Node1&#45;&gt;Node30</title>
<path fill="none" stroke="midnightblue" d="M2497.97,-231.85C2385.07,-227.85 2008.31,-213.4 1685.05,-188"/>
<polygon fill="midnightblue" stroke="midnightblue" points="1685.27,-184.5 1675.02,-187.2 1684.72,-191.48 1685.27,-184.5"/>
</g>
<!-- Node33 -->
<g id="node31" class="node">
<title>Node33</title>
<g id="a_node31"><a xlink:href="string___8h.html" target="_top" xlink:title=" ">
<polygon fill="white" stroke="black" points="1537.5,-112.5 1537.5,-131.5 1635.5,-131.5 1635.5,-112.5 1537.5,-112.5"/>
<text text-anchor="middle" x="1586.5" y="-119.5" font-family="FreeSans" font-size="10.00">magick/string_.h</text>
</a>
</g>
</g>
<!-- Node1&#45;&gt;Node33 -->
<g id="edge71" class="edge">
<title>Node1&#45;&gt;Node33</title>
<path fill="none" stroke="midnightblue" d="M2497.78,-232.8C2325.4,-231.62 1549.24,-224.32 1514.5,-188 1496.07,-168.73 1527.98,-148.44 1555.01,-135.75"/>
<polygon fill="midnightblue" stroke="midnightblue" points="1556.58,-138.88 1564.28,-131.6 1553.72,-132.49 1556.58,-138.88"/>
</g>
<!-- Node34 -->
<g id="node32" class="node">
<title>Node34</title>
<g id="a_node32"><a xlink:href="hashmap_8h.html" target="_top" xlink:title=" ">
<polygon fill="white" stroke="black" points="3136.5,-56.5 3136.5,-75.5 3246.5,-75.5 3246.5,-56.5 3136.5,-56.5"/>
<text text-anchor="middle" x="3191.5" y="-63.5" font-family="FreeSans" font-size="10.00">magick/hashmap.h</text>
</a>
</g>
</g>
<!-- Node1&#45;&gt;Node34 -->
<g id="edge40" class="edge">
<title>Node1&#45;&gt;Node34</title>
<path fill="none" stroke="midnightblue" d="M2565.06,-227.15C2606.95,-219.55 2680.61,-205.2 2742.5,-188 2768.77,-180.7 2773.83,-173.68 2800.5,-168 2845.34,-158.46 3180.53,-165.8 3211.5,-132 3223.54,-118.86 3214.43,-98.62 3204.92,-84.22"/>
<polygon fill="midnightblue" stroke="midnightblue" points="3207.51,-81.82 3198.84,-75.73 3201.82,-85.9 3207.51,-81.82"/>
</g>
<!-- Node35 -->
<g id="node33" class="node">
<title>Node35</title>
<g id="a_node33"><a xlink:href="image_8h.html" target="_top" xlink:title=" ">
<polygon fill="white" stroke="red" points="2431,-168.5 2431,-187.5 2526,-187.5 2526,-168.5 2431,-168.5"/>
<text text-anchor="middle" x="2478.5" y="-175.5" font-family="FreeSans" font-size="10.00">magick/image.h</text>
</a>
</g>
</g>
<!-- Node1&#45;&gt;Node35 -->
<g id="edge41" class="edge">
<title>Node1&#45;&gt;Node35</title>
<path fill="none" stroke="midnightblue" d="M2522.75,-224.08C2515.03,-216.22 2503.6,-204.57 2494.28,-195.08"/>
<polygon fill="midnightblue" stroke="midnightblue" points="2496.59,-192.44 2487.09,-187.75 2491.6,-197.34 2496.59,-192.44"/>
</g>
<!-- Node53 -->
<g id="node43" class="node">
<title>Node53</title>
<g id="a_node43"><a xlink:href="list_8h.html" target="_top" xlink:title=" ">
<polygon fill="white" stroke="black" points="2544.5,-168.5 2544.5,-187.5 2624.5,-187.5 2624.5,-168.5 2544.5,-168.5"/>
<text text-anchor="middle" x="2584.5" y="-175.5" font-family="FreeSans" font-size="10.00">magick/list.h</text>
</a>
</g>
</g>
<!-- Node1&#45;&gt;Node53 -->
<g id="edge59" class="edge">
<title>Node1&#45;&gt;Node53</title>
<path fill="none" stroke="midnightblue" d="M2540.25,-224.08C2547.97,-216.22 2559.4,-204.57 2568.72,-195.08"/>
<polygon fill="midnightblue" stroke="midnightblue" points="2571.4,-197.34 2575.91,-187.75 2566.41,-192.44 2571.4,-197.34"/>
</g>
<!-- Node54 -->
<g id="node44" class="node">
<title>Node54</title>
<g id="a_node44"><a xlink:href="memory___8h.html" target="_top" xlink:title=" ">
<polygon fill="white" stroke="black" points="1356,-168.5 1356,-187.5 1467,-187.5 1467,-168.5 1356,-168.5"/>
<text text-anchor="middle" x="1411.5" y="-175.5" font-family="FreeSans" font-size="10.00">magick/memory_.h</text>
</a>
</g>
</g>
<!-- Node1&#45;&gt;Node54 -->
<g id="edge60" class="edge">
<title>Node1&#45;&gt;Node54</title>
<path fill="none" stroke="midnightblue" d="M2497.89,-232.6C2367.22,-230.82 1880.54,-222.14 1481.5,-188 1480.2,-187.89 1478.88,-187.77 1477.55,-187.65"/>
<polygon fill="midnightblue" stroke="midnightblue" points="1477.54,-184.13 1467.24,-186.6 1476.83,-191.09 1477.54,-184.13"/>
</g>
<!-- Node55 -->
<g id="node45" class="node">
<title>Node55</title>
<g id="a_node45"><a xlink:href="pixel-accessor_8h.html" target="_top" xlink:title=" ">
<polygon fill="white" stroke="red" points="1693.5,-168.5 1693.5,-187.5 1827.5,-187.5 1827.5,-168.5 1693.5,-168.5"/>
<text text-anchor="middle" x="1760.5" y="-175.5" font-family="FreeSans" font-size="10.00">magick/pixel&#45;accessor.h</text>
</a>
</g>
</g>
<!-- Node1&#45;&gt;Node55 -->
<g id="edge63" class="edge">
<title>Node1&#45;&gt;Node55</title>
<path fill="none" stroke="midnightblue" d="M2497.71,-231.34C2397.5,-226.31 2093.22,-210.18 1841.5,-188 1840.23,-187.89 1838.95,-187.77 1837.66,-187.66"/>
<polygon fill="midnightblue" stroke="midnightblue" points="1837.95,-184.17 1827.66,-186.7 1837.28,-191.13 1837.95,-184.17"/>
</g>
<!-- Node61 -->
<g id="node46" class="node">
<title>Node61</title>
<g id="a_node46"><a xlink:href="prepress_8h.html" target="_top" xlink:title=" ">
<polygon fill="white" stroke="black" points="2810,-168.5 2810,-187.5 2917,-187.5 2917,-168.5 2810,-168.5"/>
<text text-anchor="middle" x="2863.5" y="-175.5" font-family="FreeSans" font-size="10.00">magick/prepress.h</text>
</a>
</g>
</g>
<!-- Node1&#45;&gt;Node61 -->
<g id="edge66" class="edge">
<title>Node1&#45;&gt;Node61</title>
<path fill="none" stroke="midnightblue" d="M2565.16,-227.53C2620.39,-218.54 2731.08,-200.54 2801,-189.17"/>
<polygon fill="midnightblue" stroke="midnightblue" points="2801.7,-192.6 2811.01,-187.54 2800.58,-185.69 2801.7,-192.6"/>
</g>
<!-- Node62 -->
<g id="node47" class="node">
<title>Node62</title>
<g id="a_node47"><a xlink:href="registry_8h.html" target="_top" xlink:title=" ">
<polygon fill="white" stroke="black" points="2935,-168.5 2935,-187.5 3036,-187.5 3036,-168.5 2935,-168.5"/>
<text text-anchor="middle" x="2985.5" y="-175.5" font-family="FreeSans" font-size="10.00">magick/registry.h</text>
</a>
</g>
</g>
<!-- Node1&#45;&gt;Node62 -->
<g id="edge67" class="edge">
<title>Node1&#45;&gt;Node62</title>
<path fill="none" stroke="midnightblue" d="M2565.02,-229.57C2631.46,-222.69 2784.82,-206.39 2924.73,-188.06"/>
<polygon fill="midnightblue" stroke="midnightblue" points="2925.32,-191.51 2934.78,-186.74 2924.41,-184.57 2925.32,-191.51"/>
</g>
<!-- Node63 -->
<g id="node48" class="node">
<title>Node63</title>
<g id="a_node48"><a xlink:href="resource___8h.html" target="_top" xlink:title=" ">
<polygon fill="white" stroke="black" points="3258.5,-112.5 3258.5,-131.5 3370.5,-131.5 3370.5,-112.5 3258.5,-112.5"/>
<text text-anchor="middle" x="3314.5" y="-119.5" font-family="FreeSans" font-size="10.00">magick/resource_.h</text>
</a>
</g>
</g>
<!-- Node1&#45;&gt;Node63 -->
<g id="edge68" class="edge">
<title>Node1&#45;&gt;Node63</title>
<path fill="none" stroke="midnightblue" d="M2565.08,-231.74C2664.14,-227.76 2953.87,-214.13 3044.5,-188 3063.22,-182.6 3065.09,-174.37 3083.5,-168 3113.87,-157.49 3194.14,-142.91 3251.51,-133.22"/>
<polygon fill="midnightblue" stroke="midnightblue" points="3252.3,-136.64 3261.59,-131.53 3251.14,-129.74 3252.3,-136.64"/>
</g>
<!-- Node64 -->
<g id="node49" class="node">
<title>Node64</title>
<g id="a_node49"><a xlink:href="splay-tree_8h.html" target="_top" xlink:title=" ">
<polygon fill="white" stroke="black" points="3092.5,-168.5 3092.5,-187.5 3206.5,-187.5 3206.5,-168.5 3092.5,-168.5"/>
<text text-anchor="middle" x="3149.5" y="-175.5" font-family="FreeSans" font-size="10.00">magick/splay&#45;tree.h</text>
</a>
</g>
</g>
<!-- Node1&#45;&gt;Node64 -->
<g id="edge70" class="edge">
<title>Node1&#45;&gt;Node64</title>
<path fill="none" stroke="midnightblue" d="M2565.16,-230.75C2650.9,-224.9 2884.46,-208.27 3078.5,-188 3079.61,-187.88 3080.73,-187.76 3081.86,-187.64"/>
<polygon fill="midnightblue" stroke="midnightblue" points="3082.63,-191.08 3092.17,-186.49 3081.85,-184.12 3082.63,-191.08"/>
</g>
<!-- Node65 -->
<g id="node50" class="node">
<title>Node65</title>
<g id="a_node50"><a xlink:href="thread-private_8h.html" target="_top" xlink:title=" ">
<polygon fill="white" stroke="red" points="3239.5,-168.5 3239.5,-187.5 3373.5,-187.5 3373.5,-168.5 3239.5,-168.5"/>
<text text-anchor="middle" x="3306.5" y="-175.5" font-family="FreeSans" font-size="10.00">magick/thread&#45;private.h</text>
</a>
</g>
</g>
<!-- Node1&#45;&gt;Node65 -->
<g id="edge72" class="edge">
<title>Node1&#45;&gt;Node65</title>
<path fill="none" stroke="midnightblue" d="M2565.34,-231.17C2665,-225.69 2966.13,-208.53 3215.5,-188 3219.98,-187.63 3224.59,-187.23 3229.23,-186.82"/>
<polygon fill="midnightblue" stroke="midnightblue" points="3229.79,-190.28 3239.43,-185.89 3229.16,-183.31 3229.79,-190.28"/>
</g>
<!-- Node3 -->
<g id="node3" class="node">
<title>Node3</title>
<g id="a_node3"><a xlink:href="magick-config_8h.html" target="_top" xlink:title=" ">
<polygon fill="white" stroke="red" points="850.5,-56.5 850.5,-75.5 984.5,-75.5 984.5,-56.5 850.5,-56.5"/>
<text text-anchor="middle" x="917.5" y="-63.5" font-family="FreeSans" font-size="10.00">magick/magick&#45;config.h</text>
</a>
</g>
</g>
<!-- Node2&#45;&gt;Node3 -->
<g id="edge2" class="edge">
<title>Node2&#45;&gt;Node3</title>
<path fill="none" stroke="midnightblue" d="M953.34,-168.17C966.03,-155.68 985.35,-132.11 975.5,-112 968.98,-98.68 956.4,-88.18 944.63,-80.68"/>
<polygon fill="midnightblue" stroke="midnightblue" points="946.28,-77.59 935.89,-75.53 942.73,-83.62 946.28,-77.59"/>
</g>
<!-- Node5 -->
<g id="node4" class="node">
<title>Node5</title>
<g id="a_node4"><a xlink:title=" ">
<polygon fill="white" stroke="#bfbfbf" points="1570.5,-0.5 1570.5,-19.5 1626.5,-19.5 1626.5,-0.5 1570.5,-0.5"/>
<text text-anchor="middle" x="1598.5" y="-7.5" font-family="FreeSans" font-size="10.00">stdarg.h</text>
</a>
</g>
</g>
<!-- Node2&#45;&gt;Node5 -->
<g id="edge3" class="edge">
<title>Node2&#45;&gt;Node5</title>
<path fill="none" stroke="midnightblue" d="M983.95,-168.44C1016.05,-160.91 1061.67,-148.57 1099.5,-132 1115.21,-125.12 1116.87,-119.06 1132.5,-112 1208.48,-77.7 1230.33,-74.95 1311.5,-56 1399.4,-35.48 1504.66,-21.66 1560.05,-15.2"/>
<polygon fill="midnightblue" stroke="midnightblue" points="1560.59,-18.66 1570.12,-14.04 1559.79,-11.7 1560.59,-18.66"/>
</g>
<!-- Node6 -->
<g id="node5" class="node">
<title>Node6</title>
<g id="a_node5"><a xlink:title=" ">
<polygon fill="white" stroke="#bfbfbf" points="1184.5,-112.5 1184.5,-131.5 1234.5,-131.5 1234.5,-112.5 1184.5,-112.5"/>
<text text-anchor="middle" x="1209.5" y="-119.5" font-family="FreeSans" font-size="10.00">stdio.h</text>
</a>
</g>
</g>
<!-- Node2&#45;&gt;Node6 -->
<g id="edge4" class="edge">
<title>Node2&#45;&gt;Node6</title>
<path fill="none" stroke="midnightblue" d="M988.81,-168.45C1034.69,-159.69 1107.65,-145.48 1170.5,-132 1171.76,-131.73 1173.04,-131.45 1174.34,-131.17"/>
<polygon fill="midnightblue" stroke="midnightblue" points="1175.36,-134.53 1184.35,-128.92 1173.83,-127.7 1175.36,-134.53"/>
</g>
<!-- Node7 -->
<g id="node6" class="node">
<title>Node7</title>
<g id="a_node6"><a xlink:title=" ">
<polygon fill="white" stroke="#bfbfbf" points="1253,-112.5 1253,-131.5 1306,-131.5 1306,-112.5 1253,-112.5"/>
<text text-anchor="middle" x="1279.5" y="-119.5" font-family="FreeSans" font-size="10.00">ctype.h</text>
</a>
</g>
</g>
<!-- Node2&#45;&gt;Node7 -->
<g id="edge5" class="edge">
<title>Node2&#45;&gt;Node7</title>
<path fill="none" stroke="midnightblue" d="M991.03,-171.3C1048.36,-164.12 1147.83,-150.63 1242.77,-131.97"/>
<polygon fill="midnightblue" stroke="midnightblue" points="1243.7,-135.35 1252.83,-129.97 1242.34,-128.49 1243.7,-135.35"/>
</g>
<!-- Node8 -->
<g id="node7" class="node">
<title>Node8</title>
<g id="a_node7"><a xlink:title=" ">
<polygon fill="white" stroke="#bfbfbf" points="0,-112.5 0,-131.5 55,-131.5 55,-112.5 0,-112.5"/>
<text text-anchor="middle" x="27.5" y="-119.5" font-family="FreeSans" font-size="10.00">locale.h</text>
</a>
</g>
</g>
<!-- Node2&#45;&gt;Node8 -->
<g id="edge6" class="edge">
<title>Node2&#45;&gt;Node8</title>
<path fill="none" stroke="midnightblue" d="M895.81,-175.78C739.92,-171.61 245.57,-156.85 65.43,-131.98"/>
<polygon fill="midnightblue" stroke="midnightblue" points="65.7,-128.48 55.3,-130.52 64.7,-135.41 65.7,-128.48"/>
</g>
<!-- Node9 -->
<g id="node8" class="node">
<title>Node9</title>
<g id="a_node8"><a xlink:title=" ">
<polygon fill="white" stroke="#bfbfbf" points="1399,-112.5 1399,-131.5 1450,-131.5 1450,-112.5 1399,-112.5"/>
<text text-anchor="middle" x="1424.5" y="-119.5" font-family="FreeSans" font-size="10.00">errno.h</text>
</a>
</g>
</g>
<!-- Node2&#45;&gt;Node9 -->
<g id="edge7" class="edge">
<title>Node2&#45;&gt;Node9</title>
<path fill="none" stroke="midnightblue" d="M991.02,-174.57C1071.15,-169.96 1238.27,-158.12 1389.07,-131.79"/>
<polygon fill="midnightblue" stroke="midnightblue" points="1389.75,-135.23 1398.98,-130.04 1388.53,-128.33 1389.75,-135.23"/>
</g>
<!-- Node10 -->
<g id="node9" class="node">
<title>Node10</title>
<g id="a_node9"><a xlink:title=" ">
<polygon fill="white" stroke="#bfbfbf" points="73,-112.5 73,-131.5 120,-131.5 120,-112.5 73,-112.5"/>
<text text-anchor="middle" x="96.5" y="-119.5" font-family="FreeSans" font-size="10.00">fcntl.h</text>
</a>
</g>
</g>
<!-- Node2&#45;&gt;Node10 -->
<g id="edge8" class="edge">
<title>Node2&#45;&gt;Node10</title>
<path fill="none" stroke="midnightblue" d="M895.91,-175.74C748,-171.62 296.76,-157.4 130.22,-131.89"/>
<polygon fill="midnightblue" stroke="midnightblue" points="130.56,-128.4 120.13,-130.27 129.45,-135.31 130.56,-128.4"/>
</g>
<!-- Node11 -->
<g id="node10" class="node">
<title>Node11</title>
<g id="a_node10"><a xlink:title=" ">
<polygon fill="white" stroke="#bfbfbf" points="1468,-112.5 1468,-131.5 1519,-131.5 1519,-112.5 1468,-112.5"/>
<text text-anchor="middle" x="1493.5" y="-119.5" font-family="FreeSans" font-size="10.00">math.h</text>
</a>
</g>
</g>
<!-- Node2&#45;&gt;Node11 -->
<g id="edge9" class="edge">
<title>Node2&#45;&gt;Node11</title>
<path fill="none" stroke="midnightblue" d="M991.05,-175.46C1080.59,-171.99 1280.39,-161.57 1457.94,-131.79"/>
<polygon fill="midnightblue" stroke="midnightblue" points="1458.72,-135.21 1467.99,-130.08 1457.55,-128.3 1458.72,-135.21"/>
</g>
<!-- Node12 -->
<g id="node11" class="node">
<title>Node12</title>
<g id="a_node11"><a xlink:title=" ">
<polygon fill="white" stroke="#bfbfbf" points="1320.5,-56.5 1320.5,-75.5 1368.5,-75.5 1368.5,-56.5 1320.5,-56.5"/>
<text text-anchor="middle" x="1344.5" y="-63.5" font-family="FreeSans" font-size="10.00">time.h</text>
</a>
</g>
</g>
<!-- Node2&#45;&gt;Node12 -->
<g id="edge10" class="edge">
<title>Node2&#45;&gt;Node12</title>
<path fill="none" stroke="midnightblue" d="M990.86,-168.48C1029.55,-160.87 1085.35,-148.39 1132.5,-132 1152.41,-125.08 1155.68,-119.18 1175.5,-112 1221.16,-95.45 1275.74,-82.01 1310.26,-74.26"/>
<polygon fill="midnightblue" stroke="midnightblue" points="1311.3,-77.62 1320.3,-72.04 1309.78,-70.78 1311.3,-77.62"/>
</g>
<!-- Node13 -->
<g id="node12" class="node">
<title>Node13</title>
<g id="a_node12"><a xlink:title=" ">
<polygon fill="white" stroke="#bfbfbf" points="138,-112.5 138,-131.5 191,-131.5 191,-112.5 138,-112.5"/>
<text text-anchor="middle" x="164.5" y="-119.5" font-family="FreeSans" font-size="10.00">limits.h</text>
</a>
</g>
</g>
<!-- Node2&#45;&gt;Node13 -->
<g id="edge11" class="edge">
<title>Node2&#45;&gt;Node13</title>
<path fill="none" stroke="midnightblue" d="M895.72,-177.26C778.61,-177.23 467.98,-173.08 201.4,-132.01"/>
<polygon fill="midnightblue" stroke="midnightblue" points="201.56,-128.5 191.14,-130.41 200.48,-135.41 201.56,-128.5"/>
</g>
<!-- Node14 -->
<g id="node13" class="node">
<title>Node14</title>
<g id="a_node13"><a xlink:title=" ">
<polygon fill="white" stroke="#bfbfbf" points="209,-112.5 209,-131.5 264,-131.5 264,-112.5 209,-112.5"/>
<text text-anchor="middle" x="236.5" y="-119.5" font-family="FreeSans" font-size="10.00">signal.h</text>
</a>
</g>
</g>
<!-- Node2&#45;&gt;Node14 -->
<g id="edge12" class="edge">
<title>Node2&#45;&gt;Node14</title>
<path fill="none" stroke="midnightblue" d="M895.67,-176.6C786.86,-175.07 512.45,-167.83 274.17,-131.81"/>
<polygon fill="midnightblue" stroke="midnightblue" points="274.69,-128.35 264.28,-130.3 273.63,-135.27 274.69,-128.35"/>
</g>
<!-- Node15 -->
<g id="node14" class="node">
<title>Node15</title>
<g id="a_node14"><a xlink:title=" ">
<polygon fill="white" stroke="#bfbfbf" points="1324.5,-112.5 1324.5,-131.5 1380.5,-131.5 1380.5,-112.5 1324.5,-112.5"/>
<text text-anchor="middle" x="1352.5" y="-119.5" font-family="FreeSans" font-size="10.00">assert.h</text>
</a>
</g>
</g>
<!-- Node2&#45;&gt;Node15 -->
<g id="edge13" class="edge">
<title>Node2&#45;&gt;Node15</title>
<path fill="none" stroke="midnightblue" d="M991.19,-172.94C1062.06,-166.51 1199.21,-152.58 1314.5,-132 1314.6,-131.98 1314.7,-131.96 1314.8,-131.95"/>
<polygon fill="midnightblue" stroke="midnightblue" points="1315.23,-135.43 1324.35,-130.04 1313.86,-128.57 1315.23,-135.43"/>
</g>
<!-- Node16 -->
<g id="node15" class="node">
<title>Node16</title>
<g id="a_node15"><a xlink:href="method-attribute_8h.html" target="_top" xlink:title=" ">
<polygon fill="white" stroke="black" points="282.5,-112.5 282.5,-131.5 430.5,-131.5 430.5,-112.5 282.5,-112.5"/>
<text text-anchor="middle" x="356.5" y="-119.5" font-family="FreeSans" font-size="10.00">magick/method&#45;attribute.h</text>
</a>
</g>
</g>
<!-- Node2&#45;&gt;Node16 -->
<g id="edge14" class="edge">
<title>Node2&#45;&gt;Node16</title>
<path fill="none" stroke="midnightblue" d="M895.87,-173.05C808.11,-165.71 614.68,-149.21 440.81,-132.11"/>
<polygon fill="midnightblue" stroke="midnightblue" points="441,-128.62 430.7,-131.12 440.31,-135.58 441,-128.62"/>
</g>
<!-- Node17 -->
<g id="node16" class="node">
<title>Node17</title>
<g id="a_node16"><a xlink:title=" ">
<polygon fill="white" stroke="#bfbfbf" points="448.5,-112.5 448.5,-131.5 520.5,-131.5 520.5,-112.5 448.5,-112.5"/>
<text text-anchor="middle" x="484.5" y="-119.5" font-family="FreeSans" font-size="10.00">sys/types.h</text>
</a>
</g>
</g>
<!-- Node2&#45;&gt;Node17 -->
<g id="edge15" class="edge">
<title>Node2&#45;&gt;Node17</title>
<path fill="none" stroke="midnightblue" d="M895.82,-173.21C820.41,-166.91 668.83,-153.01 530.72,-132.07"/>
<polygon fill="midnightblue" stroke="midnightblue" points="531.21,-128.6 520.8,-130.55 530.15,-135.52 531.21,-128.6"/>
</g>
<!-- Node18 -->
<g id="node17" class="node">
<title>Node18</title>
<g id="a_node17"><a xlink:title=" ">
<polygon fill="white" stroke="#bfbfbf" points="538.5,-112.5 538.5,-131.5 602.5,-131.5 602.5,-112.5 538.5,-112.5"/>
<text text-anchor="middle" x="570.5" y="-119.5" font-family="FreeSans" font-size="10.00">sys/stat.h</text>
</a>
</g>
</g>
<!-- Node2&#45;&gt;Node18 -->
<g id="edge16" class="edge">
<title>Node2&#45;&gt;Node18</title>
<path fill="none" stroke="midnightblue" d="M895.75,-171.77C833.04,-164.62 719.31,-150.71 612.65,-132.08"/>
<polygon fill="midnightblue" stroke="midnightblue" points="613.14,-128.61 602.68,-130.32 611.92,-135.51 613.14,-128.61"/>
</g>
<!-- Node19 -->
<g id="node18" class="node">
<title>Node19</title>
<g id="a_node18"><a xlink:title=" ">
<polygon fill="white" stroke="#bfbfbf" points="620.5,-112.5 620.5,-131.5 674.5,-131.5 674.5,-112.5 620.5,-112.5"/>
<text text-anchor="middle" x="647.5" y="-119.5" font-family="FreeSans" font-size="10.00">dirent.h</text>
</a>
</g>
</g>
<!-- Node2&#45;&gt;Node19 -->
<g id="edge17" class="edge">
<title>Node2&#45;&gt;Node19</title>
<path fill="none" stroke="midnightblue" d="M895.86,-169.83C845.71,-162.05 764.25,-148.72 684.76,-132.14"/>
<polygon fill="midnightblue" stroke="midnightblue" points="685.08,-128.63 674.58,-130 683.64,-135.48 685.08,-128.63"/>
</g>
<!-- Node20 -->
<g id="node19" class="node">
<title>Node20</title>
<g id="a_node19"><a xlink:title=" ">
<polygon fill="white" stroke="#bfbfbf" points="692.5,-112.5 692.5,-131.5 758.5,-131.5 758.5,-112.5 692.5,-112.5"/>
<text text-anchor="middle" x="725.5" y="-119.5" font-family="FreeSans" font-size="10.00">sys/wait.h</text>
</a>
</g>
</g>
<!-- Node2&#45;&gt;Node20 -->
<g id="edge18" class="edge">
<title>Node2&#45;&gt;Node20</title>
<path fill="none" stroke="midnightblue" d="M908.96,-168.44C870.91,-159.02 809.69,-143.85 768.55,-133.66"/>
<polygon fill="midnightblue" stroke="midnightblue" points="769.36,-130.26 758.81,-131.25 767.67,-137.05 769.36,-130.26"/>
</g>
<!-- Node21 -->
<g id="node20" class="node">
<title>Node21</title>
<g id="a_node20"><a xlink:title=" ">
<polygon fill="white" stroke="#bfbfbf" points="920.5,-112.5 920.5,-131.5 966.5,-131.5 966.5,-112.5 920.5,-112.5"/>
<text text-anchor="middle" x="943.5" y="-119.5" font-family="FreeSans" font-size="10.00">pwd.h</text>
</a>
</g>
</g>
<!-- Node2&#45;&gt;Node21 -->
<g id="edge19" class="edge">
<title>Node2&#45;&gt;Node21</title>
<path fill="none" stroke="midnightblue" d="M943.5,-168.08C943.5,-161.01 943.5,-150.86 943.5,-141.99"/>
<polygon fill="midnightblue" stroke="midnightblue" points="947,-141.75 943.5,-131.75 940,-141.75 947,-141.75"/>
</g>
<!-- Node22 -->
<g id="node21" class="node">
<title>Node22</title>
<g id="a_node21"><a xlink:href="magick-type_8h.html" target="_top" xlink:title=" ">
<polygon fill="white" stroke="black" points="776.5,-112.5 776.5,-131.5 902.5,-131.5 902.5,-112.5 776.5,-112.5"/>
<text text-anchor="middle" x="839.5" y="-119.5" font-family="FreeSans" font-size="10.00">magick/magick&#45;type.h</text>
</a>
</g>
</g>
<!-- Node2&#45;&gt;Node22 -->
<g id="edge20" class="edge">
<title>Node2&#45;&gt;Node22</title>
<path fill="none" stroke="midnightblue" d="M926.79,-168.32C910.19,-159.7 884.5,-146.36 865.28,-136.39"/>
<polygon fill="midnightblue" stroke="midnightblue" points="866.66,-133.16 856.17,-131.65 863.43,-139.37 866.66,-133.16"/>
</g>
<!-- Node23 -->
<g id="node22" class="node">
<title>Node23</title>
<g id="a_node22"><a xlink:title=" ">
<polygon fill="white" stroke="#bfbfbf" points="1022.5,-112.5 1022.5,-131.5 1090.5,-131.5 1090.5,-112.5 1022.5,-112.5"/>
<text text-anchor="middle" x="1056.5" y="-119.5" font-family="FreeSans" font-size="10.00">sys/time.h</text>
</a>
</g>
</g>
<!-- Node2&#45;&gt;Node23 -->
<g id="edge22" class="edge">
<title>Node2&#45;&gt;Node23</title>
<path fill="none" stroke="midnightblue" d="M961.41,-168.44C979.75,-159.68 1008.51,-145.94 1029.59,-135.86"/>
<polygon fill="midnightblue" stroke="midnightblue" points="1031.17,-138.99 1038.68,-131.52 1028.15,-132.67 1031.17,-138.99"/>
</g>
<!-- Node22&#45;&gt;Node3 -->
<g id="edge21" class="edge">
<title>Node22&#45;&gt;Node3</title>
<path fill="none" stroke="midnightblue" d="M852.03,-112.32C864.09,-103.98 882.53,-91.21 896.77,-81.35"/>
<polygon fill="midnightblue" stroke="midnightblue" points="898.77,-84.22 905,-75.65 894.78,-78.47 898.77,-84.22"/>
</g>
<!-- Node25 -->
<g id="node24" class="node">
<title>Node25</title>
<g id="a_node24"><a xlink:href="pixel_8h.html" target="_top" xlink:title=" ">
<polygon fill="white" stroke="red" points="2500.5,-56.5 2500.5,-75.5 2588.5,-75.5 2588.5,-56.5 2500.5,-56.5"/>
<text text-anchor="middle" x="2544.5" y="-63.5" font-family="FreeSans" font-size="10.00">magick/pixel.h</text>
</a>
</g>
</g>
<!-- Node24&#45;&gt;Node25 -->
<g id="edge24" class="edge">
<title>Node24&#45;&gt;Node25</title>
<path fill="none" stroke="midnightblue" d="M2965.55,-114.27C2871.22,-103.68 2689.57,-83.29 2598.84,-73.1"/>
<polygon fill="midnightblue" stroke="midnightblue" points="2599.09,-69.61 2588.76,-71.97 2598.31,-76.56 2599.09,-69.61"/>
</g>
<!-- Node26 -->
<g id="node25" class="node">
<title>Node26</title>
<g id="a_node25"><a xlink:href="colorspace_8h.html" target="_top" xlink:title=" ">
<polygon fill="white" stroke="black" points="2682,-0.5 2682,-19.5 2799,-19.5 2799,-0.5 2682,-0.5"/>
<text text-anchor="middle" x="2740.5" y="-7.5" font-family="FreeSans" font-size="10.00">magick/colorspace.h</text>
</a>
</g>
</g>
<!-- Node25&#45;&gt;Node26 -->
<g id="edge25" class="edge">
<title>Node25&#45;&gt;Node26</title>
<path fill="none" stroke="midnightblue" d="M2575.56,-56.44C2609.1,-47.2 2662.7,-32.44 2699.64,-22.26"/>
<polygon fill="midnightblue" stroke="midnightblue" points="2700.88,-25.55 2709.59,-19.52 2699.02,-18.8 2700.88,-25.55"/>
</g>
<!-- Node28&#45;&gt;Node5 -->
<g id="edge27" class="edge">
<title>Node28&#45;&gt;Node5</title>
<path fill="none" stroke="midnightblue" d="M1669.84,-56.32C1656.58,-47.9 1636.23,-34.97 1620.65,-25.07"/>
<polygon fill="midnightblue" stroke="midnightblue" points="1622.44,-22.06 1612.12,-19.65 1618.69,-27.97 1622.44,-22.06"/>
</g>
<!-- Node28&#45;&gt;Node29 -->
<g id="edge28" class="edge">
<title>Node28&#45;&gt;Node29</title>
<path fill="none" stroke="midnightblue" d="M1709.49,-56.44C1737.2,-47.32 1781.25,-32.81 1812.12,-22.65"/>
<polygon fill="midnightblue" stroke="midnightblue" points="1813.23,-25.97 1821.64,-19.52 1811.04,-19.32 1813.23,-25.97"/>
</g>
<!-- Node31 -->
<g id="node29" class="node">
<title>Node31</title>
<g id="a_node29"><a xlink:href="log_8h.html" target="_top" xlink:title=" ">
<polygon fill="white" stroke="black" points="1653.5,-112.5 1653.5,-131.5 1733.5,-131.5 1733.5,-112.5 1653.5,-112.5"/>
<text text-anchor="middle" x="1693.5" y="-119.5" font-family="FreeSans" font-size="10.00">magick/log.h</text>
</a>
</g>
</g>
<!-- Node30&#45;&gt;Node31 -->
<g id="edge30" class="edge">
<title>Node30&#45;&gt;Node31</title>
<path fill="none" stroke="midnightblue" d="M1614.6,-168.32C1629.4,-159.82 1652.19,-146.73 1669.48,-136.8"/>
<polygon fill="midnightblue" stroke="midnightblue" points="1671.51,-139.67 1678.43,-131.65 1668.02,-133.6 1671.51,-139.67"/>
</g>
<!-- Node32 -->
<g id="node30" class="node">
<title>Node32</title>
<g id="a_node30"><a xlink:href="magick_8h.html" target="_top" xlink:title=" ">
<polygon fill="white" stroke="black" points="1758,-56.5 1758,-75.5 1859,-75.5 1859,-56.5 1758,-56.5"/>
<text text-anchor="middle" x="1808.5" y="-63.5" font-family="FreeSans" font-size="10.00">magick/magick.h</text>
</a>
</g>
</g>
<!-- Node30&#45;&gt;Node32 -->
<g id="edge33" class="edge">
<title>Node30&#45;&gt;Node32</title>
<path fill="none" stroke="midnightblue" d="M1644.96,-168.48C1674.27,-161.63 1712.39,-150.1 1742.5,-132 1763.7,-119.25 1783.25,-98.36 1795.48,-83.71"/>
<polygon fill="midnightblue" stroke="midnightblue" points="1798.22,-85.89 1801.79,-75.91 1792.78,-81.48 1798.22,-85.89"/>
</g>
<!-- Node30&#45;&gt;Node33 -->
<g id="edge36" class="edge">
<title>Node30&#45;&gt;Node33</title>
<path fill="none" stroke="midnightblue" d="M1597.35,-168.08C1595.63,-160.93 1593.15,-150.64 1591,-141.69"/>
<polygon fill="midnightblue" stroke="midnightblue" points="1594.35,-140.65 1588.61,-131.75 1587.54,-142.29 1594.35,-140.65"/>
</g>
<!-- Node31&#45;&gt;Node5 -->
<g id="edge31" class="edge">
<title>Node31&#45;&gt;Node5</title>
<path fill="none" stroke="midnightblue" d="M1669.65,-112.41C1652.78,-105.16 1630.86,-93.2 1617.5,-76 1607.14,-62.66 1602.43,-43.84 1600.28,-29.87"/>
<polygon fill="midnightblue" stroke="midnightblue" points="1603.75,-29.41 1599.06,-19.92 1596.81,-30.27 1603.75,-29.41"/>
</g>
<!-- Node31&#45;&gt;Node28 -->
<g id="edge32" class="edge">
<title>Node31&#45;&gt;Node28</title>
<path fill="none" stroke="midnightblue" d="M1691.85,-112.08C1690.52,-104.93 1688.62,-94.64 1686.96,-85.69"/>
<polygon fill="midnightblue" stroke="midnightblue" points="1690.38,-84.95 1685.12,-75.75 1683.5,-86.22 1690.38,-84.95"/>
</g>
<!-- Node32&#45;&gt;Node5 -->
<g id="edge34" class="edge">
<title>Node32&#45;&gt;Node5</title>
<path fill="none" stroke="midnightblue" d="M1775.22,-56.44C1737.46,-46.73 1675.97,-30.92 1636.39,-20.74"/>
<polygon fill="midnightblue" stroke="midnightblue" points="1637.14,-17.32 1626.58,-18.22 1635.39,-24.1 1637.14,-17.32"/>
</g>
<!-- Node32&#45;&gt;Node29 -->
<g id="edge35" class="edge">
<title>Node32&#45;&gt;Node29</title>
<path fill="none" stroke="midnightblue" d="M1814.94,-56.08C1820.45,-48.46 1828.53,-37.26 1835.26,-27.94"/>
<polygon fill="midnightblue" stroke="midnightblue" points="1838.16,-29.91 1841.18,-19.75 1832.49,-25.81 1838.16,-29.91"/>
</g>
<!-- Node33&#45;&gt;Node5 -->
<g id="edge37" class="edge">
<title>Node33&#45;&gt;Node5</title>
<path fill="none" stroke="midnightblue" d="M1585.22,-112.11C1583.63,-99.53 1581.48,-75.87 1584.5,-56 1585.87,-47 1588.69,-37.33 1591.45,-29.26"/>
<polygon fill="midnightblue" stroke="midnightblue" points="1594.77,-30.37 1594.9,-19.78 1588.19,-27.98 1594.77,-30.37"/>
</g>
<!-- Node33&#45;&gt;Node12 -->
<g id="edge38" class="edge">
<title>Node33&#45;&gt;Node12</title>
<path fill="none" stroke="midnightblue" d="M1548.15,-112.44C1501.42,-102.01 1423.16,-84.55 1378.49,-74.58"/>
<polygon fill="midnightblue" stroke="midnightblue" points="1379.22,-71.16 1368.69,-72.4 1377.69,-77.99 1379.22,-71.16"/>
</g>
<!-- Node33&#45;&gt;Node28 -->
<g id="edge39" class="edge">
<title>Node33&#45;&gt;Node28</title>
<path fill="none" stroke="midnightblue" d="M1602.08,-112.32C1617.5,-103.74 1641.31,-90.49 1659.21,-80.52"/>
<polygon fill="midnightblue" stroke="midnightblue" points="1660.92,-83.58 1667.95,-75.65 1657.51,-77.46 1660.92,-83.58"/>
</g>
<!-- Node35&#45;&gt;Node24 -->
<g id="edge48" class="edge">
<title>Node35&#45;&gt;Node24</title>
<path fill="none" stroke="midnightblue" d="M2526.05,-169.24C2529.25,-168.79 2532.42,-168.38 2535.5,-168 2719.71,-145.51 2766.92,-151.21 2951.5,-132 2952.8,-131.86 2954.12,-131.73 2955.44,-131.58"/>
<polygon fill="midnightblue" stroke="midnightblue" points="2956.19,-135.02 2965.75,-130.45 2955.42,-128.06 2956.19,-135.02"/>
</g>
<!-- Node35&#45;&gt;Node25 -->
<g id="edge57" class="edge">
<title>Node35&#45;&gt;Node25</title>
<path fill="none" stroke="midnightblue" d="M2490.64,-168.34C2501.3,-160.13 2516.47,-146.87 2525.5,-132 2534.18,-117.71 2539.08,-99.24 2541.72,-85.65"/>
<polygon fill="midnightblue" stroke="midnightblue" points="2545.21,-86.02 2543.44,-75.57 2538.31,-84.84 2545.21,-86.02"/>
</g>
<!-- Node35&#45;&gt;Node26 -->
<g id="edge47" class="edge">
<title>Node35&#45;&gt;Node26</title>
<path fill="none" stroke="midnightblue" d="M2526.05,-169.26C2529.25,-168.81 2532.42,-168.39 2535.5,-168 2577.91,-162.66 2889.72,-163.61 2918.5,-132 2964.8,-81.14 2852.52,-40.87 2785.75,-22.25"/>
<polygon fill="midnightblue" stroke="midnightblue" points="2786.42,-18.81 2775.85,-19.55 2784.58,-25.56 2786.42,-18.81"/>
</g>
<!-- Node35&#45;&gt;Node29 -->
<g id="edge58" class="edge">
<title>Node35&#45;&gt;Node29</title>
<path fill="none" stroke="midnightblue" d="M2430.83,-174.65C2334.01,-169.45 2117.57,-155.54 2047.5,-132 1974.4,-107.45 1899.63,-52.68 1865.94,-26.08"/>
<polygon fill="midnightblue" stroke="midnightblue" points="1867.92,-23.18 1857.92,-19.66 1863.55,-28.64 1867.92,-23.18"/>
</g>
<!-- Node36 -->
<g id="node34" class="node">
<title>Node36</title>
<g id="a_node34"><a xlink:href="color_8h.html" target="_top" xlink:title=" ">
<polygon fill="white" stroke="black" points="1874.5,-112.5 1874.5,-131.5 1962.5,-131.5 1962.5,-112.5 1874.5,-112.5"/>
<text text-anchor="middle" x="1918.5" y="-119.5" font-family="FreeSans" font-size="10.00">magick/color.h</text>
</a>
</g>
</g>
<!-- Node35&#45;&gt;Node36 -->
<g id="edge42" class="edge">
<title>Node35&#45;&gt;Node36</title>
<path fill="none" stroke="midnightblue" d="M2430.75,-172.4C2327.11,-162.4 2082.05,-138.77 1972.76,-128.23"/>
<polygon fill="midnightblue" stroke="midnightblue" points="1972.9,-124.73 1962.61,-127.25 1972.23,-131.7 1972.9,-124.73"/>
</g>
<!-- Node37 -->
<g id="node35" class="node">
<title>Node37</title>
<g id="a_node35"><a xlink:href="blob_8h.html" target="_top" xlink:title=" ">
<polygon fill="white" stroke="red" points="2056.5,-112.5 2056.5,-131.5 2142.5,-131.5 2142.5,-112.5 2056.5,-112.5"/>
<text text-anchor="middle" x="2099.5" y="-119.5" font-family="FreeSans" font-size="10.00">magick/blob.h</text>
</a>
</g>
</g>
<!-- Node35&#45;&gt;Node37 -->
<g id="edge45" class="edge">
<title>Node35&#45;&gt;Node37</title>
<path fill="none" stroke="midnightblue" d="M2430.78,-171.71C2367.4,-163.98 2252.2,-148.86 2149.39,-133.06"/>
<polygon fill="midnightblue" stroke="midnightblue" points="2149.9,-129.59 2139.48,-131.53 2148.83,-136.51 2149.9,-129.59"/>
</g>
<!-- Node39 -->
<g id="node36" class="node">
<title>Node39</title>
<g id="a_node36"><a xlink:href="composite_8h.html" target="_top" xlink:title=" ">
<polygon fill="white" stroke="black" points="2160.5,-112.5 2160.5,-131.5 2276.5,-131.5 2276.5,-112.5 2160.5,-112.5"/>
<text text-anchor="middle" x="2218.5" y="-119.5" font-family="FreeSans" font-size="10.00">magick/composite.h</text>
</a>
</g>
</g>
<!-- Node35&#45;&gt;Node39 -->
<g id="edge49" class="edge">
<title>Node35&#45;&gt;Node39</title>
<path fill="none" stroke="midnightblue" d="M2437.3,-168.44C2391.85,-159 2318.66,-143.8 2269.59,-133.61"/>
<polygon fill="midnightblue" stroke="midnightblue" points="2270.01,-130.12 2259.51,-131.52 2268.58,-136.98 2270.01,-130.12"/>
</g>
<!-- Node40 -->
<g id="node37" class="node">
<title>Node40</title>
<g id="a_node37"><a xlink:href="compress_8h.html" target="_top" xlink:title=" ">
<polygon fill="white" stroke="black" points="2294.5,-112.5 2294.5,-131.5 2406.5,-131.5 2406.5,-112.5 2294.5,-112.5"/>
<text text-anchor="middle" x="2350.5" y="-119.5" font-family="FreeSans" font-size="10.00">magick/compress.h</text>
</a>
</g>
</g>
<!-- Node35&#45;&gt;Node40 -->
<g id="edge50" class="edge">
<title>Node35&#45;&gt;Node40</title>
<path fill="none" stroke="midnightblue" d="M2458.22,-168.44C2437.15,-159.56 2403.98,-145.56 2380.01,-135.45"/>
<polygon fill="midnightblue" stroke="midnightblue" points="2381.26,-132.18 2370.69,-131.52 2378.54,-138.63 2381.26,-132.18"/>
</g>
<!-- Node41 -->
<g id="node38" class="node">
<title>Node41</title>
<g id="a_node38"><a xlink:href="effect_8h.html" target="_top" xlink:title=" ">
<polygon fill="white" stroke="red" points="2424.5,-112.5 2424.5,-131.5 2516.5,-131.5 2516.5,-112.5 2424.5,-112.5"/>
<text text-anchor="middle" x="2470.5" y="-119.5" font-family="FreeSans" font-size="10.00">magick/effect.h</text>
</a>
</g>
</g>
<!-- Node35&#45;&gt;Node41 -->
<g id="edge51" class="edge">
<title>Node35&#45;&gt;Node41</title>
<path fill="none" stroke="midnightblue" d="M2477.18,-168.08C2476.12,-160.93 2474.59,-150.64 2473.27,-141.69"/>
<polygon fill="midnightblue" stroke="midnightblue" points="2476.72,-141.13 2471.8,-131.75 2469.8,-142.16 2476.72,-141.13"/>
</g>
<!-- Node43 -->
<g id="node39" class="node">
<title>Node43</title>
<g id="a_node39"><a xlink:href="geometry_8h.html" target="_top" xlink:title=" ">
<polygon fill="white" stroke="black" points="2572.5,-112.5 2572.5,-131.5 2682.5,-131.5 2682.5,-112.5 2572.5,-112.5"/>
<text text-anchor="middle" x="2627.5" y="-119.5" font-family="FreeSans" font-size="10.00">magick/geometry.h</text>
</a>
</g>
</g>
<!-- Node35&#45;&gt;Node43 -->
<g id="edge52" class="edge">
<title>Node35&#45;&gt;Node43</title>
<path fill="none" stroke="midnightblue" d="M2502.11,-168.44C2526.96,-159.44 2566.27,-145.19 2594.25,-135.05"/>
<polygon fill="midnightblue" stroke="midnightblue" points="2595.79,-138.21 2604,-131.52 2593.41,-131.63 2595.79,-138.21"/>
</g>
<!-- Node44 -->
<g id="node40" class="node">
<title>Node44</title>
<g id="a_node40"><a xlink:href="layer_8h.html" target="_top" xlink:title=" ">
<polygon fill="white" stroke="black" points="2701,-112.5 2701,-131.5 2790,-131.5 2790,-112.5 2701,-112.5"/>
<text text-anchor="middle" x="2745.5" y="-119.5" font-family="FreeSans" font-size="10.00">magick/layer.h</text>
</a>
</g>
</g>
<!-- Node35&#45;&gt;Node44 -->
<g id="edge53" class="edge">
<title>Node35&#45;&gt;Node44</title>
<path fill="none" stroke="midnightblue" d="M2520.81,-168.44C2567.58,-158.98 2642.96,-143.74 2693.35,-133.55"/>
<polygon fill="midnightblue" stroke="midnightblue" points="2694.28,-136.93 2703.39,-131.52 2692.9,-130.07 2694.28,-136.93"/>
</g>
<!-- Node45 -->
<g id="node41" class="node">
<title>Node45</title>
<g id="a_node41"><a xlink:href="locale___8h.html" target="_top" xlink:title=" ">
<polygon fill="white" stroke="black" points="3103,-112.5 3103,-131.5 3202,-131.5 3202,-112.5 3103,-112.5"/>
<text text-anchor="middle" x="3152.5" y="-119.5" font-family="FreeSans" font-size="10.00">magick/locale_.h</text>
</a>
</g>
</g>
<!-- Node35&#45;&gt;Node45 -->
<g id="edge54" class="edge">
<title>Node35&#45;&gt;Node45</title>
<path fill="none" stroke="midnightblue" d="M2526.04,-169.16C2529.24,-168.73 2532.41,-168.34 2535.5,-168 2779.68,-140.92 2845.3,-158.63 3092.85,-132.09"/>
<polygon fill="midnightblue" stroke="midnightblue" points="3093.3,-135.56 3102.86,-131 3092.55,-128.6 3093.3,-135.56"/>
</g>
<!-- Node46 -->
<g id="node42" class="node">
<title>Node46</title>
<g id="a_node42"><a xlink:href="monitor_8h.html" target="_top" xlink:title=" ">
<polygon fill="white" stroke="black" points="2807.5,-112.5 2807.5,-131.5 2909.5,-131.5 2909.5,-112.5 2807.5,-112.5"/>
<text text-anchor="middle" x="2858.5" y="-119.5" font-family="FreeSans" font-size="10.00">magick/monitor.h</text>
</a>
</g>
</g>
<!-- Node35&#45;&gt;Node46 -->
<g id="edge56" class="edge">
<title>Node35&#45;&gt;Node46</title>
<path fill="none" stroke="midnightblue" d="M2526.07,-169.41C2529.26,-168.93 2532.43,-168.45 2535.5,-168 2649.03,-151.27 2680.04,-148.87 2797.34,-132.15"/>
<polygon fill="midnightblue" stroke="midnightblue" points="2798.04,-135.59 2807.44,-130.7 2797.05,-128.66 2798.04,-135.59"/>
</g>
<!-- Node36&#45;&gt;Node25 -->
<g id="edge43" class="edge">
<title>Node36&#45;&gt;Node25</title>
<path fill="none" stroke="midnightblue" d="M1962.79,-113.78C1967.41,-113.13 1972.05,-112.52 1976.5,-112 2164.57,-89.99 2388.97,-75.73 2490.21,-69.94"/>
<polygon fill="midnightblue" stroke="midnightblue" points="2490.41,-73.44 2500.2,-69.38 2490.02,-66.45 2490.41,-73.44"/>
</g>
<!-- Node36&#45;&gt;Node28 -->
<g id="edge44" class="edge">
<title>Node36&#45;&gt;Node28</title>
<path fill="none" stroke="midnightblue" d="M1881.26,-112.44C1840.44,-103.06 1774.86,-87.99 1730.52,-77.8"/>
<polygon fill="midnightblue" stroke="midnightblue" points="1731.09,-74.34 1720.56,-75.52 1729.52,-81.17 1731.09,-74.34"/>
</g>
<!-- Node37&#45;&gt;Node35 -->
<g id="edge46" class="edge">
<title>Node37&#45;&gt;Node35</title>
<path fill="none" stroke="midnightblue" d="M2142.74,-129.12C2148.75,-130.12 2154.8,-131.11 2160.5,-132 2251.42,-146.12 2356.92,-160.23 2420.73,-168.79"/>
<polygon fill="midnightblue" stroke="midnightblue" points="2420.61,-172.3 2430.99,-170.16 2421.55,-165.37 2420.61,-172.3"/>
</g>
<!-- Node45&#45;&gt;Node34 -->
<g id="edge55" class="edge">
<title>Node45&#45;&gt;Node34</title>
<path fill="none" stroke="midnightblue" d="M3158.94,-112.08C3164.45,-104.46 3172.53,-93.26 3179.26,-83.94"/>
<polygon fill="midnightblue" stroke="midnightblue" points="3182.16,-85.91 3185.18,-75.75 3176.49,-81.81 3182.16,-85.91"/>
</g>
<!-- Node54&#45;&gt;Node9 -->
<g id="edge61" class="edge">
<title>Node54&#45;&gt;Node9</title>
<path fill="none" stroke="midnightblue" d="M1413.65,-168.08C1415.37,-160.93 1417.85,-150.64 1420,-141.69"/>
<polygon fill="midnightblue" stroke="midnightblue" points="1423.46,-142.29 1422.39,-131.75 1416.65,-140.65 1423.46,-142.29"/>
</g>
<!-- Node54&#45;&gt;Node15 -->
<g id="edge62" class="edge">
<title>Node54&#45;&gt;Node15</title>
<path fill="none" stroke="midnightblue" d="M1402.02,-168.32C1393.3,-160.34 1380.16,-148.31 1369.6,-138.65"/>
<polygon fill="midnightblue" stroke="midnightblue" points="1371.89,-136 1362.15,-131.83 1367.17,-141.17 1371.89,-136"/>
</g>
<!-- Node55&#45;&gt;Node11 -->
<g id="edge64" class="edge">
<title>Node55&#45;&gt;Node11</title>
<path fill="none" stroke="midnightblue" d="M1711.89,-168.45C1666.94,-160.35 1598.07,-147.43 1528.84,-131.96"/>
<polygon fill="midnightblue" stroke="midnightblue" points="1529.6,-128.55 1519.07,-129.76 1528.06,-135.38 1529.6,-128.55"/>
</g>
<!-- Node55&#45;&gt;Node25 -->
<g id="edge65" class="edge">
<title>Node55&#45;&gt;Node25</title>
<path fill="none" stroke="midnightblue" d="M1803.47,-168.45C1846.2,-159.81 1913.56,-145.79 1971.5,-132 2005.48,-123.91 2013.1,-118.04 2047.5,-112 2206.9,-84.01 2398.3,-72.91 2490.13,-68.95"/>
<polygon fill="midnightblue" stroke="midnightblue" points="2490.45,-72.44 2500.3,-68.53 2490.16,-65.45 2490.45,-72.44"/>
</g>
<!-- Node65&#45;&gt;Node63 -->
<g id="edge73" class="edge">
<title>Node65&#45;&gt;Node63</title>
<path fill="none" stroke="midnightblue" d="M3307.82,-168.08C3308.88,-160.93 3310.41,-150.64 3311.73,-141.69"/>
<polygon fill="midnightblue" stroke="midnightblue" points="3315.2,-142.16 3313.2,-131.75 3308.28,-141.13 3315.2,-142.16"/>
</g>
</g>
</svg>
