<?xml version="1.0" encoding="UTF-8" standalone="no"?>
<!DOCTYPE svg PUBLIC "-//W3C//DTD SVG 1.1//EN"
 "http://www.w3.org/Graphics/SVG/1.1/DTD/svg11.dtd">
<!-- Generated by graphviz version 2.43.0 (0)
 -->
<!-- Title: prepress.h Pages: 1 -->
<svg width="631pt" height="140pt"
 viewBox="0.00 0.00 630.50 140.00" xmlns="http://www.w3.org/2000/svg" xmlns:xlink="http://www.w3.org/1999/xlink">
<g id="graph0" class="graph" transform="scale(1 1) rotate(0) translate(4 136)">
<title>prepress.h</title>
<polygon fill="white" stroke="transparent" points="-4,4 -4,-136 626.5,-136 626.5,4 -4,4"/>
<!-- Node1 -->
<g id="node1" class="node">
<title>Node1</title>
<g id="a_node1"><a xlink:title=" ">
<polygon fill="#bfbfbf" stroke="black" points="330,-112.5 330,-131.5 398,-131.5 398,-112.5 330,-112.5"/>
<text text-anchor="middle" x="364" y="-119.5" font-family="FreeSans" font-size="10.00">prepress.h</text>
</a>
</g>
</g>
<!-- Node2 -->
<g id="node2" class="node">
<title>Node2</title>
<g id="a_node2"><a xlink:href="MagickCore_8h.html" target="_top" xlink:title=" ">
<polygon fill="white" stroke="black" points="89.5,-56.5 89.5,-75.5 172.5,-75.5 172.5,-56.5 89.5,-56.5"/>
<text text-anchor="middle" x="131" y="-63.5" font-family="FreeSans" font-size="10.00">MagickCore.h</text>
</a>
</g>
</g>
<!-- Node1&#45;&gt;Node2 -->
<g id="edge1" class="edge">
<title>Node1&#45;&gt;Node2</title>
<path fill="none" stroke="midnightblue" d="M319.77,-110.75C275.78,-100.55 209.04,-85.09 167.83,-75.54"/>
<polygon fill="midnightblue" stroke="midnightblue" points="319.09,-114.18 329.62,-113.03 320.67,-107.36 319.09,-114.18"/>
</g>
<!-- Node6 -->
<g id="node6" class="node">
<title>Node6</title>
<g id="a_node6"><a xlink:href="accelerate_8c.html" target="_top" xlink:title=" ">
<polygon fill="white" stroke="black" points="191,-56.5 191,-75.5 267,-75.5 267,-56.5 191,-56.5"/>
<text text-anchor="middle" x="229" y="-63.5" font-family="FreeSans" font-size="10.00">accelerate.c</text>
</a>
</g>
</g>
<!-- Node1&#45;&gt;Node6 -->
<g id="edge5" class="edge">
<title>Node1&#45;&gt;Node6</title>
<path fill="none" stroke="midnightblue" d="M333.09,-108.64C307.76,-98.5 272.57,-84.43 250.29,-75.52"/>
<polygon fill="midnightblue" stroke="midnightblue" points="332.02,-111.98 342.61,-112.44 334.62,-105.48 332.02,-111.98"/>
</g>
<!-- Node7 -->
<g id="node7" class="node">
<title>Node7</title>
<g id="a_node7"><a xlink:href="histogram_8c.html" target="_top" xlink:title=" ">
<polygon fill="white" stroke="black" points="285,-56.5 285,-75.5 359,-75.5 359,-56.5 285,-56.5"/>
<text text-anchor="middle" x="322" y="-63.5" font-family="FreeSans" font-size="10.00">histogram.c</text>
</a>
</g>
</g>
<!-- Node1&#45;&gt;Node7 -->
<g id="edge6" class="edge">
<title>Node1&#45;&gt;Node7</title>
<path fill="none" stroke="midnightblue" d="M350.89,-104.14C343.57,-94.74 334.76,-83.4 328.81,-75.75"/>
<polygon fill="midnightblue" stroke="midnightblue" points="348.16,-106.34 357.06,-112.08 353.69,-102.04 348.16,-106.34"/>
</g>
<!-- Node8 -->
<g id="node8" class="node">
<title>Node8</title>
<g id="a_node8"><a xlink:href="identify_8c.html" target="_top" xlink:title=" ">
<polygon fill="white" stroke="black" points="377,-56.5 377,-75.5 437,-75.5 437,-56.5 377,-56.5"/>
<text text-anchor="middle" x="407" y="-63.5" font-family="FreeSans" font-size="10.00">identify.c</text>
</a>
</g>
</g>
<!-- Node1&#45;&gt;Node8 -->
<g id="edge7" class="edge">
<title>Node1&#45;&gt;Node8</title>
<path fill="none" stroke="midnightblue" d="M377.42,-104.14C384.91,-94.74 393.94,-83.4 400.03,-75.75"/>
<polygon fill="midnightblue" stroke="midnightblue" points="374.59,-102.08 371.1,-112.08 380.07,-106.44 374.59,-102.08"/>
</g>
<!-- Node9 -->
<g id="node9" class="node">
<title>Node9</title>
<g id="a_node9"><a xlink:href="morphology_8c.html" target="_top" xlink:title=" ">
<polygon fill="white" stroke="black" points="455,-56.5 455,-75.5 537,-75.5 537,-56.5 455,-56.5"/>
<text text-anchor="middle" x="496" y="-63.5" font-family="FreeSans" font-size="10.00">morphology.c</text>
</a>
</g>
</g>
<!-- Node1&#45;&gt;Node9 -->
<g id="edge8" class="edge">
<title>Node1&#45;&gt;Node9</title>
<path fill="none" stroke="midnightblue" d="M394.22,-108.64C418.99,-98.5 453.4,-84.43 475.18,-75.52"/>
<polygon fill="midnightblue" stroke="midnightblue" points="392.85,-105.42 384.92,-112.44 395.5,-111.9 392.85,-105.42"/>
</g>
<!-- Node10 -->
<g id="node10" class="node">
<title>Node10</title>
<g id="a_node10"><a xlink:href="prepress_8c.html" target="_top" xlink:title=" ">
<polygon fill="white" stroke="black" points="555.5,-56.5 555.5,-75.5 622.5,-75.5 622.5,-56.5 555.5,-56.5"/>
<text text-anchor="middle" x="589" y="-63.5" font-family="FreeSans" font-size="10.00">prepress.c</text>
</a>
</g>
</g>
<!-- Node1&#45;&gt;Node10 -->
<g id="edge9" class="edge">
<title>Node1&#45;&gt;Node10</title>
<path fill="none" stroke="midnightblue" d="M408.11,-110.41C451.26,-100.06 516.04,-84.51 555.24,-75.1"/>
<polygon fill="midnightblue" stroke="midnightblue" points="407.08,-107.06 398.17,-112.8 408.71,-113.87 407.08,-107.06"/>
</g>
<!-- Node3 -->
<g id="node3" class="node">
<title>Node3</title>
<g id="a_node3"><a xlink:href="ImageMagick_8h.html" target="_top" xlink:title=" ">
<polygon fill="white" stroke="black" points="0,-0.5 0,-19.5 92,-19.5 92,-0.5 0,-0.5"/>
<text text-anchor="middle" x="46" y="-7.5" font-family="FreeSans" font-size="10.00">ImageMagick.h</text>
</a>
</g>
</g>
<!-- Node2&#45;&gt;Node3 -->
<g id="edge2" class="edge">
<title>Node2&#45;&gt;Node3</title>
<path fill="none" stroke="midnightblue" d="M108.81,-50.9C93.22,-41 72.87,-28.07 59.62,-19.65"/>
<polygon fill="midnightblue" stroke="midnightblue" points="107.03,-53.92 117.34,-56.32 110.78,-48.01 107.03,-53.92"/>
</g>
<!-- Node4 -->
<g id="node4" class="node">
<title>Node4</title>
<g id="a_node4"><a xlink:href="api_8h.html" target="_top" xlink:title=" ">
<polygon fill="white" stroke="black" points="110.5,-0.5 110.5,-19.5 151.5,-19.5 151.5,-0.5 110.5,-0.5"/>
<text text-anchor="middle" x="131" y="-7.5" font-family="FreeSans" font-size="10.00">api.h</text>
</a>
</g>
</g>
<!-- Node2&#45;&gt;Node4 -->
<g id="edge3" class="edge">
<title>Node2&#45;&gt;Node4</title>
<path fill="none" stroke="midnightblue" d="M131,-45.8C131,-36.91 131,-26.78 131,-19.75"/>
<polygon fill="midnightblue" stroke="midnightblue" points="127.5,-46.08 131,-56.08 134.5,-46.08 127.5,-46.08"/>
</g>
<!-- Node5 -->
<g id="node5" class="node">
<title>Node5</title>
<g id="a_node5"><a xlink:href="image-view_8c.html" target="_top" xlink:title=" ">
<polygon fill="white" stroke="black" points="169.5,-0.5 169.5,-19.5 250.5,-19.5 250.5,-0.5 169.5,-0.5"/>
<text text-anchor="middle" x="210" y="-7.5" font-family="FreeSans" font-size="10.00">image&#45;view.c</text>
</a>
</g>
</g>
<!-- Node2&#45;&gt;Node5 -->
<g id="edge4" class="edge">
<title>Node2&#45;&gt;Node5</title>
<path fill="none" stroke="midnightblue" d="M152.03,-50.62C166.47,-40.76 185.14,-27.99 197.34,-19.65"/>
<polygon fill="midnightblue" stroke="midnightblue" points="149.97,-47.79 143.69,-56.32 153.92,-53.57 149.97,-47.79"/>
</g>
</g>
</svg>
