<?xml version="1.0" encoding="UTF-8" standalone="no"?>
<!DOCTYPE svg PUBLIC "-//W3C//DTD SVG 1.1//EN"
 "http://www.w3.org/Graphics/SVG/1.1/DTD/svg11.dtd">
<!-- Generated by graphviz version 2.43.0 (0)
 -->
<!-- Title: profile.c Pages: 1 -->
<svg width="3812pt" height="364pt"
 viewBox="0.00 0.00 3811.54 364.00" xmlns="http://www.w3.org/2000/svg" xmlns:xlink="http://www.w3.org/1999/xlink">
<g id="graph0" class="graph" transform="scale(1 1) rotate(0) translate(4 360)">
<title>profile.c</title>
<polygon fill="white" stroke="transparent" points="-4,4 -4,-360 3807.54,-360 3807.54,4 -4,4"/>
<!-- Node1 -->
<g id="node1" class="node">
<title>Node1</title>
<g id="a_node1"><a xlink:title=" ">
<polygon fill="#bfbfbf" stroke="black" points="2203.54,-336.5 2203.54,-355.5 2259.54,-355.5 2259.54,-336.5 2203.54,-336.5"/>
<text text-anchor="middle" x="2231.54" y="-343.5" font-family="FreeSans" font-size="10.00">profile.c</text>
</a>
</g>
</g>
<!-- Node2 -->
<g id="node2" class="node">
<title>Node2</title>
<g id="a_node2"><a xlink:href="studio_8h.html" target="_top" xlink:title=" ">
<polygon fill="white" stroke="black" points="817.04,-224.5 817.04,-243.5 912.04,-243.5 912.04,-224.5 817.04,-224.5"/>
<text text-anchor="middle" x="864.54" y="-231.5" font-family="FreeSans" font-size="10.00">magick/studio.h</text>
</a>
</g>
</g>
<!-- Node1&#45;&gt;Node2 -->
<g id="edge1" class="edge">
<title>Node1&#45;&gt;Node2</title>
<path fill="none" stroke="midnightblue" d="M2203.48,-343.97C2101.17,-340.09 1738.64,-325.28 1440.54,-300 1250.33,-283.87 1025.76,-255.96 922.18,-242.58"/>
<polygon fill="midnightblue" stroke="midnightblue" points="922.61,-239.1 912.24,-241.29 921.71,-246.05 922.61,-239.1"/>
</g>
<!-- Node24 -->
<g id="node23" class="node">
<title>Node24</title>
<g id="a_node23"><a xlink:href="attribute_8h.html" target="_top" xlink:title=" ">
<polygon fill="white" stroke="black" points="1839.04,-280.5 1839.04,-299.5 1946.04,-299.5 1946.04,-280.5 1839.04,-280.5"/>
<text text-anchor="middle" x="1892.54" y="-287.5" font-family="FreeSans" font-size="10.00">magick/attribute.h</text>
</a>
</g>
</g>
<!-- Node1&#45;&gt;Node24 -->
<g id="edge23" class="edge">
<title>Node1&#45;&gt;Node24</title>
<path fill="none" stroke="midnightblue" d="M2203.51,-340.54C2149.65,-331.96 2030.47,-312.97 1956.29,-301.16"/>
<polygon fill="midnightblue" stroke="midnightblue" points="1956.56,-297.65 1946.13,-299.54 1955.46,-304.57 1956.56,-297.65"/>
</g>
<!-- Node25 -->
<g id="node24" class="node">
<title>Node25</title>
<g id="a_node24"><a xlink:href="image_8h.html" target="_top" xlink:title=" ">
<polygon fill="white" stroke="red" points="1927.04,-224.5 1927.04,-243.5 2022.04,-243.5 2022.04,-224.5 1927.04,-224.5"/>
<text text-anchor="middle" x="1974.54" y="-231.5" font-family="FreeSans" font-size="10.00">magick/image.h</text>
</a>
</g>
</g>
<!-- Node1&#45;&gt;Node25 -->
<g id="edge54" class="edge">
<title>Node1&#45;&gt;Node25</title>
<path fill="none" stroke="midnightblue" d="M2203.3,-344.96C2160.97,-343.65 2080.03,-336.13 2023.54,-300 2005.55,-288.49 1991.72,-267.92 1983.41,-253"/>
<polygon fill="midnightblue" stroke="midnightblue" points="1986.3,-250.97 1978.56,-243.75 1980.11,-254.23 1986.3,-250.97"/>
</g>
<!-- Node26 -->
<g id="node25" class="node">
<title>Node26</title>
<g id="a_node25"><a xlink:href="color_8h.html" target="_top" xlink:title=" ">
<polygon fill="white" stroke="black" points="1827.54,-168.5 1827.54,-187.5 1915.54,-187.5 1915.54,-168.5 1827.54,-168.5"/>
<text text-anchor="middle" x="1871.54" y="-175.5" font-family="FreeSans" font-size="10.00">magick/color.h</text>
</a>
</g>
</g>
<!-- Node1&#45;&gt;Node26 -->
<g id="edge43" class="edge">
<title>Node1&#45;&gt;Node26</title>
<path fill="none" stroke="midnightblue" d="M2203.47,-344.08C2114.4,-340.89 1842.4,-328.82 1816.54,-300 1788.17,-268.39 1829.03,-219.68 1854.24,-194.8"/>
<polygon fill="midnightblue" stroke="midnightblue" points="1856.95,-197.05 1861.76,-187.61 1852.11,-191.99 1856.95,-197.05"/>
</g>
<!-- Node30 -->
<g id="node27" class="node">
<title>Node30</title>
<g id="a_node27"><a xlink:href="exception_8h.html" target="_top" xlink:title=" ">
<polygon fill="white" stroke="red" points="1600.04,-56.5 1600.04,-75.5 1713.04,-75.5 1713.04,-56.5 1600.04,-56.5"/>
<text text-anchor="middle" x="1656.54" y="-63.5" font-family="FreeSans" font-size="10.00">magick/exception.h</text>
</a>
</g>
</g>
<!-- Node1&#45;&gt;Node30 -->
<g id="edge50" class="edge">
<title>Node1&#45;&gt;Node30</title>
<path fill="none" stroke="midnightblue" d="M2203.24,-344.04C2100.9,-340.37 1750.28,-326.15 1641.54,-300 1578.78,-284.91 1543.31,-297.73 1507.54,-244 1494.28,-224.09 1509.93,-159.1 1556.54,-112 1571.89,-96.49 1593.54,-85.84 1612.78,-78.82"/>
<polygon fill="midnightblue" stroke="midnightblue" points="1613.95,-82.12 1622.28,-75.56 1611.68,-75.5 1613.95,-82.12"/>
</g>
<!-- Node43 -->
<g id="node29" class="node">
<title>Node43</title>
<g id="a_node29"><a xlink:href="monitor_8h.html" target="_top" xlink:title=" ">
<polygon fill="white" stroke="black" points="1933.54,-168.5 1933.54,-187.5 2035.54,-187.5 2035.54,-168.5 1933.54,-168.5"/>
<text text-anchor="middle" x="1984.54" y="-175.5" font-family="FreeSans" font-size="10.00">magick/monitor.h</text>
</a>
</g>
</g>
<!-- Node1&#45;&gt;Node43 -->
<g id="edge58" class="edge">
<title>Node1&#45;&gt;Node43</title>
<path fill="none" stroke="midnightblue" d="M2203.43,-343.98C2116.21,-340.52 1854.47,-327.88 1829.54,-300 1787.37,-252.85 1887.44,-210.57 1945.94,-190.81"/>
<polygon fill="midnightblue" stroke="midnightblue" points="1947.24,-194.06 1955.64,-187.61 1945.04,-187.41 1947.24,-194.06"/>
</g>
<!-- Node44 -->
<g id="node30" class="node">
<title>Node44</title>
<g id="a_node30"><a xlink:href="profile_8h.html" target="_top" xlink:title=" ">
<polygon fill="white" stroke="black" points="1676.04,-168.5 1676.04,-187.5 1771.04,-187.5 1771.04,-168.5 1676.04,-168.5"/>
<text text-anchor="middle" x="1723.54" y="-175.5" font-family="FreeSans" font-size="10.00">magick/profile.h</text>
</a>
</g>
</g>
<!-- Node1&#45;&gt;Node44 -->
<g id="edge62" class="edge">
<title>Node1&#45;&gt;Node44</title>
<path fill="none" stroke="midnightblue" d="M2203.36,-345.11C2119.15,-344.97 1871.08,-341.01 1803.54,-300 1764.2,-276.12 1740.26,-224.67 1729.78,-197.19"/>
<polygon fill="midnightblue" stroke="midnightblue" points="1733.01,-195.84 1726.31,-187.63 1726.43,-198.22 1733.01,-195.84"/>
</g>
<!-- Node45 -->
<g id="node31" class="node">
<title>Node45</title>
<g id="a_node31"><a xlink:href="string___8h.html" target="_top" xlink:title=" ">
<polygon fill="white" stroke="black" points="1565.54,-112.5 1565.54,-131.5 1663.54,-131.5 1663.54,-112.5 1565.54,-112.5"/>
<text text-anchor="middle" x="1614.54" y="-119.5" font-family="FreeSans" font-size="10.00">magick/string_.h</text>
</a>
</g>
</g>
<!-- Node1&#45;&gt;Node45 -->
<g id="edge71" class="edge">
<title>Node1&#45;&gt;Node45</title>
<path fill="none" stroke="midnightblue" d="M2203.49,-344.7C2116.52,-343.4 1852.7,-336.46 1776.54,-300 1702.04,-264.33 1645.76,-177.73 1624.17,-140.5"/>
<polygon fill="midnightblue" stroke="midnightblue" points="1627.2,-138.74 1619.22,-131.77 1621.11,-142.19 1627.2,-138.74"/>
</g>
<!-- Node46 -->
<g id="node32" class="node">
<title>Node46</title>
<g id="a_node32"><a xlink:href="quantum_8h.html" target="_top" xlink:title=" ">
<polygon fill="white" stroke="red" points="2091.54,-168.5 2091.54,-187.5 2199.54,-187.5 2199.54,-168.5 2091.54,-168.5"/>
<text text-anchor="middle" x="2145.54" y="-175.5" font-family="FreeSans" font-size="10.00">magick/quantum.h</text>
</a>
</g>
</g>
<!-- Node1&#45;&gt;Node46 -->
<g id="edge64" class="edge">
<title>Node1&#45;&gt;Node46</title>
<path fill="none" stroke="midnightblue" d="M2224.36,-336.43C2217.23,-327.65 2206.28,-313.43 2198.54,-300 2178.48,-265.19 2161.06,-221.37 2152.05,-197.16"/>
<polygon fill="midnightblue" stroke="midnightblue" points="2155.25,-195.71 2148.53,-187.52 2148.68,-198.12 2155.25,-195.71"/>
</g>
<!-- Node51 -->
<g id="node33" class="node">
<title>Node51</title>
<g id="a_node33"><a xlink:href="cache_8h.html" target="_top" xlink:title=" ">
<polygon fill="white" stroke="black" points="2919.04,-224.5 2919.04,-243.5 3012.04,-243.5 3012.04,-224.5 2919.04,-224.5"/>
<text text-anchor="middle" x="2965.54" y="-231.5" font-family="FreeSans" font-size="10.00">magick/cache.h</text>
</a>
</g>
</g>
<!-- Node1&#45;&gt;Node51 -->
<g id="edge41" class="edge">
<title>Node1&#45;&gt;Node51</title>
<path fill="none" stroke="midnightblue" d="M2259.76,-344.59C2404.03,-342.33 3053.58,-330.53 3082.54,-300 3106.74,-274.48 3061.42,-256.42 3020.33,-245.91"/>
<polygon fill="midnightblue" stroke="midnightblue" points="3021.11,-242.5 3010.57,-243.53 3019.45,-249.3 3021.11,-242.5"/>
</g>
<!-- Node52 -->
<g id="node34" class="node">
<title>Node52</title>
<g id="a_node34"><a xlink:href="colorspace-private_8h.html" target="_top" xlink:title=" ">
<polygon fill="white" stroke="red" points="2207.04,-280.5 2207.04,-299.5 2362.04,-299.5 2362.04,-280.5 2207.04,-280.5"/>
<text text-anchor="middle" x="2284.54" y="-287.5" font-family="FreeSans" font-size="10.00">magick/colorspace&#45;private.h</text>
</a>
</g>
</g>
<!-- Node1&#45;&gt;Node52 -->
<g id="edge44" class="edge">
<title>Node1&#45;&gt;Node52</title>
<path fill="none" stroke="midnightblue" d="M2240.29,-336.08C2248.01,-328.22 2259.44,-316.57 2268.76,-307.08"/>
<polygon fill="midnightblue" stroke="midnightblue" points="2271.44,-309.34 2275.95,-299.75 2266.45,-304.44 2271.44,-309.34"/>
</g>
<!-- Node60 -->
<g id="node36" class="node">
<title>Node60</title>
<g id="a_node36"><a xlink:href="configure_8h.html" target="_top" xlink:title=" ">
<polygon fill="white" stroke="black" points="2040.54,-280.5 2040.54,-299.5 2150.54,-299.5 2150.54,-280.5 2040.54,-280.5"/>
<text text-anchor="middle" x="2095.54" y="-287.5" font-family="FreeSans" font-size="10.00">magick/configure.h</text>
</a>
</g>
</g>
<!-- Node1&#45;&gt;Node60 -->
<g id="edge48" class="edge">
<title>Node1&#45;&gt;Node60</title>
<path fill="none" stroke="midnightblue" d="M2209.99,-336.44C2187.51,-327.52 2152.05,-313.44 2126.56,-303.32"/>
<polygon fill="midnightblue" stroke="midnightblue" points="2127.57,-299.95 2116.99,-299.52 2124.99,-306.46 2127.57,-299.95"/>
</g>
<!-- Node42 -->
<g id="node37" class="node">
<title>Node42</title>
<g id="a_node37"><a xlink:href="hashmap_8h.html" target="_top" xlink:title=" ">
<polygon fill="white" stroke="black" points="2040.54,-224.5 2040.54,-243.5 2150.54,-243.5 2150.54,-224.5 2040.54,-224.5"/>
<text text-anchor="middle" x="2095.54" y="-231.5" font-family="FreeSans" font-size="10.00">magick/hashmap.h</text>
</a>
</g>
</g>
<!-- Node1&#45;&gt;Node42 -->
<g id="edge53" class="edge">
<title>Node1&#45;&gt;Node42</title>
<path fill="none" stroke="midnightblue" d="M2203.51,-342.9C2153.65,-338.53 2052.77,-326.54 2031.54,-300 2016.17,-280.79 2043.03,-260.95 2066.52,-248.33"/>
<polygon fill="midnightblue" stroke="midnightblue" points="2068.28,-251.36 2075.59,-243.7 2065.1,-245.13 2068.28,-251.36"/>
</g>
<!-- Node61 -->
<g id="node38" class="node">
<title>Node61</title>
<g id="a_node38"><a xlink:href="exception-private_8h.html" target="_top" xlink:title=" ">
<polygon fill="white" stroke="red" points="1517.04,-224.5 1517.04,-243.5 1668.04,-243.5 1668.04,-224.5 1517.04,-224.5"/>
<text text-anchor="middle" x="1592.54" y="-231.5" font-family="FreeSans" font-size="10.00">magick/exception&#45;private.h</text>
</a>
</g>
</g>
<!-- Node1&#45;&gt;Node61 -->
<g id="edge51" class="edge">
<title>Node1&#45;&gt;Node61</title>
<path fill="none" stroke="midnightblue" d="M2203.3,-344.68C2105.16,-343.25 1779.65,-335.85 1682.54,-300 1653.33,-289.22 1625.14,-266.15 1608.32,-250.61"/>
<polygon fill="midnightblue" stroke="midnightblue" points="1610.68,-248.02 1601.02,-243.67 1605.85,-253.09 1610.68,-248.02"/>
</g>
<!-- Node64 -->
<g id="node39" class="node">
<title>Node64</title>
<g id="a_node39"><a xlink:href="memory___8h.html" target="_top" xlink:title=" ">
<polygon fill="white" stroke="black" points="1349.04,-224.5 1349.04,-243.5 1460.04,-243.5 1460.04,-224.5 1349.04,-224.5"/>
<text text-anchor="middle" x="1404.54" y="-231.5" font-family="FreeSans" font-size="10.00">magick/memory_.h</text>
</a>
</g>
</g>
<!-- Node1&#45;&gt;Node64 -->
<g id="edge55" class="edge">
<title>Node1&#45;&gt;Node64</title>
<path fill="none" stroke="midnightblue" d="M2203.49,-344.45C2074.61,-341.78 1542.56,-329.07 1474.54,-300 1450.57,-289.76 1429.65,-267.59 1417.07,-252.01"/>
<polygon fill="midnightblue" stroke="midnightblue" points="1419.55,-249.5 1410.66,-243.73 1414.01,-253.78 1419.55,-249.5"/>
</g>
<!-- Node65 -->
<g id="node40" class="node">
<title>Node65</title>
<g id="a_node40"><a xlink:href="monitor-private_8h.html" target="_top" xlink:title=" ">
<polygon fill="white" stroke="black" points="2545.04,-280.5 2545.04,-299.5 2686.04,-299.5 2686.04,-280.5 2545.04,-280.5"/>
<text text-anchor="middle" x="2615.54" y="-287.5" font-family="FreeSans" font-size="10.00">magick/monitor&#45;private.h</text>
</a>
</g>
</g>
<!-- Node1&#45;&gt;Node65 -->
<g id="edge59" class="edge">
<title>Node1&#45;&gt;Node65</title>
<path fill="none" stroke="midnightblue" d="M2259.78,-341.03C2319.28,-332.66 2459.09,-313 2544.66,-300.97"/>
<polygon fill="midnightblue" stroke="midnightblue" points="2545.4,-304.4 2554.82,-299.54 2544.43,-297.47 2545.4,-304.4"/>
</g>
<!-- Node66 -->
<g id="node41" class="node">
<title>Node66</title>
<g id="a_node41"><a xlink:href="option_8h.html" target="_top" xlink:title=" ">
<polygon fill="white" stroke="black" points="2704.04,-280.5 2704.04,-299.5 2799.04,-299.5 2799.04,-280.5 2704.04,-280.5"/>
<text text-anchor="middle" x="2751.54" y="-287.5" font-family="FreeSans" font-size="10.00">magick/option.h</text>
</a>
</g>
</g>
<!-- Node1&#45;&gt;Node66 -->
<g id="edge60" class="edge">
<title>Node1&#45;&gt;Node66</title>
<path fill="none" stroke="midnightblue" d="M2259.59,-342.9C2330.54,-337.44 2523.06,-321.83 2693.74,-300.17"/>
<polygon fill="midnightblue" stroke="midnightblue" points="2694.43,-303.6 2703.91,-298.86 2693.55,-296.66 2694.43,-303.6"/>
</g>
<!-- Node67 -->
<g id="node42" class="node">
<title>Node67</title>
<g id="a_node42"><a xlink:href="option-private_8h.html" target="_top" xlink:title=" ">
<polygon fill="white" stroke="black" points="2817.54,-280.5 2817.54,-299.5 2951.54,-299.5 2951.54,-280.5 2817.54,-280.5"/>
<text text-anchor="middle" x="2884.54" y="-287.5" font-family="FreeSans" font-size="10.00">magick/option&#45;private.h</text>
</a>
</g>
</g>
<!-- Node1&#45;&gt;Node67 -->
<g id="edge61" class="edge">
<title>Node1&#45;&gt;Node67</title>
<path fill="none" stroke="midnightblue" d="M2259.79,-343.2C2342.32,-337.85 2590.38,-321.18 2807.43,-300.07"/>
<polygon fill="midnightblue" stroke="midnightblue" points="2807.81,-303.55 2817.42,-299.1 2807.12,-296.59 2807.81,-303.55"/>
</g>
<!-- Node68 -->
<g id="node43" class="node">
<title>Node68</title>
<g id="a_node43"><a xlink:href="property_8h.html" target="_top" xlink:title=" ">
<polygon fill="white" stroke="black" points="2969.54,-280.5 2969.54,-299.5 3073.54,-299.5 3073.54,-280.5 2969.54,-280.5"/>
<text text-anchor="middle" x="3021.54" y="-287.5" font-family="FreeSans" font-size="10.00">magick/property.h</text>
</a>
</g>
</g>
<!-- Node1&#45;&gt;Node68 -->
<g id="edge63" class="edge">
<title>Node1&#45;&gt;Node68</title>
<path fill="none" stroke="midnightblue" d="M2259.76,-344.12C2356,-340.94 2680.39,-328.72 2959.02,-300.07"/>
<polygon fill="midnightblue" stroke="midnightblue" points="2959.75,-303.51 2969.33,-299 2959.02,-296.55 2959.75,-303.51"/>
</g>
<!-- Node69 -->
<g id="node44" class="node">
<title>Node69</title>
<g id="a_node44"><a xlink:href="quantum-private_8h.html" target="_top" xlink:title=" ">
<polygon fill="white" stroke="red" points="2380.54,-280.5 2380.54,-299.5 2526.54,-299.5 2526.54,-280.5 2380.54,-280.5"/>
<text text-anchor="middle" x="2453.54" y="-287.5" font-family="FreeSans" font-size="10.00">magick/quantum&#45;private.h</text>
</a>
</g>
</g>
<!-- Node1&#45;&gt;Node69 -->
<g id="edge65" class="edge">
<title>Node1&#45;&gt;Node69</title>
<path fill="none" stroke="midnightblue" d="M2259.66,-338.16C2297.11,-329.05 2363.81,-312.83 2408.36,-301.99"/>
<polygon fill="midnightblue" stroke="midnightblue" points="2409.45,-305.33 2418.34,-299.56 2407.8,-298.52 2409.45,-305.33"/>
</g>
<!-- Node70 -->
<g id="node45" class="node">
<title>Node70</title>
<g id="a_node45"><a xlink:href="resource___8h.html" target="_top" xlink:title=" ">
<polygon fill="white" stroke="black" points="3275.54,-224.5 3275.54,-243.5 3387.54,-243.5 3387.54,-224.5 3275.54,-224.5"/>
<text text-anchor="middle" x="3331.54" y="-231.5" font-family="FreeSans" font-size="10.00">magick/resource_.h</text>
</a>
</g>
</g>
<!-- Node1&#45;&gt;Node70 -->
<g id="edge69" class="edge">
<title>Node1&#45;&gt;Node70</title>
<path fill="none" stroke="midnightblue" d="M2259.62,-345.14C2446.82,-345.92 3507.94,-348.21 3554.54,-300 3603.84,-248.99 3480.09,-237.39 3397.83,-235.13"/>
<polygon fill="midnightblue" stroke="midnightblue" points="3397.85,-231.63 3387.77,-234.89 3397.69,-238.63 3397.85,-231.63"/>
</g>
<!-- Node71 -->
<g id="node46" class="node">
<title>Node71</title>
<g id="a_node46"><a xlink:href="splay-tree_8h.html" target="_top" xlink:title=" ">
<polygon fill="white" stroke="black" points="3281.54,-280.5 3281.54,-299.5 3395.54,-299.5 3395.54,-280.5 3281.54,-280.5"/>
<text text-anchor="middle" x="3338.54" y="-287.5" font-family="FreeSans" font-size="10.00">magick/splay&#45;tree.h</text>
</a>
</g>
</g>
<!-- Node1&#45;&gt;Node71 -->
<g id="edge70" class="edge">
<title>Node1&#45;&gt;Node71</title>
<path fill="none" stroke="midnightblue" d="M2259.76,-344.74C2380.23,-343.41 2863.53,-336.04 3271.12,-300.04"/>
<polygon fill="midnightblue" stroke="midnightblue" points="3271.69,-303.5 3281.34,-299.13 3271.07,-296.53 3271.69,-303.5"/>
</g>
<!-- Node72 -->
<g id="node47" class="node">
<title>Node72</title>
<g id="a_node47"><a xlink:href="string-private_8h.html" target="_top" xlink:title=" ">
<polygon fill="white" stroke="red" points="3414.04,-280.5 3414.04,-299.5 3545.04,-299.5 3545.04,-280.5 3414.04,-280.5"/>
<text text-anchor="middle" x="3479.54" y="-287.5" font-family="FreeSans" font-size="10.00">magick/string&#45;private.h</text>
</a>
</g>
</g>
<!-- Node1&#45;&gt;Node72 -->
<g id="edge72" class="edge">
<title>Node1&#45;&gt;Node72</title>
<path fill="none" stroke="midnightblue" d="M2259.73,-344.76C2389.25,-343.49 2940.29,-336.16 3403.48,-300.01"/>
<polygon fill="midnightblue" stroke="midnightblue" points="3404.02,-303.48 3413.72,-299.2 3403.48,-296.5 3404.02,-303.48"/>
</g>
<!-- Node74 -->
<g id="node48" class="node">
<title>Node74</title>
<g id="a_node48"><a xlink:href="thread-private_8h.html" target="_top" xlink:title=" ">
<polygon fill="white" stroke="red" points="3129.54,-280.5 3129.54,-299.5 3263.54,-299.5 3263.54,-280.5 3129.54,-280.5"/>
<text text-anchor="middle" x="3196.54" y="-287.5" font-family="FreeSans" font-size="10.00">magick/thread&#45;private.h</text>
</a>
</g>
</g>
<!-- Node1&#45;&gt;Node74 -->
<g id="edge73" class="edge">
<title>Node1&#45;&gt;Node74</title>
<path fill="none" stroke="midnightblue" d="M2259.82,-344.18C2369.77,-340.84 2779.33,-327.21 3115.54,-300 3116.81,-299.9 3118.09,-299.79 3119.38,-299.68"/>
<polygon fill="midnightblue" stroke="midnightblue" points="3119.74,-303.16 3129.38,-298.77 3119.11,-296.19 3119.74,-303.16"/>
</g>
<!-- Node76 -->
<g id="node49" class="node">
<title>Node76</title>
<g id="a_node49"><a xlink:href="token_8h.html" target="_top" xlink:title=" ">
<polygon fill="white" stroke="black" points="3601.54,-280.5 3601.54,-299.5 3693.54,-299.5 3693.54,-280.5 3601.54,-280.5"/>
<text text-anchor="middle" x="3647.54" y="-287.5" font-family="FreeSans" font-size="10.00">magick/token.h</text>
</a>
</g>
</g>
<!-- Node1&#45;&gt;Node76 -->
<g id="edge77" class="edge">
<title>Node1&#45;&gt;Node76</title>
<path fill="none" stroke="midnightblue" d="M2259.77,-345.27C2402.16,-346.4 3055.65,-348.55 3587.54,-300 3588.81,-299.88 3590.09,-299.76 3591.38,-299.63"/>
<polygon fill="midnightblue" stroke="midnightblue" points="3591.88,-303.09 3601.42,-298.47 3591.08,-296.14 3591.88,-303.09"/>
</g>
<!-- Node77 -->
<g id="node50" class="node">
<title>Node77</title>
<g id="a_node50"><a xlink:href="utility_8h.html" target="_top" xlink:title=" ">
<polygon fill="white" stroke="black" points="3711.54,-280.5 3711.54,-299.5 3803.54,-299.5 3803.54,-280.5 3711.54,-280.5"/>
<text text-anchor="middle" x="3757.54" y="-287.5" font-family="FreeSans" font-size="10.00">magick/utility.h</text>
</a>
</g>
</g>
<!-- Node1&#45;&gt;Node77 -->
<g id="edge78" class="edge">
<title>Node1&#45;&gt;Node77</title>
<path fill="none" stroke="midnightblue" d="M2259.55,-344.65C2435.11,-342.36 3386.46,-328.85 3701.35,-299.95"/>
<polygon fill="midnightblue" stroke="midnightblue" points="3701.76,-303.43 3711.38,-299.01 3701.1,-296.46 3701.76,-303.43"/>
</g>
<!-- Node3 -->
<g id="node3" class="node">
<title>Node3</title>
<g id="a_node3"><a xlink:href="magick-config_8h.html" target="_top" xlink:title=" ">
<polygon fill="white" stroke="red" points="502.54,-112.5 502.54,-131.5 636.54,-131.5 636.54,-112.5 502.54,-112.5"/>
<text text-anchor="middle" x="569.54" y="-119.5" font-family="FreeSans" font-size="10.00">magick/magick&#45;config.h</text>
</a>
</g>
</g>
<!-- Node2&#45;&gt;Node3 -->
<g id="edge2" class="edge">
<title>Node2&#45;&gt;Node3</title>
<path fill="none" stroke="midnightblue" d="M838.88,-224.43C814.32,-215.98 776.41,-202.3 744.54,-188 727.12,-180.19 724.11,-175.45 706.54,-168 674.92,-154.6 637.86,-142.64 610.26,-134.43"/>
<polygon fill="midnightblue" stroke="midnightblue" points="611.13,-131.03 600.55,-131.57 609.16,-137.75 611.13,-131.03"/>
</g>
<!-- Node5 -->
<g id="node4" class="node">
<title>Node5</title>
<g id="a_node4"><a xlink:title=" ">
<polygon fill="white" stroke="#bfbfbf" points="1543.54,-0.5 1543.54,-19.5 1599.54,-19.5 1599.54,-0.5 1543.54,-0.5"/>
<text text-anchor="middle" x="1571.54" y="-7.5" font-family="FreeSans" font-size="10.00">stdarg.h</text>
</a>
</g>
</g>
<!-- Node2&#45;&gt;Node5 -->
<g id="edge3" class="edge">
<title>Node2&#45;&gt;Node5</title>
<path fill="none" stroke="midnightblue" d="M817,-232.3C640.66,-229.49 32.68,-217.65 4.54,-188 -1.58,-181.55 -1.38,-174.63 4.54,-168 109.74,-50.07 1303.07,-17.09 1533.25,-11.81"/>
<polygon fill="midnightblue" stroke="midnightblue" points="1533.55,-15.31 1543.47,-11.58 1533.4,-8.31 1533.55,-15.31"/>
</g>
<!-- Node6 -->
<g id="node5" class="node">
<title>Node6</title>
<g id="a_node5"><a xlink:title=" ">
<polygon fill="white" stroke="#bfbfbf" points="839.54,-168.5 839.54,-187.5 889.54,-187.5 889.54,-168.5 839.54,-168.5"/>
<text text-anchor="middle" x="864.54" y="-175.5" font-family="FreeSans" font-size="10.00">stdio.h</text>
</a>
</g>
</g>
<!-- Node2&#45;&gt;Node6 -->
<g id="edge4" class="edge">
<title>Node2&#45;&gt;Node6</title>
<path fill="none" stroke="midnightblue" d="M864.54,-224.08C864.54,-217.01 864.54,-206.86 864.54,-197.99"/>
<polygon fill="midnightblue" stroke="midnightblue" points="868.04,-197.75 864.54,-187.75 861.04,-197.75 868.04,-197.75"/>
</g>
<!-- Node7 -->
<g id="node6" class="node">
<title>Node7</title>
<g id="a_node6"><a xlink:title=" ">
<polygon fill="white" stroke="#bfbfbf" points="908.04,-168.5 908.04,-187.5 961.04,-187.5 961.04,-168.5 908.04,-168.5"/>
<text text-anchor="middle" x="934.54" y="-175.5" font-family="FreeSans" font-size="10.00">ctype.h</text>
</a>
</g>
</g>
<!-- Node2&#45;&gt;Node7 -->
<g id="edge5" class="edge">
<title>Node2&#45;&gt;Node7</title>
<path fill="none" stroke="midnightblue" d="M875.79,-224.32C886.34,-216.18 902.34,-203.84 914.98,-194.09"/>
<polygon fill="midnightblue" stroke="midnightblue" points="917.31,-196.71 923.09,-187.83 913.03,-191.17 917.31,-196.71"/>
</g>
<!-- Node8 -->
<g id="node7" class="node">
<title>Node8</title>
<g id="a_node7"><a xlink:title=" ">
<polygon fill="white" stroke="#bfbfbf" points="979.04,-168.5 979.04,-187.5 1034.04,-187.5 1034.04,-168.5 979.04,-168.5"/>
<text text-anchor="middle" x="1006.54" y="-175.5" font-family="FreeSans" font-size="10.00">locale.h</text>
</a>
</g>
</g>
<!-- Node2&#45;&gt;Node8 -->
<g id="edge6" class="edge">
<title>Node2&#45;&gt;Node8</title>
<path fill="none" stroke="midnightblue" d="M887.04,-224.44C910.62,-215.48 947.86,-201.31 974.5,-191.18"/>
<polygon fill="midnightblue" stroke="midnightblue" points="976.04,-194.34 984.14,-187.52 973.55,-187.8 976.04,-194.34"/>
</g>
<!-- Node9 -->
<g id="node8" class="node">
<title>Node9</title>
<g id="a_node8"><a xlink:title=" ">
<polygon fill="white" stroke="#bfbfbf" points="1443.04,-168.5 1443.04,-187.5 1494.04,-187.5 1494.04,-168.5 1443.04,-168.5"/>
<text text-anchor="middle" x="1468.54" y="-175.5" font-family="FreeSans" font-size="10.00">errno.h</text>
</a>
</g>
</g>
<!-- Node2&#45;&gt;Node9 -->
<g id="edge7" class="edge">
<title>Node2&#45;&gt;Node9</title>
<path fill="none" stroke="midnightblue" d="M912.09,-232.01C1008.57,-229.4 1234.31,-220.27 1432.99,-187.77"/>
<polygon fill="midnightblue" stroke="midnightblue" points="1433.74,-191.19 1443.03,-186.1 1432.6,-184.29 1433.74,-191.19"/>
</g>
<!-- Node10 -->
<g id="node9" class="node">
<title>Node10</title>
<g id="a_node9"><a xlink:title=" ">
<polygon fill="white" stroke="#bfbfbf" points="1052.04,-168.5 1052.04,-187.5 1099.04,-187.5 1099.04,-168.5 1052.04,-168.5"/>
<text text-anchor="middle" x="1075.54" y="-175.5" font-family="FreeSans" font-size="10.00">fcntl.h</text>
</a>
</g>
</g>
<!-- Node2&#45;&gt;Node10 -->
<g id="edge8" class="edge">
<title>Node2&#45;&gt;Node10</title>
<path fill="none" stroke="midnightblue" d="M899.04,-224.48C932.91,-216.07 986.27,-202.7 1041.75,-188.17"/>
<polygon fill="midnightblue" stroke="midnightblue" points="1042.98,-191.47 1051.76,-185.54 1041.2,-184.7 1042.98,-191.47"/>
</g>
<!-- Node11 -->
<g id="node10" class="node">
<title>Node11</title>
<g id="a_node10"><a xlink:title=" ">
<polygon fill="white" stroke="#bfbfbf" points="1117.04,-168.5 1117.04,-187.5 1168.04,-187.5 1168.04,-168.5 1117.04,-168.5"/>
<text text-anchor="middle" x="1142.54" y="-175.5" font-family="FreeSans" font-size="10.00">math.h</text>
</a>
</g>
</g>
<!-- Node2&#45;&gt;Node11 -->
<g id="edge9" class="edge">
<title>Node2&#45;&gt;Node11</title>
<path fill="none" stroke="midnightblue" d="M912.23,-225.16C959.25,-217.21 1033.38,-204.09 1107.05,-187.98"/>
<polygon fill="midnightblue" stroke="midnightblue" points="1107.96,-191.36 1116.97,-185.79 1106.45,-184.53 1107.96,-191.36"/>
</g>
<!-- Node12 -->
<g id="node11" class="node">
<title>Node12</title>
<g id="a_node11"><a xlink:title=" ">
<polygon fill="white" stroke="#bfbfbf" points="1427.54,-56.5 1427.54,-75.5 1475.54,-75.5 1475.54,-56.5 1427.54,-56.5"/>
<text text-anchor="middle" x="1451.54" y="-63.5" font-family="FreeSans" font-size="10.00">time.h</text>
</a>
</g>
</g>
<!-- Node2&#45;&gt;Node12 -->
<g id="edge10" class="edge">
<title>Node2&#45;&gt;Node12</title>
<path fill="none" stroke="midnightblue" d="M912.32,-232.1C1014.02,-229.58 1248.51,-220.34 1320.54,-188 1373.07,-164.41 1418.41,-111.24 1439.29,-83.91"/>
<polygon fill="midnightblue" stroke="midnightblue" points="1442.23,-85.82 1445.4,-75.72 1436.62,-81.64 1442.23,-85.82"/>
</g>
<!-- Node13 -->
<g id="node12" class="node">
<title>Node13</title>
<g id="a_node12"><a xlink:title=" ">
<polygon fill="white" stroke="#bfbfbf" points="1186.04,-168.5 1186.04,-187.5 1239.04,-187.5 1239.04,-168.5 1186.04,-168.5"/>
<text text-anchor="middle" x="1212.54" y="-175.5" font-family="FreeSans" font-size="10.00">limits.h</text>
</a>
</g>
</g>
<!-- Node2&#45;&gt;Node13 -->
<g id="edge11" class="edge">
<title>Node2&#45;&gt;Node13</title>
<path fill="none" stroke="midnightblue" d="M912.1,-227.67C971.52,-220.67 1076.46,-207.19 1175.95,-187.93"/>
<polygon fill="midnightblue" stroke="midnightblue" points="1176.73,-191.35 1185.87,-185.99 1175.38,-184.48 1176.73,-191.35"/>
</g>
<!-- Node14 -->
<g id="node13" class="node">
<title>Node14</title>
<g id="a_node13"><a xlink:title=" ">
<polygon fill="white" stroke="#bfbfbf" points="1257.04,-168.5 1257.04,-187.5 1312.04,-187.5 1312.04,-168.5 1257.04,-168.5"/>
<text text-anchor="middle" x="1284.54" y="-175.5" font-family="FreeSans" font-size="10.00">signal.h</text>
</a>
</g>
</g>
<!-- Node2&#45;&gt;Node14 -->
<g id="edge12" class="edge">
<title>Node2&#45;&gt;Node14</title>
<path fill="none" stroke="midnightblue" d="M912.28,-229.27C983.17,-223.32 1120.57,-210.21 1246.89,-187.91"/>
<polygon fill="midnightblue" stroke="midnightblue" points="1247.51,-191.35 1256.74,-186.15 1246.28,-184.46 1247.51,-191.35"/>
</g>
<!-- Node15 -->
<g id="node14" class="node">
<title>Node15</title>
<g id="a_node14"><a xlink:title=" ">
<polygon fill="white" stroke="#bfbfbf" points="1368.54,-168.5 1368.54,-187.5 1424.54,-187.5 1424.54,-168.5 1368.54,-168.5"/>
<text text-anchor="middle" x="1396.54" y="-175.5" font-family="FreeSans" font-size="10.00">assert.h</text>
</a>
</g>
</g>
<!-- Node2&#45;&gt;Node15 -->
<g id="edge13" class="edge">
<title>Node2&#45;&gt;Node15</title>
<path fill="none" stroke="midnightblue" d="M912.07,-230.53C999.87,-225.54 1193.24,-212.6 1354.54,-188 1355.78,-187.81 1357.05,-187.61 1358.32,-187.39"/>
<polygon fill="midnightblue" stroke="midnightblue" points="1358.97,-190.83 1368.16,-185.56 1357.69,-183.95 1358.97,-190.83"/>
</g>
<!-- Node16 -->
<g id="node15" class="node">
<title>Node16</title>
<g id="a_node15"><a xlink:href="method-attribute_8h.html" target="_top" xlink:title=" ">
<polygon fill="white" stroke="black" points="13.54,-168.5 13.54,-187.5 161.54,-187.5 161.54,-168.5 13.54,-168.5"/>
<text text-anchor="middle" x="87.54" y="-175.5" font-family="FreeSans" font-size="10.00">magick/method&#45;attribute.h</text>
</a>
</g>
</g>
<!-- Node2&#45;&gt;Node16 -->
<g id="edge14" class="edge">
<title>Node2&#45;&gt;Node16</title>
<path fill="none" stroke="midnightblue" d="M816.95,-230.63C705.91,-224.93 420.87,-209.43 171.7,-188.07"/>
<polygon fill="midnightblue" stroke="midnightblue" points="172,-184.58 161.73,-187.21 171.4,-191.55 172,-184.58"/>
</g>
<!-- Node17 -->
<g id="node16" class="node">
<title>Node17</title>
<g id="a_node16"><a xlink:title=" ">
<polygon fill="white" stroke="#bfbfbf" points="179.54,-168.5 179.54,-187.5 251.54,-187.5 251.54,-168.5 179.54,-168.5"/>
<text text-anchor="middle" x="215.54" y="-175.5" font-family="FreeSans" font-size="10.00">sys/types.h</text>
</a>
</g>
</g>
<!-- Node2&#45;&gt;Node17 -->
<g id="edge15" class="edge">
<title>Node2&#45;&gt;Node17</title>
<path fill="none" stroke="midnightblue" d="M816.95,-231.45C716.3,-227.73 474.28,-216.53 261.91,-188.03"/>
<polygon fill="midnightblue" stroke="midnightblue" points="262.2,-184.53 251.82,-186.66 261.26,-191.47 262.2,-184.53"/>
</g>
<!-- Node18 -->
<g id="node17" class="node">
<title>Node18</title>
<g id="a_node17"><a xlink:title=" ">
<polygon fill="white" stroke="#bfbfbf" points="269.54,-168.5 269.54,-187.5 333.54,-187.5 333.54,-168.5 269.54,-168.5"/>
<text text-anchor="middle" x="301.54" y="-175.5" font-family="FreeSans" font-size="10.00">sys/stat.h</text>
</a>
</g>
</g>
<!-- Node2&#45;&gt;Node18 -->
<g id="edge16" class="edge">
<title>Node2&#45;&gt;Node18</title>
<path fill="none" stroke="midnightblue" d="M816.79,-230.96C726.32,-226.66 523.59,-214.85 343.6,-187.97"/>
<polygon fill="midnightblue" stroke="midnightblue" points="344.1,-184.51 333.69,-186.47 343.06,-191.43 344.1,-184.51"/>
</g>
<!-- Node19 -->
<g id="node18" class="node">
<title>Node19</title>
<g id="a_node18"><a xlink:title=" ">
<polygon fill="white" stroke="#bfbfbf" points="495.54,-168.5 495.54,-187.5 549.54,-187.5 549.54,-168.5 495.54,-168.5"/>
<text text-anchor="middle" x="522.54" y="-175.5" font-family="FreeSans" font-size="10.00">dirent.h</text>
</a>
</g>
</g>
<!-- Node2&#45;&gt;Node19 -->
<g id="edge17" class="edge">
<title>Node2&#45;&gt;Node19</title>
<path fill="none" stroke="midnightblue" d="M816.85,-227.47C758.44,-220.37 656.33,-206.9 559.55,-188.03"/>
<polygon fill="midnightblue" stroke="midnightblue" points="560.09,-184.57 549.6,-186.07 558.73,-191.44 560.09,-184.57"/>
</g>
<!-- Node20 -->
<g id="node19" class="node">
<title>Node20</title>
<g id="a_node19"><a xlink:title=" ">
<polygon fill="white" stroke="#bfbfbf" points="567.54,-168.5 567.54,-187.5 633.54,-187.5 633.54,-168.5 567.54,-168.5"/>
<text text-anchor="middle" x="600.54" y="-175.5" font-family="FreeSans" font-size="10.00">sys/wait.h</text>
</a>
</g>
</g>
<!-- Node2&#45;&gt;Node20 -->
<g id="edge18" class="edge">
<title>Node2&#45;&gt;Node20</title>
<path fill="none" stroke="midnightblue" d="M821.54,-224.43C778.89,-215.9 711.41,-202.31 643.56,-188.2"/>
<polygon fill="midnightblue" stroke="midnightblue" points="644.05,-184.72 633.55,-186.11 642.62,-191.58 644.05,-184.72"/>
</g>
<!-- Node21 -->
<g id="node20" class="node">
<title>Node21</title>
<g id="a_node20"><a xlink:title=" ">
<polygon fill="white" stroke="#bfbfbf" points="651.54,-168.5 651.54,-187.5 697.54,-187.5 697.54,-168.5 651.54,-168.5"/>
<text text-anchor="middle" x="674.54" y="-175.5" font-family="FreeSans" font-size="10.00">pwd.h</text>
</a>
</g>
</g>
<!-- Node2&#45;&gt;Node21 -->
<g id="edge19" class="edge">
<title>Node2&#45;&gt;Node21</title>
<path fill="none" stroke="midnightblue" d="M834.43,-224.44C799.86,-214.62 743.33,-198.55 707.57,-188.39"/>
<polygon fill="midnightblue" stroke="midnightblue" points="708.21,-184.93 697.63,-185.56 706.29,-191.66 708.21,-184.93"/>
</g>
<!-- Node22 -->
<g id="node21" class="node">
<title>Node22</title>
<g id="a_node21"><a xlink:href="magick-type_8h.html" target="_top" xlink:title=" ">
<polygon fill="white" stroke="black" points="351.54,-168.5 351.54,-187.5 477.54,-187.5 477.54,-168.5 351.54,-168.5"/>
<text text-anchor="middle" x="414.54" y="-175.5" font-family="FreeSans" font-size="10.00">magick/magick&#45;type.h</text>
</a>
</g>
</g>
<!-- Node2&#45;&gt;Node22 -->
<g id="edge20" class="edge">
<title>Node2&#45;&gt;Node22</title>
<path fill="none" stroke="midnightblue" d="M816.79,-227.41C746.96,-219.21 612.6,-203.35 487.86,-188.16"/>
<polygon fill="midnightblue" stroke="midnightblue" points="488.1,-184.66 477.75,-186.92 487.26,-191.61 488.1,-184.66"/>
</g>
<!-- Node23 -->
<g id="node22" class="node">
<title>Node23</title>
<g id="a_node22"><a xlink:title=" ">
<polygon fill="white" stroke="#bfbfbf" points="753.54,-168.5 753.54,-187.5 821.54,-187.5 821.54,-168.5 753.54,-168.5"/>
<text text-anchor="middle" x="787.54" y="-175.5" font-family="FreeSans" font-size="10.00">sys/time.h</text>
</a>
</g>
</g>
<!-- Node2&#45;&gt;Node23 -->
<g id="edge22" class="edge">
<title>Node2&#45;&gt;Node23</title>
<path fill="none" stroke="midnightblue" d="M852.17,-224.32C840.38,-216.06 822.41,-203.45 808.4,-193.63"/>
<polygon fill="midnightblue" stroke="midnightblue" points="810.08,-190.53 799.88,-187.65 806.06,-196.26 810.08,-190.53"/>
</g>
<!-- Node22&#45;&gt;Node3 -->
<g id="edge21" class="edge">
<title>Node22&#45;&gt;Node3</title>
<path fill="none" stroke="midnightblue" d="M439.1,-168.44C465.06,-159.4 506.21,-145.06 535.34,-134.92"/>
<polygon fill="midnightblue" stroke="midnightblue" points="536.8,-138.11 545.09,-131.52 534.5,-131.5 536.8,-138.11"/>
</g>
<!-- Node24&#45;&gt;Node25 -->
<g id="edge24" class="edge">
<title>Node24&#45;&gt;Node25</title>
<path fill="none" stroke="midnightblue" d="M1905.71,-280.32C1918.39,-271.98 1937.77,-259.21 1952.74,-249.35"/>
<polygon fill="midnightblue" stroke="midnightblue" points="1954.97,-252.08 1961.4,-243.65 1951.12,-246.23 1954.97,-252.08"/>
</g>
<!-- Node24&#45;&gt;Node30 -->
<g id="edge40" class="edge">
<title>Node24&#45;&gt;Node30</title>
<path fill="none" stroke="midnightblue" d="M1885.23,-280.42C1867.76,-260.1 1821.88,-207.73 1779.54,-168 1744.9,-135.5 1701.33,-101.11 1676.43,-82.02"/>
<polygon fill="midnightblue" stroke="midnightblue" points="1678.23,-78.99 1668.15,-75.71 1673.98,-84.56 1678.23,-78.99"/>
</g>
<!-- Node25&#45;&gt;Node26 -->
<g id="edge25" class="edge">
<title>Node25&#45;&gt;Node26</title>
<path fill="none" stroke="midnightblue" d="M1957.99,-224.32C1941.55,-215.7 1916.1,-202.36 1897.07,-192.39"/>
<polygon fill="midnightblue" stroke="midnightblue" points="1898.53,-189.2 1888.05,-187.65 1895.28,-195.4 1898.53,-189.2"/>
</g>
<!-- Node27 -->
<g id="node26" class="node">
<title>Node27</title>
<g id="a_node26"><a xlink:href="pixel_8h.html" target="_top" xlink:title=" ">
<polygon fill="white" stroke="red" points="2019.54,-112.5 2019.54,-131.5 2107.54,-131.5 2107.54,-112.5 2019.54,-112.5"/>
<text text-anchor="middle" x="2063.54" y="-119.5" font-family="FreeSans" font-size="10.00">magick/pixel.h</text>
</a>
</g>
</g>
<!-- Node25&#45;&gt;Node27 -->
<g id="edge32" class="edge">
<title>Node25&#45;&gt;Node27</title>
<path fill="none" stroke="midnightblue" d="M1995.53,-224.42C2011.2,-216.99 2032,-204.78 2044.54,-188 2054.55,-174.61 2059.3,-156.04 2061.55,-142.18"/>
<polygon fill="midnightblue" stroke="midnightblue" points="2065.07,-142.23 2062.91,-131.86 2058.13,-141.32 2065.07,-142.23"/>
</g>
<!-- Node32 -->
<g id="node28" class="node">
<title>Node32</title>
<g id="a_node28"><a xlink:href="blob_8h.html" target="_top" xlink:title=" ">
<polygon fill="white" stroke="red" points="2217.54,-168.5 2217.54,-187.5 2303.54,-187.5 2303.54,-168.5 2217.54,-168.5"/>
<text text-anchor="middle" x="2260.54" y="-175.5" font-family="FreeSans" font-size="10.00">magick/blob.h</text>
</a>
</g>
</g>
<!-- Node25&#45;&gt;Node32 -->
<g id="edge29" class="edge">
<title>Node25&#45;&gt;Node32</title>
<path fill="none" stroke="midnightblue" d="M2014.77,-224.44C2065.23,-214.5 2151.66,-198.18 2207.47,-188.04"/>
<polygon fill="midnightblue" stroke="midnightblue" points="2208.31,-191.44 2217.53,-186.22 2207.06,-184.56 2208.31,-191.44"/>
</g>
<!-- Node25&#45;&gt;Node43 -->
<g id="edge31" class="edge">
<title>Node25&#45;&gt;Node43</title>
<path fill="none" stroke="midnightblue" d="M1976.19,-224.08C1977.52,-216.93 1979.42,-206.64 1981.08,-197.69"/>
<polygon fill="midnightblue" stroke="midnightblue" points="1984.54,-198.22 1982.92,-187.75 1977.66,-196.95 1984.54,-198.22"/>
</g>
<!-- Node25&#45;&gt;Node44 -->
<g id="edge33" class="edge">
<title>Node25&#45;&gt;Node44</title>
<path fill="none" stroke="midnightblue" d="M1934.77,-224.44C1890.98,-215.02 1820.53,-199.87 1773.16,-189.68"/>
<polygon fill="midnightblue" stroke="midnightblue" points="1773.64,-186.2 1763.12,-187.52 1772.16,-193.04 1773.64,-186.2"/>
</g>
<!-- Node25&#45;&gt;Node46 -->
<g id="edge38" class="edge">
<title>Node25&#45;&gt;Node46</title>
<path fill="none" stroke="midnightblue" d="M1996.55,-224.44C2023.67,-215.24 2069.97,-200.56 2103.85,-190.39"/>
<polygon fill="midnightblue" stroke="midnightblue" points="2104.91,-193.73 2113.49,-187.52 2102.91,-187.02 2104.91,-193.73"/>
</g>
<!-- Node26&#45;&gt;Node27 -->
<g id="edge26" class="edge">
<title>Node26&#45;&gt;Node27</title>
<path fill="none" stroke="midnightblue" d="M1901.96,-168.44C1934.82,-159.2 1987.32,-144.44 2023.51,-134.26"/>
<polygon fill="midnightblue" stroke="midnightblue" points="2024.58,-137.59 2033.26,-131.52 2022.68,-130.85 2024.58,-137.59"/>
</g>
<!-- Node26&#45;&gt;Node30 -->
<g id="edge27" class="edge">
<title>Node26&#45;&gt;Node30</title>
<path fill="none" stroke="midnightblue" d="M1866.24,-168.43C1857.19,-154.49 1837.36,-126.96 1813.54,-112 1786.37,-94.94 1752.54,-84.17 1723.25,-77.46"/>
<polygon fill="midnightblue" stroke="midnightblue" points="1723.61,-73.96 1713.1,-75.25 1722.13,-80.8 1723.61,-73.96"/>
</g>
<!-- Node30&#45;&gt;Node5 -->
<g id="edge28" class="edge">
<title>Node30&#45;&gt;Node5</title>
<path fill="none" stroke="midnightblue" d="M1642.88,-56.32C1629.62,-47.9 1609.27,-34.97 1593.69,-25.07"/>
<polygon fill="midnightblue" stroke="midnightblue" points="1595.48,-22.06 1585.16,-19.65 1591.73,-27.97 1595.48,-22.06"/>
</g>
<!-- Node32&#45;&gt;Node25 -->
<g id="edge30" class="edge">
<title>Node32&#45;&gt;Node25</title>
<path fill="none" stroke="midnightblue" d="M2220.16,-187.59C2171.11,-197.25 2088.24,-212.91 2032.43,-223.08"/>
<polygon fill="midnightblue" stroke="midnightblue" points="2031.55,-219.68 2022.34,-224.92 2032.8,-226.57 2031.55,-219.68"/>
</g>
<!-- Node44&#45;&gt;Node45 -->
<g id="edge34" class="edge">
<title>Node44&#45;&gt;Node45</title>
<path fill="none" stroke="midnightblue" d="M1706.03,-168.32C1688.47,-159.62 1661.21,-146.12 1641.01,-136.11"/>
<polygon fill="midnightblue" stroke="midnightblue" points="1642.52,-132.96 1632.01,-131.65 1639.41,-139.23 1642.52,-132.96"/>
</g>
<!-- Node45&#45;&gt;Node5 -->
<g id="edge35" class="edge">
<title>Node45&#45;&gt;Node5</title>
<path fill="none" stroke="midnightblue" d="M1609.2,-112.3C1603.93,-103.42 1595.89,-89.12 1590.54,-76 1584.3,-60.69 1579.18,-42.59 1575.83,-29.38"/>
<polygon fill="midnightblue" stroke="midnightblue" points="1579.22,-28.49 1573.46,-19.6 1572.42,-30.15 1579.22,-28.49"/>
</g>
<!-- Node45&#45;&gt;Node12 -->
<g id="edge36" class="edge">
<title>Node45&#45;&gt;Node12</title>
<path fill="none" stroke="midnightblue" d="M1588.71,-112.44C1560.81,-103.2 1516.22,-88.43 1485.5,-78.25"/>
<polygon fill="midnightblue" stroke="midnightblue" points="1486.24,-74.81 1475.65,-74.99 1484.04,-81.46 1486.24,-74.81"/>
</g>
<!-- Node45&#45;&gt;Node30 -->
<g id="edge37" class="edge">
<title>Node45&#45;&gt;Node30</title>
<path fill="none" stroke="midnightblue" d="M1621.47,-112.08C1627.47,-104.38 1636.29,-93.03 1643.59,-83.65"/>
<polygon fill="midnightblue" stroke="midnightblue" points="1646.36,-85.79 1649.73,-75.75 1640.83,-81.5 1646.36,-85.79"/>
</g>
<!-- Node46&#45;&gt;Node25 -->
<g id="edge39" class="edge">
<title>Node46&#45;&gt;Node25</title>
<path fill="none" stroke="midnightblue" d="M2123.65,-187.52C2096.58,-196.7 2050.29,-211.38 2016.37,-221.57"/>
<polygon fill="midnightblue" stroke="midnightblue" points="2015.31,-218.23 2006.72,-224.44 2017.31,-224.94 2015.31,-218.23"/>
</g>
<!-- Node51&#45;&gt;Node32 -->
<g id="edge42" class="edge">
<title>Node51&#45;&gt;Node32</title>
<path fill="none" stroke="midnightblue" d="M2919.01,-229.44C2793.35,-219.81 2447.62,-193.33 2314.12,-183.1"/>
<polygon fill="midnightblue" stroke="midnightblue" points="2313.98,-179.58 2303.75,-182.31 2313.45,-186.56 2313.98,-179.58"/>
</g>
<!-- Node52&#45;&gt;Node25 -->
<g id="edge45" class="edge">
<title>Node52&#45;&gt;Node25</title>
<path fill="none" stroke="midnightblue" d="M2235.42,-280.44C2180.26,-270.83 2090.82,-255.26 2032.34,-245.07"/>
<polygon fill="midnightblue" stroke="midnightblue" points="2032.61,-241.56 2022.16,-243.29 2031.41,-248.46 2032.61,-241.56"/>
</g>
<!-- Node52&#45;&gt;Node27 -->
<g id="edge47" class="edge">
<title>Node52&#45;&gt;Node27</title>
<path fill="none" stroke="midnightblue" d="M2291.03,-280.23C2306.22,-258.55 2340.74,-201.76 2312.54,-168 2288.24,-138.92 2183.61,-128.6 2117.95,-124.96"/>
<polygon fill="midnightblue" stroke="midnightblue" points="2117.94,-121.45 2107.77,-124.43 2117.57,-128.44 2117.94,-121.45"/>
</g>
<!-- Node53 -->
<g id="node35" class="node">
<title>Node53</title>
<g id="a_node35"><a xlink:href="image-private_8h.html" target="_top" xlink:title=" ">
<polygon fill="white" stroke="black" points="2386.54,-224.5 2386.54,-243.5 2520.54,-243.5 2520.54,-224.5 2386.54,-224.5"/>
<text text-anchor="middle" x="2453.54" y="-231.5" font-family="FreeSans" font-size="10.00">magick/image&#45;private.h</text>
</a>
</g>
</g>
<!-- Node52&#45;&gt;Node53 -->
<g id="edge46" class="edge">
<title>Node52&#45;&gt;Node53</title>
<path fill="none" stroke="midnightblue" d="M2311.32,-280.44C2339.87,-271.32 2385.27,-256.81 2417.08,-246.65"/>
<polygon fill="midnightblue" stroke="midnightblue" points="2418.43,-249.89 2426.89,-243.52 2416.29,-243.23 2418.43,-249.89"/>
</g>
<!-- Node60&#45;&gt;Node42 -->
<g id="edge49" class="edge">
<title>Node60&#45;&gt;Node42</title>
<path fill="none" stroke="midnightblue" d="M2095.54,-280.08C2095.54,-273.01 2095.54,-262.86 2095.54,-253.99"/>
<polygon fill="midnightblue" stroke="midnightblue" points="2099.04,-253.75 2095.54,-243.75 2092.04,-253.75 2099.04,-253.75"/>
</g>
<!-- Node61&#45;&gt;Node45 -->
<g id="edge52" class="edge">
<title>Node61&#45;&gt;Node45</title>
<path fill="none" stroke="midnightblue" d="M1594.27,-224.37C1597.82,-206.62 1606.01,-165.67 1610.82,-141.6"/>
<polygon fill="midnightblue" stroke="midnightblue" points="1614.29,-142.08 1612.82,-131.59 1607.43,-140.71 1614.29,-142.08"/>
</g>
<!-- Node64&#45;&gt;Node9 -->
<g id="edge56" class="edge">
<title>Node64&#45;&gt;Node9</title>
<path fill="none" stroke="midnightblue" d="M1414.82,-224.32C1424.38,-216.26 1438.82,-204.08 1450.32,-194.37"/>
<polygon fill="midnightblue" stroke="midnightblue" points="1452.68,-196.96 1458.07,-187.83 1448.17,-191.61 1452.68,-196.96"/>
</g>
<!-- Node64&#45;&gt;Node15 -->
<g id="edge57" class="edge">
<title>Node64&#45;&gt;Node15</title>
<path fill="none" stroke="midnightblue" d="M1403.22,-224.08C1402.16,-216.93 1400.63,-206.64 1399.31,-197.69"/>
<polygon fill="midnightblue" stroke="midnightblue" points="1402.76,-197.13 1397.84,-187.75 1395.84,-198.16 1402.76,-197.13"/>
</g>
<!-- Node69&#45;&gt;Node51 -->
<g id="edge67" class="edge">
<title>Node69&#45;&gt;Node51</title>
<path fill="none" stroke="midnightblue" d="M2526.86,-281.04C2530.13,-280.68 2533.37,-280.34 2536.54,-280 2669.9,-265.78 2826.62,-249.43 2908.75,-240.89"/>
<polygon fill="midnightblue" stroke="midnightblue" points="2909.29,-244.36 2918.87,-239.84 2908.57,-237.39 2909.29,-244.36"/>
</g>
<!-- Node69&#45;&gt;Node53 -->
<g id="edge68" class="edge">
<title>Node69&#45;&gt;Node53</title>
<path fill="none" stroke="midnightblue" d="M2453.54,-280.08C2453.54,-273.01 2453.54,-262.86 2453.54,-253.99"/>
<polygon fill="midnightblue" stroke="midnightblue" points="2457.04,-253.75 2453.54,-243.75 2450.04,-253.75 2457.04,-253.75"/>
</g>
<!-- Node69&#45;&gt;Node64 -->
<g id="edge66" class="edge">
<title>Node69&#45;&gt;Node64</title>
<path fill="none" stroke="midnightblue" d="M2380.24,-280.71C2377.31,-280.45 2374.39,-280.22 2371.54,-280 1988.3,-251.02 1891.08,-268.73 1507.54,-244 1495.5,-243.22 1482.69,-242.24 1470.34,-241.2"/>
<polygon fill="midnightblue" stroke="midnightblue" points="1470.36,-237.69 1460.1,-240.32 1469.76,-244.66 1470.36,-237.69"/>
</g>
<!-- Node74&#45;&gt;Node51 -->
<g id="edge74" class="edge">
<title>Node74&#45;&gt;Node51</title>
<path fill="none" stroke="midnightblue" d="M3159.94,-280.44C3119.81,-271.06 3055.34,-255.99 3011.75,-245.8"/>
<polygon fill="midnightblue" stroke="midnightblue" points="3012.5,-242.38 3001.97,-243.52 3010.91,-249.2 3012.5,-242.38"/>
</g>
<!-- Node74&#45;&gt;Node53 -->
<g id="edge75" class="edge">
<title>Node74&#45;&gt;Node53</title>
<path fill="none" stroke="midnightblue" d="M3129.33,-283.61C3113.96,-282.4 3097.68,-281.14 3082.54,-280 2883.64,-265.03 2649.26,-248.58 2530.65,-240.33"/>
<polygon fill="midnightblue" stroke="midnightblue" points="2530.79,-236.83 2520.58,-239.63 2530.31,-243.82 2530.79,-236.83"/>
</g>
<!-- Node74&#45;&gt;Node70 -->
<g id="edge76" class="edge">
<title>Node74&#45;&gt;Node70</title>
<path fill="none" stroke="midnightblue" d="M3217.93,-280.44C3240.25,-271.52 3275.44,-257.44 3300.75,-247.32"/>
<polygon fill="midnightblue" stroke="midnightblue" points="3302.26,-250.48 3310.25,-243.52 3299.66,-243.98 3302.26,-250.48"/>
</g>
</g>
</svg>
