<?xml version="1.0" encoding="UTF-8" standalone="no"?>
<!DOCTYPE svg PUBLIC "-//W3C//DTD SVG 1.1//EN"
 "http://www.w3.org/Graphics/SVG/1.1/DTD/svg11.dtd">
<!-- Generated by graphviz version 2.43.0 (0)
 -->
<!-- Title: property.c Pages: 1 -->
<svg width="3659pt" height="420pt"
 viewBox="0.00 0.00 3658.53 420.00" xmlns="http://www.w3.org/2000/svg" xmlns:xlink="http://www.w3.org/1999/xlink">
<g id="graph0" class="graph" transform="scale(1 1) rotate(0) translate(4 416)">
<title>property.c</title>
<polygon fill="white" stroke="transparent" points="-4,4 -4,-416 3654.53,-416 3654.53,4 -4,4"/>
<!-- Node1 -->
<g id="node1" class="node">
<title>Node1</title>
<g id="a_node1"><a xlink:title=" ">
<polygon fill="#bfbfbf" stroke="black" points="1556.42,-392.5 1556.42,-411.5 1621.42,-411.5 1621.42,-392.5 1556.42,-392.5"/>
<text text-anchor="middle" x="1588.92" y="-399.5" font-family="FreeSans" font-size="10.00">property.c</text>
</a>
</g>
</g>
<!-- Node2 -->
<g id="node2" class="node">
<title>Node2</title>
<g id="a_node2"><a xlink:href="studio_8h.html" target="_top" xlink:title=" ">
<polygon fill="white" stroke="red" points="276.42,-336.5 276.42,-355.5 371.42,-355.5 371.42,-336.5 276.42,-336.5"/>
<text text-anchor="middle" x="323.92" y="-343.5" font-family="FreeSans" font-size="10.00">magick/studio.h</text>
</a>
</g>
</g>
<!-- Node1&#45;&gt;Node2 -->
<g id="edge1" class="edge">
<title>Node1&#45;&gt;Node2</title>
<path fill="none" stroke="midnightblue" d="M1556.16,-401.21C1416.09,-401.81 853.73,-401.19 381.54,-355.92"/>
<polygon fill="midnightblue" stroke="midnightblue" points="381.75,-352.42 371.45,-354.94 381.07,-359.39 381.75,-352.42"/>
</g>
<!-- Node24 -->
<g id="node12" class="node">
<title>Node24</title>
<g id="a_node12"><a xlink:href="artifact_8h.html" target="_top" xlink:title=" ">
<polygon fill="white" stroke="black" points="389.92,-336.5 389.92,-355.5 489.92,-355.5 489.92,-336.5 389.92,-336.5"/>
<text text-anchor="middle" x="439.92" y="-343.5" font-family="FreeSans" font-size="10.00">magick/artifact.h</text>
</a>
</g>
</g>
<!-- Node1&#45;&gt;Node24 -->
<g id="edge11" class="edge">
<title>Node1&#45;&gt;Node24</title>
<path fill="none" stroke="midnightblue" d="M1556.29,-400.96C1425.05,-400.54 923.01,-396.28 500.06,-355.99"/>
<polygon fill="midnightblue" stroke="midnightblue" points="500.38,-352.51 490.09,-355.04 499.71,-359.48 500.38,-352.51"/>
</g>
<!-- Node25 -->
<g id="node13" class="node">
<title>Node25</title>
<g id="a_node13"><a xlink:href="attribute_8h.html" target="_top" xlink:title=" ">
<polygon fill="white" stroke="black" points="1429.42,-280.5 1429.42,-299.5 1536.42,-299.5 1536.42,-280.5 1429.42,-280.5"/>
<text text-anchor="middle" x="1482.92" y="-287.5" font-family="FreeSans" font-size="10.00">magick/attribute.h</text>
</a>
</g>
</g>
<!-- Node1&#45;&gt;Node25 -->
<g id="edge12" class="edge">
<title>Node1&#45;&gt;Node25</title>
<path fill="none" stroke="midnightblue" d="M1556.32,-400.41C1492.76,-398.51 1355.92,-390.41 1326.92,-356 1321.19,-349.2 1321.58,-343.1 1326.92,-336 1338.4,-320.75 1381.37,-309.04 1419.32,-301.4"/>
<polygon fill="midnightblue" stroke="midnightblue" points="1420.2,-304.79 1429.34,-299.45 1418.86,-297.92 1420.2,-304.79"/>
</g>
<!-- Node26 -->
<g id="node14" class="node">
<title>Node26</title>
<g id="a_node14"><a xlink:href="image_8h.html" target="_top" xlink:title=" ">
<polygon fill="white" stroke="red" points="1247.42,-224.5 1247.42,-243.5 1342.42,-243.5 1342.42,-224.5 1247.42,-224.5"/>
<text text-anchor="middle" x="1294.92" y="-231.5" font-family="FreeSans" font-size="10.00">magick/image.h</text>
</a>
</g>
</g>
<!-- Node1&#45;&gt;Node26 -->
<g id="edge55" class="edge">
<title>Node1&#45;&gt;Node26</title>
<path fill="none" stroke="midnightblue" d="M1556.39,-400.26C1480.53,-397.98 1294.47,-389.1 1242.92,-356 1211.63,-335.91 1188.59,-311.77 1207.92,-280 1217.38,-264.46 1234.13,-254.05 1250.43,-247.19"/>
<polygon fill="midnightblue" stroke="midnightblue" points="1251.83,-250.4 1259.91,-243.55 1249.32,-243.87 1251.83,-250.4"/>
</g>
<!-- Node27 -->
<g id="node15" class="node">
<title>Node27</title>
<g id="a_node15"><a xlink:href="color_8h.html" target="_top" xlink:title=" ">
<polygon fill="white" stroke="red" points="1720.92,-168.5 1720.92,-187.5 1808.92,-187.5 1808.92,-168.5 1720.92,-168.5"/>
<text text-anchor="middle" x="1764.92" y="-175.5" font-family="FreeSans" font-size="10.00">magick/color.h</text>
</a>
</g>
</g>
<!-- Node1&#45;&gt;Node27 -->
<g id="edge33" class="edge">
<title>Node1&#45;&gt;Node27</title>
<path fill="none" stroke="midnightblue" d="M1621.43,-400.88C1796.57,-400.09 2621.16,-394.34 2657.92,-356 2778.4,-230.35 2030.35,-189.88 1819.26,-181.04"/>
<polygon fill="midnightblue" stroke="midnightblue" points="1819.17,-177.53 1809.04,-180.62 1818.88,-184.52 1819.17,-177.53"/>
</g>
<!-- Node31 -->
<g id="node16" class="node">
<title>Node31</title>
<g id="a_node16"><a xlink:href="exception_8h.html" target="_top" xlink:title=" ">
<polygon fill="white" stroke="red" points="1508.42,-56.5 1508.42,-75.5 1621.42,-75.5 1621.42,-56.5 1508.42,-56.5"/>
<text text-anchor="middle" x="1564.92" y="-63.5" font-family="FreeSans" font-size="10.00">magick/exception.h</text>
</a>
</g>
</g>
<!-- Node1&#45;&gt;Node31 -->
<g id="edge44" class="edge">
<title>Node1&#45;&gt;Node31</title>
<path fill="none" stroke="midnightblue" d="M1621.59,-401.19C1824.03,-402.19 2900.35,-405.18 2947.92,-356 2954.1,-349.61 2948.83,-344.84 2947.92,-336 2943.23,-290.39 2926.92,-280.85 2926.92,-235 2926.92,-235 2926.92,-235 2926.92,-177 2926.92,-111.27 1905.91,-76.9 1631.91,-68.86"/>
<polygon fill="midnightblue" stroke="midnightblue" points="1631.81,-65.36 1621.71,-68.56 1631.61,-72.35 1631.81,-65.36"/>
</g>
<!-- Node38 -->
<g id="node17" class="node">
<title>Node38</title>
<g id="a_node17"><a xlink:href="effect_8h.html" target="_top" xlink:title=" ">
<polygon fill="white" stroke="red" points="1014.92,-168.5 1014.92,-187.5 1106.92,-187.5 1106.92,-168.5 1014.92,-168.5"/>
<text text-anchor="middle" x="1060.92" y="-175.5" font-family="FreeSans" font-size="10.00">magick/effect.h</text>
</a>
</g>
</g>
<!-- Node1&#45;&gt;Node38 -->
<g id="edge43" class="edge">
<title>Node1&#45;&gt;Node38</title>
<path fill="none" stroke="midnightblue" d="M1556.14,-400.28C1445.46,-397.57 1090.32,-386.56 1049.92,-356 1001.45,-319.33 1034.29,-233.94 1051.85,-196.79"/>
<polygon fill="midnightblue" stroke="midnightblue" points="1055.06,-198.19 1056.32,-187.67 1048.77,-195.11 1055.06,-198.19"/>
</g>
<!-- Node40 -->
<g id="node18" class="node">
<title>Node40</title>
<g id="a_node18"><a xlink:href="geometry_8h.html" target="_top" xlink:title=" ">
<polygon fill="white" stroke="black" points="1592.92,-168.5 1592.92,-187.5 1702.92,-187.5 1702.92,-168.5 1592.92,-168.5"/>
<text text-anchor="middle" x="1647.92" y="-175.5" font-family="FreeSans" font-size="10.00">magick/geometry.h</text>
</a>
</g>
</g>
<!-- Node1&#45;&gt;Node40 -->
<g id="edge53" class="edge">
<title>Node1&#45;&gt;Node40</title>
<path fill="none" stroke="midnightblue" d="M1581.25,-392.46C1574.14,-383.93 1564.07,-370.09 1559.92,-356 1557.41,-347.47 1557.68,-344.6 1559.92,-336 1560.92,-332.19 1615.08,-236.74 1637.92,-196.57"/>
<polygon fill="midnightblue" stroke="midnightblue" points="1641.1,-198.05 1643.01,-187.63 1635.02,-194.59 1641.1,-198.05"/>
</g>
<!-- Node41 -->
<g id="node19" class="node">
<title>Node41</title>
<g id="a_node19"><a xlink:href="layer_8h.html" target="_top" xlink:title=" ">
<polygon fill="white" stroke="black" points="1125.42,-168.5 1125.42,-187.5 1214.42,-187.5 1214.42,-168.5 1125.42,-168.5"/>
<text text-anchor="middle" x="1169.92" y="-175.5" font-family="FreeSans" font-size="10.00">magick/layer.h</text>
</a>
</g>
</g>
<!-- Node1&#45;&gt;Node41 -->
<g id="edge56" class="edge">
<title>Node1&#45;&gt;Node41</title>
<path fill="none" stroke="midnightblue" d="M1556.1,-401.2C1457.98,-401.33 1168.56,-398.04 1085.92,-356 1050.1,-337.78 1021.54,-317.13 1036.92,-280 1055.15,-235.99 1104.76,-206.87 1137.96,-191.66"/>
<polygon fill="midnightblue" stroke="midnightblue" points="1139.53,-194.79 1147.27,-187.56 1136.71,-188.39 1139.53,-194.79"/>
</g>
<!-- Node44 -->
<g id="node20" class="node">
<title>Node44</title>
<g id="a_node20"><a xlink:href="monitor_8h.html" target="_top" xlink:title=" ">
<polygon fill="white" stroke="black" points="1231.92,-168.5 1231.92,-187.5 1333.92,-187.5 1333.92,-168.5 1231.92,-168.5"/>
<text text-anchor="middle" x="1282.92" y="-175.5" font-family="FreeSans" font-size="10.00">magick/monitor.h</text>
</a>
</g>
</g>
<!-- Node1&#45;&gt;Node44 -->
<g id="edge61" class="edge">
<title>Node1&#45;&gt;Node44</title>
<path fill="none" stroke="midnightblue" d="M1556.25,-400.93C1446.71,-399.87 1096.35,-389.45 1043.92,-300 1039.43,-292.33 1039.01,-287.41 1043.92,-280 1066.74,-245.59 1179.41,-208.68 1241.56,-190.49"/>
<polygon fill="midnightblue" stroke="midnightblue" points="1242.82,-193.77 1251.45,-187.63 1240.87,-187.04 1242.82,-193.77"/>
</g>
<!-- Node45 -->
<g id="node21" class="node">
<title>Node45</title>
<g id="a_node21"><a xlink:href="profile_8h.html" target="_top" xlink:title=" ">
<polygon fill="white" stroke="black" points="901.42,-168.5 901.42,-187.5 996.42,-187.5 996.42,-168.5 901.42,-168.5"/>
<text text-anchor="middle" x="948.92" y="-175.5" font-family="FreeSans" font-size="10.00">magick/profile.h</text>
</a>
</g>
</g>
<!-- Node1&#45;&gt;Node45 -->
<g id="edge66" class="edge">
<title>Node1&#45;&gt;Node45</title>
<path fill="none" stroke="midnightblue" d="M1556.19,-400.28C1443.05,-397.51 1073.09,-386.23 1029.92,-356 975.74,-318.05 957.06,-234.65 951.27,-197.49"/>
<polygon fill="midnightblue" stroke="midnightblue" points="954.73,-196.96 949.86,-187.55 947.8,-197.94 954.73,-196.96"/>
</g>
<!-- Node46 -->
<g id="node22" class="node">
<title>Node46</title>
<g id="a_node22"><a xlink:href="string___8h.html" target="_top" xlink:title=" ">
<polygon fill="white" stroke="black" points="899.92,-112.5 899.92,-131.5 997.92,-131.5 997.92,-112.5 899.92,-112.5"/>
<text text-anchor="middle" x="948.92" y="-119.5" font-family="FreeSans" font-size="10.00">magick/string_.h</text>
</a>
</g>
</g>
<!-- Node1&#45;&gt;Node46 -->
<g id="edge75" class="edge">
<title>Node1&#45;&gt;Node46</title>
<path fill="none" stroke="midnightblue" d="M1556.15,-400.11C1449.03,-396.93 1110.11,-384.8 1004.92,-356 941.85,-338.73 872.92,-356.39 872.92,-291 872.92,-291 872.92,-291 872.92,-233 872.92,-202.9 875.09,-192.95 891.92,-168 900.32,-155.55 913.25,-144.94 924.67,-137.15"/>
<polygon fill="midnightblue" stroke="midnightblue" points="926.88,-139.89 933.4,-131.54 923.09,-134.01 926.88,-139.89"/>
</g>
<!-- Node47 -->
<g id="node23" class="node">
<title>Node47</title>
<g id="a_node23"><a xlink:href="quantum_8h.html" target="_top" xlink:title=" ">
<polygon fill="white" stroke="red" points="1351.92,-168.5 1351.92,-187.5 1459.92,-187.5 1459.92,-168.5 1351.92,-168.5"/>
<text text-anchor="middle" x="1405.92" y="-175.5" font-family="FreeSans" font-size="10.00">magick/quantum.h</text>
</a>
</g>
</g>
<!-- Node1&#45;&gt;Node47 -->
<g id="edge68" class="edge">
<title>Node1&#45;&gt;Node47</title>
<path fill="none" stroke="midnightblue" d="M1556.34,-400.6C1491.3,-399.04 1349.03,-391.53 1318.92,-356 1288.21,-319.75 1361.19,-327.4 1380.92,-300 1403.1,-269.21 1406.57,-223.19 1406.59,-197.7"/>
<polygon fill="midnightblue" stroke="midnightblue" points="1410.09,-197.49 1406.41,-187.55 1403.09,-197.61 1410.09,-197.49"/>
</g>
<!-- Node52 -->
<g id="node24" class="node">
<title>Node52</title>
<g id="a_node24"><a xlink:href="cache_8h.html" target="_top" xlink:title=" ">
<polygon fill="white" stroke="red" points="705.42,-280.5 705.42,-299.5 798.42,-299.5 798.42,-280.5 705.42,-280.5"/>
<text text-anchor="middle" x="751.92" y="-287.5" font-family="FreeSans" font-size="10.00">magick/cache.h</text>
</a>
</g>
</g>
<!-- Node1&#45;&gt;Node52 -->
<g id="edge29" class="edge">
<title>Node1&#45;&gt;Node52</title>
<path fill="none" stroke="midnightblue" d="M1556.42,-400.4C1418.93,-397.69 889.15,-385.41 820.92,-356 797.17,-345.76 776.58,-323.6 764.22,-308.01"/>
<polygon fill="midnightblue" stroke="midnightblue" points="766.76,-305.58 757.93,-299.73 761.19,-309.81 766.76,-305.58"/>
</g>
<!-- Node53 -->
<g id="node25" class="node">
<title>Node53</title>
<g id="a_node25"><a xlink:href="cache-private_8h.html" target="_top" xlink:title=" ">
<polygon fill="white" stroke="red" points="637.42,-336.5 637.42,-355.5 768.42,-355.5 768.42,-336.5 637.42,-336.5"/>
<text text-anchor="middle" x="702.92" y="-343.5" font-family="FreeSans" font-size="10.00">magick/cache&#45;private.h</text>
</a>
</g>
</g>
<!-- Node1&#45;&gt;Node53 -->
<g id="edge30" class="edge">
<title>Node1&#45;&gt;Node53</title>
<path fill="none" stroke="midnightblue" d="M1556.25,-399.84C1446.75,-395.79 1082.83,-381.22 782.92,-356 781.63,-355.89 780.33,-355.78 779.01,-355.66"/>
<polygon fill="midnightblue" stroke="midnightblue" points="779.1,-352.16 768.82,-354.71 778.45,-359.12 779.1,-352.16"/>
</g>
<!-- Node62 -->
<g id="node26" class="node">
<title>Node62</title>
<g id="a_node26"><a xlink:href="colorspace-private_8h.html" target="_top" xlink:title=" ">
<polygon fill="white" stroke="red" points="1217.42,-280.5 1217.42,-299.5 1372.42,-299.5 1372.42,-280.5 1217.42,-280.5"/>
<text text-anchor="middle" x="1294.92" y="-287.5" font-family="FreeSans" font-size="10.00">magick/colorspace&#45;private.h</text>
</a>
</g>
</g>
<!-- Node1&#45;&gt;Node62 -->
<g id="edge34" class="edge">
<title>Node1&#45;&gt;Node62</title>
<path fill="none" stroke="midnightblue" d="M1556.4,-399.07C1475.63,-393.95 1270.91,-378.82 1250.92,-356 1236.96,-340.05 1256.21,-319.49 1273.47,-305.8"/>
<polygon fill="midnightblue" stroke="midnightblue" points="1275.72,-308.49 1281.62,-299.69 1271.52,-302.89 1275.72,-308.49"/>
</g>
<!-- Node68 -->
<g id="node27" class="node">
<title>Node68</title>
<g id="a_node27"><a xlink:href="compare_8h.html" target="_top" xlink:title=" ">
<polygon fill="white" stroke="black" points="1053.42,-280.5 1053.42,-299.5 1160.42,-299.5 1160.42,-280.5 1053.42,-280.5"/>
<text text-anchor="middle" x="1106.92" y="-287.5" font-family="FreeSans" font-size="10.00">magick/compare.h</text>
</a>
</g>
</g>
<!-- Node1&#45;&gt;Node68 -->
<g id="edge36" class="edge">
<title>Node1&#45;&gt;Node68</title>
<path fill="none" stroke="midnightblue" d="M1556.37,-400.15C1471.02,-397.48 1242.68,-387.53 1174.92,-356 1151.65,-345.17 1131.33,-323.14 1119.1,-307.74"/>
<polygon fill="midnightblue" stroke="midnightblue" points="1121.72,-305.41 1112.88,-299.58 1116.16,-309.65 1121.72,-305.41"/>
</g>
<!-- Node30 -->
<g id="node28" class="node">
<title>Node30</title>
<g id="a_node28"><a xlink:href="constitute_8h.html" target="_top" xlink:title=" ">
<polygon fill="white" stroke="black" points="1369.42,-336.5 1369.42,-355.5 1482.42,-355.5 1482.42,-336.5 1369.42,-336.5"/>
<text text-anchor="middle" x="1425.92" y="-343.5" font-family="FreeSans" font-size="10.00">magick/constitute.h</text>
</a>
</g>
</g>
<!-- Node1&#45;&gt;Node30 -->
<g id="edge38" class="edge">
<title>Node1&#45;&gt;Node30</title>
<path fill="none" stroke="midnightblue" d="M1563.1,-392.44C1535.67,-383.36 1492.15,-368.94 1461.49,-358.78"/>
<polygon fill="midnightblue" stroke="midnightblue" points="1462.22,-355.34 1451.63,-355.52 1460.02,-361.98 1462.22,-355.34"/>
</g>
<!-- Node66 -->
<g id="node29" class="node">
<title>Node66</title>
<g id="a_node29"><a xlink:href="draw_8h.html" target="_top" xlink:title=" ">
<polygon fill="white" stroke="red" points="1630.92,-280.5 1630.92,-299.5 1718.92,-299.5 1718.92,-280.5 1630.92,-280.5"/>
<text text-anchor="middle" x="1674.92" y="-287.5" font-family="FreeSans" font-size="10.00">magick/draw.h</text>
</a>
</g>
</g>
<!-- Node1&#45;&gt;Node66 -->
<g id="edge39" class="edge">
<title>Node1&#45;&gt;Node66</title>
<path fill="none" stroke="midnightblue" d="M1581.68,-392.35C1571.63,-379.25 1555.98,-353.98 1567.92,-336 1579.95,-317.9 1600.83,-307.06 1620.98,-300.58"/>
<polygon fill="midnightblue" stroke="midnightblue" points="1622.14,-303.89 1630.77,-297.74 1620.19,-297.16 1622.14,-303.89"/>
</g>
<!-- Node69 -->
<g id="node30" class="node">
<title>Node69</title>
<g id="a_node30"><a xlink:href="exception-private_8h.html" target="_top" xlink:title=" ">
<polygon fill="white" stroke="red" points="2257.42,-336.5 2257.42,-355.5 2408.42,-355.5 2408.42,-336.5 2257.42,-336.5"/>
<text text-anchor="middle" x="2332.92" y="-343.5" font-family="FreeSans" font-size="10.00">magick/exception&#45;private.h</text>
</a>
</g>
</g>
<!-- Node1&#45;&gt;Node69 -->
<g id="edge45" class="edge">
<title>Node1&#45;&gt;Node69</title>
<path fill="none" stroke="midnightblue" d="M1621.53,-399.21C1716.25,-393.9 1999.83,-377.37 2247.13,-356.04"/>
<polygon fill="midnightblue" stroke="midnightblue" points="2247.73,-359.5 2257.39,-355.15 2247.13,-352.52 2247.73,-359.5"/>
</g>
<!-- Node71 -->
<g id="node31" class="node">
<title>Node71</title>
<g id="a_node31"><a xlink:href="magick_8h.html" target="_top" xlink:title=" ">
<polygon fill="white" stroke="red" points="2955.42,-280.5 2955.42,-299.5 3056.42,-299.5 3056.42,-280.5 2955.42,-280.5"/>
<text text-anchor="middle" x="3005.92" y="-287.5" font-family="FreeSans" font-size="10.00">magick/magick.h</text>
</a>
</g>
</g>
<!-- Node1&#45;&gt;Node71 -->
<g id="edge58" class="edge">
<title>Node1&#45;&gt;Node71</title>
<path fill="none" stroke="midnightblue" d="M1621.49,-400.96C1825.79,-400.58 2923.74,-396.65 2980.92,-356 2995.69,-345.51 3001.73,-325.03 3004.21,-309.86"/>
<polygon fill="midnightblue" stroke="midnightblue" points="3007.73,-309.89 3005.49,-299.53 3000.78,-309.03 3007.73,-309.89"/>
</g>
<!-- Node72 -->
<g id="node32" class="node">
<title>Node72</title>
<g id="a_node32"><a xlink:href="fx_8h.html" target="_top" xlink:title=" ">
<polygon fill="white" stroke="black" points="1698.92,-336.5 1698.92,-355.5 1772.92,-355.5 1772.92,-336.5 1698.92,-336.5"/>
<text text-anchor="middle" x="1735.92" y="-343.5" font-family="FreeSans" font-size="10.00">magick/fx.h</text>
</a>
</g>
</g>
<!-- Node1&#45;&gt;Node72 -->
<g id="edge49" class="edge">
<title>Node1&#45;&gt;Node72</title>
<path fill="none" stroke="midnightblue" d="M1612.22,-392.44C1636.73,-383.44 1675.52,-369.19 1703.12,-359.05"/>
<polygon fill="midnightblue" stroke="midnightblue" points="1704.56,-362.25 1712.74,-355.52 1702.15,-355.68 1704.56,-362.25"/>
</g>
<!-- Node73 -->
<g id="node33" class="node">
<title>Node73</title>
<g id="a_node33"><a xlink:href="fx-private_8h.html" target="_top" xlink:title=" ">
<polygon fill="white" stroke="black" points="1791.42,-336.5 1791.42,-355.5 1904.42,-355.5 1904.42,-336.5 1791.42,-336.5"/>
<text text-anchor="middle" x="1847.92" y="-343.5" font-family="FreeSans" font-size="10.00">magick/fx&#45;private.h</text>
</a>
</g>
</g>
<!-- Node1&#45;&gt;Node73 -->
<g id="edge51" class="edge">
<title>Node1&#45;&gt;Node73</title>
<path fill="none" stroke="midnightblue" d="M1621.46,-394.22C1665.53,-385.03 1744.66,-368.53 1796.73,-357.67"/>
<polygon fill="midnightblue" stroke="midnightblue" points="1797.69,-361.05 1806.77,-355.58 1796.26,-354.2 1797.69,-361.05"/>
</g>
<!-- Node64 -->
<g id="node34" class="node">
<title>Node64</title>
<g id="a_node34"><a xlink:href="gem_8h.html" target="_top" xlink:title=" ">
<polygon fill="white" stroke="red" points="1922.92,-336.5 1922.92,-355.5 2008.92,-355.5 2008.92,-336.5 1922.92,-336.5"/>
<text text-anchor="middle" x="1965.92" y="-343.5" font-family="FreeSans" font-size="10.00">magick/gem.h</text>
</a>
</g>
</g>
<!-- Node1&#45;&gt;Node64 -->
<g id="edge52" class="edge">
<title>Node1&#45;&gt;Node64</title>
<path fill="none" stroke="midnightblue" d="M1621.62,-396.79C1680.13,-389.18 1806.57,-372.41 1912.92,-356 1913.02,-355.98 1913.13,-355.97 1913.23,-355.95"/>
<polygon fill="midnightblue" stroke="midnightblue" points="1913.51,-359.45 1922.84,-354.43 1912.42,-352.54 1913.51,-359.45"/>
</g>
<!-- Node74 -->
<g id="node35" class="node">
<title>Node74</title>
<g id="a_node35"><a xlink:href="histogram_8h.html" target="_top" xlink:title=" ">
<polygon fill="white" stroke="black" points="2026.92,-336.5 2026.92,-355.5 2140.92,-355.5 2140.92,-336.5 2026.92,-336.5"/>
<text text-anchor="middle" x="2083.92" y="-343.5" font-family="FreeSans" font-size="10.00">magick/histogram.h</text>
</a>
</g>
</g>
<!-- Node1&#45;&gt;Node74 -->
<g id="edge54" class="edge">
<title>Node1&#45;&gt;Node74</title>
<path fill="none" stroke="midnightblue" d="M1621.52,-397.93C1691.71,-391.24 1862.6,-374.56 2016.58,-356.13"/>
<polygon fill="midnightblue" stroke="midnightblue" points="2017.19,-359.58 2026.7,-354.91 2016.35,-352.63 2017.19,-359.58"/>
</g>
<!-- Node75 -->
<g id="node36" class="node">
<title>Node75</title>
<g id="a_node36"><a xlink:href="list_8h.html" target="_top" xlink:title=" ">
<polygon fill="white" stroke="black" points="2158.92,-336.5 2158.92,-355.5 2238.92,-355.5 2238.92,-336.5 2158.92,-336.5"/>
<text text-anchor="middle" x="2198.92" y="-343.5" font-family="FreeSans" font-size="10.00">magick/list.h</text>
</a>
</g>
</g>
<!-- Node1&#45;&gt;Node75 -->
<g id="edge57" class="edge">
<title>Node1&#45;&gt;Node75</title>
<path fill="none" stroke="midnightblue" d="M1621.61,-399.54C1706.73,-395.5 1942.36,-382.71 2148.75,-356.02"/>
<polygon fill="midnightblue" stroke="midnightblue" points="2149.4,-359.47 2158.86,-354.7 2148.5,-352.53 2149.4,-359.47"/>
</g>
<!-- Node76 -->
<g id="node37" class="node">
<title>Node76</title>
<g id="a_node37"><a xlink:href="memory___8h.html" target="_top" xlink:title=" ">
<polygon fill="white" stroke="red" points="508.42,-336.5 508.42,-355.5 619.42,-355.5 619.42,-336.5 508.42,-336.5"/>
<text text-anchor="middle" x="563.92" y="-343.5" font-family="FreeSans" font-size="10.00">magick/memory_.h</text>
</a>
</g>
</g>
<!-- Node1&#45;&gt;Node76 -->
<g id="edge59" class="edge">
<title>Node1&#45;&gt;Node76</title>
<path fill="none" stroke="midnightblue" d="M1556.07,-400.57C1434.55,-398.73 998.84,-390.1 629.81,-356.1"/>
<polygon fill="midnightblue" stroke="midnightblue" points="630.02,-352.6 619.74,-355.16 629.37,-359.57 630.02,-352.6"/>
</g>
<!-- Node77 -->
<g id="node38" class="node">
<title>Node77</title>
<g id="a_node38"><a xlink:href="montage_8h.html" target="_top" xlink:title=" ">
<polygon fill="white" stroke="black" points="2426.92,-336.5 2426.92,-355.5 2534.92,-355.5 2534.92,-336.5 2426.92,-336.5"/>
<text text-anchor="middle" x="2480.92" y="-343.5" font-family="FreeSans" font-size="10.00">magick/montage.h</text>
</a>
</g>
</g>
<!-- Node1&#45;&gt;Node77 -->
<g id="edge62" class="edge">
<title>Node1&#45;&gt;Node77</title>
<path fill="none" stroke="midnightblue" d="M1621.78,-400.25C1732.34,-397.51 2101.12,-386.61 2416.41,-356.06"/>
<polygon fill="midnightblue" stroke="midnightblue" points="2417.05,-359.52 2426.66,-355.06 2416.37,-352.55 2417.05,-359.52"/>
</g>
<!-- Node78 -->
<g id="node39" class="node">
<title>Node78</title>
<g id="a_node39"><a xlink:href="option_8h.html" target="_top" xlink:title=" ">
<polygon fill="white" stroke="black" points="2553.42,-336.5 2553.42,-355.5 2648.42,-355.5 2648.42,-336.5 2553.42,-336.5"/>
<text text-anchor="middle" x="2600.92" y="-343.5" font-family="FreeSans" font-size="10.00">magick/option.h</text>
</a>
</g>
</g>
<!-- Node1&#45;&gt;Node78 -->
<g id="edge63" class="edge">
<title>Node1&#45;&gt;Node78</title>
<path fill="none" stroke="midnightblue" d="M1621.59,-400.76C1742.42,-399.58 2175.62,-392.95 2543.35,-355.92"/>
<polygon fill="midnightblue" stroke="midnightblue" points="2543.79,-359.4 2553.39,-354.9 2543.09,-352.43 2543.79,-359.4"/>
</g>
<!-- Node79 -->
<g id="node40" class="node">
<title>Node79</title>
<g id="a_node40"><a xlink:href="policy_8h.html" target="_top" xlink:title=" ">
<polygon fill="white" stroke="red" points="1518.92,-112.5 1518.92,-131.5 1610.92,-131.5 1610.92,-112.5 1518.92,-112.5"/>
<text text-anchor="middle" x="1564.92" y="-119.5" font-family="FreeSans" font-size="10.00">magick/policy.h</text>
</a>
</g>
</g>
<!-- Node1&#45;&gt;Node79 -->
<g id="edge64" class="edge">
<title>Node1&#45;&gt;Node79</title>
<path fill="none" stroke="midnightblue" d="M1555.98,-399.5C1498.67,-396.12 1384.38,-385.73 1359.92,-356 1354.28,-349.14 1354.27,-342.86 1359.92,-336 1413.2,-271.36 1488.1,-361.54 1544.92,-300 1585.43,-256.13 1576.21,-177.73 1569.23,-141.86"/>
<polygon fill="midnightblue" stroke="midnightblue" points="1572.6,-140.87 1567.11,-131.8 1565.75,-142.31 1572.6,-140.87"/>
</g>
<!-- Node80 -->
<g id="node41" class="node">
<title>Node80</title>
<g id="a_node41"><a xlink:href="property_8h.html" target="_top" xlink:title=" ">
<polygon fill="white" stroke="black" points="2704.92,-336.5 2704.92,-355.5 2808.92,-355.5 2808.92,-336.5 2704.92,-336.5"/>
<text text-anchor="middle" x="2756.92" y="-343.5" font-family="FreeSans" font-size="10.00">magick/property.h</text>
</a>
</g>
</g>
<!-- Node1&#45;&gt;Node80 -->
<g id="edge67" class="edge">
<title>Node1&#45;&gt;Node80</title>
<path fill="none" stroke="midnightblue" d="M1621.45,-400.8C1754.39,-399.73 2269.4,-393.26 2690.92,-356 2692.19,-355.89 2693.46,-355.77 2694.75,-355.64"/>
<polygon fill="midnightblue" stroke="midnightblue" points="2695.16,-359.12 2704.74,-354.58 2694.42,-352.16 2695.16,-359.12"/>
</g>
<!-- Node60 -->
<g id="node42" class="node">
<title>Node60</title>
<g id="a_node42"><a xlink:href="resource___8h.html" target="_top" xlink:title=" ">
<polygon fill="white" stroke="black" points="2826.92,-336.5 2826.92,-355.5 2938.92,-355.5 2938.92,-336.5 2826.92,-336.5"/>
<text text-anchor="middle" x="2882.92" y="-343.5" font-family="FreeSans" font-size="10.00">magick/resource_.h</text>
</a>
</g>
</g>
<!-- Node1&#45;&gt;Node60 -->
<g id="edge69" class="edge">
<title>Node1&#45;&gt;Node60</title>
<path fill="none" stroke="midnightblue" d="M1621.76,-401.01C1763.36,-400.82 2335.94,-397.42 2816.33,-356.04"/>
<polygon fill="midnightblue" stroke="midnightblue" points="2816.93,-359.51 2826.59,-355.15 2816.33,-352.53 2816.93,-359.51"/>
</g>
<!-- Node81 -->
<g id="node43" class="node">
<title>Node81</title>
<g id="a_node43"><a xlink:href="splay-tree_8h.html" target="_top" xlink:title=" ">
<polygon fill="white" stroke="black" points="3356.92,-280.5 3356.92,-299.5 3470.92,-299.5 3470.92,-280.5 3356.92,-280.5"/>
<text text-anchor="middle" x="3413.92" y="-287.5" font-family="FreeSans" font-size="10.00">magick/splay&#45;tree.h</text>
</a>
</g>
</g>
<!-- Node1&#45;&gt;Node81 -->
<g id="edge70" class="edge">
<title>Node1&#45;&gt;Node81</title>
<path fill="none" stroke="midnightblue" d="M1621.74,-400.91C1881.91,-400.14 3602.11,-393.63 3638.92,-356 3688.87,-304.94 3564.32,-293.35 3481.23,-291.1"/>
<polygon fill="midnightblue" stroke="midnightblue" points="3481.15,-287.6 3471.07,-290.87 3480.99,-294.6 3481.15,-287.6"/>
</g>
<!-- Node82 -->
<g id="node44" class="node">
<title>Node82</title>
<g id="a_node44"><a xlink:href="signature-private_8h.html" target="_top" xlink:title=" ">
<polygon fill="white" stroke="black" points="696.42,-224.5 696.42,-243.5 845.42,-243.5 845.42,-224.5 696.42,-224.5"/>
<text text-anchor="middle" x="770.92" y="-231.5" font-family="FreeSans" font-size="10.00">magick/signature&#45;private.h</text>
</a>
</g>
</g>
<!-- Node1&#45;&gt;Node82 -->
<g id="edge71" class="edge">
<title>Node1&#45;&gt;Node82</title>
<path fill="none" stroke="midnightblue" d="M1556.05,-400.66C1421.91,-399.04 920.08,-390.7 858.92,-356 823.33,-335.8 831.28,-312.89 806.92,-280 799.85,-270.45 791.6,-260.08 784.77,-251.7"/>
<polygon fill="midnightblue" stroke="midnightblue" points="787.35,-249.32 778.3,-243.81 781.94,-253.76 787.35,-249.32"/>
</g>
<!-- Node83 -->
<g id="node45" class="node">
<title>Node83</title>
<g id="a_node45"><a xlink:href="statistic_8h.html" target="_top" xlink:title=" ">
<polygon fill="white" stroke="black" points="1576.92,-336.5 1576.92,-355.5 1680.92,-355.5 1680.92,-336.5 1576.92,-336.5"/>
<text text-anchor="middle" x="1628.92" y="-343.5" font-family="FreeSans" font-size="10.00">magick/statistic.h</text>
</a>
</g>
</g>
<!-- Node1&#45;&gt;Node83 -->
<g id="edge73" class="edge">
<title>Node1&#45;&gt;Node83</title>
<path fill="none" stroke="midnightblue" d="M1595.53,-392.08C1601.18,-384.46 1609.47,-373.26 1616.37,-363.94"/>
<polygon fill="midnightblue" stroke="midnightblue" points="1619.3,-365.87 1622.44,-355.75 1613.68,-361.7 1619.3,-365.87"/>
</g>
<!-- Node84 -->
<g id="node46" class="node">
<title>Node84</title>
<g id="a_node46"><a xlink:href="string-private_8h.html" target="_top" xlink:title=" ">
<polygon fill="white" stroke="red" points="3158.42,-336.5 3158.42,-355.5 3289.42,-355.5 3289.42,-336.5 3158.42,-336.5"/>
<text text-anchor="middle" x="3223.92" y="-343.5" font-family="FreeSans" font-size="10.00">magick/string&#45;private.h</text>
</a>
</g>
</g>
<!-- Node1&#45;&gt;Node84 -->
<g id="edge76" class="edge">
<title>Node1&#45;&gt;Node84</title>
<path fill="none" stroke="midnightblue" d="M1621.66,-401.18C1785.11,-401.82 2529.17,-401.99 3148.17,-356.06"/>
<polygon fill="midnightblue" stroke="midnightblue" points="3148.48,-359.55 3158.19,-355.31 3147.95,-352.57 3148.48,-359.55"/>
</g>
<!-- Node86 -->
<g id="node47" class="node">
<title>Node86</title>
<g id="a_node47"><a xlink:href="token_8h.html" target="_top" xlink:title=" ">
<polygon fill="white" stroke="black" points="3307.92,-336.5 3307.92,-355.5 3399.92,-355.5 3399.92,-336.5 3307.92,-336.5"/>
<text text-anchor="middle" x="3353.92" y="-343.5" font-family="FreeSans" font-size="10.00">magick/token.h</text>
</a>
</g>
</g>
<!-- Node1&#45;&gt;Node86 -->
<g id="edge77" class="edge">
<title>Node1&#45;&gt;Node86</title>
<path fill="none" stroke="midnightblue" d="M1621.48,-400.75C1825.87,-399.08 2934.74,-388.65 3297.77,-355.94"/>
<polygon fill="midnightblue" stroke="midnightblue" points="3298.13,-359.43 3307.77,-355.02 3297.49,-352.46 3298.13,-359.43"/>
</g>
<!-- Node87 -->
<g id="node48" class="node">
<title>Node87</title>
<g id="a_node48"><a xlink:href="utility_8h.html" target="_top" xlink:title=" ">
<polygon fill="white" stroke="black" points="3417.92,-336.5 3417.92,-355.5 3509.92,-355.5 3509.92,-336.5 3417.92,-336.5"/>
<text text-anchor="middle" x="3463.92" y="-343.5" font-family="FreeSans" font-size="10.00">magick/utility.h</text>
</a>
</g>
</g>
<!-- Node1&#45;&gt;Node87 -->
<g id="edge78" class="edge">
<title>Node1&#45;&gt;Node87</title>
<path fill="none" stroke="midnightblue" d="M1621.48,-400.81C1833.51,-399.46 3021.17,-390.52 3407.68,-355.95"/>
<polygon fill="midnightblue" stroke="midnightblue" points="3408.13,-359.42 3417.77,-355.02 3407.49,-352.45 3408.13,-359.42"/>
</g>
<!-- Node88 -->
<g id="node49" class="node">
<title>Node88</title>
<g id="a_node49"><a xlink:href="version_8h.html" target="_top" xlink:title=" ">
<polygon fill="white" stroke="black" points="3528.42,-336.5 3528.42,-355.5 3629.42,-355.5 3629.42,-336.5 3528.42,-336.5"/>
<text text-anchor="middle" x="3578.92" y="-343.5" font-family="FreeSans" font-size="10.00">magick/version.h</text>
</a>
</g>
</g>
<!-- Node1&#45;&gt;Node88 -->
<g id="edge79" class="edge">
<title>Node1&#45;&gt;Node88</title>
<path fill="none" stroke="midnightblue" d="M1621.64,-400.8C1841.53,-399.37 3107.6,-389.83 3518.11,-355.92"/>
<polygon fill="midnightblue" stroke="midnightblue" points="3518.57,-359.39 3528.24,-355.06 3517.98,-352.42 3518.57,-359.39"/>
</g>
<!-- Node89 -->
<g id="node50" class="node">
<title>Node89</title>
<g id="a_node50"><a xlink:href="xml-tree_8h.html" target="_top" xlink:title=" ">
<polygon fill="white" stroke="black" points="3033.42,-336.5 3033.42,-355.5 3140.42,-355.5 3140.42,-336.5 3033.42,-336.5"/>
<text text-anchor="middle" x="3086.92" y="-343.5" font-family="FreeSans" font-size="10.00">magick/xml&#45;tree.h</text>
</a>
</g>
</g>
<!-- Node1&#45;&gt;Node89 -->
<g id="edge80" class="edge">
<title>Node1&#45;&gt;Node89</title>
<path fill="none" stroke="midnightblue" d="M1621.47,-401.18C1777.11,-401.78 2460.98,-401.59 3018.92,-356 3020.23,-355.89 3021.54,-355.78 3022.87,-355.66"/>
<polygon fill="midnightblue" stroke="midnightblue" points="3023.56,-359.11 3033.15,-354.62 3022.85,-352.14 3023.56,-359.11"/>
</g>
<!-- Node3 -->
<g id="node3" class="node">
<title>Node3</title>
<g id="a_node3"><a xlink:href="magick-config_8h.html" target="_top" xlink:title=" ">
<polygon fill="white" stroke="red" points="28.92,-280.5 28.92,-299.5 162.92,-299.5 162.92,-280.5 28.92,-280.5"/>
<text text-anchor="middle" x="95.92" y="-287.5" font-family="FreeSans" font-size="10.00">magick/magick&#45;config.h</text>
</a>
</g>
</g>
<!-- Node2&#45;&gt;Node3 -->
<g id="edge2" class="edge">
<title>Node2&#45;&gt;Node3</title>
<path fill="none" stroke="midnightblue" d="M287.8,-336.44C248.27,-327.08 184.83,-312.06 141.81,-301.87"/>
<polygon fill="midnightblue" stroke="midnightblue" points="142.42,-298.42 131.88,-299.52 140.81,-305.23 142.42,-298.42"/>
</g>
<!-- Node5 -->
<g id="node4" class="node">
<title>Node5</title>
<g id="a_node4"><a xlink:title=" ">
<polygon fill="white" stroke="#bfbfbf" points="1382.92,-0.5 1382.92,-19.5 1438.92,-19.5 1438.92,-0.5 1382.92,-0.5"/>
<text text-anchor="middle" x="1410.92" y="-7.5" font-family="FreeSans" font-size="10.00">stdarg.h</text>
</a>
</g>
</g>
<!-- Node2&#45;&gt;Node5 -->
<g id="edge3" class="edge">
<title>Node2&#45;&gt;Node5</title>
<path fill="none" stroke="midnightblue" d="M276.25,-344.05C200.48,-341.56 57.28,-332.55 19.92,-300 -2.77,-280.23 0.92,-265.1 0.92,-235 0.92,-235 0.92,-235 0.92,-121 0.92,-50.15 1147.35,-17.63 1372.73,-11.93"/>
<polygon fill="midnightblue" stroke="midnightblue" points="1372.85,-15.42 1382.76,-11.67 1372.67,-8.43 1372.85,-15.42"/>
</g>
<!-- Node6 -->
<g id="node5" class="node">
<title>Node6</title>
<g id="a_node5"><a xlink:title=" ">
<polygon fill="white" stroke="#bfbfbf" points="180.92,-280.5 180.92,-299.5 230.92,-299.5 230.92,-280.5 180.92,-280.5"/>
<text text-anchor="middle" x="205.92" y="-287.5" font-family="FreeSans" font-size="10.00">stdio.h</text>
</a>
</g>
</g>
<!-- Node2&#45;&gt;Node6 -->
<g id="edge4" class="edge">
<title>Node2&#45;&gt;Node6</title>
<path fill="none" stroke="midnightblue" d="M305.23,-336.44C285.98,-327.64 255.77,-313.81 233.72,-303.72"/>
<polygon fill="midnightblue" stroke="midnightblue" points="235.08,-300.5 224.53,-299.52 232.17,-306.86 235.08,-300.5"/>
</g>
<!-- Node7 -->
<g id="node6" class="node">
<title>Node7</title>
<g id="a_node6"><a xlink:title=" ">
<polygon fill="white" stroke="#bfbfbf" points="249.42,-280.5 249.42,-299.5 302.42,-299.5 302.42,-280.5 249.42,-280.5"/>
<text text-anchor="middle" x="275.92" y="-287.5" font-family="FreeSans" font-size="10.00">ctype.h</text>
</a>
</g>
</g>
<!-- Node2&#45;&gt;Node7 -->
<g id="edge5" class="edge">
<title>Node2&#45;&gt;Node7</title>
<path fill="none" stroke="midnightblue" d="M316,-336.08C309.08,-328.3 298.86,-316.8 290.47,-307.37"/>
<polygon fill="midnightblue" stroke="midnightblue" points="292.96,-304.9 283.7,-299.75 287.73,-309.55 292.96,-304.9"/>
</g>
<!-- Node8 -->
<g id="node7" class="node">
<title>Node8</title>
<g id="a_node7"><a xlink:title=" ">
<polygon fill="white" stroke="#bfbfbf" points="320.42,-280.5 320.42,-299.5 375.42,-299.5 375.42,-280.5 320.42,-280.5"/>
<text text-anchor="middle" x="347.92" y="-287.5" font-family="FreeSans" font-size="10.00">locale.h</text>
</a>
</g>
</g>
<!-- Node2&#45;&gt;Node8 -->
<g id="edge6" class="edge">
<title>Node2&#45;&gt;Node8</title>
<path fill="none" stroke="midnightblue" d="M327.89,-336.08C331.14,-328.77 335.84,-318.18 339.88,-309.1"/>
<polygon fill="midnightblue" stroke="midnightblue" points="343.17,-310.31 344.03,-299.75 336.77,-307.47 343.17,-310.31"/>
</g>
<!-- Node9 -->
<g id="node8" class="node">
<title>Node9</title>
<g id="a_node8"><a xlink:title=" ">
<polygon fill="white" stroke="#bfbfbf" points="566.42,-280.5 566.42,-299.5 617.42,-299.5 617.42,-280.5 566.42,-280.5"/>
<text text-anchor="middle" x="591.92" y="-287.5" font-family="FreeSans" font-size="10.00">errno.h</text>
</a>
</g>
</g>
<!-- Node2&#45;&gt;Node9 -->
<g id="edge7" class="edge">
<title>Node2&#45;&gt;Node9</title>
<path fill="none" stroke="midnightblue" d="M368.99,-336.47C415.03,-327.67 488.56,-313.38 551.92,-300 553.36,-299.7 554.82,-299.38 556.3,-299.06"/>
<polygon fill="midnightblue" stroke="midnightblue" points="557.11,-302.47 566.12,-296.91 555.61,-295.63 557.11,-302.47"/>
</g>
<!-- Node10 -->
<g id="node9" class="node">
<title>Node10</title>
<g id="a_node9"><a xlink:title=" ">
<polygon fill="white" stroke="#bfbfbf" points="393.42,-280.5 393.42,-299.5 440.42,-299.5 440.42,-280.5 393.42,-280.5"/>
<text text-anchor="middle" x="416.92" y="-287.5" font-family="FreeSans" font-size="10.00">fcntl.h</text>
</a>
</g>
</g>
<!-- Node2&#45;&gt;Node10 -->
<g id="edge8" class="edge">
<title>Node2&#45;&gt;Node10</title>
<path fill="none" stroke="midnightblue" d="M338.87,-336.32C353.51,-327.82 376.06,-314.73 393.16,-304.8"/>
<polygon fill="midnightblue" stroke="midnightblue" points="395.13,-307.7 402.02,-299.65 391.61,-301.65 395.13,-307.7"/>
</g>
<!-- Node11 -->
<g id="node10" class="node">
<title>Node11</title>
<g id="a_node10"><a xlink:title=" ">
<polygon fill="white" stroke="#bfbfbf" points="458.42,-280.5 458.42,-299.5 509.42,-299.5 509.42,-280.5 458.42,-280.5"/>
<text text-anchor="middle" x="483.92" y="-287.5" font-family="FreeSans" font-size="10.00">math.h</text>
</a>
</g>
</g>
<!-- Node2&#45;&gt;Node11 -->
<g id="edge9" class="edge">
<title>Node2&#45;&gt;Node11</title>
<path fill="none" stroke="midnightblue" d="M349.28,-336.44C376.19,-327.36 418.92,-312.94 449.01,-302.78"/>
<polygon fill="midnightblue" stroke="midnightblue" points="450.33,-306.03 458.69,-299.52 448.1,-299.4 450.33,-306.03"/>
</g>
<!-- Node12 -->
<g id="node11" class="node">
<title>Node12</title>
<g id="a_node11"><a xlink:title=" ">
<polygon fill="white" stroke="#bfbfbf" points="644.92,-56.5 644.92,-75.5 692.92,-75.5 692.92,-56.5 644.92,-56.5"/>
<text text-anchor="middle" x="668.92" y="-63.5" font-family="FreeSans" font-size="10.00">time.h</text>
</a>
</g>
</g>
<!-- Node2&#45;&gt;Node12 -->
<g id="edge10" class="edge">
<title>Node2&#45;&gt;Node12</title>
<path fill="none" stroke="midnightblue" d="M371.73,-336.48C425.63,-326.48 507.2,-309.99 517.92,-300 540.04,-279.39 537.92,-265.23 537.92,-235 537.92,-235 537.92,-235 537.92,-177 537.92,-126.08 596.69,-94.02 635.51,-78.4"/>
<polygon fill="midnightblue" stroke="midnightblue" points="636.82,-81.65 644.9,-74.79 634.31,-75.12 636.82,-81.65"/>
</g>
<!-- Node25&#45;&gt;Node26 -->
<g id="edge13" class="edge">
<title>Node25&#45;&gt;Node26</title>
<path fill="none" stroke="midnightblue" d="M1453.13,-280.44C1421.09,-271.24 1369.99,-256.56 1334.57,-246.39"/>
<polygon fill="midnightblue" stroke="midnightblue" points="1335.15,-242.91 1324.57,-243.52 1333.22,-249.64 1335.15,-242.91"/>
</g>
<!-- Node25&#45;&gt;Node31 -->
<g id="edge28" class="edge">
<title>Node25&#45;&gt;Node31</title>
<path fill="none" stroke="midnightblue" d="M1482.15,-280.18C1480.19,-253.06 1477.28,-169.25 1509.92,-112 1517.11,-99.4 1529.29,-88.88 1540.37,-81.19"/>
<polygon fill="midnightblue" stroke="midnightblue" points="1542.43,-84.03 1548.9,-75.64 1538.61,-78.16 1542.43,-84.03"/>
</g>
<!-- Node26&#45;&gt;Node27 -->
<g id="edge14" class="edge">
<title>Node26&#45;&gt;Node27</title>
<path fill="none" stroke="midnightblue" d="M1342.57,-228.81C1418.32,-221.93 1571.11,-207.22 1710.68,-188.1"/>
<polygon fill="midnightblue" stroke="midnightblue" points="1711.28,-191.55 1720.71,-186.71 1710.32,-184.62 1711.28,-191.55"/>
</g>
<!-- Node26&#45;&gt;Node38 -->
<g id="edge17" class="edge">
<title>Node26&#45;&gt;Node38</title>
<path fill="none" stroke="midnightblue" d="M1257.85,-224.44C1217.2,-215.06 1151.89,-199.99 1107.74,-189.8"/>
<polygon fill="midnightblue" stroke="midnightblue" points="1108.36,-186.35 1097.83,-187.52 1106.78,-193.18 1108.36,-186.35"/>
</g>
<!-- Node26&#45;&gt;Node40 -->
<g id="edge18" class="edge">
<title>Node26&#45;&gt;Node40</title>
<path fill="none" stroke="midnightblue" d="M1342.53,-225.72C1404.5,-216.24 1513.09,-199.63 1582.69,-188.98"/>
<polygon fill="midnightblue" stroke="midnightblue" points="1583.31,-192.42 1592.67,-187.45 1582.25,-185.51 1583.31,-192.42"/>
</g>
<!-- Node26&#45;&gt;Node41 -->
<g id="edge19" class="edge">
<title>Node26&#45;&gt;Node41</title>
<path fill="none" stroke="midnightblue" d="M1275.12,-224.44C1254.64,-215.6 1222.44,-201.69 1199.06,-191.59"/>
<polygon fill="midnightblue" stroke="midnightblue" points="1200.21,-188.27 1189.64,-187.52 1197.43,-194.7 1200.21,-188.27"/>
</g>
<!-- Node26&#45;&gt;Node44 -->
<g id="edge20" class="edge">
<title>Node26&#45;&gt;Node44</title>
<path fill="none" stroke="midnightblue" d="M1292.94,-224.08C1291.35,-216.93 1289.06,-206.64 1287.08,-197.69"/>
<polygon fill="midnightblue" stroke="midnightblue" points="1290.45,-196.75 1284.87,-187.75 1283.62,-198.27 1290.45,-196.75"/>
</g>
<!-- Node26&#45;&gt;Node45 -->
<g id="edge21" class="edge">
<title>Node26&#45;&gt;Node45</title>
<path fill="none" stroke="midnightblue" d="M1247.36,-225.63C1192.09,-217.05 1097.87,-202.41 1006.48,-188.09"/>
<polygon fill="midnightblue" stroke="midnightblue" points="1006.93,-184.61 996.51,-186.52 1005.85,-191.53 1006.93,-184.61"/>
</g>
<!-- Node26&#45;&gt;Node47 -->
<g id="edge26" class="edge">
<title>Node26&#45;&gt;Node47</title>
<path fill="none" stroke="midnightblue" d="M1307.64,-224.32C1323.79,-215.55 1351.64,-201.88 1373.68,-191.84"/>
<polygon fill="midnightblue" stroke="midnightblue" points="1375.33,-194.94 1383.02,-187.65 1372.47,-188.55 1375.33,-194.94"/>
</g>
<!-- Node27&#45;&gt;Node31 -->
<g id="edge15" class="edge">
<title>Node27&#45;&gt;Node31</title>
<path fill="none" stroke="midnightblue" d="M1749.23,-168.37C1714.54,-149.29 1631.15,-103.42 1589.48,-80.51"/>
<polygon fill="midnightblue" stroke="midnightblue" points="1590.99,-77.34 1580.54,-75.59 1587.62,-83.48 1590.99,-77.34"/>
</g>
<!-- Node31&#45;&gt;Node5 -->
<g id="edge16" class="edge">
<title>Node31&#45;&gt;Node5</title>
<path fill="none" stroke="midnightblue" d="M1540.52,-56.44C1514.73,-47.4 1473.85,-33.06 1444.91,-22.92"/>
<polygon fill="midnightblue" stroke="midnightblue" points="1445.81,-19.52 1435.21,-19.52 1443.49,-26.13 1445.81,-19.52"/>
</g>
<!-- Node45&#45;&gt;Node46 -->
<g id="edge22" class="edge">
<title>Node45&#45;&gt;Node46</title>
<path fill="none" stroke="midnightblue" d="M948.92,-168.08C948.92,-161.01 948.92,-150.86 948.92,-141.99"/>
<polygon fill="midnightblue" stroke="midnightblue" points="952.42,-141.75 948.92,-131.75 945.42,-141.75 952.42,-141.75"/>
</g>
<!-- Node46&#45;&gt;Node5 -->
<g id="edge23" class="edge">
<title>Node46&#45;&gt;Node5</title>
<path fill="none" stroke="midnightblue" d="M984.79,-112.46C1070.24,-92.12 1285.22,-40.93 1372.85,-20.06"/>
<polygon fill="midnightblue" stroke="midnightblue" points="1373.73,-23.45 1382.64,-17.73 1372.11,-16.64 1373.73,-23.45"/>
</g>
<!-- Node46&#45;&gt;Node12 -->
<g id="edge24" class="edge">
<title>Node46&#45;&gt;Node12</title>
<path fill="none" stroke="midnightblue" d="M904.56,-112.44C848.7,-101.67 753.93,-83.39 703.27,-73.62"/>
<polygon fill="midnightblue" stroke="midnightblue" points="703.65,-70.13 693.16,-71.67 702.32,-77.01 703.65,-70.13"/>
</g>
<!-- Node46&#45;&gt;Node31 -->
<g id="edge25" class="edge">
<title>Node46&#45;&gt;Node31</title>
<path fill="none" stroke="midnightblue" d="M998.03,-116.69C1107.82,-107.07 1373.25,-83.8 1498.01,-72.87"/>
<polygon fill="midnightblue" stroke="midnightblue" points="1498.54,-76.33 1508.19,-71.97 1497.93,-69.36 1498.54,-76.33"/>
</g>
<!-- Node47&#45;&gt;Node26 -->
<g id="edge27" class="edge">
<title>Node47&#45;&gt;Node26</title>
<path fill="none" stroke="midnightblue" d="M1393.5,-187.52C1377.36,-196.31 1349.2,-210.13 1327,-220.23"/>
<polygon fill="midnightblue" stroke="midnightblue" points="1325.3,-217.16 1317.6,-224.44 1328.16,-223.55 1325.3,-217.16"/>
</g>
<!-- Node53&#45;&gt;Node12 -->
<g id="edge31" class="edge">
<title>Node53&#45;&gt;Node12</title>
<path fill="none" stroke="midnightblue" d="M698.34,-336.44C689.06,-318.29 668.92,-274.38 668.92,-235 668.92,-235 668.92,-235 668.92,-177 668.92,-144.95 668.92,-107.64 668.92,-85.75"/>
<polygon fill="midnightblue" stroke="midnightblue" points="672.42,-85.56 668.92,-75.56 665.42,-85.56 672.42,-85.56"/>
</g>
<!-- Node53&#45;&gt;Node52 -->
<g id="edge32" class="edge">
<title>Node53&#45;&gt;Node52</title>
<path fill="none" stroke="midnightblue" d="M711.01,-336.08C718.08,-328.3 728.51,-316.8 737.07,-307.37"/>
<polygon fill="midnightblue" stroke="midnightblue" points="739.85,-309.51 743.98,-299.75 734.67,-304.8 739.85,-309.51"/>
</g>
<!-- Node62&#45;&gt;Node26 -->
<g id="edge35" class="edge">
<title>Node62&#45;&gt;Node26</title>
<path fill="none" stroke="midnightblue" d="M1294.92,-280.08C1294.92,-273.01 1294.92,-262.86 1294.92,-253.99"/>
<polygon fill="midnightblue" stroke="midnightblue" points="1298.42,-253.75 1294.92,-243.75 1291.42,-253.75 1298.42,-253.75"/>
</g>
<!-- Node68&#45;&gt;Node26 -->
<g id="edge37" class="edge">
<title>Node68&#45;&gt;Node26</title>
<path fill="none" stroke="midnightblue" d="M1136.71,-280.44C1168.75,-271.24 1219.86,-256.56 1255.28,-246.39"/>
<polygon fill="midnightblue" stroke="midnightblue" points="1256.63,-249.64 1265.27,-243.52 1254.7,-242.91 1256.63,-249.64"/>
</g>
<!-- Node66&#45;&gt;Node26 -->
<g id="edge41" class="edge">
<title>Node66&#45;&gt;Node26</title>
<path fill="none" stroke="midnightblue" d="M1630.59,-282.7C1561.64,-272.9 1428.72,-254.01 1352.46,-243.18"/>
<polygon fill="midnightblue" stroke="midnightblue" points="1352.94,-239.71 1342.55,-241.77 1351.95,-246.64 1352.94,-239.71"/>
</g>
<!-- Node66&#45;&gt;Node27 -->
<g id="edge42" class="edge">
<title>Node66&#45;&gt;Node27</title>
<path fill="none" stroke="midnightblue" d="M1681.99,-280.37C1696.97,-262.05 1732.16,-219.05 1751.54,-195.36"/>
<polygon fill="midnightblue" stroke="midnightblue" points="1754.27,-197.55 1757.89,-187.59 1748.85,-193.11 1754.27,-197.55"/>
</g>
<!-- Node66&#45;&gt;Node40 -->
<g id="edge40" class="edge">
<title>Node66&#45;&gt;Node40</title>
<path fill="none" stroke="midnightblue" d="M1672.8,-280.37C1668.45,-262.62 1658.4,-221.67 1652.49,-197.6"/>
<polygon fill="midnightblue" stroke="midnightblue" points="1655.82,-196.47 1650.03,-187.59 1649.02,-198.14 1655.82,-196.47"/>
</g>
<!-- Node69&#45;&gt;Node46 -->
<g id="edge48" class="edge">
<title>Node69&#45;&gt;Node46</title>
<path fill="none" stroke="midnightblue" d="M2314.28,-336.44C2248.27,-306.61 2018.87,-206.94 1817.92,-168 1662.3,-137.85 1177.86,-126.89 1008.28,-123.92"/>
<polygon fill="midnightblue" stroke="midnightblue" points="1008.1,-120.42 998.05,-123.74 1007.98,-127.42 1008.1,-120.42"/>
</g>
<!-- Node69&#45;&gt;Node71 -->
<g id="edge46" class="edge">
<title>Node69&#45;&gt;Node71</title>
<path fill="none" stroke="midnightblue" d="M2408.46,-336.89C2411.65,-336.58 2414.82,-336.28 2417.92,-336 2610.09,-318.48 2838.01,-302.36 2944.88,-295.08"/>
<polygon fill="midnightblue" stroke="midnightblue" points="2945.41,-298.56 2955.15,-294.39 2944.94,-291.57 2945.41,-298.56"/>
</g>
<!-- Node71&#45;&gt;Node5 -->
<g id="edge47" class="edge">
<title>Node71&#45;&gt;Node5</title>
<path fill="none" stroke="midnightblue" d="M3011.62,-280.29C3022.89,-262.2 3046.92,-218.95 3046.92,-179 3046.92,-179 3046.92,-179 3046.92,-121 3046.92,-38.21 1695.57,-15.05 1449.22,-11.51"/>
<polygon fill="midnightblue" stroke="midnightblue" points="1449.02,-8.01 1438.97,-11.37 1448.92,-15.01 1449.02,-8.01"/>
</g>
<!-- Node72&#45;&gt;Node66 -->
<g id="edge50" class="edge">
<title>Node72&#45;&gt;Node66</title>
<path fill="none" stroke="midnightblue" d="M1726.12,-336.32C1717.11,-328.34 1703.52,-316.31 1692.61,-306.65"/>
<polygon fill="midnightblue" stroke="midnightblue" points="1694.71,-303.84 1684.9,-299.83 1690.07,-309.08 1694.71,-303.84"/>
</g>
<!-- Node76&#45;&gt;Node9 -->
<g id="edge60" class="edge">
<title>Node76&#45;&gt;Node9</title>
<path fill="none" stroke="midnightblue" d="M568.55,-336.08C572.38,-328.69 577.95,-317.95 582.69,-308.81"/>
<polygon fill="midnightblue" stroke="midnightblue" points="585.89,-310.24 587.39,-299.75 579.68,-307.02 585.89,-310.24"/>
</g>
<!-- Node79&#45;&gt;Node31 -->
<g id="edge65" class="edge">
<title>Node79&#45;&gt;Node31</title>
<path fill="none" stroke="midnightblue" d="M1564.92,-112.08C1564.92,-105.01 1564.92,-94.86 1564.92,-85.99"/>
<polygon fill="midnightblue" stroke="midnightblue" points="1568.42,-85.75 1564.92,-75.75 1561.42,-85.75 1568.42,-85.75"/>
</g>
<!-- Node82&#45;&gt;Node46 -->
<g id="edge72" class="edge">
<title>Node82&#45;&gt;Node46</title>
<path fill="none" stroke="midnightblue" d="M781.34,-224.37C797.41,-211.3 829.45,-186.07 858.92,-168 878.65,-155.91 902.06,-144.28 920.06,-135.87"/>
<polygon fill="midnightblue" stroke="midnightblue" points="921.83,-138.91 929.45,-131.55 918.9,-132.56 921.83,-138.91"/>
</g>
<!-- Node83&#45;&gt;Node66 -->
<g id="edge74" class="edge">
<title>Node83&#45;&gt;Node66</title>
<path fill="none" stroke="midnightblue" d="M1636.52,-336.08C1643.15,-328.3 1652.94,-316.8 1660.98,-307.37"/>
<polygon fill="midnightblue" stroke="midnightblue" points="1663.65,-309.63 1667.47,-299.75 1658.32,-305.09 1663.65,-309.63"/>
</g>
<!-- Node89&#45;&gt;Node31 -->
<g id="edge81" class="edge">
<title>Node89&#45;&gt;Node31</title>
<path fill="none" stroke="midnightblue" d="M3084.85,-336.36C3075.66,-300.27 3034.83,-161.12 2940.92,-112 2882.43,-81.41 1900.13,-70.1 1632.05,-67.58"/>
<polygon fill="midnightblue" stroke="midnightblue" points="1631.72,-64.08 1621.69,-67.48 1631.66,-71.08 1631.72,-64.08"/>
</g>
<!-- Node89&#45;&gt;Node81 -->
<g id="edge82" class="edge">
<title>Node89&#45;&gt;Node81</title>
<path fill="none" stroke="midnightblue" d="M3138.74,-336.44C3196.74,-326.87 3290.66,-311.36 3352.36,-301.17"/>
<polygon fill="midnightblue" stroke="midnightblue" points="3353.06,-304.6 3362.35,-299.52 3351.91,-297.69 3353.06,-304.6"/>
</g>
</g>
</svg>
