<?xml version="1.0" encoding="UTF-8" standalone="no"?>
<!DOCTYPE svg PUBLIC "-//W3C//DTD SVG 1.1//EN"
 "http://www.w3.org/Graphics/SVG/1.1/DTD/svg11.dtd">
<!-- Generated by graphviz version 2.43.0 (0)
 -->
<!-- Title: quantum&#45;private.h Pages: 1 -->
<svg width="3095pt" height="196pt"
 viewBox="0.00 0.00 3094.51 196.00" xmlns="http://www.w3.org/2000/svg" xmlns:xlink="http://www.w3.org/1999/xlink">
<g id="graph0" class="graph" transform="scale(1 1) rotate(0) translate(4 192)">
<title>quantum&#45;private.h</title>
<polygon fill="white" stroke="transparent" points="-4,4 -4,-192 3090.51,-192 3090.51,4 -4,4"/>
<!-- Node1 -->
<g id="node1" class="node">
<title>Node1</title>
<g id="a_node1"><a xlink:title=" ">
<polygon fill="#bfbfbf" stroke="black" points="2573.01,-168.5 2573.01,-187.5 2680.01,-187.5 2680.01,-168.5 2573.01,-168.5"/>
<text text-anchor="middle" x="2626.51" y="-175.5" font-family="FreeSans" font-size="10.00">quantum&#45;private.h</text>
</a>
</g>
</g>
<!-- Node2 -->
<g id="node2" class="node">
<title>Node2</title>
<g id="a_node2"><a xlink:href="annotate_8c.html" target="_top" xlink:title=" ">
<polygon fill="white" stroke="black" points="35.51,-0.5 35.51,-19.5 103.51,-19.5 103.51,-0.5 35.51,-0.5"/>
<text text-anchor="middle" x="69.51" y="-7.5" font-family="FreeSans" font-size="10.00">annotate.c</text>
</a>
</g>
</g>
<!-- Node1&#45;&gt;Node2 -->
<g id="edge1" class="edge">
<title>Node1&#45;&gt;Node2</title>
<path fill="none" stroke="midnightblue" d="M2562.77,-177.13C2166.63,-177.77 56.67,-178.96 10.51,-132 -22.91,-98 34.4,-41.35 59.06,-19.74"/>
<polygon fill="midnightblue" stroke="midnightblue" points="2562.91,-180.63 2572.9,-177.11 2562.9,-173.63 2562.91,-180.63"/>
</g>
<!-- Node3 -->
<g id="node3" class="node">
<title>Node3</title>
<g id="a_node3"><a xlink:href="cipher_8c.html" target="_top" xlink:title=" ">
<polygon fill="white" stroke="black" points="19.51,-112.5 19.51,-131.5 73.51,-131.5 73.51,-112.5 19.51,-112.5"/>
<text text-anchor="middle" x="46.51" y="-119.5" font-family="FreeSans" font-size="10.00">cipher.c</text>
</a>
</g>
</g>
<!-- Node1&#45;&gt;Node3 -->
<g id="edge2" class="edge">
<title>Node1&#45;&gt;Node3</title>
<path fill="none" stroke="midnightblue" d="M2562.74,-176.63C2193.71,-174.37 339.66,-161.61 87.51,-132 83.02,-131.47 78.3,-130.67 73.73,-129.76"/>
<polygon fill="midnightblue" stroke="midnightblue" points="2562.94,-180.13 2572.96,-176.69 2562.99,-173.13 2562.94,-180.13"/>
</g>
<!-- Node4 -->
<g id="node4" class="node">
<title>Node4</title>
<g id="a_node4"><a xlink:href="enhance_8c.html" target="_top" xlink:title=" ">
<polygon fill="white" stroke="black" points="198.51,-0.5 198.51,-19.5 264.51,-19.5 264.51,-0.5 198.51,-0.5"/>
<text text-anchor="middle" x="231.51" y="-7.5" font-family="FreeSans" font-size="10.00">enhance.c</text>
</a>
</g>
</g>
<!-- Node1&#45;&gt;Node4 -->
<g id="edge3" class="edge">
<title>Node1&#45;&gt;Node4</title>
<path fill="none" stroke="midnightblue" d="M2562.41,-176.93C2246.76,-176.38 855.59,-171.7 424.51,-132 272.01,-117.96 183.61,-192.76 84.51,-76 50.65,-36.11 145.25,-19.78 198.3,-13.9"/>
<polygon fill="midnightblue" stroke="midnightblue" points="2562.74,-180.43 2572.74,-176.94 2562.75,-173.43 2562.74,-180.43"/>
</g>
<!-- Node5 -->
<g id="node5" class="node">
<title>Node5</title>
<g id="a_node5"><a xlink:href="fourier_8c.html" target="_top" xlink:title=" ">
<polygon fill="white" stroke="black" points="93.51,-56.5 93.51,-75.5 149.51,-75.5 149.51,-56.5 93.51,-56.5"/>
<text text-anchor="middle" x="121.51" y="-63.5" font-family="FreeSans" font-size="10.00">fourier.c</text>
</a>
</g>
</g>
<!-- Node1&#45;&gt;Node5 -->
<g id="edge4" class="edge">
<title>Node1&#45;&gt;Node5</title>
<path fill="none" stroke="midnightblue" d="M2562.48,-177.15C2322.44,-177.37 1453.22,-174.96 738.51,-132 480,-116.46 413.87,-119.16 158.51,-76 155.64,-75.52 152.67,-74.93 149.71,-74.3"/>
<polygon fill="midnightblue" stroke="midnightblue" points="2562.77,-180.65 2572.76,-177.14 2562.76,-173.65 2562.77,-180.65"/>
</g>
<!-- Node6 -->
<g id="node6" class="node">
<title>Node6</title>
<g id="a_node6"><a xlink:href="fx_8c.html" target="_top" xlink:title=" ">
<polygon fill="white" stroke="black" points="168.01,-56.5 168.01,-75.5 203.01,-75.5 203.01,-56.5 168.01,-56.5"/>
<text text-anchor="middle" x="185.51" y="-63.5" font-family="FreeSans" font-size="10.00">fx.c</text>
</a>
</g>
</g>
<!-- Node1&#45;&gt;Node6 -->
<g id="edge5" class="edge">
<title>Node1&#45;&gt;Node6</title>
<path fill="none" stroke="midnightblue" d="M2562.55,-175.59C2230.83,-168.08 703.74,-131.07 233.51,-76 223.41,-74.82 212.23,-72.76 203.2,-70.92"/>
<polygon fill="midnightblue" stroke="midnightblue" points="2562.85,-179.1 2572.93,-175.82 2563.01,-172.1 2562.85,-179.1"/>
</g>
<!-- Node7 -->
<g id="node7" class="node">
<title>Node7</title>
<g id="a_node7"><a xlink:href="pixel-private_8h.html" target="_top" xlink:title=" ">
<polygon fill="white" stroke="black" points="1413.01,-112.5 1413.01,-131.5 1500.01,-131.5 1500.01,-112.5 1413.01,-112.5"/>
<text text-anchor="middle" x="1456.51" y="-119.5" font-family="FreeSans" font-size="10.00">pixel&#45;private.h</text>
</a>
</g>
</g>
<!-- Node1&#45;&gt;Node7 -->
<g id="edge6" class="edge">
<title>Node1&#45;&gt;Node7</title>
<path fill="none" stroke="midnightblue" d="M2562.82,-174.06C2351.72,-164.32 1678.34,-133.24 1500.13,-125.01"/>
<polygon fill="midnightblue" stroke="midnightblue" points="2562.66,-177.56 2572.81,-174.52 2562.98,-170.56 2562.66,-177.56"/>
</g>
<!-- Node26 -->
<g id="node26" class="node">
<title>Node26</title>
<g id="a_node26"><a xlink:href="stream_8c.html" target="_top" xlink:title=" ">
<polygon fill="white" stroke="black" points="2407.01,-0.5 2407.01,-19.5 2466.01,-19.5 2466.01,-0.5 2407.01,-0.5"/>
<text text-anchor="middle" x="2436.51" y="-7.5" font-family="FreeSans" font-size="10.00">stream.c</text>
</a>
</g>
</g>
<!-- Node1&#45;&gt;Node26 -->
<g id="edge69" class="edge">
<title>Node1&#45;&gt;Node26</title>
<path fill="none" stroke="midnightblue" d="M2655.26,-164.32C2674.71,-155.59 2700.86,-143.52 2723.51,-132 2739.82,-123.7 2742.49,-118.72 2759.51,-112 2820.87,-87.77 2862.91,-128 2903.51,-76 2908.98,-68.99 2909.49,-62.58 2903.51,-56 2874.08,-23.59 2564.69,-13.88 2466.34,-11.6"/>
<polygon fill="midnightblue" stroke="midnightblue" points="2653.74,-161.17 2646.03,-168.44 2656.59,-167.56 2653.74,-161.17"/>
</g>
<!-- Node38 -->
<g id="node38" class="node">
<title>Node38</title>
<g id="a_node38"><a xlink:href="quantum-export_8c.html" target="_top" xlink:title=" ">
<polygon fill="white" stroke="black" points="2473.51,-56.5 2473.51,-75.5 2577.51,-75.5 2577.51,-56.5 2473.51,-56.5"/>
<text text-anchor="middle" x="2525.51" y="-63.5" font-family="FreeSans" font-size="10.00">quantum&#45;export.c</text>
</a>
</g>
</g>
<!-- Node1&#45;&gt;Node38 -->
<g id="edge64" class="edge">
<title>Node1&#45;&gt;Node38</title>
<path fill="none" stroke="midnightblue" d="M2611.73,-160.9C2590.01,-137.25 2550.26,-93.95 2533.4,-75.59"/>
<polygon fill="midnightblue" stroke="midnightblue" points="2609.24,-163.37 2618.59,-168.37 2614.4,-158.64 2609.24,-163.37"/>
</g>
<!-- Node39 -->
<g id="node39" class="node">
<title>Node39</title>
<g id="a_node39"><a xlink:href="quantum-import_8c.html" target="_top" xlink:title=" ">
<polygon fill="white" stroke="black" points="2595.51,-56.5 2595.51,-75.5 2699.51,-75.5 2699.51,-56.5 2595.51,-56.5"/>
<text text-anchor="middle" x="2647.51" y="-63.5" font-family="FreeSans" font-size="10.00">quantum&#45;import.c</text>
</a>
</g>
</g>
<!-- Node1&#45;&gt;Node39 -->
<g id="edge65" class="edge">
<title>Node1&#45;&gt;Node39</title>
<path fill="none" stroke="midnightblue" d="M2630.07,-158.35C2634.67,-134.25 2642.49,-93.31 2645.87,-75.59"/>
<polygon fill="midnightblue" stroke="midnightblue" points="2626.6,-157.89 2628.16,-168.37 2633.47,-159.2 2626.6,-157.89"/>
</g>
<!-- Node40 -->
<g id="node40" class="node">
<title>Node40</title>
<g id="a_node40"><a xlink:href="quantum_8c.html" target="_top" xlink:title=" ">
<polygon fill="white" stroke="black" points="2717.51,-56.5 2717.51,-75.5 2785.51,-75.5 2785.51,-56.5 2717.51,-56.5"/>
<text text-anchor="middle" x="2751.51" y="-63.5" font-family="FreeSans" font-size="10.00">quantum.c</text>
</a>
</g>
</g>
<!-- Node1&#45;&gt;Node40 -->
<g id="edge66" class="edge">
<title>Node1&#45;&gt;Node40</title>
<path fill="none" stroke="midnightblue" d="M2640.74,-160.42C2652.82,-146.77 2670.95,-127.23 2688.51,-112 2704.55,-98.08 2724.79,-84.2 2737.93,-75.62"/>
<polygon fill="midnightblue" stroke="midnightblue" points="2637.99,-158.24 2634.05,-168.08 2643.27,-162.85 2637.99,-158.24"/>
</g>
<!-- Node46 -->
<g id="node46" class="node">
<title>Node46</title>
<g id="a_node46"><a xlink:href="visual-effects_8c.html" target="_top" xlink:title=" ">
<polygon fill="white" stroke="black" points="2804.01,-56.5 2804.01,-75.5 2895.01,-75.5 2895.01,-56.5 2804.01,-56.5"/>
<text text-anchor="middle" x="2849.51" y="-63.5" font-family="FreeSans" font-size="10.00">visual&#45;effects.c</text>
</a>
</g>
</g>
<!-- Node1&#45;&gt;Node46 -->
<g id="edge70" class="edge">
<title>Node1&#45;&gt;Node46</title>
<path fill="none" stroke="midnightblue" d="M2646.13,-162.33C2665.74,-148.15 2697.12,-126.69 2726.51,-112 2757.43,-96.55 2794.99,-83.58 2820.41,-75.59"/>
<polygon fill="midnightblue" stroke="midnightblue" points="2644,-159.56 2638,-168.29 2648.14,-165.21 2644,-159.56"/>
</g>
<!-- Node47 -->
<g id="node47" class="node">
<title>Node47</title>
<g id="a_node47"><a xlink:href="profile_8c.html" target="_top" xlink:title=" ">
<polygon fill="white" stroke="black" points="2768.51,-112.5 2768.51,-131.5 2824.51,-131.5 2824.51,-112.5 2768.51,-112.5"/>
<text text-anchor="middle" x="2796.51" y="-119.5" font-family="FreeSans" font-size="10.00">profile.c</text>
</a>
</g>
</g>
<!-- Node1&#45;&gt;Node47 -->
<g id="edge63" class="edge">
<title>Node1&#45;&gt;Node47</title>
<path fill="none" stroke="midnightblue" d="M2663.33,-165.3C2695.36,-155.13 2741.03,-140.62 2769.7,-131.52"/>
<polygon fill="midnightblue" stroke="midnightblue" points="2661.92,-162.08 2653.45,-168.44 2664.04,-168.75 2661.92,-162.08"/>
</g>
<!-- Node48 -->
<g id="node48" class="node">
<title>Node48</title>
<g id="a_node48"><a xlink:href="segment_8c.html" target="_top" xlink:title=" ">
<polygon fill="white" stroke="black" points="2842.51,-112.5 2842.51,-131.5 2910.51,-131.5 2910.51,-112.5 2842.51,-112.5"/>
<text text-anchor="middle" x="2876.51" y="-119.5" font-family="FreeSans" font-size="10.00">segment.c</text>
</a>
</g>
</g>
<!-- Node1&#45;&gt;Node48 -->
<g id="edge67" class="edge">
<title>Node1&#45;&gt;Node48</title>
<path fill="none" stroke="midnightblue" d="M2675.91,-166.33C2725.1,-155.71 2799.28,-139.68 2842.31,-130.39"/>
<polygon fill="midnightblue" stroke="midnightblue" points="2675.16,-162.91 2666.12,-168.44 2676.64,-169.75 2675.16,-162.91"/>
</g>
<!-- Node49 -->
<g id="node49" class="node">
<title>Node49</title>
<g id="a_node49"><a xlink:href="signature_8c.html" target="_top" xlink:title=" ">
<polygon fill="white" stroke="black" points="2929.01,-112.5 2929.01,-131.5 3000.01,-131.5 3000.01,-112.5 2929.01,-112.5"/>
<text text-anchor="middle" x="2964.51" y="-119.5" font-family="FreeSans" font-size="10.00">signature.c</text>
</a>
</g>
</g>
<!-- Node1&#45;&gt;Node49 -->
<g id="edge68" class="edge">
<title>Node1&#45;&gt;Node49</title>
<path fill="none" stroke="midnightblue" d="M2690.08,-168.08C2749.53,-159.54 2840.7,-145.93 2919.51,-132 2922.49,-131.47 2925.58,-130.9 2928.68,-130.32"/>
<polygon fill="midnightblue" stroke="midnightblue" points="2689.5,-164.63 2680.1,-169.51 2690.49,-171.56 2689.5,-164.63"/>
</g>
<!-- Node50 -->
<g id="node50" class="node">
<title>Node50</title>
<g id="a_node50"><a xlink:href="xwindow_8c.html" target="_top" xlink:title=" ">
<polygon fill="white" stroke="black" points="3018.51,-112.5 3018.51,-131.5 3086.51,-131.5 3086.51,-112.5 3018.51,-112.5"/>
<text text-anchor="middle" x="3052.51" y="-119.5" font-family="FreeSans" font-size="10.00">xwindow.c</text>
</a>
</g>
</g>
<!-- Node1&#45;&gt;Node50 -->
<g id="edge71" class="edge">
<title>Node1&#45;&gt;Node50</title>
<path fill="none" stroke="midnightblue" d="M2690.53,-171.13C2766.59,-163.76 2897.21,-149.91 3008.51,-132 3011.74,-131.48 3015.1,-130.89 3018.45,-130.26"/>
<polygon fill="midnightblue" stroke="midnightblue" points="2689.79,-167.68 2680.17,-172.12 2690.46,-174.65 2689.79,-167.68"/>
</g>
<!-- Node7&#45;&gt;Node4 -->
<g id="edge38" class="edge">
<title>Node7&#45;&gt;Node4</title>
<path fill="none" stroke="midnightblue" d="M1402.74,-119.41C1170.18,-112.51 262.04,-84.98 250.51,-76 233.26,-62.56 231.05,-34.34 231.13,-19.91"/>
<polygon fill="midnightblue" stroke="midnightblue" points="1402.88,-122.92 1412.98,-119.72 1403.09,-115.92 1402.88,-122.92"/>
</g>
<!-- Node7&#45;&gt;Node5 -->
<g id="edge40" class="edge">
<title>Node7&#45;&gt;Node5</title>
<path fill="none" stroke="midnightblue" d="M1402.48,-120.59C1189.1,-118.77 404.68,-109.85 158.51,-76 155.63,-75.6 152.65,-75.08 149.68,-74.48"/>
<polygon fill="midnightblue" stroke="midnightblue" points="1402.77,-124.1 1412.8,-120.68 1402.83,-117.1 1402.77,-124.1"/>
</g>
<!-- Node7&#45;&gt;Node6 -->
<g id="edge41" class="edge">
<title>Node7&#45;&gt;Node6</title>
<path fill="none" stroke="midnightblue" d="M1402.85,-119.41C1172.54,-112.53 276.78,-85.27 217.51,-76 212.84,-75.27 207.87,-74.08 203.28,-72.81"/>
<polygon fill="midnightblue" stroke="midnightblue" points="1402.89,-122.91 1412.99,-119.71 1403.1,-115.91 1402.89,-122.91"/>
</g>
<!-- Node8 -->
<g id="node8" class="node">
<title>Node8</title>
<g id="a_node8"><a xlink:href="accelerate_8c.html" target="_top" xlink:title=" ">
<polygon fill="white" stroke="black" points="825.51,-56.5 825.51,-75.5 901.51,-75.5 901.51,-56.5 825.51,-56.5"/>
<text text-anchor="middle" x="863.51" y="-63.5" font-family="FreeSans" font-size="10.00">accelerate.c</text>
</a>
</g>
</g>
<!-- Node7&#45;&gt;Node8 -->
<g id="edge7" class="edge">
<title>Node7&#45;&gt;Node8</title>
<path fill="none" stroke="midnightblue" d="M1402.71,-118.1C1305.27,-112.51 1093.21,-98.72 915.51,-76 911.06,-75.43 906.4,-74.75 901.79,-74.02"/>
<polygon fill="midnightblue" stroke="midnightblue" points="1402.71,-121.61 1412.9,-118.68 1403.11,-114.62 1402.71,-121.61"/>
</g>
<!-- Node9 -->
<g id="node9" class="node">
<title>Node9</title>
<g id="a_node9"><a xlink:href="attribute_8c.html" target="_top" xlink:title=" ">
<polygon fill="white" stroke="black" points="980.01,-0.5 980.01,-19.5 1047.01,-19.5 1047.01,-0.5 980.01,-0.5"/>
<text text-anchor="middle" x="1013.51" y="-7.5" font-family="FreeSans" font-size="10.00">attribute.c</text>
</a>
</g>
</g>
<!-- Node7&#45;&gt;Node9 -->
<g id="edge8" class="edge">
<title>Node7&#45;&gt;Node9</title>
<path fill="none" stroke="midnightblue" d="M1402.78,-119.83C1285.34,-116.73 1014.07,-106.33 986.51,-76 971.39,-59.36 991.95,-33.06 1004.72,-19.58"/>
<polygon fill="midnightblue" stroke="midnightblue" points="1402.89,-123.34 1412.98,-120.1 1403.07,-116.34 1402.89,-123.34"/>
</g>
<!-- Node10 -->
<g id="node10" class="node">
<title>Node10</title>
<g id="a_node10"><a xlink:href="cache_8c.html" target="_top" xlink:title=" ">
<polygon fill="white" stroke="black" points="1065.01,-0.5 1065.01,-19.5 1118.01,-19.5 1118.01,-0.5 1065.01,-0.5"/>
<text text-anchor="middle" x="1091.51" y="-7.5" font-family="FreeSans" font-size="10.00">cache.c</text>
</a>
</g>
</g>
<!-- Node7&#45;&gt;Node10 -->
<g id="edge9" class="edge">
<title>Node7&#45;&gt;Node10</title>
<path fill="none" stroke="midnightblue" d="M1405.22,-110.18C1369.98,-102.18 1322.36,-90.22 1281.51,-76 1260.84,-68.81 1257,-63.7 1236.51,-56 1195.8,-40.7 1147.33,-26.43 1118.02,-18.21"/>
<polygon fill="midnightblue" stroke="midnightblue" points="1404.75,-113.66 1415.27,-112.44 1406.28,-106.83 1404.75,-113.66"/>
</g>
<!-- Node11 -->
<g id="node11" class="node">
<title>Node11</title>
<g id="a_node11"><a xlink:href="color_8c.html" target="_top" xlink:title=" ">
<polygon fill="white" stroke="black" points="995.51,-56.5 995.51,-75.5 1043.51,-75.5 1043.51,-56.5 995.51,-56.5"/>
<text text-anchor="middle" x="1019.51" y="-63.5" font-family="FreeSans" font-size="10.00">color.c</text>
</a>
</g>
</g>
<!-- Node7&#45;&gt;Node11 -->
<g id="edge10" class="edge">
<title>Node7&#45;&gt;Node11</title>
<path fill="none" stroke="midnightblue" d="M1402.79,-117.68C1325.01,-112.28 1176.74,-99.71 1052.51,-76 1049.59,-75.44 1046.56,-74.76 1043.56,-74.02"/>
<polygon fill="midnightblue" stroke="midnightblue" points="1402.62,-121.18 1412.83,-118.37 1403.1,-114.19 1402.62,-121.18"/>
</g>
<!-- Node12 -->
<g id="node12" class="node">
<title>Node12</title>
<g id="a_node12"><a xlink:href="colormap_8c.html" target="_top" xlink:title=" ">
<polygon fill="white" stroke="black" points="1062.01,-56.5 1062.01,-75.5 1133.01,-75.5 1133.01,-56.5 1062.01,-56.5"/>
<text text-anchor="middle" x="1097.51" y="-63.5" font-family="FreeSans" font-size="10.00">colormap.c</text>
</a>
</g>
</g>
<!-- Node7&#45;&gt;Node12 -->
<g id="edge11" class="edge">
<title>Node7&#45;&gt;Node12</title>
<path fill="none" stroke="midnightblue" d="M1402.74,-114.31C1339.91,-106.27 1232.9,-91.86 1141.51,-76 1138.75,-75.52 1135.89,-75 1133.02,-74.45"/>
<polygon fill="midnightblue" stroke="midnightblue" points="1402.45,-117.81 1412.81,-115.6 1403.34,-110.86 1402.45,-117.81"/>
</g>
<!-- Node13 -->
<g id="node13" class="node">
<title>Node13</title>
<g id="a_node13"><a xlink:href="colorspace_8c.html" target="_top" xlink:title=" ">
<polygon fill="white" stroke="black" points="1151.01,-56.5 1151.01,-75.5 1228.01,-75.5 1228.01,-56.5 1151.01,-56.5"/>
<text text-anchor="middle" x="1189.51" y="-63.5" font-family="FreeSans" font-size="10.00">colorspace.c</text>
</a>
</g>
</g>
<!-- Node7&#45;&gt;Node13 -->
<g id="edge12" class="edge">
<title>Node7&#45;&gt;Node13</title>
<path fill="none" stroke="midnightblue" d="M1404.23,-110.43C1352.5,-99.96 1274.53,-84.19 1228.15,-74.82"/>
<polygon fill="midnightblue" stroke="midnightblue" points="1403.71,-113.89 1414.2,-112.44 1405.1,-107.03 1403.71,-113.89"/>
</g>
<!-- Node14 -->
<g id="node14" class="node">
<title>Node14</title>
<g id="a_node14"><a xlink:href="compare_8c.html" target="_top" xlink:title=" ">
<polygon fill="white" stroke="black" points="1136.51,-0.5 1136.51,-19.5 1204.51,-19.5 1204.51,-0.5 1136.51,-0.5"/>
<text text-anchor="middle" x="1170.51" y="-7.5" font-family="FreeSans" font-size="10.00">compare.c</text>
</a>
</g>
</g>
<!-- Node7&#45;&gt;Node14 -->
<g id="edge13" class="edge">
<title>Node7&#45;&gt;Node14</title>
<path fill="none" stroke="midnightblue" d="M1423.03,-108.9C1398.47,-99.96 1364.35,-87.41 1334.51,-76 1283.02,-56.3 1222.86,-32.17 1191.68,-19.58"/>
<polygon fill="midnightblue" stroke="midnightblue" points="1422.01,-112.25 1432.6,-112.37 1424.4,-105.67 1422.01,-112.25"/>
</g>
<!-- Node15 -->
<g id="node15" class="node">
<title>Node15</title>
<g id="a_node15"><a xlink:href="composite-private_8h.html" target="_top" xlink:title=" ">
<polygon fill="white" stroke="black" points="1399.01,-56.5 1399.01,-75.5 1514.01,-75.5 1514.01,-56.5 1399.01,-56.5"/>
<text text-anchor="middle" x="1456.51" y="-63.5" font-family="FreeSans" font-size="10.00">composite&#45;private.h</text>
</a>
</g>
</g>
<!-- Node7&#45;&gt;Node15 -->
<g id="edge14" class="edge">
<title>Node7&#45;&gt;Node15</title>
<path fill="none" stroke="midnightblue" d="M1456.51,-101.8C1456.51,-92.91 1456.51,-82.78 1456.51,-75.75"/>
<polygon fill="midnightblue" stroke="midnightblue" points="1453.01,-102.08 1456.51,-112.08 1460.01,-102.08 1453.01,-102.08"/>
</g>
<!-- Node17 -->
<g id="node17" class="node">
<title>Node17</title>
<g id="a_node17"><a xlink:href="composite_8c.html" target="_top" xlink:title=" ">
<polygon fill="white" stroke="black" points="1222.51,-0.5 1222.51,-19.5 1298.51,-19.5 1298.51,-0.5 1222.51,-0.5"/>
<text text-anchor="middle" x="1260.51" y="-7.5" font-family="FreeSans" font-size="10.00">composite.c</text>
</a>
</g>
</g>
<!-- Node7&#45;&gt;Node17 -->
<g id="edge31" class="edge">
<title>Node7&#45;&gt;Node17</title>
<path fill="none" stroke="midnightblue" d="M1430.54,-107.62C1413.62,-98.81 1391.14,-86.94 1371.51,-76 1336.4,-56.44 1295.78,-32.25 1274.77,-19.61"/>
<polygon fill="midnightblue" stroke="midnightblue" points="1429.3,-110.92 1439.78,-112.41 1432.52,-104.7 1429.3,-110.92"/>
</g>
<!-- Node18 -->
<g id="node18" class="node">
<title>Node18</title>
<g id="a_node18"><a xlink:href="deprecate_8c.html" target="_top" xlink:title=" ">
<polygon fill="white" stroke="black" points="1316.51,-0.5 1316.51,-19.5 1390.51,-19.5 1390.51,-0.5 1316.51,-0.5"/>
<text text-anchor="middle" x="1353.51" y="-7.5" font-family="FreeSans" font-size="10.00">deprecate.c</text>
</a>
</g>
</g>
<!-- Node7&#45;&gt;Node18 -->
<g id="edge33" class="edge">
<title>Node7&#45;&gt;Node18</title>
<path fill="none" stroke="midnightblue" d="M1430.38,-107.4C1417.01,-99.53 1401.14,-88.67 1389.51,-76 1373.64,-58.7 1362.14,-33.15 1356.82,-19.82"/>
<polygon fill="midnightblue" stroke="midnightblue" points="1428.74,-110.49 1439.16,-112.37 1432.18,-104.4 1428.74,-110.49"/>
</g>
<!-- Node19 -->
<g id="node19" class="node">
<title>Node19</title>
<g id="a_node19"><a xlink:href="distort_8c.html" target="_top" xlink:title=" ">
<polygon fill="white" stroke="black" points="1490.51,-0.5 1490.51,-19.5 1546.51,-19.5 1546.51,-0.5 1490.51,-0.5"/>
<text text-anchor="middle" x="1518.51" y="-7.5" font-family="FreeSans" font-size="10.00">distort.c</text>
</a>
</g>
</g>
<!-- Node7&#45;&gt;Node19 -->
<g id="edge35" class="edge">
<title>Node7&#45;&gt;Node19</title>
<path fill="none" stroke="midnightblue" d="M1487.89,-107.83C1501.09,-100.53 1515.09,-90.05 1522.51,-76 1532.13,-57.81 1526.05,-32.63 1521.73,-19.59"/>
<polygon fill="midnightblue" stroke="midnightblue" points="1486.29,-104.72 1478.97,-112.38 1489.47,-110.96 1486.29,-104.72"/>
</g>
<!-- Node20 -->
<g id="node20" class="node">
<title>Node20</title>
<g id="a_node20"><a xlink:href="draw_8c.html" target="_top" xlink:title=" ">
<polygon fill="white" stroke="black" points="1564.51,-0.5 1564.51,-19.5 1612.51,-19.5 1612.51,-0.5 1564.51,-0.5"/>
<text text-anchor="middle" x="1588.51" y="-7.5" font-family="FreeSans" font-size="10.00">draw.c</text>
</a>
</g>
</g>
<!-- Node7&#45;&gt;Node20 -->
<g id="edge36" class="edge">
<title>Node7&#45;&gt;Node20</title>
<path fill="none" stroke="midnightblue" d="M1487.12,-108.28C1503.71,-100.48 1523.94,-89.41 1539.51,-76 1559.22,-59.03 1575.91,-32.88 1583.74,-19.51"/>
<polygon fill="midnightblue" stroke="midnightblue" points="1485.49,-105.18 1477.83,-112.49 1488.39,-111.55 1485.49,-105.18"/>
</g>
<!-- Node21 -->
<g id="node21" class="node">
<title>Node21</title>
<g id="a_node21"><a xlink:href="feature_8c.html" target="_top" xlink:title=" ">
<polygon fill="white" stroke="black" points="1630.51,-0.5 1630.51,-19.5 1690.51,-19.5 1690.51,-0.5 1630.51,-0.5"/>
<text text-anchor="middle" x="1660.51" y="-7.5" font-family="FreeSans" font-size="10.00">feature.c</text>
</a>
</g>
</g>
<!-- Node7&#45;&gt;Node21 -->
<g id="edge39" class="edge">
<title>Node7&#45;&gt;Node21</title>
<path fill="none" stroke="midnightblue" d="M1489.86,-108.89C1511.36,-100.61 1539.67,-88.85 1563.51,-76 1596.17,-58.4 1631.7,-32.75 1649.31,-19.55"/>
<polygon fill="midnightblue" stroke="midnightblue" points="1488.6,-105.62 1480.49,-112.43 1491.09,-112.16 1488.6,-105.62"/>
</g>
<!-- Node22 -->
<g id="node22" class="node">
<title>Node22</title>
<g id="a_node22"><a xlink:href="image_8c.html" target="_top" xlink:title=" ">
<polygon fill="white" stroke="black" points="1708.51,-0.5 1708.51,-19.5 1764.51,-19.5 1764.51,-0.5 1708.51,-0.5"/>
<text text-anchor="middle" x="1736.51" y="-7.5" font-family="FreeSans" font-size="10.00">image.c</text>
</a>
</g>
</g>
<!-- Node7&#45;&gt;Node22 -->
<g id="edge45" class="edge">
<title>Node7&#45;&gt;Node22</title>
<path fill="none" stroke="midnightblue" d="M1495.7,-109.53C1523.55,-101.06 1561.69,-88.82 1594.51,-76 1640.48,-58.05 1692.86,-32.77 1719.3,-19.65"/>
<polygon fill="midnightblue" stroke="midnightblue" points="1494.49,-106.23 1485.93,-112.47 1496.51,-112.94 1494.49,-106.23"/>
</g>
<!-- Node23 -->
<g id="node23" class="node">
<title>Node23</title>
<g id="a_node23"><a xlink:href="paint_8c.html" target="_top" xlink:title=" ">
<polygon fill="white" stroke="black" points="1782.51,-0.5 1782.51,-19.5 1832.51,-19.5 1832.51,-0.5 1782.51,-0.5"/>
<text text-anchor="middle" x="1807.51" y="-7.5" font-family="FreeSans" font-size="10.00">paint.c</text>
</a>
</g>
</g>
<!-- Node7&#45;&gt;Node23 -->
<g id="edge49" class="edge">
<title>Node7&#45;&gt;Node23</title>
<path fill="none" stroke="midnightblue" d="M1504.71,-110.12C1540.3,-101.74 1589.77,-89.36 1632.51,-76 1689.12,-58.3 1754.22,-32.69 1786.75,-19.53"/>
<polygon fill="midnightblue" stroke="midnightblue" points="1503.54,-106.8 1494.6,-112.48 1505.13,-113.62 1503.54,-106.8"/>
</g>
<!-- Node24 -->
<g id="node24" class="node">
<title>Node24</title>
<g id="a_node24"><a xlink:href="shear_8c.html" target="_top" xlink:title=" ">
<polygon fill="white" stroke="black" points="1851.01,-0.5 1851.01,-19.5 1902.01,-19.5 1902.01,-0.5 1851.01,-0.5"/>
<text text-anchor="middle" x="1876.51" y="-7.5" font-family="FreeSans" font-size="10.00">shear.c</text>
</a>
</g>
</g>
<!-- Node7&#45;&gt;Node24 -->
<g id="edge57" class="edge">
<title>Node7&#45;&gt;Node24</title>
<path fill="none" stroke="midnightblue" d="M1510.34,-111.74C1555.12,-103.62 1620.38,-90.81 1676.51,-76 1741.29,-58.91 1815.96,-32.92 1853.06,-19.57"/>
<polygon fill="midnightblue" stroke="midnightblue" points="1509.48,-108.34 1500.26,-113.55 1510.72,-115.23 1509.48,-108.34"/>
</g>
<!-- Node25 -->
<g id="node25" class="node">
<title>Node25</title>
<g id="a_node25"><a xlink:href="statistic_8c.html" target="_top" xlink:title=" ">
<polygon fill="white" stroke="black" points="897.51,-0.5 897.51,-19.5 961.51,-19.5 961.51,-0.5 897.51,-0.5"/>
<text text-anchor="middle" x="929.51" y="-7.5" font-family="FreeSans" font-size="10.00">statistic.c</text>
</a>
</g>
</g>
<!-- Node7&#45;&gt;Node25 -->
<g id="edge58" class="edge">
<title>Node7&#45;&gt;Node25</title>
<path fill="none" stroke="midnightblue" d="M1402.75,-121.38C1293.33,-121.28 1049.02,-116.39 977.51,-76 954.55,-63.03 939.43,-34.05 933.01,-19.58"/>
<polygon fill="midnightblue" stroke="midnightblue" points="1402.91,-124.88 1412.91,-121.37 1402.91,-117.88 1402.91,-124.88"/>
</g>
<!-- Node27 -->
<g id="node27" class="node">
<title>Node27</title>
<g id="a_node27"><a xlink:href="decorate_8c.html" target="_top" xlink:title=" ">
<polygon fill="white" stroke="black" points="1760.51,-56.5 1760.51,-75.5 1828.51,-75.5 1828.51,-56.5 1760.51,-56.5"/>
<text text-anchor="middle" x="1794.51" y="-63.5" font-family="FreeSans" font-size="10.00">decorate.c</text>
</a>
</g>
</g>
<!-- Node7&#45;&gt;Node27 -->
<g id="edge32" class="edge">
<title>Node7&#45;&gt;Node27</title>
<path fill="none" stroke="midnightblue" d="M1510.39,-113.16C1568.68,-104.55 1664.32,-90.08 1746.51,-76 1751.02,-75.23 1755.77,-74.38 1760.45,-73.52"/>
<polygon fill="midnightblue" stroke="midnightblue" points="1509.69,-109.72 1500.31,-114.64 1510.71,-116.65 1509.69,-109.72"/>
</g>
<!-- Node28 -->
<g id="node28" class="node">
<title>Node28</title>
<g id="a_node28"><a xlink:href="display_8c.html" target="_top" xlink:title=" ">
<polygon fill="white" stroke="black" points="1847.01,-56.5 1847.01,-75.5 1906.01,-75.5 1906.01,-56.5 1847.01,-56.5"/>
<text text-anchor="middle" x="1876.51" y="-63.5" font-family="FreeSans" font-size="10.00">display.c</text>
</a>
</g>
</g>
<!-- Node7&#45;&gt;Node28 -->
<g id="edge34" class="edge">
<title>Node7&#45;&gt;Node28</title>
<path fill="none" stroke="midnightblue" d="M1510.17,-116.52C1584.17,-109.93 1721.57,-96.16 1837.51,-76 1840.52,-75.48 1843.65,-74.87 1846.77,-74.22"/>
<polygon fill="midnightblue" stroke="midnightblue" points="1509.81,-113.04 1500.16,-117.41 1510.43,-120.02 1509.81,-113.04"/>
</g>
<!-- Node29 -->
<g id="node29" class="node">
<title>Node29</title>
<g id="a_node29"><a xlink:href="effect_8c.html" target="_top" xlink:title=" ">
<polygon fill="white" stroke="black" points="1924.01,-56.5 1924.01,-75.5 1977.01,-75.5 1977.01,-56.5 1924.01,-56.5"/>
<text text-anchor="middle" x="1950.51" y="-63.5" font-family="FreeSans" font-size="10.00">effect.c</text>
</a>
</g>
</g>
<!-- Node7&#45;&gt;Node29 -->
<g id="edge37" class="edge">
<title>Node7&#45;&gt;Node29</title>
<path fill="none" stroke="midnightblue" d="M1510.08,-118.3C1595.94,-113.39 1769.45,-101.12 1914.51,-76 1917.56,-75.47 1920.73,-74.83 1923.87,-74.12"/>
<polygon fill="midnightblue" stroke="midnightblue" points="1509.84,-114.8 1500.05,-118.86 1510.23,-121.79 1509.84,-114.8"/>
</g>
<!-- Node30 -->
<g id="node30" class="node">
<title>Node30</title>
<g id="a_node30"><a xlink:href="gem_8c.html" target="_top" xlink:title=" ">
<polygon fill="white" stroke="black" points="1995.01,-56.5 1995.01,-75.5 2042.01,-75.5 2042.01,-56.5 1995.01,-56.5"/>
<text text-anchor="middle" x="2018.51" y="-63.5" font-family="FreeSans" font-size="10.00">gem.c</text>
</a>
</g>
</g>
<!-- Node7&#45;&gt;Node30 -->
<g id="edge42" class="edge">
<title>Node7&#45;&gt;Node30</title>
<path fill="none" stroke="midnightblue" d="M1510.1,-119.65C1606.1,-116.52 1813.45,-106.52 1985.51,-76 1988.55,-75.46 1991.72,-74.77 1994.83,-74.01"/>
<polygon fill="midnightblue" stroke="midnightblue" points="1509.94,-116.15 1500.06,-119.96 1510.16,-123.15 1509.94,-116.15"/>
</g>
<!-- Node31 -->
<g id="node31" class="node">
<title>Node31</title>
<g id="a_node31"><a xlink:href="histogram_8c.html" target="_top" xlink:title=" ">
<polygon fill="white" stroke="black" points="2060.51,-56.5 2060.51,-75.5 2134.51,-75.5 2134.51,-56.5 2060.51,-56.5"/>
<text text-anchor="middle" x="2097.51" y="-63.5" font-family="FreeSans" font-size="10.00">histogram.c</text>
</a>
</g>
</g>
<!-- Node7&#45;&gt;Node31 -->
<g id="edge43" class="edge">
<title>Node7&#45;&gt;Node31</title>
<path fill="none" stroke="midnightblue" d="M1510.59,-118.96C1615.23,-114.56 1852.54,-102.37 2050.51,-76 2053.72,-75.57 2057.05,-75.07 2060.37,-74.51"/>
<polygon fill="midnightblue" stroke="midnightblue" points="1510.13,-115.48 1500.28,-119.39 1510.42,-122.47 1510.13,-115.48"/>
</g>
<!-- Node32 -->
<g id="node32" class="node">
<title>Node32</title>
<g id="a_node32"><a xlink:href="identify_8c.html" target="_top" xlink:title=" ">
<polygon fill="white" stroke="black" points="2152.51,-56.5 2152.51,-75.5 2212.51,-75.5 2212.51,-56.5 2152.51,-56.5"/>
<text text-anchor="middle" x="2182.51" y="-63.5" font-family="FreeSans" font-size="10.00">identify.c</text>
</a>
</g>
</g>
<!-- Node7&#45;&gt;Node32 -->
<g id="edge44" class="edge">
<title>Node7&#45;&gt;Node32</title>
<path fill="none" stroke="midnightblue" d="M1510.23,-120.42C1626.38,-118.53 1909.34,-110.46 2143.51,-76 2146.4,-75.58 2149.39,-75.05 2152.37,-74.46"/>
<polygon fill="midnightblue" stroke="midnightblue" points="1510.12,-116.92 1500.17,-120.58 1510.22,-123.92 1510.12,-116.92"/>
</g>
<!-- Node33 -->
<g id="node33" class="node">
<title>Node33</title>
<g id="a_node33"><a xlink:href="layer_8c.html" target="_top" xlink:title=" ">
<polygon fill="white" stroke="black" points="2231.01,-56.5 2231.01,-75.5 2280.01,-75.5 2280.01,-56.5 2231.01,-56.5"/>
<text text-anchor="middle" x="2255.51" y="-63.5" font-family="FreeSans" font-size="10.00">layer.c</text>
</a>
</g>
</g>
<!-- Node7&#45;&gt;Node33 -->
<g id="edge46" class="edge">
<title>Node7&#45;&gt;Node33</title>
<path fill="none" stroke="midnightblue" d="M1510.53,-121.51C1636.14,-121.91 1957.33,-118.3 2221.51,-76 2224.53,-75.52 2227.66,-74.88 2230.75,-74.17"/>
<polygon fill="midnightblue" stroke="midnightblue" points="1510.41,-118.01 1500.4,-121.47 1510.39,-125.01 1510.41,-118.01"/>
</g>
<!-- Node34 -->
<g id="node34" class="node">
<title>Node34</title>
<g id="a_node34"><a xlink:href="matrix_8c.html" target="_top" xlink:title=" ">
<polygon fill="white" stroke="black" points="2298.01,-56.5 2298.01,-75.5 2355.01,-75.5 2355.01,-56.5 2298.01,-56.5"/>
<text text-anchor="middle" x="2326.51" y="-63.5" font-family="FreeSans" font-size="10.00">matrix.c</text>
</a>
</g>
</g>
<!-- Node7&#45;&gt;Node34 -->
<g id="edge47" class="edge">
<title>Node7&#45;&gt;Node34</title>
<path fill="none" stroke="midnightblue" d="M1510.39,-121.4C1643.31,-121.68 1997.17,-118.04 2288.51,-76 2291.6,-75.55 2294.8,-74.98 2297.98,-74.33"/>
<polygon fill="midnightblue" stroke="midnightblue" points="1510.1,-117.9 1500.09,-121.37 1510.08,-124.9 1510.1,-117.9"/>
</g>
<!-- Node35 -->
<g id="node35" class="node">
<title>Node35</title>
<g id="a_node35"><a xlink:href="morphology_8c.html" target="_top" xlink:title=" ">
<polygon fill="white" stroke="black" points="2373.51,-56.5 2373.51,-75.5 2455.51,-75.5 2455.51,-56.5 2373.51,-56.5"/>
<text text-anchor="middle" x="2414.51" y="-63.5" font-family="FreeSans" font-size="10.00">morphology.c</text>
</a>
</g>
</g>
<!-- Node7&#45;&gt;Node35 -->
<g id="edge48" class="edge">
<title>Node7&#45;&gt;Node35</title>
<path fill="none" stroke="midnightblue" d="M1510.17,-120.68C1650.71,-119.32 2041.01,-112.31 2363.51,-76 2366.73,-75.64 2370.05,-75.2 2373.38,-74.71"/>
<polygon fill="midnightblue" stroke="midnightblue" points="1510.06,-117.18 1500.09,-120.77 1510.12,-124.18 1510.06,-117.18"/>
</g>
<!-- Node36 -->
<g id="node36" class="node">
<title>Node36</title>
<g id="a_node36"><a xlink:href="pixel_8c.html" target="_top" xlink:title=" ">
<polygon fill="white" stroke="black" points="259.51,-56.5 259.51,-75.5 307.51,-75.5 307.51,-56.5 259.51,-56.5"/>
<text text-anchor="middle" x="283.51" y="-63.5" font-family="FreeSans" font-size="10.00">pixel.c</text>
</a>
</g>
</g>
<!-- Node7&#45;&gt;Node36 -->
<g id="edge50" class="edge">
<title>Node7&#45;&gt;Node36</title>
<path fill="none" stroke="midnightblue" d="M1402.78,-119.6C1191.52,-113.98 424.38,-92.62 316.51,-76 313.58,-75.55 310.53,-74.93 307.53,-74.23"/>
<polygon fill="midnightblue" stroke="midnightblue" points="1402.9,-123.1 1412.99,-119.87 1403.09,-116.1 1402.9,-123.1"/>
</g>
<!-- Node37 -->
<g id="node37" class="node">
<title>Node37</title>
<g id="a_node37"><a xlink:href="quantize_8c.html" target="_top" xlink:title=" ">
<polygon fill="white" stroke="black" points="326.01,-56.5 326.01,-75.5 393.01,-75.5 393.01,-56.5 326.01,-56.5"/>
<text text-anchor="middle" x="359.51" y="-63.5" font-family="FreeSans" font-size="10.00">quantize.c</text>
</a>
</g>
</g>
<!-- Node7&#45;&gt;Node37 -->
<g id="edge51" class="edge">
<title>Node7&#45;&gt;Node37</title>
<path fill="none" stroke="midnightblue" d="M1402.85,-119.24C1202.01,-112.59 501.05,-88.7 401.51,-76 398.85,-75.66 396.1,-75.24 393.35,-74.76"/>
<polygon fill="midnightblue" stroke="midnightblue" points="1402.76,-122.74 1412.87,-119.57 1402.99,-115.74 1402.76,-122.74"/>
</g>
<!-- Node7&#45;&gt;Node38 -->
<g id="edge52" class="edge">
<title>Node7&#45;&gt;Node38</title>
<path fill="none" stroke="midnightblue" d="M1510.73,-120.52C1662,-118.76 2101.37,-110.8 2464.51,-76 2467.39,-75.72 2470.34,-75.41 2473.31,-75.06"/>
<polygon fill="midnightblue" stroke="midnightblue" points="1510.3,-117.02 1500.34,-120.64 1510.38,-124.02 1510.3,-117.02"/>
</g>
<!-- Node7&#45;&gt;Node39 -->
<g id="edge53" class="edge">
<title>Node7&#45;&gt;Node39</title>
<path fill="none" stroke="midnightblue" d="M1510.48,-120.89C1673.31,-120.12 2173.81,-114.55 2586.51,-76 2589.39,-75.73 2592.34,-75.42 2595.31,-75.08"/>
<polygon fill="midnightblue" stroke="midnightblue" points="1510.24,-117.39 1500.25,-120.93 1510.27,-124.39 1510.24,-117.39"/>
</g>
<!-- Node7&#45;&gt;Node40 -->
<g id="edge54" class="edge">
<title>Node7&#45;&gt;Node40</title>
<path fill="none" stroke="midnightblue" d="M1510.33,-120.29C1718.52,-117.34 2471.24,-104.88 2708.51,-76 2711.39,-75.65 2714.36,-75.21 2717.33,-74.7"/>
<polygon fill="midnightblue" stroke="midnightblue" points="1510.21,-116.79 1500.26,-120.43 1510.31,-123.79 1510.21,-116.79"/>
</g>
<!-- Node41 -->
<g id="node41" class="node">
<title>Node41</title>
<g id="a_node41"><a xlink:href="resample_8c.html" target="_top" xlink:title=" ">
<polygon fill="white" stroke="black" points="411.01,-56.5 411.01,-75.5 482.01,-75.5 482.01,-56.5 411.01,-56.5"/>
<text text-anchor="middle" x="446.51" y="-63.5" font-family="FreeSans" font-size="10.00">resample.c</text>
</a>
</g>
</g>
<!-- Node7&#45;&gt;Node41 -->
<g id="edge55" class="edge">
<title>Node7&#45;&gt;Node41</title>
<path fill="none" stroke="midnightblue" d="M1402.98,-119.57C1227.41,-114.71 670.13,-97.9 491.51,-76 488.51,-75.63 485.4,-75.17 482.29,-74.66"/>
<polygon fill="midnightblue" stroke="midnightblue" points="1402.92,-123.07 1413.01,-119.84 1403.11,-116.07 1402.92,-123.07"/>
</g>
<!-- Node42 -->
<g id="node42" class="node">
<title>Node42</title>
<g id="a_node42"><a xlink:href="resize_8c.html" target="_top" xlink:title=" ">
<polygon fill="white" stroke="black" points="500.51,-56.5 500.51,-75.5 554.51,-75.5 554.51,-56.5 500.51,-56.5"/>
<text text-anchor="middle" x="527.51" y="-63.5" font-family="FreeSans" font-size="10.00">resize.c</text>
</a>
</g>
</g>
<!-- Node7&#45;&gt;Node42 -->
<g id="edge56" class="edge">
<title>Node7&#45;&gt;Node42</title>
<path fill="none" stroke="midnightblue" d="M1402.75,-119.66C1235.66,-115.29 726.88,-100.3 563.51,-76 560.58,-75.56 557.54,-74.99 554.52,-74.35"/>
<polygon fill="midnightblue" stroke="midnightblue" points="1402.7,-123.16 1412.79,-119.92 1402.88,-116.17 1402.7,-123.16"/>
</g>
<!-- Node43 -->
<g id="node43" class="node">
<title>Node43</title>
<g id="a_node43"><a xlink:href="threshold_8c.html" target="_top" xlink:title=" ">
<polygon fill="white" stroke="black" points="573.01,-56.5 573.01,-75.5 644.01,-75.5 644.01,-56.5 573.01,-56.5"/>
<text text-anchor="middle" x="608.51" y="-63.5" font-family="FreeSans" font-size="10.00">threshold.c</text>
</a>
</g>
</g>
<!-- Node7&#45;&gt;Node43 -->
<g id="edge59" class="edge">
<title>Node7&#45;&gt;Node43</title>
<path fill="none" stroke="midnightblue" d="M1402.72,-119.01C1247.1,-113.11 798.29,-94.89 652.51,-76 649.88,-75.66 647.18,-75.25 644.46,-74.8"/>
<polygon fill="midnightblue" stroke="midnightblue" points="1402.85,-122.52 1412.97,-119.4 1403.11,-115.53 1402.85,-122.52"/>
</g>
<!-- Node44 -->
<g id="node44" class="node">
<title>Node44</title>
<g id="a_node44"><a xlink:href="transform_8c.html" target="_top" xlink:title=" ">
<polygon fill="white" stroke="black" points="662.01,-56.5 662.01,-75.5 735.01,-75.5 735.01,-56.5 662.01,-56.5"/>
<text text-anchor="middle" x="698.51" y="-63.5" font-family="FreeSans" font-size="10.00">transform.c</text>
</a>
</g>
</g>
<!-- Node7&#45;&gt;Node44 -->
<g id="edge60" class="edge">
<title>Node7&#45;&gt;Node44</title>
<path fill="none" stroke="midnightblue" d="M1402.68,-119.99C1283.59,-117.22 988.96,-107.5 744.51,-76 741.44,-75.6 738.27,-75.13 735.1,-74.6"/>
<polygon fill="midnightblue" stroke="midnightblue" points="1402.9,-123.49 1412.98,-120.22 1403.06,-116.49 1402.9,-123.49"/>
</g>
<!-- Node45 -->
<g id="node45" class="node">
<title>Node45</title>
<g id="a_node45"><a xlink:href="vision_8c.html" target="_top" xlink:title=" ">
<polygon fill="white" stroke="black" points="753.51,-56.5 753.51,-75.5 807.51,-75.5 807.51,-56.5 753.51,-56.5"/>
<text text-anchor="middle" x="780.51" y="-63.5" font-family="FreeSans" font-size="10.00">vision.c</text>
</a>
</g>
</g>
<!-- Node7&#45;&gt;Node45 -->
<g id="edge61" class="edge">
<title>Node7&#45;&gt;Node45</title>
<path fill="none" stroke="midnightblue" d="M1402.52,-120.38C1291.9,-118.41 1031.78,-110.21 816.51,-76 813.58,-75.53 810.55,-74.95 807.53,-74.29"/>
<polygon fill="midnightblue" stroke="midnightblue" points="1402.7,-123.88 1412.76,-120.55 1402.82,-116.88 1402.7,-123.88"/>
</g>
<!-- Node7&#45;&gt;Node46 -->
<g id="edge62" class="edge">
<title>Node7&#45;&gt;Node46</title>
<path fill="none" stroke="midnightblue" d="M1510.35,-120.11C1727.43,-116.4 2538.91,-101.11 2794.51,-76 2797.59,-75.7 2800.76,-75.33 2803.95,-74.92"/>
<polygon fill="midnightblue" stroke="midnightblue" points="1510.11,-116.62 1500.17,-120.29 1510.23,-123.62 1510.11,-116.62"/>
</g>
<!-- Node15&#45;&gt;Node2 -->
<g id="edge15" class="edge">
<title>Node15&#45;&gt;Node2</title>
<path fill="none" stroke="midnightblue" d="M1388.44,-62.1C1344.98,-60.28 1287.44,-57.92 1236.51,-56 771.23,-38.48 654.43,-45.42 189.51,-20 160.51,-18.41 127.63,-15.9 103.63,-13.93"/>
<polygon fill="midnightblue" stroke="midnightblue" points="1388.48,-65.61 1398.61,-62.53 1388.77,-58.61 1388.48,-65.61"/>
</g>
<!-- Node15&#45;&gt;Node4 -->
<g id="edge24" class="edge">
<title>Node15&#45;&gt;Node4</title>
<path fill="none" stroke="midnightblue" d="M1388.52,-62C1160.74,-51.96 429.65,-19.73 264.76,-12.47"/>
<polygon fill="midnightblue" stroke="midnightblue" points="1388.52,-65.51 1398.66,-62.45 1388.82,-58.51 1388.52,-65.51"/>
</g>
<!-- Node15&#45;&gt;Node9 -->
<g id="edge16" class="edge">
<title>Node15&#45;&gt;Node9</title>
<path fill="none" stroke="midnightblue" d="M1388.4,-59.43C1308.39,-52.42 1171.81,-38.94 1055.51,-20 1052.86,-19.57 1050.13,-19.08 1047.38,-18.56"/>
<polygon fill="midnightblue" stroke="midnightblue" points="1388.56,-62.96 1398.83,-60.34 1389.17,-55.99 1388.56,-62.96"/>
</g>
<!-- Node15&#45;&gt;Node10 -->
<g id="edge17" class="edge">
<title>Node15&#45;&gt;Node10</title>
<path fill="none" stroke="midnightblue" d="M1388.87,-57.93C1322.11,-50.44 1217.29,-37.31 1127.51,-20 1124.47,-19.41 1121.31,-18.73 1118.18,-18.01"/>
<polygon fill="midnightblue" stroke="midnightblue" points="1388.52,-61.41 1398.85,-59.04 1389.3,-54.46 1388.52,-61.41"/>
</g>
<!-- Node15&#45;&gt;Node14 -->
<g id="edge19" class="edge">
<title>Node15&#45;&gt;Node14</title>
<path fill="none" stroke="midnightblue" d="M1398.35,-54.62C1349.07,-45.73 1276.59,-32.44 1213.51,-20 1210.67,-19.44 1207.72,-18.85 1204.76,-18.24"/>
<polygon fill="midnightblue" stroke="midnightblue" points="1398.04,-58.12 1408.5,-56.45 1399.28,-51.23 1398.04,-58.12"/>
</g>
<!-- Node16 -->
<g id="node16" class="node">
<title>Node16</title>
<g id="a_node16"><a xlink:href="channel_8c.html" target="_top" xlink:title=" ">
<polygon fill="white" stroke="black" points="1409.01,-0.5 1409.01,-19.5 1472.01,-19.5 1472.01,-0.5 1409.01,-0.5"/>
<text text-anchor="middle" x="1440.51" y="-7.5" font-family="FreeSans" font-size="10.00">channel.c</text>
</a>
</g>
</g>
<!-- Node15&#45;&gt;Node16 -->
<g id="edge18" class="edge">
<title>Node15&#45;&gt;Node16</title>
<path fill="none" stroke="midnightblue" d="M1451,-46.4C1448.32,-37.36 1445.23,-26.94 1443.1,-19.75"/>
<polygon fill="midnightblue" stroke="midnightblue" points="1447.67,-47.49 1453.87,-56.08 1454.38,-45.5 1447.67,-47.49"/>
</g>
<!-- Node15&#45;&gt;Node17 -->
<g id="edge20" class="edge">
<title>Node15&#45;&gt;Node17</title>
<path fill="none" stroke="midnightblue" d="M1415.49,-53.7C1378.5,-43.51 1324.91,-28.74 1291.42,-19.52"/>
<polygon fill="midnightblue" stroke="midnightblue" points="1414.88,-57.16 1425.45,-56.44 1416.74,-50.41 1414.88,-57.16"/>
</g>
<!-- Node15&#45;&gt;Node18 -->
<g id="edge21" class="edge">
<title>Node15&#45;&gt;Node18</title>
<path fill="none" stroke="midnightblue" d="M1430.93,-51.59C1411.89,-41.61 1386.45,-28.27 1370.02,-19.65"/>
<polygon fill="midnightblue" stroke="midnightblue" points="1429.48,-54.78 1439.96,-56.32 1432.73,-48.58 1429.48,-54.78"/>
</g>
<!-- Node15&#45;&gt;Node19 -->
<g id="edge22" class="edge">
<title>Node15&#45;&gt;Node19</title>
<path fill="none" stroke="midnightblue" d="M1474.26,-49.54C1485.32,-39.91 1499.14,-27.87 1508.37,-19.83"/>
<polygon fill="midnightblue" stroke="midnightblue" points="1471.71,-47.12 1466.47,-56.32 1476.31,-52.4 1471.71,-47.12"/>
</g>
<!-- Node15&#45;&gt;Node20 -->
<g id="edge23" class="edge">
<title>Node15&#45;&gt;Node20</title>
<path fill="none" stroke="midnightblue" d="M1486.73,-52.64C1511.5,-42.5 1545.91,-28.43 1567.69,-19.52"/>
<polygon fill="midnightblue" stroke="midnightblue" points="1485.36,-49.42 1477.43,-56.44 1488.01,-55.9 1485.36,-49.42"/>
</g>
<!-- Node15&#45;&gt;Node21 -->
<g id="edge25" class="edge">
<title>Node15&#45;&gt;Node21</title>
<path fill="none" stroke="midnightblue" d="M1498.64,-53.85C1537.9,-43.45 1595.48,-28.21 1630.33,-18.99"/>
<polygon fill="midnightblue" stroke="midnightblue" points="1497.61,-50.5 1488.84,-56.44 1499.4,-57.27 1497.61,-50.5"/>
</g>
<!-- Node15&#45;&gt;Node22 -->
<g id="edge26" class="edge">
<title>Node15&#45;&gt;Node22</title>
<path fill="none" stroke="midnightblue" d="M1517.26,-54.71C1566.53,-46.14 1637.69,-33.23 1699.51,-20 1702.36,-19.39 1705.32,-18.73 1708.27,-18.04"/>
<polygon fill="midnightblue" stroke="midnightblue" points="1516.66,-51.27 1507.4,-56.42 1517.85,-58.16 1516.66,-51.27"/>
</g>
<!-- Node15&#45;&gt;Node23 -->
<g id="edge27" class="edge">
<title>Node15&#45;&gt;Node23</title>
<path fill="none" stroke="midnightblue" d="M1524.16,-57.74C1588.61,-50.27 1688.18,-37.29 1773.51,-20 1776.38,-19.42 1779.37,-18.74 1782.34,-18.02"/>
<polygon fill="midnightblue" stroke="midnightblue" points="1523.66,-54.27 1514.13,-58.89 1524.46,-61.22 1523.66,-54.27"/>
</g>
<!-- Node15&#45;&gt;Node24 -->
<g id="edge28" class="edge">
<title>Node15&#45;&gt;Node24</title>
<path fill="none" stroke="midnightblue" d="M1524.36,-59.87C1601.59,-53.38 1731.34,-40.51 1841.51,-20 1844.6,-19.43 1847.81,-18.73 1850.99,-17.99"/>
<polygon fill="midnightblue" stroke="midnightblue" points="1523.95,-56.39 1514.28,-60.7 1524.53,-63.36 1523.95,-56.39"/>
</g>
<!-- Node15&#45;&gt;Node25 -->
<g id="edge29" class="edge">
<title>Node15&#45;&gt;Node25</title>
<path fill="none" stroke="midnightblue" d="M1388.75,-61.38C1294.53,-55.75 1118.81,-43.05 970.51,-20 967.63,-19.55 964.65,-19.02 961.67,-18.45"/>
<polygon fill="midnightblue" stroke="midnightblue" points="1388.8,-64.89 1398.99,-61.98 1389.22,-57.9 1388.8,-64.89"/>
</g>
<!-- Node15&#45;&gt;Node26 -->
<g id="edge30" class="edge">
<title>Node15&#45;&gt;Node26</title>
<path fill="none" stroke="midnightblue" d="M1524.24,-61.27C1718.54,-50.56 2272.5,-20.04 2406.88,-12.63"/>
<polygon fill="midnightblue" stroke="midnightblue" points="1523.95,-57.78 1514.16,-61.82 1524.33,-64.77 1523.95,-57.78"/>
</g>
</g>
</svg>
