<?xml version="1.0" encoding="UTF-8" standalone="no"?>
<!DOCTYPE svg PUBLIC "-//W3C//DTD SVG 1.1//EN"
 "http://www.w3.org/Graphics/SVG/1.1/DTD/svg11.dtd">
<!-- Generated by graphviz version 2.43.0 (0)
 -->
<!-- Title: random&#45;private.h Pages: 1 -->
<svg width="565pt" height="84pt"
 viewBox="0.00 0.00 564.50 84.00" xmlns="http://www.w3.org/2000/svg" xmlns:xlink="http://www.w3.org/1999/xlink">
<g id="graph0" class="graph" transform="scale(1 1) rotate(0) translate(4 80)">
<title>random&#45;private.h</title>
<polygon fill="white" stroke="transparent" points="-4,4 -4,-80 560.5,-80 560.5,4 -4,4"/>
<!-- Node1 -->
<g id="node1" class="node">
<title>Node1</title>
<g id="a_node1"><a xlink:title=" ">
<polygon fill="#bfbfbf" stroke="black" points="196.5,-56.5 196.5,-75.5 297.5,-75.5 297.5,-56.5 196.5,-56.5"/>
<text text-anchor="middle" x="247" y="-63.5" font-family="FreeSans" font-size="10.00">random&#45;private.h</text>
</a>
</g>
</g>
<!-- Node2 -->
<g id="node2" class="node">
<title>Node2</title>
<g id="a_node2"><a xlink:href="accelerate_8c.html" target="_top" xlink:title=" ">
<polygon fill="white" stroke="black" points="0,-0.5 0,-19.5 76,-19.5 76,-0.5 0,-0.5"/>
<text text-anchor="middle" x="38" y="-7.5" font-family="FreeSans" font-size="10.00">accelerate.c</text>
</a>
</g>
</g>
<!-- Node1&#45;&gt;Node2 -->
<g id="edge1" class="edge">
<title>Node1&#45;&gt;Node2</title>
<path fill="none" stroke="midnightblue" d="M204.02,-53.89C164.55,-43.7 106.9,-28.8 70.96,-19.52"/>
<polygon fill="midnightblue" stroke="midnightblue" points="203.33,-57.33 213.88,-56.44 205.08,-50.55 203.33,-57.33"/>
</g>
<!-- Node3 -->
<g id="node3" class="node">
<title>Node3</title>
<g id="a_node3"><a xlink:href="effect_8c.html" target="_top" xlink:title=" ">
<polygon fill="white" stroke="black" points="94.5,-0.5 94.5,-19.5 147.5,-19.5 147.5,-0.5 94.5,-0.5"/>
<text text-anchor="middle" x="121" y="-7.5" font-family="FreeSans" font-size="10.00">effect.c</text>
</a>
</g>
</g>
<!-- Node1&#45;&gt;Node3 -->
<g id="edge2" class="edge">
<title>Node1&#45;&gt;Node3</title>
<path fill="none" stroke="midnightblue" d="M217.84,-52.5C194.22,-42.38 161.57,-28.39 140.87,-19.52"/>
<polygon fill="midnightblue" stroke="midnightblue" points="216.46,-55.72 227.03,-56.44 219.22,-49.29 216.46,-55.72"/>
</g>
<!-- Node4 -->
<g id="node4" class="node">
<title>Node4</title>
<g id="a_node4"><a xlink:href="fx_8c.html" target="_top" xlink:title=" ">
<polygon fill="white" stroke="black" points="165.5,-0.5 165.5,-19.5 200.5,-19.5 200.5,-0.5 165.5,-0.5"/>
<text text-anchor="middle" x="183" y="-7.5" font-family="FreeSans" font-size="10.00">fx.c</text>
</a>
</g>
</g>
<!-- Node1&#45;&gt;Node4 -->
<g id="edge3" class="edge">
<title>Node1&#45;&gt;Node4</title>
<path fill="none" stroke="midnightblue" d="M229.01,-49.82C217.54,-40.15 203.09,-27.95 193.47,-19.83"/>
<polygon fill="midnightblue" stroke="midnightblue" points="226.82,-52.55 236.72,-56.32 231.33,-47.2 226.82,-52.55"/>
</g>
<!-- Node5 -->
<g id="node5" class="node">
<title>Node5</title>
<g id="a_node5"><a xlink:href="opencl_8c.html" target="_top" xlink:title=" ">
<polygon fill="white" stroke="black" points="218.5,-0.5 218.5,-19.5 275.5,-19.5 275.5,-0.5 218.5,-0.5"/>
<text text-anchor="middle" x="247" y="-7.5" font-family="FreeSans" font-size="10.00">opencl.c</text>
</a>
</g>
</g>
<!-- Node1&#45;&gt;Node5 -->
<g id="edge4" class="edge">
<title>Node1&#45;&gt;Node5</title>
<path fill="none" stroke="midnightblue" d="M247,-45.8C247,-36.91 247,-26.78 247,-19.75"/>
<polygon fill="midnightblue" stroke="midnightblue" points="243.5,-46.08 247,-56.08 250.5,-46.08 243.5,-46.08"/>
</g>
<!-- Node6 -->
<g id="node6" class="node">
<title>Node6</title>
<g id="a_node6"><a xlink:href="statistic_8c.html" target="_top" xlink:title=" ">
<polygon fill="white" stroke="black" points="294,-0.5 294,-19.5 358,-19.5 358,-0.5 294,-0.5"/>
<text text-anchor="middle" x="326" y="-7.5" font-family="FreeSans" font-size="10.00">statistic.c</text>
</a>
</g>
</g>
<!-- Node1&#45;&gt;Node6 -->
<g id="edge5" class="edge">
<title>Node1&#45;&gt;Node6</title>
<path fill="none" stroke="midnightblue" d="M268.03,-50.62C282.47,-40.76 301.14,-27.99 313.34,-19.65"/>
<polygon fill="midnightblue" stroke="midnightblue" points="265.97,-47.79 259.69,-56.32 269.92,-53.57 265.97,-47.79"/>
</g>
<!-- Node7 -->
<g id="node7" class="node">
<title>Node7</title>
<g id="a_node7"><a xlink:href="threshold_8c.html" target="_top" xlink:title=" ">
<polygon fill="white" stroke="black" points="376.5,-0.5 376.5,-19.5 447.5,-19.5 447.5,-0.5 376.5,-0.5"/>
<text text-anchor="middle" x="412" y="-7.5" font-family="FreeSans" font-size="10.00">threshold.c</text>
</a>
</g>
</g>
<!-- Node1&#45;&gt;Node7 -->
<g id="edge6" class="edge">
<title>Node1&#45;&gt;Node7</title>
<path fill="none" stroke="midnightblue" d="M282.74,-53.3C313.83,-43.13 358.15,-28.62 385.98,-19.52"/>
<polygon fill="midnightblue" stroke="midnightblue" points="281.56,-50.01 273.14,-56.44 283.74,-56.66 281.56,-50.01"/>
</g>
<!-- Node8 -->
<g id="node8" class="node">
<title>Node8</title>
<g id="a_node8"><a xlink:href="visual-effects_8c.html" target="_top" xlink:title=" ">
<polygon fill="white" stroke="black" points="465.5,-0.5 465.5,-19.5 556.5,-19.5 556.5,-0.5 465.5,-0.5"/>
<text text-anchor="middle" x="511" y="-7.5" font-family="FreeSans" font-size="10.00">visual&#45;effects.c</text>
</a>
</g>
</g>
<!-- Node1&#45;&gt;Node8 -->
<g id="edge7" class="edge">
<title>Node1&#45;&gt;Node8</title>
<path fill="none" stroke="midnightblue" d="M298.78,-54.41C348.67,-44.2 423.2,-28.96 469.36,-19.52"/>
<polygon fill="midnightblue" stroke="midnightblue" points="297.93,-51.01 288.83,-56.44 299.33,-57.87 297.93,-51.01"/>
</g>
</g>
</svg>
