<?xml version="1.0" encoding="UTF-8" standalone="no"?>
<!DOCTYPE svg PUBLIC "-//W3C//DTD SVG 1.1//EN"
 "http://www.w3.org/Graphics/SVG/1.1/DTD/svg11.dtd">
<!-- Generated by graphviz version 2.43.0 (0)
 -->
<!-- Title: random.c Pages: 1 -->
<svg width="2802pt" height="420pt"
 viewBox="0.00 0.00 2801.50 420.00" xmlns="http://www.w3.org/2000/svg" xmlns:xlink="http://www.w3.org/1999/xlink">
<g id="graph0" class="graph" transform="scale(1 1) rotate(0) translate(4 416)">
<title>random.c</title>
<polygon fill="white" stroke="transparent" points="-4,4 -4,-416 2797.5,-416 2797.5,4 -4,4"/>
<!-- Node1 -->
<g id="node1" class="node">
<title>Node1</title>
<g id="a_node1"><a xlink:title=" ">
<polygon fill="#bfbfbf" stroke="black" points="1947.5,-392.5 1947.5,-411.5 2009.5,-411.5 2009.5,-392.5 1947.5,-392.5"/>
<text text-anchor="middle" x="1978.5" y="-399.5" font-family="FreeSans" font-size="10.00">random.c</text>
</a>
</g>
</g>
<!-- Node2 -->
<g id="node2" class="node">
<title>Node2</title>
<g id="a_node2"><a xlink:href="studio_8h.html" target="_top" xlink:title=" ">
<polygon fill="white" stroke="black" points="772,-224.5 772,-243.5 867,-243.5 867,-224.5 772,-224.5"/>
<text text-anchor="middle" x="819.5" y="-231.5" font-family="FreeSans" font-size="10.00">magick/studio.h</text>
</a>
</g>
</g>
<!-- Node1&#45;&gt;Node2 -->
<g id="edge1" class="edge">
<title>Node1&#45;&gt;Node2</title>
<path fill="none" stroke="midnightblue" d="M1947.25,-398.78C1872.46,-393.29 1677.36,-377.9 1515.5,-356 1273.94,-323.31 987.94,-268.45 872.11,-245.54"/>
<polygon fill="midnightblue" stroke="midnightblue" points="872.58,-242.07 862.09,-243.56 871.22,-248.93 872.58,-242.07"/>
</g>
<!-- Node24 -->
<g id="node24" class="node">
<title>Node24</title>
<g id="a_node24"><a xlink:href="exception_8h.html" target="_top" xlink:title=" ">
<polygon fill="white" stroke="black" points="2135,-56.5 2135,-75.5 2248,-75.5 2248,-56.5 2135,-56.5"/>
<text text-anchor="middle" x="2191.5" y="-63.5" font-family="FreeSans" font-size="10.00">magick/exception.h</text>
</a>
</g>
</g>
<!-- Node1&#45;&gt;Node24 -->
<g id="edge24" class="edge">
<title>Node1&#45;&gt;Node24</title>
<path fill="none" stroke="midnightblue" d="M1990.65,-392.46C2020.37,-371.76 2099.38,-317.86 2169.5,-280 2256.66,-232.94 2318.83,-271.25 2372.5,-188 2415.19,-121.79 2350.21,-196.72 2248.5,-132 2229.18,-119.71 2212.64,-98.98 2202.43,-84.23"/>
<polygon fill="midnightblue" stroke="midnightblue" points="2205.12,-81.95 2196.67,-75.56 2199.29,-85.83 2205.12,-81.95"/>
</g>
<!-- Node25 -->
<g id="node25" class="node">
<title>Node25</title>
<g id="a_node25"><a xlink:href="semaphore_8h.html" target="_top" xlink:title=" ">
<polygon fill="white" stroke="black" points="2132,-0.5 2132,-19.5 2251,-19.5 2251,-0.5 2132,-0.5"/>
<text text-anchor="middle" x="2191.5" y="-7.5" font-family="FreeSans" font-size="10.00">magick/semaphore.h</text>
</a>
</g>
</g>
<!-- Node1&#45;&gt;Node25 -->
<g id="edge47" class="edge">
<title>Node1&#45;&gt;Node25</title>
<path fill="none" stroke="midnightblue" d="M2009.95,-400.13C2159.73,-395.58 2793.5,-371.58 2793.5,-291 2793.5,-291 2793.5,-291 2793.5,-121 2793.5,-55.61 2724.41,-73.85 2661.5,-56 2588.18,-35.19 2373.41,-20.87 2261.35,-14.59"/>
<polygon fill="midnightblue" stroke="midnightblue" points="2261.35,-11.09 2251.17,-14.03 2260.96,-18.07 2261.35,-11.09"/>
</g>
<!-- Node26 -->
<g id="node26" class="node">
<title>Node26</title>
<g id="a_node26"><a xlink:href="exception-private_8h.html" target="_top" xlink:title=" ">
<polygon fill="white" stroke="black" points="1884,-168.5 1884,-187.5 2035,-187.5 2035,-168.5 1884,-168.5"/>
<text text-anchor="middle" x="1959.5" y="-175.5" font-family="FreeSans" font-size="10.00">magick/exception&#45;private.h</text>
</a>
</g>
</g>
<!-- Node1&#45;&gt;Node26 -->
<g id="edge27" class="edge">
<title>Node1&#45;&gt;Node26</title>
<path fill="none" stroke="midnightblue" d="M1977.76,-392.3C1974.96,-359.63 1965.05,-243.87 1961.12,-197.96"/>
<polygon fill="midnightblue" stroke="midnightblue" points="1964.6,-197.55 1960.26,-187.88 1957.63,-198.15 1964.6,-197.55"/>
</g>
<!-- Node29 -->
<g id="node29" class="node">
<title>Node29</title>
<g id="a_node29"><a xlink:href="string___8h.html" target="_top" xlink:title=" ">
<polygon fill="white" stroke="black" points="1693.5,-112.5 1693.5,-131.5 1791.5,-131.5 1791.5,-112.5 1693.5,-112.5"/>
<text text-anchor="middle" x="1742.5" y="-119.5" font-family="FreeSans" font-size="10.00">magick/string_.h</text>
</a>
</g>
</g>
<!-- Node1&#45;&gt;Node29 -->
<g id="edge50" class="edge">
<title>Node1&#45;&gt;Node29</title>
<path fill="none" stroke="midnightblue" d="M1947.1,-397.51C1896.89,-391.36 1801.51,-377.23 1775.5,-356 1712.83,-304.85 1719.31,-267.7 1705.5,-188 1703.98,-179.24 1702.5,-176.37 1705.5,-168 1709.44,-157 1717.36,-146.77 1724.86,-138.85"/>
<polygon fill="midnightblue" stroke="midnightblue" points="1727.39,-141.27 1732.06,-131.76 1722.48,-136.28 1727.39,-141.27"/>
</g>
<!-- Node30 -->
<g id="node30" class="node">
<title>Node30</title>
<g id="a_node30"><a xlink:href="image-private_8h.html" target="_top" xlink:title=" ">
<polygon fill="white" stroke="black" points="2178.5,-280.5 2178.5,-299.5 2312.5,-299.5 2312.5,-280.5 2178.5,-280.5"/>
<text text-anchor="middle" x="2245.5" y="-287.5" font-family="FreeSans" font-size="10.00">magick/image&#45;private.h</text>
</a>
</g>
</g>
<!-- Node1&#45;&gt;Node30 -->
<g id="edge38" class="edge">
<title>Node1&#45;&gt;Node30</title>
<path fill="none" stroke="midnightblue" d="M2009.54,-397.7C2047.65,-392.72 2113.51,-381.06 2164.5,-356 2189.9,-343.52 2214.59,-321.91 2229.91,-307.06"/>
<polygon fill="midnightblue" stroke="midnightblue" points="2232.78,-309.14 2237.39,-299.6 2227.84,-304.18 2232.78,-309.14"/>
</g>
<!-- Node31 -->
<g id="node31" class="node">
<title>Node31</title>
<g id="a_node31"><a xlink:href="memory___8h.html" target="_top" xlink:title=" ">
<polygon fill="white" stroke="black" points="1467,-224.5 1467,-243.5 1578,-243.5 1578,-224.5 1467,-224.5"/>
<text text-anchor="middle" x="1522.5" y="-231.5" font-family="FreeSans" font-size="10.00">magick/memory_.h</text>
</a>
</g>
</g>
<!-- Node1&#45;&gt;Node31 -->
<g id="edge39" class="edge">
<title>Node1&#45;&gt;Node31</title>
<path fill="none" stroke="midnightblue" d="M1947.36,-400.14C1850.68,-397.15 1560.48,-385.75 1531.5,-356 1505.13,-328.94 1511.3,-280.39 1517.35,-253.76"/>
<polygon fill="midnightblue" stroke="midnightblue" points="1520.81,-254.36 1519.84,-243.81 1514.02,-252.66 1520.81,-254.36"/>
</g>
<!-- Node32 -->
<g id="node32" class="node">
<title>Node32</title>
<g id="a_node32"><a xlink:href="memory-private_8h.html" target="_top" xlink:title=" ">
<polygon fill="white" stroke="black" points="308.5,-336.5 308.5,-355.5 452.5,-355.5 452.5,-336.5 308.5,-336.5"/>
<text text-anchor="middle" x="380.5" y="-343.5" font-family="FreeSans" font-size="10.00">magick/memory&#45;private.h</text>
</a>
</g>
</g>
<!-- Node1&#45;&gt;Node32 -->
<g id="edge42" class="edge">
<title>Node1&#45;&gt;Node32</title>
<path fill="none" stroke="midnightblue" d="M1947.3,-399.95C1757.73,-393.54 758.9,-359.79 463.11,-349.79"/>
<polygon fill="midnightblue" stroke="midnightblue" points="463,-346.29 452.88,-349.45 462.76,-353.28 463,-346.29"/>
</g>
<!-- Node33 -->
<g id="node33" class="node">
<title>Node33</title>
<g id="a_node33"><a xlink:href="random___8h.html" target="_top" xlink:title=" ">
<polygon fill="white" stroke="black" points="1785,-336.5 1785,-355.5 1892,-355.5 1892,-336.5 1785,-336.5"/>
<text text-anchor="middle" x="1838.5" y="-343.5" font-family="FreeSans" font-size="10.00">magick/random_.h</text>
</a>
</g>
</g>
<!-- Node1&#45;&gt;Node33 -->
<g id="edge44" class="edge">
<title>Node1&#45;&gt;Node33</title>
<path fill="none" stroke="midnightblue" d="M1956.32,-392.44C1933.07,-383.48 1896.35,-369.31 1870.08,-359.18"/>
<polygon fill="midnightblue" stroke="midnightblue" points="1871.17,-355.85 1860.58,-355.52 1868.65,-362.38 1871.17,-355.85"/>
</g>
<!-- Node34 -->
<g id="node34" class="node">
<title>Node34</title>
<g id="a_node34"><a xlink:href="resource___8h.html" target="_top" xlink:title=" ">
<polygon fill="white" stroke="black" points="2330.5,-280.5 2330.5,-299.5 2442.5,-299.5 2442.5,-280.5 2330.5,-280.5"/>
<text text-anchor="middle" x="2386.5" y="-287.5" font-family="FreeSans" font-size="10.00">magick/resource_.h</text>
</a>
</g>
</g>
<!-- Node1&#45;&gt;Node34 -->
<g id="edge46" class="edge">
<title>Node1&#45;&gt;Node34</title>
<path fill="none" stroke="midnightblue" d="M2009.75,-395.66C2051.84,-388.2 2128.92,-373.57 2193.5,-356 2250.97,-340.37 2316.37,-317.16 2354.38,-303.12"/>
<polygon fill="midnightblue" stroke="midnightblue" points="2355.74,-306.35 2363.89,-299.59 2353.3,-299.79 2355.74,-306.35"/>
</g>
<!-- Node35 -->
<g id="node35" class="node">
<title>Node35</title>
<g id="a_node35"><a xlink:href="signature-private_8h.html" target="_top" xlink:title=" ">
<polygon fill="white" stroke="black" points="1541,-336.5 1541,-355.5 1690,-355.5 1690,-336.5 1541,-336.5"/>
<text text-anchor="middle" x="1615.5" y="-343.5" font-family="FreeSans" font-size="10.00">magick/signature&#45;private.h</text>
</a>
</g>
</g>
<!-- Node1&#45;&gt;Node35 -->
<g id="edge48" class="edge">
<title>Node1&#45;&gt;Node35</title>
<path fill="none" stroke="midnightblue" d="M1947.24,-396.35C1888.81,-387.66 1761.85,-368.77 1683.04,-357.05"/>
<polygon fill="midnightblue" stroke="midnightblue" points="1683.13,-353.52 1672.73,-355.51 1682.1,-360.45 1683.13,-353.52"/>
</g>
<!-- Node36 -->
<g id="node36" class="node">
<title>Node36</title>
<g id="a_node36"><a xlink:href="thread___8h.html" target="_top" xlink:title=" ">
<polygon fill="white" stroke="black" points="2572,-280.5 2572,-299.5 2673,-299.5 2673,-280.5 2572,-280.5"/>
<text text-anchor="middle" x="2622.5" y="-287.5" font-family="FreeSans" font-size="10.00">magick/thread_.h</text>
</a>
</g>
</g>
<!-- Node1&#45;&gt;Node36 -->
<g id="edge51" class="edge">
<title>Node1&#45;&gt;Node36</title>
<path fill="none" stroke="midnightblue" d="M2009.59,-401.23C2087.21,-401.15 2295.25,-396.8 2462.5,-356 2511.65,-344.01 2565.52,-319.59 2596.53,-304.33"/>
<polygon fill="midnightblue" stroke="midnightblue" points="2598.38,-307.32 2605.77,-299.72 2595.26,-301.06 2598.38,-307.32"/>
</g>
<!-- Node37 -->
<g id="node37" class="node">
<title>Node37</title>
<g id="a_node37"><a xlink:href="thread-private_8h.html" target="_top" xlink:title=" ">
<polygon fill="white" stroke="black" points="2319.5,-336.5 2319.5,-355.5 2453.5,-355.5 2453.5,-336.5 2319.5,-336.5"/>
<text text-anchor="middle" x="2386.5" y="-343.5" font-family="FreeSans" font-size="10.00">magick/thread&#45;private.h</text>
</a>
</g>
</g>
<!-- Node1&#45;&gt;Node37 -->
<g id="edge52" class="edge">
<title>Node1&#45;&gt;Node37</title>
<path fill="none" stroke="midnightblue" d="M2009.5,-396.9C2073.43,-388.44 2221.45,-368.84 2311.83,-356.88"/>
<polygon fill="midnightblue" stroke="midnightblue" points="2312.56,-360.32 2322.02,-355.53 2311.65,-353.38 2312.56,-360.32"/>
</g>
<!-- Node62 -->
<g id="node45" class="node">
<title>Node62</title>
<g id="a_node45"><a xlink:href="utility-private_8h.html" target="_top" xlink:title=" ">
<polygon fill="white" stroke="black" points="1990,-280.5 1990,-299.5 2121,-299.5 2121,-280.5 1990,-280.5"/>
<text text-anchor="middle" x="2055.5" y="-287.5" font-family="FreeSans" font-size="10.00">magick/utility&#45;private.h</text>
</a>
</g>
</g>
<!-- Node1&#45;&gt;Node62 -->
<g id="edge67" class="edge">
<title>Node1&#45;&gt;Node62</title>
<path fill="none" stroke="midnightblue" d="M1984.54,-392.37C1997.25,-374.22 2026.94,-331.8 2043.61,-307.99"/>
<polygon fill="midnightblue" stroke="midnightblue" points="2046.62,-309.79 2049.49,-299.59 2040.88,-305.78 2046.62,-309.79"/>
</g>
<!-- Node3 -->
<g id="node3" class="node">
<title>Node3</title>
<g id="a_node3"><a xlink:href="magick-config_8h.html" target="_top" xlink:title=" ">
<polygon fill="white" stroke="black" points="11.5,-112.5 11.5,-131.5 145.5,-131.5 145.5,-112.5 11.5,-112.5"/>
<text text-anchor="middle" x="78.5" y="-119.5" font-family="FreeSans" font-size="10.00">magick/magick&#45;config.h</text>
</a>
</g>
</g>
<!-- Node2&#45;&gt;Node3 -->
<g id="edge2" class="edge">
<title>Node2&#45;&gt;Node3</title>
<path fill="none" stroke="midnightblue" d="M771.81,-233.15C619.25,-233.21 149.98,-229.95 97.5,-188 83.89,-177.12 79.67,-157.05 78.53,-142.08"/>
<polygon fill="midnightblue" stroke="midnightblue" points="82.02,-141.72 78.15,-131.86 75.02,-141.98 82.02,-141.72"/>
</g>
<!-- Node5 -->
<g id="node5" class="node">
<title>Node5</title>
<g id="a_node5"><a xlink:title=" ">
<polygon fill="white" stroke="#bfbfbf" points="1914.5,-0.5 1914.5,-19.5 1970.5,-19.5 1970.5,-0.5 1914.5,-0.5"/>
<text text-anchor="middle" x="1942.5" y="-7.5" font-family="FreeSans" font-size="10.00">stdarg.h</text>
</a>
</g>
</g>
<!-- Node2&#45;&gt;Node5 -->
<g id="edge4" class="edge">
<title>Node2&#45;&gt;Node5</title>
<path fill="none" stroke="midnightblue" d="M771.74,-233.48C644.37,-233.93 309.92,-229.39 365.5,-168 472.24,-50.11 1672.49,-17.1 1903.99,-11.82"/>
<polygon fill="midnightblue" stroke="midnightblue" points="1904.35,-15.31 1914.27,-11.58 1904.2,-8.31 1904.35,-15.31"/>
</g>
<!-- Node6 -->
<g id="node6" class="node">
<title>Node6</title>
<g id="a_node6"><a xlink:title=" ">
<polygon fill="white" stroke="#bfbfbf" points="374.5,-168.5 374.5,-187.5 424.5,-187.5 424.5,-168.5 374.5,-168.5"/>
<text text-anchor="middle" x="399.5" y="-175.5" font-family="FreeSans" font-size="10.00">stdio.h</text>
</a>
</g>
</g>
<!-- Node2&#45;&gt;Node6 -->
<g id="edge5" class="edge">
<title>Node2&#45;&gt;Node6</title>
<path fill="none" stroke="midnightblue" d="M771.93,-229.65C700.6,-224.15 561.6,-211.57 434.56,-187.96"/>
<polygon fill="midnightblue" stroke="midnightblue" points="435.13,-184.5 424.66,-186.09 433.84,-191.38 435.13,-184.5"/>
</g>
<!-- Node7 -->
<g id="node7" class="node">
<title>Node7</title>
<g id="a_node7"><a xlink:title=" ">
<polygon fill="white" stroke="#bfbfbf" points="443,-168.5 443,-187.5 496,-187.5 496,-168.5 443,-168.5"/>
<text text-anchor="middle" x="469.5" y="-175.5" font-family="FreeSans" font-size="10.00">ctype.h</text>
</a>
</g>
</g>
<!-- Node2&#45;&gt;Node7 -->
<g id="edge6" class="edge">
<title>Node2&#45;&gt;Node7</title>
<path fill="none" stroke="midnightblue" d="M772,-227.86C712.09,-221.02 605.76,-207.66 506.11,-188.15"/>
<polygon fill="midnightblue" stroke="midnightblue" points="506.67,-184.7 496.18,-186.18 505.31,-191.56 506.67,-184.7"/>
</g>
<!-- Node8 -->
<g id="node8" class="node">
<title>Node8</title>
<g id="a_node8"><a xlink:title=" ">
<polygon fill="white" stroke="#bfbfbf" points="514,-168.5 514,-187.5 569,-187.5 569,-168.5 514,-168.5"/>
<text text-anchor="middle" x="541.5" y="-175.5" font-family="FreeSans" font-size="10.00">locale.h</text>
</a>
</g>
</g>
<!-- Node2&#45;&gt;Node8 -->
<g id="edge7" class="edge">
<title>Node2&#45;&gt;Node8</title>
<path fill="none" stroke="midnightblue" d="M771.57,-224.98C724.82,-216.95 651.48,-203.84 579.51,-188.35"/>
<polygon fill="midnightblue" stroke="midnightblue" points="579.88,-184.85 569.37,-186.15 578.4,-191.69 579.88,-184.85"/>
</g>
<!-- Node9 -->
<g id="node9" class="node">
<title>Node9</title>
<g id="a_node9"><a xlink:title=" ">
<polygon fill="white" stroke="#bfbfbf" points="1462,-168.5 1462,-187.5 1513,-187.5 1513,-168.5 1462,-168.5"/>
<text text-anchor="middle" x="1487.5" y="-175.5" font-family="FreeSans" font-size="10.00">errno.h</text>
</a>
</g>
</g>
<!-- Node2&#45;&gt;Node9 -->
<g id="edge8" class="edge">
<title>Node2&#45;&gt;Node9</title>
<path fill="none" stroke="midnightblue" d="M867.03,-232.02C972.19,-229.32 1232.31,-219.74 1447.5,-188 1448.95,-187.79 1450.43,-187.55 1451.92,-187.29"/>
<polygon fill="midnightblue" stroke="midnightblue" points="1452.63,-190.72 1461.79,-185.38 1451.3,-183.85 1452.63,-190.72"/>
</g>
<!-- Node10 -->
<g id="node10" class="node">
<title>Node10</title>
<g id="a_node10"><a xlink:title=" ">
<polygon fill="white" stroke="#bfbfbf" points="587,-168.5 587,-187.5 634,-187.5 634,-168.5 587,-168.5"/>
<text text-anchor="middle" x="610.5" y="-175.5" font-family="FreeSans" font-size="10.00">fcntl.h</text>
</a>
</g>
</g>
<!-- Node2&#45;&gt;Node10 -->
<g id="edge9" class="edge">
<title>Node2&#45;&gt;Node10</title>
<path fill="none" stroke="midnightblue" d="M784.84,-224.46C751.13,-216.1 698.23,-202.81 644.02,-188.37"/>
<polygon fill="midnightblue" stroke="midnightblue" points="644.81,-184.95 634.25,-185.75 643,-191.72 644.81,-184.95"/>
</g>
<!-- Node11 -->
<g id="node11" class="node">
<title>Node11</title>
<g id="a_node11"><a xlink:title=" ">
<polygon fill="white" stroke="#bfbfbf" points="652,-168.5 652,-187.5 703,-187.5 703,-168.5 652,-168.5"/>
<text text-anchor="middle" x="677.5" y="-175.5" font-family="FreeSans" font-size="10.00">math.h</text>
</a>
</g>
</g>
<!-- Node2&#45;&gt;Node11 -->
<g id="edge10" class="edge">
<title>Node2&#45;&gt;Node11</title>
<path fill="none" stroke="midnightblue" d="M797,-224.44C773.42,-215.48 736.18,-201.31 709.54,-191.18"/>
<polygon fill="midnightblue" stroke="midnightblue" points="710.49,-187.8 699.9,-187.52 708,-194.34 710.49,-187.8"/>
</g>
<!-- Node12 -->
<g id="node12" class="node">
<title>Node12</title>
<g id="a_node12"><a xlink:title=" ">
<polygon fill="white" stroke="#bfbfbf" points="1563.5,-56.5 1563.5,-75.5 1611.5,-75.5 1611.5,-56.5 1563.5,-56.5"/>
<text text-anchor="middle" x="1587.5" y="-63.5" font-family="FreeSans" font-size="10.00">time.h</text>
</a>
</g>
</g>
<!-- Node2&#45;&gt;Node12 -->
<g id="edge11" class="edge">
<title>Node2&#45;&gt;Node12</title>
<path fill="none" stroke="midnightblue" d="M867.23,-232.63C989.97,-231.15 1314.01,-223.88 1414.5,-188 1448.21,-175.96 1531.2,-111.84 1568.64,-82.13"/>
<polygon fill="midnightblue" stroke="midnightblue" points="1571.08,-84.67 1576.72,-75.7 1566.72,-79.19 1571.08,-84.67"/>
</g>
<!-- Node13 -->
<g id="node13" class="node">
<title>Node13</title>
<g id="a_node13"><a xlink:title=" ">
<polygon fill="white" stroke="#bfbfbf" points="721,-168.5 721,-187.5 774,-187.5 774,-168.5 721,-168.5"/>
<text text-anchor="middle" x="747.5" y="-175.5" font-family="FreeSans" font-size="10.00">limits.h</text>
</a>
</g>
</g>
<!-- Node2&#45;&gt;Node13 -->
<g id="edge12" class="edge">
<title>Node2&#45;&gt;Node13</title>
<path fill="none" stroke="midnightblue" d="M807.93,-224.32C797.08,-216.18 780.62,-203.84 767.62,-194.09"/>
<polygon fill="midnightblue" stroke="midnightblue" points="769.38,-191.03 759.28,-187.83 765.18,-196.63 769.38,-191.03"/>
</g>
<!-- Node14 -->
<g id="node14" class="node">
<title>Node14</title>
<g id="a_node14"><a xlink:title=" ">
<polygon fill="white" stroke="#bfbfbf" points="792,-168.5 792,-187.5 847,-187.5 847,-168.5 792,-168.5"/>
<text text-anchor="middle" x="819.5" y="-175.5" font-family="FreeSans" font-size="10.00">signal.h</text>
</a>
</g>
</g>
<!-- Node2&#45;&gt;Node14 -->
<g id="edge13" class="edge">
<title>Node2&#45;&gt;Node14</title>
<path fill="none" stroke="midnightblue" d="M819.5,-224.08C819.5,-217.01 819.5,-206.86 819.5,-197.99"/>
<polygon fill="midnightblue" stroke="midnightblue" points="823,-197.75 819.5,-187.75 816,-197.75 823,-197.75"/>
</g>
<!-- Node15 -->
<g id="node15" class="node">
<title>Node15</title>
<g id="a_node15"><a xlink:title=" ">
<polygon fill="white" stroke="#bfbfbf" points="1531.5,-168.5 1531.5,-187.5 1587.5,-187.5 1587.5,-168.5 1531.5,-168.5"/>
<text text-anchor="middle" x="1559.5" y="-175.5" font-family="FreeSans" font-size="10.00">assert.h</text>
</a>
</g>
</g>
<!-- Node2&#45;&gt;Node15 -->
<g id="edge14" class="edge">
<title>Node2&#45;&gt;Node15</title>
<path fill="none" stroke="midnightblue" d="M867.04,-232.71C980.76,-231.41 1277.21,-224.49 1521.5,-188 1521.6,-187.98 1521.7,-187.97 1521.8,-187.95"/>
<polygon fill="midnightblue" stroke="midnightblue" points="1522.17,-191.45 1531.38,-186.22 1520.92,-184.56 1522.17,-191.45"/>
</g>
<!-- Node16 -->
<g id="node16" class="node">
<title>Node16</title>
<g id="a_node16"><a xlink:href="method-attribute_8h.html" target="_top" xlink:title=" ">
<polygon fill="white" stroke="black" points="865.5,-168.5 865.5,-187.5 1013.5,-187.5 1013.5,-168.5 865.5,-168.5"/>
<text text-anchor="middle" x="939.5" y="-175.5" font-family="FreeSans" font-size="10.00">magick/method&#45;attribute.h</text>
</a>
</g>
</g>
<!-- Node2&#45;&gt;Node16 -->
<g id="edge15" class="edge">
<title>Node2&#45;&gt;Node16</title>
<path fill="none" stroke="midnightblue" d="M838.51,-224.44C858.09,-215.64 888.81,-201.81 911.23,-191.72"/>
<polygon fill="midnightblue" stroke="midnightblue" points="912.89,-194.81 920.57,-187.52 910.02,-188.43 912.89,-194.81"/>
</g>
<!-- Node17 -->
<g id="node17" class="node">
<title>Node17</title>
<g id="a_node17"><a xlink:title=" ">
<polygon fill="white" stroke="#bfbfbf" points="1031.5,-168.5 1031.5,-187.5 1103.5,-187.5 1103.5,-168.5 1031.5,-168.5"/>
<text text-anchor="middle" x="1067.5" y="-175.5" font-family="FreeSans" font-size="10.00">sys/types.h</text>
</a>
</g>
</g>
<!-- Node2&#45;&gt;Node17 -->
<g id="edge16" class="edge">
<title>Node2&#45;&gt;Node17</title>
<path fill="none" stroke="midnightblue" d="M858.8,-224.44C902.95,-214.83 974.55,-199.24 1021.33,-189.05"/>
<polygon fill="midnightblue" stroke="midnightblue" points="1022.19,-192.45 1031.21,-186.9 1020.7,-185.61 1022.19,-192.45"/>
</g>
<!-- Node18 -->
<g id="node18" class="node">
<title>Node18</title>
<g id="a_node18"><a xlink:title=" ">
<polygon fill="white" stroke="#bfbfbf" points="1121.5,-168.5 1121.5,-187.5 1185.5,-187.5 1185.5,-168.5 1121.5,-168.5"/>
<text text-anchor="middle" x="1153.5" y="-175.5" font-family="FreeSans" font-size="10.00">sys/stat.h</text>
</a>
</g>
</g>
<!-- Node2&#45;&gt;Node18 -->
<g id="edge17" class="edge">
<title>Node2&#45;&gt;Node18</title>
<path fill="none" stroke="midnightblue" d="M867.11,-226.64C923.17,-218.94 1019.31,-205.07 1111.28,-188.13"/>
<polygon fill="midnightblue" stroke="midnightblue" points="1112.12,-191.54 1121.31,-186.27 1110.84,-184.65 1112.12,-191.54"/>
</g>
<!-- Node19 -->
<g id="node19" class="node">
<title>Node19</title>
<g id="a_node19"><a xlink:title=" ">
<polygon fill="white" stroke="#bfbfbf" points="1203.5,-168.5 1203.5,-187.5 1257.5,-187.5 1257.5,-168.5 1203.5,-168.5"/>
<text text-anchor="middle" x="1230.5" y="-175.5" font-family="FreeSans" font-size="10.00">dirent.h</text>
</a>
</g>
</g>
<!-- Node2&#45;&gt;Node19 -->
<g id="edge18" class="edge">
<title>Node2&#45;&gt;Node19</title>
<path fill="none" stroke="midnightblue" d="M867.15,-229.21C936.76,-223.26 1070.49,-210.22 1193.49,-187.98"/>
<polygon fill="midnightblue" stroke="midnightblue" points="1194.25,-191.39 1203.45,-186.15 1192.99,-184.51 1194.25,-191.39"/>
</g>
<!-- Node20 -->
<g id="node20" class="node">
<title>Node20</title>
<g id="a_node20"><a xlink:title=" ">
<polygon fill="white" stroke="#bfbfbf" points="1275.5,-168.5 1275.5,-187.5 1341.5,-187.5 1341.5,-168.5 1275.5,-168.5"/>
<text text-anchor="middle" x="1308.5" y="-175.5" font-family="FreeSans" font-size="10.00">sys/wait.h</text>
</a>
</g>
</g>
<!-- Node2&#45;&gt;Node20 -->
<g id="edge19" class="edge">
<title>Node2&#45;&gt;Node20</title>
<path fill="none" stroke="midnightblue" d="M867.03,-229.95C947.17,-224.43 1114.45,-211.29 1265.19,-188.05"/>
<polygon fill="midnightblue" stroke="midnightblue" points="1265.75,-191.51 1275.09,-186.51 1264.67,-184.59 1265.75,-191.51"/>
</g>
<!-- Node21 -->
<g id="node21" class="node">
<title>Node21</title>
<g id="a_node21"><a xlink:title=" ">
<polygon fill="white" stroke="#bfbfbf" points="1359.5,-168.5 1359.5,-187.5 1405.5,-187.5 1405.5,-168.5 1359.5,-168.5"/>
<text text-anchor="middle" x="1382.5" y="-175.5" font-family="FreeSans" font-size="10.00">pwd.h</text>
</a>
</g>
</g>
<!-- Node2&#45;&gt;Node21 -->
<g id="edge20" class="edge">
<title>Node2&#45;&gt;Node21</title>
<path fill="none" stroke="midnightblue" d="M867.14,-231.98C958.88,-229.38 1166.44,-220.31 1349.14,-187.92"/>
<polygon fill="midnightblue" stroke="midnightblue" points="1349.98,-191.32 1359.2,-186.1 1348.74,-184.43 1349.98,-191.32"/>
</g>
<!-- Node22 -->
<g id="node22" class="node">
<title>Node22</title>
<g id="a_node22"><a xlink:href="magick-type_8h.html" target="_top" xlink:title=" ">
<polygon fill="white" stroke="black" points="106.5,-168.5 106.5,-187.5 232.5,-187.5 232.5,-168.5 106.5,-168.5"/>
<text text-anchor="middle" x="169.5" y="-175.5" font-family="FreeSans" font-size="10.00">magick/magick&#45;type.h</text>
</a>
</g>
</g>
<!-- Node2&#45;&gt;Node22 -->
<g id="edge21" class="edge">
<title>Node2&#45;&gt;Node22</title>
<path fill="none" stroke="midnightblue" d="M771.85,-230.05C674.56,-223.85 445.78,-208.44 242.95,-188.1"/>
<polygon fill="midnightblue" stroke="midnightblue" points="243,-184.59 232.7,-187.07 242.3,-191.56 243,-184.59"/>
</g>
<!-- Node23 -->
<g id="node23" class="node">
<title>Node23</title>
<g id="a_node23"><a xlink:title=" ">
<polygon fill="white" stroke="#bfbfbf" points="250.5,-168.5 250.5,-187.5 318.5,-187.5 318.5,-168.5 250.5,-168.5"/>
<text text-anchor="middle" x="284.5" y="-175.5" font-family="FreeSans" font-size="10.00">sys/time.h</text>
</a>
</g>
</g>
<!-- Node2&#45;&gt;Node23 -->
<g id="edge23" class="edge">
<title>Node2&#45;&gt;Node23</title>
<path fill="none" stroke="midnightblue" d="M771.98,-230.09C684.65,-224.4 492.91,-210.4 332.5,-188 331.22,-187.82 329.93,-187.63 328.63,-187.44"/>
<polygon fill="midnightblue" stroke="midnightblue" points="328.96,-183.94 318.52,-185.78 327.83,-190.85 328.96,-183.94"/>
</g>
<!-- Node4 -->
<g id="node4" class="node">
<title>Node4</title>
<g id="a_node4"><a xlink:href="magick-baseconfig_8h.html" target="_top" xlink:title=" ">
<polygon fill="white" stroke="black" points="0,-56.5 0,-75.5 157,-75.5 157,-56.5 0,-56.5"/>
<text text-anchor="middle" x="78.5" y="-63.5" font-family="FreeSans" font-size="10.00">magick/magick&#45;baseconfig.h</text>
</a>
</g>
</g>
<!-- Node3&#45;&gt;Node4 -->
<g id="edge3" class="edge">
<title>Node3&#45;&gt;Node4</title>
<path fill="none" stroke="midnightblue" d="M78.5,-112.08C78.5,-105.01 78.5,-94.86 78.5,-85.99"/>
<polygon fill="midnightblue" stroke="midnightblue" points="82,-85.75 78.5,-75.75 75,-85.75 82,-85.75"/>
</g>
<!-- Node22&#45;&gt;Node3 -->
<g id="edge22" class="edge">
<title>Node22&#45;&gt;Node3</title>
<path fill="none" stroke="midnightblue" d="M154.88,-168.32C140.55,-159.82 118.49,-146.73 101.75,-136.8"/>
<polygon fill="midnightblue" stroke="midnightblue" points="103.47,-133.75 93.08,-131.65 99.9,-139.77 103.47,-133.75"/>
</g>
<!-- Node24&#45;&gt;Node5 -->
<g id="edge25" class="edge">
<title>Node24&#45;&gt;Node5</title>
<path fill="none" stroke="midnightblue" d="M2152.05,-56.44C2105,-46.24 2026.93,-29.31 1980.52,-19.25"/>
<polygon fill="midnightblue" stroke="midnightblue" points="1981.08,-15.79 1970.57,-17.09 1979.6,-22.63 1981.08,-15.79"/>
</g>
<!-- Node24&#45;&gt;Node25 -->
<g id="edge26" class="edge">
<title>Node24&#45;&gt;Node25</title>
<path fill="none" stroke="midnightblue" d="M2191.5,-56.08C2191.5,-49.01 2191.5,-38.86 2191.5,-29.99"/>
<polygon fill="midnightblue" stroke="midnightblue" points="2195,-29.75 2191.5,-19.75 2188,-29.75 2195,-29.75"/>
</g>
<!-- Node27 -->
<g id="node27" class="node">
<title>Node27</title>
<g id="a_node27"><a xlink:href="log_8h.html" target="_top" xlink:title=" ">
<polygon fill="white" stroke="black" points="1941.5,-112.5 1941.5,-131.5 2021.5,-131.5 2021.5,-112.5 1941.5,-112.5"/>
<text text-anchor="middle" x="1981.5" y="-119.5" font-family="FreeSans" font-size="10.00">magick/log.h</text>
</a>
</g>
</g>
<!-- Node26&#45;&gt;Node27 -->
<g id="edge28" class="edge">
<title>Node26&#45;&gt;Node27</title>
<path fill="none" stroke="midnightblue" d="M1963.13,-168.08C1966.11,-160.77 1970.43,-150.18 1974.12,-141.1"/>
<polygon fill="midnightblue" stroke="midnightblue" points="1977.4,-142.33 1977.93,-131.75 1970.92,-139.69 1977.4,-142.33"/>
</g>
<!-- Node28 -->
<g id="node28" class="node">
<title>Node28</title>
<g id="a_node28"><a xlink:href="magick_8h.html" target="_top" xlink:title=" ">
<polygon fill="white" stroke="black" points="1852,-56.5 1852,-75.5 1953,-75.5 1953,-56.5 1852,-56.5"/>
<text text-anchor="middle" x="1902.5" y="-63.5" font-family="FreeSans" font-size="10.00">magick/magick.h</text>
</a>
</g>
</g>
<!-- Node26&#45;&gt;Node28 -->
<g id="edge31" class="edge">
<title>Node26&#45;&gt;Node28</title>
<path fill="none" stroke="midnightblue" d="M1953.83,-168.2C1948.16,-159.24 1939.31,-144.89 1932.5,-132 1924.25,-116.39 1915.92,-98.1 1910.14,-84.9"/>
<polygon fill="midnightblue" stroke="midnightblue" points="1913.28,-83.35 1906.1,-75.56 1906.85,-86.12 1913.28,-83.35"/>
</g>
<!-- Node26&#45;&gt;Node29 -->
<g id="edge34" class="edge">
<title>Node26&#45;&gt;Node29</title>
<path fill="none" stroke="midnightblue" d="M1925.12,-168.44C1887.58,-159.1 1827.37,-144.12 1786.43,-133.93"/>
<polygon fill="midnightblue" stroke="midnightblue" points="1787.27,-130.53 1776.72,-131.52 1785.58,-137.33 1787.27,-130.53"/>
</g>
<!-- Node27&#45;&gt;Node5 -->
<g id="edge29" class="edge">
<title>Node27&#45;&gt;Node5</title>
<path fill="none" stroke="midnightblue" d="M1979.18,-112.5C1975.7,-99.99 1968.77,-75.97 1961.5,-56 1958.2,-46.92 1954.07,-37.01 1950.51,-28.81"/>
<polygon fill="midnightblue" stroke="midnightblue" points="1953.65,-27.25 1946.4,-19.52 1947.25,-30.09 1953.65,-27.25"/>
</g>
<!-- Node27&#45;&gt;Node24 -->
<g id="edge30" class="edge">
<title>Node27&#45;&gt;Node24</title>
<path fill="none" stroke="midnightblue" d="M2014.78,-112.44C2050.95,-103.14 2108.88,-88.25 2148.48,-78.06"/>
<polygon fill="midnightblue" stroke="midnightblue" points="2149.57,-81.4 2158.38,-75.52 2147.82,-74.62 2149.57,-81.4"/>
</g>
<!-- Node28&#45;&gt;Node5 -->
<g id="edge32" class="edge">
<title>Node28&#45;&gt;Node5</title>
<path fill="none" stroke="midnightblue" d="M1909.11,-56.08C1914.76,-48.46 1923.04,-37.26 1929.95,-27.94"/>
<polygon fill="midnightblue" stroke="midnightblue" points="1932.88,-29.87 1936.02,-19.75 1927.25,-25.7 1932.88,-29.87"/>
</g>
<!-- Node28&#45;&gt;Node25 -->
<g id="edge33" class="edge">
<title>Node28&#45;&gt;Node25</title>
<path fill="none" stroke="midnightblue" d="M1948.29,-56.44C1999.24,-46.92 2081.53,-31.55 2136.07,-21.36"/>
<polygon fill="midnightblue" stroke="midnightblue" points="2136.73,-24.79 2145.92,-19.52 2135.45,-17.91 2136.73,-24.79"/>
</g>
<!-- Node29&#45;&gt;Node5 -->
<g id="edge35" class="edge">
<title>Node29&#45;&gt;Node5</title>
<path fill="none" stroke="midnightblue" d="M1754.44,-112.37C1772.83,-99.29 1809.42,-74.05 1842.5,-56 1865.05,-43.69 1891.6,-31.86 1911.68,-23.42"/>
<polygon fill="midnightblue" stroke="midnightblue" points="1913.08,-26.63 1920.97,-19.56 1910.39,-20.16 1913.08,-26.63"/>
</g>
<!-- Node29&#45;&gt;Node12 -->
<g id="edge36" class="edge">
<title>Node29&#45;&gt;Node12</title>
<path fill="none" stroke="midnightblue" d="M1717.94,-112.44C1691.9,-103.37 1650.59,-88.98 1621.45,-78.83"/>
<polygon fill="midnightblue" stroke="midnightblue" points="1622.28,-75.41 1611.69,-75.43 1619.98,-82.02 1622.28,-75.41"/>
</g>
<!-- Node29&#45;&gt;Node24 -->
<g id="edge37" class="edge">
<title>Node29&#45;&gt;Node24</title>
<path fill="none" stroke="midnightblue" d="M1791.51,-115.54C1862.46,-107.56 1998.22,-92.06 2124.73,-76.08"/>
<polygon fill="midnightblue" stroke="midnightblue" points="2125.5,-79.51 2134.98,-74.78 2124.62,-72.56 2125.5,-79.51"/>
</g>
<!-- Node31&#45;&gt;Node9 -->
<g id="edge40" class="edge">
<title>Node31&#45;&gt;Node9</title>
<path fill="none" stroke="midnightblue" d="M1516.72,-224.08C1511.83,-216.53 1504.67,-205.49 1498.67,-196.23"/>
<polygon fill="midnightblue" stroke="midnightblue" points="1501.55,-194.24 1493.17,-187.75 1495.67,-198.05 1501.55,-194.24"/>
</g>
<!-- Node31&#45;&gt;Node15 -->
<g id="edge41" class="edge">
<title>Node31&#45;&gt;Node15</title>
<path fill="none" stroke="midnightblue" d="M1528.61,-224.08C1533.78,-216.53 1541.35,-205.49 1547.69,-196.23"/>
<polygon fill="midnightblue" stroke="midnightblue" points="1550.74,-197.98 1553.5,-187.75 1544.96,-194.02 1550.74,-197.98"/>
</g>
<!-- Node32&#45;&gt;Node3 -->
<g id="edge43" class="edge">
<title>Node32&#45;&gt;Node3</title>
<path fill="none" stroke="midnightblue" d="M336.28,-336.48C267.78,-320.66 137.93,-279.66 80.5,-188 71.89,-174.26 72.31,-155.48 74.34,-141.64"/>
<polygon fill="midnightblue" stroke="midnightblue" points="77.78,-142.26 76.17,-131.79 70.9,-140.98 77.78,-142.26"/>
</g>
<!-- Node33&#45;&gt;Node29 -->
<g id="edge45" class="edge">
<title>Node33&#45;&gt;Node29</title>
<path fill="none" stroke="midnightblue" d="M1827.39,-336.25C1800.9,-314.57 1734.44,-255.26 1710.5,-188 1704.34,-170.7 1715.62,-151.99 1726.44,-139.1"/>
<polygon fill="midnightblue" stroke="midnightblue" points="1729.17,-141.31 1733.31,-131.55 1723.99,-136.6 1729.17,-141.31"/>
</g>
<!-- Node35&#45;&gt;Node29 -->
<g id="edge49" class="edge">
<title>Node35&#45;&gt;Node29</title>
<path fill="none" stroke="midnightblue" d="M1613.93,-336.16C1609.51,-308.24 1599.69,-220.71 1639.5,-168 1651.67,-151.89 1670.82,-141.45 1689.33,-134.73"/>
<polygon fill="midnightblue" stroke="midnightblue" points="1690.53,-138.02 1698.91,-131.54 1688.32,-131.38 1690.53,-138.02"/>
</g>
<!-- Node37&#45;&gt;Node30 -->
<g id="edge64" class="edge">
<title>Node37&#45;&gt;Node30</title>
<path fill="none" stroke="midnightblue" d="M2364.16,-336.44C2340.75,-327.48 2303.76,-313.31 2277.31,-303.18"/>
<polygon fill="midnightblue" stroke="midnightblue" points="2278.33,-299.82 2267.74,-299.52 2275.82,-306.36 2278.33,-299.82"/>
</g>
<!-- Node37&#45;&gt;Node34 -->
<g id="edge65" class="edge">
<title>Node37&#45;&gt;Node34</title>
<path fill="none" stroke="midnightblue" d="M2386.5,-336.08C2386.5,-329.01 2386.5,-318.86 2386.5,-309.99"/>
<polygon fill="midnightblue" stroke="midnightblue" points="2390,-309.75 2386.5,-299.75 2383,-309.75 2390,-309.75"/>
</g>
<!-- Node37&#45;&gt;Node36 -->
<g id="edge66" class="edge">
<title>Node37&#45;&gt;Node36</title>
<path fill="none" stroke="midnightblue" d="M2423.89,-336.44C2464.89,-327.06 2530.75,-311.99 2575.28,-301.8"/>
<polygon fill="midnightblue" stroke="midnightblue" points="2576.31,-305.16 2585.28,-299.52 2574.75,-298.34 2576.31,-305.16"/>
</g>
<!-- Node38 -->
<g id="node38" class="node">
<title>Node38</title>
<g id="a_node38"><a xlink:href="cache_8h.html" target="_top" xlink:title=" ">
<polygon fill="white" stroke="black" points="2461,-280.5 2461,-299.5 2554,-299.5 2554,-280.5 2461,-280.5"/>
<text text-anchor="middle" x="2507.5" y="-287.5" font-family="FreeSans" font-size="10.00">magick/cache.h</text>
</a>
</g>
</g>
<!-- Node37&#45;&gt;Node38 -->
<g id="edge53" class="edge">
<title>Node37&#45;&gt;Node38</title>
<path fill="none" stroke="midnightblue" d="M2405.67,-336.44C2425.41,-327.64 2456.39,-313.81 2478.99,-303.72"/>
<polygon fill="midnightblue" stroke="midnightblue" points="2480.71,-306.79 2488.42,-299.52 2477.86,-300.4 2480.71,-306.79"/>
</g>
<!-- Node39 -->
<g id="node39" class="node">
<title>Node39</title>
<g id="a_node39"><a xlink:href="blob_8h.html" target="_top" xlink:title=" ">
<polygon fill="white" stroke="black" points="2467.5,-224.5 2467.5,-243.5 2553.5,-243.5 2553.5,-224.5 2467.5,-224.5"/>
<text text-anchor="middle" x="2510.5" y="-231.5" font-family="FreeSans" font-size="10.00">magick/blob.h</text>
</a>
</g>
</g>
<!-- Node38&#45;&gt;Node39 -->
<g id="edge54" class="edge">
<title>Node38&#45;&gt;Node39</title>
<path fill="none" stroke="midnightblue" d="M2508,-280.08C2508.39,-273.01 2508.95,-262.86 2509.45,-253.99"/>
<polygon fill="midnightblue" stroke="midnightblue" points="2512.95,-253.93 2510.01,-243.75 2505.96,-253.54 2512.95,-253.93"/>
</g>
<!-- Node40 -->
<g id="node40" class="node">
<title>Node40</title>
<g id="a_node40"><a xlink:href="image_8h.html" target="_top" xlink:title=" ">
<polygon fill="white" stroke="red" points="2464,-168.5 2464,-187.5 2559,-187.5 2559,-168.5 2464,-168.5"/>
<text text-anchor="middle" x="2511.5" y="-175.5" font-family="FreeSans" font-size="10.00">magick/image.h</text>
</a>
</g>
</g>
<!-- Node39&#45;&gt;Node40 -->
<g id="edge55" class="edge">
<title>Node39&#45;&gt;Node40</title>
<path fill="none" stroke="midnightblue" d="M2505.5,-224.08C2504.12,-216.93 2503.88,-206.64 2504.7,-197.69"/>
<polygon fill="midnightblue" stroke="midnightblue" points="2508.16,-198.16 2506.21,-187.75 2501.24,-197.11 2508.16,-198.16"/>
</g>
<!-- Node60 -->
<g id="node44" class="node">
<title>Node60</title>
<g id="a_node44"><a xlink:href="stream_8h.html" target="_top" xlink:title=" ">
<polygon fill="white" stroke="black" points="2386,-112.5 2386,-131.5 2485,-131.5 2485,-112.5 2386,-112.5"/>
<text text-anchor="middle" x="2435.5" y="-119.5" font-family="FreeSans" font-size="10.00">magick/stream.h</text>
</a>
</g>
</g>
<!-- Node39&#45;&gt;Node60 -->
<g id="edge63" class="edge">
<title>Node39&#45;&gt;Node60</title>
<path fill="none" stroke="midnightblue" d="M2495.82,-224.46C2483.39,-216.51 2465.96,-203.56 2455.5,-188 2446.14,-174.07 2441,-155.56 2438.29,-141.86"/>
<polygon fill="midnightblue" stroke="midnightblue" points="2441.69,-140.95 2436.54,-131.68 2434.79,-142.13 2441.69,-140.95"/>
</g>
<!-- Node40&#45;&gt;Node25 -->
<g id="edge61" class="edge">
<title>Node40&#45;&gt;Node25</title>
<path fill="none" stroke="midnightblue" d="M2559.2,-174.36C2618.48,-169.96 2714.53,-158.8 2736.5,-132 2742.14,-125.13 2742.18,-118.83 2736.5,-112 2676.83,-40.25 2394.76,-19.25 2261.52,-13.28"/>
<polygon fill="midnightblue" stroke="midnightblue" points="2261.56,-9.78 2251.42,-12.84 2261.26,-16.77 2261.56,-9.78"/>
</g>
<!-- Node40&#45;&gt;Node39 -->
<g id="edge58" class="edge">
<title>Node40&#45;&gt;Node39</title>
<path fill="none" stroke="midnightblue" d="M2516.47,-187.75C2517.86,-194.86 2518.12,-205.14 2517.32,-214.1"/>
<polygon fill="midnightblue" stroke="midnightblue" points="2513.85,-213.68 2515.83,-224.08 2520.77,-214.71 2513.85,-213.68"/>
</g>
<!-- Node41 -->
<g id="node41" class="node">
<title>Node41</title>
<g id="a_node41"><a xlink:href="color_8h.html" target="_top" xlink:title=" ">
<polygon fill="white" stroke="red" points="2503.5,-112.5 2503.5,-131.5 2591.5,-131.5 2591.5,-112.5 2503.5,-112.5"/>
<text text-anchor="middle" x="2547.5" y="-119.5" font-family="FreeSans" font-size="10.00">magick/color.h</text>
</a>
</g>
</g>
<!-- Node40&#45;&gt;Node41 -->
<g id="edge56" class="edge">
<title>Node40&#45;&gt;Node41</title>
<path fill="none" stroke="midnightblue" d="M2517.44,-168.08C2522.48,-160.53 2529.84,-149.49 2536.01,-140.23"/>
<polygon fill="midnightblue" stroke="midnightblue" points="2539.03,-142.01 2541.67,-131.75 2533.21,-138.13 2539.03,-142.01"/>
</g>
<!-- Node43 -->
<g id="node42" class="node">
<title>Node43</title>
<g id="a_node42"><a xlink:href="colorspace_8h.html" target="_top" xlink:title=" ">
<polygon fill="white" stroke="black" points="2610,-112.5 2610,-131.5 2727,-131.5 2727,-112.5 2610,-112.5"/>
<text text-anchor="middle" x="2668.5" y="-119.5" font-family="FreeSans" font-size="10.00">magick/colorspace.h</text>
</a>
</g>
</g>
<!-- Node40&#45;&gt;Node43 -->
<g id="edge59" class="edge">
<title>Node40&#45;&gt;Node43</title>
<path fill="none" stroke="midnightblue" d="M2536.38,-168.44C2562.79,-159.36 2604.72,-144.94 2634.24,-134.78"/>
<polygon fill="midnightblue" stroke="midnightblue" points="2635.42,-138.08 2643.74,-131.52 2633.14,-131.46 2635.42,-138.08"/>
</g>
<!-- Node50 -->
<g id="node43" class="node">
<title>Node50</title>
<g id="a_node43"><a xlink:href="geometry_8h.html" target="_top" xlink:title=" ">
<polygon fill="white" stroke="black" points="2257.5,-112.5 2257.5,-131.5 2367.5,-131.5 2367.5,-112.5 2257.5,-112.5"/>
<text text-anchor="middle" x="2312.5" y="-119.5" font-family="FreeSans" font-size="10.00">magick/geometry.h</text>
</a>
</g>
</g>
<!-- Node40&#45;&gt;Node50 -->
<g id="edge60" class="edge">
<title>Node40&#45;&gt;Node50</title>
<path fill="none" stroke="midnightblue" d="M2479.97,-168.44C2445.91,-159.2 2391.49,-144.44 2353.98,-134.26"/>
<polygon fill="midnightblue" stroke="midnightblue" points="2354.45,-130.76 2343.88,-131.52 2352.62,-137.51 2354.45,-130.76"/>
</g>
<!-- Node40&#45;&gt;Node60 -->
<g id="edge62" class="edge">
<title>Node40&#45;&gt;Node60</title>
<path fill="none" stroke="midnightblue" d="M2499.29,-168.32C2487.72,-160.11 2470.12,-147.6 2456.34,-137.81"/>
<polygon fill="midnightblue" stroke="midnightblue" points="2458.11,-134.77 2447.93,-131.83 2454.06,-140.48 2458.11,-134.77"/>
</g>
<!-- Node41&#45;&gt;Node24 -->
<g id="edge57" class="edge">
<title>Node41&#45;&gt;Node24</title>
<path fill="none" stroke="midnightblue" d="M2503.26,-113.42C2500.3,-112.93 2497.36,-112.45 2494.5,-112 2413.28,-99.07 2319.62,-85.34 2258.19,-76.5"/>
<polygon fill="midnightblue" stroke="midnightblue" points="2258.63,-73.03 2248.24,-75.07 2257.64,-79.95 2258.63,-73.03"/>
</g>
<!-- Node62&#45;&gt;Node31 -->
<g id="edge68" class="edge">
<title>Node62&#45;&gt;Node31</title>
<path fill="none" stroke="midnightblue" d="M1989.88,-282.35C1887.52,-271.98 1690.97,-252.07 1588.43,-241.68"/>
<polygon fill="midnightblue" stroke="midnightblue" points="1588.5,-238.17 1578.2,-240.64 1587.8,-245.13 1588.5,-238.17"/>
</g>
<!-- Node63 -->
<g id="node46" class="node">
<title>Node63</title>
<g id="a_node46"><a xlink:href="nt-base_8h.html" target="_top" xlink:title=" ">
<polygon fill="white" stroke="black" points="2262,-168.5 2262,-187.5 2363,-187.5 2363,-168.5 2262,-168.5"/>
<text text-anchor="middle" x="2312.5" y="-175.5" font-family="FreeSans" font-size="10.00">magick/nt&#45;base.h</text>
</a>
</g>
</g>
<!-- Node62&#45;&gt;Node63 -->
<g id="edge69" class="edge">
<title>Node62&#45;&gt;Node63</title>
<path fill="none" stroke="midnightblue" d="M2075.67,-280.37C2120.8,-261.05 2230.12,-214.26 2282.95,-191.65"/>
<polygon fill="midnightblue" stroke="midnightblue" points="2284.61,-194.74 2292.43,-187.59 2281.86,-188.31 2284.61,-194.74"/>
</g>
<!-- Node64 -->
<g id="node47" class="node">
<title>Node64</title>
<g id="a_node47"><a xlink:href="nt-base-private_8h.html" target="_top" xlink:title=" ">
<polygon fill="white" stroke="black" points="1993.5,-224.5 1993.5,-243.5 2133.5,-243.5 2133.5,-224.5 1993.5,-224.5"/>
<text text-anchor="middle" x="2063.5" y="-231.5" font-family="FreeSans" font-size="10.00">magick/nt&#45;base&#45;private.h</text>
</a>
</g>
</g>
<!-- Node62&#45;&gt;Node64 -->
<g id="edge72" class="edge">
<title>Node62&#45;&gt;Node64</title>
<path fill="none" stroke="midnightblue" d="M2056.82,-280.08C2057.88,-272.93 2059.41,-262.64 2060.73,-253.69"/>
<polygon fill="midnightblue" stroke="midnightblue" points="2064.2,-254.16 2062.2,-243.75 2057.28,-253.13 2064.2,-254.16"/>
</g>
<!-- Node63&#45;&gt;Node24 -->
<g id="edge70" class="edge">
<title>Node63&#45;&gt;Node24</title>
<path fill="none" stroke="midnightblue" d="M2278.43,-168.39C2257.77,-161.59 2232.24,-150.15 2215.5,-132 2203.66,-119.16 2197.53,-99.98 2194.44,-85.78"/>
<polygon fill="midnightblue" stroke="midnightblue" points="2197.83,-84.87 2192.57,-75.67 2190.95,-86.14 2197.83,-84.87"/>
</g>
<!-- Node63&#45;&gt;Node50 -->
<g id="edge71" class="edge">
<title>Node63&#45;&gt;Node50</title>
<path fill="none" stroke="midnightblue" d="M2312.5,-168.08C2312.5,-161.01 2312.5,-150.86 2312.5,-141.99"/>
<polygon fill="midnightblue" stroke="midnightblue" points="2316,-141.75 2312.5,-131.75 2309,-141.75 2316,-141.75"/>
</g>
<!-- Node64&#45;&gt;Node24 -->
<g id="edge78" class="edge">
<title>Node64&#45;&gt;Node24</title>
<path fill="none" stroke="midnightblue" d="M2070.38,-224.08C2090.88,-197.49 2151.76,-118.54 2178.57,-83.76"/>
<polygon fill="midnightblue" stroke="midnightblue" points="2181.56,-85.62 2184.89,-75.57 2176.02,-81.35 2181.56,-85.62"/>
</g>
<!-- Node65 -->
<g id="node48" class="node">
<title>Node65</title>
<g id="a_node48"><a xlink:href="delegate_8h.html" target="_top" xlink:title=" ">
<polygon fill="white" stroke="black" points="2010,-56.5 2010,-75.5 2117,-75.5 2117,-56.5 2010,-56.5"/>
<text text-anchor="middle" x="2063.5" y="-63.5" font-family="FreeSans" font-size="10.00">magick/delegate.h</text>
</a>
</g>
</g>
<!-- Node64&#45;&gt;Node65 -->
<g id="edge73" class="edge">
<title>Node64&#45;&gt;Node65</title>
<path fill="none" stroke="midnightblue" d="M2063.5,-224.08C2063.5,-197.95 2063.5,-121.21 2063.5,-85.58"/>
<polygon fill="midnightblue" stroke="midnightblue" points="2067,-85.57 2063.5,-75.57 2060,-85.57 2067,-85.57"/>
</g>
<!-- Node66 -->
<g id="node49" class="node">
<title>Node66</title>
<g id="a_node49"><a xlink:href="delegate-private_8h.html" target="_top" xlink:title=" ">
<polygon fill="white" stroke="black" points="1719.5,-168.5 1719.5,-187.5 1865.5,-187.5 1865.5,-168.5 1719.5,-168.5"/>
<text text-anchor="middle" x="1792.5" y="-175.5" font-family="FreeSans" font-size="10.00">magick/delegate&#45;private.h</text>
</a>
</g>
</g>
<!-- Node64&#45;&gt;Node66 -->
<g id="edge76" class="edge">
<title>Node64&#45;&gt;Node66</title>
<path fill="none" stroke="midnightblue" d="M2020.56,-224.44C1972.99,-214.96 1896.26,-199.67 1845.11,-189.48"/>
<polygon fill="midnightblue" stroke="midnightblue" points="1845.73,-186.04 1835.24,-187.52 1844.36,-192.9 1845.73,-186.04"/>
</g>
<!-- Node67 -->
<g id="node50" class="node">
<title>Node67</title>
<g id="a_node50"><a xlink:href="splay-tree_8h.html" target="_top" xlink:title=" ">
<polygon fill="white" stroke="black" points="2129.5,-168.5 2129.5,-187.5 2243.5,-187.5 2243.5,-168.5 2129.5,-168.5"/>
<text text-anchor="middle" x="2186.5" y="-175.5" font-family="FreeSans" font-size="10.00">magick/splay&#45;tree.h</text>
</a>
</g>
</g>
<!-- Node64&#45;&gt;Node67 -->
<g id="edge79" class="edge">
<title>Node64&#45;&gt;Node67</title>
<path fill="none" stroke="midnightblue" d="M2082.99,-224.44C2103.14,-215.6 2134.82,-201.69 2157.83,-191.59"/>
<polygon fill="midnightblue" stroke="midnightblue" points="2159.35,-194.74 2167.1,-187.52 2156.54,-188.33 2159.35,-194.74"/>
</g>
<!-- Node65&#45;&gt;Node5 -->
<g id="edge74" class="edge">
<title>Node65&#45;&gt;Node5</title>
<path fill="none" stroke="midnightblue" d="M2044.33,-56.44C2024.59,-47.64 1993.61,-33.81 1971.01,-23.72"/>
<polygon fill="midnightblue" stroke="midnightblue" points="1972.14,-20.4 1961.58,-19.52 1969.29,-26.79 1972.14,-20.4"/>
</g>
<!-- Node65&#45;&gt;Node25 -->
<g id="edge75" class="edge">
<title>Node65&#45;&gt;Node25</title>
<path fill="none" stroke="midnightblue" d="M2083.78,-56.44C2104.85,-47.56 2138.02,-33.56 2161.99,-23.45"/>
<polygon fill="midnightblue" stroke="midnightblue" points="2163.46,-26.63 2171.31,-19.52 2160.74,-20.18 2163.46,-26.63"/>
</g>
<!-- Node66&#45;&gt;Node29 -->
<g id="edge77" class="edge">
<title>Node66&#45;&gt;Node29</title>
<path fill="none" stroke="midnightblue" d="M1784.24,-168.08C1777.04,-160.3 1766.39,-148.8 1757.65,-139.37"/>
<polygon fill="midnightblue" stroke="midnightblue" points="1759.97,-136.71 1750.6,-131.75 1754.83,-141.47 1759.97,-136.71"/>
</g>
</g>
</svg>
