<?xml version="1.0" encoding="UTF-8" standalone="no"?>
<!DOCTYPE svg PUBLIC "-//W3C//DTD SVG 1.1//EN"
 "http://www.w3.org/Graphics/SVG/1.1/DTD/svg11.dtd">
<!-- Generated by graphviz version 2.43.0 (0)
 -->
<!-- Title: registry.c Pages: 1 -->
<svg width="3299pt" height="308pt"
 viewBox="0.00 0.00 3298.85 308.00" xmlns="http://www.w3.org/2000/svg" xmlns:xlink="http://www.w3.org/1999/xlink">
<g id="graph0" class="graph" transform="scale(1 1) rotate(0) translate(4 304)">
<title>registry.c</title>
<polygon fill="white" stroke="transparent" points="-4,4 -4,-304 3294.85,-304 3294.85,4 -4,4"/>
<!-- Node1 -->
<g id="node1" class="node">
<title>Node1</title>
<g id="a_node1"><a xlink:title=" ">
<polygon fill="#bfbfbf" stroke="black" points="1828.5,-280.5 1828.5,-299.5 1889.5,-299.5 1889.5,-280.5 1828.5,-280.5"/>
<text text-anchor="middle" x="1859" y="-287.5" font-family="FreeSans" font-size="10.00">registry.c</text>
</a>
</g>
</g>
<!-- Node2 -->
<g id="node2" class="node">
<title>Node2</title>
<g id="a_node2"><a xlink:href="studio_8h.html" target="_top" xlink:title=" ">
<polygon fill="white" stroke="black" points="754.5,-224.5 754.5,-243.5 849.5,-243.5 849.5,-224.5 754.5,-224.5"/>
<text text-anchor="middle" x="802" y="-231.5" font-family="FreeSans" font-size="10.00">magick/studio.h</text>
</a>
</g>
</g>
<!-- Node1&#45;&gt;Node2 -->
<g id="edge1" class="edge">
<title>Node1&#45;&gt;Node2</title>
<path fill="none" stroke="midnightblue" d="M1828.22,-287.43C1681.7,-279.94 1053.86,-247.87 859.55,-237.94"/>
<polygon fill="midnightblue" stroke="midnightblue" points="859.71,-234.44 849.54,-237.43 859.35,-241.43 859.71,-234.44"/>
</g>
<!-- Node24 -->
<g id="node23" class="node">
<title>Node24</title>
<g id="a_node23"><a xlink:href="exception_8h.html" target="_top" xlink:title=" ">
<polygon fill="white" stroke="black" points="1867.5,-56.5 1867.5,-75.5 1980.5,-75.5 1980.5,-56.5 1867.5,-56.5"/>
<text text-anchor="middle" x="1924" y="-63.5" font-family="FreeSans" font-size="10.00">magick/exception.h</text>
</a>
</g>
</g>
<!-- Node1&#45;&gt;Node24 -->
<g id="edge23" class="edge">
<title>Node1&#45;&gt;Node24</title>
<path fill="none" stroke="midnightblue" d="M1873.3,-280.23C1884.82,-272.31 1900.32,-259.53 1908,-244 1933.93,-191.54 1930.22,-119.67 1926.56,-85.94"/>
<polygon fill="midnightblue" stroke="midnightblue" points="1929.99,-85.2 1925.31,-75.69 1923.04,-86.04 1929.99,-85.2"/>
</g>
<!-- Node26 -->
<g id="node25" class="node">
<title>Node26</title>
<g id="a_node25"><a xlink:href="exception-private_8h.html" target="_top" xlink:title=" ">
<polygon fill="white" stroke="black" points="1747.5,-168.5 1747.5,-187.5 1898.5,-187.5 1898.5,-168.5 1747.5,-168.5"/>
<text text-anchor="middle" x="1823" y="-175.5" font-family="FreeSans" font-size="10.00">magick/exception&#45;private.h</text>
</a>
</g>
</g>
<!-- Node1&#45;&gt;Node26 -->
<g id="edge26" class="edge">
<title>Node1&#45;&gt;Node26</title>
<path fill="none" stroke="midnightblue" d="M1844.34,-280.4C1832.59,-272.58 1816.97,-259.86 1810,-244 1803.36,-228.89 1808.24,-210.3 1813.82,-196.88"/>
<polygon fill="midnightblue" stroke="midnightblue" points="1817.01,-198.32 1818.04,-187.77 1810.66,-195.37 1817.01,-198.32"/>
</g>
<!-- Node29 -->
<g id="node28" class="node">
<title>Node29</title>
<g id="a_node28"><a xlink:href="string___8h.html" target="_top" xlink:title=" ">
<polygon fill="white" stroke="black" points="1633,-112.5 1633,-131.5 1731,-131.5 1731,-112.5 1633,-112.5"/>
<text text-anchor="middle" x="1682" y="-119.5" font-family="FreeSans" font-size="10.00">magick/string_.h</text>
</a>
</g>
</g>
<!-- Node1&#45;&gt;Node29 -->
<g id="edge71" class="edge">
<title>Node1&#45;&gt;Node29</title>
<path fill="none" stroke="midnightblue" d="M1828.46,-286.13C1776.38,-279.4 1671.61,-257.48 1626,-188 1613.47,-168.91 1636.03,-149.37 1656.15,-136.77"/>
<polygon fill="midnightblue" stroke="midnightblue" points="1657.97,-139.76 1664.8,-131.66 1654.41,-133.73 1657.97,-139.76"/>
</g>
<!-- Node30 -->
<g id="node29" class="node">
<title>Node30</title>
<g id="a_node29"><a xlink:href="image_8h.html" target="_top" xlink:title=" ">
<polygon fill="white" stroke="red" points="2299.5,-224.5 2299.5,-243.5 2394.5,-243.5 2394.5,-224.5 2299.5,-224.5"/>
<text text-anchor="middle" x="2347" y="-231.5" font-family="FreeSans" font-size="10.00">magick/image.h</text>
</a>
</g>
</g>
<!-- Node1&#45;&gt;Node30 -->
<g id="edge37" class="edge">
<title>Node1&#45;&gt;Node30</title>
<path fill="none" stroke="midnightblue" d="M1889.53,-285.62C1969.29,-276.8 2184.96,-252.93 2289.14,-241.4"/>
<polygon fill="midnightblue" stroke="midnightblue" points="2289.61,-244.87 2299.16,-240.29 2288.84,-237.91 2289.61,-244.87"/>
</g>
<!-- Node53 -->
<g id="node45" class="node">
<title>Node53</title>
<g id="a_node45"><a xlink:href="list_8h.html" target="_top" xlink:title=" ">
<polygon fill="white" stroke="black" points="1819,-224.5 1819,-243.5 1899,-243.5 1899,-224.5 1819,-224.5"/>
<text text-anchor="middle" x="1859" y="-231.5" font-family="FreeSans" font-size="10.00">magick/list.h</text>
</a>
</g>
</g>
<!-- Node1&#45;&gt;Node53 -->
<g id="edge63" class="edge">
<title>Node1&#45;&gt;Node53</title>
<path fill="none" stroke="midnightblue" d="M1859,-280.08C1859,-273.01 1859,-262.86 1859,-253.99"/>
<polygon fill="midnightblue" stroke="midnightblue" points="1862.5,-253.75 1859,-243.75 1855.5,-253.75 1862.5,-253.75"/>
</g>
<!-- Node54 -->
<g id="node46" class="node">
<title>Node54</title>
<g id="a_node46"><a xlink:href="memory___8h.html" target="_top" xlink:title=" ">
<polygon fill="white" stroke="black" points="1466.5,-224.5 1466.5,-243.5 1577.5,-243.5 1577.5,-224.5 1466.5,-224.5"/>
<text text-anchor="middle" x="1522" y="-231.5" font-family="FreeSans" font-size="10.00">magick/memory_.h</text>
</a>
</g>
</g>
<!-- Node1&#45;&gt;Node54 -->
<g id="edge64" class="edge">
<title>Node1&#45;&gt;Node54</title>
<path fill="none" stroke="midnightblue" d="M1828.5,-284.11C1773.72,-275.33 1657.64,-256.73 1585.1,-245.11"/>
<polygon fill="midnightblue" stroke="midnightblue" points="1585.59,-241.65 1575.16,-243.52 1584.48,-248.56 1585.59,-241.65"/>
</g>
<!-- Node55 -->
<g id="node47" class="node">
<title>Node55</title>
<g id="a_node47"><a xlink:href="memory-private_8h.html" target="_top" xlink:title=" ">
<polygon fill="white" stroke="black" points="275,-224.5 275,-243.5 419,-243.5 419,-224.5 275,-224.5"/>
<text text-anchor="middle" x="347" y="-231.5" font-family="FreeSans" font-size="10.00">magick/memory&#45;private.h</text>
</a>
</g>
</g>
<!-- Node1&#45;&gt;Node55 -->
<g id="edge67" class="edge">
<title>Node1&#45;&gt;Node55</title>
<path fill="none" stroke="midnightblue" d="M1828.46,-287.91C1647.53,-281.45 714.52,-248.13 429.68,-237.95"/>
<polygon fill="midnightblue" stroke="midnightblue" points="429.53,-234.45 419.42,-237.59 429.28,-241.44 429.53,-234.45"/>
</g>
<!-- Node56 -->
<g id="node48" class="node">
<title>Node56</title>
<g id="a_node48"><a xlink:href="registry_8h.html" target="_top" xlink:title=" ">
<polygon fill="white" stroke="black" points="2412.5,-224.5 2412.5,-243.5 2513.5,-243.5 2513.5,-224.5 2412.5,-224.5"/>
<text text-anchor="middle" x="2463" y="-231.5" font-family="FreeSans" font-size="10.00">magick/registry.h</text>
</a>
</g>
</g>
<!-- Node1&#45;&gt;Node56 -->
<g id="edge69" class="edge">
<title>Node1&#45;&gt;Node56</title>
<path fill="none" stroke="midnightblue" d="M1889.5,-287.22C1971,-282.31 2200.78,-267.45 2402.01,-244.17"/>
<polygon fill="midnightblue" stroke="midnightblue" points="2402.65,-247.62 2412.18,-242.98 2401.84,-240.66 2402.65,-247.62"/>
</g>
<!-- Node57 -->
<g id="node49" class="node">
<title>Node57</title>
<g id="a_node49"><a xlink:href="splay-tree_8h.html" target="_top" xlink:title=" ">
<polygon fill="white" stroke="black" points="2532,-224.5 2532,-243.5 2646,-243.5 2646,-224.5 2532,-224.5"/>
<text text-anchor="middle" x="2589" y="-231.5" font-family="FreeSans" font-size="10.00">magick/splay&#45;tree.h</text>
</a>
</g>
</g>
<!-- Node1&#45;&gt;Node57 -->
<g id="edge70" class="edge">
<title>Node1&#45;&gt;Node57</title>
<path fill="none" stroke="midnightblue" d="M1889.51,-287.67C1982.62,-283.46 2271.56,-269.23 2521.78,-244.06"/>
<polygon fill="midnightblue" stroke="midnightblue" points="2522.19,-247.53 2531.79,-243.04 2521.49,-240.57 2522.19,-247.53"/>
</g>
<!-- Node58 -->
<g id="node50" class="node">
<title>Node58</title>
<g id="a_node50"><a xlink:href="utility_8h.html" target="_top" xlink:title=" ">
<polygon fill="white" stroke="black" points="2664,-224.5 2664,-243.5 2756,-243.5 2756,-224.5 2664,-224.5"/>
<text text-anchor="middle" x="2710" y="-231.5" font-family="FreeSans" font-size="10.00">magick/utility.h</text>
</a>
</g>
</g>
<!-- Node1&#45;&gt;Node58 -->
<g id="edge72" class="edge">
<title>Node1&#45;&gt;Node58</title>
<path fill="none" stroke="midnightblue" d="M1889.83,-288.43C1995.09,-286.23 2350.06,-276.8 2653.52,-244.04"/>
<polygon fill="midnightblue" stroke="midnightblue" points="2654.27,-247.48 2663.84,-242.92 2653.51,-240.52 2654.27,-247.48"/>
</g>
<!-- Node3 -->
<g id="node3" class="node">
<title>Node3</title>
<g id="a_node3"><a xlink:href="magick-config_8h.html" target="_top" xlink:title=" ">
<polygon fill="white" stroke="red" points="0,-112.5 0,-131.5 134,-131.5 134,-112.5 0,-112.5"/>
<text text-anchor="middle" x="67" y="-119.5" font-family="FreeSans" font-size="10.00">magick/magick&#45;config.h</text>
</a>
</g>
</g>
<!-- Node2&#45;&gt;Node3 -->
<g id="edge2" class="edge">
<title>Node2&#45;&gt;Node3</title>
<path fill="none" stroke="midnightblue" d="M754.25,-231.5C598.26,-226.4 112.11,-208.88 86,-188 72.39,-177.12 68.17,-157.05 67.03,-142.08"/>
<polygon fill="midnightblue" stroke="midnightblue" points="70.52,-141.72 66.65,-131.86 63.53,-141.98 70.52,-141.72"/>
</g>
<!-- Node5 -->
<g id="node4" class="node">
<title>Node5</title>
<g id="a_node4"><a xlink:title=" ">
<polygon fill="white" stroke="#bfbfbf" points="1692,-0.5 1692,-19.5 1748,-19.5 1748,-0.5 1692,-0.5"/>
<text text-anchor="middle" x="1720" y="-7.5" font-family="FreeSans" font-size="10.00">stdarg.h</text>
</a>
</g>
</g>
<!-- Node2&#45;&gt;Node5 -->
<g id="edge3" class="edge">
<title>Node2&#45;&gt;Node5</title>
<path fill="none" stroke="midnightblue" d="M790.95,-224.37C775.51,-211.28 750.97,-186.04 766,-168 942.12,43.47 1103.13,-98.7 1375,-56 1486.07,-38.55 1618.02,-22.69 1681.76,-15.33"/>
<polygon fill="midnightblue" stroke="midnightblue" points="1682.22,-18.8 1691.75,-14.18 1681.42,-11.84 1682.22,-18.8"/>
</g>
<!-- Node6 -->
<g id="node5" class="node">
<title>Node6</title>
<g id="a_node5"><a xlink:title=" ">
<polygon fill="white" stroke="#bfbfbf" points="245,-168.5 245,-187.5 295,-187.5 295,-168.5 245,-168.5"/>
<text text-anchor="middle" x="270" y="-175.5" font-family="FreeSans" font-size="10.00">stdio.h</text>
</a>
</g>
</g>
<!-- Node2&#45;&gt;Node6 -->
<g id="edge4" class="edge">
<title>Node2&#45;&gt;Node6</title>
<path fill="none" stroke="midnightblue" d="M754.27,-231.36C666.86,-227.79 475.2,-217.26 305.03,-187.89"/>
<polygon fill="midnightblue" stroke="midnightblue" points="305.6,-184.44 295.15,-186.16 304.39,-191.34 305.6,-184.44"/>
</g>
<!-- Node7 -->
<g id="node6" class="node">
<title>Node7</title>
<g id="a_node6"><a xlink:title=" ">
<polygon fill="white" stroke="#bfbfbf" points="313.5,-168.5 313.5,-187.5 366.5,-187.5 366.5,-168.5 313.5,-168.5"/>
<text text-anchor="middle" x="340" y="-175.5" font-family="FreeSans" font-size="10.00">ctype.h</text>
</a>
</g>
</g>
<!-- Node2&#45;&gt;Node7 -->
<g id="edge5" class="edge">
<title>Node2&#45;&gt;Node7</title>
<path fill="none" stroke="midnightblue" d="M754.42,-230.15C677.23,-225.06 519.81,-212.7 376.91,-187.91"/>
<polygon fill="midnightblue" stroke="midnightblue" points="377.1,-184.39 366.65,-186.1 375.89,-191.28 377.1,-184.39"/>
</g>
<!-- Node8 -->
<g id="node7" class="node">
<title>Node8</title>
<g id="a_node7"><a xlink:title=" ">
<polygon fill="white" stroke="#bfbfbf" points="529.5,-168.5 529.5,-187.5 584.5,-187.5 584.5,-168.5 529.5,-168.5"/>
<text text-anchor="middle" x="557" y="-175.5" font-family="FreeSans" font-size="10.00">locale.h</text>
</a>
</g>
</g>
<!-- Node2&#45;&gt;Node8 -->
<g id="edge6" class="edge">
<title>Node2&#45;&gt;Node8</title>
<path fill="none" stroke="midnightblue" d="M760.27,-224.44C720.17,-216.11 657.6,-202.88 594.94,-188.4"/>
<polygon fill="midnightblue" stroke="midnightblue" points="595.42,-184.92 584.89,-186.07 593.84,-191.74 595.42,-184.92"/>
</g>
<!-- Node9 -->
<g id="node8" class="node">
<title>Node9</title>
<g id="a_node8"><a xlink:title=" ">
<polygon fill="white" stroke="#bfbfbf" points="1526.5,-168.5 1526.5,-187.5 1577.5,-187.5 1577.5,-168.5 1526.5,-168.5"/>
<text text-anchor="middle" x="1552" y="-175.5" font-family="FreeSans" font-size="10.00">errno.h</text>
</a>
</g>
</g>
<!-- Node2&#45;&gt;Node9 -->
<g id="edge7" class="edge">
<title>Node2&#45;&gt;Node9</title>
<path fill="none" stroke="midnightblue" d="M849.61,-233.1C963.38,-232.66 1259.98,-227.63 1515.89,-187.85"/>
<polygon fill="midnightblue" stroke="midnightblue" points="1516.79,-191.25 1526.12,-186.24 1515.7,-184.34 1516.79,-191.25"/>
</g>
<!-- Node10 -->
<g id="node9" class="node">
<title>Node10</title>
<g id="a_node9"><a xlink:title=" ">
<polygon fill="white" stroke="#bfbfbf" points="602.5,-168.5 602.5,-187.5 649.5,-187.5 649.5,-168.5 602.5,-168.5"/>
<text text-anchor="middle" x="626" y="-175.5" font-family="FreeSans" font-size="10.00">fcntl.h</text>
</a>
</g>
</g>
<!-- Node2&#45;&gt;Node10 -->
<g id="edge8" class="edge">
<title>Node2&#45;&gt;Node10</title>
<path fill="none" stroke="midnightblue" d="M774.11,-224.44C742.93,-214.88 692.45,-199.39 659.24,-189.2"/>
<polygon fill="midnightblue" stroke="midnightblue" points="660.12,-185.81 649.53,-186.22 658.07,-192.5 660.12,-185.81"/>
</g>
<!-- Node11 -->
<g id="node10" class="node">
<title>Node11</title>
<g id="a_node10"><a xlink:title=" ">
<polygon fill="white" stroke="#bfbfbf" points="667.5,-168.5 667.5,-187.5 718.5,-187.5 718.5,-168.5 667.5,-168.5"/>
<text text-anchor="middle" x="693" y="-175.5" font-family="FreeSans" font-size="10.00">math.h</text>
</a>
</g>
</g>
<!-- Node2&#45;&gt;Node11 -->
<g id="edge9" class="edge">
<title>Node2&#45;&gt;Node11</title>
<path fill="none" stroke="midnightblue" d="M784.49,-224.32C766.93,-215.62 739.67,-202.12 719.47,-192.11"/>
<polygon fill="midnightblue" stroke="midnightblue" points="720.98,-188.96 710.47,-187.65 717.88,-195.23 720.98,-188.96"/>
</g>
<!-- Node12 -->
<g id="node11" class="node">
<title>Node12</title>
<g id="a_node11"><a xlink:title=" ">
<polygon fill="white" stroke="#bfbfbf" points="1384,-56.5 1384,-75.5 1432,-75.5 1432,-56.5 1384,-56.5"/>
<text text-anchor="middle" x="1408" y="-63.5" font-family="FreeSans" font-size="10.00">time.h</text>
</a>
</g>
</g>
<!-- Node2&#45;&gt;Node12 -->
<g id="edge10" class="edge">
<title>Node2&#45;&gt;Node12</title>
<path fill="none" stroke="midnightblue" d="M849.53,-232.56C920.3,-230.71 1056.87,-222.5 1167,-188 1185.21,-182.29 1188.01,-176.7 1205,-168 1267.99,-135.76 1342.62,-98.99 1381.47,-79.96"/>
<polygon fill="midnightblue" stroke="midnightblue" points="1383.11,-83.05 1390.55,-75.51 1380.03,-76.77 1383.11,-83.05"/>
</g>
<!-- Node13 -->
<g id="node12" class="node">
<title>Node13</title>
<g id="a_node12"><a xlink:title=" ">
<polygon fill="white" stroke="#bfbfbf" points="775.5,-168.5 775.5,-187.5 828.5,-187.5 828.5,-168.5 775.5,-168.5"/>
<text text-anchor="middle" x="802" y="-175.5" font-family="FreeSans" font-size="10.00">limits.h</text>
</a>
</g>
</g>
<!-- Node2&#45;&gt;Node13 -->
<g id="edge11" class="edge">
<title>Node2&#45;&gt;Node13</title>
<path fill="none" stroke="midnightblue" d="M802,-224.08C802,-217.01 802,-206.86 802,-197.99"/>
<polygon fill="midnightblue" stroke="midnightblue" points="805.5,-197.75 802,-187.75 798.5,-197.75 805.5,-197.75"/>
</g>
<!-- Node14 -->
<g id="node13" class="node">
<title>Node14</title>
<g id="a_node13"><a xlink:title=" ">
<polygon fill="white" stroke="#bfbfbf" points="846.5,-168.5 846.5,-187.5 901.5,-187.5 901.5,-168.5 846.5,-168.5"/>
<text text-anchor="middle" x="874" y="-175.5" font-family="FreeSans" font-size="10.00">signal.h</text>
</a>
</g>
</g>
<!-- Node2&#45;&gt;Node14 -->
<g id="edge12" class="edge">
<title>Node2&#45;&gt;Node14</title>
<path fill="none" stroke="midnightblue" d="M813.57,-224.32C824.42,-216.18 840.88,-203.84 853.88,-194.09"/>
<polygon fill="midnightblue" stroke="midnightblue" points="856.32,-196.63 862.22,-187.83 852.12,-191.03 856.32,-196.63"/>
</g>
<!-- Node15 -->
<g id="node14" class="node">
<title>Node15</title>
<g id="a_node14"><a xlink:title=" ">
<polygon fill="white" stroke="#bfbfbf" points="1452,-168.5 1452,-187.5 1508,-187.5 1508,-168.5 1452,-168.5"/>
<text text-anchor="middle" x="1480" y="-175.5" font-family="FreeSans" font-size="10.00">assert.h</text>
</a>
</g>
</g>
<!-- Node2&#45;&gt;Node15 -->
<g id="edge13" class="edge">
<title>Node2&#45;&gt;Node15</title>
<path fill="none" stroke="midnightblue" d="M849.75,-232.39C955.08,-230.46 1215.31,-222.45 1441.74,-187.93"/>
<polygon fill="midnightblue" stroke="midnightblue" points="1442.47,-191.36 1451.82,-186.37 1441.4,-184.44 1442.47,-191.36"/>
</g>
<!-- Node16 -->
<g id="node15" class="node">
<title>Node16</title>
<g id="a_node15"><a xlink:href="method-attribute_8h.html" target="_top" xlink:title=" ">
<polygon fill="white" stroke="black" points="920,-168.5 920,-187.5 1068,-187.5 1068,-168.5 920,-168.5"/>
<text text-anchor="middle" x="994" y="-175.5" font-family="FreeSans" font-size="10.00">magick/method&#45;attribute.h</text>
</a>
</g>
</g>
<!-- Node2&#45;&gt;Node16 -->
<g id="edge14" class="edge">
<title>Node2&#45;&gt;Node16</title>
<path fill="none" stroke="midnightblue" d="M832.42,-224.44C865.28,-215.2 917.78,-200.44 953.97,-190.26"/>
<polygon fill="midnightblue" stroke="midnightblue" points="955.04,-193.59 963.72,-187.52 953.15,-186.85 955.04,-193.59"/>
</g>
<!-- Node17 -->
<g id="node16" class="node">
<title>Node17</title>
<g id="a_node16"><a xlink:title=" ">
<polygon fill="white" stroke="#bfbfbf" points="1086,-168.5 1086,-187.5 1158,-187.5 1158,-168.5 1086,-168.5"/>
<text text-anchor="middle" x="1122" y="-175.5" font-family="FreeSans" font-size="10.00">sys/types.h</text>
</a>
</g>
</g>
<!-- Node2&#45;&gt;Node17 -->
<g id="edge15" class="edge">
<title>Node2&#45;&gt;Node17</title>
<path fill="none" stroke="midnightblue" d="M849.78,-225.7C902.61,-217.52 990.5,-203.56 1075.58,-188.21"/>
<polygon fill="midnightblue" stroke="midnightblue" points="1076.46,-191.61 1085.67,-186.38 1075.21,-184.72 1076.46,-191.61"/>
</g>
<!-- Node18 -->
<g id="node17" class="node">
<title>Node18</title>
<g id="a_node17"><a xlink:title=" ">
<polygon fill="white" stroke="#bfbfbf" points="1214,-168.5 1214,-187.5 1278,-187.5 1278,-168.5 1214,-168.5"/>
<text text-anchor="middle" x="1246" y="-175.5" font-family="FreeSans" font-size="10.00">sys/stat.h</text>
</a>
</g>
</g>
<!-- Node2&#45;&gt;Node18 -->
<g id="edge16" class="edge">
<title>Node2&#45;&gt;Node18</title>
<path fill="none" stroke="midnightblue" d="M849.64,-228.87C924.49,-222.09 1074.06,-207.41 1200,-188 1201.27,-187.8 1202.55,-187.6 1203.85,-187.39"/>
<polygon fill="midnightblue" stroke="midnightblue" points="1204.64,-190.8 1213.89,-185.63 1203.43,-183.91 1204.64,-190.8"/>
</g>
<!-- Node19 -->
<g id="node18" class="node">
<title>Node19</title>
<g id="a_node18"><a xlink:title=" ">
<polygon fill="white" stroke="#bfbfbf" points="1296,-168.5 1296,-187.5 1350,-187.5 1350,-168.5 1296,-168.5"/>
<text text-anchor="middle" x="1323" y="-175.5" font-family="FreeSans" font-size="10.00">dirent.h</text>
</a>
</g>
</g>
<!-- Node2&#45;&gt;Node19 -->
<g id="edge17" class="edge">
<title>Node2&#45;&gt;Node19</title>
<path fill="none" stroke="midnightblue" d="M849.82,-230.98C935.38,-226.85 1120.4,-215.53 1285.62,-187.98"/>
<polygon fill="midnightblue" stroke="midnightblue" points="1286.69,-191.35 1295.97,-186.23 1285.52,-184.45 1286.69,-191.35"/>
</g>
<!-- Node20 -->
<g id="node19" class="node">
<title>Node20</title>
<g id="a_node19"><a xlink:title=" ">
<polygon fill="white" stroke="#bfbfbf" points="1368,-168.5 1368,-187.5 1434,-187.5 1434,-168.5 1368,-168.5"/>
<text text-anchor="middle" x="1401" y="-175.5" font-family="FreeSans" font-size="10.00">sys/wait.h</text>
</a>
</g>
</g>
<!-- Node2&#45;&gt;Node20 -->
<g id="edge18" class="edge">
<title>Node2&#45;&gt;Node20</title>
<path fill="none" stroke="midnightblue" d="M849.55,-231.25C944.39,-227.31 1163.92,-215.93 1357.53,-188.04"/>
<polygon fill="midnightblue" stroke="midnightblue" points="1358.21,-191.48 1367.6,-186.57 1357.2,-184.55 1358.21,-191.48"/>
</g>
<!-- Node21 -->
<g id="node20" class="node">
<title>Node21</title>
<g id="a_node20"><a xlink:title=" ">
<polygon fill="white" stroke="#bfbfbf" points="95,-168.5 95,-187.5 141,-187.5 141,-168.5 95,-168.5"/>
<text text-anchor="middle" x="118" y="-175.5" font-family="FreeSans" font-size="10.00">pwd.h</text>
</a>
</g>
</g>
<!-- Node2&#45;&gt;Node21 -->
<g id="edge19" class="edge">
<title>Node2&#45;&gt;Node21</title>
<path fill="none" stroke="midnightblue" d="M754.15,-233.04C647.31,-232.42 381.27,-226.9 151.18,-187.85"/>
<polygon fill="midnightblue" stroke="midnightblue" points="151.74,-184.4 141.29,-186.15 150.55,-191.29 151.74,-184.4"/>
</g>
<!-- Node22 -->
<g id="node21" class="node">
<title>Node22</title>
<g id="a_node21"><a xlink:href="magick-type_8h.html" target="_top" xlink:title=" ">
<polygon fill="white" stroke="black" points="385,-168.5 385,-187.5 511,-187.5 511,-168.5 385,-168.5"/>
<text text-anchor="middle" x="448" y="-175.5" font-family="FreeSans" font-size="10.00">magick/magick&#45;type.h</text>
</a>
</g>
</g>
<!-- Node2&#45;&gt;Node22 -->
<g id="edge20" class="edge">
<title>Node2&#45;&gt;Node22</title>
<path fill="none" stroke="midnightblue" d="M754.26,-225.72C692.29,-216.26 583.85,-199.72 514.02,-189.07"/>
<polygon fill="midnightblue" stroke="midnightblue" points="514.42,-185.59 504.01,-187.54 513.37,-192.51 514.42,-185.59"/>
</g>
<!-- Node23 -->
<g id="node22" class="node">
<title>Node23</title>
<g id="a_node22"><a xlink:title=" ">
<polygon fill="white" stroke="#bfbfbf" points="159,-168.5 159,-187.5 227,-187.5 227,-168.5 159,-168.5"/>
<text text-anchor="middle" x="193" y="-175.5" font-family="FreeSans" font-size="10.00">sys/time.h</text>
</a>
</g>
</g>
<!-- Node2&#45;&gt;Node23 -->
<g id="edge22" class="edge">
<title>Node2&#45;&gt;Node23</title>
<path fill="none" stroke="midnightblue" d="M754.44,-231.26C658.45,-227.31 434.59,-215.86 237.17,-187.99"/>
<polygon fill="midnightblue" stroke="midnightblue" points="237.59,-184.52 227.2,-186.57 236.6,-191.45 237.59,-184.52"/>
</g>
<!-- Node22&#45;&gt;Node3 -->
<g id="edge21" class="edge">
<title>Node22&#45;&gt;Node3</title>
<path fill="none" stroke="midnightblue" d="M387.63,-168.44C319.63,-158.81 209.26,-143.16 137.4,-132.98"/>
<polygon fill="midnightblue" stroke="midnightblue" points="137.48,-129.45 127.09,-131.52 136.5,-136.39 137.48,-129.45"/>
</g>
<!-- Node24&#45;&gt;Node5 -->
<g id="edge24" class="edge">
<title>Node24&#45;&gt;Node5</title>
<path fill="none" stroke="midnightblue" d="M1891.68,-56.44C1855.37,-46.83 1796.51,-31.25 1758.03,-21.07"/>
<polygon fill="midnightblue" stroke="midnightblue" points="1758.79,-17.65 1748.23,-18.47 1757,-24.42 1758.79,-17.65"/>
</g>
<!-- Node25 -->
<g id="node24" class="node">
<title>Node25</title>
<g id="a_node24"><a xlink:href="semaphore_8h.html" target="_top" xlink:title=" ">
<polygon fill="white" stroke="black" points="1906.5,-0.5 1906.5,-19.5 2025.5,-19.5 2025.5,-0.5 1906.5,-0.5"/>
<text text-anchor="middle" x="1966" y="-7.5" font-family="FreeSans" font-size="10.00">magick/semaphore.h</text>
</a>
</g>
</g>
<!-- Node24&#45;&gt;Node25 -->
<g id="edge25" class="edge">
<title>Node24&#45;&gt;Node25</title>
<path fill="none" stroke="midnightblue" d="M1930.94,-56.08C1936.93,-48.38 1945.75,-37.03 1953.05,-27.65"/>
<polygon fill="midnightblue" stroke="midnightblue" points="1955.82,-29.79 1959.19,-19.75 1950.29,-25.5 1955.82,-29.79"/>
</g>
<!-- Node27 -->
<g id="node26" class="node">
<title>Node27</title>
<g id="a_node26"><a xlink:href="log_8h.html" target="_top" xlink:title=" ">
<polygon fill="white" stroke="black" points="1819,-112.5 1819,-131.5 1899,-131.5 1899,-112.5 1819,-112.5"/>
<text text-anchor="middle" x="1859" y="-119.5" font-family="FreeSans" font-size="10.00">magick/log.h</text>
</a>
</g>
</g>
<!-- Node26&#45;&gt;Node27 -->
<g id="edge27" class="edge">
<title>Node26&#45;&gt;Node27</title>
<path fill="none" stroke="midnightblue" d="M1828.94,-168.08C1833.98,-160.53 1841.34,-149.49 1847.51,-140.23"/>
<polygon fill="midnightblue" stroke="midnightblue" points="1850.53,-142.01 1853.17,-131.75 1844.71,-138.13 1850.53,-142.01"/>
</g>
<!-- Node28 -->
<g id="node27" class="node">
<title>Node28</title>
<g id="a_node27"><a xlink:href="magick_8h.html" target="_top" xlink:title=" ">
<polygon fill="white" stroke="black" points="1748.5,-56.5 1748.5,-75.5 1849.5,-75.5 1849.5,-56.5 1748.5,-56.5"/>
<text text-anchor="middle" x="1799" y="-63.5" font-family="FreeSans" font-size="10.00">magick/magick.h</text>
</a>
</g>
</g>
<!-- Node26&#45;&gt;Node28 -->
<g id="edge30" class="edge">
<title>Node26&#45;&gt;Node28</title>
<path fill="none" stroke="midnightblue" d="M1820.21,-168.45C1817.36,-159.45 1812.93,-144.84 1810,-132 1806.49,-116.64 1803.58,-99 1801.63,-85.98"/>
<polygon fill="midnightblue" stroke="midnightblue" points="1805.07,-85.29 1800.18,-75.89 1798.14,-86.29 1805.07,-85.29"/>
</g>
<!-- Node26&#45;&gt;Node29 -->
<g id="edge33" class="edge">
<title>Node26&#45;&gt;Node29</title>
<path fill="none" stroke="midnightblue" d="M1800.66,-168.44C1777.25,-159.48 1740.26,-145.31 1713.81,-135.18"/>
<polygon fill="midnightblue" stroke="midnightblue" points="1714.83,-131.82 1704.24,-131.52 1712.32,-138.36 1714.83,-131.82"/>
</g>
<!-- Node27&#45;&gt;Node5 -->
<g id="edge28" class="edge">
<title>Node27&#45;&gt;Node5</title>
<path fill="none" stroke="midnightblue" d="M1818.91,-115.11C1793.1,-109.31 1760.64,-97.98 1740,-76 1728.27,-63.5 1723.41,-44.27 1721.4,-29.97"/>
<polygon fill="midnightblue" stroke="midnightblue" points="1724.86,-29.35 1720.33,-19.77 1717.9,-30.09 1724.86,-29.35"/>
</g>
<!-- Node27&#45;&gt;Node24 -->
<g id="edge29" class="edge">
<title>Node27&#45;&gt;Node24</title>
<path fill="none" stroke="midnightblue" d="M1869.44,-112.32C1879.15,-104.26 1893.82,-92.08 1905.5,-82.37"/>
<polygon fill="midnightblue" stroke="midnightblue" points="1907.91,-84.92 1913.37,-75.83 1903.44,-79.53 1907.91,-84.92"/>
</g>
<!-- Node28&#45;&gt;Node5 -->
<g id="edge31" class="edge">
<title>Node28&#45;&gt;Node5</title>
<path fill="none" stroke="midnightblue" d="M1786.31,-56.32C1774.1,-47.98 1755.42,-35.21 1741,-25.35"/>
<polygon fill="midnightblue" stroke="midnightblue" points="1742.89,-22.41 1732.66,-19.65 1738.94,-28.19 1742.89,-22.41"/>
</g>
<!-- Node28&#45;&gt;Node25 -->
<g id="edge32" class="edge">
<title>Node28&#45;&gt;Node25</title>
<path fill="none" stroke="midnightblue" d="M1825.46,-56.44C1853.68,-47.32 1898.54,-32.81 1929.97,-22.65"/>
<polygon fill="midnightblue" stroke="midnightblue" points="1931.22,-25.92 1939.66,-19.52 1929.07,-19.26 1931.22,-25.92"/>
</g>
<!-- Node29&#45;&gt;Node5 -->
<g id="edge34" class="edge">
<title>Node29&#45;&gt;Node5</title>
<path fill="none" stroke="midnightblue" d="M1684.98,-112.37C1691.14,-94.54 1705.39,-53.3 1713.69,-29.27"/>
<polygon fill="midnightblue" stroke="midnightblue" points="1717.07,-30.19 1717.03,-19.59 1710.46,-27.9 1717.07,-30.19"/>
</g>
<!-- Node29&#45;&gt;Node12 -->
<g id="edge35" class="edge">
<title>Node29&#45;&gt;Node12</title>
<path fill="none" stroke="midnightblue" d="M1638.58,-112.44C1584.06,-101.7 1491.67,-83.49 1442,-73.7"/>
<polygon fill="midnightblue" stroke="midnightblue" points="1442.57,-70.25 1432.08,-71.75 1441.21,-77.11 1442.57,-70.25"/>
</g>
<!-- Node29&#45;&gt;Node24 -->
<g id="edge36" class="edge">
<title>Node29&#45;&gt;Node24</title>
<path fill="none" stroke="midnightblue" d="M1720.35,-112.44C1762.47,-103.04 1830.21,-87.93 1875.87,-77.74"/>
<polygon fill="midnightblue" stroke="midnightblue" points="1876.84,-81.11 1885.83,-75.52 1875.31,-74.28 1876.84,-81.11"/>
</g>
<!-- Node30&#45;&gt;Node25 -->
<g id="edge62" class="edge">
<title>Node30&#45;&gt;Node25</title>
<path fill="none" stroke="midnightblue" d="M2387.69,-224.44C2422.02,-216.29 2467.24,-203.07 2478,-188 2483.16,-180.77 2483.28,-175.15 2478,-168 2424.24,-95.28 2156.54,-42.42 2031.08,-21.23"/>
<polygon fill="midnightblue" stroke="midnightblue" points="2031.29,-17.72 2020.85,-19.52 2030.13,-24.62 2031.29,-17.72"/>
</g>
<!-- Node31 -->
<g id="node30" class="node">
<title>Node31</title>
<g id="a_node30"><a xlink:href="color_8h.html" target="_top" xlink:title=" ">
<polygon fill="white" stroke="black" points="2151,-112.5 2151,-131.5 2239,-131.5 2239,-112.5 2151,-112.5"/>
<text text-anchor="middle" x="2195" y="-119.5" font-family="FreeSans" font-size="10.00">magick/color.h</text>
</a>
</g>
</g>
<!-- Node30&#45;&gt;Node31 -->
<g id="edge38" class="edge">
<title>Node30&#45;&gt;Node31</title>
<path fill="none" stroke="midnightblue" d="M2299.29,-227.9C2270.94,-222.46 2236.27,-211.22 2214,-188 2202.19,-175.68 2197.66,-156.43 2195.96,-142.07"/>
<polygon fill="midnightblue" stroke="midnightblue" points="2199.42,-141.51 2195.11,-131.83 2192.45,-142.08 2199.42,-141.51"/>
</g>
<!-- Node32 -->
<g id="node31" class="node">
<title>Node32</title>
<g id="a_node31"><a xlink:href="pixel_8h.html" target="_top" xlink:title=" ">
<polygon fill="white" stroke="red" points="2571,-56.5 2571,-75.5 2659,-75.5 2659,-56.5 2571,-56.5"/>
<text text-anchor="middle" x="2615" y="-63.5" font-family="FreeSans" font-size="10.00">magick/pixel.h</text>
</a>
</g>
</g>
<!-- Node30&#45;&gt;Node32 -->
<g id="edge54" class="edge">
<title>Node30&#45;&gt;Node32</title>
<path fill="none" stroke="midnightblue" d="M2394.53,-225.07C2397.73,-224.67 2400.91,-224.31 2404,-224 2452.53,-219.19 3247.23,-223.18 3281,-188 3368.17,-97.18 2842.96,-73.62 2669.32,-68.36"/>
<polygon fill="midnightblue" stroke="midnightblue" points="2669.23,-64.85 2659.13,-68.06 2669.02,-71.85 2669.23,-64.85"/>
</g>
<!-- Node33 -->
<g id="node32" class="node">
<title>Node33</title>
<g id="a_node32"><a xlink:href="colorspace_8h.html" target="_top" xlink:title=" ">
<polygon fill="white" stroke="black" points="2516.5,-0.5 2516.5,-19.5 2633.5,-19.5 2633.5,-0.5 2516.5,-0.5"/>
<text text-anchor="middle" x="2575" y="-7.5" font-family="FreeSans" font-size="10.00">magick/colorspace.h</text>
</a>
</g>
</g>
<!-- Node30&#45;&gt;Node33 -->
<g id="edge44" class="edge">
<title>Node30&#45;&gt;Node33</title>
<path fill="none" stroke="midnightblue" d="M2394.78,-224.92C2436.89,-216.92 2494.08,-203.63 2511,-188 2523.14,-176.78 2556.09,-72.68 2569.35,-29.56"/>
<polygon fill="midnightblue" stroke="midnightblue" points="2572.76,-30.38 2572.34,-19.79 2566.07,-28.33 2572.76,-30.38"/>
</g>
<!-- Node35 -->
<g id="node33" class="node">
<title>Node35</title>
<g id="a_node33"><a xlink:href="blob_8h.html" target="_top" xlink:title=" ">
<polygon fill="white" stroke="red" points="2081,-168.5 2081,-187.5 2167,-187.5 2167,-168.5 2081,-168.5"/>
<text text-anchor="middle" x="2124" y="-175.5" font-family="FreeSans" font-size="10.00">magick/blob.h</text>
</a>
</g>
</g>
<!-- Node30&#45;&gt;Node35 -->
<g id="edge42" class="edge">
<title>Node30&#45;&gt;Node35</title>
<path fill="none" stroke="midnightblue" d="M2306.58,-224.44C2266.04,-215.12 2204.19,-200.18 2163.85,-190"/>
<polygon fill="midnightblue" stroke="midnightblue" points="2164.64,-186.59 2154.09,-187.52 2162.92,-193.37 2164.64,-186.59"/>
</g>
<!-- Node37 -->
<g id="node34" class="node">
<title>Node37</title>
<g id="a_node34"><a xlink:href="cache-view_8h.html" target="_top" xlink:title=" ">
<polygon fill="white" stroke="black" points="2563.5,-112.5 2563.5,-131.5 2682.5,-131.5 2682.5,-112.5 2563.5,-112.5"/>
<text text-anchor="middle" x="2623" y="-119.5" font-family="FreeSans" font-size="10.00">magick/cache&#45;view.h</text>
</a>
</g>
</g>
<!-- Node30&#45;&gt;Node37 -->
<g id="edge45" class="edge">
<title>Node30&#45;&gt;Node37</title>
<path fill="none" stroke="midnightblue" d="M2394.53,-225.08C2397.73,-224.67 2400.91,-224.31 2404,-224 2451.64,-219.26 3231.86,-222.55 3265,-188 3271.15,-181.58 3271.06,-174.5 3265,-168 3226.63,-126.84 2851.09,-122.59 2692.8,-122.65"/>
<polygon fill="midnightblue" stroke="midnightblue" points="2692.69,-119.15 2682.69,-122.66 2692.69,-126.15 2692.69,-119.15"/>
</g>
<!-- Node38 -->
<g id="node35" class="node">
<title>Node38</title>
<g id="a_node35"><a xlink:href="composite_8h.html" target="_top" xlink:title=" ">
<polygon fill="white" stroke="black" points="2223,-168.5 2223,-187.5 2339,-187.5 2339,-168.5 2223,-168.5"/>
<text text-anchor="middle" x="2281" y="-175.5" font-family="FreeSans" font-size="10.00">magick/composite.h</text>
</a>
</g>
</g>
<!-- Node30&#45;&gt;Node38 -->
<g id="edge47" class="edge">
<title>Node30&#45;&gt;Node38</title>
<path fill="none" stroke="midnightblue" d="M2336.4,-224.32C2326.54,-216.26 2311.65,-204.08 2299.78,-194.37"/>
<polygon fill="midnightblue" stroke="midnightblue" points="2301.75,-191.46 2291.8,-187.83 2297.32,-196.88 2301.75,-191.46"/>
</g>
<!-- Node39 -->
<g id="node36" class="node">
<title>Node39</title>
<g id="a_node36"><a xlink:href="compress_8h.html" target="_top" xlink:title=" ">
<polygon fill="white" stroke="black" points="2357,-168.5 2357,-187.5 2469,-187.5 2469,-168.5 2357,-168.5"/>
<text text-anchor="middle" x="2413" y="-175.5" font-family="FreeSans" font-size="10.00">magick/compress.h</text>
</a>
</g>
</g>
<!-- Node30&#45;&gt;Node39 -->
<g id="edge48" class="edge">
<title>Node30&#45;&gt;Node39</title>
<path fill="none" stroke="midnightblue" d="M2357.6,-224.32C2367.46,-216.26 2382.35,-204.08 2394.22,-194.37"/>
<polygon fill="midnightblue" stroke="midnightblue" points="2396.68,-196.88 2402.2,-187.83 2392.25,-191.46 2396.68,-196.88"/>
</g>
<!-- Node40 -->
<g id="node37" class="node">
<title>Node40</title>
<g id="a_node37"><a xlink:href="effect_8h.html" target="_top" xlink:title=" ">
<polygon fill="white" stroke="red" points="2691,-168.5 2691,-187.5 2783,-187.5 2783,-168.5 2691,-168.5"/>
<text text-anchor="middle" x="2737" y="-175.5" font-family="FreeSans" font-size="10.00">magick/effect.h</text>
</a>
</g>
</g>
<!-- Node30&#45;&gt;Node40 -->
<g id="edge49" class="edge">
<title>Node30&#45;&gt;Node40</title>
<path fill="none" stroke="midnightblue" d="M2394.57,-225.39C2397.76,-224.91 2400.93,-224.44 2404,-224 2524.07,-206.75 2557.01,-206.09 2680.56,-188.17"/>
<polygon fill="midnightblue" stroke="midnightblue" points="2681.41,-191.58 2690.8,-186.67 2680.4,-184.65 2681.41,-191.58"/>
</g>
<!-- Node42 -->
<g id="node38" class="node">
<title>Node42</title>
<g id="a_node38"><a xlink:href="geometry_8h.html" target="_top" xlink:title=" ">
<polygon fill="white" stroke="black" points="2801,-168.5 2801,-187.5 2911,-187.5 2911,-168.5 2801,-168.5"/>
<text text-anchor="middle" x="2856" y="-175.5" font-family="FreeSans" font-size="10.00">magick/geometry.h</text>
</a>
</g>
</g>
<!-- Node30&#45;&gt;Node42 -->
<g id="edge50" class="edge">
<title>Node30&#45;&gt;Node42</title>
<path fill="none" stroke="midnightblue" d="M2394.55,-225.26C2397.75,-224.81 2400.92,-224.39 2404,-224 2572.57,-202.89 2618.25,-207.86 2790.68,-188.1"/>
<polygon fill="midnightblue" stroke="midnightblue" points="2791.33,-191.55 2800.86,-186.92 2790.53,-184.6 2791.33,-191.55"/>
</g>
<!-- Node43 -->
<g id="node39" class="node">
<title>Node43</title>
<g id="a_node39"><a xlink:href="layer_8h.html" target="_top" xlink:title=" ">
<polygon fill="white" stroke="black" points="2929.5,-168.5 2929.5,-187.5 3018.5,-187.5 3018.5,-168.5 2929.5,-168.5"/>
<text text-anchor="middle" x="2974" y="-175.5" font-family="FreeSans" font-size="10.00">magick/layer.h</text>
</a>
</g>
</g>
<!-- Node30&#45;&gt;Node43 -->
<g id="edge51" class="edge">
<title>Node30&#45;&gt;Node43</title>
<path fill="none" stroke="midnightblue" d="M2394.54,-225.18C2397.74,-224.75 2400.91,-224.35 2404,-224 2629.19,-198.42 2689.98,-214.46 2919.27,-187.96"/>
<polygon fill="midnightblue" stroke="midnightblue" points="2919.73,-191.43 2929.26,-186.8 2918.92,-184.48 2919.73,-191.43"/>
</g>
<!-- Node44 -->
<g id="node40" class="node">
<title>Node44</title>
<g id="a_node40"><a xlink:href="locale___8h.html" target="_top" xlink:title=" ">
<polygon fill="white" stroke="red" points="3036.5,-168.5 3036.5,-187.5 3135.5,-187.5 3135.5,-168.5 3036.5,-168.5"/>
<text text-anchor="middle" x="3086" y="-175.5" font-family="FreeSans" font-size="10.00">magick/locale_.h</text>
</a>
</g>
</g>
<!-- Node30&#45;&gt;Node44 -->
<g id="edge52" class="edge">
<title>Node30&#45;&gt;Node44</title>
<path fill="none" stroke="midnightblue" d="M2394.54,-225.13C2397.74,-224.72 2400.91,-224.33 2404,-224 2676.83,-194.66 2749.98,-216.78 3026.04,-188.11"/>
<polygon fill="midnightblue" stroke="midnightblue" points="3026.79,-191.55 3036.37,-187.02 3026.06,-184.59 3026.79,-191.55"/>
</g>
<!-- Node46 -->
<g id="node41" class="node">
<title>Node46</title>
<g id="a_node41"><a xlink:href="monitor_8h.html" target="_top" xlink:title=" ">
<polygon fill="white" stroke="black" points="3154,-168.5 3154,-187.5 3256,-187.5 3256,-168.5 3154,-168.5"/>
<text text-anchor="middle" x="3205" y="-175.5" font-family="FreeSans" font-size="10.00">magick/monitor.h</text>
</a>
</g>
</g>
<!-- Node30&#45;&gt;Node46 -->
<g id="edge53" class="edge">
<title>Node30&#45;&gt;Node46</title>
<path fill="none" stroke="midnightblue" d="M2394.54,-225.1C2397.73,-224.69 2400.91,-224.32 2404,-224 2728.63,-190.58 2815.12,-219.88 3143.69,-188.02"/>
<polygon fill="midnightblue" stroke="midnightblue" points="3144.37,-191.47 3153.98,-187.01 3143.69,-184.5 3144.37,-191.47"/>
</g>
<!-- Node47 -->
<g id="node42" class="node">
<title>Node47</title>
<g id="a_node42"><a xlink:href="profile_8h.html" target="_top" xlink:title=" ">
<polygon fill="white" stroke="black" points="1634.5,-168.5 1634.5,-187.5 1729.5,-187.5 1729.5,-168.5 1634.5,-168.5"/>
<text text-anchor="middle" x="1682" y="-175.5" font-family="FreeSans" font-size="10.00">magick/profile.h</text>
</a>
</g>
</g>
<!-- Node30&#45;&gt;Node47 -->
<g id="edge55" class="edge">
<title>Node30&#45;&gt;Node47</title>
<path fill="none" stroke="midnightblue" d="M2299.18,-230.81C2198.02,-225.88 1954.68,-212.49 1739.76,-187.98"/>
<polygon fill="midnightblue" stroke="midnightblue" points="1739.88,-184.48 1729.55,-186.81 1739.08,-191.43 1739.88,-184.48"/>
</g>
<!-- Node48 -->
<g id="node43" class="node">
<title>Node48</title>
<g id="a_node43"><a xlink:href="quantum_8h.html" target="_top" xlink:title=" ">
<polygon fill="white" stroke="red" points="1955,-168.5 1955,-187.5 2063,-187.5 2063,-168.5 1955,-168.5"/>
<text text-anchor="middle" x="2009" y="-175.5" font-family="FreeSans" font-size="10.00">magick/quantum.h</text>
</a>
</g>
</g>
<!-- Node30&#45;&gt;Node48 -->
<g id="edge57" class="edge">
<title>Node30&#45;&gt;Node48</title>
<path fill="none" stroke="midnightblue" d="M2299.16,-226.11C2238.23,-216.77 2133.2,-200.03 2067.56,-189.22"/>
<polygon fill="midnightblue" stroke="midnightblue" points="2067.82,-185.72 2057.38,-187.54 2066.68,-192.62 2067.82,-185.72"/>
</g>
<!-- Node50 -->
<g id="node44" class="node">
<title>Node50</title>
<g id="a_node44"><a xlink:href="resample_8h.html" target="_top" xlink:title=" ">
<polygon fill="white" stroke="black" points="2563,-168.5 2563,-187.5 2673,-187.5 2673,-168.5 2563,-168.5"/>
<text text-anchor="middle" x="2618" y="-175.5" font-family="FreeSans" font-size="10.00">magick/resample.h</text>
</a>
</g>
</g>
<!-- Node30&#45;&gt;Node50 -->
<g id="edge60" class="edge">
<title>Node30&#45;&gt;Node50</title>
<path fill="none" stroke="midnightblue" d="M2389.94,-224.44C2437.51,-214.96 2514.24,-199.67 2565.39,-189.48"/>
<polygon fill="midnightblue" stroke="midnightblue" points="2566.14,-192.9 2575.26,-187.52 2564.77,-186.04 2566.14,-192.9"/>
</g>
<!-- Node31&#45;&gt;Node24 -->
<g id="edge41" class="edge">
<title>Node31&#45;&gt;Node24</title>
<path fill="none" stroke="midnightblue" d="M2152.06,-112.44C2104.49,-102.96 2027.76,-87.67 1976.61,-77.48"/>
<polygon fill="midnightblue" stroke="midnightblue" points="1977.23,-74.04 1966.74,-75.52 1975.86,-80.9 1977.23,-74.04"/>
</g>
<!-- Node31&#45;&gt;Node32 -->
<g id="edge39" class="edge">
<title>Node31&#45;&gt;Node32</title>
<path fill="none" stroke="midnightblue" d="M2239.15,-115.32C2316.59,-105.37 2476.62,-84.79 2560.7,-73.98"/>
<polygon fill="midnightblue" stroke="midnightblue" points="2561.34,-77.43 2570.81,-72.68 2560.44,-70.49 2561.34,-77.43"/>
</g>
<!-- Node32&#45;&gt;Node33 -->
<g id="edge40" class="edge">
<title>Node32&#45;&gt;Node33</title>
<path fill="none" stroke="midnightblue" d="M2608.39,-56.08C2602.74,-48.46 2594.46,-37.26 2587.55,-27.94"/>
<polygon fill="midnightblue" stroke="midnightblue" points="2590.25,-25.7 2581.48,-19.75 2584.62,-29.87 2590.25,-25.7"/>
</g>
<!-- Node35&#45;&gt;Node30 -->
<g id="edge43" class="edge">
<title>Node35&#45;&gt;Node30</title>
<path fill="none" stroke="midnightblue" d="M2164.25,-187.52C2204.73,-196.82 2266.58,-211.76 2306.97,-221.96"/>
<polygon fill="midnightblue" stroke="midnightblue" points="2306.2,-225.37 2316.75,-224.44 2307.92,-218.59 2306.2,-225.37"/>
</g>
<!-- Node37&#45;&gt;Node32 -->
<g id="edge46" class="edge">
<title>Node37&#45;&gt;Node32</title>
<path fill="none" stroke="midnightblue" d="M2621.68,-112.08C2620.62,-104.93 2619.09,-94.64 2617.77,-85.69"/>
<polygon fill="midnightblue" stroke="midnightblue" points="2621.22,-85.13 2616.3,-75.75 2614.3,-86.16 2621.22,-85.13"/>
</g>
<!-- Node47&#45;&gt;Node29 -->
<g id="edge56" class="edge">
<title>Node47&#45;&gt;Node29</title>
<path fill="none" stroke="midnightblue" d="M1682,-168.08C1682,-161.01 1682,-150.86 1682,-141.99"/>
<polygon fill="midnightblue" stroke="midnightblue" points="1685.5,-141.75 1682,-131.75 1678.5,-141.75 1685.5,-141.75"/>
</g>
<!-- Node48&#45;&gt;Node25 -->
<g id="edge59" class="edge">
<title>Node48&#45;&gt;Node25</title>
<path fill="none" stroke="midnightblue" d="M2008.62,-168.26C2007.54,-148.01 2003.56,-96.53 1990,-56 1986.77,-46.34 1981.6,-36.28 1976.88,-28.13"/>
<polygon fill="midnightblue" stroke="midnightblue" points="1979.87,-26.31 1971.7,-19.57 1973.89,-29.94 1979.87,-26.31"/>
</g>
<!-- Node48&#45;&gt;Node30 -->
<g id="edge58" class="edge">
<title>Node48&#45;&gt;Node30</title>
<path fill="none" stroke="midnightblue" d="M2063.08,-186.85C2124.91,-196.37 2225.6,-212.43 2289.02,-222.87"/>
<polygon fill="midnightblue" stroke="midnightblue" points="2288.81,-226.39 2299.25,-224.56 2289.95,-219.48 2288.81,-226.39"/>
</g>
<!-- Node50&#45;&gt;Node37 -->
<g id="edge61" class="edge">
<title>Node50&#45;&gt;Node37</title>
<path fill="none" stroke="midnightblue" d="M2618.83,-168.08C2619.48,-161.01 2620.42,-150.86 2621.24,-141.99"/>
<polygon fill="midnightblue" stroke="midnightblue" points="2624.75,-142.03 2622.19,-131.75 2617.78,-141.39 2624.75,-142.03"/>
</g>
<!-- Node54&#45;&gt;Node9 -->
<g id="edge65" class="edge">
<title>Node54&#45;&gt;Node9</title>
<path fill="none" stroke="midnightblue" d="M1526.95,-224.08C1531.1,-216.61 1537.15,-205.72 1542.27,-196.52"/>
<polygon fill="midnightblue" stroke="midnightblue" points="1545.34,-198.19 1547.14,-187.75 1539.22,-194.79 1545.34,-198.19"/>
</g>
<!-- Node54&#45;&gt;Node15 -->
<g id="edge66" class="edge">
<title>Node54&#45;&gt;Node15</title>
<path fill="none" stroke="midnightblue" d="M1515.06,-224.08C1509.07,-216.38 1500.25,-205.03 1492.95,-195.65"/>
<polygon fill="midnightblue" stroke="midnightblue" points="1495.71,-193.5 1486.81,-187.75 1490.18,-197.79 1495.71,-193.5"/>
</g>
<!-- Node55&#45;&gt;Node3 -->
<g id="edge68" class="edge">
<title>Node55&#45;&gt;Node3</title>
<path fill="none" stroke="midnightblue" d="M274.94,-232.32C197.29,-229.87 81.04,-220.66 53,-188 41.76,-174.91 48.42,-154.94 55.91,-140.59"/>
<polygon fill="midnightblue" stroke="midnightblue" points="59.07,-142.12 61.02,-131.71 53,-138.63 59.07,-142.12"/>
</g>
</g>
</svg>
