<?xml version="1.0" encoding="UTF-8" standalone="no"?>
<!DOCTYPE svg PUBLIC "-//W3C//DTD SVG 1.1//EN"
 "http://www.w3.org/Graphics/SVG/1.1/DTD/svg11.dtd">
<!-- Generated by graphviz version 2.43.0 (0)
 -->
<!-- Title: resample.c Pages: 1 -->
<svg width="3500pt" height="308pt"
 viewBox="0.00 0.00 3499.50 308.00" xmlns="http://www.w3.org/2000/svg" xmlns:xlink="http://www.w3.org/1999/xlink">
<g id="graph0" class="graph" transform="scale(1 1) rotate(0) translate(4 304)">
<title>resample.c</title>
<polygon fill="white" stroke="transparent" points="-4,4 -4,-304 3495.5,-304 3495.5,4 -4,4"/>
<!-- Node1 -->
<g id="node1" class="node">
<title>Node1</title>
<g id="a_node1"><a xlink:title=" ">
<polygon fill="#bfbfbf" stroke="black" points="2263.5,-280.5 2263.5,-299.5 2334.5,-299.5 2334.5,-280.5 2263.5,-280.5"/>
<text text-anchor="middle" x="2299" y="-287.5" font-family="FreeSans" font-size="10.00">resample.c</text>
</a>
</g>
</g>
<!-- Node2 -->
<g id="node2" class="node">
<title>Node2</title>
<g id="a_node2"><a xlink:href="studio_8h.html" target="_top" xlink:title=" ">
<polygon fill="white" stroke="black" points="825.5,-112.5 825.5,-131.5 920.5,-131.5 920.5,-112.5 825.5,-112.5"/>
<text text-anchor="middle" x="873" y="-119.5" font-family="FreeSans" font-size="10.00">magick/studio.h</text>
</a>
</g>
</g>
<!-- Node1&#45;&gt;Node2 -->
<g id="edge1" class="edge">
<title>Node1&#45;&gt;Node2</title>
<path fill="none" stroke="midnightblue" d="M2263.46,-288.62C2106.18,-286.74 1471.98,-277.2 1276,-244 1133.85,-219.92 971.34,-161.05 904.36,-135.34"/>
<polygon fill="midnightblue" stroke="midnightblue" points="905.41,-132 894.82,-131.66 902.89,-138.53 905.41,-132"/>
</g>
<!-- Node24 -->
<g id="node23" class="node">
<title>Node24</title>
<g id="a_node23"><a xlink:href="artifact_8h.html" target="_top" xlink:title=" ">
<polygon fill="white" stroke="black" points="2479,-224.5 2479,-243.5 2579,-243.5 2579,-224.5 2479,-224.5"/>
<text text-anchor="middle" x="2529" y="-231.5" font-family="FreeSans" font-size="10.00">magick/artifact.h</text>
</a>
</g>
</g>
<!-- Node1&#45;&gt;Node24 -->
<g id="edge23" class="edge">
<title>Node1&#45;&gt;Node24</title>
<path fill="none" stroke="midnightblue" d="M2334.69,-280.62C2374.49,-271.28 2439,-256.13 2482.67,-245.88"/>
<polygon fill="midnightblue" stroke="midnightblue" points="2483.54,-249.27 2492.47,-243.58 2481.94,-242.45 2483.54,-249.27"/>
</g>
<!-- Node25 -->
<g id="node24" class="node">
<title>Node25</title>
<g id="a_node24"><a xlink:href="color-private_8h.html" target="_top" xlink:title=" ">
<polygon fill="white" stroke="black" points="1759.5,-224.5 1759.5,-243.5 1886.5,-243.5 1886.5,-224.5 1759.5,-224.5"/>
<text text-anchor="middle" x="1823" y="-231.5" font-family="FreeSans" font-size="10.00">magick/color&#45;private.h</text>
</a>
</g>
</g>
<!-- Node1&#45;&gt;Node25 -->
<g id="edge24" class="edge">
<title>Node1&#45;&gt;Node25</title>
<path fill="none" stroke="midnightblue" d="M2263.22,-284.94C2185.59,-276.13 2000.36,-255.12 1896.61,-243.35"/>
<polygon fill="midnightblue" stroke="midnightblue" points="1896.85,-239.86 1886.52,-242.21 1896.06,-246.81 1896.85,-239.86"/>
</g>
<!-- Node26 -->
<g id="node25" class="node">
<title>Node26</title>
<g id="a_node25"><a xlink:href="image_8h.html" target="_top" xlink:title=" ">
<polygon fill="white" stroke="red" points="2025.5,-112.5 2025.5,-131.5 2120.5,-131.5 2120.5,-112.5 2025.5,-112.5"/>
<text text-anchor="middle" x="2073" y="-119.5" font-family="FreeSans" font-size="10.00">magick/image.h</text>
</a>
</g>
</g>
<!-- Node1&#45;&gt;Node26 -->
<g id="edge60" class="edge">
<title>Node1&#45;&gt;Node26</title>
<path fill="none" stroke="midnightblue" d="M2263.25,-287.4C2227.24,-284.05 2171.89,-273.98 2135,-244 2101.99,-217.16 2084.72,-168.13 2077.4,-141.46"/>
<polygon fill="midnightblue" stroke="midnightblue" points="2080.73,-140.35 2074.85,-131.53 2073.95,-142.09 2080.73,-140.35"/>
</g>
<!-- Node28 -->
<g id="node27" class="node">
<title>Node28</title>
<g id="a_node27"><a xlink:href="pixel_8h.html" target="_top" xlink:title=" ">
<polygon fill="white" stroke="red" points="1788,-0.5 1788,-19.5 1876,-19.5 1876,-0.5 1788,-0.5"/>
<text text-anchor="middle" x="1832" y="-7.5" font-family="FreeSans" font-size="10.00">magick/pixel.h</text>
</a>
</g>
</g>
<!-- Node1&#45;&gt;Node28 -->
<g id="edge67" class="edge">
<title>Node1&#45;&gt;Node28</title>
<path fill="none" stroke="midnightblue" d="M2317.23,-280.35C2380.37,-249.32 2581.52,-141.04 2502,-56 2481.07,-33.62 2042.42,-17.64 1886.45,-12.65"/>
<polygon fill="midnightblue" stroke="midnightblue" points="1886.26,-9.14 1876.15,-12.32 1886.03,-16.14 1886.26,-9.14"/>
</g>
<!-- Node47 -->
<g id="node29" class="node">
<title>Node47</title>
<g id="a_node29"><a xlink:href="quantum_8h.html" target="_top" xlink:title=" ">
<polygon fill="white" stroke="red" points="2145,-56.5 2145,-75.5 2253,-75.5 2253,-56.5 2145,-56.5"/>
<text text-anchor="middle" x="2199" y="-63.5" font-family="FreeSans" font-size="10.00">magick/quantum.h</text>
</a>
</g>
</g>
<!-- Node1&#45;&gt;Node47 -->
<g id="edge74" class="edge">
<title>Node1&#45;&gt;Node47</title>
<path fill="none" stroke="midnightblue" d="M2299.03,-280.37C2298.8,-259.93 2296.41,-207.33 2279,-168 2263.86,-133.82 2234.4,-101.22 2215.76,-82.71"/>
<polygon fill="midnightblue" stroke="midnightblue" points="2218.12,-80.12 2208.51,-75.67 2213.25,-85.15 2218.12,-80.12"/>
</g>
<!-- Node49 -->
<g id="node30" class="node">
<title>Node49</title>
<g id="a_node30"><a xlink:href="resample_8h.html" target="_top" xlink:title=" ">
<polygon fill="white" stroke="red" points="2271,-56.5 2271,-75.5 2381,-75.5 2381,-56.5 2271,-56.5"/>
<text text-anchor="middle" x="2326" y="-63.5" font-family="FreeSans" font-size="10.00">magick/resample.h</text>
</a>
</g>
</g>
<!-- Node1&#45;&gt;Node49 -->
<g id="edge76" class="edge">
<title>Node1&#45;&gt;Node49</title>
<path fill="none" stroke="midnightblue" d="M2302.4,-280.19C2305.7,-271.22 2310.56,-256.86 2313,-244 2323.79,-187.11 2325.74,-118.37 2326.02,-85.83"/>
<polygon fill="midnightblue" stroke="midnightblue" points="2329.52,-85.58 2326.06,-75.56 2322.52,-85.55 2329.52,-85.58"/>
</g>
<!-- Node50 -->
<g id="node31" class="node">
<title>Node50</title>
<g id="a_node31"><a xlink:href="resize_8h.html" target="_top" xlink:title=" ">
<polygon fill="white" stroke="black" points="2399,-56.5 2399,-75.5 2493,-75.5 2493,-56.5 2399,-56.5"/>
<text text-anchor="middle" x="2446" y="-63.5" font-family="FreeSans" font-size="10.00">magick/resize.h</text>
</a>
</g>
</g>
<!-- Node1&#45;&gt;Node50 -->
<g id="edge77" class="edge">
<title>Node1&#45;&gt;Node50</title>
<path fill="none" stroke="midnightblue" d="M2304.76,-280.38C2310.81,-271.33 2320.59,-256.67 2329,-244 2367.77,-185.59 2413.56,-116.21 2434.5,-84.44"/>
<polygon fill="midnightblue" stroke="midnightblue" points="2437.59,-86.12 2440.17,-75.85 2431.74,-82.27 2437.59,-86.12"/>
</g>
<!-- Node52 -->
<g id="node32" class="node">
<title>Node52</title>
<g id="a_node32"><a xlink:href="image-private_8h.html" target="_top" xlink:title=" ">
<polygon fill="white" stroke="black" points="1548,-112.5 1548,-131.5 1682,-131.5 1682,-112.5 1548,-112.5"/>
<text text-anchor="middle" x="1615" y="-119.5" font-family="FreeSans" font-size="10.00">magick/image&#45;private.h</text>
</a>
</g>
</g>
<!-- Node1&#45;&gt;Node52 -->
<g id="edge61" class="edge">
<title>Node1&#45;&gt;Node52</title>
<path fill="none" stroke="midnightblue" d="M2263.41,-289.38C2168.68,-289.76 1902.83,-286.61 1687,-244 1608.54,-228.51 1562.93,-252.75 1516,-188 1497.99,-163.15 1534.64,-145.18 1568.33,-134.52"/>
<polygon fill="midnightblue" stroke="midnightblue" points="1569.59,-137.79 1578.17,-131.57 1567.58,-131.09 1569.59,-137.79"/>
</g>
<!-- Node55 -->
<g id="node35" class="node">
<title>Node55</title>
<g id="a_node35"><a xlink:href="gem_8h.html" target="_top" xlink:title=" ">
<polygon fill="white" stroke="red" points="1937,-56.5 1937,-75.5 2023,-75.5 2023,-56.5 1937,-56.5"/>
<text text-anchor="middle" x="1980" y="-63.5" font-family="FreeSans" font-size="10.00">magick/gem.h</text>
</a>
</g>
</g>
<!-- Node1&#45;&gt;Node55 -->
<g id="edge59" class="edge">
<title>Node1&#45;&gt;Node55</title>
<path fill="none" stroke="midnightblue" d="M2283.91,-280.44C2257.58,-264.89 2202.72,-229.72 2168,-188 2143.71,-158.82 2158.16,-136.31 2129,-112 2113.92,-99.43 2067.94,-86.62 2031,-77.91"/>
<polygon fill="midnightblue" stroke="midnightblue" points="2031.39,-74.4 2020.86,-75.56 2029.81,-81.22 2031.39,-74.4"/>
</g>
<!-- Node56 -->
<g id="node36" class="node">
<title>Node56</title>
<g id="a_node36"><a xlink:href="random___8h.html" target="_top" xlink:title=" ">
<polygon fill="white" stroke="red" points="2215.5,-0.5 2215.5,-19.5 2322.5,-19.5 2322.5,-0.5 2215.5,-0.5"/>
<text text-anchor="middle" x="2269" y="-7.5" font-family="FreeSans" font-size="10.00">magick/random_.h</text>
</a>
</g>
</g>
<!-- Node1&#45;&gt;Node56 -->
<g id="edge75" class="edge">
<title>Node1&#45;&gt;Node56</title>
<path fill="none" stroke="midnightblue" d="M2334.57,-282.93C2362.06,-276.82 2399.88,-265.15 2427,-244 2502.98,-184.73 2597.2,-129.6 2535,-56 2509.61,-25.95 2403,-15.96 2332.7,-12.64"/>
<polygon fill="midnightblue" stroke="midnightblue" points="2332.75,-9.14 2322.6,-12.2 2332.44,-16.14 2332.75,-9.14"/>
</g>
<!-- Node60 -->
<g id="node37" class="node">
<title>Node60</title>
<g id="a_node37"><a xlink:href="exception-private_8h.html" target="_top" xlink:title=" ">
<polygon fill="white" stroke="red" points="1279.5,-168.5 1279.5,-187.5 1430.5,-187.5 1430.5,-168.5 1279.5,-168.5"/>
<text text-anchor="middle" x="1355" y="-175.5" font-family="FreeSans" font-size="10.00">magick/exception&#45;private.h</text>
</a>
</g>
</g>
<!-- Node1&#45;&gt;Node60 -->
<g id="edge58" class="edge">
<title>Node1&#45;&gt;Node60</title>
<path fill="none" stroke="midnightblue" d="M2263.47,-288.31C2111.82,-285.21 1522.97,-271.5 1445,-244 1415.63,-233.64 1387.49,-210.47 1370.72,-194.78"/>
<polygon fill="midnightblue" stroke="midnightblue" points="1373.07,-192.19 1363.44,-187.77 1368.21,-197.23 1373.07,-192.19"/>
</g>
<!-- Node61 -->
<g id="node38" class="node">
<title>Node61</title>
<g id="a_node38"><a xlink:href="log_8h.html" target="_top" xlink:title=" ">
<polygon fill="white" stroke="red" points="1282,-112.5 1282,-131.5 1362,-131.5 1362,-112.5 1282,-112.5"/>
<text text-anchor="middle" x="1322" y="-119.5" font-family="FreeSans" font-size="10.00">magick/log.h</text>
</a>
</g>
</g>
<!-- Node1&#45;&gt;Node61 -->
<g id="edge62" class="edge">
<title>Node1&#45;&gt;Node61</title>
<path fill="none" stroke="midnightblue" d="M2263.28,-288.84C2118.08,-287.95 1571.85,-282.07 1404,-244 1341.05,-229.72 1305.78,-241.73 1270,-188 1257.76,-169.62 1278.66,-150.02 1297.5,-137.21"/>
<polygon fill="midnightblue" stroke="midnightblue" points="1299.62,-140.01 1306.15,-131.67 1295.84,-134.11 1299.62,-140.01"/>
</g>
<!-- Node62 -->
<g id="node39" class="node">
<title>Node62</title>
<g id="a_node39"><a xlink:href="magick_8h.html" target="_top" xlink:title=" ">
<polygon fill="white" stroke="red" points="1162.5,-112.5 1162.5,-131.5 1263.5,-131.5 1263.5,-112.5 1162.5,-112.5"/>
<text text-anchor="middle" x="1213" y="-119.5" font-family="FreeSans" font-size="10.00">magick/magick.h</text>
</a>
</g>
</g>
<!-- Node1&#45;&gt;Node62 -->
<g id="edge63" class="edge">
<title>Node1&#45;&gt;Node62</title>
<path fill="none" stroke="midnightblue" d="M2263.47,-289.15C2096.26,-289.63 1392.23,-288.93 1306,-244 1262.87,-221.53 1233.78,-169.08 1220.77,-141.19"/>
<polygon fill="midnightblue" stroke="midnightblue" points="1223.85,-139.51 1216.57,-131.82 1217.46,-142.37 1223.85,-139.51"/>
</g>
<!-- Node63 -->
<g id="node40" class="node">
<title>Node63</title>
<g id="a_node40"><a xlink:href="cache_8h.html" target="_top" xlink:title=" ">
<polygon fill="white" stroke="black" points="2177.5,-168.5 2177.5,-187.5 2270.5,-187.5 2270.5,-168.5 2177.5,-168.5"/>
<text text-anchor="middle" x="2224" y="-175.5" font-family="FreeSans" font-size="10.00">magick/cache.h</text>
</a>
</g>
</g>
<!-- Node1&#45;&gt;Node63 -->
<g id="edge52" class="edge">
<title>Node1&#45;&gt;Node63</title>
<path fill="none" stroke="midnightblue" d="M2293.11,-280.37C2280.74,-262.22 2251.82,-219.8 2235.58,-195.99"/>
<polygon fill="midnightblue" stroke="midnightblue" points="2238.38,-193.88 2229.86,-187.59 2232.6,-197.83 2238.38,-193.88"/>
</g>
<!-- Node58 -->
<g id="node41" class="node">
<title>Node58</title>
<g id="a_node41"><a xlink:href="draw_8h.html" target="_top" xlink:title=" ">
<polygon fill="white" stroke="red" points="1957,-168.5 1957,-187.5 2045,-187.5 2045,-168.5 1957,-168.5"/>
<text text-anchor="middle" x="2001" y="-175.5" font-family="FreeSans" font-size="10.00">magick/draw.h</text>
</a>
</g>
</g>
<!-- Node1&#45;&gt;Node58 -->
<g id="edge54" class="edge">
<title>Node1&#45;&gt;Node58</title>
<path fill="none" stroke="midnightblue" d="M2263.45,-285.18C2222.1,-279.81 2152.43,-267.9 2097,-244 2067.46,-231.26 2037.38,-209.09 2018.95,-194.23"/>
<polygon fill="midnightblue" stroke="midnightblue" points="2020.84,-191.25 2010.9,-187.6 2016.39,-196.65 2020.84,-191.25"/>
</g>
<!-- Node64 -->
<g id="node42" class="node">
<title>Node64</title>
<g id="a_node42"><a xlink:href="memory___8h.html" target="_top" xlink:title=" ">
<polygon fill="white" stroke="black" points="1380.5,-112.5 1380.5,-131.5 1491.5,-131.5 1491.5,-112.5 1380.5,-112.5"/>
<text text-anchor="middle" x="1436" y="-119.5" font-family="FreeSans" font-size="10.00">magick/memory_.h</text>
</a>
</g>
</g>
<!-- Node1&#45;&gt;Node64 -->
<g id="edge64" class="edge">
<title>Node1&#45;&gt;Node64</title>
<path fill="none" stroke="midnightblue" d="M2263.22,-288.36C2123.32,-285.65 1617.9,-273.86 1553,-244 1503.84,-221.38 1464.59,-168.18 1446.63,-140.47"/>
<polygon fill="midnightblue" stroke="midnightblue" points="1449.47,-138.42 1441.18,-131.82 1443.55,-142.15 1449.47,-138.42"/>
</g>
<!-- Node65 -->
<g id="node43" class="node">
<title>Node65</title>
<g id="a_node43"><a xlink:href="pixel-private_8h.html" target="_top" xlink:title=" ">
<polygon fill="white" stroke="red" points="1525,-168.5 1525,-187.5 1651,-187.5 1651,-168.5 1525,-168.5"/>
<text text-anchor="middle" x="1588" y="-175.5" font-family="FreeSans" font-size="10.00">magick/pixel&#45;private.h</text>
</a>
</g>
</g>
<!-- Node1&#45;&gt;Node65 -->
<g id="edge68" class="edge">
<title>Node1&#45;&gt;Node65</title>
<path fill="none" stroke="midnightblue" d="M2263.43,-289.73C2175.18,-290.77 1939.64,-288.74 1750,-244 1699.96,-232.2 1645.11,-207.49 1613.79,-192.17"/>
<polygon fill="midnightblue" stroke="midnightblue" points="1614.99,-188.86 1604.48,-187.55 1611.88,-195.13 1614.99,-188.86"/>
</g>
<!-- Node67 -->
<g id="node44" class="node">
<title>Node67</title>
<g id="a_node44"><a xlink:href="resize-private_8h.html" target="_top" xlink:title=" ">
<polygon fill="white" stroke="black" points="2597,-224.5 2597,-243.5 2729,-243.5 2729,-224.5 2597,-224.5"/>
<text text-anchor="middle" x="2663" y="-231.5" font-family="FreeSans" font-size="10.00">magick/resize&#45;private.h</text>
</a>
</g>
</g>
<!-- Node1&#45;&gt;Node67 -->
<g id="edge78" class="edge">
<title>Node1&#45;&gt;Node67</title>
<path fill="none" stroke="midnightblue" d="M2334.56,-283.72C2394.91,-274.77 2518.32,-256.46 2595.49,-245.01"/>
<polygon fill="midnightblue" stroke="midnightblue" points="2596.22,-248.45 2605.6,-243.52 2595.19,-241.52 2596.22,-248.45"/>
</g>
<!-- Node68 -->
<g id="node45" class="node">
<title>Node68</title>
<g id="a_node45"><a xlink:href="resource___8h.html" target="_top" xlink:title=" ">
<polygon fill="white" stroke="black" points="2747,-224.5 2747,-243.5 2859,-243.5 2859,-224.5 2747,-224.5"/>
<text text-anchor="middle" x="2803" y="-231.5" font-family="FreeSans" font-size="10.00">magick/resource_.h</text>
</a>
</g>
</g>
<!-- Node1&#45;&gt;Node68 -->
<g id="edge79" class="edge">
<title>Node1&#45;&gt;Node68</title>
<path fill="none" stroke="midnightblue" d="M2334.61,-285.78C2407.81,-279.07 2580.7,-262.75 2736.74,-244.11"/>
<polygon fill="midnightblue" stroke="midnightblue" points="2737.48,-247.55 2747,-242.88 2736.65,-240.6 2737.48,-247.55"/>
</g>
<!-- Node69 -->
<g id="node46" class="node">
<title>Node69</title>
<g id="a_node46"><a xlink:href="transform_8h.html" target="_top" xlink:title=" ">
<polygon fill="white" stroke="black" points="2877.5,-224.5 2877.5,-243.5 2990.5,-243.5 2990.5,-224.5 2877.5,-224.5"/>
<text text-anchor="middle" x="2934" y="-231.5" font-family="FreeSans" font-size="10.00">magick/transform.h</text>
</a>
</g>
</g>
<!-- Node1&#45;&gt;Node69 -->
<g id="edge80" class="edge">
<title>Node1&#45;&gt;Node69</title>
<path fill="none" stroke="midnightblue" d="M2334.68,-286.88C2422.99,-281.49 2658.99,-266.17 2866.95,-244.05"/>
<polygon fill="midnightblue" stroke="midnightblue" points="2867.57,-247.51 2877.14,-242.96 2866.83,-240.55 2867.57,-247.51"/>
</g>
<!-- Node70 -->
<g id="node47" class="node">
<title>Node70</title>
<g id="a_node47"><a xlink:href="signature-private_8h.html" target="_top" xlink:title=" ">
<polygon fill="white" stroke="red" points="3008.5,-224.5 3008.5,-243.5 3157.5,-243.5 3157.5,-224.5 3008.5,-224.5"/>
<text text-anchor="middle" x="3083" y="-231.5" font-family="FreeSans" font-size="10.00">magick/signature&#45;private.h</text>
</a>
</g>
</g>
<!-- Node1&#45;&gt;Node70 -->
<g id="edge81" class="edge">
<title>Node1&#45;&gt;Node70</title>
<path fill="none" stroke="midnightblue" d="M2334.79,-287.26C2436.75,-282.18 2737.68,-266.37 2998.32,-244.11"/>
<polygon fill="midnightblue" stroke="midnightblue" points="2998.69,-247.59 3008.36,-243.25 2998.1,-240.62 2998.69,-247.59"/>
</g>
<!-- Node71 -->
<g id="node48" class="node">
<title>Node71</title>
<g id="a_node48"><a xlink:href="token_8h.html" target="_top" xlink:title=" ">
<polygon fill="white" stroke="black" points="3176,-224.5 3176,-243.5 3268,-243.5 3268,-224.5 3176,-224.5"/>
<text text-anchor="middle" x="3222" y="-231.5" font-family="FreeSans" font-size="10.00">magick/token.h</text>
</a>
</g>
</g>
<!-- Node1&#45;&gt;Node71 -->
<g id="edge82" class="edge">
<title>Node1&#45;&gt;Node71</title>
<path fill="none" stroke="midnightblue" d="M2334.66,-288.56C2452.05,-286.82 2837.17,-278.73 3165.65,-244.02"/>
<polygon fill="midnightblue" stroke="midnightblue" points="3166.26,-247.47 3175.84,-242.93 3165.52,-240.51 3166.26,-247.47"/>
</g>
<!-- Node72 -->
<g id="node49" class="node">
<title>Node72</title>
<g id="a_node49"><a xlink:href="utility_8h.html" target="_top" xlink:title=" ">
<polygon fill="white" stroke="black" points="3286,-224.5 3286,-243.5 3378,-243.5 3378,-224.5 3286,-224.5"/>
<text text-anchor="middle" x="3332" y="-231.5" font-family="FreeSans" font-size="10.00">magick/utility.h</text>
</a>
</g>
</g>
<!-- Node1&#45;&gt;Node72 -->
<g id="edge83" class="edge">
<title>Node1&#45;&gt;Node72</title>
<path fill="none" stroke="midnightblue" d="M2334.64,-288.85C2461.36,-288.02 2902.1,-282.43 3275.64,-244.01"/>
<polygon fill="midnightblue" stroke="midnightblue" points="3276.25,-247.47 3285.84,-242.95 3275.53,-240.5 3276.25,-247.47"/>
</g>
<!-- Node73 -->
<g id="node50" class="node">
<title>Node73</title>
<g id="a_node50"><a xlink:href="option_8h.html" target="_top" xlink:title=" ">
<polygon fill="white" stroke="black" points="3396.5,-224.5 3396.5,-243.5 3491.5,-243.5 3491.5,-224.5 3396.5,-224.5"/>
<text text-anchor="middle" x="3444" y="-231.5" font-family="FreeSans" font-size="10.00">magick/option.h</text>
</a>
</g>
</g>
<!-- Node1&#45;&gt;Node73 -->
<g id="edge84" class="edge">
<title>Node1&#45;&gt;Node73</title>
<path fill="none" stroke="midnightblue" d="M2334.79,-289.02C2470.58,-288.76 2966.92,-284.97 3386.26,-243.93"/>
<polygon fill="midnightblue" stroke="midnightblue" points="3386.86,-247.39 3396.47,-242.92 3386.17,-240.42 3386.86,-247.39"/>
</g>
<!-- Node3 -->
<g id="node3" class="node">
<title>Node3</title>
<g id="a_node3"><a xlink:href="magick-config_8h.html" target="_top" xlink:title=" ">
<polygon fill="white" stroke="red" points="42,-0.5 42,-19.5 176,-19.5 176,-0.5 42,-0.5"/>
<text text-anchor="middle" x="109" y="-7.5" font-family="FreeSans" font-size="10.00">magick/magick&#45;config.h</text>
</a>
</g>
</g>
<!-- Node2&#45;&gt;Node3 -->
<g id="edge2" class="edge">
<title>Node2&#45;&gt;Node3</title>
<path fill="none" stroke="midnightblue" d="M825.38,-119.9C677.41,-116.21 231.98,-102.95 173,-76 150.36,-65.65 131.4,-43.52 120.13,-27.96"/>
<polygon fill="midnightblue" stroke="midnightblue" points="122.99,-25.93 114.42,-19.7 117.23,-29.92 122.99,-25.93"/>
</g>
<!-- Node5 -->
<g id="node4" class="node">
<title>Node5</title>
<g id="a_node4"><a xlink:title=" ">
<polygon fill="white" stroke="#bfbfbf" points="1315,-56.5 1315,-75.5 1371,-75.5 1371,-56.5 1315,-56.5"/>
<text text-anchor="middle" x="1343" y="-63.5" font-family="FreeSans" font-size="10.00">stdarg.h</text>
</a>
</g>
</g>
<!-- Node2&#45;&gt;Node5 -->
<g id="edge3" class="edge">
<title>Node2&#45;&gt;Node5</title>
<path fill="none" stroke="midnightblue" d="M920.7,-118.16C998.98,-113.03 1159.68,-100.57 1304.82,-75.99"/>
<polygon fill="midnightblue" stroke="midnightblue" points="1305.54,-79.42 1314.8,-74.27 1304.35,-72.52 1305.54,-79.42"/>
</g>
<!-- Node6 -->
<g id="node5" class="node">
<title>Node6</title>
<g id="a_node5"><a xlink:title=" ">
<polygon fill="white" stroke="#bfbfbf" points="182,-56.5 182,-75.5 232,-75.5 232,-56.5 182,-56.5"/>
<text text-anchor="middle" x="207" y="-63.5" font-family="FreeSans" font-size="10.00">stdio.h</text>
</a>
</g>
</g>
<!-- Node2&#45;&gt;Node6 -->
<g id="edge4" class="edge">
<title>Node2&#45;&gt;Node6</title>
<path fill="none" stroke="midnightblue" d="M825.47,-120.65C721.26,-119.24 464.86,-112.19 242.05,-75.86"/>
<polygon fill="midnightblue" stroke="midnightblue" points="242.57,-72.4 232.14,-74.22 241.43,-79.3 242.57,-72.4"/>
</g>
<!-- Node7 -->
<g id="node6" class="node">
<title>Node7</title>
<g id="a_node6"><a xlink:title=" ">
<polygon fill="white" stroke="#bfbfbf" points="250.5,-56.5 250.5,-75.5 303.5,-75.5 303.5,-56.5 250.5,-56.5"/>
<text text-anchor="middle" x="277" y="-63.5" font-family="FreeSans" font-size="10.00">ctype.h</text>
</a>
</g>
</g>
<!-- Node2&#45;&gt;Node7 -->
<g id="edge5" class="edge">
<title>Node2&#45;&gt;Node7</title>
<path fill="none" stroke="midnightblue" d="M825.38,-119.93C729.88,-117.2 508.15,-107.87 313.77,-76.04"/>
<polygon fill="midnightblue" stroke="midnightblue" points="314.09,-72.54 303.65,-74.36 312.94,-79.45 314.09,-72.54"/>
</g>
<!-- Node8 -->
<g id="node7" class="node">
<title>Node8</title>
<g id="a_node7"><a xlink:title=" ">
<polygon fill="white" stroke="#bfbfbf" points="321.5,-56.5 321.5,-75.5 376.5,-75.5 376.5,-56.5 321.5,-56.5"/>
<text text-anchor="middle" x="349" y="-63.5" font-family="FreeSans" font-size="10.00">locale.h</text>
</a>
</g>
</g>
<!-- Node2&#45;&gt;Node8 -->
<g id="edge6" class="edge">
<title>Node2&#45;&gt;Node8</title>
<path fill="none" stroke="midnightblue" d="M825.23,-119.02C739.21,-114.94 552.48,-103.66 386.7,-76.07"/>
<polygon fill="midnightblue" stroke="midnightblue" points="387.26,-72.62 376.82,-74.4 386.1,-79.52 387.26,-72.62"/>
</g>
<!-- Node9 -->
<g id="node8" class="node">
<title>Node9</title>
<g id="a_node8"><a xlink:title=" ">
<polygon fill="white" stroke="#bfbfbf" points="1389.5,-56.5 1389.5,-75.5 1440.5,-75.5 1440.5,-56.5 1389.5,-56.5"/>
<text text-anchor="middle" x="1415" y="-63.5" font-family="FreeSans" font-size="10.00">errno.h</text>
</a>
</g>
</g>
<!-- Node2&#45;&gt;Node9 -->
<g id="edge7" class="edge">
<title>Node2&#45;&gt;Node9</title>
<path fill="none" stroke="midnightblue" d="M920.51,-119.37C1009.01,-115.77 1205.11,-105.16 1379.62,-75.76"/>
<polygon fill="midnightblue" stroke="midnightblue" points="1380.22,-79.21 1389.49,-74.07 1379.04,-72.31 1380.22,-79.21"/>
</g>
<!-- Node10 -->
<g id="node9" class="node">
<title>Node10</title>
<g id="a_node9"><a xlink:title=" ">
<polygon fill="white" stroke="#bfbfbf" points="394.5,-56.5 394.5,-75.5 441.5,-75.5 441.5,-56.5 394.5,-56.5"/>
<text text-anchor="middle" x="418" y="-63.5" font-family="FreeSans" font-size="10.00">fcntl.h</text>
</a>
</g>
</g>
<!-- Node2&#45;&gt;Node10 -->
<g id="edge8" class="edge">
<title>Node2&#45;&gt;Node10</title>
<path fill="none" stroke="midnightblue" d="M825.49,-118.42C748.83,-113.71 593.02,-101.91 451.83,-75.85"/>
<polygon fill="midnightblue" stroke="midnightblue" points="452.16,-72.35 441.69,-73.95 450.87,-79.23 452.16,-72.35"/>
</g>
<!-- Node11 -->
<g id="node10" class="node">
<title>Node11</title>
<g id="a_node10"><a xlink:title=" ">
<polygon fill="white" stroke="#bfbfbf" points="1576.5,-56.5 1576.5,-75.5 1627.5,-75.5 1627.5,-56.5 1576.5,-56.5"/>
<text text-anchor="middle" x="1602" y="-63.5" font-family="FreeSans" font-size="10.00">math.h</text>
</a>
</g>
</g>
<!-- Node2&#45;&gt;Node11 -->
<g id="edge9" class="edge">
<title>Node2&#45;&gt;Node11</title>
<path fill="none" stroke="midnightblue" d="M920.84,-118.45C1028.63,-112.53 1298.66,-96.78 1524,-76 1537.82,-74.73 1552.98,-73.04 1566.23,-71.48"/>
<polygon fill="midnightblue" stroke="midnightblue" points="1566.87,-74.92 1576.39,-70.26 1566.04,-67.97 1566.87,-74.92"/>
</g>
<!-- Node12 -->
<g id="node11" class="node">
<title>Node12</title>
<g id="a_node11"><a xlink:title=" ">
<polygon fill="white" stroke="#bfbfbf" points="460,-56.5 460,-75.5 508,-75.5 508,-56.5 460,-56.5"/>
<text text-anchor="middle" x="484" y="-63.5" font-family="FreeSans" font-size="10.00">time.h</text>
</a>
</g>
</g>
<!-- Node2&#45;&gt;Node12 -->
<g id="edge10" class="edge">
<title>Node2&#45;&gt;Node12</title>
<path fill="none" stroke="midnightblue" d="M825.44,-117.13C758.79,-111.24 633.72,-98.47 518.14,-75.97"/>
<polygon fill="midnightblue" stroke="midnightblue" points="518.55,-72.49 508.06,-73.98 517.19,-79.35 518.55,-72.49"/>
</g>
<!-- Node13 -->
<g id="node12" class="node">
<title>Node13</title>
<g id="a_node12"><a xlink:title=" ">
<polygon fill="white" stroke="#bfbfbf" points="526.5,-56.5 526.5,-75.5 579.5,-75.5 579.5,-56.5 526.5,-56.5"/>
<text text-anchor="middle" x="553" y="-63.5" font-family="FreeSans" font-size="10.00">limits.h</text>
</a>
</g>
</g>
<!-- Node2&#45;&gt;Node13 -->
<g id="edge11" class="edge">
<title>Node2&#45;&gt;Node13</title>
<path fill="none" stroke="midnightblue" d="M825.35,-114.89C770.6,-107.55 677.9,-94.17 589.6,-76.18"/>
<polygon fill="midnightblue" stroke="midnightblue" points="590.19,-72.73 579.69,-74.14 588.78,-79.59 590.19,-72.73"/>
</g>
<!-- Node14 -->
<g id="node13" class="node">
<title>Node14</title>
<g id="a_node13"><a xlink:title=" ">
<polygon fill="white" stroke="#bfbfbf" points="597.5,-56.5 597.5,-75.5 652.5,-75.5 652.5,-56.5 597.5,-56.5"/>
<text text-anchor="middle" x="625" y="-63.5" font-family="FreeSans" font-size="10.00">signal.h</text>
</a>
</g>
</g>
<!-- Node2&#45;&gt;Node14 -->
<g id="edge12" class="edge">
<title>Node2&#45;&gt;Node14</title>
<path fill="none" stroke="midnightblue" d="M831.29,-112.47C790.75,-104.1 727.2,-90.76 662.78,-76.13"/>
<polygon fill="midnightblue" stroke="midnightblue" points="663.39,-72.68 652.86,-73.87 661.83,-79.5 663.39,-72.68"/>
</g>
<!-- Node15 -->
<g id="node14" class="node">
<title>Node15</title>
<g id="a_node14"><a xlink:title=" ">
<polygon fill="white" stroke="#bfbfbf" points="1459,-56.5 1459,-75.5 1515,-75.5 1515,-56.5 1459,-56.5"/>
<text text-anchor="middle" x="1487" y="-63.5" font-family="FreeSans" font-size="10.00">assert.h</text>
</a>
</g>
</g>
<!-- Node2&#45;&gt;Node15 -->
<g id="edge13" class="edge">
<title>Node2&#45;&gt;Node15</title>
<path fill="none" stroke="midnightblue" d="M920.7,-119.76C1019.71,-116.65 1254.52,-106.44 1449,-76 1449.1,-75.98 1449.2,-75.97 1449.3,-75.95"/>
<polygon fill="midnightblue" stroke="midnightblue" points="1449.68,-79.44 1458.87,-74.17 1448.4,-72.56 1449.68,-79.44"/>
</g>
<!-- Node16 -->
<g id="node15" class="node">
<title>Node16</title>
<g id="a_node15"><a xlink:href="method-attribute_8h.html" target="_top" xlink:title=" ">
<polygon fill="white" stroke="black" points="671,-56.5 671,-75.5 819,-75.5 819,-56.5 671,-56.5"/>
<text text-anchor="middle" x="745" y="-63.5" font-family="FreeSans" font-size="10.00">magick/method&#45;attribute.h</text>
</a>
</g>
</g>
<!-- Node2&#45;&gt;Node16 -->
<g id="edge14" class="edge">
<title>Node2&#45;&gt;Node16</title>
<path fill="none" stroke="midnightblue" d="M852.72,-112.44C831.65,-103.56 798.48,-89.56 774.51,-79.45"/>
<polygon fill="midnightblue" stroke="midnightblue" points="775.76,-76.18 765.19,-75.52 773.04,-82.63 775.76,-76.18"/>
</g>
<!-- Node17 -->
<g id="node16" class="node">
<title>Node17</title>
<g id="a_node16"><a xlink:title=" ">
<polygon fill="white" stroke="#bfbfbf" points="837,-56.5 837,-75.5 909,-75.5 909,-56.5 837,-56.5"/>
<text text-anchor="middle" x="873" y="-63.5" font-family="FreeSans" font-size="10.00">sys/types.h</text>
</a>
</g>
</g>
<!-- Node2&#45;&gt;Node17 -->
<g id="edge15" class="edge">
<title>Node2&#45;&gt;Node17</title>
<path fill="none" stroke="midnightblue" d="M873,-112.08C873,-105.01 873,-94.86 873,-85.99"/>
<polygon fill="midnightblue" stroke="midnightblue" points="876.5,-85.75 873,-75.75 869.5,-85.75 876.5,-85.75"/>
</g>
<!-- Node18 -->
<g id="node17" class="node">
<title>Node18</title>
<g id="a_node17"><a xlink:title=" ">
<polygon fill="white" stroke="#bfbfbf" points="927,-56.5 927,-75.5 991,-75.5 991,-56.5 927,-56.5"/>
<text text-anchor="middle" x="959" y="-63.5" font-family="FreeSans" font-size="10.00">sys/stat.h</text>
</a>
</g>
</g>
<!-- Node2&#45;&gt;Node18 -->
<g id="edge16" class="edge">
<title>Node2&#45;&gt;Node18</title>
<path fill="none" stroke="midnightblue" d="M886.82,-112.32C900.23,-103.9 920.82,-90.97 936.59,-81.07"/>
<polygon fill="midnightblue" stroke="midnightblue" points="938.61,-83.94 945.22,-75.65 934.89,-78.01 938.61,-83.94"/>
</g>
<!-- Node19 -->
<g id="node18" class="node">
<title>Node19</title>
<g id="a_node18"><a xlink:title=" ">
<polygon fill="white" stroke="#bfbfbf" points="1009,-56.5 1009,-75.5 1063,-75.5 1063,-56.5 1009,-56.5"/>
<text text-anchor="middle" x="1036" y="-63.5" font-family="FreeSans" font-size="10.00">dirent.h</text>
</a>
</g>
</g>
<!-- Node2&#45;&gt;Node19 -->
<g id="edge17" class="edge">
<title>Node2&#45;&gt;Node19</title>
<path fill="none" stroke="midnightblue" d="M898.83,-112.44C926.25,-103.36 969.78,-88.94 1000.43,-78.78"/>
<polygon fill="midnightblue" stroke="midnightblue" points="1001.9,-81.98 1010.29,-75.52 999.7,-75.34 1001.9,-81.98"/>
</g>
<!-- Node20 -->
<g id="node19" class="node">
<title>Node20</title>
<g id="a_node19"><a xlink:title=" ">
<polygon fill="white" stroke="#bfbfbf" points="1081,-56.5 1081,-75.5 1147,-75.5 1147,-56.5 1081,-56.5"/>
<text text-anchor="middle" x="1114" y="-63.5" font-family="FreeSans" font-size="10.00">sys/wait.h</text>
</a>
</g>
</g>
<!-- Node2&#45;&gt;Node20 -->
<g id="edge18" class="edge">
<title>Node2&#45;&gt;Node20</title>
<path fill="none" stroke="midnightblue" d="M911.19,-112.44C954.62,-102.71 1025.39,-86.86 1070.8,-76.68"/>
<polygon fill="midnightblue" stroke="midnightblue" points="1071.66,-80.07 1080.65,-74.47 1070.12,-73.24 1071.66,-80.07"/>
</g>
<!-- Node21 -->
<g id="node20" class="node">
<title>Node21</title>
<g id="a_node20"><a xlink:title=" ">
<polygon fill="white" stroke="#bfbfbf" points="1165,-56.5 1165,-75.5 1211,-75.5 1211,-56.5 1165,-56.5"/>
<text text-anchor="middle" x="1188" y="-63.5" font-family="FreeSans" font-size="10.00">pwd.h</text>
</a>
</g>
</g>
<!-- Node2&#45;&gt;Node21 -->
<g id="edge19" class="edge">
<title>Node2&#45;&gt;Node21</title>
<path fill="none" stroke="midnightblue" d="M920.64,-115.15C975.09,-108.08 1067.05,-94.98 1154.81,-76.06"/>
<polygon fill="midnightblue" stroke="midnightblue" points="1155.64,-79.46 1164.66,-73.9 1154.14,-72.62 1155.64,-79.46"/>
</g>
<!-- Node22 -->
<g id="node21" class="node">
<title>Node22</title>
<g id="a_node21"><a xlink:href="magick-type_8h.html" target="_top" xlink:title=" ">
<polygon fill="white" stroke="black" points="0,-56.5 0,-75.5 126,-75.5 126,-56.5 0,-56.5"/>
<text text-anchor="middle" x="63" y="-63.5" font-family="FreeSans" font-size="10.00">magick/magick&#45;type.h</text>
</a>
</g>
</g>
<!-- Node2&#45;&gt;Node22 -->
<g id="edge20" class="edge">
<title>Node2&#45;&gt;Node22</title>
<path fill="none" stroke="midnightblue" d="M825.34,-118.98C708.42,-113.84 398.11,-98.99 140,-76 138.72,-75.89 137.42,-75.77 136.12,-75.65"/>
<polygon fill="midnightblue" stroke="midnightblue" points="136.3,-72.15 126,-74.65 135.61,-79.11 136.3,-72.15"/>
</g>
<!-- Node23 -->
<g id="node22" class="node">
<title>Node23</title>
<g id="a_node22"><a xlink:title=" ">
<polygon fill="white" stroke="#bfbfbf" points="1229,-56.5 1229,-75.5 1297,-75.5 1297,-56.5 1229,-56.5"/>
<text text-anchor="middle" x="1263" y="-63.5" font-family="FreeSans" font-size="10.00">sys/time.h</text>
</a>
</g>
</g>
<!-- Node2&#45;&gt;Node23 -->
<g id="edge22" class="edge">
<title>Node2&#45;&gt;Node23</title>
<path fill="none" stroke="midnightblue" d="M920.6,-116.01C985.66,-108.92 1106.21,-94.87 1218.62,-76.12"/>
<polygon fill="midnightblue" stroke="midnightblue" points="1219.5,-79.52 1228.78,-74.41 1218.34,-72.62 1219.5,-79.52"/>
</g>
<!-- Node22&#45;&gt;Node3 -->
<g id="edge21" class="edge">
<title>Node22&#45;&gt;Node3</title>
<path fill="none" stroke="midnightblue" d="M70.6,-56.08C77.23,-48.3 87.02,-36.8 95.06,-27.37"/>
<polygon fill="midnightblue" stroke="midnightblue" points="97.73,-29.63 101.55,-19.75 92.4,-25.09 97.73,-29.63"/>
</g>
<!-- Node25&#45;&gt;Node26 -->
<g id="edge25" class="edge">
<title>Node25&#45;&gt;Node26</title>
<path fill="none" stroke="midnightblue" d="M1886.74,-227.97C1946.44,-221.98 2029.96,-209.92 2054,-188 2066.88,-176.26 2071.21,-156.32 2072.58,-141.62"/>
<polygon fill="midnightblue" stroke="midnightblue" points="2076.07,-141.8 2073.14,-131.62 2069.09,-141.41 2076.07,-141.8"/>
</g>
<!-- Node27 -->
<g id="node26" class="node">
<title>Node27</title>
<g id="a_node26"><a xlink:href="color_8h.html" target="_top" xlink:title=" ">
<polygon fill="white" stroke="red" points="1755,-56.5 1755,-75.5 1843,-75.5 1843,-56.5 1755,-56.5"/>
<text text-anchor="middle" x="1799" y="-63.5" font-family="FreeSans" font-size="10.00">magick/color.h</text>
</a>
</g>
</g>
<!-- Node25&#45;&gt;Node27 -->
<g id="edge36" class="edge">
<title>Node25&#45;&gt;Node27</title>
<path fill="none" stroke="midnightblue" d="M1857.18,-224.49C1875.99,-217.88 1897.74,-206.6 1909,-188 1913.6,-180.4 1912.13,-176.32 1909,-168 1893.84,-127.66 1852,-97.13 1824.51,-80.67"/>
<polygon fill="midnightblue" stroke="midnightblue" points="1826.21,-77.61 1815.8,-75.64 1822.7,-83.67 1826.21,-77.61"/>
</g>
<!-- Node25&#45;&gt;Node52 -->
<g id="edge35" class="edge">
<title>Node25&#45;&gt;Node52</title>
<path fill="none" stroke="midnightblue" d="M1804.08,-224.43C1784.95,-215.65 1754.65,-201.43 1729,-188 1696.89,-171.19 1660.67,-150.17 1637.84,-136.67"/>
<polygon fill="midnightblue" stroke="midnightblue" points="1639.6,-133.64 1629.21,-131.54 1636.02,-139.66 1639.6,-133.64"/>
</g>
<!-- Node53 -->
<g id="node33" class="node">
<title>Node53</title>
<g id="a_node33"><a xlink:href="colorspace-private_8h.html" target="_top" xlink:title=" ">
<polygon fill="white" stroke="black" points="1745.5,-168.5 1745.5,-187.5 1900.5,-187.5 1900.5,-168.5 1745.5,-168.5"/>
<text text-anchor="middle" x="1823" y="-175.5" font-family="FreeSans" font-size="10.00">magick/colorspace&#45;private.h</text>
</a>
</g>
</g>
<!-- Node25&#45;&gt;Node53 -->
<g id="edge37" class="edge">
<title>Node25&#45;&gt;Node53</title>
<path fill="none" stroke="midnightblue" d="M1823,-224.08C1823,-217.01 1823,-206.86 1823,-197.99"/>
<polygon fill="midnightblue" stroke="midnightblue" points="1826.5,-197.75 1823,-187.75 1819.5,-197.75 1826.5,-197.75"/>
</g>
<!-- Node54 -->
<g id="node34" class="node">
<title>Node54</title>
<g id="a_node34"><a xlink:href="pixel-accessor_8h.html" target="_top" xlink:title=" ">
<polygon fill="white" stroke="black" points="1700,-112.5 1700,-131.5 1834,-131.5 1834,-112.5 1700,-112.5"/>
<text text-anchor="middle" x="1767" y="-119.5" font-family="FreeSans" font-size="10.00">magick/pixel&#45;accessor.h</text>
</a>
</g>
</g>
<!-- Node25&#45;&gt;Node54 -->
<g id="edge51" class="edge">
<title>Node25&#45;&gt;Node54</title>
<path fill="none" stroke="midnightblue" d="M1787.99,-224.45C1769.07,-217.84 1747.32,-206.59 1736,-188 1726.31,-172.08 1738.42,-152.66 1750.22,-139.22"/>
<polygon fill="midnightblue" stroke="midnightblue" points="1753,-141.37 1757.33,-131.7 1747.92,-136.56 1753,-141.37"/>
</g>
<!-- Node25&#45;&gt;Node60 -->
<g id="edge46" class="edge">
<title>Node25&#45;&gt;Node60</title>
<path fill="none" stroke="midnightblue" d="M1759.4,-225.66C1676.41,-216.09 1530.97,-199.3 1438.99,-188.69"/>
<polygon fill="midnightblue" stroke="midnightblue" points="1439.22,-185.19 1428.88,-187.52 1438.41,-192.15 1439.22,-185.19"/>
</g>
<!-- Node26&#45;&gt;Node27 -->
<g id="edge26" class="edge">
<title>Node26&#45;&gt;Node27</title>
<path fill="none" stroke="midnightblue" d="M2029.58,-112.44C1981.48,-102.96 1903.91,-87.67 1852.19,-77.48"/>
<polygon fill="midnightblue" stroke="midnightblue" points="1852.7,-74.02 1842.21,-75.52 1851.35,-80.88 1852.7,-74.02"/>
</g>
<!-- Node26&#45;&gt;Node28 -->
<g id="edge30" class="edge">
<title>Node26&#45;&gt;Node28</title>
<path fill="none" stroke="midnightblue" d="M2034.9,-112.45C2004.97,-104.96 1962.68,-92.67 1928,-76 1899.03,-62.07 1868.84,-40.23 1850.23,-25.76"/>
<polygon fill="midnightblue" stroke="midnightblue" points="1852.33,-22.96 1842.31,-19.5 1847.99,-28.45 1852.33,-22.96"/>
</g>
<!-- Node33 -->
<g id="node28" class="node">
<title>Node33</title>
<g id="a_node28"><a xlink:href="blob_8h.html" target="_top" xlink:title=" ">
<polygon fill="white" stroke="red" points="2041,-56.5 2041,-75.5 2127,-75.5 2127,-56.5 2041,-56.5"/>
<text text-anchor="middle" x="2084" y="-63.5" font-family="FreeSans" font-size="10.00">magick/blob.h</text>
</a>
</g>
</g>
<!-- Node26&#45;&gt;Node33 -->
<g id="edge28" class="edge">
<title>Node26&#45;&gt;Node33</title>
<path fill="none" stroke="midnightblue" d="M2069.65,-112.08C2069.6,-104.85 2071.3,-94.41 2073.82,-85.4"/>
<polygon fill="midnightblue" stroke="midnightblue" points="2077.19,-86.35 2077.09,-75.75 2070.56,-84.1 2077.19,-86.35"/>
</g>
<!-- Node26&#45;&gt;Node47 -->
<g id="edge31" class="edge">
<title>Node26&#45;&gt;Node47</title>
<path fill="none" stroke="midnightblue" d="M2087.88,-112.44C2106.75,-103.52 2139.37,-89.44 2164.49,-79.32"/>
<polygon fill="midnightblue" stroke="midnightblue" points="2166.05,-82.46 2174.05,-75.52 2163.46,-75.96 2166.05,-82.46"/>
</g>
<!-- Node26&#45;&gt;Node49 -->
<g id="edge33" class="edge">
<title>Node26&#45;&gt;Node49</title>
<path fill="none" stroke="midnightblue" d="M2113.09,-112.44C2157.32,-103 2228.54,-87.8 2276.28,-77.61"/>
<polygon fill="midnightblue" stroke="midnightblue" points="2277.05,-81.03 2286.1,-75.52 2275.59,-74.18 2277.05,-81.03"/>
</g>
<!-- Node26&#45;&gt;Node50 -->
<g id="edge34" class="edge">
<title>Node26&#45;&gt;Node50</title>
<path fill="none" stroke="midnightblue" d="M2120.57,-114.52C2180.61,-106.29 2287.35,-91.45 2388.84,-76.15"/>
<polygon fill="midnightblue" stroke="midnightblue" points="2389.59,-79.58 2398.96,-74.62 2388.55,-72.66 2389.59,-79.58"/>
</g>
<!-- Node27&#45;&gt;Node28 -->
<g id="edge27" class="edge">
<title>Node27&#45;&gt;Node28</title>
<path fill="none" stroke="midnightblue" d="M1804.45,-56.08C1809.01,-48.61 1815.67,-37.72 1821.29,-28.52"/>
<polygon fill="midnightblue" stroke="midnightblue" points="1824.42,-30.11 1826.65,-19.75 1818.45,-26.46 1824.42,-30.11"/>
</g>
<!-- Node33&#45;&gt;Node26 -->
<g id="edge29" class="edge">
<title>Node33&#45;&gt;Node26</title>
<path fill="none" stroke="midnightblue" d="M2087.35,-75.75C2087.43,-82.94 2085.74,-93.36 2083.24,-102.4"/>
<polygon fill="midnightblue" stroke="midnightblue" points="2079.85,-101.49 2079.98,-112.08 2086.49,-103.72 2079.85,-101.49"/>
</g>
<!-- Node47&#45;&gt;Node26 -->
<g id="edge32" class="edge">
<title>Node47&#45;&gt;Node26</title>
<path fill="none" stroke="midnightblue" d="M2184.21,-75.52C2165.38,-84.43 2132.77,-98.5 2107.62,-108.64"/>
<polygon fill="midnightblue" stroke="midnightblue" points="2106.05,-105.5 2098.05,-112.44 2108.64,-112 2106.05,-105.5"/>
</g>
<!-- Node53&#45;&gt;Node26 -->
<g id="edge38" class="edge">
<title>Node53&#45;&gt;Node26</title>
<path fill="none" stroke="midnightblue" d="M1862.61,-168.44C1906.23,-159.02 1976.4,-143.87 2023.58,-133.68"/>
<polygon fill="midnightblue" stroke="midnightblue" points="2024.54,-137.05 2033.57,-131.52 2023.06,-130.21 2024.54,-137.05"/>
</g>
<!-- Node53&#45;&gt;Node28 -->
<g id="edge40" class="edge">
<title>Node53&#45;&gt;Node28</title>
<path fill="none" stroke="midnightblue" d="M1830.12,-168.27C1839.98,-155.05 1855.27,-129.64 1843,-112 1814.58,-71.13 1720.22,-98.58 1746,-56 1755.41,-40.46 1772.15,-30.02 1788.38,-23.15"/>
<polygon fill="midnightblue" stroke="midnightblue" points="1789.75,-26.37 1797.82,-19.51 1787.23,-19.85 1789.75,-26.37"/>
</g>
<!-- Node53&#45;&gt;Node52 -->
<g id="edge39" class="edge">
<title>Node53&#45;&gt;Node52</title>
<path fill="none" stroke="midnightblue" d="M1790.04,-168.44C1754.21,-159.14 1696.84,-144.25 1657.61,-134.06"/>
<polygon fill="midnightblue" stroke="midnightblue" points="1658.36,-130.64 1647.8,-131.52 1656.6,-137.42 1658.36,-130.64"/>
</g>
<!-- Node53&#45;&gt;Node54 -->
<g id="edge41" class="edge">
<title>Node53&#45;&gt;Node54</title>
<path fill="none" stroke="midnightblue" d="M1814,-168.32C1805.81,-160.42 1793.49,-148.55 1783.53,-138.94"/>
<polygon fill="midnightblue" stroke="midnightblue" points="1785.79,-136.26 1776.16,-131.83 1780.93,-141.29 1785.79,-136.26"/>
</g>
<!-- Node54&#45;&gt;Node11 -->
<g id="edge42" class="edge">
<title>Node54&#45;&gt;Node11</title>
<path fill="none" stroke="midnightblue" d="M1740.86,-112.44C1712.89,-103.29 1668.39,-88.73 1637.33,-78.56"/>
<polygon fill="midnightblue" stroke="midnightblue" points="1638.34,-75.21 1627.75,-75.43 1636.17,-81.86 1638.34,-75.21"/>
</g>
<!-- Node54&#45;&gt;Node28 -->
<g id="edge45" class="edge">
<title>Node54&#45;&gt;Node28</title>
<path fill="none" stroke="midnightblue" d="M1750.53,-112.35C1729.7,-100.26 1698.24,-77.36 1713,-56 1727.73,-34.68 1753.96,-23.45 1778.05,-17.54"/>
<polygon fill="midnightblue" stroke="midnightblue" points="1778.83,-20.95 1787.85,-15.39 1777.33,-14.11 1778.83,-20.95"/>
</g>
<!-- Node54&#45;&gt;Node55 -->
<g id="edge43" class="edge">
<title>Node54&#45;&gt;Node55</title>
<path fill="none" stroke="midnightblue" d="M1800.75,-112.44C1837.52,-103.12 1896.45,-88.18 1936.62,-78"/>
<polygon fill="midnightblue" stroke="midnightblue" points="1937.57,-81.37 1946.41,-75.52 1935.85,-74.58 1937.57,-81.37"/>
</g>
<!-- Node55&#45;&gt;Node56 -->
<g id="edge44" class="edge">
<title>Node55&#45;&gt;Node56</title>
<path fill="none" stroke="midnightblue" d="M2023.27,-56.92C2073.82,-47.47 2157.58,-31.82 2213.04,-21.46"/>
<polygon fill="midnightblue" stroke="midnightblue" points="2213.86,-24.86 2223.05,-19.59 2212.57,-17.98 2213.86,-24.86"/>
</g>
<!-- Node60&#45;&gt;Node61 -->
<g id="edge47" class="edge">
<title>Node60&#45;&gt;Node61</title>
<path fill="none" stroke="midnightblue" d="M1349.55,-168.08C1344.99,-160.61 1338.33,-149.72 1332.71,-140.52"/>
<polygon fill="midnightblue" stroke="midnightblue" points="1335.55,-138.46 1327.35,-131.75 1329.58,-142.11 1335.55,-138.46"/>
</g>
<!-- Node60&#45;&gt;Node62 -->
<g id="edge49" class="edge">
<title>Node60&#45;&gt;Node62</title>
<path fill="none" stroke="midnightblue" d="M1332.5,-168.44C1308.92,-159.48 1271.68,-145.31 1245.04,-135.18"/>
<polygon fill="midnightblue" stroke="midnightblue" points="1245.99,-131.8 1235.4,-131.52 1243.5,-138.34 1245.99,-131.8"/>
</g>
<!-- Node61&#45;&gt;Node5 -->
<g id="edge48" class="edge">
<title>Node61&#45;&gt;Node5</title>
<path fill="none" stroke="midnightblue" d="M1325.47,-112.08C1328.31,-104.77 1332.43,-94.18 1335.96,-85.1"/>
<polygon fill="midnightblue" stroke="midnightblue" points="1339.23,-86.34 1339.6,-75.75 1332.71,-83.8 1339.23,-86.34"/>
</g>
<!-- Node62&#45;&gt;Node5 -->
<g id="edge50" class="edge">
<title>Node62&#45;&gt;Node5</title>
<path fill="none" stroke="midnightblue" d="M1233.6,-112.44C1254.99,-103.56 1288.68,-89.56 1313.02,-79.45"/>
<polygon fill="midnightblue" stroke="midnightblue" points="1314.61,-82.58 1322.5,-75.52 1311.92,-76.12 1314.61,-82.58"/>
</g>
<!-- Node63&#45;&gt;Node33 -->
<g id="edge53" class="edge">
<title>Node63&#45;&gt;Node33</title>
<path fill="none" stroke="midnightblue" d="M2217.2,-168.22C2206.62,-154.93 2185.12,-129.43 2163,-112 2147.19,-99.54 2127.53,-88.33 2111.77,-80.21"/>
<polygon fill="midnightblue" stroke="midnightblue" points="2113.05,-76.93 2102.54,-75.57 2109.9,-83.19 2113.05,-76.93"/>
</g>
<!-- Node58&#45;&gt;Node26 -->
<g id="edge55" class="edge">
<title>Node58&#45;&gt;Node26</title>
<path fill="none" stroke="midnightblue" d="M2012.57,-168.32C2023.42,-160.18 2039.88,-147.84 2052.88,-138.09"/>
<polygon fill="midnightblue" stroke="midnightblue" points="2055.32,-140.63 2061.22,-131.83 2051.12,-135.03 2055.32,-140.63"/>
</g>
<!-- Node58&#45;&gt;Node27 -->
<g id="edge57" class="edge">
<title>Node58&#45;&gt;Node27</title>
<path fill="none" stroke="midnightblue" d="M1992.77,-168.28C1979.46,-154.63 1951.88,-128.09 1924,-112 1898.45,-97.26 1867.24,-86.02 1842.39,-78.46"/>
<polygon fill="midnightblue" stroke="midnightblue" points="1843.1,-75.01 1832.52,-75.54 1841.12,-81.73 1843.1,-75.01"/>
</g>
<!-- Node58&#45;&gt;Node28 -->
<g id="edge56" class="edge">
<title>Node58&#45;&gt;Node28</title>
<path fill="none" stroke="midnightblue" d="M1995.89,-168.14C1987.86,-154.76 1971.18,-129.13 1952,-112 1928.52,-91.03 1915.41,-95.88 1891,-76 1873.36,-61.63 1856.23,-41.92 1845.01,-27.98"/>
<polygon fill="midnightblue" stroke="midnightblue" points="1847.48,-25.46 1838.55,-19.76 1841.98,-29.79 1847.48,-25.46"/>
</g>
<!-- Node64&#45;&gt;Node9 -->
<g id="edge65" class="edge">
<title>Node64&#45;&gt;Node9</title>
<path fill="none" stroke="midnightblue" d="M1432.53,-112.08C1429.69,-104.77 1425.57,-94.18 1422.04,-85.1"/>
<polygon fill="midnightblue" stroke="midnightblue" points="1425.29,-83.8 1418.4,-75.75 1418.77,-86.34 1425.29,-83.8"/>
</g>
<!-- Node64&#45;&gt;Node15 -->
<g id="edge66" class="edge">
<title>Node64&#45;&gt;Node15</title>
<path fill="none" stroke="midnightblue" d="M1444.42,-112.08C1451.85,-104.22 1462.85,-92.57 1471.81,-83.08"/>
<polygon fill="midnightblue" stroke="midnightblue" points="1474.41,-85.42 1478.74,-75.75 1469.32,-80.62 1474.41,-85.42"/>
</g>
<!-- Node65&#45;&gt;Node26 -->
<g id="edge69" class="edge">
<title>Node65&#45;&gt;Node26</title>
<path fill="none" stroke="midnightblue" d="M1651.41,-169.94C1746.22,-159.38 1923.57,-139.64 2015.08,-129.45"/>
<polygon fill="midnightblue" stroke="midnightblue" points="2015.72,-132.9 2025.27,-128.31 2014.94,-125.94 2015.72,-132.9"/>
</g>
<!-- Node65&#45;&gt;Node27 -->
<g id="edge70" class="edge">
<title>Node65&#45;&gt;Node27</title>
<path fill="none" stroke="midnightblue" d="M1573.28,-168.36C1553.5,-155.69 1522.62,-131.46 1539,-112 1564.75,-81.42 1676.25,-71.62 1744.6,-68.48"/>
<polygon fill="midnightblue" stroke="midnightblue" points="1744.92,-71.97 1754.76,-68.05 1744.63,-64.97 1744.92,-71.97"/>
</g>
<!-- Node65&#45;&gt;Node52 -->
<g id="edge71" class="edge">
<title>Node65&#45;&gt;Node52</title>
<path fill="none" stroke="midnightblue" d="M1592.46,-168.08C1596.15,-160.69 1601.52,-149.95 1606.09,-140.81"/>
<polygon fill="midnightblue" stroke="midnightblue" points="1609.28,-142.26 1610.62,-131.75 1603.02,-139.13 1609.28,-142.26"/>
</g>
<!-- Node65&#45;&gt;Node54 -->
<g id="edge73" class="edge">
<title>Node65&#45;&gt;Node54</title>
<path fill="none" stroke="midnightblue" d="M1616.36,-168.44C1646.74,-159.28 1695.11,-144.69 1728.82,-134.52"/>
<polygon fill="midnightblue" stroke="midnightblue" points="1730.21,-137.76 1738.77,-131.52 1728.18,-131.05 1730.21,-137.76"/>
</g>
<!-- Node65&#45;&gt;Node64 -->
<g id="edge72" class="edge">
<title>Node65&#45;&gt;Node64</title>
<path fill="none" stroke="midnightblue" d="M1563.92,-168.44C1538.46,-159.4 1498.11,-145.06 1469.54,-134.92"/>
<polygon fill="midnightblue" stroke="midnightblue" points="1470.57,-131.57 1459.97,-131.52 1468.22,-138.16 1470.57,-131.57"/>
</g>
</g>
</svg>
