<?xml version="1.0" encoding="UTF-8" standalone="no"?>
<!DOCTYPE svg PUBLIC "-//W3C//DTD SVG 1.1//EN"
 "http://www.w3.org/Graphics/SVG/1.1/DTD/svg11.dtd">
<!-- Generated by graphviz version 2.43.0 (0)
 -->
<!-- Title: resize&#45;private.h Pages: 1 -->
<svg width="246pt" height="84pt"
 viewBox="0.00 0.00 246.00 84.00" xmlns="http://www.w3.org/2000/svg" xmlns:xlink="http://www.w3.org/1999/xlink">
<g id="graph0" class="graph" transform="scale(1 1) rotate(0) translate(4 80)">
<title>resize&#45;private.h</title>
<polygon fill="white" stroke="transparent" points="-4,4 -4,-80 242,-80 242,4 -4,4"/>
<!-- Node1 -->
<g id="node1" class="node">
<title>Node1</title>
<g id="a_node1"><a xlink:title=" ">
<polygon fill="#bfbfbf" stroke="black" points="83.5,-56.5 83.5,-75.5 176.5,-75.5 176.5,-56.5 83.5,-56.5"/>
<text text-anchor="middle" x="130" y="-63.5" font-family="FreeSans" font-size="10.00">resize&#45;private.h</text>
</a>
</g>
</g>
<!-- Node2 -->
<g id="node2" class="node">
<title>Node2</title>
<g id="a_node2"><a xlink:href="accelerate_8c.html" target="_top" xlink:title=" ">
<polygon fill="white" stroke="black" points="0,-0.5 0,-19.5 76,-19.5 76,-0.5 0,-0.5"/>
<text text-anchor="middle" x="38" y="-7.5" font-family="FreeSans" font-size="10.00">accelerate.c</text>
</a>
</g>
</g>
<!-- Node1&#45;&gt;Node2 -->
<g id="edge1" class="edge">
<title>Node1&#45;&gt;Node2</title>
<path fill="none" stroke="midnightblue" d="M106.45,-51.18C89.52,-41.24 67.22,-28.15 52.74,-19.65"/>
<polygon fill="midnightblue" stroke="midnightblue" points="104.82,-54.28 115.22,-56.32 108.37,-48.24 104.82,-54.28"/>
</g>
<!-- Node3 -->
<g id="node3" class="node">
<title>Node3</title>
<g id="a_node3"><a xlink:href="resample_8c.html" target="_top" xlink:title=" ">
<polygon fill="white" stroke="black" points="94.5,-0.5 94.5,-19.5 165.5,-19.5 165.5,-0.5 94.5,-0.5"/>
<text text-anchor="middle" x="130" y="-7.5" font-family="FreeSans" font-size="10.00">resample.c</text>
</a>
</g>
</g>
<!-- Node1&#45;&gt;Node3 -->
<g id="edge2" class="edge">
<title>Node1&#45;&gt;Node3</title>
<path fill="none" stroke="midnightblue" d="M130,-45.8C130,-36.91 130,-26.78 130,-19.75"/>
<polygon fill="midnightblue" stroke="midnightblue" points="126.5,-46.08 130,-56.08 133.5,-46.08 126.5,-46.08"/>
</g>
<!-- Node4 -->
<g id="node4" class="node">
<title>Node4</title>
<g id="a_node4"><a xlink:href="resize_8c.html" target="_top" xlink:title=" ">
<polygon fill="white" stroke="black" points="184,-0.5 184,-19.5 238,-19.5 238,-0.5 184,-0.5"/>
<text text-anchor="middle" x="211" y="-7.5" font-family="FreeSans" font-size="10.00">resize.c</text>
</a>
</g>
</g>
<!-- Node1&#45;&gt;Node4 -->
<g id="edge3" class="edge">
<title>Node1&#45;&gt;Node4</title>
<path fill="none" stroke="midnightblue" d="M151.57,-50.62C166.36,-40.76 185.51,-27.99 198.02,-19.65"/>
<polygon fill="midnightblue" stroke="midnightblue" points="149.39,-47.86 143.01,-56.32 153.28,-53.69 149.39,-47.86"/>
</g>
</g>
</svg>
