<?xml version="1.0" encoding="UTF-8" standalone="no"?>
<!DOCTYPE svg PUBLIC "-//W3C//DTD SVG 1.1//EN"
 "http://www.w3.org/Graphics/SVG/1.1/DTD/svg11.dtd">
<!-- Generated by graphviz version 2.43.0 (0)
 -->
<!-- Title: resource.c Pages: 1 -->
<svg width="2445pt" height="364pt"
 viewBox="0.00 0.00 2445.00 364.00" xmlns="http://www.w3.org/2000/svg" xmlns:xlink="http://www.w3.org/1999/xlink">
<g id="graph0" class="graph" transform="scale(1 1) rotate(0) translate(4 360)">
<title>resource.c</title>
<polygon fill="white" stroke="transparent" points="-4,4 -4,-360 2441,-360 2441,4 -4,4"/>
<!-- Node1 -->
<g id="node1" class="node">
<title>Node1</title>
<g id="a_node1"><a xlink:title=" ">
<polygon fill="#bfbfbf" stroke="black" points="1293.5,-336.5 1293.5,-355.5 1360.5,-355.5 1360.5,-336.5 1293.5,-336.5"/>
<text text-anchor="middle" x="1327" y="-343.5" font-family="FreeSans" font-size="10.00">resource.c</text>
</a>
</g>
</g>
<!-- Node2 -->
<g id="node2" class="node">
<title>Node2</title>
<g id="a_node2"><a xlink:href="studio_8h.html" target="_top" xlink:title=" ">
<polygon fill="white" stroke="black" points="1005.5,-168.5 1005.5,-187.5 1100.5,-187.5 1100.5,-168.5 1005.5,-168.5"/>
<text text-anchor="middle" x="1053" y="-175.5" font-family="FreeSans" font-size="10.00">magick/studio.h</text>
</a>
</g>
</g>
<!-- Node1&#45;&gt;Node2 -->
<g id="edge1" class="edge">
<title>Node1&#45;&gt;Node2</title>
<path fill="none" stroke="midnightblue" d="M1293.32,-345.11C1138.64,-345.36 495.62,-343.71 300,-300 237.01,-285.93 201.78,-297.73 166,-244 161.07,-236.6 159.85,-230.42 166,-224 196.61,-192.03 889.59,-192.51 995.23,-187.58"/>
<polygon fill="midnightblue" stroke="midnightblue" points="995.71,-191.06 1005.47,-186.92 995.26,-184.07 995.71,-191.06"/>
</g>
<!-- Node24 -->
<g id="node23" class="node">
<title>Node24</title>
<g id="a_node23"><a xlink:href="cache_8h.html" target="_top" xlink:title=" ">
<polygon fill="white" stroke="black" points="1402.5,-168.5 1402.5,-187.5 1495.5,-187.5 1495.5,-168.5 1402.5,-168.5"/>
<text text-anchor="middle" x="1449" y="-175.5" font-family="FreeSans" font-size="10.00">magick/cache.h</text>
</a>
</g>
</g>
<!-- Node1&#45;&gt;Node24 -->
<g id="edge23" class="edge">
<title>Node1&#45;&gt;Node24</title>
<path fill="none" stroke="midnightblue" d="M1360.72,-339.04C1407.34,-328.79 1489.82,-302.94 1526,-244 1539.78,-221.56 1510.73,-203.04 1484.46,-191.58"/>
<polygon fill="midnightblue" stroke="midnightblue" points="1485.57,-188.26 1474.99,-187.69 1482.91,-194.73 1485.57,-188.26"/>
</g>
<!-- Node26 -->
<g id="node25" class="node">
<title>Node26</title>
<g id="a_node25"><a xlink:href="image_8h.html" target="_top" xlink:title=" ">
<polygon fill="white" stroke="red" points="1839.5,-56.5 1839.5,-75.5 1934.5,-75.5 1934.5,-56.5 1839.5,-56.5"/>
<text text-anchor="middle" x="1887" y="-63.5" font-family="FreeSans" font-size="10.00">magick/image.h</text>
</a>
</g>
</g>
<!-- Node1&#45;&gt;Node26 -->
<g id="edge57" class="edge">
<title>Node1&#45;&gt;Node26</title>
<path fill="none" stroke="midnightblue" d="M1360.81,-341.15C1405.81,-335.38 1487.45,-322.67 1554,-300 1625.87,-275.51 1637.77,-255.17 1707,-224 1806.26,-179.31 1873.18,-222.28 1934,-132 1945.9,-114.33 1926.8,-94.57 1909.49,-81.53"/>
<polygon fill="midnightblue" stroke="midnightblue" points="1911.47,-78.63 1901.29,-75.7 1907.42,-84.34 1911.47,-78.63"/>
</g>
<!-- Node32 -->
<g id="node26" class="node">
<title>Node32</title>
<g id="a_node26"><a xlink:href="semaphore_8h.html" target="_top" xlink:title=" ">
<polygon fill="white" stroke="black" points="1295.5,-0.5 1295.5,-19.5 1414.5,-19.5 1414.5,-0.5 1295.5,-0.5"/>
<text text-anchor="middle" x="1355" y="-7.5" font-family="FreeSans" font-size="10.00">magick/semaphore.h</text>
</a>
</g>
</g>
<!-- Node1&#45;&gt;Node32 -->
<g id="edge71" class="edge">
<title>Node1&#45;&gt;Node32</title>
<path fill="none" stroke="midnightblue" d="M1293.23,-344.88C1129.75,-344.12 419.48,-338.6 202,-300 109.14,-283.52 0,-329.31 0,-235 0,-235 0,-235 0,-121 0,-74.84 37.73,-72.08 81,-56 193.86,-14.06 1035.39,-10.91 1285.25,-10.9"/>
<polygon fill="midnightblue" stroke="midnightblue" points="1285.3,-14.4 1295.3,-10.9 1285.3,-7.4 1285.3,-14.4"/>
</g>
<!-- Node51 -->
<g id="node27" class="node">
<title>Node51</title>
<g id="a_node27"><a xlink:href="cache-private_8h.html" target="_top" xlink:title=" ">
<polygon fill="white" stroke="black" points="1083.5,-280.5 1083.5,-299.5 1214.5,-299.5 1214.5,-280.5 1083.5,-280.5"/>
<text text-anchor="middle" x="1149" y="-287.5" font-family="FreeSans" font-size="10.00">magick/cache&#45;private.h</text>
</a>
</g>
</g>
<!-- Node1&#45;&gt;Node51 -->
<g id="edge28" class="edge">
<title>Node1&#45;&gt;Node51</title>
<path fill="none" stroke="midnightblue" d="M1298.8,-336.44C1268.59,-327.28 1220.49,-312.69 1186.97,-302.52"/>
<polygon fill="midnightblue" stroke="midnightblue" points="1187.66,-299.07 1177.07,-299.52 1185.63,-305.77 1187.66,-299.07"/>
</g>
<!-- Node31 -->
<g id="node29" class="node">
<title>Node31</title>
<g id="a_node29"><a xlink:href="exception_8h.html" target="_top" xlink:title=" ">
<polygon fill="white" stroke="black" points="104.5,-112.5 104.5,-131.5 217.5,-131.5 217.5,-112.5 104.5,-112.5"/>
<text text-anchor="middle" x="161" y="-119.5" font-family="FreeSans" font-size="10.00">magick/exception.h</text>
</a>
</g>
</g>
<!-- Node1&#45;&gt;Node31 -->
<g id="edge49" class="edge">
<title>Node1&#45;&gt;Node31</title>
<path fill="none" stroke="midnightblue" d="M1293.46,-344.36C1142.2,-341.34 527.35,-327.47 446,-300 389.35,-280.87 385.56,-255.92 335,-224 282.63,-190.93 219.32,-155.22 185.36,-136.38"/>
<polygon fill="midnightblue" stroke="midnightblue" points="187.04,-133.31 176.59,-131.54 183.65,-139.44 187.04,-133.31"/>
</g>
<!-- Node55 -->
<g id="node31" class="node">
<title>Node55</title>
<g id="a_node31"><a xlink:href="random___8h.html" target="_top" xlink:title=" ">
<polygon fill="white" stroke="black" points="625.5,-224.5 625.5,-243.5 732.5,-243.5 732.5,-224.5 625.5,-224.5"/>
<text text-anchor="middle" x="679" y="-231.5" font-family="FreeSans" font-size="10.00">magick/random_.h</text>
</a>
</g>
</g>
<!-- Node1&#45;&gt;Node55 -->
<g id="edge68" class="edge">
<title>Node1&#45;&gt;Node55</title>
<path fill="none" stroke="midnightblue" d="M1293.42,-344C1218.73,-341.25 1033.47,-331.55 882,-300 819.68,-287.02 749.45,-262.13 710.08,-247.2"/>
<polygon fill="midnightblue" stroke="midnightblue" points="711.12,-243.85 700.53,-243.55 708.61,-250.39 711.12,-243.85"/>
</g>
<!-- Node44 -->
<g id="node32" class="node">
<title>Node44</title>
<g id="a_node32"><a xlink:href="string___8h.html" target="_top" xlink:title=" ">
<polygon fill="white" stroke="black" points="363,-168.5 363,-187.5 461,-187.5 461,-168.5 363,-168.5"/>
<text text-anchor="middle" x="412" y="-175.5" font-family="FreeSans" font-size="10.00">magick/string_.h</text>
</a>
</g>
</g>
<!-- Node1&#45;&gt;Node44 -->
<g id="edge74" class="edge">
<title>Node1&#45;&gt;Node44</title>
<path fill="none" stroke="midnightblue" d="M1293.07,-344.6C1162,-342.8 688.88,-334.05 543,-300 480.94,-285.52 446.18,-297.14 411,-244 402.05,-230.49 403.46,-211.68 406.42,-197.77"/>
<polygon fill="midnightblue" stroke="midnightblue" points="409.86,-198.42 408.96,-187.86 403.08,-196.68 409.86,-198.42"/>
</g>
<!-- Node56 -->
<g id="node33" class="node">
<title>Node56</title>
<g id="a_node33"><a xlink:href="thread-private_8h.html" target="_top" xlink:title=" ">
<polygon fill="white" stroke="red" points="1383,-224.5 1383,-243.5 1517,-243.5 1517,-224.5 1383,-224.5"/>
<text text-anchor="middle" x="1450" y="-231.5" font-family="FreeSans" font-size="10.00">magick/thread&#45;private.h</text>
</a>
</g>
</g>
<!-- Node1&#45;&gt;Node56 -->
<g id="edge77" class="edge">
<title>Node1&#45;&gt;Node56</title>
<path fill="none" stroke="midnightblue" d="M1336.65,-336.37C1357.4,-317.81 1406.49,-273.91 1432.74,-250.44"/>
<polygon fill="midnightblue" stroke="midnightblue" points="1435.27,-252.87 1440.39,-243.59 1430.61,-247.65 1435.27,-252.87"/>
</g>
<!-- Node57 -->
<g id="node34" class="node">
<title>Node57</title>
<g id="a_node34"><a xlink:href="image-private_8h.html" target="_top" xlink:title=" ">
<polygon fill="white" stroke="black" points="1514,-168.5 1514,-187.5 1648,-187.5 1648,-168.5 1514,-168.5"/>
<text text-anchor="middle" x="1581" y="-175.5" font-family="FreeSans" font-size="10.00">magick/image&#45;private.h</text>
</a>
</g>
</g>
<!-- Node1&#45;&gt;Node57 -->
<g id="edge58" class="edge">
<title>Node1&#45;&gt;Node57</title>
<path fill="none" stroke="midnightblue" d="M1360.72,-341.84C1396.22,-337.21 1452.6,-326.11 1494,-300 1533.8,-274.9 1560.96,-224.4 1573.35,-197.25"/>
<polygon fill="midnightblue" stroke="midnightblue" points="1576.69,-198.35 1577.5,-187.79 1570.28,-195.54 1576.69,-198.35"/>
</g>
<!-- Node58 -->
<g id="node35" class="node">
<title>Node58</title>
<g id="a_node35"><a xlink:href="resource___8h.html" target="_top" xlink:title=" ">
<polygon fill="white" stroke="black" points="1666,-168.5 1666,-187.5 1778,-187.5 1778,-168.5 1666,-168.5"/>
<text text-anchor="middle" x="1722" y="-175.5" font-family="FreeSans" font-size="10.00">magick/resource_.h</text>
</a>
</g>
</g>
<!-- Node1&#45;&gt;Node58 -->
<g id="edge70" class="edge">
<title>Node1&#45;&gt;Node58</title>
<path fill="none" stroke="midnightblue" d="M1360.57,-340.49C1400.04,-334.45 1467,-321.87 1521,-300 1558.09,-284.97 1656.69,-221.71 1700.5,-193.13"/>
<polygon fill="midnightblue" stroke="midnightblue" points="1702.52,-195.99 1708.97,-187.58 1698.69,-190.13 1702.52,-195.99"/>
</g>
<!-- Node60 -->
<g id="node36" class="node">
<title>Node60</title>
<g id="a_node36"><a xlink:href="configure_8h.html" target="_top" xlink:title=" ">
<polygon fill="white" stroke="black" points="1725,-280.5 1725,-299.5 1835,-299.5 1835,-280.5 1725,-280.5"/>
<text text-anchor="middle" x="1780" y="-287.5" font-family="FreeSans" font-size="10.00">magick/configure.h</text>
</a>
</g>
</g>
<!-- Node1&#45;&gt;Node60 -->
<g id="edge47" class="edge">
<title>Node1&#45;&gt;Node60</title>
<path fill="none" stroke="midnightblue" d="M1360.66,-341.2C1427.48,-333.64 1581.6,-316.02 1711,-300 1712.11,-299.86 1713.23,-299.72 1714.35,-299.58"/>
<polygon fill="midnightblue" stroke="midnightblue" points="1715.16,-303.01 1724.65,-298.28 1714.29,-296.06 1715.16,-303.01"/>
</g>
<!-- Node41 -->
<g id="node37" class="node">
<title>Node41</title>
<g id="a_node37"><a xlink:href="hashmap_8h.html" target="_top" xlink:title=" ">
<polygon fill="white" stroke="black" points="1716,-224.5 1716,-243.5 1826,-243.5 1826,-224.5 1716,-224.5"/>
<text text-anchor="middle" x="1771" y="-231.5" font-family="FreeSans" font-size="10.00">magick/hashmap.h</text>
</a>
</g>
</g>
<!-- Node1&#45;&gt;Node41 -->
<g id="edge55" class="edge">
<title>Node1&#45;&gt;Node41</title>
<path fill="none" stroke="midnightblue" d="M1360.63,-345.6C1423.9,-345.66 1564.05,-340.7 1673,-300 1703.87,-288.47 1734.78,-265.63 1753.4,-250.33"/>
<polygon fill="midnightblue" stroke="midnightblue" points="1755.88,-252.83 1761.27,-243.71 1751.37,-247.47 1755.88,-252.83"/>
</g>
<!-- Node61 -->
<g id="node38" class="node">
<title>Node61</title>
<g id="a_node38"><a xlink:href="exception-private_8h.html" target="_top" xlink:title=" ">
<polygon fill="white" stroke="red" points="175.5,-224.5 175.5,-243.5 326.5,-243.5 326.5,-224.5 175.5,-224.5"/>
<text text-anchor="middle" x="251" y="-231.5" font-family="FreeSans" font-size="10.00">magick/exception&#45;private.h</text>
</a>
</g>
</g>
<!-- Node1&#45;&gt;Node61 -->
<g id="edge50" class="edge">
<title>Node1&#45;&gt;Node61</title>
<path fill="none" stroke="midnightblue" d="M1293.32,-344.6C1130.87,-342.54 432.42,-331.88 341,-300 311.6,-289.75 283.46,-266.55 266.7,-250.82"/>
<polygon fill="midnightblue" stroke="midnightblue" points="269.06,-248.23 259.43,-243.8 264.19,-253.26 269.06,-248.23"/>
</g>
<!-- Node62 -->
<g id="node39" class="node">
<title>Node62</title>
<g id="a_node39"><a xlink:href="log_8h.html" target="_top" xlink:title=" ">
<polygon fill="white" stroke="black" points="114,-168.5 114,-187.5 194,-187.5 194,-168.5 114,-168.5"/>
<text text-anchor="middle" x="154" y="-175.5" font-family="FreeSans" font-size="10.00">magick/log.h</text>
</a>
</g>
</g>
<!-- Node1&#45;&gt;Node62 -->
<g id="edge56" class="edge">
<title>Node1&#45;&gt;Node62</title>
<path fill="none" stroke="midnightblue" d="M1293.32,-345.11C1138.64,-345.36 495.62,-343.71 300,-300 237.01,-285.93 206.52,-294.24 166,-244 155.54,-231.03 153.08,-211.87 152.92,-197.7"/>
<polygon fill="midnightblue" stroke="midnightblue" points="156.42,-197.72 153.17,-187.63 149.42,-197.54 156.42,-197.72"/>
</g>
<!-- Node64 -->
<g id="node40" class="node">
<title>Node64</title>
<g id="a_node40"><a xlink:href="memory___8h.html" target="_top" xlink:title=" ">
<polygon fill="white" stroke="black" points="1177.5,-224.5 1177.5,-243.5 1288.5,-243.5 1288.5,-224.5 1177.5,-224.5"/>
<text text-anchor="middle" x="1233" y="-231.5" font-family="FreeSans" font-size="10.00">magick/memory_.h</text>
</a>
</g>
</g>
<!-- Node1&#45;&gt;Node64 -->
<g id="edge59" class="edge">
<title>Node1&#45;&gt;Node64</title>
<path fill="none" stroke="midnightblue" d="M1319.62,-336.37C1303.97,-318.05 1267.22,-275.05 1246.98,-251.36"/>
<polygon fill="midnightblue" stroke="midnightblue" points="1249.5,-248.92 1240.34,-243.59 1244.18,-253.47 1249.5,-248.92"/>
</g>
<!-- Node65 -->
<g id="node41" class="node">
<title>Node65</title>
<g id="a_node41"><a xlink:href="nt-base-private_8h.html" target="_top" xlink:title=" ">
<polygon fill="white" stroke="red" points="751,-224.5 751,-243.5 891,-243.5 891,-224.5 751,-224.5"/>
<text text-anchor="middle" x="821" y="-231.5" font-family="FreeSans" font-size="10.00">magick/nt&#45;base&#45;private.h</text>
</a>
</g>
</g>
<!-- Node1&#45;&gt;Node65 -->
<g id="edge62" class="edge">
<title>Node1&#45;&gt;Node65</title>
<path fill="none" stroke="midnightblue" d="M1293.28,-343.15C1209.34,-338.25 992.9,-323.64 925,-300 892.07,-288.53 858.71,-265.14 838.95,-249.77"/>
<polygon fill="midnightblue" stroke="midnightblue" points="841.12,-247.02 831.11,-243.54 836.76,-252.5 841.12,-247.02"/>
</g>
<!-- Node68 -->
<g id="node42" class="node">
<title>Node68</title>
<g id="a_node42"><a xlink:href="splay-tree_8h.html" target="_top" xlink:title=" ">
<polygon fill="white" stroke="black" points="1187,-168.5 1187,-187.5 1301,-187.5 1301,-168.5 1187,-168.5"/>
<text text-anchor="middle" x="1244" y="-175.5" font-family="FreeSans" font-size="10.00">magick/splay&#45;tree.h</text>
</a>
</g>
</g>
<!-- Node1&#45;&gt;Node68 -->
<g id="edge76" class="edge">
<title>Node1&#45;&gt;Node68</title>
<path fill="none" stroke="midnightblue" d="M1326.65,-336.39C1325.45,-315.55 1320.15,-261.34 1297,-224 1289.45,-211.82 1277.5,-201.25 1266.85,-193.43"/>
<polygon fill="midnightblue" stroke="midnightblue" points="1268.56,-190.35 1258.35,-187.53 1264.57,-196.1 1268.56,-190.35"/>
</g>
<!-- Node69 -->
<g id="node43" class="node">
<title>Node69</title>
<g id="a_node43"><a xlink:href="option_8h.html" target="_top" xlink:title=" ">
<polygon fill="white" stroke="black" points="1853.5,-280.5 1853.5,-299.5 1948.5,-299.5 1948.5,-280.5 1853.5,-280.5"/>
<text text-anchor="middle" x="1901" y="-287.5" font-family="FreeSans" font-size="10.00">magick/option.h</text>
</a>
</g>
</g>
<!-- Node1&#45;&gt;Node69 -->
<g id="edge65" class="edge">
<title>Node1&#45;&gt;Node69</title>
<path fill="none" stroke="midnightblue" d="M1360.65,-342.89C1441.75,-337.62 1654.58,-322.77 1843.34,-299.99"/>
<polygon fill="midnightblue" stroke="midnightblue" points="1843.95,-303.44 1853.45,-298.76 1843.1,-296.5 1843.95,-303.44"/>
</g>
<!-- Node70 -->
<g id="node44" class="node">
<title>Node70</title>
<g id="a_node44"><a xlink:href="policy_8h.html" target="_top" xlink:title=" ">
<polygon fill="white" stroke="red" points="506,-168.5 506,-187.5 598,-187.5 598,-168.5 506,-168.5"/>
<text text-anchor="middle" x="552" y="-175.5" font-family="FreeSans" font-size="10.00">magick/policy.h</text>
</a>
</g>
</g>
<!-- Node1&#45;&gt;Node70 -->
<g id="edge66" class="edge">
<title>Node1&#45;&gt;Node70</title>
<path fill="none" stroke="midnightblue" d="M1293.4,-344.45C1210,-342.57 987.1,-334.46 805,-300 718.92,-283.71 691.12,-289.09 616,-244 595.09,-231.45 576.17,-210.47 564.42,-195.75"/>
<polygon fill="midnightblue" stroke="midnightblue" points="566.95,-193.3 558.07,-187.52 561.41,-197.58 566.95,-193.3"/>
</g>
<!-- Node71 -->
<g id="node45" class="node">
<title>Node71</title>
<g id="a_node45"><a xlink:href="registry_8h.html" target="_top" xlink:title=" ">
<polygon fill="white" stroke="black" points="1966.5,-280.5 1966.5,-299.5 2067.5,-299.5 2067.5,-280.5 1966.5,-280.5"/>
<text text-anchor="middle" x="2017" y="-287.5" font-family="FreeSans" font-size="10.00">magick/registry.h</text>
</a>
</g>
</g>
<!-- Node1&#45;&gt;Node71 -->
<g id="edge69" class="edge">
<title>Node1&#45;&gt;Node71</title>
<path fill="none" stroke="midnightblue" d="M1360.61,-343.55C1453.65,-339.35 1722.66,-325.82 1956.15,-300.13"/>
<polygon fill="midnightblue" stroke="midnightblue" points="1956.63,-303.6 1966.19,-299.02 1955.86,-296.64 1956.63,-303.6"/>
</g>
<!-- Node72 -->
<g id="node46" class="node">
<title>Node72</title>
<g id="a_node46"><a xlink:href="signature-private_8h.html" target="_top" xlink:title=" ">
<polygon fill="white" stroke="black" points="420.5,-224.5 420.5,-243.5 569.5,-243.5 569.5,-224.5 420.5,-224.5"/>
<text text-anchor="middle" x="495" y="-231.5" font-family="FreeSans" font-size="10.00">magick/signature&#45;private.h</text>
</a>
</g>
</g>
<!-- Node1&#45;&gt;Node72 -->
<g id="edge72" class="edge">
<title>Node1&#45;&gt;Node72</title>
<path fill="none" stroke="midnightblue" d="M1293.21,-345.48C1165.98,-346.91 716.19,-348.36 583,-300 554.42,-289.62 527.17,-266.8 510.76,-251.16"/>
<polygon fill="midnightblue" stroke="midnightblue" points="512.81,-248.26 503.22,-243.74 507.9,-253.25 512.81,-248.26"/>
</g>
<!-- Node73 -->
<g id="node47" class="node">
<title>Node73</title>
<g id="a_node47"><a xlink:href="string-private_8h.html" target="_top" xlink:title=" ">
<polygon fill="white" stroke="red" points="2085.5,-280.5 2085.5,-299.5 2216.5,-299.5 2216.5,-280.5 2085.5,-280.5"/>
<text text-anchor="middle" x="2151" y="-287.5" font-family="FreeSans" font-size="10.00">magick/string&#45;private.h</text>
</a>
</g>
</g>
<!-- Node1&#45;&gt;Node73 -->
<g id="edge75" class="edge">
<title>Node1&#45;&gt;Node73</title>
<path fill="none" stroke="midnightblue" d="M1360.69,-343.71C1465.17,-339.57 1793.13,-325.38 2075.24,-300.11"/>
<polygon fill="midnightblue" stroke="midnightblue" points="2075.61,-303.59 2085.25,-299.21 2074.98,-296.62 2075.61,-303.59"/>
</g>
<!-- Node75 -->
<g id="node48" class="node">
<title>Node75</title>
<g id="a_node48"><a xlink:href="token_8h.html" target="_top" xlink:title=" ">
<polygon fill="white" stroke="black" points="2235,-280.5 2235,-299.5 2327,-299.5 2327,-280.5 2235,-280.5"/>
<text text-anchor="middle" x="2281" y="-287.5" font-family="FreeSans" font-size="10.00">magick/token.h</text>
</a>
</g>
</g>
<!-- Node1&#45;&gt;Node75 -->
<g id="edge78" class="edge">
<title>Node1&#45;&gt;Node75</title>
<path fill="none" stroke="midnightblue" d="M1360.58,-344.68C1478.05,-343.26 1881.59,-335.98 2224.7,-300.01"/>
<polygon fill="midnightblue" stroke="midnightblue" points="2225.26,-303.47 2234.84,-298.94 2224.52,-296.51 2225.26,-303.47"/>
</g>
<!-- Node76 -->
<g id="node49" class="node">
<title>Node76</title>
<g id="a_node49"><a xlink:href="utility_8h.html" target="_top" xlink:title=" ">
<polygon fill="white" stroke="black" points="2345,-280.5 2345,-299.5 2437,-299.5 2437,-280.5 2345,-280.5"/>
<text text-anchor="middle" x="2391" y="-287.5" font-family="FreeSans" font-size="10.00">magick/utility.h</text>
</a>
</g>
</g>
<!-- Node1&#45;&gt;Node76 -->
<g id="edge79" class="edge">
<title>Node1&#45;&gt;Node76</title>
<path fill="none" stroke="midnightblue" d="M1360.64,-344.93C1487.15,-344.38 1946.53,-339.67 2334.82,-299.99"/>
<polygon fill="midnightblue" stroke="midnightblue" points="2335.25,-303.47 2344.84,-298.96 2334.53,-296.5 2335.25,-303.47"/>
</g>
<!-- Node77 -->
<g id="node50" class="node">
<title>Node77</title>
<g id="a_node50"><a xlink:href="utility-private_8h.html" target="_top" xlink:title=" ">
<polygon fill="white" stroke="red" points="934.5,-280.5 934.5,-299.5 1065.5,-299.5 1065.5,-280.5 934.5,-280.5"/>
<text text-anchor="middle" x="1000" y="-287.5" font-family="FreeSans" font-size="10.00">magick/utility&#45;private.h</text>
</a>
</g>
</g>
<!-- Node1&#45;&gt;Node77 -->
<g id="edge80" class="edge">
<title>Node1&#45;&gt;Node77</title>
<path fill="none" stroke="midnightblue" d="M1293.24,-339.42C1238.76,-330.43 1130.64,-312.57 1062.01,-301.24"/>
<polygon fill="midnightblue" stroke="midnightblue" points="1062.2,-297.72 1051.76,-299.55 1061.06,-304.63 1062.2,-297.72"/>
</g>
<!-- Node3 -->
<g id="node3" class="node">
<title>Node3</title>
<g id="a_node3"><a xlink:href="magick-config_8h.html" target="_top" xlink:title=" ">
<polygon fill="white" stroke="red" points="927,-56.5 927,-75.5 1061,-75.5 1061,-56.5 927,-56.5"/>
<text text-anchor="middle" x="994" y="-63.5" font-family="FreeSans" font-size="10.00">magick/magick&#45;config.h</text>
</a>
</g>
</g>
<!-- Node2&#45;&gt;Node3 -->
<g id="edge2" class="edge">
<title>Node2&#45;&gt;Node3</title>
<path fill="none" stroke="midnightblue" d="M1049.08,-168.47C1043.25,-155.94 1031.83,-131.88 1021,-112 1015.92,-102.68 1009.88,-92.53 1004.8,-84.23"/>
<polygon fill="midnightblue" stroke="midnightblue" points="1007.63,-82.16 999.39,-75.5 1001.68,-85.85 1007.63,-82.16"/>
</g>
<!-- Node5 -->
<g id="node4" class="node">
<title>Node5</title>
<g id="a_node4"><a xlink:title=" ">
<polygon fill="white" stroke="#bfbfbf" points="90,-56.5 90,-75.5 146,-75.5 146,-56.5 90,-56.5"/>
<text text-anchor="middle" x="118" y="-63.5" font-family="FreeSans" font-size="10.00">stdarg.h</text>
</a>
</g>
</g>
<!-- Node2&#45;&gt;Node5 -->
<g id="edge3" class="edge">
<title>Node2&#45;&gt;Node5</title>
<path fill="none" stroke="midnightblue" d="M1007.61,-168.45C971.53,-160.93 920.12,-148.6 877,-132 859.19,-125.14 857.38,-117.15 839,-112 708.77,-75.48 286.18,-68.55 156.32,-67.28"/>
<polygon fill="midnightblue" stroke="midnightblue" points="156.11,-63.78 146.07,-67.18 156.04,-70.78 156.11,-63.78"/>
</g>
<!-- Node6 -->
<g id="node5" class="node">
<title>Node6</title>
<g id="a_node5"><a xlink:title=" ">
<polygon fill="white" stroke="#bfbfbf" points="780,-112.5 780,-131.5 830,-131.5 830,-112.5 780,-112.5"/>
<text text-anchor="middle" x="805" y="-119.5" font-family="FreeSans" font-size="10.00">stdio.h</text>
</a>
</g>
</g>
<!-- Node2&#45;&gt;Node6 -->
<g id="edge4" class="edge">
<title>Node2&#45;&gt;Node6</title>
<path fill="none" stroke="midnightblue" d="M1012.5,-168.47C970.37,-159.54 902.51,-145.05 844,-132 842.74,-131.72 841.46,-131.43 840.17,-131.14"/>
<polygon fill="midnightblue" stroke="midnightblue" points="840.69,-127.67 830.16,-128.86 839.14,-134.5 840.69,-127.67"/>
</g>
<!-- Node7 -->
<g id="node6" class="node">
<title>Node7</title>
<g id="a_node6"><a xlink:title=" ">
<polygon fill="white" stroke="#bfbfbf" points="1068.5,-112.5 1068.5,-131.5 1121.5,-131.5 1121.5,-112.5 1068.5,-112.5"/>
<text text-anchor="middle" x="1095" y="-119.5" font-family="FreeSans" font-size="10.00">ctype.h</text>
</a>
</g>
</g>
<!-- Node2&#45;&gt;Node7 -->
<g id="edge5" class="edge">
<title>Node2&#45;&gt;Node7</title>
<path fill="none" stroke="midnightblue" d="M1059.94,-168.08C1065.93,-160.38 1074.75,-149.03 1082.05,-139.65"/>
<polygon fill="midnightblue" stroke="midnightblue" points="1084.82,-141.79 1088.19,-131.75 1079.29,-137.5 1084.82,-141.79"/>
</g>
<!-- Node8 -->
<g id="node7" class="node">
<title>Node8</title>
<g id="a_node7"><a xlink:title=" ">
<polygon fill="white" stroke="#bfbfbf" points="1139.5,-112.5 1139.5,-131.5 1194.5,-131.5 1194.5,-112.5 1139.5,-112.5"/>
<text text-anchor="middle" x="1167" y="-119.5" font-family="FreeSans" font-size="10.00">locale.h</text>
</a>
</g>
</g>
<!-- Node2&#45;&gt;Node8 -->
<g id="edge6" class="edge">
<title>Node2&#45;&gt;Node8</title>
<path fill="none" stroke="midnightblue" d="M1071.06,-168.44C1089.57,-159.68 1118.58,-145.94 1139.86,-135.86"/>
<polygon fill="midnightblue" stroke="midnightblue" points="1141.48,-138.96 1149.02,-131.52 1138.49,-132.63 1141.48,-138.96"/>
</g>
<!-- Node9 -->
<g id="node8" class="node">
<title>Node9</title>
<g id="a_node8"><a xlink:title=" ">
<polygon fill="white" stroke="#bfbfbf" points="1657.5,-112.5 1657.5,-131.5 1708.5,-131.5 1708.5,-112.5 1657.5,-112.5"/>
<text text-anchor="middle" x="1683" y="-119.5" font-family="FreeSans" font-size="10.00">errno.h</text>
</a>
</g>
</g>
<!-- Node2&#45;&gt;Node9 -->
<g id="edge7" class="edge">
<title>Node2&#45;&gt;Node9</title>
<path fill="none" stroke="midnightblue" d="M1100.81,-171.5C1112.32,-170.27 1124.6,-169.02 1136,-168 1359.88,-148 1421.05,-167.95 1647.3,-131.78"/>
<polygon fill="midnightblue" stroke="midnightblue" points="1648.19,-135.18 1657.5,-130.13 1647.07,-128.27 1648.19,-135.18"/>
</g>
<!-- Node10 -->
<g id="node9" class="node">
<title>Node10</title>
<g id="a_node9"><a xlink:title=" ">
<polygon fill="white" stroke="#bfbfbf" points="1212.5,-112.5 1212.5,-131.5 1259.5,-131.5 1259.5,-112.5 1212.5,-112.5"/>
<text text-anchor="middle" x="1236" y="-119.5" font-family="FreeSans" font-size="10.00">fcntl.h</text>
</a>
</g>
</g>
<!-- Node2&#45;&gt;Node10 -->
<g id="edge8" class="edge">
<title>Node2&#45;&gt;Node10</title>
<path fill="none" stroke="midnightblue" d="M1082,-168.44C1114.84,-158.75 1168.25,-142.99 1202.75,-132.81"/>
<polygon fill="midnightblue" stroke="midnightblue" points="1203.78,-136.16 1212.38,-129.97 1201.79,-129.44 1203.78,-136.16"/>
</g>
<!-- Node11 -->
<g id="node10" class="node">
<title>Node11</title>
<g id="a_node10"><a xlink:title=" ">
<polygon fill="white" stroke="#bfbfbf" points="1277.5,-112.5 1277.5,-131.5 1328.5,-131.5 1328.5,-112.5 1277.5,-112.5"/>
<text text-anchor="middle" x="1303" y="-119.5" font-family="FreeSans" font-size="10.00">math.h</text>
</a>
</g>
</g>
<!-- Node2&#45;&gt;Node11 -->
<g id="edge9" class="edge">
<title>Node2&#45;&gt;Node11</title>
<path fill="none" stroke="midnightblue" d="M1096.78,-168.44C1138.19,-160.21 1202.31,-147.12 1267.39,-132.06"/>
<polygon fill="midnightblue" stroke="midnightblue" points="1268.47,-135.4 1277.42,-129.72 1266.89,-128.58 1268.47,-135.4"/>
</g>
<!-- Node12 -->
<g id="node11" class="node">
<title>Node12</title>
<g id="a_node11"><a xlink:title=" ">
<polygon fill="white" stroke="#bfbfbf" points="236,-112.5 236,-131.5 284,-131.5 284,-112.5 236,-112.5"/>
<text text-anchor="middle" x="260" y="-119.5" font-family="FreeSans" font-size="10.00">time.h</text>
</a>
</g>
</g>
<!-- Node2&#45;&gt;Node12 -->
<g id="edge10" class="edge">
<title>Node2&#45;&gt;Node12</title>
<path fill="none" stroke="midnightblue" d="M1005.46,-169.11C1002.27,-168.7 999.09,-168.32 996,-168 688.18,-135.91 603.73,-180.47 294.18,-131.81"/>
<polygon fill="midnightblue" stroke="midnightblue" points="294.45,-128.31 284.02,-130.19 293.35,-135.22 294.45,-128.31"/>
</g>
<!-- Node13 -->
<g id="node12" class="node">
<title>Node13</title>
<g id="a_node12"><a xlink:title=" ">
<polygon fill="white" stroke="#bfbfbf" points="1346.5,-112.5 1346.5,-131.5 1399.5,-131.5 1399.5,-112.5 1346.5,-112.5"/>
<text text-anchor="middle" x="1373" y="-119.5" font-family="FreeSans" font-size="10.00">limits.h</text>
</a>
</g>
</g>
<!-- Node2&#45;&gt;Node13 -->
<g id="edge11" class="edge">
<title>Node2&#45;&gt;Node13</title>
<path fill="none" stroke="midnightblue" d="M1100.72,-170.74C1155.29,-163.3 1247.49,-149.84 1336.35,-131.97"/>
<polygon fill="midnightblue" stroke="midnightblue" points="1337.22,-135.37 1346.32,-129.95 1335.83,-128.51 1337.22,-135.37"/>
</g>
<!-- Node14 -->
<g id="node13" class="node">
<title>Node14</title>
<g id="a_node13"><a xlink:title=" ">
<polygon fill="white" stroke="#bfbfbf" points="1417.5,-112.5 1417.5,-131.5 1472.5,-131.5 1472.5,-112.5 1417.5,-112.5"/>
<text text-anchor="middle" x="1445" y="-119.5" font-family="FreeSans" font-size="10.00">signal.h</text>
</a>
</g>
</g>
<!-- Node2&#45;&gt;Node14 -->
<g id="edge12" class="edge">
<title>Node2&#45;&gt;Node14</title>
<path fill="none" stroke="midnightblue" d="M1100.7,-171.63C1179.53,-162.65 1334.67,-144.48 1407.12,-131.93"/>
<polygon fill="midnightblue" stroke="midnightblue" points="1407.97,-135.33 1417.19,-130.12 1406.73,-128.44 1407.97,-135.33"/>
</g>
<!-- Node15 -->
<g id="node14" class="node">
<title>Node15</title>
<g id="a_node14"><a xlink:title=" ">
<polygon fill="white" stroke="#bfbfbf" points="1727,-112.5 1727,-131.5 1783,-131.5 1783,-112.5 1727,-112.5"/>
<text text-anchor="middle" x="1755" y="-119.5" font-family="FreeSans" font-size="10.00">assert.h</text>
</a>
</g>
</g>
<!-- Node2&#45;&gt;Node15 -->
<g id="edge13" class="edge">
<title>Node2&#45;&gt;Node15</title>
<path fill="none" stroke="midnightblue" d="M1100.8,-171.44C1112.32,-170.2 1124.59,-168.97 1136,-168 1393.78,-146.05 1461.08,-169.95 1717,-132 1717.1,-131.99 1717.2,-131.97 1717.3,-131.95"/>
<polygon fill="midnightblue" stroke="midnightblue" points="1717.66,-135.45 1726.88,-130.22 1716.42,-128.56 1717.66,-135.45"/>
</g>
<!-- Node16 -->
<g id="node15" class="node">
<title>Node16</title>
<g id="a_node15"><a xlink:href="method-attribute_8h.html" target="_top" xlink:title=" ">
<polygon fill="white" stroke="black" points="1491,-112.5 1491,-131.5 1639,-131.5 1639,-112.5 1491,-112.5"/>
<text text-anchor="middle" x="1565" y="-119.5" font-family="FreeSans" font-size="10.00">magick/method&#45;attribute.h</text>
</a>
</g>
</g>
<!-- Node2&#45;&gt;Node16 -->
<g id="edge14" class="edge">
<title>Node2&#45;&gt;Node16</title>
<path fill="none" stroke="midnightblue" d="M1100.84,-171.78C1112.35,-170.53 1124.61,-169.21 1136,-168 1286.01,-152.04 1325.99,-148.37 1480.45,-132.05"/>
<polygon fill="midnightblue" stroke="midnightblue" points="1481.22,-135.49 1490.8,-130.96 1480.48,-128.53 1481.22,-135.49"/>
</g>
<!-- Node17 -->
<g id="node16" class="node">
<title>Node17</title>
<g id="a_node16"><a xlink:title=" ">
<polygon fill="white" stroke="#bfbfbf" points="302,-112.5 302,-131.5 374,-131.5 374,-112.5 302,-112.5"/>
<text text-anchor="middle" x="338" y="-119.5" font-family="FreeSans" font-size="10.00">sys/types.h</text>
</a>
</g>
</g>
<!-- Node2&#45;&gt;Node17 -->
<g id="edge15" class="edge">
<title>Node2&#45;&gt;Node17</title>
<path fill="none" stroke="midnightblue" d="M1005.46,-169.14C1002.26,-168.72 999.09,-168.33 996,-168 727.98,-139.04 655.44,-166.17 384.42,-132"/>
<polygon fill="midnightblue" stroke="midnightblue" points="384.64,-128.5 374.28,-130.7 383.75,-135.44 384.64,-128.5"/>
</g>
<!-- Node18 -->
<g id="node17" class="node">
<title>Node18</title>
<g id="a_node17"><a xlink:title=" ">
<polygon fill="white" stroke="#bfbfbf" points="392,-112.5 392,-131.5 456,-131.5 456,-112.5 392,-112.5"/>
<text text-anchor="middle" x="424" y="-119.5" font-family="FreeSans" font-size="10.00">sys/stat.h</text>
</a>
</g>
</g>
<!-- Node2&#45;&gt;Node18 -->
<g id="edge16" class="edge">
<title>Node2&#45;&gt;Node18</title>
<path fill="none" stroke="midnightblue" d="M1005.46,-169.17C1002.26,-168.74 999.09,-168.35 996,-168 764.27,-141.9 700.95,-164.78 466.36,-131.98"/>
<polygon fill="midnightblue" stroke="midnightblue" points="466.54,-128.47 456.15,-130.53 465.56,-135.4 466.54,-128.47"/>
</g>
<!-- Node19 -->
<g id="node18" class="node">
<title>Node19</title>
<g id="a_node18"><a xlink:title=" ">
<polygon fill="white" stroke="#bfbfbf" points="474,-112.5 474,-131.5 528,-131.5 528,-112.5 474,-112.5"/>
<text text-anchor="middle" x="501" y="-119.5" font-family="FreeSans" font-size="10.00">dirent.h</text>
</a>
</g>
</g>
<!-- Node2&#45;&gt;Node19 -->
<g id="edge17" class="edge">
<title>Node2&#45;&gt;Node19</title>
<path fill="none" stroke="midnightblue" d="M1005.45,-169.21C1002.26,-168.77 999.08,-168.36 996,-168 796.06,-144.41 740.73,-164.27 538.1,-131.9"/>
<polygon fill="midnightblue" stroke="midnightblue" points="538.46,-128.41 528.03,-130.27 537.34,-135.32 538.46,-128.41"/>
</g>
<!-- Node20 -->
<g id="node19" class="node">
<title>Node20</title>
<g id="a_node19"><a xlink:title=" ">
<polygon fill="white" stroke="#bfbfbf" points="546,-112.5 546,-131.5 612,-131.5 612,-112.5 546,-112.5"/>
<text text-anchor="middle" x="579" y="-119.5" font-family="FreeSans" font-size="10.00">sys/wait.h</text>
</a>
</g>
</g>
<!-- Node2&#45;&gt;Node20 -->
<g id="edge18" class="edge">
<title>Node2&#45;&gt;Node20</title>
<path fill="none" stroke="midnightblue" d="M1005.45,-169.27C1002.25,-168.82 999.08,-168.39 996,-168 833.14,-147.35 788.21,-157.18 622.46,-132.06"/>
<polygon fill="midnightblue" stroke="midnightblue" points="622.82,-128.58 612.41,-130.52 621.76,-135.5 622.82,-128.58"/>
</g>
<!-- Node21 -->
<g id="node20" class="node">
<title>Node21</title>
<g id="a_node20"><a xlink:title=" ">
<polygon fill="white" stroke="#bfbfbf" points="630,-112.5 630,-131.5 676,-131.5 676,-112.5 630,-112.5"/>
<text text-anchor="middle" x="653" y="-119.5" font-family="FreeSans" font-size="10.00">pwd.h</text>
</a>
</g>
</g>
<!-- Node2&#45;&gt;Node21 -->
<g id="edge19" class="edge">
<title>Node2&#45;&gt;Node21</title>
<path fill="none" stroke="midnightblue" d="M1005.44,-169.34C1002.24,-168.87 999.08,-168.42 996,-168 861.37,-149.59 823.29,-158.48 686.35,-131.99"/>
<polygon fill="midnightblue" stroke="midnightblue" points="686.8,-128.51 676.32,-130.02 685.45,-135.38 686.8,-128.51"/>
</g>
<!-- Node22 -->
<g id="node21" class="node">
<title>Node22</title>
<g id="a_node21"><a xlink:href="magick-type_8h.html" target="_top" xlink:title=" ">
<polygon fill="white" stroke="black" points="886,-112.5 886,-131.5 1012,-131.5 1012,-112.5 886,-112.5"/>
<text text-anchor="middle" x="949" y="-119.5" font-family="FreeSans" font-size="10.00">magick/magick&#45;type.h</text>
</a>
</g>
</g>
<!-- Node2&#45;&gt;Node22 -->
<g id="edge20" class="edge">
<title>Node2&#45;&gt;Node22</title>
<path fill="none" stroke="midnightblue" d="M1036.29,-168.32C1019.69,-159.7 994,-146.36 974.78,-136.39"/>
<polygon fill="midnightblue" stroke="midnightblue" points="976.16,-133.16 965.67,-131.65 972.93,-139.37 976.16,-133.16"/>
</g>
<!-- Node23 -->
<g id="node22" class="node">
<title>Node23</title>
<g id="a_node22"><a xlink:title=" ">
<polygon fill="white" stroke="#bfbfbf" points="694,-112.5 694,-131.5 762,-131.5 762,-112.5 694,-112.5"/>
<text text-anchor="middle" x="728" y="-119.5" font-family="FreeSans" font-size="10.00">sys/time.h</text>
</a>
</g>
</g>
<!-- Node2&#45;&gt;Node23 -->
<g id="edge22" class="edge">
<title>Node2&#45;&gt;Node23</title>
<path fill="none" stroke="midnightblue" d="M1005.38,-169.46C936.01,-158.47 811.82,-138.77 772.32,-132.08"/>
<polygon fill="midnightblue" stroke="midnightblue" points="772.69,-128.6 762.24,-130.32 771.49,-135.49 772.69,-128.6"/>
</g>
<!-- Node22&#45;&gt;Node3 -->
<g id="edge21" class="edge">
<title>Node22&#45;&gt;Node3</title>
<path fill="none" stroke="midnightblue" d="M956.43,-112.08C962.85,-104.38 972.31,-93.03 980.12,-83.65"/>
<polygon fill="midnightblue" stroke="midnightblue" points="982.99,-85.67 986.71,-75.75 977.62,-81.19 982.99,-85.67"/>
</g>
<!-- Node25 -->
<g id="node24" class="node">
<title>Node25</title>
<g id="a_node24"><a xlink:href="blob_8h.html" target="_top" xlink:title=" ">
<polygon fill="white" stroke="red" points="1839,-112.5 1839,-131.5 1925,-131.5 1925,-112.5 1839,-112.5"/>
<text text-anchor="middle" x="1882" y="-119.5" font-family="FreeSans" font-size="10.00">magick/blob.h</text>
</a>
</g>
</g>
<!-- Node24&#45;&gt;Node25 -->
<g id="edge24" class="edge">
<title>Node24&#45;&gt;Node25</title>
<path fill="none" stroke="midnightblue" d="M1495.73,-169.32C1498.86,-168.86 1501.98,-168.41 1505,-168 1646.8,-148.64 1683.17,-151.17 1825,-132 1826.26,-131.83 1827.53,-131.66 1828.81,-131.48"/>
<polygon fill="midnightblue" stroke="midnightblue" points="1829.37,-134.93 1838.77,-130.03 1828.37,-128 1829.37,-134.93"/>
</g>
<!-- Node25&#45;&gt;Node26 -->
<g id="edge25" class="edge">
<title>Node25&#45;&gt;Node26</title>
<path fill="none" stroke="midnightblue" d="M1877.66,-112.08C1876.81,-104.93 1877.33,-94.64 1878.81,-85.69"/>
<polygon fill="midnightblue" stroke="midnightblue" points="1882.27,-86.28 1881.06,-75.75 1875.44,-84.73 1882.27,-86.28"/>
</g>
<!-- Node26&#45;&gt;Node25 -->
<g id="edge26" class="edge">
<title>Node26&#45;&gt;Node25</title>
<path fill="none" stroke="midnightblue" d="M1891.32,-75.75C1892.19,-82.86 1891.68,-93.14 1890.22,-102.1"/>
<polygon fill="midnightblue" stroke="midnightblue" points="1886.76,-101.56 1887.99,-112.08 1893.59,-103.09 1886.76,-101.56"/>
</g>
<!-- Node26&#45;&gt;Node32 -->
<g id="edge27" class="edge">
<title>Node26&#45;&gt;Node32</title>
<path fill="none" stroke="midnightblue" d="M1839.3,-57.84C1834.48,-57.18 1829.64,-56.56 1825,-56 1683.22,-38.93 1516.74,-24.25 1424.84,-16.62"/>
<polygon fill="midnightblue" stroke="midnightblue" points="1425.08,-13.13 1414.83,-15.79 1424.5,-20.1 1425.08,-13.13"/>
</g>
<!-- Node51&#45;&gt;Node12 -->
<g id="edge29" class="edge">
<title>Node51&#45;&gt;Node12</title>
<path fill="none" stroke="midnightblue" d="M1099.63,-280.44C1058.54,-272.73 998.78,-260.13 948,-244 925.97,-237 922,-231.09 900,-224 795.76,-190.38 768.07,-185.83 660,-168 501.61,-141.87 456.05,-160.85 294.35,-131.94"/>
<polygon fill="midnightblue" stroke="midnightblue" points="294.51,-128.41 284.04,-130.06 293.25,-135.3 294.51,-128.41"/>
</g>
<!-- Node51&#45;&gt;Node24 -->
<g id="edge30" class="edge">
<title>Node51&#45;&gt;Node24</title>
<path fill="none" stroke="midnightblue" d="M1180.51,-280.5C1210.7,-272.1 1257.39,-258.44 1297,-244 1341.09,-227.92 1390.87,-205.87 1421.08,-192.03"/>
<polygon fill="midnightblue" stroke="midnightblue" points="1422.92,-195.03 1430.54,-187.67 1420,-188.67 1422.92,-195.03"/>
</g>
<!-- Node51&#45;&gt;Node32 -->
<g id="edge46" class="edge">
<title>Node51&#45;&gt;Node32</title>
<path fill="none" stroke="midnightblue" d="M1147.98,-280.22C1145.89,-257.51 1143.88,-196.57 1178,-168 1282.8,-80.26 1698.22,-231.43 1792,-132 1844.89,-75.92 1561.09,-34.83 1424.8,-18.61"/>
<polygon fill="midnightblue" stroke="midnightblue" points="1425.19,-15.14 1414.85,-17.44 1424.38,-22.09 1425.19,-15.14"/>
</g>
<!-- Node52 -->
<g id="node28" class="node">
<title>Node52</title>
<g id="a_node28"><a xlink:href="distribute-cache_8h.html" target="_top" xlink:title=" ">
<polygon fill="white" stroke="black" points="844.5,-168.5 844.5,-187.5 987.5,-187.5 987.5,-168.5 844.5,-168.5"/>
<text text-anchor="middle" x="916" y="-175.5" font-family="FreeSans" font-size="10.00">magick/distribute&#45;cache.h</text>
</a>
</g>
</g>
<!-- Node51&#45;&gt;Node52 -->
<g id="edge31" class="edge">
<title>Node51&#45;&gt;Node52</title>
<path fill="none" stroke="midnightblue" d="M1083.12,-280.92C1049.29,-274.6 1008.48,-263.46 976,-244 955.71,-231.84 938.11,-210.78 927.32,-195.93"/>
<polygon fill="midnightblue" stroke="midnightblue" points="930.11,-193.82 921.51,-187.63 924.37,-197.83 930.11,-193.82"/>
</g>
<!-- Node53 -->
<g id="node30" class="node">
<title>Node53</title>
<g id="a_node30"><a xlink:href="opencl-private_8h.html" target="_top" xlink:title=" ">
<polygon fill="white" stroke="red" points="985.5,-224.5 985.5,-243.5 1120.5,-243.5 1120.5,-224.5 985.5,-224.5"/>
<text text-anchor="middle" x="1053" y="-231.5" font-family="FreeSans" font-size="10.00">magick/opencl&#45;private.h</text>
</a>
</g>
</g>
<!-- Node51&#45;&gt;Node53 -->
<g id="edge35" class="edge">
<title>Node51&#45;&gt;Node53</title>
<path fill="none" stroke="midnightblue" d="M1133.58,-280.32C1118.46,-271.82 1095.18,-258.73 1077.53,-248.8"/>
<polygon fill="midnightblue" stroke="midnightblue" points="1078.82,-245.51 1068.39,-243.65 1075.39,-251.61 1078.82,-245.51"/>
</g>
<!-- Node51&#45;&gt;Node55 -->
<g id="edge37" class="edge">
<title>Node51&#45;&gt;Node55</title>
<path fill="none" stroke="midnightblue" d="M1083.15,-281.06C1080.06,-280.7 1077,-280.34 1074,-280 929.71,-263.52 890.92,-262.53 742.53,-244.03"/>
<polygon fill="midnightblue" stroke="midnightblue" points="742.96,-240.55 732.6,-242.78 742.09,-247.5 742.96,-240.55"/>
</g>
<!-- Node51&#45;&gt;Node56 -->
<g id="edge42" class="edge">
<title>Node51&#45;&gt;Node56</title>
<path fill="none" stroke="midnightblue" d="M1196.69,-280.44C1249.86,-270.9 1335.82,-255.48 1392.63,-245.29"/>
<polygon fill="midnightblue" stroke="midnightblue" points="1393.3,-248.73 1402.53,-243.52 1392.07,-241.84 1393.3,-248.73"/>
</g>
<!-- Node52&#45;&gt;Node31 -->
<g id="edge32" class="edge">
<title>Node52&#45;&gt;Node31</title>
<path fill="none" stroke="midnightblue" d="M844.39,-172.96C696.95,-164.55 362.69,-144.93 227.97,-132.01"/>
<polygon fill="midnightblue" stroke="midnightblue" points="228.15,-128.51 217.85,-131.01 227.46,-135.47 228.15,-128.51"/>
</g>
<!-- Node31&#45;&gt;Node5 -->
<g id="edge33" class="edge">
<title>Node31&#45;&gt;Node5</title>
<path fill="none" stroke="midnightblue" d="M153.9,-112.08C147.76,-104.38 138.73,-93.03 131.26,-83.65"/>
<polygon fill="midnightblue" stroke="midnightblue" points="133.94,-81.39 124.97,-75.75 128.46,-85.75 133.94,-81.39"/>
</g>
<!-- Node31&#45;&gt;Node32 -->
<g id="edge34" class="edge">
<title>Node31&#45;&gt;Node32</title>
<path fill="none" stroke="midnightblue" d="M217.5,-113.12C220.71,-112.73 223.9,-112.35 227,-112 626.64,-66.88 1107.8,-29.38 1285.06,-16.13"/>
<polygon fill="midnightblue" stroke="midnightblue" points="1285.57,-19.6 1295.28,-15.37 1285.05,-12.62 1285.57,-19.6"/>
</g>
<!-- Node53&#45;&gt;Node2 -->
<g id="edge36" class="edge">
<title>Node53&#45;&gt;Node2</title>
<path fill="none" stroke="midnightblue" d="M1053,-224.08C1053,-217.01 1053,-206.86 1053,-197.99"/>
<polygon fill="midnightblue" stroke="midnightblue" points="1056.5,-197.75 1053,-187.75 1049.5,-197.75 1056.5,-197.75"/>
</g>
<!-- Node55&#45;&gt;Node44 -->
<g id="edge38" class="edge">
<title>Node55&#45;&gt;Node44</title>
<path fill="none" stroke="midnightblue" d="M636.69,-224.44C589.92,-214.98 514.54,-199.74 464.15,-189.55"/>
<polygon fill="midnightblue" stroke="midnightblue" points="464.6,-186.07 454.11,-187.52 463.22,-192.93 464.6,-186.07"/>
</g>
<!-- Node44&#45;&gt;Node5 -->
<g id="edge39" class="edge">
<title>Node44&#45;&gt;Node5</title>
<path fill="none" stroke="midnightblue" d="M362.77,-173.52C278.1,-167.03 112.29,-151.91 95,-132 83.04,-118.23 93.47,-97.82 103.87,-83.56"/>
<polygon fill="midnightblue" stroke="midnightblue" points="106.71,-85.61 110.14,-75.59 101.21,-81.28 106.71,-85.61"/>
</g>
<!-- Node44&#45;&gt;Node12 -->
<g id="edge40" class="edge">
<title>Node44&#45;&gt;Node12</title>
<path fill="none" stroke="midnightblue" d="M387.92,-168.44C362.46,-159.4 322.11,-145.06 293.54,-134.92"/>
<polygon fill="midnightblue" stroke="midnightblue" points="294.57,-131.57 283.97,-131.52 292.22,-138.16 294.57,-131.57"/>
</g>
<!-- Node44&#45;&gt;Node31 -->
<g id="edge41" class="edge">
<title>Node44&#45;&gt;Node31</title>
<path fill="none" stroke="midnightblue" d="M372.23,-168.44C328.44,-159.02 257.99,-143.87 210.62,-133.68"/>
<polygon fill="midnightblue" stroke="midnightblue" points="211.1,-130.2 200.59,-131.52 209.63,-137.04 211.1,-130.2"/>
</g>
<!-- Node56&#45;&gt;Node24 -->
<g id="edge43" class="edge">
<title>Node56&#45;&gt;Node24</title>
<path fill="none" stroke="midnightblue" d="M1449.83,-224.08C1449.7,-217.01 1449.52,-206.86 1449.35,-197.99"/>
<polygon fill="midnightblue" stroke="midnightblue" points="1452.85,-197.68 1449.16,-187.75 1445.85,-197.81 1452.85,-197.68"/>
</g>
<!-- Node56&#45;&gt;Node57 -->
<g id="edge44" class="edge">
<title>Node56&#45;&gt;Node57</title>
<path fill="none" stroke="midnightblue" d="M1470.76,-224.44C1492.32,-215.56 1526.26,-201.56 1550.79,-191.45"/>
<polygon fill="midnightblue" stroke="midnightblue" points="1552.43,-194.56 1560.34,-187.52 1549.76,-188.09 1552.43,-194.56"/>
</g>
<!-- Node56&#45;&gt;Node58 -->
<g id="edge45" class="edge">
<title>Node56&#45;&gt;Node58</title>
<path fill="none" stroke="midnightblue" d="M1493.1,-224.44C1540.85,-214.96 1617.86,-199.67 1669.19,-189.48"/>
<polygon fill="midnightblue" stroke="midnightblue" points="1669.98,-192.9 1679.1,-187.52 1668.61,-186.03 1669.98,-192.9"/>
</g>
<!-- Node60&#45;&gt;Node41 -->
<g id="edge48" class="edge">
<title>Node60&#45;&gt;Node41</title>
<path fill="none" stroke="midnightblue" d="M1778.51,-280.08C1777.32,-272.93 1775.61,-262.64 1774.12,-253.69"/>
<polygon fill="midnightblue" stroke="midnightblue" points="1777.55,-253.04 1772.46,-243.75 1770.65,-254.19 1777.55,-253.04"/>
</g>
<!-- Node61&#45;&gt;Node44 -->
<g id="edge54" class="edge">
<title>Node61&#45;&gt;Node44</title>
<path fill="none" stroke="midnightblue" d="M276.51,-224.44C303.6,-215.36 346.59,-200.94 376.87,-190.78"/>
<polygon fill="midnightblue" stroke="midnightblue" points="378.24,-194.01 386.61,-187.52 376.01,-187.38 378.24,-194.01"/>
</g>
<!-- Node61&#45;&gt;Node62 -->
<g id="edge51" class="edge">
<title>Node61&#45;&gt;Node62</title>
<path fill="none" stroke="midnightblue" d="M235.42,-224.32C220,-215.74 196.19,-202.49 178.29,-192.52"/>
<polygon fill="midnightblue" stroke="midnightblue" points="179.99,-189.46 169.55,-187.65 176.58,-195.58 179.99,-189.46"/>
</g>
<!-- Node62&#45;&gt;Node5 -->
<g id="edge52" class="edge">
<title>Node62&#45;&gt;Node5</title>
<path fill="none" stroke="midnightblue" d="M115.15,-168.36C95.62,-161.85 73.67,-150.7 62,-132 49.96,-112.71 72.18,-93.32 92.09,-80.8"/>
<polygon fill="midnightblue" stroke="midnightblue" points="94.12,-83.67 100.95,-75.56 90.56,-77.64 94.12,-83.67"/>
</g>
<!-- Node62&#45;&gt;Node31 -->
<g id="edge53" class="edge">
<title>Node62&#45;&gt;Node31</title>
<path fill="none" stroke="midnightblue" d="M155.16,-168.08C156.08,-160.93 157.42,-150.64 158.58,-141.69"/>
<polygon fill="midnightblue" stroke="midnightblue" points="162.05,-142.12 159.87,-131.75 155.11,-141.22 162.05,-142.12"/>
</g>
<!-- Node64&#45;&gt;Node9 -->
<g id="edge60" class="edge">
<title>Node64&#45;&gt;Node9</title>
<path fill="none" stroke="midnightblue" d="M1248.01,-224.4C1276.22,-208.4 1336.31,-175.02 1359,-168 1479.63,-130.67 1518.92,-154.91 1647.64,-131.79"/>
<polygon fill="midnightblue" stroke="midnightblue" points="1648.28,-135.23 1657.47,-129.97 1647,-128.35 1648.28,-135.23"/>
</g>
<!-- Node64&#45;&gt;Node15 -->
<g id="edge61" class="edge">
<title>Node64&#45;&gt;Node15</title>
<path fill="none" stroke="midnightblue" d="M1257.88,-224.35C1282.14,-215.74 1319.96,-201.84 1352,-188 1370.61,-179.96 1373.53,-173.65 1393,-168 1532.15,-127.65 1574.24,-156.74 1717,-132 1717.1,-131.98 1717.2,-131.97 1717.3,-131.95"/>
<polygon fill="midnightblue" stroke="midnightblue" points="1717.72,-135.43 1726.86,-130.07 1716.37,-128.56 1717.72,-135.43"/>
</g>
<!-- Node65&#45;&gt;Node31 -->
<g id="edge63" class="edge">
<title>Node65&#45;&gt;Node31</title>
<path fill="none" stroke="midnightblue" d="M798.27,-224.44C759.59,-210.25 678.24,-182.05 607,-168 443.73,-135.81 397.28,-150.86 227.53,-132"/>
<polygon fill="midnightblue" stroke="midnightblue" points="227.84,-128.51 217.51,-130.86 227.05,-135.47 227.84,-128.51"/>
</g>
<!-- Node65&#45;&gt;Node68 -->
<g id="edge64" class="edge">
<title>Node65&#45;&gt;Node68</title>
<path fill="none" stroke="midnightblue" d="M888.03,-224.44C966.95,-214.37 1097.29,-197.73 1176.44,-187.62"/>
<polygon fill="midnightblue" stroke="midnightblue" points="1177.31,-191.04 1186.78,-186.3 1176.42,-184.1 1177.31,-191.04"/>
</g>
<!-- Node70&#45;&gt;Node31 -->
<g id="edge67" class="edge">
<title>Node70&#45;&gt;Node31</title>
<path fill="none" stroke="midnightblue" d="M506,-170.65C437.22,-161.15 307.21,-143.19 227.91,-132.24"/>
<polygon fill="midnightblue" stroke="midnightblue" points="227.94,-128.71 217.55,-130.81 226.98,-135.65 227.94,-128.71"/>
</g>
<!-- Node72&#45;&gt;Node44 -->
<g id="edge73" class="edge">
<title>Node72&#45;&gt;Node44</title>
<path fill="none" stroke="midnightblue" d="M481.66,-224.32C468.84,-215.98 449.22,-203.21 434.06,-193.35"/>
<polygon fill="midnightblue" stroke="midnightblue" points="435.59,-190.17 425.3,-187.65 431.78,-196.04 435.59,-190.17"/>
</g>
<!-- Node77&#45;&gt;Node64 -->
<g id="edge81" class="edge">
<title>Node77&#45;&gt;Node64</title>
<path fill="none" stroke="midnightblue" d="M1036.92,-280.44C1077.4,-271.06 1142.42,-255.99 1186.38,-245.8"/>
<polygon fill="midnightblue" stroke="midnightblue" points="1187.3,-249.18 1196.25,-243.52 1185.72,-242.36 1187.3,-249.18"/>
</g>
<!-- Node77&#45;&gt;Node65 -->
<g id="edge82" class="edge">
<title>Node77&#45;&gt;Node65</title>
<path fill="none" stroke="midnightblue" d="M971.64,-280.44C941.26,-271.28 892.89,-256.69 859.18,-246.52"/>
<polygon fill="midnightblue" stroke="midnightblue" points="859.82,-243.05 849.23,-243.52 857.79,-249.76 859.82,-243.05"/>
</g>
</g>
</svg>
