<?xml version="1.0" encoding="UTF-8" standalone="no"?>
<!DOCTYPE svg PUBLIC "-//W3C//DTD SVG 1.1//EN"
 "http://www.w3.org/Graphics/SVG/1.1/DTD/svg11.dtd">
<!-- Generated by graphviz version 2.43.0 (0)
 -->
<!-- Title: segment.h Pages: 1 -->
<svg width="917pt" height="140pt"
 viewBox="0.00 0.00 916.50 140.00" xmlns="http://www.w3.org/2000/svg" xmlns:xlink="http://www.w3.org/1999/xlink">
<g id="graph0" class="graph" transform="scale(1 1) rotate(0) translate(4 136)">
<title>segment.h</title>
<polygon fill="white" stroke="transparent" points="-4,4 -4,-136 912.5,-136 912.5,4 -4,4"/>
<!-- Node1 -->
<g id="node1" class="node">
<title>Node1</title>
<g id="a_node1"><a xlink:title=" ">
<polygon fill="#bfbfbf" stroke="black" points="475,-112.5 475,-131.5 543,-131.5 543,-112.5 475,-112.5"/>
<text text-anchor="middle" x="509" y="-119.5" font-family="FreeSans" font-size="10.00">segment.h</text>
</a>
</g>
</g>
<!-- Node2 -->
<g id="node2" class="node">
<title>Node2</title>
<g id="a_node2"><a xlink:href="MagickCore_8h.html" target="_top" xlink:title=" ">
<polygon fill="white" stroke="black" points="89.5,-56.5 89.5,-75.5 172.5,-75.5 172.5,-56.5 89.5,-56.5"/>
<text text-anchor="middle" x="131" y="-63.5" font-family="FreeSans" font-size="10.00">MagickCore.h</text>
</a>
</g>
</g>
<!-- Node1&#45;&gt;Node2 -->
<g id="edge1" class="edge">
<title>Node1&#45;&gt;Node2</title>
<path fill="none" stroke="midnightblue" d="M464.58,-115.43C401.61,-107.41 282.82,-91.83 182,-76 178.98,-75.53 175.86,-75.02 172.73,-74.5"/>
<polygon fill="midnightblue" stroke="midnightblue" points="464.21,-118.91 474.57,-116.7 465.09,-111.97 464.21,-118.91"/>
</g>
<!-- Node6 -->
<g id="node6" class="node">
<title>Node6</title>
<g id="a_node6"><a xlink:href="attribute_8c.html" target="_top" xlink:title=" ">
<polygon fill="white" stroke="black" points="190.5,-56.5 190.5,-75.5 257.5,-75.5 257.5,-56.5 190.5,-56.5"/>
<text text-anchor="middle" x="224" y="-63.5" font-family="FreeSans" font-size="10.00">attribute.c</text>
</a>
</g>
</g>
<!-- Node1&#45;&gt;Node6 -->
<g id="edge5" class="edge">
<title>Node1&#45;&gt;Node6</title>
<path fill="none" stroke="midnightblue" d="M465.03,-113.13C416.49,-104.37 336.08,-89.65 267,-76 264.01,-75.41 260.9,-74.78 257.79,-74.15"/>
<polygon fill="midnightblue" stroke="midnightblue" points="464.43,-116.58 474.89,-114.91 465.67,-109.69 464.43,-116.58"/>
</g>
<!-- Node7 -->
<g id="node7" class="node">
<title>Node7</title>
<g id="a_node7"><a xlink:href="deprecate_8c.html" target="_top" xlink:title=" ">
<polygon fill="white" stroke="black" points="276,-56.5 276,-75.5 350,-75.5 350,-56.5 276,-56.5"/>
<text text-anchor="middle" x="313" y="-63.5" font-family="FreeSans" font-size="10.00">deprecate.c</text>
</a>
</g>
</g>
<!-- Node1&#45;&gt;Node7 -->
<g id="edge6" class="edge">
<title>Node1&#45;&gt;Node7</title>
<path fill="none" stroke="midnightblue" d="M467.98,-109.7C430.99,-99.51 377.4,-84.74 343.91,-75.52"/>
<polygon fill="midnightblue" stroke="midnightblue" points="467.37,-113.16 477.94,-112.44 469.23,-106.41 467.37,-113.16"/>
</g>
<!-- Node8 -->
<g id="node8" class="node">
<title>Node8</title>
<g id="a_node8"><a xlink:href="display_8c.html" target="_top" xlink:title=" ">
<polygon fill="white" stroke="black" points="368.5,-56.5 368.5,-75.5 427.5,-75.5 427.5,-56.5 368.5,-56.5"/>
<text text-anchor="middle" x="398" y="-63.5" font-family="FreeSans" font-size="10.00">display.c</text>
</a>
</g>
</g>
<!-- Node1&#45;&gt;Node8 -->
<g id="edge7" class="edge">
<title>Node1&#45;&gt;Node8</title>
<path fill="none" stroke="midnightblue" d="M481.99,-107.86C461.41,-97.85 433.66,-84.35 415.79,-75.65"/>
<polygon fill="midnightblue" stroke="midnightblue" points="480.64,-111.1 491.17,-112.32 483.7,-104.8 480.64,-111.1"/>
</g>
<!-- Node9 -->
<g id="node9" class="node">
<title>Node9</title>
<g id="a_node9"><a xlink:href="effect_8c.html" target="_top" xlink:title=" ">
<polygon fill="white" stroke="black" points="445.5,-56.5 445.5,-75.5 498.5,-75.5 498.5,-56.5 445.5,-56.5"/>
<text text-anchor="middle" x="472" y="-63.5" font-family="FreeSans" font-size="10.00">effect.c</text>
</a>
</g>
</g>
<!-- Node1&#45;&gt;Node9 -->
<g id="edge8" class="edge">
<title>Node1&#45;&gt;Node9</title>
<path fill="none" stroke="midnightblue" d="M497.05,-103.57C490.69,-94.27 483.13,-83.25 478,-75.75"/>
<polygon fill="midnightblue" stroke="midnightblue" points="494.35,-105.81 502.89,-112.08 500.13,-101.86 494.35,-105.81"/>
</g>
<!-- Node10 -->
<g id="node10" class="node">
<title>Node10</title>
<g id="a_node10"><a xlink:href="feature_8c.html" target="_top" xlink:title=" ">
<polygon fill="white" stroke="black" points="517,-56.5 517,-75.5 577,-75.5 577,-56.5 517,-56.5"/>
<text text-anchor="middle" x="547" y="-63.5" font-family="FreeSans" font-size="10.00">feature.c</text>
</a>
</g>
</g>
<!-- Node1&#45;&gt;Node10 -->
<g id="edge9" class="edge">
<title>Node1&#45;&gt;Node10</title>
<path fill="none" stroke="midnightblue" d="M521.06,-103.86C527.64,-94.5 535.51,-83.33 540.84,-75.75"/>
<polygon fill="midnightblue" stroke="midnightblue" points="518.17,-101.89 515.27,-112.08 523.89,-105.92 518.17,-101.89"/>
</g>
<!-- Node11 -->
<g id="node11" class="node">
<title>Node11</title>
<g id="a_node11"><a xlink:href="image_8c.html" target="_top" xlink:title=" ">
<polygon fill="white" stroke="black" points="595,-56.5 595,-75.5 651,-75.5 651,-56.5 595,-56.5"/>
<text text-anchor="middle" x="623" y="-63.5" font-family="FreeSans" font-size="10.00">image.c</text>
</a>
</g>
</g>
<!-- Node1&#45;&gt;Node11 -->
<g id="edge10" class="edge">
<title>Node1&#45;&gt;Node11</title>
<path fill="none" stroke="midnightblue" d="M536.24,-108.1C557.54,-98.01 586.54,-84.27 605.02,-75.52"/>
<polygon fill="midnightblue" stroke="midnightblue" points="534.6,-105 527.06,-112.44 537.6,-111.33 534.6,-105"/>
</g>
<!-- Node12 -->
<g id="node12" class="node">
<title>Node12</title>
<g id="a_node12"><a xlink:href="segment_8c.html" target="_top" xlink:title=" ">
<polygon fill="white" stroke="black" points="669,-56.5 669,-75.5 737,-75.5 737,-56.5 669,-56.5"/>
<text text-anchor="middle" x="703" y="-63.5" font-family="FreeSans" font-size="10.00">segment.c</text>
</a>
</g>
</g>
<!-- Node1&#45;&gt;Node12 -->
<g id="edge11" class="edge">
<title>Node1&#45;&gt;Node12</title>
<path fill="none" stroke="midnightblue" d="M549.6,-109.7C586.22,-99.51 639.26,-84.74 672.4,-75.52"/>
<polygon fill="midnightblue" stroke="midnightblue" points="548.44,-106.39 539.74,-112.44 550.31,-113.13 548.44,-106.39"/>
</g>
<!-- Node13 -->
<g id="node13" class="node">
<title>Node13</title>
<g id="a_node13"><a xlink:href="statistic_8c.html" target="_top" xlink:title=" ">
<polygon fill="white" stroke="black" points="755,-56.5 755,-75.5 819,-75.5 819,-56.5 755,-56.5"/>
<text text-anchor="middle" x="787" y="-63.5" font-family="FreeSans" font-size="10.00">statistic.c</text>
</a>
</g>
</g>
<!-- Node1&#45;&gt;Node13 -->
<g id="edge12" class="edge">
<title>Node1&#45;&gt;Node13</title>
<path fill="none" stroke="midnightblue" d="M553.19,-113C600.85,-104.28 678.91,-89.73 746,-76 748.86,-75.42 751.82,-74.79 754.79,-74.16"/>
<polygon fill="midnightblue" stroke="midnightblue" points="552.41,-109.58 543.21,-114.82 553.67,-116.47 552.41,-109.58"/>
</g>
<!-- Node14 -->
<g id="node14" class="node">
<title>Node14</title>
<g id="a_node14"><a xlink:href="threshold_8c.html" target="_top" xlink:title=" ">
<polygon fill="white" stroke="black" points="837.5,-56.5 837.5,-75.5 908.5,-75.5 908.5,-56.5 837.5,-56.5"/>
<text text-anchor="middle" x="873" y="-63.5" font-family="FreeSans" font-size="10.00">threshold.c</text>
</a>
</g>
</g>
<!-- Node1&#45;&gt;Node14 -->
<g id="edge13" class="edge">
<title>Node1&#45;&gt;Node14</title>
<path fill="none" stroke="midnightblue" d="M553.25,-115.57C614.95,-107.82 730.27,-92.65 828,-76 830.98,-75.49 834.07,-74.94 837.17,-74.36"/>
<polygon fill="midnightblue" stroke="midnightblue" points="552.58,-112.13 543.09,-116.84 553.45,-119.07 552.58,-112.13"/>
</g>
<!-- Node3 -->
<g id="node3" class="node">
<title>Node3</title>
<g id="a_node3"><a xlink:href="ImageMagick_8h.html" target="_top" xlink:title=" ">
<polygon fill="white" stroke="black" points="0,-0.5 0,-19.5 92,-19.5 92,-0.5 0,-0.5"/>
<text text-anchor="middle" x="46" y="-7.5" font-family="FreeSans" font-size="10.00">ImageMagick.h</text>
</a>
</g>
</g>
<!-- Node2&#45;&gt;Node3 -->
<g id="edge2" class="edge">
<title>Node2&#45;&gt;Node3</title>
<path fill="none" stroke="midnightblue" d="M108.81,-50.9C93.22,-41 72.87,-28.07 59.62,-19.65"/>
<polygon fill="midnightblue" stroke="midnightblue" points="107.03,-53.92 117.34,-56.32 110.78,-48.01 107.03,-53.92"/>
</g>
<!-- Node4 -->
<g id="node4" class="node">
<title>Node4</title>
<g id="a_node4"><a xlink:href="api_8h.html" target="_top" xlink:title=" ">
<polygon fill="white" stroke="black" points="110.5,-0.5 110.5,-19.5 151.5,-19.5 151.5,-0.5 110.5,-0.5"/>
<text text-anchor="middle" x="131" y="-7.5" font-family="FreeSans" font-size="10.00">api.h</text>
</a>
</g>
</g>
<!-- Node2&#45;&gt;Node4 -->
<g id="edge3" class="edge">
<title>Node2&#45;&gt;Node4</title>
<path fill="none" stroke="midnightblue" d="M131,-45.8C131,-36.91 131,-26.78 131,-19.75"/>
<polygon fill="midnightblue" stroke="midnightblue" points="127.5,-46.08 131,-56.08 134.5,-46.08 127.5,-46.08"/>
</g>
<!-- Node5 -->
<g id="node5" class="node">
<title>Node5</title>
<g id="a_node5"><a xlink:href="image-view_8c.html" target="_top" xlink:title=" ">
<polygon fill="white" stroke="black" points="169.5,-0.5 169.5,-19.5 250.5,-19.5 250.5,-0.5 169.5,-0.5"/>
<text text-anchor="middle" x="210" y="-7.5" font-family="FreeSans" font-size="10.00">image&#45;view.c</text>
</a>
</g>
</g>
<!-- Node2&#45;&gt;Node5 -->
<g id="edge4" class="edge">
<title>Node2&#45;&gt;Node5</title>
<path fill="none" stroke="midnightblue" d="M152.03,-50.62C166.47,-40.76 185.14,-27.99 197.34,-19.65"/>
<polygon fill="midnightblue" stroke="midnightblue" points="149.97,-47.79 143.69,-56.32 153.92,-53.57 149.97,-47.79"/>
</g>
</g>
</svg>
