<?xml version="1.0" encoding="UTF-8" standalone="no"?>
<!DOCTYPE svg PUBLIC "-//W3C//DTD SVG 1.1//EN"
 "http://www.w3.org/Graphics/SVG/1.1/DTD/svg11.dtd">
<!-- Generated by graphviz version 2.43.0 (0)
 -->
<!-- Title: semaphore.c Pages: 1 -->
<svg width="2788pt" height="420pt"
 viewBox="0.00 0.00 2787.50 420.00" xmlns="http://www.w3.org/2000/svg" xmlns:xlink="http://www.w3.org/1999/xlink">
<g id="graph0" class="graph" transform="scale(1 1) rotate(0) translate(4 416)">
<title>semaphore.c</title>
<polygon fill="white" stroke="transparent" points="-4,4 -4,-416 2783.5,-416 2783.5,4 -4,4"/>
<!-- Node1 -->
<g id="node1" class="node">
<title>Node1</title>
<g id="a_node1"><a xlink:title=" ">
<polygon fill="#bfbfbf" stroke="black" points="1952.5,-392.5 1952.5,-411.5 2032.5,-411.5 2032.5,-392.5 1952.5,-392.5"/>
<text text-anchor="middle" x="1992.5" y="-399.5" font-family="FreeSans" font-size="10.00">semaphore.c</text>
</a>
</g>
</g>
<!-- Node2 -->
<g id="node2" class="node">
<title>Node2</title>
<g id="a_node2"><a xlink:href="studio_8h.html" target="_top" xlink:title=" ">
<polygon fill="white" stroke="black" points="940,-224.5 940,-243.5 1035,-243.5 1035,-224.5 940,-224.5"/>
<text text-anchor="middle" x="987.5" y="-231.5" font-family="FreeSans" font-size="10.00">magick/studio.h</text>
</a>
</g>
</g>
<!-- Node1&#45;&gt;Node2 -->
<g id="edge1" class="edge">
<title>Node1&#45;&gt;Node2</title>
<path fill="none" stroke="midnightblue" d="M1952.47,-397.94C1878.11,-391.98 1713.76,-377.47 1576.5,-356 1372.29,-324.05 1131.64,-269.14 1033.06,-245.9"/>
<polygon fill="midnightblue" stroke="midnightblue" points="1033.68,-242.45 1023.14,-243.56 1032.07,-249.26 1033.68,-242.45"/>
</g>
<!-- Node24 -->
<g id="node24" class="node">
<title>Node24</title>
<g id="a_node24"><a xlink:href="exception_8h.html" target="_top" xlink:title=" ">
<polygon fill="white" stroke="black" points="2092,-56.5 2092,-75.5 2205,-75.5 2205,-56.5 2092,-56.5"/>
<text text-anchor="middle" x="2148.5" y="-63.5" font-family="FreeSans" font-size="10.00">magick/exception.h</text>
</a>
</g>
</g>
<!-- Node1&#45;&gt;Node24 -->
<g id="edge24" class="edge">
<title>Node1&#45;&gt;Node24</title>
<path fill="none" stroke="midnightblue" d="M1995.74,-392.46C2001.19,-379.04 2013.3,-352.81 2030.5,-336 2127.53,-241.17 2228.64,-304.9 2297.5,-188 2314.64,-158.9 2317.64,-139.12 2297.5,-112 2278.54,-86.47 2245.52,-74.9 2215.37,-69.85"/>
<polygon fill="midnightblue" stroke="midnightblue" points="2215.69,-66.36 2205.29,-68.38 2214.68,-73.29 2215.69,-66.36"/>
</g>
<!-- Node25 -->
<g id="node25" class="node">
<title>Node25</title>
<g id="a_node25"><a xlink:href="semaphore_8h.html" target="_top" xlink:title=" ">
<polygon fill="white" stroke="black" points="2089,-0.5 2089,-19.5 2208,-19.5 2208,-0.5 2089,-0.5"/>
<text text-anchor="middle" x="2148.5" y="-7.5" font-family="FreeSans" font-size="10.00">magick/semaphore.h</text>
</a>
</g>
</g>
<!-- Node1&#45;&gt;Node25 -->
<g id="edge44" class="edge">
<title>Node1&#45;&gt;Node25</title>
<path fill="none" stroke="midnightblue" d="M2032.61,-399.67C2192.98,-393.82 2779.5,-367.22 2779.5,-291 2779.5,-291 2779.5,-291 2779.5,-121 2779.5,-44.66 2694.63,-74.26 2620.5,-56 2480.68,-21.55 2311.53,-13.17 2218.44,-11.32"/>
<polygon fill="midnightblue" stroke="midnightblue" points="2218.36,-7.81 2208.3,-11.13 2218.23,-14.81 2218.36,-7.81"/>
</g>
<!-- Node26 -->
<g id="node26" class="node">
<title>Node26</title>
<g id="a_node26"><a xlink:href="exception-private_8h.html" target="_top" xlink:title=" ">
<polygon fill="white" stroke="black" points="1809,-168.5 1809,-187.5 1960,-187.5 1960,-168.5 1809,-168.5"/>
<text text-anchor="middle" x="1884.5" y="-175.5" font-family="FreeSans" font-size="10.00">magick/exception&#45;private.h</text>
</a>
</g>
</g>
<!-- Node1&#45;&gt;Node26 -->
<g id="edge27" class="edge">
<title>Node1&#45;&gt;Node26</title>
<path fill="none" stroke="midnightblue" d="M1983.08,-392.26C1966.03,-375.87 1930.09,-338.7 1911.5,-300 1895.25,-266.17 1888.61,-222.28 1886.03,-197.74"/>
<polygon fill="midnightblue" stroke="midnightblue" points="1889.5,-197.28 1885.08,-187.65 1882.53,-197.93 1889.5,-197.28"/>
</g>
<!-- Node29 -->
<g id="node29" class="node">
<title>Node29</title>
<g id="a_node29"><a xlink:href="string___8h.html" target="_top" xlink:title=" ">
<polygon fill="white" stroke="black" points="1672.5,-112.5 1672.5,-131.5 1770.5,-131.5 1770.5,-112.5 1672.5,-112.5"/>
<text text-anchor="middle" x="1721.5" y="-119.5" font-family="FreeSans" font-size="10.00">magick/string_.h</text>
</a>
</g>
</g>
<!-- Node1&#45;&gt;Node29 -->
<g id="edge46" class="edge">
<title>Node1&#45;&gt;Node29</title>
<path fill="none" stroke="midnightblue" d="M1952.26,-397.82C1855.26,-389.03 1616.5,-360.37 1616.5,-291 1616.5,-291 1616.5,-291 1616.5,-233 1616.5,-202.9 1616.42,-191.28 1635.5,-168 1647.73,-153.07 1666.23,-142.5 1682.94,-135.36"/>
<polygon fill="midnightblue" stroke="midnightblue" points="1684.52,-138.51 1692.51,-131.56 1681.93,-132 1684.52,-138.51"/>
</g>
<!-- Node30 -->
<g id="node30" class="node">
<title>Node30</title>
<g id="a_node30"><a xlink:href="memory___8h.html" target="_top" xlink:title=" ">
<polygon fill="white" stroke="black" points="1477,-224.5 1477,-243.5 1588,-243.5 1588,-224.5 1477,-224.5"/>
<text text-anchor="middle" x="1532.5" y="-231.5" font-family="FreeSans" font-size="10.00">magick/memory_.h</text>
</a>
</g>
</g>
<!-- Node1&#45;&gt;Node30 -->
<g id="edge38" class="edge">
<title>Node1&#45;&gt;Node30</title>
<path fill="none" stroke="midnightblue" d="M1952.2,-400.84C1864.44,-399.79 1659.35,-393.29 1602.5,-356 1565.58,-331.78 1545.78,-280.87 1537.42,-253.44"/>
<polygon fill="midnightblue" stroke="midnightblue" points="1540.71,-252.23 1534.6,-243.57 1533.98,-254.15 1540.71,-252.23"/>
</g>
<!-- Node31 -->
<g id="node31" class="node">
<title>Node31</title>
<g id="a_node31"><a xlink:href="memory-private_8h.html" target="_top" xlink:title=" ">
<polygon fill="white" stroke="black" points="369.5,-336.5 369.5,-355.5 513.5,-355.5 513.5,-336.5 369.5,-336.5"/>
<text text-anchor="middle" x="441.5" y="-343.5" font-family="FreeSans" font-size="10.00">magick/memory&#45;private.h</text>
</a>
</g>
</g>
<!-- Node1&#45;&gt;Node31 -->
<g id="edge41" class="edge">
<title>Node1&#45;&gt;Node31</title>
<path fill="none" stroke="midnightblue" d="M1952.21,-399.6C1746.12,-392.42 808.55,-359.78 523.77,-349.86"/>
<polygon fill="midnightblue" stroke="midnightblue" points="523.63,-346.36 513.52,-349.51 523.39,-353.35 523.63,-346.36"/>
</g>
<!-- Node32 -->
<g id="node32" class="node">
<title>Node32</title>
<g id="a_node32"><a xlink:href="mutex_8h.html" target="_top" xlink:title=" ">
<polygon fill="white" stroke="black" points="2039.5,-336.5 2039.5,-355.5 2135.5,-355.5 2135.5,-336.5 2039.5,-336.5"/>
<text text-anchor="middle" x="2087.5" y="-343.5" font-family="FreeSans" font-size="10.00">magick/mutex.h</text>
</a>
</g>
</g>
<!-- Node1&#45;&gt;Node32 -->
<g id="edge43" class="edge">
<title>Node1&#45;&gt;Node32</title>
<path fill="none" stroke="midnightblue" d="M2007.76,-392.32C2022.72,-383.82 2045.75,-370.73 2063.23,-360.8"/>
<polygon fill="midnightblue" stroke="midnightblue" points="2065.31,-363.64 2072.27,-355.65 2061.85,-357.55 2065.31,-363.64"/>
</g>
<!-- Node33 -->
<g id="node33" class="node">
<title>Node33</title>
<g id="a_node33"><a xlink:href="semaphore-private_8h.html" target="_top" xlink:title=" ">
<polygon fill="white" stroke="black" points="2153.5,-336.5 2153.5,-355.5 2311.5,-355.5 2311.5,-336.5 2153.5,-336.5"/>
<text text-anchor="middle" x="2232.5" y="-343.5" font-family="FreeSans" font-size="10.00">magick/semaphore&#45;private.h</text>
</a>
</g>
</g>
<!-- Node1&#45;&gt;Node33 -->
<g id="edge45" class="edge">
<title>Node1&#45;&gt;Node33</title>
<path fill="none" stroke="midnightblue" d="M2030.53,-392.44C2072.31,-383.04 2139.48,-367.93 2184.77,-357.74"/>
<polygon fill="midnightblue" stroke="midnightblue" points="2185.66,-361.13 2194.65,-355.52 2184.12,-354.3 2185.66,-361.13"/>
</g>
<!-- Node34 -->
<g id="node34" class="node">
<title>Node34</title>
<g id="a_node34"><a xlink:href="thread___8h.html" target="_top" xlink:title=" ">
<polygon fill="white" stroke="black" points="2257,-280.5 2257,-299.5 2358,-299.5 2358,-280.5 2257,-280.5"/>
<text text-anchor="middle" x="2307.5" y="-287.5" font-family="FreeSans" font-size="10.00">magick/thread_.h</text>
</a>
</g>
</g>
<!-- Node1&#45;&gt;Node34 -->
<g id="edge47" class="edge">
<title>Node1&#45;&gt;Node34</title>
<path fill="none" stroke="midnightblue" d="M2032.61,-401.74C2111.76,-402.26 2283.57,-398.34 2320.5,-356 2331.81,-343.03 2325.48,-323.04 2318.25,-308.66"/>
<polygon fill="midnightblue" stroke="midnightblue" points="2321.22,-306.79 2313.31,-299.75 2315.1,-310.19 2321.22,-306.79"/>
</g>
<!-- Node35 -->
<g id="node35" class="node">
<title>Node35</title>
<g id="a_node35"><a xlink:href="thread-private_8h.html" target="_top" xlink:title=" ">
<polygon fill="white" stroke="black" points="2367.5,-336.5 2367.5,-355.5 2501.5,-355.5 2501.5,-336.5 2367.5,-336.5"/>
<text text-anchor="middle" x="2434.5" y="-343.5" font-family="FreeSans" font-size="10.00">magick/thread&#45;private.h</text>
</a>
</g>
</g>
<!-- Node1&#45;&gt;Node35 -->
<g id="edge48" class="edge">
<title>Node1&#45;&gt;Node35</title>
<path fill="none" stroke="midnightblue" d="M2032.5,-396.11C2105.7,-387.17 2262.35,-368.03 2357.04,-356.46"/>
<polygon fill="midnightblue" stroke="midnightblue" points="2357.64,-359.92 2367.14,-355.23 2356.79,-352.97 2357.64,-359.92"/>
</g>
<!-- Node62 -->
<g id="node45" class="node">
<title>Node62</title>
<g id="a_node45"><a xlink:href="utility-private_8h.html" target="_top" xlink:title=" ">
<polygon fill="white" stroke="black" points="1921,-280.5 1921,-299.5 2052,-299.5 2052,-280.5 1921,-280.5"/>
<text text-anchor="middle" x="1986.5" y="-287.5" font-family="FreeSans" font-size="10.00">magick/utility&#45;private.h</text>
</a>
</g>
</g>
<!-- Node1&#45;&gt;Node62 -->
<g id="edge63" class="edge">
<title>Node1&#45;&gt;Node62</title>
<path fill="none" stroke="midnightblue" d="M1992.03,-392.37C1991.06,-374.62 1988.83,-333.67 1987.51,-309.6"/>
<polygon fill="midnightblue" stroke="midnightblue" points="1991.01,-309.39 1986.97,-299.59 1984.02,-309.77 1991.01,-309.39"/>
</g>
<!-- Node3 -->
<g id="node3" class="node">
<title>Node3</title>
<g id="a_node3"><a xlink:href="magick-config_8h.html" target="_top" xlink:title=" ">
<polygon fill="white" stroke="black" points="11.5,-112.5 11.5,-131.5 145.5,-131.5 145.5,-112.5 11.5,-112.5"/>
<text text-anchor="middle" x="78.5" y="-119.5" font-family="FreeSans" font-size="10.00">magick/magick&#45;config.h</text>
</a>
</g>
</g>
<!-- Node2&#45;&gt;Node3 -->
<g id="edge2" class="edge">
<title>Node2&#45;&gt;Node3</title>
<path fill="none" stroke="midnightblue" d="M939.8,-232.11C759.87,-228.55 130.77,-214.28 97.5,-188 83.82,-177.2 79.62,-157.12 78.5,-142.12"/>
<polygon fill="midnightblue" stroke="midnightblue" points="81.98,-141.75 78.14,-131.88 74.99,-142 81.98,-141.75"/>
</g>
<!-- Node5 -->
<g id="node5" class="node">
<title>Node5</title>
<g id="a_node5"><a xlink:title=" ">
<polygon fill="white" stroke="#bfbfbf" points="1831.5,-0.5 1831.5,-19.5 1887.5,-19.5 1887.5,-0.5 1831.5,-0.5"/>
<text text-anchor="middle" x="1859.5" y="-7.5" font-family="FreeSans" font-size="10.00">stdarg.h</text>
</a>
</g>
</g>
<!-- Node2&#45;&gt;Node5 -->
<g id="edge4" class="edge">
<title>Node2&#45;&gt;Node5</title>
<path fill="none" stroke="midnightblue" d="M995.59,-224.37C1009.24,-210.33 1038.34,-182.66 1068.5,-168 1335.59,-38.23 1703.07,-15.72 1821.26,-11.82"/>
<polygon fill="midnightblue" stroke="midnightblue" points="1821.38,-15.32 1831.27,-11.51 1821.16,-8.32 1821.38,-15.32"/>
</g>
<!-- Node6 -->
<g id="node6" class="node">
<title>Node6</title>
<g id="a_node6"><a xlink:title=" ">
<polygon fill="white" stroke="#bfbfbf" points="1077.5,-168.5 1077.5,-187.5 1127.5,-187.5 1127.5,-168.5 1077.5,-168.5"/>
<text text-anchor="middle" x="1102.5" y="-175.5" font-family="FreeSans" font-size="10.00">stdio.h</text>
</a>
</g>
</g>
<!-- Node2&#45;&gt;Node6 -->
<g id="edge5" class="edge">
<title>Node2&#45;&gt;Node6</title>
<path fill="none" stroke="midnightblue" d="M1005.72,-224.44C1024.4,-215.68 1053.66,-201.94 1075.12,-191.86"/>
<polygon fill="midnightblue" stroke="midnightblue" points="1076.8,-194.93 1084.36,-187.52 1073.82,-188.6 1076.8,-194.93"/>
</g>
<!-- Node7 -->
<g id="node7" class="node">
<title>Node7</title>
<g id="a_node7"><a xlink:title=" ">
<polygon fill="white" stroke="#bfbfbf" points="1146,-168.5 1146,-187.5 1199,-187.5 1199,-168.5 1146,-168.5"/>
<text text-anchor="middle" x="1172.5" y="-175.5" font-family="FreeSans" font-size="10.00">ctype.h</text>
</a>
</g>
</g>
<!-- Node2&#45;&gt;Node7 -->
<g id="edge6" class="edge">
<title>Node2&#45;&gt;Node7</title>
<path fill="none" stroke="midnightblue" d="M1016.81,-224.44C1049.08,-215.02 1101.01,-199.87 1135.92,-189.68"/>
<polygon fill="midnightblue" stroke="midnightblue" points="1137.11,-192.98 1145.73,-186.82 1135.15,-186.26 1137.11,-192.98"/>
</g>
<!-- Node8 -->
<g id="node8" class="node">
<title>Node8</title>
<g id="a_node8"><a xlink:title=" ">
<polygon fill="white" stroke="#bfbfbf" points="1217,-168.5 1217,-187.5 1272,-187.5 1272,-168.5 1217,-168.5"/>
<text text-anchor="middle" x="1244.5" y="-175.5" font-family="FreeSans" font-size="10.00">locale.h</text>
</a>
</g>
</g>
<!-- Node2&#45;&gt;Node8 -->
<g id="edge7" class="edge">
<title>Node2&#45;&gt;Node8</title>
<path fill="none" stroke="midnightblue" d="M1031.85,-224.43C1074.27,-216.12 1140.27,-202.89 1206.82,-188.09"/>
<polygon fill="midnightblue" stroke="midnightblue" points="1207.65,-191.49 1216.65,-185.89 1206.12,-184.66 1207.65,-191.49"/>
</g>
<!-- Node9 -->
<g id="node9" class="node">
<title>Node9</title>
<g id="a_node9"><a xlink:title=" ">
<polygon fill="white" stroke="#bfbfbf" points="1537,-168.5 1537,-187.5 1588,-187.5 1588,-168.5 1537,-168.5"/>
<text text-anchor="middle" x="1562.5" y="-175.5" font-family="FreeSans" font-size="10.00">errno.h</text>
</a>
</g>
</g>
<!-- Node2&#45;&gt;Node9 -->
<g id="edge8" class="edge">
<title>Node2&#45;&gt;Node9</title>
<path fill="none" stroke="midnightblue" d="M1035.15,-231.72C1128,-228.65 1339.7,-218.81 1526.96,-187.77"/>
<polygon fill="midnightblue" stroke="midnightblue" points="1527.71,-191.2 1536.99,-186.09 1526.55,-184.3 1527.71,-191.2"/>
</g>
<!-- Node10 -->
<g id="node10" class="node">
<title>Node10</title>
<g id="a_node10"><a xlink:title=" ">
<polygon fill="white" stroke="#bfbfbf" points="1290,-168.5 1290,-187.5 1337,-187.5 1337,-168.5 1290,-168.5"/>
<text text-anchor="middle" x="1313.5" y="-175.5" font-family="FreeSans" font-size="10.00">fcntl.h</text>
</a>
</g>
</g>
<!-- Node2&#45;&gt;Node10 -->
<g id="edge9" class="edge">
<title>Node2&#45;&gt;Node10</title>
<path fill="none" stroke="midnightblue" d="M1035.25,-227.36C1091.45,-220.36 1187.72,-207.18 1279.75,-187.94"/>
<polygon fill="midnightblue" stroke="midnightblue" points="1280.73,-191.31 1289.79,-185.81 1279.28,-184.46 1280.73,-191.31"/>
</g>
<!-- Node11 -->
<g id="node11" class="node">
<title>Node11</title>
<g id="a_node11"><a xlink:title=" ">
<polygon fill="white" stroke="#bfbfbf" points="1355,-168.5 1355,-187.5 1406,-187.5 1406,-168.5 1355,-168.5"/>
<text text-anchor="middle" x="1380.5" y="-175.5" font-family="FreeSans" font-size="10.00">math.h</text>
</a>
</g>
</g>
<!-- Node2&#45;&gt;Node11 -->
<g id="edge10" class="edge">
<title>Node2&#45;&gt;Node11</title>
<path fill="none" stroke="midnightblue" d="M1035.29,-228.93C1102.33,-222.8 1228.23,-209.74 1345.13,-187.83"/>
<polygon fill="midnightblue" stroke="midnightblue" points="1345.8,-191.27 1354.97,-185.96 1344.49,-184.39 1345.8,-191.27"/>
</g>
<!-- Node12 -->
<g id="node12" class="node">
<title>Node12</title>
<g id="a_node12"><a xlink:title=" ">
<polygon fill="white" stroke="#bfbfbf" points="1559.5,-56.5 1559.5,-75.5 1607.5,-75.5 1607.5,-56.5 1559.5,-56.5"/>
<text text-anchor="middle" x="1583.5" y="-63.5" font-family="FreeSans" font-size="10.00">time.h</text>
</a>
</g>
</g>
<!-- Node2&#45;&gt;Node12 -->
<g id="edge11" class="edge">
<title>Node2&#45;&gt;Node12</title>
<path fill="none" stroke="midnightblue" d="M1035.25,-231.04C1131.64,-226.58 1346.13,-213.98 1414.5,-188 1447.45,-175.48 1528.51,-111.62 1565.08,-82.05"/>
<polygon fill="midnightblue" stroke="midnightblue" points="1567.41,-84.67 1572.97,-75.65 1563,-79.23 1567.41,-84.67"/>
</g>
<!-- Node13 -->
<g id="node13" class="node">
<title>Node13</title>
<g id="a_node13"><a xlink:title=" ">
<polygon fill="white" stroke="#bfbfbf" points="107,-168.5 107,-187.5 160,-187.5 160,-168.5 107,-168.5"/>
<text text-anchor="middle" x="133.5" y="-175.5" font-family="FreeSans" font-size="10.00">limits.h</text>
</a>
</g>
</g>
<!-- Node2&#45;&gt;Node13 -->
<g id="edge12" class="edge">
<title>Node2&#45;&gt;Node13</title>
<path fill="none" stroke="midnightblue" d="M939.62,-233.64C814.35,-234.63 466.69,-232.89 170.22,-187.97"/>
<polygon fill="midnightblue" stroke="midnightblue" points="170.56,-184.48 160.14,-186.43 169.49,-191.4 170.56,-184.48"/>
</g>
<!-- Node14 -->
<g id="node14" class="node">
<title>Node14</title>
<g id="a_node14"><a xlink:title=" ">
<polygon fill="white" stroke="#bfbfbf" points="178,-168.5 178,-187.5 233,-187.5 233,-168.5 178,-168.5"/>
<text text-anchor="middle" x="205.5" y="-175.5" font-family="FreeSans" font-size="10.00">signal.h</text>
</a>
</g>
</g>
<!-- Node2&#45;&gt;Node14 -->
<g id="edge13" class="edge">
<title>Node2&#45;&gt;Node14</title>
<path fill="none" stroke="midnightblue" d="M939.69,-233.05C822.44,-232.56 511.29,-227.44 243.19,-187.8"/>
<polygon fill="midnightblue" stroke="midnightblue" points="243.68,-184.34 233.27,-186.32 242.65,-191.26 243.68,-184.34"/>
</g>
<!-- Node15 -->
<g id="node15" class="node">
<title>Node15</title>
<g id="a_node15"><a xlink:title=" ">
<polygon fill="white" stroke="#bfbfbf" points="1462.5,-168.5 1462.5,-187.5 1518.5,-187.5 1518.5,-168.5 1462.5,-168.5"/>
<text text-anchor="middle" x="1490.5" y="-175.5" font-family="FreeSans" font-size="10.00">assert.h</text>
</a>
</g>
</g>
<!-- Node2&#45;&gt;Node15 -->
<g id="edge14" class="edge">
<title>Node2&#45;&gt;Node15</title>
<path fill="none" stroke="midnightblue" d="M1035.17,-230.14C1119.09,-224.71 1298.52,-211.31 1448.5,-188 1449.74,-187.81 1451.01,-187.6 1452.28,-187.38"/>
<polygon fill="midnightblue" stroke="midnightblue" points="1452.93,-190.82 1462.11,-185.54 1451.64,-183.94 1452.93,-190.82"/>
</g>
<!-- Node16 -->
<g id="node16" class="node">
<title>Node16</title>
<g id="a_node16"><a xlink:href="method-attribute_8h.html" target="_top" xlink:title=" ">
<polygon fill="white" stroke="black" points="251.5,-168.5 251.5,-187.5 399.5,-187.5 399.5,-168.5 251.5,-168.5"/>
<text text-anchor="middle" x="325.5" y="-175.5" font-family="FreeSans" font-size="10.00">magick/method&#45;attribute.h</text>
</a>
</g>
</g>
<!-- Node2&#45;&gt;Node16 -->
<g id="edge15" class="edge">
<title>Node2&#45;&gt;Node16</title>
<path fill="none" stroke="midnightblue" d="M939.8,-229.79C842.33,-223.11 613.06,-206.87 409.67,-188.08"/>
<polygon fill="midnightblue" stroke="midnightblue" points="409.98,-184.6 399.7,-187.16 409.33,-191.57 409.98,-184.6"/>
</g>
<!-- Node17 -->
<g id="node17" class="node">
<title>Node17</title>
<g id="a_node17"><a xlink:title=" ">
<polygon fill="white" stroke="#bfbfbf" points="417.5,-168.5 417.5,-187.5 489.5,-187.5 489.5,-168.5 417.5,-168.5"/>
<text text-anchor="middle" x="453.5" y="-175.5" font-family="FreeSans" font-size="10.00">sys/types.h</text>
</a>
</g>
</g>
<!-- Node2&#45;&gt;Node17 -->
<g id="edge16" class="edge">
<title>Node2&#45;&gt;Node17</title>
<path fill="none" stroke="midnightblue" d="M939.75,-230.29C853.74,-225.03 666.91,-211.95 499.76,-188.04"/>
<polygon fill="midnightblue" stroke="midnightblue" points="500.19,-184.57 489.79,-186.6 499.19,-191.5 500.19,-184.57"/>
</g>
<!-- Node18 -->
<g id="node18" class="node">
<title>Node18</title>
<g id="a_node18"><a xlink:title=" ">
<polygon fill="white" stroke="#bfbfbf" points="507.5,-168.5 507.5,-187.5 571.5,-187.5 571.5,-168.5 507.5,-168.5"/>
<text text-anchor="middle" x="539.5" y="-175.5" font-family="FreeSans" font-size="10.00">sys/stat.h</text>
</a>
</g>
</g>
<!-- Node2&#45;&gt;Node18 -->
<g id="edge17" class="edge">
<title>Node2&#45;&gt;Node18</title>
<path fill="none" stroke="midnightblue" d="M939.97,-229.39C865.64,-223.38 717.22,-209.95 581.81,-188.06"/>
<polygon fill="midnightblue" stroke="midnightblue" points="582.1,-184.56 571.67,-186.4 580.97,-191.47 582.1,-184.56"/>
</g>
<!-- Node19 -->
<g id="node19" class="node">
<title>Node19</title>
<g id="a_node19"><a xlink:title=" ">
<polygon fill="white" stroke="#bfbfbf" points="589.5,-168.5 589.5,-187.5 643.5,-187.5 643.5,-168.5 589.5,-168.5"/>
<text text-anchor="middle" x="616.5" y="-175.5" font-family="FreeSans" font-size="10.00">dirent.h</text>
</a>
</g>
</g>
<!-- Node2&#45;&gt;Node19 -->
<g id="edge18" class="edge">
<title>Node2&#45;&gt;Node19</title>
<path fill="none" stroke="midnightblue" d="M939.8,-228.28C876.55,-221.66 761.33,-208.3 653.62,-188.03"/>
<polygon fill="midnightblue" stroke="midnightblue" points="654.03,-184.54 643.55,-186.11 652.72,-191.42 654.03,-184.54"/>
</g>
<!-- Node20 -->
<g id="node20" class="node">
<title>Node20</title>
<g id="a_node20"><a xlink:title=" ">
<polygon fill="white" stroke="#bfbfbf" points="805.5,-168.5 805.5,-187.5 871.5,-187.5 871.5,-168.5 805.5,-168.5"/>
<text text-anchor="middle" x="838.5" y="-175.5" font-family="FreeSans" font-size="10.00">sys/wait.h</text>
</a>
</g>
</g>
<!-- Node2&#45;&gt;Node20 -->
<g id="edge19" class="edge">
<title>Node2&#45;&gt;Node20</title>
<path fill="none" stroke="midnightblue" d="M963.89,-224.44C939.04,-215.44 899.73,-201.19 871.75,-191.05"/>
<polygon fill="midnightblue" stroke="midnightblue" points="872.59,-187.63 862,-187.52 870.21,-194.21 872.59,-187.63"/>
</g>
<!-- Node21 -->
<g id="node21" class="node">
<title>Node21</title>
<g id="a_node21"><a xlink:title=" ">
<polygon fill="white" stroke="#bfbfbf" points="889.5,-168.5 889.5,-187.5 935.5,-187.5 935.5,-168.5 889.5,-168.5"/>
<text text-anchor="middle" x="912.5" y="-175.5" font-family="FreeSans" font-size="10.00">pwd.h</text>
</a>
</g>
</g>
<!-- Node2&#45;&gt;Node21 -->
<g id="edge20" class="edge">
<title>Node2&#45;&gt;Node21</title>
<path fill="none" stroke="midnightblue" d="M975.45,-224.32C964.04,-216.11 946.67,-203.6 933.07,-193.81"/>
<polygon fill="midnightblue" stroke="midnightblue" points="934.93,-190.84 924.77,-187.83 930.84,-196.52 934.93,-190.84"/>
</g>
<!-- Node22 -->
<g id="node22" class="node">
<title>Node22</title>
<g id="a_node22"><a xlink:href="magick-type_8h.html" target="_top" xlink:title=" ">
<polygon fill="white" stroke="black" points="661.5,-168.5 661.5,-187.5 787.5,-187.5 787.5,-168.5 661.5,-168.5"/>
<text text-anchor="middle" x="724.5" y="-175.5" font-family="FreeSans" font-size="10.00">magick/magick&#45;type.h</text>
</a>
</g>
</g>
<!-- Node2&#45;&gt;Node22 -->
<g id="edge21" class="edge">
<title>Node2&#45;&gt;Node22</title>
<path fill="none" stroke="midnightblue" d="M945.83,-224.44C899.75,-214.98 825.5,-199.74 775.87,-189.55"/>
<polygon fill="midnightblue" stroke="midnightblue" points="776.48,-186.1 765.98,-187.52 775.07,-192.96 776.48,-186.1"/>
</g>
<!-- Node23 -->
<g id="node23" class="node">
<title>Node23</title>
<g id="a_node23"><a xlink:title=" ">
<polygon fill="white" stroke="#bfbfbf" points="953.5,-168.5 953.5,-187.5 1021.5,-187.5 1021.5,-168.5 953.5,-168.5"/>
<text text-anchor="middle" x="987.5" y="-175.5" font-family="FreeSans" font-size="10.00">sys/time.h</text>
</a>
</g>
</g>
<!-- Node2&#45;&gt;Node23 -->
<g id="edge23" class="edge">
<title>Node2&#45;&gt;Node23</title>
<path fill="none" stroke="midnightblue" d="M987.5,-224.08C987.5,-217.01 987.5,-206.86 987.5,-197.99"/>
<polygon fill="midnightblue" stroke="midnightblue" points="991,-197.75 987.5,-187.75 984,-197.75 991,-197.75"/>
</g>
<!-- Node4 -->
<g id="node4" class="node">
<title>Node4</title>
<g id="a_node4"><a xlink:href="magick-baseconfig_8h.html" target="_top" xlink:title=" ">
<polygon fill="white" stroke="black" points="0,-56.5 0,-75.5 157,-75.5 157,-56.5 0,-56.5"/>
<text text-anchor="middle" x="78.5" y="-63.5" font-family="FreeSans" font-size="10.00">magick/magick&#45;baseconfig.h</text>
</a>
</g>
</g>
<!-- Node3&#45;&gt;Node4 -->
<g id="edge3" class="edge">
<title>Node3&#45;&gt;Node4</title>
<path fill="none" stroke="midnightblue" d="M78.5,-112.08C78.5,-105.01 78.5,-94.86 78.5,-85.99"/>
<polygon fill="midnightblue" stroke="midnightblue" points="82,-85.75 78.5,-75.75 75,-85.75 82,-85.75"/>
</g>
<!-- Node22&#45;&gt;Node3 -->
<g id="edge22" class="edge">
<title>Node22&#45;&gt;Node3</title>
<path fill="none" stroke="midnightblue" d="M661.3,-168.93C658.33,-168.61 655.38,-168.29 652.5,-168 475.06,-149.96 266.12,-135.21 155.79,-127.92"/>
<polygon fill="midnightblue" stroke="midnightblue" points="155.96,-124.43 145.75,-127.26 155.5,-131.41 155.96,-124.43"/>
</g>
<!-- Node24&#45;&gt;Node5 -->
<g id="edge25" class="edge">
<title>Node24&#45;&gt;Node5</title>
<path fill="none" stroke="midnightblue" d="M2102.71,-56.44C2046.01,-45.85 1950.46,-28 1897.58,-18.12"/>
<polygon fill="midnightblue" stroke="midnightblue" points="1898.07,-14.65 1887.6,-16.25 1896.79,-21.53 1898.07,-14.65"/>
</g>
<!-- Node24&#45;&gt;Node25 -->
<g id="edge26" class="edge">
<title>Node24&#45;&gt;Node25</title>
<path fill="none" stroke="midnightblue" d="M2148.5,-56.08C2148.5,-49.01 2148.5,-38.86 2148.5,-29.99"/>
<polygon fill="midnightblue" stroke="midnightblue" points="2152,-29.75 2148.5,-19.75 2145,-29.75 2152,-29.75"/>
</g>
<!-- Node27 -->
<g id="node27" class="node">
<title>Node27</title>
<g id="a_node27"><a xlink:href="log_8h.html" target="_top" xlink:title=" ">
<polygon fill="white" stroke="black" points="1790.5,-112.5 1790.5,-131.5 1870.5,-131.5 1870.5,-112.5 1790.5,-112.5"/>
<text text-anchor="middle" x="1830.5" y="-119.5" font-family="FreeSans" font-size="10.00">magick/log.h</text>
</a>
</g>
</g>
<!-- Node26&#45;&gt;Node27 -->
<g id="edge28" class="edge">
<title>Node26&#45;&gt;Node27</title>
<path fill="none" stroke="midnightblue" d="M1875.58,-168.08C1867.72,-160.22 1856.07,-148.57 1846.58,-139.08"/>
<polygon fill="midnightblue" stroke="midnightblue" points="1848.8,-136.35 1839.25,-131.75 1843.85,-141.3 1848.8,-136.35"/>
</g>
<!-- Node28 -->
<g id="node28" class="node">
<title>Node28</title>
<g id="a_node28"><a xlink:href="magick_8h.html" target="_top" xlink:title=" ">
<polygon fill="white" stroke="black" points="1848,-56.5 1848,-75.5 1949,-75.5 1949,-56.5 1848,-56.5"/>
<text text-anchor="middle" x="1898.5" y="-63.5" font-family="FreeSans" font-size="10.00">magick/magick.h</text>
</a>
</g>
</g>
<!-- Node26&#45;&gt;Node28 -->
<g id="edge31" class="edge">
<title>Node26&#45;&gt;Node28</title>
<path fill="none" stroke="midnightblue" d="M1885.6,-168.37C1887.86,-150.62 1893.07,-109.67 1896.13,-85.6"/>
<polygon fill="midnightblue" stroke="midnightblue" points="1899.62,-85.95 1897.41,-75.59 1892.67,-85.07 1899.62,-85.95"/>
</g>
<!-- Node26&#45;&gt;Node29 -->
<g id="edge34" class="edge">
<title>Node26&#45;&gt;Node29</title>
<path fill="none" stroke="midnightblue" d="M1858.67,-168.44C1831.25,-159.36 1787.72,-144.94 1757.07,-134.78"/>
<polygon fill="midnightblue" stroke="midnightblue" points="1757.8,-131.34 1747.21,-131.52 1755.6,-137.98 1757.8,-131.34"/>
</g>
<!-- Node27&#45;&gt;Node5 -->
<g id="edge29" class="edge">
<title>Node27&#45;&gt;Node5</title>
<path fill="none" stroke="midnightblue" d="M1830.7,-112.42C1831.19,-99.81 1832.85,-75.67 1838.5,-56 1841.21,-46.57 1845.65,-36.64 1849.76,-28.51"/>
<polygon fill="midnightblue" stroke="midnightblue" points="1852.87,-30.12 1854.46,-19.64 1846.68,-26.84 1852.87,-30.12"/>
</g>
<!-- Node27&#45;&gt;Node24 -->
<g id="edge30" class="edge">
<title>Node27&#45;&gt;Node24</title>
<path fill="none" stroke="midnightblue" d="M1870.77,-114.16C1925.74,-104.83 2024.7,-88.02 2088.44,-77.2"/>
<polygon fill="midnightblue" stroke="midnightblue" points="2089.08,-80.64 2098.36,-75.51 2087.91,-73.74 2089.08,-80.64"/>
</g>
<!-- Node28&#45;&gt;Node5 -->
<g id="edge32" class="edge">
<title>Node28&#45;&gt;Node5</title>
<path fill="none" stroke="midnightblue" d="M1892.06,-56.08C1886.55,-48.46 1878.47,-37.26 1871.74,-27.94"/>
<polygon fill="midnightblue" stroke="midnightblue" points="1874.51,-25.81 1865.82,-19.75 1868.84,-29.91 1874.51,-25.81"/>
</g>
<!-- Node28&#45;&gt;Node25 -->
<g id="edge33" class="edge">
<title>Node28&#45;&gt;Node25</title>
<path fill="none" stroke="midnightblue" d="M1938.11,-56.44C1981.73,-47.02 2051.9,-31.87 2099.08,-21.68"/>
<polygon fill="midnightblue" stroke="midnightblue" points="2100.04,-25.05 2109.07,-19.52 2098.56,-18.21 2100.04,-25.05"/>
</g>
<!-- Node29&#45;&gt;Node5 -->
<g id="edge35" class="edge">
<title>Node29&#45;&gt;Node5</title>
<path fill="none" stroke="midnightblue" d="M1732.33,-112.37C1755.81,-93.65 1811.64,-49.15 1840.89,-25.83"/>
<polygon fill="midnightblue" stroke="midnightblue" points="1843.08,-28.56 1848.72,-19.59 1838.72,-23.09 1843.08,-28.56"/>
</g>
<!-- Node29&#45;&gt;Node12 -->
<g id="edge36" class="edge">
<title>Node29&#45;&gt;Node12</title>
<path fill="none" stroke="midnightblue" d="M1699.63,-112.44C1676.72,-103.48 1640.52,-89.31 1614.63,-79.18"/>
<polygon fill="midnightblue" stroke="midnightblue" points="1615.85,-75.9 1605.26,-75.52 1613.3,-82.42 1615.85,-75.9"/>
</g>
<!-- Node29&#45;&gt;Node24 -->
<g id="edge37" class="edge">
<title>Node29&#45;&gt;Node24</title>
<path fill="none" stroke="midnightblue" d="M1770.6,-113.51C1774.29,-112.99 1777.95,-112.48 1781.5,-112 1911.76,-94.44 1947.15,-93.16 2081.69,-76.08"/>
<polygon fill="midnightblue" stroke="midnightblue" points="2082.51,-79.51 2091.98,-74.77 2081.62,-72.56 2082.51,-79.51"/>
</g>
<!-- Node30&#45;&gt;Node9 -->
<g id="edge39" class="edge">
<title>Node30&#45;&gt;Node9</title>
<path fill="none" stroke="midnightblue" d="M1537.45,-224.08C1541.6,-216.61 1547.65,-205.72 1552.77,-196.52"/>
<polygon fill="midnightblue" stroke="midnightblue" points="1555.84,-198.19 1557.64,-187.75 1549.72,-194.79 1555.84,-198.19"/>
</g>
<!-- Node30&#45;&gt;Node15 -->
<g id="edge40" class="edge">
<title>Node30&#45;&gt;Node15</title>
<path fill="none" stroke="midnightblue" d="M1525.56,-224.08C1519.57,-216.38 1510.75,-205.03 1503.45,-195.65"/>
<polygon fill="midnightblue" stroke="midnightblue" points="1506.21,-193.5 1497.31,-187.75 1500.68,-197.79 1506.21,-193.5"/>
</g>
<!-- Node31&#45;&gt;Node3 -->
<g id="edge42" class="edge">
<title>Node31&#45;&gt;Node3</title>
<path fill="none" stroke="midnightblue" d="M369.47,-336.44C284.3,-322.07 145.88,-284.46 80.5,-188 71.4,-174.58 71.88,-155.76 74.06,-141.82"/>
<polygon fill="midnightblue" stroke="midnightblue" points="77.52,-142.38 76.01,-131.89 70.65,-141.02 77.52,-142.38"/>
</g>
<!-- Node35&#45;&gt;Node34 -->
<g id="edge62" class="edge">
<title>Node35&#45;&gt;Node34</title>
<path fill="none" stroke="midnightblue" d="M2414.38,-336.44C2393.48,-327.56 2360.57,-313.56 2336.78,-303.45"/>
<polygon fill="midnightblue" stroke="midnightblue" points="2338.1,-300.21 2327.53,-299.52 2335.36,-306.65 2338.1,-300.21"/>
</g>
<!-- Node36 -->
<g id="node36" class="node">
<title>Node36</title>
<g id="a_node36"><a xlink:href="cache_8h.html" target="_top" xlink:title=" ">
<polygon fill="white" stroke="black" points="2376,-280.5 2376,-299.5 2469,-299.5 2469,-280.5 2376,-280.5"/>
<text text-anchor="middle" x="2422.5" y="-287.5" font-family="FreeSans" font-size="10.00">magick/cache.h</text>
</a>
</g>
</g>
<!-- Node35&#45;&gt;Node36 -->
<g id="edge49" class="edge">
<title>Node35&#45;&gt;Node36</title>
<path fill="none" stroke="midnightblue" d="M2432.52,-336.08C2430.93,-328.93 2428.64,-318.64 2426.65,-309.69"/>
<polygon fill="midnightblue" stroke="midnightblue" points="2430.03,-308.75 2424.44,-299.75 2423.2,-310.27 2430.03,-308.75"/>
</g>
<!-- Node60 -->
<g id="node43" class="node">
<title>Node60</title>
<g id="a_node43"><a xlink:href="image-private_8h.html" target="_top" xlink:title=" ">
<polygon fill="white" stroke="black" points="2487.5,-280.5 2487.5,-299.5 2621.5,-299.5 2621.5,-280.5 2487.5,-280.5"/>
<text text-anchor="middle" x="2554.5" y="-287.5" font-family="FreeSans" font-size="10.00">magick/image&#45;private.h</text>
</a>
</g>
</g>
<!-- Node35&#45;&gt;Node60 -->
<g id="edge60" class="edge">
<title>Node35&#45;&gt;Node60</title>
<path fill="none" stroke="midnightblue" d="M2453.51,-336.44C2473.09,-327.64 2503.81,-313.81 2526.23,-303.72"/>
<polygon fill="midnightblue" stroke="midnightblue" points="2527.89,-306.81 2535.57,-299.52 2525.02,-300.43 2527.89,-306.81"/>
</g>
<!-- Node61 -->
<g id="node44" class="node">
<title>Node61</title>
<g id="a_node44"><a xlink:href="resource___8h.html" target="_top" xlink:title=" ">
<polygon fill="white" stroke="black" points="2639.5,-280.5 2639.5,-299.5 2751.5,-299.5 2751.5,-280.5 2639.5,-280.5"/>
<text text-anchor="middle" x="2695.5" y="-287.5" font-family="FreeSans" font-size="10.00">magick/resource_.h</text>
</a>
</g>
</g>
<!-- Node35&#45;&gt;Node61 -->
<g id="edge61" class="edge">
<title>Node35&#45;&gt;Node61</title>
<path fill="none" stroke="midnightblue" d="M2475.86,-336.44C2521.58,-326.98 2595.26,-311.74 2644.52,-301.55"/>
<polygon fill="midnightblue" stroke="midnightblue" points="2645.25,-304.97 2654.34,-299.52 2643.84,-298.12 2645.25,-304.97"/>
</g>
<!-- Node37 -->
<g id="node37" class="node">
<title>Node37</title>
<g id="a_node37"><a xlink:href="blob_8h.html" target="_top" xlink:title=" ">
<polygon fill="white" stroke="black" points="2403.5,-224.5 2403.5,-243.5 2489.5,-243.5 2489.5,-224.5 2403.5,-224.5"/>
<text text-anchor="middle" x="2446.5" y="-231.5" font-family="FreeSans" font-size="10.00">magick/blob.h</text>
</a>
</g>
</g>
<!-- Node36&#45;&gt;Node37 -->
<g id="edge50" class="edge">
<title>Node36&#45;&gt;Node37</title>
<path fill="none" stroke="midnightblue" d="M2426.46,-280.08C2429.71,-272.77 2434.42,-262.18 2438.45,-253.1"/>
<polygon fill="midnightblue" stroke="midnightblue" points="2441.75,-254.31 2442.61,-243.75 2435.35,-251.47 2441.75,-254.31"/>
</g>
<!-- Node38 -->
<g id="node38" class="node">
<title>Node38</title>
<g id="a_node38"><a xlink:href="image_8h.html" target="_top" xlink:title=" ">
<polygon fill="white" stroke="red" points="2423,-168.5 2423,-187.5 2518,-187.5 2518,-168.5 2423,-168.5"/>
<text text-anchor="middle" x="2470.5" y="-175.5" font-family="FreeSans" font-size="10.00">magick/image.h</text>
</a>
</g>
</g>
<!-- Node37&#45;&gt;Node38 -->
<g id="edge51" class="edge">
<title>Node37&#45;&gt;Node38</title>
<path fill="none" stroke="midnightblue" d="M2445.3,-224.08C2447.04,-216.61 2451.48,-205.72 2456.35,-196.52"/>
<polygon fill="midnightblue" stroke="midnightblue" points="2459.45,-198.15 2461.48,-187.75 2453.41,-194.61 2459.45,-198.15"/>
</g>
<!-- Node58 -->
<g id="node42" class="node">
<title>Node58</title>
<g id="a_node42"><a xlink:href="stream_8h.html" target="_top" xlink:title=" ">
<polygon fill="white" stroke="black" points="2345,-112.5 2345,-131.5 2444,-131.5 2444,-112.5 2345,-112.5"/>
<text text-anchor="middle" x="2394.5" y="-119.5" font-family="FreeSans" font-size="10.00">magick/stream.h</text>
</a>
</g>
</g>
<!-- Node37&#45;&gt;Node58 -->
<g id="edge59" class="edge">
<title>Node37&#45;&gt;Node58</title>
<path fill="none" stroke="midnightblue" d="M2438.97,-224.24C2431.82,-215.54 2421.2,-201.58 2414.5,-188 2407.15,-173.11 2401.84,-154.97 2398.55,-141.63"/>
<polygon fill="midnightblue" stroke="midnightblue" points="2401.92,-140.7 2396.26,-131.75 2395.11,-142.28 2401.92,-140.7"/>
</g>
<!-- Node38&#45;&gt;Node25 -->
<g id="edge57" class="edge">
<title>Node38&#45;&gt;Node25</title>
<path fill="none" stroke="midnightblue" d="M2518.2,-174.36C2577.48,-169.96 2673.53,-158.8 2695.5,-132 2701.14,-125.13 2701.19,-118.83 2695.5,-112 2635.52,-39.93 2351.79,-19.08 2218.27,-13.22"/>
<polygon fill="midnightblue" stroke="midnightblue" points="2218.29,-9.71 2208.15,-12.79 2217.99,-16.71 2218.29,-9.71"/>
</g>
<!-- Node38&#45;&gt;Node37 -->
<g id="edge54" class="edge">
<title>Node38&#45;&gt;Node37</title>
<path fill="none" stroke="midnightblue" d="M2471.74,-187.75C2470.04,-195.17 2465.62,-206.05 2460.76,-215.27"/>
<polygon fill="midnightblue" stroke="midnightblue" points="2457.64,-213.68 2455.63,-224.08 2463.69,-217.2 2457.64,-213.68"/>
</g>
<!-- Node39 -->
<g id="node39" class="node">
<title>Node39</title>
<g id="a_node39"><a xlink:href="color_8h.html" target="_top" xlink:title=" ">
<polygon fill="white" stroke="red" points="2462.5,-112.5 2462.5,-131.5 2550.5,-131.5 2550.5,-112.5 2462.5,-112.5"/>
<text text-anchor="middle" x="2506.5" y="-119.5" font-family="FreeSans" font-size="10.00">magick/color.h</text>
</a>
</g>
</g>
<!-- Node38&#45;&gt;Node39 -->
<g id="edge52" class="edge">
<title>Node38&#45;&gt;Node39</title>
<path fill="none" stroke="midnightblue" d="M2476.44,-168.08C2481.48,-160.53 2488.84,-149.49 2495.01,-140.23"/>
<polygon fill="midnightblue" stroke="midnightblue" points="2498.03,-142.01 2500.67,-131.75 2492.21,-138.13 2498.03,-142.01"/>
</g>
<!-- Node41 -->
<g id="node40" class="node">
<title>Node41</title>
<g id="a_node40"><a xlink:href="colorspace_8h.html" target="_top" xlink:title=" ">
<polygon fill="white" stroke="black" points="2569,-112.5 2569,-131.5 2686,-131.5 2686,-112.5 2569,-112.5"/>
<text text-anchor="middle" x="2627.5" y="-119.5" font-family="FreeSans" font-size="10.00">magick/colorspace.h</text>
</a>
</g>
</g>
<!-- Node38&#45;&gt;Node41 -->
<g id="edge55" class="edge">
<title>Node38&#45;&gt;Node41</title>
<path fill="none" stroke="midnightblue" d="M2495.38,-168.44C2521.79,-159.36 2563.72,-144.94 2593.24,-134.78"/>
<polygon fill="midnightblue" stroke="midnightblue" points="2594.42,-138.08 2602.74,-131.52 2592.14,-131.46 2594.42,-138.08"/>
</g>
<!-- Node48 -->
<g id="node41" class="node">
<title>Node48</title>
<g id="a_node41"><a xlink:href="geometry_8h.html" target="_top" xlink:title=" ">
<polygon fill="white" stroke="black" points="2178.5,-112.5 2178.5,-131.5 2288.5,-131.5 2288.5,-112.5 2178.5,-112.5"/>
<text text-anchor="middle" x="2233.5" y="-119.5" font-family="FreeSans" font-size="10.00">magick/geometry.h</text>
</a>
</g>
</g>
<!-- Node38&#45;&gt;Node48 -->
<g id="edge56" class="edge">
<title>Node38&#45;&gt;Node48</title>
<path fill="none" stroke="midnightblue" d="M2432.95,-168.44C2391.69,-159.04 2325.36,-143.93 2280.63,-133.74"/>
<polygon fill="midnightblue" stroke="midnightblue" points="2281.41,-130.33 2270.88,-131.52 2279.85,-137.15 2281.41,-130.33"/>
</g>
<!-- Node38&#45;&gt;Node58 -->
<g id="edge58" class="edge">
<title>Node38&#45;&gt;Node58</title>
<path fill="none" stroke="midnightblue" d="M2458.29,-168.32C2446.72,-160.11 2429.12,-147.6 2415.34,-137.81"/>
<polygon fill="midnightblue" stroke="midnightblue" points="2417.11,-134.77 2406.93,-131.83 2413.06,-140.48 2417.11,-134.77"/>
</g>
<!-- Node39&#45;&gt;Node24 -->
<g id="edge53" class="edge">
<title>Node39&#45;&gt;Node24</title>
<path fill="none" stroke="midnightblue" d="M2462.27,-113.41C2459.3,-112.93 2456.36,-112.45 2453.5,-112 2371.5,-98.99 2276.89,-85.23 2215.06,-76.4"/>
<polygon fill="midnightblue" stroke="midnightblue" points="2215.44,-72.92 2205.05,-74.97 2214.46,-79.85 2215.44,-72.92"/>
</g>
<!-- Node62&#45;&gt;Node30 -->
<g id="edge64" class="edge">
<title>Node62&#45;&gt;Node30</title>
<path fill="none" stroke="midnightblue" d="M1920.97,-281.21C1834.84,-270.96 1684.41,-253.07 1598.2,-242.81"/>
<polygon fill="midnightblue" stroke="midnightblue" points="1598.36,-239.31 1588.01,-241.6 1597.53,-246.26 1598.36,-239.31"/>
</g>
<!-- Node63 -->
<g id="node46" class="node">
<title>Node63</title>
<g id="a_node46"><a xlink:href="nt-base_8h.html" target="_top" xlink:title=" ">
<polygon fill="white" stroke="black" points="2187,-168.5 2187,-187.5 2288,-187.5 2288,-168.5 2187,-168.5"/>
<text text-anchor="middle" x="2237.5" y="-175.5" font-family="FreeSans" font-size="10.00">magick/nt&#45;base.h</text>
</a>
</g>
</g>
<!-- Node62&#45;&gt;Node63 -->
<g id="edge65" class="edge">
<title>Node62&#45;&gt;Node63</title>
<path fill="none" stroke="midnightblue" d="M2006.2,-280.37C2050.28,-261.05 2157.04,-214.26 2208.64,-191.65"/>
<polygon fill="midnightblue" stroke="midnightblue" points="2210.14,-194.81 2217.9,-187.59 2207.33,-188.4 2210.14,-194.81"/>
</g>
<!-- Node64 -->
<g id="node47" class="node">
<title>Node64</title>
<g id="a_node47"><a xlink:href="nt-base-private_8h.html" target="_top" xlink:title=" ">
<polygon fill="white" stroke="black" points="1918.5,-224.5 1918.5,-243.5 2058.5,-243.5 2058.5,-224.5 1918.5,-224.5"/>
<text text-anchor="middle" x="1988.5" y="-231.5" font-family="FreeSans" font-size="10.00">magick/nt&#45;base&#45;private.h</text>
</a>
</g>
</g>
<!-- Node62&#45;&gt;Node64 -->
<g id="edge68" class="edge">
<title>Node62&#45;&gt;Node64</title>
<path fill="none" stroke="midnightblue" d="M1986.83,-280.08C1987.09,-273.01 1987.47,-262.86 1987.8,-253.99"/>
<polygon fill="midnightblue" stroke="midnightblue" points="1991.3,-253.87 1988.18,-243.75 1984.31,-253.61 1991.3,-253.87"/>
</g>
<!-- Node63&#45;&gt;Node24 -->
<g id="edge66" class="edge">
<title>Node63&#45;&gt;Node24</title>
<path fill="none" stroke="midnightblue" d="M2217.86,-168.49C2202.64,-160.95 2182.08,-148.57 2169.5,-132 2159.2,-118.44 2153.85,-99.63 2151.13,-85.74"/>
<polygon fill="midnightblue" stroke="midnightblue" points="2154.58,-85.13 2149.48,-75.84 2147.68,-86.29 2154.58,-85.13"/>
</g>
<!-- Node63&#45;&gt;Node48 -->
<g id="edge67" class="edge">
<title>Node63&#45;&gt;Node48</title>
<path fill="none" stroke="midnightblue" d="M2236.84,-168.08C2236.32,-161.01 2235.56,-150.86 2234.91,-141.99"/>
<polygon fill="midnightblue" stroke="midnightblue" points="2238.38,-141.47 2234.15,-131.75 2231.4,-141.98 2238.38,-141.47"/>
</g>
<!-- Node64&#45;&gt;Node24 -->
<g id="edge74" class="edge">
<title>Node64&#45;&gt;Node24</title>
<path fill="none" stroke="midnightblue" d="M1995.68,-224.4C2006.3,-211.79 2026.94,-187.63 2045.5,-168 2074.97,-136.84 2111.11,-102.17 2131.8,-82.63"/>
<polygon fill="midnightblue" stroke="midnightblue" points="2134.29,-85.09 2139.18,-75.69 2129.5,-80 2134.29,-85.09"/>
</g>
<!-- Node65 -->
<g id="node48" class="node">
<title>Node65</title>
<g id="a_node48"><a xlink:href="delegate_8h.html" target="_top" xlink:title=" ">
<polygon fill="white" stroke="black" points="1967,-56.5 1967,-75.5 2074,-75.5 2074,-56.5 1967,-56.5"/>
<text text-anchor="middle" x="2020.5" y="-63.5" font-family="FreeSans" font-size="10.00">magick/delegate.h</text>
</a>
</g>
</g>
<!-- Node64&#45;&gt;Node65 -->
<g id="edge69" class="edge">
<title>Node64&#45;&gt;Node65</title>
<path fill="none" stroke="midnightblue" d="M1990.22,-224.08C1995.26,-197.95 2010.05,-121.21 2016.92,-85.58"/>
<polygon fill="midnightblue" stroke="midnightblue" points="2020.39,-86.05 2018.85,-75.57 2013.52,-84.72 2020.39,-86.05"/>
</g>
<!-- Node66 -->
<g id="node49" class="node">
<title>Node66</title>
<g id="a_node49"><a xlink:href="delegate-private_8h.html" target="_top" xlink:title=" ">
<polygon fill="white" stroke="black" points="1644.5,-168.5 1644.5,-187.5 1790.5,-187.5 1790.5,-168.5 1644.5,-168.5"/>
<text text-anchor="middle" x="1717.5" y="-175.5" font-family="FreeSans" font-size="10.00">magick/delegate&#45;private.h</text>
</a>
</g>
</g>
<!-- Node64&#45;&gt;Node66 -->
<g id="edge72" class="edge">
<title>Node64&#45;&gt;Node66</title>
<path fill="none" stroke="midnightblue" d="M1945.56,-224.44C1897.99,-214.96 1821.26,-199.67 1770.11,-189.48"/>
<polygon fill="midnightblue" stroke="midnightblue" points="1770.73,-186.04 1760.24,-187.52 1769.36,-192.9 1770.73,-186.04"/>
</g>
<!-- Node67 -->
<g id="node50" class="node">
<title>Node67</title>
<g id="a_node50"><a xlink:href="splay-tree_8h.html" target="_top" xlink:title=" ">
<polygon fill="white" stroke="black" points="2054.5,-168.5 2054.5,-187.5 2168.5,-187.5 2168.5,-168.5 2054.5,-168.5"/>
<text text-anchor="middle" x="2111.5" y="-175.5" font-family="FreeSans" font-size="10.00">magick/splay&#45;tree.h</text>
</a>
</g>
</g>
<!-- Node64&#45;&gt;Node67 -->
<g id="edge75" class="edge">
<title>Node64&#45;&gt;Node67</title>
<path fill="none" stroke="midnightblue" d="M2007.99,-224.44C2028.14,-215.6 2059.82,-201.69 2082.83,-191.59"/>
<polygon fill="midnightblue" stroke="midnightblue" points="2084.35,-194.74 2092.1,-187.52 2081.54,-188.33 2084.35,-194.74"/>
</g>
<!-- Node65&#45;&gt;Node5 -->
<g id="edge70" class="edge">
<title>Node65&#45;&gt;Node5</title>
<path fill="none" stroke="midnightblue" d="M1994.99,-56.44C1967.9,-47.36 1924.91,-32.94 1894.63,-22.78"/>
<polygon fill="midnightblue" stroke="midnightblue" points="1895.49,-19.38 1884.89,-19.52 1893.26,-26.01 1895.49,-19.38"/>
</g>
<!-- Node65&#45;&gt;Node25 -->
<g id="edge71" class="edge">
<title>Node65&#45;&gt;Node25</title>
<path fill="none" stroke="midnightblue" d="M2040.78,-56.44C2061.85,-47.56 2095.02,-33.56 2118.99,-23.45"/>
<polygon fill="midnightblue" stroke="midnightblue" points="2120.46,-26.63 2128.31,-19.52 2117.74,-20.18 2120.46,-26.63"/>
</g>
<!-- Node66&#45;&gt;Node29 -->
<g id="edge73" class="edge">
<title>Node66&#45;&gt;Node29</title>
<path fill="none" stroke="midnightblue" d="M1718.16,-168.08C1718.68,-161.01 1719.44,-150.86 1720.09,-141.99"/>
<polygon fill="midnightblue" stroke="midnightblue" points="1723.6,-141.98 1720.85,-131.75 1716.62,-141.47 1723.6,-141.98"/>
</g>
</g>
</svg>
