<?xml version="1.0" encoding="UTF-8" standalone="no"?>
<!DOCTYPE svg PUBLIC "-//W3C//DTD SVG 1.1//EN"
 "http://www.w3.org/Graphics/SVG/1.1/DTD/svg11.dtd">
<!-- Generated by graphviz version 2.43.0 (0)
 -->
<!-- Title: signature&#45;private.h Pages: 1 -->
<svg width="1410pt" height="84pt"
 viewBox="0.00 0.00 1410.00 84.00" xmlns="http://www.w3.org/2000/svg" xmlns:xlink="http://www.w3.org/1999/xlink">
<g id="graph0" class="graph" transform="scale(1 1) rotate(0) translate(4 80)">
<title>signature&#45;private.h</title>
<polygon fill="white" stroke="transparent" points="-4,4 -4,-80 1406,-80 1406,4 -4,4"/>
<!-- Node1 -->
<g id="node1" class="node">
<title>Node1</title>
<g id="a_node1"><a xlink:title=" ">
<polygon fill="#bfbfbf" stroke="black" points="626,-56.5 626,-75.5 736,-75.5 736,-56.5 626,-56.5"/>
<text text-anchor="middle" x="681" y="-63.5" font-family="FreeSans" font-size="10.00">signature&#45;private.h</text>
</a>
</g>
</g>
<!-- Node2 -->
<g id="node2" class="node">
<title>Node2</title>
<g id="a_node2"><a xlink:href="artifact_8c.html" target="_top" xlink:title=" ">
<polygon fill="white" stroke="black" points="0,-0.5 0,-19.5 60,-19.5 60,-0.5 0,-0.5"/>
<text text-anchor="middle" x="30" y="-7.5" font-family="FreeSans" font-size="10.00">artifact.c</text>
</a>
</g>
</g>
<!-- Node1&#45;&gt;Node2 -->
<g id="edge1" class="edge">
<title>Node1&#45;&gt;Node2</title>
<path fill="none" stroke="midnightblue" d="M615.67,-63.48C503.36,-60.14 266.66,-49.89 69,-20 66.11,-19.56 63.13,-19.03 60.15,-18.44"/>
<polygon fill="midnightblue" stroke="midnightblue" points="615.73,-66.99 625.83,-63.78 615.93,-59.99 615.73,-66.99"/>
</g>
<!-- Node3 -->
<g id="node3" class="node">
<title>Node3</title>
<g id="a_node3"><a xlink:href="cipher_8c.html" target="_top" xlink:title=" ">
<polygon fill="white" stroke="black" points="78,-0.5 78,-19.5 132,-19.5 132,-0.5 78,-0.5"/>
<text text-anchor="middle" x="105" y="-7.5" font-family="FreeSans" font-size="10.00">cipher.c</text>
</a>
</g>
</g>
<!-- Node1&#45;&gt;Node3 -->
<g id="edge2" class="edge">
<title>Node1&#45;&gt;Node3</title>
<path fill="none" stroke="midnightblue" d="M615.69,-62.97C513.73,-59.03 310.81,-48.11 141,-20 138.08,-19.52 135.04,-18.92 132.03,-18.26"/>
<polygon fill="midnightblue" stroke="midnightblue" points="615.71,-66.47 625.83,-63.35 615.97,-59.47 615.71,-66.47"/>
</g>
<!-- Node4 -->
<g id="node4" class="node">
<title>Node4</title>
<g id="a_node4"><a xlink:href="effect_8c.html" target="_top" xlink:title=" ">
<polygon fill="white" stroke="black" points="150.5,-0.5 150.5,-19.5 203.5,-19.5 203.5,-0.5 150.5,-0.5"/>
<text text-anchor="middle" x="177" y="-7.5" font-family="FreeSans" font-size="10.00">effect.c</text>
</a>
</g>
</g>
<!-- Node1&#45;&gt;Node4 -->
<g id="edge3" class="edge">
<title>Node1&#45;&gt;Node4</title>
<path fill="none" stroke="midnightblue" d="M615.75,-61.8C524.93,-56.66 355.52,-44.53 213,-20 209.95,-19.48 206.78,-18.83 203.64,-18.13"/>
<polygon fill="midnightblue" stroke="midnightblue" points="615.71,-65.31 625.89,-62.37 616.1,-58.32 615.71,-65.31"/>
</g>
<!-- Node5 -->
<g id="node5" class="node">
<title>Node5</title>
<g id="a_node5"><a xlink:href="feature_8c.html" target="_top" xlink:title=" ">
<polygon fill="white" stroke="black" points="222,-0.5 222,-19.5 282,-19.5 282,-0.5 222,-0.5"/>
<text text-anchor="middle" x="252" y="-7.5" font-family="FreeSans" font-size="10.00">feature.c</text>
</a>
</g>
</g>
<!-- Node1&#45;&gt;Node5 -->
<g id="edge4" class="edge">
<title>Node1&#45;&gt;Node5</title>
<path fill="none" stroke="midnightblue" d="M615.7,-59.72C537.98,-52.91 404.45,-39.57 291,-20 288.12,-19.5 285.14,-18.93 282.17,-18.31"/>
<polygon fill="midnightblue" stroke="midnightblue" points="615.56,-63.22 625.82,-60.59 616.16,-56.24 615.56,-63.22"/>
</g>
<!-- Node6 -->
<g id="node6" class="node">
<title>Node6</title>
<g id="a_node6"><a xlink:href="gem_8c.html" target="_top" xlink:title=" ">
<polygon fill="white" stroke="black" points="300.5,-0.5 300.5,-19.5 347.5,-19.5 347.5,-0.5 300.5,-0.5"/>
<text text-anchor="middle" x="324" y="-7.5" font-family="FreeSans" font-size="10.00">gem.c</text>
</a>
</g>
</g>
<!-- Node1&#45;&gt;Node6 -->
<g id="edge5" class="edge">
<title>Node1&#45;&gt;Node6</title>
<path fill="none" stroke="midnightblue" d="M615.67,-58.42C549.94,-51.21 445.85,-38.21 357,-20 353.97,-19.38 350.82,-18.64 347.71,-17.86"/>
<polygon fill="midnightblue" stroke="midnightblue" points="615.57,-61.93 625.89,-59.52 616.32,-54.97 615.57,-61.93"/>
</g>
<!-- Node7 -->
<g id="node7" class="node">
<title>Node7</title>
<g id="a_node7"><a xlink:href="hashmap_8c.html" target="_top" xlink:title=" ">
<polygon fill="white" stroke="black" points="366,-0.5 366,-19.5 436,-19.5 436,-0.5 366,-0.5"/>
<text text-anchor="middle" x="401" y="-7.5" font-family="FreeSans" font-size="10.00">hashmap.c</text>
</a>
</g>
</g>
<!-- Node1&#45;&gt;Node7 -->
<g id="edge6" class="edge">
<title>Node1&#45;&gt;Node7</title>
<path fill="none" stroke="midnightblue" d="M625.43,-54.62C577.58,-45.63 506.7,-32.19 445,-20 442.09,-19.43 439.08,-18.82 436.06,-18.21"/>
<polygon fill="midnightblue" stroke="midnightblue" points="624.81,-58.06 635.28,-56.47 626.1,-51.18 624.81,-58.06"/>
</g>
<!-- Node8 -->
<g id="node8" class="node">
<title>Node8</title>
<g id="a_node8"><a xlink:href="image_8c.html" target="_top" xlink:title=" ">
<polygon fill="white" stroke="black" points="454,-0.5 454,-19.5 510,-19.5 510,-0.5 454,-0.5"/>
<text text-anchor="middle" x="482" y="-7.5" font-family="FreeSans" font-size="10.00">image.c</text>
</a>
</g>
</g>
<!-- Node1&#45;&gt;Node8 -->
<g id="edge7" class="edge">
<title>Node1&#45;&gt;Node8</title>
<path fill="none" stroke="midnightblue" d="M639.54,-53.75C600.77,-43.23 543.92,-27.8 510.17,-18.64"/>
<polygon fill="midnightblue" stroke="midnightblue" points="638.9,-57.2 649.47,-56.44 640.73,-50.45 638.9,-57.2"/>
</g>
<!-- Node9 -->
<g id="node9" class="node">
<title>Node9</title>
<g id="a_node9"><a xlink:href="magick_8c.html" target="_top" xlink:title=" ">
<polygon fill="white" stroke="black" points="528.5,-0.5 528.5,-19.5 589.5,-19.5 589.5,-0.5 528.5,-0.5"/>
<text text-anchor="middle" x="559" y="-7.5" font-family="FreeSans" font-size="10.00">magick.c</text>
</a>
</g>
</g>
<!-- Node1&#45;&gt;Node9 -->
<g id="edge8" class="edge">
<title>Node1&#45;&gt;Node9</title>
<path fill="none" stroke="midnightblue" d="M652.46,-52.37C629.61,-42.26 598.19,-28.35 578.24,-19.52"/>
<polygon fill="midnightblue" stroke="midnightblue" points="651.11,-55.6 661.67,-56.44 653.94,-49.2 651.11,-55.6"/>
</g>
<!-- Node10 -->
<g id="node10" class="node">
<title>Node10</title>
<g id="a_node10"><a xlink:href="property_8c.html" target="_top" xlink:title=" ">
<polygon fill="white" stroke="black" points="607.5,-0.5 607.5,-19.5 672.5,-19.5 672.5,-0.5 607.5,-0.5"/>
<text text-anchor="middle" x="640" y="-7.5" font-family="FreeSans" font-size="10.00">property.c</text>
</a>
</g>
</g>
<!-- Node1&#45;&gt;Node10 -->
<g id="edge9" class="edge">
<title>Node1&#45;&gt;Node10</title>
<path fill="none" stroke="midnightblue" d="M667.98,-47.86C660.88,-38.5 652.4,-27.33 646.64,-19.75"/>
<polygon fill="midnightblue" stroke="midnightblue" points="665.39,-50.24 674.23,-56.08 670.97,-46 665.39,-50.24"/>
</g>
<!-- Node11 -->
<g id="node11" class="node">
<title>Node11</title>
<g id="a_node11"><a xlink:href="random_8c.html" target="_top" xlink:title=" ">
<polygon fill="white" stroke="black" points="691,-0.5 691,-19.5 753,-19.5 753,-0.5 691,-0.5"/>
<text text-anchor="middle" x="722" y="-7.5" font-family="FreeSans" font-size="10.00">random.c</text>
</a>
</g>
</g>
<!-- Node1&#45;&gt;Node11 -->
<g id="edge10" class="edge">
<title>Node1&#45;&gt;Node11</title>
<path fill="none" stroke="midnightblue" d="M694.02,-47.86C701.12,-38.5 709.6,-27.33 715.36,-19.75"/>
<polygon fill="midnightblue" stroke="midnightblue" points="691.03,-46 687.77,-56.08 696.61,-50.24 691.03,-46"/>
</g>
<!-- Node12 -->
<g id="node12" class="node">
<title>Node12</title>
<g id="a_node12"><a xlink:href="resample_8c.html" target="_top" xlink:title=" ">
<polygon fill="white" stroke="black" points="771.5,-0.5 771.5,-19.5 842.5,-19.5 842.5,-0.5 771.5,-0.5"/>
<text text-anchor="middle" x="807" y="-7.5" font-family="FreeSans" font-size="10.00">resample.c</text>
</a>
</g>
</g>
<!-- Node1&#45;&gt;Node12 -->
<g id="edge11" class="edge">
<title>Node1&#45;&gt;Node12</title>
<path fill="none" stroke="midnightblue" d="M710.16,-52.5C733.78,-42.38 766.43,-28.39 787.13,-19.52"/>
<polygon fill="midnightblue" stroke="midnightblue" points="708.78,-49.29 700.97,-56.44 711.54,-55.72 708.78,-49.29"/>
</g>
<!-- Node13 -->
<g id="node13" class="node">
<title>Node13</title>
<g id="a_node13"><a xlink:href="resource_8c.html" target="_top" xlink:title=" ">
<polygon fill="white" stroke="black" points="860.5,-0.5 860.5,-19.5 927.5,-19.5 927.5,-0.5 860.5,-0.5"/>
<text text-anchor="middle" x="894" y="-7.5" font-family="FreeSans" font-size="10.00">resource.c</text>
</a>
</g>
</g>
<!-- Node1&#45;&gt;Node13 -->
<g id="edge12" class="edge">
<title>Node1&#45;&gt;Node13</title>
<path fill="none" stroke="midnightblue" d="M724.55,-53.96C764.78,-43.76 823.7,-28.82 860.41,-19.52"/>
<polygon fill="midnightblue" stroke="midnightblue" points="723.58,-50.59 714.75,-56.44 725.3,-57.38 723.58,-50.59"/>
</g>
<!-- Node14 -->
<g id="node14" class="node">
<title>Node14</title>
<g id="a_node14"><a xlink:href="signature_8c.html" target="_top" xlink:title=" ">
<polygon fill="white" stroke="black" points="945.5,-0.5 945.5,-19.5 1016.5,-19.5 1016.5,-0.5 945.5,-0.5"/>
<text text-anchor="middle" x="981" y="-7.5" font-family="FreeSans" font-size="10.00">signature.c</text>
</a>
</g>
</g>
<!-- Node1&#45;&gt;Node14 -->
<g id="edge13" class="edge">
<title>Node1&#45;&gt;Node14</title>
<path fill="none" stroke="midnightblue" d="M742.12,-54.75C794.04,-45.92 870.5,-32.64 937,-20 939.76,-19.48 942.61,-18.92 945.48,-18.35"/>
<polygon fill="midnightblue" stroke="midnightblue" points="741.35,-51.33 732.08,-56.45 742.52,-58.23 741.35,-51.33"/>
</g>
<!-- Node15 -->
<g id="node15" class="node">
<title>Node15</title>
<g id="a_node15"><a xlink:href="statistic_8c.html" target="_top" xlink:title=" ">
<polygon fill="white" stroke="black" points="1035,-0.5 1035,-19.5 1099,-19.5 1099,-0.5 1035,-0.5"/>
<text text-anchor="middle" x="1067" y="-7.5" font-family="FreeSans" font-size="10.00">statistic.c</text>
</a>
</g>
</g>
<!-- Node1&#45;&gt;Node15 -->
<g id="edge14" class="edge">
<title>Node1&#45;&gt;Node15</title>
<path fill="none" stroke="midnightblue" d="M746.56,-58.16C816.15,-50.49 929.22,-36.9 1026,-20 1028.87,-19.5 1031.85,-18.93 1034.82,-18.34"/>
<polygon fill="midnightblue" stroke="midnightblue" points="745.75,-54.72 736.19,-59.29 746.52,-61.68 745.75,-54.72"/>
</g>
<!-- Node16 -->
<g id="node16" class="node">
<title>Node16</title>
<g id="a_node16"><a xlink:href="string_8c.html" target="_top" xlink:title=" ">
<polygon fill="white" stroke="black" points="1117.5,-0.5 1117.5,-19.5 1170.5,-19.5 1170.5,-0.5 1117.5,-0.5"/>
<text text-anchor="middle" x="1144" y="-7.5" font-family="FreeSans" font-size="10.00">string.c</text>
</a>
</g>
</g>
<!-- Node1&#45;&gt;Node16 -->
<g id="edge15" class="edge">
<title>Node1&#45;&gt;Node16</title>
<path fill="none" stroke="midnightblue" d="M746.46,-60.96C830.6,-55.11 980.99,-42.46 1108,-20 1111.05,-19.46 1114.21,-18.81 1117.35,-18.1"/>
<polygon fill="midnightblue" stroke="midnightblue" points="746.02,-57.48 736.28,-61.66 746.5,-64.47 746.02,-57.48"/>
</g>
<!-- Node17 -->
<g id="node17" class="node">
<title>Node17</title>
<g id="a_node17"><a xlink:href="threshold_8c.html" target="_top" xlink:title=" ">
<polygon fill="white" stroke="black" points="1188.5,-0.5 1188.5,-19.5 1259.5,-19.5 1259.5,-0.5 1188.5,-0.5"/>
<text text-anchor="middle" x="1224" y="-7.5" font-family="FreeSans" font-size="10.00">threshold.c</text>
</a>
</g>
</g>
<!-- Node1&#45;&gt;Node17 -->
<g id="edge16" class="edge">
<title>Node1&#45;&gt;Node17</title>
<path fill="none" stroke="midnightblue" d="M746.34,-61.44C841.93,-55.71 1025.35,-42.72 1180,-20 1182.62,-19.61 1185.33,-19.17 1188.04,-18.7"/>
<polygon fill="midnightblue" stroke="midnightblue" points="746.02,-57.96 736.25,-62.04 746.44,-64.95 746.02,-57.96"/>
</g>
<!-- Node18 -->
<g id="node18" class="node">
<title>Node18</title>
<g id="a_node18"><a xlink:href="utility_8c.html" target="_top" xlink:title=" ">
<polygon fill="white" stroke="black" points="1278,-0.5 1278,-19.5 1330,-19.5 1330,-0.5 1278,-0.5"/>
<text text-anchor="middle" x="1304" y="-7.5" font-family="FreeSans" font-size="10.00">utility.c</text>
</a>
</g>
</g>
<!-- Node1&#45;&gt;Node18 -->
<g id="edge17" class="edge">
<title>Node1&#45;&gt;Node18</title>
<path fill="none" stroke="midnightblue" d="M746.28,-63.73C855.27,-60.79 1080.88,-51.14 1269,-20 1271.85,-19.53 1274.8,-18.94 1277.73,-18.28"/>
<polygon fill="midnightblue" stroke="midnightblue" points="746.01,-60.24 736.1,-64 746.19,-67.24 746.01,-60.24"/>
</g>
<!-- Node19 -->
<g id="node19" class="node">
<title>Node19</title>
<g id="a_node19"><a xlink:href="vision_8c.html" target="_top" xlink:title=" ">
<polygon fill="white" stroke="black" points="1348,-0.5 1348,-19.5 1402,-19.5 1402,-0.5 1348,-0.5"/>
<text text-anchor="middle" x="1375" y="-7.5" font-family="FreeSans" font-size="10.00">vision.c</text>
</a>
</g>
</g>
<!-- Node1&#45;&gt;Node19 -->
<g id="edge18" class="edge">
<title>Node1&#45;&gt;Node19</title>
<path fill="none" stroke="midnightblue" d="M746.42,-64.34C865.18,-62.3 1123.87,-53.97 1339,-20 1341.93,-19.54 1344.96,-18.95 1347.98,-18.3"/>
<polygon fill="midnightblue" stroke="midnightblue" points="746.34,-60.84 736.4,-64.51 746.45,-67.84 746.34,-60.84"/>
</g>
</g>
</svg>
