<?xml version="1.0" encoding="UTF-8" standalone="no"?>
<!DOCTYPE svg PUBLIC "-//W3C//DTD SVG 1.1//EN"
 "http://www.w3.org/Graphics/SVG/1.1/DTD/svg11.dtd">
<!-- Generated by graphviz version 2.43.0 (0)
 -->
<!-- Title: signature.c Pages: 1 -->
<svg width="3174pt" height="476pt"
 viewBox="0.00 0.00 3174.00 476.00" xmlns="http://www.w3.org/2000/svg" xmlns:xlink="http://www.w3.org/1999/xlink">
<g id="graph0" class="graph" transform="scale(1 1) rotate(0) translate(4 472)">
<title>signature.c</title>
<polygon fill="white" stroke="transparent" points="-4,4 -4,-472 3170,-472 3170,4 -4,4"/>
<!-- Node1 -->
<g id="node1" class="node">
<title>Node1</title>
<g id="a_node1"><a xlink:title=" ">
<polygon fill="#bfbfbf" stroke="black" points="1545.5,-448.5 1545.5,-467.5 1616.5,-467.5 1616.5,-448.5 1545.5,-448.5"/>
<text text-anchor="middle" x="1581" y="-455.5" font-family="FreeSans" font-size="10.00">signature.c</text>
</a>
</g>
</g>
<!-- Node2 -->
<g id="node2" class="node">
<title>Node2</title>
<g id="a_node2"><a xlink:href="studio_8h.html" target="_top" xlink:title=" ">
<polygon fill="white" stroke="black" points="2237.5,-336.5 2237.5,-355.5 2332.5,-355.5 2332.5,-336.5 2237.5,-336.5"/>
<text text-anchor="middle" x="2285" y="-343.5" font-family="FreeSans" font-size="10.00">magick/studio.h</text>
</a>
</g>
</g>
<!-- Node1&#45;&gt;Node2 -->
<g id="edge1" class="edge">
<title>Node1&#45;&gt;Node2</title>
<path fill="none" stroke="midnightblue" d="M1594.3,-448.37C1617.51,-433.82 1667.39,-404.73 1714,-392 1809.52,-365.91 2101.98,-353.18 2227.16,-348.81"/>
<polygon fill="midnightblue" stroke="midnightblue" points="2227.44,-352.3 2237.32,-348.46 2227.2,-345.31 2227.44,-352.3"/>
</g>
<!-- Node24 -->
<g id="node23" class="node">
<title>Node24</title>
<g id="a_node23"><a xlink:href="cache_8h.html" target="_top" xlink:title=" ">
<polygon fill="white" stroke="black" points="1219.5,-336.5 1219.5,-355.5 1312.5,-355.5 1312.5,-336.5 1219.5,-336.5"/>
<text text-anchor="middle" x="1266" y="-343.5" font-family="FreeSans" font-size="10.00">magick/cache.h</text>
</a>
</g>
</g>
<!-- Node1&#45;&gt;Node24 -->
<g id="edge23" class="edge">
<title>Node1&#45;&gt;Node24</title>
<path fill="none" stroke="midnightblue" d="M1545.45,-457.6C1494.13,-457 1397.69,-450.27 1327,-412 1306.04,-400.65 1288.22,-379.43 1277.35,-364.32"/>
<polygon fill="midnightblue" stroke="midnightblue" points="1280.07,-362.1 1271.51,-355.85 1274.3,-366.07 1280.07,-362.1"/>
</g>
<!-- Node26 -->
<g id="node25" class="node">
<title>Node26</title>
<g id="a_node25"><a xlink:href="image_8h.html" target="_top" xlink:title=" ">
<polygon fill="white" stroke="red" points="737.5,-224.5 737.5,-243.5 832.5,-243.5 832.5,-224.5 737.5,-224.5"/>
<text text-anchor="middle" x="785" y="-231.5" font-family="FreeSans" font-size="10.00">magick/image.h</text>
</a>
</g>
</g>
<!-- Node1&#45;&gt;Node26 -->
<g id="edge63" class="edge">
<title>Node1&#45;&gt;Node26</title>
<path fill="none" stroke="midnightblue" d="M1545.13,-452.06C1491.28,-444.48 1386.42,-429.03 1298,-412 1076.94,-369.41 968,-454.23 804,-300 791.43,-288.18 787.03,-268.55 785.56,-253.95"/>
<polygon fill="midnightblue" stroke="midnightblue" points="789.03,-253.32 784.91,-243.56 782.04,-253.76 789.03,-253.32"/>
</g>
<!-- Node31 -->
<g id="node29" class="node">
<title>Node31</title>
<g id="a_node29"><a xlink:href="exception_8h.html" target="_top" xlink:title=" ">
<polygon fill="white" stroke="black" points="1241.5,-56.5 1241.5,-75.5 1354.5,-75.5 1354.5,-56.5 1241.5,-56.5"/>
<text text-anchor="middle" x="1298" y="-63.5" font-family="FreeSans" font-size="10.00">magick/exception.h</text>
</a>
</g>
</g>
<!-- Node1&#45;&gt;Node31 -->
<g id="edge53" class="edge">
<title>Node1&#45;&gt;Node31</title>
<path fill="none" stroke="midnightblue" d="M1545.13,-454.15C1489.64,-449.03 1386.59,-436.45 1360,-412 1337.85,-391.62 1341,-377.1 1341,-347 1341,-347 1341,-347 1341,-177 1341,-142.31 1322.22,-105.42 1309.48,-84.4"/>
<polygon fill="midnightblue" stroke="midnightblue" points="1312.27,-82.27 1303.98,-75.67 1306.35,-86 1312.27,-82.27"/>
</g>
<!-- Node44 -->
<g id="node40" class="node">
<title>Node44</title>
<g id="a_node40"><a xlink:href="string___8h.html" target="_top" xlink:title=" ">
<polygon fill="white" stroke="black" points="1541,-112.5 1541,-131.5 1639,-131.5 1639,-112.5 1541,-112.5"/>
<text text-anchor="middle" x="1590" y="-119.5" font-family="FreeSans" font-size="10.00">magick/string_.h</text>
</a>
</g>
</g>
<!-- Node1&#45;&gt;Node44 -->
<g id="edge74" class="edge">
<title>Node1&#45;&gt;Node44</title>
<path fill="none" stroke="midnightblue" d="M1580.51,-448.07C1579.11,-416.11 1577.23,-305.06 1613,-224 1621.41,-204.95 1635.91,-207.58 1643,-188 1646.03,-179.64 1646.73,-176.07 1643,-168 1637.08,-155.21 1625.53,-144.72 1614.72,-137.1"/>
<polygon fill="midnightblue" stroke="midnightblue" points="1616.62,-134.16 1606.33,-131.61 1612.79,-140.02 1616.62,-134.16"/>
</g>
<!-- Node45 -->
<g id="node41" class="node">
<title>Node45</title>
<g id="a_node41"><a xlink:href="quantum_8h.html" target="_top" xlink:title=" ">
<polygon fill="white" stroke="red" points="0,-168.5 0,-187.5 108,-187.5 108,-168.5 0,-168.5"/>
<text text-anchor="middle" x="54" y="-175.5" font-family="FreeSans" font-size="10.00">magick/quantum.h</text>
</a>
</g>
</g>
<!-- Node1&#45;&gt;Node45 -->
<g id="edge67" class="edge">
<title>Node1&#45;&gt;Node45</title>
<path fill="none" stroke="midnightblue" d="M1545.44,-455.65C1346.67,-447.86 382,-407 382,-347 382,-347 382,-347 382,-289 382,-233.95 213.8,-201.33 118.3,-187.25"/>
<polygon fill="midnightblue" stroke="midnightblue" points="118.56,-183.75 108.16,-185.79 117.56,-190.68 118.56,-183.75"/>
</g>
<!-- Node51 -->
<g id="node42" class="node">
<title>Node51</title>
<g id="a_node42"><a xlink:href="exception-private_8h.html" target="_top" xlink:title=" ">
<polygon fill="white" stroke="black" points="1369.5,-168.5 1369.5,-187.5 1520.5,-187.5 1520.5,-168.5 1369.5,-168.5"/>
<text text-anchor="middle" x="1445" y="-175.5" font-family="FreeSans" font-size="10.00">magick/exception&#45;private.h</text>
</a>
</g>
</g>
<!-- Node1&#45;&gt;Node51 -->
<g id="edge54" class="edge">
<title>Node1&#45;&gt;Node51</title>
<path fill="none" stroke="midnightblue" d="M1575.72,-448.23C1565.27,-430.04 1543,-386.6 1543,-347 1543,-347 1543,-347 1543,-289 1543,-245.38 1499.51,-211.06 1470.47,-193.01"/>
<polygon fill="midnightblue" stroke="midnightblue" points="1472,-189.85 1461.62,-187.73 1468.42,-195.86 1472,-189.85"/>
</g>
<!-- Node54 -->
<g id="node45" class="node">
<title>Node54</title>
<g id="a_node45"><a xlink:href="property_8h.html" target="_top" xlink:title=" ">
<polygon fill="white" stroke="black" points="1723,-392.5 1723,-411.5 1827,-411.5 1827,-392.5 1723,-392.5"/>
<text text-anchor="middle" x="1775" y="-399.5" font-family="FreeSans" font-size="10.00">magick/property.h</text>
</a>
</g>
</g>
<!-- Node1&#45;&gt;Node54 -->
<g id="edge62" class="edge">
<title>Node1&#45;&gt;Node54</title>
<path fill="none" stroke="midnightblue" d="M1611.74,-448.44C1644.94,-439.2 1697.99,-424.44 1734.56,-414.26"/>
<polygon fill="midnightblue" stroke="midnightblue" points="1735.71,-417.57 1744.4,-411.52 1733.83,-410.83 1735.71,-417.57"/>
</g>
<!-- Node55 -->
<g id="node46" class="node">
<title>Node55</title>
<g id="a_node46"><a xlink:href="memory___8h.html" target="_top" xlink:title=" ">
<polygon fill="white" stroke="black" points="1647.5,-336.5 1647.5,-355.5 1758.5,-355.5 1758.5,-336.5 1647.5,-336.5"/>
<text text-anchor="middle" x="1703" y="-343.5" font-family="FreeSans" font-size="10.00">magick/memory_.h</text>
</a>
</g>
</g>
<!-- Node1&#45;&gt;Node55 -->
<g id="edge64" class="edge">
<title>Node1&#45;&gt;Node55</title>
<path fill="none" stroke="midnightblue" d="M1591.06,-448.48C1601.6,-439.5 1618.6,-424.91 1633,-412 1651.58,-395.34 1672.5,-375.81 1686.59,-362.54"/>
<polygon fill="midnightblue" stroke="midnightblue" points="1689.16,-364.93 1694.03,-355.52 1684.36,-359.84 1689.16,-364.93"/>
</g>
<!-- Node56 -->
<g id="node47" class="node">
<title>Node56</title>
<g id="a_node47"><a xlink:href="quantum-private_8h.html" target="_top" xlink:title=" ">
<polygon fill="white" stroke="red" points="1369,-392.5 1369,-411.5 1515,-411.5 1515,-392.5 1369,-392.5"/>
<text text-anchor="middle" x="1442" y="-399.5" font-family="FreeSans" font-size="10.00">magick/quantum&#45;private.h</text>
</a>
</g>
</g>
<!-- Node1&#45;&gt;Node56 -->
<g id="edge68" class="edge">
<title>Node1&#45;&gt;Node56</title>
<path fill="none" stroke="midnightblue" d="M1558.98,-448.44C1535.9,-439.48 1499.44,-425.31 1473.36,-415.18"/>
<polygon fill="midnightblue" stroke="midnightblue" points="1474.51,-411.88 1463.92,-411.52 1471.98,-418.4 1474.51,-411.88"/>
</g>
<!-- Node64 -->
<g id="node48" class="node">
<title>Node64</title>
<g id="a_node48"><a xlink:href="signature_8h.html" target="_top" xlink:title=" ">
<polygon fill="white" stroke="black" points="1845,-392.5 1845,-411.5 1955,-411.5 1955,-392.5 1845,-392.5"/>
<text text-anchor="middle" x="1900" y="-399.5" font-family="FreeSans" font-size="10.00">magick/signature.h</text>
</a>
</g>
</g>
<!-- Node1&#45;&gt;Node64 -->
<g id="edge71" class="edge">
<title>Node1&#45;&gt;Node64</title>
<path fill="none" stroke="midnightblue" d="M1616.66,-450.96C1670.6,-441.83 1773.6,-424.4 1839.43,-413.25"/>
<polygon fill="midnightblue" stroke="midnightblue" points="1840.39,-416.64 1849.67,-411.52 1839.22,-409.74 1840.39,-416.64"/>
</g>
<!-- Node65 -->
<g id="node49" class="node">
<title>Node65</title>
<g id="a_node49"><a xlink:href="signature-private_8h.html" target="_top" xlink:title=" ">
<polygon fill="white" stroke="black" points="1621.5,-224.5 1621.5,-243.5 1770.5,-243.5 1770.5,-224.5 1621.5,-224.5"/>
<text text-anchor="middle" x="1696" y="-231.5" font-family="FreeSans" font-size="10.00">magick/signature&#45;private.h</text>
</a>
</g>
</g>
<!-- Node1&#45;&gt;Node65 -->
<g id="edge72" class="edge">
<title>Node1&#45;&gt;Node65</title>
<path fill="none" stroke="midnightblue" d="M1583.67,-448.39C1594.38,-413.91 1633.89,-287.32 1639,-280 1647.6,-267.68 1660.54,-257.08 1671.92,-249.27"/>
<polygon fill="midnightblue" stroke="midnightblue" points="1674.13,-252.01 1680.6,-243.62 1670.31,-246.14 1674.13,-252.01"/>
</g>
<!-- Node66 -->
<g id="node50" class="node">
<title>Node66</title>
<g id="a_node50"><a xlink:href="timer-private_8h.html" target="_top" xlink:title=" ">
<polygon fill="white" stroke="black" points="1973.5,-392.5 1973.5,-411.5 2102.5,-411.5 2102.5,-392.5 1973.5,-392.5"/>
<text text-anchor="middle" x="2038" y="-399.5" font-family="FreeSans" font-size="10.00">magick/timer&#45;private.h</text>
</a>
</g>
</g>
<!-- Node1&#45;&gt;Node66 -->
<g id="edge75" class="edge">
<title>Node1&#45;&gt;Node66</title>
<path fill="none" stroke="midnightblue" d="M1616.65,-452.86C1682.7,-445.18 1828.83,-428.14 1963.35,-412.07"/>
<polygon fill="midnightblue" stroke="midnightblue" points="1963.91,-415.53 1973.43,-410.87 1963.08,-408.58 1963.91,-415.53"/>
</g>
<!-- Node3 -->
<g id="node3" class="node">
<title>Node3</title>
<g id="a_node3"><a xlink:href="magick-config_8h.html" target="_top" xlink:title=" ">
<polygon fill="white" stroke="red" points="1807,-224.5 1807,-243.5 1941,-243.5 1941,-224.5 1807,-224.5"/>
<text text-anchor="middle" x="1874" y="-231.5" font-family="FreeSans" font-size="10.00">magick/magick&#45;config.h</text>
</a>
</g>
</g>
<!-- Node2&#45;&gt;Node3 -->
<g id="edge2" class="edge">
<title>Node2&#45;&gt;Node3</title>
<path fill="none" stroke="midnightblue" d="M2237.44,-343.94C2124.53,-340.94 1847.7,-330.51 1820,-300 1804.47,-282.89 1828.49,-262.23 1849.27,-248.87"/>
<polygon fill="midnightblue" stroke="midnightblue" points="1851.15,-251.82 1857.85,-243.62 1847.5,-245.85 1851.15,-251.82"/>
</g>
<!-- Node5 -->
<g id="node4" class="node">
<title>Node5</title>
<g id="a_node4"><a xlink:title=" ">
<polygon fill="white" stroke="#bfbfbf" points="1474,-0.5 1474,-19.5 1530,-19.5 1530,-0.5 1474,-0.5"/>
<text text-anchor="middle" x="1502" y="-7.5" font-family="FreeSans" font-size="10.00">stdarg.h</text>
</a>
</g>
</g>
<!-- Node2&#45;&gt;Node5 -->
<g id="edge3" class="edge">
<title>Node2&#45;&gt;Node5</title>
<path fill="none" stroke="midnightblue" d="M2237.26,-342.09C2174.36,-337.3 2068.38,-325.6 2040,-300 2017.65,-279.84 2021,-265.1 2021,-235 2021,-235 2021,-235 2021,-121 2021,-22.76 1660.66,-11.86 1540.48,-10.96"/>
<polygon fill="midnightblue" stroke="midnightblue" points="1540.29,-7.46 1530.27,-10.9 1540.25,-14.46 1540.29,-7.46"/>
</g>
<!-- Node6 -->
<g id="node5" class="node">
<title>Node6</title>
<g id="a_node5"><a xlink:title=" ">
<polygon fill="white" stroke="#bfbfbf" points="2049,-280.5 2049,-299.5 2099,-299.5 2099,-280.5 2049,-280.5"/>
<text text-anchor="middle" x="2074" y="-287.5" font-family="FreeSans" font-size="10.00">stdio.h</text>
</a>
</g>
</g>
<!-- Node2&#45;&gt;Node6 -->
<g id="edge4" class="edge">
<title>Node2&#45;&gt;Node6</title>
<path fill="none" stroke="midnightblue" d="M2251.58,-336.47C2216.18,-327.43 2158.64,-312.73 2109,-300 2108.9,-299.97 2108.8,-299.95 2108.7,-299.92"/>
<polygon fill="midnightblue" stroke="midnightblue" points="2109.79,-296.59 2099.23,-297.49 2108.05,-303.37 2109.79,-296.59"/>
</g>
<!-- Node7 -->
<g id="node6" class="node">
<title>Node7</title>
<g id="a_node6"><a xlink:title=" ">
<polygon fill="white" stroke="#bfbfbf" points="2117.5,-280.5 2117.5,-299.5 2170.5,-299.5 2170.5,-280.5 2117.5,-280.5"/>
<text text-anchor="middle" x="2144" y="-287.5" font-family="FreeSans" font-size="10.00">ctype.h</text>
</a>
</g>
</g>
<!-- Node2&#45;&gt;Node7 -->
<g id="edge5" class="edge">
<title>Node2&#45;&gt;Node7</title>
<path fill="none" stroke="midnightblue" d="M2262.66,-336.44C2239.25,-327.48 2202.26,-313.31 2175.81,-303.18"/>
<polygon fill="midnightblue" stroke="midnightblue" points="2176.83,-299.82 2166.24,-299.52 2174.32,-306.36 2176.83,-299.82"/>
</g>
<!-- Node8 -->
<g id="node7" class="node">
<title>Node8</title>
<g id="a_node7"><a xlink:title=" ">
<polygon fill="white" stroke="#bfbfbf" points="2188.5,-280.5 2188.5,-299.5 2243.5,-299.5 2243.5,-280.5 2188.5,-280.5"/>
<text text-anchor="middle" x="2216" y="-287.5" font-family="FreeSans" font-size="10.00">locale.h</text>
</a>
</g>
</g>
<!-- Node2&#45;&gt;Node8 -->
<g id="edge6" class="edge">
<title>Node2&#45;&gt;Node8</title>
<path fill="none" stroke="midnightblue" d="M2273.91,-336.32C2263.51,-328.18 2247.74,-315.84 2235.28,-306.09"/>
<polygon fill="midnightblue" stroke="midnightblue" points="2237.32,-303.24 2227.29,-299.83 2233.01,-308.75 2237.32,-303.24"/>
</g>
<!-- Node9 -->
<g id="node8" class="node">
<title>Node9</title>
<g id="a_node8"><a xlink:title=" ">
<polygon fill="white" stroke="#bfbfbf" points="1647.5,-280.5 1647.5,-299.5 1698.5,-299.5 1698.5,-280.5 1647.5,-280.5"/>
<text text-anchor="middle" x="1673" y="-287.5" font-family="FreeSans" font-size="10.00">errno.h</text>
</a>
</g>
</g>
<!-- Node2&#45;&gt;Node9 -->
<g id="edge7" class="edge">
<title>Node2&#45;&gt;Node9</title>
<path fill="none" stroke="midnightblue" d="M2237.17,-344.08C2139.49,-341.58 1910.07,-332.64 1708.39,-299.74"/>
<polygon fill="midnightblue" stroke="midnightblue" points="1708.94,-296.28 1698.5,-298.1 1707.8,-303.19 1708.94,-296.28"/>
</g>
<!-- Node10 -->
<g id="node9" class="node">
<title>Node10</title>
<g id="a_node9"><a xlink:title=" ">
<polygon fill="white" stroke="#bfbfbf" points="2261.5,-280.5 2261.5,-299.5 2308.5,-299.5 2308.5,-280.5 2261.5,-280.5"/>
<text text-anchor="middle" x="2285" y="-287.5" font-family="FreeSans" font-size="10.00">fcntl.h</text>
</a>
</g>
</g>
<!-- Node2&#45;&gt;Node10 -->
<g id="edge8" class="edge">
<title>Node2&#45;&gt;Node10</title>
<path fill="none" stroke="midnightblue" d="M2285,-336.08C2285,-329.01 2285,-318.86 2285,-309.99"/>
<polygon fill="midnightblue" stroke="midnightblue" points="2288.5,-309.75 2285,-299.75 2281.5,-309.75 2288.5,-309.75"/>
</g>
<!-- Node11 -->
<g id="node10" class="node">
<title>Node11</title>
<g id="a_node10"><a xlink:title=" ">
<polygon fill="white" stroke="#bfbfbf" points="2326.5,-280.5 2326.5,-299.5 2377.5,-299.5 2377.5,-280.5 2326.5,-280.5"/>
<text text-anchor="middle" x="2352" y="-287.5" font-family="FreeSans" font-size="10.00">math.h</text>
</a>
</g>
</g>
<!-- Node2&#45;&gt;Node11 -->
<g id="edge9" class="edge">
<title>Node2&#45;&gt;Node11</title>
<path fill="none" stroke="midnightblue" d="M2295.76,-336.32C2305.77,-328.26 2320.89,-316.08 2332.93,-306.37"/>
<polygon fill="midnightblue" stroke="midnightblue" points="2335.45,-308.83 2341.04,-299.83 2331.06,-303.38 2335.45,-308.83"/>
</g>
<!-- Node12 -->
<g id="node11" class="node">
<title>Node12</title>
<g id="a_node11"><a xlink:title=" ">
<polygon fill="white" stroke="#bfbfbf" points="1765,-56.5 1765,-75.5 1813,-75.5 1813,-56.5 1765,-56.5"/>
<text text-anchor="middle" x="1789" y="-63.5" font-family="FreeSans" font-size="10.00">time.h</text>
</a>
</g>
</g>
<!-- Node2&#45;&gt;Node12 -->
<g id="edge10" class="edge">
<title>Node2&#45;&gt;Node12</title>
<path fill="none" stroke="midnightblue" d="M2237.35,-342.98C2167.37,-339.09 2041.35,-328.28 2007,-300 1983.23,-280.43 1983,-265.8 1983,-235 1983,-235 1983,-235 1983,-177 1983,-104.43 1879.02,-79.16 1823.31,-70.83"/>
<polygon fill="midnightblue" stroke="midnightblue" points="1823.56,-67.33 1813.18,-69.42 1822.6,-74.27 1823.56,-67.33"/>
</g>
<!-- Node13 -->
<g id="node12" class="node">
<title>Node13</title>
<g id="a_node12"><a xlink:title=" ">
<polygon fill="white" stroke="#bfbfbf" points="2395.5,-280.5 2395.5,-299.5 2448.5,-299.5 2448.5,-280.5 2395.5,-280.5"/>
<text text-anchor="middle" x="2422" y="-287.5" font-family="FreeSans" font-size="10.00">limits.h</text>
</a>
</g>
</g>
<!-- Node2&#45;&gt;Node13 -->
<g id="edge11" class="edge">
<title>Node2&#45;&gt;Node13</title>
<path fill="none" stroke="midnightblue" d="M2306.71,-336.44C2329.35,-327.52 2365.07,-313.44 2390.75,-303.32"/>
<polygon fill="midnightblue" stroke="midnightblue" points="2392.37,-306.44 2400.39,-299.52 2389.81,-299.93 2392.37,-306.44"/>
</g>
<!-- Node14 -->
<g id="node13" class="node">
<title>Node14</title>
<g id="a_node13"><a xlink:title=" ">
<polygon fill="white" stroke="#bfbfbf" points="2466.5,-280.5 2466.5,-299.5 2521.5,-299.5 2521.5,-280.5 2466.5,-280.5"/>
<text text-anchor="middle" x="2494" y="-287.5" font-family="FreeSans" font-size="10.00">signal.h</text>
</a>
</g>
</g>
<!-- Node2&#45;&gt;Node14 -->
<g id="edge12" class="edge">
<title>Node2&#45;&gt;Node14</title>
<path fill="none" stroke="midnightblue" d="M2318.12,-336.44C2355.81,-326.7 2417.24,-310.83 2456.63,-300.66"/>
<polygon fill="midnightblue" stroke="midnightblue" points="2457.57,-304.03 2466.38,-298.14 2455.82,-297.25 2457.57,-304.03"/>
</g>
<!-- Node15 -->
<g id="node14" class="node">
<title>Node15</title>
<g id="a_node14"><a xlink:title=" ">
<polygon fill="white" stroke="#bfbfbf" points="1717,-280.5 1717,-299.5 1773,-299.5 1773,-280.5 1717,-280.5"/>
<text text-anchor="middle" x="1745" y="-287.5" font-family="FreeSans" font-size="10.00">assert.h</text>
</a>
</g>
</g>
<!-- Node2&#45;&gt;Node15 -->
<g id="edge13" class="edge">
<title>Node2&#45;&gt;Node15</title>
<path fill="none" stroke="midnightblue" d="M2237.39,-342.62C2148.49,-337.75 1951.36,-324.94 1787,-300 1785.76,-299.81 1784.49,-299.61 1783.22,-299.39"/>
<polygon fill="midnightblue" stroke="midnightblue" points="1783.85,-295.95 1773.38,-297.57 1782.57,-302.83 1783.85,-295.95"/>
</g>
<!-- Node16 -->
<g id="node15" class="node">
<title>Node16</title>
<g id="a_node15"><a xlink:href="method-attribute_8h.html" target="_top" xlink:title=" ">
<polygon fill="white" stroke="black" points="2540,-280.5 2540,-299.5 2688,-299.5 2688,-280.5 2540,-280.5"/>
<text text-anchor="middle" x="2614" y="-287.5" font-family="FreeSans" font-size="10.00">magick/method&#45;attribute.h</text>
</a>
</g>
</g>
<!-- Node2&#45;&gt;Node16 -->
<g id="edge14" class="edge">
<title>Node2&#45;&gt;Node16</title>
<path fill="none" stroke="midnightblue" d="M2332.84,-337.15C2390.78,-327.64 2488.5,-311.6 2552.12,-301.16"/>
<polygon fill="midnightblue" stroke="midnightblue" points="2552.73,-304.6 2562.03,-299.53 2551.59,-297.7 2552.73,-304.6"/>
</g>
<!-- Node17 -->
<g id="node16" class="node">
<title>Node17</title>
<g id="a_node16"><a xlink:title=" ">
<polygon fill="white" stroke="#bfbfbf" points="2706,-280.5 2706,-299.5 2778,-299.5 2778,-280.5 2706,-280.5"/>
<text text-anchor="middle" x="2742" y="-287.5" font-family="FreeSans" font-size="10.00">sys/types.h</text>
</a>
</g>
</g>
<!-- Node2&#45;&gt;Node17 -->
<g id="edge15" class="edge">
<title>Node2&#45;&gt;Node17</title>
<path fill="none" stroke="midnightblue" d="M2332.76,-341.17C2407.84,-334.84 2558.22,-320.94 2695.43,-300.12"/>
<polygon fill="midnightblue" stroke="midnightblue" points="2696.35,-303.52 2705.7,-298.55 2695.28,-296.6 2696.35,-303.52"/>
</g>
<!-- Node18 -->
<g id="node17" class="node">
<title>Node18</title>
<g id="a_node17"><a xlink:title=" ">
<polygon fill="white" stroke="#bfbfbf" points="2796,-280.5 2796,-299.5 2860,-299.5 2860,-280.5 2796,-280.5"/>
<text text-anchor="middle" x="2828" y="-287.5" font-family="FreeSans" font-size="10.00">sys/stat.h</text>
</a>
</g>
</g>
<!-- Node2&#45;&gt;Node18 -->
<g id="edge16" class="edge">
<title>Node2&#45;&gt;Node18</title>
<path fill="none" stroke="midnightblue" d="M2332.65,-342.74C2420.42,-338.15 2613.63,-326 2785.84,-299.99"/>
<polygon fill="midnightblue" stroke="midnightblue" points="2786.49,-303.43 2795.84,-298.46 2785.43,-296.51 2786.49,-303.43"/>
</g>
<!-- Node19 -->
<g id="node18" class="node">
<title>Node19</title>
<g id="a_node18"><a xlink:title=" ">
<polygon fill="white" stroke="#bfbfbf" points="2878,-280.5 2878,-299.5 2932,-299.5 2932,-280.5 2878,-280.5"/>
<text text-anchor="middle" x="2905" y="-287.5" font-family="FreeSans" font-size="10.00">dirent.h</text>
</a>
</g>
</g>
<!-- Node2&#45;&gt;Node19 -->
<g id="edge17" class="edge">
<title>Node2&#45;&gt;Node19</title>
<path fill="none" stroke="midnightblue" d="M2332.63,-344.04C2431.02,-341.46 2663.85,-332.36 2867.97,-299.89"/>
<polygon fill="midnightblue" stroke="midnightblue" points="2868.66,-303.32 2877.97,-298.27 2867.54,-296.41 2868.66,-303.32"/>
</g>
<!-- Node20 -->
<g id="node19" class="node">
<title>Node20</title>
<g id="a_node19"><a xlink:title=" ">
<polygon fill="white" stroke="#bfbfbf" points="2950,-280.5 2950,-299.5 3016,-299.5 3016,-280.5 2950,-280.5"/>
<text text-anchor="middle" x="2983" y="-287.5" font-family="FreeSans" font-size="10.00">sys/wait.h</text>
</a>
</g>
</g>
<!-- Node2&#45;&gt;Node20 -->
<g id="edge18" class="edge">
<title>Node2&#45;&gt;Node20</title>
<path fill="none" stroke="midnightblue" d="M2332.58,-344.06C2439.48,-341.45 2706.92,-332.12 2939.6,-300"/>
<polygon fill="midnightblue" stroke="midnightblue" points="2940.19,-303.46 2949.61,-298.6 2939.22,-296.52 2940.19,-303.46"/>
</g>
<!-- Node21 -->
<g id="node20" class="node">
<title>Node21</title>
<g id="a_node20"><a xlink:title=" ">
<polygon fill="white" stroke="#bfbfbf" points="3034,-280.5 3034,-299.5 3080,-299.5 3080,-280.5 3034,-280.5"/>
<text text-anchor="middle" x="3057" y="-287.5" font-family="FreeSans" font-size="10.00">pwd.h</text>
</a>
</g>
</g>
<!-- Node2&#45;&gt;Node21 -->
<g id="edge19" class="edge">
<title>Node2&#45;&gt;Node21</title>
<path fill="none" stroke="midnightblue" d="M2332.58,-345.6C2449.19,-346.34 2758.44,-343.78 3023.51,-299.88"/>
<polygon fill="midnightblue" stroke="midnightblue" points="3024.43,-303.28 3033.71,-298.17 3023.27,-296.37 3024.43,-303.28"/>
</g>
<!-- Node22 -->
<g id="node21" class="node">
<title>Node22</title>
<g id="a_node21"><a xlink:href="magick-type_8h.html" target="_top" xlink:title=" ">
<polygon fill="white" stroke="black" points="1829,-280.5 1829,-299.5 1955,-299.5 1955,-280.5 1829,-280.5"/>
<text text-anchor="middle" x="1892" y="-287.5" font-family="FreeSans" font-size="10.00">magick/magick&#45;type.h</text>
</a>
</g>
</g>
<!-- Node2&#45;&gt;Node22 -->
<g id="edge20" class="edge">
<title>Node2&#45;&gt;Node22</title>
<path fill="none" stroke="midnightblue" d="M2237.2,-338.43C2169.03,-329.07 2043.36,-311.8 1963.92,-300.88"/>
<polygon fill="midnightblue" stroke="midnightblue" points="1964.37,-297.41 1953.99,-299.52 1963.42,-304.35 1964.37,-297.41"/>
</g>
<!-- Node23 -->
<g id="node22" class="node">
<title>Node23</title>
<g id="a_node22"><a xlink:title=" ">
<polygon fill="white" stroke="#bfbfbf" points="3098,-280.5 3098,-299.5 3166,-299.5 3166,-280.5 3098,-280.5"/>
<text text-anchor="middle" x="3132" y="-287.5" font-family="FreeSans" font-size="10.00">sys/time.h</text>
</a>
</g>
</g>
<!-- Node2&#45;&gt;Node23 -->
<g id="edge22" class="edge">
<title>Node2&#45;&gt;Node23</title>
<path fill="none" stroke="midnightblue" d="M2332.81,-344.83C2456.3,-343.84 2796.08,-337.75 3087.89,-299.94"/>
<polygon fill="midnightblue" stroke="midnightblue" points="3088.35,-303.41 3097.81,-298.64 3087.44,-296.47 3088.35,-303.41"/>
</g>
<!-- Node22&#45;&gt;Node3 -->
<g id="edge21" class="edge">
<title>Node22&#45;&gt;Node3</title>
<path fill="none" stroke="midnightblue" d="M1889.03,-280.08C1886.62,-272.85 1883.14,-262.41 1880.13,-253.4"/>
<polygon fill="midnightblue" stroke="midnightblue" points="1883.4,-252.13 1876.92,-243.75 1876.76,-254.34 1883.4,-252.13"/>
</g>
<!-- Node25 -->
<g id="node24" class="node">
<title>Node25</title>
<g id="a_node24"><a xlink:href="blob_8h.html" target="_top" xlink:title=" ">
<polygon fill="white" stroke="red" points="813,-280.5 813,-299.5 899,-299.5 899,-280.5 813,-280.5"/>
<text text-anchor="middle" x="856" y="-287.5" font-family="FreeSans" font-size="10.00">magick/blob.h</text>
</a>
</g>
</g>
<!-- Node24&#45;&gt;Node25 -->
<g id="edge24" class="edge">
<title>Node24&#45;&gt;Node25</title>
<path fill="none" stroke="midnightblue" d="M1219.37,-338.86C1142.58,-328.74 990,-308.65 909.15,-298"/>
<polygon fill="midnightblue" stroke="midnightblue" points="909.55,-294.52 899.18,-296.69 908.64,-301.46 909.55,-294.52"/>
</g>
<!-- Node25&#45;&gt;Node26 -->
<g id="edge25" class="edge">
<title>Node25&#45;&gt;Node26</title>
<path fill="none" stroke="midnightblue" d="M839.48,-280.32C827.13,-272.26 810.76,-260.08 799.05,-250.37"/>
<polygon fill="midnightblue" stroke="midnightblue" points="801.33,-247.71 791.47,-243.83 796.76,-253.01 801.33,-247.71"/>
</g>
<!-- Node26&#45;&gt;Node25 -->
<g id="edge32" class="edge">
<title>Node26&#45;&gt;Node25</title>
<path fill="none" stroke="midnightblue" d="M801.49,-243.65C813.9,-251.76 830.39,-264.04 842.13,-273.78"/>
<polygon fill="midnightblue" stroke="midnightblue" points="839.85,-276.44 849.71,-280.32 844.43,-271.14 839.85,-276.44"/>
</g>
<!-- Node27 -->
<g id="node26" class="node">
<title>Node27</title>
<g id="a_node26"><a xlink:href="color_8h.html" target="_top" xlink:title=" ">
<polygon fill="white" stroke="black" points="813,-168.5 813,-187.5 901,-187.5 901,-168.5 813,-168.5"/>
<text text-anchor="middle" x="857" y="-175.5" font-family="FreeSans" font-size="10.00">magick/color.h</text>
</a>
</g>
</g>
<!-- Node26&#45;&gt;Node27 -->
<g id="edge26" class="edge">
<title>Node26&#45;&gt;Node27</title>
<path fill="none" stroke="midnightblue" d="M796.57,-224.32C807.42,-216.18 823.88,-203.84 836.88,-194.09"/>
<polygon fill="midnightblue" stroke="midnightblue" points="839.32,-196.63 845.22,-187.83 835.12,-191.03 839.32,-196.63"/>
</g>
<!-- Node28 -->
<g id="node27" class="node">
<title>Node28</title>
<g id="a_node27"><a xlink:href="pixel_8h.html" target="_top" xlink:title=" ">
<polygon fill="white" stroke="red" points="777,-112.5 777,-131.5 865,-131.5 865,-112.5 777,-112.5"/>
<text text-anchor="middle" x="821" y="-119.5" font-family="FreeSans" font-size="10.00">magick/pixel.h</text>
</a>
</g>
</g>
<!-- Node26&#45;&gt;Node28 -->
<g id="edge43" class="edge">
<title>Node26&#45;&gt;Node28</title>
<path fill="none" stroke="midnightblue" d="M787.37,-224.1C790.77,-211.52 797.36,-187.85 804,-168 806.98,-159.08 810.63,-149.3 813.78,-141.14"/>
<polygon fill="midnightblue" stroke="midnightblue" points="817.15,-142.14 817.54,-131.56 810.63,-139.59 817.15,-142.14"/>
</g>
<!-- Node29 -->
<g id="node28" class="node">
<title>Node29</title>
<g id="a_node28"><a xlink:href="colorspace_8h.html" target="_top" xlink:title=" ">
<polygon fill="white" stroke="black" points="834.5,-56.5 834.5,-75.5 951.5,-75.5 951.5,-56.5 834.5,-56.5"/>
<text text-anchor="middle" x="893" y="-63.5" font-family="FreeSans" font-size="10.00">magick/colorspace.h</text>
</a>
</g>
</g>
<!-- Node26&#45;&gt;Node29 -->
<g id="edge33" class="edge">
<title>Node26&#45;&gt;Node29</title>
<path fill="none" stroke="midnightblue" d="M832.56,-229.03C860.05,-224.01 892.56,-212.81 910,-188 931.87,-156.88 914.77,-110 902.55,-84.7"/>
<polygon fill="midnightblue" stroke="midnightblue" points="905.56,-82.89 897.9,-75.57 899.32,-86.07 905.56,-82.89"/>
</g>
<!-- Node32 -->
<g id="node30" class="node">
<title>Node32</title>
<g id="a_node30"><a xlink:href="semaphore_8h.html" target="_top" xlink:title=" ">
<polygon fill="white" stroke="black" points="663.5,-0.5 663.5,-19.5 782.5,-19.5 782.5,-0.5 663.5,-0.5"/>
<text text-anchor="middle" x="723" y="-7.5" font-family="FreeSans" font-size="10.00">magick/semaphore.h</text>
</a>
</g>
</g>
<!-- Node26&#45;&gt;Node32 -->
<g id="edge52" class="edge">
<title>Node26&#45;&gt;Node32</title>
<path fill="none" stroke="midnightblue" d="M737.32,-231.35C593.86,-226.17 174.8,-209.27 155,-188 9.14,-31.35 471.61,-12.33 653.12,-10.77"/>
<polygon fill="midnightblue" stroke="midnightblue" points="653.39,-14.27 663.37,-10.7 653.34,-7.27 653.39,-14.27"/>
</g>
<!-- Node33 -->
<g id="node31" class="node">
<title>Node33</title>
<g id="a_node31"><a xlink:href="cache-view_8h.html" target="_top" xlink:title=" ">
<polygon fill="white" stroke="black" points="637.5,-168.5 637.5,-187.5 756.5,-187.5 756.5,-168.5 637.5,-168.5"/>
<text text-anchor="middle" x="697" y="-175.5" font-family="FreeSans" font-size="10.00">magick/cache&#45;view.h</text>
</a>
</g>
</g>
<!-- Node26&#45;&gt;Node33 -->
<g id="edge34" class="edge">
<title>Node26&#45;&gt;Node33</title>
<path fill="none" stroke="midnightblue" d="M770.86,-224.32C757.13,-215.9 736.06,-202.97 719.94,-193.07"/>
<polygon fill="midnightblue" stroke="midnightblue" points="721.46,-189.9 711.1,-187.65 717.8,-195.87 721.46,-189.9"/>
</g>
<!-- Node34 -->
<g id="node32" class="node">
<title>Node34</title>
<g id="a_node32"><a xlink:href="composite_8h.html" target="_top" xlink:title=" ">
<polygon fill="white" stroke="black" points="957,-168.5 957,-187.5 1073,-187.5 1073,-168.5 957,-168.5"/>
<text text-anchor="middle" x="1015" y="-175.5" font-family="FreeSans" font-size="10.00">magick/composite.h</text>
</a>
</g>
</g>
<!-- Node26&#45;&gt;Node34 -->
<g id="edge36" class="edge">
<title>Node26&#45;&gt;Node34</title>
<path fill="none" stroke="midnightblue" d="M821.44,-224.44C861.4,-215.06 925.59,-199.99 968.98,-189.8"/>
<polygon fill="midnightblue" stroke="midnightblue" points="969.79,-193.21 978.73,-187.52 968.19,-186.39 969.79,-193.21"/>
</g>
<!-- Node35 -->
<g id="node33" class="node">
<title>Node35</title>
<g id="a_node33"><a xlink:href="compress_8h.html" target="_top" xlink:title=" ">
<polygon fill="white" stroke="black" points="1091,-168.5 1091,-187.5 1203,-187.5 1203,-168.5 1091,-168.5"/>
<text text-anchor="middle" x="1147" y="-175.5" font-family="FreeSans" font-size="10.00">magick/compress.h</text>
</a>
</g>
</g>
<!-- Node26&#45;&gt;Node35 -->
<g id="edge37" class="edge">
<title>Node26&#45;&gt;Node35</title>
<path fill="none" stroke="midnightblue" d="M832.7,-225.88C896.19,-216.41 1008.81,-199.61 1080.59,-188.91"/>
<polygon fill="midnightblue" stroke="midnightblue" points="1081.5,-192.31 1090.87,-187.37 1080.46,-185.39 1081.5,-192.31"/>
</g>
<!-- Node36 -->
<g id="node34" class="node">
<title>Node36</title>
<g id="a_node34"><a xlink:href="effect_8h.html" target="_top" xlink:title=" ">
<polygon fill="white" stroke="red" points="1221,-168.5 1221,-187.5 1313,-187.5 1313,-168.5 1221,-168.5"/>
<text text-anchor="middle" x="1267" y="-175.5" font-family="FreeSans" font-size="10.00">magick/effect.h</text>
</a>
</g>
</g>
<!-- Node26&#45;&gt;Node36 -->
<g id="edge38" class="edge">
<title>Node26&#45;&gt;Node36</title>
<path fill="none" stroke="midnightblue" d="M832.81,-228.86C910.03,-221.98 1067.18,-207.16 1210.52,-188.13"/>
<polygon fill="midnightblue" stroke="midnightblue" points="1211.37,-191.55 1220.82,-186.75 1210.44,-184.61 1211.37,-191.55"/>
</g>
<!-- Node38 -->
<g id="node35" class="node">
<title>Node38</title>
<g id="a_node35"><a xlink:href="geometry_8h.html" target="_top" xlink:title=" ">
<polygon fill="white" stroke="black" points="164,-168.5 164,-187.5 274,-187.5 274,-168.5 164,-168.5"/>
<text text-anchor="middle" x="219" y="-175.5" font-family="FreeSans" font-size="10.00">magick/geometry.h</text>
</a>
</g>
</g>
<!-- Node26&#45;&gt;Node38 -->
<g id="edge39" class="edge">
<title>Node26&#45;&gt;Node38</title>
<path fill="none" stroke="midnightblue" d="M737.16,-229.52C649.49,-222.96 456.98,-207.75 284.18,-188.08"/>
<polygon fill="midnightblue" stroke="midnightblue" points="284.47,-184.59 274.14,-186.93 283.67,-191.55 284.47,-184.59"/>
</g>
<!-- Node39 -->
<g id="node36" class="node">
<title>Node39</title>
<g id="a_node36"><a xlink:href="layer_8h.html" target="_top" xlink:title=" ">
<polygon fill="white" stroke="black" points="292.5,-168.5 292.5,-187.5 381.5,-187.5 381.5,-168.5 292.5,-168.5"/>
<text text-anchor="middle" x="337" y="-175.5" font-family="FreeSans" font-size="10.00">magick/layer.h</text>
</a>
</g>
</g>
<!-- Node26&#45;&gt;Node39 -->
<g id="edge40" class="edge">
<title>Node26&#45;&gt;Node39</title>
<path fill="none" stroke="midnightblue" d="M737.47,-228.43C665.05,-221.29 522.53,-206.5 391.7,-188.18"/>
<polygon fill="midnightblue" stroke="midnightblue" points="391.9,-184.67 381.51,-186.74 390.92,-191.6 391.9,-184.67"/>
</g>
<!-- Node40 -->
<g id="node37" class="node">
<title>Node40</title>
<g id="a_node37"><a xlink:href="locale___8h.html" target="_top" xlink:title=" ">
<polygon fill="white" stroke="red" points="399.5,-168.5 399.5,-187.5 498.5,-187.5 498.5,-168.5 399.5,-168.5"/>
<text text-anchor="middle" x="449" y="-175.5" font-family="FreeSans" font-size="10.00">magick/locale_.h</text>
</a>
</g>
</g>
<!-- Node26&#45;&gt;Node40 -->
<g id="edge41" class="edge">
<title>Node26&#45;&gt;Node40</title>
<path fill="none" stroke="midnightblue" d="M737.22,-225.32C677.11,-215.66 573.89,-199.07 508.66,-188.59"/>
<polygon fill="midnightblue" stroke="midnightblue" points="508.96,-185.09 498.53,-186.96 507.85,-192 508.96,-185.09"/>
</g>
<!-- Node42 -->
<g id="node38" class="node">
<title>Node42</title>
<g id="a_node38"><a xlink:href="monitor_8h.html" target="_top" xlink:title=" ">
<polygon fill="white" stroke="black" points="517,-168.5 517,-187.5 619,-187.5 619,-168.5 517,-168.5"/>
<text text-anchor="middle" x="568" y="-175.5" font-family="FreeSans" font-size="10.00">magick/monitor.h</text>
</a>
</g>
</g>
<!-- Node26&#45;&gt;Node42 -->
<g id="edge42" class="edge">
<title>Node26&#45;&gt;Node42</title>
<path fill="none" stroke="midnightblue" d="M750.62,-224.44C713.08,-215.1 652.87,-200.12 611.93,-189.93"/>
<polygon fill="midnightblue" stroke="midnightblue" points="612.77,-186.53 602.22,-187.52 611.08,-193.33 612.77,-186.53"/>
</g>
<!-- Node43 -->
<g id="node39" class="node">
<title>Node43</title>
<g id="a_node39"><a xlink:href="profile_8h.html" target="_top" xlink:title=" ">
<polygon fill="white" stroke="black" points="1538.5,-168.5 1538.5,-187.5 1633.5,-187.5 1633.5,-168.5 1538.5,-168.5"/>
<text text-anchor="middle" x="1586" y="-175.5" font-family="FreeSans" font-size="10.00">magick/profile.h</text>
</a>
</g>
</g>
<!-- Node26&#45;&gt;Node43 -->
<g id="edge44" class="edge">
<title>Node26&#45;&gt;Node43</title>
<path fill="none" stroke="midnightblue" d="M832.64,-231.76C949.45,-228.36 1259.57,-217.23 1528.05,-188.11"/>
<polygon fill="midnightblue" stroke="midnightblue" points="1528.83,-191.55 1538.38,-186.98 1528.06,-184.59 1528.83,-191.55"/>
</g>
<!-- Node26&#45;&gt;Node45 -->
<g id="edge49" class="edge">
<title>Node26&#45;&gt;Node45</title>
<path fill="none" stroke="midnightblue" d="M737.37,-231.03C628.64,-226.05 354.24,-211.75 118.46,-188.52"/>
<polygon fill="midnightblue" stroke="midnightblue" points="118.63,-185.02 108.33,-187.52 117.93,-191.99 118.63,-185.02"/>
</g>
<!-- Node27&#45;&gt;Node28 -->
<g id="edge27" class="edge">
<title>Node27&#45;&gt;Node28</title>
<path fill="none" stroke="midnightblue" d="M851.06,-168.08C846.02,-160.53 838.66,-149.49 832.49,-140.23"/>
<polygon fill="midnightblue" stroke="midnightblue" points="835.29,-138.13 826.83,-131.75 829.47,-142.01 835.29,-138.13"/>
</g>
<!-- Node27&#45;&gt;Node31 -->
<g id="edge29" class="edge">
<title>Node27&#45;&gt;Node31</title>
<path fill="none" stroke="midnightblue" d="M891.24,-168.46C970.37,-148.72 1165.88,-99.96 1253.85,-78.01"/>
<polygon fill="midnightblue" stroke="midnightblue" points="1254.93,-81.35 1263.78,-75.53 1253.23,-74.56 1254.93,-81.35"/>
</g>
<!-- Node28&#45;&gt;Node29 -->
<g id="edge28" class="edge">
<title>Node28&#45;&gt;Node29</title>
<path fill="none" stroke="midnightblue" d="M832.57,-112.32C843.42,-104.18 859.88,-91.84 872.88,-82.09"/>
<polygon fill="midnightblue" stroke="midnightblue" points="875.32,-84.63 881.22,-75.83 871.12,-79.03 875.32,-84.63"/>
</g>
<!-- Node31&#45;&gt;Node5 -->
<g id="edge30" class="edge">
<title>Node31&#45;&gt;Node5</title>
<path fill="none" stroke="midnightblue" d="M1330.32,-56.44C1366.63,-46.83 1425.49,-31.25 1463.97,-21.07"/>
<polygon fill="midnightblue" stroke="midnightblue" points="1465,-24.42 1473.77,-18.47 1463.21,-17.65 1465,-24.42"/>
</g>
<!-- Node31&#45;&gt;Node32 -->
<g id="edge31" class="edge">
<title>Node31&#45;&gt;Node32</title>
<path fill="none" stroke="midnightblue" d="M1241.29,-59.67C1135.41,-49.73 907.96,-28.37 792.82,-17.56"/>
<polygon fill="midnightblue" stroke="midnightblue" points="793,-14.06 782.71,-16.61 792.34,-21.03 793,-14.06"/>
</g>
<!-- Node33&#45;&gt;Node28 -->
<g id="edge35" class="edge">
<title>Node33&#45;&gt;Node28</title>
<path fill="none" stroke="midnightblue" d="M716.65,-168.44C736.96,-159.6 768.9,-145.69 792.1,-135.59"/>
<polygon fill="midnightblue" stroke="midnightblue" points="793.67,-138.72 801.44,-131.52 790.88,-132.3 793.67,-138.72"/>
</g>
<!-- Node43&#45;&gt;Node44 -->
<g id="edge45" class="edge">
<title>Node43&#45;&gt;Node44</title>
<path fill="none" stroke="midnightblue" d="M1586.66,-168.08C1587.18,-161.01 1587.94,-150.86 1588.59,-141.99"/>
<polygon fill="midnightblue" stroke="midnightblue" points="1592.1,-141.98 1589.35,-131.75 1585.12,-141.47 1592.1,-141.98"/>
</g>
<!-- Node44&#45;&gt;Node5 -->
<g id="edge46" class="edge">
<title>Node44&#45;&gt;Node5</title>
<path fill="none" stroke="midnightblue" d="M1583.09,-112.37C1568.51,-94.14 1534.34,-51.43 1515.34,-27.68"/>
<polygon fill="midnightblue" stroke="midnightblue" points="1517.85,-25.21 1508.87,-19.59 1512.39,-29.59 1517.85,-25.21"/>
</g>
<!-- Node44&#45;&gt;Node12 -->
<g id="edge47" class="edge">
<title>Node44&#45;&gt;Node12</title>
<path fill="none" stroke="midnightblue" d="M1621.53,-112.44C1657.9,-102.58 1717.46,-86.41 1754.88,-76.26"/>
<polygon fill="midnightblue" stroke="midnightblue" points="1756.08,-79.56 1764.81,-73.56 1754.25,-72.8 1756.08,-79.56"/>
</g>
<!-- Node44&#45;&gt;Node31 -->
<g id="edge48" class="edge">
<title>Node44&#45;&gt;Node31</title>
<path fill="none" stroke="midnightblue" d="M1543.73,-112.44C1492.26,-102.92 1409.11,-87.55 1354,-77.36"/>
<polygon fill="midnightblue" stroke="midnightblue" points="1354.52,-73.89 1344.05,-75.52 1353.25,-80.78 1354.52,-73.89"/>
</g>
<!-- Node45&#45;&gt;Node26 -->
<g id="edge50" class="edge">
<title>Node45&#45;&gt;Node26</title>
<path fill="none" stroke="midnightblue" d="M108.18,-185.41C115.88,-186.36 123.65,-187.27 131,-188 350.86,-209.99 612.83,-224.26 727.08,-230.06"/>
<polygon fill="midnightblue" stroke="midnightblue" points="727.18,-233.57 737.34,-230.58 727.53,-226.58 727.18,-233.57"/>
</g>
<!-- Node45&#45;&gt;Node32 -->
<g id="edge51" class="edge">
<title>Node45&#45;&gt;Node32</title>
<path fill="none" stroke="midnightblue" d="M55.9,-168.34C61.43,-145.36 79.92,-82.78 122,-56 165.88,-28.07 504.22,-16.38 653.08,-12.55"/>
<polygon fill="midnightblue" stroke="midnightblue" points="653.56,-16.04 663.47,-12.29 653.38,-9.04 653.56,-16.04"/>
</g>
<!-- Node51&#45;&gt;Node44 -->
<g id="edge61" class="edge">
<title>Node51&#45;&gt;Node44</title>
<path fill="none" stroke="midnightblue" d="M1467.98,-168.44C1492.16,-159.44 1530.42,-145.19 1557.65,-135.05"/>
<polygon fill="midnightblue" stroke="midnightblue" points="1558.98,-138.29 1567.13,-131.52 1556.54,-131.73 1558.98,-138.29"/>
</g>
<!-- Node52 -->
<g id="node43" class="node">
<title>Node52</title>
<g id="a_node43"><a xlink:href="log_8h.html" target="_top" xlink:title=" ">
<polygon fill="white" stroke="black" points="1443,-112.5 1443,-131.5 1523,-131.5 1523,-112.5 1443,-112.5"/>
<text text-anchor="middle" x="1483" y="-119.5" font-family="FreeSans" font-size="10.00">magick/log.h</text>
</a>
</g>
</g>
<!-- Node51&#45;&gt;Node52 -->
<g id="edge55" class="edge">
<title>Node51&#45;&gt;Node52</title>
<path fill="none" stroke="midnightblue" d="M1451.27,-168.08C1456.64,-160.46 1464.52,-149.26 1471.08,-139.94"/>
<polygon fill="midnightblue" stroke="midnightblue" points="1473.95,-141.94 1476.84,-131.75 1468.22,-137.91 1473.95,-141.94"/>
</g>
<!-- Node53 -->
<g id="node44" class="node">
<title>Node53</title>
<g id="a_node44"><a xlink:href="magick_8h.html" target="_top" xlink:title=" ">
<polygon fill="white" stroke="black" points="1372.5,-56.5 1372.5,-75.5 1473.5,-75.5 1473.5,-56.5 1372.5,-56.5"/>
<text text-anchor="middle" x="1423" y="-63.5" font-family="FreeSans" font-size="10.00">magick/magick.h</text>
</a>
</g>
</g>
<!-- Node51&#45;&gt;Node53 -->
<g id="edge58" class="edge">
<title>Node51&#45;&gt;Node53</title>
<path fill="none" stroke="midnightblue" d="M1442.71,-168.41C1440.34,-159.39 1436.64,-144.76 1434,-132 1430.81,-116.57 1427.87,-98.94 1425.83,-85.93"/>
<polygon fill="midnightblue" stroke="midnightblue" points="1429.27,-85.22 1424.29,-75.87 1422.35,-86.28 1429.27,-85.22"/>
</g>
<!-- Node52&#45;&gt;Node5 -->
<g id="edge56" class="edge">
<title>Node52&#45;&gt;Node5</title>
<path fill="none" stroke="midnightblue" d="M1484.49,-112.37C1487.56,-94.62 1494.63,-53.67 1498.79,-29.6"/>
<polygon fill="midnightblue" stroke="midnightblue" points="1502.26,-30.04 1500.52,-19.59 1495.36,-28.85 1502.26,-30.04"/>
</g>
<!-- Node52&#45;&gt;Node31 -->
<g id="edge57" class="edge">
<title>Node52&#45;&gt;Node31</title>
<path fill="none" stroke="midnightblue" d="M1453.69,-112.44C1422.16,-103.24 1371.87,-88.56 1337.01,-78.39"/>
<polygon fill="midnightblue" stroke="midnightblue" points="1337.76,-74.96 1327.18,-75.52 1335.8,-81.68 1337.76,-74.96"/>
</g>
<!-- Node53&#45;&gt;Node5 -->
<g id="edge59" class="edge">
<title>Node53&#45;&gt;Node5</title>
<path fill="none" stroke="midnightblue" d="M1435.69,-56.32C1447.9,-47.98 1466.58,-35.21 1481,-25.35"/>
<polygon fill="midnightblue" stroke="midnightblue" points="1483.06,-28.19 1489.34,-19.65 1479.11,-22.41 1483.06,-28.19"/>
</g>
<!-- Node53&#45;&gt;Node32 -->
<g id="edge60" class="edge">
<title>Node53&#45;&gt;Node32</title>
<path fill="none" stroke="midnightblue" d="M1372.3,-57.11C1369.15,-56.71 1366.04,-56.33 1363,-56 1156.38,-33.28 910.9,-19.77 793.02,-14.12"/>
<polygon fill="midnightblue" stroke="midnightblue" points="792.85,-10.61 782.7,-13.63 792.52,-17.6 792.85,-10.61"/>
</g>
<!-- Node55&#45;&gt;Node9 -->
<g id="edge65" class="edge">
<title>Node55&#45;&gt;Node9</title>
<path fill="none" stroke="midnightblue" d="M1698.05,-336.08C1693.9,-328.61 1687.85,-317.72 1682.73,-308.52"/>
<polygon fill="midnightblue" stroke="midnightblue" points="1685.78,-306.79 1677.86,-299.75 1679.66,-310.19 1685.78,-306.79"/>
</g>
<!-- Node55&#45;&gt;Node15 -->
<g id="edge66" class="edge">
<title>Node55&#45;&gt;Node15</title>
<path fill="none" stroke="midnightblue" d="M1709.94,-336.08C1715.93,-328.38 1724.75,-317.03 1732.05,-307.65"/>
<polygon fill="midnightblue" stroke="midnightblue" points="1734.82,-309.79 1738.19,-299.75 1729.29,-305.5 1734.82,-309.79"/>
</g>
<!-- Node56&#45;&gt;Node24 -->
<g id="edge70" class="edge">
<title>Node56&#45;&gt;Node24</title>
<path fill="none" stroke="midnightblue" d="M1414.11,-392.44C1384.25,-383.28 1336.69,-368.69 1303.54,-358.52"/>
<polygon fill="midnightblue" stroke="midnightblue" points="1304.34,-355.1 1293.76,-355.52 1302.29,-361.8 1304.34,-355.1"/>
</g>
<!-- Node56&#45;&gt;Node55 -->
<g id="edge69" class="edge">
<title>Node56&#45;&gt;Node55</title>
<path fill="none" stroke="midnightblue" d="M1483.36,-392.44C1529.08,-382.98 1602.76,-367.74 1652.02,-357.55"/>
<polygon fill="midnightblue" stroke="midnightblue" points="1652.75,-360.97 1661.84,-355.52 1651.34,-354.12 1652.75,-360.97"/>
</g>
<!-- Node65&#45;&gt;Node44 -->
<g id="edge73" class="edge">
<title>Node65&#45;&gt;Node44</title>
<path fill="none" stroke="midnightblue" d="M1695.44,-224.43C1694.14,-210.98 1689.89,-184.7 1676,-168 1663.66,-153.16 1645.15,-142.59 1628.46,-135.44"/>
<polygon fill="midnightblue" stroke="midnightblue" points="1629.49,-132.09 1618.9,-131.62 1626.89,-138.59 1629.49,-132.09"/>
</g>
</g>
</svg>
