<?xml version="1.0" encoding="UTF-8" standalone="no"?>
<!DOCTYPE svg PUBLIC "-//W3C//DTD SVG 1.1//EN"
 "http://www.w3.org/Graphics/SVG/1.1/DTD/svg11.dtd">
<!-- Generated by graphviz version 2.43.0 (0)
 -->
<!-- Title: splay&#45;tree.c Pages: 1 -->
<svg width="2114pt" height="252pt"
 viewBox="0.00 0.00 2114.00 252.00" xmlns="http://www.w3.org/2000/svg" xmlns:xlink="http://www.w3.org/1999/xlink">
<g id="graph0" class="graph" transform="scale(1 1) rotate(0) translate(4 248)">
<title>splay&#45;tree.c</title>
<polygon fill="white" stroke="transparent" points="-4,4 -4,-248 2110,-248 2110,4 -4,4"/>
<!-- Node1 -->
<g id="node1" class="node">
<title>Node1</title>
<g id="a_node1"><a xlink:title=" ">
<polygon fill="#bfbfbf" stroke="black" points="338,-224.5 338,-243.5 412,-243.5 412,-224.5 338,-224.5"/>
<text text-anchor="middle" x="375" y="-231.5" font-family="FreeSans" font-size="10.00">splay&#45;tree.c</text>
</a>
</g>
</g>
<!-- Node2 -->
<g id="node2" class="node">
<title>Node2</title>
<g id="a_node2"><a xlink:href="studio_8h.html" target="_top" xlink:title=" ">
<polygon fill="white" stroke="black" points="951.5,-168.5 951.5,-187.5 1046.5,-187.5 1046.5,-168.5 951.5,-168.5"/>
<text text-anchor="middle" x="999" y="-175.5" font-family="FreeSans" font-size="10.00">magick/studio.h</text>
</a>
</g>
</g>
<!-- Node1&#45;&gt;Node2 -->
<g id="edge1" class="edge">
<title>Node1&#45;&gt;Node2</title>
<path fill="none" stroke="midnightblue" d="M412.17,-229.78C516.8,-220.73 814.45,-194.97 940.96,-184.02"/>
<polygon fill="midnightblue" stroke="midnightblue" points="941.56,-187.48 951.22,-183.14 940.95,-180.51 941.56,-187.48"/>
</g>
<!-- Node24 -->
<g id="node24" class="node">
<title>Node24</title>
<g id="a_node24"><a xlink:href="exception_8h.html" target="_top" xlink:title=" ">
<polygon fill="white" stroke="black" points="221.5,-56.5 221.5,-75.5 334.5,-75.5 334.5,-56.5 221.5,-56.5"/>
<text text-anchor="middle" x="278" y="-63.5" font-family="FreeSans" font-size="10.00">magick/exception.h</text>
</a>
</g>
</g>
<!-- Node1&#45;&gt;Node24 -->
<g id="edge24" class="edge">
<title>Node1&#45;&gt;Node24</title>
<path fill="none" stroke="midnightblue" d="M357.08,-224.39C342.63,-216.65 322.7,-204.03 310,-188 286.14,-157.86 279.97,-111.6 278.44,-85.88"/>
<polygon fill="midnightblue" stroke="midnightblue" points="281.93,-85.49 278.02,-75.65 274.94,-85.78 281.93,-85.49"/>
</g>
<!-- Node25 -->
<g id="node25" class="node">
<title>Node25</title>
<g id="a_node25"><a xlink:href="semaphore_8h.html" target="_top" xlink:title=" ">
<polygon fill="white" stroke="black" points="228.5,-0.5 228.5,-19.5 347.5,-19.5 347.5,-0.5 228.5,-0.5"/>
<text text-anchor="middle" x="288" y="-7.5" font-family="FreeSans" font-size="10.00">magick/semaphore.h</text>
</a>
</g>
</g>
<!-- Node1&#45;&gt;Node25 -->
<g id="edge45" class="edge">
<title>Node1&#45;&gt;Node25</title>
<path fill="none" stroke="midnightblue" d="M412.18,-233.01C647.73,-232.75 1919.63,-226.08 1827,-112 1750.57,-17.88 1680.36,-70.64 1560,-56 1324.39,-27.34 588.49,-15.09 357.85,-11.89"/>
<polygon fill="midnightblue" stroke="midnightblue" points="357.63,-8.39 347.58,-11.75 357.53,-15.39 357.63,-8.39"/>
</g>
<!-- Node26 -->
<g id="node26" class="node">
<title>Node26</title>
<g id="a_node26"><a xlink:href="exception-private_8h.html" target="_top" xlink:title=" ">
<polygon fill="white" stroke="black" points="51.5,-168.5 51.5,-187.5 202.5,-187.5 202.5,-168.5 51.5,-168.5"/>
<text text-anchor="middle" x="127" y="-175.5" font-family="FreeSans" font-size="10.00">magick/exception&#45;private.h</text>
</a>
</g>
</g>
<!-- Node1&#45;&gt;Node26 -->
<g id="edge27" class="edge">
<title>Node1&#45;&gt;Node26</title>
<path fill="none" stroke="midnightblue" d="M337.87,-224.92C294.85,-215.55 223.8,-200.08 176.22,-189.72"/>
<polygon fill="midnightblue" stroke="midnightblue" points="176.95,-186.29 166.43,-187.59 175.46,-193.13 176.95,-186.29"/>
</g>
<!-- Node27 -->
<g id="node27" class="node">
<title>Node27</title>
<g id="a_node27"><a xlink:href="log_8h.html" target="_top" xlink:title=" ">
<polygon fill="white" stroke="black" points="0,-112.5 0,-131.5 80,-131.5 80,-112.5 0,-112.5"/>
<text text-anchor="middle" x="40" y="-119.5" font-family="FreeSans" font-size="10.00">magick/log.h</text>
</a>
</g>
</g>
<!-- Node1&#45;&gt;Node27 -->
<g id="edge40" class="edge">
<title>Node1&#45;&gt;Node27</title>
<path fill="none" stroke="midnightblue" d="M337.72,-233.72C259.17,-234.37 80.72,-230.95 42,-188 30.92,-175.7 31.87,-156.17 34.71,-141.72"/>
<polygon fill="midnightblue" stroke="midnightblue" points="38.15,-142.41 37.08,-131.87 31.34,-140.77 38.15,-142.41"/>
</g>
<!-- Node29 -->
<g id="node29" class="node">
<title>Node29</title>
<g id="a_node29"><a xlink:href="string___8h.html" target="_top" xlink:title=" ">
<polygon fill="white" stroke="black" points="143,-112.5 143,-131.5 241,-131.5 241,-112.5 143,-112.5"/>
<text text-anchor="middle" x="192" y="-119.5" font-family="FreeSans" font-size="10.00">magick/string_.h</text>
</a>
</g>
</g>
<!-- Node1&#45;&gt;Node29 -->
<g id="edge46" class="edge">
<title>Node1&#45;&gt;Node29</title>
<path fill="none" stroke="midnightblue" d="M340.53,-224.48C315.46,-217.26 281.43,-205.31 255,-188 234.97,-174.88 216.46,-154.35 204.76,-139.88"/>
<polygon fill="midnightblue" stroke="midnightblue" points="207.33,-137.48 198.41,-131.77 201.82,-141.8 207.33,-137.48"/>
</g>
<!-- Node30 -->
<g id="node30" class="node">
<title>Node30</title>
<g id="a_node30"><a xlink:href="locale___8h.html" target="_top" xlink:title=" ">
<polygon fill="white" stroke="black" points="1874.5,-168.5 1874.5,-187.5 1973.5,-187.5 1973.5,-168.5 1874.5,-168.5"/>
<text text-anchor="middle" x="1924" y="-175.5" font-family="FreeSans" font-size="10.00">magick/locale_.h</text>
</a>
</g>
</g>
<!-- Node1&#45;&gt;Node30 -->
<g id="edge38" class="edge">
<title>Node1&#45;&gt;Node30</title>
<path fill="none" stroke="midnightblue" d="M412.1,-233.37C579.91,-234.72 1284.64,-237.02 1860,-188 1861.47,-187.87 1862.95,-187.74 1864.45,-187.59"/>
<polygon fill="midnightblue" stroke="midnightblue" points="1864.88,-191.07 1874.45,-186.51 1864.13,-184.11 1864.88,-191.07"/>
</g>
<!-- Node32 -->
<g id="node32" class="node">
<title>Node32</title>
<g id="a_node32"><a xlink:href="memory___8h.html" target="_top" xlink:title=" ">
<polygon fill="white" stroke="black" points="319.5,-168.5 319.5,-187.5 430.5,-187.5 430.5,-168.5 319.5,-168.5"/>
<text text-anchor="middle" x="375" y="-175.5" font-family="FreeSans" font-size="10.00">magick/memory_.h</text>
</a>
</g>
</g>
<!-- Node1&#45;&gt;Node32 -->
<g id="edge41" class="edge">
<title>Node1&#45;&gt;Node32</title>
<path fill="none" stroke="midnightblue" d="M375,-224.08C375,-217.01 375,-206.86 375,-197.99"/>
<polygon fill="midnightblue" stroke="midnightblue" points="378.5,-197.75 375,-187.75 371.5,-197.75 378.5,-197.75"/>
</g>
<!-- Node33 -->
<g id="node33" class="node">
<title>Node33</title>
<g id="a_node33"><a xlink:href="splay-tree_8h.html" target="_top" xlink:title=" ">
<polygon fill="white" stroke="black" points="1992,-168.5 1992,-187.5 2106,-187.5 2106,-168.5 1992,-168.5"/>
<text text-anchor="middle" x="2049" y="-175.5" font-family="FreeSans" font-size="10.00">magick/splay&#45;tree.h</text>
</a>
</g>
</g>
<!-- Node1&#45;&gt;Node33 -->
<g id="edge44" class="edge">
<title>Node1&#45;&gt;Node33</title>
<path fill="none" stroke="midnightblue" d="M412.17,-232.5C620.18,-229.65 1642.5,-214.51 1981.73,-187.99"/>
<polygon fill="midnightblue" stroke="midnightblue" points="1982.12,-191.47 1991.8,-187.18 1981.56,-184.49 1982.12,-191.47"/>
</g>
<!-- Node3 -->
<g id="node3" class="node">
<title>Node3</title>
<g id="a_node3"><a xlink:href="magick-config_8h.html" target="_top" xlink:title=" ">
<polygon fill="white" stroke="black" points="1417,-56.5 1417,-75.5 1551,-75.5 1551,-56.5 1417,-56.5"/>
<text text-anchor="middle" x="1484" y="-63.5" font-family="FreeSans" font-size="10.00">magick/magick&#45;config.h</text>
</a>
</g>
</g>
<!-- Node2&#45;&gt;Node3 -->
<g id="edge2" class="edge">
<title>Node2&#45;&gt;Node3</title>
<path fill="none" stroke="midnightblue" d="M1046.65,-169.84C1087.6,-162.84 1147.82,-150.51 1198,-132 1215.91,-125.39 1217.96,-118.22 1236,-112 1291.54,-92.85 1357.03,-81.41 1406.76,-74.86"/>
<polygon fill="midnightblue" stroke="midnightblue" points="1407.33,-78.32 1416.81,-73.58 1406.44,-71.37 1407.33,-78.32"/>
</g>
<!-- Node5 -->
<g id="node5" class="node">
<title>Node5</title>
<g id="a_node5"><a xlink:title=" ">
<polygon fill="white" stroke="#bfbfbf" points="154,-0.5 154,-19.5 210,-19.5 210,-0.5 154,-0.5"/>
<text text-anchor="middle" x="182" y="-7.5" font-family="FreeSans" font-size="10.00">stdarg.h</text>
</a>
</g>
</g>
<!-- Node2&#45;&gt;Node5 -->
<g id="edge4" class="edge">
<title>Node2&#45;&gt;Node5</title>
<path fill="none" stroke="midnightblue" d="M951.4,-175.69C838.81,-172.16 558.93,-160.69 470,-132 438.7,-121.9 373.22,-68.99 343,-56 320.94,-46.52 260.13,-30.49 219.88,-20.34"/>
<polygon fill="midnightblue" stroke="midnightblue" points="220.68,-16.94 210.13,-17.9 218.98,-23.73 220.68,-16.94"/>
</g>
<!-- Node6 -->
<g id="node6" class="node">
<title>Node6</title>
<g id="a_node6"><a xlink:title=" ">
<polygon fill="white" stroke="#bfbfbf" points="1479,-112.5 1479,-131.5 1529,-131.5 1529,-112.5 1479,-112.5"/>
<text text-anchor="middle" x="1504" y="-119.5" font-family="FreeSans" font-size="10.00">stdio.h</text>
</a>
</g>
</g>
<!-- Node2&#45;&gt;Node6 -->
<g id="edge5" class="edge">
<title>Node2&#45;&gt;Node6</title>
<path fill="none" stroke="midnightblue" d="M1046.82,-175.02C1130.56,-170.98 1309.25,-159.88 1468.85,-131.93"/>
<polygon fill="midnightblue" stroke="midnightblue" points="1469.62,-135.34 1478.85,-130.15 1468.39,-128.45 1469.62,-135.34"/>
</g>
<!-- Node7 -->
<g id="node7" class="node">
<title>Node7</title>
<g id="a_node7"><a xlink:title=" ">
<polygon fill="white" stroke="#bfbfbf" points="1547.5,-112.5 1547.5,-131.5 1600.5,-131.5 1600.5,-112.5 1547.5,-112.5"/>
<text text-anchor="middle" x="1574" y="-119.5" font-family="FreeSans" font-size="10.00">ctype.h</text>
</a>
</g>
</g>
<!-- Node2&#45;&gt;Node7 -->
<g id="edge6" class="edge">
<title>Node2&#45;&gt;Node7</title>
<path fill="none" stroke="midnightblue" d="M1046.54,-175.61C1139.19,-172.35 1350.45,-162.17 1537.36,-131.82"/>
<polygon fill="midnightblue" stroke="midnightblue" points="1538.07,-135.25 1547.36,-130.17 1536.93,-128.34 1538.07,-135.25"/>
</g>
<!-- Node8 -->
<g id="node8" class="node">
<title>Node8</title>
<g id="a_node8"><a xlink:title=" ">
<polygon fill="white" stroke="#bfbfbf" points="1618.5,-112.5 1618.5,-131.5 1673.5,-131.5 1673.5,-112.5 1618.5,-112.5"/>
<text text-anchor="middle" x="1646" y="-119.5" font-family="FreeSans" font-size="10.00">locale.h</text>
</a>
</g>
</g>
<!-- Node2&#45;&gt;Node8 -->
<g id="edge7" class="edge">
<title>Node2&#45;&gt;Node8</title>
<path fill="none" stroke="midnightblue" d="M1046.76,-176.15C1148.37,-173.77 1393.48,-164.97 1608.03,-131.87"/>
<polygon fill="midnightblue" stroke="midnightblue" points="1608.88,-135.28 1618.22,-130.28 1607.8,-128.37 1608.88,-135.28"/>
</g>
<!-- Node9 -->
<g id="node9" class="node">
<title>Node9</title>
<g id="a_node9"><a xlink:title=" ">
<polygon fill="white" stroke="#bfbfbf" points="371.5,-112.5 371.5,-131.5 422.5,-131.5 422.5,-112.5 371.5,-112.5"/>
<text text-anchor="middle" x="397" y="-119.5" font-family="FreeSans" font-size="10.00">errno.h</text>
</a>
</g>
</g>
<!-- Node2&#45;&gt;Node9 -->
<g id="edge8" class="edge">
<title>Node2&#45;&gt;Node9</title>
<path fill="none" stroke="midnightblue" d="M951.37,-175.46C854.18,-171.81 626.19,-160.71 437,-132 435.55,-131.78 434.07,-131.54 432.58,-131.28"/>
<polygon fill="midnightblue" stroke="midnightblue" points="433.2,-127.83 422.72,-129.35 431.86,-134.7 433.2,-127.83"/>
</g>
<!-- Node10 -->
<g id="node10" class="node">
<title>Node10</title>
<g id="a_node10"><a xlink:title=" ">
<polygon fill="white" stroke="#bfbfbf" points="479.5,-112.5 479.5,-131.5 526.5,-131.5 526.5,-112.5 479.5,-112.5"/>
<text text-anchor="middle" x="503" y="-119.5" font-family="FreeSans" font-size="10.00">fcntl.h</text>
</a>
</g>
</g>
<!-- Node2&#45;&gt;Node10 -->
<g id="edge9" class="edge">
<title>Node2&#45;&gt;Node10</title>
<path fill="none" stroke="midnightblue" d="M951.25,-174.43C867.66,-169.46 689.55,-156.77 541,-132 539.54,-131.76 538.05,-131.49 536.54,-131.2"/>
<polygon fill="midnightblue" stroke="midnightblue" points="537.12,-127.75 526.62,-129.11 535.68,-134.6 537.12,-127.75"/>
</g>
<!-- Node11 -->
<g id="node11" class="node">
<title>Node11</title>
<g id="a_node11"><a xlink:title=" ">
<polygon fill="white" stroke="#bfbfbf" points="583.5,-112.5 583.5,-131.5 634.5,-131.5 634.5,-112.5 583.5,-112.5"/>
<text text-anchor="middle" x="609" y="-119.5" font-family="FreeSans" font-size="10.00">math.h</text>
</a>
</g>
</g>
<!-- Node2&#45;&gt;Node11 -->
<g id="edge10" class="edge">
<title>Node2&#45;&gt;Node11</title>
<path fill="none" stroke="midnightblue" d="M951.46,-173.02C884.84,-166.99 759.8,-154.07 644.58,-132.09"/>
<polygon fill="midnightblue" stroke="midnightblue" points="645.02,-128.61 634.54,-130.15 643.69,-135.49 645.02,-128.61"/>
</g>
<!-- Node12 -->
<g id="node12" class="node">
<title>Node12</title>
<g id="a_node12"><a xlink:title=" ">
<polygon fill="white" stroke="#bfbfbf" points="505,-56.5 505,-75.5 553,-75.5 553,-56.5 505,-56.5"/>
<text text-anchor="middle" x="529" y="-63.5" font-family="FreeSans" font-size="10.00">time.h</text>
</a>
</g>
</g>
<!-- Node2&#45;&gt;Node12 -->
<g id="edge11" class="edge">
<title>Node2&#45;&gt;Node12</title>
<path fill="none" stroke="midnightblue" d="M951.33,-176.87C854.1,-175.82 636.78,-169.24 574,-132 555.97,-121.3 543.43,-100.23 536.26,-84.97"/>
<polygon fill="midnightblue" stroke="midnightblue" points="539.35,-83.3 532.14,-75.54 532.93,-86.1 539.35,-83.3"/>
</g>
<!-- Node13 -->
<g id="node13" class="node">
<title>Node13</title>
<g id="a_node13"><a xlink:title=" ">
<polygon fill="white" stroke="#bfbfbf" points="652.5,-112.5 652.5,-131.5 705.5,-131.5 705.5,-112.5 652.5,-112.5"/>
<text text-anchor="middle" x="679" y="-119.5" font-family="FreeSans" font-size="10.00">limits.h</text>
</a>
</g>
</g>
<!-- Node2&#45;&gt;Node13 -->
<g id="edge12" class="edge">
<title>Node2&#45;&gt;Node13</title>
<path fill="none" stroke="midnightblue" d="M951.35,-170.89C896.6,-163.55 803.9,-150.17 715.6,-132.18"/>
<polygon fill="midnightblue" stroke="midnightblue" points="716.19,-128.73 705.69,-130.14 714.78,-135.59 716.19,-128.73"/>
</g>
<!-- Node14 -->
<g id="node14" class="node">
<title>Node14</title>
<g id="a_node14"><a xlink:title=" ">
<polygon fill="white" stroke="#bfbfbf" points="723.5,-112.5 723.5,-131.5 778.5,-131.5 778.5,-112.5 723.5,-112.5"/>
<text text-anchor="middle" x="751" y="-119.5" font-family="FreeSans" font-size="10.00">signal.h</text>
</a>
</g>
</g>
<!-- Node2&#45;&gt;Node14 -->
<g id="edge13" class="edge">
<title>Node2&#45;&gt;Node14</title>
<path fill="none" stroke="midnightblue" d="M957.29,-168.47C916.75,-160.1 853.2,-146.76 788.78,-132.13"/>
<polygon fill="midnightblue" stroke="midnightblue" points="789.39,-128.68 778.86,-129.87 787.83,-135.5 789.39,-128.68"/>
</g>
<!-- Node15 -->
<g id="node15" class="node">
<title>Node15</title>
<g id="a_node15"><a xlink:title=" ">
<polygon fill="white" stroke="#bfbfbf" points="297,-112.5 297,-131.5 353,-131.5 353,-112.5 297,-112.5"/>
<text text-anchor="middle" x="325" y="-119.5" font-family="FreeSans" font-size="10.00">assert.h</text>
</a>
</g>
</g>
<!-- Node2&#45;&gt;Node15 -->
<g id="edge14" class="edge">
<title>Node2&#45;&gt;Node15</title>
<path fill="none" stroke="midnightblue" d="M951.15,-176.36C846.21,-174.37 587.98,-166.25 363.19,-131.92"/>
<polygon fill="midnightblue" stroke="midnightblue" points="363.6,-128.44 353.18,-130.37 362.53,-135.36 363.6,-128.44"/>
</g>
<!-- Node16 -->
<g id="node16" class="node">
<title>Node16</title>
<g id="a_node16"><a xlink:href="method-attribute_8h.html" target="_top" xlink:title=" ">
<polygon fill="white" stroke="black" points="797,-112.5 797,-131.5 945,-131.5 945,-112.5 797,-112.5"/>
<text text-anchor="middle" x="871" y="-119.5" font-family="FreeSans" font-size="10.00">magick/method&#45;attribute.h</text>
</a>
</g>
</g>
<!-- Node2&#45;&gt;Node16 -->
<g id="edge15" class="edge">
<title>Node2&#45;&gt;Node16</title>
<path fill="none" stroke="midnightblue" d="M978.72,-168.44C957.65,-159.56 924.48,-145.56 900.51,-135.45"/>
<polygon fill="midnightblue" stroke="midnightblue" points="901.76,-132.18 891.19,-131.52 899.04,-138.63 901.76,-132.18"/>
</g>
<!-- Node17 -->
<g id="node17" class="node">
<title>Node17</title>
<g id="a_node17"><a xlink:title=" ">
<polygon fill="white" stroke="#bfbfbf" points="963,-112.5 963,-131.5 1035,-131.5 1035,-112.5 963,-112.5"/>
<text text-anchor="middle" x="999" y="-119.5" font-family="FreeSans" font-size="10.00">sys/types.h</text>
</a>
</g>
</g>
<!-- Node2&#45;&gt;Node17 -->
<g id="edge16" class="edge">
<title>Node2&#45;&gt;Node17</title>
<path fill="none" stroke="midnightblue" d="M999,-168.08C999,-161.01 999,-150.86 999,-141.99"/>
<polygon fill="midnightblue" stroke="midnightblue" points="1002.5,-141.75 999,-131.75 995.5,-141.75 1002.5,-141.75"/>
</g>
<!-- Node18 -->
<g id="node18" class="node">
<title>Node18</title>
<g id="a_node18"><a xlink:title=" ">
<polygon fill="white" stroke="#bfbfbf" points="1053,-112.5 1053,-131.5 1117,-131.5 1117,-112.5 1053,-112.5"/>
<text text-anchor="middle" x="1085" y="-119.5" font-family="FreeSans" font-size="10.00">sys/stat.h</text>
</a>
</g>
</g>
<!-- Node2&#45;&gt;Node18 -->
<g id="edge17" class="edge">
<title>Node2&#45;&gt;Node18</title>
<path fill="none" stroke="midnightblue" d="M1012.82,-168.32C1026.23,-159.9 1046.82,-146.97 1062.59,-137.07"/>
<polygon fill="midnightblue" stroke="midnightblue" points="1064.61,-139.94 1071.22,-131.65 1060.89,-134.01 1064.61,-139.94"/>
</g>
<!-- Node19 -->
<g id="node19" class="node">
<title>Node19</title>
<g id="a_node19"><a xlink:title=" ">
<polygon fill="white" stroke="#bfbfbf" points="1135,-112.5 1135,-131.5 1189,-131.5 1189,-112.5 1135,-112.5"/>
<text text-anchor="middle" x="1162" y="-119.5" font-family="FreeSans" font-size="10.00">dirent.h</text>
</a>
</g>
</g>
<!-- Node2&#45;&gt;Node19 -->
<g id="edge18" class="edge">
<title>Node2&#45;&gt;Node19</title>
<path fill="none" stroke="midnightblue" d="M1024.83,-168.44C1052.25,-159.36 1095.78,-144.94 1126.43,-134.78"/>
<polygon fill="midnightblue" stroke="midnightblue" points="1127.9,-137.98 1136.29,-131.52 1125.7,-131.34 1127.9,-137.98"/>
</g>
<!-- Node20 -->
<g id="node20" class="node">
<title>Node20</title>
<g id="a_node20"><a xlink:title=" ">
<polygon fill="white" stroke="#bfbfbf" points="1245,-112.5 1245,-131.5 1311,-131.5 1311,-112.5 1245,-112.5"/>
<text text-anchor="middle" x="1278" y="-119.5" font-family="FreeSans" font-size="10.00">sys/wait.h</text>
</a>
</g>
</g>
<!-- Node2&#45;&gt;Node20 -->
<g id="edge19" class="edge">
<title>Node2&#45;&gt;Node20</title>
<path fill="none" stroke="midnightblue" d="M1043.21,-168.44C1095.79,-158.27 1182.96,-141.39 1235,-131.32"/>
<polygon fill="midnightblue" stroke="midnightblue" points="1235.77,-134.74 1244.92,-129.4 1234.44,-127.87 1235.77,-134.74"/>
</g>
<!-- Node21 -->
<g id="node21" class="node">
<title>Node21</title>
<g id="a_node21"><a xlink:title=" ">
<polygon fill="white" stroke="#bfbfbf" points="1329,-112.5 1329,-131.5 1375,-131.5 1375,-112.5 1329,-112.5"/>
<text text-anchor="middle" x="1352" y="-119.5" font-family="FreeSans" font-size="10.00">pwd.h</text>
</a>
</g>
</g>
<!-- Node2&#45;&gt;Node21 -->
<g id="edge20" class="edge">
<title>Node2&#45;&gt;Node21</title>
<path fill="none" stroke="midnightblue" d="M1046.67,-172.35C1107.69,-165.95 1216.8,-153 1318.82,-132.01"/>
<polygon fill="midnightblue" stroke="midnightblue" points="1319.6,-135.42 1328.67,-129.95 1318.17,-128.57 1319.6,-135.42"/>
</g>
<!-- Node22 -->
<g id="node22" class="node">
<title>Node22</title>
<g id="a_node22"><a xlink:href="magick-type_8h.html" target="_top" xlink:title=" ">
<polygon fill="white" stroke="black" points="1692,-112.5 1692,-131.5 1818,-131.5 1818,-112.5 1692,-112.5"/>
<text text-anchor="middle" x="1755" y="-119.5" font-family="FreeSans" font-size="10.00">magick/magick&#45;type.h</text>
</a>
</g>
</g>
<!-- Node2&#45;&gt;Node22 -->
<g id="edge21" class="edge">
<title>Node2&#45;&gt;Node22</title>
<path fill="none" stroke="midnightblue" d="M1046.76,-174.82C1156.78,-169.6 1436.78,-155.13 1681.65,-132.08"/>
<polygon fill="midnightblue" stroke="midnightblue" points="1682.18,-135.54 1691.81,-131.11 1681.52,-128.57 1682.18,-135.54"/>
</g>
<!-- Node23 -->
<g id="node23" class="node">
<title>Node23</title>
<g id="a_node23"><a xlink:title=" ">
<polygon fill="white" stroke="#bfbfbf" points="1393,-112.5 1393,-131.5 1461,-131.5 1461,-112.5 1393,-112.5"/>
<text text-anchor="middle" x="1427" y="-119.5" font-family="FreeSans" font-size="10.00">sys/time.h</text>
</a>
</g>
</g>
<!-- Node2&#45;&gt;Node23 -->
<g id="edge23" class="edge">
<title>Node2&#45;&gt;Node23</title>
<path fill="none" stroke="midnightblue" d="M1046.61,-172.83C1117.67,-166.29 1255.87,-152.4 1382.88,-132.05"/>
<polygon fill="midnightblue" stroke="midnightblue" points="1383.47,-135.5 1392.78,-130.45 1382.35,-128.59 1383.47,-135.5"/>
</g>
<!-- Node4 -->
<g id="node4" class="node">
<title>Node4</title>
<g id="a_node4"><a xlink:href="magick-baseconfig_8h.html" target="_top" xlink:title=" ">
<polygon fill="white" stroke="black" points="1405.5,-0.5 1405.5,-19.5 1562.5,-19.5 1562.5,-0.5 1405.5,-0.5"/>
<text text-anchor="middle" x="1484" y="-7.5" font-family="FreeSans" font-size="10.00">magick/magick&#45;baseconfig.h</text>
</a>
</g>
</g>
<!-- Node3&#45;&gt;Node4 -->
<g id="edge3" class="edge">
<title>Node3&#45;&gt;Node4</title>
<path fill="none" stroke="midnightblue" d="M1484,-56.08C1484,-49.01 1484,-38.86 1484,-29.99"/>
<polygon fill="midnightblue" stroke="midnightblue" points="1487.5,-29.75 1484,-19.75 1480.5,-29.75 1487.5,-29.75"/>
</g>
<!-- Node22&#45;&gt;Node3 -->
<g id="edge22" class="edge">
<title>Node22&#45;&gt;Node3</title>
<path fill="none" stroke="midnightblue" d="M1712.06,-112.44C1664.49,-102.96 1587.76,-87.67 1536.61,-77.48"/>
<polygon fill="midnightblue" stroke="midnightblue" points="1537.23,-74.04 1526.74,-75.52 1535.86,-80.9 1537.23,-74.04"/>
</g>
<!-- Node24&#45;&gt;Node5 -->
<g id="edge25" class="edge">
<title>Node24&#45;&gt;Node5</title>
<path fill="none" stroke="midnightblue" d="M262.58,-56.32C247.46,-47.82 224.18,-34.73 206.53,-24.8"/>
<polygon fill="midnightblue" stroke="midnightblue" points="207.82,-21.51 197.39,-19.65 204.39,-27.61 207.82,-21.51"/>
</g>
<!-- Node24&#45;&gt;Node25 -->
<g id="edge26" class="edge">
<title>Node24&#45;&gt;Node25</title>
<path fill="none" stroke="midnightblue" d="M279.65,-56.08C280.98,-48.93 282.88,-38.64 284.54,-29.69"/>
<polygon fill="midnightblue" stroke="midnightblue" points="288,-30.22 286.38,-19.75 281.12,-28.95 288,-30.22"/>
</g>
<!-- Node26&#45;&gt;Node27 -->
<g id="edge28" class="edge">
<title>Node26&#45;&gt;Node27</title>
<path fill="none" stroke="midnightblue" d="M113.02,-168.32C99.45,-159.9 78.62,-146.97 62.68,-137.07"/>
<polygon fill="midnightblue" stroke="midnightblue" points="64.29,-133.95 53.94,-131.65 60.59,-139.9 64.29,-133.95"/>
</g>
<!-- Node28 -->
<g id="node28" class="node">
<title>Node28</title>
<g id="a_node28"><a xlink:href="magick_8h.html" target="_top" xlink:title=" ">
<polygon fill="white" stroke="black" points="63.5,-56.5 63.5,-75.5 164.5,-75.5 164.5,-56.5 63.5,-56.5"/>
<text text-anchor="middle" x="114" y="-63.5" font-family="FreeSans" font-size="10.00">magick/magick.h</text>
</a>
</g>
</g>
<!-- Node26&#45;&gt;Node28 -->
<g id="edge31" class="edge">
<title>Node26&#45;&gt;Node28</title>
<path fill="none" stroke="midnightblue" d="M125.98,-168.37C123.88,-150.62 119.04,-109.67 116.2,-85.6"/>
<polygon fill="midnightblue" stroke="midnightblue" points="119.66,-85.11 115.02,-75.59 112.71,-85.93 119.66,-85.11"/>
</g>
<!-- Node26&#45;&gt;Node29 -->
<g id="edge34" class="edge">
<title>Node26&#45;&gt;Node29</title>
<path fill="none" stroke="midnightblue" d="M137.44,-168.32C147.15,-160.26 161.82,-148.08 173.5,-138.37"/>
<polygon fill="midnightblue" stroke="midnightblue" points="175.91,-140.92 181.37,-131.83 171.44,-135.53 175.91,-140.92"/>
</g>
<!-- Node27&#45;&gt;Node5 -->
<g id="edge29" class="edge">
<title>Node27&#45;&gt;Node5</title>
<path fill="none" stroke="midnightblue" d="M39.37,-112.25C38.87,-98.54 39.96,-71.93 54,-56 76.68,-30.27 114.97,-19.25 143.78,-14.53"/>
<polygon fill="midnightblue" stroke="midnightblue" points="144.52,-17.96 153.92,-13.06 143.52,-11.03 144.52,-17.96"/>
</g>
<!-- Node27&#45;&gt;Node24 -->
<g id="edge30" class="edge">
<title>Node27&#45;&gt;Node24</title>
<path fill="none" stroke="midnightblue" d="M77.71,-112.44C119.14,-103.04 185.76,-87.93 230.67,-77.74"/>
<polygon fill="midnightblue" stroke="midnightblue" points="231.49,-81.14 240.46,-75.52 229.94,-74.32 231.49,-81.14"/>
</g>
<!-- Node28&#45;&gt;Node5 -->
<g id="edge32" class="edge">
<title>Node28&#45;&gt;Node5</title>
<path fill="none" stroke="midnightblue" d="M124.93,-56.32C135.17,-48.18 150.72,-35.84 163,-26.09"/>
<polygon fill="midnightblue" stroke="midnightblue" points="165.22,-28.79 170.88,-19.83 160.87,-23.31 165.22,-28.79"/>
</g>
<!-- Node28&#45;&gt;Node25 -->
<g id="edge33" class="edge">
<title>Node28&#45;&gt;Node25</title>
<path fill="none" stroke="midnightblue" d="M141.57,-56.44C171.1,-47.28 218.12,-32.69 250.88,-22.52"/>
<polygon fill="midnightblue" stroke="midnightblue" points="252.04,-25.82 260.56,-19.52 249.97,-19.14 252.04,-25.82"/>
</g>
<!-- Node29&#45;&gt;Node5 -->
<g id="edge35" class="edge">
<title>Node29&#45;&gt;Node5</title>
<path fill="none" stroke="midnightblue" d="M191.22,-112.37C189.6,-94.62 185.88,-53.67 183.69,-29.6"/>
<polygon fill="midnightblue" stroke="midnightblue" points="187.17,-29.23 182.78,-19.59 180.2,-29.87 187.17,-29.23"/>
</g>
<!-- Node29&#45;&gt;Node12 -->
<g id="edge36" class="edge">
<title>Node29&#45;&gt;Node12</title>
<path fill="none" stroke="midnightblue" d="M241,-113.15C310.23,-102.05 434.91,-82.08 494.91,-72.46"/>
<polygon fill="midnightblue" stroke="midnightblue" points="495.67,-75.88 504.99,-70.85 494.57,-68.97 495.67,-75.88"/>
</g>
<!-- Node29&#45;&gt;Node24 -->
<g id="edge37" class="edge">
<title>Node29&#45;&gt;Node24</title>
<path fill="none" stroke="midnightblue" d="M205.82,-112.32C219.23,-103.9 239.82,-90.97 255.59,-81.07"/>
<polygon fill="midnightblue" stroke="midnightblue" points="257.61,-83.94 264.22,-75.65 253.89,-78.01 257.61,-83.94"/>
</g>
<!-- Node31 -->
<g id="node31" class="node">
<title>Node31</title>
<g id="a_node31"><a xlink:href="hashmap_8h.html" target="_top" xlink:title=" ">
<polygon fill="white" stroke="black" points="1874,-112.5 1874,-131.5 1984,-131.5 1984,-112.5 1874,-112.5"/>
<text text-anchor="middle" x="1929" y="-119.5" font-family="FreeSans" font-size="10.00">magick/hashmap.h</text>
</a>
</g>
</g>
<!-- Node30&#45;&gt;Node31 -->
<g id="edge39" class="edge">
<title>Node30&#45;&gt;Node31</title>
<path fill="none" stroke="midnightblue" d="M1924.83,-168.08C1925.48,-161.01 1926.42,-150.86 1927.24,-141.99"/>
<polygon fill="midnightblue" stroke="midnightblue" points="1930.75,-142.03 1928.19,-131.75 1923.78,-141.39 1930.75,-142.03"/>
</g>
<!-- Node32&#45;&gt;Node9 -->
<g id="edge42" class="edge">
<title>Node32&#45;&gt;Node9</title>
<path fill="none" stroke="midnightblue" d="M378.63,-168.08C381.61,-160.77 385.93,-150.18 389.62,-141.1"/>
<polygon fill="midnightblue" stroke="midnightblue" points="392.9,-142.33 393.43,-131.75 386.42,-139.69 392.9,-142.33"/>
</g>
<!-- Node32&#45;&gt;Node15 -->
<g id="edge43" class="edge">
<title>Node32&#45;&gt;Node15</title>
<path fill="none" stroke="midnightblue" d="M366.74,-168.08C359.54,-160.3 348.89,-148.8 340.15,-139.37"/>
<polygon fill="midnightblue" stroke="midnightblue" points="342.47,-136.71 333.1,-131.75 337.33,-141.47 342.47,-136.71"/>
</g>
</g>
</svg>
