<?xml version="1.0" encoding="UTF-8" standalone="no"?>
<!DOCTYPE svg PUBLIC "-//W3C//DTD SVG 1.1//EN"
 "http://www.w3.org/Graphics/SVG/1.1/DTD/svg11.dtd">
<!-- Generated by graphviz version 2.43.0 (0)
 -->
<!-- Title: statistic.h Pages: 1 -->
<svg width="1863pt" height="364pt"
 viewBox="0.00 0.00 1862.60 364.00" xmlns="http://www.w3.org/2000/svg" xmlns:xlink="http://www.w3.org/1999/xlink">
<g id="graph0" class="graph" transform="scale(1 1) rotate(0) translate(4 360)">
<title>statistic.h</title>
<polygon fill="white" stroke="transparent" points="-4,4 -4,-360 1858.6,-360 1858.6,4 -4,4"/>
<!-- Node1 -->
<g id="node1" class="node">
<title>Node1</title>
<g id="a_node1"><a xlink:title=" ">
<polygon fill="#bfbfbf" stroke="black" points="619.1,-336.5 619.1,-355.5 684.1,-355.5 684.1,-336.5 619.1,-336.5"/>
<text text-anchor="middle" x="651.6" y="-343.5" font-family="FreeSans" font-size="10.00">statistic.h</text>
</a>
</g>
</g>
<!-- Node2 -->
<g id="node2" class="node">
<title>Node2</title>
<g id="a_node2"><a xlink:href="draw_8h.html" target="_top" xlink:title=" ">
<polygon fill="white" stroke="black" points="607.6,-280.5 607.6,-299.5 695.6,-299.5 695.6,-280.5 607.6,-280.5"/>
<text text-anchor="middle" x="651.6" y="-287.5" font-family="FreeSans" font-size="10.00">magick/draw.h</text>
</a>
</g>
</g>
<!-- Node1&#45;&gt;Node2 -->
<g id="edge1" class="edge">
<title>Node1&#45;&gt;Node2</title>
<path fill="none" stroke="midnightblue" d="M651.6,-336.08C651.6,-329.01 651.6,-318.86 651.6,-309.99"/>
<polygon fill="midnightblue" stroke="midnightblue" points="655.1,-309.75 651.6,-299.75 648.1,-309.75 655.1,-309.75"/>
</g>
<!-- Node3 -->
<g id="node3" class="node">
<title>Node3</title>
<g id="a_node3"><a xlink:href="geometry_8h.html" target="_top" xlink:title=" ">
<polygon fill="white" stroke="black" points="1596.6,-56.5 1596.6,-75.5 1706.6,-75.5 1706.6,-56.5 1596.6,-56.5"/>
<text text-anchor="middle" x="1651.6" y="-63.5" font-family="FreeSans" font-size="10.00">magick/geometry.h</text>
</a>
</g>
</g>
<!-- Node2&#45;&gt;Node3 -->
<g id="edge2" class="edge">
<title>Node2&#45;&gt;Node3</title>
<path fill="none" stroke="midnightblue" d="M695.61,-287.45C884.22,-280.43 1618.29,-249.33 1699.6,-188 1727.67,-166.82 1738.45,-142.86 1721.6,-112 1713.78,-97.68 1699.23,-87.24 1685.42,-80.04"/>
<polygon fill="midnightblue" stroke="midnightblue" points="1686.6,-76.72 1676.06,-75.56 1683.58,-83.03 1686.6,-76.72"/>
</g>
<!-- Node4 -->
<g id="node4" class="node">
<title>Node4</title>
<g id="a_node4"><a xlink:href="image_8h.html" target="_top" xlink:title=" ">
<polygon fill="white" stroke="black" points="604.1,-224.5 604.1,-243.5 699.1,-243.5 699.1,-224.5 604.1,-224.5"/>
<text text-anchor="middle" x="651.6" y="-231.5" font-family="FreeSans" font-size="10.00">magick/image.h</text>
</a>
</g>
</g>
<!-- Node2&#45;&gt;Node4 -->
<g id="edge3" class="edge">
<title>Node2&#45;&gt;Node4</title>
<path fill="none" stroke="midnightblue" d="M651.6,-280.08C651.6,-273.01 651.6,-262.86 651.6,-253.99"/>
<polygon fill="midnightblue" stroke="midnightblue" points="655.1,-253.75 651.6,-243.75 648.1,-253.75 655.1,-253.75"/>
</g>
<!-- Node5 -->
<g id="node5" class="node">
<title>Node5</title>
<g id="a_node5"><a xlink:href="color_8h.html" target="_top" xlink:title=" ">
<polygon fill="white" stroke="black" points="159.6,-112.5 159.6,-131.5 247.6,-131.5 247.6,-112.5 159.6,-112.5"/>
<text text-anchor="middle" x="203.6" y="-119.5" font-family="FreeSans" font-size="10.00">magick/color.h</text>
</a>
</g>
</g>
<!-- Node2&#45;&gt;Node5 -->
<g id="edge45" class="edge">
<title>Node2&#45;&gt;Node5</title>
<path fill="none" stroke="midnightblue" d="M607.45,-288.58C481.36,-286.35 124.09,-272.56 52.6,-188 46.86,-181.21 47.28,-175.13 52.6,-168 64.41,-152.15 111.05,-139.85 149.4,-132.14"/>
<polygon fill="midnightblue" stroke="midnightblue" points="150.3,-135.53 159.45,-130.19 148.97,-128.66 150.3,-135.53"/>
</g>
<!-- Node6 -->
<g id="node6" class="node">
<title>Node6</title>
<g id="a_node6"><a xlink:href="pixel_8h.html" target="_top" xlink:title=" ">
<polygon fill="white" stroke="black" points="37.6,-56.5 37.6,-75.5 125.6,-75.5 125.6,-56.5 37.6,-56.5"/>
<text text-anchor="middle" x="81.6" y="-63.5" font-family="FreeSans" font-size="10.00">magick/pixel.h</text>
</a>
</g>
</g>
<!-- Node2&#45;&gt;Node6 -->
<g id="edge43" class="edge">
<title>Node2&#45;&gt;Node6</title>
<path fill="none" stroke="midnightblue" d="M607.38,-288.05C495.13,-285.21 201.54,-274.96 109.6,-244 65.66,-229.21 50.22,-224.46 21.6,-188 5.37,-167.33 6.87,-157.93 2.6,-132 1.15,-123.23 -1.87,-119.69 2.6,-112 11.33,-96.97 27.17,-86.54 42.39,-79.54"/>
<polygon fill="midnightblue" stroke="midnightblue" points="43.86,-82.72 51.71,-75.61 41.14,-76.27 43.86,-82.72"/>
</g>
<!-- Node31 -->
<g id="node31" class="node">
<title>Node31</title>
<g id="a_node31"><a xlink:href="type_8h.html" target="_top" xlink:title=" ">
<polygon fill="white" stroke="black" points="1768.6,-224.5 1768.6,-243.5 1854.6,-243.5 1854.6,-224.5 1768.6,-224.5"/>
<text text-anchor="middle" x="1811.6" y="-231.5" font-family="FreeSans" font-size="10.00">magick/type.h</text>
</a>
</g>
</g>
<!-- Node2&#45;&gt;Node31 -->
<g id="edge44" class="edge">
<title>Node2&#45;&gt;Node31</title>
<path fill="none" stroke="midnightblue" d="M695.6,-289.03C844.68,-288.75 1344.31,-284.62 1754.6,-244 1755.86,-243.88 1757.13,-243.74 1758.42,-243.6"/>
<polygon fill="midnightblue" stroke="midnightblue" points="1758.91,-247.06 1768.4,-242.36 1758.05,-240.12 1758.91,-247.06"/>
</g>
<!-- Node4&#45;&gt;Node3 -->
<g id="edge22" class="edge">
<title>Node4&#45;&gt;Node3</title>
<path fill="none" stroke="midnightblue" d="M699.14,-233.37C873.7,-234.36 1472.73,-234.3 1543.6,-188 1575.21,-167.34 1556.37,-140.1 1581.6,-112 1593.28,-98.98 1609.57,-88.22 1623.49,-80.48"/>
<polygon fill="midnightblue" stroke="midnightblue" points="1625.47,-83.39 1632.67,-75.62 1622.19,-77.21 1625.47,-83.39"/>
</g>
<!-- Node4&#45;&gt;Node5 -->
<g id="edge4" class="edge">
<title>Node4&#45;&gt;Node5</title>
<path fill="none" stroke="midnightblue" d="M604.03,-231.71C513.49,-228.56 320.21,-218.41 261.6,-188 240.69,-177.16 223.76,-155.46 213.7,-140.12"/>
<polygon fill="midnightblue" stroke="midnightblue" points="216.62,-138.18 208.36,-131.55 210.68,-141.89 216.62,-138.18"/>
</g>
<!-- Node4&#45;&gt;Node6 -->
<g id="edge27" class="edge">
<title>Node4&#45;&gt;Node6</title>
<path fill="none" stroke="midnightblue" d="M603.72,-231.72C470.16,-227.84 100.13,-214.76 52.6,-188 19.33,-169.27 -5.59,-145.56 12.6,-112 20.34,-97.7 34.83,-87.22 48.54,-79.99"/>
<polygon fill="midnightblue" stroke="midnightblue" points="50.33,-83.01 57.81,-75.5 47.28,-76.71 50.33,-83.01"/>
</g>
<!-- Node7 -->
<g id="node7" class="node">
<title>Node7</title>
<g id="a_node7"><a xlink:href="colorspace_8h.html" target="_top" xlink:title=" ">
<polygon fill="white" stroke="black" points="163.1,-0.5 163.1,-19.5 280.1,-19.5 280.1,-0.5 163.1,-0.5"/>
<text text-anchor="middle" x="221.6" y="-7.5" font-family="FreeSans" font-size="10.00">magick/colorspace.h</text>
</a>
</g>
</g>
<!-- Node4&#45;&gt;Node7 -->
<g id="edge14" class="edge">
<title>Node4&#45;&gt;Node7</title>
<path fill="none" stroke="midnightblue" d="M604.08,-232.79C518.31,-231.48 342.12,-224.32 294.6,-188 281.2,-177.77 243.21,-72.66 228.01,-29.42"/>
<polygon fill="midnightblue" stroke="midnightblue" points="231.27,-28.14 224.66,-19.86 224.66,-30.45 231.27,-28.14"/>
</g>
<!-- Node11 -->
<g id="node11" class="node">
<title>Node11</title>
<g id="a_node11"><a xlink:href="semaphore_8h.html" target="_top" xlink:title=" ">
<polygon fill="white" stroke="black" points="440.1,-0.5 440.1,-19.5 559.1,-19.5 559.1,-0.5 440.1,-0.5"/>
<text text-anchor="middle" x="499.6" y="-7.5" font-family="FreeSans" font-size="10.00">magick/semaphore.h</text>
</a>
</g>
</g>
<!-- Node4&#45;&gt;Node11 -->
<g id="edge40" class="edge">
<title>Node4&#45;&gt;Node11</title>
<path fill="none" stroke="midnightblue" d="M603.79,-232.67C564.89,-229.88 510.98,-219.89 476.6,-188 451.07,-164.33 447.83,-145.42 457.6,-112 462.92,-93.78 472.74,-93.29 480.6,-76 487.43,-60.95 492.49,-42.82 495.66,-29.54"/>
<polygon fill="midnightblue" stroke="midnightblue" points="499.1,-30.22 497.88,-19.69 492.27,-28.68 499.1,-30.22"/>
</g>
<!-- Node12 -->
<g id="node12" class="node">
<title>Node12</title>
<g id="a_node12"><a xlink:href="blob_8h.html" target="_top" xlink:title=" ">
<polygon fill="white" stroke="black" points="493.6,-168.5 493.6,-187.5 579.6,-187.5 579.6,-168.5 493.6,-168.5"/>
<text text-anchor="middle" x="536.6" y="-175.5" font-family="FreeSans" font-size="10.00">magick/blob.h</text>
</a>
</g>
</g>
<!-- Node4&#45;&gt;Node12 -->
<g id="edge11" class="edge">
<title>Node4&#45;&gt;Node12</title>
<path fill="none" stroke="midnightblue" d="M628.28,-224.44C607.87,-215.75 578.7,-202.18 558.67,-192.13"/>
<polygon fill="midnightblue" stroke="midnightblue" points="560.15,-188.95 549.65,-187.52 556.96,-195.19 560.15,-188.95"/>
</g>
<!-- Node13 -->
<g id="node13" class="node">
<title>Node13</title>
<g id="a_node13"><a xlink:href="stream_8h.html" target="_top" xlink:title=" ">
<polygon fill="white" stroke="black" points="467.1,-112.5 467.1,-131.5 566.1,-131.5 566.1,-112.5 467.1,-112.5"/>
<text text-anchor="middle" x="516.6" y="-119.5" font-family="FreeSans" font-size="10.00">magick/stream.h</text>
</a>
</g>
</g>
<!-- Node4&#45;&gt;Node13 -->
<g id="edge41" class="edge">
<title>Node4&#45;&gt;Node13</title>
<path fill="none" stroke="midnightblue" d="M604.09,-226.68C560.02,-219.72 499.11,-206.95 484.6,-188 472.96,-172.81 486.45,-152.72 499.32,-138.91"/>
<polygon fill="midnightblue" stroke="midnightblue" points="502.04,-141.15 506.63,-131.6 497.09,-136.2 502.04,-141.15"/>
</g>
<!-- Node14 -->
<g id="node14" class="node">
<title>Node14</title>
<g id="a_node14"><a xlink:href="cache-view_8h.html" target="_top" xlink:title=" ">
<polygon fill="white" stroke="black" points="22.1,-112.5 22.1,-131.5 141.1,-131.5 141.1,-112.5 22.1,-112.5"/>
<text text-anchor="middle" x="81.6" y="-119.5" font-family="FreeSans" font-size="10.00">magick/cache&#45;view.h</text>
</a>
</g>
</g>
<!-- Node4&#45;&gt;Node14 -->
<g id="edge15" class="edge">
<title>Node4&#45;&gt;Node14</title>
<path fill="none" stroke="midnightblue" d="M604.07,-232.44C525.65,-230.51 364.76,-222.29 233.6,-188 209,-181.57 145.65,-152.91 108.96,-135.87"/>
<polygon fill="midnightblue" stroke="midnightblue" points="110.35,-132.65 99.81,-131.6 107.4,-139 110.35,-132.65"/>
</g>
<!-- Node15 -->
<g id="node15" class="node">
<title>Node15</title>
<g id="a_node15"><a xlink:href="composite_8h.html" target="_top" xlink:title=" ">
<polygon fill="white" stroke="black" points="723.6,-168.5 723.6,-187.5 839.6,-187.5 839.6,-168.5 723.6,-168.5"/>
<text text-anchor="middle" x="781.6" y="-175.5" font-family="FreeSans" font-size="10.00">magick/composite.h</text>
</a>
</g>
</g>
<!-- Node4&#45;&gt;Node15 -->
<g id="edge17" class="edge">
<title>Node4&#45;&gt;Node15</title>
<path fill="none" stroke="midnightblue" d="M672.19,-224.44C693.59,-215.56 727.28,-201.56 751.62,-191.45"/>
<polygon fill="midnightblue" stroke="midnightblue" points="753.2,-194.58 761.09,-187.52 750.52,-188.12 753.2,-194.58"/>
</g>
<!-- Node16 -->
<g id="node16" class="node">
<title>Node16</title>
<g id="a_node16"><a xlink:href="compress_8h.html" target="_top" xlink:title=" ">
<polygon fill="white" stroke="black" points="857.6,-168.5 857.6,-187.5 969.6,-187.5 969.6,-168.5 857.6,-168.5"/>
<text text-anchor="middle" x="913.6" y="-175.5" font-family="FreeSans" font-size="10.00">magick/compress.h</text>
</a>
</g>
</g>
<!-- Node4&#45;&gt;Node16 -->
<g id="edge18" class="edge">
<title>Node4&#45;&gt;Node16</title>
<path fill="none" stroke="midnightblue" d="M693.11,-224.44C739.01,-214.98 812.98,-199.74 862.42,-189.55"/>
<polygon fill="midnightblue" stroke="midnightblue" points="863.19,-192.96 872.27,-187.52 861.77,-186.11 863.19,-192.96"/>
</g>
<!-- Node17 -->
<g id="node17" class="node">
<title>Node17</title>
<g id="a_node17"><a xlink:href="effect_8h.html" target="_top" xlink:title=" ">
<polygon fill="white" stroke="black" points="1598.6,-168.5 1598.6,-187.5 1690.6,-187.5 1690.6,-168.5 1598.6,-168.5"/>
<text text-anchor="middle" x="1644.6" y="-175.5" font-family="FreeSans" font-size="10.00">magick/effect.h</text>
</a>
</g>
</g>
<!-- Node4&#45;&gt;Node17 -->
<g id="edge19" class="edge">
<title>Node4&#45;&gt;Node17</title>
<path fill="none" stroke="midnightblue" d="M699.35,-232.07C836.21,-229.12 1241.53,-218.27 1576.6,-188 1580.49,-187.65 1584.5,-187.24 1588.53,-186.79"/>
<polygon fill="midnightblue" stroke="midnightblue" points="1589.04,-190.26 1598.56,-185.62 1588.23,-183.3 1589.04,-190.26"/>
</g>
<!-- Node19 -->
<g id="node19" class="node">
<title>Node19</title>
<g id="a_node19"><a xlink:href="layer_8h.html" target="_top" xlink:title=" ">
<polygon fill="white" stroke="black" points="988.1,-168.5 988.1,-187.5 1077.1,-187.5 1077.1,-168.5 988.1,-168.5"/>
<text text-anchor="middle" x="1032.6" y="-175.5" font-family="FreeSans" font-size="10.00">magick/layer.h</text>
</a>
</g>
</g>
<!-- Node4&#45;&gt;Node19 -->
<g id="edge23" class="edge">
<title>Node4&#45;&gt;Node19</title>
<path fill="none" stroke="midnightblue" d="M699.31,-226.86C761.06,-218.83 872.23,-204.04 977.64,-188.11"/>
<polygon fill="midnightblue" stroke="midnightblue" points="978.46,-191.52 987.82,-186.56 977.41,-184.6 978.46,-191.52"/>
</g>
<!-- Node20 -->
<g id="node20" class="node">
<title>Node20</title>
<g id="a_node20"><a xlink:href="locale___8h.html" target="_top" xlink:title=" ">
<polygon fill="white" stroke="black" points="1095.1,-168.5 1095.1,-187.5 1194.1,-187.5 1194.1,-168.5 1095.1,-168.5"/>
<text text-anchor="middle" x="1144.6" y="-175.5" font-family="FreeSans" font-size="10.00">magick/locale_.h</text>
</a>
</g>
</g>
<!-- Node4&#45;&gt;Node20 -->
<g id="edge24" class="edge">
<title>Node4&#45;&gt;Node20</title>
<path fill="none" stroke="midnightblue" d="M699.32,-228.86C777.68,-221.9 938.72,-206.84 1084.89,-188.17"/>
<polygon fill="midnightblue" stroke="midnightblue" points="1085.47,-191.62 1094.94,-186.87 1084.58,-184.68 1085.47,-191.62"/>
</g>
<!-- Node22 -->
<g id="node22" class="node">
<title>Node22</title>
<g id="a_node22"><a xlink:href="monitor_8h.html" target="_top" xlink:title=" ">
<polygon fill="white" stroke="black" points="1212.6,-168.5 1212.6,-187.5 1314.6,-187.5 1314.6,-168.5 1212.6,-168.5"/>
<text text-anchor="middle" x="1263.6" y="-175.5" font-family="FreeSans" font-size="10.00">magick/monitor.h</text>
</a>
</g>
</g>
<!-- Node4&#45;&gt;Node22 -->
<g id="edge26" class="edge">
<title>Node4&#45;&gt;Node22</title>
<path fill="none" stroke="midnightblue" d="M699.33,-230.2C793.49,-224.44 1010.01,-210.01 1202.54,-188.05"/>
<polygon fill="midnightblue" stroke="midnightblue" points="1203.03,-191.51 1212.56,-186.89 1202.23,-184.56 1203.03,-191.51"/>
</g>
<!-- Node23 -->
<g id="node23" class="node">
<title>Node23</title>
<g id="a_node23"><a xlink:href="profile_8h.html" target="_top" xlink:title=" ">
<polygon fill="white" stroke="black" points="304.1,-168.5 304.1,-187.5 399.1,-187.5 399.1,-168.5 304.1,-168.5"/>
<text text-anchor="middle" x="351.6" y="-175.5" font-family="FreeSans" font-size="10.00">magick/profile.h</text>
</a>
</g>
</g>
<!-- Node4&#45;&gt;Node23 -->
<g id="edge28" class="edge">
<title>Node4&#45;&gt;Node23</title>
<path fill="none" stroke="midnightblue" d="M604.06,-224.44C551.07,-214.9 465.39,-199.48 408.78,-189.29"/>
<polygon fill="midnightblue" stroke="midnightblue" points="409.37,-185.84 398.91,-187.52 408.13,-192.73 409.37,-185.84"/>
</g>
<!-- Node26 -->
<g id="node26" class="node">
<title>Node26</title>
<g id="a_node26"><a xlink:href="quantum_8h.html" target="_top" xlink:title=" ">
<polygon fill="white" stroke="black" points="597.6,-168.5 597.6,-187.5 705.6,-187.5 705.6,-168.5 597.6,-168.5"/>
<text text-anchor="middle" x="651.6" y="-175.5" font-family="FreeSans" font-size="10.00">magick/quantum.h</text>
</a>
</g>
</g>
<!-- Node4&#45;&gt;Node26 -->
<g id="edge33" class="edge">
<title>Node4&#45;&gt;Node26</title>
<path fill="none" stroke="midnightblue" d="M646.43,-224.08C644.92,-216.93 644.49,-206.64 645.14,-197.69"/>
<polygon fill="midnightblue" stroke="midnightblue" points="648.61,-198.13 646.46,-187.75 641.67,-197.2 648.61,-198.13"/>
</g>
<!-- Node28 -->
<g id="node28" class="node">
<title>Node28</title>
<g id="a_node28"><a xlink:href="resample_8h.html" target="_top" xlink:title=" ">
<polygon fill="white" stroke="black" points="61.6,-168.5 61.6,-187.5 171.6,-187.5 171.6,-168.5 61.6,-168.5"/>
<text text-anchor="middle" x="116.6" y="-175.5" font-family="FreeSans" font-size="10.00">magick/resample.h</text>
</a>
</g>
</g>
<!-- Node4&#45;&gt;Node28 -->
<g id="edge37" class="edge">
<title>Node4&#45;&gt;Node28</title>
<path fill="none" stroke="midnightblue" d="M603.91,-228.93C519.49,-221.59 338.23,-205.32 185.6,-188 184.48,-187.87 183.36,-187.75 182.24,-187.61"/>
<polygon fill="midnightblue" stroke="midnightblue" points="182.28,-184.09 171.94,-186.38 181.45,-191.05 182.28,-184.09"/>
</g>
<!-- Node29 -->
<g id="node29" class="node">
<title>Node29</title>
<g id="a_node29"><a xlink:href="resize_8h.html" target="_top" xlink:title=" ">
<polygon fill="white" stroke="black" points="1332.6,-168.5 1332.6,-187.5 1426.6,-187.5 1426.6,-168.5 1332.6,-168.5"/>
<text text-anchor="middle" x="1379.6" y="-175.5" font-family="FreeSans" font-size="10.00">magick/resize.h</text>
</a>
</g>
</g>
<!-- Node4&#45;&gt;Node29 -->
<g id="edge39" class="edge">
<title>Node4&#45;&gt;Node29</title>
<path fill="none" stroke="midnightblue" d="M699.4,-231.32C808.18,-227.17 1082.72,-214.84 1322.63,-188"/>
<polygon fill="midnightblue" stroke="midnightblue" points="1323.04,-191.48 1332.58,-186.88 1322.26,-184.52 1323.04,-191.48"/>
</g>
<!-- Node30 -->
<g id="node30" class="node">
<title>Node30</title>
<g id="a_node30"><a xlink:href="timer_8h.html" target="_top" xlink:title=" ">
<polygon fill="white" stroke="black" points="1444.6,-168.5 1444.6,-187.5 1534.6,-187.5 1534.6,-168.5 1444.6,-168.5"/>
<text text-anchor="middle" x="1489.6" y="-175.5" font-family="FreeSans" font-size="10.00">magick/timer.h</text>
</a>
</g>
</g>
<!-- Node4&#45;&gt;Node30 -->
<g id="edge42" class="edge">
<title>Node4&#45;&gt;Node30</title>
<path fill="none" stroke="midnightblue" d="M699.47,-232.05C820.75,-229.25 1150,-219.26 1434.46,-188"/>
<polygon fill="midnightblue" stroke="midnightblue" points="1435.01,-191.46 1444.56,-186.88 1434.24,-184.5 1435.01,-191.46"/>
</g>
<!-- Node5&#45;&gt;Node6 -->
<g id="edge5" class="edge">
<title>Node5&#45;&gt;Node6</title>
<path fill="none" stroke="midnightblue" d="M184.26,-112.44C164.28,-103.6 132.85,-89.69 110.03,-79.59"/>
<polygon fill="midnightblue" stroke="midnightblue" points="111.4,-76.36 100.84,-75.52 108.56,-82.76 111.4,-76.36"/>
</g>
<!-- Node9 -->
<g id="node9" class="node">
<title>Node9</title>
<g id="a_node9"><a xlink:href="exception_8h.html" target="_top" xlink:title=" ">
<polygon fill="white" stroke="black" points="292.1,-56.5 292.1,-75.5 405.1,-75.5 405.1,-56.5 292.1,-56.5"/>
<text text-anchor="middle" x="348.6" y="-63.5" font-family="FreeSans" font-size="10.00">magick/exception.h</text>
</a>
</g>
</g>
<!-- Node5&#45;&gt;Node9 -->
<g id="edge8" class="edge">
<title>Node5&#45;&gt;Node9</title>
<path fill="none" stroke="midnightblue" d="M226.57,-112.44C250.75,-103.44 289.01,-89.19 316.24,-79.05"/>
<polygon fill="midnightblue" stroke="midnightblue" points="317.58,-82.29 325.73,-75.52 315.13,-75.73 317.58,-82.29"/>
</g>
<!-- Node6&#45;&gt;Node7 -->
<g id="edge6" class="edge">
<title>Node6&#45;&gt;Node7</title>
<path fill="none" stroke="midnightblue" d="M103.78,-56.44C127.02,-47.48 163.74,-33.31 190.01,-23.18"/>
<polygon fill="midnightblue" stroke="midnightblue" points="191.45,-26.38 199.52,-19.52 188.93,-19.85 191.45,-26.38"/>
</g>
<!-- Node8 -->
<g id="node8" class="node">
<title>Node8</title>
<g id="a_node8"><a xlink:href="constitute_8h.html" target="_top" xlink:title=" ">
<polygon fill="white" stroke="black" points="25.1,-0.5 25.1,-19.5 138.1,-19.5 138.1,-0.5 25.1,-0.5"/>
<text text-anchor="middle" x="81.6" y="-7.5" font-family="FreeSans" font-size="10.00">magick/constitute.h</text>
</a>
</g>
</g>
<!-- Node6&#45;&gt;Node8 -->
<g id="edge7" class="edge">
<title>Node6&#45;&gt;Node8</title>
<path fill="none" stroke="midnightblue" d="M81.6,-56.08C81.6,-49.01 81.6,-38.86 81.6,-29.99"/>
<polygon fill="midnightblue" stroke="midnightblue" points="85.1,-29.75 81.6,-19.75 78.1,-29.75 85.1,-29.75"/>
</g>
<!-- Node10 -->
<g id="node10" class="node">
<title>Node10</title>
<g id="a_node10"><a xlink:title=" ">
<polygon fill="white" stroke="#bfbfbf" points="309.6,-0.5 309.6,-19.5 365.6,-19.5 365.6,-0.5 309.6,-0.5"/>
<text text-anchor="middle" x="337.6" y="-7.5" font-family="FreeSans" font-size="10.00">stdarg.h</text>
</a>
</g>
</g>
<!-- Node9&#45;&gt;Node10 -->
<g id="edge9" class="edge">
<title>Node9&#45;&gt;Node10</title>
<path fill="none" stroke="midnightblue" d="M346.78,-56.08C345.32,-48.93 343.22,-38.64 341.4,-29.69"/>
<polygon fill="midnightblue" stroke="midnightblue" points="344.8,-28.85 339.38,-19.75 337.94,-30.25 344.8,-28.85"/>
</g>
<!-- Node9&#45;&gt;Node11 -->
<g id="edge10" class="edge">
<title>Node9&#45;&gt;Node11</title>
<path fill="none" stroke="midnightblue" d="M372.52,-56.44C397.81,-47.4 437.9,-33.06 466.27,-22.92"/>
<polygon fill="midnightblue" stroke="midnightblue" points="467.54,-26.18 475.78,-19.52 465.19,-19.59 467.54,-26.18"/>
</g>
<!-- Node12&#45;&gt;Node4 -->
<g id="edge12" class="edge">
<title>Node12&#45;&gt;Node4</title>
<path fill="none" stroke="midnightblue" d="M560.14,-187.65C580.44,-196.31 609.29,-209.73 629.23,-219.73"/>
<polygon fill="midnightblue" stroke="midnightblue" points="627.74,-222.89 638.23,-224.32 630.92,-216.66 627.74,-222.89"/>
</g>
<!-- Node12&#45;&gt;Node13 -->
<g id="edge13" class="edge">
<title>Node12&#45;&gt;Node13</title>
<path fill="none" stroke="midnightblue" d="M533.29,-168.08C530.61,-160.85 526.75,-150.41 523.41,-141.4"/>
<polygon fill="midnightblue" stroke="midnightblue" points="526.59,-139.91 519.84,-131.75 520.03,-142.34 526.59,-139.91"/>
</g>
<!-- Node14&#45;&gt;Node6 -->
<g id="edge16" class="edge">
<title>Node14&#45;&gt;Node6</title>
<path fill="none" stroke="midnightblue" d="M81.6,-112.08C81.6,-105.01 81.6,-94.86 81.6,-85.99"/>
<polygon fill="midnightblue" stroke="midnightblue" points="85.1,-85.75 81.6,-75.75 78.1,-85.75 85.1,-85.75"/>
</g>
<!-- Node18 -->
<g id="node18" class="node">
<title>Node18</title>
<g id="a_node18"><a xlink:href="morphology_8h.html" target="_top" xlink:title=" ">
<polygon fill="white" stroke="black" points="1590.6,-112.5 1590.6,-131.5 1712.6,-131.5 1712.6,-112.5 1590.6,-112.5"/>
<text text-anchor="middle" x="1651.6" y="-119.5" font-family="FreeSans" font-size="10.00">magick/morphology.h</text>
</a>
</g>
</g>
<!-- Node17&#45;&gt;Node18 -->
<g id="edge20" class="edge">
<title>Node17&#45;&gt;Node18</title>
<path fill="none" stroke="midnightblue" d="M1645.75,-168.08C1646.68,-160.93 1648.01,-150.64 1649.17,-141.69"/>
<polygon fill="midnightblue" stroke="midnightblue" points="1652.65,-142.12 1650.46,-131.75 1645.7,-141.22 1652.65,-142.12"/>
</g>
<!-- Node18&#45;&gt;Node3 -->
<g id="edge21" class="edge">
<title>Node18&#45;&gt;Node3</title>
<path fill="none" stroke="midnightblue" d="M1651.6,-112.08C1651.6,-105.01 1651.6,-94.86 1651.6,-85.99"/>
<polygon fill="midnightblue" stroke="midnightblue" points="1655.1,-85.75 1651.6,-75.75 1648.1,-85.75 1655.1,-85.75"/>
</g>
<!-- Node21 -->
<g id="node21" class="node">
<title>Node21</title>
<g id="a_node21"><a xlink:href="hashmap_8h.html" target="_top" xlink:title=" ">
<polygon fill="white" stroke="black" points="1089.6,-112.5 1089.6,-131.5 1199.6,-131.5 1199.6,-112.5 1089.6,-112.5"/>
<text text-anchor="middle" x="1144.6" y="-119.5" font-family="FreeSans" font-size="10.00">magick/hashmap.h</text>
</a>
</g>
</g>
<!-- Node20&#45;&gt;Node21 -->
<g id="edge25" class="edge">
<title>Node20&#45;&gt;Node21</title>
<path fill="none" stroke="midnightblue" d="M1144.6,-168.08C1144.6,-161.01 1144.6,-150.86 1144.6,-141.99"/>
<polygon fill="midnightblue" stroke="midnightblue" points="1148.1,-141.75 1144.6,-131.75 1141.1,-141.75 1148.1,-141.75"/>
</g>
<!-- Node24 -->
<g id="node24" class="node">
<title>Node24</title>
<g id="a_node24"><a xlink:href="string___8h.html" target="_top" xlink:title=" ">
<polygon fill="white" stroke="black" points="303.6,-112.5 303.6,-131.5 401.6,-131.5 401.6,-112.5 303.6,-112.5"/>
<text text-anchor="middle" x="352.6" y="-119.5" font-family="FreeSans" font-size="10.00">magick/string_.h</text>
</a>
</g>
</g>
<!-- Node23&#45;&gt;Node24 -->
<g id="edge29" class="edge">
<title>Node23&#45;&gt;Node24</title>
<path fill="none" stroke="midnightblue" d="M351.76,-168.08C351.89,-161.01 352.08,-150.86 352.24,-141.99"/>
<polygon fill="midnightblue" stroke="midnightblue" points="355.75,-141.81 352.43,-131.75 348.75,-141.68 355.75,-141.81"/>
</g>
<!-- Node24&#45;&gt;Node9 -->
<g id="edge32" class="edge">
<title>Node24&#45;&gt;Node9</title>
<path fill="none" stroke="midnightblue" d="M351.93,-112.08C351.41,-105.01 350.66,-94.86 350,-85.99"/>
<polygon fill="midnightblue" stroke="midnightblue" points="353.47,-85.47 349.24,-75.75 346.49,-85.98 353.47,-85.47"/>
</g>
<!-- Node24&#45;&gt;Node10 -->
<g id="edge30" class="edge">
<title>Node24&#45;&gt;Node10</title>
<path fill="none" stroke="midnightblue" d="M328.13,-112.44C312.03,-105.38 292.22,-93.63 282.6,-76 271.89,-56.4 292.98,-37.3 312.06,-24.93"/>
<polygon fill="midnightblue" stroke="midnightblue" points="314.12,-27.77 320.84,-19.58 310.48,-21.79 314.12,-27.77"/>
</g>
<!-- Node25 -->
<g id="node25" class="node">
<title>Node25</title>
<g id="a_node25"><a xlink:title=" ">
<polygon fill="white" stroke="#bfbfbf" points="423.6,-56.5 423.6,-75.5 471.6,-75.5 471.6,-56.5 423.6,-56.5"/>
<text text-anchor="middle" x="447.6" y="-63.5" font-family="FreeSans" font-size="10.00">time.h</text>
</a>
</g>
</g>
<!-- Node24&#45;&gt;Node25 -->
<g id="edge31" class="edge">
<title>Node24&#45;&gt;Node25</title>
<path fill="none" stroke="midnightblue" d="M367.86,-112.32C382.82,-103.82 405.85,-90.73 423.32,-80.8"/>
<polygon fill="midnightblue" stroke="midnightblue" points="425.41,-83.64 432.37,-75.65 421.95,-77.55 425.41,-83.64"/>
</g>
<!-- Node26&#45;&gt;Node4 -->
<g id="edge35" class="edge">
<title>Node26&#45;&gt;Node4</title>
<path fill="none" stroke="midnightblue" d="M656.73,-187.75C658.25,-194.86 658.7,-205.14 658.07,-214.1"/>
<polygon fill="midnightblue" stroke="midnightblue" points="654.59,-213.71 656.76,-224.08 661.53,-214.62 654.59,-213.71"/>
</g>
<!-- Node26&#45;&gt;Node11 -->
<g id="edge36" class="edge">
<title>Node26&#45;&gt;Node11</title>
<path fill="none" stroke="midnightblue" d="M643.42,-168.08C618.98,-141.38 546.17,-61.87 514.54,-27.32"/>
<polygon fill="midnightblue" stroke="midnightblue" points="516.78,-24.58 507.44,-19.57 511.61,-29.31 516.78,-24.58"/>
</g>
<!-- Node27 -->
<g id="node27" class="node">
<title>Node27</title>
<g id="a_node27"><a xlink:title=" ">
<polygon fill="white" stroke="#bfbfbf" points="628.1,-112.5 628.1,-131.5 675.1,-131.5 675.1,-112.5 628.1,-112.5"/>
<text text-anchor="middle" x="651.6" y="-119.5" font-family="FreeSans" font-size="10.00">float.h</text>
</a>
</g>
</g>
<!-- Node26&#45;&gt;Node27 -->
<g id="edge34" class="edge">
<title>Node26&#45;&gt;Node27</title>
<path fill="none" stroke="midnightblue" d="M651.6,-168.08C651.6,-161.01 651.6,-150.86 651.6,-141.99"/>
<polygon fill="midnightblue" stroke="midnightblue" points="655.1,-141.75 651.6,-131.75 648.1,-141.75 655.1,-141.75"/>
</g>
<!-- Node28&#45;&gt;Node14 -->
<g id="edge38" class="edge">
<title>Node28&#45;&gt;Node14</title>
<path fill="none" stroke="midnightblue" d="M110.82,-168.08C105.92,-160.53 98.77,-149.49 92.76,-140.23"/>
<polygon fill="midnightblue" stroke="midnightblue" points="95.64,-138.24 87.27,-131.75 89.77,-142.05 95.64,-138.24"/>
</g>
</g>
</svg>
