<?xml version="1.0" encoding="UTF-8" standalone="no"?>
<!DOCTYPE svg PUBLIC "-//W3C//DTD SVG 1.1//EN"
 "http://www.w3.org/Graphics/SVG/1.1/DTD/svg11.dtd">
<!-- Generated by graphviz version 2.43.0 (0)
 -->
<!-- Title: static.c Pages: 1 -->
<svg width="3604pt" height="308pt"
 viewBox="0.00 0.00 3604.00 308.00" xmlns="http://www.w3.org/2000/svg" xmlns:xlink="http://www.w3.org/1999/xlink">
<g id="graph0" class="graph" transform="scale(1 1) rotate(0) translate(4 304)">
<title>static.c</title>
<polygon fill="white" stroke="transparent" points="-4,4 -4,-304 3600,-304 3600,4 -4,4"/>
<!-- Node1 -->
<g id="node1" class="node">
<title>Node1</title>
<g id="a_node1"><a xlink:title=" ">
<polygon fill="#bfbfbf" stroke="black" points="2079,-280.5 2079,-299.5 2131,-299.5 2131,-280.5 2079,-280.5"/>
<text text-anchor="middle" x="2105" y="-287.5" font-family="FreeSans" font-size="10.00">static.c</text>
</a>
</g>
</g>
<!-- Node2 -->
<g id="node2" class="node">
<title>Node2</title>
<g id="a_node2"><a xlink:href="studio_8h.html" target="_top" xlink:title=" ">
<polygon fill="white" stroke="black" points="877.5,-112.5 877.5,-131.5 972.5,-131.5 972.5,-112.5 877.5,-112.5"/>
<text text-anchor="middle" x="925" y="-119.5" font-family="FreeSans" font-size="10.00">magick/studio.h</text>
</a>
</g>
</g>
<!-- Node1&#45;&gt;Node2 -->
<g id="edge1" class="edge">
<title>Node1&#45;&gt;Node2</title>
<path fill="none" stroke="midnightblue" d="M2078.76,-288.34C1959.92,-285.2 1471.48,-270.91 1321,-244 1181.33,-219.03 1021.64,-160.64 955.82,-135.2"/>
<polygon fill="midnightblue" stroke="midnightblue" points="957.03,-131.92 946.44,-131.56 954.49,-138.44 957.03,-131.92"/>
</g>
<!-- Node24 -->
<g id="node23" class="node">
<title>Node24</title>
<g id="a_node23"><a xlink:href="coder_8h.html" target="_top" xlink:title=" ">
<polygon fill="white" stroke="black" points="3394.5,-224.5 3394.5,-243.5 3485.5,-243.5 3485.5,-224.5 3394.5,-224.5"/>
<text text-anchor="middle" x="3440" y="-231.5" font-family="FreeSans" font-size="10.00">magick/coder.h</text>
</a>
</g>
</g>
<!-- Node1&#45;&gt;Node24 -->
<g id="edge23" class="edge">
<title>Node1&#45;&gt;Node24</title>
<path fill="none" stroke="midnightblue" d="M2131.1,-289.18C2264.08,-289.86 2879.34,-290.23 3380,-244 3381.3,-243.88 3382.61,-243.75 3383.93,-243.61"/>
<polygon fill="midnightblue" stroke="midnightblue" points="3384.68,-247.05 3394.2,-242.42 3383.86,-240.1 3384.68,-247.05"/>
</g>
<!-- Node25 -->
<g id="node24" class="node">
<title>Node25</title>
<g id="a_node24"><a xlink:href="exception-private_8h.html" target="_top" xlink:title=" ">
<polygon fill="white" stroke="black" points="1330.5,-224.5 1330.5,-243.5 1481.5,-243.5 1481.5,-224.5 1330.5,-224.5"/>
<text text-anchor="middle" x="1406" y="-231.5" font-family="FreeSans" font-size="10.00">magick/exception&#45;private.h</text>
</a>
</g>
</g>
<!-- Node1&#45;&gt;Node25 -->
<g id="edge24" class="edge">
<title>Node1&#45;&gt;Node25</title>
<path fill="none" stroke="midnightblue" d="M2078.85,-287.14C1995.6,-281.18 1729.29,-261.94 1509,-244 1503.47,-243.55 1497.76,-243.08 1492.02,-242.59"/>
<polygon fill="midnightblue" stroke="midnightblue" points="1491.91,-239.07 1481.65,-241.71 1491.32,-246.05 1491.91,-239.07"/>
</g>
<!-- Node30 -->
<g id="node28" class="node">
<title>Node30</title>
<g id="a_node28"><a xlink:href="string___8h.html" target="_top" xlink:title=" ">
<polygon fill="white" stroke="red" points="1474,-112.5 1474,-131.5 1572,-131.5 1572,-112.5 1474,-112.5"/>
<text text-anchor="middle" x="1523" y="-119.5" font-family="FreeSans" font-size="10.00">magick/string_.h</text>
</a>
</g>
</g>
<!-- Node1&#45;&gt;Node30 -->
<g id="edge67" class="edge">
<title>Node1&#45;&gt;Node30</title>
<path fill="none" stroke="midnightblue" d="M2078.83,-287.96C1978.83,-283.44 1622.48,-262.3 1543,-188 1530.34,-176.17 1525.62,-156.54 1523.9,-141.94"/>
<polygon fill="midnightblue" stroke="midnightblue" points="1527.36,-141.25 1523.07,-131.56 1520.38,-141.81 1527.36,-141.25"/>
</g>
<!-- Node31 -->
<g id="node29" class="node">
<title>Node31</title>
<g id="a_node29"><a xlink:href="image_8h.html" target="_top" xlink:title=" ">
<polygon fill="white" stroke="black" points="2223.5,-224.5 2223.5,-243.5 2318.5,-243.5 2318.5,-224.5 2223.5,-224.5"/>
<text text-anchor="middle" x="2271" y="-231.5" font-family="FreeSans" font-size="10.00">magick/image.h</text>
</a>
</g>
</g>
<!-- Node1&#45;&gt;Node31 -->
<g id="edge33" class="edge">
<title>Node1&#45;&gt;Node31</title>
<path fill="none" stroke="midnightblue" d="M2131.3,-280.44C2159.35,-271.32 2203.94,-256.81 2235.18,-246.65"/>
<polygon fill="midnightblue" stroke="midnightblue" points="2236.39,-249.94 2244.82,-243.52 2234.23,-243.28 2236.39,-249.94"/>
</g>
<!-- Node54 -->
<g id="node48" class="node">
<title>Node54</title>
<g id="a_node48"><a xlink:href="module_8h.html" target="_top" xlink:title=" ">
<polygon fill="white" stroke="red" points="1789.5,-224.5 1789.5,-243.5 1890.5,-243.5 1890.5,-224.5 1789.5,-224.5"/>
<text text-anchor="middle" x="1840" y="-231.5" font-family="FreeSans" font-size="10.00">magick/module.h</text>
</a>
</g>
</g>
<!-- Node1&#45;&gt;Node54 -->
<g id="edge62" class="edge">
<title>Node1&#45;&gt;Node54</title>
<path fill="none" stroke="midnightblue" d="M2078.62,-283.62C2035.24,-274.78 1948.06,-257.02 1891.94,-245.58"/>
<polygon fill="midnightblue" stroke="midnightblue" points="1892.34,-242.09 1881.84,-243.53 1890.94,-248.95 1892.34,-242.09"/>
</g>
<!-- Node56 -->
<g id="node49" class="node">
<title>Node56</title>
<g id="a_node49"><a xlink:href="policy_8h.html" target="_top" xlink:title=" ">
<polygon fill="white" stroke="red" points="3180,-112.5 3180,-131.5 3272,-131.5 3272,-112.5 3180,-112.5"/>
<text text-anchor="middle" x="3226" y="-119.5" font-family="FreeSans" font-size="10.00">magick/policy.h</text>
</a>
</g>
</g>
<!-- Node1&#45;&gt;Node56 -->
<g id="edge64" class="edge">
<title>Node1&#45;&gt;Node56</title>
<path fill="none" stroke="midnightblue" d="M2131.02,-288.9C2300.31,-288.02 3241.19,-279.03 3325,-188 3346.51,-164.63 3306.01,-145.8 3270.51,-134.53"/>
<polygon fill="midnightblue" stroke="midnightblue" points="3271.27,-131.11 3260.68,-131.56 3269.24,-137.81 3271.27,-131.11"/>
</g>
<!-- Node57 -->
<g id="node50" class="node">
<title>Node57</title>
<g id="a_node50"><a xlink:href="static_8h.html" target="_top" xlink:title=" ">
<polygon fill="white" stroke="black" points="3504,-224.5 3504,-243.5 3596,-243.5 3596,-224.5 3504,-224.5"/>
<text text-anchor="middle" x="3550" y="-231.5" font-family="FreeSans" font-size="10.00">magick/static.h</text>
</a>
</g>
</g>
<!-- Node1&#45;&gt;Node57 -->
<g id="edge66" class="edge">
<title>Node1&#45;&gt;Node57</title>
<path fill="none" stroke="midnightblue" d="M2131.2,-288.62C2296.23,-286.14 3194.39,-271.59 3493.46,-243.99"/>
<polygon fill="midnightblue" stroke="midnightblue" points="3494.22,-247.43 3503.84,-243 3493.56,-240.46 3494.22,-247.43"/>
</g>
<!-- Node3 -->
<g id="node3" class="node">
<title>Node3</title>
<g id="a_node3"><a xlink:href="magick-config_8h.html" target="_top" xlink:title=" ">
<polygon fill="white" stroke="red" points="760,-0.5 760,-19.5 894,-19.5 894,-0.5 760,-0.5"/>
<text text-anchor="middle" x="827" y="-7.5" font-family="FreeSans" font-size="10.00">magick/magick&#45;config.h</text>
</a>
</g>
</g>
<!-- Node2&#45;&gt;Node3 -->
<g id="edge2" class="edge">
<title>Node2&#45;&gt;Node3</title>
<path fill="none" stroke="midnightblue" d="M917.31,-112.37C900.99,-94.05 862.68,-51.05 841.58,-27.36"/>
<polygon fill="midnightblue" stroke="midnightblue" points="843.92,-24.73 834.65,-19.59 838.69,-29.39 843.92,-24.73"/>
</g>
<!-- Node5 -->
<g id="node4" class="node">
<title>Node5</title>
<g id="a_node4"><a xlink:title=" ">
<polygon fill="white" stroke="#bfbfbf" points="1460,-56.5 1460,-75.5 1516,-75.5 1516,-56.5 1460,-56.5"/>
<text text-anchor="middle" x="1488" y="-63.5" font-family="FreeSans" font-size="10.00">stdarg.h</text>
</a>
</g>
</g>
<!-- Node2&#45;&gt;Node5 -->
<g id="edge3" class="edge">
<title>Node2&#45;&gt;Node5</title>
<path fill="none" stroke="midnightblue" d="M972.81,-119.36C1063.89,-115.71 1268.63,-104.96 1449.83,-75.95"/>
<polygon fill="midnightblue" stroke="midnightblue" points="1450.5,-79.39 1459.81,-74.33 1449.38,-72.48 1450.5,-79.39"/>
</g>
<!-- Node6 -->
<g id="node5" class="node">
<title>Node6</title>
<g id="a_node5"><a xlink:title=" ">
<polygon fill="white" stroke="#bfbfbf" points="900,-56.5 900,-75.5 950,-75.5 950,-56.5 900,-56.5"/>
<text text-anchor="middle" x="925" y="-63.5" font-family="FreeSans" font-size="10.00">stdio.h</text>
</a>
</g>
</g>
<!-- Node2&#45;&gt;Node6 -->
<g id="edge4" class="edge">
<title>Node2&#45;&gt;Node6</title>
<path fill="none" stroke="midnightblue" d="M925,-112.08C925,-105.01 925,-94.86 925,-85.99"/>
<polygon fill="midnightblue" stroke="midnightblue" points="928.5,-85.75 925,-75.75 921.5,-85.75 928.5,-85.75"/>
</g>
<!-- Node7 -->
<g id="node6" class="node">
<title>Node7</title>
<g id="a_node6"><a xlink:title=" ">
<polygon fill="white" stroke="#bfbfbf" points="968.5,-56.5 968.5,-75.5 1021.5,-75.5 1021.5,-56.5 968.5,-56.5"/>
<text text-anchor="middle" x="995" y="-63.5" font-family="FreeSans" font-size="10.00">ctype.h</text>
</a>
</g>
</g>
<!-- Node2&#45;&gt;Node7 -->
<g id="edge5" class="edge">
<title>Node2&#45;&gt;Node7</title>
<path fill="none" stroke="midnightblue" d="M936.25,-112.32C946.8,-104.18 962.8,-91.84 975.44,-82.09"/>
<polygon fill="midnightblue" stroke="midnightblue" points="977.77,-84.71 983.55,-75.83 973.49,-79.17 977.77,-84.71"/>
</g>
<!-- Node8 -->
<g id="node7" class="node">
<title>Node8</title>
<g id="a_node7"><a xlink:title=" ">
<polygon fill="white" stroke="#bfbfbf" points="1039.5,-56.5 1039.5,-75.5 1094.5,-75.5 1094.5,-56.5 1039.5,-56.5"/>
<text text-anchor="middle" x="1067" y="-63.5" font-family="FreeSans" font-size="10.00">locale.h</text>
</a>
</g>
</g>
<!-- Node2&#45;&gt;Node8 -->
<g id="edge6" class="edge">
<title>Node2&#45;&gt;Node8</title>
<path fill="none" stroke="midnightblue" d="M947.5,-112.44C971.08,-103.48 1008.32,-89.31 1034.96,-79.18"/>
<polygon fill="midnightblue" stroke="midnightblue" points="1036.5,-82.34 1044.6,-75.52 1034.01,-75.8 1036.5,-82.34"/>
</g>
<!-- Node9 -->
<g id="node8" class="node">
<title>Node9</title>
<g id="a_node8"><a xlink:title=" ">
<polygon fill="white" stroke="#bfbfbf" points="1112.5,-56.5 1112.5,-75.5 1163.5,-75.5 1163.5,-56.5 1112.5,-56.5"/>
<text text-anchor="middle" x="1138" y="-63.5" font-family="FreeSans" font-size="10.00">errno.h</text>
</a>
</g>
</g>
<!-- Node2&#45;&gt;Node9 -->
<g id="edge7" class="edge">
<title>Node2&#45;&gt;Node9</title>
<path fill="none" stroke="midnightblue" d="M958.8,-112.5C992.66,-103.97 1046.51,-90.39 1102.63,-76.09"/>
<polygon fill="midnightblue" stroke="midnightblue" points="1103.56,-79.46 1112.39,-73.6 1101.83,-72.68 1103.56,-79.46"/>
</g>
<!-- Node10 -->
<g id="node9" class="node">
<title>Node10</title>
<g id="a_node9"><a xlink:title=" ">
<polygon fill="white" stroke="#bfbfbf" points="1181.5,-56.5 1181.5,-75.5 1228.5,-75.5 1228.5,-56.5 1181.5,-56.5"/>
<text text-anchor="middle" x="1205" y="-63.5" font-family="FreeSans" font-size="10.00">fcntl.h</text>
</a>
</g>
</g>
<!-- Node2&#45;&gt;Node10 -->
<g id="edge8" class="edge">
<title>Node2&#45;&gt;Node10</title>
<path fill="none" stroke="midnightblue" d="M972.6,-113.58C1020.37,-105.85 1096.27,-92.81 1171.19,-76.02"/>
<polygon fill="midnightblue" stroke="midnightblue" points="1172.29,-79.36 1181.27,-73.73 1170.74,-72.53 1172.29,-79.36"/>
</g>
<!-- Node11 -->
<g id="node10" class="node">
<title>Node11</title>
<g id="a_node10"><a xlink:title=" ">
<polygon fill="white" stroke="#bfbfbf" points="1246.5,-56.5 1246.5,-75.5 1297.5,-75.5 1297.5,-56.5 1246.5,-56.5"/>
<text text-anchor="middle" x="1272" y="-63.5" font-family="FreeSans" font-size="10.00">math.h</text>
</a>
</g>
</g>
<!-- Node2&#45;&gt;Node11 -->
<g id="edge9" class="edge">
<title>Node2&#45;&gt;Node11</title>
<path fill="none" stroke="midnightblue" d="M972.58,-115.76C1032.02,-108.87 1136.99,-95.5 1236.53,-75.89"/>
<polygon fill="midnightblue" stroke="midnightblue" points="1237.34,-79.3 1246.46,-73.91 1235.97,-72.43 1237.34,-79.3"/>
</g>
<!-- Node12 -->
<g id="node11" class="node">
<title>Node12</title>
<g id="a_node11"><a xlink:title=" ">
<polygon fill="white" stroke="#bfbfbf" points="1534,-56.5 1534,-75.5 1582,-75.5 1582,-56.5 1534,-56.5"/>
<text text-anchor="middle" x="1558" y="-63.5" font-family="FreeSans" font-size="10.00">time.h</text>
</a>
</g>
</g>
<!-- Node2&#45;&gt;Node12 -->
<g id="edge10" class="edge">
<title>Node2&#45;&gt;Node12</title>
<path fill="none" stroke="midnightblue" d="M972.82,-120.51C1073.37,-118.81 1314.01,-111.26 1523.99,-75.83"/>
<polygon fill="midnightblue" stroke="midnightblue" points="1524.7,-79.26 1533.97,-74.13 1523.52,-72.36 1524.7,-79.26"/>
</g>
<!-- Node13 -->
<g id="node12" class="node">
<title>Node13</title>
<g id="a_node12"><a xlink:title=" ">
<polygon fill="white" stroke="#bfbfbf" points="1315.5,-56.5 1315.5,-75.5 1368.5,-75.5 1368.5,-56.5 1315.5,-56.5"/>
<text text-anchor="middle" x="1342" y="-63.5" font-family="FreeSans" font-size="10.00">limits.h</text>
</a>
</g>
</g>
<!-- Node2&#45;&gt;Node13 -->
<g id="edge11" class="edge">
<title>Node2&#45;&gt;Node13</title>
<path fill="none" stroke="midnightblue" d="M972.51,-117.35C1042.98,-111.5 1179.49,-98.53 1305.16,-75.92"/>
<polygon fill="midnightblue" stroke="midnightblue" points="1306.14,-79.3 1315.35,-74.07 1304.88,-72.42 1306.14,-79.3"/>
</g>
<!-- Node14 -->
<g id="node13" class="node">
<title>Node14</title>
<g id="a_node13"><a xlink:title=" ">
<polygon fill="white" stroke="#bfbfbf" points="1386.5,-56.5 1386.5,-75.5 1441.5,-75.5 1441.5,-56.5 1386.5,-56.5"/>
<text text-anchor="middle" x="1414" y="-63.5" font-family="FreeSans" font-size="10.00">signal.h</text>
</a>
</g>
</g>
<!-- Node2&#45;&gt;Node14 -->
<g id="edge12" class="edge">
<title>Node2&#45;&gt;Node14</title>
<path fill="none" stroke="midnightblue" d="M972.8,-118.44C1053.81,-113.62 1223.37,-101.46 1376.17,-75.9"/>
<polygon fill="midnightblue" stroke="midnightblue" points="1376.93,-79.32 1386.21,-74.2 1375.76,-72.42 1376.93,-79.32"/>
</g>
<!-- Node15 -->
<g id="node14" class="node">
<title>Node15</title>
<g id="a_node14"><a xlink:title=" ">
<polygon fill="white" stroke="#bfbfbf" points="0,-56.5 0,-75.5 56,-75.5 56,-56.5 0,-56.5"/>
<text text-anchor="middle" x="28" y="-63.5" font-family="FreeSans" font-size="10.00">assert.h</text>
</a>
</g>
</g>
<!-- Node2&#45;&gt;Node15 -->
<g id="edge13" class="edge">
<title>Node2&#45;&gt;Node15</title>
<path fill="none" stroke="midnightblue" d="M877.15,-121.61C747.72,-122.59 379.97,-121 66.37,-75.91"/>
<polygon fill="midnightblue" stroke="midnightblue" points="66.58,-72.4 56.18,-74.43 65.57,-79.33 66.58,-72.4"/>
</g>
<!-- Node16 -->
<g id="node15" class="node">
<title>Node16</title>
<g id="a_node15"><a xlink:href="method-attribute_8h.html" target="_top" xlink:title=" ">
<polygon fill="white" stroke="black" points="74,-56.5 74,-75.5 222,-75.5 222,-56.5 74,-56.5"/>
<text text-anchor="middle" x="148" y="-63.5" font-family="FreeSans" font-size="10.00">magick/method&#45;attribute.h</text>
</a>
</g>
</g>
<!-- Node2&#45;&gt;Node16 -->
<g id="edge14" class="edge">
<title>Node2&#45;&gt;Node16</title>
<path fill="none" stroke="midnightblue" d="M877.41,-118.63C766.37,-112.93 481.33,-97.43 232.16,-76.07"/>
<polygon fill="midnightblue" stroke="midnightblue" points="232.46,-72.58 222.2,-75.21 231.86,-79.55 232.46,-72.58"/>
</g>
<!-- Node17 -->
<g id="node16" class="node">
<title>Node17</title>
<g id="a_node16"><a xlink:title=" ">
<polygon fill="white" stroke="#bfbfbf" points="240,-56.5 240,-75.5 312,-75.5 312,-56.5 240,-56.5"/>
<text text-anchor="middle" x="276" y="-63.5" font-family="FreeSans" font-size="10.00">sys/types.h</text>
</a>
</g>
</g>
<!-- Node2&#45;&gt;Node17 -->
<g id="edge15" class="edge">
<title>Node2&#45;&gt;Node17</title>
<path fill="none" stroke="midnightblue" d="M877.42,-119.45C776.76,-115.73 534.74,-104.53 322.37,-76.03"/>
<polygon fill="midnightblue" stroke="midnightblue" points="322.66,-72.53 312.28,-74.66 321.72,-79.47 322.66,-72.53"/>
</g>
<!-- Node18 -->
<g id="node17" class="node">
<title>Node18</title>
<g id="a_node17"><a xlink:title=" ">
<polygon fill="white" stroke="#bfbfbf" points="330,-56.5 330,-75.5 394,-75.5 394,-56.5 330,-56.5"/>
<text text-anchor="middle" x="362" y="-63.5" font-family="FreeSans" font-size="10.00">sys/stat.h</text>
</a>
</g>
</g>
<!-- Node2&#45;&gt;Node18 -->
<g id="edge16" class="edge">
<title>Node2&#45;&gt;Node18</title>
<path fill="none" stroke="midnightblue" d="M877.25,-118.96C786.78,-114.66 584.05,-102.85 404.07,-75.97"/>
<polygon fill="midnightblue" stroke="midnightblue" points="404.57,-72.51 394.16,-74.47 403.52,-79.43 404.57,-72.51"/>
</g>
<!-- Node19 -->
<g id="node18" class="node">
<title>Node19</title>
<g id="a_node18"><a xlink:title=" ">
<polygon fill="white" stroke="#bfbfbf" points="412,-56.5 412,-75.5 466,-75.5 466,-56.5 412,-56.5"/>
<text text-anchor="middle" x="439" y="-63.5" font-family="FreeSans" font-size="10.00">dirent.h</text>
</a>
</g>
</g>
<!-- Node2&#45;&gt;Node19 -->
<g id="edge17" class="edge">
<title>Node2&#45;&gt;Node19</title>
<path fill="none" stroke="midnightblue" d="M877.4,-118.52C796.71,-113.82 627.88,-101.84 476.01,-75.93"/>
<polygon fill="midnightblue" stroke="midnightblue" points="476.49,-72.46 466.04,-74.21 475.29,-79.36 476.49,-72.46"/>
</g>
<!-- Node20 -->
<g id="node19" class="node">
<title>Node20</title>
<g id="a_node19"><a xlink:title=" ">
<polygon fill="white" stroke="#bfbfbf" points="484,-56.5 484,-75.5 550,-75.5 550,-56.5 484,-56.5"/>
<text text-anchor="middle" x="517" y="-63.5" font-family="FreeSans" font-size="10.00">sys/wait.h</text>
</a>
</g>
</g>
<!-- Node2&#45;&gt;Node20 -->
<g id="edge18" class="edge">
<title>Node2&#45;&gt;Node20</title>
<path fill="none" stroke="midnightblue" d="M877.43,-116.51C809.33,-109.79 679.96,-95.91 560.47,-76.12"/>
<polygon fill="midnightblue" stroke="midnightblue" points="560.86,-72.64 550.42,-74.44 559.7,-79.54 560.86,-72.64"/>
</g>
<!-- Node21 -->
<g id="node20" class="node">
<title>Node21</title>
<g id="a_node20"><a xlink:title=" ">
<polygon fill="white" stroke="#bfbfbf" points="568,-56.5 568,-75.5 614,-75.5 614,-56.5 568,-56.5"/>
<text text-anchor="middle" x="591" y="-63.5" font-family="FreeSans" font-size="10.00">pwd.h</text>
</a>
</g>
</g>
<!-- Node2&#45;&gt;Node21 -->
<g id="edge19" class="edge">
<title>Node2&#45;&gt;Node21</title>
<path fill="none" stroke="midnightblue" d="M877.33,-115.78C819.57,-109.05 719.18,-96 624.38,-76.07"/>
<polygon fill="midnightblue" stroke="midnightblue" points="624.84,-72.59 614.33,-73.93 623.38,-79.44 624.84,-72.59"/>
</g>
<!-- Node22 -->
<g id="node21" class="node">
<title>Node22</title>
<g id="a_node21"><a xlink:href="magick-type_8h.html" target="_top" xlink:title=" ">
<polygon fill="white" stroke="black" points="718,-56.5 718,-75.5 844,-75.5 844,-56.5 718,-56.5"/>
<text text-anchor="middle" x="781" y="-63.5" font-family="FreeSans" font-size="10.00">magick/magick&#45;type.h</text>
</a>
</g>
</g>
<!-- Node2&#45;&gt;Node22 -->
<g id="edge20" class="edge">
<title>Node2&#45;&gt;Node22</title>
<path fill="none" stroke="midnightblue" d="M902.18,-112.44C878.17,-103.44 840.17,-89.19 813.13,-79.05"/>
<polygon fill="midnightblue" stroke="midnightblue" points="814.3,-75.75 803.71,-75.52 811.84,-82.3 814.3,-75.75"/>
</g>
<!-- Node23 -->
<g id="node22" class="node">
<title>Node23</title>
<g id="a_node22"><a xlink:title=" ">
<polygon fill="white" stroke="#bfbfbf" points="632,-56.5 632,-75.5 700,-75.5 700,-56.5 632,-56.5"/>
<text text-anchor="middle" x="666" y="-63.5" font-family="FreeSans" font-size="10.00">sys/time.h</text>
</a>
</g>
</g>
<!-- Node2&#45;&gt;Node23 -->
<g id="edge22" class="edge">
<title>Node2&#45;&gt;Node23</title>
<path fill="none" stroke="midnightblue" d="M883.99,-112.47C842.58,-103.85 776.49,-90.09 710.07,-76.22"/>
<polygon fill="midnightblue" stroke="midnightblue" points="710.77,-72.79 700.27,-74.18 709.34,-79.65 710.77,-72.79"/>
</g>
<!-- Node22&#45;&gt;Node3 -->
<g id="edge21" class="edge">
<title>Node22&#45;&gt;Node3</title>
<path fill="none" stroke="midnightblue" d="M788.6,-56.08C795.23,-48.3 805.02,-36.8 813.06,-27.37"/>
<polygon fill="midnightblue" stroke="midnightblue" points="815.73,-29.63 819.55,-19.75 810.4,-25.09 815.73,-29.63"/>
</g>
<!-- Node26 -->
<g id="node25" class="node">
<title>Node26</title>
<g id="a_node25"><a xlink:href="log_8h.html" target="_top" xlink:title=" ">
<polygon fill="white" stroke="red" points="1312,-112.5 1312,-131.5 1392,-131.5 1392,-112.5 1312,-112.5"/>
<text text-anchor="middle" x="1352" y="-119.5" font-family="FreeSans" font-size="10.00">magick/log.h</text>
</a>
</g>
</g>
<!-- Node25&#45;&gt;Node26 -->
<g id="edge25" class="edge">
<title>Node25&#45;&gt;Node26</title>
<path fill="none" stroke="midnightblue" d="M1388.8,-224.39C1375.75,-216.79 1358.77,-204.39 1351,-188 1344.13,-173.5 1345.2,-155.05 1347.51,-141.52"/>
<polygon fill="midnightblue" stroke="midnightblue" points="1350.98,-142 1349.59,-131.5 1344.13,-140.58 1350.98,-142"/>
</g>
<!-- Node29 -->
<g id="node26" class="node">
<title>Node29</title>
<g id="a_node26"><a xlink:href="magick_8h.html" target="_top" xlink:title=" ">
<polygon fill="white" stroke="black" points="1393.5,-168.5 1393.5,-187.5 1494.5,-187.5 1494.5,-168.5 1393.5,-168.5"/>
<text text-anchor="middle" x="1444" y="-175.5" font-family="FreeSans" font-size="10.00">magick/magick.h</text>
</a>
</g>
</g>
<!-- Node25&#45;&gt;Node29 -->
<g id="edge27" class="edge">
<title>Node25&#45;&gt;Node29</title>
<path fill="none" stroke="midnightblue" d="M1412.27,-224.08C1417.64,-216.46 1425.52,-205.26 1432.08,-195.94"/>
<polygon fill="midnightblue" stroke="midnightblue" points="1434.95,-197.94 1437.84,-187.75 1429.22,-193.91 1434.95,-197.94"/>
</g>
<!-- Node25&#45;&gt;Node30 -->
<g id="edge30" class="edge">
<title>Node25&#45;&gt;Node30</title>
<path fill="none" stroke="midnightblue" d="M1398.35,-224.24C1387.75,-210.99 1371.25,-185.53 1384,-168 1402.22,-142.95 1434.68,-131.56 1463.65,-126.5"/>
<polygon fill="midnightblue" stroke="midnightblue" points="1464.37,-129.93 1473.73,-124.96 1463.31,-123.01 1464.37,-129.93"/>
</g>
<!-- Node26&#45;&gt;Node5 -->
<g id="edge26" class="edge">
<title>Node26&#45;&gt;Node5</title>
<path fill="none" stroke="midnightblue" d="M1373.55,-112.44C1396.03,-103.52 1431.49,-89.44 1456.98,-79.32"/>
<polygon fill="midnightblue" stroke="midnightblue" points="1458.55,-82.46 1466.55,-75.52 1455.97,-75.95 1458.55,-82.46"/>
</g>
<!-- Node29&#45;&gt;Node5 -->
<g id="edge28" class="edge">
<title>Node29&#45;&gt;Node5</title>
<path fill="none" stroke="midnightblue" d="M1446.29,-168.43C1449.77,-155.85 1456.84,-131.72 1465,-112 1468.82,-102.78 1473.78,-92.87 1478.12,-84.7"/>
<polygon fill="midnightblue" stroke="midnightblue" points="1481.28,-86.22 1482.99,-75.77 1475.13,-82.88 1481.28,-86.22"/>
</g>
<!-- Node28 -->
<g id="node27" class="node">
<title>Node28</title>
<g id="a_node27"><a xlink:href="semaphore_8h.html" target="_top" xlink:title=" ">
<polygon fill="white" stroke="black" points="1703.5,-112.5 1703.5,-131.5 1822.5,-131.5 1822.5,-112.5 1703.5,-112.5"/>
<text text-anchor="middle" x="1763" y="-119.5" font-family="FreeSans" font-size="10.00">magick/semaphore.h</text>
</a>
</g>
</g>
<!-- Node29&#45;&gt;Node28 -->
<g id="edge29" class="edge">
<title>Node29&#45;&gt;Node28</title>
<path fill="none" stroke="midnightblue" d="M1494.55,-168.44C1551.01,-158.89 1642.37,-143.42 1702.57,-133.23"/>
<polygon fill="midnightblue" stroke="midnightblue" points="1703.41,-136.64 1712.69,-131.52 1702.25,-129.73 1703.41,-136.64"/>
</g>
<!-- Node30&#45;&gt;Node5 -->
<g id="edge31" class="edge">
<title>Node30&#45;&gt;Node5</title>
<path fill="none" stroke="midnightblue" d="M1517.22,-112.08C1512.33,-104.53 1505.17,-93.49 1499.17,-84.23"/>
<polygon fill="midnightblue" stroke="midnightblue" points="1502.05,-82.24 1493.67,-75.75 1496.17,-86.05 1502.05,-82.24"/>
</g>
<!-- Node30&#45;&gt;Node12 -->
<g id="edge32" class="edge">
<title>Node30&#45;&gt;Node12</title>
<path fill="none" stroke="midnightblue" d="M1528.78,-112.08C1533.67,-104.53 1540.83,-93.49 1546.83,-84.23"/>
<polygon fill="midnightblue" stroke="midnightblue" points="1549.83,-86.05 1552.33,-75.75 1543.95,-82.24 1549.83,-86.05"/>
</g>
<!-- Node31&#45;&gt;Node28 -->
<g id="edge59" class="edge">
<title>Node31&#45;&gt;Node28</title>
<path fill="none" stroke="midnightblue" d="M2223.39,-232.62C2097.81,-231.13 1764.94,-223.81 1732,-188 1718.86,-173.72 1733.06,-152.85 1746.27,-138.64"/>
<polygon fill="midnightblue" stroke="midnightblue" points="1748.78,-141.08 1753.33,-131.52 1743.8,-136.16 1748.78,-141.08"/>
</g>
<!-- Node32 -->
<g id="node30" class="node">
<title>Node32</title>
<g id="a_node30"><a xlink:href="color_8h.html" target="_top" xlink:title=" ">
<polygon fill="white" stroke="red" points="2109,-112.5 2109,-131.5 2197,-131.5 2197,-112.5 2109,-112.5"/>
<text text-anchor="middle" x="2153" y="-119.5" font-family="FreeSans" font-size="10.00">magick/color.h</text>
</a>
</g>
</g>
<!-- Node31&#45;&gt;Node32 -->
<g id="edge34" class="edge">
<title>Node31&#45;&gt;Node32</title>
<path fill="none" stroke="midnightblue" d="M2223.46,-230.36C2193.65,-225.95 2157.32,-214.94 2138,-188 2128.02,-174.08 2134.57,-154.56 2141.89,-140.54"/>
<polygon fill="midnightblue" stroke="midnightblue" points="2144.93,-142.27 2146.88,-131.86 2138.87,-138.78 2144.93,-142.27"/>
</g>
<!-- Node33 -->
<g id="node31" class="node">
<title>Node33</title>
<g id="a_node31"><a xlink:href="pixel_8h.html" target="_top" xlink:title=" ">
<polygon fill="white" stroke="red" points="2037,-56.5 2037,-75.5 2125,-75.5 2125,-56.5 2037,-56.5"/>
<text text-anchor="middle" x="2081" y="-63.5" font-family="FreeSans" font-size="10.00">magick/pixel.h</text>
</a>
</g>
</g>
<!-- Node31&#45;&gt;Node33 -->
<g id="edge50" class="edge">
<title>Node31&#45;&gt;Node33</title>
<path fill="none" stroke="midnightblue" d="M2223.28,-227.62C2193.04,-222.06 2154.74,-210.8 2128,-188 2097.09,-161.64 2086.41,-112.42 2082.79,-85.59"/>
<polygon fill="midnightblue" stroke="midnightblue" points="2086.26,-85.13 2081.64,-75.6 2079.31,-85.93 2086.26,-85.13"/>
</g>
<!-- Node34 -->
<g id="node32" class="node">
<title>Node34</title>
<g id="a_node32"><a xlink:href="colorspace_8h.html" target="_top" xlink:title=" ">
<polygon fill="white" stroke="black" points="1920.5,-0.5 1920.5,-19.5 2037.5,-19.5 2037.5,-0.5 1920.5,-0.5"/>
<text text-anchor="middle" x="1979" y="-7.5" font-family="FreeSans" font-size="10.00">magick/colorspace.h</text>
</a>
</g>
</g>
<!-- Node31&#45;&gt;Node34 -->
<g id="edge40" class="edge">
<title>Node31&#45;&gt;Node34</title>
<path fill="none" stroke="midnightblue" d="M2223.48,-230.76C2127.41,-225.75 1917.4,-212.13 1896,-188 1851.58,-137.94 1924.84,-59.98 1960.84,-26.8"/>
<polygon fill="midnightblue" stroke="midnightblue" points="1963.61,-29.02 1968.7,-19.73 1958.93,-23.82 1963.61,-29.02"/>
</g>
<!-- Node36 -->
<g id="node33" class="node">
<title>Node36</title>
<g id="a_node33"><a xlink:href="blob_8h.html" target="_top" xlink:title=" ">
<polygon fill="white" stroke="black" points="2649,-168.5 2649,-187.5 2735,-187.5 2735,-168.5 2649,-168.5"/>
<text text-anchor="middle" x="2692" y="-175.5" font-family="FreeSans" font-size="10.00">magick/blob.h</text>
</a>
</g>
</g>
<!-- Node31&#45;&gt;Node36 -->
<g id="edge37" class="edge">
<title>Node31&#45;&gt;Node36</title>
<path fill="none" stroke="midnightblue" d="M2318.77,-227.28C2387.86,-219.45 2519.27,-204.47 2631,-188 2633.5,-187.63 2636.06,-187.24 2638.66,-186.83"/>
<polygon fill="midnightblue" stroke="midnightblue" points="2639.45,-190.25 2648.77,-185.2 2638.34,-183.34 2639.45,-190.25"/>
</g>
<!-- Node37 -->
<g id="node34" class="node">
<title>Node37</title>
<g id="a_node34"><a xlink:href="stream_8h.html" target="_top" xlink:title=" ">
<polygon fill="white" stroke="black" points="2782.5,-112.5 2782.5,-131.5 2881.5,-131.5 2881.5,-112.5 2782.5,-112.5"/>
<text text-anchor="middle" x="2832" y="-119.5" font-family="FreeSans" font-size="10.00">magick/stream.h</text>
</a>
</g>
</g>
<!-- Node31&#45;&gt;Node37 -->
<g id="edge60" class="edge">
<title>Node31&#45;&gt;Node37</title>
<path fill="none" stroke="midnightblue" d="M2318.56,-232.75C2517.51,-231.46 3274.34,-224.19 3309,-188 3315.15,-181.58 3314.98,-174.57 3309,-168 3281.43,-137.7 3013.8,-127.39 2891.92,-124.24"/>
<polygon fill="midnightblue" stroke="midnightblue" points="2891.73,-120.73 2881.65,-123.98 2891.56,-127.73 2891.73,-120.73"/>
</g>
<!-- Node38 -->
<g id="node35" class="node">
<title>Node38</title>
<g id="a_node35"><a xlink:href="cache-view_8h.html" target="_top" xlink:title=" ">
<polygon fill="white" stroke="black" points="1933.5,-112.5 1933.5,-131.5 2052.5,-131.5 2052.5,-112.5 1933.5,-112.5"/>
<text text-anchor="middle" x="1993" y="-119.5" font-family="FreeSans" font-size="10.00">magick/cache&#45;view.h</text>
</a>
</g>
</g>
<!-- Node31&#45;&gt;Node38 -->
<g id="edge41" class="edge">
<title>Node31&#45;&gt;Node38</title>
<path fill="none" stroke="midnightblue" d="M2223.38,-229.28C2180.53,-224.4 2116.82,-213.24 2067,-188 2043.06,-175.87 2020.66,-154.19 2006.91,-139.22"/>
<polygon fill="midnightblue" stroke="midnightblue" points="2009.48,-136.83 2000.21,-131.7 2004.25,-141.49 2009.48,-136.83"/>
</g>
<!-- Node39 -->
<g id="node36" class="node">
<title>Node39</title>
<g id="a_node36"><a xlink:href="composite_8h.html" target="_top" xlink:title=" ">
<polygon fill="white" stroke="black" points="2147,-168.5 2147,-187.5 2263,-187.5 2263,-168.5 2147,-168.5"/>
<text text-anchor="middle" x="2205" y="-175.5" font-family="FreeSans" font-size="10.00">magick/composite.h</text>
</a>
</g>
</g>
<!-- Node31&#45;&gt;Node39 -->
<g id="edge43" class="edge">
<title>Node31&#45;&gt;Node39</title>
<path fill="none" stroke="midnightblue" d="M2260.4,-224.32C2250.54,-216.26 2235.65,-204.08 2223.78,-194.37"/>
<polygon fill="midnightblue" stroke="midnightblue" points="2225.75,-191.46 2215.8,-187.83 2221.32,-196.88 2225.75,-191.46"/>
</g>
<!-- Node40 -->
<g id="node37" class="node">
<title>Node40</title>
<g id="a_node37"><a xlink:href="compress_8h.html" target="_top" xlink:title=" ">
<polygon fill="white" stroke="black" points="2281,-168.5 2281,-187.5 2393,-187.5 2393,-168.5 2281,-168.5"/>
<text text-anchor="middle" x="2337" y="-175.5" font-family="FreeSans" font-size="10.00">magick/compress.h</text>
</a>
</g>
</g>
<!-- Node31&#45;&gt;Node40 -->
<g id="edge44" class="edge">
<title>Node31&#45;&gt;Node40</title>
<path fill="none" stroke="midnightblue" d="M2281.6,-224.32C2291.46,-216.26 2306.35,-204.08 2318.22,-194.37"/>
<polygon fill="midnightblue" stroke="midnightblue" points="2320.68,-196.88 2326.2,-187.83 2316.25,-191.46 2320.68,-196.88"/>
</g>
<!-- Node41 -->
<g id="node38" class="node">
<title>Node41</title>
<g id="a_node38"><a xlink:href="effect_8h.html" target="_top" xlink:title=" ">
<polygon fill="white" stroke="red" points="2411,-168.5 2411,-187.5 2503,-187.5 2503,-168.5 2411,-168.5"/>
<text text-anchor="middle" x="2457" y="-175.5" font-family="FreeSans" font-size="10.00">magick/effect.h</text>
</a>
</g>
</g>
<!-- Node31&#45;&gt;Node41 -->
<g id="edge45" class="edge">
<title>Node31&#45;&gt;Node41</title>
<path fill="none" stroke="midnightblue" d="M2300.47,-224.44C2332.17,-215.24 2382.73,-200.56 2417.77,-190.39"/>
<polygon fill="midnightblue" stroke="midnightblue" points="2419.04,-193.67 2427.67,-187.52 2417.09,-186.94 2419.04,-193.67"/>
</g>
<!-- Node43 -->
<g id="node39" class="node">
<title>Node43</title>
<g id="a_node39"><a xlink:href="geometry_8h.html" target="_top" xlink:title=" ">
<polygon fill="white" stroke="black" points="2521,-168.5 2521,-187.5 2631,-187.5 2631,-168.5 2521,-168.5"/>
<text text-anchor="middle" x="2576" y="-175.5" font-family="FreeSans" font-size="10.00">magick/geometry.h</text>
</a>
</g>
</g>
<!-- Node31&#45;&gt;Node43 -->
<g id="edge46" class="edge">
<title>Node31&#45;&gt;Node43</title>
<path fill="none" stroke="midnightblue" d="M2318.66,-224.56C2372.47,-215.03 2460.05,-199.53 2517.85,-189.3"/>
<polygon fill="midnightblue" stroke="midnightblue" points="2518.69,-192.7 2527.92,-187.51 2517.47,-185.81 2518.69,-192.7"/>
</g>
<!-- Node44 -->
<g id="node40" class="node">
<title>Node44</title>
<g id="a_node40"><a xlink:href="layer_8h.html" target="_top" xlink:title=" ">
<polygon fill="white" stroke="black" points="2753.5,-168.5 2753.5,-187.5 2842.5,-187.5 2842.5,-168.5 2753.5,-168.5"/>
<text text-anchor="middle" x="2798" y="-175.5" font-family="FreeSans" font-size="10.00">magick/layer.h</text>
</a>
</g>
</g>
<!-- Node31&#45;&gt;Node44 -->
<g id="edge47" class="edge">
<title>Node31&#45;&gt;Node44</title>
<path fill="none" stroke="midnightblue" d="M2318.79,-229.57C2402.54,-223.32 2581.47,-208.87 2743.12,-188.03"/>
<polygon fill="midnightblue" stroke="midnightblue" points="2743.78,-191.47 2753.25,-186.71 2742.88,-184.53 2743.78,-191.47"/>
</g>
<!-- Node45 -->
<g id="node41" class="node">
<title>Node45</title>
<g id="a_node41"><a xlink:href="locale___8h.html" target="_top" xlink:title=" ">
<polygon fill="white" stroke="red" points="2860.5,-168.5 2860.5,-187.5 2959.5,-187.5 2959.5,-168.5 2860.5,-168.5"/>
<text text-anchor="middle" x="2910" y="-175.5" font-family="FreeSans" font-size="10.00">magick/locale_.h</text>
</a>
</g>
</g>
<!-- Node31&#45;&gt;Node45 -->
<g id="edge48" class="edge">
<title>Node31&#45;&gt;Node45</title>
<path fill="none" stroke="midnightblue" d="M2318.57,-230.55C2416.29,-225.26 2646.94,-211.39 2850.39,-188.11"/>
<polygon fill="midnightblue" stroke="midnightblue" points="2850.83,-191.58 2860.36,-186.96 2850.02,-184.63 2850.83,-191.58"/>
</g>
<!-- Node47 -->
<g id="node42" class="node">
<title>Node47</title>
<g id="a_node42"><a xlink:href="monitor_8h.html" target="_top" xlink:title=" ">
<polygon fill="white" stroke="black" points="2978,-168.5 2978,-187.5 3080,-187.5 3080,-168.5 2978,-168.5"/>
<text text-anchor="middle" x="3029" y="-175.5" font-family="FreeSans" font-size="10.00">magick/monitor.h</text>
</a>
</g>
</g>
<!-- Node31&#45;&gt;Node47 -->
<g id="edge49" class="edge">
<title>Node31&#45;&gt;Node47</title>
<path fill="none" stroke="midnightblue" d="M2318.51,-231.32C2430.03,-227.09 2717.39,-214.45 2967.95,-188.02"/>
<polygon fill="midnightblue" stroke="midnightblue" points="2968.4,-191.49 2977.97,-186.95 2967.66,-184.53 2968.4,-191.49"/>
</g>
<!-- Node48 -->
<g id="node43" class="node">
<title>Node48</title>
<g id="a_node43"><a xlink:href="profile_8h.html" target="_top" xlink:title=" ">
<polygon fill="white" stroke="black" points="1551.5,-168.5 1551.5,-187.5 1646.5,-187.5 1646.5,-168.5 1551.5,-168.5"/>
<text text-anchor="middle" x="1599" y="-175.5" font-family="FreeSans" font-size="10.00">magick/profile.h</text>
</a>
</g>
</g>
<!-- Node31&#45;&gt;Node48 -->
<g id="edge51" class="edge">
<title>Node31&#45;&gt;Node48</title>
<path fill="none" stroke="midnightblue" d="M2223.15,-229.42C2124.9,-222.02 1893.3,-204.39 1699,-188 1685.37,-186.85 1670.69,-185.56 1656.9,-184.32"/>
<polygon fill="midnightblue" stroke="midnightblue" points="1656.82,-180.8 1646.55,-183.39 1656.2,-187.77 1656.82,-180.8"/>
</g>
<!-- Node49 -->
<g id="node44" class="node">
<title>Node49</title>
<g id="a_node44"><a xlink:href="quantum_8h.html" target="_top" xlink:title=" ">
<polygon fill="white" stroke="red" points="1741,-168.5 1741,-187.5 1849,-187.5 1849,-168.5 1741,-168.5"/>
<text text-anchor="middle" x="1795" y="-175.5" font-family="FreeSans" font-size="10.00">magick/quantum.h</text>
</a>
</g>
</g>
<!-- Node31&#45;&gt;Node49 -->
<g id="edge53" class="edge">
<title>Node31&#45;&gt;Node49</title>
<path fill="none" stroke="midnightblue" d="M2223.27,-228.64C2147.43,-221.12 1995.03,-204.99 1859.48,-188.66"/>
<polygon fill="midnightblue" stroke="midnightblue" points="1859.69,-185.15 1849.34,-187.43 1858.85,-192.1 1859.69,-185.15"/>
</g>
<!-- Node51 -->
<g id="node45" class="node">
<title>Node51</title>
<g id="a_node45"><a xlink:href="resample_8h.html" target="_top" xlink:title=" ">
<polygon fill="white" stroke="black" points="1905,-168.5 1905,-187.5 2015,-187.5 2015,-168.5 1905,-168.5"/>
<text text-anchor="middle" x="1960" y="-175.5" font-family="FreeSans" font-size="10.00">magick/resample.h</text>
</a>
</g>
</g>
<!-- Node31&#45;&gt;Node51 -->
<g id="edge56" class="edge">
<title>Node31&#45;&gt;Node51</title>
<path fill="none" stroke="midnightblue" d="M2223.43,-224.74C2168.58,-215.22 2078.37,-199.55 2019.08,-189.26"/>
<polygon fill="midnightblue" stroke="midnightblue" points="2019.56,-185.79 2009.11,-187.53 2018.36,-192.69 2019.56,-185.79"/>
</g>
<!-- Node52 -->
<g id="node46" class="node">
<title>Node52</title>
<g id="a_node46"><a xlink:href="resize_8h.html" target="_top" xlink:title=" ">
<polygon fill="white" stroke="black" points="3098,-168.5 3098,-187.5 3192,-187.5 3192,-168.5 3098,-168.5"/>
<text text-anchor="middle" x="3145" y="-175.5" font-family="FreeSans" font-size="10.00">magick/resize.h</text>
</a>
</g>
</g>
<!-- Node31&#45;&gt;Node52 -->
<g id="edge58" class="edge">
<title>Node31&#45;&gt;Node52</title>
<path fill="none" stroke="midnightblue" d="M2318.63,-232.12C2443.26,-229.43 2789.44,-219.6 3087.85,-188"/>
<polygon fill="midnightblue" stroke="midnightblue" points="3088.42,-191.46 3097.99,-186.92 3087.68,-184.5 3088.42,-191.46"/>
</g>
<!-- Node53 -->
<g id="node47" class="node">
<title>Node53</title>
<g id="a_node47"><a xlink:href="timer_8h.html" target="_top" xlink:title=" ">
<polygon fill="white" stroke="black" points="3210,-168.5 3210,-187.5 3300,-187.5 3300,-168.5 3210,-168.5"/>
<text text-anchor="middle" x="3255" y="-175.5" font-family="FreeSans" font-size="10.00">magick/timer.h</text>
</a>
</g>
</g>
<!-- Node31&#45;&gt;Node53 -->
<g id="edge61" class="edge">
<title>Node31&#45;&gt;Node53</title>
<path fill="none" stroke="midnightblue" d="M2318.58,-232.66C2454.5,-231.26 2856.33,-224.22 3199.83,-187.99"/>
<polygon fill="midnightblue" stroke="midnightblue" points="3200.4,-191.45 3209.97,-186.91 3199.66,-184.49 3200.4,-191.45"/>
</g>
<!-- Node32&#45;&gt;Node33 -->
<g id="edge35" class="edge">
<title>Node32&#45;&gt;Node33</title>
<path fill="none" stroke="midnightblue" d="M2141.43,-112.32C2130.58,-104.18 2114.12,-91.84 2101.12,-82.09"/>
<polygon fill="midnightblue" stroke="midnightblue" points="2102.88,-79.03 2092.78,-75.83 2098.68,-84.63 2102.88,-79.03"/>
</g>
<!-- Node33&#45;&gt;Node34 -->
<g id="edge36" class="edge">
<title>Node33&#45;&gt;Node34</title>
<path fill="none" stroke="midnightblue" d="M2064.61,-56.32C2048.33,-47.7 2023.13,-34.36 2004.28,-24.39"/>
<polygon fill="midnightblue" stroke="midnightblue" points="2005.82,-21.24 1995.35,-19.65 2002.55,-27.43 2005.82,-21.24"/>
</g>
<!-- Node36&#45;&gt;Node31 -->
<g id="edge38" class="edge">
<title>Node36&#45;&gt;Node31</title>
<path fill="none" stroke="midnightblue" d="M2652.3,-187.51C2651.19,-187.67 2650.09,-187.84 2649,-188 2536.19,-204.63 2403.32,-219.74 2328.86,-227.51"/>
<polygon fill="midnightblue" stroke="midnightblue" points="2328.34,-224.04 2318.75,-228.55 2329.06,-231.01 2328.34,-224.04"/>
</g>
<!-- Node36&#45;&gt;Node37 -->
<g id="edge39" class="edge">
<title>Node36&#45;&gt;Node37</title>
<path fill="none" stroke="midnightblue" d="M2714.18,-168.44C2737.43,-159.48 2774.15,-145.31 2800.42,-135.18"/>
<polygon fill="midnightblue" stroke="midnightblue" points="2801.85,-138.38 2809.92,-131.52 2799.33,-131.85 2801.85,-138.38"/>
</g>
<!-- Node38&#45;&gt;Node33 -->
<g id="edge42" class="edge">
<title>Node38&#45;&gt;Node33</title>
<path fill="none" stroke="midnightblue" d="M2007.14,-112.32C2020.87,-103.9 2041.94,-90.97 2058.06,-81.07"/>
<polygon fill="midnightblue" stroke="midnightblue" points="2060.2,-83.87 2066.9,-75.65 2056.54,-77.9 2060.2,-83.87"/>
</g>
<!-- Node48&#45;&gt;Node30 -->
<g id="edge52" class="edge">
<title>Node48&#45;&gt;Node30</title>
<path fill="none" stroke="midnightblue" d="M1586.79,-168.32C1575.22,-160.11 1557.62,-147.6 1543.84,-137.81"/>
<polygon fill="midnightblue" stroke="midnightblue" points="1545.61,-134.77 1535.43,-131.83 1541.56,-140.48 1545.61,-134.77"/>
</g>
<!-- Node49&#45;&gt;Node28 -->
<g id="edge55" class="edge">
<title>Node49&#45;&gt;Node28</title>
<path fill="none" stroke="midnightblue" d="M1789.72,-168.08C1785.29,-160.61 1778.84,-149.72 1773.38,-140.52"/>
<polygon fill="midnightblue" stroke="midnightblue" points="1776.29,-138.57 1768.19,-131.75 1770.27,-142.14 1776.29,-138.57"/>
</g>
<!-- Node49&#45;&gt;Node31 -->
<g id="edge54" class="edge">
<title>Node49&#45;&gt;Node31</title>
<path fill="none" stroke="midnightblue" d="M1849.21,-185.14C1856.9,-186.12 1864.67,-187.11 1872,-188 1993.53,-202.74 2135.68,-217.96 2213.33,-226.38"/>
<polygon fill="midnightblue" stroke="midnightblue" points="2213.07,-229.87 2223.39,-227.47 2213.83,-222.91 2213.07,-229.87"/>
</g>
<!-- Node51&#45;&gt;Node38 -->
<g id="edge57" class="edge">
<title>Node51&#45;&gt;Node38</title>
<path fill="none" stroke="midnightblue" d="M1965.45,-168.08C1970.01,-160.61 1976.67,-149.72 1982.29,-140.52"/>
<polygon fill="midnightblue" stroke="midnightblue" points="1985.42,-142.11 1987.65,-131.75 1979.45,-138.46 1985.42,-142.11"/>
</g>
<!-- Node54&#45;&gt;Node12 -->
<g id="edge63" class="edge">
<title>Node54&#45;&gt;Node12</title>
<path fill="none" stroke="midnightblue" d="M1810.91,-224.35C1786.41,-216.51 1750.86,-203.77 1722,-188 1664.35,-156.5 1604.05,-107.05 1575.28,-82.25"/>
<polygon fill="midnightblue" stroke="midnightblue" points="1577.55,-79.59 1567.71,-75.67 1572.96,-84.87 1577.55,-79.59"/>
</g>
<!-- Node56&#45;&gt;Node33 -->
<g id="edge65" class="edge">
<title>Node56&#45;&gt;Node33</title>
<path fill="none" stroke="midnightblue" d="M3179.7,-118.82C2997.51,-110.22 2330.47,-78.77 2135.11,-69.55"/>
<polygon fill="midnightblue" stroke="midnightblue" points="2135.23,-66.05 2125.08,-69.08 2134.9,-73.05 2135.23,-66.05"/>
</g>
</g>
</svg>
