<?xml version="1.0" encoding="UTF-8" standalone="no"?>
<!DOCTYPE svg PUBLIC "-//W3C//DTD SVG 1.1//EN"
 "http://www.w3.org/Graphics/SVG/1.1/DTD/svg11.dtd">
<!-- Generated by graphviz version 2.43.0 (0)
 -->
<!-- Title: static.h Pages: 1 -->
<svg width="410pt" height="140pt"
 viewBox="0.00 0.00 410.00 140.00" xmlns="http://www.w3.org/2000/svg" xmlns:xlink="http://www.w3.org/1999/xlink">
<g id="graph0" class="graph" transform="scale(1 1) rotate(0) translate(4 136)">
<title>static.h</title>
<polygon fill="white" stroke="transparent" points="-4,4 -4,-136 406,-136 406,4 -4,4"/>
<!-- Node1 -->
<g id="node1" class="node">
<title>Node1</title>
<g id="a_node1"><a xlink:title=" ">
<polygon fill="#bfbfbf" stroke="black" points="234.5,-112.5 234.5,-131.5 287.5,-131.5 287.5,-112.5 234.5,-112.5"/>
<text text-anchor="middle" x="261" y="-119.5" font-family="FreeSans" font-size="10.00">static.h</text>
</a>
</g>
</g>
<!-- Node2 -->
<g id="node2" class="node">
<title>Node2</title>
<g id="a_node2"><a xlink:href="MagickCore_8h.html" target="_top" xlink:title=" ">
<polygon fill="white" stroke="black" points="89.5,-56.5 89.5,-75.5 172.5,-75.5 172.5,-56.5 89.5,-56.5"/>
<text text-anchor="middle" x="131" y="-63.5" font-family="FreeSans" font-size="10.00">MagickCore.h</text>
</a>
</g>
</g>
<!-- Node1&#45;&gt;Node2 -->
<g id="edge1" class="edge">
<title>Node1&#45;&gt;Node2</title>
<path fill="none" stroke="midnightblue" d="M230.91,-108.5C206.54,-98.38 172.86,-84.39 151.5,-75.52"/>
<polygon fill="midnightblue" stroke="midnightblue" points="229.82,-111.84 240.4,-112.44 232.51,-105.38 229.82,-111.84"/>
</g>
<!-- Node6 -->
<g id="node6" class="node">
<title>Node6</title>
<g id="a_node6"><a xlink:href="magick_8c.html" target="_top" xlink:title=" ">
<polygon fill="white" stroke="black" points="190.5,-56.5 190.5,-75.5 251.5,-75.5 251.5,-56.5 190.5,-56.5"/>
<text text-anchor="middle" x="221" y="-63.5" font-family="FreeSans" font-size="10.00">magick.c</text>
</a>
</g>
</g>
<!-- Node1&#45;&gt;Node6 -->
<g id="edge5" class="edge">
<title>Node1&#45;&gt;Node6</title>
<path fill="none" stroke="midnightblue" d="M248.3,-103.86C241.37,-94.5 233.09,-83.33 227.48,-75.75"/>
<polygon fill="midnightblue" stroke="midnightblue" points="245.63,-106.13 254.39,-112.08 251.25,-101.96 245.63,-106.13"/>
</g>
<!-- Node7 -->
<g id="node7" class="node">
<title>Node7</title>
<g id="a_node7"><a xlink:href="module_8c.html" target="_top" xlink:title=" ">
<polygon fill="white" stroke="black" points="270,-56.5 270,-75.5 332,-75.5 332,-56.5 270,-56.5"/>
<text text-anchor="middle" x="301" y="-63.5" font-family="FreeSans" font-size="10.00">module.c</text>
</a>
</g>
</g>
<!-- Node1&#45;&gt;Node7 -->
<g id="edge6" class="edge">
<title>Node1&#45;&gt;Node7</title>
<path fill="none" stroke="midnightblue" d="M273.7,-103.86C280.63,-94.5 288.91,-83.33 294.52,-75.75"/>
<polygon fill="midnightblue" stroke="midnightblue" points="270.75,-101.96 267.61,-112.08 276.37,-106.13 270.75,-101.96"/>
</g>
<!-- Node8 -->
<g id="node8" class="node">
<title>Node8</title>
<g id="a_node8"><a xlink:href="static_8c.html" target="_top" xlink:title=" ">
<polygon fill="white" stroke="black" points="350,-56.5 350,-75.5 402,-75.5 402,-56.5 350,-56.5"/>
<text text-anchor="middle" x="376" y="-63.5" font-family="FreeSans" font-size="10.00">static.c</text>
</a>
</g>
</g>
<!-- Node1&#45;&gt;Node8 -->
<g id="edge7" class="edge">
<title>Node1&#45;&gt;Node8</title>
<path fill="none" stroke="midnightblue" d="M288.48,-108.1C309.97,-98.01 339.22,-84.27 357.86,-75.52"/>
<polygon fill="midnightblue" stroke="midnightblue" points="286.79,-105.02 279.22,-112.44 289.76,-111.36 286.79,-105.02"/>
</g>
<!-- Node3 -->
<g id="node3" class="node">
<title>Node3</title>
<g id="a_node3"><a xlink:href="ImageMagick_8h.html" target="_top" xlink:title=" ">
<polygon fill="white" stroke="black" points="0,-0.5 0,-19.5 92,-19.5 92,-0.5 0,-0.5"/>
<text text-anchor="middle" x="46" y="-7.5" font-family="FreeSans" font-size="10.00">ImageMagick.h</text>
</a>
</g>
</g>
<!-- Node2&#45;&gt;Node3 -->
<g id="edge2" class="edge">
<title>Node2&#45;&gt;Node3</title>
<path fill="none" stroke="midnightblue" d="M108.81,-50.9C93.22,-41 72.87,-28.07 59.62,-19.65"/>
<polygon fill="midnightblue" stroke="midnightblue" points="107.03,-53.92 117.34,-56.32 110.78,-48.01 107.03,-53.92"/>
</g>
<!-- Node4 -->
<g id="node4" class="node">
<title>Node4</title>
<g id="a_node4"><a xlink:href="api_8h.html" target="_top" xlink:title=" ">
<polygon fill="white" stroke="black" points="110.5,-0.5 110.5,-19.5 151.5,-19.5 151.5,-0.5 110.5,-0.5"/>
<text text-anchor="middle" x="131" y="-7.5" font-family="FreeSans" font-size="10.00">api.h</text>
</a>
</g>
</g>
<!-- Node2&#45;&gt;Node4 -->
<g id="edge3" class="edge">
<title>Node2&#45;&gt;Node4</title>
<path fill="none" stroke="midnightblue" d="M131,-45.8C131,-36.91 131,-26.78 131,-19.75"/>
<polygon fill="midnightblue" stroke="midnightblue" points="127.5,-46.08 131,-56.08 134.5,-46.08 127.5,-46.08"/>
</g>
<!-- Node5 -->
<g id="node5" class="node">
<title>Node5</title>
<g id="a_node5"><a xlink:href="image-view_8c.html" target="_top" xlink:title=" ">
<polygon fill="white" stroke="black" points="169.5,-0.5 169.5,-19.5 250.5,-19.5 250.5,-0.5 169.5,-0.5"/>
<text text-anchor="middle" x="210" y="-7.5" font-family="FreeSans" font-size="10.00">image&#45;view.c</text>
</a>
</g>
</g>
<!-- Node2&#45;&gt;Node5 -->
<g id="edge4" class="edge">
<title>Node2&#45;&gt;Node5</title>
<path fill="none" stroke="midnightblue" d="M152.03,-50.62C166.47,-40.76 185.14,-27.99 197.34,-19.65"/>
<polygon fill="midnightblue" stroke="midnightblue" points="149.97,-47.79 143.69,-56.32 153.92,-53.57 149.97,-47.79"/>
</g>
</g>
</svg>
