<?xml version="1.0" encoding="UTF-8" standalone="no"?>
<!DOCTYPE svg PUBLIC "-//W3C//DTD SVG 1.1//EN"
 "http://www.w3.org/Graphics/SVG/1.1/DTD/svg11.dtd">
<!-- Generated by graphviz version 2.43.0 (0)
 -->
<!-- Title: string.c Pages: 1 -->
<svg width="2724pt" height="364pt"
 viewBox="0.00 0.00 2724.18 364.00" xmlns="http://www.w3.org/2000/svg" xmlns:xlink="http://www.w3.org/1999/xlink">
<g id="graph0" class="graph" transform="scale(1 1) rotate(0) translate(4 360)">
<title>string.c</title>
<polygon fill="white" stroke="transparent" points="-4,4 -4,-360 2720.18,-360 2720.18,4 -4,4"/>
<!-- Node1 -->
<g id="node1" class="node">
<title>Node1</title>
<g id="a_node1"><a xlink:title=" ">
<polygon fill="#bfbfbf" stroke="black" points="2090.5,-336.5 2090.5,-355.5 2143.5,-355.5 2143.5,-336.5 2090.5,-336.5"/>
<text text-anchor="middle" x="2117" y="-343.5" font-family="FreeSans" font-size="10.00">string.c</text>
</a>
</g>
</g>
<!-- Node2 -->
<g id="node2" class="node">
<title>Node2</title>
<g id="a_node2"><a xlink:href="studio_8h.html" target="_top" xlink:title=" ">
<polygon fill="white" stroke="black" points="785.5,-224.5 785.5,-243.5 880.5,-243.5 880.5,-224.5 785.5,-224.5"/>
<text text-anchor="middle" x="833" y="-231.5" font-family="FreeSans" font-size="10.00">magick/studio.h</text>
</a>
</g>
</g>
<!-- Node1&#45;&gt;Node2 -->
<g id="edge1" class="edge">
<title>Node1&#45;&gt;Node2</title>
<path fill="none" stroke="midnightblue" d="M2090.45,-343.85C1995.89,-339.64 1666.77,-324.06 1396,-300 1211,-283.56 992.71,-256.02 890.82,-242.69"/>
<polygon fill="midnightblue" stroke="midnightblue" points="891.11,-239.2 880.74,-241.37 890.2,-246.14 891.11,-239.2"/>
</g>
<!-- Node24 -->
<g id="node24" class="node">
<title>Node24</title>
<g id="a_node24"><a xlink:href="blob_8h.html" target="_top" xlink:title=" ">
<polygon fill="white" stroke="black" points="1664,-280.5 1664,-299.5 1750,-299.5 1750,-280.5 1664,-280.5"/>
<text text-anchor="middle" x="1707" y="-287.5" font-family="FreeSans" font-size="10.00">magick/blob.h</text>
</a>
</g>
</g>
<!-- Node1&#45;&gt;Node24 -->
<g id="edge24" class="edge">
<title>Node1&#45;&gt;Node24</title>
<path fill="none" stroke="midnightblue" d="M2090.08,-342.01C2030.49,-335.29 1882.98,-318.18 1760,-300 1759.9,-299.99 1759.8,-299.97 1759.7,-299.96"/>
<polygon fill="midnightblue" stroke="midnightblue" points="1760.49,-296.54 1750.07,-298.47 1759.42,-303.45 1760.49,-296.54"/>
</g>
<!-- Node39 -->
<g id="node27" class="node">
<title>Node39</title>
<g id="a_node27"><a xlink:href="locale___8h.html" target="_top" xlink:title=" ">
<polygon fill="white" stroke="black" points="1575.5,-168.5 1575.5,-187.5 1674.5,-187.5 1674.5,-168.5 1575.5,-168.5"/>
<text text-anchor="middle" x="1625" y="-175.5" font-family="FreeSans" font-size="10.00">magick/locale_.h</text>
</a>
</g>
</g>
<!-- Node1&#45;&gt;Node39 -->
<g id="edge60" class="edge">
<title>Node1&#45;&gt;Node39</title>
<path fill="none" stroke="midnightblue" d="M2090.32,-345.24C1973.39,-346.03 1510.12,-346.21 1467,-300 1445,-276.42 1475.11,-244.01 1499,-224 1518.55,-207.62 1544.52,-197.01 1567.79,-190.24"/>
<polygon fill="midnightblue" stroke="midnightblue" points="1568.85,-193.58 1577.58,-187.56 1567.01,-186.82 1568.85,-193.58"/>
</g>
<!-- Node50 -->
<g id="node31" class="node">
<title>Node50</title>
<g id="a_node31"><a xlink:href="blob-private_8h.html" target="_top" xlink:title=" ">
<polygon fill="white" stroke="black" points="1918,-280.5 1918,-299.5 2042,-299.5 2042,-280.5 1918,-280.5"/>
<text text-anchor="middle" x="1980" y="-287.5" font-family="FreeSans" font-size="10.00">magick/blob&#45;private.h</text>
</a>
</g>
</g>
<!-- Node1&#45;&gt;Node50 -->
<g id="edge33" class="edge">
<title>Node1&#45;&gt;Node50</title>
<path fill="none" stroke="midnightblue" d="M2095.29,-336.44C2072.65,-327.52 2036.93,-313.44 2011.25,-303.32"/>
<polygon fill="midnightblue" stroke="midnightblue" points="2012.19,-299.93 2001.61,-299.52 2009.63,-306.44 2012.19,-299.93"/>
</g>
<!-- Node51 -->
<g id="node32" class="node">
<title>Node51</title>
<g id="a_node32"><a xlink:href="nt-base-private_8h.html" target="_top" xlink:title=" ">
<polygon fill="white" stroke="black" points="2039,-224.5 2039,-243.5 2179,-243.5 2179,-224.5 2039,-224.5"/>
<text text-anchor="middle" x="2109" y="-231.5" font-family="FreeSans" font-size="10.00">magick/nt&#45;base&#45;private.h</text>
</a>
</g>
</g>
<!-- Node1&#45;&gt;Node51 -->
<g id="edge68" class="edge">
<title>Node1&#45;&gt;Node51</title>
<path fill="none" stroke="midnightblue" d="M2143.85,-343.66C2197.43,-340.36 2314.61,-329.84 2339,-300 2344.63,-293.12 2344.65,-286.86 2339,-280 2320.08,-257.02 2247.68,-245.61 2189.1,-240.05"/>
<polygon fill="midnightblue" stroke="midnightblue" points="2189.36,-236.56 2179.08,-239.14 2188.73,-243.53 2189.36,-236.56"/>
</g>
<!-- Node43 -->
<g id="node35" class="node">
<title>Node43</title>
<g id="a_node35"><a xlink:href="string___8h.html" target="_top" xlink:title=" ">
<polygon fill="white" stroke="black" points="2309,-112.5 2309,-131.5 2407,-131.5 2407,-112.5 2309,-112.5"/>
<text text-anchor="middle" x="2358" y="-119.5" font-family="FreeSans" font-size="10.00">magick/string_.h</text>
</a>
</g>
</g>
<!-- Node1&#45;&gt;Node43 -->
<g id="edge73" class="edge">
<title>Node1&#45;&gt;Node43</title>
<path fill="none" stroke="midnightblue" d="M2143.57,-343.63C2199.24,-340.21 2325.46,-329.33 2355,-300 2397.2,-258.09 2388.8,-226.29 2377,-168 2375.11,-158.65 2371.21,-148.83 2367.43,-140.75"/>
<polygon fill="midnightblue" stroke="midnightblue" points="2370.47,-139.01 2362.88,-131.63 2364.21,-142.14 2370.47,-139.01"/>
</g>
<!-- Node30 -->
<g id="node36" class="node">
<title>Node30</title>
<g id="a_node36"><a xlink:href="exception_8h.html" target="_top" xlink:title=" ">
<polygon fill="white" stroke="black" points="1972.5,-56.5 1972.5,-75.5 2085.5,-75.5 2085.5,-56.5 1972.5,-56.5"/>
<text text-anchor="middle" x="2029" y="-63.5" font-family="FreeSans" font-size="10.00">magick/exception.h</text>
</a>
</g>
</g>
<!-- Node1&#45;&gt;Node30 -->
<g id="edge49" class="edge">
<title>Node1&#45;&gt;Node30</title>
<path fill="none" stroke="midnightblue" d="M2090.26,-345.28C1972.02,-346.22 1499.92,-347.02 1456,-300 1440.35,-283.25 1456.93,-247.96 1475,-224 1491.93,-201.56 1508.47,-209.14 1527,-188 1552.02,-159.45 1534.55,-133.26 1566,-112 1638.11,-63.26 1869.47,-85.33 1956,-76 1958.08,-75.78 1960.2,-75.54 1962.33,-75.3"/>
<polygon fill="midnightblue" stroke="midnightblue" points="1962.89,-78.76 1972.43,-74.15 1962.1,-71.81 1962.89,-78.76"/>
</g>
<!-- Node55 -->
<g id="node38" class="node">
<title>Node55</title>
<g id="a_node38"><a xlink:href="exception-private_8h.html" target="_top" xlink:title=" ">
<polygon fill="white" stroke="black" points="2462.5,-168.5 2462.5,-187.5 2613.5,-187.5 2613.5,-168.5 2462.5,-168.5"/>
<text text-anchor="middle" x="2538" y="-175.5" font-family="FreeSans" font-size="10.00">magick/exception&#45;private.h</text>
</a>
</g>
</g>
<!-- Node1&#45;&gt;Node55 -->
<g id="edge50" class="edge">
<title>Node1&#45;&gt;Node55</title>
<path fill="none" stroke="midnightblue" d="M2143.82,-344.95C2251.32,-344.49 2646.98,-340.08 2684,-300 2725.62,-254.95 2629.33,-211.38 2573.82,-191"/>
<polygon fill="midnightblue" stroke="midnightblue" points="2574.89,-187.67 2564.3,-187.59 2572.53,-194.26 2574.89,-187.67"/>
</g>
<!-- Node56 -->
<g id="node39" class="node">
<title>Node56</title>
<g id="a_node39"><a xlink:href="log_8h.html" target="_top" xlink:title=" ">
<polygon fill="white" stroke="black" points="2493,-112.5 2493,-131.5 2573,-131.5 2573,-112.5 2493,-112.5"/>
<text text-anchor="middle" x="2533" y="-119.5" font-family="FreeSans" font-size="10.00">magick/log.h</text>
</a>
</g>
</g>
<!-- Node1&#45;&gt;Node56 -->
<g id="edge61" class="edge">
<title>Node1&#45;&gt;Node56</title>
<path fill="none" stroke="midnightblue" d="M2143.55,-345.02C2252.8,-344.85 2663.63,-341.43 2702,-300 2759.68,-237.71 2624.37,-164.83 2562.19,-135.84"/>
<polygon fill="midnightblue" stroke="midnightblue" points="2563.43,-132.55 2552.88,-131.57 2560.51,-138.92 2563.43,-132.55"/>
</g>
<!-- Node58 -->
<g id="node41" class="node">
<title>Node58</title>
<g id="a_node41"><a xlink:href="image-private_8h.html" target="_top" xlink:title=" ">
<polygon fill="white" stroke="black" points="2098,-280.5 2098,-299.5 2232,-299.5 2232,-280.5 2098,-280.5"/>
<text text-anchor="middle" x="2165" y="-287.5" font-family="FreeSans" font-size="10.00">magick/image&#45;private.h</text>
</a>
</g>
</g>
<!-- Node1&#45;&gt;Node58 -->
<g id="edge58" class="edge">
<title>Node1&#45;&gt;Node58</title>
<path fill="none" stroke="midnightblue" d="M2124.93,-336.08C2131.85,-328.3 2142.07,-316.8 2150.45,-307.37"/>
<polygon fill="midnightblue" stroke="midnightblue" points="2153.19,-309.55 2157.22,-299.75 2147.96,-304.9 2153.19,-309.55"/>
</g>
<!-- Node59 -->
<g id="node42" class="node">
<title>Node59</title>
<g id="a_node42"><a xlink:href="list_8h.html" target="_top" xlink:title=" ">
<polygon fill="white" stroke="black" points="2250,-280.5 2250,-299.5 2330,-299.5 2330,-280.5 2250,-280.5"/>
<text text-anchor="middle" x="2290" y="-287.5" font-family="FreeSans" font-size="10.00">magick/list.h</text>
</a>
</g>
</g>
<!-- Node1&#45;&gt;Node59 -->
<g id="edge59" class="edge">
<title>Node1&#45;&gt;Node59</title>
<path fill="none" stroke="midnightblue" d="M2143.65,-336.68C2172.94,-327.54 2220.19,-312.79 2253.05,-302.53"/>
<polygon fill="midnightblue" stroke="midnightblue" points="2254.24,-305.83 2262.75,-299.51 2252.16,-299.15 2254.24,-305.83"/>
</g>
<!-- Node60 -->
<g id="node43" class="node">
<title>Node60</title>
<g id="a_node43"><a xlink:href="memory___8h.html" target="_top" xlink:title=" ">
<polygon fill="white" stroke="black" points="1585.5,-224.5 1585.5,-243.5 1696.5,-243.5 1696.5,-224.5 1585.5,-224.5"/>
<text text-anchor="middle" x="1641" y="-231.5" font-family="FreeSans" font-size="10.00">magick/memory_.h</text>
</a>
</g>
</g>
<!-- Node1&#45;&gt;Node60 -->
<g id="edge62" class="edge">
<title>Node1&#45;&gt;Node60</title>
<path fill="none" stroke="midnightblue" d="M2090.37,-344.21C1996.9,-341.2 1687.64,-329.09 1655,-300 1642.23,-288.62 1639.55,-268.63 1639.56,-253.81"/>
<polygon fill="midnightblue" stroke="midnightblue" points="1643.06,-253.85 1639.97,-243.72 1636.07,-253.57 1643.06,-253.85"/>
</g>
<!-- Node61 -->
<g id="node44" class="node">
<title>Node61</title>
<g id="a_node44"><a xlink:href="nt-base_8h.html" target="_top" xlink:title=" ">
<polygon fill="white" stroke="black" points="1916.5,-224.5 1916.5,-243.5 2017.5,-243.5 2017.5,-224.5 1916.5,-224.5"/>
<text text-anchor="middle" x="1967" y="-231.5" font-family="FreeSans" font-size="10.00">magick/nt&#45;base.h</text>
</a>
</g>
</g>
<!-- Node1&#45;&gt;Node61 -->
<g id="edge65" class="edge">
<title>Node1&#45;&gt;Node61</title>
<path fill="none" stroke="midnightblue" d="M2109.55,-336.2C2097.98,-322.89 2074.57,-297.36 2051,-280 2033.85,-267.37 2012.71,-256.06 1995.92,-247.94"/>
<polygon fill="midnightblue" stroke="midnightblue" points="1997.15,-244.65 1986.61,-243.54 1994.16,-250.98 1997.15,-244.65"/>
</g>
<!-- Node62 -->
<g id="node45" class="node">
<title>Node62</title>
<g id="a_node45"><a xlink:href="property_8h.html" target="_top" xlink:title=" ">
<polygon fill="white" stroke="black" points="2424,-280.5 2424,-299.5 2528,-299.5 2528,-280.5 2424,-280.5"/>
<text text-anchor="middle" x="2476" y="-287.5" font-family="FreeSans" font-size="10.00">magick/property.h</text>
</a>
</g>
</g>
<!-- Node1&#45;&gt;Node62 -->
<g id="edge69" class="edge">
<title>Node1&#45;&gt;Node62</title>
<path fill="none" stroke="midnightblue" d="M2143.69,-340.99C2200.38,-332.46 2334.08,-312.35 2413.54,-300.4"/>
<polygon fill="midnightblue" stroke="midnightblue" points="2414.53,-303.79 2423.9,-298.84 2413.49,-296.86 2414.53,-303.79"/>
</g>
<!-- Node63 -->
<g id="node46" class="node">
<title>Node63</title>
<g id="a_node46"><a xlink:href="resource___8h.html" target="_top" xlink:title=" ">
<polygon fill="white" stroke="black" points="2546,-280.5 2546,-299.5 2658,-299.5 2658,-280.5 2546,-280.5"/>
<text text-anchor="middle" x="2602" y="-287.5" font-family="FreeSans" font-size="10.00">magick/resource_.h</text>
</a>
</g>
</g>
<!-- Node1&#45;&gt;Node63 -->
<g id="edge70" class="edge">
<title>Node1&#45;&gt;Node63</title>
<path fill="none" stroke="midnightblue" d="M2143.57,-342.44C2208.55,-336.12 2380.89,-318.99 2535.82,-300.11"/>
<polygon fill="midnightblue" stroke="midnightblue" points="2536.49,-303.56 2545.99,-298.87 2535.64,-296.61 2536.49,-303.56"/>
</g>
<!-- Node64 -->
<g id="node47" class="node">
<title>Node64</title>
<g id="a_node47"><a xlink:href="signature-private_8h.html" target="_top" xlink:title=" ">
<polygon fill="white" stroke="black" points="2485.5,-224.5 2485.5,-243.5 2634.5,-243.5 2634.5,-224.5 2485.5,-224.5"/>
<text text-anchor="middle" x="2560" y="-231.5" font-family="FreeSans" font-size="10.00">magick/signature&#45;private.h</text>
</a>
</g>
</g>
<!-- Node1&#45;&gt;Node64 -->
<g id="edge71" class="edge">
<title>Node1&#45;&gt;Node64</title>
<path fill="none" stroke="midnightblue" d="M2143.73,-344.88C2249.04,-344.16 2631.21,-338.84 2667,-300 2689.51,-275.57 2647,-257.14 2609.09,-246.26"/>
<polygon fill="midnightblue" stroke="midnightblue" points="2609.65,-242.78 2599.08,-243.52 2607.81,-249.53 2609.65,-242.78"/>
</g>
<!-- Node65 -->
<g id="node48" class="node">
<title>Node65</title>
<g id="a_node48"><a xlink:href="string-private_8h.html" target="_top" xlink:title=" ">
<polygon fill="white" stroke="black" points="1476.5,-280.5 1476.5,-299.5 1607.5,-299.5 1607.5,-280.5 1476.5,-280.5"/>
<text text-anchor="middle" x="1542" y="-287.5" font-family="FreeSans" font-size="10.00">magick/string&#45;private.h</text>
</a>
</g>
</g>
<!-- Node1&#45;&gt;Node65 -->
<g id="edge74" class="edge">
<title>Node1&#45;&gt;Node65</title>
<path fill="none" stroke="midnightblue" d="M2090.42,-342.78C2016.26,-336.56 1800.78,-318.18 1622,-300 1620.71,-299.87 1619.41,-299.74 1618.1,-299.6"/>
<polygon fill="midnightblue" stroke="midnightblue" points="1618.22,-296.09 1607.91,-298.53 1617.49,-303.06 1618.22,-296.09"/>
</g>
<!-- Node67 -->
<g id="node50" class="node">
<title>Node67</title>
<g id="a_node50"><a xlink:href="utility-private_8h.html" target="_top" xlink:title=" ">
<polygon fill="white" stroke="black" points="1768.5,-280.5 1768.5,-299.5 1899.5,-299.5 1899.5,-280.5 1768.5,-280.5"/>
<text text-anchor="middle" x="1834" y="-287.5" font-family="FreeSans" font-size="10.00">magick/utility&#45;private.h</text>
</a>
</g>
</g>
<!-- Node1&#45;&gt;Node67 -->
<g id="edge77" class="edge">
<title>Node1&#45;&gt;Node67</title>
<path fill="none" stroke="midnightblue" d="M2090.38,-339.92C2044.46,-331.16 1949.49,-313.04 1888.92,-301.48"/>
<polygon fill="midnightblue" stroke="midnightblue" points="1889.24,-297.98 1878.77,-299.54 1887.93,-304.85 1889.24,-297.98"/>
</g>
<!-- Node3 -->
<g id="node3" class="node">
<title>Node3</title>
<g id="a_node3"><a xlink:href="magick-config_8h.html" target="_top" xlink:title=" ">
<polygon fill="white" stroke="black" points="85,-112.5 85,-131.5 219,-131.5 219,-112.5 85,-112.5"/>
<text text-anchor="middle" x="152" y="-119.5" font-family="FreeSans" font-size="10.00">magick/magick&#45;config.h</text>
</a>
</g>
</g>
<!-- Node2&#45;&gt;Node3 -->
<g id="edge2" class="edge">
<title>Node2&#45;&gt;Node3</title>
<path fill="none" stroke="midnightblue" d="M785.34,-232.1C665.93,-229.39 356.51,-219.46 259,-188 249.9,-185.06 202.76,-155.46 174.17,-137.23"/>
<polygon fill="midnightblue" stroke="midnightblue" points="175.92,-134.2 165.61,-131.76 172.15,-140.09 175.92,-134.2"/>
</g>
<!-- Node5 -->
<g id="node5" class="node">
<title>Node5</title>
<g id="a_node5"><a xlink:title=" ">
<polygon fill="white" stroke="#bfbfbf" points="2187,-0.5 2187,-19.5 2243,-19.5 2243,-0.5 2187,-0.5"/>
<text text-anchor="middle" x="2215" y="-7.5" font-family="FreeSans" font-size="10.00">stdarg.h</text>
</a>
</g>
</g>
<!-- Node2&#45;&gt;Node5 -->
<g id="edge4" class="edge">
<title>Node2&#45;&gt;Node5</title>
<path fill="none" stroke="midnightblue" d="M880.74,-231.19C984.91,-226.79 1229.56,-213.97 1308,-188 1324.28,-182.61 1325.84,-176.01 1341,-168 1394.11,-139.94 1406.26,-128.54 1464,-112 1647.58,-59.42 1700.65,-80.75 1890,-56 2013.1,-39.91 2044.39,-39.45 2167,-20 2170.22,-19.49 2173.56,-18.93 2176.91,-18.34"/>
<polygon fill="midnightblue" stroke="midnightblue" points="2177.65,-21.77 2186.87,-16.55 2176.41,-14.88 2177.65,-21.77"/>
</g>
<!-- Node6 -->
<g id="node6" class="node">
<title>Node6</title>
<g id="a_node6"><a xlink:title=" ">
<polygon fill="white" stroke="#bfbfbf" points="268,-168.5 268,-187.5 318,-187.5 318,-168.5 268,-168.5"/>
<text text-anchor="middle" x="293" y="-175.5" font-family="FreeSans" font-size="10.00">stdio.h</text>
</a>
</g>
</g>
<!-- Node2&#45;&gt;Node6 -->
<g id="edge5" class="edge">
<title>Node2&#45;&gt;Node6</title>
<path fill="none" stroke="midnightblue" d="M785.21,-231.46C696.73,-228.01 501.41,-217.68 328.21,-187.92"/>
<polygon fill="midnightblue" stroke="midnightblue" points="328.6,-184.44 318.15,-186.17 327.39,-191.33 328.6,-184.44"/>
</g>
<!-- Node7 -->
<g id="node7" class="node">
<title>Node7</title>
<g id="a_node7"><a xlink:title=" ">
<polygon fill="white" stroke="#bfbfbf" points="336.5,-168.5 336.5,-187.5 389.5,-187.5 389.5,-168.5 336.5,-168.5"/>
<text text-anchor="middle" x="363" y="-175.5" font-family="FreeSans" font-size="10.00">ctype.h</text>
</a>
</g>
</g>
<!-- Node2&#45;&gt;Node7 -->
<g id="edge6" class="edge">
<title>Node2&#45;&gt;Node7</title>
<path fill="none" stroke="midnightblue" d="M785.37,-230.4C706.8,-225.59 545.04,-213.58 399.66,-188.07"/>
<polygon fill="midnightblue" stroke="midnightblue" points="400.12,-184.6 389.66,-186.29 398.89,-191.49 400.12,-184.6"/>
</g>
<!-- Node8 -->
<g id="node8" class="node">
<title>Node8</title>
<g id="a_node8"><a xlink:title=" ">
<polygon fill="white" stroke="#bfbfbf" points="407.5,-168.5 407.5,-187.5 462.5,-187.5 462.5,-168.5 407.5,-168.5"/>
<text text-anchor="middle" x="435" y="-175.5" font-family="FreeSans" font-size="10.00">locale.h</text>
</a>
</g>
</g>
<!-- Node2&#45;&gt;Node8 -->
<g id="edge7" class="edge">
<title>Node2&#45;&gt;Node8</title>
<path fill="none" stroke="midnightblue" d="M785.28,-228.93C717.67,-222.75 589.98,-209.58 472.7,-188.14"/>
<polygon fill="midnightblue" stroke="midnightblue" points="473.31,-184.69 462.83,-186.31 472.03,-191.58 473.31,-184.69"/>
</g>
<!-- Node9 -->
<g id="node9" class="node">
<title>Node9</title>
<g id="a_node9"><a xlink:title=" ">
<polygon fill="white" stroke="#bfbfbf" points="1467.5,-168.5 1467.5,-187.5 1518.5,-187.5 1518.5,-168.5 1467.5,-168.5"/>
<text text-anchor="middle" x="1493" y="-175.5" font-family="FreeSans" font-size="10.00">errno.h</text>
</a>
</g>
</g>
<!-- Node2&#45;&gt;Node9 -->
<g id="edge8" class="edge">
<title>Node2&#45;&gt;Node9</title>
<path fill="none" stroke="midnightblue" d="M880.78,-232.48C984.25,-230.73 1236.81,-223.06 1457.35,-187.77"/>
<polygon fill="midnightblue" stroke="midnightblue" points="1458.19,-191.18 1467.5,-186.12 1457.07,-184.27 1458.19,-191.18"/>
</g>
<!-- Node10 -->
<g id="node10" class="node">
<title>Node10</title>
<g id="a_node10"><a xlink:title=" ">
<polygon fill="white" stroke="#bfbfbf" points="480.5,-168.5 480.5,-187.5 527.5,-187.5 527.5,-168.5 480.5,-168.5"/>
<text text-anchor="middle" x="504" y="-175.5" font-family="FreeSans" font-size="10.00">fcntl.h</text>
</a>
</g>
</g>
<!-- Node2&#45;&gt;Node10 -->
<g id="edge9" class="edge">
<title>Node2&#45;&gt;Node10</title>
<path fill="none" stroke="midnightblue" d="M785.35,-227.63C728.42,-220.8 630.18,-207.72 537.5,-188.12"/>
<polygon fill="midnightblue" stroke="midnightblue" points="538.2,-184.69 527.68,-186.01 536.73,-191.53 538.2,-184.69"/>
</g>
<!-- Node11 -->
<g id="node11" class="node">
<title>Node11</title>
<g id="a_node11"><a xlink:title=" ">
<polygon fill="white" stroke="#bfbfbf" points="545.5,-168.5 545.5,-187.5 596.5,-187.5 596.5,-168.5 545.5,-168.5"/>
<text text-anchor="middle" x="571" y="-175.5" font-family="FreeSans" font-size="10.00">math.h</text>
</a>
</g>
</g>
<!-- Node2&#45;&gt;Node11 -->
<g id="edge10" class="edge">
<title>Node2&#45;&gt;Node11</title>
<path fill="none" stroke="midnightblue" d="M785.21,-224.49C741.12,-216.43 673.62,-203.57 606.48,-188.24"/>
<polygon fill="midnightblue" stroke="midnightblue" points="607.11,-184.79 596.58,-185.96 605.54,-191.61 607.11,-184.79"/>
</g>
<!-- Node12 -->
<g id="node12" class="node">
<title>Node12</title>
<g id="a_node12"><a xlink:title=" ">
<polygon fill="white" stroke="#bfbfbf" points="1899,-56.5 1899,-75.5 1947,-75.5 1947,-56.5 1899,-56.5"/>
<text text-anchor="middle" x="1923" y="-63.5" font-family="FreeSans" font-size="10.00">time.h</text>
</a>
</g>
</g>
<!-- Node2&#45;&gt;Node12 -->
<g id="edge11" class="edge">
<title>Node2&#45;&gt;Node12</title>
<path fill="none" stroke="midnightblue" d="M880.55,-230.89C989.59,-225.71 1254.84,-211.09 1341,-188 1361.36,-182.54 1364.57,-176.16 1384,-168 1449.23,-140.62 1464.16,-128.31 1533,-112 1680.43,-77.07 1721.97,-97.18 1872,-76 1877.51,-75.22 1883.33,-74.29 1889,-73.34"/>
<polygon fill="midnightblue" stroke="midnightblue" points="1889.68,-76.77 1898.93,-71.6 1888.47,-69.87 1889.68,-76.77"/>
</g>
<!-- Node13 -->
<g id="node13" class="node">
<title>Node13</title>
<g id="a_node13"><a xlink:title=" ">
<polygon fill="white" stroke="#bfbfbf" points="614.5,-168.5 614.5,-187.5 667.5,-187.5 667.5,-168.5 614.5,-168.5"/>
<text text-anchor="middle" x="641" y="-175.5" font-family="FreeSans" font-size="10.00">limits.h</text>
</a>
</g>
</g>
<!-- Node2&#45;&gt;Node13 -->
<g id="edge12" class="edge">
<title>Node2&#45;&gt;Node13</title>
<path fill="none" stroke="midnightblue" d="M802.58,-224.44C768.56,-214.87 713.49,-199.39 677.26,-189.2"/>
<polygon fill="midnightblue" stroke="midnightblue" points="678.14,-185.81 667.57,-186.47 676.25,-192.55 678.14,-185.81"/>
</g>
<!-- Node14 -->
<g id="node14" class="node">
<title>Node14</title>
<g id="a_node14"><a xlink:title=" ">
<polygon fill="white" stroke="#bfbfbf" points="685.5,-168.5 685.5,-187.5 740.5,-187.5 740.5,-168.5 685.5,-168.5"/>
<text text-anchor="middle" x="713" y="-175.5" font-family="FreeSans" font-size="10.00">signal.h</text>
</a>
</g>
</g>
<!-- Node2&#45;&gt;Node14 -->
<g id="edge13" class="edge">
<title>Node2&#45;&gt;Node14</title>
<path fill="none" stroke="midnightblue" d="M813.99,-224.44C794.41,-215.64 763.69,-201.81 741.27,-191.72"/>
<polygon fill="midnightblue" stroke="midnightblue" points="742.48,-188.43 731.93,-187.52 739.61,-194.81 742.48,-188.43"/>
</g>
<!-- Node15 -->
<g id="node15" class="node">
<title>Node15</title>
<g id="a_node15"><a xlink:title=" ">
<polygon fill="white" stroke="#bfbfbf" points="1393,-168.5 1393,-187.5 1449,-187.5 1449,-168.5 1393,-168.5"/>
<text text-anchor="middle" x="1421" y="-175.5" font-family="FreeSans" font-size="10.00">assert.h</text>
</a>
</g>
</g>
<!-- Node2&#45;&gt;Node15 -->
<g id="edge14" class="edge">
<title>Node2&#45;&gt;Node15</title>
<path fill="none" stroke="midnightblue" d="M880.71,-231.14C975.89,-226.97 1195.99,-215.03 1379,-188 1380.24,-187.82 1381.51,-187.62 1382.78,-187.41"/>
<polygon fill="midnightblue" stroke="midnightblue" points="1383.42,-190.85 1392.62,-185.6 1382.16,-183.96 1383.42,-190.85"/>
</g>
<!-- Node16 -->
<g id="node16" class="node">
<title>Node16</title>
<g id="a_node16"><a xlink:href="method-attribute_8h.html" target="_top" xlink:title=" ">
<polygon fill="white" stroke="black" points="759,-168.5 759,-187.5 907,-187.5 907,-168.5 759,-168.5"/>
<text text-anchor="middle" x="833" y="-175.5" font-family="FreeSans" font-size="10.00">magick/method&#45;attribute.h</text>
</a>
</g>
</g>
<!-- Node2&#45;&gt;Node16 -->
<g id="edge15" class="edge">
<title>Node2&#45;&gt;Node16</title>
<path fill="none" stroke="midnightblue" d="M833,-224.08C833,-217.01 833,-206.86 833,-197.99"/>
<polygon fill="midnightblue" stroke="midnightblue" points="836.5,-197.75 833,-187.75 829.5,-197.75 836.5,-197.75"/>
</g>
<!-- Node17 -->
<g id="node17" class="node">
<title>Node17</title>
<g id="a_node17"><a xlink:title=" ">
<polygon fill="white" stroke="#bfbfbf" points="925,-168.5 925,-187.5 997,-187.5 997,-168.5 925,-168.5"/>
<text text-anchor="middle" x="961" y="-175.5" font-family="FreeSans" font-size="10.00">sys/types.h</text>
</a>
</g>
</g>
<!-- Node2&#45;&gt;Node17 -->
<g id="edge16" class="edge">
<title>Node2&#45;&gt;Node17</title>
<path fill="none" stroke="midnightblue" d="M853.28,-224.44C874.35,-215.56 907.52,-201.56 931.49,-191.45"/>
<polygon fill="midnightblue" stroke="midnightblue" points="932.96,-194.63 940.81,-187.52 930.24,-188.18 932.96,-194.63"/>
</g>
<!-- Node18 -->
<g id="node18" class="node">
<title>Node18</title>
<g id="a_node18"><a xlink:title=" ">
<polygon fill="white" stroke="#bfbfbf" points="1015,-168.5 1015,-187.5 1079,-187.5 1079,-168.5 1015,-168.5"/>
<text text-anchor="middle" x="1047" y="-175.5" font-family="FreeSans" font-size="10.00">sys/stat.h</text>
</a>
</g>
</g>
<!-- Node2&#45;&gt;Node18 -->
<g id="edge17" class="edge">
<title>Node2&#45;&gt;Node18</title>
<path fill="none" stroke="midnightblue" d="M866.91,-224.44C904.39,-214.99 964.8,-199.74 1005.19,-189.55"/>
<polygon fill="midnightblue" stroke="midnightblue" points="1006.16,-192.92 1015,-187.08 1004.44,-186.13 1006.16,-192.92"/>
</g>
<!-- Node19 -->
<g id="node19" class="node">
<title>Node19</title>
<g id="a_node19"><a xlink:title=" ">
<polygon fill="white" stroke="#bfbfbf" points="1097,-168.5 1097,-187.5 1151,-187.5 1151,-168.5 1097,-168.5"/>
<text text-anchor="middle" x="1124" y="-175.5" font-family="FreeSans" font-size="10.00">dirent.h</text>
</a>
</g>
</g>
<!-- Node2&#45;&gt;Node19 -->
<g id="edge18" class="edge">
<title>Node2&#45;&gt;Node19</title>
<path fill="none" stroke="midnightblue" d="M880.66,-225.62C929.93,-217.76 1009.27,-204.46 1086.96,-188.1"/>
<polygon fill="midnightblue" stroke="midnightblue" points="1087.87,-191.49 1096.92,-185.99 1086.41,-184.64 1087.87,-191.49"/>
</g>
<!-- Node20 -->
<g id="node20" class="node">
<title>Node20</title>
<g id="a_node20"><a xlink:title=" ">
<polygon fill="white" stroke="#bfbfbf" points="1169,-168.5 1169,-187.5 1235,-187.5 1235,-168.5 1169,-168.5"/>
<text text-anchor="middle" x="1202" y="-175.5" font-family="FreeSans" font-size="10.00">sys/wait.h</text>
</a>
</g>
</g>
<!-- Node2&#45;&gt;Node20 -->
<g id="edge19" class="edge">
<title>Node2&#45;&gt;Node20</title>
<path fill="none" stroke="midnightblue" d="M880.56,-227.58C942.36,-220.29 1053.84,-206.29 1158.47,-188.16"/>
<polygon fill="midnightblue" stroke="midnightblue" points="1159.33,-191.57 1168.57,-186.4 1158.12,-184.67 1159.33,-191.57"/>
</g>
<!-- Node21 -->
<g id="node21" class="node">
<title>Node21</title>
<g id="a_node21"><a xlink:title=" ">
<polygon fill="white" stroke="#bfbfbf" points="1253,-168.5 1253,-187.5 1299,-187.5 1299,-168.5 1253,-168.5"/>
<text text-anchor="middle" x="1276" y="-175.5" font-family="FreeSans" font-size="10.00">pwd.h</text>
</a>
</g>
</g>
<!-- Node2&#45;&gt;Node21 -->
<g id="edge20" class="edge">
<title>Node2&#45;&gt;Node21</title>
<path fill="none" stroke="midnightblue" d="M880.54,-230.35C955.6,-225.61 1106.23,-213.85 1242.49,-188"/>
<polygon fill="midnightblue" stroke="midnightblue" points="1243.53,-191.37 1252.69,-186.04 1242.21,-184.49 1243.53,-191.37"/>
</g>
<!-- Node22 -->
<g id="node22" class="node">
<title>Node22</title>
<g id="a_node22"><a xlink:href="magick-type_8h.html" target="_top" xlink:title=" ">
<polygon fill="white" stroke="black" points="0,-168.5 0,-187.5 126,-187.5 126,-168.5 0,-168.5"/>
<text text-anchor="middle" x="63" y="-175.5" font-family="FreeSans" font-size="10.00">magick/magick&#45;type.h</text>
</a>
</g>
</g>
<!-- Node2&#45;&gt;Node22 -->
<g id="edge21" class="edge">
<title>Node2&#45;&gt;Node22</title>
<path fill="none" stroke="midnightblue" d="M785.11,-230.9C673.38,-225.8 386.59,-211.47 136.21,-188.06"/>
<polygon fill="midnightblue" stroke="midnightblue" points="136.48,-184.57 126.19,-187.12 135.82,-191.54 136.48,-184.57"/>
</g>
<!-- Node23 -->
<g id="node23" class="node">
<title>Node23</title>
<g id="a_node23"><a xlink:title=" ">
<polygon fill="white" stroke="#bfbfbf" points="144,-168.5 144,-187.5 212,-187.5 212,-168.5 144,-168.5"/>
<text text-anchor="middle" x="178" y="-175.5" font-family="FreeSans" font-size="10.00">sys/time.h</text>
</a>
</g>
</g>
<!-- Node2&#45;&gt;Node23 -->
<g id="edge23" class="edge">
<title>Node2&#45;&gt;Node23</title>
<path fill="none" stroke="midnightblue" d="M785.21,-231.27C682.49,-227.15 433.21,-215.02 226,-188 224.72,-187.83 223.43,-187.66 222.12,-187.47"/>
<polygon fill="midnightblue" stroke="midnightblue" points="222.44,-183.97 212.01,-185.86 221.34,-190.89 222.44,-183.97"/>
</g>
<!-- Node4 -->
<g id="node4" class="node">
<title>Node4</title>
<g id="a_node4"><a xlink:href="magick-baseconfig_8h.html" target="_top" xlink:title=" ">
<polygon fill="white" stroke="black" points="73.5,-56.5 73.5,-75.5 230.5,-75.5 230.5,-56.5 73.5,-56.5"/>
<text text-anchor="middle" x="152" y="-63.5" font-family="FreeSans" font-size="10.00">magick/magick&#45;baseconfig.h</text>
</a>
</g>
</g>
<!-- Node3&#45;&gt;Node4 -->
<g id="edge3" class="edge">
<title>Node3&#45;&gt;Node4</title>
<path fill="none" stroke="midnightblue" d="M152,-112.08C152,-105.01 152,-94.86 152,-85.99"/>
<polygon fill="midnightblue" stroke="midnightblue" points="155.5,-85.75 152,-75.75 148.5,-85.75 155.5,-85.75"/>
</g>
<!-- Node22&#45;&gt;Node3 -->
<g id="edge22" class="edge">
<title>Node22&#45;&gt;Node3</title>
<path fill="none" stroke="midnightblue" d="M77.3,-168.32C91.18,-159.9 112.49,-146.97 128.8,-137.07"/>
<polygon fill="midnightblue" stroke="midnightblue" points="131,-139.83 137.74,-131.65 127.37,-133.85 131,-139.83"/>
</g>
<!-- Node25 -->
<g id="node25" class="node">
<title>Node25</title>
<g id="a_node25"><a xlink:href="image_8h.html" target="_top" xlink:title=" ">
<polygon fill="white" stroke="red" points="1753.5,-224.5 1753.5,-243.5 1848.5,-243.5 1848.5,-224.5 1753.5,-224.5"/>
<text text-anchor="middle" x="1801" y="-231.5" font-family="FreeSans" font-size="10.00">magick/image.h</text>
</a>
</g>
</g>
<!-- Node24&#45;&gt;Node25 -->
<g id="edge25" class="edge">
<title>Node24&#45;&gt;Node25</title>
<path fill="none" stroke="midnightblue" d="M1716.99,-280.32C1730.13,-271.7 1753.08,-258.36 1771.78,-248.39"/>
<polygon fill="midnightblue" stroke="midnightblue" points="1773.59,-251.39 1780.82,-243.65 1770.34,-245.19 1773.59,-251.39"/>
</g>
<!-- Node48 -->
<g id="node30" class="node">
<title>Node48</title>
<g id="a_node30"><a xlink:href="stream_8h.html" target="_top" xlink:title=" ">
<polygon fill="white" stroke="black" points="1692.5,-168.5 1692.5,-187.5 1791.5,-187.5 1791.5,-168.5 1692.5,-168.5"/>
<text text-anchor="middle" x="1742" y="-175.5" font-family="FreeSans" font-size="10.00">magick/stream.h</text>
</a>
</g>
</g>
<!-- Node24&#45;&gt;Node48 -->
<g id="edge32" class="edge">
<title>Node24&#45;&gt;Node48</title>
<path fill="none" stroke="midnightblue" d="M1709.75,-280.37C1715.42,-262.54 1728.54,-221.3 1736.19,-197.27"/>
<polygon fill="midnightblue" stroke="midnightblue" points="1739.57,-198.18 1739.27,-187.59 1732.9,-196.06 1739.57,-198.18"/>
</g>
<!-- Node25&#45;&gt;Node24 -->
<g id="edge26" class="edge">
<title>Node25&#45;&gt;Node24</title>
<path fill="none" stroke="midnightblue" d="M1791.04,-243.65C1777.92,-252.27 1754.97,-265.61 1736.27,-275.59"/>
<polygon fill="midnightblue" stroke="midnightblue" points="1734.46,-272.59 1727.22,-280.32 1737.7,-278.79 1734.46,-272.59"/>
</g>
<!-- Node37 -->
<g id="node26" class="node">
<title>Node37</title>
<g id="a_node26"><a xlink:href="geometry_8h.html" target="_top" xlink:title=" ">
<polygon fill="white" stroke="black" points="1848,-168.5 1848,-187.5 1958,-187.5 1958,-168.5 1848,-168.5"/>
<text text-anchor="middle" x="1903" y="-175.5" font-family="FreeSans" font-size="10.00">magick/geometry.h</text>
</a>
</g>
</g>
<!-- Node25&#45;&gt;Node37 -->
<g id="edge27" class="edge">
<title>Node25&#45;&gt;Node37</title>
<path fill="none" stroke="midnightblue" d="M1817.39,-224.32C1833.67,-215.7 1858.87,-202.36 1877.72,-192.39"/>
<polygon fill="midnightblue" stroke="midnightblue" points="1879.45,-195.43 1886.65,-187.65 1876.18,-189.24 1879.45,-195.43"/>
</g>
<!-- Node25&#45;&gt;Node39 -->
<g id="edge28" class="edge">
<title>Node25&#45;&gt;Node39</title>
<path fill="none" stroke="midnightblue" d="M1773.11,-224.44C1743.25,-215.28 1695.69,-200.69 1662.54,-190.52"/>
<polygon fill="midnightblue" stroke="midnightblue" points="1663.34,-187.1 1652.76,-187.52 1661.29,-193.8 1663.34,-187.1"/>
</g>
<!-- Node31 -->
<g id="node29" class="node">
<title>Node31</title>
<g id="a_node29"><a xlink:href="semaphore_8h.html" target="_top" xlink:title=" ">
<polygon fill="white" stroke="black" points="2038.5,-0.5 2038.5,-19.5 2157.5,-19.5 2157.5,-0.5 2038.5,-0.5"/>
<text text-anchor="middle" x="2098" y="-7.5" font-family="FreeSans" font-size="10.00">magick/semaphore.h</text>
</a>
</g>
</g>
<!-- Node25&#45;&gt;Node31 -->
<g id="edge30" class="edge">
<title>Node25&#45;&gt;Node31</title>
<path fill="none" stroke="midnightblue" d="M1802.62,-224.32C1808.5,-195.35 1831.53,-101.28 1890,-56 1911.39,-39.43 1976.41,-27.09 2028.12,-19.56"/>
<polygon fill="midnightblue" stroke="midnightblue" points="2028.86,-22.99 2038.27,-18.12 2027.87,-16.06 2028.86,-22.99"/>
</g>
<!-- Node25&#45;&gt;Node48 -->
<g id="edge31" class="edge">
<title>Node25&#45;&gt;Node48</title>
<path fill="none" stroke="midnightblue" d="M1791.52,-224.32C1782.8,-216.34 1769.66,-204.31 1759.1,-194.65"/>
<polygon fill="midnightblue" stroke="midnightblue" points="1761.39,-192 1751.65,-187.83 1756.67,-197.17 1761.39,-192"/>
</g>
<!-- Node40 -->
<g id="node28" class="node">
<title>Node40</title>
<g id="a_node28"><a xlink:href="hashmap_8h.html" target="_top" xlink:title=" ">
<polygon fill="white" stroke="black" points="1575,-112.5 1575,-131.5 1685,-131.5 1685,-112.5 1575,-112.5"/>
<text text-anchor="middle" x="1630" y="-119.5" font-family="FreeSans" font-size="10.00">magick/hashmap.h</text>
</a>
</g>
</g>
<!-- Node39&#45;&gt;Node40 -->
<g id="edge29" class="edge">
<title>Node39&#45;&gt;Node40</title>
<path fill="none" stroke="midnightblue" d="M1625.83,-168.08C1626.48,-161.01 1627.42,-150.86 1628.24,-141.99"/>
<polygon fill="midnightblue" stroke="midnightblue" points="1631.75,-142.03 1629.19,-131.75 1624.78,-141.39 1631.75,-142.03"/>
</g>
<!-- Node50&#45;&gt;Node25 -->
<g id="edge34" class="edge">
<title>Node50&#45;&gt;Node25</title>
<path fill="none" stroke="midnightblue" d="M1951.64,-280.44C1921.26,-271.28 1872.89,-256.69 1839.18,-246.52"/>
<polygon fill="midnightblue" stroke="midnightblue" points="1839.82,-243.05 1829.23,-243.52 1837.79,-249.76 1839.82,-243.05"/>
</g>
<!-- Node50&#45;&gt;Node48 -->
<g id="edge35" class="edge">
<title>Node50&#45;&gt;Node48</title>
<path fill="none" stroke="midnightblue" d="M1965.26,-280.41C1942.62,-267.38 1897.71,-242.2 1858,-224 1831.02,-211.64 1799.6,-199.58 1776.26,-191.07"/>
<polygon fill="midnightblue" stroke="midnightblue" points="1777.39,-187.75 1766.79,-187.64 1775.01,-194.34 1777.39,-187.75"/>
</g>
<!-- Node50&#45;&gt;Node51 -->
<g id="edge36" class="edge">
<title>Node50&#45;&gt;Node51</title>
<path fill="none" stroke="midnightblue" d="M2000.44,-280.44C2021.67,-271.56 2055.1,-257.56 2079.25,-247.45"/>
<polygon fill="midnightblue" stroke="midnightblue" points="2080.78,-250.61 2088.66,-243.52 2078.08,-244.15 2080.78,-250.61"/>
</g>
<!-- Node52 -->
<g id="node33" class="node">
<title>Node52</title>
<g id="a_node33"><a xlink:href="delegate_8h.html" target="_top" xlink:title=" ">
<polygon fill="white" stroke="black" points="2103.5,-56.5 2103.5,-75.5 2210.5,-75.5 2210.5,-56.5 2103.5,-56.5"/>
<text text-anchor="middle" x="2157" y="-63.5" font-family="FreeSans" font-size="10.00">magick/delegate.h</text>
</a>
</g>
</g>
<!-- Node51&#45;&gt;Node52 -->
<g id="edge37" class="edge">
<title>Node51&#45;&gt;Node52</title>
<path fill="none" stroke="midnightblue" d="M2131.46,-224.38C2146.77,-217.18 2165.86,-205.29 2175,-188 2192.63,-154.65 2177.13,-109.33 2165.98,-84.7"/>
<polygon fill="midnightblue" stroke="midnightblue" points="2169.06,-83.02 2161.59,-75.51 2162.75,-86.04 2169.06,-83.02"/>
</g>
<!-- Node53 -->
<g id="node34" class="node">
<title>Node53</title>
<g id="a_node34"><a xlink:href="delegate-private_8h.html" target="_top" xlink:title=" ">
<polygon fill="white" stroke="black" points="2222,-168.5 2222,-187.5 2368,-187.5 2368,-168.5 2222,-168.5"/>
<text text-anchor="middle" x="2295" y="-175.5" font-family="FreeSans" font-size="10.00">magick/delegate&#45;private.h</text>
</a>
</g>
</g>
<!-- Node51&#45;&gt;Node53 -->
<g id="edge40" class="edge">
<title>Node51&#45;&gt;Node53</title>
<path fill="none" stroke="midnightblue" d="M2138.47,-224.44C2170.17,-215.24 2220.73,-200.56 2255.77,-190.39"/>
<polygon fill="midnightblue" stroke="midnightblue" points="2257.04,-193.67 2265.67,-187.52 2255.09,-186.94 2257.04,-193.67"/>
</g>
<!-- Node51&#45;&gt;Node30 -->
<g id="edge47" class="edge">
<title>Node51&#45;&gt;Node30</title>
<path fill="none" stroke="midnightblue" d="M2087.77,-224.36C2072.65,-217.02 2053.26,-204.97 2043,-188 2023.74,-156.14 2024.35,-110.88 2026.61,-85.72"/>
<polygon fill="midnightblue" stroke="midnightblue" points="2030.1,-86.01 2027.7,-75.69 2023.14,-85.25 2030.1,-86.01"/>
</g>
<!-- Node54 -->
<g id="node37" class="node">
<title>Node54</title>
<g id="a_node37"><a xlink:href="splay-tree_8h.html" target="_top" xlink:title=" ">
<polygon fill="white" stroke="black" points="2052,-168.5 2052,-187.5 2166,-187.5 2166,-168.5 2052,-168.5"/>
<text text-anchor="middle" x="2109" y="-175.5" font-family="FreeSans" font-size="10.00">magick/splay&#45;tree.h</text>
</a>
</g>
</g>
<!-- Node51&#45;&gt;Node54 -->
<g id="edge48" class="edge">
<title>Node51&#45;&gt;Node54</title>
<path fill="none" stroke="midnightblue" d="M2109,-224.08C2109,-217.01 2109,-206.86 2109,-197.99"/>
<polygon fill="midnightblue" stroke="midnightblue" points="2112.5,-197.75 2109,-187.75 2105.5,-197.75 2112.5,-197.75"/>
</g>
<!-- Node52&#45;&gt;Node5 -->
<g id="edge38" class="edge">
<title>Node52&#45;&gt;Node5</title>
<path fill="none" stroke="midnightblue" d="M2166.32,-56.32C2174.89,-48.34 2187.81,-36.31 2198.19,-26.65"/>
<polygon fill="midnightblue" stroke="midnightblue" points="2200.58,-29.21 2205.51,-19.83 2195.81,-24.09 2200.58,-29.21"/>
</g>
<!-- Node52&#45;&gt;Node31 -->
<g id="edge39" class="edge">
<title>Node52&#45;&gt;Node31</title>
<path fill="none" stroke="midnightblue" d="M2147.52,-56.32C2138.8,-48.34 2125.66,-36.31 2115.1,-26.65"/>
<polygon fill="midnightblue" stroke="midnightblue" points="2117.39,-24 2107.65,-19.83 2112.67,-29.17 2117.39,-24"/>
</g>
<!-- Node53&#45;&gt;Node43 -->
<g id="edge41" class="edge">
<title>Node53&#45;&gt;Node43</title>
<path fill="none" stroke="midnightblue" d="M2305.12,-168.32C2314.53,-160.26 2328.74,-148.08 2340.07,-138.37"/>
<polygon fill="midnightblue" stroke="midnightblue" points="2342.38,-141 2347.69,-131.83 2337.82,-135.68 2342.38,-141"/>
</g>
<!-- Node43&#45;&gt;Node5 -->
<g id="edge42" class="edge">
<title>Node43&#45;&gt;Node5</title>
<path fill="none" stroke="midnightblue" d="M2357.85,-112.21C2357.14,-98.45 2353.8,-71.78 2339,-56 2316.63,-32.16 2280.65,-20.91 2253.19,-15.63"/>
<polygon fill="midnightblue" stroke="midnightblue" points="2253.58,-12.15 2243.13,-13.88 2252.39,-19.04 2253.58,-12.15"/>
</g>
<!-- Node43&#45;&gt;Node12 -->
<g id="edge43" class="edge">
<title>Node43&#45;&gt;Node12</title>
<path fill="none" stroke="midnightblue" d="M2308.94,-117.02C2234.19,-110.6 2087.43,-96.54 1964,-76 1961.78,-75.63 1959.5,-75.22 1957.21,-74.78"/>
<polygon fill="midnightblue" stroke="midnightblue" points="1957.7,-71.31 1947.2,-72.74 1956.3,-78.17 1957.7,-71.31"/>
</g>
<!-- Node43&#45;&gt;Node30 -->
<g id="edge44" class="edge">
<title>Node43&#45;&gt;Node30</title>
<path fill="none" stroke="midnightblue" d="M2308.75,-112.92C2250.76,-103.4 2154.37,-87.58 2091.26,-77.22"/>
<polygon fill="midnightblue" stroke="midnightblue" points="2091.47,-73.71 2081.04,-75.54 2090.34,-80.61 2091.47,-73.71"/>
</g>
<!-- Node30&#45;&gt;Node5 -->
<g id="edge45" class="edge">
<title>Node30&#45;&gt;Node5</title>
<path fill="none" stroke="midnightblue" d="M2058.47,-56.44C2090.54,-47.13 2141.92,-32.22 2177.01,-22.03"/>
<polygon fill="midnightblue" stroke="midnightblue" points="2178.26,-25.31 2186.88,-19.16 2176.3,-18.59 2178.26,-25.31"/>
</g>
<!-- Node30&#45;&gt;Node31 -->
<g id="edge46" class="edge">
<title>Node30&#45;&gt;Node31</title>
<path fill="none" stroke="midnightblue" d="M2040.09,-56.32C2050.49,-48.18 2066.26,-35.84 2078.72,-26.09"/>
<polygon fill="midnightblue" stroke="midnightblue" points="2080.99,-28.75 2086.71,-19.83 2076.68,-23.24 2080.99,-28.75"/>
</g>
<!-- Node55&#45;&gt;Node43 -->
<g id="edge57" class="edge">
<title>Node55&#45;&gt;Node43</title>
<path fill="none" stroke="midnightblue" d="M2509.48,-168.44C2478.93,-159.28 2430.29,-144.69 2396.4,-134.52"/>
<polygon fill="midnightblue" stroke="midnightblue" points="2396.97,-131.04 2386.39,-131.52 2394.96,-137.74 2396.97,-131.04"/>
</g>
<!-- Node55&#45;&gt;Node56 -->
<g id="edge51" class="edge">
<title>Node55&#45;&gt;Node56</title>
<path fill="none" stroke="midnightblue" d="M2537.17,-168.08C2536.52,-161.01 2535.58,-150.86 2534.76,-141.99"/>
<polygon fill="midnightblue" stroke="midnightblue" points="2538.22,-141.39 2533.81,-131.75 2531.25,-142.03 2538.22,-141.39"/>
</g>
<!-- Node57 -->
<g id="node40" class="node">
<title>Node57</title>
<g id="a_node40"><a xlink:href="magick_8h.html" target="_top" xlink:title=" ">
<polygon fill="white" stroke="black" points="2228.5,-56.5 2228.5,-75.5 2329.5,-75.5 2329.5,-56.5 2228.5,-56.5"/>
<text text-anchor="middle" x="2279" y="-63.5" font-family="FreeSans" font-size="10.00">magick/magick.h</text>
</a>
</g>
</g>
<!-- Node55&#45;&gt;Node57 -->
<g id="edge54" class="edge">
<title>Node55&#45;&gt;Node57</title>
<path fill="none" stroke="midnightblue" d="M2523.75,-168.36C2501.38,-155.05 2456.39,-129.24 2416,-112 2384.42,-98.52 2347.35,-86.57 2319.74,-78.37"/>
<polygon fill="midnightblue" stroke="midnightblue" points="2320.61,-74.98 2310.03,-75.53 2318.64,-81.7 2320.61,-74.98"/>
</g>
<!-- Node56&#45;&gt;Node5 -->
<g id="edge52" class="edge">
<title>Node56&#45;&gt;Node5</title>
<path fill="none" stroke="midnightblue" d="M2511.03,-112.43C2478,-99.64 2413.49,-75.02 2358,-56 2322.54,-43.84 2281.72,-31.12 2252.79,-22.32"/>
<polygon fill="midnightblue" stroke="midnightblue" points="2253.67,-18.93 2243.09,-19.38 2251.64,-25.63 2253.67,-18.93"/>
</g>
<!-- Node56&#45;&gt;Node30 -->
<g id="edge53" class="edge">
<title>Node56&#45;&gt;Node30</title>
<path fill="none" stroke="midnightblue" d="M2492.79,-117.32C2417.26,-110.3 2248.75,-94.2 2095.58,-76.03"/>
<polygon fill="midnightblue" stroke="midnightblue" points="2095.85,-72.54 2085.51,-74.83 2095.03,-79.49 2095.85,-72.54"/>
</g>
<!-- Node57&#45;&gt;Node5 -->
<g id="edge55" class="edge">
<title>Node57&#45;&gt;Node5</title>
<path fill="none" stroke="midnightblue" d="M2268.72,-56.32C2259.16,-48.26 2244.72,-36.08 2233.22,-26.37"/>
<polygon fill="midnightblue" stroke="midnightblue" points="2235.37,-23.61 2225.47,-19.83 2230.86,-28.96 2235.37,-23.61"/>
</g>
<!-- Node57&#45;&gt;Node31 -->
<g id="edge56" class="edge">
<title>Node57&#45;&gt;Node31</title>
<path fill="none" stroke="midnightblue" d="M2250.32,-56.44C2219.47,-47.24 2170.27,-32.56 2136.17,-22.39"/>
<polygon fill="midnightblue" stroke="midnightblue" points="2137.13,-19.02 2126.55,-19.52 2135.13,-25.73 2137.13,-19.02"/>
</g>
<!-- Node60&#45;&gt;Node9 -->
<g id="edge63" class="edge">
<title>Node60&#45;&gt;Node9</title>
<path fill="none" stroke="midnightblue" d="M1617.55,-224.44C1592.87,-215.44 1553.81,-201.19 1526.02,-191.05"/>
<polygon fill="midnightblue" stroke="midnightblue" points="1526.94,-187.66 1516.34,-187.52 1524.54,-194.23 1526.94,-187.66"/>
</g>
<!-- Node60&#45;&gt;Node15 -->
<g id="edge64" class="edge">
<title>Node60&#45;&gt;Node15</title>
<path fill="none" stroke="midnightblue" d="M1606.14,-224.44C1566.04,-214.6 1500.43,-198.5 1459.04,-188.34"/>
<polygon fill="midnightblue" stroke="midnightblue" points="1459.61,-184.87 1449.06,-185.89 1457.94,-191.67 1459.61,-184.87"/>
</g>
<!-- Node61&#45;&gt;Node37 -->
<g id="edge67" class="edge">
<title>Node61&#45;&gt;Node37</title>
<path fill="none" stroke="midnightblue" d="M1956.72,-224.32C1947.16,-216.26 1932.72,-204.08 1921.22,-194.37"/>
<polygon fill="midnightblue" stroke="midnightblue" points="1923.37,-191.61 1913.47,-187.83 1918.86,-196.96 1923.37,-191.61"/>
</g>
<!-- Node61&#45;&gt;Node30 -->
<g id="edge66" class="edge">
<title>Node61&#45;&gt;Node30</title>
<path fill="none" stroke="midnightblue" d="M1969.85,-224.43C1976.52,-204.54 1993.78,-153.77 2010,-112 2013.5,-103 2017.64,-93.1 2021.17,-84.88"/>
<polygon fill="midnightblue" stroke="midnightblue" points="2024.44,-86.13 2025.21,-75.57 2018.02,-83.35 2024.44,-86.13"/>
</g>
<!-- Node64&#45;&gt;Node43 -->
<g id="edge72" class="edge">
<title>Node64&#45;&gt;Node43</title>
<path fill="none" stroke="midnightblue" d="M2536.23,-224.43C2514.34,-216.18 2481.22,-202.81 2454,-188 2426.07,-172.8 2396.05,-151.61 2377.16,-137.61"/>
<polygon fill="midnightblue" stroke="midnightblue" points="2379.18,-134.74 2369.07,-131.55 2374.98,-140.34 2379.18,-134.74"/>
</g>
<!-- Node65&#45;&gt;Node39 -->
<g id="edge76" class="edge">
<title>Node65&#45;&gt;Node39</title>
<path fill="none" stroke="midnightblue" d="M1530.88,-280.27C1515.96,-267.48 1492.8,-243.1 1506,-224 1519.62,-204.29 1543.05,-193.21 1565.55,-186.97"/>
<polygon fill="midnightblue" stroke="midnightblue" points="1566.58,-190.33 1575.43,-184.51 1564.88,-183.53 1566.58,-190.33"/>
</g>
<!-- Node66 -->
<g id="node49" class="node">
<title>Node66</title>
<g id="a_node49"><a xlink:title=" ">
<polygon fill="white" stroke="#bfbfbf" points="1514.5,-224.5 1514.5,-243.5 1567.5,-243.5 1567.5,-224.5 1514.5,-224.5"/>
<text text-anchor="middle" x="1541" y="-231.5" font-family="FreeSans" font-size="10.00">string.h</text>
</a>
</g>
</g>
<!-- Node65&#45;&gt;Node66 -->
<g id="edge75" class="edge">
<title>Node65&#45;&gt;Node66</title>
<path fill="none" stroke="midnightblue" d="M1541.83,-280.08C1541.7,-273.01 1541.52,-262.86 1541.35,-253.99"/>
<polygon fill="midnightblue" stroke="midnightblue" points="1544.85,-253.68 1541.16,-243.75 1537.85,-253.81 1544.85,-253.68"/>
</g>
<!-- Node67&#45;&gt;Node51 -->
<g id="edge80" class="edge">
<title>Node67&#45;&gt;Node51</title>
<path fill="none" stroke="midnightblue" d="M1877.57,-280.44C1925.85,-270.96 2003.71,-255.67 2055.61,-245.48"/>
<polygon fill="midnightblue" stroke="midnightblue" points="2056.49,-248.88 2065.63,-243.52 2055.14,-242.01 2056.49,-248.88"/>
</g>
<!-- Node67&#45;&gt;Node60 -->
<g id="edge78" class="edge">
<title>Node67&#45;&gt;Node60</title>
<path fill="none" stroke="midnightblue" d="M1803.42,-280.44C1770.39,-271.2 1717.61,-256.44 1681.23,-246.26"/>
<polygon fill="midnightblue" stroke="midnightblue" points="1682.01,-242.84 1671.44,-243.52 1680.13,-249.58 1682.01,-242.84"/>
</g>
<!-- Node67&#45;&gt;Node61 -->
<g id="edge79" class="edge">
<title>Node67&#45;&gt;Node61</title>
<path fill="none" stroke="midnightblue" d="M1855.07,-280.44C1877.06,-271.52 1911.73,-257.44 1936.66,-247.32"/>
<polygon fill="midnightblue" stroke="midnightblue" points="1938.08,-250.52 1946.02,-243.52 1935.44,-244.04 1938.08,-250.52"/>
</g>
</g>
</svg>
