<?xml version="1.0" encoding="UTF-8" standalone="no"?>
<!DOCTYPE svg PUBLIC "-//W3C//DTD SVG 1.1//EN"
 "http://www.w3.org/Graphics/SVG/1.1/DTD/svg11.dtd">
<!-- Generated by graphviz version 2.43.0 (0)
 -->
<!-- Title: _PolygonInfo Pages: 1 -->
<svg width="176pt" height="162pt"
 viewBox="0.00 0.00 175.50 162.00" xmlns="http://www.w3.org/2000/svg" xmlns:xlink="http://www.w3.org/1999/xlink">
<g id="graph0" class="graph" transform="scale(1 1) rotate(0) translate(4 158)">
<title>_PolygonInfo</title>
<polygon fill="white" stroke="transparent" points="-4,4 -4,-158 171.5,-158 171.5,4 -4,4"/>
<!-- Node1 -->
<g id="node1" class="node">
<title>Node1</title>
<g id="a_node1"><a xlink:title=" ">
<polygon fill="#bfbfbf" stroke="black" points="48,-0.5 48,-19.5 128,-19.5 128,-0.5 48,-0.5"/>
<text text-anchor="middle" x="88" y="-7.5" font-family="FreeSans" font-size="10.00">_PolygonInfo</text>
</a>
</g>
</g>
<!-- Node2 -->
<g id="node2" class="node">
<title>Node2</title>
<g id="a_node2"><a xlink:href="struct__EdgeInfo.html" target="_top" xlink:title=" ">
<polygon fill="white" stroke="black" points="55.5,-67.5 55.5,-86.5 120.5,-86.5 120.5,-67.5 55.5,-67.5"/>
<text text-anchor="middle" x="88" y="-74.5" font-family="FreeSans" font-size="10.00">_EdgeInfo</text>
</a>
</g>
</g>
<!-- Node2&#45;&gt;Node1 -->
<g id="edge1" class="edge">
<title>Node2&#45;&gt;Node1</title>
<path fill="none" stroke="#9a32cd" stroke-dasharray="5,2" d="M88,-57.04C88,-44.67 88,-29.12 88,-19.63"/>
<polygon fill="#9a32cd" stroke="#9a32cd" points="84.5,-57.23 88,-67.23 91.5,-57.23 84.5,-57.23"/>
<text text-anchor="middle" x="104.5" y="-41" font-family="FreeSans" font-size="10.00"> edges</text>
</g>
<!-- Node3 -->
<g id="node3" class="node">
<title>Node3</title>
<g id="a_node3"><a xlink:href="struct__SegmentInfo.html" target="_top" xlink:title=" ">
<polygon fill="white" stroke="black" points="0,-134.5 0,-153.5 84,-153.5 84,-134.5 0,-134.5"/>
<text text-anchor="middle" x="42" y="-141.5" font-family="FreeSans" font-size="10.00">_SegmentInfo</text>
</a>
</g>
</g>
<!-- Node3&#45;&gt;Node2 -->
<g id="edge2" class="edge">
<title>Node3&#45;&gt;Node2</title>
<path fill="none" stroke="#9a32cd" stroke-dasharray="5,2" d="M54.1,-125.9C63.04,-113.27 74.83,-96.6 81.89,-86.63"/>
<polygon fill="#9a32cd" stroke="#9a32cd" points="51.12,-124.05 48.2,-134.23 56.84,-128.09 51.12,-124.05"/>
<text text-anchor="middle" x="87.5" y="-108" font-family="FreeSans" font-size="10.00"> bounds</text>
</g>
<!-- Node4 -->
<g id="node4" class="node">
<title>Node4</title>
<g id="a_node4"><a xlink:href="struct__PointInfo.html" target="_top" xlink:title=" ">
<polygon fill="white" stroke="black" points="102.5,-134.5 102.5,-153.5 167.5,-153.5 167.5,-134.5 102.5,-134.5"/>
<text text-anchor="middle" x="135" y="-141.5" font-family="FreeSans" font-size="10.00">_PointInfo</text>
</a>
</g>
</g>
<!-- Node4&#45;&gt;Node2 -->
<g id="edge3" class="edge">
<title>Node4&#45;&gt;Node2</title>
<path fill="none" stroke="#9a32cd" stroke-dasharray="5,2" d="M124.69,-125.53C120.62,-118.96 115.79,-111.5 111,-105 106.33,-98.65 100.58,-91.9 96,-86.74"/>
<polygon fill="#9a32cd" stroke="#9a32cd" points="121.83,-127.57 130,-134.32 127.82,-123.95 121.83,-127.57"/>
<text text-anchor="middle" x="135" y="-108" font-family="FreeSans" font-size="10.00"> points</text>
</g>
</g>
</svg>
