<?xml version="1.0" encoding="UTF-8" standalone="no"?>
<!DOCTYPE svg PUBLIC "-//W3C//DTD SVG 1.1//EN"
 "http://www.w3.org/Graphics/SVG/1.1/DTD/svg11.dtd">
<!-- Generated by graphviz version 2.43.0 (0)
 -->
<!-- Title: _XMLTreeRoot Pages: 1 -->
<svg width="251pt" height="208pt"
 viewBox="0.00 0.00 251.00 208.00" xmlns="http://www.w3.org/2000/svg" xmlns:xlink="http://www.w3.org/1999/xlink">
<g id="graph0" class="graph" transform="scale(1 1) rotate(0) translate(4 204)">
<title>_XMLTreeRoot</title>
<polygon fill="white" stroke="transparent" points="-4,4 -4,-204 247,-204 247,4 -4,4"/>
<!-- Node1 -->
<g id="node1" class="node">
<title>Node1</title>
<g id="a_node1"><a xlink:title=" ">
<polygon fill="#bfbfbf" stroke="black" points="24,-0.5 24,-19.5 109,-19.5 109,-0.5 24,-0.5"/>
<text text-anchor="middle" x="66.5" y="-7.5" font-family="FreeSans" font-size="10.00">_XMLTreeRoot</text>
</a>
</g>
</g>
<!-- Node2 -->
<g id="node2" class="node">
<title>Node2</title>
<g id="a_node2"><a xlink:href="struct__XMLTreeInfo.html" target="_top" xlink:title=" ">
<polygon fill="white" stroke="black" points="106,-96 106,-115 187,-115 187,-96 106,-96"/>
<text text-anchor="middle" x="146.5" y="-103" font-family="FreeSans" font-size="10.00">_XMLTreeInfo</text>
</a>
</g>
</g>
<!-- Node2&#45;&gt;Node1 -->
<g id="edge1" class="edge">
<title>Node2&#45;&gt;Node1</title>
<path fill="none" stroke="#9a32cd" stroke-dasharray="5,2" d="M132.56,-88.21C115.49,-68.25 87.19,-35.18 73.86,-19.61"/>
<polygon fill="#9a32cd" stroke="#9a32cd" points="129.96,-90.55 139.12,-95.87 135.28,-86 129.96,-90.55"/>
<text text-anchor="middle" x="120.5" y="-52" font-family="FreeSans" font-size="10.00"> node</text>
<text text-anchor="middle" x="120.5" y="-41" font-family="FreeSans" font-size="10.00">root</text>
</g>
<!-- Node2&#45;&gt;Node2 -->
<g id="edge2" class="edge">
<title>Node2&#45;&gt;Node2</title>
<path fill="none" stroke="#9a32cd" stroke-dasharray="5,2" d="M197.32,-112.99C202.03,-111.45 205,-108.95 205,-105.5 205,-99.98 197.4,-96.9 187.23,-96.25"/>
<polygon fill="#9a32cd" stroke="#9a32cd" points="196.49,-109.58 187.23,-114.75 197.69,-116.48 196.49,-109.58"/>
<text text-anchor="middle" x="224" y="-125" font-family="FreeSans" font-size="10.00"> child</text>
<text text-anchor="middle" x="224" y="-114" font-family="FreeSans" font-size="10.00">next</text>
<text text-anchor="middle" x="224" y="-103" font-family="FreeSans" font-size="10.00">ordered</text>
<text text-anchor="middle" x="224" y="-92" font-family="FreeSans" font-size="10.00">parent</text>
<text text-anchor="middle" x="224" y="-81" font-family="FreeSans" font-size="10.00">sibling</text>
</g>
<!-- Node3 -->
<g id="node3" class="node">
<title>Node3</title>
<g id="a_node3"><a xlink:href="structSemaphoreInfo.html" target="_top" xlink:title=" ">
<polygon fill="white" stroke="black" points="0,-180.5 0,-199.5 91,-199.5 91,-180.5 0,-180.5"/>
<text text-anchor="middle" x="45.5" y="-187.5" font-family="FreeSans" font-size="10.00">SemaphoreInfo</text>
</a>
</g>
</g>
<!-- Node3&#45;&gt;Node1 -->
<g id="edge4" class="edge">
<title>Node3&#45;&gt;Node1</title>
<path fill="none" stroke="#9a32cd" stroke-dasharray="5,2" d="M41.71,-170.19C37.87,-147.96 33.31,-109.94 39.5,-78 43.75,-56.09 55.14,-32.25 61.69,-19.77"/>
<polygon fill="#9a32cd" stroke="#9a32cd" points="38.32,-171.08 43.6,-180.27 45.2,-169.79 38.32,-171.08"/>
<text text-anchor="middle" x="68.5" y="-103" font-family="FreeSans" font-size="10.00"> semaphore</text>
</g>
<!-- Node3&#45;&gt;Node2 -->
<g id="edge3" class="edge">
<title>Node3&#45;&gt;Node2</title>
<path fill="none" stroke="#9a32cd" stroke-dasharray="5,2" d="M63.85,-174.01C84.96,-156.77 118.9,-129.04 135.98,-115.1"/>
<polygon fill="#9a32cd" stroke="#9a32cd" points="61.46,-171.44 55.93,-180.48 65.89,-176.87 61.46,-171.44"/>
<text text-anchor="middle" x="118.5" y="-154" font-family="FreeSans" font-size="10.00"> semaphore</text>
</g>
</g>
</svg>
