<?xml version="1.0" encoding="UTF-8" standalone="no"?>
<!DOCTYPE svg PUBLIC "-//W3C//DTD SVG 1.1//EN"
 "http://www.w3.org/Graphics/SVG/1.1/DTD/svg11.dtd">
<!-- Generated by graphviz version 2.43.0 (0)
 -->
<!-- Title: _GradientInfo Pages: 1 -->
<svg width="368pt" height="173pt"
 viewBox="0.00 0.00 368.00 173.00" xmlns="http://www.w3.org/2000/svg" xmlns:xlink="http://www.w3.org/1999/xlink">
<g id="graph0" class="graph" transform="scale(1 1) rotate(0) translate(4 169)">
<title>_GradientInfo</title>
<polygon fill="white" stroke="transparent" points="-4,4 -4,-169 364,-169 364,4 -4,4"/>
<!-- Node1 -->
<g id="node1" class="node">
<title>Node1</title>
<g id="a_node1"><a xlink:title=" ">
<polygon fill="#bfbfbf" stroke="black" points="158,-0.5 158,-19.5 241,-19.5 241,-0.5 158,-0.5"/>
<text text-anchor="middle" x="199.5" y="-7.5" font-family="FreeSans" font-size="10.00">_GradientInfo</text>
</a>
</g>
</g>
<!-- Node2 -->
<g id="node2" class="node">
<title>Node2</title>
<g id="a_node2"><a xlink:href="struct__RectangleInfo.html" target="_top" xlink:title=" ">
<polygon fill="white" stroke="black" points="0,-78.5 0,-97.5 89,-97.5 89,-78.5 0,-78.5"/>
<text text-anchor="middle" x="44.5" y="-85.5" font-family="FreeSans" font-size="10.00">_RectangleInfo</text>
</a>
</g>
</g>
<!-- Node2&#45;&gt;Node1 -->
<g id="edge1" class="edge">
<title>Node2&#45;&gt;Node1</title>
<path fill="none" stroke="#9a32cd" stroke-dasharray="5,2" d="M47.63,-68.39C50.34,-57.96 55.35,-45.56 64.5,-38 78.51,-26.43 123.47,-19.08 157.7,-15.02"/>
<polygon fill="#9a32cd" stroke="#9a32cd" points="44.18,-67.77 45.55,-78.27 51.03,-69.21 44.18,-67.77"/>
<text text-anchor="middle" x="100.5" y="-46.5" font-family="FreeSans" font-size="10.00"> bounding_box</text>
</g>
<!-- Node3 -->
<g id="node3" class="node">
<title>Node3</title>
<g id="a_node3"><a xlink:href="struct__SegmentInfo.html" target="_top" xlink:title=" ">
<polygon fill="white" stroke="black" points="106.5,-78.5 106.5,-97.5 190.5,-97.5 190.5,-78.5 106.5,-78.5"/>
<text text-anchor="middle" x="148.5" y="-85.5" font-family="FreeSans" font-size="10.00">_SegmentInfo</text>
</a>
</g>
</g>
<!-- Node3&#45;&gt;Node1 -->
<g id="edge2" class="edge">
<title>Node3&#45;&gt;Node1</title>
<path fill="none" stroke="#9a32cd" stroke-dasharray="5,2" d="M142.47,-68.41C140.47,-58.68 139.97,-46.95 145.5,-38 150.73,-29.53 159.52,-23.63 168.5,-19.55"/>
<polygon fill="#9a32cd" stroke="#9a32cd" points="139.16,-69.55 145.13,-78.3 145.92,-67.73 139.16,-69.55"/>
<text text-anchor="middle" x="185.5" y="-46.5" font-family="FreeSans" font-size="10.00"> gradient_vector</text>
</g>
<!-- Node4 -->
<g id="node4" class="node">
<title>Node4</title>
<g id="a_node4"><a xlink:href="struct__StopInfo.html" target="_top" xlink:title=" ">
<polygon fill="white" stroke="black" points="214.5,-78.5 214.5,-97.5 276.5,-97.5 276.5,-78.5 214.5,-78.5"/>
<text text-anchor="middle" x="245.5" y="-85.5" font-family="FreeSans" font-size="10.00">_StopInfo</text>
</a>
</g>
</g>
<!-- Node4&#45;&gt;Node1 -->
<g id="edge3" class="edge">
<title>Node4&#45;&gt;Node1</title>
<path fill="none" stroke="#9a32cd" stroke-dasharray="5,2" d="M241.92,-68.66C239.46,-59 235.53,-47.27 229.5,-38 224.84,-30.83 217.81,-24.37 211.72,-19.56"/>
<polygon fill="#9a32cd" stroke="#9a32cd" points="238.51,-69.44 244.11,-78.44 245.34,-67.92 238.51,-69.44"/>
<text text-anchor="middle" x="253.5" y="-46.5" font-family="FreeSans" font-size="10.00"> stops</text>
</g>
<!-- Node5 -->
<g id="node5" class="node">
<title>Node5</title>
<g id="a_node5"><a xlink:href="struct__MagickPixelPacket.html" target="_top" xlink:title=" ">
<polygon fill="white" stroke="black" points="189.5,-145.5 189.5,-164.5 301.5,-164.5 301.5,-145.5 189.5,-145.5"/>
<text text-anchor="middle" x="245.5" y="-152.5" font-family="FreeSans" font-size="10.00">_MagickPixelPacket</text>
</a>
</g>
</g>
<!-- Node5&#45;&gt;Node4 -->
<g id="edge4" class="edge">
<title>Node5&#45;&gt;Node4</title>
<path fill="none" stroke="#9a32cd" stroke-dasharray="5,2" d="M245.5,-135.04C245.5,-122.67 245.5,-107.12 245.5,-97.63"/>
<polygon fill="#9a32cd" stroke="#9a32cd" points="242,-135.23 245.5,-145.23 249,-135.23 242,-135.23"/>
<text text-anchor="middle" x="259.5" y="-119" font-family="FreeSans" font-size="10.00"> color</text>
</g>
<!-- Node6 -->
<g id="node6" class="node">
<title>Node6</title>
<g id="a_node6"><a xlink:href="struct__PointInfo.html" target="_top" xlink:title=" ">
<polygon fill="white" stroke="black" points="295,-78.5 295,-97.5 360,-97.5 360,-78.5 295,-78.5"/>
<text text-anchor="middle" x="327.5" y="-85.5" font-family="FreeSans" font-size="10.00">_PointInfo</text>
</a>
</g>
</g>
<!-- Node6&#45;&gt;Node1 -->
<g id="edge5" class="edge">
<title>Node6&#45;&gt;Node1</title>
<path fill="none" stroke="#9a32cd" stroke-dasharray="5,2" d="M312.65,-70.94C302.23,-60.43 287.52,-47.03 272.5,-38 259.41,-30.14 243.65,-23.95 230.13,-19.5"/>
<polygon fill="#9a32cd" stroke="#9a32cd" points="310.26,-73.51 319.71,-78.29 315.3,-68.66 310.26,-73.51"/>
<text text-anchor="middle" x="317.5" y="-52" font-family="FreeSans" font-size="10.00"> center</text>
<text text-anchor="middle" x="317.5" y="-41" font-family="FreeSans" font-size="10.00">radii</text>
</g>
</g>
</svg>
