<?xml version="1.0" encoding="UTF-8" standalone="no"?>
<!DOCTYPE svg PUBLIC "-//W3C//DTD SVG 1.1//EN"
 "http://www.w3.org/Graphics/SVG/1.1/DTD/svg11.dtd">
<!-- Generated by graphviz version 2.43.0 (0)
 -->
<!-- Title: _ChromaticityInfo Pages: 1 -->
<svg width="132pt" height="128pt"
 viewBox="0.00 0.00 132.00 128.00" xmlns="http://www.w3.org/2000/svg" xmlns:xlink="http://www.w3.org/1999/xlink">
<g id="graph0" class="graph" transform="scale(1 1) rotate(0) translate(4 124)">
<title>_ChromaticityInfo</title>
<polygon fill="white" stroke="transparent" points="-4,4 -4,-124 128,-124 128,4 -4,4"/>
<!-- Node1 -->
<g id="node1" class="node">
<title>Node1</title>
<g id="a_node1"><a xlink:title=" ">
<polygon fill="#bfbfbf" stroke="black" points="0,-0.5 0,-19.5 104,-19.5 104,-0.5 0,-0.5"/>
<text text-anchor="middle" x="52" y="-7.5" font-family="FreeSans" font-size="10.00">_ChromaticityInfo</text>
</a>
</g>
</g>
<!-- Node2 -->
<g id="node2" class="node">
<title>Node2</title>
<g id="a_node2"><a xlink:href="struct__PrimaryInfo.html" target="_top" xlink:title=" ">
<polygon fill="white" stroke="black" points="12.5,-100.5 12.5,-119.5 91.5,-119.5 91.5,-100.5 12.5,-100.5"/>
<text text-anchor="middle" x="52" y="-107.5" font-family="FreeSans" font-size="10.00">_PrimaryInfo</text>
</a>
</g>
</g>
<!-- Node2&#45;&gt;Node1 -->
<g id="edge1" class="edge">
<title>Node2&#45;&gt;Node1</title>
<path fill="none" stroke="#9a32cd" stroke-dasharray="5,2" d="M52,-90.22C52,-68.95 52,-35.22 52,-19.54"/>
<polygon fill="#9a32cd" stroke="#9a32cd" points="48.5,-90.3 52,-100.3 55.5,-90.3 48.5,-90.3"/>
<text text-anchor="middle" x="88" y="-74" font-family="FreeSans" font-size="10.00"> blue_primary</text>
<text text-anchor="middle" x="88" y="-63" font-family="FreeSans" font-size="10.00">green_primary</text>
<text text-anchor="middle" x="88" y="-52" font-family="FreeSans" font-size="10.00">red_primary</text>
<text text-anchor="middle" x="88" y="-41" font-family="FreeSans" font-size="10.00">white_point</text>
</g>
</g>
</svg>
