<?xml version="1.0" encoding="UTF-8" standalone="no"?>
<!DOCTYPE svg PUBLIC "-//W3C//DTD SVG 1.1//EN"
 "http://www.w3.org/Graphics/SVG/1.1/DTD/svg11.dtd">
<!-- Generated by graphviz version 2.43.0 (0)
 -->
<!-- Title: _ResampleFilter Pages: 1 -->
<svg width="916pt" height="553pt"
 viewBox="0.00 0.00 916.00 553.39" xmlns="http://www.w3.org/2000/svg" xmlns:xlink="http://www.w3.org/1999/xlink">
<g id="graph0" class="graph" transform="scale(1 1) rotate(0) translate(4 549.39)">
<title>_ResampleFilter</title>
<polygon fill="white" stroke="transparent" points="-4,4 -4,-549.39 912,-549.39 912,4 -4,4"/>
<!-- Node1 -->
<g id="node1" class="node">
<title>Node1</title>
<g id="a_node1"><a xlink:title=" ">
<polygon fill="#bfbfbf" stroke="black" points="813,-307.89 813,-326.89 908,-326.89 908,-307.89 813,-307.89"/>
<text text-anchor="middle" x="860.5" y="-314.89" font-family="FreeSans" font-size="10.00">_ResampleFilter</text>
</a>
</g>
</g>
<!-- Node2 -->
<g id="node2" class="node">
<title>Node2</title>
<g id="a_node2"><a xlink:href="struct__CacheView.html" target="_top" xlink:title=" ">
<polygon fill="white" stroke="black" points="611,-274.89 611,-293.89 687,-293.89 687,-274.89 611,-274.89"/>
<text text-anchor="middle" x="649" y="-281.89" font-family="FreeSans" font-size="10.00">_CacheView</text>
</a>
</g>
</g>
<!-- Node2&#45;&gt;Node1 -->
<g id="edge1" class="edge">
<title>Node2&#45;&gt;Node1</title>
<path fill="none" stroke="#9a32cd" stroke-dasharray="5,2" d="M697.07,-290.72C725.48,-294.66 762.37,-299.99 795,-305.39 800.73,-306.34 806.74,-307.38 812.68,-308.45"/>
<polygon fill="#9a32cd" stroke="#9a32cd" points="697.4,-287.23 687.01,-289.33 696.44,-294.17 697.4,-287.23"/>
<text text-anchor="middle" x="759" y="-308.39" font-family="FreeSans" font-size="10.00"> view</text>
</g>
<!-- Node3 -->
<g id="node3" class="node">
<title>Node3</title>
<g id="a_node3"><a xlink:href="struct__Image.html" target="_top" xlink:title=" ">
<polygon fill="white" stroke="black" points="438,-318.89 438,-337.89 491,-337.89 491,-318.89 438,-318.89"/>
<text text-anchor="middle" x="464.5" y="-325.89" font-family="FreeSans" font-size="10.00">_Image</text>
</a>
</g>
</g>
<!-- Node3&#45;&gt;Node1 -->
<g id="edge24" class="edge">
<title>Node3&#45;&gt;Node1</title>
<path fill="none" stroke="#9a32cd" stroke-dasharray="5,2" d="M501.34,-327.39C572.87,-325.39 733.31,-320.91 812.9,-318.69"/>
<polygon fill="#9a32cd" stroke="#9a32cd" points="500.95,-323.9 491.05,-327.68 501.14,-330.89 500.95,-323.9"/>
<text text-anchor="middle" x="649" y="-327.39" font-family="FreeSans" font-size="10.00"> image</text>
</g>
<!-- Node3&#45;&gt;Node2 -->
<g id="edge2" class="edge">
<title>Node3&#45;&gt;Node2</title>
<path fill="none" stroke="#9a32cd" stroke-dasharray="5,2" d="M493.79,-314.44C501.5,-311.07 509.95,-307.76 518,-305.39 548.59,-296.38 584.45,-290.95 610.74,-287.88"/>
<polygon fill="#9a32cd" stroke="#9a32cd" points="492.16,-311.34 484.51,-318.67 495.06,-317.7 492.16,-311.34"/>
<text text-anchor="middle" x="546.5" y="-308.39" font-family="FreeSans" font-size="10.00"> image</text>
</g>
<!-- Node3&#45;&gt;Node3 -->
<g id="edge7" class="edge">
<title>Node3&#45;&gt;Node3</title>
<path fill="none" stroke="#9a32cd" stroke-dasharray="5,2" d="M449.4,-348.16C450.59,-352.89 455.62,-356.39 464.5,-356.39 479.07,-356.39 483.29,-346.95 477.14,-338.15"/>
<polygon fill="#9a32cd" stroke="#9a32cd" points="452.87,-348.69 451.86,-338.15 446.07,-347.02 452.87,-348.69"/>
<text text-anchor="middle" x="464.5" y="-403.39" font-family="FreeSans" font-size="10.00"> clip_mask</text>
<text text-anchor="middle" x="464.5" y="-392.39" font-family="FreeSans" font-size="10.00">list</text>
<text text-anchor="middle" x="464.5" y="-381.39" font-family="FreeSans" font-size="10.00">mask</text>
<text text-anchor="middle" x="464.5" y="-370.39" font-family="FreeSans" font-size="10.00">next</text>
<text text-anchor="middle" x="464.5" y="-359.39" font-family="FreeSans" font-size="10.00">previous</text>
</g>
<!-- Node12 -->
<g id="node12" class="node">
<title>Node12</title>
<g id="a_node12"><a xlink:href="struct__BlobInfo.html" target="_top" xlink:title=" ">
<polygon fill="white" stroke="black" points="618,-412.89 618,-431.89 680,-431.89 680,-412.89 618,-412.89"/>
<text text-anchor="middle" x="649" y="-419.89" font-family="FreeSans" font-size="10.00">_BlobInfo</text>
</a>
</g>
</g>
<!-- Node3&#45;&gt;Node12 -->
<g id="edge14" class="edge">
<title>Node3&#45;&gt;Node12</title>
<path fill="none" stroke="#9a32cd" stroke-dasharray="5,2" d="M500.94,-339.72C527.68,-348.51 561.92,-360.35 575,-367.39 599.03,-380.33 623.72,-400.71 637.34,-412.69"/>
<polygon fill="#9a32cd" stroke="#9a32cd" points="501.71,-336.29 491.12,-336.52 499.54,-342.94 501.71,-336.29"/>
<text text-anchor="middle" x="546.5" y="-370.39" font-family="FreeSans" font-size="10.00"> stream</text>
</g>
<!-- Node4 -->
<g id="node4" class="node">
<title>Node4</title>
<g id="a_node4"><a xlink:href="struct__PixelPacket.html" target="_top" xlink:title=" ">
<polygon fill="white" stroke="black" points="212.5,-125.89 212.5,-144.89 289.5,-144.89 289.5,-125.89 212.5,-125.89"/>
<text text-anchor="middle" x="251" y="-132.89" font-family="FreeSans" font-size="10.00">_PixelPacket</text>
</a>
</g>
</g>
<!-- Node4&#45;&gt;Node3 -->
<g id="edge3" class="edge">
<title>Node4&#45;&gt;Node3</title>
<path fill="none" stroke="#9a32cd" stroke-dasharray="5,2" d="M300.26,-135.09C335.09,-137.42 381.07,-146.09 411,-173.39 454.87,-213.4 462.1,-291.39 463.28,-318.68"/>
<polygon fill="#9a32cd" stroke="#9a32cd" points="300,-131.57 289.83,-134.56 299.64,-138.56 300,-131.57"/>
<text text-anchor="middle" x="366" y="-220.39" font-family="FreeSans" font-size="10.00"> background_color</text>
<text text-anchor="middle" x="366" y="-209.39" font-family="FreeSans" font-size="10.00">border_color</text>
<text text-anchor="middle" x="366" y="-198.39" font-family="FreeSans" font-size="10.00">colormap</text>
<text text-anchor="middle" x="366" y="-187.39" font-family="FreeSans" font-size="10.00">matte_color</text>
<text text-anchor="middle" x="366" y="-176.39" font-family="FreeSans" font-size="10.00">transparent_color</text>
</g>
<!-- Node17 -->
<g id="node17" class="node">
<title>Node17</title>
<g id="a_node17"><a xlink:href="struct__NexusInfo.html" target="_top" xlink:title=" ">
<polygon fill="white" stroke="black" points="429,-103.89 429,-122.89 500,-122.89 500,-103.89 429,-103.89"/>
<text text-anchor="middle" x="464.5" y="-110.89" font-family="FreeSans" font-size="10.00">_NexusInfo</text>
</a>
</g>
</g>
<!-- Node4&#45;&gt;Node17 -->
<g id="edge22" class="edge">
<title>Node4&#45;&gt;Node17</title>
<path fill="none" stroke="#9a32cd" stroke-dasharray="5,2" d="M286.69,-122.7C297.53,-119.32 309.63,-116.12 321,-114.39 357.44,-108.84 399.74,-109.41 428.73,-110.86"/>
<polygon fill="#9a32cd" stroke="#9a32cd" points="285.57,-119.38 277.15,-125.82 287.75,-126.04 285.57,-119.38"/>
<text text-anchor="middle" x="366" y="-128.39" font-family="FreeSans" font-size="10.00"> cache</text>
<text text-anchor="middle" x="366" y="-117.39" font-family="FreeSans" font-size="10.00">pixels</text>
</g>
<!-- Node5 -->
<g id="node5" class="node">
<title>Node5</title>
<g id="a_node5"><a xlink:href="struct__ChromaticityInfo.html" target="_top" xlink:title=" ">
<polygon fill="white" stroke="black" points="199,-387.89 199,-406.89 303,-406.89 303,-387.89 199,-387.89"/>
<text text-anchor="middle" x="251" y="-394.89" font-family="FreeSans" font-size="10.00">_ChromaticityInfo</text>
</a>
</g>
</g>
<!-- Node5&#45;&gt;Node3 -->
<g id="edge4" class="edge">
<title>Node5&#45;&gt;Node3</title>
<path fill="none" stroke="#9a32cd" stroke-dasharray="5,2" d="M313.05,-391.14C343.4,-386.54 380.09,-378.68 411,-365.39 426.77,-358.6 442.57,-346.59 452.65,-338.1"/>
<polygon fill="#9a32cd" stroke="#9a32cd" points="312.42,-387.69 303.02,-392.58 313.41,-394.62 312.42,-387.69"/>
<text text-anchor="middle" x="366" y="-392.39" font-family="FreeSans" font-size="10.00"> chromaticity</text>
</g>
<!-- Node6 -->
<g id="node6" class="node">
<title>Node6</title>
<g id="a_node6"><a xlink:href="struct__PrimaryInfo.html" target="_top" xlink:title=" ">
<polygon fill="white" stroke="black" points="6,-374.89 6,-393.89 85,-393.89 85,-374.89 6,-374.89"/>
<text text-anchor="middle" x="45.5" y="-381.89" font-family="FreeSans" font-size="10.00">_PrimaryInfo</text>
</a>
</g>
</g>
<!-- Node6&#45;&gt;Node5 -->
<g id="edge5" class="edge">
<title>Node6&#45;&gt;Node5</title>
<path fill="none" stroke="#9a32cd" stroke-dasharray="5,2" d="M95.32,-382.82C120.89,-382.49 152.69,-382.84 181,-385.39 187.54,-385.98 194.39,-386.85 201.13,-387.87"/>
<polygon fill="#9a32cd" stroke="#9a32cd" points="95.08,-379.33 85.14,-382.99 95.19,-386.32 95.08,-379.33"/>
<text text-anchor="middle" x="145" y="-421.39" font-family="FreeSans" font-size="10.00"> blue_primary</text>
<text text-anchor="middle" x="145" y="-410.39" font-family="FreeSans" font-size="10.00">green_primary</text>
<text text-anchor="middle" x="145" y="-399.39" font-family="FreeSans" font-size="10.00">red_primary</text>
<text text-anchor="middle" x="145" y="-388.39" font-family="FreeSans" font-size="10.00">white_point</text>
</g>
<!-- Node7 -->
<g id="node7" class="node">
<title>Node7</title>
<g id="a_node7"><a xlink:href="struct__RectangleInfo.html" target="_top" xlink:title=" ">
<polygon fill="white" stroke="black" points="206.5,-19.89 206.5,-38.89 295.5,-38.89 295.5,-19.89 206.5,-19.89"/>
<text text-anchor="middle" x="251" y="-26.89" font-family="FreeSans" font-size="10.00">_RectangleInfo</text>
</a>
</g>
</g>
<!-- Node7&#45;&gt;Node3 -->
<g id="edge6" class="edge">
<title>Node7&#45;&gt;Node3</title>
<path fill="none" stroke="#9a32cd" stroke-dasharray="5,2" d="M305.66,-26.23C340.4,-27.24 384.03,-34.75 411,-62.39 442.23,-94.4 420.48,-117.49 429,-161.39 440.62,-221.26 455.88,-292.91 461.4,-318.62"/>
<polygon fill="#9a32cd" stroke="#9a32cd" points="305.7,-22.73 295.66,-26.11 305.62,-29.73 305.7,-22.73"/>
<text text-anchor="middle" x="366" y="-98.39" font-family="FreeSans" font-size="10.00"> extract_info</text>
<text text-anchor="middle" x="366" y="-87.39" font-family="FreeSans" font-size="10.00">page</text>
<text text-anchor="middle" x="366" y="-76.39" font-family="FreeSans" font-size="10.00">tile_info</text>
<text text-anchor="middle" x="366" y="-65.39" font-family="FreeSans" font-size="10.00">tile_offset</text>
</g>
<!-- Node7&#45;&gt;Node17 -->
<g id="edge21" class="edge">
<title>Node7&#45;&gt;Node17</title>
<path fill="none" stroke="#9a32cd" stroke-dasharray="5,2" d="M282.18,-16.14C316.06,-3.46 371.45,10.51 411,-13.39 444.39,-33.57 457.59,-82.8 461.82,-103.73"/>
<polygon fill="#9a32cd" stroke="#9a32cd" points="280.84,-12.91 272.81,-19.82 283.4,-19.42 280.84,-12.91"/>
<text text-anchor="middle" x="366" y="-16.39" font-family="FreeSans" font-size="10.00"> region</text>
</g>
<!-- Node8 -->
<g id="node8" class="node">
<title>Node8</title>
<g id="a_node8"><a xlink:href="struct__ErrorInfo.html" target="_top" xlink:title=" ">
<polygon fill="white" stroke="black" points="219,-311.89 219,-330.89 283,-330.89 283,-311.89 219,-311.89"/>
<text text-anchor="middle" x="251" y="-318.89" font-family="FreeSans" font-size="10.00">_ErrorInfo</text>
</a>
</g>
</g>
<!-- Node8&#45;&gt;Node3 -->
<g id="edge8" class="edge">
<title>Node8&#45;&gt;Node3</title>
<path fill="none" stroke="#9a32cd" stroke-dasharray="5,2" d="M293.32,-322.76C336.18,-324.18 401.88,-326.35 437.82,-327.54"/>
<polygon fill="#9a32cd" stroke="#9a32cd" points="293.32,-319.25 283.21,-322.42 293.09,-326.25 293.32,-319.25"/>
<text text-anchor="middle" x="366" y="-329.39" font-family="FreeSans" font-size="10.00"> error</text>
</g>
<!-- Node9 -->
<g id="node9" class="node">
<title>Node9</title>
<g id="a_node9"><a xlink:href="struct__TimerInfo.html" target="_top" xlink:title=" ">
<polygon fill="white" stroke="black" points="216.5,-349.89 216.5,-368.89 285.5,-368.89 285.5,-349.89 216.5,-349.89"/>
<text text-anchor="middle" x="251" y="-356.89" font-family="FreeSans" font-size="10.00">_TimerInfo</text>
</a>
</g>
</g>
<!-- Node9&#45;&gt;Node3 -->
<g id="edge9" class="edge">
<title>Node9&#45;&gt;Node3</title>
<path fill="none" stroke="#9a32cd" stroke-dasharray="5,2" d="M295.51,-354.32C327.52,-350.43 372.06,-344.66 411,-338.39 419.79,-336.97 429.38,-335.21 437.92,-333.56"/>
<polygon fill="#9a32cd" stroke="#9a32cd" points="295.09,-350.84 285.58,-355.52 295.93,-357.79 295.09,-350.84"/>
<text text-anchor="middle" x="366" y="-353.39" font-family="FreeSans" font-size="10.00"> timer</text>
</g>
<!-- Node10 -->
<g id="node10" class="node">
<title>Node10</title>
<g id="a_node10"><a xlink:href="struct__Timer.html" target="_top" xlink:title=" ">
<polygon fill="white" stroke="black" points="20.5,-329.89 20.5,-348.89 70.5,-348.89 70.5,-329.89 20.5,-329.89"/>
<text text-anchor="middle" x="45.5" y="-336.89" font-family="FreeSans" font-size="10.00">_Timer</text>
</a>
</g>
</g>
<!-- Node10&#45;&gt;Node9 -->
<g id="edge10" class="edge">
<title>Node10&#45;&gt;Node9</title>
<path fill="none" stroke="#9a32cd" stroke-dasharray="5,2" d="M80.66,-342.75C118.43,-346.46 178.9,-352.4 216.44,-356.09"/>
<polygon fill="#9a32cd" stroke="#9a32cd" points="80.94,-339.26 70.64,-341.76 80.25,-346.22 80.94,-339.26"/>
<text text-anchor="middle" x="145" y="-365.39" font-family="FreeSans" font-size="10.00"> elapsed</text>
<text text-anchor="middle" x="145" y="-354.39" font-family="FreeSans" font-size="10.00">user</text>
</g>
<!-- Node11 -->
<g id="node11" class="node">
<title>Node11</title>
<g id="a_node11"><a xlink:href="struct__Ascii85Info.html" target="_top" xlink:title=" ">
<polygon fill="white" stroke="black" points="213,-273.89 213,-292.89 289,-292.89 289,-273.89 213,-273.89"/>
<text text-anchor="middle" x="251" y="-280.89" font-family="FreeSans" font-size="10.00">_Ascii85Info</text>
</a>
</g>
</g>
<!-- Node11&#45;&gt;Node3 -->
<g id="edge11" class="edge">
<title>Node11&#45;&gt;Node3</title>
<path fill="none" stroke="#9a32cd" stroke-dasharray="5,2" d="M299.04,-288.18C330.97,-292.07 373.96,-298.54 411,-308.39 421.27,-311.12 432.32,-315.15 441.61,-318.88"/>
<polygon fill="#9a32cd" stroke="#9a32cd" points="299.42,-284.7 289.08,-287.01 298.6,-291.65 299.42,-284.7"/>
<text text-anchor="middle" x="366" y="-311.39" font-family="FreeSans" font-size="10.00"> ascii85</text>
</g>
<!-- Node12&#45;&gt;Node3 -->
<g id="edge12" class="edge">
<title>Node12&#45;&gt;Node3</title>
<path fill="none" stroke="#9a32cd" stroke-dasharray="5,2" d="M607.99,-415.49C581.11,-409.61 545.69,-399.32 518,-382.39 498.82,-370.65 481.71,-350.31 472.55,-338.22"/>
<polygon fill="#9a32cd" stroke="#9a32cd" points="607.34,-418.93 617.84,-417.54 608.76,-412.08 607.34,-418.93"/>
<text text-anchor="middle" x="546.5" y="-408.39" font-family="FreeSans" font-size="10.00"> blob</text>
</g>
<!-- Node13 -->
<g id="node13" class="node">
<title>Node13</title>
<g id="a_node13"><a xlink:href="unionFileInfo.html" target="_top" xlink:title=" ">
<polygon fill="white" stroke="black" points="438,-429.89 438,-448.89 491,-448.89 491,-429.89 438,-429.89"/>
<text text-anchor="middle" x="464.5" y="-436.89" font-family="FreeSans" font-size="10.00">FileInfo</text>
</a>
</g>
</g>
<!-- Node13&#45;&gt;Node12 -->
<g id="edge13" class="edge">
<title>Node13&#45;&gt;Node12</title>
<path fill="none" stroke="#9a32cd" stroke-dasharray="5,2" d="M501.24,-436.06C535.23,-432.89 585.8,-428.18 617.82,-425.2"/>
<polygon fill="#9a32cd" stroke="#9a32cd" points="500.89,-432.58 491.26,-436.99 501.54,-439.55 500.89,-432.58"/>
<text text-anchor="middle" x="546.5" y="-436.39" font-family="FreeSans" font-size="10.00"> file_info</text>
</g>
<!-- Node14 -->
<g id="node14" class="node">
<title>Node14</title>
<g id="a_node14"><a xlink:href="structSemaphoreInfo.html" target="_top" xlink:title=" ">
<polygon fill="white" stroke="black" points="0,-472.89 0,-491.89 91,-491.89 91,-472.89 0,-472.89"/>
<text text-anchor="middle" x="45.5" y="-479.89" font-family="FreeSans" font-size="10.00">SemaphoreInfo</text>
</a>
</g>
</g>
<!-- Node14&#45;&gt;Node3 -->
<g id="edge18" class="edge">
<title>Node14&#45;&gt;Node3</title>
<path fill="none" stroke="#9a32cd" stroke-dasharray="5,2" d="M101.25,-471.21C201.4,-450.7 404.52,-408.71 411,-404.39 436.08,-387.65 452.64,-354.51 459.66,-338.08"/>
<polygon fill="#9a32cd" stroke="#9a32cd" points="100.4,-467.81 91.31,-473.25 101.81,-474.67 100.4,-467.81"/>
<text text-anchor="middle" x="251" y="-453.39" font-family="FreeSans" font-size="10.00"> semaphore</text>
</g>
<!-- Node14&#45;&gt;Node12 -->
<g id="edge15" class="edge">
<title>Node14&#45;&gt;Node12</title>
<path fill="none" stroke="#9a32cd" stroke-dasharray="5,2" d="M87.1,-494.65C178.66,-520.01 406.4,-570.03 575,-497.39 606.71,-483.73 631.56,-449.03 642.27,-432.05"/>
<polygon fill="#9a32cd" stroke="#9a32cd" points="87.96,-491.26 77.38,-491.91 86.06,-498 87.96,-491.26"/>
<text text-anchor="middle" x="366" y="-537.39" font-family="FreeSans" font-size="10.00"> semaphore</text>
</g>
<!-- Node15 -->
<g id="node15" class="node">
<title>Node15</title>
<g id="a_node15"><a xlink:href="struct__ExceptionInfo.html" target="_top" xlink:title=" ">
<polygon fill="white" stroke="black" points="206.5,-472.89 206.5,-491.89 295.5,-491.89 295.5,-472.89 206.5,-472.89"/>
<text text-anchor="middle" x="251" y="-479.89" font-family="FreeSans" font-size="10.00">_ExceptionInfo</text>
</a>
</g>
</g>
<!-- Node14&#45;&gt;Node15 -->
<g id="edge17" class="edge">
<title>Node14&#45;&gt;Node15</title>
<path fill="none" stroke="#9a32cd" stroke-dasharray="5,2" d="M101.54,-482.39C134.51,-482.39 175.82,-482.39 206.49,-482.39"/>
<polygon fill="#9a32cd" stroke="#9a32cd" points="101.16,-478.89 91.16,-482.39 101.16,-485.89 101.16,-478.89"/>
<text text-anchor="middle" x="145" y="-485.39" font-family="FreeSans" font-size="10.00"> semaphore</text>
</g>
<!-- Node15&#45;&gt;Node1 -->
<g id="edge25" class="edge">
<title>Node15&#45;&gt;Node1</title>
<path fill="none" stroke="#9a32cd" stroke-dasharray="5,2" d="M305.98,-487.31C393.33,-493.16 569.56,-496.11 705,-441.39 770.37,-414.98 830.12,-351.35 851.33,-327.05"/>
<polygon fill="#9a32cd" stroke="#9a32cd" points="306,-483.8 295.77,-486.58 305.5,-490.78 306,-483.8"/>
<text text-anchor="middle" x="546.5" y="-486.39" font-family="FreeSans" font-size="10.00"> exception</text>
</g>
<!-- Node15&#45;&gt;Node3 -->
<g id="edge16" class="edge">
<title>Node15&#45;&gt;Node3</title>
<path fill="none" stroke="#9a32cd" stroke-dasharray="5,2" d="M286.38,-469.19C297.37,-465.17 309.63,-460.89 321,-457.39 360.45,-445.23 378.91,-460.37 411,-434.39 442.76,-408.67 456.87,-358.89 461.57,-337.99"/>
<polygon fill="#9a32cd" stroke="#9a32cd" points="284.87,-466.01 276.71,-472.77 287.31,-472.58 284.87,-466.01"/>
<text text-anchor="middle" x="366" y="-460.39" font-family="FreeSans" font-size="10.00"> exception</text>
</g>
<!-- Node16 -->
<g id="node16" class="node">
<title>Node16</title>
<g id="a_node16"><a xlink:href="struct__ProfileInfo.html" target="_top" xlink:title=" ">
<polygon fill="white" stroke="black" points="215.5,-226.89 215.5,-245.89 286.5,-245.89 286.5,-226.89 215.5,-226.89"/>
<text text-anchor="middle" x="251" y="-233.89" font-family="FreeSans" font-size="10.00">_ProfileInfo</text>
</a>
</g>
</g>
<!-- Node16&#45;&gt;Node3 -->
<g id="edge19" class="edge">
<title>Node16&#45;&gt;Node3</title>
<path fill="none" stroke="#9a32cd" stroke-dasharray="5,2" d="M296.84,-231.64C330.51,-230.22 376.55,-233.05 411,-253.39 436.87,-268.66 453.16,-302.26 459.91,-318.8"/>
<polygon fill="#9a32cd" stroke="#9a32cd" points="296.6,-228.14 286.81,-232.2 296.99,-235.13 296.6,-228.14"/>
<text text-anchor="middle" x="366" y="-278.39" font-family="FreeSans" font-size="10.00"> color_profile</text>
<text text-anchor="middle" x="366" y="-267.39" font-family="FreeSans" font-size="10.00">generic_profile</text>
<text text-anchor="middle" x="366" y="-256.39" font-family="FreeSans" font-size="10.00">iptc_profile</text>
</g>
<!-- Node17&#45;&gt;Node2 -->
<g id="edge20" class="edge">
<title>Node17&#45;&gt;Node2</title>
<path fill="none" stroke="#9a32cd" stroke-dasharray="5,2" d="M476.26,-131.84C495.67,-163.57 539.51,-228.58 593,-265.39 598.58,-269.23 605,-272.36 611.45,-274.89"/>
<polygon fill="#9a32cd" stroke="#9a32cd" points="479.19,-129.91 471.04,-123.13 473.18,-133.51 479.19,-129.91"/>
<text text-anchor="middle" x="546.5" y="-251.39" font-family="FreeSans" font-size="10.00"> nexus_info</text>
</g>
<!-- Node17&#45;&gt;Node17 -->
<g id="edge23" class="edge">
<title>Node17&#45;&gt;Node17</title>
<path fill="none" stroke="#9a32cd" stroke-dasharray="5,2" d="M449.4,-133.16C450.59,-137.89 455.62,-141.39 464.5,-141.39 479.07,-141.39 483.29,-131.95 477.14,-123.15"/>
<polygon fill="#9a32cd" stroke="#9a32cd" points="452.87,-133.69 451.86,-123.15 446.07,-132.02 452.87,-133.69"/>
<text text-anchor="middle" x="464.5" y="-144.39" font-family="FreeSans" font-size="10.00"> virtual_nexus</text>
</g>
<!-- Node18 -->
<g id="node18" class="node">
<title>Node18</title>
<g id="a_node18"><a xlink:href="struct__MagickPixelPacket.html" target="_top" xlink:title=" ">
<polygon fill="white" stroke="black" points="593,-236.89 593,-255.89 705,-255.89 705,-236.89 593,-236.89"/>
<text text-anchor="middle" x="649" y="-243.89" font-family="FreeSans" font-size="10.00">_MagickPixelPacket</text>
</a>
</g>
</g>
<!-- Node18&#45;&gt;Node1 -->
<g id="edge26" class="edge">
<title>Node18&#45;&gt;Node1</title>
<path fill="none" stroke="#9a32cd" stroke-dasharray="5,2" d="M715.18,-256.77C740.61,-261.96 769.69,-269.33 795,-279.39 813.6,-286.78 833.16,-299.03 845.8,-307.62"/>
<polygon fill="#9a32cd" stroke="#9a32cd" points="715.74,-253.31 705.26,-254.82 714.39,-260.18 715.74,-253.31"/>
<text text-anchor="middle" x="759" y="-282.39" font-family="FreeSans" font-size="10.00"> average_pixel</text>
</g>
</g>
</svg>
