<?xml version="1.0" encoding="UTF-8" standalone="no"?>
<!DOCTYPE svg PUBLIC "-//W3C//DTD SVG 1.1//EN"
 "http://www.w3.org/Graphics/SVG/1.1/DTD/svg11.dtd">
<!-- Generated by graphviz version 2.43.0 (0)
 -->
<!-- Title: _EdgeInfo Pages: 1 -->
<svg width="176pt" height="95pt"
 viewBox="0.00 0.00 175.50 95.00" xmlns="http://www.w3.org/2000/svg" xmlns:xlink="http://www.w3.org/1999/xlink">
<g id="graph0" class="graph" transform="scale(1 1) rotate(0) translate(4 91)">
<title>_EdgeInfo</title>
<polygon fill="white" stroke="transparent" points="-4,4 -4,-91 171.5,-91 171.5,4 -4,4"/>
<!-- Node1 -->
<g id="node1" class="node">
<title>Node1</title>
<g id="a_node1"><a xlink:title=" ">
<polygon fill="#bfbfbf" stroke="black" points="55.5,-0.5 55.5,-19.5 120.5,-19.5 120.5,-0.5 55.5,-0.5"/>
<text text-anchor="middle" x="88" y="-7.5" font-family="FreeSans" font-size="10.00">_EdgeInfo</text>
</a>
</g>
</g>
<!-- Node2 -->
<g id="node2" class="node">
<title>Node2</title>
<g id="a_node2"><a xlink:href="struct__SegmentInfo.html" target="_top" xlink:title=" ">
<polygon fill="white" stroke="black" points="0,-67.5 0,-86.5 84,-86.5 84,-67.5 0,-67.5"/>
<text text-anchor="middle" x="42" y="-74.5" font-family="FreeSans" font-size="10.00">_SegmentInfo</text>
</a>
</g>
</g>
<!-- Node2&#45;&gt;Node1 -->
<g id="edge1" class="edge">
<title>Node2&#45;&gt;Node1</title>
<path fill="none" stroke="#9a32cd" stroke-dasharray="5,2" d="M54.1,-58.9C63.04,-46.27 74.83,-29.6 81.89,-19.63"/>
<polygon fill="#9a32cd" stroke="#9a32cd" points="51.12,-57.05 48.2,-67.23 56.84,-61.09 51.12,-57.05"/>
<text text-anchor="middle" x="87.5" y="-41" font-family="FreeSans" font-size="10.00"> bounds</text>
</g>
<!-- Node3 -->
<g id="node3" class="node">
<title>Node3</title>
<g id="a_node3"><a xlink:href="struct__PointInfo.html" target="_top" xlink:title=" ">
<polygon fill="white" stroke="black" points="102.5,-67.5 102.5,-86.5 167.5,-86.5 167.5,-67.5 102.5,-67.5"/>
<text text-anchor="middle" x="135" y="-74.5" font-family="FreeSans" font-size="10.00">_PointInfo</text>
</a>
</g>
</g>
<!-- Node3&#45;&gt;Node1 -->
<g id="edge2" class="edge">
<title>Node3&#45;&gt;Node1</title>
<path fill="none" stroke="#9a32cd" stroke-dasharray="5,2" d="M124.69,-58.53C120.62,-51.96 115.79,-44.5 111,-38 106.33,-31.65 100.58,-24.9 96,-19.74"/>
<polygon fill="#9a32cd" stroke="#9a32cd" points="121.83,-60.57 130,-67.32 127.82,-56.95 121.83,-60.57"/>
<text text-anchor="middle" x="135" y="-41" font-family="FreeSans" font-size="10.00"> points</text>
</g>
</g>
</svg>
