<?xml version="1.0" encoding="UTF-8" standalone="no"?>
<!DOCTYPE svg PUBLIC "-//W3C//DTD SVG 1.1//EN"
 "http://www.w3.org/Graphics/SVG/1.1/DTD/svg11.dtd">
<!-- Generated by graphviz version 2.43.0 (0)
 -->
<!-- Title: _TimerInfo Pages: 1 -->
<svg width="85pt" height="106pt"
 viewBox="0.00 0.00 84.50 106.00" xmlns="http://www.w3.org/2000/svg" xmlns:xlink="http://www.w3.org/1999/xlink">
<g id="graph0" class="graph" transform="scale(1 1) rotate(0) translate(4 102)">
<title>_TimerInfo</title>
<polygon fill="white" stroke="transparent" points="-4,4 -4,-102 80.5,-102 80.5,4 -4,4"/>
<!-- Node1 -->
<g id="node1" class="node">
<title>Node1</title>
<g id="a_node1"><a xlink:title=" ">
<polygon fill="#bfbfbf" stroke="black" points="0,-0.5 0,-19.5 69,-19.5 69,-0.5 0,-0.5"/>
<text text-anchor="middle" x="34.5" y="-7.5" font-family="FreeSans" font-size="10.00">_TimerInfo</text>
</a>
</g>
</g>
<!-- Node2 -->
<g id="node2" class="node">
<title>Node2</title>
<g id="a_node2"><a xlink:href="struct__Timer.html" target="_top" xlink:title=" ">
<polygon fill="white" stroke="black" points="9.5,-78.5 9.5,-97.5 59.5,-97.5 59.5,-78.5 9.5,-78.5"/>
<text text-anchor="middle" x="34.5" y="-85.5" font-family="FreeSans" font-size="10.00">_Timer</text>
</a>
</g>
</g>
<!-- Node2&#45;&gt;Node1 -->
<g id="edge1" class="edge">
<title>Node2&#45;&gt;Node1</title>
<path fill="none" stroke="#9a32cd" stroke-dasharray="5,2" d="M34.5,-68.22C34.5,-52.7 34.5,-31.36 34.5,-19.62"/>
<polygon fill="#9a32cd" stroke="#9a32cd" points="31,-68.28 34.5,-78.28 38,-68.28 31,-68.28"/>
<text text-anchor="middle" x="55.5" y="-52" font-family="FreeSans" font-size="10.00"> elapsed</text>
<text text-anchor="middle" x="55.5" y="-41" font-family="FreeSans" font-size="10.00">user</text>
</g>
</g>
</svg>
