<?xml version="1.0" encoding="UTF-8" standalone="no"?>
<!DOCTYPE svg PUBLIC "-//W3C//DTD SVG 1.1//EN"
 "http://www.w3.org/Graphics/SVG/1.1/DTD/svg11.dtd">
<!-- Generated by graphviz version 2.43.0 (0)
 -->
<!-- Title: _Cluster Pages: 1 -->
<svg width="122pt" height="117pt"
 viewBox="0.00 0.00 121.50 117.00" xmlns="http://www.w3.org/2000/svg" xmlns:xlink="http://www.w3.org/1999/xlink">
<g id="graph0" class="graph" transform="scale(1 1) rotate(0) translate(4 113)">
<title>_Cluster</title>
<polygon fill="white" stroke="transparent" points="-4,4 -4,-113 117.5,-113 117.5,4 -4,4"/>
<!-- Node1 -->
<g id="node1" class="node">
<title>Node1</title>
<g id="a_node1"><a xlink:title=" ">
<polygon fill="#bfbfbf" stroke="black" points="14.5,-0.5 14.5,-19.5 70.5,-19.5 70.5,-0.5 14.5,-0.5"/>
<text text-anchor="middle" x="42.5" y="-7.5" font-family="FreeSans" font-size="10.00">_Cluster</text>
</a>
</g>
</g>
<!-- Node1&#45;&gt;Node1 -->
<g id="edge1" class="edge">
<title>Node1&#45;&gt;Node1</title>
<path fill="none" stroke="#9a32cd" stroke-dasharray="5,2" d="M81.05,-17.05C85.56,-15.75 88.5,-13.4 88.5,-10 88.5,-4.41 80.59,-1.66 70.8,-1.75"/>
<polygon fill="#9a32cd" stroke="#9a32cd" points="80.33,-13.61 70.8,-18.25 81.14,-20.57 80.33,-13.61"/>
<text text-anchor="middle" x="101" y="-7.5" font-family="FreeSans" font-size="10.00"> next</text>
</g>
<!-- Node2 -->
<g id="node2" class="node">
<title>Node2</title>
<g id="a_node2"><a xlink:href="struct__ExtentPacket.html" target="_top" xlink:title=" ">
<polygon fill="white" stroke="black" points="0,-89.5 0,-108.5 85,-108.5 85,-89.5 0,-89.5"/>
<text text-anchor="middle" x="42.5" y="-96.5" font-family="FreeSans" font-size="10.00">_ExtentPacket</text>
</a>
</g>
</g>
<!-- Node2&#45;&gt;Node1 -->
<g id="edge2" class="edge">
<title>Node2&#45;&gt;Node1</title>
<path fill="none" stroke="#9a32cd" stroke-dasharray="5,2" d="M42.5,-79.19C42.5,-60.74 42.5,-33.41 42.5,-19.62"/>
<polygon fill="#9a32cd" stroke="#9a32cd" points="39,-79.34 42.5,-89.34 46,-79.34 39,-79.34"/>
<text text-anchor="middle" x="56.5" y="-63" font-family="FreeSans" font-size="10.00"> blue</text>
<text text-anchor="middle" x="56.5" y="-52" font-family="FreeSans" font-size="10.00">green</text>
<text text-anchor="middle" x="56.5" y="-41" font-family="FreeSans" font-size="10.00">red</text>
</g>
</g>
</svg>
