<?xml version="1.0" encoding="UTF-8" standalone="no"?>
<!DOCTYPE svg PUBLIC "-//W3C//DTD SVG 1.1//EN"
 "http://www.w3.org/Graphics/SVG/1.1/DTD/svg11.dtd">
<!-- Generated by graphviz version 2.43.0 (0)
 -->
<!-- Title: _SplayTreeInfo Pages: 1 -->
<svg width="297pt" height="253pt"
 viewBox="0.00 0.00 297.00 253.00" xmlns="http://www.w3.org/2000/svg" xmlns:xlink="http://www.w3.org/1999/xlink">
<g id="graph0" class="graph" transform="scale(1 1) rotate(0) translate(4 249)">
<title>_SplayTreeInfo</title>
<polygon fill="white" stroke="transparent" points="-4,4 -4,-249 293,-249 293,4 -4,4"/>
<!-- Node1 -->
<g id="node1" class="node">
<title>Node1</title>
<g id="a_node1"><a xlink:title=" ">
<polygon fill="#bfbfbf" stroke="black" points="126.5,-0.5 126.5,-19.5 214.5,-19.5 214.5,-0.5 126.5,-0.5"/>
<text text-anchor="middle" x="170.5" y="-7.5" font-family="FreeSans" font-size="10.00">_SplayTreeInfo</text>
</a>
</g>
</g>
<!-- Node2 -->
<g id="node2" class="node">
<title>Node2</title>
<g id="a_node2"><a xlink:href="struct__NodeInfo.html" target="_top" xlink:title=" ">
<polygon fill="white" stroke="black" points="63.5,-79.5 63.5,-98.5 129.5,-98.5 129.5,-79.5 63.5,-79.5"/>
<text text-anchor="middle" x="96.5" y="-86.5" font-family="FreeSans" font-size="10.00">_NodeInfo</text>
</a>
</g>
</g>
<!-- Node2&#45;&gt;Node1 -->
<g id="edge1" class="edge">
<title>Node2&#45;&gt;Node1</title>
<path fill="none" stroke="#9a32cd" stroke-dasharray="5,2" d="M111.88,-72C127.1,-56.16 149.83,-32.51 162.03,-19.81"/>
<polygon fill="#9a32cd" stroke="#9a32cd" points="109.11,-69.83 104.7,-79.47 114.15,-74.68 109.11,-69.83"/>
<text text-anchor="middle" x="156" y="-41" font-family="FreeSans" font-size="10.00"> root</text>
</g>
<!-- Node2&#45;&gt;Node2 -->
<g id="edge2" class="edge">
<title>Node2&#45;&gt;Node2</title>
<path fill="none" stroke="#9a32cd" stroke-dasharray="5,2" d="M139.8,-95.9C144.48,-94.58 147.5,-92.28 147.5,-89 147.5,-83.76 139.78,-81.01 129.85,-80.77"/>
<polygon fill="#9a32cd" stroke="#9a32cd" points="139.3,-92.44 129.85,-97.23 140.23,-99.37 139.3,-92.44"/>
<text text-anchor="middle" x="163.5" y="-103" font-family="FreeSans" font-size="10.00"> child</text>
<text text-anchor="middle" x="163.5" y="-92" font-family="FreeSans" font-size="10.00">left</text>
<text text-anchor="middle" x="163.5" y="-81" font-family="FreeSans" font-size="10.00">parent</text>
<text text-anchor="middle" x="163.5" y="-70" font-family="FreeSans" font-size="10.00">right</text>
</g>
<!-- Node3 -->
<g id="node3" class="node">
<title>Node3</title>
<g id="a_node3"><a xlink:href="struct__ColorPacket.html" target="_top" xlink:title=" ">
<polygon fill="white" stroke="black" points="0,-158.5 0,-177.5 79,-177.5 79,-158.5 0,-158.5"/>
<text text-anchor="middle" x="39.5" y="-165.5" font-family="FreeSans" font-size="10.00">_ColorPacket</text>
</a>
</g>
</g>
<!-- Node3&#45;&gt;Node2 -->
<g id="edge3" class="edge">
<title>Node3&#45;&gt;Node2</title>
<path fill="none" stroke="#9a32cd" stroke-dasharray="5,2" d="M52,-150.12C63.71,-134.3 80.75,-111.27 89.98,-98.81"/>
<polygon fill="#9a32cd" stroke="#9a32cd" points="48.95,-148.35 45.82,-158.47 54.58,-152.51 48.95,-148.35"/>
<text text-anchor="middle" x="76" y="-132" font-family="FreeSans" font-size="10.00"> list</text>
</g>
<!-- Node4 -->
<g id="node4" class="node">
<title>Node4</title>
<g id="a_node4"><a xlink:href="struct__PixelPacket.html" target="_top" xlink:title=" ">
<polygon fill="white" stroke="black" points="1,-225.5 1,-244.5 78,-244.5 78,-225.5 1,-225.5"/>
<text text-anchor="middle" x="39.5" y="-232.5" font-family="FreeSans" font-size="10.00">_PixelPacket</text>
</a>
</g>
</g>
<!-- Node4&#45;&gt;Node3 -->
<g id="edge4" class="edge">
<title>Node4&#45;&gt;Node3</title>
<path fill="none" stroke="#9a32cd" stroke-dasharray="5,2" d="M39.5,-215.04C39.5,-202.67 39.5,-187.12 39.5,-177.63"/>
<polygon fill="#9a32cd" stroke="#9a32cd" points="36,-215.23 39.5,-225.23 43,-215.23 36,-215.23"/>
<text text-anchor="middle" x="53" y="-199" font-family="FreeSans" font-size="10.00"> pixel</text>
</g>
<!-- Node5 -->
<g id="node5" class="node">
<title>Node5</title>
<g id="a_node5"><a xlink:href="struct__DoublePixelPacket.html" target="_top" xlink:title=" ">
<polygon fill="white" stroke="black" points="97,-158.5 97,-177.5 208,-177.5 208,-158.5 97,-158.5"/>
<text text-anchor="middle" x="152.5" y="-165.5" font-family="FreeSans" font-size="10.00">_DoublePixelPacket</text>
</a>
</g>
</g>
<!-- Node5&#45;&gt;Node2 -->
<g id="edge5" class="edge">
<title>Node5&#45;&gt;Node2</title>
<path fill="none" stroke="#9a32cd" stroke-dasharray="5,2" d="M140.22,-150.12C128.72,-134.3 111.97,-111.27 102.91,-98.81"/>
<polygon fill="#9a32cd" stroke="#9a32cd" points="137.58,-152.44 146.29,-158.47 143.24,-148.32 137.58,-152.44"/>
<text text-anchor="middle" x="161" y="-132" font-family="FreeSans" font-size="10.00"> total_color</text>
</g>
<!-- Node6 -->
<g id="node6" class="node">
<title>Node6</title>
<g id="a_node6"><a xlink:href="structSemaphoreInfo.html" target="_top" xlink:title=" ">
<polygon fill="white" stroke="black" points="198,-79.5 198,-98.5 289,-98.5 289,-79.5 198,-79.5"/>
<text text-anchor="middle" x="243.5" y="-86.5" font-family="FreeSans" font-size="10.00">SemaphoreInfo</text>
</a>
</g>
</g>
<!-- Node6&#45;&gt;Node1 -->
<g id="edge6" class="edge">
<title>Node6&#45;&gt;Node1</title>
<path fill="none" stroke="#9a32cd" stroke-dasharray="5,2" d="M228.33,-72C213.32,-56.16 190.89,-32.51 178.85,-19.81"/>
<polygon fill="#9a32cd" stroke="#9a32cd" points="225.99,-74.62 235.41,-79.47 231.07,-69.8 225.99,-74.62"/>
<text text-anchor="middle" x="233.5" y="-41" font-family="FreeSans" font-size="10.00"> semaphore</text>
</g>
</g>
</svg>
