<?xml version="1.0" encoding="UTF-8" standalone="no"?>
<!DOCTYPE svg PUBLIC "-//W3C//DTD SVG 1.1//EN"
 "http://www.w3.org/Graphics/SVG/1.1/DTD/svg11.dtd">
<!-- Generated by graphviz version 2.43.0 (0)
 -->
<!-- Title: _DrawInfo Pages: 1 -->
<svg width="958pt" height="803pt"
 viewBox="0.00 0.00 958.00 802.68" xmlns="http://www.w3.org/2000/svg" xmlns:xlink="http://www.w3.org/1999/xlink">
<g id="graph0" class="graph" transform="scale(1 1) rotate(0) translate(4 798.68)">
<title>_DrawInfo</title>
<polygon fill="white" stroke="transparent" points="-4,4 -4,-798.68 954,-798.68 954,4 -4,4"/>
<!-- Node1 -->
<g id="node1" class="node">
<title>Node1</title>
<g id="a_node1"><a xlink:title=" ">
<polygon fill="#bfbfbf" stroke="black" points="884,-557.18 884,-576.18 950,-576.18 950,-557.18 884,-557.18"/>
<text text-anchor="middle" x="917" y="-564.18" font-family="FreeSans" font-size="10.00">_DrawInfo</text>
</a>
</g>
</g>
<!-- Node2 -->
<g id="node2" class="node">
<title>Node2</title>
<g id="a_node2"><a xlink:href="struct__RectangleInfo.html" target="_top" xlink:title=" ">
<polygon fill="white" stroke="black" points="227.5,-535.18 227.5,-554.18 316.5,-554.18 316.5,-535.18 227.5,-535.18"/>
<text text-anchor="middle" x="272" y="-542.18" font-family="FreeSans" font-size="10.00">_RectangleInfo</text>
</a>
</g>
</g>
<!-- Node2&#45;&gt;Node1 -->
<g id="edge1" class="edge">
<title>Node2&#45;&gt;Node1</title>
<path fill="none" stroke="#9a32cd" stroke-dasharray="5,2" d="M326.74,-546.52C455.83,-550.93 780.35,-562.04 883.79,-565.57"/>
<polygon fill="#9a32cd" stroke="#9a32cd" points="326.8,-543.02 316.69,-546.17 326.56,-550.01 326.8,-543.02"/>
<text text-anchor="middle" x="590" y="-558.68" font-family="FreeSans" font-size="10.00"> viewbox</text>
</g>
<!-- Node5 -->
<g id="node5" class="node">
<title>Node5</title>
<g id="a_node5"><a xlink:href="struct__GradientInfo.html" target="_top" xlink:title=" ">
<polygon fill="white" stroke="black" points="453.5,-609.18 453.5,-628.18 536.5,-628.18 536.5,-609.18 453.5,-609.18"/>
<text text-anchor="middle" x="495" y="-616.18" font-family="FreeSans" font-size="10.00">_GradientInfo</text>
</a>
</g>
</g>
<!-- Node2&#45;&gt;Node5 -->
<g id="edge5" class="edge">
<title>Node2&#45;&gt;Node5</title>
<path fill="none" stroke="#9a32cd" stroke-dasharray="5,2" d="M311.16,-557.45C355,-572.13 425.93,-595.88 465.32,-609.07"/>
<polygon fill="#9a32cd" stroke="#9a32cd" points="312.03,-554.06 301.44,-554.2 309.81,-560.69 312.03,-554.06"/>
<text text-anchor="middle" x="387" y="-599.68" font-family="FreeSans" font-size="10.00"> bounding_box</text>
</g>
<!-- Node10 -->
<g id="node10" class="node">
<title>Node10</title>
<g id="a_node10"><a xlink:href="struct__Image.html" target="_top" xlink:title=" ">
<polygon fill="white" stroke="black" points="468.5,-221.18 468.5,-240.18 521.5,-240.18 521.5,-221.18 468.5,-221.18"/>
<text text-anchor="middle" x="495" y="-228.18" font-family="FreeSans" font-size="10.00">_Image</text>
</a>
</g>
</g>
<!-- Node2&#45;&gt;Node10 -->
<g id="edge14" class="edge">
<title>Node2&#45;&gt;Node10</title>
<path fill="none" stroke="#9a32cd" stroke-dasharray="5,2" d="M292.3,-528.32C324.74,-500 390.69,-438.8 432,-375.68 462.58,-328.94 483.8,-264.61 491.15,-240.41"/>
<polygon fill="#9a32cd" stroke="#9a32cd" points="289.73,-525.92 284.45,-535.1 294.3,-531.21 289.73,-525.92"/>
<text text-anchor="middle" x="387" y="-517.68" font-family="FreeSans" font-size="10.00"> extract_info</text>
<text text-anchor="middle" x="387" y="-506.68" font-family="FreeSans" font-size="10.00">page</text>
<text text-anchor="middle" x="387" y="-495.68" font-family="FreeSans" font-size="10.00">tile_info</text>
<text text-anchor="middle" x="387" y="-484.68" font-family="FreeSans" font-size="10.00">tile_offset</text>
</g>
<!-- Node3 -->
<g id="node3" class="node">
<title>Node3</title>
<g id="a_node3"><a xlink:href="struct__AffineMatrix.html" target="_top" xlink:title=" ">
<polygon fill="white" stroke="black" points="655,-697.18 655,-716.18 737,-716.18 737,-697.18 655,-697.18"/>
<text text-anchor="middle" x="696" y="-704.18" font-family="FreeSans" font-size="10.00">_AffineMatrix</text>
</a>
</g>
</g>
<!-- Node3&#45;&gt;Node1 -->
<g id="edge2" class="edge">
<title>Node3&#45;&gt;Node1</title>
<path fill="none" stroke="#9a32cd" stroke-dasharray="5,2" d="M746.93,-695.54C782.98,-685.56 831.24,-668.04 866,-639.68 887.9,-621.81 904.15,-591.91 911.56,-576.51"/>
<polygon fill="#9a32cd" stroke="#9a32cd" points="745.87,-692.2 737.11,-698.15 747.67,-698.96 745.87,-692.2"/>
<text text-anchor="middle" x="818" y="-690.68" font-family="FreeSans" font-size="10.00"> affine</text>
</g>
<!-- Node4 -->
<g id="node4" class="node">
<title>Node4</title>
<g id="a_node4"><a xlink:href="struct__PixelPacket.html" target="_top" xlink:title=" ">
<polygon fill="white" stroke="black" points="233.5,-376.18 233.5,-395.18 310.5,-395.18 310.5,-376.18 233.5,-376.18"/>
<text text-anchor="middle" x="272" y="-383.18" font-family="FreeSans" font-size="10.00">_PixelPacket</text>
</a>
</g>
</g>
<!-- Node4&#45;&gt;Node1 -->
<g id="edge3" class="edge">
<title>Node4&#45;&gt;Node1</title>
<path fill="none" stroke="#9a32cd" stroke-dasharray="5,2" d="M283.71,-403.92C295.52,-422.24 316.3,-449.71 342,-463.68 452.57,-523.75 498.12,-483.55 622,-505.68 717.71,-522.77 830,-547.33 883.92,-559.41"/>
<polygon fill="#9a32cd" stroke="#9a32cd" points="286.61,-401.95 278.38,-395.29 280.66,-405.63 286.61,-401.95"/>
<text text-anchor="middle" x="590" y="-541.68" font-family="FreeSans" font-size="10.00"> border_color</text>
<text text-anchor="middle" x="590" y="-530.68" font-family="FreeSans" font-size="10.00">fill</text>
<text text-anchor="middle" x="590" y="-519.68" font-family="FreeSans" font-size="10.00">stroke</text>
<text text-anchor="middle" x="590" y="-508.68" font-family="FreeSans" font-size="10.00">undercolor</text>
</g>
<!-- Node4&#45;&gt;Node10 -->
<g id="edge11" class="edge">
<title>Node4&#45;&gt;Node10</title>
<path fill="none" stroke="#9a32cd" stroke-dasharray="5,2" d="M286.13,-368.24C298.8,-352.58 319.35,-330.05 342,-316.68 377.85,-295.51 395.97,-311.55 432,-290.68 455.07,-277.31 476.03,-253.52 486.67,-240.27"/>
<polygon fill="#9a32cd" stroke="#9a32cd" points="283.35,-366.1 279.93,-376.13 288.86,-370.43 283.35,-366.1"/>
<text text-anchor="middle" x="387" y="-363.68" font-family="FreeSans" font-size="10.00"> background_color</text>
<text text-anchor="middle" x="387" y="-352.68" font-family="FreeSans" font-size="10.00">border_color</text>
<text text-anchor="middle" x="387" y="-341.68" font-family="FreeSans" font-size="10.00">colormap</text>
<text text-anchor="middle" x="387" y="-330.68" font-family="FreeSans" font-size="10.00">matte_color</text>
<text text-anchor="middle" x="387" y="-319.68" font-family="FreeSans" font-size="10.00">transparent_color</text>
</g>
<!-- Node23 -->
<g id="node23" class="node">
<title>Node23</title>
<g id="a_node23"><a xlink:href="struct__ImageInfo.html" target="_top" xlink:title=" ">
<polygon fill="white" stroke="black" points="660.5,-376.18 660.5,-395.18 731.5,-395.18 731.5,-376.18 660.5,-376.18"/>
<text text-anchor="middle" x="696" y="-383.18" font-family="FreeSans" font-size="10.00">_ImageInfo</text>
</a>
</g>
</g>
<!-- Node4&#45;&gt;Node23 -->
<g id="edge33" class="edge">
<title>Node4&#45;&gt;Node23</title>
<path fill="none" stroke="#9a32cd" stroke-dasharray="5,2" d="M320.82,-385.68C406.73,-385.68 585.18,-385.68 660.39,-385.68"/>
<polygon fill="#9a32cd" stroke="#9a32cd" points="320.82,-382.18 310.82,-385.68 320.82,-389.18 320.82,-382.18"/>
<text text-anchor="middle" x="495" y="-432.68" font-family="FreeSans" font-size="10.00"> background_color</text>
<text text-anchor="middle" x="495" y="-421.68" font-family="FreeSans" font-size="10.00">border_color</text>
<text text-anchor="middle" x="495" y="-410.68" font-family="FreeSans" font-size="10.00">matte_color</text>
<text text-anchor="middle" x="495" y="-399.68" font-family="FreeSans" font-size="10.00">pen</text>
<text text-anchor="middle" x="495" y="-388.68" font-family="FreeSans" font-size="10.00">transparent_color</text>
</g>
<!-- Node5&#45;&gt;Node1 -->
<g id="edge4" class="edge">
<title>Node5&#45;&gt;Node1</title>
<path fill="none" stroke="#9a32cd" stroke-dasharray="5,2" d="M546.81,-611.33C574.37,-607.42 609.03,-602.62 640,-598.68 728.05,-587.46 832.11,-575.84 883.68,-570.18"/>
<polygon fill="#9a32cd" stroke="#9a32cd" points="546.03,-607.91 536.62,-612.78 547.02,-614.84 546.03,-607.91"/>
<text text-anchor="middle" x="696" y="-601.68" font-family="FreeSans" font-size="10.00"> gradient</text>
</g>
<!-- Node22 -->
<g id="node22" class="node">
<title>Node22</title>
<g id="a_node22"><a xlink:href="struct__ElementReference.html" target="_top" xlink:title=" ">
<polygon fill="white" stroke="black" points="640,-619.18 640,-638.18 752,-638.18 752,-619.18 640,-619.18"/>
<text text-anchor="middle" x="696" y="-626.18" font-family="FreeSans" font-size="10.00">_ElementReference</text>
</a>
</g>
</g>
<!-- Node5&#45;&gt;Node22 -->
<g id="edge30" class="edge">
<title>Node5&#45;&gt;Node22</title>
<path fill="none" stroke="#9a32cd" stroke-dasharray="5,2" d="M546.89,-621.23C575.36,-622.66 610.86,-624.45 639.97,-625.91"/>
<polygon fill="#9a32cd" stroke="#9a32cd" points="546.91,-617.73 536.75,-620.72 546.56,-624.72 546.91,-617.73"/>
<text text-anchor="middle" x="590" y="-627.68" font-family="FreeSans" font-size="10.00"> gradient</text>
</g>
<!-- Node6 -->
<g id="node6" class="node">
<title>Node6</title>
<g id="a_node6"><a xlink:href="struct__SegmentInfo.html" target="_top" xlink:title=" ">
<polygon fill="white" stroke="black" points="230,-711.18 230,-730.18 314,-730.18 314,-711.18 230,-711.18"/>
<text text-anchor="middle" x="272" y="-718.18" font-family="FreeSans" font-size="10.00">_SegmentInfo</text>
</a>
</g>
</g>
<!-- Node6&#45;&gt;Node1 -->
<g id="edge28" class="edge">
<title>Node6&#45;&gt;Node1</title>
<path fill="none" stroke="#9a32cd" stroke-dasharray="5,2" d="M309.4,-733.34C411.31,-766.27 702.74,-842.66 866,-702.68 905.34,-668.94 913.74,-601.44 915.53,-576.35"/>
<polygon fill="#9a32cd" stroke="#9a32cd" points="310.45,-730.01 299.86,-730.21 308.26,-736.66 310.45,-730.01"/>
<text text-anchor="middle" x="590" y="-786.68" font-family="FreeSans" font-size="10.00"> bounds</text>
</g>
<!-- Node6&#45;&gt;Node5 -->
<g id="edge6" class="edge">
<title>Node6&#45;&gt;Node5</title>
<path fill="none" stroke="#9a32cd" stroke-dasharray="5,2" d="M322.4,-708.47C354.71,-699.4 397.21,-685.37 432,-666.68 451.91,-655.98 472.06,-638.97 483.78,-628.34"/>
<polygon fill="#9a32cd" stroke="#9a32cd" points="321.44,-705.11 312.73,-711.13 323.29,-711.86 321.44,-705.11"/>
<text text-anchor="middle" x="387" y="-704.68" font-family="FreeSans" font-size="10.00"> gradient_vector</text>
</g>
<!-- Node7 -->
<g id="node7" class="node">
<title>Node7</title>
<g id="a_node7"><a xlink:href="struct__StopInfo.html" target="_top" xlink:title=" ">
<polygon fill="white" stroke="black" points="241,-650.18 241,-669.18 303,-669.18 303,-650.18 241,-650.18"/>
<text text-anchor="middle" x="272" y="-657.18" font-family="FreeSans" font-size="10.00">_StopInfo</text>
</a>
</g>
</g>
<!-- Node7&#45;&gt;Node5 -->
<g id="edge7" class="edge">
<title>Node7&#45;&gt;Node5</title>
<path fill="none" stroke="#9a32cd" stroke-dasharray="5,2" d="M313.12,-655.92C345.46,-652.46 391.98,-646.52 432,-637.68 443.32,-635.17 455.57,-631.61 466.17,-628.24"/>
<polygon fill="#9a32cd" stroke="#9a32cd" points="312.73,-652.44 303.14,-656.96 313.45,-659.4 312.73,-652.44"/>
<text text-anchor="middle" x="387" y="-654.68" font-family="FreeSans" font-size="10.00"> stops</text>
</g>
<!-- Node8 -->
<g id="node8" class="node">
<title>Node8</title>
<g id="a_node8"><a xlink:href="struct__MagickPixelPacket.html" target="_top" xlink:title=" ">
<polygon fill="white" stroke="black" points="0,-650.18 0,-669.18 112,-669.18 112,-650.18 0,-650.18"/>
<text text-anchor="middle" x="56" y="-657.18" font-family="FreeSans" font-size="10.00">_MagickPixelPacket</text>
</a>
</g>
</g>
<!-- Node8&#45;&gt;Node7 -->
<g id="edge8" class="edge">
<title>Node8&#45;&gt;Node7</title>
<path fill="none" stroke="#9a32cd" stroke-dasharray="5,2" d="M122.2,-659.68C161.68,-659.68 210.17,-659.68 240.84,-659.68"/>
<polygon fill="#9a32cd" stroke="#9a32cd" points="122.11,-656.18 112.11,-659.68 122.11,-663.18 122.11,-656.18"/>
<text text-anchor="middle" x="166" y="-662.68" font-family="FreeSans" font-size="10.00"> color</text>
</g>
<!-- Node9 -->
<g id="node9" class="node">
<title>Node9</title>
<g id="a_node9"><a xlink:href="struct__PointInfo.html" target="_top" xlink:title=" ">
<polygon fill="white" stroke="black" points="239.5,-605.18 239.5,-624.18 304.5,-624.18 304.5,-605.18 239.5,-605.18"/>
<text text-anchor="middle" x="272" y="-612.18" font-family="FreeSans" font-size="10.00">_PointInfo</text>
</a>
</g>
</g>
<!-- Node9&#45;&gt;Node5 -->
<g id="edge9" class="edge">
<title>Node9&#45;&gt;Node5</title>
<path fill="none" stroke="#9a32cd" stroke-dasharray="5,2" d="M315.02,-614.46C347.08,-614.41 392.33,-614.59 432,-615.68 438.89,-615.86 446.22,-616.15 453.32,-616.46"/>
<polygon fill="#9a32cd" stroke="#9a32cd" points="314.67,-610.96 304.68,-614.48 314.69,-617.96 314.67,-610.96"/>
<text text-anchor="middle" x="387" y="-629.68" font-family="FreeSans" font-size="10.00"> center</text>
<text text-anchor="middle" x="387" y="-618.68" font-family="FreeSans" font-size="10.00">radii</text>
</g>
<!-- Node10&#45;&gt;Node1 -->
<g id="edge10" class="edge">
<title>Node10&#45;&gt;Node1</title>
<path fill="none" stroke="#9a32cd" stroke-dasharray="5,2" d="M531.67,-234.87C607.96,-245.93 786.49,-283.47 866,-398.68 902.13,-451.02 912.59,-529.87 915.22,-557.06"/>
<polygon fill="#9a32cd" stroke="#9a32cd" points="531.99,-231.38 521.6,-233.48 531.03,-238.31 531.99,-231.38"/>
<text text-anchor="middle" x="696" y="-349.68" font-family="FreeSans" font-size="10.00"> clipping_mask</text>
<text text-anchor="middle" x="696" y="-338.68" font-family="FreeSans" font-size="10.00">composite_mask</text>
<text text-anchor="middle" x="696" y="-327.68" font-family="FreeSans" font-size="10.00">fill_pattern</text>
<text text-anchor="middle" x="696" y="-316.68" font-family="FreeSans" font-size="10.00">stroke_pattern</text>
<text text-anchor="middle" x="696" y="-305.68" font-family="FreeSans" font-size="10.00">tile</text>
</g>
<!-- Node10&#45;&gt;Node10 -->
<g id="edge15" class="edge">
<title>Node10&#45;&gt;Node10</title>
<path fill="none" stroke="#9a32cd" stroke-dasharray="5,2" d="M477.59,-250.08C478.76,-254.99 484.56,-258.68 495,-258.68 511.71,-258.68 516.54,-249.24 509.49,-240.43"/>
<polygon fill="#9a32cd" stroke="#9a32cd" points="480.97,-251.02 480.51,-240.43 474.27,-248.99 480.97,-251.02"/>
<text text-anchor="middle" x="495" y="-305.68" font-family="FreeSans" font-size="10.00"> clip_mask</text>
<text text-anchor="middle" x="495" y="-294.68" font-family="FreeSans" font-size="10.00">list</text>
<text text-anchor="middle" x="495" y="-283.68" font-family="FreeSans" font-size="10.00">mask</text>
<text text-anchor="middle" x="495" y="-272.68" font-family="FreeSans" font-size="10.00">next</text>
<text text-anchor="middle" x="495" y="-261.68" font-family="FreeSans" font-size="10.00">previous</text>
</g>
<!-- Node17 -->
<g id="node17" class="node">
<title>Node17</title>
<g id="a_node17"><a xlink:href="struct__BlobInfo.html" target="_top" xlink:title=" ">
<polygon fill="white" stroke="black" points="665,-170.18 665,-189.18 727,-189.18 727,-170.18 665,-170.18"/>
<text text-anchor="middle" x="696" y="-177.18" font-family="FreeSans" font-size="10.00">_BlobInfo</text>
</a>
</g>
</g>
<!-- Node10&#45;&gt;Node17 -->
<g id="edge22" class="edge">
<title>Node10&#45;&gt;Node17</title>
<path fill="none" stroke="#9a32cd" stroke-dasharray="5,2" d="M531.88,-226.41C557.33,-222.9 592.14,-217.12 622,-208.68 640.11,-203.56 659.91,-195.53 674.31,-189.22"/>
<polygon fill="#9a32cd" stroke="#9a32cd" points="531.38,-222.94 521.93,-227.73 532.3,-229.88 531.38,-222.94"/>
<text text-anchor="middle" x="590" y="-225.68" font-family="FreeSans" font-size="10.00"> stream</text>
</g>
<!-- Node10&#45;&gt;Node23 -->
<g id="edge34" class="edge">
<title>Node10&#45;&gt;Node23</title>
<path fill="none" stroke="#9a32cd" stroke-dasharray="5,2" d="M508.87,-248.61C520.56,-264.09 538.84,-286.46 558,-302.68 595.79,-334.65 647.26,-362.29 675.12,-376.16"/>
<polygon fill="#9a32cd" stroke="#9a32cd" points="511.56,-246.35 502.8,-240.39 505.93,-250.51 511.56,-246.35"/>
<text text-anchor="middle" x="590" y="-359.68" font-family="FreeSans" font-size="10.00"> attributes</text>
<text text-anchor="middle" x="590" y="-348.68" font-family="FreeSans" font-size="10.00">stream</text>
</g>
<!-- Node11 -->
<g id="node11" class="node">
<title>Node11</title>
<g id="a_node11"><a xlink:href="struct__ChromaticityInfo.html" target="_top" xlink:title=" ">
<polygon fill="white" stroke="black" points="220,-236.18 220,-255.18 324,-255.18 324,-236.18 220,-236.18"/>
<text text-anchor="middle" x="272" y="-243.18" font-family="FreeSans" font-size="10.00">_ChromaticityInfo</text>
</a>
</g>
</g>
<!-- Node11&#45;&gt;Node10 -->
<g id="edge12" class="edge">
<title>Node11&#45;&gt;Node10</title>
<path fill="none" stroke="#9a32cd" stroke-dasharray="5,2" d="M334.32,-241.51C378.48,-238.52 435.8,-234.63 468.38,-232.42"/>
<polygon fill="#9a32cd" stroke="#9a32cd" points="334,-238.03 324.26,-242.2 334.47,-245.01 334,-238.03"/>
<text text-anchor="middle" x="387" y="-244.68" font-family="FreeSans" font-size="10.00"> chromaticity</text>
</g>
<!-- Node12 -->
<g id="node12" class="node">
<title>Node12</title>
<g id="a_node12"><a xlink:href="struct__PrimaryInfo.html" target="_top" xlink:title=" ">
<polygon fill="white" stroke="black" points="16.5,-238.18 16.5,-257.18 95.5,-257.18 95.5,-238.18 16.5,-238.18"/>
<text text-anchor="middle" x="56" y="-245.18" font-family="FreeSans" font-size="10.00">_PrimaryInfo</text>
</a>
</g>
</g>
<!-- Node12&#45;&gt;Node11 -->
<g id="edge13" class="edge">
<title>Node12&#45;&gt;Node11</title>
<path fill="none" stroke="#9a32cd" stroke-dasharray="5,2" d="M105.92,-247.22C139.91,-246.9 185.13,-246.48 219.64,-246.16"/>
<polygon fill="#9a32cd" stroke="#9a32cd" points="105.72,-243.72 95.75,-247.31 105.79,-250.72 105.72,-243.72"/>
<text text-anchor="middle" x="166" y="-283.68" font-family="FreeSans" font-size="10.00"> blue_primary</text>
<text text-anchor="middle" x="166" y="-272.68" font-family="FreeSans" font-size="10.00">green_primary</text>
<text text-anchor="middle" x="166" y="-261.68" font-family="FreeSans" font-size="10.00">red_primary</text>
<text text-anchor="middle" x="166" y="-250.68" font-family="FreeSans" font-size="10.00">white_point</text>
</g>
<!-- Node13 -->
<g id="node13" class="node">
<title>Node13</title>
<g id="a_node13"><a xlink:href="struct__ErrorInfo.html" target="_top" xlink:title=" ">
<polygon fill="white" stroke="black" points="240,-69.18 240,-88.18 304,-88.18 304,-69.18 240,-69.18"/>
<text text-anchor="middle" x="272" y="-76.18" font-family="FreeSans" font-size="10.00">_ErrorInfo</text>
</a>
</g>
</g>
<!-- Node13&#45;&gt;Node10 -->
<g id="edge16" class="edge">
<title>Node13&#45;&gt;Node10</title>
<path fill="none" stroke="#9a32cd" stroke-dasharray="5,2" d="M314.33,-72.14C350.02,-68.99 400.65,-70.87 432,-99.68 459.48,-124.92 432.97,-148.48 450,-181.68 458.04,-197.34 472.33,-211.89 482.44,-221"/>
<polygon fill="#9a32cd" stroke="#9a32cd" points="313.82,-68.67 304.24,-73.2 314.55,-75.63 313.82,-68.67"/>
<text text-anchor="middle" x="387" y="-102.68" font-family="FreeSans" font-size="10.00"> error</text>
</g>
<!-- Node14 -->
<g id="node14" class="node">
<title>Node14</title>
<g id="a_node14"><a xlink:href="struct__TimerInfo.html" target="_top" xlink:title=" ">
<polygon fill="white" stroke="black" points="237.5,-196.18 237.5,-215.18 306.5,-215.18 306.5,-196.18 237.5,-196.18"/>
<text text-anchor="middle" x="272" y="-203.18" font-family="FreeSans" font-size="10.00">_TimerInfo</text>
</a>
</g>
</g>
<!-- Node14&#45;&gt;Node10 -->
<g id="edge17" class="edge">
<title>Node14&#45;&gt;Node10</title>
<path fill="none" stroke="#9a32cd" stroke-dasharray="5,2" d="M316.92,-209.04C348.89,-211.67 393.21,-215.72 432,-220.68 444,-222.21 457.26,-224.29 468.41,-226.16"/>
<polygon fill="#9a32cd" stroke="#9a32cd" points="316.82,-205.52 306.57,-208.2 316.26,-212.5 316.82,-205.52"/>
<text text-anchor="middle" x="387" y="-223.68" font-family="FreeSans" font-size="10.00"> timer</text>
</g>
<!-- Node15 -->
<g id="node15" class="node">
<title>Node15</title>
<g id="a_node15"><a xlink:href="struct__Timer.html" target="_top" xlink:title=" ">
<polygon fill="white" stroke="black" points="31,-193.18 31,-212.18 81,-212.18 81,-193.18 31,-193.18"/>
<text text-anchor="middle" x="56" y="-200.18" font-family="FreeSans" font-size="10.00">_Timer</text>
</a>
</g>
</g>
<!-- Node15&#45;&gt;Node14 -->
<g id="edge18" class="edge">
<title>Node15&#45;&gt;Node14</title>
<path fill="none" stroke="#9a32cd" stroke-dasharray="5,2" d="M91.25,-203.16C131.43,-203.72 197.63,-204.65 237.49,-205.21"/>
<polygon fill="#9a32cd" stroke="#9a32cd" points="91.18,-199.66 81.13,-203.01 91.08,-206.65 91.18,-199.66"/>
<text text-anchor="middle" x="166" y="-219.68" font-family="FreeSans" font-size="10.00"> elapsed</text>
<text text-anchor="middle" x="166" y="-208.68" font-family="FreeSans" font-size="10.00">user</text>
</g>
<!-- Node16 -->
<g id="node16" class="node">
<title>Node16</title>
<g id="a_node16"><a xlink:href="struct__Ascii85Info.html" target="_top" xlink:title=" ">
<polygon fill="white" stroke="black" points="234,-274.18 234,-293.18 310,-293.18 310,-274.18 234,-274.18"/>
<text text-anchor="middle" x="272" y="-281.18" font-family="FreeSans" font-size="10.00">_Ascii85Info</text>
</a>
</g>
</g>
<!-- Node16&#45;&gt;Node10 -->
<g id="edge19" class="edge">
<title>Node16&#45;&gt;Node10</title>
<path fill="none" stroke="#9a32cd" stroke-dasharray="5,2" d="M320.14,-278.55C352.12,-274.37 395.12,-267.39 432,-256.68 446.57,-252.44 462.33,-245.81 474.32,-240.3"/>
<polygon fill="#9a32cd" stroke="#9a32cd" points="319.65,-275.08 310.17,-279.81 320.53,-282.03 319.65,-275.08"/>
<text text-anchor="middle" x="387" y="-278.68" font-family="FreeSans" font-size="10.00"> ascii85</text>
</g>
<!-- Node17&#45;&gt;Node10 -->
<g id="edge20" class="edge">
<title>Node17&#45;&gt;Node10</title>
<path fill="none" stroke="#9a32cd" stroke-dasharray="5,2" d="M654.8,-181.18C627.05,-183.12 589.6,-187.56 558,-197.68 540.81,-203.18 522.78,-213.35 510.62,-220.95"/>
<polygon fill="#9a32cd" stroke="#9a32cd" points="655.17,-184.66 664.93,-180.55 654.74,-177.67 655.17,-184.66"/>
<text text-anchor="middle" x="590" y="-200.68" font-family="FreeSans" font-size="10.00"> blob</text>
</g>
<!-- Node18 -->
<g id="node18" class="node">
<title>Node18</title>
<g id="a_node18"><a xlink:href="unionFileInfo.html" target="_top" xlink:title=" ">
<polygon fill="white" stroke="black" points="468.5,-153.18 468.5,-172.18 521.5,-172.18 521.5,-153.18 468.5,-153.18"/>
<text text-anchor="middle" x="495" y="-160.18" font-family="FreeSans" font-size="10.00">FileInfo</text>
</a>
</g>
</g>
<!-- Node18&#45;&gt;Node17 -->
<g id="edge21" class="edge">
<title>Node18&#45;&gt;Node17</title>
<path fill="none" stroke="#9a32cd" stroke-dasharray="5,2" d="M531.9,-160.99C557.17,-160.28 591.76,-160.28 622,-163.68 636.18,-165.27 651.66,-168.45 664.69,-171.55"/>
<polygon fill="#9a32cd" stroke="#9a32cd" points="531.55,-157.5 521.67,-161.33 531.78,-164.49 531.55,-157.5"/>
<text text-anchor="middle" x="590" y="-166.68" font-family="FreeSans" font-size="10.00"> file_info</text>
</g>
<!-- Node19 -->
<g id="node19" class="node">
<title>Node19</title>
<g id="a_node19"><a xlink:href="structSemaphoreInfo.html" target="_top" xlink:title=" ">
<polygon fill="white" stroke="black" points="10.5,-31.18 10.5,-50.18 101.5,-50.18 101.5,-31.18 10.5,-31.18"/>
<text text-anchor="middle" x="56" y="-38.18" font-family="FreeSans" font-size="10.00">SemaphoreInfo</text>
</a>
</g>
</g>
<!-- Node19&#45;&gt;Node10 -->
<g id="edge26" class="edge">
<title>Node19&#45;&gt;Node10</title>
<path fill="none" stroke="#9a32cd" stroke-dasharray="5,2" d="M92.11,-53.75C124.96,-65.79 175.51,-83.83 220,-97.68 313.27,-126.71 352.28,-99.22 432,-155.68 443.47,-163.8 441.29,-170.65 450,-181.68 461.2,-195.85 475.33,-211.19 484.52,-220.86"/>
<polygon fill="#9a32cd" stroke="#9a32cd" points="93.1,-50.38 82.51,-50.21 90.68,-56.95 93.1,-50.38"/>
<text text-anchor="middle" x="272" y="-118.68" font-family="FreeSans" font-size="10.00"> semaphore</text>
</g>
<!-- Node19&#45;&gt;Node17 -->
<g id="edge23" class="edge">
<title>Node19&#45;&gt;Node17</title>
<path fill="none" stroke="#9a32cd" stroke-dasharray="5,2" d="M99.77,-28.56C170.45,-10.57 315.41,17.7 432,-15.68 542.19,-47.22 651.09,-139.81 684.56,-170.02"/>
<polygon fill="#9a32cd" stroke="#9a32cd" points="98.69,-25.22 89.89,-31.13 100.45,-32 98.69,-25.22"/>
<text text-anchor="middle" x="387" y="-18.68" font-family="FreeSans" font-size="10.00"> semaphore</text>
</g>
<!-- Node20 -->
<g id="node20" class="node">
<title>Node20</title>
<g id="a_node20"><a xlink:href="struct__ExceptionInfo.html" target="_top" xlink:title=" ">
<polygon fill="white" stroke="black" points="227.5,-31.18 227.5,-50.18 316.5,-50.18 316.5,-31.18 227.5,-31.18"/>
<text text-anchor="middle" x="272" y="-38.18" font-family="FreeSans" font-size="10.00">_ExceptionInfo</text>
</a>
</g>
</g>
<!-- Node19&#45;&gt;Node20 -->
<g id="edge25" class="edge">
<title>Node19&#45;&gt;Node20</title>
<path fill="none" stroke="#9a32cd" stroke-dasharray="5,2" d="M111.88,-40.68C147.7,-40.68 193.83,-40.68 227.19,-40.68"/>
<polygon fill="#9a32cd" stroke="#9a32cd" points="111.6,-37.18 101.6,-40.68 111.6,-44.18 111.6,-37.18"/>
<text text-anchor="middle" x="166" y="-43.68" font-family="FreeSans" font-size="10.00"> semaphore</text>
</g>
<!-- Node20&#45;&gt;Node10 -->
<g id="edge24" class="edge">
<title>Node20&#45;&gt;Node10</title>
<path fill="none" stroke="#9a32cd" stroke-dasharray="5,2" d="M326.7,-30.76C361.25,-27.67 404.65,-30.47 432,-56.68 472.53,-95.51 426.23,-130.83 450,-181.68 457.46,-197.63 471.87,-212.12 482.16,-221.13"/>
<polygon fill="#9a32cd" stroke="#9a32cd" points="326.32,-27.28 316.75,-31.83 327.07,-34.24 326.32,-27.28"/>
<text text-anchor="middle" x="387" y="-59.68" font-family="FreeSans" font-size="10.00"> exception</text>
</g>
<!-- Node21 -->
<g id="node21" class="node">
<title>Node21</title>
<g id="a_node21"><a xlink:href="struct__ProfileInfo.html" target="_top" xlink:title=" ">
<polygon fill="white" stroke="black" points="236.5,-154.18 236.5,-173.18 307.5,-173.18 307.5,-154.18 236.5,-154.18"/>
<text text-anchor="middle" x="272" y="-161.18" font-family="FreeSans" font-size="10.00">_ProfileInfo</text>
</a>
</g>
</g>
<!-- Node21&#45;&gt;Node10 -->
<g id="edge27" class="edge">
<title>Node21&#45;&gt;Node10</title>
<path fill="none" stroke="#9a32cd" stroke-dasharray="5,2" d="M317.91,-159.14C350.8,-157.6 395.81,-159.3 432,-174.68 455.76,-184.77 476.45,-207.9 486.86,-221.06"/>
<polygon fill="#9a32cd" stroke="#9a32cd" points="317.47,-155.66 307.69,-159.74 317.88,-162.65 317.47,-155.66"/>
<text text-anchor="middle" x="387" y="-199.68" font-family="FreeSans" font-size="10.00"> color_profile</text>
<text text-anchor="middle" x="387" y="-188.68" font-family="FreeSans" font-size="10.00">generic_profile</text>
<text text-anchor="middle" x="387" y="-177.68" font-family="FreeSans" font-size="10.00">iptc_profile</text>
</g>
<!-- Node22&#45;&gt;Node1 -->
<g id="edge29" class="edge">
<title>Node22&#45;&gt;Node1</title>
<path fill="none" stroke="#9a32cd" stroke-dasharray="5,2" d="M762.28,-626.45C794.5,-623.52 833.35,-617.17 866,-603.68 881.57,-597.24 896.73,-584.91 906.2,-576.26"/>
<polygon fill="#9a32cd" stroke="#9a32cd" points="761.75,-622.98 752.07,-627.29 762.33,-629.96 761.75,-622.98"/>
<text text-anchor="middle" x="818" y="-627.68" font-family="FreeSans" font-size="10.00"> element_reference</text>
</g>
<!-- Node22&#45;&gt;Node22 -->
<g id="edge31" class="edge">
<title>Node22&#45;&gt;Node22</title>
<path fill="none" stroke="#9a32cd" stroke-dasharray="5,2" d="M676.37,-648.08C677.68,-652.99 684.23,-656.68 696,-656.68 714.84,-656.68 720.29,-647.24 712.34,-638.43"/>
<polygon fill="#9a32cd" stroke="#9a32cd" points="679.74,-649.03 679.66,-638.43 673.12,-646.77 679.74,-649.03"/>
<text text-anchor="middle" x="696" y="-670.68" font-family="FreeSans" font-size="10.00"> next</text>
<text text-anchor="middle" x="696" y="-659.68" font-family="FreeSans" font-size="10.00">previous</text>
</g>
<!-- Node23&#45;&gt;Node1 -->
<g id="edge32" class="edge">
<title>Node23&#45;&gt;Node1</title>
<path fill="none" stroke="#9a32cd" stroke-dasharray="5,2" d="M741.79,-393.58C779.19,-402.26 831.74,-419.63 866,-452.68 897.11,-482.69 910.13,-535.39 914.33,-557.01"/>
<polygon fill="#9a32cd" stroke="#9a32cd" points="742.19,-390.08 731.67,-391.35 740.69,-396.92 742.19,-390.08"/>
<text text-anchor="middle" x="818" y="-455.68" font-family="FreeSans" font-size="10.00"> image_info</text>
</g>
</g>
</svg>
