<?xml version="1.0" encoding="UTF-8" standalone="no"?>
<!DOCTYPE svg PUBLIC "-//W3C//DTD SVG 1.1//EN"
 "http://www.w3.org/Graphics/SVG/1.1/DTD/svg11.dtd">
<!-- Generated by graphviz version 2.43.0 (0)
 -->
<!-- Title: _DelegateInfo Pages: 1 -->
<svg width="157pt" height="97pt"
 viewBox="0.00 0.00 157.00 97.00" xmlns="http://www.w3.org/2000/svg" xmlns:xlink="http://www.w3.org/1999/xlink">
<g id="graph0" class="graph" transform="scale(1 1) rotate(0) translate(4 93)">
<title>_DelegateInfo</title>
<polygon fill="white" stroke="transparent" points="-4,4 -4,-93 153,-93 153,4 -4,4"/>
<!-- Node1 -->
<g id="node1" class="node">
<title>Node1</title>
<g id="a_node1"><a xlink:title=" ">
<polygon fill="#bfbfbf" stroke="black" points="3,-1.5 3,-20.5 88,-20.5 88,-1.5 3,-1.5"/>
<text text-anchor="middle" x="45.5" y="-8.5" font-family="FreeSans" font-size="10.00">_DelegateInfo</text>
</a>
</g>
</g>
<!-- Node1&#45;&gt;Node1 -->
<g id="edge1" class="edge">
<title>Node1&#45;&gt;Node1</title>
<path fill="none" stroke="#9a32cd" stroke-dasharray="5,2" d="M98.32,-16.04C103.04,-14.98 106,-13.3 106,-11 106,-7.31 98.42,-5.23 88.18,-4.74"/>
<polygon fill="#9a32cd" stroke="#9a32cd" points="97.69,-12.59 88.18,-17.26 98.53,-19.54 97.69,-12.59"/>
<text text-anchor="middle" x="127.5" y="-14" font-family="FreeSans" font-size="10.00"> next</text>
<text text-anchor="middle" x="127.5" y="-3" font-family="FreeSans" font-size="10.00">previous</text>
</g>
<!-- Node2 -->
<g id="node2" class="node">
<title>Node2</title>
<g id="a_node2"><a xlink:href="structSemaphoreInfo.html" target="_top" xlink:title=" ">
<polygon fill="white" stroke="black" points="0,-69.5 0,-88.5 91,-88.5 91,-69.5 0,-69.5"/>
<text text-anchor="middle" x="45.5" y="-76.5" font-family="FreeSans" font-size="10.00">SemaphoreInfo</text>
</a>
</g>
</g>
<!-- Node2&#45;&gt;Node1 -->
<g id="edge2" class="edge">
<title>Node2&#45;&gt;Node1</title>
<path fill="none" stroke="#9a32cd" stroke-dasharray="5,2" d="M45.5,-59.04C45.5,-46.47 45.5,-30.56 45.5,-20.84"/>
<polygon fill="#9a32cd" stroke="#9a32cd" points="42,-59.37 45.5,-69.37 49,-59.37 42,-59.37"/>
<text text-anchor="middle" x="74.5" y="-43" font-family="FreeSans" font-size="10.00"> semaphore</text>
</g>
</g>
</svg>
