<?xml version="1.0" encoding="UTF-8" standalone="no"?>
<!DOCTYPE svg PUBLIC "-//W3C//DTD SVG 1.1//EN"
 "http://www.w3.org/Graphics/SVG/1.1/DTD/svg11.dtd">
<!-- Generated by graphviz version 2.43.0 (0)
 -->
<!-- Title: _NexusInfo Pages: 1 -->
<svg width="226pt" height="106pt"
 viewBox="0.00 0.00 226.00 106.00" xmlns="http://www.w3.org/2000/svg" xmlns:xlink="http://www.w3.org/1999/xlink">
<g id="graph0" class="graph" transform="scale(1 1) rotate(0) translate(4 102)">
<title>_NexusInfo</title>
<polygon fill="white" stroke="transparent" points="-4,4 -4,-102 222,-102 222,4 -4,4"/>
<!-- Node1 -->
<g id="node1" class="node">
<title>Node1</title>
<g id="a_node1"><a xlink:title=" ">
<polygon fill="#bfbfbf" stroke="black" points="59,-0.5 59,-19.5 130,-19.5 130,-0.5 59,-0.5"/>
<text text-anchor="middle" x="94.5" y="-7.5" font-family="FreeSans" font-size="10.00">_NexusInfo</text>
</a>
</g>
</g>
<!-- Node1&#45;&gt;Node1 -->
<g id="edge3" class="edge">
<title>Node1&#45;&gt;Node1</title>
<path fill="none" stroke="#9a32cd" stroke-dasharray="5,2" d="M140.28,-15.87C144.99,-14.72 148,-12.76 148,-10 148,-5.58 140.29,-3.22 130.25,-2.91"/>
<polygon fill="#9a32cd" stroke="#9a32cd" points="139.76,-12.41 130.25,-17.09 140.6,-19.36 139.76,-12.41"/>
<text text-anchor="middle" x="183" y="-7.5" font-family="FreeSans" font-size="10.00"> virtual_nexus</text>
</g>
<!-- Node2 -->
<g id="node2" class="node">
<title>Node2</title>
<g id="a_node2"><a xlink:href="struct__RectangleInfo.html" target="_top" xlink:title=" ">
<polygon fill="white" stroke="black" points="0,-78.5 0,-97.5 89,-97.5 89,-78.5 0,-78.5"/>
<text text-anchor="middle" x="44.5" y="-85.5" font-family="FreeSans" font-size="10.00">_RectangleInfo</text>
</a>
</g>
</g>
<!-- Node2&#45;&gt;Node1 -->
<g id="edge1" class="edge">
<title>Node2&#45;&gt;Node1</title>
<path fill="none" stroke="#9a32cd" stroke-dasharray="5,2" d="M55.97,-69.57C66.24,-53.95 80.88,-31.7 88.83,-19.62"/>
<polygon fill="#9a32cd" stroke="#9a32cd" points="52.81,-68 50.24,-78.28 58.66,-71.85 52.81,-68"/>
<text text-anchor="middle" x="92.5" y="-46.5" font-family="FreeSans" font-size="10.00"> region</text>
</g>
<!-- Node3 -->
<g id="node3" class="node">
<title>Node3</title>
<g id="a_node3"><a xlink:href="struct__PixelPacket.html" target="_top" xlink:title=" ">
<polygon fill="white" stroke="black" points="107,-78.5 107,-97.5 184,-97.5 184,-78.5 107,-78.5"/>
<text text-anchor="middle" x="145.5" y="-85.5" font-family="FreeSans" font-size="10.00">_PixelPacket</text>
</a>
</g>
</g>
<!-- Node3&#45;&gt;Node1 -->
<g id="edge2" class="edge">
<title>Node3&#45;&gt;Node1</title>
<path fill="none" stroke="#9a32cd" stroke-dasharray="5,2" d="M134.46,-69.78C128.36,-60.35 120.6,-48.47 113.5,-38 109.38,-31.93 104.63,-25.18 100.91,-19.95"/>
<polygon fill="#9a32cd" stroke="#9a32cd" points="131.57,-71.75 139.93,-78.27 137.45,-67.96 131.57,-71.75"/>
<text text-anchor="middle" x="143.5" y="-52" font-family="FreeSans" font-size="10.00"> cache</text>
<text text-anchor="middle" x="143.5" y="-41" font-family="FreeSans" font-size="10.00">pixels</text>
</g>
</g>
</svg>
