<?xml version="1.0" encoding="UTF-8" standalone="no"?>
<!DOCTYPE svg PUBLIC "-//W3C//DTD SVG 1.1//EN"
 "http://www.w3.org/Graphics/SVG/1.1/DTD/svg11.dtd">
<!-- Generated by graphviz version 2.43.0 (0)
 -->
<!-- Title: _FxInfo Pages: 1 -->
<svg width="865pt" height="734pt"
 viewBox="0.00 0.00 865.00 733.59" xmlns="http://www.w3.org/2000/svg" xmlns:xlink="http://www.w3.org/1999/xlink">
<g id="graph0" class="graph" transform="scale(1 1) rotate(0) translate(4 729.59)">
<title>_FxInfo</title>
<polygon fill="white" stroke="transparent" points="-4,4 -4,-729.59 861,-729.59 861,4 -4,4"/>
<!-- Node1 -->
<g id="node1" class="node">
<title>Node1</title>
<g id="a_node1"><a xlink:title=" ">
<polygon fill="#bfbfbf" stroke="black" points="804,-172.09 804,-191.09 857,-191.09 857,-172.09 804,-172.09"/>
<text text-anchor="middle" x="830.5" y="-179.09" font-family="FreeSans" font-size="10.00">_FxInfo</text>
</a>
</g>
</g>
<!-- Node2 -->
<g id="node2" class="node">
<title>Node2</title>
<g id="a_node2"><a xlink:href="struct__Image.html" target="_top" xlink:title=" ">
<polygon fill="white" stroke="black" points="436,-422.09 436,-441.09 489,-441.09 489,-422.09 436,-422.09"/>
<text text-anchor="middle" x="462.5" y="-429.09" font-family="FreeSans" font-size="10.00">_Image</text>
</a>
</g>
</g>
<!-- Node2&#45;&gt;Node1 -->
<g id="edge1" class="edge">
<title>Node2&#45;&gt;Node1</title>
<path fill="none" stroke="#9a32cd" stroke-dasharray="5,2" d="M499.21,-432.41C550.09,-431.71 643.81,-423.24 703,-374.59 768.92,-320.4 812.72,-222.78 825.57,-191.51"/>
<polygon fill="#9a32cd" stroke="#9a32cd" points="499.02,-428.91 489.04,-432.45 499.05,-435.91 499.02,-428.91"/>
<text text-anchor="middle" x="659" y="-418.59" font-family="FreeSans" font-size="10.00"> images</text>
</g>
<!-- Node2&#45;&gt;Node2 -->
<g id="edge6" class="edge">
<title>Node2&#45;&gt;Node2</title>
<path fill="none" stroke="#9a32cd" stroke-dasharray="5,2" d="M444.35,-450.99C445.56,-455.9 451.61,-459.59 462.5,-459.59 479.92,-459.59 484.95,-450.16 477.6,-441.35"/>
<polygon fill="#9a32cd" stroke="#9a32cd" points="447.72,-451.94 447.4,-441.35 441.05,-449.83 447.72,-451.94"/>
<text text-anchor="middle" x="462.5" y="-506.59" font-family="FreeSans" font-size="10.00"> clip_mask</text>
<text text-anchor="middle" x="462.5" y="-495.59" font-family="FreeSans" font-size="10.00">list</text>
<text text-anchor="middle" x="462.5" y="-484.59" font-family="FreeSans" font-size="10.00">mask</text>
<text text-anchor="middle" x="462.5" y="-473.59" font-family="FreeSans" font-size="10.00">next</text>
<text text-anchor="middle" x="462.5" y="-462.59" font-family="FreeSans" font-size="10.00">previous</text>
</g>
<!-- Node11 -->
<g id="node11" class="node">
<title>Node11</title>
<g id="a_node11"><a xlink:href="struct__BlobInfo.html" target="_top" xlink:title=" ">
<polygon fill="white" stroke="black" points="628,-346.09 628,-365.09 690,-365.09 690,-346.09 628,-346.09"/>
<text text-anchor="middle" x="659" y="-353.09" font-family="FreeSans" font-size="10.00">_BlobInfo</text>
</a>
</g>
</g>
<!-- Node2&#45;&gt;Node11 -->
<g id="edge13" class="edge">
<title>Node2&#45;&gt;Node11</title>
<path fill="none" stroke="#9a32cd" stroke-dasharray="5,2" d="M494.76,-418.07C504.1,-414.19 514.41,-410.08 524,-406.59 555.97,-394.97 565.26,-395.82 597,-383.59 611.24,-378.1 626.88,-370.9 638.76,-365.17"/>
<polygon fill="#9a32cd" stroke="#9a32cd" points="493.31,-414.88 485.45,-421.98 496.02,-421.33 493.31,-414.88"/>
<text text-anchor="middle" x="560.5" y="-409.59" font-family="FreeSans" font-size="10.00"> stream</text>
</g>
<!-- Node20 -->
<g id="node20" class="node">
<title>Node20</title>
<g id="a_node20"><a xlink:href="struct__CacheView.html" target="_top" xlink:title=" ">
<polygon fill="white" stroke="black" points="621,-461.09 621,-480.09 697,-480.09 697,-461.09 621,-461.09"/>
<text text-anchor="middle" x="659" y="-468.09" font-family="FreeSans" font-size="10.00">_CacheView</text>
</a>
</g>
</g>
<!-- Node2&#45;&gt;Node20 -->
<g id="edge27" class="edge">
<title>Node2&#45;&gt;Node20</title>
<path fill="none" stroke="#9a32cd" stroke-dasharray="5,2" d="M499.07,-440.09C507.24,-441.97 515.91,-443.9 524,-445.59 556.66,-452.41 594,-459.3 620.95,-464.12"/>
<polygon fill="#9a32cd" stroke="#9a32cd" points="499.59,-436.62 489.06,-437.76 498,-443.43 499.59,-436.62"/>
<text text-anchor="middle" x="560.5" y="-462.59" font-family="FreeSans" font-size="10.00"> image</text>
</g>
<!-- Node3 -->
<g id="node3" class="node">
<title>Node3</title>
<g id="a_node3"><a xlink:href="struct__PixelPacket.html" target="_top" xlink:title=" ">
<polygon fill="white" stroke="black" points="7,-577.09 7,-596.09 84,-596.09 84,-577.09 7,-577.09"/>
<text text-anchor="middle" x="45.5" y="-584.09" font-family="FreeSans" font-size="10.00">_PixelPacket</text>
</a>
</g>
</g>
<!-- Node3&#45;&gt;Node2 -->
<g id="edge2" class="edge">
<title>Node3&#45;&gt;Node2</title>
<path fill="none" stroke="#9a32cd" stroke-dasharray="5,2" d="M94.32,-587.75C179.33,-588.92 352.39,-586.96 401,-553.59 440.76,-526.29 455.57,-465.03 459.95,-441.27"/>
<polygon fill="#9a32cd" stroke="#9a32cd" points="94.21,-584.25 84.16,-587.59 94.1,-591.25 94.21,-584.25"/>
<text text-anchor="middle" x="254.5" y="-633.59" font-family="FreeSans" font-size="10.00"> background_color</text>
<text text-anchor="middle" x="254.5" y="-622.59" font-family="FreeSans" font-size="10.00">border_color</text>
<text text-anchor="middle" x="254.5" y="-611.59" font-family="FreeSans" font-size="10.00">colormap</text>
<text text-anchor="middle" x="254.5" y="-600.59" font-family="FreeSans" font-size="10.00">matte_color</text>
<text text-anchor="middle" x="254.5" y="-589.59" font-family="FreeSans" font-size="10.00">transparent_color</text>
</g>
<!-- Node18 -->
<g id="node18" class="node">
<title>Node18</title>
<g id="a_node18"><a xlink:href="struct__ColorPacket.html" target="_top" xlink:title=" ">
<polygon fill="white" stroke="black" points="215,-379.09 215,-398.09 294,-398.09 294,-379.09 215,-379.09"/>
<text text-anchor="middle" x="254.5" y="-386.09" font-family="FreeSans" font-size="10.00">_ColorPacket</text>
</a>
</g>
</g>
<!-- Node3&#45;&gt;Node18 -->
<g id="edge23" class="edge">
<title>Node3&#45;&gt;Node18</title>
<path fill="none" stroke="#9a32cd" stroke-dasharray="5,2" d="M72.7,-571.72C103.29,-552.99 153.24,-517.96 181,-474.59 197.62,-448.62 178.01,-430.17 199,-407.59 203.37,-402.89 208.96,-399.36 214.88,-396.69"/>
<polygon fill="#9a32cd" stroke="#9a32cd" points="70.65,-568.86 63.87,-577 74.25,-574.87 70.65,-568.86"/>
<text text-anchor="middle" x="145" y="-547.59" font-family="FreeSans" font-size="10.00"> pixel</text>
</g>
<!-- Node21 -->
<g id="node21" class="node">
<title>Node21</title>
<g id="a_node21"><a xlink:href="struct__NexusInfo.html" target="_top" xlink:title=" ">
<polygon fill="white" stroke="black" points="427,-677.09 427,-696.09 498,-696.09 498,-677.09 427,-677.09"/>
<text text-anchor="middle" x="462.5" y="-684.09" font-family="FreeSans" font-size="10.00">_NexusInfo</text>
</a>
</g>
</g>
<!-- Node3&#45;&gt;Node21 -->
<g id="edge30" class="edge">
<title>Node3&#45;&gt;Node21</title>
<path fill="none" stroke="#9a32cd" stroke-dasharray="5,2" d="M64.25,-603.24C91.04,-627.17 144.47,-670.41 199,-688.59 277.04,-714.61 375.53,-702.94 426.83,-693.8"/>
<polygon fill="#9a32cd" stroke="#9a32cd" points="66.27,-600.35 56.52,-596.2 61.56,-605.52 66.27,-600.35"/>
<text text-anchor="middle" x="254.5" y="-717.59" font-family="FreeSans" font-size="10.00"> cache</text>
<text text-anchor="middle" x="254.5" y="-706.59" font-family="FreeSans" font-size="10.00">pixels</text>
</g>
<!-- Node4 -->
<g id="node4" class="node">
<title>Node4</title>
<g id="a_node4"><a xlink:href="struct__ChromaticityInfo.html" target="_top" xlink:title=" ">
<polygon fill="white" stroke="black" points="202.5,-417.09 202.5,-436.09 306.5,-436.09 306.5,-417.09 202.5,-417.09"/>
<text text-anchor="middle" x="254.5" y="-424.09" font-family="FreeSans" font-size="10.00">_ChromaticityInfo</text>
</a>
</g>
</g>
<!-- Node4&#45;&gt;Node2 -->
<g id="edge3" class="edge">
<title>Node4&#45;&gt;Node2</title>
<path fill="none" stroke="#9a32cd" stroke-dasharray="5,2" d="M316.9,-417.21C342.9,-414.57 373.49,-413.23 401,-416.59 412.6,-418.01 425.18,-420.9 435.85,-423.77"/>
<polygon fill="#9a32cd" stroke="#9a32cd" points="316.36,-413.75 306.8,-418.32 317.12,-420.71 316.36,-413.75"/>
<text text-anchor="middle" x="364.5" y="-419.59" font-family="FreeSans" font-size="10.00"> chromaticity</text>
</g>
<!-- Node5 -->
<g id="node5" class="node">
<title>Node5</title>
<g id="a_node5"><a xlink:href="struct__PrimaryInfo.html" target="_top" xlink:title=" ">
<polygon fill="white" stroke="black" points="6,-417.09 6,-436.09 85,-436.09 85,-417.09 6,-417.09"/>
<text text-anchor="middle" x="45.5" y="-424.09" font-family="FreeSans" font-size="10.00">_PrimaryInfo</text>
</a>
</g>
</g>
<!-- Node5&#45;&gt;Node4 -->
<g id="edge4" class="edge">
<title>Node5&#45;&gt;Node4</title>
<path fill="none" stroke="#9a32cd" stroke-dasharray="5,2" d="M95.5,-426.59C127.65,-426.59 169.62,-426.59 202.22,-426.59"/>
<polygon fill="#9a32cd" stroke="#9a32cd" points="95.44,-423.09 85.44,-426.59 95.44,-430.09 95.44,-423.09"/>
<text text-anchor="middle" x="145" y="-462.59" font-family="FreeSans" font-size="10.00"> blue_primary</text>
<text text-anchor="middle" x="145" y="-451.59" font-family="FreeSans" font-size="10.00">green_primary</text>
<text text-anchor="middle" x="145" y="-440.59" font-family="FreeSans" font-size="10.00">red_primary</text>
<text text-anchor="middle" x="145" y="-429.59" font-family="FreeSans" font-size="10.00">white_point</text>
</g>
<!-- Node6 -->
<g id="node6" class="node">
<title>Node6</title>
<g id="a_node6"><a xlink:href="struct__RectangleInfo.html" target="_top" xlink:title=" ">
<polygon fill="white" stroke="black" points="210,-660.09 210,-679.09 299,-679.09 299,-660.09 210,-660.09"/>
<text text-anchor="middle" x="254.5" y="-667.09" font-family="FreeSans" font-size="10.00">_RectangleInfo</text>
</a>
</g>
</g>
<!-- Node6&#45;&gt;Node2 -->
<g id="edge5" class="edge">
<title>Node6&#45;&gt;Node2</title>
<path fill="none" stroke="#9a32cd" stroke-dasharray="5,2" d="M292.45,-655.72C298.54,-652.77 304.62,-649.38 310,-645.59 319.51,-638.89 318.37,-633.11 328,-626.59 356.91,-607.01 376.67,-622.63 401,-597.59 445.89,-551.39 457.84,-469.28 460.69,-441.27"/>
<polygon fill="#9a32cd" stroke="#9a32cd" points="290.65,-652.7 282.97,-660 293.52,-659.08 290.65,-652.7"/>
<text text-anchor="middle" x="364.5" y="-662.59" font-family="FreeSans" font-size="10.00"> extract_info</text>
<text text-anchor="middle" x="364.5" y="-651.59" font-family="FreeSans" font-size="10.00">page</text>
<text text-anchor="middle" x="364.5" y="-640.59" font-family="FreeSans" font-size="10.00">tile_info</text>
<text text-anchor="middle" x="364.5" y="-629.59" font-family="FreeSans" font-size="10.00">tile_offset</text>
</g>
<!-- Node6&#45;&gt;Node21 -->
<g id="edge29" class="edge">
<title>Node6&#45;&gt;Node21</title>
<path fill="none" stroke="#9a32cd" stroke-dasharray="5,2" d="M309.33,-674.03C346.42,-677.09 394.63,-681.07 426.74,-683.72"/>
<polygon fill="#9a32cd" stroke="#9a32cd" points="309.44,-670.53 299.19,-673.2 308.87,-677.51 309.44,-670.53"/>
<text text-anchor="middle" x="364.5" y="-683.59" font-family="FreeSans" font-size="10.00"> region</text>
</g>
<!-- Node7 -->
<g id="node7" class="node">
<title>Node7</title>
<g id="a_node7"><a xlink:href="struct__ErrorInfo.html" target="_top" xlink:title=" ">
<polygon fill="white" stroke="black" points="222.5,-531.09 222.5,-550.09 286.5,-550.09 286.5,-531.09 222.5,-531.09"/>
<text text-anchor="middle" x="254.5" y="-538.09" font-family="FreeSans" font-size="10.00">_ErrorInfo</text>
</a>
</g>
</g>
<!-- Node7&#45;&gt;Node2 -->
<g id="edge7" class="edge">
<title>Node7&#45;&gt;Node2</title>
<path fill="none" stroke="#9a32cd" stroke-dasharray="5,2" d="M296.58,-541.65C327.46,-540.63 369.65,-535.17 401,-515.59 430.27,-497.31 449.66,-459.2 457.53,-441.29"/>
<polygon fill="#9a32cd" stroke="#9a32cd" points="296.5,-538.15 286.57,-541.85 296.64,-545.15 296.5,-538.15"/>
<text text-anchor="middle" x="364.5" y="-541.59" font-family="FreeSans" font-size="10.00"> error</text>
</g>
<!-- Node8 -->
<g id="node8" class="node">
<title>Node8</title>
<g id="a_node8"><a xlink:href="struct__TimerInfo.html" target="_top" xlink:title=" ">
<polygon fill="white" stroke="black" points="220,-341.09 220,-360.09 289,-360.09 289,-341.09 220,-341.09"/>
<text text-anchor="middle" x="254.5" y="-348.09" font-family="FreeSans" font-size="10.00">_TimerInfo</text>
</a>
</g>
</g>
<!-- Node8&#45;&gt;Node2 -->
<g id="edge8" class="edge">
<title>Node8&#45;&gt;Node2</title>
<path fill="none" stroke="#9a32cd" stroke-dasharray="5,2" d="M298.64,-363.11C327.96,-372.1 367.37,-385.15 401,-399.59 416.39,-406.2 433.18,-415.24 445.16,-422.02"/>
<polygon fill="#9a32cd" stroke="#9a32cd" points="299.3,-359.65 288.72,-360.1 297.27,-366.35 299.3,-359.65"/>
<text text-anchor="middle" x="364.5" y="-402.59" font-family="FreeSans" font-size="10.00"> timer</text>
</g>
<!-- Node9 -->
<g id="node9" class="node">
<title>Node9</title>
<g id="a_node9"><a xlink:href="struct__Timer.html" target="_top" xlink:title=" ">
<polygon fill="white" stroke="black" points="20.5,-341.09 20.5,-360.09 70.5,-360.09 70.5,-341.09 20.5,-341.09"/>
<text text-anchor="middle" x="45.5" y="-348.09" font-family="FreeSans" font-size="10.00">_Timer</text>
</a>
</g>
</g>
<!-- Node9&#45;&gt;Node8 -->
<g id="edge9" class="edge">
<title>Node9&#45;&gt;Node8</title>
<path fill="none" stroke="#9a32cd" stroke-dasharray="5,2" d="M80.87,-350.59C119.46,-350.59 181.68,-350.59 219.94,-350.59"/>
<polygon fill="#9a32cd" stroke="#9a32cd" points="80.65,-347.09 70.65,-350.59 80.65,-354.09 80.65,-347.09"/>
<text text-anchor="middle" x="145" y="-364.59" font-family="FreeSans" font-size="10.00"> elapsed</text>
<text text-anchor="middle" x="145" y="-353.59" font-family="FreeSans" font-size="10.00">user</text>
</g>
<!-- Node10 -->
<g id="node10" class="node">
<title>Node10</title>
<g id="a_node10"><a xlink:href="struct__Ascii85Info.html" target="_top" xlink:title=" ">
<polygon fill="white" stroke="black" points="216.5,-493.09 216.5,-512.09 292.5,-512.09 292.5,-493.09 216.5,-493.09"/>
<text text-anchor="middle" x="254.5" y="-500.09" font-family="FreeSans" font-size="10.00">_Ascii85Info</text>
</a>
</g>
</g>
<!-- Node10&#45;&gt;Node2 -->
<g id="edge10" class="edge">
<title>Node10&#45;&gt;Node2</title>
<path fill="none" stroke="#9a32cd" stroke-dasharray="5,2" d="M302.67,-503.21C332.09,-501.98 370.1,-497.39 401,-483.59 423.01,-473.76 443.05,-453.27 453.63,-441.15"/>
<polygon fill="#9a32cd" stroke="#9a32cd" points="302.54,-499.71 292.65,-503.51 302.75,-506.71 302.54,-499.71"/>
<text text-anchor="middle" x="364.5" y="-503.59" font-family="FreeSans" font-size="10.00"> ascii85</text>
</g>
<!-- Node11&#45;&gt;Node2 -->
<g id="edge11" class="edge">
<title>Node11&#45;&gt;Node2</title>
<path fill="none" stroke="#9a32cd" stroke-dasharray="5,2" d="M617.88,-354.12C590.22,-354.64 553.31,-358.45 524,-372.59 500.48,-383.94 480.42,-408.03 470.38,-421.66"/>
<polygon fill="#9a32cd" stroke="#9a32cd" points="618.01,-357.62 627.99,-354.07 617.97,-350.62 618.01,-357.62"/>
<text text-anchor="middle" x="560.5" y="-375.59" font-family="FreeSans" font-size="10.00"> blob</text>
</g>
<!-- Node12 -->
<g id="node12" class="node">
<title>Node12</title>
<g id="a_node12"><a xlink:href="unionFileInfo.html" target="_top" xlink:title=" ">
<polygon fill="white" stroke="black" points="436,-291.09 436,-310.09 489,-310.09 489,-291.09 436,-291.09"/>
<text text-anchor="middle" x="462.5" y="-298.09" font-family="FreeSans" font-size="10.00">FileInfo</text>
</a>
</g>
</g>
<!-- Node12&#45;&gt;Node11 -->
<g id="edge12" class="edge">
<title>Node12&#45;&gt;Node11</title>
<path fill="none" stroke="#9a32cd" stroke-dasharray="5,2" d="M499.52,-299.27C527.02,-299.4 565.43,-302.06 597,-313.59 616.81,-320.82 636.27,-336.02 647.7,-346.02"/>
<polygon fill="#9a32cd" stroke="#9a32cd" points="499.16,-295.78 489.18,-299.34 499.21,-302.78 499.16,-295.78"/>
<text text-anchor="middle" x="560.5" y="-316.59" font-family="FreeSans" font-size="10.00"> file_info</text>
</g>
<!-- Node13 -->
<g id="node13" class="node">
<title>Node13</title>
<g id="a_node13"><a xlink:href="structSemaphoreInfo.html" target="_top" xlink:title=" ">
<polygon fill="white" stroke="black" points="0,-218.09 0,-237.09 91,-237.09 91,-218.09 0,-218.09"/>
<text text-anchor="middle" x="45.5" y="-225.09" font-family="FreeSans" font-size="10.00">SemaphoreInfo</text>
</a>
</g>
</g>
<!-- Node13&#45;&gt;Node2 -->
<g id="edge17" class="edge">
<title>Node13&#45;&gt;Node2</title>
<path fill="none" stroke="#9a32cd" stroke-dasharray="5,2" d="M62.34,-244.99C74.05,-256.71 91.03,-271.45 109,-279.59 168.84,-306.68 346.94,-288.27 401,-325.59 405.51,-328.7 442.28,-396.09 456.19,-421.77"/>
<polygon fill="#9a32cd" stroke="#9a32cd" points="64.58,-242.26 55.13,-237.48 59.53,-247.11 64.58,-242.26"/>
<text text-anchor="middle" x="254.5" y="-304.59" font-family="FreeSans" font-size="10.00"> semaphore</text>
</g>
<!-- Node13&#45;&gt;Node11 -->
<g id="edge14" class="edge">
<title>Node13&#45;&gt;Node11</title>
<path fill="none" stroke="#9a32cd" stroke-dasharray="5,2" d="M93.82,-239.35C98.93,-240.5 104.07,-241.6 109,-242.59 173.45,-255.49 346.57,-252.75 401,-289.59 413.88,-298.31 406.08,-310.94 419,-319.59 452.65,-342.12 571.4,-351.14 627.81,-354.21"/>
<polygon fill="#9a32cd" stroke="#9a32cd" points="94.61,-235.94 84.07,-237.1 93.03,-242.76 94.61,-235.94"/>
<text text-anchor="middle" x="364.5" y="-292.59" font-family="FreeSans" font-size="10.00"> semaphore</text>
</g>
<!-- Node14 -->
<g id="node14" class="node">
<title>Node14</title>
<g id="a_node14"><a xlink:href="struct__ExceptionInfo.html" target="_top" xlink:title=" ">
<polygon fill="white" stroke="black" points="210,-218.09 210,-237.09 299,-237.09 299,-218.09 210,-218.09"/>
<text text-anchor="middle" x="254.5" y="-225.09" font-family="FreeSans" font-size="10.00">_ExceptionInfo</text>
</a>
</g>
</g>
<!-- Node13&#45;&gt;Node14 -->
<g id="edge16" class="edge">
<title>Node13&#45;&gt;Node14</title>
<path fill="none" stroke="#9a32cd" stroke-dasharray="5,2" d="M101.39,-227.59C135.36,-227.59 178.37,-227.59 209.98,-227.59"/>
<polygon fill="#9a32cd" stroke="#9a32cd" points="101.16,-224.09 91.16,-227.59 101.16,-231.09 101.16,-224.09"/>
<text text-anchor="middle" x="145" y="-230.59" font-family="FreeSans" font-size="10.00"> semaphore</text>
</g>
<!-- Node16 -->
<g id="node16" class="node">
<title>Node16</title>
<g id="a_node16"><a xlink:href="struct__SplayTreeInfo.html" target="_top" xlink:title=" ">
<polygon fill="white" stroke="black" points="615,-172.09 615,-191.09 703,-191.09 703,-172.09 615,-172.09"/>
<text text-anchor="middle" x="659" y="-179.09" font-family="FreeSans" font-size="10.00">_SplayTreeInfo</text>
</a>
</g>
</g>
<!-- Node13&#45;&gt;Node16 -->
<g id="edge25" class="edge">
<title>Node13&#45;&gt;Node16</title>
<path fill="none" stroke="#9a32cd" stroke-dasharray="5,2" d="M75.01,-213.4C105.01,-199.33 154.02,-178.72 199,-170.59 349.8,-143.33 532.97,-163.22 614.84,-174.81"/>
<polygon fill="#9a32cd" stroke="#9a32cd" points="73.12,-210.43 65.6,-217.89 76.14,-216.74 73.12,-210.43"/>
<text text-anchor="middle" x="364.5" y="-160.59" font-family="FreeSans" font-size="10.00"> semaphore</text>
</g>
<!-- Node22 -->
<g id="node22" class="node">
<title>Node22</title>
<g id="a_node22"><a xlink:href="struct__RandomInfo.html" target="_top" xlink:title=" ">
<polygon fill="white" stroke="black" points="618.5,-61.09 618.5,-80.09 699.5,-80.09 699.5,-61.09 618.5,-61.09"/>
<text text-anchor="middle" x="659" y="-68.09" font-family="FreeSans" font-size="10.00">_RandomInfo</text>
</a>
</g>
</g>
<!-- Node13&#45;&gt;Node22 -->
<g id="edge36" class="edge">
<title>Node13&#45;&gt;Node22</title>
<path fill="none" stroke="#9a32cd" stroke-dasharray="5,2" d="M60.49,-210.02C72.05,-196.76 89.66,-179.25 109,-169.59 199.54,-124.37 508.16,-87 618.44,-74.8"/>
<polygon fill="#9a32cd" stroke="#9a32cd" points="57.54,-208.08 53.81,-218 62.91,-212.58 57.54,-208.08"/>
<text text-anchor="middle" x="364.5" y="-116.59" font-family="FreeSans" font-size="10.00"> semaphore</text>
</g>
<!-- Node14&#45;&gt;Node1 -->
<g id="edge37" class="edge">
<title>Node14&#45;&gt;Node1</title>
<path fill="none" stroke="#9a32cd" stroke-dasharray="5,2" d="M300.68,-213.91C303.93,-212.3 307.07,-210.53 310,-208.59 319.96,-201.97 317.31,-193.94 328,-188.59 477.39,-113.8 536.4,-150.15 703,-162.59 738.21,-165.22 778.48,-171.91 803.94,-176.61"/>
<polygon fill="#9a32cd" stroke="#9a32cd" points="299.08,-210.78 291.33,-218 301.89,-217.2 299.08,-210.78"/>
<text text-anchor="middle" x="560.5" y="-153.59" font-family="FreeSans" font-size="10.00"> exception</text>
</g>
<!-- Node14&#45;&gt;Node2 -->
<g id="edge15" class="edge">
<title>Node14&#45;&gt;Node2</title>
<path fill="none" stroke="#9a32cd" stroke-dasharray="5,2" d="M309.38,-221.7C339.82,-221.41 376.54,-226.58 401,-248.59 425.19,-270.37 409.21,-288.54 419,-319.59 431.13,-358.07 449.28,-402.55 457.36,-421.83"/>
<polygon fill="#9a32cd" stroke="#9a32cd" points="309.22,-218.21 299.33,-222 309.43,-225.2 309.22,-218.21"/>
<text text-anchor="middle" x="364.5" y="-251.59" font-family="FreeSans" font-size="10.00"> exception</text>
</g>
<!-- Node15 -->
<g id="node15" class="node">
<title>Node15</title>
<g id="a_node15"><a xlink:href="struct__ProfileInfo.html" target="_top" xlink:title=" ">
<polygon fill="white" stroke="black" points="219,-455.09 219,-474.09 290,-474.09 290,-455.09 219,-455.09"/>
<text text-anchor="middle" x="254.5" y="-462.09" font-family="FreeSans" font-size="10.00">_ProfileInfo</text>
</a>
</g>
</g>
<!-- Node15&#45;&gt;Node2 -->
<g id="edge18" class="edge">
<title>Node15&#45;&gt;Node2</title>
<path fill="none" stroke="#9a32cd" stroke-dasharray="5,2" d="M299.93,-455.65C309.19,-453.89 318.9,-452.11 328,-450.59 365.4,-444.32 408.93,-438.38 435.85,-434.86"/>
<polygon fill="#9a32cd" stroke="#9a32cd" points="299.26,-452.22 290.1,-457.55 300.58,-459.09 299.26,-452.22"/>
<text text-anchor="middle" x="364.5" y="-475.59" font-family="FreeSans" font-size="10.00"> color_profile</text>
<text text-anchor="middle" x="364.5" y="-464.59" font-family="FreeSans" font-size="10.00">generic_profile</text>
<text text-anchor="middle" x="364.5" y="-453.59" font-family="FreeSans" font-size="10.00">iptc_profile</text>
</g>
<!-- Node16&#45;&gt;Node1 -->
<g id="edge19" class="edge">
<title>Node16&#45;&gt;Node1</title>
<path fill="none" stroke="#9a32cd" stroke-dasharray="5,2" d="M713.58,-181.59C743.7,-181.59 779.93,-181.59 803.78,-181.59"/>
<polygon fill="#9a32cd" stroke="#9a32cd" points="713.21,-178.09 703.21,-181.59 713.21,-185.09 713.21,-178.09"/>
<text text-anchor="middle" x="753.5" y="-195.59" font-family="FreeSans" font-size="10.00"> colors</text>
<text text-anchor="middle" x="753.5" y="-184.59" font-family="FreeSans" font-size="10.00">symbols</text>
</g>
<!-- Node17 -->
<g id="node17" class="node">
<title>Node17</title>
<g id="a_node17"><a xlink:href="struct__NodeInfo.html" target="_top" xlink:title=" ">
<polygon fill="white" stroke="black" points="429.5,-191.09 429.5,-210.09 495.5,-210.09 495.5,-191.09 429.5,-191.09"/>
<text text-anchor="middle" x="462.5" y="-198.09" font-family="FreeSans" font-size="10.00">_NodeInfo</text>
</a>
</g>
</g>
<!-- Node17&#45;&gt;Node16 -->
<g id="edge20" class="edge">
<title>Node17&#45;&gt;Node16</title>
<path fill="none" stroke="#9a32cd" stroke-dasharray="5,2" d="M505.65,-196.47C537.95,-193.32 582.36,-188.98 614.9,-185.8"/>
<polygon fill="#9a32cd" stroke="#9a32cd" points="505.23,-193 495.62,-197.45 505.91,-199.96 505.23,-193"/>
<text text-anchor="middle" x="560.5" y="-196.59" font-family="FreeSans" font-size="10.00"> root</text>
</g>
<!-- Node17&#45;&gt;Node17 -->
<g id="edge21" class="edge">
<title>Node17&#45;&gt;Node17</title>
<path fill="none" stroke="#9a32cd" stroke-dasharray="5,2" d="M444.35,-219.99C445.56,-224.9 451.61,-228.59 462.5,-228.59 479.92,-228.59 484.95,-219.16 477.6,-210.35"/>
<polygon fill="#9a32cd" stroke="#9a32cd" points="447.72,-220.94 447.4,-210.35 441.05,-218.83 447.72,-220.94"/>
<text text-anchor="middle" x="462.5" y="-264.59" font-family="FreeSans" font-size="10.00"> child</text>
<text text-anchor="middle" x="462.5" y="-253.59" font-family="FreeSans" font-size="10.00">left</text>
<text text-anchor="middle" x="462.5" y="-242.59" font-family="FreeSans" font-size="10.00">parent</text>
<text text-anchor="middle" x="462.5" y="-231.59" font-family="FreeSans" font-size="10.00">right</text>
</g>
<!-- Node18&#45;&gt;Node17 -->
<g id="edge22" class="edge">
<title>Node18&#45;&gt;Node17</title>
<path fill="none" stroke="#9a32cd" stroke-dasharray="5,2" d="M298.31,-375.25C302.34,-373.53 306.3,-371.64 310,-369.59 321.34,-363.31 392.37,-306.26 401,-296.59 426.18,-268.37 447.62,-228.48 456.77,-210.3"/>
<polygon fill="#9a32cd" stroke="#9a32cd" points="296.87,-372.06 288.85,-378.99 299.43,-378.57 296.87,-372.06"/>
<text text-anchor="middle" x="364.5" y="-358.59" font-family="FreeSans" font-size="10.00"> list</text>
</g>
<!-- Node19 -->
<g id="node19" class="node">
<title>Node19</title>
<g id="a_node19"><a xlink:href="struct__DoublePixelPacket.html" target="_top" xlink:title=" ">
<polygon fill="white" stroke="black" points="199,-180.09 199,-199.09 310,-199.09 310,-180.09 199,-180.09"/>
<text text-anchor="middle" x="254.5" y="-187.09" font-family="FreeSans" font-size="10.00">_DoublePixelPacket</text>
</a>
</g>
</g>
<!-- Node19&#45;&gt;Node17 -->
<g id="edge24" class="edge">
<title>Node19&#45;&gt;Node17</title>
<path fill="none" stroke="#9a32cd" stroke-dasharray="5,2" d="M320.2,-193.04C356.55,-194.99 400.31,-197.32 429.41,-198.88"/>
<polygon fill="#9a32cd" stroke="#9a32cd" points="320.34,-189.55 310.16,-192.51 319.96,-196.54 320.34,-189.55"/>
<text text-anchor="middle" x="364.5" y="-199.59" font-family="FreeSans" font-size="10.00"> total_color</text>
</g>
<!-- Node20&#45;&gt;Node1 -->
<g id="edge26" class="edge">
<title>Node20&#45;&gt;Node1</title>
<path fill="none" stroke="#9a32cd" stroke-dasharray="5,2" d="M707.56,-473.5C734.21,-472.44 766.01,-466.24 786,-445.59 822.18,-408.21 828.35,-234.12 829.33,-191.18"/>
<polygon fill="#9a32cd" stroke="#9a32cd" points="707.2,-470 697.26,-473.67 707.31,-477 707.2,-470"/>
<text text-anchor="middle" x="753.5" y="-474.59" font-family="FreeSans" font-size="10.00"> view</text>
</g>
<!-- Node21&#45;&gt;Node20 -->
<g id="edge28" class="edge">
<title>Node21&#45;&gt;Node20</title>
<path fill="none" stroke="#9a32cd" stroke-dasharray="5,2" d="M479.02,-669.35C517.88,-626.19 618.46,-514.5 649.05,-480.53"/>
<polygon fill="#9a32cd" stroke="#9a32cd" points="476.2,-667.26 472.11,-677.03 481.4,-671.94 476.2,-667.26"/>
<text text-anchor="middle" x="560.5" y="-619.59" font-family="FreeSans" font-size="10.00"> nexus_info</text>
</g>
<!-- Node21&#45;&gt;Node21 -->
<g id="edge31" class="edge">
<title>Node21&#45;&gt;Node21</title>
<path fill="none" stroke="#9a32cd" stroke-dasharray="5,2" d="M444.35,-705.99C445.56,-710.9 451.61,-714.59 462.5,-714.59 479.92,-714.59 484.95,-705.16 477.6,-696.35"/>
<polygon fill="#9a32cd" stroke="#9a32cd" points="447.72,-706.94 447.4,-696.35 441.05,-704.83 447.72,-706.94"/>
<text text-anchor="middle" x="462.5" y="-717.59" font-family="FreeSans" font-size="10.00"> virtual_nexus</text>
</g>
<!-- Node22&#45;&gt;Node1 -->
<g id="edge32" class="edge">
<title>Node22&#45;&gt;Node1</title>
<path fill="none" stroke="#9a32cd" stroke-dasharray="5,2" d="M709.74,-72.42C734.77,-75.58 764.32,-82.95 786,-99.59 810.42,-118.33 822.61,-154.75 827.23,-172.04"/>
<polygon fill="#9a32cd" stroke="#9a32cd" points="710,-68.93 699.68,-71.35 709.25,-75.89 710,-68.93"/>
<text text-anchor="middle" x="753.5" y="-102.59" font-family="FreeSans" font-size="10.00"> random_info</text>
</g>
<!-- Node23 -->
<g id="node23" class="node">
<title>Node23</title>
<g id="a_node23"><a xlink:href="struct__SignatureInfo.html" target="_top" xlink:title=" ">
<polygon fill="white" stroke="black" points="419,-39.09 419,-58.09 506,-58.09 506,-39.09 419,-39.09"/>
<text text-anchor="middle" x="462.5" y="-46.09" font-family="FreeSans" font-size="10.00">_SignatureInfo</text>
</a>
</g>
</g>
<!-- Node23&#45;&gt;Node22 -->
<g id="edge33" class="edge">
<title>Node23&#45;&gt;Node22</title>
<path fill="none" stroke="#9a32cd" stroke-dasharray="5,2" d="M516.43,-53.14C540.97,-55.4 570.51,-58.35 597,-61.59 603.91,-62.44 611.24,-63.43 618.33,-64.45"/>
<polygon fill="#9a32cd" stroke="#9a32cd" points="516.52,-49.63 506.25,-52.21 515.89,-56.6 516.52,-49.63"/>
<text text-anchor="middle" x="560.5" y="-64.59" font-family="FreeSans" font-size="10.00"> signature_info</text>
</g>
<!-- Node24 -->
<g id="node24" class="node">
<title>Node24</title>
<g id="a_node24"><a xlink:href="struct__StringInfo.html" target="_top" xlink:title=" ">
<polygon fill="white" stroke="black" points="220,-10.09 220,-29.09 289,-29.09 289,-10.09 220,-10.09"/>
<text text-anchor="middle" x="254.5" y="-17.09" font-family="FreeSans" font-size="10.00">_StringInfo</text>
</a>
</g>
</g>
<!-- Node24&#45;&gt;Node22 -->
<g id="edge35" class="edge">
<title>Node24&#45;&gt;Node22</title>
<path fill="none" stroke="#9a32cd" stroke-dasharray="5,2" d="M299,-11.17C349.34,-2.88 434.49,6.64 506,-7.59 557.55,-17.85 613.52,-45.91 640.93,-60.88"/>
<polygon fill="#9a32cd" stroke="#9a32cd" points="298.38,-7.73 289.11,-12.86 299.56,-14.63 298.38,-7.73"/>
<text text-anchor="middle" x="462.5" y="-21.59" font-family="FreeSans" font-size="10.00"> nonce</text>
<text text-anchor="middle" x="462.5" y="-10.59" font-family="FreeSans" font-size="10.00">reservoir</text>
</g>
<!-- Node24&#45;&gt;Node23 -->
<g id="edge34" class="edge">
<title>Node24&#45;&gt;Node23</title>
<path fill="none" stroke="#9a32cd" stroke-dasharray="5,2" d="M299.05,-25.72C334.28,-30.68 383.62,-37.63 418.66,-42.56"/>
<polygon fill="#9a32cd" stroke="#9a32cd" points="299.45,-22.24 289.06,-24.31 298.47,-29.17 299.45,-22.24"/>
<text text-anchor="middle" x="364.5" y="-54.59" font-family="FreeSans" font-size="10.00"> digest</text>
<text text-anchor="middle" x="364.5" y="-43.59" font-family="FreeSans" font-size="10.00">message</text>
</g>
</g>
</svg>
