<?xml version="1.0" encoding="UTF-8" standalone="no"?>
<!DOCTYPE svg PUBLIC "-//W3C//DTD SVG 1.1//EN"
 "http://www.w3.org/Graphics/SVG/1.1/DTD/svg11.dtd">
<!-- Generated by graphviz version 2.43.0 (0)
 -->
<!-- Title: _ImageView Pages: 1 -->
<svg width="817pt" height="522pt"
 viewBox="0.00 0.00 817.00 521.52" xmlns="http://www.w3.org/2000/svg" xmlns:xlink="http://www.w3.org/1999/xlink">
<g id="graph0" class="graph" transform="scale(1 1) rotate(0) translate(4 517.52)">
<title>_ImageView</title>
<polygon fill="white" stroke="transparent" points="-4,4 -4,-517.52 813,-517.52 813,4 -4,4"/>
<!-- Node1 -->
<g id="node1" class="node">
<title>Node1</title>
<g id="a_node1"><a xlink:title=" ">
<polygon fill="#bfbfbf" stroke="black" points="732,-225.05 732,-244.05 809,-244.05 809,-225.05 732,-225.05"/>
<text text-anchor="middle" x="770.5" y="-232.05" font-family="FreeSans" font-size="10.00">_ImageView</text>
</a>
</g>
</g>
<!-- Node2 -->
<g id="node2" class="node">
<title>Node2</title>
<g id="a_node2"><a xlink:href="struct__RectangleInfo.html" target="_top" xlink:title=" ">
<polygon fill="white" stroke="black" points="206.5,-485.05 206.5,-504.05 295.5,-504.05 295.5,-485.05 206.5,-485.05"/>
<text text-anchor="middle" x="251" y="-492.05" font-family="FreeSans" font-size="10.00">_RectangleInfo</text>
</a>
</g>
</g>
<!-- Node2&#45;&gt;Node1 -->
<g id="edge1" class="edge">
<title>Node2&#45;&gt;Node1</title>
<path fill="none" stroke="#9a32cd" stroke-dasharray="5,2" d="M295.34,-506.38C327.97,-513.2 373.36,-518.18 411,-505.55 575.95,-450.22 725.56,-285.65 761.39,-244.14"/>
<polygon fill="#9a32cd" stroke="#9a32cd" points="295.74,-502.88 285.22,-504.12 294.22,-509.71 295.74,-502.88"/>
<text text-anchor="middle" x="546.5" y="-455.55" font-family="FreeSans" font-size="10.00"> extent</text>
</g>
<!-- Node3 -->
<g id="node3" class="node">
<title>Node3</title>
<g id="a_node3"><a xlink:href="struct__Image.html" target="_top" xlink:title=" ">
<polygon fill="white" stroke="black" points="438,-193.05 438,-212.05 491,-212.05 491,-193.05 438,-193.05"/>
<text text-anchor="middle" x="464.5" y="-200.05" font-family="FreeSans" font-size="10.00">_Image</text>
</a>
</g>
</g>
<!-- Node2&#45;&gt;Node3 -->
<g id="edge6" class="edge">
<title>Node2&#45;&gt;Node3</title>
<path fill="none" stroke="#9a32cd" stroke-dasharray="5,2" d="M264.85,-476.47C277.33,-460.3 297.75,-437.26 321,-424.55 356.87,-404.94 381.45,-433.8 411,-405.55 425.54,-391.66 454.1,-250.47 461.64,-212.12"/>
<polygon fill="#9a32cd" stroke="#9a32cd" points="261.93,-474.52 258.77,-484.63 267.55,-478.7 261.93,-474.52"/>
<text text-anchor="middle" x="366" y="-460.55" font-family="FreeSans" font-size="10.00"> extract_info</text>
<text text-anchor="middle" x="366" y="-449.55" font-family="FreeSans" font-size="10.00">page</text>
<text text-anchor="middle" x="366" y="-438.55" font-family="FreeSans" font-size="10.00">tile_info</text>
<text text-anchor="middle" x="366" y="-427.55" font-family="FreeSans" font-size="10.00">tile_offset</text>
</g>
<!-- Node17 -->
<g id="node17" class="node">
<title>Node17</title>
<g id="a_node17"><a xlink:href="struct__NexusInfo.html" target="_top" xlink:title=" ">
<polygon fill="white" stroke="black" points="429,-373.05 429,-392.05 500,-392.05 500,-373.05 429,-373.05"/>
<text text-anchor="middle" x="464.5" y="-380.05" font-family="FreeSans" font-size="10.00">_NexusInfo</text>
</a>
</g>
</g>
<!-- Node2&#45;&gt;Node17 -->
<g id="edge23" class="edge">
<title>Node2&#45;&gt;Node17</title>
<path fill="none" stroke="#9a32cd" stroke-dasharray="5,2" d="M305.63,-492.12C344.89,-489.42 394.12,-483.86 411,-472.55 440.31,-452.93 455.43,-410.98 460.97,-392.1"/>
<polygon fill="#9a32cd" stroke="#9a32cd" points="305.39,-488.63 295.64,-492.76 305.84,-495.61 305.39,-488.63"/>
<text text-anchor="middle" x="366" y="-493.55" font-family="FreeSans" font-size="10.00"> region</text>
</g>
<!-- Node3&#45;&gt;Node1 -->
<g id="edge2" class="edge">
<title>Node3&#45;&gt;Node1</title>
<path fill="none" stroke="#9a32cd" stroke-dasharray="5,2" d="M501.29,-206.32C559.2,-212.42 672.87,-224.38 731.91,-230.6"/>
<polygon fill="#9a32cd" stroke="#9a32cd" points="501.47,-202.82 491.16,-205.25 500.74,-209.78 501.47,-202.82"/>
<text text-anchor="middle" x="631" y="-226.55" font-family="FreeSans" font-size="10.00"> image</text>
</g>
<!-- Node3&#45;&gt;Node3 -->
<g id="edge7" class="edge">
<title>Node3&#45;&gt;Node3</title>
<path fill="none" stroke="#9a32cd" stroke-dasharray="5,2" d="M449.4,-222.32C450.59,-227.05 455.62,-230.55 464.5,-230.55 479.07,-230.55 483.29,-221.12 477.14,-212.31"/>
<polygon fill="#9a32cd" stroke="#9a32cd" points="452.87,-222.86 451.86,-212.31 446.07,-221.18 452.87,-222.86"/>
<text text-anchor="middle" x="464.5" y="-277.55" font-family="FreeSans" font-size="10.00"> clip_mask</text>
<text text-anchor="middle" x="464.5" y="-266.55" font-family="FreeSans" font-size="10.00">list</text>
<text text-anchor="middle" x="464.5" y="-255.55" font-family="FreeSans" font-size="10.00">mask</text>
<text text-anchor="middle" x="464.5" y="-244.55" font-family="FreeSans" font-size="10.00">next</text>
<text text-anchor="middle" x="464.5" y="-233.55" font-family="FreeSans" font-size="10.00">previous</text>
</g>
<!-- Node11 -->
<g id="node11" class="node">
<title>Node11</title>
<g id="a_node11"><a xlink:href="struct__BlobInfo.html" target="_top" xlink:title=" ">
<polygon fill="white" stroke="black" points="600,-129.05 600,-148.05 662,-148.05 662,-129.05 600,-129.05"/>
<text text-anchor="middle" x="631" y="-136.05" font-family="FreeSans" font-size="10.00">_BlobInfo</text>
</a>
</g>
</g>
<!-- Node3&#45;&gt;Node11 -->
<g id="edge14" class="edge">
<title>Node3&#45;&gt;Node11</title>
<path fill="none" stroke="#9a32cd" stroke-dasharray="5,2" d="M500.97,-192.94C522.69,-186.63 550.85,-177.69 575,-167.55 588.34,-161.96 602.78,-154.27 613.52,-148.22"/>
<polygon fill="#9a32cd" stroke="#9a32cd" points="499.84,-189.62 491.18,-195.73 501.76,-196.35 499.84,-189.62"/>
<text text-anchor="middle" x="546.5" y="-189.55" font-family="FreeSans" font-size="10.00"> stream</text>
</g>
<!-- Node16 -->
<g id="node16" class="node">
<title>Node16</title>
<g id="a_node16"><a xlink:href="struct__CacheView.html" target="_top" xlink:title=" ">
<polygon fill="white" stroke="black" points="593,-245.05 593,-264.05 669,-264.05 669,-245.05 593,-245.05"/>
<text text-anchor="middle" x="631" y="-252.05" font-family="FreeSans" font-size="10.00">_CacheView</text>
</a>
</g>
</g>
<!-- Node3&#45;&gt;Node16 -->
<g id="edge21" class="edge">
<title>Node3&#45;&gt;Node16</title>
<path fill="none" stroke="#9a32cd" stroke-dasharray="5,2" d="M490.57,-217.1C499.07,-221.58 508.76,-226.21 518,-229.55 542.26,-238.33 570.64,-244.63 592.76,-248.71"/>
<polygon fill="#9a32cd" stroke="#9a32cd" points="492.02,-213.9 481.57,-212.18 488.66,-220.05 492.02,-213.9"/>
<text text-anchor="middle" x="546.5" y="-247.55" font-family="FreeSans" font-size="10.00"> image</text>
</g>
<!-- Node4 -->
<g id="node4" class="node">
<title>Node4</title>
<g id="a_node4"><a xlink:href="struct__PixelPacket.html" target="_top" xlink:title=" ">
<polygon fill="white" stroke="black" points="212.5,-249.05 212.5,-268.05 289.5,-268.05 289.5,-249.05 212.5,-249.05"/>
<text text-anchor="middle" x="251" y="-256.05" font-family="FreeSans" font-size="10.00">_PixelPacket</text>
</a>
</g>
</g>
<!-- Node4&#45;&gt;Node3 -->
<g id="edge3" class="edge">
<title>Node4&#45;&gt;Node3</title>
<path fill="none" stroke="#9a32cd" stroke-dasharray="5,2" d="M291.78,-246.04C301.32,-243.15 311.5,-240.16 321,-237.55 361.65,-226.38 409.3,-215.03 437.91,-208.39"/>
<polygon fill="#9a32cd" stroke="#9a32cd" points="290.66,-242.72 282.12,-248.99 292.71,-249.42 290.66,-242.72"/>
<text text-anchor="middle" x="366" y="-284.55" font-family="FreeSans" font-size="10.00"> background_color</text>
<text text-anchor="middle" x="366" y="-273.55" font-family="FreeSans" font-size="10.00">border_color</text>
<text text-anchor="middle" x="366" y="-262.55" font-family="FreeSans" font-size="10.00">colormap</text>
<text text-anchor="middle" x="366" y="-251.55" font-family="FreeSans" font-size="10.00">matte_color</text>
<text text-anchor="middle" x="366" y="-240.55" font-family="FreeSans" font-size="10.00">transparent_color</text>
</g>
<!-- Node4&#45;&gt;Node17 -->
<g id="edge24" class="edge">
<title>Node4&#45;&gt;Node17</title>
<path fill="none" stroke="#9a32cd" stroke-dasharray="5,2" d="M279.72,-273.65C288.26,-279.49 296.98,-286.88 303,-295.55 320.09,-320.18 298.6,-340.63 321,-360.55 336.53,-374.36 391.83,-379.51 428.8,-381.43"/>
<polygon fill="#9a32cd" stroke="#9a32cd" points="281.33,-270.53 271.01,-268.13 277.58,-276.44 281.33,-270.53"/>
<text text-anchor="middle" x="366" y="-393.55" font-family="FreeSans" font-size="10.00"> cache</text>
<text text-anchor="middle" x="366" y="-382.55" font-family="FreeSans" font-size="10.00">pixels</text>
</g>
<!-- Node5 -->
<g id="node5" class="node">
<title>Node5</title>
<g id="a_node5"><a xlink:href="struct__ChromaticityInfo.html" target="_top" xlink:title=" ">
<polygon fill="white" stroke="black" points="199,-193.05 199,-212.05 303,-212.05 303,-193.05 199,-193.05"/>
<text text-anchor="middle" x="251" y="-200.05" font-family="FreeSans" font-size="10.00">_ChromaticityInfo</text>
</a>
</g>
</g>
<!-- Node5&#45;&gt;Node3 -->
<g id="edge4" class="edge">
<title>Node5&#45;&gt;Node3</title>
<path fill="none" stroke="#9a32cd" stroke-dasharray="5,2" d="M313.45,-202.55C354.77,-202.55 407.11,-202.55 437.79,-202.55"/>
<polygon fill="#9a32cd" stroke="#9a32cd" points="313.2,-199.05 303.2,-202.55 313.2,-206.05 313.2,-199.05"/>
<text text-anchor="middle" x="366" y="-205.55" font-family="FreeSans" font-size="10.00"> chromaticity</text>
</g>
<!-- Node6 -->
<g id="node6" class="node">
<title>Node6</title>
<g id="a_node6"><a xlink:href="struct__PrimaryInfo.html" target="_top" xlink:title=" ">
<polygon fill="white" stroke="black" points="6,-193.05 6,-212.05 85,-212.05 85,-193.05 6,-193.05"/>
<text text-anchor="middle" x="45.5" y="-200.05" font-family="FreeSans" font-size="10.00">_PrimaryInfo</text>
</a>
</g>
</g>
<!-- Node6&#45;&gt;Node5 -->
<g id="edge5" class="edge">
<title>Node6&#45;&gt;Node5</title>
<path fill="none" stroke="#9a32cd" stroke-dasharray="5,2" d="M95.46,-202.55C126.67,-202.55 167.04,-202.55 198.69,-202.55"/>
<polygon fill="#9a32cd" stroke="#9a32cd" points="95.26,-199.05 85.26,-202.55 95.26,-206.05 95.26,-199.05"/>
<text text-anchor="middle" x="145" y="-238.55" font-family="FreeSans" font-size="10.00"> blue_primary</text>
<text text-anchor="middle" x="145" y="-227.55" font-family="FreeSans" font-size="10.00">green_primary</text>
<text text-anchor="middle" x="145" y="-216.55" font-family="FreeSans" font-size="10.00">red_primary</text>
<text text-anchor="middle" x="145" y="-205.55" font-family="FreeSans" font-size="10.00">white_point</text>
</g>
<!-- Node7 -->
<g id="node7" class="node">
<title>Node7</title>
<g id="a_node7"><a xlink:href="struct__ErrorInfo.html" target="_top" xlink:title=" ">
<polygon fill="white" stroke="black" points="219,-20.05 219,-39.05 283,-39.05 283,-20.05 219,-20.05"/>
<text text-anchor="middle" x="251" y="-27.05" font-family="FreeSans" font-size="10.00">_ErrorInfo</text>
</a>
</g>
</g>
<!-- Node7&#45;&gt;Node3 -->
<g id="edge8" class="edge">
<title>Node7&#45;&gt;Node3</title>
<path fill="none" stroke="#9a32cd" stroke-dasharray="5,2" d="M293.21,-24.15C329.04,-21.9 379.94,-25.02 411,-54.55 439.3,-81.46 415.35,-103.97 429,-140.55 436.32,-160.17 449.13,-181.08 456.91,-192.91"/>
<polygon fill="#9a32cd" stroke="#9a32cd" points="292.76,-20.67 283.07,-24.95 293.31,-27.65 292.76,-20.67"/>
<text text-anchor="middle" x="366" y="-57.55" font-family="FreeSans" font-size="10.00"> error</text>
</g>
<!-- Node8 -->
<g id="node8" class="node">
<title>Node8</title>
<g id="a_node8"><a xlink:href="struct__TimerInfo.html" target="_top" xlink:title=" ">
<polygon fill="white" stroke="black" points="216.5,-343.05 216.5,-362.05 285.5,-362.05 285.5,-343.05 216.5,-343.05"/>
<text text-anchor="middle" x="251" y="-350.05" font-family="FreeSans" font-size="10.00">_TimerInfo</text>
</a>
</g>
</g>
<!-- Node8&#45;&gt;Node3 -->
<g id="edge9" class="edge">
<title>Node8&#45;&gt;Node3</title>
<path fill="none" stroke="#9a32cd" stroke-dasharray="5,2" d="M295.64,-349.8C336.4,-346.42 393.52,-339.34 411,-325.55 448.19,-296.22 459.45,-235.53 462.48,-212.09"/>
<polygon fill="#9a32cd" stroke="#9a32cd" points="295.36,-346.31 285.66,-350.58 295.9,-353.29 295.36,-346.31"/>
<text text-anchor="middle" x="366" y="-349.55" font-family="FreeSans" font-size="10.00"> timer</text>
</g>
<!-- Node9 -->
<g id="node9" class="node">
<title>Node9</title>
<g id="a_node9"><a xlink:href="struct__Timer.html" target="_top" xlink:title=" ">
<polygon fill="white" stroke="black" points="20.5,-343.05 20.5,-362.05 70.5,-362.05 70.5,-343.05 20.5,-343.05"/>
<text text-anchor="middle" x="45.5" y="-350.05" font-family="FreeSans" font-size="10.00">_Timer</text>
</a>
</g>
</g>
<!-- Node9&#45;&gt;Node8 -->
<g id="edge10" class="edge">
<title>Node9&#45;&gt;Node8</title>
<path fill="none" stroke="#9a32cd" stroke-dasharray="5,2" d="M80.66,-352.55C118.43,-352.55 178.9,-352.55 216.44,-352.55"/>
<polygon fill="#9a32cd" stroke="#9a32cd" points="80.64,-349.05 70.64,-352.55 80.64,-356.05 80.64,-349.05"/>
<text text-anchor="middle" x="145" y="-366.55" font-family="FreeSans" font-size="10.00"> elapsed</text>
<text text-anchor="middle" x="145" y="-355.55" font-family="FreeSans" font-size="10.00">user</text>
</g>
<!-- Node10 -->
<g id="node10" class="node">
<title>Node10</title>
<g id="a_node10"><a xlink:href="struct__Ascii85Info.html" target="_top" xlink:title=" ">
<polygon fill="white" stroke="black" points="213,-305.05 213,-324.05 289,-324.05 289,-305.05 213,-305.05"/>
<text text-anchor="middle" x="251" y="-312.05" font-family="FreeSans" font-size="10.00">_Ascii85Info</text>
</a>
</g>
</g>
<!-- Node10&#45;&gt;Node3 -->
<g id="edge11" class="edge">
<title>Node10&#45;&gt;Node3</title>
<path fill="none" stroke="#9a32cd" stroke-dasharray="5,2" d="M299.41,-312.53C339.52,-310 393.21,-304.46 411,-292.55 440.31,-272.93 455.43,-230.98 460.97,-212.1"/>
<polygon fill="#9a32cd" stroke="#9a32cd" points="299.06,-309.04 289.28,-313.12 299.47,-316.03 299.06,-309.04"/>
<text text-anchor="middle" x="366" y="-313.55" font-family="FreeSans" font-size="10.00"> ascii85</text>
</g>
<!-- Node11&#45;&gt;Node3 -->
<g id="edge12" class="edge">
<title>Node11&#45;&gt;Node3</title>
<path fill="none" stroke="#9a32cd" stroke-dasharray="5,2" d="M589.63,-139.63C567.58,-141.53 540.31,-146.07 518,-156.55 499.79,-165.11 483.12,-181.91 473.65,-192.67"/>
<polygon fill="#9a32cd" stroke="#9a32cd" points="589.94,-143.12 599.67,-138.92 589.44,-136.14 589.94,-143.12"/>
<text text-anchor="middle" x="546.5" y="-159.55" font-family="FreeSans" font-size="10.00"> blob</text>
</g>
<!-- Node12 -->
<g id="node12" class="node">
<title>Node12</title>
<g id="a_node12"><a xlink:href="unionFileInfo.html" target="_top" xlink:title=" ">
<polygon fill="white" stroke="black" points="438,-112.05 438,-131.05 491,-131.05 491,-112.05 438,-112.05"/>
<text text-anchor="middle" x="464.5" y="-119.05" font-family="FreeSans" font-size="10.00">FileInfo</text>
</a>
</g>
</g>
<!-- Node12&#45;&gt;Node11 -->
<g id="edge13" class="edge">
<title>Node12&#45;&gt;Node11</title>
<path fill="none" stroke="#9a32cd" stroke-dasharray="5,2" d="M501.31,-119.42C522.79,-118.75 550.59,-118.96 575,-122.55 584.15,-123.9 593.91,-126.38 602.63,-128.99"/>
<polygon fill="#9a32cd" stroke="#9a32cd" points="501.18,-115.93 491.32,-119.81 501.45,-122.92 501.18,-115.93"/>
<text text-anchor="middle" x="546.5" y="-125.55" font-family="FreeSans" font-size="10.00"> file_info</text>
</g>
<!-- Node13 -->
<g id="node13" class="node">
<title>Node13</title>
<g id="a_node13"><a xlink:href="structSemaphoreInfo.html" target="_top" xlink:title=" ">
<polygon fill="white" stroke="black" points="0,-58.05 0,-77.05 91,-77.05 91,-58.05 0,-58.05"/>
<text text-anchor="middle" x="45.5" y="-65.05" font-family="FreeSans" font-size="10.00">SemaphoreInfo</text>
</a>
</g>
</g>
<!-- Node13&#45;&gt;Node3 -->
<g id="edge18" class="edge">
<title>Node13&#45;&gt;Node3</title>
<path fill="none" stroke="#9a32cd" stroke-dasharray="5,2" d="M95.44,-79.46C100.02,-80.52 104.59,-81.57 109,-82.55 242.82,-112.4 291.89,-77.65 411,-145.55 431.57,-157.28 448.67,-179.82 457.35,-192.77"/>
<polygon fill="#9a32cd" stroke="#9a32cd" points="96,-75.99 85.46,-77.11 94.39,-82.81 96,-75.99"/>
<text text-anchor="middle" x="251" y="-106.55" font-family="FreeSans" font-size="10.00"> semaphore</text>
</g>
<!-- Node13&#45;&gt;Node11 -->
<g id="edge15" class="edge">
<title>Node13&#45;&gt;Node11</title>
<path fill="none" stroke="#9a32cd" stroke-dasharray="5,2" d="M75.04,-53.51C105.06,-39.56 154.09,-19.05 199,-10.55 291.58,6.97 317.02,-1.71 411,-8.55 484.47,-13.9 514.99,10.17 575,-32.55 608.78,-56.6 623.35,-107.77 628.1,-129.01"/>
<polygon fill="#9a32cd" stroke="#9a32cd" points="73.17,-50.53 65.62,-57.97 76.16,-56.86 73.17,-50.53"/>
<text text-anchor="middle" x="366" y="-11.55" font-family="FreeSans" font-size="10.00"> semaphore</text>
</g>
<!-- Node14 -->
<g id="node14" class="node">
<title>Node14</title>
<g id="a_node14"><a xlink:href="struct__ExceptionInfo.html" target="_top" xlink:title=" ">
<polygon fill="white" stroke="black" points="206.5,-58.05 206.5,-77.05 295.5,-77.05 295.5,-58.05 206.5,-58.05"/>
<text text-anchor="middle" x="251" y="-65.05" font-family="FreeSans" font-size="10.00">_ExceptionInfo</text>
</a>
</g>
</g>
<!-- Node13&#45;&gt;Node14 -->
<g id="edge17" class="edge">
<title>Node13&#45;&gt;Node14</title>
<path fill="none" stroke="#9a32cd" stroke-dasharray="5,2" d="M101.54,-67.55C134.51,-67.55 175.82,-67.55 206.49,-67.55"/>
<polygon fill="#9a32cd" stroke="#9a32cd" points="101.16,-64.05 91.16,-67.55 101.16,-71.05 101.16,-64.05"/>
<text text-anchor="middle" x="145" y="-70.55" font-family="FreeSans" font-size="10.00"> semaphore</text>
</g>
<!-- Node14&#45;&gt;Node1 -->
<g id="edge26" class="edge">
<title>Node14&#45;&gt;Node1</title>
<path fill="none" stroke="#9a32cd" stroke-dasharray="5,2" d="M305.7,-61.57C389.35,-54.9 553.17,-52.64 669,-119.55 715.38,-146.35 751.14,-202.46 764.16,-224.94"/>
<polygon fill="#9a32cd" stroke="#9a32cd" points="305.33,-58.09 295.66,-62.43 305.92,-65.07 305.33,-58.09"/>
<text text-anchor="middle" x="546.5" y="-82.55" font-family="FreeSans" font-size="10.00"> exception</text>
</g>
<!-- Node14&#45;&gt;Node3 -->
<g id="edge16" class="edge">
<title>Node14&#45;&gt;Node3</title>
<path fill="none" stroke="#9a32cd" stroke-dasharray="5,2" d="M305.9,-68.72C345.57,-70.66 395.22,-75.68 411,-88.55 429.95,-104.02 419.02,-118.23 429,-140.55 437.55,-159.67 449.96,-180.74 457.33,-192.74"/>
<polygon fill="#9a32cd" stroke="#9a32cd" points="305.94,-65.22 295.8,-68.29 305.64,-72.22 305.94,-65.22"/>
<text text-anchor="middle" x="366" y="-91.55" font-family="FreeSans" font-size="10.00"> exception</text>
</g>
<!-- Node15 -->
<g id="node15" class="node">
<title>Node15</title>
<g id="a_node15"><a xlink:href="struct__ProfileInfo.html" target="_top" xlink:title=" ">
<polygon fill="white" stroke="black" points="215.5,-143.05 215.5,-162.05 286.5,-162.05 286.5,-143.05 215.5,-143.05"/>
<text text-anchor="middle" x="251" y="-150.05" font-family="FreeSans" font-size="10.00">_ProfileInfo</text>
</a>
</g>
</g>
<!-- Node15&#45;&gt;Node3 -->
<g id="edge19" class="edge">
<title>Node15&#45;&gt;Node3</title>
<path fill="none" stroke="#9a32cd" stroke-dasharray="5,2" d="M296.74,-150.02C329.36,-149.63 374.11,-152.18 411,-165.55 427.35,-171.48 443.27,-183.92 453.21,-192.74"/>
<polygon fill="#9a32cd" stroke="#9a32cd" points="296.53,-146.52 286.6,-150.23 296.68,-153.52 296.53,-146.52"/>
<text text-anchor="middle" x="366" y="-190.55" font-family="FreeSans" font-size="10.00"> color_profile</text>
<text text-anchor="middle" x="366" y="-179.55" font-family="FreeSans" font-size="10.00">generic_profile</text>
<text text-anchor="middle" x="366" y="-168.55" font-family="FreeSans" font-size="10.00">iptc_profile</text>
</g>
<!-- Node16&#45;&gt;Node1 -->
<g id="edge20" class="edge">
<title>Node16&#45;&gt;Node1</title>
<path fill="none" stroke="#9a32cd" stroke-dasharray="5,2" d="M679.55,-247.64C696.63,-245.15 715.65,-242.39 731.78,-240.04"/>
<polygon fill="#9a32cd" stroke="#9a32cd" points="678.6,-244.24 669.21,-249.14 679.61,-251.17 678.6,-244.24"/>
<text text-anchor="middle" x="700.5" y="-248.55" font-family="FreeSans" font-size="10.00"> view</text>
</g>
<!-- Node17&#45;&gt;Node16 -->
<g id="edge22" class="edge">
<title>Node17&#45;&gt;Node16</title>
<path fill="none" stroke="#9a32cd" stroke-dasharray="5,2" d="M485.84,-366.72C520.32,-339.89 589.25,-286.26 617.49,-264.29"/>
<polygon fill="#9a32cd" stroke="#9a32cd" points="483.61,-364.03 477.86,-372.93 487.91,-369.55 483.61,-364.03"/>
<text text-anchor="middle" x="546.5" y="-343.55" font-family="FreeSans" font-size="10.00"> nexus_info</text>
</g>
<!-- Node17&#45;&gt;Node17 -->
<g id="edge25" class="edge">
<title>Node17&#45;&gt;Node17</title>
<path fill="none" stroke="#9a32cd" stroke-dasharray="5,2" d="M449.4,-402.32C450.59,-407.05 455.62,-410.55 464.5,-410.55 479.07,-410.55 483.29,-401.12 477.14,-392.31"/>
<polygon fill="#9a32cd" stroke="#9a32cd" points="452.87,-402.86 451.86,-392.31 446.07,-401.18 452.87,-402.86"/>
<text text-anchor="middle" x="464.5" y="-413.55" font-family="FreeSans" font-size="10.00"> virtual_nexus</text>
</g>
</g>
</svg>
