<?xml version="1.0" encoding="UTF-8" standalone="no"?>
<!DOCTYPE svg PUBLIC "-//W3C//DTD SVG 1.1//EN"
 "http://www.w3.org/Graphics/SVG/1.1/DTD/svg11.dtd">
<!-- Generated by graphviz version 2.43.0 (0)
 -->
<!-- Title: _ImageInfo Pages: 1 -->
<svg width="685pt" height="493pt"
 viewBox="0.00 0.00 685.00 492.71" xmlns="http://www.w3.org/2000/svg" xmlns:xlink="http://www.w3.org/1999/xlink">
<g id="graph0" class="graph" transform="scale(1 1) rotate(0) translate(4 488.71)">
<title>_ImageInfo</title>
<polygon fill="white" stroke="transparent" points="-4,4 -4,-488.71 681,-488.71 681,4 -4,4"/>
<!-- Node1 -->
<g id="node1" class="node">
<title>Node1</title>
<g id="a_node1"><a xlink:title=" ">
<polygon fill="#bfbfbf" stroke="black" points="606,-381.21 606,-400.21 677,-400.21 677,-381.21 606,-381.21"/>
<text text-anchor="middle" x="641.5" y="-388.21" font-family="FreeSans" font-size="10.00">_ImageInfo</text>
</a>
</g>
</g>
<!-- Node2 -->
<g id="node2" class="node">
<title>Node2</title>
<g id="a_node2"><a xlink:href="struct__PixelPacket.html" target="_top" xlink:title=" ">
<polygon fill="white" stroke="black" points="212.5,-400.21 212.5,-419.21 289.5,-419.21 289.5,-400.21 212.5,-400.21"/>
<text text-anchor="middle" x="251" y="-407.21" font-family="FreeSans" font-size="10.00">_PixelPacket</text>
</a>
</g>
</g>
<!-- Node2&#45;&gt;Node1 -->
<g id="edge1" class="edge">
<title>Node2&#45;&gt;Node1</title>
<path fill="none" stroke="#9a32cd" stroke-dasharray="5,2" d="M289.58,-422.02C299.67,-424.78 310.66,-427.31 321,-428.71 425.07,-442.78 548.6,-415.69 606.88,-400.31"/>
<polygon fill="#9a32cd" stroke="#9a32cd" points="290.42,-418.62 279.84,-419.21 288.48,-425.35 290.42,-418.62"/>
<text text-anchor="middle" x="474" y="-476.71" font-family="FreeSans" font-size="10.00"> background_color</text>
<text text-anchor="middle" x="474" y="-465.71" font-family="FreeSans" font-size="10.00">border_color</text>
<text text-anchor="middle" x="474" y="-454.71" font-family="FreeSans" font-size="10.00">matte_color</text>
<text text-anchor="middle" x="474" y="-443.71" font-family="FreeSans" font-size="10.00">pen</text>
<text text-anchor="middle" x="474" y="-432.71" font-family="FreeSans" font-size="10.00">transparent_color</text>
</g>
<!-- Node3 -->
<g id="node3" class="node">
<title>Node3</title>
<g id="a_node3"><a xlink:href="struct__Image.html" target="_top" xlink:title=" ">
<polygon fill="white" stroke="black" points="447.5,-194.21 447.5,-213.21 500.5,-213.21 500.5,-194.21 447.5,-194.21"/>
<text text-anchor="middle" x="474" y="-201.21" font-family="FreeSans" font-size="10.00">_Image</text>
</a>
</g>
</g>
<!-- Node2&#45;&gt;Node3 -->
<g id="edge3" class="edge">
<title>Node2&#45;&gt;Node3</title>
<path fill="none" stroke="#9a32cd" stroke-dasharray="5,2" d="M276.71,-395.12C289.59,-387.96 305.8,-379.62 321,-373.71 359.59,-358.71 379.74,-376.85 411,-349.71 454.25,-312.16 468.15,-239.25 471.84,-213.22"/>
<polygon fill="#9a32cd" stroke="#9a32cd" points="274.94,-392.1 267.98,-400.08 278.4,-398.19 274.94,-392.1"/>
<text text-anchor="middle" x="366" y="-420.71" font-family="FreeSans" font-size="10.00"> background_color</text>
<text text-anchor="middle" x="366" y="-409.71" font-family="FreeSans" font-size="10.00">border_color</text>
<text text-anchor="middle" x="366" y="-398.71" font-family="FreeSans" font-size="10.00">colormap</text>
<text text-anchor="middle" x="366" y="-387.71" font-family="FreeSans" font-size="10.00">matte_color</text>
<text text-anchor="middle" x="366" y="-376.71" font-family="FreeSans" font-size="10.00">transparent_color</text>
</g>
<!-- Node3&#45;&gt;Node1 -->
<g id="edge2" class="edge">
<title>Node3&#45;&gt;Node1</title>
<path fill="none" stroke="#9a32cd" stroke-dasharray="5,2" d="M490.3,-221C524.32,-259.44 605.3,-350.94 631.88,-380.97"/>
<polygon fill="#9a32cd" stroke="#9a32cd" points="492.68,-218.41 483.43,-213.24 487.44,-223.05 492.68,-218.41"/>
<text text-anchor="middle" x="562.5" y="-343.71" font-family="FreeSans" font-size="10.00"> attributes</text>
<text text-anchor="middle" x="562.5" y="-332.71" font-family="FreeSans" font-size="10.00">stream</text>
</g>
<!-- Node3&#45;&gt;Node3 -->
<g id="edge7" class="edge">
<title>Node3&#45;&gt;Node3</title>
<path fill="none" stroke="#9a32cd" stroke-dasharray="5,2" d="M457.7,-223.11C458.79,-228.02 464.22,-231.71 474,-231.71 489.64,-231.71 494.16,-222.27 487.56,-213.47"/>
<polygon fill="#9a32cd" stroke="#9a32cd" points="461.08,-224.04 460.44,-213.47 454.34,-222.13 461.08,-224.04"/>
<text text-anchor="middle" x="474" y="-278.71" font-family="FreeSans" font-size="10.00"> clip_mask</text>
<text text-anchor="middle" x="474" y="-267.71" font-family="FreeSans" font-size="10.00">list</text>
<text text-anchor="middle" x="474" y="-256.71" font-family="FreeSans" font-size="10.00">mask</text>
<text text-anchor="middle" x="474" y="-245.71" font-family="FreeSans" font-size="10.00">next</text>
<text text-anchor="middle" x="474" y="-234.71" font-family="FreeSans" font-size="10.00">previous</text>
</g>
<!-- Node11 -->
<g id="node11" class="node">
<title>Node11</title>
<g id="a_node11"><a xlink:href="struct__BlobInfo.html" target="_top" xlink:title=" ">
<polygon fill="white" stroke="black" points="610.5,-143.21 610.5,-162.21 672.5,-162.21 672.5,-143.21 610.5,-143.21"/>
<text text-anchor="middle" x="641.5" y="-150.21" font-family="FreeSans" font-size="10.00">_BlobInfo</text>
</a>
</g>
</g>
<!-- Node3&#45;&gt;Node11 -->
<g id="edge14" class="edge">
<title>Node3&#45;&gt;Node11</title>
<path fill="none" stroke="#9a32cd" stroke-dasharray="5,2" d="M510.92,-199.64C533.52,-196.36 563.03,-190.78 588,-181.71 601.51,-176.8 615.71,-168.76 625.93,-162.39"/>
<polygon fill="#9a32cd" stroke="#9a32cd" points="510.18,-196.2 500.74,-201.02 511.12,-203.14 510.18,-196.2"/>
<text text-anchor="middle" x="562.5" y="-197.71" font-family="FreeSans" font-size="10.00"> stream</text>
</g>
<!-- Node4 -->
<g id="node4" class="node">
<title>Node4</title>
<g id="a_node4"><a xlink:href="struct__ChromaticityInfo.html" target="_top" xlink:title=" ">
<polygon fill="white" stroke="black" points="199,-329.21 199,-348.21 303,-348.21 303,-329.21 199,-329.21"/>
<text text-anchor="middle" x="251" y="-336.21" font-family="FreeSans" font-size="10.00">_ChromaticityInfo</text>
</a>
</g>
</g>
<!-- Node4&#45;&gt;Node3 -->
<g id="edge4" class="edge">
<title>Node4&#45;&gt;Node3</title>
<path fill="none" stroke="#9a32cd" stroke-dasharray="5,2" d="M313.61,-335.84C351.37,-333.01 395.37,-327.47 411,-316.71 448.22,-291.07 465.31,-235.53 470.86,-213.25"/>
<polygon fill="#9a32cd" stroke="#9a32cd" points="312.88,-332.38 303.15,-336.56 313.37,-339.36 312.88,-332.38"/>
<text text-anchor="middle" x="366" y="-337.71" font-family="FreeSans" font-size="10.00"> chromaticity</text>
</g>
<!-- Node5 -->
<g id="node5" class="node">
<title>Node5</title>
<g id="a_node5"><a xlink:href="struct__PrimaryInfo.html" target="_top" xlink:title=" ">
<polygon fill="white" stroke="black" points="6,-329.21 6,-348.21 85,-348.21 85,-329.21 6,-329.21"/>
<text text-anchor="middle" x="45.5" y="-336.21" font-family="FreeSans" font-size="10.00">_PrimaryInfo</text>
</a>
</g>
</g>
<!-- Node5&#45;&gt;Node4 -->
<g id="edge5" class="edge">
<title>Node5&#45;&gt;Node4</title>
<path fill="none" stroke="#9a32cd" stroke-dasharray="5,2" d="M95.46,-338.71C126.67,-338.71 167.04,-338.71 198.69,-338.71"/>
<polygon fill="#9a32cd" stroke="#9a32cd" points="95.26,-335.21 85.26,-338.71 95.26,-342.21 95.26,-335.21"/>
<text text-anchor="middle" x="145" y="-374.71" font-family="FreeSans" font-size="10.00"> blue_primary</text>
<text text-anchor="middle" x="145" y="-363.71" font-family="FreeSans" font-size="10.00">green_primary</text>
<text text-anchor="middle" x="145" y="-352.71" font-family="FreeSans" font-size="10.00">red_primary</text>
<text text-anchor="middle" x="145" y="-341.71" font-family="FreeSans" font-size="10.00">white_point</text>
</g>
<!-- Node6 -->
<g id="node6" class="node">
<title>Node6</title>
<g id="a_node6"><a xlink:href="struct__RectangleInfo.html" target="_top" xlink:title=" ">
<polygon fill="white" stroke="black" points="206.5,-272.21 206.5,-291.21 295.5,-291.21 295.5,-272.21 206.5,-272.21"/>
<text text-anchor="middle" x="251" y="-279.21" font-family="FreeSans" font-size="10.00">_RectangleInfo</text>
</a>
</g>
</g>
<!-- Node6&#45;&gt;Node3 -->
<g id="edge6" class="edge">
<title>Node6&#45;&gt;Node3</title>
<path fill="none" stroke="#9a32cd" stroke-dasharray="5,2" d="M305.48,-274.7C337.09,-269.33 377.37,-260.29 411,-245.71 430.09,-237.44 449.53,-223.1 461.43,-213.51"/>
<polygon fill="#9a32cd" stroke="#9a32cd" points="304.85,-271.26 295.54,-276.32 305.97,-278.17 304.85,-271.26"/>
<text text-anchor="middle" x="366" y="-306.71" font-family="FreeSans" font-size="10.00"> extract_info</text>
<text text-anchor="middle" x="366" y="-295.71" font-family="FreeSans" font-size="10.00">page</text>
<text text-anchor="middle" x="366" y="-284.71" font-family="FreeSans" font-size="10.00">tile_info</text>
<text text-anchor="middle" x="366" y="-273.71" font-family="FreeSans" font-size="10.00">tile_offset</text>
</g>
<!-- Node7 -->
<g id="node7" class="node">
<title>Node7</title>
<g id="a_node7"><a xlink:href="struct__ErrorInfo.html" target="_top" xlink:title=" ">
<polygon fill="white" stroke="black" points="219,-234.21 219,-253.21 283,-253.21 283,-234.21 219,-234.21"/>
<text text-anchor="middle" x="251" y="-241.21" font-family="FreeSans" font-size="10.00">_ErrorInfo</text>
</a>
</g>
</g>
<!-- Node7&#45;&gt;Node3 -->
<g id="edge8" class="edge">
<title>Node7&#45;&gt;Node3</title>
<path fill="none" stroke="#9a32cd" stroke-dasharray="5,2" d="M293.03,-236.68C325.16,-231.13 370.96,-223.11 411,-215.71 422.97,-213.5 436.21,-210.95 447.38,-208.77"/>
<polygon fill="#9a32cd" stroke="#9a32cd" points="292.36,-233.24 283.1,-238.39 293.55,-240.14 292.36,-233.24"/>
<text text-anchor="middle" x="366" y="-233.71" font-family="FreeSans" font-size="10.00"> error</text>
</g>
<!-- Node8 -->
<g id="node8" class="node">
<title>Node8</title>
<g id="a_node8"><a xlink:href="struct__TimerInfo.html" target="_top" xlink:title=" ">
<polygon fill="white" stroke="black" points="216.5,-196.21 216.5,-215.21 285.5,-215.21 285.5,-196.21 216.5,-196.21"/>
<text text-anchor="middle" x="251" y="-203.21" font-family="FreeSans" font-size="10.00">_TimerInfo</text>
</a>
</g>
</g>
<!-- Node8&#45;&gt;Node3 -->
<g id="edge9" class="edge">
<title>Node8&#45;&gt;Node3</title>
<path fill="none" stroke="#9a32cd" stroke-dasharray="5,2" d="M295.71,-205.02C304.1,-204.91 312.82,-204.8 321,-204.71 365.46,-204.24 417.25,-203.96 447.45,-203.82"/>
<polygon fill="#9a32cd" stroke="#9a32cd" points="295.64,-201.52 285.69,-205.17 295.74,-208.52 295.64,-201.52"/>
<text text-anchor="middle" x="366" y="-207.71" font-family="FreeSans" font-size="10.00"> timer</text>
</g>
<!-- Node9 -->
<g id="node9" class="node">
<title>Node9</title>
<g id="a_node9"><a xlink:href="struct__Timer.html" target="_top" xlink:title=" ">
<polygon fill="white" stroke="black" points="20.5,-196.21 20.5,-215.21 70.5,-215.21 70.5,-196.21 20.5,-196.21"/>
<text text-anchor="middle" x="45.5" y="-203.21" font-family="FreeSans" font-size="10.00">_Timer</text>
</a>
</g>
</g>
<!-- Node9&#45;&gt;Node8 -->
<g id="edge10" class="edge">
<title>Node9&#45;&gt;Node8</title>
<path fill="none" stroke="#9a32cd" stroke-dasharray="5,2" d="M80.66,-205.71C118.43,-205.71 178.9,-205.71 216.44,-205.71"/>
<polygon fill="#9a32cd" stroke="#9a32cd" points="80.64,-202.21 70.64,-205.71 80.64,-209.21 80.64,-202.21"/>
<text text-anchor="middle" x="145" y="-219.71" font-family="FreeSans" font-size="10.00"> elapsed</text>
<text text-anchor="middle" x="145" y="-208.71" font-family="FreeSans" font-size="10.00">user</text>
</g>
<!-- Node10 -->
<g id="node10" class="node">
<title>Node10</title>
<g id="a_node10"><a xlink:href="struct__Ascii85Info.html" target="_top" xlink:title=" ">
<polygon fill="white" stroke="black" points="213,-158.21 213,-177.21 289,-177.21 289,-158.21 213,-158.21"/>
<text text-anchor="middle" x="251" y="-165.21" font-family="FreeSans" font-size="10.00">_Ascii85Info</text>
</a>
</g>
</g>
<!-- Node10&#45;&gt;Node3 -->
<g id="edge11" class="edge">
<title>Node10&#45;&gt;Node3</title>
<path fill="none" stroke="#9a32cd" stroke-dasharray="5,2" d="M299.44,-172.64C331.16,-176.27 373.74,-181.76 411,-188.71 423.08,-190.96 436.35,-194.08 447.49,-196.89"/>
<polygon fill="#9a32cd" stroke="#9a32cd" points="299.45,-169.12 289.12,-171.48 298.67,-176.08 299.45,-169.12"/>
<text text-anchor="middle" x="366" y="-191.71" font-family="FreeSans" font-size="10.00"> ascii85</text>
</g>
<!-- Node11&#45;&gt;Node3 -->
<g id="edge12" class="edge">
<title>Node11&#45;&gt;Node3</title>
<path fill="none" stroke="#9a32cd" stroke-dasharray="5,2" d="M600.36,-156.68C580.87,-159.36 557.33,-163.73 537,-170.71 519.93,-176.57 501.88,-186.68 489.68,-194.17"/>
<polygon fill="#9a32cd" stroke="#9a32cd" points="600.95,-160.13 610.43,-155.39 600.07,-153.19 600.95,-160.13"/>
<text text-anchor="middle" x="562.5" y="-173.71" font-family="FreeSans" font-size="10.00"> blob</text>
</g>
<!-- Node12 -->
<g id="node12" class="node">
<title>Node12</title>
<g id="a_node12"><a xlink:href="unionFileInfo.html" target="_top" xlink:title=" ">
<polygon fill="white" stroke="black" points="447.5,-126.21 447.5,-145.21 500.5,-145.21 500.5,-126.21 447.5,-126.21"/>
<text text-anchor="middle" x="474" y="-133.21" font-family="FreeSans" font-size="10.00">FileInfo</text>
</a>
</g>
</g>
<!-- Node12&#45;&gt;Node11 -->
<g id="edge13" class="edge">
<title>Node12&#45;&gt;Node11</title>
<path fill="none" stroke="#9a32cd" stroke-dasharray="5,2" d="M510.79,-133.42C533.12,-132.64 562.39,-132.78 588,-136.71 596.76,-138.05 606.08,-140.53 614.4,-143.15"/>
<polygon fill="#9a32cd" stroke="#9a32cd" points="510.59,-129.93 500.75,-133.85 510.89,-136.92 510.59,-129.93"/>
<text text-anchor="middle" x="562.5" y="-139.71" font-family="FreeSans" font-size="10.00"> file_info</text>
</g>
<!-- Node13 -->
<g id="node13" class="node">
<title>Node13</title>
<g id="a_node13"><a xlink:href="structSemaphoreInfo.html" target="_top" xlink:title=" ">
<polygon fill="white" stroke="black" points="0,-73.21 0,-92.21 91,-92.21 91,-73.21 0,-73.21"/>
<text text-anchor="middle" x="45.5" y="-80.21" font-family="FreeSans" font-size="10.00">SemaphoreInfo</text>
</a>
</g>
</g>
<!-- Node13&#45;&gt;Node3 -->
<g id="edge18" class="edge">
<title>Node13&#45;&gt;Node3</title>
<path fill="none" stroke="#9a32cd" stroke-dasharray="5,2" d="M95.44,-94.61C100.02,-95.68 104.59,-96.73 109,-97.71 243.78,-127.77 283.43,-117.85 411,-170.71 427.22,-177.43 444.81,-187.03 457.1,-194.15"/>
<polygon fill="#9a32cd" stroke="#9a32cd" points="96,-91.15 85.46,-92.27 94.39,-97.96 96,-91.15"/>
<text text-anchor="middle" x="251" y="-136.71" font-family="FreeSans" font-size="10.00"> semaphore</text>
</g>
<!-- Node13&#45;&gt;Node11 -->
<g id="edge15" class="edge">
<title>Node13&#45;&gt;Node11</title>
<path fill="none" stroke="#9a32cd" stroke-dasharray="5,2" d="M73.55,-68.73C134.53,-39.1 287.03,24.54 411,-10.71 505.64,-37.62 599.45,-115.93 630.1,-143.21"/>
<polygon fill="#9a32cd" stroke="#9a32cd" points="71.98,-65.6 64.57,-73.17 75.09,-71.88 71.98,-65.6"/>
<text text-anchor="middle" x="366" y="-13.71" font-family="FreeSans" font-size="10.00"> semaphore</text>
</g>
<!-- Node14 -->
<g id="node14" class="node">
<title>Node14</title>
<g id="a_node14"><a xlink:href="struct__ExceptionInfo.html" target="_top" xlink:title=" ">
<polygon fill="white" stroke="black" points="206.5,-73.21 206.5,-92.21 295.5,-92.21 295.5,-73.21 206.5,-73.21"/>
<text text-anchor="middle" x="251" y="-80.21" font-family="FreeSans" font-size="10.00">_ExceptionInfo</text>
</a>
</g>
</g>
<!-- Node13&#45;&gt;Node14 -->
<g id="edge17" class="edge">
<title>Node13&#45;&gt;Node14</title>
<path fill="none" stroke="#9a32cd" stroke-dasharray="5,2" d="M101.54,-82.71C134.51,-82.71 175.82,-82.71 206.49,-82.71"/>
<polygon fill="#9a32cd" stroke="#9a32cd" points="101.16,-79.21 91.16,-82.71 101.16,-86.21 101.16,-79.21"/>
<text text-anchor="middle" x="145" y="-85.71" font-family="FreeSans" font-size="10.00"> semaphore</text>
</g>
<!-- Node14&#45;&gt;Node3 -->
<g id="edge16" class="edge">
<title>Node14&#45;&gt;Node3</title>
<path fill="none" stroke="#9a32cd" stroke-dasharray="5,2" d="M305.88,-83.91C345.54,-85.86 395.18,-90.88 411,-103.71 429.67,-118.85 416.73,-134.04 429,-154.71 438.1,-170.05 452.45,-184.89 462.27,-194.14"/>
<polygon fill="#9a32cd" stroke="#9a32cd" points="305.92,-80.41 295.78,-83.46 305.62,-87.4 305.92,-80.41"/>
<text text-anchor="middle" x="366" y="-106.71" font-family="FreeSans" font-size="10.00"> exception</text>
</g>
<!-- Node15 -->
<g id="node15" class="node">
<title>Node15</title>
<g id="a_node15"><a xlink:href="struct__ProfileInfo.html" target="_top" xlink:title=" ">
<polygon fill="white" stroke="black" points="215.5,-35.21 215.5,-54.21 286.5,-54.21 286.5,-35.21 215.5,-35.21"/>
<text text-anchor="middle" x="251" y="-42.21" font-family="FreeSans" font-size="10.00">_ProfileInfo</text>
</a>
</g>
</g>
<!-- Node15&#45;&gt;Node3 -->
<g id="edge19" class="edge">
<title>Node15&#45;&gt;Node3</title>
<path fill="none" stroke="#9a32cd" stroke-dasharray="5,2" d="M291.46,-32.72C327.02,-24.57 378.55,-19.73 411,-47.71 447.52,-79.2 408.06,-111.27 429,-154.71 436.65,-170.57 451.02,-185.08 461.25,-194.13"/>
<polygon fill="#9a32cd" stroke="#9a32cd" points="290.3,-29.4 281.43,-35.2 291.98,-36.2 290.3,-29.4"/>
<text text-anchor="middle" x="366" y="-72.71" font-family="FreeSans" font-size="10.00"> color_profile</text>
<text text-anchor="middle" x="366" y="-61.71" font-family="FreeSans" font-size="10.00">generic_profile</text>
<text text-anchor="middle" x="366" y="-50.71" font-family="FreeSans" font-size="10.00">iptc_profile</text>
</g>
</g>
</svg>
