<?xml version="1.0" encoding="UTF-8" standalone="no"?>
<!DOCTYPE svg PUBLIC "-//W3C//DTD SVG 1.1//EN"
 "http://www.w3.org/Graphics/SVG/1.1/DTD/svg11.dtd">
<!-- Generated by graphviz version 2.43.0 (0)
 -->
<!-- Title: _HashmapInfo Pages: 1 -->
<svg width="241pt" height="184pt"
 viewBox="0.00 0.00 241.00 184.00" xmlns="http://www.w3.org/2000/svg" xmlns:xlink="http://www.w3.org/1999/xlink">
<g id="graph0" class="graph" transform="scale(1 1) rotate(0) translate(4 180)">
<title>_HashmapInfo</title>
<polygon fill="white" stroke="transparent" points="-4,4 -4,-180 237,-180 237,4 -4,4"/>
<!-- Node1 -->
<g id="node1" class="node">
<title>Node1</title>
<g id="a_node1"><a xlink:title=" ">
<polygon fill="#bfbfbf" stroke="black" points="104,-0.5 104,-19.5 191,-19.5 191,-0.5 104,-0.5"/>
<text text-anchor="middle" x="147.5" y="-7.5" font-family="FreeSans" font-size="10.00">_HashmapInfo</text>
</a>
</g>
</g>
<!-- Node2 -->
<g id="node2" class="node">
<title>Node2</title>
<g id="a_node2"><a xlink:href="struct__LinkedListInfo.html" target="_top" xlink:title=" ">
<polygon fill="white" stroke="black" points="62,-67.5 62,-86.5 151,-86.5 151,-67.5 62,-67.5"/>
<text text-anchor="middle" x="106.5" y="-74.5" font-family="FreeSans" font-size="10.00">_LinkedListInfo</text>
</a>
</g>
</g>
<!-- Node2&#45;&gt;Node1 -->
<g id="edge1" class="edge">
<title>Node2&#45;&gt;Node1</title>
<path fill="none" stroke="#9a32cd" stroke-dasharray="5,2" d="M117.52,-58.53C125.45,-45.95 135.83,-29.51 142.06,-19.63"/>
<polygon fill="#9a32cd" stroke="#9a32cd" points="114.4,-56.91 112.03,-67.23 120.32,-60.64 114.4,-56.91"/>
<text text-anchor="middle" x="142" y="-41" font-family="FreeSans" font-size="10.00"> map</text>
</g>
<!-- Node3 -->
<g id="node3" class="node">
<title>Node3</title>
<g id="a_node3"><a xlink:href="struct__ElementInfo.html" target="_top" xlink:title=" ">
<polygon fill="white" stroke="black" points="0,-156.5 0,-175.5 81,-175.5 81,-156.5 0,-156.5"/>
<text text-anchor="middle" x="40.5" y="-163.5" font-family="FreeSans" font-size="10.00">_ElementInfo</text>
</a>
</g>
</g>
<!-- Node3&#45;&gt;Node2 -->
<g id="edge2" class="edge">
<title>Node3&#45;&gt;Node2</title>
<path fill="none" stroke="#9a32cd" stroke-dasharray="5,2" d="M43.18,-146.35C45.81,-133.58 50.88,-116.88 60.5,-105 66.91,-97.09 76.31,-90.99 84.94,-86.61"/>
<polygon fill="#9a32cd" stroke="#9a32cd" points="39.71,-145.89 41.45,-156.34 46.61,-147.08 39.71,-145.89"/>
<text text-anchor="middle" x="74.5" y="-130" font-family="FreeSans" font-size="10.00"> head</text>
<text text-anchor="middle" x="74.5" y="-119" font-family="FreeSans" font-size="10.00">next</text>
<text text-anchor="middle" x="74.5" y="-108" font-family="FreeSans" font-size="10.00">tail</text>
</g>
<!-- Node3&#45;&gt;Node3 -->
<g id="edge3" class="edge">
<title>Node3&#45;&gt;Node3</title>
<path fill="none" stroke="#9a32cd" stroke-dasharray="5,2" d="M91.32,-172.59C96.03,-171.23 99,-169.03 99,-166 99,-161.14 91.4,-158.43 81.23,-157.86"/>
<polygon fill="#9a32cd" stroke="#9a32cd" points="90.59,-169.16 81.23,-174.14 91.65,-176.08 90.59,-169.16"/>
<text text-anchor="middle" x="111.5" y="-163.5" font-family="FreeSans" font-size="10.00"> next</text>
</g>
<!-- Node4 -->
<g id="node4" class="node">
<title>Node4</title>
<g id="a_node4"><a xlink:href="structSemaphoreInfo.html" target="_top" xlink:title=" ">
<polygon fill="white" stroke="black" points="142,-156.5 142,-175.5 233,-175.5 233,-156.5 142,-156.5"/>
<text text-anchor="middle" x="187.5" y="-163.5" font-family="FreeSans" font-size="10.00">SemaphoreInfo</text>
</a>
</g>
</g>
<!-- Node4&#45;&gt;Node1 -->
<g id="edge5" class="edge">
<title>Node4&#45;&gt;Node1</title>
<path fill="none" stroke="#9a32cd" stroke-dasharray="5,2" d="M184.22,-146.31C179.61,-121.32 170.42,-75.78 158.5,-38 156.55,-31.82 153.8,-25.07 151.54,-19.87"/>
<polygon fill="#9a32cd" stroke="#9a32cd" points="180.79,-147.03 186.01,-156.25 187.68,-145.78 180.79,-147.03"/>
<text text-anchor="middle" x="201.5" y="-74.5" font-family="FreeSans" font-size="10.00"> semaphore</text>
</g>
<!-- Node4&#45;&gt;Node2 -->
<g id="edge4" class="edge">
<title>Node4&#45;&gt;Node2</title>
<path fill="none" stroke="#9a32cd" stroke-dasharray="5,2" d="M133.32,-152.15C126.53,-148.54 120.29,-143.92 115.5,-138 103.57,-123.26 103.97,-99.59 105.25,-86.83"/>
<polygon fill="#9a32cd" stroke="#9a32cd" points="132.3,-155.53 142.85,-156.47 135.19,-149.16 132.3,-155.53"/>
<text text-anchor="middle" x="144.5" y="-119" font-family="FreeSans" font-size="10.00"> semaphore</text>
</g>
</g>
</svg>
