<?xml version="1.0" encoding="UTF-8" standalone="no"?>
<!DOCTYPE svg PUBLIC "-//W3C//DTD SVG 1.1//EN"
 "http://www.w3.org/Graphics/SVG/1.1/DTD/svg11.dtd">
<!-- Generated by graphviz version 2.43.0 (0)
 -->
<!-- Title: _CCObjectInfo Pages: 1 -->
<svg width="310pt" height="95pt"
 viewBox="0.00 0.00 310.00 95.00" xmlns="http://www.w3.org/2000/svg" xmlns:xlink="http://www.w3.org/1999/xlink">
<g id="graph0" class="graph" transform="scale(1 1) rotate(0) translate(4 91)">
<title>_CCObjectInfo</title>
<polygon fill="white" stroke="transparent" points="-4,4 -4,-91 306,-91 306,4 -4,4"/>
<!-- Node1 -->
<g id="node1" class="node">
<title>Node1</title>
<g id="a_node1"><a xlink:title=" ">
<polygon fill="#bfbfbf" stroke="black" points="119.5,-0.5 119.5,-19.5 205.5,-19.5 205.5,-0.5 119.5,-0.5"/>
<text text-anchor="middle" x="162.5" y="-7.5" font-family="FreeSans" font-size="10.00">_CCObjectInfo</text>
</a>
</g>
</g>
<!-- Node2 -->
<g id="node2" class="node">
<title>Node2</title>
<g id="a_node2"><a xlink:href="struct__RectangleInfo.html" target="_top" xlink:title=" ">
<polygon fill="white" stroke="black" points="0,-67.5 0,-86.5 89,-86.5 89,-67.5 0,-67.5"/>
<text text-anchor="middle" x="44.5" y="-74.5" font-family="FreeSans" font-size="10.00">_RectangleInfo</text>
</a>
</g>
</g>
<!-- Node2&#45;&gt;Node1 -->
<g id="edge1" class="edge">
<title>Node2&#45;&gt;Node1</title>
<path fill="none" stroke="#9a32cd" stroke-dasharray="5,2" d="M59.37,-59.87C66.92,-52.42 76.58,-43.92 86.5,-38 99.84,-30.03 115.9,-23.9 129.82,-19.5"/>
<polygon fill="#9a32cd" stroke="#9a32cd" points="56.54,-57.76 52.09,-67.38 61.56,-62.63 56.54,-57.76"/>
<text text-anchor="middle" x="122.5" y="-41" font-family="FreeSans" font-size="10.00"> bounding_box</text>
</g>
<!-- Node3 -->
<g id="node3" class="node">
<title>Node3</title>
<g id="a_node3"><a xlink:href="struct__MagickPixelPacket.html" target="_top" xlink:title=" ">
<polygon fill="white" stroke="black" points="106.5,-67.5 106.5,-86.5 218.5,-86.5 218.5,-67.5 106.5,-67.5"/>
<text text-anchor="middle" x="162.5" y="-74.5" font-family="FreeSans" font-size="10.00">_MagickPixelPacket</text>
</a>
</g>
</g>
<!-- Node3&#45;&gt;Node1 -->
<g id="edge2" class="edge">
<title>Node3&#45;&gt;Node1</title>
<path fill="none" stroke="#9a32cd" stroke-dasharray="5,2" d="M162.5,-57.04C162.5,-44.67 162.5,-29.12 162.5,-19.63"/>
<polygon fill="#9a32cd" stroke="#9a32cd" points="159,-57.23 162.5,-67.23 166,-57.23 159,-57.23"/>
<text text-anchor="middle" x="176.5" y="-41" font-family="FreeSans" font-size="10.00"> color</text>
</g>
<!-- Node4 -->
<g id="node4" class="node">
<title>Node4</title>
<g id="a_node4"><a xlink:href="struct__PointInfo.html" target="_top" xlink:title=" ">
<polygon fill="white" stroke="black" points="237,-67.5 237,-86.5 302,-86.5 302,-67.5 237,-67.5"/>
<text text-anchor="middle" x="269.5" y="-74.5" font-family="FreeSans" font-size="10.00">_PointInfo</text>
</a>
</g>
</g>
<!-- Node4&#45;&gt;Node1 -->
<g id="edge3" class="edge">
<title>Node4&#45;&gt;Node1</title>
<path fill="none" stroke="#9a32cd" stroke-dasharray="5,2" d="M246.36,-61.94C225.17,-49.07 194.48,-30.43 176.7,-19.63"/>
<polygon fill="#9a32cd" stroke="#9a32cd" points="244.71,-65.03 255.07,-67.23 248.34,-59.05 244.71,-65.03"/>
<text text-anchor="middle" x="243" y="-41" font-family="FreeSans" font-size="10.00"> centroid</text>
</g>
</g>
</svg>
