<?xml version="1.0" encoding="UTF-8" standalone="no"?>
<!DOCTYPE svg PUBLIC "-//W3C//DTD SVG 1.1//EN"
 "http://www.w3.org/Graphics/SVG/1.1/DTD/svg11.dtd">
<!-- Generated by graphviz version 2.43.0 (0)
 -->
<!-- Title: _XMLTreeInfo Pages: 1 -->
<svg width="150pt" height="130pt"
 viewBox="0.00 0.00 150.00 130.00" xmlns="http://www.w3.org/2000/svg" xmlns:xlink="http://www.w3.org/1999/xlink">
<g id="graph0" class="graph" transform="scale(1 1) rotate(0) translate(4 126)">
<title>_XMLTreeInfo</title>
<polygon fill="white" stroke="transparent" points="-4,4 -4,-126 146,-126 146,4 -4,4"/>
<!-- Node1 -->
<g id="node1" class="node">
<title>Node1</title>
<g id="a_node1"><a xlink:title=" ">
<polygon fill="#bfbfbf" stroke="black" points="5,-18 5,-37 86,-37 86,-18 5,-18"/>
<text text-anchor="middle" x="45.5" y="-25" font-family="FreeSans" font-size="10.00">_XMLTreeInfo</text>
</a>
</g>
</g>
<!-- Node1&#45;&gt;Node1 -->
<g id="edge1" class="edge">
<title>Node1&#45;&gt;Node1</title>
<path fill="none" stroke="#9a32cd" stroke-dasharray="5,2" d="M96.32,-34.99C101.03,-33.45 104,-30.95 104,-27.5 104,-21.98 96.4,-18.9 86.23,-18.25"/>
<polygon fill="#9a32cd" stroke="#9a32cd" points="95.49,-31.58 86.23,-36.75 96.69,-38.48 95.49,-31.58"/>
<text text-anchor="middle" x="123" y="-47" font-family="FreeSans" font-size="10.00"> child</text>
<text text-anchor="middle" x="123" y="-36" font-family="FreeSans" font-size="10.00">next</text>
<text text-anchor="middle" x="123" y="-25" font-family="FreeSans" font-size="10.00">ordered</text>
<text text-anchor="middle" x="123" y="-14" font-family="FreeSans" font-size="10.00">parent</text>
<text text-anchor="middle" x="123" y="-3" font-family="FreeSans" font-size="10.00">sibling</text>
</g>
<!-- Node2 -->
<g id="node2" class="node">
<title>Node2</title>
<g id="a_node2"><a xlink:href="structSemaphoreInfo.html" target="_top" xlink:title=" ">
<polygon fill="white" stroke="black" points="0,-102.5 0,-121.5 91,-121.5 91,-102.5 0,-102.5"/>
<text text-anchor="middle" x="45.5" y="-109.5" font-family="FreeSans" font-size="10.00">SemaphoreInfo</text>
</a>
</g>
</g>
<!-- Node2&#45;&gt;Node1 -->
<g id="edge2" class="edge">
<title>Node2&#45;&gt;Node1</title>
<path fill="none" stroke="#9a32cd" stroke-dasharray="5,2" d="M45.5,-92.43C45.5,-75.13 45.5,-50.11 45.5,-37.1"/>
<polygon fill="#9a32cd" stroke="#9a32cd" points="42,-92.48 45.5,-102.48 49,-92.48 42,-92.48"/>
<text text-anchor="middle" x="74.5" y="-76" font-family="FreeSans" font-size="10.00"> semaphore</text>
</g>
</g>
</svg>
