<?xml version="1.0" encoding="UTF-8" standalone="no"?>
<!DOCTYPE svg PUBLIC "-//W3C//DTD SVG 1.1//EN"
 "http://www.w3.org/Graphics/SVG/1.1/DTD/svg11.dtd">
<!-- Generated by graphviz version 2.43.0 (0)
 -->
<!-- Title: _LogInfo Pages: 1 -->
<svg width="220pt" height="173pt"
 viewBox="0.00 0.00 219.50 173.00" xmlns="http://www.w3.org/2000/svg" xmlns:xlink="http://www.w3.org/1999/xlink">
<g id="graph0" class="graph" transform="scale(1 1) rotate(0) translate(4 169)">
<title>_LogInfo</title>
<polygon fill="white" stroke="transparent" points="-4,4 -4,-169 215.5,-169 215.5,4 -4,4"/>
<!-- Node1 -->
<g id="node1" class="node">
<title>Node1</title>
<g id="a_node1"><a xlink:title=" ">
<polygon fill="#bfbfbf" stroke="black" points="76.5,-0.5 76.5,-19.5 134.5,-19.5 134.5,-0.5 76.5,-0.5"/>
<text text-anchor="middle" x="105.5" y="-7.5" font-family="FreeSans" font-size="10.00">_LogInfo</text>
</a>
</g>
</g>
<!-- Node2 -->
<g id="node2" class="node">
<title>Node2</title>
<g id="a_node2"><a xlink:href="struct__TimerInfo.html" target="_top" xlink:title=" ">
<polygon fill="white" stroke="black" points="0,-67.5 0,-86.5 69,-86.5 69,-67.5 0,-67.5"/>
<text text-anchor="middle" x="34.5" y="-74.5" font-family="FreeSans" font-size="10.00">_TimerInfo</text>
</a>
</g>
</g>
<!-- Node2&#45;&gt;Node1 -->
<g id="edge1" class="edge">
<title>Node2&#45;&gt;Node1</title>
<path fill="none" stroke="#9a32cd" stroke-dasharray="5,2" d="M51.59,-60.36C65.55,-47.58 84.76,-29.99 96.08,-19.63"/>
<polygon fill="#9a32cd" stroke="#9a32cd" points="49.09,-57.9 44.08,-67.23 53.81,-63.06 49.09,-57.9"/>
<text text-anchor="middle" x="89.5" y="-41" font-family="FreeSans" font-size="10.00"> timer</text>
</g>
<!-- Node3 -->
<g id="node3" class="node">
<title>Node3</title>
<g id="a_node3"><a xlink:href="struct__Timer.html" target="_top" xlink:title=" ">
<polygon fill="white" stroke="black" points="9.5,-145.5 9.5,-164.5 59.5,-164.5 59.5,-145.5 9.5,-145.5"/>
<text text-anchor="middle" x="34.5" y="-152.5" font-family="FreeSans" font-size="10.00">_Timer</text>
</a>
</g>
</g>
<!-- Node3&#45;&gt;Node2 -->
<g id="edge2" class="edge">
<title>Node3&#45;&gt;Node2</title>
<path fill="none" stroke="#9a32cd" stroke-dasharray="5,2" d="M34.5,-135.22C34.5,-119.7 34.5,-98.36 34.5,-86.62"/>
<polygon fill="#9a32cd" stroke="#9a32cd" points="31,-135.28 34.5,-145.28 38,-135.28 31,-135.28"/>
<text text-anchor="middle" x="55.5" y="-119" font-family="FreeSans" font-size="10.00"> elapsed</text>
<text text-anchor="middle" x="55.5" y="-108" font-family="FreeSans" font-size="10.00">user</text>
</g>
<!-- Node4 -->
<g id="node4" class="node">
<title>Node4</title>
<g id="a_node4"><a xlink:href="structSemaphoreInfo.html" target="_top" xlink:title=" ">
<polygon fill="white" stroke="black" points="87,-67.5 87,-86.5 178,-86.5 178,-67.5 87,-67.5"/>
<text text-anchor="middle" x="132.5" y="-74.5" font-family="FreeSans" font-size="10.00">SemaphoreInfo</text>
</a>
</g>
</g>
<!-- Node4&#45;&gt;Node1 -->
<g id="edge3" class="edge">
<title>Node4&#45;&gt;Node1</title>
<path fill="none" stroke="#9a32cd" stroke-dasharray="5,2" d="M124.94,-57.79C119.75,-45.31 113.11,-29.31 109.08,-19.63"/>
<polygon fill="#9a32cd" stroke="#9a32cd" points="121.79,-59.34 128.86,-67.23 128.25,-56.66 121.79,-59.34"/>
<text text-anchor="middle" x="166" y="-41" font-family="FreeSans" font-size="10.00"> event_semaphore</text>
</g>
</g>
</svg>
