<?xml version="1.0" encoding="UTF-8" standalone="no"?>
<!DOCTYPE svg PUBLIC "-//W3C//DTD SVG 1.1//EN"
 "http://www.w3.org/Graphics/SVG/1.1/DTD/svg11.dtd">
<!-- Generated by graphviz version 2.43.0 (0)
 -->
<!-- Title: _NodeInfo Pages: 1 -->
<svg width="216pt" height="186pt"
 viewBox="0.00 0.00 216.00 186.00" xmlns="http://www.w3.org/2000/svg" xmlns:xlink="http://www.w3.org/1999/xlink">
<g id="graph0" class="graph" transform="scale(1 1) rotate(0) translate(4 182)">
<title>_NodeInfo</title>
<polygon fill="white" stroke="transparent" points="-4,4 -4,-182 212,-182 212,4 -4,4"/>
<!-- Node1 -->
<g id="node1" class="node">
<title>Node1</title>
<g id="a_node1"><a xlink:title=" ">
<polygon fill="#bfbfbf" stroke="black" points="63.5,-12.5 63.5,-31.5 129.5,-31.5 129.5,-12.5 63.5,-12.5"/>
<text text-anchor="middle" x="96.5" y="-19.5" font-family="FreeSans" font-size="10.00">_NodeInfo</text>
</a>
</g>
</g>
<!-- Node1&#45;&gt;Node1 -->
<g id="edge1" class="edge">
<title>Node1&#45;&gt;Node1</title>
<path fill="none" stroke="#9a32cd" stroke-dasharray="5,2" d="M139.8,-28.9C144.48,-27.58 147.5,-25.28 147.5,-22 147.5,-16.76 139.78,-14.01 129.85,-13.77"/>
<polygon fill="#9a32cd" stroke="#9a32cd" points="139.3,-25.44 129.85,-30.23 140.23,-32.37 139.3,-25.44"/>
<text text-anchor="middle" x="163.5" y="-36" font-family="FreeSans" font-size="10.00"> child</text>
<text text-anchor="middle" x="163.5" y="-25" font-family="FreeSans" font-size="10.00">left</text>
<text text-anchor="middle" x="163.5" y="-14" font-family="FreeSans" font-size="10.00">parent</text>
<text text-anchor="middle" x="163.5" y="-3" font-family="FreeSans" font-size="10.00">right</text>
</g>
<!-- Node2 -->
<g id="node2" class="node">
<title>Node2</title>
<g id="a_node2"><a xlink:href="struct__ColorPacket.html" target="_top" xlink:title=" ">
<polygon fill="white" stroke="black" points="0,-91.5 0,-110.5 79,-110.5 79,-91.5 0,-91.5"/>
<text text-anchor="middle" x="39.5" y="-98.5" font-family="FreeSans" font-size="10.00">_ColorPacket</text>
</a>
</g>
</g>
<!-- Node2&#45;&gt;Node1 -->
<g id="edge2" class="edge">
<title>Node2&#45;&gt;Node1</title>
<path fill="none" stroke="#9a32cd" stroke-dasharray="5,2" d="M52,-83.12C63.71,-67.3 80.75,-44.27 89.98,-31.81"/>
<polygon fill="#9a32cd" stroke="#9a32cd" points="48.95,-81.35 45.82,-91.47 54.58,-85.51 48.95,-81.35"/>
<text text-anchor="middle" x="76" y="-65" font-family="FreeSans" font-size="10.00"> list</text>
</g>
<!-- Node3 -->
<g id="node3" class="node">
<title>Node3</title>
<g id="a_node3"><a xlink:href="struct__PixelPacket.html" target="_top" xlink:title=" ">
<polygon fill="white" stroke="black" points="1,-158.5 1,-177.5 78,-177.5 78,-158.5 1,-158.5"/>
<text text-anchor="middle" x="39.5" y="-165.5" font-family="FreeSans" font-size="10.00">_PixelPacket</text>
</a>
</g>
</g>
<!-- Node3&#45;&gt;Node2 -->
<g id="edge3" class="edge">
<title>Node3&#45;&gt;Node2</title>
<path fill="none" stroke="#9a32cd" stroke-dasharray="5,2" d="M39.5,-148.04C39.5,-135.67 39.5,-120.12 39.5,-110.63"/>
<polygon fill="#9a32cd" stroke="#9a32cd" points="36,-148.23 39.5,-158.23 43,-148.23 36,-148.23"/>
<text text-anchor="middle" x="53" y="-132" font-family="FreeSans" font-size="10.00"> pixel</text>
</g>
<!-- Node4 -->
<g id="node4" class="node">
<title>Node4</title>
<g id="a_node4"><a xlink:href="struct__DoublePixelPacket.html" target="_top" xlink:title=" ">
<polygon fill="white" stroke="black" points="97,-91.5 97,-110.5 208,-110.5 208,-91.5 97,-91.5"/>
<text text-anchor="middle" x="152.5" y="-98.5" font-family="FreeSans" font-size="10.00">_DoublePixelPacket</text>
</a>
</g>
</g>
<!-- Node4&#45;&gt;Node1 -->
<g id="edge4" class="edge">
<title>Node4&#45;&gt;Node1</title>
<path fill="none" stroke="#9a32cd" stroke-dasharray="5,2" d="M140.22,-83.12C128.72,-67.3 111.97,-44.27 102.91,-31.81"/>
<polygon fill="#9a32cd" stroke="#9a32cd" points="137.58,-85.44 146.29,-91.47 143.24,-81.32 137.58,-85.44"/>
<text text-anchor="middle" x="160" y="-65" font-family="FreeSans" font-size="10.00"> total_color</text>
</g>
</g>
</svg>
