<?xml version="1.0" encoding="UTF-8" standalone="no"?>
<!DOCTYPE svg PUBLIC "-//W3C//DTD SVG 1.1//EN"
 "http://www.w3.org/Graphics/SVG/1.1/DTD/svg11.dtd">
<!-- Generated by graphviz version 2.43.0 (0)
 -->
<!-- Title: _CacheMethods Pages: 1 -->
<svg width="801pt" height="568pt"
 viewBox="0.00 0.00 801.00 567.74" xmlns="http://www.w3.org/2000/svg" xmlns:xlink="http://www.w3.org/1999/xlink">
<g id="graph0" class="graph" transform="scale(1 1) rotate(0) translate(4 563.74)">
<title>_CacheMethods</title>
<polygon fill="white" stroke="transparent" points="-4,4 -4,-563.74 797,-563.74 797,4 -4,4"/>
<!-- Node1 -->
<g id="node1" class="node">
<title>Node1</title>
<g id="a_node1"><a xlink:title=" ">
<polygon fill="#bfbfbf" stroke="black" points="699,-360.24 699,-379.24 793,-379.24 793,-360.24 699,-360.24"/>
<text text-anchor="middle" x="746" y="-367.24" font-family="FreeSans" font-size="10.00">_CacheMethods</text>
</a>
</g>
</g>
<!-- Node2 -->
<g id="node2" class="node">
<title>Node2</title>
<g id="a_node2"><a xlink:href="struct__PixelPacket.html" target="_top" xlink:title=" ">
<polygon fill="white" stroke="black" points="212.5,-396.24 212.5,-415.24 289.5,-415.24 289.5,-396.24 212.5,-396.24"/>
<text text-anchor="middle" x="251" y="-403.24" font-family="FreeSans" font-size="10.00">_PixelPacket</text>
</a>
</g>
</g>
<!-- Node2&#45;&gt;Node1 -->
<g id="edge1" class="edge">
<title>Node2&#45;&gt;Node1</title>
<path fill="none" stroke="#9a32cd" stroke-dasharray="5,2" d="M293.71,-417.99C372.35,-438.88 546.7,-474.52 681,-424.74 705.45,-415.67 726.84,-392.62 737.61,-379.42"/>
<polygon fill="#9a32cd" stroke="#9a32cd" points="294.28,-414.52 283.71,-415.28 292.45,-421.27 294.28,-414.52"/>
<text text-anchor="start" x="429" y="-551.74" font-family="FreeSans" font-size="10.00"> get_authentic_pixels</text>
<text text-anchor="middle" x="486.5" y="-540.74" font-family="FreeSans" font-size="10.00">_from_handler</text>
<text text-anchor="start" x="429" y="-529.74" font-family="FreeSans" font-size="10.00">get_authentic_pixels</text>
<text text-anchor="middle" x="486.5" y="-518.74" font-family="FreeSans" font-size="10.00">_handler</text>
<text text-anchor="start" x="429" y="-507.74" font-family="FreeSans" font-size="10.00">get_virtual_pixel</text>
<text text-anchor="middle" x="486.5" y="-496.74" font-family="FreeSans" font-size="10.00">_handler</text>
<text text-anchor="start" x="429" y="-485.74" font-family="FreeSans" font-size="10.00">get_virtual_pixels</text>
<text text-anchor="middle" x="486.5" y="-474.74" font-family="FreeSans" font-size="10.00">_handler</text>
<text text-anchor="start" x="429" y="-463.74" font-family="FreeSans" font-size="10.00">queue_authentic_pixels</text>
<text text-anchor="middle" x="486.5" y="-452.74" font-family="FreeSans" font-size="10.00">_handler</text>
</g>
<!-- Node3 -->
<g id="node3" class="node">
<title>Node3</title>
<g id="a_node3"><a xlink:href="struct__Image.html" target="_top" xlink:title=" ">
<polygon fill="white" stroke="black" points="460,-190.24 460,-209.24 513,-209.24 513,-190.24 460,-190.24"/>
<text text-anchor="middle" x="486.5" y="-197.24" font-family="FreeSans" font-size="10.00">_Image</text>
</a>
</g>
</g>
<!-- Node2&#45;&gt;Node3 -->
<g id="edge3" class="edge">
<title>Node2&#45;&gt;Node3</title>
<path fill="none" stroke="#9a32cd" stroke-dasharray="5,2" d="M276.74,-391.22C289.63,-384.07 305.83,-375.72 321,-369.74 359.62,-354.49 378.81,-370.95 411,-344.74 456.42,-307.74 477.1,-235.77 483.35,-209.57"/>
<polygon fill="#9a32cd" stroke="#9a32cd" points="274.98,-388.19 268,-396.16 278.42,-394.28 274.98,-388.19"/>
<text text-anchor="middle" x="366" y="-416.74" font-family="FreeSans" font-size="10.00"> background_color</text>
<text text-anchor="middle" x="366" y="-405.74" font-family="FreeSans" font-size="10.00">border_color</text>
<text text-anchor="middle" x="366" y="-394.74" font-family="FreeSans" font-size="10.00">colormap</text>
<text text-anchor="middle" x="366" y="-383.74" font-family="FreeSans" font-size="10.00">matte_color</text>
<text text-anchor="middle" x="366" y="-372.74" font-family="FreeSans" font-size="10.00">transparent_color</text>
</g>
<!-- Node3&#45;&gt;Node1 -->
<g id="edge2" class="edge">
<title>Node3&#45;&gt;Node1</title>
<path fill="none" stroke="#9a32cd" stroke-dasharray="5,2" d="M519.86,-213.4C559.81,-231.08 628.85,-264.34 681,-303.74 703.67,-320.86 725.76,-346.08 737.11,-359.86"/>
<polygon fill="#9a32cd" stroke="#9a32cd" points="521.16,-210.15 510.6,-209.35 518.36,-216.56 521.16,-210.15"/>
<text text-anchor="middle" x="621.5" y="-416.74" font-family="FreeSans" font-size="10.00"> destroy_pixel_handler</text>
<text text-anchor="start" x="562" y="-405.74" font-family="FreeSans" font-size="10.00">get_authentic_indexes</text>
<text text-anchor="middle" x="621.5" y="-394.74" font-family="FreeSans" font-size="10.00">_from_handler</text>
<text text-anchor="start" x="562" y="-383.74" font-family="FreeSans" font-size="10.00">get_one_authentic_pixel</text>
<text text-anchor="middle" x="621.5" y="-372.74" font-family="FreeSans" font-size="10.00">_from_handler</text>
<text text-anchor="start" x="562" y="-361.74" font-family="FreeSans" font-size="10.00">get_one_virtual_pixel</text>
<text text-anchor="middle" x="621.5" y="-350.74" font-family="FreeSans" font-size="10.00">_from_handler</text>
<text text-anchor="start" x="562" y="-339.74" font-family="FreeSans" font-size="10.00">get_virtual_indexes</text>
<text text-anchor="middle" x="621.5" y="-328.74" font-family="FreeSans" font-size="10.00">_from_handler</text>
<text text-anchor="start" x="562" y="-317.74" font-family="FreeSans" font-size="10.00">sync_authentic_pixels</text>
<text text-anchor="middle" x="621.5" y="-306.74" font-family="FreeSans" font-size="10.00">_handler</text>
</g>
<!-- Node3&#45;&gt;Node3 -->
<g id="edge7" class="edge">
<title>Node3&#45;&gt;Node3</title>
<path fill="none" stroke="#9a32cd" stroke-dasharray="5,2" d="M464.18,-218.76C465.4,-223.86 472.84,-227.74 486.5,-227.74 507.83,-227.74 513.99,-218.3 505,-209.49"/>
<polygon fill="#9a32cd" stroke="#9a32cd" points="467.43,-220.07 468,-209.49 460.95,-217.4 467.43,-220.07"/>
<text text-anchor="middle" x="486.5" y="-274.74" font-family="FreeSans" font-size="10.00"> clip_mask</text>
<text text-anchor="middle" x="486.5" y="-263.74" font-family="FreeSans" font-size="10.00">list</text>
<text text-anchor="middle" x="486.5" y="-252.74" font-family="FreeSans" font-size="10.00">mask</text>
<text text-anchor="middle" x="486.5" y="-241.74" font-family="FreeSans" font-size="10.00">next</text>
<text text-anchor="middle" x="486.5" y="-230.74" font-family="FreeSans" font-size="10.00">previous</text>
</g>
<!-- Node11 -->
<g id="node11" class="node">
<title>Node11</title>
<g id="a_node11"><a xlink:href="struct__BlobInfo.html" target="_top" xlink:title=" ">
<polygon fill="white" stroke="black" points="715,-139.24 715,-158.24 777,-158.24 777,-139.24 715,-139.24"/>
<text text-anchor="middle" x="746" y="-146.24" font-family="FreeSans" font-size="10.00">_BlobInfo</text>
</a>
</g>
</g>
<!-- Node3&#45;&gt;Node11 -->
<g id="edge14" class="edge">
<title>Node3&#45;&gt;Node11</title>
<path fill="none" stroke="#9a32cd" stroke-dasharray="5,2" d="M523.17,-199C562.48,-197.42 627.26,-192.57 681,-177.74 697.58,-173.16 715.31,-164.83 727.9,-158.26"/>
<polygon fill="#9a32cd" stroke="#9a32cd" points="522.9,-195.5 513.03,-199.35 523.14,-202.5 522.9,-195.5"/>
<text text-anchor="middle" x="621.5" y="-198.74" font-family="FreeSans" font-size="10.00"> stream</text>
</g>
<!-- Node4 -->
<g id="node4" class="node">
<title>Node4</title>
<g id="a_node4"><a xlink:href="struct__ChromaticityInfo.html" target="_top" xlink:title=" ">
<polygon fill="white" stroke="black" points="199,-325.24 199,-344.24 303,-344.24 303,-325.24 199,-325.24"/>
<text text-anchor="middle" x="251" y="-332.24" font-family="FreeSans" font-size="10.00">_ChromaticityInfo</text>
</a>
</g>
</g>
<!-- Node4&#45;&gt;Node3 -->
<g id="edge4" class="edge">
<title>Node4&#45;&gt;Node3</title>
<path fill="none" stroke="#9a32cd" stroke-dasharray="5,2" d="M313.71,-331.41C351.27,-328.4 395,-322.83 411,-312.74 451.15,-287.41 474.32,-231.7 482.31,-209.32"/>
<polygon fill="#9a32cd" stroke="#9a32cd" points="313.02,-327.95 303.31,-332.19 313.54,-334.93 313.02,-327.95"/>
<text text-anchor="middle" x="366" y="-332.74" font-family="FreeSans" font-size="10.00"> chromaticity</text>
</g>
<!-- Node5 -->
<g id="node5" class="node">
<title>Node5</title>
<g id="a_node5"><a xlink:href="struct__PrimaryInfo.html" target="_top" xlink:title=" ">
<polygon fill="white" stroke="black" points="6,-325.24 6,-344.24 85,-344.24 85,-325.24 6,-325.24"/>
<text text-anchor="middle" x="45.5" y="-332.24" font-family="FreeSans" font-size="10.00">_PrimaryInfo</text>
</a>
</g>
</g>
<!-- Node5&#45;&gt;Node4 -->
<g id="edge5" class="edge">
<title>Node5&#45;&gt;Node4</title>
<path fill="none" stroke="#9a32cd" stroke-dasharray="5,2" d="M95.46,-334.74C126.67,-334.74 167.04,-334.74 198.69,-334.74"/>
<polygon fill="#9a32cd" stroke="#9a32cd" points="95.26,-331.24 85.26,-334.74 95.26,-338.24 95.26,-331.24"/>
<text text-anchor="middle" x="145" y="-370.74" font-family="FreeSans" font-size="10.00"> blue_primary</text>
<text text-anchor="middle" x="145" y="-359.74" font-family="FreeSans" font-size="10.00">green_primary</text>
<text text-anchor="middle" x="145" y="-348.74" font-family="FreeSans" font-size="10.00">red_primary</text>
<text text-anchor="middle" x="145" y="-337.74" font-family="FreeSans" font-size="10.00">white_point</text>
</g>
<!-- Node6 -->
<g id="node6" class="node">
<title>Node6</title>
<g id="a_node6"><a xlink:href="struct__RectangleInfo.html" target="_top" xlink:title=" ">
<polygon fill="white" stroke="black" points="206.5,-268.24 206.5,-287.24 295.5,-287.24 295.5,-268.24 206.5,-268.24"/>
<text text-anchor="middle" x="251" y="-275.24" font-family="FreeSans" font-size="10.00">_RectangleInfo</text>
</a>
</g>
</g>
<!-- Node6&#45;&gt;Node3 -->
<g id="edge6" class="edge">
<title>Node6&#45;&gt;Node3</title>
<path fill="none" stroke="#9a32cd" stroke-dasharray="5,2" d="M305.39,-269.65C336.8,-263.91 376.92,-254.87 411,-241.74 433.3,-233.14 457.02,-218.74 471.55,-209.24"/>
<polygon fill="#9a32cd" stroke="#9a32cd" points="304.75,-266.21 295.52,-271.4 305.97,-273.1 304.75,-266.21"/>
<text text-anchor="middle" x="366" y="-301.74" font-family="FreeSans" font-size="10.00"> extract_info</text>
<text text-anchor="middle" x="366" y="-290.74" font-family="FreeSans" font-size="10.00">page</text>
<text text-anchor="middle" x="366" y="-279.74" font-family="FreeSans" font-size="10.00">tile_info</text>
<text text-anchor="middle" x="366" y="-268.74" font-family="FreeSans" font-size="10.00">tile_offset</text>
</g>
<!-- Node7 -->
<g id="node7" class="node">
<title>Node7</title>
<g id="a_node7"><a xlink:href="struct__ErrorInfo.html" target="_top" xlink:title=" ">
<polygon fill="white" stroke="black" points="219,-230.24 219,-249.24 283,-249.24 283,-230.24 219,-230.24"/>
<text text-anchor="middle" x="251" y="-237.24" font-family="FreeSans" font-size="10.00">_ErrorInfo</text>
</a>
</g>
</g>
<!-- Node7&#45;&gt;Node3 -->
<g id="edge8" class="edge">
<title>Node7&#45;&gt;Node3</title>
<path fill="none" stroke="#9a32cd" stroke-dasharray="5,2" d="M293.09,-232.7C341.22,-224.45 419.48,-211.04 459.76,-204.15"/>
<polygon fill="#9a32cd" stroke="#9a32cd" points="292.27,-229.29 283.01,-234.42 293.45,-236.19 292.27,-229.29"/>
<text text-anchor="middle" x="366" y="-229.74" font-family="FreeSans" font-size="10.00"> error</text>
</g>
<!-- Node8 -->
<g id="node8" class="node">
<title>Node8</title>
<g id="a_node8"><a xlink:href="struct__TimerInfo.html" target="_top" xlink:title=" ">
<polygon fill="white" stroke="black" points="216.5,-192.24 216.5,-211.24 285.5,-211.24 285.5,-192.24 216.5,-192.24"/>
<text text-anchor="middle" x="251" y="-199.24" font-family="FreeSans" font-size="10.00">_TimerInfo</text>
</a>
</g>
</g>
<!-- Node8&#45;&gt;Node3 -->
<g id="edge9" class="edge">
<title>Node8&#45;&gt;Node3</title>
<path fill="none" stroke="#9a32cd" stroke-dasharray="5,2" d="M295.71,-201.05C304.1,-200.93 312.82,-200.82 321,-200.74 370.12,-200.23 427.49,-199.95 459.86,-199.82"/>
<polygon fill="#9a32cd" stroke="#9a32cd" points="295.64,-197.55 285.69,-201.19 295.74,-204.55 295.64,-197.55"/>
<text text-anchor="middle" x="366" y="-203.74" font-family="FreeSans" font-size="10.00"> timer</text>
</g>
<!-- Node9 -->
<g id="node9" class="node">
<title>Node9</title>
<g id="a_node9"><a xlink:href="struct__Timer.html" target="_top" xlink:title=" ">
<polygon fill="white" stroke="black" points="20.5,-192.24 20.5,-211.24 70.5,-211.24 70.5,-192.24 20.5,-192.24"/>
<text text-anchor="middle" x="45.5" y="-199.24" font-family="FreeSans" font-size="10.00">_Timer</text>
</a>
</g>
</g>
<!-- Node9&#45;&gt;Node8 -->
<g id="edge10" class="edge">
<title>Node9&#45;&gt;Node8</title>
<path fill="none" stroke="#9a32cd" stroke-dasharray="5,2" d="M80.66,-201.74C118.43,-201.74 178.9,-201.74 216.44,-201.74"/>
<polygon fill="#9a32cd" stroke="#9a32cd" points="80.64,-198.24 70.64,-201.74 80.64,-205.24 80.64,-198.24"/>
<text text-anchor="middle" x="145" y="-215.74" font-family="FreeSans" font-size="10.00"> elapsed</text>
<text text-anchor="middle" x="145" y="-204.74" font-family="FreeSans" font-size="10.00">user</text>
</g>
<!-- Node10 -->
<g id="node10" class="node">
<title>Node10</title>
<g id="a_node10"><a xlink:href="struct__Ascii85Info.html" target="_top" xlink:title=" ">
<polygon fill="white" stroke="black" points="213,-154.24 213,-173.24 289,-173.24 289,-154.24 213,-154.24"/>
<text text-anchor="middle" x="251" y="-161.24" font-family="FreeSans" font-size="10.00">_Ascii85Info</text>
</a>
</g>
</g>
<!-- Node10&#45;&gt;Node3 -->
<g id="edge11" class="edge">
<title>Node10&#45;&gt;Node3</title>
<path fill="none" stroke="#9a32cd" stroke-dasharray="5,2" d="M299.35,-169.14C331.04,-172.97 373.62,-178.51 411,-184.74 427.27,-187.44 445.41,-191.08 459.72,-194.1"/>
<polygon fill="#9a32cd" stroke="#9a32cd" points="299.4,-165.62 289.05,-167.91 298.57,-172.57 299.4,-165.62"/>
<text text-anchor="middle" x="366" y="-187.74" font-family="FreeSans" font-size="10.00"> ascii85</text>
</g>
<!-- Node11&#45;&gt;Node3 -->
<g id="edge12" class="edge">
<title>Node11&#45;&gt;Node3</title>
<path fill="none" stroke="#9a32cd" stroke-dasharray="5,2" d="M704.65,-149.04C667.13,-150.17 609.97,-154.1 562,-166.74 541.48,-172.14 519.43,-182.54 504.69,-190.23"/>
<polygon fill="#9a32cd" stroke="#9a32cd" points="704.78,-152.53 714.69,-148.79 704.6,-145.54 704.78,-152.53"/>
<text text-anchor="middle" x="621.5" y="-169.74" font-family="FreeSans" font-size="10.00"> blob</text>
</g>
<!-- Node12 -->
<g id="node12" class="node">
<title>Node12</title>
<g id="a_node12"><a xlink:href="unionFileInfo.html" target="_top" xlink:title=" ">
<polygon fill="white" stroke="black" points="460,-122.24 460,-141.24 513,-141.24 513,-122.24 460,-122.24"/>
<text text-anchor="middle" x="486.5" y="-129.24" font-family="FreeSans" font-size="10.00">FileInfo</text>
</a>
</g>
</g>
<!-- Node12&#45;&gt;Node11 -->
<g id="edge13" class="edge">
<title>Node12&#45;&gt;Node11</title>
<path fill="none" stroke="#9a32cd" stroke-dasharray="5,2" d="M523.6,-129.35C562.6,-127.38 626.46,-125.88 681,-132.74 692.14,-134.14 704.13,-136.81 714.68,-139.57"/>
<polygon fill="#9a32cd" stroke="#9a32cd" points="523.09,-125.88 513.29,-129.92 523.47,-132.87 523.09,-125.88"/>
<text text-anchor="middle" x="621.5" y="-135.74" font-family="FreeSans" font-size="10.00"> file_info</text>
</g>
<!-- Node13 -->
<g id="node13" class="node">
<title>Node13</title>
<g id="a_node13"><a xlink:href="structSemaphoreInfo.html" target="_top" xlink:title=" ">
<polygon fill="white" stroke="black" points="0,-69.24 0,-88.24 91,-88.24 91,-69.24 0,-69.24"/>
<text text-anchor="middle" x="45.5" y="-76.24" font-family="FreeSans" font-size="10.00">SemaphoreInfo</text>
</a>
</g>
</g>
<!-- Node13&#45;&gt;Node3 -->
<g id="edge18" class="edge">
<title>Node13&#45;&gt;Node3</title>
<path fill="none" stroke="#9a32cd" stroke-dasharray="5,2" d="M95.44,-90.64C100.02,-91.71 104.59,-92.75 109,-93.74 243.88,-123.82 281.44,-119.66 411,-167.74 429.48,-174.59 450.02,-183.52 464.85,-190.2"/>
<polygon fill="#9a32cd" stroke="#9a32cd" points="96,-87.18 85.46,-88.29 94.39,-93.99 96,-87.18"/>
<text text-anchor="middle" x="251" y="-135.74" font-family="FreeSans" font-size="10.00"> semaphore</text>
</g>
<!-- Node13&#45;&gt;Node11 -->
<g id="edge15" class="edge">
<title>Node13&#45;&gt;Node11</title>
<path fill="none" stroke="#9a32cd" stroke-dasharray="5,2" d="M75.85,-64.97C137.81,-37.66 286.51,18.63 411,-6.74 540.66,-33.15 682.35,-111.78 729.08,-139.19"/>
<polygon fill="#9a32cd" stroke="#9a32cd" points="74.36,-61.8 66.67,-69.08 77.23,-68.19 74.36,-61.8"/>
<text text-anchor="middle" x="366" y="-9.74" font-family="FreeSans" font-size="10.00"> semaphore</text>
</g>
<!-- Node14 -->
<g id="node14" class="node">
<title>Node14</title>
<g id="a_node14"><a xlink:href="struct__ExceptionInfo.html" target="_top" xlink:title=" ">
<polygon fill="white" stroke="black" points="206.5,-69.24 206.5,-88.24 295.5,-88.24 295.5,-69.24 206.5,-69.24"/>
<text text-anchor="middle" x="251" y="-76.24" font-family="FreeSans" font-size="10.00">_ExceptionInfo</text>
</a>
</g>
</g>
<!-- Node13&#45;&gt;Node14 -->
<g id="edge17" class="edge">
<title>Node13&#45;&gt;Node14</title>
<path fill="none" stroke="#9a32cd" stroke-dasharray="5,2" d="M101.54,-78.74C134.51,-78.74 175.82,-78.74 206.49,-78.74"/>
<polygon fill="#9a32cd" stroke="#9a32cd" points="101.16,-75.24 91.16,-78.74 101.16,-82.24 101.16,-75.24"/>
<text text-anchor="middle" x="145" y="-81.74" font-family="FreeSans" font-size="10.00"> semaphore</text>
</g>
<!-- Node14&#45;&gt;Node3 -->
<g id="edge16" class="edge">
<title>Node14&#45;&gt;Node3</title>
<path fill="none" stroke="#9a32cd" stroke-dasharray="5,2" d="M305.88,-79.93C345.54,-81.88 395.18,-86.91 411,-99.74 429.67,-114.88 415.47,-130.87 429,-150.74 440.11,-167.05 457.94,-181.26 470.6,-190.12"/>
<polygon fill="#9a32cd" stroke="#9a32cd" points="305.92,-76.43 295.78,-79.49 305.62,-83.42 305.92,-76.43"/>
<text text-anchor="middle" x="366" y="-102.74" font-family="FreeSans" font-size="10.00"> exception</text>
</g>
<!-- Node15 -->
<g id="node15" class="node">
<title>Node15</title>
<g id="a_node15"><a xlink:href="struct__ProfileInfo.html" target="_top" xlink:title=" ">
<polygon fill="white" stroke="black" points="215.5,-31.24 215.5,-50.24 286.5,-50.24 286.5,-31.24 215.5,-31.24"/>
<text text-anchor="middle" x="251" y="-38.24" font-family="FreeSans" font-size="10.00">_ProfileInfo</text>
</a>
</g>
</g>
<!-- Node15&#45;&gt;Node3 -->
<g id="edge19" class="edge">
<title>Node15&#45;&gt;Node3</title>
<path fill="none" stroke="#9a32cd" stroke-dasharray="5,2" d="M291.46,-28.75C327.02,-20.6 378.55,-15.76 411,-43.74 447.52,-75.22 405.39,-108.68 429,-150.74 438.53,-167.72 456.29,-181.62 469.36,-190.23"/>
<polygon fill="#9a32cd" stroke="#9a32cd" points="290.3,-25.43 281.43,-31.23 291.98,-32.23 290.3,-25.43"/>
<text text-anchor="middle" x="366" y="-68.74" font-family="FreeSans" font-size="10.00"> color_profile</text>
<text text-anchor="middle" x="366" y="-57.74" font-family="FreeSans" font-size="10.00">generic_profile</text>
<text text-anchor="middle" x="366" y="-46.74" font-family="FreeSans" font-size="10.00">iptc_profile</text>
</g>
</g>
</svg>
