<?xml version="1.0" encoding="UTF-8" standalone="no"?>
<!DOCTYPE svg PUBLIC "-//W3C//DTD SVG 1.1//EN"
 "http://www.w3.org/Graphics/SVG/1.1/DTD/svg11.dtd">
<!-- Generated by graphviz version 2.43.0 (0)
 -->
<!-- Title: _MemoryPool Pages: 1 -->
<svg width="176pt" height="108pt"
 viewBox="0.00 0.00 176.00 108.00" xmlns="http://www.w3.org/2000/svg" xmlns:xlink="http://www.w3.org/1999/xlink">
<g id="graph0" class="graph" transform="scale(1 1) rotate(0) translate(4 104)">
<title>_MemoryPool</title>
<polygon fill="white" stroke="transparent" points="-4,4 -4,-104 172,-104 172,4 -4,4"/>
<!-- Node1 -->
<g id="node1" class="node">
<title>Node1</title>
<g id="a_node1"><a xlink:title=" ">
<polygon fill="#bfbfbf" stroke="black" points="12,-0.5 12,-19.5 95,-19.5 95,-0.5 12,-0.5"/>
<text text-anchor="middle" x="53.5" y="-7.5" font-family="FreeSans" font-size="10.00">_MemoryPool</text>
</a>
</g>
</g>
<!-- Node2 -->
<g id="node2" class="node">
<title>Node2</title>
<g id="a_node2"><a xlink:href="struct__DataSegmentInfo.html" target="_top" xlink:title=" ">
<polygon fill="white" stroke="black" points="0,-79.5 0,-98.5 107,-98.5 107,-79.5 0,-79.5"/>
<text text-anchor="middle" x="53.5" y="-86.5" font-family="FreeSans" font-size="10.00">_DataSegmentInfo</text>
</a>
</g>
</g>
<!-- Node2&#45;&gt;Node1 -->
<g id="edge1" class="edge">
<title>Node2&#45;&gt;Node1</title>
<path fill="none" stroke="#9a32cd" stroke-dasharray="5,2" d="M53.5,-69.31C53.5,-53.59 53.5,-31.81 53.5,-19.81"/>
<polygon fill="#9a32cd" stroke="#9a32cd" points="50,-69.47 53.5,-79.47 57,-69.47 50,-69.47"/>
<text text-anchor="middle" x="90" y="-52" font-family="FreeSans" font-size="10.00"> segment_pool</text>
<text text-anchor="middle" x="90" y="-41" font-family="FreeSans" font-size="10.00">segments</text>
</g>
<!-- Node2&#45;&gt;Node2 -->
<g id="edge2" class="edge">
<title>Node2&#45;&gt;Node2</title>
<path fill="none" stroke="#9a32cd" stroke-dasharray="5,2" d="M117.02,-94.67C121.96,-93.42 125,-91.53 125,-89 125,-85.05 117.58,-82.67 107.13,-81.83"/>
<polygon fill="#9a32cd" stroke="#9a32cd" points="116.49,-91.21 107.13,-96.17 117.54,-98.13 116.49,-91.21"/>
<text text-anchor="middle" x="146.5" y="-92" font-family="FreeSans" font-size="10.00"> next</text>
<text text-anchor="middle" x="146.5" y="-81" font-family="FreeSans" font-size="10.00">previous</text>
</g>
</g>
</svg>
