<?xml version="1.0" encoding="UTF-8" standalone="no"?>
<!DOCTYPE svg PUBLIC "-//W3C//DTD SVG 1.1//EN"
 "http://www.w3.org/Graphics/SVG/1.1/DTD/svg11.dtd">
<!-- Generated by graphviz version 2.43.0 (0)
 -->
<!-- Title: _OpenCLCacheInfo Pages: 1 -->
<svg width="223pt" height="95pt"
 viewBox="0.00 0.00 222.50 95.00" xmlns="http://www.w3.org/2000/svg" xmlns:xlink="http://www.w3.org/1999/xlink">
<g id="graph0" class="graph" transform="scale(1 1) rotate(0) translate(4 91)">
<title>_OpenCLCacheInfo</title>
<polygon fill="white" stroke="transparent" points="-4,4 -4,-91 218.5,-91 218.5,4 -4,4"/>
<!-- Node1 -->
<g id="node1" class="node">
<title>Node1</title>
<g id="a_node1"><a xlink:title=" ">
<polygon fill="#bfbfbf" stroke="black" points="35.5,-0.5 35.5,-19.5 143.5,-19.5 143.5,-0.5 35.5,-0.5"/>
<text text-anchor="middle" x="89.5" y="-7.5" font-family="FreeSans" font-size="10.00">_OpenCLCacheInfo</text>
</a>
</g>
</g>
<!-- Node2 -->
<g id="node2" class="node">
<title>Node2</title>
<g id="a_node2"><a xlink:href="struct__PixelPacket.html" target="_top" xlink:title=" ">
<polygon fill="white" stroke="black" points="0,-67.5 0,-86.5 77,-86.5 77,-67.5 0,-67.5"/>
<text text-anchor="middle" x="38.5" y="-74.5" font-family="FreeSans" font-size="10.00">_PixelPacket</text>
</a>
</g>
</g>
<!-- Node2&#45;&gt;Node1 -->
<g id="edge1" class="edge">
<title>Node2&#45;&gt;Node1</title>
<path fill="none" stroke="#9a32cd" stroke-dasharray="5,2" d="M51.63,-59.27C61.57,-46.6 74.83,-29.7 82.73,-19.63"/>
<polygon fill="#9a32cd" stroke="#9a32cd" points="48.8,-57.21 45.38,-67.23 54.3,-61.53 48.8,-57.21"/>
<text text-anchor="middle" x="83.5" y="-41" font-family="FreeSans" font-size="10.00"> pixels</text>
</g>
<!-- Node3 -->
<g id="node3" class="node">
<title>Node3</title>
<g id="a_node3"><a xlink:href="structSemaphoreInfo.html" target="_top" xlink:title=" ">
<polygon fill="white" stroke="black" points="95,-67.5 95,-86.5 186,-86.5 186,-67.5 95,-67.5"/>
<text text-anchor="middle" x="140.5" y="-74.5" font-family="FreeSans" font-size="10.00">SemaphoreInfo</text>
</a>
</g>
</g>
<!-- Node3&#45;&gt;Node1 -->
<g id="edge2" class="edge">
<title>Node3&#45;&gt;Node1</title>
<path fill="none" stroke="#9a32cd" stroke-dasharray="5,2" d="M127.37,-59.27C117.43,-46.6 104.17,-29.7 96.27,-19.63"/>
<polygon fill="#9a32cd" stroke="#9a32cd" points="124.7,-61.53 133.62,-67.23 130.2,-57.21 124.7,-61.53"/>
<text text-anchor="middle" x="166" y="-41" font-family="FreeSans" font-size="10.00"> events_semaphore</text>
</g>
</g>
</svg>
