<?xml version="1.0" encoding="UTF-8" standalone="no"?>
<!DOCTYPE svg PUBLIC "-//W3C//DTD SVG 1.1//EN"
 "http://www.w3.org/Graphics/SVG/1.1/DTD/svg11.dtd">
<!-- Generated by graphviz version 2.43.0 (0)
 -->
<!-- Title: thread_.h Pages: 1 -->
<svg width="2782pt" height="196pt"
 viewBox="0.00 0.00 2782.00 196.00" xmlns="http://www.w3.org/2000/svg" xmlns:xlink="http://www.w3.org/1999/xlink">
<g id="graph0" class="graph" transform="scale(1 1) rotate(0) translate(4 192)">
<title>thread_.h</title>
<polygon fill="white" stroke="transparent" points="-4,4 -4,-192 2778,-192 2778,4 -4,4"/>
<!-- Node1 -->
<g id="node1" class="node">
<title>Node1</title>
<g id="a_node1"><a xlink:title=" ">
<polygon fill="#bfbfbf" stroke="black" points="230,-168.5 230,-187.5 292,-187.5 292,-168.5 230,-168.5"/>
<text text-anchor="middle" x="261" y="-175.5" font-family="FreeSans" font-size="10.00">thread_.h</text>
</a>
</g>
</g>
<!-- Node2 -->
<g id="node2" class="node">
<title>Node2</title>
<g id="a_node2"><a xlink:href="deprecate_8c.html" target="_top" xlink:title=" ">
<polygon fill="white" stroke="black" points="0,-56.5 0,-75.5 74,-75.5 74,-56.5 0,-56.5"/>
<text text-anchor="middle" x="37" y="-63.5" font-family="FreeSans" font-size="10.00">deprecate.c</text>
</a>
</g>
</g>
<!-- Node1&#45;&gt;Node2 -->
<g id="edge1" class="edge">
<title>Node1&#45;&gt;Node2</title>
<path fill="none" stroke="midnightblue" d="M234.28,-163.88C187.85,-141.08 93.51,-94.75 54.5,-75.59"/>
<polygon fill="midnightblue" stroke="midnightblue" points="232.9,-167.1 243.42,-168.37 235.99,-160.82 232.9,-167.1"/>
</g>
<!-- Node3 -->
<g id="node3" class="node">
<title>Node3</title>
<g id="a_node3"><a xlink:href="log_8c.html" target="_top" xlink:title=" ">
<polygon fill="white" stroke="black" points="92,-56.5 92,-75.5 132,-75.5 132,-56.5 92,-56.5"/>
<text text-anchor="middle" x="112" y="-63.5" font-family="FreeSans" font-size="10.00">log.c</text>
</a>
</g>
</g>
<!-- Node1&#45;&gt;Node3 -->
<g id="edge2" class="edge">
<title>Node1&#45;&gt;Node3</title>
<path fill="none" stroke="midnightblue" d="M241.25,-162.42C209.73,-139.15 149.05,-94.35 123.64,-75.59"/>
<polygon fill="midnightblue" stroke="midnightblue" points="239.18,-165.24 249.31,-168.37 243.34,-159.61 239.18,-165.24"/>
</g>
<!-- Node4 -->
<g id="node4" class="node">
<title>Node4</title>
<g id="a_node4"><a xlink:href="magick_8c.html" target="_top" xlink:title=" ">
<polygon fill="white" stroke="black" points="150.5,-56.5 150.5,-75.5 211.5,-75.5 211.5,-56.5 150.5,-56.5"/>
<text text-anchor="middle" x="181" y="-63.5" font-family="FreeSans" font-size="10.00">magick.c</text>
</a>
</g>
</g>
<!-- Node1&#45;&gt;Node4 -->
<g id="edge3" class="edge">
<title>Node1&#45;&gt;Node4</title>
<path fill="none" stroke="midnightblue" d="M248.83,-160.27C231.54,-136.49 200.48,-93.79 187.25,-75.59"/>
<polygon fill="midnightblue" stroke="midnightblue" points="246.01,-162.34 254.72,-168.37 251.67,-158.22 246.01,-162.34"/>
</g>
<!-- Node5 -->
<g id="node5" class="node">
<title>Node5</title>
<g id="a_node5"><a xlink:href="random_8c.html" target="_top" xlink:title=" ">
<polygon fill="white" stroke="black" points="230,-56.5 230,-75.5 292,-75.5 292,-56.5 230,-56.5"/>
<text text-anchor="middle" x="261" y="-63.5" font-family="FreeSans" font-size="10.00">random.c</text>
</a>
</g>
</g>
<!-- Node1&#45;&gt;Node5 -->
<g id="edge4" class="edge">
<title>Node1&#45;&gt;Node5</title>
<path fill="none" stroke="midnightblue" d="M261,-158.35C261,-134.25 261,-93.31 261,-75.59"/>
<polygon fill="midnightblue" stroke="midnightblue" points="257.5,-158.37 261,-168.37 264.5,-158.37 257.5,-158.37"/>
</g>
<!-- Node6 -->
<g id="node6" class="node">
<title>Node6</title>
<g id="a_node6"><a xlink:href="semaphore_8c.html" target="_top" xlink:title=" ">
<polygon fill="white" stroke="black" points="310,-56.5 310,-75.5 390,-75.5 390,-56.5 310,-56.5"/>
<text text-anchor="middle" x="350" y="-63.5" font-family="FreeSans" font-size="10.00">semaphore.c</text>
</a>
</g>
</g>
<!-- Node1&#45;&gt;Node6 -->
<g id="edge5" class="edge">
<title>Node1&#45;&gt;Node6</title>
<path fill="none" stroke="midnightblue" d="M274.28,-160.59C293.47,-136.87 328.26,-93.87 343.05,-75.59"/>
<polygon fill="midnightblue" stroke="midnightblue" points="271.55,-158.39 267.98,-168.37 276.99,-162.8 271.55,-158.39"/>
</g>
<!-- Node7 -->
<g id="node7" class="node">
<title>Node7</title>
<g id="a_node7"><a xlink:href="thread-private_8h.html" target="_top" xlink:title=" ">
<polygon fill="white" stroke="black" points="1192.5,-112.5 1192.5,-131.5 1287.5,-131.5 1287.5,-112.5 1192.5,-112.5"/>
<text text-anchor="middle" x="1240" y="-119.5" font-family="FreeSans" font-size="10.00">thread&#45;private.h</text>
</a>
</g>
</g>
<!-- Node1&#45;&gt;Node7 -->
<g id="edge6" class="edge">
<title>Node1&#45;&gt;Node7</title>
<path fill="none" stroke="midnightblue" d="M302.42,-174.72C460.35,-166 1024.24,-134.9 1192.36,-125.63"/>
<polygon fill="midnightblue" stroke="midnightblue" points="301.98,-171.23 292.19,-175.28 302.37,-178.22 301.98,-171.23"/>
</g>
<!-- Node49 -->
<g id="node48" class="node">
<title>Node49</title>
<g id="a_node48"><a xlink:href="thread_8c.html" target="_top" xlink:title=" ">
<polygon fill="white" stroke="black" points="2718,-56.5 2718,-75.5 2774,-75.5 2774,-56.5 2718,-56.5"/>
<text text-anchor="middle" x="2746" y="-63.5" font-family="FreeSans" font-size="10.00">thread.c</text>
</a>
</g>
</g>
<!-- Node1&#45;&gt;Node49 -->
<g id="edge80" class="edge">
<title>Node1&#45;&gt;Node49</title>
<path fill="none" stroke="midnightblue" d="M302.57,-176.41C584.27,-172.23 2216.99,-145.3 2709,-76 2711.88,-75.59 2714.86,-75.06 2717.83,-74.46"/>
<polygon fill="midnightblue" stroke="midnightblue" points="302.33,-172.91 292.38,-176.56 302.43,-179.91 302.33,-172.91"/>
</g>
<!-- Node7&#45;&gt;Node2 -->
<g id="edge33" class="edge">
<title>Node7&#45;&gt;Node2</title>
<path fill="none" stroke="midnightblue" d="M1182.3,-119.94C979.42,-116.01 299.49,-101.24 83,-76 80.09,-75.66 77.09,-75.24 74.08,-74.76"/>
<polygon fill="midnightblue" stroke="midnightblue" points="1182.38,-123.44 1192.45,-120.13 1182.51,-116.44 1182.38,-123.44"/>
</g>
<!-- Node7&#45;&gt;Node3 -->
<g id="edge43" class="edge">
<title>Node7&#45;&gt;Node3</title>
<path fill="none" stroke="midnightblue" d="M1182.13,-120.61C985.5,-118.98 344.01,-111.04 141,-76 138.09,-75.5 135.07,-74.78 132.12,-73.98"/>
<polygon fill="midnightblue" stroke="midnightblue" points="1182.23,-124.11 1192.26,-120.69 1182.29,-117.11 1182.23,-124.11"/>
</g>
<!-- Node7&#45;&gt;Node4 -->
<g id="edge44" class="edge">
<title>Node7&#45;&gt;Node4</title>
<path fill="none" stroke="midnightblue" d="M1182.09,-119.79C995.12,-115.68 408.88,-101.08 221,-76 218.04,-75.6 214.97,-75.1 211.91,-74.52"/>
<polygon fill="midnightblue" stroke="midnightblue" points="1182.18,-123.3 1192.26,-120.01 1182.33,-116.3 1182.18,-123.3"/>
</g>
<!-- Node7&#45;&gt;Node5 -->
<g id="edge60" class="edge">
<title>Node7&#45;&gt;Node5</title>
<path fill="none" stroke="midnightblue" d="M1182.16,-121.7C1034.58,-122.74 632.28,-120.86 301,-76 298.18,-75.62 295.26,-75.14 292.35,-74.59"/>
<polygon fill="midnightblue" stroke="midnightblue" points="1182.37,-125.2 1192.35,-121.62 1182.32,-118.2 1182.37,-125.2"/>
</g>
<!-- Node7&#45;&gt;Node6 -->
<g id="edge72" class="edge">
<title>Node7&#45;&gt;Node6</title>
<path fill="none" stroke="midnightblue" d="M1182.05,-120.1C1045.89,-117.5 695.13,-108 404,-76 399.47,-75.5 394.73,-74.87 390.04,-74.18"/>
<polygon fill="midnightblue" stroke="midnightblue" points="1182.18,-123.6 1192.25,-120.29 1182.31,-116.6 1182.18,-123.6"/>
</g>
<!-- Node8 -->
<g id="node8" class="node">
<title>Node8</title>
<g id="a_node8"><a xlink:href="attribute_8c.html" target="_top" xlink:title=" ">
<polygon fill="white" stroke="black" points="52.5,-0.5 52.5,-19.5 119.5,-19.5 119.5,-0.5 52.5,-0.5"/>
<text text-anchor="middle" x="86" y="-7.5" font-family="FreeSans" font-size="10.00">attribute.c</text>
</a>
</g>
</g>
<!-- Node7&#45;&gt;Node8 -->
<g id="edge7" class="edge">
<title>Node7&#45;&gt;Node8</title>
<path fill="none" stroke="midnightblue" d="M1182.28,-121.4C1021.67,-121.94 572.19,-119.4 432,-76 415.62,-70.93 415.18,-61.69 399,-56 284.39,-15.66 247.72,-40.75 128,-20 125.35,-19.54 122.62,-19.03 119.88,-18.5"/>
<polygon fill="midnightblue" stroke="midnightblue" points="1182.45,-124.9 1192.43,-121.36 1182.42,-117.9 1182.45,-124.9"/>
</g>
<!-- Node9 -->
<g id="node9" class="node">
<title>Node9</title>
<g id="a_node9"><a xlink:href="cache-private_8h.html" target="_top" xlink:title=" ">
<polygon fill="white" stroke="red" points="598,-56.5 598,-75.5 690,-75.5 690,-56.5 598,-56.5"/>
<text text-anchor="middle" x="644" y="-63.5" font-family="FreeSans" font-size="10.00">cache&#45;private.h</text>
</a>
</g>
</g>
<!-- Node7&#45;&gt;Node9 -->
<g id="edge8" class="edge">
<title>Node7&#45;&gt;Node9</title>
<path fill="none" stroke="midnightblue" d="M1182.18,-117.39C1083.78,-110.96 877.56,-96.28 704,-76 699.5,-75.47 694.82,-74.87 690.15,-74.23"/>
<polygon fill="midnightblue" stroke="midnightblue" points="1182.01,-120.88 1192.21,-118.04 1182.46,-113.9 1182.01,-120.88"/>
</g>
<!-- Node12 -->
<g id="node12" class="node">
<title>Node12</title>
<g id="a_node12"><a xlink:href="cache-view_8c.html" target="_top" xlink:title=" ">
<polygon fill="white" stroke="black" points="137.5,-0.5 137.5,-19.5 216.5,-19.5 216.5,-0.5 137.5,-0.5"/>
<text text-anchor="middle" x="177" y="-7.5" font-family="FreeSans" font-size="10.00">cache&#45;view.c</text>
</a>
</g>
</g>
<!-- Node7&#45;&gt;Node12 -->
<g id="edge26" class="edge">
<title>Node7&#45;&gt;Node12</title>
<path fill="none" stroke="midnightblue" d="M1182.21,-120.78C1027.02,-119.68 603.91,-113.27 470,-76 451.61,-70.88 450.07,-62.15 432,-56 343.61,-25.89 316.89,-36.6 225,-20 222.25,-19.5 219.41,-18.98 216.55,-18.46"/>
<polygon fill="midnightblue" stroke="midnightblue" points="1182.45,-124.28 1192.47,-120.85 1182.5,-117.28 1182.45,-124.28"/>
</g>
<!-- Node13 -->
<g id="node13" class="node">
<title>Node13</title>
<g id="a_node13"><a xlink:href="cache_8c.html" target="_top" xlink:title=" ">
<polygon fill="white" stroke="black" points="234.5,-0.5 234.5,-19.5 287.5,-19.5 287.5,-0.5 234.5,-0.5"/>
<text text-anchor="middle" x="261" y="-7.5" font-family="FreeSans" font-size="10.00">cache.c</text>
</a>
</g>
</g>
<!-- Node7&#45;&gt;Node13 -->
<g id="edge27" class="edge">
<title>Node7&#45;&gt;Node13</title>
<path fill="none" stroke="midnightblue" d="M1181.71,-120.57C1031.53,-118.95 634.32,-111.36 508,-76 489.62,-70.86 487.97,-62.44 470,-56 395.66,-29.35 372.93,-37.84 296,-20 293.31,-19.38 290.51,-18.7 287.72,-18.01"/>
<polygon fill="midnightblue" stroke="midnightblue" points="1182.05,-124.07 1192.09,-120.67 1182.12,-117.07 1182.05,-124.07"/>
</g>
<!-- Node14 -->
<g id="node14" class="node">
<title>Node14</title>
<g id="a_node14"><a xlink:href="channel_8c.html" target="_top" xlink:title=" ">
<polygon fill="white" stroke="black" points="305.5,-0.5 305.5,-19.5 368.5,-19.5 368.5,-0.5 305.5,-0.5"/>
<text text-anchor="middle" x="337" y="-7.5" font-family="FreeSans" font-size="10.00">channel.c</text>
</a>
</g>
</g>
<!-- Node7&#45;&gt;Node14 -->
<g id="edge28" class="edge">
<title>Node7&#45;&gt;Node14</title>
<path fill="none" stroke="midnightblue" d="M1181.74,-120.34C1037.14,-118.2 664.9,-109.5 546,-76 527.63,-70.82 525.79,-62.92 508,-56 482.68,-46.15 410.63,-28.41 368.57,-18.4"/>
<polygon fill="midnightblue" stroke="midnightblue" points="1182.11,-123.84 1192.16,-120.49 1182.21,-116.84 1182.11,-123.84"/>
</g>
<!-- Node17 -->
<g id="node17" class="node">
<title>Node17</title>
<g id="a_node17"><a xlink:href="draw_8c.html" target="_top" xlink:title=" ">
<polygon fill="white" stroke="black" points="1338,-0.5 1338,-19.5 1386,-19.5 1386,-0.5 1338,-0.5"/>
<text text-anchor="middle" x="1362" y="-7.5" font-family="FreeSans" font-size="10.00">draw.c</text>
</a>
</g>
</g>
<!-- Node7&#45;&gt;Node17 -->
<g id="edge35" class="edge">
<title>Node7&#45;&gt;Node17</title>
<path fill="none" stroke="midnightblue" d="M1182.2,-117.59C1088.68,-111.48 912.69,-97.28 894,-76 888.13,-69.32 887.98,-62.54 894,-56 926.77,-20.4 1280.32,-28.22 1328,-20 1331.25,-19.44 1334.64,-18.72 1337.97,-17.92"/>
<polygon fill="midnightblue" stroke="midnightblue" points="1182.15,-121.1 1192.36,-118.24 1182.6,-114.11 1182.15,-121.1"/>
</g>
<!-- Node18 -->
<g id="node18" class="node">
<title>Node18</title>
<g id="a_node18"><a xlink:href="feature_8c.html" target="_top" xlink:title=" ">
<polygon fill="white" stroke="black" points="387,-0.5 387,-19.5 447,-19.5 447,-0.5 387,-0.5"/>
<text text-anchor="middle" x="417" y="-7.5" font-family="FreeSans" font-size="10.00">feature.c</text>
</a>
</g>
</g>
<!-- Node7&#45;&gt;Node18 -->
<g id="edge38" class="edge">
<title>Node7&#45;&gt;Node18</title>
<path fill="none" stroke="midnightblue" d="M1182.09,-119.7C1044.33,-116.17 700.33,-104.69 589,-76 568.59,-70.74 565.53,-63.93 546,-56 511.27,-41.91 470.27,-28.07 443.97,-19.54"/>
<polygon fill="midnightblue" stroke="midnightblue" points="1182.34,-123.21 1192.43,-119.96 1182.52,-116.21 1182.34,-123.21"/>
</g>
<!-- Node19 -->
<g id="node19" class="node">
<title>Node19</title>
<g id="a_node19"><a xlink:href="image_8c.html" target="_top" xlink:title=" ">
<polygon fill="white" stroke="black" points="853,-0.5 853,-19.5 909,-19.5 909,-0.5 853,-0.5"/>
<text text-anchor="middle" x="881" y="-7.5" font-family="FreeSans" font-size="10.00">image.c</text>
</a>
</g>
</g>
<!-- Node7&#45;&gt;Node19 -->
<g id="edge42" class="edge">
<title>Node7&#45;&gt;Node19</title>
<path fill="none" stroke="midnightblue" d="M1181.92,-118.81C1074.8,-114.16 854.92,-101.59 832,-76 814.93,-56.95 846.49,-32.34 866.45,-19.56"/>
<polygon fill="midnightblue" stroke="midnightblue" points="1182.09,-122.32 1192.23,-119.24 1182.39,-115.32 1182.09,-122.32"/>
</g>
<!-- Node22 -->
<g id="node22" class="node">
<title>Node22</title>
<g id="a_node22"><a xlink:href="quantum_8c.html" target="_top" xlink:title=" ">
<polygon fill="white" stroke="black" points="927,-0.5 927,-19.5 995,-19.5 995,-0.5 927,-0.5"/>
<text text-anchor="middle" x="961" y="-7.5" font-family="FreeSans" font-size="10.00">quantum.c</text>
</a>
</g>
</g>
<!-- Node7&#45;&gt;Node22 -->
<g id="edge51" class="edge">
<title>Node7&#45;&gt;Node22</title>
<path fill="none" stroke="midnightblue" d="M1182.26,-118.68C1076.95,-113.86 862.39,-101.05 840,-76 834.08,-69.37 834.93,-63.3 840,-56 850.2,-41.32 894.66,-27.47 926.73,-19.11"/>
<polygon fill="midnightblue" stroke="midnightblue" points="1182.26,-122.19 1192.41,-119.14 1182.57,-115.19 1182.26,-122.19"/>
</g>
<!-- Node23 -->
<g id="node23" class="node">
<title>Node23</title>
<g id="a_node23"><a xlink:href="resource_8c.html" target="_top" xlink:title=" ">
<polygon fill="white" stroke="black" points="1013.5,-0.5 1013.5,-19.5 1080.5,-19.5 1080.5,-0.5 1013.5,-0.5"/>
<text text-anchor="middle" x="1047" y="-7.5" font-family="FreeSans" font-size="10.00">resource.c</text>
</a>
</g>
</g>
<!-- Node7&#45;&gt;Node23 -->
<g id="edge70" class="edge">
<title>Node7&#45;&gt;Node23</title>
<path fill="none" stroke="midnightblue" d="M1182.24,-118.54C1078.61,-113.53 869.84,-100.49 848,-76 842.08,-69.37 842.45,-62.94 848,-56 850.61,-52.74 957.27,-29.88 1013.33,-18.06"/>
<polygon fill="midnightblue" stroke="midnightblue" points="1182.07,-122.04 1192.23,-119.01 1182.41,-115.04 1182.07,-122.04"/>
</g>
<!-- Node24 -->
<g id="node24" class="node">
<title>Node24</title>
<g id="a_node24"><a xlink:href="shear_8c.html" target="_top" xlink:title=" ">
<polygon fill="white" stroke="black" points="1098.5,-0.5 1098.5,-19.5 1149.5,-19.5 1149.5,-0.5 1098.5,-0.5"/>
<text text-anchor="middle" x="1124" y="-7.5" font-family="FreeSans" font-size="10.00">shear.c</text>
</a>
</g>
</g>
<!-- Node7&#45;&gt;Node24 -->
<g id="edge73" class="edge">
<title>Node7&#45;&gt;Node24</title>
<path fill="none" stroke="midnightblue" d="M1182.33,-118.4C1080.45,-113.2 877.3,-99.94 856,-76 850.09,-69.36 850.21,-62.75 856,-56 890.1,-16.23 1037.68,-30.54 1089,-20 1092.07,-19.37 1095.28,-18.64 1098.45,-17.88"/>
<polygon fill="midnightblue" stroke="midnightblue" points="1182.3,-121.9 1192.46,-118.9 1182.65,-114.91 1182.3,-121.9"/>
</g>
<!-- Node25 -->
<g id="node25" class="node">
<title>Node25</title>
<g id="a_node25"><a xlink:href="statistic_8c.html" target="_top" xlink:title=" ">
<polygon fill="white" stroke="black" points="1404,-0.5 1404,-19.5 1468,-19.5 1468,-0.5 1404,-0.5"/>
<text text-anchor="middle" x="1436" y="-7.5" font-family="FreeSans" font-size="10.00">statistic.c</text>
</a>
</g>
</g>
<!-- Node7&#45;&gt;Node25 -->
<g id="edge74" class="edge">
<title>Node7&#45;&gt;Node25</title>
<path fill="none" stroke="midnightblue" d="M1182.24,-121.33C1101.03,-120.42 959.37,-113.35 927,-76 921.18,-69.28 920.96,-62.52 927,-56 962.44,-17.73 1343.4,-27.61 1395,-20 1397.88,-19.57 1400.87,-19.06 1403.85,-18.5"/>
<polygon fill="midnightblue" stroke="midnightblue" points="1182.29,-124.83 1192.32,-121.42 1182.35,-117.83 1182.29,-124.83"/>
</g>
<!-- Node27 -->
<g id="node26" class="node">
<title>Node27</title>
<g id="a_node26"><a xlink:href="colormap_8c.html" target="_top" xlink:title=" ">
<polygon fill="white" stroke="black" points="936.5,-56.5 936.5,-75.5 1007.5,-75.5 1007.5,-56.5 936.5,-56.5"/>
<text text-anchor="middle" x="972" y="-63.5" font-family="FreeSans" font-size="10.00">colormap.c</text>
</a>
</g>
</g>
<!-- Node7&#45;&gt;Node27 -->
<g id="edge29" class="edge">
<title>Node7&#45;&gt;Node27</title>
<path fill="none" stroke="midnightblue" d="M1187.64,-110.45C1134.61,-99.76 1054,-83.52 1007.83,-74.22"/>
<polygon fill="midnightblue" stroke="midnightblue" points="1187.04,-113.9 1197.53,-112.44 1188.42,-107.04 1187.04,-113.9"/>
</g>
<!-- Node28 -->
<g id="node27" class="node">
<title>Node28</title>
<g id="a_node27"><a xlink:href="compare_8c.html" target="_top" xlink:title=" ">
<polygon fill="white" stroke="black" points="1026,-56.5 1026,-75.5 1094,-75.5 1094,-56.5 1026,-56.5"/>
<text text-anchor="middle" x="1060" y="-63.5" font-family="FreeSans" font-size="10.00">compare.c</text>
</a>
</g>
</g>
<!-- Node7&#45;&gt;Node28 -->
<g id="edge30" class="edge">
<title>Node7&#45;&gt;Node28</title>
<path fill="none" stroke="midnightblue" d="M1201.89,-109.57C1167.94,-99.38 1119.01,-84.7 1088.39,-75.52"/>
<polygon fill="midnightblue" stroke="midnightblue" points="1200.89,-112.92 1211.48,-112.44 1202.91,-106.22 1200.89,-112.92"/>
</g>
<!-- Node29 -->
<g id="node28" class="node">
<title>Node29</title>
<g id="a_node28"><a xlink:href="composite_8c.html" target="_top" xlink:title=" ">
<polygon fill="white" stroke="black" points="1112,-56.5 1112,-75.5 1188,-75.5 1188,-56.5 1112,-56.5"/>
<text text-anchor="middle" x="1150" y="-63.5" font-family="FreeSans" font-size="10.00">composite.c</text>
</a>
</g>
</g>
<!-- Node7&#45;&gt;Node29 -->
<g id="edge31" class="edge">
<title>Node7&#45;&gt;Node29</title>
<path fill="none" stroke="midnightblue" d="M1216.96,-107.18C1200.4,-97.24 1178.58,-84.15 1164.42,-75.65"/>
<polygon fill="midnightblue" stroke="midnightblue" points="1215.16,-110.18 1225.54,-112.32 1218.77,-104.18 1215.16,-110.18"/>
</g>
<!-- Node30 -->
<g id="node29" class="node">
<title>Node30</title>
<g id="a_node29"><a xlink:href="decorate_8c.html" target="_top" xlink:title=" ">
<polygon fill="white" stroke="black" points="1206,-56.5 1206,-75.5 1274,-75.5 1274,-56.5 1206,-56.5"/>
<text text-anchor="middle" x="1240" y="-63.5" font-family="FreeSans" font-size="10.00">decorate.c</text>
</a>
</g>
</g>
<!-- Node7&#45;&gt;Node30 -->
<g id="edge32" class="edge">
<title>Node7&#45;&gt;Node30</title>
<path fill="none" stroke="midnightblue" d="M1240,-101.8C1240,-92.91 1240,-82.78 1240,-75.75"/>
<polygon fill="midnightblue" stroke="midnightblue" points="1236.5,-102.08 1240,-112.08 1243.5,-102.08 1236.5,-102.08"/>
</g>
<!-- Node31 -->
<g id="node30" class="node">
<title>Node31</title>
<g id="a_node30"><a xlink:href="distort_8c.html" target="_top" xlink:title=" ">
<polygon fill="white" stroke="black" points="1725,-0.5 1725,-19.5 1781,-19.5 1781,-0.5 1725,-0.5"/>
<text text-anchor="middle" x="1753" y="-7.5" font-family="FreeSans" font-size="10.00">distort.c</text>
</a>
</g>
</g>
<!-- Node7&#45;&gt;Node31 -->
<g id="edge34" class="edge">
<title>Node7&#45;&gt;Node31</title>
<path fill="none" stroke="midnightblue" d="M1255.43,-105.1C1271.49,-89.67 1298.13,-67.01 1326,-56 1399.15,-27.11 1641.79,-15.27 1724.84,-12"/>
<polygon fill="midnightblue" stroke="midnightblue" points="1252.69,-102.89 1248.05,-112.41 1257.62,-107.86 1252.69,-102.89"/>
</g>
<!-- Node32 -->
<g id="node31" class="node">
<title>Node32</title>
<g id="a_node31"><a xlink:href="effect_8c.html" target="_top" xlink:title=" ">
<polygon fill="white" stroke="black" points="1983.5,-0.5 1983.5,-19.5 2036.5,-19.5 2036.5,-0.5 1983.5,-0.5"/>
<text text-anchor="middle" x="2010" y="-7.5" font-family="FreeSans" font-size="10.00">effect.c</text>
</a>
</g>
</g>
<!-- Node7&#45;&gt;Node32 -->
<g id="edge36" class="edge">
<title>Node7&#45;&gt;Node32</title>
<path fill="none" stroke="midnightblue" d="M1264.87,-107.63C1299.53,-89.05 1358.74,-57.49 1364,-56 1424.23,-38.93 1868.74,-17.5 1983.19,-12.22"/>
<polygon fill="midnightblue" stroke="midnightblue" points="1262.96,-104.68 1255.81,-112.49 1266.27,-110.85 1262.96,-104.68"/>
</g>
<!-- Node33 -->
<g id="node32" class="node">
<title>Node33</title>
<g id="a_node32"><a xlink:href="enhance_8c.html" target="_top" xlink:title=" ">
<polygon fill="white" stroke="black" points="2055,-0.5 2055,-19.5 2121,-19.5 2121,-0.5 2055,-0.5"/>
<text text-anchor="middle" x="2088" y="-7.5" font-family="FreeSans" font-size="10.00">enhance.c</text>
</a>
</g>
</g>
<!-- Node7&#45;&gt;Node33 -->
<g id="edge37" class="edge">
<title>Node7&#45;&gt;Node33</title>
<path fill="none" stroke="midnightblue" d="M1275.64,-109.08C1299.79,-100.65 1332.23,-88.64 1360,-76 1377.01,-68.26 1379.01,-61.09 1397,-56 1674.56,22.47 1759.02,-57.65 2045,-20 2048.18,-19.58 2051.47,-19.06 2054.75,-18.48"/>
<polygon fill="midnightblue" stroke="midnightblue" points="1274.47,-105.78 1266.17,-112.35 1276.76,-112.39 1274.47,-105.78"/>
</g>
<!-- Node34 -->
<g id="node33" class="node">
<title>Node34</title>
<g id="a_node33"><a xlink:href="fourier_8c.html" target="_top" xlink:title=" ">
<polygon fill="white" stroke="black" points="1406,-56.5 1406,-75.5 1462,-75.5 1462,-56.5 1406,-56.5"/>
<text text-anchor="middle" x="1434" y="-63.5" font-family="FreeSans" font-size="10.00">fourier.c</text>
</a>
</g>
</g>
<!-- Node7&#45;&gt;Node34 -->
<g id="edge39" class="edge">
<title>Node7&#45;&gt;Node34</title>
<path fill="none" stroke="midnightblue" d="M1280.84,-109.63C1318.39,-99.18 1373.07,-83.96 1405.92,-74.82"/>
<polygon fill="midnightblue" stroke="midnightblue" points="1279.44,-106.39 1270.74,-112.44 1281.31,-113.13 1279.44,-106.39"/>
</g>
<!-- Node35 -->
<g id="node34" class="node">
<title>Node35</title>
<g id="a_node34"><a xlink:href="fx_8c.html" target="_top" xlink:title=" ">
<polygon fill="white" stroke="black" points="2139.5,-0.5 2139.5,-19.5 2174.5,-19.5 2174.5,-0.5 2139.5,-0.5"/>
<text text-anchor="middle" x="2157" y="-7.5" font-family="FreeSans" font-size="10.00">fx.c</text>
</a>
</g>
</g>
<!-- Node7&#45;&gt;Node35 -->
<g id="edge40" class="edge">
<title>Node7&#45;&gt;Node35</title>
<path fill="none" stroke="midnightblue" d="M1297.62,-114.53C1345.12,-108.08 1413.73,-96.16 1471,-76 1489,-69.66 1490.61,-61.11 1509,-56 1775.36,18.06 1858.5,-72.17 2130,-20 2133.11,-19.4 2136.35,-18.54 2139.46,-17.59"/>
<polygon fill="midnightblue" stroke="midnightblue" points="1296.98,-111.08 1287.52,-115.86 1297.89,-118.02 1296.98,-111.08"/>
</g>
<!-- Node36 -->
<g id="node35" class="node">
<title>Node36</title>
<g id="a_node35"><a xlink:href="image-view_8c.html" target="_top" xlink:title=" ">
<polygon fill="white" stroke="black" points="1518.5,-56.5 1518.5,-75.5 1599.5,-75.5 1599.5,-56.5 1518.5,-56.5"/>
<text text-anchor="middle" x="1559" y="-63.5" font-family="FreeSans" font-size="10.00">image&#45;view.c</text>
</a>
</g>
</g>
<!-- Node7&#45;&gt;Node36 -->
<g id="edge41" class="edge">
<title>Node7&#45;&gt;Node36</title>
<path fill="none" stroke="midnightblue" d="M1297.63,-111.24C1361.24,-100.48 1462,-83.42 1518.02,-73.94"/>
<polygon fill="midnightblue" stroke="midnightblue" points="1297.03,-107.8 1287.76,-112.92 1298.2,-114.7 1297.03,-107.8"/>
</g>
<!-- Node37 -->
<g id="node36" class="node">
<title>Node37</title>
<g id="a_node36"><a xlink:href="matrix_8c.html" target="_top" xlink:title=" ">
<polygon fill="white" stroke="black" points="1617.5,-56.5 1617.5,-75.5 1674.5,-75.5 1674.5,-56.5 1617.5,-56.5"/>
<text text-anchor="middle" x="1646" y="-63.5" font-family="FreeSans" font-size="10.00">matrix.c</text>
</a>
</g>
</g>
<!-- Node7&#45;&gt;Node37 -->
<g id="edge45" class="edge">
<title>Node7&#45;&gt;Node37</title>
<path fill="none" stroke="midnightblue" d="M1297.92,-115.92C1370.66,-109.08 1499.15,-95.48 1608,-76 1611.07,-75.45 1614.26,-74.81 1617.44,-74.12"/>
<polygon fill="midnightblue" stroke="midnightblue" points="1297.23,-112.47 1287.6,-116.88 1297.88,-119.44 1297.23,-112.47"/>
</g>
<!-- Node38 -->
<g id="node37" class="node">
<title>Node38</title>
<g id="a_node37"><a xlink:href="morphology_8c.html" target="_top" xlink:title=" ">
<polygon fill="white" stroke="black" points="1693,-56.5 1693,-75.5 1775,-75.5 1775,-56.5 1693,-56.5"/>
<text text-anchor="middle" x="1734" y="-63.5" font-family="FreeSans" font-size="10.00">morphology.c</text>
</a>
</g>
</g>
<!-- Node7&#45;&gt;Node38 -->
<g id="edge46" class="edge">
<title>Node7&#45;&gt;Node38</title>
<path fill="none" stroke="midnightblue" d="M1297.86,-116.49C1382.6,-109.57 1545.36,-95.11 1683,-76 1686.21,-75.55 1689.52,-75.06 1692.85,-74.53"/>
<polygon fill="midnightblue" stroke="midnightblue" points="1297.35,-113.02 1287.67,-117.31 1297.92,-119.99 1297.35,-113.02"/>
</g>
<!-- Node39 -->
<g id="node38" class="node">
<title>Node39</title>
<g id="a_node38"><a xlink:href="paint_8c.html" target="_top" xlink:title=" ">
<polygon fill="white" stroke="black" points="1793,-56.5 1793,-75.5 1843,-75.5 1843,-56.5 1793,-56.5"/>
<text text-anchor="middle" x="1818" y="-63.5" font-family="FreeSans" font-size="10.00">paint.c</text>
</a>
</g>
</g>
<!-- Node7&#45;&gt;Node39 -->
<g id="edge47" class="edge">
<title>Node7&#45;&gt;Node39</title>
<path fill="none" stroke="midnightblue" d="M1297.83,-119.56C1397.68,-116.33 1608.56,-106.23 1784,-76 1786.89,-75.5 1789.89,-74.87 1792.86,-74.18"/>
<polygon fill="midnightblue" stroke="midnightblue" points="1297.54,-116.07 1287.65,-119.88 1297.76,-123.06 1297.54,-116.07"/>
</g>
<!-- Node40 -->
<g id="node39" class="node">
<title>Node40</title>
<g id="a_node39"><a xlink:href="prepress_8c.html" target="_top" xlink:title=" ">
<polygon fill="white" stroke="black" points="1861.5,-56.5 1861.5,-75.5 1928.5,-75.5 1928.5,-56.5 1861.5,-56.5"/>
<text text-anchor="middle" x="1895" y="-63.5" font-family="FreeSans" font-size="10.00">prepress.c</text>
</a>
</g>
</g>
<!-- Node7&#45;&gt;Node40 -->
<g id="edge48" class="edge">
<title>Node7&#45;&gt;Node40</title>
<path fill="none" stroke="midnightblue" d="M1297.97,-119.3C1406.95,-115.55 1649.64,-104.49 1852,-76 1855.02,-75.57 1858.15,-75.06 1861.27,-74.5"/>
<polygon fill="midnightblue" stroke="midnightblue" points="1297.72,-115.81 1287.84,-119.65 1297.95,-122.81 1297.72,-115.81"/>
</g>
<!-- Node41 -->
<g id="node40" class="node">
<title>Node41</title>
<g id="a_node40"><a xlink:href="profile_8c.html" target="_top" xlink:title=" ">
<polygon fill="white" stroke="black" points="1947,-56.5 1947,-75.5 2003,-75.5 2003,-56.5 1947,-56.5"/>
<text text-anchor="middle" x="1975" y="-63.5" font-family="FreeSans" font-size="10.00">profile.c</text>
</a>
</g>
</g>
<!-- Node7&#45;&gt;Node41 -->
<g id="edge49" class="edge">
<title>Node7&#45;&gt;Node41</title>
<path fill="none" stroke="midnightblue" d="M1297.67,-120.55C1417.44,-118.88 1701.61,-111.22 1937,-76 1940.22,-75.52 1943.57,-74.9 1946.88,-74.22"/>
<polygon fill="midnightblue" stroke="midnightblue" points="1297.57,-117.05 1287.62,-120.68 1297.66,-124.05 1297.57,-117.05"/>
</g>
<!-- Node42 -->
<g id="node41" class="node">
<title>Node42</title>
<g id="a_node41"><a xlink:href="quantize_8c.html" target="_top" xlink:title=" ">
<polygon fill="white" stroke="black" points="2021.5,-56.5 2021.5,-75.5 2088.5,-75.5 2088.5,-56.5 2021.5,-56.5"/>
<text text-anchor="middle" x="2055" y="-63.5" font-family="FreeSans" font-size="10.00">quantize.c</text>
</a>
</g>
</g>
<!-- Node7&#45;&gt;Node42 -->
<g id="edge50" class="edge">
<title>Node7&#45;&gt;Node42</title>
<path fill="none" stroke="midnightblue" d="M1297.7,-120.55C1426.45,-118.91 1746.7,-111.3 2012,-76 2015.02,-75.6 2018.15,-75.1 2021.28,-74.55"/>
<polygon fill="midnightblue" stroke="midnightblue" points="1297.63,-117.05 1287.67,-120.67 1297.71,-124.05 1297.63,-117.05"/>
</g>
<!-- Node43 -->
<g id="node42" class="node">
<title>Node43</title>
<g id="a_node42"><a xlink:href="random-private_8h.html" target="_top" xlink:title=" ">
<polygon fill="white" stroke="black" points="2106.5,-56.5 2106.5,-75.5 2207.5,-75.5 2207.5,-56.5 2106.5,-56.5"/>
<text text-anchor="middle" x="2157" y="-63.5" font-family="FreeSans" font-size="10.00">random&#45;private.h</text>
</a>
</g>
</g>
<!-- Node7&#45;&gt;Node43 -->
<g id="edge52" class="edge">
<title>Node7&#45;&gt;Node43</title>
<path fill="none" stroke="midnightblue" d="M1297.86,-119.89C1436.26,-116.8 1797.22,-106.28 2097,-76 2100.04,-75.69 2103.16,-75.34 2106.3,-74.96"/>
<polygon fill="midnightblue" stroke="midnightblue" points="1297.43,-116.39 1287.5,-120.11 1297.58,-123.39 1297.43,-116.39"/>
</g>
<!-- Node44 -->
<g id="node43" class="node">
<title>Node44</title>
<g id="a_node43"><a xlink:href="threshold_8c.html" target="_top" xlink:title=" ">
<polygon fill="white" stroke="black" points="2192.5,-0.5 2192.5,-19.5 2263.5,-19.5 2263.5,-0.5 2192.5,-0.5"/>
<text text-anchor="middle" x="2228" y="-7.5" font-family="FreeSans" font-size="10.00">threshold.c</text>
</a>
</g>
</g>
<!-- Node7&#45;&gt;Node44 -->
<g id="edge76" class="edge">
<title>Node7&#45;&gt;Node44</title>
<path fill="none" stroke="midnightblue" d="M1297.96,-120.84C1520.35,-119.93 2308.47,-114.05 2345,-76 2351.16,-69.59 2350.03,-63.33 2345,-56 2335.27,-41.83 2292.98,-28.01 2262.03,-19.5"/>
<polygon fill="midnightblue" stroke="midnightblue" points="1297.79,-117.34 1287.8,-120.88 1297.82,-124.34 1297.79,-117.34"/>
</g>
<!-- Node45 -->
<g id="node44" class="node">
<title>Node45</title>
<g id="a_node44"><a xlink:href="visual-effects_8c.html" target="_top" xlink:title=" ">
<polygon fill="white" stroke="black" points="2281.5,-0.5 2281.5,-19.5 2372.5,-19.5 2372.5,-0.5 2281.5,-0.5"/>
<text text-anchor="middle" x="2327" y="-7.5" font-family="FreeSans" font-size="10.00">visual&#45;effects.c</text>
</a>
</g>
</g>
<!-- Node7&#45;&gt;Node45 -->
<g id="edge79" class="edge">
<title>Node7&#45;&gt;Node45</title>
<path fill="none" stroke="midnightblue" d="M1298.1,-120.87C1522.87,-120.11 2324.86,-114.66 2362,-76 2378.25,-59.09 2353.38,-33.14 2337.88,-19.72"/>
<polygon fill="midnightblue" stroke="midnightblue" points="1297.82,-117.38 1287.83,-120.91 1297.85,-124.38 1297.82,-117.38"/>
</g>
<!-- Node46 -->
<g id="node45" class="node">
<title>Node46</title>
<g id="a_node45"><a xlink:href="resample-private_8h.html" target="_top" xlink:title=" ">
<polygon fill="white" stroke="black" points="2226,-56.5 2226,-75.5 2336,-75.5 2336,-56.5 2226,-56.5"/>
<text text-anchor="middle" x="2281" y="-63.5" font-family="FreeSans" font-size="10.00">resample&#45;private.h</text>
</a>
</g>
</g>
<!-- Node7&#45;&gt;Node46 -->
<g id="edge61" class="edge">
<title>Node7&#45;&gt;Node46</title>
<path fill="none" stroke="midnightblue" d="M1298.02,-120.18C1449.37,-117.63 1868.57,-107.99 2216,-76 2219.18,-75.71 2222.44,-75.37 2225.72,-75"/>
<polygon fill="midnightblue" stroke="midnightblue" points="1297.53,-116.68 1287.59,-120.35 1297.64,-123.68 1297.53,-116.68"/>
</g>
<!-- Node47 -->
<g id="node46" class="node">
<title>Node47</title>
<g id="a_node46"><a xlink:href="resize_8c.html" target="_top" xlink:title=" ">
<polygon fill="white" stroke="black" points="2402,-0.5 2402,-19.5 2456,-19.5 2456,-0.5 2402,-0.5"/>
<text text-anchor="middle" x="2429" y="-7.5" font-family="FreeSans" font-size="10.00">resize.c</text>
</a>
</g>
</g>
<!-- Node7&#45;&gt;Node47 -->
<g id="edge69" class="edge">
<title>Node7&#45;&gt;Node47</title>
<path fill="none" stroke="midnightblue" d="M1297.97,-120.07C1523.26,-116.28 2330.63,-101.02 2379,-76 2402.77,-63.7 2418.6,-34.41 2425.32,-19.72"/>
<polygon fill="midnightblue" stroke="midnightblue" points="1297.62,-116.58 1287.68,-120.24 1297.74,-123.57 1297.62,-116.58"/>
</g>
<!-- Node48 -->
<g id="node47" class="node">
<title>Node48</title>
<g id="a_node47"><a xlink:href="segment_8c.html" target="_top" xlink:title=" ">
<polygon fill="white" stroke="black" points="2468,-56.5 2468,-75.5 2536,-75.5 2536,-56.5 2468,-56.5"/>
<text text-anchor="middle" x="2502" y="-63.5" font-family="FreeSans" font-size="10.00">segment.c</text>
</a>
</g>
</g>
<!-- Node7&#45;&gt;Node48 -->
<g id="edge71" class="edge">
<title>Node7&#45;&gt;Node48</title>
<path fill="none" stroke="midnightblue" d="M1297.71,-120C1507,-116.18 2225.72,-101.49 2454,-76 2458.47,-75.5 2463.14,-74.82 2467.74,-74.06"/>
<polygon fill="midnightblue" stroke="midnightblue" points="1297.49,-116.5 1287.55,-120.18 1297.62,-123.5 1297.49,-116.5"/>
</g>
<!-- Node7&#45;&gt;Node49 -->
<g id="edge75" class="edge">
<title>Node7&#45;&gt;Node49</title>
<path fill="none" stroke="midnightblue" d="M1297.73,-120.83C1534.13,-119.91 2429.03,-113.92 2709,-76 2711.88,-75.61 2714.87,-75.09 2717.83,-74.49"/>
<polygon fill="midnightblue" stroke="midnightblue" points="1297.61,-117.33 1287.62,-120.87 1297.64,-124.33 1297.61,-117.33"/>
</g>
<!-- Node50 -->
<g id="node49" class="node">
<title>Node50</title>
<g id="a_node49"><a xlink:href="transform_8c.html" target="_top" xlink:title=" ">
<polygon fill="white" stroke="black" points="2554.5,-56.5 2554.5,-75.5 2627.5,-75.5 2627.5,-56.5 2554.5,-56.5"/>
<text text-anchor="middle" x="2591" y="-63.5" font-family="FreeSans" font-size="10.00">transform.c</text>
</a>
</g>
</g>
<!-- Node7&#45;&gt;Node50 -->
<g id="edge77" class="edge">
<title>Node7&#45;&gt;Node50</title>
<path fill="none" stroke="midnightblue" d="M1297.64,-120.23C1516.76,-117.11 2298.07,-104.23 2545,-76 2548.07,-75.65 2551.25,-75.2 2554.42,-74.7"/>
<polygon fill="midnightblue" stroke="midnightblue" points="1297.58,-116.73 1287.63,-120.37 1297.68,-123.73 1297.58,-116.73"/>
</g>
<!-- Node51 -->
<g id="node50" class="node">
<title>Node51</title>
<g id="a_node50"><a xlink:href="vision_8c.html" target="_top" xlink:title=" ">
<polygon fill="white" stroke="black" points="2646,-56.5 2646,-75.5 2700,-75.5 2700,-56.5 2646,-56.5"/>
<text text-anchor="middle" x="2673" y="-63.5" font-family="FreeSans" font-size="10.00">vision.c</text>
</a>
</g>
</g>
<!-- Node7&#45;&gt;Node51 -->
<g id="edge78" class="edge">
<title>Node7&#45;&gt;Node51</title>
<path fill="none" stroke="midnightblue" d="M1297.9,-120.78C1527.2,-119.63 2372.05,-112.96 2637,-76 2639.94,-75.59 2642.98,-75.04 2645.99,-74.41"/>
<polygon fill="midnightblue" stroke="midnightblue" points="1297.75,-117.28 1287.77,-120.82 1297.78,-124.28 1297.75,-117.28"/>
</g>
<!-- Node9&#45;&gt;Node8 -->
<g id="edge11" class="edge">
<title>Node9&#45;&gt;Node8</title>
<path fill="none" stroke="midnightblue" d="M587.61,-62.38C492.44,-57.44 294.07,-44.94 128,-20 125.35,-19.6 122.61,-19.14 119.86,-18.63"/>
<polygon fill="midnightblue" stroke="midnightblue" points="587.7,-65.89 597.87,-62.9 588.06,-58.9 587.7,-65.89"/>
</g>
<!-- Node10 -->
<g id="node10" class="node">
<title>Node10</title>
<g id="a_node10"><a xlink:href="accelerate_8c.html" target="_top" xlink:title=" ">
<polygon fill="white" stroke="black" points="1168,-0.5 1168,-19.5 1244,-19.5 1244,-0.5 1168,-0.5"/>
<text text-anchor="middle" x="1206" y="-7.5" font-family="FreeSans" font-size="10.00">accelerate.c</text>
</a>
</g>
</g>
<!-- Node9&#45;&gt;Node10 -->
<g id="edge9" class="edge">
<title>Node9&#45;&gt;Node10</title>
<path fill="none" stroke="midnightblue" d="M700.47,-61.87C795.32,-56.21 992.48,-42.71 1158,-20 1161.19,-19.56 1164.49,-19.06 1167.8,-18.51"/>
<polygon fill="midnightblue" stroke="midnightblue" points="700.02,-58.39 690.24,-62.48 700.43,-65.38 700.02,-58.39"/>
</g>
<!-- Node11 -->
<g id="node11" class="node">
<title>Node11</title>
<g id="a_node11"><a xlink:href="annotate_8c.html" target="_top" xlink:title=" ">
<polygon fill="white" stroke="black" points="465,-0.5 465,-19.5 533,-19.5 533,-0.5 465,-0.5"/>
<text text-anchor="middle" x="499" y="-7.5" font-family="FreeSans" font-size="10.00">annotate.c</text>
</a>
</g>
</g>
<!-- Node9&#45;&gt;Node11 -->
<g id="edge10" class="edge">
<title>Node9&#45;&gt;Node11</title>
<path fill="none" stroke="midnightblue" d="M611.52,-52.91C584.26,-42.75 546.01,-28.51 521.87,-19.52"/>
<polygon fill="midnightblue" stroke="midnightblue" points="610.43,-56.23 621.02,-56.44 612.87,-49.67 610.43,-56.23"/>
</g>
<!-- Node9&#45;&gt;Node12 -->
<g id="edge12" class="edge">
<title>Node9&#45;&gt;Node12</title>
<path fill="none" stroke="midnightblue" d="M587.55,-60.35C506.91,-53.39 354.19,-39.02 225,-20 222.23,-19.59 219.38,-19.14 216.51,-18.66"/>
<polygon fill="midnightblue" stroke="midnightblue" points="587.71,-63.88 597.97,-61.25 588.31,-56.9 587.71,-63.88"/>
</g>
<!-- Node9&#45;&gt;Node13 -->
<g id="edge13" class="edge">
<title>Node9&#45;&gt;Node13</title>
<path fill="none" stroke="midnightblue" d="M587.6,-59.86C518.49,-53.07 397.99,-39.63 296,-20 293.29,-19.48 290.48,-18.87 287.68,-18.22"/>
<polygon fill="midnightblue" stroke="midnightblue" points="587.54,-63.37 597.83,-60.86 588.22,-56.41 587.54,-63.37"/>
</g>
<!-- Node9&#45;&gt;Node14 -->
<g id="edge14" class="edge">
<title>Node9&#45;&gt;Node14</title>
<path fill="none" stroke="midnightblue" d="M587.7,-56.29C533.76,-47.75 450.13,-34.01 378,-20 375,-19.42 371.87,-18.78 368.75,-18.13"/>
<polygon fill="midnightblue" stroke="midnightblue" points="587.32,-59.77 597.75,-57.87 588.41,-52.86 587.32,-59.77"/>
</g>
<!-- Node15 -->
<g id="node15" class="node">
<title>Node15</title>
<g id="a_node15"><a xlink:href="colorspace_8c.html" target="_top" xlink:title=" ">
<polygon fill="white" stroke="black" points="551.5,-0.5 551.5,-19.5 628.5,-19.5 628.5,-0.5 551.5,-0.5"/>
<text text-anchor="middle" x="590" y="-7.5" font-family="FreeSans" font-size="10.00">colorspace.c</text>
</a>
</g>
</g>
<!-- Node9&#45;&gt;Node15 -->
<g id="edge15" class="edge">
<title>Node9&#45;&gt;Node15</title>
<path fill="none" stroke="midnightblue" d="M628,-49C618.43,-39.43 606.64,-27.64 598.75,-19.75"/>
<polygon fill="midnightblue" stroke="midnightblue" points="625.54,-51.49 635.08,-56.08 630.49,-46.54 625.54,-51.49"/>
</g>
<!-- Node16 -->
<g id="node16" class="node">
<title>Node16</title>
<g id="a_node16"><a xlink:href="distribute-cache_8c.html" target="_top" xlink:title=" ">
<polygon fill="white" stroke="black" points="647,-0.5 647,-19.5 751,-19.5 751,-0.5 647,-0.5"/>
<text text-anchor="middle" x="699" y="-7.5" font-family="FreeSans" font-size="10.00">distribute&#45;cache.c</text>
</a>
</g>
</g>
<!-- Node9&#45;&gt;Node16 -->
<g id="edge16" class="edge">
<title>Node9&#45;&gt;Node16</title>
<path fill="none" stroke="midnightblue" d="M660.29,-49C670.04,-39.43 682.05,-27.64 690.09,-19.75"/>
<polygon fill="midnightblue" stroke="midnightblue" points="657.77,-46.58 653.08,-56.08 662.67,-51.57 657.77,-46.58"/>
</g>
<!-- Node9&#45;&gt;Node17 -->
<g id="edge17" class="edge">
<title>Node9&#45;&gt;Node17</title>
<path fill="none" stroke="midnightblue" d="M700.55,-62.69C841.87,-56.69 1207.69,-39.69 1328,-20 1331.25,-19.47 1334.65,-18.76 1337.98,-17.97"/>
<polygon fill="midnightblue" stroke="midnightblue" points="700.22,-59.2 690.37,-63.12 700.51,-66.19 700.22,-59.2"/>
</g>
<!-- Node9&#45;&gt;Node18 -->
<g id="edge18" class="edge">
<title>Node9&#45;&gt;Node18</title>
<path fill="none" stroke="midnightblue" d="M598.21,-54.11C553.15,-43.39 485.63,-27.33 447,-18.14"/>
<polygon fill="midnightblue" stroke="midnightblue" points="597.49,-57.53 608.03,-56.44 599.11,-50.72 597.49,-57.53"/>
</g>
<!-- Node9&#45;&gt;Node19 -->
<g id="edge19" class="edge">
<title>Node9&#45;&gt;Node19</title>
<path fill="none" stroke="midnightblue" d="M692.01,-54.29C732.33,-45.26 791.46,-31.93 843,-20 846.17,-19.27 849.49,-18.49 852.79,-17.72"/>
<polygon fill="midnightblue" stroke="midnightblue" points="691.17,-50.89 682.18,-56.49 692.7,-57.72 691.17,-50.89"/>
</g>
<!-- Node20 -->
<g id="node20" class="node">
<title>Node20</title>
<g id="a_node20"><a xlink:href="opencl_8c.html" target="_top" xlink:title=" ">
<polygon fill="white" stroke="black" points="1262.5,-0.5 1262.5,-19.5 1319.5,-19.5 1319.5,-0.5 1262.5,-0.5"/>
<text text-anchor="middle" x="1291" y="-7.5" font-family="FreeSans" font-size="10.00">opencl.c</text>
</a>
</g>
</g>
<!-- Node9&#45;&gt;Node20 -->
<g id="edge20" class="edge">
<title>Node9&#45;&gt;Node20</title>
<path fill="none" stroke="midnightblue" d="M700.15,-62C829.86,-54.87 1147.29,-36.32 1253,-20 1256.08,-19.52 1259.28,-18.93 1262.46,-18.27"/>
<polygon fill="midnightblue" stroke="midnightblue" points="699.82,-58.51 690.03,-62.55 700.21,-65.5 699.82,-58.51"/>
</g>
<!-- Node21 -->
<g id="node21" class="node">
<title>Node21</title>
<g id="a_node21"><a xlink:href="property_8c.html" target="_top" xlink:title=" ">
<polygon fill="white" stroke="black" points="769.5,-0.5 769.5,-19.5 834.5,-19.5 834.5,-0.5 769.5,-0.5"/>
<text text-anchor="middle" x="802" y="-7.5" font-family="FreeSans" font-size="10.00">property.c</text>
</a>
</g>
</g>
<!-- Node9&#45;&gt;Node21 -->
<g id="edge21" class="edge">
<title>Node9&#45;&gt;Node21</title>
<path fill="none" stroke="midnightblue" d="M678.61,-53.17C708.36,-43 750.55,-28.59 777.08,-19.52"/>
<polygon fill="midnightblue" stroke="midnightblue" points="677.37,-49.9 669.04,-56.44 679.63,-56.52 677.37,-49.9"/>
</g>
<!-- Node9&#45;&gt;Node22 -->
<g id="edge22" class="edge">
<title>Node9&#45;&gt;Node22</title>
<path fill="none" stroke="midnightblue" d="M700.14,-56.51C755.61,-47.95 842.83,-34.03 918,-20 920.85,-19.47 923.8,-18.9 926.76,-18.31"/>
<polygon fill="midnightblue" stroke="midnightblue" points="699.52,-53.07 690.16,-58.05 700.58,-59.99 699.52,-53.07"/>
</g>
<!-- Node9&#45;&gt;Node23 -->
<g id="edge23" class="edge">
<title>Node9&#45;&gt;Node23</title>
<path fill="none" stroke="midnightblue" d="M700.28,-59.41C771.31,-52.02 897.12,-37.83 1004,-20 1007.01,-19.5 1010.13,-18.93 1013.25,-18.34"/>
<polygon fill="midnightblue" stroke="midnightblue" points="699.79,-55.94 690.21,-60.45 700.51,-62.9 699.79,-55.94"/>
</g>
<!-- Node9&#45;&gt;Node24 -->
<g id="edge24" class="edge">
<title>Node9&#45;&gt;Node24</title>
<path fill="none" stroke="midnightblue" d="M700.3,-62.04C785.12,-56.96 950.48,-44.67 1089,-20 1092.09,-19.45 1095.31,-18.77 1098.48,-18.04"/>
<polygon fill="midnightblue" stroke="midnightblue" points="699.9,-58.55 690.12,-62.64 700.31,-65.54 699.9,-58.55"/>
</g>
<!-- Node9&#45;&gt;Node25 -->
<g id="edge25" class="edge">
<title>Node9&#45;&gt;Node25</title>
<path fill="none" stroke="midnightblue" d="M700.69,-62.75C851.63,-56.59 1260.92,-38.62 1395,-20 1397.89,-19.6 1400.87,-19.1 1403.86,-18.55"/>
<polygon fill="midnightblue" stroke="midnightblue" points="700.12,-59.27 690.27,-63.18 700.41,-66.27 700.12,-59.27"/>
</g>
<!-- Node43&#45;&gt;Node10 -->
<g id="edge53" class="edge">
<title>Node43&#45;&gt;Node10</title>
<path fill="none" stroke="midnightblue" d="M2096.27,-56.05C1721.54,-20.86 1622.66,-63.04 1253,-20 1250.11,-19.66 1247.13,-19.25 1244.15,-18.79"/>
<polygon fill="midnightblue" stroke="midnightblue" points="2096.02,-59.55 2106.31,-57.01 2096.68,-52.58 2096.02,-59.55"/>
</g>
<!-- Node43&#45;&gt;Node20 -->
<g id="edge56" class="edge">
<title>Node43&#45;&gt;Node20</title>
<path fill="none" stroke="midnightblue" d="M2096.14,-56.04C1755.15,-23.48 1664.07,-67.12 1329,-20 1325.91,-19.57 1322.71,-19 1319.53,-18.36"/>
<polygon fill="midnightblue" stroke="midnightblue" points="2096.02,-59.54 2106.31,-57.02 2096.69,-52.58 2096.02,-59.54"/>
</g>
<!-- Node43&#45;&gt;Node25 -->
<g id="edge57" class="edge">
<title>Node43&#45;&gt;Node25</title>
<path fill="none" stroke="midnightblue" d="M2096.01,-55.99C1848.06,-29.4 1562.52,-16.17 1468.07,-12.26"/>
<polygon fill="midnightblue" stroke="midnightblue" points="2095.98,-59.5 2106.3,-57.1 2096.73,-52.54 2095.98,-59.5"/>
</g>
<!-- Node43&#45;&gt;Node32 -->
<g id="edge54" class="edge">
<title>Node43&#45;&gt;Node32</title>
<path fill="none" stroke="midnightblue" d="M2124.08,-52.91C2096.44,-42.75 2057.66,-28.51 2033.18,-19.52"/>
<polygon fill="midnightblue" stroke="midnightblue" points="2123.11,-56.28 2133.71,-56.44 2125.53,-49.71 2123.11,-56.28"/>
</g>
<!-- Node43&#45;&gt;Node35 -->
<g id="edge55" class="edge">
<title>Node43&#45;&gt;Node35</title>
<path fill="none" stroke="midnightblue" d="M2157,-45.8C2157,-36.91 2157,-26.78 2157,-19.75"/>
<polygon fill="midnightblue" stroke="midnightblue" points="2153.5,-46.08 2157,-56.08 2160.5,-46.08 2153.5,-46.08"/>
</g>
<!-- Node43&#45;&gt;Node44 -->
<g id="edge58" class="edge">
<title>Node43&#45;&gt;Node44</title>
<path fill="none" stroke="midnightblue" d="M2176.59,-50.1C2189.37,-40.38 2205.61,-28.03 2216.39,-19.83"/>
<polygon fill="midnightblue" stroke="midnightblue" points="2174.25,-47.48 2168.41,-56.32 2178.49,-53.06 2174.25,-47.48"/>
</g>
<!-- Node43&#45;&gt;Node45 -->
<g id="edge59" class="edge">
<title>Node43&#45;&gt;Node45</title>
<path fill="none" stroke="midnightblue" d="M2193.82,-53.3C2225.85,-43.13 2271.52,-28.62 2300.19,-19.52"/>
<polygon fill="midnightblue" stroke="midnightblue" points="2192.41,-50.08 2183.94,-56.44 2194.53,-56.75 2192.41,-50.08"/>
</g>
<!-- Node46&#45;&gt;Node17 -->
<g id="edge63" class="edge">
<title>Node46&#45;&gt;Node17</title>
<path fill="none" stroke="midnightblue" d="M2215.67,-56.09C1850.5,-23.87 1752.6,-75.89 1395,-20 1392.07,-19.54 1389.02,-18.92 1386.02,-18.21"/>
<polygon fill="midnightblue" stroke="midnightblue" points="2215.45,-59.58 2225.72,-56.99 2216.08,-52.61 2215.45,-59.58"/>
</g>
<!-- Node46&#45;&gt;Node31 -->
<g id="edge62" class="edge">
<title>Node46&#45;&gt;Node31</title>
<path fill="none" stroke="midnightblue" d="M2215.73,-56.02C2044.08,-35.98 1852.21,-19.31 1781.23,-13.34"/>
<polygon fill="midnightblue" stroke="midnightblue" points="2215.36,-59.5 2225.7,-57.19 2216.18,-52.55 2215.36,-59.5"/>
</g>
<!-- Node46&#45;&gt;Node32 -->
<g id="edge64" class="edge">
<title>Node46&#45;&gt;Node32</title>
<path fill="none" stroke="midnightblue" d="M2222.09,-54.66C2174.45,-46.07 2105.71,-33.17 2046,-20 2042.98,-19.33 2039.83,-18.6 2036.7,-17.85"/>
<polygon fill="midnightblue" stroke="midnightblue" points="2221.77,-58.16 2232.23,-56.48 2223.01,-51.27 2221.77,-58.16"/>
</g>
<!-- Node46&#45;&gt;Node33 -->
<g id="edge65" class="edge">
<title>Node46&#45;&gt;Node33</title>
<path fill="none" stroke="midnightblue" d="M2240.61,-53.7C2204.18,-43.51 2151.41,-28.74 2118.44,-19.52"/>
<polygon fill="midnightblue" stroke="midnightblue" points="2239.85,-57.12 2250.42,-56.44 2241.73,-50.38 2239.85,-57.12"/>
</g>
<!-- Node46&#45;&gt;Node35 -->
<g id="edge66" class="edge">
<title>Node46&#45;&gt;Node35</title>
<path fill="none" stroke="midnightblue" d="M2252.02,-52.38C2228.02,-41.93 2194.69,-27.41 2174.55,-18.64"/>
<polygon fill="midnightblue" stroke="midnightblue" points="2250.79,-55.66 2261.35,-56.44 2253.58,-49.24 2250.79,-55.66"/>
</g>
<!-- Node46&#45;&gt;Node45 -->
<g id="edge68" class="edge">
<title>Node46&#45;&gt;Node45</title>
<path fill="none" stroke="midnightblue" d="M2295.11,-48.43C2303.18,-38.97 2312.96,-27.48 2319.55,-19.75"/>
<polygon fill="midnightblue" stroke="midnightblue" points="2292.42,-46.2 2288.6,-56.08 2297.75,-50.74 2292.42,-46.2"/>
</g>
<!-- Node46&#45;&gt;Node47 -->
<g id="edge67" class="edge">
<title>Node46&#45;&gt;Node47</title>
<path fill="none" stroke="midnightblue" d="M2314.15,-52.91C2341.97,-42.75 2381.02,-28.51 2405.66,-19.52"/>
<polygon fill="midnightblue" stroke="midnightblue" points="2312.65,-49.73 2304.45,-56.44 2315.04,-56.3 2312.65,-49.73"/>
</g>
</g>
</svg>
