<?xml version="1.0" encoding="UTF-8" standalone="no"?>
<!DOCTYPE svg PUBLIC "-//W3C//DTD SVG 1.1//EN"
 "http://www.w3.org/Graphics/SVG/1.1/DTD/svg11.dtd">
<!-- Generated by graphviz version 2.43.0 (0)
 -->
<!-- Title: thread.c Pages: 1 -->
<svg width="3089pt" height="476pt"
 viewBox="0.00 0.00 3089.00 476.00" xmlns="http://www.w3.org/2000/svg" xmlns:xlink="http://www.w3.org/1999/xlink">
<g id="graph0" class="graph" transform="scale(1 1) rotate(0) translate(4 472)">
<title>thread.c</title>
<polygon fill="white" stroke="transparent" points="-4,4 -4,-472 3085,-472 3085,4 -4,4"/>
<!-- Node1 -->
<g id="node1" class="node">
<title>Node1</title>
<g id="a_node1"><a xlink:title=" ">
<polygon fill="#bfbfbf" stroke="black" points="1213.5,-448.5 1213.5,-467.5 1269.5,-467.5 1269.5,-448.5 1213.5,-448.5"/>
<text text-anchor="middle" x="1241.5" y="-455.5" font-family="FreeSans" font-size="10.00">thread.c</text>
</a>
</g>
</g>
<!-- Node2 -->
<g id="node2" class="node">
<title>Node2</title>
<g id="a_node2"><a xlink:href="studio_8h.html" target="_top" xlink:title=" ">
<polygon fill="white" stroke="black" points="820,-392.5 820,-411.5 915,-411.5 915,-392.5 820,-392.5"/>
<text text-anchor="middle" x="867.5" y="-399.5" font-family="FreeSans" font-size="10.00">magick/studio.h</text>
</a>
</g>
</g>
<!-- Node1&#45;&gt;Node2 -->
<g id="edge1" class="edge">
<title>Node1&#45;&gt;Node2</title>
<path fill="none" stroke="midnightblue" d="M1213.39,-452.94C1152.38,-444.13 1006.77,-423.11 925.27,-411.34"/>
<polygon fill="midnightblue" stroke="midnightblue" points="925.57,-407.85 915.17,-409.88 924.57,-414.78 925.57,-407.85"/>
</g>
<!-- Node24 -->
<g id="node24" class="node">
<title>Node24</title>
<g id="a_node24"><a xlink:href="memory___8h.html" target="_top" xlink:title=" ">
<polygon fill="white" stroke="black" points="42,-392.5 42,-411.5 153,-411.5 153,-392.5 42,-392.5"/>
<text text-anchor="middle" x="97.5" y="-399.5" font-family="FreeSans" font-size="10.00">magick/memory_.h</text>
</a>
</g>
</g>
<!-- Node1&#45;&gt;Node24 -->
<g id="edge24" class="edge">
<title>Node1&#45;&gt;Node24</title>
<path fill="none" stroke="midnightblue" d="M1213.22,-455.67C1065.45,-448.69 380.57,-416.36 163.61,-406.12"/>
<polygon fill="midnightblue" stroke="midnightblue" points="163.48,-402.61 153.33,-405.64 163.15,-409.6 163.48,-402.61"/>
</g>
<!-- Node25 -->
<g id="node25" class="node">
<title>Node25</title>
<g id="a_node25"><a xlink:href="thread___8h.html" target="_top" xlink:title=" ">
<polygon fill="white" stroke="black" points="1566,-336.5 1566,-355.5 1667,-355.5 1667,-336.5 1566,-336.5"/>
<text text-anchor="middle" x="1616.5" y="-343.5" font-family="FreeSans" font-size="10.00">magick/thread_.h</text>
</a>
</g>
</g>
<!-- Node1&#45;&gt;Node25 -->
<g id="edge27" class="edge">
<title>Node1&#45;&gt;Node25</title>
<path fill="none" stroke="midnightblue" d="M1269.69,-448.73C1336.03,-429.27 1502.15,-380.54 1577.84,-358.34"/>
<polygon fill="midnightblue" stroke="midnightblue" points="1578.86,-361.69 1587.47,-355.52 1576.89,-354.97 1578.86,-361.69"/>
</g>
<!-- Node26 -->
<g id="node26" class="node">
<title>Node26</title>
<g id="a_node26"><a xlink:href="thread-private_8h.html" target="_top" xlink:title=" ">
<polygon fill="white" stroke="black" points="1664.5,-392.5 1664.5,-411.5 1798.5,-411.5 1798.5,-392.5 1664.5,-392.5"/>
<text text-anchor="middle" x="1731.5" y="-399.5" font-family="FreeSans" font-size="10.00">magick/thread&#45;private.h</text>
</a>
</g>
</g>
<!-- Node1&#45;&gt;Node26 -->
<g id="edge28" class="edge">
<title>Node1&#45;&gt;Node26</title>
<path fill="none" stroke="midnightblue" d="M1269.6,-453.9C1343.06,-445.81 1542.78,-423.8 1654.03,-411.54"/>
<polygon fill="midnightblue" stroke="midnightblue" points="1654.63,-414.99 1664.19,-410.42 1653.87,-408.03 1654.63,-414.99"/>
</g>
<!-- Node3 -->
<g id="node3" class="node">
<title>Node3</title>
<g id="a_node3"><a xlink:href="magick-config_8h.html" target="_top" xlink:title=" ">
<polygon fill="white" stroke="black" points="1032.5,-280.5 1032.5,-299.5 1166.5,-299.5 1166.5,-280.5 1032.5,-280.5"/>
<text text-anchor="middle" x="1099.5" y="-287.5" font-family="FreeSans" font-size="10.00">magick/magick&#45;config.h</text>
</a>
</g>
</g>
<!-- Node2&#45;&gt;Node3 -->
<g id="edge2" class="edge">
<title>Node2&#45;&gt;Node3</title>
<path fill="none" stroke="midnightblue" d="M915.31,-401.96C998.99,-402.5 1166.63,-398.13 1203.5,-356 1224.87,-331.58 1183.95,-313.2 1147.32,-302.33"/>
<polygon fill="midnightblue" stroke="midnightblue" points="1148.23,-298.94 1137.65,-299.59 1146.32,-305.68 1148.23,-298.94"/>
</g>
<!-- Node5 -->
<g id="node5" class="node">
<title>Node5</title>
<g id="a_node5"><a xlink:title=" ">
<polygon fill="white" stroke="#bfbfbf" points="1525.5,-56.5 1525.5,-75.5 1581.5,-75.5 1581.5,-56.5 1525.5,-56.5"/>
<text text-anchor="middle" x="1553.5" y="-63.5" font-family="FreeSans" font-size="10.00">stdarg.h</text>
</a>
</g>
</g>
<!-- Node2&#45;&gt;Node5 -->
<g id="edge4" class="edge">
<title>Node2&#45;&gt;Node5</title>
<path fill="none" stroke="midnightblue" d="M915.12,-399.87C999.26,-397.06 1170.02,-387.55 1219.5,-356 1248.3,-337.64 1260.5,-325.16 1260.5,-291 1260.5,-291 1260.5,-291 1260.5,-177 1260.5,-123.18 1435.96,-86.78 1515.32,-73.08"/>
<polygon fill="midnightblue" stroke="midnightblue" points="1516.13,-76.49 1525.41,-71.37 1514.96,-69.59 1516.13,-76.49"/>
</g>
<!-- Node6 -->
<g id="node6" class="node">
<title>Node6</title>
<g id="a_node6"><a xlink:title=" ">
<polygon fill="white" stroke="#bfbfbf" points="1288.5,-336.5 1288.5,-355.5 1338.5,-355.5 1338.5,-336.5 1288.5,-336.5"/>
<text text-anchor="middle" x="1313.5" y="-343.5" font-family="FreeSans" font-size="10.00">stdio.h</text>
</a>
</g>
</g>
<!-- Node2&#45;&gt;Node6 -->
<g id="edge5" class="edge">
<title>Node2&#45;&gt;Node6</title>
<path fill="none" stroke="midnightblue" d="M915.06,-397.55C991.29,-391.62 1145.37,-377.96 1274.5,-356 1275.77,-355.78 1277.06,-355.55 1278.37,-355.31"/>
<polygon fill="midnightblue" stroke="midnightblue" points="1279.32,-358.68 1288.41,-353.24 1277.91,-351.83 1279.32,-358.68"/>
</g>
<!-- Node7 -->
<g id="node7" class="node">
<title>Node7</title>
<g id="a_node7"><a xlink:title=" ">
<polygon fill="white" stroke="#bfbfbf" points="1357,-336.5 1357,-355.5 1410,-355.5 1410,-336.5 1357,-336.5"/>
<text text-anchor="middle" x="1383.5" y="-343.5" font-family="FreeSans" font-size="10.00">ctype.h</text>
</a>
</g>
</g>
<!-- Node2&#45;&gt;Node7 -->
<g id="edge6" class="edge">
<title>Node2&#45;&gt;Node7</title>
<path fill="none" stroke="midnightblue" d="M915.16,-398.93C1000,-394.72 1182.84,-383.3 1346.6,-355.88"/>
<polygon fill="midnightblue" stroke="midnightblue" points="1347.59,-359.26 1356.86,-354.14 1346.41,-352.36 1347.59,-359.26"/>
</g>
<!-- Node8 -->
<g id="node8" class="node">
<title>Node8</title>
<g id="a_node8"><a xlink:title=" ">
<polygon fill="white" stroke="#bfbfbf" points="1428,-336.5 1428,-355.5 1483,-355.5 1483,-336.5 1428,-336.5"/>
<text text-anchor="middle" x="1455.5" y="-343.5" font-family="FreeSans" font-size="10.00">locale.h</text>
</a>
</g>
</g>
<!-- Node2&#45;&gt;Node8 -->
<g id="edge7" class="edge">
<title>Node2&#45;&gt;Node8</title>
<path fill="none" stroke="midnightblue" d="M915.08,-399.74C1009.41,-396.68 1226.9,-386.8 1417.76,-356.05"/>
<polygon fill="midnightblue" stroke="midnightblue" points="1418.38,-359.5 1427.69,-354.43 1417.25,-352.59 1418.38,-359.5"/>
</g>
<!-- Node9 -->
<g id="node9" class="node">
<title>Node9</title>
<g id="a_node9"><a xlink:title=" ">
<polygon fill="white" stroke="#bfbfbf" points="0,-336.5 0,-355.5 51,-355.5 51,-336.5 0,-336.5"/>
<text text-anchor="middle" x="25.5" y="-343.5" font-family="FreeSans" font-size="10.00">errno.h</text>
</a>
</g>
</g>
<!-- Node2&#45;&gt;Node9 -->
<g id="edge8" class="edge">
<title>Node2&#45;&gt;Node9</title>
<path fill="none" stroke="midnightblue" d="M819.86,-401.59C696.04,-402.42 353.95,-400.3 61.33,-355.79"/>
<polygon fill="midnightblue" stroke="midnightblue" points="61.79,-352.32 51.38,-354.26 60.73,-359.24 61.79,-352.32"/>
</g>
<!-- Node10 -->
<g id="node10" class="node">
<title>Node10</title>
<g id="a_node10"><a xlink:title=" ">
<polygon fill="white" stroke="#bfbfbf" points="1501,-336.5 1501,-355.5 1548,-355.5 1548,-336.5 1501,-336.5"/>
<text text-anchor="middle" x="1524.5" y="-343.5" font-family="FreeSans" font-size="10.00">fcntl.h</text>
</a>
</g>
</g>
<!-- Node2&#45;&gt;Node10 -->
<g id="edge9" class="edge">
<title>Node2&#45;&gt;Node10</title>
<path fill="none" stroke="midnightblue" d="M915.34,-400.84C1018.93,-399.79 1271.71,-393.42 1490.78,-355.97"/>
<polygon fill="midnightblue" stroke="midnightblue" points="1491.6,-359.38 1500.86,-354.22 1490.41,-352.49 1491.6,-359.38"/>
</g>
<!-- Node11 -->
<g id="node11" class="node">
<title>Node11</title>
<g id="a_node11"><a xlink:title=" ">
<polygon fill="white" stroke="#bfbfbf" points="144,-336.5 144,-355.5 195,-355.5 195,-336.5 144,-336.5"/>
<text text-anchor="middle" x="169.5" y="-343.5" font-family="FreeSans" font-size="10.00">math.h</text>
</a>
</g>
</g>
<!-- Node2&#45;&gt;Node11 -->
<g id="edge10" class="edge">
<title>Node2&#45;&gt;Node11</title>
<path fill="none" stroke="midnightblue" d="M819.73,-400.76C711.76,-399.57 440.69,-392.98 205.49,-355.84"/>
<polygon fill="midnightblue" stroke="midnightblue" points="205.81,-352.35 195.38,-354.22 204.7,-359.26 205.81,-352.35"/>
</g>
<!-- Node12 -->
<g id="node12" class="node">
<title>Node12</title>
<g id="a_node12"><a xlink:title=" ">
<polygon fill="white" stroke="#bfbfbf" points="213.5,-336.5 213.5,-355.5 261.5,-355.5 261.5,-336.5 213.5,-336.5"/>
<text text-anchor="middle" x="237.5" y="-343.5" font-family="FreeSans" font-size="10.00">time.h</text>
</a>
</g>
</g>
<!-- Node2&#45;&gt;Node12 -->
<g id="edge11" class="edge">
<title>Node2&#45;&gt;Node12</title>
<path fill="none" stroke="midnightblue" d="M819.63,-400.36C717.97,-398.34 473.33,-390.04 271.5,-356 271.4,-355.98 271.3,-355.97 271.19,-355.95"/>
<polygon fill="midnightblue" stroke="midnightblue" points="272.03,-352.55 261.53,-353.94 270.61,-359.4 272.03,-352.55"/>
</g>
<!-- Node13 -->
<g id="node13" class="node">
<title>Node13</title>
<g id="a_node13"><a xlink:title=" ">
<polygon fill="white" stroke="#bfbfbf" points="280,-336.5 280,-355.5 333,-355.5 333,-336.5 280,-336.5"/>
<text text-anchor="middle" x="306.5" y="-343.5" font-family="FreeSans" font-size="10.00">limits.h</text>
</a>
</g>
</g>
<!-- Node2&#45;&gt;Node13 -->
<g id="edge12" class="edge">
<title>Node2&#45;&gt;Node13</title>
<path fill="none" stroke="midnightblue" d="M819.76,-399.46C728.83,-395.96 524.44,-385.47 343.12,-355.82"/>
<polygon fill="midnightblue" stroke="midnightblue" points="343.57,-352.35 333.14,-354.16 342.43,-359.25 343.57,-352.35"/>
</g>
<!-- Node14 -->
<g id="node14" class="node">
<title>Node14</title>
<g id="a_node14"><a xlink:title=" ">
<polygon fill="white" stroke="#bfbfbf" points="351,-336.5 351,-355.5 406,-355.5 406,-336.5 351,-336.5"/>
<text text-anchor="middle" x="378.5" y="-343.5" font-family="FreeSans" font-size="10.00">signal.h</text>
</a>
</g>
</g>
<!-- Node2&#45;&gt;Node14 -->
<g id="edge13" class="edge">
<title>Node2&#45;&gt;Node14</title>
<path fill="none" stroke="midnightblue" d="M819.7,-398.44C738.69,-393.62 569.13,-381.46 416.33,-355.9"/>
<polygon fill="midnightblue" stroke="midnightblue" points="416.74,-352.42 406.29,-354.2 415.57,-359.32 416.74,-352.42"/>
</g>
<!-- Node15 -->
<g id="node15" class="node">
<title>Node15</title>
<g id="a_node15"><a xlink:title=" ">
<polygon fill="white" stroke="#bfbfbf" points="69.5,-336.5 69.5,-355.5 125.5,-355.5 125.5,-336.5 69.5,-336.5"/>
<text text-anchor="middle" x="97.5" y="-343.5" font-family="FreeSans" font-size="10.00">assert.h</text>
</a>
</g>
</g>
<!-- Node2&#45;&gt;Node15 -->
<g id="edge14" class="edge">
<title>Node2&#45;&gt;Node15</title>
<path fill="none" stroke="midnightblue" d="M819.6,-400.99C703.63,-400.33 398.6,-394.86 135.8,-355.92"/>
<polygon fill="midnightblue" stroke="midnightblue" points="136.09,-352.42 125.68,-354.4 135.05,-359.35 136.09,-352.42"/>
</g>
<!-- Node16 -->
<g id="node16" class="node">
<title>Node16</title>
<g id="a_node16"><a xlink:href="method-attribute_8h.html" target="_top" xlink:title=" ">
<polygon fill="white" stroke="black" points="424.5,-336.5 424.5,-355.5 572.5,-355.5 572.5,-336.5 424.5,-336.5"/>
<text text-anchor="middle" x="498.5" y="-343.5" font-family="FreeSans" font-size="10.00">magick/method&#45;attribute.h</text>
</a>
</g>
</g>
<!-- Node2&#45;&gt;Node16 -->
<g id="edge15" class="edge">
<title>Node2&#45;&gt;Node16</title>
<path fill="none" stroke="midnightblue" d="M819.64,-394C755.2,-384.57 640.16,-367.73 566.69,-356.98"/>
<polygon fill="midnightblue" stroke="midnightblue" points="567.01,-353.49 556.61,-355.5 565.99,-360.41 567.01,-353.49"/>
</g>
<!-- Node17 -->
<g id="node17" class="node">
<title>Node17</title>
<g id="a_node17"><a xlink:title=" ">
<polygon fill="white" stroke="#bfbfbf" points="590.5,-336.5 590.5,-355.5 662.5,-355.5 662.5,-336.5 590.5,-336.5"/>
<text text-anchor="middle" x="626.5" y="-343.5" font-family="FreeSans" font-size="10.00">sys/types.h</text>
</a>
</g>
</g>
<!-- Node2&#45;&gt;Node17 -->
<g id="edge16" class="edge">
<title>Node2&#45;&gt;Node17</title>
<path fill="none" stroke="midnightblue" d="M829.31,-392.44C786.74,-382.9 717.92,-367.48 672.44,-357.29"/>
<polygon fill="midnightblue" stroke="midnightblue" points="673.06,-353.85 662.54,-355.08 671.53,-360.68 673.06,-353.85"/>
</g>
<!-- Node18 -->
<g id="node18" class="node">
<title>Node18</title>
<g id="a_node18"><a xlink:title=" ">
<polygon fill="white" stroke="#bfbfbf" points="680.5,-336.5 680.5,-355.5 744.5,-355.5 744.5,-336.5 680.5,-336.5"/>
<text text-anchor="middle" x="712.5" y="-343.5" font-family="FreeSans" font-size="10.00">sys/stat.h</text>
</a>
</g>
</g>
<!-- Node2&#45;&gt;Node18 -->
<g id="edge17" class="edge">
<title>Node2&#45;&gt;Node18</title>
<path fill="none" stroke="midnightblue" d="M842.94,-392.44C816.98,-383.4 775.83,-369.06 746.7,-358.92"/>
<polygon fill="midnightblue" stroke="midnightblue" points="747.54,-355.5 736.95,-355.52 745.24,-362.11 747.54,-355.5"/>
</g>
<!-- Node19 -->
<g id="node19" class="node">
<title>Node19</title>
<g id="a_node19"><a xlink:title=" ">
<polygon fill="white" stroke="#bfbfbf" points="762.5,-336.5 762.5,-355.5 816.5,-355.5 816.5,-336.5 762.5,-336.5"/>
<text text-anchor="middle" x="789.5" y="-343.5" font-family="FreeSans" font-size="10.00">dirent.h</text>
</a>
</g>
</g>
<!-- Node2&#45;&gt;Node19 -->
<g id="edge18" class="edge">
<title>Node2&#45;&gt;Node19</title>
<path fill="none" stroke="midnightblue" d="M854.97,-392.32C842.91,-383.98 824.47,-371.21 810.23,-361.35"/>
<polygon fill="midnightblue" stroke="midnightblue" points="812.22,-358.47 802,-355.65 808.23,-364.22 812.22,-358.47"/>
</g>
<!-- Node20 -->
<g id="node20" class="node">
<title>Node20</title>
<g id="a_node20"><a xlink:title=" ">
<polygon fill="white" stroke="#bfbfbf" points="834.5,-336.5 834.5,-355.5 900.5,-355.5 900.5,-336.5 834.5,-336.5"/>
<text text-anchor="middle" x="867.5" y="-343.5" font-family="FreeSans" font-size="10.00">sys/wait.h</text>
</a>
</g>
</g>
<!-- Node2&#45;&gt;Node20 -->
<g id="edge19" class="edge">
<title>Node2&#45;&gt;Node20</title>
<path fill="none" stroke="midnightblue" d="M867.5,-392.08C867.5,-385.01 867.5,-374.86 867.5,-365.99"/>
<polygon fill="midnightblue" stroke="midnightblue" points="871,-365.75 867.5,-355.75 864,-365.75 871,-365.75"/>
</g>
<!-- Node21 -->
<g id="node21" class="node">
<title>Node21</title>
<g id="a_node21"><a xlink:title=" ">
<polygon fill="white" stroke="#bfbfbf" points="918.5,-336.5 918.5,-355.5 964.5,-355.5 964.5,-336.5 918.5,-336.5"/>
<text text-anchor="middle" x="941.5" y="-343.5" font-family="FreeSans" font-size="10.00">pwd.h</text>
</a>
</g>
</g>
<!-- Node2&#45;&gt;Node21 -->
<g id="edge20" class="edge">
<title>Node2&#45;&gt;Node21</title>
<path fill="none" stroke="midnightblue" d="M879.39,-392.32C890.65,-384.11 907.79,-371.6 921.21,-361.81"/>
<polygon fill="midnightblue" stroke="midnightblue" points="923.38,-364.56 929.39,-355.83 919.25,-358.9 923.38,-364.56"/>
</g>
<!-- Node22 -->
<g id="node22" class="node">
<title>Node22</title>
<g id="a_node22"><a xlink:href="magick-type_8h.html" target="_top" xlink:title=" ">
<polygon fill="white" stroke="black" points="982.5,-336.5 982.5,-355.5 1108.5,-355.5 1108.5,-336.5 982.5,-336.5"/>
<text text-anchor="middle" x="1045.5" y="-343.5" font-family="FreeSans" font-size="10.00">magick/magick&#45;type.h</text>
</a>
</g>
</g>
<!-- Node2&#45;&gt;Node22 -->
<g id="edge21" class="edge">
<title>Node2&#45;&gt;Node22</title>
<path fill="none" stroke="midnightblue" d="M895.7,-392.44C925.91,-383.28 974.01,-368.69 1007.53,-358.52"/>
<polygon fill="midnightblue" stroke="midnightblue" points="1008.87,-361.77 1017.43,-355.52 1006.84,-355.07 1008.87,-361.77"/>
</g>
<!-- Node23 -->
<g id="node23" class="node">
<title>Node23</title>
<g id="a_node23"><a xlink:title=" ">
<polygon fill="white" stroke="#bfbfbf" points="1126.5,-336.5 1126.5,-355.5 1194.5,-355.5 1194.5,-336.5 1126.5,-336.5"/>
<text text-anchor="middle" x="1160.5" y="-343.5" font-family="FreeSans" font-size="10.00">sys/time.h</text>
</a>
</g>
</g>
<!-- Node2&#45;&gt;Node23 -->
<g id="edge23" class="edge">
<title>Node2&#45;&gt;Node23</title>
<path fill="none" stroke="midnightblue" d="M915.04,-392.85C963.22,-384.51 1040.19,-370.92 1116.04,-356.24"/>
<polygon fill="midnightblue" stroke="midnightblue" points="1117.1,-359.6 1126.25,-354.26 1115.77,-352.73 1117.1,-359.6"/>
</g>
<!-- Node4 -->
<g id="node4" class="node">
<title>Node4</title>
<g id="a_node4"><a xlink:href="magick-baseconfig_8h.html" target="_top" xlink:title=" ">
<polygon fill="white" stroke="black" points="1021,-224.5 1021,-243.5 1178,-243.5 1178,-224.5 1021,-224.5"/>
<text text-anchor="middle" x="1099.5" y="-231.5" font-family="FreeSans" font-size="10.00">magick/magick&#45;baseconfig.h</text>
</a>
</g>
</g>
<!-- Node3&#45;&gt;Node4 -->
<g id="edge3" class="edge">
<title>Node3&#45;&gt;Node4</title>
<path fill="none" stroke="midnightblue" d="M1099.5,-280.08C1099.5,-273.01 1099.5,-262.86 1099.5,-253.99"/>
<polygon fill="midnightblue" stroke="midnightblue" points="1103,-253.75 1099.5,-243.75 1096,-253.75 1103,-253.75"/>
</g>
<!-- Node22&#45;&gt;Node3 -->
<g id="edge22" class="edge">
<title>Node22&#45;&gt;Node3</title>
<path fill="none" stroke="midnightblue" d="M1054.42,-336.08C1062.28,-328.22 1073.93,-316.57 1083.42,-307.08"/>
<polygon fill="midnightblue" stroke="midnightblue" points="1086.15,-309.3 1090.75,-299.75 1081.2,-304.35 1086.15,-309.3"/>
</g>
<!-- Node24&#45;&gt;Node9 -->
<g id="edge25" class="edge">
<title>Node24&#45;&gt;Node9</title>
<path fill="none" stroke="midnightblue" d="M85.93,-392.32C75.08,-384.18 58.62,-371.84 45.62,-362.09"/>
<polygon fill="midnightblue" stroke="midnightblue" points="47.38,-359.03 37.28,-355.83 43.18,-364.63 47.38,-359.03"/>
</g>
<!-- Node24&#45;&gt;Node15 -->
<g id="edge26" class="edge">
<title>Node24&#45;&gt;Node15</title>
<path fill="none" stroke="midnightblue" d="M97.5,-392.08C97.5,-385.01 97.5,-374.86 97.5,-365.99"/>
<polygon fill="midnightblue" stroke="midnightblue" points="101,-365.75 97.5,-355.75 94,-365.75 101,-365.75"/>
</g>
<!-- Node26&#45;&gt;Node25 -->
<g id="edge63" class="edge">
<title>Node26&#45;&gt;Node25</title>
<path fill="none" stroke="midnightblue" d="M1713.28,-392.44C1694.6,-383.68 1665.34,-369.94 1643.88,-359.86"/>
<polygon fill="midnightblue" stroke="midnightblue" points="1645.18,-356.6 1634.64,-355.52 1642.2,-362.93 1645.18,-356.6"/>
</g>
<!-- Node27 -->
<g id="node27" class="node">
<title>Node27</title>
<g id="a_node27"><a xlink:href="cache_8h.html" target="_top" xlink:title=" ">
<polygon fill="white" stroke="black" points="1685,-336.5 1685,-355.5 1778,-355.5 1778,-336.5 1685,-336.5"/>
<text text-anchor="middle" x="1731.5" y="-343.5" font-family="FreeSans" font-size="10.00">magick/cache.h</text>
</a>
</g>
</g>
<!-- Node26&#45;&gt;Node27 -->
<g id="edge29" class="edge">
<title>Node26&#45;&gt;Node27</title>
<path fill="none" stroke="midnightblue" d="M1731.5,-392.08C1731.5,-385.01 1731.5,-374.86 1731.5,-365.99"/>
<polygon fill="midnightblue" stroke="midnightblue" points="1735,-365.75 1731.5,-355.75 1728,-365.75 1735,-365.75"/>
</g>
<!-- Node54 -->
<g id="node49" class="node">
<title>Node54</title>
<g id="a_node49"><a xlink:href="image-private_8h.html" target="_top" xlink:title=" ">
<polygon fill="white" stroke="black" points="1796.5,-336.5 1796.5,-355.5 1930.5,-355.5 1930.5,-336.5 1796.5,-336.5"/>
<text text-anchor="middle" x="1863.5" y="-343.5" font-family="FreeSans" font-size="10.00">magick/image&#45;private.h</text>
</a>
</g>
</g>
<!-- Node26&#45;&gt;Node54 -->
<g id="edge61" class="edge">
<title>Node26&#45;&gt;Node54</title>
<path fill="none" stroke="midnightblue" d="M1752.42,-392.44C1774.24,-383.52 1808.65,-369.44 1833.39,-359.32"/>
<polygon fill="midnightblue" stroke="midnightblue" points="1834.75,-362.54 1842.68,-355.52 1832.1,-356.06 1834.75,-362.54"/>
</g>
<!-- Node55 -->
<g id="node50" class="node">
<title>Node55</title>
<g id="a_node50"><a xlink:href="resource___8h.html" target="_top" xlink:title=" ">
<polygon fill="white" stroke="black" points="1948.5,-336.5 1948.5,-355.5 2060.5,-355.5 2060.5,-336.5 1948.5,-336.5"/>
<text text-anchor="middle" x="2004.5" y="-343.5" font-family="FreeSans" font-size="10.00">magick/resource_.h</text>
</a>
</g>
</g>
<!-- Node26&#45;&gt;Node55 -->
<g id="edge62" class="edge">
<title>Node26&#45;&gt;Node55</title>
<path fill="none" stroke="midnightblue" d="M1774.76,-392.44C1822.68,-382.96 1899.98,-367.67 1951.5,-357.48"/>
<polygon fill="midnightblue" stroke="midnightblue" points="1952.31,-360.89 1961.44,-355.52 1950.96,-354.02 1952.31,-360.89"/>
</g>
<!-- Node28 -->
<g id="node28" class="node">
<title>Node28</title>
<g id="a_node28"><a xlink:href="blob_8h.html" target="_top" xlink:title=" ">
<polygon fill="white" stroke="black" points="2153.5,-280.5 2153.5,-299.5 2239.5,-299.5 2239.5,-280.5 2153.5,-280.5"/>
<text text-anchor="middle" x="2196.5" y="-287.5" font-family="FreeSans" font-size="10.00">magick/blob.h</text>
</a>
</g>
</g>
<!-- Node27&#45;&gt;Node28 -->
<g id="edge30" class="edge">
<title>Node27&#45;&gt;Node28</title>
<path fill="none" stroke="midnightblue" d="M1778.23,-337.31C1781.36,-336.85 1784.47,-336.41 1787.5,-336 1914.87,-318.77 2065.23,-303.53 2143.35,-296"/>
<polygon fill="midnightblue" stroke="midnightblue" points="2143.81,-299.47 2153.43,-295.03 2143.14,-292.5 2143.81,-299.47"/>
</g>
<!-- Node29 -->
<g id="node29" class="node">
<title>Node29</title>
<g id="a_node29"><a xlink:href="image_8h.html" target="_top" xlink:title=" ">
<polygon fill="white" stroke="black" points="2149,-224.5 2149,-243.5 2244,-243.5 2244,-224.5 2149,-224.5"/>
<text text-anchor="middle" x="2196.5" y="-231.5" font-family="FreeSans" font-size="10.00">magick/image.h</text>
</a>
</g>
</g>
<!-- Node28&#45;&gt;Node29 -->
<g id="edge31" class="edge">
<title>Node28&#45;&gt;Node29</title>
<path fill="none" stroke="midnightblue" d="M2191.33,-280.08C2189.82,-272.93 2189.39,-262.64 2190.04,-253.69"/>
<polygon fill="midnightblue" stroke="midnightblue" points="2193.52,-254.13 2191.37,-243.75 2186.58,-253.2 2193.52,-254.13"/>
</g>
<!-- Node52 -->
<g id="node47" class="node">
<title>Node52</title>
<g id="a_node47"><a xlink:href="stream_8h.html" target="_top" xlink:title=" ">
<polygon fill="white" stroke="black" points="2982,-168.5 2982,-187.5 3081,-187.5 3081,-168.5 2982,-168.5"/>
<text text-anchor="middle" x="3031.5" y="-175.5" font-family="FreeSans" font-size="10.00">magick/stream.h</text>
</a>
</g>
</g>
<!-- Node28&#45;&gt;Node52 -->
<g id="edge60" class="edge">
<title>Node28&#45;&gt;Node52</title>
<path fill="none" stroke="midnightblue" d="M2239.87,-283.69C2356.34,-269.37 2685.86,-228.38 2971.78,-188.07"/>
<polygon fill="midnightblue" stroke="midnightblue" points="2972.52,-191.5 2981.94,-186.64 2971.55,-184.57 2972.52,-191.5"/>
</g>
<!-- Node29&#45;&gt;Node28 -->
<g id="edge38" class="edge">
<title>Node29&#45;&gt;Node28</title>
<path fill="none" stroke="midnightblue" d="M2201.63,-243.75C2203.16,-250.86 2203.6,-261.14 2202.97,-270.1"/>
<polygon fill="midnightblue" stroke="midnightblue" points="2199.49,-269.71 2201.67,-280.08 2206.43,-270.62 2199.49,-269.71"/>
</g>
<!-- Node30 -->
<g id="node30" class="node">
<title>Node30</title>
<g id="a_node30"><a xlink:href="color_8h.html" target="_top" xlink:title=" ">
<polygon fill="white" stroke="black" points="2259.5,-168.5 2259.5,-187.5 2347.5,-187.5 2347.5,-168.5 2259.5,-168.5"/>
<text text-anchor="middle" x="2303.5" y="-175.5" font-family="FreeSans" font-size="10.00">magick/color.h</text>
</a>
</g>
</g>
<!-- Node29&#45;&gt;Node30 -->
<g id="edge32" class="edge">
<title>Node29&#45;&gt;Node30</title>
<path fill="none" stroke="midnightblue" d="M2213.69,-224.32C2230.85,-215.66 2257.45,-202.24 2277.25,-192.25"/>
<polygon fill="midnightblue" stroke="midnightblue" points="2279,-195.28 2286.35,-187.65 2275.85,-189.04 2279,-195.28"/>
</g>
<!-- Node31 -->
<g id="node31" class="node">
<title>Node31</title>
<g id="a_node31"><a xlink:href="pixel_8h.html" target="_top" xlink:title=" ">
<polygon fill="white" stroke="red" points="2375.5,-56.5 2375.5,-75.5 2463.5,-75.5 2463.5,-56.5 2375.5,-56.5"/>
<text text-anchor="middle" x="2419.5" y="-63.5" font-family="FreeSans" font-size="10.00">magick/pixel.h</text>
</a>
</g>
</g>
<!-- Node29&#45;&gt;Node31 -->
<g id="edge49" class="edge">
<title>Node29&#45;&gt;Node31</title>
<path fill="none" stroke="midnightblue" d="M2244.19,-229.66C2278.7,-225.02 2324.67,-214.03 2356.5,-188 2385.89,-163.97 2377.9,-145.64 2395.5,-112 2400.23,-102.96 2405.56,-92.95 2409.99,-84.67"/>
<polygon fill="midnightblue" stroke="midnightblue" points="2413.21,-86.07 2414.86,-75.61 2407.05,-82.76 2413.21,-86.07"/>
</g>
<!-- Node32 -->
<g id="node32" class="node">
<title>Node32</title>
<g id="a_node32"><a xlink:href="colorspace_8h.html" target="_top" xlink:title=" ">
<polygon fill="white" stroke="black" points="2463,-0.5 2463,-19.5 2580,-19.5 2580,-0.5 2463,-0.5"/>
<text text-anchor="middle" x="2521.5" y="-7.5" font-family="FreeSans" font-size="10.00">magick/colorspace.h</text>
</a>
</g>
</g>
<!-- Node29&#45;&gt;Node32 -->
<g id="edge39" class="edge">
<title>Node29&#45;&gt;Node32</title>
<path fill="none" stroke="midnightblue" d="M2244.29,-230.16C2333.78,-224.34 2519.4,-209.78 2538.5,-188 2578.15,-142.8 2547.62,-63.92 2530.76,-28.77"/>
<polygon fill="midnightblue" stroke="midnightblue" points="2533.84,-27.11 2526.24,-19.72 2527.57,-30.23 2533.84,-27.11"/>
</g>
<!-- Node35 -->
<g id="node34" class="node">
<title>Node35</title>
<g id="a_node34"><a xlink:href="semaphore_8h.html" target="_top" xlink:title=" ">
<polygon fill="white" stroke="black" points="1892,-56.5 1892,-75.5 2011,-75.5 2011,-56.5 1892,-56.5"/>
<text text-anchor="middle" x="1951.5" y="-63.5" font-family="FreeSans" font-size="10.00">magick/semaphore.h</text>
</a>
</g>
</g>
<!-- Node29&#45;&gt;Node35 -->
<g id="edge57" class="edge">
<title>Node29&#45;&gt;Node35</title>
<path fill="none" stroke="midnightblue" d="M2148.95,-229.21C2113.46,-224.36 2065.28,-213.28 2030.5,-188 1993.76,-161.29 1969.47,-111.84 1958.4,-85.17"/>
<polygon fill="midnightblue" stroke="midnightblue" points="1961.53,-83.56 1954.58,-75.57 1955.02,-86.15 1961.53,-83.56"/>
</g>
<!-- Node36 -->
<g id="node35" class="node">
<title>Node36</title>
<g id="a_node35"><a xlink:href="cache-view_8h.html" target="_top" xlink:title=" ">
<polygon fill="white" stroke="black" points="2404,-112.5 2404,-131.5 2523,-131.5 2523,-112.5 2404,-112.5"/>
<text text-anchor="middle" x="2463.5" y="-119.5" font-family="FreeSans" font-size="10.00">magick/cache&#45;view.h</text>
</a>
</g>
</g>
<!-- Node29&#45;&gt;Node36 -->
<g id="edge40" class="edge">
<title>Node29&#45;&gt;Node36</title>
<path fill="none" stroke="midnightblue" d="M2244.19,-233.73C2325.82,-233.85 2486.98,-228.76 2522.5,-188 2538.25,-169.92 2512.36,-149.52 2490.06,-136.47"/>
<polygon fill="midnightblue" stroke="midnightblue" points="2491.61,-133.32 2481.17,-131.52 2488.2,-139.44 2491.61,-133.32"/>
</g>
<!-- Node37 -->
<g id="node36" class="node">
<title>Node37</title>
<g id="a_node36"><a xlink:href="composite_8h.html" target="_top" xlink:title=" ">
<polygon fill="white" stroke="black" points="2607.5,-168.5 2607.5,-187.5 2723.5,-187.5 2723.5,-168.5 2607.5,-168.5"/>
<text text-anchor="middle" x="2665.5" y="-175.5" font-family="FreeSans" font-size="10.00">magick/composite.h</text>
</a>
</g>
</g>
<!-- Node29&#45;&gt;Node37 -->
<g id="edge42" class="edge">
<title>Node29&#45;&gt;Node37</title>
<path fill="none" stroke="midnightblue" d="M2244.19,-227.77C2318.75,-219.56 2467.45,-203.02 2593.5,-188 2594.77,-187.85 2596.05,-187.7 2597.33,-187.54"/>
<polygon fill="midnightblue" stroke="midnightblue" points="2597.84,-191.01 2607.35,-186.33 2597,-184.06 2597.84,-191.01"/>
</g>
<!-- Node38 -->
<g id="node37" class="node">
<title>Node38</title>
<g id="a_node37"><a xlink:href="compress_8h.html" target="_top" xlink:title=" ">
<polygon fill="white" stroke="black" points="2741.5,-168.5 2741.5,-187.5 2853.5,-187.5 2853.5,-168.5 2741.5,-168.5"/>
<text text-anchor="middle" x="2797.5" y="-175.5" font-family="FreeSans" font-size="10.00">magick/compress.h</text>
</a>
</g>
</g>
<!-- Node29&#45;&gt;Node38 -->
<g id="edge43" class="edge">
<title>Node29&#45;&gt;Node38</title>
<path fill="none" stroke="midnightblue" d="M2244.27,-229.86C2336.38,-223.61 2545.17,-208.53 2731.19,-188.09"/>
<polygon fill="midnightblue" stroke="midnightblue" points="2731.6,-191.57 2741.15,-186.99 2730.83,-184.61 2731.6,-191.57"/>
</g>
<!-- Node39 -->
<g id="node38" class="node">
<title>Node39</title>
<g id="a_node38"><a xlink:href="effect_8h.html" target="_top" xlink:title=" ">
<polygon fill="white" stroke="red" points="2871.5,-168.5 2871.5,-187.5 2963.5,-187.5 2963.5,-168.5 2871.5,-168.5"/>
<text text-anchor="middle" x="2917.5" y="-175.5" font-family="FreeSans" font-size="10.00">magick/effect.h</text>
</a>
</g>
</g>
<!-- Node29&#45;&gt;Node39 -->
<g id="edge44" class="edge">
<title>Node29&#45;&gt;Node39</title>
<path fill="none" stroke="midnightblue" d="M2244.29,-231.33C2352.33,-227.21 2623.84,-214.98 2861.13,-188.05"/>
<polygon fill="midnightblue" stroke="midnightblue" points="2861.79,-191.5 2871.33,-186.88 2861,-184.54 2861.79,-191.5"/>
</g>
<!-- Node41 -->
<g id="node39" class="node">
<title>Node41</title>
<g id="a_node39"><a xlink:href="geometry_8h.html" target="_top" xlink:title=" ">
<polygon fill="white" stroke="black" points="1288.5,-168.5 1288.5,-187.5 1398.5,-187.5 1398.5,-168.5 1288.5,-168.5"/>
<text text-anchor="middle" x="1343.5" y="-175.5" font-family="FreeSans" font-size="10.00">magick/geometry.h</text>
</a>
</g>
</g>
<!-- Node29&#45;&gt;Node41 -->
<g id="edge45" class="edge">
<title>Node29&#45;&gt;Node41</title>
<path fill="none" stroke="midnightblue" d="M2148.88,-231.62C2027.46,-227.81 1696.3,-215.62 1408.98,-187.95"/>
<polygon fill="midnightblue" stroke="midnightblue" points="1409.07,-184.45 1398.78,-186.96 1408.4,-191.41 1409.07,-184.45"/>
</g>
<!-- Node42 -->
<g id="node40" class="node">
<title>Node42</title>
<g id="a_node40"><a xlink:href="layer_8h.html" target="_top" xlink:title=" ">
<polygon fill="white" stroke="black" points="1417,-168.5 1417,-187.5 1506,-187.5 1506,-168.5 1417,-168.5"/>
<text text-anchor="middle" x="1461.5" y="-175.5" font-family="FreeSans" font-size="10.00">magick/layer.h</text>
</a>
</g>
</g>
<!-- Node29&#45;&gt;Node42 -->
<g id="edge46" class="edge">
<title>Node29&#45;&gt;Node42</title>
<path fill="none" stroke="midnightblue" d="M2148.88,-231.48C2039.2,-227.62 1760.13,-215.82 1516.36,-187.98"/>
<polygon fill="midnightblue" stroke="midnightblue" points="1516.58,-184.48 1506.24,-186.81 1515.77,-191.43 1516.58,-184.48"/>
</g>
<!-- Node43 -->
<g id="node41" class="node">
<title>Node43</title>
<g id="a_node41"><a xlink:href="locale___8h.html" target="_top" xlink:title=" ">
<polygon fill="white" stroke="red" points="1524,-168.5 1524,-187.5 1623,-187.5 1623,-168.5 1524,-168.5"/>
<text text-anchor="middle" x="1573.5" y="-175.5" font-family="FreeSans" font-size="10.00">magick/locale_.h</text>
</a>
</g>
</g>
<!-- Node29&#45;&gt;Node43 -->
<g id="edge47" class="edge">
<title>Node29&#45;&gt;Node43</title>
<path fill="none" stroke="midnightblue" d="M2148.85,-230.36C2053.2,-224.8 1830.8,-210.61 1633.03,-187.97"/>
<polygon fill="midnightblue" stroke="midnightblue" points="1633.38,-184.49 1623.04,-186.82 1632.57,-191.44 1633.38,-184.49"/>
</g>
<!-- Node45 -->
<g id="node42" class="node">
<title>Node45</title>
<g id="a_node42"><a xlink:href="monitor_8h.html" target="_top" xlink:title=" ">
<polygon fill="white" stroke="black" points="1641.5,-168.5 1641.5,-187.5 1743.5,-187.5 1743.5,-168.5 1641.5,-168.5"/>
<text text-anchor="middle" x="1692.5" y="-175.5" font-family="FreeSans" font-size="10.00">magick/monitor.h</text>
</a>
</g>
</g>
<!-- Node29&#45;&gt;Node45 -->
<g id="edge48" class="edge">
<title>Node29&#45;&gt;Node45</title>
<path fill="none" stroke="midnightblue" d="M2148.89,-228.88C2069.49,-221.84 1904.76,-206.59 1754.09,-188.02"/>
<polygon fill="midnightblue" stroke="midnightblue" points="1754.09,-184.49 1743.73,-186.73 1753.23,-191.44 1754.09,-184.49"/>
</g>
<!-- Node46 -->
<g id="node43" class="node">
<title>Node46</title>
<g id="a_node43"><a xlink:href="profile_8h.html" target="_top" xlink:title=" ">
<polygon fill="white" stroke="red" points="1762,-168.5 1762,-187.5 1857,-187.5 1857,-168.5 1762,-168.5"/>
<text text-anchor="middle" x="1809.5" y="-175.5" font-family="FreeSans" font-size="10.00">magick/profile.h</text>
</a>
</g>
</g>
<!-- Node29&#45;&gt;Node46 -->
<g id="edge50" class="edge">
<title>Node29&#45;&gt;Node46</title>
<path fill="none" stroke="midnightblue" d="M2148.91,-226.83C2086.67,-218.69 1973.98,-203.71 1867.07,-188.06"/>
<polygon fill="midnightblue" stroke="midnightblue" points="1867.48,-184.58 1857.07,-186.59 1866.46,-191.5 1867.48,-184.58"/>
</g>
<!-- Node48 -->
<g id="node44" class="node">
<title>Node48</title>
<g id="a_node44"><a xlink:href="quantum_8h.html" target="_top" xlink:title=" ">
<polygon fill="white" stroke="red" points="1875.5,-168.5 1875.5,-187.5 1983.5,-187.5 1983.5,-168.5 1875.5,-168.5"/>
<text text-anchor="middle" x="1929.5" y="-175.5" font-family="FreeSans" font-size="10.00">magick/quantum.h</text>
</a>
</g>
</g>
<!-- Node29&#45;&gt;Node48 -->
<g id="edge51" class="edge">
<title>Node29&#45;&gt;Node48</title>
<path fill="none" stroke="midnightblue" d="M2149.1,-224.44C2100.36,-215 2025.06,-199.8 1976.47,-189.61"/>
<polygon fill="midnightblue" stroke="midnightblue" points="1977.04,-186.15 1966.53,-187.52 1975.59,-193 1977.04,-186.15"/>
</g>
<!-- Node50 -->
<g id="node45" class="node">
<title>Node50</title>
<g id="a_node45"><a xlink:href="resample_8h.html" target="_top" xlink:title=" ">
<polygon fill="white" stroke="black" points="2403.5,-168.5 2403.5,-187.5 2513.5,-187.5 2513.5,-168.5 2403.5,-168.5"/>
<text text-anchor="middle" x="2458.5" y="-175.5" font-family="FreeSans" font-size="10.00">magick/resample.h</text>
</a>
</g>
</g>
<!-- Node29&#45;&gt;Node50 -->
<g id="edge54" class="edge">
<title>Node29&#45;&gt;Node50</title>
<path fill="none" stroke="midnightblue" d="M2238.01,-224.44C2283.91,-214.98 2357.88,-199.74 2407.33,-189.55"/>
<polygon fill="midnightblue" stroke="midnightblue" points="2408.09,-192.96 2417.18,-187.52 2406.68,-186.11 2408.09,-192.96"/>
</g>
<!-- Node51 -->
<g id="node46" class="node">
<title>Node51</title>
<g id="a_node46"><a xlink:href="resize_8h.html" target="_top" xlink:title=" ">
<polygon fill="white" stroke="black" points="2039.5,-168.5 2039.5,-187.5 2133.5,-187.5 2133.5,-168.5 2039.5,-168.5"/>
<text text-anchor="middle" x="2086.5" y="-175.5" font-family="FreeSans" font-size="10.00">magick/resize.h</text>
</a>
</g>
</g>
<!-- Node29&#45;&gt;Node51 -->
<g id="edge56" class="edge">
<title>Node29&#45;&gt;Node51</title>
<path fill="none" stroke="midnightblue" d="M2178.83,-224.32C2161.11,-215.62 2133.6,-202.12 2113.21,-192.11"/>
<polygon fill="midnightblue" stroke="midnightblue" points="2114.65,-188.92 2104.13,-187.65 2111.56,-195.2 2114.65,-188.92"/>
</g>
<!-- Node29&#45;&gt;Node52 -->
<g id="edge58" class="edge">
<title>Node29&#45;&gt;Node52</title>
<path fill="none" stroke="midnightblue" d="M2244.31,-231.78C2364.65,-228.38 2689.96,-217.13 2971.96,-187.94"/>
<polygon fill="midnightblue" stroke="midnightblue" points="2972.39,-191.42 2981.97,-186.9 2971.66,-184.46 2972.39,-191.42"/>
</g>
<!-- Node53 -->
<g id="node48" class="node">
<title>Node53</title>
<g id="a_node48"><a xlink:href="timer_8h.html" target="_top" xlink:title=" ">
<polygon fill="white" stroke="black" points="2151.5,-168.5 2151.5,-187.5 2241.5,-187.5 2241.5,-168.5 2151.5,-168.5"/>
<text text-anchor="middle" x="2196.5" y="-175.5" font-family="FreeSans" font-size="10.00">magick/timer.h</text>
</a>
</g>
</g>
<!-- Node29&#45;&gt;Node53 -->
<g id="edge59" class="edge">
<title>Node29&#45;&gt;Node53</title>
<path fill="none" stroke="midnightblue" d="M2196.5,-224.08C2196.5,-217.01 2196.5,-206.86 2196.5,-197.99"/>
<polygon fill="midnightblue" stroke="midnightblue" points="2200,-197.75 2196.5,-187.75 2193,-197.75 2200,-197.75"/>
</g>
<!-- Node30&#45;&gt;Node31 -->
<g id="edge33" class="edge">
<title>Node30&#45;&gt;Node31</title>
<path fill="none" stroke="midnightblue" d="M2310.54,-168.13C2321.01,-155.17 2341.6,-130.58 2361.5,-112 2373.23,-101.05 2387.45,-89.99 2398.88,-81.57"/>
<polygon fill="midnightblue" stroke="midnightblue" points="2400.94,-84.4 2406.98,-75.69 2396.83,-78.73 2400.94,-84.4"/>
</g>
<!-- Node34 -->
<g id="node33" class="node">
<title>Node34</title>
<g id="a_node33"><a xlink:href="exception_8h.html" target="_top" xlink:title=" ">
<polygon fill="white" stroke="black" points="1810,-112.5 1810,-131.5 1923,-131.5 1923,-112.5 1810,-112.5"/>
<text text-anchor="middle" x="1866.5" y="-119.5" font-family="FreeSans" font-size="10.00">magick/exception.h</text>
</a>
</g>
</g>
<!-- Node30&#45;&gt;Node34 -->
<g id="edge35" class="edge">
<title>Node30&#45;&gt;Node34</title>
<path fill="none" stroke="midnightblue" d="M2259.28,-169.32C2256.31,-168.85 2253.36,-168.41 2250.5,-168 2139.54,-152.09 2009.93,-137.79 1933.23,-129.77"/>
<polygon fill="midnightblue" stroke="midnightblue" points="1933.53,-126.28 1923.22,-128.72 1932.81,-133.24 1933.53,-126.28"/>
</g>
<!-- Node31&#45;&gt;Node32 -->
<g id="edge34" class="edge">
<title>Node31&#45;&gt;Node32</title>
<path fill="none" stroke="midnightblue" d="M2435.89,-56.32C2452.17,-47.7 2477.37,-34.36 2496.22,-24.39"/>
<polygon fill="midnightblue" stroke="midnightblue" points="2497.95,-27.43 2505.15,-19.65 2494.68,-21.24 2497.95,-27.43"/>
</g>
<!-- Node34&#45;&gt;Node5 -->
<g id="edge36" class="edge">
<title>Node34&#45;&gt;Node5</title>
<path fill="none" stroke="midnightblue" d="M1816.9,-112.44C1754.43,-101.66 1648.41,-83.37 1591.8,-73.61"/>
<polygon fill="midnightblue" stroke="midnightblue" points="1592.28,-70.14 1581.83,-71.89 1591.09,-77.04 1592.28,-70.14"/>
</g>
<!-- Node34&#45;&gt;Node35 -->
<g id="edge37" class="edge">
<title>Node34&#45;&gt;Node35</title>
<path fill="none" stroke="midnightblue" d="M1880.16,-112.32C1893.42,-103.9 1913.77,-90.97 1929.35,-81.07"/>
<polygon fill="midnightblue" stroke="midnightblue" points="1931.31,-83.97 1937.88,-75.65 1927.56,-78.06 1931.31,-83.97"/>
</g>
<!-- Node36&#45;&gt;Node31 -->
<g id="edge41" class="edge">
<title>Node36&#45;&gt;Node31</title>
<path fill="none" stroke="midnightblue" d="M2456.23,-112.08C2449.96,-104.38 2440.71,-93.03 2433.07,-83.65"/>
<polygon fill="midnightblue" stroke="midnightblue" points="2435.66,-81.29 2426.63,-75.75 2430.23,-85.71 2435.66,-81.29"/>
</g>
<!-- Node48&#45;&gt;Node29 -->
<g id="edge52" class="edge">
<title>Node48&#45;&gt;Node29</title>
<path fill="none" stroke="midnightblue" d="M1976.69,-187.52C2025.36,-196.94 2100.66,-212.14 2149.32,-222.35"/>
<polygon fill="midnightblue" stroke="midnightblue" points="2148.78,-225.81 2159.28,-224.44 2150.22,-218.96 2148.78,-225.81"/>
</g>
<!-- Node48&#45;&gt;Node35 -->
<g id="edge53" class="edge">
<title>Node48&#45;&gt;Node35</title>
<path fill="none" stroke="midnightblue" d="M1931.23,-168.37C1934.78,-150.62 1942.97,-109.67 1947.78,-85.6"/>
<polygon fill="midnightblue" stroke="midnightblue" points="1951.25,-86.08 1949.78,-75.59 1944.39,-84.71 1951.25,-86.08"/>
</g>
<!-- Node50&#45;&gt;Node36 -->
<g id="edge55" class="edge">
<title>Node50&#45;&gt;Node36</title>
<path fill="none" stroke="midnightblue" d="M2459.33,-168.08C2459.98,-161.01 2460.92,-150.86 2461.74,-141.99"/>
<polygon fill="midnightblue" stroke="midnightblue" points="2465.25,-142.03 2462.69,-131.75 2458.28,-141.39 2465.25,-142.03"/>
</g>
</g>
</svg>
