<?xml version="1.0" encoding="UTF-8" standalone="no"?>
<!DOCTYPE svg PUBLIC "-//W3C//DTD SVG 1.1//EN"
 "http://www.w3.org/Graphics/SVG/1.1/DTD/svg11.dtd">
<!-- Generated by graphviz version 2.43.0 (0)
 -->
<!-- Title: threshold.c Pages: 1 -->
<svg width="4300pt" height="308pt"
 viewBox="0.00 0.00 4299.57 308.00" xmlns="http://www.w3.org/2000/svg" xmlns:xlink="http://www.w3.org/1999/xlink">
<g id="graph0" class="graph" transform="scale(1 1) rotate(0) translate(4 304)">
<title>threshold.c</title>
<polygon fill="white" stroke="transparent" points="-4,4 -4,-304 4295.57,-304 4295.57,4 -4,4"/>
<!-- Node1 -->
<g id="node1" class="node">
<title>Node1</title>
<g id="a_node1"><a xlink:title=" ">
<polygon fill="#bfbfbf" stroke="black" points="2032.5,-280.5 2032.5,-299.5 2103.5,-299.5 2103.5,-280.5 2032.5,-280.5"/>
<text text-anchor="middle" x="2068" y="-287.5" font-family="FreeSans" font-size="10.00">threshold.c</text>
</a>
</g>
</g>
<!-- Node2 -->
<g id="node2" class="node">
<title>Node2</title>
<g id="a_node2"><a xlink:href="studio_8h.html" target="_top" xlink:title=" ">
<polygon fill="white" stroke="red" points="114.5,-224.5 114.5,-243.5 209.5,-243.5 209.5,-224.5 114.5,-224.5"/>
<text text-anchor="middle" x="162" y="-231.5" font-family="FreeSans" font-size="10.00">magick/studio.h</text>
</a>
</g>
</g>
<!-- Node1&#45;&gt;Node2 -->
<g id="edge1" class="edge">
<title>Node1&#45;&gt;Node2</title>
<path fill="none" stroke="midnightblue" d="M2032.44,-288.78C1810.4,-287.29 611.49,-277.84 219.76,-243.89"/>
<polygon fill="midnightblue" stroke="midnightblue" points="219.8,-240.38 209.53,-242.99 219.18,-247.36 219.8,-240.38"/>
</g>
<!-- Node24 -->
<g id="node7" class="node">
<title>Node24</title>
<g id="a_node7"><a xlink:href="artifact_8h.html" target="_top" xlink:title=" ">
<polygon fill="white" stroke="black" points="228,-224.5 228,-243.5 328,-243.5 328,-224.5 228,-224.5"/>
<text text-anchor="middle" x="278" y="-231.5" font-family="FreeSans" font-size="10.00">magick/artifact.h</text>
</a>
</g>
</g>
<!-- Node1&#45;&gt;Node24 -->
<g id="edge6" class="edge">
<title>Node1&#45;&gt;Node24</title>
<path fill="none" stroke="midnightblue" d="M2032.3,-288.68C1818.42,-286.69 704.18,-275.01 338.24,-243.97"/>
<polygon fill="midnightblue" stroke="midnightblue" points="338.43,-240.47 328.16,-243.09 337.82,-247.44 338.43,-240.47"/>
</g>
<!-- Node25 -->
<g id="node8" class="node">
<title>Node25</title>
<g id="a_node8"><a xlink:href="blob_8h.html" target="_top" xlink:title=" ">
<polygon fill="white" stroke="red" points="346,-224.5 346,-243.5 432,-243.5 432,-224.5 346,-224.5"/>
<text text-anchor="middle" x="389" y="-231.5" font-family="FreeSans" font-size="10.00">magick/blob.h</text>
</a>
</g>
</g>
<!-- Node1&#45;&gt;Node25 -->
<g id="edge7" class="edge">
<title>Node1&#45;&gt;Node25</title>
<path fill="none" stroke="midnightblue" d="M2032.43,-288.71C1826.6,-286.94 785.67,-276.56 442.03,-243.92"/>
<polygon fill="midnightblue" stroke="midnightblue" points="442.36,-240.43 432.06,-242.94 441.68,-247.4 442.36,-240.43"/>
</g>
<!-- Node33 -->
<g id="node9" class="node">
<title>Node33</title>
<g id="a_node9"><a xlink:href="cache-view_8h.html" target="_top" xlink:title=" ">
<polygon fill="white" stroke="red" points="450.5,-224.5 450.5,-243.5 569.5,-243.5 569.5,-224.5 450.5,-224.5"/>
<text text-anchor="middle" x="510" y="-231.5" font-family="FreeSans" font-size="10.00">magick/cache&#45;view.h</text>
</a>
</g>
</g>
<!-- Node1&#45;&gt;Node33 -->
<g id="edge8" class="edge">
<title>Node1&#45;&gt;Node33</title>
<path fill="none" stroke="midnightblue" d="M2032.33,-289.11C1867.26,-289.37 1161.01,-287.75 584,-244 582.69,-243.9 581.37,-243.8 580.05,-243.68"/>
<polygon fill="midnightblue" stroke="midnightblue" points="580.01,-240.17 569.73,-242.74 579.37,-247.14 580.01,-240.17"/>
</g>
<!-- Node27 -->
<g id="node10" class="node">
<title>Node27</title>
<g id="a_node10"><a xlink:href="color_8h.html" target="_top" xlink:title=" ">
<polygon fill="white" stroke="red" points="966,-112.5 966,-131.5 1054,-131.5 1054,-112.5 966,-112.5"/>
<text text-anchor="middle" x="1010" y="-119.5" font-family="FreeSans" font-size="10.00">magick/color.h</text>
</a>
</g>
</g>
<!-- Node1&#45;&gt;Node27 -->
<g id="edge9" class="edge">
<title>Node1&#45;&gt;Node27</title>
<path fill="none" stroke="midnightblue" d="M2032.48,-288.64C1841.08,-286.61 939.41,-275.36 890,-244 859.48,-224.63 839.45,-197.03 861,-168 882.68,-138.8 922.74,-127.87 955.87,-124.06"/>
<polygon fill="midnightblue" stroke="midnightblue" points="956.28,-127.54 965.9,-123.1 955.61,-120.57 956.28,-127.54"/>
</g>
<!-- Node31 -->
<g id="node11" class="node">
<title>Node31</title>
<g id="a_node11"><a xlink:href="exception_8h.html" target="_top" xlink:title=" ">
<polygon fill="white" stroke="red" points="1148.5,-56.5 1148.5,-75.5 1261.5,-75.5 1261.5,-56.5 1148.5,-56.5"/>
<text text-anchor="middle" x="1205" y="-63.5" font-family="FreeSans" font-size="10.00">magick/exception.h</text>
</a>
</g>
</g>
<!-- Node1&#45;&gt;Node31 -->
<g id="edge34" class="edge">
<title>Node1&#45;&gt;Node31</title>
<path fill="none" stroke="midnightblue" d="M2032.3,-289C1822.29,-288.87 754.99,-286.14 701,-244 653.41,-206.86 628.14,-156.43 669,-112 700.15,-78.13 1001.11,-69.74 1137.91,-67.67"/>
<polygon fill="midnightblue" stroke="midnightblue" points="1138.31,-71.17 1148.26,-67.52 1138.21,-64.17 1138.31,-71.17"/>
</g>
<!-- Node51 -->
<g id="node12" class="node">
<title>Node51</title>
<g id="a_node12"><a xlink:href="color-private_8h.html" target="_top" xlink:title=" ">
<polygon fill="white" stroke="red" points="1602.5,-224.5 1602.5,-243.5 1729.5,-243.5 1729.5,-224.5 1602.5,-224.5"/>
<text text-anchor="middle" x="1666" y="-231.5" font-family="FreeSans" font-size="10.00">magick/color&#45;private.h</text>
</a>
</g>
</g>
<!-- Node1&#45;&gt;Node51 -->
<g id="edge12" class="edge">
<title>Node1&#45;&gt;Node51</title>
<path fill="none" stroke="midnightblue" d="M2032.33,-284.21C1966.8,-275.41 1826.06,-256.5 1739.37,-244.86"/>
<polygon fill="midnightblue" stroke="midnightblue" points="1739.71,-241.37 1729.33,-243.51 1738.77,-248.31 1739.71,-241.37"/>
</g>
<!-- Node52 -->
<g id="node13" class="node">
<title>Node52</title>
<g id="a_node13"><a xlink:href="image-private_8h.html" target="_top" xlink:title=" ">
<polygon fill="white" stroke="black" points="1539,-112.5 1539,-131.5 1673,-131.5 1673,-112.5 1539,-112.5"/>
<text text-anchor="middle" x="1606" y="-119.5" font-family="FreeSans" font-size="10.00">magick/image&#45;private.h</text>
</a>
</g>
</g>
<!-- Node1&#45;&gt;Node52 -->
<g id="edge43" class="edge">
<title>Node1&#45;&gt;Node52</title>
<path fill="none" stroke="midnightblue" d="M2032.44,-288.49C1873.87,-286.04 1237.78,-274.33 1209,-244 1113.19,-143.04 1388,-125.55 1528.68,-123.04"/>
<polygon fill="midnightblue" stroke="midnightblue" points="1529.03,-126.54 1538.98,-122.88 1528.92,-119.54 1529.03,-126.54"/>
</g>
<!-- Node53 -->
<g id="node14" class="node">
<title>Node53</title>
<g id="a_node14"><a xlink:href="colorspace-private_8h.html" target="_top" xlink:title=" ">
<polygon fill="white" stroke="red" points="1634.5,-168.5 1634.5,-187.5 1789.5,-187.5 1789.5,-168.5 1634.5,-168.5"/>
<text text-anchor="middle" x="1712" y="-175.5" font-family="FreeSans" font-size="10.00">magick/colorspace&#45;private.h</text>
</a>
</g>
</g>
<!-- Node1&#45;&gt;Node53 -->
<g id="edge26" class="edge">
<title>Node1&#45;&gt;Node53</title>
<path fill="none" stroke="midnightblue" d="M2032.32,-286.26C1964.79,-280.63 1821.11,-266.37 1777,-244 1754.87,-232.78 1735.64,-211.21 1723.96,-196"/>
<polygon fill="midnightblue" stroke="midnightblue" points="1726.74,-193.88 1717.98,-187.91 1721.11,-198.03 1726.74,-193.88"/>
</g>
<!-- Node60 -->
<g id="node15" class="node">
<title>Node60</title>
<g id="a_node15"><a xlink:href="exception-private_8h.html" target="_top" xlink:title=" ">
<polygon fill="white" stroke="red" points="2258.5,-168.5 2258.5,-187.5 2409.5,-187.5 2409.5,-168.5 2258.5,-168.5"/>
<text text-anchor="middle" x="2334" y="-175.5" font-family="FreeSans" font-size="10.00">magick/exception&#45;private.h</text>
</a>
</g>
</g>
<!-- Node1&#45;&gt;Node60 -->
<g id="edge35" class="edge">
<title>Node1&#45;&gt;Node60</title>
<path fill="none" stroke="midnightblue" d="M2103.75,-288.64C2171.09,-287.13 2312.69,-279.67 2343,-244 2353.92,-231.15 2349.2,-211.42 2343.28,-197.07"/>
<polygon fill="midnightblue" stroke="midnightblue" points="2346.34,-195.34 2338.96,-187.74 2339.98,-198.29 2346.34,-195.34"/>
</g>
<!-- Node61 -->
<g id="node16" class="node">
<title>Node61</title>
<g id="a_node16"><a xlink:href="log_8h.html" target="_top" xlink:title=" ">
<polygon fill="white" stroke="black" points="1854,-112.5 1854,-131.5 1934,-131.5 1934,-112.5 1854,-112.5"/>
<text text-anchor="middle" x="1894" y="-119.5" font-family="FreeSans" font-size="10.00">magick/log.h</text>
</a>
</g>
</g>
<!-- Node1&#45;&gt;Node61 -->
<g id="edge45" class="edge">
<title>Node1&#45;&gt;Node61</title>
<path fill="none" stroke="midnightblue" d="M2060.98,-280.25C2050.57,-267.43 2030.18,-243.03 2011,-224 1978.26,-191.51 1936.74,-157.12 1912.99,-138.02"/>
<polygon fill="midnightblue" stroke="midnightblue" points="1915.09,-135.22 1905.09,-131.71 1910.72,-140.69 1915.09,-135.22"/>
</g>
<!-- Node44 -->
<g id="node17" class="node">
<title>Node44</title>
<g id="a_node17"><a xlink:href="string___8h.html" target="_top" xlink:title=" ">
<polygon fill="white" stroke="red" points="2802,-112.5 2802,-131.5 2900,-131.5 2900,-112.5 2802,-112.5"/>
<text text-anchor="middle" x="2851" y="-119.5" font-family="FreeSans" font-size="10.00">magick/string_.h</text>
</a>
</g>
</g>
<!-- Node1&#45;&gt;Node44 -->
<g id="edge70" class="edge">
<title>Node1&#45;&gt;Node44</title>
<path fill="none" stroke="midnightblue" d="M2103.63,-289.12C2305.18,-289.6 3294.94,-289.65 3339,-244 3400.88,-179.9 3053.75,-141.09 2910.58,-127.99"/>
<polygon fill="midnightblue" stroke="midnightblue" points="2910.5,-124.47 2900.22,-127.06 2909.87,-131.44 2910.5,-124.47"/>
</g>
<!-- Node63 -->
<g id="node18" class="node">
<title>Node63</title>
<g id="a_node18"><a xlink:href="colormap_8h.html" target="_top" xlink:title=" ">
<polygon fill="white" stroke="black" points="1052,-224.5 1052,-243.5 1162,-243.5 1162,-224.5 1052,-224.5"/>
<text text-anchor="middle" x="1107" y="-231.5" font-family="FreeSans" font-size="10.00">magick/colormap.h</text>
</a>
</g>
</g>
<!-- Node1&#45;&gt;Node63 -->
<g id="edge24" class="edge">
<title>Node1&#45;&gt;Node63</title>
<path fill="none" stroke="midnightblue" d="M2032.24,-288.21C1911.51,-285.34 1508.02,-273.98 1176,-244 1174.89,-243.9 1173.76,-243.79 1172.63,-243.69"/>
<polygon fill="midnightblue" stroke="midnightblue" points="1172.63,-240.17 1162.32,-242.61 1171.9,-247.13 1172.63,-240.17"/>
</g>
<!-- Node29 -->
<g id="node19" class="node">
<title>Node29</title>
<g id="a_node19"><a xlink:href="colorspace_8h.html" target="_top" xlink:title=" ">
<polygon fill="white" stroke="black" points="3006.5,-168.5 3006.5,-187.5 3123.5,-187.5 3123.5,-168.5 3006.5,-168.5"/>
<text text-anchor="middle" x="3065" y="-175.5" font-family="FreeSans" font-size="10.00">magick/colorspace.h</text>
</a>
</g>
</g>
<!-- Node1&#45;&gt;Node29 -->
<g id="edge25" class="edge">
<title>Node1&#45;&gt;Node29</title>
<path fill="none" stroke="midnightblue" d="M2103.5,-288.88C2285.95,-288.12 3111.04,-282.53 3148,-244 3167.95,-223.2 3131.96,-203.4 3101.29,-191.23"/>
<polygon fill="midnightblue" stroke="midnightblue" points="3102.19,-187.83 3091.6,-187.56 3099.71,-194.38 3102.19,-187.83"/>
</g>
<!-- Node64 -->
<g id="node20" class="node">
<title>Node64</title>
<g id="a_node20"><a xlink:href="configure_8h.html" target="_top" xlink:title=" ">
<polygon fill="white" stroke="red" points="1218,-224.5 1218,-243.5 1328,-243.5 1328,-224.5 1218,-224.5"/>
<text text-anchor="middle" x="1273" y="-231.5" font-family="FreeSans" font-size="10.00">magick/configure.h</text>
</a>
</g>
</g>
<!-- Node1&#45;&gt;Node64 -->
<g id="edge27" class="edge">
<title>Node1&#45;&gt;Node64</title>
<path fill="none" stroke="midnightblue" d="M2032.17,-287.79C1927.2,-284.03 1611.14,-271.2 1338.22,-244.04"/>
<polygon fill="midnightblue" stroke="midnightblue" points="1338.42,-240.55 1328.12,-243.03 1337.73,-247.51 1338.42,-240.55"/>
</g>
<!-- Node30 -->
<g id="node21" class="node">
<title>Node30</title>
<g id="a_node21"><a xlink:href="constitute_8h.html" target="_top" xlink:title=" ">
<polygon fill="white" stroke="black" points="1346.5,-224.5 1346.5,-243.5 1459.5,-243.5 1459.5,-224.5 1346.5,-224.5"/>
<text text-anchor="middle" x="1403" y="-231.5" font-family="FreeSans" font-size="10.00">magick/constitute.h</text>
</a>
</g>
</g>
<!-- Node1&#45;&gt;Node30 -->
<g id="edge28" class="edge">
<title>Node1&#45;&gt;Node30</title>
<path fill="none" stroke="midnightblue" d="M2032.43,-287.11C1940.88,-282.09 1689.48,-267.25 1469.8,-244.13"/>
<polygon fill="midnightblue" stroke="midnightblue" points="1470.01,-240.64 1459.69,-243.06 1469.27,-247.6 1470.01,-240.64"/>
</g>
<!-- Node65 -->
<g id="node22" class="node">
<title>Node65</title>
<g id="a_node22"><a xlink:href="decorate_8h.html" target="_top" xlink:title=" ">
<polygon fill="white" stroke="black" points="1477.5,-224.5 1477.5,-243.5 1584.5,-243.5 1584.5,-224.5 1477.5,-224.5"/>
<text text-anchor="middle" x="1531" y="-231.5" font-family="FreeSans" font-size="10.00">magick/decorate.h</text>
</a>
</g>
</g>
<!-- Node1&#45;&gt;Node65 -->
<g id="edge29" class="edge">
<title>Node1&#45;&gt;Node65</title>
<path fill="none" stroke="midnightblue" d="M2032.48,-286.24C1954.95,-280.09 1764.51,-264.28 1594.86,-244.18"/>
<polygon fill="midnightblue" stroke="midnightblue" points="1595.09,-240.68 1584.75,-242.97 1594.26,-247.63 1595.09,-240.68"/>
</g>
<!-- Node58 -->
<g id="node23" class="node">
<title>Node58</title>
<g id="a_node23"><a xlink:href="draw_8h.html" target="_top" xlink:title=" ">
<polygon fill="white" stroke="red" points="714,-168.5 714,-187.5 802,-187.5 802,-168.5 714,-168.5"/>
<text text-anchor="middle" x="758" y="-175.5" font-family="FreeSans" font-size="10.00">magick/draw.h</text>
</a>
</g>
</g>
<!-- Node1&#45;&gt;Node58 -->
<g id="edge30" class="edge">
<title>Node1&#45;&gt;Node58</title>
<path fill="none" stroke="midnightblue" d="M2032.23,-289.18C1824.18,-290.07 777.51,-292.11 731,-244 717.94,-230.49 730.32,-209.75 742.28,-195.34"/>
<polygon fill="midnightblue" stroke="midnightblue" points="745.05,-197.49 749.09,-187.7 739.82,-192.84 745.05,-197.49"/>
</g>
<!-- Node38 -->
<g id="node24" class="node">
<title>Node38</title>
<g id="a_node24"><a xlink:href="geometry_8h.html" target="_top" xlink:title=" ">
<polygon fill="white" stroke="black" points="678,-112.5 678,-131.5 788,-131.5 788,-112.5 678,-112.5"/>
<text text-anchor="middle" x="733" y="-119.5" font-family="FreeSans" font-size="10.00">magick/geometry.h</text>
</a>
</g>
</g>
<!-- Node1&#45;&gt;Node38 -->
<g id="edge42" class="edge">
<title>Node1&#45;&gt;Node38</title>
<path fill="none" stroke="midnightblue" d="M2032.19,-288.97C1823.85,-288.65 775.44,-285.02 722,-244 694.55,-222.92 695.49,-201.28 705,-168 707.9,-157.84 713.83,-147.75 719.49,-139.7"/>
<polygon fill="midnightblue" stroke="midnightblue" points="722.38,-141.69 725.59,-131.59 716.78,-137.48 722.38,-141.69"/>
</g>
<!-- Node66 -->
<g id="node25" class="node">
<title>Node66</title>
<g id="a_node25"><a xlink:href="enhance_8h.html" target="_top" xlink:title=" ">
<polygon fill="white" stroke="red" points="1786,-224.5 1786,-243.5 1892,-243.5 1892,-224.5 1786,-224.5"/>
<text text-anchor="middle" x="1839" y="-231.5" font-family="FreeSans" font-size="10.00">magick/enhance.h</text>
</a>
</g>
</g>
<!-- Node1&#45;&gt;Node66 -->
<g id="edge33" class="edge">
<title>Node1&#45;&gt;Node66</title>
<path fill="none" stroke="midnightblue" d="M2032.22,-280.56C1992.54,-271.21 1928.42,-256.08 1885.03,-245.85"/>
<polygon fill="midnightblue" stroke="midnightblue" points="1885.82,-242.45 1875.29,-243.56 1884.22,-249.26 1885.82,-242.45"/>
</g>
<!-- Node36 -->
<g id="node26" class="node">
<title>Node36</title>
<g id="a_node26"><a xlink:href="effect_8h.html" target="_top" xlink:title=" ">
<polygon fill="white" stroke="red" points="1910,-224.5 1910,-243.5 2002,-243.5 2002,-224.5 1910,-224.5"/>
<text text-anchor="middle" x="1956" y="-231.5" font-family="FreeSans" font-size="10.00">magick/effect.h</text>
</a>
</g>
</g>
<!-- Node1&#45;&gt;Node36 -->
<g id="edge36" class="edge">
<title>Node1&#45;&gt;Node36</title>
<path fill="none" stroke="midnightblue" d="M2050.01,-280.32C2031.96,-271.62 2003.95,-258.12 1983.2,-248.11"/>
<polygon fill="midnightblue" stroke="midnightblue" points="1984.48,-244.84 1973.95,-243.65 1981.44,-251.15 1984.48,-244.84"/>
</g>
<!-- Node67 -->
<g id="node27" class="node">
<title>Node67</title>
<g id="a_node27"><a xlink:href="fx_8h.html" target="_top" xlink:title=" ">
<polygon fill="white" stroke="black" points="740,-224.5 740,-243.5 814,-243.5 814,-224.5 740,-224.5"/>
<text text-anchor="middle" x="777" y="-231.5" font-family="FreeSans" font-size="10.00">magick/fx.h</text>
</a>
</g>
</g>
<!-- Node1&#45;&gt;Node67 -->
<g id="edge37" class="edge">
<title>Node1&#45;&gt;Node67</title>
<path fill="none" stroke="midnightblue" d="M2032.36,-288.37C1855.46,-285.16 1070.74,-269.7 828,-244 826.74,-243.87 825.47,-243.72 824.19,-243.56"/>
<polygon fill="midnightblue" stroke="midnightblue" points="824.63,-240.09 814.24,-242.18 823.66,-247.03 824.63,-240.09"/>
</g>
<!-- Node55 -->
<g id="node28" class="node">
<title>Node55</title>
<g id="a_node28"><a xlink:href="gem_8h.html" target="_top" xlink:title=" ">
<polygon fill="white" stroke="red" points="3782,-224.5 3782,-243.5 3868,-243.5 3868,-224.5 3782,-224.5"/>
<text text-anchor="middle" x="3825" y="-231.5" font-family="FreeSans" font-size="10.00">magick/gem.h</text>
</a>
</g>
</g>
<!-- Node1&#45;&gt;Node55 -->
<g id="edge39" class="edge">
<title>Node1&#45;&gt;Node55</title>
<path fill="none" stroke="midnightblue" d="M2103.52,-288.76C2315.04,-287.26 3411.32,-277.96 3771.75,-243.94"/>
<polygon fill="midnightblue" stroke="midnightblue" points="3772.32,-247.4 3781.94,-242.95 3771.64,-240.43 3772.32,-247.4"/>
</g>
<!-- Node56 -->
<g id="node29" class="node">
<title>Node56</title>
<g id="a_node29"><a xlink:href="random___8h.html" target="_top" xlink:title=" ">
<polygon fill="white" stroke="black" points="3397.5,-168.5 3397.5,-187.5 3504.5,-187.5 3504.5,-168.5 3397.5,-168.5"/>
<text text-anchor="middle" x="3451" y="-175.5" font-family="FreeSans" font-size="10.00">magick/random_.h</text>
</a>
</g>
</g>
<!-- Node1&#45;&gt;Node56 -->
<g id="edge59" class="edge">
<title>Node1&#45;&gt;Node56</title>
<path fill="none" stroke="midnightblue" d="M2103.73,-288.5C2308.15,-285.52 3322.44,-269.5 3383,-244 3406.65,-234.04 3426.89,-211.81 3439,-196.13"/>
<polygon fill="midnightblue" stroke="midnightblue" points="3442.02,-197.92 3445.14,-187.8 3436.39,-193.77 3442.02,-197.92"/>
</g>
<!-- Node68 -->
<g id="node30" class="node">
<title>Node68</title>
<g id="a_node30"><a xlink:href="list_8h.html" target="_top" xlink:title=" ">
<polygon fill="white" stroke="black" points="2254,-224.5 2254,-243.5 2334,-243.5 2334,-224.5 2254,-224.5"/>
<text text-anchor="middle" x="2294" y="-231.5" font-family="FreeSans" font-size="10.00">magick/list.h</text>
</a>
</g>
</g>
<!-- Node1&#45;&gt;Node68 -->
<g id="edge44" class="edge">
<title>Node1&#45;&gt;Node68</title>
<path fill="none" stroke="midnightblue" d="M2103.56,-280.5C2142.69,-271.15 2205.68,-256.1 2248.41,-245.89"/>
<polygon fill="midnightblue" stroke="midnightblue" points="2249.36,-249.26 2258.27,-243.54 2247.73,-242.46 2249.36,-249.26"/>
</g>
<!-- Node69 -->
<g id="node31" class="node">
<title>Node69</title>
<g id="a_node31"><a xlink:href="memory___8h.html" target="_top" xlink:title=" ">
<polygon fill="white" stroke="red" points="870.5,-168.5 870.5,-187.5 981.5,-187.5 981.5,-168.5 870.5,-168.5"/>
<text text-anchor="middle" x="926" y="-175.5" font-family="FreeSans" font-size="10.00">magick/memory_.h</text>
</a>
</g>
</g>
<!-- Node1&#45;&gt;Node69 -->
<g id="edge46" class="edge">
<title>Node1&#45;&gt;Node69</title>
<path fill="none" stroke="midnightblue" d="M2032.45,-289C1840.95,-288.84 939.27,-285.85 899,-244 885.97,-230.46 898.34,-209.72 910.3,-195.33"/>
<polygon fill="midnightblue" stroke="midnightblue" points="913.06,-197.49 917.09,-187.69 907.83,-192.83 913.06,-197.49"/>
</g>
<!-- Node42 -->
<g id="node32" class="node">
<title>Node42</title>
<g id="a_node32"><a xlink:href="monitor_8h.html" target="_top" xlink:title=" ">
<polygon fill="white" stroke="black" points="2390,-224.5 2390,-243.5 2492,-243.5 2492,-224.5 2390,-224.5"/>
<text text-anchor="middle" x="2441" y="-231.5" font-family="FreeSans" font-size="10.00">magick/monitor.h</text>
</a>
</g>
</g>
<!-- Node1&#45;&gt;Node42 -->
<g id="edge47" class="edge">
<title>Node1&#45;&gt;Node42</title>
<path fill="none" stroke="midnightblue" d="M2103.76,-283.82C2167.37,-274.61 2300.85,-255.29 2379.46,-243.91"/>
<polygon fill="midnightblue" stroke="midnightblue" points="2380.31,-247.32 2389.71,-242.43 2379.31,-240.39 2380.31,-247.32"/>
</g>
<!-- Node70 -->
<g id="node33" class="node">
<title>Node70</title>
<g id="a_node33"><a xlink:href="monitor-private_8h.html" target="_top" xlink:title=" ">
<polygon fill="white" stroke="black" points="2510.5,-224.5 2510.5,-243.5 2651.5,-243.5 2651.5,-224.5 2510.5,-224.5"/>
<text text-anchor="middle" x="2581" y="-231.5" font-family="FreeSans" font-size="10.00">magick/monitor&#45;private.h</text>
</a>
</g>
</g>
<!-- Node1&#45;&gt;Node70 -->
<g id="edge48" class="edge">
<title>Node1&#45;&gt;Node70</title>
<path fill="none" stroke="midnightblue" d="M2103.65,-285.4C2176.11,-278.06 2346.03,-260.72 2500.2,-244.08"/>
<polygon fill="midnightblue" stroke="midnightblue" points="2500.77,-247.54 2510.33,-242.98 2500.02,-240.58 2500.77,-247.54"/>
</g>
<!-- Node71 -->
<g id="node34" class="node">
<title>Node71</title>
<g id="a_node34"><a xlink:href="montage_8h.html" target="_top" xlink:title=" ">
<polygon fill="white" stroke="black" points="2670,-224.5 2670,-243.5 2778,-243.5 2778,-224.5 2670,-224.5"/>
<text text-anchor="middle" x="2724" y="-231.5" font-family="FreeSans" font-size="10.00">magick/montage.h</text>
</a>
</g>
</g>
<!-- Node1&#45;&gt;Node71 -->
<g id="edge49" class="edge">
<title>Node1&#45;&gt;Node71</title>
<path fill="none" stroke="midnightblue" d="M2103.77,-287.08C2194.66,-282.03 2442.03,-267.22 2659.89,-243.93"/>
<polygon fill="midnightblue" stroke="midnightblue" points="2660.34,-247.4 2669.91,-242.85 2659.59,-240.45 2660.34,-247.4"/>
</g>
<!-- Node72 -->
<g id="node35" class="node">
<title>Node72</title>
<g id="a_node35"><a xlink:href="option_8h.html" target="_top" xlink:title=" ">
<polygon fill="white" stroke="black" points="2796.5,-224.5 2796.5,-243.5 2891.5,-243.5 2891.5,-224.5 2796.5,-224.5"/>
<text text-anchor="middle" x="2844" y="-231.5" font-family="FreeSans" font-size="10.00">magick/option.h</text>
</a>
</g>
</g>
<!-- Node1&#45;&gt;Node72 -->
<g id="edge50" class="edge">
<title>Node1&#45;&gt;Node72</title>
<path fill="none" stroke="midnightblue" d="M2103.64,-287.96C2207.27,-284.67 2517.6,-273.05 2786.12,-243.98"/>
<polygon fill="midnightblue" stroke="midnightblue" points="2786.9,-247.42 2796.46,-242.85 2786.14,-240.46 2786.9,-247.42"/>
</g>
<!-- Node73 -->
<g id="node36" class="node">
<title>Node73</title>
<g id="a_node36"><a xlink:href="pixel-private_8h.html" target="_top" xlink:title=" ">
<polygon fill="white" stroke="red" points="908,-224.5 908,-243.5 1034,-243.5 1034,-224.5 908,-224.5"/>
<text text-anchor="middle" x="971" y="-231.5" font-family="FreeSans" font-size="10.00">magick/pixel&#45;private.h</text>
</a>
</g>
</g>
<!-- Node1&#45;&gt;Node73 -->
<g id="edge51" class="edge">
<title>Node1&#45;&gt;Node73</title>
<path fill="none" stroke="midnightblue" d="M2032.07,-288.47C1901.21,-286.31 1437.51,-276.75 1044.34,-244.04"/>
<polygon fill="midnightblue" stroke="midnightblue" points="1044.44,-240.54 1034.19,-243.19 1043.86,-247.51 1044.44,-240.54"/>
</g>
<!-- Node76 -->
<g id="node37" class="node">
<title>Node76</title>
<g id="a_node37"><a xlink:href="property_8h.html" target="_top" xlink:title=" ">
<polygon fill="white" stroke="black" points="3035,-224.5 3035,-243.5 3139,-243.5 3139,-224.5 3035,-224.5"/>
<text text-anchor="middle" x="3087" y="-231.5" font-family="FreeSans" font-size="10.00">magick/property.h</text>
</a>
</g>
</g>
<!-- Node1&#45;&gt;Node76 -->
<g id="edge55" class="edge">
<title>Node1&#45;&gt;Node76</title>
<path fill="none" stroke="midnightblue" d="M2103.72,-288.57C2229.92,-286.79 2666.54,-278.36 3025,-244 3025.1,-243.99 3025.2,-243.98 3025.3,-243.97"/>
<polygon fill="midnightblue" stroke="midnightblue" points="3025.38,-247.48 3034.95,-242.93 3024.63,-240.52 3025.38,-247.48"/>
</g>
<!-- Node77 -->
<g id="node38" class="node">
<title>Node77</title>
<g id="a_node38"><a xlink:href="quantize_8h.html" target="_top" xlink:title=" ">
<polygon fill="white" stroke="black" points="2909.5,-224.5 2909.5,-243.5 3016.5,-243.5 3016.5,-224.5 2909.5,-224.5"/>
<text text-anchor="middle" x="2963" y="-231.5" font-family="FreeSans" font-size="10.00">magick/quantize.h</text>
</a>
</g>
</g>
<!-- Node1&#45;&gt;Node77 -->
<g id="edge56" class="edge">
<title>Node1&#45;&gt;Node77</title>
<path fill="none" stroke="midnightblue" d="M2103.77,-288.19C2218.03,-285.36 2584.65,-274.45 2899.19,-243.98"/>
<polygon fill="midnightblue" stroke="midnightblue" points="2899.81,-247.44 2909.42,-242.98 2899.13,-240.47 2899.81,-247.44"/>
</g>
<!-- Node45 -->
<g id="node39" class="node">
<title>Node45</title>
<g id="a_node39"><a xlink:href="quantum_8h.html" target="_top" xlink:title=" ">
<polygon fill="white" stroke="red" points="3195,-224.5 3195,-243.5 3303,-243.5 3303,-224.5 3195,-224.5"/>
<text text-anchor="middle" x="3249" y="-231.5" font-family="FreeSans" font-size="10.00">magick/quantum.h</text>
</a>
</g>
</g>
<!-- Node1&#45;&gt;Node45 -->
<g id="edge58" class="edge">
<title>Node1&#45;&gt;Node45</title>
<path fill="none" stroke="midnightblue" d="M2103.63,-288.74C2242.16,-287.48 2758.08,-280.46 3181,-244 3182.27,-243.89 3183.55,-243.77 3184.84,-243.65"/>
<polygon fill="midnightblue" stroke="midnightblue" points="3185.27,-247.13 3194.86,-242.62 3184.55,-240.16 3185.27,-247.13"/>
</g>
<!-- Node78 -->
<g id="node40" class="node">
<title>Node78</title>
<g id="a_node40"><a xlink:href="random-private_8h.html" target="_top" xlink:title=" ">
<polygon fill="white" stroke="black" points="2096,-224.5 2096,-243.5 2236,-243.5 2236,-224.5 2096,-224.5"/>
<text text-anchor="middle" x="2166" y="-231.5" font-family="FreeSans" font-size="10.00">magick/random&#45;private.h</text>
</a>
</g>
</g>
<!-- Node1&#45;&gt;Node78 -->
<g id="edge60" class="edge">
<title>Node1&#45;&gt;Node78</title>
<path fill="none" stroke="midnightblue" d="M2083.75,-280.32C2099.32,-271.74 2123.38,-258.49 2141.46,-248.52"/>
<polygon fill="midnightblue" stroke="midnightblue" points="2143.22,-251.55 2150.29,-243.65 2139.85,-245.42 2143.22,-251.55"/>
</g>
<!-- Node79 -->
<g id="node41" class="node">
<title>Node79</title>
<g id="a_node41"><a xlink:href="thread-private_8h.html" target="_top" xlink:title=" ">
<polygon fill="white" stroke="red" points="2078,-168.5 2078,-187.5 2212,-187.5 2212,-168.5 2078,-168.5"/>
<text text-anchor="middle" x="2145" y="-175.5" font-family="FreeSans" font-size="10.00">magick/thread&#45;private.h</text>
</a>
</g>
</g>
<!-- Node1&#45;&gt;Node79 -->
<g id="edge72" class="edge">
<title>Node1&#45;&gt;Node79</title>
<path fill="none" stroke="midnightblue" d="M2068.83,-280.28C2070.44,-267.08 2074.96,-241.69 2087,-224 2095.57,-211.41 2108.78,-200.76 2120.43,-192.99"/>
<polygon fill="midnightblue" stroke="midnightblue" points="2122.35,-195.93 2128.94,-187.63 2118.61,-190.01 2122.35,-195.93"/>
</g>
<!-- Node80 -->
<g id="node42" class="node">
<title>Node80</title>
<g id="a_node42"><a xlink:href="resource___8h.html" target="_top" xlink:title=" ">
<polygon fill="white" stroke="black" points="2663,-112.5 2663,-131.5 2775,-131.5 2775,-112.5 2663,-112.5"/>
<text text-anchor="middle" x="2719" y="-119.5" font-family="FreeSans" font-size="10.00">magick/resource_.h</text>
</a>
</g>
</g>
<!-- Node1&#45;&gt;Node80 -->
<g id="edge65" class="edge">
<title>Node1&#45;&gt;Node80</title>
<path fill="none" stroke="midnightblue" d="M2103.52,-289.09C2302.25,-289.41 3268.94,-288.65 3312,-244 3398.2,-154.62 3694.23,-284.31 3133,-168 2984.21,-137.16 2943.98,-149.17 2793,-132 2790.47,-131.71 2787.89,-131.42 2785.28,-131.11"/>
<polygon fill="midnightblue" stroke="midnightblue" points="2785.49,-127.61 2775.15,-129.92 2784.67,-134.57 2785.49,-127.61"/>
</g>
<!-- Node48 -->
<g id="node43" class="node">
<title>Node48</title>
<g id="a_node43"><a xlink:href="resize_8h.html" target="_top" xlink:title=" ">
<polygon fill="white" stroke="black" points="3435,-224.5 3435,-243.5 3529,-243.5 3529,-224.5 3435,-224.5"/>
<text text-anchor="middle" x="3482" y="-231.5" font-family="FreeSans" font-size="10.00">magick/resize.h</text>
</a>
</g>
</g>
<!-- Node1&#45;&gt;Node48 -->
<g id="edge64" class="edge">
<title>Node1&#45;&gt;Node48</title>
<path fill="none" stroke="midnightblue" d="M2103.63,-289.29C2259.76,-290.27 2899.01,-291.04 3421,-244 3422.26,-243.89 3423.53,-243.76 3424.82,-243.63"/>
<polygon fill="midnightblue" stroke="midnightblue" points="3425.23,-247.11 3434.77,-242.51 3424.44,-240.15 3425.23,-247.11"/>
</g>
<!-- Node82 -->
<g id="node44" class="node">
<title>Node82</title>
<g id="a_node44"><a xlink:href="segment_8h.html" target="_top" xlink:title=" ">
<polygon fill="white" stroke="black" points="3547.5,-224.5 3547.5,-243.5 3654.5,-243.5 3654.5,-224.5 3547.5,-224.5"/>
<text text-anchor="middle" x="3601" y="-231.5" font-family="FreeSans" font-size="10.00">magick/segment.h</text>
</a>
</g>
</g>
<!-- Node1&#45;&gt;Node82 -->
<g id="edge66" class="edge">
<title>Node1&#45;&gt;Node82</title>
<path fill="none" stroke="midnightblue" d="M2103.63,-289.37C2266.78,-290.75 2959.06,-293.32 3537.22,-243.94"/>
<polygon fill="midnightblue" stroke="midnightblue" points="3537.77,-247.41 3547.43,-243.07 3537.17,-240.44 3537.77,-247.41"/>
</g>
<!-- Node83 -->
<g id="node45" class="node">
<title>Node83</title>
<g id="a_node45"><a xlink:href="shear_8h.html" target="_top" xlink:title=" ">
<polygon fill="white" stroke="black" points="3672.5,-224.5 3672.5,-243.5 3763.5,-243.5 3763.5,-224.5 3672.5,-224.5"/>
<text text-anchor="middle" x="3718" y="-231.5" font-family="FreeSans" font-size="10.00">magick/shear.h</text>
</a>
</g>
</g>
<!-- Node1&#45;&gt;Node83 -->
<g id="edge67" class="edge">
<title>Node1&#45;&gt;Node83</title>
<path fill="none" stroke="midnightblue" d="M2103.55,-288.66C2306.92,-286.62 3325.18,-275.04 3662.14,-244.02"/>
<polygon fill="midnightblue" stroke="midnightblue" points="3662.77,-247.48 3672.39,-243.05 3662.11,-240.51 3662.77,-247.48"/>
</g>
<!-- Node84 -->
<g id="node46" class="node">
<title>Node84</title>
<g id="a_node46"><a xlink:href="signature-private_8h.html" target="_top" xlink:title=" ">
<polygon fill="white" stroke="black" points="3876.5,-168.5 3876.5,-187.5 4025.5,-187.5 4025.5,-168.5 3876.5,-168.5"/>
<text text-anchor="middle" x="3951" y="-175.5" font-family="FreeSans" font-size="10.00">magick/signature&#45;private.h</text>
</a>
</g>
</g>
<!-- Node1&#45;&gt;Node84 -->
<g id="edge68" class="edge">
<title>Node1&#45;&gt;Node84</title>
<path fill="none" stroke="midnightblue" d="M2103.52,-288.97C2385.14,-288.61 4247.12,-284.7 4287,-244 4293.22,-237.65 4292.85,-230.69 4287,-224 4255,-187.43 4124.47,-179.31 4035.85,-178.16"/>
<polygon fill="midnightblue" stroke="midnightblue" points="4035.83,-174.66 4025.79,-178.06 4035.76,-181.66 4035.83,-174.66"/>
</g>
<!-- Node85 -->
<g id="node47" class="node">
<title>Node85</title>
<g id="a_node47"><a xlink:href="string-private_8h.html" target="_top" xlink:title=" ">
<polygon fill="white" stroke="red" points="3886.5,-224.5 3886.5,-243.5 4017.5,-243.5 4017.5,-224.5 3886.5,-224.5"/>
<text text-anchor="middle" x="3952" y="-231.5" font-family="FreeSans" font-size="10.00">magick/string&#45;private.h</text>
</a>
</g>
</g>
<!-- Node1&#45;&gt;Node85 -->
<g id="edge71" class="edge">
<title>Node1&#45;&gt;Node85</title>
<path fill="none" stroke="midnightblue" d="M2103.85,-288.57C2323.75,-285.87 3493.1,-270.52 3876.18,-243.96"/>
<polygon fill="midnightblue" stroke="midnightblue" points="3876.46,-247.45 3886.18,-243.25 3875.96,-240.47 3876.46,-247.45"/>
</g>
<!-- Node87 -->
<g id="node48" class="node">
<title>Node87</title>
<g id="a_node48"><a xlink:href="threshold_8h.html" target="_top" xlink:title=" ">
<polygon fill="white" stroke="black" points="4036,-224.5 4036,-243.5 4146,-243.5 4146,-224.5 4036,-224.5"/>
<text text-anchor="middle" x="4091" y="-231.5" font-family="FreeSans" font-size="10.00">magick/threshold.h</text>
</a>
</g>
</g>
<!-- Node1&#45;&gt;Node87 -->
<g id="edge73" class="edge">
<title>Node1&#45;&gt;Node87</title>
<path fill="none" stroke="midnightblue" d="M2103.78,-288.75C2334.07,-287.05 3610.96,-276.35 4025.66,-243.98"/>
<polygon fill="midnightblue" stroke="midnightblue" points="4026.2,-247.45 4035.89,-243.17 4025.64,-240.47 4026.2,-247.45"/>
</g>
<!-- Node88 -->
<g id="node49" class="node">
<title>Node88</title>
<g id="a_node49"><a xlink:href="transform_8h.html" target="_top" xlink:title=" ">
<polygon fill="white" stroke="black" points="4164.5,-224.5 4164.5,-243.5 4277.5,-243.5 4277.5,-224.5 4164.5,-224.5"/>
<text text-anchor="middle" x="4221" y="-231.5" font-family="FreeSans" font-size="10.00">magick/transform.h</text>
</a>
</g>
</g>
<!-- Node1&#45;&gt;Node88 -->
<g id="edge74" class="edge">
<title>Node1&#45;&gt;Node88</title>
<path fill="none" stroke="midnightblue" d="M2103.76,-288.79C2342.71,-287.28 3711.56,-277.36 4153.89,-243.96"/>
<polygon fill="midnightblue" stroke="midnightblue" points="4154.46,-247.43 4164.16,-243.17 4153.92,-240.45 4154.46,-247.43"/>
</g>
<!-- Node89 -->
<g id="node50" class="node">
<title>Node89</title>
<g id="a_node50"><a xlink:href="xml-tree_8h.html" target="_top" xlink:title=" ">
<polygon fill="white" stroke="red" points="500.5,-112.5 500.5,-131.5 607.5,-131.5 607.5,-112.5 500.5,-112.5"/>
<text text-anchor="middle" x="554" y="-119.5" font-family="FreeSans" font-size="10.00">magick/xml&#45;tree.h</text>
</a>
</g>
</g>
<!-- Node1&#45;&gt;Node89 -->
<g id="edge75" class="edge">
<title>Node1&#45;&gt;Node89</title>
<path fill="none" stroke="midnightblue" d="M2032.16,-288.88C1815.14,-288 684.12,-281.66 622,-244 584.51,-221.27 565.96,-169.74 558.37,-141.82"/>
<polygon fill="midnightblue" stroke="midnightblue" points="561.67,-140.6 555.83,-131.76 554.88,-142.31 561.67,-140.6"/>
</g>
<!-- Node3 -->
<g id="node3" class="node">
<title>Node3</title>
<g id="a_node3"><a xlink:href="magick-config_8h.html" target="_top" xlink:title=" ">
<polygon fill="white" stroke="red" points="0,-168.5 0,-187.5 134,-187.5 134,-168.5 0,-168.5"/>
<text text-anchor="middle" x="67" y="-175.5" font-family="FreeSans" font-size="10.00">magick/magick&#45;config.h</text>
</a>
</g>
</g>
<!-- Node2&#45;&gt;Node3 -->
<g id="edge2" class="edge">
<title>Node2&#45;&gt;Node3</title>
<path fill="none" stroke="midnightblue" d="M146.74,-224.32C131.78,-215.82 108.75,-202.73 91.27,-192.8"/>
<polygon fill="midnightblue" stroke="midnightblue" points="92.65,-189.55 82.23,-187.65 89.19,-195.64 92.65,-189.55"/>
</g>
<!-- Node5 -->
<g id="node4" class="node">
<title>Node5</title>
<g id="a_node4"><a xlink:title=" ">
<polygon fill="white" stroke="#bfbfbf" points="1453,-0.5 1453,-19.5 1509,-19.5 1509,-0.5 1453,-0.5"/>
<text text-anchor="middle" x="1481" y="-7.5" font-family="FreeSans" font-size="10.00">stdarg.h</text>
</a>
</g>
</g>
<!-- Node2&#45;&gt;Node5 -->
<g id="edge3" class="edge">
<title>Node2&#45;&gt;Node5</title>
<path fill="none" stroke="midnightblue" d="M161.84,-224.36C162.08,-210.31 164.74,-182.62 181,-168 285.09,-74.37 352.37,-131.56 491,-112 860.35,-59.88 1310.86,-23.83 1442.93,-13.82"/>
<polygon fill="midnightblue" stroke="midnightblue" points="1443.24,-17.31 1452.95,-13.07 1442.72,-10.33 1443.24,-17.31"/>
</g>
<!-- Node6 -->
<g id="node5" class="node">
<title>Node6</title>
<g id="a_node5"><a xlink:title=" ">
<polygon fill="white" stroke="#bfbfbf" points="190,-168.5 190,-187.5 240,-187.5 240,-168.5 190,-168.5"/>
<text text-anchor="middle" x="215" y="-175.5" font-family="FreeSans" font-size="10.00">stdio.h</text>
</a>
</g>
</g>
<!-- Node2&#45;&gt;Node6 -->
<g id="edge4" class="edge">
<title>Node2&#45;&gt;Node6</title>
<path fill="none" stroke="midnightblue" d="M170.75,-224.08C178.47,-216.22 189.9,-204.57 199.22,-195.08"/>
<polygon fill="midnightblue" stroke="midnightblue" points="201.9,-197.34 206.41,-187.75 196.91,-192.44 201.9,-197.34"/>
</g>
<!-- Node7 -->
<g id="node6" class="node">
<title>Node7</title>
<g id="a_node6"><a xlink:title=" ">
<polygon fill="white" stroke="#bfbfbf" points="258.5,-168.5 258.5,-187.5 311.5,-187.5 311.5,-168.5 258.5,-168.5"/>
<text text-anchor="middle" x="285" y="-175.5" font-family="FreeSans" font-size="10.00">ctype.h</text>
</a>
</g>
</g>
<!-- Node2&#45;&gt;Node7 -->
<g id="edge5" class="edge">
<title>Node2&#45;&gt;Node7</title>
<path fill="none" stroke="midnightblue" d="M181.49,-224.44C201.64,-215.6 233.32,-201.69 256.33,-191.59"/>
<polygon fill="midnightblue" stroke="midnightblue" points="257.85,-194.74 265.6,-187.52 255.04,-188.33 257.85,-194.74"/>
</g>
<!-- Node27&#45;&gt;Node31 -->
<g id="edge10" class="edge">
<title>Node27&#45;&gt;Node31</title>
<path fill="none" stroke="midnightblue" d="M1040.9,-112.44C1074.27,-103.2 1127.59,-88.44 1164.35,-78.26"/>
<polygon fill="midnightblue" stroke="midnightblue" points="1165.54,-81.56 1174.25,-75.52 1163.67,-74.81 1165.54,-81.56"/>
</g>
<!-- Node31&#45;&gt;Node5 -->
<g id="edge11" class="edge">
<title>Node31&#45;&gt;Node5</title>
<path fill="none" stroke="midnightblue" d="M1248.73,-56.44C1302.2,-45.98 1391.84,-28.45 1442.7,-18.49"/>
<polygon fill="midnightblue" stroke="midnightblue" points="1443.5,-21.9 1452.64,-16.55 1442.15,-15.03 1443.5,-21.9"/>
</g>
<!-- Node51&#45;&gt;Node27 -->
<g id="edge14" class="edge">
<title>Node51&#45;&gt;Node27</title>
<path fill="none" stroke="midnightblue" d="M1615.07,-224.46C1493.85,-204.13 1189.03,-153.02 1064.4,-132.12"/>
<polygon fill="midnightblue" stroke="midnightblue" points="1064.76,-128.63 1054.32,-130.43 1063.6,-135.54 1064.76,-128.63"/>
</g>
<!-- Node51&#45;&gt;Node52 -->
<g id="edge13" class="edge">
<title>Node51&#45;&gt;Node52</title>
<path fill="none" stroke="midnightblue" d="M1655.81,-224.35C1646.53,-215.94 1633.07,-202.38 1625,-188 1616.91,-173.58 1611.97,-155.39 1609.17,-141.92"/>
<polygon fill="midnightblue" stroke="midnightblue" points="1612.57,-141.09 1607.29,-131.91 1605.69,-142.38 1612.57,-141.09"/>
</g>
<!-- Node51&#45;&gt;Node53 -->
<g id="edge15" class="edge">
<title>Node51&#45;&gt;Node53</title>
<path fill="none" stroke="midnightblue" d="M1673.6,-224.08C1680.23,-216.3 1690.02,-204.8 1698.06,-195.37"/>
<polygon fill="midnightblue" stroke="midnightblue" points="1700.73,-197.63 1704.55,-187.75 1695.4,-193.09 1700.73,-197.63"/>
</g>
<!-- Node51&#45;&gt;Node60 -->
<g id="edge17" class="edge">
<title>Node51&#45;&gt;Node60</title>
<path fill="none" stroke="midnightblue" d="M1729.69,-227.83C1745.17,-226.58 1761.68,-225.24 1777,-224 1943.92,-210.49 2138.97,-194.74 2248.33,-185.91"/>
<polygon fill="midnightblue" stroke="midnightblue" points="2248.64,-189.4 2258.32,-185.11 2248.07,-182.42 2248.64,-189.4"/>
</g>
<!-- Node53&#45;&gt;Node52 -->
<g id="edge16" class="edge">
<title>Node53&#45;&gt;Node52</title>
<path fill="none" stroke="midnightblue" d="M1694.97,-168.32C1677.97,-159.66 1651.62,-146.24 1632.01,-136.25"/>
<polygon fill="midnightblue" stroke="midnightblue" points="1633.49,-133.08 1622.99,-131.65 1630.31,-139.31 1633.49,-133.08"/>
</g>
<!-- Node60&#45;&gt;Node61 -->
<g id="edge18" class="edge">
<title>Node60&#45;&gt;Node61</title>
<path fill="none" stroke="midnightblue" d="M2264.28,-168.44C2175.11,-157.5 2022.85,-138.81 1944.25,-129.17"/>
<polygon fill="midnightblue" stroke="midnightblue" points="1944.47,-125.67 1934.12,-127.92 1943.62,-132.62 1944.47,-125.67"/>
</g>
<!-- Node60&#45;&gt;Node44 -->
<g id="edge21" class="edge">
<title>Node60&#45;&gt;Node44</title>
<path fill="none" stroke="midnightblue" d="M2409.72,-170.22C2499.22,-162.02 2652.6,-147.39 2784,-132 2786.64,-131.69 2789.34,-131.37 2792.06,-131.03"/>
<polygon fill="midnightblue" stroke="midnightblue" points="2792.51,-134.5 2801.99,-129.78 2791.63,-127.56 2792.51,-134.5"/>
</g>
<!-- Node61&#45;&gt;Node5 -->
<g id="edge19" class="edge">
<title>Node61&#45;&gt;Node5</title>
<path fill="none" stroke="midnightblue" d="M1861.94,-112.46C1786.78,-92.44 1599.54,-42.57 1518.91,-21.1"/>
<polygon fill="midnightblue" stroke="midnightblue" points="1519.73,-17.69 1509.17,-18.5 1517.93,-24.46 1519.73,-17.69"/>
</g>
<!-- Node61&#45;&gt;Node31 -->
<g id="edge20" class="edge">
<title>Node61&#45;&gt;Node31</title>
<path fill="none" stroke="midnightblue" d="M1853.98,-117.86C1740.22,-108.95 1414.08,-83.39 1272.23,-72.27"/>
<polygon fill="midnightblue" stroke="midnightblue" points="1272.18,-68.75 1261.94,-71.46 1271.63,-75.73 1272.18,-68.75"/>
</g>
<!-- Node44&#45;&gt;Node5 -->
<g id="edge22" class="edge">
<title>Node44&#45;&gt;Node5</title>
<path fill="none" stroke="midnightblue" d="M2801.64,-114.05C2795.7,-113.31 2789.72,-112.61 2784,-112 2284.97,-59.18 1675.66,-22.24 1519.09,-13.17"/>
<polygon fill="midnightblue" stroke="midnightblue" points="1519.2,-9.67 1509.02,-12.59 1518.8,-16.66 1519.2,-9.67"/>
</g>
<!-- Node44&#45;&gt;Node31 -->
<g id="edge23" class="edge">
<title>Node44&#45;&gt;Node31</title>
<path fill="none" stroke="midnightblue" d="M2801.67,-113.78C2795.72,-113.08 2789.73,-112.47 2784,-112 2483.24,-87.58 1532.78,-71.89 1271.84,-67.97"/>
<polygon fill="midnightblue" stroke="midnightblue" points="1271.81,-64.47 1261.76,-67.82 1271.7,-71.47 1271.81,-64.47"/>
</g>
<!-- Node58&#45;&gt;Node27 -->
<g id="edge32" class="edge">
<title>Node58&#45;&gt;Node27</title>
<path fill="none" stroke="midnightblue" d="M797.93,-168.44C841.89,-159.02 912.63,-143.87 960.18,-133.68"/>
<polygon fill="midnightblue" stroke="midnightblue" points="961.21,-137.03 970.26,-131.52 959.75,-130.19 961.21,-137.03"/>
</g>
<!-- Node58&#45;&gt;Node38 -->
<g id="edge31" class="edge">
<title>Node58&#45;&gt;Node38</title>
<path fill="none" stroke="midnightblue" d="M753.87,-168.08C750.49,-160.77 745.58,-150.18 741.38,-141.1"/>
<polygon fill="midnightblue" stroke="midnightblue" points="744.43,-139.36 737.05,-131.75 738.08,-142.3 744.43,-139.36"/>
</g>
<!-- Node67&#45;&gt;Node58 -->
<g id="edge38" class="edge">
<title>Node67&#45;&gt;Node58</title>
<path fill="none" stroke="midnightblue" d="M773.86,-224.08C771.32,-216.85 767.64,-206.41 764.47,-197.4"/>
<polygon fill="midnightblue" stroke="midnightblue" points="767.7,-196.02 761.08,-187.75 761.1,-198.35 767.7,-196.02"/>
</g>
<!-- Node55&#45;&gt;Node56 -->
<g id="edge40" class="edge">
<title>Node55&#45;&gt;Node56</title>
<path fill="none" stroke="midnightblue" d="M3781.89,-225.43C3778.88,-224.93 3775.9,-224.45 3773,-224 3683.54,-210.01 3579.76,-195.88 3514.73,-187.28"/>
<polygon fill="midnightblue" stroke="midnightblue" points="3515.01,-183.79 3504.63,-185.95 3514.09,-190.73 3515.01,-183.79"/>
</g>
<!-- Node56&#45;&gt;Node44 -->
<g id="edge41" class="edge">
<title>Node56&#45;&gt;Node44</title>
<path fill="none" stroke="midnightblue" d="M3397.21,-169.64C3392.41,-169.06 3387.62,-168.5 3383,-168 3211.67,-149.43 3008.6,-134.1 2910.26,-127.09"/>
<polygon fill="midnightblue" stroke="midnightblue" points="2910.44,-123.6 2900.22,-126.38 2909.94,-130.58 2910.44,-123.6"/>
</g>
<!-- Node73&#45;&gt;Node27 -->
<g id="edge52" class="edge">
<title>Node73&#45;&gt;Node27</title>
<path fill="none" stroke="midnightblue" d="M974.9,-224.48C978.94,-215.5 985.3,-200.91 990,-188 995.68,-172.4 1001.15,-154.32 1004.93,-141.2"/>
<polygon fill="midnightblue" stroke="midnightblue" points="1008.32,-142.08 1007.68,-131.5 1001.59,-140.17 1008.32,-142.08"/>
</g>
<!-- Node73&#45;&gt;Node52 -->
<g id="edge53" class="edge">
<title>Node73&#45;&gt;Node52</title>
<path fill="none" stroke="midnightblue" d="M992.75,-224.49C1029.77,-210.37 1107.65,-182.26 1176,-168 1297.75,-142.6 1442.03,-131.23 1528.67,-126.37"/>
<polygon fill="midnightblue" stroke="midnightblue" points="1528.89,-129.86 1538.69,-125.82 1528.51,-122.87 1528.89,-129.86"/>
</g>
<!-- Node73&#45;&gt;Node69 -->
<g id="edge54" class="edge">
<title>Node73&#45;&gt;Node69</title>
<path fill="none" stroke="midnightblue" d="M963.57,-224.08C957.15,-216.38 947.69,-205.03 939.88,-195.65"/>
<polygon fill="midnightblue" stroke="midnightblue" points="942.38,-193.19 933.29,-187.75 937.01,-197.67 942.38,-193.19"/>
</g>
<!-- Node77&#45;&gt;Node29 -->
<g id="edge57" class="edge">
<title>Node77&#45;&gt;Node29</title>
<path fill="none" stroke="midnightblue" d="M2979.39,-224.32C2995.67,-215.7 3020.87,-202.36 3039.72,-192.39"/>
<polygon fill="midnightblue" stroke="midnightblue" points="3041.45,-195.43 3048.65,-187.65 3038.18,-189.24 3041.45,-195.43"/>
</g>
<!-- Node78&#45;&gt;Node79 -->
<g id="edge61" class="edge">
<title>Node78&#45;&gt;Node79</title>
<path fill="none" stroke="midnightblue" d="M2162.53,-224.08C2159.69,-216.77 2155.57,-206.18 2152.04,-197.1"/>
<polygon fill="midnightblue" stroke="midnightblue" points="2155.29,-195.8 2148.4,-187.75 2148.77,-198.34 2155.29,-195.8"/>
</g>
<!-- Node79&#45;&gt;Node52 -->
<g id="edge62" class="edge">
<title>Node79&#45;&gt;Node52</title>
<path fill="none" stroke="midnightblue" d="M2077.83,-170.27C1977.49,-160.22 1788.99,-141.33 1683.15,-130.73"/>
<polygon fill="midnightblue" stroke="midnightblue" points="1683.47,-127.24 1673.17,-129.73 1682.77,-134.21 1683.47,-127.24"/>
</g>
<!-- Node79&#45;&gt;Node80 -->
<g id="edge63" class="edge">
<title>Node79&#45;&gt;Node80</title>
<path fill="none" stroke="midnightblue" d="M2212.25,-170.67C2323.06,-160.25 2542.7,-139.59 2652.81,-129.23"/>
<polygon fill="midnightblue" stroke="midnightblue" points="2653.17,-132.71 2662.8,-128.29 2652.51,-125.74 2653.17,-132.71"/>
</g>
<!-- Node84&#45;&gt;Node44 -->
<g id="edge69" class="edge">
<title>Node84&#45;&gt;Node44</title>
<path fill="none" stroke="midnightblue" d="M3876.26,-173.33C3670.17,-163.21 3096.78,-135.07 2910.37,-125.91"/>
<polygon fill="midnightblue" stroke="midnightblue" points="2910.38,-122.41 2900.22,-125.42 2910.04,-129.4 2910.38,-122.41"/>
</g>
<!-- Node89&#45;&gt;Node31 -->
<g id="edge76" class="edge">
<title>Node89&#45;&gt;Node31</title>
<path fill="none" stroke="midnightblue" d="M607.79,-113.61C612.59,-113.03 617.38,-112.48 622,-112 808.57,-92.47 1029.56,-77.69 1138.07,-70.97"/>
<polygon fill="midnightblue" stroke="midnightblue" points="1138.45,-74.46 1148.22,-70.35 1138.02,-67.47 1138.45,-74.46"/>
</g>
</g>
</svg>
