<?xml version="1.0" encoding="UTF-8" standalone="no"?>
<!DOCTYPE svg PUBLIC "-//W3C//DTD SVG 1.1//EN"
 "http://www.w3.org/Graphics/SVG/1.1/DTD/svg11.dtd">
<!-- Generated by graphviz version 2.43.0 (0)
 -->
<!-- Title: timer&#45;private.h Pages: 1 -->
<svg width="653pt" height="84pt"
 viewBox="0.00 0.00 652.50 84.00" xmlns="http://www.w3.org/2000/svg" xmlns:xlink="http://www.w3.org/1999/xlink">
<g id="graph0" class="graph" transform="scale(1 1) rotate(0) translate(4 80)">
<title>timer&#45;private.h</title>
<polygon fill="white" stroke="transparent" points="-4,4 -4,-80 648.5,-80 648.5,4 -4,4"/>
<!-- Node1 -->
<g id="node1" class="node">
<title>Node1</title>
<g id="a_node1"><a xlink:title=" ">
<polygon fill="#bfbfbf" stroke="black" points="279.5,-56.5 279.5,-75.5 369.5,-75.5 369.5,-56.5 279.5,-56.5"/>
<text text-anchor="middle" x="324.5" y="-63.5" font-family="FreeSans" font-size="10.00">timer&#45;private.h</text>
</a>
</g>
</g>
<!-- Node2 -->
<g id="node2" class="node">
<title>Node2</title>
<g id="a_node2"><a xlink:href="animate_8c.html" target="_top" xlink:title=" ">
<polygon fill="white" stroke="black" points="0,-0.5 0,-19.5 65,-19.5 65,-0.5 0,-0.5"/>
<text text-anchor="middle" x="32.5" y="-7.5" font-family="FreeSans" font-size="10.00">animate.c</text>
</a>
</g>
</g>
<!-- Node1&#45;&gt;Node2 -->
<g id="edge1" class="edge">
<title>Node1&#45;&gt;Node2</title>
<path fill="none" stroke="midnightblue" d="M269.16,-55.58C218.43,-46.81 141.29,-33.16 74.5,-20 71.43,-19.39 68.23,-18.75 65.04,-18.08"/>
<polygon fill="midnightblue" stroke="midnightblue" points="268.8,-59.07 279.25,-57.32 269.99,-52.17 268.8,-59.07"/>
</g>
<!-- Node3 -->
<g id="node3" class="node">
<title>Node3</title>
<g id="a_node3"><a xlink:href="blob_8c.html" target="_top" xlink:title=" ">
<polygon fill="white" stroke="black" points="83.5,-0.5 83.5,-19.5 129.5,-19.5 129.5,-0.5 83.5,-0.5"/>
<text text-anchor="middle" x="106.5" y="-7.5" font-family="FreeSans" font-size="10.00">blob.c</text>
</a>
</g>
</g>
<!-- Node1&#45;&gt;Node3 -->
<g id="edge2" class="edge">
<title>Node1&#45;&gt;Node3</title>
<path fill="none" stroke="midnightblue" d="M277.17,-54.06C239.51,-45.23 185.51,-32.29 138.5,-20 135.6,-19.24 132.55,-18.42 129.54,-17.59"/>
<polygon fill="midnightblue" stroke="midnightblue" points="276.81,-57.57 287.34,-56.44 278.4,-50.75 276.81,-57.57"/>
</g>
<!-- Node4 -->
<g id="node4" class="node">
<title>Node4</title>
<g id="a_node4"><a xlink:href="cache_8c.html" target="_top" xlink:title=" ">
<polygon fill="white" stroke="black" points="148,-0.5 148,-19.5 201,-19.5 201,-0.5 148,-0.5"/>
<text text-anchor="middle" x="174.5" y="-7.5" font-family="FreeSans" font-size="10.00">cache.c</text>
</a>
</g>
</g>
<!-- Node1&#45;&gt;Node4 -->
<g id="edge3" class="edge">
<title>Node1&#45;&gt;Node4</title>
<path fill="none" stroke="midnightblue" d="M291.28,-53.04C263.05,-42.88 223.24,-28.55 198.16,-19.52"/>
<polygon fill="midnightblue" stroke="midnightblue" points="290.14,-56.35 300.73,-56.44 292.51,-49.76 290.14,-56.35"/>
</g>
<!-- Node5 -->
<g id="node5" class="node">
<title>Node5</title>
<g id="a_node5"><a xlink:href="display_8c.html" target="_top" xlink:title=" ">
<polygon fill="white" stroke="black" points="219,-0.5 219,-19.5 278,-19.5 278,-0.5 219,-0.5"/>
<text text-anchor="middle" x="248.5" y="-7.5" font-family="FreeSans" font-size="10.00">display.c</text>
</a>
</g>
</g>
<!-- Node1&#45;&gt;Node5 -->
<g id="edge4" class="edge">
<title>Node1&#45;&gt;Node5</title>
<path fill="none" stroke="midnightblue" d="M303.92,-50.38C290.19,-40.62 272.57,-28.11 260.93,-19.83"/>
<polygon fill="midnightblue" stroke="midnightblue" points="302.11,-53.38 312.29,-56.32 306.16,-47.68 302.11,-53.38"/>
</g>
<!-- Node6 -->
<g id="node6" class="node">
<title>Node6</title>
<g id="a_node6"><a xlink:href="image_8c.html" target="_top" xlink:title=" ">
<polygon fill="white" stroke="black" points="296.5,-0.5 296.5,-19.5 352.5,-19.5 352.5,-0.5 296.5,-0.5"/>
<text text-anchor="middle" x="324.5" y="-7.5" font-family="FreeSans" font-size="10.00">image.c</text>
</a>
</g>
</g>
<!-- Node1&#45;&gt;Node6 -->
<g id="edge5" class="edge">
<title>Node1&#45;&gt;Node6</title>
<path fill="none" stroke="midnightblue" d="M324.5,-45.8C324.5,-36.91 324.5,-26.78 324.5,-19.75"/>
<polygon fill="midnightblue" stroke="midnightblue" points="321,-46.08 324.5,-56.08 328,-46.08 321,-46.08"/>
</g>
<!-- Node7 -->
<g id="node7" class="node">
<title>Node7</title>
<g id="a_node7"><a xlink:href="log_8c.html" target="_top" xlink:title=" ">
<polygon fill="white" stroke="black" points="370.5,-0.5 370.5,-19.5 410.5,-19.5 410.5,-0.5 370.5,-0.5"/>
<text text-anchor="middle" x="390.5" y="-7.5" font-family="FreeSans" font-size="10.00">log.c</text>
</a>
</g>
</g>
<!-- Node1&#45;&gt;Node7 -->
<g id="edge6" class="edge">
<title>Node1&#45;&gt;Node7</title>
<path fill="none" stroke="midnightblue" d="M343.05,-49.82C354.88,-40.15 369.79,-27.95 379.7,-19.83"/>
<polygon fill="midnightblue" stroke="midnightblue" points="340.63,-47.28 335.1,-56.32 345.06,-52.7 340.63,-47.28"/>
</g>
<!-- Node8 -->
<g id="node8" class="node">
<title>Node8</title>
<g id="a_node8"><a xlink:href="signature_8c.html" target="_top" xlink:title=" ">
<polygon fill="white" stroke="black" points="429,-0.5 429,-19.5 500,-19.5 500,-0.5 429,-0.5"/>
<text text-anchor="middle" x="464.5" y="-7.5" font-family="FreeSans" font-size="10.00">signature.c</text>
</a>
</g>
</g>
<!-- Node1&#45;&gt;Node8 -->
<g id="edge7" class="edge">
<title>Node1&#45;&gt;Node8</title>
<path fill="none" stroke="midnightblue" d="M356.2,-52.77C382.5,-42.63 419.22,-28.47 442.42,-19.52"/>
<polygon fill="midnightblue" stroke="midnightblue" points="354.75,-49.58 346.68,-56.44 357.27,-56.11 354.75,-49.58"/>
</g>
<!-- Node9 -->
<g id="node9" class="node">
<title>Node9</title>
<g id="a_node9"><a xlink:href="timer_8c.html" target="_top" xlink:title=" ">
<polygon fill="white" stroke="black" points="518.5,-0.5 518.5,-19.5 568.5,-19.5 568.5,-0.5 518.5,-0.5"/>
<text text-anchor="middle" x="543.5" y="-7.5" font-family="FreeSans" font-size="10.00">timer.c</text>
</a>
</g>
</g>
<!-- Node1&#45;&gt;Node9 -->
<g id="edge8" class="edge">
<title>Node1&#45;&gt;Node9</title>
<path fill="none" stroke="midnightblue" d="M370.82,-54.01C408.28,-45.05 462.35,-31.97 509.5,-20 512.34,-19.28 515.31,-18.51 518.26,-17.74"/>
<polygon fill="midnightblue" stroke="midnightblue" points="369.63,-50.69 360.71,-56.42 371.25,-57.5 369.63,-50.69"/>
</g>
<!-- Node10 -->
<g id="node10" class="node">
<title>Node10</title>
<g id="a_node10"><a xlink:href="widget_8c.html" target="_top" xlink:title=" ">
<polygon fill="white" stroke="black" points="586.5,-0.5 586.5,-19.5 644.5,-19.5 644.5,-0.5 586.5,-0.5"/>
<text text-anchor="middle" x="615.5" y="-7.5" font-family="FreeSans" font-size="10.00">widget.c</text>
</a>
</g>
</g>
<!-- Node1&#45;&gt;Node10 -->
<g id="edge9" class="edge">
<title>Node1&#45;&gt;Node10</title>
<path fill="none" stroke="midnightblue" d="M379.79,-56.09C431.16,-47.59 509.72,-34.04 577.5,-20 580.42,-19.39 583.46,-18.73 586.49,-18.05"/>
<polygon fill="midnightblue" stroke="midnightblue" points="379.19,-52.64 369.89,-57.72 380.33,-59.55 379.19,-52.64"/>
</g>
</g>
</svg>
