<?xml version="1.0" encoding="UTF-8" standalone="no"?>
<!DOCTYPE svg PUBLIC "-//W3C//DTD SVG 1.1//EN"
 "http://www.w3.org/Graphics/SVG/1.1/DTD/svg11.dtd">
<!-- Generated by graphviz version 2.43.0 (0)
 -->
<!-- Title: token.c Pages: 1 -->
<svg width="3280pt" height="308pt"
 viewBox="0.00 0.00 3280.00 308.00" xmlns="http://www.w3.org/2000/svg" xmlns:xlink="http://www.w3.org/1999/xlink">
<g id="graph0" class="graph" transform="scale(1 1) rotate(0) translate(4 304)">
<title>token.c</title>
<polygon fill="white" stroke="transparent" points="-4,4 -4,-304 3276,-304 3276,4 -4,4"/>
<!-- Node1 -->
<g id="node1" class="node">
<title>Node1</title>
<g id="a_node1"><a xlink:title=" ">
<polygon fill="#bfbfbf" stroke="black" points="2081.5,-280.5 2081.5,-299.5 2133.5,-299.5 2133.5,-280.5 2081.5,-280.5"/>
<text text-anchor="middle" x="2107.5" y="-287.5" font-family="FreeSans" font-size="10.00">token.c</text>
</a>
</g>
</g>
<!-- Node2 -->
<g id="node2" class="node">
<title>Node2</title>
<g id="a_node2"><a xlink:href="studio_8h.html" target="_top" xlink:title=" ">
<polygon fill="white" stroke="black" points="818,-224.5 818,-243.5 913,-243.5 913,-224.5 818,-224.5"/>
<text text-anchor="middle" x="865.5" y="-231.5" font-family="FreeSans" font-size="10.00">magick/studio.h</text>
</a>
</g>
</g>
<!-- Node1&#45;&gt;Node2 -->
<g id="edge1" class="edge">
<title>Node1&#45;&gt;Node2</title>
<path fill="none" stroke="midnightblue" d="M2081.27,-287.86C1927.63,-281.18 1143.55,-247.09 923.18,-237.51"/>
<polygon fill="midnightblue" stroke="midnightblue" points="923.26,-234.01 913.12,-237.07 922.96,-241 923.26,-234.01"/>
</g>
<!-- Node24 -->
<g id="node23" class="node">
<title>Node24</title>
<g id="a_node23"><a xlink:href="exception_8h.html" target="_top" xlink:title=" ">
<polygon fill="white" stroke="black" points="1838,-56.5 1838,-75.5 1951,-75.5 1951,-56.5 1838,-56.5"/>
<text text-anchor="middle" x="1894.5" y="-63.5" font-family="FreeSans" font-size="10.00">magick/exception.h</text>
</a>
</g>
</g>
<!-- Node1&#45;&gt;Node24 -->
<g id="edge23" class="edge">
<title>Node1&#45;&gt;Node24</title>
<path fill="none" stroke="midnightblue" d="M2081.18,-286C2032.7,-278.88 1930.28,-256.14 1886.5,-188 1866.29,-156.54 1877.97,-110.48 1887.03,-85.23"/>
<polygon fill="midnightblue" stroke="midnightblue" points="1890.34,-86.38 1890.64,-75.79 1883.8,-83.87 1890.34,-86.38"/>
</g>
<!-- Node26 -->
<g id="node25" class="node">
<title>Node26</title>
<g id="a_node25"><a xlink:href="exception-private_8h.html" target="_top" xlink:title=" ">
<polygon fill="white" stroke="black" points="1688,-168.5 1688,-187.5 1839,-187.5 1839,-168.5 1688,-168.5"/>
<text text-anchor="middle" x="1763.5" y="-175.5" font-family="FreeSans" font-size="10.00">magick/exception&#45;private.h</text>
</a>
</g>
</g>
<!-- Node1&#45;&gt;Node26 -->
<g id="edge26" class="edge">
<title>Node1&#45;&gt;Node26</title>
<path fill="none" stroke="midnightblue" d="M2081.18,-288.18C2033.82,-285.89 1931.86,-277.17 1853.5,-244 1825.13,-231.99 1797.1,-209.64 1780.05,-194.54"/>
<polygon fill="midnightblue" stroke="midnightblue" points="1782.36,-191.91 1772.6,-187.79 1777.66,-197.1 1782.36,-191.91"/>
</g>
<!-- Node29 -->
<g id="node28" class="node">
<title>Node29</title>
<g id="a_node28"><a xlink:href="string___8h.html" target="_top" xlink:title=" ">
<polygon fill="white" stroke="black" points="1573.5,-112.5 1573.5,-131.5 1671.5,-131.5 1671.5,-112.5 1573.5,-112.5"/>
<text text-anchor="middle" x="1622.5" y="-119.5" font-family="FreeSans" font-size="10.00">magick/string_.h</text>
</a>
</g>
</g>
<!-- Node1&#45;&gt;Node29 -->
<g id="edge67" class="edge">
<title>Node1&#45;&gt;Node29</title>
<path fill="none" stroke="midnightblue" d="M2081.3,-288.41C1982.1,-285.57 1631.9,-269.82 1566.5,-188 1552.01,-169.88 1575.88,-149.75 1596.8,-136.76"/>
<polygon fill="midnightblue" stroke="midnightblue" points="1598.62,-139.75 1605.46,-131.66 1595.07,-133.72 1598.62,-139.75"/>
</g>
<!-- Node30 -->
<g id="node29" class="node">
<title>Node30</title>
<g id="a_node29"><a xlink:href="image_8h.html" target="_top" xlink:title=" ">
<polygon fill="white" stroke="red" points="2358,-224.5 2358,-243.5 2453,-243.5 2453,-224.5 2358,-224.5"/>
<text text-anchor="middle" x="2405.5" y="-231.5" font-family="FreeSans" font-size="10.00">magick/image.h</text>
</a>
</g>
</g>
<!-- Node1&#45;&gt;Node30 -->
<g id="edge37" class="edge">
<title>Node1&#45;&gt;Node30</title>
<path fill="none" stroke="midnightblue" d="M2133.68,-284.26C2181.48,-275.59 2283.86,-257.04 2348.43,-245.34"/>
<polygon fill="midnightblue" stroke="midnightblue" points="2349.24,-248.75 2358.45,-243.53 2347.99,-241.86 2349.24,-248.75"/>
</g>
<!-- Node53 -->
<g id="node45" class="node">
<title>Node53</title>
<g id="a_node45"><a xlink:href="image-private_8h.html" target="_top" xlink:title=" ">
<polygon fill="white" stroke="black" points="2040.5,-224.5 2040.5,-243.5 2174.5,-243.5 2174.5,-224.5 2040.5,-224.5"/>
<text text-anchor="middle" x="2107.5" y="-231.5" font-family="FreeSans" font-size="10.00">magick/image&#45;private.h</text>
</a>
</g>
</g>
<!-- Node1&#45;&gt;Node53 -->
<g id="edge63" class="edge">
<title>Node1&#45;&gt;Node53</title>
<path fill="none" stroke="midnightblue" d="M2107.5,-280.08C2107.5,-273.01 2107.5,-262.86 2107.5,-253.99"/>
<polygon fill="midnightblue" stroke="midnightblue" points="2111,-253.75 2107.5,-243.75 2104,-253.75 2111,-253.75"/>
</g>
<!-- Node54 -->
<g id="node46" class="node">
<title>Node54</title>
<g id="a_node46"><a xlink:href="memory___8h.html" target="_top" xlink:title=" ">
<polygon fill="white" stroke="black" points="1407,-224.5 1407,-243.5 1518,-243.5 1518,-224.5 1407,-224.5"/>
<text text-anchor="middle" x="1462.5" y="-231.5" font-family="FreeSans" font-size="10.00">magick/memory_.h</text>
</a>
</g>
</g>
<!-- Node1&#45;&gt;Node54 -->
<g id="edge64" class="edge">
<title>Node1&#45;&gt;Node54</title>
<path fill="none" stroke="midnightblue" d="M2081.38,-287.42C2000.02,-282.4 1743.9,-265.85 1532.5,-244 1531.2,-243.87 1529.88,-243.73 1528.56,-243.58"/>
<polygon fill="midnightblue" stroke="midnightblue" points="1528.58,-240.06 1518.26,-242.42 1527.8,-247.02 1528.58,-240.06"/>
</g>
<!-- Node55 -->
<g id="node47" class="node">
<title>Node55</title>
<g id="a_node47"><a xlink:href="string-private_8h.html" target="_top" xlink:title=" ">
<polygon fill="white" stroke="red" points="2471,-224.5 2471,-243.5 2602,-243.5 2602,-224.5 2471,-224.5"/>
<text text-anchor="middle" x="2536.5" y="-231.5" font-family="FreeSans" font-size="10.00">magick/string&#45;private.h</text>
</a>
</g>
</g>
<!-- Node1&#45;&gt;Node55 -->
<g id="edge68" class="edge">
<title>Node1&#45;&gt;Node55</title>
<path fill="none" stroke="midnightblue" d="M2133.69,-285.7C2197.47,-277.68 2362.77,-256.87 2460.66,-244.55"/>
<polygon fill="midnightblue" stroke="midnightblue" points="2461.31,-247.99 2470.79,-243.27 2460.43,-241.05 2461.31,-247.99"/>
</g>
<!-- Node57 -->
<g id="node48" class="node">
<title>Node57</title>
<g id="a_node48"><a xlink:href="token_8h.html" target="_top" xlink:title=" ">
<polygon fill="white" stroke="black" points="2620.5,-224.5 2620.5,-243.5 2712.5,-243.5 2712.5,-224.5 2620.5,-224.5"/>
<text text-anchor="middle" x="2666.5" y="-231.5" font-family="FreeSans" font-size="10.00">magick/token.h</text>
</a>
</g>
</g>
<!-- Node1&#45;&gt;Node57 -->
<g id="edge70" class="edge">
<title>Node1&#45;&gt;Node57</title>
<path fill="none" stroke="midnightblue" d="M2133.54,-287.35C2206.85,-282.56 2421.4,-267.57 2610.21,-244.08"/>
<polygon fill="midnightblue" stroke="midnightblue" points="2610.84,-247.53 2620.32,-242.81 2609.96,-240.58 2610.84,-247.53"/>
</g>
<!-- Node58 -->
<g id="node49" class="node">
<title>Node58</title>
<g id="a_node49"><a xlink:href="token-private_8h.html" target="_top" xlink:title=" ">
<polygon fill="white" stroke="black" points="2730.5,-224.5 2730.5,-243.5 2860.5,-243.5 2860.5,-224.5 2730.5,-224.5"/>
<text text-anchor="middle" x="2795.5" y="-231.5" font-family="FreeSans" font-size="10.00">magick/token&#45;private.h</text>
</a>
</g>
</g>
<!-- Node1&#45;&gt;Node58 -->
<g id="edge71" class="edge">
<title>Node1&#45;&gt;Node58</title>
<path fill="none" stroke="midnightblue" d="M2133.57,-287.54C2217.19,-282.75 2486.34,-266.61 2720.1,-244.09"/>
<polygon fill="midnightblue" stroke="midnightblue" points="2720.53,-247.57 2730.15,-243.12 2719.86,-240.6 2720.53,-247.57"/>
</g>
<!-- Node59 -->
<g id="node50" class="node">
<title>Node59</title>
<g id="a_node50"><a xlink:href="utility_8h.html" target="_top" xlink:title=" ">
<polygon fill="white" stroke="black" points="2878.5,-224.5 2878.5,-243.5 2970.5,-243.5 2970.5,-224.5 2878.5,-224.5"/>
<text text-anchor="middle" x="2924.5" y="-231.5" font-family="FreeSans" font-size="10.00">magick/utility.h</text>
</a>
</g>
</g>
<!-- Node1&#45;&gt;Node59 -->
<g id="edge72" class="edge">
<title>Node1&#45;&gt;Node59</title>
<path fill="none" stroke="midnightblue" d="M2133.57,-288.44C2229.79,-286.15 2574.18,-276.15 2868.33,-244.01"/>
<polygon fill="midnightblue" stroke="midnightblue" points="2868.78,-247.48 2878.33,-242.91 2868.01,-240.53 2868.78,-247.48"/>
</g>
<!-- Node3 -->
<g id="node3" class="node">
<title>Node3</title>
<g id="a_node3"><a xlink:href="magick-config_8h.html" target="_top" xlink:title=" ">
<polygon fill="white" stroke="red" points="1108.5,-112.5 1108.5,-131.5 1242.5,-131.5 1242.5,-112.5 1108.5,-112.5"/>
<text text-anchor="middle" x="1175.5" y="-119.5" font-family="FreeSans" font-size="10.00">magick/magick&#45;config.h</text>
</a>
</g>
</g>
<!-- Node2&#45;&gt;Node3 -->
<g id="edge2" class="edge">
<title>Node2&#45;&gt;Node3</title>
<path fill="none" stroke="midnightblue" d="M913.31,-233.96C996.99,-234.5 1164.63,-230.13 1201.5,-188 1213.7,-174.06 1202.16,-153.69 1190.83,-139.48"/>
<polygon fill="midnightblue" stroke="midnightblue" points="1193.18,-136.84 1184.01,-131.54 1187.87,-141.41 1193.18,-136.84"/>
</g>
<!-- Node5 -->
<g id="node4" class="node">
<title>Node5</title>
<g id="a_node4"><a xlink:title=" ">
<polygon fill="white" stroke="#bfbfbf" points="1662.5,-0.5 1662.5,-19.5 1718.5,-19.5 1718.5,-0.5 1662.5,-0.5"/>
<text text-anchor="middle" x="1690.5" y="-7.5" font-family="FreeSans" font-size="10.00">stdarg.h</text>
</a>
</g>
</g>
<!-- Node2&#45;&gt;Node5 -->
<g id="edge3" class="edge">
<title>Node2&#45;&gt;Node5</title>
<path fill="none" stroke="midnightblue" d="M913.17,-231.59C1012.26,-228.1 1237.13,-217.14 1307.5,-188 1350.4,-170.23 1427.53,-75.88 1469.5,-56 1529.42,-27.63 1606.75,-17.1 1652.25,-13.22"/>
<polygon fill="midnightblue" stroke="midnightblue" points="1652.59,-16.71 1662.28,-12.43 1652.04,-9.73 1652.59,-16.71"/>
</g>
<!-- Node6 -->
<g id="node5" class="node">
<title>Node6</title>
<g id="a_node5"><a xlink:title=" ">
<polygon fill="white" stroke="#bfbfbf" points="1248.5,-168.5 1248.5,-187.5 1298.5,-187.5 1298.5,-168.5 1248.5,-168.5"/>
<text text-anchor="middle" x="1273.5" y="-175.5" font-family="FreeSans" font-size="10.00">stdio.h</text>
</a>
</g>
</g>
<!-- Node2&#45;&gt;Node6 -->
<g id="edge4" class="edge">
<title>Node2&#45;&gt;Node6</title>
<path fill="none" stroke="midnightblue" d="M913.21,-228.8C983.76,-222.23 1119.93,-208.15 1234.5,-188 1235.77,-187.78 1237.06,-187.54 1238.36,-187.29"/>
<polygon fill="midnightblue" stroke="midnightblue" points="1239.33,-190.66 1248.4,-185.2 1237.9,-183.81 1239.33,-190.66"/>
</g>
<!-- Node7 -->
<g id="node6" class="node">
<title>Node7</title>
<g id="a_node6"><a xlink:title=" ">
<polygon fill="white" stroke="#bfbfbf" points="0,-168.5 0,-187.5 53,-187.5 53,-168.5 0,-168.5"/>
<text text-anchor="middle" x="26.5" y="-175.5" font-family="FreeSans" font-size="10.00">ctype.h</text>
</a>
</g>
</g>
<!-- Node2&#45;&gt;Node7 -->
<g id="edge5" class="edge">
<title>Node2&#45;&gt;Node7</title>
<path fill="none" stroke="midnightblue" d="M817.58,-233.57C693.9,-234.36 353.84,-232.12 63.45,-188.01"/>
<polygon fill="midnightblue" stroke="midnightblue" points="63.56,-184.49 53.14,-186.42 62.49,-191.4 63.56,-184.49"/>
</g>
<!-- Node8 -->
<g id="node7" class="node">
<title>Node8</title>
<g id="a_node7"><a xlink:title=" ">
<polygon fill="white" stroke="#bfbfbf" points="71,-168.5 71,-187.5 126,-187.5 126,-168.5 71,-168.5"/>
<text text-anchor="middle" x="98.5" y="-175.5" font-family="FreeSans" font-size="10.00">locale.h</text>
</a>
</g>
</g>
<!-- Node2&#45;&gt;Node8 -->
<g id="edge6" class="edge">
<title>Node2&#45;&gt;Node8</title>
<path fill="none" stroke="midnightblue" d="M817.71,-233.08C702.03,-232.63 397.76,-227.58 136.37,-188.03"/>
<polygon fill="midnightblue" stroke="midnightblue" points="136.72,-184.54 126.31,-186.49 135.66,-191.46 136.72,-184.54"/>
</g>
<!-- Node9 -->
<g id="node8" class="node">
<title>Node9</title>
<g id="a_node8"><a xlink:title=" ">
<polygon fill="white" stroke="#bfbfbf" points="1467,-168.5 1467,-187.5 1518,-187.5 1518,-168.5 1467,-168.5"/>
<text text-anchor="middle" x="1492.5" y="-175.5" font-family="FreeSans" font-size="10.00">errno.h</text>
</a>
</g>
</g>
<!-- Node2&#45;&gt;Node9 -->
<g id="edge7" class="edge">
<title>Node2&#45;&gt;Node9</title>
<path fill="none" stroke="midnightblue" d="M913.03,-232.22C1012.39,-229.97 1249.35,-221.42 1457.12,-187.73"/>
<polygon fill="midnightblue" stroke="midnightblue" points="1457.7,-191.19 1467,-186.11 1456.56,-184.28 1457.7,-191.19"/>
</g>
<!-- Node10 -->
<g id="node9" class="node">
<title>Node10</title>
<g id="a_node9"><a xlink:title=" ">
<polygon fill="white" stroke="#bfbfbf" points="144,-168.5 144,-187.5 191,-187.5 191,-168.5 144,-168.5"/>
<text text-anchor="middle" x="167.5" y="-175.5" font-family="FreeSans" font-size="10.00">fcntl.h</text>
</a>
</g>
</g>
<!-- Node2&#45;&gt;Node10 -->
<g id="edge8" class="edge">
<title>Node2&#45;&gt;Node10</title>
<path fill="none" stroke="midnightblue" d="M817.86,-233.14C709.56,-232.75 436.63,-227.69 201.26,-187.97"/>
<polygon fill="midnightblue" stroke="midnightblue" points="201.59,-184.48 191.14,-186.24 200.41,-191.38 201.59,-184.48"/>
</g>
<!-- Node11 -->
<g id="node10" class="node">
<title>Node11</title>
<g id="a_node10"><a xlink:title=" ">
<polygon fill="white" stroke="#bfbfbf" points="209,-168.5 209,-187.5 260,-187.5 260,-168.5 209,-168.5"/>
<text text-anchor="middle" x="234.5" y="-175.5" font-family="FreeSans" font-size="10.00">math.h</text>
</a>
</g>
</g>
<!-- Node2&#45;&gt;Node11 -->
<g id="edge9" class="edge">
<title>Node2&#45;&gt;Node11</title>
<path fill="none" stroke="midnightblue" d="M817.93,-232.37C717.93,-230.41 478.56,-222.38 269.92,-187.95"/>
<polygon fill="midnightblue" stroke="midnightblue" points="270.45,-184.49 260.01,-186.29 269.29,-191.39 270.45,-184.49"/>
</g>
<!-- Node12 -->
<g id="node11" class="node">
<title>Node12</title>
<g id="a_node11"><a xlink:title=" ">
<polygon fill="white" stroke="#bfbfbf" points="1478.5,-56.5 1478.5,-75.5 1526.5,-75.5 1526.5,-56.5 1478.5,-56.5"/>
<text text-anchor="middle" x="1502.5" y="-63.5" font-family="FreeSans" font-size="10.00">time.h</text>
</a>
</g>
</g>
<!-- Node2&#45;&gt;Node12 -->
<g id="edge10" class="edge">
<title>Node2&#45;&gt;Node12</title>
<path fill="none" stroke="midnightblue" d="M913.04,-231.75C1017.38,-228.48 1263.31,-217.76 1340.5,-188 1401.94,-164.31 1460.33,-110.37 1487.14,-83.23"/>
<polygon fill="midnightblue" stroke="midnightblue" points="1489.97,-85.34 1494.42,-75.73 1484.94,-80.47 1489.97,-85.34"/>
</g>
<!-- Node13 -->
<g id="node12" class="node">
<title>Node13</title>
<g id="a_node12"><a xlink:title=" ">
<polygon fill="white" stroke="#bfbfbf" points="278,-168.5 278,-187.5 331,-187.5 331,-168.5 278,-168.5"/>
<text text-anchor="middle" x="304.5" y="-175.5" font-family="FreeSans" font-size="10.00">limits.h</text>
</a>
</g>
</g>
<!-- Node2&#45;&gt;Node13 -->
<g id="edge11" class="edge">
<title>Node2&#45;&gt;Node13</title>
<path fill="none" stroke="midnightblue" d="M817.66,-231.57C726.52,-228.27 521.69,-218.08 341.1,-188.02"/>
<polygon fill="midnightblue" stroke="midnightblue" points="341.6,-184.56 331.15,-186.34 340.43,-191.46 341.6,-184.56"/>
</g>
<!-- Node14 -->
<g id="node13" class="node">
<title>Node14</title>
<g id="a_node13"><a xlink:title=" ">
<polygon fill="white" stroke="#bfbfbf" points="349,-168.5 349,-187.5 404,-187.5 404,-168.5 349,-168.5"/>
<text text-anchor="middle" x="376.5" y="-175.5" font-family="FreeSans" font-size="10.00">signal.h</text>
</a>
</g>
</g>
<!-- Node2&#45;&gt;Node14 -->
<g id="edge12" class="edge">
<title>Node2&#45;&gt;Node14</title>
<path fill="none" stroke="midnightblue" d="M817.7,-230.44C736.69,-225.62 567.13,-213.46 414.33,-187.9"/>
<polygon fill="midnightblue" stroke="midnightblue" points="414.74,-184.42 404.29,-186.2 413.57,-191.32 414.74,-184.42"/>
</g>
<!-- Node15 -->
<g id="node14" class="node">
<title>Node15</title>
<g id="a_node14"><a xlink:title=" ">
<polygon fill="white" stroke="#bfbfbf" points="1392.5,-168.5 1392.5,-187.5 1448.5,-187.5 1448.5,-168.5 1392.5,-168.5"/>
<text text-anchor="middle" x="1420.5" y="-175.5" font-family="FreeSans" font-size="10.00">assert.h</text>
</a>
</g>
</g>
<!-- Node2&#45;&gt;Node15 -->
<g id="edge13" class="edge">
<title>Node2&#45;&gt;Node15</title>
<path fill="none" stroke="midnightblue" d="M913.12,-230.79C1004,-226.14 1208.31,-213.6 1378.5,-188 1379.74,-187.81 1381.01,-187.61 1382.28,-187.4"/>
<polygon fill="midnightblue" stroke="midnightblue" points="1382.92,-190.84 1392.12,-185.58 1381.65,-183.96 1382.92,-190.84"/>
</g>
<!-- Node16 -->
<g id="node15" class="node">
<title>Node16</title>
<g id="a_node15"><a xlink:href="method-attribute_8h.html" target="_top" xlink:title=" ">
<polygon fill="white" stroke="black" points="422.5,-168.5 422.5,-187.5 570.5,-187.5 570.5,-168.5 422.5,-168.5"/>
<text text-anchor="middle" x="496.5" y="-175.5" font-family="FreeSans" font-size="10.00">magick/method&#45;attribute.h</text>
</a>
</g>
</g>
<!-- Node2&#45;&gt;Node16 -->
<g id="edge14" class="edge">
<title>Node2&#45;&gt;Node16</title>
<path fill="none" stroke="midnightblue" d="M817.64,-226C753.2,-216.57 638.16,-199.73 564.69,-188.98"/>
<polygon fill="midnightblue" stroke="midnightblue" points="565.01,-185.49 554.61,-187.5 563.99,-192.41 565.01,-185.49"/>
</g>
<!-- Node17 -->
<g id="node16" class="node">
<title>Node17</title>
<g id="a_node16"><a xlink:title=" ">
<polygon fill="white" stroke="#bfbfbf" points="588.5,-168.5 588.5,-187.5 660.5,-187.5 660.5,-168.5 588.5,-168.5"/>
<text text-anchor="middle" x="624.5" y="-175.5" font-family="FreeSans" font-size="10.00">sys/types.h</text>
</a>
</g>
</g>
<!-- Node2&#45;&gt;Node17 -->
<g id="edge15" class="edge">
<title>Node2&#45;&gt;Node17</title>
<path fill="none" stroke="midnightblue" d="M827.31,-224.44C784.74,-214.9 715.92,-199.48 670.44,-189.29"/>
<polygon fill="midnightblue" stroke="midnightblue" points="671.06,-185.85 660.54,-187.08 669.53,-192.68 671.06,-185.85"/>
</g>
<!-- Node18 -->
<g id="node17" class="node">
<title>Node18</title>
<g id="a_node17"><a xlink:title=" ">
<polygon fill="white" stroke="#bfbfbf" points="678.5,-168.5 678.5,-187.5 742.5,-187.5 742.5,-168.5 678.5,-168.5"/>
<text text-anchor="middle" x="710.5" y="-175.5" font-family="FreeSans" font-size="10.00">sys/stat.h</text>
</a>
</g>
</g>
<!-- Node2&#45;&gt;Node18 -->
<g id="edge16" class="edge">
<title>Node2&#45;&gt;Node18</title>
<path fill="none" stroke="midnightblue" d="M840.94,-224.44C814.98,-215.4 773.83,-201.06 744.7,-190.92"/>
<polygon fill="midnightblue" stroke="midnightblue" points="745.54,-187.5 734.95,-187.52 743.24,-194.11 745.54,-187.5"/>
</g>
<!-- Node19 -->
<g id="node18" class="node">
<title>Node19</title>
<g id="a_node18"><a xlink:title=" ">
<polygon fill="white" stroke="#bfbfbf" points="760.5,-168.5 760.5,-187.5 814.5,-187.5 814.5,-168.5 760.5,-168.5"/>
<text text-anchor="middle" x="787.5" y="-175.5" font-family="FreeSans" font-size="10.00">dirent.h</text>
</a>
</g>
</g>
<!-- Node2&#45;&gt;Node19 -->
<g id="edge17" class="edge">
<title>Node2&#45;&gt;Node19</title>
<path fill="none" stroke="midnightblue" d="M852.97,-224.32C840.91,-215.98 822.47,-203.21 808.23,-193.35"/>
<polygon fill="midnightblue" stroke="midnightblue" points="810.22,-190.47 800,-187.65 806.23,-196.22 810.22,-190.47"/>
</g>
<!-- Node20 -->
<g id="node19" class="node">
<title>Node20</title>
<g id="a_node19"><a xlink:title=" ">
<polygon fill="white" stroke="#bfbfbf" points="832.5,-168.5 832.5,-187.5 898.5,-187.5 898.5,-168.5 832.5,-168.5"/>
<text text-anchor="middle" x="865.5" y="-175.5" font-family="FreeSans" font-size="10.00">sys/wait.h</text>
</a>
</g>
</g>
<!-- Node2&#45;&gt;Node20 -->
<g id="edge18" class="edge">
<title>Node2&#45;&gt;Node20</title>
<path fill="none" stroke="midnightblue" d="M865.5,-224.08C865.5,-217.01 865.5,-206.86 865.5,-197.99"/>
<polygon fill="midnightblue" stroke="midnightblue" points="869,-197.75 865.5,-187.75 862,-197.75 869,-197.75"/>
</g>
<!-- Node21 -->
<g id="node20" class="node">
<title>Node21</title>
<g id="a_node20"><a xlink:title=" ">
<polygon fill="white" stroke="#bfbfbf" points="916.5,-168.5 916.5,-187.5 962.5,-187.5 962.5,-168.5 916.5,-168.5"/>
<text text-anchor="middle" x="939.5" y="-175.5" font-family="FreeSans" font-size="10.00">pwd.h</text>
</a>
</g>
</g>
<!-- Node2&#45;&gt;Node21 -->
<g id="edge19" class="edge">
<title>Node2&#45;&gt;Node21</title>
<path fill="none" stroke="midnightblue" d="M877.39,-224.32C888.65,-216.11 905.79,-203.6 919.21,-193.81"/>
<polygon fill="midnightblue" stroke="midnightblue" points="921.38,-196.56 927.39,-187.83 917.25,-190.9 921.38,-196.56"/>
</g>
<!-- Node22 -->
<g id="node21" class="node">
<title>Node22</title>
<g id="a_node21"><a xlink:href="magick-type_8h.html" target="_top" xlink:title=" ">
<polygon fill="white" stroke="black" points="1066.5,-168.5 1066.5,-187.5 1192.5,-187.5 1192.5,-168.5 1066.5,-168.5"/>
<text text-anchor="middle" x="1129.5" y="-175.5" font-family="FreeSans" font-size="10.00">magick/magick&#45;type.h</text>
</a>
</g>
</g>
<!-- Node2&#45;&gt;Node22 -->
<g id="edge20" class="edge">
<title>Node2&#45;&gt;Node22</title>
<path fill="none" stroke="midnightblue" d="M907.33,-224.44C953.58,-214.98 1028.11,-199.74 1077.94,-189.55"/>
<polygon fill="midnightblue" stroke="midnightblue" points="1078.77,-192.95 1087.86,-187.52 1077.37,-186.09 1078.77,-192.95"/>
</g>
<!-- Node23 -->
<g id="node22" class="node">
<title>Node23</title>
<g id="a_node22"><a xlink:title=" ">
<polygon fill="white" stroke="#bfbfbf" points="980.5,-168.5 980.5,-187.5 1048.5,-187.5 1048.5,-168.5 980.5,-168.5"/>
<text text-anchor="middle" x="1014.5" y="-175.5" font-family="FreeSans" font-size="10.00">sys/time.h</text>
</a>
</g>
</g>
<!-- Node2&#45;&gt;Node23 -->
<g id="edge22" class="edge">
<title>Node2&#45;&gt;Node23</title>
<path fill="none" stroke="midnightblue" d="M889.11,-224.44C913.96,-215.44 953.27,-201.19 981.25,-191.05"/>
<polygon fill="midnightblue" stroke="midnightblue" points="982.79,-194.21 991,-187.52 980.41,-187.63 982.79,-194.21"/>
</g>
<!-- Node22&#45;&gt;Node3 -->
<g id="edge21" class="edge">
<title>Node22&#45;&gt;Node3</title>
<path fill="none" stroke="midnightblue" d="M1137.1,-168.08C1143.73,-160.3 1153.52,-148.8 1161.56,-139.37"/>
<polygon fill="midnightblue" stroke="midnightblue" points="1164.23,-141.63 1168.05,-131.75 1158.9,-137.09 1164.23,-141.63"/>
</g>
<!-- Node24&#45;&gt;Node5 -->
<g id="edge24" class="edge">
<title>Node24&#45;&gt;Node5</title>
<path fill="none" stroke="midnightblue" d="M1862.18,-56.44C1825.87,-46.83 1767.01,-31.25 1728.53,-21.07"/>
<polygon fill="midnightblue" stroke="midnightblue" points="1729.29,-17.65 1718.73,-18.47 1727.5,-24.42 1729.29,-17.65"/>
</g>
<!-- Node25 -->
<g id="node24" class="node">
<title>Node25</title>
<g id="a_node24"><a xlink:href="semaphore_8h.html" target="_top" xlink:title=" ">
<polygon fill="white" stroke="black" points="1953,-0.5 1953,-19.5 2072,-19.5 2072,-0.5 1953,-0.5"/>
<text text-anchor="middle" x="2012.5" y="-7.5" font-family="FreeSans" font-size="10.00">magick/semaphore.h</text>
</a>
</g>
</g>
<!-- Node24&#45;&gt;Node25 -->
<g id="edge25" class="edge">
<title>Node24&#45;&gt;Node25</title>
<path fill="none" stroke="midnightblue" d="M1913.2,-56.44C1932.44,-47.64 1962.65,-33.81 1984.7,-23.72"/>
<polygon fill="midnightblue" stroke="midnightblue" points="1986.25,-26.86 1993.89,-19.52 1983.34,-20.5 1986.25,-26.86"/>
</g>
<!-- Node27 -->
<g id="node26" class="node">
<title>Node27</title>
<g id="a_node26"><a xlink:href="log_8h.html" target="_top" xlink:title=" ">
<polygon fill="white" stroke="black" points="1689.5,-112.5 1689.5,-131.5 1769.5,-131.5 1769.5,-112.5 1689.5,-112.5"/>
<text text-anchor="middle" x="1729.5" y="-119.5" font-family="FreeSans" font-size="10.00">magick/log.h</text>
</a>
</g>
</g>
<!-- Node26&#45;&gt;Node27 -->
<g id="edge27" class="edge">
<title>Node26&#45;&gt;Node27</title>
<path fill="none" stroke="midnightblue" d="M1757.89,-168.08C1753.13,-160.53 1746.18,-149.49 1740.35,-140.23"/>
<polygon fill="midnightblue" stroke="midnightblue" points="1743.3,-138.35 1735.01,-131.75 1737.38,-142.08 1743.3,-138.35"/>
</g>
<!-- Node28 -->
<g id="node27" class="node">
<title>Node28</title>
<g id="a_node27"><a xlink:href="magick_8h.html" target="_top" xlink:title=" ">
<polygon fill="white" stroke="black" points="1719,-56.5 1719,-75.5 1820,-75.5 1820,-56.5 1719,-56.5"/>
<text text-anchor="middle" x="1769.5" y="-63.5" font-family="FreeSans" font-size="10.00">magick/magick.h</text>
</a>
</g>
</g>
<!-- Node26&#45;&gt;Node28 -->
<g id="edge30" class="edge">
<title>Node26&#45;&gt;Node28</title>
<path fill="none" stroke="midnightblue" d="M1767.36,-168.25C1771.06,-159.33 1776.39,-145.01 1778.5,-132 1781.04,-116.36 1778.16,-98.53 1775.01,-85.51"/>
<polygon fill="midnightblue" stroke="midnightblue" points="1778.39,-84.59 1772.4,-75.85 1771.63,-86.42 1778.39,-84.59"/>
</g>
<!-- Node26&#45;&gt;Node29 -->
<g id="edge33" class="edge">
<title>Node26&#45;&gt;Node29</title>
<path fill="none" stroke="midnightblue" d="M1741.16,-168.44C1717.75,-159.48 1680.76,-145.31 1654.31,-135.18"/>
<polygon fill="midnightblue" stroke="midnightblue" points="1655.33,-131.82 1644.74,-131.52 1652.82,-138.36 1655.33,-131.82"/>
</g>
<!-- Node27&#45;&gt;Node5 -->
<g id="edge28" class="edge">
<title>Node27&#45;&gt;Node5</title>
<path fill="none" stroke="midnightblue" d="M1725.6,-112.48C1721.56,-103.5 1715.2,-88.91 1710.5,-76 1704.82,-60.4 1699.35,-42.32 1695.57,-29.2"/>
<polygon fill="midnightblue" stroke="midnightblue" points="1698.91,-28.17 1692.82,-19.5 1692.18,-30.08 1698.91,-28.17"/>
</g>
<!-- Node27&#45;&gt;Node24 -->
<g id="edge29" class="edge">
<title>Node27&#45;&gt;Node24</title>
<path fill="none" stroke="midnightblue" d="M1755.64,-112.44C1783.52,-103.32 1827.85,-88.81 1858.9,-78.65"/>
<polygon fill="midnightblue" stroke="midnightblue" points="1860.06,-81.95 1868.48,-75.52 1857.88,-75.3 1860.06,-81.95"/>
</g>
<!-- Node28&#45;&gt;Node5 -->
<g id="edge31" class="edge">
<title>Node28&#45;&gt;Node5</title>
<path fill="none" stroke="midnightblue" d="M1756.81,-56.32C1744.6,-47.98 1725.92,-35.21 1711.5,-25.35"/>
<polygon fill="midnightblue" stroke="midnightblue" points="1713.39,-22.41 1703.16,-19.65 1709.44,-28.19 1713.39,-22.41"/>
</g>
<!-- Node28&#45;&gt;Node25 -->
<g id="edge32" class="edge">
<title>Node28&#45;&gt;Node25</title>
<path fill="none" stroke="midnightblue" d="M1808,-56.44C1850.31,-47.04 1918.32,-31.93 1964.17,-21.74"/>
<polygon fill="midnightblue" stroke="midnightblue" points="1965.17,-25.1 1974.18,-19.52 1963.65,-18.27 1965.17,-25.1"/>
</g>
<!-- Node29&#45;&gt;Node5 -->
<g id="edge34" class="edge">
<title>Node29&#45;&gt;Node5</title>
<path fill="none" stroke="midnightblue" d="M1627.84,-112.37C1639.01,-94.3 1665.05,-52.18 1679.8,-28.31"/>
<polygon fill="midnightblue" stroke="midnightblue" points="1682.91,-29.94 1685.19,-19.59 1676.95,-26.26 1682.91,-29.94"/>
</g>
<!-- Node29&#45;&gt;Node12 -->
<g id="edge35" class="edge">
<title>Node29&#45;&gt;Node12</title>
<path fill="none" stroke="midnightblue" d="M1603.49,-112.44C1583.91,-103.64 1553.19,-89.81 1530.77,-79.72"/>
<polygon fill="midnightblue" stroke="midnightblue" points="1531.98,-76.43 1521.43,-75.52 1529.11,-82.81 1531.98,-76.43"/>
</g>
<!-- Node29&#45;&gt;Node24 -->
<g id="edge36" class="edge">
<title>Node29&#45;&gt;Node24</title>
<path fill="none" stroke="midnightblue" d="M1665.6,-112.44C1713.35,-102.96 1790.36,-87.67 1841.69,-77.48"/>
<polygon fill="midnightblue" stroke="midnightblue" points="1842.48,-80.9 1851.6,-75.52 1841.11,-74.03 1842.48,-80.9"/>
</g>
<!-- Node30&#45;&gt;Node25 -->
<g id="edge62" class="edge">
<title>Node30&#45;&gt;Node25</title>
<path fill="none" stroke="midnightblue" d="M2408.75,-224.24C2416.17,-202.59 2431.76,-145.86 2405.5,-112 2366.27,-61.41 2184.64,-31.74 2082.59,-18.79"/>
<polygon fill="midnightblue" stroke="midnightblue" points="2082.72,-15.28 2072.37,-17.52 2081.86,-22.23 2082.72,-15.28"/>
</g>
<!-- Node31 -->
<g id="node30" class="node">
<title>Node31</title>
<g id="a_node30"><a xlink:href="color_8h.html" target="_top" xlink:title=" ">
<polygon fill="white" stroke="black" points="2308.5,-112.5 2308.5,-131.5 2396.5,-131.5 2396.5,-112.5 2308.5,-112.5"/>
<text text-anchor="middle" x="2352.5" y="-119.5" font-family="FreeSans" font-size="10.00">magick/color.h</text>
</a>
</g>
</g>
<!-- Node30&#45;&gt;Node31 -->
<g id="edge38" class="edge">
<title>Node30&#45;&gt;Node31</title>
<path fill="none" stroke="midnightblue" d="M2401.34,-224.37C2392.67,-206.38 2372.52,-164.55 2360.99,-140.63"/>
<polygon fill="midnightblue" stroke="midnightblue" points="2364.13,-139.08 2356.64,-131.59 2357.83,-142.12 2364.13,-139.08"/>
</g>
<!-- Node32 -->
<g id="node31" class="node">
<title>Node32</title>
<g id="a_node31"><a xlink:href="pixel_8h.html" target="_top" xlink:title=" ">
<polygon fill="white" stroke="red" points="2479.5,-56.5 2479.5,-75.5 2567.5,-75.5 2567.5,-56.5 2479.5,-56.5"/>
<text text-anchor="middle" x="2523.5" y="-63.5" font-family="FreeSans" font-size="10.00">magick/pixel.h</text>
</a>
</g>
</g>
<!-- Node30&#45;&gt;Node32 -->
<g id="edge54" class="edge">
<title>Node30&#45;&gt;Node32</title>
<path fill="none" stroke="midnightblue" d="M2412.36,-224.24C2419.25,-215.31 2430.02,-200.98 2438.5,-188 2459.85,-155.33 2459.45,-143.49 2482.5,-112 2489.97,-101.79 2499.43,-91.29 2507.37,-83"/>
<polygon fill="midnightblue" stroke="midnightblue" points="2509.91,-85.4 2514.41,-75.81 2504.91,-80.5 2509.91,-85.4"/>
</g>
<!-- Node33 -->
<g id="node32" class="node">
<title>Node33</title>
<g id="a_node32"><a xlink:href="colorspace_8h.html" target="_top" xlink:title=" ">
<polygon fill="white" stroke="black" points="2588,-0.5 2588,-19.5 2705,-19.5 2705,-0.5 2588,-0.5"/>
<text text-anchor="middle" x="2646.5" y="-7.5" font-family="FreeSans" font-size="10.00">magick/colorspace.h</text>
</a>
</g>
</g>
<!-- Node30&#45;&gt;Node33 -->
<g id="edge44" class="edge">
<title>Node30&#45;&gt;Node33</title>
<path fill="none" stroke="midnightblue" d="M2453.07,-225.37C2456.26,-224.9 2459.42,-224.43 2462.5,-224 2526.58,-214.95 2708.66,-236.51 2751.5,-188 2798.42,-134.87 2709.56,-57.79 2667.19,-25.79"/>
<polygon fill="midnightblue" stroke="midnightblue" points="2669.04,-22.8 2658.92,-19.67 2664.87,-28.43 2669.04,-22.8"/>
</g>
<!-- Node35 -->
<g id="node33" class="node">
<title>Node35</title>
<g id="a_node33"><a xlink:href="blob_8h.html" target="_top" xlink:title=" ">
<polygon fill="white" stroke="red" points="2656.5,-168.5 2656.5,-187.5 2742.5,-187.5 2742.5,-168.5 2656.5,-168.5"/>
<text text-anchor="middle" x="2699.5" y="-175.5" font-family="FreeSans" font-size="10.00">magick/blob.h</text>
</a>
</g>
</g>
<!-- Node30&#45;&gt;Node35 -->
<g id="edge42" class="edge">
<title>Node30&#45;&gt;Node35</title>
<path fill="none" stroke="midnightblue" d="M2447,-224.44C2499.33,-214.43 2589.15,-197.93 2646.42,-187.81"/>
<polygon fill="midnightblue" stroke="midnightblue" points="2647.13,-191.23 2656.37,-186.05 2645.91,-184.34 2647.13,-191.23"/>
</g>
<!-- Node37 -->
<g id="node34" class="node">
<title>Node37</title>
<g id="a_node34"><a xlink:href="cache-view_8h.html" target="_top" xlink:title=" ">
<polygon fill="white" stroke="black" points="2491,-112.5 2491,-131.5 2610,-131.5 2610,-112.5 2491,-112.5"/>
<text text-anchor="middle" x="2550.5" y="-119.5" font-family="FreeSans" font-size="10.00">magick/cache&#45;view.h</text>
</a>
</g>
</g>
<!-- Node30&#45;&gt;Node37 -->
<g id="edge45" class="edge">
<title>Node30&#45;&gt;Node37</title>
<path fill="none" stroke="midnightblue" d="M2450.85,-224.48C2509.42,-213.26 2604.49,-194.24 2609.5,-188 2624.43,-169.41 2599.08,-149.27 2577.1,-136.41"/>
<polygon fill="midnightblue" stroke="midnightblue" points="2578.77,-133.33 2568.33,-131.54 2575.37,-139.45 2578.77,-133.33"/>
</g>
<!-- Node38 -->
<g id="node35" class="node">
<title>Node38</title>
<g id="a_node35"><a xlink:href="composite_8h.html" target="_top" xlink:title=" ">
<polygon fill="white" stroke="black" points="2798.5,-168.5 2798.5,-187.5 2914.5,-187.5 2914.5,-168.5 2798.5,-168.5"/>
<text text-anchor="middle" x="2856.5" y="-175.5" font-family="FreeSans" font-size="10.00">magick/composite.h</text>
</a>
</g>
</g>
<!-- Node30&#45;&gt;Node38 -->
<g id="edge47" class="edge">
<title>Node30&#45;&gt;Node38</title>
<path fill="none" stroke="midnightblue" d="M2453.06,-225.33C2456.25,-224.86 2459.42,-224.41 2462.5,-224 2605.21,-204.77 2641.5,-204.93 2784.5,-188 2785.77,-187.85 2787.05,-187.7 2788.33,-187.54"/>
<polygon fill="midnightblue" stroke="midnightblue" points="2788.84,-191.01 2798.35,-186.33 2788,-184.06 2788.84,-191.01"/>
</g>
<!-- Node39 -->
<g id="node36" class="node">
<title>Node39</title>
<g id="a_node36"><a xlink:href="compress_8h.html" target="_top" xlink:title=" ">
<polygon fill="white" stroke="black" points="2932.5,-168.5 2932.5,-187.5 3044.5,-187.5 3044.5,-168.5 2932.5,-168.5"/>
<text text-anchor="middle" x="2988.5" y="-175.5" font-family="FreeSans" font-size="10.00">magick/compress.h</text>
</a>
</g>
</g>
<!-- Node30&#45;&gt;Node39 -->
<g id="edge48" class="edge">
<title>Node30&#45;&gt;Node39</title>
<path fill="none" stroke="midnightblue" d="M2453.05,-225.21C2456.24,-224.77 2459.42,-224.36 2462.5,-224 2663.31,-200.34 2717.45,-209.79 2921.98,-188.1"/>
<polygon fill="midnightblue" stroke="midnightblue" points="2922.59,-191.56 2932.16,-187.01 2921.84,-184.6 2922.59,-191.56"/>
</g>
<!-- Node40 -->
<g id="node37" class="node">
<title>Node40</title>
<g id="a_node37"><a xlink:href="effect_8h.html" target="_top" xlink:title=" ">
<polygon fill="white" stroke="red" points="3062.5,-168.5 3062.5,-187.5 3154.5,-187.5 3154.5,-168.5 3062.5,-168.5"/>
<text text-anchor="middle" x="3108.5" y="-175.5" font-family="FreeSans" font-size="10.00">magick/effect.h</text>
</a>
</g>
</g>
<!-- Node30&#45;&gt;Node40 -->
<g id="edge49" class="edge">
<title>Node30&#45;&gt;Node40</title>
<path fill="none" stroke="midnightblue" d="M2453.04,-225.14C2456.24,-224.72 2459.41,-224.34 2462.5,-224 2720.78,-195.81 2790.23,-216.74 3052.13,-188.04"/>
<polygon fill="midnightblue" stroke="midnightblue" points="3052.78,-191.48 3062.33,-186.9 3052.01,-184.53 3052.78,-191.48"/>
</g>
<!-- Node42 -->
<g id="node38" class="node">
<title>Node42</title>
<g id="a_node38"><a xlink:href="geometry_8h.html" target="_top" xlink:title=" ">
<polygon fill="white" stroke="black" points="1895.5,-168.5 1895.5,-187.5 2005.5,-187.5 2005.5,-168.5 1895.5,-168.5"/>
<text text-anchor="middle" x="1950.5" y="-175.5" font-family="FreeSans" font-size="10.00">magick/geometry.h</text>
</a>
</g>
</g>
<!-- Node30&#45;&gt;Node42 -->
<g id="edge50" class="edge">
<title>Node30&#45;&gt;Node42</title>
<path fill="none" stroke="midnightblue" d="M2357.73,-227.84C2286.03,-220.02 2146.07,-204.45 2015.95,-188.03"/>
<polygon fill="midnightblue" stroke="midnightblue" points="2016.17,-184.53 2005.81,-186.74 2015.29,-191.47 2016.17,-184.53"/>
</g>
<!-- Node43 -->
<g id="node39" class="node">
<title>Node43</title>
<g id="a_node39"><a xlink:href="layer_8h.html" target="_top" xlink:title=" ">
<polygon fill="white" stroke="black" points="2024,-168.5 2024,-187.5 2113,-187.5 2113,-168.5 2024,-168.5"/>
<text text-anchor="middle" x="2068.5" y="-175.5" font-family="FreeSans" font-size="10.00">magick/layer.h</text>
</a>
</g>
</g>
<!-- Node30&#45;&gt;Node43 -->
<g id="edge51" class="edge">
<title>Node30&#45;&gt;Node43</title>
<path fill="none" stroke="midnightblue" d="M2357.99,-225.64C2303.61,-217.17 2211.58,-202.73 2122.98,-188.23"/>
<polygon fill="midnightblue" stroke="midnightblue" points="2123.46,-184.76 2113.03,-186.6 2122.33,-191.67 2123.46,-184.76"/>
</g>
<!-- Node44 -->
<g id="node40" class="node">
<title>Node44</title>
<g id="a_node40"><a xlink:href="locale___8h.html" target="_top" xlink:title=" ">
<polygon fill="white" stroke="red" points="3173,-168.5 3173,-187.5 3272,-187.5 3272,-168.5 3173,-168.5"/>
<text text-anchor="middle" x="3222.5" y="-175.5" font-family="FreeSans" font-size="10.00">magick/locale_.h</text>
</a>
</g>
</g>
<!-- Node30&#45;&gt;Node44 -->
<g id="edge52" class="edge">
<title>Node30&#45;&gt;Node44</title>
<path fill="none" stroke="midnightblue" d="M2453.04,-225.11C2456.23,-224.7 2459.41,-224.32 2462.5,-224 2769.45,-191.98 2851.38,-218.97 3162.75,-187.95"/>
<polygon fill="midnightblue" stroke="midnightblue" points="3163.37,-191.41 3172.97,-186.92 3162.67,-184.44 3163.37,-191.41"/>
</g>
<!-- Node46 -->
<g id="node41" class="node">
<title>Node46</title>
<g id="a_node41"><a xlink:href="monitor_8h.html" target="_top" xlink:title=" ">
<polygon fill="white" stroke="black" points="2130.5,-168.5 2130.5,-187.5 2232.5,-187.5 2232.5,-168.5 2130.5,-168.5"/>
<text text-anchor="middle" x="2181.5" y="-175.5" font-family="FreeSans" font-size="10.00">magick/monitor.h</text>
</a>
</g>
</g>
<!-- Node30&#45;&gt;Node46 -->
<g id="edge53" class="edge">
<title>Node30&#45;&gt;Node46</title>
<path fill="none" stroke="midnightblue" d="M2370.01,-224.44C2331.18,-215.08 2268.84,-200.06 2226.58,-189.87"/>
<polygon fill="midnightblue" stroke="midnightblue" points="2227.37,-186.46 2216.83,-187.52 2225.73,-193.26 2227.37,-186.46"/>
</g>
<!-- Node47 -->
<g id="node42" class="node">
<title>Node47</title>
<g id="a_node42"><a xlink:href="profile_8h.html" target="_top" xlink:title=" ">
<polygon fill="white" stroke="black" points="1575,-168.5 1575,-187.5 1670,-187.5 1670,-168.5 1575,-168.5"/>
<text text-anchor="middle" x="1622.5" y="-175.5" font-family="FreeSans" font-size="10.00">magick/profile.h</text>
</a>
</g>
</g>
<!-- Node30&#45;&gt;Node47 -->
<g id="edge55" class="edge">
<title>Node30&#45;&gt;Node47</title>
<path fill="none" stroke="midnightblue" d="M2357.87,-230.64C2221.43,-223.78 1829.9,-203.45 1679.99,-187.91"/>
<polygon fill="midnightblue" stroke="midnightblue" points="1680.36,-184.43 1670.04,-186.85 1679.61,-191.39 1680.36,-184.43"/>
</g>
<!-- Node48 -->
<g id="node43" class="node">
<title>Node48</title>
<g id="a_node43"><a xlink:href="quantum_8h.html" target="_top" xlink:title=" ">
<polygon fill="white" stroke="red" points="2250.5,-168.5 2250.5,-187.5 2358.5,-187.5 2358.5,-168.5 2250.5,-168.5"/>
<text text-anchor="middle" x="2304.5" y="-175.5" font-family="FreeSans" font-size="10.00">magick/quantum.h</text>
</a>
</g>
</g>
<!-- Node30&#45;&gt;Node48 -->
<g id="edge57" class="edge">
<title>Node30&#45;&gt;Node48</title>
<path fill="none" stroke="midnightblue" d="M2384.41,-224.44C2366.58,-215.91 2341.53,-202.67 2324.13,-192.68"/>
<polygon fill="midnightblue" stroke="midnightblue" points="2325.74,-189.57 2315.35,-187.52 2322.19,-195.6 2325.74,-189.57"/>
</g>
<!-- Node50 -->
<g id="node44" class="node">
<title>Node50</title>
<g id="a_node44"><a xlink:href="resample_8h.html" target="_top" xlink:title=" ">
<polygon fill="white" stroke="black" points="2490.5,-168.5 2490.5,-187.5 2600.5,-187.5 2600.5,-168.5 2490.5,-168.5"/>
<text text-anchor="middle" x="2545.5" y="-175.5" font-family="FreeSans" font-size="10.00">magick/resample.h</text>
</a>
</g>
</g>
<!-- Node30&#45;&gt;Node50 -->
<g id="edge60" class="edge">
<title>Node30&#45;&gt;Node50</title>
<path fill="none" stroke="midnightblue" d="M2427.68,-224.44C2450.93,-215.48 2487.65,-201.31 2513.92,-191.18"/>
<polygon fill="midnightblue" stroke="midnightblue" points="2515.35,-194.38 2523.42,-187.52 2512.83,-187.85 2515.35,-194.38"/>
</g>
<!-- Node31&#45;&gt;Node24 -->
<g id="edge41" class="edge">
<title>Node31&#45;&gt;Node24</title>
<path fill="none" stroke="midnightblue" d="M2308.17,-115.77C2227.49,-106.26 2056.24,-86.07 1961.33,-74.88"/>
<polygon fill="midnightblue" stroke="midnightblue" points="1961.61,-71.39 1951.27,-73.69 1960.79,-78.34 1961.61,-71.39"/>
</g>
<!-- Node31&#45;&gt;Node32 -->
<g id="edge39" class="edge">
<title>Node31&#45;&gt;Node32</title>
<path fill="none" stroke="midnightblue" d="M2379.6,-112.44C2408.49,-103.32 2454.42,-88.81 2486.61,-78.65"/>
<polygon fill="midnightblue" stroke="midnightblue" points="2488.05,-81.87 2496.53,-75.52 2485.94,-75.19 2488.05,-81.87"/>
</g>
<!-- Node32&#45;&gt;Node33 -->
<g id="edge40" class="edge">
<title>Node32&#45;&gt;Node33</title>
<path fill="none" stroke="midnightblue" d="M2542.99,-56.44C2563.14,-47.6 2594.82,-33.69 2617.83,-23.59"/>
<polygon fill="midnightblue" stroke="midnightblue" points="2619.35,-26.74 2627.1,-19.52 2616.54,-20.33 2619.35,-26.74"/>
</g>
<!-- Node35&#45;&gt;Node30 -->
<g id="edge43" class="edge">
<title>Node35&#45;&gt;Node30</title>
<path fill="none" stroke="midnightblue" d="M2657.9,-187.58C2606.94,-197.33 2520.52,-213.21 2463.18,-223.38"/>
<polygon fill="midnightblue" stroke="midnightblue" points="2462.42,-219.96 2453.18,-225.15 2463.63,-226.85 2462.42,-219.96"/>
</g>
<!-- Node37&#45;&gt;Node32 -->
<g id="edge46" class="edge">
<title>Node37&#45;&gt;Node32</title>
<path fill="none" stroke="midnightblue" d="M2546.04,-112.08C2542.35,-104.69 2536.98,-93.95 2532.41,-84.81"/>
<polygon fill="midnightblue" stroke="midnightblue" points="2535.48,-83.13 2527.88,-75.75 2529.22,-86.26 2535.48,-83.13"/>
</g>
<!-- Node47&#45;&gt;Node29 -->
<g id="edge56" class="edge">
<title>Node47&#45;&gt;Node29</title>
<path fill="none" stroke="midnightblue" d="M1622.5,-168.08C1622.5,-161.01 1622.5,-150.86 1622.5,-141.99"/>
<polygon fill="midnightblue" stroke="midnightblue" points="1626,-141.75 1622.5,-131.75 1619,-141.75 1626,-141.75"/>
</g>
<!-- Node48&#45;&gt;Node25 -->
<g id="edge59" class="edge">
<title>Node48&#45;&gt;Node25</title>
<path fill="none" stroke="midnightblue" d="M2289.21,-168.31C2241.41,-141.14 2094.53,-57.64 2036.48,-24.63"/>
<polygon fill="midnightblue" stroke="midnightblue" points="2038.06,-21.5 2027.64,-19.61 2034.6,-27.59 2038.06,-21.5"/>
</g>
<!-- Node48&#45;&gt;Node30 -->
<g id="edge58" class="edge">
<title>Node48&#45;&gt;Node30</title>
<path fill="none" stroke="midnightblue" d="M2325.8,-187.65C2343.53,-196.15 2368.3,-209.24 2385.62,-219.18"/>
<polygon fill="midnightblue" stroke="midnightblue" points="2383.99,-222.28 2394.39,-224.32 2387.54,-216.24 2383.99,-222.28"/>
</g>
<!-- Node50&#45;&gt;Node37 -->
<g id="edge61" class="edge">
<title>Node50&#45;&gt;Node37</title>
<path fill="none" stroke="midnightblue" d="M2546.33,-168.08C2546.98,-161.01 2547.92,-150.86 2548.74,-141.99"/>
<polygon fill="midnightblue" stroke="midnightblue" points="2552.25,-142.03 2549.69,-131.75 2545.28,-141.39 2552.25,-142.03"/>
</g>
<!-- Node54&#45;&gt;Node9 -->
<g id="edge65" class="edge">
<title>Node54&#45;&gt;Node9</title>
<path fill="none" stroke="midnightblue" d="M1467.45,-224.08C1471.6,-216.61 1477.65,-205.72 1482.77,-196.52"/>
<polygon fill="midnightblue" stroke="midnightblue" points="1485.84,-198.19 1487.64,-187.75 1479.72,-194.79 1485.84,-198.19"/>
</g>
<!-- Node54&#45;&gt;Node15 -->
<g id="edge66" class="edge">
<title>Node54&#45;&gt;Node15</title>
<path fill="none" stroke="midnightblue" d="M1455.56,-224.08C1449.57,-216.38 1440.75,-205.03 1433.45,-195.65"/>
<polygon fill="midnightblue" stroke="midnightblue" points="1436.21,-193.5 1427.31,-187.75 1430.68,-197.79 1436.21,-193.5"/>
</g>
<!-- Node55&#45;&gt;Node44 -->
<g id="edge69" class="edge">
<title>Node55&#45;&gt;Node44</title>
<path fill="none" stroke="midnightblue" d="M2602.33,-224.9C2605.43,-224.58 2608.5,-224.28 2611.5,-224 2853.08,-201.64 2917.4,-214.22 3163.02,-187.95"/>
<polygon fill="midnightblue" stroke="midnightblue" points="3163.4,-191.43 3172.97,-186.87 3162.65,-184.47 3163.4,-191.43"/>
</g>
</g>
</svg>
