<?xml version="1.0" encoding="UTF-8" standalone="no"?>
<!DOCTYPE svg PUBLIC "-//W3C//DTD SVG 1.1//EN"
 "http://www.w3.org/Graphics/SVG/1.1/DTD/svg11.dtd">
<!-- Generated by graphviz version 2.43.0 (0)
 -->
<!-- Title: token&#45;private.h Pages: 1 -->
<svg width="392pt" height="84pt"
 viewBox="0.00 0.00 391.50 84.00" xmlns="http://www.w3.org/2000/svg" xmlns:xlink="http://www.w3.org/1999/xlink">
<g id="graph0" class="graph" transform="scale(1 1) rotate(0) translate(4 80)">
<title>token&#45;private.h</title>
<polygon fill="white" stroke="transparent" points="-4,4 -4,-80 387.5,-80 387.5,4 -4,4"/>
<!-- Node1 -->
<g id="node1" class="node">
<title>Node1</title>
<g id="a_node1"><a xlink:title=" ">
<polygon fill="#bfbfbf" stroke="black" points="154.5,-56.5 154.5,-75.5 245.5,-75.5 245.5,-56.5 154.5,-56.5"/>
<text text-anchor="middle" x="200" y="-63.5" font-family="FreeSans" font-size="10.00">token&#45;private.h</text>
</a>
</g>
</g>
<!-- Node2 -->
<g id="node2" class="node">
<title>Node2</title>
<g id="a_node2"><a xlink:href="annotate_8c.html" target="_top" xlink:title=" ">
<polygon fill="white" stroke="black" points="0,-0.5 0,-19.5 68,-19.5 68,-0.5 0,-0.5"/>
<text text-anchor="middle" x="34" y="-7.5" font-family="FreeSans" font-size="10.00">annotate.c</text>
</a>
</g>
</g>
<!-- Node1&#45;&gt;Node2 -->
<g id="edge1" class="edge">
<title>Node1&#45;&gt;Node2</title>
<path fill="none" stroke="midnightblue" d="M164.05,-53.3C132.77,-43.13 88.18,-28.62 60.18,-19.52"/>
<polygon fill="midnightblue" stroke="midnightblue" points="163.1,-56.68 173.7,-56.44 165.27,-50.02 163.1,-56.68"/>
</g>
<!-- Node3 -->
<g id="node3" class="node">
<title>Node3</title>
<g id="a_node3"><a xlink:href="delegate_8c.html" target="_top" xlink:title=" ">
<polygon fill="white" stroke="black" points="86,-0.5 86,-19.5 154,-19.5 154,-0.5 86,-0.5"/>
<text text-anchor="middle" x="120" y="-7.5" font-family="FreeSans" font-size="10.00">delegate.c</text>
</a>
</g>
</g>
<!-- Node1&#45;&gt;Node3 -->
<g id="edge2" class="edge">
<title>Node1&#45;&gt;Node3</title>
<path fill="none" stroke="midnightblue" d="M178.7,-50.62C164.08,-40.76 145.17,-27.99 132.82,-19.65"/>
<polygon fill="midnightblue" stroke="midnightblue" points="176.9,-53.63 187.15,-56.32 180.82,-47.83 176.9,-53.63"/>
</g>
<!-- Node4 -->
<g id="node4" class="node">
<title>Node4</title>
<g id="a_node4"><a xlink:href="image_8c.html" target="_top" xlink:title=" ">
<polygon fill="white" stroke="black" points="172,-0.5 172,-19.5 228,-19.5 228,-0.5 172,-0.5"/>
<text text-anchor="middle" x="200" y="-7.5" font-family="FreeSans" font-size="10.00">image.c</text>
</a>
</g>
</g>
<!-- Node1&#45;&gt;Node4 -->
<g id="edge3" class="edge">
<title>Node1&#45;&gt;Node4</title>
<path fill="none" stroke="midnightblue" d="M200,-45.8C200,-36.91 200,-26.78 200,-19.75"/>
<polygon fill="midnightblue" stroke="midnightblue" points="196.5,-46.08 200,-56.08 203.5,-46.08 196.5,-46.08"/>
</g>
<!-- Node5 -->
<g id="node5" class="node">
<title>Node5</title>
<g id="a_node5"><a xlink:href="token_8c.html" target="_top" xlink:title=" ">
<polygon fill="white" stroke="black" points="246,-0.5 246,-19.5 298,-19.5 298,-0.5 246,-0.5"/>
<text text-anchor="middle" x="272" y="-7.5" font-family="FreeSans" font-size="10.00">token.c</text>
</a>
</g>
</g>
<!-- Node1&#45;&gt;Node5 -->
<g id="edge4" class="edge">
<title>Node1&#45;&gt;Node5</title>
<path fill="none" stroke="midnightblue" d="M219.87,-50.1C232.82,-40.38 249.3,-28.03 260.22,-19.83"/>
<polygon fill="midnightblue" stroke="midnightblue" points="217.47,-47.52 211.57,-56.32 221.67,-53.12 217.47,-47.52"/>
</g>
<!-- Node6 -->
<g id="node6" class="node">
<title>Node6</title>
<g id="a_node6"><a xlink:href="xml-tree_8c.html" target="_top" xlink:title=" ">
<polygon fill="white" stroke="black" points="316.5,-0.5 316.5,-19.5 383.5,-19.5 383.5,-0.5 316.5,-0.5"/>
<text text-anchor="middle" x="350" y="-7.5" font-family="FreeSans" font-size="10.00">xml&#45;tree.c</text>
</a>
</g>
</g>
<!-- Node1&#45;&gt;Node6 -->
<g id="edge5" class="edge">
<title>Node1&#45;&gt;Node6</title>
<path fill="none" stroke="midnightblue" d="M233.22,-53.04C261.45,-42.88 301.26,-28.55 326.34,-19.52"/>
<polygon fill="midnightblue" stroke="midnightblue" points="231.99,-49.76 223.77,-56.44 234.36,-56.35 231.99,-49.76"/>
</g>
</g>
</svg>
