<?xml version="1.0" encoding="UTF-8" standalone="no"?>
<!DOCTYPE svg PUBLIC "-//W3C//DTD SVG 1.1//EN"
 "http://www.w3.org/Graphics/SVG/1.1/DTD/svg11.dtd">
<!-- Generated by graphviz version 2.43.0 (0)
 -->
<!-- Title: token.h Pages: 1 -->
<svg width="3529pt" height="140pt"
 viewBox="0.00 0.00 3529.00 140.00" xmlns="http://www.w3.org/2000/svg" xmlns:xlink="http://www.w3.org/1999/xlink">
<g id="graph0" class="graph" transform="scale(1 1) rotate(0) translate(4 136)">
<title>token.h</title>
<polygon fill="white" stroke="transparent" points="-4,4 -4,-136 3525,-136 3525,4 -4,4"/>
<!-- Node1 -->
<g id="node1" class="node">
<title>Node1</title>
<g id="a_node1"><a xlink:title=" ">
<polygon fill="#bfbfbf" stroke="black" points="1832.5,-112.5 1832.5,-131.5 1885.5,-131.5 1885.5,-112.5 1832.5,-112.5"/>
<text text-anchor="middle" x="1859" y="-119.5" font-family="FreeSans" font-size="10.00">token.h</text>
</a>
</g>
</g>
<!-- Node2 -->
<g id="node2" class="node">
<title>Node2</title>
<g id="a_node2"><a xlink:href="MagickCore_8h.html" target="_top" xlink:title=" ">
<polygon fill="white" stroke="black" points="89.5,-56.5 89.5,-75.5 172.5,-75.5 172.5,-56.5 89.5,-56.5"/>
<text text-anchor="middle" x="131" y="-63.5" font-family="FreeSans" font-size="10.00">MagickCore.h</text>
</a>
</g>
</g>
<!-- Node1&#45;&gt;Node2 -->
<g id="edge1" class="edge">
<title>Node1&#45;&gt;Node2</title>
<path fill="none" stroke="midnightblue" d="M1822.29,-120.75C1607.93,-119.21 515.94,-109.76 182,-76 178.96,-75.69 175.83,-75.31 172.68,-74.87"/>
<polygon fill="midnightblue" stroke="midnightblue" points="1822.37,-124.25 1832.39,-120.83 1822.42,-117.25 1822.37,-124.25"/>
</g>
<!-- Node6 -->
<g id="node6" class="node">
<title>Node6</title>
<g id="a_node6"><a xlink:href="accelerate_8c.html" target="_top" xlink:title=" ">
<polygon fill="white" stroke="black" points="191,-56.5 191,-75.5 267,-75.5 267,-56.5 191,-56.5"/>
<text text-anchor="middle" x="229" y="-63.5" font-family="FreeSans" font-size="10.00">accelerate.c</text>
</a>
</g>
</g>
<!-- Node1&#45;&gt;Node6 -->
<g id="edge5" class="edge">
<title>Node1&#45;&gt;Node6</title>
<path fill="none" stroke="midnightblue" d="M1822.4,-120.76C1615.44,-119.28 589.97,-110.3 276,-76 273.11,-75.68 270.13,-75.29 267.14,-74.84"/>
<polygon fill="midnightblue" stroke="midnightblue" points="1822.42,-124.26 1832.44,-120.83 1822.47,-117.26 1822.42,-124.26"/>
</g>
<!-- Node7 -->
<g id="node7" class="node">
<title>Node7</title>
<g id="a_node7"><a xlink:href="annotate_8c.html" target="_top" xlink:title=" ">
<polygon fill="white" stroke="black" points="285,-56.5 285,-75.5 353,-75.5 353,-56.5 285,-56.5"/>
<text text-anchor="middle" x="319" y="-63.5" font-family="FreeSans" font-size="10.00">annotate.c</text>
</a>
</g>
</g>
<!-- Node1&#45;&gt;Node7 -->
<g id="edge6" class="edge">
<title>Node1&#45;&gt;Node7</title>
<path fill="none" stroke="midnightblue" d="M1822.19,-120.77C1621.51,-119.41 657.53,-111.09 362,-76 359.12,-75.66 356.15,-75.22 353.18,-74.72"/>
<polygon fill="midnightblue" stroke="midnightblue" points="1822.46,-124.28 1832.49,-120.84 1822.51,-117.28 1822.46,-124.28"/>
</g>
<!-- Node8 -->
<g id="node8" class="node">
<title>Node8</title>
<g id="a_node8"><a xlink:href="artifact_8c.html" target="_top" xlink:title=" ">
<polygon fill="white" stroke="black" points="371,-56.5 371,-75.5 431,-75.5 431,-56.5 371,-56.5"/>
<text text-anchor="middle" x="401" y="-63.5" font-family="FreeSans" font-size="10.00">artifact.c</text>
</a>
</g>
</g>
<!-- Node1&#45;&gt;Node8 -->
<g id="edge7" class="edge">
<title>Node1&#45;&gt;Node8</title>
<path fill="none" stroke="midnightblue" d="M1821.95,-120.8C1627.03,-119.62 718.72,-112.23 440,-76 437.11,-75.62 434.11,-75.13 431.13,-74.56"/>
<polygon fill="midnightblue" stroke="midnightblue" points="1822.21,-124.31 1832.23,-120.86 1822.25,-117.31 1822.21,-124.31"/>
</g>
<!-- Node9 -->
<g id="node9" class="node">
<title>Node9</title>
<g id="a_node9"><a xlink:href="blob_8c.html" target="_top" xlink:title=" ">
<polygon fill="white" stroke="black" points="449,-56.5 449,-75.5 495,-75.5 495,-56.5 449,-56.5"/>
<text text-anchor="middle" x="472" y="-63.5" font-family="FreeSans" font-size="10.00">blob.c</text>
</a>
</g>
</g>
<!-- Node1&#45;&gt;Node9 -->
<g id="edge8" class="edge">
<title>Node1&#45;&gt;Node9</title>
<path fill="none" stroke="midnightblue" d="M1822.13,-120.93C1632.9,-120.42 769.5,-115.9 505,-76 501.83,-75.52 498.53,-74.84 495.29,-74.07"/>
<polygon fill="midnightblue" stroke="midnightblue" points="1822.37,-124.44 1832.38,-120.96 1822.38,-117.44 1822.37,-124.44"/>
</g>
<!-- Node10 -->
<g id="node10" class="node">
<title>Node10</title>
<g id="a_node10"><a xlink:href="channel_8c.html" target="_top" xlink:title=" ">
<polygon fill="white" stroke="black" points="513.5,-56.5 513.5,-75.5 576.5,-75.5 576.5,-56.5 513.5,-56.5"/>
<text text-anchor="middle" x="545" y="-63.5" font-family="FreeSans" font-size="10.00">channel.c</text>
</a>
</g>
</g>
<!-- Node1&#45;&gt;Node10 -->
<g id="edge9" class="edge">
<title>Node1&#45;&gt;Node10</title>
<path fill="none" stroke="midnightblue" d="M1822.35,-120.6C1640.57,-118.47 834.59,-107.42 586,-76 582.96,-75.62 579.82,-75.12 576.69,-74.55"/>
<polygon fill="midnightblue" stroke="midnightblue" points="1822.42,-124.1 1832.46,-120.72 1822.5,-117.1 1822.42,-124.1"/>
</g>
<!-- Node11 -->
<g id="node11" class="node">
<title>Node11</title>
<g id="a_node11"><a xlink:href="coder_8c.html" target="_top" xlink:title=" ">
<polygon fill="white" stroke="black" points="594.5,-56.5 594.5,-75.5 645.5,-75.5 645.5,-56.5 594.5,-56.5"/>
<text text-anchor="middle" x="620" y="-63.5" font-family="FreeSans" font-size="10.00">coder.c</text>
</a>
</g>
</g>
<!-- Node1&#45;&gt;Node11 -->
<g id="edge10" class="edge">
<title>Node1&#45;&gt;Node11</title>
<path fill="none" stroke="midnightblue" d="M1822.36,-120.69C1646.58,-119.03 888.66,-110.01 655,-76 652.02,-75.57 648.93,-74.98 645.87,-74.31"/>
<polygon fill="midnightblue" stroke="midnightblue" points="1822.36,-124.19 1832.39,-120.78 1822.42,-117.19 1822.36,-124.19"/>
</g>
<!-- Node12 -->
<g id="node12" class="node">
<title>Node12</title>
<g id="a_node12"><a xlink:href="color_8c.html" target="_top" xlink:title=" ">
<polygon fill="white" stroke="black" points="664,-56.5 664,-75.5 712,-75.5 712,-56.5 664,-56.5"/>
<text text-anchor="middle" x="688" y="-63.5" font-family="FreeSans" font-size="10.00">color.c</text>
</a>
</g>
</g>
<!-- Node1&#45;&gt;Node12 -->
<g id="edge11" class="edge">
<title>Node1&#45;&gt;Node12</title>
<path fill="none" stroke="midnightblue" d="M1821.97,-120.63C1651.52,-118.73 941.47,-108.98 722,-76 718.74,-75.51 715.34,-74.83 712.01,-74.05"/>
<polygon fill="midnightblue" stroke="midnightblue" points="1822.14,-124.13 1832.18,-120.74 1822.22,-117.13 1822.14,-124.13"/>
</g>
<!-- Node13 -->
<g id="node13" class="node">
<title>Node13</title>
<g id="a_node13"><a xlink:href="colormap_8c.html" target="_top" xlink:title=" ">
<polygon fill="white" stroke="black" points="730.5,-56.5 730.5,-75.5 801.5,-75.5 801.5,-56.5 730.5,-56.5"/>
<text text-anchor="middle" x="766" y="-63.5" font-family="FreeSans" font-size="10.00">colormap.c</text>
</a>
</g>
</g>
<!-- Node1&#45;&gt;Node13 -->
<g id="edge12" class="edge">
<title>Node1&#45;&gt;Node13</title>
<path fill="none" stroke="midnightblue" d="M1821.9,-121.47C1686.24,-122.76 1204.43,-123.5 811,-76 807.99,-75.64 804.89,-75.18 801.78,-74.67"/>
<polygon fill="midnightblue" stroke="midnightblue" points="1822.19,-124.97 1832.15,-121.37 1822.12,-117.97 1822.19,-124.97"/>
</g>
<!-- Node14 -->
<g id="node14" class="node">
<title>Node14</title>
<g id="a_node14"><a xlink:href="composite_8c.html" target="_top" xlink:title=" ">
<polygon fill="white" stroke="black" points="820,-56.5 820,-75.5 896,-75.5 896,-56.5 820,-56.5"/>
<text text-anchor="middle" x="858" y="-63.5" font-family="FreeSans" font-size="10.00">composite.c</text>
</a>
</g>
</g>
<!-- Node1&#45;&gt;Node14 -->
<g id="edge13" class="edge">
<title>Node1&#45;&gt;Node14</title>
<path fill="none" stroke="midnightblue" d="M1821.95,-121.14C1694.15,-121.22 1260.18,-118.17 905,-76 902.11,-75.66 899.14,-75.24 896.15,-74.77"/>
<polygon fill="midnightblue" stroke="midnightblue" points="1822.33,-124.64 1832.33,-121.13 1822.32,-117.64 1822.33,-124.64"/>
</g>
<!-- Node15 -->
<g id="node15" class="node">
<title>Node15</title>
<g id="a_node15"><a xlink:href="configure_8c.html" target="_top" xlink:title=" ">
<polygon fill="white" stroke="black" points="914,-56.5 914,-75.5 984,-75.5 984,-56.5 914,-56.5"/>
<text text-anchor="middle" x="949" y="-63.5" font-family="FreeSans" font-size="10.00">configure.c</text>
</a>
</g>
</g>
<!-- Node1&#45;&gt;Node15 -->
<g id="edge14" class="edge">
<title>Node1&#45;&gt;Node15</title>
<path fill="none" stroke="midnightblue" d="M1822.19,-121.05C1702.28,-120.81 1312.29,-116.72 993,-76 990.22,-75.64 987.34,-75.21 984.47,-74.73"/>
<polygon fill="midnightblue" stroke="midnightblue" points="1822.29,-124.55 1832.3,-121.07 1822.3,-117.55 1822.29,-124.55"/>
</g>
<!-- Node16 -->
<g id="node16" class="node">
<title>Node16</title>
<g id="a_node16"><a xlink:href="constitute_8c.html" target="_top" xlink:title=" ">
<polygon fill="white" stroke="black" points="1002,-56.5 1002,-75.5 1076,-75.5 1076,-56.5 1002,-56.5"/>
<text text-anchor="middle" x="1039" y="-63.5" font-family="FreeSans" font-size="10.00">constitute.c</text>
</a>
</g>
</g>
<!-- Node1&#45;&gt;Node16 -->
<g id="edge15" class="edge">
<title>Node1&#45;&gt;Node16</title>
<path fill="none" stroke="midnightblue" d="M1822.46,-120.63C1711.26,-119.11 1367.35,-111.66 1085,-76 1082.09,-75.63 1079.09,-75.19 1076.09,-74.7"/>
<polygon fill="midnightblue" stroke="midnightblue" points="1822.44,-124.13 1832.49,-120.75 1822.53,-117.13 1822.44,-124.13"/>
</g>
<!-- Node17 -->
<g id="node17" class="node">
<title>Node17</title>
<g id="a_node17"><a xlink:href="delegate_8c.html" target="_top" xlink:title=" ">
<polygon fill="white" stroke="black" points="1094,-56.5 1094,-75.5 1162,-75.5 1162,-56.5 1094,-56.5"/>
<text text-anchor="middle" x="1128" y="-63.5" font-family="FreeSans" font-size="10.00">delegate.c</text>
</a>
</g>
</g>
<!-- Node1&#45;&gt;Node17 -->
<g id="edge16" class="edge">
<title>Node1&#45;&gt;Node17</title>
<path fill="none" stroke="midnightblue" d="M1822.09,-120.41C1718.78,-118.38 1418.13,-109.77 1171,-76 1168.13,-75.61 1165.16,-75.13 1162.19,-74.61"/>
<polygon fill="midnightblue" stroke="midnightblue" points="1822.24,-123.92 1832.3,-120.61 1822.37,-116.92 1822.24,-123.92"/>
</g>
<!-- Node18 -->
<g id="node18" class="node">
<title>Node18</title>
<g id="a_node18"><a xlink:href="deprecate_8c.html" target="_top" xlink:title=" ">
<polygon fill="white" stroke="black" points="1180,-56.5 1180,-75.5 1254,-75.5 1254,-56.5 1180,-56.5"/>
<text text-anchor="middle" x="1217" y="-63.5" font-family="FreeSans" font-size="10.00">deprecate.c</text>
</a>
</g>
</g>
<!-- Node1&#45;&gt;Node18 -->
<g id="edge17" class="edge">
<title>Node1&#45;&gt;Node18</title>
<path fill="none" stroke="midnightblue" d="M1822.36,-119.74C1728.82,-116.19 1473.66,-104.46 1263,-76 1260.1,-75.61 1257.1,-75.15 1254.09,-74.65"/>
<polygon fill="midnightblue" stroke="midnightblue" points="1822.32,-123.24 1832.45,-120.11 1822.58,-116.24 1822.32,-123.24"/>
</g>
<!-- Node19 -->
<g id="node19" class="node">
<title>Node19</title>
<g id="a_node19"><a xlink:href="distort_8c.html" target="_top" xlink:title=" ">
<polygon fill="white" stroke="black" points="1272,-56.5 1272,-75.5 1328,-75.5 1328,-56.5 1272,-56.5"/>
<text text-anchor="middle" x="1300" y="-63.5" font-family="FreeSans" font-size="10.00">distort.c</text>
</a>
</g>
</g>
<!-- Node1&#45;&gt;Node19 -->
<g id="edge18" class="edge">
<title>Node1&#45;&gt;Node19</title>
<path fill="none" stroke="midnightblue" d="M1822.24,-119.76C1736.65,-116.45 1517.56,-105.57 1337,-76 1334.13,-75.53 1331.15,-74.96 1328.19,-74.33"/>
<polygon fill="midnightblue" stroke="midnightblue" points="1822.36,-123.27 1832.48,-120.14 1822.62,-116.27 1822.36,-123.27"/>
</g>
<!-- Node20 -->
<g id="node20" class="node">
<title>Node20</title>
<g id="a_node20"><a xlink:href="draw_8c.html" target="_top" xlink:title=" ">
<polygon fill="white" stroke="black" points="1346,-56.5 1346,-75.5 1394,-75.5 1394,-56.5 1346,-56.5"/>
<text text-anchor="middle" x="1370" y="-63.5" font-family="FreeSans" font-size="10.00">draw.c</text>
</a>
</g>
</g>
<!-- Node1&#45;&gt;Node20 -->
<g id="edge19" class="edge">
<title>Node1&#45;&gt;Node20</title>
<path fill="none" stroke="midnightblue" d="M1822.04,-119.46C1744.04,-115.74 1557.11,-104.41 1403,-76 1400.08,-75.46 1397.04,-74.79 1394.04,-74.06"/>
<polygon fill="midnightblue" stroke="midnightblue" points="1822.16,-122.97 1832.31,-119.93 1822.48,-115.97 1822.16,-122.97"/>
</g>
<!-- Node21 -->
<g id="node21" class="node">
<title>Node21</title>
<g id="a_node21"><a xlink:href="enhance_8c.html" target="_top" xlink:title=" ">
<polygon fill="white" stroke="black" points="1412,-56.5 1412,-75.5 1478,-75.5 1478,-56.5 1412,-56.5"/>
<text text-anchor="middle" x="1445" y="-63.5" font-family="FreeSans" font-size="10.00">enhance.c</text>
</a>
</g>
</g>
<!-- Node1&#45;&gt;Node21 -->
<g id="edge20" class="edge">
<title>Node1&#45;&gt;Node21</title>
<path fill="none" stroke="midnightblue" d="M1822.22,-117.67C1755.26,-111.35 1609.11,-96.43 1487,-76 1484.21,-75.53 1481.31,-75.01 1478.42,-74.45"/>
<polygon fill="midnightblue" stroke="midnightblue" points="1821.99,-121.16 1832.27,-118.61 1822.64,-114.19 1821.99,-121.16"/>
</g>
<!-- Node22 -->
<g id="node22" class="node">
<title>Node22</title>
<g id="a_node22"><a xlink:href="feature_8c.html" target="_top" xlink:title=" ">
<polygon fill="white" stroke="black" points="1496,-56.5 1496,-75.5 1556,-75.5 1556,-56.5 1496,-56.5"/>
<text text-anchor="middle" x="1526" y="-63.5" font-family="FreeSans" font-size="10.00">feature.c</text>
</a>
</g>
</g>
<!-- Node1&#45;&gt;Node22 -->
<g id="edge21" class="edge">
<title>Node1&#45;&gt;Node22</title>
<path fill="none" stroke="midnightblue" d="M1822.15,-116.17C1766.48,-108.69 1657.69,-93.33 1566,-76 1562.78,-75.39 1559.43,-74.71 1556.09,-74"/>
<polygon fill="midnightblue" stroke="midnightblue" points="1821.86,-119.66 1832.23,-117.52 1822.78,-112.72 1821.86,-119.66"/>
</g>
<!-- Node23 -->
<g id="node23" class="node">
<title>Node23</title>
<g id="a_node23"><a xlink:href="fx_8c.html" target="_top" xlink:title=" ">
<polygon fill="white" stroke="black" points="1574.5,-56.5 1574.5,-75.5 1609.5,-75.5 1609.5,-56.5 1574.5,-56.5"/>
<text text-anchor="middle" x="1592" y="-63.5" font-family="FreeSans" font-size="10.00">fx.c</text>
</a>
</g>
</g>
<!-- Node1&#45;&gt;Node23 -->
<g id="edge22" class="edge">
<title>Node1&#45;&gt;Node23</title>
<path fill="none" stroke="midnightblue" d="M1822.38,-115.73C1775.02,-108.54 1690.15,-94.44 1619,-76 1615.94,-75.21 1612.72,-74.25 1609.62,-73.26"/>
<polygon fill="midnightblue" stroke="midnightblue" points="1822.05,-119.22 1832.46,-117.24 1823.09,-112.29 1822.05,-119.22"/>
</g>
<!-- Node24 -->
<g id="node24" class="node">
<title>Node24</title>
<g id="a_node24"><a xlink:href="geometry_8c.html" target="_top" xlink:title=" ">
<polygon fill="white" stroke="black" points="1627.5,-56.5 1627.5,-75.5 1698.5,-75.5 1698.5,-56.5 1627.5,-56.5"/>
<text text-anchor="middle" x="1663" y="-63.5" font-family="FreeSans" font-size="10.00">geometry.c</text>
</a>
</g>
</g>
<!-- Node1&#45;&gt;Node24 -->
<g id="edge23" class="edge">
<title>Node1&#45;&gt;Node24</title>
<path fill="none" stroke="midnightblue" d="M1822.28,-110.88C1785.29,-100.69 1728.86,-85.14 1694.04,-75.55"/>
<polygon fill="midnightblue" stroke="midnightblue" points="1821.59,-114.32 1832.16,-113.6 1823.45,-107.57 1821.59,-114.32"/>
</g>
<!-- Node25 -->
<g id="node25" class="node">
<title>Node25</title>
<g id="a_node25"><a xlink:href="identify_8c.html" target="_top" xlink:title=" ">
<polygon fill="white" stroke="black" points="1717,-56.5 1717,-75.5 1777,-75.5 1777,-56.5 1717,-56.5"/>
<text text-anchor="middle" x="1747" y="-63.5" font-family="FreeSans" font-size="10.00">identify.c</text>
</a>
</g>
</g>
<!-- Node1&#45;&gt;Node25 -->
<g id="edge24" class="edge">
<title>Node1&#45;&gt;Node25</title>
<path fill="none" stroke="midnightblue" d="M1831.75,-107.86C1810.98,-97.85 1782.98,-84.35 1764.95,-75.65"/>
<polygon fill="midnightblue" stroke="midnightblue" points="1830.48,-111.13 1841.01,-112.32 1833.52,-104.83 1830.48,-111.13"/>
</g>
<!-- Node26 -->
<g id="node26" class="node">
<title>Node26</title>
<g id="a_node26"><a xlink:href="image_8c.html" target="_top" xlink:title=" ">
<polygon fill="white" stroke="black" points="1795,-56.5 1795,-75.5 1851,-75.5 1851,-56.5 1795,-56.5"/>
<text text-anchor="middle" x="1823" y="-63.5" font-family="FreeSans" font-size="10.00">image.c</text>
</a>
</g>
</g>
<!-- Node1&#45;&gt;Node26 -->
<g id="edge25" class="edge">
<title>Node1&#45;&gt;Node26</title>
<path fill="none" stroke="midnightblue" d="M1847.38,-103.57C1841.18,-94.27 1833.83,-83.25 1828.83,-75.75"/>
<polygon fill="midnightblue" stroke="midnightblue" points="1844.6,-105.7 1853.06,-112.08 1850.42,-101.82 1844.6,-105.7"/>
</g>
<!-- Node27 -->
<g id="node27" class="node">
<title>Node27</title>
<g id="a_node27"><a xlink:href="locale_8c.html" target="_top" xlink:title=" ">
<polygon fill="white" stroke="black" points="1869,-56.5 1869,-75.5 1923,-75.5 1923,-56.5 1869,-56.5"/>
<text text-anchor="middle" x="1896" y="-63.5" font-family="FreeSans" font-size="10.00">locale.c</text>
</a>
</g>
</g>
<!-- Node1&#45;&gt;Node27 -->
<g id="edge26" class="edge">
<title>Node1&#45;&gt;Node27</title>
<path fill="none" stroke="midnightblue" d="M1870.95,-103.57C1877.31,-94.27 1884.87,-83.25 1890,-75.75"/>
<polygon fill="midnightblue" stroke="midnightblue" points="1867.87,-101.86 1865.11,-112.08 1873.65,-105.81 1867.87,-101.86"/>
</g>
<!-- Node28 -->
<g id="node28" class="node">
<title>Node28</title>
<g id="a_node28"><a xlink:href="log_8c.html" target="_top" xlink:title=" ">
<polygon fill="white" stroke="black" points="1941,-56.5 1941,-75.5 1981,-75.5 1981,-56.5 1941,-56.5"/>
<text text-anchor="middle" x="1961" y="-63.5" font-family="FreeSans" font-size="10.00">log.c</text>
</a>
</g>
</g>
<!-- Node1&#45;&gt;Node28 -->
<g id="edge27" class="edge">
<title>Node1&#45;&gt;Node28</title>
<path fill="none" stroke="midnightblue" d="M1884.33,-107.59C1903.19,-97.61 1928.38,-84.27 1944.65,-75.65"/>
<polygon fill="midnightblue" stroke="midnightblue" points="1882.59,-104.55 1875.39,-112.32 1885.86,-110.74 1882.59,-104.55"/>
</g>
<!-- Node29 -->
<g id="node29" class="node">
<title>Node29</title>
<g id="a_node29"><a xlink:href="magic_8c.html" target="_top" xlink:title=" ">
<polygon fill="white" stroke="black" points="1999.5,-56.5 1999.5,-75.5 2054.5,-75.5 2054.5,-56.5 1999.5,-56.5"/>
<text text-anchor="middle" x="2027" y="-63.5" font-family="FreeSans" font-size="10.00">magic.c</text>
</a>
</g>
</g>
<!-- Node1&#45;&gt;Node29 -->
<g id="edge28" class="edge">
<title>Node1&#45;&gt;Node29</title>
<path fill="none" stroke="midnightblue" d="M1895.39,-109.3C1927.04,-99.13 1972.17,-84.62 2000.5,-75.52"/>
<polygon fill="midnightblue" stroke="midnightblue" points="1894.07,-106.05 1885.62,-112.44 1896.21,-112.72 1894.07,-106.05"/>
</g>
<!-- Node30 -->
<g id="node30" class="node">
<title>Node30</title>
<g id="a_node30"><a xlink:href="magick_8c.html" target="_top" xlink:title=" ">
<polygon fill="white" stroke="black" points="2072.5,-56.5 2072.5,-75.5 2133.5,-75.5 2133.5,-56.5 2072.5,-56.5"/>
<text text-anchor="middle" x="2103" y="-63.5" font-family="FreeSans" font-size="10.00">magick.c</text>
</a>
</g>
</g>
<!-- Node1&#45;&gt;Node30 -->
<g id="edge29" class="edge">
<title>Node1&#45;&gt;Node30</title>
<path fill="none" stroke="midnightblue" d="M1895.36,-113.14C1936.36,-104.25 2005.01,-89.28 2064,-76 2066.71,-75.39 2069.53,-74.75 2072.35,-74.11"/>
<polygon fill="midnightblue" stroke="midnightblue" points="1894.59,-109.73 1885.56,-115.27 1896.07,-116.57 1894.59,-109.73"/>
</g>
<!-- Node31 -->
<g id="node31" class="node">
<title>Node31</title>
<g id="a_node31"><a xlink:href="mime_8c.html" target="_top" xlink:title=" ">
<polygon fill="white" stroke="black" points="2151.5,-56.5 2151.5,-75.5 2204.5,-75.5 2204.5,-56.5 2151.5,-56.5"/>
<text text-anchor="middle" x="2178" y="-63.5" font-family="FreeSans" font-size="10.00">mime.c</text>
</a>
</g>
</g>
<!-- Node1&#45;&gt;Node31 -->
<g id="edge30" class="edge">
<title>Node1&#45;&gt;Node31</title>
<path fill="none" stroke="midnightblue" d="M1895.97,-116.28C1950.35,-109.08 2055.01,-94.24 2143,-76 2145.7,-75.44 2148.51,-74.81 2151.31,-74.14"/>
<polygon fill="midnightblue" stroke="midnightblue" points="1895.24,-112.85 1885.78,-117.62 1896.15,-119.79 1895.24,-112.85"/>
</g>
<!-- Node32 -->
<g id="node32" class="node">
<title>Node32</title>
<g id="a_node32"><a xlink:href="module_8c.html" target="_top" xlink:title=" ">
<polygon fill="white" stroke="black" points="2223,-56.5 2223,-75.5 2285,-75.5 2285,-56.5 2223,-56.5"/>
<text text-anchor="middle" x="2254" y="-63.5" font-family="FreeSans" font-size="10.00">module.c</text>
</a>
</g>
</g>
<!-- Node1&#45;&gt;Node32 -->
<g id="edge31" class="edge">
<title>Node1&#45;&gt;Node32</title>
<path fill="none" stroke="midnightblue" d="M1895.96,-117.49C1960.69,-111.07 2098.65,-96.24 2214,-76 2216.8,-75.51 2219.71,-74.95 2222.61,-74.36"/>
<polygon fill="midnightblue" stroke="midnightblue" points="1895.46,-114.02 1885.85,-118.48 1896.14,-120.99 1895.46,-114.02"/>
</g>
<!-- Node33 -->
<g id="node33" class="node">
<title>Node33</title>
<g id="a_node33"><a xlink:href="morphology_8c.html" target="_top" xlink:title=" ">
<polygon fill="white" stroke="black" points="2303,-56.5 2303,-75.5 2385,-75.5 2385,-56.5 2303,-56.5"/>
<text text-anchor="middle" x="2344" y="-63.5" font-family="FreeSans" font-size="10.00">morphology.c</text>
</a>
</g>
</g>
<!-- Node1&#45;&gt;Node33 -->
<g id="edge32" class="edge">
<title>Node1&#45;&gt;Node33</title>
<path fill="none" stroke="midnightblue" d="M1895.9,-118.12C1971.04,-112.06 2147.12,-96.79 2294,-76 2296.88,-75.59 2299.85,-75.14 2302.84,-74.66"/>
<polygon fill="midnightblue" stroke="midnightblue" points="1895.25,-114.66 1885.57,-118.95 1895.81,-121.64 1895.25,-114.66"/>
</g>
<!-- Node34 -->
<g id="node34" class="node">
<title>Node34</title>
<g id="a_node34"><a xlink:href="opencl_8c.html" target="_top" xlink:title=" ">
<polygon fill="white" stroke="black" points="2403.5,-56.5 2403.5,-75.5 2460.5,-75.5 2460.5,-56.5 2403.5,-56.5"/>
<text text-anchor="middle" x="2432" y="-63.5" font-family="FreeSans" font-size="10.00">opencl.c</text>
</a>
</g>
</g>
<!-- Node1&#45;&gt;Node34 -->
<g id="edge33" class="edge">
<title>Node1&#45;&gt;Node34</title>
<path fill="none" stroke="midnightblue" d="M1895.77,-119.79C1982.83,-116.52 2208.22,-105.64 2394,-76 2397.08,-75.51 2400.28,-74.9 2403.46,-74.24"/>
<polygon fill="midnightblue" stroke="midnightblue" points="1895.48,-116.3 1885.61,-120.16 1895.73,-123.29 1895.48,-116.3"/>
</g>
<!-- Node35 -->
<g id="node35" class="node">
<title>Node35</title>
<g id="a_node35"><a xlink:href="option_8c.html" target="_top" xlink:title=" ">
<polygon fill="white" stroke="black" points="2479,-56.5 2479,-75.5 2535,-75.5 2535,-56.5 2479,-56.5"/>
<text text-anchor="middle" x="2507" y="-63.5" font-family="FreeSans" font-size="10.00">option.c</text>
</a>
</g>
</g>
<!-- Node1&#45;&gt;Node35 -->
<g id="edge34" class="edge">
<title>Node1&#45;&gt;Node35</title>
<path fill="none" stroke="midnightblue" d="M1895.68,-120.4C1990.98,-118.4 2254.03,-109.98 2470,-76 2472.87,-75.55 2475.85,-74.99 2478.82,-74.36"/>
<polygon fill="midnightblue" stroke="midnightblue" points="1895.61,-116.91 1885.68,-120.6 1895.75,-123.9 1895.61,-116.91"/>
</g>
<!-- Node36 -->
<g id="node36" class="node">
<title>Node36</title>
<g id="a_node36"><a xlink:href="policy_8c.html" target="_top" xlink:title=" ">
<polygon fill="white" stroke="black" points="2553.5,-56.5 2553.5,-75.5 2606.5,-75.5 2606.5,-56.5 2553.5,-56.5"/>
<text text-anchor="middle" x="2580" y="-63.5" font-family="FreeSans" font-size="10.00">policy.c</text>
</a>
</g>
</g>
<!-- Node1&#45;&gt;Node36 -->
<g id="edge35" class="edge">
<title>Node1&#45;&gt;Node36</title>
<path fill="none" stroke="midnightblue" d="M1895.83,-120.9C1998.87,-120.11 2298.65,-114.41 2544,-76 2547.06,-75.52 2550.23,-74.91 2553.37,-74.22"/>
<polygon fill="midnightblue" stroke="midnightblue" points="1895.61,-117.4 1885.64,-120.96 1895.66,-124.4 1895.61,-117.4"/>
</g>
<!-- Node37 -->
<g id="node37" class="node">
<title>Node37</title>
<g id="a_node37"><a xlink:href="profile_8c.html" target="_top" xlink:title=" ">
<polygon fill="white" stroke="black" points="2625,-56.5 2625,-75.5 2681,-75.5 2681,-56.5 2625,-56.5"/>
<text text-anchor="middle" x="2653" y="-63.5" font-family="FreeSans" font-size="10.00">profile.c</text>
</a>
</g>
</g>
<!-- Node1&#45;&gt;Node37 -->
<g id="edge36" class="edge">
<title>Node1&#45;&gt;Node37</title>
<path fill="none" stroke="midnightblue" d="M1895.9,-121.14C2006.01,-121.06 2341.63,-117.18 2616,-76 2618.88,-75.57 2621.86,-75.02 2624.82,-74.41"/>
<polygon fill="midnightblue" stroke="midnightblue" points="1895.66,-117.64 1885.66,-121.14 1895.66,-124.64 1895.66,-117.64"/>
</g>
<!-- Node38 -->
<g id="node38" class="node">
<title>Node38</title>
<g id="a_node38"><a xlink:href="property_8c.html" target="_top" xlink:title=" ">
<polygon fill="white" stroke="black" points="2699.5,-56.5 2699.5,-75.5 2764.5,-75.5 2764.5,-56.5 2699.5,-56.5"/>
<text text-anchor="middle" x="2732" y="-63.5" font-family="FreeSans" font-size="10.00">property.c</text>
</a>
</g>
</g>
<!-- Node1&#45;&gt;Node38 -->
<g id="edge37" class="edge">
<title>Node1&#45;&gt;Node38</title>
<path fill="none" stroke="midnightblue" d="M1895.88,-121.06C2012.75,-120.81 2385.16,-116.66 2690,-76 2692.96,-75.61 2696.01,-75.11 2699.07,-74.57"/>
<polygon fill="midnightblue" stroke="midnightblue" points="1895.69,-117.56 1885.69,-121.07 1895.7,-124.56 1895.69,-117.56"/>
</g>
<!-- Node39 -->
<g id="node39" class="node">
<title>Node39</title>
<g id="a_node39"><a xlink:href="resample_8c.html" target="_top" xlink:title=" ">
<polygon fill="white" stroke="black" points="2782.5,-56.5 2782.5,-75.5 2853.5,-75.5 2853.5,-56.5 2782.5,-56.5"/>
<text text-anchor="middle" x="2818" y="-63.5" font-family="FreeSans" font-size="10.00">resample.c</text>
</a>
</g>
</g>
<!-- Node1&#45;&gt;Node39 -->
<g id="edge38" class="edge">
<title>Node1&#45;&gt;Node39</title>
<path fill="none" stroke="midnightblue" d="M1895.81,-121.2C2020.01,-121.44 2434.76,-118.78 2774,-76 2776.63,-75.67 2779.34,-75.27 2782.06,-74.82"/>
<polygon fill="midnightblue" stroke="midnightblue" points="1895.71,-117.7 1885.7,-121.17 1895.69,-124.7 1895.71,-117.7"/>
</g>
<!-- Node40 -->
<g id="node40" class="node">
<title>Node40</title>
<g id="a_node40"><a xlink:href="resize_8c.html" target="_top" xlink:title=" ">
<polygon fill="white" stroke="black" points="2872,-56.5 2872,-75.5 2926,-75.5 2926,-56.5 2872,-56.5"/>
<text text-anchor="middle" x="2899" y="-63.5" font-family="FreeSans" font-size="10.00">resize.c</text>
</a>
</g>
</g>
<!-- Node1&#45;&gt;Node40 -->
<g id="edge39" class="edge">
<title>Node1&#45;&gt;Node40</title>
<path fill="none" stroke="midnightblue" d="M1895.92,-120.34C2053.56,-117.34 2670.81,-104.04 2863,-76 2865.93,-75.57 2868.97,-75.01 2871.99,-74.37"/>
<polygon fill="midnightblue" stroke="midnightblue" points="1895.73,-116.84 1885.8,-120.52 1895.86,-123.84 1895.73,-116.84"/>
</g>
<!-- Node41 -->
<g id="node41" class="node">
<title>Node41</title>
<g id="a_node41"><a xlink:href="resource_8c.html" target="_top" xlink:title=" ">
<polygon fill="white" stroke="black" points="2944.5,-56.5 2944.5,-75.5 3011.5,-75.5 3011.5,-56.5 2944.5,-56.5"/>
<text text-anchor="middle" x="2978" y="-63.5" font-family="FreeSans" font-size="10.00">resource.c</text>
</a>
</g>
</g>
<!-- Node1&#45;&gt;Node41 -->
<g id="edge40" class="edge">
<title>Node1&#45;&gt;Node41</title>
<path fill="none" stroke="midnightblue" d="M1895.86,-120.27C2060.22,-116.91 2727.36,-101.89 2935,-76 2938.03,-75.62 2941.16,-75.14 2944.29,-74.6"/>
<polygon fill="midnightblue" stroke="midnightblue" points="1895.69,-116.78 1885.77,-120.48 1895.84,-123.77 1895.69,-116.78"/>
</g>
<!-- Node42 -->
<g id="node42" class="node">
<title>Node42</title>
<g id="a_node42"><a xlink:href="shear_8c.html" target="_top" xlink:title=" ">
<polygon fill="white" stroke="black" points="3029.5,-56.5 3029.5,-75.5 3080.5,-75.5 3080.5,-56.5 3029.5,-56.5"/>
<text text-anchor="middle" x="3055" y="-63.5" font-family="FreeSans" font-size="10.00">shear.c</text>
</a>
</g>
</g>
<!-- Node1&#45;&gt;Node42 -->
<g id="edge41" class="edge">
<title>Node1&#45;&gt;Node42</title>
<path fill="none" stroke="midnightblue" d="M1896.02,-120.66C2068.74,-118.92 2796.35,-109.66 3021,-76 3023.66,-75.6 3026.41,-75.07 3029.13,-74.47"/>
<polygon fill="midnightblue" stroke="midnightblue" points="1895.88,-117.16 1885.91,-120.76 1895.95,-124.16 1895.88,-117.16"/>
</g>
<!-- Node43 -->
<g id="node43" class="node">
<title>Node43</title>
<g id="a_node43"><a xlink:href="token_8c.html" target="_top" xlink:title=" ">
<polygon fill="white" stroke="black" points="3099,-56.5 3099,-75.5 3151,-75.5 3151,-56.5 3099,-56.5"/>
<text text-anchor="middle" x="3125" y="-63.5" font-family="FreeSans" font-size="10.00">token.c</text>
</a>
</g>
</g>
<!-- Node1&#45;&gt;Node43 -->
<g id="edge42" class="edge">
<title>Node1&#45;&gt;Node43</title>
<path fill="none" stroke="midnightblue" d="M1895.88,-120.72C2074.5,-119.21 2850.84,-110.71 3090,-76 3092.86,-75.59 3095.82,-75.03 3098.75,-74.4"/>
<polygon fill="midnightblue" stroke="midnightblue" points="1895.66,-117.22 1885.69,-120.81 1895.72,-124.22 1895.66,-117.22"/>
</g>
<!-- Node44 -->
<g id="node44" class="node">
<title>Node44</title>
<g id="a_node44"><a xlink:href="type_8c.html" target="_top" xlink:title=" ">
<polygon fill="white" stroke="black" points="3169.5,-56.5 3169.5,-75.5 3216.5,-75.5 3216.5,-56.5 3169.5,-56.5"/>
<text text-anchor="middle" x="3193" y="-63.5" font-family="FreeSans" font-size="10.00">type.c</text>
</a>
</g>
</g>
<!-- Node1&#45;&gt;Node44 -->
<g id="edge43" class="edge">
<title>Node1&#45;&gt;Node44</title>
<path fill="none" stroke="midnightblue" d="M1895.89,-120.88C2080.65,-120.08 2906.54,-114.41 3160,-76 3163.05,-75.54 3166.23,-74.89 3169.35,-74.16"/>
<polygon fill="midnightblue" stroke="midnightblue" points="1895.61,-117.38 1885.62,-120.92 1895.64,-124.38 1895.61,-117.38"/>
</g>
<!-- Node45 -->
<g id="node45" class="node">
<title>Node45</title>
<g id="a_node45"><a xlink:href="utility_8c.html" target="_top" xlink:title=" ">
<polygon fill="white" stroke="black" points="3235,-56.5 3235,-75.5 3287,-75.5 3287,-56.5 3235,-56.5"/>
<text text-anchor="middle" x="3261" y="-63.5" font-family="FreeSans" font-size="10.00">utility.c</text>
</a>
</g>
</g>
<!-- Node1&#45;&gt;Node45 -->
<g id="edge44" class="edge">
<title>Node1&#45;&gt;Node45</title>
<path fill="none" stroke="midnightblue" d="M1895.62,-120.88C2085.4,-120.08 2958.4,-114.34 3226,-76 3228.86,-75.59 3231.82,-75.04 3234.75,-74.41"/>
<polygon fill="midnightblue" stroke="midnightblue" points="1895.59,-117.38 1885.6,-120.92 1895.62,-124.38 1895.59,-117.38"/>
</g>
<!-- Node46 -->
<g id="node46" class="node">
<title>Node46</title>
<g id="a_node46"><a xlink:href="vision_8c.html" target="_top" xlink:title=" ">
<polygon fill="white" stroke="black" points="3305,-56.5 3305,-75.5 3359,-75.5 3359,-56.5 3305,-56.5"/>
<text text-anchor="middle" x="3332" y="-63.5" font-family="FreeSans" font-size="10.00">vision.c</text>
</a>
</g>
</g>
<!-- Node1&#45;&gt;Node46 -->
<g id="edge45" class="edge">
<title>Node1&#45;&gt;Node46</title>
<path fill="none" stroke="midnightblue" d="M1895.61,-120.91C2091.09,-120.28 3013.64,-115.26 3296,-76 3298.94,-75.59 3301.98,-75.04 3304.99,-74.41"/>
<polygon fill="midnightblue" stroke="midnightblue" points="1895.55,-117.41 1885.56,-120.94 1895.57,-124.41 1895.55,-117.41"/>
</g>
<!-- Node47 -->
<g id="node47" class="node">
<title>Node47</title>
<g id="a_node47"><a xlink:href="widget_8c.html" target="_top" xlink:title=" ">
<polygon fill="white" stroke="black" points="3377,-56.5 3377,-75.5 3435,-75.5 3435,-56.5 3377,-56.5"/>
<text text-anchor="middle" x="3406" y="-63.5" font-family="FreeSans" font-size="10.00">widget.c</text>
</a>
</g>
</g>
<!-- Node1&#45;&gt;Node47 -->
<g id="edge46" class="edge">
<title>Node1&#45;&gt;Node47</title>
<path fill="none" stroke="midnightblue" d="M1895.82,-120.91C2097.53,-120.29 3070.44,-115.26 3368,-76 3370.82,-75.63 3373.74,-75.14 3376.65,-74.57"/>
<polygon fill="midnightblue" stroke="midnightblue" points="1895.73,-117.41 1885.74,-120.94 1895.75,-124.41 1895.73,-117.41"/>
</g>
<!-- Node48 -->
<g id="node48" class="node">
<title>Node48</title>
<g id="a_node48"><a xlink:href="xwindow_8c.html" target="_top" xlink:title=" ">
<polygon fill="white" stroke="black" points="3453,-56.5 3453,-75.5 3521,-75.5 3521,-56.5 3453,-56.5"/>
<text text-anchor="middle" x="3487" y="-63.5" font-family="FreeSans" font-size="10.00">xwindow.c</text>
</a>
</g>
</g>
<!-- Node1&#45;&gt;Node48 -->
<g id="edge47" class="edge">
<title>Node1&#45;&gt;Node48</title>
<path fill="none" stroke="midnightblue" d="M1895.66,-120.85C2102.93,-119.84 3129.93,-113.03 3444,-76 3446.88,-75.66 3449.85,-75.22 3452.82,-74.73"/>
<polygon fill="midnightblue" stroke="midnightblue" points="1895.58,-117.35 1885.6,-120.89 1895.61,-124.35 1895.58,-117.35"/>
</g>
<!-- Node3 -->
<g id="node3" class="node">
<title>Node3</title>
<g id="a_node3"><a xlink:href="ImageMagick_8h.html" target="_top" xlink:title=" ">
<polygon fill="white" stroke="black" points="0,-0.5 0,-19.5 92,-19.5 92,-0.5 0,-0.5"/>
<text text-anchor="middle" x="46" y="-7.5" font-family="FreeSans" font-size="10.00">ImageMagick.h</text>
</a>
</g>
</g>
<!-- Node2&#45;&gt;Node3 -->
<g id="edge2" class="edge">
<title>Node2&#45;&gt;Node3</title>
<path fill="none" stroke="midnightblue" d="M108.81,-50.9C93.22,-41 72.87,-28.07 59.62,-19.65"/>
<polygon fill="midnightblue" stroke="midnightblue" points="107.03,-53.92 117.34,-56.32 110.78,-48.01 107.03,-53.92"/>
</g>
<!-- Node4 -->
<g id="node4" class="node">
<title>Node4</title>
<g id="a_node4"><a xlink:href="api_8h.html" target="_top" xlink:title=" ">
<polygon fill="white" stroke="black" points="110.5,-0.5 110.5,-19.5 151.5,-19.5 151.5,-0.5 110.5,-0.5"/>
<text text-anchor="middle" x="131" y="-7.5" font-family="FreeSans" font-size="10.00">api.h</text>
</a>
</g>
</g>
<!-- Node2&#45;&gt;Node4 -->
<g id="edge3" class="edge">
<title>Node2&#45;&gt;Node4</title>
<path fill="none" stroke="midnightblue" d="M131,-45.8C131,-36.91 131,-26.78 131,-19.75"/>
<polygon fill="midnightblue" stroke="midnightblue" points="127.5,-46.08 131,-56.08 134.5,-46.08 127.5,-46.08"/>
</g>
<!-- Node5 -->
<g id="node5" class="node">
<title>Node5</title>
<g id="a_node5"><a xlink:href="image-view_8c.html" target="_top" xlink:title=" ">
<polygon fill="white" stroke="black" points="169.5,-0.5 169.5,-19.5 250.5,-19.5 250.5,-0.5 169.5,-0.5"/>
<text text-anchor="middle" x="210" y="-7.5" font-family="FreeSans" font-size="10.00">image&#45;view.c</text>
</a>
</g>
</g>
<!-- Node2&#45;&gt;Node5 -->
<g id="edge4" class="edge">
<title>Node2&#45;&gt;Node5</title>
<path fill="none" stroke="midnightblue" d="M152.03,-50.62C166.47,-40.76 185.14,-27.99 197.34,-19.65"/>
<polygon fill="midnightblue" stroke="midnightblue" points="149.97,-47.79 143.69,-56.32 153.92,-53.57 149.97,-47.79"/>
</g>
</g>
</svg>
