<?xml version="1.0" encoding="UTF-8" standalone="no"?>
<!DOCTYPE svg PUBLIC "-//W3C//DTD SVG 1.1//EN"
 "http://www.w3.org/Graphics/SVG/1.1/DTD/svg11.dtd">
<!-- Generated by graphviz version 2.43.0 (0)
 -->
<!-- Title: transform.h Pages: 1 -->
<svg width="1867pt" height="140pt"
 viewBox="0.00 0.00 1867.00 140.00" xmlns="http://www.w3.org/2000/svg" xmlns:xlink="http://www.w3.org/1999/xlink">
<g id="graph0" class="graph" transform="scale(1 1) rotate(0) translate(4 136)">
<title>transform.h</title>
<polygon fill="white" stroke="transparent" points="-4,4 -4,-136 1863,-136 1863,4 -4,4"/>
<!-- Node1 -->
<g id="node1" class="node">
<title>Node1</title>
<g id="a_node1"><a xlink:title=" ">
<polygon fill="#bfbfbf" stroke="black" points="975,-112.5 975,-131.5 1049,-131.5 1049,-112.5 975,-112.5"/>
<text text-anchor="middle" x="1012" y="-119.5" font-family="FreeSans" font-size="10.00">transform.h</text>
</a>
</g>
</g>
<!-- Node2 -->
<g id="node2" class="node">
<title>Node2</title>
<g id="a_node2"><a xlink:href="MagickCore_8h.html" target="_top" xlink:title=" ">
<polygon fill="white" stroke="black" points="89.5,-56.5 89.5,-75.5 172.5,-75.5 172.5,-56.5 89.5,-56.5"/>
<text text-anchor="middle" x="131" y="-63.5" font-family="FreeSans" font-size="10.00">MagickCore.h</text>
</a>
</g>
</g>
<!-- Node1&#45;&gt;Node2 -->
<g id="edge1" class="edge">
<title>Node1&#45;&gt;Node2</title>
<path fill="none" stroke="midnightblue" d="M964.46,-120.42C837.2,-118.45 478.32,-110.05 182,-76 178.96,-75.65 175.83,-75.24 172.69,-74.78"/>
<polygon fill="midnightblue" stroke="midnightblue" points="964.59,-123.93 974.64,-120.58 964.69,-116.93 964.59,-123.93"/>
</g>
<!-- Node6 -->
<g id="node6" class="node">
<title>Node6</title>
<g id="a_node6"><a xlink:href="animate_8c.html" target="_top" xlink:title=" ">
<polygon fill="white" stroke="black" points="190.5,-56.5 190.5,-75.5 255.5,-75.5 255.5,-56.5 190.5,-56.5"/>
<text text-anchor="middle" x="223" y="-63.5" font-family="FreeSans" font-size="10.00">animate.c</text>
</a>
</g>
</g>
<!-- Node1&#45;&gt;Node6 -->
<g id="edge5" class="edge">
<title>Node1&#45;&gt;Node6</title>
<path fill="none" stroke="midnightblue" d="M964.72,-120.62C846.32,-119.14 527.72,-111.85 265,-76 262.04,-75.6 258.99,-75.1 255.93,-74.55"/>
<polygon fill="midnightblue" stroke="midnightblue" points="964.85,-124.12 974.89,-120.74 964.93,-117.12 964.85,-124.12"/>
</g>
<!-- Node7 -->
<g id="node7" class="node">
<title>Node7</title>
<g id="a_node7"><a xlink:href="annotate_8c.html" target="_top" xlink:title=" ">
<polygon fill="white" stroke="black" points="274,-56.5 274,-75.5 342,-75.5 342,-56.5 274,-56.5"/>
<text text-anchor="middle" x="308" y="-63.5" font-family="FreeSans" font-size="10.00">annotate.c</text>
</a>
</g>
</g>
<!-- Node1&#45;&gt;Node7 -->
<g id="edge6" class="edge">
<title>Node1&#45;&gt;Node7</title>
<path fill="none" stroke="midnightblue" d="M964.68,-119.94C855.98,-117.04 580.26,-106.99 352,-76 348.75,-75.56 345.39,-75.02 342.03,-74.43"/>
<polygon fill="midnightblue" stroke="midnightblue" points="964.89,-123.45 974.97,-120.21 965.07,-116.45 964.89,-123.45"/>
</g>
<!-- Node8 -->
<g id="node8" class="node">
<title>Node8</title>
<g id="a_node8"><a xlink:href="attribute_8c.html" target="_top" xlink:title=" ">
<polygon fill="white" stroke="black" points="360.5,-56.5 360.5,-75.5 427.5,-75.5 427.5,-56.5 360.5,-56.5"/>
<text text-anchor="middle" x="394" y="-63.5" font-family="FreeSans" font-size="10.00">attribute.c</text>
</a>
</g>
</g>
<!-- Node1&#45;&gt;Node8 -->
<g id="edge7" class="edge">
<title>Node1&#45;&gt;Node8</title>
<path fill="none" stroke="midnightblue" d="M964.59,-119.35C865.95,-115.46 631.62,-103.87 437,-76 433.98,-75.57 430.85,-75.05 427.73,-74.49"/>
<polygon fill="midnightblue" stroke="midnightblue" points="964.69,-122.85 974.82,-119.74 964.96,-115.86 964.69,-122.85"/>
</g>
<!-- Node9 -->
<g id="node9" class="node">
<title>Node9</title>
<g id="a_node9"><a xlink:href="compare_8c.html" target="_top" xlink:title=" ">
<polygon fill="white" stroke="black" points="446,-56.5 446,-75.5 514,-75.5 514,-56.5 446,-56.5"/>
<text text-anchor="middle" x="480" y="-63.5" font-family="FreeSans" font-size="10.00">compare.c</text>
</a>
</g>
</g>
<!-- Node1&#45;&gt;Node9 -->
<g id="edge8" class="edge">
<title>Node1&#45;&gt;Node9</title>
<path fill="none" stroke="midnightblue" d="M964.56,-118.45C876.95,-113.33 684.02,-100.18 523,-76 520.13,-75.57 517.17,-75.07 514.2,-74.53"/>
<polygon fill="midnightblue" stroke="midnightblue" points="964.53,-121.95 974.71,-119.03 964.93,-114.96 964.53,-121.95"/>
</g>
<!-- Node10 -->
<g id="node10" class="node">
<title>Node10</title>
<g id="a_node10"><a xlink:href="constitute_8c.html" target="_top" xlink:title=" ">
<polygon fill="white" stroke="black" points="532,-56.5 532,-75.5 606,-75.5 606,-56.5 532,-56.5"/>
<text text-anchor="middle" x="569" y="-63.5" font-family="FreeSans" font-size="10.00">constitute.c</text>
</a>
</g>
</g>
<!-- Node1&#45;&gt;Node10 -->
<g id="edge9" class="edge">
<title>Node1&#45;&gt;Node10</title>
<path fill="none" stroke="midnightblue" d="M964.92,-116.9C890.42,-110.13 740.88,-95.42 615,-76 612.1,-75.55 609.11,-75.05 606.11,-74.53"/>
<polygon fill="midnightblue" stroke="midnightblue" points="964.65,-120.39 974.92,-117.8 965.28,-113.42 964.65,-120.39"/>
</g>
<!-- Node11 -->
<g id="node11" class="node">
<title>Node11</title>
<g id="a_node11"><a xlink:href="decorate_8c.html" target="_top" xlink:title=" ">
<polygon fill="white" stroke="black" points="624,-56.5 624,-75.5 692,-75.5 692,-56.5 624,-56.5"/>
<text text-anchor="middle" x="658" y="-63.5" font-family="FreeSans" font-size="10.00">decorate.c</text>
</a>
</g>
</g>
<!-- Node1&#45;&gt;Node11 -->
<g id="edge10" class="edge">
<title>Node1&#45;&gt;Node11</title>
<path fill="none" stroke="midnightblue" d="M964.42,-115.06C903.28,-107.21 793.93,-92.43 701,-76 698.15,-75.5 695.19,-74.94 692.23,-74.37"/>
<polygon fill="midnightblue" stroke="midnightblue" points="964.18,-118.55 974.54,-116.35 965.06,-111.61 964.18,-118.55"/>
</g>
<!-- Node12 -->
<g id="node12" class="node">
<title>Node12</title>
<g id="a_node12"><a xlink:href="deprecate_8c.html" target="_top" xlink:title=" ">
<polygon fill="white" stroke="black" points="710,-56.5 710,-75.5 784,-75.5 784,-56.5 710,-56.5"/>
<text text-anchor="middle" x="747" y="-63.5" font-family="FreeSans" font-size="10.00">deprecate.c</text>
</a>
</g>
</g>
<!-- Node1&#45;&gt;Node12 -->
<g id="edge11" class="edge">
<title>Node1&#45;&gt;Node12</title>
<path fill="none" stroke="midnightblue" d="M964.98,-111.42C913.4,-100.91 831.66,-84.25 784.3,-74.6"/>
<polygon fill="midnightblue" stroke="midnightblue" points="964.38,-114.87 974.87,-113.43 965.77,-108.01 964.38,-114.87"/>
</g>
<!-- Node13 -->
<g id="node13" class="node">
<title>Node13</title>
<g id="a_node13"><a xlink:href="display_8c.html" target="_top" xlink:title=" ">
<polygon fill="white" stroke="black" points="802.5,-56.5 802.5,-75.5 861.5,-75.5 861.5,-56.5 802.5,-56.5"/>
<text text-anchor="middle" x="832" y="-63.5" font-family="FreeSans" font-size="10.00">display.c</text>
</a>
</g>
</g>
<!-- Node1&#45;&gt;Node13 -->
<g id="edge12" class="edge">
<title>Node1&#45;&gt;Node13</title>
<path fill="none" stroke="midnightblue" d="M973.89,-109.57C939.94,-99.38 891.01,-84.7 860.39,-75.52"/>
<polygon fill="midnightblue" stroke="midnightblue" points="972.89,-112.92 983.48,-112.44 974.91,-106.22 972.89,-112.92"/>
</g>
<!-- Node14 -->
<g id="node14" class="node">
<title>Node14</title>
<g id="a_node14"><a xlink:href="distort_8c.html" target="_top" xlink:title=" ">
<polygon fill="white" stroke="black" points="880,-56.5 880,-75.5 936,-75.5 936,-56.5 880,-56.5"/>
<text text-anchor="middle" x="908" y="-63.5" font-family="FreeSans" font-size="10.00">distort.c</text>
</a>
</g>
</g>
<!-- Node1&#45;&gt;Node14 -->
<g id="edge13" class="edge">
<title>Node1&#45;&gt;Node14</title>
<path fill="none" stroke="midnightblue" d="M986.17,-107.59C966.94,-97.61 941.26,-84.27 924.67,-75.65"/>
<polygon fill="midnightblue" stroke="midnightblue" points="984.8,-110.82 995.29,-112.32 988.03,-104.61 984.8,-110.82"/>
</g>
<!-- Node15 -->
<g id="node15" class="node">
<title>Node15</title>
<g id="a_node15"><a xlink:href="draw_8c.html" target="_top" xlink:title=" ">
<polygon fill="white" stroke="black" points="954,-56.5 954,-75.5 1002,-75.5 1002,-56.5 954,-56.5"/>
<text text-anchor="middle" x="978" y="-63.5" font-family="FreeSans" font-size="10.00">draw.c</text>
</a>
</g>
</g>
<!-- Node1&#45;&gt;Node15 -->
<g id="edge14" class="edge">
<title>Node1&#45;&gt;Node15</title>
<path fill="none" stroke="midnightblue" d="M1001.02,-103.57C995.17,-94.27 988.23,-83.25 983.51,-75.75"/>
<polygon fill="midnightblue" stroke="midnightblue" points="998.1,-105.49 1006.39,-112.08 1004.02,-101.76 998.1,-105.49"/>
</g>
<!-- Node16 -->
<g id="node16" class="node">
<title>Node16</title>
<g id="a_node16"><a xlink:href="effect_8c.html" target="_top" xlink:title=" ">
<polygon fill="white" stroke="black" points="1020.5,-56.5 1020.5,-75.5 1073.5,-75.5 1073.5,-56.5 1020.5,-56.5"/>
<text text-anchor="middle" x="1047" y="-63.5" font-family="FreeSans" font-size="10.00">effect.c</text>
</a>
</g>
</g>
<!-- Node1&#45;&gt;Node16 -->
<g id="edge15" class="edge">
<title>Node1&#45;&gt;Node16</title>
<path fill="none" stroke="midnightblue" d="M1023.3,-103.57C1029.32,-94.27 1036.47,-83.25 1041.33,-75.75"/>
<polygon fill="midnightblue" stroke="midnightblue" points="1020.28,-101.79 1017.78,-112.08 1026.16,-105.6 1020.28,-101.79"/>
</g>
<!-- Node17 -->
<g id="node17" class="node">
<title>Node17</title>
<g id="a_node17"><a xlink:href="fx_8c.html" target="_top" xlink:title=" ">
<polygon fill="white" stroke="black" points="1091.5,-56.5 1091.5,-75.5 1126.5,-75.5 1126.5,-56.5 1091.5,-56.5"/>
<text text-anchor="middle" x="1109" y="-63.5" font-family="FreeSans" font-size="10.00">fx.c</text>
</a>
</g>
</g>
<!-- Node1&#45;&gt;Node17 -->
<g id="edge16" class="edge">
<title>Node1&#45;&gt;Node17</title>
<path fill="none" stroke="midnightblue" d="M1036.34,-107.45C1054.24,-97.48 1078.05,-84.23 1093.45,-75.65"/>
<polygon fill="midnightblue" stroke="midnightblue" points="1034.62,-104.4 1027.58,-112.32 1038.02,-110.52 1034.62,-104.4"/>
</g>
<!-- Node18 -->
<g id="node18" class="node">
<title>Node18</title>
<g id="a_node18"><a xlink:href="gem_8c.html" target="_top" xlink:title=" ">
<polygon fill="white" stroke="black" points="1144.5,-56.5 1144.5,-75.5 1191.5,-75.5 1191.5,-56.5 1144.5,-56.5"/>
<text text-anchor="middle" x="1168" y="-63.5" font-family="FreeSans" font-size="10.00">gem.c</text>
</a>
</g>
</g>
<!-- Node1&#45;&gt;Node18 -->
<g id="edge17" class="edge">
<title>Node1&#45;&gt;Node18</title>
<path fill="none" stroke="midnightblue" d="M1046.29,-109.13C1076.04,-98.83 1118.33,-84.19 1144.42,-75.16"/>
<polygon fill="midnightblue" stroke="midnightblue" points="1045.02,-105.86 1036.72,-112.44 1047.31,-112.48 1045.02,-105.86"/>
</g>
<!-- Node19 -->
<g id="node19" class="node">
<title>Node19</title>
<g id="a_node19"><a xlink:href="layer_8c.html" target="_top" xlink:title=" ">
<polygon fill="white" stroke="black" points="1209.5,-56.5 1209.5,-75.5 1258.5,-75.5 1258.5,-56.5 1209.5,-56.5"/>
<text text-anchor="middle" x="1234" y="-63.5" font-family="FreeSans" font-size="10.00">layer.c</text>
</a>
</g>
</g>
<!-- Node1&#45;&gt;Node19 -->
<g id="edge18" class="edge">
<title>Node1&#45;&gt;Node19</title>
<path fill="none" stroke="midnightblue" d="M1058.87,-110.29C1097.18,-101.42 1152.7,-88.33 1201,-76 1203.65,-75.32 1206.41,-74.6 1209.16,-73.87"/>
<polygon fill="midnightblue" stroke="midnightblue" points="1057.98,-106.9 1049.03,-112.56 1059.56,-113.72 1057.98,-106.9"/>
</g>
<!-- Node20 -->
<g id="node20" class="node">
<title>Node20</title>
<g id="a_node20"><a xlink:href="pixel_8c.html" target="_top" xlink:title=" ">
<polygon fill="white" stroke="black" points="1277,-56.5 1277,-75.5 1325,-75.5 1325,-56.5 1277,-56.5"/>
<text text-anchor="middle" x="1301" y="-63.5" font-family="FreeSans" font-size="10.00">pixel.c</text>
</a>
</g>
</g>
<!-- Node1&#45;&gt;Node20 -->
<g id="edge19" class="edge">
<title>Node1&#45;&gt;Node20</title>
<path fill="none" stroke="midnightblue" d="M1059.26,-114.03C1110.83,-106.11 1195.7,-92.18 1268,-76 1270.9,-75.35 1273.92,-74.61 1276.91,-73.84"/>
<polygon fill="midnightblue" stroke="midnightblue" points="1058.45,-110.61 1049.09,-115.58 1059.51,-117.53 1058.45,-110.61"/>
</g>
<!-- Node21 -->
<g id="node21" class="node">
<title>Node21</title>
<g id="a_node21"><a xlink:href="resample_8c.html" target="_top" xlink:title=" ">
<polygon fill="white" stroke="black" points="1343.5,-56.5 1343.5,-75.5 1414.5,-75.5 1414.5,-56.5 1343.5,-56.5"/>
<text text-anchor="middle" x="1379" y="-63.5" font-family="FreeSans" font-size="10.00">resample.c</text>
</a>
</g>
</g>
<!-- Node1&#45;&gt;Node21 -->
<g id="edge20" class="edge">
<title>Node1&#45;&gt;Node21</title>
<path fill="none" stroke="midnightblue" d="M1059.31,-115.27C1122.2,-107.45 1236.74,-92.51 1334,-76 1336.98,-75.49 1340.08,-74.94 1343.17,-74.36"/>
<polygon fill="midnightblue" stroke="midnightblue" points="1058.79,-111.81 1049.3,-116.51 1059.65,-118.75 1058.79,-111.81"/>
</g>
<!-- Node22 -->
<g id="node22" class="node">
<title>Node22</title>
<g id="a_node22"><a xlink:href="shear_8c.html" target="_top" xlink:title=" ">
<polygon fill="white" stroke="black" points="1432.5,-56.5 1432.5,-75.5 1483.5,-75.5 1483.5,-56.5 1432.5,-56.5"/>
<text text-anchor="middle" x="1458" y="-63.5" font-family="FreeSans" font-size="10.00">shear.c</text>
</a>
</g>
</g>
<!-- Node1&#45;&gt;Node22 -->
<g id="edge21" class="edge">
<title>Node1&#45;&gt;Node22</title>
<path fill="none" stroke="midnightblue" d="M1059.53,-118.13C1136.57,-112.97 1293.26,-100.3 1424,-76 1426.76,-75.49 1429.63,-74.87 1432.47,-74.2"/>
<polygon fill="midnightblue" stroke="midnightblue" points="1058.95,-114.66 1049.2,-118.81 1059.41,-121.65 1058.95,-114.66"/>
</g>
<!-- Node23 -->
<g id="node23" class="node">
<title>Node23</title>
<g id="a_node23"><a xlink:href="threshold_8c.html" target="_top" xlink:title=" ">
<polygon fill="white" stroke="black" points="1501.5,-56.5 1501.5,-75.5 1572.5,-75.5 1572.5,-56.5 1501.5,-56.5"/>
<text text-anchor="middle" x="1537" y="-63.5" font-family="FreeSans" font-size="10.00">threshold.c</text>
</a>
</g>
</g>
<!-- Node1&#45;&gt;Node23 -->
<g id="edge22" class="edge">
<title>Node1&#45;&gt;Node23</title>
<path fill="none" stroke="midnightblue" d="M1059.31,-118.28C1145.76,-112.94 1334.96,-99.49 1493,-76 1495.62,-75.61 1498.32,-75.17 1501.04,-74.69"/>
<polygon fill="midnightblue" stroke="midnightblue" points="1059.05,-114.79 1049.28,-118.89 1059.47,-121.78 1059.05,-114.79"/>
</g>
<!-- Node24 -->
<g id="node24" class="node">
<title>Node24</title>
<g id="a_node24"><a xlink:href="transform_8c.html" target="_top" xlink:title=" ">
<polygon fill="white" stroke="black" points="1590.5,-56.5 1590.5,-75.5 1663.5,-75.5 1663.5,-56.5 1590.5,-56.5"/>
<text text-anchor="middle" x="1627" y="-63.5" font-family="FreeSans" font-size="10.00">transform.c</text>
</a>
</g>
</g>
<!-- Node1&#45;&gt;Node24 -->
<g id="edge23" class="edge">
<title>Node1&#45;&gt;Node24</title>
<path fill="none" stroke="midnightblue" d="M1059.34,-119.16C1157.3,-114.95 1389.19,-102.8 1582,-76 1584.68,-75.63 1587.45,-75.19 1590.22,-74.72"/>
<polygon fill="midnightblue" stroke="midnightblue" points="1059.02,-115.67 1049.18,-119.59 1059.31,-122.67 1059.02,-115.67"/>
</g>
<!-- Node25 -->
<g id="node25" class="node">
<title>Node25</title>
<g id="a_node25"><a xlink:href="visual-effects_8c.html" target="_top" xlink:title=" ">
<polygon fill="white" stroke="black" points="1681.5,-56.5 1681.5,-75.5 1772.5,-75.5 1772.5,-56.5 1681.5,-56.5"/>
<text text-anchor="middle" x="1727" y="-63.5" font-family="FreeSans" font-size="10.00">visual&#45;effects.c</text>
</a>
</g>
</g>
<!-- Node1&#45;&gt;Node25 -->
<g id="edge24" class="edge">
<title>Node1&#45;&gt;Node25</title>
<path fill="none" stroke="midnightblue" d="M1059.32,-119.36C1168.03,-115.24 1443.86,-102.83 1673,-76 1675.74,-75.68 1678.55,-75.32 1681.38,-74.92"/>
<polygon fill="midnightblue" stroke="midnightblue" points="1058.89,-115.87 1049.02,-119.74 1059.15,-122.87 1058.89,-115.87"/>
</g>
<!-- Node26 -->
<g id="node26" class="node">
<title>Node26</title>
<g id="a_node26"><a xlink:href="xwindow_8c.html" target="_top" xlink:title=" ">
<polygon fill="white" stroke="black" points="1791,-56.5 1791,-75.5 1859,-75.5 1859,-56.5 1791,-56.5"/>
<text text-anchor="middle" x="1825" y="-63.5" font-family="FreeSans" font-size="10.00">xwindow.c</text>
</a>
</g>
</g>
<!-- Node1&#45;&gt;Node26 -->
<g id="edge25" class="edge">
<title>Node1&#45;&gt;Node26</title>
<path fill="none" stroke="midnightblue" d="M1059.06,-120.67C1179.74,-119.29 1509.86,-112.23 1782,-76 1784.87,-75.62 1787.84,-75.15 1790.81,-74.63"/>
<polygon fill="midnightblue" stroke="midnightblue" points="1059.01,-117.17 1049.05,-120.77 1059.09,-124.17 1059.01,-117.17"/>
</g>
<!-- Node3 -->
<g id="node3" class="node">
<title>Node3</title>
<g id="a_node3"><a xlink:href="ImageMagick_8h.html" target="_top" xlink:title=" ">
<polygon fill="white" stroke="black" points="0,-0.5 0,-19.5 92,-19.5 92,-0.5 0,-0.5"/>
<text text-anchor="middle" x="46" y="-7.5" font-family="FreeSans" font-size="10.00">ImageMagick.h</text>
</a>
</g>
</g>
<!-- Node2&#45;&gt;Node3 -->
<g id="edge2" class="edge">
<title>Node2&#45;&gt;Node3</title>
<path fill="none" stroke="midnightblue" d="M108.81,-50.9C93.22,-41 72.87,-28.07 59.62,-19.65"/>
<polygon fill="midnightblue" stroke="midnightblue" points="107.03,-53.92 117.34,-56.32 110.78,-48.01 107.03,-53.92"/>
</g>
<!-- Node4 -->
<g id="node4" class="node">
<title>Node4</title>
<g id="a_node4"><a xlink:href="api_8h.html" target="_top" xlink:title=" ">
<polygon fill="white" stroke="black" points="110.5,-0.5 110.5,-19.5 151.5,-19.5 151.5,-0.5 110.5,-0.5"/>
<text text-anchor="middle" x="131" y="-7.5" font-family="FreeSans" font-size="10.00">api.h</text>
</a>
</g>
</g>
<!-- Node2&#45;&gt;Node4 -->
<g id="edge3" class="edge">
<title>Node2&#45;&gt;Node4</title>
<path fill="none" stroke="midnightblue" d="M131,-45.8C131,-36.91 131,-26.78 131,-19.75"/>
<polygon fill="midnightblue" stroke="midnightblue" points="127.5,-46.08 131,-56.08 134.5,-46.08 127.5,-46.08"/>
</g>
<!-- Node5 -->
<g id="node5" class="node">
<title>Node5</title>
<g id="a_node5"><a xlink:href="image-view_8c.html" target="_top" xlink:title=" ">
<polygon fill="white" stroke="black" points="169.5,-0.5 169.5,-19.5 250.5,-19.5 250.5,-0.5 169.5,-0.5"/>
<text text-anchor="middle" x="210" y="-7.5" font-family="FreeSans" font-size="10.00">image&#45;view.c</text>
</a>
</g>
</g>
<!-- Node2&#45;&gt;Node5 -->
<g id="edge4" class="edge">
<title>Node2&#45;&gt;Node5</title>
<path fill="none" stroke="midnightblue" d="M152.03,-50.62C166.47,-40.76 185.14,-27.99 197.34,-19.65"/>
<polygon fill="midnightblue" stroke="midnightblue" points="149.97,-47.79 143.69,-56.32 153.92,-53.57 149.97,-47.79"/>
</g>
</g>
</svg>
