<?xml version="1.0" encoding="UTF-8" standalone="no"?>
<!DOCTYPE svg PUBLIC "-//W3C//DTD SVG 1.1//EN"
 "http://www.w3.org/Graphics/SVG/1.1/DTD/svg11.dtd">
<!-- Generated by graphviz version 2.43.0 (0)
 -->
<!-- Title: utility.c Pages: 1 -->
<svg width="2540pt" height="308pt"
 viewBox="0.00 0.00 2540.00 308.00" xmlns="http://www.w3.org/2000/svg" xmlns:xlink="http://www.w3.org/1999/xlink">
<g id="graph0" class="graph" transform="scale(1 1) rotate(0) translate(4 304)">
<title>utility.c</title>
<polygon fill="white" stroke="transparent" points="-4,4 -4,-304 2536,-304 2536,4 -4,4"/>
<!-- Node1 -->
<g id="node1" class="node">
<title>Node1</title>
<g id="a_node1"><a xlink:title=" ">
<polygon fill="#bfbfbf" stroke="black" points="1129,-280.5 1129,-299.5 1181,-299.5 1181,-280.5 1129,-280.5"/>
<text text-anchor="middle" x="1155" y="-287.5" font-family="FreeSans" font-size="10.00">utility.c</text>
</a>
</g>
</g>
<!-- Node2 -->
<g id="node2" class="node">
<title>Node2</title>
<g id="a_node2"><a xlink:href="studio_8h.html" target="_top" xlink:title=" ">
<polygon fill="white" stroke="black" points="1484.5,-168.5 1484.5,-187.5 1579.5,-187.5 1579.5,-168.5 1484.5,-168.5"/>
<text text-anchor="middle" x="1532" y="-175.5" font-family="FreeSans" font-size="10.00">magick/studio.h</text>
</a>
</g>
</g>
<!-- Node1&#45;&gt;Node2 -->
<g id="edge1" class="edge">
<title>Node1&#45;&gt;Node2</title>
<path fill="none" stroke="midnightblue" d="M1172.73,-280.49C1201.69,-266.87 1261.23,-240.08 1314,-224 1367.33,-207.75 1429.78,-195.52 1474.14,-187.95"/>
<polygon fill="midnightblue" stroke="midnightblue" points="1474.88,-191.37 1484.16,-186.26 1473.72,-184.47 1474.88,-191.37"/>
</g>
<!-- Node24 -->
<g id="node23" class="node">
<title>Node24</title>
<g id="a_node23"><a xlink:href="property_8h.html" target="_top" xlink:title=" ">
<polygon fill="white" stroke="black" points="1323,-224.5 1323,-243.5 1427,-243.5 1427,-224.5 1323,-224.5"/>
<text text-anchor="middle" x="1375" y="-231.5" font-family="FreeSans" font-size="10.00">magick/property.h</text>
</a>
</g>
</g>
<!-- Node1&#45;&gt;Node24 -->
<g id="edge23" class="edge">
<title>Node1&#45;&gt;Node24</title>
<path fill="none" stroke="midnightblue" d="M1181.1,-282.59C1217.93,-273.55 1285.63,-256.94 1330.49,-245.92"/>
<polygon fill="midnightblue" stroke="midnightblue" points="1331.38,-249.31 1340.25,-243.53 1329.71,-242.51 1331.38,-249.31"/>
</g>
<!-- Node25 -->
<g id="node24" class="node">
<title>Node25</title>
<g id="a_node24"><a xlink:href="blob_8h.html" target="_top" xlink:title=" ">
<polygon fill="white" stroke="black" points="151,-224.5 151,-243.5 237,-243.5 237,-224.5 151,-224.5"/>
<text text-anchor="middle" x="194" y="-231.5" font-family="FreeSans" font-size="10.00">magick/blob.h</text>
</a>
</g>
</g>
<!-- Node1&#45;&gt;Node25 -->
<g id="edge24" class="edge">
<title>Node1&#45;&gt;Node25</title>
<path fill="none" stroke="midnightblue" d="M1128.73,-287.82C1024.92,-283.13 633.14,-264.97 311,-244 290.14,-242.64 267.2,-240.93 247.21,-239.36"/>
<polygon fill="midnightblue" stroke="midnightblue" points="247.29,-235.85 237.05,-238.55 246.74,-242.83 247.29,-235.85"/>
</g>
<!-- Node27 -->
<g id="node26" class="node">
<title>Node27</title>
<g id="a_node26"><a xlink:href="color_8h.html" target="_top" xlink:title=" ">
<polygon fill="white" stroke="black" points="222,-112.5 222,-131.5 310,-131.5 310,-112.5 222,-112.5"/>
<text text-anchor="middle" x="266" y="-119.5" font-family="FreeSans" font-size="10.00">magick/color.h</text>
</a>
</g>
</g>
<!-- Node1&#45;&gt;Node27 -->
<g id="edge37" class="edge">
<title>Node1&#45;&gt;Node27</title>
<path fill="none" stroke="midnightblue" d="M1128.83,-289.26C1015.68,-290.09 568.33,-290.34 437,-244 372.07,-221.09 309.66,-165.89 281.55,-138.69"/>
<polygon fill="midnightblue" stroke="midnightblue" points="283.84,-136.03 274.26,-131.51 278.93,-141.02 283.84,-136.03"/>
</g>
<!-- Node31 -->
<g id="node28" class="node">
<title>Node31</title>
<g id="a_node28"><a xlink:href="exception_8h.html" target="_top" xlink:title=" ">
<polygon fill="white" stroke="black" points="463.5,-56.5 463.5,-75.5 576.5,-75.5 576.5,-56.5 463.5,-56.5"/>
<text text-anchor="middle" x="520" y="-63.5" font-family="FreeSans" font-size="10.00">magick/exception.h</text>
</a>
</g>
</g>
<!-- Node1&#45;&gt;Node31 -->
<g id="edge38" class="edge">
<title>Node1&#45;&gt;Node31</title>
<path fill="none" stroke="midnightblue" d="M1128.7,-288.66C1017.49,-287.03 589.4,-278.52 541,-244 512.16,-223.43 502.59,-200.36 517,-168 526.73,-146.15 547.27,-153.85 557,-132 560.62,-123.88 560,-120.37 557,-112 553.06,-101 545.14,-90.77 537.64,-82.85"/>
<polygon fill="midnightblue" stroke="midnightblue" points="540.02,-80.28 530.44,-75.76 535.11,-85.27 540.02,-80.28"/>
</g>
<!-- Node32 -->
<g id="node29" class="node">
<title>Node32</title>
<g id="a_node29"><a xlink:href="semaphore_8h.html" target="_top" xlink:title=" ">
<polygon fill="white" stroke="black" points="287.5,-0.5 287.5,-19.5 406.5,-19.5 406.5,-0.5 287.5,-0.5"/>
<text text-anchor="middle" x="347" y="-7.5" font-family="FreeSans" font-size="10.00">magick/semaphore.h</text>
</a>
</g>
</g>
<!-- Node1&#45;&gt;Node32 -->
<g id="edge67" class="edge">
<title>Node1&#45;&gt;Node32</title>
<path fill="none" stroke="midnightblue" d="M1128.98,-289.33C957.81,-291.2 0,-296.39 0,-179 0,-179 0,-179 0,-121 0,-63.41 175.85,-32.07 277.18,-18.79"/>
<polygon fill="midnightblue" stroke="midnightblue" points="277.88,-22.23 287.35,-17.49 276.98,-15.29 277.88,-22.23"/>
</g>
<!-- Node38 -->
<g id="node30" class="node">
<title>Node38</title>
<g id="a_node30"><a xlink:href="geometry_8h.html" target="_top" xlink:title=" ">
<polygon fill="white" stroke="black" points="328,-112.5 328,-131.5 438,-131.5 438,-112.5 328,-112.5"/>
<text text-anchor="middle" x="383" y="-119.5" font-family="FreeSans" font-size="10.00">magick/geometry.h</text>
</a>
</g>
</g>
<!-- Node1&#45;&gt;Node38 -->
<g id="edge50" class="edge">
<title>Node1&#45;&gt;Node38</title>
<path fill="none" stroke="midnightblue" d="M1128.89,-288.64C1010.03,-286.85 523.46,-277.49 465,-244 424.76,-220.95 400.19,-169.15 389.42,-141.39"/>
<polygon fill="midnightblue" stroke="midnightblue" points="392.6,-139.9 385.85,-131.73 386.03,-142.33 392.6,-139.9"/>
</g>
<!-- Node51 -->
<g id="node32" class="node">
<title>Node51</title>
<g id="a_node32"><a xlink:href="exception-private_8h.html" target="_top" xlink:title=" ">
<polygon fill="white" stroke="black" points="747.5,-224.5 747.5,-243.5 898.5,-243.5 898.5,-224.5 747.5,-224.5"/>
<text text-anchor="middle" x="823" y="-231.5" font-family="FreeSans" font-size="10.00">magick/exception&#45;private.h</text>
</a>
</g>
</g>
<!-- Node1&#45;&gt;Node51 -->
<g id="edge39" class="edge">
<title>Node1&#45;&gt;Node51</title>
<path fill="none" stroke="midnightblue" d="M1128.95,-284.76C1076.9,-276.3 958.78,-257.08 885.47,-245.16"/>
<polygon fill="midnightblue" stroke="midnightblue" points="885.87,-241.68 875.44,-243.53 884.75,-248.59 885.87,-241.68"/>
</g>
<!-- Node52 -->
<g id="node33" class="node">
<title>Node52</title>
<g id="a_node33"><a xlink:href="log_8h.html" target="_top" xlink:title=" ">
<polygon fill="white" stroke="black" points="684,-168.5 684,-187.5 764,-187.5 764,-168.5 684,-168.5"/>
<text text-anchor="middle" x="724" y="-175.5" font-family="FreeSans" font-size="10.00">magick/log.h</text>
</a>
</g>
</g>
<!-- Node1&#45;&gt;Node52 -->
<g id="edge53" class="edge">
<title>Node1&#45;&gt;Node52</title>
<path fill="none" stroke="midnightblue" d="M1128.88,-287.94C1042.08,-284.16 767.12,-270.22 738,-244 725.29,-232.55 722.6,-212.57 722.59,-197.78"/>
<polygon fill="midnightblue" stroke="midnightblue" points="726.09,-197.83 722.99,-187.7 719.1,-197.55 726.09,-197.83"/>
</g>
<!-- Node44 -->
<g id="node35" class="node">
<title>Node44</title>
<g id="a_node35"><a xlink:href="string___8h.html" target="_top" xlink:title=" ">
<polygon fill="white" stroke="black" points="960,-168.5 960,-187.5 1058,-187.5 1058,-168.5 960,-168.5"/>
<text text-anchor="middle" x="1009" y="-175.5" font-family="FreeSans" font-size="10.00">magick/string_.h</text>
</a>
</g>
</g>
<!-- Node1&#45;&gt;Node44 -->
<g id="edge71" class="edge">
<title>Node1&#45;&gt;Node44</title>
<path fill="none" stroke="midnightblue" d="M1181.07,-281.08C1212.73,-270.14 1259.51,-248.91 1239,-224 1217.76,-198.2 1129.1,-186.98 1068.27,-182.26"/>
<polygon fill="midnightblue" stroke="midnightblue" points="1068.24,-178.75 1058.01,-181.5 1067.73,-185.73 1068.24,-178.75"/>
</g>
<!-- Node54 -->
<g id="node36" class="node">
<title>Node54</title>
<g id="a_node36"><a xlink:href="image-private_8h.html" target="_top" xlink:title=" ">
<polygon fill="white" stroke="black" points="1445,-224.5 1445,-243.5 1579,-243.5 1579,-224.5 1445,-224.5"/>
<text text-anchor="middle" x="1512" y="-231.5" font-family="FreeSans" font-size="10.00">magick/image&#45;private.h</text>
</a>
</g>
</g>
<!-- Node1&#45;&gt;Node54 -->
<g id="edge51" class="edge">
<title>Node1&#45;&gt;Node54</title>
<path fill="none" stroke="midnightblue" d="M1181.25,-285.03C1236.46,-276.68 1366.03,-257.08 1445.62,-245.04"/>
<polygon fill="midnightblue" stroke="midnightblue" points="1446.19,-248.49 1455.55,-243.54 1445.14,-241.57 1446.19,-248.49"/>
</g>
<!-- Node55 -->
<g id="node37" class="node">
<title>Node55</title>
<g id="a_node37"><a xlink:href="list_8h.html" target="_top" xlink:title=" ">
<polygon fill="white" stroke="black" points="1597,-224.5 1597,-243.5 1677,-243.5 1677,-224.5 1597,-224.5"/>
<text text-anchor="middle" x="1637" y="-231.5" font-family="FreeSans" font-size="10.00">magick/list.h</text>
</a>
</g>
</g>
<!-- Node1&#45;&gt;Node55 -->
<g id="edge52" class="edge">
<title>Node1&#45;&gt;Node55</title>
<path fill="none" stroke="midnightblue" d="M1181.45,-286.98C1247.84,-281.74 1427.08,-266.66 1586.92,-244.05"/>
<polygon fill="midnightblue" stroke="midnightblue" points="1587.53,-247.5 1596.93,-242.62 1586.54,-240.57 1587.53,-247.5"/>
</g>
<!-- Node56 -->
<g id="node38" class="node">
<title>Node56</title>
<g id="a_node38"><a xlink:href="memory___8h.html" target="_top" xlink:title=" ">
<polygon fill="white" stroke="black" points="829.5,-168.5 829.5,-187.5 940.5,-187.5 940.5,-168.5 829.5,-168.5"/>
<text text-anchor="middle" x="885" y="-175.5" font-family="FreeSans" font-size="10.00">magick/memory_.h</text>
</a>
</g>
</g>
<!-- Node1&#45;&gt;Node56 -->
<g id="edge54" class="edge">
<title>Node1&#45;&gt;Node56</title>
<path fill="none" stroke="midnightblue" d="M1128.97,-288.21C1087.81,-285.95 1006.3,-277.25 947,-244 926.05,-232.25 907.86,-211.11 896.7,-196.13"/>
<polygon fill="midnightblue" stroke="midnightblue" points="899.36,-193.84 890.7,-187.74 893.67,-197.91 899.36,-193.84"/>
</g>
<!-- Node57 -->
<g id="node39" class="node">
<title>Node57</title>
<g id="a_node39"><a xlink:href="nt-base-private_8h.html" target="_top" xlink:title=" ">
<polygon fill="white" stroke="red" points="526,-168.5 526,-187.5 666,-187.5 666,-168.5 526,-168.5"/>
<text text-anchor="middle" x="596" y="-175.5" font-family="FreeSans" font-size="10.00">magick/nt&#45;base&#45;private.h</text>
</a>
</g>
</g>
<!-- Node1&#45;&gt;Node57 -->
<g id="edge57" class="edge">
<title>Node1&#45;&gt;Node57</title>
<path fill="none" stroke="midnightblue" d="M1128.68,-289.1C1017.45,-289.23 589.86,-286.94 550,-244 535.29,-228.15 555.72,-207.41 573.85,-193.66"/>
<polygon fill="midnightblue" stroke="midnightblue" points="576.31,-196.2 582.4,-187.53 572.23,-190.52 576.31,-196.2"/>
</g>
<!-- Node61 -->
<g id="node40" class="node">
<title>Node61</title>
<g id="a_node40"><a xlink:href="option_8h.html" target="_top" xlink:title=" ">
<polygon fill="white" stroke="black" points="1695.5,-224.5 1695.5,-243.5 1790.5,-243.5 1790.5,-224.5 1695.5,-224.5"/>
<text text-anchor="middle" x="1743" y="-231.5" font-family="FreeSans" font-size="10.00">magick/option.h</text>
</a>
</g>
</g>
<!-- Node1&#45;&gt;Node61 -->
<g id="edge59" class="edge">
<title>Node1&#45;&gt;Node61</title>
<path fill="none" stroke="midnightblue" d="M1181.04,-287.46C1256.97,-282.83 1484.92,-267.93 1685.33,-243.99"/>
<polygon fill="midnightblue" stroke="midnightblue" points="1685.94,-247.44 1695.45,-242.77 1685.1,-240.49 1685.94,-247.44"/>
</g>
<!-- Node62 -->
<g id="node41" class="node">
<title>Node62</title>
<g id="a_node41"><a xlink:href="policy_8h.html" target="_top" xlink:title=" ">
<polygon fill="white" stroke="black" points="456,-112.5 456,-131.5 548,-131.5 548,-112.5 456,-112.5"/>
<text text-anchor="middle" x="502" y="-119.5" font-family="FreeSans" font-size="10.00">magick/policy.h</text>
</a>
</g>
</g>
<!-- Node1&#45;&gt;Node62 -->
<g id="edge60" class="edge">
<title>Node1&#45;&gt;Node62</title>
<path fill="none" stroke="midnightblue" d="M1128.86,-289.31C1009.98,-290.47 524.1,-292.2 479,-244 452.44,-215.62 475.2,-166.53 490.62,-140.46"/>
<polygon fill="midnightblue" stroke="midnightblue" points="493.77,-142.03 496.06,-131.68 487.82,-138.34 493.77,-142.03"/>
</g>
<!-- Node63 -->
<g id="node42" class="node">
<title>Node63</title>
<g id="a_node42"><a xlink:href="random___8h.html" target="_top" xlink:title=" ">
<polygon fill="white" stroke="black" points="955.5,-224.5 955.5,-243.5 1062.5,-243.5 1062.5,-224.5 955.5,-224.5"/>
<text text-anchor="middle" x="1009" y="-231.5" font-family="FreeSans" font-size="10.00">magick/random_.h</text>
</a>
</g>
</g>
<!-- Node1&#45;&gt;Node63 -->
<g id="edge63" class="edge">
<title>Node1&#45;&gt;Node63</title>
<path fill="none" stroke="midnightblue" d="M1131.87,-280.44C1107.52,-271.44 1068.99,-257.19 1041.58,-247.05"/>
<polygon fill="midnightblue" stroke="midnightblue" points="1042.62,-243.7 1032.03,-243.52 1040.19,-250.27 1042.62,-243.7"/>
</g>
<!-- Node64 -->
<g id="node43" class="node">
<title>Node64</title>
<g id="a_node43"><a xlink:href="registry_8h.html" target="_top" xlink:title=" ">
<polygon fill="white" stroke="black" points="1808.5,-224.5 1808.5,-243.5 1909.5,-243.5 1909.5,-224.5 1808.5,-224.5"/>
<text text-anchor="middle" x="1859" y="-231.5" font-family="FreeSans" font-size="10.00">magick/registry.h</text>
</a>
</g>
</g>
<!-- Node1&#45;&gt;Node64 -->
<g id="edge65" class="edge">
<title>Node1&#45;&gt;Node64</title>
<path fill="none" stroke="midnightblue" d="M1181.18,-287.94C1267.7,-284.29 1552.48,-270.96 1798,-244.14"/>
<polygon fill="midnightblue" stroke="midnightblue" points="1798.63,-247.6 1808.19,-243.02 1797.86,-240.64 1798.63,-247.6"/>
</g>
<!-- Node65 -->
<g id="node44" class="node">
<title>Node65</title>
<g id="a_node44"><a xlink:href="resource___8h.html" target="_top" xlink:title=" ">
<polygon fill="white" stroke="black" points="1928,-224.5 1928,-243.5 2040,-243.5 2040,-224.5 1928,-224.5"/>
<text text-anchor="middle" x="1984" y="-231.5" font-family="FreeSans" font-size="10.00">magick/resource_.h</text>
</a>
</g>
</g>
<!-- Node1&#45;&gt;Node65 -->
<g id="edge66" class="edge">
<title>Node1&#45;&gt;Node65</title>
<path fill="none" stroke="midnightblue" d="M1181.11,-288.21C1277.5,-285.13 1622.54,-272.72 1917.63,-244.06"/>
<polygon fill="midnightblue" stroke="midnightblue" points="1918.05,-247.54 1927.66,-243.08 1917.37,-240.57 1918.05,-247.54"/>
</g>
<!-- Node66 -->
<g id="node45" class="node">
<title>Node66</title>
<g id="a_node45"><a xlink:href="signature-private_8h.html" target="_top" xlink:title=" ">
<polygon fill="white" stroke="black" points="1080.5,-224.5 1080.5,-243.5 1229.5,-243.5 1229.5,-224.5 1080.5,-224.5"/>
<text text-anchor="middle" x="1155" y="-231.5" font-family="FreeSans" font-size="10.00">magick/signature&#45;private.h</text>
</a>
</g>
</g>
<!-- Node1&#45;&gt;Node66 -->
<g id="edge68" class="edge">
<title>Node1&#45;&gt;Node66</title>
<path fill="none" stroke="midnightblue" d="M1155,-280.08C1155,-273.01 1155,-262.86 1155,-253.99"/>
<polygon fill="midnightblue" stroke="midnightblue" points="1158.5,-253.75 1155,-243.75 1151.5,-253.75 1158.5,-253.75"/>
</g>
<!-- Node67 -->
<g id="node46" class="node">
<title>Node67</title>
<g id="a_node46"><a xlink:href="statistic_8h.html" target="_top" xlink:title=" ">
<polygon fill="white" stroke="red" points="2058,-224.5 2058,-243.5 2162,-243.5 2162,-224.5 2058,-224.5"/>
<text text-anchor="middle" x="2110" y="-231.5" font-family="FreeSans" font-size="10.00">magick/statistic.h</text>
</a>
</g>
</g>
<!-- Node1&#45;&gt;Node67 -->
<g id="edge70" class="edge">
<title>Node1&#45;&gt;Node67</title>
<path fill="none" stroke="midnightblue" d="M1181.03,-288.6C1287.32,-286.8 1698.89,-277.95 2047.75,-244.02"/>
<polygon fill="midnightblue" stroke="midnightblue" points="2048.19,-247.5 2057.8,-243.04 2047.5,-240.53 2048.19,-247.5"/>
</g>
<!-- Node70 -->
<g id="node47" class="node">
<title>Node70</title>
<g id="a_node47"><a xlink:href="string-private_8h.html" target="_top" xlink:title=" ">
<polygon fill="white" stroke="red" points="2180.5,-224.5 2180.5,-243.5 2311.5,-243.5 2311.5,-224.5 2180.5,-224.5"/>
<text text-anchor="middle" x="2246" y="-231.5" font-family="FreeSans" font-size="10.00">magick/string&#45;private.h</text>
</a>
</g>
</g>
<!-- Node1&#45;&gt;Node70 -->
<g id="edge72" class="edge">
<title>Node1&#45;&gt;Node70</title>
<path fill="none" stroke="midnightblue" d="M1181.34,-288.56C1296.84,-286.49 1770.2,-276.39 2170.15,-244"/>
<polygon fill="midnightblue" stroke="midnightblue" points="2170.5,-247.48 2180.18,-243.18 2169.93,-240.51 2170.5,-247.48"/>
</g>
<!-- Node72 -->
<g id="node48" class="node">
<title>Node72</title>
<g id="a_node48"><a xlink:href="token_8h.html" target="_top" xlink:title=" ">
<polygon fill="white" stroke="black" points="2330,-224.5 2330,-243.5 2422,-243.5 2422,-224.5 2330,-224.5"/>
<text text-anchor="middle" x="2376" y="-231.5" font-family="FreeSans" font-size="10.00">magick/token.h</text>
</a>
</g>
</g>
<!-- Node1&#45;&gt;Node72 -->
<g id="edge73" class="edge">
<title>Node1&#45;&gt;Node72</title>
<path fill="none" stroke="midnightblue" d="M1181.35,-289.19C1307.05,-289.82 1858.32,-289.78 2319.65,-244"/>
<polygon fill="midnightblue" stroke="midnightblue" points="2320.24,-247.46 2329.84,-242.98 2319.54,-240.49 2320.24,-247.46"/>
</g>
<!-- Node73 -->
<g id="node49" class="node">
<title>Node73</title>
<g id="a_node49"><a xlink:href="utility_8h.html" target="_top" xlink:title=" ">
<polygon fill="white" stroke="black" points="2440,-224.5 2440,-243.5 2532,-243.5 2532,-224.5 2440,-224.5"/>
<text text-anchor="middle" x="2486" y="-231.5" font-family="FreeSans" font-size="10.00">magick/utility.h</text>
</a>
</g>
</g>
<!-- Node1&#45;&gt;Node73 -->
<g id="edge74" class="edge">
<title>Node1&#45;&gt;Node73</title>
<path fill="none" stroke="midnightblue" d="M1181.14,-289.31C1313.39,-290.61 1922.17,-293.56 2429.75,-243.98"/>
<polygon fill="midnightblue" stroke="midnightblue" points="2430.23,-247.45 2439.84,-242.99 2429.55,-240.49 2430.23,-247.45"/>
</g>
<!-- Node74 -->
<g id="node50" class="node">
<title>Node74</title>
<g id="a_node50"><a xlink:href="utility-private_8h.html" target="_top" xlink:title=" ">
<polygon fill="white" stroke="red" points="559.5,-224.5 559.5,-243.5 690.5,-243.5 690.5,-224.5 559.5,-224.5"/>
<text text-anchor="middle" x="625" y="-231.5" font-family="FreeSans" font-size="10.00">magick/utility&#45;private.h</text>
</a>
</g>
</g>
<!-- Node1&#45;&gt;Node74 -->
<g id="edge75" class="edge">
<title>Node1&#45;&gt;Node74</title>
<path fill="none" stroke="midnightblue" d="M1128.61,-286.48C1059.21,-279.81 865.83,-261.09 705,-244 703.71,-243.86 702.41,-243.72 701.1,-243.58"/>
<polygon fill="midnightblue" stroke="midnightblue" points="701.23,-240.08 690.91,-242.48 700.48,-247.04 701.23,-240.08"/>
</g>
<!-- Node3 -->
<g id="node3" class="node">
<title>Node3</title>
<g id="a_node3"><a xlink:href="magick-config_8h.html" target="_top" xlink:title=" ">
<polygon fill="white" stroke="red" points="1062,-56.5 1062,-75.5 1196,-75.5 1196,-56.5 1062,-56.5"/>
<text text-anchor="middle" x="1129" y="-63.5" font-family="FreeSans" font-size="10.00">magick/magick&#45;config.h</text>
</a>
</g>
</g>
<!-- Node2&#45;&gt;Node3 -->
<g id="edge2" class="edge">
<title>Node2&#45;&gt;Node3</title>
<path fill="none" stroke="midnightblue" d="M1484.42,-175.5C1378.38,-171.67 1130.03,-159.81 1105,-132 1092.74,-118.38 1103.57,-97.94 1114.36,-83.63"/>
<polygon fill="midnightblue" stroke="midnightblue" points="1117.27,-85.6 1120.86,-75.63 1111.84,-81.18 1117.27,-85.6"/>
</g>
<!-- Node5 -->
<g id="node4" class="node">
<title>Node5</title>
<g id="a_node4"><a xlink:title=" ">
<polygon fill="white" stroke="#bfbfbf" points="696,-0.5 696,-19.5 752,-19.5 752,-0.5 696,-0.5"/>
<text text-anchor="middle" x="724" y="-7.5" font-family="FreeSans" font-size="10.00">stdarg.h</text>
</a>
</g>
</g>
<!-- Node2&#45;&gt;Node5 -->
<g id="edge3" class="edge">
<title>Node2&#45;&gt;Node5</title>
<path fill="none" stroke="midnightblue" d="M1484.38,-176.05C1433.12,-173.31 1350.41,-163.78 1287,-132 1242.58,-109.74 1250.36,-76.28 1205,-56 1126.04,-20.71 862.13,-13.07 762.51,-11.44"/>
<polygon fill="midnightblue" stroke="midnightblue" points="762.35,-7.94 752.29,-11.28 762.24,-14.94 762.35,-7.94"/>
</g>
<!-- Node6 -->
<g id="node5" class="node">
<title>Node6</title>
<g id="a_node5"><a xlink:title=" ">
<polygon fill="white" stroke="#bfbfbf" points="1296,-112.5 1296,-131.5 1346,-131.5 1346,-112.5 1296,-112.5"/>
<text text-anchor="middle" x="1321" y="-119.5" font-family="FreeSans" font-size="10.00">stdio.h</text>
</a>
</g>
</g>
<!-- Node2&#45;&gt;Node6 -->
<g id="edge4" class="edge">
<title>Node2&#45;&gt;Node6</title>
<path fill="none" stroke="midnightblue" d="M1498.58,-168.47C1463.18,-159.43 1405.64,-144.73 1356,-132 1355.9,-131.97 1355.8,-131.95 1355.7,-131.92"/>
<polygon fill="midnightblue" stroke="midnightblue" points="1356.79,-128.59 1346.23,-129.49 1355.05,-135.37 1356.79,-128.59"/>
</g>
<!-- Node7 -->
<g id="node6" class="node">
<title>Node7</title>
<g id="a_node6"><a xlink:title=" ">
<polygon fill="white" stroke="#bfbfbf" points="1364.5,-112.5 1364.5,-131.5 1417.5,-131.5 1417.5,-112.5 1364.5,-112.5"/>
<text text-anchor="middle" x="1391" y="-119.5" font-family="FreeSans" font-size="10.00">ctype.h</text>
</a>
</g>
</g>
<!-- Node2&#45;&gt;Node7 -->
<g id="edge5" class="edge">
<title>Node2&#45;&gt;Node7</title>
<path fill="none" stroke="midnightblue" d="M1509.66,-168.44C1486.25,-159.48 1449.26,-145.31 1422.81,-135.18"/>
<polygon fill="midnightblue" stroke="midnightblue" points="1423.83,-131.82 1413.24,-131.52 1421.32,-138.36 1423.83,-131.82"/>
</g>
<!-- Node8 -->
<g id="node7" class="node">
<title>Node8</title>
<g id="a_node7"><a xlink:title=" ">
<polygon fill="white" stroke="#bfbfbf" points="1435.5,-112.5 1435.5,-131.5 1490.5,-131.5 1490.5,-112.5 1435.5,-112.5"/>
<text text-anchor="middle" x="1463" y="-119.5" font-family="FreeSans" font-size="10.00">locale.h</text>
</a>
</g>
</g>
<!-- Node2&#45;&gt;Node8 -->
<g id="edge6" class="edge">
<title>Node2&#45;&gt;Node8</title>
<path fill="none" stroke="midnightblue" d="M1520.91,-168.32C1510.51,-160.18 1494.74,-147.84 1482.28,-138.09"/>
<polygon fill="midnightblue" stroke="midnightblue" points="1484.32,-135.24 1474.29,-131.83 1480.01,-140.75 1484.32,-135.24"/>
</g>
<!-- Node9 -->
<g id="node8" class="node">
<title>Node9</title>
<g id="a_node8"><a xlink:title=" ">
<polygon fill="white" stroke="#bfbfbf" points="828.5,-112.5 828.5,-131.5 879.5,-131.5 879.5,-112.5 828.5,-112.5"/>
<text text-anchor="middle" x="854" y="-119.5" font-family="FreeSans" font-size="10.00">errno.h</text>
</a>
</g>
</g>
<!-- Node2&#45;&gt;Node9 -->
<g id="edge7" class="edge">
<title>Node2&#45;&gt;Node9</title>
<path fill="none" stroke="midnightblue" d="M1484.48,-174.25C1382.33,-168.17 1134.27,-152.47 927,-132 914.81,-130.8 901.51,-129.23 889.64,-127.74"/>
<polygon fill="midnightblue" stroke="midnightblue" points="890,-124.26 879.64,-126.47 889.12,-131.21 890,-124.26"/>
</g>
<!-- Node10 -->
<g id="node9" class="node">
<title>Node10</title>
<g id="a_node9"><a xlink:title=" ">
<polygon fill="white" stroke="#bfbfbf" points="1508.5,-112.5 1508.5,-131.5 1555.5,-131.5 1555.5,-112.5 1508.5,-112.5"/>
<text text-anchor="middle" x="1532" y="-119.5" font-family="FreeSans" font-size="10.00">fcntl.h</text>
</a>
</g>
</g>
<!-- Node2&#45;&gt;Node10 -->
<g id="edge8" class="edge">
<title>Node2&#45;&gt;Node10</title>
<path fill="none" stroke="midnightblue" d="M1532,-168.08C1532,-161.01 1532,-150.86 1532,-141.99"/>
<polygon fill="midnightblue" stroke="midnightblue" points="1535.5,-141.75 1532,-131.75 1528.5,-141.75 1535.5,-141.75"/>
</g>
<!-- Node11 -->
<g id="node10" class="node">
<title>Node11</title>
<g id="a_node10"><a xlink:title=" ">
<polygon fill="white" stroke="#bfbfbf" points="1573.5,-112.5 1573.5,-131.5 1624.5,-131.5 1624.5,-112.5 1573.5,-112.5"/>
<text text-anchor="middle" x="1599" y="-119.5" font-family="FreeSans" font-size="10.00">math.h</text>
</a>
</g>
</g>
<!-- Node2&#45;&gt;Node11 -->
<g id="edge9" class="edge">
<title>Node2&#45;&gt;Node11</title>
<path fill="none" stroke="midnightblue" d="M1542.76,-168.32C1552.77,-160.26 1567.89,-148.08 1579.93,-138.37"/>
<polygon fill="midnightblue" stroke="midnightblue" points="1582.45,-140.83 1588.04,-131.83 1578.06,-135.38 1582.45,-140.83"/>
</g>
<!-- Node12 -->
<g id="node11" class="node">
<title>Node12</title>
<g id="a_node11"><a xlink:title=" ">
<polygon fill="white" stroke="#bfbfbf" points="1010,-112.5 1010,-131.5 1058,-131.5 1058,-112.5 1010,-112.5"/>
<text text-anchor="middle" x="1034" y="-119.5" font-family="FreeSans" font-size="10.00">time.h</text>
</a>
</g>
</g>
<!-- Node2&#45;&gt;Node12 -->
<g id="edge10" class="edge">
<title>Node2&#45;&gt;Node12</title>
<path fill="none" stroke="midnightblue" d="M1484.38,-174.47C1400.56,-169.54 1221.4,-156.88 1072,-132 1070.72,-131.79 1069.42,-131.56 1068.11,-131.31"/>
<polygon fill="midnightblue" stroke="midnightblue" points="1068.53,-127.82 1058.02,-129.21 1067.1,-134.67 1068.53,-127.82"/>
</g>
<!-- Node13 -->
<g id="node12" class="node">
<title>Node13</title>
<g id="a_node12"><a xlink:title=" ">
<polygon fill="white" stroke="#bfbfbf" points="1642.5,-112.5 1642.5,-131.5 1695.5,-131.5 1695.5,-112.5 1642.5,-112.5"/>
<text text-anchor="middle" x="1669" y="-119.5" font-family="FreeSans" font-size="10.00">limits.h</text>
</a>
</g>
</g>
<!-- Node2&#45;&gt;Node13 -->
<g id="edge11" class="edge">
<title>Node2&#45;&gt;Node13</title>
<path fill="none" stroke="midnightblue" d="M1553.71,-168.44C1576.35,-159.52 1612.07,-145.44 1637.75,-135.32"/>
<polygon fill="midnightblue" stroke="midnightblue" points="1639.37,-138.44 1647.39,-131.52 1636.81,-131.93 1639.37,-138.44"/>
</g>
<!-- Node14 -->
<g id="node13" class="node">
<title>Node14</title>
<g id="a_node13"><a xlink:title=" ">
<polygon fill="white" stroke="#bfbfbf" points="1713.5,-112.5 1713.5,-131.5 1768.5,-131.5 1768.5,-112.5 1713.5,-112.5"/>
<text text-anchor="middle" x="1741" y="-119.5" font-family="FreeSans" font-size="10.00">signal.h</text>
</a>
</g>
</g>
<!-- Node2&#45;&gt;Node14 -->
<g id="edge12" class="edge">
<title>Node2&#45;&gt;Node14</title>
<path fill="none" stroke="midnightblue" d="M1565.12,-168.44C1602.81,-158.7 1664.24,-142.83 1703.63,-132.66"/>
<polygon fill="midnightblue" stroke="midnightblue" points="1704.57,-136.03 1713.38,-130.14 1702.82,-129.25 1704.57,-136.03"/>
</g>
<!-- Node15 -->
<g id="node14" class="node">
<title>Node15</title>
<g id="a_node14"><a xlink:title=" ">
<polygon fill="white" stroke="#bfbfbf" points="936,-112.5 936,-131.5 992,-131.5 992,-112.5 936,-112.5"/>
<text text-anchor="middle" x="964" y="-119.5" font-family="FreeSans" font-size="10.00">assert.h</text>
</a>
</g>
</g>
<!-- Node2&#45;&gt;Node15 -->
<g id="edge13" class="edge">
<title>Node2&#45;&gt;Node15</title>
<path fill="none" stroke="midnightblue" d="M1484.46,-175.43C1392.88,-171.87 1185.59,-161.23 1002.28,-131.97"/>
<polygon fill="midnightblue" stroke="midnightblue" points="1002.62,-128.47 992.19,-130.33 1001.5,-135.38 1002.62,-128.47"/>
</g>
<!-- Node16 -->
<g id="node15" class="node">
<title>Node16</title>
<g id="a_node15"><a xlink:href="method-attribute_8h.html" target="_top" xlink:title=" ">
<polygon fill="white" stroke="black" points="1787,-112.5 1787,-131.5 1935,-131.5 1935,-112.5 1787,-112.5"/>
<text text-anchor="middle" x="1861" y="-119.5" font-family="FreeSans" font-size="10.00">magick/method&#45;attribute.h</text>
</a>
</g>
</g>
<!-- Node2&#45;&gt;Node16 -->
<g id="edge14" class="edge">
<title>Node2&#45;&gt;Node16</title>
<path fill="none" stroke="midnightblue" d="M1579.84,-169.15C1637.78,-159.64 1735.5,-143.6 1799.12,-133.16"/>
<polygon fill="midnightblue" stroke="midnightblue" points="1799.73,-136.6 1809.03,-131.53 1798.59,-129.7 1799.73,-136.6"/>
</g>
<!-- Node17 -->
<g id="node16" class="node">
<title>Node17</title>
<g id="a_node16"><a xlink:title=" ">
<polygon fill="white" stroke="#bfbfbf" points="1953,-112.5 1953,-131.5 2025,-131.5 2025,-112.5 1953,-112.5"/>
<text text-anchor="middle" x="1989" y="-119.5" font-family="FreeSans" font-size="10.00">sys/types.h</text>
</a>
</g>
</g>
<!-- Node2&#45;&gt;Node17 -->
<g id="edge15" class="edge">
<title>Node2&#45;&gt;Node17</title>
<path fill="none" stroke="midnightblue" d="M1579.76,-173.17C1654.84,-166.84 1805.22,-152.94 1942.43,-132.12"/>
<polygon fill="midnightblue" stroke="midnightblue" points="1943.35,-135.52 1952.7,-130.55 1942.28,-128.6 1943.35,-135.52"/>
</g>
<!-- Node18 -->
<g id="node17" class="node">
<title>Node18</title>
<g id="a_node17"><a xlink:title=" ">
<polygon fill="white" stroke="#bfbfbf" points="2043,-112.5 2043,-131.5 2107,-131.5 2107,-112.5 2043,-112.5"/>
<text text-anchor="middle" x="2075" y="-119.5" font-family="FreeSans" font-size="10.00">sys/stat.h</text>
</a>
</g>
</g>
<!-- Node2&#45;&gt;Node18 -->
<g id="edge16" class="edge">
<title>Node2&#45;&gt;Node18</title>
<path fill="none" stroke="midnightblue" d="M1579.65,-174.74C1667.42,-170.15 1860.63,-158 2032.84,-131.99"/>
<polygon fill="midnightblue" stroke="midnightblue" points="2033.49,-135.43 2042.84,-130.46 2032.43,-128.51 2033.49,-135.43"/>
</g>
<!-- Node19 -->
<g id="node18" class="node">
<title>Node19</title>
<g id="a_node18"><a xlink:title=" ">
<polygon fill="white" stroke="#bfbfbf" points="2125,-112.5 2125,-131.5 2179,-131.5 2179,-112.5 2125,-112.5"/>
<text text-anchor="middle" x="2152" y="-119.5" font-family="FreeSans" font-size="10.00">dirent.h</text>
</a>
</g>
</g>
<!-- Node2&#45;&gt;Node19 -->
<g id="edge17" class="edge">
<title>Node2&#45;&gt;Node19</title>
<path fill="none" stroke="midnightblue" d="M1579.63,-176.04C1678.02,-173.46 1910.85,-164.36 2114.97,-131.89"/>
<polygon fill="midnightblue" stroke="midnightblue" points="2115.66,-135.32 2124.97,-130.27 2114.54,-128.41 2115.66,-135.32"/>
</g>
<!-- Node20 -->
<g id="node19" class="node">
<title>Node20</title>
<g id="a_node19"><a xlink:title=" ">
<polygon fill="white" stroke="#bfbfbf" points="2197,-112.5 2197,-131.5 2263,-131.5 2263,-112.5 2197,-112.5"/>
<text text-anchor="middle" x="2230" y="-119.5" font-family="FreeSans" font-size="10.00">sys/wait.h</text>
</a>
</g>
</g>
<!-- Node2&#45;&gt;Node20 -->
<g id="edge18" class="edge">
<title>Node2&#45;&gt;Node20</title>
<path fill="none" stroke="midnightblue" d="M1579.58,-176.06C1686.48,-173.45 1953.92,-164.12 2186.6,-132"/>
<polygon fill="midnightblue" stroke="midnightblue" points="2187.19,-135.46 2196.61,-130.6 2186.22,-128.52 2187.19,-135.46"/>
</g>
<!-- Node21 -->
<g id="node20" class="node">
<title>Node21</title>
<g id="a_node20"><a xlink:title=" ">
<polygon fill="white" stroke="#bfbfbf" points="2281,-112.5 2281,-131.5 2327,-131.5 2327,-112.5 2281,-112.5"/>
<text text-anchor="middle" x="2304" y="-119.5" font-family="FreeSans" font-size="10.00">pwd.h</text>
</a>
</g>
</g>
<!-- Node2&#45;&gt;Node21 -->
<g id="edge19" class="edge">
<title>Node2&#45;&gt;Node21</title>
<path fill="none" stroke="midnightblue" d="M1579.58,-177.6C1696.19,-178.34 2005.44,-175.78 2270.51,-131.88"/>
<polygon fill="midnightblue" stroke="midnightblue" points="2271.43,-135.28 2280.71,-130.17 2270.27,-128.37 2271.43,-135.28"/>
</g>
<!-- Node22 -->
<g id="node21" class="node">
<title>Node22</title>
<g id="a_node21"><a xlink:href="magick-type_8h.html" target="_top" xlink:title=" ">
<polygon fill="white" stroke="black" points="1114,-112.5 1114,-131.5 1240,-131.5 1240,-112.5 1114,-112.5"/>
<text text-anchor="middle" x="1177" y="-119.5" font-family="FreeSans" font-size="10.00">magick/magick&#45;type.h</text>
</a>
</g>
</g>
<!-- Node2&#45;&gt;Node22 -->
<g id="edge20" class="edge">
<title>Node2&#45;&gt;Node22</title>
<path fill="none" stroke="midnightblue" d="M1484.49,-169.77C1422.36,-160.32 1313.21,-143.72 1243.05,-133.05"/>
<polygon fill="midnightblue" stroke="midnightblue" points="1243.41,-129.56 1233,-131.52 1242.36,-136.48 1243.41,-129.56"/>
</g>
<!-- Node23 -->
<g id="node22" class="node">
<title>Node23</title>
<g id="a_node22"><a xlink:title=" ">
<polygon fill="white" stroke="#bfbfbf" points="2345,-112.5 2345,-131.5 2413,-131.5 2413,-112.5 2345,-112.5"/>
<text text-anchor="middle" x="2379" y="-119.5" font-family="FreeSans" font-size="10.00">sys/time.h</text>
</a>
</g>
</g>
<!-- Node2&#45;&gt;Node23 -->
<g id="edge22" class="edge">
<title>Node2&#45;&gt;Node23</title>
<path fill="none" stroke="midnightblue" d="M1579.81,-176.83C1703.3,-175.84 2043.08,-169.75 2334.89,-131.94"/>
<polygon fill="midnightblue" stroke="midnightblue" points="2335.35,-135.41 2344.81,-130.64 2334.44,-128.47 2335.35,-135.41"/>
</g>
<!-- Node22&#45;&gt;Node3 -->
<g id="edge21" class="edge">
<title>Node22&#45;&gt;Node3</title>
<path fill="none" stroke="midnightblue" d="M1169.07,-112.08C1162.15,-104.3 1151.93,-92.8 1143.55,-83.37"/>
<polygon fill="midnightblue" stroke="midnightblue" points="1146.04,-80.9 1136.78,-75.75 1140.81,-85.55 1146.04,-80.9"/>
</g>
<!-- Node26 -->
<g id="node25" class="node">
<title>Node26</title>
<g id="a_node25"><a xlink:href="image_8h.html" target="_top" xlink:title=" ">
<polygon fill="white" stroke="red" points="146.5,-168.5 146.5,-187.5 241.5,-187.5 241.5,-168.5 146.5,-168.5"/>
<text text-anchor="middle" x="194" y="-175.5" font-family="FreeSans" font-size="10.00">magick/image.h</text>
</a>
</g>
</g>
<!-- Node25&#45;&gt;Node26 -->
<g id="edge25" class="edge">
<title>Node25&#45;&gt;Node26</title>
<path fill="none" stroke="midnightblue" d="M188.83,-224.08C187.32,-216.93 186.89,-206.64 187.54,-197.69"/>
<polygon fill="midnightblue" stroke="midnightblue" points="191.02,-198.13 188.87,-187.75 184.08,-197.2 191.02,-198.13"/>
</g>
<!-- Node49 -->
<g id="node31" class="node">
<title>Node49</title>
<g id="a_node31"><a xlink:href="stream_8h.html" target="_top" xlink:title=" ">
<polygon fill="white" stroke="black" points="28.5,-112.5 28.5,-131.5 127.5,-131.5 127.5,-112.5 28.5,-112.5"/>
<text text-anchor="middle" x="78" y="-119.5" font-family="FreeSans" font-size="10.00">magick/stream.h</text>
</a>
</g>
</g>
<!-- Node25&#45;&gt;Node49 -->
<g id="edge36" class="edge">
<title>Node25&#45;&gt;Node49</title>
<path fill="none" stroke="midnightblue" d="M181.74,-224.24C169.86,-215.55 151.56,-201.59 137,-188 120.55,-172.64 103.45,-153.38 91.92,-139.82"/>
<polygon fill="midnightblue" stroke="midnightblue" points="94.32,-137.24 85.21,-131.84 88.96,-141.74 94.32,-137.24"/>
</g>
<!-- Node26&#45;&gt;Node25 -->
<g id="edge31" class="edge">
<title>Node26&#45;&gt;Node25</title>
<path fill="none" stroke="midnightblue" d="M199.13,-187.75C200.66,-194.86 201.1,-205.14 200.47,-214.1"/>
<polygon fill="midnightblue" stroke="midnightblue" points="196.99,-213.71 199.17,-224.08 203.93,-214.62 196.99,-213.71"/>
</g>
<!-- Node26&#45;&gt;Node27 -->
<g id="edge26" class="edge">
<title>Node26&#45;&gt;Node27</title>
<path fill="none" stroke="midnightblue" d="M205.57,-168.32C216.42,-160.18 232.88,-147.84 245.88,-138.09"/>
<polygon fill="midnightblue" stroke="midnightblue" points="248.32,-140.63 254.22,-131.83 244.12,-135.03 248.32,-140.63"/>
</g>
<!-- Node28 -->
<g id="node27" class="node">
<title>Node28</title>
<g id="a_node27"><a xlink:href="pixel_8h.html" target="_top" xlink:title=" ">
<polygon fill="white" stroke="red" points="222,-56.5 222,-75.5 310,-75.5 310,-56.5 222,-56.5"/>
<text text-anchor="middle" x="266" y="-63.5" font-family="FreeSans" font-size="10.00">magick/pixel.h</text>
</a>
</g>
</g>
<!-- Node26&#45;&gt;Node28 -->
<g id="edge33" class="edge">
<title>Node26&#45;&gt;Node28</title>
<path fill="none" stroke="midnightblue" d="M194.93,-168.35C196.66,-155.23 201.35,-129.95 213,-112 220.8,-99.98 232.77,-89.42 243.36,-81.57"/>
<polygon fill="midnightblue" stroke="midnightblue" points="245.64,-84.24 251.81,-75.63 241.62,-78.51 245.64,-84.24"/>
</g>
<!-- Node26&#45;&gt;Node32 -->
<g id="edge34" class="edge">
<title>Node26&#45;&gt;Node32</title>
<path fill="none" stroke="midnightblue" d="M192.47,-168.35C189.14,-146.45 183.69,-88.27 213,-56 229.68,-37.64 254.07,-26.77 277.49,-20.32"/>
<polygon fill="midnightblue" stroke="midnightblue" points="278.59,-23.66 287.44,-17.83 276.89,-16.87 278.59,-23.66"/>
</g>
<!-- Node26&#45;&gt;Node38 -->
<g id="edge32" class="edge">
<title>Node26&#45;&gt;Node38</title>
<path fill="none" stroke="midnightblue" d="M223.95,-168.44C256.16,-159.24 307.53,-144.56 343.14,-134.39"/>
<polygon fill="midnightblue" stroke="midnightblue" points="344.54,-137.63 353.19,-131.52 342.62,-130.9 344.54,-137.63"/>
</g>
<!-- Node26&#45;&gt;Node49 -->
<g id="edge35" class="edge">
<title>Node26&#45;&gt;Node49</title>
<path fill="none" stroke="midnightblue" d="M175.62,-168.44C156.78,-159.68 127.27,-145.94 105.62,-135.86"/>
<polygon fill="midnightblue" stroke="midnightblue" points="106.84,-132.56 96.29,-131.52 103.88,-138.91 106.84,-132.56"/>
</g>
<!-- Node27&#45;&gt;Node28 -->
<g id="edge27" class="edge">
<title>Node27&#45;&gt;Node28</title>
<path fill="none" stroke="midnightblue" d="M266,-112.08C266,-105.01 266,-94.86 266,-85.99"/>
<polygon fill="midnightblue" stroke="midnightblue" points="269.5,-85.75 266,-75.75 262.5,-85.75 269.5,-85.75"/>
</g>
<!-- Node27&#45;&gt;Node31 -->
<g id="edge28" class="edge">
<title>Node27&#45;&gt;Node31</title>
<path fill="none" stroke="midnightblue" d="M306.25,-112.44C350.65,-103 422.15,-87.8 470.09,-77.61"/>
<polygon fill="midnightblue" stroke="midnightblue" points="470.89,-81.02 479.94,-75.52 469.43,-74.17 470.89,-81.02"/>
</g>
<!-- Node31&#45;&gt;Node5 -->
<g id="edge29" class="edge">
<title>Node31&#45;&gt;Node5</title>
<path fill="none" stroke="midnightblue" d="M552.32,-56.44C588.63,-46.83 647.49,-31.25 685.97,-21.07"/>
<polygon fill="midnightblue" stroke="midnightblue" points="687,-24.42 695.77,-18.47 685.21,-17.65 687,-24.42"/>
</g>
<!-- Node31&#45;&gt;Node32 -->
<g id="edge30" class="edge">
<title>Node31&#45;&gt;Node32</title>
<path fill="none" stroke="midnightblue" d="M492.59,-56.44C463.23,-47.28 416.48,-32.69 383.9,-22.52"/>
<polygon fill="midnightblue" stroke="midnightblue" points="384.87,-19.16 374.28,-19.52 382.79,-25.84 384.87,-19.16"/>
</g>
<!-- Node51&#45;&gt;Node52 -->
<g id="edge40" class="edge">
<title>Node51&#45;&gt;Node52</title>
<path fill="none" stroke="midnightblue" d="M807.09,-224.32C791.36,-215.74 767.06,-202.49 748.79,-192.52"/>
<polygon fill="midnightblue" stroke="midnightblue" points="750.32,-189.37 739.87,-187.65 746.97,-195.52 750.32,-189.37"/>
</g>
<!-- Node53 -->
<g id="node34" class="node">
<title>Node53</title>
<g id="a_node34"><a xlink:href="magick_8h.html" target="_top" xlink:title=" ">
<polygon fill="white" stroke="black" points="594.5,-56.5 594.5,-75.5 695.5,-75.5 695.5,-56.5 594.5,-56.5"/>
<text text-anchor="middle" x="645" y="-63.5" font-family="FreeSans" font-size="10.00">magick/magick.h</text>
</a>
</g>
</g>
<!-- Node51&#45;&gt;Node53 -->
<g id="edge43" class="edge">
<title>Node51&#45;&gt;Node53</title>
<path fill="none" stroke="midnightblue" d="M817.45,-224.47C808.8,-211.51 791.21,-186.44 773,-168 738.84,-133.41 692.9,-99.77 666.36,-81.38"/>
<polygon fill="midnightblue" stroke="midnightblue" points="668.07,-78.3 657.84,-75.53 664.11,-84.07 668.07,-78.3"/>
</g>
<!-- Node51&#45;&gt;Node44 -->
<g id="edge46" class="edge">
<title>Node51&#45;&gt;Node44</title>
<path fill="none" stroke="midnightblue" d="M852.47,-224.44C884.17,-215.24 934.73,-200.56 969.77,-190.39"/>
<polygon fill="midnightblue" stroke="midnightblue" points="971.04,-193.67 979.67,-187.52 969.09,-186.94 971.04,-193.67"/>
</g>
<!-- Node52&#45;&gt;Node5 -->
<g id="edge41" class="edge">
<title>Node52&#45;&gt;Node5</title>
<path fill="none" stroke="midnightblue" d="M724,-168.08C724,-141.95 724,-65.21 724,-29.58"/>
<polygon fill="midnightblue" stroke="midnightblue" points="727.5,-29.57 724,-19.57 720.5,-29.57 727.5,-29.57"/>
</g>
<!-- Node52&#45;&gt;Node31 -->
<g id="edge42" class="edge">
<title>Node52&#45;&gt;Node31</title>
<path fill="none" stroke="midnightblue" d="M709.08,-168.4C687.1,-155.78 644.63,-131.62 608,-112 587.45,-100.99 563.93,-89 546.38,-80.16"/>
<polygon fill="midnightblue" stroke="midnightblue" points="547.81,-76.96 537.3,-75.6 544.67,-83.22 547.81,-76.96"/>
</g>
<!-- Node53&#45;&gt;Node5 -->
<g id="edge44" class="edge">
<title>Node53&#45;&gt;Node5</title>
<path fill="none" stroke="midnightblue" d="M657.69,-56.32C669.9,-47.98 688.58,-35.21 703,-25.35"/>
<polygon fill="midnightblue" stroke="midnightblue" points="705.06,-28.19 711.34,-19.65 701.11,-22.41 705.06,-28.19"/>
</g>
<!-- Node53&#45;&gt;Node32 -->
<g id="edge45" class="edge">
<title>Node53&#45;&gt;Node32</title>
<path fill="none" stroke="midnightblue" d="M597.78,-56.44C545.25,-46.92 460.39,-31.55 404.15,-21.36"/>
<polygon fill="midnightblue" stroke="midnightblue" points="404.46,-17.86 394,-19.52 403.21,-24.74 404.46,-17.86"/>
</g>
<!-- Node44&#45;&gt;Node5 -->
<g id="edge47" class="edge">
<title>Node44&#45;&gt;Node5</title>
<path fill="none" stroke="midnightblue" d="M992.88,-168.37C976.28,-159.44 949.69,-144.98 927,-132 861.01,-94.24 784.2,-47.75 746.8,-24.95"/>
<polygon fill="midnightblue" stroke="midnightblue" points="748.53,-21.91 738.17,-19.68 744.88,-27.88 748.53,-21.91"/>
</g>
<!-- Node44&#45;&gt;Node12 -->
<g id="edge48" class="edge">
<title>Node44&#45;&gt;Node12</title>
<path fill="none" stroke="midnightblue" d="M1013.13,-168.08C1016.51,-160.77 1021.42,-150.18 1025.62,-141.1"/>
<polygon fill="midnightblue" stroke="midnightblue" points="1028.92,-142.3 1029.95,-131.75 1022.57,-139.36 1028.92,-142.3"/>
</g>
<!-- Node44&#45;&gt;Node31 -->
<g id="edge49" class="edge">
<title>Node44&#45;&gt;Node31</title>
<path fill="none" stroke="midnightblue" d="M971.04,-168.46C882.94,-148.64 664.74,-99.56 567.77,-77.75"/>
<polygon fill="midnightblue" stroke="midnightblue" points="568.46,-74.31 557.94,-75.53 566.93,-81.14 568.46,-74.31"/>
</g>
<!-- Node56&#45;&gt;Node9 -->
<g id="edge55" class="edge">
<title>Node56&#45;&gt;Node9</title>
<path fill="none" stroke="midnightblue" d="M879.88,-168.08C875.59,-160.61 869.34,-149.72 864.06,-140.52"/>
<polygon fill="midnightblue" stroke="midnightblue" points="867.04,-138.68 859.02,-131.75 860.97,-142.17 867.04,-138.68"/>
</g>
<!-- Node56&#45;&gt;Node15 -->
<g id="edge56" class="edge">
<title>Node56&#45;&gt;Node15</title>
<path fill="none" stroke="midnightblue" d="M897.69,-168.32C909.9,-159.98 928.58,-147.21 943,-137.35"/>
<polygon fill="midnightblue" stroke="midnightblue" points="945.06,-140.19 951.34,-131.65 941.11,-134.41 945.06,-140.19"/>
</g>
<!-- Node57&#45;&gt;Node31 -->
<g id="edge58" class="edge">
<title>Node57&#45;&gt;Node31</title>
<path fill="none" stroke="midnightblue" d="M597.47,-168.27C599.22,-155.05 600.71,-129.63 590,-112 581.41,-97.85 566.49,-87.36 552.62,-80.08"/>
<polygon fill="midnightblue" stroke="midnightblue" points="553.81,-76.76 543.29,-75.54 550.75,-83.06 553.81,-76.76"/>
</g>
<!-- Node62&#45;&gt;Node28 -->
<g id="edge61" class="edge">
<title>Node62&#45;&gt;Node28</title>
<path fill="none" stroke="midnightblue" d="M464.61,-112.44C423.61,-103.06 357.75,-87.99 313.22,-77.8"/>
<polygon fill="midnightblue" stroke="midnightblue" points="313.75,-74.34 303.22,-75.52 312.19,-81.16 313.75,-74.34"/>
</g>
<!-- Node62&#45;&gt;Node31 -->
<g id="edge62" class="edge">
<title>Node62&#45;&gt;Node31</title>
<path fill="none" stroke="midnightblue" d="M504.97,-112.08C507.38,-104.85 510.86,-94.41 513.87,-85.4"/>
<polygon fill="midnightblue" stroke="midnightblue" points="517.24,-86.34 517.08,-75.75 510.6,-84.13 517.24,-86.34"/>
</g>
<!-- Node63&#45;&gt;Node44 -->
<g id="edge64" class="edge">
<title>Node63&#45;&gt;Node44</title>
<path fill="none" stroke="midnightblue" d="M1009,-224.08C1009,-217.01 1009,-206.86 1009,-197.99"/>
<polygon fill="midnightblue" stroke="midnightblue" points="1012.5,-197.75 1009,-187.75 1005.5,-197.75 1012.5,-197.75"/>
</g>
<!-- Node66&#45;&gt;Node44 -->
<g id="edge69" class="edge">
<title>Node66&#45;&gt;Node44</title>
<path fill="none" stroke="midnightblue" d="M1131.87,-224.44C1107.52,-215.44 1068.99,-201.19 1041.58,-191.05"/>
<polygon fill="midnightblue" stroke="midnightblue" points="1042.62,-187.7 1032.03,-187.52 1040.19,-194.27 1042.62,-187.7"/>
</g>
<!-- Node74&#45;&gt;Node56 -->
<g id="edge76" class="edge">
<title>Node74&#45;&gt;Node56</title>
<path fill="none" stroke="midnightblue" d="M666.2,-224.44C711.65,-215 784.84,-199.8 833.91,-189.61"/>
<polygon fill="midnightblue" stroke="midnightblue" points="834.92,-192.98 843.99,-187.52 833.49,-186.12 834.92,-192.98"/>
</g>
<!-- Node74&#45;&gt;Node57 -->
<g id="edge77" class="edge">
<title>Node74&#45;&gt;Node57</title>
<path fill="none" stroke="midnightblue" d="M620.21,-224.08C616.24,-216.69 610.47,-205.95 605.57,-196.81"/>
<polygon fill="midnightblue" stroke="midnightblue" points="608.51,-194.91 600.7,-187.75 602.35,-198.22 608.51,-194.91"/>
</g>
</g>
</svg>
