<?xml version="1.0" encoding="UTF-8" standalone="no"?>
<!DOCTYPE svg PUBLIC "-//W3C//DTD SVG 1.1//EN"
 "http://www.w3.org/Graphics/SVG/1.1/DTD/svg11.dtd">
<!-- Generated by graphviz version 2.43.0 (0)
 -->
<!-- Title: utility&#45;private.h Pages: 1 -->
<svg width="1080pt" height="84pt"
 viewBox="0.00 0.00 1079.50 84.00" xmlns="http://www.w3.org/2000/svg" xmlns:xlink="http://www.w3.org/1999/xlink">
<g id="graph0" class="graph" transform="scale(1 1) rotate(0) translate(4 80)">
<title>utility&#45;private.h</title>
<polygon fill="white" stroke="transparent" points="-4,4 -4,-80 1075.5,-80 1075.5,4 -4,4"/>
<!-- Node1 -->
<g id="node1" class="node">
<title>Node1</title>
<g id="a_node1"><a xlink:title=" ">
<polygon fill="#bfbfbf" stroke="black" points="466,-56.5 466,-75.5 558,-75.5 558,-56.5 466,-56.5"/>
<text text-anchor="middle" x="512" y="-63.5" font-family="FreeSans" font-size="10.00">utility&#45;private.h</text>
</a>
</g>
</g>
<!-- Node2 -->
<g id="node2" class="node">
<title>Node2</title>
<g id="a_node2"><a xlink:href="blob_8c.html" target="_top" xlink:title=" ">
<polygon fill="white" stroke="black" points="0,-0.5 0,-19.5 46,-19.5 46,-0.5 0,-0.5"/>
<text text-anchor="middle" x="23" y="-7.5" font-family="FreeSans" font-size="10.00">blob.c</text>
</a>
</g>
</g>
<!-- Node1&#45;&gt;Node2 -->
<g id="edge1" class="edge">
<title>Node1&#45;&gt;Node2</title>
<path fill="none" stroke="midnightblue" d="M455.75,-62.65C369.05,-58.31 197.86,-46.91 55,-20 52.16,-19.47 49.22,-18.8 46.31,-18.07"/>
<polygon fill="midnightblue" stroke="midnightblue" points="455.73,-66.15 465.89,-63.14 456.07,-59.16 455.73,-66.15"/>
</g>
<!-- Node3 -->
<g id="node3" class="node">
<title>Node3</title>
<g id="a_node3"><a xlink:href="cache_8c.html" target="_top" xlink:title=" ">
<polygon fill="white" stroke="black" points="64.5,-0.5 64.5,-19.5 117.5,-19.5 117.5,-0.5 64.5,-0.5"/>
<text text-anchor="middle" x="91" y="-7.5" font-family="FreeSans" font-size="10.00">cache.c</text>
</a>
</g>
</g>
<!-- Node1&#45;&gt;Node3 -->
<g id="edge2" class="edge">
<title>Node1&#45;&gt;Node3</title>
<path fill="none" stroke="midnightblue" d="M455.58,-60.69C380.25,-54.42 242.86,-41.16 127,-20 123.96,-19.44 120.79,-18.78 117.65,-18.07"/>
<polygon fill="midnightblue" stroke="midnightblue" points="455.53,-64.2 465.79,-61.53 456.11,-57.22 455.53,-64.2"/>
</g>
<!-- Node4 -->
<g id="node4" class="node">
<title>Node4</title>
<g id="a_node4"><a xlink:href="delegate_8c.html" target="_top" xlink:title=" ">
<polygon fill="white" stroke="black" points="136,-0.5 136,-19.5 204,-19.5 204,-0.5 136,-0.5"/>
<text text-anchor="middle" x="170" y="-7.5" font-family="FreeSans" font-size="10.00">delegate.c</text>
</a>
</g>
</g>
<!-- Node1&#45;&gt;Node4 -->
<g id="edge3" class="edge">
<title>Node1&#45;&gt;Node4</title>
<path fill="none" stroke="midnightblue" d="M455.71,-57.5C395.49,-49.25 297.25,-35.14 213,-20 210.15,-19.49 207.19,-18.93 204.23,-18.35"/>
<polygon fill="midnightblue" stroke="midnightblue" points="455.39,-60.99 465.77,-58.87 456.33,-54.05 455.39,-60.99"/>
</g>
<!-- Node5 -->
<g id="node5" class="node">
<title>Node5</title>
<g id="a_node5"><a xlink:href="display_8c.html" target="_top" xlink:title=" ">
<polygon fill="white" stroke="black" points="222.5,-0.5 222.5,-19.5 281.5,-19.5 281.5,-0.5 222.5,-0.5"/>
<text text-anchor="middle" x="252" y="-7.5" font-family="FreeSans" font-size="10.00">display.c</text>
</a>
</g>
</g>
<!-- Node1&#45;&gt;Node5 -->
<g id="edge4" class="edge">
<title>Node1&#45;&gt;Node5</title>
<path fill="none" stroke="midnightblue" d="M458.24,-54.46C413.44,-45.58 347.97,-32.37 291,-20 288.01,-19.35 284.9,-18.66 281.79,-17.96"/>
<polygon fill="midnightblue" stroke="midnightblue" points="457.83,-57.95 468.32,-56.45 459.19,-51.08 457.83,-57.95"/>
</g>
<!-- Node6 -->
<g id="node6" class="node">
<title>Node6</title>
<g id="a_node6"><a xlink:href="log_8c.html" target="_top" xlink:title=" ">
<polygon fill="white" stroke="black" points="300,-0.5 300,-19.5 340,-19.5 340,-0.5 300,-0.5"/>
<text text-anchor="middle" x="320" y="-7.5" font-family="FreeSans" font-size="10.00">log.c</text>
</a>
</g>
</g>
<!-- Node1&#45;&gt;Node6 -->
<g id="edge5" class="edge">
<title>Node1&#45;&gt;Node6</title>
<path fill="none" stroke="midnightblue" d="M469.99,-53.79C437.01,-44.9 389.98,-32.01 349,-20 346.17,-19.17 343.19,-18.27 340.26,-17.38"/>
<polygon fill="midnightblue" stroke="midnightblue" points="469.18,-57.2 479.75,-56.42 471,-50.44 469.18,-57.2"/>
</g>
<!-- Node7 -->
<g id="node7" class="node">
<title>Node7</title>
<g id="a_node7"><a xlink:href="memory_8c.html" target="_top" xlink:title=" ">
<polygon fill="white" stroke="black" points="358.5,-0.5 358.5,-19.5 423.5,-19.5 423.5,-0.5 358.5,-0.5"/>
<text text-anchor="middle" x="391" y="-7.5" font-family="FreeSans" font-size="10.00">memory.c</text>
</a>
</g>
</g>
<!-- Node1&#45;&gt;Node7 -->
<g id="edge6" class="edge">
<title>Node1&#45;&gt;Node7</title>
<path fill="none" stroke="midnightblue" d="M483.69,-52.37C461.03,-42.26 429.87,-28.35 410.08,-19.52"/>
<polygon fill="midnightblue" stroke="midnightblue" points="482.27,-55.56 492.83,-56.44 485.12,-49.17 482.27,-55.56"/>
</g>
<!-- Node8 -->
<g id="node8" class="node">
<title>Node8</title>
<g id="a_node8"><a xlink:href="module_8c.html" target="_top" xlink:title=" ">
<polygon fill="white" stroke="black" points="442,-0.5 442,-19.5 504,-19.5 504,-0.5 442,-0.5"/>
<text text-anchor="middle" x="473" y="-7.5" font-family="FreeSans" font-size="10.00">module.c</text>
</a>
</g>
</g>
<!-- Node1&#45;&gt;Node8 -->
<g id="edge7" class="edge">
<title>Node1&#45;&gt;Node8</title>
<path fill="none" stroke="midnightblue" d="M499.62,-47.86C492.86,-38.5 484.79,-27.33 479.32,-19.75"/>
<polygon fill="midnightblue" stroke="midnightblue" points="496.87,-50.03 505.56,-56.08 502.54,-45.93 496.87,-50.03"/>
</g>
<!-- Node9 -->
<g id="node9" class="node">
<title>Node9</title>
<g id="a_node9"><a xlink:href="opencl_8c.html" target="_top" xlink:title=" ">
<polygon fill="white" stroke="black" points="522.5,-0.5 522.5,-19.5 579.5,-19.5 579.5,-0.5 522.5,-0.5"/>
<text text-anchor="middle" x="551" y="-7.5" font-family="FreeSans" font-size="10.00">opencl.c</text>
</a>
</g>
</g>
<!-- Node1&#45;&gt;Node9 -->
<g id="edge8" class="edge">
<title>Node1&#45;&gt;Node9</title>
<path fill="none" stroke="midnightblue" d="M524.38,-47.86C531.14,-38.5 539.21,-27.33 544.68,-19.75"/>
<polygon fill="midnightblue" stroke="midnightblue" points="521.46,-45.93 518.44,-56.08 527.13,-50.03 521.46,-45.93"/>
</g>
<!-- Node10 -->
<g id="node10" class="node">
<title>Node10</title>
<g id="a_node10"><a xlink:href="random_8c.html" target="_top" xlink:title=" ">
<polygon fill="white" stroke="black" points="598,-0.5 598,-19.5 660,-19.5 660,-0.5 598,-0.5"/>
<text text-anchor="middle" x="629" y="-7.5" font-family="FreeSans" font-size="10.00">random.c</text>
</a>
</g>
</g>
<!-- Node1&#45;&gt;Node10 -->
<g id="edge9" class="edge">
<title>Node1&#45;&gt;Node10</title>
<path fill="none" stroke="midnightblue" d="M539.66,-52.23C561.55,-42.13 591.5,-28.31 610.55,-19.52"/>
<polygon fill="midnightblue" stroke="midnightblue" points="538.15,-49.08 530.54,-56.44 541.09,-55.43 538.15,-49.08"/>
</g>
<!-- Node11 -->
<g id="node11" class="node">
<title>Node11</title>
<g id="a_node11"><a xlink:href="resource_8c.html" target="_top" xlink:title=" ">
<polygon fill="white" stroke="black" points="678.5,-0.5 678.5,-19.5 745.5,-19.5 745.5,-0.5 678.5,-0.5"/>
<text text-anchor="middle" x="712" y="-7.5" font-family="FreeSans" font-size="10.00">resource.c</text>
</a>
</g>
</g>
<!-- Node1&#45;&gt;Node11 -->
<g id="edge10" class="edge">
<title>Node1&#45;&gt;Node11</title>
<path fill="none" stroke="midnightblue" d="M553.37,-53.83C591.14,-43.63 646.14,-28.78 680.46,-19.52"/>
<polygon fill="midnightblue" stroke="midnightblue" points="552.43,-50.46 543.69,-56.44 554.26,-57.22 552.43,-50.46"/>
</g>
<!-- Node12 -->
<g id="node12" class="node">
<title>Node12</title>
<g id="a_node12"><a xlink:href="semaphore_8c.html" target="_top" xlink:title=" ">
<polygon fill="white" stroke="black" points="764,-0.5 764,-19.5 844,-19.5 844,-0.5 764,-0.5"/>
<text text-anchor="middle" x="804" y="-7.5" font-family="FreeSans" font-size="10.00">semaphore.c</text>
</a>
</g>
</g>
<!-- Node1&#45;&gt;Node12 -->
<g id="edge11" class="edge">
<title>Node1&#45;&gt;Node12</title>
<path fill="none" stroke="midnightblue" d="M568.24,-54.6C625.49,-44.01 712.84,-27.86 763.59,-18.47"/>
<polygon fill="midnightblue" stroke="midnightblue" points="567.47,-51.18 558.27,-56.44 568.74,-58.07 567.47,-51.18"/>
</g>
<!-- Node13 -->
<g id="node13" class="node">
<title>Node13</title>
<g id="a_node13"><a xlink:href="string_8c.html" target="_top" xlink:title=" ">
<polygon fill="white" stroke="black" points="862.5,-0.5 862.5,-19.5 915.5,-19.5 915.5,-0.5 862.5,-0.5"/>
<text text-anchor="middle" x="889" y="-7.5" font-family="FreeSans" font-size="10.00">string.c</text>
</a>
</g>
</g>
<!-- Node1&#45;&gt;Node13 -->
<g id="edge12" class="edge">
<title>Node1&#45;&gt;Node13</title>
<path fill="none" stroke="midnightblue" d="M568.09,-59.58C635.92,-52.56 753.4,-38.96 853,-20 856.04,-19.42 859.2,-18.74 862.34,-18.02"/>
<polygon fill="midnightblue" stroke="midnightblue" points="567.64,-56.1 558.04,-60.6 568.35,-63.07 567.64,-56.1"/>
</g>
<!-- Node14 -->
<g id="node14" class="node">
<title>Node14</title>
<g id="a_node14"><a xlink:href="utility_8c.html" target="_top" xlink:title=" ">
<polygon fill="white" stroke="black" points="934,-0.5 934,-19.5 986,-19.5 986,-0.5 934,-0.5"/>
<text text-anchor="middle" x="960" y="-7.5" font-family="FreeSans" font-size="10.00">utility.c</text>
</a>
</g>
</g>
<!-- Node1&#45;&gt;Node14 -->
<g id="edge13" class="edge">
<title>Node1&#45;&gt;Node14</title>
<path fill="none" stroke="midnightblue" d="M568.47,-61.42C648.35,-55.77 798.69,-43 925,-20 927.84,-19.48 930.79,-18.86 933.72,-18.19"/>
<polygon fill="midnightblue" stroke="midnightblue" points="567.88,-57.95 558.15,-62.14 568.36,-64.93 567.88,-57.95"/>
</g>
<!-- Node15 -->
<g id="node15" class="node">
<title>Node15</title>
<g id="a_node15"><a xlink:href="xml-tree_8c.html" target="_top" xlink:title=" ">
<polygon fill="white" stroke="black" points="1004.5,-0.5 1004.5,-19.5 1071.5,-19.5 1071.5,-0.5 1004.5,-0.5"/>
<text text-anchor="middle" x="1038" y="-7.5" font-family="FreeSans" font-size="10.00">xml&#45;tree.c</text>
</a>
</g>
</g>
<!-- Node1&#45;&gt;Node15 -->
<g id="edge14" class="edge">
<title>Node1&#45;&gt;Node15</title>
<path fill="none" stroke="midnightblue" d="M568.19,-61.84C658.51,-56.3 841.44,-43.15 995,-20 998.02,-19.55 1001.14,-19.01 1004.26,-18.44"/>
<polygon fill="midnightblue" stroke="midnightblue" points="567.93,-58.35 558.16,-62.45 568.36,-65.34 567.93,-58.35"/>
</g>
</g>
</svg>
