<?xml version="1.0" encoding="UTF-8" standalone="no"?>
<!DOCTYPE svg PUBLIC "-//W3C//DTD SVG 1.1//EN"
 "http://www.w3.org/Graphics/SVG/1.1/DTD/svg11.dtd">
<!-- Generated by graphviz version 2.43.0 (0)
 -->
<!-- Title: utility&#45;private.h Pages: 1 -->
<svg width="691pt" height="308pt"
 viewBox="0.00 0.00 690.50 308.00" xmlns="http://www.w3.org/2000/svg" xmlns:xlink="http://www.w3.org/1999/xlink">
<g id="graph0" class="graph" transform="scale(1 1) rotate(0) translate(4 304)">
<title>utility&#45;private.h</title>
<polygon fill="white" stroke="transparent" points="-4,4 -4,-304 686.5,-304 686.5,4 -4,4"/>
<!-- Node1 -->
<g id="node1" class="node">
<title>Node1</title>
<g id="a_node1"><a xlink:title=" ">
<polygon fill="#bfbfbf" stroke="black" points="186.5,-280.5 186.5,-299.5 278.5,-299.5 278.5,-280.5 186.5,-280.5"/>
<text text-anchor="middle" x="232.5" y="-287.5" font-family="FreeSans" font-size="10.00">utility&#45;private.h</text>
</a>
</g>
</g>
<!-- Node2 -->
<g id="node2" class="node">
<title>Node2</title>
<g id="a_node2"><a xlink:href="memory___8h.html" target="_top" xlink:title=" ">
<polygon fill="white" stroke="black" points="42,-224.5 42,-243.5 153,-243.5 153,-224.5 42,-224.5"/>
<text text-anchor="middle" x="97.5" y="-231.5" font-family="FreeSans" font-size="10.00">magick/memory_.h</text>
</a>
</g>
</g>
<!-- Node1&#45;&gt;Node2 -->
<g id="edge1" class="edge">
<title>Node1&#45;&gt;Node2</title>
<path fill="none" stroke="midnightblue" d="M211.11,-280.44C188.79,-271.52 153.6,-257.44 128.29,-247.32"/>
<polygon fill="midnightblue" stroke="midnightblue" points="129.38,-243.98 118.79,-243.52 126.78,-250.48 129.38,-243.98"/>
</g>
<!-- Node5 -->
<g id="node5" class="node">
<title>Node5</title>
<g id="a_node5"><a xlink:href="nt-base_8h.html" target="_top" xlink:title=" ">
<polygon fill="white" stroke="black" points="182,-224.5 182,-243.5 283,-243.5 283,-224.5 182,-224.5"/>
<text text-anchor="middle" x="232.5" y="-231.5" font-family="FreeSans" font-size="10.00">magick/nt&#45;base.h</text>
</a>
</g>
</g>
<!-- Node1&#45;&gt;Node5 -->
<g id="edge4" class="edge">
<title>Node1&#45;&gt;Node5</title>
<path fill="none" stroke="midnightblue" d="M232.5,-280.08C232.5,-273.01 232.5,-262.86 232.5,-253.99"/>
<polygon fill="midnightblue" stroke="midnightblue" points="236,-253.75 232.5,-243.75 229,-253.75 236,-253.75"/>
</g>
<!-- Node10 -->
<g id="node10" class="node">
<title>Node10</title>
<g id="a_node10"><a xlink:href="nt-base-private_8h.html" target="_top" xlink:title=" ">
<polygon fill="white" stroke="black" points="306.5,-224.5 306.5,-243.5 446.5,-243.5 446.5,-224.5 306.5,-224.5"/>
<text text-anchor="middle" x="376.5" y="-231.5" font-family="FreeSans" font-size="10.00">magick/nt&#45;base&#45;private.h</text>
</a>
</g>
</g>
<!-- Node1&#45;&gt;Node10 -->
<g id="edge9" class="edge">
<title>Node1&#45;&gt;Node10</title>
<path fill="none" stroke="midnightblue" d="M255.32,-280.44C279.33,-271.44 317.33,-257.19 344.37,-247.05"/>
<polygon fill="midnightblue" stroke="midnightblue" points="345.66,-250.3 353.79,-243.52 343.2,-243.75 345.66,-250.3"/>
</g>
<!-- Node3 -->
<g id="node3" class="node">
<title>Node3</title>
<g id="a_node3"><a xlink:title=" ">
<polygon fill="white" stroke="#bfbfbf" points="0,-168.5 0,-187.5 51,-187.5 51,-168.5 0,-168.5"/>
<text text-anchor="middle" x="25.5" y="-175.5" font-family="FreeSans" font-size="10.00">errno.h</text>
</a>
</g>
</g>
<!-- Node2&#45;&gt;Node3 -->
<g id="edge2" class="edge">
<title>Node2&#45;&gt;Node3</title>
<path fill="none" stroke="midnightblue" d="M85.93,-224.32C75.08,-216.18 58.62,-203.84 45.62,-194.09"/>
<polygon fill="midnightblue" stroke="midnightblue" points="47.38,-191.03 37.28,-187.83 43.18,-196.63 47.38,-191.03"/>
</g>
<!-- Node4 -->
<g id="node4" class="node">
<title>Node4</title>
<g id="a_node4"><a xlink:title=" ">
<polygon fill="white" stroke="#bfbfbf" points="69.5,-168.5 69.5,-187.5 125.5,-187.5 125.5,-168.5 69.5,-168.5"/>
<text text-anchor="middle" x="97.5" y="-175.5" font-family="FreeSans" font-size="10.00">assert.h</text>
</a>
</g>
</g>
<!-- Node2&#45;&gt;Node4 -->
<g id="edge3" class="edge">
<title>Node2&#45;&gt;Node4</title>
<path fill="none" stroke="midnightblue" d="M97.5,-224.08C97.5,-217.01 97.5,-206.86 97.5,-197.99"/>
<polygon fill="midnightblue" stroke="midnightblue" points="101,-197.75 97.5,-187.75 94,-197.75 101,-197.75"/>
</g>
<!-- Node6 -->
<g id="node6" class="node">
<title>Node6</title>
<g id="a_node6"><a xlink:href="exception_8h.html" target="_top" xlink:title=" ">
<polygon fill="white" stroke="black" points="203,-56.5 203,-75.5 316,-75.5 316,-56.5 203,-56.5"/>
<text text-anchor="middle" x="259.5" y="-63.5" font-family="FreeSans" font-size="10.00">magick/exception.h</text>
</a>
</g>
</g>
<!-- Node5&#45;&gt;Node6 -->
<g id="edge5" class="edge">
<title>Node5&#45;&gt;Node6</title>
<path fill="none" stroke="midnightblue" d="M240.71,-224.18C248.04,-215.66 258.26,-202.02 262.5,-188 273.07,-153.1 267.93,-109.92 263.52,-85.72"/>
<polygon fill="midnightblue" stroke="midnightblue" points="266.93,-84.89 261.55,-75.76 260.06,-86.25 266.93,-84.89"/>
</g>
<!-- Node9 -->
<g id="node9" class="node">
<title>Node9</title>
<g id="a_node9"><a xlink:href="geometry_8h.html" target="_top" xlink:title=" ">
<polygon fill="white" stroke="black" points="143.5,-168.5 143.5,-187.5 253.5,-187.5 253.5,-168.5 143.5,-168.5"/>
<text text-anchor="middle" x="198.5" y="-175.5" font-family="FreeSans" font-size="10.00">magick/geometry.h</text>
</a>
</g>
</g>
<!-- Node5&#45;&gt;Node9 -->
<g id="edge8" class="edge">
<title>Node5&#45;&gt;Node9</title>
<path fill="none" stroke="midnightblue" d="M226.89,-224.08C222.13,-216.53 215.18,-205.49 209.35,-196.23"/>
<polygon fill="midnightblue" stroke="midnightblue" points="212.3,-194.35 204.01,-187.75 206.38,-198.08 212.3,-194.35"/>
</g>
<!-- Node7 -->
<g id="node7" class="node">
<title>Node7</title>
<g id="a_node7"><a xlink:title=" ">
<polygon fill="white" stroke="#bfbfbf" points="359.5,-0.5 359.5,-19.5 415.5,-19.5 415.5,-0.5 359.5,-0.5"/>
<text text-anchor="middle" x="387.5" y="-7.5" font-family="FreeSans" font-size="10.00">stdarg.h</text>
</a>
</g>
</g>
<!-- Node6&#45;&gt;Node7 -->
<g id="edge6" class="edge">
<title>Node6&#45;&gt;Node7</title>
<path fill="none" stroke="midnightblue" d="M279.78,-56.44C300.85,-47.56 334.02,-33.56 357.99,-23.45"/>
<polygon fill="midnightblue" stroke="midnightblue" points="359.46,-26.63 367.31,-19.52 356.74,-20.18 359.46,-26.63"/>
</g>
<!-- Node8 -->
<g id="node8" class="node">
<title>Node8</title>
<g id="a_node8"><a xlink:href="semaphore_8h.html" target="_top" xlink:title=" ">
<polygon fill="white" stroke="black" points="211,-0.5 211,-19.5 330,-19.5 330,-0.5 211,-0.5"/>
<text text-anchor="middle" x="270.5" y="-7.5" font-family="FreeSans" font-size="10.00">magick/semaphore.h</text>
</a>
</g>
</g>
<!-- Node6&#45;&gt;Node8 -->
<g id="edge7" class="edge">
<title>Node6&#45;&gt;Node8</title>
<path fill="none" stroke="midnightblue" d="M261.32,-56.08C262.77,-48.93 264.87,-38.64 266.69,-29.69"/>
<polygon fill="midnightblue" stroke="midnightblue" points="270.15,-30.25 268.72,-19.75 263.29,-28.85 270.15,-30.25"/>
</g>
<!-- Node10&#45;&gt;Node6 -->
<g id="edge18" class="edge">
<title>Node10&#45;&gt;Node6</title>
<path fill="none" stroke="midnightblue" d="M370.21,-224.08C351.47,-197.49 295.82,-118.54 271.32,-83.76"/>
<polygon fill="midnightblue" stroke="midnightblue" points="274.16,-81.73 265.54,-75.57 268.44,-85.76 274.16,-81.73"/>
</g>
<!-- Node11 -->
<g id="node11" class="node">
<title>Node11</title>
<g id="a_node11"><a xlink:href="delegate_8h.html" target="_top" xlink:title=" ">
<polygon fill="white" stroke="black" points="334,-56.5 334,-75.5 441,-75.5 441,-56.5 334,-56.5"/>
<text text-anchor="middle" x="387.5" y="-63.5" font-family="FreeSans" font-size="10.00">magick/delegate.h</text>
</a>
</g>
</g>
<!-- Node10&#45;&gt;Node11 -->
<g id="edge10" class="edge">
<title>Node10&#45;&gt;Node11</title>
<path fill="none" stroke="midnightblue" d="M377.09,-224.08C378.82,-197.95 383.91,-121.21 386.27,-85.58"/>
<polygon fill="midnightblue" stroke="midnightblue" points="389.76,-85.78 386.93,-75.57 382.78,-85.31 389.76,-85.78"/>
</g>
<!-- Node12 -->
<g id="node12" class="node">
<title>Node12</title>
<g id="a_node12"><a xlink:href="delegate-private_8h.html" target="_top" xlink:title=" ">
<polygon fill="white" stroke="black" points="404.5,-168.5 404.5,-187.5 550.5,-187.5 550.5,-168.5 404.5,-168.5"/>
<text text-anchor="middle" x="477.5" y="-175.5" font-family="FreeSans" font-size="10.00">magick/delegate&#45;private.h</text>
</a>
</g>
</g>
<!-- Node10&#45;&gt;Node12 -->
<g id="edge13" class="edge">
<title>Node10&#45;&gt;Node12</title>
<path fill="none" stroke="midnightblue" d="M392.73,-224.32C408.85,-215.7 433.8,-202.36 452.46,-192.39"/>
<polygon fill="midnightblue" stroke="midnightblue" points="454.14,-195.46 461.31,-187.65 450.84,-189.28 454.14,-195.46"/>
</g>
<!-- Node15 -->
<g id="node15" class="node">
<title>Node15</title>
<g id="a_node15"><a xlink:href="splay-tree_8h.html" target="_top" xlink:title=" ">
<polygon fill="white" stroke="black" points="568.5,-168.5 568.5,-187.5 682.5,-187.5 682.5,-168.5 568.5,-168.5"/>
<text text-anchor="middle" x="625.5" y="-175.5" font-family="FreeSans" font-size="10.00">magick/splay&#45;tree.h</text>
</a>
</g>
</g>
<!-- Node10&#45;&gt;Node15 -->
<g id="edge19" class="edge">
<title>Node10&#45;&gt;Node15</title>
<path fill="none" stroke="midnightblue" d="M415.95,-224.44C459.39,-215.02 529.29,-199.87 576.28,-189.68"/>
<polygon fill="midnightblue" stroke="midnightblue" points="577.2,-193.06 586.23,-187.52 575.72,-186.22 577.2,-193.06"/>
</g>
<!-- Node11&#45;&gt;Node7 -->
<g id="edge11" class="edge">
<title>Node11&#45;&gt;Node7</title>
<path fill="none" stroke="midnightblue" d="M387.5,-56.08C387.5,-49.01 387.5,-38.86 387.5,-29.99"/>
<polygon fill="midnightblue" stroke="midnightblue" points="391,-29.75 387.5,-19.75 384,-29.75 391,-29.75"/>
</g>
<!-- Node11&#45;&gt;Node8 -->
<g id="edge12" class="edge">
<title>Node11&#45;&gt;Node8</title>
<path fill="none" stroke="midnightblue" d="M368.96,-56.44C349.88,-47.64 319.93,-33.81 298.06,-23.72"/>
<polygon fill="midnightblue" stroke="midnightblue" points="299.5,-20.53 288.95,-19.52 296.57,-26.88 299.5,-20.53"/>
</g>
<!-- Node13 -->
<g id="node13" class="node">
<title>Node13</title>
<g id="a_node13"><a xlink:href="string___8h.html" target="_top" xlink:title=" ">
<polygon fill="white" stroke="black" points="431.5,-112.5 431.5,-131.5 529.5,-131.5 529.5,-112.5 431.5,-112.5"/>
<text text-anchor="middle" x="480.5" y="-119.5" font-family="FreeSans" font-size="10.00">magick/string_.h</text>
</a>
</g>
</g>
<!-- Node12&#45;&gt;Node13 -->
<g id="edge14" class="edge">
<title>Node12&#45;&gt;Node13</title>
<path fill="none" stroke="midnightblue" d="M478,-168.08C478.39,-161.01 478.95,-150.86 479.45,-141.99"/>
<polygon fill="midnightblue" stroke="midnightblue" points="482.95,-141.93 480.01,-131.75 475.96,-141.54 482.95,-141.93"/>
</g>
<!-- Node13&#45;&gt;Node6 -->
<g id="edge17" class="edge">
<title>Node13&#45;&gt;Node6</title>
<path fill="none" stroke="midnightblue" d="M445.48,-112.44C407.25,-103.1 345.93,-88.12 304.24,-77.93"/>
<polygon fill="midnightblue" stroke="midnightblue" points="304.9,-74.49 294.35,-75.52 303.24,-81.29 304.9,-74.49"/>
</g>
<!-- Node13&#45;&gt;Node7 -->
<g id="edge15" class="edge">
<title>Node13&#45;&gt;Node7</title>
<path fill="none" stroke="midnightblue" d="M491.69,-112.22C506.69,-99.38 529.95,-74.93 516.5,-56 496.1,-27.28 455.97,-16.74 425.85,-12.95"/>
<polygon fill="midnightblue" stroke="midnightblue" points="425.98,-9.44 415.67,-11.87 425.24,-16.41 425.98,-9.44"/>
</g>
<!-- Node14 -->
<g id="node14" class="node">
<title>Node14</title>
<g id="a_node14"><a xlink:title=" ">
<polygon fill="white" stroke="#bfbfbf" points="459.5,-56.5 459.5,-75.5 507.5,-75.5 507.5,-56.5 459.5,-56.5"/>
<text text-anchor="middle" x="483.5" y="-63.5" font-family="FreeSans" font-size="10.00">time.h</text>
</a>
</g>
</g>
<!-- Node13&#45;&gt;Node14 -->
<g id="edge16" class="edge">
<title>Node13&#45;&gt;Node14</title>
<path fill="none" stroke="midnightblue" d="M481,-112.08C481.39,-105.01 481.95,-94.86 482.45,-85.99"/>
<polygon fill="midnightblue" stroke="midnightblue" points="485.95,-85.93 483.01,-75.75 478.96,-85.54 485.95,-85.93"/>
</g>
</g>
</svg>
