<?xml version="1.0" encoding="UTF-8" standalone="no"?>
<!DOCTYPE svg PUBLIC "-//W3C//DTD SVG 1.1//EN"
 "http://www.w3.org/Graphics/SVG/1.1/DTD/svg11.dtd">
<!-- Generated by graphviz version 2.43.0 (0)
 -->
<!-- Title: version.c Pages: 1 -->
<svg width="2005pt" height="252pt"
 viewBox="0.00 0.00 2004.50 252.00" xmlns="http://www.w3.org/2000/svg" xmlns:xlink="http://www.w3.org/1999/xlink">
<g id="graph0" class="graph" transform="scale(1 1) rotate(0) translate(4 248)">
<title>version.c</title>
<polygon fill="white" stroke="transparent" points="-4,4 -4,-248 2000.5,-248 2000.5,4 -4,4"/>
<!-- Node1 -->
<g id="node1" class="node">
<title>Node1</title>
<g id="a_node1"><a xlink:title=" ">
<polygon fill="#bfbfbf" stroke="black" points="948,-224.5 948,-243.5 1009,-243.5 1009,-224.5 948,-224.5"/>
<text text-anchor="middle" x="978.5" y="-231.5" font-family="FreeSans" font-size="10.00">version.c</text>
</a>
</g>
</g>
<!-- Node2 -->
<g id="node2" class="node">
<title>Node2</title>
<g id="a_node2"><a xlink:href="studio_8h.html" target="_top" xlink:title=" ">
<polygon fill="white" stroke="black" points="893,-168.5 893,-187.5 988,-187.5 988,-168.5 893,-168.5"/>
<text text-anchor="middle" x="940.5" y="-175.5" font-family="FreeSans" font-size="10.00">magick/studio.h</text>
</a>
</g>
</g>
<!-- Node1&#45;&gt;Node2 -->
<g id="edge1" class="edge">
<title>Node1&#45;&gt;Node2</title>
<path fill="none" stroke="midnightblue" d="M972.23,-224.08C966.86,-216.46 958.98,-205.26 952.42,-195.94"/>
<polygon fill="midnightblue" stroke="midnightblue" points="955.28,-193.91 946.66,-187.75 949.55,-197.94 955.28,-193.91"/>
</g>
<!-- Node24 -->
<g id="node24" class="node">
<title>Node24</title>
<g id="a_node24"><a xlink:href="configure_8h.html" target="_top" xlink:title=" ">
<polygon fill="white" stroke="black" points="1044.5,-168.5 1044.5,-187.5 1154.5,-187.5 1154.5,-168.5 1044.5,-168.5"/>
<text text-anchor="middle" x="1099.5" y="-175.5" font-family="FreeSans" font-size="10.00">magick/configure.h</text>
</a>
</g>
</g>
<!-- Node1&#45;&gt;Node24 -->
<g id="edge24" class="edge">
<title>Node1&#45;&gt;Node24</title>
<path fill="none" stroke="midnightblue" d="M997.67,-224.44C1017.41,-215.64 1048.39,-201.81 1070.99,-191.72"/>
<polygon fill="midnightblue" stroke="midnightblue" points="1072.71,-194.79 1080.42,-187.52 1069.86,-188.4 1072.71,-194.79"/>
</g>
<!-- Node25 -->
<g id="node25" class="node">
<title>Node25</title>
<g id="a_node25"><a xlink:href="hashmap_8h.html" target="_top" xlink:title=" ">
<polygon fill="white" stroke="black" points="1886.5,-112.5 1886.5,-131.5 1996.5,-131.5 1996.5,-112.5 1886.5,-112.5"/>
<text text-anchor="middle" x="1941.5" y="-119.5" font-family="FreeSans" font-size="10.00">magick/hashmap.h</text>
</a>
</g>
</g>
<!-- Node1&#45;&gt;Node25 -->
<g id="edge40" class="edge">
<title>Node1&#45;&gt;Node25</title>
<path fill="none" stroke="midnightblue" d="M983.04,-224.26C991.24,-209.53 1010.05,-180.19 1035.5,-168 1117.56,-128.68 1747.09,-139.84 1876.38,-131.85"/>
<polygon fill="midnightblue" stroke="midnightblue" points="1876.67,-135.33 1886.38,-131.1 1876.15,-128.35 1876.67,-135.33"/>
</g>
<!-- Node26 -->
<g id="node26" class="node">
<title>Node26</title>
<g id="a_node26"><a xlink:href="exception_8h.html" target="_top" xlink:title=" ">
<polygon fill="white" stroke="black" points="119,-56.5 119,-75.5 232,-75.5 232,-56.5 119,-56.5"/>
<text text-anchor="middle" x="175.5" y="-63.5" font-family="FreeSans" font-size="10.00">magick/exception.h</text>
</a>
</g>
</g>
<!-- Node1&#45;&gt;Node26 -->
<g id="edge26" class="edge">
<title>Node1&#45;&gt;Node26</title>
<path fill="none" stroke="midnightblue" d="M947.87,-232.61C795.22,-230.55 122.59,-219.66 92.5,-188 59.8,-153.59 118.68,-105.16 153.15,-81.36"/>
<polygon fill="midnightblue" stroke="midnightblue" points="155.37,-84.08 161.72,-75.59 151.47,-78.27 155.37,-84.08"/>
</g>
<!-- Node28 -->
<g id="node28" class="node">
<title>Node28</title>
<g id="a_node28"><a xlink:href="exception-private_8h.html" target="_top" xlink:title=" ">
<polygon fill="white" stroke="black" points="102,-168.5 102,-187.5 253,-187.5 253,-168.5 102,-168.5"/>
<text text-anchor="middle" x="177.5" y="-175.5" font-family="FreeSans" font-size="10.00">magick/exception&#45;private.h</text>
</a>
</g>
</g>
<!-- Node1&#45;&gt;Node28 -->
<g id="edge29" class="edge">
<title>Node1&#45;&gt;Node28</title>
<path fill="none" stroke="midnightblue" d="M947.68,-231.44C848.85,-226.34 531.03,-209.29 268.5,-188 266.97,-187.88 265.42,-187.75 263.86,-187.62"/>
<polygon fill="midnightblue" stroke="midnightblue" points="263.72,-184.09 253.45,-186.71 263.11,-191.07 263.72,-184.09"/>
</g>
<!-- Node31 -->
<g id="node31" class="node">
<title>Node31</title>
<g id="a_node31"><a xlink:href="string___8h.html" target="_top" xlink:title=" ">
<polygon fill="white" stroke="black" points="233.5,-112.5 233.5,-131.5 331.5,-131.5 331.5,-112.5 233.5,-112.5"/>
<text text-anchor="middle" x="282.5" y="-119.5" font-family="FreeSans" font-size="10.00">magick/string_.h</text>
</a>
</g>
</g>
<!-- Node1&#45;&gt;Node31 -->
<g id="edge47" class="edge">
<title>Node1&#45;&gt;Node31</title>
<path fill="none" stroke="midnightblue" d="M947.7,-232.99C822.03,-232.69 352.37,-228.83 301.5,-188 287.91,-177.09 283.69,-157.03 282.54,-142.06"/>
<polygon fill="midnightblue" stroke="midnightblue" points="286.03,-141.71 282.16,-131.85 279.04,-141.98 286.03,-141.71"/>
</g>
<!-- Node32 -->
<g id="node32" class="node">
<title>Node32</title>
<g id="a_node32"><a xlink:href="locale___8h.html" target="_top" xlink:title=" ">
<polygon fill="white" stroke="black" points="1173,-168.5 1173,-187.5 1272,-187.5 1272,-168.5 1173,-168.5"/>
<text text-anchor="middle" x="1222.5" y="-175.5" font-family="FreeSans" font-size="10.00">magick/locale_.h</text>
</a>
</g>
</g>
<!-- Node1&#45;&gt;Node32 -->
<g id="edge41" class="edge">
<title>Node1&#45;&gt;Node32</title>
<path fill="none" stroke="midnightblue" d="M1009.4,-226.16C1050.83,-216.99 1124.8,-200.62 1173.77,-189.78"/>
<polygon fill="midnightblue" stroke="midnightblue" points="1174.81,-193.14 1183.82,-187.56 1173.3,-186.3 1174.81,-193.14"/>
</g>
<!-- Node33 -->
<g id="node33" class="node">
<title>Node33</title>
<g id="a_node33"><a xlink:href="memory___8h.html" target="_top" xlink:title=" ">
<polygon fill="white" stroke="black" points="468,-168.5 468,-187.5 579,-187.5 579,-168.5 468,-168.5"/>
<text text-anchor="middle" x="523.5" y="-175.5" font-family="FreeSans" font-size="10.00">magick/memory_.h</text>
</a>
</g>
</g>
<!-- Node1&#45;&gt;Node33 -->
<g id="edge43" class="edge">
<title>Node1&#45;&gt;Node33</title>
<path fill="none" stroke="midnightblue" d="M947.94,-229.37C874.93,-220.71 689.04,-198.65 589.23,-186.8"/>
<polygon fill="midnightblue" stroke="midnightblue" points="589.6,-183.32 579.25,-185.62 588.77,-190.27 589.6,-183.32"/>
</g>
<!-- Node34 -->
<g id="node34" class="node">
<title>Node34</title>
<g id="a_node34"><a xlink:href="option_8h.html" target="_top" xlink:title=" ">
<polygon fill="white" stroke="black" points="1290,-168.5 1290,-187.5 1385,-187.5 1385,-168.5 1290,-168.5"/>
<text text-anchor="middle" x="1337.5" y="-175.5" font-family="FreeSans" font-size="10.00">magick/option.h</text>
</a>
</g>
</g>
<!-- Node1&#45;&gt;Node34 -->
<g id="edge46" class="edge">
<title>Node1&#45;&gt;Node34</title>
<path fill="none" stroke="midnightblue" d="M1009.05,-228.59C1062.02,-220.91 1174.58,-204.47 1279.7,-188.27"/>
<polygon fill="midnightblue" stroke="midnightblue" points="1280.5,-191.68 1289.85,-186.7 1279.43,-184.77 1280.5,-191.68"/>
</g>
<!-- Node35 -->
<g id="node35" class="node">
<title>Node35</title>
<g id="a_node35"><a xlink:href="utility_8h.html" target="_top" xlink:title=" ">
<polygon fill="white" stroke="black" points="1403.5,-168.5 1403.5,-187.5 1495.5,-187.5 1495.5,-168.5 1403.5,-168.5"/>
<text text-anchor="middle" x="1449.5" y="-175.5" font-family="FreeSans" font-size="10.00">magick/utility.h</text>
</a>
</g>
</g>
<!-- Node1&#45;&gt;Node35 -->
<g id="edge48" class="edge">
<title>Node1&#45;&gt;Node35</title>
<path fill="none" stroke="midnightblue" d="M1009.1,-230.27C1076.49,-224.12 1243.01,-208.26 1393,-188.14"/>
<polygon fill="midnightblue" stroke="midnightblue" points="1393.87,-191.55 1403.31,-186.74 1392.94,-184.62 1393.87,-191.55"/>
</g>
<!-- Node36 -->
<g id="node36" class="node">
<title>Node36</title>
<g id="a_node36"><a xlink:href="version_8h.html" target="_top" xlink:title=" ">
<polygon fill="white" stroke="black" points="1514,-168.5 1514,-187.5 1615,-187.5 1615,-168.5 1514,-168.5"/>
<text text-anchor="middle" x="1564.5" y="-175.5" font-family="FreeSans" font-size="10.00">magick/version.h</text>
</a>
</g>
</g>
<!-- Node1&#45;&gt;Node36 -->
<g id="edge49" class="edge">
<title>Node1&#45;&gt;Node36</title>
<path fill="none" stroke="midnightblue" d="M1009.1,-231.06C1088.72,-225.88 1309.06,-210.62 1503.66,-188.02"/>
<polygon fill="midnightblue" stroke="midnightblue" points="1504.27,-191.48 1513.79,-186.84 1503.45,-184.52 1504.27,-191.48"/>
</g>
<!-- Node37 -->
<g id="node37" class="node">
<title>Node37</title>
<g id="a_node37"><a xlink:href="version-private_8h.html" target="_top" xlink:title=" ">
<polygon fill="white" stroke="black" points="311,-168.5 311,-187.5 450,-187.5 450,-168.5 311,-168.5"/>
<text text-anchor="middle" x="380.5" y="-175.5" font-family="FreeSans" font-size="10.00">magick/version&#45;private.h</text>
</a>
</g>
</g>
<!-- Node1&#45;&gt;Node37 -->
<g id="edge50" class="edge">
<title>Node1&#45;&gt;Node37</title>
<path fill="none" stroke="midnightblue" d="M947.99,-230.67C869.13,-224.57 651.82,-207.35 460.2,-188.15"/>
<polygon fill="midnightblue" stroke="midnightblue" points="460.53,-184.66 450.23,-187.15 459.83,-191.63 460.53,-184.66"/>
</g>
<!-- Node3 -->
<g id="node3" class="node">
<title>Node3</title>
<g id="a_node3"><a xlink:href="magick-config_8h.html" target="_top" xlink:title=" ">
<polygon fill="white" stroke="black" points="1721.5,-56.5 1721.5,-75.5 1855.5,-75.5 1855.5,-56.5 1721.5,-56.5"/>
<text text-anchor="middle" x="1788.5" y="-63.5" font-family="FreeSans" font-size="10.00">magick/magick&#45;config.h</text>
</a>
</g>
</g>
<!-- Node2&#45;&gt;Node3 -->
<g id="edge2" class="edge">
<title>Node2&#45;&gt;Node3</title>
<path fill="none" stroke="midnightblue" d="M988.17,-169.63C993.01,-169.02 997.85,-168.46 1002.5,-168 1154.86,-152.99 1545.12,-180.01 1690.5,-132 1721.99,-121.6 1752.97,-98.23 1771.41,-82.54"/>
<polygon fill="midnightblue" stroke="midnightblue" points="1774.19,-84.76 1779.4,-75.54 1769.58,-79.49 1774.19,-84.76"/>
</g>
<!-- Node5 -->
<g id="node5" class="node">
<title>Node5</title>
<g id="a_node5"><a xlink:title=" ">
<polygon fill="white" stroke="#bfbfbf" points="232.5,-0.5 232.5,-19.5 288.5,-19.5 288.5,-0.5 232.5,-0.5"/>
<text text-anchor="middle" x="260.5" y="-7.5" font-family="FreeSans" font-size="10.00">stdarg.h</text>
</a>
</g>
</g>
<!-- Node2&#45;&gt;Node5 -->
<g id="edge4" class="edge">
<title>Node2&#45;&gt;Node5</title>
<path fill="none" stroke="midnightblue" d="M988.03,-170.05C994.24,-169.28 1000.51,-168.57 1006.5,-168 1078.61,-161.1 1607.71,-184.62 1657.5,-132 1663.61,-125.54 1663.55,-118.51 1657.5,-112 1562.42,-9.8 513.95,-9.68 298.91,-10.74"/>
<polygon fill="midnightblue" stroke="midnightblue" points="298.72,-7.24 288.74,-10.79 298.76,-14.24 298.72,-7.24"/>
</g>
<!-- Node6 -->
<g id="node6" class="node">
<title>Node6</title>
<g id="a_node6"><a xlink:title=" ">
<polygon fill="white" stroke="#bfbfbf" points="531.5,-112.5 531.5,-131.5 581.5,-131.5 581.5,-112.5 531.5,-112.5"/>
<text text-anchor="middle" x="556.5" y="-119.5" font-family="FreeSans" font-size="10.00">stdio.h</text>
</a>
</g>
</g>
<!-- Node2&#45;&gt;Node6 -->
<g id="edge5" class="edge">
<title>Node2&#45;&gt;Node6</title>
<path fill="none" stroke="midnightblue" d="M892.91,-172.87C827.2,-166.74 704.85,-153.74 591.55,-131.98"/>
<polygon fill="midnightblue" stroke="midnightblue" points="592.15,-128.53 581.67,-130.05 590.81,-135.4 592.15,-128.53"/>
</g>
<!-- Node7 -->
<g id="node7" class="node">
<title>Node7</title>
<g id="a_node7"><a xlink:title=" ">
<polygon fill="white" stroke="#bfbfbf" points="600,-112.5 600,-131.5 653,-131.5 653,-112.5 600,-112.5"/>
<text text-anchor="middle" x="626.5" y="-119.5" font-family="FreeSans" font-size="10.00">ctype.h</text>
</a>
</g>
</g>
<!-- Node2&#45;&gt;Node7 -->
<g id="edge6" class="edge">
<title>Node2&#45;&gt;Node7</title>
<path fill="none" stroke="midnightblue" d="M892.87,-170.67C839.2,-163.25 749.18,-149.88 663.12,-132.2"/>
<polygon fill="midnightblue" stroke="midnightblue" points="663.7,-128.74 653.19,-130.13 662.27,-135.6 663.7,-128.74"/>
</g>
<!-- Node8 -->
<g id="node8" class="node">
<title>Node8</title>
<g id="a_node8"><a xlink:title=" ">
<polygon fill="white" stroke="#bfbfbf" points="671,-112.5 671,-131.5 726,-131.5 726,-112.5 671,-112.5"/>
<text text-anchor="middle" x="698.5" y="-119.5" font-family="FreeSans" font-size="10.00">locale.h</text>
</a>
</g>
</g>
<!-- Node2&#45;&gt;Node8 -->
<g id="edge7" class="edge">
<title>Node2&#45;&gt;Node8</title>
<path fill="none" stroke="midnightblue" d="M899.77,-168.48C860.27,-160.13 798.39,-146.83 736.34,-132.39"/>
<polygon fill="midnightblue" stroke="midnightblue" points="736.92,-128.93 726.39,-130.06 735.33,-135.74 736.92,-128.93"/>
</g>
<!-- Node9 -->
<g id="node9" class="node">
<title>Node9</title>
<g id="a_node9"><a xlink:title=" ">
<polygon fill="white" stroke="#bfbfbf" points="424,-112.5 424,-131.5 475,-131.5 475,-112.5 424,-112.5"/>
<text text-anchor="middle" x="449.5" y="-119.5" font-family="FreeSans" font-size="10.00">errno.h</text>
</a>
</g>
</g>
<!-- Node2&#45;&gt;Node9 -->
<g id="edge8" class="edge">
<title>Node2&#45;&gt;Node9</title>
<path fill="none" stroke="midnightblue" d="M892.85,-174.16C810.31,-168.82 635.53,-155.62 489.5,-132 488.05,-131.77 486.58,-131.51 485.09,-131.24"/>
<polygon fill="midnightblue" stroke="midnightblue" points="485.72,-127.8 475.23,-129.27 484.35,-134.66 485.72,-127.8"/>
</g>
<!-- Node10 -->
<g id="node10" class="node">
<title>Node10</title>
<g id="a_node10"><a xlink:title=" ">
<polygon fill="white" stroke="#bfbfbf" points="744,-112.5 744,-131.5 791,-131.5 791,-112.5 744,-112.5"/>
<text text-anchor="middle" x="767.5" y="-119.5" font-family="FreeSans" font-size="10.00">fcntl.h</text>
</a>
</g>
</g>
<!-- Node2&#45;&gt;Node10 -->
<g id="edge9" class="edge">
<title>Node2&#45;&gt;Node10</title>
<path fill="none" stroke="midnightblue" d="M913.09,-168.44C882.61,-158.93 833.38,-143.56 800.73,-133.37"/>
<polygon fill="midnightblue" stroke="midnightblue" points="801.76,-130.03 791.17,-130.39 799.67,-136.71 801.76,-130.03"/>
</g>
<!-- Node11 -->
<g id="node11" class="node">
<title>Node11</title>
<g id="a_node11"><a xlink:title=" ">
<polygon fill="white" stroke="#bfbfbf" points="809,-112.5 809,-131.5 860,-131.5 860,-112.5 809,-112.5"/>
<text text-anchor="middle" x="834.5" y="-119.5" font-family="FreeSans" font-size="10.00">math.h</text>
</a>
</g>
</g>
<!-- Node2&#45;&gt;Node11 -->
<g id="edge10" class="edge">
<title>Node2&#45;&gt;Node11</title>
<path fill="none" stroke="midnightblue" d="M923.47,-168.32C906.47,-159.66 880.12,-146.24 860.51,-136.25"/>
<polygon fill="midnightblue" stroke="midnightblue" points="861.99,-133.08 851.49,-131.65 858.81,-139.31 861.99,-133.08"/>
</g>
<!-- Node12 -->
<g id="node12" class="node">
<title>Node12</title>
<g id="a_node12"><a xlink:title=" ">
<polygon fill="white" stroke="#bfbfbf" points="403.5,-56.5 403.5,-75.5 451.5,-75.5 451.5,-56.5 403.5,-56.5"/>
<text text-anchor="middle" x="427.5" y="-63.5" font-family="FreeSans" font-size="10.00">time.h</text>
</a>
</g>
</g>
<!-- Node2&#45;&gt;Node12 -->
<g id="edge11" class="edge">
<title>Node2&#45;&gt;Node12</title>
<path fill="none" stroke="midnightblue" d="M892.71,-174.79C797.91,-169.92 589.43,-156.71 522.5,-132 492.21,-120.82 462.32,-97.86 444.38,-82.45"/>
<polygon fill="midnightblue" stroke="midnightblue" points="446.4,-79.56 436.59,-75.57 441.77,-84.81 446.4,-79.56"/>
</g>
<!-- Node13 -->
<g id="node13" class="node">
<title>Node13</title>
<g id="a_node13"><a xlink:title=" ">
<polygon fill="white" stroke="#bfbfbf" points="878,-112.5 878,-131.5 931,-131.5 931,-112.5 878,-112.5"/>
<text text-anchor="middle" x="904.5" y="-119.5" font-family="FreeSans" font-size="10.00">limits.h</text>
</a>
</g>
</g>
<!-- Node2&#45;&gt;Node13 -->
<g id="edge12" class="edge">
<title>Node2&#45;&gt;Node13</title>
<path fill="none" stroke="midnightblue" d="M934.56,-168.08C929.52,-160.53 922.16,-149.49 915.99,-140.23"/>
<polygon fill="midnightblue" stroke="midnightblue" points="918.79,-138.13 910.33,-131.75 912.97,-142.01 918.79,-138.13"/>
</g>
<!-- Node14 -->
<g id="node14" class="node">
<title>Node14</title>
<g id="a_node14"><a xlink:title=" ">
<polygon fill="white" stroke="#bfbfbf" points="949,-112.5 949,-131.5 1004,-131.5 1004,-112.5 949,-112.5"/>
<text text-anchor="middle" x="976.5" y="-119.5" font-family="FreeSans" font-size="10.00">signal.h</text>
</a>
</g>
</g>
<!-- Node2&#45;&gt;Node14 -->
<g id="edge13" class="edge">
<title>Node2&#45;&gt;Node14</title>
<path fill="none" stroke="midnightblue" d="M946.44,-168.08C951.48,-160.53 958.84,-149.49 965.01,-140.23"/>
<polygon fill="midnightblue" stroke="midnightblue" points="968.03,-142.01 970.67,-131.75 962.21,-138.13 968.03,-142.01"/>
</g>
<!-- Node15 -->
<g id="node15" class="node">
<title>Node15</title>
<g id="a_node15"><a xlink:title=" ">
<polygon fill="white" stroke="#bfbfbf" points="349.5,-112.5 349.5,-131.5 405.5,-131.5 405.5,-112.5 349.5,-112.5"/>
<text text-anchor="middle" x="377.5" y="-119.5" font-family="FreeSans" font-size="10.00">assert.h</text>
</a>
</g>
</g>
<!-- Node2&#45;&gt;Node15 -->
<g id="edge14" class="edge">
<title>Node2&#45;&gt;Node15</title>
<path fill="none" stroke="midnightblue" d="M892.69,-175.36C801.61,-171.71 596.87,-160.96 415.67,-131.95"/>
<polygon fill="midnightblue" stroke="midnightblue" points="416.12,-128.48 405.69,-130.33 415,-135.39 416.12,-128.48"/>
</g>
<!-- Node16 -->
<g id="node16" class="node">
<title>Node16</title>
<g id="a_node16"><a xlink:href="method-attribute_8h.html" target="_top" xlink:title=" ">
<polygon fill="white" stroke="black" points="1022.5,-112.5 1022.5,-131.5 1170.5,-131.5 1170.5,-112.5 1022.5,-112.5"/>
<text text-anchor="middle" x="1096.5" y="-119.5" font-family="FreeSans" font-size="10.00">magick/method&#45;attribute.h</text>
</a>
</g>
</g>
<!-- Node2&#45;&gt;Node16 -->
<g id="edge15" class="edge">
<title>Node2&#45;&gt;Node16</title>
<path fill="none" stroke="midnightblue" d="M965.22,-168.44C991.35,-159.4 1032.76,-145.06 1062.08,-134.92"/>
<polygon fill="midnightblue" stroke="midnightblue" points="1063.59,-138.1 1071.9,-131.52 1061.3,-131.48 1063.59,-138.1"/>
</g>
<!-- Node17 -->
<g id="node17" class="node">
<title>Node17</title>
<g id="a_node17"><a xlink:title=" ">
<polygon fill="white" stroke="#bfbfbf" points="1188.5,-112.5 1188.5,-131.5 1260.5,-131.5 1260.5,-112.5 1188.5,-112.5"/>
<text text-anchor="middle" x="1224.5" y="-119.5" font-family="FreeSans" font-size="10.00">sys/types.h</text>
</a>
</g>
</g>
<!-- Node2&#45;&gt;Node17 -->
<g id="edge16" class="edge">
<title>Node2&#45;&gt;Node17</title>
<path fill="none" stroke="midnightblue" d="M986.79,-168.44C1032.8,-159.91 1105.65,-146.29 1177.96,-132.28"/>
<polygon fill="midnightblue" stroke="midnightblue" points="1179.01,-135.65 1188.16,-130.31 1177.67,-128.77 1179.01,-135.65"/>
</g>
<!-- Node18 -->
<g id="node18" class="node">
<title>Node18</title>
<g id="a_node18"><a xlink:title=" ">
<polygon fill="white" stroke="#bfbfbf" points="1278.5,-112.5 1278.5,-131.5 1342.5,-131.5 1342.5,-112.5 1278.5,-112.5"/>
<text text-anchor="middle" x="1310.5" y="-119.5" font-family="FreeSans" font-size="10.00">sys/stat.h</text>
</a>
</g>
</g>
<!-- Node2&#45;&gt;Node18 -->
<g id="edge17" class="edge">
<title>Node2&#45;&gt;Node18</title>
<path fill="none" stroke="midnightblue" d="M988.22,-170.02C993.04,-169.33 997.87,-168.65 1002.5,-168 1117.84,-151.85 1149.86,-152.79 1268.14,-132.12"/>
<polygon fill="midnightblue" stroke="midnightblue" points="1269.08,-135.51 1278.32,-130.33 1267.86,-128.61 1269.08,-135.51"/>
</g>
<!-- Node19 -->
<g id="node19" class="node">
<title>Node19</title>
<g id="a_node19"><a xlink:title=" ">
<polygon fill="white" stroke="#bfbfbf" points="1360.5,-112.5 1360.5,-131.5 1414.5,-131.5 1414.5,-112.5 1360.5,-112.5"/>
<text text-anchor="middle" x="1387.5" y="-119.5" font-family="FreeSans" font-size="10.00">dirent.h</text>
</a>
</g>
</g>
<!-- Node2&#45;&gt;Node19 -->
<g id="edge18" class="edge">
<title>Node2&#45;&gt;Node19</title>
<path fill="none" stroke="midnightblue" d="M988.2,-169.87C993.03,-169.21 997.86,-168.58 1002.5,-168 1153.92,-149.21 1196.12,-158.55 1350.15,-132"/>
<polygon fill="midnightblue" stroke="midnightblue" points="1351.21,-135.37 1360.46,-130.2 1350.01,-128.47 1351.21,-135.37"/>
</g>
<!-- Node20 -->
<g id="node20" class="node">
<title>Node20</title>
<g id="a_node20"><a xlink:title=" ">
<polygon fill="white" stroke="#bfbfbf" points="1432.5,-112.5 1432.5,-131.5 1498.5,-131.5 1498.5,-112.5 1432.5,-112.5"/>
<text text-anchor="middle" x="1465.5" y="-119.5" font-family="FreeSans" font-size="10.00">sys/wait.h</text>
</a>
</g>
</g>
<!-- Node2&#45;&gt;Node20 -->
<g id="edge19" class="edge">
<title>Node2&#45;&gt;Node20</title>
<path fill="none" stroke="midnightblue" d="M988.19,-169.79C993.02,-169.14 997.85,-168.54 1002.5,-168 1185.78,-146.88 1236.01,-159.27 1421.98,-132.05"/>
<polygon fill="midnightblue" stroke="midnightblue" points="1422.72,-135.48 1432.1,-130.55 1421.69,-128.56 1422.72,-135.48"/>
</g>
<!-- Node21 -->
<g id="node21" class="node">
<title>Node21</title>
<g id="a_node21"><a xlink:title=" ">
<polygon fill="white" stroke="#bfbfbf" points="1516.5,-112.5 1516.5,-131.5 1562.5,-131.5 1562.5,-112.5 1516.5,-112.5"/>
<text text-anchor="middle" x="1539.5" y="-119.5" font-family="FreeSans" font-size="10.00">pwd.h</text>
</a>
</g>
</g>
<!-- Node2&#45;&gt;Node21 -->
<g id="edge20" class="edge">
<title>Node2&#45;&gt;Node21</title>
<path fill="none" stroke="midnightblue" d="M988.18,-169.72C993.01,-169.09 997.85,-168.5 1002.5,-168 1222.93,-144.18 1284.05,-169.88 1506.19,-131.88"/>
<polygon fill="midnightblue" stroke="midnightblue" points="1506.95,-135.3 1516.21,-130.14 1505.76,-128.4 1506.95,-135.3"/>
</g>
<!-- Node22 -->
<g id="node22" class="node">
<title>Node22</title>
<g id="a_node22"><a xlink:href="magick-type_8h.html" target="_top" xlink:title=" ">
<polygon fill="white" stroke="black" points="1742.5,-112.5 1742.5,-131.5 1868.5,-131.5 1868.5,-112.5 1742.5,-112.5"/>
<text text-anchor="middle" x="1805.5" y="-119.5" font-family="FreeSans" font-size="10.00">magick/magick&#45;type.h</text>
</a>
</g>
</g>
<!-- Node2&#45;&gt;Node22 -->
<g id="edge21" class="edge">
<title>Node2&#45;&gt;Node22</title>
<path fill="none" stroke="midnightblue" d="M988.17,-169.62C993,-169.01 997.84,-168.45 1002.5,-168 1324.05,-136.76 1406.55,-158.77 1728.5,-132 1729.61,-131.91 1730.72,-131.81 1731.84,-131.71"/>
<polygon fill="midnightblue" stroke="midnightblue" points="1732.46,-135.17 1742.08,-130.75 1731.8,-128.2 1732.46,-135.17"/>
</g>
<!-- Node23 -->
<g id="node23" class="node">
<title>Node23</title>
<g id="a_node23"><a xlink:title=" ">
<polygon fill="white" stroke="#bfbfbf" points="1580.5,-112.5 1580.5,-131.5 1648.5,-131.5 1648.5,-112.5 1580.5,-112.5"/>
<text text-anchor="middle" x="1614.5" y="-119.5" font-family="FreeSans" font-size="10.00">sys/time.h</text>
</a>
</g>
</g>
<!-- Node2&#45;&gt;Node23 -->
<g id="edge23" class="edge">
<title>Node2&#45;&gt;Node23</title>
<path fill="none" stroke="midnightblue" d="M988.18,-169.68C993.01,-169.06 997.85,-168.48 1002.5,-168 1251.21,-142.12 1318.63,-165.41 1570.13,-131.99"/>
<polygon fill="midnightblue" stroke="midnightblue" points="1570.87,-135.42 1580.31,-130.62 1569.93,-128.48 1570.87,-135.42"/>
</g>
<!-- Node4 -->
<g id="node4" class="node">
<title>Node4</title>
<g id="a_node4"><a xlink:href="magick-baseconfig_8h.html" target="_top" xlink:title=" ">
<polygon fill="white" stroke="black" points="1710,-0.5 1710,-19.5 1867,-19.5 1867,-0.5 1710,-0.5"/>
<text text-anchor="middle" x="1788.5" y="-7.5" font-family="FreeSans" font-size="10.00">magick/magick&#45;baseconfig.h</text>
</a>
</g>
</g>
<!-- Node3&#45;&gt;Node4 -->
<g id="edge3" class="edge">
<title>Node3&#45;&gt;Node4</title>
<path fill="none" stroke="midnightblue" d="M1788.5,-56.08C1788.5,-49.01 1788.5,-38.86 1788.5,-29.99"/>
<polygon fill="midnightblue" stroke="midnightblue" points="1792,-29.75 1788.5,-19.75 1785,-29.75 1792,-29.75"/>
</g>
<!-- Node22&#45;&gt;Node3 -->
<g id="edge22" class="edge">
<title>Node22&#45;&gt;Node3</title>
<path fill="none" stroke="midnightblue" d="M1802.69,-112.08C1800.42,-104.85 1797.13,-94.41 1794.29,-85.4"/>
<polygon fill="midnightblue" stroke="midnightblue" points="1797.6,-84.24 1791.25,-75.75 1790.92,-86.34 1797.6,-84.24"/>
</g>
<!-- Node24&#45;&gt;Node25 -->
<g id="edge25" class="edge">
<title>Node24&#45;&gt;Node25</title>
<path fill="none" stroke="midnightblue" d="M1154.78,-169.01C1158.07,-168.64 1161.32,-168.3 1164.5,-168 1477,-138.53 1559.87,-161.61 1876,-132.05"/>
<polygon fill="midnightblue" stroke="midnightblue" points="1876.75,-135.5 1886.38,-131.07 1876.09,-128.53 1876.75,-135.5"/>
</g>
<!-- Node26&#45;&gt;Node5 -->
<g id="edge27" class="edge">
<title>Node26&#45;&gt;Node5</title>
<path fill="none" stroke="midnightblue" d="M189.16,-56.32C202.42,-47.9 222.77,-34.97 238.35,-25.07"/>
<polygon fill="midnightblue" stroke="midnightblue" points="240.31,-27.97 246.88,-19.65 236.56,-22.06 240.31,-27.97"/>
</g>
<!-- Node27 -->
<g id="node27" class="node">
<title>Node27</title>
<g id="a_node27"><a xlink:href="semaphore_8h.html" target="_top" xlink:title=" ">
<polygon fill="white" stroke="black" points="43,-0.5 43,-19.5 162,-19.5 162,-0.5 43,-0.5"/>
<text text-anchor="middle" x="102.5" y="-7.5" font-family="FreeSans" font-size="10.00">magick/semaphore.h</text>
</a>
</g>
</g>
<!-- Node26&#45;&gt;Node27 -->
<g id="edge28" class="edge">
<title>Node26&#45;&gt;Node27</title>
<path fill="none" stroke="midnightblue" d="M163.77,-56.32C152.66,-48.11 135.76,-35.6 122.52,-25.81"/>
<polygon fill="midnightblue" stroke="midnightblue" points="124.56,-22.97 114.44,-19.83 120.4,-28.59 124.56,-22.97"/>
</g>
<!-- Node29 -->
<g id="node29" class="node">
<title>Node29</title>
<g id="a_node29"><a xlink:href="log_8h.html" target="_top" xlink:title=" ">
<polygon fill="white" stroke="black" points="135.5,-112.5 135.5,-131.5 215.5,-131.5 215.5,-112.5 135.5,-112.5"/>
<text text-anchor="middle" x="175.5" y="-119.5" font-family="FreeSans" font-size="10.00">magick/log.h</text>
</a>
</g>
</g>
<!-- Node28&#45;&gt;Node29 -->
<g id="edge30" class="edge">
<title>Node28&#45;&gt;Node29</title>
<path fill="none" stroke="midnightblue" d="M177.17,-168.08C176.91,-161.01 176.53,-150.86 176.2,-141.99"/>
<polygon fill="midnightblue" stroke="midnightblue" points="179.69,-141.61 175.82,-131.75 172.7,-141.87 179.69,-141.61"/>
</g>
<!-- Node30 -->
<g id="node30" class="node">
<title>Node30</title>
<g id="a_node30"><a xlink:href="magick_8h.html" target="_top" xlink:title=" ">
<polygon fill="white" stroke="black" points="0,-56.5 0,-75.5 101,-75.5 101,-56.5 0,-56.5"/>
<text text-anchor="middle" x="50.5" y="-63.5" font-family="FreeSans" font-size="10.00">magick/magick.h</text>
</a>
</g>
</g>
<!-- Node28&#45;&gt;Node30 -->
<g id="edge33" class="edge">
<title>Node28&#45;&gt;Node30</title>
<path fill="none" stroke="midnightblue" d="M167.53,-168.37C146.11,-149.81 95.43,-105.91 68.32,-82.44"/>
<polygon fill="midnightblue" stroke="midnightblue" points="70.27,-79.49 60.42,-75.59 65.69,-84.78 70.27,-79.49"/>
</g>
<!-- Node28&#45;&gt;Node31 -->
<g id="edge36" class="edge">
<title>Node28&#45;&gt;Node31</title>
<path fill="none" stroke="midnightblue" d="M194.37,-168.32C211.21,-159.66 237.31,-146.24 256.74,-136.25"/>
<polygon fill="midnightblue" stroke="midnightblue" points="258.38,-139.34 265.67,-131.65 255.18,-133.12 258.38,-139.34"/>
</g>
<!-- Node29&#45;&gt;Node5 -->
<g id="edge31" class="edge">
<title>Node29&#45;&gt;Node5</title>
<path fill="none" stroke="midnightblue" d="M194.04,-112.48C208.65,-104.87 228.5,-92.39 240.5,-76 250.42,-62.45 255.49,-43.9 258.04,-30.09"/>
<polygon fill="midnightblue" stroke="midnightblue" points="261.56,-30.23 259.63,-19.81 254.64,-29.15 261.56,-30.23"/>
</g>
<!-- Node29&#45;&gt;Node26 -->
<g id="edge32" class="edge">
<title>Node29&#45;&gt;Node26</title>
<path fill="none" stroke="midnightblue" d="M175.5,-112.08C175.5,-105.01 175.5,-94.86 175.5,-85.99"/>
<polygon fill="midnightblue" stroke="midnightblue" points="179,-85.75 175.5,-75.75 172,-85.75 179,-85.75"/>
</g>
<!-- Node30&#45;&gt;Node5 -->
<g id="edge34" class="edge">
<title>Node30&#45;&gt;Node5</title>
<path fill="none" stroke="midnightblue" d="M83.78,-56.44C121.54,-46.73 183.03,-30.92 222.61,-20.74"/>
<polygon fill="midnightblue" stroke="midnightblue" points="223.61,-24.1 232.42,-18.22 221.86,-17.32 223.61,-24.1"/>
</g>
<!-- Node30&#45;&gt;Node27 -->
<g id="edge35" class="edge">
<title>Node30&#45;&gt;Node27</title>
<path fill="none" stroke="midnightblue" d="M59.09,-56.08C66.66,-48.22 77.88,-36.57 87.01,-27.08"/>
<polygon fill="midnightblue" stroke="midnightblue" points="89.66,-29.38 94.07,-19.75 84.62,-24.53 89.66,-29.38"/>
</g>
<!-- Node31&#45;&gt;Node5 -->
<g id="edge37" class="edge">
<title>Node31&#45;&gt;Node5</title>
<path fill="none" stroke="midnightblue" d="M281.91,-112.08C280.96,-99.48 278.76,-75.79 274.5,-56 272.56,-46.99 269.62,-37.2 266.93,-29.05"/>
<polygon fill="midnightblue" stroke="midnightblue" points="270.21,-27.82 263.65,-19.5 263.59,-30.1 270.21,-27.82"/>
</g>
<!-- Node31&#45;&gt;Node12 -->
<g id="edge38" class="edge">
<title>Node31&#45;&gt;Node12</title>
<path fill="none" stroke="midnightblue" d="M305.48,-112.44C329.66,-103.44 367.92,-89.19 395.15,-79.05"/>
<polygon fill="midnightblue" stroke="midnightblue" points="396.48,-82.29 404.63,-75.52 394.04,-75.73 396.48,-82.29"/>
</g>
<!-- Node31&#45;&gt;Node26 -->
<g id="edge39" class="edge">
<title>Node31&#45;&gt;Node26</title>
<path fill="none" stroke="midnightblue" d="M265.31,-112.32C248.15,-103.66 221.55,-90.24 201.75,-80.25"/>
<polygon fill="midnightblue" stroke="midnightblue" points="203.15,-77.04 192.65,-75.65 200,-83.28 203.15,-77.04"/>
</g>
<!-- Node32&#45;&gt;Node25 -->
<g id="edge42" class="edge">
<title>Node32&#45;&gt;Node25</title>
<path fill="none" stroke="midnightblue" d="M1272.03,-169.11C1275.23,-168.7 1278.41,-168.33 1281.5,-168 1542.04,-140.32 1611.69,-158.03 1876.08,-132.06"/>
<polygon fill="midnightblue" stroke="midnightblue" points="1876.77,-135.51 1886.38,-131.03 1876.08,-128.54 1876.77,-135.51"/>
</g>
<!-- Node33&#45;&gt;Node9 -->
<g id="edge44" class="edge">
<title>Node33&#45;&gt;Node9</title>
<path fill="none" stroke="midnightblue" d="M511.61,-168.32C500.35,-160.11 483.21,-147.6 469.79,-137.81"/>
<polygon fill="midnightblue" stroke="midnightblue" points="471.75,-134.9 461.61,-131.83 467.62,-140.56 471.75,-134.9"/>
</g>
<!-- Node33&#45;&gt;Node15 -->
<g id="edge45" class="edge">
<title>Node33&#45;&gt;Node15</title>
<path fill="none" stroke="midnightblue" d="M500.37,-168.44C476.02,-159.44 437.49,-145.19 410.08,-135.05"/>
<polygon fill="midnightblue" stroke="midnightblue" points="411.12,-131.7 400.53,-131.52 408.69,-138.27 411.12,-131.7"/>
</g>
<!-- Node37&#45;&gt;Node31 -->
<g id="edge51" class="edge">
<title>Node37&#45;&gt;Node31</title>
<path fill="none" stroke="midnightblue" d="M364.75,-168.32C349.18,-159.74 325.12,-146.49 307.04,-136.52"/>
<polygon fill="midnightblue" stroke="midnightblue" points="308.65,-133.42 298.21,-131.65 305.28,-139.55 308.65,-133.42"/>
</g>
</g>
</svg>
