<?xml version="1.0" encoding="UTF-8" standalone="no"?>
<!DOCTYPE svg PUBLIC "-//W3C//DTD SVG 1.1//EN"
 "http://www.w3.org/Graphics/SVG/1.1/DTD/svg11.dtd">
<!-- Generated by graphviz version 2.43.0 (0)
 -->
<!-- Title: vms.h Pages: 1 -->
<svg width="500pt" height="84pt"
 viewBox="0.00 0.00 500.00 84.00" xmlns="http://www.w3.org/2000/svg" xmlns:xlink="http://www.w3.org/1999/xlink">
<g id="graph0" class="graph" transform="scale(1 1) rotate(0) translate(4 80)">
<title>vms.h</title>
<polygon fill="white" stroke="transparent" points="-4,4 -4,-80 496,-80 496,4 -4,4"/>
<!-- Node1 -->
<g id="node1" class="node">
<title>Node1</title>
<g id="a_node1"><a xlink:title=" ">
<polygon fill="#bfbfbf" stroke="black" points="228,-56.5 228,-75.5 275,-75.5 275,-56.5 228,-56.5"/>
<text text-anchor="middle" x="251.5" y="-63.5" font-family="FreeSans" font-size="10.00">vms.h</text>
</a>
</g>
</g>
<!-- Node2 -->
<g id="node2" class="node">
<title>Node2</title>
<g id="a_node2"><a xlink:title=" ">
<polygon fill="white" stroke="#bfbfbf" points="0,-0.5 0,-19.5 51,-19.5 51,-0.5 0,-0.5"/>
<text text-anchor="middle" x="25.5" y="-7.5" font-family="FreeSans" font-size="10.00">errno.h</text>
</a>
</g>
</g>
<!-- Node1&#45;&gt;Node2 -->
<g id="edge1" class="edge">
<title>Node1&#45;&gt;Node2</title>
<path fill="none" stroke="midnightblue" d="M227.8,-59.67C193.27,-51.87 126.86,-36.66 61.2,-20.38"/>
<polygon fill="midnightblue" stroke="midnightblue" points="61.65,-16.88 51.1,-17.86 59.96,-23.67 61.65,-16.88"/>
</g>
<!-- Node3 -->
<g id="node3" class="node">
<title>Node3</title>
<g id="a_node3"><a xlink:title=" ">
<polygon fill="white" stroke="#bfbfbf" points="69,-0.5 69,-19.5 130,-19.5 130,-0.5 69,-0.5"/>
<text text-anchor="middle" x="99.5" y="-7.5" font-family="FreeSans" font-size="10.00">descrip.h</text>
</a>
</g>
</g>
<!-- Node1&#45;&gt;Node3 -->
<g id="edge2" class="edge">
<title>Node1&#45;&gt;Node3</title>
<path fill="none" stroke="midnightblue" d="M227.75,-56.56C202.36,-47.54 161.88,-33.16 133.19,-22.97"/>
<polygon fill="midnightblue" stroke="midnightblue" points="134.18,-19.61 123.58,-19.56 131.84,-26.2 134.18,-19.61"/>
</g>
<!-- Node4 -->
<g id="node4" class="node">
<title>Node4</title>
<g id="a_node4"><a xlink:title=" ">
<polygon fill="white" stroke="#bfbfbf" points="148,-0.5 148,-19.5 207,-19.5 207,-0.5 148,-0.5"/>
<text text-anchor="middle" x="177.5" y="-7.5" font-family="FreeSans" font-size="10.00">rmsdef.h</text>
</a>
</g>
</g>
<!-- Node1&#45;&gt;Node4 -->
<g id="edge3" class="edge">
<title>Node1&#45;&gt;Node4</title>
<path fill="none" stroke="midnightblue" d="M239.61,-56.32C228.35,-48.11 211.21,-35.6 197.79,-25.81"/>
<polygon fill="midnightblue" stroke="midnightblue" points="199.75,-22.9 189.61,-19.83 195.62,-28.56 199.75,-22.9"/>
</g>
<!-- Node5 -->
<g id="node5" class="node">
<title>Node5</title>
<g id="a_node5"><a xlink:title=" ">
<polygon fill="white" stroke="#bfbfbf" points="225,-0.5 225,-19.5 278,-19.5 278,-0.5 225,-0.5"/>
<text text-anchor="middle" x="251.5" y="-7.5" font-family="FreeSans" font-size="10.00">ctype.h</text>
</a>
</g>
</g>
<!-- Node1&#45;&gt;Node5 -->
<g id="edge4" class="edge">
<title>Node1&#45;&gt;Node5</title>
<path fill="none" stroke="midnightblue" d="M251.5,-56.08C251.5,-49.01 251.5,-38.86 251.5,-29.99"/>
<polygon fill="midnightblue" stroke="midnightblue" points="255,-29.75 251.5,-19.75 248,-29.75 255,-29.75"/>
</g>
<!-- Node6 -->
<g id="node6" class="node">
<title>Node6</title>
<g id="a_node6"><a xlink:title=" ">
<polygon fill="white" stroke="#bfbfbf" points="296.5,-0.5 296.5,-19.5 352.5,-19.5 352.5,-0.5 296.5,-0.5"/>
<text text-anchor="middle" x="324.5" y="-7.5" font-family="FreeSans" font-size="10.00">dvidef.h</text>
</a>
</g>
</g>
<!-- Node1&#45;&gt;Node6 -->
<g id="edge5" class="edge">
<title>Node1&#45;&gt;Node6</title>
<path fill="none" stroke="midnightblue" d="M263.23,-56.32C274.34,-48.11 291.24,-35.6 304.48,-25.81"/>
<polygon fill="midnightblue" stroke="midnightblue" points="306.6,-28.59 312.56,-19.83 302.44,-22.97 306.6,-28.59"/>
</g>
<!-- Node7 -->
<g id="node7" class="node">
<title>Node7</title>
<g id="a_node7"><a xlink:title=" ">
<polygon fill="white" stroke="#bfbfbf" points="370.5,-0.5 370.5,-19.5 422.5,-19.5 422.5,-0.5 370.5,-0.5"/>
<text text-anchor="middle" x="396.5" y="-7.5" font-family="FreeSans" font-size="10.00">dcdef.h</text>
</a>
</g>
</g>
<!-- Node1&#45;&gt;Node7 -->
<g id="edge6" class="edge">
<title>Node1&#45;&gt;Node7</title>
<path fill="none" stroke="midnightblue" d="M274.48,-56.44C298.66,-47.44 336.92,-33.19 364.15,-23.05"/>
<polygon fill="midnightblue" stroke="midnightblue" points="365.48,-26.29 373.63,-19.52 363.04,-19.73 365.48,-26.29"/>
</g>
<!-- Node8 -->
<g id="node8" class="node">
<title>Node8</title>
<g id="a_node8"><a xlink:title=" ">
<polygon fill="white" stroke="#bfbfbf" points="441,-0.5 441,-19.5 492,-19.5 492,-0.5 441,-0.5"/>
<text text-anchor="middle" x="466.5" y="-7.5" font-family="FreeSans" font-size="10.00">ssdef.h</text>
</a>
</g>
</g>
<!-- Node1&#45;&gt;Node8 -->
<g id="edge7" class="edge">
<title>Node1&#45;&gt;Node8</title>
<path fill="none" stroke="midnightblue" d="M275.1,-59.15C307.76,-51.05 368.84,-35.86 430.92,-20.13"/>
<polygon fill="midnightblue" stroke="midnightblue" points="432.06,-23.46 440.89,-17.61 430.34,-16.67 432.06,-23.46"/>
</g>
</g>
</svg>
