<?xml version="1.0" encoding="UTF-8" standalone="no"?>
<!DOCTYPE svg PUBLIC "-//W3C//DTD SVG 1.1//EN"
 "http://www.w3.org/Graphics/SVG/1.1/DTD/svg11.dtd">
<!-- Generated by graphviz version 2.43.0 (0)
 -->
<!-- Title: widget.c Pages: 1 -->
<svg width="3120pt" height="364pt"
 viewBox="0.00 0.00 3119.58 364.00" xmlns="http://www.w3.org/2000/svg" xmlns:xlink="http://www.w3.org/1999/xlink">
<g id="graph0" class="graph" transform="scale(1 1) rotate(0) translate(4 360)">
<title>widget.c</title>
<polygon fill="white" stroke="transparent" points="-4,4 -4,-360 3115.58,-360 3115.58,4 -4,4"/>
<!-- Node1 -->
<g id="node1" class="node">
<title>Node1</title>
<g id="a_node1"><a xlink:title=" ">
<polygon fill="#bfbfbf" stroke="black" points="1937,-336.5 1937,-355.5 1995,-355.5 1995,-336.5 1937,-336.5"/>
<text text-anchor="middle" x="1966" y="-343.5" font-family="FreeSans" font-size="10.00">widget.c</text>
</a>
</g>
</g>
<!-- Node2 -->
<g id="node2" class="node">
<title>Node2</title>
<g id="a_node2"><a xlink:href="studio_8h.html" target="_top" xlink:title=" ">
<polygon fill="white" stroke="black" points="694.5,-168.5 694.5,-187.5 789.5,-187.5 789.5,-168.5 694.5,-168.5"/>
<text text-anchor="middle" x="742" y="-175.5" font-family="FreeSans" font-size="10.00">magick/studio.h</text>
</a>
</g>
</g>
<!-- Node1&#45;&gt;Node2 -->
<g id="edge1" class="edge">
<title>Node1&#45;&gt;Node2</title>
<path fill="none" stroke="midnightblue" d="M1936.8,-342.9C1862.43,-337.39 1659.88,-321.49 1492,-300 1231.78,-266.69 923.15,-212.1 798.44,-189.4"/>
<polygon fill="midnightblue" stroke="midnightblue" points="798.83,-185.91 788.36,-187.56 797.57,-192.8 798.83,-185.91"/>
</g>
<!-- Node24 -->
<g id="node23" class="node">
<title>Node24</title>
<g id="a_node23"><a xlink:href="color_8h.html" target="_top" xlink:title=" ">
<polygon fill="white" stroke="black" points="2033,-112.5 2033,-131.5 2121,-131.5 2121,-112.5 2033,-112.5"/>
<text text-anchor="middle" x="2077" y="-119.5" font-family="FreeSans" font-size="10.00">magick/color.h</text>
</a>
</g>
</g>
<!-- Node1&#45;&gt;Node24 -->
<g id="edge23" class="edge">
<title>Node1&#45;&gt;Node24</title>
<path fill="none" stroke="midnightblue" d="M1970.35,-336.3C1986.79,-303.42 2045.3,-186.39 2067.95,-141.09"/>
<polygon fill="midnightblue" stroke="midnightblue" points="2071.22,-142.39 2072.56,-131.88 2064.96,-139.26 2071.22,-142.39"/>
</g>
<!-- Node28 -->
<g id="node26" class="node">
<title>Node28</title>
<g id="a_node26"><a xlink:href="exception_8h.html" target="_top" xlink:title=" ">
<polygon fill="white" stroke="black" points="1755.5,-56.5 1755.5,-75.5 1868.5,-75.5 1868.5,-56.5 1755.5,-56.5"/>
<text text-anchor="middle" x="1812" y="-63.5" font-family="FreeSans" font-size="10.00">magick/exception.h</text>
</a>
</g>
</g>
<!-- Node1&#45;&gt;Node28 -->
<g id="edge66" class="edge">
<title>Node1&#45;&gt;Node28</title>
<path fill="none" stroke="midnightblue" d="M1953.22,-336.24C1923.47,-314.97 1850.01,-257.26 1822,-188 1809.33,-156.67 1823.41,-145.62 1820,-112 1819.11,-103.21 1817.48,-93.55 1815.92,-85.44"/>
<polygon fill="midnightblue" stroke="midnightblue" points="1819.34,-84.68 1813.92,-75.57 1812.48,-86.07 1819.34,-84.68"/>
</g>
<!-- Node30 -->
<g id="node28" class="node">
<title>Node30</title>
<g id="a_node28"><a xlink:href="color-private_8h.html" target="_top" xlink:title=" ">
<polygon fill="white" stroke="black" points="2033.5,-280.5 2033.5,-299.5 2160.5,-299.5 2160.5,-280.5 2033.5,-280.5"/>
<text text-anchor="middle" x="2097" y="-287.5" font-family="FreeSans" font-size="10.00">magick/color&#45;private.h</text>
</a>
</g>
</g>
<!-- Node1&#45;&gt;Node30 -->
<g id="edge29" class="edge">
<title>Node1&#45;&gt;Node30</title>
<path fill="none" stroke="midnightblue" d="M1986.76,-336.44C2008.32,-327.56 2042.26,-313.56 2066.79,-303.45"/>
<polygon fill="midnightblue" stroke="midnightblue" points="2068.43,-306.56 2076.34,-299.52 2065.76,-300.09 2068.43,-306.56"/>
</g>
<!-- Node31 -->
<g id="node29" class="node">
<title>Node31</title>
<g id="a_node29"><a xlink:href="image_8h.html" target="_top" xlink:title=" ">
<polygon fill="white" stroke="red" points="2413.5,-168.5 2413.5,-187.5 2508.5,-187.5 2508.5,-168.5 2413.5,-168.5"/>
<text text-anchor="middle" x="2461" y="-175.5" font-family="FreeSans" font-size="10.00">magick/image.h</text>
</a>
</g>
</g>
<!-- Node1&#45;&gt;Node31 -->
<g id="edge68" class="edge">
<title>Node1&#45;&gt;Node31</title>
<path fill="none" stroke="midnightblue" d="M1995.03,-341C2035.2,-334.93 2109.6,-321.74 2170,-300 2188.33,-293.4 2190.81,-286.96 2209,-280 2267.8,-257.5 2287.67,-267.68 2346,-244 2380.55,-229.97 2417.6,-207.54 2440.04,-193.04"/>
<polygon fill="midnightblue" stroke="midnightblue" points="2441.99,-195.95 2448.44,-187.54 2438.16,-190.09 2441.99,-195.95"/>
</g>
<!-- Node59 -->
<g id="node41" class="node">
<title>Node59</title>
<g id="a_node41"><a xlink:href="exception-private_8h.html" target="_top" xlink:title=" ">
<polygon fill="white" stroke="black" points="1623.5,-168.5 1623.5,-187.5 1774.5,-187.5 1774.5,-168.5 1623.5,-168.5"/>
<text text-anchor="middle" x="1699" y="-175.5" font-family="FreeSans" font-size="10.00">magick/exception&#45;private.h</text>
</a>
</g>
</g>
<!-- Node1&#45;&gt;Node59 -->
<g id="edge67" class="edge">
<title>Node1&#45;&gt;Node59</title>
<path fill="none" stroke="midnightblue" d="M1936.94,-343.53C1899.76,-340.4 1834.71,-330.61 1789,-300 1749.44,-273.51 1720.67,-223.59 1707.32,-196.9"/>
<polygon fill="midnightblue" stroke="midnightblue" points="1710.33,-195.09 1702.83,-187.61 1704.03,-198.14 1710.33,-195.09"/>
</g>
<!-- Node61 -->
<g id="node43" class="node">
<title>Node61</title>
<g id="a_node43"><a xlink:href="magick_8h.html" target="_top" xlink:title=" ">
<polygon fill="white" stroke="black" points="1571.5,-56.5 1571.5,-75.5 1672.5,-75.5 1672.5,-56.5 1571.5,-56.5"/>
<text text-anchor="middle" x="1622" y="-63.5" font-family="FreeSans" font-size="10.00">magick/magick.h</text>
</a>
</g>
</g>
<!-- Node1&#45;&gt;Node61 -->
<g id="edge69" class="edge">
<title>Node1&#45;&gt;Node61</title>
<path fill="none" stroke="midnightblue" d="M1936.89,-342.68C1849.43,-334.92 1595,-306.21 1595,-235 1595,-235 1595,-235 1595,-177 1595,-143.86 1606.7,-106.68 1614.7,-85.14"/>
<polygon fill="midnightblue" stroke="midnightblue" points="1618.02,-86.25 1618.36,-75.66 1611.49,-83.73 1618.02,-86.25"/>
</g>
<!-- Node45 -->
<g id="node44" class="node">
<title>Node45</title>
<g id="a_node44"><a xlink:href="string___8h.html" target="_top" xlink:title=" ">
<polygon fill="white" stroke="black" points="1469,-112.5 1469,-131.5 1567,-131.5 1567,-112.5 1469,-112.5"/>
<text text-anchor="middle" x="1518" y="-119.5" font-family="FreeSans" font-size="10.00">magick/string_.h</text>
</a>
</g>
</g>
<!-- Node1&#45;&gt;Node45 -->
<g id="edge73" class="edge">
<title>Node1&#45;&gt;Node45</title>
<path fill="none" stroke="midnightblue" d="M1936.82,-345.44C1856.75,-346.07 1635.88,-343.71 1581,-300 1531.5,-260.58 1520.85,-179.25 1518.59,-142.18"/>
<polygon fill="midnightblue" stroke="midnightblue" points="1522.06,-141.63 1518.11,-131.8 1515.07,-141.95 1522.06,-141.63"/>
</g>
<!-- Node62 -->
<g id="node45" class="node">
<title>Node62</title>
<g id="a_node45"><a xlink:href="memory___8h.html" target="_top" xlink:title=" ">
<polygon fill="white" stroke="black" points="1369.5,-168.5 1369.5,-187.5 1480.5,-187.5 1480.5,-168.5 1369.5,-168.5"/>
<text text-anchor="middle" x="1425" y="-175.5" font-family="FreeSans" font-size="10.00">magick/memory_.h</text>
</a>
</g>
</g>
<!-- Node1&#45;&gt;Node62 -->
<g id="edge70" class="edge">
<title>Node1&#45;&gt;Node62</title>
<path fill="none" stroke="midnightblue" d="M1936.71,-344.92C1849.77,-344.22 1594.83,-338.83 1523,-300 1479.35,-276.4 1447.91,-224.44 1433.62,-196.92"/>
<polygon fill="midnightblue" stroke="midnightblue" points="1436.6,-195.05 1428.99,-187.68 1430.34,-198.19 1436.6,-195.05"/>
</g>
<!-- Node63 -->
<g id="node46" class="node">
<title>Node63</title>
<g id="a_node46"><a xlink:href="timer-private_8h.html" target="_top" xlink:title=" ">
<polygon fill="white" stroke="black" points="2217.5,-280.5 2217.5,-299.5 2346.5,-299.5 2346.5,-280.5 2217.5,-280.5"/>
<text text-anchor="middle" x="2282" y="-287.5" font-family="FreeSans" font-size="10.00">magick/timer&#45;private.h</text>
</a>
</g>
</g>
<!-- Node1&#45;&gt;Node63 -->
<g id="edge74" class="edge">
<title>Node1&#45;&gt;Node63</title>
<path fill="none" stroke="midnightblue" d="M1995.16,-340.02C2046.54,-331.24 2154.14,-312.85 2221.96,-301.26"/>
<polygon fill="midnightblue" stroke="midnightblue" points="2222.81,-304.66 2232.08,-299.53 2221.63,-297.76 2222.81,-304.66"/>
</g>
<!-- Node64 -->
<g id="node47" class="node">
<title>Node64</title>
<g id="a_node47"><a xlink:href="token_8h.html" target="_top" xlink:title=" ">
<polygon fill="white" stroke="black" points="2365,-280.5 2365,-299.5 2457,-299.5 2457,-280.5 2365,-280.5"/>
<text text-anchor="middle" x="2411" y="-287.5" font-family="FreeSans" font-size="10.00">magick/token.h</text>
</a>
</g>
</g>
<!-- Node1&#45;&gt;Node64 -->
<g id="edge75" class="edge">
<title>Node1&#45;&gt;Node64</title>
<path fill="none" stroke="midnightblue" d="M1995.41,-342.09C2058.99,-335.69 2214.16,-319.51 2354.72,-300.12"/>
<polygon fill="midnightblue" stroke="midnightblue" points="2355.39,-303.56 2364.81,-298.72 2354.42,-296.63 2355.39,-303.56"/>
</g>
<!-- Node65 -->
<g id="node48" class="node">
<title>Node65</title>
<g id="a_node48"><a xlink:href="utility_8h.html" target="_top" xlink:title=" ">
<polygon fill="white" stroke="black" points="2475,-280.5 2475,-299.5 2567,-299.5 2567,-280.5 2475,-280.5"/>
<text text-anchor="middle" x="2521" y="-287.5" font-family="FreeSans" font-size="10.00">magick/utility.h</text>
</a>
</g>
</g>
<!-- Node1&#45;&gt;Node65 -->
<g id="edge76" class="edge">
<title>Node1&#45;&gt;Node65</title>
<path fill="none" stroke="midnightblue" d="M1995.11,-343.12C2070.75,-338.08 2279.92,-323.14 2464.65,-300.09"/>
<polygon fill="midnightblue" stroke="midnightblue" points="2465.34,-303.53 2474.82,-298.81 2464.46,-296.58 2465.34,-303.53"/>
</g>
<!-- Node66 -->
<g id="node49" class="node">
<title>Node66</title>
<g id="a_node49"><a xlink:href="xwindow-private_8h.html" target="_top" xlink:title=" ">
<polygon fill="white" stroke="red" points="1831,-168.5 1831,-187.5 1977,-187.5 1977,-168.5 1831,-168.5"/>
<text text-anchor="middle" x="1904" y="-175.5" font-family="FreeSans" font-size="10.00">magick/xwindow&#45;private.h</text>
</a>
</g>
</g>
<!-- Node1&#45;&gt;Node66 -->
<g id="edge77" class="edge">
<title>Node1&#45;&gt;Node66</title>
<path fill="none" stroke="midnightblue" d="M1962.67,-336.08C1952.87,-309.83 1924,-232.55 1910.77,-197.12"/>
<polygon fill="midnightblue" stroke="midnightblue" points="1913.98,-195.71 1907.2,-187.57 1907.42,-198.16 1913.98,-195.71"/>
</g>
<!-- Node72 -->
<g id="node50" class="node">
<title>Node72</title>
<g id="a_node50"><a xlink:href="widget_8h.html" target="_top" xlink:title=" ">
<polygon fill="white" stroke="black" points="2585,-280.5 2585,-299.5 2683,-299.5 2683,-280.5 2585,-280.5"/>
<text text-anchor="middle" x="2634" y="-287.5" font-family="FreeSans" font-size="10.00">magick/widget.h</text>
</a>
</g>
</g>
<!-- Node1&#45;&gt;Node72 -->
<g id="edge80" class="edge">
<title>Node1&#45;&gt;Node72</title>
<path fill="none" stroke="midnightblue" d="M1995.28,-343.68C2082.05,-339.58 2345.51,-325.85 2574.79,-300.05"/>
<polygon fill="midnightblue" stroke="midnightblue" points="2575.45,-303.49 2584.99,-298.89 2574.66,-296.54 2575.45,-303.49"/>
</g>
<!-- Node3 -->
<g id="node3" class="node">
<title>Node3</title>
<g id="a_node3"><a xlink:href="magick-config_8h.html" target="_top" xlink:title=" ">
<polygon fill="white" stroke="red" points="276,-56.5 276,-75.5 410,-75.5 410,-56.5 276,-56.5"/>
<text text-anchor="middle" x="343" y="-63.5" font-family="FreeSans" font-size="10.00">magick/magick&#45;config.h</text>
</a>
</g>
</g>
<!-- Node2&#45;&gt;Node3 -->
<g id="edge2" class="edge">
<title>Node2&#45;&gt;Node3</title>
<path fill="none" stroke="midnightblue" d="M694.29,-176.91C632.17,-175.28 521.23,-167.11 434,-132 405.21,-120.41 376.9,-97.95 359.69,-82.72"/>
<polygon fill="midnightblue" stroke="midnightblue" points="361.93,-80.03 352.18,-75.9 357.23,-85.21 361.93,-80.03"/>
</g>
<!-- Node5 -->
<g id="node4" class="node">
<title>Node5</title>
<g id="a_node4"><a xlink:title=" ">
<polygon fill="white" stroke="#bfbfbf" points="1594,-0.5 1594,-19.5 1650,-19.5 1650,-0.5 1594,-0.5"/>
<text text-anchor="middle" x="1622" y="-7.5" font-family="FreeSans" font-size="10.00">stdarg.h</text>
</a>
</g>
</g>
<!-- Node2&#45;&gt;Node5 -->
<g id="edge3" class="edge">
<title>Node2&#45;&gt;Node5</title>
<path fill="none" stroke="midnightblue" d="M741.74,-168.24C741.84,-154.03 744.3,-126.11 761,-112 824.77,-58.11 1424.9,-21.76 1583.64,-13.03"/>
<polygon fill="midnightblue" stroke="midnightblue" points="1584.07,-16.51 1593.87,-12.47 1583.69,-9.52 1584.07,-16.51"/>
</g>
<!-- Node6 -->
<g id="node5" class="node">
<title>Node6</title>
<g id="a_node5"><a xlink:title=" ">
<polygon fill="white" stroke="#bfbfbf" points="454,-112.5 454,-131.5 504,-131.5 504,-112.5 454,-112.5"/>
<text text-anchor="middle" x="479" y="-119.5" font-family="FreeSans" font-size="10.00">stdio.h</text>
</a>
</g>
</g>
<!-- Node2&#45;&gt;Node6 -->
<g id="edge4" class="edge">
<title>Node2&#45;&gt;Node6</title>
<path fill="none" stroke="midnightblue" d="M694.44,-168.58C650.17,-160.54 582.13,-147.65 514.22,-132.17"/>
<polygon fill="midnightblue" stroke="midnightblue" points="514.74,-128.7 504.21,-129.87 513.17,-135.52 514.74,-128.7"/>
</g>
<!-- Node7 -->
<g id="node6" class="node">
<title>Node7</title>
<g id="a_node6"><a xlink:title=" ">
<polygon fill="white" stroke="#bfbfbf" points="522.5,-112.5 522.5,-131.5 575.5,-131.5 575.5,-112.5 522.5,-112.5"/>
<text text-anchor="middle" x="549" y="-119.5" font-family="FreeSans" font-size="10.00">ctype.h</text>
</a>
</g>
</g>
<!-- Node2&#45;&gt;Node7 -->
<g id="edge5" class="edge">
<title>Node2&#45;&gt;Node7</title>
<path fill="none" stroke="midnightblue" d="M711.42,-168.44C677.22,-158.87 621.86,-143.39 585.45,-133.2"/>
<polygon fill="midnightblue" stroke="midnightblue" points="586.28,-129.8 575.71,-130.47 584.4,-136.54 586.28,-129.8"/>
</g>
<!-- Node8 -->
<g id="node7" class="node">
<title>Node8</title>
<g id="a_node7"><a xlink:title=" ">
<polygon fill="white" stroke="#bfbfbf" points="593.5,-112.5 593.5,-131.5 648.5,-131.5 648.5,-112.5 593.5,-112.5"/>
<text text-anchor="middle" x="621" y="-119.5" font-family="FreeSans" font-size="10.00">locale.h</text>
</a>
</g>
</g>
<!-- Node2&#45;&gt;Node8 -->
<g id="edge6" class="edge">
<title>Node2&#45;&gt;Node8</title>
<path fill="none" stroke="midnightblue" d="M722.83,-168.44C703.09,-159.64 672.11,-145.81 649.51,-135.72"/>
<polygon fill="midnightblue" stroke="midnightblue" points="650.64,-132.4 640.08,-131.52 647.79,-138.79 650.64,-132.4"/>
</g>
<!-- Node9 -->
<g id="node8" class="node">
<title>Node9</title>
<g id="a_node8"><a xlink:title=" ">
<polygon fill="white" stroke="#bfbfbf" points="1399.5,-112.5 1399.5,-131.5 1450.5,-131.5 1450.5,-112.5 1399.5,-112.5"/>
<text text-anchor="middle" x="1425" y="-119.5" font-family="FreeSans" font-size="10.00">errno.h</text>
</a>
</g>
</g>
<!-- Node2&#45;&gt;Node9 -->
<g id="edge7" class="edge">
<title>Node2&#45;&gt;Node9</title>
<path fill="none" stroke="midnightblue" d="M789.9,-176.65C896.18,-175.24 1159.76,-168.21 1389.29,-131.77"/>
<polygon fill="midnightblue" stroke="midnightblue" points="1390.18,-135.18 1399.5,-130.13 1389.07,-128.26 1390.18,-135.18"/>
</g>
<!-- Node10 -->
<g id="node9" class="node">
<title>Node10</title>
<g id="a_node9"><a xlink:title=" ">
<polygon fill="white" stroke="#bfbfbf" points="666.5,-112.5 666.5,-131.5 713.5,-131.5 713.5,-112.5 666.5,-112.5"/>
<text text-anchor="middle" x="690" y="-119.5" font-family="FreeSans" font-size="10.00">fcntl.h</text>
</a>
</g>
</g>
<!-- Node2&#45;&gt;Node10 -->
<g id="edge8" class="edge">
<title>Node2&#45;&gt;Node10</title>
<path fill="none" stroke="midnightblue" d="M733.41,-168.08C725.84,-160.22 714.62,-148.57 705.49,-139.08"/>
<polygon fill="midnightblue" stroke="midnightblue" points="707.88,-136.53 698.43,-131.75 702.84,-141.38 707.88,-136.53"/>
</g>
<!-- Node11 -->
<g id="node10" class="node">
<title>Node11</title>
<g id="a_node10"><a xlink:title=" ">
<polygon fill="white" stroke="#bfbfbf" points="1759.5,-112.5 1759.5,-131.5 1810.5,-131.5 1810.5,-112.5 1759.5,-112.5"/>
<text text-anchor="middle" x="1785" y="-119.5" font-family="FreeSans" font-size="10.00">math.h</text>
</a>
</g>
</g>
<!-- Node2&#45;&gt;Node11 -->
<g id="edge9" class="edge">
<title>Node2&#45;&gt;Node11</title>
<path fill="none" stroke="midnightblue" d="M789.55,-176.18C960.1,-173.05 1541.41,-160.61 1748.94,-131.76"/>
<polygon fill="midnightblue" stroke="midnightblue" points="1749.73,-135.19 1759.13,-130.29 1748.73,-128.26 1749.73,-135.19"/>
</g>
<!-- Node12 -->
<g id="node11" class="node">
<title>Node12</title>
<g id="a_node11"><a xlink:title=" ">
<polygon fill="white" stroke="#bfbfbf" points="570,-56.5 570,-75.5 618,-75.5 618,-56.5 570,-56.5"/>
<text text-anchor="middle" x="594" y="-63.5" font-family="FreeSans" font-size="10.00">time.h</text>
</a>
</g>
</g>
<!-- Node2&#45;&gt;Node12 -->
<g id="edge10" class="edge">
<title>Node2&#45;&gt;Node12</title>
<path fill="none" stroke="midnightblue" d="M694.31,-176.99C618.69,-175.85 476.58,-168.72 445,-132 410.67,-92.08 505.51,-75.82 559.48,-69.94"/>
<polygon fill="midnightblue" stroke="midnightblue" points="560.09,-73.4 569.68,-68.9 559.38,-66.43 560.09,-73.4"/>
</g>
<!-- Node13 -->
<g id="node12" class="node">
<title>Node13</title>
<g id="a_node12"><a xlink:title=" ">
<polygon fill="white" stroke="#bfbfbf" points="770.5,-112.5 770.5,-131.5 823.5,-131.5 823.5,-112.5 770.5,-112.5"/>
<text text-anchor="middle" x="797" y="-119.5" font-family="FreeSans" font-size="10.00">limits.h</text>
</a>
</g>
</g>
<!-- Node2&#45;&gt;Node13 -->
<g id="edge11" class="edge">
<title>Node2&#45;&gt;Node13</title>
<path fill="none" stroke="midnightblue" d="M751.08,-168.08C759.17,-160.14 771.2,-148.34 780.91,-138.8"/>
<polygon fill="midnightblue" stroke="midnightblue" points="783.4,-141.25 788.09,-131.75 778.5,-136.26 783.4,-141.25"/>
</g>
<!-- Node14 -->
<g id="node13" class="node">
<title>Node14</title>
<g id="a_node13"><a xlink:title=" ">
<polygon fill="white" stroke="#bfbfbf" points="841.5,-112.5 841.5,-131.5 896.5,-131.5 896.5,-112.5 841.5,-112.5"/>
<text text-anchor="middle" x="869" y="-119.5" font-family="FreeSans" font-size="10.00">signal.h</text>
</a>
</g>
</g>
<!-- Node2&#45;&gt;Node14 -->
<g id="edge12" class="edge">
<title>Node2&#45;&gt;Node14</title>
<path fill="none" stroke="midnightblue" d="M762.12,-168.44C783.02,-159.56 815.93,-145.56 839.72,-135.45"/>
<polygon fill="midnightblue" stroke="midnightblue" points="841.14,-138.65 848.97,-131.52 838.4,-132.21 841.14,-138.65"/>
</g>
<!-- Node15 -->
<g id="node14" class="node">
<title>Node15</title>
<g id="a_node14"><a xlink:title=" ">
<polygon fill="white" stroke="#bfbfbf" points="1325,-112.5 1325,-131.5 1381,-131.5 1381,-112.5 1325,-112.5"/>
<text text-anchor="middle" x="1353" y="-119.5" font-family="FreeSans" font-size="10.00">assert.h</text>
</a>
</g>
</g>
<!-- Node2&#45;&gt;Node15 -->
<g id="edge13" class="edge">
<title>Node2&#45;&gt;Node15</title>
<path fill="none" stroke="midnightblue" d="M789.55,-175.85C886.61,-172.94 1114.55,-163.28 1314.7,-131.95"/>
<polygon fill="midnightblue" stroke="midnightblue" points="1315.49,-135.37 1324.81,-130.35 1314.39,-128.46 1315.49,-135.37"/>
</g>
<!-- Node16 -->
<g id="node15" class="node">
<title>Node16</title>
<g id="a_node15"><a xlink:href="method-attribute_8h.html" target="_top" xlink:title=" ">
<polygon fill="white" stroke="black" points="915,-112.5 915,-131.5 1063,-131.5 1063,-112.5 915,-112.5"/>
<text text-anchor="middle" x="989" y="-119.5" font-family="FreeSans" font-size="10.00">magick/method&#45;attribute.h</text>
</a>
</g>
</g>
<!-- Node2&#45;&gt;Node16 -->
<g id="edge14" class="edge">
<title>Node2&#45;&gt;Node16</title>
<path fill="none" stroke="midnightblue" d="M781.14,-168.44C824.23,-159.02 893.56,-143.87 940.17,-133.68"/>
<polygon fill="midnightblue" stroke="midnightblue" points="941.02,-137.07 950.05,-131.52 939.53,-130.23 941.02,-137.07"/>
</g>
<!-- Node17 -->
<g id="node16" class="node">
<title>Node17</title>
<g id="a_node16"><a xlink:title=" ">
<polygon fill="white" stroke="#bfbfbf" points="1081,-112.5 1081,-131.5 1153,-131.5 1153,-112.5 1081,-112.5"/>
<text text-anchor="middle" x="1117" y="-119.5" font-family="FreeSans" font-size="10.00">sys/types.h</text>
</a>
</g>
</g>
<!-- Node2&#45;&gt;Node17 -->
<g id="edge15" class="edge">
<title>Node2&#45;&gt;Node17</title>
<path fill="none" stroke="midnightblue" d="M789.68,-171.44C852.02,-163.96 964.83,-149.71 1070.79,-132.12"/>
<polygon fill="midnightblue" stroke="midnightblue" points="1071.4,-135.57 1080.69,-130.46 1070.25,-128.66 1071.4,-135.57"/>
</g>
<!-- Node18 -->
<g id="node17" class="node">
<title>Node18</title>
<g id="a_node17"><a xlink:title=" ">
<polygon fill="white" stroke="#bfbfbf" points="1171,-112.5 1171,-131.5 1235,-131.5 1235,-112.5 1171,-112.5"/>
<text text-anchor="middle" x="1203" y="-119.5" font-family="FreeSans" font-size="10.00">sys/stat.h</text>
</a>
</g>
</g>
<!-- Node2&#45;&gt;Node18 -->
<g id="edge16" class="edge">
<title>Node2&#45;&gt;Node18</title>
<path fill="none" stroke="midnightblue" d="M789.78,-173.59C866.12,-167.77 1020.46,-154.48 1160.76,-132.04"/>
<polygon fill="midnightblue" stroke="midnightblue" points="1161.52,-135.46 1170.83,-130.41 1160.4,-128.55 1161.52,-135.46"/>
</g>
<!-- Node19 -->
<g id="node18" class="node">
<title>Node19</title>
<g id="a_node18"><a xlink:title=" ">
<polygon fill="white" stroke="#bfbfbf" points="1253,-112.5 1253,-131.5 1307,-131.5 1307,-112.5 1253,-112.5"/>
<text text-anchor="middle" x="1280" y="-119.5" font-family="FreeSans" font-size="10.00">dirent.h</text>
</a>
</g>
</g>
<!-- Node2&#45;&gt;Node19 -->
<g id="edge17" class="edge">
<title>Node2&#45;&gt;Node19</title>
<path fill="none" stroke="midnightblue" d="M789.73,-175.2C877.61,-171.34 1071.01,-160.35 1242.98,-131.91"/>
<polygon fill="midnightblue" stroke="midnightblue" points="1243.69,-135.34 1252.97,-130.24 1242.53,-128.44 1243.69,-135.34"/>
</g>
<!-- Node20 -->
<g id="node19" class="node">
<title>Node20</title>
<g id="a_node19"><a xlink:title=" ">
<polygon fill="white" stroke="#bfbfbf" points="0,-112.5 0,-131.5 66,-131.5 66,-112.5 0,-112.5"/>
<text text-anchor="middle" x="33" y="-119.5" font-family="FreeSans" font-size="10.00">sys/wait.h</text>
</a>
</g>
</g>
<!-- Node2&#45;&gt;Node20 -->
<g id="edge18" class="edge">
<title>Node2&#45;&gt;Node20</title>
<path fill="none" stroke="midnightblue" d="M694.45,-176.13C586.31,-173.66 313.61,-164.6 76.58,-132.03"/>
<polygon fill="midnightblue" stroke="midnightblue" points="76.78,-128.52 66.39,-130.61 75.82,-135.45 76.78,-128.52"/>
</g>
<!-- Node21 -->
<g id="node20" class="node">
<title>Node21</title>
<g id="a_node20"><a xlink:title=" ">
<polygon fill="white" stroke="#bfbfbf" points="84,-112.5 84,-131.5 130,-131.5 130,-112.5 84,-112.5"/>
<text text-anchor="middle" x="107" y="-119.5" font-family="FreeSans" font-size="10.00">pwd.h</text>
</a>
</g>
</g>
<!-- Node2&#45;&gt;Node21 -->
<g id="edge19" class="edge">
<title>Node2&#45;&gt;Node21</title>
<path fill="none" stroke="midnightblue" d="M694.3,-176.66C593.45,-175.26 351.18,-168.23 140.31,-131.88"/>
<polygon fill="midnightblue" stroke="midnightblue" points="140.75,-128.41 130.29,-130.13 139.54,-135.3 140.75,-128.41"/>
</g>
<!-- Node22 -->
<g id="node21" class="node">
<title>Node22</title>
<g id="a_node21"><a xlink:href="magick-type_8h.html" target="_top" xlink:title=" ">
<polygon fill="white" stroke="black" points="234,-112.5 234,-131.5 360,-131.5 360,-112.5 234,-112.5"/>
<text text-anchor="middle" x="297" y="-119.5" font-family="FreeSans" font-size="10.00">magick/magick&#45;type.h</text>
</a>
</g>
</g>
<!-- Node2&#45;&gt;Node22 -->
<g id="edge20" class="edge">
<title>Node2&#45;&gt;Node22</title>
<path fill="none" stroke="midnightblue" d="M694.38,-171.22C616.68,-161.79 462.14,-143.04 370.36,-131.9"/>
<polygon fill="midnightblue" stroke="midnightblue" points="370.66,-128.41 360.31,-130.68 369.81,-135.36 370.66,-128.41"/>
</g>
<!-- Node23 -->
<g id="node22" class="node">
<title>Node23</title>
<g id="a_node22"><a xlink:title=" ">
<polygon fill="white" stroke="#bfbfbf" points="148,-112.5 148,-131.5 216,-131.5 216,-112.5 148,-112.5"/>
<text text-anchor="middle" x="182" y="-119.5" font-family="FreeSans" font-size="10.00">sys/time.h</text>
</a>
</g>
</g>
<!-- Node2&#45;&gt;Node23 -->
<g id="edge22" class="edge">
<title>Node2&#45;&gt;Node23</title>
<path fill="none" stroke="midnightblue" d="M694.38,-174.76C604.68,-170.13 404.41,-157.83 226.28,-132.02"/>
<polygon fill="midnightblue" stroke="midnightblue" points="226.6,-128.53 216.2,-130.54 225.59,-135.46 226.6,-128.53"/>
</g>
<!-- Node22&#45;&gt;Node3 -->
<g id="edge21" class="edge">
<title>Node22&#45;&gt;Node3</title>
<path fill="none" stroke="midnightblue" d="M304.6,-112.08C311.23,-104.3 321.02,-92.8 329.06,-83.37"/>
<polygon fill="midnightblue" stroke="midnightblue" points="331.73,-85.63 335.55,-75.75 326.4,-81.09 331.73,-85.63"/>
</g>
<!-- Node25 -->
<g id="node24" class="node">
<title>Node25</title>
<g id="a_node24"><a xlink:href="pixel_8h.html" target="_top" xlink:title=" ">
<polygon fill="white" stroke="red" points="2410,-56.5 2410,-75.5 2498,-75.5 2498,-56.5 2410,-56.5"/>
<text text-anchor="middle" x="2454" y="-63.5" font-family="FreeSans" font-size="10.00">magick/pixel.h</text>
</a>
</g>
</g>
<!-- Node24&#45;&gt;Node25 -->
<g id="edge24" class="edge">
<title>Node24&#45;&gt;Node25</title>
<path fill="none" stroke="midnightblue" d="M2121.36,-114.65C2190.7,-104.71 2324.58,-85.54 2399.63,-74.79"/>
<polygon fill="midnightblue" stroke="midnightblue" points="2400.41,-78.21 2409.81,-73.33 2399.42,-71.28 2400.41,-78.21"/>
</g>
<!-- Node24&#45;&gt;Node28 -->
<g id="edge26" class="edge">
<title>Node24&#45;&gt;Node28</title>
<path fill="none" stroke="midnightblue" d="M2035.01,-112.44C1988.59,-102.98 1913.77,-87.74 1863.76,-77.55"/>
<polygon fill="midnightblue" stroke="midnightblue" points="1864.29,-74.08 1853.79,-75.52 1862.89,-80.94 1864.29,-74.08"/>
</g>
<!-- Node26 -->
<g id="node25" class="node">
<title>Node26</title>
<g id="a_node25"><a xlink:href="colorspace_8h.html" target="_top" xlink:title=" ">
<polygon fill="white" stroke="black" points="2853.5,-0.5 2853.5,-19.5 2970.5,-19.5 2970.5,-0.5 2853.5,-0.5"/>
<text text-anchor="middle" x="2912" y="-7.5" font-family="FreeSans" font-size="10.00">magick/colorspace.h</text>
</a>
</g>
</g>
<!-- Node25&#45;&gt;Node26 -->
<g id="edge25" class="edge">
<title>Node25&#45;&gt;Node26</title>
<path fill="none" stroke="midnightblue" d="M2498.33,-59.77C2578.47,-50.32 2747.97,-30.34 2843.25,-19.11"/>
<polygon fill="midnightblue" stroke="midnightblue" points="2843.84,-22.56 2853.36,-17.91 2843.02,-15.61 2843.84,-22.56"/>
</g>
<!-- Node28&#45;&gt;Node5 -->
<g id="edge27" class="edge">
<title>Node28&#45;&gt;Node5</title>
<path fill="none" stroke="midnightblue" d="M1781.89,-56.44C1748.8,-47.04 1695.58,-31.91 1659.73,-21.72"/>
<polygon fill="midnightblue" stroke="midnightblue" points="1660.68,-18.36 1650.11,-18.99 1658.77,-25.09 1660.68,-18.36"/>
</g>
<!-- Node29 -->
<g id="node27" class="node">
<title>Node29</title>
<g id="a_node27"><a xlink:href="semaphore_8h.html" target="_top" xlink:title=" ">
<polygon fill="white" stroke="black" points="1752.5,-0.5 1752.5,-19.5 1871.5,-19.5 1871.5,-0.5 1752.5,-0.5"/>
<text text-anchor="middle" x="1812" y="-7.5" font-family="FreeSans" font-size="10.00">magick/semaphore.h</text>
</a>
</g>
</g>
<!-- Node28&#45;&gt;Node29 -->
<g id="edge28" class="edge">
<title>Node28&#45;&gt;Node29</title>
<path fill="none" stroke="midnightblue" d="M1812,-56.08C1812,-49.01 1812,-38.86 1812,-29.99"/>
<polygon fill="midnightblue" stroke="midnightblue" points="1815.5,-29.75 1812,-19.75 1808.5,-29.75 1815.5,-29.75"/>
</g>
<!-- Node30&#45;&gt;Node24 -->
<g id="edge46" class="edge">
<title>Node30&#45;&gt;Node24</title>
<path fill="none" stroke="midnightblue" d="M2091.7,-280.36C2080.3,-260.74 2054.99,-211.17 2062,-168 2063.47,-158.96 2066.49,-149.28 2069.44,-141.22"/>
<polygon fill="midnightblue" stroke="midnightblue" points="2072.76,-142.34 2073.14,-131.75 2066.24,-139.79 2072.76,-142.34"/>
</g>
<!-- Node30&#45;&gt;Node31 -->
<g id="edge30" class="edge">
<title>Node30&#45;&gt;Node31</title>
<path fill="none" stroke="midnightblue" d="M2149.66,-280.45C2192.35,-272.86 2253.77,-260.42 2306,-244 2352.22,-229.47 2403.68,-206.45 2434.15,-192.06"/>
<polygon fill="midnightblue" stroke="midnightblue" points="2435.75,-195.17 2443.27,-187.71 2432.74,-188.85 2435.75,-195.17"/>
</g>
<!-- Node51 -->
<g id="node38" class="node">
<title>Node51</title>
<g id="a_node38"><a xlink:href="image-private_8h.html" target="_top" xlink:title=" ">
<polygon fill="white" stroke="black" points="2261,-168.5 2261,-187.5 2395,-187.5 2395,-168.5 2261,-168.5"/>
<text text-anchor="middle" x="2328" y="-175.5" font-family="FreeSans" font-size="10.00">magick/image&#45;private.h</text>
</a>
</g>
</g>
<!-- Node30&#45;&gt;Node51 -->
<g id="edge45" class="edge">
<title>Node30&#45;&gt;Node51</title>
<path fill="none" stroke="midnightblue" d="M2149.42,-280.48C2196.23,-272.12 2260.61,-258.54 2282,-244 2299.28,-232.26 2312.19,-211.73 2319.87,-196.88"/>
<polygon fill="midnightblue" stroke="midnightblue" points="2323.11,-198.2 2324.33,-187.68 2316.82,-195.15 2323.11,-198.2"/>
</g>
<!-- Node52 -->
<g id="node39" class="node">
<title>Node52</title>
<g id="a_node39"><a xlink:href="colorspace-private_8h.html" target="_top" xlink:title=" ">
<polygon fill="white" stroke="black" points="2117.5,-224.5 2117.5,-243.5 2272.5,-243.5 2272.5,-224.5 2117.5,-224.5"/>
<text text-anchor="middle" x="2195" y="-231.5" font-family="FreeSans" font-size="10.00">magick/colorspace&#45;private.h</text>
</a>
</g>
</g>
<!-- Node30&#45;&gt;Node52 -->
<g id="edge47" class="edge">
<title>Node30&#45;&gt;Node52</title>
<path fill="none" stroke="midnightblue" d="M2112.75,-280.32C2128.32,-271.74 2152.38,-258.49 2170.46,-248.52"/>
<polygon fill="midnightblue" stroke="midnightblue" points="2172.22,-251.55 2179.29,-243.65 2168.85,-245.42 2172.22,-251.55"/>
</g>
<!-- Node53 -->
<g id="node40" class="node">
<title>Node53</title>
<g id="a_node40"><a xlink:href="pixel-accessor_8h.html" target="_top" xlink:title=" ">
<polygon fill="white" stroke="red" points="2071,-168.5 2071,-187.5 2205,-187.5 2205,-168.5 2071,-168.5"/>
<text text-anchor="middle" x="2138" y="-175.5" font-family="FreeSans" font-size="10.00">magick/pixel&#45;accessor.h</text>
</a>
</g>
</g>
<!-- Node30&#45;&gt;Node53 -->
<g id="edge65" class="edge">
<title>Node30&#45;&gt;Node53</title>
<path fill="none" stroke="midnightblue" d="M2097.53,-280.29C2098.55,-267.54 2101.39,-243.2 2109,-224 2112.93,-214.08 2119.17,-204.01 2124.85,-195.92"/>
<polygon fill="midnightblue" stroke="midnightblue" points="2127.77,-197.86 2130.88,-187.73 2122.13,-193.71 2127.77,-197.86"/>
</g>
<!-- Node30&#45;&gt;Node59 -->
<g id="edge54" class="edge">
<title>Node30&#45;&gt;Node59</title>
<path fill="none" stroke="midnightblue" d="M2066.1,-280.46C1994.9,-260.78 1819.31,-212.25 1739.57,-190.21"/>
<polygon fill="midnightblue" stroke="midnightblue" points="1740.45,-186.83 1729.88,-187.53 1738.59,-193.57 1740.45,-186.83"/>
</g>
<!-- Node31&#45;&gt;Node24 -->
<g id="edge31" class="edge">
<title>Node31&#45;&gt;Node24</title>
<path fill="none" stroke="midnightblue" d="M2413.43,-169.4C2410.24,-168.92 2407.07,-168.45 2404,-168 2284.64,-150.59 2254.38,-149.25 2135,-132 2133.72,-131.82 2132.43,-131.63 2131.13,-131.44"/>
<polygon fill="midnightblue" stroke="midnightblue" points="2131.41,-127.94 2121,-129.93 2130.38,-134.86 2131.41,-127.94"/>
</g>
<!-- Node31&#45;&gt;Node25 -->
<g id="edge43" class="edge">
<title>Node31&#45;&gt;Node25</title>
<path fill="none" stroke="midnightblue" d="M2508.86,-177.2C2648.02,-177.29 3045.08,-173.83 3084,-132 3090.05,-125.49 3090.06,-118.51 3084,-112 3045.19,-70.32 2654.42,-66.65 2508.54,-66.75"/>
<polygon fill="midnightblue" stroke="midnightblue" points="2508.46,-63.25 2498.47,-66.76 2508.47,-70.25 2508.46,-63.25"/>
</g>
<!-- Node31&#45;&gt;Node26 -->
<g id="edge34" class="edge">
<title>Node31&#45;&gt;Node26</title>
<path fill="none" stroke="midnightblue" d="M2508.58,-177.29C2649.91,-177.67 3059.91,-175.02 3100,-132 3148.56,-79.9 3030.94,-40.33 2960.41,-22.09"/>
<polygon fill="midnightblue" stroke="midnightblue" points="2960.92,-18.61 2950.37,-19.55 2959.2,-25.39 2960.92,-18.61"/>
</g>
<!-- Node31&#45;&gt;Node29 -->
<g id="edge44" class="edge">
<title>Node31&#45;&gt;Node29</title>
<path fill="none" stroke="midnightblue" d="M2415.07,-168.43C2371.01,-159.98 2302.69,-146.29 2244,-132 2097.1,-96.24 1924.59,-45.14 1849.77,-22.52"/>
<polygon fill="midnightblue" stroke="midnightblue" points="1850.46,-19.08 1839.88,-19.53 1848.43,-25.77 1850.46,-19.08"/>
</g>
<!-- Node32 -->
<g id="node30" class="node">
<title>Node32</title>
<g id="a_node30"><a xlink:href="blob_8h.html" target="_top" xlink:title=" ">
<polygon fill="white" stroke="red" points="2253,-112.5 2253,-131.5 2339,-131.5 2339,-112.5 2253,-112.5"/>
<text text-anchor="middle" x="2296" y="-119.5" font-family="FreeSans" font-size="10.00">magick/blob.h</text>
</a>
</g>
</g>
<!-- Node31&#45;&gt;Node32 -->
<g id="edge32" class="edge">
<title>Node31&#45;&gt;Node32</title>
<path fill="none" stroke="midnightblue" d="M2429.77,-168.44C2400.15,-159.4 2356.14,-145.06 2326.7,-134.92"/>
<polygon fill="midnightblue" stroke="midnightblue" points="2327.54,-131.5 2316.94,-131.52 2325.23,-138.11 2327.54,-131.5"/>
</g>
<!-- Node34 -->
<g id="node31" class="node">
<title>Node34</title>
<g id="a_node31"><a xlink:href="cache-view_8h.html" target="_top" xlink:title=" ">
<polygon fill="white" stroke="black" points="2955.5,-112.5 2955.5,-131.5 3074.5,-131.5 3074.5,-112.5 2955.5,-112.5"/>
<text text-anchor="middle" x="3015" y="-119.5" font-family="FreeSans" font-size="10.00">magick/cache&#45;view.h</text>
</a>
</g>
</g>
<!-- Node31&#45;&gt;Node34 -->
<g id="edge35" class="edge">
<title>Node31&#45;&gt;Node34</title>
<path fill="none" stroke="midnightblue" d="M2508.66,-173.21C2594.01,-166.29 2778.81,-150.69 2944.9,-132.2"/>
<polygon fill="midnightblue" stroke="midnightblue" points="2945.76,-135.63 2955.31,-131.03 2944.98,-128.67 2945.76,-135.63"/>
</g>
<!-- Node35 -->
<g id="node32" class="node">
<title>Node35</title>
<g id="a_node32"><a xlink:href="composite_8h.html" target="_top" xlink:title=" ">
<polygon fill="white" stroke="black" points="2357,-112.5 2357,-131.5 2473,-131.5 2473,-112.5 2357,-112.5"/>
<text text-anchor="middle" x="2415" y="-119.5" font-family="FreeSans" font-size="10.00">magick/composite.h</text>
</a>
</g>
</g>
<!-- Node31&#45;&gt;Node35 -->
<g id="edge37" class="edge">
<title>Node31&#45;&gt;Node35</title>
<path fill="none" stroke="midnightblue" d="M2453.4,-168.08C2446.77,-160.3 2436.98,-148.8 2428.94,-139.37"/>
<polygon fill="midnightblue" stroke="midnightblue" points="2431.6,-137.09 2422.45,-131.75 2426.27,-141.63 2431.6,-137.09"/>
</g>
<!-- Node36 -->
<g id="node33" class="node">
<title>Node36</title>
<g id="a_node33"><a xlink:href="compress_8h.html" target="_top" xlink:title=" ">
<polygon fill="white" stroke="black" points="2491,-112.5 2491,-131.5 2603,-131.5 2603,-112.5 2491,-112.5"/>
<text text-anchor="middle" x="2547" y="-119.5" font-family="FreeSans" font-size="10.00">magick/compress.h</text>
</a>
</g>
</g>
<!-- Node31&#45;&gt;Node36 -->
<g id="edge38" class="edge">
<title>Node31&#45;&gt;Node36</title>
<path fill="none" stroke="midnightblue" d="M2474.82,-168.32C2488.23,-159.9 2508.82,-146.97 2524.59,-137.07"/>
<polygon fill="midnightblue" stroke="midnightblue" points="2526.61,-139.94 2533.22,-131.65 2522.89,-134.01 2526.61,-139.94"/>
</g>
<!-- Node37 -->
<g id="node34" class="node">
<title>Node37</title>
<g id="a_node34"><a xlink:href="effect_8h.html" target="_top" xlink:title=" ">
<polygon fill="white" stroke="red" points="2621,-112.5 2621,-131.5 2713,-131.5 2713,-112.5 2621,-112.5"/>
<text text-anchor="middle" x="2667" y="-119.5" font-family="FreeSans" font-size="10.00">magick/effect.h</text>
</a>
</g>
</g>
<!-- Node31&#45;&gt;Node37 -->
<g id="edge39" class="edge">
<title>Node31&#45;&gt;Node37</title>
<path fill="none" stroke="midnightblue" d="M2493.64,-168.44C2529.05,-159.16 2585.71,-144.31 2624.55,-134.13"/>
<polygon fill="midnightblue" stroke="midnightblue" points="2625.73,-137.44 2634.51,-131.52 2623.95,-130.67 2625.73,-137.44"/>
</g>
<!-- Node39 -->
<g id="node35" class="node">
<title>Node39</title>
<g id="a_node35"><a xlink:href="geometry_8h.html" target="_top" xlink:title=" ">
<polygon fill="white" stroke="black" points="1905,-112.5 1905,-131.5 2015,-131.5 2015,-112.5 1905,-112.5"/>
<text text-anchor="middle" x="1960" y="-119.5" font-family="FreeSans" font-size="10.00">magick/geometry.h</text>
</a>
</g>
</g>
<!-- Node31&#45;&gt;Node39 -->
<g id="edge40" class="edge">
<title>Node31&#45;&gt;Node39</title>
<path fill="none" stroke="midnightblue" d="M2413.45,-169.27C2410.25,-168.82 2407.08,-168.39 2404,-168 2238.89,-147.17 2194.17,-151.63 2025.12,-132.08"/>
<polygon fill="midnightblue" stroke="midnightblue" points="2025.48,-128.6 2015.14,-130.92 2024.66,-135.55 2025.48,-128.6"/>
</g>
<!-- Node40 -->
<g id="node36" class="node">
<title>Node40</title>
<g id="a_node36"><a xlink:href="layer_8h.html" target="_top" xlink:title=" ">
<polygon fill="white" stroke="black" points="2731.5,-112.5 2731.5,-131.5 2820.5,-131.5 2820.5,-112.5 2731.5,-112.5"/>
<text text-anchor="middle" x="2776" y="-119.5" font-family="FreeSans" font-size="10.00">magick/layer.h</text>
</a>
</g>
</g>
<!-- Node31&#45;&gt;Node40 -->
<g id="edge41" class="edge">
<title>Node31&#45;&gt;Node40</title>
<path fill="none" stroke="midnightblue" d="M2508.84,-168.8C2565.95,-159.01 2661.24,-142.67 2721.24,-132.39"/>
<polygon fill="midnightblue" stroke="midnightblue" points="2722.02,-135.81 2731.28,-130.67 2720.84,-128.91 2722.02,-135.81"/>
</g>
<!-- Node41 -->
<g id="node37" class="node">
<title>Node41</title>
<g id="a_node37"><a xlink:href="locale___8h.html" target="_top" xlink:title=" ">
<polygon fill="white" stroke="red" points="2838.5,-112.5 2838.5,-131.5 2937.5,-131.5 2937.5,-112.5 2838.5,-112.5"/>
<text text-anchor="middle" x="2888" y="-119.5" font-family="FreeSans" font-size="10.00">magick/locale_.h</text>
</a>
</g>
</g>
<!-- Node31&#45;&gt;Node41 -->
<g id="edge42" class="edge">
<title>Node31&#45;&gt;Node41</title>
<path fill="none" stroke="midnightblue" d="M2508.54,-171.7C2576.95,-163.97 2707.39,-148.82 2828.18,-132.22"/>
<polygon fill="midnightblue" stroke="midnightblue" points="2828.91,-135.65 2838.34,-130.81 2827.96,-128.72 2828.91,-135.65"/>
</g>
<!-- Node32&#45;&gt;Node31 -->
<g id="edge33" class="edge">
<title>Node32&#45;&gt;Node31</title>
<path fill="none" stroke="midnightblue" d="M2327.1,-131.52C2356.68,-140.55 2400.69,-154.88 2430.17,-165.04"/>
<polygon fill="midnightblue" stroke="midnightblue" points="2429.35,-168.46 2439.94,-168.44 2431.65,-161.85 2429.35,-168.46"/>
</g>
<!-- Node34&#45;&gt;Node25 -->
<g id="edge36" class="edge">
<title>Node34&#45;&gt;Node25</title>
<path fill="none" stroke="midnightblue" d="M2955.31,-112.96C2952.5,-112.63 2949.72,-112.3 2947,-112 2787.86,-94.21 2599.22,-78.48 2508.32,-71.23"/>
<polygon fill="midnightblue" stroke="midnightblue" points="2508.5,-67.74 2498.25,-70.43 2507.94,-74.71 2508.5,-67.74"/>
</g>
<!-- Node52&#45;&gt;Node25 -->
<g id="edge50" class="edge">
<title>Node52&#45;&gt;Node25</title>
<path fill="none" stroke="midnightblue" d="M2198.7,-224.4C2202.58,-215.36 2208.81,-200.72 2214,-188 2227.73,-154.38 2216.29,-135.48 2244,-112 2267.12,-92.41 2345.52,-79.56 2399.7,-72.78"/>
<polygon fill="midnightblue" stroke="midnightblue" points="2400.35,-76.23 2409.85,-71.55 2399.5,-69.28 2400.35,-76.23"/>
</g>
<!-- Node52&#45;&gt;Node31 -->
<g id="edge48" class="edge">
<title>Node52&#45;&gt;Node31</title>
<path fill="none" stroke="midnightblue" d="M2237.15,-224.44C2283.75,-214.98 2358.84,-199.74 2409.05,-189.55"/>
<polygon fill="midnightblue" stroke="midnightblue" points="2409.94,-192.94 2419.05,-187.52 2408.55,-186.08 2409.94,-192.94"/>
</g>
<!-- Node52&#45;&gt;Node51 -->
<g id="edge49" class="edge">
<title>Node52&#45;&gt;Node51</title>
<path fill="none" stroke="midnightblue" d="M2216.07,-224.44C2238.06,-215.52 2272.73,-201.44 2297.66,-191.32"/>
<polygon fill="midnightblue" stroke="midnightblue" points="2299.08,-194.52 2307.02,-187.52 2296.44,-188.04 2299.08,-194.52"/>
</g>
<!-- Node52&#45;&gt;Node53 -->
<g id="edge51" class="edge">
<title>Node52&#45;&gt;Node53</title>
<path fill="none" stroke="midnightblue" d="M2185.84,-224.32C2177.5,-216.42 2164.97,-204.55 2154.82,-194.94"/>
<polygon fill="midnightblue" stroke="midnightblue" points="2156.99,-192.17 2147.32,-187.83 2152.18,-197.25 2156.99,-192.17"/>
</g>
<!-- Node53&#45;&gt;Node11 -->
<g id="edge52" class="edge">
<title>Node53&#45;&gt;Node11</title>
<path fill="none" stroke="midnightblue" d="M2082.07,-168.44C2008.74,-157.23 1882.23,-137.87 1820.69,-128.46"/>
<polygon fill="midnightblue" stroke="midnightblue" points="1821.1,-124.98 1810.69,-126.93 1820.04,-131.9 1821.1,-124.98"/>
</g>
<!-- Node53&#45;&gt;Node25 -->
<g id="edge53" class="edge">
<title>Node53&#45;&gt;Node25</title>
<path fill="none" stroke="midnightblue" d="M2145.03,-168.19C2156.96,-153.9 2182.65,-125.88 2211,-112 2271.2,-82.52 2348.43,-72.26 2399.48,-68.75"/>
<polygon fill="midnightblue" stroke="midnightblue" points="2399.88,-72.23 2409.64,-68.11 2399.45,-65.24 2399.88,-72.23"/>
</g>
<!-- Node60 -->
<g id="node42" class="node">
<title>Node60</title>
<g id="a_node42"><a xlink:href="log_8h.html" target="_top" xlink:title=" ">
<polygon fill="white" stroke="black" points="1661,-112.5 1661,-131.5 1741,-131.5 1741,-112.5 1661,-112.5"/>
<text text-anchor="middle" x="1701" y="-119.5" font-family="FreeSans" font-size="10.00">magick/log.h</text>
</a>
</g>
</g>
<!-- Node59&#45;&gt;Node60 -->
<g id="edge55" class="edge">
<title>Node59&#45;&gt;Node60</title>
<path fill="none" stroke="midnightblue" d="M1699.33,-168.08C1699.59,-161.01 1699.97,-150.86 1700.3,-141.99"/>
<polygon fill="midnightblue" stroke="midnightblue" points="1703.8,-141.87 1700.68,-131.75 1696.81,-141.61 1703.8,-141.87"/>
</g>
<!-- Node59&#45;&gt;Node61 -->
<g id="edge58" class="edge">
<title>Node59&#45;&gt;Node61</title>
<path fill="none" stroke="midnightblue" d="M1687.77,-168.33C1677.45,-159.92 1662.24,-146.35 1652,-132 1641.63,-117.47 1633.46,-98.79 1628.28,-85.18"/>
<polygon fill="midnightblue" stroke="midnightblue" points="1631.48,-83.75 1624.78,-75.54 1624.9,-86.13 1631.48,-83.75"/>
</g>
<!-- Node59&#45;&gt;Node45 -->
<g id="edge61" class="edge">
<title>Node59&#45;&gt;Node45</title>
<path fill="none" stroke="midnightblue" d="M1670.32,-168.44C1639.47,-159.24 1590.27,-144.56 1556.17,-134.39"/>
<polygon fill="midnightblue" stroke="midnightblue" points="1557.13,-131.02 1546.55,-131.52 1555.13,-137.73 1557.13,-131.02"/>
</g>
<!-- Node60&#45;&gt;Node5 -->
<g id="edge56" class="edge">
<title>Node60&#45;&gt;Node5</title>
<path fill="none" stroke="midnightblue" d="M1700.21,-112.26C1698.65,-99.02 1694.18,-73.59 1682,-56 1673.2,-43.29 1659.65,-32.69 1647.66,-24.98"/>
<polygon fill="midnightblue" stroke="midnightblue" points="1649.26,-21.85 1638.89,-19.65 1645.62,-27.84 1649.26,-21.85"/>
</g>
<!-- Node60&#45;&gt;Node28 -->
<g id="edge57" class="edge">
<title>Node60&#45;&gt;Node28</title>
<path fill="none" stroke="midnightblue" d="M1718.83,-112.32C1736.72,-103.62 1764.48,-90.12 1785.05,-80.11"/>
<polygon fill="midnightblue" stroke="midnightblue" points="1786.75,-83.18 1794.21,-75.65 1783.69,-76.88 1786.75,-83.18"/>
</g>
<!-- Node61&#45;&gt;Node5 -->
<g id="edge59" class="edge">
<title>Node61&#45;&gt;Node5</title>
<path fill="none" stroke="midnightblue" d="M1622,-56.08C1622,-49.01 1622,-38.86 1622,-29.99"/>
<polygon fill="midnightblue" stroke="midnightblue" points="1625.5,-29.75 1622,-19.75 1618.5,-29.75 1625.5,-29.75"/>
</g>
<!-- Node61&#45;&gt;Node29 -->
<g id="edge60" class="edge">
<title>Node61&#45;&gt;Node29</title>
<path fill="none" stroke="midnightblue" d="M1652.11,-56.44C1684.63,-47.2 1736.58,-32.44 1772.39,-22.26"/>
<polygon fill="midnightblue" stroke="midnightblue" points="1773.37,-25.62 1782.03,-19.52 1771.46,-18.88 1773.37,-25.62"/>
</g>
<!-- Node45&#45;&gt;Node5 -->
<g id="edge62" class="edge">
<title>Node45&#45;&gt;Node5</title>
<path fill="none" stroke="midnightblue" d="M1522.78,-112.37C1530.28,-99.3 1545.75,-74.07 1563,-56 1574.06,-44.42 1588.29,-33.47 1600.01,-25.28"/>
<polygon fill="midnightblue" stroke="midnightblue" points="1602.08,-28.1 1608.38,-19.58 1598.14,-22.31 1602.08,-28.1"/>
</g>
<!-- Node45&#45;&gt;Node12 -->
<g id="edge63" class="edge">
<title>Node45&#45;&gt;Node12</title>
<path fill="none" stroke="midnightblue" d="M1468.79,-113.12C1465.48,-112.71 1462.2,-112.33 1459,-112 1136.94,-79.14 744.84,-69.72 628.25,-67.56"/>
<polygon fill="midnightblue" stroke="midnightblue" points="628.21,-64.06 618.15,-67.38 628.08,-71.06 628.21,-64.06"/>
</g>
<!-- Node45&#45;&gt;Node28 -->
<g id="edge64" class="edge">
<title>Node45&#45;&gt;Node28</title>
<path fill="none" stroke="midnightblue" d="M1564.59,-112.44C1616.41,-102.92 1700.13,-87.55 1755.62,-77.36"/>
<polygon fill="midnightblue" stroke="midnightblue" points="1756.43,-80.77 1765.63,-75.52 1755.16,-73.88 1756.43,-80.77"/>
</g>
<!-- Node62&#45;&gt;Node9 -->
<g id="edge71" class="edge">
<title>Node62&#45;&gt;Node9</title>
<path fill="none" stroke="midnightblue" d="M1425,-168.08C1425,-161.01 1425,-150.86 1425,-141.99"/>
<polygon fill="midnightblue" stroke="midnightblue" points="1428.5,-141.75 1425,-131.75 1421.5,-141.75 1428.5,-141.75"/>
</g>
<!-- Node62&#45;&gt;Node15 -->
<g id="edge72" class="edge">
<title>Node62&#45;&gt;Node15</title>
<path fill="none" stroke="midnightblue" d="M1413.43,-168.32C1402.58,-160.18 1386.12,-147.84 1373.12,-138.09"/>
<polygon fill="midnightblue" stroke="midnightblue" points="1374.88,-135.03 1364.78,-131.83 1370.68,-140.63 1374.88,-135.03"/>
</g>
<!-- Node66&#45;&gt;Node28 -->
<g id="edge78" class="edge">
<title>Node66&#45;&gt;Node28</title>
<path fill="none" stroke="midnightblue" d="M1897.59,-168.43C1888.11,-155.84 1869.67,-131.71 1853,-112 1844.72,-102.22 1835.09,-91.61 1827.24,-83.15"/>
<polygon fill="midnightblue" stroke="midnightblue" points="1829.75,-80.71 1820.37,-75.79 1824.64,-85.49 1829.75,-80.71"/>
</g>
<!-- Node66&#45;&gt;Node39 -->
<g id="edge79" class="edge">
<title>Node66&#45;&gt;Node39</title>
<path fill="none" stroke="midnightblue" d="M1913,-168.32C1921.19,-160.42 1933.51,-148.55 1943.47,-138.94"/>
<polygon fill="midnightblue" stroke="midnightblue" points="1946.07,-141.29 1950.84,-131.83 1941.21,-136.26 1946.07,-141.29"/>
</g>
</g>
</svg>
