<?xml version="1.0" encoding="UTF-8" standalone="no"?>
<!DOCTYPE svg PUBLIC "-//W3C//DTD SVG 1.1//EN"
 "http://www.w3.org/Graphics/SVG/1.1/DTD/svg11.dtd">
<!-- Generated by graphviz version 2.43.0 (0)
 -->
<!-- Title: widget.h Pages: 1 -->
<svg width="313pt" height="84pt"
 viewBox="0.00 0.00 312.50 84.00" xmlns="http://www.w3.org/2000/svg" xmlns:xlink="http://www.w3.org/1999/xlink">
<g id="graph0" class="graph" transform="scale(1 1) rotate(0) translate(4 80)">
<title>widget.h</title>
<polygon fill="white" stroke="transparent" points="-4,4 -4,-80 308.5,-80 308.5,4 -4,4"/>
<!-- Node1 -->
<g id="node1" class="node">
<title>Node1</title>
<g id="a_node1"><a xlink:title=" ">
<polygon fill="#bfbfbf" stroke="black" points="121,-56.5 121,-75.5 180,-75.5 180,-56.5 121,-56.5"/>
<text text-anchor="middle" x="150.5" y="-63.5" font-family="FreeSans" font-size="10.00">widget.h</text>
</a>
</g>
</g>
<!-- Node2 -->
<g id="node2" class="node">
<title>Node2</title>
<g id="a_node2"><a xlink:href="animate_8c.html" target="_top" xlink:title=" ">
<polygon fill="white" stroke="black" points="0,-0.5 0,-19.5 65,-19.5 65,-0.5 0,-0.5"/>
<text text-anchor="middle" x="32.5" y="-7.5" font-family="FreeSans" font-size="10.00">animate.c</text>
</a>
</g>
</g>
<!-- Node1&#45;&gt;Node2 -->
<g id="edge1" class="edge">
<title>Node1&#45;&gt;Node2</title>
<path fill="none" stroke="midnightblue" d="M122.6,-52.23C100.53,-42.13 70.32,-28.31 51.11,-19.52"/>
<polygon fill="midnightblue" stroke="midnightblue" points="121.25,-55.46 131.8,-56.44 124.17,-49.1 121.25,-55.46"/>
</g>
<!-- Node3 -->
<g id="node3" class="node">
<title>Node3</title>
<g id="a_node3"><a xlink:href="display_8c.html" target="_top" xlink:title=" ">
<polygon fill="white" stroke="black" points="83,-0.5 83,-19.5 142,-19.5 142,-0.5 83,-0.5"/>
<text text-anchor="middle" x="112.5" y="-7.5" font-family="FreeSans" font-size="10.00">display.c</text>
</a>
</g>
</g>
<!-- Node1&#45;&gt;Node3 -->
<g id="edge2" class="edge">
<title>Node1&#45;&gt;Node3</title>
<path fill="none" stroke="midnightblue" d="M138.44,-47.86C131.86,-38.5 123.99,-27.33 118.66,-19.75"/>
<polygon fill="midnightblue" stroke="midnightblue" points="135.61,-49.92 144.23,-56.08 141.33,-45.89 135.61,-49.92"/>
</g>
<!-- Node4 -->
<g id="node4" class="node">
<title>Node4</title>
<g id="a_node4"><a xlink:href="widget_8c.html" target="_top" xlink:title=" ">
<polygon fill="white" stroke="black" points="160.5,-0.5 160.5,-19.5 218.5,-19.5 218.5,-0.5 160.5,-0.5"/>
<text text-anchor="middle" x="189.5" y="-7.5" font-family="FreeSans" font-size="10.00">widget.c</text>
</a>
</g>
</g>
<!-- Node1&#45;&gt;Node4 -->
<g id="edge3" class="edge">
<title>Node1&#45;&gt;Node4</title>
<path fill="none" stroke="midnightblue" d="M162.88,-47.86C169.64,-38.5 177.71,-27.33 183.18,-19.75"/>
<polygon fill="midnightblue" stroke="midnightblue" points="159.96,-45.93 156.94,-56.08 165.63,-50.03 159.96,-45.93"/>
</g>
<!-- Node5 -->
<g id="node5" class="node">
<title>Node5</title>
<g id="a_node5"><a xlink:href="xwindow_8c.html" target="_top" xlink:title=" ">
<polygon fill="white" stroke="black" points="236.5,-0.5 236.5,-19.5 304.5,-19.5 304.5,-0.5 236.5,-0.5"/>
<text text-anchor="middle" x="270.5" y="-7.5" font-family="FreeSans" font-size="10.00">xwindow.c</text>
</a>
</g>
</g>
<!-- Node1&#45;&gt;Node5 -->
<g id="edge4" class="edge">
<title>Node1&#45;&gt;Node5</title>
<path fill="none" stroke="midnightblue" d="M178.87,-52.23C201.32,-42.13 232.04,-28.31 251.57,-19.52"/>
<polygon fill="midnightblue" stroke="midnightblue" points="177.2,-49.15 169.51,-56.44 180.07,-55.53 177.2,-49.15"/>
</g>
</g>
</svg>
