<?xml version="1.0" encoding="UTF-8" standalone="no"?>
<!DOCTYPE svg PUBLIC "-//W3C//DTD SVG 1.1//EN"
 "http://www.w3.org/Graphics/SVG/1.1/DTD/svg11.dtd">
<!-- Generated by graphviz version 2.43.0 (0)
 -->
<!-- Title: xml&#45;tree.h Pages: 1 -->
<svg width="1411pt" height="140pt"
 viewBox="0.00 0.00 1410.50 140.00" xmlns="http://www.w3.org/2000/svg" xmlns:xlink="http://www.w3.org/1999/xlink">
<g id="graph0" class="graph" transform="scale(1 1) rotate(0) translate(4 136)">
<title>xml&#45;tree.h</title>
<polygon fill="white" stroke="transparent" points="-4,4 -4,-136 1406.5,-136 1406.5,4 -4,4"/>
<!-- Node1 -->
<g id="node1" class="node">
<title>Node1</title>
<g id="a_node1"><a xlink:title=" ">
<polygon fill="#bfbfbf" stroke="black" points="746,-112.5 746,-131.5 814,-131.5 814,-112.5 746,-112.5"/>
<text text-anchor="middle" x="780" y="-119.5" font-family="FreeSans" font-size="10.00">xml&#45;tree.h</text>
</a>
</g>
</g>
<!-- Node2 -->
<g id="node2" class="node">
<title>Node2</title>
<g id="a_node2"><a xlink:href="MagickCore_8h.html" target="_top" xlink:title=" ">
<polygon fill="white" stroke="black" points="89.5,-56.5 89.5,-75.5 172.5,-75.5 172.5,-56.5 89.5,-56.5"/>
<text text-anchor="middle" x="131" y="-63.5" font-family="FreeSans" font-size="10.00">MagickCore.h</text>
</a>
</g>
</g>
<!-- Node1&#45;&gt;Node2 -->
<g id="edge1" class="edge">
<title>Node1&#45;&gt;Node2</title>
<path fill="none" stroke="midnightblue" d="M735.56,-119.17C636.09,-114.75 388.07,-101.87 182,-76 178.97,-75.62 175.84,-75.18 172.7,-74.71"/>
<polygon fill="midnightblue" stroke="midnightblue" points="735.69,-122.68 745.83,-119.62 735.99,-115.69 735.69,-122.68"/>
</g>
<!-- Node6 -->
<g id="node6" class="node">
<title>Node6</title>
<g id="a_node6"><a xlink:href="artifact_8c.html" target="_top" xlink:title=" ">
<polygon fill="white" stroke="black" points="191,-56.5 191,-75.5 251,-75.5 251,-56.5 191,-56.5"/>
<text text-anchor="middle" x="221" y="-63.5" font-family="FreeSans" font-size="10.00">artifact.c</text>
</a>
</g>
</g>
<!-- Node1&#45;&gt;Node6 -->
<g id="edge5" class="edge">
<title>Node1&#45;&gt;Node6</title>
<path fill="none" stroke="midnightblue" d="M735.7,-119.17C645.76,-115.03 435.52,-103.07 261,-76 257.76,-75.5 254.4,-74.89 251.06,-74.22"/>
<polygon fill="midnightblue" stroke="midnightblue" points="735.66,-122.68 745.8,-119.63 735.97,-115.68 735.66,-122.68"/>
</g>
<!-- Node7 -->
<g id="node7" class="node">
<title>Node7</title>
<g id="a_node7"><a xlink:href="coder_8c.html" target="_top" xlink:title=" ">
<polygon fill="white" stroke="black" points="269.5,-56.5 269.5,-75.5 320.5,-75.5 320.5,-56.5 269.5,-56.5"/>
<text text-anchor="middle" x="295" y="-63.5" font-family="FreeSans" font-size="10.00">coder.c</text>
</a>
</g>
</g>
<!-- Node1&#45;&gt;Node7 -->
<g id="edge6" class="edge">
<title>Node1&#45;&gt;Node7</title>
<path fill="none" stroke="midnightblue" d="M735.56,-118.8C654.45,-114.29 477.23,-102.13 330,-76 326.91,-75.45 323.69,-74.77 320.52,-74.04"/>
<polygon fill="midnightblue" stroke="midnightblue" points="735.71,-122.31 745.89,-119.36 736.09,-115.32 735.71,-122.31"/>
</g>
<!-- Node8 -->
<g id="node8" class="node">
<title>Node8</title>
<g id="a_node8"><a xlink:href="color_8c.html" target="_top" xlink:title=" ">
<polygon fill="white" stroke="black" points="339,-56.5 339,-75.5 387,-75.5 387,-56.5 339,-56.5"/>
<text text-anchor="middle" x="363" y="-63.5" font-family="FreeSans" font-size="10.00">color.c</text>
</a>
</g>
</g>
<!-- Node1&#45;&gt;Node8 -->
<g id="edge7" class="edge">
<title>Node1&#45;&gt;Node8</title>
<path fill="none" stroke="midnightblue" d="M735.93,-117.87C664.36,-112.32 518.62,-99.12 397,-76 393.76,-75.38 390.38,-74.63 387.05,-73.82"/>
<polygon fill="midnightblue" stroke="midnightblue" points="735.7,-121.36 745.94,-118.63 736.23,-114.38 735.7,-121.36"/>
</g>
<!-- Node9 -->
<g id="node9" class="node">
<title>Node9</title>
<g id="a_node9"><a xlink:href="colormap_8c.html" target="_top" xlink:title=" ">
<polygon fill="white" stroke="black" points="405.5,-56.5 405.5,-75.5 476.5,-75.5 476.5,-56.5 405.5,-56.5"/>
<text text-anchor="middle" x="441" y="-63.5" font-family="FreeSans" font-size="10.00">colormap.c</text>
</a>
</g>
</g>
<!-- Node1&#45;&gt;Node9 -->
<g id="edge8" class="edge">
<title>Node1&#45;&gt;Node9</title>
<path fill="none" stroke="midnightblue" d="M735.76,-114.87C678.13,-106.74 574.32,-91.58 486,-76 483.02,-75.47 479.93,-74.91 476.83,-74.32"/>
<polygon fill="midnightblue" stroke="midnightblue" points="735.57,-118.38 745.96,-116.3 736.55,-111.45 735.57,-118.38"/>
</g>
<!-- Node10 -->
<g id="node10" class="node">
<title>Node10</title>
<g id="a_node10"><a xlink:href="configure_8c.html" target="_top" xlink:title=" ">
<polygon fill="white" stroke="black" points="495,-56.5 495,-75.5 565,-75.5 565,-56.5 495,-56.5"/>
<text text-anchor="middle" x="530" y="-63.5" font-family="FreeSans" font-size="10.00">configure.c</text>
</a>
</g>
</g>
<!-- Node1&#45;&gt;Node10 -->
<g id="edge9" class="edge">
<title>Node1&#45;&gt;Node10</title>
<path fill="none" stroke="midnightblue" d="M735.83,-111.46C687.12,-100.94 609.74,-84.22 565.03,-74.57"/>
<polygon fill="midnightblue" stroke="midnightblue" points="735.25,-114.91 745.76,-113.6 736.73,-108.07 735.25,-114.91"/>
</g>
<!-- Node11 -->
<g id="node11" class="node">
<title>Node11</title>
<g id="a_node11"><a xlink:href="delegate_8c.html" target="_top" xlink:title=" ">
<polygon fill="white" stroke="black" points="583,-56.5 583,-75.5 651,-75.5 651,-56.5 583,-56.5"/>
<text text-anchor="middle" x="617" y="-63.5" font-family="FreeSans" font-size="10.00">delegate.c</text>
</a>
</g>
</g>
<!-- Node1&#45;&gt;Node11 -->
<g id="edge10" class="edge">
<title>Node1&#45;&gt;Node11</title>
<path fill="none" stroke="midnightblue" d="M744.3,-109.17C713.6,-99 670.08,-84.59 642.71,-75.52"/>
<polygon fill="midnightblue" stroke="midnightblue" points="743.58,-112.62 754.17,-112.44 745.78,-105.98 743.58,-112.62"/>
</g>
<!-- Node12 -->
<g id="node12" class="node">
<title>Node12</title>
<g id="a_node12"><a xlink:href="enhance_8c.html" target="_top" xlink:title=" ">
<polygon fill="white" stroke="black" points="669,-56.5 669,-75.5 735,-75.5 735,-56.5 669,-56.5"/>
<text text-anchor="middle" x="702" y="-63.5" font-family="FreeSans" font-size="10.00">enhance.c</text>
</a>
</g>
</g>
<!-- Node1&#45;&gt;Node12 -->
<g id="edge11" class="edge">
<title>Node1&#45;&gt;Node12</title>
<path fill="none" stroke="midnightblue" d="M759.23,-106.62C744.98,-96.76 726.54,-83.99 714.5,-75.65"/>
<polygon fill="midnightblue" stroke="midnightblue" points="757.25,-109.51 767.47,-112.32 761.24,-103.75 757.25,-109.51"/>
</g>
<!-- Node13 -->
<g id="node13" class="node">
<title>Node13</title>
<g id="a_node13"><a xlink:href="locale_8c.html" target="_top" xlink:title=" ">
<polygon fill="white" stroke="black" points="753,-56.5 753,-75.5 807,-75.5 807,-56.5 753,-56.5"/>
<text text-anchor="middle" x="780" y="-63.5" font-family="FreeSans" font-size="10.00">locale.c</text>
</a>
</g>
</g>
<!-- Node1&#45;&gt;Node13 -->
<g id="edge12" class="edge">
<title>Node1&#45;&gt;Node13</title>
<path fill="none" stroke="midnightblue" d="M780,-101.8C780,-92.91 780,-82.78 780,-75.75"/>
<polygon fill="midnightblue" stroke="midnightblue" points="776.5,-102.08 780,-112.08 783.5,-102.08 776.5,-102.08"/>
</g>
<!-- Node14 -->
<g id="node14" class="node">
<title>Node14</title>
<g id="a_node14"><a xlink:href="log_8c.html" target="_top" xlink:title=" ">
<polygon fill="white" stroke="black" points="825,-56.5 825,-75.5 865,-75.5 865,-56.5 825,-56.5"/>
<text text-anchor="middle" x="845" y="-63.5" font-family="FreeSans" font-size="10.00">log.c</text>
</a>
</g>
</g>
<!-- Node1&#45;&gt;Node14 -->
<g id="edge13" class="edge">
<title>Node1&#45;&gt;Node14</title>
<path fill="none" stroke="midnightblue" d="M798.27,-105.82C809.92,-96.15 824.6,-83.95 834.37,-75.83"/>
<polygon fill="midnightblue" stroke="midnightblue" points="795.9,-103.24 790.44,-112.32 800.37,-108.63 795.9,-103.24"/>
</g>
<!-- Node15 -->
<g id="node15" class="node">
<title>Node15</title>
<g id="a_node15"><a xlink:href="magic_8c.html" target="_top" xlink:title=" ">
<polygon fill="white" stroke="black" points="883.5,-56.5 883.5,-75.5 938.5,-75.5 938.5,-56.5 883.5,-56.5"/>
<text text-anchor="middle" x="911" y="-63.5" font-family="FreeSans" font-size="10.00">magic.c</text>
</a>
</g>
</g>
<!-- Node1&#45;&gt;Node15 -->
<g id="edge14" class="edge">
<title>Node1&#45;&gt;Node15</title>
<path fill="none" stroke="midnightblue" d="M810.32,-108.5C834.88,-98.38 868.82,-84.39 890.34,-75.52"/>
<polygon fill="midnightblue" stroke="midnightblue" points="808.67,-105.4 800.76,-112.44 811.34,-111.87 808.67,-105.4"/>
</g>
<!-- Node16 -->
<g id="node16" class="node">
<title>Node16</title>
<g id="a_node16"><a xlink:href="mime_8c.html" target="_top" xlink:title=" ">
<polygon fill="white" stroke="black" points="956.5,-56.5 956.5,-75.5 1009.5,-75.5 1009.5,-56.5 956.5,-56.5"/>
<text text-anchor="middle" x="983" y="-63.5" font-family="FreeSans" font-size="10.00">mime.c</text>
</a>
</g>
</g>
<!-- Node1&#45;&gt;Node16 -->
<g id="edge15" class="edge">
<title>Node1&#45;&gt;Node16</title>
<path fill="none" stroke="midnightblue" d="M821.99,-109.83C862.41,-99.08 922.29,-83.15 956.48,-74.05"/>
<polygon fill="midnightblue" stroke="midnightblue" points="820.93,-106.49 812.17,-112.44 822.73,-113.26 820.93,-106.49"/>
</g>
<!-- Node17 -->
<g id="node17" class="node">
<title>Node17</title>
<g id="a_node17"><a xlink:href="policy_8c.html" target="_top" xlink:title=" ">
<polygon fill="white" stroke="black" points="1027.5,-56.5 1027.5,-75.5 1080.5,-75.5 1080.5,-56.5 1027.5,-56.5"/>
<text text-anchor="middle" x="1054" y="-63.5" font-family="FreeSans" font-size="10.00">policy.c</text>
</a>
</g>
</g>
<!-- Node1&#45;&gt;Node17 -->
<g id="edge16" class="edge">
<title>Node1&#45;&gt;Node17</title>
<path fill="none" stroke="midnightblue" d="M824.25,-113.56C872.36,-105.27 951.42,-91.03 1019,-76 1021.69,-75.4 1024.5,-74.74 1027.29,-74.06"/>
<polygon fill="midnightblue" stroke="midnightblue" points="823.45,-110.15 814.18,-115.29 824.63,-117.05 823.45,-110.15"/>
</g>
<!-- Node18 -->
<g id="node18" class="node">
<title>Node18</title>
<g id="a_node18"><a xlink:href="property_8c.html" target="_top" xlink:title=" ">
<polygon fill="white" stroke="black" points="1098.5,-56.5 1098.5,-75.5 1163.5,-75.5 1163.5,-56.5 1098.5,-56.5"/>
<text text-anchor="middle" x="1131" y="-63.5" font-family="FreeSans" font-size="10.00">property.c</text>
</a>
</g>
</g>
<!-- Node1&#45;&gt;Node18 -->
<g id="edge17" class="edge">
<title>Node1&#45;&gt;Node18</title>
<path fill="none" stroke="midnightblue" d="M824,-115.63C884.24,-108.04 995.67,-93.18 1090,-76 1092.72,-75.5 1095.54,-74.96 1098.37,-74.38"/>
<polygon fill="midnightblue" stroke="midnightblue" points="823.56,-112.15 814.08,-116.87 824.43,-119.1 823.56,-112.15"/>
</g>
<!-- Node19 -->
<g id="node19" class="node">
<title>Node19</title>
<g id="a_node19"><a xlink:href="threshold_8c.html" target="_top" xlink:title=" ">
<polygon fill="white" stroke="black" points="1181.5,-56.5 1181.5,-75.5 1252.5,-75.5 1252.5,-56.5 1181.5,-56.5"/>
<text text-anchor="middle" x="1217" y="-63.5" font-family="FreeSans" font-size="10.00">threshold.c</text>
</a>
</g>
</g>
<!-- Node1&#45;&gt;Node19 -->
<g id="edge18" class="edge">
<title>Node1&#45;&gt;Node19</title>
<path fill="none" stroke="midnightblue" d="M824.23,-117.21C897.16,-110.68 1047.11,-96.04 1173,-76 1175.62,-75.58 1178.32,-75.12 1181.03,-74.63"/>
<polygon fill="midnightblue" stroke="midnightblue" points="823.69,-113.75 814.04,-118.12 824.31,-120.72 823.69,-113.75"/>
</g>
<!-- Node20 -->
<g id="node20" class="node">
<title>Node20</title>
<g id="a_node20"><a xlink:href="type_8c.html" target="_top" xlink:title=" ">
<polygon fill="white" stroke="black" points="1270.5,-56.5 1270.5,-75.5 1317.5,-75.5 1317.5,-56.5 1270.5,-56.5"/>
<text text-anchor="middle" x="1294" y="-63.5" font-family="FreeSans" font-size="10.00">type.c</text>
</a>
</g>
</g>
<!-- Node1&#45;&gt;Node20 -->
<g id="edge19" class="edge">
<title>Node1&#45;&gt;Node20</title>
<path fill="none" stroke="midnightblue" d="M824.29,-119.54C909.65,-116.15 1102.56,-105.61 1262,-76 1264.72,-75.49 1267.55,-74.86 1270.35,-74.17"/>
<polygon fill="midnightblue" stroke="midnightblue" points="824.04,-116.05 814.19,-119.93 824.31,-123.05 824.04,-116.05"/>
</g>
<!-- Node21 -->
<g id="node21" class="node">
<title>Node21</title>
<g id="a_node21"><a xlink:href="xml-tree_8c.html" target="_top" xlink:title=" ">
<polygon fill="white" stroke="black" points="1335.5,-56.5 1335.5,-75.5 1402.5,-75.5 1402.5,-56.5 1335.5,-56.5"/>
<text text-anchor="middle" x="1369" y="-63.5" font-family="FreeSans" font-size="10.00">xml&#45;tree.c</text>
</a>
</g>
</g>
<!-- Node1&#45;&gt;Node21 -->
<g id="edge20" class="edge">
<title>Node1&#45;&gt;Node21</title>
<path fill="none" stroke="midnightblue" d="M824.31,-119.29C917.68,-115.28 1141.38,-103.41 1327,-76 1329.66,-75.61 1332.4,-75.15 1335.14,-74.65"/>
<polygon fill="midnightblue" stroke="midnightblue" points="823.94,-115.81 814.1,-119.72 824.24,-122.8 823.94,-115.81"/>
</g>
<!-- Node3 -->
<g id="node3" class="node">
<title>Node3</title>
<g id="a_node3"><a xlink:href="ImageMagick_8h.html" target="_top" xlink:title=" ">
<polygon fill="white" stroke="black" points="0,-0.5 0,-19.5 92,-19.5 92,-0.5 0,-0.5"/>
<text text-anchor="middle" x="46" y="-7.5" font-family="FreeSans" font-size="10.00">ImageMagick.h</text>
</a>
</g>
</g>
<!-- Node2&#45;&gt;Node3 -->
<g id="edge2" class="edge">
<title>Node2&#45;&gt;Node3</title>
<path fill="none" stroke="midnightblue" d="M108.81,-50.9C93.22,-41 72.87,-28.07 59.62,-19.65"/>
<polygon fill="midnightblue" stroke="midnightblue" points="107.03,-53.92 117.34,-56.32 110.78,-48.01 107.03,-53.92"/>
</g>
<!-- Node4 -->
<g id="node4" class="node">
<title>Node4</title>
<g id="a_node4"><a xlink:href="api_8h.html" target="_top" xlink:title=" ">
<polygon fill="white" stroke="black" points="110.5,-0.5 110.5,-19.5 151.5,-19.5 151.5,-0.5 110.5,-0.5"/>
<text text-anchor="middle" x="131" y="-7.5" font-family="FreeSans" font-size="10.00">api.h</text>
</a>
</g>
</g>
<!-- Node2&#45;&gt;Node4 -->
<g id="edge3" class="edge">
<title>Node2&#45;&gt;Node4</title>
<path fill="none" stroke="midnightblue" d="M131,-45.8C131,-36.91 131,-26.78 131,-19.75"/>
<polygon fill="midnightblue" stroke="midnightblue" points="127.5,-46.08 131,-56.08 134.5,-46.08 127.5,-46.08"/>
</g>
<!-- Node5 -->
<g id="node5" class="node">
<title>Node5</title>
<g id="a_node5"><a xlink:href="image-view_8c.html" target="_top" xlink:title=" ">
<polygon fill="white" stroke="black" points="169.5,-0.5 169.5,-19.5 250.5,-19.5 250.5,-0.5 169.5,-0.5"/>
<text text-anchor="middle" x="210" y="-7.5" font-family="FreeSans" font-size="10.00">image&#45;view.c</text>
</a>
</g>
</g>
<!-- Node2&#45;&gt;Node5 -->
<g id="edge4" class="edge">
<title>Node2&#45;&gt;Node5</title>
<path fill="none" stroke="midnightblue" d="M152.03,-50.62C166.47,-40.76 185.14,-27.99 197.34,-19.65"/>
<polygon fill="midnightblue" stroke="midnightblue" points="149.97,-47.79 143.69,-56.32 153.92,-53.57 149.97,-47.79"/>
</g>
</g>
</svg>
