<?xml version="1.0" encoding="UTF-8" standalone="no"?>
<!DOCTYPE svg PUBLIC "-//W3C//DTD SVG 1.1//EN"
 "http://www.w3.org/Graphics/SVG/1.1/DTD/svg11.dtd">
<!-- Generated by graphviz version 2.43.0 (0)
 -->
<!-- Title: xwindow&#45;private.h Pages: 1 -->
<svg width="554pt" height="84pt"
 viewBox="0.00 0.00 553.50 84.00" xmlns="http://www.w3.org/2000/svg" xmlns:xlink="http://www.w3.org/1999/xlink">
<g id="graph0" class="graph" transform="scale(1 1) rotate(0) translate(4 80)">
<title>xwindow&#45;private.h</title>
<polygon fill="white" stroke="transparent" points="-4,4 -4,-80 549.5,-80 549.5,4 -4,4"/>
<!-- Node1 -->
<g id="node1" class="node">
<title>Node1</title>
<g id="a_node1"><a xlink:title=" ">
<polygon fill="#bfbfbf" stroke="black" points="222,-56.5 222,-75.5 329,-75.5 329,-56.5 222,-56.5"/>
<text text-anchor="middle" x="275.5" y="-63.5" font-family="FreeSans" font-size="10.00">xwindow&#45;private.h</text>
</a>
</g>
</g>
<!-- Node2 -->
<g id="node2" class="node">
<title>Node2</title>
<g id="a_node2"><a xlink:href="animate_8c.html" target="_top" xlink:title=" ">
<polygon fill="white" stroke="black" points="0,-0.5 0,-19.5 65,-19.5 65,-0.5 0,-0.5"/>
<text text-anchor="middle" x="32.5" y="-7.5" font-family="FreeSans" font-size="10.00">animate.c</text>
</a>
</g>
</g>
<!-- Node1&#45;&gt;Node2 -->
<g id="edge1" class="edge">
<title>Node1&#45;&gt;Node2</title>
<path fill="none" stroke="midnightblue" d="M227.15,-54.26C179.2,-43.6 107.04,-27.56 65.37,-18.3"/>
<polygon fill="midnightblue" stroke="midnightblue" points="226.47,-57.69 237,-56.44 227.99,-50.86 226.47,-57.69"/>
</g>
<!-- Node3 -->
<g id="node3" class="node">
<title>Node3</title>
<g id="a_node3"><a xlink:href="annotate_8c.html" target="_top" xlink:title=" ">
<polygon fill="white" stroke="black" points="83.5,-0.5 83.5,-19.5 151.5,-19.5 151.5,-0.5 83.5,-0.5"/>
<text text-anchor="middle" x="117.5" y="-7.5" font-family="FreeSans" font-size="10.00">annotate.c</text>
</a>
</g>
</g>
<!-- Node1&#45;&gt;Node3 -->
<g id="edge2" class="edge">
<title>Node1&#45;&gt;Node3</title>
<path fill="none" stroke="midnightblue" d="M240.89,-53.17C211.14,-43 168.95,-28.59 142.42,-19.52"/>
<polygon fill="midnightblue" stroke="midnightblue" points="239.87,-56.52 250.46,-56.44 242.13,-49.9 239.87,-56.52"/>
</g>
<!-- Node4 -->
<g id="node4" class="node">
<title>Node4</title>
<g id="a_node4"><a xlink:href="display_8c.html" target="_top" xlink:title=" ">
<polygon fill="white" stroke="black" points="170,-0.5 170,-19.5 229,-19.5 229,-0.5 170,-0.5"/>
<text text-anchor="middle" x="199.5" y="-7.5" font-family="FreeSans" font-size="10.00">display.c</text>
</a>
</g>
</g>
<!-- Node1&#45;&gt;Node4 -->
<g id="edge3" class="edge">
<title>Node1&#45;&gt;Node4</title>
<path fill="none" stroke="midnightblue" d="M254.92,-50.38C241.19,-40.62 223.57,-28.11 211.93,-19.83"/>
<polygon fill="midnightblue" stroke="midnightblue" points="253.11,-53.38 263.29,-56.32 257.16,-47.68 253.11,-53.38"/>
</g>
<!-- Node5 -->
<g id="node5" class="node">
<title>Node5</title>
<g id="a_node5"><a xlink:href="image_8c.html" target="_top" xlink:title=" ">
<polygon fill="white" stroke="black" points="247.5,-0.5 247.5,-19.5 303.5,-19.5 303.5,-0.5 247.5,-0.5"/>
<text text-anchor="middle" x="275.5" y="-7.5" font-family="FreeSans" font-size="10.00">image.c</text>
</a>
</g>
</g>
<!-- Node1&#45;&gt;Node5 -->
<g id="edge4" class="edge">
<title>Node1&#45;&gt;Node5</title>
<path fill="none" stroke="midnightblue" d="M275.5,-45.8C275.5,-36.91 275.5,-26.78 275.5,-19.75"/>
<polygon fill="midnightblue" stroke="midnightblue" points="272,-46.08 275.5,-56.08 279,-46.08 272,-46.08"/>
</g>
<!-- Node6 -->
<g id="node6" class="node">
<title>Node6</title>
<g id="a_node6"><a xlink:href="magick_8c.html" target="_top" xlink:title=" ">
<polygon fill="white" stroke="black" points="322,-0.5 322,-19.5 383,-19.5 383,-0.5 322,-0.5"/>
<text text-anchor="middle" x="352.5" y="-7.5" font-family="FreeSans" font-size="10.00">magick.c</text>
</a>
</g>
</g>
<!-- Node1&#45;&gt;Node6 -->
<g id="edge5" class="edge">
<title>Node1&#45;&gt;Node6</title>
<path fill="none" stroke="midnightblue" d="M296.4,-50.34C310.41,-40.52 328.38,-27.91 340.16,-19.65"/>
<polygon fill="midnightblue" stroke="midnightblue" points="294.05,-47.72 287.87,-56.32 298.07,-53.45 294.05,-47.72"/>
</g>
<!-- Node7 -->
<g id="node7" class="node">
<title>Node7</title>
<g id="a_node7"><a xlink:href="widget_8c.html" target="_top" xlink:title=" ">
<polygon fill="white" stroke="black" points="401.5,-0.5 401.5,-19.5 459.5,-19.5 459.5,-0.5 401.5,-0.5"/>
<text text-anchor="middle" x="430.5" y="-7.5" font-family="FreeSans" font-size="10.00">widget.c</text>
</a>
</g>
</g>
<!-- Node1&#45;&gt;Node7 -->
<g id="edge6" class="edge">
<title>Node1&#45;&gt;Node7</title>
<path fill="none" stroke="midnightblue" d="M309.83,-53.04C339,-42.88 380.14,-28.55 406.05,-19.52"/>
<polygon fill="midnightblue" stroke="midnightblue" points="308.35,-49.85 300.06,-56.44 310.66,-56.46 308.35,-49.85"/>
</g>
<!-- Node8 -->
<g id="node8" class="node">
<title>Node8</title>
<g id="a_node8"><a xlink:href="xwindow_8c.html" target="_top" xlink:title=" ">
<polygon fill="white" stroke="black" points="477.5,-0.5 477.5,-19.5 545.5,-19.5 545.5,-0.5 477.5,-0.5"/>
<text text-anchor="middle" x="511.5" y="-7.5" font-family="FreeSans" font-size="10.00">xwindow.c</text>
</a>
</g>
</g>
<!-- Node1&#45;&gt;Node8 -->
<g id="edge7" class="edge">
<title>Node1&#45;&gt;Node8</title>
<path fill="none" stroke="midnightblue" d="M322.86,-54.16C368.58,-43.7 436.7,-28.12 477.35,-18.82"/>
<polygon fill="midnightblue" stroke="midnightblue" points="321.86,-50.8 312.89,-56.44 323.42,-57.62 321.86,-50.8"/>
</g>
</g>
</svg>
