<?xml version="1.0" encoding="UTF-8" standalone="no"?>
<!DOCTYPE svg PUBLIC "-//W3C//DTD SVG 1.1//EN"
 "http://www.w3.org/Graphics/SVG/1.1/DTD/svg11.dtd">
<!-- Generated by graphviz version 2.43.0 (0)
 -->
<!-- Title: deprecate.h Pages: 1 -->
<svg width="2928pt" height="252pt"
 viewBox="0.00 0.00 2928.20 252.00" xmlns="http://www.w3.org/2000/svg" xmlns:xlink="http://www.w3.org/1999/xlink">
<g id="graph0" class="graph" transform="scale(1 1) rotate(0) translate(4 248)">
<title>deprecate.h</title>
<polygon fill="white" stroke="transparent" points="-4,4 -4,-248 2924.2,-248 2924.2,4 -4,4"/>
<!-- Node1 -->
<g id="node1" class="node">
<title>Node1</title>
<g id="a_node1"><a xlink:title=" ">
<polygon fill="#bfbfbf" stroke="black" points="1296.7,-224.5 1296.7,-243.5 1370.7,-243.5 1370.7,-224.5 1296.7,-224.5"/>
<text text-anchor="middle" x="1333.7" y="-231.5" font-family="FreeSans" font-size="10.00">deprecate.h</text>
</a>
</g>
</g>
<!-- Node2 -->
<g id="node2" class="node">
<title>Node2</title>
<g id="a_node2"><a xlink:href="drawing-wand_8h.html" target="_top" xlink:title=" ">
<polygon fill="white" stroke="black" points="14.7,-56.5 14.7,-75.5 138.7,-75.5 138.7,-56.5 14.7,-56.5"/>
<text text-anchor="middle" x="76.7" y="-63.5" font-family="FreeSans" font-size="10.00">wand/drawing&#45;wand.h</text>
</a>
</g>
</g>
<!-- Node1&#45;&gt;Node2 -->
<g id="edge1" class="edge">
<title>Node1&#45;&gt;Node2</title>
<path fill="none" stroke="midnightblue" d="M1296.42,-228.08C1121.86,-205.02 383.92,-107.57 148.91,-76.54"/>
<polygon fill="midnightblue" stroke="midnightblue" points="149.13,-73.04 138.76,-75.2 148.22,-79.98 149.13,-73.04"/>
</g>
<!-- Node3 -->
<g id="node3" class="node">
<title>Node3</title>
<g id="a_node3"><a xlink:href="pixel-wand_8h.html" target="_top" xlink:title=" ">
<polygon fill="white" stroke="black" points="1261.7,-0.5 1261.7,-19.5 1369.7,-19.5 1369.7,-0.5 1261.7,-0.5"/>
<text text-anchor="middle" x="1315.7" y="-7.5" font-family="FreeSans" font-size="10.00">wand/pixel&#45;wand.h</text>
</a>
</g>
</g>
<!-- Node1&#45;&gt;Node3 -->
<g id="edge36" class="edge">
<title>Node1&#45;&gt;Node3</title>
<path fill="none" stroke="midnightblue" d="M1296.6,-231.09C1072.52,-219.2 -87.79,-152.75 5.7,-56 49.37,-10.8 993.39,-10.1 1251.16,-10.76"/>
<polygon fill="midnightblue" stroke="midnightblue" points="1251.47,-14.26 1261.48,-10.79 1251.49,-7.26 1251.47,-14.26"/>
</g>
<!-- Node4 -->
<g id="node4" class="node">
<title>Node4</title>
<g id="a_node4"><a xlink:href="magick-wand_8h.html" target="_top" xlink:title=" ">
<polygon fill="white" stroke="black" points="1362.2,-168.5 1362.2,-187.5 1483.2,-187.5 1483.2,-168.5 1362.2,-168.5"/>
<text text-anchor="middle" x="1422.7" y="-175.5" font-family="FreeSans" font-size="10.00">wand/magick&#45;wand.h</text>
</a>
</g>
</g>
<!-- Node1&#45;&gt;Node4 -->
<g id="edge3" class="edge">
<title>Node1&#45;&gt;Node4</title>
<path fill="none" stroke="midnightblue" d="M1348,-224.32C1361.88,-215.9 1383.19,-202.97 1399.5,-193.07"/>
<polygon fill="midnightblue" stroke="midnightblue" points="1401.7,-195.83 1408.43,-187.65 1398.07,-189.85 1401.7,-195.83"/>
</g>
<!-- Node28 -->
<g id="node28" class="node">
<title>Node28</title>
<g id="a_node28"><a xlink:href="pixel-iterator_8h.html" target="_top" xlink:title=" ">
<polygon fill="white" stroke="black" points="2803.2,-56.5 2803.2,-75.5 2920.2,-75.5 2920.2,-56.5 2803.2,-56.5"/>
<text text-anchor="middle" x="2861.7" y="-63.5" font-family="FreeSans" font-size="10.00">wand/pixel&#45;iterator.h</text>
</a>
</g>
</g>
<!-- Node1&#45;&gt;Node28 -->
<g id="edge35" class="edge">
<title>Node1&#45;&gt;Node28</title>
<path fill="none" stroke="midnightblue" d="M1370.74,-229.09C1497.72,-215.68 1927.07,-170.28 2281.7,-132 2506.07,-107.78 2564.79,-103.58 2793.16,-76.04"/>
<polygon fill="midnightblue" stroke="midnightblue" points="2793.59,-79.51 2803.1,-74.84 2792.76,-72.57 2793.59,-79.51"/>
</g>
<!-- Node2&#45;&gt;Node3 -->
<g id="edge2" class="edge">
<title>Node2&#45;&gt;Node3</title>
<path fill="none" stroke="midnightblue" d="M139,-56.79C141.94,-56.5 144.85,-56.23 147.7,-56 567.58,-21.37 1074.62,-13.31 1251.29,-11.5"/>
<polygon fill="midnightblue" stroke="midnightblue" points="1251.49,-15 1261.46,-11.4 1251.42,-8 1251.49,-15"/>
</g>
<!-- Node5 -->
<g id="node5" class="node">
<title>Node5</title>
<g id="a_node5"><a xlink:href="MagickWand_8h.html" target="_top" xlink:title=" ">
<polygon fill="white" stroke="black" points="1346.2,-112.5 1346.2,-131.5 1463.2,-131.5 1463.2,-112.5 1346.2,-112.5"/>
<text text-anchor="middle" x="1404.7" y="-119.5" font-family="FreeSans" font-size="10.00">wand/MagickWand.h</text>
</a>
</g>
</g>
<!-- Node4&#45;&gt;Node5 -->
<g id="edge4" class="edge">
<title>Node4&#45;&gt;Node5</title>
<path fill="none" stroke="midnightblue" d="M1419.73,-168.08C1417.31,-160.85 1413.83,-150.41 1410.83,-141.4"/>
<polygon fill="midnightblue" stroke="midnightblue" points="1414.1,-140.13 1407.61,-131.75 1407.46,-142.34 1414.1,-140.13"/>
</g>
<!-- Node5&#45;&gt;Node1 -->
<g id="edge20" class="edge">
<title>Node5&#45;&gt;Node1</title>
<path fill="none" stroke="midnightblue" d="M1390.78,-131.69C1379,-139.73 1362.5,-152.73 1352.7,-168 1343.66,-182.07 1338.8,-200.56 1336.27,-214.22"/>
<polygon fill="midnightblue" stroke="midnightblue" points="1332.77,-213.93 1334.64,-224.36 1339.68,-215.04 1332.77,-213.93"/>
</g>
<!-- Node5&#45;&gt;Node2 -->
<g id="edge22" class="edge">
<title>Node5&#45;&gt;Node2</title>
<path fill="none" stroke="midnightblue" d="M1346,-120.78C1167.65,-119.71 616.19,-113.45 148.98,-76.03"/>
<polygon fill="midnightblue" stroke="midnightblue" points="149.25,-72.54 139,-75.22 148.69,-79.51 149.25,-72.54"/>
</g>
<!-- Node5&#45;&gt;Node3 -->
<g id="edge32" class="edge">
<title>Node5&#45;&gt;Node3</title>
<path fill="none" stroke="midnightblue" d="M1463.28,-120.89C1689.89,-120.19 2498.25,-114.96 2535.7,-76 2541.86,-69.59 2541.87,-62.4 2535.7,-56 2495.32,-14.11 1626.52,-10.97 1380.24,-10.93"/>
<polygon fill="midnightblue" stroke="midnightblue" points="1380.02,-7.43 1370.02,-10.93 1380.02,-14.43 1380.02,-7.43"/>
</g>
<!-- Node6 -->
<g id="node6" class="node">
<title>Node6</title>
<g id="a_node6"><a xlink:title=" ">
<polygon fill="white" stroke="#bfbfbf" points="2582.7,-56.5 2582.7,-75.5 2716.7,-75.5 2716.7,-56.5 2582.7,-56.5"/>
<text text-anchor="middle" x="2649.7" y="-63.5" font-family="FreeSans" font-size="10.00">magick/magick&#45;config.h</text>
</a>
</g>
</g>
<!-- Node5&#45;&gt;Node6 -->
<g id="edge5" class="edge">
<title>Node5&#45;&gt;Node6</title>
<path fill="none" stroke="midnightblue" d="M1463.22,-120.23C1633.84,-117.65 2145.44,-107.65 2568.7,-76 2569.97,-75.91 2571.25,-75.81 2572.54,-75.7"/>
<polygon fill="midnightblue" stroke="midnightblue" points="2572.89,-79.19 2582.55,-74.84 2572.28,-72.21 2572.89,-79.19"/>
</g>
<!-- Node7 -->
<g id="node7" class="node">
<title>Node7</title>
<g id="a_node7"><a xlink:title=" ">
<polygon fill="white" stroke="#bfbfbf" points="2734.7,-56.5 2734.7,-75.5 2784.7,-75.5 2784.7,-56.5 2734.7,-56.5"/>
<text text-anchor="middle" x="2759.7" y="-63.5" font-family="FreeSans" font-size="10.00">stdio.h</text>
</a>
</g>
</g>
<!-- Node5&#45;&gt;Node7 -->
<g id="edge6" class="edge">
<title>Node5&#45;&gt;Node7</title>
<path fill="none" stroke="midnightblue" d="M1463.55,-120.75C1683.37,-119.55 2456.98,-112.85 2724.51,-75.77"/>
<polygon fill="midnightblue" stroke="midnightblue" points="2725.18,-79.21 2734.58,-74.32 2724.18,-72.28 2725.18,-79.21"/>
</g>
<!-- Node8 -->
<g id="node8" class="node">
<title>Node8</title>
<g id="a_node8"><a xlink:title=" ">
<polygon fill="white" stroke="#bfbfbf" points="156.7,-56.5 156.7,-75.5 212.7,-75.5 212.7,-56.5 156.7,-56.5"/>
<text text-anchor="middle" x="184.7" y="-63.5" font-family="FreeSans" font-size="10.00">stdarg.h</text>
</a>
</g>
</g>
<!-- Node5&#45;&gt;Node8 -->
<g id="edge7" class="edge">
<title>Node5&#45;&gt;Node8</title>
<path fill="none" stroke="midnightblue" d="M1346.07,-120.33C1141.94,-117.74 462.19,-107.05 222.9,-75.83"/>
<polygon fill="midnightblue" stroke="midnightblue" points="223.25,-72.34 212.87,-74.47 222.31,-79.28 223.25,-72.34"/>
</g>
<!-- Node9 -->
<g id="node9" class="node">
<title>Node9</title>
<g id="a_node9"><a xlink:title=" ">
<polygon fill="white" stroke="#bfbfbf" points="231.2,-56.5 231.2,-75.5 284.2,-75.5 284.2,-56.5 231.2,-56.5"/>
<text text-anchor="middle" x="257.7" y="-63.5" font-family="FreeSans" font-size="10.00">stdlib.h</text>
</a>
</g>
</g>
<!-- Node5&#45;&gt;Node9 -->
<g id="edge8" class="edge">
<title>Node5&#45;&gt;Node9</title>
<path fill="none" stroke="midnightblue" d="M1346.17,-120.26C1150.37,-117.54 518.43,-106.67 294.37,-75.9"/>
<polygon fill="midnightblue" stroke="midnightblue" points="294.73,-72.42 284.33,-74.47 293.74,-79.35 294.73,-72.42"/>
</g>
<!-- Node10 -->
<g id="node10" class="node">
<title>Node10</title>
<g id="a_node10"><a xlink:title=" ">
<polygon fill="white" stroke="#bfbfbf" points="302.2,-56.5 302.2,-75.5 355.2,-75.5 355.2,-56.5 302.2,-56.5"/>
<text text-anchor="middle" x="328.7" y="-63.5" font-family="FreeSans" font-size="10.00">stdint.h</text>
</a>
</g>
</g>
<!-- Node5&#45;&gt;Node10 -->
<g id="edge9" class="edge">
<title>Node5&#45;&gt;Node10</title>
<path fill="none" stroke="midnightblue" d="M1345.96,-120.07C1158.43,-116.86 574.61,-104.86 365.31,-75.9"/>
<polygon fill="midnightblue" stroke="midnightblue" points="365.73,-72.42 355.33,-74.46 364.73,-79.35 365.73,-72.42"/>
</g>
<!-- Node11 -->
<g id="node11" class="node">
<title>Node11</title>
<g id="a_node11"><a xlink:title=" ">
<polygon fill="white" stroke="#bfbfbf" points="373.2,-56.5 373.2,-75.5 424.2,-75.5 424.2,-56.5 373.2,-56.5"/>
<text text-anchor="middle" x="398.7" y="-63.5" font-family="FreeSans" font-size="10.00">math.h</text>
</a>
</g>
</g>
<!-- Node5&#45;&gt;Node11 -->
<g id="edge10" class="edge">
<title>Node5&#45;&gt;Node11</title>
<path fill="none" stroke="midnightblue" d="M1346.12,-119.86C1167.5,-116.15 630.55,-103.12 434.75,-75.77"/>
<polygon fill="midnightblue" stroke="midnightblue" points="434.97,-72.26 424.57,-74.28 433.96,-79.19 434.97,-72.26"/>
</g>
<!-- Node12 -->
<g id="node12" class="node">
<title>Node12</title>
<g id="a_node12"><a xlink:title=" ">
<polygon fill="white" stroke="#bfbfbf" points="442.7,-56.5 442.7,-75.5 514.7,-75.5 514.7,-56.5 442.7,-56.5"/>
<text text-anchor="middle" x="478.7" y="-63.5" font-family="FreeSans" font-size="10.00">sys/types.h</text>
</a>
</g>
</g>
<!-- Node5&#45;&gt;Node12 -->
<g id="edge11" class="edge">
<title>Node5&#45;&gt;Node12</title>
<path fill="none" stroke="midnightblue" d="M1346.19,-120.96C1206.01,-120.24 839.8,-114.59 525.2,-76"/>
<polygon fill="midnightblue" stroke="midnightblue" points="525.33,-72.49 514.97,-74.73 524.47,-79.43 525.33,-72.49"/>
</g>
<!-- Node13 -->
<g id="node13" class="node">
<title>Node13</title>
<g id="a_node13"><a xlink:title=" ">
<polygon fill="white" stroke="#bfbfbf" points="532.7,-56.5 532.7,-75.5 580.7,-75.5 580.7,-56.5 532.7,-56.5"/>
<text text-anchor="middle" x="556.7" y="-63.5" font-family="FreeSans" font-size="10.00">time.h</text>
</a>
</g>
</g>
<!-- Node5&#45;&gt;Node13 -->
<g id="edge12" class="edge">
<title>Node5&#45;&gt;Node13</title>
<path fill="none" stroke="midnightblue" d="M1346,-119.37C1187.74,-114.72 753.82,-100.25 590.61,-75.73"/>
<polygon fill="midnightblue" stroke="midnightblue" points="591.14,-72.27 580.72,-74.18 590.06,-79.19 591.14,-72.27"/>
</g>
<!-- Node14 -->
<g id="node14" class="node">
<title>Node14</title>
<g id="a_node14"><a xlink:href="method-attribute_8h.html" target="_top" xlink:title=" ">
<polygon fill="white" stroke="black" points="598.7,-56.5 598.7,-75.5 736.7,-75.5 736.7,-56.5 598.7,-56.5"/>
<text text-anchor="middle" x="667.7" y="-63.5" font-family="FreeSans" font-size="10.00">wand/method&#45;attribute.h</text>
</a>
</g>
</g>
<!-- Node5&#45;&gt;Node14 -->
<g id="edge13" class="edge">
<title>Node5&#45;&gt;Node14</title>
<path fill="none" stroke="midnightblue" d="M1346,-117.91C1232.46,-111.74 974.65,-96.76 747.13,-76.09"/>
<polygon fill="midnightblue" stroke="midnightblue" points="747.28,-72.59 737,-75.17 746.64,-79.56 747.28,-72.59"/>
</g>
<!-- Node15 -->
<g id="node15" class="node">
<title>Node15</title>
<g id="a_node15"><a xlink:title=" ">
<polygon fill="white" stroke="#bfbfbf" points="754.7,-56.5 754.7,-75.5 876.7,-75.5 876.7,-56.5 754.7,-56.5"/>
<text text-anchor="middle" x="815.7" y="-63.5" font-family="FreeSans" font-size="10.00">magick/MagickCore.h</text>
</a>
</g>
</g>
<!-- Node5&#45;&gt;Node15 -->
<g id="edge14" class="edge">
<title>Node5&#45;&gt;Node15</title>
<path fill="none" stroke="midnightblue" d="M1345.86,-116.7C1251.38,-109.61 1059.76,-94.51 886.81,-76.08"/>
<polygon fill="midnightblue" stroke="midnightblue" points="887.08,-72.59 876.76,-75 886.33,-79.55 887.08,-72.59"/>
</g>
<!-- Node16 -->
<g id="node16" class="node">
<title>Node16</title>
<g id="a_node16"><a xlink:href="animate_8h.html" target="_top" xlink:title=" ">
<polygon fill="white" stroke="black" points="895.2,-56.5 895.2,-75.5 990.2,-75.5 990.2,-56.5 895.2,-56.5"/>
<text text-anchor="middle" x="942.7" y="-63.5" font-family="FreeSans" font-size="10.00">wand/animate.h</text>
</a>
</g>
</g>
<!-- Node5&#45;&gt;Node16 -->
<g id="edge15" class="edge">
<title>Node5&#45;&gt;Node16</title>
<path fill="none" stroke="midnightblue" d="M1345.91,-115.32C1269.02,-107.71 1129.87,-93.27 1000.36,-76.03"/>
<polygon fill="midnightblue" stroke="midnightblue" points="1000.64,-72.54 990.26,-74.68 999.71,-79.47 1000.64,-72.54"/>
</g>
<!-- Node17 -->
<g id="node17" class="node">
<title>Node17</title>
<g id="a_node17"><a xlink:href="compare_8h.html" target="_top" xlink:title=" ">
<polygon fill="white" stroke="black" points="1008.7,-56.5 1008.7,-75.5 1106.7,-75.5 1106.7,-56.5 1008.7,-56.5"/>
<text text-anchor="middle" x="1057.7" y="-63.5" font-family="FreeSans" font-size="10.00">wand/compare.h</text>
</a>
</g>
</g>
<!-- Node5&#45;&gt;Node17 -->
<g id="edge16" class="edge">
<title>Node5&#45;&gt;Node17</title>
<path fill="none" stroke="midnightblue" d="M1349.71,-112.44C1286.23,-102.56 1182.18,-86.37 1116.94,-76.22"/>
<polygon fill="midnightblue" stroke="midnightblue" points="1117.23,-72.72 1106.81,-74.64 1116.16,-79.64 1117.23,-72.72"/>
</g>
<!-- Node18 -->
<g id="node18" class="node">
<title>Node18</title>
<g id="a_node18"><a xlink:href="composite_8h.html" target="_top" xlink:title=" ">
<polygon fill="white" stroke="black" points="1124.7,-56.5 1124.7,-75.5 1230.7,-75.5 1230.7,-56.5 1124.7,-56.5"/>
<text text-anchor="middle" x="1177.7" y="-63.5" font-family="FreeSans" font-size="10.00">wand/composite.h</text>
</a>
</g>
</g>
<!-- Node5&#45;&gt;Node18 -->
<g id="edge17" class="edge">
<title>Node5&#45;&gt;Node18</title>
<path fill="none" stroke="midnightblue" d="M1368.73,-112.44C1329.38,-103.08 1266.21,-88.06 1223.38,-77.87"/>
<polygon fill="midnightblue" stroke="midnightblue" points="1224.04,-74.43 1213.5,-75.52 1222.42,-81.24 1224.04,-74.43"/>
</g>
<!-- Node19 -->
<g id="node19" class="node">
<title>Node19</title>
<g id="a_node19"><a xlink:href="conjure_8h.html" target="_top" xlink:title=" ">
<polygon fill="white" stroke="black" points="1249.2,-56.5 1249.2,-75.5 1340.2,-75.5 1340.2,-56.5 1249.2,-56.5"/>
<text text-anchor="middle" x="1294.7" y="-63.5" font-family="FreeSans" font-size="10.00">wand/conjure.h</text>
</a>
</g>
</g>
<!-- Node5&#45;&gt;Node19 -->
<g id="edge18" class="edge">
<title>Node5&#45;&gt;Node19</title>
<path fill="none" stroke="midnightblue" d="M1387.02,-112.32C1369.3,-103.62 1341.79,-90.12 1321.41,-80.11"/>
<polygon fill="midnightblue" stroke="midnightblue" points="1322.85,-76.92 1312.33,-75.65 1319.76,-83.2 1322.85,-76.92"/>
</g>
<!-- Node20 -->
<g id="node20" class="node">
<title>Node20</title>
<g id="a_node20"><a xlink:href="convert_8h.html" target="_top" xlink:title=" ">
<polygon fill="white" stroke="black" points="1358.7,-56.5 1358.7,-75.5 1450.7,-75.5 1450.7,-56.5 1358.7,-56.5"/>
<text text-anchor="middle" x="1404.7" y="-63.5" font-family="FreeSans" font-size="10.00">wand/convert.h</text>
</a>
</g>
</g>
<!-- Node5&#45;&gt;Node20 -->
<g id="edge19" class="edge">
<title>Node5&#45;&gt;Node20</title>
<path fill="none" stroke="midnightblue" d="M1404.7,-112.08C1404.7,-105.01 1404.7,-94.86 1404.7,-85.99"/>
<polygon fill="midnightblue" stroke="midnightblue" points="1408.2,-85.75 1404.7,-75.75 1401.2,-85.75 1408.2,-85.75"/>
</g>
<!-- Node21 -->
<g id="node21" class="node">
<title>Node21</title>
<g id="a_node21"><a xlink:href="display_8h.html" target="_top" xlink:title=" ">
<polygon fill="white" stroke="black" points="1469.2,-56.5 1469.2,-75.5 1558.2,-75.5 1558.2,-56.5 1469.2,-56.5"/>
<text text-anchor="middle" x="1513.7" y="-63.5" font-family="FreeSans" font-size="10.00">wand/display.h</text>
</a>
</g>
</g>
<!-- Node5&#45;&gt;Node21 -->
<g id="edge21" class="edge">
<title>Node5&#45;&gt;Node21</title>
<path fill="none" stroke="midnightblue" d="M1422.21,-112.32C1439.77,-103.62 1467.03,-90.12 1487.23,-80.11"/>
<polygon fill="midnightblue" stroke="midnightblue" points="1488.82,-83.23 1496.23,-75.65 1485.71,-76.96 1488.82,-83.23"/>
</g>
<!-- Node22 -->
<g id="node22" class="node">
<title>Node22</title>
<g id="a_node22"><a xlink:href="identify_8h.html" target="_top" xlink:title=" ">
<polygon fill="white" stroke="black" points="1576.7,-56.5 1576.7,-75.5 1666.7,-75.5 1666.7,-56.5 1576.7,-56.5"/>
<text text-anchor="middle" x="1621.7" y="-63.5" font-family="FreeSans" font-size="10.00">wand/identify.h</text>
</a>
</g>
</g>
<!-- Node5&#45;&gt;Node22 -->
<g id="edge23" class="edge">
<title>Node5&#45;&gt;Node22</title>
<path fill="none" stroke="midnightblue" d="M1439.08,-112.44C1476.62,-103.1 1536.83,-88.12 1577.76,-77.93"/>
<polygon fill="midnightblue" stroke="midnightblue" points="1578.62,-81.33 1587.47,-75.52 1576.92,-74.53 1578.62,-81.33"/>
</g>
<!-- Node23 -->
<g id="node23" class="node">
<title>Node23</title>
<g id="a_node23"><a xlink:href="import_8h.html" target="_top" xlink:title=" ">
<polygon fill="white" stroke="black" points="1685.2,-56.5 1685.2,-75.5 1772.2,-75.5 1772.2,-56.5 1685.2,-56.5"/>
<text text-anchor="middle" x="1728.7" y="-63.5" font-family="FreeSans" font-size="10.00">wand/import.h</text>
</a>
</g>
</g>
<!-- Node5&#45;&gt;Node23 -->
<g id="edge24" class="edge">
<title>Node5&#45;&gt;Node23</title>
<path fill="none" stroke="midnightblue" d="M1456.41,-112.47C1508.82,-103.81 1592.53,-89.95 1674.98,-76.12"/>
<polygon fill="midnightblue" stroke="midnightblue" points="1675.74,-79.54 1685.03,-74.43 1674.59,-72.63 1675.74,-79.54"/>
</g>
<!-- Node24 -->
<g id="node24" class="node">
<title>Node24</title>
<g id="a_node24"><a xlink:href="magick-property_8h.html" target="_top" xlink:title=" ">
<polygon fill="white" stroke="black" points="1790.7,-56.5 1790.7,-75.5 1924.7,-75.5 1924.7,-56.5 1790.7,-56.5"/>
<text text-anchor="middle" x="1857.7" y="-63.5" font-family="FreeSans" font-size="10.00">wand/magick&#45;property.h</text>
</a>
</g>
</g>
<!-- Node5&#45;&gt;Node24 -->
<g id="edge25" class="edge">
<title>Node5&#45;&gt;Node24</title>
<path fill="none" stroke="midnightblue" d="M1463.46,-114C1544.48,-104.34 1690.66,-86.91 1780.45,-76.21"/>
<polygon fill="midnightblue" stroke="midnightblue" points="1781.05,-79.66 1790.57,-75 1780.23,-72.71 1781.05,-79.66"/>
</g>
<!-- Node25 -->
<g id="node25" class="node">
<title>Node25</title>
<g id="a_node25"><a xlink:href="magick-image_8h.html" target="_top" xlink:title=" ">
<polygon fill="white" stroke="black" points="1943.2,-56.5 1943.2,-75.5 2068.2,-75.5 2068.2,-56.5 1943.2,-56.5"/>
<text text-anchor="middle" x="2005.7" y="-63.5" font-family="FreeSans" font-size="10.00">wand/magick&#45;image.h</text>
</a>
</g>
</g>
<!-- Node5&#45;&gt;Node25 -->
<g id="edge26" class="edge">
<title>Node5&#45;&gt;Node25</title>
<path fill="none" stroke="midnightblue" d="M1463.48,-116.76C1559.39,-109.68 1755.73,-94.48 1932.86,-76.05"/>
<polygon fill="midnightblue" stroke="midnightblue" points="1933.3,-79.52 1942.89,-75 1932.58,-72.56 1933.3,-79.52"/>
</g>
<!-- Node26 -->
<g id="node26" class="node">
<title>Node26</title>
<g id="a_node26"><a xlink:href="mogrify_8h.html" target="_top" xlink:title=" ">
<polygon fill="white" stroke="black" points="2086.2,-56.5 2086.2,-75.5 2177.2,-75.5 2177.2,-56.5 2086.2,-56.5"/>
<text text-anchor="middle" x="2131.7" y="-63.5" font-family="FreeSans" font-size="10.00">wand/mogrify.h</text>
</a>
</g>
</g>
<!-- Node5&#45;&gt;Node26 -->
<g id="edge27" class="edge">
<title>Node5&#45;&gt;Node26</title>
<path fill="none" stroke="midnightblue" d="M1463.39,-119.02C1578.86,-114.7 1843.82,-102.7 2076.09,-76.08"/>
<polygon fill="midnightblue" stroke="midnightblue" points="2076.55,-79.55 2086.08,-74.93 2075.74,-72.6 2076.55,-79.55"/>
</g>
<!-- Node27 -->
<g id="node27" class="node">
<title>Node27</title>
<g id="a_node27"><a xlink:href="montage_8h.html" target="_top" xlink:title=" ">
<polygon fill="white" stroke="black" points="2195.7,-56.5 2195.7,-75.5 2293.7,-75.5 2293.7,-56.5 2195.7,-56.5"/>
<text text-anchor="middle" x="2244.7" y="-63.5" font-family="FreeSans" font-size="10.00">wand/montage.h</text>
</a>
</g>
</g>
<!-- Node5&#45;&gt;Node27 -->
<g id="edge28" class="edge">
<title>Node5&#45;&gt;Node27</title>
<path fill="none" stroke="midnightblue" d="M1463.22,-119.56C1591.92,-115.98 1909.38,-104.87 2185.48,-76.02"/>
<polygon fill="midnightblue" stroke="midnightblue" points="2186.12,-79.47 2195.69,-74.94 2185.38,-72.51 2186.12,-79.47"/>
</g>
<!-- Node5&#45;&gt;Node28 -->
<g id="edge29" class="edge">
<title>Node5&#45;&gt;Node28</title>
<path fill="none" stroke="midnightblue" d="M1463.37,-121.18C1653.74,-121.32 2271.5,-118.3 2793.15,-75.94"/>
<polygon fill="midnightblue" stroke="midnightblue" points="2793.45,-79.43 2803.13,-75.13 2792.88,-72.45 2793.45,-79.43"/>
</g>
<!-- Node29 -->
<g id="node29" class="node">
<title>Node29</title>
<g id="a_node29"><a xlink:href="stream_8h.html" target="_top" xlink:title=" ">
<polygon fill="white" stroke="black" points="2312.2,-56.5 2312.2,-75.5 2401.2,-75.5 2401.2,-56.5 2312.2,-56.5"/>
<text text-anchor="middle" x="2356.7" y="-63.5" font-family="FreeSans" font-size="10.00">wand/stream.h</text>
</a>
</g>
</g>
<!-- Node5&#45;&gt;Node29 -->
<g id="edge33" class="edge">
<title>Node5&#45;&gt;Node29</title>
<path fill="none" stroke="midnightblue" d="M1463.45,-120.39C1605.65,-118.42 1979.68,-110.22 2301.96,-75.94"/>
<polygon fill="midnightblue" stroke="midnightblue" points="2302.39,-79.41 2311.96,-74.86 2301.65,-72.45 2302.39,-79.41"/>
</g>
<!-- Node30 -->
<g id="node30" class="node">
<title>Node30</title>
<g id="a_node30"><a xlink:href="wand-view_8h.html" target="_top" xlink:title=" ">
<polygon fill="white" stroke="black" points="2419.2,-56.5 2419.2,-75.5 2526.2,-75.5 2526.2,-56.5 2419.2,-56.5"/>
<text text-anchor="middle" x="2472.7" y="-63.5" font-family="FreeSans" font-size="10.00">wand/wand&#45;view.h</text>
</a>
</g>
</g>
<!-- Node5&#45;&gt;Node30 -->
<g id="edge34" class="edge">
<title>Node5&#45;&gt;Node30</title>
<path fill="none" stroke="midnightblue" d="M1463.24,-120.41C1616.79,-118.44 2043.91,-110.15 2409,-76.07"/>
<polygon fill="midnightblue" stroke="midnightblue" points="2409.34,-79.55 2418.97,-75.13 2408.68,-72.59 2409.34,-79.55"/>
</g>
<!-- Node28&#45;&gt;Node3 -->
<g id="edge31" class="edge">
<title>Node28&#45;&gt;Node3</title>
<path fill="none" stroke="midnightblue" d="M2803.13,-56.87C2799.94,-56.54 2796.78,-56.25 2793.7,-56 2247.98,-11.69 1585.72,-9.98 1379.86,-10.64"/>
<polygon fill="midnightblue" stroke="midnightblue" points="1379.82,-7.14 1369.83,-10.67 1379.84,-14.14 1379.82,-7.14"/>
</g>
<!-- Node28&#45;&gt;Node4 -->
<g id="edge30" class="edge">
<title>Node28&#45;&gt;Node4</title>
<path fill="none" stroke="midnightblue" d="M2803.12,-74.97C2799.93,-75.34 2796.78,-75.68 2793.7,-76 2296.94,-127.13 1696.34,-162.15 1493.5,-173.24"/>
<polygon fill="midnightblue" stroke="midnightblue" points="1493.08,-169.76 1483.28,-173.8 1493.46,-176.75 1493.08,-169.76"/>
</g>
</g>
</svg>
