<?xml version="1.0" encoding="UTF-8" standalone="no"?>
<!DOCTYPE svg PUBLIC "-//W3C//DTD SVG 1.1//EN"
 "http://www.w3.org/Graphics/SVG/1.1/DTD/svg11.dtd">
<!-- Generated by graphviz version 2.43.0 (0)
 -->
<!-- Title: deprecate.h Pages: 1 -->
<svg width="1855pt" height="252pt"
 viewBox="0.00 0.00 1855.40 252.00" xmlns="http://www.w3.org/2000/svg" xmlns:xlink="http://www.w3.org/1999/xlink">
<g id="graph0" class="graph" transform="scale(1 1) rotate(0) translate(4 248)">
<title>deprecate.h</title>
<polygon fill="white" stroke="transparent" points="-4,4 -4,-248 1851.4,-248 1851.4,4 -4,4"/>
<!-- Node1 -->
<g id="node1" class="node">
<title>Node1</title>
<g id="a_node1"><a xlink:title=" ">
<polygon fill="#bfbfbf" stroke="black" points="1689.4,-224.5 1689.4,-243.5 1763.4,-243.5 1763.4,-224.5 1689.4,-224.5"/>
<text text-anchor="middle" x="1726.4" y="-231.5" font-family="FreeSans" font-size="10.00">deprecate.h</text>
</a>
</g>
</g>
<!-- Node2 -->
<g id="node2" class="node">
<title>Node2</title>
<g id="a_node2"><a xlink:href="MagickWand_8h.html" target="_top" xlink:title=" ">
<polygon fill="white" stroke="black" points="982.4,-168.5 982.4,-187.5 1070.4,-187.5 1070.4,-168.5 982.4,-168.5"/>
<text text-anchor="middle" x="1026.4" y="-175.5" font-family="FreeSans" font-size="10.00">MagickWand.h</text>
</a>
</g>
</g>
<!-- Node1&#45;&gt;Node2 -->
<g id="edge1" class="edge">
<title>Node1&#45;&gt;Node2</title>
<path fill="none" stroke="midnightblue" d="M1678.94,-229.34C1550.13,-219.4 1195.28,-192.03 1070.49,-182.4"/>
<polygon fill="midnightblue" stroke="midnightblue" points="1679.02,-232.86 1689.26,-230.13 1679.55,-225.88 1679.02,-232.86"/>
</g>
<!-- Node3 -->
<g id="node3" class="node">
<title>Node3</title>
<g id="a_node3"><a xlink:href="animate_8c.html" target="_top" xlink:title=" ">
<polygon fill="white" stroke="black" points="873.9,-56.5 873.9,-75.5 938.9,-75.5 938.9,-56.5 873.9,-56.5"/>
<text text-anchor="middle" x="906.4" y="-63.5" font-family="FreeSans" font-size="10.00">animate.c</text>
</a>
</g>
</g>
<!-- Node2&#45;&gt;Node3 -->
<g id="edge2" class="edge">
<title>Node2&#45;&gt;Node3</title>
<path fill="none" stroke="midnightblue" d="M983.71,-165.11C965.22,-158.09 944.61,-147.47 930.4,-132 915.42,-115.7 909.57,-89.25 907.47,-75.66"/>
<polygon fill="midnightblue" stroke="midnightblue" points="982.54,-168.41 993.14,-168.46 984.89,-161.81 982.54,-168.41"/>
</g>
<!-- Node4 -->
<g id="node4" class="node">
<title>Node4</title>
<g id="a_node4"><a xlink:href="compare_8c.html" target="_top" xlink:title=" ">
<polygon fill="white" stroke="black" points="995.4,-56.5 995.4,-75.5 1063.4,-75.5 1063.4,-56.5 995.4,-56.5"/>
<text text-anchor="middle" x="1029.4" y="-63.5" font-family="FreeSans" font-size="10.00">compare.c</text>
</a>
</g>
</g>
<!-- Node2&#45;&gt;Node4 -->
<g id="edge3" class="edge">
<title>Node2&#45;&gt;Node4</title>
<path fill="none" stroke="midnightblue" d="M1026.91,-158.35C1027.56,-134.25 1028.68,-93.31 1029.16,-75.59"/>
<polygon fill="midnightblue" stroke="midnightblue" points="1023.41,-158.28 1026.63,-168.37 1030.4,-158.47 1023.41,-158.28"/>
</g>
<!-- Node5 -->
<g id="node5" class="node">
<title>Node5</title>
<g id="a_node5"><a xlink:href="composite_8c.html" target="_top" xlink:title=" ">
<polygon fill="white" stroke="black" points="1585.4,-56.5 1585.4,-75.5 1661.4,-75.5 1661.4,-56.5 1585.4,-56.5"/>
<text text-anchor="middle" x="1623.4" y="-63.5" font-family="FreeSans" font-size="10.00">composite.c</text>
</a>
</g>
</g>
<!-- Node2&#45;&gt;Node5 -->
<g id="edge4" class="edge">
<title>Node2&#45;&gt;Node5</title>
<path fill="none" stroke="midnightblue" d="M1080.73,-173.14C1153.41,-167.35 1286.04,-154.62 1397.4,-132 1471.81,-116.89 1557.4,-89.42 1598.64,-75.53"/>
<polygon fill="midnightblue" stroke="midnightblue" points="1080.15,-169.67 1070.45,-173.94 1080.69,-176.65 1080.15,-169.67"/>
</g>
<!-- Node6 -->
<g id="node6" class="node">
<title>Node6</title>
<g id="a_node6"><a xlink:href="conjure_8c.html" target="_top" xlink:title=" ">
<polygon fill="white" stroke="black" points="1679.9,-56.5 1679.9,-75.5 1740.9,-75.5 1740.9,-56.5 1679.9,-56.5"/>
<text text-anchor="middle" x="1710.4" y="-63.5" font-family="FreeSans" font-size="10.00">conjure.c</text>
</a>
</g>
</g>
<!-- Node2&#45;&gt;Node6 -->
<g id="edge5" class="edge">
<title>Node2&#45;&gt;Node6</title>
<path fill="none" stroke="midnightblue" d="M1080.53,-173.75C1161.77,-168.31 1319.86,-155.57 1452.4,-132 1536.99,-116.95 1634.85,-89.46 1682.05,-75.55"/>
<polygon fill="midnightblue" stroke="midnightblue" points="1080.28,-170.25 1070.53,-174.4 1080.74,-177.24 1080.28,-170.25"/>
</g>
<!-- Node7 -->
<g id="node7" class="node">
<title>Node7</title>
<g id="a_node7"><a xlink:href="convert_8c.html" target="_top" xlink:title=" ">
<polygon fill="white" stroke="black" points="13.4,-56.5 13.4,-75.5 75.4,-75.5 75.4,-56.5 13.4,-56.5"/>
<text text-anchor="middle" x="44.4" y="-63.5" font-family="FreeSans" font-size="10.00">convert.c</text>
</a>
</g>
</g>
<!-- Node2&#45;&gt;Node7 -->
<g id="edge6" class="edge">
<title>Node2&#45;&gt;Node7</title>
<path fill="none" stroke="midnightblue" d="M972.06,-177.56C848.48,-177.98 537.28,-174.35 281.4,-132 202.26,-118.9 111.54,-89.99 68.93,-75.55"/>
<polygon fill="midnightblue" stroke="midnightblue" points="972.39,-181.05 982.38,-177.51 972.36,-174.05 972.39,-181.05"/>
</g>
<!-- Node8 -->
<g id="node8" class="node">
<title>Node8</title>
<g id="a_node8"><a xlink:href="deprecate_8c.html" target="_top" xlink:title=" ">
<polygon fill="white" stroke="black" points="93.4,-56.5 93.4,-75.5 167.4,-75.5 167.4,-56.5 93.4,-56.5"/>
<text text-anchor="middle" x="130.4" y="-63.5" font-family="FreeSans" font-size="10.00">deprecate.c</text>
</a>
</g>
</g>
<!-- Node2&#45;&gt;Node8 -->
<g id="edge7" class="edge">
<title>Node2&#45;&gt;Node8</title>
<path fill="none" stroke="midnightblue" d="M971.94,-176.8C859.24,-175.62 592.56,-168.78 372.4,-132 291.94,-118.56 199.52,-89.94 155.82,-75.58"/>
<polygon fill="midnightblue" stroke="midnightblue" points="972,-180.3 982.04,-176.9 972.07,-173.3 972,-180.3"/>
</g>
<!-- Node9 -->
<g id="node9" class="node">
<title>Node9</title>
<g id="a_node9"><a xlink:href="display_8c.html" target="_top" xlink:title=" ">
<polygon fill="white" stroke="black" points="185.9,-56.5 185.9,-75.5 244.9,-75.5 244.9,-56.5 185.9,-56.5"/>
<text text-anchor="middle" x="215.4" y="-63.5" font-family="FreeSans" font-size="10.00">display.c</text>
</a>
</g>
</g>
<!-- Node2&#45;&gt;Node9 -->
<g id="edge8" class="edge">
<title>Node2&#45;&gt;Node9</title>
<path fill="none" stroke="midnightblue" d="M971.94,-175.75C871.39,-172.75 650.1,-162.93 466.4,-132 383.39,-118.03 287.72,-89.78 242.18,-75.58"/>
<polygon fill="midnightblue" stroke="midnightblue" points="972.06,-179.26 982.15,-176.04 972.26,-172.26 972.06,-179.26"/>
</g>
<!-- Node10 -->
<g id="node10" class="node">
<title>Node10</title>
<g id="a_node10"><a xlink:href="drawing-wand_8c.html" target="_top" xlink:title=" ">
<polygon fill="white" stroke="black" points="263.4,-56.5 263.4,-75.5 357.4,-75.5 357.4,-56.5 263.4,-56.5"/>
<text text-anchor="middle" x="310.4" y="-63.5" font-family="FreeSans" font-size="10.00">drawing&#45;wand.c</text>
</a>
</g>
</g>
<!-- Node2&#45;&gt;Node10 -->
<g id="edge9" class="edge">
<title>Node2&#45;&gt;Node10</title>
<path fill="none" stroke="midnightblue" d="M972.09,-174.58C884.61,-170.05 707.36,-158.27 559.4,-132 477.36,-117.43 382.7,-89.59 337.35,-75.55"/>
<polygon fill="midnightblue" stroke="midnightblue" points="972.14,-178.08 982.3,-175.09 972.49,-171.09 972.14,-178.08"/>
</g>
<!-- Node11 -->
<g id="node11" class="node">
<title>Node11</title>
<g id="a_node11"><a xlink:href="identify_8c.html" target="_top" xlink:title=" ">
<polygon fill="white" stroke="black" points="375.4,-56.5 375.4,-75.5 435.4,-75.5 435.4,-56.5 375.4,-56.5"/>
<text text-anchor="middle" x="405.4" y="-63.5" font-family="FreeSans" font-size="10.00">identify.c</text>
</a>
</g>
</g>
<!-- Node2&#45;&gt;Node11 -->
<g id="edge10" class="edge">
<title>Node2&#45;&gt;Node11</title>
<path fill="none" stroke="midnightblue" d="M971.85,-172.85C898.53,-166.72 764.35,-153.59 651.4,-132 570.91,-116.61 477.9,-89.4 432.78,-75.57"/>
<polygon fill="midnightblue" stroke="midnightblue" points="971.96,-176.37 982.21,-173.7 972.54,-169.39 971.96,-176.37"/>
</g>
<!-- Node12 -->
<g id="node12" class="node">
<title>Node12</title>
<g id="a_node12"><a xlink:href="import_8c.html" target="_top" xlink:title=" ">
<polygon fill="white" stroke="black" points="453.9,-56.5 453.9,-75.5 510.9,-75.5 510.9,-56.5 453.9,-56.5"/>
<text text-anchor="middle" x="482.4" y="-63.5" font-family="FreeSans" font-size="10.00">import.c</text>
</a>
</g>
</g>
<!-- Node2&#45;&gt;Node12 -->
<g id="edge11" class="edge">
<title>Node2&#45;&gt;Node12</title>
<path fill="none" stroke="midnightblue" d="M972.08,-169.95C914.36,-162.11 820.54,-148.36 740.4,-132 656.44,-114.86 558.69,-88.43 511.22,-75.17"/>
<polygon fill="midnightblue" stroke="midnightblue" points="971.7,-173.43 982.08,-171.3 972.64,-166.49 971.7,-173.43"/>
</g>
<!-- Node13 -->
<g id="node13" class="node">
<title>Node13</title>
<g id="a_node13"><a xlink:href="magick-image_8c.html" target="_top" xlink:title=" ">
<polygon fill="white" stroke="black" points="528.9,-56.5 528.9,-75.5 623.9,-75.5 623.9,-56.5 528.9,-56.5"/>
<text text-anchor="middle" x="576.4" y="-63.5" font-family="FreeSans" font-size="10.00">magick&#45;image.c</text>
</a>
</g>
</g>
<!-- Node2&#45;&gt;Node13 -->
<g id="edge12" class="edge">
<title>Node2&#45;&gt;Node13</title>
<path fill="none" stroke="midnightblue" d="M973.35,-166.45C930.78,-157.79 869.57,-144.89 816.4,-132 740.04,-113.49 650.95,-88.45 605.82,-75.51"/>
<polygon fill="midnightblue" stroke="midnightblue" points="972.71,-169.89 983.21,-168.45 974.1,-163.03 972.71,-169.89"/>
</g>
<!-- Node14 -->
<g id="node14" class="node">
<title>Node14</title>
<g id="a_node14"><a xlink:href="magick-property_8c.html" target="_top" xlink:title=" ">
<polygon fill="white" stroke="black" points="642.4,-56.5 642.4,-75.5 746.4,-75.5 746.4,-56.5 642.4,-56.5"/>
<text text-anchor="middle" x="694.4" y="-63.5" font-family="FreeSans" font-size="10.00">magick&#45;property.c</text>
</a>
</g>
</g>
<!-- Node2&#45;&gt;Node14 -->
<g id="edge13" class="edge">
<title>Node2&#45;&gt;Node14</title>
<path fill="none" stroke="midnightblue" d="M986.02,-165.62C955.5,-156.87 912.64,-144.23 875.4,-132 817.82,-113.1 750.9,-88.33 716.83,-75.51"/>
<polygon fill="midnightblue" stroke="midnightblue" points="985.3,-169.06 995.88,-168.44 987.22,-162.33 985.3,-169.06"/>
</g>
<!-- Node15 -->
<g id="node15" class="node">
<title>Node15</title>
<g id="a_node15"><a xlink:href="magick-wand_8c.html" target="_top" xlink:title=" ">
<polygon fill="white" stroke="black" points="764.9,-56.5 764.9,-75.5 855.9,-75.5 855.9,-56.5 764.9,-56.5"/>
<text text-anchor="middle" x="810.4" y="-63.5" font-family="FreeSans" font-size="10.00">magick&#45;wand.c</text>
</a>
</g>
</g>
<!-- Node2&#45;&gt;Node15 -->
<g id="edge14" class="edge">
<title>Node2&#45;&gt;Node15</title>
<path fill="none" stroke="midnightblue" d="M991.9,-164.94C969.39,-156.64 939.62,-144.82 914.4,-132 879.66,-114.34 841.44,-88.71 822.47,-75.53"/>
<polygon fill="midnightblue" stroke="midnightblue" points="990.78,-168.26 1001.37,-168.39 993.17,-161.68 990.78,-168.26"/>
</g>
<!-- Node16 -->
<g id="node16" class="node">
<title>Node16</title>
<g id="a_node16"><a xlink:href="magick-wand_8h.html" target="_top" xlink:title=" ">
<polygon fill="white" stroke="black" points="1680.4,-112.5 1680.4,-131.5 1772.4,-131.5 1772.4,-112.5 1680.4,-112.5"/>
<text text-anchor="middle" x="1726.4" y="-119.5" font-family="FreeSans" font-size="10.00">magick&#45;wand.h</text>
</a>
</g>
</g>
<!-- Node2&#45;&gt;Node16 -->
<g id="edge15" class="edge">
<title>Node2&#45;&gt;Node16</title>
<path fill="none" stroke="midnightblue" d="M1080.7,-174.47C1190.82,-169.06 1448.2,-154.94 1663.4,-132 1668.89,-131.41 1674.64,-130.71 1680.34,-129.97"/>
<polygon fill="midnightblue" stroke="midnightblue" points="1080.33,-170.99 1070.51,-174.97 1080.67,-177.98 1080.33,-170.99"/>
</g>
<!-- Node18 -->
<g id="node18" class="node">
<title>Node18</title>
<g id="a_node18"><a xlink:href="pixel-iterator_8c.html" target="_top" xlink:title=" ">
<polygon fill="white" stroke="black" points="923.9,-0.5 923.9,-19.5 1010.9,-19.5 1010.9,-0.5 923.9,-0.5"/>
<text text-anchor="middle" x="967.4" y="-7.5" font-family="FreeSans" font-size="10.00">pixel&#45;iterator.c</text>
</a>
</g>
</g>
<!-- Node2&#45;&gt;Node18 -->
<g id="edge24" class="edge">
<title>Node2&#45;&gt;Node18</title>
<path fill="none" stroke="midnightblue" d="M972.1,-175.74C811.92,-171.76 343.12,-158.14 192.4,-132 106.5,-117.1 56.51,-145.9 4.4,-76 -0.92,-68.87 -1.74,-62.43 4.4,-56 36.53,-22.32 740.26,-13.19 923.89,-11.38"/>
<polygon fill="midnightblue" stroke="midnightblue" points="972.12,-179.24 982.2,-175.99 972.29,-172.24 972.12,-179.24"/>
</g>
<!-- Node19 -->
<g id="node19" class="node">
<title>Node19</title>
<g id="a_node19"><a xlink:href="magick__wand_8h.html" target="_top" xlink:title=" ">
<polygon fill="white" stroke="black" points="1168.9,-112.5 1168.9,-131.5 1261.9,-131.5 1261.9,-112.5 1168.9,-112.5"/>
<text text-anchor="middle" x="1215.4" y="-119.5" font-family="FreeSans" font-size="10.00">magick_wand.h</text>
</a>
</g>
</g>
<!-- Node2&#45;&gt;Node19 -->
<g id="edge21" class="edge">
<title>Node2&#45;&gt;Node19</title>
<path fill="none" stroke="midnightblue" d="M1066.41,-165.57C1102.06,-155.38 1153.43,-140.7 1185.59,-131.52"/>
<polygon fill="midnightblue" stroke="midnightblue" points="1065,-162.33 1056.34,-168.44 1066.92,-169.06 1065,-162.33"/>
</g>
<!-- Node20 -->
<g id="node20" class="node">
<title>Node20</title>
<g id="a_node20"><a xlink:href="mogrify_8c.html" target="_top" xlink:title=" ">
<polygon fill="white" stroke="black" points="1081.9,-56.5 1081.9,-75.5 1142.9,-75.5 1142.9,-56.5 1081.9,-56.5"/>
<text text-anchor="middle" x="1112.4" y="-63.5" font-family="FreeSans" font-size="10.00">mogrify.c</text>
</a>
</g>
</g>
<!-- Node2&#45;&gt;Node20 -->
<g id="edge22" class="edge">
<title>Node2&#45;&gt;Node20</title>
<path fill="none" stroke="midnightblue" d="M1039.47,-160.27C1058.06,-136.49 1091.45,-93.79 1105.68,-75.59"/>
<polygon fill="midnightblue" stroke="midnightblue" points="1036.55,-158.33 1033.15,-168.37 1042.06,-162.65 1036.55,-158.33"/>
</g>
<!-- Node21 -->
<g id="node21" class="node">
<title>Node21</title>
<g id="a_node21"><a xlink:href="montage_8c.html" target="_top" xlink:title=" ">
<polygon fill="white" stroke="black" points="1161.4,-56.5 1161.4,-75.5 1229.4,-75.5 1229.4,-56.5 1161.4,-56.5"/>
<text text-anchor="middle" x="1195.4" y="-63.5" font-family="FreeSans" font-size="10.00">montage.c</text>
</a>
</g>
</g>
<!-- Node2&#45;&gt;Node21 -->
<g id="edge23" class="edge">
<title>Node2&#45;&gt;Node21</title>
<path fill="none" stroke="midnightblue" d="M1048.35,-162.71C1083.96,-139.53 1153.25,-94.43 1182.2,-75.59"/>
<polygon fill="midnightblue" stroke="midnightblue" points="1046.13,-159.98 1039.66,-168.37 1049.95,-165.85 1046.13,-159.98"/>
</g>
<!-- Node22 -->
<g id="node22" class="node">
<title>Node22</title>
<g id="a_node22"><a xlink:href="pixel-wand_8c.html" target="_top" xlink:title=" ">
<polygon fill="white" stroke="black" points="1247.4,-56.5 1247.4,-75.5 1325.4,-75.5 1325.4,-56.5 1247.4,-56.5"/>
<text text-anchor="middle" x="1286.4" y="-63.5" font-family="FreeSans" font-size="10.00">pixel&#45;wand.c</text>
</a>
</g>
</g>
<!-- Node2&#45;&gt;Node22 -->
<g id="edge25" class="edge">
<title>Node2&#45;&gt;Node22</title>
<path fill="none" stroke="midnightblue" d="M1056.23,-164.41C1076.09,-155.8 1102.61,-143.84 1125.4,-132 1140.95,-123.92 1143.51,-119.41 1159.4,-112 1191.94,-96.83 1231.12,-83.67 1257.27,-75.57"/>
<polygon fill="midnightblue" stroke="midnightblue" points="1054.6,-161.31 1046.79,-168.48 1057.36,-167.74 1054.6,-161.31"/>
</g>
<!-- Node23 -->
<g id="node23" class="node">
<title>Node23</title>
<g id="a_node23"><a xlink:href="stream_8c.html" target="_top" xlink:title=" ">
<polygon fill="white" stroke="black" points="1343.9,-56.5 1343.9,-75.5 1402.9,-75.5 1402.9,-56.5 1343.9,-56.5"/>
<text text-anchor="middle" x="1373.4" y="-63.5" font-family="FreeSans" font-size="10.00">stream.c</text>
</a>
</g>
</g>
<!-- Node2&#45;&gt;Node23 -->
<g id="edge26" class="edge">
<title>Node2&#45;&gt;Node23</title>
<path fill="none" stroke="midnightblue" d="M1080.58,-172.94C1131.12,-167.79 1207.9,-156.43 1270.4,-132 1307.03,-117.68 1344.8,-89.86 1362.72,-75.71"/>
<polygon fill="midnightblue" stroke="midnightblue" points="1080.13,-169.47 1070.52,-173.92 1080.81,-176.44 1080.13,-169.47"/>
</g>
<!-- Node24 -->
<g id="node24" class="node">
<title>Node24</title>
<g id="a_node24"><a xlink:href="studio_8h.html" target="_top" xlink:title=" ">
<polygon fill="white" stroke="black" points="939.4,-112.5 939.4,-131.5 995.4,-131.5 995.4,-112.5 939.4,-112.5"/>
<text text-anchor="middle" x="967.4" y="-119.5" font-family="FreeSans" font-size="10.00">studio.h</text>
</a>
</g>
</g>
<!-- Node2&#45;&gt;Node24 -->
<g id="edge27" class="edge">
<title>Node2&#45;&gt;Node24</title>
<path fill="none" stroke="midnightblue" d="M1009.5,-161.54C998.98,-151.91 985.83,-139.87 977.05,-131.83"/>
<polygon fill="midnightblue" stroke="midnightblue" points="1007.18,-164.15 1016.92,-168.32 1011.9,-158.99 1007.18,-164.15"/>
</g>
<!-- Node25 -->
<g id="node25" class="node">
<title>Node25</title>
<g id="a_node25"><a xlink:href="wand-view_8c.html" target="_top" xlink:title=" ">
<polygon fill="white" stroke="black" points="1420.9,-56.5 1420.9,-75.5 1497.9,-75.5 1497.9,-56.5 1420.9,-56.5"/>
<text text-anchor="middle" x="1459.4" y="-63.5" font-family="FreeSans" font-size="10.00">wand&#45;view.c</text>
</a>
</g>
</g>
<!-- Node2&#45;&gt;Node25 -->
<g id="edge48" class="edge">
<title>Node2&#45;&gt;Node25</title>
<path fill="none" stroke="midnightblue" d="M1080.6,-172.06C1137.24,-166.01 1228.29,-153.79 1304.4,-132 1356.58,-117.06 1414.76,-89.52 1442.67,-75.57"/>
<polygon fill="midnightblue" stroke="midnightblue" points="1080.02,-168.6 1070.43,-173.12 1080.74,-175.57 1080.02,-168.6"/>
</g>
<!-- Node26 -->
<g id="node26" class="node">
<title>Node26</title>
<g id="a_node26"><a xlink:href="wand_8c.html" target="_top" xlink:title=" ">
<polygon fill="white" stroke="black" points="1515.9,-56.5 1515.9,-75.5 1566.9,-75.5 1566.9,-56.5 1515.9,-56.5"/>
<text text-anchor="middle" x="1541.4" y="-63.5" font-family="FreeSans" font-size="10.00">wand.c</text>
</a>
</g>
</g>
<!-- Node2&#45;&gt;Node26 -->
<g id="edge49" class="edge">
<title>Node2&#45;&gt;Node26</title>
<path fill="none" stroke="midnightblue" d="M1080.79,-172.45C1145.09,-166.37 1255.04,-153.75 1347.4,-132 1411.71,-116.86 1484.98,-89.4 1520.24,-75.52"/>
<polygon fill="midnightblue" stroke="midnightblue" points="1080.12,-169 1070.48,-173.41 1080.76,-175.97 1080.12,-169"/>
</g>
<!-- Node16&#45;&gt;Node1 -->
<g id="edge16" class="edge">
<title>Node16&#45;&gt;Node1</title>
<path fill="none" stroke="midnightblue" d="M1726.4,-141.6C1726.4,-165.67 1726.4,-206.62 1726.4,-224.37"/>
<polygon fill="midnightblue" stroke="midnightblue" points="1729.9,-141.59 1726.4,-131.59 1722.9,-141.59 1729.9,-141.59"/>
</g>
<!-- Node17 -->
<g id="node17" class="node">
<title>Node17</title>
<g id="a_node17"><a xlink:href="pixel-iterator_8h.html" target="_top" xlink:title=" ">
<polygon fill="white" stroke="black" points="1759.4,-56.5 1759.4,-75.5 1847.4,-75.5 1847.4,-56.5 1759.4,-56.5"/>
<text text-anchor="middle" x="1803.4" y="-63.5" font-family="FreeSans" font-size="10.00">pixel&#45;iterator.h</text>
</a>
</g>
</g>
<!-- Node16&#45;&gt;Node17 -->
<g id="edge17" class="edge">
<title>Node16&#45;&gt;Node17</title>
<path fill="none" stroke="midnightblue" d="M1747.3,-106.34C1761.31,-96.52 1779.28,-83.91 1791.06,-75.65"/>
<polygon fill="midnightblue" stroke="midnightblue" points="1744.95,-103.72 1738.77,-112.32 1748.97,-109.45 1744.95,-103.72"/>
</g>
<!-- Node17&#45;&gt;Node1 -->
<g id="edge19" class="edge">
<title>Node17&#45;&gt;Node1</title>
<path fill="none" stroke="midnightblue" d="M1798.11,-85.35C1794.09,-98.55 1788.11,-116.65 1781.4,-132 1765.87,-167.49 1742.29,-207.19 1731.78,-224.34"/>
<polygon fill="midnightblue" stroke="midnightblue" points="1801.52,-86.17 1801,-75.59 1794.81,-84.18 1801.52,-86.17"/>
</g>
<!-- Node17&#45;&gt;Node2 -->
<g id="edge18" class="edge">
<title>Node17&#45;&gt;Node2</title>
<path fill="none" stroke="midnightblue" d="M1761.41,-78.15C1705.13,-92.69 1601.94,-117.91 1512.4,-132 1350.63,-157.45 1156.15,-170.12 1070.52,-174.8"/>
<polygon fill="midnightblue" stroke="midnightblue" points="1762.56,-81.47 1771.36,-75.57 1760.8,-74.69 1762.56,-81.47"/>
</g>
<!-- Node17&#45;&gt;Node18 -->
<g id="edge20" class="edge">
<title>Node17&#45;&gt;Node18</title>
<path fill="none" stroke="midnightblue" d="M1749.01,-55.97C1462.07,-24 1129.03,-14.38 1011.26,-11.82"/>
<polygon fill="midnightblue" stroke="midnightblue" points="1748.87,-59.48 1759.2,-57.12 1749.66,-52.52 1748.87,-59.48"/>
</g>
<!-- Node24&#45;&gt;Node3 -->
<g id="edge28" class="edge">
<title>Node24&#45;&gt;Node3</title>
<path fill="none" stroke="midnightblue" d="M949.93,-105.54C939.05,-95.91 925.45,-83.87 916.38,-75.83"/>
<polygon fill="midnightblue" stroke="midnightblue" points="947.79,-108.32 957.6,-112.32 952.43,-103.07 947.79,-108.32"/>
</g>
<!-- Node24&#45;&gt;Node4 -->
<g id="edge29" class="edge">
<title>Node24&#45;&gt;Node4</title>
<path fill="none" stroke="midnightblue" d="M985.15,-105.54C996.21,-95.91 1010.03,-83.87 1019.25,-75.83"/>
<polygon fill="midnightblue" stroke="midnightblue" points="982.6,-103.12 977.36,-112.32 987.2,-108.4 982.6,-103.12"/>
</g>
<!-- Node24&#45;&gt;Node5 -->
<g id="edge30" class="edge">
<title>Node24&#45;&gt;Node5</title>
<path fill="none" stroke="midnightblue" d="M1005.89,-118.74C1121.61,-111.85 1465.18,-90.71 1576.4,-76 1579.28,-75.62 1582.25,-75.17 1585.24,-74.69"/>
<polygon fill="midnightblue" stroke="midnightblue" points="1005.51,-115.26 995.74,-119.34 1005.93,-122.24 1005.51,-115.26"/>
</g>
<!-- Node24&#45;&gt;Node6 -->
<g id="edge31" class="edge">
<title>Node24&#45;&gt;Node6</title>
<path fill="none" stroke="midnightblue" d="M1005.69,-118.9C1142.8,-111.35 1604.55,-85.46 1670.4,-76 1673.36,-75.58 1676.42,-75.05 1679.48,-74.46"/>
<polygon fill="midnightblue" stroke="midnightblue" points="1005.44,-115.41 995.65,-119.46 1005.83,-122.4 1005.44,-115.41"/>
</g>
<!-- Node24&#45;&gt;Node7 -->
<g id="edge32" class="edge">
<title>Node24&#45;&gt;Node7</title>
<path fill="none" stroke="midnightblue" d="M928.94,-121.37C805.55,-122.06 408.75,-120.43 84.4,-76 81.58,-75.61 78.66,-75.13 75.75,-74.58"/>
<polygon fill="midnightblue" stroke="midnightblue" points="929.05,-124.87 939.02,-121.3 929,-117.87 929.05,-124.87"/>
</g>
<!-- Node24&#45;&gt;Node8 -->
<g id="edge33" class="edge">
<title>Node24&#45;&gt;Node8</title>
<path fill="none" stroke="midnightblue" d="M929.22,-120.67C814.71,-119.29 464.24,-112.18 176.4,-76 173.49,-75.63 170.49,-75.19 167.48,-74.71"/>
<polygon fill="midnightblue" stroke="midnightblue" points="929.21,-124.17 939.25,-120.78 929.29,-117.17 929.21,-124.17"/>
</g>
<!-- Node24&#45;&gt;Node9 -->
<g id="edge34" class="edge">
<title>Node24&#45;&gt;Node9</title>
<path fill="none" stroke="midnightblue" d="M929.06,-120.78C821.85,-119.7 510.1,-113.32 254.4,-76 251.37,-75.56 248.23,-75 245.11,-74.39"/>
<polygon fill="midnightblue" stroke="midnightblue" points="929.33,-124.28 939.37,-120.88 929.4,-117.28 929.33,-124.28"/>
</g>
<!-- Node24&#45;&gt;Node10 -->
<g id="edge35" class="edge">
<title>Node24&#45;&gt;Node10</title>
<path fill="none" stroke="midnightblue" d="M929.12,-119.26C833.8,-114.68 578.24,-100.91 366.4,-76 363.46,-75.66 360.45,-75.27 357.41,-74.85"/>
<polygon fill="midnightblue" stroke="midnightblue" points="929,-122.76 939.15,-119.74 929.33,-115.77 929,-122.76"/>
</g>
<!-- Node24&#45;&gt;Node11 -->
<g id="edge36" class="edge">
<title>Node24&#45;&gt;Node11</title>
<path fill="none" stroke="midnightblue" d="M929,-119.55C842.19,-115.87 624.36,-104.36 444.4,-76 441.51,-75.55 438.53,-75 435.55,-74.4"/>
<polygon fill="midnightblue" stroke="midnightblue" points="929.03,-123.05 939.16,-119.97 929.32,-116.06 929.03,-123.05"/>
</g>
<!-- Node24&#45;&gt;Node12 -->
<g id="edge37" class="edge">
<title>Node24&#45;&gt;Node12</title>
<path fill="none" stroke="midnightblue" d="M928.89,-118.93C851.08,-114.36 669.7,-101.7 519.4,-76 516.66,-75.53 513.83,-74.98 511,-74.37"/>
<polygon fill="midnightblue" stroke="midnightblue" points="928.99,-122.45 939.17,-119.53 929.39,-115.46 928.99,-122.45"/>
</g>
<!-- Node24&#45;&gt;Node13 -->
<g id="edge38" class="edge">
<title>Node24&#45;&gt;Node13</title>
<path fill="none" stroke="midnightblue" d="M929.1,-116.13C866.97,-108.16 740.39,-91.65 633.4,-76 630.32,-75.55 627.16,-75.08 623.97,-74.59"/>
<polygon fill="midnightblue" stroke="midnightblue" points="928.85,-119.62 939.22,-117.42 929.74,-112.68 928.85,-119.62"/>
</g>
<!-- Node24&#45;&gt;Node14 -->
<g id="edge39" class="edge">
<title>Node24&#45;&gt;Node14</title>
<path fill="none" stroke="midnightblue" d="M929.37,-113.48C879.02,-103.52 790.44,-86 737.61,-75.55"/>
<polygon fill="midnightblue" stroke="midnightblue" points="928.72,-116.92 939.21,-115.42 930.08,-110.05 928.72,-116.92"/>
</g>
<!-- Node24&#45;&gt;Node15 -->
<g id="edge40" class="edge">
<title>Node24&#45;&gt;Node15</title>
<path fill="none" stroke="midnightblue" d="M933.01,-109.17C903.45,-99 861.52,-84.59 835.16,-75.52"/>
<polygon fill="midnightblue" stroke="midnightblue" points="931.92,-112.5 942.52,-112.44 934.2,-105.88 931.92,-112.5"/>
</g>
<!-- Node24&#45;&gt;Node18 -->
<g id="edge43" class="edge">
<title>Node24&#45;&gt;Node18</title>
<path fill="none" stroke="midnightblue" d="M967.4,-102.35C967.4,-78.25 967.4,-37.31 967.4,-19.59"/>
<polygon fill="midnightblue" stroke="midnightblue" points="963.9,-102.37 967.4,-112.37 970.9,-102.37 963.9,-102.37"/>
</g>
<!-- Node24&#45;&gt;Node20 -->
<g id="edge41" class="edge">
<title>Node24&#45;&gt;Node20</title>
<path fill="none" stroke="midnightblue" d="M999.87,-108.91C1027.13,-98.75 1065.39,-84.51 1089.53,-75.52"/>
<polygon fill="midnightblue" stroke="midnightblue" points="998.52,-105.67 990.37,-112.44 1000.97,-112.23 998.52,-105.67"/>
</g>
<!-- Node24&#45;&gt;Node21 -->
<g id="edge42" class="edge">
<title>Node24&#45;&gt;Node21</title>
<path fill="none" stroke="midnightblue" d="M1005.71,-111.92C1049.14,-101.64 1119.31,-85.02 1161.03,-75.14"/>
<polygon fill="midnightblue" stroke="midnightblue" points="1004.74,-108.56 995.81,-114.27 1006.35,-115.37 1004.74,-108.56"/>
</g>
<!-- Node24&#45;&gt;Node22 -->
<g id="edge44" class="edge">
<title>Node24&#45;&gt;Node22</title>
<path fill="none" stroke="midnightblue" d="M1005.72,-114.89C1058.26,-106.46 1155.57,-90.64 1238.4,-76 1241.32,-75.48 1244.34,-74.94 1247.38,-74.39"/>
<polygon fill="midnightblue" stroke="midnightblue" points="1004.84,-111.49 995.52,-116.53 1005.95,-118.4 1004.84,-111.49"/>
</g>
<!-- Node24&#45;&gt;Node23 -->
<g id="edge45" class="edge">
<title>Node24&#45;&gt;Node23</title>
<path fill="none" stroke="midnightblue" d="M1005.72,-117.64C1072.7,-111.46 1215.28,-96.99 1334.4,-76 1337.41,-75.47 1340.54,-74.86 1343.65,-74.2"/>
<polygon fill="midnightblue" stroke="midnightblue" points="1005.27,-114.16 995.63,-118.56 1005.91,-121.13 1005.27,-114.16"/>
</g>
<!-- Node24&#45;&gt;Node25 -->
<g id="edge46" class="edge">
<title>Node24&#45;&gt;Node25</title>
<path fill="none" stroke="midnightblue" d="M1005.73,-118.21C1082.82,-112.36 1261.99,-97.54 1411.4,-76 1414.42,-75.56 1417.54,-75.07 1420.67,-74.55"/>
<polygon fill="midnightblue" stroke="midnightblue" points="1005.26,-114.74 995.55,-118.98 1005.78,-121.72 1005.26,-114.74"/>
</g>
<!-- Node24&#45;&gt;Node26 -->
<g id="edge47" class="edge">
<title>Node24&#45;&gt;Node26</title>
<path fill="none" stroke="midnightblue" d="M1005.78,-118.68C1112.4,-112.1 1410.6,-92.71 1507.4,-76 1510.16,-75.52 1513.04,-74.93 1515.88,-74.27"/>
<polygon fill="midnightblue" stroke="midnightblue" points="1005.26,-115.21 995.49,-119.31 1005.69,-122.19 1005.26,-115.21"/>
</g>
</g>
</svg>
