<?xml version="1.0" encoding="UTF-8" standalone="no"?>
<!DOCTYPE svg PUBLIC "-//W3C//DTD SVG 1.1//EN"
 "http://www.w3.org/Graphics/SVG/1.1/DTD/svg11.dtd">
<!-- Generated by graphviz version 2.43.0 (0)
 -->
<!-- Title: drawing&#45;wand.h Pages: 1 -->
<svg width="1938pt" height="252pt"
 viewBox="0.00 0.00 1938.42 252.00" xmlns="http://www.w3.org/2000/svg" xmlns:xlink="http://www.w3.org/1999/xlink">
<g id="graph0" class="graph" transform="scale(1 1) rotate(0) translate(4 248)">
<title>drawing&#45;wand.h</title>
<polygon fill="white" stroke="transparent" points="-4,4 -4,-248 1934.42,-248 1934.42,4 -4,4"/>
<!-- Node1 -->
<g id="node1" class="node">
<title>Node1</title>
<g id="a_node1"><a xlink:title=" ">
<polygon fill="#bfbfbf" stroke="black" points="1438.92,-224.5 1438.92,-243.5 1533.92,-243.5 1533.92,-224.5 1438.92,-224.5"/>
<text text-anchor="middle" x="1486.42" y="-231.5" font-family="FreeSans" font-size="10.00">drawing&#45;wand.h</text>
</a>
</g>
</g>
<!-- Node2 -->
<g id="node2" class="node">
<title>Node2</title>
<g id="a_node2"><a xlink:href="MagickWand_8h.html" target="_top" xlink:title=" ">
<polygon fill="white" stroke="black" points="997.42,-168.5 997.42,-187.5 1085.42,-187.5 1085.42,-168.5 997.42,-168.5"/>
<text text-anchor="middle" x="1041.42" y="-175.5" font-family="FreeSans" font-size="10.00">MagickWand.h</text>
</a>
</g>
</g>
<!-- Node1&#45;&gt;Node2 -->
<g id="edge1" class="edge">
<title>Node1&#45;&gt;Node2</title>
<path fill="none" stroke="midnightblue" d="M1428.76,-226C1338.74,-215.08 1166.74,-194.21 1085.72,-184.38"/>
<polygon fill="midnightblue" stroke="midnightblue" points="1428.44,-229.49 1438.79,-227.22 1429.29,-222.54 1428.44,-229.49"/>
</g>
<!-- Node17 -->
<g id="node17" class="node">
<title>Node17</title>
<g id="a_node17"><a xlink:href="deprecate_8h.html" target="_top" xlink:title=" ">
<polygon fill="white" stroke="black" points="1856.42,-0.5 1856.42,-19.5 1930.42,-19.5 1930.42,-0.5 1856.42,-0.5"/>
<text text-anchor="middle" x="1893.42" y="-7.5" font-family="FreeSans" font-size="10.00">deprecate.h</text>
</a>
</g>
</g>
<!-- Node1&#45;&gt;Node17 -->
<g id="edge51" class="edge">
<title>Node1&#45;&gt;Node17</title>
<path fill="none" stroke="midnightblue" d="M1544.16,-233.21C1627.61,-230.51 1782.54,-213.81 1879.42,-132 1906.58,-109.06 1908.67,-91.3 1904.42,-56 1902.86,-43.06 1898.87,-28.48 1896.15,-19.51"/>
<polygon fill="midnightblue" stroke="midnightblue" points="1544,-229.71 1534.1,-233.48 1544.19,-236.71 1544,-229.71"/>
</g>
<!-- Node3 -->
<g id="node3" class="node">
<title>Node3</title>
<g id="a_node3"><a xlink:href="animate_8c.html" target="_top" xlink:title=" ">
<polygon fill="white" stroke="black" points="1085.92,-56.5 1085.92,-75.5 1150.92,-75.5 1150.92,-56.5 1085.92,-56.5"/>
<text text-anchor="middle" x="1118.42" y="-63.5" font-family="FreeSans" font-size="10.00">animate.c</text>
</a>
</g>
</g>
<!-- Node2&#45;&gt;Node3 -->
<g id="edge2" class="edge">
<title>Node2&#45;&gt;Node3</title>
<path fill="none" stroke="midnightblue" d="M1052.3,-159.93C1060.82,-146.7 1073.1,-128 1084.42,-112 1093.58,-99.05 1104.76,-84.47 1111.74,-75.51"/>
<polygon fill="midnightblue" stroke="midnightblue" points="1049.27,-158.16 1046.82,-168.47 1055.16,-161.94 1049.27,-158.16"/>
</g>
<!-- Node4 -->
<g id="node4" class="node">
<title>Node4</title>
<g id="a_node4"><a xlink:href="compare_8c.html" target="_top" xlink:title=" ">
<polygon fill="white" stroke="black" points="1672.42,-56.5 1672.42,-75.5 1740.42,-75.5 1740.42,-56.5 1672.42,-56.5"/>
<text text-anchor="middle" x="1706.42" y="-63.5" font-family="FreeSans" font-size="10.00">compare.c</text>
</a>
</g>
</g>
<!-- Node2&#45;&gt;Node4 -->
<g id="edge3" class="edge">
<title>Node2&#45;&gt;Node4</title>
<path fill="none" stroke="midnightblue" d="M1095.76,-171.23C1149.12,-164.73 1232.46,-152.33 1302.42,-132 1324.61,-125.55 1328.05,-117.82 1350.42,-112 1485.93,-76.73 1525.19,-98.37 1663.42,-76 1666.28,-75.54 1669.24,-75.01 1672.2,-74.46"/>
<polygon fill="midnightblue" stroke="midnightblue" points="1095.02,-167.79 1085.5,-172.45 1095.85,-174.75 1095.02,-167.79"/>
</g>
<!-- Node5 -->
<g id="node5" class="node">
<title>Node5</title>
<g id="a_node5"><a xlink:href="composite_8c.html" target="_top" xlink:title=" ">
<polygon fill="white" stroke="black" points="13.42,-56.5 13.42,-75.5 89.42,-75.5 89.42,-56.5 13.42,-56.5"/>
<text text-anchor="middle" x="51.42" y="-63.5" font-family="FreeSans" font-size="10.00">composite.c</text>
</a>
</g>
</g>
<!-- Node2&#45;&gt;Node5 -->
<g id="edge4" class="edge">
<title>Node2&#45;&gt;Node5</title>
<path fill="none" stroke="midnightblue" d="M986.89,-177.18C864.31,-176.83 557.94,-171.66 305.42,-132 220.88,-118.72 123.52,-89.89 77.77,-75.51"/>
<polygon fill="midnightblue" stroke="midnightblue" points="987.13,-180.68 997.13,-177.2 987.14,-173.68 987.13,-180.68"/>
</g>
<!-- Node6 -->
<g id="node6" class="node">
<title>Node6</title>
<g id="a_node6"><a xlink:href="conjure_8c.html" target="_top" xlink:title=" ">
<polygon fill="white" stroke="black" points="107.92,-56.5 107.92,-75.5 168.92,-75.5 168.92,-56.5 107.92,-56.5"/>
<text text-anchor="middle" x="138.42" y="-63.5" font-family="FreeSans" font-size="10.00">conjure.c</text>
</a>
</g>
</g>
<!-- Node2&#45;&gt;Node6 -->
<g id="edge5" class="edge">
<title>Node2&#45;&gt;Node6</title>
<path fill="none" stroke="midnightblue" d="M986.97,-176.23C876.61,-173.98 618.91,-165.3 405.42,-132 317.03,-118.22 214.89,-89.75 166.55,-75.51"/>
<polygon fill="midnightblue" stroke="midnightblue" points="987.11,-179.73 997.18,-176.42 987.25,-172.73 987.11,-179.73"/>
</g>
<!-- Node7 -->
<g id="node7" class="node">
<title>Node7</title>
<g id="a_node7"><a xlink:href="convert_8c.html" target="_top" xlink:title=" ">
<polygon fill="white" stroke="black" points="187.42,-56.5 187.42,-75.5 249.42,-75.5 249.42,-56.5 187.42,-56.5"/>
<text text-anchor="middle" x="218.42" y="-63.5" font-family="FreeSans" font-size="10.00">convert.c</text>
</a>
</g>
</g>
<!-- Node2&#45;&gt;Node7 -->
<g id="edge6" class="edge">
<title>Node2&#45;&gt;Node7</title>
<path fill="none" stroke="midnightblue" d="M987.18,-174.67C891.49,-170.06 686.58,-157.86 515.42,-132 417.56,-117.22 303.72,-89.22 249.81,-75.3"/>
<polygon fill="midnightblue" stroke="midnightblue" points="987.05,-178.17 997.2,-175.15 987.38,-171.18 987.05,-178.17"/>
</g>
<!-- Node8 -->
<g id="node8" class="node">
<title>Node8</title>
<g id="a_node8"><a xlink:href="deprecate_8c.html" target="_top" xlink:title=" ">
<polygon fill="white" stroke="black" points="267.42,-56.5 267.42,-75.5 341.42,-75.5 341.42,-56.5 267.42,-56.5"/>
<text text-anchor="middle" x="304.42" y="-63.5" font-family="FreeSans" font-size="10.00">deprecate.c</text>
</a>
</g>
</g>
<!-- Node2&#45;&gt;Node8 -->
<g id="edge7" class="edge">
<title>Node2&#45;&gt;Node8</title>
<path fill="none" stroke="midnightblue" d="M987.03,-173.26C904.58,-167.15 743.2,-153.54 607.42,-132 594.25,-129.91 419.76,-92.08 341.71,-75.11"/>
<polygon fill="midnightblue" stroke="midnightblue" points="986.93,-176.76 997.16,-174 987.45,-169.78 986.93,-176.76"/>
</g>
<!-- Node9 -->
<g id="node9" class="node">
<title>Node9</title>
<g id="a_node9"><a xlink:href="display_8c.html" target="_top" xlink:title=" ">
<polygon fill="white" stroke="black" points="359.92,-56.5 359.92,-75.5 418.92,-75.5 418.92,-56.5 359.92,-56.5"/>
<text text-anchor="middle" x="389.42" y="-63.5" font-family="FreeSans" font-size="10.00">display.c</text>
</a>
</g>
</g>
<!-- Node2&#45;&gt;Node9 -->
<g id="edge8" class="edge">
<title>Node2&#45;&gt;Node9</title>
<path fill="none" stroke="midnightblue" d="M987.21,-173.13C915.37,-167.36 784.91,-154.67 675.42,-132 644.57,-125.61 638,-119.56 607.42,-112 528.64,-92.53 507.74,-93.13 428.42,-76 425.43,-75.35 422.31,-74.67 419.21,-73.97"/>
<polygon fill="midnightblue" stroke="midnightblue" points="987.13,-176.63 997.38,-173.93 987.68,-169.65 987.13,-176.63"/>
</g>
<!-- Node10 -->
<g id="node10" class="node">
<title>Node10</title>
<g id="a_node10"><a xlink:href="drawing-wand_8c.html" target="_top" xlink:title=" ">
<polygon fill="white" stroke="black" points="437.42,-56.5 437.42,-75.5 531.42,-75.5 531.42,-56.5 437.42,-56.5"/>
<text text-anchor="middle" x="484.42" y="-63.5" font-family="FreeSans" font-size="10.00">drawing&#45;wand.c</text>
</a>
</g>
</g>
<!-- Node2&#45;&gt;Node10 -->
<g id="edge9" class="edge">
<title>Node2&#45;&gt;Node10</title>
<path fill="none" stroke="midnightblue" d="M987.18,-172.82C924.2,-167.13 817.56,-154.93 728.42,-132 704.03,-125.73 699.5,-119.35 675.42,-112 625.4,-96.74 566.69,-83.6 527.7,-75.53"/>
<polygon fill="midnightblue" stroke="midnightblue" points="987.01,-176.31 997.28,-173.71 987.62,-169.34 987.01,-176.31"/>
</g>
<!-- Node11 -->
<g id="node11" class="node">
<title>Node11</title>
<g id="a_node11"><a xlink:href="identify_8c.html" target="_top" xlink:title=" ">
<polygon fill="white" stroke="black" points="549.42,-56.5 549.42,-75.5 609.42,-75.5 609.42,-56.5 549.42,-56.5"/>
<text text-anchor="middle" x="579.42" y="-63.5" font-family="FreeSans" font-size="10.00">identify.c</text>
</a>
</g>
</g>
<!-- Node2&#45;&gt;Node11 -->
<g id="edge10" class="edge">
<title>Node2&#45;&gt;Node11</title>
<path fill="none" stroke="midnightblue" d="M987.05,-171.76C932.47,-165.59 846.39,-153.36 774.42,-132 753.04,-125.66 749.35,-119.68 728.42,-112 687.83,-97.11 639.77,-83.25 609.44,-74.95"/>
<polygon fill="midnightblue" stroke="midnightblue" points="986.88,-175.26 997.2,-172.88 987.65,-168.3 986.88,-175.26"/>
</g>
<!-- Node12 -->
<g id="node12" class="node">
<title>Node12</title>
<g id="a_node12"><a xlink:href="import_8c.html" target="_top" xlink:title=" ">
<polygon fill="white" stroke="black" points="627.92,-56.5 627.92,-75.5 684.92,-75.5 684.92,-56.5 627.92,-56.5"/>
<text text-anchor="middle" x="656.42" y="-63.5" font-family="FreeSans" font-size="10.00">import.c</text>
</a>
</g>
</g>
<!-- Node2&#45;&gt;Node12 -->
<g id="edge11" class="edge">
<title>Node2&#45;&gt;Node12</title>
<path fill="none" stroke="midnightblue" d="M987.25,-166.8C946.32,-158.65 888.91,-146.25 839.42,-132 779.96,-114.89 711.72,-88.91 677.83,-75.57"/>
<polygon fill="midnightblue" stroke="midnightblue" points="986.8,-170.28 997.29,-168.78 988.16,-163.41 986.8,-170.28"/>
</g>
<!-- Node13 -->
<g id="node13" class="node">
<title>Node13</title>
<g id="a_node13"><a xlink:href="magick-image_8c.html" target="_top" xlink:title=" ">
<polygon fill="white" stroke="black" points="702.92,-56.5 702.92,-75.5 797.92,-75.5 797.92,-56.5 702.92,-56.5"/>
<text text-anchor="middle" x="750.42" y="-63.5" font-family="FreeSans" font-size="10.00">magick&#45;image.c</text>
</a>
</g>
</g>
<!-- Node2&#45;&gt;Node13 -->
<g id="edge12" class="edge">
<title>Node2&#45;&gt;Node13</title>
<path fill="none" stroke="midnightblue" d="M997.18,-165.78C966.54,-157.56 925.02,-145.51 889.42,-132 843.84,-114.71 792.39,-88.92 766.76,-75.62"/>
<polygon fill="midnightblue" stroke="midnightblue" points="996.56,-169.24 1007.13,-168.42 998.36,-162.47 996.56,-169.24"/>
</g>
<!-- Node14 -->
<g id="node14" class="node">
<title>Node14</title>
<g id="a_node14"><a xlink:href="magick-property_8c.html" target="_top" xlink:title=" ">
<polygon fill="white" stroke="black" points="816.42,-56.5 816.42,-75.5 920.42,-75.5 920.42,-56.5 816.42,-56.5"/>
<text text-anchor="middle" x="868.42" y="-63.5" font-family="FreeSans" font-size="10.00">magick&#45;property.c</text>
</a>
</g>
</g>
<!-- Node2&#45;&gt;Node14 -->
<g id="edge13" class="edge">
<title>Node2&#45;&gt;Node14</title>
<path fill="none" stroke="midnightblue" d="M987.57,-166.75C962.53,-159.99 933.49,-149.12 911.42,-132 891.75,-116.74 878.14,-89.84 872.04,-75.91"/>
<polygon fill="midnightblue" stroke="midnightblue" points="986.75,-170.15 997.3,-169.23 988.47,-163.37 986.75,-170.15"/>
</g>
<!-- Node15 -->
<g id="node15" class="node">
<title>Node15</title>
<g id="a_node15"><a xlink:href="magick-wand_8c.html" target="_top" xlink:title=" ">
<polygon fill="white" stroke="black" points="976.92,-56.5 976.92,-75.5 1067.92,-75.5 1067.92,-56.5 976.92,-56.5"/>
<text text-anchor="middle" x="1022.42" y="-63.5" font-family="FreeSans" font-size="10.00">magick&#45;wand.c</text>
</a>
</g>
</g>
<!-- Node2&#45;&gt;Node15 -->
<g id="edge14" class="edge">
<title>Node2&#45;&gt;Node15</title>
<path fill="none" stroke="midnightblue" d="M1038.19,-158.35C1034.03,-134.25 1026.96,-93.31 1023.9,-75.59"/>
<polygon fill="midnightblue" stroke="midnightblue" points="1034.77,-159.11 1039.93,-168.37 1041.67,-157.92 1034.77,-159.11"/>
</g>
<!-- Node16 -->
<g id="node16" class="node">
<title>Node16</title>
<g id="a_node16"><a xlink:href="magick-wand_8h.html" target="_top" xlink:title=" ">
<polygon fill="white" stroke="black" points="1756.42,-112.5 1756.42,-131.5 1848.42,-131.5 1848.42,-112.5 1756.42,-112.5"/>
<text text-anchor="middle" x="1802.42" y="-119.5" font-family="FreeSans" font-size="10.00">magick&#45;wand.h</text>
</a>
</g>
</g>
<!-- Node2&#45;&gt;Node16 -->
<g id="edge15" class="edge">
<title>Node2&#45;&gt;Node16</title>
<path fill="none" stroke="midnightblue" d="M1095.89,-173.13C1238.87,-162.99 1622.96,-135.73 1756.17,-126.28"/>
<polygon fill="midnightblue" stroke="midnightblue" points="1095.35,-169.66 1085.62,-173.86 1095.84,-176.65 1095.35,-169.66"/>
</g>
<!-- Node19 -->
<g id="node19" class="node">
<title>Node19</title>
<g id="a_node19"><a xlink:href="pixel-iterator_8c.html" target="_top" xlink:title=" ">
<polygon fill="white" stroke="black" points="904.92,-0.5 904.92,-19.5 991.92,-19.5 991.92,-0.5 904.92,-0.5"/>
<text text-anchor="middle" x="948.42" y="-7.5" font-family="FreeSans" font-size="10.00">pixel&#45;iterator.c</text>
</a>
</g>
</g>
<!-- Node2&#45;&gt;Node19 -->
<g id="edge25" class="edge">
<title>Node2&#45;&gt;Node19</title>
<path fill="none" stroke="midnightblue" d="M986.99,-176.22C781.94,-172.69 64.61,-154.75 4.42,-76 -0.98,-68.94 -1.72,-62.43 4.42,-56 35.85,-23.03 723.44,-13.4 904.85,-11.42"/>
<polygon fill="midnightblue" stroke="midnightblue" points="987.16,-179.72 997.22,-176.39 987.28,-172.72 987.16,-179.72"/>
</g>
<!-- Node20 -->
<g id="node20" class="node">
<title>Node20</title>
<g id="a_node20"><a xlink:href="magick__wand_8h.html" target="_top" xlink:title=" ">
<polygon fill="white" stroke="black" points="1392.92,-112.5 1392.92,-131.5 1485.92,-131.5 1485.92,-112.5 1392.92,-112.5"/>
<text text-anchor="middle" x="1439.42" y="-119.5" font-family="FreeSans" font-size="10.00">magick_wand.h</text>
</a>
</g>
</g>
<!-- Node2&#45;&gt;Node20 -->
<g id="edge22" class="edge">
<title>Node2&#45;&gt;Node20</title>
<path fill="none" stroke="midnightblue" d="M1095.86,-169.96C1162.52,-161.3 1278.82,-146 1378.42,-132 1383.08,-131.34 1387.94,-130.65 1392.8,-129.95"/>
<polygon fill="midnightblue" stroke="midnightblue" points="1095.07,-166.54 1085.6,-171.3 1095.97,-173.48 1095.07,-166.54"/>
</g>
<!-- Node21 -->
<g id="node21" class="node">
<title>Node21</title>
<g id="a_node21"><a xlink:href="mogrify_8c.html" target="_top" xlink:title=" ">
<polygon fill="white" stroke="black" points="1168.92,-56.5 1168.92,-75.5 1229.92,-75.5 1229.92,-56.5 1168.92,-56.5"/>
<text text-anchor="middle" x="1199.42" y="-63.5" font-family="FreeSans" font-size="10.00">mogrify.c</text>
</a>
</g>
</g>
<!-- Node2&#45;&gt;Node21 -->
<g id="edge23" class="edge">
<title>Node2&#45;&gt;Node21</title>
<path fill="none" stroke="midnightblue" d="M1059.52,-161.19C1075.55,-147.5 1099.86,-127.52 1122.42,-112 1142.57,-98.13 1167.18,-84.24 1183.06,-75.64"/>
<polygon fill="midnightblue" stroke="midnightblue" points="1056.82,-158.9 1051.52,-168.08 1061.39,-164.2 1056.82,-158.9"/>
</g>
<!-- Node22 -->
<g id="node22" class="node">
<title>Node22</title>
<g id="a_node22"><a xlink:href="montage_8c.html" target="_top" xlink:title=" ">
<polygon fill="white" stroke="black" points="1248.42,-56.5 1248.42,-75.5 1316.42,-75.5 1316.42,-56.5 1248.42,-56.5"/>
<text text-anchor="middle" x="1282.42" y="-63.5" font-family="FreeSans" font-size="10.00">montage.c</text>
</a>
</g>
</g>
<!-- Node2&#45;&gt;Node22 -->
<g id="edge24" class="edge">
<title>Node2&#45;&gt;Node22</title>
<path fill="none" stroke="midnightblue" d="M1065.45,-163.63C1097.39,-145.89 1150.91,-116.32 1160.42,-112 1192.48,-97.43 1230.77,-83.9 1255.79,-75.56"/>
<polygon fill="midnightblue" stroke="midnightblue" points="1063.73,-160.58 1056.69,-168.5 1067.13,-166.7 1063.73,-160.58"/>
</g>
<!-- Node23 -->
<g id="node23" class="node">
<title>Node23</title>
<g id="a_node23"><a xlink:href="pixel-wand_8c.html" target="_top" xlink:title=" ">
<polygon fill="white" stroke="black" points="1334.42,-56.5 1334.42,-75.5 1412.42,-75.5 1412.42,-56.5 1334.42,-56.5"/>
<text text-anchor="middle" x="1373.42" y="-63.5" font-family="FreeSans" font-size="10.00">pixel&#45;wand.c</text>
</a>
</g>
</g>
<!-- Node2&#45;&gt;Node23 -->
<g id="edge26" class="edge">
<title>Node2&#45;&gt;Node23</title>
<path fill="none" stroke="midnightblue" d="M1074.65,-164.95C1098.01,-156.28 1129.88,-144.03 1157.42,-132 1176,-123.88 1179.39,-119 1198.42,-112 1243.9,-95.25 1298.22,-82.33 1334.15,-74.72"/>
<polygon fill="midnightblue" stroke="midnightblue" points="1073.37,-161.69 1065.2,-168.44 1075.8,-168.26 1073.37,-161.69"/>
</g>
<!-- Node24 -->
<g id="node24" class="node">
<title>Node24</title>
<g id="a_node24"><a xlink:href="stream_8c.html" target="_top" xlink:title=" ">
<polygon fill="white" stroke="black" points="1430.92,-56.5 1430.92,-75.5 1489.92,-75.5 1489.92,-56.5 1430.92,-56.5"/>
<text text-anchor="middle" x="1460.42" y="-63.5" font-family="FreeSans" font-size="10.00">stream.c</text>
</a>
</g>
</g>
<!-- Node2&#45;&gt;Node24 -->
<g id="edge27" class="edge">
<title>Node2&#45;&gt;Node24</title>
<path fill="none" stroke="midnightblue" d="M1084.72,-165.79C1115.2,-157.49 1156.74,-145.35 1192.42,-132 1212.53,-124.47 1215.96,-118.54 1236.42,-112 1316.2,-86.49 1339.48,-93.42 1421.42,-76 1424.41,-75.36 1427.52,-74.68 1430.63,-73.99"/>
<polygon fill="midnightblue" stroke="midnightblue" points="1083.58,-162.47 1074.84,-168.45 1085.41,-169.23 1083.58,-162.47"/>
</g>
<!-- Node25 -->
<g id="node25" class="node">
<title>Node25</title>
<g id="a_node25"><a xlink:href="studio_8h.html" target="_top" xlink:title=" ">
<polygon fill="white" stroke="black" points="920.42,-112.5 920.42,-131.5 976.42,-131.5 976.42,-112.5 920.42,-112.5"/>
<text text-anchor="middle" x="948.42" y="-119.5" font-family="FreeSans" font-size="10.00">studio.h</text>
</a>
</g>
</g>
<!-- Node2&#45;&gt;Node25 -->
<g id="edge28" class="edge">
<title>Node2&#45;&gt;Node25</title>
<path fill="none" stroke="midnightblue" d="M1017.61,-163.18C1000.5,-153.24 977.95,-140.15 963.32,-131.65"/>
<polygon fill="midnightblue" stroke="midnightblue" points="1016.07,-166.33 1026.47,-168.32 1019.58,-160.28 1016.07,-166.33"/>
</g>
<!-- Node26 -->
<g id="node26" class="node">
<title>Node26</title>
<g id="a_node26"><a xlink:href="wand-view_8c.html" target="_top" xlink:title=" ">
<polygon fill="white" stroke="black" points="1507.92,-56.5 1507.92,-75.5 1584.92,-75.5 1584.92,-56.5 1507.92,-56.5"/>
<text text-anchor="middle" x="1546.42" y="-63.5" font-family="FreeSans" font-size="10.00">wand&#45;view.c</text>
</a>
</g>
</g>
<!-- Node2&#45;&gt;Node26 -->
<g id="edge49" class="edge">
<title>Node2&#45;&gt;Node26</title>
<path fill="none" stroke="midnightblue" d="M1095.74,-166.54C1133.44,-158.65 1184.57,-146.68 1228.42,-132 1249.56,-124.92 1253.02,-118.25 1274.42,-112 1371.62,-83.59 1399.67,-93.53 1499.42,-76 1502.12,-75.53 1504.9,-75.02 1507.71,-74.51"/>
<polygon fill="midnightblue" stroke="midnightblue" points="1094.56,-163.21 1085.48,-168.66 1095.98,-170.06 1094.56,-163.21"/>
</g>
<!-- Node27 -->
<g id="node27" class="node">
<title>Node27</title>
<g id="a_node27"><a xlink:href="wand_8c.html" target="_top" xlink:title=" ">
<polygon fill="white" stroke="black" points="1602.92,-56.5 1602.92,-75.5 1653.92,-75.5 1653.92,-56.5 1602.92,-56.5"/>
<text text-anchor="middle" x="1628.42" y="-63.5" font-family="FreeSans" font-size="10.00">wand.c</text>
</a>
</g>
</g>
<!-- Node2&#45;&gt;Node27 -->
<g id="edge50" class="edge">
<title>Node2&#45;&gt;Node27</title>
<path fill="none" stroke="midnightblue" d="M1095.46,-169.32C1141.32,-162.05 1208.53,-149.62 1265.42,-132 1287.1,-125.29 1290.51,-117.94 1312.42,-112 1434.37,-78.95 1470.41,-100.22 1594.42,-76 1597.17,-75.46 1600.04,-74.83 1602.88,-74.15"/>
<polygon fill="midnightblue" stroke="midnightblue" points="1094.78,-165.88 1085.44,-170.88 1095.86,-172.8 1094.78,-165.88"/>
</g>
<!-- Node16&#45;&gt;Node17 -->
<g id="edge16" class="edge">
<title>Node16&#45;&gt;Node17</title>
<path fill="none" stroke="midnightblue" d="M1823.03,-106.17C1833.5,-98.01 1845.96,-87.27 1855.42,-76 1870.71,-57.77 1883.46,-32.61 1889.56,-19.58"/>
<polygon fill="midnightblue" stroke="midnightblue" points="1820.69,-103.55 1814.82,-112.37 1824.91,-109.14 1820.69,-103.55"/>
</g>
<!-- Node18 -->
<g id="node18" class="node">
<title>Node18</title>
<g id="a_node18"><a xlink:href="pixel-iterator_8h.html" target="_top" xlink:title=" ">
<polygon fill="white" stroke="black" points="1758.42,-56.5 1758.42,-75.5 1846.42,-75.5 1846.42,-56.5 1758.42,-56.5"/>
<text text-anchor="middle" x="1802.42" y="-63.5" font-family="FreeSans" font-size="10.00">pixel&#45;iterator.h</text>
</a>
</g>
</g>
<!-- Node16&#45;&gt;Node18 -->
<g id="edge18" class="edge">
<title>Node16&#45;&gt;Node18</title>
<path fill="none" stroke="midnightblue" d="M1802.42,-101.8C1802.42,-92.91 1802.42,-82.78 1802.42,-75.75"/>
<polygon fill="midnightblue" stroke="midnightblue" points="1798.92,-102.08 1802.42,-112.08 1805.92,-102.08 1798.92,-102.08"/>
</g>
<!-- Node17&#45;&gt;Node2 -->
<g id="edge17" class="edge">
<title>Node17&#45;&gt;Node2</title>
<path fill="none" stroke="midnightblue" d="M1894.04,-29.77C1893.82,-57.24 1888.84,-107.74 1857.42,-132 1796.14,-179.31 1246.26,-178.66 1085.42,-177.44"/>
<polygon fill="midnightblue" stroke="midnightblue" points="1897.54,-29.51 1893.91,-19.55 1890.54,-29.6 1897.54,-29.51"/>
</g>
<!-- Node18&#45;&gt;Node2 -->
<g id="edge19" class="edge">
<title>Node18&#45;&gt;Node2</title>
<path fill="none" stroke="midnightblue" d="M1747.88,-76.09C1585.92,-96.54 1538.61,-70.57 1384.42,-112 1363.67,-117.57 1361.01,-125.9 1340.42,-132 1252.21,-158.13 1144.65,-169.57 1085.57,-174.19"/>
<polygon fill="midnightblue" stroke="midnightblue" points="1748.74,-79.51 1758.21,-74.75 1747.84,-72.57 1748.74,-79.51"/>
</g>
<!-- Node18&#45;&gt;Node17 -->
<g id="edge20" class="edge">
<title>Node18&#45;&gt;Node17</title>
<path fill="none" stroke="midnightblue" d="M1825.71,-51.18C1842.46,-41.24 1864.52,-28.15 1878.83,-19.65"/>
<polygon fill="midnightblue" stroke="midnightblue" points="1823.85,-48.21 1817.04,-56.32 1827.42,-54.23 1823.85,-48.21"/>
</g>
<!-- Node18&#45;&gt;Node19 -->
<g id="edge21" class="edge">
<title>Node18&#45;&gt;Node19</title>
<path fill="none" stroke="midnightblue" d="M1748.21,-55.99C1453.72,-23.36 1111.32,-14.11 991.97,-11.73"/>
<polygon fill="midnightblue" stroke="midnightblue" points="1747.9,-59.48 1758.22,-57.11 1748.67,-52.52 1747.9,-59.48"/>
</g>
<!-- Node25&#45;&gt;Node3 -->
<g id="edge29" class="edge">
<title>Node25&#45;&gt;Node3</title>
<path fill="none" stroke="midnightblue" d="M985.24,-109.3C1017.27,-99.13 1062.93,-84.62 1091.61,-75.52"/>
<polygon fill="midnightblue" stroke="midnightblue" points="983.82,-106.08 975.35,-112.44 985.94,-112.75 983.82,-106.08"/>
</g>
<!-- Node25&#45;&gt;Node4 -->
<g id="edge30" class="edge">
<title>Node25&#45;&gt;Node4</title>
<path fill="none" stroke="midnightblue" d="M986.5,-120.52C1093.6,-118.77 1406.37,-110.81 1663.42,-76 1666.29,-75.61 1669.26,-75.14 1672.23,-74.62"/>
<polygon fill="midnightblue" stroke="midnightblue" points="986.44,-117.02 976.5,-120.68 986.55,-124.02 986.44,-117.02"/>
</g>
<!-- Node25&#45;&gt;Node5 -->
<g id="edge31" class="edge">
<title>Node25&#45;&gt;Node5</title>
<path fill="none" stroke="midnightblue" d="M910.27,-120.83C790.33,-119.9 410.27,-113.93 98.42,-76 95.53,-75.65 92.55,-75.23 89.57,-74.76"/>
<polygon fill="midnightblue" stroke="midnightblue" points="910.39,-124.33 920.41,-120.9 910.44,-117.33 910.39,-124.33"/>
</g>
<!-- Node25&#45;&gt;Node6 -->
<g id="edge32" class="edge">
<title>Node25&#45;&gt;Node6</title>
<path fill="none" stroke="midnightblue" d="M910.09,-120.96C797.34,-120.38 457.17,-115.24 178.42,-76 175.46,-75.58 172.39,-75.06 169.33,-74.48"/>
<polygon fill="midnightblue" stroke="midnightblue" points="910.27,-124.46 920.28,-121.01 910.3,-117.46 910.27,-124.46"/>
</g>
<!-- Node25&#45;&gt;Node7 -->
<g id="edge33" class="edge">
<title>Node25&#45;&gt;Node7</title>
<path fill="none" stroke="midnightblue" d="M910.23,-120.6C805.5,-119.04 505.1,-111.57 258.42,-76 255.6,-75.59 252.68,-75.09 249.77,-74.54"/>
<polygon fill="midnightblue" stroke="midnightblue" points="910.27,-124.1 920.32,-120.74 910.37,-117.1 910.27,-124.1"/>
</g>
<!-- Node25&#45;&gt;Node8 -->
<g id="edge34" class="edge">
<title>Node25&#45;&gt;Node8</title>
<path fill="none" stroke="midnightblue" d="M910.28,-119.69C815.31,-116.1 560.75,-104.39 350.42,-76 347.51,-75.61 344.52,-75.15 341.51,-74.65"/>
<polygon fill="midnightblue" stroke="midnightblue" points="910.15,-123.19 920.27,-120.06 910.41,-116.2 910.15,-123.19"/>
</g>
<!-- Node25&#45;&gt;Node9 -->
<g id="edge35" class="edge">
<title>Node25&#45;&gt;Node9</title>
<path fill="none" stroke="midnightblue" d="M910.24,-119.53C823.93,-115.82 607.35,-104.25 428.42,-76 425.4,-75.52 422.26,-74.94 419.14,-74.31"/>
<polygon fill="midnightblue" stroke="midnightblue" points="910.21,-123.04 920.35,-119.96 910.5,-116.04 910.21,-123.04"/>
</g>
<!-- Node25&#45;&gt;Node10 -->
<g id="edge36" class="edge">
<title>Node25&#45;&gt;Node10</title>
<path fill="none" stroke="midnightblue" d="M910.15,-117.42C837.8,-110.5 676.04,-94.37 540.42,-76 537.49,-75.6 534.48,-75.18 531.45,-74.73"/>
<polygon fill="midnightblue" stroke="midnightblue" points="909.88,-120.91 920.16,-118.37 910.54,-113.94 909.88,-120.91"/>
</g>
<!-- Node25&#45;&gt;Node11 -->
<g id="edge37" class="edge">
<title>Node25&#45;&gt;Node11</title>
<path fill="none" stroke="midnightblue" d="M909.96,-116.91C848.22,-110.08 723.26,-95.2 618.42,-76 615.55,-75.47 612.57,-74.88 609.59,-74.25"/>
<polygon fill="midnightblue" stroke="midnightblue" points="909.71,-120.4 920.03,-118.01 910.47,-113.44 909.71,-120.4"/>
</g>
<!-- Node25&#45;&gt;Node12 -->
<g id="edge38" class="edge">
<title>Node25&#45;&gt;Node12</title>
<path fill="none" stroke="midnightblue" d="M910.35,-115.06C860.38,-107.09 770.02,-92.06 693.42,-76 690.7,-75.43 687.88,-74.81 685.06,-74.16"/>
<polygon fill="midnightblue" stroke="midnightblue" points="909.96,-118.54 920.38,-116.65 911.05,-111.63 909.96,-118.54"/>
</g>
<!-- Node25&#45;&gt;Node13 -->
<g id="edge39" class="edge">
<title>Node25&#45;&gt;Node13</title>
<path fill="none" stroke="midnightblue" d="M910.03,-110.53C872.62,-100.33 816.44,-85.01 781.67,-75.52"/>
<polygon fill="midnightblue" stroke="midnightblue" points="909.48,-114.01 920.05,-113.26 911.32,-107.26 909.48,-114.01"/>
</g>
<!-- Node25&#45;&gt;Node14 -->
<g id="edge40" class="edge">
<title>Node25&#45;&gt;Node14</title>
<path fill="none" stroke="midnightblue" d="M927.12,-106.62C912.5,-96.76 893.59,-83.99 881.24,-75.65"/>
<polygon fill="midnightblue" stroke="midnightblue" points="925.32,-109.63 935.56,-112.32 929.23,-103.83 925.32,-109.63"/>
</g>
<!-- Node25&#45;&gt;Node15 -->
<g id="edge41" class="edge">
<title>Node25&#45;&gt;Node15</title>
<path fill="none" stroke="midnightblue" d="M968.45,-106.38C981.83,-96.62 998.98,-84.11 1010.31,-75.83"/>
<polygon fill="midnightblue" stroke="midnightblue" points="966.32,-103.6 960.31,-112.32 970.45,-109.26 966.32,-103.6"/>
</g>
<!-- Node25&#45;&gt;Node19 -->
<g id="edge44" class="edge">
<title>Node25&#45;&gt;Node19</title>
<path fill="none" stroke="midnightblue" d="M948.42,-102.35C948.42,-78.25 948.42,-37.31 948.42,-19.59"/>
<polygon fill="midnightblue" stroke="midnightblue" points="944.92,-102.37 948.42,-112.37 951.92,-102.37 944.92,-102.37"/>
</g>
<!-- Node25&#45;&gt;Node21 -->
<g id="edge42" class="edge">
<title>Node25&#45;&gt;Node21</title>
<path fill="none" stroke="midnightblue" d="M986.28,-113.06C1028.53,-104.16 1098.91,-89.26 1159.42,-76 1162.48,-75.33 1165.67,-74.62 1168.85,-73.91"/>
<polygon fill="midnightblue" stroke="midnightblue" points="985.49,-109.65 976.43,-115.13 986.93,-116.5 985.49,-109.65"/>
</g>
<!-- Node25&#45;&gt;Node22 -->
<g id="edge43" class="edge">
<title>Node25&#45;&gt;Node22</title>
<path fill="none" stroke="midnightblue" d="M986.57,-115.67C1042.12,-107.78 1148.44,-92.17 1238.42,-76 1241.64,-75.42 1244.99,-74.79 1248.34,-74.14"/>
<polygon fill="midnightblue" stroke="midnightblue" points="985.9,-112.23 976.49,-117.1 986.88,-119.16 985.9,-112.23"/>
</g>
<!-- Node25&#45;&gt;Node23 -->
<g id="edge45" class="edge">
<title>Node25&#45;&gt;Node23</title>
<path fill="none" stroke="midnightblue" d="M987.18,-117.23C1055.64,-110.39 1202.34,-94.86 1325.42,-76 1328.27,-75.56 1331.21,-75.08 1334.16,-74.58"/>
<polygon fill="midnightblue" stroke="midnightblue" points="986.49,-113.78 976.88,-118.26 987.18,-120.75 986.49,-113.78"/>
</g>
<!-- Node25&#45;&gt;Node24 -->
<g id="edge46" class="edge">
<title>Node25&#45;&gt;Node24</title>
<path fill="none" stroke="midnightblue" d="M986.76,-119.07C1067.56,-114.63 1261.08,-102.01 1421.42,-76 1424.43,-75.51 1427.57,-74.92 1430.69,-74.29"/>
<polygon fill="midnightblue" stroke="midnightblue" points="986.37,-115.59 976.57,-119.62 986.74,-122.58 986.37,-115.59"/>
</g>
<!-- Node25&#45;&gt;Node26 -->
<g id="edge47" class="edge">
<title>Node25&#45;&gt;Node26</title>
<path fill="none" stroke="midnightblue" d="M986.89,-119.29C1076.88,-114.97 1307.96,-102.07 1499.42,-76 1502.13,-75.63 1504.93,-75.21 1507.74,-74.75"/>
<polygon fill="midnightblue" stroke="midnightblue" points="986.45,-115.8 976.63,-119.77 986.78,-122.8 986.45,-115.8"/>
</g>
<!-- Node25&#45;&gt;Node27 -->
<g id="edge48" class="edge">
<title>Node25&#45;&gt;Node27</title>
<path fill="none" stroke="midnightblue" d="M986.93,-120.85C1087.54,-119.91 1366.21,-113.8 1594.42,-76 1597.19,-75.54 1600.06,-74.96 1602.91,-74.31"/>
<polygon fill="midnightblue" stroke="midnightblue" points="986.63,-117.35 976.66,-120.93 986.68,-124.35 986.63,-117.35"/>
</g>
</g>
</svg>
