<?xml version="1.0" encoding="UTF-8" standalone="no"?>
<!DOCTYPE svg PUBLIC "-//W3C//DTD SVG 1.1//EN"
 "http://www.w3.org/Graphics/SVG/1.1/DTD/svg11.dtd">
<!-- Generated by graphviz version 2.43.0 (0)
 -->
<!-- Title: magick&#45;wand&#45;private.h Pages: 1 -->
<svg width="985pt" height="84pt"
 viewBox="0.00 0.00 984.50 84.00" xmlns="http://www.w3.org/2000/svg" xmlns:xlink="http://www.w3.org/1999/xlink">
<g id="graph0" class="graph" transform="scale(1 1) rotate(0) translate(4 80)">
<title>magick&#45;wand&#45;private.h</title>
<polygon fill="white" stroke="transparent" points="-4,4 -4,-80 980.5,-80 980.5,4 -4,4"/>
<!-- Node1 -->
<g id="node1" class="node">
<title>Node1</title>
<g id="a_node1"><a xlink:title=" ">
<polygon fill="#bfbfbf" stroke="black" points="468,-56.5 468,-75.5 598,-75.5 598,-56.5 468,-56.5"/>
<text text-anchor="middle" x="533" y="-63.5" font-family="FreeSans" font-size="10.00">magick&#45;wand&#45;private.h</text>
</a>
</g>
</g>
<!-- Node2 -->
<g id="node2" class="node">
<title>Node2</title>
<g id="a_node2"><a xlink:href="deprecate_8c.html" target="_top" xlink:title=" ">
<polygon fill="white" stroke="black" points="0,-0.5 0,-19.5 74,-19.5 74,-0.5 0,-0.5"/>
<text text-anchor="middle" x="37" y="-7.5" font-family="FreeSans" font-size="10.00">deprecate.c</text>
</a>
</g>
</g>
<!-- Node1&#45;&gt;Node2 -->
<g id="edge1" class="edge">
<title>Node1&#45;&gt;Node2</title>
<path fill="none" stroke="midnightblue" d="M457.87,-59.65C368.31,-52.77 214.26,-39.36 83,-20 80.1,-19.57 77.11,-19.09 74.11,-18.57"/>
<polygon fill="midnightblue" stroke="midnightblue" points="457.7,-63.14 467.93,-60.41 458.23,-56.16 457.7,-63.14"/>
</g>
<!-- Node3 -->
<g id="node3" class="node">
<title>Node3</title>
<g id="a_node3"><a xlink:href="drawing-wand_8c.html" target="_top" xlink:title=" ">
<polygon fill="white" stroke="black" points="92,-0.5 92,-19.5 186,-19.5 186,-0.5 92,-0.5"/>
<text text-anchor="middle" x="139" y="-7.5" font-family="FreeSans" font-size="10.00">drawing&#45;wand.c</text>
</a>
</g>
</g>
<!-- Node1&#45;&gt;Node3 -->
<g id="edge2" class="edge">
<title>Node1&#45;&gt;Node3</title>
<path fill="none" stroke="midnightblue" d="M457.54,-55.55C388.99,-46.82 285.11,-33.24 195,-20 192.08,-19.57 189.07,-19.12 186.04,-18.65"/>
<polygon fill="midnightblue" stroke="midnightblue" points="457.45,-59.06 467.81,-56.85 458.34,-52.12 457.45,-59.06"/>
</g>
<!-- Node4 -->
<g id="node4" class="node">
<title>Node4</title>
<g id="a_node4"><a xlink:href="magick-image_8c.html" target="_top" xlink:title=" ">
<polygon fill="white" stroke="black" points="204.5,-0.5 204.5,-19.5 299.5,-19.5 299.5,-0.5 204.5,-0.5"/>
<text text-anchor="middle" x="252" y="-7.5" font-family="FreeSans" font-size="10.00">magick&#45;image.c</text>
</a>
</g>
</g>
<!-- Node1&#45;&gt;Node4 -->
<g id="edge3" class="edge">
<title>Node1&#45;&gt;Node4</title>
<path fill="none" stroke="midnightblue" d="M478.55,-54.54C425.45,-44.33 345.66,-29 296.32,-19.52"/>
<polygon fill="midnightblue" stroke="midnightblue" points="477.99,-57.99 488.47,-56.44 479.31,-51.12 477.99,-57.99"/>
</g>
<!-- Node5 -->
<g id="node5" class="node">
<title>Node5</title>
<g id="a_node5"><a xlink:href="magick-property_8c.html" target="_top" xlink:title=" ">
<polygon fill="white" stroke="black" points="318,-0.5 318,-19.5 422,-19.5 422,-0.5 318,-0.5"/>
<text text-anchor="middle" x="370" y="-7.5" font-family="FreeSans" font-size="10.00">magick&#45;property.c</text>
</a>
</g>
</g>
<!-- Node1&#45;&gt;Node5 -->
<g id="edge4" class="edge">
<title>Node1&#45;&gt;Node5</title>
<path fill="none" stroke="midnightblue" d="M497.3,-53.17C466.6,-43 423.08,-28.59 395.71,-19.52"/>
<polygon fill="midnightblue" stroke="midnightblue" points="496.58,-56.62 507.17,-56.44 498.78,-49.98 496.58,-56.62"/>
</g>
<!-- Node6 -->
<g id="node6" class="node">
<title>Node6</title>
<g id="a_node6"><a xlink:href="magick-wand_8c.html" target="_top" xlink:title=" ">
<polygon fill="white" stroke="black" points="440.5,-0.5 440.5,-19.5 531.5,-19.5 531.5,-0.5 440.5,-0.5"/>
<text text-anchor="middle" x="486" y="-7.5" font-family="FreeSans" font-size="10.00">magick&#45;wand.c</text>
</a>
</g>
</g>
<!-- Node1&#45;&gt;Node6 -->
<g id="edge5" class="edge">
<title>Node1&#45;&gt;Node6</title>
<path fill="none" stroke="midnightblue" d="M518.58,-48.43C510.34,-38.97 500.35,-27.48 493.62,-19.75"/>
<polygon fill="midnightblue" stroke="midnightblue" points="516.03,-50.84 525.24,-56.08 521.31,-46.24 516.03,-50.84"/>
</g>
<!-- Node7 -->
<g id="node7" class="node">
<title>Node7</title>
<g id="a_node7"><a xlink:href="mogrify_8c.html" target="_top" xlink:title=" ">
<polygon fill="white" stroke="black" points="549.5,-0.5 549.5,-19.5 610.5,-19.5 610.5,-0.5 549.5,-0.5"/>
<text text-anchor="middle" x="580" y="-7.5" font-family="FreeSans" font-size="10.00">mogrify.c</text>
</a>
</g>
</g>
<!-- Node1&#45;&gt;Node7 -->
<g id="edge6" class="edge">
<title>Node1&#45;&gt;Node7</title>
<path fill="none" stroke="midnightblue" d="M547.42,-48.43C555.66,-38.97 565.65,-27.48 572.38,-19.75"/>
<polygon fill="midnightblue" stroke="midnightblue" points="544.69,-46.24 540.76,-56.08 549.97,-50.84 544.69,-46.24"/>
</g>
<!-- Node8 -->
<g id="node8" class="node">
<title>Node8</title>
<g id="a_node8"><a xlink:href="pixel-iterator_8c.html" target="_top" xlink:title=" ">
<polygon fill="white" stroke="black" points="628.5,-0.5 628.5,-19.5 715.5,-19.5 715.5,-0.5 628.5,-0.5"/>
<text text-anchor="middle" x="672" y="-7.5" font-family="FreeSans" font-size="10.00">pixel&#45;iterator.c</text>
</a>
</g>
</g>
<!-- Node1&#45;&gt;Node8 -->
<g id="edge7" class="edge">
<title>Node1&#45;&gt;Node8</title>
<path fill="none" stroke="midnightblue" d="M564.48,-52.77C590.59,-42.63 627.04,-28.47 650.08,-19.52"/>
<polygon fill="midnightblue" stroke="midnightblue" points="563.08,-49.56 555.02,-56.44 565.61,-56.08 563.08,-49.56"/>
</g>
<!-- Node9 -->
<g id="node9" class="node">
<title>Node9</title>
<g id="a_node9"><a xlink:href="pixel-wand_8c.html" target="_top" xlink:title=" ">
<polygon fill="white" stroke="black" points="734,-0.5 734,-19.5 812,-19.5 812,-0.5 734,-0.5"/>
<text text-anchor="middle" x="773" y="-7.5" font-family="FreeSans" font-size="10.00">pixel&#45;wand.c</text>
</a>
</g>
</g>
<!-- Node1&#45;&gt;Node9 -->
<g id="edge8" class="edge">
<title>Node1&#45;&gt;Node9</title>
<path fill="none" stroke="midnightblue" d="M580.92,-54.22C626.27,-44.01 693.44,-28.9 735.15,-19.52"/>
<polygon fill="midnightblue" stroke="midnightblue" points="580.02,-50.83 571.03,-56.44 581.55,-57.66 580.02,-50.83"/>
</g>
<!-- Node10 -->
<g id="node10" class="node">
<title>Node10</title>
<g id="a_node10"><a xlink:href="wand-view_8c.html" target="_top" xlink:title=" ">
<polygon fill="white" stroke="black" points="830.5,-0.5 830.5,-19.5 907.5,-19.5 907.5,-0.5 830.5,-0.5"/>
<text text-anchor="middle" x="869" y="-7.5" font-family="FreeSans" font-size="10.00">wand&#45;view.c</text>
</a>
</g>
</g>
<!-- Node1&#45;&gt;Node10 -->
<g id="edge9" class="edge">
<title>Node1&#45;&gt;Node10</title>
<path fill="none" stroke="midnightblue" d="M601.22,-54.94C659.63,-46.18 745.95,-32.9 821,-20 824.01,-19.48 827.12,-18.93 830.25,-18.37"/>
<polygon fill="midnightblue" stroke="midnightblue" points="600.38,-51.52 591.01,-56.47 601.41,-58.45 600.38,-51.52"/>
</g>
<!-- Node11 -->
<g id="node11" class="node">
<title>Node11</title>
<g id="a_node11"><a xlink:href="wand_8c.html" target="_top" xlink:title=" ">
<polygon fill="white" stroke="black" points="925.5,-0.5 925.5,-19.5 976.5,-19.5 976.5,-0.5 925.5,-0.5"/>
<text text-anchor="middle" x="951" y="-7.5" font-family="FreeSans" font-size="10.00">wand.c</text>
</a>
</g>
</g>
<!-- Node1&#45;&gt;Node11 -->
<g id="edge10" class="edge">
<title>Node1&#45;&gt;Node11</title>
<path fill="none" stroke="midnightblue" d="M608.5,-59.34C686.29,-52.77 810.82,-40.17 917,-20 919.76,-19.48 922.63,-18.85 925.47,-18.17"/>
<polygon fill="midnightblue" stroke="midnightblue" points="607.99,-55.87 598.31,-60.19 608.57,-62.85 607.99,-55.87"/>
</g>
</g>
</svg>
