<?xml version="1.0" encoding="UTF-8" standalone="no"?>
<!DOCTYPE svg PUBLIC "-//W3C//DTD SVG 1.1//EN"
 "http://www.w3.org/Graphics/SVG/1.1/DTD/svg11.dtd">
<!-- Generated by graphviz version 2.43.0 (0)
 -->
<!-- Title: magick&#45;wand.h Pages: 1 -->
<svg width="2883pt" height="252pt"
 viewBox="0.00 0.00 2882.50 252.00" xmlns="http://www.w3.org/2000/svg" xmlns:xlink="http://www.w3.org/1999/xlink">
<g id="graph0" class="graph" transform="scale(1 1) rotate(0) translate(4 248)">
<title>magick&#45;wand.h</title>
<polygon fill="white" stroke="transparent" points="-4,4 -4,-248 2878.5,-248 2878.5,4 -4,4"/>
<!-- Node1 -->
<g id="node1" class="node">
<title>Node1</title>
<g id="a_node1"><a xlink:title=" ">
<polygon fill="#bfbfbf" stroke="black" points="2690,-224.5 2690,-243.5 2782,-243.5 2782,-224.5 2690,-224.5"/>
<text text-anchor="middle" x="2736" y="-231.5" font-family="FreeSans" font-size="10.00">magick&#45;wand.h</text>
</a>
</g>
</g>
<!-- Node2 -->
<g id="node2" class="node">
<title>Node2</title>
<g id="a_node2"><a xlink:href="MagickWand_8h.html" target="_top" xlink:title=" ">
<polygon fill="white" stroke="black" points="1455.5,-168.5 1455.5,-187.5 1572.5,-187.5 1572.5,-168.5 1455.5,-168.5"/>
<text text-anchor="middle" x="1514" y="-175.5" font-family="FreeSans" font-size="10.00">wand/MagickWand.h</text>
</a>
</g>
</g>
<!-- Node1&#45;&gt;Node2 -->
<g id="edge1" class="edge">
<title>Node1&#45;&gt;Node2</title>
<path fill="none" stroke="midnightblue" d="M2689.96,-230.97C2503.74,-222.74 1805.71,-191.89 1582.85,-182.04"/>
<polygon fill="midnightblue" stroke="midnightblue" points="1582.74,-178.53 1572.6,-181.59 1582.43,-185.53 1582.74,-178.53"/>
</g>
<!-- Node3 -->
<g id="node3" class="node">
<title>Node3</title>
<g id="a_node3"><a xlink:title=" ">
<polygon fill="white" stroke="#bfbfbf" points="1102,-112.5 1102,-131.5 1236,-131.5 1236,-112.5 1102,-112.5"/>
<text text-anchor="middle" x="1169" y="-119.5" font-family="FreeSans" font-size="10.00">magick/magick&#45;config.h</text>
</a>
</g>
</g>
<!-- Node2&#45;&gt;Node3 -->
<g id="edge2" class="edge">
<title>Node2&#45;&gt;Node3</title>
<path fill="none" stroke="midnightblue" d="M1459.33,-168.44C1398.01,-158.85 1298.64,-143.29 1233.55,-133.1"/>
<polygon fill="midnightblue" stroke="midnightblue" points="1233.83,-129.61 1223.41,-131.52 1232.75,-136.52 1233.83,-129.61"/>
</g>
<!-- Node4 -->
<g id="node4" class="node">
<title>Node4</title>
<g id="a_node4"><a xlink:title=" ">
<polygon fill="white" stroke="#bfbfbf" points="2330,-112.5 2330,-131.5 2380,-131.5 2380,-112.5 2330,-112.5"/>
<text text-anchor="middle" x="2355" y="-119.5" font-family="FreeSans" font-size="10.00">stdio.h</text>
</a>
</g>
</g>
<!-- Node2&#45;&gt;Node4 -->
<g id="edge3" class="edge">
<title>Node2&#45;&gt;Node4</title>
<path fill="none" stroke="midnightblue" d="M1572.57,-177.64C1706.03,-178.25 2042.66,-174.97 2320,-132 2320.1,-131.98 2320.2,-131.97 2320.3,-131.95"/>
<polygon fill="midnightblue" stroke="midnightblue" points="2320.74,-135.43 2329.89,-130.09 2319.4,-128.56 2320.74,-135.43"/>
</g>
<!-- Node5 -->
<g id="node5" class="node">
<title>Node5</title>
<g id="a_node5"><a xlink:title=" ">
<polygon fill="white" stroke="#bfbfbf" points="2398,-112.5 2398,-131.5 2454,-131.5 2454,-112.5 2398,-112.5"/>
<text text-anchor="middle" x="2426" y="-119.5" font-family="FreeSans" font-size="10.00">stdarg.h</text>
</a>
</g>
</g>
<!-- Node2&#45;&gt;Node5 -->
<g id="edge4" class="edge">
<title>Node2&#45;&gt;Node5</title>
<path fill="none" stroke="midnightblue" d="M1572.74,-177.76C1712.6,-178.75 2076.28,-176.55 2387.7,-131.9"/>
<polygon fill="midnightblue" stroke="midnightblue" points="2388.43,-135.33 2397.83,-130.43 2387.43,-128.4 2388.43,-135.33"/>
</g>
<!-- Node6 -->
<g id="node6" class="node">
<title>Node6</title>
<g id="a_node6"><a xlink:title=" ">
<polygon fill="white" stroke="#bfbfbf" points="2472.5,-112.5 2472.5,-131.5 2525.5,-131.5 2525.5,-112.5 2472.5,-112.5"/>
<text text-anchor="middle" x="2499" y="-119.5" font-family="FreeSans" font-size="10.00">stdlib.h</text>
</a>
</g>
</g>
<!-- Node2&#45;&gt;Node6 -->
<g id="edge5" class="edge">
<title>Node2&#45;&gt;Node6</title>
<path fill="none" stroke="midnightblue" d="M1572.5,-175.74C1748.31,-171.72 2271.01,-157.99 2462.43,-131.7"/>
<polygon fill="midnightblue" stroke="midnightblue" points="2462.98,-135.16 2472.38,-130.28 2461.99,-128.23 2462.98,-135.16"/>
</g>
<!-- Node7 -->
<g id="node7" class="node">
<title>Node7</title>
<g id="a_node7"><a xlink:title=" ">
<polygon fill="white" stroke="#bfbfbf" points="2543.5,-112.5 2543.5,-131.5 2596.5,-131.5 2596.5,-112.5 2543.5,-112.5"/>
<text text-anchor="middle" x="2570" y="-119.5" font-family="FreeSans" font-size="10.00">stdint.h</text>
</a>
</g>
</g>
<!-- Node2&#45;&gt;Node7 -->
<g id="edge6" class="edge">
<title>Node2&#45;&gt;Node7</title>
<path fill="none" stroke="midnightblue" d="M1572.53,-175.96C1757.22,-172.45 2327.07,-159.73 2533.26,-131.72"/>
<polygon fill="midnightblue" stroke="midnightblue" points="2533.97,-135.15 2543.38,-130.29 2532.99,-128.22 2533.97,-135.15"/>
</g>
<!-- Node8 -->
<g id="node8" class="node">
<title>Node8</title>
<g id="a_node8"><a xlink:title=" ">
<polygon fill="white" stroke="#bfbfbf" points="2614.5,-112.5 2614.5,-131.5 2665.5,-131.5 2665.5,-112.5 2614.5,-112.5"/>
<text text-anchor="middle" x="2640" y="-119.5" font-family="FreeSans" font-size="10.00">math.h</text>
</a>
</g>
</g>
<!-- Node2&#45;&gt;Node8 -->
<g id="edge7" class="edge">
<title>Node2&#45;&gt;Node8</title>
<path fill="none" stroke="midnightblue" d="M1572.79,-176.21C1766.36,-173.34 2383.46,-162.13 2603.93,-131.76"/>
<polygon fill="midnightblue" stroke="midnightblue" points="2604.73,-135.18 2614.13,-130.3 2603.74,-128.25 2604.73,-135.18"/>
</g>
<!-- Node9 -->
<g id="node9" class="node">
<title>Node9</title>
<g id="a_node9"><a xlink:title=" ">
<polygon fill="white" stroke="#bfbfbf" points="0,-112.5 0,-131.5 72,-131.5 72,-112.5 0,-112.5"/>
<text text-anchor="middle" x="36" y="-119.5" font-family="FreeSans" font-size="10.00">sys/types.h</text>
</a>
</g>
</g>
<!-- Node2&#45;&gt;Node9 -->
<g id="edge8" class="edge">
<title>Node2&#45;&gt;Node9</title>
<path fill="none" stroke="midnightblue" d="M1455.5,-176.46C1224.44,-174.12 374.19,-163.61 82.41,-131.93"/>
<polygon fill="midnightblue" stroke="midnightblue" points="82.59,-128.43 72.27,-130.79 81.82,-135.38 82.59,-128.43"/>
</g>
<!-- Node10 -->
<g id="node10" class="node">
<title>Node10</title>
<g id="a_node10"><a xlink:title=" ">
<polygon fill="white" stroke="#bfbfbf" points="90,-112.5 90,-131.5 138,-131.5 138,-112.5 90,-112.5"/>
<text text-anchor="middle" x="114" y="-119.5" font-family="FreeSans" font-size="10.00">time.h</text>
</a>
</g>
</g>
<!-- Node2&#45;&gt;Node10 -->
<g id="edge9" class="edge">
<title>Node2&#45;&gt;Node10</title>
<path fill="none" stroke="midnightblue" d="M1455.44,-176.89C1231.04,-176.18 425.14,-171.03 148.04,-131.72"/>
<polygon fill="midnightblue" stroke="midnightblue" points="148.41,-128.24 138.01,-130.24 147.4,-135.16 148.41,-128.24"/>
</g>
<!-- Node11 -->
<g id="node11" class="node">
<title>Node11</title>
<g id="a_node11"><a xlink:href="method-attribute_8h.html" target="_top" xlink:title=" ">
<polygon fill="white" stroke="black" points="156,-112.5 156,-131.5 294,-131.5 294,-112.5 156,-112.5"/>
<text text-anchor="middle" x="225" y="-119.5" font-family="FreeSans" font-size="10.00">wand/method&#45;attribute.h</text>
</a>
</g>
</g>
<!-- Node2&#45;&gt;Node11 -->
<g id="edge10" class="edge">
<title>Node2&#45;&gt;Node11</title>
<path fill="none" stroke="midnightblue" d="M1455.31,-176.44C1281.35,-174.42 753.19,-165.8 304.55,-132.06"/>
<polygon fill="midnightblue" stroke="midnightblue" points="304.53,-128.54 294.3,-131.28 304,-135.52 304.53,-128.54"/>
</g>
<!-- Node12 -->
<g id="node12" class="node">
<title>Node12</title>
<g id="a_node12"><a xlink:title=" ">
<polygon fill="white" stroke="#bfbfbf" points="312,-112.5 312,-131.5 434,-131.5 434,-112.5 312,-112.5"/>
<text text-anchor="middle" x="373" y="-119.5" font-family="FreeSans" font-size="10.00">magick/MagickCore.h</text>
</a>
</g>
</g>
<!-- Node2&#45;&gt;Node12 -->
<g id="edge11" class="edge">
<title>Node2&#45;&gt;Node12</title>
<path fill="none" stroke="midnightblue" d="M1455.26,-176.3C1294.93,-174.02 836.16,-164.95 444.17,-132.02"/>
<polygon fill="midnightblue" stroke="midnightblue" points="444.31,-128.52 434.05,-131.16 443.72,-135.49 444.31,-128.52"/>
</g>
<!-- Node13 -->
<g id="node13" class="node">
<title>Node13</title>
<g id="a_node13"><a xlink:href="animate_8h.html" target="_top" xlink:title=" ">
<polygon fill="white" stroke="black" points="452.5,-112.5 452.5,-131.5 547.5,-131.5 547.5,-112.5 452.5,-112.5"/>
<text text-anchor="middle" x="500" y="-119.5" font-family="FreeSans" font-size="10.00">wand/animate.h</text>
</a>
</g>
</g>
<!-- Node2&#45;&gt;Node13 -->
<g id="edge12" class="edge">
<title>Node2&#45;&gt;Node13</title>
<path fill="none" stroke="midnightblue" d="M1455.3,-176.48C1306.76,-174.67 903.77,-166.78 557.51,-131.92"/>
<polygon fill="midnightblue" stroke="midnightblue" points="557.84,-128.43 547.53,-130.9 557.13,-135.4 557.84,-128.43"/>
</g>
<!-- Node14 -->
<g id="node14" class="node">
<title>Node14</title>
<g id="a_node14"><a xlink:href="compare_8h.html" target="_top" xlink:title=" ">
<polygon fill="white" stroke="black" points="566,-112.5 566,-131.5 664,-131.5 664,-112.5 566,-112.5"/>
<text text-anchor="middle" x="615" y="-119.5" font-family="FreeSans" font-size="10.00">wand/compare.h</text>
</a>
</g>
</g>
<!-- Node2&#45;&gt;Node14 -->
<g id="edge13" class="edge">
<title>Node2&#45;&gt;Node14</title>
<path fill="none" stroke="midnightblue" d="M1455.47,-175.89C1319.91,-172.89 973.75,-162.71 674.19,-132.01"/>
<polygon fill="midnightblue" stroke="midnightblue" points="674.31,-128.51 664,-130.96 673.59,-135.47 674.31,-128.51"/>
</g>
<!-- Node15 -->
<g id="node15" class="node">
<title>Node15</title>
<g id="a_node15"><a xlink:href="composite_8h.html" target="_top" xlink:title=" ">
<polygon fill="white" stroke="black" points="682,-112.5 682,-131.5 788,-131.5 788,-112.5 682,-112.5"/>
<text text-anchor="middle" x="735" y="-119.5" font-family="FreeSans" font-size="10.00">wand/composite.h</text>
</a>
</g>
</g>
<!-- Node2&#45;&gt;Node15 -->
<g id="edge14" class="edge">
<title>Node2&#45;&gt;Node15</title>
<path fill="none" stroke="midnightblue" d="M1455.31,-174.94C1334.37,-170.34 1048.44,-157.64 798.08,-132.03"/>
<polygon fill="midnightblue" stroke="midnightblue" points="798.37,-128.54 788.06,-130.99 797.65,-135.5 798.37,-128.54"/>
</g>
<!-- Node16 -->
<g id="node16" class="node">
<title>Node16</title>
<g id="a_node16"><a xlink:href="conjure_8h.html" target="_top" xlink:title=" ">
<polygon fill="white" stroke="black" points="806.5,-112.5 806.5,-131.5 897.5,-131.5 897.5,-112.5 806.5,-112.5"/>
<text text-anchor="middle" x="852" y="-119.5" font-family="FreeSans" font-size="10.00">wand/conjure.h</text>
</a>
</g>
</g>
<!-- Node2&#45;&gt;Node16 -->
<g id="edge15" class="edge">
<title>Node2&#45;&gt;Node16</title>
<path fill="none" stroke="midnightblue" d="M1455.24,-174.37C1348.42,-169.21 1115.1,-156.21 907.74,-131.98"/>
<polygon fill="midnightblue" stroke="midnightblue" points="907.92,-128.47 897.57,-130.78 907.1,-135.42 907.92,-128.47"/>
</g>
<!-- Node17 -->
<g id="node17" class="node">
<title>Node17</title>
<g id="a_node17"><a xlink:href="convert_8h.html" target="_top" xlink:title=" ">
<polygon fill="white" stroke="black" points="916,-112.5 916,-131.5 1008,-131.5 1008,-112.5 916,-112.5"/>
<text text-anchor="middle" x="962" y="-119.5" font-family="FreeSans" font-size="10.00">wand/convert.h</text>
</a>
</g>
</g>
<!-- Node2&#45;&gt;Node17 -->
<g id="edge16" class="edge">
<title>Node2&#45;&gt;Node17</title>
<path fill="none" stroke="midnightblue" d="M1455.19,-172.72C1362.79,-165.76 1178.05,-150.82 1022,-132 1020.74,-131.85 1019.46,-131.69 1018.17,-131.53"/>
<polygon fill="midnightblue" stroke="midnightblue" points="1018.52,-128.04 1008.15,-130.2 1017.6,-134.98 1018.52,-128.04"/>
</g>
<!-- Node18 -->
<g id="node18" class="node">
<title>Node18</title>
<g id="a_node18"><a xlink:href="deprecate_8h.html" target="_top" xlink:title=" ">
<polygon fill="white" stroke="black" points="2684,-112.5 2684,-131.5 2788,-131.5 2788,-112.5 2684,-112.5"/>
<text text-anchor="middle" x="2736" y="-119.5" font-family="FreeSans" font-size="10.00">wand/deprecate.h</text>
</a>
</g>
</g>
<!-- Node2&#45;&gt;Node18 -->
<g id="edge17" class="edge">
<title>Node2&#45;&gt;Node18</title>
<path fill="none" stroke="midnightblue" d="M1572.68,-176.91C1743.17,-176.16 2253.04,-170.61 2674,-132 2674.1,-131.99 2674.2,-131.98 2674.3,-131.97"/>
<polygon fill="midnightblue" stroke="midnightblue" points="2674.37,-135.48 2683.95,-130.96 2673.64,-128.52 2674.37,-135.48"/>
</g>
<!-- Node19 -->
<g id="node19" class="node">
<title>Node19</title>
<g id="a_node19"><a xlink:href="drawing-wand_8h.html" target="_top" xlink:title=" ">
<polygon fill="white" stroke="black" points="2577,-56.5 2577,-75.5 2701,-75.5 2701,-56.5 2577,-56.5"/>
<text text-anchor="middle" x="2639" y="-63.5" font-family="FreeSans" font-size="10.00">wand/drawing&#45;wand.h</text>
</a>
</g>
</g>
<!-- Node2&#45;&gt;Node19 -->
<g id="edge26" class="edge">
<title>Node2&#45;&gt;Node19</title>
<path fill="none" stroke="midnightblue" d="M1455.46,-176.65C1328.13,-174.91 1041.41,-165.12 1093,-112 1118.97,-85.26 2263.71,-71.05 2566.28,-67.75"/>
<polygon fill="midnightblue" stroke="midnightblue" points="2566.73,-71.25 2576.69,-67.64 2566.65,-64.25 2566.73,-71.25"/>
</g>
<!-- Node20 -->
<g id="node20" class="node">
<title>Node20</title>
<g id="a_node20"><a xlink:href="pixel-wand_8h.html" target="_top" xlink:title=" ">
<polygon fill="white" stroke="black" points="2630,-0.5 2630,-19.5 2738,-19.5 2738,-0.5 2630,-0.5"/>
<text text-anchor="middle" x="2684" y="-7.5" font-family="FreeSans" font-size="10.00">wand/pixel&#45;wand.h</text>
</a>
</g>
</g>
<!-- Node2&#45;&gt;Node20 -->
<g id="edge34" class="edge">
<title>Node2&#45;&gt;Node20</title>
<path fill="none" stroke="midnightblue" d="M1455.17,-176.96C1325.6,-175.87 1031.01,-167.37 1083,-112 1136.49,-55.03 2327.02,-20.32 2619.53,-12.63"/>
<polygon fill="midnightblue" stroke="midnightblue" points="2619.65,-16.13 2629.56,-12.36 2619.47,-9.13 2619.65,-16.13"/>
</g>
<!-- Node21 -->
<g id="node21" class="node">
<title>Node21</title>
<g id="a_node21"><a xlink:href="pixel-iterator_8h.html" target="_top" xlink:title=" ">
<polygon fill="white" stroke="black" points="2757.5,-56.5 2757.5,-75.5 2874.5,-75.5 2874.5,-56.5 2757.5,-56.5"/>
<text text-anchor="middle" x="2816" y="-63.5" font-family="FreeSans" font-size="10.00">wand/pixel&#45;iterator.h</text>
</a>
</g>
</g>
<!-- Node2&#45;&gt;Node21 -->
<g id="edge33" class="edge">
<title>Node2&#45;&gt;Node21</title>
<path fill="none" stroke="midnightblue" d="M1572.88,-176.84C1818.15,-175.93 2748.14,-169.98 2797,-132 2810.76,-121.31 2814.95,-101.21 2816.05,-86.18"/>
<polygon fill="midnightblue" stroke="midnightblue" points="2819.56,-86.02 2816.39,-75.91 2812.56,-85.79 2819.56,-86.02"/>
</g>
<!-- Node22 -->
<g id="node22" class="node">
<title>Node22</title>
<g id="a_node22"><a xlink:href="display_8h.html" target="_top" xlink:title=" ">
<polygon fill="white" stroke="black" points="1254.5,-112.5 1254.5,-131.5 1343.5,-131.5 1343.5,-112.5 1254.5,-112.5"/>
<text text-anchor="middle" x="1299" y="-119.5" font-family="FreeSans" font-size="10.00">wand/display.h</text>
</a>
</g>
</g>
<!-- Node2&#45;&gt;Node22 -->
<g id="edge25" class="edge">
<title>Node2&#45;&gt;Node22</title>
<path fill="none" stroke="midnightblue" d="M1479.93,-168.44C1442.82,-159.12 1383.34,-144.18 1342.79,-134"/>
<polygon fill="midnightblue" stroke="midnightblue" points="1343.46,-130.56 1332.91,-131.52 1341.75,-137.35 1343.46,-130.56"/>
</g>
<!-- Node23 -->
<g id="node23" class="node">
<title>Node23</title>
<g id="a_node23"><a xlink:href="identify_8h.html" target="_top" xlink:title=" ">
<polygon fill="white" stroke="black" points="1362,-112.5 1362,-131.5 1452,-131.5 1452,-112.5 1362,-112.5"/>
<text text-anchor="middle" x="1407" y="-119.5" font-family="FreeSans" font-size="10.00">wand/identify.h</text>
</a>
</g>
</g>
<!-- Node2&#45;&gt;Node23 -->
<g id="edge27" class="edge">
<title>Node2&#45;&gt;Node23</title>
<path fill="none" stroke="midnightblue" d="M1496.81,-168.32C1479.65,-159.66 1453.05,-146.24 1433.25,-136.25"/>
<polygon fill="midnightblue" stroke="midnightblue" points="1434.65,-133.04 1424.15,-131.65 1431.5,-139.28 1434.65,-133.04"/>
</g>
<!-- Node24 -->
<g id="node24" class="node">
<title>Node24</title>
<g id="a_node24"><a xlink:href="import_8h.html" target="_top" xlink:title=" ">
<polygon fill="white" stroke="black" points="1470.5,-112.5 1470.5,-131.5 1557.5,-131.5 1557.5,-112.5 1470.5,-112.5"/>
<text text-anchor="middle" x="1514" y="-119.5" font-family="FreeSans" font-size="10.00">wand/import.h</text>
</a>
</g>
</g>
<!-- Node2&#45;&gt;Node24 -->
<g id="edge28" class="edge">
<title>Node2&#45;&gt;Node24</title>
<path fill="none" stroke="midnightblue" d="M1514,-168.08C1514,-161.01 1514,-150.86 1514,-141.99"/>
<polygon fill="midnightblue" stroke="midnightblue" points="1517.5,-141.75 1514,-131.75 1510.5,-141.75 1517.5,-141.75"/>
</g>
<!-- Node25 -->
<g id="node25" class="node">
<title>Node25</title>
<g id="a_node25"><a xlink:href="magick-property_8h.html" target="_top" xlink:title=" ">
<polygon fill="white" stroke="black" points="1576,-112.5 1576,-131.5 1710,-131.5 1710,-112.5 1576,-112.5"/>
<text text-anchor="middle" x="1643" y="-119.5" font-family="FreeSans" font-size="10.00">wand/magick&#45;property.h</text>
</a>
</g>
</g>
<!-- Node2&#45;&gt;Node25 -->
<g id="edge29" class="edge">
<title>Node2&#45;&gt;Node25</title>
<path fill="none" stroke="midnightblue" d="M1534.44,-168.44C1555.67,-159.56 1589.1,-145.56 1613.25,-135.45"/>
<polygon fill="midnightblue" stroke="midnightblue" points="1614.78,-138.61 1622.66,-131.52 1612.08,-132.15 1614.78,-138.61"/>
</g>
<!-- Node26 -->
<g id="node26" class="node">
<title>Node26</title>
<g id="a_node26"><a xlink:href="magick-image_8h.html" target="_top" xlink:title=" ">
<polygon fill="white" stroke="black" points="1728.5,-112.5 1728.5,-131.5 1853.5,-131.5 1853.5,-112.5 1728.5,-112.5"/>
<text text-anchor="middle" x="1791" y="-119.5" font-family="FreeSans" font-size="10.00">wand/magick&#45;image.h</text>
</a>
</g>
</g>
<!-- Node2&#45;&gt;Node26 -->
<g id="edge30" class="edge">
<title>Node2&#45;&gt;Node26</title>
<path fill="none" stroke="midnightblue" d="M1557.89,-168.44C1606.52,-158.96 1684.95,-143.67 1737.22,-133.48"/>
<polygon fill="midnightblue" stroke="midnightblue" points="1738.17,-136.87 1747.31,-131.52 1736.83,-129.99 1738.17,-136.87"/>
</g>
<!-- Node27 -->
<g id="node27" class="node">
<title>Node27</title>
<g id="a_node27"><a xlink:href="mogrify_8h.html" target="_top" xlink:title=" ">
<polygon fill="white" stroke="black" points="1871.5,-112.5 1871.5,-131.5 1962.5,-131.5 1962.5,-112.5 1871.5,-112.5"/>
<text text-anchor="middle" x="1917" y="-119.5" font-family="FreeSans" font-size="10.00">wand/mogrify.h</text>
</a>
</g>
</g>
<!-- Node2&#45;&gt;Node27 -->
<g id="edge31" class="edge">
<title>Node2&#45;&gt;Node27</title>
<path fill="none" stroke="midnightblue" d="M1572.58,-170.03C1639.71,-161.92 1753.3,-147.76 1861.3,-132.06"/>
<polygon fill="midnightblue" stroke="midnightblue" points="1862.01,-135.49 1871.4,-130.58 1861,-128.57 1862.01,-135.49"/>
</g>
<!-- Node28 -->
<g id="node28" class="node">
<title>Node28</title>
<g id="a_node28"><a xlink:href="montage_8h.html" target="_top" xlink:title=" ">
<polygon fill="white" stroke="black" points="1981,-112.5 1981,-131.5 2079,-131.5 2079,-112.5 1981,-112.5"/>
<text text-anchor="middle" x="2030" y="-119.5" font-family="FreeSans" font-size="10.00">wand/montage.h</text>
</a>
</g>
</g>
<!-- Node2&#45;&gt;Node28 -->
<g id="edge32" class="edge">
<title>Node2&#45;&gt;Node28</title>
<path fill="none" stroke="midnightblue" d="M1572.54,-172.24C1657.63,-165.1 1820.68,-150.58 1970.47,-132"/>
<polygon fill="midnightblue" stroke="midnightblue" points="1971.28,-135.42 1980.77,-130.71 1970.42,-128.48 1971.28,-135.42"/>
</g>
<!-- Node29 -->
<g id="node29" class="node">
<title>Node29</title>
<g id="a_node29"><a xlink:href="stream_8h.html" target="_top" xlink:title=" ">
<polygon fill="white" stroke="black" points="2097.5,-112.5 2097.5,-131.5 2186.5,-131.5 2186.5,-112.5 2097.5,-112.5"/>
<text text-anchor="middle" x="2142" y="-119.5" font-family="FreeSans" font-size="10.00">wand/stream.h</text>
</a>
</g>
</g>
<!-- Node2&#45;&gt;Node29 -->
<g id="edge35" class="edge">
<title>Node2&#45;&gt;Node29</title>
<path fill="none" stroke="midnightblue" d="M1572.84,-174.08C1675.2,-168.63 1892.87,-155.4 2087.14,-132"/>
<polygon fill="midnightblue" stroke="midnightblue" points="2087.75,-135.45 2097.25,-130.77 2086.9,-128.5 2087.75,-135.45"/>
</g>
<!-- Node30 -->
<g id="node30" class="node">
<title>Node30</title>
<g id="a_node30"><a xlink:href="wand-view_8h.html" target="_top" xlink:title=" ">
<polygon fill="white" stroke="black" points="2204.5,-112.5 2204.5,-131.5 2311.5,-131.5 2311.5,-112.5 2204.5,-112.5"/>
<text text-anchor="middle" x="2258" y="-119.5" font-family="FreeSans" font-size="10.00">wand/wand&#45;view.h</text>
</a>
</g>
</g>
<!-- Node2&#45;&gt;Node30 -->
<g id="edge36" class="edge">
<title>Node2&#45;&gt;Node30</title>
<path fill="none" stroke="midnightblue" d="M1572.88,-174.62C1689.39,-169.57 1957.75,-156.32 2194.25,-131.99"/>
<polygon fill="midnightblue" stroke="midnightblue" points="2194.83,-135.45 2204.42,-130.94 2194.11,-128.49 2194.83,-135.45"/>
</g>
<!-- Node18&#45;&gt;Node1 -->
<g id="edge20" class="edge">
<title>Node18&#45;&gt;Node1</title>
<path fill="none" stroke="midnightblue" d="M2736,-131.59C2736,-149.31 2736,-190.25 2736,-214.35"/>
<polygon fill="midnightblue" stroke="midnightblue" points="2732.5,-214.37 2736,-224.37 2739.5,-214.37 2732.5,-214.37"/>
</g>
<!-- Node18&#45;&gt;Node19 -->
<g id="edge18" class="edge">
<title>Node18&#45;&gt;Node19</title>
<path fill="none" stroke="midnightblue" d="M2720.42,-112.32C2705,-103.74 2681.19,-90.49 2663.29,-80.52"/>
<polygon fill="midnightblue" stroke="midnightblue" points="2664.99,-77.46 2654.55,-75.65 2661.58,-83.58 2664.99,-77.46"/>
</g>
<!-- Node18&#45;&gt;Node20 -->
<g id="edge24" class="edge">
<title>Node18&#45;&gt;Node20</title>
<path fill="none" stroke="midnightblue" d="M2733.01,-112.42C2728.53,-99.82 2719.56,-75.68 2710,-56 2705.47,-46.67 2699.76,-36.64 2694.85,-28.42"/>
<polygon fill="midnightblue" stroke="midnightblue" points="2697.76,-26.48 2689.57,-19.76 2691.78,-30.12 2697.76,-26.48"/>
</g>
<!-- Node18&#45;&gt;Node21 -->
<g id="edge21" class="edge">
<title>Node18&#45;&gt;Node21</title>
<path fill="none" stroke="midnightblue" d="M2748.85,-112.32C2761.22,-103.98 2780.13,-91.21 2794.74,-81.35"/>
<polygon fill="midnightblue" stroke="midnightblue" points="2796.85,-84.15 2803.18,-75.65 2792.93,-78.35 2796.85,-84.15"/>
</g>
<!-- Node19&#45;&gt;Node20 -->
<g id="edge19" class="edge">
<title>Node19&#45;&gt;Node20</title>
<path fill="none" stroke="midnightblue" d="M2646.43,-56.08C2652.85,-48.38 2662.31,-37.03 2670.12,-27.65"/>
<polygon fill="midnightblue" stroke="midnightblue" points="2672.99,-29.67 2676.71,-19.75 2667.62,-25.19 2672.99,-29.67"/>
</g>
<!-- Node21&#45;&gt;Node1 -->
<g id="edge22" class="edge">
<title>Node21&#45;&gt;Node1</title>
<path fill="none" stroke="midnightblue" d="M2818.22,-75.72C2821.05,-88.49 2824.8,-112.85 2818,-132 2805.39,-167.55 2774.34,-199.69 2754.27,-217.75"/>
<polygon fill="midnightblue" stroke="midnightblue" points="2751.91,-215.17 2746.68,-224.39 2756.51,-220.44 2751.91,-215.17"/>
</g>
<!-- Node21&#45;&gt;Node20 -->
<g id="edge23" class="edge">
<title>Node21&#45;&gt;Node20</title>
<path fill="none" stroke="midnightblue" d="M2795.08,-56.44C2773.26,-47.52 2738.85,-33.44 2714.11,-23.32"/>
<polygon fill="midnightblue" stroke="midnightblue" points="2715.4,-20.06 2704.82,-19.52 2712.75,-26.54 2715.4,-20.06"/>
</g>
</g>
</svg>
