<?xml version="1.0" encoding="UTF-8" standalone="no"?>
<!DOCTYPE svg PUBLIC "-//W3C//DTD SVG 1.1//EN"
 "http://www.w3.org/Graphics/SVG/1.1/DTD/svg11.dtd">
<!-- Generated by graphviz version 2.43.0 (0)
 -->
<!-- Title: MagickWand.h Pages: 1 -->
<svg width="2872pt" height="196pt"
 viewBox="0.00 0.00 2871.50 196.00" xmlns="http://www.w3.org/2000/svg" xmlns:xlink="http://www.w3.org/1999/xlink">
<g id="graph0" class="graph" transform="scale(1 1) rotate(0) translate(4 192)">
<title>MagickWand.h</title>
<polygon fill="white" stroke="transparent" points="-4,4 -4,-192 2867.5,-192 2867.5,4 -4,4"/>
<!-- Node1 -->
<g id="node1" class="node">
<title>Node1</title>
<g id="a_node1"><a xlink:title=" ">
<polygon fill="#bfbfbf" stroke="black" points="1424,-168.5 1424,-187.5 1512,-187.5 1512,-168.5 1424,-168.5"/>
<text text-anchor="middle" x="1468" y="-175.5" font-family="FreeSans" font-size="10.00">MagickWand.h</text>
</a>
</g>
</g>
<!-- Node2 -->
<g id="node2" class="node">
<title>Node2</title>
<g id="a_node2"><a xlink:title=" ">
<polygon fill="white" stroke="#bfbfbf" points="0,-112.5 0,-131.5 134,-131.5 134,-112.5 0,-112.5"/>
<text text-anchor="middle" x="67" y="-119.5" font-family="FreeSans" font-size="10.00">magick/magick&#45;config.h</text>
</a>
</g>
</g>
<!-- Node1&#45;&gt;Node2 -->
<g id="edge1" class="edge">
<title>Node1&#45;&gt;Node2</title>
<path fill="none" stroke="midnightblue" d="M1423.89,-176.84C1257.66,-175.97 653.08,-170.26 144.22,-132.02"/>
<polygon fill="midnightblue" stroke="midnightblue" points="144.34,-128.52 134.11,-131.26 143.81,-135.5 144.34,-128.52"/>
</g>
<!-- Node3 -->
<g id="node3" class="node">
<title>Node3</title>
<g id="a_node3"><a xlink:title=" ">
<polygon fill="white" stroke="#bfbfbf" points="152,-112.5 152,-131.5 202,-131.5 202,-112.5 152,-112.5"/>
<text text-anchor="middle" x="177" y="-119.5" font-family="FreeSans" font-size="10.00">stdio.h</text>
</a>
</g>
</g>
<!-- Node1&#45;&gt;Node3 -->
<g id="edge2" class="edge">
<title>Node1&#45;&gt;Node3</title>
<path fill="none" stroke="midnightblue" d="M1423.71,-176.74C1232.08,-175.4 472.64,-167.99 212.29,-131.78"/>
<polygon fill="midnightblue" stroke="midnightblue" points="212.52,-128.28 202.12,-130.32 211.52,-135.21 212.52,-128.28"/>
</g>
<!-- Node4 -->
<g id="node4" class="node">
<title>Node4</title>
<g id="a_node4"><a xlink:title=" ">
<polygon fill="white" stroke="#bfbfbf" points="220,-112.5 220,-131.5 276,-131.5 276,-112.5 220,-112.5"/>
<text text-anchor="middle" x="248" y="-119.5" font-family="FreeSans" font-size="10.00">stdarg.h</text>
</a>
</g>
</g>
<!-- Node1&#45;&gt;Node4 -->
<g id="edge3" class="edge">
<title>Node1&#45;&gt;Node4</title>
<path fill="none" stroke="midnightblue" d="M1423.85,-176.51C1239.65,-174.26 531.09,-163.8 286.09,-131.81"/>
<polygon fill="midnightblue" stroke="midnightblue" points="286.55,-128.34 276.17,-130.47 285.61,-135.28 286.55,-128.34"/>
</g>
<!-- Node5 -->
<g id="node5" class="node">
<title>Node5</title>
<g id="a_node5"><a xlink:title=" ">
<polygon fill="white" stroke="#bfbfbf" points="294.5,-112.5 294.5,-131.5 347.5,-131.5 347.5,-112.5 294.5,-112.5"/>
<text text-anchor="middle" x="321" y="-119.5" font-family="FreeSans" font-size="10.00">stdlib.h</text>
</a>
</g>
</g>
<!-- Node1&#45;&gt;Node5 -->
<g id="edge4" class="edge">
<title>Node1&#45;&gt;Node5</title>
<path fill="none" stroke="midnightblue" d="M1423.78,-176.46C1246.64,-174.09 587.18,-163.43 357.59,-131.89"/>
<polygon fill="midnightblue" stroke="midnightblue" points="358.03,-128.42 347.63,-130.47 357.04,-135.35 358.03,-128.42"/>
</g>
<!-- Node6 -->
<g id="node6" class="node">
<title>Node6</title>
<g id="a_node6"><a xlink:title=" ">
<polygon fill="white" stroke="#bfbfbf" points="365.5,-112.5 365.5,-131.5 418.5,-131.5 418.5,-112.5 365.5,-112.5"/>
<text text-anchor="middle" x="392" y="-119.5" font-family="FreeSans" font-size="10.00">stdint.h</text>
</a>
</g>
</g>
<!-- Node1&#45;&gt;Node6 -->
<g id="edge5" class="edge">
<title>Node1&#45;&gt;Node6</title>
<path fill="none" stroke="midnightblue" d="M1423.71,-176.31C1253.86,-173.5 643.32,-161.61 428.56,-131.89"/>
<polygon fill="midnightblue" stroke="midnightblue" points="429.03,-128.42 418.64,-130.46 428.03,-135.35 429.03,-128.42"/>
</g>
<!-- Node7 -->
<g id="node7" class="node">
<title>Node7</title>
<g id="a_node7"><a xlink:title=" ">
<polygon fill="white" stroke="#bfbfbf" points="436.5,-112.5 436.5,-131.5 487.5,-131.5 487.5,-112.5 436.5,-112.5"/>
<text text-anchor="middle" x="462" y="-119.5" font-family="FreeSans" font-size="10.00">math.h</text>
</a>
</g>
</g>
<!-- Node1&#45;&gt;Node7 -->
<g id="edge6" class="edge">
<title>Node1&#45;&gt;Node7</title>
<path fill="none" stroke="midnightblue" d="M1423.9,-176.16C1261.92,-172.89 699.22,-159.86 498.03,-131.76"/>
<polygon fill="midnightblue" stroke="midnightblue" points="498.27,-128.26 487.87,-130.28 497.26,-135.19 498.27,-128.26"/>
</g>
<!-- Node8 -->
<g id="node8" class="node">
<title>Node8</title>
<g id="a_node8"><a xlink:title=" ">
<polygon fill="white" stroke="#bfbfbf" points="506,-112.5 506,-131.5 578,-131.5 578,-112.5 506,-112.5"/>
<text text-anchor="middle" x="542" y="-119.5" font-family="FreeSans" font-size="10.00">sys/types.h</text>
</a>
</g>
</g>
<!-- Node1&#45;&gt;Node8 -->
<g id="edge7" class="edge">
<title>Node1&#45;&gt;Node8</title>
<path fill="none" stroke="midnightblue" d="M1423.8,-177.02C1295.85,-176.61 914.08,-171.94 588.38,-131.98"/>
<polygon fill="midnightblue" stroke="midnightblue" points="588.63,-128.49 578.27,-130.73 587.77,-135.43 588.63,-128.49"/>
</g>
<!-- Node9 -->
<g id="node9" class="node">
<title>Node9</title>
<g id="a_node9"><a xlink:title=" ">
<polygon fill="white" stroke="#bfbfbf" points="596,-112.5 596,-131.5 644,-131.5 644,-112.5 596,-112.5"/>
<text text-anchor="middle" x="620" y="-119.5" font-family="FreeSans" font-size="10.00">time.h</text>
</a>
</g>
</g>
<!-- Node1&#45;&gt;Node9 -->
<g id="edge8" class="edge">
<title>Node1&#45;&gt;Node9</title>
<path fill="none" stroke="midnightblue" d="M1423.81,-175.79C1279.51,-171.65 822.27,-156.99 653.97,-131.74"/>
<polygon fill="midnightblue" stroke="midnightblue" points="654.44,-128.27 644.02,-130.18 653.36,-135.19 654.44,-128.27"/>
</g>
<!-- Node10 -->
<g id="node10" class="node">
<title>Node10</title>
<g id="a_node10"><a xlink:href="method-attribute_8h.html" target="_top" xlink:title=" ">
<polygon fill="white" stroke="black" points="662,-112.5 662,-131.5 800,-131.5 800,-112.5 662,-112.5"/>
<text text-anchor="middle" x="731" y="-119.5" font-family="FreeSans" font-size="10.00">wand/method&#45;attribute.h</text>
</a>
</g>
</g>
<!-- Node1&#45;&gt;Node10 -->
<g id="edge9" class="edge">
<title>Node1&#45;&gt;Node10</title>
<path fill="none" stroke="midnightblue" d="M1423.98,-174.71C1319.5,-169.11 1048.08,-153.67 810.52,-132.1"/>
<polygon fill="midnightblue" stroke="midnightblue" points="810.58,-128.59 800.31,-131.17 809.95,-135.56 810.58,-128.59"/>
</g>
<!-- Node11 -->
<g id="node11" class="node">
<title>Node11</title>
<g id="a_node11"><a xlink:title=" ">
<polygon fill="white" stroke="#bfbfbf" points="818,-112.5 818,-131.5 940,-131.5 940,-112.5 818,-112.5"/>
<text text-anchor="middle" x="879" y="-119.5" font-family="FreeSans" font-size="10.00">magick/MagickCore.h</text>
</a>
</g>
</g>
<!-- Node1&#45;&gt;Node11 -->
<g id="edge10" class="edge">
<title>Node1&#45;&gt;Node11</title>
<path fill="none" stroke="midnightblue" d="M1423.85,-173.79C1335.85,-167.26 1132.11,-151.47 950.09,-132.08"/>
<polygon fill="midnightblue" stroke="midnightblue" points="950.38,-128.59 940.07,-131 949.64,-135.55 950.38,-128.59"/>
</g>
<!-- Node12 -->
<g id="node12" class="node">
<title>Node12</title>
<g id="a_node12"><a xlink:href="animate_8h.html" target="_top" xlink:title=" ">
<polygon fill="white" stroke="black" points="958.5,-112.5 958.5,-131.5 1053.5,-131.5 1053.5,-112.5 958.5,-112.5"/>
<text text-anchor="middle" x="1006" y="-119.5" font-family="FreeSans" font-size="10.00">wand/animate.h</text>
</a>
</g>
</g>
<!-- Node1&#45;&gt;Node12 -->
<g id="edge11" class="edge">
<title>Node1&#45;&gt;Node12</title>
<path fill="none" stroke="midnightblue" d="M1423.87,-172.77C1351.18,-165.65 1201.48,-150.37 1063.87,-132.06"/>
<polygon fill="midnightblue" stroke="midnightblue" points="1063.94,-128.54 1053.56,-130.68 1063.01,-135.47 1063.94,-128.54"/>
</g>
<!-- Node13 -->
<g id="node13" class="node">
<title>Node13</title>
<g id="a_node13"><a xlink:href="compare_8h.html" target="_top" xlink:title=" ">
<polygon fill="white" stroke="black" points="1072,-112.5 1072,-131.5 1170,-131.5 1170,-112.5 1072,-112.5"/>
<text text-anchor="middle" x="1121" y="-119.5" font-family="FreeSans" font-size="10.00">wand/compare.h</text>
</a>
</g>
</g>
<!-- Node1&#45;&gt;Node13 -->
<g id="edge12" class="edge">
<title>Node1&#45;&gt;Node13</title>
<path fill="none" stroke="midnightblue" d="M1423.7,-170.11C1361.83,-160.48 1249.4,-142.98 1180.34,-132.23"/>
<polygon fill="midnightblue" stroke="midnightblue" points="1180.48,-128.71 1170.06,-130.64 1179.41,-135.63 1180.48,-128.71"/>
</g>
<!-- Node14 -->
<g id="node14" class="node">
<title>Node14</title>
<g id="a_node14"><a xlink:href="composite_8h.html" target="_top" xlink:title=" ">
<polygon fill="white" stroke="black" points="1188,-112.5 1188,-131.5 1294,-131.5 1294,-112.5 1188,-112.5"/>
<text text-anchor="middle" x="1241" y="-119.5" font-family="FreeSans" font-size="10.00">wand/composite.h</text>
</a>
</g>
</g>
<!-- Node1&#45;&gt;Node14 -->
<g id="edge13" class="edge">
<title>Node1&#45;&gt;Node14</title>
<path fill="none" stroke="midnightblue" d="M1432.03,-168.44C1392.68,-159.08 1329.51,-144.06 1286.69,-133.87"/>
<polygon fill="midnightblue" stroke="midnightblue" points="1287.34,-130.43 1276.8,-131.52 1285.72,-137.24 1287.34,-130.43"/>
</g>
<!-- Node15 -->
<g id="node15" class="node">
<title>Node15</title>
<g id="a_node15"><a xlink:href="conjure_8h.html" target="_top" xlink:title=" ">
<polygon fill="white" stroke="black" points="1312.5,-112.5 1312.5,-131.5 1403.5,-131.5 1403.5,-112.5 1312.5,-112.5"/>
<text text-anchor="middle" x="1358" y="-119.5" font-family="FreeSans" font-size="10.00">wand/conjure.h</text>
</a>
</g>
</g>
<!-- Node1&#45;&gt;Node15 -->
<g id="edge14" class="edge">
<title>Node1&#45;&gt;Node15</title>
<path fill="none" stroke="midnightblue" d="M1450.33,-168.32C1432.61,-159.62 1405.1,-146.12 1384.71,-136.11"/>
<polygon fill="midnightblue" stroke="midnightblue" points="1386.15,-132.92 1375.63,-131.65 1383.06,-139.2 1386.15,-132.92"/>
</g>
<!-- Node16 -->
<g id="node16" class="node">
<title>Node16</title>
<g id="a_node16"><a xlink:href="convert_8h.html" target="_top" xlink:title=" ">
<polygon fill="white" stroke="black" points="1422,-112.5 1422,-131.5 1514,-131.5 1514,-112.5 1422,-112.5"/>
<text text-anchor="middle" x="1468" y="-119.5" font-family="FreeSans" font-size="10.00">wand/convert.h</text>
</a>
</g>
</g>
<!-- Node1&#45;&gt;Node16 -->
<g id="edge15" class="edge">
<title>Node1&#45;&gt;Node16</title>
<path fill="none" stroke="midnightblue" d="M1468,-168.08C1468,-161.01 1468,-150.86 1468,-141.99"/>
<polygon fill="midnightblue" stroke="midnightblue" points="1471.5,-141.75 1468,-131.75 1464.5,-141.75 1471.5,-141.75"/>
</g>
<!-- Node17 -->
<g id="node17" class="node">
<title>Node17</title>
<g id="a_node17"><a xlink:href="deprecate_8h.html" target="_top" xlink:title=" ">
<polygon fill="white" stroke="black" points="1608,-112.5 1608,-131.5 1712,-131.5 1712,-112.5 1608,-112.5"/>
<text text-anchor="middle" x="1660" y="-119.5" font-family="FreeSans" font-size="10.00">wand/deprecate.h</text>
</a>
</g>
</g>
<!-- Node1&#45;&gt;Node17 -->
<g id="edge16" class="edge">
<title>Node1&#45;&gt;Node17</title>
<path fill="none" stroke="midnightblue" d="M1498.42,-168.44C1531.28,-159.2 1583.78,-144.44 1619.97,-134.26"/>
<polygon fill="midnightblue" stroke="midnightblue" points="1621.04,-137.59 1629.72,-131.52 1619.15,-130.85 1621.04,-137.59"/>
</g>
<!-- Node18 -->
<g id="node18" class="node">
<title>Node18</title>
<g id="a_node18"><a xlink:href="drawing-wand_8h.html" target="_top" xlink:title=" ">
<polygon fill="white" stroke="black" points="1489,-56.5 1489,-75.5 1613,-75.5 1613,-56.5 1489,-56.5"/>
<text text-anchor="middle" x="1551" y="-63.5" font-family="FreeSans" font-size="10.00">wand/drawing&#45;wand.h</text>
</a>
</g>
</g>
<!-- Node1&#45;&gt;Node18 -->
<g id="edge26" class="edge">
<title>Node1&#45;&gt;Node18</title>
<path fill="none" stroke="midnightblue" d="M1503.85,-168.4C1522.88,-161.81 1544.63,-150.59 1556,-132 1564.48,-118.14 1561.87,-99.37 1557.95,-85.57"/>
<polygon fill="midnightblue" stroke="midnightblue" points="1561.17,-84.15 1554.71,-75.75 1554.52,-86.34 1561.17,-84.15"/>
</g>
<!-- Node19 -->
<g id="node19" class="node">
<title>Node19</title>
<g id="a_node19"><a xlink:href="pixel-wand_8h.html" target="_top" xlink:title=" ">
<polygon fill="white" stroke="black" points="1538,-0.5 1538,-19.5 1646,-19.5 1646,-0.5 1538,-0.5"/>
<text text-anchor="middle" x="1592" y="-7.5" font-family="FreeSans" font-size="10.00">wand/pixel&#45;wand.h</text>
</a>
</g>
</g>
<!-- Node1&#45;&gt;Node19 -->
<g id="edge34" class="edge">
<title>Node1&#45;&gt;Node19</title>
<path fill="none" stroke="midnightblue" d="M1485.2,-168.39C1498.25,-160.79 1515.23,-148.39 1523,-132 1526.81,-123.97 1526.76,-120.05 1523,-112 1512.45,-89.42 1490.55,-98.58 1480,-76 1476.24,-67.95 1475.02,-63.36 1480,-56 1491.14,-39.52 1509.43,-29.07 1528.02,-22.45"/>
<polygon fill="midnightblue" stroke="midnightblue" points="1529.29,-25.72 1537.74,-19.32 1527.15,-19.05 1529.29,-25.72"/>
</g>
<!-- Node21 -->
<g id="node21" class="node">
<title>Node21</title>
<g id="a_node21"><a xlink:href="pixel-iterator_8h.html" target="_top" xlink:title=" ">
<polygon fill="white" stroke="black" points="1707.5,-56.5 1707.5,-75.5 1824.5,-75.5 1824.5,-56.5 1707.5,-56.5"/>
<text text-anchor="middle" x="1766" y="-63.5" font-family="FreeSans" font-size="10.00">wand/pixel&#45;iterator.h</text>
</a>
</g>
</g>
<!-- Node1&#45;&gt;Node21 -->
<g id="edge33" class="edge">
<title>Node1&#45;&gt;Node21</title>
<path fill="none" stroke="midnightblue" d="M1512.2,-173.24C1575.24,-167.2 1687.12,-153.75 1721,-132 1738.46,-120.8 1750.98,-100.17 1758.32,-85.15"/>
<polygon fill="midnightblue" stroke="midnightblue" points="1761.6,-86.38 1762.57,-75.83 1755.23,-83.48 1761.6,-86.38"/>
</g>
<!-- Node22 -->
<g id="node22" class="node">
<title>Node22</title>
<g id="a_node22"><a xlink:href="display_8h.html" target="_top" xlink:title=" ">
<polygon fill="white" stroke="black" points="1806.5,-112.5 1806.5,-131.5 1895.5,-131.5 1895.5,-112.5 1806.5,-112.5"/>
<text text-anchor="middle" x="1851" y="-119.5" font-family="FreeSans" font-size="10.00">wand/display.h</text>
</a>
</g>
</g>
<!-- Node1&#45;&gt;Node22 -->
<g id="edge25" class="edge">
<title>Node1&#45;&gt;Node22</title>
<path fill="none" stroke="midnightblue" d="M1512.05,-171.07C1574.4,-162.64 1691.97,-146.58 1792,-132 1793.3,-131.81 1794.61,-131.62 1795.94,-131.42"/>
<polygon fill="midnightblue" stroke="midnightblue" points="1796.85,-134.83 1806.23,-129.89 1795.83,-127.9 1796.85,-134.83"/>
</g>
<!-- Node23 -->
<g id="node23" class="node">
<title>Node23</title>
<g id="a_node23"><a xlink:href="identify_8h.html" target="_top" xlink:title=" ">
<polygon fill="white" stroke="black" points="1914,-112.5 1914,-131.5 2004,-131.5 2004,-112.5 1914,-112.5"/>
<text text-anchor="middle" x="1959" y="-119.5" font-family="FreeSans" font-size="10.00">wand/identify.h</text>
</a>
</g>
</g>
<!-- Node1&#45;&gt;Node23 -->
<g id="edge27" class="edge">
<title>Node1&#45;&gt;Node23</title>
<path fill="none" stroke="midnightblue" d="M1512.15,-173.37C1589.36,-166.83 1754.14,-151.98 1903.67,-132.1"/>
<polygon fill="midnightblue" stroke="midnightblue" points="1904.5,-135.52 1913.95,-130.72 1903.57,-128.58 1904.5,-135.52"/>
</g>
<!-- Node24 -->
<g id="node24" class="node">
<title>Node24</title>
<g id="a_node24"><a xlink:href="import_8h.html" target="_top" xlink:title=" ">
<polygon fill="white" stroke="black" points="2022.5,-112.5 2022.5,-131.5 2109.5,-131.5 2109.5,-112.5 2022.5,-112.5"/>
<text text-anchor="middle" x="2066" y="-119.5" font-family="FreeSans" font-size="10.00">wand/import.h</text>
</a>
</g>
</g>
<!-- Node1&#45;&gt;Node24 -->
<g id="edge28" class="edge">
<title>Node1&#45;&gt;Node24</title>
<path fill="none" stroke="midnightblue" d="M1512.29,-174.64C1603.7,-169.48 1820.11,-155.82 2012.37,-131.97"/>
<polygon fill="midnightblue" stroke="midnightblue" points="2012.88,-135.43 2022.37,-130.71 2012.01,-128.48 2012.88,-135.43"/>
</g>
<!-- Node25 -->
<g id="node25" class="node">
<title>Node25</title>
<g id="a_node25"><a xlink:href="magick-property_8h.html" target="_top" xlink:title=" ">
<polygon fill="white" stroke="black" points="2128,-112.5 2128,-131.5 2262,-131.5 2262,-112.5 2128,-112.5"/>
<text text-anchor="middle" x="2195" y="-119.5" font-family="FreeSans" font-size="10.00">wand/magick&#45;property.h</text>
</a>
</g>
</g>
<!-- Node1&#45;&gt;Node25 -->
<g id="edge29" class="edge">
<title>Node1&#45;&gt;Node25</title>
<path fill="none" stroke="midnightblue" d="M1512.26,-174.69C1616.06,-169.11 1883.44,-153.79 2117.8,-132.07"/>
<polygon fill="midnightblue" stroke="midnightblue" points="2118.25,-135.54 2127.88,-131.13 2117.6,-128.57 2118.25,-135.54"/>
</g>
<!-- Node26 -->
<g id="node26" class="node">
<title>Node26</title>
<g id="a_node26"><a xlink:href="magick-image_8h.html" target="_top" xlink:title=" ">
<polygon fill="white" stroke="black" points="2280.5,-112.5 2280.5,-131.5 2405.5,-131.5 2405.5,-112.5 2280.5,-112.5"/>
<text text-anchor="middle" x="2343" y="-119.5" font-family="FreeSans" font-size="10.00">wand/magick&#45;image.h</text>
</a>
</g>
</g>
<!-- Node1&#45;&gt;Node26 -->
<g id="edge30" class="edge">
<title>Node1&#45;&gt;Node26</title>
<path fill="none" stroke="midnightblue" d="M1512.04,-175.59C1631.9,-171.53 1974.29,-158.42 2270.14,-132.01"/>
<polygon fill="midnightblue" stroke="midnightblue" points="2270.55,-135.49 2280.2,-131.11 2269.93,-128.52 2270.55,-135.49"/>
</g>
<!-- Node27 -->
<g id="node27" class="node">
<title>Node27</title>
<g id="a_node27"><a xlink:href="mogrify_8h.html" target="_top" xlink:title=" ">
<polygon fill="white" stroke="black" points="2423.5,-112.5 2423.5,-131.5 2514.5,-131.5 2514.5,-112.5 2423.5,-112.5"/>
<text text-anchor="middle" x="2469" y="-119.5" font-family="FreeSans" font-size="10.00">wand/mogrify.h</text>
</a>
</g>
</g>
<!-- Node1&#45;&gt;Node27 -->
<g id="edge31" class="edge">
<title>Node1&#45;&gt;Node27</title>
<path fill="none" stroke="midnightblue" d="M1512.04,-176.75C1645.99,-175.58 2060.44,-169.11 2413.23,-132.07"/>
<polygon fill="midnightblue" stroke="midnightblue" points="2413.81,-135.52 2423.39,-130.99 2413.07,-128.56 2413.81,-135.52"/>
</g>
<!-- Node28 -->
<g id="node28" class="node">
<title>Node28</title>
<g id="a_node28"><a xlink:href="montage_8h.html" target="_top" xlink:title=" ">
<polygon fill="white" stroke="black" points="2533,-112.5 2533,-131.5 2631,-131.5 2631,-112.5 2533,-112.5"/>
<text text-anchor="middle" x="2582" y="-119.5" font-family="FreeSans" font-size="10.00">wand/montage.h</text>
</a>
</g>
</g>
<!-- Node1&#45;&gt;Node28 -->
<g id="edge32" class="edge">
<title>Node1&#45;&gt;Node28</title>
<path fill="none" stroke="midnightblue" d="M1512.13,-176.88C1656.09,-176.1 2125.1,-170.64 2522.72,-132.01"/>
<polygon fill="midnightblue" stroke="midnightblue" points="2523.08,-135.49 2532.69,-131.03 2522.39,-128.53 2523.08,-135.49"/>
</g>
<!-- Node29 -->
<g id="node29" class="node">
<title>Node29</title>
<g id="a_node29"><a xlink:href="stream_8h.html" target="_top" xlink:title=" ">
<polygon fill="white" stroke="black" points="2649.5,-112.5 2649.5,-131.5 2738.5,-131.5 2738.5,-112.5 2649.5,-112.5"/>
<text text-anchor="middle" x="2694" y="-119.5" font-family="FreeSans" font-size="10.00">wand/stream.h</text>
</a>
</g>
</g>
<!-- Node1&#45;&gt;Node29 -->
<g id="edge35" class="edge">
<title>Node1&#45;&gt;Node29</title>
<path fill="none" stroke="midnightblue" d="M1512.04,-177.32C1665.88,-178 2193.62,-176.78 2639.09,-131.94"/>
<polygon fill="midnightblue" stroke="midnightblue" points="2639.67,-135.4 2649.27,-130.9 2638.97,-128.43 2639.67,-135.4"/>
</g>
<!-- Node30 -->
<g id="node30" class="node">
<title>Node30</title>
<g id="a_node30"><a xlink:href="wand-view_8h.html" target="_top" xlink:title=" ">
<polygon fill="white" stroke="black" points="2756.5,-112.5 2756.5,-131.5 2863.5,-131.5 2863.5,-112.5 2756.5,-112.5"/>
<text text-anchor="middle" x="2810" y="-119.5" font-family="FreeSans" font-size="10.00">wand/wand&#45;view.h</text>
</a>
</g>
</g>
<!-- Node1&#45;&gt;Node30 -->
<g id="edge36" class="edge">
<title>Node1&#45;&gt;Node30</title>
<path fill="none" stroke="midnightblue" d="M1512.04,-177.19C1674.67,-177.52 2256.89,-175.45 2746.18,-132.07"/>
<polygon fill="midnightblue" stroke="midnightblue" points="2746.63,-135.54 2756.27,-131.16 2746,-128.57 2746.63,-135.54"/>
</g>
<!-- Node17&#45;&gt;Node18 -->
<g id="edge17" class="edge">
<title>Node17&#45;&gt;Node18</title>
<path fill="none" stroke="midnightblue" d="M1642.49,-112.32C1624.93,-103.62 1597.67,-90.12 1577.47,-80.11"/>
<polygon fill="midnightblue" stroke="midnightblue" points="1578.98,-76.96 1568.47,-75.65 1575.88,-83.23 1578.98,-76.96"/>
</g>
<!-- Node17&#45;&gt;Node19 -->
<g id="edge24" class="edge">
<title>Node17&#45;&gt;Node19</title>
<path fill="none" stroke="midnightblue" d="M1655.24,-112.49C1648.19,-99.98 1634.47,-75.95 1622,-56 1616.14,-46.63 1609.33,-36.36 1603.68,-28"/>
<polygon fill="midnightblue" stroke="midnightblue" points="1606.43,-25.82 1597.9,-19.53 1600.64,-29.76 1606.43,-25.82"/>
</g>
<!-- Node20 -->
<g id="node20" class="node">
<title>Node20</title>
<g id="a_node20"><a xlink:href="magick-wand_8h.html" target="_top" xlink:title=" ">
<polygon fill="white" stroke="black" points="1705.5,-0.5 1705.5,-19.5 1826.5,-19.5 1826.5,-0.5 1705.5,-0.5"/>
<text text-anchor="middle" x="1766" y="-7.5" font-family="FreeSans" font-size="10.00">wand/magick&#45;wand.h</text>
</a>
</g>
</g>
<!-- Node17&#45;&gt;Node20 -->
<g id="edge19" class="edge">
<title>Node17&#45;&gt;Node20</title>
<path fill="none" stroke="midnightblue" d="M1663.59,-112.18C1669.34,-98.84 1681.65,-73.28 1698,-56 1710.01,-43.3 1726.26,-32.38 1739.86,-24.48"/>
<polygon fill="midnightblue" stroke="midnightblue" points="1741.75,-27.44 1748.77,-19.51 1738.33,-21.32 1741.75,-27.44"/>
</g>
<!-- Node17&#45;&gt;Node21 -->
<g id="edge21" class="edge">
<title>Node17&#45;&gt;Node21</title>
<path fill="none" stroke="midnightblue" d="M1677.03,-112.32C1694.03,-103.66 1720.38,-90.24 1739.99,-80.25"/>
<polygon fill="midnightblue" stroke="midnightblue" points="1741.69,-83.31 1749.01,-75.65 1738.51,-77.08 1741.69,-83.31"/>
</g>
<!-- Node18&#45;&gt;Node19 -->
<g id="edge18" class="edge">
<title>Node18&#45;&gt;Node19</title>
<path fill="none" stroke="midnightblue" d="M1557.77,-56.08C1563.56,-48.46 1572.06,-37.26 1579.14,-27.94"/>
<polygon fill="midnightblue" stroke="midnightblue" points="1582.1,-29.83 1585.36,-19.75 1576.52,-25.6 1582.1,-29.83"/>
</g>
<!-- Node20&#45;&gt;Node1 -->
<g id="edge20" class="edge">
<title>Node20&#45;&gt;Node1</title>
<path fill="none" stroke="midnightblue" d="M1787.98,-19.65C1812.63,-30.76 1847.5,-51.55 1834,-76 1822.7,-96.46 1766.86,-123.74 1745,-132 1670.99,-159.97 1579.41,-170.56 1522.34,-174.57"/>
<polygon fill="midnightblue" stroke="midnightblue" points="1521.84,-171.09 1512.09,-175.24 1522.3,-178.08 1521.84,-171.09"/>
</g>
<!-- Node21&#45;&gt;Node19 -->
<g id="edge23" class="edge">
<title>Node21&#45;&gt;Node19</title>
<path fill="none" stroke="midnightblue" d="M1738.43,-56.44C1708.9,-47.28 1661.88,-32.69 1629.12,-22.52"/>
<polygon fill="midnightblue" stroke="midnightblue" points="1630.03,-19.14 1619.44,-19.52 1627.96,-25.82 1630.03,-19.14"/>
</g>
<!-- Node21&#45;&gt;Node20 -->
<g id="edge22" class="edge">
<title>Node21&#45;&gt;Node20</title>
<path fill="none" stroke="midnightblue" d="M1766,-56.08C1766,-49.01 1766,-38.86 1766,-29.99"/>
<polygon fill="midnightblue" stroke="midnightblue" points="1769.5,-29.75 1766,-19.75 1762.5,-29.75 1769.5,-29.75"/>
</g>
</g>
</svg>
