<?xml version="1.0" encoding="UTF-8" standalone="no"?>
<!DOCTYPE svg PUBLIC "-//W3C//DTD SVG 1.1//EN"
 "http://www.w3.org/Graphics/SVG/1.1/DTD/svg11.dtd">
<!-- Generated by graphviz version 2.43.0 (0)
 -->
<!-- Title: pixel&#45;iterator.c Pages: 1 -->
<svg width="2938pt" height="308pt"
 viewBox="0.00 0.00 2938.00 308.00" xmlns="http://www.w3.org/2000/svg" xmlns:xlink="http://www.w3.org/1999/xlink">
<g id="graph0" class="graph" transform="scale(1 1) rotate(0) translate(4 304)">
<title>pixel&#45;iterator.c</title>
<polygon fill="white" stroke="transparent" points="-4,4 -4,-304 2934,-304 2934,4 -4,4"/>
<!-- Node1 -->
<g id="node1" class="node">
<title>Node1</title>
<g id="a_node1"><a xlink:title=" ">
<polygon fill="#bfbfbf" stroke="black" points="1911.5,-280.5 1911.5,-299.5 1998.5,-299.5 1998.5,-280.5 1911.5,-280.5"/>
<text text-anchor="middle" x="1955" y="-287.5" font-family="FreeSans" font-size="10.00">pixel&#45;iterator.c</text>
</a>
</g>
</g>
<!-- Node2 -->
<g id="node2" class="node">
<title>Node2</title>
<g id="a_node2"><a xlink:href="studio_8h.html" target="_top" xlink:title=" ">
<polygon fill="white" stroke="black" points="2072.5,-224.5 2072.5,-243.5 2157.5,-243.5 2157.5,-224.5 2072.5,-224.5"/>
<text text-anchor="middle" x="2115" y="-231.5" font-family="FreeSans" font-size="10.00">wand/studio.h</text>
</a>
</g>
</g>
<!-- Node1&#45;&gt;Node2 -->
<g id="edge1" class="edge">
<title>Node1&#45;&gt;Node2</title>
<path fill="none" stroke="midnightblue" d="M1980.35,-280.44C2007.27,-271.36 2050,-256.94 2080.09,-246.78"/>
<polygon fill="midnightblue" stroke="midnightblue" points="2081.41,-250.03 2089.77,-243.52 2079.17,-243.4 2081.41,-250.03"/>
</g>
<!-- Node20 -->
<g id="node20" class="node">
<title>Node20</title>
<g id="a_node20"><a xlink:href="MagickWand_8h.html" target="_top" xlink:title=" ">
<polygon fill="white" stroke="black" points="1573.5,-168.5 1573.5,-187.5 1690.5,-187.5 1690.5,-168.5 1573.5,-168.5"/>
<text text-anchor="middle" x="1632" y="-175.5" font-family="FreeSans" font-size="10.00">wand/MagickWand.h</text>
</a>
</g>
</g>
<!-- Node1&#45;&gt;Node20 -->
<g id="edge57" class="edge">
<title>Node1&#45;&gt;Node20</title>
<path fill="none" stroke="midnightblue" d="M1929.92,-280.46C1872.68,-260.97 1732.3,-213.16 1666.76,-190.84"/>
<polygon fill="midnightblue" stroke="midnightblue" points="1667.88,-187.52 1657.28,-187.61 1665.62,-194.15 1667.88,-187.52"/>
</g>
<!-- Node32 -->
<g id="node32" class="node">
<title>Node32</title>
<g id="a_node32"><a xlink:href="pixel-wand_8h.html" target="_top" xlink:title=" ">
<polygon fill="white" stroke="black" points="930,-0.5 930,-19.5 1038,-19.5 1038,-0.5 930,-0.5"/>
<text text-anchor="middle" x="984" y="-7.5" font-family="FreeSans" font-size="10.00">wand/pixel&#45;wand.h</text>
</a>
</g>
</g>
<!-- Node1&#45;&gt;Node32 -->
<g id="edge60" class="edge">
<title>Node1&#45;&gt;Node32</title>
<path fill="none" stroke="midnightblue" d="M1911.43,-288.9C1622.97,-287.93 0,-278.12 0,-179 0,-179 0,-179 0,-121 0,-28.15 700.98,-13.67 919.65,-11.42"/>
<polygon fill="midnightblue" stroke="midnightblue" points="919.73,-14.92 929.69,-11.32 919.66,-7.92 919.73,-14.92"/>
</g>
<!-- Node34 -->
<g id="node34" class="node">
<title>Node34</title>
<g id="a_node34"><a xlink:href="pixel-iterator_8h.html" target="_top" xlink:title=" ">
<polygon fill="white" stroke="black" points="1102.5,-56.5 1102.5,-75.5 1219.5,-75.5 1219.5,-56.5 1102.5,-56.5"/>
<text text-anchor="middle" x="1161" y="-63.5" font-family="FreeSans" font-size="10.00">wand/pixel&#45;iterator.h</text>
</a>
</g>
</g>
<!-- Node1&#45;&gt;Node34 -->
<g id="edge59" class="edge">
<title>Node1&#45;&gt;Node34</title>
<path fill="none" stroke="midnightblue" d="M1911.07,-288.84C1638.6,-287.38 186.82,-273.01 57,-132 50.98,-125.46 50.83,-118.4 57,-112 95.52,-72.07 999.62,-79.35 1055,-76 1067.03,-75.27 1079.81,-74.33 1092.18,-73.33"/>
<polygon fill="midnightblue" stroke="midnightblue" points="1092.77,-76.8 1102.44,-72.48 1092.19,-69.82 1092.77,-76.8"/>
</g>
<!-- Node45 -->
<g id="node45" class="node">
<title>Node45</title>
<g id="a_node45"><a xlink:href="magick-wand-private_8h.html" target="_top" xlink:title=" ">
<polygon fill="white" stroke="black" points="2175.5,-224.5 2175.5,-243.5 2334.5,-243.5 2334.5,-224.5 2175.5,-224.5"/>
<text text-anchor="middle" x="2255" y="-231.5" font-family="FreeSans" font-size="10.00">wand/magick&#45;wand&#45;private.h</text>
</a>
</g>
</g>
<!-- Node1&#45;&gt;Node45 -->
<g id="edge58" class="edge">
<title>Node1&#45;&gt;Node45</title>
<path fill="none" stroke="midnightblue" d="M1998.62,-281.15C2051.13,-271.7 2139.46,-255.8 2197.5,-245.35"/>
<polygon fill="midnightblue" stroke="midnightblue" points="2198.39,-248.75 2207.61,-243.53 2197.15,-241.86 2198.39,-248.75"/>
</g>
<!-- Node46 -->
<g id="node46" class="node">
<title>Node46</title>
<g id="a_node46"><a xlink:href="wand_8h.html" target="_top" xlink:title=" ">
<polygon fill="white" stroke="black" points="2352.5,-224.5 2352.5,-243.5 2433.5,-243.5 2433.5,-224.5 2352.5,-224.5"/>
<text text-anchor="middle" x="2393" y="-231.5" font-family="FreeSans" font-size="10.00">wand/wand.h</text>
</a>
</g>
</g>
<!-- Node1&#45;&gt;Node46 -->
<g id="edge61" class="edge">
<title>Node1&#45;&gt;Node46</title>
<path fill="none" stroke="midnightblue" d="M1998.59,-284.91C2068.83,-278.12 2211.62,-263.44 2342.21,-244.19"/>
<polygon fill="midnightblue" stroke="midnightblue" points="2343.02,-247.61 2352.39,-242.67 2341.99,-240.68 2343.02,-247.61"/>
</g>
<!-- Node3 -->
<g id="node3" class="node">
<title>Node3</title>
<g id="a_node3"><a xlink:title=" ">
<polygon fill="white" stroke="#bfbfbf" points="2654,-112.5 2654,-131.5 2788,-131.5 2788,-112.5 2654,-112.5"/>
<text text-anchor="middle" x="2721" y="-119.5" font-family="FreeSans" font-size="10.00">magick/magick&#45;config.h</text>
</a>
</g>
</g>
<!-- Node2&#45;&gt;Node3 -->
<g id="edge2" class="edge">
<title>Node2&#45;&gt;Node3</title>
<path fill="none" stroke="midnightblue" d="M2157.51,-225.26C2160.72,-224.8 2163.91,-224.37 2167,-224 2228.14,-216.74 2677.55,-232.61 2720,-188 2731.53,-175.88 2730.05,-156.01 2726.75,-141.42"/>
<polygon fill="midnightblue" stroke="midnightblue" points="2730.06,-140.25 2724.06,-131.51 2723.3,-142.08 2730.06,-140.25"/>
</g>
<!-- Node4 -->
<g id="node4" class="node">
<title>Node4</title>
<g id="a_node4"><a xlink:title=" ">
<polygon fill="white" stroke="#bfbfbf" points="2806,-112.5 2806,-131.5 2862,-131.5 2862,-112.5 2806,-112.5"/>
<text text-anchor="middle" x="2834" y="-119.5" font-family="FreeSans" font-size="10.00">stdarg.h</text>
</a>
</g>
</g>
<!-- Node2&#45;&gt;Node4 -->
<g id="edge3" class="edge">
<title>Node2&#45;&gt;Node4</title>
<path fill="none" stroke="midnightblue" d="M2157.51,-225.26C2160.72,-224.79 2163.91,-224.36 2167,-224 2293.27,-209.14 2617.68,-229.09 2738,-188 2768.94,-177.44 2799.26,-154.11 2817.3,-138.47"/>
<polygon fill="midnightblue" stroke="midnightblue" points="2819.98,-140.77 2825.11,-131.5 2815.32,-135.54 2819.98,-140.77"/>
</g>
<!-- Node5 -->
<g id="node5" class="node">
<title>Node5</title>
<g id="a_node5"><a xlink:title=" ">
<polygon fill="white" stroke="#bfbfbf" points="2880,-112.5 2880,-131.5 2930,-131.5 2930,-112.5 2880,-112.5"/>
<text text-anchor="middle" x="2905" y="-119.5" font-family="FreeSans" font-size="10.00">stdio.h</text>
</a>
</g>
</g>
<!-- Node2&#45;&gt;Node5 -->
<g id="edge4" class="edge">
<title>Node2&#45;&gt;Node5</title>
<path fill="none" stroke="midnightblue" d="M2157.51,-225.24C2160.72,-224.78 2163.91,-224.36 2167,-224 2434.13,-193.02 2510.81,-255.99 2771,-188 2812.89,-177.05 2857.3,-152.62 2883.02,-137.03"/>
<polygon fill="midnightblue" stroke="midnightblue" points="2884.94,-139.95 2891.61,-131.72 2881.27,-134 2884.94,-139.95"/>
</g>
<!-- Node6 -->
<g id="node6" class="node">
<title>Node6</title>
<g id="a_node6"><a xlink:title=" ">
<polygon fill="white" stroke="#bfbfbf" points="1844.5,-168.5 1844.5,-187.5 1897.5,-187.5 1897.5,-168.5 1844.5,-168.5"/>
<text text-anchor="middle" x="1871" y="-175.5" font-family="FreeSans" font-size="10.00">ctype.h</text>
</a>
</g>
</g>
<!-- Node2&#45;&gt;Node6 -->
<g id="edge5" class="edge">
<title>Node2&#45;&gt;Node6</title>
<path fill="none" stroke="midnightblue" d="M2073.48,-224.42C2033.48,-216.07 1971.04,-202.8 1907.5,-188.06"/>
<polygon fill="midnightblue" stroke="midnightblue" points="1908.25,-184.64 1897.71,-185.78 1906.66,-191.46 1908.25,-184.64"/>
</g>
<!-- Node7 -->
<g id="node7" class="node">
<title>Node7</title>
<g id="a_node7"><a xlink:title=" ">
<polygon fill="white" stroke="#bfbfbf" points="1915.5,-168.5 1915.5,-187.5 1970.5,-187.5 1970.5,-168.5 1915.5,-168.5"/>
<text text-anchor="middle" x="1943" y="-175.5" font-family="FreeSans" font-size="10.00">locale.h</text>
</a>
</g>
</g>
<!-- Node2&#45;&gt;Node7 -->
<g id="edge6" class="edge">
<title>Node2&#45;&gt;Node7</title>
<path fill="none" stroke="midnightblue" d="M2087.75,-224.44C2058.56,-215.28 2012.08,-200.69 1979.69,-190.52"/>
<polygon fill="midnightblue" stroke="midnightblue" points="1980.72,-187.17 1970.13,-187.52 1978.62,-193.85 1980.72,-187.17"/>
</g>
<!-- Node8 -->
<g id="node8" class="node">
<title>Node8</title>
<g id="a_node8"><a xlink:title=" ">
<polygon fill="white" stroke="#bfbfbf" points="1988.5,-168.5 1988.5,-187.5 2039.5,-187.5 2039.5,-168.5 1988.5,-168.5"/>
<text text-anchor="middle" x="2014" y="-175.5" font-family="FreeSans" font-size="10.00">errno.h</text>
</a>
</g>
</g>
<!-- Node2&#45;&gt;Node8 -->
<g id="edge7" class="edge">
<title>Node2&#45;&gt;Node8</title>
<path fill="none" stroke="midnightblue" d="M2098.77,-224.32C2082.65,-215.7 2057.7,-202.36 2039.04,-192.39"/>
<polygon fill="midnightblue" stroke="midnightblue" points="2040.66,-189.28 2030.19,-187.65 2037.36,-195.46 2040.66,-189.28"/>
</g>
<!-- Node9 -->
<g id="node9" class="node">
<title>Node9</title>
<g id="a_node9"><a xlink:title=" ">
<polygon fill="white" stroke="#bfbfbf" points="2057.5,-168.5 2057.5,-187.5 2104.5,-187.5 2104.5,-168.5 2057.5,-168.5"/>
<text text-anchor="middle" x="2081" y="-175.5" font-family="FreeSans" font-size="10.00">fcntl.h</text>
</a>
</g>
</g>
<!-- Node2&#45;&gt;Node9 -->
<g id="edge8" class="edge">
<title>Node2&#45;&gt;Node9</title>
<path fill="none" stroke="midnightblue" d="M2109.39,-224.08C2104.63,-216.53 2097.68,-205.49 2091.85,-196.23"/>
<polygon fill="midnightblue" stroke="midnightblue" points="2094.8,-194.35 2086.51,-187.75 2088.88,-198.08 2094.8,-194.35"/>
</g>
<!-- Node10 -->
<g id="node10" class="node">
<title>Node10</title>
<g id="a_node10"><a xlink:title=" ">
<polygon fill="white" stroke="#bfbfbf" points="2428.5,-112.5 2428.5,-131.5 2479.5,-131.5 2479.5,-112.5 2428.5,-112.5"/>
<text text-anchor="middle" x="2454" y="-119.5" font-family="FreeSans" font-size="10.00">math.h</text>
</a>
</g>
</g>
<!-- Node2&#45;&gt;Node10 -->
<g id="edge9" class="edge">
<title>Node2&#45;&gt;Node10</title>
<path fill="none" stroke="midnightblue" d="M2072.21,-230.63C1983.07,-225.26 1784.09,-210.83 1764,-188 1758.13,-181.33 1757.89,-174.46 1764,-168 1813.71,-115.46 2342.36,-141.97 2414,-132 2415.45,-131.8 2416.93,-131.57 2418.42,-131.32"/>
<polygon fill="midnightblue" stroke="midnightblue" points="2419.12,-134.75 2428.29,-129.44 2417.82,-127.87 2419.12,-134.75"/>
</g>
<!-- Node11 -->
<g id="node11" class="node">
<title>Node11</title>
<g id="a_node11"><a xlink:title=" ">
<polygon fill="white" stroke="#bfbfbf" points="2498,-112.5 2498,-131.5 2546,-131.5 2546,-112.5 2498,-112.5"/>
<text text-anchor="middle" x="2522" y="-119.5" font-family="FreeSans" font-size="10.00">time.h</text>
</a>
</g>
</g>
<!-- Node2&#45;&gt;Node11 -->
<g id="edge10" class="edge">
<title>Node2&#45;&gt;Node11</title>
<path fill="none" stroke="midnightblue" d="M2072.26,-233.44C1994.91,-233.21 1836.47,-227.78 1802,-188 1796.18,-181.28 1795.88,-174.45 1802,-168 1852.87,-114.39 2376.97,-142.12 2488.03,-131.43"/>
<polygon fill="midnightblue" stroke="midnightblue" points="2488.49,-134.9 2497.98,-130.19 2487.62,-127.96 2488.49,-134.9"/>
</g>
<!-- Node12 -->
<g id="node12" class="node">
<title>Node12</title>
<g id="a_node12"><a xlink:title=" ">
<polygon fill="white" stroke="#bfbfbf" points="2122.5,-168.5 2122.5,-187.5 2175.5,-187.5 2175.5,-168.5 2122.5,-168.5"/>
<text text-anchor="middle" x="2149" y="-175.5" font-family="FreeSans" font-size="10.00">limits.h</text>
</a>
</g>
</g>
<!-- Node2&#45;&gt;Node12 -->
<g id="edge11" class="edge">
<title>Node2&#45;&gt;Node12</title>
<path fill="none" stroke="midnightblue" d="M2120.61,-224.08C2125.37,-216.53 2132.32,-205.49 2138.15,-196.23"/>
<polygon fill="midnightblue" stroke="midnightblue" points="2141.12,-198.08 2143.49,-187.75 2135.2,-194.35 2141.12,-198.08"/>
</g>
<!-- Node13 -->
<g id="node13" class="node">
<title>Node13</title>
<g id="a_node13"><a xlink:title=" ">
<polygon fill="white" stroke="#bfbfbf" points="2193.5,-168.5 2193.5,-187.5 2248.5,-187.5 2248.5,-168.5 2193.5,-168.5"/>
<text text-anchor="middle" x="2221" y="-175.5" font-family="FreeSans" font-size="10.00">signal.h</text>
</a>
</g>
</g>
<!-- Node2&#45;&gt;Node13 -->
<g id="edge12" class="edge">
<title>Node2&#45;&gt;Node13</title>
<path fill="none" stroke="midnightblue" d="M2132.03,-224.32C2149.03,-215.66 2175.38,-202.24 2194.99,-192.25"/>
<polygon fill="midnightblue" stroke="midnightblue" points="2196.69,-195.31 2204.01,-187.65 2193.51,-189.08 2196.69,-195.31"/>
</g>
<!-- Node14 -->
<g id="node14" class="node">
<title>Node14</title>
<g id="a_node14"><a xlink:title=" ">
<polygon fill="white" stroke="#bfbfbf" points="2267,-168.5 2267,-187.5 2323,-187.5 2323,-168.5 2267,-168.5"/>
<text text-anchor="middle" x="2295" y="-175.5" font-family="FreeSans" font-size="10.00">assert.h</text>
</a>
</g>
</g>
<!-- Node2&#45;&gt;Node14 -->
<g id="edge13" class="edge">
<title>Node2&#45;&gt;Node14</title>
<path fill="none" stroke="midnightblue" d="M2143.52,-224.44C2174.16,-215.25 2222.99,-200.6 2256.9,-190.43"/>
<polygon fill="midnightblue" stroke="midnightblue" points="2258.34,-193.65 2266.91,-187.43 2256.32,-186.95 2258.34,-193.65"/>
</g>
<!-- Node15 -->
<g id="node15" class="node">
<title>Node15</title>
<g id="a_node15"><a xlink:title=" ">
<polygon fill="white" stroke="#bfbfbf" points="2564,-112.5 2564,-131.5 2636,-131.5 2636,-112.5 2564,-112.5"/>
<text text-anchor="middle" x="2600" y="-119.5" font-family="FreeSans" font-size="10.00">sys/types.h</text>
</a>
</g>
</g>
<!-- Node2&#45;&gt;Node15 -->
<g id="edge14" class="edge">
<title>Node2&#45;&gt;Node15</title>
<path fill="none" stroke="midnightblue" d="M2072.45,-232.59C2001.99,-230.9 1865.86,-223.07 1836,-188 1830.24,-181.23 1829.87,-174.44 1836,-168 1862.33,-140.32 2458.02,-137.18 2553.66,-131.55"/>
<polygon fill="midnightblue" stroke="midnightblue" points="2554.04,-135.03 2563.73,-130.73 2553.48,-128.05 2554.04,-135.03"/>
</g>
<!-- Node16 -->
<g id="node16" class="node">
<title>Node16</title>
<g id="a_node16"><a xlink:title=" ">
<polygon fill="white" stroke="#bfbfbf" points="2341,-168.5 2341,-187.5 2405,-187.5 2405,-168.5 2341,-168.5"/>
<text text-anchor="middle" x="2373" y="-175.5" font-family="FreeSans" font-size="10.00">sys/stat.h</text>
</a>
</g>
</g>
<!-- Node2&#45;&gt;Node16 -->
<g id="edge15" class="edge">
<title>Node2&#45;&gt;Node16</title>
<path fill="none" stroke="midnightblue" d="M2157.04,-224.43C2198.72,-215.9 2264.68,-202.32 2331,-188.2"/>
<polygon fill="midnightblue" stroke="midnightblue" points="2331.73,-191.62 2340.78,-186.11 2330.27,-184.77 2331.73,-191.62"/>
</g>
<!-- Node17 -->
<g id="node17" class="node">
<title>Node17</title>
<g id="a_node17"><a xlink:title=" ">
<polygon fill="white" stroke="#bfbfbf" points="2423,-168.5 2423,-187.5 2477,-187.5 2477,-168.5 2423,-168.5"/>
<text text-anchor="middle" x="2450" y="-175.5" font-family="FreeSans" font-size="10.00">dirent.h</text>
</a>
</g>
</g>
<!-- Node2&#45;&gt;Node17 -->
<g id="edge16" class="edge">
<title>Node2&#45;&gt;Node17</title>
<path fill="none" stroke="midnightblue" d="M2157.55,-225.54C2160.75,-225.01 2163.92,-224.49 2167,-224 2273.35,-207.05 2303.42,-209.33 2412.81,-188.06"/>
<polygon fill="midnightblue" stroke="midnightblue" points="2413.8,-191.44 2422.94,-186.07 2412.45,-184.57 2413.8,-191.44"/>
</g>
<!-- Node18 -->
<g id="node18" class="node">
<title>Node18</title>
<g id="a_node18"><a xlink:title=" ">
<polygon fill="white" stroke="#bfbfbf" points="2495,-168.5 2495,-187.5 2561,-187.5 2561,-168.5 2495,-168.5"/>
<text text-anchor="middle" x="2528" y="-175.5" font-family="FreeSans" font-size="10.00">sys/wait.h</text>
</a>
</g>
</g>
<!-- Node2&#45;&gt;Node18 -->
<g id="edge17" class="edge">
<title>Node2&#45;&gt;Node18</title>
<path fill="none" stroke="midnightblue" d="M2157.53,-225.43C2160.73,-224.92 2163.92,-224.44 2167,-224 2305.07,-204.28 2343.47,-210.67 2484.69,-188.08"/>
<polygon fill="midnightblue" stroke="midnightblue" points="2485.27,-191.53 2494.59,-186.47 2484.15,-184.62 2485.27,-191.53"/>
</g>
<!-- Node19 -->
<g id="node19" class="node">
<title>Node19</title>
<g id="a_node19"><a xlink:title=" ">
<polygon fill="white" stroke="#bfbfbf" points="2579,-168.5 2579,-187.5 2625,-187.5 2625,-168.5 2579,-168.5"/>
<text text-anchor="middle" x="2602" y="-175.5" font-family="FreeSans" font-size="10.00">pwd.h</text>
</a>
</g>
</g>
<!-- Node2&#45;&gt;Node19 -->
<g id="edge18" class="edge">
<title>Node2&#45;&gt;Node19</title>
<path fill="none" stroke="midnightblue" d="M2157.52,-225.35C2160.73,-224.86 2163.91,-224.4 2167,-224 2342.08,-201.07 2391.36,-219.78 2568.77,-187.9"/>
<polygon fill="midnightblue" stroke="midnightblue" points="2569.49,-191.33 2578.7,-186.09 2568.23,-184.44 2569.49,-191.33"/>
</g>
<!-- Node2&#45;&gt;Node20 -->
<g id="edge19" class="edge">
<title>Node2&#45;&gt;Node20</title>
<path fill="none" stroke="midnightblue" d="M2072.14,-228.21C1988.32,-218.84 1802.09,-198.02 1700.81,-186.69"/>
<polygon fill="midnightblue" stroke="midnightblue" points="1701.01,-183.19 1690.68,-185.56 1700.23,-190.15 1701.01,-183.19"/>
</g>
<!-- Node44 -->
<g id="node44" class="node">
<title>Node44</title>
<g id="a_node44"><a xlink:title=" ">
<polygon fill="white" stroke="#bfbfbf" points="2643,-168.5 2643,-187.5 2711,-187.5 2711,-168.5 2643,-168.5"/>
<text text-anchor="middle" x="2677" y="-175.5" font-family="FreeSans" font-size="10.00">sys/time.h</text>
</a>
</g>
</g>
<!-- Node2&#45;&gt;Node44 -->
<g id="edge56" class="edge">
<title>Node2&#45;&gt;Node44</title>
<path fill="none" stroke="midnightblue" d="M2157.52,-225.3C2160.72,-224.83 2163.91,-224.39 2167,-224 2370.34,-198.62 2426.18,-216.8 2632.85,-187.98"/>
<polygon fill="midnightblue" stroke="midnightblue" points="2633.39,-191.44 2642.8,-186.57 2632.41,-184.51 2633.39,-191.44"/>
</g>
<!-- Node20&#45;&gt;Node3 -->
<g id="edge20" class="edge">
<title>Node20&#45;&gt;Node3</title>
<path fill="none" stroke="midnightblue" d="M1690.83,-174.4C1893.3,-165.45 2553.53,-136.27 2643.85,-131.76"/>
<polygon fill="midnightblue" stroke="midnightblue" points="2644.1,-135.26 2653.89,-131.22 2643.71,-128.27 2644.1,-135.26"/>
</g>
<!-- Node20&#45;&gt;Node4 -->
<g id="edge22" class="edge">
<title>Node20&#45;&gt;Node4</title>
<path fill="none" stroke="midnightblue" d="M1690.91,-174.3C1731.66,-172.45 1787.12,-169.99 1836,-168 2259.72,-150.72 2371.91,-190.18 2795.76,-131.87"/>
<polygon fill="midnightblue" stroke="midnightblue" points="2796.41,-135.31 2805.83,-130.47 2795.45,-128.38 2796.41,-135.31"/>
</g>
<!-- Node20&#45;&gt;Node5 -->
<g id="edge21" class="edge">
<title>Node20&#45;&gt;Node5</title>
<path fill="none" stroke="midnightblue" d="M1690.91,-174.26C1731.65,-172.39 1787.12,-169.93 1836,-168 2062.7,-159.06 2627.05,-165.47 2869.63,-131.8"/>
<polygon fill="midnightblue" stroke="midnightblue" points="2870.48,-135.21 2879.88,-130.32 2869.48,-128.28 2870.48,-135.21"/>
</g>
<!-- Node20&#45;&gt;Node10 -->
<g id="edge25" class="edge">
<title>Node20&#45;&gt;Node10</title>
<path fill="none" stroke="midnightblue" d="M1690.63,-170.99C1702.34,-169.9 1714.56,-168.85 1726,-168 2031.36,-145.4 2110.66,-173.76 2414,-132 2415.45,-131.8 2416.93,-131.57 2418.43,-131.33"/>
<polygon fill="midnightblue" stroke="midnightblue" points="2419.12,-134.76 2428.3,-129.46 2417.82,-127.88 2419.12,-134.76"/>
</g>
<!-- Node20&#45;&gt;Node11 -->
<g id="edge27" class="edge">
<title>Node20&#45;&gt;Node11</title>
<path fill="none" stroke="midnightblue" d="M1690.8,-172.76C1713.64,-171.17 1740.04,-169.41 1764,-168 2082.76,-149.22 2168.64,-182.05 2487.98,-131.79"/>
<polygon fill="midnightblue" stroke="midnightblue" points="2488.65,-135.22 2497.98,-130.2 2487.56,-128.31 2488.65,-135.22"/>
</g>
<!-- Node20&#45;&gt;Node15 -->
<g id="edge26" class="edge">
<title>Node20&#45;&gt;Node15</title>
<path fill="none" stroke="midnightblue" d="M1690.61,-173.82C1723.38,-172.07 1764.96,-169.87 1802,-168 2133.19,-151.32 2220.68,-172.53 2553.31,-132.02"/>
<polygon fill="midnightblue" stroke="midnightblue" points="2554.23,-135.43 2563.73,-130.74 2553.37,-128.48 2554.23,-135.43"/>
</g>
<!-- Node21 -->
<g id="node21" class="node">
<title>Node21</title>
<g id="a_node21"><a xlink:title=" ">
<polygon fill="white" stroke="#bfbfbf" points="1172.5,-112.5 1172.5,-131.5 1225.5,-131.5 1225.5,-112.5 1172.5,-112.5"/>
<text text-anchor="middle" x="1199" y="-119.5" font-family="FreeSans" font-size="10.00">stdlib.h</text>
</a>
</g>
</g>
<!-- Node20&#45;&gt;Node21 -->
<g id="edge23" class="edge">
<title>Node20&#45;&gt;Node21</title>
<path fill="none" stroke="midnightblue" d="M1573.29,-172.93C1497.37,-167.1 1360.94,-154.69 1235.81,-132.12"/>
<polygon fill="midnightblue" stroke="midnightblue" points="1236.13,-128.62 1225.67,-130.27 1234.87,-135.51 1236.13,-128.62"/>
</g>
<!-- Node22 -->
<g id="node22" class="node">
<title>Node22</title>
<g id="a_node22"><a xlink:title=" ">
<polygon fill="white" stroke="#bfbfbf" points="2318.5,-112.5 2318.5,-131.5 2371.5,-131.5 2371.5,-112.5 2318.5,-112.5"/>
<text text-anchor="middle" x="2345" y="-119.5" font-family="FreeSans" font-size="10.00">stdint.h</text>
</a>
</g>
</g>
<!-- Node20&#45;&gt;Node22 -->
<g id="edge24" class="edge">
<title>Node20&#45;&gt;Node22</title>
<path fill="none" stroke="midnightblue" d="M1690.64,-171.08C1702.35,-169.98 1714.56,-168.9 1726,-168 1981.96,-147.86 2051.38,-171.94 2308.35,-131.98"/>
<polygon fill="midnightblue" stroke="midnightblue" points="2309.02,-135.42 2318.36,-130.41 2307.93,-128.5 2309.02,-135.42"/>
</g>
<!-- Node23 -->
<g id="node23" class="node">
<title>Node23</title>
<g id="a_node23"><a xlink:href="method-attribute_8h.html" target="_top" xlink:title=" ">
<polygon fill="white" stroke="black" points="66,-112.5 66,-131.5 204,-131.5 204,-112.5 66,-112.5"/>
<text text-anchor="middle" x="135" y="-119.5" font-family="FreeSans" font-size="10.00">wand/method&#45;attribute.h</text>
</a>
</g>
</g>
<!-- Node20&#45;&gt;Node23 -->
<g id="edge28" class="edge">
<title>Node20&#45;&gt;Node23</title>
<path fill="none" stroke="midnightblue" d="M1573.45,-176.89C1380.66,-176.14 748.07,-170.76 214.51,-132.04"/>
<polygon fill="midnightblue" stroke="midnightblue" points="214.52,-128.54 204.29,-131.3 214.01,-135.52 214.52,-128.54"/>
</g>
<!-- Node24 -->
<g id="node24" class="node">
<title>Node24</title>
<g id="a_node24"><a xlink:title=" ">
<polygon fill="white" stroke="#bfbfbf" points="222,-112.5 222,-131.5 344,-131.5 344,-112.5 222,-112.5"/>
<text text-anchor="middle" x="283" y="-119.5" font-family="FreeSans" font-size="10.00">magick/MagickCore.h</text>
</a>
</g>
</g>
<!-- Node20&#45;&gt;Node24 -->
<g id="edge29" class="edge">
<title>Node20&#45;&gt;Node24</title>
<path fill="none" stroke="midnightblue" d="M1573.24,-176.87C1392.79,-176.05 830.51,-170.44 354.22,-132.01"/>
<polygon fill="midnightblue" stroke="midnightblue" points="354.3,-128.51 344.05,-131.19 353.73,-135.49 354.3,-128.51"/>
</g>
<!-- Node25 -->
<g id="node25" class="node">
<title>Node25</title>
<g id="a_node25"><a xlink:href="animate_8h.html" target="_top" xlink:title=" ">
<polygon fill="white" stroke="black" points="362.5,-112.5 362.5,-131.5 457.5,-131.5 457.5,-112.5 362.5,-112.5"/>
<text text-anchor="middle" x="410" y="-119.5" font-family="FreeSans" font-size="10.00">wand/animate.h</text>
</a>
</g>
</g>
<!-- Node20&#45;&gt;Node25 -->
<g id="edge30" class="edge">
<title>Node20&#45;&gt;Node25</title>
<path fill="none" stroke="midnightblue" d="M1573.34,-177.18C1403.7,-177.16 897.77,-173.46 467.68,-131.92"/>
<polygon fill="midnightblue" stroke="midnightblue" points="467.82,-128.42 457.53,-130.93 467.15,-135.39 467.82,-128.42"/>
</g>
<!-- Node26 -->
<g id="node26" class="node">
<title>Node26</title>
<g id="a_node26"><a xlink:href="compare_8h.html" target="_top" xlink:title=" ">
<polygon fill="white" stroke="black" points="476,-112.5 476,-131.5 574,-131.5 574,-112.5 476,-112.5"/>
<text text-anchor="middle" x="525" y="-119.5" font-family="FreeSans" font-size="10.00">wand/compare.h</text>
</a>
</g>
</g>
<!-- Node20&#45;&gt;Node26 -->
<g id="edge31" class="edge">
<title>Node20&#45;&gt;Node26</title>
<path fill="none" stroke="midnightblue" d="M1573.27,-176.76C1415.11,-175.64 966.93,-169.23 584.47,-132.03"/>
<polygon fill="midnightblue" stroke="midnightblue" points="584.61,-128.53 574.31,-131.03 583.92,-135.49 584.61,-128.53"/>
</g>
<!-- Node27 -->
<g id="node27" class="node">
<title>Node27</title>
<g id="a_node27"><a xlink:href="composite_8h.html" target="_top" xlink:title=" ">
<polygon fill="white" stroke="black" points="592,-112.5 592,-131.5 698,-131.5 698,-112.5 592,-112.5"/>
<text text-anchor="middle" x="645" y="-119.5" font-family="FreeSans" font-size="10.00">wand/composite.h</text>
</a>
</g>
</g>
<!-- Node20&#45;&gt;Node27 -->
<g id="edge32" class="edge">
<title>Node20&#45;&gt;Node27</title>
<path fill="none" stroke="midnightblue" d="M1573.42,-176.09C1428.51,-173.43 1041.51,-163.76 708.4,-132.04"/>
<polygon fill="midnightblue" stroke="midnightblue" points="708.35,-128.52 698.06,-131.04 707.68,-135.48 708.35,-128.52"/>
</g>
<!-- Node28 -->
<g id="node28" class="node">
<title>Node28</title>
<g id="a_node28"><a xlink:href="conjure_8h.html" target="_top" xlink:title=" ">
<polygon fill="white" stroke="black" points="716.5,-112.5 716.5,-131.5 807.5,-131.5 807.5,-112.5 716.5,-112.5"/>
<text text-anchor="middle" x="762" y="-119.5" font-family="FreeSans" font-size="10.00">wand/conjure.h</text>
</a>
</g>
</g>
<!-- Node20&#45;&gt;Node28 -->
<g id="edge33" class="edge">
<title>Node20&#45;&gt;Node28</title>
<path fill="none" stroke="midnightblue" d="M1573.27,-175.91C1440.55,-172.99 1107.21,-163.04 817.84,-131.96"/>
<polygon fill="midnightblue" stroke="midnightblue" points="817.89,-128.44 807.57,-130.84 817.13,-135.4 817.89,-128.44"/>
</g>
<!-- Node29 -->
<g id="node29" class="node">
<title>Node29</title>
<g id="a_node29"><a xlink:href="convert_8h.html" target="_top" xlink:title=" ">
<polygon fill="white" stroke="black" points="826,-112.5 826,-131.5 918,-131.5 918,-112.5 826,-112.5"/>
<text text-anchor="middle" x="872" y="-119.5" font-family="FreeSans" font-size="10.00">wand/convert.h</text>
</a>
</g>
</g>
<!-- Node20&#45;&gt;Node29 -->
<g id="edge34" class="edge">
<title>Node20&#45;&gt;Node29</title>
<path fill="none" stroke="midnightblue" d="M1573.32,-174.91C1452.85,-170.24 1169.03,-157.35 932,-132 930.73,-131.86 929.45,-131.72 928.16,-131.57"/>
<polygon fill="midnightblue" stroke="midnightblue" points="928.49,-128.09 918.14,-130.32 927.63,-135.03 928.49,-128.09"/>
</g>
<!-- Node30 -->
<g id="node30" class="node">
<title>Node30</title>
<g id="a_node30"><a xlink:href="deprecate_8h.html" target="_top" xlink:title=" ">
<polygon fill="white" stroke="black" points="1012,-112.5 1012,-131.5 1116,-131.5 1116,-112.5 1012,-112.5"/>
<text text-anchor="middle" x="1064" y="-119.5" font-family="FreeSans" font-size="10.00">wand/deprecate.h</text>
</a>
</g>
</g>
<!-- Node20&#45;&gt;Node30 -->
<g id="edge35" class="edge">
<title>Node20&#45;&gt;Node30</title>
<path fill="none" stroke="midnightblue" d="M1573.18,-172.61C1479.33,-165.41 1289.99,-150.07 1130,-132 1128.74,-131.86 1127.47,-131.71 1126.18,-131.56"/>
<polygon fill="midnightblue" stroke="midnightblue" points="1126.56,-128.08 1116.21,-130.35 1125.71,-135.03 1126.56,-128.08"/>
</g>
<!-- Node31 -->
<g id="node31" class="node">
<title>Node31</title>
<g id="a_node31"><a xlink:href="drawing-wand_8h.html" target="_top" xlink:title=" ">
<polygon fill="white" stroke="black" points="922,-56.5 922,-75.5 1046,-75.5 1046,-56.5 922,-56.5"/>
<text text-anchor="middle" x="984" y="-63.5" font-family="FreeSans" font-size="10.00">wand/drawing&#45;wand.h</text>
</a>
</g>
</g>
<!-- Node20&#45;&gt;Node31 -->
<g id="edge45" class="edge">
<title>Node20&#45;&gt;Node31</title>
<path fill="none" stroke="midnightblue" d="M1573.34,-176.56C1425.59,-174.93 1046.77,-167.32 1003,-132 989.44,-121.06 985.21,-101 984.06,-86.04"/>
<polygon fill="midnightblue" stroke="midnightblue" points="987.55,-85.7 983.67,-75.84 980.55,-85.97 987.55,-85.7"/>
</g>
<!-- Node20&#45;&gt;Node32 -->
<g id="edge53" class="edge">
<title>Node20&#45;&gt;Node32</title>
<path fill="none" stroke="midnightblue" d="M1573.36,-177.21C1435.12,-177.01 1092.52,-172.33 986,-132 942.2,-115.42 890.42,-97.04 913,-56 920.89,-41.66 935.49,-31.25 949.4,-24.08"/>
<polygon fill="midnightblue" stroke="midnightblue" points="951.29,-27.06 958.84,-19.62 948.3,-20.73 951.29,-27.06"/>
</g>
<!-- Node20&#45;&gt;Node34 -->
<g id="edge52" class="edge">
<title>Node20&#45;&gt;Node34</title>
<path fill="none" stroke="midnightblue" d="M1573.14,-175.62C1453.43,-172.2 1190.55,-161.4 1163,-132 1151.68,-119.92 1152.67,-100.36 1155.58,-85.84"/>
<polygon fill="midnightblue" stroke="midnightblue" points="1159.03,-86.48 1158.01,-75.94 1152.23,-84.81 1159.03,-86.48"/>
</g>
<!-- Node35 -->
<g id="node35" class="node">
<title>Node35</title>
<g id="a_node35"><a xlink:href="display_8h.html" target="_top" xlink:title=" ">
<polygon fill="white" stroke="black" points="1243.5,-112.5 1243.5,-131.5 1332.5,-131.5 1332.5,-112.5 1243.5,-112.5"/>
<text text-anchor="middle" x="1288" y="-119.5" font-family="FreeSans" font-size="10.00">wand/display.h</text>
</a>
</g>
</g>
<!-- Node20&#45;&gt;Node35 -->
<g id="edge44" class="edge">
<title>Node20&#45;&gt;Node35</title>
<path fill="none" stroke="midnightblue" d="M1575.83,-168.48C1519.56,-159.89 1430.18,-146.14 1342.87,-132.12"/>
<polygon fill="midnightblue" stroke="midnightblue" points="1343.21,-128.64 1332.78,-130.5 1342.1,-135.55 1343.21,-128.64"/>
</g>
<!-- Node36 -->
<g id="node36" class="node">
<title>Node36</title>
<g id="a_node36"><a xlink:href="identify_8h.html" target="_top" xlink:title=" ">
<polygon fill="white" stroke="black" points="1351,-112.5 1351,-131.5 1441,-131.5 1441,-112.5 1351,-112.5"/>
<text text-anchor="middle" x="1396" y="-119.5" font-family="FreeSans" font-size="10.00">wand/identify.h</text>
</a>
</g>
</g>
<!-- Node20&#45;&gt;Node36 -->
<g id="edge46" class="edge">
<title>Node20&#45;&gt;Node36</title>
<path fill="none" stroke="midnightblue" d="M1594.61,-168.44C1553.61,-159.06 1487.75,-143.99 1443.22,-133.8"/>
<polygon fill="midnightblue" stroke="midnightblue" points="1443.75,-130.34 1433.22,-131.52 1442.19,-137.16 1443.75,-130.34"/>
</g>
<!-- Node37 -->
<g id="node37" class="node">
<title>Node37</title>
<g id="a_node37"><a xlink:href="import_8h.html" target="_top" xlink:title=" ">
<polygon fill="white" stroke="black" points="1459.5,-112.5 1459.5,-131.5 1546.5,-131.5 1546.5,-112.5 1459.5,-112.5"/>
<text text-anchor="middle" x="1503" y="-119.5" font-family="FreeSans" font-size="10.00">wand/import.h</text>
</a>
</g>
</g>
<!-- Node20&#45;&gt;Node37 -->
<g id="edge47" class="edge">
<title>Node20&#45;&gt;Node37</title>
<path fill="none" stroke="midnightblue" d="M1611.56,-168.44C1590.33,-159.56 1556.9,-145.56 1532.75,-135.45"/>
<polygon fill="midnightblue" stroke="midnightblue" points="1533.92,-132.15 1523.34,-131.52 1531.22,-138.61 1533.92,-132.15"/>
</g>
<!-- Node38 -->
<g id="node38" class="node">
<title>Node38</title>
<g id="a_node38"><a xlink:href="magick-property_8h.html" target="_top" xlink:title=" ">
<polygon fill="white" stroke="black" points="1565,-112.5 1565,-131.5 1699,-131.5 1699,-112.5 1565,-112.5"/>
<text text-anchor="middle" x="1632" y="-119.5" font-family="FreeSans" font-size="10.00">wand/magick&#45;property.h</text>
</a>
</g>
</g>
<!-- Node20&#45;&gt;Node38 -->
<g id="edge48" class="edge">
<title>Node20&#45;&gt;Node38</title>
<path fill="none" stroke="midnightblue" d="M1632,-168.08C1632,-161.01 1632,-150.86 1632,-141.99"/>
<polygon fill="midnightblue" stroke="midnightblue" points="1635.5,-141.75 1632,-131.75 1628.5,-141.75 1635.5,-141.75"/>
</g>
<!-- Node39 -->
<g id="node39" class="node">
<title>Node39</title>
<g id="a_node39"><a xlink:href="magick-image_8h.html" target="_top" xlink:title=" ">
<polygon fill="white" stroke="black" points="1717.5,-112.5 1717.5,-131.5 1842.5,-131.5 1842.5,-112.5 1717.5,-112.5"/>
<text text-anchor="middle" x="1780" y="-119.5" font-family="FreeSans" font-size="10.00">wand/magick&#45;image.h</text>
</a>
</g>
</g>
<!-- Node20&#45;&gt;Node39 -->
<g id="edge49" class="edge">
<title>Node20&#45;&gt;Node39</title>
<path fill="none" stroke="midnightblue" d="M1655.45,-168.44C1680.13,-159.44 1719.19,-145.19 1746.98,-135.05"/>
<polygon fill="midnightblue" stroke="midnightblue" points="1748.46,-138.23 1756.66,-131.52 1746.06,-131.66 1748.46,-138.23"/>
</g>
<!-- Node40 -->
<g id="node40" class="node">
<title>Node40</title>
<g id="a_node40"><a xlink:href="mogrify_8h.html" target="_top" xlink:title=" ">
<polygon fill="white" stroke="black" points="1860.5,-112.5 1860.5,-131.5 1951.5,-131.5 1951.5,-112.5 1860.5,-112.5"/>
<text text-anchor="middle" x="1906" y="-119.5" font-family="FreeSans" font-size="10.00">wand/mogrify.h</text>
</a>
</g>
</g>
<!-- Node20&#45;&gt;Node40 -->
<g id="edge50" class="edge">
<title>Node20&#45;&gt;Node40</title>
<path fill="none" stroke="midnightblue" d="M1675.42,-168.44C1723.52,-158.96 1801.09,-143.67 1852.81,-133.48"/>
<polygon fill="midnightblue" stroke="midnightblue" points="1853.65,-136.88 1862.79,-131.52 1852.3,-130.02 1853.65,-136.88"/>
</g>
<!-- Node41 -->
<g id="node41" class="node">
<title>Node41</title>
<g id="a_node41"><a xlink:href="montage_8h.html" target="_top" xlink:title=" ">
<polygon fill="white" stroke="black" points="1970,-112.5 1970,-131.5 2068,-131.5 2068,-112.5 1970,-112.5"/>
<text text-anchor="middle" x="2019" y="-119.5" font-family="FreeSans" font-size="10.00">wand/montage.h</text>
</a>
</g>
</g>
<!-- Node20&#45;&gt;Node41 -->
<g id="edge51" class="edge">
<title>Node20&#45;&gt;Node41</title>
<path fill="none" stroke="midnightblue" d="M1690.58,-169.31C1754.29,-160.88 1859.4,-146.75 1959.94,-132.13"/>
<polygon fill="midnightblue" stroke="midnightblue" points="1960.57,-135.58 1969.96,-130.67 1959.56,-128.65 1960.57,-135.58"/>
</g>
<!-- Node42 -->
<g id="node42" class="node">
<title>Node42</title>
<g id="a_node42"><a xlink:href="stream_8h.html" target="_top" xlink:title=" ">
<polygon fill="white" stroke="black" points="2086.5,-112.5 2086.5,-131.5 2175.5,-131.5 2175.5,-112.5 2086.5,-112.5"/>
<text text-anchor="middle" x="2131" y="-119.5" font-family="FreeSans" font-size="10.00">wand/stream.h</text>
</a>
</g>
</g>
<!-- Node20&#45;&gt;Node42 -->
<g id="edge54" class="edge">
<title>Node20&#45;&gt;Node42</title>
<path fill="none" stroke="midnightblue" d="M1690.66,-171.28C1796.19,-160.96 2012.29,-139.69 2076.15,-131.97"/>
<polygon fill="midnightblue" stroke="midnightblue" points="2076.76,-135.42 2086.24,-130.69 2075.88,-128.47 2076.76,-135.42"/>
</g>
<!-- Node43 -->
<g id="node43" class="node">
<title>Node43</title>
<g id="a_node43"><a xlink:href="wand-view_8h.html" target="_top" xlink:title=" ">
<polygon fill="white" stroke="black" points="2193.5,-112.5 2193.5,-131.5 2300.5,-131.5 2300.5,-112.5 2193.5,-112.5"/>
<text text-anchor="middle" x="2247" y="-119.5" font-family="FreeSans" font-size="10.00">wand/wand&#45;view.h</text>
</a>
</g>
</g>
<!-- Node20&#45;&gt;Node43 -->
<g id="edge55" class="edge">
<title>Node20&#45;&gt;Node43</title>
<path fill="none" stroke="midnightblue" d="M1690.65,-171.23C1702.36,-170.12 1714.57,-169 1726,-168 1926.57,-150.53 1979.93,-154.57 2183.15,-132.15"/>
<polygon fill="midnightblue" stroke="midnightblue" points="2183.71,-135.61 2193.26,-131.02 2182.93,-128.65 2183.71,-135.61"/>
</g>
<!-- Node30&#45;&gt;Node31 -->
<g id="edge36" class="edge">
<title>Node30&#45;&gt;Node31</title>
<path fill="none" stroke="midnightblue" d="M1051.15,-112.32C1038.78,-103.98 1019.87,-91.21 1005.26,-81.35"/>
<polygon fill="midnightblue" stroke="midnightblue" points="1007.07,-78.35 996.82,-75.65 1003.15,-84.15 1007.07,-78.35"/>
</g>
<!-- Node30&#45;&gt;Node32 -->
<g id="edge43" class="edge">
<title>Node30&#45;&gt;Node32</title>
<path fill="none" stroke="midnightblue" d="M1064.99,-112.22C1066.03,-98.93 1066.22,-73.44 1055,-56 1045.87,-41.8 1030.49,-31.25 1016.38,-23.95"/>
<polygon fill="midnightblue" stroke="midnightblue" points="1017.9,-20.79 1007.37,-19.61 1014.86,-27.1 1017.9,-20.79"/>
</g>
<!-- Node33 -->
<g id="node33" class="node">
<title>Node33</title>
<g id="a_node33"><a xlink:href="magick-wand_8h.html" target="_top" xlink:title=" ">
<polygon fill="white" stroke="black" points="1187.5,-0.5 1187.5,-19.5 1308.5,-19.5 1308.5,-0.5 1187.5,-0.5"/>
<text text-anchor="middle" x="1248" y="-7.5" font-family="FreeSans" font-size="10.00">wand/magick&#45;wand.h</text>
</a>
</g>
</g>
<!-- Node30&#45;&gt;Node33 -->
<g id="edge38" class="edge">
<title>Node30&#45;&gt;Node33</title>
<path fill="none" stroke="midnightblue" d="M1116.22,-119.38C1152.06,-115.54 1198.33,-104.78 1228,-76 1240.31,-64.07 1245.09,-44.76 1246.92,-30.29"/>
<polygon fill="midnightblue" stroke="midnightblue" points="1250.44,-30.22 1247.84,-19.94 1243.47,-29.59 1250.44,-30.22"/>
</g>
<!-- Node30&#45;&gt;Node34 -->
<g id="edge40" class="edge">
<title>Node30&#45;&gt;Node34</title>
<path fill="none" stroke="midnightblue" d="M1079.58,-112.32C1095,-103.74 1118.81,-90.49 1136.71,-80.52"/>
<polygon fill="midnightblue" stroke="midnightblue" points="1138.42,-83.58 1145.45,-75.65 1135.01,-77.46 1138.42,-83.58"/>
</g>
<!-- Node31&#45;&gt;Node32 -->
<g id="edge37" class="edge">
<title>Node31&#45;&gt;Node32</title>
<path fill="none" stroke="midnightblue" d="M984,-56.08C984,-49.01 984,-38.86 984,-29.99"/>
<polygon fill="midnightblue" stroke="midnightblue" points="987.5,-29.75 984,-19.75 980.5,-29.75 987.5,-29.75"/>
</g>
<!-- Node33&#45;&gt;Node20 -->
<g id="edge39" class="edge">
<title>Node33&#45;&gt;Node20</title>
<path fill="none" stroke="midnightblue" d="M1308.74,-11.74C1533.4,-15.08 2308.14,-32.36 2381,-112 2387,-118.56 2387.1,-125.54 2381,-132 2333.17,-182.66 1824.52,-163.46 1755,-168 1737.5,-169.14 1718.6,-170.48 1700.99,-171.76"/>
<polygon fill="midnightblue" stroke="midnightblue" points="1700.51,-168.29 1690.8,-172.51 1701.03,-175.27 1700.51,-168.29"/>
</g>
<!-- Node34&#45;&gt;Node32 -->
<g id="edge42" class="edge">
<title>Node34&#45;&gt;Node32</title>
<path fill="none" stroke="midnightblue" d="M1132.95,-56.44C1102.92,-47.28 1055.09,-32.69 1021.76,-22.52"/>
<polygon fill="midnightblue" stroke="midnightblue" points="1022.5,-19.09 1011.91,-19.52 1020.46,-25.78 1022.5,-19.09"/>
</g>
<!-- Node34&#45;&gt;Node33 -->
<g id="edge41" class="edge">
<title>Node34&#45;&gt;Node33</title>
<path fill="none" stroke="midnightblue" d="M1174.98,-56.32C1188.55,-47.9 1209.38,-34.97 1225.32,-25.07"/>
<polygon fill="midnightblue" stroke="midnightblue" points="1227.41,-27.9 1234.06,-19.65 1223.71,-21.95 1227.41,-27.9"/>
</g>
</g>
</svg>
