<?xml version="1.0" encoding="UTF-8" standalone="no"?>
<!DOCTYPE svg PUBLIC "-//W3C//DTD SVG 1.1//EN"
 "http://www.w3.org/Graphics/SVG/1.1/DTD/svg11.dtd">
<!-- Generated by graphviz version 2.43.0 (0)
 -->
<!-- Title: pixel&#45;iterator.h Pages: 1 -->
<svg width="1896pt" height="196pt"
 viewBox="0.00 0.00 1895.50 196.00" xmlns="http://www.w3.org/2000/svg" xmlns:xlink="http://www.w3.org/1999/xlink">
<g id="graph0" class="graph" transform="scale(1 1) rotate(0) translate(4 192)">
<title>pixel&#45;iterator.h</title>
<polygon fill="white" stroke="transparent" points="-4,4 -4,-192 1891.5,-192 1891.5,4 -4,4"/>
<!-- Node1 -->
<g id="node1" class="node">
<title>Node1</title>
<g id="a_node1"><a xlink:title=" ">
<polygon fill="#bfbfbf" stroke="black" points="1695.5,-168.5 1695.5,-187.5 1783.5,-187.5 1783.5,-168.5 1695.5,-168.5"/>
<text text-anchor="middle" x="1739.5" y="-175.5" font-family="FreeSans" font-size="10.00">pixel&#45;iterator.h</text>
</a>
</g>
</g>
<!-- Node2 -->
<g id="node2" class="node">
<title>Node2</title>
<g id="a_node2"><a xlink:href="MagickWand_8h.html" target="_top" xlink:title=" ">
<polygon fill="white" stroke="black" points="987.5,-112.5 987.5,-131.5 1075.5,-131.5 1075.5,-112.5 987.5,-112.5"/>
<text text-anchor="middle" x="1031.5" y="-119.5" font-family="FreeSans" font-size="10.00">MagickWand.h</text>
</a>
</g>
</g>
<!-- Node1&#45;&gt;Node2 -->
<g id="edge1" class="edge">
<title>Node1&#45;&gt;Node2</title>
<path fill="none" stroke="midnightblue" d="M1685.36,-172.87C1550.19,-162.56 1199.85,-135.84 1075.82,-126.38"/>
<polygon fill="midnightblue" stroke="midnightblue" points="1685.24,-176.37 1695.48,-173.64 1685.77,-169.39 1685.24,-176.37"/>
</g>
<!-- Node17 -->
<g id="node17" class="node">
<title>Node17</title>
<g id="a_node17"><a xlink:href="deprecate_8h.html" target="_top" xlink:title=" ">
<polygon fill="white" stroke="black" points="1813.5,-0.5 1813.5,-19.5 1887.5,-19.5 1887.5,-0.5 1813.5,-0.5"/>
<text text-anchor="middle" x="1850.5" y="-7.5" font-family="FreeSans" font-size="10.00">deprecate.h</text>
</a>
</g>
</g>
<!-- Node1&#45;&gt;Node17 -->
<g id="edge48" class="edge">
<title>Node1&#45;&gt;Node17</title>
<path fill="none" stroke="midnightblue" d="M1757.77,-161.68C1778.52,-143.33 1812.01,-110.72 1831.5,-76 1841.86,-57.55 1847.04,-32.91 1849.21,-19.91"/>
<polygon fill="midnightblue" stroke="midnightblue" points="1755.26,-159.22 1749.99,-168.41 1759.84,-164.51 1755.26,-159.22"/>
</g>
<!-- Node21 -->
<g id="node21" class="node">
<title>Node21</title>
<g id="a_node21"><a xlink:href="pixel-iterator_8c.html" target="_top" xlink:title=" ">
<polygon fill="white" stroke="black" points="1708,-0.5 1708,-19.5 1795,-19.5 1795,-0.5 1708,-0.5"/>
<text text-anchor="middle" x="1751.5" y="-7.5" font-family="FreeSans" font-size="10.00">pixel&#45;iterator.c</text>
</a>
</g>
</g>
<!-- Node1&#45;&gt;Node21 -->
<g id="edge49" class="edge">
<title>Node1&#45;&gt;Node21</title>
<path fill="none" stroke="midnightblue" d="M1731.89,-158.72C1723,-134.71 1710.77,-91.43 1721.5,-56 1725.74,-41.98 1735.96,-28.34 1743.29,-19.82"/>
<polygon fill="midnightblue" stroke="midnightblue" points="1728.74,-160.27 1735.65,-168.3 1735.26,-157.71 1728.74,-160.27"/>
</g>
<!-- Node3 -->
<g id="node3" class="node">
<title>Node3</title>
<g id="a_node3"><a xlink:href="animate_8c.html" target="_top" xlink:title=" ">
<polygon fill="white" stroke="black" points="586,-0.5 586,-19.5 651,-19.5 651,-0.5 586,-0.5"/>
<text text-anchor="middle" x="618.5" y="-7.5" font-family="FreeSans" font-size="10.00">animate.c</text>
</a>
</g>
</g>
<!-- Node2&#45;&gt;Node3 -->
<g id="edge2" class="edge">
<title>Node2&#45;&gt;Node3</title>
<path fill="none" stroke="midnightblue" d="M977.38,-112.91C930.02,-105.27 859.58,-92.51 799.5,-76 740.1,-59.68 672.31,-33.12 639.07,-19.56"/>
<polygon fill="midnightblue" stroke="midnightblue" points="977,-116.4 987.42,-114.51 978.1,-109.48 977,-116.4"/>
</g>
<!-- Node4 -->
<g id="node4" class="node">
<title>Node4</title>
<g id="a_node4"><a xlink:href="compare_8c.html" target="_top" xlink:title=" ">
<polygon fill="white" stroke="black" points="1007.5,-0.5 1007.5,-19.5 1075.5,-19.5 1075.5,-0.5 1007.5,-0.5"/>
<text text-anchor="middle" x="1041.5" y="-7.5" font-family="FreeSans" font-size="10.00">compare.c</text>
</a>
</g>
</g>
<!-- Node2&#45;&gt;Node4 -->
<g id="edge3" class="edge">
<title>Node2&#45;&gt;Node4</title>
<path fill="none" stroke="midnightblue" d="M1033.2,-102.35C1035.39,-78.25 1039.11,-37.31 1040.72,-19.59"/>
<polygon fill="midnightblue" stroke="midnightblue" points="1029.7,-102.09 1032.28,-112.37 1036.68,-102.73 1029.7,-102.09"/>
</g>
<!-- Node5 -->
<g id="node5" class="node">
<title>Node5</title>
<g id="a_node5"><a xlink:href="composite_8c.html" target="_top" xlink:title=" ">
<polygon fill="white" stroke="black" points="1093.5,-0.5 1093.5,-19.5 1169.5,-19.5 1169.5,-0.5 1093.5,-0.5"/>
<text text-anchor="middle" x="1131.5" y="-7.5" font-family="FreeSans" font-size="10.00">composite.c</text>
</a>
</g>
</g>
<!-- Node2&#45;&gt;Node5 -->
<g id="edge4" class="edge">
<title>Node2&#45;&gt;Node5</title>
<path fill="none" stroke="midnightblue" d="M1045.45,-104.71C1056.87,-91.46 1073.54,-72.35 1088.5,-56 1100.32,-43.09 1114.4,-28.5 1123.15,-19.52"/>
<polygon fill="midnightblue" stroke="midnightblue" points="1042.63,-102.62 1038.76,-112.48 1047.94,-107.18 1042.63,-102.62"/>
</g>
<!-- Node6 -->
<g id="node6" class="node">
<title>Node6</title>
<g id="a_node6"><a xlink:href="conjure_8c.html" target="_top" xlink:title=" ">
<polygon fill="white" stroke="black" points="1188,-0.5 1188,-19.5 1249,-19.5 1249,-0.5 1188,-0.5"/>
<text text-anchor="middle" x="1218.5" y="-7.5" font-family="FreeSans" font-size="10.00">conjure.c</text>
</a>
</g>
</g>
<!-- Node2&#45;&gt;Node6 -->
<g id="edge5" class="edge">
<title>Node2&#45;&gt;Node6</title>
<path fill="none" stroke="midnightblue" d="M1085.58,-119.81C1122.27,-116.15 1169.4,-105.42 1199.5,-76 1214.97,-60.88 1218.02,-33.91 1218.51,-19.94"/>
<polygon fill="midnightblue" stroke="midnightblue" points="1085.2,-116.33 1075.53,-120.67 1085.79,-123.3 1085.2,-116.33"/>
</g>
<!-- Node7 -->
<g id="node7" class="node">
<title>Node7</title>
<g id="a_node7"><a xlink:href="convert_8c.html" target="_top" xlink:title=" ">
<polygon fill="white" stroke="black" points="1267.5,-0.5 1267.5,-19.5 1329.5,-19.5 1329.5,-0.5 1267.5,-0.5"/>
<text text-anchor="middle" x="1298.5" y="-7.5" font-family="FreeSans" font-size="10.00">convert.c</text>
</a>
</g>
</g>
<!-- Node2&#45;&gt;Node7 -->
<g id="edge6" class="edge">
<title>Node2&#45;&gt;Node7</title>
<path fill="none" stroke="midnightblue" d="M1085.98,-114.8C1125.03,-108.77 1178,-97.28 1220.5,-76 1249.82,-61.32 1277.71,-33.66 1290.77,-19.63"/>
<polygon fill="midnightblue" stroke="midnightblue" points="1085.25,-111.37 1075.87,-116.28 1086.27,-118.29 1085.25,-111.37"/>
</g>
<!-- Node8 -->
<g id="node8" class="node">
<title>Node8</title>
<g id="a_node8"><a xlink:href="deprecate_8c.html" target="_top" xlink:title=" ">
<polygon fill="white" stroke="black" points="1347.5,-0.5 1347.5,-19.5 1421.5,-19.5 1421.5,-0.5 1347.5,-0.5"/>
<text text-anchor="middle" x="1384.5" y="-7.5" font-family="FreeSans" font-size="10.00">deprecate.c</text>
</a>
</g>
</g>
<!-- Node2&#45;&gt;Node8 -->
<g id="edge7" class="edge">
<title>Node2&#45;&gt;Node8</title>
<path fill="none" stroke="midnightblue" d="M1085.68,-113.71C1130.62,-106.76 1195.77,-94.57 1250.5,-76 1295.8,-60.63 1345.6,-33.53 1369.75,-19.68"/>
<polygon fill="midnightblue" stroke="midnightblue" points="1084.93,-110.29 1075.56,-115.24 1085.97,-117.21 1084.93,-110.29"/>
</g>
<!-- Node9 -->
<g id="node9" class="node">
<title>Node9</title>
<g id="a_node9"><a xlink:href="display_8c.html" target="_top" xlink:title=" ">
<polygon fill="white" stroke="black" points="1440,-0.5 1440,-19.5 1499,-19.5 1499,-0.5 1440,-0.5"/>
<text text-anchor="middle" x="1469.5" y="-7.5" font-family="FreeSans" font-size="10.00">display.c</text>
</a>
</g>
</g>
<!-- Node2&#45;&gt;Node9 -->
<g id="edge8" class="edge">
<title>Node2&#45;&gt;Node9</title>
<path fill="none" stroke="midnightblue" d="M1085.95,-114.31C1138.58,-107.18 1220.29,-94.38 1289.5,-76 1348.91,-60.22 1416.45,-33.3 1449.35,-19.58"/>
<polygon fill="midnightblue" stroke="midnightblue" points="1085.28,-110.86 1075.83,-115.65 1086.2,-117.8 1085.28,-110.86"/>
</g>
<!-- Node10 -->
<g id="node10" class="node">
<title>Node10</title>
<g id="a_node10"><a xlink:href="drawing-wand_8c.html" target="_top" xlink:title=" ">
<polygon fill="white" stroke="black" points="1517.5,-0.5 1517.5,-19.5 1611.5,-19.5 1611.5,-0.5 1517.5,-0.5"/>
<text text-anchor="middle" x="1564.5" y="-7.5" font-family="FreeSans" font-size="10.00">drawing&#45;wand.c</text>
</a>
</g>
</g>
<!-- Node2&#45;&gt;Node10 -->
<g id="edge9" class="edge">
<title>Node2&#45;&gt;Node10</title>
<path fill="none" stroke="midnightblue" d="M1085.88,-115.05C1146.82,-107.89 1248.36,-94.49 1334.5,-76 1409.56,-59.89 1496.25,-33.12 1538.56,-19.51"/>
<polygon fill="midnightblue" stroke="midnightblue" points="1085.25,-111.6 1075.72,-116.23 1086.06,-118.55 1085.25,-111.6"/>
</g>
<!-- Node11 -->
<g id="node11" class="node">
<title>Node11</title>
<g id="a_node11"><a xlink:href="identify_8c.html" target="_top" xlink:title=" ">
<polygon fill="white" stroke="black" points="1629.5,-0.5 1629.5,-19.5 1689.5,-19.5 1689.5,-0.5 1629.5,-0.5"/>
<text text-anchor="middle" x="1659.5" y="-7.5" font-family="FreeSans" font-size="10.00">identify.c</text>
</a>
</g>
</g>
<!-- Node2&#45;&gt;Node11 -->
<g id="edge10" class="edge">
<title>Node2&#45;&gt;Node11</title>
<path fill="none" stroke="midnightblue" d="M1085.93,-115.98C1156,-109.09 1281.4,-95.32 1387.5,-76 1476.11,-59.86 1579.12,-32.98 1629.14,-19.4"/>
<polygon fill="midnightblue" stroke="midnightblue" points="1085.19,-112.53 1075.58,-116.99 1085.87,-119.5 1085.19,-112.53"/>
</g>
<!-- Node12 -->
<g id="node12" class="node">
<title>Node12</title>
<g id="a_node12"><a xlink:href="import_8c.html" target="_top" xlink:title=" ">
<polygon fill="white" stroke="black" points="0,-0.5 0,-19.5 57,-19.5 57,-0.5 0,-0.5"/>
<text text-anchor="middle" x="28.5" y="-7.5" font-family="FreeSans" font-size="10.00">import.c</text>
</a>
</g>
</g>
<!-- Node2&#45;&gt;Node12 -->
<g id="edge11" class="edge">
<title>Node2&#45;&gt;Node12</title>
<path fill="none" stroke="midnightblue" d="M977.16,-120.92C854.99,-120.03 549.61,-113.85 297.5,-76 208.41,-62.62 105.52,-33.97 56.84,-19.6"/>
<polygon fill="midnightblue" stroke="midnightblue" points="977.35,-124.42 987.37,-120.99 977.39,-117.42 977.35,-124.42"/>
</g>
<!-- Node13 -->
<g id="node13" class="node">
<title>Node13</title>
<g id="a_node13"><a xlink:href="magick-image_8c.html" target="_top" xlink:title=" ">
<polygon fill="white" stroke="black" points="75,-0.5 75,-19.5 170,-19.5 170,-0.5 75,-0.5"/>
<text text-anchor="middle" x="122.5" y="-7.5" font-family="FreeSans" font-size="10.00">magick&#45;image.c</text>
</a>
</g>
</g>
<!-- Node2&#45;&gt;Node13 -->
<g id="edge12" class="edge">
<title>Node2&#45;&gt;Node13</title>
<path fill="none" stroke="midnightblue" d="M977.18,-120C867.69,-117.34 612.88,-107.97 401.5,-76 309.54,-62.09 203.06,-33.82 152.34,-19.59"/>
<polygon fill="midnightblue" stroke="midnightblue" points="977.24,-123.5 987.32,-120.23 977.4,-116.5 977.24,-123.5"/>
</g>
<!-- Node14 -->
<g id="node14" class="node">
<title>Node14</title>
<g id="a_node14"><a xlink:href="magick-property_8c.html" target="_top" xlink:title=" ">
<polygon fill="white" stroke="black" points="188.5,-0.5 188.5,-19.5 292.5,-19.5 292.5,-0.5 188.5,-0.5"/>
<text text-anchor="middle" x="240.5" y="-7.5" font-family="FreeSans" font-size="10.00">magick&#45;property.c</text>
</a>
</g>
</g>
<!-- Node2&#45;&gt;Node14 -->
<g id="edge13" class="edge">
<title>Node2&#45;&gt;Node14</title>
<path fill="none" stroke="midnightblue" d="M977.09,-119.35C880.11,-115.77 671.25,-105.09 497.5,-76 412.62,-61.79 314.61,-33.66 267.95,-19.52"/>
<polygon fill="midnightblue" stroke="midnightblue" points="977.12,-122.86 987.24,-119.72 977.37,-115.86 977.12,-122.86"/>
</g>
<!-- Node15 -->
<g id="node15" class="node">
<title>Node15</title>
<g id="a_node15"><a xlink:href="magick-wand_8c.html" target="_top" xlink:title=" ">
<polygon fill="white" stroke="black" points="311,-0.5 311,-19.5 402,-19.5 402,-0.5 311,-0.5"/>
<text text-anchor="middle" x="356.5" y="-7.5" font-family="FreeSans" font-size="10.00">magick&#45;wand.c</text>
</a>
</g>
</g>
<!-- Node2&#45;&gt;Node15 -->
<g id="edge14" class="edge">
<title>Node2&#45;&gt;Node15</title>
<path fill="none" stroke="midnightblue" d="M977.08,-118.67C892.32,-114.35 723.89,-102.93 583.5,-76 508.42,-61.6 422.25,-33.68 381.01,-19.59"/>
<polygon fill="midnightblue" stroke="midnightblue" points="977.08,-122.18 987.25,-119.18 977.43,-115.19 977.08,-122.18"/>
</g>
<!-- Node16 -->
<g id="node16" class="node">
<title>Node16</title>
<g id="a_node16"><a xlink:href="magick-wand_8h.html" target="_top" xlink:title=" ">
<polygon fill="white" stroke="black" points="1730.5,-56.5 1730.5,-75.5 1822.5,-75.5 1822.5,-56.5 1730.5,-56.5"/>
<text text-anchor="middle" x="1776.5" y="-63.5" font-family="FreeSans" font-size="10.00">magick&#45;wand.h</text>
</a>
</g>
</g>
<!-- Node2&#45;&gt;Node16 -->
<g id="edge15" class="edge">
<title>Node2&#45;&gt;Node16</title>
<path fill="none" stroke="midnightblue" d="M1086.14,-117.49C1196.95,-110.29 1456.07,-93.12 1673.5,-76 1692.11,-74.53 1712.6,-72.77 1730.37,-71.2"/>
<polygon fill="midnightblue" stroke="midnightblue" points="1085.64,-114.01 1075.88,-118.15 1086.09,-121 1085.64,-114.01"/>
</g>
<!-- Node18 -->
<g id="node18" class="node">
<title>Node18</title>
<g id="a_node18"><a xlink:href="magick__wand_8h.html" target="_top" xlink:title=" ">
<polygon fill="white" stroke="black" points="1098,-56.5 1098,-75.5 1191,-75.5 1191,-56.5 1098,-56.5"/>
<text text-anchor="middle" x="1144.5" y="-63.5" font-family="FreeSans" font-size="10.00">magick_wand.h</text>
</a>
</g>
</g>
<!-- Node2&#45;&gt;Node18 -->
<g id="edge19" class="edge">
<title>Node2&#45;&gt;Node18</title>
<path fill="none" stroke="midnightblue" d="M1058.5,-108.1C1079.61,-98.01 1108.36,-84.27 1126.68,-75.52"/>
<polygon fill="midnightblue" stroke="midnightblue" points="1056.92,-104.97 1049.41,-112.44 1059.94,-111.29 1056.92,-104.97"/>
</g>
<!-- Node19 -->
<g id="node19" class="node">
<title>Node19</title>
<g id="a_node19"><a xlink:href="mogrify_8c.html" target="_top" xlink:title=" ">
<polygon fill="white" stroke="black" points="420,-0.5 420,-19.5 481,-19.5 481,-0.5 420,-0.5"/>
<text text-anchor="middle" x="450.5" y="-7.5" font-family="FreeSans" font-size="10.00">mogrify.c</text>
</a>
</g>
</g>
<!-- Node2&#45;&gt;Node19 -->
<g id="edge20" class="edge">
<title>Node2&#45;&gt;Node19</title>
<path fill="none" stroke="midnightblue" d="M977.11,-117.28C905.04,-111.69 774.19,-99.2 664.5,-76 593.84,-61.05 512.89,-33.51 473.9,-19.57"/>
<polygon fill="midnightblue" stroke="midnightblue" points="977.08,-120.79 987.31,-118.06 977.61,-113.81 977.08,-120.79"/>
</g>
<!-- Node20 -->
<g id="node20" class="node">
<title>Node20</title>
<g id="a_node20"><a xlink:href="montage_8c.html" target="_top" xlink:title=" ">
<polygon fill="white" stroke="black" points="499.5,-0.5 499.5,-19.5 567.5,-19.5 567.5,-0.5 499.5,-0.5"/>
<text text-anchor="middle" x="533.5" y="-7.5" font-family="FreeSans" font-size="10.00">montage.c</text>
</a>
</g>
</g>
<!-- Node2&#45;&gt;Node20 -->
<g id="edge21" class="edge">
<title>Node2&#45;&gt;Node20</title>
<path fill="none" stroke="midnightblue" d="M977.49,-115.43C917.77,-108.65 818.96,-95.64 735.5,-76 668.98,-60.35 592.8,-33.25 555.89,-19.51"/>
<polygon fill="midnightblue" stroke="midnightblue" points="977.12,-118.91 987.45,-116.54 977.9,-111.95 977.12,-118.91"/>
</g>
<!-- Node2&#45;&gt;Node21 -->
<g id="edge22" class="edge">
<title>Node2&#45;&gt;Node21</title>
<path fill="none" stroke="midnightblue" d="M1086.01,-116.9C1165.72,-110.51 1318.62,-96.69 1447.5,-76 1546.08,-60.17 1660.94,-33.28 1717.07,-19.57"/>
<polygon fill="midnightblue" stroke="midnightblue" points="1085.42,-113.44 1075.72,-117.72 1085.97,-120.42 1085.42,-113.44"/>
</g>
<!-- Node22 -->
<g id="node22" class="node">
<title>Node22</title>
<g id="a_node22"><a xlink:href="pixel-wand_8c.html" target="_top" xlink:title=" ">
<polygon fill="white" stroke="black" points="669.5,-0.5 669.5,-19.5 747.5,-19.5 747.5,-0.5 669.5,-0.5"/>
<text text-anchor="middle" x="708.5" y="-7.5" font-family="FreeSans" font-size="10.00">pixel&#45;wand.c</text>
</a>
</g>
</g>
<!-- Node2&#45;&gt;Node22 -->
<g id="edge23" class="edge">
<title>Node2&#45;&gt;Node22</title>
<path fill="none" stroke="midnightblue" d="M977.76,-110.38C941.34,-102.52 892.41,-90.66 850.5,-76 803.41,-59.53 750.65,-33.16 724.7,-19.62"/>
<polygon fill="midnightblue" stroke="midnightblue" points="977.17,-113.84 987.68,-112.49 978.63,-106.99 977.17,-113.84"/>
</g>
<!-- Node23 -->
<g id="node23" class="node">
<title>Node23</title>
<g id="a_node23"><a xlink:href="stream_8c.html" target="_top" xlink:title=" ">
<polygon fill="white" stroke="black" points="766,-0.5 766,-19.5 825,-19.5 825,-0.5 766,-0.5"/>
<text text-anchor="middle" x="795.5" y="-7.5" font-family="FreeSans" font-size="10.00">stream.c</text>
</a>
</g>
</g>
<!-- Node2&#45;&gt;Node23 -->
<g id="edge24" class="edge">
<title>Node2&#45;&gt;Node23</title>
<path fill="none" stroke="midnightblue" d="M981.84,-110C952.85,-102.53 916.08,-91.24 885.5,-76 853.76,-60.18 821.15,-33.52 805.32,-19.78"/>
<polygon fill="midnightblue" stroke="midnightblue" points="981.2,-113.44 991.75,-112.48 982.9,-106.65 981.2,-113.44"/>
</g>
<!-- Node24 -->
<g id="node24" class="node">
<title>Node24</title>
<g id="a_node24"><a xlink:href="studio_8h.html" target="_top" xlink:title=" ">
<polygon fill="white" stroke="black" points="909.5,-56.5 909.5,-75.5 965.5,-75.5 965.5,-56.5 909.5,-56.5"/>
<text text-anchor="middle" x="937.5" y="-63.5" font-family="FreeSans" font-size="10.00">studio.h</text>
</a>
</g>
</g>
<!-- Node2&#45;&gt;Node24 -->
<g id="edge25" class="edge">
<title>Node2&#45;&gt;Node24</title>
<path fill="none" stroke="midnightblue" d="M1007.44,-107.18C990.14,-97.24 967.35,-84.15 952.57,-75.65"/>
<polygon fill="midnightblue" stroke="midnightblue" points="1005.98,-110.38 1016.4,-112.32 1009.47,-104.31 1005.98,-110.38"/>
</g>
<!-- Node25 -->
<g id="node25" class="node">
<title>Node25</title>
<g id="a_node25"><a xlink:href="wand-view_8c.html" target="_top" xlink:title=" ">
<polygon fill="white" stroke="black" points="843,-0.5 843,-19.5 920,-19.5 920,-0.5 843,-0.5"/>
<text text-anchor="middle" x="881.5" y="-7.5" font-family="FreeSans" font-size="10.00">wand&#45;view.c</text>
</a>
</g>
</g>
<!-- Node2&#45;&gt;Node25 -->
<g id="edge46" class="edge">
<title>Node2&#45;&gt;Node25</title>
<path fill="none" stroke="midnightblue" d="M977.42,-114.22C950.97,-108.26 920.6,-97.05 900.5,-76 885.56,-60.35 882.28,-33.62 881.62,-19.82"/>
<polygon fill="midnightblue" stroke="midnightblue" points="976.83,-117.67 987.33,-116.26 978.24,-110.82 976.83,-117.67"/>
</g>
<!-- Node26 -->
<g id="node26" class="node">
<title>Node26</title>
<g id="a_node26"><a xlink:href="wand_8c.html" target="_top" xlink:title=" ">
<polygon fill="white" stroke="black" points="938,-0.5 938,-19.5 989,-19.5 989,-0.5 938,-0.5"/>
<text text-anchor="middle" x="963.5" y="-7.5" font-family="FreeSans" font-size="10.00">wand.c</text>
</a>
</g>
</g>
<!-- Node2&#45;&gt;Node26 -->
<g id="edge47" class="edge">
<title>Node2&#45;&gt;Node26</title>
<path fill="none" stroke="midnightblue" d="M1020.77,-103.64C1006,-79.74 979.96,-37.63 968.81,-19.59"/>
<polygon fill="midnightblue" stroke="midnightblue" points="1017.93,-105.7 1026.16,-112.37 1023.88,-102.02 1017.93,-105.7"/>
</g>
<!-- Node16&#45;&gt;Node1 -->
<g id="edge18" class="edge">
<title>Node16&#45;&gt;Node1</title>
<path fill="none" stroke="midnightblue" d="M1770.35,-85.27C1762.27,-109.3 1748.4,-150.54 1742.4,-168.37"/>
<polygon fill="midnightblue" stroke="midnightblue" points="1773.74,-86.19 1773.61,-75.59 1767.1,-83.95 1773.74,-86.19"/>
</g>
<!-- Node16&#45;&gt;Node17 -->
<g id="edge16" class="edge">
<title>Node16&#45;&gt;Node17</title>
<path fill="none" stroke="midnightblue" d="M1796.53,-50.38C1809.91,-40.62 1827.06,-28.11 1838.39,-19.83"/>
<polygon fill="midnightblue" stroke="midnightblue" points="1794.4,-47.6 1788.39,-56.32 1798.53,-53.26 1794.4,-47.6"/>
</g>
<!-- Node17&#45;&gt;Node2 -->
<g id="edge17" class="edge">
<title>Node17&#45;&gt;Node2</title>
<path fill="none" stroke="midnightblue" d="M1803.23,-21.59C1738.09,-35.84 1616.95,-61.11 1512.5,-76 1352.46,-98.82 1160.74,-112.79 1075.77,-118.3"/>
<polygon fill="midnightblue" stroke="midnightblue" points="1804.17,-24.97 1813.19,-19.4 1802.67,-18.13 1804.17,-24.97"/>
</g>
<!-- Node24&#45;&gt;Node3 -->
<g id="edge26" class="edge">
<title>Node24&#45;&gt;Node3</title>
<path fill="none" stroke="midnightblue" d="M899.03,-59.37C845.43,-51.39 745.34,-35.97 660.5,-20 657.42,-19.42 654.22,-18.79 651.03,-18.14"/>
<polygon fill="midnightblue" stroke="midnightblue" points="898.7,-62.86 909.11,-60.87 899.73,-55.94 898.7,-62.86"/>
</g>
<!-- Node24&#45;&gt;Node4 -->
<g id="edge27" class="edge">
<title>Node24&#45;&gt;Node4</title>
<path fill="none" stroke="midnightblue" d="M963.33,-51.59C982.56,-41.61 1008.24,-28.27 1024.83,-19.65"/>
<polygon fill="midnightblue" stroke="midnightblue" points="961.47,-48.61 954.21,-56.32 964.7,-54.82 961.47,-48.61"/>
</g>
<!-- Node24&#45;&gt;Node5 -->
<g id="edge28" class="edge">
<title>Node24&#45;&gt;Node5</title>
<path fill="none" stroke="midnightblue" d="M975.52,-54.42C1012.11,-44.23 1066.74,-29.03 1100.69,-19.58"/>
<polygon fill="midnightblue" stroke="midnightblue" points="974.4,-51.09 965.71,-57.15 976.28,-57.84 974.4,-51.09"/>
</g>
<!-- Node24&#45;&gt;Node6 -->
<g id="edge29" class="edge">
<title>Node24&#45;&gt;Node6</title>
<path fill="none" stroke="midnightblue" d="M975.63,-58.33C1023.22,-49.9 1107.03,-34.71 1178.5,-20 1181.57,-19.37 1184.76,-18.69 1187.95,-17.99"/>
<polygon fill="midnightblue" stroke="midnightblue" points="975,-54.88 965.76,-60.07 976.22,-61.78 975,-54.88"/>
</g>
<!-- Node24&#45;&gt;Node7 -->
<g id="edge30" class="edge">
<title>Node24&#45;&gt;Node7</title>
<path fill="none" stroke="midnightblue" d="M976.06,-60.54C1036.34,-53.36 1156.45,-38.17 1257.5,-20 1260.66,-19.43 1263.94,-18.79 1267.21,-18.13"/>
<polygon fill="midnightblue" stroke="midnightblue" points="975.39,-57.1 965.87,-61.75 976.21,-64.05 975.39,-57.1"/>
</g>
<!-- Node24&#45;&gt;Node8 -->
<g id="edge31" class="edge">
<title>Node24&#45;&gt;Node8</title>
<path fill="none" stroke="midnightblue" d="M976.14,-61.72C1047.81,-55.4 1206.12,-40.34 1338.5,-20 1341.4,-19.56 1344.39,-19.06 1347.39,-18.53"/>
<polygon fill="midnightblue" stroke="midnightblue" points="975.46,-58.27 965.8,-62.62 976.07,-65.24 975.46,-58.27"/>
</g>
<!-- Node24&#45;&gt;Node9 -->
<g id="edge32" class="edge">
<title>Node24&#45;&gt;Node9</title>
<path fill="none" stroke="midnightblue" d="M975.87,-62.18C1075.9,-54.71 1342.89,-34.04 1430.5,-20 1433.52,-19.52 1436.65,-18.93 1439.77,-18.3"/>
<polygon fill="midnightblue" stroke="midnightblue" points="975.34,-58.71 965.62,-62.94 975.86,-65.69 975.34,-58.71"/>
</g>
<!-- Node24&#45;&gt;Node10 -->
<g id="edge33" class="edge">
<title>Node24&#45;&gt;Node10</title>
<path fill="none" stroke="midnightblue" d="M975.73,-62.37C1086.08,-54.73 1403.88,-32.25 1507.5,-20 1510.68,-19.62 1513.96,-19.2 1517.26,-18.75"/>
<polygon fill="midnightblue" stroke="midnightblue" points="975.44,-58.88 965.71,-63.07 975.93,-65.87 975.44,-58.88"/>
</g>
<!-- Node24&#45;&gt;Node11 -->
<g id="edge34" class="edge">
<title>Node24&#45;&gt;Node11</title>
<path fill="none" stroke="midnightblue" d="M975.93,-62.64C1115.41,-54.05 1588.45,-24.72 1620.5,-20 1623.39,-19.57 1626.38,-19.05 1629.36,-18.46"/>
<polygon fill="midnightblue" stroke="midnightblue" points="975.49,-59.16 965.72,-63.27 975.92,-66.15 975.49,-59.16"/>
</g>
<!-- Node24&#45;&gt;Node12 -->
<g id="edge35" class="edge">
<title>Node24&#45;&gt;Node12</title>
<path fill="none" stroke="midnightblue" d="M899.12,-65.57C776.75,-66.83 385.1,-66.7 65.5,-20 62.75,-19.6 59.91,-19.09 57.08,-18.51"/>
<polygon fill="midnightblue" stroke="midnightblue" points="899.49,-69.06 909.45,-65.45 899.42,-62.06 899.49,-69.06"/>
</g>
<!-- Node24&#45;&gt;Node13 -->
<g id="edge36" class="edge">
<title>Node24&#45;&gt;Node13</title>
<path fill="none" stroke="midnightblue" d="M899.11,-64.04C787.63,-60.97 454.38,-49.79 179.5,-20 176.41,-19.67 173.24,-19.28 170.04,-18.86"/>
<polygon fill="midnightblue" stroke="midnightblue" points="899.11,-67.54 909.2,-64.31 899.29,-60.54 899.11,-67.54"/>
</g>
<!-- Node24&#45;&gt;Node14 -->
<g id="edge37" class="edge">
<title>Node24&#45;&gt;Node14</title>
<path fill="none" stroke="midnightblue" d="M899.08,-63.3C799.93,-58.69 527.38,-44.62 301.5,-20 298.63,-19.69 295.68,-19.34 292.71,-18.97"/>
<polygon fill="midnightblue" stroke="midnightblue" points="899.07,-66.8 909.22,-63.77 899.39,-59.81 899.07,-66.8"/>
</g>
<!-- Node24&#45;&gt;Node15 -->
<g id="edge38" class="edge">
<title>Node24&#45;&gt;Node15</title>
<path fill="none" stroke="midnightblue" d="M899.24,-62.79C812.21,-57.52 592.85,-42.94 410.5,-20 407.77,-19.66 404.96,-19.27 402.13,-18.87"/>
<polygon fill="midnightblue" stroke="midnightblue" points="899.23,-66.29 909.42,-63.4 899.65,-59.3 899.23,-66.29"/>
</g>
<!-- Node24&#45;&gt;Node19 -->
<g id="edge39" class="edge">
<title>Node24&#45;&gt;Node19</title>
<path fill="none" stroke="midnightblue" d="M899.12,-62.71C821.54,-57.73 640.69,-44.36 490.5,-20 487.41,-19.5 484.2,-18.9 481,-18.26"/>
<polygon fill="midnightblue" stroke="midnightblue" points="899.16,-66.22 909.36,-63.35 899.6,-59.23 899.16,-66.22"/>
</g>
<!-- Node24&#45;&gt;Node20 -->
<g id="edge40" class="edge">
<title>Node24&#45;&gt;Node20</title>
<path fill="none" stroke="midnightblue" d="M898.94,-61.25C832.75,-54.57 693.35,-39.48 576.5,-20 573.64,-19.52 570.68,-18.99 567.72,-18.43"/>
<polygon fill="midnightblue" stroke="midnightblue" points="899,-64.77 909.3,-62.28 899.7,-57.8 899,-64.77"/>
</g>
<!-- Node24&#45;&gt;Node21 -->
<g id="edge41" class="edge">
<title>Node24&#45;&gt;Node21</title>
<path fill="none" stroke="midnightblue" d="M975.82,-62.71C1006.34,-60.89 1050.16,-58.27 1088.5,-56 1359.61,-39.92 1428.67,-50.78 1698.5,-20 1701.56,-19.65 1704.71,-19.24 1707.88,-18.8"/>
<polygon fill="midnightblue" stroke="midnightblue" points="975.38,-59.23 965.61,-63.32 975.8,-66.22 975.38,-59.23"/>
</g>
<!-- Node24&#45;&gt;Node22 -->
<g id="edge42" class="edge">
<title>Node24&#45;&gt;Node22</title>
<path fill="none" stroke="midnightblue" d="M899.62,-56.07C856.64,-45.93 787.03,-29.52 744.74,-19.55"/>
<polygon fill="midnightblue" stroke="midnightblue" points="898.88,-59.49 909.42,-58.38 900.49,-52.68 898.88,-59.49"/>
</g>
<!-- Node24&#45;&gt;Node23 -->
<g id="edge43" class="edge">
<title>Node24&#45;&gt;Node23</title>
<path fill="none" stroke="midnightblue" d="M905.34,-52.77C878.67,-42.63 841.43,-28.47 817.9,-19.52"/>
<polygon fill="midnightblue" stroke="midnightblue" points="904.41,-56.16 915,-56.44 906.9,-49.62 904.41,-56.16"/>
</g>
<!-- Node24&#45;&gt;Node25 -->
<g id="edge44" class="edge">
<title>Node24&#45;&gt;Node25</title>
<path fill="none" stroke="midnightblue" d="M921.17,-49.25C911.24,-39.67 898.91,-27.79 890.66,-19.83"/>
<polygon fill="midnightblue" stroke="midnightblue" points="918.87,-51.9 928.5,-56.32 923.73,-46.86 918.87,-51.9"/>
</g>
<!-- Node24&#45;&gt;Node26 -->
<g id="edge45" class="edge">
<title>Node24&#45;&gt;Node26</title>
<path fill="none" stroke="midnightblue" d="M946.17,-46.98C950.59,-37.82 955.75,-27.09 959.29,-19.75"/>
<polygon fill="midnightblue" stroke="midnightblue" points="942.98,-45.55 941.79,-56.08 949.29,-48.59 942.98,-45.55"/>
</g>
</g>
</svg>
