<?xml version="1.0" encoding="UTF-8" standalone="no"?>
<!DOCTYPE svg PUBLIC "-//W3C//DTD SVG 1.1//EN"
 "http://www.w3.org/Graphics/SVG/1.1/DTD/svg11.dtd">
<!-- Generated by graphviz version 2.43.0 (0)
 -->
<!-- Title: studio.h Pages: 1 -->
<svg width="1803pt" height="84pt"
 viewBox="0.00 0.00 1803.00 84.00" xmlns="http://www.w3.org/2000/svg" xmlns:xlink="http://www.w3.org/1999/xlink">
<g id="graph0" class="graph" transform="scale(1 1) rotate(0) translate(4 80)">
<title>studio.h</title>
<polygon fill="white" stroke="transparent" points="-4,4 -4,-80 1799,-80 1799,4 -4,4"/>
<!-- Node1 -->
<g id="node1" class="node">
<title>Node1</title>
<g id="a_node1"><a xlink:title=" ">
<polygon fill="#bfbfbf" stroke="black" points="831.5,-56.5 831.5,-75.5 887.5,-75.5 887.5,-56.5 831.5,-56.5"/>
<text text-anchor="middle" x="859.5" y="-63.5" font-family="FreeSans" font-size="10.00">studio.h</text>
</a>
</g>
</g>
<!-- Node2 -->
<g id="node2" class="node">
<title>Node2</title>
<g id="a_node2"><a xlink:href="animate_8c.html" target="_top" xlink:title=" ">
<polygon fill="white" stroke="black" points="0,-0.5 0,-19.5 65,-19.5 65,-0.5 0,-0.5"/>
<text text-anchor="middle" x="32.5" y="-7.5" font-family="FreeSans" font-size="10.00">animate.c</text>
</a>
</g>
</g>
<!-- Node1&#45;&gt;Node2 -->
<g id="edge1" class="edge">
<title>Node1&#45;&gt;Node2</title>
<path fill="none" stroke="midnightblue" d="M820.84,-64.88C706.35,-64.09 359.21,-58.43 74.5,-20 71.54,-19.6 68.49,-19.11 65.43,-18.56"/>
<polygon fill="midnightblue" stroke="midnightblue" points="821.17,-68.39 831.19,-64.95 821.21,-61.39 821.17,-68.39"/>
</g>
<!-- Node3 -->
<g id="node3" class="node">
<title>Node3</title>
<g id="a_node3"><a xlink:href="compare_8c.html" target="_top" xlink:title=" ">
<polygon fill="white" stroke="black" points="83.5,-0.5 83.5,-19.5 151.5,-19.5 151.5,-0.5 83.5,-0.5"/>
<text text-anchor="middle" x="117.5" y="-7.5" font-family="FreeSans" font-size="10.00">compare.c</text>
</a>
</g>
</g>
<!-- Node1&#45;&gt;Node3 -->
<g id="edge2" class="edge">
<title>Node1&#45;&gt;Node3</title>
<path fill="none" stroke="midnightblue" d="M821.21,-64.44C715.53,-62.49 410.96,-54.1 160.5,-20 157.63,-19.61 154.66,-19.14 151.69,-18.61"/>
<polygon fill="midnightblue" stroke="midnightblue" points="821.33,-67.94 831.39,-64.62 821.45,-60.95 821.33,-67.94"/>
</g>
<!-- Node4 -->
<g id="node4" class="node">
<title>Node4</title>
<g id="a_node4"><a xlink:href="composite_8c.html" target="_top" xlink:title=" ">
<polygon fill="white" stroke="black" points="169.5,-0.5 169.5,-19.5 245.5,-19.5 245.5,-0.5 169.5,-0.5"/>
<text text-anchor="middle" x="207.5" y="-7.5" font-family="FreeSans" font-size="10.00">composite.c</text>
</a>
</g>
</g>
<!-- Node1&#45;&gt;Node4 -->
<g id="edge3" class="edge">
<title>Node1&#45;&gt;Node4</title>
<path fill="none" stroke="midnightblue" d="M821.26,-63.68C725.46,-60.05 467.6,-48.23 254.5,-20 251.62,-19.62 248.64,-19.17 245.66,-18.69"/>
<polygon fill="midnightblue" stroke="midnightblue" points="821.22,-67.18 831.34,-64.06 821.48,-60.19 821.22,-67.18"/>
</g>
<!-- Node5 -->
<g id="node5" class="node">
<title>Node5</title>
<g id="a_node5"><a xlink:href="conjure_8c.html" target="_top" xlink:title=" ">
<polygon fill="white" stroke="black" points="264,-0.5 264,-19.5 325,-19.5 325,-0.5 264,-0.5"/>
<text text-anchor="middle" x="294.5" y="-7.5" font-family="FreeSans" font-size="10.00">conjure.c</text>
</a>
</g>
</g>
<!-- Node1&#45;&gt;Node5 -->
<g id="edge4" class="edge">
<title>Node1&#45;&gt;Node5</title>
<path fill="none" stroke="midnightblue" d="M821.28,-63.5C734.37,-59.72 515.45,-47.98 334.5,-20 331.55,-19.54 328.48,-18.99 325.43,-18.4"/>
<polygon fill="midnightblue" stroke="midnightblue" points="821.31,-67.01 831.45,-63.94 821.61,-60.02 821.31,-67.01"/>
</g>
<!-- Node6 -->
<g id="node6" class="node">
<title>Node6</title>
<g id="a_node6"><a xlink:href="convert_8c.html" target="_top" xlink:title=" ">
<polygon fill="white" stroke="black" points="343.5,-0.5 343.5,-19.5 405.5,-19.5 405.5,-0.5 343.5,-0.5"/>
<text text-anchor="middle" x="374.5" y="-7.5" font-family="FreeSans" font-size="10.00">convert.c</text>
</a>
</g>
</g>
<!-- Node1&#45;&gt;Node6 -->
<g id="edge5" class="edge">
<title>Node1&#45;&gt;Node6</title>
<path fill="none" stroke="midnightblue" d="M821.29,-62.69C744.06,-57.69 564.02,-44.29 414.5,-20 411.69,-19.54 408.78,-19.01 405.87,-18.43"/>
<polygon fill="midnightblue" stroke="midnightblue" points="821.29,-66.2 831.49,-63.34 821.73,-59.22 821.29,-66.2"/>
</g>
<!-- Node7 -->
<g id="node7" class="node">
<title>Node7</title>
<g id="a_node7"><a xlink:href="deprecate_8c.html" target="_top" xlink:title=" ">
<polygon fill="white" stroke="black" points="423.5,-0.5 423.5,-19.5 497.5,-19.5 497.5,-0.5 423.5,-0.5"/>
<text text-anchor="middle" x="460.5" y="-7.5" font-family="FreeSans" font-size="10.00">deprecate.c</text>
</a>
</g>
</g>
<!-- Node1&#45;&gt;Node7 -->
<g id="edge6" class="edge">
<title>Node1&#45;&gt;Node7</title>
<path fill="none" stroke="midnightblue" d="M821.34,-60.98C756.46,-53.95 620.61,-38.41 506.5,-20 503.61,-19.53 500.62,-19.02 497.62,-18.48"/>
<polygon fill="midnightblue" stroke="midnightblue" points="821.18,-64.48 831.5,-62.07 821.93,-57.52 821.18,-64.48"/>
</g>
<!-- Node8 -->
<g id="node8" class="node">
<title>Node8</title>
<g id="a_node8"><a xlink:href="display_8c.html" target="_top" xlink:title=" ">
<polygon fill="white" stroke="black" points="516,-0.5 516,-19.5 575,-19.5 575,-0.5 516,-0.5"/>
<text text-anchor="middle" x="545.5" y="-7.5" font-family="FreeSans" font-size="10.00">display.c</text>
</a>
</g>
</g>
<!-- Node1&#45;&gt;Node8 -->
<g id="edge7" class="edge">
<title>Node1&#45;&gt;Node8</title>
<path fill="none" stroke="midnightblue" d="M821.27,-59.54C768.02,-51.76 668.6,-36.57 584.5,-20 581.5,-19.41 578.38,-18.76 575.27,-18.08"/>
<polygon fill="midnightblue" stroke="midnightblue" points="820.89,-63.02 831.28,-61 821.89,-56.1 820.89,-63.02"/>
</g>
<!-- Node9 -->
<g id="node9" class="node">
<title>Node9</title>
<g id="a_node9"><a xlink:href="drawing-wand_8c.html" target="_top" xlink:title=" ">
<polygon fill="white" stroke="black" points="593.5,-0.5 593.5,-19.5 687.5,-19.5 687.5,-0.5 593.5,-0.5"/>
<text text-anchor="middle" x="640.5" y="-7.5" font-family="FreeSans" font-size="10.00">drawing&#45;wand.c</text>
</a>
</g>
</g>
<!-- Node1&#45;&gt;Node9 -->
<g id="edge8" class="edge">
<title>Node1&#45;&gt;Node9</title>
<path fill="none" stroke="midnightblue" d="M821.37,-55.6C780.11,-45.42 714.88,-29.34 675.06,-19.52"/>
<polygon fill="midnightblue" stroke="midnightblue" points="820.77,-59.06 831.32,-58.05 822.45,-52.26 820.77,-59.06"/>
</g>
<!-- Node10 -->
<g id="node10" class="node">
<title>Node10</title>
<g id="a_node10"><a xlink:href="identify_8c.html" target="_top" xlink:title=" ">
<polygon fill="white" stroke="black" points="705.5,-0.5 705.5,-19.5 765.5,-19.5 765.5,-0.5 705.5,-0.5"/>
<text text-anchor="middle" x="735.5" y="-7.5" font-family="FreeSans" font-size="10.00">identify.c</text>
</a>
</g>
</g>
<!-- Node1&#45;&gt;Node10 -->
<g id="edge9" class="edge">
<title>Node1&#45;&gt;Node10</title>
<path fill="none" stroke="midnightblue" d="M830.49,-52.37C807.27,-42.26 775.34,-28.35 755.06,-19.52"/>
<polygon fill="midnightblue" stroke="midnightblue" points="829.29,-55.66 839.85,-56.44 832.08,-49.24 829.29,-55.66"/>
</g>
<!-- Node11 -->
<g id="node11" class="node">
<title>Node11</title>
<g id="a_node11"><a xlink:href="import_8c.html" target="_top" xlink:title=" ">
<polygon fill="white" stroke="black" points="784,-0.5 784,-19.5 841,-19.5 841,-0.5 784,-0.5"/>
<text text-anchor="middle" x="812.5" y="-7.5" font-family="FreeSans" font-size="10.00">import.c</text>
</a>
</g>
</g>
<!-- Node1&#45;&gt;Node11 -->
<g id="edge10" class="edge">
<title>Node1&#45;&gt;Node11</title>
<path fill="none" stroke="midnightblue" d="M845.08,-48.43C836.84,-38.97 826.85,-27.48 820.12,-19.75"/>
<polygon fill="midnightblue" stroke="midnightblue" points="842.53,-50.84 851.74,-56.08 847.81,-46.24 842.53,-50.84"/>
</g>
<!-- Node12 -->
<g id="node12" class="node">
<title>Node12</title>
<g id="a_node12"><a xlink:href="magick-image_8c.html" target="_top" xlink:title=" ">
<polygon fill="white" stroke="black" points="859,-0.5 859,-19.5 954,-19.5 954,-0.5 859,-0.5"/>
<text text-anchor="middle" x="906.5" y="-7.5" font-family="FreeSans" font-size="10.00">magick&#45;image.c</text>
</a>
</g>
</g>
<!-- Node1&#45;&gt;Node12 -->
<g id="edge11" class="edge">
<title>Node1&#45;&gt;Node12</title>
<path fill="none" stroke="midnightblue" d="M873.92,-48.43C882.16,-38.97 892.15,-27.48 898.88,-19.75"/>
<polygon fill="midnightblue" stroke="midnightblue" points="871.19,-46.24 867.26,-56.08 876.47,-50.84 871.19,-46.24"/>
</g>
<!-- Node13 -->
<g id="node13" class="node">
<title>Node13</title>
<g id="a_node13"><a xlink:href="magick-property_8c.html" target="_top" xlink:title=" ">
<polygon fill="white" stroke="black" points="972.5,-0.5 972.5,-19.5 1076.5,-19.5 1076.5,-0.5 972.5,-0.5"/>
<text text-anchor="middle" x="1024.5" y="-7.5" font-family="FreeSans" font-size="10.00">magick&#45;property.c</text>
</a>
</g>
</g>
<!-- Node1&#45;&gt;Node13 -->
<g id="edge12" class="edge">
<title>Node1&#45;&gt;Node13</title>
<path fill="none" stroke="midnightblue" d="M895.24,-53.3C926.33,-43.13 970.65,-28.62 998.48,-19.52"/>
<polygon fill="midnightblue" stroke="midnightblue" points="894.06,-50.01 885.64,-56.44 896.24,-56.66 894.06,-50.01"/>
</g>
<!-- Node14 -->
<g id="node14" class="node">
<title>Node14</title>
<g id="a_node14"><a xlink:href="magick-wand_8c.html" target="_top" xlink:title=" ">
<polygon fill="white" stroke="black" points="1095,-0.5 1095,-19.5 1186,-19.5 1186,-0.5 1095,-0.5"/>
<text text-anchor="middle" x="1140.5" y="-7.5" font-family="FreeSans" font-size="10.00">magick&#45;wand.c</text>
</a>
</g>
</g>
<!-- Node1&#45;&gt;Node14 -->
<g id="edge13" class="edge">
<title>Node1&#45;&gt;Node14</title>
<path fill="none" stroke="midnightblue" d="M897.83,-57.63C949.57,-47.69 1041.59,-30.01 1096.23,-19.51"/>
<polygon fill="midnightblue" stroke="midnightblue" points="896.89,-54.25 887.73,-59.58 898.21,-61.12 896.89,-54.25"/>
</g>
<!-- Node15 -->
<g id="node15" class="node">
<title>Node15</title>
<g id="a_node15"><a xlink:href="mogrify_8c.html" target="_top" xlink:title=" ">
<polygon fill="white" stroke="black" points="1204,-0.5 1204,-19.5 1265,-19.5 1265,-0.5 1204,-0.5"/>
<text text-anchor="middle" x="1234.5" y="-7.5" font-family="FreeSans" font-size="10.00">mogrify.c</text>
</a>
</g>
</g>
<!-- Node1&#45;&gt;Node15 -->
<g id="edge14" class="edge">
<title>Node1&#45;&gt;Node15</title>
<path fill="none" stroke="midnightblue" d="M897.69,-61.06C960.22,-54.36 1088.22,-39.52 1195.5,-20 1198.23,-19.5 1201.07,-18.94 1203.9,-18.35"/>
<polygon fill="midnightblue" stroke="midnightblue" points="897.09,-57.61 887.52,-62.15 897.83,-64.57 897.09,-57.61"/>
</g>
<!-- Node16 -->
<g id="node16" class="node">
<title>Node16</title>
<g id="a_node16"><a xlink:href="montage_8c.html" target="_top" xlink:title=" ">
<polygon fill="white" stroke="black" points="1283.5,-0.5 1283.5,-19.5 1351.5,-19.5 1351.5,-0.5 1283.5,-0.5"/>
<text text-anchor="middle" x="1317.5" y="-7.5" font-family="FreeSans" font-size="10.00">montage.c</text>
</a>
</g>
</g>
<!-- Node1&#45;&gt;Node16 -->
<g id="edge15" class="edge">
<title>Node1&#45;&gt;Node16</title>
<path fill="none" stroke="midnightblue" d="M897.97,-62.1C971.44,-56.28 1136.69,-41.84 1274.5,-20 1277.36,-19.55 1280.32,-19.03 1283.29,-18.48"/>
<polygon fill="midnightblue" stroke="midnightblue" points="897.5,-58.63 887.81,-62.9 898.05,-65.6 897.5,-58.63"/>
</g>
<!-- Node17 -->
<g id="node17" class="node">
<title>Node17</title>
<g id="a_node17"><a xlink:href="pixel-iterator_8c.html" target="_top" xlink:title=" ">
<polygon fill="white" stroke="black" points="1370,-0.5 1370,-19.5 1457,-19.5 1457,-0.5 1370,-0.5"/>
<text text-anchor="middle" x="1413.5" y="-7.5" font-family="FreeSans" font-size="10.00">pixel&#45;iterator.c</text>
</a>
</g>
</g>
<!-- Node1&#45;&gt;Node17 -->
<g id="edge16" class="edge">
<title>Node1&#45;&gt;Node17</title>
<path fill="none" stroke="midnightblue" d="M897.64,-62.6C981.54,-57.1 1188.37,-42.31 1360.5,-20 1363.55,-19.6 1366.7,-19.16 1369.87,-18.69"/>
<polygon fill="midnightblue" stroke="midnightblue" points="897.31,-59.12 887.56,-63.26 897.76,-66.1 897.31,-59.12"/>
</g>
<!-- Node18 -->
<g id="node18" class="node">
<title>Node18</title>
<g id="a_node18"><a xlink:href="pixel-wand_8c.html" target="_top" xlink:title=" ">
<polygon fill="white" stroke="black" points="1475.5,-0.5 1475.5,-19.5 1553.5,-19.5 1553.5,-0.5 1475.5,-0.5"/>
<text text-anchor="middle" x="1514.5" y="-7.5" font-family="FreeSans" font-size="10.00">pixel&#45;wand.c</text>
</a>
</g>
</g>
<!-- Node1&#45;&gt;Node18 -->
<g id="edge17" class="edge">
<title>Node1&#45;&gt;Node18</title>
<path fill="none" stroke="midnightblue" d="M897.86,-63.64C993.96,-59.91 1252.64,-47.89 1466.5,-20 1469.36,-19.63 1472.3,-19.19 1475.26,-18.72"/>
<polygon fill="midnightblue" stroke="midnightblue" points="897.61,-60.15 887.75,-64.02 897.88,-67.14 897.61,-60.15"/>
</g>
<!-- Node19 -->
<g id="node19" class="node">
<title>Node19</title>
<g id="a_node19"><a xlink:href="stream_8c.html" target="_top" xlink:title=" ">
<polygon fill="white" stroke="black" points="1572,-0.5 1572,-19.5 1631,-19.5 1631,-0.5 1572,-0.5"/>
<text text-anchor="middle" x="1601.5" y="-7.5" font-family="FreeSans" font-size="10.00">stream.c</text>
</a>
</g>
</g>
<!-- Node1&#45;&gt;Node19 -->
<g id="edge18" class="edge">
<title>Node1&#45;&gt;Node19</title>
<path fill="none" stroke="midnightblue" d="M898.04,-64.73C1004.43,-63.52 1310.97,-56.82 1562.5,-20 1565.53,-19.56 1568.66,-19 1571.78,-18.38"/>
<polygon fill="midnightblue" stroke="midnightblue" points="897.76,-61.23 887.8,-64.84 897.84,-68.23 897.76,-61.23"/>
</g>
<!-- Node20 -->
<g id="node20" class="node">
<title>Node20</title>
<g id="a_node20"><a xlink:href="wand-view_8c.html" target="_top" xlink:title=" ">
<polygon fill="white" stroke="black" points="1649,-0.5 1649,-19.5 1726,-19.5 1726,-0.5 1649,-0.5"/>
<text text-anchor="middle" x="1687.5" y="-7.5" font-family="FreeSans" font-size="10.00">wand&#45;view.c</text>
</a>
</g>
</g>
<!-- Node1&#45;&gt;Node20 -->
<g id="edge19" class="edge">
<title>Node1&#45;&gt;Node20</title>
<path fill="none" stroke="midnightblue" d="M897.92,-64.57C1011.72,-62.93 1356.83,-55.18 1640.5,-20 1643.22,-19.66 1646.02,-19.26 1648.84,-18.82"/>
<polygon fill="midnightblue" stroke="midnightblue" points="897.59,-61.08 887.64,-64.71 897.69,-68.08 897.59,-61.08"/>
</g>
<!-- Node21 -->
<g id="node21" class="node">
<title>Node21</title>
<g id="a_node21"><a xlink:href="wand_8c.html" target="_top" xlink:title=" ">
<polygon fill="white" stroke="black" points="1744,-0.5 1744,-19.5 1795,-19.5 1795,-0.5 1744,-0.5"/>
<text text-anchor="middle" x="1769.5" y="-7.5" font-family="FreeSans" font-size="10.00">wand.c</text>
</a>
</g>
</g>
<!-- Node1&#45;&gt;Node21 -->
<g id="edge20" class="edge">
<title>Node1&#45;&gt;Node21</title>
<path fill="none" stroke="midnightblue" d="M898.25,-64.08C1045.54,-60.41 1570.55,-45.78 1735.5,-20 1738.15,-19.59 1740.9,-19.05 1743.63,-18.44"/>
<polygon fill="midnightblue" stroke="midnightblue" points="897.83,-60.59 887.92,-64.33 898,-67.59 897.83,-60.59"/>
</g>
</g>
</svg>
