<?xml version="1.0" encoding="UTF-8" standalone="no"?>
<!DOCTYPE svg PUBLIC "-//W3C//DTD SVG 1.1//EN"
 "http://www.w3.org/Graphics/SVG/1.1/DTD/svg11.dtd">
<!-- Generated by graphviz version 2.43.0 (0)
 -->
<!-- Title: studio.h Pages: 1 -->
<svg width="2872pt" height="252pt"
 viewBox="0.00 0.00 2872.00 252.00" xmlns="http://www.w3.org/2000/svg" xmlns:xlink="http://www.w3.org/1999/xlink">
<g id="graph0" class="graph" transform="scale(1 1) rotate(0) translate(4 248)">
<title>studio.h</title>
<polygon fill="white" stroke="transparent" points="-4,4 -4,-248 2868,-248 2868,4 -4,4"/>
<!-- Node1 -->
<g id="node1" class="node">
<title>Node1</title>
<g id="a_node1"><a xlink:title=" ">
<polygon fill="#bfbfbf" stroke="black" points="1366,-224.5 1366,-243.5 1422,-243.5 1422,-224.5 1366,-224.5"/>
<text text-anchor="middle" x="1394" y="-231.5" font-family="FreeSans" font-size="10.00">studio.h</text>
</a>
</g>
</g>
<!-- Node2 -->
<g id="node2" class="node">
<title>Node2</title>
<g id="a_node2"><a xlink:title=" ">
<polygon fill="white" stroke="#bfbfbf" points="0,-112.5 0,-131.5 134,-131.5 134,-112.5 0,-112.5"/>
<text text-anchor="middle" x="67" y="-119.5" font-family="FreeSans" font-size="10.00">magick/magick&#45;config.h</text>
</a>
</g>
</g>
<!-- Node1&#45;&gt;Node2 -->
<g id="edge1" class="edge">
<title>Node1&#45;&gt;Node2</title>
<path fill="none" stroke="midnightblue" d="M1365.61,-233.19C1247.6,-233.67 784.34,-232.44 407,-188 300.49,-175.46 177.26,-148.82 112.37,-133.83"/>
<polygon fill="midnightblue" stroke="midnightblue" points="113.01,-130.38 102.47,-131.53 111.42,-137.2 113.01,-130.38"/>
</g>
<!-- Node3 -->
<g id="node3" class="node">
<title>Node3</title>
<g id="a_node3"><a xlink:title=" ">
<polygon fill="white" stroke="#bfbfbf" points="152,-112.5 152,-131.5 208,-131.5 208,-112.5 152,-112.5"/>
<text text-anchor="middle" x="180" y="-119.5" font-family="FreeSans" font-size="10.00">stdarg.h</text>
</a>
</g>
</g>
<!-- Node1&#45;&gt;Node3 -->
<g id="edge2" class="edge">
<title>Node1&#45;&gt;Node3</title>
<path fill="none" stroke="midnightblue" d="M1365.81,-232.51C1260.6,-230.46 880.93,-221.06 570,-188 415.28,-171.55 374.41,-163.57 218.19,-132.12"/>
<polygon fill="midnightblue" stroke="midnightblue" points="218.72,-128.66 208.23,-130.12 217.34,-135.52 218.72,-128.66"/>
</g>
<!-- Node4 -->
<g id="node4" class="node">
<title>Node4</title>
<g id="a_node4"><a xlink:title=" ">
<polygon fill="white" stroke="#bfbfbf" points="226,-112.5 226,-131.5 276,-131.5 276,-112.5 226,-112.5"/>
<text text-anchor="middle" x="251" y="-119.5" font-family="FreeSans" font-size="10.00">stdio.h</text>
</a>
</g>
</g>
<!-- Node1&#45;&gt;Node4 -->
<g id="edge3" class="edge">
<title>Node1&#45;&gt;Node4</title>
<path fill="none" stroke="midnightblue" d="M1365.8,-231.38C1277.96,-226.24 1001.43,-209.37 773,-188 667.29,-178.11 407.02,-153.63 286.03,-131.92"/>
<polygon fill="midnightblue" stroke="midnightblue" points="286.63,-128.47 276.16,-130.09 285.36,-135.35 286.63,-128.47"/>
</g>
<!-- Node5 -->
<g id="node5" class="node">
<title>Node5</title>
<g id="a_node5"><a xlink:title=" ">
<polygon fill="white" stroke="#bfbfbf" points="1224.5,-168.5 1224.5,-187.5 1277.5,-187.5 1277.5,-168.5 1224.5,-168.5"/>
<text text-anchor="middle" x="1251" y="-175.5" font-family="FreeSans" font-size="10.00">ctype.h</text>
</a>
</g>
</g>
<!-- Node1&#45;&gt;Node5 -->
<g id="edge4" class="edge">
<title>Node1&#45;&gt;Node5</title>
<path fill="none" stroke="midnightblue" d="M1371.34,-224.44C1347.6,-215.48 1310.09,-201.31 1283.26,-191.18"/>
<polygon fill="midnightblue" stroke="midnightblue" points="1284.14,-187.77 1273.55,-187.52 1281.67,-194.32 1284.14,-187.77"/>
</g>
<!-- Node6 -->
<g id="node6" class="node">
<title>Node6</title>
<g id="a_node6"><a xlink:title=" ">
<polygon fill="white" stroke="#bfbfbf" points="1295.5,-168.5 1295.5,-187.5 1350.5,-187.5 1350.5,-168.5 1295.5,-168.5"/>
<text text-anchor="middle" x="1323" y="-175.5" font-family="FreeSans" font-size="10.00">locale.h</text>
</a>
</g>
</g>
<!-- Node1&#45;&gt;Node6 -->
<g id="edge5" class="edge">
<title>Node1&#45;&gt;Node6</title>
<path fill="none" stroke="midnightblue" d="M1382.59,-224.32C1371.89,-216.18 1355.66,-203.84 1342.84,-194.09"/>
<polygon fill="midnightblue" stroke="midnightblue" points="1344.69,-191.1 1334.61,-187.83 1340.46,-196.67 1344.69,-191.1"/>
</g>
<!-- Node7 -->
<g id="node7" class="node">
<title>Node7</title>
<g id="a_node7"><a xlink:title=" ">
<polygon fill="white" stroke="#bfbfbf" points="1368.5,-168.5 1368.5,-187.5 1419.5,-187.5 1419.5,-168.5 1368.5,-168.5"/>
<text text-anchor="middle" x="1394" y="-175.5" font-family="FreeSans" font-size="10.00">errno.h</text>
</a>
</g>
</g>
<!-- Node1&#45;&gt;Node7 -->
<g id="edge6" class="edge">
<title>Node1&#45;&gt;Node7</title>
<path fill="none" stroke="midnightblue" d="M1394,-224.08C1394,-217.01 1394,-206.86 1394,-197.99"/>
<polygon fill="midnightblue" stroke="midnightblue" points="1397.5,-197.75 1394,-187.75 1390.5,-197.75 1397.5,-197.75"/>
</g>
<!-- Node8 -->
<g id="node8" class="node">
<title>Node8</title>
<g id="a_node8"><a xlink:title=" ">
<polygon fill="white" stroke="#bfbfbf" points="1437.5,-168.5 1437.5,-187.5 1484.5,-187.5 1484.5,-168.5 1437.5,-168.5"/>
<text text-anchor="middle" x="1461" y="-175.5" font-family="FreeSans" font-size="10.00">fcntl.h</text>
</a>
</g>
</g>
<!-- Node1&#45;&gt;Node8 -->
<g id="edge7" class="edge">
<title>Node1&#45;&gt;Node8</title>
<path fill="none" stroke="midnightblue" d="M1404.76,-224.32C1414.77,-216.26 1429.89,-204.08 1441.93,-194.37"/>
<polygon fill="midnightblue" stroke="midnightblue" points="1444.45,-196.83 1450.04,-187.83 1440.06,-191.38 1444.45,-196.83"/>
</g>
<!-- Node9 -->
<g id="node9" class="node">
<title>Node9</title>
<g id="a_node9"><a xlink:title=" ">
<polygon fill="white" stroke="#bfbfbf" points="294.5,-112.5 294.5,-131.5 345.5,-131.5 345.5,-112.5 294.5,-112.5"/>
<text text-anchor="middle" x="320" y="-119.5" font-family="FreeSans" font-size="10.00">math.h</text>
</a>
</g>
</g>
<!-- Node1&#45;&gt;Node9 -->
<g id="edge8" class="edge">
<title>Node1&#45;&gt;Node9</title>
<path fill="none" stroke="midnightblue" d="M1365.91,-230.89C1291.55,-225.18 1083.48,-208.52 911,-188 849.46,-180.68 834.57,-175.11 773,-168 591.02,-146.99 540.58,-162.75 355.57,-131.79"/>
<polygon fill="midnightblue" stroke="midnightblue" points="355.95,-128.3 345.51,-130.08 354.78,-135.2 355.95,-128.3"/>
</g>
<!-- Node10 -->
<g id="node10" class="node">
<title>Node10</title>
<g id="a_node10"><a xlink:title=" ">
<polygon fill="white" stroke="#bfbfbf" points="364,-112.5 364,-131.5 412,-131.5 412,-112.5 364,-112.5"/>
<text text-anchor="middle" x="388" y="-119.5" font-family="FreeSans" font-size="10.00">time.h</text>
</a>
</g>
</g>
<!-- Node1&#45;&gt;Node10 -->
<g id="edge9" class="edge">
<title>Node1&#45;&gt;Node10</title>
<path fill="none" stroke="midnightblue" d="M1365.59,-230.84C1300.45,-225.66 1135.43,-211.2 999,-188 959.46,-181.28 950.67,-173.93 911,-168 698.3,-136.2 638.04,-167.91 422.1,-131.84"/>
<polygon fill="midnightblue" stroke="midnightblue" points="422.48,-128.36 412.03,-130.13 421.3,-135.26 422.48,-128.36"/>
</g>
<!-- Node11 -->
<g id="node11" class="node">
<title>Node11</title>
<g id="a_node11"><a xlink:title=" ">
<polygon fill="white" stroke="#bfbfbf" points="1502.5,-168.5 1502.5,-187.5 1555.5,-187.5 1555.5,-168.5 1502.5,-168.5"/>
<text text-anchor="middle" x="1529" y="-175.5" font-family="FreeSans" font-size="10.00">limits.h</text>
</a>
</g>
</g>
<!-- Node1&#45;&gt;Node11 -->
<g id="edge10" class="edge">
<title>Node1&#45;&gt;Node11</title>
<path fill="none" stroke="midnightblue" d="M1415.39,-224.44C1437.71,-215.52 1472.9,-201.44 1498.21,-191.32"/>
<polygon fill="midnightblue" stroke="midnightblue" points="1499.72,-194.48 1507.71,-187.52 1497.12,-187.98 1499.72,-194.48"/>
</g>
<!-- Node12 -->
<g id="node12" class="node">
<title>Node12</title>
<g id="a_node12"><a xlink:title=" ">
<polygon fill="white" stroke="#bfbfbf" points="1573.5,-168.5 1573.5,-187.5 1628.5,-187.5 1628.5,-168.5 1573.5,-168.5"/>
<text text-anchor="middle" x="1601" y="-175.5" font-family="FreeSans" font-size="10.00">signal.h</text>
</a>
</g>
</g>
<!-- Node1&#45;&gt;Node12 -->
<g id="edge11" class="edge">
<title>Node1&#45;&gt;Node12</title>
<path fill="none" stroke="midnightblue" d="M1422.35,-225.6C1458.99,-216.05 1522.91,-199.37 1563.53,-188.77"/>
<polygon fill="midnightblue" stroke="midnightblue" points="1564.53,-192.13 1573.32,-186.22 1562.76,-185.36 1564.53,-192.13"/>
</g>
<!-- Node13 -->
<g id="node13" class="node">
<title>Node13</title>
<g id="a_node13"><a xlink:title=" ">
<polygon fill="white" stroke="#bfbfbf" points="1647,-168.5 1647,-187.5 1703,-187.5 1703,-168.5 1647,-168.5"/>
<text text-anchor="middle" x="1675" y="-175.5" font-family="FreeSans" font-size="10.00">assert.h</text>
</a>
</g>
</g>
<!-- Node1&#45;&gt;Node13 -->
<g id="edge12" class="edge">
<title>Node1&#45;&gt;Node13</title>
<path fill="none" stroke="midnightblue" d="M1422.15,-228.25C1467.52,-220.5 1559.54,-204.33 1637,-188 1637.1,-187.98 1637.2,-187.96 1637.3,-187.94"/>
<polygon fill="midnightblue" stroke="midnightblue" points="1637.8,-191.41 1646.81,-185.84 1636.29,-184.57 1637.8,-191.41"/>
</g>
<!-- Node14 -->
<g id="node14" class="node">
<title>Node14</title>
<g id="a_node14"><a xlink:title=" ">
<polygon fill="white" stroke="#bfbfbf" points="430,-112.5 430,-131.5 502,-131.5 502,-112.5 430,-112.5"/>
<text text-anchor="middle" x="466" y="-119.5" font-family="FreeSans" font-size="10.00">sys/types.h</text>
</a>
</g>
</g>
<!-- Node1&#45;&gt;Node14 -->
<g id="edge13" class="edge">
<title>Node1&#45;&gt;Node14</title>
<path fill="none" stroke="midnightblue" d="M1365.69,-229.9C1310.47,-223.65 1184.6,-208.36 1080,-188 1043.6,-180.92 1035.62,-173.83 999,-168 787.48,-134.33 728.27,-160.56 512.35,-132.01"/>
<polygon fill="midnightblue" stroke="midnightblue" points="512.66,-128.52 502.28,-130.66 511.73,-135.46 512.66,-128.52"/>
</g>
<!-- Node15 -->
<g id="node15" class="node">
<title>Node15</title>
<g id="a_node15"><a xlink:title=" ">
<polygon fill="white" stroke="#bfbfbf" points="1721,-168.5 1721,-187.5 1785,-187.5 1785,-168.5 1721,-168.5"/>
<text text-anchor="middle" x="1753" y="-175.5" font-family="FreeSans" font-size="10.00">sys/stat.h</text>
</a>
</g>
</g>
<!-- Node1&#45;&gt;Node15 -->
<g id="edge14" class="edge">
<title>Node1&#45;&gt;Node15</title>
<path fill="none" stroke="midnightblue" d="M1422.19,-229.74C1476.18,-223.33 1598.12,-208.11 1710.66,-188.13"/>
<polygon fill="midnightblue" stroke="midnightblue" points="1711.59,-191.52 1720.82,-186.31 1710.36,-184.63 1711.59,-191.52"/>
</g>
<!-- Node16 -->
<g id="node16" class="node">
<title>Node16</title>
<g id="a_node16"><a xlink:title=" ">
<polygon fill="white" stroke="#bfbfbf" points="1803,-168.5 1803,-187.5 1857,-187.5 1857,-168.5 1803,-168.5"/>
<text text-anchor="middle" x="1830" y="-175.5" font-family="FreeSans" font-size="10.00">dirent.h</text>
</a>
</g>
</g>
<!-- Node1&#45;&gt;Node16 -->
<g id="edge15" class="edge">
<title>Node1&#45;&gt;Node16</title>
<path fill="none" stroke="midnightblue" d="M1422.31,-231.11C1486.54,-226.56 1648.28,-213.54 1793.01,-187.95"/>
<polygon fill="midnightblue" stroke="midnightblue" points="1793.73,-191.38 1802.96,-186.17 1792.5,-184.49 1793.73,-191.38"/>
</g>
<!-- Node17 -->
<g id="node17" class="node">
<title>Node17</title>
<g id="a_node17"><a xlink:title=" ">
<polygon fill="white" stroke="#bfbfbf" points="1875,-168.5 1875,-187.5 1941,-187.5 1941,-168.5 1875,-168.5"/>
<text text-anchor="middle" x="1908" y="-175.5" font-family="FreeSans" font-size="10.00">sys/wait.h</text>
</a>
</g>
</g>
<!-- Node1&#45;&gt;Node17 -->
<g id="edge16" class="edge">
<title>Node1&#45;&gt;Node17</title>
<path fill="none" stroke="midnightblue" d="M1422.07,-231.46C1494,-227.29 1690.92,-214.33 1864.51,-188.07"/>
<polygon fill="midnightblue" stroke="midnightblue" points="1865.24,-191.5 1874.59,-186.52 1864.18,-184.58 1865.24,-191.5"/>
</g>
<!-- Node18 -->
<g id="node18" class="node">
<title>Node18</title>
<g id="a_node18"><a xlink:title=" ">
<polygon fill="white" stroke="#bfbfbf" points="1959,-168.5 1959,-187.5 2005,-187.5 2005,-168.5 1959,-168.5"/>
<text text-anchor="middle" x="1982" y="-175.5" font-family="FreeSans" font-size="10.00">pwd.h</text>
</a>
</g>
</g>
<!-- Node1&#45;&gt;Node18 -->
<g id="edge17" class="edge">
<title>Node1&#45;&gt;Node18</title>
<path fill="none" stroke="midnightblue" d="M1422.01,-232.64C1502.6,-231.21 1741.94,-224.13 1948.58,-187.92"/>
<polygon fill="midnightblue" stroke="midnightblue" points="1949.47,-191.31 1958.7,-186.11 1948.24,-184.42 1949.47,-191.31"/>
</g>
<!-- Node19 -->
<g id="node19" class="node">
<title>Node19</title>
<g id="a_node19"><a xlink:href="MagickWand_8h.html" target="_top" xlink:title=" ">
<polygon fill="white" stroke="black" points="1089.5,-168.5 1089.5,-187.5 1206.5,-187.5 1206.5,-168.5 1089.5,-168.5"/>
<text text-anchor="middle" x="1148" y="-175.5" font-family="FreeSans" font-size="10.00">wand/MagickWand.h</text>
</a>
</g>
</g>
<!-- Node1&#45;&gt;Node19 -->
<g id="edge18" class="edge">
<title>Node1&#45;&gt;Node19</title>
<path fill="none" stroke="midnightblue" d="M1365.78,-226.81C1324.57,-217.76 1247.36,-200.81 1196.82,-189.72"/>
<polygon fill="midnightblue" stroke="midnightblue" points="1197.29,-186.24 1186.77,-187.51 1195.79,-193.07 1197.29,-186.24"/>
</g>
<!-- Node43 -->
<g id="node43" class="node">
<title>Node43</title>
<g id="a_node43"><a xlink:title=" ">
<polygon fill="white" stroke="#bfbfbf" points="2023,-168.5 2023,-187.5 2091,-187.5 2091,-168.5 2023,-168.5"/>
<text text-anchor="middle" x="2057" y="-175.5" font-family="FreeSans" font-size="10.00">sys/time.h</text>
</a>
</g>
</g>
<!-- Node1&#45;&gt;Node43 -->
<g id="edge55" class="edge">
<title>Node1&#45;&gt;Node43</title>
<path fill="none" stroke="midnightblue" d="M1422.26,-232.29C1509.03,-229.85 1779.35,-220.11 2012.77,-187.99"/>
<polygon fill="midnightblue" stroke="midnightblue" points="2013.38,-191.43 2022.81,-186.59 2012.42,-184.5 2013.38,-191.43"/>
</g>
<!-- Node19&#45;&gt;Node2 -->
<g id="edge19" class="edge">
<title>Node19&#45;&gt;Node2</title>
<path fill="none" stroke="midnightblue" d="M1089.28,-175.87C935.76,-172.6 509.61,-161.44 144.09,-132.03"/>
<polygon fill="midnightblue" stroke="midnightblue" points="144.36,-128.54 134.11,-131.22 143.79,-135.51 144.36,-128.54"/>
</g>
<!-- Node19&#45;&gt;Node3 -->
<g id="edge21" class="edge">
<title>Node19&#45;&gt;Node3</title>
<path fill="none" stroke="midnightblue" d="M1089.37,-175.63C915.78,-171.33 405.46,-157.02 218.18,-131.84"/>
<polygon fill="midnightblue" stroke="midnightblue" points="218.56,-128.36 208.17,-130.44 217.59,-135.29 218.56,-128.36"/>
</g>
<!-- Node19&#45;&gt;Node4 -->
<g id="edge20" class="edge">
<title>Node19&#45;&gt;Node4</title>
<path fill="none" stroke="midnightblue" d="M1089.5,-175.53C924.93,-171.13 459.3,-156.96 286.12,-131.79"/>
<polygon fill="midnightblue" stroke="midnightblue" points="286.54,-128.31 276.13,-130.27 285.49,-135.23 286.54,-128.31"/>
</g>
<!-- Node19&#45;&gt;Node9 -->
<g id="edge24" class="edge">
<title>Node19&#45;&gt;Node9</title>
<path fill="none" stroke="midnightblue" d="M1089.46,-174.34C924.41,-166.75 461,-144.78 355.91,-131.65"/>
<polygon fill="midnightblue" stroke="midnightblue" points="356.26,-128.17 345.88,-130.25 355.3,-135.1 356.26,-128.17"/>
</g>
<!-- Node19&#45;&gt;Node10 -->
<g id="edge26" class="edge">
<title>Node19&#45;&gt;Node10</title>
<path fill="none" stroke="midnightblue" d="M1089.27,-173.44C929.83,-163.78 496.36,-137.44 422.37,-131.21"/>
<polygon fill="midnightblue" stroke="midnightblue" points="422.33,-127.69 412.02,-130.16 421.62,-134.66 422.33,-127.69"/>
</g>
<!-- Node19&#45;&gt;Node14 -->
<g id="edge25" class="edge">
<title>Node19&#45;&gt;Node14</title>
<path fill="none" stroke="midnightblue" d="M1089.28,-170.55C1080.15,-169.63 1070.83,-168.75 1062,-168 820.81,-147.51 756.06,-163.68 512.51,-132.03"/>
<polygon fill="midnightblue" stroke="midnightblue" points="512.65,-128.52 502.28,-130.68 511.74,-135.46 512.65,-128.52"/>
</g>
<!-- Node20 -->
<g id="node20" class="node">
<title>Node20</title>
<g id="a_node20"><a xlink:title=" ">
<polygon fill="white" stroke="#bfbfbf" points="1121.5,-112.5 1121.5,-131.5 1174.5,-131.5 1174.5,-112.5 1121.5,-112.5"/>
<text text-anchor="middle" x="1148" y="-119.5" font-family="FreeSans" font-size="10.00">stdlib.h</text>
</a>
</g>
</g>
<!-- Node19&#45;&gt;Node20 -->
<g id="edge22" class="edge">
<title>Node19&#45;&gt;Node20</title>
<path fill="none" stroke="midnightblue" d="M1148,-168.08C1148,-161.01 1148,-150.86 1148,-141.99"/>
<polygon fill="midnightblue" stroke="midnightblue" points="1151.5,-141.75 1148,-131.75 1144.5,-141.75 1151.5,-141.75"/>
</g>
<!-- Node21 -->
<g id="node21" class="node">
<title>Node21</title>
<g id="a_node21"><a xlink:title=" ">
<polygon fill="white" stroke="#bfbfbf" points="1192.5,-112.5 1192.5,-131.5 1245.5,-131.5 1245.5,-112.5 1192.5,-112.5"/>
<text text-anchor="middle" x="1219" y="-119.5" font-family="FreeSans" font-size="10.00">stdint.h</text>
</a>
</g>
</g>
<!-- Node19&#45;&gt;Node21 -->
<g id="edge23" class="edge">
<title>Node19&#45;&gt;Node21</title>
<path fill="none" stroke="midnightblue" d="M1159.41,-168.32C1170.11,-160.18 1186.34,-147.84 1199.16,-138.09"/>
<polygon fill="midnightblue" stroke="midnightblue" points="1201.54,-140.67 1207.39,-131.83 1197.31,-135.1 1201.54,-140.67"/>
</g>
<!-- Node22 -->
<g id="node22" class="node">
<title>Node22</title>
<g id="a_node22"><a xlink:href="method-attribute_8h.html" target="_top" xlink:title=" ">
<polygon fill="white" stroke="black" points="1264,-112.5 1264,-131.5 1402,-131.5 1402,-112.5 1264,-112.5"/>
<text text-anchor="middle" x="1333" y="-119.5" font-family="FreeSans" font-size="10.00">wand/method&#45;attribute.h</text>
</a>
</g>
</g>
<!-- Node19&#45;&gt;Node22 -->
<g id="edge27" class="edge">
<title>Node19&#45;&gt;Node22</title>
<path fill="none" stroke="midnightblue" d="M1177.31,-168.44C1208.84,-159.24 1259.13,-144.56 1293.99,-134.39"/>
<polygon fill="midnightblue" stroke="midnightblue" points="1295.2,-137.68 1303.82,-131.52 1293.24,-130.96 1295.2,-137.68"/>
</g>
<!-- Node23 -->
<g id="node23" class="node">
<title>Node23</title>
<g id="a_node23"><a xlink:title=" ">
<polygon fill="white" stroke="#bfbfbf" points="1420,-112.5 1420,-131.5 1542,-131.5 1542,-112.5 1420,-112.5"/>
<text text-anchor="middle" x="1481" y="-119.5" font-family="FreeSans" font-size="10.00">magick/MagickCore.h</text>
</a>
</g>
</g>
<!-- Node19&#45;&gt;Node23 -->
<g id="edge28" class="edge">
<title>Node19&#45;&gt;Node23</title>
<path fill="none" stroke="midnightblue" d="M1200.76,-168.44C1259.83,-158.87 1355.47,-143.36 1418.31,-133.17"/>
<polygon fill="midnightblue" stroke="midnightblue" points="1419.17,-136.57 1428.48,-131.52 1418.05,-129.66 1419.17,-136.57"/>
</g>
<!-- Node24 -->
<g id="node24" class="node">
<title>Node24</title>
<g id="a_node24"><a xlink:href="animate_8h.html" target="_top" xlink:title=" ">
<polygon fill="white" stroke="black" points="1560.5,-112.5 1560.5,-131.5 1655.5,-131.5 1655.5,-112.5 1560.5,-112.5"/>
<text text-anchor="middle" x="1608" y="-119.5" font-family="FreeSans" font-size="10.00">wand/animate.h</text>
</a>
</g>
</g>
<!-- Node19&#45;&gt;Node24 -->
<g id="edge29" class="edge">
<title>Node19&#45;&gt;Node24</title>
<path fill="none" stroke="midnightblue" d="M1206.81,-169.01C1209.58,-168.66 1212.32,-168.32 1215,-168 1360.9,-150.39 1400.43,-151.65 1550.4,-132.02"/>
<polygon fill="midnightblue" stroke="midnightblue" points="1550.98,-135.47 1560.44,-130.69 1550.07,-128.53 1550.98,-135.47"/>
</g>
<!-- Node25 -->
<g id="node25" class="node">
<title>Node25</title>
<g id="a_node25"><a xlink:href="compare_8h.html" target="_top" xlink:title=" ">
<polygon fill="white" stroke="black" points="1674,-112.5 1674,-131.5 1772,-131.5 1772,-112.5 1674,-112.5"/>
<text text-anchor="middle" x="1723" y="-119.5" font-family="FreeSans" font-size="10.00">wand/compare.h</text>
</a>
</g>
</g>
<!-- Node19&#45;&gt;Node25 -->
<g id="edge30" class="edge">
<title>Node19&#45;&gt;Node25</title>
<path fill="none" stroke="midnightblue" d="M1206.8,-168.92C1209.57,-168.6 1212.32,-168.29 1215,-168 1410.85,-147.01 1463.46,-154.84 1663.82,-131.93"/>
<polygon fill="midnightblue" stroke="midnightblue" points="1664.25,-135.4 1673.78,-130.78 1663.44,-128.45 1664.25,-135.4"/>
</g>
<!-- Node26 -->
<g id="node26" class="node">
<title>Node26</title>
<g id="a_node26"><a xlink:href="composite_8h.html" target="_top" xlink:title=" ">
<polygon fill="white" stroke="black" points="1790,-112.5 1790,-131.5 1896,-131.5 1896,-112.5 1790,-112.5"/>
<text text-anchor="middle" x="1843" y="-119.5" font-family="FreeSans" font-size="10.00">wand/composite.h</text>
</a>
</g>
</g>
<!-- Node19&#45;&gt;Node26 -->
<g id="edge31" class="edge">
<title>Node19&#45;&gt;Node26</title>
<path fill="none" stroke="midnightblue" d="M1206.8,-168.86C1209.57,-168.56 1212.31,-168.27 1215,-168 1462.53,-143.53 1528.56,-157.74 1779.77,-132.04"/>
<polygon fill="midnightblue" stroke="midnightblue" points="1780.35,-135.5 1789.94,-130.99 1779.63,-128.54 1780.35,-135.5"/>
</g>
<!-- Node27 -->
<g id="node27" class="node">
<title>Node27</title>
<g id="a_node27"><a xlink:href="conjure_8h.html" target="_top" xlink:title=" ">
<polygon fill="white" stroke="black" points="1914.5,-112.5 1914.5,-131.5 2005.5,-131.5 2005.5,-112.5 1914.5,-112.5"/>
<text text-anchor="middle" x="1960" y="-119.5" font-family="FreeSans" font-size="10.00">wand/conjure.h</text>
</a>
</g>
</g>
<!-- Node19&#45;&gt;Node27 -->
<g id="edge32" class="edge">
<title>Node19&#45;&gt;Node27</title>
<path fill="none" stroke="midnightblue" d="M1206.8,-168.83C1209.57,-168.53 1212.31,-168.25 1215,-168 1517.48,-139.84 1597.96,-164.31 1904.37,-131.93"/>
<polygon fill="midnightblue" stroke="midnightblue" points="1904.86,-135.4 1914.43,-130.85 1904.12,-128.43 1904.86,-135.4"/>
</g>
<!-- Node28 -->
<g id="node28" class="node">
<title>Node28</title>
<g id="a_node28"><a xlink:href="convert_8h.html" target="_top" xlink:title=" ">
<polygon fill="white" stroke="black" points="2024,-112.5 2024,-131.5 2116,-131.5 2116,-112.5 2024,-112.5"/>
<text text-anchor="middle" x="2070" y="-119.5" font-family="FreeSans" font-size="10.00">wand/convert.h</text>
</a>
</g>
</g>
<!-- Node19&#45;&gt;Node28 -->
<g id="edge33" class="edge">
<title>Node19&#45;&gt;Node28</title>
<path fill="none" stroke="midnightblue" d="M1206.79,-168.8C1209.57,-168.51 1212.31,-168.24 1215,-168 1565.77,-136.6 1658.67,-167.67 2013.86,-131.86"/>
<polygon fill="midnightblue" stroke="midnightblue" points="2014.32,-135.33 2023.91,-130.84 2013.61,-128.37 2014.32,-135.33"/>
</g>
<!-- Node29 -->
<g id="node29" class="node">
<title>Node29</title>
<g id="a_node29"><a xlink:href="deprecate_8h.html" target="_top" xlink:title=" ">
<polygon fill="white" stroke="black" points="2210,-112.5 2210,-131.5 2314,-131.5 2314,-112.5 2210,-112.5"/>
<text text-anchor="middle" x="2262" y="-119.5" font-family="FreeSans" font-size="10.00">wand/deprecate.h</text>
</a>
</g>
</g>
<!-- Node19&#45;&gt;Node29 -->
<g id="edge34" class="edge">
<title>Node19&#45;&gt;Node29</title>
<path fill="none" stroke="midnightblue" d="M1206.79,-168.78C1209.56,-168.49 1212.31,-168.23 1215,-168 1649.71,-130.91 1761.32,-169.52 2196,-132 2197.26,-131.89 2198.54,-131.77 2199.83,-131.65"/>
<polygon fill="midnightblue" stroke="midnightblue" points="2200.24,-135.13 2209.81,-130.6 2199.5,-128.17 2200.24,-135.13"/>
</g>
<!-- Node30 -->
<g id="node30" class="node">
<title>Node30</title>
<g id="a_node30"><a xlink:href="drawing-wand_8h.html" target="_top" xlink:title=" ">
<polygon fill="white" stroke="black" points="2091,-56.5 2091,-75.5 2215,-75.5 2215,-56.5 2091,-56.5"/>
<text text-anchor="middle" x="2153" y="-63.5" font-family="FreeSans" font-size="10.00">wand/drawing&#45;wand.h</text>
</a>
</g>
</g>
<!-- Node19&#45;&gt;Node30 -->
<g id="edge44" class="edge">
<title>Node19&#45;&gt;Node30</title>
<path fill="none" stroke="midnightblue" d="M1206.79,-168.78C1209.56,-168.49 1212.31,-168.23 1215,-168 1267.23,-163.51 2121.64,-169.77 2158,-132 2169.75,-119.8 2166.05,-99.64 2160.95,-85.01"/>
<polygon fill="midnightblue" stroke="midnightblue" points="2164.13,-83.53 2157.19,-75.52 2157.62,-86.11 2164.13,-83.53"/>
</g>
<!-- Node31 -->
<g id="node31" class="node">
<title>Node31</title>
<g id="a_node31"><a xlink:href="pixel-wand_8h.html" target="_top" xlink:title=" ">
<polygon fill="white" stroke="black" points="2140,-0.5 2140,-19.5 2248,-19.5 2248,-0.5 2140,-0.5"/>
<text text-anchor="middle" x="2194" y="-7.5" font-family="FreeSans" font-size="10.00">wand/pixel&#45;wand.h</text>
</a>
</g>
</g>
<!-- Node19&#45;&gt;Node31 -->
<g id="edge52" class="edge">
<title>Node19&#45;&gt;Node31</title>
<path fill="none" stroke="midnightblue" d="M1206.79,-168.78C1209.56,-168.5 1212.31,-168.23 1215,-168 1265.41,-163.63 2089.94,-168.48 2125,-132 2131.16,-125.59 2128.76,-120.05 2125,-112 2114.45,-89.42 2092.55,-98.58 2082,-76 2078.24,-67.95 2077.02,-63.36 2082,-56 2093.14,-39.52 2111.43,-29.07 2130.02,-22.45"/>
<polygon fill="midnightblue" stroke="midnightblue" points="2131.29,-25.72 2139.74,-19.32 2129.15,-19.05 2131.29,-25.72"/>
</g>
<!-- Node33 -->
<g id="node33" class="node">
<title>Node33</title>
<g id="a_node33"><a xlink:href="pixel-iterator_8h.html" target="_top" xlink:title=" ">
<polygon fill="white" stroke="black" points="2309.5,-56.5 2309.5,-75.5 2426.5,-75.5 2426.5,-56.5 2309.5,-56.5"/>
<text text-anchor="middle" x="2368" y="-63.5" font-family="FreeSans" font-size="10.00">wand/pixel&#45;iterator.h</text>
</a>
</g>
</g>
<!-- Node19&#45;&gt;Node33 -->
<g id="edge51" class="edge">
<title>Node19&#45;&gt;Node33</title>
<path fill="none" stroke="midnightblue" d="M1206.79,-168.76C1209.56,-168.48 1212.31,-168.22 1215,-168 1276.38,-162.89 2268.92,-161.47 2323,-132 2341.41,-121.97 2353.87,-100.77 2360.93,-85.3"/>
<polygon fill="midnightblue" stroke="midnightblue" points="2364.31,-86.28 2364.96,-75.71 2357.86,-83.57 2364.31,-86.28"/>
</g>
<!-- Node34 -->
<g id="node34" class="node">
<title>Node34</title>
<g id="a_node34"><a xlink:href="display_8h.html" target="_top" xlink:title=" ">
<polygon fill="white" stroke="black" points="2408.5,-112.5 2408.5,-131.5 2497.5,-131.5 2497.5,-112.5 2408.5,-112.5"/>
<text text-anchor="middle" x="2453" y="-119.5" font-family="FreeSans" font-size="10.00">wand/display.h</text>
</a>
</g>
</g>
<!-- Node19&#45;&gt;Node34 -->
<g id="edge43" class="edge">
<title>Node19&#45;&gt;Node34</title>
<path fill="none" stroke="midnightblue" d="M1206.79,-168.75C1209.56,-168.48 1212.31,-168.22 1215,-168 1737.48,-125.05 1871.92,-179.61 2394,-132 2395.31,-131.88 2396.63,-131.75 2397.96,-131.61"/>
<polygon fill="midnightblue" stroke="midnightblue" points="2398.77,-135.04 2408.29,-130.4 2397.95,-128.09 2398.77,-135.04"/>
</g>
<!-- Node35 -->
<g id="node35" class="node">
<title>Node35</title>
<g id="a_node35"><a xlink:href="identify_8h.html" target="_top" xlink:title=" ">
<polygon fill="white" stroke="black" points="2516,-112.5 2516,-131.5 2606,-131.5 2606,-112.5 2516,-112.5"/>
<text text-anchor="middle" x="2561" y="-119.5" font-family="FreeSans" font-size="10.00">wand/identify.h</text>
</a>
</g>
</g>
<!-- Node19&#45;&gt;Node35 -->
<g id="edge45" class="edge">
<title>Node19&#45;&gt;Node35</title>
<path fill="none" stroke="midnightblue" d="M1206.79,-168.75C1209.56,-168.47 1212.31,-168.22 1215,-168 1784.22,-121.97 1933.48,-186.58 2505.82,-131.96"/>
<polygon fill="midnightblue" stroke="midnightblue" points="2506.36,-135.42 2515.98,-130.98 2505.69,-128.45 2506.36,-135.42"/>
</g>
<!-- Node36 -->
<g id="node36" class="node">
<title>Node36</title>
<g id="a_node36"><a xlink:href="import_8h.html" target="_top" xlink:title=" ">
<polygon fill="white" stroke="black" points="2624.5,-112.5 2624.5,-131.5 2711.5,-131.5 2711.5,-112.5 2624.5,-112.5"/>
<text text-anchor="middle" x="2668" y="-119.5" font-family="FreeSans" font-size="10.00">wand/import.h</text>
</a>
</g>
</g>
<!-- Node19&#45;&gt;Node36 -->
<g id="edge46" class="edge">
<title>Node19&#45;&gt;Node36</title>
<path fill="none" stroke="midnightblue" d="M1206.79,-168.74C1209.56,-168.46 1212.31,-168.21 1215,-168 1832.12,-118.76 1993.76,-191.47 2614.3,-131.89"/>
<polygon fill="midnightblue" stroke="midnightblue" points="2614.78,-135.36 2624.39,-130.91 2614.1,-128.39 2614.78,-135.36"/>
</g>
<!-- Node37 -->
<g id="node37" class="node">
<title>Node37</title>
<g id="a_node37"><a xlink:href="magick-property_8h.html" target="_top" xlink:title=" ">
<polygon fill="white" stroke="black" points="2730,-112.5 2730,-131.5 2864,-131.5 2864,-112.5 2730,-112.5"/>
<text text-anchor="middle" x="2797" y="-119.5" font-family="FreeSans" font-size="10.00">wand/magick&#45;property.h</text>
</a>
</g>
</g>
<!-- Node19&#45;&gt;Node37 -->
<g id="edge47" class="edge">
<title>Node19&#45;&gt;Node37</title>
<path fill="none" stroke="midnightblue" d="M1206.79,-168.73C1209.56,-168.46 1212.31,-168.21 1215,-168 1879.03,-115.62 2051.39,-178.77 2719.53,-132.02"/>
<polygon fill="midnightblue" stroke="midnightblue" points="2720.17,-135.49 2729.9,-131.29 2719.67,-128.51 2720.17,-135.49"/>
</g>
<!-- Node38 -->
<g id="node38" class="node">
<title>Node38</title>
<g id="a_node38"><a xlink:href="magick-image_8h.html" target="_top" xlink:title=" ">
<polygon fill="white" stroke="black" points="520.5,-112.5 520.5,-131.5 645.5,-131.5 645.5,-112.5 520.5,-112.5"/>
<text text-anchor="middle" x="583" y="-119.5" font-family="FreeSans" font-size="10.00">wand/magick&#45;image.h</text>
</a>
</g>
</g>
<!-- Node19&#45;&gt;Node38 -->
<g id="edge48" class="edge">
<title>Node19&#45;&gt;Node38</title>
<path fill="none" stroke="midnightblue" d="M1089.26,-170.72C1080.14,-169.79 1070.82,-168.85 1062,-168 884.08,-150.84 836.7,-151.42 655.83,-132.16"/>
<polygon fill="midnightblue" stroke="midnightblue" points="656.02,-128.66 645.7,-131.08 655.28,-135.62 656.02,-128.66"/>
</g>
<!-- Node39 -->
<g id="node39" class="node">
<title>Node39</title>
<g id="a_node39"><a xlink:href="mogrify_8h.html" target="_top" xlink:title=" ">
<polygon fill="white" stroke="black" points="663.5,-112.5 663.5,-131.5 754.5,-131.5 754.5,-112.5 663.5,-112.5"/>
<text text-anchor="middle" x="709" y="-119.5" font-family="FreeSans" font-size="10.00">wand/mogrify.h</text>
</a>
</g>
</g>
<!-- Node19&#45;&gt;Node39 -->
<g id="edge49" class="edge">
<title>Node19&#45;&gt;Node39</title>
<path fill="none" stroke="midnightblue" d="M1089.22,-170.44C1001.82,-160.64 840.64,-142.35 764.72,-132.03"/>
<polygon fill="midnightblue" stroke="midnightblue" points="764.98,-128.53 754.59,-130.62 764.02,-135.46 764.98,-128.53"/>
</g>
<!-- Node40 -->
<g id="node40" class="node">
<title>Node40</title>
<g id="a_node40"><a xlink:href="montage_8h.html" target="_top" xlink:title=" ">
<polygon fill="white" stroke="black" points="773,-112.5 773,-131.5 871,-131.5 871,-112.5 773,-112.5"/>
<text text-anchor="middle" x="822" y="-119.5" font-family="FreeSans" font-size="10.00">wand/montage.h</text>
</a>
</g>
</g>
<!-- Node19&#45;&gt;Node40 -->
<g id="edge50" class="edge">
<title>Node19&#45;&gt;Node40</title>
<path fill="none" stroke="midnightblue" d="M1096.34,-168.44C1037.76,-158.74 942.4,-142.94 880.95,-132.76"/>
<polygon fill="midnightblue" stroke="midnightblue" points="881.45,-129.3 871.02,-131.12 880.31,-136.21 881.45,-129.3"/>
</g>
<!-- Node41 -->
<g id="node41" class="node">
<title>Node41</title>
<g id="a_node41"><a xlink:href="stream_8h.html" target="_top" xlink:title=" ">
<polygon fill="white" stroke="black" points="889.5,-112.5 889.5,-131.5 978.5,-131.5 978.5,-112.5 889.5,-112.5"/>
<text text-anchor="middle" x="934" y="-119.5" font-family="FreeSans" font-size="10.00">wand/stream.h</text>
</a>
</g>
</g>
<!-- Node19&#45;&gt;Node41 -->
<g id="edge53" class="edge">
<title>Node19&#45;&gt;Node41</title>
<path fill="none" stroke="midnightblue" d="M1114.09,-168.44C1077.15,-159.12 1017.95,-144.18 977.58,-134"/>
<polygon fill="midnightblue" stroke="midnightblue" points="978.3,-130.57 967.75,-131.52 976.59,-137.36 978.3,-130.57"/>
</g>
<!-- Node42 -->
<g id="node42" class="node">
<title>Node42</title>
<g id="a_node42"><a xlink:href="wand-view_8h.html" target="_top" xlink:title=" ">
<polygon fill="white" stroke="black" points="996.5,-112.5 996.5,-131.5 1103.5,-131.5 1103.5,-112.5 996.5,-112.5"/>
<text text-anchor="middle" x="1050" y="-119.5" font-family="FreeSans" font-size="10.00">wand/wand&#45;view.h</text>
</a>
</g>
</g>
<!-- Node19&#45;&gt;Node42 -->
<g id="edge54" class="edge">
<title>Node19&#45;&gt;Node42</title>
<path fill="none" stroke="midnightblue" d="M1132.25,-168.32C1116.68,-159.74 1092.62,-146.49 1074.54,-136.52"/>
<polygon fill="midnightblue" stroke="midnightblue" points="1076.15,-133.42 1065.71,-131.65 1072.78,-139.55 1076.15,-133.42"/>
</g>
<!-- Node29&#45;&gt;Node30 -->
<g id="edge35" class="edge">
<title>Node29&#45;&gt;Node30</title>
<path fill="none" stroke="midnightblue" d="M2244.49,-112.32C2226.93,-103.62 2199.67,-90.12 2179.47,-80.11"/>
<polygon fill="midnightblue" stroke="midnightblue" points="2180.98,-76.96 2170.47,-75.65 2177.88,-83.23 2180.98,-76.96"/>
</g>
<!-- Node29&#45;&gt;Node31 -->
<g id="edge42" class="edge">
<title>Node29&#45;&gt;Node31</title>
<path fill="none" stroke="midnightblue" d="M2257.24,-112.49C2250.19,-99.98 2236.47,-75.95 2224,-56 2218.14,-46.63 2211.33,-36.36 2205.68,-28"/>
<polygon fill="midnightblue" stroke="midnightblue" points="2208.43,-25.82 2199.9,-19.53 2202.64,-29.76 2208.43,-25.82"/>
</g>
<!-- Node32 -->
<g id="node32" class="node">
<title>Node32</title>
<g id="a_node32"><a xlink:href="magick-wand_8h.html" target="_top" xlink:title=" ">
<polygon fill="white" stroke="black" points="2307.5,-0.5 2307.5,-19.5 2428.5,-19.5 2428.5,-0.5 2307.5,-0.5"/>
<text text-anchor="middle" x="2368" y="-7.5" font-family="FreeSans" font-size="10.00">wand/magick&#45;wand.h</text>
</a>
</g>
</g>
<!-- Node29&#45;&gt;Node32 -->
<g id="edge37" class="edge">
<title>Node29&#45;&gt;Node32</title>
<path fill="none" stroke="midnightblue" d="M2265.59,-112.18C2271.34,-98.84 2283.65,-73.28 2300,-56 2312.01,-43.3 2328.26,-32.38 2341.86,-24.48"/>
<polygon fill="midnightblue" stroke="midnightblue" points="2343.75,-27.44 2350.77,-19.51 2340.33,-21.32 2343.75,-27.44"/>
</g>
<!-- Node29&#45;&gt;Node33 -->
<g id="edge39" class="edge">
<title>Node29&#45;&gt;Node33</title>
<path fill="none" stroke="midnightblue" d="M2279.03,-112.32C2296.03,-103.66 2322.38,-90.24 2341.99,-80.25"/>
<polygon fill="midnightblue" stroke="midnightblue" points="2343.69,-83.31 2351.01,-75.65 2340.51,-77.08 2343.69,-83.31"/>
</g>
<!-- Node30&#45;&gt;Node31 -->
<g id="edge36" class="edge">
<title>Node30&#45;&gt;Node31</title>
<path fill="none" stroke="midnightblue" d="M2159.77,-56.08C2165.56,-48.46 2174.06,-37.26 2181.14,-27.94"/>
<polygon fill="midnightblue" stroke="midnightblue" points="2184.1,-29.83 2187.36,-19.75 2178.52,-25.6 2184.1,-29.83"/>
</g>
<!-- Node32&#45;&gt;Node19 -->
<g id="edge38" class="edge">
<title>Node32&#45;&gt;Node19</title>
<path fill="none" stroke="midnightblue" d="M2389.96,-19.64C2414.58,-30.74 2449.44,-51.52 2436,-76 2424.85,-96.32 2370.15,-125.17 2348,-132 2230.35,-168.3 1379.99,-158.1 1216.92,-168.04"/>
<polygon fill="midnightblue" stroke="midnightblue" points="1216.52,-164.56 1206.79,-168.76 1217.01,-171.54 1216.52,-164.56"/>
</g>
<!-- Node33&#45;&gt;Node31 -->
<g id="edge41" class="edge">
<title>Node33&#45;&gt;Node31</title>
<path fill="none" stroke="midnightblue" d="M2340.43,-56.44C2310.9,-47.28 2263.88,-32.69 2231.12,-22.52"/>
<polygon fill="midnightblue" stroke="midnightblue" points="2232.03,-19.14 2221.44,-19.52 2229.96,-25.82 2232.03,-19.14"/>
</g>
<!-- Node33&#45;&gt;Node32 -->
<g id="edge40" class="edge">
<title>Node33&#45;&gt;Node32</title>
<path fill="none" stroke="midnightblue" d="M2368,-56.08C2368,-49.01 2368,-38.86 2368,-29.99"/>
<polygon fill="midnightblue" stroke="midnightblue" points="2371.5,-29.75 2368,-19.75 2364.5,-29.75 2371.5,-29.75"/>
</g>
</g>
</svg>
