<?xml version="1.0" encoding="UTF-8" standalone="no"?>
<!DOCTYPE svg PUBLIC "-//W3C//DTD SVG 1.1//EN"
 "http://www.w3.org/Graphics/SVG/1.1/DTD/svg11.dtd">
<!-- Generated by graphviz version 2.43.0 (0)
 -->
<!-- Title: wand.h Pages: 1 -->
<svg width="906pt" height="84pt"
 viewBox="0.00 0.00 905.50 84.00" xmlns="http://www.w3.org/2000/svg" xmlns:xlink="http://www.w3.org/1999/xlink">
<g id="graph0" class="graph" transform="scale(1 1) rotate(0) translate(4 80)">
<title>wand.h</title>
<polygon fill="white" stroke="transparent" points="-4,4 -4,-80 901.5,-80 901.5,4 -4,4"/>
<!-- Node1 -->
<g id="node1" class="node">
<title>Node1</title>
<g id="a_node1"><a xlink:title=" ">
<polygon fill="#bfbfbf" stroke="black" points="460,-56.5 460,-75.5 512,-75.5 512,-56.5 460,-56.5"/>
<text text-anchor="middle" x="486" y="-63.5" font-family="FreeSans" font-size="10.00">wand.h</text>
</a>
</g>
</g>
<!-- Node2 -->
<g id="node2" class="node">
<title>Node2</title>
<g id="a_node2"><a xlink:href="deprecate_8c.html" target="_top" xlink:title=" ">
<polygon fill="white" stroke="black" points="0,-0.5 0,-19.5 74,-19.5 74,-0.5 0,-0.5"/>
<text text-anchor="middle" x="37" y="-7.5" font-family="FreeSans" font-size="10.00">deprecate.c</text>
</a>
</g>
</g>
<!-- Node1&#45;&gt;Node2 -->
<g id="edge1" class="edge">
<title>Node1&#45;&gt;Node2</title>
<path fill="none" stroke="midnightblue" d="M449.81,-61.96C379.1,-55.8 217.69,-40.66 83,-20 80.1,-19.56 77.11,-19.06 74.11,-18.53"/>
<polygon fill="midnightblue" stroke="midnightblue" points="449.71,-65.47 459.97,-62.84 450.31,-58.49 449.71,-65.47"/>
</g>
<!-- Node3 -->
<g id="node3" class="node">
<title>Node3</title>
<g id="a_node3"><a xlink:href="drawing-wand_8c.html" target="_top" xlink:title=" ">
<polygon fill="white" stroke="black" points="92,-0.5 92,-19.5 186,-19.5 186,-0.5 92,-0.5"/>
<text text-anchor="middle" x="139" y="-7.5" font-family="FreeSans" font-size="10.00">drawing&#45;wand.c</text>
</a>
</g>
</g>
<!-- Node1&#45;&gt;Node3 -->
<g id="edge2" class="edge">
<title>Node1&#45;&gt;Node3</title>
<path fill="none" stroke="midnightblue" d="M449.95,-59.5C394.96,-51.08 286.8,-34.47 195,-20 192.08,-19.54 189.08,-19.06 186.05,-18.58"/>
<polygon fill="midnightblue" stroke="midnightblue" points="449.49,-62.97 459.91,-61.02 450.55,-56.05 449.49,-62.97"/>
</g>
<!-- Node4 -->
<g id="node4" class="node">
<title>Node4</title>
<g id="a_node4"><a xlink:href="magick-image_8c.html" target="_top" xlink:title=" ">
<polygon fill="white" stroke="black" points="204.5,-0.5 204.5,-19.5 299.5,-19.5 299.5,-0.5 204.5,-0.5"/>
<text text-anchor="middle" x="252" y="-7.5" font-family="FreeSans" font-size="10.00">magick&#45;image.c</text>
</a>
</g>
</g>
<!-- Node1&#45;&gt;Node4 -->
<g id="edge3" class="edge">
<title>Node1&#45;&gt;Node4</title>
<path fill="none" stroke="midnightblue" d="M449.7,-56.62C406.01,-46.54 333.06,-29.71 289.04,-19.55"/>
<polygon fill="midnightblue" stroke="midnightblue" points="449.08,-60.07 459.61,-58.91 450.66,-53.25 449.08,-60.07"/>
</g>
<!-- Node5 -->
<g id="node5" class="node">
<title>Node5</title>
<g id="a_node5"><a xlink:href="magick-property_8c.html" target="_top" xlink:title=" ">
<polygon fill="white" stroke="black" points="318,-0.5 318,-19.5 422,-19.5 422,-0.5 318,-0.5"/>
<text text-anchor="middle" x="370" y="-7.5" font-family="FreeSans" font-size="10.00">magick&#45;property.c</text>
</a>
</g>
</g>
<!-- Node1&#45;&gt;Node5 -->
<g id="edge4" class="edge">
<title>Node1&#45;&gt;Node5</title>
<path fill="none" stroke="midnightblue" d="M458.28,-52.1C436.61,-42.01 407.1,-28.27 388.29,-19.52"/>
<polygon fill="midnightblue" stroke="midnightblue" points="457.08,-55.4 467.62,-56.44 460.03,-49.05 457.08,-55.4"/>
</g>
<!-- Node6 -->
<g id="node6" class="node">
<title>Node6</title>
<g id="a_node6"><a xlink:href="magick-wand_8c.html" target="_top" xlink:title=" ">
<polygon fill="white" stroke="black" points="440.5,-0.5 440.5,-19.5 531.5,-19.5 531.5,-0.5 440.5,-0.5"/>
<text text-anchor="middle" x="486" y="-7.5" font-family="FreeSans" font-size="10.00">magick&#45;wand.c</text>
</a>
</g>
</g>
<!-- Node1&#45;&gt;Node6 -->
<g id="edge5" class="edge">
<title>Node1&#45;&gt;Node6</title>
<path fill="none" stroke="midnightblue" d="M486,-45.8C486,-36.91 486,-26.78 486,-19.75"/>
<polygon fill="midnightblue" stroke="midnightblue" points="482.5,-46.08 486,-56.08 489.5,-46.08 482.5,-46.08"/>
</g>
<!-- Node7 -->
<g id="node7" class="node">
<title>Node7</title>
<g id="a_node7"><a xlink:href="pixel-iterator_8c.html" target="_top" xlink:title=" ">
<polygon fill="white" stroke="black" points="549.5,-0.5 549.5,-19.5 636.5,-19.5 636.5,-0.5 549.5,-0.5"/>
<text text-anchor="middle" x="593" y="-7.5" font-family="FreeSans" font-size="10.00">pixel&#45;iterator.c</text>
</a>
</g>
</g>
<!-- Node1&#45;&gt;Node7 -->
<g id="edge6" class="edge">
<title>Node1&#45;&gt;Node7</title>
<path fill="none" stroke="midnightblue" d="M512.3,-51.73C532.11,-41.73 558.71,-28.31 575.85,-19.65"/>
<polygon fill="midnightblue" stroke="midnightblue" points="510.54,-48.69 503.19,-56.32 513.7,-54.94 510.54,-48.69"/>
</g>
<!-- Node8 -->
<g id="node8" class="node">
<title>Node8</title>
<g id="a_node8"><a xlink:href="pixel-wand_8c.html" target="_top" xlink:title=" ">
<polygon fill="white" stroke="black" points="655,-0.5 655,-19.5 733,-19.5 733,-0.5 655,-0.5"/>
<text text-anchor="middle" x="694" y="-7.5" font-family="FreeSans" font-size="10.00">pixel&#45;wand.c</text>
</a>
</g>
</g>
<!-- Node1&#45;&gt;Node8 -->
<g id="edge7" class="edge">
<title>Node1&#45;&gt;Node8</title>
<path fill="none" stroke="midnightblue" d="M522.26,-55.59C561.4,-45.42 623.21,-29.38 661.02,-19.56"/>
<polygon fill="midnightblue" stroke="midnightblue" points="521.14,-52.26 512.34,-58.16 522.9,-59.04 521.14,-52.26"/>
</g>
<!-- Node9 -->
<g id="node9" class="node">
<title>Node9</title>
<g id="a_node9"><a xlink:href="wand-view_8c.html" target="_top" xlink:title=" ">
<polygon fill="white" stroke="black" points="751.5,-0.5 751.5,-19.5 828.5,-19.5 828.5,-0.5 751.5,-0.5"/>
<text text-anchor="middle" x="790" y="-7.5" font-family="FreeSans" font-size="10.00">wand&#45;view.c</text>
</a>
</g>
</g>
<!-- Node1&#45;&gt;Node9 -->
<g id="edge8" class="edge">
<title>Node1&#45;&gt;Node9</title>
<path fill="none" stroke="midnightblue" d="M522.1,-58.79C571.69,-50.22 663.66,-34.23 742,-20 745.09,-19.44 748.28,-18.85 751.49,-18.26"/>
<polygon fill="midnightblue" stroke="midnightblue" points="521.44,-55.35 512.18,-60.5 522.63,-62.25 521.44,-55.35"/>
</g>
<!-- Node10 -->
<g id="node10" class="node">
<title>Node10</title>
<g id="a_node10"><a xlink:href="wand_8c.html" target="_top" xlink:title=" ">
<polygon fill="white" stroke="black" points="846.5,-0.5 846.5,-19.5 897.5,-19.5 897.5,-0.5 846.5,-0.5"/>
<text text-anchor="middle" x="872" y="-7.5" font-family="FreeSans" font-size="10.00">wand.c</text>
</a>
</g>
</g>
<!-- Node1&#45;&gt;Node10 -->
<g id="edge9" class="edge">
<title>Node1&#45;&gt;Node10</title>
<path fill="none" stroke="midnightblue" d="M522.25,-61.95C586.35,-56.21 723.73,-42.33 838,-20 840.76,-19.46 843.62,-18.83 846.46,-18.15"/>
<polygon fill="midnightblue" stroke="midnightblue" points="521.9,-58.47 512.24,-62.84 522.51,-65.44 521.9,-58.47"/>
</g>
</g>
</svg>
